0, 0, Header, 1, 2, 384
1, 0, Start_track
1, 0, Tempo, 500000
1, 0, Time_signature, 4, 2, 24, 8
1, 1, End_track
2, 0, Start_track
2, 1652, Note_on_c, 0, 32, 52
2, 1820, Note_on_c, 0, 32, 0
2, 1822, Note_on_c, 0, 56, 66
2, 1828, Note_on_c, 0, 44, 61
2, 1829, Note_on_c, 0, 32, 50
2, 1896, Note_on_c, 0, 56, 0
2, 1958, Note_on_c, 0, 32, 0
2, 1969, Note_on_c, 0, 32, 59
2, 1970, Note_on_c, 0, 56, 74
2, 2115, Note_on_c, 0, 54, 68
2, 2135, Note_on_c, 0, 32, 0
2, 2146, Note_on_c, 0, 32, 53
2, 2190, Note_on_c, 0, 54, 0
2, 2196, Note_on_c, 0, 44, 0
2, 2196, Note_on_c, 0, 56, 0
2, 2204, Note_on_c, 0, 56, 74
2, 2225, Note_on_c, 0, 51, 57
2, 2234, Note_on_c, 0, 32, 0
2, 2239, Note_on_c, 0, 32, 53
2, 2288, Note_on_c, 0, 32, 0
2, 2298, Note_on_c, 0, 32, 64
2, 2365, Note_on_c, 0, 32, 0
2, 2365, Note_on_c, 0, 56, 0
2, 2369, Note_on_c, 0, 56, 60
2, 2370, Note_on_c, 0, 32, 49
2, 2457, Note_on_c, 0, 32, 0
2, 2457, Note_on_c, 0, 56, 0
2, 2466, Note_on_c, 0, 32, 63
2, 2467, Note_on_c, 0, 56, 77
2, 2470, Note_on_c, 0, 44, 70
2, 2611, Note_on_c, 0, 32, 0
2, 2614, Note_on_c, 0, 54, 75
2, 2616, Note_on_c, 0, 32, 65
2, 2630, Note_on_c, 0, 56, 0
2, 2649, Note_on_c, 0, 51, 0
2, 2677, Note_on_c, 0, 54, 0
2, 2680, Note_on_c, 0, 44, 0
2, 2695, Note_on_c, 0, 32, 0
2, 2700, Note_on_c, 0, 32, 38
2, 2783, Note_on_c, 0, 54, 59
2, 2787, Note_on_c, 0, 32, 0
2, 2793, Note_on_c, 0, 44, 67
2, 2795, Note_on_c, 0, 32, 63
2, 2860, Note_on_c, 0, 54, 0
2, 2860, Note_on_c, 0, 56, 76
2, 2885, Note_on_c, 0, 51, 49
2, 2926, Note_on_c, 0, 51, 0
2, 2933, Note_on_c, 0, 44, 0
2, 2949, Note_on_c, 0, 32, 0
2, 2953, Note_on_c, 0, 32, 63
2, 2973, Note_on_c, 0, 56, 0
2, 3018, Note_on_c, 0, 32, 0
2, 3024, Note_on_c, 0, 32, 47
2, 3110, Note_on_c, 0, 32, 0
2, 3117, Note_on_c, 0, 44, 69
2, 3118, Note_on_c, 0, 32, 57
2, 3118, Note_on_c, 0, 56, 73
2, 3160, Note_on_c, 0, 56, 0
2, 3264, Note_on_c, 0, 32, 0
2, 3272, Note_on_c, 0, 32, 64
2, 3274, Note_on_c, 0, 56, 81
2, 3415, Note_on_c, 0, 54, 68
2, 3425, Note_on_c, 0, 32, 0
2, 3435, Note_on_c, 0, 32, 58
2, 3476, Note_on_c, 0, 54, 0
2, 3494, Note_on_c, 0, 32, 0
2, 3494, Note_on_c, 0, 56, 0
2, 3500, Note_on_c, 0, 32, 67
2, 3502, Note_on_c, 0, 44, 0
2, 3504, Note_on_c, 0, 56, 78
2, 3505, Note_on_c, 0, 51, 66
2, 3506, Note_on_c, 0, 44, 69
2, 3586, Note_on_c, 0, 44, 0
2, 3594, Note_on_c, 0, 32, 0
2, 3599, Note_on_c, 0, 32, 69
2, 3663, Note_on_c, 0, 56, 0
2, 3667, Note_on_c, 0, 56, 56
2, 3694, Note_on_c, 0, 56, 0
2, 3755, Note_on_c, 0, 32, 0
2, 3766, Note_on_c, 0, 32, 68
2, 3766, Note_on_c, 0, 56, 82
2, 3767, Note_on_c, 0, 44, 73
2, 3778, Note_on_c, 0, 51, 0
2, 3909, Note_on_c, 0, 44, 0
2, 3909, Note_on_c, 0, 56, 0
2, 3916, Note_on_c, 0, 32, 0
2, 3921, Note_on_c, 0, 54, 69
2, 3922, Note_on_c, 0, 32, 74
2, 3978, Note_on_c, 0, 54, 0
2, 4078, Note_on_c, 0, 32, 0
2, 4083, Note_on_c, 0, 54, 64
2, 4086, Note_on_c, 0, 32, 70
2, 4088, Note_on_c, 0, 44, 72
2, 4158, Note_on_c, 0, 56, 84
2, 4158, Note_on_c, 0, 54, 0
2, 4174, Note_on_c, 0, 51, 63
2, 4216, Note_on_c, 0, 44, 0
2, 4247, Note_on_c, 0, 32, 0
2, 4251, Note_on_c, 0, 32, 69
2, 4264, Note_on_c, 0, 44, 62
2, 4273, Note_on_c, 0, 56, 0
2, 4300, Note_on_c, 0, 51, 0
2, 4408, Note_on_c, 0, 32, 0
2, 4408, Note_on_c, 0, 44, 0
2, 4413, Note_on_c, 0, 56, 81
2, 4414, Note_on_c, 0, 44, 74
2, 4415, Note_on_c, 0, 32, 61
2, 4451, Note_on_c, 0, 56, 0
2, 4523, Note_on_c, 0, 44, 0
2, 4561, Note_on_c, 0, 32, 0
2, 4567, Note_on_c, 0, 32, 66
2, 4568, Note_on_c, 0, 56, 83
2, 4683, Note_on_c, 0, 56, 0
2, 4717, Note_on_c, 0, 54, 67
2, 4723, Note_on_c, 0, 32, 0
2, 4733, Note_on_c, 0, 32, 61
2, 4735, Note_on_c, 0, 44, 63
2, 4771, Note_on_c, 0, 54, 0
2, 4799, Note_on_c, 0, 56, 85
2, 4801, Note_on_c, 0, 32, 0
2, 4802, Note_on_c, 0, 51, 76
2, 4815, Note_on_c, 0, 44, 0
2, 4895, Note_on_c, 0, 32, 80
2, 4965, Note_on_c, 0, 44, 46
2, 5045, Note_on_c, 0, 32, 0
2, 5045, Note_on_c, 0, 44, 0
2, 5045, Note_on_c, 0, 56, 0
2, 5052, Note_on_c, 0, 32, 78
2, 5053, Note_on_c, 0, 44, 82
2, 5054, Note_on_c, 0, 56, 87
2, 5168, Note_on_c, 0, 44, 0
2, 5172, Note_on_c, 0, 51, 0
2, 5173, Note_on_c, 0, 56, 0
2, 5176, Note_on_c, 0, 32, 0
2, 5211, Note_on_c, 0, 32, 86
2, 5211, Note_on_c, 0, 44, 80
2, 5215, Note_on_c, 0, 54, 86
2, 5263, Note_on_c, 0, 54, 0
2, 5268, Note_on_c, 0, 44, 0
2, 5346, Note_on_c, 0, 54, 68
2, 5360, Note_on_c, 0, 32, 0
2, 5367, Note_on_c, 0, 44, 82
2, 5368, Note_on_c, 0, 32, 74
2, 5445, Note_on_c, 0, 56, 93
2, 5460, Note_on_c, 0, 44, 0
2, 5460, Note_on_c, 0, 54, 0
2, 5463, Note_on_c, 0, 32, 0
2, 5468, Note_on_c, 0, 54, 63
2, 5471, Note_on_c, 0, 51, 77
2, 5506, Note_on_c, 0, 54, 0
2, 5533, Note_on_c, 0, 32, 89
2, 5534, Note_on_c, 0, 44, 82
2, 5601, Note_on_c, 0, 32, 0
2, 5606, Note_on_c, 0, 44, 0
2, 5616, Note_on_c, 0, 44, 61
2, 5635, Note_on_c, 0, 56, 0
2, 5644, Note_on_c, 0, 51, 0
2, 5660, Note_on_c, 0, 44, 0
2, 5693, Note_on_c, 0, 59, 94
2, 5723, Note_on_c, 0, 56, 42
2, 5729, Note_on_c, 0, 56, 0
2, 5786, Note_on_c, 0, 58, 86
2, 5826, Note_on_c, 0, 59, 0
2, 5854, Note_on_c, 0, 58, 0
2, 5865, Note_on_c, 0, 56, 80
2, 5928, Note_on_c, 0, 56, 0
2, 5932, Note_on_c, 0, 58, 76
2, 5935, Note_on_c, 0, 56, 67
2, 5967, Note_on_c, 0, 56, 0
2, 6017, Note_on_c, 0, 56, 84
2, 6027, Note_on_c, 0, 58, 0
2, 6086, Note_on_c, 0, 54, 82
2, 6137, Note_on_c, 0, 54, 0
2, 6167, Note_on_c, 0, 56, 0
2, 6172, Note_on_c, 0, 56, 79
2, 6242, Note_on_c, 0, 54, 76
2, 6279, Note_on_c, 0, 56, 0
2, 6301, Note_on_c, 0, 54, 0
2, 6315, Note_on_c, 0, 32, 64
2, 6316, Note_on_c, 0, 51, 79
2, 6351, Note_on_c, 0, 32, 0
2, 6357, Note_on_c, 0, 51, 0
2, 6399, Note_on_c, 0, 54, 68
2, 6470, Note_on_c, 0, 51, 79
2, 6521, Note_on_c, 0, 54, 0
2, 6549, Note_on_c, 0, 49, 76
2, 6554, Note_on_c, 0, 37, 56
2, 6558, Note_on_c, 0, 37, 0
2, 6585, Note_on_c, 0, 51, 0
2, 6624, Note_on_c, 0, 49, 0
2, 6632, Note_on_c, 0, 47, 73
2, 6636, Note_on_c, 0, 51, 55
2, 6713, Note_on_c, 0, 46, 83
2, 6727, Note_on_c, 0, 47, 0
2, 6750, Note_on_c, 0, 51, 0
2, 6751, Note_on_c, 0, 46, 0
2, 6817, Note_on_c, 0, 32, 62
2, 6988, Note_on_c, 0, 32, 0
2, 6993, Note_on_c, 0, 32, 64
2, 6995, Note_on_c, 0, 44, 69
2, 6997, Note_on_c, 0, 56, 73
2, 6999, Note_on_c, 0, 51, 65
2, 7032, Note_on_c, 0, 56, 0
2, 7038, Note_on_c, 0, 51, 0
2, 7073, Note_on_c, 0, 44, 0
2, 7080, Note_on_c, 0, 32, 0
2, 7146, Note_on_c, 0, 56, 78
2, 7147, Note_on_c, 0, 44, 71
2, 7147, Note_on_c, 0, 32, 67
2, 7149, Note_on_c, 0, 51, 67
2, 7280, Note_on_c, 0, 56, 0
2, 7296, Note_on_c, 0, 54, 65
2, 7303, Note_on_c, 0, 32, 0
2, 7306, Note_on_c, 0, 49, 58
2, 7309, Note_on_c, 0, 32, 56
2, 7357, Note_on_c, 0, 51, 0
2, 7359, Note_on_c, 0, 54, 0
2, 7360, Note_on_c, 0, 44, 0
2, 7380, Note_on_c, 0, 32, 0
2, 7387, Note_on_c, 0, 56, 77
2, 7389, Note_on_c, 0, 51, 77
2, 7441, Note_on_c, 0, 49, 0
2, 7471, Note_on_c, 0, 32, 72
2, 7492, Note_on_c, 0, 51, 0
2, 7508, Note_on_c, 0, 56, 0
2, 7622, Note_on_c, 0, 56, 83
2, 7623, Note_on_c, 0, 51, 83
2, 7633, Note_on_c, 0, 44, 79
2, 7767, Note_on_c, 0, 51, 0
2, 7768, Note_on_c, 0, 56, 0
2, 7779, Note_on_c, 0, 32, 0
2, 7782, Note_on_c, 0, 49, 71
2, 7783, Note_on_c, 0, 54, 74
2, 7786, Note_on_c, 0, 32, 75
2, 7830, Note_on_c, 0, 54, 0
2, 7834, Note_on_c, 0, 49, 0
2, 7941, Note_on_c, 0, 32, 0
2, 7941, Note_on_c, 0, 49, 67
2, 7942, Note_on_c, 0, 54, 73
2, 7947, Note_on_c, 0, 32, 72
2, 8015, Note_on_c, 0, 51, 78
2, 8016, Note_on_c, 0, 56, 83
2, 8040, Note_on_c, 0, 54, 0
2, 8057, Note_on_c, 0, 51, 0
2, 8057, Note_on_c, 0, 49, 0
2, 8064, Note_on_c, 0, 56, 0
2, 8071, Note_on_c, 0, 44, 0
2, 8110, Note_on_c, 0, 32, 0
2, 8114, Note_on_c, 0, 32, 72
2, 8119, Note_on_c, 0, 56, 63
2, 8171, Note_on_c, 0, 56, 0
2, 8279, Note_on_c, 0, 32, 0
2, 8284, Note_on_c, 0, 32, 68
2, 8284, Note_on_c, 0, 44, 70
2, 8285, Note_on_c, 0, 68, 78
2, 8288, Note_on_c, 0, 63, 74
2, 8289, Note_on_c, 0, 56, 68
2, 8355, Control_c, 0, 64, 127
2, 8440, Note_on_c, 0, 32, 0
2, 8440, Note_on_c, 0, 63, 0
2, 8440, Note_on_c, 0, 68, 0
2, 8444, Note_on_c, 0, 68, 83
2, 8445, Note_on_c, 0, 32, 72
2, 8448, Note_on_c, 0, 56, 0
2, 8451, Note_on_c, 0, 63, 77
2, 8456, Note_on_c, 0, 56, 66
2, 8601, Note_on_c, 0, 32, 0
2, 8601, Note_on_c, 0, 44, 0
2, 8607, Note_on_c, 0, 66, 75
2, 8611, Note_on_c, 0, 61, 71
2, 8611, Note_on_c, 0, 44, 69
2, 8611, Note_on_c, 0, 32, 73
2, 8663, Note_on_c, 0, 32, 0
2, 8663, Note_on_c, 0, 63, 0
2, 8663, Note_on_c, 0, 68, 0
2, 8667, Note_on_c, 0, 32, 58
2, 8672, Note_on_c, 0, 68, 84
2, 8673, Note_on_c, 0, 63, 79
2, 8696, Control_c, 0, 64, 0
2, 8715, Note_on_c, 0, 56, 0
2, 8718, Note_on_c, 0, 44, 0
2, 8718, Note_on_c, 0, 66, 0
2, 8721, Note_on_c, 0, 63, 0
2, 8721, Note_on_c, 0, 61, 0
2, 8755, Note_on_c, 0, 32, 0
2, 8761, Note_on_c, 0, 32, 78
2, 8764, Note_on_c, 0, 44, 77
2, 8824, Note_on_c, 0, 44, 0
2, 8830, Note_on_c, 0, 44, 54
2, 8832, Note_on_c, 0, 68, 0
2, 8832, Control_c, 0, 64, 127
2, 8924, Note_on_c, 0, 32, 0
2, 8924, Note_on_c, 0, 44, 0
2, 8927, Note_on_c, 0, 68, 93
2, 8927, Note_on_c, 0, 63, 87
2, 8932, Note_on_c, 0, 44, 82
2, 8935, Note_on_c, 0, 32, 78
2, 9074, Note_on_c, 0, 44, 0
2, 9075, Note_on_c, 0, 63, 0
2, 9082, Control_c, 0, 64, 0
2, 9085, Note_on_c, 0, 32, 0
2, 9092, Note_on_c, 0, 66, 91
2, 9094, Note_on_c, 0, 32, 83
2, 9096, Note_on_c, 0, 61, 86
2, 9143, Note_on_c, 0, 61, 0
2, 9162, Note_on_c, 0, 68, 0
2, 9239, Note_on_c, 0, 66, 0
2, 9245, Note_on_c, 0, 61, 75
2, 9246, Note_on_c, 0, 32, 0
2, 9246, Control_c, 0, 64, 127
2, 9249, Note_on_c, 0, 66, 78
2, 9255, Note_on_c, 0, 32, 73
2, 9255, Note_on_c, 0, 44, 75
2, 9323, Note_on_c, 0, 32, 0
2, 9329, Note_on_c, 0, 63, 83
2, 9330, Note_on_c, 0, 32, 72
2, 9331, Note_on_c, 0, 68, 82
2, 9332, Note_on_c, 0, 56, 71
2, 9407, Note_on_c, 0, 68, 0
2, 9408, Note_on_c, 0, 32, 0
2, 9409, Note_on_c, 0, 66, 0
2, 9411, Control_c, 0, 64, 0
2, 9415, Note_on_c, 0, 44, 0
2, 9415, Note_on_c, 0, 61, 0
2, 9415, Note_on_c, 0, 63, 0
2, 9418, Note_on_c, 0, 32, 79
2, 9421, Note_on_c, 0, 44, 76
2, 9426, Note_on_c, 0, 63, 71
2, 9431, Note_on_c, 0, 56, 0
2, 9584, Note_on_c, 0, 32, 0
2, 9584, Note_on_c, 0, 44, 0
2, 9584, Control_c, 0, 64, 127
2, 9587, Note_on_c, 0, 56, 82
2, 9588, Note_on_c, 0, 32, 75
2, 9589, Note_on_c, 0, 44, 76
2, 9591, Note_on_c, 0, 66, 65
2, 9627, Note_on_c, 0, 56, 0
2, 9638, Note_on_c, 0, 63, 0
2, 9657, Control_c, 0, 64, 0
2, 9661, Note_on_c, 0, 44, 0
2, 9669, Note_on_c, 0, 66, 0
2, 9692, Note_on_c, 0, 32, 0
2, 9737, Note_on_c, 0, 56, 90
2, 9737, Note_on_c, 0, 32, 76
2, 9739, Note_on_c, 0, 51, 84
2, 9744, Note_on_c, 0, 66, 67
2, 9747, Note_on_c, 0, 44, 75
2, 9792, Control_c, 0, 64, 127
2, 9887, Note_on_c, 0, 54, 70
2, 9889, Note_on_c, 0, 49, 63
2, 9914, Note_on_c, 0, 32, 0
2, 9920, Note_on_c, 0, 32, 46
2, 9968, Note_on_c, 0, 51, 0
2, 9968, Note_on_c, 0, 56, 0
2, 9974, Note_on_c, 0, 56, 94
2, 9976, Note_on_c, 0, 44, 0
2, 9978, Note_on_c, 0, 51, 77
2, 9984, Note_on_c, 0, 32, 0
2, 9987, Note_on_c, 0, 44, 70
2, 9994, Note_on_c, 0, 32, 67
2, 10016, Note_on_c, 0, 51, 0
2, 10017, Note_on_c, 0, 49, 0
2, 10017, Note_on_c, 0, 54, 0
2, 10017, Note_on_c, 0, 56, 0
2, 10027, Control_c, 0, 64, 0
2, 10030, Note_on_c, 0, 66, 0
2, 10045, Note_on_c, 0, 44, 0
2, 10053, Note_on_c, 0, 32, 0
2, 10064, Note_on_c, 0, 32, 88
2, 10065, Note_on_c, 0, 34, 80
2, 10067, Note_on_c, 0, 44, 82
2, 10122, Note_on_c, 0, 34, 0
2, 10129, Control_c, 0, 64, 127
2, 10183, Note_on_c, 0, 44, 0
2, 10229, Note_on_c, 0, 32, 0
2, 10232, Note_on_c, 0, 68, 92
2, 10232, Note_on_c, 0, 56, 80
2, 10233, Note_on_c, 0, 63, 84
2, 10234, Note_on_c, 0, 44, 76
2, 10238, Note_on_c, 0, 32, 76
2, 10315, Note_on_c, 0, 32, 0
2, 10315, Note_on_c, 0, 44, 0
2, 10316, Note_on_c, 0, 68, 0
2, 10316, Note_on_c, 0, 56, 0
2, 10317, Note_on_c, 0, 63, 0
2, 10321, Control_c, 0, 64, 0
2, 10381, Note_on_c, 0, 68, 101
2, 10384, Note_on_c, 0, 32, 85
2, 10386, Note_on_c, 0, 44, 85
2, 10386, Note_on_c, 0, 63, 90
2, 10389, Note_on_c, 0, 60, 73
2, 10429, Control_c, 0, 64, 127
2, 10452, Note_on_c, 0, 60, 0
2, 10540, Note_on_c, 0, 61, 87
2, 10541, Note_on_c, 0, 66, 84
2, 10545, Note_on_c, 0, 56, 66
2, 10606, Note_on_c, 0, 63, 0
2, 10606, Note_on_c, 0, 68, 0
2, 10611, Note_on_c, 0, 63, 77
2, 10611, Note_on_c, 0, 68, 98
2, 10695, Note_on_c, 0, 44, 0
2, 10697, Note_on_c, 0, 68, 0
2, 10697, Note_on_c, 0, 66, 0
2, 10697, Note_on_c, 0, 61, 0
2, 10698, Note_on_c, 0, 32, 0
2, 10698, Control_c, 0, 64, 0
2, 10705, Note_on_c, 0, 63, 0
2, 10706, Note_on_c, 0, 32, 94
2, 10710, Note_on_c, 0, 63, 77
2, 10736, Note_on_c, 0, 56, 0
2, 10752, Note_on_c, 0, 63, 0
2, 10798, Control_c, 0, 64, 127
2, 10867, Note_on_c, 0, 80, 105
2, 10870, Note_on_c, 0, 68, 102
2, 10870, Note_on_c, 0, 75, 98
2, 10894, Note_on_c, 0, 78, 54
2, 10897, Note_on_c, 0, 32, 0
2, 11013, Note_on_c, 0, 80, 0
2, 11020, Note_on_c, 0, 68, 0
2, 11020, Note_on_c, 0, 75, 0
2, 11023, Note_on_c, 0, 80, 107
2, 11025, Note_on_c, 0, 68, 101
2, 11027, Note_on_c, 0, 75, 99
2, 11166, Note_on_c, 0, 78, 0
2, 11174, Note_on_c, 0, 78, 97
2, 11174, Note_on_c, 0, 75, 0
2, 11177, Note_on_c, 0, 66, 87
2, 11182, Note_on_c, 0, 75, 72
2, 11251, Note_on_c, 0, 68, 0
2, 11251, Note_on_c, 0, 75, 0
2, 11251, Note_on_c, 0, 80, 0
2, 11257, Note_on_c, 0, 80, 109
2, 11261, Note_on_c, 0, 75, 96
2, 11261, Note_on_c, 0, 68, 100
2, 11385, Note_on_c, 0, 80, 0
2, 11385, Control_c, 0, 64, 0
2, 11386, Note_on_c, 0, 75, 0
2, 11386, Note_on_c, 0, 78, 0
2, 11386, Note_on_c, 0, 66, 0
2, 11404, Note_on_c, 0, 68, 0
2, 11566, Control_c, 0, 64, 127
2, 11570, Note_on_c, 0, 83, 110
2, 11575, Note_on_c, 0, 71, 105
2, 11575, Note_on_c, 0, 75, 110
2, 11576, Note_on_c, 0, 78, 93
2, 11728, Note_on_c, 0, 82, 109
2, 11731, Note_on_c, 0, 70, 107
2, 11873, Note_on_c, 0, 78, 0
2, 11883, Note_on_c, 0, 78, 105
2, 11884, Note_on_c, 0, 66, 108
2, 11984, Note_on_c, 0, 82, 0
2, 11984, Note_on_c, 0, 71, 0
2, 11985, Note_on_c, 0, 83, 0
2, 11985, Note_on_c, 0, 70, 0
2, 11985, Note_on_c, 0, 66, 0
2, 11990, Control_c, 0, 64, 0
2, 12003, Note_on_c, 0, 75, 0
2, 12011, Note_on_c, 0, 78, 0
2, 12022, Note_on_c, 0, 78, 113
2, 12024, Note_on_c, 0, 66, 109
2, 12029, Note_on_c, 0, 32, 98
2, 12029, Note_on_c, 0, 44, 103
2, 12032, Note_on_c, 0, 75, 85
2, 12072, Control_c, 0, 64, 127
2, 12172, Note_on_c, 0, 75, 0
2, 12179, Note_on_c, 0, 68, 99
2, 12180, Note_on_c, 0, 71, 94
2, 12182, Note_on_c, 0, 80, 91
2, 12183, Note_on_c, 0, 75, 66
2, 12249, Note_on_c, 0, 68, 0
2, 12249, Note_on_c, 0, 71, 0
2, 12249, Note_on_c, 0, 75, 0
2, 12249, Note_on_c, 0, 80, 0
2, 12254, Note_on_c, 0, 80, 100
2, 12254, Note_on_c, 0, 68, 100
2, 12259, Note_on_c, 0, 75, 72
2, 12259, Note_on_c, 0, 71, 82
2, 12272, Note_on_c, 0, 78, 0
2, 12280, Note_on_c, 0, 78, 65
2, 12403, Note_on_c, 0, 32, 0
2, 12410, Note_on_c, 0, 44, 0
2, 12410, Note_on_c, 0, 68, 0
2, 12410, Note_on_c, 0, 71, 0
2, 12410, Note_on_c, 0, 75, 0
2, 12414, Note_on_c, 0, 32, 85
2, 12414, Note_on_c, 0, 44, 86
2, 12415, Note_on_c, 0, 68, 83
2, 12416, Note_on_c, 0, 71, 79
2, 12421, Note_on_c, 0, 75, 66
2, 12518, Note_on_c, 0, 32, 0
2, 12518, Note_on_c, 0, 66, 0
2, 12518, Note_on_c, 0, 71, 0
2, 12518, Note_on_c, 0, 78, 0
2, 12525, Note_on_c, 0, 32, 85
2, 12526, Note_on_c, 0, 66, 104
2, 12527, Note_on_c, 0, 78, 106
2, 12529, Note_on_c, 0, 71, 87
2, 12625, Note_on_c, 0, 71, 0
2, 12626, Note_on_c, 0, 32, 0
2, 12626, Note_on_c, 0, 75, 0
2, 12626, Note_on_c, 0, 66, 0
2, 12626, Note_on_c, 0, 78, 0
2, 12631, Control_c, 0, 64, 0
2, 12633, Note_on_c, 0, 44, 0
2, 12641, Note_on_c, 0, 68, 0
2, 12641, Note_on_c, 0, 80, 0
2, 12676, Note_on_c, 0, 78, 108
2, 12678, Note_on_c, 0, 66, 106
2, 12682, Note_on_c, 0, 32, 95
2, 12682, Note_on_c, 0, 44, 103
2, 12718, Control_c, 0, 64, 127
2, 12822, Note_on_c, 0, 80, 93
2, 12822, Note_on_c, 0, 71, 92
2, 12823, Note_on_c, 0, 68, 90
2, 12879, Note_on_c, 0, 32, 0
2, 12879, Note_on_c, 0, 68, 0
2, 12879, Note_on_c, 0, 71, 0
2, 12879, Note_on_c, 0, 80, 0
2, 12884, Note_on_c, 0, 80, 96
2, 12886, Note_on_c, 0, 32, 91
2, 12886, Note_on_c, 0, 68, 105
2, 12887, Note_on_c, 0, 71, 90
2, 13048, Note_on_c, 0, 44, 0
2, 13053, Note_on_c, 0, 44, 91
2, 13155, Note_on_c, 0, 66, 0
2, 13155, Note_on_c, 0, 78, 0
2, 13165, Note_on_c, 0, 78, 104
2, 13166, Note_on_c, 0, 66, 107
2, 13167, Note_on_c, 0, 32, 0
2, 13168, Note_on_c, 0, 44, 0
2, 13248, Note_on_c, 0, 80, 0
2, 13249, Control_c, 0, 64, 0
2, 13249, Note_on_c, 0, 68, 0
2, 13250, Note_on_c, 0, 66, 0
2, 13250, Note_on_c, 0, 71, 0
2, 13251, Note_on_c, 0, 78, 0
2, 13318, Note_on_c, 0, 78, 109
2, 13321, Note_on_c, 0, 66, 108
2, 13322, Note_on_c, 0, 40, 99
2, 13322, Note_on_c, 0, 74, 92
2, 13325, Note_on_c, 0, 28, 98
2, 13347, Control_c, 0, 64, 127
2, 13476, Note_on_c, 0, 71, 80
2, 13477, Note_on_c, 0, 68, 90
2, 13480, Note_on_c, 0, 80, 86
2, 13532, Note_on_c, 0, 80, 0
2, 13539, Note_on_c, 0, 68, 0
2, 13539, Note_on_c, 0, 71, 0
2, 13542, Note_on_c, 0, 80, 100
2, 13544, Note_on_c, 0, 68, 96
2, 13545, Note_on_c, 0, 76, 75
2, 13548, Note_on_c, 0, 71, 83
2, 13693, Note_on_c, 0, 28, 0
2, 13693, Note_on_c, 0, 40, 0
2, 13697, Note_on_c, 0, 40, 92
2, 13698, Note_on_c, 0, 28, 79
2, 13808, Note_on_c, 0, 40, 0
2, 13808, Note_on_c, 0, 66, 0
2, 13808, Note_on_c, 0, 78, 0
2, 13812, Note_on_c, 0, 47, 93
2, 13813, Note_on_c, 0, 40, 89
2, 13814, Note_on_c, 0, 78, 106
2, 13818, Note_on_c, 0, 66, 110
2, 13904, Note_on_c, 0, 28, 0
2, 13904, Note_on_c, 0, 40, 0
2, 13904, Note_on_c, 0, 80, 0
2, 13905, Note_on_c, 0, 71, 0
2, 13905, Note_on_c, 0, 68, 0
2, 13909, Note_on_c, 0, 66, 0
2, 13910, Note_on_c, 0, 47, 0
2, 13911, Control_c, 0, 64, 0
2, 13912, Note_on_c, 0, 78, 0
2, 13916, Note_on_c, 0, 74, 0
2, 13931, Note_on_c, 0, 76, 0
2, 13974, Note_on_c, 0, 28, 90
2, 13974, Note_on_c, 0, 80, 101
2, 13975, Note_on_c, 0, 40, 98
2, 13975, Note_on_c, 0, 68, 97
2, 13979, Note_on_c, 0, 71, 88
2, 14016, Control_c, 0, 64, 127
2, 14150, Note_on_c, 0, 82, 101
2, 14160, Note_on_c, 0, 70, 81
2, 14250, Note_on_c, 0, 52, 81
2, 14299, Note_on_c, 0, 83, 105
2, 14300, Note_on_c, 0, 71, 0
2, 14306, Note_on_c, 0, 71, 72
2, 14434, Note_on_c, 0, 47, 85
2, 14445, Note_on_c, 0, 59, 81
2, 14446, Note_on_c, 0, 68, 0
2, 14451, Note_on_c, 0, 68, 78
2, 14455, Note_on_c, 0, 85, 107
2, 14457, Note_on_c, 0, 73, 102
2, 14534, Note_on_c, 0, 40, 0
2, 14535, Note_on_c, 0, 80, 0
2, 14535, Note_on_c, 0, 83, 0
2, 14535, Note_on_c, 0, 73, 0
2, 14535, Note_on_c, 0, 82, 0
2, 14536, Note_on_c, 0, 85, 0
2, 14536, Note_on_c, 0, 52, 0
2, 14536, Note_on_c, 0, 70, 0
2, 14537, Control_c, 0, 64, 0
2, 14545, Note_on_c, 0, 28, 0
2, 14545, Note_on_c, 0, 47, 0
2, 14545, Note_on_c, 0, 59, 0
2, 14553, Note_on_c, 0, 68, 0
2, 14561, Note_on_c, 0, 71, 0
2, 14611, Note_on_c, 0, 82, 107
2, 14617, Note_on_c, 0, 30, 99
2, 14618, Note_on_c, 0, 73, 107
2, 14620, Note_on_c, 0, 70, 102
2, 14661, Control_c, 0, 64, 127
2, 14947, Note_on_c, 0, 78, 111
2, 14950, Note_on_c, 0, 66, 104
2, 14984, Note_on_c, 0, 58, 76
2, 15100, Note_on_c, 0, 49, 66
2, 15104, Note_on_c, 0, 42, 69
2, 15241, Control_c, 0, 64, 0
2, 15252, Note_on_c, 0, 30, 0
2, 15252, Note_on_c, 0, 42, 0
2, 15252, Note_on_c, 0, 78, 0
2, 15256, Note_on_c, 0, 88, 110
2, 15259, Note_on_c, 0, 42, 96
2, 15260, Note_on_c, 0, 82, 0
2, 15261, Note_on_c, 0, 30, 101
2, 15263, Note_on_c, 0, 76, 109
2, 15263, Note_on_c, 0, 78, 107
2, 15264, Note_on_c, 0, 82, 95
2, 15267, Note_on_c, 0, 85, 96
2, 15367, Control_c, 0, 64, 127
2, 15398, Note_on_c, 0, 42, 0
2, 15403, Note_on_c, 0, 42, 79
2, 15482, Note_on_c, 0, 49, 0
2, 15490, Note_on_c, 0, 30, 0
2, 15490, Note_on_c, 0, 42, 0
2, 15490, Note_on_c, 0, 49, 60
2, 15496, Note_on_c, 0, 42, 68
2, 15499, Note_on_c, 0, 30, 66
2, 15575, Note_on_c, 0, 30, 0
2, 15575, Note_on_c, 0, 42, 0
2, 15575, Note_on_c, 0, 73, 0
2, 15575, Note_on_c, 0, 82, 0
2, 15575, Note_on_c, 0, 85, 0
2, 15582, Note_on_c, 0, 78, 0
2, 15584, Note_on_c, 0, 85, 107
2, 15586, Note_on_c, 0, 73, 107
2, 15586, Note_on_c, 0, 82, 100
2, 15586, Note_on_c, 0, 30, 76
2, 15586, Note_on_c, 0, 42, 70
2, 15586, Note_on_c, 0, 78, 101
2, 15736, Note_on_c, 0, 30, 0
2, 15742, Note_on_c, 0, 30, 72
2, 15851, Note_on_c, 0, 49, 0
2, 15854, Control_c, 0, 64, 0
2, 15854, Note_on_c, 0, 30, 0
2, 15854, Note_on_c, 0, 58, 0
2, 15854, Note_on_c, 0, 42, 0
2, 15855, Note_on_c, 0, 76, 0
2, 15855, Note_on_c, 0, 88, 0
2, 15855, Note_on_c, 0, 78, 0
2, 15855, Note_on_c, 0, 85, 0
2, 15855, Note_on_c, 0, 73, 0
2, 15859, Note_on_c, 0, 66, 0
2, 15866, Note_on_c, 0, 70, 0
2, 15874, Note_on_c, 0, 82, 0
2, 15917, Note_on_c, 0, 85, 106
2, 15921, Note_on_c, 0, 73, 105
2, 15922, Note_on_c, 0, 78, 106
2, 15924, Note_on_c, 0, 39, 84
2, 15925, Note_on_c, 0, 35, 85
2, 15927, Note_on_c, 0, 47, 95
2, 15936, Note_on_c, 0, 39, 0
2, 15936, Control_c, 0, 64, 127
2, 16066, Note_on_c, 0, 35, 0
2, 16066, Note_on_c, 0, 47, 0
2, 16071, Note_on_c, 0, 47, 91
2, 16074, Note_on_c, 0, 35, 72
2, 16166, Note_on_c, 0, 35, 0
2, 16166, Note_on_c, 0, 73, 0
2, 16166, Note_on_c, 0, 78, 0
2, 16166, Note_on_c, 0, 85, 0
2, 16171, Note_on_c, 0, 85, 105
2, 16172, Note_on_c, 0, 39, 81
2, 16175, Note_on_c, 0, 73, 97
2, 16175, Note_on_c, 0, 78, 96
2, 16176, Note_on_c, 0, 35, 82
2, 16304, Note_on_c, 0, 47, 0
2, 16310, Note_on_c, 0, 47, 78
2, 16312, Note_on_c, 0, 59, 74
2, 16320, Note_on_c, 0, 59, 0
2, 16419, Note_on_c, 0, 78, 0
2, 16425, Note_on_c, 0, 87, 111
2, 16430, Note_on_c, 0, 78, 108
2, 16439, Note_on_c, 0, 75, 95
2, 16482, Note_on_c, 0, 73, 0
2, 16484, Note_on_c, 0, 35, 0
2, 16484, Note_on_c, 0, 47, 0
2, 16485, Control_c, 0, 64, 0
2, 16488, Note_on_c, 0, 39, 0
2, 16573, Control_c, 0, 64, 127
2, 16574, Note_on_c, 0, 46, 103
2, 16575, Note_on_c, 0, 34, 101
2, 16736, Note_on_c, 0, 83, 102
2, 16742, Note_on_c, 0, 46, 0
2, 16752, Note_on_c, 0, 70, 77
2, 16753, Note_on_c, 0, 46, 90
2, 16754, Note_on_c, 0, 71, 81
2, 16756, Note_on_c, 0, 58, 76
2, 16765, Note_on_c, 0, 58, 0
2, 16896, Note_on_c, 0, 70, 0
2, 16900, Note_on_c, 0, 82, 106
2, 16907, Note_on_c, 0, 70, 101
2, 16914, Note_on_c, 0, 54, 74
2, 17003, Note_on_c, 0, 85, 0
2, 17049, Note_on_c, 0, 78, 0
2, 17055, Note_on_c, 0, 34, 0
2, 17056, Note_on_c, 0, 78, 107
2, 17062, Note_on_c, 0, 66, 108
2, 17138, Control_c, 0, 64, 0
2, 17143, Note_on_c, 0, 83, 0
2, 17143, Note_on_c, 0, 82, 0
2, 17144, Note_on_c, 0, 71, 0
2, 17144, Note_on_c, 0, 78, 0
2, 17144, Note_on_c, 0, 75, 0
2, 17145, Note_on_c, 0, 54, 0
2, 17145, Note_on_c, 0, 70, 0
2, 17145, Note_on_c, 0, 66, 0
2, 17149, Note_on_c, 0, 87, 0
2, 17164, Note_on_c, 0, 46, 0
2, 17222, Note_on_c, 0, 78, 114
2, 17226, Note_on_c, 0, 66, 107
2, 17226, Control_c, 0, 64, 127
2, 17226, Note_on_c, 0, 32, 99
2, 17228, Note_on_c, 0, 44, 104
2, 17229, Note_on_c, 0, 68, 95
2, 17237, Note_on_c, 0, 75, 78
2, 17254, Note_on_c, 0, 34, 59
2, 17372, Note_on_c, 0, 68, 0
2, 17379, Note_on_c, 0, 80, 92
2, 17380, Note_on_c, 0, 39, 77
2, 17381, Note_on_c, 0, 68, 93
2, 17383, Note_on_c, 0, 71, 84
2, 17387, Note_on_c, 0, 39, 0
2, 17433, Note_on_c, 0, 80, 0
2, 17441, Note_on_c, 0, 68, 0
2, 17441, Note_on_c, 0, 71, 0
2, 17444, Note_on_c, 0, 80, 111
2, 17446, Note_on_c, 0, 68, 106
2, 17449, Note_on_c, 0, 71, 89
2, 17464, Note_on_c, 0, 32, 0
2, 17469, Note_on_c, 0, 32, 71
2, 17610, Note_on_c, 0, 44, 0
2, 17617, Note_on_c, 0, 44, 85
2, 17621, Note_on_c, 0, 51, 75
2, 17710, Note_on_c, 0, 78, 0
2, 17717, Note_on_c, 0, 66, 0
2, 17717, Note_on_c, 0, 75, 0
2, 17721, Note_on_c, 0, 78, 104
2, 17722, Note_on_c, 0, 56, 82
2, 17723, Note_on_c, 0, 66, 99
2, 17729, Note_on_c, 0, 75, 74
2, 17821, Note_on_c, 0, 80, 0
2, 17821, Note_on_c, 0, 66, 0
2, 17821, Note_on_c, 0, 51, 0
2, 17821, Note_on_c, 0, 56, 0
2, 17821, Control_c, 0, 64, 0
2, 17821, Note_on_c, 0, 75, 0
2, 17821, Note_on_c, 0, 78, 0
2, 17825, Note_on_c, 0, 34, 0
2, 17832, Note_on_c, 0, 68, 0
2, 17840, Note_on_c, 0, 32, 0
2, 17840, Note_on_c, 0, 44, 0
2, 17840, Note_on_c, 0, 71, 0
2, 17875, Note_on_c, 0, 78, 109
2, 17877, Note_on_c, 0, 32, 97
2, 17879, Note_on_c, 0, 44, 99
2, 17879, Note_on_c, 0, 66, 103
2, 17881, Note_on_c, 0, 68, 93
2, 17902, Control_c, 0, 64, 127
2, 18024, Note_on_c, 0, 44, 0
2, 18024, Note_on_c, 0, 68, 0
2, 18030, Note_on_c, 0, 71, 91
2, 18033, Note_on_c, 0, 68, 87
2, 18034, Note_on_c, 0, 80, 94
2, 18036, Note_on_c, 0, 44, 71
2, 18094, Note_on_c, 0, 68, 0
2, 18094, Note_on_c, 0, 71, 0
2, 18094, Note_on_c, 0, 80, 0
2, 18100, Note_on_c, 0, 80, 102
2, 18101, Note_on_c, 0, 44, 0
2, 18104, Note_on_c, 0, 71, 85
2, 18105, Note_on_c, 0, 68, 105
2, 18106, Note_on_c, 0, 44, 92
2, 18107, Note_on_c, 0, 51, 87
2, 18117, Note_on_c, 0, 78, 0
2, 18125, Note_on_c, 0, 78, 57
2, 18263, Note_on_c, 0, 44, 0
2, 18274, Note_on_c, 0, 44, 96
2, 18370, Note_on_c, 0, 44, 0
2, 18370, Note_on_c, 0, 66, 0
2, 18370, Note_on_c, 0, 68, 0
2, 18370, Note_on_c, 0, 78, 0
2, 18376, Note_on_c, 0, 78, 101
2, 18376, Note_on_c, 0, 66, 106
2, 18378, Note_on_c, 0, 71, 0
2, 18380, Note_on_c, 0, 68, 90
2, 18381, Note_on_c, 0, 44, 83
2, 18384, Note_on_c, 0, 71, 69
2, 18475, Note_on_c, 0, 80, 0
2, 18475, Note_on_c, 0, 71, 0
2, 18475, Note_on_c, 0, 68, 0
2, 18475, Note_on_c, 0, 66, 0
2, 18475, Control_c, 0, 64, 0
2, 18476, Note_on_c, 0, 44, 0
2, 18478, Note_on_c, 0, 78, 0
2, 18493, Note_on_c, 0, 32, 0
2, 18493, Note_on_c, 0, 51, 0
2, 18534, Note_on_c, 0, 40, 101
2, 18535, Note_on_c, 0, 28, 98
2, 18535, Note_on_c, 0, 78, 109
2, 18538, Note_on_c, 0, 66, 106
2, 18539, Note_on_c, 0, 74, 92
2, 18541, Note_on_c, 0, 30, 84
2, 18547, Note_on_c, 0, 30, 0
2, 18570, Control_c, 0, 64, 127
2, 18685, Note_on_c, 0, 28, 0
2, 18685, Note_on_c, 0, 40, 0
2, 18692, Note_on_c, 0, 80, 98
2, 18693, Note_on_c, 0, 71, 91
2, 18694, Note_on_c, 0, 68, 94
2, 18696, Note_on_c, 0, 28, 83
2, 18696, Note_on_c, 0, 40, 99
2, 18754, Note_on_c, 0, 80, 0
2, 18762, Note_on_c, 0, 28, 0
2, 18762, Note_on_c, 0, 68, 0
2, 18762, Note_on_c, 0, 71, 0
2, 18762, Note_on_c, 0, 80, 93
2, 18767, Note_on_c, 0, 71, 95
2, 18767, Note_on_c, 0, 28, 38
2, 18768, Note_on_c, 0, 68, 87
2, 18915, Note_on_c, 0, 28, 0
2, 18915, Note_on_c, 0, 40, 0
2, 18923, Note_on_c, 0, 40, 85
2, 18925, Note_on_c, 0, 28, 68
2, 19023, Note_on_c, 0, 66, 0
2, 19023, Note_on_c, 0, 78, 0
2, 19031, Note_on_c, 0, 71, 0
2, 19032, Note_on_c, 0, 78, 102
2, 19033, Note_on_c, 0, 66, 105
2, 19035, Note_on_c, 0, 47, 81
2, 19036, Note_on_c, 0, 71, 75
2, 19041, Note_on_c, 0, 35, 78
2, 19132, Note_on_c, 0, 28, 0
2, 19132, Note_on_c, 0, 66, 0
2, 19133, Note_on_c, 0, 47, 0
2, 19134, Note_on_c, 0, 71, 0
2, 19134, Note_on_c, 0, 80, 0
2, 19134, Note_on_c, 0, 74, 0
2, 19135, Note_on_c, 0, 68, 0
2, 19135, Note_on_c, 0, 78, 0
2, 19142, Control_c, 0, 64, 0
2, 19146, Note_on_c, 0, 35, 0
2, 19176, Note_on_c, 0, 40, 0
2, 19182, Note_on_c, 0, 40, 99
2, 19182, Note_on_c, 0, 28, 92
2, 19183, Note_on_c, 0, 80, 100
2, 19184, Note_on_c, 0, 68, 101
2, 19188, Note_on_c, 0, 71, 83
2, 19207, Control_c, 0, 64, 127
2, 19349, Note_on_c, 0, 82, 106
2, 19350, Note_on_c, 0, 70, 90
2, 19413, Note_on_c, 0, 47, 74
2, 19418, Note_on_c, 0, 52, 81
2, 19499, Note_on_c, 0, 71, 0
2, 19500, Note_on_c, 0, 83, 104
2, 19504, Note_on_c, 0, 71, 90
2, 19584, Note_on_c, 0, 40, 0
2, 19595, Note_on_c, 0, 40, 84
2, 19670, Note_on_c, 0, 85, 105
2, 19673, Note_on_c, 0, 73, 99
2, 19676, Note_on_c, 0, 47, 0
2, 19682, Note_on_c, 0, 47, 86
2, 19762, Note_on_c, 0, 40, 0
2, 19763, Note_on_c, 0, 68, 0
2, 19763, Note_on_c, 0, 52, 0
2, 19763, Note_on_c, 0, 73, 0
2, 19763, Note_on_c, 0, 80, 0
2, 19763, Note_on_c, 0, 71, 0
2, 19763, Note_on_c, 0, 47, 0
2, 19763, Note_on_c, 0, 82, 0
2, 19763, Note_on_c, 0, 83, 0
2, 19764, Control_c, 0, 64, 0
2, 19764, Note_on_c, 0, 85, 0
2, 19776, Note_on_c, 0, 28, 0
2, 19783, Note_on_c, 0, 70, 0
2, 19824, Note_on_c, 0, 80, 105
2, 19827, Note_on_c, 0, 68, 107
2, 19832, Note_on_c, 0, 73, 94
2, 19833, Note_on_c, 0, 49, 96
2, 19834, Note_on_c, 0, 37, 90
2, 19835, Note_on_c, 0, 76, 91
2, 19837, Control_c, 0, 64, 127
2, 19989, Note_on_c, 0, 56, 54
2, 20060, Note_on_c, 0, 68, 0
2, 20060, Note_on_c, 0, 73, 0
2, 20067, Note_on_c, 0, 56, 0
2, 20069, Note_on_c, 0, 52, 73
2, 20070, Note_on_c, 0, 73, 73
2, 20070, Note_on_c, 0, 68, 83
2, 20070, Note_on_c, 0, 61, 81
2, 20071, Note_on_c, 0, 64, 70
2, 20076, Note_on_c, 0, 56, 81
2, 20221, Note_on_c, 0, 49, 0
2, 20232, Note_on_c, 0, 49, 56
2, 20321, Note_on_c, 0, 61, 0
2, 20321, Note_on_c, 0, 68, 0
2, 20321, Note_on_c, 0, 73, 0
2, 20325, Note_on_c, 0, 61, 86
2, 20325, Note_on_c, 0, 73, 77
2, 20328, Note_on_c, 0, 52, 0
2, 20328, Note_on_c, 0, 56, 0
2, 20329, Note_on_c, 0, 68, 74
2, 20333, Note_on_c, 0, 56, 71
2, 20333, Note_on_c, 0, 52, 70
2, 20449, Note_on_c, 0, 52, 0
2, 20450, Note_on_c, 0, 61, 0
2, 20450, Note_on_c, 0, 56, 0
2, 20450, Note_on_c, 0, 76, 0
2, 20453, Control_c, 0, 64, 0
2, 20467, Note_on_c, 0, 49, 0
2, 20467, Note_on_c, 0, 64, 0
2, 20482, Note_on_c, 0, 37, 0
2, 20482, Note_on_c, 0, 73, 0
2, 20482, Note_on_c, 0, 80, 0
2, 20490, Note_on_c, 0, 68, 0
2, 20492, Note_on_c, 0, 80, 99
2, 20493, Note_on_c, 0, 49, 93
2, 20493, Note_on_c, 0, 73, 96
2, 20493, Note_on_c, 0, 37, 95
2, 20494, Note_on_c, 0, 68, 94
2, 20513, Control_c, 0, 64, 127
2, 20643, Note_on_c, 0, 49, 0
2, 20652, Note_on_c, 0, 82, 102
2, 20654, Note_on_c, 0, 49, 66
2, 20659, Note_on_c, 0, 80, 0
2, 20660, Note_on_c, 0, 70, 91
2, 20664, Note_on_c, 0, 80, 74
2, 20746, Note_on_c, 0, 56, 81
2, 20747, Note_on_c, 0, 52, 76
2, 20747, Note_on_c, 0, 61, 74
2, 20801, Note_on_c, 0, 83, 101
2, 20807, Note_on_c, 0, 71, 85
2, 20920, Note_on_c, 0, 61, 0
2, 20928, Note_on_c, 0, 52, 0
2, 20928, Note_on_c, 0, 56, 0
2, 20931, Note_on_c, 0, 61, 76
2, 20931, Note_on_c, 0, 56, 75
2, 20937, Note_on_c, 0, 52, 74
2, 20939, Note_on_c, 0, 49, 0
2, 20958, Note_on_c, 0, 73, 0
2, 20963, Note_on_c, 0, 73, 95
2, 20964, Note_on_c, 0, 85, 103
2, 21077, Note_on_c, 0, 80, 0
2, 21077, Note_on_c, 0, 68, 0
2, 21077, Note_on_c, 0, 71, 0
2, 21077, Note_on_c, 0, 83, 0
2, 21077, Note_on_c, 0, 70, 0
2, 21077, Note_on_c, 0, 85, 0
2, 21077, Note_on_c, 0, 73, 0
2, 21077, Note_on_c, 0, 56, 0
2, 21080, Control_c, 0, 64, 0
2, 21081, Note_on_c, 0, 37, 0
2, 21096, Note_on_c, 0, 52, 0
2, 21096, Note_on_c, 0, 61, 0
2, 21104, Note_on_c, 0, 82, 0
2, 21109, Note_on_c, 0, 39, 95
2, 21114, Note_on_c, 0, 82, 109
2, 21116, Note_on_c, 0, 73, 101
2, 21120, Note_on_c, 0, 70, 104
2, 21150, Control_c, 0, 64, 127
2, 21273, Note_on_c, 0, 70, 0
2, 21275, Note_on_c, 0, 51, 82
2, 21277, Note_on_c, 0, 58, 60
2, 21283, Note_on_c, 0, 70, 77
2, 21354, Note_on_c, 0, 54, 64
2, 21424, Note_on_c, 0, 63, 83
2, 21427, Note_on_c, 0, 51, 0
2, 21434, Note_on_c, 0, 51, 71
2, 21450, Note_on_c, 0, 58, 0
2, 21450, Note_on_c, 0, 70, 0
2, 21453, Note_on_c, 0, 66, 110
2, 21454, Note_on_c, 0, 78, 103
2, 21455, Note_on_c, 0, 58, 88
2, 21460, Note_on_c, 0, 70, 95
2, 21629, Note_on_c, 0, 75, 66
2, 21680, Note_on_c, 0, 46, 75
2, 21772, Note_on_c, 0, 39, 0
2, 21772, Note_on_c, 0, 75, 0
2, 21777, Note_on_c, 0, 39, 88
2, 21780, Note_on_c, 0, 66, 0
2, 21780, Note_on_c, 0, 70, 0
2, 21784, Note_on_c, 0, 75, 108
2, 21784, Note_on_c, 0, 66, 95
2, 21789, Note_on_c, 0, 70, 89
2, 21934, Note_on_c, 0, 51, 0
2, 21944, Note_on_c, 0, 51, 63
2, 22010, Note_on_c, 0, 54, 0
2, 22017, Note_on_c, 0, 54, 72
2, 22095, Note_on_c, 0, 51, 0
2, 22095, Note_on_c, 0, 66, 0
2, 22095, Note_on_c, 0, 70, 0
2, 22095, Note_on_c, 0, 78, 0
2, 22099, Note_on_c, 0, 78, 103
2, 22100, Note_on_c, 0, 51, 76
2, 22100, Note_on_c, 0, 75, 0
2, 22101, Note_on_c, 0, 70, 95
2, 22103, Note_on_c, 0, 82, 0
2, 22103, Note_on_c, 0, 66, 103
2, 22233, Note_on_c, 0, 51, 0
2, 22238, Note_on_c, 0, 51, 71
2, 22371, Note_on_c, 0, 73, 0
2, 22372, Note_on_c, 0, 54, 0
2, 22372, Note_on_c, 0, 51, 0
2, 22372, Note_on_c, 0, 58, 0
2, 22373, Note_on_c, 0, 39, 0
2, 22373, Control_c, 0, 64, 0
2, 22373, Note_on_c, 0, 70, 0
2, 22373, Note_on_c, 0, 78, 0
2, 22374, Note_on_c, 0, 66, 0
2, 22379, Note_on_c, 0, 46, 0
2, 22387, Note_on_c, 0, 63, 0
2, 22429, Note_on_c, 0, 78, 107
2, 22430, Note_on_c, 0, 40, 99
2, 22432, Note_on_c, 0, 66, 104
2, 22436, Note_on_c, 0, 28, 91
2, 22471, Control_c, 0, 64, 127
2, 22579, Note_on_c, 0, 28, 0
2, 22579, Note_on_c, 0, 40, 0
2, 22584, Note_on_c, 0, 28, 71
2, 22584, Note_on_c, 0, 80, 96
2, 22584, Note_on_c, 0, 71, 86
2, 22587, Note_on_c, 0, 68, 94
2, 22587, Note_on_c, 0, 40, 79
2, 22656, Note_on_c, 0, 68, 0
2, 22662, Note_on_c, 0, 68, 101
2, 22663, Note_on_c, 0, 28, 0
2, 22663, Note_on_c, 0, 40, 0
2, 22663, Note_on_c, 0, 71, 0
2, 22674, Note_on_c, 0, 28, 77
2, 22674, Note_on_c, 0, 40, 87
2, 22675, Note_on_c, 0, 71, 81
2, 22675, Note_on_c, 0, 35, 72
2, 22676, Note_on_c, 0, 47, 79
2, 22809, Note_on_c, 0, 40, 0
2, 22814, Note_on_c, 0, 40, 78
2, 22917, Note_on_c, 0, 35, 0
2, 22917, Note_on_c, 0, 40, 0
2, 22917, Note_on_c, 0, 47, 0
2, 22917, Note_on_c, 0, 71, 0
2, 22921, Note_on_c, 0, 47, 91
2, 22924, Note_on_c, 0, 80, 0
2, 22925, Note_on_c, 0, 40, 77
2, 22926, Note_on_c, 0, 35, 80
2, 22927, Note_on_c, 0, 83, 103
2, 22927, Note_on_c, 0, 71, 92
2, 22935, Note_on_c, 0, 80, 75
2, 22978, Note_on_c, 0, 66, 0
2, 22981, Note_on_c, 0, 80, 0
2, 22981, Note_on_c, 0, 71, 0
2, 22981, Note_on_c, 0, 40, 0
2, 22982, Note_on_c, 0, 83, 0
2, 22982, Note_on_c, 0, 68, 0
2, 22982, Note_on_c, 0, 47, 0
2, 22984, Control_c, 0, 64, 0
2, 22993, Note_on_c, 0, 28, 0
2, 22993, Note_on_c, 0, 35, 0
2, 22993, Note_on_c, 0, 78, 0
2, 23082, Note_on_c, 0, 73, 105
2, 23083, Note_on_c, 0, 82, 105
2, 23083, Note_on_c, 0, 30, 100
2, 23085, Note_on_c, 0, 42, 97
2, 23089, Note_on_c, 0, 70, 98
2, 23089, Note_on_c, 0, 37, 90
2, 23147, Control_c, 0, 64, 127
2, 23252, Note_on_c, 0, 78, 82
2, 23255, Note_on_c, 0, 49, 70
2, 23257, Note_on_c, 0, 54, 82
2, 23258, Note_on_c, 0, 66, 80
2, 23258, Note_on_c, 0, 71, 62
2, 23316, Note_on_c, 0, 49, 0
2, 23320, Note_on_c, 0, 63, 104
2, 23326, Note_on_c, 0, 75, 98
2, 23327, Note_on_c, 0, 49, 85
2, 23470, Note_on_c, 0, 30, 0
2, 23470, Note_on_c, 0, 42, 0
2, 23475, Note_on_c, 0, 30, 78
2, 23475, Note_on_c, 0, 42, 79
2, 23585, Note_on_c, 0, 42, 0
2, 23585, Note_on_c, 0, 66, 0
2, 23585, Note_on_c, 0, 78, 0
2, 23589, Note_on_c, 0, 42, 76
2, 23590, Note_on_c, 0, 78, 107
2, 23591, Note_on_c, 0, 66, 107
2, 23659, Note_on_c, 0, 30, 0
2, 23659, Note_on_c, 0, 49, 0
2, 23660, Note_on_c, 0, 42, 0
2, 23660, Note_on_c, 0, 66, 0
2, 23660, Note_on_c, 0, 73, 0
2, 23660, Note_on_c, 0, 54, 0
2, 23660, Note_on_c, 0, 82, 0
2, 23661, Note_on_c, 0, 78, 0
2, 23661, Note_on_c, 0, 63, 0
2, 23661, Control_c, 0, 64, 0
2, 23662, Note_on_c, 0, 75, 0
2, 23663, Note_on_c, 0, 70, 0
2, 23663, Note_on_c, 0, 37, 0
2, 23677, Note_on_c, 0, 71, 0
2, 23744, Note_on_c, 0, 78, 110
2, 23750, Note_on_c, 0, 32, 98
2, 23750, Note_on_c, 0, 68, 91
2, 23750, Note_on_c, 0, 44, 100
2, 23750, Note_on_c, 0, 66, 102
2, 23800, Control_c, 0, 64, 127
2, 23900, Note_on_c, 0, 32, 0
2, 23900, Note_on_c, 0, 44, 0
2, 23900, Note_on_c, 0, 68, 0
2, 23904, Note_on_c, 0, 80, 88
2, 23904, Note_on_c, 0, 73, 79
2, 23905, Note_on_c, 0, 68, 85
2, 23906, Note_on_c, 0, 44, 73
2, 23907, Note_on_c, 0, 32, 72
2, 23961, Note_on_c, 0, 68, 0
2, 23961, Note_on_c, 0, 73, 0
2, 23961, Note_on_c, 0, 80, 0
2, 23966, Note_on_c, 0, 80, 107
2, 23971, Note_on_c, 0, 68, 107
2, 23972, Note_on_c, 0, 73, 102
2, 23976, Note_on_c, 0, 32, 0
2, 23979, Note_on_c, 0, 75, 94
2, 23987, Note_on_c, 0, 32, 78
2, 24122, Note_on_c, 0, 44, 0
2, 24126, Note_on_c, 0, 44, 78
2, 24215, Note_on_c, 0, 44, 0
2, 24222, Note_on_c, 0, 73, 0
2, 24224, Note_on_c, 0, 51, 92
2, 24224, Note_on_c, 0, 44, 87
2, 24230, Note_on_c, 0, 73, 93
2, 24234, Note_on_c, 0, 76, 70
2, 24372, Note_on_c, 0, 51, 0
2, 24374, Note_on_c, 0, 66, 0
2, 24374, Control_c, 0, 64, 0
2, 24384, Note_on_c, 0, 32, 0
2, 24384, Note_on_c, 0, 78, 0
2, 24391, Note_on_c, 0, 44, 0
2, 24391, Note_on_c, 0, 75, 0
2, 24395, Note_on_c, 0, 32, 96
2, 24395, Note_on_c, 0, 44, 95
2, 24399, Note_on_c, 0, 73, 0
2, 24403, Note_on_c, 0, 75, 88
2, 24405, Note_on_c, 0, 73, 89
2, 24460, Control_c, 0, 64, 127
2, 24637, Note_on_c, 0, 75, 0
2, 24644, Note_on_c, 0, 75, 91
2, 24645, Note_on_c, 0, 44, 0
2, 24645, Note_on_c, 0, 68, 0
2, 24645, Note_on_c, 0, 73, 0
2, 24647, Note_on_c, 0, 51, 87
2, 24649, Note_on_c, 0, 73, 95
2, 24650, Note_on_c, 0, 44, 87
2, 24650, Note_on_c, 0, 63, 83
2, 24654, Note_on_c, 0, 68, 79
2, 24656, Note_on_c, 0, 56, 84
2, 24660, Note_on_c, 0, 63, 0
2, 24768, Note_on_c, 0, 44, 0
2, 24778, Note_on_c, 0, 44, 74
2, 24875, Note_on_c, 0, 51, 0
2, 24879, Note_on_c, 0, 51, 71
2, 24883, Note_on_c, 0, 56, 0
2, 24883, Note_on_c, 0, 73, 0
2, 24888, Note_on_c, 0, 56, 72
2, 24890, Note_on_c, 0, 75, 0
2, 24894, Note_on_c, 0, 73, 85
2, 24900, Note_on_c, 0, 75, 73
2, 24998, Note_on_c, 0, 76, 0
2, 25001, Note_on_c, 0, 32, 0
2, 25002, Note_on_c, 0, 56, 0
2, 25002, Note_on_c, 0, 51, 0
2, 25002, Note_on_c, 0, 73, 0
2, 25002, Note_on_c, 0, 75, 0
2, 25004, Control_c, 0, 64, 0
2, 25006, Note_on_c, 0, 80, 0
2, 25013, Note_on_c, 0, 68, 0
2, 25021, Note_on_c, 0, 44, 0
2, 25056, Note_on_c, 0, 80, 107
2, 25059, Note_on_c, 0, 68, 104
2, 25060, Note_on_c, 0, 44, 94
2, 25061, Note_on_c, 0, 72, 95
2, 25061, Note_on_c, 0, 76, 82
2, 25062, Note_on_c, 0, 32, 83
2, 25105, Control_c, 0, 64, 127
2, 25213, Note_on_c, 0, 44, 0
2, 25223, Note_on_c, 0, 44, 85
2, 25324, Note_on_c, 0, 51, 83
2, 25344, Note_on_c, 0, 32, 0
2, 25394, Note_on_c, 0, 56, 91
2, 25486, Note_on_c, 0, 60, 82
2, 25566, Note_on_c, 0, 63, 84
2, 25651, Note_on_c, 0, 68, 0
2, 25656, Note_on_c, 0, 68, 87
2, 25728, Note_on_c, 0, 60, 0
2, 25728, Note_on_c, 0, 72, 0
2, 25734, Note_on_c, 0, 60, 65
2, 25737, Note_on_c, 0, 72, 82
2, 25827, Note_on_c, 0, 76, 0
2, 25834, Note_on_c, 0, 76, 64
2, 25889, Note_on_c, 0, 80, 0
2, 25898, Note_on_c, 0, 80, 79
2, 25948, Note_on_c, 0, 84, 88
2, 26029, Note_on_c, 0, 90, 92
2, 26037, Note_on_c, 0, 78, 79
2, 26188, Note_on_c, 0, 80, 0
2, 26197, Note_on_c, 0, 92, 94
2, 26198, Note_on_c, 0, 80, 87
2, 27132, Note_on_c, 0, 56, 0
2, 27133, Note_on_c, 0, 76, 0
2, 27136, Note_on_c, 0, 63, 0
2, 27137, Note_on_c, 0, 84, 0
2, 27137, Note_on_c, 0, 68, 0
2, 27138, Note_on_c, 0, 78, 0
2, 27139, Note_on_c, 0, 60, 0
2, 27139, Note_on_c, 0, 90, 0
2, 27148, Note_on_c, 0, 51, 0
2, 27156, Note_on_c, 0, 44, 0
2, 27156, Note_on_c, 0, 72, 0
2, 27187, Note_on_c, 0, 92, 0
2, 27194, Note_on_c, 0, 80, 0
2, 27233, Control_c, 0, 64, 0
2, 27925, Note_on_c, 0, 68, 52
2, 27932, Control_c, 0, 64, 127
2, 27995, Note_on_c, 0, 72, 49
2, 28005, Note_on_c, 0, 77, 48
2, 28052, Note_on_c, 0, 80, 77
2, 28058, Note_on_c, 0, 53, 48
2, 28061, Note_on_c, 0, 65, 49
2, 28222, Note_on_c, 0, 60, 51
2, 28377, Note_on_c, 0, 65, 0
2, 28383, Note_on_c, 0, 65, 70
2, 28548, Note_on_c, 0, 67, 68
2, 28677, Note_on_c, 0, 68, 0
2, 28682, Note_on_c, 0, 68, 76
2, 28700, Note_on_c, 0, 80, 0
2, 28706, Note_on_c, 0, 80, 83
2, 28869, Note_on_c, 0, 79, 80
2, 29022, Note_on_c, 0, 80, 0
2, 29028, Note_on_c, 0, 80, 86
2, 29200, Note_on_c, 0, 82, 79
2, 29333, Note_on_c, 0, 70, 62
2, 29355, Note_on_c, 0, 75, 67
2, 29359, Note_on_c, 0, 67, 0
2, 29359, Note_on_c, 0, 53, 0
2, 29359, Note_on_c, 0, 65, 0
2, 29360, Note_on_c, 0, 60, 0
2, 29360, Note_on_c, 0, 82, 0
2, 29361, Note_on_c, 0, 68, 0
2, 29362, Note_on_c, 0, 72, 0
2, 29362, Note_on_c, 0, 77, 0
2, 29363, Control_c, 0, 64, 0
2, 29368, Note_on_c, 0, 80, 0
2, 29378, Note_on_c, 0, 80, 81
2, 29394, Note_on_c, 0, 51, 57
2, 29452, Control_c, 0, 64, 127
2, 29491, Note_on_c, 0, 79, 0
2, 29534, Note_on_c, 0, 58, 57
2, 29699, Note_on_c, 0, 63, 68
2, 29862, Note_on_c, 0, 67, 71
2, 30013, Note_on_c, 0, 80, 0
2, 30024, Note_on_c, 0, 80, 86
2, 30024, Note_on_c, 0, 68, 77
2, 30184, Note_on_c, 0, 79, 82
2, 30336, Note_on_c, 0, 80, 0
2, 30340, Note_on_c, 0, 80, 77
2, 30428, Note_on_c, 0, 68, 0
2, 30434, Note_on_c, 0, 68, 36
2, 30516, Note_on_c, 0, 82, 82
2, 30621, Note_on_c, 0, 72, 63
2, 30666, Note_on_c, 0, 80, 0
2, 30671, Note_on_c, 0, 80, 79
2, 30673, Note_on_c, 0, 84, 91
2, 30680, Note_on_c, 0, 63, 0
2, 30681, Note_on_c, 0, 68, 0
2, 30681, Note_on_c, 0, 51, 0
2, 30681, Note_on_c, 0, 67, 0
2, 30682, Note_on_c, 0, 58, 0
2, 30684, Note_on_c, 0, 75, 0
2, 30684, Note_on_c, 0, 49, 67
2, 30684, Note_on_c, 0, 82, 0
2, 30684, Note_on_c, 0, 70, 0
2, 30687, Control_c, 0, 64, 0
2, 30720, Note_on_c, 0, 79, 0
2, 30766, Control_c, 0, 64, 127
2, 30827, Note_on_c, 0, 49, 0
2, 30841, Note_on_c, 0, 56, 62
2, 30987, Note_on_c, 0, 65, 76
2, 31149, Note_on_c, 0, 67, 76
2, 31311, Note_on_c, 0, 84, 0
2, 31313, Note_on_c, 0, 68, 85
2, 31315, Note_on_c, 0, 84, 95
2, 31472, Note_on_c, 0, 72, 0
2, 31482, Note_on_c, 0, 85, 98
2, 31641, Note_on_c, 0, 84, 0
2, 31646, Note_on_c, 0, 84, 84
2, 31789, Note_on_c, 0, 82, 82
2, 31901, Note_on_c, 0, 75, 77
2, 31926, Note_on_c, 0, 79, 80
2, 31930, Note_on_c, 0, 85, 0
2, 31930, Note_on_c, 0, 65, 0
2, 31931, Note_on_c, 0, 68, 0
2, 31931, Note_on_c, 0, 82, 0
2, 31931, Note_on_c, 0, 56, 0
2, 31932, Note_on_c, 0, 67, 0
2, 31935, Control_c, 0, 64, 0
2, 31941, Note_on_c, 0, 80, 0
2, 31948, Note_on_c, 0, 84, 0
2, 31954, Note_on_c, 0, 84, 103
2, 31959, Note_on_c, 0, 51, 83
2, 32002, Control_c, 0, 64, 127
2, 32101, Note_on_c, 0, 82, 95
2, 32112, Note_on_c, 0, 58, 77
2, 32259, Note_on_c, 0, 63, 74
2, 32259, Note_on_c, 0, 80, 103
2, 32406, Note_on_c, 0, 67, 82
2, 32413, Note_on_c, 0, 87, 91
2, 32444, Note_on_c, 0, 85, 57
2, 32514, Note_on_c, 0, 63, 0
2, 32514, Note_on_c, 0, 80, 0
2, 32514, Note_on_c, 0, 79, 0
2, 32514, Note_on_c, 0, 82, 0
2, 32515, Note_on_c, 0, 84, 0
2, 32515, Note_on_c, 0, 58, 0
2, 32515, Note_on_c, 0, 51, 0
2, 32515, Note_on_c, 0, 85, 0
2, 32515, Note_on_c, 0, 67, 0
2, 32517, Note_on_c, 0, 87, 0
2, 32520, Control_c, 0, 64, 0
2, 32524, Note_on_c, 0, 75, 0
2, 32570, Note_on_c, 0, 84, 104
2, 32574, Note_on_c, 0, 80, 100
2, 32574, Note_on_c, 0, 75, 99
2, 32575, Note_on_c, 0, 44, 100
2, 32578, Note_on_c, 0, 56, 104
2, 32601, Control_c, 0, 64, 127
2, 32864, Note_on_c, 0, 56, 0
2, 32864, Note_on_c, 0, 84, 0
2, 32864, Note_on_c, 0, 80, 0
2, 32865, Note_on_c, 0, 75, 0
2, 32866, Control_c, 0, 64, 0
2, 32878, Note_on_c, 0, 44, 0
2, 32897, Note_on_c, 0, 55, 99
2, 32897, Note_on_c, 0, 43, 97
2, 32928, Note_on_c, 0, 55, 0
2, 32970, Control_c, 0, 64, 127
2, 33024, Note_on_c, 0, 43, 0
2, 33073, Control_c, 0, 64, 0
2, 33230, Note_on_c, 0, 41, 98
2, 33232, Note_on_c, 0, 80, 107
2, 33262, Control_c, 0, 64, 127
2, 33390, Note_on_c, 0, 72, 82
2, 33396, Note_on_c, 0, 68, 77
2, 33469, Note_on_c, 0, 68, 0
2, 33469, Note_on_c, 0, 72, 0
2, 33474, Note_on_c, 0, 72, 86
2, 33479, Note_on_c, 0, 68, 81
2, 33480, Note_on_c, 0, 53, 74
2, 33505, Control_c, 0, 64, 0
2, 33515, Note_on_c, 0, 41, 0
2, 33523, Note_on_c, 0, 53, 0
2, 33546, Note_on_c, 0, 72, 0
2, 33553, Note_on_c, 0, 72, 88
2, 33553, Note_on_c, 0, 60, 97
2, 33555, Note_on_c, 0, 48, 96
2, 33592, Control_c, 0, 64, 127
2, 33707, Note_on_c, 0, 68, 0
2, 33715, Note_on_c, 0, 68, 88
2, 33745, Note_on_c, 0, 60, 0
2, 33753, Note_on_c, 0, 72, 0
2, 33754, Note_on_c, 0, 48, 0
2, 33755, Control_c, 0, 64, 0
2, 33759, Note_on_c, 0, 68, 0
2, 33768, Note_on_c, 0, 80, 0
2, 33870, Note_on_c, 0, 80, 103
2, 33871, Note_on_c, 0, 49, 92
2, 33871, Note_on_c, 0, 61, 99
2, 33880, Note_on_c, 0, 51, 71
2, 33899, Control_c, 0, 64, 127
2, 34010, Note_on_c, 0, 80, 0
2, 34025, Note_on_c, 0, 65, 79
2, 34025, Note_on_c, 0, 68, 82
2, 34026, Note_on_c, 0, 73, 71
2, 34084, Note_on_c, 0, 79, 92
2, 34091, Note_on_c, 0, 61, 0
2, 34091, Note_on_c, 0, 65, 0
2, 34091, Note_on_c, 0, 68, 0
2, 34091, Note_on_c, 0, 73, 0
2, 34099, Note_on_c, 0, 51, 0
2, 34101, Note_on_c, 0, 65, 83
2, 34101, Note_on_c, 0, 68, 82
2, 34102, Note_on_c, 0, 49, 0
2, 34102, Note_on_c, 0, 73, 79
2, 34108, Control_c, 0, 64, 0
2, 34152, Note_on_c, 0, 79, 0
2, 34178, Note_on_c, 0, 80, 105
2, 34212, Note_on_c, 0, 65, 0
2, 34222, Control_c, 0, 64, 127
2, 34245, Note_on_c, 0, 73, 0
2, 34344, Note_on_c, 0, 68, 0
2, 34349, Note_on_c, 0, 61, 56
2, 34349, Note_on_c, 0, 65, 79
2, 34350, Note_on_c, 0, 73, 79
2, 34351, Note_on_c, 0, 68, 75
2, 34355, Note_on_c, 0, 82, 98
2, 34407, Note_on_c, 0, 68, 0
2, 34410, Note_on_c, 0, 80, 0
2, 34411, Note_on_c, 0, 73, 0
2, 34415, Note_on_c, 0, 82, 0
2, 34415, Note_on_c, 0, 65, 0
2, 34418, Control_c, 0, 64, 0
2, 34437, Note_on_c, 0, 61, 0
2, 34514, Note_on_c, 0, 63, 100
2, 34517, Note_on_c, 0, 51, 95
2, 34518, Note_on_c, 0, 80, 104
2, 34529, Control_c, 0, 64, 127
2, 34682, Note_on_c, 0, 63, 0
2, 34685, Note_on_c, 0, 75, 85
2, 34686, Note_on_c, 0, 70, 81
2, 34692, Note_on_c, 0, 63, 66
2, 34739, Control_c, 0, 64, 0
2, 34752, Note_on_c, 0, 70, 0
2, 34752, Note_on_c, 0, 75, 0
2, 34759, Note_on_c, 0, 75, 100
2, 34759, Note_on_c, 0, 70, 87
2, 34775, Control_c, 0, 64, 127
2, 34837, Note_on_c, 0, 46, 100
2, 34839, Note_on_c, 0, 58, 92
2, 34856, Note_on_c, 0, 56, 41
2, 34920, Note_on_c, 0, 46, 0
2, 34932, Note_on_c, 0, 46, 25
2, 34997, Note_on_c, 0, 75, 0
2, 35005, Note_on_c, 0, 70, 0
2, 35007, Note_on_c, 0, 75, 91
2, 35008, Note_on_c, 0, 68, 67
2, 35009, Note_on_c, 0, 70, 77
2, 35056, Note_on_c, 0, 80, 0
2, 35056, Note_on_c, 0, 70, 0
2, 35057, Note_on_c, 0, 46, 0
2, 35057, Note_on_c, 0, 58, 0
2, 35057, Note_on_c, 0, 75, 0
2, 35060, Control_c, 0, 64, 0
2, 35074, Note_on_c, 0, 68, 0
2, 35082, Note_on_c, 0, 51, 0
2, 35082, Note_on_c, 0, 63, 0
2, 35105, Note_on_c, 0, 56, 0
2, 35150, Note_on_c, 0, 60, 96
2, 35151, Note_on_c, 0, 80, 105
2, 35152, Note_on_c, 0, 48, 91
2, 35189, Control_c, 0, 64, 127
2, 35315, Note_on_c, 0, 63, 86
2, 35324, Note_on_c, 0, 67, 75
2, 35325, Note_on_c, 0, 79, 89
2, 35326, Note_on_c, 0, 72, 67
2, 35343, Control_c, 0, 64, 0
2, 35347, Note_on_c, 0, 80, 0
2, 35349, Note_on_c, 0, 63, 0
2, 35356, Note_on_c, 0, 67, 0
2, 35358, Note_on_c, 0, 60, 0
2, 35366, Note_on_c, 0, 48, 0
2, 35397, Note_on_c, 0, 72, 0
2, 35401, Note_on_c, 0, 63, 94
2, 35402, Note_on_c, 0, 72, 90
2, 35407, Note_on_c, 0, 67, 85
2, 35435, Note_on_c, 0, 79, 0
2, 35466, Note_on_c, 0, 80, 98
2, 35489, Control_c, 0, 64, 127
2, 35619, Note_on_c, 0, 63, 0
2, 35627, Note_on_c, 0, 67, 0
2, 35629, Note_on_c, 0, 63, 94
2, 35631, Note_on_c, 0, 60, 54
2, 35634, Note_on_c, 0, 82, 96
2, 35636, Note_on_c, 0, 67, 65
2, 35642, Note_on_c, 0, 60, 0
2, 35692, Note_on_c, 0, 80, 0
2, 35693, Note_on_c, 0, 72, 0
2, 35693, Note_on_c, 0, 63, 0
2, 35697, Note_on_c, 0, 82, 0
2, 35699, Control_c, 0, 64, 0
2, 35704, Note_on_c, 0, 67, 0
2, 35787, Note_on_c, 0, 84, 105
2, 35792, Note_on_c, 0, 46, 93
2, 35792, Note_on_c, 0, 58, 96
2, 35794, Note_on_c, 0, 77, 95
2, 35795, Note_on_c, 0, 73, 92
2, 35797, Note_on_c, 0, 61, 87
2, 35811, Control_c, 0, 64, 127
2, 35822, Note_on_c, 0, 58, 0
2, 35857, Note_on_c, 0, 46, 0
2, 35857, Note_on_c, 0, 73, 0
2, 35888, Note_on_c, 0, 61, 0
2, 35944, Note_on_c, 0, 65, 85
2, 35946, Note_on_c, 0, 61, 85
2, 35999, Control_c, 0, 64, 0
2, 36011, Note_on_c, 0, 84, 0
2, 36019, Note_on_c, 0, 61, 0
2, 36019, Note_on_c, 0, 65, 0
2, 36029, Note_on_c, 0, 61, 93
2, 36030, Note_on_c, 0, 65, 89
2, 36065, Note_on_c, 0, 77, 0
2, 36068, Note_on_c, 0, 61, 0
2, 36072, Note_on_c, 0, 65, 0
2, 36124, Note_on_c, 0, 77, 98
2, 36180, Control_c, 0, 64, 127
2, 36282, Note_on_c, 0, 65, 87
2, 36283, Note_on_c, 0, 61, 80
2, 36336, Note_on_c, 0, 61, 0
2, 36338, Note_on_c, 0, 65, 0
2, 36357, Note_on_c, 0, 77, 0
2, 36358, Control_c, 0, 64, 0
2, 36437, Note_on_c, 0, 82, 105
2, 36441, Note_on_c, 0, 79, 92
2, 36442, Note_on_c, 0, 60, 93
2, 36442, Note_on_c, 0, 75, 98
2, 36444, Note_on_c, 0, 48, 94
2, 36456, Control_c, 0, 64, 127
2, 36587, Note_on_c, 0, 67, 86
2, 36590, Note_on_c, 0, 63, 89
2, 36600, Note_on_c, 0, 80, 86
2, 36640, Control_c, 0, 64, 0
2, 36646, Note_on_c, 0, 82, 0
2, 36672, Note_on_c, 0, 63, 0
2, 36677, Note_on_c, 0, 63, 82
2, 36679, Note_on_c, 0, 67, 0
2, 36683, Note_on_c, 0, 67, 84
2, 36718, Note_on_c, 0, 60, 0
2, 36725, Note_on_c, 0, 75, 0
2, 36725, Note_on_c, 0, 79, 0
2, 36729, Note_on_c, 0, 63, 0
2, 36741, Note_on_c, 0, 48, 0
2, 36756, Note_on_c, 0, 67, 0
2, 36756, Note_on_c, 0, 80, 0
2, 36774, Note_on_c, 0, 79, 97
2, 36779, Control_c, 0, 64, 127
2, 36840, Control_c, 0, 64, 0
2, 36941, Note_on_c, 0, 63, 81
2, 36941, Note_on_c, 0, 80, 100
2, 36943, Note_on_c, 0, 67, 72
2, 36969, Note_on_c, 0, 63, 0
2, 36969, Note_on_c, 0, 79, 0
2, 36974, Note_on_c, 0, 67, 0
2, 37009, Note_on_c, 0, 80, 0
2, 37090, Note_on_c, 0, 53, 99
2, 37090, Note_on_c, 0, 79, 101
2, 37095, Note_on_c, 0, 41, 91
2, 37117, Control_c, 0, 64, 127
2, 37258, Note_on_c, 0, 72, 89
2, 37259, Note_on_c, 0, 68, 77
2, 37324, Note_on_c, 0, 68, 0
2, 37324, Note_on_c, 0, 72, 0
2, 37329, Note_on_c, 0, 72, 93
2, 37335, Note_on_c, 0, 68, 85
2, 37570, Note_on_c, 0, 68, 0
2, 37570, Note_on_c, 0, 72, 0
2, 37576, Note_on_c, 0, 77, 98
2, 37579, Note_on_c, 0, 68, 94
2, 37579, Note_on_c, 0, 72, 91
2, 37724, Note_on_c, 0, 53, 0
2, 37724, Note_on_c, 0, 77, 0
2, 37731, Note_on_c, 0, 68, 0
2, 37731, Note_on_c, 0, 72, 0
2, 37734, Note_on_c, 0, 77, 104
2, 37735, Note_on_c, 0, 53, 83
2, 37736, Note_on_c, 0, 68, 93
2, 37736, Note_on_c, 0, 72, 84
2, 37782, Control_c, 0, 64, 0
2, 37800, Control_c, 0, 64, 127
2, 37812, Note_on_c, 0, 60, 72
2, 37877, Note_on_c, 0, 65, 88
2, 37969, Note_on_c, 0, 67, 84
2, 38062, Note_on_c, 0, 68, 0
2, 38065, Note_on_c, 0, 68, 76
2, 38123, Note_on_c, 0, 72, 0
2, 38130, Note_on_c, 0, 72, 67
2, 38215, Note_on_c, 0, 77, 0
2, 38221, Note_on_c, 0, 77, 87
2, 38277, Note_on_c, 0, 79, 0
2, 38278, Note_on_c, 0, 67, 0
2, 38279, Note_on_c, 0, 53, 0
2, 38279, Note_on_c, 0, 65, 0
2, 38279, Note_on_c, 0, 60, 0
2, 38280, Note_on_c, 0, 68, 0
2, 38280, Note_on_c, 0, 72, 0
2, 38280, Note_on_c, 0, 77, 0
2, 38281, Control_c, 0, 64, 0
2, 38284, Note_on_c, 0, 41, 0
2, 38379, Note_on_c, 0, 84, 105
2, 38381, Note_on_c, 0, 37, 92
2, 38382, Note_on_c, 0, 77, 90
2, 38386, Note_on_c, 0, 72, 95
2, 38390, Note_on_c, 0, 80, 85
2, 38392, Control_c, 0, 64, 127
2, 38453, Note_on_c, 0, 77, 0
2, 38453, Note_on_c, 0, 80, 0
2, 38453, Note_on_c, 0, 84, 0
2, 38461, Note_on_c, 0, 37, 0
2, 38461, Note_on_c, 0, 84, 108
2, 38464, Note_on_c, 0, 77, 90
2, 38465, Note_on_c, 0, 80, 89
2, 38508, Control_c, 0, 64, 0
2, 38561, Note_on_c, 0, 77, 0
2, 38561, Note_on_c, 0, 84, 0
2, 38567, Note_on_c, 0, 77, 94
2, 38570, Note_on_c, 0, 84, 93
2, 38576, Note_on_c, 0, 49, 55
2, 38578, Note_on_c, 0, 53, 71
2, 38584, Note_on_c, 0, 49, 0
2, 38594, Note_on_c, 0, 72, 0
2, 38596, Note_on_c, 0, 77, 0
2, 38597, Note_on_c, 0, 80, 0
2, 38630, Note_on_c, 0, 53, 0
2, 38630, Note_on_c, 0, 84, 0
2, 38696, Note_on_c, 0, 84, 108
2, 38700, Note_on_c, 0, 72, 90
2, 38703, Note_on_c, 0, 77, 90
2, 38703, Note_on_c, 0, 80, 87
2, 38705, Note_on_c, 0, 68, 90
2, 38718, Note_on_c, 0, 56, 91
2, 38727, Note_on_c, 0, 84, 0
2, 38728, Note_on_c, 0, 72, 0
2, 38732, Note_on_c, 0, 77, 0
2, 38753, Note_on_c, 0, 68, 0
2, 38760, Note_on_c, 0, 80, 0
2, 38776, Note_on_c, 0, 56, 0
2, 38866, Note_on_c, 0, 49, 94
2, 38870, Note_on_c, 0, 76, 79
2, 38870, Note_on_c, 0, 84, 88
2, 38872, Note_on_c, 0, 72, 78
2, 38873, Note_on_c, 0, 77, 76
2, 38876, Note_on_c, 0, 76, 0
2, 38883, Note_on_c, 0, 72, 0
2, 38906, Control_c, 0, 64, 127
2, 38922, Note_on_c, 0, 84, 0
2, 38929, Note_on_c, 0, 77, 0
2, 38931, Note_on_c, 0, 72, 99
2, 38933, Note_on_c, 0, 84, 110
2, 38939, Note_on_c, 0, 77, 87
2, 38943, Note_on_c, 0, 80, 91
2, 38956, Note_on_c, 0, 60, 83
2, 38961, Note_on_c, 0, 52, 77
2, 38962, Note_on_c, 0, 56, 82
2, 39114, Note_on_c, 0, 49, 0
2, 39121, Note_on_c, 0, 56, 0
2, 39124, Note_on_c, 0, 49, 80
2, 39125, Note_on_c, 0, 56, 62
2, 39198, Note_on_c, 0, 60, 0
2, 39198, Note_on_c, 0, 72, 0
2, 39198, Note_on_c, 0, 84, 0
2, 39203, Note_on_c, 0, 60, 84
2, 39204, Note_on_c, 0, 84, 103
2, 39207, Note_on_c, 0, 72, 86
2, 39221, Note_on_c, 0, 80, 0
2, 39226, Note_on_c, 0, 80, 51
2, 39253, Note_on_c, 0, 58, 75
2, 39313, Note_on_c, 0, 56, 0
2, 39322, Note_on_c, 0, 56, 80
2, 39348, Note_on_c, 0, 82, 105
2, 39358, Note_on_c, 0, 70, 94
2, 39467, Note_on_c, 0, 52, 0
2, 39478, Note_on_c, 0, 52, 82
2, 39498, Note_on_c, 0, 80, 0
2, 39508, Note_on_c, 0, 80, 103
2, 39514, Note_on_c, 0, 68, 98
2, 39541, Note_on_c, 0, 78, 46
2, 39579, Note_on_c, 0, 84, 0
2, 39579, Note_on_c, 0, 77, 0
2, 39579, Note_on_c, 0, 80, 0
2, 39579, Note_on_c, 0, 60, 0
2, 39580, Note_on_c, 0, 82, 0
2, 39580, Note_on_c, 0, 72, 0
2, 39580, Note_on_c, 0, 58, 0
2, 39580, Note_on_c, 0, 68, 0
2, 39581, Note_on_c, 0, 70, 0
2, 39584, Control_c, 0, 64, 0
2, 39590, Note_on_c, 0, 78, 0
2, 39598, Note_on_c, 0, 49, 0
2, 39598, Note_on_c, 0, 52, 0
2, 39598, Note_on_c, 0, 56, 0
2, 39657, Note_on_c, 0, 79, 107
2, 39662, Note_on_c, 0, 39, 92
2, 39662, Note_on_c, 0, 67, 104
2, 39664, Note_on_c, 0, 70, 95
2, 39665, Note_on_c, 0, 75, 86
2, 39686, Note_on_c, 0, 67, 0
2, 39687, Note_on_c, 0, 39, 0
2, 39697, Control_c, 0, 64, 127
2, 39797, Note_on_c, 0, 70, 0
2, 39820, Note_on_c, 0, 51, 73
2, 39887, Control_c, 0, 64, 0
2, 39905, Note_on_c, 0, 75, 0
2, 39905, Note_on_c, 0, 79, 0
2, 39973, Note_on_c, 0, 79, 100
2, 39974, Note_on_c, 0, 67, 91
2, 39978, Note_on_c, 0, 58, 80
2, 39984, Note_on_c, 0, 55, 73
2, 39985, Note_on_c, 0, 63, 72
2, 39997, Note_on_c, 0, 51, 0
2, 39999, Note_on_c, 0, 67, 0
2, 40001, Note_on_c, 0, 79, 0
2, 40008, Note_on_c, 0, 51, 52
2, 40022, Note_on_c, 0, 55, 0
2, 40035, Note_on_c, 0, 58, 0
2, 40043, Note_on_c, 0, 63, 0
2, 40120, Note_on_c, 0, 51, 0
2, 40124, Note_on_c, 0, 51, 83
2, 40125, Note_on_c, 0, 87, 91
2, 40125, Note_on_c, 0, 75, 89
2, 40174, Note_on_c, 0, 75, 0
2, 40181, Note_on_c, 0, 87, 0
2, 40185, Note_on_c, 0, 75, 98
2, 40185, Note_on_c, 0, 87, 101
2, 40192, Note_on_c, 0, 79, 98
2, 40193, Note_on_c, 0, 82, 95
2, 40207, Note_on_c, 0, 63, 96
2, 40208, Note_on_c, 0, 58, 78
2, 40211, Note_on_c, 0, 55, 82
2, 40220, Control_c, 0, 64, 127
2, 40427, Note_on_c, 0, 51, 0
2, 40427, Note_on_c, 0, 58, 0
2, 40435, Note_on_c, 0, 55, 0
2, 40436, Note_on_c, 0, 51, 73
2, 40436, Note_on_c, 0, 58, 55
2, 40441, Note_on_c, 0, 55, 39
2, 40488, Note_on_c, 0, 55, 0
2, 40488, Note_on_c, 0, 63, 0
2, 40493, Note_on_c, 0, 55, 47
2, 40494, Note_on_c, 0, 63, 91
2, 40574, Note_on_c, 0, 61, 83
2, 40667, Note_on_c, 0, 60, 80
2, 40696, Note_on_c, 0, 58, 0
2, 40705, Note_on_c, 0, 58, 79
2, 40734, Note_on_c, 0, 75, 0
2, 40734, Note_on_c, 0, 87, 0
2, 40745, Note_on_c, 0, 75, 99
2, 40745, Note_on_c, 0, 87, 102
2, 40768, Note_on_c, 0, 56, 74
2, 40821, Note_on_c, 0, 63, 0
2, 40821, Note_on_c, 0, 55, 0
2, 40821, Note_on_c, 0, 61, 0
2, 40821, Note_on_c, 0, 51, 0
2, 40822, Note_on_c, 0, 60, 0
2, 40822, Note_on_c, 0, 79, 0
2, 40822, Note_on_c, 0, 58, 0
2, 40822, Note_on_c, 0, 82, 0
2, 40822, Note_on_c, 0, 56, 0
2, 40823, Note_on_c, 0, 87, 0
2, 40823, Note_on_c, 0, 75, 0
2, 40824, Control_c, 0, 64, 0
2, 40889, Note_on_c, 0, 48, 97
2, 40890, Note_on_c, 0, 87, 102
2, 40890, Note_on_c, 0, 75, 107
2, 40891, Note_on_c, 0, 36, 92
2, 40893, Note_on_c, 0, 39, 85
2, 40894, Note_on_c, 0, 79, 88
2, 40894, Note_on_c, 0, 84, 90
2, 40898, Note_on_c, 0, 82, 95
2, 40926, Control_c, 0, 64, 127
2, 41051, Note_on_c, 0, 85, 101
2, 41053, Note_on_c, 0, 73, 89
2, 41053, Note_on_c, 0, 56, 70
2, 41060, Note_on_c, 0, 76, 68
2, 41187, Note_on_c, 0, 36, 0
2, 41195, Note_on_c, 0, 39, 0
2, 41199, Note_on_c, 0, 85, 0
2, 41200, Note_on_c, 0, 73, 0
2, 41200, Note_on_c, 0, 87, 0
2, 41203, Note_on_c, 0, 84, 0
2, 41204, Note_on_c, 0, 82, 0
2, 41205, Note_on_c, 0, 75, 0
2, 41205, Note_on_c, 0, 79, 0
2, 41206, Control_c, 0, 64, 0
2, 41207, Note_on_c, 0, 84, 103
2, 41210, Note_on_c, 0, 55, 76
2, 41210, Note_on_c, 0, 76, 0
2, 41215, Note_on_c, 0, 72, 87
2, 41217, Note_on_c, 0, 51, 68
2, 41219, Note_on_c, 0, 63, 69
2, 41233, Note_on_c, 0, 48, 0
2, 41249, Note_on_c, 0, 56, 0
2, 41252, Note_on_c, 0, 84, 0
2, 41252, Note_on_c, 0, 72, 0
2, 41266, Note_on_c, 0, 55, 0
2, 41268, Note_on_c, 0, 51, 0
2, 41280, Note_on_c, 0, 63, 0
2, 41353, Note_on_c, 0, 48, 81
2, 41356, Note_on_c, 0, 82, 91
2, 41356, Control_c, 0, 64, 127
2, 41360, Note_on_c, 0, 70, 90
2, 41366, Note_on_c, 0, 51, 57
2, 41502, Note_on_c, 0, 70, 0
2, 41512, Note_on_c, 0, 85, 98
2, 41513, Note_on_c, 0, 73, 94
2, 41515, Note_on_c, 0, 75, 77
2, 41525, Note_on_c, 0, 60, 79
2, 41525, Note_on_c, 0, 51, 0
2, 41529, Note_on_c, 0, 55, 77
2, 41533, Note_on_c, 0, 51, 67
2, 41594, Note_on_c, 0, 60, 0
2, 41600, Note_on_c, 0, 84, 98
2, 41602, Note_on_c, 0, 72, 90
2, 41603, Note_on_c, 0, 60, 78
2, 41633, Note_on_c, 0, 55, 0
2, 41638, Note_on_c, 0, 55, 35
2, 41723, Control_c, 0, 64, 0
2, 41729, Note_on_c, 0, 73, 0
2, 41729, Note_on_c, 0, 60, 0
2, 41730, Note_on_c, 0, 85, 0
2, 41730, Note_on_c, 0, 84, 0
2, 41731, Note_on_c, 0, 72, 0
2, 41733, Note_on_c, 0, 82, 0
2, 41734, Note_on_c, 0, 55, 0
2, 41740, Note_on_c, 0, 75, 0
2, 41748, Note_on_c, 0, 48, 0
2, 41760, Note_on_c, 0, 48, 65
2, 41763, Note_on_c, 0, 82, 103
2, 41763, Note_on_c, 0, 51, 0
2, 41767, Note_on_c, 0, 70, 96
2, 41774, Note_on_c, 0, 51, 70
2, 41786, Control_c, 0, 64, 127
2, 41903, Note_on_c, 0, 55, 75
2, 42009, Note_on_c, 0, 48, 0
2, 42012, Note_on_c, 0, 80, 96
2, 42018, Note_on_c, 0, 48, 75
2, 42019, Note_on_c, 0, 68, 94
2, 42037, Note_on_c, 0, 78, 68
2, 42074, Note_on_c, 0, 51, 0
2, 42074, Note_on_c, 0, 48, 0
2, 42075, Note_on_c, 0, 68, 0
2, 42075, Note_on_c, 0, 78, 0
2, 42075, Note_on_c, 0, 82, 0
2, 42075, Note_on_c, 0, 80, 0
2, 42076, Control_c, 0, 64, 0
2, 42086, Note_on_c, 0, 70, 0
2, 42094, Note_on_c, 0, 55, 0
2, 42148, Note_on_c, 0, 79, 102
2, 42150, Note_on_c, 0, 53, 94
2, 42151, Note_on_c, 0, 67, 103
2, 42151, Note_on_c, 0, 72, 90
2, 42152, Note_on_c, 0, 41, 84
2, 42157, Note_on_c, 0, 75, 93
2, 42181, Note_on_c, 0, 53, 0
2, 42209, Note_on_c, 0, 67, 0
2, 42224, Control_c, 0, 64, 127
2, 42232, Note_on_c, 0, 41, 0
2, 42329, Note_on_c, 0, 53, 42
2, 42401, Note_on_c, 0, 79, 0
2, 42406, Note_on_c, 0, 79, 97
2, 42408, Note_on_c, 0, 75, 0
2, 42411, Note_on_c, 0, 67, 92
2, 42418, Note_on_c, 0, 75, 85
2, 42419, Note_on_c, 0, 73, 70
2, 42497, Note_on_c, 0, 57, 75
2, 42500, Note_on_c, 0, 58, 68
2, 42508, Note_on_c, 0, 67, 0
2, 42516, Note_on_c, 0, 67, 59
2, 42624, Note_on_c, 0, 53, 0
2, 42624, Note_on_c, 0, 75, 0
2, 42629, Note_on_c, 0, 77, 94
2, 42631, Note_on_c, 0, 53, 85
2, 42631, Note_on_c, 0, 65, 90
2, 42635, Note_on_c, 0, 75, 74
2, 42653, Note_on_c, 0, 41, 54
2, 42768, Note_on_c, 0, 57, 0
2, 42768, Note_on_c, 0, 73, 0
2, 42769, Note_on_c, 0, 67, 0
2, 42769, Note_on_c, 0, 65, 0
2, 42769, Note_on_c, 0, 79, 0
2, 42769, Note_on_c, 0, 53, 0
2, 42769, Note_on_c, 0, 75, 0
2, 42769, Note_on_c, 0, 72, 0
2, 42770, Note_on_c, 0, 77, 0
2, 42770, Note_on_c, 0, 58, 0
2, 42772, Control_c, 0, 64, 0
2, 42777, Note_on_c, 0, 41, 0
2, 42791, Note_on_c, 0, 80, 107
2, 42795, Note_on_c, 0, 68, 106
2, 42796, Note_on_c, 0, 60, 91
2, 42802, Note_on_c, 0, 72, 86
2, 42803, Note_on_c, 0, 48, 75
2, 42814, Note_on_c, 0, 75, 54
2, 42846, Note_on_c, 0, 72, 0
2, 42869, Control_c, 0, 64, 127
2, 42949, Note_on_c, 0, 58, 82
2, 42984, Note_on_c, 0, 60, 0
2, 43031, Note_on_c, 0, 48, 0
2, 43077, Note_on_c, 0, 75, 0
2, 43091, Note_on_c, 0, 56, 83
2, 43192, Note_on_c, 0, 68, 0
2, 43256, Note_on_c, 0, 55, 81
2, 43368, Note_on_c, 0, 58, 0
2, 43368, Note_on_c, 0, 80, 0
2, 43373, Note_on_c, 0, 55, 0
2, 43374, Control_c, 0, 64, 0
2, 43374, Note_on_c, 0, 56, 0
2, 43441, Note_on_c, 0, 68, 92
2, 43443, Note_on_c, 0, 52, 79
2, 43447, Note_on_c, 0, 64, 79
2, 43473, Note_on_c, 0, 68, 0
2, 43496, Note_on_c, 0, 56, 47
2, 43507, Note_on_c, 0, 52, 0
2, 43514, Note_on_c, 0, 64, 0
2, 43530, Control_c, 0, 64, 127
2, 43595, Note_on_c, 0, 52, 76
2, 43601, Note_on_c, 0, 68, 78
2, 43614, Note_on_c, 0, 56, 0
2, 43618, Note_on_c, 0, 56, 48
2, 43650, Note_on_c, 0, 47, 74
2, 43668, Note_on_c, 0, 68, 0
2, 43672, Note_on_c, 0, 68, 90
2, 43723, Note_on_c, 0, 47, 0
2, 43724, Note_on_c, 0, 52, 0
2, 43741, Control_c, 0, 64, 0
2, 43752, Note_on_c, 0, 56, 0
2, 43760, Note_on_c, 0, 68, 0
2, 43764, Note_on_c, 0, 40, 82
2, 43770, Note_on_c, 0, 68, 96
2, 43775, Note_on_c, 0, 64, 74
2, 43802, Note_on_c, 0, 68, 0
2, 43845, Control_c, 0, 64, 127
2, 43902, Note_on_c, 0, 47, 75
2, 43911, Note_on_c, 0, 68, 83
2, 43968, Note_on_c, 0, 40, 0
2, 43968, Note_on_c, 0, 64, 0
2, 43975, Control_c, 0, 64, 0
2, 43983, Note_on_c, 0, 68, 0
2, 43987, Note_on_c, 0, 68, 88
2, 43990, Note_on_c, 0, 52, 83
2, 44029, Note_on_c, 0, 47, 0
2, 44067, Note_on_c, 0, 52, 0
2, 44067, Control_c, 0, 64, 127
2, 44072, Note_on_c, 0, 52, 68
2, 44143, Note_on_c, 0, 56, 79
2, 44229, Note_on_c, 0, 52, 0
2, 44229, Note_on_c, 0, 68, 0
2, 44233, Note_on_c, 0, 68, 87
2, 44240, Note_on_c, 0, 52, 71
2, 44242, Note_on_c, 0, 64, 80
2, 44301, Note_on_c, 0, 47, 62
2, 44327, Note_on_c, 0, 64, 0
2, 44332, Note_on_c, 0, 68, 0
2, 44332, Note_on_c, 0, 52, 0
2, 44337, Control_c, 0, 64, 0
2, 44338, Note_on_c, 0, 47, 0
2, 44352, Note_on_c, 0, 56, 0
2, 44394, Note_on_c, 0, 40, 80
2, 44396, Note_on_c, 0, 28, 80
2, 44399, Note_on_c, 0, 70, 88
2, 44400, Note_on_c, 0, 66, 94
2, 44405, Note_on_c, 0, 28, 0
2, 44427, Note_on_c, 0, 66, 0
2, 44467, Note_on_c, 0, 40, 0
2, 44474, Note_on_c, 0, 40, 59
2, 44474, Control_c, 0, 64, 127
2, 44559, Note_on_c, 0, 71, 90
2, 44562, Note_on_c, 0, 47, 73
2, 44563, Note_on_c, 0, 68, 82
2, 44600, Note_on_c, 0, 71, 0
2, 44602, Note_on_c, 0, 68, 0
2, 44613, Note_on_c, 0, 70, 0
2, 44618, Control_c, 0, 64, 0
2, 44623, Note_on_c, 0, 52, 75
2, 44651, Note_on_c, 0, 47, 0
2, 44655, Note_on_c, 0, 52, 0
2, 44666, Note_on_c, 0, 40, 0
2, 44708, Note_on_c, 0, 70, 99
2, 44709, Note_on_c, 0, 66, 100
2, 44709, Note_on_c, 0, 54, 81
2, 44789, Note_on_c, 0, 54, 0
2, 44801, Note_on_c, 0, 58, 75
2, 44805, Control_c, 0, 64, 127
2, 44854, Note_on_c, 0, 54, 66
2, 44938, Note_on_c, 0, 49, 67
2, 45007, Note_on_c, 0, 54, 0
2, 45019, Control_c, 0, 64, 0
2, 45043, Note_on_c, 0, 66, 0
2, 45043, Note_on_c, 0, 70, 0
2, 45046, Note_on_c, 0, 42, 82
2, 45046, Note_on_c, 0, 30, 77
2, 45048, Note_on_c, 0, 70, 94
2, 45050, Note_on_c, 0, 30, 0
2, 45052, Note_on_c, 0, 66, 95
2, 45089, Note_on_c, 0, 49, 0
2, 45120, Control_c, 0, 64, 127
2, 45189, Note_on_c, 0, 66, 0
2, 45198, Note_on_c, 0, 66, 100
2, 45216, Note_on_c, 0, 49, 55
2, 45218, Control_c, 0, 64, 0
2, 45273, Note_on_c, 0, 66, 0
2, 45283, Note_on_c, 0, 54, 82
2, 45284, Note_on_c, 0, 66, 103
2, 45335, Note_on_c, 0, 58, 0
2, 45382, Note_on_c, 0, 61, 79
2, 45388, Control_c, 0, 64, 127
2, 45442, Note_on_c, 0, 54, 0
2, 45449, Note_on_c, 0, 54, 74
2, 45480, Control_c, 0, 64, 0
2, 45537, Note_on_c, 0, 59, 79
2, 45557, Note_on_c, 0, 70, 0
2, 45565, Control_c, 0, 64, 127
2, 45619, Note_on_c, 0, 54, 0
2, 45623, Note_on_c, 0, 54, 63
2, 45701, Note_on_c, 0, 58, 81
2, 45726, Note_on_c, 0, 54, 0
2, 45738, Note_on_c, 0, 54, 49
2, 45795, Note_on_c, 0, 49, 0
2, 45803, Note_on_c, 0, 49, 73
2, 45834, Note_on_c, 0, 66, 0
2, 45845, Note_on_c, 0, 66, 98
2, 45934, Note_on_c, 0, 42, 0
2, 45935, Note_on_c, 0, 54, 0
2, 45936, Note_on_c, 0, 66, 0
2, 45936, Note_on_c, 0, 58, 0
2, 45937, Note_on_c, 0, 59, 0
2, 45938, Control_c, 0, 64, 0
2, 45957, Note_on_c, 0, 61, 0
2, 45995, Note_on_c, 0, 49, 0
2, 45999, Note_on_c, 0, 65, 95
2, 45999, Note_on_c, 0, 49, 77
2, 46003, Note_on_c, 0, 61, 87
2, 46064, Note_on_c, 0, 49, 0
2, 46083, Note_on_c, 0, 53, 71
2, 46087, Control_c, 0, 64, 127
2, 46142, Note_on_c, 0, 49, 48
2, 46224, Note_on_c, 0, 44, 77
2, 46275, Note_on_c, 0, 49, 0
2, 46279, Note_on_c, 0, 61, 0
2, 46290, Control_c, 0, 64, 0
2, 46310, Note_on_c, 0, 65, 0
2, 46316, Note_on_c, 0, 65, 92
2, 46319, Note_on_c, 0, 61, 87
2, 46321, Note_on_c, 0, 37, 85
2, 46387, Control_c, 0, 64, 127
2, 46394, Note_on_c, 0, 44, 0
2, 46468, Note_on_c, 0, 44, 74
2, 46477, Note_on_c, 0, 63, 71
2, 46540, Note_on_c, 0, 61, 0
2, 46540, Note_on_c, 0, 65, 0
2, 46550, Note_on_c, 0, 61, 87
2, 46551, Note_on_c, 0, 65, 91
2, 46552, Note_on_c, 0, 49, 81
2, 46565, Control_c, 0, 64, 0
2, 46625, Note_on_c, 0, 53, 0
2, 46640, Note_on_c, 0, 49, 0
2, 46650, Note_on_c, 0, 49, 90
2, 46717, Control_c, 0, 64, 127
2, 46770, Note_on_c, 0, 53, 71
2, 46809, Note_on_c, 0, 65, 0
2, 46817, Note_on_c, 0, 61, 0
2, 46818, Note_on_c, 0, 65, 94
2, 46821, Note_on_c, 0, 61, 79
2, 46901, Note_on_c, 0, 44, 0
2, 46905, Note_on_c, 0, 44, 58
2, 46934, Note_on_c, 0, 49, 0
2, 46935, Note_on_c, 0, 53, 0
2, 46938, Control_c, 0, 64, 0
2, 46963, Note_on_c, 0, 61, 0
2, 46963, Note_on_c, 0, 63, 0
2, 46970, Note_on_c, 0, 37, 0
2, 46972, Note_on_c, 0, 25, 77
2, 46973, Note_on_c, 0, 67, 94
2, 46973, Note_on_c, 0, 61, 78
2, 46976, Note_on_c, 0, 37, 80
2, 46978, Note_on_c, 0, 25, 0
2, 47032, Control_c, 0, 64, 127
2, 47123, Note_on_c, 0, 68, 97
2, 47185, Note_on_c, 0, 44, 0
2, 47185, Note_on_c, 0, 65, 0
2, 47197, Note_on_c, 0, 68, 0
2, 47204, Control_c, 0, 64, 0
2, 47224, Note_on_c, 0, 37, 0
2, 47224, Note_on_c, 0, 67, 0
2, 47239, Note_on_c, 0, 61, 0
2, 47289, Note_on_c, 0, 68, 102
2, 47289, Note_on_c, 0, 39, 84
2, 47303, Note_on_c, 0, 63, 83
2, 47354, Control_c, 0, 64, 127
2, 47457, Note_on_c, 0, 46, 69
2, 47530, Note_on_c, 0, 51, 76
2, 47614, Note_on_c, 0, 55, 92
2, 47708, Note_on_c, 0, 51, 0
2, 47714, Note_on_c, 0, 51, 71
2, 47777, Note_on_c, 0, 67, 94
2, 47784, Note_on_c, 0, 55, 0
2, 47793, Note_on_c, 0, 55, 73
2, 47872, Note_on_c, 0, 65, 78
2, 47874, Note_on_c, 0, 58, 77
2, 47915, Note_on_c, 0, 67, 0
2, 47925, Note_on_c, 0, 67, 98
2, 47946, Note_on_c, 0, 63, 0
2, 47953, Note_on_c, 0, 55, 0
2, 47957, Note_on_c, 0, 63, 84
2, 47958, Note_on_c, 0, 55, 62
2, 48030, Note_on_c, 0, 55, 0
2, 48038, Note_on_c, 0, 55, 68
2, 48107, Note_on_c, 0, 58, 0
2, 48113, Note_on_c, 0, 58, 74
2, 48192, Note_on_c, 0, 63, 0
2, 48197, Note_on_c, 0, 63, 84
2, 48259, Note_on_c, 0, 75, 91
2, 48261, Note_on_c, 0, 67, 0
2, 48267, Note_on_c, 0, 67, 81
2, 48325, Note_on_c, 0, 77, 93
2, 48384, Note_on_c, 0, 63, 0
2, 48388, Note_on_c, 0, 79, 94
2, 48389, Note_on_c, 0, 63, 46
2, 48445, Note_on_c, 0, 80, 96
2, 48489, Note_on_c, 0, 82, 91
2, 48566, Note_on_c, 0, 51, 0
2, 48567, Note_on_c, 0, 63, 0
2, 48567, Note_on_c, 0, 80, 0
2, 48567, Note_on_c, 0, 68, 0
2, 48567, Note_on_c, 0, 46, 0
2, 48567, Note_on_c, 0, 65, 0
2, 48567, Note_on_c, 0, 55, 0
2, 48568, Note_on_c, 0, 77, 0
2, 48568, Note_on_c, 0, 58, 0
2, 48568, Note_on_c, 0, 82, 0
2, 48571, Control_c, 0, 64, 0
2, 48583, Note_on_c, 0, 39, 0
2, 48583, Note_on_c, 0, 79, 0
2, 48590, Note_on_c, 0, 79, 107
2, 48591, Note_on_c, 0, 67, 0
2, 48591, Note_on_c, 0, 75, 0
2, 48593, Note_on_c, 0, 87, 109
2, 48595, Note_on_c, 0, 75, 105
2, 48595, Note_on_c, 0, 67, 98
2, 48596, Note_on_c, 0, 70, 102
2, 48675, Control_c, 0, 64, 127
2, 48844, Note_on_c, 0, 67, 0
2, 48851, Note_on_c, 0, 63, 90
2, 48852, Note_on_c, 0, 67, 99
2, 48855, Note_on_c, 0, 76, 100
2, 48985, Note_on_c, 0, 63, 0
2, 48986, Control_c, 0, 64, 0
2, 48994, Note_on_c, 0, 70, 0
2, 48996, Note_on_c, 0, 75, 0
2, 48999, Note_on_c, 0, 67, 0
2, 49002, Note_on_c, 0, 76, 0
2, 49013, Note_on_c, 0, 79, 0
2, 49021, Note_on_c, 0, 87, 0
2, 49098, Note_on_c, 0, 63, 103
2, 49100, Note_on_c, 0, 75, 106
2, 49101, Note_on_c, 0, 70, 102
2, 49102, Note_on_c, 0, 67, 94
2, 49128, Control_c, 0, 64, 127
2, 49278, Control_c, 0, 64, 0
2, 49279, Note_on_c, 0, 70, 0
2, 49282, Note_on_c, 0, 63, 0
2, 49282, Note_on_c, 0, 75, 0
2, 49290, Note_on_c, 0, 67, 0
2, 49433, Note_on_c, 0, 83, 109
2, 49436, Control_c, 0, 64, 127
2, 49438, Note_on_c, 0, 75, 108
2, 49439, Note_on_c, 0, 71, 101
2, 49594, Note_on_c, 0, 82, 107
2, 49595, Note_on_c, 0, 70, 105
2, 49597, Note_on_c, 0, 71, 0
2, 49607, Note_on_c, 0, 71, 89
2, 49624, Note_on_c, 0, 80, 52
2, 49654, Note_on_c, 0, 83, 0
2, 49655, Note_on_c, 0, 71, 0
2, 49655, Note_on_c, 0, 70, 0
2, 49656, Note_on_c, 0, 82, 0
2, 49656, Note_on_c, 0, 75, 0
2, 49658, Control_c, 0, 64, 0
2, 49697, Note_on_c, 0, 80, 0
2, 49749, Note_on_c, 0, 78, 109
2, 49752, Note_on_c, 0, 66, 108
2, 49784, Note_on_c, 0, 66, 0
2, 49790, Note_on_c, 0, 78, 0
2, 49884, Note_on_c, 0, 78, 112
2, 49885, Note_on_c, 0, 32, 97
2, 49886, Note_on_c, 0, 66, 104
2, 49886, Note_on_c, 0, 44, 102
2, 49886, Note_on_c, 0, 68, 95
2, 49912, Control_c, 0, 64, 127
2, 50042, Note_on_c, 0, 68, 0
2, 50048, Note_on_c, 0, 68, 88
2, 50050, Note_on_c, 0, 71, 83
2, 50053, Note_on_c, 0, 80, 88
2, 50058, Note_on_c, 0, 32, 0
2, 50065, Note_on_c, 0, 32, 66
2, 50065, Note_on_c, 0, 44, 0
2, 50071, Note_on_c, 0, 44, 57
2, 50104, Note_on_c, 0, 32, 0
2, 50104, Note_on_c, 0, 44, 0
2, 50104, Note_on_c, 0, 68, 0
2, 50104, Note_on_c, 0, 80, 0
2, 50109, Note_on_c, 0, 80, 103
2, 50112, Note_on_c, 0, 71, 0
2, 50113, Note_on_c, 0, 44, 87
2, 50114, Note_on_c, 0, 32, 77
2, 50115, Note_on_c, 0, 68, 106
2, 50117, Note_on_c, 0, 71, 82
2, 50120, Note_on_c, 0, 75, 67
2, 50122, Note_on_c, 0, 56, 92
2, 50280, Note_on_c, 0, 32, 0
2, 50280, Note_on_c, 0, 44, 0
2, 50289, Note_on_c, 0, 44, 79
2, 50290, Note_on_c, 0, 32, 73
2, 50388, Note_on_c, 0, 56, 0
2, 50388, Note_on_c, 0, 66, 0
2, 50388, Note_on_c, 0, 68, 0
2, 50388, Note_on_c, 0, 78, 0
2, 50393, Note_on_c, 0, 32, 0
2, 50393, Note_on_c, 0, 78, 105
2, 50394, Note_on_c, 0, 56, 86
2, 50394, Note_on_c, 0, 66, 100
2, 50395, Note_on_c, 0, 68, 82
2, 50397, Note_on_c, 0, 44, 0
2, 50470, Note_on_c, 0, 56, 0
2, 50471, Note_on_c, 0, 66, 0
2, 50471, Note_on_c, 0, 80, 0
2, 50471, Note_on_c, 0, 71, 0
2, 50471, Note_on_c, 0, 68, 0
2, 50472, Control_c, 0, 64, 0
2, 50472, Note_on_c, 0, 78, 0
2, 50488, Note_on_c, 0, 75, 0
2, 50553, Note_on_c, 0, 78, 111
2, 50559, Note_on_c, 0, 66, 107
2, 50560, Note_on_c, 0, 32, 95
2, 50560, Note_on_c, 0, 68, 94
2, 50565, Note_on_c, 0, 68, 0
2, 50595, Control_c, 0, 64, 127
2, 50712, Note_on_c, 0, 68, 83
2, 50713, Note_on_c, 0, 80, 87
2, 50714, Note_on_c, 0, 71, 78
2, 50764, Note_on_c, 0, 80, 0
2, 50772, Note_on_c, 0, 32, 0
2, 50772, Note_on_c, 0, 68, 0
2, 50772, Note_on_c, 0, 71, 0
2, 50776, Note_on_c, 0, 80, 96
2, 50777, Note_on_c, 0, 32, 79
2, 50778, Note_on_c, 0, 44, 84
2, 50778, Note_on_c, 0, 68, 86
2, 50780, Note_on_c, 0, 71, 86
2, 51025, Note_on_c, 0, 44, 0
2, 51030, Note_on_c, 0, 44, 77
2, 51041, Note_on_c, 0, 66, 0
2, 51041, Note_on_c, 0, 78, 0
2, 51041, Note_on_c, 0, 56, 70
2, 51045, Note_on_c, 0, 51, 73
2, 51050, Note_on_c, 0, 78, 97
2, 51052, Note_on_c, 0, 66, 97
2, 51150, Note_on_c, 0, 71, 0
2, 51150, Note_on_c, 0, 66, 0
2, 51150, Note_on_c, 0, 32, 0
2, 51151, Note_on_c, 0, 51, 0
2, 51151, Note_on_c, 0, 78, 0
2, 51155, Control_c, 0, 64, 0
2, 51164, Note_on_c, 0, 44, 0
2, 51164, Note_on_c, 0, 68, 0
2, 51164, Note_on_c, 0, 80, 0
2, 51171, Note_on_c, 0, 56, 0
2, 51220, Note_on_c, 0, 40, 99
2, 51221, Note_on_c, 0, 78, 110
2, 51221, Note_on_c, 0, 66, 107
2, 51223, Note_on_c, 0, 28, 92
2, 51231, Note_on_c, 0, 74, 82
2, 51233, Note_on_c, 0, 75, 77
2, 51235, Note_on_c, 0, 71, 66
2, 51240, Note_on_c, 0, 74, 0
2, 51287, Control_c, 0, 64, 127
2, 51371, Note_on_c, 0, 28, 0
2, 51371, Note_on_c, 0, 71, 0
2, 51376, Note_on_c, 0, 80, 91
2, 51376, Note_on_c, 0, 71, 86
2, 51377, Note_on_c, 0, 68, 88
2, 51382, Note_on_c, 0, 28, 71
2, 51432, Note_on_c, 0, 28, 0
2, 51432, Note_on_c, 0, 80, 0
2, 51440, Note_on_c, 0, 40, 0
2, 51440, Note_on_c, 0, 68, 0
2, 51443, Note_on_c, 0, 80, 102
2, 51444, Note_on_c, 0, 28, 71
2, 51445, Note_on_c, 0, 68, 91
2, 51445, Note_on_c, 0, 40, 85
2, 51456, Note_on_c, 0, 71, 0
2, 51467, Note_on_c, 0, 71, 72
2, 51470, Note_on_c, 0, 76, 51
2, 51609, Note_on_c, 0, 28, 0
2, 51609, Note_on_c, 0, 40, 0
2, 51609, Note_on_c, 0, 68, 0
2, 51615, Note_on_c, 0, 40, 59
2, 51618, Note_on_c, 0, 68, 57
2, 51621, Note_on_c, 0, 28, 47
2, 51717, Note_on_c, 0, 66, 0
2, 51717, Note_on_c, 0, 78, 0
2, 51722, Note_on_c, 0, 78, 96
2, 51724, Note_on_c, 0, 40, 0
2, 51727, Note_on_c, 0, 66, 103
2, 51735, Note_on_c, 0, 40, 80
2, 51740, Note_on_c, 0, 28, 0
2, 51751, Note_on_c, 0, 28, 71
2, 51821, Note_on_c, 0, 66, 0
2, 51821, Note_on_c, 0, 80, 0
2, 51821, Note_on_c, 0, 68, 0
2, 51822, Note_on_c, 0, 71, 0
2, 51823, Note_on_c, 0, 78, 0
2, 51824, Note_on_c, 0, 75, 0
2, 51828, Control_c, 0, 64, 0
2, 51847, Note_on_c, 0, 76, 0
2, 51878, Note_on_c, 0, 28, 0
2, 51878, Note_on_c, 0, 40, 0
2, 51888, Note_on_c, 0, 80, 103
2, 51889, Note_on_c, 0, 40, 97
2, 51889, Note_on_c, 0, 28, 88
2, 51889, Note_on_c, 0, 68, 103
2, 51889, Note_on_c, 0, 71, 88
2, 51923, Note_on_c, 0, 68, 0
2, 51955, Control_c, 0, 64, 127
2, 52039, Note_on_c, 0, 28, 0
2, 52039, Note_on_c, 0, 40, 0
2, 52044, Note_on_c, 0, 40, 70
2, 52049, Note_on_c, 0, 28, 66
2, 52056, Note_on_c, 0, 82, 94
2, 52062, Note_on_c, 0, 70, 80
2, 52070, Note_on_c, 0, 80, 0
2, 52077, Note_on_c, 0, 80, 61
2, 52139, Note_on_c, 0, 40, 0
2, 52143, Note_on_c, 0, 40, 73
2, 52146, Note_on_c, 0, 47, 73
2, 52216, Note_on_c, 0, 71, 0
2, 52218, Note_on_c, 0, 83, 103
2, 52220, Note_on_c, 0, 71, 89
2, 52270, Note_on_c, 0, 28, 0
2, 52270, Note_on_c, 0, 40, 0
2, 52278, Note_on_c, 0, 40, 77
2, 52280, Note_on_c, 0, 28, 75
2, 52369, Note_on_c, 0, 80, 0
2, 52375, Note_on_c, 0, 85, 101
2, 52377, Note_on_c, 0, 28, 0
2, 52377, Note_on_c, 0, 40, 0
2, 52379, Note_on_c, 0, 80, 82
2, 52380, Note_on_c, 0, 73, 100
2, 52385, Note_on_c, 0, 82, 0
2, 52386, Note_on_c, 0, 40, 91
2, 52387, Note_on_c, 0, 28, 88
2, 52387, Note_on_c, 0, 34, 78
2, 52389, Note_on_c, 0, 82, 72
2, 52392, Note_on_c, 0, 34, 0
2, 52396, Note_on_c, 0, 37, 73
2, 52400, Note_on_c, 0, 37, 0
2, 52435, Note_on_c, 0, 40, 0
2, 52436, Note_on_c, 0, 80, 0
2, 52437, Note_on_c, 0, 70, 0
2, 52437, Note_on_c, 0, 82, 0
2, 52439, Note_on_c, 0, 71, 0
2, 52440, Note_on_c, 0, 73, 0
2, 52440, Note_on_c, 0, 83, 0
2, 52441, Note_on_c, 0, 85, 0
2, 52446, Note_on_c, 0, 47, 0
2, 52450, Control_c, 0, 64, 0
2, 52462, Note_on_c, 0, 28, 0
2, 52533, Note_on_c, 0, 82, 106
2, 52537, Note_on_c, 0, 30, 94
2, 52540, Note_on_c, 0, 73, 103
2, 52544, Note_on_c, 0, 70, 98
2, 52571, Note_on_c, 0, 82, 0
2, 52600, Control_c, 0, 64, 127
2, 52820, Note_on_c, 0, 42, 63
2, 52882, Note_on_c, 0, 68, 97
2, 52886, Note_on_c, 0, 78, 100
2, 52889, Note_on_c, 0, 66, 91
2, 52904, Note_on_c, 0, 58, 72
2, 52915, Note_on_c, 0, 46, 53
2, 53032, Note_on_c, 0, 49, 72
2, 53148, Control_c, 0, 64, 0
2, 53148, Note_on_c, 0, 42, 0
2, 53149, Note_on_c, 0, 66, 0
2, 53149, Note_on_c, 0, 68, 0
2, 53149, Note_on_c, 0, 49, 0
2, 53149, Note_on_c, 0, 58, 0
2, 53149, Note_on_c, 0, 70, 0
2, 53149, Note_on_c, 0, 78, 0
2, 53153, Note_on_c, 0, 73, 0
2, 53160, Note_on_c, 0, 30, 0
2, 53160, Note_on_c, 0, 46, 0
2, 53187, Note_on_c, 0, 88, 104
2, 53190, Note_on_c, 0, 42, 91
2, 53191, Note_on_c, 0, 30, 93
2, 53193, Note_on_c, 0, 76, 103
2, 53195, Note_on_c, 0, 82, 92
2, 53195, Note_on_c, 0, 78, 98
2, 53195, Note_on_c, 0, 84, 89
2, 53202, Note_on_c, 0, 32, 81
2, 53207, Note_on_c, 0, 32, 0
2, 53207, Note_on_c, 0, 84, 0
2, 53253, Control_c, 0, 64, 127
2, 53276, Note_on_c, 0, 30, 0
2, 53329, Note_on_c, 0, 42, 0
2, 53338, Note_on_c, 0, 42, 67
2, 53423, Note_on_c, 0, 49, 72
2, 53521, Note_on_c, 0, 42, 0
2, 53521, Note_on_c, 0, 78, 0
2, 53521, Note_on_c, 0, 82, 0
2, 53525, Note_on_c, 0, 85, 104
2, 53526, Note_on_c, 0, 73, 101
2, 53527, Note_on_c, 0, 82, 95
2, 53529, Note_on_c, 0, 78, 92
2, 53532, Note_on_c, 0, 42, 64
2, 53568, Note_on_c, 0, 49, 0
2, 53572, Note_on_c, 0, 49, 69
2, 53773, Note_on_c, 0, 49, 0
2, 53773, Note_on_c, 0, 42, 0
2, 53773, Note_on_c, 0, 85, 0
2, 53773, Note_on_c, 0, 88, 0
2, 53774, Note_on_c, 0, 73, 0
2, 53774, Note_on_c, 0, 78, 0
2, 53774, Note_on_c, 0, 76, 0
2, 53775, Note_on_c, 0, 82, 0
2, 53776, Control_c, 0, 64, 0
2, 53847, Note_on_c, 0, 85, 109
2, 53848, Note_on_c, 0, 42, 87
2, 53848, Note_on_c, 0, 78, 103
2, 53848, Note_on_c, 0, 73, 101
2, 53848, Note_on_c, 0, 39, 81
2, 53851, Note_on_c, 0, 47, 88
2, 53852, Note_on_c, 0, 35, 84
2, 53859, Note_on_c, 0, 39, 0
2, 53875, Control_c, 0, 64, 127
2, 53990, Note_on_c, 0, 47, 0
2, 53999, Note_on_c, 0, 47, 83
2, 54090, Note_on_c, 0, 73, 0
2, 54090, Note_on_c, 0, 78, 0
2, 54090, Note_on_c, 0, 85, 0
2, 54097, Note_on_c, 0, 42, 0
2, 54098, Note_on_c, 0, 85, 101
2, 54099, Note_on_c, 0, 73, 97
2, 54101, Note_on_c, 0, 78, 72
2, 54102, Note_on_c, 0, 42, 69
2, 54107, Note_on_c, 0, 54, 76
2, 54243, Note_on_c, 0, 47, 0
2, 54249, Note_on_c, 0, 47, 72
2, 54327, Note_on_c, 0, 59, 89
2, 54343, Note_on_c, 0, 78, 0
2, 54352, Note_on_c, 0, 87, 105
2, 54354, Note_on_c, 0, 78, 101
2, 54355, Note_on_c, 0, 75, 97
2, 54393, Note_on_c, 0, 54, 0
2, 54393, Note_on_c, 0, 73, 0
2, 54394, Note_on_c, 0, 47, 0
2, 54395, Control_c, 0, 64, 0
2, 54397, Note_on_c, 0, 42, 0
2, 54405, Note_on_c, 0, 35, 0
2, 54443, Note_on_c, 0, 59, 0
2, 54497, Control_c, 0, 64, 127
2, 54503, Note_on_c, 0, 34, 101
2, 54503, Note_on_c, 0, 46, 100
2, 54669, Note_on_c, 0, 83, 97
2, 54678, Note_on_c, 0, 71, 85
2, 54688, Note_on_c, 0, 58, 78
2, 54833, Note_on_c, 0, 54, 71
2, 54838, Note_on_c, 0, 82, 103
2, 54847, Note_on_c, 0, 70, 93
2, 54865, Note_on_c, 0, 71, 0
2, 54870, Note_on_c, 0, 71, 56
2, 54965, Note_on_c, 0, 46, 0
2, 54971, Note_on_c, 0, 46, 73
2, 54981, Note_on_c, 0, 78, 0
2, 54991, Note_on_c, 0, 66, 94
2, 54991, Note_on_c, 0, 78, 101
2, 55042, Note_on_c, 0, 85, 0
2, 55093, Note_on_c, 0, 71, 0
2, 55093, Note_on_c, 0, 83, 0
2, 55093, Note_on_c, 0, 82, 0
2, 55094, Note_on_c, 0, 46, 0
2, 55094, Note_on_c, 0, 54, 0
2, 55094, Note_on_c, 0, 78, 0
2, 55094, Note_on_c, 0, 75, 0
2, 55094, Note_on_c, 0, 58, 0
2, 55094, Note_on_c, 0, 34, 0
2, 55094, Note_on_c, 0, 66, 0
2, 55094, Note_on_c, 0, 70, 0
2, 55094, Control_c, 0, 64, 0
2, 55096, Note_on_c, 0, 87, 0
2, 55158, Note_on_c, 0, 78, 112
2, 55159, Note_on_c, 0, 32, 96
2, 55160, Note_on_c, 0, 44, 101
2, 55161, Note_on_c, 0, 66, 105
2, 55173, Control_c, 0, 64, 127
2, 55319, Note_on_c, 0, 44, 0
2, 55325, Note_on_c, 0, 71, 79
2, 55329, Note_on_c, 0, 44, 82
2, 55330, Note_on_c, 0, 68, 81
2, 55332, Note_on_c, 0, 56, 73
2, 55388, Note_on_c, 0, 56, 0
2, 55388, Note_on_c, 0, 68, 0
2, 55388, Note_on_c, 0, 71, 0
2, 55389, Note_on_c, 0, 80, 101
2, 55392, Note_on_c, 0, 68, 94
2, 55394, Note_on_c, 0, 71, 84
2, 55394, Note_on_c, 0, 56, 84
2, 55664, Note_on_c, 0, 56, 0
2, 55664, Note_on_c, 0, 66, 0
2, 55664, Note_on_c, 0, 68, 0
2, 55664, Note_on_c, 0, 78, 0
2, 55666, Note_on_c, 0, 63, 72
2, 55668, Note_on_c, 0, 56, 66
2, 55669, Note_on_c, 0, 51, 72
2, 55669, Note_on_c, 0, 78, 102
2, 55669, Note_on_c, 0, 66, 98
2, 55670, Note_on_c, 0, 44, 0
2, 55672, Note_on_c, 0, 63, 0
2, 55675, Note_on_c, 0, 68, 80
2, 55777, Note_on_c, 0, 56, 0
2, 55778, Note_on_c, 0, 68, 0
2, 55778, Note_on_c, 0, 80, 0
2, 55780, Note_on_c, 0, 66, 0
2, 55780, Control_c, 0, 64, 0
2, 55795, Note_on_c, 0, 51, 0
2, 55802, Note_on_c, 0, 32, 0
2, 55802, Note_on_c, 0, 71, 0
2, 55818, Note_on_c, 0, 78, 0
2, 55822, Note_on_c, 0, 78, 105
2, 55826, Note_on_c, 0, 32, 95
2, 55827, Note_on_c, 0, 66, 100
2, 55827, Note_on_c, 0, 44, 99
2, 55864, Control_c, 0, 64, 127
2, 55978, Note_on_c, 0, 71, 82
2, 55980, Note_on_c, 0, 80, 90
2, 55981, Note_on_c, 0, 68, 89
2, 55983, Note_on_c, 0, 59, 73
2, 55990, Note_on_c, 0, 56, 72
2, 56048, Note_on_c, 0, 56, 0
2, 56048, Note_on_c, 0, 59, 0
2, 56048, Note_on_c, 0, 68, 0
2, 56048, Note_on_c, 0, 71, 0
2, 56048, Note_on_c, 0, 78, 0
2, 56052, Note_on_c, 0, 75, 69
2, 56053, Note_on_c, 0, 59, 74
2, 56053, Note_on_c, 0, 56, 86
2, 56053, Note_on_c, 0, 68, 90
2, 56054, Note_on_c, 0, 71, 77
2, 56058, Note_on_c, 0, 78, 72
2, 56202, Note_on_c, 0, 32, 0
2, 56202, Note_on_c, 0, 44, 0
2, 56202, Note_on_c, 0, 71, 0
2, 56209, Note_on_c, 0, 32, 81
2, 56210, Note_on_c, 0, 44, 84
2, 56213, Note_on_c, 0, 71, 74
2, 56302, Note_on_c, 0, 44, 0
2, 56302, Note_on_c, 0, 66, 0
2, 56302, Note_on_c, 0, 78, 0
2, 56306, Note_on_c, 0, 44, 80
2, 56309, Note_on_c, 0, 78, 100
2, 56309, Note_on_c, 0, 71, 0
2, 56312, Note_on_c, 0, 66, 101
2, 56312, Note_on_c, 0, 68, 0
2, 56314, Note_on_c, 0, 71, 64
2, 56415, Note_on_c, 0, 80, 0
2, 56416, Note_on_c, 0, 56, 0
2, 56416, Control_c, 0, 64, 0
2, 56416, Note_on_c, 0, 66, 0
2, 56417, Note_on_c, 0, 44, 0
2, 56417, Note_on_c, 0, 78, 0
2, 56418, Note_on_c, 0, 32, 0
2, 56424, Note_on_c, 0, 75, 0
2, 56432, Note_on_c, 0, 59, 0
2, 56432, Note_on_c, 0, 71, 0
2, 56474, Note_on_c, 0, 78, 105
2, 56475, Note_on_c, 0, 40, 96
2, 56476, Note_on_c, 0, 66, 104
2, 56480, Note_on_c, 0, 28, 90
2, 56482, Note_on_c, 0, 74, 88
2, 56517, Control_c, 0, 64, 127
2, 56624, Note_on_c, 0, 28, 0
2, 56632, Note_on_c, 0, 40, 0
2, 56633, Note_on_c, 0, 80, 96
2, 56634, Note_on_c, 0, 71, 86
2, 56635, Note_on_c, 0, 28, 74
2, 56635, Note_on_c, 0, 68, 87
2, 56638, Note_on_c, 0, 40, 82
2, 56693, Note_on_c, 0, 68, 0
2, 56701, Note_on_c, 0, 40, 0
2, 56701, Note_on_c, 0, 71, 0
2, 56703, Note_on_c, 0, 68, 102
2, 56705, Note_on_c, 0, 40, 86
2, 56710, Note_on_c, 0, 71, 78
2, 56711, Note_on_c, 0, 59, 83
2, 56716, Note_on_c, 0, 64, 80
2, 56718, Note_on_c, 0, 47, 67
2, 56724, Note_on_c, 0, 64, 0
2, 56954, Note_on_c, 0, 66, 0
2, 56954, Note_on_c, 0, 78, 0
2, 56960, Note_on_c, 0, 78, 99
2, 56962, Note_on_c, 0, 47, 0
2, 56964, Note_on_c, 0, 66, 98
2, 56967, Note_on_c, 0, 47, 76
2, 57074, Control_c, 0, 64, 0
2, 57074, Note_on_c, 0, 68, 0
2, 57074, Note_on_c, 0, 66, 0
2, 57074, Note_on_c, 0, 80, 0
2, 57074, Note_on_c, 0, 71, 0
2, 57075, Note_on_c, 0, 59, 0
2, 57075, Note_on_c, 0, 47, 0
2, 57076, Note_on_c, 0, 78, 0
2, 57085, Note_on_c, 0, 74, 0
2, 57116, Note_on_c, 0, 28, 0
2, 57116, Note_on_c, 0, 40, 0
2, 57121, Note_on_c, 0, 80, 95
2, 57121, Note_on_c, 0, 68, 96
2, 57122, Note_on_c, 0, 40, 97
2, 57123, Note_on_c, 0, 28, 85
2, 57128, Note_on_c, 0, 71, 67
2, 57150, Note_on_c, 0, 78, 55
2, 57192, Control_c, 0, 64, 127
2, 57208, Note_on_c, 0, 68, 0
2, 57277, Note_on_c, 0, 40, 0
2, 57287, Note_on_c, 0, 40, 77
2, 57289, Note_on_c, 0, 82, 99
2, 57295, Note_on_c, 0, 70, 82
2, 57361, Note_on_c, 0, 40, 0
2, 57367, Note_on_c, 0, 47, 81
2, 57372, Note_on_c, 0, 40, 78
2, 57454, Note_on_c, 0, 28, 0
2, 57454, Note_on_c, 0, 71, 0
2, 57456, Note_on_c, 0, 83, 100
2, 57461, Note_on_c, 0, 40, 0
2, 57461, Note_on_c, 0, 80, 0
2, 57464, Note_on_c, 0, 71, 78
2, 57465, Note_on_c, 0, 28, 81
2, 57465, Note_on_c, 0, 80, 55
2, 57466, Note_on_c, 0, 40, 73
2, 57523, Note_on_c, 0, 28, 0
2, 57523, Note_on_c, 0, 40, 0
2, 57527, Note_on_c, 0, 40, 92
2, 57528, Note_on_c, 0, 28, 80
2, 57619, Note_on_c, 0, 85, 101
2, 57621, Note_on_c, 0, 73, 95
2, 57675, Note_on_c, 0, 40, 0
2, 57676, Note_on_c, 0, 80, 0
2, 57676, Note_on_c, 0, 47, 0
2, 57676, Note_on_c, 0, 82, 0
2, 57677, Note_on_c, 0, 71, 0
2, 57677, Note_on_c, 0, 83, 0
2, 57677, Note_on_c, 0, 70, 0
2, 57679, Note_on_c, 0, 73, 0
2, 57680, Control_c, 0, 64, 0
2, 57680, Note_on_c, 0, 85, 0
2, 57684, Note_on_c, 0, 78, 0
2, 57692, Note_on_c, 0, 28, 0
2, 57773, Note_on_c, 0, 80, 106
2, 57779, Note_on_c, 0, 68, 104
2, 57780, Note_on_c, 0, 37, 91
2, 57780, Note_on_c, 0, 73, 93
2, 57781, Note_on_c, 0, 25, 85
2, 57785, Note_on_c, 0, 76, 92
2, 57792, Note_on_c, 0, 25, 0
2, 57815, Control_c, 0, 64, 127
2, 58007, Note_on_c, 0, 68, 0
2, 58007, Note_on_c, 0, 49, 69
2, 58011, Note_on_c, 0, 68, 76
2, 58011, Note_on_c, 0, 52, 74
2, 58012, Note_on_c, 0, 61, 77
2, 58016, Note_on_c, 0, 56, 83
2, 58268, Note_on_c, 0, 56, 0
2, 58268, Note_on_c, 0, 61, 0
2, 58268, Note_on_c, 0, 68, 0
2, 58275, Note_on_c, 0, 68, 77
2, 58275, Note_on_c, 0, 52, 0
2, 58277, Note_on_c, 0, 49, 0
2, 58277, Note_on_c, 0, 61, 85
2, 58278, Note_on_c, 0, 56, 80
2, 58280, Note_on_c, 0, 52, 66
2, 58383, Note_on_c, 0, 37, 0
2, 58401, Control_c, 0, 64, 0
2, 58401, Note_on_c, 0, 80, 0
2, 58401, Note_on_c, 0, 73, 0
2, 58401, Note_on_c, 0, 68, 0
2, 58402, Note_on_c, 0, 52, 0
2, 58402, Note_on_c, 0, 61, 0
2, 58402, Note_on_c, 0, 76, 0
2, 58414, Note_on_c, 0, 56, 0
2, 58448, Note_on_c, 0, 80, 96
2, 58449, Note_on_c, 0, 37, 94
2, 58449, Note_on_c, 0, 73, 96
2, 58449, Note_on_c, 0, 68, 94
2, 58498, Control_c, 0, 64, 127
2, 58603, Note_on_c, 0, 61, 82
2, 58609, Note_on_c, 0, 52, 53
2, 58610, Note_on_c, 0, 58, 81
2, 58613, Note_on_c, 0, 82, 100
2, 58616, Note_on_c, 0, 56, 64
2, 58624, Note_on_c, 0, 70, 87
2, 58690, Note_on_c, 0, 68, 0
2, 58698, Note_on_c, 0, 52, 0
2, 58698, Note_on_c, 0, 56, 0
2, 58698, Note_on_c, 0, 61, 0
2, 58700, Note_on_c, 0, 68, 86
2, 58704, Note_on_c, 0, 49, 77
2, 58704, Note_on_c, 0, 56, 81
2, 58706, Note_on_c, 0, 52, 79
2, 58709, Note_on_c, 0, 61, 79
2, 58763, Note_on_c, 0, 83, 103
2, 58769, Note_on_c, 0, 71, 82
2, 58890, Note_on_c, 0, 56, 0
2, 58890, Note_on_c, 0, 61, 0
2, 58895, Note_on_c, 0, 56, 81
2, 58897, Note_on_c, 0, 68, 0
2, 58901, Note_on_c, 0, 61, 70
2, 58902, Note_on_c, 0, 68, 83
2, 58902, Note_on_c, 0, 64, 67
2, 58905, Note_on_c, 0, 52, 0
2, 58908, Note_on_c, 0, 49, 0
2, 58910, Note_on_c, 0, 52, 65
2, 58913, Note_on_c, 0, 37, 0
2, 58913, Note_on_c, 0, 64, 0
2, 58928, Note_on_c, 0, 73, 0
2, 58929, Note_on_c, 0, 85, 105
2, 58932, Note_on_c, 0, 73, 101
2, 59042, Note_on_c, 0, 68, 0
2, 59042, Control_c, 0, 64, 0
2, 59042, Note_on_c, 0, 80, 0
2, 59043, Note_on_c, 0, 83, 0
2, 59043, Note_on_c, 0, 71, 0
2, 59043, Note_on_c, 0, 73, 0
2, 59044, Note_on_c, 0, 56, 0
2, 59044, Note_on_c, 0, 52, 0
2, 59044, Note_on_c, 0, 85, 0
2, 59044, Note_on_c, 0, 58, 0
2, 59044, Note_on_c, 0, 70, 0
2, 59044, Note_on_c, 0, 82, 0
2, 59059, Note_on_c, 0, 61, 0
2, 59071, Note_on_c, 0, 39, 96
2, 59092, Note_on_c, 0, 82, 109
2, 59093, Note_on_c, 0, 73, 106
2, 59094, Note_on_c, 0, 79, 77
2, 59096, Note_on_c, 0, 70, 101
2, 59136, Control_c, 0, 64, 127
2, 59326, Note_on_c, 0, 78, 105
2, 59327, Note_on_c, 0, 51, 71
2, 59331, Note_on_c, 0, 66, 104
2, 59344, Note_on_c, 0, 54, 67
2, 59439, Note_on_c, 0, 58, 84
2, 59462, Note_on_c, 0, 63, 43
2, 59571, Note_on_c, 0, 75, 110
2, 59601, Note_on_c, 0, 67, 76
2, 59712, Note_on_c, 0, 75, 0
2, 59723, Note_on_c, 0, 75, 92
2, 59727, Note_on_c, 0, 58, 0
2, 59731, Note_on_c, 0, 58, 43
2, 59788, Note_on_c, 0, 66, 0
2, 59795, Note_on_c, 0, 66, 95
2, 59880, Note_on_c, 0, 63, 0
2, 59884, Note_on_c, 0, 63, 84
2, 59892, Note_on_c, 0, 95, 99
2, 59898, Note_on_c, 0, 83, 96
2, 59942, Note_on_c, 0, 58, 0
2, 59949, Note_on_c, 0, 58, 84
2, 60057, Note_on_c, 0, 58, 0
2, 60057, Note_on_c, 0, 82, 0
2, 60058, Note_on_c, 0, 94, 111
2, 60062, Note_on_c, 0, 82, 104
2, 60069, Note_on_c, 0, 58, 80
2, 60072, Note_on_c, 0, 51, 0
2, 60084, Note_on_c, 0, 51, 76
2, 60211, Note_on_c, 0, 78, 0
2, 60215, Note_on_c, 0, 90, 109
2, 60216, Note_on_c, 0, 78, 107
2, 60288, Note_on_c, 0, 39, 0
2, 60292, Note_on_c, 0, 67, 0
2, 60292, Note_on_c, 0, 63, 0
2, 60292, Note_on_c, 0, 83, 0
2, 60293, Note_on_c, 0, 58, 0
2, 60293, Note_on_c, 0, 95, 0
2, 60293, Note_on_c, 0, 66, 0
2, 60293, Note_on_c, 0, 82, 0
2, 60293, Note_on_c, 0, 39, 57
2, 60293, Note_on_c, 0, 51, 0
2, 60293, Note_on_c, 0, 78, 0
2, 60294, Note_on_c, 0, 73, 0
2, 60294, Note_on_c, 0, 70, 0
2, 60295, Note_on_c, 0, 90, 0
2, 60295, Note_on_c, 0, 79, 0
2, 60298, Control_c, 0, 64, 0
2, 60311, Note_on_c, 0, 54, 0
2, 60311, Note_on_c, 0, 75, 0
2, 60311, Note_on_c, 0, 94, 0
2, 60318, Note_on_c, 0, 39, 0
2, 60375, Note_on_c, 0, 32, 94
2, 60378, Note_on_c, 0, 90, 114
2, 60380, Note_on_c, 0, 44, 98
2, 60381, Note_on_c, 0, 78, 112
2, 60410, Control_c, 0, 64, 127
2, 60541, Note_on_c, 0, 44, 0
2, 60543, Note_on_c, 0, 80, 97
2, 60544, Note_on_c, 0, 83, 92
2, 60547, Note_on_c, 0, 92, 97
2, 60548, Note_on_c, 0, 44, 88
2, 60595, Note_on_c, 0, 80, 0
2, 60602, Note_on_c, 0, 83, 0
2, 60602, Note_on_c, 0, 92, 0
2, 60606, Note_on_c, 0, 80, 106
2, 60607, Note_on_c, 0, 92, 110
2, 60608, Note_on_c, 0, 83, 98
2, 60648, Note_on_c, 0, 51, 81
2, 60764, Note_on_c, 0, 44, 0
2, 60768, Note_on_c, 0, 44, 76
2, 60856, Note_on_c, 0, 56, 85
2, 60864, Note_on_c, 0, 51, 0
2, 60864, Note_on_c, 0, 78, 0
2, 60864, Note_on_c, 0, 90, 0
2, 60871, Note_on_c, 0, 51, 75
2, 60875, Note_on_c, 0, 90, 101
2, 60875, Note_on_c, 0, 78, 101
2, 60979, Note_on_c, 0, 83, 0
2, 60980, Note_on_c, 0, 78, 0
2, 60980, Note_on_c, 0, 92, 0
2, 60981, Note_on_c, 0, 56, 0
2, 60981, Control_c, 0, 64, 0
2, 60994, Note_on_c, 0, 80, 0
2, 61002, Note_on_c, 0, 44, 0
2, 61009, Note_on_c, 0, 51, 0
2, 61017, Note_on_c, 0, 32, 0
2, 61017, Note_on_c, 0, 90, 0
2, 61024, Note_on_c, 0, 32, 93
2, 61029, Note_on_c, 0, 90, 108
2, 61030, Note_on_c, 0, 78, 108
2, 61063, Control_c, 0, 64, 127
2, 61197, Note_on_c, 0, 83, 92
2, 61198, Note_on_c, 0, 80, 98
2, 61200, Note_on_c, 0, 92, 96
2, 61255, Note_on_c, 0, 80, 0
2, 61255, Note_on_c, 0, 83, 0
2, 61255, Note_on_c, 0, 92, 0
2, 61263, Note_on_c, 0, 92, 109
2, 61266, Note_on_c, 0, 80, 101
2, 61266, Note_on_c, 0, 83, 96
2, 61278, Note_on_c, 0, 90, 0
2, 61287, Note_on_c, 0, 90, 61
2, 61288, Note_on_c, 0, 44, 82
2, 61290, Note_on_c, 0, 56, 84
2, 61295, Note_on_c, 0, 51, 79
2, 61440, Note_on_c, 0, 44, 0
2, 61444, Note_on_c, 0, 44, 78
2, 61516, Note_on_c, 0, 56, 0
2, 61516, Note_on_c, 0, 78, 0
2, 61516, Note_on_c, 0, 90, 0
2, 61522, Note_on_c, 0, 90, 104
2, 61522, Note_on_c, 0, 56, 86
2, 61522, Note_on_c, 0, 78, 103
2, 61524, Note_on_c, 0, 51, 0
2, 61531, Note_on_c, 0, 51, 84
2, 61643, Control_c, 0, 64, 0
2, 61644, Note_on_c, 0, 80, 0
2, 61644, Note_on_c, 0, 51, 0
2, 61644, Note_on_c, 0, 56, 0
2, 61644, Note_on_c, 0, 90, 0
2, 61645, Note_on_c, 0, 78, 0
2, 61645, Note_on_c, 0, 92, 0
2, 61655, Note_on_c, 0, 32, 0
2, 61655, Note_on_c, 0, 83, 0
2, 61662, Note_on_c, 0, 44, 0
2, 61697, Note_on_c, 0, 40, 90
2, 61701, Note_on_c, 0, 28, 81
2, 61702, Note_on_c, 0, 90, 115
2, 61704, Note_on_c, 0, 78, 110
2, 61747, Control_c, 0, 64, 127
2, 61854, Note_on_c, 0, 28, 0
2, 61854, Note_on_c, 0, 40, 0
2, 61859, Note_on_c, 0, 80, 91
2, 61864, Note_on_c, 0, 83, 86
2, 61865, Note_on_c, 0, 28, 74
2, 61865, Note_on_c, 0, 92, 91
2, 61865, Note_on_c, 0, 40, 83
2, 61923, Note_on_c, 0, 28, 0
2, 61923, Note_on_c, 0, 80, 0
2, 61923, Note_on_c, 0, 83, 0
2, 61923, Note_on_c, 0, 92, 0
2, 61927, Note_on_c, 0, 92, 104
2, 61928, Note_on_c, 0, 83, 104
2, 61929, Note_on_c, 0, 80, 101
2, 61935, Note_on_c, 0, 28, 61
2, 61939, Note_on_c, 0, 40, 0
2, 61943, Note_on_c, 0, 40, 77
2, 62085, Note_on_c, 0, 40, 0
2, 62096, Note_on_c, 0, 40, 59
2, 62192, Note_on_c, 0, 90, 0
2, 62200, Note_on_c, 0, 28, 0
2, 62200, Note_on_c, 0, 40, 0
2, 62200, Note_on_c, 0, 78, 0
2, 62203, Note_on_c, 0, 90, 108
2, 62204, Note_on_c, 0, 40, 79
2, 62204, Note_on_c, 0, 78, 105
2, 62211, Note_on_c, 0, 28, 68
2, 62309, Control_c, 0, 64, 0
2, 62325, Note_on_c, 0, 78, 0
2, 62326, Note_on_c, 0, 83, 0
2, 62326, Note_on_c, 0, 80, 0
2, 62353, Note_on_c, 0, 40, 0
2, 62361, Note_on_c, 0, 28, 0
2, 62361, Note_on_c, 0, 92, 0
2, 62364, Note_on_c, 0, 40, 102
2, 62365, Note_on_c, 0, 80, 100
2, 62365, Note_on_c, 0, 28, 92
2, 62365, Note_on_c, 0, 92, 106
2, 62368, Note_on_c, 0, 83, 91
2, 62371, Note_on_c, 0, 86, 77
2, 62376, Note_on_c, 0, 90, 0
2, 62381, Note_on_c, 0, 90, 69
2, 62415, Control_c, 0, 64, 127
2, 62536, Note_on_c, 0, 82, 101
2, 62538, Note_on_c, 0, 94, 107
2, 62545, Note_on_c, 0, 90, 0
2, 62554, Note_on_c, 0, 90, 70
2, 62635, Note_on_c, 0, 46, 80
2, 62691, Note_on_c, 0, 83, 0
2, 62702, Note_on_c, 0, 95, 101
2, 62703, Note_on_c, 0, 83, 101
2, 62780, Note_on_c, 0, 38, 70
2, 62868, Note_on_c, 0, 28, 0
2, 62868, Note_on_c, 0, 40, 0
2, 62871, Note_on_c, 0, 97, 107
2, 62873, Note_on_c, 0, 85, 104
2, 62873, Note_on_c, 0, 40, 80
2, 62876, Note_on_c, 0, 28, 74
2, 62943, Note_on_c, 0, 90, 0
2, 62943, Note_on_c, 0, 82, 0
2, 62943, Note_on_c, 0, 40, 0
2, 62943, Note_on_c, 0, 83, 0
2, 62944, Note_on_c, 0, 92, 0
2, 62944, Note_on_c, 0, 80, 0
2, 62944, Note_on_c, 0, 95, 0
2, 62944, Note_on_c, 0, 94, 0
2, 62945, Note_on_c, 0, 38, 0
2, 62946, Note_on_c, 0, 85, 0
2, 62946, Note_on_c, 0, 46, 0
2, 62946, Note_on_c, 0, 97, 0
2, 62947, Control_c, 0, 64, 0
2, 62960, Note_on_c, 0, 28, 0
2, 62960, Note_on_c, 0, 86, 0
2, 63028, Note_on_c, 0, 85, 98
2, 63030, Note_on_c, 0, 82, 105
2, 63031, Note_on_c, 0, 94, 99
2, 63031, Note_on_c, 0, 42, 97
2, 63032, Note_on_c, 0, 30, 93
2, 63033, Note_on_c, 0, 90, 82
2, 63075, Control_c, 0, 64, 127
2, 63232, Note_on_c, 0, 49, 71
2, 63344, Note_on_c, 0, 90, 0
2, 63355, Note_on_c, 0, 90, 110
2, 63356, Note_on_c, 0, 78, 101
2, 63363, Note_on_c, 0, 58, 82
2, 63498, Note_on_c, 0, 49, 0
2, 63503, Note_on_c, 0, 49, 83
2, 63642, Note_on_c, 0, 85, 0
2, 63642, Note_on_c, 0, 78, 0
2, 63645, Note_on_c, 0, 82, 0
2, 63645, Note_on_c, 0, 58, 0
2, 63652, Control_c, 0, 64, 0
2, 63670, Note_on_c, 0, 100, 110
2, 63674, Note_on_c, 0, 90, 0
2, 63674, Note_on_c, 0, 94, 0
2, 63676, Note_on_c, 0, 88, 106
2, 63680, Note_on_c, 0, 94, 95
2, 63685, Note_on_c, 0, 90, 102
2, 63705, Control_c, 0, 64, 127
2, 63838, Note_on_c, 0, 44, 72
2, 63889, Note_on_c, 0, 49, 0
2, 63901, Note_on_c, 0, 49, 71
2, 63997, Note_on_c, 0, 90, 0
2, 63997, Note_on_c, 0, 94, 0
2, 63997, Note_on_c, 0, 97, 105
2, 63999, Note_on_c, 0, 85, 108
2, 64001, Note_on_c, 0, 94, 90
2, 64002, Note_on_c, 0, 90, 89
2, 64012, Note_on_c, 0, 100, 0
2, 64043, Note_on_c, 0, 44, 0
2, 64151, Note_on_c, 0, 30, 0
2, 64151, Note_on_c, 0, 42, 0
2, 64159, Note_on_c, 0, 30, 73
2, 64160, Note_on_c, 0, 42, 77
2, 64161, Note_on_c, 0, 90, 0
2, 64278, Note_on_c, 0, 97, 0
2, 64278, Note_on_c, 0, 94, 0
2, 64278, Note_on_c, 0, 88, 0
2, 64279, Note_on_c, 0, 42, 0
2, 64280, Note_on_c, 0, 85, 0
2, 64283, Control_c, 0, 64, 0
2, 64289, Note_on_c, 0, 30, 0
2, 64289, Note_on_c, 0, 49, 0
2, 64330, Note_on_c, 0, 47, 100
2, 64334, Note_on_c, 0, 35, 88
2, 64337, Note_on_c, 0, 97, 108
2, 64339, Note_on_c, 0, 85, 105
2, 64339, Note_on_c, 0, 90, 105
2, 64342, Note_on_c, 0, 94, 87
2, 64373, Control_c, 0, 64, 127
2, 64573, Note_on_c, 0, 85, 0
2, 64573, Note_on_c, 0, 97, 0
2, 64581, Note_on_c, 0, 90, 0
2, 64581, Note_on_c, 0, 94, 0
2, 64583, Note_on_c, 0, 97, 107
2, 64584, Note_on_c, 0, 66, 81
2, 64584, Note_on_c, 0, 85, 104
2, 64585, Note_on_c, 0, 90, 86
2, 64588, Note_on_c, 0, 66, 0
2, 64591, Note_on_c, 0, 94, 74
2, 64707, Note_on_c, 0, 59, 69
2, 64711, Note_on_c, 0, 59, 0
2, 64834, Note_on_c, 0, 90, 0
2, 64838, Note_on_c, 0, 59, 80
2, 64839, Note_on_c, 0, 99, 111
2, 64840, Note_on_c, 0, 87, 101
2, 64841, Note_on_c, 0, 90, 104
2, 64846, Note_on_c, 0, 66, 85
2, 64925, Note_on_c, 0, 97, 0
2, 64925, Note_on_c, 0, 85, 0
2, 64926, Control_c, 0, 64, 0
2, 64934, Note_on_c, 0, 35, 0
2, 64934, Note_on_c, 0, 47, 0
2, 64934, Note_on_c, 0, 66, 0
2, 64942, Note_on_c, 0, 59, 0
2, 64993, Note_on_c, 0, 34, 99
2, 64994, Note_on_c, 0, 46, 101
2, 65018, Control_c, 0, 64, 127
2, 65166, Note_on_c, 0, 95, 101
2, 65169, Note_on_c, 0, 83, 96
2, 65175, Note_on_c, 0, 58, 80
2, 65310, Note_on_c, 0, 54, 81
2, 65326, Note_on_c, 0, 94, 0
2, 65336, Note_on_c, 0, 94, 105
2, 65337, Note_on_c, 0, 82, 101
2, 65456, Note_on_c, 0, 46, 0
2, 65462, Note_on_c, 0, 46, 95
2, 65464, Note_on_c, 0, 34, 0
2, 65469, Note_on_c, 0, 34, 86
2, 65472, Note_on_c, 0, 90, 0
2, 65478, Note_on_c, 0, 78, 107
2, 65479, Note_on_c, 0, 90, 108
2, 65592, Note_on_c, 0, 95, 0
2, 65594, Note_on_c, 0, 94, 0
2, 65594, Note_on_c, 0, 83, 0
2, 65594, Note_on_c, 0, 99, 0
2, 65595, Note_on_c, 0, 82, 0
2, 65595, Note_on_c, 0, 34, 0
2, 65596, Note_on_c, 0, 46, 0
2, 65596, Note_on_c, 0, 54, 0
2, 65596, Note_on_c, 0, 90, 0
2, 65596, Note_on_c, 0, 58, 0
2, 65598, Note_on_c, 0, 78, 0
2, 65607, Control_c, 0, 64, 0
2, 65610, Note_on_c, 0, 87, 0
2, 65645, Note_on_c, 0, 32, 91
2, 65646, Note_on_c, 0, 78, 107
2, 65646, Note_on_c, 0, 90, 113
2, 65658, Note_on_c, 0, 34, 84
2, 65679, Control_c, 0, 64, 127
2, 65805, Note_on_c, 0, 80, 101
2, 65807, Note_on_c, 0, 83, 97
2, 65809, Note_on_c, 0, 32, 0
2, 65814, Note_on_c, 0, 92, 96
2, 65820, Note_on_c, 0, 32, 86
2, 65871, Note_on_c, 0, 92, 0
2, 65879, Note_on_c, 0, 80, 0
2, 65879, Note_on_c, 0, 83, 0
2, 65880, Note_on_c, 0, 92, 96
2, 65882, Note_on_c, 0, 83, 89
2, 65883, Note_on_c, 0, 80, 93
2, 66048, Note_on_c, 0, 44, 86
2, 66132, Note_on_c, 0, 32, 0
2, 66132, Note_on_c, 0, 44, 0
2, 66132, Note_on_c, 0, 78, 0
2, 66132, Note_on_c, 0, 90, 0
2, 66136, Note_on_c, 0, 44, 83
2, 66139, Note_on_c, 0, 78, 100
2, 66141, Note_on_c, 0, 90, 106
2, 66141, Note_on_c, 0, 32, 83
2, 66266, Note_on_c, 0, 83, 0
2, 66266, Note_on_c, 0, 92, 0
2, 66267, Note_on_c, 0, 80, 0
2, 66269, Control_c, 0, 64, 0
2, 66286, Note_on_c, 0, 32, 0
2, 66286, Note_on_c, 0, 34, 0
2, 66286, Note_on_c, 0, 44, 0
2, 66293, Note_on_c, 0, 78, 0
2, 66293, Note_on_c, 0, 90, 0
2, 66296, Note_on_c, 0, 32, 94
2, 66296, Note_on_c, 0, 44, 97
2, 66304, Note_on_c, 0, 78, 100
2, 66305, Note_on_c, 0, 90, 105
2, 66311, Note_on_c, 0, 86, 82
2, 66347, Note_on_c, 0, 44, 0
2, 66355, Control_c, 0, 64, 127
2, 66463, Note_on_c, 0, 83, 87
2, 66464, Note_on_c, 0, 92, 98
2, 66465, Note_on_c, 0, 80, 95
2, 66470, Note_on_c, 0, 90, 0
2, 66474, Note_on_c, 0, 90, 73
2, 66524, Note_on_c, 0, 80, 0
2, 66524, Note_on_c, 0, 83, 0
2, 66524, Note_on_c, 0, 92, 0
2, 66531, Note_on_c, 0, 51, 87
2, 66531, Note_on_c, 0, 56, 87
2, 66532, Note_on_c, 0, 83, 99
2, 66533, Note_on_c, 0, 80, 93
2, 66534, Note_on_c, 0, 92, 100
2, 66697, Note_on_c, 0, 44, 82
2, 66785, Note_on_c, 0, 78, 0
2, 66785, Note_on_c, 0, 90, 0
2, 66792, Note_on_c, 0, 32, 0
2, 66792, Note_on_c, 0, 44, 0
2, 66796, Note_on_c, 0, 78, 105
2, 66796, Note_on_c, 0, 90, 111
2, 66798, Note_on_c, 0, 44, 78
2, 66799, Note_on_c, 0, 32, 79
2, 66804, Note_on_c, 0, 87, 75
2, 66915, Note_on_c, 0, 86, 0
2, 66920, Note_on_c, 0, 44, 0
2, 66920, Note_on_c, 0, 32, 0
2, 66920, Note_on_c, 0, 83, 0
2, 66920, Note_on_c, 0, 87, 0
2, 66921, Note_on_c, 0, 92, 0
2, 66921, Note_on_c, 0, 51, 0
2, 66922, Note_on_c, 0, 80, 0
2, 66927, Control_c, 0, 64, 0
2, 66938, Note_on_c, 0, 78, 0
2, 66946, Note_on_c, 0, 56, 0
2, 66954, Note_on_c, 0, 90, 0
2, 66959, Note_on_c, 0, 40, 92
2, 66964, Note_on_c, 0, 28, 84
2, 66965, Note_on_c, 0, 90, 107
2, 66968, Note_on_c, 0, 78, 100
2, 67008, Control_c, 0, 64, 127
2, 67119, Note_on_c, 0, 80, 97
2, 67123, Note_on_c, 0, 28, 0
2, 67123, Note_on_c, 0, 40, 0
2, 67125, Note_on_c, 0, 92, 101
2, 67126, Note_on_c, 0, 83, 91
2, 67128, Note_on_c, 0, 40, 87
2, 67128, Note_on_c, 0, 28, 82
2, 67131, Note_on_c, 0, 88, 66
2, 67184, Note_on_c, 0, 28, 0
2, 67184, Note_on_c, 0, 83, 0
2, 67184, Note_on_c, 0, 92, 0
2, 67192, Note_on_c, 0, 28, 48
2, 67194, Note_on_c, 0, 83, 98
2, 67196, Note_on_c, 0, 92, 104
2, 67353, Note_on_c, 0, 40, 0
2, 67361, Note_on_c, 0, 40, 65
2, 67438, Note_on_c, 0, 78, 0
2, 67438, Note_on_c, 0, 90, 0
2, 67445, Note_on_c, 0, 40, 0
2, 67446, Note_on_c, 0, 90, 108
2, 67447, Note_on_c, 0, 78, 104
2, 67454, Note_on_c, 0, 40, 82
2, 67456, Note_on_c, 0, 52, 87
2, 67461, Note_on_c, 0, 87, 66
2, 67555, Control_c, 0, 64, 0
2, 67556, Note_on_c, 0, 83, 0
2, 67557, Note_on_c, 0, 90, 0
2, 67557, Note_on_c, 0, 92, 0
2, 67557, Note_on_c, 0, 80, 0
2, 67557, Note_on_c, 0, 40, 0
2, 67557, Note_on_c, 0, 78, 0
2, 67558, Note_on_c, 0, 87, 0
2, 67558, Note_on_c, 0, 52, 0
2, 67568, Note_on_c, 0, 28, 0
2, 67568, Note_on_c, 0, 88, 0
2, 67608, Note_on_c, 0, 40, 91
2, 67608, Note_on_c, 0, 92, 112
2, 67610, Note_on_c, 0, 28, 85
2, 67610, Note_on_c, 0, 83, 95
2, 67611, Note_on_c, 0, 80, 100
2, 67612, Note_on_c, 0, 30, 77
2, 67622, Note_on_c, 0, 30, 0
2, 67624, Note_on_c, 0, 90, 86
2, 67637, Control_c, 0, 64, 127
2, 67790, Note_on_c, 0, 94, 100
2, 67791, Note_on_c, 0, 82, 87
2, 67860, Note_on_c, 0, 47, 84
2, 67864, Note_on_c, 0, 52, 80
2, 67952, Note_on_c, 0, 83, 0
2, 67958, Note_on_c, 0, 83, 95
2, 67959, Note_on_c, 0, 95, 100
2, 67983, Note_on_c, 0, 28, 0
2, 67983, Note_on_c, 0, 40, 0
2, 67994, Note_on_c, 0, 28, 79
2, 67994, Note_on_c, 0, 40, 89
2, 68098, Note_on_c, 0, 47, 0
2, 68101, Note_on_c, 0, 52, 0
2, 68103, Note_on_c, 0, 47, 88
2, 68104, Note_on_c, 0, 35, 79
2, 68110, Note_on_c, 0, 97, 105
2, 68115, Note_on_c, 0, 85, 104
2, 68194, Note_on_c, 0, 82, 0
2, 68195, Note_on_c, 0, 40, 0
2, 68195, Note_on_c, 0, 47, 0
2, 68195, Note_on_c, 0, 94, 0
2, 68195, Control_c, 0, 64, 0
2, 68197, Note_on_c, 0, 85, 0
2, 68197, Note_on_c, 0, 92, 0
2, 68197, Note_on_c, 0, 80, 0
2, 68197, Note_on_c, 0, 95, 0
2, 68198, Note_on_c, 0, 35, 0
2, 68206, Note_on_c, 0, 28, 0
2, 68206, Note_on_c, 0, 90, 0
2, 68213, Note_on_c, 0, 97, 0
2, 68221, Note_on_c, 0, 83, 0
2, 68270, Note_on_c, 0, 92, 109
2, 68271, Note_on_c, 0, 80, 111
2, 68272, Note_on_c, 0, 85, 99
2, 68273, Note_on_c, 0, 37, 90
2, 68273, Note_on_c, 0, 88, 94
2, 68290, Control_c, 0, 64, 127
2, 68502, Note_on_c, 0, 52, 76
2, 68503, Note_on_c, 0, 56, 84
2, 68504, Note_on_c, 0, 61, 88
2, 68674, Note_on_c, 0, 56, 0
2, 68684, Note_on_c, 0, 56, 66
2, 68751, Note_on_c, 0, 61, 0
2, 68759, Note_on_c, 0, 52, 0
2, 68759, Note_on_c, 0, 56, 0
2, 68762, Note_on_c, 0, 61, 83
2, 68763, Note_on_c, 0, 56, 85
2, 68769, Note_on_c, 0, 52, 63
2, 68907, Control_c, 0, 64, 0
2, 68908, Note_on_c, 0, 88, 0
2, 68908, Note_on_c, 0, 56, 0
2, 68920, Note_on_c, 0, 61, 0
2, 68935, Note_on_c, 0, 37, 0
2, 68935, Note_on_c, 0, 52, 0
2, 68943, Note_on_c, 0, 80, 0
2, 68943, Note_on_c, 0, 85, 0
2, 68943, Note_on_c, 0, 92, 0
2, 68945, Note_on_c, 0, 37, 97
2, 68947, Note_on_c, 0, 80, 104
2, 68947, Note_on_c, 0, 85, 103
2, 68947, Note_on_c, 0, 92, 106
2, 68989, Control_c, 0, 64, 127
2, 69110, Note_on_c, 0, 94, 104
2, 69114, Note_on_c, 0, 82, 94
2, 69114, Note_on_c, 0, 49, 82
2, 69205, Note_on_c, 0, 52, 71
2, 69208, Note_on_c, 0, 56, 85
2, 69214, Note_on_c, 0, 61, 70
2, 69275, Note_on_c, 0, 95, 100
2, 69277, Note_on_c, 0, 83, 97
2, 69277, Note_on_c, 0, 93, 97
2, 69396, Note_on_c, 0, 61, 0
2, 69400, Note_on_c, 0, 68, 75
2, 69401, Note_on_c, 0, 61, 82
2, 69403, Note_on_c, 0, 56, 0
2, 69404, Note_on_c, 0, 68, 0
2, 69407, Note_on_c, 0, 49, 0
2, 69434, Note_on_c, 0, 85, 0
2, 69435, Note_on_c, 0, 97, 100
2, 69439, Note_on_c, 0, 85, 101
2, 69513, Note_on_c, 0, 52, 0
2, 69514, Note_on_c, 0, 93, 0
2, 69514, Note_on_c, 0, 80, 0
2, 69514, Note_on_c, 0, 94, 0
2, 69514, Note_on_c, 0, 95, 0
2, 69515, Note_on_c, 0, 82, 0
2, 69515, Note_on_c, 0, 92, 0
2, 69515, Note_on_c, 0, 97, 0
2, 69515, Note_on_c, 0, 83, 0
2, 69515, Note_on_c, 0, 85, 0
2, 69523, Control_c, 0, 64, 0
2, 69527, Note_on_c, 0, 37, 0
2, 69542, Note_on_c, 0, 61, 0
2, 69575, Note_on_c, 0, 27, 89
2, 69576, Note_on_c, 0, 39, 98
2, 69576, Note_on_c, 0, 51, 101
2, 69580, Note_on_c, 0, 27, 0
2, 69580, Note_on_c, 0, 51, 0
2, 69584, Note_on_c, 0, 94, 101
2, 69584, Note_on_c, 0, 85, 97
2, 69584, Note_on_c, 0, 82, 101
2, 69611, Control_c, 0, 64, 127
2, 69823, Note_on_c, 0, 54, 70
2, 69825, Note_on_c, 0, 66, 73
2, 69918, Note_on_c, 0, 82, 0
2, 69925, Note_on_c, 0, 90, 108
2, 69928, Note_on_c, 0, 82, 101
2, 69929, Note_on_c, 0, 78, 102
2, 69957, Note_on_c, 0, 66, 0
2, 69963, Note_on_c, 0, 63, 65
2, 69964, Note_on_c, 0, 66, 78
2, 70107, Note_on_c, 0, 67, 64
2, 70118, Note_on_c, 0, 67, 0
2, 70164, Note_on_c, 0, 70, 71
2, 70168, Note_on_c, 0, 58, 55
2, 70237, Control_c, 0, 64, 0
2, 70237, Note_on_c, 0, 87, 111
2, 70239, Note_on_c, 0, 75, 95
2, 70256, Control_c, 0, 64, 127
2, 70356, Note_on_c, 0, 66, 0
2, 70366, Note_on_c, 0, 66, 96
2, 70487, Note_on_c, 0, 63, 0
2, 70492, Note_on_c, 0, 63, 72
2, 70533, Note_on_c, 0, 58, 0
2, 70543, Note_on_c, 0, 58, 81
2, 70563, Note_on_c, 0, 90, 0
2, 70571, Note_on_c, 0, 78, 0
2, 70574, Note_on_c, 0, 90, 110
2, 70576, Note_on_c, 0, 78, 104
2, 70602, Note_on_c, 0, 54, 0
2, 70613, Note_on_c, 0, 54, 79
2, 70705, Note_on_c, 0, 51, 85
2, 70842, Note_on_c, 0, 94, 0
2, 70842, Note_on_c, 0, 82, 0
2, 70842, Note_on_c, 0, 87, 0
2, 70842, Note_on_c, 0, 70, 0
2, 70843, Note_on_c, 0, 78, 0
2, 70843, Note_on_c, 0, 63, 0
2, 70843, Note_on_c, 0, 58, 0
2, 70845, Control_c, 0, 64, 0
2, 70855, Note_on_c, 0, 39, 0
2, 70855, Note_on_c, 0, 51, 0
2, 70855, Note_on_c, 0, 54, 0
2, 70855, Note_on_c, 0, 66, 0
2, 70855, Note_on_c, 0, 75, 0
2, 70855, Note_on_c, 0, 85, 0
2, 70878, Note_on_c, 0, 90, 0
2, 70887, Note_on_c, 0, 52, 99
2, 70888, Note_on_c, 0, 90, 112
2, 70888, Note_on_c, 0, 40, 91
2, 70890, Note_on_c, 0, 78, 105
2, 70932, Control_c, 0, 64, 127
2, 70947, Note_on_c, 0, 40, 0
2, 71047, Note_on_c, 0, 52, 0
2, 71052, Note_on_c, 0, 83, 81
2, 71052, Note_on_c, 0, 52, 77
2, 71052, Note_on_c, 0, 80, 78
2, 71054, Note_on_c, 0, 92, 75
2, 71109, Note_on_c, 0, 80, 0
2, 71109, Note_on_c, 0, 83, 0
2, 71109, Note_on_c, 0, 92, 0
2, 71113, Note_on_c, 0, 92, 100
2, 71114, Note_on_c, 0, 80, 96
2, 71114, Note_on_c, 0, 83, 94
2, 71124, Note_on_c, 0, 59, 86
2, 71139, Note_on_c, 0, 56, 70
2, 71278, Note_on_c, 0, 52, 0
2, 71283, Note_on_c, 0, 52, 84
2, 71385, Note_on_c, 0, 56, 0
2, 71388, Note_on_c, 0, 59, 0
2, 71389, Note_on_c, 0, 64, 88
2, 71390, Note_on_c, 0, 52, 0
2, 71393, Note_on_c, 0, 83, 0
2, 71393, Note_on_c, 0, 90, 0
2, 71395, Note_on_c, 0, 95, 99
2, 71396, Note_on_c, 0, 56, 85
2, 71399, Note_on_c, 0, 83, 100
2, 71402, Note_on_c, 0, 90, 83
2, 71471, Note_on_c, 0, 64, 0
2, 71472, Note_on_c, 0, 90, 0
2, 71472, Note_on_c, 0, 80, 0
2, 71472, Note_on_c, 0, 56, 0
2, 71472, Note_on_c, 0, 95, 0
2, 71472, Note_on_c, 0, 83, 0
2, 71473, Note_on_c, 0, 92, 0
2, 71474, Control_c, 0, 64, 0
2, 71477, Note_on_c, 0, 78, 0
2, 71551, Note_on_c, 0, 54, 98
2, 71553, Note_on_c, 0, 42, 100
2, 71558, Note_on_c, 0, 94, 107
2, 71558, Note_on_c, 0, 82, 105
2, 71585, Control_c, 0, 64, 127
2, 71708, Note_on_c, 0, 54, 0
2, 71710, Note_on_c, 0, 90, 95
2, 71717, Note_on_c, 0, 78, 74
2, 71717, Note_on_c, 0, 54, 79
2, 71723, Note_on_c, 0, 78, 0
2, 71791, Note_on_c, 0, 87, 92
2, 71793, Note_on_c, 0, 75, 100
2, 71794, Note_on_c, 0, 61, 73
2, 71795, Note_on_c, 0, 58, 74
2, 71800, Note_on_c, 0, 66, 78
2, 71930, Note_on_c, 0, 66, 0
2, 71935, Note_on_c, 0, 66, 64
2, 72046, Note_on_c, 0, 61, 0
2, 72046, Note_on_c, 0, 66, 0
2, 72046, Note_on_c, 0, 90, 0
2, 72051, Note_on_c, 0, 61, 81
2, 72054, Note_on_c, 0, 90, 109
2, 72055, Note_on_c, 0, 58, 0
2, 72056, Note_on_c, 0, 66, 89
2, 72056, Note_on_c, 0, 78, 104
2, 72151, Note_on_c, 0, 82, 0
2, 72151, Note_on_c, 0, 94, 0
2, 72151, Note_on_c, 0, 61, 0
2, 72152, Note_on_c, 0, 90, 0
2, 72152, Note_on_c, 0, 66, 0
2, 72152, Note_on_c, 0, 75, 0
2, 72152, Note_on_c, 0, 87, 0
2, 72154, Note_on_c, 0, 78, 0
2, 72156, Control_c, 0, 64, 0
2, 72161, Note_on_c, 0, 42, 0
2, 72168, Note_on_c, 0, 54, 0
2, 72206, Note_on_c, 0, 44, 99
2, 72209, Note_on_c, 0, 32, 81
2, 72209, Note_on_c, 0, 90, 108
2, 72211, Note_on_c, 0, 78, 101
2, 72215, Note_on_c, 0, 32, 0
2, 72238, Control_c, 0, 64, 127
2, 72372, Note_on_c, 0, 80, 90
2, 72372, Note_on_c, 0, 85, 90
2, 72372, Note_on_c, 0, 92, 85
2, 72373, Note_on_c, 0, 87, 77
2, 72374, Note_on_c, 0, 56, 81
2, 72422, Note_on_c, 0, 92, 0
2, 72430, Note_on_c, 0, 85, 0
2, 72430, Note_on_c, 0, 87, 0
2, 72433, Note_on_c, 0, 92, 99
2, 72437, Note_on_c, 0, 90, 0
2, 72440, Note_on_c, 0, 85, 93
2, 72441, Note_on_c, 0, 87, 88
2, 72446, Note_on_c, 0, 90, 83
2, 72552, Note_on_c, 0, 56, 0
2, 72564, Note_on_c, 0, 56, 83
2, 72698, Note_on_c, 0, 68, 79
2, 72700, Note_on_c, 0, 61, 83
2, 72701, Note_on_c, 0, 56, 0
2, 72706, Note_on_c, 0, 85, 0
2, 72706, Note_on_c, 0, 87, 0
2, 72711, Note_on_c, 0, 87, 78
2, 72716, Note_on_c, 0, 85, 79
2, 72800, Note_on_c, 0, 68, 0
2, 72800, Note_on_c, 0, 80, 0
2, 72801, Note_on_c, 0, 90, 0
2, 72801, Note_on_c, 0, 85, 0
2, 72801, Note_on_c, 0, 61, 0
2, 72801, Note_on_c, 0, 87, 0
2, 72802, Control_c, 0, 64, 0
2, 72806, Note_on_c, 0, 78, 0
2, 72814, Note_on_c, 0, 44, 0
2, 72821, Note_on_c, 0, 92, 0
2, 72864, Note_on_c, 0, 44, 95
2, 72866, Note_on_c, 0, 85, 84
2, 72867, Note_on_c, 0, 87, 81
2, 72875, Control_c, 0, 64, 127
2, 73029, Note_on_c, 0, 56, 79
2, 73097, Note_on_c, 0, 61, 82
2, 73105, Note_on_c, 0, 85, 0
2, 73105, Note_on_c, 0, 87, 0
2, 73106, Note_on_c, 0, 63, 87
2, 73111, Note_on_c, 0, 85, 92
2, 73115, Note_on_c, 0, 87, 86
2, 73213, Note_on_c, 0, 56, 0
2, 73217, Note_on_c, 0, 56, 81
2, 73351, Note_on_c, 0, 61, 0
2, 73351, Note_on_c, 0, 63, 0
2, 73357, Note_on_c, 0, 61, 77
2, 73358, Note_on_c, 0, 63, 75
2, 73367, Note_on_c, 0, 85, 0
2, 73375, Note_on_c, 0, 85, 90
2, 73382, Note_on_c, 0, 87, 0
2, 73388, Note_on_c, 0, 87, 78
2, 73512, Control_c, 0, 64, 0
2, 73514, Note_on_c, 0, 61, 0
2, 73514, Note_on_c, 0, 56, 0
2, 73514, Note_on_c, 0, 87, 0
2, 73515, Note_on_c, 0, 85, 0
2, 73528, Note_on_c, 0, 44, 0
2, 73534, Note_on_c, 0, 44, 90
2, 73536, Note_on_c, 0, 63, 0
2, 73541, Note_on_c, 0, 92, 108
2, 73545, Note_on_c, 0, 80, 102
2, 73546, Note_on_c, 0, 84, 98
2, 73556, Note_on_c, 0, 87, 86
2, 73605, Control_c, 0, 64, 127
2, 73695, Note_on_c, 0, 51, 55
2, 73852, Note_on_c, 0, 56, 80
2, 74023, Note_on_c, 0, 60, 63
2, 74184, Note_on_c, 0, 63, 74
2, 74354, Note_on_c, 0, 68, 70
2, 74498, Note_on_c, 0, 78, 81
2, 74500, Note_on_c, 0, 72, 57
2, 74506, Note_on_c, 0, 75, 65
2, 74688, Note_on_c, 0, 80, 0
2, 74692, Note_on_c, 0, 80, 71
2, 75041, Note_on_c, 0, 68, 0
2, 75052, Note_on_c, 0, 68, 65
2, 75379, Note_on_c, 0, 63, 0
2, 75383, Note_on_c, 0, 63, 49
2, 75606, Note_on_c, 0, 60, 0
2, 75607, Note_on_c, 0, 78, 0
2, 75610, Note_on_c, 0, 72, 0
2, 75724, Note_on_c, 0, 56, 0
2, 75729, Note_on_c, 0, 56, 48
2, 75855, Note_on_c, 0, 87, 0
2, 76024, Note_on_c, 0, 44, 0
2, 76032, Note_on_c, 0, 51, 0
2, 76070, Note_on_c, 0, 92, 0
2, 76072, Note_on_c, 0, 55, 47
2, 76124, Control_c, 0, 64, 0
2, 76131, Note_on_c, 0, 84, 0
2, 76193, Note_on_c, 0, 63, 0
2, 76208, Note_on_c, 0, 75, 0
2, 76213, Note_on_c, 0, 56, 0
2, 76251, Note_on_c, 0, 53, 50
2, 76262, Note_on_c, 0, 55, 0
2, 76316, Note_on_c, 0, 68, 0
2, 76423, Control_c, 0, 64, 127
2, 76428, Note_on_c, 0, 60, 41
2, 76580, Note_on_c, 0, 65, 59
2, 76730, Note_on_c, 0, 80, 0
2, 76737, Note_on_c, 0, 80, 66
2, 76742, Note_on_c, 0, 67, 59
2, 76835, Note_on_c, 0, 79, 66
2, 76892, Note_on_c, 0, 80, 0
2, 76901, Note_on_c, 0, 80, 76
2, 76903, Note_on_c, 0, 68, 73
2, 77053, Note_on_c, 0, 79, 0
2, 77061, Note_on_c, 0, 67, 0
2, 77063, Note_on_c, 0, 79, 74
2, 77065, Note_on_c, 0, 67, 65
2, 77222, Note_on_c, 0, 65, 0
2, 77222, Note_on_c, 0, 80, 0
2, 77226, Note_on_c, 0, 65, 61
2, 77226, Note_on_c, 0, 80, 83
2, 77380, Note_on_c, 0, 63, 61
2, 77396, Note_on_c, 0, 82, 77
2, 77544, Note_on_c, 0, 80, 0
2, 77549, Control_c, 0, 64, 0
2, 77550, Note_on_c, 0, 67, 0
2, 77551, Note_on_c, 0, 51, 58
2, 77552, Note_on_c, 0, 65, 0
2, 77552, Note_on_c, 0, 80, 88
2, 77553, Note_on_c, 0, 68, 0
2, 77553, Note_on_c, 0, 63, 0
2, 77553, Note_on_c, 0, 79, 0
2, 77554, Note_on_c, 0, 53, 0
2, 77554, Note_on_c, 0, 82, 0
2, 77560, Note_on_c, 0, 60, 0
2, 77573, Note_on_c, 0, 75, 68
2, 77586, Note_on_c, 0, 70, 54
2, 77660, Control_c, 0, 64, 127
2, 77719, Note_on_c, 0, 58, 61
2, 77880, Note_on_c, 0, 63, 73
2, 78044, Note_on_c, 0, 80, 0
2, 78051, Note_on_c, 0, 80, 84
2, 78052, Note_on_c, 0, 67, 69
2, 78090, Note_on_c, 0, 63, 0
2, 78098, Note_on_c, 0, 63, 34
2, 78139, Note_on_c, 0, 79, 78
2, 78190, Note_on_c, 0, 80, 0
2, 78200, Note_on_c, 0, 80, 91
2, 78209, Note_on_c, 0, 68, 79
2, 78366, Note_on_c, 0, 67, 0
2, 78366, Note_on_c, 0, 79, 0
2, 78371, Note_on_c, 0, 79, 86
2, 78372, Note_on_c, 0, 67, 73
2, 78528, Note_on_c, 0, 63, 0
2, 78528, Note_on_c, 0, 80, 0
2, 78532, Note_on_c, 0, 80, 87
2, 78532, Note_on_c, 0, 63, 66
2, 78551, Note_on_c, 0, 68, 0
2, 78562, Note_on_c, 0, 68, 49
2, 78689, Note_on_c, 0, 58, 0
2, 78693, Note_on_c, 0, 58, 68
2, 78700, Note_on_c, 0, 82, 82
2, 78727, Note_on_c, 0, 63, 0
2, 78727, Note_on_c, 0, 75, 0
2, 78735, Note_on_c, 0, 75, 43
2, 78738, Note_on_c, 0, 63, 48
2, 78825, Note_on_c, 0, 68, 0
2, 78825, Note_on_c, 0, 80, 0
2, 78825, Note_on_c, 0, 67, 0
2, 78826, Note_on_c, 0, 63, 0
2, 78826, Note_on_c, 0, 51, 0
2, 78826, Note_on_c, 0, 70, 0
2, 78826, Note_on_c, 0, 79, 0
2, 78826, Note_on_c, 0, 58, 0
2, 78827, Note_on_c, 0, 75, 0
2, 78828, Control_c, 0, 64, 0
2, 78828, Note_on_c, 0, 82, 0
2, 78860, Note_on_c, 0, 49, 68
2, 78861, Note_on_c, 0, 84, 91
2, 78863, Note_on_c, 0, 80, 80
2, 78875, Note_on_c, 0, 77, 64
2, 78919, Note_on_c, 0, 49, 0
2, 78942, Control_c, 0, 64, 127
2, 79023, Note_on_c, 0, 56, 67
2, 79169, Note_on_c, 0, 65, 78
2, 79334, Note_on_c, 0, 84, 0
2, 79341, Note_on_c, 0, 67, 79
2, 79345, Note_on_c, 0, 84, 85
2, 79448, Note_on_c, 0, 82, 86
2, 79485, Note_on_c, 0, 68, 92
2, 79495, Note_on_c, 0, 84, 0
2, 79502, Note_on_c, 0, 84, 91
2, 79633, Note_on_c, 0, 67, 0
2, 79637, Note_on_c, 0, 67, 82
2, 79660, Note_on_c, 0, 85, 98
2, 79787, Note_on_c, 0, 65, 0
2, 79793, Note_on_c, 0, 65, 77
2, 79802, Note_on_c, 0, 84, 0
2, 79813, Note_on_c, 0, 84, 95
2, 79956, Note_on_c, 0, 82, 0
2, 79966, Note_on_c, 0, 61, 71
2, 79967, Note_on_c, 0, 82, 91
2, 80081, Control_c, 0, 64, 0
2, 80081, Note_on_c, 0, 68, 0
2, 80082, Note_on_c, 0, 56, 0
2, 80082, Note_on_c, 0, 67, 0
2, 80083, Note_on_c, 0, 61, 0
2, 80083, Note_on_c, 0, 82, 0
2, 80102, Note_on_c, 0, 65, 0
2, 80102, Note_on_c, 0, 77, 0
2, 80102, Note_on_c, 0, 80, 0
2, 80110, Note_on_c, 0, 85, 0
2, 80125, Note_on_c, 0, 84, 0
2, 80129, Note_on_c, 0, 84, 103
2, 80133, Note_on_c, 0, 51, 84
2, 80163, Control_c, 0, 64, 127
2, 80221, Note_on_c, 0, 82, 90
2, 80300, Note_on_c, 0, 80, 90
2, 80304, Note_on_c, 0, 58, 71
2, 80375, Note_on_c, 0, 79, 91
2, 80440, Note_on_c, 0, 80, 0
2, 80445, Note_on_c, 0, 80, 91
2, 80450, Note_on_c, 0, 63, 78
2, 80509, Note_on_c, 0, 79, 0
2, 80520, Note_on_c, 0, 79, 93
2, 80570, Note_on_c, 0, 67, 84
2, 80586, Note_on_c, 0, 80, 0
2, 80597, Note_on_c, 0, 80, 93
2, 80671, Note_on_c, 0, 87, 94
2, 80690, Note_on_c, 0, 80, 0
2, 80690, Note_on_c, 0, 84, 0
2, 80691, Note_on_c, 0, 82, 0
2, 80691, Note_on_c, 0, 63, 0
2, 80691, Note_on_c, 0, 51, 0
2, 80691, Control_c, 0, 64, 0
2, 80692, Note_on_c, 0, 79, 0
2, 80692, Note_on_c, 0, 58, 0
2, 80692, Note_on_c, 0, 67, 0
2, 80743, Note_on_c, 0, 87, 0
2, 80761, Note_on_c, 0, 84, 105
2, 80766, Note_on_c, 0, 56, 105
2, 80766, Note_on_c, 0, 44, 99
2, 80767, Note_on_c, 0, 75, 96
2, 80768, Note_on_c, 0, 80, 94
2, 80778, Control_c, 0, 64, 127
2, 81084, Control_c, 0, 64, 0
2, 81088, Note_on_c, 0, 56, 0
2, 81089, Note_on_c, 0, 75, 0
2, 81089, Note_on_c, 0, 80, 0
2, 81089, Note_on_c, 0, 55, 99
2, 81091, Note_on_c, 0, 44, 0
2, 81091, Note_on_c, 0, 43, 97
2, 81093, Note_on_c, 0, 84, 0
2, 81316, Note_on_c, 0, 55, 0
2, 81323, Note_on_c, 0, 43, 0
2, 81424, Note_on_c, 0, 80, 103
2, 81425, Note_on_c, 0, 53, 96
2, 81427, Note_on_c, 0, 41, 90
2, 81454, Control_c, 0, 64, 127
2, 81503, Note_on_c, 0, 79, 83
2, 81592, Note_on_c, 0, 77, 84
2, 81663, Note_on_c, 0, 72, 83
2, 81750, Note_on_c, 0, 36, 84
2, 81755, Note_on_c, 0, 68, 88
2, 81818, Note_on_c, 0, 67, 87
2, 81889, Note_on_c, 0, 65, 85
2, 81955, Note_on_c, 0, 48, 58
2, 81957, Note_on_c, 0, 60, 74
2, 82007, Note_on_c, 0, 80, 0
2, 82008, Note_on_c, 0, 67, 0
2, 82008, Note_on_c, 0, 48, 0
2, 82008, Note_on_c, 0, 36, 0
2, 82008, Note_on_c, 0, 65, 0
2, 82008, Note_on_c, 0, 77, 0
2, 82008, Note_on_c, 0, 79, 0
2, 82009, Note_on_c, 0, 60, 0
2, 82009, Note_on_c, 0, 72, 0
2, 82009, Note_on_c, 0, 68, 0
2, 82010, Control_c, 0, 64, 0
2, 82014, Note_on_c, 0, 41, 0
2, 82014, Note_on_c, 0, 53, 0
2, 82075, Note_on_c, 0, 49, 90
2, 82076, Note_on_c, 0, 37, 84
2, 82079, Note_on_c, 0, 80, 107
2, 82082, Note_on_c, 0, 68, 93
2, 82122, Control_c, 0, 64, 127
2, 82229, Note_on_c, 0, 49, 0
2, 82234, Note_on_c, 0, 49, 75
2, 82237, Note_on_c, 0, 68, 0
2, 82247, Note_on_c, 0, 79, 98
2, 82248, Note_on_c, 0, 68, 87
2, 82265, Note_on_c, 0, 67, 73
2, 82268, Note_on_c, 0, 68, 0
2, 82272, Note_on_c, 0, 68, 71
2, 82340, Note_on_c, 0, 56, 72
2, 82391, Note_on_c, 0, 68, 0
2, 82391, Note_on_c, 0, 80, 0
2, 82395, Note_on_c, 0, 80, 101
2, 82401, Note_on_c, 0, 68, 91
2, 82429, Note_on_c, 0, 56, 0
2, 82432, Note_on_c, 0, 61, 72
2, 82439, Note_on_c, 0, 56, 56
2, 82529, Note_on_c, 0, 61, 0
2, 82540, Note_on_c, 0, 61, 65
2, 82548, Note_on_c, 0, 65, 83
2, 82558, Note_on_c, 0, 82, 101
2, 82574, Note_on_c, 0, 70, 89
2, 82659, Note_on_c, 0, 37, 0
2, 82677, Note_on_c, 0, 80, 0
2, 82677, Note_on_c, 0, 67, 0
2, 82677, Note_on_c, 0, 56, 0
2, 82677, Note_on_c, 0, 49, 0
2, 82677, Note_on_c, 0, 61, 0
2, 82677, Note_on_c, 0, 68, 0
2, 82678, Note_on_c, 0, 79, 0
2, 82678, Control_c, 0, 64, 0
2, 82678, Note_on_c, 0, 65, 0
2, 82678, Note_on_c, 0, 82, 0
2, 82679, Note_on_c, 0, 70, 0
2, 82726, Note_on_c, 0, 80, 108
2, 82739, Note_on_c, 0, 51, 101
2, 82739, Note_on_c, 0, 39, 97
2, 82740, Note_on_c, 0, 73, 79
2, 82775, Control_c, 0, 64, 127
2, 82817, Note_on_c, 0, 79, 86
2, 82910, Note_on_c, 0, 76, 69
2, 82912, Note_on_c, 0, 63, 64
2, 82913, Note_on_c, 0, 75, 82
2, 82974, Note_on_c, 0, 51, 0
2, 82979, Note_on_c, 0, 70, 76
2, 82983, Note_on_c, 0, 51, 58
2, 83069, Note_on_c, 0, 34, 86
2, 83072, Note_on_c, 0, 68, 90
2, 83131, Note_on_c, 0, 67, 84
2, 83212, Note_on_c, 0, 63, 0
2, 83224, Note_on_c, 0, 63, 77
2, 83269, Note_on_c, 0, 58, 75
2, 83306, Note_on_c, 0, 34, 0
2, 83308, Note_on_c, 0, 76, 0
2, 83308, Note_on_c, 0, 79, 0
2, 83308, Note_on_c, 0, 80, 0
2, 83309, Control_c, 0, 64, 0
2, 83309, Note_on_c, 0, 63, 0
2, 83309, Note_on_c, 0, 51, 0
2, 83309, Note_on_c, 0, 67, 0
2, 83309, Note_on_c, 0, 70, 0
2, 83309, Note_on_c, 0, 75, 0
2, 83310, Note_on_c, 0, 58, 0
2, 83320, Note_on_c, 0, 68, 0
2, 83325, Note_on_c, 0, 68, 62
2, 83328, Note_on_c, 0, 39, 0
2, 83328, Note_on_c, 0, 73, 0
2, 83389, Note_on_c, 0, 68, 0
2, 83394, Note_on_c, 0, 80, 106
2, 83394, Note_on_c, 0, 36, 86
2, 83400, Note_on_c, 0, 68, 88
2, 83435, Control_c, 0, 64, 127
2, 83473, Note_on_c, 0, 36, 0
2, 83559, Note_on_c, 0, 79, 99
2, 83561, Note_on_c, 0, 48, 68
2, 83562, Note_on_c, 0, 67, 88
2, 83639, Note_on_c, 0, 51, 64
2, 83641, Note_on_c, 0, 63, 60
2, 83662, Note_on_c, 0, 55, 64
2, 83670, Note_on_c, 0, 59, 54
2, 83712, Note_on_c, 0, 68, 0
2, 83712, Note_on_c, 0, 80, 0
2, 83720, Note_on_c, 0, 80, 86
2, 83723, Note_on_c, 0, 68, 86
2, 83750, Note_on_c, 0, 48, 0
2, 83756, Note_on_c, 0, 60, 62
2, 83761, Note_on_c, 0, 48, 65
2, 83788, Note_on_c, 0, 51, 0
2, 83799, Note_on_c, 0, 51, 41
2, 83878, Note_on_c, 0, 82, 97
2, 83883, Note_on_c, 0, 70, 96
2, 83904, Note_on_c, 0, 80, 0
2, 83914, Note_on_c, 0, 80, 56
2, 83984, Note_on_c, 0, 55, 0
2, 83984, Note_on_c, 0, 48, 0
2, 83984, Note_on_c, 0, 67, 0
2, 83984, Note_on_c, 0, 80, 0
2, 83985, Note_on_c, 0, 79, 0
2, 83985, Note_on_c, 0, 51, 0
2, 83986, Note_on_c, 0, 60, 0
2, 83987, Note_on_c, 0, 82, 0
2, 83987, Note_on_c, 0, 70, 0
2, 83987, Note_on_c, 0, 59, 0
2, 83990, Control_c, 0, 64, 0
2, 84003, Note_on_c, 0, 68, 0
2, 84011, Note_on_c, 0, 63, 0
2, 84038, Note_on_c, 0, 46, 88
2, 84040, Note_on_c, 0, 84, 109
2, 84110, Note_on_c, 0, 80, 90
2, 84111, Control_c, 0, 64, 127
2, 84208, Note_on_c, 0, 77, 76
2, 84275, Note_on_c, 0, 72, 78
2, 84368, Note_on_c, 0, 61, 71
2, 84368, Note_on_c, 0, 65, 86
2, 84424, Note_on_c, 0, 56, 40
2, 84491, Note_on_c, 0, 53, 65
2, 84533, Note_on_c, 0, 80, 0
2, 84538, Note_on_c, 0, 80, 88
2, 84544, Note_on_c, 0, 68, 94
2, 84560, Note_on_c, 0, 78, 74
2, 84564, Note_on_c, 0, 56, 0
2, 84571, Note_on_c, 0, 56, 50
2, 84634, Note_on_c, 0, 46, 0
2, 84635, Note_on_c, 0, 53, 0
2, 84635, Note_on_c, 0, 78, 0
2, 84636, Note_on_c, 0, 72, 0
2, 84636, Note_on_c, 0, 65, 0
2, 84636, Note_on_c, 0, 77, 0
2, 84636, Note_on_c, 0, 80, 0
2, 84636, Note_on_c, 0, 56, 0
2, 84636, Note_on_c, 0, 61, 0
2, 84636, Note_on_c, 0, 84, 0
2, 84637, Control_c, 0, 64, 0
2, 84648, Note_on_c, 0, 68, 0
2, 84696, Note_on_c, 0, 48, 87
2, 84698, Note_on_c, 0, 82, 107
2, 84715, Note_on_c, 0, 70, 74
2, 84725, Control_c, 0, 64, 127
2, 84767, Note_on_c, 0, 79, 84
2, 84845, Note_on_c, 0, 75, 82
2, 84910, Note_on_c, 0, 70, 0
2, 84919, Note_on_c, 0, 70, 79
2, 85013, Note_on_c, 0, 58, 79
2, 85013, Note_on_c, 0, 63, 90
2, 85019, Note_on_c, 0, 67, 70
2, 85021, Note_on_c, 0, 55, 73
2, 85025, Note_on_c, 0, 67, 0
2, 85186, Note_on_c, 0, 63, 0
2, 85186, Note_on_c, 0, 75, 0
2, 85191, Note_on_c, 0, 75, 100
2, 85192, Note_on_c, 0, 63, 93
2, 85264, Note_on_c, 0, 82, 0
2, 85264, Note_on_c, 0, 48, 0
2, 85265, Note_on_c, 0, 79, 0
2, 85265, Note_on_c, 0, 55, 0
2, 85265, Note_on_c, 0, 63, 0
2, 85266, Note_on_c, 0, 70, 0
2, 85266, Note_on_c, 0, 58, 0
2, 85266, Note_on_c, 0, 75, 0
2, 85267, Control_c, 0, 64, 0
2, 85331, Note_on_c, 0, 79, 100
2, 85335, Note_on_c, 0, 41, 87
2, 85336, Note_on_c, 0, 67, 94
2, 85354, Note_on_c, 0, 75, 53
2, 85370, Control_c, 0, 64, 127
2, 85416, Note_on_c, 0, 75, 0
2, 85428, Note_on_c, 0, 75, 67
2, 85457, Note_on_c, 0, 72, 79
2, 85532, Note_on_c, 0, 67, 0
2, 85540, Note_on_c, 0, 67, 81
2, 85585, Note_on_c, 0, 72, 0
2, 85595, Note_on_c, 0, 72, 49
2, 85637, Note_on_c, 0, 63, 84
2, 85660, Note_on_c, 0, 60, 61
2, 85705, Note_on_c, 0, 56, 66
2, 85706, Note_on_c, 0, 68, 68
2, 85770, Note_on_c, 0, 55, 75
2, 85812, Note_on_c, 0, 53, 77
2, 85819, Note_on_c, 0, 77, 96
2, 85820, Note_on_c, 0, 65, 93
2, 85913, Note_on_c, 0, 67, 0
2, 85914, Note_on_c, 0, 56, 0
2, 85914, Note_on_c, 0, 72, 0
2, 85914, Note_on_c, 0, 53, 0
2, 85914, Note_on_c, 0, 68, 0
2, 85914, Note_on_c, 0, 60, 0
2, 85914, Note_on_c, 0, 65, 0
2, 85914, Note_on_c, 0, 55, 0
2, 85914, Note_on_c, 0, 63, 0
2, 85915, Note_on_c, 0, 77, 0
2, 85916, Note_on_c, 0, 79, 0
2, 85916, Note_on_c, 0, 75, 0
2, 85920, Control_c, 0, 64, 0
2, 85931, Note_on_c, 0, 41, 0
2, 85971, Note_on_c, 0, 77, 99
2, 85974, Note_on_c, 0, 65, 91
2, 85975, Note_on_c, 0, 43, 56
2, 86016, Control_c, 0, 64, 127
2, 86028, Note_on_c, 0, 48, 66
2, 86094, Note_on_c, 0, 53, 81
2, 86123, Note_on_c, 0, 43, 0
2, 86212, Note_on_c, 0, 56, 82
2, 86295, Note_on_c, 0, 60, 86
2, 86392, Note_on_c, 0, 48, 0
2, 86401, Note_on_c, 0, 48, 55
2, 86456, Note_on_c, 0, 56, 0
2, 86457, Note_on_c, 0, 48, 0
2, 86458, Note_on_c, 0, 77, 0
2, 86458, Note_on_c, 0, 60, 0
2, 86459, Note_on_c, 0, 65, 0
2, 86460, Note_on_c, 0, 53, 0
2, 86465, Control_c, 0, 64, 0
2, 86603, Note_on_c, 0, 37, 91
2, 86604, Note_on_c, 0, 25, 86
2, 86609, Note_on_c, 0, 65, 87
2, 86609, Note_on_c, 0, 72, 88
2, 86615, Note_on_c, 0, 25, 0
2, 86630, Control_c, 0, 64, 127
2, 86634, Note_on_c, 0, 65, 0
2, 86668, Note_on_c, 0, 72, 0
2, 86674, Note_on_c, 0, 72, 93
2, 86676, Note_on_c, 0, 37, 0
2, 86678, Note_on_c, 0, 68, 82
2, 86678, Note_on_c, 0, 65, 89
2, 86680, Note_on_c, 0, 37, 63
2, 86753, Note_on_c, 0, 65, 0
2, 86753, Note_on_c, 0, 68, 0
2, 86753, Note_on_c, 0, 72, 0
2, 86759, Note_on_c, 0, 72, 82
2, 86759, Control_c, 0, 64, 0
2, 86763, Note_on_c, 0, 68, 89
2, 86764, Note_on_c, 0, 65, 73
2, 86788, Note_on_c, 0, 65, 0
2, 86789, Note_on_c, 0, 68, 0
2, 86790, Note_on_c, 0, 72, 0
2, 86795, Note_on_c, 0, 37, 0
2, 86936, Note_on_c, 0, 72, 91
2, 86936, Note_on_c, 0, 68, 91
2, 86937, Note_on_c, 0, 53, 78
2, 86941, Note_on_c, 0, 65, 81
2, 86941, Note_on_c, 0, 60, 69
2, 86947, Note_on_c, 0, 56, 75
2, 86964, Note_on_c, 0, 72, 0
2, 86965, Note_on_c, 0, 68, 0
2, 86965, Note_on_c, 0, 56, 0
2, 86966, Note_on_c, 0, 53, 0
2, 86983, Note_on_c, 0, 60, 0
2, 86999, Note_on_c, 0, 65, 0
2, 87089, Note_on_c, 0, 72, 92
2, 87095, Note_on_c, 0, 68, 69
2, 87096, Note_on_c, 0, 65, 78
2, 87098, Note_on_c, 0, 25, 87
2, 87099, Note_on_c, 0, 37, 91
2, 87106, Note_on_c, 0, 25, 0
2, 87121, Note_on_c, 0, 68, 0
2, 87121, Control_c, 0, 64, 127
2, 87155, Note_on_c, 0, 84, 105
2, 87157, Note_on_c, 0, 80, 92
2, 87158, Note_on_c, 0, 77, 88
2, 87183, Note_on_c, 0, 65, 0
2, 87237, Note_on_c, 0, 37, 0
2, 87243, Note_on_c, 0, 37, 76
2, 87413, Note_on_c, 0, 72, 0
2, 87414, Note_on_c, 0, 60, 87
2, 87423, Note_on_c, 0, 72, 101
2, 87425, Note_on_c, 0, 68, 85
2, 87425, Note_on_c, 0, 65, 66
2, 87437, Note_on_c, 0, 56, 82
2, 87480, Control_c, 0, 64, 0
2, 87502, Note_on_c, 0, 80, 0
2, 87503, Note_on_c, 0, 77, 0
2, 87504, Note_on_c, 0, 37, 0
2, 87504, Note_on_c, 0, 84, 0
2, 87506, Note_on_c, 0, 72, 0
2, 87507, Note_on_c, 0, 60, 0
2, 87508, Note_on_c, 0, 56, 0
2, 87521, Note_on_c, 0, 68, 0
2, 87536, Note_on_c, 0, 65, 0
2, 87589, Note_on_c, 0, 49, 85
2, 87591, Note_on_c, 0, 70, 101
2, 87626, Note_on_c, 0, 49, 0
2, 87656, Note_on_c, 0, 44, 84
2, 87737, Note_on_c, 0, 68, 94
2, 87741, Note_on_c, 0, 65, 69
2, 87741, Note_on_c, 0, 37, 90
2, 87767, Note_on_c, 0, 70, 0
2, 87775, Note_on_c, 0, 44, 0
2, 87777, Note_on_c, 0, 68, 0
2, 87779, Note_on_c, 0, 37, 0
2, 87828, Note_on_c, 0, 65, 0
2, 87916, Note_on_c, 0, 67, 98
2, 87919, Note_on_c, 0, 63, 93
2, 87922, Note_on_c, 0, 39, 90
2, 87959, Control_c, 0, 64, 127
2, 88097, Control_c, 0, 64, 0
2, 88112, Note_on_c, 0, 63, 0
2, 88112, Note_on_c, 0, 67, 0
2, 88128, Note_on_c, 0, 39, 0
2, 88226, Note_on_c, 0, 63, 89
2, 88230, Note_on_c, 0, 67, 87
2, 88232, Note_on_c, 0, 58, 78
2, 88232, Note_on_c, 0, 55, 87
2, 88261, Note_on_c, 0, 67, 0
2, 88262, Note_on_c, 0, 58, 0
2, 88263, Note_on_c, 0, 63, 0
2, 88281, Note_on_c, 0, 55, 0
2, 88393, Note_on_c, 0, 75, 90
2, 88398, Note_on_c, 0, 39, 91
2, 88419, Control_c, 0, 64, 127
2, 88447, Note_on_c, 0, 87, 104
2, 88455, Note_on_c, 0, 79, 76
2, 88457, Note_on_c, 0, 82, 95
2, 88558, Note_on_c, 0, 51, 87
2, 88700, Note_on_c, 0, 46, 75
2, 88711, Note_on_c, 0, 46, 0
2, 88716, Note_on_c, 0, 58, 83
2, 88717, Note_on_c, 0, 55, 90
2, 88723, Note_on_c, 0, 63, 93
2, 88824, Note_on_c, 0, 67, 88
2, 88829, Note_on_c, 0, 55, 0
2, 88830, Note_on_c, 0, 58, 0
2, 88830, Note_on_c, 0, 79, 0
2, 88830, Note_on_c, 0, 82, 0
2, 88831, Note_on_c, 0, 75, 0
2, 88831, Note_on_c, 0, 87, 0
2, 88849, Control_c, 0, 64, 0
2, 88872, Note_on_c, 0, 51, 0
2, 88872, Note_on_c, 0, 63, 0
2, 88878, Note_on_c, 0, 63, 83
2, 88883, Note_on_c, 0, 70, 100
2, 88883, Note_on_c, 0, 51, 87
2, 88916, Note_on_c, 0, 46, 63
2, 88934, Control_c, 0, 64, 127
2, 89034, Note_on_c, 0, 39, 0
2, 89038, Note_on_c, 0, 39, 79
2, 89038, Note_on_c, 0, 75, 102
2, 89103, Note_on_c, 0, 46, 0
2, 89103, Control_c, 0, 64, 0
2, 89104, Note_on_c, 0, 51, 0
2, 89105, Note_on_c, 0, 75, 0
2, 89105, Note_on_c, 0, 70, 0
2, 89107, Note_on_c, 0, 39, 0
2, 89109, Note_on_c, 0, 46, 54
2, 89118, Note_on_c, 0, 63, 0
2, 89118, Note_on_c, 0, 67, 0
2, 89149, Note_on_c, 0, 46, 0
2, 89198, Note_on_c, 0, 75, 105
2, 89200, Note_on_c, 0, 70, 97
2, 89207, Note_on_c, 0, 36, 86
2, 89207, Note_on_c, 0, 67, 91
2, 89241, Control_c, 0, 64, 127
2, 89334, Control_c, 0, 64, 0
2, 89341, Note_on_c, 0, 67, 0
2, 89345, Note_on_c, 0, 48, 71
2, 89350, Note_on_c, 0, 67, 74
2, 89372, Note_on_c, 0, 73, 93
2, 89525, Note_on_c, 0, 39, 76
2, 89527, Note_on_c, 0, 51, 86
2, 89528, Note_on_c, 0, 72, 102
2, 89533, Note_on_c, 0, 70, 0
2, 89538, Note_on_c, 0, 70, 73
2, 89548, Note_on_c, 0, 36, 0
2, 89560, Note_on_c, 0, 39, 0
2, 89561, Note_on_c, 0, 51, 0
2, 89564, Note_on_c, 0, 67, 0
2, 89579, Note_on_c, 0, 48, 0
2, 89587, Note_on_c, 0, 75, 0
2, 89648, Note_on_c, 0, 73, 0
2, 89679, Note_on_c, 0, 70, 0
2, 89685, Note_on_c, 0, 36, 90
2, 89688, Note_on_c, 0, 70, 97
2, 89689, Note_on_c, 0, 43, 75
2, 89717, Note_on_c, 0, 72, 0
2, 89740, Control_c, 0, 64, 127
2, 89773, Control_c, 0, 64, 0
2, 89779, Control_c, 0, 64, 127
2, 89832, Note_on_c, 0, 36, 0
2, 89838, Note_on_c, 0, 48, 76
2, 89839, Note_on_c, 0, 36, 75
2, 89840, Note_on_c, 0, 43, 0
2, 89851, Note_on_c, 0, 73, 96
2, 89863, Control_c, 0, 64, 0
2, 89886, Note_on_c, 0, 70, 0
2, 89915, Note_on_c, 0, 72, 71
2, 89948, Control_c, 0, 64, 127
2, 89974, Note_on_c, 0, 70, 87
2, 90005, Note_on_c, 0, 58, 75
2, 90048, Note_on_c, 0, 72, 0
2, 90058, Note_on_c, 0, 72, 89
2, 90117, Note_on_c, 0, 73, 0
2, 90121, Note_on_c, 0, 73, 94
2, 90140, Note_on_c, 0, 36, 0
2, 90147, Note_on_c, 0, 36, 84
2, 90183, Note_on_c, 0, 75, 94
2, 90256, Note_on_c, 0, 77, 79
2, 90278, Note_on_c, 0, 36, 0
2, 90284, Note_on_c, 0, 36, 66
2, 90296, Note_on_c, 0, 48, 0
2, 90306, Note_on_c, 0, 79, 93
2, 90385, Note_on_c, 0, 80, 89
2, 90437, Note_on_c, 0, 58, 0
2, 90438, Note_on_c, 0, 73, 0
2, 90438, Note_on_c, 0, 36, 0
2, 90438, Control_c, 0, 64, 0
2, 90439, Note_on_c, 0, 80, 0
2, 90440, Note_on_c, 0, 75, 0
2, 90440, Note_on_c, 0, 77, 0
2, 90441, Note_on_c, 0, 70, 0
2, 90447, Note_on_c, 0, 72, 0
2, 90447, Note_on_c, 0, 79, 0
2, 90454, Note_on_c, 0, 79, 98
2, 90466, Note_on_c, 0, 41, 90
2, 90469, Note_on_c, 0, 29, 77
2, 90478, Note_on_c, 0, 29, 0
2, 90527, Note_on_c, 0, 80, 85
2, 90593, Control_c, 0, 64, 127
2, 90614, Note_on_c, 0, 53, 80
2, 90620, Note_on_c, 0, 77, 83
2, 90685, Note_on_c, 0, 79, 0
2, 90690, Note_on_c, 0, 79, 78
2, 90716, Note_on_c, 0, 80, 0
2, 90723, Note_on_c, 0, 80, 90
2, 90785, Note_on_c, 0, 53, 0
2, 90791, Note_on_c, 0, 60, 86
2, 90795, Note_on_c, 0, 53, 63
2, 90797, Note_on_c, 0, 56, 80
2, 90803, Note_on_c, 0, 84, 86
2, 90862, Note_on_c, 0, 80, 0
2, 90870, Note_on_c, 0, 80, 87
2, 90931, Note_on_c, 0, 41, 0
2, 90931, Note_on_c, 0, 84, 0
2, 90942, Note_on_c, 0, 41, 73
2, 90942, Note_on_c, 0, 84, 99
2, 90992, Control_c, 0, 64, 0
2, 91023, Control_c, 0, 64, 127
2, 91024, Note_on_c, 0, 89, 88
2, 91084, Note_on_c, 0, 92, 110
2, 91084, Note_on_c, 0, 53, 0
2, 91096, Note_on_c, 0, 53, 84
2, 91102, Note_on_c, 0, 60, 0
2, 91123, Note_on_c, 0, 56, 0
2, 91138, Note_on_c, 0, 79, 0
2, 91146, Note_on_c, 0, 77, 0
2, 91261, Note_on_c, 0, 53, 0
2, 91266, Note_on_c, 0, 60, 88
2, 91272, Note_on_c, 0, 53, 67
2, 91273, Note_on_c, 0, 56, 83
2, 91415, Note_on_c, 0, 53, 0
2, 91426, Note_on_c, 0, 53, 74
2, 91520, Note_on_c, 0, 48, 86
2, 91599, Note_on_c, 0, 41, 0
2, 91603, Note_on_c, 0, 40, 64
2, 91604, Note_on_c, 0, 41, 64
2, 91630, Note_on_c, 0, 84, 0
2, 91633, Note_on_c, 0, 92, 0
2, 91635, Note_on_c, 0, 41, 0
2, 91637, Note_on_c, 0, 60, 0
2, 91637, Note_on_c, 0, 56, 0
2, 91637, Note_on_c, 0, 89, 0
2, 91638, Note_on_c, 0, 48, 0
2, 91641, Control_c, 0, 64, 0
2, 91645, Note_on_c, 0, 80, 0
2, 91653, Note_on_c, 0, 53, 0
2, 91668, Note_on_c, 0, 40, 0
2, 91733, Note_on_c, 0, 80, 94
2, 91737, Note_on_c, 0, 68, 95
2, 91741, Note_on_c, 0, 76, 82
2, 91743, Note_on_c, 0, 52, 92
2, 91772, Note_on_c, 0, 68, 0
2, 91799, Control_c, 0, 64, 127
2, 91891, Note_on_c, 0, 52, 0
2, 91891, Note_on_c, 0, 80, 0
2, 91901, Note_on_c, 0, 80, 78
2, 91901, Note_on_c, 0, 68, 74
2, 91901, Note_on_c, 0, 52, 65
2, 91949, Note_on_c, 0, 47, 76
2, 91968, Note_on_c, 0, 80, 0
2, 91972, Note_on_c, 0, 80, 84
2, 91975, Note_on_c, 0, 68, 0
2, 91980, Note_on_c, 0, 68, 87
2, 91995, Note_on_c, 0, 47, 0
2, 92000, Note_on_c, 0, 52, 0
2, 92001, Control_c, 0, 64, 0
2, 92044, Note_on_c, 0, 68, 0
2, 92044, Note_on_c, 0, 80, 0
2, 92053, Note_on_c, 0, 80, 85
2, 92054, Note_on_c, 0, 40, 89
2, 92055, Note_on_c, 0, 68, 82
2, 92098, Control_c, 0, 64, 127
2, 92188, Note_on_c, 0, 47, 72
2, 92229, Note_on_c, 0, 68, 0
2, 92229, Note_on_c, 0, 80, 0
2, 92235, Note_on_c, 0, 68, 71
2, 92235, Note_on_c, 0, 80, 69
2, 92259, Control_c, 0, 64, 0
2, 92282, Note_on_c, 0, 47, 0
2, 92289, Note_on_c, 0, 47, 65
2, 92289, Note_on_c, 0, 52, 73
2, 92290, Note_on_c, 0, 80, 0
2, 92295, Note_on_c, 0, 80, 95
2, 92298, Note_on_c, 0, 68, 0
2, 92304, Note_on_c, 0, 68, 79
2, 92352, Note_on_c, 0, 52, 0
2, 92359, Control_c, 0, 64, 127
2, 92359, Note_on_c, 0, 52, 83
2, 92367, Note_on_c, 0, 40, 0
2, 92435, Note_on_c, 0, 56, 76
2, 92536, Note_on_c, 0, 68, 0
2, 92536, Note_on_c, 0, 80, 0
2, 92543, Note_on_c, 0, 80, 87
2, 92544, Note_on_c, 0, 68, 88
2, 92582, Note_on_c, 0, 47, 0
2, 92587, Note_on_c, 0, 47, 66
2, 92593, Note_on_c, 0, 68, 0
2, 92594, Note_on_c, 0, 80, 0
2, 92596, Note_on_c, 0, 56, 0
2, 92598, Control_c, 0, 64, 0
2, 92600, Note_on_c, 0, 52, 0
2, 92620, Note_on_c, 0, 76, 0
2, 92659, Note_on_c, 0, 47, 0
2, 92679, Note_on_c, 0, 40, 87
2, 92708, Note_on_c, 0, 82, 100
2, 92722, Note_on_c, 0, 70, 79
2, 92728, Control_c, 0, 64, 127
2, 92833, Note_on_c, 0, 47, 69
2, 92871, Note_on_c, 0, 83, 95
2, 92882, Note_on_c, 0, 71, 78
2, 92901, Note_on_c, 0, 80, 51
2, 92909, Note_on_c, 0, 52, 74
2, 92909, Note_on_c, 0, 83, 0
2, 92911, Note_on_c, 0, 71, 0
2, 92911, Note_on_c, 0, 47, 0
2, 92914, Control_c, 0, 64, 0
2, 92920, Note_on_c, 0, 70, 0
2, 92920, Note_on_c, 0, 82, 0
2, 92928, Note_on_c, 0, 40, 0
2, 92946, Note_on_c, 0, 52, 0
2, 92966, Note_on_c, 0, 80, 0
2, 93018, Note_on_c, 0, 82, 102
2, 93023, Note_on_c, 0, 54, 77
2, 93024, Note_on_c, 0, 73, 92
2, 93027, Note_on_c, 0, 70, 88
2, 93029, Note_on_c, 0, 78, 88
2, 93054, Note_on_c, 0, 54, 0
2, 93073, Control_c, 0, 64, 127
2, 93098, Note_on_c, 0, 58, 80
2, 93144, Note_on_c, 0, 54, 63
2, 93231, Note_on_c, 0, 49, 68
2, 93319, Note_on_c, 0, 82, 0
2, 93326, Note_on_c, 0, 42, 85
2, 93327, Note_on_c, 0, 82, 100
2, 93327, Note_on_c, 0, 73, 0
2, 93335, Note_on_c, 0, 73, 96
2, 93335, Note_on_c, 0, 70, 0
2, 93335, Note_on_c, 0, 78, 0
2, 93343, Note_on_c, 0, 58, 0
2, 93345, Note_on_c, 0, 70, 79
2, 93345, Note_on_c, 0, 78, 75
2, 93346, Control_c, 0, 64, 0
2, 93347, Note_on_c, 0, 54, 0
2, 93348, Note_on_c, 0, 49, 0
2, 93361, Note_on_c, 0, 76, 56
2, 93404, Note_on_c, 0, 78, 0
2, 93434, Control_c, 0, 64, 127
2, 93495, Note_on_c, 0, 78, 85
2, 93495, Note_on_c, 0, 66, 92
2, 93497, Note_on_c, 0, 49, 58
2, 93499, Note_on_c, 0, 54, 72
2, 93534, Control_c, 0, 64, 0
2, 93565, Note_on_c, 0, 66, 0
2, 93565, Note_on_c, 0, 78, 0
2, 93569, Note_on_c, 0, 66, 95
2, 93569, Note_on_c, 0, 78, 89
2, 93649, Note_on_c, 0, 42, 0
2, 93672, Control_c, 0, 64, 127
2, 93680, Note_on_c, 0, 61, 84
2, 93711, Note_on_c, 0, 49, 0
2, 93734, Note_on_c, 0, 54, 0
2, 93744, Note_on_c, 0, 54, 72
2, 93828, Control_c, 0, 64, 0
2, 93841, Note_on_c, 0, 59, 80
2, 93903, Note_on_c, 0, 54, 0
2, 93903, Control_c, 0, 64, 127
2, 93911, Note_on_c, 0, 54, 62
2, 93997, Note_on_c, 0, 58, 83
2, 94049, Note_on_c, 0, 54, 0
2, 94059, Note_on_c, 0, 54, 74
2, 94080, Note_on_c, 0, 61, 0
2, 94080, Note_on_c, 0, 73, 0
2, 94133, Note_on_c, 0, 78, 0
2, 94140, Note_on_c, 0, 49, 77
2, 94141, Note_on_c, 0, 66, 0
2, 94141, Note_on_c, 0, 70, 0
2, 94144, Note_on_c, 0, 78, 103
2, 94146, Note_on_c, 0, 66, 96
2, 94147, Note_on_c, 0, 70, 70
2, 94248, Note_on_c, 0, 82, 0
2, 94256, Note_on_c, 0, 76, 0
2, 94260, Note_on_c, 0, 58, 0
2, 94260, Note_on_c, 0, 66, 0
2, 94260, Note_on_c, 0, 49, 0
2, 94260, Note_on_c, 0, 78, 0
2, 94261, Control_c, 0, 64, 0
2, 94264, Note_on_c, 0, 70, 0
2, 94272, Note_on_c, 0, 59, 0
2, 94279, Note_on_c, 0, 54, 0
2, 94305, Note_on_c, 0, 77, 103
2, 94306, Note_on_c, 0, 68, 97
2, 94307, Note_on_c, 0, 65, 95
2, 94308, Note_on_c, 0, 73, 77
2, 94314, Note_on_c, 0, 49, 77
2, 94337, Note_on_c, 0, 68, 0
2, 94352, Note_on_c, 0, 53, 53
2, 94364, Control_c, 0, 64, 127
2, 94387, Note_on_c, 0, 49, 0
2, 94441, Note_on_c, 0, 49, 66
2, 94510, Note_on_c, 0, 44, 80
2, 94556, Note_on_c, 0, 65, 0
2, 94561, Note_on_c, 0, 49, 0
2, 94561, Note_on_c, 0, 44, 0
2, 94563, Note_on_c, 0, 77, 0
2, 94571, Note_on_c, 0, 73, 0
2, 94575, Control_c, 0, 64, 0
2, 94579, Note_on_c, 0, 53, 0
2, 94613, Note_on_c, 0, 37, 87
2, 94621, Note_on_c, 0, 77, 90
2, 94624, Note_on_c, 0, 65, 79
2, 94628, Note_on_c, 0, 68, 83
2, 94629, Note_on_c, 0, 73, 71
2, 94679, Control_c, 0, 64, 127
2, 94756, Note_on_c, 0, 44, 74
2, 94766, Note_on_c, 0, 75, 81
2, 94840, Note_on_c, 0, 65, 0
2, 94840, Note_on_c, 0, 77, 0
2, 94843, Note_on_c, 0, 49, 84
2, 94844, Note_on_c, 0, 77, 101
2, 94848, Note_on_c, 0, 65, 95
2, 94904, Note_on_c, 0, 73, 0
2, 94904, Note_on_c, 0, 68, 0
2, 94905, Note_on_c, 0, 44, 0
2, 94905, Note_on_c, 0, 75, 0
2, 94905, Control_c, 0, 64, 0
2, 94905, Note_on_c, 0, 49, 0
2, 94906, Note_on_c, 0, 37, 0
2, 94907, Note_on_c, 0, 65, 0
2, 94956, Note_on_c, 0, 49, 91
2, 95001, Note_on_c, 0, 77, 0
2, 95061, Note_on_c, 0, 53, 70
2, 95063, Control_c, 0, 64, 127
2, 95101, Note_on_c, 0, 77, 102
2, 95111, Note_on_c, 0, 65, 92
2, 95227, Note_on_c, 0, 53, 0
2, 95228, Note_on_c, 0, 65, 0
2, 95236, Control_c, 0, 64, 0
2, 95239, Note_on_c, 0, 49, 0
2, 95255, Note_on_c, 0, 77, 0
2, 95259, Note_on_c, 0, 37, 79
2, 95260, Note_on_c, 0, 79, 100
2, 95267, Note_on_c, 0, 67, 76
2, 95289, Note_on_c, 0, 79, 0
2, 95324, Control_c, 0, 64, 127
2, 95412, Note_on_c, 0, 49, 80
2, 95417, Note_on_c, 0, 80, 104
2, 95423, Note_on_c, 0, 68, 92
2, 95519, Note_on_c, 0, 68, 0
2, 95519, Note_on_c, 0, 80, 0
2, 95520, Note_on_c, 0, 49, 0
2, 95531, Note_on_c, 0, 37, 0
2, 95537, Control_c, 0, 64, 0
2, 95539, Note_on_c, 0, 67, 0
2, 95576, Note_on_c, 0, 80, 106
2, 95577, Note_on_c, 0, 39, 85
2, 95584, Note_on_c, 0, 75, 95
2, 95587, Note_on_c, 0, 70, 86
2, 95728, Note_on_c, 0, 46, 35
2, 95769, Control_c, 0, 64, 127
2, 95819, Note_on_c, 0, 51, 70
2, 95881, Note_on_c, 0, 55, 77
2, 95992, Note_on_c, 0, 51, 0
2, 96002, Note_on_c, 0, 51, 57
2, 96053, Note_on_c, 0, 55, 0
2, 96060, Note_on_c, 0, 79, 79
2, 96063, Note_on_c, 0, 55, 71
2, 96107, Note_on_c, 0, 75, 0
2, 96112, Note_on_c, 0, 75, 54
2, 96153, Note_on_c, 0, 77, 74
2, 96156, Note_on_c, 0, 58, 74
2, 96210, Note_on_c, 0, 63, 73
2, 96222, Note_on_c, 0, 79, 0
2, 96227, Note_on_c, 0, 79, 103
2, 96230, Note_on_c, 0, 70, 0
2, 96230, Note_on_c, 0, 75, 0
2, 96240, Note_on_c, 0, 75, 97
2, 96241, Note_on_c, 0, 70, 97
2, 96291, Note_on_c, 0, 55, 0
2, 96303, Note_on_c, 0, 55, 70
2, 96384, Note_on_c, 0, 58, 0
2, 96388, Note_on_c, 0, 58, 58
2, 96445, Note_on_c, 0, 63, 0
2, 96454, Note_on_c, 0, 63, 84
2, 96540, Note_on_c, 0, 67, 89
2, 96629, Note_on_c, 0, 58, 0
2, 96641, Note_on_c, 0, 58, 58
2, 96646, Note_on_c, 0, 56, 64
2, 96698, Note_on_c, 0, 63, 0
2, 96710, Note_on_c, 0, 63, 86
2, 96775, Note_on_c, 0, 67, 0
2, 96784, Note_on_c, 0, 67, 86
2, 96852, Note_on_c, 0, 70, 0
2, 96863, Note_on_c, 0, 70, 96
2, 96936, Note_on_c, 0, 63, 0
2, 96948, Note_on_c, 0, 63, 93
2, 97021, Note_on_c, 0, 67, 0
2, 97027, Note_on_c, 0, 67, 82
2, 97090, Note_on_c, 0, 70, 0
2, 97095, Note_on_c, 0, 70, 84
2, 97167, Note_on_c, 0, 75, 0
2, 97177, Note_on_c, 0, 75, 92
2, 97205, Note_on_c, 0, 79, 0
2, 97215, Note_on_c, 0, 79, 81
2, 97245, Note_on_c, 0, 82, 88
2, 97276, Note_on_c, 0, 87, 92
2, 97355, Note_on_c, 0, 91, 92
2, 97401, Note_on_c, 0, 94, 93
2, 97452, Note_on_c, 0, 99, 89
2, 97474, Note_on_c, 0, 77, 0
2, 97478, Note_on_c, 0, 58, 0
2, 97479, Note_on_c, 0, 51, 0
2, 97479, Note_on_c, 0, 80, 0
2, 97479, Note_on_c, 0, 91, 0
2, 97480, Note_on_c, 0, 67, 0
2, 97480, Note_on_c, 0, 82, 0
2, 97480, Note_on_c, 0, 79, 0
2, 97480, Note_on_c, 0, 87, 0
2, 97481, Note_on_c, 0, 56, 0
2, 97481, Note_on_c, 0, 94, 0
2, 97481, Control_c, 0, 64, 0
2, 97481, Note_on_c, 0, 70, 0
2, 97482, Note_on_c, 0, 75, 0
2, 97497, Note_on_c, 0, 46, 0
2, 97497, Note_on_c, 0, 55, 0
2, 97497, Note_on_c, 0, 63, 0
2, 97505, Note_on_c, 0, 39, 0
2, 97654, Note_on_c, 0, 95, 78
2, 97657, Note_on_c, 0, 83, 67
2, 97658, Note_on_c, 0, 99, 0
2, 97720, Control_c, 0, 64, 127
2, 97815, Note_on_c, 0, 94, 81
2, 97817, Note_on_c, 0, 82, 70
2, 97972, Note_on_c, 0, 90, 82
2, 97987, Note_on_c, 0, 78, 59
2, 98119, Note_on_c, 0, 78, 0
2, 98119, Note_on_c, 0, 90, 0
2, 98128, Note_on_c, 0, 78, 64
2, 98128, Note_on_c, 0, 90, 81
2, 98131, Note_on_c, 0, 56, 69
2, 98217, Note_on_c, 0, 63, 50
2, 98288, Note_on_c, 0, 83, 0
2, 98297, Note_on_c, 0, 83, 68
2, 98299, Note_on_c, 0, 92, 73
2, 98300, Note_on_c, 0, 68, 70
2, 98357, Note_on_c, 0, 92, 0
2, 98364, Note_on_c, 0, 92, 85
2, 98365, Note_on_c, 0, 83, 0
2, 98369, Note_on_c, 0, 80, 75
2, 98369, Note_on_c, 0, 83, 68
2, 98398, Note_on_c, 0, 71, 55
2, 98463, Note_on_c, 0, 75, 69
2, 98557, Note_on_c, 0, 71, 0
2, 98566, Note_on_c, 0, 71, 43
2, 98626, Note_on_c, 0, 78, 0
2, 98626, Note_on_c, 0, 90, 0
2, 98632, Note_on_c, 0, 90, 78
2, 98634, Note_on_c, 0, 68, 0
2, 98637, Note_on_c, 0, 78, 69
2, 98638, Note_on_c, 0, 68, 66
2, 98688, Note_on_c, 0, 63, 0
2, 98695, Note_on_c, 0, 63, 54
2, 98780, Note_on_c, 0, 56, 0
2, 98787, Note_on_c, 0, 90, 0
2, 98789, Note_on_c, 0, 56, 65
2, 98792, Note_on_c, 0, 90, 80
2, 98795, Note_on_c, 0, 78, 0
2, 98801, Note_on_c, 0, 78, 65
2, 98895, Note_on_c, 0, 63, 0
2, 98906, Note_on_c, 0, 63, 53
2, 98941, Note_on_c, 0, 83, 0
2, 98949, Note_on_c, 0, 68, 0
2, 98949, Note_on_c, 0, 80, 0
2, 98949, Note_on_c, 0, 92, 0
2, 98950, Note_on_c, 0, 83, 65
2, 98953, Note_on_c, 0, 92, 72
2, 98954, Note_on_c, 0, 68, 76
2, 98954, Note_on_c, 0, 80, 71
2, 99018, Note_on_c, 0, 83, 0
2, 99018, Note_on_c, 0, 92, 0
2, 99025, Note_on_c, 0, 83, 85
2, 99025, Note_on_c, 0, 80, 0
2, 99028, Note_on_c, 0, 92, 92
2, 99031, Note_on_c, 0, 80, 82
2, 99041, Note_on_c, 0, 71, 0
2, 99052, Note_on_c, 0, 71, 69
2, 99133, Note_on_c, 0, 75, 0
2, 99137, Note_on_c, 0, 75, 65
2, 99210, Note_on_c, 0, 71, 0
2, 99216, Note_on_c, 0, 71, 72
2, 99287, Note_on_c, 0, 78, 0
2, 99287, Note_on_c, 0, 90, 0
2, 99291, Note_on_c, 0, 90, 84
2, 99291, Note_on_c, 0, 78, 79
2, 99294, Note_on_c, 0, 68, 0
2, 99305, Note_on_c, 0, 68, 65
2, 99317, Note_on_c, 0, 63, 0
2, 99327, Note_on_c, 0, 63, 71
2, 99444, Note_on_c, 0, 95, 0
2, 99444, Control_c, 0, 64, 0
2, 99445, Note_on_c, 0, 71, 0
2, 99445, Note_on_c, 0, 92, 0
2, 99445, Note_on_c, 0, 83, 0
2, 99445, Note_on_c, 0, 63, 0
2, 99446, Note_on_c, 0, 75, 0
2, 99446, Note_on_c, 0, 80, 0
2, 99448, Note_on_c, 0, 82, 0
2, 99448, Note_on_c, 0, 94, 0
2, 99463, Note_on_c, 0, 68, 0
2, 99463, Note_on_c, 0, 78, 0
2, 99463, Note_on_c, 0, 90, 0
2, 99469, Note_on_c, 0, 52, 78
2, 99471, Note_on_c, 0, 56, 0
2, 99472, Note_on_c, 0, 90, 99
2, 99475, Note_on_c, 0, 78, 92
2, 99520, Note_on_c, 0, 78, 0
2, 99525, Control_c, 0, 64, 127
2, 99577, Note_on_c, 0, 59, 69
2, 99628, Note_on_c, 0, 80, 73
2, 99629, Note_on_c, 0, 83, 76
2, 99629, Note_on_c, 0, 92, 80
2, 99632, Note_on_c, 0, 80, 0
2, 99641, Note_on_c, 0, 64, 77
2, 99694, Note_on_c, 0, 83, 0
2, 99701, Note_on_c, 0, 92, 0
2, 99705, Note_on_c, 0, 83, 92
2, 99705, Note_on_c, 0, 92, 89
2, 99707, Note_on_c, 0, 80, 85
2, 99747, Note_on_c, 0, 68, 68
2, 99803, Note_on_c, 0, 71, 83
2, 99855, Note_on_c, 0, 68, 0
2, 99862, Note_on_c, 0, 68, 85
2, 99947, Note_on_c, 0, 90, 0
2, 99954, Note_on_c, 0, 90, 99
2, 99955, Note_on_c, 0, 64, 0
2, 99958, Note_on_c, 0, 78, 90
2, 99959, Note_on_c, 0, 64, 65
2, 100008, Note_on_c, 0, 59, 0
2, 100019, Note_on_c, 0, 59, 68
2, 100087, Note_on_c, 0, 68, 0
2, 100087, Note_on_c, 0, 80, 0
2, 100087, Note_on_c, 0, 90, 0
2, 100087, Note_on_c, 0, 71, 0
2, 100087, Note_on_c, 0, 64, 0
2, 100088, Note_on_c, 0, 78, 0
2, 100088, Note_on_c, 0, 59, 0
2, 100089, Control_c, 0, 64, 0
2, 100101, Note_on_c, 0, 52, 0
2, 100108, Note_on_c, 0, 83, 0
2, 100108, Note_on_c, 0, 92, 0
2, 100110, Note_on_c, 0, 52, 85
2, 100117, Note_on_c, 0, 92, 97
2, 100119, Note_on_c, 0, 83, 83
2, 100120, Note_on_c, 0, 80, 82
2, 100154, Control_c, 0, 64, 127
2, 100212, Note_on_c, 0, 59, 67
2, 100281, Note_on_c, 0, 64, 80
2, 100289, Note_on_c, 0, 94, 94
2, 100292, Note_on_c, 0, 82, 82
2, 100404, Note_on_c, 0, 68, 80
2, 100429, Note_on_c, 0, 95, 95
2, 100431, Note_on_c, 0, 83, 0
2, 100437, Note_on_c, 0, 83, 86
2, 100553, Note_on_c, 0, 65, 59
2, 100585, Note_on_c, 0, 97, 97
2, 100596, Note_on_c, 0, 85, 91
2, 100619, Note_on_c, 0, 61, 62
2, 100705, Note_on_c, 0, 92, 0
2, 100705, Note_on_c, 0, 95, 0
2, 100705, Note_on_c, 0, 52, 0
2, 100705, Note_on_c, 0, 97, 0
2, 100705, Note_on_c, 0, 82, 0
2, 100705, Note_on_c, 0, 80, 0
2, 100705, Note_on_c, 0, 68, 0
2, 100706, Note_on_c, 0, 64, 0
2, 100706, Note_on_c, 0, 83, 0
2, 100706, Note_on_c, 0, 61, 0
2, 100707, Note_on_c, 0, 59, 0
2, 100710, Control_c, 0, 64, 0
2, 100715, Note_on_c, 0, 65, 0
2, 100735, Note_on_c, 0, 54, 65
2, 100738, Note_on_c, 0, 85, 0
2, 100738, Note_on_c, 0, 94, 0
2, 100742, Note_on_c, 0, 94, 99
2, 100743, Note_on_c, 0, 85, 81
2, 100746, Note_on_c, 0, 82, 87
2, 100784, Control_c, 0, 64, 127
2, 100822, Note_on_c, 0, 61, 67
2, 100892, Note_on_c, 0, 66, 82
2, 101008, Note_on_c, 0, 70, 73
2, 101077, Note_on_c, 0, 90, 100
2, 101078, Note_on_c, 0, 78, 83
2, 101079, Note_on_c, 0, 73, 83
2, 101122, Note_on_c, 0, 70, 0
2, 101128, Note_on_c, 0, 70, 65
2, 101199, Note_on_c, 0, 66, 0
2, 101204, Note_on_c, 0, 66, 86
2, 101253, Note_on_c, 0, 61, 0
2, 101262, Note_on_c, 0, 61, 81
2, 101382, Note_on_c, 0, 70, 0
2, 101382, Note_on_c, 0, 73, 0
2, 101382, Note_on_c, 0, 61, 0
2, 101382, Note_on_c, 0, 82, 0
2, 101382, Note_on_c, 0, 85, 0
2, 101383, Note_on_c, 0, 78, 0
2, 101384, Note_on_c, 0, 66, 0
2, 101386, Control_c, 0, 64, 0
2, 101395, Note_on_c, 0, 100, 103
2, 101399, Note_on_c, 0, 54, 0
2, 101399, Note_on_c, 0, 90, 0
2, 101406, Note_on_c, 0, 94, 0
2, 101407, Note_on_c, 0, 88, 88
2, 101408, Note_on_c, 0, 90, 87
2, 101416, Note_on_c, 0, 94, 70
2, 101452, Control_c, 0, 64, 127
2, 101473, Note_on_c, 0, 61, 71
2, 101549, Note_on_c, 0, 66, 85
2, 101679, Note_on_c, 0, 70, 60
2, 101721, Note_on_c, 0, 90, 0
2, 101721, Note_on_c, 0, 94, 0
2, 101728, Note_on_c, 0, 94, 89
2, 101730, Note_on_c, 0, 90, 90
2, 101731, Note_on_c, 0, 85, 96
2, 101731, Note_on_c, 0, 97, 85
2, 101738, Note_on_c, 0, 73, 78
2, 101844, Note_on_c, 0, 66, 0
2, 101849, Note_on_c, 0, 66, 84
2, 101852, Note_on_c, 0, 100, 0
2, 101921, Note_on_c, 0, 61, 0
2, 101931, Note_on_c, 0, 61, 72
2, 102040, Note_on_c, 0, 59, 85
2, 102043, Note_on_c, 0, 94, 0
2, 102044, Note_on_c, 0, 85, 0
2, 102044, Note_on_c, 0, 90, 0
2, 102044, Note_on_c, 0, 97, 0
2, 102045, Note_on_c, 0, 73, 0
2, 102045, Note_on_c, 0, 61, 0
2, 102045, Note_on_c, 0, 88, 0
2, 102045, Note_on_c, 0, 66, 0
2, 102046, Control_c, 0, 64, 0
2, 102048, Note_on_c, 0, 97, 90
2, 102048, Note_on_c, 0, 90, 87
2, 102048, Note_on_c, 0, 85, 89
2, 102059, Note_on_c, 0, 70, 0
2, 102124, Note_on_c, 0, 63, 63
2, 102151, Control_c, 0, 64, 127
2, 102213, Note_on_c, 0, 66, 78
2, 102282, Note_on_c, 0, 85, 0
2, 102282, Note_on_c, 0, 97, 0
2, 102287, Note_on_c, 0, 97, 92
2, 102292, Note_on_c, 0, 85, 90
2, 102296, Note_on_c, 0, 71, 70
2, 102394, Note_on_c, 0, 73, 55
2, 102394, Note_on_c, 0, 61, 47
2, 102466, Note_on_c, 0, 71, 0
2, 102477, Note_on_c, 0, 71, 66
2, 102524, Note_on_c, 0, 99, 98
2, 102528, Note_on_c, 0, 90, 0
2, 102533, Note_on_c, 0, 90, 85
2, 102535, Note_on_c, 0, 66, 0
2, 102539, Note_on_c, 0, 87, 78
2, 102546, Note_on_c, 0, 66, 81
2, 102574, Note_on_c, 0, 63, 0
2, 102580, Note_on_c, 0, 63, 70
2, 102684, Note_on_c, 0, 58, 83
2, 102712, Note_on_c, 0, 59, 0
2, 102714, Note_on_c, 0, 99, 0
2, 102715, Note_on_c, 0, 90, 0
2, 102715, Note_on_c, 0, 63, 0
2, 102715, Note_on_c, 0, 85, 0
2, 102715, Note_on_c, 0, 71, 0
2, 102715, Note_on_c, 0, 97, 0
2, 102715, Note_on_c, 0, 73, 0
2, 102716, Note_on_c, 0, 66, 0
2, 102721, Control_c, 0, 64, 0
2, 102735, Note_on_c, 0, 61, 0
2, 102766, Note_on_c, 0, 58, 0
2, 102777, Note_on_c, 0, 61, 73
2, 102796, Control_c, 0, 64, 127
2, 102846, Note_on_c, 0, 66, 73
2, 102863, Note_on_c, 0, 95, 84
2, 102871, Note_on_c, 0, 83, 75
2, 102929, Note_on_c, 0, 70, 74
2, 103023, Note_on_c, 0, 94, 90
2, 103028, Note_on_c, 0, 82, 85
2, 103065, Note_on_c, 0, 70, 0
2, 103072, Note_on_c, 0, 70, 73
2, 103142, Note_on_c, 0, 66, 0
2, 103152, Note_on_c, 0, 66, 81
2, 103176, Note_on_c, 0, 90, 94
2, 103183, Note_on_c, 0, 78, 78
2, 103196, Note_on_c, 0, 61, 0
2, 103206, Note_on_c, 0, 61, 75
2, 103323, Note_on_c, 0, 61, 0
2, 103323, Note_on_c, 0, 95, 0
2, 103323, Control_c, 0, 64, 0
2, 103323, Note_on_c, 0, 94, 0
2, 103323, Note_on_c, 0, 66, 0
2, 103324, Note_on_c, 0, 83, 0
2, 103324, Note_on_c, 0, 70, 0
2, 103324, Note_on_c, 0, 82, 0
2, 103326, Note_on_c, 0, 56, 76
2, 103326, Note_on_c, 0, 78, 0
2, 103326, Note_on_c, 0, 87, 0
2, 103326, Note_on_c, 0, 90, 0
2, 103330, Note_on_c, 0, 90, 101
2, 103337, Note_on_c, 0, 78, 78
2, 103383, Note_on_c, 0, 56, 0
2, 103403, Control_c, 0, 64, 127
2, 103417, Note_on_c, 0, 63, 57
2, 103493, Note_on_c, 0, 83, 80
2, 103496, Note_on_c, 0, 68, 84
2, 103549, Note_on_c, 0, 83, 0
2, 103559, Note_on_c, 0, 83, 91
2, 103560, Note_on_c, 0, 92, 100
2, 103590, Note_on_c, 0, 71, 65
2, 103667, Note_on_c, 0, 75, 73
2, 103810, Note_on_c, 0, 68, 0
2, 103810, Note_on_c, 0, 90, 0
2, 103815, Note_on_c, 0, 68, 82
2, 103821, Note_on_c, 0, 90, 91
2, 103825, Note_on_c, 0, 78, 0
2, 103830, Note_on_c, 0, 78, 79
2, 103895, Note_on_c, 0, 63, 0
2, 103906, Note_on_c, 0, 63, 74
2, 103979, Note_on_c, 0, 90, 0
2, 103984, Note_on_c, 0, 68, 0
2, 103984, Note_on_c, 0, 71, 0
2, 103984, Note_on_c, 0, 63, 0
2, 103984, Note_on_c, 0, 92, 0
2, 103984, Note_on_c, 0, 56, 71
2, 103984, Note_on_c, 0, 75, 0
2, 103984, Note_on_c, 0, 83, 0
2, 103984, Control_c, 0, 64, 0
2, 103987, Note_on_c, 0, 78, 0
2, 103990, Note_on_c, 0, 90, 98
2, 103994, Note_on_c, 0, 78, 76
2, 104064, Control_c, 0, 64, 127
2, 104069, Note_on_c, 0, 63, 64
2, 104139, Note_on_c, 0, 80, 86
2, 104139, Note_on_c, 0, 83, 87
2, 104141, Note_on_c, 0, 92, 90
2, 104149, Note_on_c, 0, 68, 83
2, 104202, Note_on_c, 0, 83, 0
2, 104202, Note_on_c, 0, 92, 0
2, 104211, Note_on_c, 0, 83, 89
2, 104213, Note_on_c, 0, 92, 82
2, 104225, Note_on_c, 0, 80, 0
2, 104235, Note_on_c, 0, 80, 74
2, 104241, Note_on_c, 0, 71, 68
2, 104318, Note_on_c, 0, 73, 71
2, 104394, Note_on_c, 0, 71, 0
2, 104401, Note_on_c, 0, 71, 74
2, 104471, Note_on_c, 0, 68, 0
2, 104471, Note_on_c, 0, 78, 0
2, 104471, Note_on_c, 0, 90, 0
2, 104475, Note_on_c, 0, 68, 69
2, 104475, Note_on_c, 0, 90, 96
2, 104476, Note_on_c, 0, 78, 89
2, 104501, Note_on_c, 0, 63, 0
2, 104508, Note_on_c, 0, 63, 73
2, 104619, Note_on_c, 0, 52, 85
2, 104631, Note_on_c, 0, 71, 0
2, 104631, Note_on_c, 0, 56, 0
2, 104631, Note_on_c, 0, 68, 0
2, 104632, Note_on_c, 0, 92, 0
2, 104632, Note_on_c, 0, 78, 0
2, 104632, Note_on_c, 0, 90, 0
2, 104632, Note_on_c, 0, 63, 0
2, 104632, Control_c, 0, 64, 0
2, 104633, Note_on_c, 0, 73, 0
2, 104634, Note_on_c, 0, 80, 0
2, 104639, Note_on_c, 0, 90, 98
2, 104642, Note_on_c, 0, 78, 92
2, 104647, Note_on_c, 0, 83, 0
2, 104709, Note_on_c, 0, 78, 0
2, 104709, Control_c, 0, 64, 127
2, 104734, Note_on_c, 0, 59, 72
2, 104790, Note_on_c, 0, 64, 81
2, 104790, Note_on_c, 0, 83, 86
2, 104791, Note_on_c, 0, 92, 89
2, 104794, Note_on_c, 0, 88, 69
2, 104795, Note_on_c, 0, 80, 80
2, 104855, Note_on_c, 0, 83, 0
2, 104855, Note_on_c, 0, 92, 0
2, 104862, Note_on_c, 0, 80, 0
2, 104864, Note_on_c, 0, 92, 96
2, 104865, Note_on_c, 0, 83, 85
2, 104868, Note_on_c, 0, 80, 91
2, 104881, Note_on_c, 0, 68, 75
2, 104970, Note_on_c, 0, 71, 73
2, 105024, Note_on_c, 0, 68, 0
2, 105034, Note_on_c, 0, 68, 76
2, 105100, Note_on_c, 0, 90, 0
2, 105111, Note_on_c, 0, 90, 94
2, 105128, Note_on_c, 0, 78, 77
2, 105169, Note_on_c, 0, 59, 0
2, 105173, Note_on_c, 0, 59, 66
2, 105241, Note_on_c, 0, 68, 0
2, 105241, Note_on_c, 0, 90, 0
2, 105241, Note_on_c, 0, 80, 0
2, 105241, Note_on_c, 0, 71, 0
2, 105241, Note_on_c, 0, 64, 0
2, 105242, Note_on_c, 0, 59, 0
2, 105242, Note_on_c, 0, 78, 0
2, 105242, Control_c, 0, 64, 0
2, 105254, Note_on_c, 0, 88, 0
2, 105269, Note_on_c, 0, 52, 0
2, 105269, Note_on_c, 0, 83, 0
2, 105269, Note_on_c, 0, 92, 0
2, 105276, Note_on_c, 0, 92, 93
2, 105276, Note_on_c, 0, 83, 89
2, 105277, Note_on_c, 0, 52, 86
2, 105279, Note_on_c, 0, 80, 84
2, 105315, Control_c, 0, 64, 127
2, 105357, Note_on_c, 0, 59, 71
2, 105427, Note_on_c, 0, 64, 72
2, 105440, Note_on_c, 0, 94, 97
2, 105441, Note_on_c, 0, 82, 89
2, 105564, Note_on_c, 0, 71, 81
2, 105592, Note_on_c, 0, 83, 0
2, 105595, Note_on_c, 0, 95, 95
2, 105597, Note_on_c, 0, 83, 89
2, 105634, Note_on_c, 0, 68, 74
2, 105722, Note_on_c, 0, 64, 0
2, 105731, Note_on_c, 0, 64, 74
2, 105751, Note_on_c, 0, 97, 94
2, 105757, Note_on_c, 0, 85, 97
2, 105867, Note_on_c, 0, 56, 61
2, 105899, Note_on_c, 0, 92, 0
2, 105904, Control_c, 0, 64, 0
2, 105904, Note_on_c, 0, 64, 0
2, 105905, Note_on_c, 0, 68, 0
2, 105905, Note_on_c, 0, 94, 0
2, 105906, Note_on_c, 0, 83, 0
2, 105907, Note_on_c, 0, 80, 0
2, 105907, Note_on_c, 0, 92, 106
2, 105907, Note_on_c, 0, 95, 0
2, 105908, Note_on_c, 0, 59, 0
2, 105909, Note_on_c, 0, 71, 0
2, 105909, Note_on_c, 0, 82, 0
2, 105913, Note_on_c, 0, 80, 97
2, 105914, Note_on_c, 0, 85, 0
2, 105914, Note_on_c, 0, 97, 0
2, 105921, Note_on_c, 0, 85, 77
2, 105922, Note_on_c, 0, 88, 85
2, 105930, Note_on_c, 0, 52, 0
2, 105930, Note_on_c, 0, 56, 0
2, 105930, Note_on_c, 0, 49, 71
2, 105991, Note_on_c, 0, 49, 0
2, 105991, Control_c, 0, 64, 127
2, 106031, Note_on_c, 0, 56, 56
2, 106092, Note_on_c, 0, 61, 69
2, 106177, Note_on_c, 0, 64, 67
2, 106231, Note_on_c, 0, 68, 84
2, 106321, Note_on_c, 0, 64, 0
2, 106331, Note_on_c, 0, 64, 71
2, 106383, Note_on_c, 0, 61, 0
2, 106388, Note_on_c, 0, 61, 75
2, 106460, Note_on_c, 0, 56, 0
2, 106471, Note_on_c, 0, 56, 61
2, 106527, Note_on_c, 0, 68, 0
2, 106528, Note_on_c, 0, 56, 0
2, 106528, Note_on_c, 0, 61, 0
2, 106530, Note_on_c, 0, 64, 0
2, 106531, Control_c, 0, 64, 0
2, 106531, Note_on_c, 0, 88, 0
2, 106544, Note_on_c, 0, 80, 0
2, 106544, Note_on_c, 0, 92, 0
2, 106549, Note_on_c, 0, 49, 79
2, 106552, Note_on_c, 0, 85, 0
2, 106553, Note_on_c, 0, 92, 100
2, 106555, Note_on_c, 0, 80, 96
2, 106556, Note_on_c, 0, 85, 90
2, 106613, Control_c, 0, 64, 127
2, 106632, Note_on_c, 0, 56, 44
2, 106702, Note_on_c, 0, 61, 76
2, 106714, Note_on_c, 0, 94, 97
2, 106716, Note_on_c, 0, 82, 90
2, 106778, Note_on_c, 0, 64, 74
2, 106850, Note_on_c, 0, 68, 82
2, 106864, Note_on_c, 0, 95, 90
2, 106873, Note_on_c, 0, 83, 83
2, 106959, Note_on_c, 0, 64, 0
2, 106964, Note_on_c, 0, 64, 79
2, 107020, Note_on_c, 0, 85, 0
2, 107025, Note_on_c, 0, 97, 96
2, 107032, Note_on_c, 0, 85, 93
2, 107134, Note_on_c, 0, 95, 0
2, 107135, Note_on_c, 0, 68, 0
2, 107136, Note_on_c, 0, 97, 0
2, 107136, Note_on_c, 0, 82, 0
2, 107137, Note_on_c, 0, 83, 0
2, 107137, Note_on_c, 0, 92, 0
2, 107137, Note_on_c, 0, 61, 0
2, 107137, Note_on_c, 0, 80, 0
2, 107138, Note_on_c, 0, 64, 0
2, 107138, Note_on_c, 0, 56, 0
2, 107140, Control_c, 0, 64, 0
2, 107143, Note_on_c, 0, 49, 0
2, 107151, Note_on_c, 0, 85, 0
2, 107163, Note_on_c, 0, 51, 87
2, 107174, Note_on_c, 0, 94, 0
2, 107185, Note_on_c, 0, 94, 107
2, 107188, Note_on_c, 0, 85, 96
2, 107189, Note_on_c, 0, 82, 96
2, 107220, Control_c, 0, 64, 127
2, 107269, Note_on_c, 0, 54, 60
2, 107276, Note_on_c, 0, 58, 71
2, 107347, Note_on_c, 0, 63, 77
2, 107435, Note_on_c, 0, 82, 0
2, 107439, Note_on_c, 0, 82, 96
2, 107439, Note_on_c, 0, 90, 99
2, 107440, Note_on_c, 0, 78, 96
2, 107447, Note_on_c, 0, 66, 87
2, 107533, Note_on_c, 0, 70, 71
2, 107578, Note_on_c, 0, 75, 85
2, 107619, Note_on_c, 0, 70, 0
2, 107627, Note_on_c, 0, 70, 69
2, 107665, Note_on_c, 0, 66, 0
2, 107670, Note_on_c, 0, 66, 92
2, 107676, Note_on_c, 0, 87, 98
2, 107704, Note_on_c, 0, 85, 0
2, 107713, Note_on_c, 0, 85, 50
2, 107758, Note_on_c, 0, 63, 0
2, 107769, Note_on_c, 0, 63, 79
2, 107804, Note_on_c, 0, 58, 0
2, 107815, Note_on_c, 0, 58, 77
2, 107857, Note_on_c, 0, 54, 0
2, 107865, Note_on_c, 0, 54, 74
2, 107950, Note_on_c, 0, 51, 0
2, 107961, Note_on_c, 0, 83, 102
2, 107961, Note_on_c, 0, 51, 81
2, 107966, Note_on_c, 0, 71, 88
2, 108027, Note_on_c, 0, 46, 82
2, 108111, Note_on_c, 0, 82, 0
2, 108122, Note_on_c, 0, 82, 105
2, 108122, Note_on_c, 0, 39, 99
2, 108125, Note_on_c, 0, 27, 92
2, 108126, Note_on_c, 0, 70, 0
2, 108134, Note_on_c, 0, 27, 0
2, 108134, Note_on_c, 0, 71, 0
2, 108135, Note_on_c, 0, 73, 83
2, 108136, Note_on_c, 0, 70, 96
2, 108144, Note_on_c, 0, 71, 75
2, 108264, Note_on_c, 0, 66, 0
2, 108264, Note_on_c, 0, 78, 0
2, 108274, Note_on_c, 0, 78, 112
2, 108275, Note_on_c, 0, 66, 111
2, 108284, Note_on_c, 0, 85, 0
2, 108285, Note_on_c, 0, 90, 0
2, 108285, Note_on_c, 0, 87, 0
2, 108285, Note_on_c, 0, 46, 0
2, 108285, Note_on_c, 0, 54, 0
2, 108286, Note_on_c, 0, 58, 0
2, 108286, Note_on_c, 0, 83, 0
2, 108286, Note_on_c, 0, 71, 0
2, 108287, Note_on_c, 0, 75, 0
2, 108287, Note_on_c, 0, 51, 0
2, 108287, Note_on_c, 0, 82, 0
2, 108288, Note_on_c, 0, 94, 0
2, 108288, Note_on_c, 0, 70, 0
2, 108289, Control_c, 0, 64, 0
2, 108290, Note_on_c, 0, 39, 0
2, 108303, Note_on_c, 0, 63, 0
2, 108303, Note_on_c, 0, 73, 0
2, 108318, Note_on_c, 0, 66, 0
2, 108334, Note_on_c, 0, 78, 0
2, 108430, Note_on_c, 0, 78, 112
2, 108435, Note_on_c, 0, 66, 104
2, 108437, Note_on_c, 0, 32, 95
2, 108438, Note_on_c, 0, 44, 99
2, 108472, Control_c, 0, 64, 127
2, 108598, Note_on_c, 0, 68, 83
2, 108599, Note_on_c, 0, 71, 80
2, 108656, Note_on_c, 0, 68, 0
2, 108656, Note_on_c, 0, 71, 0
2, 108660, Note_on_c, 0, 80, 106
2, 108661, Note_on_c, 0, 68, 99
2, 108666, Note_on_c, 0, 71, 83
2, 108667, Note_on_c, 0, 75, 74
2, 108810, Note_on_c, 0, 44, 0
2, 108817, Note_on_c, 0, 68, 0
2, 108818, Note_on_c, 0, 44, 58
2, 108823, Note_on_c, 0, 68, 73
2, 108909, Note_on_c, 0, 51, 70
2, 108917, Note_on_c, 0, 51, 0
2, 108925, Note_on_c, 0, 66, 0
2, 108925, Note_on_c, 0, 78, 0
2, 108935, Note_on_c, 0, 78, 95
2, 108936, Note_on_c, 0, 66, 93
2, 109000, Note_on_c, 0, 80, 0
2, 109000, Note_on_c, 0, 66, 0
2, 109000, Note_on_c, 0, 68, 0
2, 109001, Note_on_c, 0, 78, 0
2, 109001, Note_on_c, 0, 32, 0
2, 109001, Note_on_c, 0, 44, 0
2, 109002, Note_on_c, 0, 75, 0
2, 109006, Control_c, 0, 64, 0
2, 109025, Note_on_c, 0, 71, 0
2, 109093, Note_on_c, 0, 44, 99
2, 109093, Note_on_c, 0, 78, 110
2, 109096, Note_on_c, 0, 32, 95
2, 109098, Note_on_c, 0, 66, 105
2, 109125, Control_c, 0, 64, 127
2, 109247, Note_on_c, 0, 80, 96
2, 109249, Note_on_c, 0, 71, 87
2, 109249, Note_on_c, 0, 68, 91
2, 109255, Note_on_c, 0, 32, 0
2, 109260, Note_on_c, 0, 32, 68
2, 109309, Note_on_c, 0, 68, 0
2, 109317, Note_on_c, 0, 32, 0
2, 109318, Note_on_c, 0, 68, 102
2, 109322, Note_on_c, 0, 32, 80
2, 109332, Note_on_c, 0, 44, 0
2, 109336, Note_on_c, 0, 44, 72
2, 109470, Note_on_c, 0, 44, 0
2, 109474, Note_on_c, 0, 51, 61
2, 109478, Note_on_c, 0, 71, 0
2, 109479, Note_on_c, 0, 44, 74
2, 109486, Note_on_c, 0, 51, 0
2, 109489, Note_on_c, 0, 71, 64
2, 109570, Note_on_c, 0, 66, 0
2, 109570, Note_on_c, 0, 78, 0
2, 109574, Note_on_c, 0, 68, 0
2, 109575, Note_on_c, 0, 51, 83
2, 109576, Note_on_c, 0, 78, 103
2, 109579, Note_on_c, 0, 66, 99
2, 109672, Note_on_c, 0, 32, 0
2, 109673, Note_on_c, 0, 80, 0
2, 109673, Note_on_c, 0, 71, 0
2, 109674, Note_on_c, 0, 78, 0
2, 109674, Note_on_c, 0, 66, 0
2, 109674, Note_on_c, 0, 51, 0
2, 109676, Control_c, 0, 64, 0
2, 109685, Note_on_c, 0, 44, 0
2, 109743, Note_on_c, 0, 40, 99
2, 109743, Note_on_c, 0, 78, 108
2, 109747, Note_on_c, 0, 66, 107
2, 109752, Note_on_c, 0, 28, 87
2, 109785, Control_c, 0, 64, 127
2, 109900, Note_on_c, 0, 40, 0
2, 109909, Note_on_c, 0, 68, 85
2, 109909, Note_on_c, 0, 40, 77
2, 109909, Note_on_c, 0, 80, 89
2, 109909, Note_on_c, 0, 71, 77
2, 109962, Note_on_c, 0, 68, 0
2, 109962, Note_on_c, 0, 71, 0
2, 109962, Note_on_c, 0, 80, 0
2, 109972, Note_on_c, 0, 80, 102
2, 109972, Note_on_c, 0, 71, 87
2, 109973, Note_on_c, 0, 68, 103
2, 109992, Note_on_c, 0, 40, 0
2, 109997, Note_on_c, 0, 40, 79
2, 110006, Note_on_c, 0, 47, 47
2, 110014, Note_on_c, 0, 52, 64
2, 110123, Note_on_c, 0, 40, 0
2, 110133, Note_on_c, 0, 40, 83
2, 110223, Note_on_c, 0, 40, 0
2, 110223, Note_on_c, 0, 47, 0
2, 110223, Note_on_c, 0, 52, 0
2, 110228, Note_on_c, 0, 52, 81
2, 110229, Note_on_c, 0, 40, 81
2, 110231, Note_on_c, 0, 47, 77
2, 110254, Note_on_c, 0, 66, 0
2, 110254, Note_on_c, 0, 78, 0
2, 110263, Note_on_c, 0, 78, 89
2, 110264, Note_on_c, 0, 66, 99
2, 110334, Note_on_c, 0, 28, 0
2, 110334, Note_on_c, 0, 66, 0
2, 110334, Note_on_c, 0, 80, 0
2, 110334, Note_on_c, 0, 71, 0
2, 110335, Control_c, 0, 64, 0
2, 110335, Note_on_c, 0, 40, 0
2, 110335, Note_on_c, 0, 47, 0
2, 110336, Note_on_c, 0, 78, 0
2, 110353, Note_on_c, 0, 68, 0
2, 110369, Note_on_c, 0, 52, 0
2, 110405, Note_on_c, 0, 28, 92
2, 110405, Note_on_c, 0, 40, 101
2, 110408, Note_on_c, 0, 68, 101
2, 110409, Note_on_c, 0, 80, 100
2, 110411, Note_on_c, 0, 71, 87
2, 110430, Control_c, 0, 64, 127
2, 110568, Note_on_c, 0, 40, 0
2, 110573, Note_on_c, 0, 40, 78
2, 110575, Note_on_c, 0, 82, 95
2, 110582, Note_on_c, 0, 70, 82
2, 110584, Note_on_c, 0, 71, 0
2, 110591, Note_on_c, 0, 71, 61
2, 110669, Note_on_c, 0, 47, 75
2, 110730, Note_on_c, 0, 47, 0
2, 110730, Note_on_c, 0, 71, 0
2, 110734, Note_on_c, 0, 83, 100
2, 110740, Note_on_c, 0, 71, 84
2, 110741, Note_on_c, 0, 47, 82
2, 110814, Note_on_c, 0, 28, 0
2, 110814, Note_on_c, 0, 40, 0
2, 110819, Note_on_c, 0, 40, 82
2, 110820, Note_on_c, 0, 28, 79
2, 110899, Note_on_c, 0, 40, 0
2, 110902, Note_on_c, 0, 47, 0
2, 110904, Note_on_c, 0, 40, 85
2, 110904, Note_on_c, 0, 85, 101
2, 110908, Note_on_c, 0, 73, 100
2, 110922, Note_on_c, 0, 82, 0
2, 110931, Note_on_c, 0, 82, 51
2, 110992, Control_c, 0, 64, 0
2, 110993, Note_on_c, 0, 40, 0
2, 110993, Note_on_c, 0, 73, 0
2, 110993, Note_on_c, 0, 80, 0
2, 110994, Note_on_c, 0, 82, 0
2, 110994, Note_on_c, 0, 71, 0
2, 110994, Note_on_c, 0, 83, 0
2, 110994, Note_on_c, 0, 85, 0
2, 110994, Note_on_c, 0, 70, 0
2, 111006, Note_on_c, 0, 68, 0
2, 111014, Note_on_c, 0, 28, 0
2, 111061, Note_on_c, 0, 82, 108
2, 111065, Note_on_c, 0, 73, 102
2, 111066, Note_on_c, 0, 70, 106
2, 111068, Note_on_c, 0, 30, 95
2, 111099, Note_on_c, 0, 82, 0
2, 111129, Control_c, 0, 64, 127
2, 111210, Note_on_c, 0, 42, 82
2, 111329, Note_on_c, 0, 42, 0
2, 111335, Note_on_c, 0, 42, 64
2, 111392, Note_on_c, 0, 78, 108
2, 111394, Note_on_c, 0, 66, 104
2, 111424, Note_on_c, 0, 58, 75
2, 111425, Note_on_c, 0, 46, 68
2, 111429, Note_on_c, 0, 46, 0
2, 111533, Note_on_c, 0, 49, 76
2, 111539, Note_on_c, 0, 37, 75
2, 111663, Note_on_c, 0, 49, 0
2, 111663, Note_on_c, 0, 66, 0
2, 111663, Note_on_c, 0, 42, 0
2, 111663, Note_on_c, 0, 78, 0
2, 111663, Note_on_c, 0, 58, 0
2, 111667, Note_on_c, 0, 73, 0
2, 111667, Control_c, 0, 64, 0
2, 111674, Note_on_c, 0, 70, 0
2, 111682, Note_on_c, 0, 30, 0
2, 111682, Note_on_c, 0, 37, 0
2, 111703, Note_on_c, 0, 88, 109
2, 111710, Note_on_c, 0, 82, 92
2, 111710, Note_on_c, 0, 76, 106
2, 111710, Note_on_c, 0, 78, 105
2, 111710, Note_on_c, 0, 42, 90
2, 111710, Note_on_c, 0, 30, 96
2, 111716, Note_on_c, 0, 85, 92
2, 111724, Note_on_c, 0, 32, 81
2, 111759, Note_on_c, 0, 30, 0
2, 111759, Control_c, 0, 64, 127
2, 111805, Note_on_c, 0, 32, 0
2, 111894, Note_on_c, 0, 54, 57
2, 111920, Note_on_c, 0, 49, 52
2, 112028, Note_on_c, 0, 42, 0
2, 112028, Note_on_c, 0, 78, 0
2, 112028, Note_on_c, 0, 82, 0
2, 112028, Note_on_c, 0, 85, 0
2, 112032, Note_on_c, 0, 85, 107
2, 112033, Note_on_c, 0, 73, 103
2, 112035, Note_on_c, 0, 49, 0
2, 112037, Note_on_c, 0, 78, 94
2, 112037, Note_on_c, 0, 42, 81
2, 112037, Note_on_c, 0, 58, 78
2, 112038, Note_on_c, 0, 82, 96
2, 112046, Note_on_c, 0, 49, 80
2, 112181, Note_on_c, 0, 42, 0
2, 112186, Note_on_c, 0, 42, 76
2, 112193, Note_on_c, 0, 49, 0
2, 112300, Control_c, 0, 64, 0
2, 112301, Note_on_c, 0, 58, 0
2, 112301, Note_on_c, 0, 73, 0
2, 112301, Note_on_c, 0, 42, 0
2, 112301, Note_on_c, 0, 85, 0
2, 112301, Note_on_c, 0, 54, 0
2, 112301, Note_on_c, 0, 76, 0
2, 112301, Note_on_c, 0, 78, 0
2, 112302, Note_on_c, 0, 82, 0
2, 112302, Note_on_c, 0, 88, 0
2, 112364, Note_on_c, 0, 85, 106
2, 112368, Note_on_c, 0, 73, 102
2, 112368, Note_on_c, 0, 35, 92
2, 112369, Note_on_c, 0, 78, 106
2, 112404, Control_c, 0, 64, 127
2, 112611, Note_on_c, 0, 85, 0
2, 112619, Note_on_c, 0, 73, 0
2, 112619, Note_on_c, 0, 78, 0
2, 112621, Note_on_c, 0, 85, 104
2, 112623, Note_on_c, 0, 73, 100
2, 112624, Note_on_c, 0, 82, 75
2, 112628, Note_on_c, 0, 78, 79
2, 112630, Note_on_c, 0, 47, 85
2, 112742, Note_on_c, 0, 47, 0
2, 112746, Note_on_c, 0, 47, 88
2, 112838, Note_on_c, 0, 54, 81
2, 112865, Note_on_c, 0, 78, 0
2, 112873, Note_on_c, 0, 87, 110
2, 112875, Note_on_c, 0, 78, 107
2, 112875, Note_on_c, 0, 75, 103
2, 112935, Control_c, 0, 64, 0
2, 112936, Note_on_c, 0, 73, 0
2, 112936, Note_on_c, 0, 47, 0
2, 112942, Note_on_c, 0, 35, 0
2, 113011, Control_c, 0, 64, 127
2, 113021, Note_on_c, 0, 34, 103
2, 113183, Note_on_c, 0, 83, 99
2, 113197, Note_on_c, 0, 58, 82
2, 113198, Note_on_c, 0, 71, 84
2, 113349, Note_on_c, 0, 54, 0
2, 113349, Note_on_c, 0, 82, 0
2, 113353, Note_on_c, 0, 82, 105
2, 113354, Note_on_c, 0, 54, 69
2, 113359, Note_on_c, 0, 42, 67
2, 113361, Note_on_c, 0, 70, 98
2, 113364, Note_on_c, 0, 42, 0
2, 113487, Note_on_c, 0, 34, 0
2, 113497, Note_on_c, 0, 34, 82
2, 113510, Note_on_c, 0, 78, 0
2, 113515, Note_on_c, 0, 78, 105
2, 113522, Note_on_c, 0, 66, 103
2, 113608, Note_on_c, 0, 83, 0
2, 113608, Note_on_c, 0, 82, 0
2, 113608, Note_on_c, 0, 71, 0
2, 113609, Note_on_c, 0, 78, 0
2, 113610, Note_on_c, 0, 58, 0
2, 113610, Note_on_c, 0, 70, 0
2, 113610, Control_c, 0, 64, 0
2, 113611, Note_on_c, 0, 66, 0
2, 113611, Note_on_c, 0, 54, 0
2, 113611, Note_on_c, 0, 34, 0
2, 113617, Note_on_c, 0, 75, 0
2, 113617, Note_on_c, 0, 85, 0
2, 113617, Note_on_c, 0, 87, 0
2, 113671, Control_c, 0, 64, 127
2, 113684, Note_on_c, 0, 78, 109
2, 113688, Note_on_c, 0, 32, 97
2, 113689, Note_on_c, 0, 66, 105
2, 113689, Note_on_c, 0, 44, 99
2, 113690, Note_on_c, 0, 68, 92
2, 113699, Note_on_c, 0, 75, 71
2, 113840, Note_on_c, 0, 44, 0
2, 113840, Note_on_c, 0, 68, 0
2, 113843, Note_on_c, 0, 71, 85
2, 113844, Note_on_c, 0, 68, 92
2, 113846, Note_on_c, 0, 80, 90
2, 113850, Note_on_c, 0, 44, 90
2, 113902, Note_on_c, 0, 68, 0
2, 113902, Note_on_c, 0, 71, 0
2, 113902, Note_on_c, 0, 75, 0
2, 113902, Note_on_c, 0, 80, 0
2, 113907, Note_on_c, 0, 80, 101
2, 113909, Note_on_c, 0, 71, 96
2, 113912, Note_on_c, 0, 75, 75
2, 113913, Note_on_c, 0, 68, 95
2, 113913, Note_on_c, 0, 56, 83
2, 113929, Note_on_c, 0, 51, 65
2, 114063, Note_on_c, 0, 44, 0
2, 114063, Note_on_c, 0, 51, 0
2, 114071, Note_on_c, 0, 71, 0
2, 114073, Note_on_c, 0, 51, 66
2, 114073, Note_on_c, 0, 44, 80
2, 114075, Note_on_c, 0, 71, 68
2, 114178, Note_on_c, 0, 66, 0
2, 114178, Note_on_c, 0, 78, 0
2, 114183, Note_on_c, 0, 78, 105
2, 114188, Note_on_c, 0, 66, 100
2, 114190, Note_on_c, 0, 68, 0
2, 114290, Note_on_c, 0, 71, 0
2, 114290, Control_c, 0, 64, 0
2, 114290, Note_on_c, 0, 56, 0
2, 114290, Note_on_c, 0, 80, 0
2, 114291, Note_on_c, 0, 78, 0
2, 114291, Note_on_c, 0, 66, 0
2, 114316, Note_on_c, 0, 44, 0
2, 114316, Note_on_c, 0, 51, 0
2, 114316, Note_on_c, 0, 75, 0
2, 114332, Note_on_c, 0, 32, 0
2, 114342, Note_on_c, 0, 44, 97
2, 114343, Note_on_c, 0, 78, 111
2, 114343, Note_on_c, 0, 32, 93
2, 114345, Note_on_c, 0, 66, 107
2, 114351, Note_on_c, 0, 75, 84
2, 114370, Control_c, 0, 64, 127
2, 114497, Note_on_c, 0, 80, 94
2, 114498, Note_on_c, 0, 71, 81
2, 114498, Note_on_c, 0, 68, 88
2, 114503, Note_on_c, 0, 56, 64
2, 114505, Note_on_c, 0, 51, 62
2, 114554, Note_on_c, 0, 68, 0
2, 114554, Note_on_c, 0, 71, 0
2, 114561, Note_on_c, 0, 68, 93
2, 114562, Note_on_c, 0, 56, 0
2, 114565, Note_on_c, 0, 71, 82
2, 114565, Note_on_c, 0, 59, 77
2, 114570, Note_on_c, 0, 51, 0
2, 114573, Note_on_c, 0, 56, 80
2, 114576, Note_on_c, 0, 51, 76
2, 114723, Note_on_c, 0, 32, 0
2, 114723, Note_on_c, 0, 44, 0
2, 114734, Note_on_c, 0, 44, 78
2, 114734, Note_on_c, 0, 32, 79
2, 114823, Note_on_c, 0, 66, 0
2, 114823, Note_on_c, 0, 78, 0
2, 114830, Note_on_c, 0, 78, 103
2, 114830, Note_on_c, 0, 66, 99
2, 114950, Note_on_c, 0, 68, 0
2, 114950, Note_on_c, 0, 80, 0
2, 114950, Note_on_c, 0, 66, 0
2, 114950, Note_on_c, 0, 56, 0
2, 114950, Note_on_c, 0, 51, 0
2, 114950, Control_c, 0, 64, 0
2, 114950, Note_on_c, 0, 78, 0
2, 114950, Note_on_c, 0, 59, 0
2, 114950, Note_on_c, 0, 32, 0
2, 114961, Note_on_c, 0, 44, 0
2, 114969, Note_on_c, 0, 71, 0
2, 114969, Note_on_c, 0, 75, 0
2, 114999, Note_on_c, 0, 40, 95
2, 115000, Note_on_c, 0, 78, 108
2, 115002, Note_on_c, 0, 28, 88
2, 115004, Note_on_c, 0, 66, 101
2, 115004, Note_on_c, 0, 74, 83
2, 115054, Control_c, 0, 64, 127
2, 115153, Note_on_c, 0, 28, 0
2, 115153, Note_on_c, 0, 40, 0
2, 115157, Note_on_c, 0, 68, 87
2, 115157, Note_on_c, 0, 80, 89
2, 115157, Note_on_c, 0, 71, 82
2, 115158, Note_on_c, 0, 40, 87
2, 115159, Note_on_c, 0, 28, 73
2, 115215, Note_on_c, 0, 68, 0
2, 115215, Note_on_c, 0, 80, 0
2, 115220, Note_on_c, 0, 80, 91
2, 115223, Note_on_c, 0, 71, 0
2, 115226, Note_on_c, 0, 68, 93
2, 115227, Note_on_c, 0, 71, 86
2, 115238, Note_on_c, 0, 28, 0
2, 115242, Note_on_c, 0, 28, 75
2, 115253, Note_on_c, 0, 40, 0
2, 115257, Note_on_c, 0, 40, 78
2, 115384, Note_on_c, 0, 40, 0
2, 115392, Note_on_c, 0, 28, 0
2, 115395, Note_on_c, 0, 40, 76
2, 115396, Note_on_c, 0, 28, 56
2, 115491, Note_on_c, 0, 66, 0
2, 115491, Note_on_c, 0, 78, 0
2, 115496, Note_on_c, 0, 78, 100
2, 115499, Note_on_c, 0, 40, 0
2, 115501, Note_on_c, 0, 66, 99
2, 115503, Note_on_c, 0, 40, 79
2, 115507, Note_on_c, 0, 71, 0
2, 115509, Note_on_c, 0, 52, 74
2, 115614, Note_on_c, 0, 66, 0
2, 115616, Note_on_c, 0, 80, 0
2, 115617, Note_on_c, 0, 78, 0
2, 115620, Control_c, 0, 64, 0
2, 115622, Note_on_c, 0, 52, 0
2, 115630, Note_on_c, 0, 74, 0
2, 115637, Note_on_c, 0, 68, 0
2, 115645, Note_on_c, 0, 28, 0
2, 115653, Note_on_c, 0, 40, 0
2, 115656, Note_on_c, 0, 28, 91
2, 115657, Note_on_c, 0, 40, 97
2, 115657, Note_on_c, 0, 80, 97
2, 115657, Note_on_c, 0, 68, 100
2, 115661, Note_on_c, 0, 71, 82
2, 115664, Note_on_c, 0, 74, 84
2, 115722, Control_c, 0, 64, 127
2, 115812, Note_on_c, 0, 52, 64
2, 115822, Note_on_c, 0, 80, 0
2, 115827, Note_on_c, 0, 82, 102
2, 115829, Note_on_c, 0, 80, 82
2, 115835, Note_on_c, 0, 70, 83
2, 115906, Note_on_c, 0, 52, 0
2, 115912, Note_on_c, 0, 52, 72
2, 115991, Note_on_c, 0, 71, 0
2, 115991, Note_on_c, 0, 83, 103
2, 115999, Note_on_c, 0, 71, 80
2, 116075, Note_on_c, 0, 40, 0
2, 116081, Note_on_c, 0, 40, 85
2, 116106, Note_on_c, 0, 74, 0
2, 116151, Note_on_c, 0, 85, 105
2, 116155, Note_on_c, 0, 73, 100
2, 116172, Note_on_c, 0, 76, 66
2, 116243, Note_on_c, 0, 71, 0
2, 116244, Note_on_c, 0, 52, 0
2, 116244, Note_on_c, 0, 28, 0
2, 116245, Note_on_c, 0, 80, 0
2, 116246, Note_on_c, 0, 82, 0
2, 116246, Note_on_c, 0, 83, 0
2, 116246, Note_on_c, 0, 70, 0
2, 116246, Note_on_c, 0, 73, 0
2, 116248, Note_on_c, 0, 85, 0
2, 116252, Note_on_c, 0, 68, 0
2, 116252, Note_on_c, 0, 76, 0
2, 116256, Control_c, 0, 64, 0
2, 116259, Note_on_c, 0, 40, 0
2, 116303, Note_on_c, 0, 80, 104
2, 116309, Note_on_c, 0, 68, 106
2, 116309, Note_on_c, 0, 37, 100
2, 116309, Note_on_c, 0, 49, 92
2, 116312, Note_on_c, 0, 73, 92
2, 116316, Note_on_c, 0, 76, 91
2, 116367, Control_c, 0, 64, 127
2, 116451, Note_on_c, 0, 49, 0
2, 116459, Note_on_c, 0, 49, 67
2, 116551, Note_on_c, 0, 61, 74
2, 116552, Note_on_c, 0, 52, 74
2, 116554, Note_on_c, 0, 56, 79
2, 116720, Note_on_c, 0, 49, 0
2, 116728, Note_on_c, 0, 61, 0
2, 116729, Note_on_c, 0, 49, 68
2, 116732, Note_on_c, 0, 61, 69
2, 116797, Note_on_c, 0, 52, 0
2, 116797, Note_on_c, 0, 56, 0
2, 116797, Note_on_c, 0, 61, 0
2, 116797, Note_on_c, 0, 68, 0
2, 116802, Note_on_c, 0, 61, 89
2, 116802, Note_on_c, 0, 68, 78
2, 116805, Note_on_c, 0, 56, 81
2, 116808, Note_on_c, 0, 52, 68
2, 116937, Note_on_c, 0, 73, 0
2, 116937, Note_on_c, 0, 52, 0
2, 116938, Note_on_c, 0, 61, 0
2, 116938, Note_on_c, 0, 76, 0
2, 116938, Note_on_c, 0, 68, 0
2, 116938, Note_on_c, 0, 56, 0
2, 116939, Control_c, 0, 64, 0
2, 116951, Note_on_c, 0, 49, 0
2, 116966, Note_on_c, 0, 37, 0
2, 116966, Note_on_c, 0, 80, 0
2, 116970, Note_on_c, 0, 80, 100
2, 116973, Note_on_c, 0, 68, 99
2, 116974, Note_on_c, 0, 37, 98
2, 116977, Note_on_c, 0, 73, 95
2, 117012, Control_c, 0, 64, 127
2, 117141, Note_on_c, 0, 82, 98
2, 117142, Note_on_c, 0, 61, 70
2, 117146, Note_on_c, 0, 49, 64
2, 117146, Note_on_c, 0, 70, 90
2, 117227, Note_on_c, 0, 49, 0
2, 117227, Note_on_c, 0, 61, 0
2, 117236, Note_on_c, 0, 52, 76
2, 117237, Note_on_c, 0, 49, 71
2, 117238, Note_on_c, 0, 56, 70
2, 117238, Note_on_c, 0, 61, 75
2, 117290, Note_on_c, 0, 83, 102
2, 117298, Note_on_c, 0, 71, 85
2, 117419, Note_on_c, 0, 61, 0
2, 117427, Note_on_c, 0, 49, 0
2, 117428, Note_on_c, 0, 61, 78
2, 117431, Note_on_c, 0, 49, 80
2, 117450, Note_on_c, 0, 73, 0
2, 117454, Note_on_c, 0, 85, 102
2, 117460, Note_on_c, 0, 73, 99
2, 117545, Note_on_c, 0, 61, 0
2, 117546, Note_on_c, 0, 52, 0
2, 117546, Note_on_c, 0, 80, 0
2, 117547, Note_on_c, 0, 71, 0
2, 117548, Note_on_c, 0, 73, 0
2, 117551, Note_on_c, 0, 83, 0
2, 117551, Note_on_c, 0, 82, 0
2, 117552, Note_on_c, 0, 85, 0
2, 117552, Note_on_c, 0, 49, 0
2, 117552, Control_c, 0, 64, 0
2, 117553, Note_on_c, 0, 70, 0
2, 117557, Note_on_c, 0, 37, 0
2, 117573, Note_on_c, 0, 56, 0
2, 117573, Note_on_c, 0, 68, 0
2, 117609, Note_on_c, 0, 27, 88
2, 117612, Note_on_c, 0, 39, 95
2, 117614, Note_on_c, 0, 34, 75
2, 117615, Note_on_c, 0, 46, 92
2, 117617, Note_on_c, 0, 82, 103
2, 117617, Note_on_c, 0, 73, 100
2, 117619, Note_on_c, 0, 27, 0
2, 117630, Note_on_c, 0, 70, 99
2, 117657, Note_on_c, 0, 34, 0
2, 117657, Note_on_c, 0, 80, 43
2, 117672, Control_c, 0, 64, 127
2, 117772, Note_on_c, 0, 46, 0
2, 117777, Note_on_c, 0, 46, 60
2, 117784, Note_on_c, 0, 51, 38
2, 117843, Note_on_c, 0, 54, 70
2, 117846, Note_on_c, 0, 58, 53
2, 117940, Note_on_c, 0, 63, 85
2, 117964, Note_on_c, 0, 58, 0
2, 117964, Note_on_c, 0, 70, 0
2, 117970, Note_on_c, 0, 70, 93
2, 117971, Note_on_c, 0, 78, 99
2, 117973, Note_on_c, 0, 58, 83
2, 117973, Note_on_c, 0, 66, 101
2, 118164, Note_on_c, 0, 46, 0
2, 118169, Note_on_c, 0, 46, 75
2, 118262, Note_on_c, 0, 58, 0
2, 118262, Note_on_c, 0, 80, 0
2, 118263, Note_on_c, 0, 82, 0
2, 118263, Note_on_c, 0, 51, 0
2, 118263, Note_on_c, 0, 63, 0
2, 118264, Note_on_c, 0, 73, 0
2, 118264, Note_on_c, 0, 54, 0
2, 118264, Control_c, 0, 64, 0
2, 118265, Note_on_c, 0, 78, 0
2, 118287, Note_on_c, 0, 39, 0
2, 118287, Note_on_c, 0, 46, 0
2, 118287, Note_on_c, 0, 66, 0
2, 118293, Note_on_c, 0, 46, 75
2, 118295, Note_on_c, 0, 70, 0
2, 118295, Note_on_c, 0, 66, 96
2, 118297, Note_on_c, 0, 75, 102
2, 118297, Note_on_c, 0, 39, 76
2, 118298, Note_on_c, 0, 34, 77
2, 118298, Note_on_c, 0, 70, 89
2, 118302, Note_on_c, 0, 34, 0
2, 118341, Control_c, 0, 64, 127
2, 118379, Note_on_c, 0, 39, 0
2, 118454, Note_on_c, 0, 51, 70
2, 118454, Note_on_c, 0, 54, 44
2, 118586, Note_on_c, 0, 46, 0
2, 118609, Note_on_c, 0, 51, 0
2, 118609, Note_on_c, 0, 54, 0
2, 118609, Note_on_c, 0, 66, 0
2, 118609, Note_on_c, 0, 70, 0
2, 118613, Note_on_c, 0, 78, 105
2, 118613, Note_on_c, 0, 63, 87
2, 118613, Note_on_c, 0, 70, 97
2, 118613, Note_on_c, 0, 51, 77
2, 118614, Note_on_c, 0, 66, 101
2, 118615, Note_on_c, 0, 54, 72
2, 118740, Note_on_c, 0, 54, 0
2, 118748, Note_on_c, 0, 51, 0
2, 118750, Note_on_c, 0, 54, 44
2, 118753, Note_on_c, 0, 51, 62
2, 118859, Note_on_c, 0, 63, 0
2, 118860, Note_on_c, 0, 51, 0
2, 118861, Note_on_c, 0, 70, 0
2, 118861, Note_on_c, 0, 78, 0
2, 118861, Note_on_c, 0, 75, 0
2, 118861, Note_on_c, 0, 54, 0
2, 118862, Note_on_c, 0, 66, 0
2, 118866, Control_c, 0, 64, 0
2, 118935, Note_on_c, 0, 27, 93
2, 118937, Note_on_c, 0, 78, 107
2, 118937, Note_on_c, 0, 40, 97
2, 118940, Note_on_c, 0, 27, 0
2, 118943, Note_on_c, 0, 28, 91
2, 118943, Note_on_c, 0, 66, 104
2, 118970, Control_c, 0, 64, 127
2, 119101, Note_on_c, 0, 28, 0
2, 119101, Note_on_c, 0, 40, 0
2, 119104, Note_on_c, 0, 80, 95
2, 119108, Note_on_c, 0, 28, 80
2, 119109, Note_on_c, 0, 68, 87
2, 119110, Note_on_c, 0, 40, 90
2, 119112, Note_on_c, 0, 71, 75
2, 119162, Note_on_c, 0, 68, 0
2, 119173, Note_on_c, 0, 68, 96
2, 119178, Note_on_c, 0, 28, 0
2, 119178, Note_on_c, 0, 71, 0
2, 119185, Note_on_c, 0, 28, 53
2, 119188, Note_on_c, 0, 71, 79
2, 119424, Note_on_c, 0, 40, 0
2, 119431, Note_on_c, 0, 28, 0
2, 119431, Note_on_c, 0, 71, 0
2, 119434, Note_on_c, 0, 83, 102
2, 119435, Note_on_c, 0, 40, 80
2, 119435, Note_on_c, 0, 28, 82
2, 119441, Note_on_c, 0, 71, 88
2, 119528, Note_on_c, 0, 78, 0
2, 119528, Note_on_c, 0, 40, 0
2, 119529, Note_on_c, 0, 80, 0
2, 119529, Note_on_c, 0, 83, 0
2, 119530, Note_on_c, 0, 71, 0
2, 119530, Note_on_c, 0, 68, 0
2, 119537, Control_c, 0, 64, 0
2, 119546, Note_on_c, 0, 28, 0
2, 119546, Note_on_c, 0, 66, 0
2, 119591, Note_on_c, 0, 82, 106
2, 119595, Note_on_c, 0, 30, 97
2, 119595, Note_on_c, 0, 42, 97
2, 119596, Note_on_c, 0, 73, 100
2, 119597, Note_on_c, 0, 70, 89
2, 119601, Note_on_c, 0, 78, 91
2, 119662, Control_c, 0, 64, 127
2, 119754, Note_on_c, 0, 78, 0
2, 119760, Note_on_c, 0, 78, 91
2, 119764, Note_on_c, 0, 54, 85
2, 119764, Note_on_c, 0, 66, 87
2, 119769, Note_on_c, 0, 66, 0
2, 119796, Control_c, 0, 64, 0
2, 119808, Control_c, 0, 64, 127
2, 119831, Note_on_c, 0, 54, 0
2, 119835, Note_on_c, 0, 63, 109
2, 119837, Note_on_c, 0, 75, 98
2, 119838, Note_on_c, 0, 54, 87
2, 120099, Note_on_c, 0, 78, 0
2, 120106, Note_on_c, 0, 78, 100
2, 120108, Note_on_c, 0, 54, 0
2, 120110, Note_on_c, 0, 66, 101
2, 120180, Note_on_c, 0, 82, 0
2, 120181, Note_on_c, 0, 73, 0
2, 120181, Note_on_c, 0, 42, 0
2, 120181, Note_on_c, 0, 66, 0
2, 120181, Note_on_c, 0, 78, 0
2, 120182, Note_on_c, 0, 75, 0
2, 120182, Note_on_c, 0, 63, 0
2, 120186, Control_c, 0, 64, 0
2, 120192, Note_on_c, 0, 30, 0
2, 120192, Note_on_c, 0, 70, 0
2, 120257, Note_on_c, 0, 78, 110
2, 120262, Note_on_c, 0, 66, 101
2, 120265, Note_on_c, 0, 32, 97
2, 120265, Note_on_c, 0, 68, 83
2, 120265, Note_on_c, 0, 44, 97
2, 120284, Control_c, 0, 64, 127
2, 120314, Note_on_c, 0, 68, 0
2, 120412, Note_on_c, 0, 73, 89
2, 120414, Note_on_c, 0, 44, 0
2, 120416, Note_on_c, 0, 61, 81
2, 120416, Note_on_c, 0, 80, 88
2, 120417, Note_on_c, 0, 75, 78
2, 120418, Note_on_c, 0, 68, 87
2, 120422, Note_on_c, 0, 61, 0
2, 120422, Note_on_c, 0, 44, 81
2, 120424, Note_on_c, 0, 56, 78
2, 120476, Note_on_c, 0, 80, 0
2, 120483, Note_on_c, 0, 56, 0
2, 120483, Note_on_c, 0, 68, 0
2, 120483, Note_on_c, 0, 73, 0
2, 120483, Note_on_c, 0, 75, 0
2, 120483, Note_on_c, 0, 78, 0
2, 120484, Note_on_c, 0, 80, 106
2, 120488, Note_on_c, 0, 68, 99
2, 120491, Note_on_c, 0, 56, 79
2, 120492, Note_on_c, 0, 78, 92
2, 120493, Note_on_c, 0, 75, 86
2, 120493, Note_on_c, 0, 73, 96
2, 120660, Note_on_c, 0, 44, 0
2, 120664, Note_on_c, 0, 44, 66
2, 120744, Note_on_c, 0, 44, 0
2, 120744, Note_on_c, 0, 73, 0
2, 120751, Note_on_c, 0, 63, 75
2, 120752, Note_on_c, 0, 73, 91
2, 120752, Note_on_c, 0, 56, 0
2, 120752, Note_on_c, 0, 44, 76
2, 120755, Note_on_c, 0, 68, 0
2, 120755, Note_on_c, 0, 51, 69
2, 120756, Note_on_c, 0, 56, 71
2, 120760, Note_on_c, 0, 63, 0
2, 120901, Note_on_c, 0, 56, 0
2, 120902, Note_on_c, 0, 80, 0
2, 120902, Note_on_c, 0, 78, 0
2, 120902, Note_on_c, 0, 66, 0
2, 120902, Control_c, 0, 64, 0
2, 120913, Note_on_c, 0, 32, 0
2, 120920, Note_on_c, 0, 61, 84
2, 120921, Note_on_c, 0, 44, 0
2, 120921, Note_on_c, 0, 73, 0
2, 120924, Note_on_c, 0, 32, 95
2, 120925, Note_on_c, 0, 44, 96
2, 120926, Note_on_c, 0, 73, 89
2, 120929, Note_on_c, 0, 61, 0
2, 120929, Note_on_c, 0, 75, 0
2, 120936, Note_on_c, 0, 51, 0
2, 120937, Note_on_c, 0, 75, 80
2, 120983, Control_c, 0, 64, 127
2, 121075, Note_on_c, 0, 44, 0
2, 121081, Note_on_c, 0, 44, 84
2, 121171, Note_on_c, 0, 51, 88
2, 121175, Note_on_c, 0, 44, 0
2, 121175, Note_on_c, 0, 73, 0
2, 121178, Note_on_c, 0, 63, 82
2, 121179, Note_on_c, 0, 73, 93
2, 121181, Note_on_c, 0, 44, 82
2, 121186, Note_on_c, 0, 56, 83
2, 121267, Note_on_c, 0, 44, 0
2, 121275, Note_on_c, 0, 44, 70
2, 121382, Note_on_c, 0, 56, 0
2, 121390, Note_on_c, 0, 51, 0
2, 121391, Note_on_c, 0, 56, 75
2, 121395, Note_on_c, 0, 51, 76
2, 121428, Note_on_c, 0, 73, 0
2, 121436, Note_on_c, 0, 75, 0
2, 121439, Note_on_c, 0, 73, 81
2, 121441, Note_on_c, 0, 75, 89
2, 121564, Note_on_c, 0, 51, 0
2, 121564, Note_on_c, 0, 73, 0
2, 121565, Note_on_c, 0, 56, 0
2, 121566, Control_c, 0, 64, 0
2, 121582, Note_on_c, 0, 32, 0
2, 121582, Note_on_c, 0, 44, 0
2, 121582, Note_on_c, 0, 63, 0
2, 121588, Note_on_c, 0, 44, 93
2, 121589, Note_on_c, 0, 75, 0
2, 121592, Note_on_c, 0, 80, 107
2, 121592, Note_on_c, 0, 32, 90
2, 121593, Note_on_c, 0, 68, 105
2, 121593, Note_on_c, 0, 72, 90
2, 121594, Note_on_c, 0, 75, 88
2, 121643, Note_on_c, 0, 44, 0
2, 121643, Control_c, 0, 64, 127
2, 121658, Note_on_c, 0, 32, 0
2, 121665, Note_on_c, 0, 32, 75
2, 121670, Note_on_c, 0, 44, 91
2, 121758, Note_on_c, 0, 44, 0
2, 121765, Note_on_c, 0, 44, 78
2, 121767, Note_on_c, 0, 51, 85
2, 121835, Note_on_c, 0, 44, 0
2, 121841, Note_on_c, 0, 44, 72
2, 121920, Note_on_c, 0, 51, 0
2, 121931, Note_on_c, 0, 51, 94
2, 122012, Note_on_c, 0, 56, 84
2, 122088, Note_on_c, 0, 56, 0
2, 122094, Note_on_c, 0, 56, 87
2, 122174, Note_on_c, 0, 63, 84
2, 122257, Note_on_c, 0, 44, 0
2, 122257, Note_on_c, 0, 56, 0
2, 122257, Note_on_c, 0, 68, 0
2, 122263, Note_on_c, 0, 68, 95
2, 122263, Note_on_c, 0, 56, 73
2, 122264, Note_on_c, 0, 44, 66
2, 122311, Note_on_c, 0, 44, 0
2, 122311, Note_on_c, 0, 63, 0
2, 122318, Note_on_c, 0, 44, 69
2, 122319, Note_on_c, 0, 63, 93
2, 122388, Note_on_c, 0, 56, 0
2, 122392, Note_on_c, 0, 56, 85
2, 122496, Note_on_c, 0, 56, 0
2, 122500, Note_on_c, 0, 56, 85
2, 122565, Note_on_c, 0, 51, 0
2, 122570, Note_on_c, 0, 51, 80
2, 122634, Note_on_c, 0, 44, 0
2, 122639, Note_on_c, 0, 44, 83
2, 122749, Note_on_c, 0, 51, 0
2, 122757, Note_on_c, 0, 51, 91
2, 122833, Note_on_c, 0, 44, 0
2, 122844, Note_on_c, 0, 44, 80
2, 122916, Note_on_c, 0, 51, 0
2, 122916, Note_on_c, 0, 80, 0
2, 122917, Note_on_c, 0, 72, 0
2, 122917, Note_on_c, 0, 56, 0
2, 122917, Note_on_c, 0, 63, 0
2, 122917, Note_on_c, 0, 44, 0
2, 122921, Control_c, 0, 64, 0
2, 122949, Note_on_c, 0, 68, 0
2, 122953, Note_on_c, 0, 68, 103
2, 122956, Note_on_c, 0, 32, 0
2, 122959, Note_on_c, 0, 63, 86
2, 122960, Note_on_c, 0, 56, 85
2, 122961, Note_on_c, 0, 60, 71
2, 122968, Note_on_c, 0, 32, 78
2, 123010, Control_c, 0, 64, 127
2, 123033, Note_on_c, 0, 32, 0
2, 123038, Note_on_c, 0, 32, 66
2, 123129, Note_on_c, 0, 44, 73
2, 123158, Control_c, 0, 64, 0
2, 123279, Note_on_c, 0, 32, 0
2, 123283, Note_on_c, 0, 32, 67
2, 123444, Note_on_c, 0, 42, 54
2, 123463, Note_on_c, 0, 75, 0
2, 123502, Note_on_c, 0, 32, 0
2, 123502, Note_on_c, 0, 44, 0
2, 123509, Note_on_c, 0, 44, 70
2, 123509, Note_on_c, 0, 32, 64
2, 123555, Note_on_c, 0, 42, 0
2, 123601, Note_on_c, 0, 32, 0
2, 123601, Note_on_c, 0, 44, 0
2, 123611, Note_on_c, 0, 32, 68
2, 123612, Note_on_c, 0, 44, 65
2, 123717, Note_on_c, 0, 44, 0
2, 123778, Note_on_c, 0, 32, 0
2, 123781, Note_on_c, 0, 44, 68
2, 123783, Note_on_c, 0, 32, 59
2, 123828, Note_on_c, 0, 44, 0
2, 123829, Note_on_c, 0, 32, 0
2, 123847, Note_on_c, 0, 63, 0
2, 123951, Note_on_c, 0, 32, 67
2, 123951, Note_on_c, 0, 44, 71
2, 124104, Note_on_c, 0, 42, 62
2, 124105, Note_on_c, 0, 30, 55
2, 124111, Note_on_c, 0, 54, 55
2, 124131, Note_on_c, 0, 68, 0
2, 124142, Note_on_c, 0, 68, 79
2, 124170, Note_on_c, 0, 32, 0
2, 124177, Note_on_c, 0, 44, 0
2, 124181, Note_on_c, 0, 32, 66
2, 124185, Note_on_c, 0, 42, 0
2, 124185, Note_on_c, 0, 54, 0
2, 124188, Note_on_c, 0, 44, 72
2, 124193, Note_on_c, 0, 30, 0
2, 124193, Note_on_c, 0, 60, 0
2, 124200, Note_on_c, 0, 56, 0
2, 124214, Note_on_c, 0, 66, 78
2, 124247, Note_on_c, 0, 44, 0
2, 124273, Note_on_c, 0, 63, 86
2, 124293, Note_on_c, 0, 32, 0
2, 124293, Note_on_c, 0, 68, 0
2, 124297, Note_on_c, 0, 32, 66
2, 124299, Note_on_c, 0, 44, 65
2, 124308, Note_on_c, 0, 66, 0
2, 124392, Note_on_c, 0, 44, 0
2, 124454, Note_on_c, 0, 32, 0
2, 124460, Note_on_c, 0, 44, 69
2, 124461, Note_on_c, 0, 32, 60
2, 124498, Note_on_c, 0, 32, 0
2, 124501, Note_on_c, 0, 44, 0
2, 124620, Note_on_c, 0, 44, 72
2, 124622, Note_on_c, 0, 32, 65
2, 124753, Note_on_c, 0, 32, 0
2, 124764, Note_on_c, 0, 42, 58
2, 124764, Note_on_c, 0, 32, 58
2, 124765, Note_on_c, 0, 30, 53
2, 124769, Note_on_c, 0, 30, 0
2, 124792, Note_on_c, 0, 44, 0
2, 124815, Note_on_c, 0, 32, 0
2, 124829, Note_on_c, 0, 42, 0
2, 124848, Note_on_c, 0, 44, 65
2, 124849, Note_on_c, 0, 32, 55
2, 124915, Note_on_c, 0, 63, 0
2, 124916, Note_on_c, 0, 44, 0
2, 124922, Note_on_c, 0, 32, 0
2, 124931, Note_on_c, 0, 32, 68
2, 125110, Note_on_c, 0, 61, 68
2, 125114, Note_on_c, 0, 32, 0
2, 125123, Note_on_c, 0, 44, 58
2, 125125, Note_on_c, 0, 32, 52
2, 125160, Note_on_c, 0, 61, 0
2, 125184, Note_on_c, 0, 44, 0
2, 125191, Note_on_c, 0, 32, 0
2, 125195, Note_on_c, 0, 63, 75
2, 125269, Note_on_c, 0, 32, 68
2, 125270, Note_on_c, 0, 44, 72
2, 125271, Note_on_c, 0, 61, 82
2, 125329, Note_on_c, 0, 63, 0
2, 125399, Note_on_c, 0, 61, 0
2, 125414, Note_on_c, 0, 44, 0
2, 125425, Note_on_c, 0, 42, 58
2, 125426, Note_on_c, 0, 30, 58
2, 125436, Note_on_c, 0, 54, 52
2, 125440, Note_on_c, 0, 59, 72
2, 125491, Note_on_c, 0, 42, 0
2, 125498, Note_on_c, 0, 32, 0
2, 125514, Note_on_c, 0, 30, 0
2, 125514, Note_on_c, 0, 54, 0
2, 125522, Note_on_c, 0, 61, 80
2, 125527, Note_on_c, 0, 32, 58
2, 125528, Note_on_c, 0, 44, 63
2, 125529, Note_on_c, 0, 59, 0
2, 125535, Note_on_c, 0, 59, 62
2, 125583, Note_on_c, 0, 44, 0
2, 125591, Note_on_c, 0, 59, 0
2, 125606, Note_on_c, 0, 32, 0
2, 125606, Note_on_c, 0, 61, 0
2, 125617, Note_on_c, 0, 32, 72
2, 125783, Note_on_c, 0, 32, 0
2, 125787, Note_on_c, 0, 32, 59
2, 125790, Note_on_c, 0, 63, 76
2, 125792, Note_on_c, 0, 44, 63
2, 125834, Note_on_c, 0, 44, 0
2, 125867, Note_on_c, 0, 32, 0
2, 125868, Note_on_c, 0, 61, 75
2, 125934, Note_on_c, 0, 61, 0
2, 125946, Note_on_c, 0, 44, 76
2, 125947, Note_on_c, 0, 32, 73
2, 125947, Note_on_c, 0, 59, 74
2, 125952, Note_on_c, 0, 63, 0
2, 126013, Note_on_c, 0, 59, 0
2, 126031, Note_on_c, 0, 61, 75
2, 126051, Note_on_c, 0, 44, 0
2, 126080, Note_on_c, 0, 61, 0
2, 126082, Note_on_c, 0, 32, 0
2, 126086, Note_on_c, 0, 32, 61
2, 126087, Note_on_c, 0, 44, 63
2, 126117, Note_on_c, 0, 59, 81
2, 126151, Note_on_c, 0, 44, 0
2, 126194, Note_on_c, 0, 59, 0
2, 126203, Note_on_c, 0, 58, 72
2, 126205, Note_on_c, 0, 32, 0
2, 126264, Note_on_c, 0, 58, 0
2, 126271, Note_on_c, 0, 32, 66
2, 126272, Note_on_c, 0, 44, 69
2, 126275, Note_on_c, 0, 56, 72
2, 126314, Note_on_c, 0, 44, 0
2, 126318, Note_on_c, 0, 56, 0
2, 126351, Note_on_c, 0, 32, 0
2, 126355, Note_on_c, 0, 58, 73
2, 126359, Note_on_c, 0, 32, 60
2, 126428, Note_on_c, 0, 32, 0
2, 126433, Note_on_c, 0, 44, 64
2, 126435, Note_on_c, 0, 32, 58
2, 126435, Note_on_c, 0, 56, 68
2, 126487, Note_on_c, 0, 44, 0
2, 126495, Note_on_c, 0, 56, 0
2, 126504, Note_on_c, 0, 58, 0
2, 126506, Note_on_c, 0, 54, 71
2, 126555, Note_on_c, 0, 54, 0
2, 126574, Note_on_c, 0, 32, 0
2, 126584, Note_on_c, 0, 32, 70
2, 126585, Note_on_c, 0, 44, 75
2, 126585, Note_on_c, 0, 56, 80
2, 126681, Note_on_c, 0, 54, 72
2, 126700, Note_on_c, 0, 56, 0
2, 126723, Note_on_c, 0, 54, 0
2, 126735, Note_on_c, 0, 32, 0
2, 126740, Note_on_c, 0, 32, 69
2, 126745, Note_on_c, 0, 51, 72
2, 126758, Note_on_c, 0, 44, 0
2, 126815, Note_on_c, 0, 51, 0
2, 126827, Note_on_c, 0, 54, 71
2, 126858, Note_on_c, 0, 32, 0
2, 126877, Note_on_c, 0, 56, 81
2, 126915, Note_on_c, 0, 32, 71
2, 126935, Note_on_c, 0, 54, 0
2, 126958, Note_on_c, 0, 56, 0
2, 127057, Note_on_c, 0, 56, 81
2, 127065, Note_on_c, 0, 32, 0
2, 127072, Note_on_c, 0, 32, 64
2, 127077, Note_on_c, 0, 44, 72
2, 127113, Note_on_c, 0, 56, 0
2, 127203, Note_on_c, 0, 32, 0
2, 127208, Note_on_c, 0, 30, 70
2, 127209, Note_on_c, 0, 56, 87
2, 127209, Note_on_c, 0, 42, 71
2, 127210, Note_on_c, 0, 32, 69
2, 127334, Note_on_c, 0, 32, 0
2, 127361, Note_on_c, 0, 42, 0
2, 127362, Note_on_c, 0, 54, 71
2, 127365, Note_on_c, 0, 56, 0
2, 127369, Note_on_c, 0, 56, 71
2, 127380, Note_on_c, 0, 44, 0
2, 127390, Note_on_c, 0, 32, 56
2, 127391, Note_on_c, 0, 44, 67
2, 127411, Note_on_c, 0, 30, 0
2, 127434, Note_on_c, 0, 56, 0
2, 127442, Note_on_c, 0, 56, 80
2, 127445, Note_on_c, 0, 51, 68
2, 127449, Note_on_c, 0, 54, 0
2, 127503, Note_on_c, 0, 44, 0
2, 127526, Note_on_c, 0, 32, 0
2, 127534, Note_on_c, 0, 32, 71
2, 127633, Note_on_c, 0, 56, 0
2, 127641, Note_on_c, 0, 56, 58
2, 127680, Note_on_c, 0, 32, 0
2, 127690, Note_on_c, 0, 32, 67
2, 127692, Note_on_c, 0, 44, 76
2, 127710, Note_on_c, 0, 56, 0
2, 127715, Note_on_c, 0, 56, 78
2, 127772, Note_on_c, 0, 32, 0
2, 127775, Note_on_c, 0, 44, 0
2, 127856, Note_on_c, 0, 51, 0
2, 127872, Note_on_c, 0, 56, 0
2, 127875, Note_on_c, 0, 30, 72
2, 127876, Note_on_c, 0, 42, 77
2, 127877, Note_on_c, 0, 54, 78
2, 127877, Note_on_c, 0, 56, 73
2, 127881, Note_on_c, 0, 32, 70
2, 127881, Note_on_c, 0, 44, 73
2, 127928, Note_on_c, 0, 42, 0
2, 127933, Note_on_c, 0, 44, 0
2, 127941, Note_on_c, 0, 32, 0
2, 127952, Note_on_c, 0, 32, 40
2, 127956, Note_on_c, 0, 30, 0
2, 127956, Note_on_c, 0, 54, 0
2, 127971, Note_on_c, 0, 56, 0
2, 128025, Note_on_c, 0, 32, 0
2, 128030, Note_on_c, 0, 30, 57
2, 128032, Note_on_c, 0, 32, 61
2, 128039, Note_on_c, 0, 56, 56
2, 128094, Note_on_c, 0, 30, 0
2, 128102, Note_on_c, 0, 32, 0
2, 128110, Note_on_c, 0, 32, 63
2, 128113, Note_on_c, 0, 44, 71
2, 128133, Note_on_c, 0, 56, 0
2, 128142, Note_on_c, 0, 56, 77
2, 128209, Note_on_c, 0, 44, 0
2, 128217, Note_on_c, 0, 32, 0
2, 128228, Note_on_c, 0, 32, 67
2, 128282, Note_on_c, 0, 56, 0
2, 128294, Note_on_c, 0, 32, 0
2, 128300, Note_on_c, 0, 44, 57
2, 128304, Note_on_c, 0, 32, 54
2, 128386, Note_on_c, 0, 32, 0
2, 128394, Note_on_c, 0, 44, 0
2, 128396, Note_on_c, 0, 56, 85
2, 128397, Note_on_c, 0, 32, 59
2, 128398, Note_on_c, 0, 44, 67
2, 128482, Note_on_c, 0, 51, 74
2, 128491, Note_on_c, 0, 56, 0
2, 128494, Note_on_c, 0, 44, 0
2, 128532, Note_on_c, 0, 32, 0
2, 128535, Note_on_c, 0, 51, 0
2, 128537, Note_on_c, 0, 44, 76
2, 128542, Note_on_c, 0, 32, 77
2, 128546, Note_on_c, 0, 54, 75
2, 128616, Note_on_c, 0, 32, 0
2, 128627, Note_on_c, 0, 32, 64
2, 128629, Note_on_c, 0, 56, 78
2, 128662, Note_on_c, 0, 54, 0
2, 128691, Note_on_c, 0, 42, 64
2, 128695, Note_on_c, 0, 30, 59
2, 128698, Note_on_c, 0, 54, 61
2, 128699, Note_on_c, 0, 56, 0
2, 128701, Note_on_c, 0, 42, 0
2, 128709, Note_on_c, 0, 32, 0
2, 128709, Note_on_c, 0, 44, 0
2, 128709, Note_on_c, 0, 54, 0
2, 128714, Note_on_c, 0, 32, 69
2, 128721, Note_on_c, 0, 51, 81
2, 128785, Note_on_c, 0, 30, 0
2, 128785, Note_on_c, 0, 32, 0
2, 128794, Note_on_c, 0, 44, 74
2, 128796, Note_on_c, 0, 56, 82
2, 128797, Note_on_c, 0, 32, 64
2, 128808, Note_on_c, 0, 51, 0
2, 128876, Note_on_c, 0, 56, 0
2, 128883, Note_on_c, 0, 58, 86
2, 128885, Note_on_c, 0, 32, 0
2, 128896, Note_on_c, 0, 32, 71
2, 128930, Note_on_c, 0, 58, 0
2, 128939, Note_on_c, 0, 44, 0
2, 128974, Note_on_c, 0, 54, 79
2, 129024, Note_on_c, 0, 32, 0
2, 129034, Note_on_c, 0, 32, 66
2, 129043, Note_on_c, 0, 54, 0
2, 129050, Note_on_c, 0, 44, 78
2, 129053, Note_on_c, 0, 56, 84
2, 129131, Note_on_c, 0, 44, 0
2, 129136, Note_on_c, 0, 58, 82
2, 129192, Note_on_c, 0, 32, 0
2, 129199, Note_on_c, 0, 32, 68
2, 129204, Note_on_c, 0, 58, 0
2, 129223, Note_on_c, 0, 56, 0
2, 129225, Note_on_c, 0, 61, 84
2, 129296, Note_on_c, 0, 56, 79
2, 129315, Note_on_c, 0, 32, 0
2, 129316, Note_on_c, 0, 61, 0
2, 129327, Note_on_c, 0, 32, 53
2, 129389, Note_on_c, 0, 58, 83
2, 129393, Note_on_c, 0, 56, 0
2, 129418, Note_on_c, 0, 44, 57
2, 129449, Note_on_c, 0, 61, 92
2, 129474, Note_on_c, 0, 58, 0
2, 129484, Note_on_c, 0, 44, 0
2, 129492, Note_on_c, 0, 32, 0
2, 129539, Note_on_c, 0, 32, 92
2, 129543, Note_on_c, 0, 61, 0
2, 129613, Note_on_c, 0, 44, 48
2, 129692, Note_on_c, 0, 61, 98
2, 129707, Note_on_c, 0, 32, 0
2, 129707, Note_on_c, 0, 44, 0
2, 129712, Note_on_c, 0, 44, 77
2, 129713, Note_on_c, 0, 32, 75
2, 129786, Note_on_c, 0, 56, 84
2, 129811, Note_on_c, 0, 61, 0
2, 129830, Note_on_c, 0, 44, 0
2, 129853, Note_on_c, 0, 32, 0
2, 129860, Note_on_c, 0, 56, 0
2, 129864, Note_on_c, 0, 58, 90
2, 129864, Note_on_c, 0, 32, 85
2, 129864, Note_on_c, 0, 44, 85
2, 129941, Note_on_c, 0, 61, 89
2, 129945, Note_on_c, 0, 44, 0
2, 129985, Note_on_c, 0, 58, 0
2, 130009, Note_on_c, 0, 61, 0
2, 130014, Note_on_c, 0, 32, 0
2, 130019, Note_on_c, 0, 32, 70
2, 130022, Note_on_c, 0, 56, 84
2, 130102, Note_on_c, 0, 44, 82
2, 130105, Note_on_c, 0, 61, 86
2, 130127, Note_on_c, 0, 56, 0
2, 130174, Note_on_c, 0, 63, 90
2, 130191, Note_on_c, 0, 32, 0
2, 130196, Note_on_c, 0, 32, 77
2, 130214, Note_on_c, 0, 61, 0
2, 130266, Note_on_c, 0, 58, 90
2, 130282, Note_on_c, 0, 63, 0
2, 130283, Note_on_c, 0, 44, 0
2, 130337, Note_on_c, 0, 32, 0
2, 130345, Note_on_c, 0, 32, 80
2, 130346, Note_on_c, 0, 44, 80
2, 130348, Note_on_c, 0, 61, 90
2, 130414, Note_on_c, 0, 63, 89
2, 130475, Note_on_c, 0, 32, 0
2, 130479, Note_on_c, 0, 61, 0
2, 130483, Note_on_c, 0, 58, 0
2, 130484, Note_on_c, 0, 32, 82
2, 130488, Note_on_c, 0, 63, 0
2, 130489, Note_on_c, 0, 66, 97
2, 130493, Note_on_c, 0, 44, 0
2, 130532, Note_on_c, 0, 66, 0
2, 130563, Note_on_c, 0, 63, 77
2, 130621, Note_on_c, 0, 32, 0
2, 130625, Note_on_c, 0, 32, 61
2, 130655, Note_on_c, 0, 66, 93
2, 130713, Note_on_c, 0, 32, 0
2, 130717, Note_on_c, 0, 32, 71
2, 130718, Note_on_c, 0, 44, 76
2, 130722, Note_on_c, 0, 68, 100
2, 130749, Note_on_c, 0, 66, 0
2, 130767, Note_on_c, 0, 44, 0
2, 130767, Note_on_c, 0, 63, 0
2, 130813, Note_on_c, 0, 68, 0
2, 130821, Note_on_c, 0, 32, 0
2, 130824, Note_on_c, 0, 32, 89
2, 130973, Note_on_c, 0, 70, 103
2, 130990, Note_on_c, 0, 32, 0
2, 130998, Note_on_c, 0, 32, 78
2, 131003, Note_on_c, 0, 44, 82
2, 131065, Note_on_c, 0, 66, 97
2, 131074, Note_on_c, 0, 44, 0
2, 131136, Note_on_c, 0, 32, 0
2, 131144, Note_on_c, 0, 68, 97
2, 131145, Note_on_c, 0, 44, 86
2, 131146, Note_on_c, 0, 32, 80
2, 131205, Note_on_c, 0, 70, 0
2, 131212, Note_on_c, 0, 70, 87
2, 131235, Note_on_c, 0, 66, 0
2, 131281, Note_on_c, 0, 32, 0
2, 131288, Note_on_c, 0, 32, 84
2, 131299, Note_on_c, 0, 66, 97
2, 131366, Note_on_c, 0, 32, 0
2, 131366, Note_on_c, 0, 68, 0
2, 131370, Note_on_c, 0, 32, 72
2, 131376, Note_on_c, 0, 68, 91
2, 131435, Note_on_c, 0, 66, 0
2, 131439, Note_on_c, 0, 68, 0
2, 131443, Note_on_c, 0, 44, 0
2, 131443, Note_on_c, 0, 70, 0
2, 131456, Note_on_c, 0, 73, 94
2, 131459, Note_on_c, 0, 39, 85
2, 131520, Note_on_c, 0, 32, 0
2, 131530, Note_on_c, 0, 32, 62
2, 131531, Note_on_c, 0, 68, 97
2, 131596, Note_on_c, 0, 32, 0
2, 131607, Note_on_c, 0, 70, 88
2, 131607, Note_on_c, 0, 32, 80
2, 131688, Note_on_c, 0, 73, 0
2, 131693, Note_on_c, 0, 73, 85
2, 131762, Note_on_c, 0, 73, 0
2, 131763, Note_on_c, 0, 75, 92
2, 131773, Note_on_c, 0, 39, 0
2, 131781, Note_on_c, 0, 68, 0
2, 131827, Note_on_c, 0, 70, 0
2, 131827, Control_c, 0, 64, 127
2, 131847, Note_on_c, 0, 73, 87
2, 131927, Note_on_c, 0, 75, 0
2, 131937, Note_on_c, 0, 75, 87
2, 131980, Note_on_c, 0, 32, 0
2, 131991, Note_on_c, 0, 32, 79
2, 131992, Note_on_c, 0, 44, 81
2, 131995, Note_on_c, 0, 78, 80
2, 132004, Note_on_c, 0, 75, 0
2, 132011, Note_on_c, 0, 73, 0
2, 132011, Control_c, 0, 64, 0
2, 132071, Note_on_c, 0, 80, 107
2, 132072, Note_on_c, 0, 32, 0
2, 132074, Note_on_c, 0, 68, 106
2, 132078, Note_on_c, 0, 75, 89
2, 132078, Note_on_c, 0, 32, 90
2, 132142, Note_on_c, 0, 78, 0
2, 132180, Control_c, 0, 64, 127
2, 132597, Note_on_c, 0, 56, 87
2, 132602, Control_c, 0, 64, 0
2, 132663, Note_on_c, 0, 51, 90
2, 132687, Note_on_c, 0, 44, 0
2, 132749, Note_on_c, 0, 44, 99
2, 132764, Control_c, 0, 64, 127
2, 132894, Note_on_c, 0, 75, 0
2, 132902, Note_on_c, 0, 80, 0
2, 132902, Note_on_c, 0, 68, 0
2, 132904, Note_on_c, 0, 32, 0
2, 132906, Note_on_c, 0, 44, 0
2, 132910, Note_on_c, 0, 56, 0
2, 132917, Note_on_c, 0, 51, 0
2, 132922, Control_c, 0, 64, 0
2, 133275, Note_on_c, 0, 40, 90
2, 133278, Note_on_c, 0, 28, 83
2, 133309, Control_c, 0, 64, 127
2, 133323, Note_on_c, 0, 35, 64
2, 133416, Note_on_c, 0, 28, 0
2, 133426, Note_on_c, 0, 28, 82
2, 133436, Note_on_c, 0, 68, 108
2, 133442, Note_on_c, 0, 62, 72
2, 133442, Note_on_c, 0, 64, 93
2, 133470, Control_c, 0, 64, 0
2, 133555, Control_c, 0, 64, 127
2, 133585, Note_on_c, 0, 64, 0
2, 133593, Note_on_c, 0, 40, 0
2, 133597, Note_on_c, 0, 64, 68
2, 133604, Note_on_c, 0, 40, 75
2, 133682, Note_on_c, 0, 47, 80
2, 133754, Note_on_c, 0, 47, 0
2, 133758, Note_on_c, 0, 52, 88
2, 133759, Note_on_c, 0, 47, 67
2, 133831, Note_on_c, 0, 52, 0
2, 133837, Note_on_c, 0, 52, 82
2, 133950, Note_on_c, 0, 56, 81
2, 134008, Note_on_c, 0, 40, 0
2, 134012, Note_on_c, 0, 59, 83
2, 134019, Note_on_c, 0, 40, 62
2, 134077, Note_on_c, 0, 68, 0
2, 134084, Note_on_c, 0, 68, 108
2, 134092, Note_on_c, 0, 40, 0
2, 134100, Note_on_c, 0, 64, 0
2, 134101, Note_on_c, 0, 40, 78
2, 134105, Note_on_c, 0, 64, 87
2, 134169, Note_on_c, 0, 47, 0
2, 134169, Note_on_c, 0, 59, 0
2, 134173, Note_on_c, 0, 47, 64
2, 134174, Note_on_c, 0, 59, 75
2, 134238, Note_on_c, 0, 56, 0
2, 134246, Note_on_c, 0, 56, 87
2, 134292, Note_on_c, 0, 52, 0
2, 134301, Note_on_c, 0, 52, 60
2, 134326, Control_c, 0, 64, 0
2, 134326, Note_on_c, 0, 62, 0
2, 134342, Note_on_c, 0, 70, 102
2, 134344, Note_on_c, 0, 66, 107
2, 134369, Note_on_c, 0, 47, 0
2, 134379, Note_on_c, 0, 47, 56
2, 134392, Control_c, 0, 64, 127
2, 134446, Note_on_c, 0, 52, 0
2, 134452, Note_on_c, 0, 52, 82
2, 134492, Note_on_c, 0, 47, 0
2, 134502, Note_on_c, 0, 47, 80
2, 134561, Note_on_c, 0, 28, 0
2, 134566, Note_on_c, 0, 28, 80
2, 134584, Note_on_c, 0, 68, 0
2, 134591, Note_on_c, 0, 71, 99
2, 134595, Note_on_c, 0, 68, 96
2, 134668, Note_on_c, 0, 35, 0
2, 134672, Note_on_c, 0, 28, 0
2, 134673, Note_on_c, 0, 66, 0
2, 134673, Note_on_c, 0, 71, 0
2, 134673, Note_on_c, 0, 59, 0
2, 134673, Note_on_c, 0, 68, 0
2, 134673, Note_on_c, 0, 70, 0
2, 134674, Note_on_c, 0, 52, 0
2, 134676, Note_on_c, 0, 56, 0
2, 134676, Control_c, 0, 64, 0
2, 134684, Note_on_c, 0, 64, 0
2, 134691, Note_on_c, 0, 40, 0
2, 134691, Note_on_c, 0, 47, 0
2, 134748, Note_on_c, 0, 70, 107
2, 134749, Note_on_c, 0, 58, 90
2, 134749, Note_on_c, 0, 30, 88
2, 134750, Note_on_c, 0, 42, 93
2, 134751, Note_on_c, 0, 66, 105
2, 134752, Note_on_c, 0, 61, 78
2, 134853, Control_c, 0, 64, 127
2, 134968, Note_on_c, 0, 42, 0
2, 134976, Note_on_c, 0, 42, 73
2, 135006, Note_on_c, 0, 66, 0
2, 135011, Note_on_c, 0, 54, 81
2, 135012, Note_on_c, 0, 66, 101
2, 135241, Note_on_c, 0, 52, 45
2, 135252, Note_on_c, 0, 52, 0
2, 135252, Note_on_c, 0, 61, 0
2, 135263, Note_on_c, 0, 61, 95
2, 135313, Note_on_c, 0, 58, 0
2, 135318, Note_on_c, 0, 58, 90
2, 135413, Note_on_c, 0, 61, 0
2, 135413, Note_on_c, 0, 66, 0
2, 135419, Note_on_c, 0, 66, 109
2, 135423, Note_on_c, 0, 61, 74
2, 135436, Note_on_c, 0, 42, 0
2, 135445, Note_on_c, 0, 42, 68
2, 135467, Note_on_c, 0, 58, 0
2, 135472, Note_on_c, 0, 58, 75
2, 135544, Note_on_c, 0, 54, 0
2, 135549, Note_on_c, 0, 54, 67
2, 135612, Note_on_c, 0, 49, 75
2, 135674, Note_on_c, 0, 70, 0
2, 135681, Note_on_c, 0, 70, 108
2, 135682, Note_on_c, 0, 58, 0
2, 135682, Note_on_c, 0, 66, 0
2, 135686, Note_on_c, 0, 66, 107
2, 135688, Note_on_c, 0, 58, 75
2, 135785, Note_on_c, 0, 42, 0
2, 135933, Note_on_c, 0, 71, 100
2, 135934, Note_on_c, 0, 68, 97
2, 135999, Note_on_c, 0, 30, 0
2, 136001, Note_on_c, 0, 61, 0
2, 136001, Note_on_c, 0, 49, 0
2, 136002, Note_on_c, 0, 54, 0
2, 136003, Note_on_c, 0, 58, 0
2, 136006, Note_on_c, 0, 66, 0
2, 136006, Note_on_c, 0, 70, 0
2, 136007, Note_on_c, 0, 68, 0
2, 136008, Note_on_c, 0, 71, 0
2, 136021, Control_c, 0, 64, 0
2, 136096, Note_on_c, 0, 27, 101
2, 136101, Note_on_c, 0, 73, 115
2, 136108, Note_on_c, 0, 70, 96
2, 136143, Control_c, 0, 64, 127
2, 136264, Note_on_c, 0, 46, 68
2, 136335, Note_on_c, 0, 46, 0
2, 136342, Note_on_c, 0, 46, 71
2, 136343, Note_on_c, 0, 34, 66
2, 136512, Note_on_c, 0, 46, 0
2, 136523, Note_on_c, 0, 46, 70
2, 136607, Note_on_c, 0, 54, 76
2, 136624, Note_on_c, 0, 75, 88
2, 136699, Note_on_c, 0, 76, 91
2, 136702, Note_on_c, 0, 58, 80
2, 136776, Note_on_c, 0, 78, 107
2, 136778, Note_on_c, 0, 63, 95
2, 136788, Note_on_c, 0, 54, 0
2, 136799, Note_on_c, 0, 54, 62
2, 136800, Note_on_c, 0, 51, 54
2, 136849, Note_on_c, 0, 58, 0
2, 136855, Note_on_c, 0, 58, 47
2, 136857, Note_on_c, 0, 76, 0
2, 136864, Note_on_c, 0, 76, 86
2, 136888, Note_on_c, 0, 54, 0
2, 136893, Note_on_c, 0, 54, 32
2, 136942, Note_on_c, 0, 75, 0
2, 136948, Note_on_c, 0, 75, 96
2, 136988, Note_on_c, 0, 51, 0
2, 136999, Note_on_c, 0, 51, 85
2, 136999, Note_on_c, 0, 66, 74
2, 137018, Note_on_c, 0, 73, 0
2, 137029, Note_on_c, 0, 73, 92
2, 137107, Note_on_c, 0, 71, 93
2, 137164, Note_on_c, 0, 34, 0
2, 137164, Note_on_c, 0, 46, 0
2, 137169, Note_on_c, 0, 46, 87
2, 137171, Note_on_c, 0, 34, 78
2, 137172, Note_on_c, 0, 70, 0
2, 137182, Note_on_c, 0, 70, 93
2, 137256, Note_on_c, 0, 71, 0
2, 137266, Note_on_c, 0, 39, 78
2, 137268, Note_on_c, 0, 71, 69
2, 137268, Note_on_c, 0, 68, 87
2, 137303, Note_on_c, 0, 66, 0
2, 137303, Note_on_c, 0, 71, 0
2, 137307, Note_on_c, 0, 71, 52
2, 137308, Note_on_c, 0, 66, 97
2, 137364, Control_c, 0, 64, 0
2, 137367, Note_on_c, 0, 71, 0
2, 137367, Note_on_c, 0, 27, 0
2, 137367, Note_on_c, 0, 75, 0
2, 137367, Note_on_c, 0, 46, 0
2, 137367, Note_on_c, 0, 73, 0
2, 137367, Note_on_c, 0, 66, 0
2, 137367, Note_on_c, 0, 70, 0
2, 137367, Note_on_c, 0, 58, 0
2, 137368, Note_on_c, 0, 34, 0
2, 137368, Note_on_c, 0, 78, 0
2, 137368, Note_on_c, 0, 39, 0
2, 137368, Note_on_c, 0, 63, 0
2, 137368, Note_on_c, 0, 54, 0
2, 137368, Note_on_c, 0, 68, 0
2, 137379, Note_on_c, 0, 76, 0
2, 137387, Note_on_c, 0, 51, 0
2, 137425, Note_on_c, 0, 70, 104
2, 137427, Note_on_c, 0, 32, 90
2, 137433, Note_on_c, 0, 66, 100
2, 137464, Control_c, 0, 64, 127
2, 137664, Note_on_c, 0, 66, 0
2, 137664, Note_on_c, 0, 70, 0
2, 137668, Note_on_c, 0, 66, 109
2, 137673, Note_on_c, 0, 70, 102
2, 137713, Note_on_c, 0, 44, 79
2, 137794, Note_on_c, 0, 44, 0
2, 137801, Note_on_c, 0, 44, 78
2, 137820, Note_on_c, 0, 51, 65
2, 137885, Note_on_c, 0, 56, 75
2, 137938, Note_on_c, 0, 71, 100
2, 137986, Note_on_c, 0, 59, 79
2, 138001, Note_on_c, 0, 70, 0
2, 138012, Note_on_c, 0, 70, 86
2, 138014, Note_on_c, 0, 63, 59
2, 138078, Note_on_c, 0, 59, 0
2, 138078, Note_on_c, 0, 63, 0
2, 138083, Note_on_c, 0, 63, 71
2, 138087, Note_on_c, 0, 68, 102
2, 138088, Note_on_c, 0, 59, 74
2, 138170, Note_on_c, 0, 59, 0
2, 138180, Note_on_c, 0, 59, 77
2, 138255, Note_on_c, 0, 71, 0
2, 138266, Note_on_c, 0, 75, 110
2, 138266, Note_on_c, 0, 71, 103
2, 138401, Note_on_c, 0, 32, 0
2, 138401, Note_on_c, 0, 44, 0
2, 138406, Note_on_c, 0, 32, 83
2, 138410, Note_on_c, 0, 44, 99
2, 138570, Note_on_c, 0, 71, 0
2, 138575, Note_on_c, 0, 80, 115
2, 138581, Note_on_c, 0, 71, 101
2, 138650, Note_on_c, 0, 70, 0
2, 138650, Note_on_c, 0, 63, 0
2, 138650, Note_on_c, 0, 44, 0
2, 138650, Note_on_c, 0, 32, 0
2, 138650, Note_on_c, 0, 66, 0
2, 138650, Note_on_c, 0, 51, 0
2, 138650, Note_on_c, 0, 68, 0
2, 138650, Note_on_c, 0, 59, 0
2, 138650, Note_on_c, 0, 56, 0
2, 138651, Note_on_c, 0, 75, 0
2, 138652, Control_c, 0, 64, 0
2, 138727, Note_on_c, 0, 40, 98
2, 138728, Note_on_c, 0, 28, 91
2, 138739, Control_c, 0, 64, 127
2, 138900, Note_on_c, 0, 71, 0
2, 138900, Note_on_c, 0, 80, 0
2, 138904, Note_on_c, 0, 80, 94
2, 138910, Note_on_c, 0, 71, 68
2, 138927, Note_on_c, 0, 76, 41
2, 138968, Note_on_c, 0, 35, 81
2, 138969, Note_on_c, 0, 76, 0
2, 138969, Note_on_c, 0, 80, 0
2, 138971, Note_on_c, 0, 47, 87
2, 138976, Note_on_c, 0, 80, 100
2, 138978, Note_on_c, 0, 76, 70
2, 139054, Note_on_c, 0, 80, 0
2, 139059, Note_on_c, 0, 52, 74
2, 139061, Note_on_c, 0, 80, 108
2, 139069, Note_on_c, 0, 52, 0
2, 139084, Note_on_c, 0, 47, 0
2, 139089, Note_on_c, 0, 47, 61
2, 139126, Note_on_c, 0, 56, 73
2, 139161, Note_on_c, 0, 71, 0
2, 139165, Note_on_c, 0, 52, 64
2, 139172, Note_on_c, 0, 71, 69
2, 139195, Note_on_c, 0, 59, 68
2, 139215, Note_on_c, 0, 59, 0
2, 139220, Note_on_c, 0, 83, 100
2, 139222, Note_on_c, 0, 59, 74
2, 139276, Note_on_c, 0, 59, 0
2, 139276, Note_on_c, 0, 76, 0
2, 139282, Note_on_c, 0, 59, 67
2, 139286, Note_on_c, 0, 64, 73
2, 139286, Note_on_c, 0, 76, 71
2, 139317, Note_on_c, 0, 82, 98
2, 139376, Note_on_c, 0, 59, 0
2, 139384, Note_on_c, 0, 68, 107
2, 139384, Note_on_c, 0, 35, 0
2, 139384, Note_on_c, 0, 80, 0
2, 139386, Note_on_c, 0, 59, 78
2, 139389, Note_on_c, 0, 80, 87
2, 139461, Note_on_c, 0, 82, 0
2, 139465, Note_on_c, 0, 82, 93
2, 139484, Note_on_c, 0, 59, 0
2, 139484, Note_on_c, 0, 64, 0
2, 139490, Note_on_c, 0, 59, 47
2, 139492, Note_on_c, 0, 64, 64
2, 139537, Note_on_c, 0, 80, 0
2, 139547, Note_on_c, 0, 80, 95
2, 139613, Note_on_c, 0, 78, 97
2, 139630, Note_on_c, 0, 64, 0
2, 139640, Note_on_c, 0, 64, 94
2, 139676, Note_on_c, 0, 76, 0
2, 139686, Note_on_c, 0, 76, 92
2, 139745, Note_on_c, 0, 78, 0
2, 139749, Note_on_c, 0, 78, 93
2, 139829, Note_on_c, 0, 76, 0
2, 139837, Note_on_c, 0, 76, 100
2, 139837, Note_on_c, 0, 59, 0
2, 139843, Note_on_c, 0, 59, 76
2, 139937, Note_on_c, 0, 75, 94
2, 139964, Note_on_c, 0, 28, 0
2, 139964, Note_on_c, 0, 40, 0
2, 139964, Note_on_c, 0, 52, 0
2, 139964, Note_on_c, 0, 56, 0
2, 139964, Note_on_c, 0, 68, 0
2, 139964, Note_on_c, 0, 83, 0
2, 139964, Note_on_c, 0, 82, 0
2, 139964, Note_on_c, 0, 71, 0
2, 139965, Note_on_c, 0, 78, 0
2, 139965, Note_on_c, 0, 80, 0
2, 139965, Note_on_c, 0, 47, 0
2, 139965, Note_on_c, 0, 59, 0
2, 139965, Note_on_c, 0, 76, 0
2, 139965, Note_on_c, 0, 64, 0
2, 139965, Control_c, 0, 64, 0
2, 140010, Note_on_c, 0, 73, 94
2, 140012, Note_on_c, 0, 32, 95
2, 140016, Note_on_c, 0, 30, 97
2, 140018, Note_on_c, 0, 42, 92
2, 140067, Note_on_c, 0, 75, 0
2, 140067, Control_c, 0, 64, 127
2, 140078, Note_on_c, 0, 75, 80
2, 140160, Note_on_c, 0, 73, 0
2, 140165, Note_on_c, 0, 73, 80
2, 140243, Note_on_c, 0, 71, 93
2, 140248, Note_on_c, 0, 49, 84
2, 140298, Note_on_c, 0, 32, 0
2, 140317, Note_on_c, 0, 70, 98
2, 140398, Note_on_c, 0, 71, 0
2, 140402, Note_on_c, 0, 71, 82
2, 140490, Note_on_c, 0, 42, 0
2, 140490, Note_on_c, 0, 70, 0
2, 140490, Note_on_c, 0, 54, 68
2, 140494, Note_on_c, 0, 70, 78
2, 140495, Note_on_c, 0, 42, 69
2, 140562, Note_on_c, 0, 68, 92
2, 140646, Note_on_c, 0, 66, 99
2, 140649, Note_on_c, 0, 61, 92
2, 140705, Note_on_c, 0, 70, 0
2, 140715, Note_on_c, 0, 70, 79
2, 140782, Note_on_c, 0, 66, 0
2, 140787, Note_on_c, 0, 66, 91
2, 140843, Note_on_c, 0, 68, 0
2, 140848, Note_on_c, 0, 68, 67
2, 140866, Note_on_c, 0, 49, 0
2, 140870, Note_on_c, 0, 49, 64
2, 140901, Note_on_c, 0, 58, 86
2, 140958, Note_on_c, 0, 71, 0
2, 140968, Note_on_c, 0, 71, 89
2, 141035, Note_on_c, 0, 73, 0
2, 141046, Note_on_c, 0, 73, 91
2, 141120, Note_on_c, 0, 54, 0
2, 141121, Note_on_c, 0, 78, 107
2, 141124, Note_on_c, 0, 54, 85
2, 141127, Note_on_c, 0, 42, 0
2, 141173, Note_on_c, 0, 71, 0
2, 141180, Note_on_c, 0, 71, 49
2, 141246, Note_on_c, 0, 71, 0
2, 141247, Note_on_c, 0, 68, 0
2, 141247, Note_on_c, 0, 49, 0
2, 141247, Note_on_c, 0, 30, 0
2, 141247, Note_on_c, 0, 54, 0
2, 141247, Note_on_c, 0, 66, 0
2, 141247, Note_on_c, 0, 58, 0
2, 141247, Note_on_c, 0, 70, 0
2, 141247, Note_on_c, 0, 61, 0
2, 141248, Note_on_c, 0, 78, 0
2, 141248, Note_on_c, 0, 75, 0
2, 141249, Control_c, 0, 64, 0
2, 141265, Note_on_c, 0, 73, 0
2, 141290, Note_on_c, 0, 77, 103
2, 141291, Note_on_c, 0, 37, 99
2, 141292, Note_on_c, 0, 65, 88
2, 141292, Note_on_c, 0, 25, 84
2, 141296, Note_on_c, 0, 25, 0
2, 141342, Control_c, 0, 64, 127
2, 141353, Note_on_c, 0, 73, 66
2, 141437, Note_on_c, 0, 68, 86
2, 141527, Note_on_c, 0, 73, 0
2, 141531, Note_on_c, 0, 73, 96
2, 141596, Note_on_c, 0, 68, 0
2, 141603, Note_on_c, 0, 68, 86
2, 141642, Note_on_c, 0, 65, 0
2, 141652, Note_on_c, 0, 65, 80
2, 141723, Note_on_c, 0, 61, 33
2, 141757, Note_on_c, 0, 68, 0
2, 141761, Note_on_c, 0, 53, 57
2, 141764, Note_on_c, 0, 68, 104
2, 141857, Note_on_c, 0, 53, 0
2, 141865, Note_on_c, 0, 56, 59
2, 141868, Note_on_c, 0, 53, 43
2, 141926, Note_on_c, 0, 61, 0
2, 141926, Note_on_c, 0, 65, 0
2, 141931, Note_on_c, 0, 65, 99
2, 141931, Note_on_c, 0, 61, 80
2, 141980, Note_on_c, 0, 56, 0
2, 141985, Note_on_c, 0, 56, 56
2, 142095, Note_on_c, 0, 37, 0
2, 142100, Note_on_c, 0, 49, 61
2, 142105, Note_on_c, 0, 37, 62
2, 142164, Note_on_c, 0, 61, 0
2, 142166, Note_on_c, 0, 44, 77
2, 142175, Note_on_c, 0, 61, 95
2, 142256, Note_on_c, 0, 37, 0
2, 142258, Note_on_c, 0, 65, 0
2, 142260, Note_on_c, 0, 37, 86
2, 142333, Note_on_c, 0, 56, 0
2, 142344, Note_on_c, 0, 56, 66
2, 142410, Note_on_c, 0, 68, 0
2, 142415, Note_on_c, 0, 68, 102
2, 142540, Note_on_c, 0, 37, 0
2, 142541, Note_on_c, 0, 61, 0
2, 142541, Note_on_c, 0, 49, 0
2, 142542, Control_c, 0, 64, 0
2, 142542, Note_on_c, 0, 73, 0
2, 142542, Note_on_c, 0, 56, 0
2, 142542, Note_on_c, 0, 53, 0
2, 142542, Note_on_c, 0, 68, 0
2, 142543, Note_on_c, 0, 77, 0
2, 142563, Note_on_c, 0, 44, 0
2, 142586, Note_on_c, 0, 39, 91
2, 142592, Note_on_c, 0, 67, 99
2, 142640, Control_c, 0, 64, 127
2, 142680, Note_on_c, 0, 68, 97
2, 142748, Note_on_c, 0, 67, 0
2, 142751, Note_on_c, 0, 55, 68
2, 142756, Note_on_c, 0, 67, 84
2, 142840, Note_on_c, 0, 55, 0
2, 142844, Note_on_c, 0, 65, 84
2, 142845, Note_on_c, 0, 55, 74
2, 142901, Note_on_c, 0, 67, 0
2, 142911, Note_on_c, 0, 67, 94
2, 142994, Note_on_c, 0, 51, 67
2, 142998, Note_on_c, 0, 63, 90
2, 143040, Note_on_c, 0, 55, 0
2, 143045, Note_on_c, 0, 55, 78
2, 143070, Note_on_c, 0, 67, 0
2, 143079, Note_on_c, 0, 67, 92
2, 143136, Note_on_c, 0, 58, 80
2, 143158, Note_on_c, 0, 70, 91
2, 143208, Note_on_c, 0, 63, 0
2, 143214, Note_on_c, 0, 63, 86
2, 143220, Note_on_c, 0, 75, 99
2, 143278, Note_on_c, 0, 55, 0
2, 143278, Note_on_c, 0, 67, 0
2, 143287, Note_on_c, 0, 55, 79
2, 143288, Note_on_c, 0, 67, 98
2, 143354, Note_on_c, 0, 70, 0
2, 143360, Note_on_c, 0, 70, 92
2, 143362, Note_on_c, 0, 58, 0
2, 143368, Note_on_c, 0, 58, 69
2, 143424, Note_on_c, 0, 63, 0
2, 143431, Note_on_c, 0, 75, 0
2, 143435, Note_on_c, 0, 63, 83
2, 143436, Note_on_c, 0, 75, 91
2, 143508, Note_on_c, 0, 67, 0
2, 143511, Note_on_c, 0, 79, 94
2, 143517, Note_on_c, 0, 67, 86
2, 143585, Note_on_c, 0, 63, 0
2, 143585, Note_on_c, 0, 75, 0
2, 143592, Note_on_c, 0, 75, 99
2, 143596, Note_on_c, 0, 63, 81
2, 143662, Note_on_c, 0, 79, 0
2, 143669, Note_on_c, 0, 67, 0
2, 143673, Note_on_c, 0, 79, 89
2, 143673, Note_on_c, 0, 67, 79
2, 143731, Note_on_c, 0, 70, 0
2, 143738, Note_on_c, 0, 70, 79
2, 143739, Note_on_c, 0, 82, 101
2, 143838, Note_on_c, 0, 63, 0
2, 143838, Note_on_c, 0, 67, 0
2, 143838, Note_on_c, 0, 70, 0
2, 143838, Note_on_c, 0, 75, 0
2, 143839, Note_on_c, 0, 87, 104
2, 143846, Note_on_c, 0, 79, 0
2, 143847, Note_on_c, 0, 75, 82
2, 143847, Note_on_c, 0, 67, 80
2, 143848, Note_on_c, 0, 70, 85
2, 143849, Note_on_c, 0, 63, 63
2, 143852, Note_on_c, 0, 79, 90
2, 143872, Control_c, 0, 64, 0
2, 143884, Note_on_c, 0, 68, 0
2, 143885, Note_on_c, 0, 65, 0
2, 143886, Note_on_c, 0, 55, 0
2, 143887, Note_on_c, 0, 51, 0
2, 143887, Note_on_c, 0, 58, 0
2, 143900, Note_on_c, 0, 39, 0
2, 144115, Control_c, 0, 64, 127
2, 146485, Note_on_c, 0, 65, 46
2, 146490, Note_on_c, 0, 72, 57
2, 146491, Note_on_c, 0, 69, 52
2, 146496, Control_c, 0, 64, 0
2, 146511, Note_on_c, 0, 63, 0
2, 146511, Note_on_c, 0, 87, 0
2, 146519, Note_on_c, 0, 67, 0
2, 146519, Note_on_c, 0, 75, 0
2, 146519, Note_on_c, 0, 79, 0
2, 146519, Note_on_c, 0, 82, 0
2, 146526, Note_on_c, 0, 70, 0
2, 146572, Control_c, 0, 64, 127
2, 146653, Note_on_c, 0, 82, 65
2, 146806, Note_on_c, 0, 81, 67
2, 146980, Note_on_c, 0, 77, 69
2, 147134, Note_on_c, 0, 82, 0
2, 147134, Note_on_c, 0, 72, 0
2, 147134, Note_on_c, 0, 81, 0
2, 147137, Control_c, 0, 64, 0
2, 147148, Note_on_c, 0, 65, 0
2, 147156, Note_on_c, 0, 77, 0
2, 147160, Note_on_c, 0, 67, 60
2, 147161, Note_on_c, 0, 74, 59
2, 147163, Note_on_c, 0, 77, 66
2, 147164, Note_on_c, 0, 69, 0
2, 147168, Note_on_c, 0, 70, 58
2, 147279, Control_c, 0, 64, 127
2, 147322, Note_on_c, 0, 79, 67
2, 147402, Note_on_c, 0, 79, 0
2, 147406, Note_on_c, 0, 79, 74
2, 147425, Note_on_c, 0, 77, 0
2, 147672, Note_on_c, 0, 77, 66
2, 147824, Note_on_c, 0, 77, 0
2, 147831, Note_on_c, 0, 77, 72
2, 147985, Note_on_c, 0, 79, 0
2, 147997, Note_on_c, 0, 79, 75
2, 148085, Note_on_c, 0, 79, 0
2, 148091, Note_on_c, 0, 79, 66
2, 148323, Note_on_c, 0, 77, 0
2, 148332, Note_on_c, 0, 77, 72
2, 148485, Note_on_c, 0, 77, 0
2, 148492, Note_on_c, 0, 67, 0
2, 148492, Note_on_c, 0, 70, 0
2, 148494, Note_on_c, 0, 77, 72
2, 148500, Note_on_c, 0, 67, 65
2, 148502, Note_on_c, 0, 70, 63
2, 148505, Note_on_c, 0, 63, 51
2, 148510, Control_c, 0, 64, 0
2, 148513, Note_on_c, 0, 74, 0
2, 148514, Note_on_c, 0, 79, 0
2, 148608, Control_c, 0, 64, 127
2, 148659, Note_on_c, 0, 79, 75
2, 148730, Note_on_c, 0, 79, 0
2, 148739, Note_on_c, 0, 79, 85
2, 148976, Note_on_c, 0, 77, 0
2, 148981, Note_on_c, 0, 77, 68
2, 149137, Note_on_c, 0, 79, 0
2, 149142, Note_on_c, 0, 79, 77
2, 149145, Note_on_c, 0, 70, 0
2, 149147, Note_on_c, 0, 74, 73
2, 149150, Note_on_c, 0, 70, 67
2, 149306, Note_on_c, 0, 81, 80
2, 149473, Note_on_c, 0, 82, 81
2, 149639, Note_on_c, 0, 84, 82
2, 149783, Note_on_c, 0, 81, 0
2, 149794, Note_on_c, 0, 81, 83
2, 149802, Note_on_c, 0, 69, 64
2, 149806, Note_on_c, 0, 72, 58
2, 149814, Note_on_c, 0, 65, 55
2, 149819, Note_on_c, 0, 74, 0
2, 149820, Note_on_c, 0, 82, 0
2, 149820, Note_on_c, 0, 70, 0
2, 149821, Note_on_c, 0, 63, 0
2, 149821, Note_on_c, 0, 84, 0
2, 149822, Note_on_c, 0, 77, 0
2, 149822, Note_on_c, 0, 79, 0
2, 149822, Control_c, 0, 64, 0
2, 149836, Note_on_c, 0, 67, 0
2, 149975, Control_c, 0, 64, 127
2, 150128, Note_on_c, 0, 77, 80
2, 150467, Note_on_c, 0, 87, 88
2, 150797, Note_on_c, 0, 84, 80
2, 151116, Note_on_c, 0, 69, 0
2, 151116, Control_c, 0, 64, 0
2, 151117, Note_on_c, 0, 81, 0
2, 151118, Note_on_c, 0, 72, 0
2, 151118, Note_on_c, 0, 65, 0
2, 151119, Note_on_c, 0, 84, 0
2, 151130, Note_on_c, 0, 84, 76
2, 151134, Note_on_c, 0, 77, 0
2, 151145, Note_on_c, 0, 77, 63
2, 151147, Note_on_c, 0, 74, 60
2, 151154, Note_on_c, 0, 70, 56
2, 151196, Note_on_c, 0, 87, 0
2, 151219, Control_c, 0, 64, 127
2, 151388, Note_on_c, 0, 84, 0
2, 151392, Note_on_c, 0, 84, 78
2, 151659, Note_on_c, 0, 86, 81
2, 151817, Note_on_c, 0, 69, 74
2, 151994, Note_on_c, 0, 82, 76
2, 152156, Note_on_c, 0, 81, 70
2, 152317, Note_on_c, 0, 77, 0
2, 152321, Note_on_c, 0, 77, 66
2, 152441, Note_on_c, 0, 81, 0
2, 152441, Note_on_c, 0, 69, 0
2, 152442, Note_on_c, 0, 82, 0
2, 152442, Note_on_c, 0, 70, 0
2, 152442, Note_on_c, 0, 84, 0
2, 152442, Note_on_c, 0, 74, 0
2, 152442, Note_on_c, 0, 86, 0
2, 152443, Control_c, 0, 64, 0
2, 152478, Note_on_c, 0, 77, 0
2, 152485, Note_on_c, 0, 67, 65
2, 152487, Note_on_c, 0, 77, 74
2, 152532, Control_c, 0, 64, 127
2, 152638, Note_on_c, 0, 79, 72
2, 152660, Note_on_c, 0, 69, 61
2, 152716, Note_on_c, 0, 79, 0
2, 152725, Note_on_c, 0, 79, 83
2, 152812, Note_on_c, 0, 70, 68
2, 152962, Note_on_c, 0, 77, 0
2, 152967, Note_on_c, 0, 74, 71
2, 152968, Note_on_c, 0, 77, 78
2, 153123, Note_on_c, 0, 77, 0
2, 153133, Note_on_c, 0, 77, 78
2, 153285, Note_on_c, 0, 79, 0
2, 153289, Note_on_c, 0, 79, 79
2, 153354, Note_on_c, 0, 79, 0
2, 153363, Note_on_c, 0, 79, 85
2, 153592, Note_on_c, 0, 77, 0
2, 153598, Note_on_c, 0, 77, 79
2, 153753, Note_on_c, 0, 67, 0
2, 153753, Note_on_c, 0, 70, 0
2, 153753, Note_on_c, 0, 77, 0
2, 153753, Control_c, 0, 64, 0
2, 153757, Note_on_c, 0, 69, 0
2, 153759, Note_on_c, 0, 74, 0
2, 153759, Note_on_c, 0, 67, 72
2, 153760, Note_on_c, 0, 79, 0
2, 153764, Note_on_c, 0, 70, 72
2, 153764, Note_on_c, 0, 63, 61
2, 153765, Note_on_c, 0, 77, 75
2, 153853, Control_c, 0, 64, 127
2, 153915, Note_on_c, 0, 79, 77
2, 153984, Note_on_c, 0, 79, 0
2, 153989, Note_on_c, 0, 79, 91
2, 154237, Note_on_c, 0, 77, 0
2, 154242, Note_on_c, 0, 77, 79
2, 154391, Note_on_c, 0, 79, 0
2, 154395, Note_on_c, 0, 79, 82
2, 154398, Note_on_c, 0, 70, 0
2, 154403, Note_on_c, 0, 74, 74
2, 154404, Note_on_c, 0, 70, 73
2, 154558, Note_on_c, 0, 81, 84
2, 154719, Note_on_c, 0, 82, 81
2, 154878, Note_on_c, 0, 84, 83
2, 155014, Note_on_c, 0, 70, 0
2, 155014, Note_on_c, 0, 81, 0
2, 155015, Control_c, 0, 64, 0
2, 155015, Note_on_c, 0, 67, 0
2, 155015, Note_on_c, 0, 63, 0
2, 155015, Note_on_c, 0, 82, 0
2, 155015, Note_on_c, 0, 74, 0
2, 155016, Note_on_c, 0, 77, 0
2, 155018, Note_on_c, 0, 84, 0
2, 155043, Note_on_c, 0, 79, 0
2, 155048, Note_on_c, 0, 79, 86
2, 155052, Note_on_c, 0, 60, 63
2, 155054, Note_on_c, 0, 75, 78
2, 155112, Control_c, 0, 64, 127
2, 155211, Note_on_c, 0, 63, 68
2, 155258, Note_on_c, 0, 60, 0
2, 155370, Note_on_c, 0, 67, 72
2, 155573, Note_on_c, 0, 75, 0
2, 155584, Note_on_c, 0, 75, 70
2, 155595, Note_on_c, 0, 70, 51
2, 155622, Note_on_c, 0, 77, 72
2, 155704, Note_on_c, 0, 79, 0
2, 155709, Note_on_c, 0, 79, 91
2, 155867, Note_on_c, 0, 81, 89
2, 156017, Note_on_c, 0, 82, 88
2, 156190, Note_on_c, 0, 84, 85
2, 156301, Note_on_c, 0, 70, 0
2, 156303, Control_c, 0, 64, 0
2, 156304, Note_on_c, 0, 82, 0
2, 156304, Note_on_c, 0, 63, 0
2, 156304, Note_on_c, 0, 81, 0
2, 156304, Note_on_c, 0, 67, 0
2, 156305, Note_on_c, 0, 75, 0
2, 156305, Note_on_c, 0, 79, 0
2, 156305, Note_on_c, 0, 77, 0
2, 156306, Note_on_c, 0, 84, 0
2, 156353, Note_on_c, 0, 81, 88
2, 156357, Note_on_c, 0, 65, 72
2, 156359, Note_on_c, 0, 69, 75
2, 156360, Note_on_c, 0, 62, 60
2, 156361, Note_on_c, 0, 77, 73
2, 156403, Control_c, 0, 64, 127
2, 156602, Note_on_c, 0, 77, 0
2, 156613, Note_on_c, 0, 77, 82
2, 156614, Note_on_c, 0, 74, 74
2, 156864, Note_on_c, 0, 74, 0
2, 156868, Note_on_c, 0, 74, 82
2, 157002, Note_on_c, 0, 62, 0
2, 157007, Note_on_c, 0, 62, 83
2, 157182, Note_on_c, 0, 70, 91
2, 157332, Note_on_c, 0, 69, 0
2, 157338, Note_on_c, 0, 69, 91
2, 157478, Note_on_c, 0, 65, 0
2, 157488, Note_on_c, 0, 65, 83
2, 157587, Note_on_c, 0, 70, 0
2, 157588, Note_on_c, 0, 69, 0
2, 157588, Note_on_c, 0, 62, 0
2, 157589, Note_on_c, 0, 77, 0
2, 157589, Note_on_c, 0, 74, 0
2, 157590, Control_c, 0, 64, 0
2, 157593, Note_on_c, 0, 81, 0
2, 157601, Note_on_c, 0, 65, 0
2, 157650, Note_on_c, 0, 84, 85
2, 157652, Note_on_c, 0, 65, 87
2, 157657, Note_on_c, 0, 62, 77
2, 157662, Note_on_c, 0, 55, 76
2, 157663, Note_on_c, 0, 58, 75
2, 157693, Control_c, 0, 64, 127
2, 157708, Note_on_c, 0, 84, 0
2, 157720, Note_on_c, 0, 84, 90
2, 157828, Note_on_c, 0, 67, 75
2, 157893, Note_on_c, 0, 67, 0
2, 157903, Note_on_c, 0, 67, 93
2, 157916, Note_on_c, 0, 84, 0
2, 157920, Note_on_c, 0, 84, 91
2, 157926, Note_on_c, 0, 81, 64
2, 158154, Note_on_c, 0, 65, 0
2, 158161, Note_on_c, 0, 81, 0
2, 158161, Note_on_c, 0, 84, 0
2, 158164, Note_on_c, 0, 65, 89
2, 158166, Note_on_c, 0, 84, 83
2, 158167, Note_on_c, 0, 81, 73
2, 158330, Note_on_c, 0, 65, 0
2, 158336, Note_on_c, 0, 65, 85
2, 158338, Note_on_c, 0, 86, 87
2, 158340, Note_on_c, 0, 82, 84
2, 158400, Note_on_c, 0, 82, 0
2, 158400, Note_on_c, 0, 86, 0
2, 158408, Note_on_c, 0, 86, 90
2, 158410, Note_on_c, 0, 82, 93
2, 158492, Note_on_c, 0, 67, 0
2, 158497, Note_on_c, 0, 67, 91
2, 158561, Note_on_c, 0, 67, 0
2, 158565, Note_on_c, 0, 67, 101
2, 158576, Note_on_c, 0, 82, 0
2, 158576, Note_on_c, 0, 86, 0
2, 158583, Note_on_c, 0, 86, 86
2, 158584, Note_on_c, 0, 82, 84
2, 158784, Note_on_c, 0, 65, 0
2, 158795, Note_on_c, 0, 65, 86
2, 158807, Note_on_c, 0, 82, 0
2, 158807, Note_on_c, 0, 86, 0
2, 158811, Note_on_c, 0, 82, 89
2, 158811, Note_on_c, 0, 86, 93
2, 158935, Note_on_c, 0, 81, 0
2, 158935, Note_on_c, 0, 58, 0
2, 158935, Note_on_c, 0, 82, 0
2, 158935, Note_on_c, 0, 84, 0
2, 158935, Note_on_c, 0, 62, 0
2, 158936, Note_on_c, 0, 67, 0
2, 158938, Note_on_c, 0, 86, 0
2, 158938, Control_c, 0, 64, 0
2, 158945, Note_on_c, 0, 55, 0
2, 158960, Note_on_c, 0, 65, 0
2, 158969, Note_on_c, 0, 65, 86
2, 158971, Note_on_c, 0, 62, 87
2, 158973, Note_on_c, 0, 89, 94
2, 158977, Note_on_c, 0, 58, 81
2, 159014, Control_c, 0, 64, 127
2, 159045, Note_on_c, 0, 89, 0
2, 159054, Note_on_c, 0, 89, 78
2, 159056, Note_on_c, 0, 86, 69
2, 159122, Note_on_c, 0, 67, 91
2, 159206, Note_on_c, 0, 67, 0
2, 159210, Note_on_c, 0, 67, 103
2, 159214, Note_on_c, 0, 89, 0
2, 159220, Note_on_c, 0, 89, 83
2, 159444, Note_on_c, 0, 65, 0
2, 159452, Note_on_c, 0, 86, 0
2, 159452, Note_on_c, 0, 89, 0
2, 159455, Note_on_c, 0, 65, 88
2, 159456, Note_on_c, 0, 86, 81
2, 159459, Note_on_c, 0, 89, 89
2, 159602, Control_c, 0, 64, 0
2, 159603, Note_on_c, 0, 89, 0
2, 159603, Note_on_c, 0, 86, 0
2, 159621, Note_on_c, 0, 58, 0
2, 159621, Note_on_c, 0, 62, 0
2, 159621, Note_on_c, 0, 67, 0
2, 159625, Note_on_c, 0, 67, 86
2, 159626, Note_on_c, 0, 58, 83
2, 159626, Note_on_c, 0, 82, 91
2, 159628, Note_on_c, 0, 65, 0
2, 159629, Note_on_c, 0, 62, 78
2, 159682, Note_on_c, 0, 82, 0
2, 159689, Note_on_c, 0, 82, 77
2, 159690, Control_c, 0, 64, 127
2, 159793, Note_on_c, 0, 69, 91
2, 159889, Note_on_c, 0, 82, 0
2, 159897, Note_on_c, 0, 82, 95
2, 159906, Note_on_c, 0, 77, 73
2, 159968, Note_on_c, 0, 70, 95
2, 160120, Note_on_c, 0, 82, 0
2, 160128, Note_on_c, 0, 77, 0
2, 160131, Note_on_c, 0, 82, 91
2, 160132, Note_on_c, 0, 77, 77
2, 160132, Note_on_c, 0, 72, 77
2, 160274, Note_on_c, 0, 70, 0
2, 160275, Note_on_c, 0, 62, 0
2, 160276, Note_on_c, 0, 77, 0
2, 160276, Note_on_c, 0, 82, 0
2, 160277, Note_on_c, 0, 67, 0
2, 160277, Note_on_c, 0, 58, 0
2, 160278, Control_c, 0, 64, 0
2, 160281, Note_on_c, 0, 69, 0
2, 160284, Note_on_c, 0, 84, 100
2, 160286, Note_on_c, 0, 69, 83
2, 160287, Note_on_c, 0, 81, 85
2, 160288, Note_on_c, 0, 60, 74
2, 160289, Note_on_c, 0, 53, 78
2, 160312, Note_on_c, 0, 72, 0
2, 160350, Control_c, 0, 64, 127
2, 160358, Note_on_c, 0, 84, 0
2, 160362, Note_on_c, 0, 84, 86
2, 160527, Note_on_c, 0, 81, 0
2, 160527, Note_on_c, 0, 84, 0
2, 160533, Note_on_c, 0, 84, 99
2, 160533, Note_on_c, 0, 81, 95
2, 160621, Note_on_c, 0, 65, 100
2, 160773, Note_on_c, 0, 81, 0
2, 160773, Note_on_c, 0, 84, 0
2, 160779, Note_on_c, 0, 84, 94
2, 160781, Note_on_c, 0, 81, 72
2, 160942, Note_on_c, 0, 84, 0
2, 160951, Note_on_c, 0, 89, 93
2, 160953, Note_on_c, 0, 84, 93
2, 160953, Note_on_c, 0, 75, 100
2, 161018, Note_on_c, 0, 84, 0
2, 161018, Note_on_c, 0, 89, 0
2, 161022, Note_on_c, 0, 89, 86
2, 161026, Note_on_c, 0, 84, 90
2, 161195, Note_on_c, 0, 89, 0
2, 161203, Note_on_c, 0, 84, 0
2, 161206, Note_on_c, 0, 89, 99
2, 161207, Note_on_c, 0, 84, 97
2, 161283, Note_on_c, 0, 75, 0
2, 161284, Note_on_c, 0, 72, 93
2, 161441, Note_on_c, 0, 84, 0
2, 161441, Note_on_c, 0, 89, 0
2, 161445, Note_on_c, 0, 84, 74
2, 161447, Note_on_c, 0, 89, 89
2, 161476, Note_on_c, 0, 68, 44
2, 161572, Note_on_c, 0, 53, 0
2, 161573, Note_on_c, 0, 81, 0
2, 161573, Note_on_c, 0, 69, 0
2, 161573, Note_on_c, 0, 72, 0
2, 161574, Note_on_c, 0, 68, 0
2, 161574, Control_c, 0, 64, 0
2, 161587, Note_on_c, 0, 60, 0
2, 161602, Note_on_c, 0, 65, 0
2, 161602, Note_on_c, 0, 84, 0
2, 161607, Note_on_c, 0, 69, 94
2, 161611, Note_on_c, 0, 65, 87
2, 161613, Note_on_c, 0, 58, 87
2, 161613, Note_on_c, 0, 84, 100
2, 161614, Note_on_c, 0, 87, 87
2, 161664, Control_c, 0, 64, 127
2, 161679, Note_on_c, 0, 84, 0
2, 161679, Note_on_c, 0, 87, 0
2, 161686, Note_on_c, 0, 84, 87
2, 161687, Note_on_c, 0, 87, 72
2, 161863, Note_on_c, 0, 84, 0
2, 161863, Note_on_c, 0, 87, 0
2, 161870, Note_on_c, 0, 87, 92
2, 161871, Note_on_c, 0, 84, 96
2, 162113, Note_on_c, 0, 74, 97
2, 162115, Note_on_c, 0, 86, 97
2, 162115, Note_on_c, 0, 82, 96
2, 162280, Note_on_c, 0, 57, 94
2, 162439, Note_on_c, 0, 82, 0
2, 162448, Note_on_c, 0, 82, 94
2, 162456, Note_on_c, 0, 70, 86
2, 162600, Note_on_c, 0, 69, 0
2, 162603, Note_on_c, 0, 81, 97
2, 162612, Note_on_c, 0, 69, 72
2, 162769, Note_on_c, 0, 65, 0
2, 162773, Note_on_c, 0, 69, 0
2, 162774, Note_on_c, 0, 77, 89
2, 162774, Note_on_c, 0, 65, 81
2, 162881, Note_on_c, 0, 82, 0
2, 162881, Note_on_c, 0, 58, 0
2, 162882, Note_on_c, 0, 70, 0
2, 162882, Note_on_c, 0, 86, 0
2, 162882, Note_on_c, 0, 65, 0
2, 162882, Note_on_c, 0, 84, 0
2, 162882, Note_on_c, 0, 57, 0
2, 162882, Note_on_c, 0, 87, 0
2, 162882, Note_on_c, 0, 74, 0
2, 162882, Note_on_c, 0, 81, 0
2, 162885, Note_on_c, 0, 89, 0
2, 162887, Control_c, 0, 64, 0
2, 162915, Note_on_c, 0, 77, 0
2, 162921, Note_on_c, 0, 62, 88
2, 162925, Note_on_c, 0, 65, 92
2, 162925, Note_on_c, 0, 58, 87
2, 162926, Note_on_c, 0, 55, 85
2, 162927, Note_on_c, 0, 77, 92
2, 162977, Control_c, 0, 64, 127
2, 163102, Note_on_c, 0, 79, 82
2, 163102, Note_on_c, 0, 67, 77
2, 163161, Note_on_c, 0, 67, 0
2, 163161, Note_on_c, 0, 79, 0
2, 163168, Note_on_c, 0, 79, 89
2, 163171, Note_on_c, 0, 67, 86
2, 163430, Note_on_c, 0, 65, 0
2, 163438, Note_on_c, 0, 77, 0
2, 163441, Note_on_c, 0, 65, 87
2, 163442, Note_on_c, 0, 77, 90
2, 163560, Control_c, 0, 64, 0
2, 163564, Note_on_c, 0, 67, 0
2, 163564, Note_on_c, 0, 79, 0
2, 163564, Note_on_c, 0, 62, 0
2, 163564, Note_on_c, 0, 58, 0
2, 163576, Note_on_c, 0, 55, 0
2, 163591, Note_on_c, 0, 65, 0
2, 163591, Note_on_c, 0, 77, 0
2, 163594, Note_on_c, 0, 60, 91
2, 163594, Note_on_c, 0, 53, 82
2, 163595, Note_on_c, 0, 65, 88
2, 163595, Note_on_c, 0, 77, 89
2, 163596, Note_on_c, 0, 57, 82
2, 163653, Control_c, 0, 64, 127
2, 163756, Note_on_c, 0, 79, 84
2, 163756, Note_on_c, 0, 67, 85
2, 163814, Note_on_c, 0, 67, 0
2, 163814, Note_on_c, 0, 79, 0
2, 163822, Note_on_c, 0, 77, 0
2, 163824, Note_on_c, 0, 79, 93
2, 163825, Note_on_c, 0, 67, 94
2, 163830, Note_on_c, 0, 77, 77
2, 164090, Note_on_c, 0, 65, 0
2, 164090, Note_on_c, 0, 77, 0
2, 164101, Note_on_c, 0, 77, 87
2, 164102, Note_on_c, 0, 65, 82
2, 164242, Control_c, 0, 64, 0
2, 164242, Note_on_c, 0, 67, 0
2, 164242, Note_on_c, 0, 60, 0
2, 164243, Note_on_c, 0, 79, 0
2, 164252, Note_on_c, 0, 57, 0
2, 164267, Note_on_c, 0, 65, 0
2, 164267, Note_on_c, 0, 77, 0
2, 164271, Note_on_c, 0, 62, 90
2, 164272, Note_on_c, 0, 65, 93
2, 164273, Note_on_c, 0, 77, 97
2, 164273, Note_on_c, 0, 55, 81
2, 164277, Note_on_c, 0, 58, 83
2, 164282, Note_on_c, 0, 53, 0
2, 164321, Control_c, 0, 64, 127
2, 164432, Note_on_c, 0, 79, 91
2, 164433, Note_on_c, 0, 67, 89
2, 164497, Note_on_c, 0, 67, 0
2, 164497, Note_on_c, 0, 79, 0
2, 164502, Note_on_c, 0, 79, 91
2, 164506, Note_on_c, 0, 67, 87
2, 164766, Note_on_c, 0, 65, 0
2, 164766, Note_on_c, 0, 77, 0
2, 164771, Note_on_c, 0, 77, 89
2, 164771, Note_on_c, 0, 65, 86
2, 164878, Control_c, 0, 64, 0
2, 164882, Note_on_c, 0, 67, 0
2, 164882, Note_on_c, 0, 79, 0
2, 164883, Note_on_c, 0, 77, 0
2, 164884, Note_on_c, 0, 65, 0
2, 164884, Note_on_c, 0, 55, 0
2, 164884, Note_on_c, 0, 58, 0
2, 164889, Note_on_c, 0, 62, 0
2, 164932, Note_on_c, 0, 79, 96
2, 164932, Note_on_c, 0, 60, 86
2, 164937, Note_on_c, 0, 57, 80
2, 164937, Note_on_c, 0, 53, 74
2, 164939, Note_on_c, 0, 50, 79
2, 164940, Note_on_c, 0, 67, 90
2, 164964, Note_on_c, 0, 79, 0
2, 164964, Note_on_c, 0, 60, 0
2, 164981, Control_c, 0, 64, 127
2, 164989, Note_on_c, 0, 67, 0
2, 165101, Note_on_c, 0, 81, 96
2, 165105, Note_on_c, 0, 69, 86
2, 165269, Note_on_c, 0, 82, 98
2, 165269, Note_on_c, 0, 70, 79
2, 165427, Note_on_c, 0, 84, 100
2, 165432, Note_on_c, 0, 72, 83
2, 165558, Note_on_c, 0, 70, 0
2, 165559, Note_on_c, 0, 82, 0
2, 165559, Note_on_c, 0, 81, 0
2, 165559, Note_on_c, 0, 53, 0
2, 165560, Note_on_c, 0, 57, 0
2, 165560, Note_on_c, 0, 72, 0
2, 165560, Note_on_c, 0, 69, 0
2, 165560, Control_c, 0, 64, 0
2, 165560, Note_on_c, 0, 84, 0
2, 165573, Note_on_c, 0, 50, 0
2, 165600, Note_on_c, 0, 79, 100
2, 165607, Note_on_c, 0, 67, 90
2, 165612, Note_on_c, 0, 75, 85
2, 165615, Note_on_c, 0, 70, 85
2, 165615, Note_on_c, 0, 58, 75
2, 165615, Note_on_c, 0, 55, 71
2, 165616, Note_on_c, 0, 48, 65
2, 165621, Note_on_c, 0, 51, 66
2, 165672, Control_c, 0, 64, 127
2, 166118, Note_on_c, 0, 70, 0
2, 166127, Note_on_c, 0, 70, 53
2, 166164, Note_on_c, 0, 75, 0
2, 166175, Note_on_c, 0, 75, 69
2, 166248, Note_on_c, 0, 67, 0
2, 166248, Note_on_c, 0, 79, 0
2, 166256, Note_on_c, 0, 55, 0
2, 166256, Note_on_c, 0, 79, 96
2, 166257, Note_on_c, 0, 63, 93
2, 166260, Note_on_c, 0, 67, 91
2, 166262, Note_on_c, 0, 60, 86
2, 166266, Note_on_c, 0, 55, 73
2, 166417, Note_on_c, 0, 81, 101
2, 166420, Note_on_c, 0, 69, 85
2, 166579, Note_on_c, 0, 70, 0
2, 166579, Note_on_c, 0, 82, 96
2, 166586, Note_on_c, 0, 70, 77
2, 166606, Note_on_c, 0, 80, 66
2, 166726, Note_on_c, 0, 84, 105
2, 166728, Note_on_c, 0, 72, 90
2, 166838, Note_on_c, 0, 69, 0
2, 166838, Note_on_c, 0, 63, 0
2, 166838, Note_on_c, 0, 51, 0
2, 166838, Note_on_c, 0, 81, 0
2, 166839, Note_on_c, 0, 48, 0
2, 166839, Note_on_c, 0, 60, 0
2, 166839, Note_on_c, 0, 79, 0
2, 166839, Note_on_c, 0, 55, 0
2, 166839, Note_on_c, 0, 80, 0
2, 166840, Note_on_c, 0, 70, 0
2, 166840, Note_on_c, 0, 58, 0
2, 166840, Control_c, 0, 64, 0
2, 166840, Note_on_c, 0, 82, 0
2, 166840, Note_on_c, 0, 67, 0
2, 166841, Note_on_c, 0, 75, 0
2, 166842, Note_on_c, 0, 72, 0
2, 166842, Note_on_c, 0, 84, 0
2, 166890, Note_on_c, 0, 86, 104
2, 166892, Note_on_c, 0, 74, 108
2, 166893, Note_on_c, 0, 81, 95
2, 166895, Note_on_c, 0, 62, 104
2, 166896, Note_on_c, 0, 79, 93
2, 166897, Note_on_c, 0, 50, 91
2, 166898, Note_on_c, 0, 57, 95
2, 166899, Note_on_c, 0, 55, 94
2, 166940, Control_c, 0, 64, 127
2, 167078, Note_on_c, 0, 74, 0
2, 167093, Note_on_c, 0, 79, 0
2, 167104, Control_c, 0, 64, 0
2, 167132, Note_on_c, 0, 57, 0
2, 167139, Note_on_c, 0, 87, 105
2, 167139, Note_on_c, 0, 50, 0
2, 167139, Note_on_c, 0, 55, 0
2, 167142, Note_on_c, 0, 57, 82
2, 167143, Note_on_c, 0, 75, 106
2, 167143, Note_on_c, 0, 50, 78
2, 167144, Note_on_c, 0, 55, 75
2, 167162, Control_c, 0, 64, 127
2, 167251, Note_on_c, 0, 57, 0
2, 167251, Note_on_c, 0, 55, 0
2, 167252, Note_on_c, 0, 50, 0
2, 167253, Control_c, 0, 64, 0
2, 167256, Note_on_c, 0, 75, 0
2, 167257, Note_on_c, 0, 87, 0
2, 167262, Note_on_c, 0, 62, 0
2, 167262, Note_on_c, 0, 81, 0
2, 167262, Note_on_c, 0, 86, 0
2, 167397, Note_on_c, 0, 86, 105
2, 167398, Note_on_c, 0, 62, 102
2, 167398, Note_on_c, 0, 74, 109
2, 167399, Note_on_c, 0, 57, 86
2, 167400, Note_on_c, 0, 78, 109
2, 167400, Note_on_c, 0, 50, 91
2, 167400, Control_c, 0, 64, 127
2, 167404, Note_on_c, 0, 54, 86
2, 167405, Note_on_c, 0, 81, 92
2, 167573, Note_on_c, 0, 50, 0
2, 167574, Note_on_c, 0, 62, 0
2, 167574, Control_c, 0, 64, 0
2, 167574, Note_on_c, 0, 74, 0
2, 167574, Note_on_c, 0, 57, 0
2, 167574, Note_on_c, 0, 54, 0
2, 167575, Note_on_c, 0, 86, 0
2, 167576, Note_on_c, 0, 78, 0
2, 167592, Note_on_c, 0, 81, 0
2, 167718, Note_on_c, 0, 83, 111
2, 167719, Note_on_c, 0, 71, 103
2, 167738, Control_c, 0, 64, 127
2, 167777, Note_on_c, 0, 71, 0
2, 167784, Note_on_c, 0, 83, 0
2, 167874, Note_on_c, 0, 82, 103
2, 167877, Note_on_c, 0, 70, 109
2, 167880, Note_on_c, 0, 80, 93
2, 167887, Note_on_c, 0, 71, 89
2, 168027, Note_on_c, 0, 78, 112
2, 168032, Note_on_c, 0, 66, 114
2, 168135, Note_on_c, 0, 82, 0
2, 168135, Note_on_c, 0, 71, 0
2, 168135, Note_on_c, 0, 80, 0
2, 168136, Note_on_c, 0, 70, 0
2, 168137, Note_on_c, 0, 78, 0
2, 168138, Note_on_c, 0, 66, 0
2, 168140, Control_c, 0, 64, 0
2, 168180, Note_on_c, 0, 78, 114
2, 168181, Note_on_c, 0, 66, 113
2, 168182, Note_on_c, 0, 68, 108
2, 168182, Note_on_c, 0, 32, 105
2, 168186, Note_on_c, 0, 44, 109
2, 168191, Note_on_c, 0, 75, 83
2, 168207, Control_c, 0, 64, 127
2, 168337, Note_on_c, 0, 68, 0
2, 168342, Note_on_c, 0, 80, 96
2, 168342, Note_on_c, 0, 68, 99
2, 168342, Note_on_c, 0, 71, 94
2, 168372, Note_on_c, 0, 66, 0
2, 168374, Control_c, 0, 64, 0
2, 168391, Note_on_c, 0, 75, 0
2, 168399, Note_on_c, 0, 32, 0
2, 168399, Note_on_c, 0, 44, 0
2, 168407, Note_on_c, 0, 68, 0
2, 168414, Note_on_c, 0, 71, 0
2, 168414, Note_on_c, 0, 78, 0
2, 168417, Note_on_c, 0, 68, 105
2, 168420, Note_on_c, 0, 71, 86
2, 168422, Note_on_c, 0, 78, 73
2, 168445, Note_on_c, 0, 80, 0
2, 168460, Note_on_c, 0, 68, 0
2, 168499, Note_on_c, 0, 71, 0
2, 168506, Note_on_c, 0, 78, 0
2, 168659, Note_on_c, 0, 78, 104
2, 168661, Note_on_c, 0, 66, 104
2, 168666, Note_on_c, 0, 71, 69
2, 168690, Note_on_c, 0, 66, 0
2, 168701, Note_on_c, 0, 78, 0
2, 168775, Note_on_c, 0, 71, 0
2, 168817, Note_on_c, 0, 78, 112
2, 168821, Note_on_c, 0, 66, 109
2, 168944, Note_on_c, 0, 66, 0
2, 168975, Note_on_c, 0, 68, 89
2, 168975, Note_on_c, 0, 71, 88
2, 168976, Note_on_c, 0, 80, 83
2, 169000, Note_on_c, 0, 78, 0
2, 169029, Note_on_c, 0, 71, 0
2, 169044, Note_on_c, 0, 68, 0
2, 169044, Note_on_c, 0, 80, 0
2, 169048, Note_on_c, 0, 80, 105
2, 169049, Note_on_c, 0, 68, 102
2, 169051, Note_on_c, 0, 71, 86
2, 169124, Note_on_c, 0, 32, 104
2, 169128, Control_c, 0, 64, 127
2, 169244, Note_on_c, 0, 68, 0
2, 169289, Note_on_c, 0, 78, 102
2, 169292, Note_on_c, 0, 66, 97
2, 169334, Note_on_c, 0, 32, 0
2, 169339, Control_c, 0, 64, 0
2, 169420, Note_on_c, 0, 66, 0
2, 169420, Note_on_c, 0, 80, 0
2, 169436, Note_on_c, 0, 71, 0
2, 169436, Note_on_c, 0, 78, 0
2, 169467, Note_on_c, 0, 40, 102
2, 169468, Note_on_c, 0, 78, 113
2, 169470, Note_on_c, 0, 28, 96
2, 169471, Note_on_c, 0, 66, 112
2, 169482, Control_c, 0, 64, 127
2, 169627, Note_on_c, 0, 71, 83
2, 169628, Note_on_c, 0, 68, 94
2, 169630, Note_on_c, 0, 80, 89
2, 169631, Note_on_c, 0, 59, 66
2, 169635, Note_on_c, 0, 59, 0
2, 169655, Control_c, 0, 64, 0
2, 169663, Note_on_c, 0, 78, 0
2, 169664, Note_on_c, 0, 66, 0
2, 169689, Note_on_c, 0, 68, 0
2, 169689, Note_on_c, 0, 71, 0
2, 169689, Note_on_c, 0, 80, 0
2, 169694, Note_on_c, 0, 59, 73
2, 169694, Note_on_c, 0, 68, 98
2, 169695, Note_on_c, 0, 80, 93
2, 169699, Note_on_c, 0, 71, 78
2, 169735, Note_on_c, 0, 40, 0
2, 169820, Note_on_c, 0, 68, 0
2, 169843, Note_on_c, 0, 28, 0
2, 169850, Note_on_c, 0, 59, 0
2, 169858, Note_on_c, 0, 71, 0
2, 169920, Note_on_c, 0, 80, 0
2, 169955, Note_on_c, 0, 78, 99
2, 169960, Note_on_c, 0, 66, 100
2, 169989, Control_c, 0, 64, 127
2, 170006, Note_on_c, 0, 66, 0
2, 170029, Control_c, 0, 64, 0
2, 170042, Control_c, 0, 64, 127
2, 170119, Note_on_c, 0, 80, 104
2, 170121, Note_on_c, 0, 68, 98
2, 170126, Note_on_c, 0, 71, 72
2, 170131, Note_on_c, 0, 59, 59
2, 170154, Note_on_c, 0, 68, 0
2, 170165, Note_on_c, 0, 78, 0
2, 170277, Note_on_c, 0, 82, 101
2, 170281, Note_on_c, 0, 70, 95
2, 170296, Note_on_c, 0, 80, 0
2, 170306, Note_on_c, 0, 80, 73
2, 170426, Note_on_c, 0, 71, 0
2, 170433, Note_on_c, 0, 83, 106
2, 170434, Control_c, 0, 64, 0
2, 170435, Note_on_c, 0, 28, 89
2, 170438, Note_on_c, 0, 71, 95
2, 170438, Note_on_c, 0, 40, 76
2, 170519, Control_c, 0, 64, 127
2, 170557, Note_on_c, 0, 40, 0
2, 170565, Note_on_c, 0, 28, 0
2, 170568, Note_on_c, 0, 40, 86
2, 170574, Note_on_c, 0, 28, 90
2, 170576, Note_on_c, 0, 85, 106
2, 170582, Note_on_c, 0, 73, 98
2, 170595, Note_on_c, 0, 82, 0
2, 170603, Note_on_c, 0, 82, 55
2, 170611, Note_on_c, 0, 59, 0
2, 170611, Note_on_c, 0, 70, 0
2, 170613, Note_on_c, 0, 83, 0
2, 170614, Note_on_c, 0, 73, 0
2, 170614, Control_c, 0, 64, 0
2, 170615, Note_on_c, 0, 40, 0
2, 170617, Note_on_c, 0, 85, 0
2, 170626, Note_on_c, 0, 71, 0
2, 170634, Note_on_c, 0, 28, 0
2, 170634, Note_on_c, 0, 82, 0
2, 170664, Note_on_c, 0, 80, 0
2, 170740, Note_on_c, 0, 82, 107
2, 170740, Note_on_c, 0, 34, 97
2, 170743, Note_on_c, 0, 73, 107
2, 170744, Note_on_c, 0, 70, 108
2, 170745, Note_on_c, 0, 78, 94
2, 170746, Note_on_c, 0, 30, 101
2, 170747, Note_on_c, 0, 42, 104
2, 170772, Control_c, 0, 64, 127
2, 170795, Note_on_c, 0, 34, 0
2, 170795, Note_on_c, 0, 42, 0
2, 170810, Note_on_c, 0, 30, 0
2, 170941, Note_on_c, 0, 73, 0
2, 170941, Note_on_c, 0, 78, 0
2, 170943, Control_c, 0, 64, 0
2, 171002, Note_on_c, 0, 82, 0
2, 171048, Note_on_c, 0, 70, 0
2, 171084, Note_on_c, 0, 78, 108
2, 171084, Note_on_c, 0, 66, 110
2, 171118, Control_c, 0, 64, 127
2, 171244, Note_on_c, 0, 30, 95
2, 171245, Note_on_c, 0, 32, 92
2, 171251, Note_on_c, 0, 42, 92
2, 171271, Note_on_c, 0, 66, 0
2, 171286, Note_on_c, 0, 42, 0
2, 171288, Note_on_c, 0, 30, 0
2, 171289, Note_on_c, 0, 78, 0
2, 171310, Note_on_c, 0, 32, 0
2, 171313, Control_c, 0, 64, 0
2, 171407, Note_on_c, 0, 42, 98
2, 171411, Note_on_c, 0, 30, 100
2, 171412, Note_on_c, 0, 88, 105
2, 171412, Note_on_c, 0, 78, 102
2, 171414, Note_on_c, 0, 86, 100
2, 171414, Note_on_c, 0, 82, 90
2, 171414, Note_on_c, 0, 76, 104
2, 171440, Control_c, 0, 64, 127
2, 171597, Note_on_c, 0, 86, 0
2, 171598, Note_on_c, 0, 82, 0
2, 171599, Note_on_c, 0, 78, 0
2, 171601, Note_on_c, 0, 30, 0
2, 171602, Control_c, 0, 64, 0
2, 171609, Note_on_c, 0, 42, 0
2, 171617, Note_on_c, 0, 76, 0
2, 171624, Note_on_c, 0, 88, 0
2, 171750, Note_on_c, 0, 85, 107
2, 171751, Note_on_c, 0, 78, 105
2, 171752, Note_on_c, 0, 73, 101
2, 171753, Note_on_c, 0, 82, 94
2, 171770, Control_c, 0, 64, 127
2, 171907, Note_on_c, 0, 30, 88
2, 171910, Note_on_c, 0, 42, 80
2, 171945, Note_on_c, 0, 30, 0
2, 171946, Note_on_c, 0, 42, 0
2, 171947, Note_on_c, 0, 73, 0
2, 171962, Control_c, 0, 64, 0
2, 171962, Note_on_c, 0, 85, 0
2, 171970, Note_on_c, 0, 78, 0
2, 171970, Note_on_c, 0, 82, 0
2, 172066, Note_on_c, 0, 85, 111
2, 172066, Note_on_c, 0, 78, 105
2, 172067, Note_on_c, 0, 73, 105
2, 172069, Note_on_c, 0, 81, 92
2, 172072, Note_on_c, 0, 35, 97
2, 172072, Note_on_c, 0, 47, 103
2, 172078, Note_on_c, 0, 81, 0
2, 172101, Control_c, 0, 64, 127
2, 172316, Note_on_c, 0, 35, 0
2, 172323, Note_on_c, 0, 39, 87
2, 172323, Note_on_c, 0, 47, 0
2, 172323, Note_on_c, 0, 85, 0
2, 172325, Note_on_c, 0, 35, 96
2, 172327, Note_on_c, 0, 47, 95
2, 172331, Note_on_c, 0, 73, 0
2, 172331, Note_on_c, 0, 78, 0
2, 172333, Note_on_c, 0, 85, 105
2, 172335, Note_on_c, 0, 73, 99
2, 172336, Note_on_c, 0, 78, 90
2, 172480, Control_c, 0, 64, 0
2, 172481, Note_on_c, 0, 47, 0
2, 172482, Note_on_c, 0, 73, 0
2, 172483, Note_on_c, 0, 78, 0
2, 172483, Note_on_c, 0, 85, 0
2, 172485, Note_on_c, 0, 39, 0
2, 172500, Note_on_c, 0, 35, 0
2, 172573, Note_on_c, 0, 63, 88
2, 172578, Note_on_c, 0, 54, 87
2, 172579, Note_on_c, 0, 66, 95
2, 172580, Note_on_c, 0, 59, 83
2, 172581, Note_on_c, 0, 87, 107
2, 172581, Note_on_c, 0, 78, 107
2, 172582, Note_on_c, 0, 75, 103
2, 172584, Note_on_c, 0, 66, 0
2, 172615, Note_on_c, 0, 63, 0
2, 172631, Note_on_c, 0, 54, 0
2, 172646, Note_on_c, 0, 59, 0
2, 172669, Control_c, 0, 64, 127
2, 172736, Note_on_c, 0, 34, 102
2, 172737, Note_on_c, 0, 46, 105
2, 172905, Note_on_c, 0, 83, 103
2, 172911, Note_on_c, 0, 71, 85
2, 172922, Note_on_c, 0, 78, 0
2, 172930, Note_on_c, 0, 78, 65
2, 173057, Note_on_c, 0, 58, 88
2, 173058, Note_on_c, 0, 54, 80
2, 173059, Note_on_c, 0, 82, 105
2, 173063, Note_on_c, 0, 70, 104
2, 173073, Note_on_c, 0, 80, 82
2, 173207, Note_on_c, 0, 78, 0
2, 173214, Note_on_c, 0, 70, 0
2, 173215, Note_on_c, 0, 78, 106
2, 173218, Note_on_c, 0, 66, 109
2, 173221, Note_on_c, 0, 70, 80
2, 173258, Note_on_c, 0, 87, 0
2, 173259, Note_on_c, 0, 54, 0
2, 173259, Note_on_c, 0, 71, 0
2, 173260, Note_on_c, 0, 83, 0
2, 173260, Note_on_c, 0, 75, 0
2, 173260, Note_on_c, 0, 34, 0
2, 173260, Note_on_c, 0, 46, 0
2, 173260, Note_on_c, 0, 80, 0
2, 173261, Note_on_c, 0, 82, 0
2, 173261, Note_on_c, 0, 78, 0
2, 173261, Note_on_c, 0, 70, 0
2, 173261, Note_on_c, 0, 58, 0
2, 173262, Note_on_c, 0, 66, 0
2, 173268, Control_c, 0, 64, 0
2, 173376, Note_on_c, 0, 78, 109
2, 173379, Note_on_c, 0, 32, 97
2, 173379, Note_on_c, 0, 66, 107
2, 173379, Note_on_c, 0, 44, 102
2, 173414, Control_c, 0, 64, 127
2, 173547, Note_on_c, 0, 80, 89
2, 173547, Note_on_c, 0, 71, 86
2, 173548, Note_on_c, 0, 68, 87
2, 173591, Note_on_c, 0, 80, 0
2, 173598, Note_on_c, 0, 68, 0
2, 173598, Note_on_c, 0, 71, 0
2, 173601, Note_on_c, 0, 80, 102
2, 173602, Note_on_c, 0, 68, 107
2, 173604, Note_on_c, 0, 71, 84
2, 173859, Note_on_c, 0, 44, 0
2, 173859, Note_on_c, 0, 66, 0
2, 173859, Note_on_c, 0, 78, 0
2, 173866, Note_on_c, 0, 49, 63
2, 173866, Note_on_c, 0, 78, 100
2, 173866, Note_on_c, 0, 44, 75
2, 173867, Note_on_c, 0, 66, 102
2, 173875, Note_on_c, 0, 49, 0
2, 174000, Control_c, 0, 64, 0
2, 174002, Note_on_c, 0, 80, 0
2, 174002, Note_on_c, 0, 68, 0
2, 174002, Note_on_c, 0, 71, 0
2, 174002, Note_on_c, 0, 44, 0
2, 174002, Note_on_c, 0, 66, 0
2, 174013, Note_on_c, 0, 32, 0
2, 174028, Note_on_c, 0, 78, 0
2, 174039, Note_on_c, 0, 78, 111
2, 174041, Note_on_c, 0, 66, 104
2, 174043, Note_on_c, 0, 32, 86
2, 174047, Note_on_c, 0, 44, 89
2, 174082, Control_c, 0, 64, 127
2, 174201, Note_on_c, 0, 80, 77
2, 174201, Note_on_c, 0, 68, 84
2, 174202, Note_on_c, 0, 71, 72
2, 174259, Note_on_c, 0, 68, 0
2, 174259, Note_on_c, 0, 71, 0
2, 174259, Note_on_c, 0, 80, 0
2, 174264, Note_on_c, 0, 80, 102
2, 174265, Note_on_c, 0, 68, 99
2, 174266, Note_on_c, 0, 32, 0
2, 174266, Note_on_c, 0, 44, 0
2, 174270, Note_on_c, 0, 71, 89
2, 174272, Note_on_c, 0, 44, 88
2, 174273, Note_on_c, 0, 32, 83
2, 174470, Note_on_c, 0, 39, 59
2, 174520, Note_on_c, 0, 78, 0
2, 174528, Note_on_c, 0, 66, 0
2, 174530, Note_on_c, 0, 78, 102
2, 174532, Note_on_c, 0, 66, 102
2, 174538, Note_on_c, 0, 68, 0
2, 174538, Note_on_c, 0, 75, 79
2, 174538, Note_on_c, 0, 44, 0
2, 174539, Note_on_c, 0, 51, 84
2, 174539, Note_on_c, 0, 56, 87
2, 174649, Control_c, 0, 64, 0
2, 174650, Note_on_c, 0, 71, 0
2, 174650, Note_on_c, 0, 56, 0
2, 174650, Note_on_c, 0, 66, 0
2, 174650, Note_on_c, 0, 51, 0
2, 174650, Note_on_c, 0, 80, 0
2, 174652, Note_on_c, 0, 78, 0
2, 174652, Note_on_c, 0, 32, 0
2, 174658, Note_on_c, 0, 39, 0
2, 174673, Note_on_c, 0, 75, 0
2, 174700, Note_on_c, 0, 40, 103
2, 174702, Note_on_c, 0, 78, 109
2, 174704, Note_on_c, 0, 28, 94
2, 174705, Note_on_c, 0, 66, 107
2, 174708, Note_on_c, 0, 74, 93
2, 174750, Control_c, 0, 64, 127
2, 174865, Note_on_c, 0, 28, 0
2, 174865, Note_on_c, 0, 40, 0
2, 174870, Note_on_c, 0, 80, 90
2, 174870, Note_on_c, 0, 71, 83
2, 174872, Note_on_c, 0, 68, 84
2, 174876, Note_on_c, 0, 28, 77
2, 174876, Note_on_c, 0, 40, 92
2, 174915, Note_on_c, 0, 66, 0
2, 174917, Note_on_c, 0, 78, 0
2, 174917, Note_on_c, 0, 74, 0
2, 174922, Control_c, 0, 64, 0
2, 174927, Note_on_c, 0, 80, 0
2, 174935, Note_on_c, 0, 28, 0
2, 174935, Note_on_c, 0, 68, 0
2, 174938, Note_on_c, 0, 80, 97
2, 174942, Note_on_c, 0, 40, 0
2, 174944, Note_on_c, 0, 68, 87
2, 174945, Note_on_c, 0, 28, 74
2, 174946, Note_on_c, 0, 76, 67
2, 174946, Note_on_c, 0, 40, 90
2, 174973, Control_c, 0, 64, 127
2, 175104, Note_on_c, 0, 28, 0
2, 175104, Note_on_c, 0, 40, 0
2, 175109, Note_on_c, 0, 40, 73
2, 175113, Note_on_c, 0, 28, 60
2, 175211, Note_on_c, 0, 40, 0
2, 175220, Note_on_c, 0, 78, 103
2, 175222, Note_on_c, 0, 40, 85
2, 175223, Note_on_c, 0, 66, 103
2, 175303, Control_c, 0, 64, 0
2, 175313, Note_on_c, 0, 40, 0
2, 175314, Note_on_c, 0, 80, 0
2, 175318, Note_on_c, 0, 78, 0
2, 175320, Note_on_c, 0, 66, 0
2, 175334, Note_on_c, 0, 76, 0
2, 175342, Note_on_c, 0, 68, 0
2, 175342, Note_on_c, 0, 71, 0
2, 175380, Note_on_c, 0, 28, 0
2, 175385, Note_on_c, 0, 40, 94
2, 175385, Note_on_c, 0, 28, 86
2, 175388, Note_on_c, 0, 80, 96
2, 175390, Note_on_c, 0, 68, 87
2, 175418, Control_c, 0, 64, 127
2, 175526, Note_on_c, 0, 40, 0
2, 175530, Note_on_c, 0, 40, 79
2, 175553, Note_on_c, 0, 70, 80
2, 175553, Note_on_c, 0, 82, 98
2, 175580, Note_on_c, 0, 80, 0
2, 175585, Note_on_c, 0, 80, 43
2, 175631, Note_on_c, 0, 52, 74
2, 175633, Note_on_c, 0, 47, 71
2, 175718, Note_on_c, 0, 47, 0
2, 175725, Note_on_c, 0, 83, 96
2, 175726, Note_on_c, 0, 40, 0
2, 175729, Note_on_c, 0, 47, 80
2, 175729, Note_on_c, 0, 71, 78
2, 175731, Note_on_c, 0, 40, 79
2, 175745, Note_on_c, 0, 81, 67
2, 175879, Note_on_c, 0, 40, 0
2, 175879, Note_on_c, 0, 81, 0
2, 175882, Note_on_c, 0, 85, 103
2, 175886, Note_on_c, 0, 73, 95
2, 175887, Note_on_c, 0, 47, 0
2, 175889, Note_on_c, 0, 40, 88
2, 175890, Note_on_c, 0, 81, 79
2, 175892, Note_on_c, 0, 47, 82
2, 175894, Note_on_c, 0, 35, 76
2, 175969, Note_on_c, 0, 81, 0
2, 175970, Note_on_c, 0, 68, 0
2, 175971, Note_on_c, 0, 80, 0
2, 175971, Note_on_c, 0, 82, 0
2, 175972, Note_on_c, 0, 40, 0
2, 175972, Note_on_c, 0, 83, 0
2, 175973, Note_on_c, 0, 70, 0
2, 175973, Note_on_c, 0, 71, 0
2, 175973, Note_on_c, 0, 47, 0
2, 175973, Note_on_c, 0, 73, 0
2, 175974, Control_c, 0, 64, 0
2, 175974, Note_on_c, 0, 85, 0
2, 175979, Note_on_c, 0, 35, 0
2, 175987, Note_on_c, 0, 28, 0
2, 175987, Note_on_c, 0, 52, 0
2, 176049, Note_on_c, 0, 80, 98
2, 176052, Note_on_c, 0, 68, 106
2, 176052, Note_on_c, 0, 73, 96
2, 176052, Note_on_c, 0, 49, 89
2, 176052, Note_on_c, 0, 37, 87
2, 176059, Note_on_c, 0, 76, 84
2, 176079, Control_c, 0, 64, 127
2, 176286, Note_on_c, 0, 68, 0
2, 176292, Note_on_c, 0, 61, 79
2, 176292, Note_on_c, 0, 68, 79
2, 176293, Note_on_c, 0, 52, 72
2, 176294, Note_on_c, 0, 56, 87
2, 176478, Note_on_c, 0, 49, 0
2, 176478, Note_on_c, 0, 68, 0
2, 176485, Note_on_c, 0, 68, 63
2, 176489, Note_on_c, 0, 49, 48
2, 176547, Note_on_c, 0, 61, 0
2, 176555, Note_on_c, 0, 56, 0
2, 176555, Note_on_c, 0, 68, 0
2, 176559, Note_on_c, 0, 61, 85
2, 176559, Note_on_c, 0, 68, 72
2, 176559, Note_on_c, 0, 56, 82
2, 176563, Note_on_c, 0, 52, 0
2, 176567, Note_on_c, 0, 52, 74
2, 176668, Note_on_c, 0, 80, 0
2, 176668, Note_on_c, 0, 73, 0
2, 176668, Note_on_c, 0, 52, 0
2, 176668, Note_on_c, 0, 56, 0
2, 176668, Note_on_c, 0, 68, 0
2, 176669, Note_on_c, 0, 76, 0
2, 176670, Note_on_c, 0, 37, 0
2, 176670, Control_c, 0, 64, 0
2, 176686, Note_on_c, 0, 49, 0
2, 176686, Note_on_c, 0, 61, 0
2, 176728, Note_on_c, 0, 80, 97
2, 176728, Note_on_c, 0, 37, 91
2, 176731, Note_on_c, 0, 68, 96
2, 176731, Note_on_c, 0, 73, 95
2, 176735, Note_on_c, 0, 76, 79
2, 176755, Control_c, 0, 64, 127
2, 176890, Note_on_c, 0, 49, 81
2, 176896, Note_on_c, 0, 52, 59
2, 176902, Note_on_c, 0, 82, 95
2, 176908, Note_on_c, 0, 70, 84
2, 176992, Note_on_c, 0, 56, 79
2, 176993, Note_on_c, 0, 52, 0
2, 176997, Note_on_c, 0, 52, 74
2, 177058, Note_on_c, 0, 83, 98
2, 177066, Note_on_c, 0, 71, 86
2, 177074, Note_on_c, 0, 61, 77
2, 177185, Note_on_c, 0, 61, 0
2, 177192, Note_on_c, 0, 56, 0
2, 177196, Note_on_c, 0, 61, 85
2, 177197, Note_on_c, 0, 56, 72
2, 177223, Note_on_c, 0, 73, 0
2, 177227, Note_on_c, 0, 85, 103
2, 177234, Note_on_c, 0, 73, 97
2, 177336, Note_on_c, 0, 49, 0
2, 177337, Note_on_c, 0, 73, 0
2, 177337, Note_on_c, 0, 80, 0
2, 177337, Note_on_c, 0, 52, 0
2, 177337, Note_on_c, 0, 70, 0
2, 177337, Note_on_c, 0, 68, 0
2, 177338, Note_on_c, 0, 56, 0
2, 177338, Note_on_c, 0, 83, 0
2, 177338, Note_on_c, 0, 85, 0
2, 177338, Note_on_c, 0, 37, 0
2, 177339, Control_c, 0, 64, 0
2, 177346, Note_on_c, 0, 76, 0
2, 177354, Note_on_c, 0, 61, 0
2, 177354, Note_on_c, 0, 71, 0
2, 177354, Note_on_c, 0, 39, 101
2, 177361, Note_on_c, 0, 82, 0
2, 177372, Note_on_c, 0, 82, 106
2, 177380, Note_on_c, 0, 73, 95
2, 177381, Note_on_c, 0, 70, 101
2, 177382, Note_on_c, 0, 78, 83
2, 177408, Control_c, 0, 64, 127
2, 177455, Note_on_c, 0, 46, 54
2, 177477, Note_on_c, 0, 46, 0
2, 177481, Note_on_c, 0, 46, 54
2, 177623, Note_on_c, 0, 78, 0
2, 177627, Note_on_c, 0, 54, 65
2, 177629, Note_on_c, 0, 42, 60
2, 177631, Note_on_c, 0, 78, 106
2, 177658, Note_on_c, 0, 66, 56
2, 177676, Note_on_c, 0, 46, 0
2, 177680, Note_on_c, 0, 46, 53
2, 177738, Note_on_c, 0, 63, 74
2, 177741, Note_on_c, 0, 51, 58
2, 177845, Note_on_c, 0, 66, 0
2, 177855, Note_on_c, 0, 66, 100
2, 177856, Note_on_c, 0, 75, 100
2, 177922, Note_on_c, 0, 46, 0
2, 177922, Note_on_c, 0, 70, 0
2, 177931, Note_on_c, 0, 70, 82
2, 177933, Note_on_c, 0, 46, 50
2, 177934, Note_on_c, 0, 58, 55
2, 178014, Note_on_c, 0, 58, 0
2, 178014, Note_on_c, 0, 75, 0
2, 178022, Note_on_c, 0, 70, 0
2, 178023, Note_on_c, 0, 75, 84
2, 178024, Note_on_c, 0, 58, 55
2, 178028, Note_on_c, 0, 70, 67
2, 178068, Note_on_c, 0, 66, 0
2, 178079, Note_on_c, 0, 66, 92
2, 178168, Note_on_c, 0, 63, 0
2, 178172, Note_on_c, 0, 63, 74
2, 178179, Note_on_c, 0, 95, 102
2, 178180, Note_on_c, 0, 83, 96
2, 178237, Note_on_c, 0, 58, 0
2, 178245, Note_on_c, 0, 46, 0
2, 178248, Note_on_c, 0, 58, 75
2, 178253, Note_on_c, 0, 46, 58
2, 178344, Note_on_c, 0, 82, 0
2, 178346, Note_on_c, 0, 94, 105
2, 178350, Note_on_c, 0, 82, 98
2, 178362, Note_on_c, 0, 39, 0
2, 178375, Note_on_c, 0, 51, 0
2, 178382, Note_on_c, 0, 51, 78
2, 178498, Note_on_c, 0, 51, 0
2, 178498, Note_on_c, 0, 78, 0
2, 178502, Note_on_c, 0, 90, 106
2, 178503, Note_on_c, 0, 78, 95
2, 178506, Note_on_c, 0, 51, 62
2, 178588, Note_on_c, 0, 63, 0
2, 178588, Note_on_c, 0, 95, 0
2, 178589, Note_on_c, 0, 51, 0
2, 178589, Note_on_c, 0, 42, 0
2, 178589, Note_on_c, 0, 82, 0
2, 178589, Note_on_c, 0, 83, 0
2, 178589, Note_on_c, 0, 58, 0
2, 178590, Note_on_c, 0, 75, 0
2, 178590, Note_on_c, 0, 54, 0
2, 178590, Note_on_c, 0, 94, 0
2, 178590, Note_on_c, 0, 78, 0
2, 178590, Note_on_c, 0, 46, 0
2, 178591, Note_on_c, 0, 66, 0
2, 178591, Note_on_c, 0, 70, 0
2, 178591, Control_c, 0, 64, 0
2, 178592, Note_on_c, 0, 90, 0
2, 178598, Note_on_c, 0, 73, 0
2, 178657, Note_on_c, 0, 32, 92
2, 178658, Note_on_c, 0, 44, 100
2, 178663, Note_on_c, 0, 78, 111
2, 178664, Note_on_c, 0, 90, 108
2, 178666, Note_on_c, 0, 86, 85
2, 178682, Control_c, 0, 64, 127
2, 178702, Note_on_c, 0, 87, 49
2, 178828, Note_on_c, 0, 32, 0
2, 178833, Note_on_c, 0, 80, 90
2, 178835, Note_on_c, 0, 83, 83
2, 178837, Note_on_c, 0, 32, 78
2, 178838, Note_on_c, 0, 92, 89
2, 178890, Note_on_c, 0, 80, 0
2, 178890, Note_on_c, 0, 83, 0
2, 178890, Note_on_c, 0, 92, 0
2, 178900, Note_on_c, 0, 80, 104
2, 178901, Note_on_c, 0, 83, 104
2, 178901, Note_on_c, 0, 92, 107
2, 178920, Note_on_c, 0, 44, 0
2, 178926, Note_on_c, 0, 44, 76
2, 179143, Note_on_c, 0, 44, 0
2, 179148, Note_on_c, 0, 56, 79
2, 179148, Note_on_c, 0, 44, 75
2, 179159, Note_on_c, 0, 78, 0
2, 179159, Note_on_c, 0, 90, 0
2, 179166, Note_on_c, 0, 90, 103
2, 179168, Note_on_c, 0, 78, 99
2, 179270, Control_c, 0, 64, 0
2, 179271, Note_on_c, 0, 87, 0
2, 179271, Note_on_c, 0, 90, 0
2, 179271, Note_on_c, 0, 83, 0
2, 179271, Note_on_c, 0, 92, 0
2, 179272, Note_on_c, 0, 80, 0
2, 179272, Note_on_c, 0, 78, 0
2, 179273, Note_on_c, 0, 32, 0
2, 179273, Note_on_c, 0, 44, 0
2, 179274, Note_on_c, 0, 56, 0
2, 179274, Note_on_c, 0, 86, 0
2, 179322, Note_on_c, 0, 32, 90
2, 179324, Note_on_c, 0, 90, 108
2, 179326, Note_on_c, 0, 86, 82
2, 179327, Note_on_c, 0, 78, 107
2, 179343, Control_c, 0, 64, 127
2, 179484, Note_on_c, 0, 83, 98
2, 179484, Note_on_c, 0, 80, 100
2, 179485, Note_on_c, 0, 92, 98
2, 179558, Note_on_c, 0, 83, 0
2, 179563, Note_on_c, 0, 83, 95
2, 179566, Note_on_c, 0, 80, 0
2, 179566, Note_on_c, 0, 92, 0
2, 179571, Note_on_c, 0, 92, 83
2, 179575, Note_on_c, 0, 80, 90
2, 179581, Note_on_c, 0, 44, 67
2, 179719, Note_on_c, 0, 44, 0
2, 179726, Note_on_c, 0, 44, 71
2, 179748, Note_on_c, 0, 51, 42
2, 179758, Note_on_c, 0, 51, 0
2, 179811, Note_on_c, 0, 78, 0
2, 179811, Note_on_c, 0, 90, 0
2, 179816, Note_on_c, 0, 90, 106
2, 179816, Note_on_c, 0, 78, 104
2, 179923, Note_on_c, 0, 80, 0
2, 179923, Note_on_c, 0, 92, 0
2, 179923, Note_on_c, 0, 44, 0
2, 179923, Note_on_c, 0, 83, 0
2, 179924, Note_on_c, 0, 90, 0
2, 179925, Note_on_c, 0, 78, 0
2, 179925, Control_c, 0, 64, 0
2, 179927, Note_on_c, 0, 86, 0
2, 179950, Note_on_c, 0, 32, 0
2, 179984, Note_on_c, 0, 78, 108
2, 179984, Note_on_c, 0, 90, 109
2, 179985, Note_on_c, 0, 40, 97
2, 179987, Note_on_c, 0, 28, 83
2, 180011, Control_c, 0, 64, 127
2, 180152, Note_on_c, 0, 83, 80
2, 180154, Note_on_c, 0, 80, 81
2, 180195, Note_on_c, 0, 80, 0
2, 180195, Note_on_c, 0, 83, 0
2, 180207, Note_on_c, 0, 80, 100
2, 180207, Note_on_c, 0, 83, 100
2, 180208, Note_on_c, 0, 92, 104
2, 180211, Note_on_c, 0, 40, 0
2, 180216, Note_on_c, 0, 40, 69
2, 180464, Note_on_c, 0, 78, 0
2, 180464, Note_on_c, 0, 90, 0
2, 180473, Note_on_c, 0, 78, 104
2, 180475, Note_on_c, 0, 90, 103
2, 180480, Note_on_c, 0, 28, 0
2, 180485, Note_on_c, 0, 87, 74
2, 180490, Note_on_c, 0, 28, 70
2, 180590, Control_c, 0, 64, 0
2, 180591, Note_on_c, 0, 87, 0
2, 180591, Note_on_c, 0, 78, 0
2, 180618, Note_on_c, 0, 28, 0
2, 180618, Note_on_c, 0, 40, 0
2, 180625, Note_on_c, 0, 80, 0
2, 180625, Note_on_c, 0, 83, 0
2, 180625, Note_on_c, 0, 92, 0
2, 180628, Note_on_c, 0, 28, 95
2, 180628, Note_on_c, 0, 40, 100
2, 180634, Note_on_c, 0, 80, 99
2, 180635, Note_on_c, 0, 92, 110
2, 180635, Note_on_c, 0, 83, 97
2, 180656, Control_c, 0, 64, 127
2, 180771, Note_on_c, 0, 40, 0
2, 180775, Note_on_c, 0, 40, 89
2, 180811, Note_on_c, 0, 94, 101
2, 180811, Note_on_c, 0, 82, 83
2, 180898, Note_on_c, 0, 47, 66
2, 180971, Note_on_c, 0, 83, 0
2, 180974, Note_on_c, 0, 95, 98
2, 180976, Note_on_c, 0, 83, 98
2, 181048, Note_on_c, 0, 40, 0
2, 181058, Note_on_c, 0, 40, 74
2, 181066, Note_on_c, 0, 47, 0
2, 181128, Note_on_c, 0, 45, 84
2, 181128, Note_on_c, 0, 97, 101
2, 181129, Note_on_c, 0, 33, 78
2, 181133, Note_on_c, 0, 85, 103
2, 181188, Note_on_c, 0, 45, 0
2, 181188, Note_on_c, 0, 80, 0
2, 181188, Note_on_c, 0, 82, 0
2, 181189, Note_on_c, 0, 33, 0
2, 181189, Note_on_c, 0, 92, 0
2, 181189, Note_on_c, 0, 94, 0
2, 181189, Note_on_c, 0, 95, 0
2, 181189, Note_on_c, 0, 83, 0
2, 181191, Note_on_c, 0, 97, 0
2, 181191, Control_c, 0, 64, 0
2, 181191, Note_on_c, 0, 85, 0
2, 181201, Note_on_c, 0, 28, 0
2, 181209, Note_on_c, 0, 40, 0
2, 181209, Note_on_c, 0, 90, 0
2, 181276, Note_on_c, 0, 94, 102
2, 181276, Note_on_c, 0, 85, 95
2, 181278, Note_on_c, 0, 82, 99
2, 181281, Note_on_c, 0, 42, 96
2, 181282, Note_on_c, 0, 30, 95
2, 181285, Note_on_c, 0, 90, 72
2, 181301, Control_c, 0, 64, 127
2, 181319, Note_on_c, 0, 32, 34
2, 181478, Note_on_c, 0, 30, 0
2, 181484, Note_on_c, 0, 30, 63
2, 181489, Note_on_c, 0, 37, 56
2, 181601, Note_on_c, 0, 90, 0
2, 181607, Note_on_c, 0, 90, 108
2, 181608, Note_on_c, 0, 78, 101
2, 181609, Note_on_c, 0, 58, 72
2, 181762, Note_on_c, 0, 37, 0
2, 181769, Note_on_c, 0, 37, 58
2, 181878, Note_on_c, 0, 94, 0
2, 181879, Note_on_c, 0, 85, 0
2, 181879, Note_on_c, 0, 78, 0
2, 181880, Note_on_c, 0, 82, 0
2, 181880, Note_on_c, 0, 58, 0
2, 181880, Note_on_c, 0, 42, 0
2, 181881, Control_c, 0, 64, 0
2, 181900, Note_on_c, 0, 32, 0
2, 181900, Note_on_c, 0, 37, 0
2, 181918, Note_on_c, 0, 100, 112
2, 181923, Note_on_c, 0, 30, 0
2, 181923, Note_on_c, 0, 90, 0
2, 181923, Note_on_c, 0, 100, 0
2, 181924, Note_on_c, 0, 88, 103
2, 181928, Note_on_c, 0, 90, 101
2, 181928, Note_on_c, 0, 30, 88
2, 181935, Note_on_c, 0, 94, 77
2, 181992, Control_c, 0, 64, 127
2, 182138, Note_on_c, 0, 37, 59
2, 182254, Note_on_c, 0, 90, 0
2, 182254, Note_on_c, 0, 94, 0
2, 182256, Note_on_c, 0, 97, 104
2, 182258, Note_on_c, 0, 85, 106
2, 182259, Note_on_c, 0, 88, 0
2, 182264, Note_on_c, 0, 94, 90
2, 182264, Note_on_c, 0, 90, 93
2, 182267, Note_on_c, 0, 82, 86
2, 182277, Note_on_c, 0, 82, 0
2, 182520, Note_on_c, 0, 97, 0
2, 182522, Note_on_c, 0, 94, 0
2, 182522, Note_on_c, 0, 85, 0
2, 182523, Note_on_c, 0, 90, 0
2, 182526, Control_c, 0, 64, 0
2, 182530, Note_on_c, 0, 30, 0
2, 182530, Note_on_c, 0, 37, 0
2, 182580, Note_on_c, 0, 97, 108
2, 182582, Note_on_c, 0, 85, 109
2, 182582, Note_on_c, 0, 90, 109
2, 182586, Note_on_c, 0, 47, 93
2, 182588, Note_on_c, 0, 35, 88
2, 182588, Note_on_c, 0, 94, 79
2, 182607, Control_c, 0, 64, 127
2, 182714, Note_on_c, 0, 47, 0
2, 182722, Note_on_c, 0, 47, 89
2, 182722, Note_on_c, 0, 35, 0
2, 182727, Note_on_c, 0, 35, 65
2, 182822, Note_on_c, 0, 35, 0
2, 182822, Note_on_c, 0, 85, 0
2, 182822, Note_on_c, 0, 90, 0
2, 182822, Note_on_c, 0, 97, 0
2, 182829, Note_on_c, 0, 97, 100
2, 182830, Note_on_c, 0, 35, 79
2, 182833, Note_on_c, 0, 90, 85
2, 182833, Note_on_c, 0, 85, 99
2, 183051, Note_on_c, 0, 54, 83
2, 183068, Note_on_c, 0, 90, 0
2, 183072, Note_on_c, 0, 59, 77
2, 183075, Note_on_c, 0, 87, 103
2, 183076, Note_on_c, 0, 90, 104
2, 183077, Note_on_c, 0, 99, 110
2, 183109, Note_on_c, 0, 35, 0
2, 183111, Note_on_c, 0, 85, 0
2, 183112, Control_c, 0, 64, 0
2, 183112, Note_on_c, 0, 47, 0
2, 183121, Note_on_c, 0, 59, 0
2, 183183, Note_on_c, 0, 54, 0
2, 183226, Note_on_c, 0, 34, 96
2, 183228, Note_on_c, 0, 46, 101
2, 183252, Control_c, 0, 64, 127
2, 183397, Note_on_c, 0, 95, 95
2, 183402, Note_on_c, 0, 83, 91
2, 183402, Note_on_c, 0, 58, 81
2, 183559, Note_on_c, 0, 58, 0
2, 183559, Note_on_c, 0, 94, 0
2, 183563, Note_on_c, 0, 54, 77
2, 183564, Note_on_c, 0, 66, 81
2, 183565, Note_on_c, 0, 94, 105
2, 183569, Note_on_c, 0, 82, 105
2, 183570, Note_on_c, 0, 58, 71
2, 183575, Note_on_c, 0, 66, 0
2, 183690, Note_on_c, 0, 46, 0
2, 183699, Note_on_c, 0, 46, 90
2, 183705, Note_on_c, 0, 34, 0
2, 183711, Note_on_c, 0, 34, 76
2, 183720, Note_on_c, 0, 90, 0
2, 183730, Note_on_c, 0, 90, 108
2, 183733, Note_on_c, 0, 78, 102
2, 183817, Note_on_c, 0, 95, 0
2, 183818, Note_on_c, 0, 83, 0
2, 183818, Note_on_c, 0, 34, 0
2, 183818, Note_on_c, 0, 46, 0
2, 183818, Note_on_c, 0, 94, 0
2, 183819, Note_on_c, 0, 82, 0
2, 183819, Note_on_c, 0, 90, 0
2, 183820, Note_on_c, 0, 87, 0
2, 183820, Note_on_c, 0, 97, 0
2, 183820, Control_c, 0, 64, 0
2, 183820, Note_on_c, 0, 54, 0
2, 183821, Note_on_c, 0, 78, 0
2, 183828, Note_on_c, 0, 99, 0
2, 183836, Note_on_c, 0, 58, 0
2, 183886, Note_on_c, 0, 32, 93
2, 183888, Note_on_c, 0, 44, 97
2, 183890, Note_on_c, 0, 78, 109
2, 183891, Note_on_c, 0, 90, 110
2, 183895, Note_on_c, 0, 86, 82
2, 183920, Control_c, 0, 64, 127
2, 184054, Note_on_c, 0, 80, 96
2, 184055, Note_on_c, 0, 83, 91
2, 184058, Note_on_c, 0, 44, 0
2, 184060, Note_on_c, 0, 92, 90
2, 184065, Note_on_c, 0, 44, 77
2, 184112, Note_on_c, 0, 83, 0
2, 184112, Note_on_c, 0, 92, 0
2, 184120, Note_on_c, 0, 80, 0
2, 184123, Note_on_c, 0, 92, 103
2, 184124, Note_on_c, 0, 83, 105
2, 184124, Note_on_c, 0, 80, 98
2, 184129, Note_on_c, 0, 87, 76
2, 184143, Note_on_c, 0, 44, 0
2, 184152, Note_on_c, 0, 44, 85
2, 184357, Note_on_c, 0, 56, 88
2, 184358, Note_on_c, 0, 44, 0
2, 184363, Note_on_c, 0, 44, 82
2, 184366, Note_on_c, 0, 90, 0
2, 184372, Note_on_c, 0, 51, 81
2, 184373, Note_on_c, 0, 78, 0
2, 184377, Note_on_c, 0, 90, 100
2, 184381, Note_on_c, 0, 78, 96
2, 184500, Note_on_c, 0, 78, 0
2, 184501, Note_on_c, 0, 92, 0
2, 184501, Note_on_c, 0, 44, 0
2, 184501, Note_on_c, 0, 56, 0
2, 184504, Note_on_c, 0, 86, 0
2, 184508, Control_c, 0, 64, 0
2, 184512, Note_on_c, 0, 32, 0
2, 184512, Note_on_c, 0, 51, 0
2, 184512, Note_on_c, 0, 80, 0
2, 184512, Note_on_c, 0, 83, 0
2, 184512, Note_on_c, 0, 87, 0
2, 184535, Note_on_c, 0, 90, 0
2, 184545, Note_on_c, 0, 32, 88
2, 184546, Note_on_c, 0, 90, 107
2, 184547, Note_on_c, 0, 78, 100
2, 184588, Control_c, 0, 64, 127
2, 184708, Note_on_c, 0, 83, 90
2, 184709, Note_on_c, 0, 44, 81
2, 184713, Note_on_c, 0, 80, 91
2, 184713, Note_on_c, 0, 92, 94
2, 184765, Note_on_c, 0, 80, 0
2, 184765, Note_on_c, 0, 83, 0
2, 184765, Note_on_c, 0, 92, 0
2, 184772, Note_on_c, 0, 92, 105
2, 184773, Note_on_c, 0, 80, 103
2, 184776, Note_on_c, 0, 83, 94
2, 184785, Note_on_c, 0, 51, 88
2, 184926, Note_on_c, 0, 44, 0
2, 184932, Note_on_c, 0, 44, 73
2, 185034, Note_on_c, 0, 78, 0
2, 185034, Note_on_c, 0, 90, 0
2, 185038, Note_on_c, 0, 90, 104
2, 185038, Note_on_c, 0, 78, 100
2, 185039, Note_on_c, 0, 39, 64
2, 185045, Note_on_c, 0, 87, 73
2, 185049, Note_on_c, 0, 39, 0
2, 185152, Control_c, 0, 64, 0
2, 185155, Note_on_c, 0, 83, 0
2, 185155, Note_on_c, 0, 80, 0
2, 185156, Note_on_c, 0, 92, 0
2, 185156, Note_on_c, 0, 51, 0
2, 185157, Note_on_c, 0, 87, 0
2, 185158, Note_on_c, 0, 78, 0
2, 185172, Note_on_c, 0, 32, 0
2, 185172, Note_on_c, 0, 44, 0
2, 185199, Note_on_c, 0, 40, 86
2, 185203, Note_on_c, 0, 90, 0
2, 185207, Note_on_c, 0, 78, 97
2, 185207, Note_on_c, 0, 90, 103
2, 185210, Control_c, 0, 64, 127
2, 185356, Note_on_c, 0, 40, 0
2, 185359, Note_on_c, 0, 80, 92
2, 185360, Note_on_c, 0, 83, 93
2, 185361, Note_on_c, 0, 92, 93
2, 185361, Note_on_c, 0, 40, 68
2, 185418, Note_on_c, 0, 83, 0
2, 185418, Note_on_c, 0, 92, 0
2, 185425, Note_on_c, 0, 80, 0
2, 185426, Note_on_c, 0, 92, 107
2, 185427, Note_on_c, 0, 83, 96
2, 185430, Note_on_c, 0, 80, 95
2, 185441, Note_on_c, 0, 40, 0
2, 185445, Note_on_c, 0, 40, 83
2, 185452, Note_on_c, 0, 47, 83
2, 185453, Note_on_c, 0, 52, 83
2, 185571, Note_on_c, 0, 83, 0
2, 185583, Note_on_c, 0, 83, 72
2, 185671, Note_on_c, 0, 47, 0
2, 185682, Note_on_c, 0, 47, 76
2, 185697, Note_on_c, 0, 52, 0
2, 185702, Note_on_c, 0, 78, 0
2, 185702, Note_on_c, 0, 90, 0
2, 185710, Note_on_c, 0, 90, 103
2, 185712, Note_on_c, 0, 78, 98
2, 185791, Control_c, 0, 64, 0
2, 185792, Note_on_c, 0, 83, 0
2, 185792, Note_on_c, 0, 40, 0
2, 185793, Note_on_c, 0, 92, 0
2, 185793, Note_on_c, 0, 90, 0
2, 185793, Note_on_c, 0, 80, 0
2, 185794, Note_on_c, 0, 78, 0
2, 185817, Note_on_c, 0, 47, 0
2, 185858, Note_on_c, 0, 40, 96
2, 185859, Note_on_c, 0, 83, 96
2, 185859, Note_on_c, 0, 28, 88
2, 185859, Note_on_c, 0, 80, 93
2, 185860, Note_on_c, 0, 92, 104
2, 185871, Control_c, 0, 64, 127
2, 185874, Note_on_c, 0, 90, 83
2, 186001, Note_on_c, 0, 40, 0
2, 186005, Note_on_c, 0, 40, 81
2, 186024, Note_on_c, 0, 80, 0
2, 186028, Note_on_c, 0, 82, 86
2, 186028, Note_on_c, 0, 94, 101
2, 186034, Note_on_c, 0, 80, 79
2, 186097, Note_on_c, 0, 52, 78
2, 186097, Note_on_c, 0, 47, 71
2, 186186, Note_on_c, 0, 83, 0
2, 186191, Note_on_c, 0, 95, 102
2, 186193, Note_on_c, 0, 83, 98
2, 186263, Note_on_c, 0, 40, 0
2, 186270, Note_on_c, 0, 40, 70
2, 186355, Note_on_c, 0, 52, 0
2, 186358, Note_on_c, 0, 97, 105
2, 186361, Note_on_c, 0, 52, 90
2, 186364, Note_on_c, 0, 85, 97
2, 186427, Note_on_c, 0, 90, 0
2, 186428, Note_on_c, 0, 52, 0
2, 186428, Note_on_c, 0, 80, 0
2, 186428, Note_on_c, 0, 83, 0
2, 186429, Note_on_c, 0, 94, 0
2, 186429, Note_on_c, 0, 82, 0
2, 186429, Note_on_c, 0, 85, 0
2, 186429, Note_on_c, 0, 95, 0
2, 186432, Note_on_c, 0, 28, 0
2, 186432, Control_c, 0, 64, 0
2, 186433, Note_on_c, 0, 97, 0
2, 186439, Note_on_c, 0, 47, 0
2, 186447, Note_on_c, 0, 40, 0
2, 186447, Note_on_c, 0, 92, 0
2, 186507, Note_on_c, 0, 92, 110
2, 186511, Note_on_c, 0, 37, 97
2, 186511, Note_on_c, 0, 80, 107
2, 186512, Note_on_c, 0, 25, 88
2, 186512, Note_on_c, 0, 85, 95
2, 186513, Note_on_c, 0, 88, 90
2, 186524, Note_on_c, 0, 25, 0
2, 186524, Control_c, 0, 64, 127
2, 186669, Note_on_c, 0, 56, 70
2, 186669, Note_on_c, 0, 49, 65
2, 186670, Note_on_c, 0, 52, 60
2, 186746, Note_on_c, 0, 52, 0
2, 186746, Note_on_c, 0, 56, 0
2, 186751, Note_on_c, 0, 61, 83
2, 186752, Note_on_c, 0, 52, 71
2, 186755, Note_on_c, 0, 56, 85
2, 186933, Note_on_c, 0, 49, 0
2, 187000, Note_on_c, 0, 61, 0
2, 187008, Note_on_c, 0, 52, 0
2, 187008, Note_on_c, 0, 56, 0
2, 187011, Note_on_c, 0, 61, 95
2, 187012, Note_on_c, 0, 56, 82
2, 187014, Note_on_c, 0, 52, 76
2, 187137, Control_c, 0, 64, 0
2, 187137, Note_on_c, 0, 80, 0
2, 187137, Note_on_c, 0, 85, 0
2, 187138, Note_on_c, 0, 56, 0
2, 187138, Note_on_c, 0, 88, 0
2, 187138, Note_on_c, 0, 52, 0
2, 187153, Note_on_c, 0, 61, 0
2, 187161, Note_on_c, 0, 37, 0
2, 187169, Note_on_c, 0, 92, 0
2, 187171, Note_on_c, 0, 37, 94
2, 187175, Note_on_c, 0, 49, 95
2, 187180, Note_on_c, 0, 92, 107
2, 187180, Note_on_c, 0, 85, 98
2, 187180, Note_on_c, 0, 80, 100
2, 187186, Note_on_c, 0, 52, 78
2, 187207, Control_c, 0, 64, 127
2, 187213, Note_on_c, 0, 37, 0
2, 187315, Note_on_c, 0, 49, 0
2, 187320, Note_on_c, 0, 49, 87
2, 187326, Note_on_c, 0, 61, 77
2, 187326, Note_on_c, 0, 56, 84
2, 187330, Note_on_c, 0, 61, 0
2, 187349, Note_on_c, 0, 82, 77
2, 187350, Note_on_c, 0, 94, 90
2, 187422, Note_on_c, 0, 52, 0
2, 187422, Note_on_c, 0, 56, 0
2, 187430, Note_on_c, 0, 52, 73
2, 187431, Note_on_c, 0, 68, 82
2, 187433, Note_on_c, 0, 56, 83
2, 187433, Note_on_c, 0, 61, 77
2, 187433, Note_on_c, 0, 64, 74
2, 187501, Note_on_c, 0, 95, 101
2, 187503, Note_on_c, 0, 83, 94
2, 187630, Note_on_c, 0, 56, 0
2, 187630, Note_on_c, 0, 61, 0
2, 187637, Note_on_c, 0, 52, 0
2, 187637, Note_on_c, 0, 64, 0
2, 187637, Note_on_c, 0, 61, 83
2, 187638, Note_on_c, 0, 49, 0
2, 187641, Note_on_c, 0, 56, 81
2, 187643, Note_on_c, 0, 64, 74
2, 187647, Note_on_c, 0, 52, 65
2, 187668, Note_on_c, 0, 85, 0
2, 187670, Note_on_c, 0, 97, 105
2, 187673, Note_on_c, 0, 85, 101
2, 187733, Note_on_c, 0, 82, 0
2, 187733, Note_on_c, 0, 80, 0
2, 187734, Note_on_c, 0, 95, 0
2, 187734, Note_on_c, 0, 94, 0
2, 187734, Note_on_c, 0, 92, 0
2, 187735, Note_on_c, 0, 85, 0
2, 187735, Note_on_c, 0, 97, 0
2, 187739, Control_c, 0, 64, 0
2, 187745, Note_on_c, 0, 56, 0
2, 187745, Note_on_c, 0, 83, 0
2, 187752, Note_on_c, 0, 52, 0
2, 187752, Note_on_c, 0, 64, 0
2, 187760, Note_on_c, 0, 61, 0
2, 187760, Note_on_c, 0, 68, 0
2, 187811, Note_on_c, 0, 51, 101
2, 187814, Note_on_c, 0, 39, 97
2, 187818, Note_on_c, 0, 94, 102
2, 187820, Note_on_c, 0, 85, 98
2, 187824, Note_on_c, 0, 82, 101
2, 187829, Control_c, 0, 64, 127
2, 187960, Note_on_c, 0, 51, 0
2, 187964, Note_on_c, 0, 51, 63
2, 188034, Note_on_c, 0, 54, 75
2, 188119, Note_on_c, 0, 58, 79
2, 188152, Note_on_c, 0, 82, 0
2, 188163, Note_on_c, 0, 82, 104
2, 188163, Note_on_c, 0, 90, 106
2, 188165, Note_on_c, 0, 78, 102
2, 188217, Note_on_c, 0, 63, 69
2, 188321, Note_on_c, 0, 54, 0
2, 188327, Note_on_c, 0, 54, 71
2, 188328, Note_on_c, 0, 66, 86
2, 188413, Note_on_c, 0, 63, 0
2, 188421, Note_on_c, 0, 66, 0
2, 188424, Note_on_c, 0, 63, 59
2, 188424, Note_on_c, 0, 70, 75
2, 188427, Note_on_c, 0, 66, 60
2, 188490, Note_on_c, 0, 82, 0
2, 188493, Note_on_c, 0, 87, 107
2, 188493, Note_on_c, 0, 75, 100
2, 188495, Note_on_c, 0, 82, 103
2, 188520, Note_on_c, 0, 66, 0
2, 188527, Note_on_c, 0, 66, 71
2, 188597, Note_on_c, 0, 66, 0
2, 188605, Note_on_c, 0, 54, 0
2, 188609, Note_on_c, 0, 66, 93
2, 188611, Note_on_c, 0, 54, 65
2, 188705, Note_on_c, 0, 51, 0
2, 188705, Note_on_c, 0, 63, 0
2, 188710, Note_on_c, 0, 63, 78
2, 188715, Note_on_c, 0, 51, 67
2, 188766, Note_on_c, 0, 58, 0
2, 188777, Note_on_c, 0, 58, 78
2, 188812, Note_on_c, 0, 78, 0
2, 188812, Note_on_c, 0, 90, 0
2, 188821, Note_on_c, 0, 90, 109
2, 188823, Note_on_c, 0, 78, 107
2, 188843, Note_on_c, 0, 54, 0
2, 188851, Note_on_c, 0, 66, 0
2, 188854, Note_on_c, 0, 54, 59
2, 188859, Note_on_c, 0, 66, 59
2, 188935, Note_on_c, 0, 66, 0
2, 188943, Note_on_c, 0, 51, 0
2, 188943, Note_on_c, 0, 63, 0
2, 188946, Note_on_c, 0, 66, 68
2, 188947, Note_on_c, 0, 51, 74
2, 188947, Note_on_c, 0, 63, 71
2, 189069, Control_c, 0, 64, 0
2, 189072, Note_on_c, 0, 94, 0
2, 189073, Note_on_c, 0, 87, 0
2, 189073, Note_on_c, 0, 82, 0
2, 189073, Note_on_c, 0, 63, 0
2, 189074, Note_on_c, 0, 90, 0
2, 189074, Note_on_c, 0, 85, 0
2, 189074, Note_on_c, 0, 51, 0
2, 189074, Note_on_c, 0, 58, 0
2, 189074, Note_on_c, 0, 78, 0
2, 189075, Note_on_c, 0, 66, 0
2, 189075, Note_on_c, 0, 54, 0
2, 189075, Note_on_c, 0, 75, 0
2, 189089, Note_on_c, 0, 39, 0
2, 189089, Note_on_c, 0, 70, 0
2, 189130, Note_on_c, 0, 40, 94
2, 189130, Note_on_c, 0, 90, 113
2, 189130, Note_on_c, 0, 52, 103
2, 189130, Note_on_c, 0, 78, 109
2, 189150, Control_c, 0, 64, 127
2, 189155, Note_on_c, 0, 87, 52
2, 189293, Note_on_c, 0, 80, 85
2, 189293, Note_on_c, 0, 83, 82
2, 189294, Note_on_c, 0, 92, 88
2, 189350, Note_on_c, 0, 80, 0
2, 189350, Note_on_c, 0, 92, 0
2, 189358, Note_on_c, 0, 83, 0
2, 189361, Note_on_c, 0, 80, 103
2, 189361, Note_on_c, 0, 92, 108
2, 189362, Note_on_c, 0, 83, 106
2, 189367, Note_on_c, 0, 71, 83
2, 189368, Note_on_c, 0, 64, 72
2, 189370, Note_on_c, 0, 68, 89
2, 189373, Note_on_c, 0, 64, 0
2, 189376, Note_on_c, 0, 59, 79
2, 189393, Note_on_c, 0, 56, 57
2, 189527, Note_on_c, 0, 52, 0
2, 189527, Note_on_c, 0, 56, 0
2, 189531, Note_on_c, 0, 52, 75
2, 189531, Note_on_c, 0, 64, 65
2, 189533, Note_on_c, 0, 56, 48
2, 189626, Note_on_c, 0, 56, 0
2, 189626, Note_on_c, 0, 64, 0
2, 189626, Note_on_c, 0, 68, 0
2, 189626, Note_on_c, 0, 92, 0
2, 189633, Note_on_c, 0, 95, 102
2, 189634, Note_on_c, 0, 83, 0
2, 189634, Note_on_c, 0, 68, 87
2, 189635, Note_on_c, 0, 64, 80
2, 189637, Note_on_c, 0, 56, 88
2, 189637, Note_on_c, 0, 92, 84
2, 189638, Note_on_c, 0, 83, 99
2, 189642, Note_on_c, 0, 59, 0
2, 189647, Note_on_c, 0, 59, 61
2, 189705, Note_on_c, 0, 95, 0
2, 189705, Note_on_c, 0, 52, 0
2, 189705, Note_on_c, 0, 56, 0
2, 189705, Note_on_c, 0, 83, 0
2, 189705, Note_on_c, 0, 80, 0
2, 189706, Note_on_c, 0, 59, 0
2, 189706, Note_on_c, 0, 92, 0
2, 189707, Control_c, 0, 64, 0
2, 189711, Note_on_c, 0, 78, 0
2, 189719, Note_on_c, 0, 40, 0
2, 189719, Note_on_c, 0, 71, 0
2, 189719, Note_on_c, 0, 87, 0
2, 189719, Note_on_c, 0, 90, 0
2, 189726, Note_on_c, 0, 64, 0
2, 189734, Note_on_c, 0, 68, 0
2, 189791, Note_on_c, 0, 42, 98
2, 189792, Note_on_c, 0, 54, 94
2, 189792, Note_on_c, 0, 94, 112
2, 189796, Note_on_c, 0, 82, 105
2, 189798, Note_on_c, 0, 90, 86
2, 189811, Control_c, 0, 64, 127
2, 189834, Note_on_c, 0, 54, 0
2, 189941, Note_on_c, 0, 90, 0
2, 189947, Note_on_c, 0, 90, 89
2, 189957, Note_on_c, 0, 78, 62
2, 189960, Note_on_c, 0, 66, 74
2, 189962, Note_on_c, 0, 54, 66
2, 189964, Note_on_c, 0, 78, 0
2, 190021, Note_on_c, 0, 87, 104
2, 190024, Note_on_c, 0, 75, 103
2, 190024, Note_on_c, 0, 61, 82
2, 190028, Note_on_c, 0, 58, 70
2, 190172, Note_on_c, 0, 54, 0
2, 190172, Note_on_c, 0, 66, 0
2, 190176, Note_on_c, 0, 54, 71
2, 190178, Note_on_c, 0, 66, 73
2, 190279, Note_on_c, 0, 90, 0
2, 190287, Note_on_c, 0, 58, 0
2, 190287, Note_on_c, 0, 61, 0
2, 190287, Note_on_c, 0, 66, 0
2, 190290, Note_on_c, 0, 90, 112
2, 190292, Note_on_c, 0, 78, 106
2, 190293, Note_on_c, 0, 66, 94
2, 190293, Note_on_c, 0, 61, 79
2, 190296, Note_on_c, 0, 58, 75
2, 190383, Control_c, 0, 64, 0
2, 190389, Note_on_c, 0, 82, 0
2, 190389, Note_on_c, 0, 94, 0
2, 190390, Note_on_c, 0, 61, 0
2, 190390, Note_on_c, 0, 58, 0
2, 190390, Note_on_c, 0, 66, 0
2, 190390, Note_on_c, 0, 54, 0
2, 190390, Note_on_c, 0, 87, 0
2, 190390, Note_on_c, 0, 90, 0
2, 190390, Note_on_c, 0, 78, 0
2, 190390, Note_on_c, 0, 75, 0
2, 190402, Note_on_c, 0, 42, 0
2, 190452, Note_on_c, 0, 44, 90
2, 190454, Note_on_c, 0, 90, 111
2, 190458, Note_on_c, 0, 78, 104
2, 190464, Control_c, 0, 64, 127
2, 190612, Note_on_c, 0, 56, 87
2, 190613, Note_on_c, 0, 80, 98
2, 190614, Note_on_c, 0, 68, 86
2, 190614, Note_on_c, 0, 85, 91
2, 190617, Note_on_c, 0, 92, 91
2, 190619, Note_on_c, 0, 87, 79
2, 190643, Note_on_c, 0, 66, 49
2, 190644, Note_on_c, 0, 63, 61
2, 190648, Note_on_c, 0, 66, 0
2, 190648, Note_on_c, 0, 61, 65
2, 190679, Note_on_c, 0, 80, 0
2, 190679, Note_on_c, 0, 85, 0
2, 190679, Note_on_c, 0, 92, 0
2, 190684, Note_on_c, 0, 80, 102
2, 190684, Note_on_c, 0, 92, 108
2, 190686, Note_on_c, 0, 87, 0
2, 190686, Note_on_c, 0, 90, 0
2, 190688, Note_on_c, 0, 85, 100
2, 190691, Note_on_c, 0, 87, 93
2, 190697, Note_on_c, 0, 90, 89
2, 190794, Note_on_c, 0, 56, 0
2, 190798, Note_on_c, 0, 56, 71
2, 190932, Note_on_c, 0, 56, 0
2, 190932, Note_on_c, 0, 61, 0
2, 190932, Note_on_c, 0, 63, 0
2, 190936, Note_on_c, 0, 63, 76
2, 190937, Note_on_c, 0, 61, 85
2, 190942, Note_on_c, 0, 56, 73
2, 191116, Note_on_c, 0, 44, 0
2, 191116, Note_on_c, 0, 56, 0
2, 191125, Note_on_c, 0, 56, 96
2, 191126, Note_on_c, 0, 44, 90
2, 191252, Note_on_c, 0, 85, 0
2, 191252, Note_on_c, 0, 80, 0
2, 191253, Note_on_c, 0, 92, 0
2, 191253, Note_on_c, 0, 61, 0
2, 191253, Note_on_c, 0, 90, 0
2, 191253, Control_c, 0, 64, 0
2, 191253, Note_on_c, 0, 87, 0
2, 191253, Note_on_c, 0, 68, 0
2, 191256, Note_on_c, 0, 56, 0
2, 191256, Note_on_c, 0, 63, 0
2, 191262, Note_on_c, 0, 78, 0
2, 191278, Note_on_c, 0, 44, 0
2, 191305, Note_on_c, 0, 71, 86
2, 191335, Note_on_c, 0, 71, 0
2, 191462, Note_on_c, 0, 70, 86
2, 191495, Note_on_c, 0, 70, 0
2, 191613, Note_on_c, 0, 66, 82
2, 191662, Note_on_c, 0, 66, 0
2, 191764, Note_on_c, 0, 66, 91
2, 191766, Note_on_c, 0, 56, 72
2, 191768, Note_on_c, 0, 59, 75
2, 191770, Note_on_c, 0, 52, 71
2, 191792, Control_c, 0, 64, 127
2, 191898, Note_on_c, 0, 56, 0
2, 191900, Note_on_c, 0, 52, 0
2, 191900, Note_on_c, 0, 59, 0
2, 191901, Control_c, 0, 64, 0
2, 191907, Note_on_c, 0, 66, 0
2, 191942, Note_on_c, 0, 68, 66
2, 192007, Note_on_c, 0, 68, 0
2, 192016, Note_on_c, 0, 68, 99
2, 192053, Control_c, 0, 64, 127
2, 192230, Note_on_c, 0, 68, 0
2, 192240, Control_c, 0, 64, 0
2, 192275, Note_on_c, 0, 71, 90
2, 192276, Note_on_c, 0, 59, 80
2, 192282, Note_on_c, 0, 52, 72
2, 192287, Note_on_c, 0, 56, 65
2, 192308, Note_on_c, 0, 71, 0
2, 192312, Note_on_c, 0, 59, 0
2, 192333, Note_on_c, 0, 52, 0
2, 192339, Note_on_c, 0, 56, 0
2, 192449, Note_on_c, 0, 58, 78
2, 192450, Note_on_c, 0, 61, 79
2, 192450, Note_on_c, 0, 70, 91
2, 192454, Note_on_c, 0, 66, 81
2, 192454, Note_on_c, 0, 54, 77
2, 192479, Note_on_c, 0, 58, 0
2, 192480, Note_on_c, 0, 61, 0
2, 192485, Note_on_c, 0, 70, 0
2, 192487, Note_on_c, 0, 66, 0
2, 192514, Note_on_c, 0, 54, 0
2, 192612, Note_on_c, 0, 66, 85
2, 192655, Note_on_c, 0, 66, 0
2, 192687, Note_on_c, 0, 63, 101
2, 192747, Note_on_c, 0, 63, 0
2, 192932, Note_on_c, 0, 78, 110
2, 192933, Note_on_c, 0, 66, 107
2, 192935, Note_on_c, 0, 30, 86
2, 192939, Note_on_c, 0, 32, 87
2, 192940, Note_on_c, 0, 68, 89
2, 192944, Note_on_c, 0, 68, 0
2, 192970, Note_on_c, 0, 66, 0
2, 192971, Note_on_c, 0, 30, 0
2, 192976, Note_on_c, 0, 78, 0
2, 192998, Note_on_c, 0, 32, 0
2, 193094, Note_on_c, 0, 78, 110
2, 193095, Note_on_c, 0, 32, 97
2, 193097, Note_on_c, 0, 66, 106
2, 193136, Control_c, 0, 64, 127
2, 193250, Note_on_c, 0, 80, 98
2, 193252, Note_on_c, 0, 73, 95
2, 193253, Note_on_c, 0, 68, 101
2, 193259, Note_on_c, 0, 32, 0
2, 193264, Note_on_c, 0, 32, 82
2, 193320, Note_on_c, 0, 32, 0
2, 193328, Note_on_c, 0, 68, 0
2, 193328, Note_on_c, 0, 80, 0
2, 193332, Note_on_c, 0, 32, 82
2, 193333, Note_on_c, 0, 68, 96
2, 193333, Note_on_c, 0, 80, 90
2, 193333, Note_on_c, 0, 75, 98
2, 193413, Note_on_c, 0, 32, 0
2, 193418, Note_on_c, 0, 32, 87
2, 193562, Note_on_c, 0, 54, 82
2, 193570, Note_on_c, 0, 44, 74
2, 193621, Note_on_c, 0, 56, 95
2, 193720, Note_on_c, 0, 32, 0
2, 193730, Note_on_c, 0, 32, 92
2, 193881, Note_on_c, 0, 44, 0
2, 193881, Note_on_c, 0, 56, 0
2, 193886, Note_on_c, 0, 56, 102
2, 193892, Note_on_c, 0, 44, 83
2, 194050, Note_on_c, 0, 32, 0
2, 194050, Note_on_c, 0, 54, 0
2, 194059, Note_on_c, 0, 54, 93
2, 194059, Note_on_c, 0, 32, 94
2, 194227, Note_on_c, 0, 44, 0
2, 194227, Note_on_c, 0, 54, 0
2, 194231, Note_on_c, 0, 54, 98
2, 194233, Note_on_c, 0, 44, 77
2, 194288, Note_on_c, 0, 56, 0
2, 194298, Note_on_c, 0, 56, 103
2, 194349, Note_on_c, 0, 68, 0
2, 194349, Note_on_c, 0, 66, 0
2, 194349, Note_on_c, 0, 80, 0
2, 194350, Note_on_c, 0, 54, 0
2, 194350, Note_on_c, 0, 75, 0
2, 194350, Note_on_c, 0, 73, 0
2, 194350, Note_on_c, 0, 78, 0
2, 194350, Control_c, 0, 64, 0
2, 194373, Note_on_c, 0, 32, 0
2, 194380, Note_on_c, 0, 44, 0
2, 194384, Note_on_c, 0, 32, 94
2, 194384, Note_on_c, 0, 44, 93
2, 194434, Note_on_c, 0, 56, 0
2, 194532, Note_on_c, 0, 56, 80
2, 194549, Control_c, 0, 64, 127
2, 194577, Note_on_c, 0, 61, 86
2, 194623, Note_on_c, 0, 63, 86
2, 194688, Note_on_c, 0, 56, 0
2, 194698, Note_on_c, 0, 68, 90
2, 194698, Note_on_c, 0, 56, 77
2, 194745, Note_on_c, 0, 73, 93
2, 194775, Note_on_c, 0, 75, 90
2, 194845, Note_on_c, 0, 80, 93
2, 194887, Note_on_c, 0, 85, 78
2, 194893, Note_on_c, 0, 84, 88
2, 194927, Note_on_c, 0, 87, 91
2, 194961, Note_on_c, 0, 68, 0
2, 194962, Note_on_c, 0, 75, 0
2, 194962, Note_on_c, 0, 80, 0
2, 194962, Note_on_c, 0, 73, 0
2, 194962, Note_on_c, 0, 56, 0
2, 194962, Note_on_c, 0, 61, 0
2, 194962, Note_on_c, 0, 63, 0
2, 194963, Note_on_c, 0, 44, 0
2, 194964, Control_c, 0, 64, 0
2, 194964, Note_on_c, 0, 84, 0
2, 194965, Note_on_c, 0, 85, 0
2, 194967, Note_on_c, 0, 87, 0
2, 194972, Note_on_c, 0, 32, 0
2, 195013, Note_on_c, 0, 80, 106
2, 195015, Note_on_c, 0, 92, 107
2, 195016, Note_on_c, 0, 44, 105
2, 195016, Note_on_c, 0, 32, 97
2, 195016, Note_on_c, 0, 87, 95
2, 195033, Control_c, 0, 64, 127
2, 195062, Note_on_c, 0, 34, 22
2, 195179, Note_on_c, 0, 32, 0
2, 195187, Note_on_c, 0, 32, 74
2, 195191, Note_on_c, 0, 30, 77
2, 195254, Note_on_c, 0, 78, 106
2, 195255, Note_on_c, 0, 90, 108
2, 195264, Note_on_c, 0, 92, 0
2, 195264, Note_on_c, 0, 80, 0
2, 195271, Note_on_c, 0, 87, 0
2, 195276, Note_on_c, 0, 87, 50
2, 195277, Control_c, 0, 64, 0
2, 195287, Note_on_c, 0, 44, 0
2, 195356, Note_on_c, 0, 30, 0
2, 195417, Note_on_c, 0, 32, 0
2, 195425, Note_on_c, 0, 78, 0
2, 195428, Note_on_c, 0, 32, 63
2, 195525, Note_on_c, 0, 32, 0
2, 195525, Note_on_c, 0, 87, 0
2, 195528, Note_on_c, 0, 92, 110
2, 195529, Note_on_c, 0, 80, 108
2, 195529, Note_on_c, 0, 87, 98
2, 195530, Note_on_c, 0, 84, 89
2, 195530, Note_on_c, 0, 32, 89
2, 195533, Note_on_c, 0, 44, 94
2, 195555, Note_on_c, 0, 34, 0
2, 195939, Control_c, 0, 64, 127
2, 197475, Note_on_c, 0, 44, 0
2, 197486, Note_on_c, 0, 44, 75
2, 197543, Note_on_c, 0, 39, 77
2, 197621, Note_on_c, 0, 32, 0
2, 197625, Note_on_c, 0, 32, 87
2, 197678, Note_on_c, 0, 87, 0
2, 197688, Note_on_c, 0, 92, 0
2, 197698, Control_c, 0, 64, 0
2, 197744, Note_on_c, 0, 44, 0
2, 197744, Note_on_c, 0, 90, 0
2, 197760, Note_on_c, 0, 39, 0
2, 197760, Note_on_c, 0, 80, 0
2, 197760, Note_on_c, 0, 84, 0
2, 197844, Note_on_c, 0, 32, 0
2, 201600, Control_c, 0, 64, 127
2, 201853, Control_c, 0, 64, 0
2, 202137, Control_c, 0, 64, 127
2, 202199, Control_c, 0, 64, 0
2, 202298, Control_c, 0, 64, 127
2, 202329, Control_c, 0, 64, 0
2, 202475, Control_c, 0, 64, 127
2, 202529, Control_c, 0, 64, 0
2, 202530, End_track
0, 0, End_of_file
