0, 0, Header, 1, 2, 384
1, 0, Start_track
1, 0, Tempo, 500000
1, 0, Time_signature, 4, 2, 24, 8
1, 1, End_track
2, 0, Start_track
2, 7, Control_c, 0, 64, 127
2, 1512, Control_c, 0, 64, 0
2, 1565, Note_on_c, 0, 32, 78
2, 1740, Note_on_c, 0, 56, 72
2, 1744, Note_on_c, 0, 44, 65
2, 1745, Note_on_c, 0, 51, 61
2, 1793, Note_on_c, 0, 51, 0
2, 1793, Note_on_c, 0, 56, 0
2, 1885, Note_on_c, 0, 56, 72
2, 1886, Note_on_c, 0, 51, 70
2, 1896, Note_on_c, 0, 32, 0
2, 1906, Note_on_c, 0, 32, 55
2, 2036, Note_on_c, 0, 54, 70
2, 2073, Note_on_c, 0, 44, 0
2, 2078, Note_on_c, 0, 44, 48
2, 2112, Note_on_c, 0, 56, 0
2, 2119, Note_on_c, 0, 51, 0
2, 2119, Note_on_c, 0, 56, 77
2, 2125, Note_on_c, 0, 51, 67
2, 2211, Control_c, 0, 64, 127
2, 2219, Note_on_c, 0, 32, 0
2, 2228, Note_on_c, 0, 32, 63
2, 2352, Control_c, 0, 64, 0
2, 2380, Note_on_c, 0, 56, 0
2, 2387, Note_on_c, 0, 56, 80
2, 2403, Note_on_c, 0, 44, 0
2, 2403, Note_on_c, 0, 51, 0
2, 2408, Note_on_c, 0, 44, 60
2, 2413, Note_on_c, 0, 51, 63
2, 2526, Note_on_c, 0, 54, 0
2, 2537, Note_on_c, 0, 54, 77
2, 2542, Note_on_c, 0, 32, 0
2, 2545, Note_on_c, 0, 51, 0
2, 2546, Note_on_c, 0, 32, 63
2, 2611, Control_c, 0, 64, 127
2, 2688, Note_on_c, 0, 54, 0
2, 2697, Note_on_c, 0, 54, 72
2, 2703, Control_c, 0, 64, 0
2, 2718, Note_on_c, 0, 44, 0
2, 2723, Note_on_c, 0, 44, 55
2, 2780, Note_on_c, 0, 56, 0
2, 2791, Note_on_c, 0, 56, 77
2, 2795, Note_on_c, 0, 51, 71
2, 2841, Control_c, 0, 64, 127
2, 2872, Note_on_c, 0, 32, 0
2, 2883, Note_on_c, 0, 32, 73
2, 2952, Control_c, 0, 64, 0
2, 2956, Control_c, 0, 64, 127
2, 3033, Note_on_c, 0, 56, 0
2, 3040, Note_on_c, 0, 56, 88
2, 3041, Note_on_c, 0, 44, 0
2, 3041, Note_on_c, 0, 51, 0
2, 3045, Note_on_c, 0, 51, 70
2, 3048, Note_on_c, 0, 44, 70
2, 3133, Note_on_c, 0, 54, 0
2, 3187, Note_on_c, 0, 56, 0
2, 3187, Control_c, 0, 64, 0
2, 3194, Note_on_c, 0, 32, 0
2, 3194, Note_on_c, 0, 51, 0
2, 3197, Note_on_c, 0, 56, 81
2, 3199, Note_on_c, 0, 32, 72
2, 3205, Note_on_c, 0, 51, 69
2, 3342, Note_on_c, 0, 54, 70
2, 3371, Control_c, 0, 64, 127
2, 3417, Note_on_c, 0, 56, 0
2, 3425, Note_on_c, 0, 51, 0
2, 3426, Note_on_c, 0, 56, 83
2, 3436, Note_on_c, 0, 51, 76
2, 3509, Note_on_c, 0, 32, 0
2, 3514, Note_on_c, 0, 32, 76
2, 3634, Control_c, 0, 64, 0
2, 3686, Note_on_c, 0, 44, 0
2, 3686, Note_on_c, 0, 56, 0
2, 3691, Note_on_c, 0, 56, 85
2, 3694, Note_on_c, 0, 51, 0
2, 3697, Note_on_c, 0, 44, 73
2, 3698, Note_on_c, 0, 51, 69
2, 3840, Note_on_c, 0, 54, 0
2, 3844, Note_on_c, 0, 54, 80
2, 3847, Note_on_c, 0, 32, 0
2, 3853, Note_on_c, 0, 32, 70
2, 3993, Note_on_c, 0, 54, 0
2, 4004, Note_on_c, 0, 54, 68
2, 4016, Note_on_c, 0, 56, 0
2, 4023, Note_on_c, 0, 56, 62
2, 4024, Note_on_c, 0, 44, 0
2, 4034, Note_on_c, 0, 44, 56
2, 4078, Note_on_c, 0, 51, 0
2, 4078, Note_on_c, 0, 56, 0
2, 4086, Note_on_c, 0, 56, 87
2, 4087, Note_on_c, 0, 51, 79
2, 4147, Control_c, 0, 64, 127
2, 4170, Note_on_c, 0, 32, 0
2, 4181, Note_on_c, 0, 32, 77
2, 4216, Control_c, 0, 64, 0
2, 4331, Note_on_c, 0, 56, 0
2, 4335, Note_on_c, 0, 68, 97
2, 4338, Note_on_c, 0, 56, 84
2, 4339, Note_on_c, 0, 44, 0
2, 4346, Note_on_c, 0, 32, 0
2, 4347, Note_on_c, 0, 44, 71
2, 4350, Note_on_c, 0, 32, 61
2, 4392, Note_on_c, 0, 54, 0
2, 4500, Note_on_c, 0, 32, 0
2, 4500, Note_on_c, 0, 56, 0
2, 4500, Note_on_c, 0, 68, 0
2, 4504, Note_on_c, 0, 68, 91
2, 4504, Note_on_c, 0, 56, 79
2, 4504, Note_on_c, 0, 32, 74
2, 4506, Note_on_c, 0, 63, 78
2, 4569, Control_c, 0, 64, 127
2, 4644, Note_on_c, 0, 66, 89
2, 4661, Note_on_c, 0, 32, 0
2, 4661, Note_on_c, 0, 44, 0
2, 4663, Note_on_c, 0, 54, 69
2, 4669, Note_on_c, 0, 44, 59
2, 4673, Note_on_c, 0, 32, 58
2, 4730, Note_on_c, 0, 44, 0
2, 4730, Note_on_c, 0, 56, 0
2, 4730, Note_on_c, 0, 63, 0
2, 4730, Note_on_c, 0, 68, 0
2, 4730, Control_c, 0, 64, 0
2, 4734, Note_on_c, 0, 68, 90
2, 4735, Note_on_c, 0, 44, 76
2, 4737, Note_on_c, 0, 63, 70
2, 4740, Note_on_c, 0, 56, 81
2, 4761, Note_on_c, 0, 51, 0
2, 4815, Control_c, 0, 64, 127
2, 4823, Note_on_c, 0, 32, 0
2, 4827, Note_on_c, 0, 32, 68
2, 4976, Note_on_c, 0, 32, 0
2, 4976, Note_on_c, 0, 44, 0
2, 4976, Note_on_c, 0, 56, 0
2, 4976, Note_on_c, 0, 63, 0
2, 4976, Note_on_c, 0, 68, 0
2, 4980, Note_on_c, 0, 68, 92
2, 4987, Note_on_c, 0, 56, 85
2, 4987, Note_on_c, 0, 32, 66
2, 4987, Note_on_c, 0, 63, 64
2, 4987, Note_on_c, 0, 44, 78
2, 5091, Control_c, 0, 64, 0
2, 5097, Note_on_c, 0, 44, 0
2, 5097, Note_on_c, 0, 68, 0
2, 5099, Note_on_c, 0, 63, 0
2, 5099, Note_on_c, 0, 54, 0
2, 5114, Note_on_c, 0, 66, 0
2, 5122, Note_on_c, 0, 56, 0
2, 5145, Note_on_c, 0, 32, 0
2, 5146, Note_on_c, 0, 51, 76
2, 5146, Note_on_c, 0, 66, 91
2, 5148, Note_on_c, 0, 54, 88
2, 5149, Note_on_c, 0, 32, 79
2, 5153, Note_on_c, 0, 51, 0
2, 5191, Control_c, 0, 64, 127
2, 5299, Note_on_c, 0, 54, 0
2, 5299, Note_on_c, 0, 66, 0
2, 5303, Note_on_c, 0, 66, 92
2, 5304, Note_on_c, 0, 54, 80
2, 5319, Control_c, 0, 64, 0
2, 5325, Note_on_c, 0, 56, 73
2, 5326, Note_on_c, 0, 44, 74
2, 5368, Note_on_c, 0, 54, 0
2, 5371, Note_on_c, 0, 66, 0
2, 5391, Note_on_c, 0, 56, 0
2, 5394, Note_on_c, 0, 68, 99
2, 5395, Note_on_c, 0, 56, 84
2, 5429, Note_on_c, 0, 44, 0
2, 5429, Control_c, 0, 64, 127
2, 5475, Note_on_c, 0, 32, 0
2, 5481, Note_on_c, 0, 32, 80
2, 5483, Note_on_c, 0, 44, 80
2, 5632, Control_c, 0, 64, 0
2, 5637, Note_on_c, 0, 56, 0
2, 5637, Note_on_c, 0, 68, 0
2, 5643, Note_on_c, 0, 80, 101
2, 5644, Note_on_c, 0, 44, 0
2, 5646, Note_on_c, 0, 68, 94
2, 5647, Note_on_c, 0, 56, 75
2, 5647, Note_on_c, 0, 75, 91
2, 5690, Control_c, 0, 64, 127
2, 5798, Note_on_c, 0, 68, 0
2, 5798, Note_on_c, 0, 80, 0
2, 5802, Note_on_c, 0, 80, 90
2, 5804, Note_on_c, 0, 68, 94
2, 5816, Note_on_c, 0, 60, 47
2, 5821, Note_on_c, 0, 60, 0
2, 5952, Note_on_c, 0, 75, 0
2, 5956, Note_on_c, 0, 75, 73
2, 5957, Note_on_c, 0, 78, 93
2, 5966, Note_on_c, 0, 66, 74
2, 5982, Note_on_c, 0, 32, 0
2, 6028, Note_on_c, 0, 68, 0
2, 6028, Note_on_c, 0, 80, 0
2, 6036, Note_on_c, 0, 80, 101
2, 6039, Note_on_c, 0, 68, 89
2, 6254, Control_c, 0, 64, 0
2, 6256, Note_on_c, 0, 68, 0
2, 6256, Note_on_c, 0, 66, 0
2, 6257, Note_on_c, 0, 78, 0
2, 6257, Note_on_c, 0, 75, 0
2, 6274, Note_on_c, 0, 56, 0
2, 6289, Note_on_c, 0, 80, 0
2, 6293, Note_on_c, 0, 83, 100
2, 6294, Note_on_c, 0, 80, 96
2, 6295, Note_on_c, 0, 71, 98
2, 6296, Note_on_c, 0, 75, 98
2, 6342, Note_on_c, 0, 71, 0
2, 6343, Control_c, 0, 64, 127
2, 6454, Note_on_c, 0, 82, 92
2, 6454, Note_on_c, 0, 70, 99
2, 6595, Note_on_c, 0, 78, 101
2, 6608, Note_on_c, 0, 66, 89
2, 6623, Note_on_c, 0, 79, 72
2, 6624, Note_on_c, 0, 68, 63
2, 6743, Note_on_c, 0, 78, 0
2, 6748, Note_on_c, 0, 78, 105
2, 6750, Note_on_c, 0, 66, 0
2, 6755, Note_on_c, 0, 66, 100
2, 6759, Note_on_c, 0, 32, 83
2, 6761, Note_on_c, 0, 44, 90
2, 6912, Note_on_c, 0, 75, 0
2, 6912, Note_on_c, 0, 80, 0
2, 6916, Note_on_c, 0, 80, 92
2, 6918, Note_on_c, 0, 71, 79
2, 6919, Note_on_c, 0, 44, 0
2, 6919, Note_on_c, 0, 68, 0
2, 6923, Note_on_c, 0, 75, 73
2, 6924, Note_on_c, 0, 68, 77
2, 6929, Note_on_c, 0, 44, 65
2, 6930, Note_on_c, 0, 56, 66
2, 6942, Control_c, 0, 64, 0
2, 6950, Note_on_c, 0, 83, 0
2, 6973, Note_on_c, 0, 80, 0
2, 6979, Note_on_c, 0, 80, 91
2, 6981, Note_on_c, 0, 68, 0
2, 6985, Note_on_c, 0, 68, 100
2, 6988, Note_on_c, 0, 71, 0
2, 6995, Note_on_c, 0, 71, 77
2, 6996, Note_on_c, 0, 75, 0
2, 7002, Note_on_c, 0, 75, 74
2, 7004, Note_on_c, 0, 51, 70
2, 7027, Control_c, 0, 64, 127
2, 7165, Note_on_c, 0, 44, 0
2, 7165, Note_on_c, 0, 51, 0
2, 7171, Note_on_c, 0, 51, 66
2, 7173, Note_on_c, 0, 44, 68
2, 7226, Note_on_c, 0, 56, 0
2, 7230, Note_on_c, 0, 56, 75
2, 7249, Note_on_c, 0, 78, 0
2, 7257, Note_on_c, 0, 66, 0
2, 7257, Note_on_c, 0, 71, 0
2, 7259, Note_on_c, 0, 78, 90
2, 7262, Note_on_c, 0, 71, 66
2, 7263, Note_on_c, 0, 66, 90
2, 7386, Control_c, 0, 64, 0
2, 7387, Note_on_c, 0, 68, 0
2, 7387, Note_on_c, 0, 80, 0
2, 7387, Note_on_c, 0, 71, 0
2, 7388, Note_on_c, 0, 70, 0
2, 7388, Note_on_c, 0, 51, 0
2, 7388, Note_on_c, 0, 56, 0
2, 7395, Note_on_c, 0, 79, 0
2, 7395, Note_on_c, 0, 82, 0
2, 7403, Note_on_c, 0, 78, 0
2, 7411, Note_on_c, 0, 32, 0
2, 7411, Note_on_c, 0, 66, 0
2, 7414, Note_on_c, 0, 78, 103
2, 7415, Note_on_c, 0, 32, 80
2, 7416, Note_on_c, 0, 66, 94
2, 7464, Note_on_c, 0, 44, 0
2, 7472, Control_c, 0, 64, 127
2, 7541, Note_on_c, 0, 66, 0
2, 7570, Note_on_c, 0, 80, 97
2, 7576, Note_on_c, 0, 56, 72
2, 7577, Note_on_c, 0, 71, 78
2, 7578, Note_on_c, 0, 68, 86
2, 7633, Note_on_c, 0, 80, 0
2, 7644, Note_on_c, 0, 80, 102
2, 7649, Note_on_c, 0, 71, 0
2, 7656, Note_on_c, 0, 75, 0
2, 7658, Note_on_c, 0, 71, 78
2, 7665, Note_on_c, 0, 75, 86
2, 7821, Note_on_c, 0, 51, 72
2, 7828, Note_on_c, 0, 44, 78
2, 7872, Note_on_c, 0, 56, 0
2, 7882, Note_on_c, 0, 56, 79
2, 7901, Note_on_c, 0, 68, 0
2, 7902, Note_on_c, 0, 78, 0
2, 7906, Note_on_c, 0, 78, 97
2, 7913, Note_on_c, 0, 66, 96
2, 8037, Control_c, 0, 64, 0
2, 8037, Note_on_c, 0, 66, 0
2, 8037, Note_on_c, 0, 51, 0
2, 8037, Note_on_c, 0, 80, 0
2, 8037, Note_on_c, 0, 71, 0
2, 8038, Note_on_c, 0, 75, 0
2, 8048, Note_on_c, 0, 32, 0
2, 8048, Note_on_c, 0, 44, 0
2, 8056, Note_on_c, 0, 56, 0
2, 8071, Note_on_c, 0, 78, 0
2, 8075, Note_on_c, 0, 78, 101
2, 8077, Note_on_c, 0, 40, 81
2, 8080, Note_on_c, 0, 66, 98
2, 8080, Note_on_c, 0, 28, 87
2, 8110, Control_c, 0, 64, 127
2, 8238, Note_on_c, 0, 80, 95
2, 8242, Note_on_c, 0, 71, 77
2, 8243, Note_on_c, 0, 68, 81
2, 8244, Note_on_c, 0, 75, 68
2, 8309, Note_on_c, 0, 28, 0
2, 8309, Note_on_c, 0, 68, 0
2, 8314, Note_on_c, 0, 68, 88
2, 8315, Note_on_c, 0, 28, 87
2, 8317, Note_on_c, 0, 75, 0
2, 8325, Note_on_c, 0, 71, 0
2, 8325, Note_on_c, 0, 75, 85
2, 8333, Note_on_c, 0, 71, 64
2, 8463, Note_on_c, 0, 40, 0
2, 8474, Note_on_c, 0, 40, 67
2, 8482, Note_on_c, 0, 52, 63
2, 8560, Note_on_c, 0, 47, 78
2, 8570, Note_on_c, 0, 66, 0
2, 8570, Note_on_c, 0, 78, 0
2, 8575, Note_on_c, 0, 78, 95
2, 8580, Note_on_c, 0, 66, 94
2, 8706, Control_c, 0, 64, 0
2, 8707, Note_on_c, 0, 66, 0
2, 8711, Note_on_c, 0, 47, 0
2, 8724, Note_on_c, 0, 68, 0
2, 8724, Note_on_c, 0, 71, 0
2, 8724, Note_on_c, 0, 80, 0
2, 8731, Note_on_c, 0, 68, 100
2, 8731, Note_on_c, 0, 80, 96
2, 8732, Note_on_c, 0, 28, 0
2, 8732, Note_on_c, 0, 40, 0
2, 8732, Note_on_c, 0, 75, 0
2, 8735, Note_on_c, 0, 71, 77
2, 8739, Note_on_c, 0, 75, 78
2, 8740, Note_on_c, 0, 28, 83
2, 8742, Note_on_c, 0, 40, 68
2, 8762, Note_on_c, 0, 52, 0
2, 8770, Control_c, 0, 64, 127
2, 8878, Note_on_c, 0, 40, 0
2, 8882, Note_on_c, 0, 40, 78
2, 8888, Note_on_c, 0, 70, 98
2, 8889, Note_on_c, 0, 82, 93
2, 8954, Note_on_c, 0, 40, 0
2, 8961, Note_on_c, 0, 47, 62
2, 8961, Note_on_c, 0, 40, 64
2, 9039, Note_on_c, 0, 71, 0
2, 9049, Note_on_c, 0, 83, 98
2, 9050, Note_on_c, 0, 71, 94
2, 9200, Note_on_c, 0, 40, 0
2, 9206, Note_on_c, 0, 85, 95
2, 9207, Note_on_c, 0, 40, 78
2, 9212, Note_on_c, 0, 73, 91
2, 9216, Note_on_c, 0, 82, 0
2, 9221, Note_on_c, 0, 82, 58
2, 9297, Note_on_c, 0, 28, 0
2, 9300, Note_on_c, 0, 47, 0
2, 9300, Note_on_c, 0, 78, 0
2, 9301, Control_c, 0, 64, 0
2, 9301, Note_on_c, 0, 40, 0
2, 9302, Note_on_c, 0, 68, 0
2, 9303, Note_on_c, 0, 70, 0
2, 9303, Note_on_c, 0, 85, 0
2, 9303, Note_on_c, 0, 73, 0
2, 9303, Note_on_c, 0, 83, 0
2, 9303, Note_on_c, 0, 82, 0
2, 9303, Note_on_c, 0, 71, 0
2, 9303, Note_on_c, 0, 80, 0
2, 9303, Note_on_c, 0, 75, 0
2, 9359, Note_on_c, 0, 78, 94
2, 9360, Note_on_c, 0, 82, 94
2, 9365, Note_on_c, 0, 70, 94
2, 9368, Note_on_c, 0, 42, 86
2, 9373, Note_on_c, 0, 30, 78
2, 9392, Control_c, 0, 64, 127
2, 9484, Note_on_c, 0, 70, 0
2, 9493, Note_on_c, 0, 71, 60
2, 9494, Note_on_c, 0, 70, 69
2, 9507, Note_on_c, 0, 42, 0
2, 9517, Note_on_c, 0, 42, 66
2, 9622, Note_on_c, 0, 49, 72
2, 9669, Note_on_c, 0, 70, 0
2, 9669, Note_on_c, 0, 78, 0
2, 9674, Note_on_c, 0, 66, 93
2, 9677, Note_on_c, 0, 70, 90
2, 9677, Note_on_c, 0, 78, 93
2, 9677, Note_on_c, 0, 73, 91
2, 9679, Note_on_c, 0, 54, 85
2, 9768, Note_on_c, 0, 49, 0
2, 9773, Note_on_c, 0, 49, 70
2, 9807, Note_on_c, 0, 42, 0
2, 9812, Note_on_c, 0, 42, 61
2, 9965, Control_c, 0, 64, 0
2, 9975, Note_on_c, 0, 49, 0
2, 9975, Note_on_c, 0, 66, 0
2, 9975, Note_on_c, 0, 73, 0
2, 9977, Note_on_c, 0, 54, 0
2, 9977, Note_on_c, 0, 70, 0
2, 9984, Note_on_c, 0, 30, 0
2, 9984, Note_on_c, 0, 42, 0
2, 9984, Note_on_c, 0, 78, 0
2, 9984, Note_on_c, 0, 82, 0
2, 9987, Note_on_c, 0, 88, 103
2, 9987, Note_on_c, 0, 42, 90
2, 9990, Note_on_c, 0, 78, 94
2, 9990, Note_on_c, 0, 30, 88
2, 9991, Note_on_c, 0, 71, 0
2, 9993, Note_on_c, 0, 76, 100
2, 9995, Note_on_c, 0, 82, 89
2, 10030, Control_c, 0, 64, 127
2, 10152, Note_on_c, 0, 42, 0
2, 10157, Note_on_c, 0, 42, 68
2, 10241, Note_on_c, 0, 49, 65
2, 10278, Control_c, 0, 64, 0
2, 10306, Note_on_c, 0, 78, 0
2, 10306, Control_c, 0, 64, 127
2, 10310, Note_on_c, 0, 54, 78
2, 10314, Note_on_c, 0, 82, 0
2, 10314, Note_on_c, 0, 85, 98
2, 10316, Note_on_c, 0, 73, 99
2, 10317, Note_on_c, 0, 78, 85
2, 10318, Note_on_c, 0, 82, 84
2, 10383, Note_on_c, 0, 49, 0
2, 10394, Note_on_c, 0, 49, 67
2, 10444, Note_on_c, 0, 42, 0
2, 10450, Note_on_c, 0, 42, 74
2, 10576, Control_c, 0, 64, 0
2, 10577, Note_on_c, 0, 78, 0
2, 10577, Note_on_c, 0, 42, 0
2, 10577, Note_on_c, 0, 54, 0
2, 10578, Note_on_c, 0, 82, 0
2, 10578, Note_on_c, 0, 88, 0
2, 10578, Note_on_c, 0, 76, 0
2, 10578, Note_on_c, 0, 85, 0
2, 10578, Note_on_c, 0, 73, 0
2, 10590, Note_on_c, 0, 30, 0
2, 10590, Note_on_c, 0, 49, 0
2, 10632, Note_on_c, 0, 85, 97
2, 10632, Note_on_c, 0, 73, 93
2, 10632, Note_on_c, 0, 78, 92
2, 10637, Note_on_c, 0, 82, 81
2, 10638, Note_on_c, 0, 35, 77
2, 10652, Control_c, 0, 64, 127
2, 10794, Note_on_c, 0, 47, 85
2, 10867, Note_on_c, 0, 73, 0
2, 10867, Note_on_c, 0, 85, 0
2, 10874, Note_on_c, 0, 47, 0
2, 10874, Note_on_c, 0, 78, 0
2, 10874, Note_on_c, 0, 82, 0
2, 10877, Note_on_c, 0, 54, 81
2, 10878, Note_on_c, 0, 85, 91
2, 10878, Note_on_c, 0, 73, 92
2, 10878, Note_on_c, 0, 78, 82
2, 10883, Note_on_c, 0, 59, 86
2, 10883, Note_on_c, 0, 47, 80
2, 10886, Note_on_c, 0, 82, 61
2, 11005, Note_on_c, 0, 47, 0
2, 11015, Note_on_c, 0, 47, 71
2, 11074, Note_on_c, 0, 47, 0
2, 11082, Note_on_c, 0, 54, 0
2, 11085, Note_on_c, 0, 47, 80
2, 11087, Note_on_c, 0, 54, 73
2, 11120, Note_on_c, 0, 78, 0
2, 11124, Note_on_c, 0, 78, 95
2, 11125, Note_on_c, 0, 87, 99
2, 11125, Control_c, 0, 64, 0
2, 11126, Note_on_c, 0, 83, 95
2, 11126, Note_on_c, 0, 75, 99
2, 11131, Note_on_c, 0, 82, 0
2, 11131, Note_on_c, 0, 59, 0
2, 11132, Note_on_c, 0, 73, 0
2, 11132, Note_on_c, 0, 47, 0
2, 11132, Note_on_c, 0, 85, 0
2, 11159, Note_on_c, 0, 35, 0
2, 11162, Note_on_c, 0, 81, 47
2, 11174, Control_c, 0, 64, 127
2, 11272, Note_on_c, 0, 46, 91
2, 11275, Note_on_c, 0, 34, 91
2, 11404, Note_on_c, 0, 46, 0
2, 11410, Note_on_c, 0, 46, 66
2, 11427, Note_on_c, 0, 75, 0
2, 11427, Note_on_c, 0, 83, 0
2, 11435, Note_on_c, 0, 83, 97
2, 11438, Note_on_c, 0, 75, 87
2, 11438, Note_on_c, 0, 71, 95
2, 11441, Note_on_c, 0, 47, 78
2, 11442, Note_on_c, 0, 80, 81
2, 11450, Note_on_c, 0, 47, 0
2, 11520, Note_on_c, 0, 54, 0
2, 11524, Note_on_c, 0, 54, 70
2, 11525, Note_on_c, 0, 58, 73
2, 11582, Note_on_c, 0, 82, 93
2, 11584, Note_on_c, 0, 70, 97
2, 11719, Note_on_c, 0, 46, 0
2, 11725, Note_on_c, 0, 46, 81
2, 11735, Note_on_c, 0, 78, 0
2, 11738, Note_on_c, 0, 54, 0
2, 11739, Note_on_c, 0, 75, 0
2, 11739, Note_on_c, 0, 78, 100
2, 11742, Note_on_c, 0, 66, 98
2, 11758, Note_on_c, 0, 81, 0
2, 11861, Note_on_c, 0, 83, 0
2, 11861, Note_on_c, 0, 71, 0
2, 11861, Control_c, 0, 64, 0
2, 11862, Note_on_c, 0, 80, 0
2, 11862, Note_on_c, 0, 58, 0
2, 11862, Note_on_c, 0, 66, 0
2, 11862, Note_on_c, 0, 78, 0
2, 11862, Note_on_c, 0, 82, 0
2, 11862, Note_on_c, 0, 46, 0
2, 11863, Note_on_c, 0, 70, 0
2, 11865, Note_on_c, 0, 87, 0
2, 11880, Note_on_c, 0, 34, 0
2, 11907, Note_on_c, 0, 78, 107
2, 11908, Note_on_c, 0, 66, 97
2, 11912, Note_on_c, 0, 75, 80
2, 11914, Note_on_c, 0, 44, 87
2, 11915, Note_on_c, 0, 32, 81
2, 11942, Control_c, 0, 64, 127
2, 11980, Note_on_c, 0, 66, 0
2, 12065, Note_on_c, 0, 75, 0
2, 12069, Note_on_c, 0, 80, 94
2, 12072, Note_on_c, 0, 68, 87
2, 12073, Note_on_c, 0, 71, 82
2, 12073, Note_on_c, 0, 56, 74
2, 12075, Note_on_c, 0, 75, 81
2, 12142, Note_on_c, 0, 44, 0
2, 12142, Note_on_c, 0, 68, 0
2, 12142, Note_on_c, 0, 71, 0
2, 12142, Note_on_c, 0, 75, 0
2, 12142, Note_on_c, 0, 80, 0
2, 12147, Note_on_c, 0, 80, 87
2, 12149, Note_on_c, 0, 68, 86
2, 12150, Note_on_c, 0, 44, 75
2, 12153, Note_on_c, 0, 75, 88
2, 12153, Note_on_c, 0, 71, 77
2, 12318, Note_on_c, 0, 44, 0
2, 12329, Note_on_c, 0, 44, 82
2, 12387, Note_on_c, 0, 56, 0
2, 12399, Note_on_c, 0, 56, 81
2, 12403, Note_on_c, 0, 78, 0
2, 12406, Note_on_c, 0, 51, 73
2, 12409, Note_on_c, 0, 78, 97
2, 12414, Note_on_c, 0, 66, 95
2, 12564, Note_on_c, 0, 32, 0
2, 12564, Note_on_c, 0, 78, 0
2, 12571, Note_on_c, 0, 78, 102
2, 12572, Note_on_c, 0, 66, 0
2, 12572, Note_on_c, 0, 68, 0
2, 12575, Note_on_c, 0, 32, 82
2, 12576, Note_on_c, 0, 66, 92
2, 12580, Note_on_c, 0, 68, 82
2, 12720, Control_c, 0, 64, 0
2, 12733, Note_on_c, 0, 56, 0
2, 12733, Note_on_c, 0, 68, 0
2, 12733, Note_on_c, 0, 71, 0
2, 12733, Note_on_c, 0, 75, 0
2, 12733, Note_on_c, 0, 80, 0
2, 12737, Note_on_c, 0, 80, 89
2, 12739, Note_on_c, 0, 68, 85
2, 12740, Note_on_c, 0, 56, 78
2, 12740, Note_on_c, 0, 71, 81
2, 12742, Note_on_c, 0, 75, 83
2, 12771, Control_c, 0, 64, 127
2, 12810, Note_on_c, 0, 80, 0
2, 12815, Note_on_c, 0, 80, 94
2, 12817, Note_on_c, 0, 51, 0
2, 12817, Note_on_c, 0, 68, 0
2, 12817, Note_on_c, 0, 71, 0
2, 12817, Note_on_c, 0, 75, 0
2, 12821, Note_on_c, 0, 68, 83
2, 12822, Note_on_c, 0, 71, 79
2, 12822, Note_on_c, 0, 75, 78
2, 12825, Note_on_c, 0, 51, 67
2, 12971, Note_on_c, 0, 51, 0
2, 12979, Note_on_c, 0, 44, 0
2, 12979, Note_on_c, 0, 56, 0
2, 12982, Note_on_c, 0, 51, 68
2, 12984, Note_on_c, 0, 44, 83
2, 12985, Note_on_c, 0, 56, 72
2, 13048, Note_on_c, 0, 56, 0
2, 13056, Note_on_c, 0, 51, 0
2, 13056, Note_on_c, 0, 66, 0
2, 13056, Note_on_c, 0, 78, 0
2, 13057, Note_on_c, 0, 75, 0
2, 13058, Note_on_c, 0, 68, 0
2, 13058, Note_on_c, 0, 56, 73
2, 13060, Note_on_c, 0, 78, 96
2, 13061, Note_on_c, 0, 66, 100
2, 13062, Note_on_c, 0, 51, 69
2, 13203, Note_on_c, 0, 44, 0
2, 13204, Note_on_c, 0, 80, 0
2, 13204, Note_on_c, 0, 51, 0
2, 13204, Note_on_c, 0, 32, 0
2, 13204, Note_on_c, 0, 56, 0
2, 13205, Note_on_c, 0, 71, 0
2, 13205, Control_c, 0, 64, 0
2, 13224, Note_on_c, 0, 66, 0
2, 13224, Note_on_c, 0, 78, 0
2, 13229, Note_on_c, 0, 78, 101
2, 13231, Note_on_c, 0, 66, 92
2, 13234, Note_on_c, 0, 40, 78
2, 13236, Note_on_c, 0, 28, 86
2, 13263, Control_c, 0, 64, 127
2, 13272, Note_on_c, 0, 40, 0
2, 13301, Note_on_c, 0, 66, 0
2, 13396, Note_on_c, 0, 80, 100
2, 13397, Note_on_c, 0, 68, 91
2, 13397, Note_on_c, 0, 71, 82
2, 13399, Note_on_c, 0, 40, 65
2, 13455, Note_on_c, 0, 80, 0
2, 13463, Note_on_c, 0, 68, 0
2, 13465, Note_on_c, 0, 80, 82
2, 13467, Note_on_c, 0, 68, 88
2, 13470, Note_on_c, 0, 71, 0
2, 13476, Note_on_c, 0, 71, 83
2, 13482, Note_on_c, 0, 75, 71
2, 13570, Note_on_c, 0, 40, 0
2, 13577, Note_on_c, 0, 40, 36
2, 13632, Note_on_c, 0, 40, 0
2, 13636, Note_on_c, 0, 40, 60
2, 13707, Note_on_c, 0, 52, 66
2, 13717, Note_on_c, 0, 47, 81
2, 13724, Note_on_c, 0, 78, 0
2, 13731, Note_on_c, 0, 71, 0
2, 13734, Note_on_c, 0, 78, 94
2, 13737, Note_on_c, 0, 66, 92
2, 13739, Note_on_c, 0, 71, 69
2, 13836, Control_c, 0, 64, 0
2, 13841, Note_on_c, 0, 71, 0
2, 13841, Note_on_c, 0, 52, 0
2, 13842, Note_on_c, 0, 66, 0
2, 13842, Note_on_c, 0, 47, 0
2, 13842, Note_on_c, 0, 68, 0
2, 13842, Note_on_c, 0, 78, 0
2, 13843, Note_on_c, 0, 40, 0
2, 13862, Note_on_c, 0, 75, 0
2, 13862, Note_on_c, 0, 80, 0
2, 13877, Note_on_c, 0, 28, 0
2, 13888, Note_on_c, 0, 40, 76
2, 13888, Note_on_c, 0, 28, 84
2, 13889, Note_on_c, 0, 80, 97
2, 13889, Note_on_c, 0, 68, 92
2, 13900, Control_c, 0, 64, 127
2, 14031, Note_on_c, 0, 40, 0
2, 14040, Note_on_c, 0, 40, 70
2, 14043, Note_on_c, 0, 82, 94
2, 14045, Note_on_c, 0, 70, 99
2, 14097, Note_on_c, 0, 52, 70
2, 14200, Note_on_c, 0, 40, 0
2, 14204, Note_on_c, 0, 83, 96
2, 14208, Note_on_c, 0, 71, 91
2, 14211, Note_on_c, 0, 40, 64
2, 14307, Note_on_c, 0, 28, 0
2, 14307, Note_on_c, 0, 40, 0
2, 14311, Note_on_c, 0, 28, 75
2, 14316, Note_on_c, 0, 40, 65
2, 14346, Control_c, 0, 64, 0
2, 14358, Note_on_c, 0, 85, 97
2, 14361, Note_on_c, 0, 73, 99
2, 14367, Note_on_c, 0, 47, 63
2, 14457, Note_on_c, 0, 68, 0
2, 14457, Note_on_c, 0, 40, 0
2, 14458, Note_on_c, 0, 70, 0
2, 14458, Note_on_c, 0, 52, 0
2, 14458, Note_on_c, 0, 83, 0
2, 14458, Note_on_c, 0, 80, 0
2, 14458, Note_on_c, 0, 82, 0
2, 14458, Note_on_c, 0, 73, 0
2, 14458, Note_on_c, 0, 71, 0
2, 14459, Note_on_c, 0, 85, 0
2, 14460, Note_on_c, 0, 47, 0
2, 14476, Note_on_c, 0, 28, 0
2, 14514, Note_on_c, 0, 80, 104
2, 14522, Control_c, 0, 64, 127
2, 14523, Note_on_c, 0, 68, 95
2, 14525, Note_on_c, 0, 77, 80
2, 14528, Note_on_c, 0, 37, 80
2, 14528, Note_on_c, 0, 49, 87
2, 14684, Note_on_c, 0, 49, 0
2, 14688, Note_on_c, 0, 49, 76
2, 14745, Note_on_c, 0, 68, 0
2, 14748, Note_on_c, 0, 61, 86
2, 14749, Note_on_c, 0, 56, 78
2, 14753, Note_on_c, 0, 68, 74
2, 14922, Note_on_c, 0, 49, 0
2, 14928, Note_on_c, 0, 49, 79
2, 14999, Note_on_c, 0, 56, 0
2, 14999, Note_on_c, 0, 61, 0
2, 15009, Note_on_c, 0, 61, 82
2, 15010, Note_on_c, 0, 56, 81
2, 15125, Note_on_c, 0, 68, 0
2, 15125, Note_on_c, 0, 80, 0
2, 15125, Note_on_c, 0, 61, 0
2, 15125, Control_c, 0, 64, 0
2, 15125, Note_on_c, 0, 49, 0
2, 15126, Note_on_c, 0, 77, 0
2, 15126, Note_on_c, 0, 56, 0
2, 15144, Note_on_c, 0, 37, 0
2, 15177, Note_on_c, 0, 80, 100
2, 15179, Note_on_c, 0, 68, 103
2, 15180, Note_on_c, 0, 73, 90
2, 15185, Note_on_c, 0, 49, 90
2, 15185, Note_on_c, 0, 37, 87
2, 15192, Note_on_c, 0, 76, 70
2, 15198, Control_c, 0, 64, 127
2, 15329, Note_on_c, 0, 49, 0
2, 15340, Note_on_c, 0, 49, 77
2, 15353, Note_on_c, 0, 82, 96
2, 15356, Note_on_c, 0, 70, 97
2, 15419, Note_on_c, 0, 61, 82
2, 15422, Note_on_c, 0, 56, 67
2, 15506, Note_on_c, 0, 83, 99
2, 15509, Note_on_c, 0, 71, 92
2, 15605, Note_on_c, 0, 49, 0
2, 15610, Note_on_c, 0, 49, 74
2, 15659, Note_on_c, 0, 56, 0
2, 15659, Note_on_c, 0, 61, 0
2, 15659, Note_on_c, 0, 73, 0
2, 15663, Note_on_c, 0, 85, 95
2, 15664, Note_on_c, 0, 56, 78
2, 15666, Note_on_c, 0, 61, 69
2, 15667, Note_on_c, 0, 73, 97
2, 15761, Note_on_c, 0, 76, 0
2, 15761, Note_on_c, 0, 80, 0
2, 15761, Note_on_c, 0, 70, 0
2, 15761, Note_on_c, 0, 83, 0
2, 15762, Note_on_c, 0, 71, 0
2, 15762, Note_on_c, 0, 61, 0
2, 15762, Note_on_c, 0, 82, 0
2, 15762, Note_on_c, 0, 73, 0
2, 15763, Note_on_c, 0, 56, 0
2, 15763, Note_on_c, 0, 85, 0
2, 15763, Control_c, 0, 64, 0
2, 15774, Note_on_c, 0, 68, 0
2, 15782, Note_on_c, 0, 37, 0
2, 15782, Note_on_c, 0, 49, 0
2, 15816, Note_on_c, 0, 82, 100
2, 15818, Note_on_c, 0, 78, 89
2, 15818, Note_on_c, 0, 70, 102
2, 15824, Note_on_c, 0, 39, 83
2, 15824, Note_on_c, 0, 51, 86
2, 15828, Control_c, 0, 64, 127
2, 15966, Note_on_c, 0, 39, 0
2, 15966, Note_on_c, 0, 51, 0
2, 15971, Note_on_c, 0, 51, 78
2, 15972, Note_on_c, 0, 39, 67
2, 16040, Note_on_c, 0, 63, 73
2, 16043, Note_on_c, 0, 70, 0
2, 16048, Note_on_c, 0, 58, 76
2, 16049, Note_on_c, 0, 70, 72
2, 16135, Note_on_c, 0, 78, 0
2, 16143, Note_on_c, 0, 58, 0
2, 16143, Note_on_c, 0, 70, 0
2, 16146, Note_on_c, 0, 78, 100
2, 16147, Note_on_c, 0, 75, 87
2, 16148, Note_on_c, 0, 70, 95
2, 16148, Note_on_c, 0, 66, 91
2, 16153, Note_on_c, 0, 58, 79
2, 16273, Note_on_c, 0, 51, 0
2, 16273, Note_on_c, 0, 63, 0
2, 16281, Note_on_c, 0, 58, 0
2, 16284, Note_on_c, 0, 63, 76
2, 16284, Note_on_c, 0, 51, 73
2, 16288, Note_on_c, 0, 58, 66
2, 16424, Control_c, 0, 64, 0
2, 16427, Note_on_c, 0, 70, 0
2, 16428, Note_on_c, 0, 78, 0
2, 16428, Note_on_c, 0, 82, 0
2, 16450, Note_on_c, 0, 58, 0
2, 16458, Note_on_c, 0, 63, 0
2, 16458, Note_on_c, 0, 66, 0
2, 16458, Note_on_c, 0, 75, 0
2, 16465, Note_on_c, 0, 63, 87
2, 16465, Note_on_c, 0, 39, 0
2, 16465, Note_on_c, 0, 51, 0
2, 16467, Note_on_c, 0, 66, 88
2, 16467, Note_on_c, 0, 75, 91
2, 16472, Note_on_c, 0, 39, 78
2, 16474, Note_on_c, 0, 51, 82
2, 16476, Note_on_c, 0, 70, 74
2, 16496, Control_c, 0, 64, 127
2, 16627, Note_on_c, 0, 51, 0
2, 16634, Note_on_c, 0, 51, 67
2, 16727, Note_on_c, 0, 51, 0
2, 16727, Note_on_c, 0, 63, 0
2, 16730, Note_on_c, 0, 58, 84
2, 16732, Note_on_c, 0, 63, 65
2, 16735, Note_on_c, 0, 51, 64
2, 16779, Note_on_c, 0, 78, 99
2, 16780, Note_on_c, 0, 66, 0
2, 16780, Note_on_c, 0, 70, 0
2, 16780, Note_on_c, 0, 75, 0
2, 16784, Note_on_c, 0, 66, 95
2, 16785, Note_on_c, 0, 75, 78
2, 16785, Note_on_c, 0, 70, 89
2, 16919, Note_on_c, 0, 39, 0
2, 16926, Note_on_c, 0, 51, 0
2, 16929, Note_on_c, 0, 39, 76
2, 16934, Note_on_c, 0, 51, 65
2, 17084, Control_c, 0, 64, 0
2, 17085, Note_on_c, 0, 63, 0
2, 17086, Note_on_c, 0, 58, 0
2, 17086, Note_on_c, 0, 66, 0
2, 17087, Note_on_c, 0, 70, 0
2, 17103, Note_on_c, 0, 39, 0
2, 17103, Note_on_c, 0, 51, 0
2, 17111, Note_on_c, 0, 78, 0
2, 17118, Note_on_c, 0, 75, 0
2, 17119, Note_on_c, 0, 78, 105
2, 17120, Note_on_c, 0, 66, 103
2, 17124, Note_on_c, 0, 75, 83
2, 17125, Note_on_c, 0, 71, 86
2, 17127, Note_on_c, 0, 40, 79
2, 17131, Note_on_c, 0, 28, 83
2, 17164, Control_c, 0, 64, 127
2, 17272, Note_on_c, 0, 71, 0
2, 17272, Note_on_c, 0, 75, 0
2, 17278, Note_on_c, 0, 80, 93
2, 17282, Note_on_c, 0, 71, 82
2, 17282, Note_on_c, 0, 75, 75
2, 17283, Note_on_c, 0, 68, 87
2, 17341, Note_on_c, 0, 68, 0
2, 17341, Note_on_c, 0, 80, 0
2, 17347, Note_on_c, 0, 80, 102
2, 17349, Note_on_c, 0, 75, 0
2, 17351, Note_on_c, 0, 68, 88
2, 17359, Note_on_c, 0, 75, 76
2, 17365, Note_on_c, 0, 72, 81
2, 17372, Note_on_c, 0, 71, 0
2, 17378, Note_on_c, 0, 71, 57
2, 17383, Note_on_c, 0, 52, 63
2, 17502, Note_on_c, 0, 52, 0
2, 17506, Note_on_c, 0, 52, 71
2, 17599, Note_on_c, 0, 59, 96
2, 17602, Note_on_c, 0, 64, 70
2, 17610, Note_on_c, 0, 64, 0
2, 17610, Note_on_c, 0, 71, 0
2, 17617, Note_on_c, 0, 75, 0
2, 17617, Note_on_c, 0, 80, 0
2, 17618, Note_on_c, 0, 71, 93
2, 17618, Note_on_c, 0, 83, 98
2, 17624, Note_on_c, 0, 75, 92
2, 17624, Note_on_c, 0, 80, 69
2, 17757, Control_c, 0, 64, 0
2, 17757, Note_on_c, 0, 52, 0
2, 17757, Note_on_c, 0, 71, 0
2, 17757, Note_on_c, 0, 72, 0
2, 17758, Note_on_c, 0, 59, 0
2, 17758, Note_on_c, 0, 78, 0
2, 17758, Note_on_c, 0, 80, 0
2, 17758, Note_on_c, 0, 83, 0
2, 17759, Note_on_c, 0, 75, 0
2, 17763, Note_on_c, 0, 28, 0
2, 17763, Note_on_c, 0, 66, 0
2, 17771, Note_on_c, 0, 40, 0
2, 17771, Note_on_c, 0, 68, 0
2, 17790, Note_on_c, 0, 82, 100
2, 17790, Note_on_c, 0, 42, 85
2, 17791, Note_on_c, 0, 30, 81
2, 17793, Note_on_c, 0, 70, 106
2, 17856, Control_c, 0, 64, 127
2, 17863, Note_on_c, 0, 42, 0
2, 17950, Note_on_c, 0, 78, 100
2, 17956, Note_on_c, 0, 42, 76
2, 17958, Note_on_c, 0, 66, 91
2, 17963, Note_on_c, 0, 70, 0
2, 17968, Note_on_c, 0, 70, 65
2, 18024, Note_on_c, 0, 70, 0
2, 18031, Note_on_c, 0, 75, 100
2, 18033, Note_on_c, 0, 63, 97
2, 18036, Note_on_c, 0, 70, 77
2, 18036, Note_on_c, 0, 49, 71
2, 18208, Note_on_c, 0, 54, 76
2, 18270, Note_on_c, 0, 70, 0
2, 18270, Note_on_c, 0, 78, 0
2, 18272, Note_on_c, 0, 61, 72
2, 18274, Note_on_c, 0, 49, 0
2, 18274, Note_on_c, 0, 73, 80
2, 18279, Note_on_c, 0, 70, 79
2, 18282, Note_on_c, 0, 78, 108
2, 18286, Note_on_c, 0, 73, 0
2, 18402, Control_c, 0, 64, 0
2, 18403, Note_on_c, 0, 42, 0
2, 18404, Note_on_c, 0, 66, 0
2, 18404, Note_on_c, 0, 54, 0
2, 18404, Note_on_c, 0, 75, 0
2, 18404, Note_on_c, 0, 78, 0
2, 18404, Note_on_c, 0, 70, 0
2, 18404, Note_on_c, 0, 63, 0
2, 18416, Note_on_c, 0, 30, 0
2, 18416, Note_on_c, 0, 61, 0
2, 18416, Note_on_c, 0, 82, 0
2, 18443, Note_on_c, 0, 78, 108
2, 18444, Note_on_c, 0, 44, 91
2, 18445, Note_on_c, 0, 32, 82
2, 18446, Note_on_c, 0, 66, 100
2, 18448, Note_on_c, 0, 75, 83
2, 18485, Control_c, 0, 64, 127
2, 18603, Note_on_c, 0, 80, 98
2, 18605, Note_on_c, 0, 68, 91
2, 18605, Note_on_c, 0, 73, 85
2, 18607, Note_on_c, 0, 56, 76
2, 18670, Note_on_c, 0, 80, 0
2, 18677, Note_on_c, 0, 68, 0
2, 18680, Note_on_c, 0, 80, 98
2, 18685, Note_on_c, 0, 73, 0
2, 18685, Note_on_c, 0, 75, 0
2, 18687, Note_on_c, 0, 68, 85
2, 18689, Note_on_c, 0, 73, 88
2, 18689, Note_on_c, 0, 75, 89
2, 18690, Note_on_c, 0, 51, 67
2, 18700, Note_on_c, 0, 51, 0
2, 18854, Note_on_c, 0, 56, 0
2, 18854, Note_on_c, 0, 68, 0
2, 18864, Note_on_c, 0, 56, 74
2, 18865, Note_on_c, 0, 68, 80
2, 18939, Note_on_c, 0, 63, 65
2, 19107, Note_on_c, 0, 32, 0
2, 19107, Note_on_c, 0, 44, 0
2, 19108, Note_on_c, 0, 51, 78
2, 19118, Note_on_c, 0, 44, 88
2, 19118, Note_on_c, 0, 32, 82
2, 19276, Note_on_c, 0, 44, 0
2, 19276, Note_on_c, 0, 56, 0
2, 19287, Note_on_c, 0, 44, 80
2, 19288, Note_on_c, 0, 56, 78
2, 19345, Note_on_c, 0, 51, 0
2, 19350, Note_on_c, 0, 51, 84
2, 19353, Note_on_c, 0, 56, 0
2, 19358, Note_on_c, 0, 56, 87
2, 19522, Note_on_c, 0, 56, 0
2, 19532, Note_on_c, 0, 56, 82
2, 19584, Note_on_c, 0, 63, 0
2, 19592, Note_on_c, 0, 63, 73
2, 19752, Control_c, 0, 64, 0
2, 19759, Note_on_c, 0, 68, 0
2, 19759, Note_on_c, 0, 75, 0
2, 19759, Note_on_c, 0, 73, 0
2, 19760, Note_on_c, 0, 56, 0
2, 19760, Note_on_c, 0, 44, 0
2, 19761, Note_on_c, 0, 66, 0
2, 19761, Note_on_c, 0, 78, 0
2, 19761, Note_on_c, 0, 63, 0
2, 19768, Note_on_c, 0, 80, 0
2, 19772, Note_on_c, 0, 92, 109
2, 19773, Note_on_c, 0, 80, 101
2, 19774, Note_on_c, 0, 84, 86
2, 19779, Note_on_c, 0, 87, 89
2, 19783, Note_on_c, 0, 51, 0
2, 19822, Control_c, 0, 64, 127
2, 19848, Note_on_c, 0, 44, 78
2, 19977, Note_on_c, 0, 51, 62
2, 20025, Note_on_c, 0, 56, 71
2, 20095, Note_on_c, 0, 60, 84
2, 20171, Note_on_c, 0, 63, 73
2, 20226, Note_on_c, 0, 68, 81
2, 20313, Note_on_c, 0, 72, 85
2, 20379, Note_on_c, 0, 75, 83
2, 20413, Note_on_c, 0, 80, 0
2, 20419, Note_on_c, 0, 80, 91
2, 20497, Note_on_c, 0, 84, 0
2, 20509, Note_on_c, 0, 84, 82
2, 20574, Note_on_c, 0, 87, 0
2, 20579, Note_on_c, 0, 87, 90
2, 20731, Note_on_c, 0, 102, 112
2, 20742, Note_on_c, 0, 90, 90
2, 20897, Note_on_c, 0, 92, 0
2, 20906, Note_on_c, 0, 104, 112
2, 20908, Note_on_c, 0, 92, 104
2, 21772, Note_on_c, 0, 102, 0
2, 21795, Note_on_c, 0, 104, 0
2, 21798, Control_c, 0, 64, 0
2, 21806, Note_on_c, 0, 87, 0
2, 21806, Note_on_c, 0, 63, 0
2, 21806, Note_on_c, 0, 84, 0
2, 21806, Note_on_c, 0, 68, 0
2, 21806, Note_on_c, 0, 80, 0
2, 21806, Note_on_c, 0, 72, 0
2, 21807, Note_on_c, 0, 75, 0
2, 21807, Note_on_c, 0, 56, 0
2, 21807, Note_on_c, 0, 44, 0
2, 21808, Note_on_c, 0, 51, 0
2, 21808, Note_on_c, 0, 60, 0
2, 21818, Note_on_c, 0, 32, 0
2, 21818, Note_on_c, 0, 90, 0
2, 21826, Note_on_c, 0, 92, 0
2, 22615, Note_on_c, 0, 68, 65
2, 22648, Control_c, 0, 64, 127
2, 22656, Note_on_c, 0, 77, 66
2, 22658, Note_on_c, 0, 72, 58
2, 22659, Note_on_c, 0, 53, 57
2, 22662, Note_on_c, 0, 80, 85
2, 22740, Note_on_c, 0, 68, 0
2, 22771, Note_on_c, 0, 72, 0
2, 22838, Note_on_c, 0, 60, 64
2, 22994, Note_on_c, 0, 65, 56
2, 23152, Note_on_c, 0, 67, 61
2, 23301, Note_on_c, 0, 80, 0
2, 23309, Note_on_c, 0, 80, 83
2, 23310, Note_on_c, 0, 68, 76
2, 23475, Note_on_c, 0, 79, 89
2, 23623, Note_on_c, 0, 80, 0
2, 23628, Note_on_c, 0, 80, 88
2, 23793, Note_on_c, 0, 82, 85
2, 23953, Note_on_c, 0, 82, 0
2, 23953, Note_on_c, 0, 68, 0
2, 23953, Note_on_c, 0, 80, 0
2, 23955, Note_on_c, 0, 65, 0
2, 23955, Note_on_c, 0, 53, 0
2, 23956, Note_on_c, 0, 60, 0
2, 23956, Note_on_c, 0, 67, 0
2, 23956, Control_c, 0, 64, 0
2, 23956, Note_on_c, 0, 79, 0
2, 23956, Note_on_c, 0, 77, 0
2, 23958, Note_on_c, 0, 80, 88
2, 23959, Note_on_c, 0, 70, 79
2, 23964, Note_on_c, 0, 75, 78
2, 23965, Note_on_c, 0, 51, 67
2, 24023, Control_c, 0, 64, 127
2, 24117, Note_on_c, 0, 58, 60
2, 24296, Note_on_c, 0, 63, 57
2, 24444, Note_on_c, 0, 67, 58
2, 24614, Note_on_c, 0, 80, 0
2, 24618, Note_on_c, 0, 80, 88
2, 24618, Note_on_c, 0, 68, 77
2, 24777, Note_on_c, 0, 79, 89
2, 24913, Note_on_c, 0, 80, 0
2, 24923, Note_on_c, 0, 80, 89
2, 25082, Note_on_c, 0, 51, 0
2, 25090, Note_on_c, 0, 82, 86
2, 25232, Note_on_c, 0, 72, 72
2, 25256, Control_c, 0, 64, 0
2, 25259, Note_on_c, 0, 80, 0
2, 25262, Note_on_c, 0, 63, 0
2, 25263, Note_on_c, 0, 79, 0
2, 25263, Note_on_c, 0, 75, 0
2, 25263, Note_on_c, 0, 58, 0
2, 25263, Note_on_c, 0, 82, 0
2, 25264, Note_on_c, 0, 70, 0
2, 25264, Note_on_c, 0, 67, 0
2, 25264, Note_on_c, 0, 68, 0
2, 25265, Note_on_c, 0, 80, 82
2, 25266, Note_on_c, 0, 84, 94
2, 25270, Note_on_c, 0, 77, 84
2, 25271, Note_on_c, 0, 49, 68
2, 25351, Control_c, 0, 64, 127
2, 25433, Note_on_c, 0, 56, 61
2, 25436, Note_on_c, 0, 49, 0
2, 25577, Note_on_c, 0, 65, 66
2, 25737, Note_on_c, 0, 67, 63
2, 25881, Note_on_c, 0, 84, 0
2, 25890, Note_on_c, 0, 84, 90
2, 25893, Note_on_c, 0, 68, 82
2, 26054, Note_on_c, 0, 85, 82
2, 26219, Note_on_c, 0, 84, 0
2, 26223, Note_on_c, 0, 84, 89
2, 26364, Note_on_c, 0, 82, 77
2, 26503, Note_on_c, 0, 75, 56
2, 26505, Note_on_c, 0, 79, 74
2, 26526, Note_on_c, 0, 84, 0
2, 26532, Note_on_c, 0, 84, 98
2, 26545, Note_on_c, 0, 85, 0
2, 26546, Note_on_c, 0, 65, 0
2, 26546, Note_on_c, 0, 68, 0
2, 26546, Note_on_c, 0, 77, 0
2, 26546, Note_on_c, 0, 82, 0
2, 26547, Note_on_c, 0, 80, 0
2, 26547, Note_on_c, 0, 67, 0
2, 26547, Control_c, 0, 64, 0
2, 26548, Note_on_c, 0, 56, 0
2, 26557, Note_on_c, 0, 72, 0
2, 26558, Note_on_c, 0, 51, 75
2, 26634, Control_c, 0, 64, 127
2, 26686, Note_on_c, 0, 82, 82
2, 26703, Note_on_c, 0, 58, 72
2, 26834, Note_on_c, 0, 80, 92
2, 26853, Note_on_c, 0, 63, 61
2, 26988, Note_on_c, 0, 67, 78
2, 26989, Note_on_c, 0, 87, 93
2, 27122, Note_on_c, 0, 80, 0
2, 27123, Note_on_c, 0, 82, 0
2, 27123, Note_on_c, 0, 51, 0
2, 27123, Note_on_c, 0, 87, 0
2, 27123, Note_on_c, 0, 63, 0
2, 27123, Note_on_c, 0, 58, 0
2, 27123, Note_on_c, 0, 67, 0
2, 27123, Control_c, 0, 64, 0
2, 27133, Note_on_c, 0, 75, 0
2, 27141, Note_on_c, 0, 79, 0
2, 27156, Note_on_c, 0, 84, 0
2, 27161, Note_on_c, 0, 84, 101
2, 27167, Note_on_c, 0, 72, 97
2, 27174, Note_on_c, 0, 75, 85
2, 27178, Note_on_c, 0, 44, 81
2, 27181, Note_on_c, 0, 80, 74
2, 27183, Note_on_c, 0, 56, 75
2, 27279, Control_c, 0, 64, 127
2, 27476, Note_on_c, 0, 43, 83
2, 27476, Note_on_c, 0, 55, 83
2, 27722, Note_on_c, 0, 44, 0
2, 27723, Note_on_c, 0, 80, 0
2, 27723, Note_on_c, 0, 56, 0
2, 27723, Note_on_c, 0, 43, 0
2, 27724, Note_on_c, 0, 72, 0
2, 27724, Note_on_c, 0, 84, 0
2, 27725, Note_on_c, 0, 55, 0
2, 27727, Control_c, 0, 64, 0
2, 27797, Note_on_c, 0, 53, 84
2, 27797, Note_on_c, 0, 80, 98
2, 27798, Note_on_c, 0, 41, 85
2, 27824, Note_on_c, 0, 75, 0
2, 27840, Control_c, 0, 64, 127
2, 27968, Note_on_c, 0, 72, 77
2, 27968, Note_on_c, 0, 68, 78
2, 28047, Note_on_c, 0, 68, 0
2, 28047, Note_on_c, 0, 72, 0
2, 28057, Note_on_c, 0, 72, 96
2, 28057, Note_on_c, 0, 68, 74
2, 28066, Control_c, 0, 64, 0
2, 28101, Note_on_c, 0, 53, 0
2, 28116, Control_c, 0, 64, 127
2, 28120, Note_on_c, 0, 48, 75
2, 28122, Note_on_c, 0, 60, 78
2, 28270, Note_on_c, 0, 72, 0
2, 28277, Note_on_c, 0, 68, 0
2, 28280, Note_on_c, 0, 72, 90
2, 28282, Note_on_c, 0, 68, 76
2, 28377, Note_on_c, 0, 80, 0
2, 28388, Control_c, 0, 64, 0
2, 28390, Note_on_c, 0, 60, 0
2, 28390, Note_on_c, 0, 72, 0
2, 28390, Note_on_c, 0, 68, 0
2, 28391, Note_on_c, 0, 48, 0
2, 28400, Note_on_c, 0, 41, 0
2, 28433, Note_on_c, 0, 80, 93
2, 28434, Note_on_c, 0, 49, 84
2, 28434, Note_on_c, 0, 61, 86
2, 28462, Control_c, 0, 64, 127
2, 28584, Note_on_c, 0, 68, 88
2, 28588, Note_on_c, 0, 65, 65
2, 28594, Note_on_c, 0, 73, 63
2, 28600, Note_on_c, 0, 61, 0
2, 28606, Note_on_c, 0, 61, 53
2, 28654, Note_on_c, 0, 79, 83
2, 28746, Note_on_c, 0, 80, 0
2, 28757, Note_on_c, 0, 80, 96
2, 28892, Note_on_c, 0, 61, 0
2, 28892, Note_on_c, 0, 65, 0
2, 28892, Note_on_c, 0, 73, 0
2, 28896, Note_on_c, 0, 61, 61
2, 28896, Note_on_c, 0, 73, 77
2, 28897, Note_on_c, 0, 65, 64
2, 28899, Note_on_c, 0, 68, 0
2, 28906, Note_on_c, 0, 68, 78
2, 28913, Note_on_c, 0, 82, 91
2, 29025, Note_on_c, 0, 49, 0
2, 29025, Note_on_c, 0, 79, 0
2, 29025, Note_on_c, 0, 68, 0
2, 29025, Note_on_c, 0, 73, 0
2, 29026, Note_on_c, 0, 65, 0
2, 29026, Note_on_c, 0, 61, 0
2, 29027, Control_c, 0, 64, 0
2, 29061, Note_on_c, 0, 80, 0
2, 29066, Note_on_c, 0, 63, 77
2, 29066, Note_on_c, 0, 80, 92
2, 29071, Note_on_c, 0, 51, 83
2, 29099, Control_c, 0, 64, 127
2, 29176, Note_on_c, 0, 82, 0
2, 29230, Note_on_c, 0, 75, 75
2, 29232, Note_on_c, 0, 70, 77
2, 29314, Note_on_c, 0, 75, 0
2, 29322, Note_on_c, 0, 70, 0
2, 29325, Note_on_c, 0, 75, 60
2, 29326, Note_on_c, 0, 70, 67
2, 29394, Note_on_c, 0, 46, 80
2, 29397, Note_on_c, 0, 58, 75
2, 29544, Note_on_c, 0, 70, 0
2, 29544, Note_on_c, 0, 75, 0
2, 29550, Note_on_c, 0, 75, 79
2, 29556, Note_on_c, 0, 70, 79
2, 29666, Note_on_c, 0, 58, 0
2, 29666, Note_on_c, 0, 46, 0
2, 29667, Note_on_c, 0, 63, 0
2, 29668, Control_c, 0, 64, 0
2, 29669, Note_on_c, 0, 51, 0
2, 29690, Note_on_c, 0, 70, 0
2, 29698, Note_on_c, 0, 80, 0
2, 29709, Note_on_c, 0, 80, 92
2, 29710, Note_on_c, 0, 48, 80
2, 29710, Note_on_c, 0, 60, 83
2, 29736, Control_c, 0, 64, 127
2, 29859, Note_on_c, 0, 63, 72
2, 29861, Note_on_c, 0, 67, 69
2, 29862, Note_on_c, 0, 72, 72
2, 29936, Note_on_c, 0, 63, 0
2, 29944, Note_on_c, 0, 67, 0
2, 29944, Note_on_c, 0, 72, 0
2, 29946, Note_on_c, 0, 63, 70
2, 29948, Note_on_c, 0, 79, 87
2, 29948, Note_on_c, 0, 67, 68
2, 29952, Note_on_c, 0, 72, 70
2, 30044, Note_on_c, 0, 80, 0
2, 30052, Note_on_c, 0, 80, 95
2, 30182, Note_on_c, 0, 72, 0
2, 30190, Note_on_c, 0, 60, 0
2, 30190, Note_on_c, 0, 63, 0
2, 30192, Note_on_c, 0, 72, 80
2, 30195, Note_on_c, 0, 60, 66
2, 30196, Note_on_c, 0, 63, 71
2, 30200, Note_on_c, 0, 68, 60
2, 30205, Note_on_c, 0, 68, 0
2, 30206, Note_on_c, 0, 82, 89
2, 30321, Note_on_c, 0, 60, 0
2, 30321, Note_on_c, 0, 79, 0
2, 30322, Note_on_c, 0, 72, 0
2, 30322, Note_on_c, 0, 80, 0
2, 30322, Note_on_c, 0, 63, 0
2, 30322, Note_on_c, 0, 67, 0
2, 30322, Note_on_c, 0, 82, 0
2, 30324, Control_c, 0, 64, 0
2, 30336, Note_on_c, 0, 48, 0
2, 30336, Note_on_c, 0, 75, 0
2, 30357, Note_on_c, 0, 84, 93
2, 30361, Note_on_c, 0, 46, 89
2, 30361, Note_on_c, 0, 58, 93
2, 30397, Control_c, 0, 64, 127
2, 30420, Note_on_c, 0, 46, 0
2, 30515, Note_on_c, 0, 61, 79
2, 30516, Note_on_c, 0, 70, 86
2, 30521, Note_on_c, 0, 65, 62
2, 30597, Note_on_c, 0, 61, 0
2, 30597, Note_on_c, 0, 70, 0
2, 30608, Note_on_c, 0, 61, 75
2, 30608, Note_on_c, 0, 70, 82
2, 30620, Note_on_c, 0, 65, 0
2, 30624, Note_on_c, 0, 65, 53
2, 30691, Note_on_c, 0, 77, 95
2, 30819, Note_on_c, 0, 70, 0
2, 30827, Note_on_c, 0, 70, 82
2, 30850, Note_on_c, 0, 61, 0
2, 30850, Note_on_c, 0, 65, 0
2, 30854, Note_on_c, 0, 61, 68
2, 30856, Note_on_c, 0, 65, 41
2, 30961, Note_on_c, 0, 70, 0
2, 30961, Note_on_c, 0, 61, 0
2, 30961, Note_on_c, 0, 65, 0
2, 30961, Note_on_c, 0, 58, 0
2, 30962, Note_on_c, 0, 77, 0
2, 30962, Note_on_c, 0, 84, 0
2, 30962, Control_c, 0, 64, 0
2, 30993, Note_on_c, 0, 60, 89
2, 30993, Note_on_c, 0, 48, 83
2, 30993, Note_on_c, 0, 82, 94
2, 31034, Control_c, 0, 64, 127
2, 31130, Note_on_c, 0, 63, 76
2, 31132, Note_on_c, 0, 72, 76
2, 31133, Note_on_c, 0, 67, 74
2, 31177, Note_on_c, 0, 80, 82
2, 31226, Note_on_c, 0, 63, 0
2, 31226, Note_on_c, 0, 67, 0
2, 31226, Note_on_c, 0, 72, 0
2, 31231, Note_on_c, 0, 72, 82
2, 31231, Note_on_c, 0, 63, 65
2, 31236, Note_on_c, 0, 67, 70
2, 31281, Note_on_c, 0, 79, 90
2, 31434, Note_on_c, 0, 63, 0
2, 31441, Note_on_c, 0, 63, 63
2, 31441, Note_on_c, 0, 80, 0
2, 31450, Note_on_c, 0, 80, 89
2, 31561, Note_on_c, 0, 48, 0
2, 31562, Note_on_c, 0, 60, 0
2, 31563, Note_on_c, 0, 80, 0
2, 31563, Note_on_c, 0, 72, 0
2, 31563, Note_on_c, 0, 82, 0
2, 31563, Note_on_c, 0, 63, 0
2, 31563, Note_on_c, 0, 67, 0
2, 31568, Control_c, 0, 64, 0
2, 31587, Note_on_c, 0, 79, 0
2, 31598, Note_on_c, 0, 79, 96
2, 31623, Note_on_c, 0, 53, 77
2, 31625, Note_on_c, 0, 41, 80
2, 31641, Control_c, 0, 64, 127
2, 31787, Note_on_c, 0, 53, 0
2, 31791, Note_on_c, 0, 72, 79
2, 31792, Note_on_c, 0, 53, 69
2, 31792, Note_on_c, 0, 68, 75
2, 31793, Note_on_c, 0, 65, 66
2, 31872, Note_on_c, 0, 72, 0
2, 31879, Note_on_c, 0, 68, 0
2, 31881, Note_on_c, 0, 72, 78
2, 31889, Note_on_c, 0, 68, 68
2, 31910, Note_on_c, 0, 65, 0
2, 31915, Note_on_c, 0, 65, 41
2, 32102, Note_on_c, 0, 65, 0
2, 32103, Note_on_c, 0, 77, 96
2, 32110, Note_on_c, 0, 65, 82
2, 32117, Note_on_c, 0, 68, 0
2, 32117, Note_on_c, 0, 72, 0
2, 32124, Note_on_c, 0, 72, 61
2, 32124, Note_on_c, 0, 68, 64
2, 32198, Note_on_c, 0, 79, 0
2, 32198, Note_on_c, 0, 68, 0
2, 32198, Note_on_c, 0, 65, 0
2, 32198, Note_on_c, 0, 72, 0
2, 32199, Note_on_c, 0, 77, 0
2, 32200, Control_c, 0, 64, 0
2, 32209, Note_on_c, 0, 53, 0
2, 32217, Note_on_c, 0, 41, 0
2, 32250, Note_on_c, 0, 68, 85
2, 32251, Note_on_c, 0, 77, 94
2, 32253, Note_on_c, 0, 53, 77
2, 32271, Control_c, 0, 64, 127
2, 32344, Note_on_c, 0, 60, 70
2, 32401, Note_on_c, 0, 65, 63
2, 32486, Note_on_c, 0, 68, 0
2, 32491, Note_on_c, 0, 68, 73
2, 32567, Note_on_c, 0, 72, 77
2, 32624, Note_on_c, 0, 77, 0
2, 32635, Note_on_c, 0, 77, 83
2, 32711, Note_on_c, 0, 79, 67
2, 32712, Note_on_c, 0, 78, 60
2, 32771, Note_on_c, 0, 80, 89
2, 32866, Note_on_c, 0, 72, 0
2, 32866, Note_on_c, 0, 79, 0
2, 32866, Note_on_c, 0, 60, 0
2, 32866, Note_on_c, 0, 68, 0
2, 32866, Note_on_c, 0, 53, 0
2, 32866, Control_c, 0, 64, 0
2, 32866, Note_on_c, 0, 80, 0
2, 32866, Note_on_c, 0, 78, 0
2, 32878, Note_on_c, 0, 65, 0
2, 32893, Note_on_c, 0, 77, 0
2, 32897, Note_on_c, 0, 84, 95
2, 32898, Note_on_c, 0, 72, 94
2, 32899, Note_on_c, 0, 37, 77
2, 32899, Note_on_c, 0, 77, 84
2, 32899, Note_on_c, 0, 49, 82
2, 32931, Control_c, 0, 64, 127
2, 32934, Note_on_c, 0, 37, 0
2, 32970, Note_on_c, 0, 72, 0
2, 32970, Note_on_c, 0, 77, 0
2, 32974, Note_on_c, 0, 72, 83
2, 32980, Note_on_c, 0, 77, 76
2, 33039, Note_on_c, 0, 84, 0
2, 33047, Note_on_c, 0, 72, 0
2, 33047, Note_on_c, 0, 77, 0
2, 33049, Note_on_c, 0, 84, 98
2, 33051, Note_on_c, 0, 72, 92
2, 33055, Note_on_c, 0, 80, 84
2, 33056, Note_on_c, 0, 77, 88
2, 33056, Note_on_c, 0, 53, 74
2, 33138, Control_c, 0, 64, 0
2, 33192, Note_on_c, 0, 53, 0
2, 33216, Note_on_c, 0, 80, 0
2, 33216, Note_on_c, 0, 84, 0
2, 33223, Note_on_c, 0, 72, 0
2, 33225, Note_on_c, 0, 84, 92
2, 33227, Note_on_c, 0, 80, 86
2, 33227, Note_on_c, 0, 72, 90
2, 33231, Note_on_c, 0, 49, 0
2, 33233, Note_on_c, 0, 68, 80
2, 33240, Note_on_c, 0, 56, 73
2, 33243, Note_on_c, 0, 77, 0
2, 33277, Note_on_c, 0, 72, 0
2, 33285, Note_on_c, 0, 68, 0
2, 33285, Note_on_c, 0, 80, 0
2, 33292, Note_on_c, 0, 84, 0
2, 33354, Control_c, 0, 64, 127
2, 33376, Note_on_c, 0, 49, 78
2, 33378, Note_on_c, 0, 77, 79
2, 33380, Note_on_c, 0, 84, 78
2, 33380, Note_on_c, 0, 72, 84
2, 33438, Note_on_c, 0, 77, 0
2, 33446, Note_on_c, 0, 72, 0
2, 33446, Note_on_c, 0, 84, 0
2, 33450, Note_on_c, 0, 77, 96
2, 33450, Note_on_c, 0, 72, 95
2, 33452, Note_on_c, 0, 84, 96
2, 33456, Note_on_c, 0, 80, 93
2, 33467, Note_on_c, 0, 60, 77
2, 33468, Note_on_c, 0, 53, 68
2, 33469, Note_on_c, 0, 56, 0
2, 33480, Note_on_c, 0, 56, 68
2, 33630, Note_on_c, 0, 49, 0
2, 33640, Note_on_c, 0, 49, 69
2, 33715, Note_on_c, 0, 60, 0
2, 33715, Note_on_c, 0, 72, 0
2, 33715, Note_on_c, 0, 84, 0
2, 33723, Note_on_c, 0, 60, 71
2, 33723, Note_on_c, 0, 84, 94
2, 33725, Note_on_c, 0, 72, 98
2, 33786, Note_on_c, 0, 58, 59
2, 33838, Note_on_c, 0, 56, 0
2, 33845, Note_on_c, 0, 56, 67
2, 33872, Note_on_c, 0, 82, 90
2, 33878, Note_on_c, 0, 70, 98
2, 33899, Note_on_c, 0, 80, 0
2, 33903, Note_on_c, 0, 80, 60
2, 33907, Note_on_c, 0, 55, 66
2, 34007, Note_on_c, 0, 53, 0
2, 34012, Note_on_c, 0, 53, 75
2, 34022, Note_on_c, 0, 80, 0
2, 34029, Note_on_c, 0, 80, 88
2, 34040, Note_on_c, 0, 68, 92
2, 34140, Note_on_c, 0, 84, 0
2, 34140, Note_on_c, 0, 82, 0
2, 34140, Note_on_c, 0, 72, 0
2, 34140, Note_on_c, 0, 53, 0
2, 34140, Note_on_c, 0, 68, 0
2, 34140, Note_on_c, 0, 80, 0
2, 34140, Note_on_c, 0, 49, 0
2, 34140, Note_on_c, 0, 77, 0
2, 34140, Note_on_c, 0, 55, 0
2, 34141, Note_on_c, 0, 58, 0
2, 34141, Control_c, 0, 64, 0
2, 34141, Note_on_c, 0, 70, 0
2, 34152, Note_on_c, 0, 56, 0
2, 34152, Note_on_c, 0, 60, 0
2, 34187, Note_on_c, 0, 79, 103
2, 34195, Note_on_c, 0, 39, 84
2, 34195, Note_on_c, 0, 67, 91
2, 34201, Note_on_c, 0, 75, 85
2, 34202, Note_on_c, 0, 70, 81
2, 34207, Note_on_c, 0, 51, 80
2, 34229, Control_c, 0, 64, 127
2, 34350, Note_on_c, 0, 55, 75
2, 34483, Note_on_c, 0, 67, 0
2, 34483, Note_on_c, 0, 79, 0
2, 34490, Control_c, 0, 64, 0
2, 34492, Note_on_c, 0, 79, 96
2, 34494, Note_on_c, 0, 67, 86
2, 34500, Note_on_c, 0, 58, 76
2, 34513, Note_on_c, 0, 39, 0
2, 34544, Control_c, 0, 64, 127
2, 34652, Note_on_c, 0, 51, 0
2, 34652, Note_on_c, 0, 75, 0
2, 34652, Note_on_c, 0, 79, 0
2, 34657, Note_on_c, 0, 51, 83
2, 34658, Note_on_c, 0, 79, 83
2, 34660, Note_on_c, 0, 75, 93
2, 34662, Note_on_c, 0, 87, 95
2, 34721, Note_on_c, 0, 75, 0
2, 34728, Note_on_c, 0, 79, 0
2, 34728, Note_on_c, 0, 87, 0
2, 34731, Note_on_c, 0, 75, 93
2, 34732, Note_on_c, 0, 87, 90
2, 34735, Note_on_c, 0, 79, 95
2, 34736, Control_c, 0, 64, 0
2, 34739, Note_on_c, 0, 82, 88
2, 34749, Note_on_c, 0, 63, 78
2, 34752, Note_on_c, 0, 55, 0
2, 34752, Note_on_c, 0, 58, 0
2, 34759, Note_on_c, 0, 58, 76
2, 34759, Note_on_c, 0, 55, 71
2, 34805, Note_on_c, 0, 70, 0
2, 34851, Control_c, 0, 64, 127
2, 34936, Note_on_c, 0, 51, 0
2, 34946, Note_on_c, 0, 51, 75
2, 34974, Note_on_c, 0, 63, 0
2, 34985, Note_on_c, 0, 63, 74
2, 35082, Note_on_c, 0, 67, 0
2, 35084, Note_on_c, 0, 61, 72
2, 35175, Note_on_c, 0, 60, 87
2, 35228, Note_on_c, 0, 58, 0
2, 35237, Note_on_c, 0, 58, 76
2, 35281, Note_on_c, 0, 75, 0
2, 35281, Note_on_c, 0, 79, 0
2, 35281, Note_on_c, 0, 82, 0
2, 35281, Note_on_c, 0, 87, 0
2, 35286, Note_on_c, 0, 79, 86
2, 35286, Note_on_c, 0, 56, 82
2, 35287, Note_on_c, 0, 75, 92
2, 35290, Note_on_c, 0, 87, 92
2, 35292, Note_on_c, 0, 82, 78
2, 35293, Note_on_c, 0, 51, 0
2, 35328, Note_on_c, 0, 61, 0
2, 35380, Note_on_c, 0, 56, 0
2, 35380, Note_on_c, 0, 79, 0
2, 35381, Note_on_c, 0, 55, 0
2, 35383, Note_on_c, 0, 75, 0
2, 35383, Note_on_c, 0, 87, 0
2, 35384, Note_on_c, 0, 60, 0
2, 35384, Control_c, 0, 64, 0
2, 35389, Note_on_c, 0, 58, 0
2, 35389, Note_on_c, 0, 63, 0
2, 35397, Note_on_c, 0, 82, 0
2, 35435, Note_on_c, 0, 48, 83
2, 35438, Note_on_c, 0, 75, 96
2, 35439, Note_on_c, 0, 87, 94
2, 35441, Note_on_c, 0, 79, 80
2, 35441, Note_on_c, 0, 36, 80
2, 35442, Note_on_c, 0, 82, 80
2, 35489, Control_c, 0, 64, 127
2, 35600, Note_on_c, 0, 85, 91
2, 35605, Note_on_c, 0, 51, 75
2, 35606, Note_on_c, 0, 73, 87
2, 35612, Note_on_c, 0, 36, 0
2, 35761, Note_on_c, 0, 84, 93
2, 35764, Note_on_c, 0, 72, 90
2, 35770, Note_on_c, 0, 55, 73
2, 35904, Note_on_c, 0, 82, 0
2, 35910, Note_on_c, 0, 82, 89
2, 35914, Note_on_c, 0, 70, 94
2, 35934, Note_on_c, 0, 48, 0
2, 35938, Note_on_c, 0, 48, 64
2, 36049, Note_on_c, 0, 73, 0
2, 36049, Note_on_c, 0, 85, 0
2, 36055, Note_on_c, 0, 73, 91
2, 36057, Note_on_c, 0, 75, 0
2, 36058, Note_on_c, 0, 85, 86
2, 36061, Note_on_c, 0, 75, 74
2, 36065, Note_on_c, 0, 55, 0
2, 36069, Note_on_c, 0, 60, 81
2, 36069, Note_on_c, 0, 55, 76
2, 36126, Note_on_c, 0, 51, 0
2, 36134, Note_on_c, 0, 72, 0
2, 36134, Note_on_c, 0, 84, 0
2, 36138, Note_on_c, 0, 51, 62
2, 36144, Note_on_c, 0, 72, 81
2, 36144, Note_on_c, 0, 84, 76
2, 36180, Note_on_c, 0, 48, 0
2, 36184, Note_on_c, 0, 48, 73
2, 36200, Note_on_c, 0, 82, 0
2, 36200, Note_on_c, 0, 73, 0
2, 36200, Note_on_c, 0, 72, 0
2, 36200, Note_on_c, 0, 84, 0
2, 36201, Note_on_c, 0, 75, 0
2, 36201, Note_on_c, 0, 85, 0
2, 36202, Note_on_c, 0, 70, 0
2, 36202, Note_on_c, 0, 60, 0
2, 36202, Note_on_c, 0, 55, 0
2, 36203, Control_c, 0, 64, 0
2, 36211, Note_on_c, 0, 87, 0
2, 36218, Note_on_c, 0, 79, 0
2, 36264, Control_c, 0, 64, 127
2, 36304, Note_on_c, 0, 82, 95
2, 36307, Note_on_c, 0, 70, 102
2, 36312, Note_on_c, 0, 75, 80
2, 36314, Note_on_c, 0, 55, 76
2, 36315, Note_on_c, 0, 60, 78
2, 36472, Note_on_c, 0, 58, 74
2, 36544, Note_on_c, 0, 80, 94
2, 36547, Note_on_c, 0, 68, 92
2, 36550, Note_on_c, 0, 56, 75
2, 36579, Note_on_c, 0, 55, 0
2, 36586, Note_on_c, 0, 55, 73
2, 36682, Control_c, 0, 64, 0
2, 36683, Note_on_c, 0, 68, 0
2, 36683, Note_on_c, 0, 58, 0
2, 36683, Note_on_c, 0, 70, 0
2, 36683, Note_on_c, 0, 82, 0
2, 36683, Note_on_c, 0, 75, 0
2, 36683, Note_on_c, 0, 80, 0
2, 36683, Note_on_c, 0, 55, 0
2, 36683, Note_on_c, 0, 56, 0
2, 36684, Note_on_c, 0, 60, 0
2, 36695, Note_on_c, 0, 51, 0
2, 36702, Note_on_c, 0, 48, 0
2, 36722, Note_on_c, 0, 79, 97
2, 36722, Note_on_c, 0, 41, 85
2, 36723, Note_on_c, 0, 67, 93
2, 36727, Note_on_c, 0, 72, 85
2, 36729, Note_on_c, 0, 75, 81
2, 36779, Control_c, 0, 64, 127
2, 36896, Note_on_c, 0, 56, 68
2, 36979, Note_on_c, 0, 67, 0
2, 36979, Note_on_c, 0, 75, 0
2, 36979, Note_on_c, 0, 79, 0
2, 36985, Note_on_c, 0, 79, 96
2, 36989, Note_on_c, 0, 67, 89
2, 36990, Note_on_c, 0, 75, 69
2, 37031, Note_on_c, 0, 60, 64
2, 37189, Note_on_c, 0, 53, 65
2, 37232, Note_on_c, 0, 77, 93
2, 37236, Note_on_c, 0, 65, 87
2, 37341, Note_on_c, 0, 41, 0
2, 37343, Note_on_c, 0, 79, 0
2, 37343, Note_on_c, 0, 72, 0
2, 37343, Note_on_c, 0, 56, 0
2, 37344, Note_on_c, 0, 60, 0
2, 37344, Note_on_c, 0, 65, 0
2, 37346, Control_c, 0, 64, 0
2, 37355, Note_on_c, 0, 67, 0
2, 37363, Note_on_c, 0, 53, 0
2, 37363, Note_on_c, 0, 75, 0
2, 37374, Note_on_c, 0, 53, 69
2, 37374, Note_on_c, 0, 80, 100
2, 37376, Note_on_c, 0, 68, 95
2, 37379, Note_on_c, 0, 72, 74
2, 37401, Control_c, 0, 64, 127
2, 37443, Note_on_c, 0, 60, 71
2, 37517, Note_on_c, 0, 56, 67
2, 37578, Note_on_c, 0, 53, 0
2, 37586, Note_on_c, 0, 53, 69
2, 37685, Note_on_c, 0, 60, 0
2, 37690, Note_on_c, 0, 60, 76
2, 37716, Note_on_c, 0, 77, 0
2, 37731, Note_on_c, 0, 56, 0
2, 37737, Note_on_c, 0, 56, 71
2, 37816, Note_on_c, 0, 53, 0
2, 37823, Note_on_c, 0, 53, 64
2, 37911, Note_on_c, 0, 48, 54
2, 37972, Note_on_c, 0, 53, 0
2, 37973, Note_on_c, 0, 56, 0
2, 37973, Note_on_c, 0, 72, 0
2, 37973, Note_on_c, 0, 48, 0
2, 37973, Note_on_c, 0, 60, 0
2, 37973, Control_c, 0, 64, 0
2, 37977, Note_on_c, 0, 68, 0
2, 38000, Note_on_c, 0, 80, 0
2, 38010, Note_on_c, 0, 80, 98
2, 38018, Note_on_c, 0, 68, 88
2, 38018, Note_on_c, 0, 71, 78
2, 38019, Note_on_c, 0, 40, 70
2, 38028, Note_on_c, 0, 76, 60
2, 38077, Control_c, 0, 64, 127
2, 38169, Note_on_c, 0, 80, 0
2, 38175, Note_on_c, 0, 80, 82
2, 38179, Note_on_c, 0, 47, 71
2, 38246, Note_on_c, 0, 80, 0
2, 38256, Note_on_c, 0, 52, 76
2, 38256, Note_on_c, 0, 80, 89
2, 38315, Note_on_c, 0, 80, 0
2, 38325, Note_on_c, 0, 80, 88
2, 38358, Note_on_c, 0, 56, 79
2, 38450, Note_on_c, 0, 59, 75
2, 38476, Note_on_c, 0, 80, 0
2, 38487, Note_on_c, 0, 80, 87
2, 38510, Note_on_c, 0, 64, 78
2, 38568, Note_on_c, 0, 80, 0
2, 38578, Note_on_c, 0, 80, 78
2, 38618, Note_on_c, 0, 66, 73
2, 38668, Note_on_c, 0, 68, 0
2, 38673, Note_on_c, 0, 68, 82
2, 38737, Note_on_c, 0, 66, 0
2, 38744, Note_on_c, 0, 66, 70
2, 38814, Note_on_c, 0, 64, 0
2, 38820, Note_on_c, 0, 64, 77
2, 38860, Note_on_c, 0, 80, 0
2, 38866, Note_on_c, 0, 80, 97
2, 38876, Note_on_c, 0, 59, 0
2, 38881, Note_on_c, 0, 59, 74
2, 38945, Note_on_c, 0, 56, 0
2, 38949, Note_on_c, 0, 56, 76
2, 39019, Note_on_c, 0, 54, 66
2, 39021, Note_on_c, 0, 82, 86
2, 39091, Note_on_c, 0, 52, 0
2, 39101, Note_on_c, 0, 52, 57
2, 39168, Note_on_c, 0, 47, 0
2, 39171, Note_on_c, 0, 83, 97
2, 39172, Note_on_c, 0, 47, 72
2, 39280, Note_on_c, 0, 68, 0
2, 39280, Note_on_c, 0, 66, 0
2, 39280, Note_on_c, 0, 54, 0
2, 39280, Note_on_c, 0, 47, 0
2, 39280, Note_on_c, 0, 71, 0
2, 39280, Note_on_c, 0, 59, 0
2, 39280, Note_on_c, 0, 80, 0
2, 39281, Note_on_c, 0, 64, 0
2, 39281, Note_on_c, 0, 56, 0
2, 39281, Note_on_c, 0, 82, 0
2, 39282, Note_on_c, 0, 76, 0
2, 39282, Note_on_c, 0, 83, 0
2, 39284, Control_c, 0, 64, 0
2, 39290, Note_on_c, 0, 40, 0
2, 39298, Note_on_c, 0, 52, 0
2, 39318, Note_on_c, 0, 42, 84
2, 39320, Note_on_c, 0, 82, 94
2, 39326, Note_on_c, 0, 78, 83
2, 39331, Note_on_c, 0, 70, 92
2, 39331, Note_on_c, 0, 73, 83
2, 39398, Control_c, 0, 64, 127
2, 39472, Note_on_c, 0, 49, 65
2, 39541, Note_on_c, 0, 54, 71
2, 39628, Note_on_c, 0, 82, 0
2, 39639, Note_on_c, 0, 82, 93
2, 39650, Note_on_c, 0, 58, 80
2, 39731, Note_on_c, 0, 61, 71
2, 39790, Note_on_c, 0, 78, 0
2, 39794, Note_on_c, 0, 66, 84
2, 39794, Note_on_c, 0, 78, 89
2, 39874, Note_on_c, 0, 78, 0
2, 39881, Note_on_c, 0, 78, 104
2, 39885, Note_on_c, 0, 68, 76
2, 39951, Note_on_c, 0, 70, 0
2, 39956, Note_on_c, 0, 70, 80
2, 40012, Note_on_c, 0, 68, 0
2, 40022, Note_on_c, 0, 68, 82
2, 40104, Note_on_c, 0, 66, 0
2, 40110, Note_on_c, 0, 66, 85
2, 40189, Note_on_c, 0, 61, 0
2, 40195, Note_on_c, 0, 61, 70
2, 40250, Note_on_c, 0, 58, 0
2, 40256, Note_on_c, 0, 58, 73
2, 40321, Note_on_c, 0, 56, 72
2, 40389, Note_on_c, 0, 78, 0
2, 40400, Note_on_c, 0, 78, 100
2, 40421, Note_on_c, 0, 51, 76
2, 40477, Note_on_c, 0, 44, 70
2, 40577, Note_on_c, 0, 78, 0
2, 40577, Note_on_c, 0, 56, 0
2, 40577, Note_on_c, 0, 54, 0
2, 40577, Control_c, 0, 64, 0
2, 40577, Note_on_c, 0, 49, 0
2, 40577, Note_on_c, 0, 70, 0
2, 40577, Note_on_c, 0, 66, 0
2, 40577, Note_on_c, 0, 58, 0
2, 40577, Note_on_c, 0, 82, 0
2, 40577, Note_on_c, 0, 61, 0
2, 40578, Note_on_c, 0, 51, 0
2, 40579, Note_on_c, 0, 44, 0
2, 40579, Note_on_c, 0, 42, 0
2, 40583, Note_on_c, 0, 77, 100
2, 40586, Note_on_c, 0, 65, 87
2, 40588, Note_on_c, 0, 68, 0
2, 40588, Note_on_c, 0, 73, 0
2, 40593, Note_on_c, 0, 37, 81
2, 40594, Note_on_c, 0, 73, 76
2, 40594, Note_on_c, 0, 68, 82
2, 40704, Control_c, 0, 64, 127
2, 40752, Note_on_c, 0, 44, 74
2, 40807, Note_on_c, 0, 49, 76
2, 40900, Note_on_c, 0, 53, 77
2, 40903, Note_on_c, 0, 77, 0
2, 40908, Note_on_c, 0, 77, 91
2, 40998, Note_on_c, 0, 56, 69
2, 41049, Note_on_c, 0, 61, 78
2, 41070, Note_on_c, 0, 75, 79
2, 41141, Note_on_c, 0, 77, 0
2, 41149, Note_on_c, 0, 63, 67
2, 41152, Note_on_c, 0, 77, 93
2, 41157, Note_on_c, 0, 63, 0
2, 41218, Note_on_c, 0, 65, 0
2, 41228, Note_on_c, 0, 65, 78
2, 41285, Note_on_c, 0, 63, 59
2, 41364, Note_on_c, 0, 61, 0
2, 41364, Note_on_c, 0, 77, 0
2, 41374, Note_on_c, 0, 61, 84
2, 41375, Note_on_c, 0, 77, 96
2, 41441, Note_on_c, 0, 56, 0
2, 41448, Note_on_c, 0, 56, 71
2, 41510, Note_on_c, 0, 53, 0
2, 41515, Note_on_c, 0, 53, 71
2, 41524, Note_on_c, 0, 79, 97
2, 41582, Note_on_c, 0, 51, 69
2, 41679, Note_on_c, 0, 49, 0
2, 41688, Note_on_c, 0, 49, 67
2, 41690, Note_on_c, 0, 80, 94
2, 41740, Note_on_c, 0, 44, 0
2, 41744, Note_on_c, 0, 44, 77
2, 41805, Control_c, 0, 64, 0
2, 41806, Note_on_c, 0, 79, 0
2, 41806, Note_on_c, 0, 80, 0
2, 41806, Note_on_c, 0, 65, 0
2, 41806, Note_on_c, 0, 49, 0
2, 41806, Note_on_c, 0, 77, 0
2, 41806, Note_on_c, 0, 68, 0
2, 41806, Note_on_c, 0, 51, 0
2, 41806, Note_on_c, 0, 56, 0
2, 41806, Note_on_c, 0, 61, 0
2, 41806, Note_on_c, 0, 73, 0
2, 41806, Note_on_c, 0, 75, 0
2, 41807, Note_on_c, 0, 63, 0
2, 41807, Note_on_c, 0, 53, 0
2, 41807, Note_on_c, 0, 44, 0
2, 41817, Note_on_c, 0, 37, 0
2, 41859, Note_on_c, 0, 80, 103
2, 41862, Note_on_c, 0, 39, 80
2, 41866, Note_on_c, 0, 70, 91
2, 41867, Note_on_c, 0, 75, 89
2, 41902, Control_c, 0, 64, 127
2, 41943, Note_on_c, 0, 46, 71
2, 41989, Note_on_c, 0, 51, 80
2, 42066, Note_on_c, 0, 55, 77
2, 42150, Note_on_c, 0, 58, 71
2, 42209, Note_on_c, 0, 51, 0
2, 42213, Note_on_c, 0, 51, 63
2, 42270, Note_on_c, 0, 55, 0
2, 42280, Note_on_c, 0, 55, 70
2, 42339, Note_on_c, 0, 58, 0
2, 42347, Note_on_c, 0, 58, 77
2, 42366, Note_on_c, 0, 79, 88
2, 42389, Note_on_c, 0, 63, 80
2, 42446, Note_on_c, 0, 77, 84
2, 42501, Note_on_c, 0, 55, 0
2, 42501, Note_on_c, 0, 79, 0
2, 42504, Control_c, 0, 64, 0
2, 42504, Note_on_c, 0, 80, 0
2, 42505, Note_on_c, 0, 46, 0
2, 42505, Note_on_c, 0, 39, 0
2, 42505, Note_on_c, 0, 63, 0
2, 42505, Note_on_c, 0, 51, 0
2, 42505, Note_on_c, 0, 58, 0
2, 42506, Note_on_c, 0, 75, 0
2, 42506, Note_on_c, 0, 70, 0
2, 42507, Note_on_c, 0, 79, 103
2, 42508, Note_on_c, 0, 77, 0
2, 42509, Note_on_c, 0, 55, 88
2, 42593, Note_on_c, 0, 58, 76
2, 42593, Control_c, 0, 64, 127
2, 42650, Note_on_c, 0, 63, 74
2, 42734, Note_on_c, 0, 67, 76
2, 42816, Note_on_c, 0, 58, 0
2, 42823, Note_on_c, 0, 58, 89
2, 42824, Note_on_c, 0, 75, 96
2, 42869, Note_on_c, 0, 63, 0
2, 42880, Note_on_c, 0, 63, 48
2, 42900, Note_on_c, 0, 79, 0
2, 42908, Note_on_c, 0, 79, 88
2, 42938, Note_on_c, 0, 67, 0
2, 42943, Note_on_c, 0, 67, 72
2, 42969, Note_on_c, 0, 82, 85
2, 43004, Note_on_c, 0, 70, 91
2, 43008, Note_on_c, 0, 67, 0
2, 43018, Note_on_c, 0, 67, 64
2, 43034, Note_on_c, 0, 87, 90
2, 43118, Note_on_c, 0, 55, 0
2, 43119, Note_on_c, 0, 82, 0
2, 43119, Note_on_c, 0, 79, 0
2, 43119, Note_on_c, 0, 58, 0
2, 43119, Note_on_c, 0, 75, 0
2, 43123, Control_c, 0, 64, 0
2, 43130, Note_on_c, 0, 63, 0
2, 43138, Note_on_c, 0, 67, 0
2, 43138, Note_on_c, 0, 70, 0
2, 43141, Note_on_c, 0, 63, 83
2, 43144, Note_on_c, 0, 99, 110
2, 43145, Note_on_c, 0, 70, 97
2, 43149, Note_on_c, 0, 67, 79
2, 43165, Note_on_c, 0, 97, 65
2, 43215, Control_c, 0, 64, 127
2, 43325, Control_c, 0, 64, 0
2, 43330, Note_on_c, 0, 87, 0
2, 43332, Note_on_c, 0, 63, 0
2, 43332, Note_on_c, 0, 67, 0
2, 43332, Note_on_c, 0, 70, 0
2, 43393, Note_on_c, 0, 100, 109
2, 43399, Note_on_c, 0, 76, 98
2, 43402, Note_on_c, 0, 67, 85
2, 43405, Note_on_c, 0, 70, 81
2, 43407, Control_c, 0, 64, 127
2, 43476, Note_on_c, 0, 97, 0
2, 43538, Control_c, 0, 64, 0
2, 43630, Note_on_c, 0, 99, 0
2, 43637, Note_on_c, 0, 99, 112
2, 43645, Note_on_c, 0, 67, 0
2, 43645, Note_on_c, 0, 70, 0
2, 43649, Note_on_c, 0, 87, 96
2, 43650, Note_on_c, 0, 75, 99
2, 43650, Note_on_c, 0, 70, 89
2, 43654, Note_on_c, 0, 67, 82
2, 43660, Control_c, 0, 64, 127
2, 43841, Note_on_c, 0, 70, 0
2, 43841, Note_on_c, 0, 67, 0
2, 43842, Note_on_c, 0, 99, 0
2, 43842, Note_on_c, 0, 75, 0
2, 43844, Note_on_c, 0, 87, 0
2, 43848, Control_c, 0, 64, 0
2, 43860, Note_on_c, 0, 100, 0
2, 43875, Note_on_c, 0, 76, 0
2, 44002, Note_on_c, 0, 75, 93
2, 44003, Note_on_c, 0, 84, 99
2, 44004, Note_on_c, 0, 71, 92
2, 44004, Note_on_c, 0, 80, 93
2, 44037, Control_c, 0, 64, 127
2, 44164, Note_on_c, 0, 82, 91
2, 44170, Note_on_c, 0, 70, 98
2, 44221, Note_on_c, 0, 71, 0
2, 44321, Note_on_c, 0, 70, 0
2, 44323, Note_on_c, 0, 78, 98
2, 44326, Note_on_c, 0, 70, 76
2, 44326, Note_on_c, 0, 66, 97
2, 44474, Note_on_c, 0, 66, 0
2, 44474, Note_on_c, 0, 75, 0
2, 44474, Note_on_c, 0, 78, 0
2, 44478, Note_on_c, 0, 78, 105
2, 44480, Note_on_c, 0, 66, 101
2, 44481, Note_on_c, 0, 44, 85
2, 44482, Note_on_c, 0, 75, 76
2, 44484, Note_on_c, 0, 32, 77
2, 44486, Note_on_c, 0, 71, 71
2, 44643, Note_on_c, 0, 80, 0
2, 44651, Note_on_c, 0, 71, 0
2, 44651, Note_on_c, 0, 75, 0
2, 44654, Note_on_c, 0, 80, 81
2, 44655, Note_on_c, 0, 71, 66
2, 44655, Note_on_c, 0, 75, 64
2, 44655, Note_on_c, 0, 56, 68
2, 44705, Note_on_c, 0, 80, 0
2, 44712, Note_on_c, 0, 44, 0
2, 44712, Note_on_c, 0, 56, 0
2, 44713, Note_on_c, 0, 80, 100
2, 44716, Note_on_c, 0, 68, 96
2, 44717, Note_on_c, 0, 56, 76
2, 44718, Note_on_c, 0, 44, 80
2, 44728, Note_on_c, 0, 71, 0
2, 44734, Note_on_c, 0, 71, 56
2, 44897, Note_on_c, 0, 44, 0
2, 44897, Note_on_c, 0, 56, 0
2, 44903, Note_on_c, 0, 56, 64
2, 44904, Note_on_c, 0, 44, 70
2, 44951, Note_on_c, 0, 44, 0
2, 44951, Note_on_c, 0, 56, 0
2, 44961, Note_on_c, 0, 56, 61
2, 44961, Note_on_c, 0, 44, 66
2, 44981, Note_on_c, 0, 78, 0
2, 44989, Note_on_c, 0, 66, 0
2, 44990, Note_on_c, 0, 75, 0
2, 44990, Note_on_c, 0, 78, 93
2, 44994, Note_on_c, 0, 66, 94
2, 45108, Note_on_c, 0, 71, 0
2, 45108, Note_on_c, 0, 68, 0
2, 45108, Note_on_c, 0, 66, 0
2, 45108, Note_on_c, 0, 56, 0
2, 45108, Note_on_c, 0, 78, 0
2, 45108, Note_on_c, 0, 80, 0
2, 45111, Control_c, 0, 64, 0
2, 45120, Note_on_c, 0, 84, 0
2, 45127, Note_on_c, 0, 44, 0
2, 45127, Note_on_c, 0, 70, 0
2, 45127, Note_on_c, 0, 82, 0
2, 45150, Note_on_c, 0, 32, 0
2, 45155, Note_on_c, 0, 78, 105
2, 45159, Note_on_c, 0, 32, 78
2, 45160, Note_on_c, 0, 66, 98
2, 45160, Note_on_c, 0, 44, 85
2, 45166, Control_c, 0, 64, 127
2, 45318, Note_on_c, 0, 80, 91
2, 45322, Note_on_c, 0, 56, 74
2, 45322, Note_on_c, 0, 71, 79
2, 45322, Note_on_c, 0, 68, 80
2, 45323, Note_on_c, 0, 75, 76
2, 45381, Note_on_c, 0, 80, 0
2, 45387, Note_on_c, 0, 80, 90
2, 45388, Note_on_c, 0, 75, 0
2, 45396, Note_on_c, 0, 56, 0
2, 45396, Note_on_c, 0, 71, 0
2, 45398, Note_on_c, 0, 75, 80
2, 45400, Note_on_c, 0, 56, 74
2, 45400, Note_on_c, 0, 71, 79
2, 45402, Note_on_c, 0, 51, 63
2, 45557, Note_on_c, 0, 44, 0
2, 45563, Note_on_c, 0, 44, 70
2, 45634, Note_on_c, 0, 78, 0
2, 45642, Note_on_c, 0, 51, 0
2, 45642, Note_on_c, 0, 66, 0
2, 45644, Note_on_c, 0, 78, 96
2, 45646, Note_on_c, 0, 51, 67
2, 45646, Note_on_c, 0, 66, 93
2, 45768, Control_c, 0, 64, 0
2, 45769, Note_on_c, 0, 66, 0
2, 45769, Note_on_c, 0, 80, 0
2, 45769, Note_on_c, 0, 75, 0
2, 45769, Note_on_c, 0, 71, 0
2, 45769, Note_on_c, 0, 78, 0
2, 45769, Note_on_c, 0, 56, 0
2, 45770, Note_on_c, 0, 51, 0
2, 45780, Note_on_c, 0, 32, 0
2, 45780, Note_on_c, 0, 44, 0
2, 45780, Note_on_c, 0, 68, 0
2, 45811, Note_on_c, 0, 78, 106
2, 45813, Note_on_c, 0, 40, 72
2, 45814, Note_on_c, 0, 28, 81
2, 45815, Note_on_c, 0, 66, 97
2, 45826, Control_c, 0, 64, 127
2, 45972, Note_on_c, 0, 40, 0
2, 45976, Note_on_c, 0, 80, 92
2, 45979, Note_on_c, 0, 71, 83
2, 45980, Note_on_c, 0, 68, 82
2, 45980, Note_on_c, 0, 40, 64
2, 46049, Note_on_c, 0, 68, 0
2, 46054, Note_on_c, 0, 68, 97
2, 46056, Note_on_c, 0, 71, 0
2, 46060, Note_on_c, 0, 75, 72
2, 46067, Note_on_c, 0, 71, 74
2, 46075, Note_on_c, 0, 47, 65
2, 46210, Note_on_c, 0, 40, 0
2, 46221, Note_on_c, 0, 40, 60
2, 46287, Note_on_c, 0, 78, 0
2, 46295, Note_on_c, 0, 47, 0
2, 46295, Note_on_c, 0, 66, 0
2, 46298, Note_on_c, 0, 78, 91
2, 46299, Note_on_c, 0, 66, 97
2, 46299, Note_on_c, 0, 47, 75
2, 46406, Note_on_c, 0, 66, 0
2, 46406, Note_on_c, 0, 80, 0
2, 46406, Note_on_c, 0, 47, 0
2, 46406, Note_on_c, 0, 71, 0
2, 46406, Note_on_c, 0, 68, 0
2, 46407, Note_on_c, 0, 40, 0
2, 46407, Note_on_c, 0, 78, 0
2, 46408, Control_c, 0, 64, 0
2, 46417, Note_on_c, 0, 75, 0
2, 46440, Note_on_c, 0, 28, 0
2, 46460, Note_on_c, 0, 68, 99
2, 46462, Note_on_c, 0, 80, 94
2, 46464, Note_on_c, 0, 71, 83
2, 46464, Note_on_c, 0, 75, 84
2, 46471, Control_c, 0, 64, 127
2, 46475, Note_on_c, 0, 40, 63
2, 46609, Note_on_c, 0, 40, 0
2, 46616, Note_on_c, 0, 38, 73
2, 46620, Note_on_c, 0, 40, 67
2, 46621, Note_on_c, 0, 82, 94
2, 46621, Note_on_c, 0, 70, 96
2, 46692, Note_on_c, 0, 52, 65
2, 46693, Note_on_c, 0, 47, 64
2, 46778, Note_on_c, 0, 71, 0
2, 46784, Note_on_c, 0, 83, 96
2, 46787, Note_on_c, 0, 71, 95
2, 46901, Note_on_c, 0, 40, 0
2, 46906, Note_on_c, 0, 40, 71
2, 46908, Note_on_c, 0, 28, 78
2, 46950, Note_on_c, 0, 85, 96
2, 46953, Note_on_c, 0, 73, 98
2, 47020, Note_on_c, 0, 68, 0
2, 47021, Note_on_c, 0, 80, 0
2, 47021, Note_on_c, 0, 71, 0
2, 47021, Note_on_c, 0, 70, 0
2, 47022, Control_c, 0, 64, 0
2, 47022, Note_on_c, 0, 82, 0
2, 47022, Note_on_c, 0, 40, 0
2, 47022, Note_on_c, 0, 83, 0
2, 47023, Note_on_c, 0, 38, 0
2, 47023, Note_on_c, 0, 47, 0
2, 47024, Note_on_c, 0, 73, 0
2, 47024, Note_on_c, 0, 75, 0
2, 47024, Note_on_c, 0, 85, 0
2, 47040, Note_on_c, 0, 28, 0
2, 47040, Note_on_c, 0, 52, 0
2, 47097, Note_on_c, 0, 82, 101
2, 47103, Note_on_c, 0, 78, 85
2, 47104, Note_on_c, 0, 73, 85
2, 47105, Note_on_c, 0, 70, 101
2, 47106, Note_on_c, 0, 42, 84
2, 47107, Note_on_c, 0, 30, 87
2, 47109, Control_c, 0, 64, 127
2, 47262, Note_on_c, 0, 42, 0
2, 47271, Note_on_c, 0, 42, 66
2, 47375, Note_on_c, 0, 49, 68
2, 47415, Control_c, 0, 64, 0
2, 47424, Note_on_c, 0, 70, 0
2, 47424, Note_on_c, 0, 73, 0
2, 47424, Note_on_c, 0, 78, 0
2, 47428, Note_on_c, 0, 78, 94
2, 47429, Note_on_c, 0, 73, 95
2, 47429, Note_on_c, 0, 66, 97
2, 47429, Note_on_c, 0, 70, 89
2, 47432, Note_on_c, 0, 54, 84
2, 47454, Control_c, 0, 64, 127
2, 47531, Note_on_c, 0, 49, 0
2, 47539, Note_on_c, 0, 49, 64
2, 47585, Note_on_c, 0, 42, 0
2, 47594, Note_on_c, 0, 42, 78
2, 47718, Note_on_c, 0, 54, 0
2, 47718, Note_on_c, 0, 66, 0
2, 47718, Note_on_c, 0, 73, 0
2, 47718, Note_on_c, 0, 49, 0
2, 47719, Note_on_c, 0, 70, 0
2, 47719, Control_c, 0, 64, 0
2, 47719, Note_on_c, 0, 78, 0
2, 47738, Note_on_c, 0, 42, 0
2, 47738, Note_on_c, 0, 82, 0
2, 47743, Note_on_c, 0, 88, 100
2, 47746, Note_on_c, 0, 30, 0
2, 47748, Note_on_c, 0, 76, 103
2, 47750, Note_on_c, 0, 78, 87
2, 47750, Note_on_c, 0, 42, 88
2, 47751, Note_on_c, 0, 30, 87
2, 47756, Note_on_c, 0, 82, 76
2, 47792, Control_c, 0, 64, 127
2, 47900, Note_on_c, 0, 42, 0
2, 47906, Note_on_c, 0, 42, 72
2, 48003, Note_on_c, 0, 49, 59
2, 48061, Note_on_c, 0, 42, 0
2, 48061, Note_on_c, 0, 78, 0
2, 48065, Note_on_c, 0, 54, 77
2, 48067, Note_on_c, 0, 42, 69
2, 48069, Note_on_c, 0, 82, 0
2, 48070, Note_on_c, 0, 85, 97
2, 48071, Note_on_c, 0, 73, 95
2, 48072, Note_on_c, 0, 78, 85
2, 48076, Note_on_c, 0, 30, 0
2, 48077, Note_on_c, 0, 82, 78
2, 48138, Note_on_c, 0, 49, 0
2, 48147, Note_on_c, 0, 49, 76
2, 48184, Note_on_c, 0, 42, 0
2, 48194, Note_on_c, 0, 42, 59
2, 48307, Note_on_c, 0, 42, 0
2, 48314, Note_on_c, 0, 42, 56
2, 48322, Control_c, 0, 64, 0
2, 48326, Note_on_c, 0, 73, 0
2, 48326, Note_on_c, 0, 49, 0
2, 48326, Note_on_c, 0, 78, 0
2, 48326, Note_on_c, 0, 54, 0
2, 48326, Note_on_c, 0, 82, 0
2, 48326, Note_on_c, 0, 76, 0
2, 48326, Note_on_c, 0, 85, 0
2, 48326, Note_on_c, 0, 88, 0
2, 48353, Note_on_c, 0, 42, 0
2, 48388, Note_on_c, 0, 85, 96
2, 48388, Note_on_c, 0, 78, 94
2, 48388, Note_on_c, 0, 73, 98
2, 48391, Note_on_c, 0, 47, 86
2, 48394, Note_on_c, 0, 82, 83
2, 48394, Note_on_c, 0, 35, 75
2, 48407, Control_c, 0, 64, 127
2, 48545, Note_on_c, 0, 47, 0
2, 48555, Note_on_c, 0, 47, 75
2, 48622, Note_on_c, 0, 73, 0
2, 48622, Note_on_c, 0, 85, 0
2, 48629, Note_on_c, 0, 78, 0
2, 48631, Note_on_c, 0, 85, 95
2, 48632, Note_on_c, 0, 73, 90
2, 48634, Note_on_c, 0, 78, 84
2, 48634, Note_on_c, 0, 54, 74
2, 48641, Note_on_c, 0, 59, 72
2, 48775, Note_on_c, 0, 47, 0
2, 48782, Note_on_c, 0, 47, 68
2, 48856, Control_c, 0, 64, 0
2, 48867, Note_on_c, 0, 54, 0
2, 48867, Note_on_c, 0, 59, 0
2, 48873, Note_on_c, 0, 54, 74
2, 48875, Note_on_c, 0, 78, 0
2, 48878, Note_on_c, 0, 59, 84
2, 48880, Note_on_c, 0, 78, 89
2, 48880, Note_on_c, 0, 47, 0
2, 48883, Note_on_c, 0, 75, 102
2, 48883, Note_on_c, 0, 82, 0
2, 48884, Note_on_c, 0, 83, 92
2, 48885, Note_on_c, 0, 87, 99
2, 48913, Control_c, 0, 64, 127
2, 48929, Note_on_c, 0, 35, 0
2, 49033, Note_on_c, 0, 46, 89
2, 49035, Note_on_c, 0, 34, 84
2, 49059, Note_on_c, 0, 59, 0
2, 49198, Note_on_c, 0, 46, 0
2, 49198, Note_on_c, 0, 73, 0
2, 49198, Note_on_c, 0, 83, 0
2, 49203, Note_on_c, 0, 83, 97
2, 49205, Control_c, 0, 64, 0
2, 49205, Note_on_c, 0, 75, 0
2, 49208, Note_on_c, 0, 46, 77
2, 49209, Note_on_c, 0, 71, 91
2, 49209, Note_on_c, 0, 75, 87
2, 49209, Note_on_c, 0, 80, 84
2, 49213, Note_on_c, 0, 85, 0
2, 49228, Note_on_c, 0, 87, 0
2, 49244, Control_c, 0, 64, 127
2, 49267, Note_on_c, 0, 54, 0
2, 49278, Note_on_c, 0, 54, 55
2, 49285, Note_on_c, 0, 58, 70
2, 49377, Note_on_c, 0, 82, 88
2, 49379, Note_on_c, 0, 70, 97
2, 49390, Note_on_c, 0, 34, 0
2, 49497, Note_on_c, 0, 58, 0
2, 49508, Note_on_c, 0, 58, 81
2, 49512, Note_on_c, 0, 46, 0
2, 49517, Note_on_c, 0, 46, 81
2, 49520, Note_on_c, 0, 54, 0
2, 49520, Note_on_c, 0, 78, 0
2, 49523, Note_on_c, 0, 74, 72
2, 49527, Note_on_c, 0, 54, 71
2, 49531, Note_on_c, 0, 78, 95
2, 49535, Note_on_c, 0, 66, 98
2, 49623, Note_on_c, 0, 71, 0
2, 49623, Note_on_c, 0, 46, 0
2, 49623, Note_on_c, 0, 58, 0
2, 49623, Note_on_c, 0, 82, 0
2, 49623, Note_on_c, 0, 54, 0
2, 49623, Note_on_c, 0, 80, 0
2, 49624, Control_c, 0, 64, 0
2, 49624, Note_on_c, 0, 70, 0
2, 49624, Note_on_c, 0, 74, 0
2, 49624, Note_on_c, 0, 75, 0
2, 49624, Note_on_c, 0, 66, 0
2, 49625, Note_on_c, 0, 78, 0
2, 49635, Note_on_c, 0, 83, 0
2, 49686, Note_on_c, 0, 78, 106
2, 49691, Note_on_c, 0, 66, 100
2, 49692, Note_on_c, 0, 44, 88
2, 49692, Note_on_c, 0, 32, 77
2, 49704, Control_c, 0, 64, 127
2, 49848, Note_on_c, 0, 80, 97
2, 49854, Note_on_c, 0, 68, 91
2, 49855, Note_on_c, 0, 71, 77
2, 49855, Note_on_c, 0, 75, 76
2, 49855, Note_on_c, 0, 56, 75
2, 49920, Note_on_c, 0, 80, 0
2, 49925, Note_on_c, 0, 80, 84
2, 49927, Note_on_c, 0, 56, 0
2, 49927, Note_on_c, 0, 68, 0
2, 49927, Note_on_c, 0, 71, 0
2, 49927, Note_on_c, 0, 75, 0
2, 49932, Note_on_c, 0, 68, 86
2, 49933, Note_on_c, 0, 56, 76
2, 49936, Note_on_c, 0, 71, 86
2, 49936, Note_on_c, 0, 75, 83
2, 49956, Note_on_c, 0, 59, 55
2, 50112, Note_on_c, 0, 44, 0
2, 50121, Note_on_c, 0, 44, 76
2, 50173, Note_on_c, 0, 56, 0
2, 50173, Note_on_c, 0, 66, 0
2, 50173, Note_on_c, 0, 78, 0
2, 50178, Note_on_c, 0, 66, 95
2, 50179, Note_on_c, 0, 56, 75
2, 50179, Note_on_c, 0, 68, 0
2, 50179, Note_on_c, 0, 78, 92
2, 50185, Note_on_c, 0, 51, 56
2, 50313, Note_on_c, 0, 80, 0
2, 50314, Note_on_c, 0, 71, 0
2, 50315, Control_c, 0, 64, 0
2, 50316, Note_on_c, 0, 56, 0
2, 50319, Note_on_c, 0, 59, 0
2, 50320, Note_on_c, 0, 32, 0
2, 50327, Note_on_c, 0, 44, 0
2, 50342, Note_on_c, 0, 66, 0
2, 50342, Note_on_c, 0, 78, 0
2, 50346, Note_on_c, 0, 78, 102
2, 50347, Note_on_c, 0, 66, 94
2, 50349, Note_on_c, 0, 44, 87
2, 50352, Note_on_c, 0, 32, 71
2, 50357, Note_on_c, 0, 51, 0
2, 50357, Control_c, 0, 64, 127
2, 50505, Control_c, 0, 64, 0
2, 50509, Note_on_c, 0, 80, 99
2, 50511, Note_on_c, 0, 44, 0
2, 50511, Note_on_c, 0, 75, 0
2, 50514, Note_on_c, 0, 56, 75
2, 50514, Note_on_c, 0, 71, 80
2, 50515, Note_on_c, 0, 68, 83
2, 50515, Note_on_c, 0, 44, 71
2, 50518, Note_on_c, 0, 75, 79
2, 50526, Note_on_c, 0, 32, 0
2, 50534, Control_c, 0, 64, 127
2, 50580, Note_on_c, 0, 68, 0
2, 50580, Note_on_c, 0, 80, 0
2, 50584, Note_on_c, 0, 80, 88
2, 50589, Note_on_c, 0, 68, 86
2, 50595, Note_on_c, 0, 44, 0
2, 50595, Note_on_c, 0, 75, 0
2, 50600, Note_on_c, 0, 44, 72
2, 50603, Note_on_c, 0, 56, 0
2, 50606, Note_on_c, 0, 75, 70
2, 50607, Note_on_c, 0, 56, 65
2, 50757, Note_on_c, 0, 44, 0
2, 50757, Note_on_c, 0, 75, 0
2, 50764, Note_on_c, 0, 44, 75
2, 50767, Note_on_c, 0, 75, 64
2, 50810, Note_on_c, 0, 56, 0
2, 50815, Note_on_c, 0, 68, 0
2, 50818, Note_on_c, 0, 56, 82
2, 50833, Note_on_c, 0, 66, 0
2, 50833, Note_on_c, 0, 78, 0
2, 50838, Note_on_c, 0, 51, 63
2, 50842, Note_on_c, 0, 78, 91
2, 50844, Note_on_c, 0, 66, 94
2, 50969, Control_c, 0, 64, 0
2, 50974, Note_on_c, 0, 80, 0
2, 50974, Note_on_c, 0, 51, 0
2, 50974, Note_on_c, 0, 66, 0
2, 50974, Note_on_c, 0, 75, 0
2, 50974, Note_on_c, 0, 44, 0
2, 50974, Note_on_c, 0, 56, 0
2, 50974, Note_on_c, 0, 78, 0
2, 50987, Note_on_c, 0, 71, 0
2, 51011, Note_on_c, 0, 40, 82
2, 51013, Note_on_c, 0, 78, 101
2, 51013, Note_on_c, 0, 66, 103
2, 51014, Note_on_c, 0, 28, 91
2, 51064, Control_c, 0, 64, 127
2, 51171, Note_on_c, 0, 40, 0
2, 51173, Note_on_c, 0, 80, 96
2, 51178, Note_on_c, 0, 40, 68
2, 51180, Note_on_c, 0, 68, 90
2, 51183, Note_on_c, 0, 71, 71
2, 51184, Note_on_c, 0, 76, 72
2, 51252, Note_on_c, 0, 47, 62
2, 51260, Note_on_c, 0, 52, 71
2, 51264, Note_on_c, 0, 71, 0
2, 51271, Note_on_c, 0, 76, 0
2, 51273, Note_on_c, 0, 71, 79
2, 51279, Note_on_c, 0, 76, 66
2, 51402, Note_on_c, 0, 40, 0
2, 51410, Note_on_c, 0, 40, 62
2, 51486, Note_on_c, 0, 47, 0
2, 51494, Note_on_c, 0, 66, 0
2, 51494, Note_on_c, 0, 78, 0
2, 51497, Note_on_c, 0, 47, 75
2, 51501, Note_on_c, 0, 78, 97
2, 51505, Note_on_c, 0, 66, 99
2, 51601, Control_c, 0, 64, 0
2, 51601, Note_on_c, 0, 66, 0
2, 51601, Note_on_c, 0, 52, 0
2, 51601, Note_on_c, 0, 40, 0
2, 51602, Note_on_c, 0, 76, 0
2, 51602, Note_on_c, 0, 71, 0
2, 51602, Note_on_c, 0, 80, 0
2, 51602, Note_on_c, 0, 47, 0
2, 51603, Note_on_c, 0, 78, 0
2, 51617, Note_on_c, 0, 28, 0
2, 51617, Note_on_c, 0, 68, 0
2, 51666, Note_on_c, 0, 68, 101
2, 51667, Note_on_c, 0, 80, 103
2, 51667, Note_on_c, 0, 28, 84
2, 51667, Note_on_c, 0, 40, 74
2, 51680, Note_on_c, 0, 71, 65
2, 51694, Control_c, 0, 64, 127
2, 51793, Note_on_c, 0, 40, 0
2, 51804, Note_on_c, 0, 40, 69
2, 51837, Note_on_c, 0, 82, 90
2, 51837, Note_on_c, 0, 70, 99
2, 51886, Note_on_c, 0, 47, 65
2, 51889, Note_on_c, 0, 52, 69
2, 51993, Note_on_c, 0, 71, 0
2, 51999, Note_on_c, 0, 83, 94
2, 52003, Note_on_c, 0, 71, 90
2, 52108, Note_on_c, 0, 40, 0
2, 52114, Note_on_c, 0, 52, 0
2, 52114, Note_on_c, 0, 40, 70
2, 52131, Control_c, 0, 64, 0
2, 52138, Note_on_c, 0, 85, 97
2, 52139, Note_on_c, 0, 68, 0
2, 52141, Note_on_c, 0, 73, 97
2, 52224, Control_c, 0, 64, 127
2, 52228, Note_on_c, 0, 40, 0
2, 52231, Note_on_c, 0, 28, 0
2, 52234, Note_on_c, 0, 83, 0
2, 52235, Note_on_c, 0, 73, 0
2, 52236, Control_c, 0, 64, 0
2, 52236, Note_on_c, 0, 85, 0
2, 52239, Note_on_c, 0, 47, 0
2, 52247, Note_on_c, 0, 80, 0
2, 52254, Note_on_c, 0, 71, 0
2, 52262, Note_on_c, 0, 70, 0
2, 52262, Note_on_c, 0, 82, 0
2, 52305, Note_on_c, 0, 80, 100
2, 52308, Control_c, 0, 64, 127
2, 52312, Note_on_c, 0, 68, 97
2, 52312, Note_on_c, 0, 49, 81
2, 52314, Note_on_c, 0, 37, 81
2, 52315, Note_on_c, 0, 76, 77
2, 52543, Note_on_c, 0, 56, 80
2, 52548, Note_on_c, 0, 61, 80
2, 52723, Note_on_c, 0, 49, 0
2, 52727, Note_on_c, 0, 49, 73
2, 52784, Note_on_c, 0, 56, 0
2, 52784, Note_on_c, 0, 61, 0
2, 52790, Note_on_c, 0, 61, 76
2, 52796, Note_on_c, 0, 56, 81
2, 52886, Control_c, 0, 64, 0
2, 52889, Note_on_c, 0, 49, 0
2, 52890, Note_on_c, 0, 56, 0
2, 52891, Note_on_c, 0, 76, 0
2, 52892, Note_on_c, 0, 37, 0
2, 52893, Note_on_c, 0, 68, 0
2, 52894, Note_on_c, 0, 80, 0
2, 52907, Note_on_c, 0, 61, 0
2, 52945, Control_c, 0, 64, 127
2, 52971, Note_on_c, 0, 80, 100
2, 52972, Note_on_c, 0, 49, 79
2, 52972, Note_on_c, 0, 37, 73
2, 52973, Note_on_c, 0, 68, 95
2, 53099, Note_on_c, 0, 49, 0
2, 53106, Note_on_c, 0, 49, 77
2, 53138, Note_on_c, 0, 82, 94
2, 53142, Note_on_c, 0, 70, 91
2, 53185, Note_on_c, 0, 56, 73
2, 53187, Note_on_c, 0, 61, 68
2, 53296, Note_on_c, 0, 83, 97
2, 53297, Note_on_c, 0, 71, 92
2, 53414, Note_on_c, 0, 49, 0
2, 53414, Note_on_c, 0, 61, 0
2, 53419, Note_on_c, 0, 49, 73
2, 53424, Note_on_c, 0, 61, 71
2, 53429, Note_on_c, 0, 56, 0
2, 53435, Note_on_c, 0, 56, 67
2, 53442, Note_on_c, 0, 85, 92
2, 53448, Note_on_c, 0, 73, 88
2, 53554, Note_on_c, 0, 73, 0
2, 53554, Control_c, 0, 64, 0
2, 53554, Note_on_c, 0, 85, 0
2, 53554, Note_on_c, 0, 71, 0
2, 53555, Note_on_c, 0, 56, 0
2, 53555, Note_on_c, 0, 83, 0
2, 53560, Note_on_c, 0, 37, 0
2, 53568, Note_on_c, 0, 68, 0
2, 53575, Note_on_c, 0, 49, 0
2, 53575, Note_on_c, 0, 61, 0
2, 53575, Note_on_c, 0, 70, 0
2, 53575, Note_on_c, 0, 80, 0
2, 53583, Note_on_c, 0, 82, 0
2, 53594, Note_on_c, 0, 39, 76
2, 53594, Note_on_c, 0, 82, 100
2, 53595, Note_on_c, 0, 75, 93
2, 53598, Note_on_c, 0, 78, 81
2, 53598, Note_on_c, 0, 70, 101
2, 53637, Control_c, 0, 64, 127
2, 53661, Note_on_c, 0, 42, 74
2, 53716, Note_on_c, 0, 46, 73
2, 53771, Note_on_c, 0, 51, 72
2, 53836, Note_on_c, 0, 70, 0
2, 53836, Note_on_c, 0, 78, 0
2, 53840, Note_on_c, 0, 78, 100
2, 53842, Note_on_c, 0, 70, 88
2, 53842, Note_on_c, 0, 66, 95
2, 53847, Note_on_c, 0, 54, 80
2, 53940, Note_on_c, 0, 58, 76
2, 53972, Note_on_c, 0, 61, 74
2, 54051, Note_on_c, 0, 75, 0
2, 54059, Note_on_c, 0, 75, 94
2, 54082, Note_on_c, 0, 66, 0
2, 54088, Note_on_c, 0, 66, 73
2, 54159, Note_on_c, 0, 70, 0
2, 54170, Note_on_c, 0, 70, 79
2, 54228, Note_on_c, 0, 75, 0
2, 54233, Note_on_c, 0, 75, 101
2, 54414, Note_on_c, 0, 95, 108
2, 54416, Note_on_c, 0, 83, 99
2, 54416, Note_on_c, 0, 87, 97
2, 54417, Note_on_c, 0, 92, 92
2, 54566, Note_on_c, 0, 82, 0
2, 54570, Note_on_c, 0, 94, 105
2, 54571, Note_on_c, 0, 82, 97
2, 54712, Note_on_c, 0, 78, 0
2, 54723, Note_on_c, 0, 78, 103
2, 54724, Note_on_c, 0, 90, 102
2, 54855, Note_on_c, 0, 58, 0
2, 54855, Note_on_c, 0, 46, 0
2, 54855, Note_on_c, 0, 75, 0
2, 54855, Note_on_c, 0, 87, 0
2, 54856, Note_on_c, 0, 51, 0
2, 54856, Note_on_c, 0, 39, 0
2, 54856, Note_on_c, 0, 95, 0
2, 54856, Note_on_c, 0, 83, 0
2, 54856, Control_c, 0, 64, 0
2, 54856, Note_on_c, 0, 94, 0
2, 54857, Note_on_c, 0, 82, 0
2, 54857, Note_on_c, 0, 92, 0
2, 54857, Note_on_c, 0, 61, 0
2, 54857, Note_on_c, 0, 42, 0
2, 54857, Note_on_c, 0, 66, 0
2, 54858, Note_on_c, 0, 54, 0
2, 54873, Note_on_c, 0, 70, 0
2, 54881, Note_on_c, 0, 78, 0
2, 54881, Note_on_c, 0, 90, 0
2, 54885, Note_on_c, 0, 90, 105
2, 54886, Note_on_c, 0, 78, 105
2, 54886, Note_on_c, 0, 56, 85
2, 54935, Control_c, 0, 64, 127
2, 54945, Note_on_c, 0, 56, 0
2, 54964, Note_on_c, 0, 63, 57
2, 55041, Note_on_c, 0, 68, 75
2, 55054, Note_on_c, 0, 80, 94
2, 55056, Note_on_c, 0, 92, 90
2, 55082, Note_on_c, 0, 71, 68
2, 55111, Note_on_c, 0, 80, 0
2, 55119, Note_on_c, 0, 92, 0
2, 55123, Note_on_c, 0, 80, 93
2, 55124, Note_on_c, 0, 92, 94
2, 55144, Note_on_c, 0, 83, 79
2, 55169, Note_on_c, 0, 75, 60
2, 55265, Note_on_c, 0, 71, 0
2, 55274, Note_on_c, 0, 71, 79
2, 55349, Note_on_c, 0, 68, 0
2, 55361, Note_on_c, 0, 68, 86
2, 55365, Note_on_c, 0, 78, 0
2, 55365, Note_on_c, 0, 90, 0
2, 55369, Note_on_c, 0, 78, 97
2, 55373, Note_on_c, 0, 90, 94
2, 55426, Note_on_c, 0, 63, 0
2, 55430, Note_on_c, 0, 63, 53
2, 55522, Note_on_c, 0, 56, 85
2, 55526, Note_on_c, 0, 78, 0
2, 55526, Note_on_c, 0, 90, 0
2, 55532, Note_on_c, 0, 78, 97
2, 55532, Note_on_c, 0, 90, 96
2, 55587, Note_on_c, 0, 63, 0
2, 55593, Note_on_c, 0, 63, 45
2, 55695, Note_on_c, 0, 68, 0
2, 55695, Note_on_c, 0, 80, 0
2, 55695, Note_on_c, 0, 83, 0
2, 55695, Note_on_c, 0, 92, 0
2, 55701, Note_on_c, 0, 68, 82
2, 55704, Note_on_c, 0, 80, 80
2, 55705, Note_on_c, 0, 83, 65
2, 55706, Note_on_c, 0, 92, 76
2, 55764, Note_on_c, 0, 71, 0
2, 55764, Note_on_c, 0, 80, 0
2, 55764, Note_on_c, 0, 92, 0
2, 55771, Note_on_c, 0, 80, 99
2, 55772, Note_on_c, 0, 71, 79
2, 55773, Note_on_c, 0, 92, 99
2, 55795, Note_on_c, 0, 83, 0
2, 55806, Note_on_c, 0, 83, 56
2, 55833, Note_on_c, 0, 75, 0
2, 55841, Note_on_c, 0, 75, 72
2, 55925, Note_on_c, 0, 71, 0
2, 55933, Note_on_c, 0, 71, 80
2, 56010, Note_on_c, 0, 63, 0
2, 56010, Note_on_c, 0, 78, 0
2, 56010, Note_on_c, 0, 90, 0
2, 56014, Note_on_c, 0, 90, 95
2, 56014, Note_on_c, 0, 78, 95
2, 56019, Note_on_c, 0, 63, 62
2, 56163, Note_on_c, 0, 90, 0
2, 56167, Note_on_c, 0, 52, 79
2, 56171, Note_on_c, 0, 78, 0
2, 56175, Note_on_c, 0, 90, 101
2, 56175, Note_on_c, 0, 78, 101
2, 56185, Note_on_c, 0, 92, 0
2, 56186, Control_c, 0, 64, 0
2, 56186, Note_on_c, 0, 75, 0
2, 56186, Note_on_c, 0, 83, 0
2, 56187, Note_on_c, 0, 63, 0
2, 56187, Note_on_c, 0, 71, 0
2, 56188, Note_on_c, 0, 80, 0
2, 56188, Note_on_c, 0, 68, 0
2, 56189, Note_on_c, 0, 56, 0
2, 56240, Control_c, 0, 64, 127
2, 56248, Note_on_c, 0, 78, 0
2, 56260, Note_on_c, 0, 59, 76
2, 56327, Note_on_c, 0, 64, 81
2, 56345, Note_on_c, 0, 83, 79
2, 56348, Note_on_c, 0, 92, 94
2, 56350, Note_on_c, 0, 80, 88
2, 56417, Note_on_c, 0, 92, 0
2, 56424, Note_on_c, 0, 80, 0
2, 56424, Note_on_c, 0, 83, 0
2, 56428, Note_on_c, 0, 92, 96
2, 56429, Note_on_c, 0, 80, 94
2, 56435, Note_on_c, 0, 83, 77
2, 56435, Note_on_c, 0, 68, 81
2, 56436, Note_on_c, 0, 87, 80
2, 56493, Note_on_c, 0, 71, 62
2, 56494, Note_on_c, 0, 59, 0
2, 56500, Note_on_c, 0, 59, 50
2, 56532, Note_on_c, 0, 68, 0
2, 56537, Note_on_c, 0, 68, 80
2, 56632, Note_on_c, 0, 64, 0
2, 56636, Note_on_c, 0, 64, 63
2, 56670, Note_on_c, 0, 90, 0
2, 56673, Note_on_c, 0, 78, 93
2, 56674, Note_on_c, 0, 90, 92
2, 56709, Note_on_c, 0, 59, 0
2, 56717, Note_on_c, 0, 59, 78
2, 56816, Note_on_c, 0, 52, 0
2, 56821, Note_on_c, 0, 52, 73
2, 56824, Note_on_c, 0, 80, 0
2, 56824, Note_on_c, 0, 83, 0
2, 56824, Note_on_c, 0, 92, 0
2, 56829, Note_on_c, 0, 80, 100
2, 56831, Note_on_c, 0, 92, 98
2, 56835, Note_on_c, 0, 83, 75
2, 56885, Note_on_c, 0, 59, 0
2, 56896, Note_on_c, 0, 59, 79
2, 56962, Note_on_c, 0, 64, 0
2, 56973, Note_on_c, 0, 64, 70
2, 56995, Note_on_c, 0, 94, 99
2, 56996, Note_on_c, 0, 82, 90
2, 57070, Note_on_c, 0, 68, 0
2, 57074, Note_on_c, 0, 68, 73
2, 57139, Note_on_c, 0, 71, 0
2, 57145, Note_on_c, 0, 71, 77
2, 57145, Note_on_c, 0, 95, 105
2, 57146, Note_on_c, 0, 83, 0
2, 57151, Note_on_c, 0, 83, 92
2, 57177, Note_on_c, 0, 68, 0
2, 57182, Note_on_c, 0, 68, 76
2, 57305, Note_on_c, 0, 97, 102
2, 57318, Note_on_c, 0, 85, 95
2, 57323, Note_on_c, 0, 59, 0
2, 57328, Note_on_c, 0, 59, 71
2, 57435, Note_on_c, 0, 52, 0
2, 57435, Note_on_c, 0, 92, 0
2, 57436, Note_on_c, 0, 87, 0
2, 57436, Note_on_c, 0, 64, 0
2, 57436, Note_on_c, 0, 68, 0
2, 57436, Note_on_c, 0, 95, 0
2, 57436, Note_on_c, 0, 80, 0
2, 57436, Note_on_c, 0, 85, 0
2, 57437, Note_on_c, 0, 78, 0
2, 57437, Note_on_c, 0, 59, 0
2, 57437, Note_on_c, 0, 97, 0
2, 57437, Note_on_c, 0, 71, 0
2, 57437, Control_c, 0, 64, 0
2, 57454, Note_on_c, 0, 83, 0
2, 57454, Note_on_c, 0, 94, 0
2, 57459, Note_on_c, 0, 94, 110
2, 57461, Note_on_c, 0, 82, 0
2, 57465, Note_on_c, 0, 82, 96
2, 57469, Note_on_c, 0, 90, 0
2, 57473, Note_on_c, 0, 54, 75
2, 57478, Note_on_c, 0, 90, 73
2, 57500, Control_c, 0, 64, 127
2, 57564, Note_on_c, 0, 61, 73
2, 57628, Note_on_c, 0, 66, 85
2, 57723, Note_on_c, 0, 70, 72
2, 57776, Note_on_c, 0, 82, 0
2, 57776, Note_on_c, 0, 90, 0
2, 57781, Note_on_c, 0, 78, 97
2, 57784, Note_on_c, 0, 90, 97
2, 57786, Note_on_c, 0, 82, 86
2, 57789, Note_on_c, 0, 85, 88
2, 57838, Note_on_c, 0, 70, 0
2, 57849, Note_on_c, 0, 70, 76
2, 57937, Note_on_c, 0, 66, 0
2, 57948, Note_on_c, 0, 66, 70
2, 58007, Note_on_c, 0, 61, 0
2, 58013, Note_on_c, 0, 61, 75
2, 58103, Note_on_c, 0, 100, 113
2, 58106, Note_on_c, 0, 54, 0
2, 58106, Note_on_c, 0, 94, 0
2, 58112, Note_on_c, 0, 54, 79
2, 58115, Note_on_c, 0, 88, 93
2, 58116, Note_on_c, 0, 94, 93
2, 58183, Note_on_c, 0, 61, 0
2, 58187, Note_on_c, 0, 61, 66
2, 58245, Note_on_c, 0, 66, 0
2, 58250, Note_on_c, 0, 66, 81
2, 58314, Note_on_c, 0, 61, 0
2, 58324, Note_on_c, 0, 61, 35
2, 58344, Note_on_c, 0, 70, 0
2, 58350, Note_on_c, 0, 70, 73
2, 58431, Note_on_c, 0, 73, 84
2, 58437, Note_on_c, 0, 85, 0
2, 58440, Note_on_c, 0, 97, 106
2, 58444, Note_on_c, 0, 90, 0
2, 58444, Note_on_c, 0, 94, 0
2, 58446, Note_on_c, 0, 85, 93
2, 58450, Note_on_c, 0, 94, 80
2, 58455, Note_on_c, 0, 90, 83
2, 58483, Note_on_c, 0, 70, 0
2, 58487, Note_on_c, 0, 70, 63
2, 58567, Note_on_c, 0, 66, 0
2, 58578, Note_on_c, 0, 66, 70
2, 58621, Note_on_c, 0, 61, 0
2, 58628, Note_on_c, 0, 61, 76
2, 58745, Control_c, 0, 64, 0
2, 58748, Note_on_c, 0, 61, 0
2, 58749, Note_on_c, 0, 70, 0
2, 58749, Note_on_c, 0, 54, 0
2, 58749, Note_on_c, 0, 88, 0
2, 58749, Note_on_c, 0, 66, 0
2, 58749, Note_on_c, 0, 82, 0
2, 58749, Note_on_c, 0, 78, 0
2, 58752, Note_on_c, 0, 97, 0
2, 58759, Note_on_c, 0, 85, 0
2, 58759, Note_on_c, 0, 90, 0
2, 58759, Note_on_c, 0, 94, 0
2, 58763, Note_on_c, 0, 97, 108
2, 58764, Note_on_c, 0, 59, 89
2, 58766, Note_on_c, 0, 94, 86
2, 58766, Note_on_c, 0, 85, 95
2, 58767, Note_on_c, 0, 73, 0
2, 58767, Note_on_c, 0, 100, 0
2, 58767, Note_on_c, 0, 90, 89
2, 58805, Control_c, 0, 64, 127
2, 58857, Note_on_c, 0, 66, 59
2, 58863, Note_on_c, 0, 65, 60
2, 58921, Note_on_c, 0, 71, 81
2, 59005, Note_on_c, 0, 85, 0
2, 59005, Note_on_c, 0, 97, 0
2, 59011, Note_on_c, 0, 97, 106
2, 59016, Note_on_c, 0, 85, 89
2, 59020, Note_on_c, 0, 90, 0
2, 59031, Note_on_c, 0, 90, 73
2, 59086, Note_on_c, 0, 78, 78
2, 59159, Note_on_c, 0, 75, 48
2, 59253, Note_on_c, 0, 99, 108
2, 59274, Note_on_c, 0, 90, 0
2, 59276, Note_on_c, 0, 87, 82
2, 59278, Note_on_c, 0, 90, 65
2, 59281, Note_on_c, 0, 71, 0
2, 59287, Note_on_c, 0, 71, 75
2, 59320, Note_on_c, 0, 66, 0
2, 59324, Note_on_c, 0, 66, 63
2, 59374, Note_on_c, 0, 94, 0
2, 59375, Note_on_c, 0, 85, 0
2, 59376, Note_on_c, 0, 78, 0
2, 59376, Note_on_c, 0, 97, 0
2, 59376, Note_on_c, 0, 59, 0
2, 59376, Note_on_c, 0, 75, 0
2, 59377, Note_on_c, 0, 66, 0
2, 59377, Note_on_c, 0, 65, 0
2, 59386, Control_c, 0, 64, 0
2, 59424, Note_on_c, 0, 58, 84
2, 59427, Control_c, 0, 64, 127
2, 59517, Note_on_c, 0, 61, 73
2, 59560, Note_on_c, 0, 66, 70
2, 59591, Note_on_c, 0, 95, 93
2, 59593, Note_on_c, 0, 83, 80
2, 59596, Note_on_c, 0, 99, 0
2, 59603, Note_on_c, 0, 86, 78
2, 59616, Note_on_c, 0, 92, 56
2, 59623, Note_on_c, 0, 89, 62
2, 59637, Note_on_c, 0, 70, 79
2, 59730, Note_on_c, 0, 94, 100
2, 59731, Note_on_c, 0, 82, 92
2, 59796, Note_on_c, 0, 70, 0
2, 59803, Note_on_c, 0, 70, 82
2, 59865, Note_on_c, 0, 66, 0
2, 59875, Note_on_c, 0, 66, 78
2, 59896, Note_on_c, 0, 90, 0
2, 59902, Note_on_c, 0, 78, 94
2, 59902, Note_on_c, 0, 90, 93
2, 59942, Note_on_c, 0, 61, 0
2, 59946, Note_on_c, 0, 61, 70
2, 60045, Note_on_c, 0, 86, 0
2, 60045, Note_on_c, 0, 61, 0
2, 60046, Note_on_c, 0, 95, 0
2, 60046, Note_on_c, 0, 92, 0
2, 60047, Note_on_c, 0, 58, 0
2, 60047, Note_on_c, 0, 70, 0
2, 60047, Note_on_c, 0, 83, 0
2, 60047, Note_on_c, 0, 66, 0
2, 60047, Note_on_c, 0, 82, 0
2, 60049, Note_on_c, 0, 71, 0
2, 60049, Note_on_c, 0, 78, 0
2, 60053, Control_c, 0, 64, 0
2, 60057, Note_on_c, 0, 87, 0
2, 60057, Note_on_c, 0, 90, 0
2, 60060, Note_on_c, 0, 56, 89
2, 60061, Note_on_c, 0, 78, 104
2, 60061, Note_on_c, 0, 90, 100
2, 60065, Note_on_c, 0, 89, 0
2, 60065, Note_on_c, 0, 94, 0
2, 60119, Control_c, 0, 64, 127
2, 60151, Note_on_c, 0, 63, 64
2, 60165, Note_on_c, 0, 56, 0
2, 60222, Note_on_c, 0, 92, 93
2, 60224, Note_on_c, 0, 80, 86
2, 60228, Note_on_c, 0, 83, 68
2, 60228, Note_on_c, 0, 68, 78
2, 60288, Note_on_c, 0, 80, 0
2, 60288, Note_on_c, 0, 92, 0
2, 60298, Note_on_c, 0, 80, 102
2, 60299, Note_on_c, 0, 92, 95
2, 60299, Note_on_c, 0, 71, 78
2, 60303, Note_on_c, 0, 83, 0
2, 60314, Note_on_c, 0, 83, 76
2, 60377, Note_on_c, 0, 75, 67
2, 60464, Note_on_c, 0, 71, 0
2, 60472, Note_on_c, 0, 71, 72
2, 60533, Note_on_c, 0, 68, 0
2, 60541, Note_on_c, 0, 78, 0
2, 60543, Note_on_c, 0, 68, 84
2, 60549, Note_on_c, 0, 90, 0
2, 60551, Note_on_c, 0, 78, 97
2, 60553, Note_on_c, 0, 90, 93
2, 60618, Note_on_c, 0, 63, 0
2, 60629, Note_on_c, 0, 63, 53
2, 60695, Note_on_c, 0, 78, 0
2, 60698, Note_on_c, 0, 56, 85
2, 60702, Note_on_c, 0, 90, 0
2, 60706, Note_on_c, 0, 78, 91
2, 60706, Note_on_c, 0, 90, 96
2, 60764, Note_on_c, 0, 63, 0
2, 60771, Note_on_c, 0, 63, 43
2, 60864, Note_on_c, 0, 68, 0
2, 60864, Note_on_c, 0, 80, 0
2, 60864, Note_on_c, 0, 92, 0
2, 60868, Note_on_c, 0, 68, 85
2, 60871, Note_on_c, 0, 83, 0
2, 60875, Note_on_c, 0, 92, 89
2, 60875, Note_on_c, 0, 80, 89
2, 60876, Note_on_c, 0, 83, 71
2, 60940, Note_on_c, 0, 71, 0
2, 60940, Note_on_c, 0, 80, 0
2, 60940, Note_on_c, 0, 92, 0
2, 60944, Note_on_c, 0, 71, 86
2, 60946, Note_on_c, 0, 92, 96
2, 60946, Note_on_c, 0, 80, 96
2, 60948, Note_on_c, 0, 83, 0
2, 60959, Note_on_c, 0, 83, 86
2, 61009, Note_on_c, 0, 75, 0
2, 61014, Note_on_c, 0, 75, 74
2, 61102, Note_on_c, 0, 71, 0
2, 61106, Note_on_c, 0, 71, 78
2, 61163, Note_on_c, 0, 68, 0
2, 61170, Note_on_c, 0, 68, 75
2, 61201, Note_on_c, 0, 63, 0
2, 61201, Note_on_c, 0, 78, 0
2, 61209, Note_on_c, 0, 90, 0
2, 61212, Note_on_c, 0, 78, 100
2, 61213, Note_on_c, 0, 63, 68
2, 61213, Note_on_c, 0, 90, 94
2, 61338, Note_on_c, 0, 52, 74
2, 61355, Note_on_c, 0, 78, 0
2, 61355, Note_on_c, 0, 90, 0
2, 61360, Note_on_c, 0, 78, 93
2, 61360, Note_on_c, 0, 90, 102
2, 61373, Note_on_c, 0, 71, 0
2, 61373, Note_on_c, 0, 92, 0
2, 61373, Note_on_c, 0, 83, 0
2, 61373, Note_on_c, 0, 75, 0
2, 61374, Note_on_c, 0, 63, 0
2, 61374, Note_on_c, 0, 68, 0
2, 61374, Note_on_c, 0, 56, 0
2, 61374, Control_c, 0, 64, 0
2, 61374, Note_on_c, 0, 80, 0
2, 61432, Note_on_c, 0, 78, 0
2, 61432, Control_c, 0, 64, 127
2, 61439, Note_on_c, 0, 59, 76
2, 61508, Note_on_c, 0, 64, 82
2, 61521, Note_on_c, 0, 92, 91
2, 61522, Note_on_c, 0, 83, 78
2, 61523, Note_on_c, 0, 80, 83
2, 61585, Note_on_c, 0, 80, 0
2, 61585, Note_on_c, 0, 92, 0
2, 61593, Note_on_c, 0, 83, 0
2, 61594, Note_on_c, 0, 92, 97
2, 61597, Note_on_c, 0, 80, 94
2, 61605, Note_on_c, 0, 83, 82
2, 61612, Note_on_c, 0, 68, 84
2, 61617, Note_on_c, 0, 87, 76
2, 61676, Note_on_c, 0, 71, 70
2, 61716, Note_on_c, 0, 68, 0
2, 61726, Note_on_c, 0, 68, 78
2, 61808, Note_on_c, 0, 64, 0
2, 61813, Note_on_c, 0, 64, 78
2, 61847, Note_on_c, 0, 90, 0
2, 61853, Note_on_c, 0, 78, 99
2, 61857, Note_on_c, 0, 90, 94
2, 61908, Note_on_c, 0, 59, 0
2, 61914, Note_on_c, 0, 59, 75
2, 61992, Note_on_c, 0, 52, 0
2, 61996, Note_on_c, 0, 52, 77
2, 62000, Note_on_c, 0, 80, 0
2, 62008, Note_on_c, 0, 83, 0
2, 62008, Note_on_c, 0, 92, 0
2, 62010, Note_on_c, 0, 80, 97
2, 62013, Note_on_c, 0, 92, 94
2, 62014, Note_on_c, 0, 83, 79
2, 62069, Note_on_c, 0, 59, 0
2, 62079, Note_on_c, 0, 59, 83
2, 62146, Note_on_c, 0, 52, 0
2, 62146, Note_on_c, 0, 64, 0
2, 62150, Note_on_c, 0, 64, 85
2, 62153, Note_on_c, 0, 52, 76
2, 62158, Note_on_c, 0, 94, 102
2, 62159, Note_on_c, 0, 82, 94
2, 62269, Note_on_c, 0, 71, 0
2, 62278, Note_on_c, 0, 71, 84
2, 62311, Note_on_c, 0, 95, 106
2, 62315, Note_on_c, 0, 83, 0
2, 62320, Note_on_c, 0, 83, 91
2, 62353, Note_on_c, 0, 59, 0
2, 62365, Note_on_c, 0, 59, 50
2, 62438, Note_on_c, 0, 64, 0
2, 62445, Note_on_c, 0, 64, 58
2, 62448, Note_on_c, 0, 52, 0
2, 62481, Note_on_c, 0, 97, 103
2, 62484, Note_on_c, 0, 59, 0
2, 62488, Note_on_c, 0, 85, 95
2, 62494, Note_on_c, 0, 59, 81
2, 62622, Note_on_c, 0, 92, 0
2, 62624, Note_on_c, 0, 95, 0
2, 62624, Note_on_c, 0, 59, 0
2, 62625, Note_on_c, 0, 90, 0
2, 62626, Note_on_c, 0, 97, 0
2, 62629, Control_c, 0, 64, 0
2, 62630, Note_on_c, 0, 80, 0
2, 62633, Note_on_c, 0, 92, 107
2, 62636, Note_on_c, 0, 80, 99
2, 62638, Note_on_c, 0, 85, 0
2, 62641, Note_on_c, 0, 49, 73
2, 62645, Note_on_c, 0, 85, 78
2, 62645, Note_on_c, 0, 78, 0
2, 62653, Note_on_c, 0, 87, 0
2, 62657, Note_on_c, 0, 88, 59
2, 62707, Note_on_c, 0, 64, 0
2, 62707, Control_c, 0, 64, 127
2, 62728, Note_on_c, 0, 56, 69
2, 62804, Note_on_c, 0, 61, 76
2, 62871, Note_on_c, 0, 64, 68
2, 62937, Note_on_c, 0, 68, 0
2, 62942, Note_on_c, 0, 68, 82
2, 63029, Note_on_c, 0, 64, 0
2, 63038, Note_on_c, 0, 64, 73
2, 63098, Note_on_c, 0, 61, 0
2, 63106, Note_on_c, 0, 61, 74
2, 63206, Note_on_c, 0, 56, 0
2, 63212, Note_on_c, 0, 56, 65
2, 63244, Note_on_c, 0, 80, 0
2, 63244, Note_on_c, 0, 85, 0
2, 63244, Note_on_c, 0, 92, 0
2, 63252, Note_on_c, 0, 49, 0
2, 63252, Note_on_c, 0, 80, 100
2, 63255, Note_on_c, 0, 85, 86
2, 63255, Note_on_c, 0, 92, 98
2, 63259, Note_on_c, 0, 49, 75
2, 63336, Note_on_c, 0, 56, 0
2, 63348, Note_on_c, 0, 56, 70
2, 63360, Note_on_c, 0, 82, 0
2, 63360, Note_on_c, 0, 94, 0
2, 63413, Note_on_c, 0, 61, 0
2, 63417, Note_on_c, 0, 94, 104
2, 63417, Note_on_c, 0, 82, 89
2, 63420, Note_on_c, 0, 61, 76
2, 63429, Note_on_c, 0, 71, 0
2, 63490, Note_on_c, 0, 64, 0
2, 63494, Note_on_c, 0, 64, 75
2, 63559, Note_on_c, 0, 68, 0
2, 63567, Note_on_c, 0, 83, 0
2, 63568, Note_on_c, 0, 68, 85
2, 63569, Note_on_c, 0, 95, 107
2, 63575, Note_on_c, 0, 83, 95
2, 63667, Note_on_c, 0, 64, 0
2, 63671, Note_on_c, 0, 64, 67
2, 63720, Note_on_c, 0, 85, 0
2, 63725, Note_on_c, 0, 97, 107
2, 63730, Note_on_c, 0, 85, 98
2, 63767, Note_on_c, 0, 56, 0
2, 63771, Note_on_c, 0, 60, 46
2, 63775, Note_on_c, 0, 56, 69
2, 63782, Note_on_c, 0, 60, 0
2, 63864, Note_on_c, 0, 95, 0
2, 63865, Note_on_c, 0, 49, 0
2, 63866, Note_on_c, 0, 80, 0
2, 63866, Note_on_c, 0, 88, 0
2, 63867, Note_on_c, 0, 83, 0
2, 63867, Note_on_c, 0, 64, 0
2, 63868, Note_on_c, 0, 97, 0
2, 63868, Control_c, 0, 64, 0
2, 63868, Note_on_c, 0, 61, 0
2, 63868, Note_on_c, 0, 68, 0
2, 63869, Note_on_c, 0, 56, 0
2, 63874, Note_on_c, 0, 94, 0
2, 63880, Note_on_c, 0, 51, 92
2, 63882, Note_on_c, 0, 82, 0
2, 63882, Note_on_c, 0, 85, 0
2, 63885, Note_on_c, 0, 94, 110
2, 63888, Note_on_c, 0, 82, 97
2, 63897, Note_on_c, 0, 92, 0
2, 63909, Note_on_c, 0, 90, 70
2, 63943, Control_c, 0, 64, 127
2, 63958, Note_on_c, 0, 54, 66
2, 64031, Note_on_c, 0, 58, 78
2, 64099, Note_on_c, 0, 63, 77
2, 64204, Note_on_c, 0, 90, 0
2, 64212, Note_on_c, 0, 82, 0
2, 64214, Note_on_c, 0, 90, 104
2, 64215, Note_on_c, 0, 66, 89
2, 64222, Note_on_c, 0, 82, 76
2, 64232, Note_on_c, 0, 87, 65
2, 64297, Note_on_c, 0, 70, 74
2, 64341, Note_on_c, 0, 75, 84
2, 64429, Note_on_c, 0, 78, 89
2, 64519, Note_on_c, 0, 82, 0
2, 64530, Note_on_c, 0, 82, 89
2, 64535, Note_on_c, 0, 87, 0
2, 64540, Note_on_c, 0, 87, 104
2, 64581, Note_on_c, 0, 78, 0
2, 64590, Note_on_c, 0, 78, 77
2, 64673, Note_on_c, 0, 75, 0
2, 64678, Note_on_c, 0, 75, 86
2, 64750, Note_on_c, 0, 70, 0
2, 64754, Note_on_c, 0, 70, 83
2, 64803, Note_on_c, 0, 66, 0
2, 64814, Note_on_c, 0, 66, 87
2, 64865, Note_on_c, 0, 78, 0
2, 64865, Note_on_c, 0, 90, 0
2, 64875, Note_on_c, 0, 90, 104
2, 64876, Note_on_c, 0, 78, 97
2, 64896, Note_on_c, 0, 63, 0
2, 64900, Note_on_c, 0, 63, 87
2, 64972, Note_on_c, 0, 58, 0
2, 64977, Note_on_c, 0, 58, 78
2, 65018, Note_on_c, 0, 54, 0
2, 65023, Note_on_c, 0, 54, 83
2, 65161, Note_on_c, 0, 94, 0
2, 65161, Note_on_c, 0, 54, 0
2, 65161, Note_on_c, 0, 70, 0
2, 65161, Note_on_c, 0, 51, 0
2, 65162, Note_on_c, 0, 87, 0
2, 65162, Note_on_c, 0, 82, 0
2, 65162, Note_on_c, 0, 58, 0
2, 65162, Control_c, 0, 64, 0
2, 65162, Note_on_c, 0, 75, 0
2, 65162, Note_on_c, 0, 63, 0
2, 65172, Note_on_c, 0, 66, 0
2, 65172, Note_on_c, 0, 78, 0
2, 65172, Note_on_c, 0, 90, 0
2, 65177, Note_on_c, 0, 78, 110
2, 65181, Note_on_c, 0, 90, 109
2, 65184, Note_on_c, 0, 83, 94
2, 65190, Note_on_c, 0, 40, 78
2, 65233, Control_c, 0, 64, 127
2, 65274, Note_on_c, 0, 47, 78
2, 65323, Note_on_c, 0, 52, 80
2, 65349, Note_on_c, 0, 83, 0
2, 65353, Note_on_c, 0, 80, 95
2, 65354, Note_on_c, 0, 92, 97
2, 65356, Note_on_c, 0, 83, 79
2, 65418, Note_on_c, 0, 80, 0
2, 65418, Note_on_c, 0, 83, 0
2, 65418, Note_on_c, 0, 92, 0
2, 65422, Note_on_c, 0, 92, 92
2, 65423, Note_on_c, 0, 80, 97
2, 65424, Note_on_c, 0, 56, 86
2, 65425, Note_on_c, 0, 83, 85
2, 65479, Note_on_c, 0, 78, 0
2, 65494, Note_on_c, 0, 59, 85
2, 65507, Note_on_c, 0, 64, 93
2, 65686, Note_on_c, 0, 95, 100
2, 65687, Note_on_c, 0, 83, 0
2, 65688, Note_on_c, 0, 81, 79
2, 65690, Note_on_c, 0, 85, 81
2, 65691, Note_on_c, 0, 83, 82
2, 65790, Note_on_c, 0, 81, 0
2, 65790, Note_on_c, 0, 95, 0
2, 65790, Note_on_c, 0, 90, 0
2, 65790, Note_on_c, 0, 52, 0
2, 65790, Note_on_c, 0, 56, 0
2, 65790, Note_on_c, 0, 59, 0
2, 65790, Note_on_c, 0, 64, 0
2, 65791, Note_on_c, 0, 92, 0
2, 65791, Note_on_c, 0, 83, 0
2, 65791, Note_on_c, 0, 80, 0
2, 65791, Control_c, 0, 64, 0
2, 65791, Note_on_c, 0, 47, 0
2, 65791, Note_on_c, 0, 85, 0
2, 65802, Note_on_c, 0, 40, 0
2, 65843, Note_on_c, 0, 94, 108
2, 65843, Note_on_c, 0, 42, 91
2, 65844, Note_on_c, 0, 82, 102
2, 65852, Note_on_c, 0, 92, 88
2, 65863, Control_c, 0, 64, 127
2, 65900, Note_on_c, 0, 49, 66
2, 65951, Note_on_c, 0, 54, 84
2, 66000, Note_on_c, 0, 78, 102
2, 66000, Note_on_c, 0, 90, 96
2, 66075, Note_on_c, 0, 58, 88
2, 66078, Note_on_c, 0, 87, 101
2, 66081, Note_on_c, 0, 75, 104
2, 66156, Note_on_c, 0, 61, 86
2, 66159, Note_on_c, 0, 66, 88
2, 66301, Note_on_c, 0, 90, 0
2, 66309, Note_on_c, 0, 78, 0
2, 66311, Note_on_c, 0, 90, 107
2, 66313, Note_on_c, 0, 78, 101
2, 66436, Note_on_c, 0, 54, 0
2, 66436, Control_c, 0, 64, 0
2, 66436, Note_on_c, 0, 94, 0
2, 66436, Note_on_c, 0, 78, 0
2, 66436, Note_on_c, 0, 92, 0
2, 66436, Note_on_c, 0, 75, 0
2, 66436, Note_on_c, 0, 82, 0
2, 66436, Note_on_c, 0, 61, 0
2, 66437, Note_on_c, 0, 58, 0
2, 66437, Note_on_c, 0, 87, 0
2, 66437, Note_on_c, 0, 49, 0
2, 66437, Note_on_c, 0, 66, 0
2, 66447, Note_on_c, 0, 42, 0
2, 66462, Note_on_c, 0, 90, 0
2, 66472, Note_on_c, 0, 44, 94
2, 66473, Note_on_c, 0, 90, 108
2, 66473, Note_on_c, 0, 78, 107
2, 66516, Control_c, 0, 64, 127
2, 66549, Note_on_c, 0, 51, 78
2, 66601, Note_on_c, 0, 56, 86
2, 66627, Note_on_c, 0, 85, 81
2, 66627, Note_on_c, 0, 80, 94
2, 66628, Note_on_c, 0, 92, 86
2, 66700, Note_on_c, 0, 92, 0
2, 66706, Note_on_c, 0, 92, 100
2, 66711, Note_on_c, 0, 87, 87
2, 66711, Note_on_c, 0, 61, 89
2, 66739, Note_on_c, 0, 90, 0
2, 66749, Note_on_c, 0, 90, 47
2, 66789, Note_on_c, 0, 63, 75
2, 66851, Note_on_c, 0, 68, 96
2, 66944, Note_on_c, 0, 73, 90
2, 66947, Note_on_c, 0, 70, 61
2, 66954, Note_on_c, 0, 70, 0
2, 67014, Note_on_c, 0, 75, 79
2, 67092, Note_on_c, 0, 80, 0
2, 67097, Note_on_c, 0, 80, 98
2, 67169, Note_on_c, 0, 75, 0
2, 67176, Note_on_c, 0, 75, 86
2, 67184, Note_on_c, 0, 68, 0
2, 67194, Note_on_c, 0, 68, 58
2, 67205, Note_on_c, 0, 70, 55
2, 67230, Note_on_c, 0, 73, 0
2, 67241, Note_on_c, 0, 73, 84
2, 67315, Note_on_c, 0, 68, 0
2, 67324, Note_on_c, 0, 68, 93
2, 67384, Note_on_c, 0, 63, 0
2, 67395, Note_on_c, 0, 63, 79
2, 67438, Note_on_c, 0, 61, 0
2, 67443, Note_on_c, 0, 61, 74
2, 67545, Note_on_c, 0, 56, 0
2, 67547, Note_on_c, 0, 58, 72
2, 67554, Note_on_c, 0, 56, 73
2, 67584, Note_on_c, 0, 51, 0
2, 67589, Note_on_c, 0, 51, 77
2, 67699, Note_on_c, 0, 44, 0
2, 67699, Note_on_c, 0, 87, 0
2, 67704, Control_c, 0, 64, 0
2, 67704, Note_on_c, 0, 90, 0
2, 67704, Note_on_c, 0, 92, 0
2, 67704, Note_on_c, 0, 78, 0
2, 67705, Note_on_c, 0, 80, 0
2, 67705, Note_on_c, 0, 75, 0
2, 67705, Note_on_c, 0, 61, 0
2, 67705, Note_on_c, 0, 68, 0
2, 67706, Note_on_c, 0, 73, 0
2, 67706, Note_on_c, 0, 56, 0
2, 67706, Note_on_c, 0, 51, 0
2, 67706, Note_on_c, 0, 70, 0
2, 67707, Note_on_c, 0, 58, 0
2, 67708, Note_on_c, 0, 63, 0
2, 67708, Note_on_c, 0, 88, 85
2, 67708, Note_on_c, 0, 87, 84
2, 67708, Note_on_c, 0, 44, 92
2, 67714, Note_on_c, 0, 88, 0
2, 67722, Note_on_c, 0, 85, 0
2, 67729, Note_on_c, 0, 87, 0
2, 67748, Note_on_c, 0, 48, 81
2, 67791, Control_c, 0, 64, 127
2, 67818, Note_on_c, 0, 51, 87
2, 67856, Note_on_c, 0, 56, 77
2, 67903, Note_on_c, 0, 60, 85
2, 67985, Note_on_c, 0, 63, 59
2, 68020, Note_on_c, 0, 68, 80
2, 68049, Note_on_c, 0, 72, 86
2, 68073, Note_on_c, 0, 75, 83
2, 68145, Note_on_c, 0, 80, 80
2, 68204, Note_on_c, 0, 84, 82
2, 68256, Note_on_c, 0, 87, 87
2, 68316, Note_on_c, 0, 48, 0
2, 68316, Note_on_c, 0, 80, 0
2, 68316, Control_c, 0, 64, 0
2, 68317, Note_on_c, 0, 84, 0
2, 68317, Note_on_c, 0, 75, 0
2, 68317, Note_on_c, 0, 87, 0
2, 68317, Note_on_c, 0, 51, 0
2, 68317, Note_on_c, 0, 72, 0
2, 68317, Note_on_c, 0, 60, 0
2, 68317, Note_on_c, 0, 68, 0
2, 68318, Note_on_c, 0, 56, 0
2, 68318, Note_on_c, 0, 44, 0
2, 68336, Note_on_c, 0, 63, 0
2, 68363, Note_on_c, 0, 32, 90
2, 68363, Note_on_c, 0, 92, 111
2, 68363, Note_on_c, 0, 80, 105
2, 68363, Note_on_c, 0, 44, 96
2, 68368, Note_on_c, 0, 84, 89
2, 68405, Control_c, 0, 64, 127
2, 68479, Control_c, 0, 64, 0
2, 68505, Note_on_c, 0, 44, 0
2, 68505, Note_on_c, 0, 84, 0
2, 68567, Note_on_c, 0, 80, 0
2, 68609, Note_on_c, 0, 90, 105
2, 68610, Note_on_c, 0, 78, 99
2, 68610, Note_on_c, 0, 85, 93
2, 68614, Note_on_c, 0, 82, 90
2, 68615, Note_on_c, 0, 42, 96
2, 68616, Note_on_c, 0, 30, 92
2, 68636, Note_on_c, 0, 92, 0
2, 68652, Note_on_c, 0, 42, 0
2, 68655, Note_on_c, 0, 30, 0
2, 68666, Note_on_c, 0, 78, 0
2, 68682, Note_on_c, 0, 90, 0
2, 68712, Note_on_c, 0, 32, 0
2, 68759, Note_on_c, 0, 85, 0
2, 68782, Note_on_c, 0, 82, 0
2, 68878, Note_on_c, 0, 92, 110
2, 68881, Note_on_c, 0, 80, 103
2, 68883, Note_on_c, 0, 32, 91
2, 68884, Note_on_c, 0, 84, 90
2, 69066, Control_c, 0, 64, 127
2, 71040, Note_on_c, 0, 32, 0
2, 71040, Note_on_c, 0, 80, 0
2, 71040, Note_on_c, 0, 84, 0
2, 71040, Note_on_c, 0, 92, 0
2, 72035, Control_c, 0, 64, 0
2, 72036, End_track
0, 0, End_of_file
