0, 0, Header, 1, 2, 384
1, 0, Start_track
1, 0, Tempo, 500000
1, 0, Time_signature, 4, 2, 24, 8
1, 1, End_track
2, 0, Start_track
2, 7, Control_c, 0, 64, 127
2, 961, Note_on_c, 0, 58, 47
2, 980, Note_on_c, 0, 39, 36
2, 987, Note_on_c, 0, 51, 27
2, 1021, Control_c, 0, 64, 0
2, 1105, Control_c, 0, 64, 127
2, 1249, Note_on_c, 0, 46, 40
2, 1256, Note_on_c, 0, 61, 49
2, 1443, Note_on_c, 0, 51, 0
2, 1447, Note_on_c, 0, 51, 43
2, 1461, Note_on_c, 0, 66, 58
2, 1496, Note_on_c, 0, 63, 25
2, 1644, Note_on_c, 0, 58, 0
2, 1645, Note_on_c, 0, 46, 0
2, 1646, Control_c, 0, 64, 0
2, 1646, Note_on_c, 0, 61, 0
2, 1646, Note_on_c, 0, 39, 0
2, 1646, Note_on_c, 0, 51, 0
2, 1653, Note_on_c, 0, 44, 49
2, 1654, Note_on_c, 0, 56, 52
2, 1720, Control_c, 0, 64, 127
2, 1820, Note_on_c, 0, 60, 64
2, 1845, Note_on_c, 0, 51, 50
2, 1996, Note_on_c, 0, 66, 0
2, 2006, Note_on_c, 0, 66, 56
2, 2022, Control_c, 0, 64, 0
2, 2034, Note_on_c, 0, 54, 45
2, 2050, Control_c, 0, 64, 127
2, 2582, Note_on_c, 0, 53, 48
2, 2583, Note_on_c, 0, 37, 52
2, 2612, Control_c, 0, 64, 0
2, 2612, Note_on_c, 0, 60, 0
2, 2613, Note_on_c, 0, 51, 0
2, 2614, Note_on_c, 0, 54, 0
2, 2614, Note_on_c, 0, 56, 0
2, 2614, Note_on_c, 0, 44, 0
2, 2615, Note_on_c, 0, 66, 0
2, 2626, Note_on_c, 0, 63, 0
2, 2711, Control_c, 0, 64, 127
2, 2759, Note_on_c, 0, 56, 58
2, 2791, Note_on_c, 0, 44, 45
2, 2933, Note_on_c, 0, 49, 46
2, 2936, Note_on_c, 0, 65, 57
2, 2949, Note_on_c, 0, 56, 0
2, 2953, Note_on_c, 0, 56, 36
2, 3101, Note_on_c, 0, 54, 56
2, 3105, Note_on_c, 0, 42, 56
2, 3107, Note_on_c, 0, 44, 0
2, 3107, Note_on_c, 0, 56, 0
2, 3107, Note_on_c, 0, 53, 0
2, 3108, Control_c, 0, 64, 0
2, 3108, Note_on_c, 0, 37, 0
2, 3108, Note_on_c, 0, 49, 0
2, 3109, Note_on_c, 0, 65, 0
2, 3202, Control_c, 0, 64, 127
2, 3252, Note_on_c, 0, 58, 64
2, 3277, Note_on_c, 0, 49, 42
2, 3445, Note_on_c, 0, 65, 55
2, 3475, Note_on_c, 0, 53, 42
2, 3974, Control_c, 0, 64, 0
2, 3975, Note_on_c, 0, 42, 0
2, 3975, Note_on_c, 0, 49, 0
2, 3975, Note_on_c, 0, 58, 0
2, 3975, Note_on_c, 0, 53, 0
2, 3976, Note_on_c, 0, 65, 0
2, 3978, Note_on_c, 0, 54, 0
2, 4011, Note_on_c, 0, 36, 48
2, 4013, Note_on_c, 0, 54, 53
2, 4047, Control_c, 0, 64, 127
2, 4180, Note_on_c, 0, 58, 63
2, 4190, Note_on_c, 0, 48, 38
2, 4346, Note_on_c, 0, 54, 0
2, 4351, Note_on_c, 0, 63, 68
2, 4353, Note_on_c, 0, 54, 49
2, 4508, Note_on_c, 0, 48, 0
2, 4516, Note_on_c, 0, 48, 50
2, 4519, Note_on_c, 0, 60, 62
2, 4675, Note_on_c, 0, 70, 71
2, 4677, Note_on_c, 0, 58, 0
2, 4683, Note_on_c, 0, 58, 63
2, 4846, Note_on_c, 0, 54, 0
2, 4854, Note_on_c, 0, 66, 65
2, 4856, Note_on_c, 0, 54, 58
2, 5015, Note_on_c, 0, 48, 0
2, 5022, Note_on_c, 0, 63, 0
2, 5025, Note_on_c, 0, 48, 50
2, 5027, Note_on_c, 0, 63, 61
2, 5176, Note_on_c, 0, 60, 0
2, 5183, Note_on_c, 0, 60, 63
2, 5361, Note_on_c, 0, 54, 0
2, 5361, Note_on_c, 0, 63, 0
2, 5361, Note_on_c, 0, 48, 0
2, 5362, Note_on_c, 0, 58, 0
2, 5362, Note_on_c, 0, 66, 0
2, 5363, Note_on_c, 0, 70, 0
2, 5364, Control_c, 0, 64, 0
2, 5368, Note_on_c, 0, 36, 0
2, 5371, Note_on_c, 0, 69, 69
2, 5373, Note_on_c, 0, 41, 51
2, 5376, Note_on_c, 0, 65, 50
2, 5529, Control_c, 0, 64, 127
2, 5544, Note_on_c, 0, 60, 0
2, 5563, Note_on_c, 0, 48, 38
2, 5756, Note_on_c, 0, 53, 49
2, 5979, Note_on_c, 0, 57, 53
2, 6085, Control_c, 0, 64, 0
2, 6167, Control_c, 0, 64, 127
2, 6233, Note_on_c, 0, 77, 56
2, 6393, Note_on_c, 0, 78, 66
2, 6509, Note_on_c, 0, 80, 72
2, 6622, Note_on_c, 0, 82, 73
2, 6627, Note_on_c, 0, 65, 0
2, 6705, Note_on_c, 0, 84, 76
2, 6802, Note_on_c, 0, 85, 75
2, 6883, Note_on_c, 0, 87, 78
2, 6974, Note_on_c, 0, 89, 79
2, 7109, Note_on_c, 0, 90, 82
2, 7111, Note_on_c, 0, 85, 0
2, 7118, Note_on_c, 0, 85, 77
2, 7119, Note_on_c, 0, 82, 0
2, 7121, Note_on_c, 0, 51, 66
2, 7123, Note_on_c, 0, 82, 66
2, 7131, Note_on_c, 0, 77, 0
2, 7131, Note_on_c, 0, 41, 0
2, 7131, Control_c, 0, 64, 0
2, 7132, Note_on_c, 0, 53, 0
2, 7132, Note_on_c, 0, 78, 0
2, 7133, Note_on_c, 0, 84, 0
2, 7133, Note_on_c, 0, 57, 0
2, 7133, Note_on_c, 0, 89, 0
2, 7133, Note_on_c, 0, 80, 0
2, 7136, Note_on_c, 0, 87, 0
2, 7142, Note_on_c, 0, 48, 0
2, 7142, Note_on_c, 0, 69, 0
2, 7180, Control_c, 0, 64, 127
2, 7286, Note_on_c, 0, 58, 61
2, 7449, Note_on_c, 0, 85, 0
2, 7459, Note_on_c, 0, 85, 80
2, 7462, Note_on_c, 0, 63, 60
2, 7467, Note_on_c, 0, 75, 53
2, 7472, Note_on_c, 0, 75, 0
2, 7626, Note_on_c, 0, 90, 0
2, 7635, Note_on_c, 0, 84, 71
2, 7652, Note_on_c, 0, 80, 64
2, 7652, Note_on_c, 0, 68, 63
2, 7658, Control_c, 0, 64, 0
2, 7658, Note_on_c, 0, 56, 55
2, 7660, Note_on_c, 0, 51, 0
2, 7661, Note_on_c, 0, 85, 0
2, 7661, Note_on_c, 0, 58, 0
2, 7703, Note_on_c, 0, 82, 0
2, 7895, Control_c, 0, 64, 127
2, 7987, Note_on_c, 0, 92, 77
2, 8157, Note_on_c, 0, 90, 77
2, 8332, Note_on_c, 0, 80, 0
2, 8337, Note_on_c, 0, 89, 76
2, 8343, Note_on_c, 0, 80, 63
2, 8344, Note_on_c, 0, 77, 67
2, 8492, Note_on_c, 0, 68, 0
2, 8493, Note_on_c, 0, 63, 0
2, 8493, Note_on_c, 0, 56, 0
2, 8493, Note_on_c, 0, 92, 0
2, 8494, Note_on_c, 0, 90, 0
2, 8495, Control_c, 0, 64, 0
2, 8495, Note_on_c, 0, 77, 0
2, 8518, Note_on_c, 0, 49, 63
2, 8524, Note_on_c, 0, 80, 0
2, 8555, Control_c, 0, 64, 127
2, 8563, Note_on_c, 0, 84, 0
2, 8675, Note_on_c, 0, 85, 74
2, 8691, Note_on_c, 0, 56, 57
2, 8697, Note_on_c, 0, 77, 38
2, 8709, Note_on_c, 0, 89, 0
2, 8835, Note_on_c, 0, 84, 73
2, 8862, Note_on_c, 0, 61, 59
2, 9016, Note_on_c, 0, 78, 63
2, 9019, Note_on_c, 0, 82, 72
2, 9021, Control_c, 0, 64, 0
2, 9022, Note_on_c, 0, 73, 60
2, 9022, Note_on_c, 0, 77, 0
2, 9022, Note_on_c, 0, 56, 0
2, 9024, Note_on_c, 0, 49, 0
2, 9027, Note_on_c, 0, 54, 52
2, 9139, Control_c, 0, 64, 127
2, 9369, Note_on_c, 0, 84, 0
2, 9380, Note_on_c, 0, 84, 69
2, 9392, Note_on_c, 0, 82, 0
2, 9399, Note_on_c, 0, 82, 46
2, 9553, Note_on_c, 0, 85, 0
2, 9558, Note_on_c, 0, 85, 70
2, 9754, Note_on_c, 0, 87, 77
2, 9768, Note_on_c, 0, 82, 0
2, 9776, Note_on_c, 0, 78, 0
2, 9777, Note_on_c, 0, 82, 65
2, 9782, Note_on_c, 0, 78, 56
2, 9784, Note_on_c, 0, 75, 56
2, 9845, Note_on_c, 0, 61, 0
2, 9852, Note_on_c, 0, 73, 0
2, 9852, Note_on_c, 0, 85, 0
2, 9853, Note_on_c, 0, 84, 0
2, 9854, Note_on_c, 0, 54, 0
2, 9857, Control_c, 0, 64, 0
2, 9922, Control_c, 0, 64, 127
2, 9924, Note_on_c, 0, 48, 51
2, 10100, Note_on_c, 0, 54, 53
2, 10258, Note_on_c, 0, 58, 57
2, 10431, Note_on_c, 0, 84, 65
2, 10437, Note_on_c, 0, 60, 53
2, 10590, Note_on_c, 0, 87, 0
2, 10601, Note_on_c, 0, 87, 74
2, 10613, Note_on_c, 0, 75, 0
2, 10617, Note_on_c, 0, 63, 51
2, 10618, Note_on_c, 0, 75, 46
2, 10772, Note_on_c, 0, 66, 60
2, 10777, Note_on_c, 0, 90, 74
2, 10782, Note_on_c, 0, 82, 0
2, 10787, Note_on_c, 0, 82, 43
2, 10948, Note_on_c, 0, 94, 84
2, 10954, Note_on_c, 0, 70, 62
2, 11142, Note_on_c, 0, 93, 83
2, 11143, Note_on_c, 0, 84, 0
2, 11149, Note_on_c, 0, 84, 66
2, 11155, Note_on_c, 0, 81, 56
2, 11156, Note_on_c, 0, 53, 54
2, 11158, Note_on_c, 0, 89, 63
2, 11166, Note_on_c, 0, 48, 0
2, 11170, Note_on_c, 0, 82, 0
2, 11170, Note_on_c, 0, 87, 0
2, 11170, Note_on_c, 0, 58, 0
2, 11171, Note_on_c, 0, 54, 0
2, 11171, Note_on_c, 0, 90, 0
2, 11171, Note_on_c, 0, 63, 0
2, 11171, Note_on_c, 0, 60, 0
2, 11171, Note_on_c, 0, 75, 0
2, 11171, Note_on_c, 0, 70, 0
2, 11171, Note_on_c, 0, 94, 0
2, 11172, Note_on_c, 0, 66, 0
2, 11174, Control_c, 0, 64, 0
2, 11182, Note_on_c, 0, 78, 0
2, 11389, Control_c, 0, 64, 127
2, 11489, Note_on_c, 0, 81, 0
2, 11537, Note_on_c, 0, 60, 51
2, 11747, Note_on_c, 0, 65, 47
2, 11942, Note_on_c, 0, 89, 0
2, 11953, Note_on_c, 0, 69, 54
2, 11953, Note_on_c, 0, 89, 69
2, 11954, Note_on_c, 0, 81, 51
2, 12145, Note_on_c, 0, 90, 79
2, 12356, Note_on_c, 0, 87, 80
2, 12380, Note_on_c, 0, 84, 0
2, 12567, Note_on_c, 0, 84, 73
2, 12602, Note_on_c, 0, 93, 0
2, 12794, Note_on_c, 0, 81, 0
2, 12801, Note_on_c, 0, 81, 71
2, 12871, Note_on_c, 0, 90, 0
2, 13094, Note_on_c, 0, 89, 0
2, 13105, Note_on_c, 0, 89, 77
2, 14353, Note_on_c, 0, 84, 0
2, 14599, Note_on_c, 0, 53, 0
2, 15278, Note_on_c, 0, 42, 49
2, 15321, Note_on_c, 0, 87, 0
2, 15327, Control_c, 0, 64, 0
2, 15328, Note_on_c, 0, 65, 0
2, 15329, Note_on_c, 0, 69, 0
2, 15329, Note_on_c, 0, 89, 0
2, 15329, Note_on_c, 0, 60, 0
2, 15330, Note_on_c, 0, 81, 0
2, 15398, Control_c, 0, 64, 127
2, 15611, Note_on_c, 0, 49, 47
2, 15826, Note_on_c, 0, 77, 66
2, 15830, Note_on_c, 0, 54, 54
2, 16024, Note_on_c, 0, 56, 51
2, 16189, Note_on_c, 0, 77, 0
2, 16191, Note_on_c, 0, 58, 61
2, 16193, Note_on_c, 0, 77, 75
2, 16373, Note_on_c, 0, 60, 60
2, 16521, Note_on_c, 0, 75, 81
2, 16539, Note_on_c, 0, 61, 57
2, 16680, Note_on_c, 0, 77, 0
2, 16691, Note_on_c, 0, 77, 75
2, 16693, Note_on_c, 0, 63, 64
2, 16995, Note_on_c, 0, 75, 0
2, 17007, Note_on_c, 0, 75, 78
2, 17171, Note_on_c, 0, 68, 62
2, 17280, Note_on_c, 0, 42, 0
2, 17336, Note_on_c, 0, 70, 67
2, 17487, Note_on_c, 0, 75, 0
2, 17491, Note_on_c, 0, 75, 71
2, 17656, Note_on_c, 0, 77, 0
2, 17667, Note_on_c, 0, 77, 74
2, 18143, Note_on_c, 0, 54, 0
2, 18143, Note_on_c, 0, 60, 0
2, 18143, Note_on_c, 0, 49, 0
2, 18143, Note_on_c, 0, 56, 0
2, 18143, Note_on_c, 0, 68, 0
2, 18143, Note_on_c, 0, 58, 0
2, 18143, Note_on_c, 0, 70, 0
2, 18143, Note_on_c, 0, 63, 0
2, 18144, Note_on_c, 0, 75, 0
2, 18144, Note_on_c, 0, 61, 0
2, 18145, Control_c, 0, 64, 0
2, 18159, Note_on_c, 0, 42, 54
2, 18209, Control_c, 0, 64, 127
2, 18312, Note_on_c, 0, 48, 53
2, 18324, Note_on_c, 0, 42, 0
2, 18470, Note_on_c, 0, 77, 0
2, 18478, Note_on_c, 0, 77, 79
2, 18480, Note_on_c, 0, 51, 62
2, 18632, Note_on_c, 0, 56, 53
2, 18769, Note_on_c, 0, 77, 0
2, 18780, Note_on_c, 0, 77, 78
2, 18781, Note_on_c, 0, 58, 66
2, 18930, Note_on_c, 0, 60, 67
2, 19096, Note_on_c, 0, 75, 77
2, 19096, Note_on_c, 0, 61, 65
2, 19262, Note_on_c, 0, 80, 87
2, 19262, Note_on_c, 0, 63, 67
2, 19584, Note_on_c, 0, 77, 0
2, 19594, Note_on_c, 0, 77, 86
2, 19744, Note_on_c, 0, 68, 71
2, 19889, Note_on_c, 0, 73, 77
2, 20052, Note_on_c, 0, 75, 0
2, 20057, Note_on_c, 0, 75, 77
2, 20213, Note_on_c, 0, 77, 0
2, 20222, Note_on_c, 0, 77, 81
2, 20695, Note_on_c, 0, 41, 61
2, 20698, Note_on_c, 0, 48, 0
2, 20700, Control_c, 0, 64, 0
2, 20700, Note_on_c, 0, 51, 0
2, 20700, Note_on_c, 0, 60, 0
2, 20700, Note_on_c, 0, 58, 0
2, 20701, Note_on_c, 0, 68, 0
2, 20701, Note_on_c, 0, 63, 0
2, 20701, Note_on_c, 0, 61, 0
2, 20701, Note_on_c, 0, 80, 0
2, 20701, Note_on_c, 0, 56, 0
2, 20701, Note_on_c, 0, 75, 0
2, 20702, Note_on_c, 0, 73, 0
2, 20766, Control_c, 0, 64, 127
2, 20855, Note_on_c, 0, 48, 54
2, 21008, Note_on_c, 0, 51, 66
2, 21008, Note_on_c, 0, 75, 82
2, 21167, Note_on_c, 0, 55, 49
2, 21304, Note_on_c, 0, 75, 0
2, 21312, Note_on_c, 0, 75, 86
2, 21325, Note_on_c, 0, 56, 60
2, 21468, Note_on_c, 0, 58, 62
2, 21622, Note_on_c, 0, 73, 80
2, 21627, Note_on_c, 0, 60, 59
2, 21765, Note_on_c, 0, 75, 0
2, 21774, Note_on_c, 0, 75, 87
2, 21776, Note_on_c, 0, 63, 68
2, 22081, Note_on_c, 0, 78, 88
2, 22246, Note_on_c, 0, 68, 75
2, 22394, Note_on_c, 0, 77, 0
2, 22402, Note_on_c, 0, 77, 83
2, 22694, Note_on_c, 0, 75, 0
2, 22703, Note_on_c, 0, 75, 85
2, 22848, Note_on_c, 0, 63, 0
2, 22859, Note_on_c, 0, 63, 55
2, 23008, Note_on_c, 0, 72, 81
2, 23162, Note_on_c, 0, 41, 0
2, 23162, Note_on_c, 0, 75, 0
2, 23165, Note_on_c, 0, 55, 0
2, 23165, Note_on_c, 0, 60, 0
2, 23166, Note_on_c, 0, 51, 0
2, 23166, Note_on_c, 0, 68, 0
2, 23166, Note_on_c, 0, 63, 0
2, 23166, Note_on_c, 0, 56, 0
2, 23166, Note_on_c, 0, 58, 0
2, 23166, Note_on_c, 0, 78, 0
2, 23166, Note_on_c, 0, 77, 0
2, 23167, Control_c, 0, 64, 0
2, 23167, Note_on_c, 0, 73, 0
2, 23170, Note_on_c, 0, 75, 82
2, 23176, Note_on_c, 0, 46, 70
2, 23185, Note_on_c, 0, 48, 0
2, 23216, Control_c, 0, 64, 127
2, 23318, Note_on_c, 0, 53, 65
2, 23471, Note_on_c, 0, 58, 67
2, 23600, Note_on_c, 0, 46, 0
2, 23612, Note_on_c, 0, 60, 66
2, 23770, Note_on_c, 0, 73, 82
2, 23773, Note_on_c, 0, 61, 71
2, 23931, Note_on_c, 0, 63, 61
2, 24069, Note_on_c, 0, 75, 0
2, 24073, Note_on_c, 0, 75, 83
2, 24088, Note_on_c, 0, 65, 58
2, 24234, Note_on_c, 0, 77, 84
2, 24240, Note_on_c, 0, 70, 69
2, 24714, Note_on_c, 0, 58, 0
2, 24718, Note_on_c, 0, 58, 65
2, 24960, Note_on_c, 0, 72, 0
2, 25038, Note_on_c, 0, 44, 68
2, 25039, Note_on_c, 0, 56, 64
2, 25049, Note_on_c, 0, 58, 0
2, 25049, Note_on_c, 0, 61, 0
2, 25049, Note_on_c, 0, 60, 0
2, 25049, Note_on_c, 0, 53, 0
2, 25049, Note_on_c, 0, 63, 0
2, 25050, Note_on_c, 0, 70, 0
2, 25050, Note_on_c, 0, 65, 0
2, 25051, Note_on_c, 0, 75, 0
2, 25052, Note_on_c, 0, 77, 0
2, 25052, Note_on_c, 0, 73, 0
2, 25055, Control_c, 0, 64, 0
2, 25105, Control_c, 0, 64, 127
2, 25347, Note_on_c, 0, 51, 67
2, 25650, Note_on_c, 0, 56, 0
2, 25650, Note_on_c, 0, 51, 0
2, 25652, Note_on_c, 0, 44, 0
2, 25653, Control_c, 0, 64, 0
2, 25675, Note_on_c, 0, 42, 73
2, 25712, Control_c, 0, 64, 127
2, 25833, Note_on_c, 0, 49, 59
2, 25968, Note_on_c, 0, 54, 70
2, 25975, Note_on_c, 0, 89, 93
2, 25982, Note_on_c, 0, 77, 73
2, 26117, Note_on_c, 0, 56, 54
2, 26265, Note_on_c, 0, 89, 0
2, 26273, Note_on_c, 0, 77, 0
2, 26274, Note_on_c, 0, 89, 99
2, 26276, Note_on_c, 0, 58, 76
2, 26283, Note_on_c, 0, 77, 81
2, 26421, Note_on_c, 0, 60, 66
2, 26563, Note_on_c, 0, 87, 89
2, 26568, Note_on_c, 0, 75, 81
2, 26569, Note_on_c, 0, 61, 68
2, 26726, Note_on_c, 0, 89, 0
2, 26730, Note_on_c, 0, 89, 96
2, 26733, Note_on_c, 0, 63, 78
2, 26734, Note_on_c, 0, 77, 0
2, 26739, Note_on_c, 0, 77, 81
2, 27018, Note_on_c, 0, 87, 0
2, 27022, Note_on_c, 0, 87, 90
2, 27025, Note_on_c, 0, 75, 0
2, 27029, Note_on_c, 0, 75, 76
2, 27174, Note_on_c, 0, 68, 74
2, 27328, Note_on_c, 0, 82, 86
2, 27341, Note_on_c, 0, 70, 64
2, 27471, Note_on_c, 0, 87, 0
2, 27476, Note_on_c, 0, 87, 89
2, 27479, Note_on_c, 0, 75, 0
2, 27486, Note_on_c, 0, 75, 67
2, 27624, Note_on_c, 0, 63, 0
2, 27624, Note_on_c, 0, 89, 0
2, 27631, Note_on_c, 0, 63, 75
2, 27634, Note_on_c, 0, 89, 97
2, 27640, Note_on_c, 0, 77, 0
2, 27649, Note_on_c, 0, 77, 80
2, 28108, Note_on_c, 0, 42, 0
2, 28115, Note_on_c, 0, 87, 0
2, 28116, Note_on_c, 0, 42, 76
2, 28116, Note_on_c, 0, 60, 0
2, 28117, Note_on_c, 0, 89, 0
2, 28117, Note_on_c, 0, 56, 0
2, 28117, Note_on_c, 0, 54, 0
2, 28117, Note_on_c, 0, 68, 0
2, 28117, Note_on_c, 0, 70, 0
2, 28117, Note_on_c, 0, 77, 0
2, 28117, Note_on_c, 0, 82, 0
2, 28117, Note_on_c, 0, 75, 0
2, 28117, Note_on_c, 0, 58, 0
2, 28118, Note_on_c, 0, 61, 0
2, 28118, Note_on_c, 0, 63, 0
2, 28118, Control_c, 0, 64, 0
2, 28131, Note_on_c, 0, 49, 0
2, 28177, Control_c, 0, 64, 127
2, 28276, Note_on_c, 0, 48, 67
2, 28300, Note_on_c, 0, 42, 0
2, 28430, Note_on_c, 0, 89, 99
2, 28431, Note_on_c, 0, 51, 71
2, 28439, Note_on_c, 0, 77, 84
2, 28574, Note_on_c, 0, 56, 71
2, 28723, Note_on_c, 0, 89, 0
2, 28730, Note_on_c, 0, 77, 0
2, 28733, Note_on_c, 0, 58, 77
2, 28733, Note_on_c, 0, 89, 102
2, 28740, Note_on_c, 0, 77, 86
2, 28743, Note_on_c, 0, 82, 64
2, 28876, Note_on_c, 0, 60, 72
2, 29026, Note_on_c, 0, 87, 91
2, 29026, Note_on_c, 0, 61, 73
2, 29027, Note_on_c, 0, 75, 88
2, 29189, Note_on_c, 0, 63, 72
2, 29194, Note_on_c, 0, 92, 99
2, 29204, Note_on_c, 0, 80, 79
2, 29491, Note_on_c, 0, 77, 0
2, 29491, Note_on_c, 0, 89, 0
2, 29496, Note_on_c, 0, 89, 98
2, 29501, Note_on_c, 0, 77, 79
2, 29642, Note_on_c, 0, 68, 86
2, 29788, Note_on_c, 0, 85, 93
2, 29793, Note_on_c, 0, 73, 83
2, 29936, Note_on_c, 0, 75, 0
2, 29936, Note_on_c, 0, 87, 0
2, 29943, Note_on_c, 0, 87, 90
2, 29945, Note_on_c, 0, 75, 70
2, 30105, Note_on_c, 0, 63, 0
2, 30105, Note_on_c, 0, 89, 0
2, 30110, Note_on_c, 0, 89, 96
2, 30113, Note_on_c, 0, 77, 0
2, 30114, Note_on_c, 0, 63, 69
2, 30120, Note_on_c, 0, 77, 82
2, 30570, Note_on_c, 0, 68, 0
2, 30570, Note_on_c, 0, 87, 0
2, 30571, Note_on_c, 0, 58, 0
2, 30571, Note_on_c, 0, 85, 0
2, 30571, Note_on_c, 0, 56, 0
2, 30571, Note_on_c, 0, 82, 0
2, 30571, Note_on_c, 0, 61, 0
2, 30571, Note_on_c, 0, 63, 0
2, 30571, Note_on_c, 0, 73, 0
2, 30571, Note_on_c, 0, 77, 0
2, 30571, Note_on_c, 0, 51, 0
2, 30571, Note_on_c, 0, 89, 0
2, 30571, Note_on_c, 0, 80, 0
2, 30571, Note_on_c, 0, 60, 0
2, 30572, Note_on_c, 0, 92, 0
2, 30572, Control_c, 0, 64, 0
2, 30581, Note_on_c, 0, 41, 71
2, 30581, Note_on_c, 0, 48, 0
2, 30589, Note_on_c, 0, 75, 0
2, 30627, Control_c, 0, 64, 127
2, 30725, Note_on_c, 0, 48, 64
2, 30868, Note_on_c, 0, 87, 94
2, 30879, Note_on_c, 0, 75, 77
2, 30881, Note_on_c, 0, 51, 70
2, 31022, Note_on_c, 0, 55, 69
2, 31165, Note_on_c, 0, 75, 0
2, 31165, Note_on_c, 0, 87, 0
2, 31169, Note_on_c, 0, 87, 97
2, 31169, Note_on_c, 0, 75, 82
2, 31169, Note_on_c, 0, 56, 68
2, 31317, Note_on_c, 0, 58, 73
2, 31454, Note_on_c, 0, 60, 74
2, 31458, Note_on_c, 0, 85, 87
2, 31465, Note_on_c, 0, 73, 82
2, 31618, Note_on_c, 0, 87, 0
2, 31626, Note_on_c, 0, 75, 0
2, 31627, Note_on_c, 0, 87, 92
2, 31629, Note_on_c, 0, 63, 72
2, 31630, Note_on_c, 0, 75, 77
2, 31937, Note_on_c, 0, 90, 100
2, 31943, Note_on_c, 0, 78, 88
2, 32081, Note_on_c, 0, 68, 79
2, 32247, Note_on_c, 0, 89, 99
2, 32251, Note_on_c, 0, 77, 84
2, 32532, Note_on_c, 0, 75, 0
2, 32532, Note_on_c, 0, 87, 0
2, 32538, Note_on_c, 0, 87, 93
2, 32543, Note_on_c, 0, 75, 82
2, 32670, Note_on_c, 0, 63, 0
2, 32680, Note_on_c, 0, 63, 71
2, 32827, Note_on_c, 0, 84, 85
2, 32829, Note_on_c, 0, 72, 77
2, 32973, Note_on_c, 0, 41, 0
2, 32974, Control_c, 0, 64, 0
2, 32974, Note_on_c, 0, 60, 0
2, 32974, Note_on_c, 0, 56, 0
2, 32974, Note_on_c, 0, 63, 0
2, 32975, Note_on_c, 0, 68, 0
2, 32975, Note_on_c, 0, 51, 0
2, 32975, Note_on_c, 0, 77, 0
2, 32975, Note_on_c, 0, 78, 0
2, 32975, Note_on_c, 0, 55, 0
2, 32975, Note_on_c, 0, 89, 0
2, 32975, Note_on_c, 0, 72, 0
2, 32976, Note_on_c, 0, 85, 0
2, 32976, Note_on_c, 0, 58, 0
2, 32976, Note_on_c, 0, 84, 0
2, 32976, Note_on_c, 0, 73, 0
2, 32985, Note_on_c, 0, 48, 0
2, 32985, Note_on_c, 0, 87, 0
2, 32985, Note_on_c, 0, 90, 0
2, 32990, Note_on_c, 0, 87, 91
2, 32991, Note_on_c, 0, 46, 76
2, 32993, Note_on_c, 0, 75, 0
2, 33002, Note_on_c, 0, 75, 78
2, 33047, Control_c, 0, 64, 127
2, 33138, Note_on_c, 0, 53, 61
2, 33291, Note_on_c, 0, 58, 70
2, 33420, Note_on_c, 0, 60, 63
2, 33578, Note_on_c, 0, 62, 69
2, 33579, Note_on_c, 0, 86, 91
2, 33585, Note_on_c, 0, 74, 81
2, 33728, Note_on_c, 0, 63, 61
2, 33876, Note_on_c, 0, 87, 0
2, 33880, Note_on_c, 0, 87, 84
2, 33884, Note_on_c, 0, 75, 0
2, 33888, Note_on_c, 0, 65, 59
2, 33888, Note_on_c, 0, 75, 66
2, 34035, Note_on_c, 0, 89, 98
2, 34041, Note_on_c, 0, 70, 74
2, 34042, Note_on_c, 0, 77, 79
2, 34375, Note_on_c, 0, 58, 0
2, 34383, Note_on_c, 0, 58, 67
2, 34512, Note_on_c, 0, 62, 0
2, 34513, Note_on_c, 0, 63, 0
2, 34514, Control_c, 0, 64, 0
2, 34514, Note_on_c, 0, 53, 0
2, 34515, Note_on_c, 0, 74, 0
2, 34515, Note_on_c, 0, 75, 0
2, 34515, Note_on_c, 0, 87, 0
2, 34516, Note_on_c, 0, 65, 0
2, 34516, Note_on_c, 0, 77, 0
2, 34516, Note_on_c, 0, 70, 0
2, 34517, Note_on_c, 0, 60, 0
2, 34518, Note_on_c, 0, 86, 0
2, 34529, Note_on_c, 0, 46, 0
2, 34538, Note_on_c, 0, 46, 63
2, 34544, Note_on_c, 0, 89, 0
2, 34544, Control_c, 0, 64, 127
2, 34848, Note_on_c, 0, 65, 68
2, 34854, Control_c, 0, 64, 0
2, 34967, Control_c, 0, 64, 127
2, 35152, Note_on_c, 0, 66, 69
2, 35448, Note_on_c, 0, 68, 83
2, 35466, Note_on_c, 0, 58, 0
2, 35469, Note_on_c, 0, 61, 61
2, 35470, Note_on_c, 0, 58, 58
2, 35476, Note_on_c, 0, 39, 50
2, 35476, Note_on_c, 0, 65, 0
2, 35478, Note_on_c, 0, 46, 0
2, 35478, Note_on_c, 0, 66, 0
2, 35485, Control_c, 0, 64, 0
2, 35581, Control_c, 0, 64, 127
2, 35739, Note_on_c, 0, 46, 59
2, 35896, Note_on_c, 0, 61, 0
2, 35907, Note_on_c, 0, 61, 68
2, 35924, Note_on_c, 0, 54, 55
2, 36049, Note_on_c, 0, 68, 0
2, 36058, Note_on_c, 0, 68, 81
2, 36357, Note_on_c, 0, 61, 0
2, 36363, Note_on_c, 0, 61, 64
2, 36495, Note_on_c, 0, 68, 0
2, 36505, Note_on_c, 0, 68, 73
2, 36625, Note_on_c, 0, 58, 0
2, 36631, Note_on_c, 0, 54, 0
2, 36631, Note_on_c, 0, 46, 0
2, 36632, Control_c, 0, 64, 0
2, 36633, Note_on_c, 0, 61, 0
2, 36635, Note_on_c, 0, 39, 0
2, 36666, Note_on_c, 0, 41, 65
2, 36702, Control_c, 0, 64, 127
2, 36794, Note_on_c, 0, 68, 0
2, 36802, Note_on_c, 0, 68, 73
2, 36818, Note_on_c, 0, 63, 50
2, 36940, Note_on_c, 0, 48, 49
2, 36945, Note_on_c, 0, 70, 75
2, 37102, Note_on_c, 0, 68, 0
2, 37106, Note_on_c, 0, 68, 84
2, 37132, Note_on_c, 0, 60, 59
2, 37132, Note_on_c, 0, 63, 0
2, 37138, Note_on_c, 0, 63, 61
2, 37138, Note_on_c, 0, 56, 58
2, 37578, Note_on_c, 0, 48, 0
2, 37584, Note_on_c, 0, 48, 56
2, 37885, Note_on_c, 0, 68, 0
2, 37888, Note_on_c, 0, 56, 0
2, 37888, Note_on_c, 0, 41, 0
2, 37888, Note_on_c, 0, 60, 0
2, 37889, Note_on_c, 0, 63, 0
2, 37889, Control_c, 0, 64, 0
2, 37889, Note_on_c, 0, 48, 0
2, 37890, Note_on_c, 0, 68, 82
2, 37890, Note_on_c, 0, 70, 0
2, 37899, Note_on_c, 0, 42, 70
2, 37903, Note_on_c, 0, 61, 74
2, 38016, Control_c, 0, 64, 127
2, 38120, Note_on_c, 0, 66, 77
2, 38210, Note_on_c, 0, 49, 64
2, 38362, Note_on_c, 0, 65, 77
2, 38379, Note_on_c, 0, 58, 72
2, 38519, Note_on_c, 0, 63, 90
2, 38807, Note_on_c, 0, 68, 0
2, 38813, Note_on_c, 0, 68, 80
2, 38967, Note_on_c, 0, 70, 83
2, 38976, Note_on_c, 0, 63, 0
2, 38987, Note_on_c, 0, 63, 73
2, 39002, Note_on_c, 0, 60, 74
2, 39072, Note_on_c, 0, 49, 0
2, 39072, Note_on_c, 0, 65, 0
2, 39072, Note_on_c, 0, 68, 0
2, 39072, Note_on_c, 0, 58, 0
2, 39072, Note_on_c, 0, 61, 0
2, 39074, Note_on_c, 0, 66, 0
2, 39075, Note_on_c, 0, 42, 0
2, 39077, Control_c, 0, 64, 0
2, 39103, Note_on_c, 0, 41, 68
2, 39183, Control_c, 0, 64, 127
2, 39261, Note_on_c, 0, 72, 89
2, 39401, Note_on_c, 0, 48, 61
2, 39566, Note_on_c, 0, 68, 93
2, 39590, Note_on_c, 0, 60, 0
2, 39596, Note_on_c, 0, 60, 58
2, 39598, Note_on_c, 0, 63, 0
2, 39601, Note_on_c, 0, 56, 66
2, 39608, Note_on_c, 0, 63, 59
2, 39866, Note_on_c, 0, 48, 0
2, 39877, Note_on_c, 0, 48, 60
2, 40028, Note_on_c, 0, 41, 0
2, 40036, Note_on_c, 0, 41, 58
2, 40335, Note_on_c, 0, 68, 0
2, 40346, Note_on_c, 0, 68, 93
2, 40355, Control_c, 0, 64, 0
2, 40355, Note_on_c, 0, 58, 77
2, 40356, Note_on_c, 0, 61, 77
2, 40361, Note_on_c, 0, 39, 68
2, 40366, Note_on_c, 0, 56, 0
2, 40368, Note_on_c, 0, 48, 0
2, 40368, Note_on_c, 0, 60, 0
2, 40369, Note_on_c, 0, 63, 0
2, 40369, Note_on_c, 0, 41, 0
2, 40370, Note_on_c, 0, 72, 0
2, 40370, Note_on_c, 0, 70, 0
2, 40450, Control_c, 0, 64, 127
2, 40638, Note_on_c, 0, 46, 64
2, 40788, Note_on_c, 0, 61, 0
2, 40799, Note_on_c, 0, 61, 79
2, 40817, Note_on_c, 0, 54, 69
2, 40934, Note_on_c, 0, 68, 0
2, 40945, Note_on_c, 0, 68, 91
2, 41233, Note_on_c, 0, 61, 0
2, 41243, Note_on_c, 0, 61, 71
2, 41379, Note_on_c, 0, 68, 0
2, 41391, Note_on_c, 0, 68, 95
2, 41418, Note_on_c, 0, 60, 71
2, 41423, Note_on_c, 0, 63, 76
2, 41464, Note_on_c, 0, 58, 0
2, 41467, Control_c, 0, 64, 0
2, 41469, Note_on_c, 0, 46, 0
2, 41469, Note_on_c, 0, 61, 0
2, 41469, Note_on_c, 0, 54, 0
2, 41495, Note_on_c, 0, 39, 0
2, 41548, Note_on_c, 0, 41, 71
2, 41564, Control_c, 0, 64, 127
2, 41694, Note_on_c, 0, 68, 0
2, 41704, Note_on_c, 0, 68, 89
2, 41838, Note_on_c, 0, 48, 66
2, 41844, Note_on_c, 0, 70, 84
2, 41994, Note_on_c, 0, 68, 0
2, 42001, Note_on_c, 0, 63, 0
2, 42004, Note_on_c, 0, 68, 77
2, 42009, Note_on_c, 0, 60, 0
2, 42012, Note_on_c, 0, 63, 78
2, 42016, Note_on_c, 0, 60, 66
2, 42020, Note_on_c, 0, 56, 72
2, 42278, Note_on_c, 0, 48, 0
2, 42288, Note_on_c, 0, 48, 59
2, 42408, Note_on_c, 0, 70, 0
2, 42416, Note_on_c, 0, 70, 81
2, 42558, Note_on_c, 0, 72, 83
2, 42700, Note_on_c, 0, 72, 0
2, 42708, Note_on_c, 0, 42, 77
2, 42709, Control_c, 0, 64, 0
2, 42710, Note_on_c, 0, 41, 0
2, 42710, Note_on_c, 0, 60, 0
2, 42711, Note_on_c, 0, 70, 0
2, 42711, Note_on_c, 0, 63, 0
2, 42711, Note_on_c, 0, 48, 0
2, 42711, Note_on_c, 0, 72, 96
2, 42711, Note_on_c, 0, 68, 0
2, 42711, Note_on_c, 0, 56, 0
2, 42740, Note_on_c, 0, 66, 58
2, 42800, Control_c, 0, 64, 127
2, 42873, Note_on_c, 0, 49, 63
2, 43004, Note_on_c, 0, 54, 70
2, 43156, Note_on_c, 0, 73, 85
2, 43158, Note_on_c, 0, 56, 63
2, 43297, Note_on_c, 0, 70, 92
2, 43301, Note_on_c, 0, 58, 80
2, 43430, Note_on_c, 0, 54, 0
2, 43435, Note_on_c, 0, 54, 65
2, 43560, Note_on_c, 0, 58, 0
2, 43571, Note_on_c, 0, 58, 69
2, 43737, Note_on_c, 0, 66, 0
2, 43741, Note_on_c, 0, 66, 88
2, 44036, Note_on_c, 0, 61, 75
2, 44175, Note_on_c, 0, 70, 0
2, 44180, Note_on_c, 0, 70, 94
2, 44313, Note_on_c, 0, 54, 0
2, 44322, Note_on_c, 0, 54, 77
2, 44467, Note_on_c, 0, 70, 0
2, 44478, Note_on_c, 0, 70, 95
2, 44620, Note_on_c, 0, 49, 0
2, 44625, Note_on_c, 0, 49, 78
2, 44766, Note_on_c, 0, 72, 0
2, 44777, Note_on_c, 0, 72, 96
2, 44904, Note_on_c, 0, 42, 0
2, 44915, Note_on_c, 0, 42, 72
2, 45064, Note_on_c, 0, 56, 0
2, 45065, Note_on_c, 0, 54, 0
2, 45065, Note_on_c, 0, 58, 0
2, 45065, Note_on_c, 0, 61, 0
2, 45066, Note_on_c, 0, 66, 0
2, 45067, Note_on_c, 0, 42, 0
2, 45067, Note_on_c, 0, 49, 0
2, 45067, Note_on_c, 0, 70, 0
2, 45067, Note_on_c, 0, 72, 0
2, 45068, Control_c, 0, 64, 0
2, 45073, Note_on_c, 0, 73, 0
2, 45078, Note_on_c, 0, 73, 100
2, 45086, Note_on_c, 0, 68, 87
2, 45088, Note_on_c, 0, 63, 84
2, 45089, Note_on_c, 0, 44, 80
2, 45166, Control_c, 0, 64, 127
2, 45246, Note_on_c, 0, 51, 60
2, 45375, Note_on_c, 0, 56, 73
2, 45523, Note_on_c, 0, 61, 77
2, 45665, Note_on_c, 0, 63, 0
2, 45671, Note_on_c, 0, 63, 80
2, 45818, Note_on_c, 0, 56, 0
2, 45828, Note_on_c, 0, 56, 84
2, 45993, Note_on_c, 0, 53, 59
2, 46122, Note_on_c, 0, 72, 96
2, 46126, Note_on_c, 0, 44, 0
2, 46127, Note_on_c, 0, 69, 88
2, 46129, Note_on_c, 0, 41, 88
2, 46129, Note_on_c, 0, 60, 95
2, 46130, Note_on_c, 0, 65, 85
2, 46151, Note_on_c, 0, 73, 0
2, 46151, Note_on_c, 0, 68, 0
2, 46152, Note_on_c, 0, 51, 0
2, 46152, Note_on_c, 0, 61, 0
2, 46152, Note_on_c, 0, 63, 0
2, 46152, Note_on_c, 0, 56, 0
2, 46153, Note_on_c, 0, 53, 0
2, 46156, Control_c, 0, 64, 0
2, 46225, Control_c, 0, 64, 127
2, 46402, Note_on_c, 0, 41, 0
2, 46412, Note_on_c, 0, 41, 83
2, 46555, Note_on_c, 0, 29, 101
2, 46697, Note_on_c, 0, 72, 0
2, 46697, Control_c, 0, 64, 0
2, 46697, Note_on_c, 0, 60, 0
2, 46698, Note_on_c, 0, 65, 0
2, 46698, Note_on_c, 0, 69, 0
2, 46725, Note_on_c, 0, 41, 0
2, 46858, Note_on_c, 0, 79, 108
2, 46860, Note_on_c, 0, 67, 106
2, 46863, Note_on_c, 0, 29, 0
2, 46901, Control_c, 0, 64, 127
2, 47032, Note_on_c, 0, 67, 0
2, 47151, Note_on_c, 0, 84, 106
2, 47153, Note_on_c, 0, 72, 103
2, 47257, Control_c, 0, 64, 0
2, 47362, Note_on_c, 0, 79, 0
2, 47430, Note_on_c, 0, 86, 105
2, 47436, Note_on_c, 0, 74, 101
2, 47438, Note_on_c, 0, 79, 96
2, 47441, Note_on_c, 0, 82, 94
2, 47441, Note_on_c, 0, 39, 102
2, 47441, Note_on_c, 0, 27, 104
2, 47447, Note_on_c, 0, 72, 0
2, 47477, Control_c, 0, 64, 127
2, 47577, Note_on_c, 0, 84, 0
2, 47585, Note_on_c, 0, 39, 0
2, 47588, Note_on_c, 0, 84, 100
2, 47590, Note_on_c, 0, 39, 88
2, 47591, Note_on_c, 0, 72, 96
2, 47731, Note_on_c, 0, 86, 0
2, 47738, Note_on_c, 0, 74, 0
2, 47741, Note_on_c, 0, 86, 99
2, 47746, Note_on_c, 0, 74, 90
2, 47754, Note_on_c, 0, 82, 0
2, 47763, Note_on_c, 0, 82, 73
2, 47795, Note_on_c, 0, 74, 0
2, 47795, Note_on_c, 0, 27, 0
2, 47796, Note_on_c, 0, 79, 0
2, 47796, Note_on_c, 0, 72, 0
2, 47796, Note_on_c, 0, 84, 0
2, 47796, Note_on_c, 0, 82, 0
2, 47796, Note_on_c, 0, 86, 0
2, 47796, Note_on_c, 0, 39, 0
2, 47797, Control_c, 0, 64, 0
2, 47882, Note_on_c, 0, 63, 96
2, 47887, Note_on_c, 0, 58, 87
2, 47888, Note_on_c, 0, 55, 83
2, 47890, Note_on_c, 0, 67, 92
2, 47892, Note_on_c, 0, 79, 99
2, 47930, Control_c, 0, 64, 127
2, 48180, Note_on_c, 0, 55, 0
2, 48181, Note_on_c, 0, 67, 0
2, 48181, Note_on_c, 0, 84, 103
2, 48182, Note_on_c, 0, 58, 0
2, 48183, Note_on_c, 0, 63, 0
2, 48183, Note_on_c, 0, 79, 0
2, 48185, Control_c, 0, 64, 0
2, 48187, Note_on_c, 0, 72, 102
2, 48188, Note_on_c, 0, 39, 96
2, 48188, Note_on_c, 0, 27, 99
2, 48226, Note_on_c, 0, 39, 0
2, 48229, Note_on_c, 0, 27, 0
2, 48291, Note_on_c, 0, 84, 0
2, 48327, Note_on_c, 0, 39, 89
2, 48328, Note_on_c, 0, 27, 95
2, 48422, Note_on_c, 0, 27, 0
2, 48487, Note_on_c, 0, 86, 107
2, 48487, Note_on_c, 0, 77, 96
2, 48490, Note_on_c, 0, 74, 103
2, 48491, Note_on_c, 0, 39, 0
2, 48494, Note_on_c, 0, 82, 94
2, 48500, Note_on_c, 0, 39, 90
2, 48501, Note_on_c, 0, 27, 100
2, 48522, Control_c, 0, 64, 127
2, 48576, Note_on_c, 0, 72, 0
2, 48789, Note_on_c, 0, 84, 103
2, 48795, Note_on_c, 0, 72, 99
2, 48898, Note_on_c, 0, 27, 0
2, 48933, Note_on_c, 0, 58, 68
2, 48934, Note_on_c, 0, 51, 88
2, 49067, Note_on_c, 0, 72, 0
2, 49067, Note_on_c, 0, 84, 0
2, 49075, Note_on_c, 0, 84, 103
2, 49075, Note_on_c, 0, 58, 0
2, 49078, Note_on_c, 0, 72, 103
2, 49079, Note_on_c, 0, 75, 97
2, 49079, Note_on_c, 0, 63, 97
2, 49081, Note_on_c, 0, 81, 97
2, 49083, Note_on_c, 0, 55, 90
2, 49085, Note_on_c, 0, 58, 89
2, 49367, Note_on_c, 0, 81, 0
2, 49378, Note_on_c, 0, 81, 106
2, 49379, Note_on_c, 0, 69, 96
2, 49620, Note_on_c, 0, 39, 0
2, 49624, Note_on_c, 0, 39, 84
2, 49627, Note_on_c, 0, 27, 91
2, 49765, Note_on_c, 0, 86, 0
2, 49766, Note_on_c, 0, 55, 0
2, 49766, Note_on_c, 0, 51, 0
2, 49766, Note_on_c, 0, 74, 0
2, 49767, Note_on_c, 0, 63, 0
2, 49767, Note_on_c, 0, 27, 0
2, 49767, Note_on_c, 0, 39, 0
2, 49767, Note_on_c, 0, 75, 0
2, 49767, Note_on_c, 0, 82, 0
2, 49768, Control_c, 0, 64, 0
2, 49768, Note_on_c, 0, 69, 0
2, 49768, Note_on_c, 0, 81, 0
2, 49768, Note_on_c, 0, 58, 0
2, 49774, Note_on_c, 0, 72, 0
2, 49774, Note_on_c, 0, 77, 0
2, 49774, Note_on_c, 0, 84, 0
2, 49779, Note_on_c, 0, 84, 105
2, 49780, Note_on_c, 0, 77, 94
2, 49782, Note_on_c, 0, 72, 103
2, 49785, Note_on_c, 0, 38, 104
2, 49785, Note_on_c, 0, 26, 106
2, 49826, Note_on_c, 0, 26, 0
2, 49843, Control_c, 0, 64, 127
2, 49935, Note_on_c, 0, 77, 0
2, 49936, Note_on_c, 0, 82, 90
2, 49938, Note_on_c, 0, 70, 86
2, 49939, Note_on_c, 0, 77, 66
2, 50065, Note_on_c, 0, 84, 0
2, 50073, Note_on_c, 0, 84, 100
2, 50073, Note_on_c, 0, 72, 0
2, 50082, Note_on_c, 0, 72, 90
2, 50088, Note_on_c, 0, 50, 75
2, 50158, Note_on_c, 0, 84, 0
2, 50159, Note_on_c, 0, 72, 0
2, 50160, Note_on_c, 0, 77, 0
2, 50161, Note_on_c, 0, 50, 0
2, 50161, Note_on_c, 0, 82, 0
2, 50163, Control_c, 0, 64, 0
2, 50173, Note_on_c, 0, 38, 0
2, 50181, Note_on_c, 0, 70, 0
2, 50231, Note_on_c, 0, 62, 91
2, 50231, Note_on_c, 0, 53, 86
2, 50231, Note_on_c, 0, 57, 91
2, 50232, Note_on_c, 0, 77, 98
2, 50234, Note_on_c, 0, 74, 82
2, 50236, Note_on_c, 0, 65, 95
2, 50257, Control_c, 0, 64, 127
2, 50280, Note_on_c, 0, 65, 0
2, 50500, Control_c, 0, 64, 0
2, 50502, Note_on_c, 0, 74, 0
2, 50506, Note_on_c, 0, 77, 0
2, 50514, Note_on_c, 0, 82, 100
2, 50515, Note_on_c, 0, 70, 95
2, 50519, Note_on_c, 0, 53, 0
2, 50519, Note_on_c, 0, 57, 0
2, 50519, Note_on_c, 0, 62, 0
2, 50519, Note_on_c, 0, 38, 95
2, 50524, Note_on_c, 0, 26, 98
2, 50544, Note_on_c, 0, 70, 0
2, 50547, Note_on_c, 0, 26, 0
2, 50554, Note_on_c, 0, 38, 0
2, 50557, Note_on_c, 0, 82, 0
2, 50652, Note_on_c, 0, 84, 104
2, 50659, Note_on_c, 0, 72, 95
2, 50661, Note_on_c, 0, 78, 76
2, 50661, Note_on_c, 0, 33, 84
2, 50663, Note_on_c, 0, 26, 98
2, 50663, Note_on_c, 0, 38, 88
2, 50672, Note_on_c, 0, 26, 0
2, 50672, Note_on_c, 0, 33, 0
2, 50687, Note_on_c, 0, 72, 0
2, 50687, Note_on_c, 0, 84, 0
2, 50692, Note_on_c, 0, 78, 0
2, 50726, Note_on_c, 0, 38, 0
2, 50806, Note_on_c, 0, 87, 110
2, 50806, Note_on_c, 0, 83, 98
2, 50809, Note_on_c, 0, 79, 91
2, 50812, Note_on_c, 0, 75, 108
2, 50815, Note_on_c, 0, 43, 105
2, 50816, Note_on_c, 0, 31, 103
2, 50849, Control_c, 0, 64, 127
2, 51108, Note_on_c, 0, 86, 99
2, 51114, Note_on_c, 0, 74, 90
2, 51256, Note_on_c, 0, 43, 0
2, 51261, Note_on_c, 0, 84, 100
2, 51262, Note_on_c, 0, 55, 87
2, 51262, Note_on_c, 0, 72, 96
2, 51265, Note_on_c, 0, 43, 87
2, 51395, Control_c, 0, 64, 0
2, 51401, Note_on_c, 0, 87, 0
2, 51402, Note_on_c, 0, 74, 0
2, 51402, Note_on_c, 0, 79, 0
2, 51402, Note_on_c, 0, 83, 0
2, 51402, Note_on_c, 0, 86, 0
2, 51406, Note_on_c, 0, 75, 0
2, 51407, Note_on_c, 0, 86, 105
2, 51408, Note_on_c, 0, 84, 0
2, 51409, Note_on_c, 0, 55, 0
2, 51410, Note_on_c, 0, 72, 0
2, 51412, Note_on_c, 0, 83, 101
2, 51412, Note_on_c, 0, 62, 89
2, 51412, Note_on_c, 0, 74, 101
2, 51413, Note_on_c, 0, 59, 95
2, 51413, Note_on_c, 0, 79, 96
2, 51414, Note_on_c, 0, 55, 85
2, 51440, Control_c, 0, 64, 127
2, 51666, Note_on_c, 0, 86, 0
2, 51666, Note_on_c, 0, 83, 0
2, 51666, Note_on_c, 0, 79, 0
2, 51666, Note_on_c, 0, 74, 0
2, 51667, Control_c, 0, 64, 0
2, 51667, Note_on_c, 0, 59, 0
2, 51671, Note_on_c, 0, 62, 0
2, 51678, Note_on_c, 0, 55, 0
2, 51694, Note_on_c, 0, 31, 0
2, 51694, Note_on_c, 0, 43, 0
2, 51698, Note_on_c, 0, 43, 98
2, 51700, Note_on_c, 0, 31, 93
2, 51732, Control_c, 0, 64, 127
2, 51852, Note_on_c, 0, 86, 105
2, 51855, Note_on_c, 0, 74, 100
2, 51985, Note_on_c, 0, 31, 0
2, 51985, Note_on_c, 0, 43, 0
2, 51992, Note_on_c, 0, 87, 104
2, 51996, Note_on_c, 0, 31, 90
2, 51997, Note_on_c, 0, 43, 90
2, 51997, Note_on_c, 0, 75, 99
2, 52073, Note_on_c, 0, 86, 0
2, 52074, Note_on_c, 0, 74, 0
2, 52074, Note_on_c, 0, 87, 0
2, 52074, Note_on_c, 0, 43, 0
2, 52075, Note_on_c, 0, 75, 0
2, 52076, Note_on_c, 0, 31, 0
2, 52077, Control_c, 0, 64, 0
2, 52129, Note_on_c, 0, 86, 107
2, 52134, Note_on_c, 0, 74, 108
2, 52141, Note_on_c, 0, 36, 98
2, 52141, Note_on_c, 0, 24, 98
2, 52147, Control_c, 0, 64, 127
2, 52170, Note_on_c, 0, 24, 0
2, 52428, Note_on_c, 0, 60, 89
2, 52432, Note_on_c, 0, 55, 81
2, 52435, Note_on_c, 0, 51, 87
2, 52574, Note_on_c, 0, 84, 99
2, 52576, Note_on_c, 0, 75, 98
2, 52577, Note_on_c, 0, 79, 93
2, 52579, Note_on_c, 0, 72, 98
2, 52707, Note_on_c, 0, 84, 0
2, 52715, Note_on_c, 0, 72, 0
2, 52715, Note_on_c, 0, 75, 0
2, 52715, Note_on_c, 0, 79, 0
2, 52716, Note_on_c, 0, 86, 0
2, 52718, Note_on_c, 0, 84, 100
2, 52718, Note_on_c, 0, 74, 0
2, 52718, Note_on_c, 0, 51, 0
2, 52718, Note_on_c, 0, 60, 0
2, 52718, Note_on_c, 0, 55, 0
2, 52718, Control_c, 0, 64, 0
2, 52719, Note_on_c, 0, 75, 104
2, 52719, Note_on_c, 0, 72, 97
2, 52720, Note_on_c, 0, 79, 86
2, 52738, Note_on_c, 0, 36, 0
2, 52838, Control_c, 0, 64, 127
2, 52864, Note_on_c, 0, 48, 93
2, 52864, Note_on_c, 0, 36, 98
2, 52899, Control_c, 0, 64, 0
2, 52900, Note_on_c, 0, 48, 0
2, 52900, Note_on_c, 0, 36, 0
2, 53002, Note_on_c, 0, 46, 93
2, 53002, Note_on_c, 0, 34, 96
2, 53035, Note_on_c, 0, 46, 0
2, 53038, Note_on_c, 0, 34, 0
2, 53152, Note_on_c, 0, 33, 103
2, 53153, Note_on_c, 0, 45, 107
2, 53199, Control_c, 0, 64, 127
2, 53422, Note_on_c, 0, 33, 0
2, 53422, Note_on_c, 0, 45, 0
2, 53432, Note_on_c, 0, 45, 89
2, 53433, Note_on_c, 0, 33, 89
2, 53548, Control_c, 0, 64, 0
2, 53550, Note_on_c, 0, 72, 0
2, 53551, Note_on_c, 0, 75, 0
2, 53553, Note_on_c, 0, 45, 0
2, 53554, Note_on_c, 0, 33, 0
2, 53579, Note_on_c, 0, 81, 101
2, 53580, Note_on_c, 0, 74, 96
2, 53582, Note_on_c, 0, 69, 96
2, 53586, Note_on_c, 0, 43, 103
2, 53586, Note_on_c, 0, 31, 100
2, 53621, Note_on_c, 0, 84, 0
2, 53629, Control_c, 0, 64, 127
2, 53821, Note_on_c, 0, 79, 0
2, 53839, Note_on_c, 0, 69, 0
2, 53840, Note_on_c, 0, 43, 0
2, 53841, Control_c, 0, 64, 0
2, 53851, Note_on_c, 0, 86, 105
2, 53852, Note_on_c, 0, 74, 0
2, 53852, Note_on_c, 0, 81, 0
2, 53859, Note_on_c, 0, 81, 95
2, 53860, Note_on_c, 0, 74, 103
2, 53861, Note_on_c, 0, 78, 100
2, 53864, Note_on_c, 0, 30, 93
2, 53864, Note_on_c, 0, 42, 96
2, 53875, Note_on_c, 0, 31, 0
2, 53904, Note_on_c, 0, 42, 0
2, 53944, Note_on_c, 0, 30, 0
2, 54017, Note_on_c, 0, 38, 91
2, 54017, Note_on_c, 0, 26, 97
2, 54021, Control_c, 0, 64, 127
2, 54151, Note_on_c, 0, 26, 0
2, 54162, Note_on_c, 0, 84, 105
2, 54167, Note_on_c, 0, 72, 103
2, 54169, Note_on_c, 0, 41, 86
2, 54173, Note_on_c, 0, 29, 72
2, 54287, Note_on_c, 0, 42, 92
2, 54289, Note_on_c, 0, 30, 86
2, 54391, Note_on_c, 0, 30, 0
2, 54391, Note_on_c, 0, 29, 0
2, 54391, Note_on_c, 0, 41, 0
2, 54392, Note_on_c, 0, 42, 0
2, 54392, Note_on_c, 0, 38, 0
2, 54392, Note_on_c, 0, 84, 0
2, 54392, Note_on_c, 0, 72, 0
2, 54392, Note_on_c, 0, 74, 0
2, 54393, Note_on_c, 0, 81, 0
2, 54394, Control_c, 0, 64, 0
2, 54405, Note_on_c, 0, 86, 0
2, 54412, Note_on_c, 0, 78, 0
2, 54439, Note_on_c, 0, 82, 106
2, 54440, Note_on_c, 0, 79, 94
2, 54441, Note_on_c, 0, 74, 90
2, 54441, Note_on_c, 0, 70, 103
2, 54444, Note_on_c, 0, 43, 100
2, 54445, Note_on_c, 0, 31, 97
2, 54497, Control_c, 0, 64, 127
2, 54512, Note_on_c, 0, 43, 0
2, 54581, Note_on_c, 0, 31, 0
2, 54592, Note_on_c, 0, 31, 84
2, 54592, Note_on_c, 0, 55, 95
2, 54592, Note_on_c, 0, 43, 91
2, 54732, Note_on_c, 0, 81, 103
2, 54732, Note_on_c, 0, 50, 85
2, 54733, Note_on_c, 0, 78, 81
2, 54734, Note_on_c, 0, 69, 97
2, 54840, Note_on_c, 0, 55, 0
2, 54840, Control_c, 0, 64, 0
2, 54840, Note_on_c, 0, 74, 0
2, 54841, Note_on_c, 0, 43, 0
2, 54841, Note_on_c, 0, 50, 0
2, 54841, Note_on_c, 0, 79, 0
2, 54841, Note_on_c, 0, 70, 0
2, 54841, Note_on_c, 0, 82, 0
2, 54842, Note_on_c, 0, 81, 0
2, 54842, Note_on_c, 0, 69, 0
2, 54844, Note_on_c, 0, 31, 0
2, 54858, Note_on_c, 0, 78, 0
2, 54890, Note_on_c, 0, 79, 87
2, 54890, Note_on_c, 0, 82, 103
2, 54892, Note_on_c, 0, 30, 103
2, 54892, Note_on_c, 0, 70, 106
2, 54892, Note_on_c, 0, 42, 103
2, 54896, Note_on_c, 0, 79, 0
2, 54942, Control_c, 0, 64, 127
2, 55173, Note_on_c, 0, 42, 0
2, 55180, Note_on_c, 0, 30, 0
2, 55181, Note_on_c, 0, 84, 104
2, 55183, Note_on_c, 0, 72, 102
2, 55184, Note_on_c, 0, 42, 93
2, 55186, Note_on_c, 0, 30, 90
2, 55326, Note_on_c, 0, 30, 0
2, 55326, Note_on_c, 0, 42, 0
2, 55336, Note_on_c, 0, 42, 100
2, 55337, Note_on_c, 0, 30, 95
2, 55438, Note_on_c, 0, 72, 0
2, 55438, Note_on_c, 0, 82, 0
2, 55438, Note_on_c, 0, 84, 0
2, 55440, Control_c, 0, 64, 0
2, 55449, Note_on_c, 0, 70, 0
2, 55457, Note_on_c, 0, 42, 0
2, 55464, Note_on_c, 0, 30, 0
2, 55477, Note_on_c, 0, 86, 105
2, 55480, Note_on_c, 0, 29, 98
2, 55481, Note_on_c, 0, 41, 99
2, 55483, Note_on_c, 0, 77, 101
2, 55483, Note_on_c, 0, 82, 96
2, 55484, Note_on_c, 0, 74, 106
2, 55534, Control_c, 0, 64, 127
2, 55764, Note_on_c, 0, 29, 0
2, 55764, Note_on_c, 0, 41, 0
2, 55770, Note_on_c, 0, 53, 80
2, 55772, Note_on_c, 0, 41, 87
2, 55775, Note_on_c, 0, 29, 84
2, 55779, Note_on_c, 0, 53, 0
2, 55918, Note_on_c, 0, 29, 0
2, 55918, Note_on_c, 0, 41, 0
2, 55928, Note_on_c, 0, 41, 88
2, 55928, Note_on_c, 0, 29, 90
2, 56106, Note_on_c, 0, 86, 0
2, 56107, Note_on_c, 0, 82, 0
2, 56107, Note_on_c, 0, 77, 0
2, 56107, Note_on_c, 0, 74, 0
2, 56111, Control_c, 0, 64, 0
2, 56125, Note_on_c, 0, 41, 0
2, 56133, Note_on_c, 0, 29, 0
2, 56220, Note_on_c, 0, 79, 103
2, 56221, Note_on_c, 0, 72, 92
2, 56221, Note_on_c, 0, 67, 102
2, 56222, Note_on_c, 0, 76, 96
2, 56227, Note_on_c, 0, 40, 98
2, 56229, Note_on_c, 0, 28, 99
2, 56271, Control_c, 0, 64, 127
2, 56505, Control_c, 0, 64, 0
2, 56509, Note_on_c, 0, 40, 0
2, 56509, Note_on_c, 0, 72, 0
2, 56509, Note_on_c, 0, 76, 0
2, 56509, Note_on_c, 0, 79, 0
2, 56516, Note_on_c, 0, 84, 103
2, 56517, Note_on_c, 0, 67, 0
2, 56518, Note_on_c, 0, 79, 97
2, 56519, Note_on_c, 0, 76, 99
2, 56519, Note_on_c, 0, 72, 102
2, 56519, Note_on_c, 0, 52, 98
2, 56520, Note_on_c, 0, 40, 96
2, 56555, Note_on_c, 0, 28, 0
2, 56563, Control_c, 0, 64, 127
2, 56714, Note_on_c, 0, 52, 0
2, 56714, Control_c, 0, 64, 0
2, 56714, Note_on_c, 0, 76, 0
2, 56715, Note_on_c, 0, 84, 0
2, 56715, Note_on_c, 0, 72, 0
2, 56716, Note_on_c, 0, 40, 0
2, 56717, Note_on_c, 0, 79, 0
2, 56805, Note_on_c, 0, 86, 109
2, 56812, Note_on_c, 0, 74, 107
2, 56813, Note_on_c, 0, 27, 106
2, 56813, Note_on_c, 0, 82, 98
2, 56814, Note_on_c, 0, 39, 102
2, 56814, Note_on_c, 0, 79, 99
2, 56839, Control_c, 0, 64, 127
2, 56968, Note_on_c, 0, 84, 100
2, 56971, Note_on_c, 0, 72, 95
2, 57108, Note_on_c, 0, 74, 0
2, 57108, Note_on_c, 0, 86, 0
2, 57114, Note_on_c, 0, 86, 105
2, 57116, Note_on_c, 0, 82, 0
2, 57118, Note_on_c, 0, 74, 97
2, 57123, Note_on_c, 0, 82, 90
2, 57148, Note_on_c, 0, 51, 55
2, 57238, Note_on_c, 0, 27, 0
2, 57240, Note_on_c, 0, 86, 0
2, 57241, Note_on_c, 0, 39, 0
2, 57241, Note_on_c, 0, 72, 0
2, 57241, Note_on_c, 0, 84, 0
2, 57242, Note_on_c, 0, 82, 0
2, 57242, Note_on_c, 0, 74, 0
2, 57244, Control_c, 0, 64, 0
2, 57246, Note_on_c, 0, 51, 0
2, 57262, Note_on_c, 0, 79, 0
2, 57268, Note_on_c, 0, 63, 99
2, 57269, Note_on_c, 0, 58, 89
2, 57270, Note_on_c, 0, 55, 92
2, 57272, Note_on_c, 0, 79, 99
2, 57272, Note_on_c, 0, 67, 96
2, 57276, Note_on_c, 0, 75, 85
2, 57308, Control_c, 0, 64, 127
2, 57555, Note_on_c, 0, 84, 103
2, 57556, Note_on_c, 0, 39, 94
2, 57557, Note_on_c, 0, 27, 99
2, 57559, Note_on_c, 0, 72, 99
2, 57563, Note_on_c, 0, 77, 89
2, 57580, Control_c, 0, 64, 0
2, 57586, Note_on_c, 0, 58, 0
2, 57587, Note_on_c, 0, 67, 0
2, 57587, Note_on_c, 0, 79, 0
2, 57592, Note_on_c, 0, 55, 0
2, 57600, Note_on_c, 0, 63, 0
2, 57615, Note_on_c, 0, 75, 0
2, 57619, Note_on_c, 0, 27, 0
2, 57626, Note_on_c, 0, 72, 0
2, 57638, Note_on_c, 0, 39, 0
2, 57641, Note_on_c, 0, 84, 0
2, 57676, Note_on_c, 0, 77, 0
2, 57704, Note_on_c, 0, 27, 93
2, 57704, Note_on_c, 0, 39, 85
2, 57740, Note_on_c, 0, 27, 0
2, 57741, Note_on_c, 0, 39, 0
2, 57852, Note_on_c, 0, 39, 96
2, 57854, Note_on_c, 0, 27, 105
2, 57856, Note_on_c, 0, 86, 109
2, 57857, Note_on_c, 0, 77, 100
2, 57858, Note_on_c, 0, 74, 105
2, 57863, Note_on_c, 0, 82, 99
2, 57887, Note_on_c, 0, 27, 0
2, 57891, Control_c, 0, 64, 127
2, 57914, Note_on_c, 0, 39, 0
2, 58157, Note_on_c, 0, 84, 100
2, 58160, Note_on_c, 0, 72, 96
2, 58301, Note_on_c, 0, 51, 87
2, 58452, Note_on_c, 0, 72, 0
2, 58452, Note_on_c, 0, 84, 0
2, 58457, Note_on_c, 0, 84, 103
2, 58460, Note_on_c, 0, 77, 0
2, 58463, Note_on_c, 0, 72, 103
2, 58465, Note_on_c, 0, 77, 94
2, 58465, Note_on_c, 0, 55, 81
2, 58467, Note_on_c, 0, 81, 98
2, 58469, Note_on_c, 0, 63, 92
2, 58736, Note_on_c, 0, 81, 0
2, 58744, Note_on_c, 0, 72, 0
2, 58745, Note_on_c, 0, 81, 104
2, 58748, Note_on_c, 0, 69, 94
2, 58749, Note_on_c, 0, 72, 76
2, 58906, Note_on_c, 0, 41, 90
2, 58909, Note_on_c, 0, 29, 93
2, 59046, Note_on_c, 0, 39, 79
2, 59046, Note_on_c, 0, 27, 85
2, 59085, Control_c, 0, 64, 0
2, 59086, Note_on_c, 0, 27, 0
2, 59086, Note_on_c, 0, 29, 0
2, 59086, Note_on_c, 0, 72, 0
2, 59086, Note_on_c, 0, 51, 0
2, 59086, Note_on_c, 0, 39, 0
2, 59087, Note_on_c, 0, 55, 0
2, 59087, Note_on_c, 0, 74, 0
2, 59087, Note_on_c, 0, 84, 0
2, 59087, Note_on_c, 0, 77, 0
2, 59087, Note_on_c, 0, 81, 0
2, 59087, Note_on_c, 0, 69, 0
2, 59088, Note_on_c, 0, 63, 0
2, 59089, Note_on_c, 0, 82, 0
2, 59093, Note_on_c, 0, 86, 0
2, 59105, Note_on_c, 0, 41, 0
2, 59191, Note_on_c, 0, 84, 106
2, 59191, Note_on_c, 0, 77, 101
2, 59193, Note_on_c, 0, 72, 104
2, 59194, Note_on_c, 0, 38, 101
2, 59194, Note_on_c, 0, 26, 103
2, 59243, Control_c, 0, 64, 127
2, 59347, Note_on_c, 0, 82, 84
2, 59348, Note_on_c, 0, 70, 87
2, 59481, Note_on_c, 0, 72, 0
2, 59481, Note_on_c, 0, 84, 0
2, 59486, Note_on_c, 0, 84, 101
2, 59489, Note_on_c, 0, 38, 0
2, 59492, Note_on_c, 0, 72, 94
2, 59492, Note_on_c, 0, 78, 76
2, 59495, Note_on_c, 0, 38, 75
2, 59496, Note_on_c, 0, 78, 0
2, 59598, Note_on_c, 0, 38, 0
2, 59598, Note_on_c, 0, 84, 0
2, 59599, Note_on_c, 0, 77, 0
2, 59599, Note_on_c, 0, 72, 0
2, 59599, Note_on_c, 0, 82, 0
2, 59599, Note_on_c, 0, 70, 0
2, 59601, Control_c, 0, 64, 0
2, 59612, Note_on_c, 0, 26, 0
2, 59638, Note_on_c, 0, 53, 89
2, 59640, Note_on_c, 0, 62, 93
2, 59640, Note_on_c, 0, 57, 91
2, 59642, Note_on_c, 0, 65, 97
2, 59643, Note_on_c, 0, 77, 99
2, 59681, Control_c, 0, 64, 127
2, 59930, Note_on_c, 0, 82, 105
2, 59930, Control_c, 0, 64, 0
2, 59931, Note_on_c, 0, 57, 0
2, 59931, Note_on_c, 0, 53, 0
2, 59932, Note_on_c, 0, 38, 98
2, 59933, Note_on_c, 0, 26, 103
2, 59935, Note_on_c, 0, 77, 0
2, 59937, Note_on_c, 0, 70, 97
2, 59942, Note_on_c, 0, 62, 0
2, 59942, Note_on_c, 0, 65, 0
2, 59966, Note_on_c, 0, 70, 0
2, 59977, Note_on_c, 0, 82, 0
2, 59996, Note_on_c, 0, 26, 0
2, 60065, Note_on_c, 0, 38, 0
2, 60068, Note_on_c, 0, 84, 106
2, 60069, Note_on_c, 0, 72, 93
2, 60071, Note_on_c, 0, 38, 90
2, 60074, Note_on_c, 0, 26, 98
2, 60108, Note_on_c, 0, 26, 0
2, 60134, Note_on_c, 0, 72, 0
2, 60165, Note_on_c, 0, 84, 0
2, 60180, Note_on_c, 0, 38, 0
2, 60220, Note_on_c, 0, 87, 108
2, 60221, Note_on_c, 0, 83, 94
2, 60223, Note_on_c, 0, 79, 86
2, 60224, Note_on_c, 0, 75, 107
2, 60231, Note_on_c, 0, 43, 105
2, 60232, Note_on_c, 0, 31, 100
2, 60280, Control_c, 0, 64, 127
2, 60518, Note_on_c, 0, 86, 100
2, 60522, Note_on_c, 0, 74, 93
2, 60666, Note_on_c, 0, 84, 102
2, 60667, Note_on_c, 0, 55, 87
2, 60668, Note_on_c, 0, 72, 95
2, 60810, Note_on_c, 0, 55, 0
2, 60810, Note_on_c, 0, 83, 0
2, 60810, Note_on_c, 0, 86, 0
2, 60814, Note_on_c, 0, 87, 0
2, 60817, Note_on_c, 0, 74, 0
2, 60817, Note_on_c, 0, 79, 0
2, 60818, Note_on_c, 0, 86, 106
2, 60820, Note_on_c, 0, 62, 90
2, 60820, Note_on_c, 0, 59, 94
2, 60821, Note_on_c, 0, 83, 103
2, 60821, Note_on_c, 0, 55, 88
2, 60821, Note_on_c, 0, 74, 102
2, 60822, Note_on_c, 0, 75, 0
2, 60822, Note_on_c, 0, 79, 94
2, 61078, Note_on_c, 0, 86, 0
2, 61078, Note_on_c, 0, 62, 0
2, 61079, Note_on_c, 0, 72, 0
2, 61079, Note_on_c, 0, 79, 0
2, 61079, Note_on_c, 0, 59, 0
2, 61079, Note_on_c, 0, 83, 0
2, 61079, Note_on_c, 0, 74, 0
2, 61079, Note_on_c, 0, 55, 0
2, 61080, Control_c, 0, 64, 0
2, 61094, Note_on_c, 0, 84, 0
2, 61102, Note_on_c, 0, 31, 0
2, 61102, Note_on_c, 0, 43, 0
2, 61105, Note_on_c, 0, 43, 99
2, 61106, Note_on_c, 0, 31, 98
2, 61148, Control_c, 0, 64, 127
2, 61248, Note_on_c, 0, 86, 103
2, 61250, Note_on_c, 0, 74, 95
2, 61390, Note_on_c, 0, 38, 74
2, 61390, Note_on_c, 0, 87, 104
2, 61390, Note_on_c, 0, 26, 61
2, 61391, Note_on_c, 0, 75, 102
2, 61401, Note_on_c, 0, 26, 0
2, 61482, Note_on_c, 0, 43, 0
2, 61483, Note_on_c, 0, 38, 0
2, 61483, Note_on_c, 0, 86, 0
2, 61483, Note_on_c, 0, 74, 0
2, 61484, Note_on_c, 0, 75, 0
2, 61485, Note_on_c, 0, 87, 0
2, 61487, Control_c, 0, 64, 0
2, 61501, Note_on_c, 0, 31, 0
2, 61534, Note_on_c, 0, 86, 107
2, 61538, Note_on_c, 0, 74, 106
2, 61544, Note_on_c, 0, 36, 92
2, 61545, Note_on_c, 0, 24, 93
2, 61566, Note_on_c, 0, 82, 61
2, 61585, Control_c, 0, 64, 127
2, 61593, Note_on_c, 0, 24, 0
2, 61838, Note_on_c, 0, 60, 95
2, 61842, Note_on_c, 0, 48, 75
2, 61843, Note_on_c, 0, 55, 82
2, 61845, Note_on_c, 0, 51, 81
2, 61977, Note_on_c, 0, 84, 97
2, 61980, Note_on_c, 0, 72, 100
2, 61980, Note_on_c, 0, 75, 95
2, 61981, Note_on_c, 0, 79, 91
2, 62115, Note_on_c, 0, 84, 0
2, 62123, Note_on_c, 0, 72, 0
2, 62123, Note_on_c, 0, 75, 0
2, 62123, Note_on_c, 0, 79, 0
2, 62125, Note_on_c, 0, 84, 102
2, 62127, Note_on_c, 0, 72, 100
2, 62127, Note_on_c, 0, 75, 100
2, 62129, Note_on_c, 0, 79, 91
2, 62213, Note_on_c, 0, 55, 0
2, 62219, Control_c, 0, 64, 0
2, 62223, Note_on_c, 0, 48, 0
2, 62246, Note_on_c, 0, 82, 0
2, 62246, Control_c, 0, 64, 127
2, 62261, Note_on_c, 0, 36, 0
2, 62266, Note_on_c, 0, 36, 97
2, 62266, Note_on_c, 0, 48, 91
2, 62277, Note_on_c, 0, 51, 0
2, 62277, Note_on_c, 0, 60, 0
2, 62277, Note_on_c, 0, 86, 0
2, 62307, Note_on_c, 0, 74, 0
2, 62403, Note_on_c, 0, 43, 88
2, 62527, Note_on_c, 0, 36, 0
2, 62528, Note_on_c, 0, 79, 0
2, 62528, Note_on_c, 0, 48, 0
2, 62528, Note_on_c, 0, 72, 0
2, 62529, Note_on_c, 0, 84, 0
2, 62529, Note_on_c, 0, 75, 0
2, 62529, Note_on_c, 0, 43, 0
2, 62534, Control_c, 0, 64, 0
2, 62570, Note_on_c, 0, 38, 102
2, 62572, Note_on_c, 0, 26, 101
2, 62607, Control_c, 0, 64, 127
2, 62868, Note_on_c, 0, 26, 0
2, 62868, Note_on_c, 0, 38, 0
2, 62874, Note_on_c, 0, 38, 103
2, 62874, Control_c, 0, 64, 0
2, 62877, Note_on_c, 0, 26, 92
2, 62952, Control_c, 0, 64, 127
2, 63011, Note_on_c, 0, 81, 105
2, 63014, Note_on_c, 0, 69, 98
2, 63015, Note_on_c, 0, 74, 95
2, 63016, Note_on_c, 0, 77, 87
2, 63160, Note_on_c, 0, 50, 87
2, 63161, Note_on_c, 0, 62, 94
2, 63306, Note_on_c, 0, 74, 0
2, 63313, Note_on_c, 0, 77, 0
2, 63316, Note_on_c, 0, 82, 101
2, 63317, Note_on_c, 0, 74, 94
2, 63317, Note_on_c, 0, 70, 100
2, 63317, Note_on_c, 0, 77, 90
2, 63345, Note_on_c, 0, 80, 49
2, 63452, Note_on_c, 0, 38, 0
2, 63452, Note_on_c, 0, 50, 0
2, 63462, Note_on_c, 0, 50, 99
2, 63463, Note_on_c, 0, 38, 80
2, 63606, Note_on_c, 0, 84, 107
2, 63611, Note_on_c, 0, 45, 90
2, 63612, Note_on_c, 0, 72, 101
2, 63613, Note_on_c, 0, 77, 0
2, 63615, Note_on_c, 0, 33, 73
2, 63618, Note_on_c, 0, 77, 73
2, 63736, Note_on_c, 0, 38, 0
2, 63742, Note_on_c, 0, 38, 79
2, 63743, Note_on_c, 0, 50, 0
2, 63859, Note_on_c, 0, 33, 0
2, 63860, Note_on_c, 0, 45, 0
2, 63861, Note_on_c, 0, 62, 0
2, 63861, Note_on_c, 0, 74, 0
2, 63861, Note_on_c, 0, 69, 0
2, 63861, Note_on_c, 0, 82, 0
2, 63861, Note_on_c, 0, 70, 0
2, 63861, Control_c, 0, 64, 0
2, 63861, Note_on_c, 0, 80, 0
2, 63862, Note_on_c, 0, 72, 0
2, 63862, Note_on_c, 0, 81, 0
2, 63863, Note_on_c, 0, 38, 0
2, 63874, Note_on_c, 0, 26, 0
2, 63889, Note_on_c, 0, 77, 0
2, 63889, Note_on_c, 0, 84, 0
2, 63898, Note_on_c, 0, 84, 108
2, 63899, Note_on_c, 0, 77, 103
2, 63901, Note_on_c, 0, 72, 101
2, 63906, Note_on_c, 0, 31, 94
2, 63907, Note_on_c, 0, 43, 98
2, 63959, Control_c, 0, 64, 127
2, 64058, Note_on_c, 0, 43, 0
2, 64064, Note_on_c, 0, 41, 77
2, 64067, Note_on_c, 0, 43, 92
2, 64074, Note_on_c, 0, 41, 0
2, 64200, Note_on_c, 0, 50, 67
2, 64200, Note_on_c, 0, 41, 66
2, 64320, Note_on_c, 0, 43, 0
2, 64330, Note_on_c, 0, 43, 76
2, 64331, Note_on_c, 0, 55, 88
2, 64484, Note_on_c, 0, 67, 100
2, 64619, Note_on_c, 0, 55, 0
2, 64629, Note_on_c, 0, 55, 98
2, 64757, Note_on_c, 0, 50, 0
2, 64769, Note_on_c, 0, 50, 72
2, 64891, Note_on_c, 0, 84, 0
2, 64891, Note_on_c, 0, 41, 0
2, 64892, Note_on_c, 0, 72, 0
2, 64892, Note_on_c, 0, 55, 0
2, 64892, Note_on_c, 0, 50, 0
2, 64892, Note_on_c, 0, 77, 0
2, 64893, Control_c, 0, 64, 0
2, 64894, Note_on_c, 0, 67, 0
2, 64919, Note_on_c, 0, 43, 0
2, 64926, Note_on_c, 0, 31, 0
2, 64926, Note_on_c, 0, 86, 106
2, 64929, Note_on_c, 0, 83, 101
2, 64929, Note_on_c, 0, 74, 104
2, 64930, Note_on_c, 0, 43, 96
2, 64931, Note_on_c, 0, 31, 91
2, 64932, Note_on_c, 0, 79, 93
2, 64972, Control_c, 0, 64, 127
2, 65003, Note_on_c, 0, 31, 0
2, 65103, Note_on_c, 0, 43, 0
2, 65112, Note_on_c, 0, 43, 74
2, 65207, Note_on_c, 0, 50, 76
2, 65213, Note_on_c, 0, 62, 81
2, 65230, Note_on_c, 0, 59, 51
2, 65270, Note_on_c, 0, 67, 83
2, 65284, Note_on_c, 0, 55, 73
2, 65306, Note_on_c, 0, 71, 83
2, 65356, Note_on_c, 0, 74, 0
2, 65366, Note_on_c, 0, 74, 97
2, 65395, Note_on_c, 0, 79, 0
2, 65405, Note_on_c, 0, 79, 76
2, 65418, Note_on_c, 0, 55, 0
2, 65422, Note_on_c, 0, 55, 55
2, 65441, Note_on_c, 0, 83, 0
2, 65448, Note_on_c, 0, 83, 86
2, 65502, Note_on_c, 0, 86, 0
2, 65509, Note_on_c, 0, 86, 90
2, 65518, Note_on_c, 0, 59, 0
2, 65529, Note_on_c, 0, 59, 70
2, 65559, Note_on_c, 0, 91, 93
2, 65612, Note_on_c, 0, 98, 112
2, 65620, Note_on_c, 0, 96, 88
2, 65640, Note_on_c, 0, 67, 0
2, 65651, Note_on_c, 0, 67, 95
2, 65794, Note_on_c, 0, 55, 0
2, 65801, Note_on_c, 0, 55, 88
2, 65817, Note_on_c, 0, 43, 0
2, 65823, Note_on_c, 0, 43, 62
2, 65925, Note_on_c, 0, 62, 0
2, 65930, Note_on_c, 0, 62, 85
2, 65932, Note_on_c, 0, 59, 0
2, 65941, Note_on_c, 0, 59, 65
2, 66040, Note_on_c, 0, 59, 0
2, 66050, Note_on_c, 0, 59, 75
2, 66175, Control_c, 0, 64, 0
2, 66176, Note_on_c, 0, 98, 0
2, 66177, Note_on_c, 0, 86, 0
2, 66177, Note_on_c, 0, 71, 0
2, 66177, Note_on_c, 0, 74, 0
2, 66178, Note_on_c, 0, 62, 0
2, 66178, Note_on_c, 0, 55, 0
2, 66178, Note_on_c, 0, 50, 0
2, 66178, Note_on_c, 0, 83, 0
2, 66178, Note_on_c, 0, 91, 0
2, 66178, Note_on_c, 0, 59, 0
2, 66178, Note_on_c, 0, 67, 0
2, 66179, Note_on_c, 0, 79, 0
2, 66180, Note_on_c, 0, 43, 0
2, 66186, Note_on_c, 0, 96, 0
2, 66210, Note_on_c, 0, 77, 106
2, 66212, Note_on_c, 0, 65, 100
2, 66213, Note_on_c, 0, 70, 101
2, 66213, Note_on_c, 0, 73, 96
2, 66213, Note_on_c, 0, 42, 100
2, 66214, Note_on_c, 0, 30, 99
2, 66263, Control_c, 0, 64, 127
2, 66505, Note_on_c, 0, 49, 88
2, 66516, Note_on_c, 0, 65, 0
2, 66647, Control_c, 0, 64, 0
2, 66661, Note_on_c, 0, 75, 105
2, 66662, Note_on_c, 0, 77, 0
2, 66662, Note_on_c, 0, 70, 0
2, 66668, Note_on_c, 0, 70, 84
2, 66669, Note_on_c, 0, 63, 95
2, 66669, Note_on_c, 0, 73, 0
2, 66672, Note_on_c, 0, 58, 95
2, 66672, Note_on_c, 0, 66, 92
2, 66673, Note_on_c, 0, 54, 91
2, 66675, Note_on_c, 0, 49, 0
2, 66678, Note_on_c, 0, 42, 0
2, 66700, Note_on_c, 0, 30, 0
2, 66739, Control_c, 0, 64, 127
2, 66900, Note_on_c, 0, 54, 0
2, 66959, Note_on_c, 0, 42, 69
2, 67084, Note_on_c, 0, 58, 0
2, 67103, Note_on_c, 0, 80, 105
2, 67106, Note_on_c, 0, 72, 92
2, 67109, Note_on_c, 0, 68, 100
2, 67209, Note_on_c, 0, 63, 0
2, 67210, Note_on_c, 0, 66, 0
2, 67210, Note_on_c, 0, 42, 0
2, 67210, Note_on_c, 0, 68, 0
2, 67210, Note_on_c, 0, 75, 0
2, 67210, Note_on_c, 0, 72, 0
2, 67210, Note_on_c, 0, 80, 0
2, 67212, Control_c, 0, 64, 0
2, 67223, Note_on_c, 0, 70, 0
2, 67258, Note_on_c, 0, 80, 101
2, 67261, Note_on_c, 0, 68, 102
2, 67262, Note_on_c, 0, 72, 93
2, 67263, Note_on_c, 0, 75, 98
2, 67263, Note_on_c, 0, 44, 96
2, 67265, Note_on_c, 0, 32, 81
2, 67292, Control_c, 0, 64, 127
2, 67537, Note_on_c, 0, 44, 0
2, 67548, Note_on_c, 0, 44, 84
2, 67691, Note_on_c, 0, 68, 0
2, 67691, Note_on_c, 0, 72, 0
2, 67695, Note_on_c, 0, 78, 105
2, 67701, Note_on_c, 0, 68, 96
2, 67702, Note_on_c, 0, 72, 84
2, 67704, Note_on_c, 0, 66, 94
2, 67708, Note_on_c, 0, 56, 90
2, 67709, Note_on_c, 0, 51, 78
2, 67837, Note_on_c, 0, 44, 0
2, 67842, Note_on_c, 0, 44, 84
2, 67975, Note_on_c, 0, 68, 0
2, 67975, Note_on_c, 0, 72, 0
2, 67976, Note_on_c, 0, 77, 100
2, 67979, Note_on_c, 0, 65, 90
2, 67979, Note_on_c, 0, 68, 98
2, 67980, Note_on_c, 0, 72, 82
2, 67991, Note_on_c, 0, 75, 0
2, 67997, Note_on_c, 0, 75, 62
2, 67998, Note_on_c, 0, 56, 0
2, 68005, Note_on_c, 0, 56, 66
2, 68136, Note_on_c, 0, 44, 0
2, 68143, Note_on_c, 0, 44, 88
2, 68275, Note_on_c, 0, 68, 0
2, 68275, Note_on_c, 0, 72, 0
2, 68275, Note_on_c, 0, 75, 0
2, 68282, Note_on_c, 0, 68, 101
2, 68282, Note_on_c, 0, 75, 105
2, 68282, Note_on_c, 0, 51, 0
2, 68284, Note_on_c, 0, 63, 100
2, 68286, Note_on_c, 0, 72, 87
2, 68290, Note_on_c, 0, 56, 0
2, 68293, Note_on_c, 0, 51, 81
2, 68295, Note_on_c, 0, 56, 80
2, 68413, Note_on_c, 0, 44, 0
2, 68421, Note_on_c, 0, 44, 76
2, 68548, Control_c, 0, 64, 0
2, 68550, Note_on_c, 0, 51, 0
2, 68551, Note_on_c, 0, 63, 0
2, 68551, Note_on_c, 0, 80, 0
2, 68551, Note_on_c, 0, 72, 0
2, 68551, Note_on_c, 0, 44, 0
2, 68552, Note_on_c, 0, 56, 0
2, 68552, Note_on_c, 0, 77, 0
2, 68552, Note_on_c, 0, 68, 0
2, 68552, Note_on_c, 0, 65, 0
2, 68552, Note_on_c, 0, 78, 0
2, 68552, Note_on_c, 0, 66, 0
2, 68559, Note_on_c, 0, 32, 0
2, 68567, Note_on_c, 0, 75, 0
2, 68575, Note_on_c, 0, 75, 106
2, 68583, Note_on_c, 0, 70, 97
2, 68588, Note_on_c, 0, 46, 99
2, 68589, Note_on_c, 0, 34, 95
2, 68592, Note_on_c, 0, 68, 75
2, 68597, Note_on_c, 0, 68, 0
2, 68620, Control_c, 0, 64, 127
2, 68843, Note_on_c, 0, 46, 0
2, 68851, Note_on_c, 0, 46, 86
2, 69019, Control_c, 0, 64, 0
2, 69020, Note_on_c, 0, 70, 0
2, 69023, Note_on_c, 0, 73, 101
2, 69024, Note_on_c, 0, 61, 96
2, 69024, Note_on_c, 0, 70, 98
2, 69025, Note_on_c, 0, 53, 83
2, 69044, Note_on_c, 0, 75, 0
2, 69073, Control_c, 0, 64, 127
2, 69104, Note_on_c, 0, 34, 0
2, 69312, Note_on_c, 0, 46, 0
2, 69323, Note_on_c, 0, 46, 89
2, 69427, Note_on_c, 0, 53, 0
2, 69434, Note_on_c, 0, 53, 85
2, 69454, Note_on_c, 0, 75, 101
2, 69461, Note_on_c, 0, 65, 86
2, 69585, Note_on_c, 0, 46, 0
2, 69586, Control_c, 0, 64, 0
2, 69586, Note_on_c, 0, 73, 0
2, 69586, Note_on_c, 0, 75, 0
2, 69586, Note_on_c, 0, 53, 0
2, 69587, Note_on_c, 0, 61, 0
2, 69603, Note_on_c, 0, 70, 0
2, 69611, Note_on_c, 0, 65, 0
2, 69612, Note_on_c, 0, 77, 103
2, 69614, Note_on_c, 0, 68, 103
2, 69615, Note_on_c, 0, 72, 97
2, 69616, Note_on_c, 0, 65, 88
2, 69623, Note_on_c, 0, 29, 92
2, 69657, Control_c, 0, 64, 127
2, 69899, Note_on_c, 0, 41, 80
2, 70046, Note_on_c, 0, 48, 85
2, 70051, Note_on_c, 0, 56, 93
2, 70210, Note_on_c, 0, 41, 0
2, 70216, Note_on_c, 0, 41, 84
2, 70479, Note_on_c, 0, 41, 0
2, 70490, Note_on_c, 0, 41, 75
2, 70620, Note_on_c, 0, 73, 104
2, 70623, Note_on_c, 0, 61, 97
2, 70632, Note_on_c, 0, 48, 0
2, 70632, Note_on_c, 0, 56, 0
2, 70637, Note_on_c, 0, 48, 69
2, 70638, Note_on_c, 0, 56, 91
2, 70879, Note_on_c, 0, 48, 0
2, 70881, Note_on_c, 0, 41, 0
2, 70881, Note_on_c, 0, 29, 0
2, 70882, Note_on_c, 0, 73, 0
2, 70882, Note_on_c, 0, 56, 0
2, 70882, Control_c, 0, 64, 0
2, 70882, Note_on_c, 0, 68, 0
2, 70882, Note_on_c, 0, 61, 0
2, 70882, Note_on_c, 0, 77, 0
2, 70882, Note_on_c, 0, 72, 0
2, 70894, Note_on_c, 0, 65, 0
2, 70914, Note_on_c, 0, 80, 109
2, 70920, Note_on_c, 0, 73, 101
2, 70922, Note_on_c, 0, 68, 102
2, 70927, Note_on_c, 0, 70, 99
2, 70928, Note_on_c, 0, 27, 94
2, 70929, Note_on_c, 0, 39, 93
2, 70963, Control_c, 0, 64, 127
2, 71209, Note_on_c, 0, 51, 78
2, 71209, Note_on_c, 0, 54, 87
2, 71212, Note_on_c, 0, 58, 75
2, 71229, Note_on_c, 0, 46, 70
2, 71362, Note_on_c, 0, 73, 0
2, 71370, Note_on_c, 0, 54, 0
2, 71370, Note_on_c, 0, 70, 0
2, 71372, Note_on_c, 0, 73, 99
2, 71374, Note_on_c, 0, 61, 92
2, 71376, Note_on_c, 0, 42, 80
2, 71377, Note_on_c, 0, 70, 86
2, 71379, Note_on_c, 0, 66, 91
2, 71379, Note_on_c, 0, 54, 79
2, 71385, Note_on_c, 0, 42, 0
2, 71516, Note_on_c, 0, 61, 0
2, 71516, Note_on_c, 0, 66, 0
2, 71516, Note_on_c, 0, 70, 0
2, 71516, Note_on_c, 0, 73, 0
2, 71520, Note_on_c, 0, 73, 103
2, 71523, Note_on_c, 0, 66, 99
2, 71525, Note_on_c, 0, 61, 94
2, 71526, Note_on_c, 0, 70, 85
2, 71527, Note_on_c, 0, 68, 0
2, 71527, Note_on_c, 0, 80, 0
2, 71527, Note_on_c, 0, 46, 0
2, 71528, Note_on_c, 0, 51, 0
2, 71528, Control_c, 0, 64, 0
2, 71528, Note_on_c, 0, 39, 0
2, 71546, Note_on_c, 0, 27, 0
2, 71569, Note_on_c, 0, 58, 0
2, 71592, Control_c, 0, 64, 127
2, 71661, Note_on_c, 0, 39, 75
2, 71806, Note_on_c, 0, 53, 70
2, 71809, Note_on_c, 0, 46, 79
2, 71815, Note_on_c, 0, 53, 0
2, 71942, Note_on_c, 0, 39, 0
2, 71942, Note_on_c, 0, 46, 0
2, 71943, Note_on_c, 0, 66, 0
2, 71945, Control_c, 0, 64, 0
2, 71953, Note_on_c, 0, 54, 0
2, 71953, Note_on_c, 0, 61, 0
2, 71961, Note_on_c, 0, 70, 0
2, 71961, Note_on_c, 0, 73, 0
2, 71967, Note_on_c, 0, 80, 103
2, 71972, Note_on_c, 0, 75, 98
2, 71973, Note_on_c, 0, 72, 92
2, 71973, Note_on_c, 0, 68, 100
2, 71979, Note_on_c, 0, 29, 95
2, 71980, Note_on_c, 0, 41, 92
2, 72007, Control_c, 0, 64, 127
2, 72253, Note_on_c, 0, 41, 0
2, 72258, Note_on_c, 0, 41, 82
2, 72349, Note_on_c, 0, 41, 0
2, 72351, Note_on_c, 0, 72, 0
2, 72351, Note_on_c, 0, 75, 0
2, 72351, Note_on_c, 0, 80, 0
2, 72354, Note_on_c, 0, 68, 0
2, 72356, Control_c, 0, 64, 0
2, 72360, Note_on_c, 0, 29, 0
2, 72383, Note_on_c, 0, 78, 105
2, 72393, Note_on_c, 0, 72, 87
2, 72395, Note_on_c, 0, 68, 100
2, 72396, Note_on_c, 0, 66, 93
2, 72411, Note_on_c, 0, 56, 81
2, 72418, Note_on_c, 0, 51, 72
2, 72419, Note_on_c, 0, 48, 67
2, 72430, Control_c, 0, 64, 127
2, 72541, Note_on_c, 0, 41, 83
2, 72683, Note_on_c, 0, 68, 0
2, 72683, Note_on_c, 0, 72, 0
2, 72689, Note_on_c, 0, 77, 98
2, 72689, Note_on_c, 0, 68, 100
2, 72691, Note_on_c, 0, 41, 0
2, 72693, Note_on_c, 0, 65, 88
2, 72694, Note_on_c, 0, 72, 87
2, 72695, Note_on_c, 0, 41, 80
2, 72698, Note_on_c, 0, 29, 77
2, 72821, Note_on_c, 0, 41, 0
2, 72826, Note_on_c, 0, 41, 83
2, 72967, Note_on_c, 0, 56, 0
2, 72972, Note_on_c, 0, 68, 0
2, 72975, Note_on_c, 0, 48, 0
2, 72975, Note_on_c, 0, 51, 0
2, 72978, Note_on_c, 0, 56, 83
2, 72979, Note_on_c, 0, 75, 107
2, 72979, Note_on_c, 0, 63, 103
2, 72979, Note_on_c, 0, 51, 81
2, 72979, Note_on_c, 0, 48, 73
2, 73213, Note_on_c, 0, 29, 0
2, 73214, Note_on_c, 0, 48, 0
2, 73216, Note_on_c, 0, 41, 0
2, 73216, Note_on_c, 0, 51, 0
2, 73216, Note_on_c, 0, 75, 0
2, 73216, Note_on_c, 0, 56, 0
2, 73216, Note_on_c, 0, 77, 0
2, 73217, Note_on_c, 0, 63, 0
2, 73217, Control_c, 0, 64, 0
2, 73217, Note_on_c, 0, 65, 0
2, 73217, Note_on_c, 0, 66, 0
2, 73217, Note_on_c, 0, 78, 0
2, 73228, Note_on_c, 0, 72, 0
2, 73272, Note_on_c, 0, 75, 103
2, 73277, Note_on_c, 0, 63, 97
2, 73278, Note_on_c, 0, 70, 91
2, 73279, Note_on_c, 0, 46, 92
2, 73280, Note_on_c, 0, 34, 91
2, 73313, Control_c, 0, 64, 127
2, 73443, Note_on_c, 0, 46, 0
2, 73453, Note_on_c, 0, 46, 74
2, 73582, Note_on_c, 0, 46, 0
2, 73583, Note_on_c, 0, 58, 89
2, 73586, Note_on_c, 0, 53, 73
2, 73586, Note_on_c, 0, 46, 79
2, 73720, Note_on_c, 0, 46, 0
2, 73720, Note_on_c, 0, 58, 0
2, 73720, Note_on_c, 0, 70, 0
2, 73723, Note_on_c, 0, 74, 102
2, 73724, Note_on_c, 0, 70, 89
2, 73725, Note_on_c, 0, 58, 87
2, 73729, Note_on_c, 0, 62, 92
2, 73729, Note_on_c, 0, 46, 86
2, 73735, Control_c, 0, 64, 0
2, 73738, Note_on_c, 0, 75, 0
2, 73738, Note_on_c, 0, 63, 0
2, 73739, Note_on_c, 0, 53, 0
2, 73774, Note_on_c, 0, 34, 0
2, 73797, Control_c, 0, 64, 127
2, 74004, Note_on_c, 0, 46, 0
2, 74009, Note_on_c, 0, 46, 86
2, 74042, Note_on_c, 0, 58, 0
2, 74150, Note_on_c, 0, 75, 98
2, 74151, Note_on_c, 0, 63, 92
2, 74153, Note_on_c, 0, 58, 89
2, 74155, Note_on_c, 0, 53, 75
2, 74254, Note_on_c, 0, 46, 0
2, 74255, Note_on_c, 0, 74, 0
2, 74255, Note_on_c, 0, 62, 0
2, 74255, Note_on_c, 0, 63, 0
2, 74255, Note_on_c, 0, 53, 0
2, 74255, Note_on_c, 0, 58, 0
2, 74255, Note_on_c, 0, 75, 0
2, 74256, Control_c, 0, 64, 0
2, 74265, Note_on_c, 0, 70, 0
2, 74297, Note_on_c, 0, 77, 102
2, 74299, Note_on_c, 0, 74, 97
2, 74301, Note_on_c, 0, 65, 91
2, 74302, Note_on_c, 0, 70, 89
2, 74306, Note_on_c, 0, 58, 92
2, 74308, Note_on_c, 0, 46, 89
2, 74338, Note_on_c, 0, 65, 0
2, 74342, Control_c, 0, 64, 127
2, 74526, Note_on_c, 0, 46, 0
2, 74537, Note_on_c, 0, 46, 88
2, 74585, Note_on_c, 0, 65, 71
2, 74626, Note_on_c, 0, 70, 0
2, 74632, Note_on_c, 0, 70, 79
2, 74664, Note_on_c, 0, 74, 0
2, 74673, Note_on_c, 0, 74, 95
2, 74695, Note_on_c, 0, 58, 0
2, 74700, Note_on_c, 0, 58, 81
2, 74701, Note_on_c, 0, 62, 78
2, 74717, Note_on_c, 0, 75, 72
2, 74772, Note_on_c, 0, 77, 0
2, 74776, Note_on_c, 0, 77, 85
2, 74820, Note_on_c, 0, 82, 83
2, 74821, Note_on_c, 0, 53, 85
2, 74829, Note_on_c, 0, 86, 80
2, 74960, Note_on_c, 0, 101, 114
2, 74963, Note_on_c, 0, 89, 102
2, 74964, Note_on_c, 0, 62, 0
2, 74964, Note_on_c, 0, 65, 0
2, 74975, Note_on_c, 0, 65, 85
2, 74975, Note_on_c, 0, 62, 86
2, 74979, Note_on_c, 0, 58, 0
2, 74981, Note_on_c, 0, 94, 64
2, 74984, Note_on_c, 0, 58, 70
2, 75102, Note_on_c, 0, 53, 0
2, 75108, Note_on_c, 0, 53, 77
2, 75248, Note_on_c, 0, 62, 0
2, 75256, Note_on_c, 0, 65, 0
2, 75259, Note_on_c, 0, 62, 79
2, 75264, Note_on_c, 0, 58, 0
2, 75265, Note_on_c, 0, 65, 74
2, 75268, Note_on_c, 0, 58, 79
2, 75394, Note_on_c, 0, 53, 0
2, 75399, Note_on_c, 0, 53, 78
2, 75529, Note_on_c, 0, 94, 0
2, 75529, Note_on_c, 0, 46, 0
2, 75529, Note_on_c, 0, 86, 0
2, 75530, Control_c, 0, 64, 0
2, 75530, Note_on_c, 0, 82, 0
2, 75530, Note_on_c, 0, 101, 0
2, 75530, Note_on_c, 0, 70, 0
2, 75530, Note_on_c, 0, 77, 0
2, 75530, Note_on_c, 0, 53, 0
2, 75530, Note_on_c, 0, 58, 0
2, 75530, Note_on_c, 0, 75, 0
2, 75531, Note_on_c, 0, 74, 0
2, 75531, Note_on_c, 0, 65, 0
2, 75540, Note_on_c, 0, 62, 0
2, 75563, Note_on_c, 0, 89, 0
2, 75569, Note_on_c, 0, 42, 95
2, 75569, Note_on_c, 0, 89, 105
2, 75572, Note_on_c, 0, 85, 98
2, 75573, Note_on_c, 0, 77, 98
2, 75577, Note_on_c, 0, 82, 95
2, 75609, Control_c, 0, 64, 127
2, 75835, Note_on_c, 0, 54, 75
2, 76014, Note_on_c, 0, 87, 99
2, 76016, Note_on_c, 0, 82, 0
2, 76018, Note_on_c, 0, 75, 93
2, 76021, Note_on_c, 0, 78, 88
2, 76021, Note_on_c, 0, 61, 83
2, 76025, Note_on_c, 0, 66, 87
2, 76026, Note_on_c, 0, 82, 84
2, 76028, Note_on_c, 0, 58, 81
2, 76308, Note_on_c, 0, 54, 0
2, 76312, Note_on_c, 0, 54, 82
2, 76431, Note_on_c, 0, 58, 0
2, 76437, Note_on_c, 0, 58, 87
2, 76447, Note_on_c, 0, 84, 89
2, 76447, Note_on_c, 0, 92, 101
2, 76453, Note_on_c, 0, 80, 85
2, 76563, Note_on_c, 0, 54, 0
2, 76564, Note_on_c, 0, 66, 0
2, 76564, Note_on_c, 0, 82, 0
2, 76564, Note_on_c, 0, 58, 0
2, 76564, Note_on_c, 0, 61, 0
2, 76564, Note_on_c, 0, 80, 0
2, 76564, Control_c, 0, 64, 0
2, 76564, Note_on_c, 0, 78, 0
2, 76565, Note_on_c, 0, 87, 0
2, 76565, Note_on_c, 0, 75, 0
2, 76565, Note_on_c, 0, 85, 0
2, 76569, Note_on_c, 0, 42, 0
2, 76577, Note_on_c, 0, 77, 0
2, 76584, Note_on_c, 0, 89, 0
2, 76592, Note_on_c, 0, 92, 0
2, 76600, Note_on_c, 0, 84, 0
2, 76603, Note_on_c, 0, 92, 104
2, 76604, Note_on_c, 0, 84, 88
2, 76604, Note_on_c, 0, 80, 99
2, 76605, Note_on_c, 0, 44, 88
2, 76607, Note_on_c, 0, 87, 90
2, 76638, Control_c, 0, 64, 127
2, 76890, Note_on_c, 0, 56, 79
2, 77038, Note_on_c, 0, 80, 0
2, 77038, Note_on_c, 0, 84, 0
2, 77039, Note_on_c, 0, 90, 104
2, 77044, Note_on_c, 0, 80, 91
2, 77045, Note_on_c, 0, 78, 95
2, 77046, Note_on_c, 0, 84, 87
2, 77054, Note_on_c, 0, 63, 82
2, 77061, Note_on_c, 0, 60, 75
2, 77191, Note_on_c, 0, 56, 0
2, 77195, Note_on_c, 0, 56, 88
2, 77322, Note_on_c, 0, 80, 0
2, 77322, Note_on_c, 0, 84, 0
2, 77326, Note_on_c, 0, 89, 105
2, 77331, Note_on_c, 0, 80, 95
2, 77332, Note_on_c, 0, 77, 97
2, 77333, Note_on_c, 0, 84, 88
2, 77475, Note_on_c, 0, 56, 0
2, 77483, Note_on_c, 0, 56, 83
2, 77629, Note_on_c, 0, 87, 0
2, 77633, Note_on_c, 0, 87, 103
2, 77637, Note_on_c, 0, 56, 0
2, 77637, Note_on_c, 0, 60, 0
2, 77637, Note_on_c, 0, 63, 0
2, 77637, Note_on_c, 0, 75, 101
2, 77643, Note_on_c, 0, 68, 82
2, 77647, Note_on_c, 0, 63, 79
2, 77648, Note_on_c, 0, 60, 74
2, 77648, Note_on_c, 0, 56, 77
2, 77729, Note_on_c, 0, 56, 0
2, 77738, Note_on_c, 0, 56, 82
2, 77866, Note_on_c, 0, 68, 0
2, 77867, Note_on_c, 0, 78, 0
2, 77868, Note_on_c, 0, 77, 0
2, 77868, Note_on_c, 0, 90, 0
2, 77868, Note_on_c, 0, 80, 0
2, 77868, Note_on_c, 0, 87, 0
2, 77868, Note_on_c, 0, 89, 0
2, 77868, Note_on_c, 0, 60, 0
2, 77868, Note_on_c, 0, 63, 0
2, 77868, Control_c, 0, 64, 0
2, 77868, Note_on_c, 0, 56, 0
2, 77869, Note_on_c, 0, 75, 0
2, 77869, Note_on_c, 0, 92, 0
2, 77875, Note_on_c, 0, 44, 0
2, 77882, Note_on_c, 0, 84, 0
2, 77924, Note_on_c, 0, 87, 102
2, 77927, Note_on_c, 0, 75, 99
2, 77927, Note_on_c, 0, 46, 92
2, 77931, Note_on_c, 0, 58, 95
2, 77931, Note_on_c, 0, 82, 88
2, 77952, Control_c, 0, 64, 127
2, 78136, Note_on_c, 0, 58, 0
2, 78140, Note_on_c, 0, 58, 55
2, 78140, Note_on_c, 0, 77, 64
2, 78227, Note_on_c, 0, 70, 89
2, 78232, Note_on_c, 0, 65, 70
2, 78234, Note_on_c, 0, 61, 82
2, 78374, Note_on_c, 0, 58, 0
2, 78374, Note_on_c, 0, 77, 0
2, 78374, Note_on_c, 0, 82, 0
2, 78376, Note_on_c, 0, 85, 97
2, 78378, Note_on_c, 0, 77, 87
2, 78379, Note_on_c, 0, 73, 89
2, 78382, Note_on_c, 0, 46, 0
2, 78384, Note_on_c, 0, 58, 87
2, 78385, Note_on_c, 0, 82, 87
2, 78658, Note_on_c, 0, 58, 0
2, 78662, Note_on_c, 0, 58, 91
2, 78796, Note_on_c, 0, 61, 0
2, 78796, Note_on_c, 0, 75, 0
2, 78796, Note_on_c, 0, 87, 0
2, 78800, Note_on_c, 0, 61, 87
2, 78803, Note_on_c, 0, 87, 99
2, 78808, Note_on_c, 0, 75, 99
2, 78819, Note_on_c, 0, 82, 0
2, 78826, Note_on_c, 0, 82, 69
2, 78828, Note_on_c, 0, 84, 62
2, 78944, Note_on_c, 0, 61, 0
2, 78944, Note_on_c, 0, 65, 0
2, 78944, Note_on_c, 0, 87, 0
2, 78944, Note_on_c, 0, 58, 0
2, 78944, Note_on_c, 0, 73, 0
2, 78944, Note_on_c, 0, 70, 0
2, 78945, Note_on_c, 0, 75, 0
2, 78945, Note_on_c, 0, 85, 0
2, 78945, Note_on_c, 0, 82, 0
2, 78945, Control_c, 0, 64, 0
2, 78958, Note_on_c, 0, 77, 0
2, 78958, Note_on_c, 0, 84, 0
2, 78964, Note_on_c, 0, 84, 78
2, 78967, Note_on_c, 0, 80, 94
2, 78967, Note_on_c, 0, 89, 105
2, 78967, Note_on_c, 0, 77, 97
2, 78969, Note_on_c, 0, 53, 92
2, 78971, Note_on_c, 0, 41, 88
2, 79011, Control_c, 0, 64, 127
2, 79226, Note_on_c, 0, 53, 0
2, 79231, Note_on_c, 0, 53, 71
2, 79387, Note_on_c, 0, 68, 93
2, 79395, Note_on_c, 0, 63, 78
2, 79399, Note_on_c, 0, 60, 74
2, 79534, Note_on_c, 0, 53, 0
2, 79540, Note_on_c, 0, 53, 80
2, 79825, Note_on_c, 0, 53, 0
2, 79831, Note_on_c, 0, 53, 67
2, 79952, Note_on_c, 0, 85, 102
2, 79953, Note_on_c, 0, 73, 93
2, 79971, Note_on_c, 0, 68, 0
2, 79978, Note_on_c, 0, 68, 91
2, 79979, Note_on_c, 0, 60, 0
2, 79979, Note_on_c, 0, 63, 0
2, 79984, Note_on_c, 0, 60, 71
2, 79984, Note_on_c, 0, 63, 81
2, 80218, Note_on_c, 0, 53, 0
2, 80219, Control_c, 0, 64, 0
2, 80219, Note_on_c, 0, 63, 0
2, 80219, Note_on_c, 0, 68, 0
2, 80219, Note_on_c, 0, 60, 0
2, 80220, Note_on_c, 0, 73, 0
2, 80225, Note_on_c, 0, 84, 0
2, 80232, Note_on_c, 0, 41, 0
2, 80232, Note_on_c, 0, 77, 0
2, 80240, Note_on_c, 0, 89, 0
2, 80248, Note_on_c, 0, 80, 0
2, 80248, Note_on_c, 0, 85, 0
2, 80251, Note_on_c, 0, 92, 110
2, 80252, Note_on_c, 0, 80, 98
2, 80258, Note_on_c, 0, 85, 95
2, 80259, Note_on_c, 0, 39, 91
2, 80266, Note_on_c, 0, 51, 91
2, 80267, Note_on_c, 0, 82, 94
2, 80286, Control_c, 0, 64, 127
2, 80340, Note_on_c, 0, 51, 0
2, 80371, Note_on_c, 0, 39, 0
2, 80431, Note_on_c, 0, 51, 59
2, 80580, Note_on_c, 0, 63, 74
2, 80582, Note_on_c, 0, 58, 72
2, 80693, Note_on_c, 0, 85, 0
2, 80705, Note_on_c, 0, 85, 92
2, 80716, Note_on_c, 0, 51, 0
2, 80718, Note_on_c, 0, 73, 86
2, 80721, Note_on_c, 0, 78, 80
2, 80724, Note_on_c, 0, 82, 0
2, 80727, Note_on_c, 0, 51, 71
2, 80734, Note_on_c, 0, 82, 74
2, 80855, Note_on_c, 0, 73, 0
2, 80855, Note_on_c, 0, 85, 0
2, 80862, Note_on_c, 0, 85, 95
2, 80862, Note_on_c, 0, 78, 0
2, 80862, Note_on_c, 0, 82, 0
2, 80866, Note_on_c, 0, 73, 84
2, 80867, Note_on_c, 0, 78, 74
2, 80872, Note_on_c, 0, 82, 83
2, 80985, Note_on_c, 0, 51, 0
2, 80995, Note_on_c, 0, 51, 71
2, 81131, Note_on_c, 0, 58, 0
2, 81139, Note_on_c, 0, 63, 0
2, 81142, Note_on_c, 0, 58, 78
2, 81142, Note_on_c, 0, 54, 79
2, 81143, Note_on_c, 0, 63, 79
2, 81265, Note_on_c, 0, 80, 0
2, 81265, Note_on_c, 0, 73, 0
2, 81265, Note_on_c, 0, 54, 0
2, 81266, Note_on_c, 0, 78, 0
2, 81266, Note_on_c, 0, 51, 0
2, 81266, Note_on_c, 0, 82, 0
2, 81266, Note_on_c, 0, 58, 0
2, 81266, Note_on_c, 0, 85, 0
2, 81266, Note_on_c, 0, 63, 0
2, 81266, Control_c, 0, 64, 0
2, 81285, Note_on_c, 0, 92, 0
2, 81296, Note_on_c, 0, 92, 107
2, 81297, Note_on_c, 0, 84, 95
2, 81299, Note_on_c, 0, 53, 87
2, 81301, Note_on_c, 0, 87, 96
2, 81302, Note_on_c, 0, 41, 89
2, 81303, Note_on_c, 0, 80, 98
2, 81331, Control_c, 0, 64, 127
2, 81576, Note_on_c, 0, 53, 0
2, 81583, Note_on_c, 0, 53, 78
2, 81730, Note_on_c, 0, 80, 0
2, 81730, Note_on_c, 0, 84, 0
2, 81730, Note_on_c, 0, 90, 102
2, 81734, Note_on_c, 0, 63, 90
2, 81734, Note_on_c, 0, 84, 82
2, 81735, Note_on_c, 0, 60, 86
2, 81737, Note_on_c, 0, 78, 93
2, 81740, Note_on_c, 0, 80, 88
2, 81868, Note_on_c, 0, 53, 0
2, 81878, Note_on_c, 0, 53, 81
2, 82007, Note_on_c, 0, 80, 0
2, 82017, Note_on_c, 0, 80, 98
2, 82018, Note_on_c, 0, 89, 106
2, 82021, Note_on_c, 0, 77, 95
2, 82152, Note_on_c, 0, 53, 0
2, 82158, Note_on_c, 0, 53, 75
2, 82298, Note_on_c, 0, 60, 0
2, 82298, Note_on_c, 0, 80, 0
2, 82298, Note_on_c, 0, 92, 0
2, 82303, Note_on_c, 0, 92, 103
2, 82304, Note_on_c, 0, 60, 82
2, 82305, Note_on_c, 0, 80, 95
2, 82325, Note_on_c, 0, 57, 36
2, 82329, Note_on_c, 0, 57, 0
2, 82434, Control_c, 0, 64, 0
2, 82434, Note_on_c, 0, 78, 0
2, 82435, Note_on_c, 0, 41, 0
2, 82435, Note_on_c, 0, 77, 0
2, 82436, Note_on_c, 0, 90, 0
2, 82436, Note_on_c, 0, 63, 0
2, 82436, Note_on_c, 0, 53, 0
2, 82436, Note_on_c, 0, 84, 0
2, 82436, Note_on_c, 0, 60, 0
2, 82436, Note_on_c, 0, 80, 0
2, 82438, Note_on_c, 0, 92, 0
2, 82452, Note_on_c, 0, 89, 0
2, 82460, Note_on_c, 0, 87, 0
2, 82461, Note_on_c, 0, 89, 93
2, 82462, Note_on_c, 0, 94, 111
2, 82464, Note_on_c, 0, 46, 94
2, 82464, Note_on_c, 0, 82, 99
2, 82470, Note_on_c, 0, 87, 84
2, 82498, Control_c, 0, 64, 127
2, 82738, Note_on_c, 0, 53, 70
2, 82882, Note_on_c, 0, 53, 0
2, 82882, Note_on_c, 0, 58, 76
2, 82883, Note_on_c, 0, 60, 82
2, 82887, Note_on_c, 0, 53, 63
2, 83028, Note_on_c, 0, 87, 0
2, 83033, Note_on_c, 0, 75, 89
2, 83034, Note_on_c, 0, 87, 93
2, 83166, Note_on_c, 0, 89, 0
2, 83178, Note_on_c, 0, 89, 102
2, 83182, Note_on_c, 0, 77, 85
2, 83192, Note_on_c, 0, 81, 57
2, 83197, Note_on_c, 0, 81, 0
2, 83205, Note_on_c, 0, 53, 0
2, 83210, Note_on_c, 0, 53, 77
2, 83312, Note_on_c, 0, 94, 0
2, 83323, Note_on_c, 0, 94, 107
2, 83335, Note_on_c, 0, 58, 0
2, 83335, Note_on_c, 0, 82, 0
2, 83342, Note_on_c, 0, 82, 73
2, 83343, Note_on_c, 0, 60, 0
2, 83344, Note_on_c, 0, 58, 86
2, 83347, Note_on_c, 0, 60, 79
2, 83361, Note_on_c, 0, 80, 49
2, 83458, Note_on_c, 0, 75, 0
2, 83458, Note_on_c, 0, 87, 0
2, 83468, Note_on_c, 0, 87, 96
2, 83468, Note_on_c, 0, 75, 93
2, 83591, Note_on_c, 0, 94, 0
2, 83591, Note_on_c, 0, 53, 0
2, 83592, Note_on_c, 0, 60, 0
2, 83592, Note_on_c, 0, 87, 0
2, 83592, Note_on_c, 0, 82, 0
2, 83592, Control_c, 0, 64, 0
2, 83592, Note_on_c, 0, 89, 0
2, 83592, Note_on_c, 0, 77, 0
2, 83592, Note_on_c, 0, 75, 0
2, 83596, Note_on_c, 0, 80, 0
2, 83612, Note_on_c, 0, 46, 0
2, 83612, Note_on_c, 0, 58, 0
2, 83614, Note_on_c, 0, 86, 100
2, 83618, Note_on_c, 0, 74, 97
2, 83621, Note_on_c, 0, 58, 93
2, 83622, Note_on_c, 0, 46, 88
2, 83622, Note_on_c, 0, 82, 81
2, 83650, Control_c, 0, 64, 127
2, 83878, Note_on_c, 0, 41, 67
2, 83878, Note_on_c, 0, 53, 73
2, 83888, Note_on_c, 0, 75, 89
2, 83888, Note_on_c, 0, 41, 0
2, 83889, Note_on_c, 0, 87, 92
2, 84034, Note_on_c, 0, 58, 0
2, 84038, Note_on_c, 0, 89, 97
2, 84038, Note_on_c, 0, 58, 81
2, 84043, Note_on_c, 0, 77, 93
2, 84044, Note_on_c, 0, 60, 81
2, 84172, Note_on_c, 0, 46, 0
2, 84184, Note_on_c, 0, 46, 89
2, 84296, Note_on_c, 0, 65, 85
2, 84311, Note_on_c, 0, 58, 0
2, 84319, Note_on_c, 0, 58, 88
2, 84346, Note_on_c, 0, 66, 81
2, 84408, Note_on_c, 0, 68, 87
2, 84413, Note_on_c, 0, 70, 76
2, 84433, Note_on_c, 0, 53, 0
2, 84444, Note_on_c, 0, 53, 75
2, 84483, Note_on_c, 0, 72, 93
2, 84545, Note_on_c, 0, 73, 88
2, 84579, Note_on_c, 0, 46, 0
2, 84579, Note_on_c, 0, 75, 0
2, 84584, Note_on_c, 0, 46, 88
2, 84585, Note_on_c, 0, 75, 84
2, 84610, Note_on_c, 0, 77, 0
2, 84616, Note_on_c, 0, 77, 92
2, 84687, Note_on_c, 0, 53, 0
2, 84693, Note_on_c, 0, 53, 83
2, 84841, Note_on_c, 0, 74, 0
2, 84841, Note_on_c, 0, 46, 0
2, 84841, Note_on_c, 0, 68, 0
2, 84841, Note_on_c, 0, 53, 0
2, 84841, Note_on_c, 0, 87, 0
2, 84841, Note_on_c, 0, 70, 0
2, 84841, Control_c, 0, 64, 0
2, 84841, Note_on_c, 0, 72, 0
2, 84841, Note_on_c, 0, 58, 0
2, 84842, Note_on_c, 0, 89, 0
2, 84842, Note_on_c, 0, 66, 0
2, 84842, Note_on_c, 0, 82, 0
2, 84842, Note_on_c, 0, 60, 0
2, 84842, Note_on_c, 0, 86, 0
2, 84842, Note_on_c, 0, 77, 0
2, 84842, Note_on_c, 0, 65, 0
2, 84864, Note_on_c, 0, 75, 0
2, 84871, Note_on_c, 0, 73, 0
2, 84876, Note_on_c, 0, 78, 103
2, 84876, Note_on_c, 0, 73, 93
2, 84881, Note_on_c, 0, 70, 99
2, 84884, Note_on_c, 0, 42, 95
2, 84886, Note_on_c, 0, 54, 94
2, 84925, Control_c, 0, 64, 127
2, 85163, Note_on_c, 0, 73, 0
2, 85167, Note_on_c, 0, 73, 88
2, 85172, Note_on_c, 0, 51, 82
2, 85173, Note_on_c, 0, 39, 81
2, 85309, Note_on_c, 0, 54, 0
2, 85319, Note_on_c, 0, 72, 98
2, 85320, Note_on_c, 0, 70, 0
2, 85320, Note_on_c, 0, 78, 0
2, 85320, Control_c, 0, 64, 0
2, 85321, Note_on_c, 0, 39, 0
2, 85322, Note_on_c, 0, 73, 0
2, 85322, Note_on_c, 0, 51, 0
2, 85328, Note_on_c, 0, 56, 95
2, 85329, Note_on_c, 0, 44, 87
2, 85340, Note_on_c, 0, 42, 0
2, 85386, Control_c, 0, 64, 127
2, 85608, Note_on_c, 0, 51, 81
2, 85628, Note_on_c, 0, 78, 79
2, 85632, Note_on_c, 0, 80, 76
2, 85724, Note_on_c, 0, 56, 0
2, 85731, Note_on_c, 0, 44, 0
2, 85735, Note_on_c, 0, 56, 79
2, 85739, Note_on_c, 0, 78, 0
2, 85740, Note_on_c, 0, 68, 64
2, 85740, Note_on_c, 0, 44, 67
2, 85747, Note_on_c, 0, 68, 0
2, 85748, Note_on_c, 0, 78, 65
2, 85889, Control_c, 0, 64, 0
2, 85895, Note_on_c, 0, 44, 0
2, 85895, Note_on_c, 0, 77, 101
2, 85896, Note_on_c, 0, 80, 0
2, 85896, Note_on_c, 0, 51, 0
2, 85897, Note_on_c, 0, 56, 0
2, 85897, Note_on_c, 0, 78, 0
2, 85898, Note_on_c, 0, 72, 0
2, 85904, Note_on_c, 0, 65, 81
2, 85904, Note_on_c, 0, 70, 83
2, 85907, Note_on_c, 0, 73, 75
2, 85912, Note_on_c, 0, 49, 83
2, 85913, Note_on_c, 0, 37, 85
2, 85977, Control_c, 0, 64, 127
2, 86192, Note_on_c, 0, 73, 0
2, 86201, Note_on_c, 0, 73, 94
2, 86204, Note_on_c, 0, 44, 73
2, 86338, Note_on_c, 0, 49, 0
2, 86343, Note_on_c, 0, 49, 76
2, 86344, Note_on_c, 0, 72, 94
2, 86455, Note_on_c, 0, 70, 0
2, 86455, Note_on_c, 0, 65, 0
2, 86456, Note_on_c, 0, 77, 0
2, 86456, Note_on_c, 0, 37, 0
2, 86456, Note_on_c, 0, 73, 0
2, 86457, Note_on_c, 0, 44, 0
2, 86457, Note_on_c, 0, 49, 0
2, 86457, Note_on_c, 0, 72, 0
2, 86457, Control_c, 0, 64, 0
2, 86501, Note_on_c, 0, 70, 95
2, 86503, Note_on_c, 0, 42, 92
2, 86503, Note_on_c, 0, 66, 93
2, 86568, Control_c, 0, 64, 127
2, 86797, Note_on_c, 0, 49, 76
2, 86800, Note_on_c, 0, 72, 89
2, 86920, Note_on_c, 0, 54, 84
2, 86942, Note_on_c, 0, 73, 86
2, 87023, Note_on_c, 0, 42, 0
2, 87024, Note_on_c, 0, 66, 0
2, 87024, Note_on_c, 0, 54, 0
2, 87024, Note_on_c, 0, 73, 0
2, 87024, Note_on_c, 0, 70, 0
2, 87025, Note_on_c, 0, 72, 0
2, 87025, Note_on_c, 0, 49, 0
2, 87026, Control_c, 0, 64, 0
2, 87087, Note_on_c, 0, 75, 103
2, 87095, Note_on_c, 0, 63, 88
2, 87101, Note_on_c, 0, 66, 87
2, 87102, Note_on_c, 0, 70, 84
2, 87102, Note_on_c, 0, 48, 85
2, 87104, Note_on_c, 0, 36, 89
2, 87129, Control_c, 0, 64, 127
2, 87360, Note_on_c, 0, 48, 0
2, 87368, Note_on_c, 0, 48, 64
2, 87511, Note_on_c, 0, 54, 82
2, 87573, Note_on_c, 0, 72, 93
2, 87576, Note_on_c, 0, 60, 89
2, 87659, Note_on_c, 0, 70, 0
2, 87667, Note_on_c, 0, 48, 0
2, 87670, Note_on_c, 0, 70, 70
2, 87671, Note_on_c, 0, 48, 81
2, 87818, Note_on_c, 0, 58, 96
2, 87828, Note_on_c, 0, 63, 0
2, 87828, Note_on_c, 0, 75, 0
2, 87833, Note_on_c, 0, 75, 99
2, 87837, Note_on_c, 0, 63, 95
2, 87959, Note_on_c, 0, 48, 0
2, 87966, Note_on_c, 0, 66, 0
2, 87969, Note_on_c, 0, 48, 77
2, 87971, Note_on_c, 0, 78, 102
2, 87977, Note_on_c, 0, 66, 93
2, 88089, Note_on_c, 0, 54, 0
2, 88099, Note_on_c, 0, 54, 75
2, 88112, Note_on_c, 0, 70, 0
2, 88117, Note_on_c, 0, 82, 101
2, 88123, Note_on_c, 0, 70, 90
2, 88235, Note_on_c, 0, 36, 0
2, 88255, Note_on_c, 0, 58, 0
2, 88255, Note_on_c, 0, 75, 0
2, 88255, Note_on_c, 0, 63, 0
2, 88255, Note_on_c, 0, 54, 0
2, 88255, Note_on_c, 0, 82, 0
2, 88255, Note_on_c, 0, 48, 0
2, 88255, Note_on_c, 0, 66, 0
2, 88255, Note_on_c, 0, 60, 0
2, 88255, Note_on_c, 0, 78, 0
2, 88256, Control_c, 0, 64, 0
2, 88266, Note_on_c, 0, 70, 0
2, 88273, Note_on_c, 0, 72, 0
2, 88274, Note_on_c, 0, 81, 104
2, 88277, Note_on_c, 0, 41, 90
2, 88279, Note_on_c, 0, 69, 94
2, 88279, Note_on_c, 0, 72, 89
2, 88366, Control_c, 0, 64, 127
2, 88537, Note_on_c, 0, 48, 70
2, 88685, Note_on_c, 0, 53, 75
2, 88692, Note_on_c, 0, 57, 88
2, 88834, Note_on_c, 0, 53, 0
2, 88837, Note_on_c, 0, 77, 89
2, 88838, Note_on_c, 0, 53, 76
2, 88962, Note_on_c, 0, 78, 99
2, 88986, Note_on_c, 0, 60, 83
2, 88987, Note_on_c, 0, 65, 91
2, 88988, Note_on_c, 0, 57, 0
2, 88992, Note_on_c, 0, 57, 76
2, 88999, Note_on_c, 0, 58, 82
2, 89084, Note_on_c, 0, 75, 87
2, 89127, Note_on_c, 0, 73, 74
2, 89157, Note_on_c, 0, 72, 0
2, 89167, Note_on_c, 0, 72, 85
2, 89239, Note_on_c, 0, 70, 88
2, 89295, Note_on_c, 0, 69, 0
2, 89300, Note_on_c, 0, 69, 85
2, 89378, Note_on_c, 0, 48, 0
2, 89378, Note_on_c, 0, 60, 0
2, 89378, Note_on_c, 0, 73, 0
2, 89378, Note_on_c, 0, 69, 0
2, 89378, Note_on_c, 0, 77, 0
2, 89379, Note_on_c, 0, 78, 0
2, 89379, Note_on_c, 0, 58, 0
2, 89379, Note_on_c, 0, 65, 0
2, 89379, Note_on_c, 0, 57, 0
2, 89379, Note_on_c, 0, 72, 0
2, 89379, Note_on_c, 0, 75, 0
2, 89381, Control_c, 0, 64, 0
2, 89381, Note_on_c, 0, 81, 0
2, 89395, Note_on_c, 0, 41, 0
2, 89395, Note_on_c, 0, 53, 0
2, 89395, Note_on_c, 0, 70, 0
2, 89406, Note_on_c, 0, 70, 101
2, 89412, Note_on_c, 0, 66, 97
2, 89414, Note_on_c, 0, 42, 100
2, 89415, Note_on_c, 0, 30, 98
2, 89479, Control_c, 0, 64, 127
2, 89713, Note_on_c, 0, 57, 63
2, 89752, Note_on_c, 0, 61, 74
2, 89802, Note_on_c, 0, 66, 0
2, 89811, Note_on_c, 0, 66, 59
2, 89853, Note_on_c, 0, 68, 85
2, 89853, Note_on_c, 0, 49, 76
2, 89888, Note_on_c, 0, 54, 68
2, 89949, Note_on_c, 0, 73, 86
2, 90014, Note_on_c, 0, 78, 78
2, 90066, Note_on_c, 0, 80, 87
2, 90086, Note_on_c, 0, 30, 0
2, 90094, Note_on_c, 0, 61, 0
2, 90099, Note_on_c, 0, 61, 100
2, 90104, Note_on_c, 0, 58, 79
2, 90113, Note_on_c, 0, 82, 88
2, 90186, Note_on_c, 0, 73, 0
2, 90197, Note_on_c, 0, 73, 75
2, 90240, Note_on_c, 0, 78, 0
2, 90251, Note_on_c, 0, 78, 80
2, 90301, Note_on_c, 0, 80, 0
2, 90311, Note_on_c, 0, 80, 79
2, 90332, Note_on_c, 0, 82, 0
2, 90336, Note_on_c, 0, 82, 69
2, 90393, Note_on_c, 0, 54, 0
2, 90397, Note_on_c, 0, 85, 87
2, 90399, Note_on_c, 0, 54, 85
2, 90452, Note_on_c, 0, 90, 84
2, 90493, Note_on_c, 0, 42, 0
2, 90500, Note_on_c, 0, 92, 81
2, 90537, Note_on_c, 0, 94, 102
2, 90539, Note_on_c, 0, 58, 0
2, 90539, Note_on_c, 0, 61, 0
2, 90539, Note_on_c, 0, 66, 0
2, 90550, Note_on_c, 0, 66, 97
2, 90550, Note_on_c, 0, 58, 85
2, 90550, Note_on_c, 0, 61, 90
2, 90600, Note_on_c, 0, 92, 0
2, 90608, Note_on_c, 0, 92, 74
2, 90639, Note_on_c, 0, 90, 0
2, 90649, Note_on_c, 0, 90, 90
2, 90685, Note_on_c, 0, 85, 0
2, 90691, Note_on_c, 0, 85, 77
2, 90777, Note_on_c, 0, 82, 0
2, 90783, Note_on_c, 0, 82, 71
2, 90816, Note_on_c, 0, 54, 0
2, 90816, Note_on_c, 0, 80, 0
2, 90820, Note_on_c, 0, 80, 78
2, 90821, Note_on_c, 0, 54, 87
2, 90862, Note_on_c, 0, 78, 0
2, 90868, Note_on_c, 0, 78, 85
2, 90946, Note_on_c, 0, 82, 0
2, 90951, Note_on_c, 0, 82, 95
2, 90961, Note_on_c, 0, 58, 0
2, 90961, Note_on_c, 0, 61, 0
2, 90961, Note_on_c, 0, 66, 0
2, 90968, Note_on_c, 0, 61, 87
2, 90970, Note_on_c, 0, 58, 87
2, 90972, Note_on_c, 0, 66, 82
2, 91008, Note_on_c, 0, 80, 0
2, 91018, Note_on_c, 0, 80, 33
2, 91038, Note_on_c, 0, 78, 0
2, 91044, Note_on_c, 0, 78, 80
2, 91069, Note_on_c, 0, 61, 0
2, 91069, Note_on_c, 0, 73, 0
2, 91078, Note_on_c, 0, 61, 81
2, 91079, Note_on_c, 0, 73, 84
2, 91184, Note_on_c, 0, 68, 0
2, 91195, Note_on_c, 0, 68, 77
2, 91223, Note_on_c, 0, 54, 0
2, 91230, Note_on_c, 0, 61, 0
2, 91234, Note_on_c, 0, 54, 90
2, 91237, Note_on_c, 0, 61, 86
2, 91376, Note_on_c, 0, 49, 0
2, 91380, Note_on_c, 0, 49, 91
2, 91513, Note_on_c, 0, 42, 87
2, 91653, Note_on_c, 0, 57, 0
2, 91656, Note_on_c, 0, 94, 0
2, 91656, Note_on_c, 0, 90, 0
2, 91656, Note_on_c, 0, 92, 0
2, 91656, Note_on_c, 0, 78, 0
2, 91656, Note_on_c, 0, 80, 0
2, 91656, Note_on_c, 0, 82, 0
2, 91656, Note_on_c, 0, 42, 0
2, 91656, Note_on_c, 0, 54, 0
2, 91656, Note_on_c, 0, 58, 0
2, 91657, Note_on_c, 0, 49, 0
2, 91657, Note_on_c, 0, 85, 0
2, 91657, Note_on_c, 0, 73, 0
2, 91657, Note_on_c, 0, 61, 0
2, 91657, Control_c, 0, 64, 0
2, 91660, Note_on_c, 0, 66, 0
2, 91668, Note_on_c, 0, 68, 0
2, 91676, Note_on_c, 0, 70, 0
2, 91680, Note_on_c, 0, 70, 104
2, 91687, Note_on_c, 0, 63, 100
2, 91687, Note_on_c, 0, 60, 97
2, 91689, Note_on_c, 0, 32, 84
2, 91692, Note_on_c, 0, 44, 97
2, 91752, Control_c, 0, 64, 127
2, 91760, Note_on_c, 0, 60, 0
2, 91975, Note_on_c, 0, 44, 0
2, 91979, Note_on_c, 0, 60, 88
2, 91979, Note_on_c, 0, 44, 85
2, 92021, Note_on_c, 0, 63, 0
2, 92030, Note_on_c, 0, 63, 60
2, 92073, Note_on_c, 0, 68, 86
2, 92110, Note_on_c, 0, 51, 63
2, 92164, Note_on_c, 0, 72, 83
2, 92233, Note_on_c, 0, 75, 79
2, 92236, Note_on_c, 0, 63, 0
2, 92239, Note_on_c, 0, 56, 85
2, 92241, Note_on_c, 0, 63, 76
2, 92244, Note_on_c, 0, 60, 0
2, 92249, Note_on_c, 0, 60, 77
2, 92290, Note_on_c, 0, 80, 85
2, 92385, Note_on_c, 0, 82, 99
2, 92390, Note_on_c, 0, 60, 0
2, 92390, Note_on_c, 0, 68, 0
2, 92398, Note_on_c, 0, 63, 0
2, 92400, Note_on_c, 0, 68, 98
2, 92400, Note_on_c, 0, 60, 90
2, 92402, Note_on_c, 0, 63, 89
2, 92444, Note_on_c, 0, 72, 0
2, 92455, Note_on_c, 0, 72, 62
2, 92505, Note_on_c, 0, 75, 0
2, 92510, Note_on_c, 0, 75, 81
2, 92559, Note_on_c, 0, 80, 0
2, 92566, Note_on_c, 0, 80, 90
2, 92590, Note_on_c, 0, 82, 0
2, 92598, Note_on_c, 0, 82, 78
2, 92659, Note_on_c, 0, 56, 0
2, 92662, Note_on_c, 0, 84, 86
2, 92664, Note_on_c, 0, 56, 88
2, 92713, Note_on_c, 0, 87, 94
2, 92778, Note_on_c, 0, 92, 76
2, 92809, Note_on_c, 0, 94, 106
2, 92812, Note_on_c, 0, 60, 0
2, 92812, Note_on_c, 0, 68, 0
2, 92820, Note_on_c, 0, 63, 0
2, 92823, Note_on_c, 0, 68, 104
2, 92824, Note_on_c, 0, 60, 91
2, 92824, Note_on_c, 0, 63, 98
2, 92881, Note_on_c, 0, 92, 0
2, 92888, Note_on_c, 0, 92, 91
2, 92912, Note_on_c, 0, 87, 0
2, 92916, Note_on_c, 0, 87, 86
2, 92958, Note_on_c, 0, 84, 0
2, 92965, Note_on_c, 0, 84, 81
2, 93035, Note_on_c, 0, 82, 0
2, 93041, Note_on_c, 0, 82, 78
2, 93081, Note_on_c, 0, 56, 0
2, 93092, Note_on_c, 0, 56, 80
2, 93112, Note_on_c, 0, 75, 0
2, 93122, Note_on_c, 0, 75, 85
2, 93150, Note_on_c, 0, 72, 0
2, 93158, Note_on_c, 0, 72, 76
2, 93219, Note_on_c, 0, 63, 0
2, 93219, Note_on_c, 0, 68, 0
2, 93219, Note_on_c, 0, 82, 0
2, 93227, Note_on_c, 0, 60, 0
2, 93230, Note_on_c, 0, 82, 95
2, 93230, Note_on_c, 0, 63, 94
2, 93231, Note_on_c, 0, 68, 97
2, 93237, Note_on_c, 0, 60, 89
2, 93296, Note_on_c, 0, 75, 0
2, 93302, Note_on_c, 0, 75, 91
2, 93350, Note_on_c, 0, 72, 0
2, 93354, Note_on_c, 0, 72, 82
2, 93419, Note_on_c, 0, 70, 0
2, 93427, Note_on_c, 0, 70, 80
2, 93464, Control_c, 0, 64, 0
2, 93465, Note_on_c, 0, 68, 0
2, 93470, Note_on_c, 0, 68, 74
2, 93480, Note_on_c, 0, 63, 0
2, 93485, Note_on_c, 0, 63, 94
2, 93504, Note_on_c, 0, 56, 0
2, 93504, Note_on_c, 0, 60, 0
2, 93504, Control_c, 0, 64, 127
2, 93508, Note_on_c, 0, 60, 89
2, 93511, Note_on_c, 0, 56, 99
2, 93642, Note_on_c, 0, 51, 0
2, 93649, Note_on_c, 0, 51, 93
2, 93780, Note_on_c, 0, 44, 0
2, 93786, Note_on_c, 0, 44, 89
2, 93892, Note_on_c, 0, 94, 0
2, 93893, Note_on_c, 0, 82, 0
2, 93893, Note_on_c, 0, 80, 0
2, 93893, Note_on_c, 0, 51, 0
2, 93893, Note_on_c, 0, 70, 0
2, 93894, Note_on_c, 0, 56, 0
2, 93894, Note_on_c, 0, 92, 0
2, 93895, Note_on_c, 0, 84, 0
2, 93895, Note_on_c, 0, 60, 0
2, 93895, Note_on_c, 0, 72, 0
2, 93895, Note_on_c, 0, 44, 0
2, 93895, Note_on_c, 0, 63, 0
2, 93895, Control_c, 0, 64, 0
2, 93895, Note_on_c, 0, 75, 0
2, 93895, Note_on_c, 0, 87, 0
2, 93911, Note_on_c, 0, 32, 0
2, 93911, Note_on_c, 0, 68, 0
2, 93941, Note_on_c, 0, 70, 106
2, 93944, Note_on_c, 0, 65, 95
2, 93945, Note_on_c, 0, 62, 99
2, 93948, Note_on_c, 0, 46, 98
2, 93951, Note_on_c, 0, 34, 92
2, 93984, Note_on_c, 0, 34, 0
2, 93995, Control_c, 0, 64, 127
2, 94241, Note_on_c, 0, 46, 0
2, 94241, Note_on_c, 0, 62, 0
2, 94249, Note_on_c, 0, 62, 83
2, 94251, Note_on_c, 0, 46, 72
2, 94251, Note_on_c, 0, 58, 72
2, 94298, Note_on_c, 0, 63, 79
2, 94318, Note_on_c, 0, 65, 0
2, 94322, Note_on_c, 0, 65, 75
2, 94364, Note_on_c, 0, 70, 0
2, 94367, Note_on_c, 0, 53, 73
2, 94368, Note_on_c, 0, 70, 83
2, 94452, Note_on_c, 0, 74, 88
2, 94471, Note_on_c, 0, 58, 0
2, 94481, Note_on_c, 0, 58, 85
2, 94502, Note_on_c, 0, 62, 0
2, 94513, Note_on_c, 0, 62, 51
2, 94513, Note_on_c, 0, 75, 88
2, 94590, Note_on_c, 0, 77, 81
2, 94632, Note_on_c, 0, 62, 0
2, 94632, Note_on_c, 0, 65, 0
2, 94637, Note_on_c, 0, 62, 86
2, 94638, Note_on_c, 0, 65, 84
2, 94641, Note_on_c, 0, 82, 104
2, 94717, Note_on_c, 0, 74, 0
2, 94727, Note_on_c, 0, 74, 93
2, 94771, Note_on_c, 0, 75, 0
2, 94779, Note_on_c, 0, 75, 87
2, 94809, Note_on_c, 0, 77, 0
2, 94813, Note_on_c, 0, 77, 84
2, 94848, Note_on_c, 0, 82, 0
2, 94858, Note_on_c, 0, 82, 86
2, 94909, Note_on_c, 0, 58, 0
2, 94914, Note_on_c, 0, 58, 89
2, 94919, Note_on_c, 0, 86, 98
2, 94966, Note_on_c, 0, 87, 99
2, 94997, Note_on_c, 0, 89, 98
2, 95056, Note_on_c, 0, 94, 112
2, 95063, Note_on_c, 0, 70, 0
2, 95070, Note_on_c, 0, 58, 0
2, 95070, Note_on_c, 0, 62, 0
2, 95070, Note_on_c, 0, 65, 0
2, 95073, Note_on_c, 0, 70, 103
2, 95075, Note_on_c, 0, 65, 86
2, 95079, Note_on_c, 0, 62, 86
2, 95080, Note_on_c, 0, 58, 85
2, 95116, Note_on_c, 0, 89, 0
2, 95128, Note_on_c, 0, 89, 89
2, 95155, Note_on_c, 0, 87, 0
2, 95166, Note_on_c, 0, 87, 91
2, 95293, Note_on_c, 0, 82, 0
2, 95298, Note_on_c, 0, 82, 71
2, 95301, Note_on_c, 0, 77, 0
2, 95305, Note_on_c, 0, 77, 80
2, 95316, Note_on_c, 0, 58, 0
2, 95327, Note_on_c, 0, 58, 75
2, 95354, Note_on_c, 0, 75, 0
2, 95365, Note_on_c, 0, 75, 84
2, 95408, Note_on_c, 0, 74, 0
2, 95418, Note_on_c, 0, 74, 65
2, 95447, Note_on_c, 0, 82, 0
2, 95456, Note_on_c, 0, 82, 102
2, 95462, Note_on_c, 0, 70, 0
2, 95466, Note_on_c, 0, 70, 94
2, 95470, Note_on_c, 0, 62, 0
2, 95470, Note_on_c, 0, 65, 0
2, 95475, Note_on_c, 0, 65, 81
2, 95480, Note_on_c, 0, 62, 85
2, 95516, Note_on_c, 0, 77, 0
2, 95526, Note_on_c, 0, 77, 79
2, 95527, Note_on_c, 0, 78, 71
2, 95554, Note_on_c, 0, 75, 0
2, 95564, Note_on_c, 0, 75, 90
2, 95685, Note_on_c, 0, 65, 0
2, 95696, Note_on_c, 0, 65, 70
2, 95715, Note_on_c, 0, 63, 0
2, 95724, Note_on_c, 0, 63, 79
2, 95746, Note_on_c, 0, 58, 0
2, 95757, Note_on_c, 0, 58, 98
2, 95761, Note_on_c, 0, 62, 0
2, 95767, Note_on_c, 0, 62, 78
2, 95877, Note_on_c, 0, 53, 0
2, 95888, Note_on_c, 0, 53, 85
2, 96046, Note_on_c, 0, 46, 0
2, 96051, Note_on_c, 0, 46, 89
2, 96223, Note_on_c, 0, 94, 0
2, 96224, Note_on_c, 0, 53, 0
2, 96225, Note_on_c, 0, 82, 0
2, 96225, Note_on_c, 0, 87, 0
2, 96225, Note_on_c, 0, 77, 0
2, 96225, Control_c, 0, 64, 0
2, 96226, Note_on_c, 0, 34, 98
2, 96238, Note_on_c, 0, 65, 0
2, 96238, Note_on_c, 0, 70, 0
2, 96238, Note_on_c, 0, 78, 0
2, 96238, Note_on_c, 0, 89, 0
2, 96245, Note_on_c, 0, 63, 0
2, 96245, Note_on_c, 0, 74, 0
2, 96245, Note_on_c, 0, 75, 0
2, 96245, Note_on_c, 0, 86, 0
2, 97920, Note_on_c, 0, 46, 0
2, 97920, Note_on_c, 0, 58, 0
2, 97920, Note_on_c, 0, 62, 0
2, 98119, Control_c, 0, 64, 127
2, 99790, Note_on_c, 0, 53, 64
2, 99792, Note_on_c, 0, 41, 60
2, 100039, Control_c, 0, 64, 0
2, 100346, Control_c, 0, 64, 127
2, 100838, Note_on_c, 0, 34, 0
2, 101481, Note_on_c, 0, 58, 76
2, 101482, Note_on_c, 0, 46, 68
2, 101760, Note_on_c, 0, 41, 0
2, 101760, Note_on_c, 0, 53, 0
2, 103201, Note_on_c, 0, 51, 67
2, 103202, Note_on_c, 0, 63, 70
2, 105105, Note_on_c, 0, 68, 79
2, 105116, Note_on_c, 0, 46, 0
2, 105121, Note_on_c, 0, 46, 45
2, 105122, Note_on_c, 0, 60, 58
2, 105123, Note_on_c, 0, 63, 0
2, 105128, Note_on_c, 0, 53, 48
2, 105128, Note_on_c, 0, 56, 54
2, 105129, Note_on_c, 0, 63, 55
2, 105177, Note_on_c, 0, 58, 0
2, 105181, Note_on_c, 0, 51, 0
2, 105234, Control_c, 0, 64, 0
2, 105292, Control_c, 0, 64, 127
2, 107732, Note_on_c, 0, 70, 51
2, 107733, Note_on_c, 0, 62, 42
2, 107735, Note_on_c, 0, 58, 42
2, 107816, Control_c, 0, 64, 0
2, 107873, Note_on_c, 0, 60, 0
2, 107874, Note_on_c, 0, 56, 0
2, 107874, Note_on_c, 0, 68, 0
2, 107904, Note_on_c, 0, 63, 0
2, 109263, Control_c, 0, 64, 127
2, 109440, Note_on_c, 0, 46, 0
2, 109739, Note_on_c, 0, 53, 0
2, 111329, Note_on_c, 0, 58, 0
2, 111334, Note_on_c, 0, 75, 64
2, 111340, Note_on_c, 0, 51, 44
2, 111340, Note_on_c, 0, 58, 53
2, 111344, Note_on_c, 0, 70, 0
2, 111349, Note_on_c, 0, 63, 49
2, 111350, Note_on_c, 0, 67, 49
2, 111351, Note_on_c, 0, 70, 54
2, 111376, Control_c, 0, 64, 0
2, 111387, Note_on_c, 0, 62, 0
2, 111505, Control_c, 0, 64, 127
2, 111780, Note_on_c, 0, 82, 77
2, 112144, Note_on_c, 0, 84, 82
2, 112508, Note_on_c, 0, 79, 80
2, 112515, Note_on_c, 0, 74, 72
2, 112519, Note_on_c, 0, 58, 0
2, 112519, Note_on_c, 0, 70, 0
2, 112525, Note_on_c, 0, 58, 61
2, 112525, Note_on_c, 0, 62, 61
2, 112527, Note_on_c, 0, 70, 64
2, 112527, Note_on_c, 0, 67, 0
2, 112531, Note_on_c, 0, 67, 50
2, 112568, Note_on_c, 0, 51, 0
2, 112576, Note_on_c, 0, 75, 0
2, 112596, Control_c, 0, 64, 0
2, 112680, Control_c, 0, 64, 127
2, 112884, Note_on_c, 0, 80, 82
2, 113295, Note_on_c, 0, 82, 0
2, 113304, Note_on_c, 0, 82, 78
2, 113744, Note_on_c, 0, 72, 69
2, 113748, Note_on_c, 0, 63, 0
2, 113757, Note_on_c, 0, 68, 59
2, 113757, Note_on_c, 0, 60, 54
2, 113757, Note_on_c, 0, 63, 55
2, 113991, Note_on_c, 0, 75, 77
2, 114181, Note_on_c, 0, 77, 78
2, 114352, Note_on_c, 0, 56, 63
2, 114524, Note_on_c, 0, 77, 0
2, 114530, Note_on_c, 0, 77, 80
2, 114700, Note_on_c, 0, 79, 0
2, 114710, Note_on_c, 0, 79, 81
2, 114892, Note_on_c, 0, 58, 0
2, 114892, Note_on_c, 0, 62, 0
2, 114892, Note_on_c, 0, 67, 0
2, 114898, Note_on_c, 0, 62, 68
2, 114898, Note_on_c, 0, 58, 72
2, 114899, Note_on_c, 0, 67, 64
2, 114934, Note_on_c, 0, 63, 0
2, 114934, Note_on_c, 0, 68, 0
2, 114934, Note_on_c, 0, 72, 0
2, 114934, Note_on_c, 0, 60, 0
2, 114934, Note_on_c, 0, 80, 0
2, 114934, Note_on_c, 0, 74, 0
2, 114934, Note_on_c, 0, 82, 0
2, 114934, Note_on_c, 0, 77, 0
2, 114935, Note_on_c, 0, 70, 0
2, 114935, Note_on_c, 0, 75, 0
2, 114952, Control_c, 0, 64, 0
2, 114984, Control_c, 0, 64, 127
2, 115066, Note_on_c, 0, 74, 81
2, 115265, Note_on_c, 0, 77, 82
2, 115444, Note_on_c, 0, 55, 69
2, 115652, Note_on_c, 0, 75, 81
2, 115906, Note_on_c, 0, 79, 0
2, 115911, Note_on_c, 0, 79, 75
2, 116195, Note_on_c, 0, 53, 51
2, 116197, Note_on_c, 0, 56, 0
2, 116198, Note_on_c, 0, 74, 0
2, 116198, Note_on_c, 0, 55, 0
2, 116199, Note_on_c, 0, 67, 0
2, 116199, Note_on_c, 0, 75, 0
2, 116200, Note_on_c, 0, 77, 0
2, 116202, Control_c, 0, 64, 0
2, 116206, Note_on_c, 0, 62, 0
2, 116206, Note_on_c, 0, 84, 0
2, 116213, Note_on_c, 0, 58, 0
2, 116236, Note_on_c, 0, 68, 72
2, 116267, Control_c, 0, 64, 127
2, 116328, Note_on_c, 0, 53, 0
2, 116520, Note_on_c, 0, 72, 75
2, 116525, Note_on_c, 0, 60, 65
2, 116771, Note_on_c, 0, 63, 65
2, 116771, Note_on_c, 0, 75, 73
2, 117012, Note_on_c, 0, 60, 0
2, 117023, Note_on_c, 0, 60, 56
2, 117024, Note_on_c, 0, 74, 70
2, 117196, Note_on_c, 0, 63, 0
2, 117204, Note_on_c, 0, 75, 0
2, 117205, Note_on_c, 0, 63, 66
2, 117209, Note_on_c, 0, 75, 75
2, 117373, Note_on_c, 0, 68, 0
2, 117373, Note_on_c, 0, 79, 0
2, 117384, Note_on_c, 0, 79, 81
2, 117384, Note_on_c, 0, 68, 77
2, 117550, Note_on_c, 0, 72, 0
2, 117560, Note_on_c, 0, 80, 87
2, 117560, Note_on_c, 0, 72, 75
2, 117757, Note_on_c, 0, 75, 0
2, 117761, Note_on_c, 0, 84, 84
2, 117762, Note_on_c, 0, 75, 78
2, 117972, Note_on_c, 0, 80, 0
2, 117983, Note_on_c, 0, 87, 93
2, 117983, Note_on_c, 0, 80, 74
2, 118240, Note_on_c, 0, 86, 90
2, 118241, Note_on_c, 0, 75, 0
2, 118245, Note_on_c, 0, 75, 72
2, 118510, Note_on_c, 0, 87, 0
2, 118517, Note_on_c, 0, 80, 0
2, 118520, Note_on_c, 0, 87, 90
2, 118521, Note_on_c, 0, 80, 73
2, 118863, Note_on_c, 0, 84, 0
2, 118872, Note_on_c, 0, 84, 66
2, 118891, Note_on_c, 0, 91, 81
2, 119272, Note_on_c, 0, 58, 57
2, 119316, Note_on_c, 0, 68, 0
2, 119327, Note_on_c, 0, 68, 63
2, 119397, Note_on_c, 0, 71, 68
2, 119416, Note_on_c, 0, 91, 0
2, 119424, Note_on_c, 0, 80, 0
2, 119435, Note_on_c, 0, 80, 67
2, 119482, Note_on_c, 0, 83, 81
2, 119527, Control_c, 0, 64, 0
2, 119546, Note_on_c, 0, 87, 0
2, 119552, Note_on_c, 0, 87, 90
2, 119565, Note_on_c, 0, 84, 0
2, 119565, Note_on_c, 0, 75, 0
2, 119566, Note_on_c, 0, 63, 0
2, 119566, Note_on_c, 0, 72, 0
2, 119567, Note_on_c, 0, 74, 0
2, 119567, Note_on_c, 0, 86, 0
2, 119567, Note_on_c, 0, 79, 0
2, 119577, Note_on_c, 0, 60, 0
2, 119709, Note_on_c, 0, 92, 100
2, 120261, Control_c, 0, 64, 127
2, 121604, Note_on_c, 0, 91, 68
2, 121654, Note_on_c, 0, 70, 45
2, 121694, Control_c, 0, 64, 0
2, 121706, Note_on_c, 0, 71, 0
2, 121707, Note_on_c, 0, 92, 0
2, 121707, Note_on_c, 0, 83, 0
2, 121758, Note_on_c, 0, 87, 0
2, 121889, Control_c, 0, 64, 127
2, 122065, Note_on_c, 0, 68, 0
2, 122211, Note_on_c, 0, 58, 0
2, 122280, Note_on_c, 0, 80, 0
2, 122665, Note_on_c, 0, 89, 69
2, 122672, Note_on_c, 0, 80, 51
2, 123682, Note_on_c, 0, 82, 47
2, 123709, Note_on_c, 0, 91, 0
2, 123772, Note_on_c, 0, 87, 66
2, 123893, Note_on_c, 0, 89, 0
2, 123904, Note_on_c, 0, 89, 74
2, 124128, Note_on_c, 0, 94, 84
2, 124129, Note_on_c, 0, 51, 49
2, 124171, Control_c, 0, 64, 0
2, 124199, Note_on_c, 0, 70, 0
2, 124200, Note_on_c, 0, 80, 0
2, 124285, Control_c, 0, 64, 127
2, 124316, Note_on_c, 0, 89, 0
2, 124512, Note_on_c, 0, 58, 51
2, 124810, Note_on_c, 0, 63, 43
2, 124815, Note_on_c, 0, 82, 0
2, 125061, Note_on_c, 0, 58, 0
2, 125071, Note_on_c, 0, 58, 52
2, 125260, Note_on_c, 0, 63, 0
2, 125270, Note_on_c, 0, 63, 51
2, 125480, Note_on_c, 0, 65, 48
2, 125731, Note_on_c, 0, 70, 39
2, 125982, Note_on_c, 0, 65, 0
2, 125991, Note_on_c, 0, 65, 41
2, 126289, Note_on_c, 0, 70, 0
2, 126296, Note_on_c, 0, 70, 45
2, 126634, Note_on_c, 0, 75, 43
2, 126994, Note_on_c, 0, 77, 41
2, 127548, Note_on_c, 0, 82, 46
2, 128378, Note_on_c, 0, 87, 0
2, 128459, Note_on_c, 0, 99, 59
2, 128462, Note_on_c, 0, 27, 39
2, 128466, Note_on_c, 0, 87, 46
2, 128471, Note_on_c, 0, 39, 36
2, 128640, Note_on_c, 0, 51, 0
2, 128640, Note_on_c, 0, 58, 0
2, 128640, Note_on_c, 0, 63, 0
2, 128640, Note_on_c, 0, 65, 0
2, 128640, Note_on_c, 0, 70, 0
2, 128640, Note_on_c, 0, 94, 0
2, 131243, Note_on_c, 0, 75, 0
2, 131604, Note_on_c, 0, 77, 0
2, 132157, Note_on_c, 0, 82, 0
2, 132480, Note_on_c, 0, 27, 0
2, 132480, Note_on_c, 0, 39, 0
2, 132480, Note_on_c, 0, 87, 0
2, 132480, Note_on_c, 0, 99, 0
2, 135605, Control_c, 0, 64, 0
2, 136742, Control_c, 0, 64, 127
2, 136780, Control_c, 0, 64, 0
2, 136988, Control_c, 0, 64, 127
2, 137026, Control_c, 0, 64, 0
2, 137180, Control_c, 0, 64, 127
2, 137295, Control_c, 0, 64, 0
2, 137433, Control_c, 0, 64, 127
2, 137571, Control_c, 0, 64, 0
2, 137572, End_track
0, 0, End_of_file
