0, 0, Header, 1, 2, 384
1, 0, Start_track
1, 0, Tempo, 500000
1, 0, Time_signature, 4, 2, 24, 8
1, 1, End_track
2, 0, Start_track
2, 1619, Note_on_c, 0, 47, 51
2, 1677, Note_on_c, 0, 51, 46
2, 1681, Control_c, 0, 64, 127
2, 1685, Note_on_c, 0, 54, 45
2, 1738, Note_on_c, 0, 58, 61
2, 1743, Note_on_c, 0, 47, 0
2, 1785, Note_on_c, 0, 66, 75
2, 2012, Note_on_c, 0, 66, 0
2, 2016, Note_on_c, 0, 66, 64
2, 2142, Note_on_c, 0, 66, 0
2, 2152, Note_on_c, 0, 66, 71
2, 2472, Note_on_c, 0, 66, 0
2, 2479, Note_on_c, 0, 66, 72
2, 2726, Note_on_c, 0, 66, 0
2, 2731, Note_on_c, 0, 66, 59
2, 2841, Note_on_c, 0, 66, 0
2, 2853, Note_on_c, 0, 66, 75
2, 3202, Note_on_c, 0, 66, 0
2, 3213, Note_on_c, 0, 66, 74
2, 3440, Note_on_c, 0, 66, 0
2, 3446, Note_on_c, 0, 66, 70
2, 3562, Note_on_c, 0, 65, 75
2, 3568, Control_c, 0, 64, 0
2, 3574, Note_on_c, 0, 51, 0
2, 3574, Note_on_c, 0, 54, 0
2, 3575, Note_on_c, 0, 66, 0
2, 3575, Note_on_c, 0, 58, 0
2, 3783, Note_on_c, 0, 61, 72
2, 3790, Note_on_c, 0, 65, 0
2, 3847, Control_c, 0, 64, 127
2, 4303, Note_on_c, 0, 56, 71
2, 4313, Note_on_c, 0, 53, 60
2, 4313, Note_on_c, 0, 49, 67
2, 4508, Note_on_c, 0, 61, 0
2, 4517, Note_on_c, 0, 61, 70
2, 4628, Note_on_c, 0, 51, 60
2, 4635, Control_c, 0, 64, 0
2, 4641, Note_on_c, 0, 53, 0
2, 4641, Note_on_c, 0, 54, 53
2, 4641, Note_on_c, 0, 49, 0
2, 4641, Note_on_c, 0, 56, 0
2, 4642, Note_on_c, 0, 61, 0
2, 4667, Note_on_c, 0, 58, 65
2, 4671, Note_on_c, 0, 66, 82
2, 4771, Note_on_c, 0, 66, 0
2, 4776, Control_c, 0, 64, 127
2, 4895, Note_on_c, 0, 66, 77
2, 4999, Note_on_c, 0, 66, 0
2, 5007, Note_on_c, 0, 66, 77
2, 5345, Note_on_c, 0, 66, 0
2, 5356, Note_on_c, 0, 66, 69
2, 5591, Note_on_c, 0, 66, 0
2, 5596, Note_on_c, 0, 66, 64
2, 5698, Note_on_c, 0, 66, 0
2, 5706, Note_on_c, 0, 66, 82
2, 6044, Note_on_c, 0, 66, 0
2, 6054, Note_on_c, 0, 66, 79
2, 6266, Note_on_c, 0, 66, 0
2, 6275, Note_on_c, 0, 66, 69
2, 6392, Note_on_c, 0, 65, 70
2, 6616, Note_on_c, 0, 61, 77
2, 7121, Control_c, 0, 64, 0
2, 7125, Note_on_c, 0, 56, 69
2, 7129, Note_on_c, 0, 49, 61
2, 7129, Note_on_c, 0, 53, 65
2, 7132, Note_on_c, 0, 58, 0
2, 7157, Control_c, 0, 64, 127
2, 7165, Note_on_c, 0, 66, 0
2, 7334, Note_on_c, 0, 61, 0
2, 7339, Note_on_c, 0, 61, 78
2, 7439, Note_on_c, 0, 49, 0
2, 7441, Note_on_c, 0, 56, 0
2, 7441, Control_c, 0, 64, 0
2, 7441, Note_on_c, 0, 53, 0
2, 7441, Note_on_c, 0, 61, 0
2, 7445, Note_on_c, 0, 47, 63
2, 7449, Note_on_c, 0, 65, 0
2, 7457, Note_on_c, 0, 51, 0
2, 7462, Note_on_c, 0, 51, 55
2, 7464, Note_on_c, 0, 54, 0
2, 7469, Note_on_c, 0, 58, 68
2, 7476, Note_on_c, 0, 54, 54
2, 7485, Note_on_c, 0, 66, 86
2, 7549, Control_c, 0, 64, 127
2, 7703, Note_on_c, 0, 66, 0
2, 7711, Note_on_c, 0, 66, 69
2, 7818, Note_on_c, 0, 66, 0
2, 7825, Note_on_c, 0, 66, 81
2, 8163, Note_on_c, 0, 66, 0
2, 8174, Note_on_c, 0, 66, 80
2, 8401, Note_on_c, 0, 66, 0
2, 8406, Note_on_c, 0, 66, 79
2, 8486, Note_on_c, 0, 66, 0
2, 8492, Note_on_c, 0, 66, 88
2, 8743, Note_on_c, 0, 68, 86
2, 8860, Control_c, 0, 64, 0
2, 8865, Note_on_c, 0, 51, 0
2, 8866, Note_on_c, 0, 58, 0
2, 8866, Note_on_c, 0, 47, 0
2, 8866, Note_on_c, 0, 66, 0
2, 8867, Note_on_c, 0, 54, 0
2, 8878, Note_on_c, 0, 53, 58
2, 8879, Note_on_c, 0, 49, 54
2, 8882, Note_on_c, 0, 56, 56
2, 8954, Control_c, 0, 64, 127
2, 9098, Note_on_c, 0, 61, 63
2, 9223, Note_on_c, 0, 61, 0
2, 9230, Note_on_c, 0, 61, 69
2, 9576, Note_on_c, 0, 61, 0
2, 9587, Note_on_c, 0, 61, 73
2, 9907, Note_on_c, 0, 61, 0
2, 9918, Note_on_c, 0, 61, 74
2, 10096, Note_on_c, 0, 58, 67
2, 10185, Note_on_c, 0, 51, 55
2, 10241, Note_on_c, 0, 54, 51
2, 10244, Note_on_c, 0, 49, 0
2, 10245, Note_on_c, 0, 61, 0
2, 10246, Note_on_c, 0, 68, 0
2, 10246, Note_on_c, 0, 53, 0
2, 10246, Note_on_c, 0, 56, 0
2, 10247, Control_c, 0, 64, 0
2, 10251, Note_on_c, 0, 61, 67
2, 10298, Note_on_c, 0, 58, 0
2, 10303, Note_on_c, 0, 58, 57
2, 10344, Control_c, 0, 64, 127
2, 10600, Note_on_c, 0, 63, 68
2, 10827, Control_c, 0, 64, 0
2, 10836, Note_on_c, 0, 63, 0
2, 10836, Note_on_c, 0, 61, 0
2, 10842, Note_on_c, 0, 63, 72
2, 10928, Control_c, 0, 64, 127
2, 11328, Note_on_c, 0, 54, 0
2, 11338, Note_on_c, 0, 54, 55
2, 11713, Note_on_c, 0, 53, 59
2, 11721, Control_c, 0, 64, 0
2, 11750, Note_on_c, 0, 58, 0
2, 11811, Control_c, 0, 64, 127
2, 12404, Note_on_c, 0, 49, 57
2, 13037, Note_on_c, 0, 47, 58
2, 13048, Note_on_c, 0, 51, 0
2, 13058, Note_on_c, 0, 51, 52
2, 13063, Note_on_c, 0, 54, 0
2, 13073, Note_on_c, 0, 54, 50
2, 13082, Note_on_c, 0, 49, 0
2, 13084, Note_on_c, 0, 53, 0
2, 13085, Control_c, 0, 64, 0
2, 13090, Note_on_c, 0, 63, 0
2, 13105, Note_on_c, 0, 58, 64
2, 13129, Note_on_c, 0, 78, 90
2, 13171, Control_c, 0, 64, 127
2, 13363, Note_on_c, 0, 78, 0
2, 13367, Note_on_c, 0, 78, 84
2, 13478, Note_on_c, 0, 78, 0
2, 13485, Note_on_c, 0, 78, 88
2, 13720, Note_on_c, 0, 70, 68
2, 13725, Note_on_c, 0, 66, 60
2, 13727, Note_on_c, 0, 63, 55
2, 13739, Note_on_c, 0, 47, 0
2, 13854, Note_on_c, 0, 78, 0
2, 13863, Note_on_c, 0, 78, 96
2, 14054, Note_on_c, 0, 78, 0
2, 14064, Note_on_c, 0, 78, 89
2, 14177, Note_on_c, 0, 78, 0
2, 14186, Note_on_c, 0, 78, 91
2, 14392, Note_on_c, 0, 63, 0
2, 14392, Note_on_c, 0, 66, 0
2, 14392, Note_on_c, 0, 70, 0
2, 14398, Note_on_c, 0, 66, 72
2, 14398, Note_on_c, 0, 70, 70
2, 14400, Note_on_c, 0, 58, 0
2, 14403, Note_on_c, 0, 63, 60
2, 14406, Note_on_c, 0, 58, 51
2, 14515, Note_on_c, 0, 78, 0
2, 14525, Note_on_c, 0, 78, 87
2, 14730, Note_on_c, 0, 78, 0
2, 14735, Note_on_c, 0, 78, 83
2, 14879, Note_on_c, 0, 77, 82
2, 15113, Note_on_c, 0, 73, 85
2, 15592, Note_on_c, 0, 49, 69
2, 15599, Note_on_c, 0, 53, 65
2, 15602, Note_on_c, 0, 56, 73
2, 15604, Note_on_c, 0, 65, 62
2, 15774, Note_on_c, 0, 73, 0
2, 15782, Note_on_c, 0, 73, 84
2, 15882, Note_on_c, 0, 58, 0
2, 15882, Note_on_c, 0, 49, 0
2, 15883, Note_on_c, 0, 73, 0
2, 15883, Note_on_c, 0, 56, 0
2, 15883, Note_on_c, 0, 70, 0
2, 15883, Note_on_c, 0, 66, 0
2, 15883, Note_on_c, 0, 63, 0
2, 15883, Control_c, 0, 64, 0
2, 15884, Note_on_c, 0, 77, 0
2, 15885, Note_on_c, 0, 53, 0
2, 15897, Note_on_c, 0, 51, 0
2, 15897, Note_on_c, 0, 54, 0
2, 15905, Note_on_c, 0, 65, 0
2, 15920, Note_on_c, 0, 78, 0
2, 15925, Note_on_c, 0, 78, 93
2, 15927, Note_on_c, 0, 54, 66
2, 15928, Note_on_c, 0, 58, 71
2, 15930, Note_on_c, 0, 61, 67
2, 15931, Note_on_c, 0, 51, 63
2, 15933, Note_on_c, 0, 70, 85
2, 16012, Control_c, 0, 64, 127
2, 16166, Note_on_c, 0, 78, 0
2, 16171, Note_on_c, 0, 78, 78
2, 16273, Note_on_c, 0, 78, 0
2, 16284, Note_on_c, 0, 78, 93
2, 16496, Note_on_c, 0, 70, 0
2, 16503, Note_on_c, 0, 70, 70
2, 16506, Note_on_c, 0, 66, 65
2, 16510, Note_on_c, 0, 63, 56
2, 16627, Note_on_c, 0, 78, 0
2, 16635, Note_on_c, 0, 78, 98
2, 16842, Note_on_c, 0, 78, 0
2, 16852, Note_on_c, 0, 78, 87
2, 16972, Note_on_c, 0, 78, 0
2, 16977, Note_on_c, 0, 78, 93
2, 17149, Note_on_c, 0, 66, 0
2, 17160, Note_on_c, 0, 66, 65
2, 17164, Note_on_c, 0, 63, 0
2, 17164, Note_on_c, 0, 70, 0
2, 17170, Note_on_c, 0, 70, 77
2, 17176, Note_on_c, 0, 63, 57
2, 17310, Note_on_c, 0, 78, 0
2, 17320, Note_on_c, 0, 78, 87
2, 17533, Note_on_c, 0, 78, 0
2, 17537, Note_on_c, 0, 78, 85
2, 17659, Note_on_c, 0, 77, 82
2, 17892, Note_on_c, 0, 73, 88
2, 18374, Note_on_c, 0, 56, 78
2, 18374, Note_on_c, 0, 49, 66
2, 18376, Note_on_c, 0, 53, 67
2, 18377, Note_on_c, 0, 61, 0
2, 18570, Note_on_c, 0, 73, 0
2, 18575, Note_on_c, 0, 73, 88
2, 18668, Note_on_c, 0, 51, 0
2, 18668, Control_c, 0, 64, 0
2, 18669, Note_on_c, 0, 58, 0
2, 18669, Note_on_c, 0, 49, 0
2, 18670, Note_on_c, 0, 78, 0
2, 18670, Note_on_c, 0, 77, 0
2, 18670, Note_on_c, 0, 56, 0
2, 18670, Note_on_c, 0, 63, 0
2, 18670, Note_on_c, 0, 54, 0
2, 18671, Note_on_c, 0, 70, 0
2, 18673, Note_on_c, 0, 53, 0
2, 18685, Note_on_c, 0, 66, 0
2, 18713, Note_on_c, 0, 47, 74
2, 18714, Note_on_c, 0, 54, 72
2, 18716, Note_on_c, 0, 78, 95
2, 18717, Note_on_c, 0, 59, 71
2, 18718, Note_on_c, 0, 51, 68
2, 18769, Note_on_c, 0, 73, 0
2, 18769, Control_c, 0, 64, 127
2, 18931, Note_on_c, 0, 78, 0
2, 18942, Note_on_c, 0, 78, 86
2, 19061, Note_on_c, 0, 78, 0
2, 19069, Note_on_c, 0, 78, 77
2, 19077, Note_on_c, 0, 59, 0
2, 19244, Note_on_c, 0, 70, 80
2, 19248, Note_on_c, 0, 66, 70
2, 19258, Note_on_c, 0, 63, 60
2, 19399, Note_on_c, 0, 78, 0
2, 19405, Note_on_c, 0, 78, 94
2, 19622, Note_on_c, 0, 78, 0
2, 19628, Note_on_c, 0, 78, 91
2, 19737, Note_on_c, 0, 78, 0
2, 19746, Note_on_c, 0, 78, 85
2, 19971, Note_on_c, 0, 80, 94
2, 19972, Note_on_c, 0, 77, 85
2, 19978, Note_on_c, 0, 73, 72
2, 20047, Note_on_c, 0, 47, 0
2, 20048, Note_on_c, 0, 51, 0
2, 20048, Note_on_c, 0, 63, 0
2, 20048, Note_on_c, 0, 66, 0
2, 20048, Note_on_c, 0, 54, 0
2, 20048, Note_on_c, 0, 78, 0
2, 20048, Note_on_c, 0, 70, 0
2, 20051, Control_c, 0, 64, 0
2, 20117, Note_on_c, 0, 56, 74
2, 20117, Note_on_c, 0, 53, 68
2, 20120, Note_on_c, 0, 49, 63
2, 20167, Control_c, 0, 64, 127
2, 20267, Note_on_c, 0, 73, 0
2, 20311, Note_on_c, 0, 73, 82
2, 20413, Note_on_c, 0, 73, 0
2, 20417, Note_on_c, 0, 73, 85
2, 20651, Note_on_c, 0, 49, 0
2, 20656, Note_on_c, 0, 61, 64
2, 20656, Note_on_c, 0, 68, 69
2, 20657, Note_on_c, 0, 65, 64
2, 20660, Note_on_c, 0, 49, 57
2, 20805, Note_on_c, 0, 73, 0
2, 20814, Note_on_c, 0, 73, 89
2, 21150, Note_on_c, 0, 73, 0
2, 21161, Note_on_c, 0, 73, 84
2, 21364, Note_on_c, 0, 70, 79
2, 21504, Note_on_c, 0, 73, 0
2, 21511, Note_on_c, 0, 61, 0
2, 21514, Note_on_c, 0, 73, 84
2, 21515, Note_on_c, 0, 61, 62
2, 21516, Note_on_c, 0, 58, 60
2, 21520, Control_c, 0, 64, 0
2, 21524, Note_on_c, 0, 49, 0
2, 21524, Note_on_c, 0, 65, 0
2, 21525, Note_on_c, 0, 56, 0
2, 21525, Note_on_c, 0, 68, 0
2, 21525, Note_on_c, 0, 53, 0
2, 21526, Note_on_c, 0, 77, 0
2, 21530, Note_on_c, 0, 54, 58
2, 21531, Note_on_c, 0, 66, 63
2, 21534, Note_on_c, 0, 80, 0
2, 21537, Note_on_c, 0, 51, 53
2, 21596, Control_c, 0, 64, 127
2, 21851, Note_on_c, 0, 75, 83
2, 22041, Note_on_c, 0, 75, 0
2, 22052, Note_on_c, 0, 75, 87
2, 22064, Note_on_c, 0, 66, 0
2, 22064, Note_on_c, 0, 70, 0
2, 22068, Note_on_c, 0, 66, 69
2, 22070, Note_on_c, 0, 70, 76
2, 22133, Control_c, 0, 64, 0
2, 22218, Control_c, 0, 64, 127
2, 22556, Note_on_c, 0, 54, 0
2, 22566, Note_on_c, 0, 54, 56
2, 22920, Note_on_c, 0, 65, 68
2, 22947, Note_on_c, 0, 61, 0
2, 22951, Note_on_c, 0, 61, 54
2, 23024, Note_on_c, 0, 51, 0
2, 23592, Note_on_c, 0, 68, 65
2, 24277, Note_on_c, 0, 58, 0
2, 24278, Control_c, 0, 64, 0
2, 24278, Note_on_c, 0, 68, 0
2, 24278, Note_on_c, 0, 75, 0
2, 24279, Note_on_c, 0, 73, 0
2, 24279, Note_on_c, 0, 65, 0
2, 24279, Note_on_c, 0, 61, 0
2, 24279, Note_on_c, 0, 70, 0
2, 24280, Note_on_c, 0, 54, 0
2, 24280, Note_on_c, 0, 66, 0
2, 24294, Note_on_c, 0, 63, 88
2, 24295, Note_on_c, 0, 47, 66
2, 24300, Note_on_c, 0, 59, 67
2, 24376, Control_c, 0, 64, 127
2, 24654, Note_on_c, 0, 54, 59
2, 24960, Note_on_c, 0, 59, 0
2, 24977, Note_on_c, 0, 75, 73
2, 24982, Control_c, 0, 64, 0
2, 24998, Note_on_c, 0, 63, 0
2, 25002, Note_on_c, 0, 87, 82
2, 25002, Note_on_c, 0, 63, 64
2, 25003, Note_on_c, 0, 78, 80
2, 25006, Control_c, 0, 64, 127
2, 25007, Note_on_c, 0, 59, 57
2, 25344, Note_on_c, 0, 63, 0
2, 25349, Note_on_c, 0, 63, 91
2, 25557, Note_on_c, 0, 61, 87
2, 25681, Note_on_c, 0, 47, 0
2, 25681, Note_on_c, 0, 63, 0
2, 25683, Control_c, 0, 64, 0
2, 25687, Note_on_c, 0, 56, 72
2, 25688, Note_on_c, 0, 63, 83
2, 25688, Note_on_c, 0, 49, 70
2, 25688, Note_on_c, 0, 59, 0
2, 25689, Note_on_c, 0, 75, 0
2, 25690, Note_on_c, 0, 87, 0
2, 25690, Note_on_c, 0, 78, 0
2, 25692, Note_on_c, 0, 54, 0
2, 25692, Note_on_c, 0, 61, 0
2, 25896, Control_c, 0, 64, 127
2, 25926, Note_on_c, 0, 65, 90
2, 26073, Note_on_c, 0, 56, 0
2, 26084, Note_on_c, 0, 56, 65
2, 26234, Note_on_c, 0, 65, 0
2, 26244, Note_on_c, 0, 65, 75
2, 26388, Note_on_c, 0, 65, 0
2, 26393, Note_on_c, 0, 65, 67
2, 26408, Control_c, 0, 64, 0
2, 26434, Note_on_c, 0, 56, 0
2, 26439, Note_on_c, 0, 85, 89
2, 26444, Note_on_c, 0, 61, 74
2, 26445, Note_on_c, 0, 56, 58
2, 26449, Note_on_c, 0, 89, 99
2, 26472, Control_c, 0, 64, 127
2, 26772, Note_on_c, 0, 65, 0
2, 26782, Note_on_c, 0, 65, 91
2, 26995, Note_on_c, 0, 63, 0
2, 27005, Note_on_c, 0, 63, 84
2, 27125, Note_on_c, 0, 61, 0
2, 27125, Note_on_c, 0, 65, 0
2, 27128, Note_on_c, 0, 89, 0
2, 27128, Note_on_c, 0, 56, 0
2, 27128, Control_c, 0, 64, 0
2, 27130, Note_on_c, 0, 61, 74
2, 27130, Note_on_c, 0, 65, 92
2, 27133, Note_on_c, 0, 49, 0
2, 27136, Note_on_c, 0, 51, 65
2, 27138, Note_on_c, 0, 58, 72
2, 27156, Note_on_c, 0, 63, 0
2, 27217, Control_c, 0, 64, 127
2, 27302, Note_on_c, 0, 85, 0
2, 27362, Note_on_c, 0, 66, 88
2, 27686, Note_on_c, 0, 66, 0
2, 27693, Note_on_c, 0, 66, 94
2, 27850, Note_on_c, 0, 90, 91
2, 27851, Note_on_c, 0, 78, 82
2, 27853, Note_on_c, 0, 82, 78
2, 27860, Note_on_c, 0, 87, 76
2, 28062, Note_on_c, 0, 65, 0
2, 28185, Note_on_c, 0, 61, 0
2, 28189, Note_on_c, 0, 61, 90
2, 28392, Note_on_c, 0, 58, 0
2, 28401, Note_on_c, 0, 58, 78
2, 28512, Control_c, 0, 64, 0
2, 28513, Note_on_c, 0, 78, 0
2, 28514, Note_on_c, 0, 90, 0
2, 28515, Note_on_c, 0, 51, 0
2, 28515, Note_on_c, 0, 66, 0
2, 28515, Note_on_c, 0, 58, 0
2, 28516, Note_on_c, 0, 87, 0
2, 28516, Note_on_c, 0, 82, 0
2, 28523, Note_on_c, 0, 61, 0
2, 28533, Note_on_c, 0, 61, 87
2, 28534, Note_on_c, 0, 46, 77
2, 28535, Note_on_c, 0, 56, 71
2, 28608, Control_c, 0, 64, 127
2, 28762, Note_on_c, 0, 63, 89
2, 28920, Note_on_c, 0, 53, 71
2, 29076, Note_on_c, 0, 63, 0
2, 29087, Note_on_c, 0, 63, 85
2, 29253, Note_on_c, 0, 56, 0
2, 29257, Note_on_c, 0, 56, 70
2, 29285, Note_on_c, 0, 73, 66
2, 29596, Note_on_c, 0, 80, 73
2, 29598, Note_on_c, 0, 63, 0
2, 29602, Note_on_c, 0, 77, 69
2, 29608, Note_on_c, 0, 63, 66
2, 29944, Note_on_c, 0, 63, 0
2, 29948, Note_on_c, 0, 63, 92
2, 29949, Note_on_c, 0, 54, 73
2, 29951, Note_on_c, 0, 47, 73
2, 29954, Control_c, 0, 64, 0
2, 29955, Note_on_c, 0, 77, 0
2, 29955, Note_on_c, 0, 73, 0
2, 29955, Note_on_c, 0, 80, 0
2, 29955, Note_on_c, 0, 56, 0
2, 29955, Note_on_c, 0, 53, 0
2, 29955, Note_on_c, 0, 61, 0
2, 29967, Note_on_c, 0, 46, 0
2, 30105, Control_c, 0, 64, 127
2, 30607, Note_on_c, 0, 75, 74
2, 30627, Note_on_c, 0, 63, 0
2, 30632, Note_on_c, 0, 63, 69
2, 30632, Note_on_c, 0, 78, 81
2, 30635, Note_on_c, 0, 87, 84
2, 30647, Note_on_c, 0, 54, 0
2, 30649, Control_c, 0, 64, 0
2, 30654, Note_on_c, 0, 59, 67
2, 30673, Control_c, 0, 64, 127
2, 30850, Note_on_c, 0, 63, 0
2, 30857, Note_on_c, 0, 63, 95
2, 30973, Note_on_c, 0, 63, 0
2, 30981, Note_on_c, 0, 63, 84
2, 31200, Note_on_c, 0, 61, 87
2, 31302, Note_on_c, 0, 75, 0
2, 31303, Control_c, 0, 64, 0
2, 31303, Note_on_c, 0, 59, 0
2, 31305, Note_on_c, 0, 78, 0
2, 31311, Note_on_c, 0, 47, 0
2, 31311, Note_on_c, 0, 87, 0
2, 31334, Note_on_c, 0, 63, 0
2, 31339, Note_on_c, 0, 63, 88
2, 31340, Note_on_c, 0, 56, 78
2, 31342, Note_on_c, 0, 53, 72
2, 31343, Note_on_c, 0, 49, 73
2, 31395, Note_on_c, 0, 61, 0
2, 31526, Control_c, 0, 64, 127
2, 31535, Note_on_c, 0, 65, 89
2, 31895, Note_on_c, 0, 65, 0
2, 31905, Note_on_c, 0, 65, 91
2, 32038, Note_on_c, 0, 77, 86
2, 32047, Note_on_c, 0, 89, 104
2, 32050, Note_on_c, 0, 80, 90
2, 32058, Note_on_c, 0, 85, 80
2, 32371, Note_on_c, 0, 56, 0
2, 32371, Note_on_c, 0, 65, 0
2, 32376, Note_on_c, 0, 65, 89
2, 32378, Note_on_c, 0, 56, 68
2, 32586, Note_on_c, 0, 63, 0
2, 32597, Note_on_c, 0, 63, 79
2, 32714, Control_c, 0, 64, 0
2, 32716, Note_on_c, 0, 56, 0
2, 32716, Note_on_c, 0, 65, 0
2, 32718, Note_on_c, 0, 77, 0
2, 32718, Note_on_c, 0, 49, 0
2, 32718, Note_on_c, 0, 85, 0
2, 32720, Note_on_c, 0, 89, 0
2, 32720, Note_on_c, 0, 80, 0
2, 32720, Note_on_c, 0, 63, 0
2, 32720, Note_on_c, 0, 53, 0
2, 32723, Note_on_c, 0, 65, 88
2, 32726, Note_on_c, 0, 42, 72
2, 32726, Note_on_c, 0, 56, 74
2, 32937, Note_on_c, 0, 66, 89
2, 33070, Control_c, 0, 64, 127
2, 33120, Note_on_c, 0, 49, 63
2, 33254, Note_on_c, 0, 66, 0
2, 33259, Note_on_c, 0, 66, 75
2, 33427, Note_on_c, 0, 54, 69
2, 33764, Note_on_c, 0, 58, 70
2, 34072, Note_on_c, 0, 82, 65
2, 34108, Note_on_c, 0, 61, 57
2, 34109, Note_on_c, 0, 85, 69
2, 34118, Note_on_c, 0, 90, 71
2, 34122, Note_on_c, 0, 58, 0
2, 34130, Note_on_c, 0, 58, 52
2, 34133, Note_on_c, 0, 94, 80
2, 34813, Note_on_c, 0, 54, 0
2, 34818, Note_on_c, 0, 54, 63
2, 35163, Note_on_c, 0, 68, 99
2, 35363, Note_on_c, 0, 70, 86
2, 35503, Note_on_c, 0, 61, 0
2, 35504, Note_on_c, 0, 56, 0
2, 35504, Note_on_c, 0, 85, 0
2, 35504, Note_on_c, 0, 58, 0
2, 35505, Note_on_c, 0, 94, 0
2, 35505, Note_on_c, 0, 49, 0
2, 35506, Note_on_c, 0, 42, 0
2, 35506, Note_on_c, 0, 82, 0
2, 35506, Note_on_c, 0, 90, 0
2, 35507, Note_on_c, 0, 66, 0
2, 35507, Note_on_c, 0, 70, 0
2, 35507, Note_on_c, 0, 54, 0
2, 35508, Control_c, 0, 64, 0
2, 35512, Note_on_c, 0, 65, 0
2, 35520, Note_on_c, 0, 68, 0
2, 35523, Note_on_c, 0, 59, 75
2, 35524, Note_on_c, 0, 68, 97
2, 35524, Note_on_c, 0, 47, 72
2, 35533, Note_on_c, 0, 63, 64
2, 35535, Control_c, 0, 64, 127
2, 35741, Note_on_c, 0, 66, 91
2, 35860, Note_on_c, 0, 63, 0
2, 35861, Note_on_c, 0, 68, 0
2, 35863, Control_c, 0, 64, 0
2, 35873, Note_on_c, 0, 54, 70
2, 35919, Note_on_c, 0, 59, 0
2, 35973, Control_c, 0, 64, 127
2, 35980, Note_on_c, 0, 47, 0
2, 36064, Note_on_c, 0, 63, 83
2, 36221, Note_on_c, 0, 59, 72
2, 36557, Note_on_c, 0, 80, 89
2, 36792, Note_on_c, 0, 82, 93
2, 36900, Control_c, 0, 64, 0
2, 36902, Note_on_c, 0, 80, 0
2, 36907, Note_on_c, 0, 63, 0
2, 36908, Note_on_c, 0, 59, 0
2, 36909, Note_on_c, 0, 54, 0
2, 36909, Note_on_c, 0, 66, 0
2, 36910, Note_on_c, 0, 82, 0
2, 36913, Note_on_c, 0, 80, 88
2, 36917, Note_on_c, 0, 61, 79
2, 36920, Note_on_c, 0, 49, 70
2, 36925, Note_on_c, 0, 61, 0
2, 36936, Note_on_c, 0, 71, 68
2, 36938, Note_on_c, 0, 75, 74
2, 36994, Control_c, 0, 64, 127
2, 37166, Note_on_c, 0, 78, 83
2, 37303, Note_on_c, 0, 56, 67
2, 37470, Note_on_c, 0, 75, 0
2, 37477, Note_on_c, 0, 75, 87
2, 37612, Note_on_c, 0, 61, 61
2, 37644, Note_on_c, 0, 65, 65
2, 37967, Note_on_c, 0, 68, 99
2, 38188, Note_on_c, 0, 70, 88
2, 38285, Note_on_c, 0, 65, 0
2, 38285, Note_on_c, 0, 80, 0
2, 38285, Note_on_c, 0, 71, 0
2, 38286, Note_on_c, 0, 75, 0
2, 38287, Note_on_c, 0, 56, 0
2, 38287, Note_on_c, 0, 78, 0
2, 38289, Control_c, 0, 64, 0
2, 38307, Note_on_c, 0, 49, 0
2, 38307, Note_on_c, 0, 61, 0
2, 38307, Note_on_c, 0, 68, 0
2, 38313, Note_on_c, 0, 68, 93
2, 38317, Note_on_c, 0, 61, 70
2, 38318, Note_on_c, 0, 58, 71
2, 38320, Note_on_c, 0, 51, 65
2, 38320, Note_on_c, 0, 63, 73
2, 38376, Control_c, 0, 64, 127
2, 38415, Note_on_c, 0, 70, 0
2, 38541, Note_on_c, 0, 66, 84
2, 38662, Note_on_c, 0, 54, 59
2, 38830, Note_on_c, 0, 61, 0
2, 38840, Note_on_c, 0, 61, 78
2, 39006, Note_on_c, 0, 58, 0
2, 39011, Note_on_c, 0, 58, 62
2, 39351, Note_on_c, 0, 73, 83
2, 39581, Note_on_c, 0, 70, 76
2, 39690, Note_on_c, 0, 73, 0
2, 39697, Note_on_c, 0, 61, 0
2, 39701, Note_on_c, 0, 73, 82
2, 39701, Note_on_c, 0, 56, 70
2, 39702, Note_on_c, 0, 61, 70
2, 39704, Control_c, 0, 64, 0
2, 39705, Note_on_c, 0, 46, 67
2, 39706, Note_on_c, 0, 68, 0
2, 39707, Note_on_c, 0, 58, 0
2, 39708, Note_on_c, 0, 66, 0
2, 39708, Note_on_c, 0, 51, 0
2, 39708, Note_on_c, 0, 54, 0
2, 39708, Note_on_c, 0, 63, 0
2, 39790, Control_c, 0, 64, 127
2, 39866, Note_on_c, 0, 70, 0
2, 39935, Note_on_c, 0, 75, 83
2, 40075, Note_on_c, 0, 53, 62
2, 40243, Note_on_c, 0, 75, 0
2, 40251, Note_on_c, 0, 75, 84
2, 40412, Note_on_c, 0, 56, 0
2, 40412, Note_on_c, 0, 61, 0
2, 40416, Note_on_c, 0, 61, 66
2, 40416, Note_on_c, 0, 56, 70
2, 40769, Note_on_c, 0, 70, 102
2, 41108, Control_c, 0, 64, 0
2, 41111, Note_on_c, 0, 46, 0
2, 41111, Note_on_c, 0, 56, 0
2, 41112, Note_on_c, 0, 61, 0
2, 41113, Note_on_c, 0, 75, 0
2, 41113, Note_on_c, 0, 53, 0
2, 41113, Note_on_c, 0, 70, 0
2, 41114, Note_on_c, 0, 68, 101
2, 41117, Note_on_c, 0, 63, 79
2, 41120, Note_on_c, 0, 47, 79
2, 41120, Note_on_c, 0, 59, 80
2, 41126, Note_on_c, 0, 73, 0
2, 41218, Control_c, 0, 64, 127
2, 41384, Note_on_c, 0, 66, 90
2, 41484, Note_on_c, 0, 54, 68
2, 41671, Note_on_c, 0, 63, 0
2, 41678, Note_on_c, 0, 63, 86
2, 41840, Note_on_c, 0, 59, 0
2, 41844, Note_on_c, 0, 59, 66
2, 42184, Note_on_c, 0, 80, 103
2, 42430, Note_on_c, 0, 82, 91
2, 42526, Control_c, 0, 64, 0
2, 42526, Note_on_c, 0, 47, 0
2, 42527, Note_on_c, 0, 54, 0
2, 42527, Note_on_c, 0, 63, 0
2, 42527, Note_on_c, 0, 68, 0
2, 42527, Note_on_c, 0, 59, 0
2, 42527, Note_on_c, 0, 66, 0
2, 42530, Note_on_c, 0, 82, 0
2, 42539, Note_on_c, 0, 80, 0
2, 42550, Note_on_c, 0, 80, 92
2, 42551, Note_on_c, 0, 77, 87
2, 42553, Note_on_c, 0, 73, 88
2, 42553, Note_on_c, 0, 61, 83
2, 42555, Note_on_c, 0, 49, 77
2, 42631, Control_c, 0, 64, 127
2, 42807, Note_on_c, 0, 78, 83
2, 42904, Note_on_c, 0, 56, 65
2, 43125, Note_on_c, 0, 75, 89
2, 43238, Note_on_c, 0, 61, 0
2, 43243, Note_on_c, 0, 61, 73
2, 43245, Note_on_c, 0, 65, 70
2, 43462, Note_on_c, 0, 63, 87
2, 43585, Note_on_c, 0, 68, 101
2, 43936, Note_on_c, 0, 66, 95
2, 43937, Note_on_c, 0, 61, 0
2, 43939, Note_on_c, 0, 42, 73
2, 43947, Note_on_c, 0, 58, 66
2, 43948, Note_on_c, 0, 61, 73
2, 43963, Control_c, 0, 64, 0
2, 43973, Note_on_c, 0, 63, 0
2, 43978, Note_on_c, 0, 77, 0
2, 43978, Note_on_c, 0, 65, 0
2, 43980, Note_on_c, 0, 49, 0
2, 43982, Note_on_c, 0, 73, 0
2, 43983, Note_on_c, 0, 78, 0
2, 43983, Note_on_c, 0, 56, 0
2, 43983, Note_on_c, 0, 80, 0
2, 43987, Note_on_c, 0, 75, 0
2, 43993, Note_on_c, 0, 68, 0
2, 44098, Control_c, 0, 64, 127
2, 44296, Note_on_c, 0, 49, 63
2, 44626, Note_on_c, 0, 56, 94
2, 44958, Note_on_c, 0, 49, 0
2, 44970, Note_on_c, 0, 49, 71
2, 45327, Note_on_c, 0, 58, 0
2, 45331, Note_on_c, 0, 58, 85
2, 45332, Note_on_c, 0, 54, 66
2, 46026, Note_on_c, 0, 42, 0
2, 46030, Note_on_c, 0, 42, 86
2, 46207, Control_c, 0, 64, 0
2, 46209, Note_on_c, 0, 58, 0
2, 46210, Note_on_c, 0, 42, 0
2, 46210, Note_on_c, 0, 56, 0
2, 46211, Note_on_c, 0, 54, 0
2, 46212, Note_on_c, 0, 66, 0
2, 46225, Note_on_c, 0, 49, 0
2, 46233, Note_on_c, 0, 61, 0
2, 46236, Note_on_c, 0, 63, 98
2, 46350, Note_on_c, 0, 66, 104
2, 46352, Note_on_c, 0, 63, 0
2, 46470, Note_on_c, 0, 66, 0
2, 46575, Note_on_c, 0, 68, 101
2, 46603, Note_on_c, 0, 68, 0
2, 46698, Note_on_c, 0, 68, 106
2, 46710, Note_on_c, 0, 47, 81
2, 46710, Note_on_c, 0, 54, 82
2, 46711, Note_on_c, 0, 63, 83
2, 46712, Note_on_c, 0, 59, 87
2, 46725, Control_c, 0, 64, 127
2, 46926, Note_on_c, 0, 70, 85
2, 47040, Note_on_c, 0, 70, 0
2, 47045, Note_on_c, 0, 70, 93
2, 47270, Note_on_c, 0, 70, 0
2, 47275, Note_on_c, 0, 70, 89
2, 47400, Note_on_c, 0, 70, 0
2, 47408, Note_on_c, 0, 63, 0
2, 47410, Note_on_c, 0, 70, 96
2, 47412, Note_on_c, 0, 63, 89
2, 47639, Note_on_c, 0, 70, 0
2, 47649, Note_on_c, 0, 70, 92
2, 47969, Note_on_c, 0, 70, 0
2, 47976, Note_on_c, 0, 70, 102
2, 48023, Note_on_c, 0, 47, 0
2, 48046, Note_on_c, 0, 54, 0
2, 48076, Note_on_c, 0, 59, 0
2, 48107, Note_on_c, 0, 68, 0
2, 48107, Note_on_c, 0, 63, 0
2, 48110, Note_on_c, 0, 61, 82
2, 48111, Note_on_c, 0, 56, 81
2, 48112, Note_on_c, 0, 65, 78
2, 48112, Note_on_c, 0, 49, 75
2, 48122, Control_c, 0, 64, 0
2, 48330, Control_c, 0, 64, 127
2, 48344, Note_on_c, 0, 68, 92
2, 48437, Note_on_c, 0, 68, 0
2, 48446, Note_on_c, 0, 68, 85
2, 48668, Note_on_c, 0, 68, 0
2, 48679, Note_on_c, 0, 68, 99
2, 48806, Note_on_c, 0, 68, 0
2, 48812, Note_on_c, 0, 68, 103
2, 48814, Note_on_c, 0, 61, 0
2, 48814, Note_on_c, 0, 65, 0
2, 48820, Note_on_c, 0, 61, 80
2, 48824, Note_on_c, 0, 65, 82
2, 48936, Note_on_c, 0, 70, 0
2, 49044, Note_on_c, 0, 68, 0
2, 49049, Note_on_c, 0, 68, 98
2, 49297, Note_on_c, 0, 56, 0
2, 49367, Note_on_c, 0, 68, 0
2, 49378, Note_on_c, 0, 68, 106
2, 49384, Note_on_c, 0, 63, 83
2, 49393, Control_c, 0, 64, 0
2, 49459, Control_c, 0, 64, 127
2, 49482, Note_on_c, 0, 65, 0
2, 49505, Note_on_c, 0, 49, 0
2, 49520, Note_on_c, 0, 61, 0
2, 49528, Control_c, 0, 64, 0
2, 49528, Note_on_c, 0, 61, 84
2, 49529, Note_on_c, 0, 58, 75
2, 49530, Note_on_c, 0, 51, 71
2, 49620, Control_c, 0, 64, 127
2, 49731, Note_on_c, 0, 66, 87
2, 49843, Note_on_c, 0, 66, 0
2, 49853, Note_on_c, 0, 66, 88
2, 50088, Note_on_c, 0, 66, 0
2, 50094, Note_on_c, 0, 66, 87
2, 50219, Note_on_c, 0, 61, 0
2, 50219, Note_on_c, 0, 66, 0
2, 50224, Note_on_c, 0, 61, 83
2, 50227, Note_on_c, 0, 63, 0
2, 50227, Note_on_c, 0, 66, 88
2, 50231, Note_on_c, 0, 63, 78
2, 50449, Note_on_c, 0, 66, 0
2, 50459, Note_on_c, 0, 66, 92
2, 50795, Note_on_c, 0, 66, 0
2, 50806, Note_on_c, 0, 66, 92
2, 50933, Note_on_c, 0, 68, 0
2, 50934, Control_c, 0, 64, 0
2, 50939, Note_on_c, 0, 61, 0
2, 50940, Note_on_c, 0, 63, 0
2, 50941, Note_on_c, 0, 58, 0
2, 50943, Note_on_c, 0, 51, 0
2, 50957, Note_on_c, 0, 46, 80
2, 50957, Note_on_c, 0, 56, 84
2, 50972, Control_c, 0, 64, 127
2, 51173, Note_on_c, 0, 61, 81
2, 51287, Note_on_c, 0, 46, 0
2, 51287, Note_on_c, 0, 61, 0
2, 51293, Note_on_c, 0, 46, 66
2, 51296, Note_on_c, 0, 61, 78
2, 51540, Note_on_c, 0, 61, 0
2, 51547, Note_on_c, 0, 61, 90
2, 51663, Note_on_c, 0, 56, 0
2, 51670, Note_on_c, 0, 56, 75
2, 51911, Note_on_c, 0, 63, 79
2, 52001, Note_on_c, 0, 66, 0
2, 52012, Note_on_c, 0, 66, 99
2, 52232, Note_on_c, 0, 68, 92
2, 52354, Note_on_c, 0, 68, 0
2, 52363, Note_on_c, 0, 68, 100
2, 52366, Note_on_c, 0, 54, 87
2, 52368, Note_on_c, 0, 47, 86
2, 52373, Note_on_c, 0, 46, 0
2, 52374, Note_on_c, 0, 56, 0
2, 52374, Note_on_c, 0, 63, 0
2, 52374, Control_c, 0, 64, 0
2, 52374, Note_on_c, 0, 66, 0
2, 52374, Note_on_c, 0, 61, 0
2, 52446, Control_c, 0, 64, 127
2, 52588, Note_on_c, 0, 70, 88
2, 52700, Note_on_c, 0, 70, 0
2, 52706, Note_on_c, 0, 70, 86
2, 52938, Note_on_c, 0, 70, 0
2, 52943, Note_on_c, 0, 70, 87
2, 53061, Note_on_c, 0, 70, 0
2, 53071, Note_on_c, 0, 70, 91
2, 53075, Note_on_c, 0, 58, 79
2, 53075, Note_on_c, 0, 61, 76
2, 53314, Note_on_c, 0, 70, 0
2, 53322, Note_on_c, 0, 70, 80
2, 53429, Note_on_c, 0, 70, 0
2, 53441, Note_on_c, 0, 70, 90
2, 53629, Note_on_c, 0, 68, 0
2, 53636, Note_on_c, 0, 68, 87
2, 53641, Note_on_c, 0, 65, 72
2, 53642, Note_on_c, 0, 73, 96
2, 53784, Control_c, 0, 64, 0
2, 53787, Note_on_c, 0, 70, 0
2, 53787, Note_on_c, 0, 58, 0
2, 53787, Note_on_c, 0, 54, 0
2, 53788, Note_on_c, 0, 47, 0
2, 53789, Note_on_c, 0, 56, 71
2, 53792, Note_on_c, 0, 49, 64
2, 53859, Control_c, 0, 64, 127
2, 53997, Note_on_c, 0, 70, 81
2, 54113, Note_on_c, 0, 70, 0
2, 54123, Note_on_c, 0, 70, 86
2, 54451, Note_on_c, 0, 70, 0
2, 54454, Note_on_c, 0, 73, 0
2, 54454, Note_on_c, 0, 49, 0
2, 54456, Note_on_c, 0, 70, 97
2, 54458, Note_on_c, 0, 61, 0
2, 54458, Note_on_c, 0, 65, 0
2, 54462, Control_c, 0, 64, 0
2, 54466, Note_on_c, 0, 61, 75
2, 54466, Note_on_c, 0, 56, 0
2, 54469, Note_on_c, 0, 65, 72
2, 54471, Note_on_c, 0, 56, 70
2, 54504, Note_on_c, 0, 68, 0
2, 54528, Control_c, 0, 64, 127
2, 54681, Note_on_c, 0, 70, 0
2, 54689, Note_on_c, 0, 70, 91
2, 54815, Note_on_c, 0, 68, 95
2, 55023, Note_on_c, 0, 66, 81
2, 55166, Control_c, 0, 64, 0
2, 55167, Note_on_c, 0, 70, 0
2, 55168, Note_on_c, 0, 65, 0
2, 55180, Note_on_c, 0, 61, 0
2, 55180, Note_on_c, 0, 68, 0
2, 55186, Note_on_c, 0, 68, 91
2, 55188, Note_on_c, 0, 56, 0
2, 55190, Note_on_c, 0, 61, 76
2, 55192, Note_on_c, 0, 42, 75
2, 55193, Note_on_c, 0, 56, 80
2, 55226, Control_c, 0, 64, 127
2, 55544, Note_on_c, 0, 70, 90
2, 55726, Note_on_c, 0, 56, 0
2, 55741, Note_on_c, 0, 70, 0
2, 55745, Note_on_c, 0, 70, 92
2, 55749, Note_on_c, 0, 61, 0
2, 55749, Note_on_c, 0, 66, 0
2, 55753, Note_on_c, 0, 61, 78
2, 55755, Note_on_c, 0, 66, 78
2, 55757, Note_on_c, 0, 54, 68
2, 55905, Note_on_c, 0, 49, 80
2, 56025, Note_on_c, 0, 68, 0
2, 56240, Note_on_c, 0, 42, 0
2, 56244, Note_on_c, 0, 42, 77
2, 56598, Note_on_c, 0, 58, 101
2, 56916, Note_on_c, 0, 61, 0
2, 56926, Note_on_c, 0, 61, 87
2, 57254, Note_on_c, 0, 66, 0
2, 57259, Note_on_c, 0, 66, 83
2, 57260, Control_c, 0, 64, 0
2, 57262, Note_on_c, 0, 54, 0
2, 57262, Note_on_c, 0, 58, 0
2, 57266, Note_on_c, 0, 58, 85
2, 57267, Note_on_c, 0, 54, 81
2, 57300, Control_c, 0, 64, 127
2, 57510, Note_on_c, 0, 63, 93
2, 57623, Note_on_c, 0, 66, 0
2, 57627, Note_on_c, 0, 66, 96
2, 57849, Note_on_c, 0, 68, 97
2, 57938, Note_on_c, 0, 49, 0
2, 57939, Note_on_c, 0, 70, 0
2, 57939, Note_on_c, 0, 63, 0
2, 57939, Note_on_c, 0, 42, 0
2, 57939, Note_on_c, 0, 54, 0
2, 57939, Note_on_c, 0, 58, 0
2, 57940, Note_on_c, 0, 61, 0
2, 57940, Control_c, 0, 64, 0
2, 57940, Note_on_c, 0, 66, 0
2, 57976, Note_on_c, 0, 68, 0
2, 57981, Note_on_c, 0, 68, 100
2, 57988, Note_on_c, 0, 63, 81
2, 57988, Note_on_c, 0, 47, 82
2, 57991, Note_on_c, 0, 51, 77
2, 57991, Note_on_c, 0, 54, 85
2, 57992, Note_on_c, 0, 59, 87
2, 58014, Control_c, 0, 64, 127
2, 58199, Note_on_c, 0, 70, 87
2, 58321, Note_on_c, 0, 70, 0
2, 58322, Note_on_c, 0, 35, 75
2, 58327, Note_on_c, 0, 70, 76
2, 58536, Note_on_c, 0, 70, 0
2, 58547, Note_on_c, 0, 70, 87
2, 58675, Note_on_c, 0, 54, 0
2, 58675, Note_on_c, 0, 59, 0
2, 58675, Note_on_c, 0, 70, 0
2, 58681, Note_on_c, 0, 70, 99
2, 58682, Note_on_c, 0, 51, 0
2, 58682, Note_on_c, 0, 63, 0
2, 58684, Note_on_c, 0, 59, 88
2, 58685, Note_on_c, 0, 54, 88
2, 58686, Note_on_c, 0, 66, 89
2, 58687, Note_on_c, 0, 63, 83
2, 58687, Note_on_c, 0, 51, 84
2, 58913, Note_on_c, 0, 70, 0
2, 58924, Note_on_c, 0, 70, 79
2, 59051, Note_on_c, 0, 47, 0
2, 59051, Note_on_c, 0, 70, 0
2, 59056, Note_on_c, 0, 47, 81
2, 59057, Note_on_c, 0, 70, 96
2, 59251, Note_on_c, 0, 70, 0
2, 59260, Note_on_c, 0, 70, 91
2, 59358, Note_on_c, 0, 47, 0
2, 59358, Note_on_c, 0, 51, 0
2, 59359, Note_on_c, 0, 59, 0
2, 59359, Note_on_c, 0, 54, 0
2, 59359, Note_on_c, 0, 66, 0
2, 59360, Note_on_c, 0, 63, 0
2, 59360, Control_c, 0, 64, 0
2, 59361, Note_on_c, 0, 70, 0
2, 59374, Note_on_c, 0, 68, 0
2, 59378, Note_on_c, 0, 68, 101
2, 59381, Note_on_c, 0, 35, 0
2, 59385, Note_on_c, 0, 65, 86
2, 59385, Note_on_c, 0, 61, 84
2, 59385, Note_on_c, 0, 56, 90
2, 59388, Note_on_c, 0, 53, 84
2, 59388, Note_on_c, 0, 49, 80
2, 59443, Control_c, 0, 64, 127
2, 59619, Note_on_c, 0, 68, 0
2, 59631, Note_on_c, 0, 68, 98
2, 59735, Note_on_c, 0, 68, 0
2, 59740, Note_on_c, 0, 37, 85
2, 59745, Note_on_c, 0, 68, 81
2, 59957, Note_on_c, 0, 68, 0
2, 59966, Note_on_c, 0, 68, 85
2, 60080, Note_on_c, 0, 65, 0
2, 60080, Note_on_c, 0, 68, 0
2, 60084, Control_c, 0, 64, 0
2, 60085, Note_on_c, 0, 68, 103
2, 60088, Note_on_c, 0, 53, 0
2, 60088, Note_on_c, 0, 56, 0
2, 60088, Note_on_c, 0, 61, 0
2, 60091, Note_on_c, 0, 65, 85
2, 60092, Note_on_c, 0, 56, 87
2, 60093, Note_on_c, 0, 61, 81
2, 60096, Note_on_c, 0, 53, 80
2, 60119, Control_c, 0, 64, 127
2, 60318, Note_on_c, 0, 68, 0
2, 60328, Note_on_c, 0, 68, 92
2, 60426, Note_on_c, 0, 37, 0
2, 60433, Note_on_c, 0, 49, 0
2, 60436, Note_on_c, 0, 37, 78
2, 60437, Note_on_c, 0, 49, 88
2, 60633, Note_on_c, 0, 68, 0
2, 60645, Note_on_c, 0, 68, 93
2, 60711, Note_on_c, 0, 68, 0
2, 60712, Control_c, 0, 64, 0
2, 60712, Note_on_c, 0, 56, 0
2, 60712, Note_on_c, 0, 61, 0
2, 60712, Note_on_c, 0, 65, 0
2, 60713, Note_on_c, 0, 49, 0
2, 60713, Note_on_c, 0, 53, 0
2, 60725, Note_on_c, 0, 37, 0
2, 60776, Note_on_c, 0, 68, 102
2, 60784, Note_on_c, 0, 61, 86
2, 60786, Note_on_c, 0, 58, 82
2, 60789, Note_on_c, 0, 51, 75
2, 60790, Note_on_c, 0, 54, 81
2, 60802, Control_c, 0, 64, 127
2, 60989, Note_on_c, 0, 66, 85
2, 61102, Note_on_c, 0, 54, 0
2, 61102, Note_on_c, 0, 66, 0
2, 61109, Note_on_c, 0, 66, 84
2, 61110, Note_on_c, 0, 39, 73
2, 61111, Note_on_c, 0, 54, 72
2, 61332, Note_on_c, 0, 66, 0
2, 61340, Note_on_c, 0, 54, 0
2, 61343, Note_on_c, 0, 66, 85
2, 61344, Note_on_c, 0, 54, 61
2, 61455, Note_on_c, 0, 51, 0
2, 61455, Note_on_c, 0, 54, 0
2, 61455, Note_on_c, 0, 58, 0
2, 61455, Note_on_c, 0, 61, 0
2, 61455, Note_on_c, 0, 66, 0
2, 61459, Note_on_c, 0, 54, 80
2, 61460, Note_on_c, 0, 66, 96
2, 61461, Note_on_c, 0, 58, 79
2, 61461, Note_on_c, 0, 51, 69
2, 61465, Note_on_c, 0, 61, 87
2, 61693, Note_on_c, 0, 66, 0
2, 61698, Note_on_c, 0, 66, 89
2, 61808, Note_on_c, 0, 51, 0
2, 61808, Note_on_c, 0, 54, 0
2, 61816, Note_on_c, 0, 66, 0
2, 61818, Note_on_c, 0, 51, 78
2, 61818, Note_on_c, 0, 54, 73
2, 61820, Note_on_c, 0, 66, 93
2, 62016, Note_on_c, 0, 54, 0
2, 62016, Note_on_c, 0, 66, 0
2, 62024, Note_on_c, 0, 66, 79
2, 62025, Note_on_c, 0, 54, 68
2, 62119, Control_c, 0, 64, 0
2, 62122, Note_on_c, 0, 54, 0
2, 62122, Note_on_c, 0, 68, 0
2, 62123, Note_on_c, 0, 51, 0
2, 62123, Note_on_c, 0, 58, 0
2, 62124, Note_on_c, 0, 39, 0
2, 62124, Note_on_c, 0, 61, 0
2, 62154, Note_on_c, 0, 66, 0
2, 62160, Note_on_c, 0, 66, 93
2, 62167, Note_on_c, 0, 46, 85
2, 62168, Note_on_c, 0, 34, 75
2, 62169, Note_on_c, 0, 56, 84
2, 62169, Note_on_c, 0, 61, 83
2, 62170, Note_on_c, 0, 54, 81
2, 62192, Control_c, 0, 64, 127
2, 62369, Note_on_c, 0, 61, 0
2, 62378, Note_on_c, 0, 61, 75
2, 62499, Note_on_c, 0, 61, 0
2, 62507, Note_on_c, 0, 34, 0
2, 62511, Note_on_c, 0, 61, 81
2, 62511, Note_on_c, 0, 34, 68
2, 62737, Note_on_c, 0, 61, 0
2, 62748, Note_on_c, 0, 61, 89
2, 62860, Note_on_c, 0, 56, 0
2, 62868, Note_on_c, 0, 46, 0
2, 62868, Note_on_c, 0, 56, 88
2, 62870, Control_c, 0, 64, 0
2, 62871, Note_on_c, 0, 53, 83
2, 62873, Note_on_c, 0, 46, 79
2, 62876, Note_on_c, 0, 58, 80
2, 62899, Control_c, 0, 64, 127
2, 63118, Note_on_c, 0, 63, 85
2, 63191, Note_on_c, 0, 46, 0
2, 63198, Note_on_c, 0, 34, 0
2, 63198, Note_on_c, 0, 66, 0
2, 63202, Note_on_c, 0, 46, 85
2, 63203, Note_on_c, 0, 66, 100
2, 63203, Note_on_c, 0, 34, 73
2, 63417, Note_on_c, 0, 68, 99
2, 63488, Note_on_c, 0, 54, 0
2, 63488, Note_on_c, 0, 58, 0
2, 63488, Note_on_c, 0, 66, 0
2, 63489, Note_on_c, 0, 56, 0
2, 63489, Control_c, 0, 64, 0
2, 63489, Note_on_c, 0, 61, 0
2, 63489, Note_on_c, 0, 34, 0
2, 63490, Note_on_c, 0, 68, 0
2, 63490, Note_on_c, 0, 63, 0
2, 63498, Note_on_c, 0, 53, 0
2, 63505, Note_on_c, 0, 46, 0
2, 63539, Note_on_c, 0, 68, 99
2, 63553, Note_on_c, 0, 54, 85
2, 63555, Note_on_c, 0, 47, 84
2, 63556, Note_on_c, 0, 59, 82
2, 63556, Note_on_c, 0, 51, 78
2, 63557, Note_on_c, 0, 63, 78
2, 63582, Control_c, 0, 64, 127
2, 63754, Note_on_c, 0, 70, 86
2, 63882, Note_on_c, 0, 70, 0
2, 63887, Note_on_c, 0, 35, 79
2, 63893, Note_on_c, 0, 70, 97
2, 64097, Note_on_c, 0, 70, 0
2, 64105, Note_on_c, 0, 70, 86
2, 64235, Note_on_c, 0, 70, 0
2, 64243, Note_on_c, 0, 70, 103
2, 64243, Note_on_c, 0, 54, 0
2, 64243, Note_on_c, 0, 63, 0
2, 64248, Note_on_c, 0, 54, 88
2, 64250, Note_on_c, 0, 63, 75
2, 64251, Note_on_c, 0, 66, 92
2, 64258, Note_on_c, 0, 47, 0
2, 64266, Note_on_c, 0, 59, 0
2, 64343, Note_on_c, 0, 35, 0
2, 64473, Note_on_c, 0, 70, 0
2, 64478, Note_on_c, 0, 70, 87
2, 64588, Note_on_c, 0, 70, 0
2, 64594, Note_on_c, 0, 70, 97
2, 64596, Note_on_c, 0, 47, 83
2, 64802, Note_on_c, 0, 61, 84
2, 64803, Note_on_c, 0, 68, 0
2, 64810, Note_on_c, 0, 68, 92
2, 64811, Note_on_c, 0, 73, 101
2, 64815, Note_on_c, 0, 65, 77
2, 64831, Note_on_c, 0, 54, 0
2, 64831, Note_on_c, 0, 63, 0
2, 64831, Note_on_c, 0, 66, 0
2, 64831, Note_on_c, 0, 51, 0
2, 64831, Control_c, 0, 64, 0
2, 64831, Note_on_c, 0, 70, 0
2, 64831, Note_on_c, 0, 47, 0
2, 64956, Note_on_c, 0, 53, 83
2, 64956, Note_on_c, 0, 56, 90
2, 64957, Control_c, 0, 64, 127
2, 64960, Note_on_c, 0, 49, 80
2, 65159, Note_on_c, 0, 70, 82
2, 65280, Note_on_c, 0, 70, 0
2, 65284, Note_on_c, 0, 70, 92
2, 65285, Note_on_c, 0, 37, 77
2, 65625, Note_on_c, 0, 70, 0
2, 65633, Note_on_c, 0, 53, 0
2, 65633, Note_on_c, 0, 56, 0
2, 65633, Note_on_c, 0, 61, 0
2, 65633, Note_on_c, 0, 65, 0
2, 65636, Note_on_c, 0, 70, 95
2, 65638, Note_on_c, 0, 61, 79
2, 65638, Note_on_c, 0, 56, 78
2, 65644, Note_on_c, 0, 65, 80
2, 65644, Note_on_c, 0, 53, 71
2, 65879, Note_on_c, 0, 70, 0
2, 65886, Note_on_c, 0, 37, 0
2, 65888, Note_on_c, 0, 70, 83
2, 65896, Note_on_c, 0, 37, 56
2, 65902, Note_on_c, 0, 61, 0
2, 65912, Note_on_c, 0, 61, 55
2, 65978, Note_on_c, 0, 68, 0
2, 65987, Note_on_c, 0, 68, 90
2, 66205, Note_on_c, 0, 66, 82
2, 66323, Control_c, 0, 64, 0
2, 66329, Note_on_c, 0, 56, 0
2, 66331, Note_on_c, 0, 49, 0
2, 66332, Note_on_c, 0, 68, 0
2, 66333, Note_on_c, 0, 70, 0
2, 66334, Note_on_c, 0, 53, 0
2, 66334, Note_on_c, 0, 37, 0
2, 66335, Note_on_c, 0, 66, 0
2, 66340, Note_on_c, 0, 68, 96
2, 66347, Note_on_c, 0, 61, 0
2, 66347, Note_on_c, 0, 73, 0
2, 66352, Note_on_c, 0, 42, 70
2, 66357, Note_on_c, 0, 61, 70
2, 66358, Note_on_c, 0, 58, 69
2, 66362, Note_on_c, 0, 65, 0
2, 66501, Control_c, 0, 64, 127
2, 66675, Note_on_c, 0, 70, 91
2, 66697, Note_on_c, 0, 49, 58
2, 66915, Note_on_c, 0, 70, 0
2, 66923, Note_on_c, 0, 61, 0
2, 66926, Note_on_c, 0, 70, 86
2, 66930, Note_on_c, 0, 61, 58
2, 66934, Note_on_c, 0, 66, 68
2, 66984, Control_c, 0, 64, 0
2, 67051, Note_on_c, 0, 56, 68
2, 67069, Control_c, 0, 64, 127
2, 67368, Note_on_c, 0, 49, 0
2, 67377, Note_on_c, 0, 49, 59
2, 67719, Control_c, 0, 64, 0
2, 67722, Note_on_c, 0, 58, 0
2, 67723, Note_on_c, 0, 56, 0
2, 67728, Note_on_c, 0, 54, 66
2, 67728, Note_on_c, 0, 58, 72
2, 67729, Note_on_c, 0, 68, 0
2, 67868, Control_c, 0, 64, 127
2, 68444, Note_on_c, 0, 58, 0
2, 68444, Note_on_c, 0, 61, 0
2, 68449, Note_on_c, 0, 58, 60
2, 68449, Note_on_c, 0, 61, 60
2, 68590, Note_on_c, 0, 70, 0
2, 68599, Note_on_c, 0, 70, 49
2, 68778, Control_c, 0, 64, 0
2, 68786, Note_on_c, 0, 68, 101
2, 68843, Control_c, 0, 64, 127
2, 69012, Note_on_c, 0, 70, 0
2, 69017, Note_on_c, 0, 70, 87
2, 69143, Note_on_c, 0, 68, 0
2, 69150, Note_on_c, 0, 49, 0
2, 69153, Note_on_c, 0, 68, 94
2, 69159, Note_on_c, 0, 47, 72
2, 69160, Note_on_c, 0, 63, 73
2, 69162, Note_on_c, 0, 59, 70
2, 69164, Note_on_c, 0, 58, 0
2, 69165, Control_c, 0, 64, 0
2, 69166, Note_on_c, 0, 61, 0
2, 69166, Note_on_c, 0, 42, 0
2, 69168, Note_on_c, 0, 70, 0
2, 69173, Note_on_c, 0, 66, 0
2, 69189, Note_on_c, 0, 54, 0
2, 69373, Control_c, 0, 64, 127
2, 69382, Note_on_c, 0, 66, 83
2, 69696, Note_on_c, 0, 66, 0
2, 69699, Note_on_c, 0, 66, 77
2, 69856, Note_on_c, 0, 54, 67
2, 69888, Note_on_c, 0, 63, 0
2, 69892, Note_on_c, 0, 75, 68
2, 69893, Note_on_c, 0, 63, 38
2, 70210, Note_on_c, 0, 59, 0
2, 70218, Note_on_c, 0, 59, 55
2, 70567, Note_on_c, 0, 49, 61
2, 70568, Note_on_c, 0, 61, 64
2, 70569, Note_on_c, 0, 77, 71
2, 70598, Control_c, 0, 64, 0
2, 70599, Note_on_c, 0, 47, 0
2, 70599, Note_on_c, 0, 59, 0
2, 70599, Note_on_c, 0, 63, 0
2, 70600, Note_on_c, 0, 54, 0
2, 70601, Note_on_c, 0, 75, 0
2, 70763, Control_c, 0, 64, 127
2, 71272, Note_on_c, 0, 73, 65
2, 71272, Note_on_c, 0, 56, 54
2, 71285, Note_on_c, 0, 61, 0
2, 71290, Note_on_c, 0, 61, 53
2, 71616, Note_on_c, 0, 68, 0
2, 71620, Note_on_c, 0, 68, 92
2, 71850, Note_on_c, 0, 70, 81
2, 71961, Note_on_c, 0, 68, 0
2, 71968, Note_on_c, 0, 68, 90
2, 71983, Note_on_c, 0, 42, 68
2, 71994, Control_c, 0, 64, 0
2, 72001, Note_on_c, 0, 61, 0
2, 72002, Note_on_c, 0, 70, 0
2, 72002, Note_on_c, 0, 49, 0
2, 72002, Note_on_c, 0, 73, 0
2, 72002, Note_on_c, 0, 56, 0
2, 72003, Note_on_c, 0, 77, 0
2, 72015, Note_on_c, 0, 66, 0
2, 72115, Control_c, 0, 64, 127
2, 72228, Note_on_c, 0, 66, 76
2, 72370, Note_on_c, 0, 49, 57
2, 72529, Note_on_c, 0, 66, 0
2, 72538, Note_on_c, 0, 66, 75
2, 72703, Note_on_c, 0, 56, 71
2, 73056, Note_on_c, 0, 58, 55
2, 73390, Note_on_c, 0, 66, 0
2, 73398, Note_on_c, 0, 66, 54
2, 73440, Note_on_c, 0, 54, 51
2, 74109, Note_on_c, 0, 61, 27
2, 74607, Control_c, 0, 64, 0
2, 74695, Note_on_c, 0, 42, 0
2, 74695, Note_on_c, 0, 68, 0
2, 74703, Note_on_c, 0, 61, 0
2, 74718, Note_on_c, 0, 49, 0
2, 74718, Note_on_c, 0, 56, 0
2, 74726, Note_on_c, 0, 58, 0
2, 74734, Note_on_c, 0, 54, 0
2, 74734, Note_on_c, 0, 66, 0
2, 74937, Note_on_c, 0, 87, 76
2, 74940, Note_on_c, 0, 59, 50
2, 74942, Note_on_c, 0, 75, 72
2, 74945, Note_on_c, 0, 66, 47
2, 74945, Note_on_c, 0, 71, 53
2, 75486, Control_c, 0, 64, 127
2, 75985, Note_on_c, 0, 87, 0
2, 75991, Note_on_c, 0, 87, 75
2, 76190, Note_on_c, 0, 85, 84
2, 76293, Note_on_c, 0, 71, 0
2, 76297, Note_on_c, 0, 75, 0
2, 76298, Note_on_c, 0, 59, 0
2, 76299, Control_c, 0, 64, 0
2, 76302, Note_on_c, 0, 66, 0
2, 76303, Note_on_c, 0, 85, 0
2, 76323, Note_on_c, 0, 87, 0
2, 76328, Note_on_c, 0, 68, 64
2, 76329, Note_on_c, 0, 61, 62
2, 76329, Note_on_c, 0, 87, 72
2, 76335, Note_on_c, 0, 77, 66
2, 76469, Control_c, 0, 64, 127
2, 76538, Note_on_c, 0, 89, 78
2, 76861, Note_on_c, 0, 89, 0
2, 76866, Note_on_c, 0, 89, 93
2, 77376, Note_on_c, 0, 89, 0
2, 77380, Note_on_c, 0, 89, 94
2, 77606, Note_on_c, 0, 87, 0
2, 77617, Note_on_c, 0, 87, 69
2, 77691, Control_c, 0, 64, 0
2, 77693, Note_on_c, 0, 68, 0
2, 77694, Note_on_c, 0, 87, 0
2, 77694, Note_on_c, 0, 77, 0
2, 77694, Note_on_c, 0, 61, 0
2, 77713, Note_on_c, 0, 89, 0
2, 77722, Note_on_c, 0, 89, 84
2, 77723, Note_on_c, 0, 70, 69
2, 77729, Note_on_c, 0, 63, 53
2, 77731, Note_on_c, 0, 78, 64
2, 77732, Note_on_c, 0, 82, 73
2, 77783, Control_c, 0, 64, 127
2, 77836, Control_c, 0, 64, 0
2, 77921, Control_c, 0, 64, 127
2, 77956, Note_on_c, 0, 90, 87
2, 78259, Note_on_c, 0, 90, 0
2, 78266, Note_on_c, 0, 90, 93
2, 78800, Note_on_c, 0, 85, 83
2, 79027, Note_on_c, 0, 82, 0
2, 79038, Note_on_c, 0, 82, 68
2, 79127, Note_on_c, 0, 78, 0
2, 79128, Control_c, 0, 64, 0
2, 79129, Note_on_c, 0, 90, 0
2, 79129, Note_on_c, 0, 70, 0
2, 79129, Note_on_c, 0, 63, 0
2, 79134, Note_on_c, 0, 89, 0
2, 79150, Note_on_c, 0, 85, 0
2, 79154, Note_on_c, 0, 58, 60
2, 79154, Note_on_c, 0, 85, 82
2, 79157, Note_on_c, 0, 65, 61
2, 79161, Note_on_c, 0, 73, 66
2, 79170, Note_on_c, 0, 77, 57
2, 79288, Control_c, 0, 64, 127
2, 79394, Note_on_c, 0, 87, 72
2, 79695, Note_on_c, 0, 87, 0
2, 79699, Note_on_c, 0, 87, 75
2, 79703, Note_on_c, 0, 77, 0
2, 79707, Note_on_c, 0, 77, 61
2, 79733, Note_on_c, 0, 82, 0
2, 79738, Note_on_c, 0, 82, 56
2, 80251, Note_on_c, 0, 68, 62
2, 80593, Note_on_c, 0, 87, 0
2, 80602, Note_on_c, 0, 68, 0
2, 80603, Control_c, 0, 64, 0
2, 80603, Note_on_c, 0, 65, 0
2, 80603, Note_on_c, 0, 58, 0
2, 80604, Note_on_c, 0, 77, 0
2, 80604, Note_on_c, 0, 73, 0
2, 80604, Note_on_c, 0, 82, 0
2, 80604, Note_on_c, 0, 85, 0
2, 80604, Note_on_c, 0, 87, 81
2, 80604, Note_on_c, 0, 78, 74
2, 80608, Note_on_c, 0, 75, 72
2, 80609, Note_on_c, 0, 71, 64
2, 80620, Note_on_c, 0, 66, 55
2, 80625, Note_on_c, 0, 59, 57
2, 81024, Control_c, 0, 64, 127
2, 81669, Note_on_c, 0, 87, 0
2, 81678, Note_on_c, 0, 87, 83
2, 81906, Note_on_c, 0, 85, 76
2, 81990, Note_on_c, 0, 75, 0
2, 81991, Note_on_c, 0, 71, 0
2, 81992, Control_c, 0, 64, 0
2, 81993, Note_on_c, 0, 59, 0
2, 81993, Note_on_c, 0, 78, 0
2, 81994, Note_on_c, 0, 66, 0
2, 82007, Note_on_c, 0, 87, 0
2, 82012, Note_on_c, 0, 87, 78
2, 82013, Note_on_c, 0, 73, 58
2, 82014, Note_on_c, 0, 68, 67
2, 82018, Note_on_c, 0, 77, 65
2, 82019, Note_on_c, 0, 61, 61
2, 82160, Control_c, 0, 64, 127
2, 82250, Note_on_c, 0, 89, 84
2, 82560, Note_on_c, 0, 73, 0
2, 82560, Note_on_c, 0, 89, 0
2, 82567, Note_on_c, 0, 89, 91
2, 82644, Note_on_c, 0, 85, 0
2, 83120, Note_on_c, 0, 89, 0
2, 83125, Note_on_c, 0, 89, 92
2, 83366, Note_on_c, 0, 87, 0
2, 83372, Note_on_c, 0, 87, 65
2, 83462, Control_c, 0, 64, 0
2, 83466, Note_on_c, 0, 68, 0
2, 83467, Note_on_c, 0, 87, 0
2, 83473, Note_on_c, 0, 61, 0
2, 83473, Note_on_c, 0, 77, 0
2, 83473, Note_on_c, 0, 89, 0
2, 83481, Note_on_c, 0, 89, 83
2, 83484, Note_on_c, 0, 77, 67
2, 83485, Note_on_c, 0, 61, 63
2, 83485, Note_on_c, 0, 54, 54
2, 83492, Note_on_c, 0, 78, 71
2, 83498, Note_on_c, 0, 66, 46
2, 83504, Note_on_c, 0, 66, 0
2, 83642, Control_c, 0, 64, 127
2, 83681, Note_on_c, 0, 77, 0
2, 83753, Note_on_c, 0, 90, 93
2, 84011, Note_on_c, 0, 90, 0
2, 84022, Note_on_c, 0, 90, 96
2, 84026, Note_on_c, 0, 78, 0
2, 84031, Control_c, 0, 64, 0
2, 84032, Note_on_c, 0, 78, 80
2, 84047, Note_on_c, 0, 80, 62
2, 84103, Control_c, 0, 64, 127
2, 84191, Note_on_c, 0, 68, 58
2, 84533, Note_on_c, 0, 61, 0
2, 84539, Note_on_c, 0, 61, 64
2, 84899, Note_on_c, 0, 70, 72
2, 85240, Note_on_c, 0, 61, 0
2, 85246, Note_on_c, 0, 61, 58
2, 85409, Note_on_c, 0, 89, 0
2, 85593, Note_on_c, 0, 66, 71
2, 85923, Note_on_c, 0, 92, 96
2, 86163, Note_on_c, 0, 94, 93
2, 86255, Control_c, 0, 64, 0
2, 86256, Note_on_c, 0, 68, 0
2, 86256, Note_on_c, 0, 78, 0
2, 86256, Note_on_c, 0, 80, 0
2, 86256, Note_on_c, 0, 54, 0
2, 86256, Note_on_c, 0, 66, 0
2, 86257, Note_on_c, 0, 61, 0
2, 86257, Note_on_c, 0, 70, 0
2, 86269, Note_on_c, 0, 90, 0
2, 86284, Note_on_c, 0, 92, 0
2, 86294, Note_on_c, 0, 92, 97
2, 86295, Note_on_c, 0, 59, 77
2, 86346, Note_on_c, 0, 94, 0
2, 86353, Control_c, 0, 64, 127
2, 86533, Note_on_c, 0, 90, 94
2, 86534, Note_on_c, 0, 66, 66
2, 86615, Note_on_c, 0, 92, 0
2, 86657, Note_on_c, 0, 59, 0
2, 86660, Note_on_c, 0, 66, 0
2, 86661, Note_on_c, 0, 71, 66
2, 86672, Control_c, 0, 64, 0
2, 86684, Note_on_c, 0, 90, 0
2, 86700, Note_on_c, 0, 71, 0
2, 86867, Note_on_c, 0, 87, 92
2, 86889, Note_on_c, 0, 66, 50
2, 86899, Control_c, 0, 64, 127
2, 87003, Note_on_c, 0, 75, 79
2, 87352, Note_on_c, 0, 66, 0
2, 87356, Note_on_c, 0, 80, 82
2, 87357, Note_on_c, 0, 66, 76
2, 87573, Note_on_c, 0, 82, 90
2, 87697, Note_on_c, 0, 80, 0
2, 87704, Note_on_c, 0, 61, 83
2, 87706, Note_on_c, 0, 80, 90
2, 87755, Note_on_c, 0, 82, 0
2, 87755, Note_on_c, 0, 87, 0
2, 87756, Control_c, 0, 64, 0
2, 87757, Note_on_c, 0, 75, 0
2, 87757, Note_on_c, 0, 66, 0
2, 87933, Note_on_c, 0, 78, 85
2, 87934, Note_on_c, 0, 65, 59
2, 87982, Note_on_c, 0, 80, 0
2, 87984, Note_on_c, 0, 78, 0
2, 88055, Note_on_c, 0, 68, 80
2, 88069, Note_on_c, 0, 65, 0
2, 88235, Control_c, 0, 64, 127
2, 88272, Note_on_c, 0, 75, 89
2, 88280, Note_on_c, 0, 65, 61
2, 88419, Note_on_c, 0, 73, 80
2, 88765, Note_on_c, 0, 68, 0
2, 88769, Note_on_c, 0, 68, 80
2, 88769, Note_on_c, 0, 92, 101
2, 88972, Note_on_c, 0, 94, 94
2, 89061, Note_on_c, 0, 73, 0
2, 89061, Note_on_c, 0, 68, 0
2, 89061, Note_on_c, 0, 75, 0
2, 89061, Note_on_c, 0, 65, 0
2, 89062, Control_c, 0, 64, 0
2, 89063, Note_on_c, 0, 61, 0
2, 89103, Note_on_c, 0, 92, 0
2, 89107, Note_on_c, 0, 92, 103
2, 89108, Note_on_c, 0, 63, 79
2, 89123, Note_on_c, 0, 85, 72
2, 89123, Note_on_c, 0, 82, 79
2, 89172, Control_c, 0, 64, 127
2, 89180, Note_on_c, 0, 63, 0
2, 89280, Control_c, 0, 64, 0
2, 89348, Note_on_c, 0, 90, 93
2, 89354, Note_on_c, 0, 66, 72
2, 89379, Note_on_c, 0, 94, 0
2, 89402, Note_on_c, 0, 82, 0
2, 89476, Note_on_c, 0, 70, 77
2, 89515, Note_on_c, 0, 66, 0
2, 89533, Note_on_c, 0, 85, 0
2, 89648, Note_on_c, 0, 92, 0
2, 89660, Note_on_c, 0, 85, 97
2, 89665, Note_on_c, 0, 66, 70
2, 89710, Note_on_c, 0, 90, 0
2, 89733, Control_c, 0, 64, 127
2, 89805, Note_on_c, 0, 73, 78
2, 90163, Note_on_c, 0, 73, 0
2, 90170, Note_on_c, 0, 73, 74
2, 90347, Note_on_c, 0, 70, 0
2, 90351, Note_on_c, 0, 70, 80
2, 90439, Note_on_c, 0, 85, 0
2, 90458, Control_c, 0, 64, 0
2, 90459, Note_on_c, 0, 70, 0
2, 90460, Note_on_c, 0, 66, 0
2, 90478, Note_on_c, 0, 73, 0
2, 90482, Note_on_c, 0, 58, 79
2, 90486, Note_on_c, 0, 73, 89
2, 90719, Note_on_c, 0, 75, 90
2, 90728, Note_on_c, 0, 65, 62
2, 90739, Note_on_c, 0, 73, 0
2, 90767, Note_on_c, 0, 75, 0
2, 90822, Note_on_c, 0, 65, 0
2, 90834, Note_on_c, 0, 68, 68
2, 90923, Control_c, 0, 64, 127
2, 91028, Note_on_c, 0, 75, 94
2, 91050, Note_on_c, 0, 65, 63
2, 91180, Note_on_c, 0, 73, 81
2, 91514, Note_on_c, 0, 68, 0
2, 91522, Note_on_c, 0, 94, 100
2, 91525, Note_on_c, 0, 68, 79
2, 91852, Note_on_c, 0, 65, 0
2, 91852, Note_on_c, 0, 68, 0
2, 91852, Note_on_c, 0, 75, 0
2, 91853, Note_on_c, 0, 92, 104
2, 91853, Note_on_c, 0, 58, 0
2, 91854, Note_on_c, 0, 94, 0
2, 91854, Control_c, 0, 64, 0
2, 91855, Note_on_c, 0, 73, 0
2, 91863, Note_on_c, 0, 59, 77
2, 91866, Note_on_c, 0, 83, 79
2, 91877, Note_on_c, 0, 87, 71
2, 91975, Control_c, 0, 64, 127
2, 92014, Control_c, 0, 64, 0
2, 92103, Note_on_c, 0, 90, 98
2, 92109, Note_on_c, 0, 66, 75
2, 92206, Note_on_c, 0, 83, 0
2, 92221, Control_c, 0, 64, 127
2, 92231, Note_on_c, 0, 71, 70
2, 92313, Note_on_c, 0, 87, 0
2, 92328, Note_on_c, 0, 92, 0
2, 92424, Note_on_c, 0, 87, 97
2, 92436, Note_on_c, 0, 66, 0
2, 92441, Note_on_c, 0, 66, 75
2, 92470, Control_c, 0, 64, 0
2, 92520, Control_c, 0, 64, 127
2, 92580, Note_on_c, 0, 75, 84
2, 92597, Note_on_c, 0, 90, 0
2, 92620, Note_on_c, 0, 71, 0
2, 92920, Note_on_c, 0, 66, 0
2, 92925, Note_on_c, 0, 80, 101
2, 92930, Note_on_c, 0, 66, 76
2, 93151, Note_on_c, 0, 82, 99
2, 93265, Note_on_c, 0, 80, 0
2, 93276, Note_on_c, 0, 61, 85
2, 93277, Note_on_c, 0, 80, 97
2, 93497, Control_c, 0, 64, 0
2, 93501, Note_on_c, 0, 75, 0
2, 93501, Note_on_c, 0, 78, 95
2, 93506, Note_on_c, 0, 82, 0
2, 93511, Note_on_c, 0, 59, 0
2, 93519, Note_on_c, 0, 87, 0
2, 93530, Note_on_c, 0, 65, 64
2, 93534, Note_on_c, 0, 66, 0
2, 93565, Note_on_c, 0, 80, 0
2, 93586, Note_on_c, 0, 78, 0
2, 93629, Note_on_c, 0, 68, 88
2, 93665, Note_on_c, 0, 65, 0
2, 93795, Control_c, 0, 64, 127
2, 93814, Note_on_c, 0, 75, 97
2, 93817, Note_on_c, 0, 65, 77
2, 93957, Note_on_c, 0, 73, 93
2, 94174, Note_on_c, 0, 87, 95
2, 94302, Note_on_c, 0, 68, 0
2, 94309, Note_on_c, 0, 68, 89
2, 94310, Note_on_c, 0, 92, 107
2, 94637, Control_c, 0, 64, 0
2, 94638, Note_on_c, 0, 68, 0
2, 94638, Note_on_c, 0, 75, 0
2, 94638, Note_on_c, 0, 61, 0
2, 94639, Note_on_c, 0, 65, 0
2, 94639, Note_on_c, 0, 87, 0
2, 94639, Note_on_c, 0, 92, 0
2, 94641, Note_on_c, 0, 73, 0
2, 94653, Note_on_c, 0, 90, 107
2, 94655, Note_on_c, 0, 78, 97
2, 94656, Note_on_c, 0, 54, 81
2, 94755, Control_c, 0, 64, 127
2, 95002, Note_on_c, 0, 61, 76
2, 95009, Note_on_c, 0, 78, 0
2, 95104, Note_on_c, 0, 66, 80
2, 95208, Note_on_c, 0, 61, 0
2, 95216, Note_on_c, 0, 61, 74
2, 95338, Note_on_c, 0, 68, 96
2, 95462, Note_on_c, 0, 61, 0
2, 95470, Note_on_c, 0, 61, 68
2, 95546, Note_on_c, 0, 66, 0
2, 95551, Note_on_c, 0, 66, 75
2, 95676, Note_on_c, 0, 71, 95
2, 95769, Note_on_c, 0, 66, 0
2, 95779, Note_on_c, 0, 66, 76
2, 95892, Note_on_c, 0, 61, 0
2, 95896, Note_on_c, 0, 61, 79
2, 95930, Control_c, 0, 64, 0
2, 95992, Note_on_c, 0, 54, 0
2, 95997, Note_on_c, 0, 70, 97
2, 95998, Note_on_c, 0, 54, 85
2, 96023, Note_on_c, 0, 90, 0
2, 96076, Control_c, 0, 64, 127
2, 96115, Note_on_c, 0, 61, 0
2, 96119, Note_on_c, 0, 61, 91
2, 96222, Note_on_c, 0, 66, 0
2, 96233, Note_on_c, 0, 66, 92
2, 96353, Note_on_c, 0, 70, 0
2, 96359, Note_on_c, 0, 70, 86
2, 96375, Note_on_c, 0, 73, 94
2, 96481, Note_on_c, 0, 78, 91
2, 96586, Note_on_c, 0, 82, 102
2, 96682, Note_on_c, 0, 85, 102
2, 96702, Control_c, 0, 64, 0
2, 96711, Note_on_c, 0, 42, 102
2, 96715, Note_on_c, 0, 54, 0
2, 96744, Control_c, 0, 64, 127
2, 96917, Note_on_c, 0, 75, 103
2, 97021, Note_on_c, 0, 78, 0
2, 97028, Note_on_c, 0, 78, 107
2, 97236, Note_on_c, 0, 42, 0
2, 97243, Note_on_c, 0, 42, 72
2, 97244, Note_on_c, 0, 80, 101
2, 97319, Note_on_c, 0, 68, 0
2, 97322, Note_on_c, 0, 71, 0
2, 97322, Note_on_c, 0, 80, 0
2, 97322, Note_on_c, 0, 82, 0
2, 97322, Note_on_c, 0, 73, 0
2, 97322, Note_on_c, 0, 61, 0
2, 97322, Note_on_c, 0, 42, 0
2, 97323, Control_c, 0, 64, 0
2, 97323, Note_on_c, 0, 70, 0
2, 97323, Note_on_c, 0, 78, 0
2, 97324, Note_on_c, 0, 75, 0
2, 97336, Note_on_c, 0, 66, 0
2, 97344, Note_on_c, 0, 85, 0
2, 97378, Note_on_c, 0, 80, 97
2, 97387, Note_on_c, 0, 47, 94
2, 97389, Note_on_c, 0, 71, 88
2, 97390, Note_on_c, 0, 75, 92
2, 97391, Note_on_c, 0, 35, 89
2, 97497, Control_c, 0, 64, 127
2, 97592, Note_on_c, 0, 82, 98
2, 97697, Note_on_c, 0, 82, 0
2, 97707, Note_on_c, 0, 82, 103
2, 97927, Note_on_c, 0, 82, 0
2, 97933, Note_on_c, 0, 82, 98
2, 97950, Note_on_c, 0, 47, 0
2, 97956, Note_on_c, 0, 47, 73
2, 98065, Note_on_c, 0, 82, 0
2, 98070, Note_on_c, 0, 82, 106
2, 98073, Note_on_c, 0, 71, 0
2, 98073, Note_on_c, 0, 75, 0
2, 98076, Note_on_c, 0, 54, 86
2, 98077, Note_on_c, 0, 63, 90
2, 98077, Note_on_c, 0, 75, 91
2, 98078, Note_on_c, 0, 78, 86
2, 98078, Note_on_c, 0, 71, 83
2, 98081, Note_on_c, 0, 54, 0
2, 98296, Note_on_c, 0, 82, 0
2, 98302, Note_on_c, 0, 82, 104
2, 98419, Note_on_c, 0, 47, 0
2, 98429, Note_on_c, 0, 47, 78
2, 98641, Note_on_c, 0, 82, 0
2, 98646, Note_on_c, 0, 82, 106
2, 98647, Note_on_c, 0, 77, 95
2, 98648, Note_on_c, 0, 73, 97
2, 98715, Note_on_c, 0, 35, 0
2, 98715, Note_on_c, 0, 47, 0
2, 98715, Control_c, 0, 64, 0
2, 98716, Note_on_c, 0, 71, 0
2, 98716, Note_on_c, 0, 80, 0
2, 98716, Note_on_c, 0, 63, 0
2, 98716, Note_on_c, 0, 78, 0
2, 98716, Note_on_c, 0, 75, 0
2, 98781, Note_on_c, 0, 37, 91
2, 98781, Note_on_c, 0, 49, 94
2, 98933, Control_c, 0, 64, 127
2, 98966, Note_on_c, 0, 80, 82
2, 99095, Note_on_c, 0, 80, 0
2, 99104, Note_on_c, 0, 80, 82
2, 99317, Note_on_c, 0, 80, 0
2, 99321, Note_on_c, 0, 80, 95
2, 99348, Note_on_c, 0, 49, 0
2, 99353, Note_on_c, 0, 49, 69
2, 99432, Note_on_c, 0, 80, 0
2, 99440, Note_on_c, 0, 73, 0
2, 99440, Note_on_c, 0, 77, 0
2, 99441, Note_on_c, 0, 80, 96
2, 99444, Note_on_c, 0, 56, 83
2, 99446, Note_on_c, 0, 65, 84
2, 99446, Note_on_c, 0, 73, 80
2, 99448, Note_on_c, 0, 77, 85
2, 99548, Note_on_c, 0, 82, 0
2, 99678, Note_on_c, 0, 80, 0
2, 99685, Note_on_c, 0, 80, 100
2, 99801, Note_on_c, 0, 49, 0
2, 99807, Note_on_c, 0, 49, 74
2, 100016, Note_on_c, 0, 80, 0
2, 100024, Note_on_c, 0, 73, 0
2, 100025, Note_on_c, 0, 80, 98
2, 100032, Note_on_c, 0, 70, 92
2, 100032, Note_on_c, 0, 73, 87
2, 100119, Control_c, 0, 64, 0
2, 100119, Note_on_c, 0, 37, 0
2, 100120, Note_on_c, 0, 49, 0
2, 100120, Note_on_c, 0, 65, 0
2, 100120, Note_on_c, 0, 56, 0
2, 100121, Note_on_c, 0, 77, 0
2, 100173, Note_on_c, 0, 39, 81
2, 100173, Note_on_c, 0, 54, 85
2, 100377, Note_on_c, 0, 78, 90
2, 100408, Control_c, 0, 64, 127
2, 100439, Control_c, 0, 64, 0
2, 100485, Note_on_c, 0, 78, 0
2, 100495, Note_on_c, 0, 78, 93
2, 100523, Control_c, 0, 64, 127
2, 100700, Note_on_c, 0, 78, 0
2, 100705, Note_on_c, 0, 78, 96
2, 100729, Note_on_c, 0, 51, 69
2, 100830, Note_on_c, 0, 78, 0
2, 100841, Note_on_c, 0, 78, 98
2, 100846, Note_on_c, 0, 54, 0
2, 100846, Note_on_c, 0, 70, 0
2, 100846, Note_on_c, 0, 73, 0
2, 100849, Note_on_c, 0, 70, 90
2, 100851, Note_on_c, 0, 73, 87
2, 100852, Note_on_c, 0, 61, 81
2, 100855, Note_on_c, 0, 58, 79
2, 100856, Note_on_c, 0, 54, 75
2, 100858, Control_c, 0, 64, 0
2, 100930, Control_c, 0, 64, 127
2, 101076, Note_on_c, 0, 78, 0
2, 101085, Note_on_c, 0, 78, 94
2, 101191, Note_on_c, 0, 51, 0
2, 101202, Note_on_c, 0, 51, 80
2, 101383, Note_on_c, 0, 78, 0
2, 101394, Note_on_c, 0, 78, 102
2, 101399, Note_on_c, 0, 70, 0
2, 101406, Note_on_c, 0, 73, 0
2, 101409, Note_on_c, 0, 70, 93
2, 101410, Note_on_c, 0, 73, 79
2, 101472, Note_on_c, 0, 58, 0
2, 101473, Note_on_c, 0, 54, 0
2, 101473, Control_c, 0, 64, 0
2, 101473, Note_on_c, 0, 51, 0
2, 101474, Note_on_c, 0, 39, 0
2, 101475, Note_on_c, 0, 61, 0
2, 101483, Note_on_c, 0, 80, 0
2, 101550, Note_on_c, 0, 46, 92
2, 101553, Note_on_c, 0, 34, 85
2, 101621, Control_c, 0, 64, 127
2, 101729, Note_on_c, 0, 73, 0
2, 101738, Note_on_c, 0, 73, 70
2, 101844, Note_on_c, 0, 73, 0
2, 101854, Note_on_c, 0, 73, 80
2, 102097, Note_on_c, 0, 73, 0
2, 102102, Note_on_c, 0, 73, 90
2, 102105, Note_on_c, 0, 46, 0
2, 102109, Note_on_c, 0, 46, 77
2, 102237, Control_c, 0, 64, 0
2, 102240, Note_on_c, 0, 46, 0
2, 102241, Note_on_c, 0, 61, 90
2, 102241, Note_on_c, 0, 34, 0
2, 102242, Note_on_c, 0, 56, 89
2, 102243, Note_on_c, 0, 53, 80
2, 102266, Note_on_c, 0, 78, 0
2, 102289, Control_c, 0, 64, 127
2, 102457, Note_on_c, 0, 75, 99
2, 102578, Note_on_c, 0, 46, 84
2, 102578, Note_on_c, 0, 78, 99
2, 102666, Note_on_c, 0, 53, 0
2, 102676, Note_on_c, 0, 53, 82
2, 102808, Note_on_c, 0, 80, 100
2, 102818, Note_on_c, 0, 47, 83
2, 102881, Note_on_c, 0, 73, 0
2, 102888, Note_on_c, 0, 70, 0
2, 102890, Note_on_c, 0, 46, 0
2, 102892, Note_on_c, 0, 75, 0
2, 102892, Note_on_c, 0, 61, 0
2, 102892, Note_on_c, 0, 78, 0
2, 102892, Note_on_c, 0, 56, 0
2, 102894, Control_c, 0, 64, 0
2, 102912, Note_on_c, 0, 53, 0
2, 102919, Note_on_c, 0, 80, 0
2, 102930, Note_on_c, 0, 80, 99
2, 102937, Note_on_c, 0, 35, 88
2, 102939, Note_on_c, 0, 75, 95
2, 102939, Note_on_c, 0, 71, 89
2, 103011, Control_c, 0, 64, 127
2, 103137, Note_on_c, 0, 82, 95
2, 103272, Note_on_c, 0, 82, 0
2, 103279, Note_on_c, 0, 82, 101
2, 103480, Note_on_c, 0, 82, 0
2, 103489, Note_on_c, 0, 82, 101
2, 103503, Note_on_c, 0, 47, 0
2, 103509, Note_on_c, 0, 47, 87
2, 103610, Note_on_c, 0, 82, 0
2, 103616, Note_on_c, 0, 82, 97
2, 103618, Note_on_c, 0, 75, 0
2, 103622, Note_on_c, 0, 54, 81
2, 103623, Note_on_c, 0, 59, 89
2, 103623, Note_on_c, 0, 78, 70
2, 103624, Note_on_c, 0, 71, 0
2, 103629, Note_on_c, 0, 75, 81
2, 103631, Note_on_c, 0, 51, 73
2, 103841, Note_on_c, 0, 82, 0
2, 103848, Note_on_c, 0, 82, 105
2, 103964, Note_on_c, 0, 47, 0
2, 103964, Note_on_c, 0, 82, 0
2, 103974, Note_on_c, 0, 82, 93
2, 103974, Note_on_c, 0, 47, 92
2, 104179, Note_on_c, 0, 80, 0
2, 104186, Note_on_c, 0, 73, 98
2, 104187, Note_on_c, 0, 85, 104
2, 104190, Note_on_c, 0, 77, 93
2, 104190, Note_on_c, 0, 80, 98
2, 104256, Control_c, 0, 64, 0
2, 104261, Note_on_c, 0, 47, 0
2, 104262, Note_on_c, 0, 59, 0
2, 104262, Note_on_c, 0, 54, 0
2, 104262, Note_on_c, 0, 82, 0
2, 104262, Note_on_c, 0, 35, 0
2, 104263, Note_on_c, 0, 51, 0
2, 104264, Note_on_c, 0, 75, 0
2, 104271, Note_on_c, 0, 78, 0
2, 104312, Note_on_c, 0, 37, 97
2, 104313, Note_on_c, 0, 49, 96
2, 104524, Control_c, 0, 64, 127
2, 104526, Note_on_c, 0, 82, 104
2, 104647, Note_on_c, 0, 82, 0
2, 104657, Note_on_c, 0, 82, 94
2, 104878, Note_on_c, 0, 49, 0
2, 104889, Note_on_c, 0, 49, 77
2, 104985, Note_on_c, 0, 82, 0
2, 104993, Note_on_c, 0, 73, 0
2, 104993, Note_on_c, 0, 77, 0
2, 104994, Note_on_c, 0, 82, 108
2, 104999, Note_on_c, 0, 73, 98
2, 105003, Control_c, 0, 64, 0
2, 105004, Note_on_c, 0, 77, 93
2, 105004, Note_on_c, 0, 56, 77
2, 105010, Note_on_c, 0, 61, 82
2, 105012, Note_on_c, 0, 65, 86
2, 105015, Note_on_c, 0, 37, 0
2, 105047, Note_on_c, 0, 49, 0
2, 105054, Control_c, 0, 64, 127
2, 105231, Note_on_c, 0, 73, 0
2, 105231, Note_on_c, 0, 82, 0
2, 105236, Note_on_c, 0, 82, 102
2, 105236, Note_on_c, 0, 73, 83
2, 105346, Note_on_c, 0, 80, 0
2, 105353, Note_on_c, 0, 49, 82
2, 105357, Note_on_c, 0, 80, 100
2, 105358, Control_c, 0, 64, 0
2, 105384, Note_on_c, 0, 85, 0
2, 105392, Control_c, 0, 64, 127
2, 105580, Note_on_c, 0, 78, 94
2, 105646, Note_on_c, 0, 65, 0
2, 105666, Control_c, 0, 64, 0
2, 105666, Note_on_c, 0, 49, 0
2, 105684, Note_on_c, 0, 56, 0
2, 105692, Note_on_c, 0, 61, 0
2, 105699, Note_on_c, 0, 77, 0
2, 105699, Note_on_c, 0, 80, 0
2, 105705, Note_on_c, 0, 80, 102
2, 105706, Note_on_c, 0, 42, 92
2, 105707, Note_on_c, 0, 73, 0
2, 105712, Note_on_c, 0, 70, 96
2, 105712, Note_on_c, 0, 73, 88
2, 105745, Control_c, 0, 64, 127
2, 105776, Note_on_c, 0, 82, 0
2, 106035, Note_on_c, 0, 82, 103
2, 106043, Note_on_c, 0, 49, 75
2, 106252, Note_on_c, 0, 73, 0
2, 106252, Note_on_c, 0, 78, 0
2, 106252, Note_on_c, 0, 82, 0
2, 106257, Note_on_c, 0, 82, 100
2, 106260, Note_on_c, 0, 70, 0
2, 106263, Note_on_c, 0, 78, 89
2, 106263, Note_on_c, 0, 73, 88
2, 106264, Note_on_c, 0, 54, 76
2, 106264, Note_on_c, 0, 70, 92
2, 106396, Note_on_c, 0, 56, 97
2, 106713, Note_on_c, 0, 42, 0
2, 106723, Note_on_c, 0, 42, 93
2, 106967, Note_on_c, 0, 49, 0
2, 106976, Note_on_c, 0, 49, 87
2, 107084, Note_on_c, 0, 58, 102
2, 107320, Note_on_c, 0, 42, 0
2, 107328, Note_on_c, 0, 54, 0
2, 107331, Note_on_c, 0, 42, 70
2, 107332, Note_on_c, 0, 54, 75
2, 107436, Note_on_c, 0, 61, 104
2, 107642, Note_on_c, 0, 58, 0
2, 107652, Note_on_c, 0, 58, 88
2, 107777, Note_on_c, 0, 66, 105
2, 108006, Note_on_c, 0, 75, 108
2, 108111, Note_on_c, 0, 61, 0
2, 108111, Note_on_c, 0, 78, 0
2, 108120, Note_on_c, 0, 61, 102
2, 108121, Note_on_c, 0, 78, 107
2, 108334, Note_on_c, 0, 80, 0
2, 108340, Note_on_c, 0, 80, 103
2, 108443, Note_on_c, 0, 42, 0
2, 108444, Note_on_c, 0, 49, 0
2, 108444, Note_on_c, 0, 82, 0
2, 108444, Note_on_c, 0, 78, 0
2, 108444, Note_on_c, 0, 73, 0
2, 108444, Note_on_c, 0, 56, 0
2, 108445, Note_on_c, 0, 66, 0
2, 108445, Note_on_c, 0, 58, 0
2, 108445, Control_c, 0, 64, 0
2, 108445, Note_on_c, 0, 54, 0
2, 108445, Note_on_c, 0, 61, 0
2, 108445, Note_on_c, 0, 70, 0
2, 108464, Note_on_c, 0, 80, 0
2, 108470, Note_on_c, 0, 80, 96
2, 108472, Note_on_c, 0, 75, 0
2, 108475, Note_on_c, 0, 47, 94
2, 108476, Note_on_c, 0, 35, 87
2, 108477, Note_on_c, 0, 75, 98
2, 108477, Note_on_c, 0, 71, 92
2, 108503, Control_c, 0, 64, 127
2, 108517, Note_on_c, 0, 35, 0
2, 108684, Note_on_c, 0, 82, 96
2, 108810, Note_on_c, 0, 47, 0
2, 108810, Note_on_c, 0, 82, 0
2, 108814, Note_on_c, 0, 82, 90
2, 108814, Note_on_c, 0, 54, 83
2, 108817, Note_on_c, 0, 59, 83
2, 108817, Note_on_c, 0, 47, 81
2, 109025, Note_on_c, 0, 82, 0
2, 109035, Note_on_c, 0, 82, 99
2, 109155, Note_on_c, 0, 82, 0
2, 109162, Note_on_c, 0, 71, 0
2, 109163, Note_on_c, 0, 54, 0
2, 109163, Note_on_c, 0, 59, 0
2, 109163, Note_on_c, 0, 75, 0
2, 109164, Note_on_c, 0, 82, 98
2, 109167, Note_on_c, 0, 66, 100
2, 109170, Note_on_c, 0, 54, 81
2, 109173, Note_on_c, 0, 75, 92
2, 109173, Note_on_c, 0, 63, 93
2, 109174, Note_on_c, 0, 59, 78
2, 109370, Note_on_c, 0, 82, 0
2, 109381, Note_on_c, 0, 82, 99
2, 109478, Note_on_c, 0, 80, 0
2, 109501, Note_on_c, 0, 59, 0
2, 109509, Note_on_c, 0, 47, 0
2, 109509, Note_on_c, 0, 54, 0
2, 109509, Note_on_c, 0, 82, 0
2, 109512, Note_on_c, 0, 59, 94
2, 109513, Note_on_c, 0, 54, 86
2, 109513, Note_on_c, 0, 82, 102
2, 109516, Note_on_c, 0, 47, 93
2, 109724, Note_on_c, 0, 82, 0
2, 109728, Note_on_c, 0, 82, 95
2, 109734, Note_on_c, 0, 35, 76
2, 109829, Note_on_c, 0, 35, 0
2, 109830, Note_on_c, 0, 47, 0
2, 109830, Note_on_c, 0, 75, 0
2, 109831, Note_on_c, 0, 63, 0
2, 109832, Control_c, 0, 64, 0
2, 109832, Note_on_c, 0, 82, 0
2, 109832, Note_on_c, 0, 66, 0
2, 109832, Note_on_c, 0, 54, 0
2, 109832, Note_on_c, 0, 59, 0
2, 109862, Note_on_c, 0, 80, 102
2, 109866, Note_on_c, 0, 77, 87
2, 109866, Note_on_c, 0, 73, 97
2, 109867, Note_on_c, 0, 49, 92
2, 109867, Note_on_c, 0, 37, 92
2, 109908, Control_c, 0, 64, 127
2, 110092, Note_on_c, 0, 80, 0
2, 110099, Note_on_c, 0, 80, 88
2, 110200, Note_on_c, 0, 80, 0
2, 110211, Note_on_c, 0, 80, 88
2, 110215, Note_on_c, 0, 49, 0
2, 110220, Note_on_c, 0, 53, 72
2, 110220, Note_on_c, 0, 56, 83
2, 110220, Note_on_c, 0, 49, 79
2, 110430, Note_on_c, 0, 80, 0
2, 110441, Note_on_c, 0, 80, 98
2, 110553, Note_on_c, 0, 80, 0
2, 110561, Note_on_c, 0, 73, 0
2, 110563, Note_on_c, 0, 80, 99
2, 110566, Note_on_c, 0, 68, 103
2, 110568, Note_on_c, 0, 77, 0
2, 110572, Note_on_c, 0, 61, 98
2, 110572, Note_on_c, 0, 73, 95
2, 110573, Note_on_c, 0, 77, 89
2, 110573, Note_on_c, 0, 65, 84
2, 110776, Note_on_c, 0, 80, 0
2, 110783, Note_on_c, 0, 80, 90
2, 110906, Note_on_c, 0, 37, 0
2, 110906, Note_on_c, 0, 49, 0
2, 110906, Note_on_c, 0, 80, 0
2, 110912, Note_on_c, 0, 80, 99
2, 110914, Note_on_c, 0, 37, 91
2, 110916, Note_on_c, 0, 49, 86
2, 111137, Note_on_c, 0, 80, 0
2, 111141, Note_on_c, 0, 80, 90
2, 111227, Note_on_c, 0, 68, 0
2, 111227, Note_on_c, 0, 61, 0
2, 111228, Note_on_c, 0, 77, 0
2, 111228, Note_on_c, 0, 49, 0
2, 111229, Note_on_c, 0, 37, 0
2, 111229, Note_on_c, 0, 53, 0
2, 111237, Note_on_c, 0, 56, 0
2, 111242, Control_c, 0, 64, 0
2, 111252, Note_on_c, 0, 65, 0
2, 111252, Note_on_c, 0, 80, 0
2, 111258, Note_on_c, 0, 80, 103
2, 111260, Note_on_c, 0, 73, 0
2, 111263, Note_on_c, 0, 51, 95
2, 111265, Note_on_c, 0, 39, 88
2, 111269, Note_on_c, 0, 73, 93
2, 111271, Note_on_c, 0, 70, 94
2, 111313, Control_c, 0, 64, 127
2, 111492, Note_on_c, 0, 78, 103
2, 111621, Note_on_c, 0, 51, 0
2, 111621, Note_on_c, 0, 70, 0
2, 111625, Note_on_c, 0, 61, 83
2, 111629, Note_on_c, 0, 58, 76
2, 111631, Note_on_c, 0, 51, 77
2, 111631, Note_on_c, 0, 70, 75
2, 111639, Note_on_c, 0, 54, 73
2, 111820, Note_on_c, 0, 78, 0
2, 111830, Note_on_c, 0, 78, 102
2, 111951, Note_on_c, 0, 78, 0
2, 111959, Note_on_c, 0, 54, 0
2, 111959, Note_on_c, 0, 58, 0
2, 111959, Note_on_c, 0, 61, 0
2, 111959, Note_on_c, 0, 70, 0
2, 111959, Note_on_c, 0, 73, 0
2, 111960, Note_on_c, 0, 78, 102
2, 111963, Note_on_c, 0, 66, 94
2, 111965, Note_on_c, 0, 70, 94
2, 111968, Note_on_c, 0, 54, 78
2, 111968, Note_on_c, 0, 58, 84
2, 111969, Note_on_c, 0, 61, 74
2, 111969, Note_on_c, 0, 73, 89
2, 112174, Note_on_c, 0, 78, 0
2, 112183, Note_on_c, 0, 78, 103
2, 112312, Note_on_c, 0, 51, 0
2, 112312, Note_on_c, 0, 58, 0
2, 112312, Note_on_c, 0, 61, 0
2, 112312, Note_on_c, 0, 78, 0
2, 112316, Note_on_c, 0, 61, 86
2, 112318, Note_on_c, 0, 78, 99
2, 112320, Note_on_c, 0, 54, 0
2, 112320, Note_on_c, 0, 70, 0
2, 112320, Note_on_c, 0, 73, 0
2, 112323, Note_on_c, 0, 51, 82
2, 112323, Note_on_c, 0, 58, 77
2, 112324, Note_on_c, 0, 54, 65
2, 112324, Note_on_c, 0, 73, 85
2, 112326, Note_on_c, 0, 70, 85
2, 112535, Note_on_c, 0, 78, 0
2, 112540, Note_on_c, 0, 78, 96
2, 112542, Note_on_c, 0, 70, 0
2, 112550, Note_on_c, 0, 39, 0
2, 112553, Note_on_c, 0, 70, 77
2, 112554, Note_on_c, 0, 39, 71
2, 112562, Note_on_c, 0, 75, 58
2, 112573, Note_on_c, 0, 75, 0
2, 112657, Note_on_c, 0, 78, 0
2, 112665, Note_on_c, 0, 70, 0
2, 112665, Note_on_c, 0, 73, 0
2, 112668, Note_on_c, 0, 78, 99
2, 112673, Control_c, 0, 64, 0
2, 112675, Note_on_c, 0, 70, 88
2, 112676, Note_on_c, 0, 46, 95
2, 112676, Note_on_c, 0, 34, 89
2, 112676, Note_on_c, 0, 73, 82
2, 112681, Note_on_c, 0, 66, 0
2, 112682, Note_on_c, 0, 54, 0
2, 112682, Note_on_c, 0, 39, 0
2, 112682, Note_on_c, 0, 58, 0
2, 112683, Note_on_c, 0, 51, 0
2, 112684, Note_on_c, 0, 61, 0
2, 112711, Note_on_c, 0, 80, 0
2, 112757, Control_c, 0, 64, 127
2, 112896, Note_on_c, 0, 73, 0
2, 112902, Note_on_c, 0, 73, 88
2, 113018, Note_on_c, 0, 46, 0
2, 113018, Note_on_c, 0, 73, 0
2, 113025, Note_on_c, 0, 73, 91
2, 113026, Note_on_c, 0, 34, 0
2, 113029, Note_on_c, 0, 46, 90
2, 113030, Note_on_c, 0, 34, 79
2, 113256, Note_on_c, 0, 70, 0
2, 113256, Note_on_c, 0, 73, 0
2, 113262, Note_on_c, 0, 73, 98
2, 113268, Note_on_c, 0, 70, 84
2, 113269, Note_on_c, 0, 65, 78
2, 113382, Note_on_c, 0, 56, 92
2, 113382, Note_on_c, 0, 53, 86
2, 113383, Note_on_c, 0, 61, 94
2, 113590, Note_on_c, 0, 75, 98
2, 113710, Note_on_c, 0, 46, 0
2, 113710, Note_on_c, 0, 78, 0
2, 113716, Note_on_c, 0, 78, 102
2, 113719, Note_on_c, 0, 46, 89
2, 113721, Control_c, 0, 64, 0
2, 113729, Note_on_c, 0, 34, 0
2, 113748, Control_c, 0, 64, 127
2, 113817, Note_on_c, 0, 53, 0
2, 113826, Note_on_c, 0, 53, 81
2, 113939, Note_on_c, 0, 80, 100
2, 114011, Note_on_c, 0, 75, 0
2, 114012, Note_on_c, 0, 56, 0
2, 114012, Note_on_c, 0, 80, 0
2, 114012, Note_on_c, 0, 78, 0
2, 114012, Note_on_c, 0, 53, 0
2, 114013, Control_c, 0, 64, 0
2, 114024, Note_on_c, 0, 65, 0
2, 114024, Note_on_c, 0, 70, 0
2, 114032, Note_on_c, 0, 46, 0
2, 114032, Note_on_c, 0, 61, 0
2, 114032, Note_on_c, 0, 73, 0
2, 114057, Note_on_c, 0, 80, 97
2, 114063, Note_on_c, 0, 47, 95
2, 114064, Note_on_c, 0, 75, 103
2, 114066, Note_on_c, 0, 35, 88
2, 114067, Note_on_c, 0, 71, 93
2, 114101, Control_c, 0, 64, 127
2, 114269, Note_on_c, 0, 82, 98
2, 114393, Note_on_c, 0, 82, 0
2, 114397, Note_on_c, 0, 82, 100
2, 114405, Note_on_c, 0, 54, 80
2, 114405, Note_on_c, 0, 59, 69
2, 114407, Note_on_c, 0, 51, 84
2, 114616, Note_on_c, 0, 82, 0
2, 114627, Note_on_c, 0, 82, 102
2, 114746, Note_on_c, 0, 54, 0
2, 114746, Note_on_c, 0, 75, 0
2, 114754, Note_on_c, 0, 59, 0
2, 114754, Note_on_c, 0, 71, 0
2, 114755, Note_on_c, 0, 66, 97
2, 114755, Note_on_c, 0, 63, 96
2, 114755, Note_on_c, 0, 54, 82
2, 114758, Note_on_c, 0, 75, 97
2, 114758, Note_on_c, 0, 59, 74
2, 114761, Note_on_c, 0, 71, 84
2, 114961, Note_on_c, 0, 82, 0
2, 114973, Note_on_c, 0, 82, 95
2, 115084, Note_on_c, 0, 59, 0
2, 115084, Note_on_c, 0, 82, 0
2, 115089, Note_on_c, 0, 59, 84
2, 115092, Note_on_c, 0, 47, 0
2, 115092, Note_on_c, 0, 51, 0
2, 115092, Note_on_c, 0, 54, 0
2, 115095, Note_on_c, 0, 82, 105
2, 115097, Note_on_c, 0, 51, 74
2, 115098, Note_on_c, 0, 47, 84
2, 115099, Note_on_c, 0, 54, 75
2, 115299, Note_on_c, 0, 82, 0
2, 115311, Note_on_c, 0, 82, 107
2, 115315, Note_on_c, 0, 47, 0
2, 115322, Note_on_c, 0, 35, 0
2, 115325, Note_on_c, 0, 47, 85
2, 115331, Note_on_c, 0, 35, 76
2, 115411, Control_c, 0, 64, 0
2, 115413, Note_on_c, 0, 71, 0
2, 115413, Note_on_c, 0, 47, 0
2, 115413, Note_on_c, 0, 80, 0
2, 115414, Note_on_c, 0, 75, 0
2, 115414, Note_on_c, 0, 35, 0
2, 115414, Note_on_c, 0, 63, 0
2, 115414, Note_on_c, 0, 51, 0
2, 115415, Note_on_c, 0, 66, 0
2, 115415, Note_on_c, 0, 54, 0
2, 115415, Note_on_c, 0, 82, 0
2, 115430, Note_on_c, 0, 59, 0
2, 115450, Note_on_c, 0, 85, 106
2, 115456, Note_on_c, 0, 77, 91
2, 115457, Note_on_c, 0, 80, 90
2, 115458, Note_on_c, 0, 73, 97
2, 115459, Note_on_c, 0, 37, 91
2, 115462, Note_on_c, 0, 49, 93
2, 115499, Control_c, 0, 64, 127
2, 115799, Note_on_c, 0, 37, 0
2, 115799, Note_on_c, 0, 49, 0
2, 115809, Note_on_c, 0, 37, 81
2, 115809, Note_on_c, 0, 56, 81
2, 115810, Note_on_c, 0, 49, 81
2, 115811, Note_on_c, 0, 53, 69
2, 116052, Note_on_c, 0, 73, 0
2, 116056, Note_on_c, 0, 73, 73
2, 116083, Note_on_c, 0, 77, 0
2, 116094, Note_on_c, 0, 77, 75
2, 116136, Note_on_c, 0, 53, 0
2, 116136, Note_on_c, 0, 56, 0
2, 116140, Note_on_c, 0, 82, 110
2, 116142, Note_on_c, 0, 53, 71
2, 116143, Note_on_c, 0, 56, 86
2, 116143, Note_on_c, 0, 61, 84
2, 116145, Note_on_c, 0, 65, 85
2, 116367, Note_on_c, 0, 82, 0
2, 116371, Note_on_c, 0, 82, 104
2, 116497, Note_on_c, 0, 49, 0
2, 116497, Note_on_c, 0, 80, 0
2, 116502, Note_on_c, 0, 80, 94
2, 116503, Note_on_c, 0, 49, 85
2, 116508, Note_on_c, 0, 53, 0
2, 116526, Note_on_c, 0, 78, 61
2, 116705, Note_on_c, 0, 78, 0
2, 116710, Note_on_c, 0, 78, 94
2, 116835, Note_on_c, 0, 80, 0
2, 116835, Note_on_c, 0, 85, 0
2, 116838, Control_c, 0, 64, 0
2, 116842, Note_on_c, 0, 37, 0
2, 116843, Note_on_c, 0, 82, 0
2, 116843, Note_on_c, 0, 73, 0
2, 116844, Note_on_c, 0, 49, 0
2, 116844, Note_on_c, 0, 80, 101
2, 116845, Note_on_c, 0, 56, 0
2, 116846, Note_on_c, 0, 78, 0
2, 116847, Note_on_c, 0, 42, 89
2, 116853, Note_on_c, 0, 73, 85
2, 116854, Note_on_c, 0, 70, 93
2, 116858, Note_on_c, 0, 61, 0
2, 116858, Note_on_c, 0, 65, 0
2, 116866, Note_on_c, 0, 77, 0
2, 116912, Control_c, 0, 64, 127
2, 117080, Note_on_c, 0, 49, 68
2, 117179, Note_on_c, 0, 82, 104
2, 117258, Note_on_c, 0, 80, 0
2, 117396, Note_on_c, 0, 82, 0
2, 117404, Note_on_c, 0, 70, 0
2, 117404, Note_on_c, 0, 73, 0
2, 117407, Note_on_c, 0, 82, 103
2, 117412, Note_on_c, 0, 70, 97
2, 117413, Note_on_c, 0, 73, 89
2, 117415, Note_on_c, 0, 54, 71
2, 117536, Note_on_c, 0, 56, 86
2, 117749, Note_on_c, 0, 42, 0
2, 117758, Note_on_c, 0, 42, 77
2, 117881, Note_on_c, 0, 59, 92
2, 118095, Note_on_c, 0, 42, 0
2, 118106, Note_on_c, 0, 42, 79
2, 118235, Note_on_c, 0, 58, 97
2, 118464, Note_on_c, 0, 54, 0
2, 118469, Note_on_c, 0, 54, 72
2, 118580, Note_on_c, 0, 61, 99
2, 118801, Note_on_c, 0, 58, 0
2, 118808, Note_on_c, 0, 58, 80
2, 118901, Note_on_c, 0, 59, 0
2, 118944, Note_on_c, 0, 66, 103
2, 118952, Control_c, 0, 64, 0
2, 118970, Control_c, 0, 64, 127
2, 119155, Note_on_c, 0, 61, 0
2, 119164, Note_on_c, 0, 61, 91
2, 119288, Note_on_c, 0, 80, 104
2, 119477, Note_on_c, 0, 54, 0
2, 119477, Note_on_c, 0, 82, 0
2, 119482, Note_on_c, 0, 82, 99
2, 119483, Note_on_c, 0, 54, 70
2, 119539, Note_on_c, 0, 56, 0
2, 119623, Note_on_c, 0, 80, 0
2, 119630, Note_on_c, 0, 80, 98
2, 119632, Note_on_c, 0, 66, 0
2, 119632, Note_on_c, 0, 49, 0
2, 119633, Note_on_c, 0, 61, 0
2, 119633, Note_on_c, 0, 73, 0
2, 119633, Note_on_c, 0, 58, 0
2, 119633, Note_on_c, 0, 82, 0
2, 119634, Note_on_c, 0, 70, 0
2, 119634, Control_c, 0, 64, 0
2, 119635, Note_on_c, 0, 59, 87
2, 119635, Note_on_c, 0, 71, 89
2, 119636, Note_on_c, 0, 47, 78
2, 119639, Note_on_c, 0, 42, 0
2, 119641, Note_on_c, 0, 75, 91
2, 119646, Note_on_c, 0, 54, 0
2, 119731, Control_c, 0, 64, 127
2, 119872, Note_on_c, 0, 78, 95
2, 120004, Note_on_c, 0, 54, 63
2, 120184, Note_on_c, 0, 78, 0
2, 120192, Note_on_c, 0, 78, 100
2, 120330, Note_on_c, 0, 75, 0
2, 120337, Note_on_c, 0, 59, 0
2, 120337, Note_on_c, 0, 71, 0
2, 120339, Note_on_c, 0, 66, 78
2, 120341, Note_on_c, 0, 75, 88
2, 120343, Note_on_c, 0, 71, 75
2, 120343, Note_on_c, 0, 63, 74
2, 120346, Note_on_c, 0, 59, 70
2, 120691, Note_on_c, 0, 54, 0
2, 120700, Note_on_c, 0, 54, 65
2, 121033, Note_on_c, 0, 73, 79
2, 121037, Note_on_c, 0, 68, 80
2, 121038, Note_on_c, 0, 65, 69
2, 121038, Note_on_c, 0, 61, 74
2, 121040, Control_c, 0, 64, 0
2, 121043, Note_on_c, 0, 49, 71
2, 121046, Note_on_c, 0, 59, 0
2, 121046, Note_on_c, 0, 71, 0
2, 121046, Note_on_c, 0, 78, 0
2, 121047, Note_on_c, 0, 54, 0
2, 121047, Note_on_c, 0, 63, 0
2, 121047, Note_on_c, 0, 75, 0
2, 121047, Note_on_c, 0, 66, 0
2, 121052, Note_on_c, 0, 47, 0
2, 121052, Note_on_c, 0, 80, 0
2, 121136, Control_c, 0, 64, 127
2, 121378, Note_on_c, 0, 56, 77
2, 121743, Note_on_c, 0, 61, 0
2, 121743, Note_on_c, 0, 68, 0
2, 121743, Note_on_c, 0, 73, 0
2, 121748, Note_on_c, 0, 73, 83
2, 121750, Note_on_c, 0, 61, 64
2, 121751, Note_on_c, 0, 56, 0
2, 121751, Note_on_c, 0, 65, 0
2, 121753, Note_on_c, 0, 68, 78
2, 121759, Note_on_c, 0, 65, 63
2, 121760, Note_on_c, 0, 56, 56
2, 122089, Note_on_c, 0, 80, 103
2, 122321, Note_on_c, 0, 82, 100
2, 122434, Note_on_c, 0, 80, 0
2, 122442, Control_c, 0, 64, 0
2, 122442, Note_on_c, 0, 73, 0
2, 122444, Note_on_c, 0, 80, 82
2, 122451, Note_on_c, 0, 42, 77
2, 122453, Note_on_c, 0, 73, 86
2, 122453, Note_on_c, 0, 65, 0
2, 122454, Note_on_c, 0, 49, 0
2, 122454, Note_on_c, 0, 82, 0
2, 122455, Note_on_c, 0, 70, 87
2, 122456, Note_on_c, 0, 56, 0
2, 122457, Note_on_c, 0, 68, 0
2, 122472, Note_on_c, 0, 61, 0
2, 122472, Control_c, 0, 64, 127
2, 122695, Note_on_c, 0, 78, 96
2, 122820, Note_on_c, 0, 49, 63
2, 122979, Note_on_c, 0, 78, 0
2, 122989, Note_on_c, 0, 78, 104
2, 122997, Control_c, 0, 64, 0
2, 123002, Note_on_c, 0, 70, 0
2, 123002, Note_on_c, 0, 73, 0
2, 123008, Note_on_c, 0, 70, 81
2, 123013, Note_on_c, 0, 73, 77
2, 123048, Control_c, 0, 64, 127
2, 123056, Note_on_c, 0, 80, 0
2, 123161, Note_on_c, 0, 56, 74
2, 123494, Note_on_c, 0, 49, 0
2, 123503, Note_on_c, 0, 49, 62
2, 123855, Note_on_c, 0, 58, 87
2, 124550, Note_on_c, 0, 54, 91
2, 124569, Control_c, 0, 64, 0
2, 124654, Control_c, 0, 64, 127
2, 124800, Note_on_c, 0, 42, 0
2, 124882, Control_c, 0, 64, 0
2, 124886, Note_on_c, 0, 56, 0
2, 124886, Note_on_c, 0, 49, 0
2, 124886, Note_on_c, 0, 54, 0
2, 124887, Note_on_c, 0, 58, 0
2, 124887, Note_on_c, 0, 78, 0
2, 124887, Note_on_c, 0, 70, 0
2, 124888, Note_on_c, 0, 73, 0
2, 125119, Note_on_c, 0, 68, 104
2, 125122, Control_c, 0, 64, 127
2, 125162, Note_on_c, 0, 71, 85
2, 125215, Note_on_c, 0, 76, 86
2, 125241, Note_on_c, 0, 80, 107
2, 125257, Note_on_c, 0, 52, 106
2, 125260, Note_on_c, 0, 40, 99
2, 125609, Note_on_c, 0, 47, 92
2, 125698, Note_on_c, 0, 52, 0
2, 125709, Note_on_c, 0, 52, 83
2, 125838, Note_on_c, 0, 56, 90
2, 125966, Note_on_c, 0, 64, 107
2, 126304, Note_on_c, 0, 47, 0
2, 126309, Note_on_c, 0, 59, 87
2, 126311, Note_on_c, 0, 78, 106
2, 126318, Note_on_c, 0, 66, 99
2, 126655, Control_c, 0, 64, 0
2, 126663, Note_on_c, 0, 59, 0
2, 126663, Note_on_c, 0, 80, 0
2, 126664, Note_on_c, 0, 76, 0
2, 126664, Note_on_c, 0, 52, 0
2, 126664, Note_on_c, 0, 64, 0
2, 126664, Note_on_c, 0, 56, 0
2, 126664, Note_on_c, 0, 71, 0
2, 126664, Note_on_c, 0, 40, 0
2, 126666, Note_on_c, 0, 78, 0
2, 126666, Note_on_c, 0, 68, 0
2, 126667, Note_on_c, 0, 66, 0
2, 126668, Note_on_c, 0, 77, 104
2, 126670, Note_on_c, 0, 37, 95
2, 126672, Note_on_c, 0, 65, 100
2, 126673, Note_on_c, 0, 68, 103
2, 126677, Note_on_c, 0, 73, 84
2, 126727, Control_c, 0, 64, 127
2, 127017, Note_on_c, 0, 44, 80
2, 127125, Note_on_c, 0, 49, 85
2, 127250, Note_on_c, 0, 53, 83
2, 127368, Note_on_c, 0, 61, 88
2, 127384, Note_on_c, 0, 75, 110
2, 127388, Note_on_c, 0, 65, 0
2, 127395, Note_on_c, 0, 68, 0
2, 127398, Note_on_c, 0, 65, 77
2, 127399, Note_on_c, 0, 68, 96
2, 127699, Note_on_c, 0, 56, 83
2, 127895, Note_on_c, 0, 77, 0
2, 127899, Note_on_c, 0, 77, 95
2, 127964, Note_on_c, 0, 75, 0
2, 127970, Note_on_c, 0, 75, 93
2, 128036, Control_c, 0, 64, 0
2, 128039, Note_on_c, 0, 77, 0
2, 128040, Note_on_c, 0, 68, 0
2, 128040, Note_on_c, 0, 56, 0
2, 128040, Note_on_c, 0, 49, 0
2, 128040, Note_on_c, 0, 75, 0
2, 128040, Note_on_c, 0, 37, 0
2, 128040, Note_on_c, 0, 73, 0
2, 128041, Note_on_c, 0, 61, 0
2, 128047, Note_on_c, 0, 73, 98
2, 128051, Note_on_c, 0, 70, 97
2, 128052, Note_on_c, 0, 42, 84
2, 128053, Note_on_c, 0, 66, 90
2, 128056, Note_on_c, 0, 44, 0
2, 128056, Note_on_c, 0, 53, 0
2, 128064, Note_on_c, 0, 65, 0
2, 128117, Control_c, 0, 64, 127
2, 128383, Note_on_c, 0, 49, 75
2, 128489, Note_on_c, 0, 54, 74
2, 128602, Note_on_c, 0, 61, 80
2, 128742, Note_on_c, 0, 41, 83
2, 128743, Note_on_c, 0, 53, 87
2, 128745, Note_on_c, 0, 59, 93
2, 128753, Note_on_c, 0, 56, 83
2, 128775, Control_c, 0, 64, 0
2, 128782, Note_on_c, 0, 49, 0
2, 128783, Note_on_c, 0, 70, 0
2, 128783, Note_on_c, 0, 61, 0
2, 128786, Note_on_c, 0, 73, 0
2, 128787, Note_on_c, 0, 42, 0
2, 128801, Note_on_c, 0, 54, 0
2, 128801, Note_on_c, 0, 66, 0
2, 128893, Control_c, 0, 64, 127
2, 129074, Note_on_c, 0, 49, 82
2, 129185, Note_on_c, 0, 53, 0
2, 129189, Note_on_c, 0, 53, 78
2, 129292, Note_on_c, 0, 49, 0
2, 129292, Note_on_c, 0, 59, 0
2, 129297, Note_on_c, 0, 49, 73
2, 129298, Note_on_c, 0, 59, 84
2, 129422, Note_on_c, 0, 58, 89
2, 129425, Note_on_c, 0, 39, 84
2, 129427, Note_on_c, 0, 51, 80
2, 129429, Note_on_c, 0, 54, 83
2, 129430, Note_on_c, 0, 41, 0
2, 129432, Note_on_c, 0, 49, 0
2, 129432, Note_on_c, 0, 53, 0
2, 129434, Note_on_c, 0, 59, 0
2, 129435, Control_c, 0, 64, 0
2, 129438, Note_on_c, 0, 56, 0
2, 129523, Control_c, 0, 64, 127
2, 129796, Note_on_c, 0, 46, 74
2, 129876, Note_on_c, 0, 51, 0
2, 129885, Note_on_c, 0, 51, 70
2, 129991, Note_on_c, 0, 46, 0
2, 129991, Note_on_c, 0, 58, 0
2, 130002, Note_on_c, 0, 58, 85
2, 130003, Note_on_c, 0, 46, 77
2, 130101, Note_on_c, 0, 39, 0
2, 130102, Note_on_c, 0, 51, 0
2, 130102, Control_c, 0, 64, 0
2, 130103, Note_on_c, 0, 54, 0
2, 130122, Note_on_c, 0, 56, 92
2, 130125, Note_on_c, 0, 37, 87
2, 130127, Note_on_c, 0, 53, 76
2, 130129, Note_on_c, 0, 46, 0
2, 130129, Note_on_c, 0, 58, 0
2, 130132, Note_on_c, 0, 49, 73
2, 130199, Control_c, 0, 64, 127
2, 130355, Note_on_c, 0, 46, 87
2, 130475, Note_on_c, 0, 49, 0
2, 130475, Note_on_c, 0, 53, 0
2, 130479, Note_on_c, 0, 49, 83
2, 130484, Note_on_c, 0, 53, 91
2, 130598, Note_on_c, 0, 56, 0
2, 130606, Note_on_c, 0, 56, 96
2, 130817, Note_on_c, 0, 37, 0
2, 130817, Note_on_c, 0, 49, 0
2, 130817, Note_on_c, 0, 46, 0
2, 130817, Control_c, 0, 64, 0
2, 130819, Note_on_c, 0, 56, 0
2, 130833, Note_on_c, 0, 47, 96
2, 130835, Note_on_c, 0, 35, 90
2, 130836, Note_on_c, 0, 53, 0
2, 130839, Note_on_c, 0, 75, 108
2, 130841, Note_on_c, 0, 66, 86
2, 130844, Note_on_c, 0, 63, 93
2, 130920, Control_c, 0, 64, 127
2, 130967, Note_on_c, 0, 35, 0
2, 130997, Note_on_c, 0, 66, 0
2, 131174, Note_on_c, 0, 47, 0
2, 131182, Note_on_c, 0, 47, 76
2, 131308, Note_on_c, 0, 51, 71
2, 131417, Note_on_c, 0, 54, 73
2, 131520, Note_on_c, 0, 63, 0
2, 131529, Note_on_c, 0, 63, 99
2, 131531, Note_on_c, 0, 59, 91
2, 131865, Note_on_c, 0, 54, 0
2, 131865, Note_on_c, 0, 75, 0
2, 131871, Note_on_c, 0, 54, 86
2, 131872, Note_on_c, 0, 75, 108
2, 131965, Note_on_c, 0, 51, 0
2, 131976, Note_on_c, 0, 51, 78
2, 132072, Note_on_c, 0, 47, 0
2, 132083, Note_on_c, 0, 47, 88
2, 132207, Control_c, 0, 64, 0
2, 132211, Note_on_c, 0, 47, 0
2, 132212, Note_on_c, 0, 75, 0
2, 132212, Note_on_c, 0, 63, 0
2, 132212, Note_on_c, 0, 59, 0
2, 132213, Note_on_c, 0, 54, 0
2, 132218, Note_on_c, 0, 51, 0
2, 132222, Note_on_c, 0, 77, 103
2, 132226, Note_on_c, 0, 68, 98
2, 132227, Note_on_c, 0, 65, 96
2, 132227, Note_on_c, 0, 37, 96
2, 132233, Note_on_c, 0, 73, 83
2, 132357, Control_c, 0, 64, 127
2, 132547, Note_on_c, 0, 49, 75
2, 132689, Note_on_c, 0, 53, 84
2, 132789, Note_on_c, 0, 56, 86
2, 132902, Note_on_c, 0, 65, 0
2, 132903, Note_on_c, 0, 61, 91
2, 132907, Note_on_c, 0, 65, 93
2, 132917, Note_on_c, 0, 37, 0
2, 133240, Note_on_c, 0, 77, 0
2, 133248, Note_on_c, 0, 56, 0
2, 133248, Note_on_c, 0, 65, 0
2, 133251, Note_on_c, 0, 77, 106
2, 133257, Note_on_c, 0, 65, 93
2, 133258, Note_on_c, 0, 56, 92
2, 133363, Note_on_c, 0, 49, 0
2, 133370, Note_on_c, 0, 49, 74
2, 133440, Note_on_c, 0, 53, 0
2, 133447, Note_on_c, 0, 53, 73
2, 133587, Control_c, 0, 64, 0
2, 133589, Note_on_c, 0, 78, 111
2, 133593, Note_on_c, 0, 73, 0
2, 133594, Note_on_c, 0, 68, 0
2, 133594, Note_on_c, 0, 49, 0
2, 133594, Note_on_c, 0, 56, 0
2, 133595, Note_on_c, 0, 61, 0
2, 133595, Note_on_c, 0, 77, 0
2, 133595, Note_on_c, 0, 65, 0
2, 133596, Note_on_c, 0, 53, 0
2, 133605, Note_on_c, 0, 39, 92
2, 133606, Note_on_c, 0, 66, 95
2, 133607, Note_on_c, 0, 75, 92
2, 133610, Note_on_c, 0, 70, 94
2, 133739, Control_c, 0, 64, 127
2, 133933, Note_on_c, 0, 46, 83
2, 134039, Note_on_c, 0, 51, 71
2, 134138, Note_on_c, 0, 46, 0
2, 134145, Note_on_c, 0, 46, 82
2, 134273, Note_on_c, 0, 53, 82
2, 134384, Note_on_c, 0, 46, 0
2, 134392, Note_on_c, 0, 46, 83
2, 134499, Note_on_c, 0, 53, 0
2, 134503, Note_on_c, 0, 56, 93
2, 134504, Note_on_c, 0, 53, 70
2, 134615, Note_on_c, 0, 39, 0
2, 134620, Note_on_c, 0, 39, 83
2, 134730, Note_on_c, 0, 51, 0
2, 134738, Note_on_c, 0, 59, 90
2, 134740, Note_on_c, 0, 51, 69
2, 134853, Note_on_c, 0, 46, 0
2, 134857, Note_on_c, 0, 46, 91
2, 134945, Note_on_c, 0, 39, 0
2, 134951, Note_on_c, 0, 58, 92
2, 134952, Control_c, 0, 64, 0
2, 134954, Note_on_c, 0, 39, 87
2, 134964, Note_on_c, 0, 56, 0
2, 134964, Note_on_c, 0, 78, 0
2, 134964, Note_on_c, 0, 46, 0
2, 134964, Note_on_c, 0, 66, 0
2, 134965, Note_on_c, 0, 51, 0
2, 134965, Note_on_c, 0, 53, 0
2, 134966, Note_on_c, 0, 70, 0
2, 134968, Note_on_c, 0, 59, 0
2, 135029, Note_on_c, 0, 75, 0
2, 135052, Control_c, 0, 64, 127
2, 135075, Note_on_c, 0, 46, 79
2, 135180, Note_on_c, 0, 51, 77
2, 135181, Note_on_c, 0, 59, 79
2, 135309, Note_on_c, 0, 54, 76
2, 135390, Note_on_c, 0, 51, 0
2, 135400, Note_on_c, 0, 51, 68
2, 135403, Note_on_c, 0, 61, 91
2, 135513, Note_on_c, 0, 54, 0
2, 135517, Note_on_c, 0, 54, 82
2, 135613, Note_on_c, 0, 58, 0
2, 135624, Note_on_c, 0, 58, 88
2, 135624, Note_on_c, 0, 63, 99
2, 135632, Control_c, 0, 64, 0
2, 135674, Control_c, 0, 64, 127
2, 135713, Note_on_c, 0, 59, 0
2, 135736, Note_on_c, 0, 61, 0
2, 135746, Note_on_c, 0, 61, 87
2, 135851, Note_on_c, 0, 58, 0
2, 135856, Note_on_c, 0, 65, 101
2, 135862, Note_on_c, 0, 58, 95
2, 135874, Note_on_c, 0, 39, 0
2, 135959, Note_on_c, 0, 54, 0
2, 135968, Note_on_c, 0, 54, 88
2, 136079, Note_on_c, 0, 66, 97
2, 136089, Note_on_c, 0, 51, 0
2, 136095, Note_on_c, 0, 51, 79
2, 136181, Note_on_c, 0, 46, 0
2, 136193, Note_on_c, 0, 46, 92
2, 136308, Control_c, 0, 64, 0
2, 136309, Note_on_c, 0, 54, 0
2, 136310, Note_on_c, 0, 46, 0
2, 136310, Note_on_c, 0, 51, 0
2, 136310, Note_on_c, 0, 61, 0
2, 136310, Note_on_c, 0, 66, 0
2, 136311, Note_on_c, 0, 58, 0
2, 136316, Note_on_c, 0, 80, 107
2, 136318, Note_on_c, 0, 40, 91
2, 136319, Note_on_c, 0, 68, 105
2, 136320, Note_on_c, 0, 63, 0
2, 136320, Note_on_c, 0, 65, 0
2, 136321, Note_on_c, 0, 71, 91
2, 136396, Control_c, 0, 64, 127
2, 136435, Note_on_c, 0, 47, 81
2, 136539, Note_on_c, 0, 52, 86
2, 136661, Note_on_c, 0, 56, 80
2, 136757, Note_on_c, 0, 52, 0
2, 136769, Note_on_c, 0, 52, 81
2, 136865, Note_on_c, 0, 56, 0
2, 136875, Note_on_c, 0, 56, 90
2, 136995, Note_on_c, 0, 64, 102
2, 137111, Note_on_c, 0, 59, 84
2, 137203, Note_on_c, 0, 56, 0
2, 137214, Note_on_c, 0, 56, 89
2, 137336, Note_on_c, 0, 78, 108
2, 137341, Note_on_c, 0, 40, 0
2, 137345, Note_on_c, 0, 40, 85
2, 137345, Note_on_c, 0, 66, 100
2, 137448, Note_on_c, 0, 52, 0
2, 137455, Note_on_c, 0, 52, 79
2, 137548, Note_on_c, 0, 47, 0
2, 137554, Note_on_c, 0, 47, 91
2, 137680, Note_on_c, 0, 52, 0
2, 137681, Note_on_c, 0, 47, 0
2, 137681, Note_on_c, 0, 59, 0
2, 137681, Note_on_c, 0, 80, 0
2, 137681, Note_on_c, 0, 56, 0
2, 137681, Note_on_c, 0, 71, 0
2, 137681, Note_on_c, 0, 64, 0
2, 137681, Note_on_c, 0, 40, 0
2, 137682, Control_c, 0, 64, 0
2, 137682, Note_on_c, 0, 66, 0
2, 137682, Note_on_c, 0, 78, 0
2, 137687, Note_on_c, 0, 68, 0
2, 137691, Note_on_c, 0, 77, 106
2, 137691, Note_on_c, 0, 37, 95
2, 137697, Note_on_c, 0, 65, 103
2, 137698, Note_on_c, 0, 68, 103
2, 137698, Note_on_c, 0, 73, 90
2, 137756, Control_c, 0, 64, 127
2, 137816, Note_on_c, 0, 44, 82
2, 137935, Note_on_c, 0, 49, 81
2, 138054, Note_on_c, 0, 53, 81
2, 138170, Note_on_c, 0, 49, 0
2, 138175, Note_on_c, 0, 49, 76
2, 138270, Note_on_c, 0, 53, 0
2, 138275, Note_on_c, 0, 53, 83
2, 138393, Note_on_c, 0, 65, 0
2, 138396, Note_on_c, 0, 75, 112
2, 138399, Note_on_c, 0, 61, 92
2, 138402, Note_on_c, 0, 65, 86
2, 138507, Note_on_c, 0, 56, 88
2, 138616, Note_on_c, 0, 49, 0
2, 138620, Note_on_c, 0, 49, 87
2, 138746, Note_on_c, 0, 37, 0
2, 138752, Note_on_c, 0, 37, 73
2, 138785, Note_on_c, 0, 44, 0
2, 138790, Note_on_c, 0, 44, 74
2, 138908, Note_on_c, 0, 77, 0
2, 138913, Note_on_c, 0, 48, 84
2, 138919, Note_on_c, 0, 77, 93
2, 138923, Note_on_c, 0, 48, 0
2, 138977, Note_on_c, 0, 75, 0
2, 138981, Note_on_c, 0, 75, 97
2, 139050, Note_on_c, 0, 37, 0
2, 139050, Note_on_c, 0, 68, 0
2, 139050, Note_on_c, 0, 75, 0
2, 139051, Note_on_c, 0, 56, 0
2, 139051, Note_on_c, 0, 61, 0
2, 139052, Note_on_c, 0, 49, 0
2, 139052, Note_on_c, 0, 44, 0
2, 139052, Note_on_c, 0, 77, 0
2, 139053, Note_on_c, 0, 53, 0
2, 139053, Note_on_c, 0, 65, 0
2, 139059, Control_c, 0, 64, 0
2, 139061, Note_on_c, 0, 73, 0
2, 139072, Note_on_c, 0, 73, 103
2, 139073, Note_on_c, 0, 66, 98
2, 139074, Note_on_c, 0, 70, 97
2, 139075, Note_on_c, 0, 42, 94
2, 139146, Control_c, 0, 64, 127
2, 139195, Note_on_c, 0, 49, 76
2, 139298, Note_on_c, 0, 54, 82
2, 139443, Note_on_c, 0, 58, 76
2, 139447, Note_on_c, 0, 85, 100
2, 139545, Note_on_c, 0, 54, 0
2, 139545, Note_on_c, 0, 73, 0
2, 139549, Note_on_c, 0, 66, 0
2, 139549, Note_on_c, 0, 54, 73
2, 139550, Note_on_c, 0, 73, 86
2, 139668, Note_on_c, 0, 85, 0
2, 139677, Note_on_c, 0, 85, 96
2, 139757, Note_on_c, 0, 58, 0
2, 139757, Note_on_c, 0, 73, 0
2, 139758, Note_on_c, 0, 54, 0
2, 139758, Note_on_c, 0, 85, 0
2, 139759, Note_on_c, 0, 70, 0
2, 139766, Control_c, 0, 64, 0
2, 139768, Note_on_c, 0, 49, 0
2, 139779, Note_on_c, 0, 49, 80
2, 139783, Note_on_c, 0, 41, 84
2, 139783, Note_on_c, 0, 42, 0
2, 139784, Note_on_c, 0, 53, 81
2, 139796, Note_on_c, 0, 83, 101
2, 139803, Note_on_c, 0, 77, 88
2, 139837, Control_c, 0, 64, 127
2, 139910, Note_on_c, 0, 73, 75
2, 140006, Note_on_c, 0, 83, 0
2, 140014, Note_on_c, 0, 83, 96
2, 140056, Note_on_c, 0, 56, 63
2, 140113, Note_on_c, 0, 73, 0
2, 140118, Note_on_c, 0, 73, 90
2, 140163, Note_on_c, 0, 65, 66
2, 140171, Note_on_c, 0, 53, 0
2, 140229, Note_on_c, 0, 77, 0
2, 140239, Note_on_c, 0, 77, 85
2, 140336, Note_on_c, 0, 83, 0
2, 140342, Note_on_c, 0, 83, 101
2, 140441, Note_on_c, 0, 77, 0
2, 140441, Note_on_c, 0, 73, 0
2, 140441, Note_on_c, 0, 49, 0
2, 140441, Control_c, 0, 64, 0
2, 140442, Note_on_c, 0, 83, 0
2, 140442, Note_on_c, 0, 56, 0
2, 140442, Note_on_c, 0, 65, 0
2, 140451, Note_on_c, 0, 41, 0
2, 140458, Note_on_c, 0, 82, 99
2, 140460, Note_on_c, 0, 39, 89
2, 140461, Note_on_c, 0, 51, 86
2, 140464, Note_on_c, 0, 78, 85
2, 140513, Control_c, 0, 64, 127
2, 140580, Note_on_c, 0, 73, 80
2, 140689, Note_on_c, 0, 82, 0
2, 140696, Note_on_c, 0, 82, 95
2, 140697, Note_on_c, 0, 51, 0
2, 140705, Note_on_c, 0, 51, 79
2, 140797, Note_on_c, 0, 73, 0
2, 140802, Note_on_c, 0, 73, 90
2, 140817, Note_on_c, 0, 61, 84
2, 140817, Note_on_c, 0, 58, 79
2, 140823, Note_on_c, 0, 54, 80
2, 140920, Note_on_c, 0, 78, 0
2, 140927, Note_on_c, 0, 78, 79
2, 141012, Note_on_c, 0, 82, 0
2, 141023, Note_on_c, 0, 82, 97
2, 141100, Control_c, 0, 64, 0
2, 141101, Note_on_c, 0, 78, 0
2, 141101, Note_on_c, 0, 73, 0
2, 141101, Note_on_c, 0, 51, 0
2, 141101, Note_on_c, 0, 54, 0
2, 141101, Note_on_c, 0, 58, 0
2, 141102, Note_on_c, 0, 61, 0
2, 141112, Note_on_c, 0, 39, 0
2, 141139, Note_on_c, 0, 80, 98
2, 141141, Note_on_c, 0, 37, 88
2, 141146, Note_on_c, 0, 77, 81
2, 141173, Control_c, 0, 64, 127
2, 141322, Note_on_c, 0, 49, 81
2, 141363, Note_on_c, 0, 73, 94
2, 141465, Note_on_c, 0, 73, 0
2, 141472, Note_on_c, 0, 61, 94
2, 141472, Note_on_c, 0, 58, 90
2, 141475, Note_on_c, 0, 53, 86
2, 141475, Note_on_c, 0, 73, 93
2, 141702, Note_on_c, 0, 70, 88
2, 141772, Note_on_c, 0, 82, 0
2, 141773, Control_c, 0, 64, 0
2, 141773, Note_on_c, 0, 49, 0
2, 141774, Note_on_c, 0, 61, 0
2, 141774, Note_on_c, 0, 80, 0
2, 141774, Note_on_c, 0, 53, 0
2, 141775, Note_on_c, 0, 77, 0
2, 141775, Note_on_c, 0, 58, 0
2, 141777, Note_on_c, 0, 70, 0
2, 141780, Note_on_c, 0, 37, 0
2, 141803, Note_on_c, 0, 73, 0
2, 141814, Note_on_c, 0, 73, 103
2, 141822, Note_on_c, 0, 47, 93
2, 141822, Note_on_c, 0, 35, 88
2, 141864, Control_c, 0, 64, 127
2, 142029, Note_on_c, 0, 75, 99
2, 142156, Note_on_c, 0, 47, 0
2, 142156, Note_on_c, 0, 75, 0
2, 142162, Note_on_c, 0, 75, 100
2, 142167, Note_on_c, 0, 47, 72
2, 142379, Note_on_c, 0, 75, 0
2, 142389, Note_on_c, 0, 75, 107
2, 142403, Note_on_c, 0, 66, 89
2, 142405, Note_on_c, 0, 51, 82
2, 142522, Note_on_c, 0, 54, 93
2, 142522, Note_on_c, 0, 63, 95
2, 142732, Note_on_c, 0, 75, 0
2, 142740, Note_on_c, 0, 75, 103
2, 142863, Note_on_c, 0, 75, 0
2, 142868, Note_on_c, 0, 75, 98
2, 142871, Note_on_c, 0, 47, 0
2, 142874, Note_on_c, 0, 59, 94
2, 142878, Note_on_c, 0, 47, 79
2, 143070, Note_on_c, 0, 73, 0
2, 143080, Note_on_c, 0, 73, 97
2, 143153, Control_c, 0, 64, 0
2, 143153, Note_on_c, 0, 63, 0
2, 143154, Note_on_c, 0, 54, 0
2, 143154, Note_on_c, 0, 51, 0
2, 143155, Note_on_c, 0, 35, 0
2, 143155, Note_on_c, 0, 47, 0
2, 143155, Note_on_c, 0, 59, 0
2, 143155, Note_on_c, 0, 75, 0
2, 143156, Note_on_c, 0, 66, 0
2, 143158, Note_on_c, 0, 73, 0
2, 143214, Note_on_c, 0, 37, 91
2, 143215, Note_on_c, 0, 49, 95
2, 143217, Note_on_c, 0, 75, 109
2, 143255, Control_c, 0, 64, 127
2, 143444, Note_on_c, 0, 77, 99
2, 143554, Note_on_c, 0, 77, 0
2, 143559, Note_on_c, 0, 77, 98
2, 143574, Note_on_c, 0, 65, 73
2, 143574, Note_on_c, 0, 73, 70
2, 143574, Note_on_c, 0, 68, 80
2, 143577, Note_on_c, 0, 56, 69
2, 143792, Note_on_c, 0, 77, 0
2, 143796, Note_on_c, 0, 37, 0
2, 143796, Note_on_c, 0, 75, 0
2, 143796, Control_c, 0, 64, 0
2, 143797, Note_on_c, 0, 77, 102
2, 143800, Note_on_c, 0, 65, 0
2, 143800, Note_on_c, 0, 68, 0
2, 143800, Note_on_c, 0, 73, 0
2, 143805, Note_on_c, 0, 68, 89
2, 143807, Note_on_c, 0, 65, 93
2, 143808, Note_on_c, 0, 49, 0
2, 143809, Note_on_c, 0, 73, 88
2, 143812, Note_on_c, 0, 49, 87
2, 143838, Note_on_c, 0, 56, 0
2, 143838, Control_c, 0, 64, 127
2, 143915, Note_on_c, 0, 49, 0
2, 143923, Note_on_c, 0, 65, 0
2, 143925, Note_on_c, 0, 61, 100
2, 143925, Note_on_c, 0, 49, 86
2, 143925, Note_on_c, 0, 56, 96
2, 143927, Note_on_c, 0, 65, 90
2, 144115, Note_on_c, 0, 77, 0
2, 144124, Note_on_c, 0, 77, 94
2, 144245, Note_on_c, 0, 49, 0
2, 144245, Note_on_c, 0, 77, 0
2, 144253, Note_on_c, 0, 77, 98
2, 144256, Note_on_c, 0, 49, 92
2, 144475, Note_on_c, 0, 75, 91
2, 144539, Note_on_c, 0, 49, 0
2, 144539, Note_on_c, 0, 56, 0
2, 144539, Note_on_c, 0, 68, 0
2, 144539, Note_on_c, 0, 73, 0
2, 144540, Note_on_c, 0, 77, 0
2, 144540, Note_on_c, 0, 65, 0
2, 144540, Control_c, 0, 64, 0
2, 144540, Note_on_c, 0, 61, 0
2, 144541, Note_on_c, 0, 75, 0
2, 144590, Note_on_c, 0, 77, 98
2, 144596, Note_on_c, 0, 73, 97
2, 144597, Note_on_c, 0, 39, 81
2, 144600, Note_on_c, 0, 46, 88
2, 144601, Note_on_c, 0, 70, 94
2, 144603, Note_on_c, 0, 54, 85
2, 144637, Control_c, 0, 64, 127
2, 144804, Note_on_c, 0, 78, 98
2, 144921, Note_on_c, 0, 78, 0
2, 144925, Note_on_c, 0, 78, 96
2, 144944, Note_on_c, 0, 70, 0
2, 144949, Note_on_c, 0, 70, 75
2, 145144, Note_on_c, 0, 78, 0
2, 145152, Note_on_c, 0, 70, 0
2, 145152, Note_on_c, 0, 73, 0
2, 145155, Note_on_c, 0, 78, 104
2, 145156, Note_on_c, 0, 70, 95
2, 145161, Note_on_c, 0, 73, 92
2, 145169, Note_on_c, 0, 51, 83
2, 145297, Note_on_c, 0, 54, 0
2, 145305, Note_on_c, 0, 61, 96
2, 145308, Note_on_c, 0, 58, 93
2, 145309, Note_on_c, 0, 54, 84
2, 145525, Note_on_c, 0, 94, 107
2, 145526, Note_on_c, 0, 82, 99
2, 145528, Note_on_c, 0, 85, 83
2, 145620, Note_on_c, 0, 51, 0
2, 145631, Note_on_c, 0, 51, 88
2, 145634, Note_on_c, 0, 92, 106
2, 145637, Note_on_c, 0, 80, 106
2, 145812, Note_on_c, 0, 78, 0
2, 145817, Note_on_c, 0, 90, 111
2, 145819, Note_on_c, 0, 78, 104
2, 145887, Control_c, 0, 64, 0
2, 145889, Note_on_c, 0, 77, 0
2, 145889, Note_on_c, 0, 80, 0
2, 145889, Note_on_c, 0, 46, 0
2, 145890, Note_on_c, 0, 39, 0
2, 145891, Note_on_c, 0, 78, 0
2, 145891, Note_on_c, 0, 58, 0
2, 145891, Note_on_c, 0, 73, 0
2, 145891, Note_on_c, 0, 51, 0
2, 145891, Note_on_c, 0, 54, 0
2, 145891, Note_on_c, 0, 70, 0
2, 145891, Note_on_c, 0, 82, 0
2, 145891, Note_on_c, 0, 94, 0
2, 145891, Note_on_c, 0, 92, 0
2, 145892, Note_on_c, 0, 61, 0
2, 145892, Note_on_c, 0, 90, 0
2, 145904, Note_on_c, 0, 85, 0
2, 145961, Note_on_c, 0, 52, 99
2, 145961, Note_on_c, 0, 47, 90
2, 145962, Note_on_c, 0, 92, 109
2, 145963, Note_on_c, 0, 40, 89
2, 145964, Note_on_c, 0, 80, 104
2, 145989, Control_c, 0, 64, 127
2, 146196, Note_on_c, 0, 80, 0
2, 146196, Note_on_c, 0, 92, 0
2, 146201, Note_on_c, 0, 92, 107
2, 146202, Note_on_c, 0, 80, 105
2, 146357, Note_on_c, 0, 52, 0
2, 146362, Note_on_c, 0, 52, 85
2, 146511, Note_on_c, 0, 64, 89
2, 146515, Note_on_c, 0, 56, 85
2, 146516, Note_on_c, 0, 59, 85
2, 146517, Note_on_c, 0, 88, 88
2, 146524, Note_on_c, 0, 94, 107
2, 146524, Note_on_c, 0, 82, 107
2, 146549, Note_on_c, 0, 92, 0
2, 146554, Note_on_c, 0, 92, 48
2, 146833, Note_on_c, 0, 52, 0
2, 146837, Note_on_c, 0, 52, 67
2, 146920, Control_c, 0, 64, 0
2, 147010, Note_on_c, 0, 56, 0
2, 147010, Note_on_c, 0, 80, 0
2, 147021, Note_on_c, 0, 56, 71
2, 147021, Note_on_c, 0, 52, 0
2, 147021, Note_on_c, 0, 80, 96
2, 147022, Note_on_c, 0, 92, 0
2, 147023, Note_on_c, 0, 40, 0
2, 147023, Note_on_c, 0, 64, 0
2, 147033, Note_on_c, 0, 47, 0
2, 147033, Note_on_c, 0, 88, 0
2, 147035, Note_on_c, 0, 82, 0
2, 147064, Note_on_c, 0, 59, 0
2, 147072, Note_on_c, 0, 94, 0
2, 147252, Note_on_c, 0, 82, 87
2, 147269, Note_on_c, 0, 80, 0
2, 147348, Note_on_c, 0, 56, 0
2, 147379, Note_on_c, 0, 80, 97
2, 147392, Note_on_c, 0, 47, 68
2, 147397, Note_on_c, 0, 59, 76
2, 147398, Note_on_c, 0, 71, 73
2, 147399, Note_on_c, 0, 75, 76
2, 147430, Note_on_c, 0, 82, 0
2, 147713, Note_on_c, 0, 82, 86
2, 147786, Control_c, 0, 64, 127
2, 147939, Note_on_c, 0, 75, 0
2, 147946, Note_on_c, 0, 75, 90
2, 148080, Note_on_c, 0, 66, 71
2, 148086, Note_on_c, 0, 63, 57
2, 148208, Note_on_c, 0, 80, 0
2, 148410, Note_on_c, 0, 80, 96
2, 148638, Note_on_c, 0, 82, 0
2, 148644, Note_on_c, 0, 82, 86
2, 148738, Note_on_c, 0, 80, 0
2, 148749, Note_on_c, 0, 80, 88
2, 148764, Note_on_c, 0, 73, 71
2, 148782, Note_on_c, 0, 61, 72
2, 148789, Note_on_c, 0, 49, 61
2, 148790, Note_on_c, 0, 56, 68
2, 148791, Control_c, 0, 64, 0
2, 148792, Note_on_c, 0, 47, 0
2, 148797, Note_on_c, 0, 59, 0
2, 148797, Note_on_c, 0, 66, 0
2, 148801, Note_on_c, 0, 63, 0
2, 148801, Note_on_c, 0, 75, 0
2, 148815, Note_on_c, 0, 71, 0
2, 148999, Control_c, 0, 64, 127
2, 149018, Note_on_c, 0, 78, 85
2, 149337, Note_on_c, 0, 75, 91
2, 149483, Note_on_c, 0, 61, 0
2, 149488, Note_on_c, 0, 61, 60
2, 149494, Note_on_c, 0, 65, 57
2, 149706, Note_on_c, 0, 75, 0
2, 149713, Note_on_c, 0, 75, 85
2, 149836, Note_on_c, 0, 80, 0
2, 149841, Note_on_c, 0, 80, 90
2, 150174, Note_on_c, 0, 78, 0
2, 150185, Note_on_c, 0, 78, 99
2, 150190, Note_on_c, 0, 82, 0
2, 150194, Note_on_c, 0, 49, 0
2, 150194, Note_on_c, 0, 61, 0
2, 150194, Note_on_c, 0, 56, 0
2, 150194, Note_on_c, 0, 75, 0
2, 150194, Control_c, 0, 64, 0
2, 150195, Note_on_c, 0, 80, 0
2, 150195, Note_on_c, 0, 42, 61
2, 150195, Note_on_c, 0, 65, 0
2, 150197, Note_on_c, 0, 73, 0
2, 150203, Note_on_c, 0, 73, 76
2, 150207, Note_on_c, 0, 70, 83
2, 150266, Control_c, 0, 64, 127
2, 150544, Note_on_c, 0, 49, 61
2, 150886, Note_on_c, 0, 68, 71
2, 150891, Note_on_c, 0, 65, 56
2, 151268, Note_on_c, 0, 49, 0
2, 151540, Note_on_c, 0, 65, 0
2, 151540, Note_on_c, 0, 68, 0
2, 151540, Note_on_c, 0, 73, 0
2, 151543, Control_c, 0, 64, 0
2, 151564, Note_on_c, 0, 42, 0
2, 151564, Note_on_c, 0, 70, 0
2, 151564, Note_on_c, 0, 78, 0
2, 151574, Note_on_c, 0, 42, 51
2, 151576, Note_on_c, 0, 70, 72
2, 151576, Note_on_c, 0, 54, 49
2, 151579, Note_on_c, 0, 66, 53
2, 151664, Control_c, 0, 64, 127
2, 152294, Note_on_c, 0, 66, 0
2, 152305, Note_on_c, 0, 66, 53
2, 152306, Note_on_c, 0, 58, 47
2, 152306, Note_on_c, 0, 61, 45
2, 152537, Note_on_c, 0, 75, 80
2, 152628, Note_on_c, 0, 58, 0
2, 152628, Note_on_c, 0, 70, 0
2, 152628, Note_on_c, 0, 66, 0
2, 152628, Note_on_c, 0, 61, 0
2, 152630, Control_c, 0, 64, 0
2, 152634, Note_on_c, 0, 54, 0
2, 152652, Note_on_c, 0, 78, 86
2, 152655, Note_on_c, 0, 42, 0
2, 152675, Note_on_c, 0, 75, 0
2, 152895, Note_on_c, 0, 80, 80
2, 152942, Note_on_c, 0, 78, 0
2, 152950, Note_on_c, 0, 80, 0
2, 153011, Note_on_c, 0, 80, 80
2, 153044, Note_on_c, 0, 71, 55
2, 153044, Note_on_c, 0, 75, 73
2, 153231, Control_c, 0, 64, 127
2, 153259, Note_on_c, 0, 82, 83
2, 153384, Note_on_c, 0, 82, 0
2, 153389, Note_on_c, 0, 82, 79
2, 153592, Note_on_c, 0, 82, 0
2, 153598, Note_on_c, 0, 82, 86
2, 153738, Note_on_c, 0, 82, 0
2, 153747, Note_on_c, 0, 82, 80
2, 153960, Note_on_c, 0, 82, 0
2, 153971, Note_on_c, 0, 82, 90
2, 154291, Note_on_c, 0, 82, 0
2, 154297, Note_on_c, 0, 82, 90
2, 154432, Note_on_c, 0, 75, 0
2, 154434, Control_c, 0, 64, 0
2, 154452, Note_on_c, 0, 71, 0
2, 154454, Note_on_c, 0, 73, 75
2, 154475, Note_on_c, 0, 80, 0
2, 154583, Control_c, 0, 64, 127
2, 154665, Note_on_c, 0, 80, 77
2, 154782, Note_on_c, 0, 80, 0
2, 154788, Note_on_c, 0, 80, 76
2, 154859, Note_on_c, 0, 82, 0
2, 154990, Note_on_c, 0, 80, 0
2, 154999, Note_on_c, 0, 80, 77
2, 155120, Note_on_c, 0, 80, 0
2, 155126, Note_on_c, 0, 80, 80
2, 155351, Note_on_c, 0, 80, 0
2, 155357, Note_on_c, 0, 80, 80
2, 155696, Note_on_c, 0, 80, 0
2, 155702, Note_on_c, 0, 80, 89
2, 155811, Note_on_c, 0, 73, 0
2, 155834, Control_c, 0, 64, 0
2, 155855, Note_on_c, 0, 75, 75
2, 155919, Control_c, 0, 64, 127
2, 156070, Note_on_c, 0, 78, 74
2, 156188, Note_on_c, 0, 78, 0
2, 156198, Note_on_c, 0, 78, 87
2, 156410, Note_on_c, 0, 78, 0
2, 156415, Note_on_c, 0, 78, 78
2, 156518, Note_on_c, 0, 78, 0
2, 156529, Note_on_c, 0, 78, 84
2, 156625, Note_on_c, 0, 80, 0
2, 156787, Note_on_c, 0, 78, 0
2, 156792, Note_on_c, 0, 78, 83
2, 157102, Note_on_c, 0, 78, 0
2, 157108, Note_on_c, 0, 78, 92
2, 157221, Note_on_c, 0, 75, 0
2, 157229, Control_c, 0, 64, 0
2, 157252, Note_on_c, 0, 70, 71
2, 157386, Control_c, 0, 64, 127
2, 157470, Note_on_c, 0, 73, 76
2, 157570, Note_on_c, 0, 73, 0
2, 157581, Note_on_c, 0, 73, 80
2, 157831, Note_on_c, 0, 73, 0
2, 157839, Note_on_c, 0, 73, 78
2, 158204, Note_on_c, 0, 75, 83
2, 158315, Note_on_c, 0, 78, 0
2, 158324, Note_on_c, 0, 78, 91
2, 158338, Note_on_c, 0, 70, 0
2, 158543, Note_on_c, 0, 80, 77
2, 158638, Control_c, 0, 64, 0
2, 158640, Note_on_c, 0, 75, 0
2, 158641, Note_on_c, 0, 78, 0
2, 158641, Note_on_c, 0, 73, 0
2, 158661, Note_on_c, 0, 80, 0
2, 158667, Note_on_c, 0, 80, 79
2, 158680, Note_on_c, 0, 71, 64
2, 158702, Note_on_c, 0, 75, 68
2, 158822, Control_c, 0, 64, 127
2, 158895, Note_on_c, 0, 82, 79
2, 159014, Note_on_c, 0, 82, 0
2, 159019, Note_on_c, 0, 82, 85
2, 159237, Note_on_c, 0, 82, 0
2, 159241, Note_on_c, 0, 82, 78
2, 159367, Note_on_c, 0, 82, 0
2, 159371, Note_on_c, 0, 82, 81
2, 159590, Note_on_c, 0, 82, 0
2, 159595, Note_on_c, 0, 82, 84
2, 159736, Note_on_c, 0, 82, 0
2, 159743, Note_on_c, 0, 82, 80
2, 159943, Note_on_c, 0, 85, 94
2, 160086, Note_on_c, 0, 73, 69
2, 160091, Note_on_c, 0, 75, 0
2, 160092, Control_c, 0, 64, 0
2, 160092, Note_on_c, 0, 82, 0
2, 160112, Note_on_c, 0, 71, 0
2, 160204, Control_c, 0, 64, 127
2, 160220, Note_on_c, 0, 80, 0
2, 160294, Note_on_c, 0, 82, 78
2, 160412, Note_on_c, 0, 82, 0
2, 160417, Note_on_c, 0, 82, 85
2, 160604, Note_on_c, 0, 85, 0
2, 160734, Note_on_c, 0, 82, 0
2, 160745, Note_on_c, 0, 82, 92
2, 160972, Note_on_c, 0, 82, 0
2, 160980, Note_on_c, 0, 82, 81
2, 161094, Note_on_c, 0, 80, 91
2, 161323, Note_on_c, 0, 78, 74
2, 161438, Control_c, 0, 64, 0
2, 161439, Note_on_c, 0, 82, 0
2, 161441, Note_on_c, 0, 78, 0
2, 161441, Note_on_c, 0, 80, 0
2, 161441, Note_on_c, 0, 73, 0
2, 161445, Note_on_c, 0, 80, 87
2, 161471, Note_on_c, 0, 66, 59
2, 161571, Control_c, 0, 64, 127
2, 161789, Note_on_c, 0, 82, 86
2, 161986, Note_on_c, 0, 82, 0
2, 161995, Note_on_c, 0, 82, 80
2, 162150, Note_on_c, 0, 68, 74
2, 162872, Note_on_c, 0, 70, 80
2, 163169, Note_on_c, 0, 80, 0
2, 163571, Note_on_c, 0, 73, 63
2, 163805, Note_on_c, 0, 75, 80
2, 163938, Note_on_c, 0, 78, 83
2, 164129, Note_on_c, 0, 80, 77
2, 164258, Control_c, 0, 64, 0
2, 164259, Note_on_c, 0, 68, 0
2, 164259, Note_on_c, 0, 70, 0
2, 164259, Note_on_c, 0, 80, 0
2, 164261, Note_on_c, 0, 73, 0
2, 164262, Note_on_c, 0, 78, 0
2, 164265, Note_on_c, 0, 80, 74
2, 164267, Note_on_c, 0, 82, 0
2, 164282, Note_on_c, 0, 66, 0
2, 164282, Note_on_c, 0, 75, 0
2, 164286, Note_on_c, 0, 59, 63
2, 164288, Note_on_c, 0, 71, 69
2, 164289, Note_on_c, 0, 66, 66
2, 164291, Note_on_c, 0, 75, 72
2, 164352, Control_c, 0, 64, 127
2, 164509, Note_on_c, 0, 82, 70
2, 164613, Note_on_c, 0, 82, 0
2, 164617, Note_on_c, 0, 82, 88
2, 164820, Note_on_c, 0, 82, 0
2, 164824, Note_on_c, 0, 82, 76
2, 164958, Note_on_c, 0, 82, 0
2, 164966, Note_on_c, 0, 82, 89
2, 164967, Note_on_c, 0, 90, 87
2, 164981, Note_on_c, 0, 71, 0
2, 164981, Note_on_c, 0, 80, 0
2, 164986, Note_on_c, 0, 71, 67
2, 164989, Note_on_c, 0, 75, 0
2, 164995, Note_on_c, 0, 75, 71
2, 165189, Note_on_c, 0, 82, 0
2, 165199, Note_on_c, 0, 82, 87
2, 165296, Note_on_c, 0, 82, 0
2, 165303, Note_on_c, 0, 82, 83
2, 165542, Note_on_c, 0, 82, 0
2, 165550, Note_on_c, 0, 82, 92
2, 165570, Note_on_c, 0, 73, 68
2, 165589, Note_on_c, 0, 77, 60
2, 165657, Note_on_c, 0, 90, 0
2, 165670, Control_c, 0, 64, 0
2, 165670, Note_on_c, 0, 59, 0
2, 165672, Note_on_c, 0, 71, 0
2, 165673, Note_on_c, 0, 82, 0
2, 165673, Note_on_c, 0, 66, 0
2, 165673, Note_on_c, 0, 75, 0
2, 165680, Note_on_c, 0, 80, 81
2, 165693, Note_on_c, 0, 61, 68
2, 165696, Note_on_c, 0, 68, 75
2, 165698, Note_on_c, 0, 65, 58
2, 165803, Control_c, 0, 64, 127
2, 165903, Note_on_c, 0, 80, 0
2, 165907, Note_on_c, 0, 80, 77
2, 166026, Note_on_c, 0, 80, 0
2, 166036, Note_on_c, 0, 80, 83
2, 166256, Note_on_c, 0, 80, 0
2, 166263, Note_on_c, 0, 80, 79
2, 166379, Note_on_c, 0, 80, 0
2, 166384, Note_on_c, 0, 80, 88
2, 166387, Note_on_c, 0, 73, 0
2, 166391, Note_on_c, 0, 89, 90
2, 166398, Note_on_c, 0, 73, 80
2, 166609, Note_on_c, 0, 80, 0
2, 166618, Note_on_c, 0, 80, 77
2, 166732, Note_on_c, 0, 80, 0
2, 166744, Note_on_c, 0, 80, 87
2, 166963, Note_on_c, 0, 80, 0
2, 166972, Note_on_c, 0, 80, 80
2, 167086, Note_on_c, 0, 80, 0
2, 167094, Note_on_c, 0, 80, 89
2, 167100, Control_c, 0, 64, 0
2, 167104, Note_on_c, 0, 68, 0
2, 167104, Note_on_c, 0, 61, 0
2, 167104, Note_on_c, 0, 65, 0
2, 167105, Note_on_c, 0, 89, 0
2, 167116, Note_on_c, 0, 77, 0
2, 167124, Note_on_c, 0, 73, 0
2, 167124, Note_on_c, 0, 70, 74
2, 167128, Note_on_c, 0, 66, 67
2, 167131, Note_on_c, 0, 73, 66
2, 167134, Note_on_c, 0, 63, 59
2, 167224, Control_c, 0, 64, 127
2, 167340, Note_on_c, 0, 78, 77
2, 167447, Note_on_c, 0, 78, 0
2, 167453, Note_on_c, 0, 78, 80
2, 167662, Note_on_c, 0, 78, 0
2, 167667, Note_on_c, 0, 78, 81
2, 167784, Note_on_c, 0, 80, 0
2, 167800, Note_on_c, 0, 78, 0
2, 167808, Note_on_c, 0, 70, 0
2, 167810, Note_on_c, 0, 78, 91
2, 167815, Note_on_c, 0, 73, 0
2, 167819, Note_on_c, 0, 70, 82
2, 167821, Note_on_c, 0, 73, 71
2, 167827, Note_on_c, 0, 90, 76
2, 167831, Control_c, 0, 64, 0
2, 167835, Note_on_c, 0, 87, 65
2, 167877, Control_c, 0, 64, 127
2, 168038, Note_on_c, 0, 78, 0
2, 168042, Note_on_c, 0, 78, 84
2, 168153, Note_on_c, 0, 78, 0
2, 168161, Note_on_c, 0, 78, 86
2, 168368, Note_on_c, 0, 78, 0
2, 168375, Note_on_c, 0, 78, 87
2, 168506, Note_on_c, 0, 78, 0
2, 168516, Control_c, 0, 64, 0
2, 168517, Note_on_c, 0, 73, 0
2, 168518, Note_on_c, 0, 78, 87
2, 168518, Note_on_c, 0, 63, 0
2, 168518, Note_on_c, 0, 66, 0
2, 168519, Note_on_c, 0, 70, 0
2, 168526, Note_on_c, 0, 68, 71
2, 168531, Note_on_c, 0, 65, 54
2, 168531, Note_on_c, 0, 58, 58
2, 168552, Note_on_c, 0, 87, 0
2, 168606, Note_on_c, 0, 90, 0
2, 168629, Control_c, 0, 64, 127
2, 168741, Note_on_c, 0, 73, 80
2, 168867, Note_on_c, 0, 73, 0
2, 168876, Note_on_c, 0, 73, 84
2, 169082, Note_on_c, 0, 73, 0
2, 169093, Note_on_c, 0, 73, 84
2, 169231, Note_on_c, 0, 89, 89
2, 169237, Note_on_c, 0, 85, 76
2, 169237, Note_on_c, 0, 82, 72
2, 169463, Note_on_c, 0, 75, 83
2, 169574, Note_on_c, 0, 78, 0
2, 169585, Note_on_c, 0, 78, 96
2, 169800, Note_on_c, 0, 80, 85
2, 169909, Note_on_c, 0, 68, 0
2, 169909, Note_on_c, 0, 85, 0
2, 169909, Note_on_c, 0, 82, 0
2, 169909, Note_on_c, 0, 58, 0
2, 169909, Note_on_c, 0, 65, 0
2, 169909, Note_on_c, 0, 73, 0
2, 169911, Note_on_c, 0, 89, 0
2, 169911, Control_c, 0, 64, 0
2, 169920, Note_on_c, 0, 78, 0
2, 169920, Note_on_c, 0, 80, 0
2, 169931, Note_on_c, 0, 80, 84
2, 169935, Note_on_c, 0, 75, 0
2, 169938, Note_on_c, 0, 59, 68
2, 169944, Note_on_c, 0, 75, 86
2, 169946, Note_on_c, 0, 71, 79
2, 169946, Note_on_c, 0, 66, 68
2, 169947, Note_on_c, 0, 63, 66
2, 170019, Note_on_c, 0, 59, 0
2, 170027, Control_c, 0, 64, 127
2, 170175, Note_on_c, 0, 82, 78
2, 170273, Note_on_c, 0, 82, 0
2, 170282, Note_on_c, 0, 82, 100
2, 170496, Note_on_c, 0, 82, 0
2, 170501, Note_on_c, 0, 82, 78
2, 170634, Note_on_c, 0, 82, 0
2, 170638, Note_on_c, 0, 82, 99
2, 170652, Note_on_c, 0, 90, 86
2, 170661, Note_on_c, 0, 87, 79
2, 170833, Note_on_c, 0, 82, 0
2, 170844, Note_on_c, 0, 82, 80
2, 170964, Note_on_c, 0, 82, 0
2, 170971, Note_on_c, 0, 82, 86
2, 171191, Note_on_c, 0, 85, 100
2, 171202, Note_on_c, 0, 80, 0
2, 171213, Note_on_c, 0, 80, 78
2, 171214, Note_on_c, 0, 77, 75
2, 171215, Note_on_c, 0, 73, 71
2, 171336, Note_on_c, 0, 82, 0
2, 171336, Note_on_c, 0, 87, 0
2, 171337, Note_on_c, 0, 66, 0
2, 171337, Note_on_c, 0, 75, 0
2, 171338, Note_on_c, 0, 90, 0
2, 171338, Control_c, 0, 64, 0
2, 171341, Note_on_c, 0, 73, 0
2, 171348, Note_on_c, 0, 63, 0
2, 171348, Note_on_c, 0, 71, 0
2, 171352, Note_on_c, 0, 61, 71
2, 171359, Note_on_c, 0, 65, 69
2, 171456, Control_c, 0, 64, 127
2, 171549, Note_on_c, 0, 82, 81
2, 171671, Note_on_c, 0, 82, 0
2, 171680, Note_on_c, 0, 82, 90
2, 171893, Note_on_c, 0, 82, 0
2, 171903, Note_on_c, 0, 82, 91
2, 172008, Note_on_c, 0, 82, 0
2, 172015, Note_on_c, 0, 82, 84
2, 172027, Control_c, 0, 64, 0
2, 172037, Note_on_c, 0, 92, 94
2, 172039, Note_on_c, 0, 77, 0
2, 172043, Note_on_c, 0, 89, 84
2, 172043, Note_on_c, 0, 73, 77
2, 172046, Note_on_c, 0, 77, 81
2, 172070, Control_c, 0, 64, 127
2, 172254, Note_on_c, 0, 73, 0
2, 172254, Note_on_c, 0, 82, 0
2, 172259, Note_on_c, 0, 82, 89
2, 172265, Note_on_c, 0, 73, 71
2, 172377, Note_on_c, 0, 80, 0
2, 172385, Note_on_c, 0, 80, 91
2, 172586, Note_on_c, 0, 78, 88
2, 172723, Note_on_c, 0, 80, 0
2, 172727, Control_c, 0, 64, 0
2, 172731, Note_on_c, 0, 82, 0
2, 172732, Note_on_c, 0, 65, 0
2, 172734, Note_on_c, 0, 89, 0
2, 172734, Note_on_c, 0, 80, 89
2, 172734, Note_on_c, 0, 77, 0
2, 172734, Note_on_c, 0, 92, 0
2, 172738, Note_on_c, 0, 61, 0
2, 172738, Note_on_c, 0, 73, 0
2, 172743, Note_on_c, 0, 61, 70
2, 172743, Note_on_c, 0, 54, 66
2, 172745, Note_on_c, 0, 73, 74
2, 172746, Note_on_c, 0, 85, 0
2, 172748, Note_on_c, 0, 70, 85
2, 172753, Note_on_c, 0, 78, 0
2, 172838, Control_c, 0, 64, 127
2, 173068, Note_on_c, 0, 70, 0
2, 173071, Note_on_c, 0, 82, 96
2, 173076, Note_on_c, 0, 73, 0
2, 173080, Note_on_c, 0, 70, 73
2, 173080, Note_on_c, 0, 73, 58
2, 173276, Note_on_c, 0, 82, 0
2, 173286, Note_on_c, 0, 82, 91
2, 173291, Note_on_c, 0, 70, 0
2, 173299, Note_on_c, 0, 73, 0
2, 173302, Note_on_c, 0, 70, 72
2, 173303, Note_on_c, 0, 78, 75
2, 173309, Control_c, 0, 64, 0
2, 173310, Note_on_c, 0, 73, 61
2, 173334, Note_on_c, 0, 80, 0
2, 173368, Control_c, 0, 64, 127
2, 173435, Note_on_c, 0, 85, 91
2, 173436, Note_on_c, 0, 89, 85
2, 173552, Note_on_c, 0, 54, 0
2, 173779, Note_on_c, 0, 92, 95
2, 174113, Note_on_c, 0, 70, 0
2, 174121, Note_on_c, 0, 70, 87
2, 174123, Note_on_c, 0, 94, 97
2, 174123, Note_on_c, 0, 54, 77
2, 174124, Note_on_c, 0, 61, 0
2, 174124, Note_on_c, 0, 78, 0
2, 174125, Control_c, 0, 64, 0
2, 174128, Note_on_c, 0, 85, 0
2, 174139, Note_on_c, 0, 90, 78
2, 174139, Note_on_c, 0, 85, 76
2, 174159, Note_on_c, 0, 73, 0
2, 174190, Control_c, 0, 64, 127
2, 174243, Note_on_c, 0, 82, 0
2, 174470, Note_on_c, 0, 61, 100
2, 174789, Note_on_c, 0, 54, 0
2, 174799, Note_on_c, 0, 66, 109
2, 174800, Note_on_c, 0, 54, 105
2, 175016, Note_on_c, 0, 75, 112
2, 175136, Control_c, 0, 64, 0
2, 175142, Note_on_c, 0, 92, 0
2, 175144, Note_on_c, 0, 61, 0
2, 175145, Note_on_c, 0, 66, 0
2, 175145, Note_on_c, 0, 54, 0
2, 175146, Note_on_c, 0, 85, 0
2, 175146, Note_on_c, 0, 94, 0
2, 175146, Note_on_c, 0, 70, 0
2, 175147, Note_on_c, 0, 90, 0
2, 175149, Note_on_c, 0, 78, 109
2, 175149, Note_on_c, 0, 75, 0
2, 175165, Note_on_c, 0, 89, 0
2, 175321, Note_on_c, 0, 78, 0
2, 175373, Note_on_c, 0, 80, 103
2, 175466, Note_on_c, 0, 80, 0
2, 175501, Note_on_c, 0, 47, 104
2, 175506, Note_on_c, 0, 35, 96
2, 175514, Note_on_c, 0, 75, 97
2, 175516, Note_on_c, 0, 71, 92
2, 175518, Control_c, 0, 64, 127
2, 175730, Note_on_c, 0, 82, 105
2, 175848, Note_on_c, 0, 82, 0
2, 175856, Note_on_c, 0, 82, 101
2, 176048, Note_on_c, 0, 82, 0
2, 176057, Note_on_c, 0, 82, 103
2, 176087, Note_on_c, 0, 47, 0
2, 176093, Note_on_c, 0, 47, 78
2, 176179, Note_on_c, 0, 82, 0
2, 176186, Note_on_c, 0, 75, 0
2, 176189, Note_on_c, 0, 82, 107
2, 176191, Note_on_c, 0, 71, 0
2, 176195, Note_on_c, 0, 75, 99
2, 176197, Note_on_c, 0, 63, 100
2, 176197, Note_on_c, 0, 54, 93
2, 176198, Note_on_c, 0, 78, 94
2, 176198, Note_on_c, 0, 59, 85
2, 176409, Note_on_c, 0, 82, 0
2, 176414, Note_on_c, 0, 82, 103
2, 176540, Note_on_c, 0, 47, 0
2, 176549, Note_on_c, 0, 47, 87
2, 176747, Note_on_c, 0, 82, 0
2, 176751, Control_c, 0, 64, 0
2, 176755, Note_on_c, 0, 54, 0
2, 176756, Note_on_c, 0, 47, 0
2, 176756, Note_on_c, 0, 82, 108
2, 176758, Note_on_c, 0, 75, 0
2, 176758, Note_on_c, 0, 78, 0
2, 176759, Note_on_c, 0, 77, 97
2, 176760, Note_on_c, 0, 73, 102
2, 176801, Note_on_c, 0, 63, 0
2, 176824, Note_on_c, 0, 59, 0
2, 176866, Note_on_c, 0, 35, 0
2, 176898, Note_on_c, 0, 49, 98
2, 176899, Note_on_c, 0, 37, 93
2, 176931, Control_c, 0, 64, 127
2, 177096, Note_on_c, 0, 80, 95
2, 177223, Note_on_c, 0, 80, 0
2, 177231, Note_on_c, 0, 80, 96
2, 177454, Note_on_c, 0, 80, 0
2, 177461, Note_on_c, 0, 49, 0
2, 177462, Note_on_c, 0, 80, 94
2, 177469, Note_on_c, 0, 49, 77
2, 177495, Note_on_c, 0, 78, 55
2, 177584, Note_on_c, 0, 77, 0
2, 177587, Control_c, 0, 64, 0
2, 177591, Note_on_c, 0, 77, 93
2, 177592, Note_on_c, 0, 73, 0
2, 177593, Note_on_c, 0, 68, 102
2, 177594, Note_on_c, 0, 61, 97
2, 177596, Note_on_c, 0, 73, 91
2, 177596, Note_on_c, 0, 65, 92
2, 177596, Note_on_c, 0, 56, 87
2, 177623, Control_c, 0, 64, 127
2, 177815, Note_on_c, 0, 80, 0
2, 177825, Note_on_c, 0, 80, 101
2, 177953, Note_on_c, 0, 49, 0
2, 177957, Note_on_c, 0, 49, 85
2, 178152, Note_on_c, 0, 80, 0
2, 178160, Note_on_c, 0, 73, 0
2, 178160, Note_on_c, 0, 80, 103
2, 178165, Note_on_c, 0, 73, 95
2, 178166, Note_on_c, 0, 70, 98
2, 178171, Control_c, 0, 64, 0
2, 178191, Control_c, 0, 64, 127
2, 178301, Control_c, 0, 64, 0
2, 178302, Note_on_c, 0, 39, 85
2, 178304, Note_on_c, 0, 54, 88
2, 178304, Note_on_c, 0, 49, 0
2, 178305, Note_on_c, 0, 56, 0
2, 178305, Note_on_c, 0, 61, 0
2, 178307, Note_on_c, 0, 37, 0
2, 178307, Note_on_c, 0, 46, 86
2, 178307, Note_on_c, 0, 65, 0
2, 178308, Note_on_c, 0, 68, 0
2, 178310, Note_on_c, 0, 77, 0
2, 178314, Note_on_c, 0, 82, 0
2, 178329, Note_on_c, 0, 78, 0
2, 178360, Control_c, 0, 64, 127
2, 178506, Note_on_c, 0, 73, 0
2, 178514, Note_on_c, 0, 78, 88
2, 178515, Note_on_c, 0, 73, 68
2, 178636, Note_on_c, 0, 78, 0
2, 178647, Note_on_c, 0, 78, 100
2, 178859, Note_on_c, 0, 78, 0
2, 178863, Note_on_c, 0, 78, 100
2, 178872, Note_on_c, 0, 51, 81
2, 178990, Note_on_c, 0, 73, 0
2, 178990, Note_on_c, 0, 78, 0
2, 178993, Note_on_c, 0, 78, 98
2, 178997, Note_on_c, 0, 54, 0
2, 178997, Note_on_c, 0, 70, 0
2, 179000, Note_on_c, 0, 61, 92
2, 179001, Note_on_c, 0, 73, 93
2, 179001, Note_on_c, 0, 58, 88
2, 179001, Note_on_c, 0, 70, 92
2, 179003, Note_on_c, 0, 54, 81
2, 179009, Note_on_c, 0, 46, 0
2, 179010, Note_on_c, 0, 39, 0
2, 179011, Control_c, 0, 64, 0
2, 179028, Note_on_c, 0, 80, 0
2, 179051, Control_c, 0, 64, 127
2, 179228, Note_on_c, 0, 78, 0
2, 179235, Note_on_c, 0, 78, 102
2, 179358, Note_on_c, 0, 51, 0
2, 179365, Note_on_c, 0, 51, 89
2, 179550, Note_on_c, 0, 78, 0
2, 179558, Note_on_c, 0, 70, 0
2, 179558, Note_on_c, 0, 73, 0
2, 179560, Note_on_c, 0, 78, 104
2, 179565, Note_on_c, 0, 73, 94
2, 179566, Note_on_c, 0, 70, 95
2, 179657, Control_c, 0, 64, 0
2, 179660, Note_on_c, 0, 58, 0
2, 179660, Note_on_c, 0, 51, 0
2, 179662, Note_on_c, 0, 61, 0
2, 179681, Note_on_c, 0, 54, 0
2, 179700, Note_on_c, 0, 46, 100
2, 179700, Note_on_c, 0, 34, 91
2, 179742, Control_c, 0, 64, 127
2, 179896, Note_on_c, 0, 73, 0
2, 179900, Note_on_c, 0, 73, 86
2, 180034, Note_on_c, 0, 73, 0
2, 180044, Note_on_c, 0, 73, 87
2, 180257, Note_on_c, 0, 73, 0
2, 180264, Note_on_c, 0, 34, 0
2, 180264, Note_on_c, 0, 46, 0
2, 180267, Note_on_c, 0, 73, 95
2, 180268, Note_on_c, 0, 46, 89
2, 180270, Note_on_c, 0, 34, 79
2, 180408, Note_on_c, 0, 53, 87
2, 180408, Note_on_c, 0, 56, 98
2, 180409, Note_on_c, 0, 61, 98
2, 180623, Note_on_c, 0, 75, 105
2, 180741, Note_on_c, 0, 46, 0
2, 180748, Note_on_c, 0, 78, 0
2, 180752, Note_on_c, 0, 46, 99
2, 180752, Note_on_c, 0, 78, 105
2, 180956, Note_on_c, 0, 53, 0
2, 180961, Note_on_c, 0, 80, 103
2, 181048, Note_on_c, 0, 70, 0
2, 181058, Note_on_c, 0, 75, 0
2, 181059, Note_on_c, 0, 61, 0
2, 181059, Note_on_c, 0, 78, 0
2, 181059, Note_on_c, 0, 56, 0
2, 181062, Control_c, 0, 64, 0
2, 181063, Note_on_c, 0, 73, 0
2, 181071, Note_on_c, 0, 34, 0
2, 181079, Note_on_c, 0, 46, 0
2, 181094, Note_on_c, 0, 80, 0
2, 181100, Note_on_c, 0, 80, 97
2, 181102, Note_on_c, 0, 47, 97
2, 181106, Note_on_c, 0, 35, 91
2, 181106, Note_on_c, 0, 75, 98
2, 181107, Note_on_c, 0, 71, 90
2, 181140, Control_c, 0, 64, 127
2, 181327, Note_on_c, 0, 82, 102
2, 181447, Note_on_c, 0, 82, 0
2, 181453, Note_on_c, 0, 82, 103
2, 181655, Note_on_c, 0, 82, 0
2, 181664, Note_on_c, 0, 82, 107
2, 181678, Note_on_c, 0, 47, 0
2, 181689, Note_on_c, 0, 47, 94
2, 181793, Note_on_c, 0, 82, 0
2, 181800, Note_on_c, 0, 75, 0
2, 181803, Note_on_c, 0, 82, 103
2, 181805, Note_on_c, 0, 71, 0
2, 181807, Note_on_c, 0, 75, 101
2, 181809, Note_on_c, 0, 54, 95
2, 181811, Note_on_c, 0, 59, 97
2, 181812, Note_on_c, 0, 51, 84
2, 182016, Note_on_c, 0, 82, 0
2, 182023, Note_on_c, 0, 82, 107
2, 182146, Note_on_c, 0, 82, 0
2, 182154, Note_on_c, 0, 47, 0
2, 182157, Note_on_c, 0, 82, 106
2, 182164, Note_on_c, 0, 47, 83
2, 182361, Note_on_c, 0, 80, 0
2, 182365, Note_on_c, 0, 85, 111
2, 182366, Note_on_c, 0, 80, 105
2, 182366, Note_on_c, 0, 77, 104
2, 182368, Note_on_c, 0, 73, 105
2, 182425, Control_c, 0, 64, 0
2, 182434, Note_on_c, 0, 51, 0
2, 182434, Note_on_c, 0, 82, 0
2, 182434, Note_on_c, 0, 54, 0
2, 182434, Note_on_c, 0, 59, 0
2, 182434, Note_on_c, 0, 47, 0
2, 182435, Note_on_c, 0, 75, 0
2, 182438, Note_on_c, 0, 35, 0
2, 182484, Control_c, 0, 64, 127
2, 182502, Note_on_c, 0, 37, 100
2, 182503, Note_on_c, 0, 49, 101
2, 182701, Note_on_c, 0, 82, 108
2, 182830, Note_on_c, 0, 82, 0
2, 182834, Note_on_c, 0, 82, 107
2, 183052, Note_on_c, 0, 49, 0
2, 183061, Note_on_c, 0, 49, 88
2, 183191, Note_on_c, 0, 82, 0
2, 183197, Note_on_c, 0, 82, 115
2, 183198, Note_on_c, 0, 73, 0
2, 183198, Note_on_c, 0, 77, 0
2, 183202, Note_on_c, 0, 56, 93
2, 183202, Note_on_c, 0, 61, 101
2, 183202, Note_on_c, 0, 53, 89
2, 183203, Note_on_c, 0, 77, 100
2, 183204, Note_on_c, 0, 73, 105
2, 183444, Note_on_c, 0, 73, 0
2, 183444, Note_on_c, 0, 82, 0
2, 183448, Note_on_c, 0, 82, 111
2, 183454, Note_on_c, 0, 73, 104
2, 183521, Note_on_c, 0, 49, 0
2, 183525, Note_on_c, 0, 49, 87
2, 183567, Note_on_c, 0, 80, 0
2, 183578, Note_on_c, 0, 80, 103
2, 183736, Note_on_c, 0, 78, 106
2, 183882, Note_on_c, 0, 73, 0
2, 183882, Note_on_c, 0, 80, 0
2, 183886, Note_on_c, 0, 80, 105
2, 183887, Control_c, 0, 64, 0
2, 183889, Note_on_c, 0, 42, 99
2, 183892, Note_on_c, 0, 73, 97
2, 183892, Note_on_c, 0, 70, 103
2, 183899, Note_on_c, 0, 37, 0
2, 183900, Note_on_c, 0, 49, 0
2, 183900, Note_on_c, 0, 82, 0
2, 183901, Note_on_c, 0, 77, 0
2, 183901, Note_on_c, 0, 85, 0
2, 183901, Note_on_c, 0, 61, 0
2, 183901, Note_on_c, 0, 78, 0
2, 183902, Note_on_c, 0, 56, 0
2, 183902, Note_on_c, 0, 53, 0
2, 183959, Control_c, 0, 64, 127
2, 184227, Note_on_c, 0, 70, 0
2, 184231, Note_on_c, 0, 82, 113
2, 184235, Note_on_c, 0, 73, 0
2, 184237, Note_on_c, 0, 70, 102
2, 184239, Note_on_c, 0, 73, 89
2, 184415, Note_on_c, 0, 49, 75
2, 184458, Note_on_c, 0, 82, 0
2, 184468, Note_on_c, 0, 82, 111
2, 184471, Note_on_c, 0, 78, 93
2, 184512, Note_on_c, 0, 70, 0
2, 184512, Note_on_c, 0, 73, 0
2, 184522, Note_on_c, 0, 73, 72
2, 184522, Note_on_c, 0, 70, 99
2, 184574, Note_on_c, 0, 56, 106
2, 184896, Note_on_c, 0, 49, 0
2, 184903, Note_on_c, 0, 49, 101
2, 185218, Note_on_c, 0, 42, 0
2, 185221, Note_on_c, 0, 58, 108
2, 185223, Note_on_c, 0, 42, 93
2, 185341, Note_on_c, 0, 49, 0
2, 185349, Note_on_c, 0, 49, 92
2, 185454, Note_on_c, 0, 54, 96
2, 185564, Note_on_c, 0, 58, 0
2, 185572, Note_on_c, 0, 58, 105
2, 185682, Note_on_c, 0, 61, 106
2, 185786, Note_on_c, 0, 42, 0
2, 185786, Note_on_c, 0, 54, 0
2, 185794, Note_on_c, 0, 42, 84
2, 185797, Note_on_c, 0, 54, 92
2, 185909, Note_on_c, 0, 61, 0
2, 185920, Note_on_c, 0, 61, 94
2, 185938, Note_on_c, 0, 66, 108
2, 186024, Note_on_c, 0, 58, 0
2, 186032, Note_on_c, 0, 58, 101
2, 186163, Note_on_c, 0, 42, 0
2, 186163, Note_on_c, 0, 54, 0
2, 186167, Note_on_c, 0, 54, 111
2, 186168, Note_on_c, 0, 42, 93
2, 186259, Note_on_c, 0, 75, 110
2, 186278, Note_on_c, 0, 42, 0
2, 186282, Note_on_c, 0, 42, 90
2, 186362, Note_on_c, 0, 78, 0
2, 186367, Note_on_c, 0, 78, 103
2, 186462, Note_on_c, 0, 80, 0
2, 186473, Note_on_c, 0, 80, 108
2, 186581, Note_on_c, 0, 49, 0
2, 186581, Note_on_c, 0, 78, 0
2, 186581, Note_on_c, 0, 82, 0
2, 186581, Note_on_c, 0, 58, 0
2, 186581, Note_on_c, 0, 66, 0
2, 186581, Note_on_c, 0, 42, 0
2, 186581, Note_on_c, 0, 61, 0
2, 186581, Control_c, 0, 64, 0
2, 186581, Note_on_c, 0, 70, 0
2, 186581, Note_on_c, 0, 54, 0
2, 186593, Note_on_c, 0, 56, 0
2, 186593, Note_on_c, 0, 73, 0
2, 186593, Note_on_c, 0, 75, 0
2, 186593, Note_on_c, 0, 80, 0
2, 186597, Note_on_c, 0, 80, 101
2, 186604, Note_on_c, 0, 75, 108
2, 186605, Note_on_c, 0, 71, 98
2, 186605, Note_on_c, 0, 35, 96
2, 186631, Control_c, 0, 64, 127
2, 186826, Note_on_c, 0, 82, 111
2, 186938, Note_on_c, 0, 82, 0
2, 186944, Note_on_c, 0, 82, 103
2, 187146, Note_on_c, 0, 82, 0
2, 187155, Note_on_c, 0, 82, 109
2, 187276, Note_on_c, 0, 82, 0
2, 187282, Note_on_c, 0, 82, 105
2, 187284, Note_on_c, 0, 75, 0
2, 187287, Note_on_c, 0, 51, 95
2, 187287, Note_on_c, 0, 63, 105
2, 187288, Note_on_c, 0, 54, 96
2, 187288, Note_on_c, 0, 75, 104
2, 187289, Note_on_c, 0, 59, 90
2, 187290, Control_c, 0, 64, 0
2, 187293, Note_on_c, 0, 78, 97
2, 187322, Control_c, 0, 64, 127
2, 187499, Note_on_c, 0, 82, 0
2, 187504, Note_on_c, 0, 82, 109
2, 187630, Note_on_c, 0, 82, 0
2, 187639, Note_on_c, 0, 82, 110
2, 187852, Note_on_c, 0, 82, 0
2, 187859, Note_on_c, 0, 82, 108
2, 187863, Note_on_c, 0, 73, 98
2, 187892, Note_on_c, 0, 76, 66
2, 187910, Note_on_c, 0, 77, 34
2, 187988, Control_c, 0, 64, 0
2, 187991, Note_on_c, 0, 35, 0
2, 187992, Note_on_c, 0, 51, 0
2, 187994, Note_on_c, 0, 75, 0
2, 187995, Note_on_c, 0, 77, 0
2, 187995, Note_on_c, 0, 54, 0
2, 187995, Note_on_c, 0, 78, 0
2, 187995, Note_on_c, 0, 82, 0
2, 187995, Note_on_c, 0, 63, 0
2, 187998, Note_on_c, 0, 80, 0
2, 188003, Note_on_c, 0, 80, 101
2, 188004, Note_on_c, 0, 37, 91
2, 188006, Note_on_c, 0, 71, 0
2, 188009, Note_on_c, 0, 25, 94
2, 188060, Control_c, 0, 64, 127
2, 188106, Note_on_c, 0, 76, 0
2, 188221, Note_on_c, 0, 80, 0
2, 188226, Note_on_c, 0, 80, 98
2, 188359, Note_on_c, 0, 80, 0
2, 188363, Note_on_c, 0, 80, 100
2, 188582, Note_on_c, 0, 80, 0
2, 188588, Note_on_c, 0, 80, 103
2, 188705, Note_on_c, 0, 73, 0
2, 188708, Control_c, 0, 64, 0
2, 188709, Note_on_c, 0, 68, 108
2, 188710, Note_on_c, 0, 77, 100
2, 188710, Note_on_c, 0, 73, 95
2, 188712, Note_on_c, 0, 65, 101
2, 188712, Note_on_c, 0, 61, 95
2, 188716, Note_on_c, 0, 56, 94
2, 188743, Control_c, 0, 64, 127
2, 188774, Note_on_c, 0, 25, 0
2, 188928, Note_on_c, 0, 80, 0
2, 188934, Note_on_c, 0, 80, 105
2, 189035, Note_on_c, 0, 80, 0
2, 189045, Note_on_c, 0, 80, 86
2, 189265, Note_on_c, 0, 80, 0
2, 189271, Note_on_c, 0, 80, 100
2, 189381, Note_on_c, 0, 37, 0
2, 189388, Note_on_c, 0, 59, 0
2, 189389, Note_on_c, 0, 77, 0
2, 189391, Note_on_c, 0, 68, 0
2, 189391, Note_on_c, 0, 61, 0
2, 189391, Note_on_c, 0, 65, 0
2, 189392, Note_on_c, 0, 56, 0
2, 189395, Control_c, 0, 64, 0
2, 189404, Note_on_c, 0, 73, 0
2, 189404, Note_on_c, 0, 80, 0
2, 189406, Note_on_c, 0, 39, 97
2, 189407, Note_on_c, 0, 27, 91
2, 189408, Note_on_c, 0, 80, 101
2, 189414, Note_on_c, 0, 73, 98
2, 189415, Note_on_c, 0, 70, 101
2, 189457, Control_c, 0, 64, 127
2, 189511, Note_on_c, 0, 27, 0
2, 189641, Note_on_c, 0, 78, 100
2, 189645, Note_on_c, 0, 66, 99
2, 189664, Note_on_c, 0, 75, 64
2, 189749, Note_on_c, 0, 66, 0
2, 189760, Note_on_c, 0, 66, 92
2, 189964, Note_on_c, 0, 78, 0
2, 189976, Note_on_c, 0, 78, 102
2, 189980, Note_on_c, 0, 66, 0
2, 189989, Note_on_c, 0, 66, 84
2, 190095, Note_on_c, 0, 73, 0
2, 190095, Note_on_c, 0, 78, 0
2, 190102, Note_on_c, 0, 78, 102
2, 190103, Note_on_c, 0, 66, 0
2, 190103, Note_on_c, 0, 70, 0
2, 190103, Note_on_c, 0, 61, 95
2, 190106, Note_on_c, 0, 73, 99
2, 190107, Note_on_c, 0, 54, 86
2, 190107, Note_on_c, 0, 58, 89
2, 190107, Note_on_c, 0, 70, 88
2, 190109, Note_on_c, 0, 66, 95
2, 190310, Note_on_c, 0, 66, 0
2, 190310, Note_on_c, 0, 78, 0
2, 190317, Note_on_c, 0, 78, 104
2, 190321, Note_on_c, 0, 66, 99
2, 190433, Note_on_c, 0, 78, 0
2, 190438, Note_on_c, 0, 78, 96
2, 190440, Note_on_c, 0, 66, 0
2, 190445, Note_on_c, 0, 66, 82
2, 190663, Note_on_c, 0, 66, 0
2, 190663, Note_on_c, 0, 78, 0
2, 190671, Note_on_c, 0, 78, 100
2, 190675, Note_on_c, 0, 66, 85
2, 190773, Note_on_c, 0, 80, 0
2, 190773, Note_on_c, 0, 39, 0
2, 190774, Note_on_c, 0, 58, 0
2, 190774, Note_on_c, 0, 61, 0
2, 190775, Note_on_c, 0, 70, 0
2, 190783, Control_c, 0, 64, 0
2, 190794, Note_on_c, 0, 78, 0
2, 190799, Note_on_c, 0, 78, 103
2, 190801, Note_on_c, 0, 66, 0
2, 190804, Note_on_c, 0, 34, 98
2, 190806, Note_on_c, 0, 66, 100
2, 190806, Note_on_c, 0, 70, 81
2, 190824, Control_c, 0, 64, 127
2, 191009, Note_on_c, 0, 73, 0
2, 191019, Note_on_c, 0, 73, 90
2, 191339, Note_on_c, 0, 54, 0
2, 191354, Note_on_c, 0, 73, 0
2, 191359, Note_on_c, 0, 73, 100
2, 191367, Note_on_c, 0, 65, 77
2, 191498, Note_on_c, 0, 61, 96
2, 191499, Note_on_c, 0, 53, 86
2, 191499, Note_on_c, 0, 56, 98
2, 191708, Note_on_c, 0, 75, 0
2, 191719, Note_on_c, 0, 75, 106
2, 191838, Note_on_c, 0, 78, 0
2, 191842, Note_on_c, 0, 78, 109
2, 192079, Note_on_c, 0, 80, 103
2, 192175, Note_on_c, 0, 34, 0
2, 192175, Note_on_c, 0, 53, 0
2, 192176, Note_on_c, 0, 78, 0
2, 192177, Note_on_c, 0, 56, 0
2, 192177, Note_on_c, 0, 73, 0
2, 192178, Note_on_c, 0, 66, 0
2, 192178, Note_on_c, 0, 61, 0
2, 192180, Control_c, 0, 64, 0
2, 192184, Note_on_c, 0, 70, 0
2, 192192, Note_on_c, 0, 65, 0
2, 192207, Note_on_c, 0, 80, 0
2, 192211, Note_on_c, 0, 80, 102
2, 192215, Note_on_c, 0, 75, 0
2, 192216, Note_on_c, 0, 23, 91
2, 192219, Note_on_c, 0, 35, 87
2, 192219, Note_on_c, 0, 75, 100
2, 192219, Note_on_c, 0, 71, 90
2, 192238, Control_c, 0, 64, 127
2, 192428, Note_on_c, 0, 82, 105
2, 192560, Note_on_c, 0, 82, 0
2, 192564, Note_on_c, 0, 82, 102
2, 192775, Note_on_c, 0, 82, 0
2, 192779, Note_on_c, 0, 82, 104
2, 192883, Note_on_c, 0, 23, 0
2, 192898, Note_on_c, 0, 75, 0
2, 192898, Note_on_c, 0, 82, 0
2, 192901, Control_c, 0, 64, 0
2, 192903, Note_on_c, 0, 63, 101
2, 192905, Note_on_c, 0, 82, 103
2, 192909, Note_on_c, 0, 75, 102
2, 192910, Note_on_c, 0, 54, 92
2, 192910, Note_on_c, 0, 59, 86
2, 192936, Control_c, 0, 64, 127
2, 193121, Note_on_c, 0, 82, 0
2, 193126, Note_on_c, 0, 82, 102
2, 193251, Note_on_c, 0, 82, 0
2, 193257, Note_on_c, 0, 82, 106
2, 193482, Note_on_c, 0, 80, 0
2, 193486, Note_on_c, 0, 85, 104
2, 193487, Note_on_c, 0, 77, 96
2, 193487, Note_on_c, 0, 73, 100
2, 193489, Note_on_c, 0, 80, 98
2, 193489, Control_c, 0, 64, 0
2, 193551, Note_on_c, 0, 35, 0
2, 193566, Note_on_c, 0, 71, 0
2, 193574, Control_c, 0, 64, 127
2, 193574, Note_on_c, 0, 63, 0
2, 193575, Note_on_c, 0, 59, 0
2, 193575, Note_on_c, 0, 82, 0
2, 193576, Note_on_c, 0, 54, 0
2, 193576, Note_on_c, 0, 75, 0
2, 193579, Control_c, 0, 64, 0
2, 193589, Control_c, 0, 64, 127
2, 193624, Note_on_c, 0, 37, 92
2, 193624, Note_on_c, 0, 25, 90
2, 193842, Note_on_c, 0, 82, 107
2, 193845, Note_on_c, 0, 70, 101
2, 193958, Note_on_c, 0, 70, 0
2, 193958, Note_on_c, 0, 82, 0
2, 193963, Note_on_c, 0, 82, 103
2, 193964, Note_on_c, 0, 70, 97
2, 194234, Note_on_c, 0, 70, 0
2, 194239, Note_on_c, 0, 70, 76
2, 194296, Note_on_c, 0, 73, 0
2, 194302, Note_on_c, 0, 73, 96
2, 194304, Note_on_c, 0, 82, 0
2, 194314, Note_on_c, 0, 82, 110
2, 194315, Note_on_c, 0, 65, 95
2, 194315, Note_on_c, 0, 56, 91
2, 194317, Note_on_c, 0, 61, 90
2, 194557, Note_on_c, 0, 70, 0
2, 194557, Note_on_c, 0, 82, 0
2, 194561, Note_on_c, 0, 82, 94
2, 194562, Note_on_c, 0, 70, 84
2, 194657, Note_on_c, 0, 80, 0
2, 194661, Note_on_c, 0, 80, 104
2, 194662, Note_on_c, 0, 68, 109
2, 194876, Note_on_c, 0, 78, 96
2, 194878, Note_on_c, 0, 66, 88
2, 194984, Note_on_c, 0, 37, 0
2, 194984, Note_on_c, 0, 61, 0
2, 194984, Note_on_c, 0, 82, 0
2, 194984, Note_on_c, 0, 56, 0
2, 194985, Note_on_c, 0, 77, 0
2, 194985, Note_on_c, 0, 85, 0
2, 194985, Note_on_c, 0, 65, 0
2, 194985, Note_on_c, 0, 70, 0
2, 194987, Note_on_c, 0, 66, 0
2, 194987, Control_c, 0, 64, 0
2, 194987, Note_on_c, 0, 25, 0
2, 194987, Note_on_c, 0, 80, 0
2, 194995, Note_on_c, 0, 68, 0
2, 194995, Note_on_c, 0, 73, 0
2, 194998, Note_on_c, 0, 80, 105
2, 195000, Note_on_c, 0, 68, 106
2, 195006, Note_on_c, 0, 73, 84
2, 195016, Note_on_c, 0, 42, 92
2, 195017, Note_on_c, 0, 30, 91
2, 195079, Control_c, 0, 64, 127
2, 195156, Note_on_c, 0, 78, 0
2, 195335, Note_on_c, 0, 82, 106
2, 195336, Note_on_c, 0, 70, 100
2, 195548, Note_on_c, 0, 82, 0
2, 195553, Note_on_c, 0, 82, 111
2, 195555, Note_on_c, 0, 70, 0
2, 195555, Note_on_c, 0, 73, 0
2, 195560, Note_on_c, 0, 70, 104
2, 195566, Note_on_c, 0, 73, 97
2, 195567, Note_on_c, 0, 78, 92
2, 195579, Control_c, 0, 64, 0
2, 195594, Control_c, 0, 64, 127
2, 195713, Note_on_c, 0, 56, 109
2, 196032, Note_on_c, 0, 30, 0
2, 196032, Note_on_c, 0, 42, 0
2, 196037, Note_on_c, 0, 42, 85
2, 196040, Note_on_c, 0, 30, 74
2, 196385, Note_on_c, 0, 68, 0
2, 196402, Note_on_c, 0, 49, 93
2, 196404, Note_on_c, 0, 58, 108
2, 196421, Control_c, 0, 64, 0
2, 196454, Control_c, 0, 64, 127
2, 196737, Note_on_c, 0, 61, 102
2, 197091, Note_on_c, 0, 58, 0
2, 197096, Note_on_c, 0, 58, 93
2, 197096, Note_on_c, 0, 66, 107
2, 197414, Note_on_c, 0, 42, 0
2, 197422, Note_on_c, 0, 80, 0
2, 197423, Note_on_c, 0, 54, 84
2, 197423, Note_on_c, 0, 42, 82
2, 197426, Note_on_c, 0, 80, 104
2, 197432, Note_on_c, 0, 68, 103
2, 197644, Note_on_c, 0, 70, 0
2, 197644, Note_on_c, 0, 82, 0
2, 197648, Note_on_c, 0, 82, 107
2, 197651, Note_on_c, 0, 70, 98
2, 197729, Note_on_c, 0, 30, 0
2, 197732, Note_on_c, 0, 42, 0
2, 197732, Note_on_c, 0, 54, 0
2, 197732, Note_on_c, 0, 80, 0
2, 197733, Note_on_c, 0, 68, 0
2, 197733, Note_on_c, 0, 82, 0
2, 197733, Control_c, 0, 64, 0
2, 197733, Note_on_c, 0, 58, 0
2, 197733, Note_on_c, 0, 66, 0
2, 197733, Note_on_c, 0, 49, 0
2, 197733, Note_on_c, 0, 78, 0
2, 197733, Note_on_c, 0, 61, 0
2, 197733, Note_on_c, 0, 70, 0
2, 197734, Note_on_c, 0, 73, 0
2, 197744, Note_on_c, 0, 56, 0
2, 197785, Note_on_c, 0, 47, 98
2, 197786, Note_on_c, 0, 35, 87
2, 197786, Note_on_c, 0, 80, 104
2, 197788, Note_on_c, 0, 68, 106
2, 197829, Control_c, 0, 64, 127
2, 198036, Note_on_c, 0, 78, 103
2, 198039, Note_on_c, 0, 66, 91
2, 198320, Note_on_c, 0, 78, 0
2, 198328, Note_on_c, 0, 78, 102
2, 198466, Note_on_c, 0, 66, 0
2, 198475, Note_on_c, 0, 66, 89
2, 198481, Note_on_c, 0, 54, 78
2, 198482, Note_on_c, 0, 71, 79
2, 198483, Note_on_c, 0, 75, 86
2, 198486, Note_on_c, 0, 59, 77
2, 198835, Note_on_c, 0, 47, 0
2, 198840, Note_on_c, 0, 47, 61
2, 199165, Note_on_c, 0, 68, 0
2, 199169, Note_on_c, 0, 49, 75
2, 199169, Note_on_c, 0, 37, 73
2, 199169, Note_on_c, 0, 73, 81
2, 199170, Note_on_c, 0, 65, 76
2, 199170, Control_c, 0, 64, 0
2, 199171, Note_on_c, 0, 68, 86
2, 199176, Note_on_c, 0, 66, 0
2, 199177, Note_on_c, 0, 54, 0
2, 199177, Note_on_c, 0, 47, 0
2, 199177, Note_on_c, 0, 59, 0
2, 199177, Note_on_c, 0, 80, 0
2, 199177, Note_on_c, 0, 78, 0
2, 199178, Note_on_c, 0, 75, 0
2, 199188, Note_on_c, 0, 35, 0
2, 199196, Note_on_c, 0, 71, 0
2, 199388, Control_c, 0, 64, 127
2, 199523, Note_on_c, 0, 44, 58
2, 199872, Note_on_c, 0, 65, 0
2, 199872, Note_on_c, 0, 73, 0
2, 199879, Note_on_c, 0, 68, 0
2, 199881, Note_on_c, 0, 56, 73
2, 199882, Note_on_c, 0, 61, 75
2, 199882, Note_on_c, 0, 65, 73
2, 199883, Note_on_c, 0, 73, 80
2, 199883, Note_on_c, 0, 53, 64
2, 199883, Note_on_c, 0, 68, 79
2, 200217, Note_on_c, 0, 49, 0
2, 200222, Note_on_c, 0, 49, 73
2, 200224, Note_on_c, 0, 44, 0
2, 200231, Note_on_c, 0, 80, 105
2, 200453, Note_on_c, 0, 82, 98
2, 200570, Note_on_c, 0, 80, 0
2, 200576, Note_on_c, 0, 80, 102
2, 200578, Note_on_c, 0, 73, 0
2, 200583, Note_on_c, 0, 39, 84
2, 200584, Control_c, 0, 64, 0
2, 200589, Note_on_c, 0, 73, 83
2, 200590, Note_on_c, 0, 68, 0
2, 200590, Note_on_c, 0, 70, 87
2, 200590, Note_on_c, 0, 65, 0
2, 200590, Note_on_c, 0, 61, 0
2, 200591, Note_on_c, 0, 56, 0
2, 200591, Note_on_c, 0, 82, 0
2, 200591, Note_on_c, 0, 53, 0
2, 200593, Note_on_c, 0, 37, 0
2, 200609, Note_on_c, 0, 49, 0
2, 200770, Control_c, 0, 64, 127
2, 200834, Note_on_c, 0, 78, 94
2, 201146, Note_on_c, 0, 78, 0
2, 201154, Note_on_c, 0, 78, 99
2, 201289, Note_on_c, 0, 58, 75
2, 201291, Note_on_c, 0, 61, 73
2, 201292, Note_on_c, 0, 70, 0
2, 201304, Note_on_c, 0, 70, 85
2, 201304, Note_on_c, 0, 54, 67
2, 201304, Note_on_c, 0, 66, 77
2, 201305, Note_on_c, 0, 75, 88
2, 201661, Note_on_c, 0, 51, 73
2, 201953, Note_on_c, 0, 80, 0
2, 201956, Control_c, 0, 64, 0
2, 201958, Note_on_c, 0, 54, 0
2, 201958, Note_on_c, 0, 39, 0
2, 201958, Note_on_c, 0, 58, 0
2, 201959, Note_on_c, 0, 75, 0
2, 201959, Note_on_c, 0, 70, 0
2, 201959, Note_on_c, 0, 61, 0
2, 201960, Note_on_c, 0, 73, 0
2, 201960, Note_on_c, 0, 66, 0
2, 201960, Note_on_c, 0, 78, 0
2, 201976, Note_on_c, 0, 51, 0
2, 201992, Note_on_c, 0, 73, 82
2, 201995, Note_on_c, 0, 46, 75
2, 202000, Note_on_c, 0, 68, 81
2, 202000, Note_on_c, 0, 34, 72
2, 202001, Note_on_c, 0, 65, 70
2, 202106, Control_c, 0, 64, 127
2, 202314, Note_on_c, 0, 46, 0
2, 202318, Note_on_c, 0, 46, 65
2, 202659, Note_on_c, 0, 73, 0
2, 202667, Note_on_c, 0, 65, 0
2, 202667, Note_on_c, 0, 68, 0
2, 202670, Note_on_c, 0, 56, 76
2, 202670, Note_on_c, 0, 61, 76
2, 202671, Note_on_c, 0, 73, 80
2, 202672, Note_on_c, 0, 65, 67
2, 202672, Note_on_c, 0, 68, 77
2, 203005, Note_on_c, 0, 46, 0
2, 203013, Note_on_c, 0, 46, 68
2, 203015, Note_on_c, 0, 80, 98
2, 203238, Note_on_c, 0, 82, 101
2, 203332, Control_c, 0, 64, 0
2, 203334, Note_on_c, 0, 46, 0
2, 203334, Note_on_c, 0, 68, 0
2, 203334, Note_on_c, 0, 73, 0
2, 203334, Note_on_c, 0, 65, 0
2, 203335, Note_on_c, 0, 61, 0
2, 203335, Note_on_c, 0, 56, 0
2, 203338, Note_on_c, 0, 82, 0
2, 203343, Note_on_c, 0, 34, 0
2, 203351, Note_on_c, 0, 80, 0
2, 203361, Note_on_c, 0, 80, 98
2, 203369, Note_on_c, 0, 47, 79
2, 203370, Note_on_c, 0, 35, 77
2, 203371, Note_on_c, 0, 70, 89
2, 203379, Note_on_c, 0, 75, 78
2, 203520, Control_c, 0, 64, 127
2, 203600, Note_on_c, 0, 78, 93
2, 203927, Note_on_c, 0, 78, 0
2, 203934, Note_on_c, 0, 35, 0
2, 203936, Note_on_c, 0, 78, 95
2, 204071, Note_on_c, 0, 63, 70
2, 204072, Note_on_c, 0, 75, 0
2, 204077, Note_on_c, 0, 54, 61
2, 204080, Note_on_c, 0, 70, 0
2, 204083, Note_on_c, 0, 66, 69
2, 204084, Note_on_c, 0, 75, 80
2, 204084, Note_on_c, 0, 70, 79
2, 204418, Note_on_c, 0, 47, 0
2, 204428, Note_on_c, 0, 47, 59
2, 204773, Note_on_c, 0, 37, 67
2, 204775, Note_on_c, 0, 73, 76
2, 204775, Control_c, 0, 64, 0
2, 204778, Note_on_c, 0, 68, 83
2, 204779, Note_on_c, 0, 65, 66
2, 204781, Note_on_c, 0, 80, 0
2, 204782, Note_on_c, 0, 47, 0
2, 204782, Note_on_c, 0, 54, 0
2, 204782, Note_on_c, 0, 75, 0
2, 204783, Note_on_c, 0, 78, 0
2, 204783, Note_on_c, 0, 66, 0
2, 204783, Note_on_c, 0, 63, 0
2, 204783, Note_on_c, 0, 70, 0
2, 204925, Control_c, 0, 64, 127
2, 205096, Note_on_c, 0, 44, 55
2, 205440, Note_on_c, 0, 73, 0
2, 205448, Note_on_c, 0, 73, 80
2, 205455, Note_on_c, 0, 68, 0
2, 205461, Note_on_c, 0, 53, 58
2, 205462, Note_on_c, 0, 61, 62
2, 205463, Note_on_c, 0, 65, 0
2, 205465, Note_on_c, 0, 68, 62
2, 205466, Note_on_c, 0, 56, 51
2, 205469, Note_on_c, 0, 65, 58
2, 205789, Note_on_c, 0, 44, 0
2, 205792, Note_on_c, 0, 80, 98
2, 206020, Note_on_c, 0, 82, 96
2, 206138, Note_on_c, 0, 80, 0
2, 206145, Note_on_c, 0, 80, 91
2, 206146, Note_on_c, 0, 37, 0
2, 206154, Note_on_c, 0, 73, 0
2, 206158, Note_on_c, 0, 42, 68
2, 206162, Note_on_c, 0, 73, 73
2, 206163, Note_on_c, 0, 70, 80
2, 206165, Control_c, 0, 64, 0
2, 206166, Note_on_c, 0, 54, 62
2, 206176, Note_on_c, 0, 82, 0
2, 206178, Note_on_c, 0, 65, 0
2, 206179, Note_on_c, 0, 61, 0
2, 206180, Note_on_c, 0, 68, 0
2, 206180, Note_on_c, 0, 53, 0
2, 206192, Note_on_c, 0, 56, 0
2, 206254, Control_c, 0, 64, 127
2, 206389, Note_on_c, 0, 78, 85
2, 206513, Note_on_c, 0, 49, 59
2, 206691, Note_on_c, 0, 70, 0
2, 206691, Note_on_c, 0, 78, 0
2, 206696, Note_on_c, 0, 78, 90
2, 206702, Note_on_c, 0, 70, 78
2, 206722, Note_on_c, 0, 73, 0
2, 206728, Note_on_c, 0, 73, 64
2, 206876, Note_on_c, 0, 56, 59
2, 207198, Note_on_c, 0, 49, 0
2, 207208, Note_on_c, 0, 49, 56
2, 207538, Note_on_c, 0, 58, 70
2, 207882, Note_on_c, 0, 54, 0
2, 207889, Note_on_c, 0, 54, 58
2, 208259, Note_on_c, 0, 61, 60
2, 208596, Note_on_c, 0, 80, 0
2, 208604, Note_on_c, 0, 80, 88
2, 208840, Note_on_c, 0, 82, 75
2, 208957, Note_on_c, 0, 80, 0
2, 208961, Control_c, 0, 64, 0
2, 208961, Note_on_c, 0, 80, 79
2, 208964, Note_on_c, 0, 58, 0
2, 208964, Note_on_c, 0, 47, 62
2, 208965, Note_on_c, 0, 56, 0
2, 208966, Note_on_c, 0, 78, 0
2, 208966, Note_on_c, 0, 42, 0
2, 208966, Note_on_c, 0, 73, 0
2, 208966, Note_on_c, 0, 61, 0
2, 208966, Note_on_c, 0, 54, 0
2, 208966, Note_on_c, 0, 49, 0
2, 208968, Note_on_c, 0, 82, 0
2, 208969, Note_on_c, 0, 59, 66
2, 208978, Note_on_c, 0, 75, 73
2, 208980, Note_on_c, 0, 70, 0
2, 208982, Note_on_c, 0, 71, 70
2, 209111, Control_c, 0, 64, 127
2, 209204, Note_on_c, 0, 78, 79
2, 209533, Note_on_c, 0, 78, 0
2, 209543, Note_on_c, 0, 78, 85
2, 209694, Note_on_c, 0, 63, 43
2, 209695, Note_on_c, 0, 66, 51
2, 210382, Note_on_c, 0, 68, 58
2, 210389, Note_on_c, 0, 65, 57
2, 210390, Note_on_c, 0, 49, 47
2, 210391, Note_on_c, 0, 61, 50
2, 210406, Control_c, 0, 64, 0
2, 210406, Note_on_c, 0, 80, 0
2, 210407, Note_on_c, 0, 71, 0
2, 210407, Note_on_c, 0, 59, 0
2, 210407, Note_on_c, 0, 78, 0
2, 210409, Note_on_c, 0, 75, 0
2, 210409, Note_on_c, 0, 63, 0
2, 210409, Note_on_c, 0, 66, 0
2, 210424, Note_on_c, 0, 47, 0
2, 210516, Control_c, 0, 64, 127
2, 210743, Note_on_c, 0, 56, 57
2, 211077, Note_on_c, 0, 61, 0
2, 211077, Note_on_c, 0, 65, 0
2, 211086, Note_on_c, 0, 61, 56
2, 211087, Note_on_c, 0, 65, 63
2, 211434, Note_on_c, 0, 80, 92
2, 211662, Note_on_c, 0, 82, 84
2, 211764, Control_c, 0, 64, 0
2, 211766, Note_on_c, 0, 56, 0
2, 211768, Note_on_c, 0, 49, 0
2, 211776, Note_on_c, 0, 80, 0
2, 211783, Note_on_c, 0, 65, 0
2, 211783, Note_on_c, 0, 68, 0
2, 211787, Note_on_c, 0, 80, 82
2, 211791, Note_on_c, 0, 61, 0
2, 211796, Note_on_c, 0, 58, 58
2, 211798, Note_on_c, 0, 51, 53
2, 211802, Note_on_c, 0, 66, 56
2, 211803, Note_on_c, 0, 73, 62
2, 211804, Note_on_c, 0, 70, 70
2, 211875, Note_on_c, 0, 82, 0
2, 211944, Control_c, 0, 64, 127
2, 212034, Note_on_c, 0, 78, 82
2, 212336, Note_on_c, 0, 78, 0
2, 212343, Note_on_c, 0, 78, 86
2, 212505, Note_on_c, 0, 66, 0
2, 212516, Note_on_c, 0, 63, 44
2, 212516, Note_on_c, 0, 66, 53
2, 213179, Note_on_c, 0, 58, 0
2, 213180, Note_on_c, 0, 51, 0
2, 213180, Note_on_c, 0, 80, 0
2, 213181, Note_on_c, 0, 63, 0
2, 213182, Control_c, 0, 64, 0
2, 213182, Note_on_c, 0, 70, 0
2, 213182, Note_on_c, 0, 73, 0
2, 213182, Note_on_c, 0, 78, 0
2, 213183, Note_on_c, 0, 66, 0
2, 213193, Note_on_c, 0, 61, 55
2, 213199, Note_on_c, 0, 46, 56
2, 213206, Note_on_c, 0, 68, 56
2, 213208, Note_on_c, 0, 65, 57
2, 213342, Control_c, 0, 64, 127
2, 213541, Note_on_c, 0, 53, 54
2, 213895, Note_on_c, 0, 65, 0
2, 213901, Note_on_c, 0, 65, 58
2, 213911, Note_on_c, 0, 61, 0
2, 213915, Note_on_c, 0, 61, 49
2, 213915, Note_on_c, 0, 56, 56
2, 214223, Note_on_c, 0, 80, 87
2, 214455, Note_on_c, 0, 82, 80
2, 214552, Control_c, 0, 64, 0
2, 214555, Note_on_c, 0, 68, 0
2, 214555, Note_on_c, 0, 46, 0
2, 214556, Note_on_c, 0, 80, 0
2, 214557, Note_on_c, 0, 61, 0
2, 214557, Note_on_c, 0, 53, 0
2, 214558, Note_on_c, 0, 65, 0
2, 214558, Note_on_c, 0, 56, 0
2, 214559, Note_on_c, 0, 82, 0
2, 214565, Note_on_c, 0, 80, 81
2, 214586, Note_on_c, 0, 47, 57
2, 214591, Note_on_c, 0, 75, 68
2, 214592, Note_on_c, 0, 71, 58
2, 214597, Note_on_c, 0, 70, 64
2, 214755, Control_c, 0, 64, 127
2, 214834, Note_on_c, 0, 78, 84
2, 215147, Note_on_c, 0, 78, 0
2, 215153, Note_on_c, 0, 78, 84
2, 215297, Note_on_c, 0, 63, 41
2, 215336, Note_on_c, 0, 59, 48
2, 215997, Note_on_c, 0, 80, 0
2, 215997, Note_on_c, 0, 75, 0
2, 215998, Note_on_c, 0, 63, 0
2, 215998, Note_on_c, 0, 59, 0
2, 215998, Note_on_c, 0, 78, 0
2, 215999, Note_on_c, 0, 47, 0
2, 216000, Note_on_c, 0, 70, 0
2, 216001, Control_c, 0, 64, 0
2, 216007, Note_on_c, 0, 71, 0
2, 216009, Note_on_c, 0, 68, 55
2, 216020, Note_on_c, 0, 49, 48
2, 216025, Note_on_c, 0, 65, 59
2, 216025, Note_on_c, 0, 61, 50
2, 216176, Control_c, 0, 64, 127
2, 216357, Note_on_c, 0, 56, 64
2, 216706, Note_on_c, 0, 65, 0
2, 216712, Note_on_c, 0, 65, 55
2, 216714, Note_on_c, 0, 61, 0
2, 216725, Note_on_c, 0, 61, 46
2, 217065, Note_on_c, 0, 80, 86
2, 217278, Note_on_c, 0, 82, 79
2, 217405, Note_on_c, 0, 80, 0
2, 217415, Note_on_c, 0, 80, 80
2, 217432, Note_on_c, 0, 54, 57
2, 217433, Control_c, 0, 64, 0
2, 217437, Note_on_c, 0, 73, 65
2, 217439, Note_on_c, 0, 70, 71
2, 217439, Note_on_c, 0, 66, 57
2, 217446, Note_on_c, 0, 82, 0
2, 217446, Note_on_c, 0, 49, 0
2, 217448, Note_on_c, 0, 56, 0
2, 217466, Note_on_c, 0, 65, 0
2, 217474, Note_on_c, 0, 68, 0
2, 217628, Control_c, 0, 64, 127
2, 217657, Note_on_c, 0, 78, 80
2, 217966, Note_on_c, 0, 78, 0
2, 217973, Note_on_c, 0, 78, 79
2, 218133, Note_on_c, 0, 68, 61
2, 218472, Note_on_c, 0, 61, 0
2, 218477, Note_on_c, 0, 61, 54
2, 218826, Note_on_c, 0, 70, 0
2, 218832, Note_on_c, 0, 70, 75
2, 219171, Note_on_c, 0, 66, 0
2, 219176, Note_on_c, 0, 66, 56
2, 219548, Note_on_c, 0, 73, 0
2, 219552, Note_on_c, 0, 73, 54
2, 219904, Note_on_c, 0, 92, 82
2, 220120, Note_on_c, 0, 94, 78
2, 220254, Note_on_c, 0, 92, 0
2, 220265, Note_on_c, 0, 92, 86
2, 220270, Note_on_c, 0, 66, 0
2, 220273, Note_on_c, 0, 68, 0
2, 220274, Note_on_c, 0, 70, 0
2, 220274, Note_on_c, 0, 59, 58
2, 220275, Note_on_c, 0, 54, 0
2, 220275, Note_on_c, 0, 78, 0
2, 220275, Note_on_c, 0, 61, 0
2, 220276, Note_on_c, 0, 66, 57
2, 220276, Note_on_c, 0, 73, 0
2, 220276, Note_on_c, 0, 71, 59
2, 220285, Note_on_c, 0, 83, 57
2, 220287, Control_c, 0, 64, 0
2, 220291, Note_on_c, 0, 87, 53
2, 220293, Note_on_c, 0, 80, 0
2, 220293, Note_on_c, 0, 94, 0
2, 220454, Control_c, 0, 64, 127
2, 220526, Note_on_c, 0, 90, 84
2, 220838, Note_on_c, 0, 90, 0
2, 220842, Note_on_c, 0, 90, 91
2, 220992, Note_on_c, 0, 75, 71
2, 221719, Note_on_c, 0, 61, 52
2, 221738, Note_on_c, 0, 73, 49
2, 221739, Note_on_c, 0, 77, 62
2, 221740, Note_on_c, 0, 68, 56
2, 221751, Control_c, 0, 64, 0
2, 221754, Note_on_c, 0, 75, 0
2, 221755, Note_on_c, 0, 71, 0
2, 221755, Note_on_c, 0, 66, 0
2, 221755, Note_on_c, 0, 90, 0
2, 221756, Note_on_c, 0, 59, 0
2, 221760, Note_on_c, 0, 83, 0
2, 221767, Note_on_c, 0, 92, 0
2, 221783, Note_on_c, 0, 87, 0
2, 222136, Control_c, 0, 64, 127
2, 222876, Note_on_c, 0, 92, 91
2, 223099, Note_on_c, 0, 94, 80
2, 223219, Note_on_c, 0, 92, 0
2, 223224, Note_on_c, 0, 92, 89
2, 223241, Note_on_c, 0, 70, 60
2, 223244, Note_on_c, 0, 66, 63
2, 223252, Control_c, 0, 64, 0
2, 223255, Note_on_c, 0, 63, 55
2, 223263, Note_on_c, 0, 77, 0
2, 223264, Note_on_c, 0, 73, 0
2, 223265, Note_on_c, 0, 61, 0
2, 223267, Note_on_c, 0, 68, 0
2, 223426, Control_c, 0, 64, 127
2, 223462, Note_on_c, 0, 90, 80
2, 223772, Note_on_c, 0, 90, 0
2, 223777, Note_on_c, 0, 90, 82
2, 223954, Note_on_c, 0, 78, 69
2, 223967, Note_on_c, 0, 73, 43
2, 224678, Note_on_c, 0, 94, 0
2, 224696, Note_on_c, 0, 77, 58
2, 224701, Note_on_c, 0, 73, 0
2, 224705, Note_on_c, 0, 58, 45
2, 224712, Note_on_c, 0, 65, 54
2, 224712, Note_on_c, 0, 73, 46
2, 224716, Note_on_c, 0, 92, 0
2, 224728, Control_c, 0, 64, 0
2, 224728, Note_on_c, 0, 70, 0
2, 224728, Note_on_c, 0, 90, 0
2, 224728, Note_on_c, 0, 63, 0
2, 224729, Note_on_c, 0, 66, 0
2, 224729, Note_on_c, 0, 78, 0
2, 225016, Control_c, 0, 64, 127
2, 225860, Note_on_c, 0, 92, 84
2, 226104, Note_on_c, 0, 94, 85
2, 226214, Note_on_c, 0, 92, 0
2, 226218, Control_c, 0, 64, 0
2, 226218, Note_on_c, 0, 65, 0
2, 226219, Note_on_c, 0, 58, 0
2, 226222, Note_on_c, 0, 77, 0
2, 226225, Note_on_c, 0, 92, 86
2, 226237, Note_on_c, 0, 73, 0
2, 226240, Note_on_c, 0, 70, 60
2, 226241, Note_on_c, 0, 59, 51
2, 226241, Note_on_c, 0, 66, 57
2, 226406, Control_c, 0, 64, 127
2, 226466, Note_on_c, 0, 90, 85
2, 226798, Note_on_c, 0, 90, 0
2, 226808, Note_on_c, 0, 90, 92
2, 226966, Note_on_c, 0, 75, 67
2, 227738, Note_on_c, 0, 77, 59
2, 227739, Note_on_c, 0, 68, 50
2, 227741, Note_on_c, 0, 61, 46
2, 227741, Note_on_c, 0, 73, 50
2, 227750, Note_on_c, 0, 94, 0
2, 227761, Note_on_c, 0, 59, 0
2, 227762, Note_on_c, 0, 66, 0
2, 227762, Note_on_c, 0, 70, 0
2, 227763, Note_on_c, 0, 75, 0
2, 227763, Control_c, 0, 64, 0
2, 227781, Note_on_c, 0, 92, 0
2, 227788, Note_on_c, 0, 90, 0
2, 227942, Control_c, 0, 64, 127
2, 228625, Note_on_c, 0, 73, 0
2, 228630, Note_on_c, 0, 73, 44
2, 229230, Note_on_c, 0, 94, 87
2, 231371, Note_on_c, 0, 80, 62
2, 231384, Note_on_c, 0, 73, 0
2, 231387, Control_c, 0, 64, 0
2, 231421, Control_c, 0, 64, 127
2, 231450, Note_on_c, 0, 54, 51
2, 231453, Note_on_c, 0, 83, 63
2, 231498, Note_on_c, 0, 94, 0
2, 231514, Note_on_c, 0, 89, 79
2, 231585, Note_on_c, 0, 92, 91
2, 232281, Note_on_c, 0, 61, 0
2, 232289, Note_on_c, 0, 61, 58
2, 232320, Note_on_c, 0, 68, 0
2, 232320, Note_on_c, 0, 77, 0
2, 232839, Note_on_c, 0, 65, 57
2, 233375, Note_on_c, 0, 68, 64
2, 234068, Note_on_c, 0, 73, 53
2, 234069, Note_on_c, 0, 71, 33
2, 234070, Note_on_c, 0, 77, 45
2, 235975, Note_on_c, 0, 80, 0
2, 236057, Note_on_c, 0, 90, 76
2, 236060, Note_on_c, 0, 54, 0
2, 236060, Note_on_c, 0, 83, 0
2, 236121, Note_on_c, 0, 89, 0
2, 236160, Note_on_c, 0, 61, 0
2, 236160, Note_on_c, 0, 65, 0
2, 236160, Note_on_c, 0, 68, 0
2, 236160, Note_on_c, 0, 71, 0
2, 236160, Note_on_c, 0, 73, 0
2, 236160, Note_on_c, 0, 77, 0
2, 236160, Note_on_c, 0, 92, 0
2, 237063, Note_on_c, 0, 54, 46
2, 237191, Note_on_c, 0, 61, 62
2, 237296, Note_on_c, 0, 68, 39
2, 237314, Note_on_c, 0, 70, 53
2, 237378, Note_on_c, 0, 78, 68
2, 237469, Note_on_c, 0, 82, 71
2, 237472, Control_c, 0, 64, 0
2, 237558, Note_on_c, 0, 85, 74
2, 237565, Note_on_c, 0, 90, 0
2, 237645, Note_on_c, 0, 90, 82
2, 238026, Note_on_c, 0, 68, 0
2, 238295, Control_c, 0, 64, 127
2, 240000, Note_on_c, 0, 54, 0
2, 240000, Note_on_c, 0, 61, 0
2, 240000, Note_on_c, 0, 70, 0
2, 240000, Note_on_c, 0, 78, 0
2, 240000, Note_on_c, 0, 82, 0
2, 240000, Note_on_c, 0, 85, 0
2, 240000, Note_on_c, 0, 90, 0
2, 240015, Control_c, 0, 64, 0
2, 240099, Control_c, 0, 64, 127
2, 240391, Control_c, 0, 64, 0
2, 242641, Control_c, 0, 64, 127
2, 243710, Control_c, 0, 64, 0
2, 243711, End_track
0, 0, End_of_file
