0, 0, Header, 1, 2, 384
1, 0, Start_track
1, 0, Tempo, 500000
1, 0, Time_signature, 4, 2, 24, 8
1, 1, End_track
2, 0, Start_track
2, 1670, Note_on_c, 0, 37, 98
2, 1671, Note_on_c, 0, 44, 88
2, 1672, Note_on_c, 0, 49, 95
2, 1675, Note_on_c, 0, 85, 101
2, 1677, Note_on_c, 0, 73, 100
2, 1679, Note_on_c, 0, 80, 87
2, 1680, Note_on_c, 0, 76, 96
2, 1681, Control_c, 0, 64, 127
2, 1804, Note_on_c, 0, 37, 0
2, 1804, Note_on_c, 0, 44, 0
2, 1804, Note_on_c, 0, 49, 0
2, 1804, Note_on_c, 0, 73, 0
2, 1804, Note_on_c, 0, 76, 0
2, 1804, Note_on_c, 0, 80, 0
2, 1804, Note_on_c, 0, 85, 0
2, 1809, Note_on_c, 0, 85, 95
2, 1810, Note_on_c, 0, 49, 94
2, 1810, Note_on_c, 0, 80, 85
2, 1811, Note_on_c, 0, 37, 95
2, 1813, Note_on_c, 0, 44, 84
2, 1814, Note_on_c, 0, 73, 93
2, 1816, Note_on_c, 0, 76, 87
2, 1854, Note_on_c, 0, 80, 0
2, 1854, Control_c, 0, 64, 0
2, 1854, Note_on_c, 0, 44, 0
2, 1855, Note_on_c, 0, 49, 0
2, 1855, Note_on_c, 0, 76, 0
2, 1855, Note_on_c, 0, 37, 0
2, 1855, Note_on_c, 0, 85, 0
2, 1857, Note_on_c, 0, 73, 0
2, 2070, Note_on_c, 0, 45, 100
2, 2075, Note_on_c, 0, 33, 94
2, 2076, Note_on_c, 0, 69, 100
2, 2076, Note_on_c, 0, 81, 104
2, 2077, Note_on_c, 0, 76, 96
2, 2078, Note_on_c, 0, 40, 93
2, 2078, Note_on_c, 0, 85, 91
2, 2080, Note_on_c, 0, 73, 92
2, 2088, Note_on_c, 0, 85, 0
2, 2096, Control_c, 0, 64, 127
2, 2204, Note_on_c, 0, 81, 0
2, 2211, Note_on_c, 0, 33, 0
2, 2211, Note_on_c, 0, 40, 0
2, 2211, Note_on_c, 0, 69, 0
2, 2211, Note_on_c, 0, 73, 0
2, 2211, Note_on_c, 0, 76, 0
2, 2213, Note_on_c, 0, 81, 99
2, 2215, Note_on_c, 0, 40, 86
2, 2216, Note_on_c, 0, 33, 86
2, 2216, Note_on_c, 0, 69, 92
2, 2216, Note_on_c, 0, 76, 90
2, 2217, Note_on_c, 0, 73, 86
2, 2275, Control_c, 0, 64, 0
2, 2275, Note_on_c, 0, 69, 0
2, 2277, Note_on_c, 0, 81, 0
2, 2277, Note_on_c, 0, 76, 0
2, 2277, Note_on_c, 0, 33, 0
2, 2277, Note_on_c, 0, 45, 0
2, 2277, Note_on_c, 0, 73, 0
2, 2278, Note_on_c, 0, 40, 0
2, 2487, Note_on_c, 0, 83, 103
2, 2491, Note_on_c, 0, 75, 97
2, 2491, Note_on_c, 0, 35, 93
2, 2492, Note_on_c, 0, 47, 100
2, 2492, Note_on_c, 0, 71, 92
2, 2492, Note_on_c, 0, 78, 94
2, 2519, Control_c, 0, 64, 127
2, 2618, Note_on_c, 0, 35, 0
2, 2618, Note_on_c, 0, 47, 0
2, 2618, Note_on_c, 0, 71, 0
2, 2618, Note_on_c, 0, 83, 0
2, 2623, Note_on_c, 0, 42, 92
2, 2626, Note_on_c, 0, 75, 0
2, 2626, Note_on_c, 0, 78, 0
2, 2627, Note_on_c, 0, 35, 90
2, 2628, Note_on_c, 0, 47, 94
2, 2629, Note_on_c, 0, 71, 97
2, 2630, Note_on_c, 0, 83, 102
2, 2631, Note_on_c, 0, 75, 100
2, 2632, Note_on_c, 0, 78, 94
2, 3178, Note_on_c, 0, 47, 0
2, 3183, Control_c, 0, 64, 0
2, 3187, Note_on_c, 0, 35, 0
2, 3194, Note_on_c, 0, 83, 0
2, 3202, Note_on_c, 0, 42, 0
2, 3202, Note_on_c, 0, 71, 0
2, 3202, Note_on_c, 0, 75, 0
2, 3202, Note_on_c, 0, 78, 0
2, 3546, Note_on_c, 0, 81, 84
2, 3552, Note_on_c, 0, 66, 65
2, 3556, Note_on_c, 0, 63, 56
2, 3558, Note_on_c, 0, 69, 61
2, 3560, Note_on_c, 0, 78, 67
2, 3564, Note_on_c, 0, 75, 64
2, 3632, Control_c, 0, 64, 127
2, 4079, Note_on_c, 0, 78, 0
2, 4079, Note_on_c, 0, 69, 0
2, 4079, Note_on_c, 0, 81, 0
2, 4079, Note_on_c, 0, 66, 0
2, 4079, Note_on_c, 0, 75, 0
2, 4080, Note_on_c, 0, 63, 0
2, 4083, Control_c, 0, 64, 0
2, 4105, Note_on_c, 0, 80, 84
2, 4107, Note_on_c, 0, 61, 57
2, 4112, Note_on_c, 0, 64, 60
2, 4113, Note_on_c, 0, 68, 62
2, 4116, Note_on_c, 0, 76, 73
2, 4118, Note_on_c, 0, 73, 64
2, 4224, Control_c, 0, 64, 127
2, 4385, Note_on_c, 0, 73, 0
2, 4394, Note_on_c, 0, 73, 49
2, 4423, Note_on_c, 0, 76, 0
2, 4427, Note_on_c, 0, 76, 40
2, 4477, Note_on_c, 0, 80, 0
2, 4481, Note_on_c, 0, 80, 61
2, 4523, Note_on_c, 0, 73, 0
2, 4531, Note_on_c, 0, 76, 0
2, 4534, Note_on_c, 0, 73, 55
2, 4541, Note_on_c, 0, 76, 54
2, 4584, Note_on_c, 0, 80, 0
2, 4593, Note_on_c, 0, 80, 62
2, 4661, Note_on_c, 0, 76, 0
2, 4669, Note_on_c, 0, 73, 0
2, 4673, Note_on_c, 0, 76, 59
2, 4675, Note_on_c, 0, 73, 41
2, 4730, Note_on_c, 0, 80, 0
2, 4740, Note_on_c, 0, 80, 59
2, 4800, Note_on_c, 0, 73, 0
2, 4800, Note_on_c, 0, 76, 0
2, 4809, Note_on_c, 0, 73, 50
2, 4811, Note_on_c, 0, 76, 42
2, 4861, Note_on_c, 0, 80, 0
2, 4871, Note_on_c, 0, 80, 62
2, 4930, Note_on_c, 0, 73, 0
2, 4938, Note_on_c, 0, 76, 0
2, 4942, Note_on_c, 0, 73, 47
2, 4943, Note_on_c, 0, 76, 60
2, 4984, Note_on_c, 0, 68, 0
2, 4992, Note_on_c, 0, 68, 12
2, 5007, Note_on_c, 0, 80, 0
2, 5012, Note_on_c, 0, 80, 32
2, 5076, Note_on_c, 0, 73, 0
2, 5076, Note_on_c, 0, 76, 0
2, 5083, Note_on_c, 0, 73, 48
2, 5087, Note_on_c, 0, 76, 39
2, 5130, Note_on_c, 0, 80, 0
2, 5140, Note_on_c, 0, 80, 60
2, 5199, Note_on_c, 0, 73, 0
2, 5207, Note_on_c, 0, 76, 0
2, 5209, Note_on_c, 0, 73, 52
2, 5211, Note_on_c, 0, 76, 37
2, 5260, Note_on_c, 0, 80, 0
2, 5269, Note_on_c, 0, 80, 66
2, 5329, Note_on_c, 0, 73, 0
2, 5338, Note_on_c, 0, 73, 53
2, 5360, Note_on_c, 0, 76, 0
2, 5364, Note_on_c, 0, 76, 37
2, 5406, Note_on_c, 0, 80, 0
2, 5411, Note_on_c, 0, 80, 50
2, 5475, Note_on_c, 0, 73, 0
2, 5475, Note_on_c, 0, 76, 0
2, 5479, Note_on_c, 0, 73, 39
2, 5482, Note_on_c, 0, 76, 50
2, 5529, Note_on_c, 0, 80, 0
2, 5533, Note_on_c, 0, 80, 62
2, 5591, Note_on_c, 0, 76, 0
2, 5598, Note_on_c, 0, 73, 0
2, 5601, Note_on_c, 0, 76, 62
2, 5606, Note_on_c, 0, 73, 48
2, 5652, Note_on_c, 0, 76, 0
2, 5652, Note_on_c, 0, 80, 0
2, 5660, Note_on_c, 0, 80, 64
2, 5662, Note_on_c, 0, 76, 50
2, 5721, Note_on_c, 0, 73, 0
2, 5721, Note_on_c, 0, 76, 0
2, 5729, Note_on_c, 0, 73, 52
2, 5730, Note_on_c, 0, 76, 45
2, 5790, Note_on_c, 0, 80, 0
2, 5795, Note_on_c, 0, 80, 63
2, 5852, Note_on_c, 0, 76, 0
2, 5856, Note_on_c, 0, 76, 63
2, 5882, Note_on_c, 0, 73, 0
2, 5887, Note_on_c, 0, 73, 42
2, 5921, Note_on_c, 0, 80, 0
2, 5930, Note_on_c, 0, 80, 50
2, 6005, Note_on_c, 0, 73, 0
2, 6005, Note_on_c, 0, 76, 0
2, 6009, Note_on_c, 0, 73, 42
2, 6010, Note_on_c, 0, 76, 60
2, 6059, Note_on_c, 0, 76, 0
2, 6059, Note_on_c, 0, 80, 0
2, 6064, Note_on_c, 0, 80, 55
2, 6067, Note_on_c, 0, 76, 52
2, 6136, Note_on_c, 0, 76, 0
2, 6142, Note_on_c, 0, 76, 62
2, 6144, Note_on_c, 0, 73, 0
2, 6148, Note_on_c, 0, 73, 54
2, 6205, Note_on_c, 0, 80, 0
2, 6213, Note_on_c, 0, 80, 43
2, 6274, Note_on_c, 0, 76, 0
2, 6283, Note_on_c, 0, 45, 74
2, 6285, Note_on_c, 0, 76, 63
2, 6315, Note_on_c, 0, 73, 0
2, 6315, Note_on_c, 0, 68, 0
2, 6315, Note_on_c, 0, 64, 0
2, 6316, Note_on_c, 0, 61, 0
2, 6322, Control_c, 0, 64, 0
2, 6336, Note_on_c, 0, 80, 0
2, 6342, Note_on_c, 0, 80, 58
2, 6382, Control_c, 0, 64, 127
2, 6405, Note_on_c, 0, 76, 0
2, 6412, Note_on_c, 0, 44, 66
2, 6414, Note_on_c, 0, 76, 61
2, 6417, Note_on_c, 0, 73, 57
2, 6489, Note_on_c, 0, 80, 0
2, 6497, Note_on_c, 0, 76, 0
2, 6500, Note_on_c, 0, 80, 54
2, 6502, Note_on_c, 0, 76, 51
2, 6535, Note_on_c, 0, 45, 0
2, 6543, Note_on_c, 0, 73, 0
2, 6543, Note_on_c, 0, 76, 0
2, 6546, Note_on_c, 0, 45, 66
2, 6548, Note_on_c, 0, 76, 63
2, 6553, Note_on_c, 0, 73, 58
2, 6604, Note_on_c, 0, 80, 0
2, 6609, Note_on_c, 0, 80, 68
2, 6681, Note_on_c, 0, 76, 0
2, 6682, Note_on_c, 0, 47, 79
2, 6683, Note_on_c, 0, 78, 68
2, 6689, Note_on_c, 0, 73, 0
2, 6690, Note_on_c, 0, 76, 64
2, 6692, Note_on_c, 0, 80, 0
2, 6693, Note_on_c, 0, 44, 0
2, 6696, Control_c, 0, 64, 0
2, 6699, Note_on_c, 0, 73, 58
2, 6720, Note_on_c, 0, 45, 0
2, 6720, Note_on_c, 0, 78, 0
2, 6750, Note_on_c, 0, 76, 0
2, 6768, Note_on_c, 0, 80, 53
2, 6796, Control_c, 0, 64, 127
2, 6827, Note_on_c, 0, 73, 0
2, 6837, Note_on_c, 0, 73, 60
2, 6838, Note_on_c, 0, 76, 51
2, 6896, Note_on_c, 0, 80, 0
2, 6907, Note_on_c, 0, 80, 58
2, 6960, Note_on_c, 0, 45, 69
2, 6965, Note_on_c, 0, 76, 0
2, 6971, Note_on_c, 0, 76, 65
2, 7011, Note_on_c, 0, 73, 0
2, 7021, Note_on_c, 0, 73, 47
2, 7034, Note_on_c, 0, 80, 0
2, 7045, Note_on_c, 0, 80, 62
2, 7080, Note_on_c, 0, 47, 0
2, 7084, Note_on_c, 0, 47, 73
2, 7111, Note_on_c, 0, 76, 0
2, 7119, Note_on_c, 0, 73, 0
2, 7123, Note_on_c, 0, 76, 64
2, 7123, Note_on_c, 0, 73, 64
2, 7165, Note_on_c, 0, 73, 0
2, 7173, Note_on_c, 0, 73, 62
2, 7179, Note_on_c, 0, 76, 0
2, 7180, Note_on_c, 0, 45, 0
2, 7181, Control_c, 0, 64, 0
2, 7181, Note_on_c, 0, 47, 0
2, 7219, Note_on_c, 0, 80, 0
2, 7223, Note_on_c, 0, 49, 80
2, 7250, Note_on_c, 0, 76, 63
2, 7272, Note_on_c, 0, 73, 0
2, 7277, Note_on_c, 0, 73, 47
2, 7323, Note_on_c, 0, 80, 59
2, 7372, Note_on_c, 0, 76, 0
2, 7378, Note_on_c, 0, 76, 49
2, 7380, Note_on_c, 0, 73, 0
2, 7391, Note_on_c, 0, 73, 49
2, 7449, Note_on_c, 0, 80, 0
2, 7455, Note_on_c, 0, 80, 57
2, 7497, Note_on_c, 0, 47, 75
2, 7498, Note_on_c, 0, 78, 60
2, 7518, Note_on_c, 0, 49, 0
2, 7534, Note_on_c, 0, 73, 0
2, 7534, Control_c, 0, 64, 127
2, 7542, Note_on_c, 0, 73, 57
2, 7587, Note_on_c, 0, 80, 0
2, 7594, Note_on_c, 0, 80, 63
2, 7636, Note_on_c, 0, 49, 74
2, 7641, Note_on_c, 0, 76, 0
2, 7646, Note_on_c, 0, 76, 71
2, 7649, Note_on_c, 0, 73, 0
2, 7655, Note_on_c, 0, 73, 61
2, 7710, Note_on_c, 0, 80, 0
2, 7721, Note_on_c, 0, 80, 58
2, 7766, Note_on_c, 0, 51, 86
2, 7779, Note_on_c, 0, 76, 0
2, 7788, Note_on_c, 0, 76, 59
2, 7798, Note_on_c, 0, 47, 0
2, 7799, Note_on_c, 0, 49, 0
2, 7802, Note_on_c, 0, 73, 0
2, 7803, Control_c, 0, 64, 0
2, 7809, Note_on_c, 0, 73, 50
2, 7810, Note_on_c, 0, 78, 0
2, 7841, Note_on_c, 0, 73, 0
2, 7841, Note_on_c, 0, 80, 0
2, 7848, Note_on_c, 0, 80, 70
2, 7899, Note_on_c, 0, 52, 86
2, 7918, Note_on_c, 0, 76, 0
2, 7922, Note_on_c, 0, 76, 64
2, 7924, Note_on_c, 0, 73, 62
2, 7971, Note_on_c, 0, 80, 0
2, 7979, Note_on_c, 0, 76, 0
2, 7982, Note_on_c, 0, 80, 64
2, 7983, Note_on_c, 0, 76, 53
2, 8025, Note_on_c, 0, 51, 0
2, 8025, Note_on_c, 0, 73, 0
2, 8033, Note_on_c, 0, 76, 0
2, 8033, Note_on_c, 0, 51, 81
2, 8037, Note_on_c, 0, 73, 60
2, 8043, Note_on_c, 0, 76, 64
2, 8087, Note_on_c, 0, 73, 0
2, 8096, Note_on_c, 0, 52, 0
2, 8098, Note_on_c, 0, 73, 53
2, 8102, Note_on_c, 0, 76, 0
2, 8102, Note_on_c, 0, 80, 0
2, 8108, Note_on_c, 0, 76, 44
2, 8108, Note_on_c, 0, 80, 68
2, 8163, Note_on_c, 0, 76, 0
2, 8170, Note_on_c, 0, 49, 81
2, 8171, Note_on_c, 0, 73, 0
2, 8175, Note_on_c, 0, 76, 67
2, 8177, Note_on_c, 0, 73, 72
2, 8208, Note_on_c, 0, 51, 0
2, 8220, Note_on_c, 0, 49, 0
2, 8232, Note_on_c, 0, 76, 0
2, 8232, Note_on_c, 0, 80, 0
2, 8238, Note_on_c, 0, 80, 65
2, 8238, Note_on_c, 0, 76, 56
2, 8279, Note_on_c, 0, 73, 0
2, 8297, Note_on_c, 0, 47, 83
2, 8302, Note_on_c, 0, 76, 0
2, 8313, Note_on_c, 0, 76, 63
2, 8316, Note_on_c, 0, 73, 65
2, 8363, Note_on_c, 0, 80, 0
2, 8369, Note_on_c, 0, 80, 70
2, 8417, Note_on_c, 0, 73, 0
2, 8432, Note_on_c, 0, 45, 81
2, 8432, Note_on_c, 0, 76, 0
2, 8434, Note_on_c, 0, 47, 0
2, 8436, Note_on_c, 0, 76, 68
2, 8442, Note_on_c, 0, 73, 60
2, 8494, Note_on_c, 0, 73, 0
2, 8494, Note_on_c, 0, 80, 0
2, 8498, Note_on_c, 0, 73, 62
2, 8499, Note_on_c, 0, 80, 68
2, 8562, Note_on_c, 0, 78, 71
2, 8563, Note_on_c, 0, 73, 0
2, 8566, Note_on_c, 0, 44, 80
2, 8567, Note_on_c, 0, 73, 64
2, 8624, Note_on_c, 0, 80, 0
2, 8629, Note_on_c, 0, 80, 69
2, 8678, Note_on_c, 0, 45, 0
2, 8686, Note_on_c, 0, 76, 0
2, 8688, Note_on_c, 0, 45, 81
2, 8691, Note_on_c, 0, 76, 68
2, 8693, Note_on_c, 0, 73, 0
2, 8702, Note_on_c, 0, 73, 52
2, 8732, Note_on_c, 0, 78, 0
2, 8755, Note_on_c, 0, 76, 0
2, 8755, Note_on_c, 0, 80, 0
2, 8762, Note_on_c, 0, 80, 68
2, 8765, Note_on_c, 0, 76, 55
2, 8822, Note_on_c, 0, 47, 87
2, 8824, Note_on_c, 0, 73, 0
2, 8824, Note_on_c, 0, 76, 0
2, 8827, Note_on_c, 0, 78, 75
2, 8829, Note_on_c, 0, 45, 0
2, 8831, Note_on_c, 0, 76, 68
2, 8832, Note_on_c, 0, 44, 0
2, 8835, Note_on_c, 0, 73, 68
2, 8885, Note_on_c, 0, 73, 0
2, 8885, Note_on_c, 0, 80, 0
2, 8891, Note_on_c, 0, 73, 64
2, 8893, Note_on_c, 0, 80, 66
2, 8916, Note_on_c, 0, 76, 0
2, 8962, Note_on_c, 0, 73, 0
2, 8968, Note_on_c, 0, 76, 64
2, 8974, Note_on_c, 0, 73, 64
2, 9024, Note_on_c, 0, 80, 0
2, 9029, Note_on_c, 0, 80, 65
2, 9077, Note_on_c, 0, 78, 0
2, 9080, Note_on_c, 0, 47, 0
2, 9089, Note_on_c, 0, 45, 78
2, 9093, Note_on_c, 0, 73, 0
2, 9093, Note_on_c, 0, 76, 0
2, 9097, Note_on_c, 0, 76, 64
2, 9104, Note_on_c, 0, 73, 62
2, 9154, Note_on_c, 0, 80, 0
2, 9159, Note_on_c, 0, 80, 71
2, 9223, Note_on_c, 0, 76, 0
2, 9228, Note_on_c, 0, 47, 81
2, 9235, Note_on_c, 0, 76, 69
2, 9269, Control_c, 0, 64, 127
2, 9308, Note_on_c, 0, 80, 0
2, 9316, Note_on_c, 0, 80, 65
2, 9349, Note_on_c, 0, 45, 0
2, 9354, Control_c, 0, 64, 0
2, 9357, Note_on_c, 0, 47, 0
2, 9360, Note_on_c, 0, 49, 93
2, 9361, Note_on_c, 0, 76, 0
2, 9365, Note_on_c, 0, 73, 0
2, 9371, Note_on_c, 0, 76, 73
2, 9431, Note_on_c, 0, 80, 0
2, 9438, Control_c, 0, 64, 127
2, 9439, Note_on_c, 0, 80, 73
2, 9507, Note_on_c, 0, 76, 0
2, 9513, Note_on_c, 0, 76, 67
2, 9518, Note_on_c, 0, 73, 69
2, 9576, Note_on_c, 0, 80, 0
2, 9580, Note_on_c, 0, 80, 75
2, 9630, Note_on_c, 0, 76, 0
2, 9634, Note_on_c, 0, 47, 91
2, 9637, Note_on_c, 0, 76, 73
2, 9639, Control_c, 0, 64, 0
2, 9656, Note_on_c, 0, 73, 0
2, 9657, Note_on_c, 0, 49, 0
2, 9699, Note_on_c, 0, 80, 0
2, 9707, Note_on_c, 0, 76, 0
2, 9711, Note_on_c, 0, 80, 76
2, 9722, Control_c, 0, 64, 127
2, 9773, Note_on_c, 0, 49, 84
2, 9776, Note_on_c, 0, 76, 80
2, 9780, Note_on_c, 0, 73, 76
2, 9838, Note_on_c, 0, 80, 0
2, 9842, Note_on_c, 0, 80, 77
2, 9907, Note_on_c, 0, 73, 0
2, 9907, Note_on_c, 0, 76, 0
2, 9910, Note_on_c, 0, 51, 95
2, 9918, Note_on_c, 0, 76, 73
2, 9918, Note_on_c, 0, 73, 73
2, 9949, Note_on_c, 0, 76, 0
2, 9950, Note_on_c, 0, 47, 0
2, 9953, Note_on_c, 0, 49, 0
2, 9956, Control_c, 0, 64, 0
2, 9976, Note_on_c, 0, 80, 0
2, 9984, Note_on_c, 0, 73, 0
2, 9984, Note_on_c, 0, 80, 82
2, 10048, Note_on_c, 0, 52, 98
2, 10048, Note_on_c, 0, 76, 80
2, 10099, Note_on_c, 0, 80, 0
2, 10103, Note_on_c, 0, 80, 86
2, 10106, Control_c, 0, 64, 127
2, 10113, Control_c, 0, 64, 0
2, 10122, Control_c, 0, 64, 127
2, 10160, Note_on_c, 0, 51, 0
2, 10164, Note_on_c, 0, 73, 75
2, 10165, Note_on_c, 0, 51, 88
2, 10245, Note_on_c, 0, 80, 0
2, 10249, Note_on_c, 0, 80, 85
2, 10295, Note_on_c, 0, 49, 84
2, 10314, Note_on_c, 0, 80, 0
2, 10320, Note_on_c, 0, 80, 84
2, 10378, Note_on_c, 0, 85, 90
2, 10381, Note_on_c, 0, 47, 85
2, 10438, Note_on_c, 0, 88, 86
2, 10485, Note_on_c, 0, 92, 92
2, 10525, Note_on_c, 0, 80, 0
2, 10525, Note_on_c, 0, 51, 0
2, 10525, Control_c, 0, 64, 0
2, 10526, Note_on_c, 0, 47, 0
2, 10527, Note_on_c, 0, 88, 0
2, 10527, Note_on_c, 0, 76, 0
2, 10528, Note_on_c, 0, 49, 0
2, 10529, Note_on_c, 0, 52, 0
2, 10536, Note_on_c, 0, 52, 88
2, 10540, Note_on_c, 0, 45, 98
2, 10552, Note_on_c, 0, 73, 0
2, 10554, Note_on_c, 0, 97, 105
2, 10590, Control_c, 0, 64, 127
2, 10666, Note_on_c, 0, 44, 87
2, 10684, Note_on_c, 0, 88, 76
2, 10798, Note_on_c, 0, 44, 0
2, 10798, Note_on_c, 0, 45, 0
2, 10798, Note_on_c, 0, 92, 0
2, 10802, Note_on_c, 0, 45, 91
2, 10806, Note_on_c, 0, 92, 98
2, 10807, Note_on_c, 0, 44, 82
2, 10867, Note_on_c, 0, 88, 0
2, 10871, Note_on_c, 0, 88, 74
2, 10897, Note_on_c, 0, 85, 0
2, 10902, Note_on_c, 0, 44, 0
2, 10906, Note_on_c, 0, 97, 0
2, 10907, Note_on_c, 0, 92, 0
2, 10908, Control_c, 0, 64, 0
2, 10909, Note_on_c, 0, 45, 0
2, 10920, Note_on_c, 0, 52, 0
2, 10936, Note_on_c, 0, 88, 0
2, 10945, Note_on_c, 0, 59, 94
2, 10952, Note_on_c, 0, 47, 95
2, 10953, Note_on_c, 0, 54, 86
2, 10953, Note_on_c, 0, 51, 83
2, 10954, Note_on_c, 0, 85, 87
2, 10974, Control_c, 0, 64, 127
2, 10988, Note_on_c, 0, 80, 70
2, 11080, Note_on_c, 0, 88, 97
2, 11143, Note_on_c, 0, 85, 0
2, 11154, Note_on_c, 0, 85, 87
2, 11205, Note_on_c, 0, 80, 0
2, 11209, Note_on_c, 0, 80, 74
2, 11211, Note_on_c, 0, 45, 82
2, 11270, Note_on_c, 0, 76, 53
2, 11304, Note_on_c, 0, 59, 0
2, 11316, Note_on_c, 0, 59, 73
2, 11320, Note_on_c, 0, 47, 0
2, 11328, Note_on_c, 0, 85, 0
2, 11331, Note_on_c, 0, 47, 74
2, 11333, Note_on_c, 0, 85, 103
2, 11404, Note_on_c, 0, 80, 0
2, 11416, Note_on_c, 0, 80, 81
2, 11432, Note_on_c, 0, 51, 0
2, 11432, Note_on_c, 0, 47, 0
2, 11433, Note_on_c, 0, 45, 0
2, 11435, Control_c, 0, 64, 0
2, 11435, Note_on_c, 0, 85, 0
2, 11435, Note_on_c, 0, 88, 0
2, 11435, Note_on_c, 0, 59, 0
2, 11443, Note_on_c, 0, 54, 0
2, 11473, Note_on_c, 0, 76, 0
2, 11474, Note_on_c, 0, 56, 91
2, 11476, Note_on_c, 0, 52, 80
2, 11476, Note_on_c, 0, 61, 92
2, 11477, Note_on_c, 0, 49, 81
2, 11479, Note_on_c, 0, 76, 76
2, 11483, Note_on_c, 0, 73, 82
2, 11512, Control_c, 0, 64, 127
2, 11543, Note_on_c, 0, 80, 0
2, 11550, Note_on_c, 0, 61, 0
2, 11558, Note_on_c, 0, 76, 0
2, 11566, Note_on_c, 0, 76, 57
2, 11615, Note_on_c, 0, 80, 101
2, 11658, Note_on_c, 0, 76, 0
2, 11663, Note_on_c, 0, 76, 74
2, 11768, Note_on_c, 0, 47, 85
2, 11770, Note_on_c, 0, 68, 80
2, 11788, Note_on_c, 0, 73, 0
2, 11796, Note_on_c, 0, 73, 53
2, 11880, Note_on_c, 0, 49, 0
2, 11880, Note_on_c, 0, 76, 0
2, 11885, Control_c, 0, 64, 0
2, 11889, Note_on_c, 0, 76, 90
2, 11891, Note_on_c, 0, 49, 86
2, 11919, Control_c, 0, 64, 127
2, 11950, Note_on_c, 0, 73, 0
2, 11961, Note_on_c, 0, 73, 82
2, 12019, Note_on_c, 0, 68, 0
2, 12023, Note_on_c, 0, 51, 85
2, 12023, Note_on_c, 0, 68, 76
2, 12076, Note_on_c, 0, 64, 71
2, 12122, Control_c, 0, 64, 0
2, 12149, Note_on_c, 0, 73, 0
2, 12157, Note_on_c, 0, 52, 0
2, 12158, Note_on_c, 0, 73, 96
2, 12162, Note_on_c, 0, 61, 78
2, 12162, Note_on_c, 0, 52, 93
2, 12211, Control_c, 0, 64, 127
2, 12218, Note_on_c, 0, 68, 0
2, 12223, Note_on_c, 0, 68, 81
2, 12272, Note_on_c, 0, 51, 0
2, 12272, Note_on_c, 0, 64, 0
2, 12277, Note_on_c, 0, 64, 71
2, 12282, Note_on_c, 0, 51, 84
2, 12334, Note_on_c, 0, 61, 0
2, 12339, Note_on_c, 0, 61, 74
2, 12392, Note_on_c, 0, 52, 0
2, 12392, Note_on_c, 0, 73, 0
2, 12392, Note_on_c, 0, 56, 0
2, 12393, Note_on_c, 0, 76, 0
2, 12393, Note_on_c, 0, 51, 0
2, 12396, Control_c, 0, 64, 0
2, 12403, Note_on_c, 0, 80, 0
2, 12410, Note_on_c, 0, 47, 0
2, 12410, Note_on_c, 0, 49, 0
2, 12410, Note_on_c, 0, 68, 0
2, 12416, Note_on_c, 0, 68, 101
2, 12416, Note_on_c, 0, 49, 72
2, 12441, Control_c, 0, 64, 127
2, 12456, Note_on_c, 0, 61, 0
2, 12464, Note_on_c, 0, 64, 0
2, 12475, Note_on_c, 0, 64, 61
2, 12517, Note_on_c, 0, 47, 83
2, 12535, Note_on_c, 0, 61, 74
2, 12575, Note_on_c, 0, 56, 86
2, 12678, Note_on_c, 0, 52, 84
2, 12679, Control_c, 0, 64, 0
2, 12680, Note_on_c, 0, 57, 87
2, 12681, Note_on_c, 0, 45, 87
2, 12682, Note_on_c, 0, 61, 0
2, 12682, Note_on_c, 0, 68, 0
2, 12683, Note_on_c, 0, 64, 0
2, 12683, Note_on_c, 0, 47, 0
2, 12683, Note_on_c, 0, 49, 0
2, 12683, Note_on_c, 0, 56, 0
2, 12748, Control_c, 0, 64, 127
2, 12755, Note_on_c, 0, 69, 79
2, 12771, Note_on_c, 0, 52, 0
2, 12815, Note_on_c, 0, 44, 83
2, 12827, Note_on_c, 0, 73, 69
2, 12904, Note_on_c, 0, 76, 85
2, 12933, Note_on_c, 0, 45, 0
2, 12935, Note_on_c, 0, 33, 78
2, 12937, Note_on_c, 0, 45, 88
2, 12938, Note_on_c, 0, 81, 101
2, 12940, Note_on_c, 0, 33, 0
2, 12979, Note_on_c, 0, 44, 0
2, 12989, Note_on_c, 0, 44, 65
2, 13002, Note_on_c, 0, 69, 0
2, 13007, Note_on_c, 0, 69, 78
2, 13062, Control_c, 0, 64, 0
2, 13062, Note_on_c, 0, 57, 0
2, 13063, Note_on_c, 0, 81, 0
2, 13064, Note_on_c, 0, 45, 0
2, 13065, Note_on_c, 0, 69, 0
2, 13065, Note_on_c, 0, 73, 0
2, 13065, Note_on_c, 0, 76, 0
2, 13066, Note_on_c, 0, 44, 0
2, 13082, Note_on_c, 0, 57, 85
2, 13083, Note_on_c, 0, 59, 97
2, 13084, Note_on_c, 0, 47, 93
2, 13084, Note_on_c, 0, 54, 91
2, 13087, Note_on_c, 0, 51, 86
2, 13140, Note_on_c, 0, 57, 0
2, 13140, Control_c, 0, 64, 127
2, 13173, Note_on_c, 0, 63, 82
2, 13248, Note_on_c, 0, 66, 84
2, 13317, Note_on_c, 0, 59, 0
2, 13317, Note_on_c, 0, 71, 85
2, 13325, Note_on_c, 0, 59, 75
2, 13331, Note_on_c, 0, 45, 78
2, 13384, Note_on_c, 0, 75, 84
2, 13444, Note_on_c, 0, 78, 89
2, 13455, Note_on_c, 0, 47, 0
2, 13459, Note_on_c, 0, 47, 86
2, 13460, Control_c, 0, 64, 0
2, 13463, Note_on_c, 0, 45, 0
2, 13464, Note_on_c, 0, 66, 0
2, 13464, Note_on_c, 0, 63, 0
2, 13464, Note_on_c, 0, 51, 0
2, 13465, Note_on_c, 0, 71, 0
2, 13465, Note_on_c, 0, 54, 0
2, 13465, Note_on_c, 0, 59, 0
2, 13481, Note_on_c, 0, 83, 102
2, 13501, Control_c, 0, 64, 127
2, 13542, Note_on_c, 0, 71, 88
2, 13582, Control_c, 0, 64, 0
2, 13585, Note_on_c, 0, 75, 0
2, 13585, Note_on_c, 0, 78, 0
2, 13601, Note_on_c, 0, 47, 0
2, 13601, Note_on_c, 0, 83, 0
2, 13612, Note_on_c, 0, 56, 101
2, 13612, Note_on_c, 0, 61, 98
2, 13612, Note_on_c, 0, 52, 89
2, 13613, Note_on_c, 0, 49, 88
2, 13647, Note_on_c, 0, 71, 0
2, 13647, Control_c, 0, 64, 127
2, 13844, Control_c, 0, 64, 0
2, 13847, Note_on_c, 0, 49, 0
2, 13847, Note_on_c, 0, 61, 0
2, 13853, Note_on_c, 0, 61, 85
2, 13854, Note_on_c, 0, 56, 0
2, 13855, Note_on_c, 0, 49, 66
2, 13857, Note_on_c, 0, 52, 0
2, 13927, Note_on_c, 0, 54, 84
2, 13929, Note_on_c, 0, 66, 74
2, 13939, Note_on_c, 0, 61, 0
2, 13954, Note_on_c, 0, 49, 0
2, 13977, Note_on_c, 0, 66, 0
2, 13988, Note_on_c, 0, 56, 74
2, 13988, Note_on_c, 0, 68, 79
2, 14031, Note_on_c, 0, 54, 0
2, 14042, Note_on_c, 0, 54, 84
2, 14044, Note_on_c, 0, 66, 79
2, 14085, Note_on_c, 0, 56, 0
2, 14085, Note_on_c, 0, 68, 0
2, 14089, Note_on_c, 0, 68, 87
2, 14089, Note_on_c, 0, 56, 77
2, 14142, Note_on_c, 0, 61, 80
2, 14167, Note_on_c, 0, 73, 89
2, 14177, Control_c, 0, 64, 127
2, 14215, Note_on_c, 0, 66, 0
2, 14220, Note_on_c, 0, 66, 98
2, 14222, Note_on_c, 0, 78, 90
2, 14241, Control_c, 0, 64, 0
2, 14269, Control_c, 0, 64, 127
2, 14292, Note_on_c, 0, 61, 0
2, 14292, Note_on_c, 0, 73, 0
2, 14296, Note_on_c, 0, 73, 85
2, 14298, Note_on_c, 0, 61, 85
2, 14353, Note_on_c, 0, 78, 0
2, 14359, Note_on_c, 0, 78, 90
2, 14361, Note_on_c, 0, 66, 0
2, 14371, Note_on_c, 0, 66, 87
2, 14394, Note_on_c, 0, 80, 88
2, 14415, Note_on_c, 0, 68, 0
2, 14426, Note_on_c, 0, 68, 91
2, 14469, Note_on_c, 0, 73, 0
2, 14472, Note_on_c, 0, 85, 99
2, 14478, Note_on_c, 0, 73, 98
2, 14519, Note_on_c, 0, 90, 97
2, 14559, Note_on_c, 0, 92, 95
2, 14603, Note_on_c, 0, 97, 104
2, 14676, Note_on_c, 0, 97, 0
2, 14676, Note_on_c, 0, 78, 0
2, 14677, Note_on_c, 0, 54, 0
2, 14677, Note_on_c, 0, 92, 0
2, 14677, Note_on_c, 0, 90, 0
2, 14677, Note_on_c, 0, 68, 0
2, 14677, Note_on_c, 0, 80, 0
2, 14677, Note_on_c, 0, 73, 0
2, 14677, Note_on_c, 0, 85, 0
2, 14678, Note_on_c, 0, 66, 0
2, 14678, Note_on_c, 0, 61, 0
2, 14679, Control_c, 0, 64, 0
2, 14684, Note_on_c, 0, 56, 0
2, 14735, Note_on_c, 0, 80, 108
2, 14735, Note_on_c, 0, 85, 99
2, 14735, Note_on_c, 0, 92, 108
2, 14738, Note_on_c, 0, 45, 98
2, 14739, Note_on_c, 0, 33, 93
2, 14742, Note_on_c, 0, 88, 89
2, 14743, Note_on_c, 0, 40, 85
2, 14745, Control_c, 0, 64, 127
2, 14749, Note_on_c, 0, 35, 90
2, 14750, Note_on_c, 0, 47, 82
2, 14864, Note_on_c, 0, 44, 87
2, 14864, Note_on_c, 0, 32, 83
2, 14888, Note_on_c, 0, 45, 0
2, 14889, Note_on_c, 0, 92, 0
2, 14889, Note_on_c, 0, 85, 0
2, 14890, Note_on_c, 0, 33, 0
2, 14892, Note_on_c, 0, 80, 0
2, 14893, Control_c, 0, 64, 0
2, 14893, Note_on_c, 0, 88, 0
2, 14922, Note_on_c, 0, 40, 0
2, 14922, Note_on_c, 0, 44, 0
2, 14922, Note_on_c, 0, 47, 0
2, 14929, Note_on_c, 0, 32, 0
2, 14937, Note_on_c, 0, 35, 0
2, 14991, Control_c, 0, 64, 127
2, 15008, Note_on_c, 0, 45, 95
2, 15009, Note_on_c, 0, 93, 111
2, 15010, Note_on_c, 0, 33, 88
2, 15011, Note_on_c, 0, 88, 93
2, 15012, Note_on_c, 0, 85, 101
2, 15014, Note_on_c, 0, 81, 102
2, 15134, Note_on_c, 0, 33, 0
2, 15134, Note_on_c, 0, 45, 0
2, 15137, Note_on_c, 0, 88, 0
2, 15139, Control_c, 0, 64, 0
2, 15140, Note_on_c, 0, 47, 99
2, 15141, Note_on_c, 0, 81, 0
2, 15141, Note_on_c, 0, 35, 90
2, 15198, Control_c, 0, 64, 127
2, 15267, Note_on_c, 0, 93, 0
2, 15282, Note_on_c, 0, 90, 108
2, 15284, Note_on_c, 0, 78, 101
2, 15287, Note_on_c, 0, 83, 91
2, 15287, Note_on_c, 0, 87, 88
2, 15326, Control_c, 0, 64, 0
2, 15336, Control_c, 0, 64, 127
2, 15403, Note_on_c, 0, 45, 90
2, 15404, Note_on_c, 0, 33, 90
2, 15444, Note_on_c, 0, 85, 0
2, 15447, Note_on_c, 0, 35, 0
2, 15448, Note_on_c, 0, 87, 0
2, 15448, Note_on_c, 0, 90, 0
2, 15449, Note_on_c, 0, 33, 0
2, 15449, Note_on_c, 0, 78, 0
2, 15449, Note_on_c, 0, 45, 0
2, 15452, Note_on_c, 0, 47, 0
2, 15455, Control_c, 0, 64, 0
2, 15459, Note_on_c, 0, 83, 0
2, 15547, Note_on_c, 0, 47, 96
2, 15549, Note_on_c, 0, 87, 98
2, 15549, Note_on_c, 0, 35, 87
2, 15551, Note_on_c, 0, 83, 92
2, 15552, Control_c, 0, 64, 127
2, 15552, Note_on_c, 0, 75, 100
2, 15553, Note_on_c, 0, 78, 95
2, 15558, Note_on_c, 0, 84, 88
2, 15677, Note_on_c, 0, 37, 97
2, 15677, Note_on_c, 0, 49, 97
2, 15816, Note_on_c, 0, 88, 106
2, 15817, Note_on_c, 0, 76, 104
2, 15817, Note_on_c, 0, 85, 97
2, 15817, Note_on_c, 0, 80, 101
2, 15836, Note_on_c, 0, 35, 0
2, 15882, Note_on_c, 0, 47, 0
2, 15929, Note_on_c, 0, 47, 85
2, 15929, Note_on_c, 0, 35, 77
2, 16066, Note_on_c, 0, 37, 0
2, 16066, Note_on_c, 0, 49, 0
2, 16073, Note_on_c, 0, 49, 99
2, 16074, Note_on_c, 0, 78, 0
2, 16077, Note_on_c, 0, 37, 92
2, 16082, Note_on_c, 0, 90, 109
2, 16084, Note_on_c, 0, 78, 103
2, 16112, Note_on_c, 0, 84, 0
2, 16203, Note_on_c, 0, 51, 86
2, 16204, Note_on_c, 0, 49, 0
2, 16205, Note_on_c, 0, 39, 87
2, 16209, Note_on_c, 0, 49, 71
2, 16258, Note_on_c, 0, 49, 0
2, 16268, Note_on_c, 0, 49, 36
2, 16281, Note_on_c, 0, 75, 0
2, 16292, Note_on_c, 0, 83, 0
2, 16292, Note_on_c, 0, 90, 0
2, 16292, Note_on_c, 0, 80, 0
2, 16292, Note_on_c, 0, 88, 0
2, 16292, Note_on_c, 0, 85, 0
2, 16292, Note_on_c, 0, 47, 0
2, 16293, Note_on_c, 0, 78, 0
2, 16293, Note_on_c, 0, 51, 0
2, 16293, Note_on_c, 0, 76, 0
2, 16293, Note_on_c, 0, 39, 0
2, 16293, Control_c, 0, 64, 0
2, 16296, Note_on_c, 0, 87, 0
2, 16312, Note_on_c, 0, 35, 0
2, 16312, Note_on_c, 0, 37, 0
2, 16320, Note_on_c, 0, 49, 0
2, 16345, Note_on_c, 0, 88, 106
2, 16347, Note_on_c, 0, 80, 106
2, 16351, Note_on_c, 0, 76, 101
2, 16353, Note_on_c, 0, 52, 97
2, 16353, Note_on_c, 0, 40, 94
2, 16357, Note_on_c, 0, 85, 82
2, 16381, Control_c, 0, 64, 127
2, 16473, Note_on_c, 0, 85, 0
2, 16479, Note_on_c, 0, 51, 90
2, 16481, Note_on_c, 0, 76, 0
2, 16483, Note_on_c, 0, 85, 93
2, 16484, Note_on_c, 0, 39, 91
2, 16485, Note_on_c, 0, 73, 90
2, 16487, Note_on_c, 0, 76, 80
2, 16606, Note_on_c, 0, 49, 84
2, 16607, Note_on_c, 0, 37, 89
2, 16742, Note_on_c, 0, 80, 0
2, 16743, Note_on_c, 0, 49, 0
2, 16744, Note_on_c, 0, 85, 0
2, 16745, Note_on_c, 0, 76, 0
2, 16745, Note_on_c, 0, 83, 101
2, 16745, Note_on_c, 0, 73, 0
2, 16746, Note_on_c, 0, 37, 0
2, 16746, Note_on_c, 0, 39, 0
2, 16746, Note_on_c, 0, 75, 79
2, 16746, Note_on_c, 0, 71, 92
2, 16748, Note_on_c, 0, 47, 93
2, 16750, Note_on_c, 0, 35, 87
2, 16751, Control_c, 0, 64, 0
2, 16757, Note_on_c, 0, 52, 0
2, 16757, Note_on_c, 0, 88, 0
2, 16765, Note_on_c, 0, 40, 0
2, 16765, Note_on_c, 0, 51, 0
2, 16781, Note_on_c, 0, 71, 0
2, 16783, Note_on_c, 0, 47, 0
2, 16788, Note_on_c, 0, 83, 0
2, 16788, Note_on_c, 0, 75, 0
2, 16819, Note_on_c, 0, 35, 0
2, 16876, Note_on_c, 0, 85, 103
2, 16877, Note_on_c, 0, 33, 92
2, 16878, Note_on_c, 0, 45, 96
2, 16878, Note_on_c, 0, 73, 101
2, 16879, Note_on_c, 0, 76, 97
2, 16896, Control_c, 0, 64, 127
2, 17007, Note_on_c, 0, 32, 82
2, 17011, Note_on_c, 0, 44, 86
2, 17134, Note_on_c, 0, 33, 0
2, 17134, Note_on_c, 0, 45, 0
2, 17134, Note_on_c, 0, 73, 0
2, 17134, Note_on_c, 0, 85, 0
2, 17138, Note_on_c, 0, 33, 86
2, 17139, Note_on_c, 0, 85, 98
2, 17139, Note_on_c, 0, 45, 88
2, 17144, Note_on_c, 0, 73, 90
2, 17170, Control_c, 0, 64, 0
2, 17186, Note_on_c, 0, 33, 0
2, 17187, Note_on_c, 0, 76, 0
2, 17191, Note_on_c, 0, 85, 0
2, 17192, Note_on_c, 0, 73, 0
2, 17195, Note_on_c, 0, 44, 0
2, 17210, Note_on_c, 0, 32, 0
2, 17210, Note_on_c, 0, 45, 0
2, 17283, Note_on_c, 0, 47, 97
2, 17283, Note_on_c, 0, 88, 106
2, 17284, Note_on_c, 0, 35, 92
2, 17284, Note_on_c, 0, 78, 103
2, 17288, Note_on_c, 0, 76, 100
2, 17294, Note_on_c, 0, 84, 92
2, 17310, Control_c, 0, 64, 127
2, 17541, Note_on_c, 0, 76, 0
2, 17541, Note_on_c, 0, 88, 0
2, 17545, Note_on_c, 0, 33, 84
2, 17545, Note_on_c, 0, 45, 90
2, 17546, Note_on_c, 0, 88, 92
2, 17550, Note_on_c, 0, 76, 85
2, 17551, Note_on_c, 0, 85, 72
2, 17671, Note_on_c, 0, 47, 0
2, 17671, Note_on_c, 0, 78, 0
2, 17679, Note_on_c, 0, 35, 0
2, 17680, Note_on_c, 0, 66, 89
2, 17681, Note_on_c, 0, 90, 105
2, 17681, Note_on_c, 0, 47, 90
2, 17682, Note_on_c, 0, 78, 101
2, 17684, Note_on_c, 0, 35, 84
2, 17750, Control_c, 0, 64, 0
2, 17753, Note_on_c, 0, 47, 0
2, 17754, Note_on_c, 0, 35, 0
2, 17756, Note_on_c, 0, 45, 0
2, 17756, Note_on_c, 0, 33, 0
2, 17756, Note_on_c, 0, 88, 0
2, 17757, Note_on_c, 0, 84, 0
2, 17757, Note_on_c, 0, 76, 0
2, 17763, Note_on_c, 0, 85, 0
2, 17786, Note_on_c, 0, 66, 0
2, 17809, Note_on_c, 0, 49, 99
2, 17809, Note_on_c, 0, 37, 101
2, 17848, Control_c, 0, 64, 127
2, 17856, Note_on_c, 0, 90, 0
2, 17956, Note_on_c, 0, 85, 102
2, 17958, Note_on_c, 0, 73, 100
2, 17959, Note_on_c, 0, 80, 92
2, 17960, Note_on_c, 0, 76, 93
2, 18080, Note_on_c, 0, 63, 78
2, 18082, Note_on_c, 0, 47, 88
2, 18083, Note_on_c, 0, 35, 81
2, 18086, Note_on_c, 0, 63, 0
2, 18175, Note_on_c, 0, 35, 0
2, 18175, Note_on_c, 0, 47, 0
2, 18178, Note_on_c, 0, 78, 0
2, 18181, Control_c, 0, 64, 0
2, 18193, Note_on_c, 0, 37, 0
2, 18201, Note_on_c, 0, 65, 82
2, 18201, Note_on_c, 0, 49, 0
2, 18204, Note_on_c, 0, 37, 96
2, 18205, Note_on_c, 0, 49, 87
2, 18206, Note_on_c, 0, 61, 80
2, 18209, Note_on_c, 0, 65, 0
2, 18216, Note_on_c, 0, 61, 0
2, 18240, Control_c, 0, 64, 127
2, 18341, Note_on_c, 0, 51, 92
2, 18341, Note_on_c, 0, 39, 92
2, 18445, Control_c, 0, 64, 0
2, 18457, Note_on_c, 0, 51, 0
2, 18459, Note_on_c, 0, 39, 0
2, 18481, Note_on_c, 0, 52, 96
2, 18482, Note_on_c, 0, 40, 94
2, 18485, Note_on_c, 0, 37, 0
2, 18485, Note_on_c, 0, 49, 0
2, 18485, Note_on_c, 0, 73, 0
2, 18508, Note_on_c, 0, 85, 0
2, 18514, Note_on_c, 0, 52, 0
2, 18519, Note_on_c, 0, 40, 0
2, 18524, Note_on_c, 0, 76, 0
2, 18547, Note_on_c, 0, 80, 0
2, 18609, Note_on_c, 0, 51, 82
2, 18610, Note_on_c, 0, 83, 100
2, 18611, Note_on_c, 0, 39, 90
2, 18612, Note_on_c, 0, 71, 92
2, 18637, Note_on_c, 0, 51, 0
2, 18641, Note_on_c, 0, 71, 0
2, 18647, Note_on_c, 0, 83, 0
2, 18742, Note_on_c, 0, 85, 100
2, 18742, Note_on_c, 0, 37, 96
2, 18742, Note_on_c, 0, 49, 91
2, 18743, Note_on_c, 0, 73, 95
2, 18744, Note_on_c, 0, 77, 80
2, 18772, Note_on_c, 0, 49, 0
2, 18775, Note_on_c, 0, 37, 0
2, 18775, Note_on_c, 0, 85, 0
2, 18792, Note_on_c, 0, 73, 0
2, 18808, Control_c, 0, 64, 127
2, 18846, Note_on_c, 0, 77, 0
2, 18872, Note_on_c, 0, 35, 87
2, 18872, Note_on_c, 0, 47, 90
2, 18873, Note_on_c, 0, 88, 102
2, 18874, Note_on_c, 0, 76, 93
2, 18892, Note_on_c, 0, 39, 0
2, 18895, Control_c, 0, 64, 0
2, 18902, Note_on_c, 0, 88, 0
2, 18906, Note_on_c, 0, 47, 0
2, 18923, Note_on_c, 0, 76, 0
2, 18931, Note_on_c, 0, 35, 0
2, 19001, Note_on_c, 0, 45, 99
2, 19003, Note_on_c, 0, 80, 108
2, 19004, Note_on_c, 0, 92, 106
2, 19005, Note_on_c, 0, 33, 90
2, 19005, Note_on_c, 0, 85, 99
2, 19011, Note_on_c, 0, 87, 81
2, 19015, Control_c, 0, 64, 127
2, 19022, Note_on_c, 0, 90, 70
2, 19130, Note_on_c, 0, 45, 0
2, 19133, Note_on_c, 0, 33, 0
2, 19133, Note_on_c, 0, 92, 0
2, 19134, Note_on_c, 0, 85, 0
2, 19134, Note_on_c, 0, 90, 0
2, 19134, Control_c, 0, 64, 0
2, 19135, Note_on_c, 0, 87, 0
2, 19142, Note_on_c, 0, 32, 77
2, 19142, Note_on_c, 0, 44, 82
2, 19146, Note_on_c, 0, 80, 0
2, 19200, Note_on_c, 0, 32, 0
2, 19207, Note_on_c, 0, 44, 0
2, 19272, Note_on_c, 0, 93, 110
2, 19273, Note_on_c, 0, 45, 96
2, 19274, Note_on_c, 0, 81, 102
2, 19275, Note_on_c, 0, 85, 101
2, 19275, Note_on_c, 0, 33, 86
2, 19278, Note_on_c, 0, 88, 89
2, 19368, Note_on_c, 0, 45, 0
2, 19410, Note_on_c, 0, 47, 99
2, 19412, Note_on_c, 0, 35, 86
2, 19430, Note_on_c, 0, 33, 0
2, 19438, Control_c, 0, 64, 127
2, 19514, Note_on_c, 0, 88, 0
2, 19537, Note_on_c, 0, 81, 0
2, 19548, Note_on_c, 0, 90, 106
2, 19550, Note_on_c, 0, 78, 102
2, 19552, Note_on_c, 0, 87, 89
2, 19553, Note_on_c, 0, 93, 0
2, 19553, Note_on_c, 0, 83, 89
2, 19567, Note_on_c, 0, 47, 0
2, 19570, Note_on_c, 0, 35, 0
2, 19575, Control_c, 0, 64, 0
2, 19607, Note_on_c, 0, 85, 0
2, 19671, Note_on_c, 0, 33, 87
2, 19671, Note_on_c, 0, 45, 88
2, 19703, Note_on_c, 0, 33, 0
2, 19706, Note_on_c, 0, 83, 0
2, 19707, Note_on_c, 0, 45, 0
2, 19707, Note_on_c, 0, 78, 0
2, 19711, Note_on_c, 0, 90, 0
2, 19722, Note_on_c, 0, 87, 0
2, 19810, Note_on_c, 0, 87, 102
2, 19810, Note_on_c, 0, 47, 98
2, 19812, Note_on_c, 0, 35, 91
2, 19814, Note_on_c, 0, 75, 103
2, 19815, Note_on_c, 0, 78, 97
2, 19817, Note_on_c, 0, 83, 94
2, 19829, Control_c, 0, 64, 127
2, 19904, Control_c, 0, 64, 0
2, 19944, Note_on_c, 0, 49, 100
2, 19945, Note_on_c, 0, 37, 98
2, 19952, Note_on_c, 0, 35, 0
2, 19952, Note_on_c, 0, 47, 0
2, 19975, Control_c, 0, 64, 127
2, 19998, Note_on_c, 0, 87, 0
2, 20006, Note_on_c, 0, 75, 0
2, 20044, Note_on_c, 0, 83, 0
2, 20067, Note_on_c, 0, 78, 0
2, 20078, Note_on_c, 0, 88, 101
2, 20079, Note_on_c, 0, 85, 99
2, 20079, Note_on_c, 0, 80, 102
2, 20080, Note_on_c, 0, 76, 103
2, 20094, Control_c, 0, 64, 0
2, 20098, Control_c, 0, 64, 127
2, 20117, Note_on_c, 0, 76, 0
2, 20122, Note_on_c, 0, 85, 0
2, 20123, Note_on_c, 0, 88, 0
2, 20144, Note_on_c, 0, 49, 0
2, 20160, Note_on_c, 0, 37, 0
2, 20190, Note_on_c, 0, 80, 0
2, 20204, Note_on_c, 0, 47, 91
2, 20207, Note_on_c, 0, 35, 85
2, 20209, Note_on_c, 0, 88, 101
2, 20211, Note_on_c, 0, 76, 91
2, 20229, Control_c, 0, 64, 0
2, 20305, Note_on_c, 0, 35, 0
2, 20332, Note_on_c, 0, 49, 97
2, 20336, Note_on_c, 0, 37, 99
2, 20340, Note_on_c, 0, 90, 109
2, 20340, Note_on_c, 0, 78, 103
2, 20352, Note_on_c, 0, 47, 0
2, 20352, Control_c, 0, 64, 127
2, 20465, Note_on_c, 0, 39, 87
2, 20469, Note_on_c, 0, 51, 88
2, 20520, Note_on_c, 0, 76, 0
2, 20520, Note_on_c, 0, 88, 0
2, 20526, Note_on_c, 0, 88, 103
2, 20528, Note_on_c, 0, 85, 95
2, 20528, Note_on_c, 0, 76, 102
2, 20559, Note_on_c, 0, 90, 0
2, 20562, Note_on_c, 0, 78, 0
2, 20563, Note_on_c, 0, 37, 0
2, 20563, Note_on_c, 0, 51, 0
2, 20563, Note_on_c, 0, 49, 0
2, 20563, Note_on_c, 0, 39, 0
2, 20563, Note_on_c, 0, 76, 0
2, 20564, Control_c, 0, 64, 0
2, 20604, Note_on_c, 0, 52, 104
2, 20605, Note_on_c, 0, 88, 0
2, 20608, Note_on_c, 0, 40, 100
2, 20616, Note_on_c, 0, 88, 100
2, 20616, Note_on_c, 0, 80, 107
2, 20618, Note_on_c, 0, 76, 103
2, 20628, Control_c, 0, 64, 127
2, 20739, Note_on_c, 0, 51, 97
2, 20740, Note_on_c, 0, 39, 91
2, 20751, Note_on_c, 0, 85, 0
2, 20758, Note_on_c, 0, 85, 96
2, 20764, Note_on_c, 0, 73, 89
2, 20774, Note_on_c, 0, 76, 0
2, 20783, Note_on_c, 0, 76, 60
2, 20812, Note_on_c, 0, 80, 0
2, 20814, Note_on_c, 0, 88, 0
2, 20814, Note_on_c, 0, 39, 0
2, 20814, Note_on_c, 0, 52, 0
2, 20815, Note_on_c, 0, 51, 0
2, 20816, Control_c, 0, 64, 0
2, 20816, Note_on_c, 0, 85, 0
2, 20818, Note_on_c, 0, 73, 0
2, 20828, Note_on_c, 0, 40, 0
2, 20851, Note_on_c, 0, 76, 0
2, 20871, Note_on_c, 0, 49, 91
2, 20871, Note_on_c, 0, 37, 93
2, 20910, Note_on_c, 0, 49, 0
2, 20951, Note_on_c, 0, 37, 0
2, 21014, Note_on_c, 0, 83, 98
2, 21014, Note_on_c, 0, 47, 95
2, 21015, Note_on_c, 0, 71, 95
2, 21015, Note_on_c, 0, 35, 87
2, 21054, Note_on_c, 0, 71, 0
2, 21060, Note_on_c, 0, 47, 0
2, 21062, Note_on_c, 0, 35, 0
2, 21062, Note_on_c, 0, 83, 0
2, 21142, Note_on_c, 0, 85, 107
2, 21144, Note_on_c, 0, 33, 95
2, 21145, Note_on_c, 0, 45, 99
2, 21146, Note_on_c, 0, 73, 106
2, 21147, Note_on_c, 0, 76, 94
2, 21166, Control_c, 0, 64, 127
2, 21269, Note_on_c, 0, 32, 83
2, 21269, Note_on_c, 0, 44, 86
2, 21404, Note_on_c, 0, 33, 0
2, 21404, Note_on_c, 0, 45, 0
2, 21404, Note_on_c, 0, 73, 0
2, 21404, Note_on_c, 0, 85, 0
2, 21408, Note_on_c, 0, 45, 91
2, 21409, Note_on_c, 0, 85, 99
2, 21410, Note_on_c, 0, 33, 83
2, 21415, Note_on_c, 0, 73, 90
2, 21447, Note_on_c, 0, 33, 0
2, 21454, Note_on_c, 0, 45, 0
2, 21455, Note_on_c, 0, 76, 0
2, 21457, Note_on_c, 0, 32, 0
2, 21457, Note_on_c, 0, 44, 0
2, 21460, Control_c, 0, 64, 0
2, 21461, Note_on_c, 0, 73, 0
2, 21473, Note_on_c, 0, 85, 0
2, 21547, Note_on_c, 0, 35, 95
2, 21547, Note_on_c, 0, 88, 107
2, 21549, Note_on_c, 0, 47, 100
2, 21553, Note_on_c, 0, 78, 105
2, 21553, Note_on_c, 0, 76, 104
2, 21554, Note_on_c, 0, 83, 96
2, 21603, Control_c, 0, 64, 127
2, 21803, Note_on_c, 0, 76, 0
2, 21803, Note_on_c, 0, 88, 0
2, 21807, Note_on_c, 0, 33, 86
2, 21808, Note_on_c, 0, 45, 90
2, 21811, Note_on_c, 0, 88, 96
2, 21813, Note_on_c, 0, 76, 90
2, 21813, Note_on_c, 0, 85, 71
2, 21818, Note_on_c, 0, 85, 0
2, 21934, Note_on_c, 0, 35, 0
2, 21934, Note_on_c, 0, 47, 0
2, 21934, Note_on_c, 0, 78, 0
2, 21938, Note_on_c, 0, 47, 96
2, 21942, Note_on_c, 0, 35, 91
2, 21945, Note_on_c, 0, 90, 98
2, 21945, Note_on_c, 0, 78, 99
2, 22016, Control_c, 0, 64, 0
2, 22021, Note_on_c, 0, 35, 0
2, 22021, Note_on_c, 0, 47, 0
2, 22021, Note_on_c, 0, 33, 0
2, 22022, Note_on_c, 0, 83, 0
2, 22022, Note_on_c, 0, 45, 0
2, 22023, Note_on_c, 0, 78, 0
2, 22041, Note_on_c, 0, 76, 0
2, 22056, Note_on_c, 0, 88, 0
2, 22056, Note_on_c, 0, 90, 0
2, 22068, Note_on_c, 0, 37, 98
2, 22068, Note_on_c, 0, 49, 91
2, 22071, Note_on_c, 0, 89, 84
2, 22110, Control_c, 0, 64, 127
2, 22208, Note_on_c, 0, 85, 101
2, 22212, Note_on_c, 0, 73, 97
2, 22213, Note_on_c, 0, 80, 89
2, 22214, Note_on_c, 0, 76, 84
2, 22325, Note_on_c, 0, 37, 0
2, 22329, Note_on_c, 0, 37, 84
2, 22469, Note_on_c, 0, 97, 99
2, 22483, Note_on_c, 0, 44, 76
2, 22547, Note_on_c, 0, 92, 92
2, 22602, Note_on_c, 0, 49, 0
2, 22613, Note_on_c, 0, 49, 86
2, 22616, Note_on_c, 0, 90, 90
2, 22648, Note_on_c, 0, 85, 0
2, 22653, Note_on_c, 0, 85, 79
2, 22732, Note_on_c, 0, 85, 0
2, 22741, Note_on_c, 0, 85, 91
2, 22745, Note_on_c, 0, 52, 93
2, 22809, Note_on_c, 0, 80, 0
2, 22819, Note_on_c, 0, 80, 86
2, 22855, Note_on_c, 0, 89, 0
2, 22883, Note_on_c, 0, 56, 92
2, 22886, Note_on_c, 0, 78, 78
2, 22901, Note_on_c, 0, 73, 0
2, 22907, Note_on_c, 0, 73, 57
2, 23001, Note_on_c, 0, 73, 0
2, 23006, Note_on_c, 0, 61, 98
2, 23007, Note_on_c, 0, 73, 84
2, 23011, Note_on_c, 0, 66, 76
2, 23016, Note_on_c, 0, 66, 0
2, 23082, Note_on_c, 0, 68, 75
2, 23130, Note_on_c, 0, 66, 91
2, 23229, Note_on_c, 0, 97, 0
2, 23229, Note_on_c, 0, 90, 0
2, 23230, Note_on_c, 0, 52, 0
2, 23230, Note_on_c, 0, 85, 0
2, 23230, Note_on_c, 0, 78, 0
2, 23230, Note_on_c, 0, 66, 0
2, 23230, Note_on_c, 0, 49, 0
2, 23230, Note_on_c, 0, 76, 0
2, 23230, Note_on_c, 0, 73, 0
2, 23231, Note_on_c, 0, 61, 0
2, 23231, Note_on_c, 0, 68, 0
2, 23231, Note_on_c, 0, 56, 0
2, 23234, Note_on_c, 0, 44, 0
2, 23238, Control_c, 0, 64, 0
2, 23247, Note_on_c, 0, 80, 0
2, 23247, Note_on_c, 0, 92, 0
2, 23255, Note_on_c, 0, 37, 0
2, 23273, Note_on_c, 0, 36, 105
2, 23276, Note_on_c, 0, 48, 99
2, 23290, Note_on_c, 0, 72, 97
2, 23290, Note_on_c, 0, 79, 83
2, 23294, Note_on_c, 0, 75, 89
2, 23324, Control_c, 0, 64, 127
2, 23408, Note_on_c, 0, 75, 0
2, 23414, Note_on_c, 0, 75, 88
2, 23539, Note_on_c, 0, 79, 0
2, 23543, Note_on_c, 0, 51, 91
2, 23545, Note_on_c, 0, 39, 84
2, 23549, Note_on_c, 0, 79, 80
2, 23577, Note_on_c, 0, 79, 0
2, 23583, Note_on_c, 0, 79, 80
2, 23677, Note_on_c, 0, 79, 0
2, 23681, Note_on_c, 0, 84, 108
2, 23682, Note_on_c, 0, 79, 90
2, 23685, Note_on_c, 0, 34, 88
2, 23686, Note_on_c, 0, 46, 93
2, 23788, Note_on_c, 0, 34, 0
2, 23788, Note_on_c, 0, 51, 0
2, 23788, Note_on_c, 0, 48, 0
2, 23788, Note_on_c, 0, 46, 0
2, 23788, Note_on_c, 0, 79, 0
2, 23790, Control_c, 0, 64, 0
2, 23800, Note_on_c, 0, 72, 0
2, 23808, Note_on_c, 0, 39, 0
2, 23808, Note_on_c, 0, 75, 0
2, 23808, Note_on_c, 0, 84, 0
2, 23813, Note_on_c, 0, 39, 74
2, 23814, Note_on_c, 0, 84, 103
2, 23877, Control_c, 0, 64, 127
2, 23961, Note_on_c, 0, 84, 0
2, 23968, Note_on_c, 0, 75, 77
2, 23970, Note_on_c, 0, 84, 77
2, 24029, Note_on_c, 0, 79, 74
2, 24084, Note_on_c, 0, 39, 0
2, 24084, Note_on_c, 0, 75, 0
2, 24084, Note_on_c, 0, 79, 0
2, 24088, Note_on_c, 0, 79, 83
2, 24088, Note_on_c, 0, 51, 91
2, 24089, Note_on_c, 0, 39, 77
2, 24090, Note_on_c, 0, 72, 84
2, 24094, Note_on_c, 0, 75, 93
2, 24208, Note_on_c, 0, 34, 92
2, 24215, Note_on_c, 0, 72, 0
2, 24215, Note_on_c, 0, 75, 0
2, 24223, Note_on_c, 0, 72, 85
2, 24225, Note_on_c, 0, 75, 87
2, 24274, Note_on_c, 0, 84, 0
2, 24274, Control_c, 0, 64, 0
2, 24275, Note_on_c, 0, 72, 0
2, 24276, Note_on_c, 0, 79, 0
2, 24276, Note_on_c, 0, 75, 0
2, 24277, Note_on_c, 0, 39, 0
2, 24277, Note_on_c, 0, 51, 0
2, 24299, Note_on_c, 0, 34, 0
2, 24299, Note_on_c, 0, 36, 0
2, 24356, Note_on_c, 0, 75, 103
2, 24356, Note_on_c, 0, 51, 100
2, 24357, Note_on_c, 0, 39, 94
2, 24357, Note_on_c, 0, 79, 94
2, 24368, Control_c, 0, 64, 127
2, 24431, Note_on_c, 0, 82, 95
2, 24476, Note_on_c, 0, 79, 0
2, 24481, Note_on_c, 0, 79, 72
2, 24545, Note_on_c, 0, 82, 0
2, 24553, Note_on_c, 0, 82, 83
2, 24599, Note_on_c, 0, 79, 0
2, 24604, Note_on_c, 0, 36, 78
2, 24605, Note_on_c, 0, 79, 65
2, 24660, Note_on_c, 0, 79, 0
2, 24668, Note_on_c, 0, 82, 0
2, 24669, Note_on_c, 0, 79, 70
2, 24672, Note_on_c, 0, 82, 86
2, 24752, Note_on_c, 0, 39, 0
2, 24752, Note_on_c, 0, 51, 0
2, 24752, Note_on_c, 0, 75, 0
2, 24752, Note_on_c, 0, 79, 0
2, 24757, Note_on_c, 0, 79, 91
2, 24759, Note_on_c, 0, 87, 107
2, 24759, Note_on_c, 0, 51, 104
2, 24761, Note_on_c, 0, 39, 94
2, 24763, Note_on_c, 0, 75, 108
2, 24890, Note_on_c, 0, 75, 0
2, 24890, Note_on_c, 0, 87, 0
2, 24898, Note_on_c, 0, 75, 109
2, 24898, Note_on_c, 0, 87, 106
2, 24921, Note_on_c, 0, 82, 0
2, 24927, Note_on_c, 0, 82, 78
2, 24931, Note_on_c, 0, 85, 50
2, 24936, Note_on_c, 0, 85, 0
2, 25006, Note_on_c, 0, 36, 0
2, 25011, Note_on_c, 0, 48, 91
2, 25015, Note_on_c, 0, 36, 99
2, 25021, Note_on_c, 0, 75, 0
2, 25021, Note_on_c, 0, 79, 0
2, 25021, Note_on_c, 0, 82, 0
2, 25025, Note_on_c, 0, 82, 99
2, 25026, Note_on_c, 0, 79, 96
2, 25032, Note_on_c, 0, 75, 97
2, 25085, Note_on_c, 0, 51, 0
2, 25086, Note_on_c, 0, 39, 0
2, 25086, Control_c, 0, 64, 0
2, 25098, Note_on_c, 0, 82, 0
2, 25109, Note_on_c, 0, 82, 93
2, 25144, Control_c, 0, 64, 127
2, 25159, Note_on_c, 0, 75, 0
2, 25159, Note_on_c, 0, 79, 0
2, 25164, Note_on_c, 0, 79, 60
2, 25168, Note_on_c, 0, 75, 90
2, 25175, Note_on_c, 0, 48, 0
2, 25228, Note_on_c, 0, 82, 0
2, 25234, Note_on_c, 0, 82, 86
2, 25287, Note_on_c, 0, 51, 98
2, 25290, Note_on_c, 0, 75, 0
2, 25291, Note_on_c, 0, 39, 89
2, 25297, Note_on_c, 0, 73, 70
2, 25299, Note_on_c, 0, 75, 81
2, 25359, Note_on_c, 0, 82, 0
2, 25359, Note_on_c, 0, 87, 0
2, 25362, Note_on_c, 0, 75, 0
2, 25362, Note_on_c, 0, 51, 0
2, 25363, Note_on_c, 0, 39, 0
2, 25363, Note_on_c, 0, 79, 0
2, 25365, Control_c, 0, 64, 0
2, 25365, Note_on_c, 0, 82, 91
2, 25374, Note_on_c, 0, 36, 0
2, 25382, Note_on_c, 0, 73, 0
2, 25431, Note_on_c, 0, 49, 103
2, 25436, Note_on_c, 0, 37, 103
2, 25439, Note_on_c, 0, 73, 97
2, 25441, Note_on_c, 0, 77, 93
2, 25474, Control_c, 0, 64, 127
2, 25510, Note_on_c, 0, 80, 99
2, 25574, Note_on_c, 0, 77, 0
2, 25574, Note_on_c, 0, 80, 0
2, 25579, Note_on_c, 0, 80, 85
2, 25581, Note_on_c, 0, 77, 76
2, 25612, Note_on_c, 0, 73, 0
2, 25622, Note_on_c, 0, 73, 75
2, 25697, Note_on_c, 0, 77, 0
2, 25707, Note_on_c, 0, 77, 80
2, 25715, Note_on_c, 0, 34, 90
2, 25766, Note_on_c, 0, 80, 0
2, 25770, Note_on_c, 0, 80, 82
2, 25843, Note_on_c, 0, 37, 0
2, 25843, Note_on_c, 0, 49, 0
2, 25849, Note_on_c, 0, 85, 103
2, 25850, Note_on_c, 0, 73, 0
2, 25850, Note_on_c, 0, 77, 0
2, 25854, Note_on_c, 0, 37, 101
2, 25854, Note_on_c, 0, 49, 98
2, 25856, Note_on_c, 0, 77, 81
2, 25856, Note_on_c, 0, 73, 97
2, 25878, Control_c, 0, 64, 0
2, 25912, Control_c, 0, 64, 127
2, 25989, Note_on_c, 0, 85, 0
2, 25996, Note_on_c, 0, 73, 0
2, 25998, Note_on_c, 0, 85, 101
2, 26001, Note_on_c, 0, 73, 96
2, 26065, Note_on_c, 0, 77, 0
2, 26077, Note_on_c, 0, 77, 62
2, 26096, Note_on_c, 0, 34, 0
2, 26104, Note_on_c, 0, 34, 95
2, 26119, Note_on_c, 0, 77, 0
2, 26123, Control_c, 0, 64, 0
2, 26124, Note_on_c, 0, 77, 85
2, 26150, Note_on_c, 0, 37, 0
2, 26150, Note_on_c, 0, 49, 0
2, 26158, Note_on_c, 0, 80, 0
2, 26165, Note_on_c, 0, 73, 0
2, 26165, Note_on_c, 0, 82, 0
2, 26175, Note_on_c, 0, 73, 64
2, 26177, Note_on_c, 0, 77, 0
2, 26181, Note_on_c, 0, 85, 0
2, 26188, Note_on_c, 0, 34, 0
2, 26242, Note_on_c, 0, 73, 0
2, 26246, Note_on_c, 0, 49, 89
2, 26247, Note_on_c, 0, 37, 92
2, 26247, Note_on_c, 0, 65, 83
2, 26252, Note_on_c, 0, 77, 82
2, 26253, Note_on_c, 0, 73, 83
2, 26309, Note_on_c, 0, 73, 0
2, 26321, Note_on_c, 0, 80, 87
2, 26327, Control_c, 0, 64, 127
2, 26334, Note_on_c, 0, 37, 0
2, 26334, Note_on_c, 0, 49, 0
2, 26380, Note_on_c, 0, 77, 0
2, 26386, Note_on_c, 0, 77, 83
2, 26387, Note_on_c, 0, 51, 94
2, 26390, Note_on_c, 0, 39, 90
2, 26392, Note_on_c, 0, 73, 73
2, 26434, Note_on_c, 0, 73, 0
2, 26445, Note_on_c, 0, 73, 67
2, 26465, Note_on_c, 0, 65, 0
2, 26477, Note_on_c, 0, 51, 0
2, 26479, Note_on_c, 0, 77, 0
2, 26479, Note_on_c, 0, 39, 0
2, 26480, Control_c, 0, 64, 0
2, 26481, Note_on_c, 0, 80, 0
2, 26484, Note_on_c, 0, 73, 0
2, 26524, Note_on_c, 0, 48, 96
2, 26528, Note_on_c, 0, 36, 98
2, 26529, Note_on_c, 0, 72, 98
2, 26530, Note_on_c, 0, 79, 89
2, 26534, Note_on_c, 0, 75, 90
2, 26580, Control_c, 0, 64, 127
2, 26588, Note_on_c, 0, 79, 0
2, 26596, Note_on_c, 0, 79, 86
2, 26672, Note_on_c, 0, 75, 0
2, 26680, Note_on_c, 0, 79, 0
2, 26682, Note_on_c, 0, 75, 76
2, 26690, Note_on_c, 0, 79, 84
2, 26780, Note_on_c, 0, 75, 0
2, 26783, Note_on_c, 0, 51, 97
2, 26784, Note_on_c, 0, 39, 81
2, 26784, Note_on_c, 0, 67, 69
2, 26790, Note_on_c, 0, 75, 78
2, 26926, Note_on_c, 0, 72, 0
2, 26927, Note_on_c, 0, 84, 101
2, 26932, Note_on_c, 0, 72, 94
2, 26937, Note_on_c, 0, 34, 92
2, 26937, Note_on_c, 0, 81, 81
2, 26938, Note_on_c, 0, 46, 91
2, 26979, Note_on_c, 0, 67, 0
2, 27015, Note_on_c, 0, 79, 0
2, 27015, Note_on_c, 0, 72, 0
2, 27015, Note_on_c, 0, 48, 0
2, 27015, Note_on_c, 0, 51, 0
2, 27016, Note_on_c, 0, 46, 0
2, 27016, Note_on_c, 0, 75, 0
2, 27016, Control_c, 0, 64, 0
2, 27017, Note_on_c, 0, 34, 0
2, 27017, Note_on_c, 0, 39, 0
2, 27025, Note_on_c, 0, 81, 0
2, 27056, Note_on_c, 0, 36, 0
2, 27056, Note_on_c, 0, 84, 0
2, 27062, Note_on_c, 0, 36, 99
2, 27062, Note_on_c, 0, 48, 94
2, 27066, Note_on_c, 0, 84, 106
2, 27067, Note_on_c, 0, 72, 103
2, 27133, Control_c, 0, 64, 127
2, 27194, Note_on_c, 0, 72, 0
2, 27203, Note_on_c, 0, 75, 86
2, 27203, Note_on_c, 0, 79, 74
2, 27205, Note_on_c, 0, 72, 86
2, 27252, Control_c, 0, 64, 0
2, 27267, Note_on_c, 0, 72, 0
2, 27267, Note_on_c, 0, 84, 0
2, 27268, Note_on_c, 0, 75, 0
2, 27294, Note_on_c, 0, 36, 0
2, 27294, Note_on_c, 0, 48, 0
2, 27328, Note_on_c, 0, 51, 96
2, 27333, Note_on_c, 0, 79, 0
2, 27336, Note_on_c, 0, 39, 82
2, 27337, Note_on_c, 0, 79, 74
2, 27338, Note_on_c, 0, 75, 84
2, 27342, Note_on_c, 0, 72, 75
2, 27367, Note_on_c, 0, 51, 0
2, 27456, Note_on_c, 0, 75, 0
2, 27461, Note_on_c, 0, 34, 91
2, 27463, Note_on_c, 0, 72, 0
2, 27467, Note_on_c, 0, 75, 85
2, 27474, Note_on_c, 0, 72, 76
2, 27511, Note_on_c, 0, 75, 0
2, 27513, Note_on_c, 0, 34, 0
2, 27525, Note_on_c, 0, 39, 0
2, 27540, Note_on_c, 0, 79, 0
2, 27555, Note_on_c, 0, 72, 0
2, 27601, Note_on_c, 0, 36, 99
2, 27601, Note_on_c, 0, 48, 100
2, 27604, Note_on_c, 0, 75, 95
2, 27605, Note_on_c, 0, 79, 88
2, 27608, Note_on_c, 0, 72, 92
2, 27663, Control_c, 0, 64, 127
2, 27740, Note_on_c, 0, 72, 0
2, 27744, Note_on_c, 0, 72, 80
2, 27862, Note_on_c, 0, 51, 92
2, 27867, Note_on_c, 0, 39, 85
2, 27870, Note_on_c, 0, 70, 71
2, 27878, Note_on_c, 0, 70, 0
2, 27886, Note_on_c, 0, 79, 0
2, 27890, Note_on_c, 0, 79, 75
2, 27894, Note_on_c, 0, 67, 56
2, 27993, Note_on_c, 0, 72, 0
2, 27997, Note_on_c, 0, 84, 104
2, 27997, Note_on_c, 0, 34, 79
2, 27998, Note_on_c, 0, 72, 87
2, 28018, Note_on_c, 0, 82, 68
2, 28090, Note_on_c, 0, 75, 0
2, 28090, Note_on_c, 0, 79, 0
2, 28091, Note_on_c, 0, 51, 0
2, 28091, Note_on_c, 0, 39, 0
2, 28091, Note_on_c, 0, 34, 0
2, 28093, Note_on_c, 0, 82, 0
2, 28097, Control_c, 0, 64, 0
2, 28116, Note_on_c, 0, 67, 0
2, 28124, Note_on_c, 0, 48, 0
2, 28131, Note_on_c, 0, 36, 0
2, 28131, Note_on_c, 0, 84, 0
2, 28134, Note_on_c, 0, 48, 105
2, 28136, Note_on_c, 0, 84, 103
2, 28137, Note_on_c, 0, 36, 101
2, 28170, Control_c, 0, 64, 127
2, 28263, Note_on_c, 0, 75, 86
2, 28274, Note_on_c, 0, 79, 57
2, 28392, Note_on_c, 0, 72, 0
2, 28392, Note_on_c, 0, 75, 0
2, 28392, Note_on_c, 0, 79, 0
2, 28403, Note_on_c, 0, 51, 95
2, 28403, Note_on_c, 0, 79, 79
2, 28403, Note_on_c, 0, 72, 83
2, 28404, Note_on_c, 0, 75, 84
2, 28404, Note_on_c, 0, 39, 81
2, 28496, Control_c, 0, 64, 0
2, 28498, Note_on_c, 0, 39, 0
2, 28498, Note_on_c, 0, 51, 0
2, 28498, Note_on_c, 0, 36, 0
2, 28499, Note_on_c, 0, 84, 0
2, 28531, Note_on_c, 0, 48, 0
2, 28531, Note_on_c, 0, 75, 0
2, 28531, Note_on_c, 0, 79, 0
2, 28535, Note_on_c, 0, 75, 84
2, 28535, Note_on_c, 0, 34, 90
2, 28541, Note_on_c, 0, 79, 78
2, 28600, Note_on_c, 0, 72, 0
2, 28623, Note_on_c, 0, 34, 0
2, 28623, Note_on_c, 0, 75, 0
2, 28654, Note_on_c, 0, 79, 0
2, 28669, Note_on_c, 0, 79, 91
2, 28670, Note_on_c, 0, 51, 105
2, 28672, Note_on_c, 0, 39, 91
2, 28672, Note_on_c, 0, 75, 98
2, 28677, Control_c, 0, 64, 127
2, 28746, Note_on_c, 0, 82, 97
2, 28861, Note_on_c, 0, 82, 0
2, 28865, Note_on_c, 0, 82, 82
2, 28930, Note_on_c, 0, 79, 0
2, 28936, Note_on_c, 0, 79, 71
2, 28936, Note_on_c, 0, 36, 85
2, 28941, Note_on_c, 0, 48, 75
2, 28984, Note_on_c, 0, 82, 0
2, 28994, Note_on_c, 0, 82, 89
2, 29053, Note_on_c, 0, 75, 0
2, 29061, Note_on_c, 0, 87, 105
2, 29062, Note_on_c, 0, 75, 105
2, 29068, Note_on_c, 0, 51, 0
2, 29068, Note_on_c, 0, 79, 0
2, 29076, Note_on_c, 0, 39, 0
2, 29076, Note_on_c, 0, 79, 86
2, 29080, Note_on_c, 0, 51, 102
2, 29080, Note_on_c, 0, 39, 92
2, 29145, Note_on_c, 0, 82, 0
2, 29149, Note_on_c, 0, 82, 86
2, 29199, Note_on_c, 0, 75, 0
2, 29199, Note_on_c, 0, 79, 0
2, 29199, Note_on_c, 0, 87, 0
2, 29205, Note_on_c, 0, 75, 93
2, 29206, Note_on_c, 0, 87, 99
2, 29208, Note_on_c, 0, 79, 73
2, 29306, Note_on_c, 0, 36, 0
2, 29317, Note_on_c, 0, 36, 95
2, 29337, Note_on_c, 0, 75, 0
2, 29337, Note_on_c, 0, 79, 0
2, 29342, Note_on_c, 0, 79, 91
2, 29343, Note_on_c, 0, 75, 88
2, 29369, Note_on_c, 0, 39, 0
2, 29369, Note_on_c, 0, 51, 0
2, 29370, Note_on_c, 0, 48, 0
2, 29370, Control_c, 0, 64, 0
2, 29371, Note_on_c, 0, 87, 0
2, 29372, Note_on_c, 0, 36, 0
2, 29406, Note_on_c, 0, 82, 0
2, 29422, Note_on_c, 0, 75, 0
2, 29422, Note_on_c, 0, 79, 0
2, 29453, Note_on_c, 0, 48, 76
2, 29453, Note_on_c, 0, 36, 88
2, 29458, Note_on_c, 0, 79, 74
2, 29459, Note_on_c, 0, 75, 76
2, 29489, Note_on_c, 0, 36, 0
2, 29506, Note_on_c, 0, 48, 0
2, 29562, Note_on_c, 0, 82, 84
2, 29583, Note_on_c, 0, 79, 0
2, 29591, Note_on_c, 0, 75, 0
2, 29594, Note_on_c, 0, 51, 100
2, 29594, Note_on_c, 0, 79, 84
2, 29594, Note_on_c, 0, 39, 93
2, 29597, Note_on_c, 0, 75, 86
2, 29645, Note_on_c, 0, 51, 0
2, 29650, Note_on_c, 0, 39, 0
2, 29655, Note_on_c, 0, 82, 0
2, 29656, Note_on_c, 0, 75, 0
2, 29657, Note_on_c, 0, 79, 0
2, 29727, Note_on_c, 0, 73, 99
2, 29727, Note_on_c, 0, 49, 98
2, 29730, Note_on_c, 0, 37, 102
2, 29731, Note_on_c, 0, 77, 95
2, 29775, Control_c, 0, 64, 127
2, 29796, Note_on_c, 0, 80, 93
2, 29859, Note_on_c, 0, 49, 0
2, 29859, Note_on_c, 0, 73, 0
2, 29859, Note_on_c, 0, 77, 0
2, 29864, Note_on_c, 0, 77, 74
2, 29866, Note_on_c, 0, 49, 63
2, 29870, Note_on_c, 0, 73, 85
2, 29959, Note_on_c, 0, 77, 0
2, 29965, Note_on_c, 0, 77, 79
2, 30011, Note_on_c, 0, 34, 88
2, 30036, Note_on_c, 0, 80, 0
2, 30045, Note_on_c, 0, 80, 88
2, 30125, Note_on_c, 0, 85, 103
2, 30128, Note_on_c, 0, 73, 0
2, 30132, Note_on_c, 0, 73, 99
2, 30144, Note_on_c, 0, 37, 0
2, 30144, Note_on_c, 0, 49, 0
2, 30144, Note_on_c, 0, 77, 0
2, 30153, Note_on_c, 0, 49, 85
2, 30154, Note_on_c, 0, 37, 93
2, 30155, Note_on_c, 0, 77, 67
2, 30266, Note_on_c, 0, 80, 0
2, 30266, Note_on_c, 0, 85, 0
2, 30270, Note_on_c, 0, 85, 100
2, 30274, Note_on_c, 0, 37, 0
2, 30274, Note_on_c, 0, 49, 0
2, 30274, Note_on_c, 0, 73, 0
2, 30278, Note_on_c, 0, 80, 86
2, 30278, Note_on_c, 0, 73, 89
2, 30280, Note_on_c, 0, 49, 77
2, 30283, Note_on_c, 0, 37, 83
2, 30389, Note_on_c, 0, 34, 0
2, 30393, Note_on_c, 0, 34, 99
2, 30400, Note_on_c, 0, 37, 0
2, 30405, Note_on_c, 0, 73, 0
2, 30405, Note_on_c, 0, 77, 0
2, 30410, Note_on_c, 0, 73, 92
2, 30411, Note_on_c, 0, 77, 87
2, 30469, Note_on_c, 0, 34, 0
2, 30471, Note_on_c, 0, 77, 0
2, 30472, Note_on_c, 0, 85, 0
2, 30473, Note_on_c, 0, 73, 0
2, 30476, Control_c, 0, 64, 0
2, 30481, Note_on_c, 0, 80, 0
2, 30520, Note_on_c, 0, 49, 0
2, 30524, Note_on_c, 0, 37, 95
2, 30525, Note_on_c, 0, 49, 90
2, 30537, Note_on_c, 0, 73, 85
2, 30538, Note_on_c, 0, 77, 87
2, 30574, Control_c, 0, 64, 127
2, 30673, Note_on_c, 0, 77, 0
2, 30676, Note_on_c, 0, 51, 94
2, 30678, Note_on_c, 0, 77, 90
2, 30681, Note_on_c, 0, 73, 0
2, 30683, Note_on_c, 0, 39, 86
2, 30685, Note_on_c, 0, 73, 80
2, 30753, Note_on_c, 0, 51, 0
2, 30754, Note_on_c, 0, 77, 0
2, 30754, Note_on_c, 0, 39, 0
2, 30754, Note_on_c, 0, 49, 0
2, 30754, Note_on_c, 0, 37, 0
2, 30755, Note_on_c, 0, 73, 0
2, 30756, Control_c, 0, 64, 0
2, 30815, Note_on_c, 0, 48, 97
2, 30816, Note_on_c, 0, 36, 92
2, 30818, Note_on_c, 0, 72, 97
2, 30823, Note_on_c, 0, 75, 86
2, 30858, Control_c, 0, 64, 127
2, 30886, Note_on_c, 0, 79, 77
2, 30940, Note_on_c, 0, 84, 76
2, 31084, Note_on_c, 0, 51, 97
2, 31085, Note_on_c, 0, 39, 86
2, 31091, Note_on_c, 0, 67, 77
2, 31096, Note_on_c, 0, 67, 0
2, 31219, Note_on_c, 0, 72, 0
2, 31219, Note_on_c, 0, 84, 0
2, 31223, Note_on_c, 0, 84, 101
2, 31224, Note_on_c, 0, 34, 89
2, 31227, Note_on_c, 0, 46, 91
2, 31228, Note_on_c, 0, 72, 90
2, 31295, Note_on_c, 0, 34, 0
2, 31297, Note_on_c, 0, 46, 0
2, 31298, Note_on_c, 0, 48, 0
2, 31299, Note_on_c, 0, 51, 0
2, 31299, Note_on_c, 0, 36, 0
2, 31299, Note_on_c, 0, 84, 0
2, 31299, Note_on_c, 0, 72, 0
2, 31299, Note_on_c, 0, 75, 0
2, 31299, Note_on_c, 0, 79, 0
2, 31299, Note_on_c, 0, 39, 0
2, 31302, Control_c, 0, 64, 0
2, 31354, Note_on_c, 0, 84, 102
2, 31355, Note_on_c, 0, 48, 96
2, 31357, Note_on_c, 0, 36, 96
2, 31361, Note_on_c, 0, 79, 76
2, 31395, Control_c, 0, 64, 127
2, 31411, Note_on_c, 0, 79, 0
2, 31415, Note_on_c, 0, 79, 71
2, 31499, Note_on_c, 0, 75, 82
2, 31527, Note_on_c, 0, 72, 80
2, 31603, Note_on_c, 0, 72, 0
2, 31613, Note_on_c, 0, 72, 78
2, 31665, Note_on_c, 0, 66, 73
2, 31673, Note_on_c, 0, 67, 75
2, 31748, Note_on_c, 0, 63, 74
2, 31748, Note_on_c, 0, 60, 77
2, 31840, Note_on_c, 0, 67, 0
2, 31840, Note_on_c, 0, 36, 0
2, 31841, Note_on_c, 0, 79, 0
2, 31843, Note_on_c, 0, 84, 0
2, 31843, Note_on_c, 0, 72, 0
2, 31843, Note_on_c, 0, 48, 0
2, 31843, Note_on_c, 0, 63, 0
2, 31843, Note_on_c, 0, 75, 0
2, 31844, Note_on_c, 0, 60, 0
2, 31844, Control_c, 0, 64, 0
2, 31856, Note_on_c, 0, 66, 0
2, 31897, Note_on_c, 0, 79, 92
2, 31904, Note_on_c, 0, 67, 86
2, 31906, Note_on_c, 0, 48, 77
2, 31925, Control_c, 0, 64, 127
2, 31999, Note_on_c, 0, 55, 75
2, 32071, Note_on_c, 0, 48, 0
2, 32079, Note_on_c, 0, 48, 72
2, 32081, Note_on_c, 0, 51, 51
2, 32152, Note_on_c, 0, 77, 84
2, 32179, Note_on_c, 0, 55, 0
2, 32186, Note_on_c, 0, 55, 74
2, 32194, Note_on_c, 0, 51, 0
2, 32198, Note_on_c, 0, 51, 74
2, 32249, Note_on_c, 0, 79, 0
2, 32251, Note_on_c, 0, 55, 0
2, 32253, Note_on_c, 0, 48, 0
2, 32253, Note_on_c, 0, 51, 0
2, 32257, Note_on_c, 0, 77, 0
2, 32259, Control_c, 0, 64, 0
2, 32263, Note_on_c, 0, 67, 0
2, 32297, Note_on_c, 0, 75, 90
2, 32299, Note_on_c, 0, 67, 74
2, 32319, Note_on_c, 0, 45, 52
2, 32320, Note_on_c, 0, 48, 58
2, 32356, Note_on_c, 0, 45, 0
2, 32395, Note_on_c, 0, 55, 72
2, 32424, Note_on_c, 0, 48, 0
2, 32430, Note_on_c, 0, 48, 76
2, 32501, Note_on_c, 0, 55, 0
2, 32507, Note_on_c, 0, 55, 76
2, 32555, Note_on_c, 0, 48, 0
2, 32560, Note_on_c, 0, 72, 86
2, 32562, Note_on_c, 0, 48, 69
2, 32578, Note_on_c, 0, 67, 0
2, 32593, Note_on_c, 0, 55, 0
2, 32616, Note_on_c, 0, 72, 0
2, 32624, Note_on_c, 0, 75, 0
2, 32686, Note_on_c, 0, 51, 78
2, 32689, Note_on_c, 0, 72, 94
2, 32693, Note_on_c, 0, 67, 82
2, 32716, Note_on_c, 0, 48, 0
2, 32736, Note_on_c, 0, 51, 0
2, 32743, Note_on_c, 0, 55, 73
2, 32778, Note_on_c, 0, 72, 0
2, 32802, Note_on_c, 0, 55, 0
2, 32826, Note_on_c, 0, 46, 81
2, 32827, Note_on_c, 0, 70, 88
2, 32860, Note_on_c, 0, 46, 0
2, 32868, Note_on_c, 0, 70, 0
2, 32878, Note_on_c, 0, 67, 0
2, 32932, Note_on_c, 0, 51, 94
2, 32959, Note_on_c, 0, 72, 94
2, 32964, Note_on_c, 0, 67, 88
2, 32992, Note_on_c, 0, 51, 0
2, 33021, Note_on_c, 0, 58, 73
2, 33077, Note_on_c, 0, 51, 80
2, 33095, Note_on_c, 0, 58, 0
2, 33119, Note_on_c, 0, 51, 0
2, 33166, Note_on_c, 0, 58, 72
2, 33208, Note_on_c, 0, 67, 0
2, 33209, Note_on_c, 0, 58, 0
2, 33216, Note_on_c, 0, 72, 0
2, 33220, Note_on_c, 0, 72, 82
2, 33227, Note_on_c, 0, 48, 77
2, 33262, Note_on_c, 0, 48, 0
2, 33269, Note_on_c, 0, 72, 0
2, 33296, Note_on_c, 0, 58, 43
2, 33308, Note_on_c, 0, 58, 0
2, 33355, Note_on_c, 0, 75, 89
2, 33358, Note_on_c, 0, 51, 84
2, 33359, Note_on_c, 0, 67, 79
2, 33430, Note_on_c, 0, 58, 58
2, 33438, Note_on_c, 0, 51, 0
2, 33482, Note_on_c, 0, 51, 70
2, 33527, Note_on_c, 0, 51, 0
2, 33553, Note_on_c, 0, 58, 0
2, 33565, Note_on_c, 0, 58, 73
2, 33569, Note_on_c, 0, 75, 0
2, 33600, Note_on_c, 0, 67, 0
2, 33605, Note_on_c, 0, 58, 0
2, 33611, Note_on_c, 0, 72, 83
2, 33631, Note_on_c, 0, 48, 71
2, 33642, Note_on_c, 0, 72, 0
2, 33677, Note_on_c, 0, 48, 0
2, 33688, Note_on_c, 0, 58, 65
2, 33741, Note_on_c, 0, 72, 86
2, 33756, Note_on_c, 0, 67, 76
2, 33762, Note_on_c, 0, 48, 71
2, 33765, Note_on_c, 0, 58, 0
2, 33807, Note_on_c, 0, 67, 0
2, 33815, Note_on_c, 0, 72, 0
2, 33849, Note_on_c, 0, 48, 0
2, 33851, Note_on_c, 0, 51, 82
2, 33875, Note_on_c, 0, 67, 78
2, 33880, Note_on_c, 0, 75, 83
2, 33911, Note_on_c, 0, 67, 0
2, 33919, Note_on_c, 0, 51, 0
2, 33928, Note_on_c, 0, 58, 78
2, 33937, Note_on_c, 0, 75, 0
2, 33965, Note_on_c, 0, 58, 0
2, 34011, Note_on_c, 0, 49, 79
2, 34012, Note_on_c, 0, 77, 91
2, 34017, Note_on_c, 0, 68, 91
2, 34043, Note_on_c, 0, 49, 0
2, 34049, Note_on_c, 0, 68, 0
2, 34058, Note_on_c, 0, 77, 0
2, 34080, Note_on_c, 0, 56, 78
2, 34133, Note_on_c, 0, 56, 0
2, 34146, Note_on_c, 0, 77, 81
2, 34147, Note_on_c, 0, 68, 75
2, 34148, Note_on_c, 0, 49, 67
2, 34180, Note_on_c, 0, 77, 0
2, 34182, Note_on_c, 0, 49, 0
2, 34214, Note_on_c, 0, 56, 69
2, 34222, Note_on_c, 0, 68, 0
2, 34256, Note_on_c, 0, 56, 0
2, 34287, Note_on_c, 0, 46, 80
2, 34287, Note_on_c, 0, 75, 90
2, 34337, Note_on_c, 0, 46, 0
2, 34337, Note_on_c, 0, 75, 0
2, 34355, Note_on_c, 0, 56, 61
2, 34418, Note_on_c, 0, 49, 77
2, 34418, Note_on_c, 0, 77, 93
2, 34424, Note_on_c, 0, 68, 89
2, 34429, Note_on_c, 0, 56, 0
2, 34447, Note_on_c, 0, 49, 0
2, 34484, Note_on_c, 0, 56, 79
2, 34525, Note_on_c, 0, 56, 0
2, 34542, Note_on_c, 0, 49, 69
2, 34590, Note_on_c, 0, 49, 0
2, 34609, Note_on_c, 0, 56, 78
2, 34648, Note_on_c, 0, 56, 0
2, 34679, Note_on_c, 0, 46, 87
2, 34682, Note_on_c, 0, 77, 0
2, 34687, Note_on_c, 0, 77, 83
2, 34713, Note_on_c, 0, 68, 0
2, 34714, Note_on_c, 0, 46, 0
2, 34723, Note_on_c, 0, 68, 63
2, 34753, Note_on_c, 0, 56, 49
2, 34759, Note_on_c, 0, 56, 0
2, 34759, Note_on_c, 0, 77, 0
2, 34813, Note_on_c, 0, 68, 0
2, 34820, Note_on_c, 0, 49, 81
2, 34823, Note_on_c, 0, 79, 96
2, 34824, Note_on_c, 0, 68, 86
2, 34846, Note_on_c, 0, 49, 0
2, 34885, Note_on_c, 0, 53, 17
2, 34890, Note_on_c, 0, 53, 0
2, 34891, Note_on_c, 0, 56, 22
2, 34947, Note_on_c, 0, 51, 84
2, 34990, Note_on_c, 0, 56, 0
2, 34999, Note_on_c, 0, 51, 0
2, 35000, Note_on_c, 0, 56, 80
2, 35013, Note_on_c, 0, 68, 0
2, 35066, Note_on_c, 0, 56, 0
2, 35082, Note_on_c, 0, 48, 82
2, 35084, Note_on_c, 0, 72, 96
2, 35087, Note_on_c, 0, 67, 88
2, 35126, Note_on_c, 0, 48, 0
2, 35158, Note_on_c, 0, 55, 79
2, 35226, Note_on_c, 0, 55, 0
2, 35239, Note_on_c, 0, 48, 67
2, 35258, Note_on_c, 0, 67, 0
2, 35258, Note_on_c, 0, 72, 0
2, 35281, Note_on_c, 0, 79, 0
2, 35287, Note_on_c, 0, 48, 0
2, 35337, Note_on_c, 0, 51, 83
2, 35338, Note_on_c, 0, 72, 93
2, 35341, Note_on_c, 0, 67, 84
2, 35365, Note_on_c, 0, 72, 0
2, 35385, Note_on_c, 0, 51, 0
2, 35404, Note_on_c, 0, 67, 0
2, 35423, Note_on_c, 0, 55, 75
2, 35473, Note_on_c, 0, 55, 0
2, 35484, Note_on_c, 0, 75, 95
2, 35485, Note_on_c, 0, 46, 83
2, 35491, Note_on_c, 0, 67, 84
2, 35521, Note_on_c, 0, 46, 0
2, 35562, Note_on_c, 0, 55, 62
2, 35609, Note_on_c, 0, 48, 77
2, 35654, Note_on_c, 0, 48, 0
2, 35673, Note_on_c, 0, 55, 0
2, 35683, Note_on_c, 0, 55, 65
2, 35738, Note_on_c, 0, 48, 73
2, 35791, Note_on_c, 0, 48, 0
2, 35819, Note_on_c, 0, 55, 0
2, 35829, Note_on_c, 0, 55, 61
2, 35884, Note_on_c, 0, 51, 90
2, 35939, Note_on_c, 0, 51, 0
2, 35942, Note_on_c, 0, 55, 0
2, 35948, Note_on_c, 0, 55, 77
2, 35953, Note_on_c, 0, 75, 0
2, 35986, Note_on_c, 0, 55, 0
2, 36003, Note_on_c, 0, 67, 0
2, 36017, Note_on_c, 0, 46, 85
2, 36046, Note_on_c, 0, 46, 0
2, 36108, Note_on_c, 0, 55, 60
2, 36141, Note_on_c, 0, 79, 89
2, 36144, Note_on_c, 0, 48, 82
2, 36146, Note_on_c, 0, 67, 87
2, 36169, Note_on_c, 0, 67, 0
2, 36173, Note_on_c, 0, 79, 0
2, 36195, Note_on_c, 0, 48, 0
2, 36203, Note_on_c, 0, 55, 0
2, 36214, Note_on_c, 0, 55, 61
2, 36273, Note_on_c, 0, 48, 76
2, 36273, Note_on_c, 0, 79, 88
2, 36277, Note_on_c, 0, 67, 84
2, 36288, Note_on_c, 0, 55, 0
2, 36305, Note_on_c, 0, 67, 0
2, 36307, Note_on_c, 0, 79, 0
2, 36357, Note_on_c, 0, 48, 0
2, 36396, Note_on_c, 0, 51, 81
2, 36415, Note_on_c, 0, 67, 76
2, 36417, Note_on_c, 0, 77, 68
2, 36442, Note_on_c, 0, 51, 0
2, 36444, Note_on_c, 0, 55, 58
2, 36464, Note_on_c, 0, 77, 0
2, 36478, Note_on_c, 0, 55, 0
2, 36480, Note_on_c, 0, 67, 0
2, 36531, Note_on_c, 0, 46, 86
2, 36542, Note_on_c, 0, 75, 98
2, 36547, Note_on_c, 0, 67, 82
2, 36565, Note_on_c, 0, 46, 0
2, 36604, Note_on_c, 0, 55, 67
2, 36639, Note_on_c, 0, 55, 0
2, 36661, Note_on_c, 0, 48, 76
2, 36725, Note_on_c, 0, 48, 0
2, 36729, Note_on_c, 0, 55, 80
2, 36784, Note_on_c, 0, 55, 0
2, 36806, Note_on_c, 0, 72, 83
2, 36808, Note_on_c, 0, 48, 80
2, 36813, Note_on_c, 0, 75, 0
2, 36840, Note_on_c, 0, 67, 0
2, 36844, Note_on_c, 0, 72, 0
2, 36906, Note_on_c, 0, 48, 0
2, 36920, Note_on_c, 0, 51, 78
2, 36941, Note_on_c, 0, 67, 85
2, 36942, Note_on_c, 0, 72, 95
2, 36983, Note_on_c, 0, 72, 0
2, 36990, Note_on_c, 0, 55, 80
2, 37002, Note_on_c, 0, 67, 0
2, 37005, Note_on_c, 0, 51, 0
2, 37056, Note_on_c, 0, 55, 0
2, 37080, Note_on_c, 0, 70, 88
2, 37085, Note_on_c, 0, 46, 76
2, 37121, Note_on_c, 0, 46, 0
2, 37122, Note_on_c, 0, 70, 0
2, 37187, Note_on_c, 0, 51, 88
2, 37203, Note_on_c, 0, 72, 99
2, 37208, Note_on_c, 0, 67, 89
2, 37229, Note_on_c, 0, 72, 0
2, 37268, Note_on_c, 0, 58, 77
2, 37278, Note_on_c, 0, 51, 0
2, 37294, Note_on_c, 0, 67, 0
2, 37334, Note_on_c, 0, 51, 75
2, 37345, Note_on_c, 0, 72, 80
2, 37350, Note_on_c, 0, 58, 0
2, 37375, Note_on_c, 0, 51, 0
2, 37388, Note_on_c, 0, 72, 0
2, 37411, Note_on_c, 0, 58, 73
2, 37436, Note_on_c, 0, 58, 0
2, 37475, Note_on_c, 0, 48, 70
2, 37476, Note_on_c, 0, 72, 92
2, 37508, Note_on_c, 0, 72, 0
2, 37539, Note_on_c, 0, 48, 0
2, 37544, Note_on_c, 0, 58, 54
2, 37605, Note_on_c, 0, 51, 80
2, 37608, Note_on_c, 0, 75, 97
2, 37612, Note_on_c, 0, 67, 83
2, 37640, Note_on_c, 0, 51, 0
2, 37662, Note_on_c, 0, 58, 0
2, 37728, Note_on_c, 0, 51, 71
2, 37797, Note_on_c, 0, 58, 79
2, 37824, Note_on_c, 0, 51, 0
2, 37841, Note_on_c, 0, 58, 0
2, 37873, Note_on_c, 0, 67, 0
2, 37873, Note_on_c, 0, 48, 83
2, 37874, Note_on_c, 0, 72, 89
2, 37881, Note_on_c, 0, 75, 0
2, 37907, Note_on_c, 0, 72, 0
2, 37924, Note_on_c, 0, 48, 0
2, 37944, Note_on_c, 0, 58, 64
2, 38006, Note_on_c, 0, 72, 95
2, 38010, Note_on_c, 0, 48, 83
2, 38016, Note_on_c, 0, 58, 0
2, 38018, Note_on_c, 0, 67, 86
2, 38043, Note_on_c, 0, 72, 0
2, 38062, Note_on_c, 0, 67, 0
2, 38091, Note_on_c, 0, 48, 0
2, 38113, Note_on_c, 0, 51, 88
2, 38144, Note_on_c, 0, 75, 93
2, 38169, Note_on_c, 0, 51, 0
2, 38196, Note_on_c, 0, 58, 74
2, 38215, Note_on_c, 0, 75, 0
2, 38261, Note_on_c, 0, 58, 0
2, 38270, Note_on_c, 0, 77, 98
2, 38273, Note_on_c, 0, 68, 98
2, 38273, Note_on_c, 0, 49, 73
2, 38304, Note_on_c, 0, 49, 0
2, 38305, Note_on_c, 0, 68, 0
2, 38311, Note_on_c, 0, 77, 0
2, 38341, Note_on_c, 0, 56, 78
2, 38404, Note_on_c, 0, 77, 84
2, 38405, Note_on_c, 0, 49, 66
2, 38409, Note_on_c, 0, 68, 85
2, 38437, Note_on_c, 0, 49, 0
2, 38438, Note_on_c, 0, 56, 0
2, 38442, Note_on_c, 0, 68, 0
2, 38450, Note_on_c, 0, 77, 0
2, 38475, Note_on_c, 0, 51, 48
2, 38479, Note_on_c, 0, 56, 63
2, 38484, Note_on_c, 0, 51, 0
2, 38522, Note_on_c, 0, 56, 0
2, 38542, Note_on_c, 0, 46, 82
2, 38545, Note_on_c, 0, 75, 93
2, 38592, Note_on_c, 0, 46, 0
2, 38603, Note_on_c, 0, 56, 69
2, 38607, Note_on_c, 0, 75, 0
2, 38675, Note_on_c, 0, 49, 80
2, 38678, Note_on_c, 0, 77, 95
2, 38682, Note_on_c, 0, 68, 91
2, 38699, Note_on_c, 0, 56, 0
2, 38704, Note_on_c, 0, 49, 0
2, 38742, Note_on_c, 0, 56, 80
2, 38796, Note_on_c, 0, 49, 78
2, 38830, Note_on_c, 0, 56, 0
2, 38857, Note_on_c, 0, 49, 0
2, 38873, Note_on_c, 0, 56, 75
2, 38935, Note_on_c, 0, 46, 88
2, 38937, Note_on_c, 0, 77, 0
2, 38945, Note_on_c, 0, 68, 0
2, 38948, Note_on_c, 0, 77, 83
2, 38953, Note_on_c, 0, 68, 81
2, 38966, Note_on_c, 0, 46, 0
2, 39006, Note_on_c, 0, 56, 0
2, 39022, Note_on_c, 0, 77, 0
2, 39072, Note_on_c, 0, 49, 76
2, 39074, Note_on_c, 0, 79, 98
2, 39100, Note_on_c, 0, 68, 0
2, 39101, Note_on_c, 0, 49, 0
2, 39199, Note_on_c, 0, 51, 82
2, 39242, Note_on_c, 0, 56, 81
2, 39277, Note_on_c, 0, 51, 0
2, 39280, Note_on_c, 0, 56, 0
2, 39313, Note_on_c, 0, 79, 0
2, 39341, Note_on_c, 0, 72, 97
2, 39341, Note_on_c, 0, 48, 82
2, 39342, Note_on_c, 0, 67, 92
2, 39396, Note_on_c, 0, 48, 0
2, 39440, Note_on_c, 0, 55, 83
2, 39473, Note_on_c, 0, 55, 0
2, 39526, Note_on_c, 0, 48, 61
2, 39602, Note_on_c, 0, 51, 70
2, 39613, Note_on_c, 0, 55, 68
2, 39651, Control_c, 0, 64, 127
2, 39686, Note_on_c, 0, 46, 90
2, 39820, Note_on_c, 0, 48, 0
2, 39826, Note_on_c, 0, 48, 76
2, 39829, Note_on_c, 0, 51, 0
2, 39829, Control_c, 0, 64, 0
2, 39829, Note_on_c, 0, 46, 0
2, 39831, Note_on_c, 0, 55, 0
2, 39889, Control_c, 0, 64, 127
2, 39893, Note_on_c, 0, 55, 66
2, 39948, Note_on_c, 0, 60, 76
2, 40016, Note_on_c, 0, 63, 77
2, 40035, Note_on_c, 0, 72, 0
2, 40046, Note_on_c, 0, 72, 83
2, 40074, Note_on_c, 0, 67, 0
2, 40078, Note_on_c, 0, 67, 90
2, 40081, Note_on_c, 0, 75, 90
2, 40085, Note_on_c, 0, 79, 82
2, 40123, Note_on_c, 0, 84, 104
2, 40233, Note_on_c, 0, 63, 0
2, 40233, Note_on_c, 0, 55, 0
2, 40234, Control_c, 0, 64, 0
2, 40234, Note_on_c, 0, 67, 0
2, 40235, Note_on_c, 0, 60, 0
2, 40235, Note_on_c, 0, 75, 0
2, 40235, Note_on_c, 0, 72, 0
2, 40236, Note_on_c, 0, 79, 0
2, 40237, Note_on_c, 0, 84, 0
2, 40243, Note_on_c, 0, 48, 0
2, 40397, Note_on_c, 0, 44, 99
2, 40397, Note_on_c, 0, 32, 93
2, 40398, Note_on_c, 0, 75, 97
2, 40399, Note_on_c, 0, 84, 86
2, 40399, Note_on_c, 0, 87, 100
2, 40400, Note_on_c, 0, 80, 96
2, 40419, Control_c, 0, 64, 127
2, 40465, Note_on_c, 0, 44, 0
2, 40626, Note_on_c, 0, 89, 99
2, 40628, Note_on_c, 0, 77, 91
2, 40819, Note_on_c, 0, 75, 0
2, 40819, Note_on_c, 0, 87, 0
2, 40824, Note_on_c, 0, 51, 96
2, 40824, Note_on_c, 0, 87, 96
2, 40824, Note_on_c, 0, 75, 96
2, 40825, Note_on_c, 0, 39, 94
2, 40949, Note_on_c, 0, 77, 0
2, 40949, Note_on_c, 0, 80, 0
2, 40949, Note_on_c, 0, 84, 0
2, 40949, Note_on_c, 0, 89, 0
2, 40956, Note_on_c, 0, 89, 104
2, 40959, Note_on_c, 0, 84, 85
2, 40959, Note_on_c, 0, 80, 98
2, 40960, Note_on_c, 0, 77, 91
2, 41234, Note_on_c, 0, 44, 95
2, 41236, Note_on_c, 0, 56, 102
2, 41458, Note_on_c, 0, 87, 0
2, 41459, Note_on_c, 0, 56, 0
2, 41459, Note_on_c, 0, 89, 0
2, 41459, Note_on_c, 0, 84, 0
2, 41459, Note_on_c, 0, 51, 0
2, 41459, Note_on_c, 0, 77, 0
2, 41459, Note_on_c, 0, 39, 0
2, 41459, Note_on_c, 0, 44, 0
2, 41459, Note_on_c, 0, 80, 0
2, 41460, Note_on_c, 0, 75, 0
2, 41462, Control_c, 0, 64, 0
2, 41472, Note_on_c, 0, 32, 0
2, 41513, Note_on_c, 0, 87, 99
2, 41514, Note_on_c, 0, 34, 96
2, 41514, Note_on_c, 0, 82, 93
2, 41515, Note_on_c, 0, 46, 99
2, 41516, Note_on_c, 0, 75, 97
2, 41548, Control_c, 0, 64, 127
2, 41724, Note_on_c, 0, 89, 98
2, 41729, Note_on_c, 0, 77, 87
2, 41925, Note_on_c, 0, 75, 0
2, 41925, Note_on_c, 0, 87, 0
2, 41934, Note_on_c, 0, 87, 98
2, 41935, Note_on_c, 0, 53, 90
2, 41936, Note_on_c, 0, 75, 95
2, 41937, Note_on_c, 0, 41, 85
2, 42063, Note_on_c, 0, 89, 0
2, 42071, Note_on_c, 0, 77, 0
2, 42071, Note_on_c, 0, 82, 0
2, 42073, Note_on_c, 0, 89, 101
2, 42075, Note_on_c, 0, 77, 95
2, 42079, Note_on_c, 0, 82, 92
2, 42332, Note_on_c, 0, 46, 0
2, 42332, Note_on_c, 0, 87, 0
2, 42338, Note_on_c, 0, 87, 96
2, 42339, Note_on_c, 0, 75, 0
2, 42343, Note_on_c, 0, 46, 98
2, 42343, Note_on_c, 0, 75, 97
2, 42573, Control_c, 0, 64, 0
2, 42573, Note_on_c, 0, 41, 0
2, 42573, Note_on_c, 0, 89, 0
2, 42574, Note_on_c, 0, 77, 0
2, 42574, Note_on_c, 0, 87, 0
2, 42574, Note_on_c, 0, 82, 0
2, 42574, Note_on_c, 0, 46, 0
2, 42574, Note_on_c, 0, 75, 0
2, 42575, Note_on_c, 0, 53, 0
2, 42585, Note_on_c, 0, 34, 0
2, 42619, Note_on_c, 0, 86, 105
2, 42627, Note_on_c, 0, 77, 92
2, 42628, Note_on_c, 0, 74, 95
2, 42629, Note_on_c, 0, 36, 96
2, 42632, Note_on_c, 0, 82, 98
2, 42700, Control_c, 0, 64, 127
2, 43038, Note_on_c, 0, 74, 0
2, 43038, Note_on_c, 0, 77, 0
2, 43038, Note_on_c, 0, 82, 0
2, 43043, Note_on_c, 0, 82, 101
2, 43043, Note_on_c, 0, 74, 88
2, 43046, Note_on_c, 0, 77, 84
2, 43049, Note_on_c, 0, 70, 89
2, 43049, Note_on_c, 0, 55, 90
2, 43049, Note_on_c, 0, 43, 89
2, 43445, Note_on_c, 0, 77, 0
2, 43456, Note_on_c, 0, 51, 95
2, 43456, Note_on_c, 0, 77, 93
2, 43457, Note_on_c, 0, 65, 94
2, 43461, Note_on_c, 0, 70, 0
2, 43461, Note_on_c, 0, 74, 0
2, 43464, Note_on_c, 0, 63, 95
2, 43465, Note_on_c, 0, 74, 80
2, 43466, Note_on_c, 0, 70, 87
2, 43468, Note_on_c, 0, 62, 84
2, 43469, Note_on_c, 0, 75, 81
2, 43721, Note_on_c, 0, 36, 0
2, 43724, Note_on_c, 0, 65, 0
2, 43724, Note_on_c, 0, 82, 0
2, 43725, Control_c, 0, 64, 0
2, 43725, Note_on_c, 0, 51, 0
2, 43725, Note_on_c, 0, 86, 0
2, 43725, Note_on_c, 0, 55, 0
2, 43725, Note_on_c, 0, 77, 0
2, 43726, Note_on_c, 0, 43, 0
2, 43729, Note_on_c, 0, 75, 0
2, 43737, Note_on_c, 0, 70, 0
2, 43741, Note_on_c, 0, 79, 97
2, 43745, Note_on_c, 0, 62, 0
2, 43745, Note_on_c, 0, 63, 0
2, 43745, Note_on_c, 0, 74, 0
2, 43748, Note_on_c, 0, 50, 92
2, 43748, Note_on_c, 0, 70, 90
2, 43749, Note_on_c, 0, 62, 96
2, 43749, Note_on_c, 0, 67, 92
2, 43749, Note_on_c, 0, 74, 89
2, 43755, Note_on_c, 0, 58, 84
2, 43852, Control_c, 0, 64, 127
2, 44152, Note_on_c, 0, 58, 0
2, 44162, Note_on_c, 0, 58, 77
2, 44162, Note_on_c, 0, 46, 84
2, 44301, Note_on_c, 0, 72, 92
2, 44301, Note_on_c, 0, 60, 89
2, 44557, Note_on_c, 0, 79, 0
2, 44558, Note_on_c, 0, 58, 0
2, 44558, Note_on_c, 0, 70, 0
2, 44558, Note_on_c, 0, 67, 0
2, 44558, Note_on_c, 0, 72, 0
2, 44558, Note_on_c, 0, 46, 0
2, 44559, Note_on_c, 0, 60, 0
2, 44559, Note_on_c, 0, 50, 0
2, 44560, Control_c, 0, 64, 0
2, 44574, Note_on_c, 0, 62, 0
2, 44574, Note_on_c, 0, 74, 0
2, 44577, Note_on_c, 0, 41, 77
2, 44578, Note_on_c, 0, 74, 92
2, 44578, Note_on_c, 0, 53, 73
2, 44580, Note_on_c, 0, 62, 86
2, 44636, Control_c, 0, 64, 127
2, 44659, Note_on_c, 0, 53, 0
2, 44849, Note_on_c, 0, 62, 0
2, 44849, Control_c, 0, 64, 0
2, 44852, Note_on_c, 0, 74, 0
2, 44858, Note_on_c, 0, 41, 0
2, 44870, Note_on_c, 0, 75, 93
2, 44870, Note_on_c, 0, 44, 80
2, 44872, Note_on_c, 0, 63, 80
2, 44876, Note_on_c, 0, 68, 81
2, 44878, Note_on_c, 0, 72, 69
2, 44951, Control_c, 0, 64, 127
2, 45084, Note_on_c, 0, 77, 89
2, 45094, Note_on_c, 0, 65, 74
2, 45288, Note_on_c, 0, 75, 0
2, 45295, Note_on_c, 0, 51, 81
2, 45296, Note_on_c, 0, 63, 0
2, 45300, Note_on_c, 0, 75, 80
2, 45304, Note_on_c, 0, 63, 73
2, 45434, Note_on_c, 0, 77, 0
2, 45445, Note_on_c, 0, 77, 88
2, 45450, Note_on_c, 0, 65, 0
2, 45450, Note_on_c, 0, 68, 0
2, 45450, Note_on_c, 0, 72, 0
2, 45455, Note_on_c, 0, 72, 71
2, 45461, Note_on_c, 0, 68, 78
2, 45461, Note_on_c, 0, 65, 66
2, 45707, Note_on_c, 0, 60, 77
2, 45708, Note_on_c, 0, 56, 80
2, 45972, Note_on_c, 0, 75, 0
2, 45976, Control_c, 0, 64, 0
2, 45976, Note_on_c, 0, 63, 0
2, 45977, Note_on_c, 0, 51, 0
2, 45977, Note_on_c, 0, 68, 0
2, 45978, Note_on_c, 0, 72, 0
2, 45978, Note_on_c, 0, 65, 0
2, 45978, Note_on_c, 0, 60, 0
2, 45978, Note_on_c, 0, 77, 0
2, 45980, Note_on_c, 0, 56, 0
2, 45982, Note_on_c, 0, 75, 91
2, 45983, Note_on_c, 0, 46, 84
2, 45987, Note_on_c, 0, 70, 79
2, 45987, Note_on_c, 0, 44, 0
2, 46095, Control_c, 0, 64, 127
2, 46199, Note_on_c, 0, 77, 82
2, 46387, Note_on_c, 0, 75, 0
2, 46391, Note_on_c, 0, 75, 87
2, 46402, Note_on_c, 0, 70, 0
2, 46404, Note_on_c, 0, 53, 78
2, 46406, Note_on_c, 0, 70, 68
2, 46535, Note_on_c, 0, 74, 91
2, 46804, Note_on_c, 0, 70, 0
2, 46805, Note_on_c, 0, 62, 81
2, 46805, Note_on_c, 0, 58, 76
2, 46808, Note_on_c, 0, 72, 79
2, 47078, Note_on_c, 0, 75, 0
2, 47085, Note_on_c, 0, 60, 104
2, 47087, Note_on_c, 0, 79, 101
2, 47087, Note_on_c, 0, 84, 105
2, 47088, Note_on_c, 0, 48, 101
2, 47089, Note_on_c, 0, 75, 103
2, 47090, Note_on_c, 0, 55, 97
2, 47151, Control_c, 0, 64, 0
2, 47152, Note_on_c, 0, 46, 0
2, 47152, Note_on_c, 0, 53, 0
2, 47152, Note_on_c, 0, 74, 0
2, 47152, Note_on_c, 0, 62, 0
2, 47153, Note_on_c, 0, 58, 0
2, 47153, Note_on_c, 0, 75, 0
2, 47154, Note_on_c, 0, 72, 0
2, 47155, Note_on_c, 0, 77, 0
2, 47156, Note_on_c, 0, 84, 0
2, 47157, Note_on_c, 0, 60, 0
2, 47157, Note_on_c, 0, 79, 0
2, 47158, Note_on_c, 0, 55, 0
2, 47162, Note_on_c, 0, 48, 0
2, 47226, Note_on_c, 0, 84, 100
2, 47226, Note_on_c, 0, 75, 96
2, 47226, Note_on_c, 0, 60, 98
2, 47227, Note_on_c, 0, 48, 92
2, 47228, Note_on_c, 0, 72, 97
2, 47268, Note_on_c, 0, 60, 0
2, 47274, Note_on_c, 0, 48, 0
2, 47274, Note_on_c, 0, 72, 0
2, 47275, Note_on_c, 0, 75, 0
2, 47275, Note_on_c, 0, 84, 0
2, 47498, Note_on_c, 0, 51, 98
2, 47498, Note_on_c, 0, 80, 104
2, 47498, Note_on_c, 0, 56, 102
2, 47498, Note_on_c, 0, 44, 93
2, 47500, Note_on_c, 0, 68, 104
2, 47501, Note_on_c, 0, 72, 96
2, 47504, Note_on_c, 0, 75, 93
2, 47516, Control_c, 0, 64, 127
2, 47631, Note_on_c, 0, 44, 0
2, 47631, Note_on_c, 0, 56, 0
2, 47631, Note_on_c, 0, 68, 0
2, 47633, Note_on_c, 0, 51, 0
2, 47639, Note_on_c, 0, 72, 0
2, 47639, Note_on_c, 0, 75, 0
2, 47639, Note_on_c, 0, 80, 0
2, 47640, Note_on_c, 0, 56, 93
2, 47641, Note_on_c, 0, 68, 100
2, 47642, Note_on_c, 0, 44, 78
2, 47643, Note_on_c, 0, 75, 87
2, 47643, Note_on_c, 0, 80, 93
2, 47643, Note_on_c, 0, 72, 82
2, 47694, Note_on_c, 0, 75, 0
2, 47695, Note_on_c, 0, 72, 0
2, 47696, Note_on_c, 0, 56, 0
2, 47697, Note_on_c, 0, 68, 0
2, 47697, Note_on_c, 0, 44, 0
2, 47697, Control_c, 0, 64, 0
2, 47698, Note_on_c, 0, 80, 0
2, 47905, Note_on_c, 0, 46, 98
2, 47905, Note_on_c, 0, 82, 106
2, 47910, Note_on_c, 0, 70, 102
2, 47911, Note_on_c, 0, 74, 95
2, 47911, Note_on_c, 0, 53, 86
2, 47912, Note_on_c, 0, 77, 86
2, 47923, Control_c, 0, 64, 127
2, 48030, Note_on_c, 0, 46, 0
2, 48038, Note_on_c, 0, 53, 0
2, 48038, Note_on_c, 0, 74, 0
2, 48038, Note_on_c, 0, 77, 0
2, 48038, Note_on_c, 0, 82, 0
2, 48041, Note_on_c, 0, 46, 98
2, 48042, Note_on_c, 0, 53, 95
2, 48043, Note_on_c, 0, 82, 101
2, 48049, Note_on_c, 0, 77, 86
2, 48049, Note_on_c, 0, 74, 89
2, 48174, Control_c, 0, 64, 0
2, 48198, Note_on_c, 0, 53, 0
2, 48199, Note_on_c, 0, 74, 0
2, 48202, Note_on_c, 0, 82, 0
2, 48202, Note_on_c, 0, 77, 0
2, 48203, Note_on_c, 0, 46, 0
2, 48222, Note_on_c, 0, 70, 0
2, 48308, Note_on_c, 0, 55, 87
2, 48373, Note_on_c, 0, 55, 0
2, 48381, Note_on_c, 0, 60, 85
2, 48443, Note_on_c, 0, 62, 87
2, 48483, Note_on_c, 0, 60, 0
2, 48494, Note_on_c, 0, 62, 0
2, 48495, Note_on_c, 0, 60, 70
2, 48553, Note_on_c, 0, 62, 89
2, 48568, Note_on_c, 0, 60, 0
2, 48602, Note_on_c, 0, 62, 0
2, 48616, Note_on_c, 0, 67, 87
2, 48691, Note_on_c, 0, 72, 94
2, 48718, Note_on_c, 0, 67, 0
2, 48724, Note_on_c, 0, 72, 0
2, 48765, Note_on_c, 0, 67, 71
2, 48791, Control_c, 0, 64, 127
2, 48829, Note_on_c, 0, 72, 81
2, 48865, Note_on_c, 0, 74, 82
2, 48928, Note_on_c, 0, 79, 93
2, 48989, Note_on_c, 0, 84, 95
2, 49040, Note_on_c, 0, 86, 86
2, 49095, Note_on_c, 0, 91, 102
2, 49140, Note_on_c, 0, 67, 0
2, 49140, Note_on_c, 0, 74, 0
2, 49140, Note_on_c, 0, 72, 0
2, 49141, Note_on_c, 0, 86, 0
2, 49141, Note_on_c, 0, 79, 0
2, 49141, Note_on_c, 0, 84, 0
2, 49141, Note_on_c, 0, 91, 0
2, 49145, Control_c, 0, 64, 0
2, 49194, Note_on_c, 0, 45, 106
2, 49195, Note_on_c, 0, 33, 95
2, 49195, Note_on_c, 0, 80, 110
2, 49196, Note_on_c, 0, 92, 110
2, 49200, Note_on_c, 0, 85, 102
2, 49201, Note_on_c, 0, 88, 95
2, 49213, Control_c, 0, 64, 127
2, 49332, Note_on_c, 0, 32, 79
2, 49333, Note_on_c, 0, 44, 88
2, 49341, Control_c, 0, 64, 0
2, 49346, Note_on_c, 0, 88, 0
2, 49359, Note_on_c, 0, 45, 0
2, 49382, Note_on_c, 0, 44, 0
2, 49420, Note_on_c, 0, 80, 0
2, 49428, Note_on_c, 0, 32, 0
2, 49443, Note_on_c, 0, 33, 0
2, 49474, Note_on_c, 0, 85, 0
2, 49474, Control_c, 0, 64, 127
2, 49478, Note_on_c, 0, 45, 97
2, 49479, Note_on_c, 0, 33, 86
2, 49479, Note_on_c, 0, 93, 105
2, 49482, Note_on_c, 0, 85, 101
2, 49484, Note_on_c, 0, 81, 98
2, 49486, Note_on_c, 0, 88, 92
2, 49553, Note_on_c, 0, 33, 0
2, 49554, Note_on_c, 0, 45, 0
2, 49556, Note_on_c, 0, 88, 0
2, 49556, Note_on_c, 0, 81, 0
2, 49566, Note_on_c, 0, 92, 0
2, 49589, Control_c, 0, 64, 0
2, 49604, Note_on_c, 0, 47, 101
2, 49608, Note_on_c, 0, 35, 92
2, 49635, Note_on_c, 0, 85, 0
2, 49635, Note_on_c, 0, 93, 0
2, 49674, Control_c, 0, 64, 127
2, 49753, Note_on_c, 0, 90, 109
2, 49754, Note_on_c, 0, 78, 101
2, 49755, Note_on_c, 0, 83, 94
2, 49757, Note_on_c, 0, 87, 91
2, 49875, Note_on_c, 0, 45, 93
2, 49876, Note_on_c, 0, 33, 88
2, 49949, Note_on_c, 0, 78, 0
2, 49951, Note_on_c, 0, 90, 0
2, 49951, Note_on_c, 0, 87, 0
2, 49952, Note_on_c, 0, 83, 0
2, 49952, Note_on_c, 0, 45, 0
2, 49953, Note_on_c, 0, 33, 0
2, 49953, Note_on_c, 0, 47, 0
2, 49954, Note_on_c, 0, 35, 0
2, 49954, Control_c, 0, 64, 0
2, 50016, Note_on_c, 0, 87, 101
2, 50017, Note_on_c, 0, 47, 95
2, 50020, Note_on_c, 0, 35, 93
2, 50021, Note_on_c, 0, 75, 102
2, 50021, Note_on_c, 0, 83, 96
2, 50021, Note_on_c, 0, 78, 98
2, 50058, Control_c, 0, 64, 127
2, 50088, Control_c, 0, 64, 0
2, 50127, Note_on_c, 0, 35, 0
2, 50150, Note_on_c, 0, 37, 100
2, 50150, Note_on_c, 0, 49, 95
2, 50158, Note_on_c, 0, 47, 0
2, 50204, Control_c, 0, 64, 127
2, 50230, Control_c, 0, 64, 0
2, 50234, Control_c, 0, 64, 127
2, 50285, Note_on_c, 0, 88, 98
2, 50287, Note_on_c, 0, 80, 101
2, 50288, Note_on_c, 0, 85, 93
2, 50288, Note_on_c, 0, 76, 102
2, 50311, Control_c, 0, 64, 0
2, 50396, Control_c, 0, 64, 127
2, 50407, Note_on_c, 0, 47, 90
2, 50408, Note_on_c, 0, 35, 77
2, 50411, Note_on_c, 0, 76, 0
2, 50411, Note_on_c, 0, 88, 0
2, 50416, Note_on_c, 0, 76, 89
2, 50416, Note_on_c, 0, 88, 98
2, 50534, Note_on_c, 0, 49, 0
2, 50539, Note_on_c, 0, 49, 91
2, 50542, Note_on_c, 0, 37, 0
2, 50542, Note_on_c, 0, 78, 0
2, 50546, Note_on_c, 0, 37, 87
2, 50549, Note_on_c, 0, 90, 108
2, 50551, Note_on_c, 0, 78, 103
2, 50675, Note_on_c, 0, 39, 84
2, 50678, Note_on_c, 0, 51, 79
2, 50711, Note_on_c, 0, 75, 0
2, 50726, Note_on_c, 0, 76, 0
2, 50726, Note_on_c, 0, 85, 0
2, 50726, Note_on_c, 0, 88, 0
2, 50731, Note_on_c, 0, 88, 97
2, 50732, Note_on_c, 0, 76, 101
2, 50732, Note_on_c, 0, 85, 87
2, 50767, Note_on_c, 0, 80, 0
2, 50767, Note_on_c, 0, 37, 0
2, 50768, Note_on_c, 0, 87, 0
2, 50768, Note_on_c, 0, 78, 0
2, 50768, Note_on_c, 0, 83, 0
2, 50768, Note_on_c, 0, 47, 0
2, 50769, Note_on_c, 0, 90, 0
2, 50770, Note_on_c, 0, 49, 0
2, 50776, Control_c, 0, 64, 0
2, 50795, Note_on_c, 0, 35, 0
2, 50810, Note_on_c, 0, 76, 0
2, 50810, Note_on_c, 0, 85, 0
2, 50810, Note_on_c, 0, 88, 0
2, 50813, Note_on_c, 0, 52, 102
2, 50815, Note_on_c, 0, 40, 97
2, 50816, Note_on_c, 0, 88, 103
2, 50821, Note_on_c, 0, 85, 96
2, 50822, Note_on_c, 0, 80, 106
2, 50822, Note_on_c, 0, 76, 101
2, 50833, Control_c, 0, 64, 127
2, 50933, Note_on_c, 0, 51, 0
2, 50941, Note_on_c, 0, 39, 0
2, 50944, Note_on_c, 0, 51, 97
2, 50945, Note_on_c, 0, 39, 94
2, 50952, Note_on_c, 0, 73, 87
2, 51036, Note_on_c, 0, 80, 0
2, 51036, Note_on_c, 0, 88, 0
2, 51037, Note_on_c, 0, 85, 0
2, 51037, Note_on_c, 0, 52, 0
2, 51037, Note_on_c, 0, 76, 0
2, 51037, Note_on_c, 0, 40, 0
2, 51037, Note_on_c, 0, 39, 0
2, 51038, Note_on_c, 0, 51, 0
2, 51042, Note_on_c, 0, 73, 0
2, 51049, Control_c, 0, 64, 0
2, 51079, Note_on_c, 0, 49, 86
2, 51081, Note_on_c, 0, 37, 88
2, 51112, Note_on_c, 0, 49, 0
2, 51119, Note_on_c, 0, 37, 0
2, 51214, Note_on_c, 0, 47, 96
2, 51214, Note_on_c, 0, 83, 97
2, 51215, Note_on_c, 0, 35, 86
2, 51218, Note_on_c, 0, 71, 94
2, 51255, Note_on_c, 0, 47, 0
2, 51256, Note_on_c, 0, 35, 0
2, 51258, Note_on_c, 0, 71, 0
2, 51271, Note_on_c, 0, 83, 0
2, 51349, Note_on_c, 0, 85, 107
2, 51351, Note_on_c, 0, 33, 93
2, 51352, Note_on_c, 0, 76, 100
2, 51352, Note_on_c, 0, 81, 89
2, 51352, Note_on_c, 0, 45, 97
2, 51352, Note_on_c, 0, 73, 101
2, 51379, Control_c, 0, 64, 127
2, 51463, Note_on_c, 0, 45, 0
2, 51476, Note_on_c, 0, 32, 85
2, 51477, Note_on_c, 0, 44, 89
2, 51532, Note_on_c, 0, 81, 0
2, 51548, Control_c, 0, 64, 0
2, 51550, Note_on_c, 0, 32, 0
2, 51563, Note_on_c, 0, 73, 0
2, 51571, Note_on_c, 0, 76, 0
2, 51578, Note_on_c, 0, 33, 0
2, 51601, Note_on_c, 0, 44, 0
2, 51617, Note_on_c, 0, 85, 0
2, 51621, Note_on_c, 0, 45, 93
2, 51622, Note_on_c, 0, 85, 98
2, 51623, Note_on_c, 0, 33, 83
2, 51628, Note_on_c, 0, 73, 89
2, 51665, Note_on_c, 0, 45, 0
2, 51665, Note_on_c, 0, 73, 0
2, 51675, Note_on_c, 0, 85, 0
2, 51701, Note_on_c, 0, 33, 0
2, 51760, Note_on_c, 0, 47, 98
2, 51765, Note_on_c, 0, 88, 105
2, 51765, Note_on_c, 0, 35, 90
2, 51768, Note_on_c, 0, 78, 102
2, 51771, Note_on_c, 0, 76, 101
2, 51772, Note_on_c, 0, 83, 94
2, 51809, Control_c, 0, 64, 127
2, 52032, Note_on_c, 0, 76, 0
2, 52032, Note_on_c, 0, 88, 0
2, 52041, Note_on_c, 0, 45, 92
2, 52042, Note_on_c, 0, 88, 90
2, 52042, Note_on_c, 0, 33, 85
2, 52043, Note_on_c, 0, 76, 89
2, 52046, Note_on_c, 0, 85, 75
2, 52064, Control_c, 0, 64, 0
2, 52074, Note_on_c, 0, 35, 0
2, 52078, Note_on_c, 0, 83, 0
2, 52081, Note_on_c, 0, 78, 0
2, 52084, Note_on_c, 0, 33, 0
2, 52085, Note_on_c, 0, 47, 0
2, 52101, Note_on_c, 0, 76, 0
2, 52108, Note_on_c, 0, 88, 0
2, 52162, Note_on_c, 0, 45, 0
2, 52170, Note_on_c, 0, 85, 0
2, 52175, Note_on_c, 0, 90, 105
2, 52177, Note_on_c, 0, 78, 104
2, 52178, Note_on_c, 0, 47, 92
2, 52180, Note_on_c, 0, 35, 83
2, 52181, Note_on_c, 0, 87, 68
2, 52264, Note_on_c, 0, 35, 0
2, 52265, Note_on_c, 0, 78, 0
2, 52267, Note_on_c, 0, 47, 0
2, 52285, Note_on_c, 0, 87, 0
2, 52302, Note_on_c, 0, 37, 102
2, 52302, Note_on_c, 0, 49, 97
2, 52346, Note_on_c, 0, 90, 0
2, 52446, Note_on_c, 0, 37, 0
2, 52446, Note_on_c, 0, 49, 0
2, 52450, Note_on_c, 0, 85, 102
2, 52456, Note_on_c, 0, 73, 95
2, 52456, Note_on_c, 0, 37, 84
2, 52457, Note_on_c, 0, 76, 92
2, 52457, Note_on_c, 0, 80, 91
2, 52457, Note_on_c, 0, 49, 84
2, 52500, Control_c, 0, 64, 127
2, 52580, Note_on_c, 0, 35, 82
2, 52581, Note_on_c, 0, 47, 77
2, 52646, Control_c, 0, 64, 0
2, 52662, Note_on_c, 0, 35, 0
2, 52700, Note_on_c, 0, 37, 0
2, 52700, Note_on_c, 0, 49, 0
2, 52706, Note_on_c, 0, 65, 83
2, 52708, Note_on_c, 0, 37, 96
2, 52709, Note_on_c, 0, 49, 90
2, 52730, Note_on_c, 0, 47, 0
2, 52753, Note_on_c, 0, 73, 0
2, 52776, Control_c, 0, 64, 127
2, 52830, Note_on_c, 0, 37, 0
2, 52841, Note_on_c, 0, 39, 93
2, 52841, Note_on_c, 0, 51, 96
2, 52869, Note_on_c, 0, 85, 0
2, 52953, Note_on_c, 0, 49, 0
2, 52953, Note_on_c, 0, 65, 0
2, 52953, Note_on_c, 0, 76, 0
2, 52965, Note_on_c, 0, 51, 0
2, 52965, Note_on_c, 0, 39, 0
2, 52971, Control_c, 0, 64, 0
2, 52974, Note_on_c, 0, 52, 106
2, 52974, Note_on_c, 0, 40, 101
2, 52992, Note_on_c, 0, 80, 0
2, 53036, Note_on_c, 0, 40, 0
2, 53040, Note_on_c, 0, 52, 0
2, 53110, Note_on_c, 0, 51, 97
2, 53110, Note_on_c, 0, 39, 100
2, 53112, Note_on_c, 0, 83, 97
2, 53113, Note_on_c, 0, 71, 89
2, 53153, Note_on_c, 0, 51, 0
2, 53191, Note_on_c, 0, 71, 0
2, 53222, Note_on_c, 0, 83, 0
2, 53236, Note_on_c, 0, 37, 97
2, 53237, Control_c, 0, 64, 127
2, 53237, Note_on_c, 0, 49, 94
2, 53239, Note_on_c, 0, 85, 99
2, 53240, Note_on_c, 0, 73, 94
2, 53360, Note_on_c, 0, 85, 0
2, 53366, Note_on_c, 0, 47, 92
2, 53367, Note_on_c, 0, 88, 103
2, 53369, Note_on_c, 0, 85, 85
2, 53369, Note_on_c, 0, 76, 91
2, 53369, Note_on_c, 0, 35, 85
2, 53370, Note_on_c, 0, 33, 79
2, 53371, Note_on_c, 0, 45, 84
2, 53376, Note_on_c, 0, 33, 0
2, 53395, Note_on_c, 0, 73, 0
2, 53395, Note_on_c, 0, 37, 0
2, 53396, Note_on_c, 0, 85, 0
2, 53397, Note_on_c, 0, 49, 0
2, 53404, Control_c, 0, 64, 0
2, 53409, Note_on_c, 0, 76, 0
2, 53410, Note_on_c, 0, 47, 0
2, 53410, Note_on_c, 0, 88, 0
2, 53412, Note_on_c, 0, 35, 0
2, 53414, Note_on_c, 0, 39, 0
2, 53414, Note_on_c, 0, 45, 0
2, 53498, Note_on_c, 0, 80, 107
2, 53501, Note_on_c, 0, 92, 106
2, 53501, Note_on_c, 0, 85, 101
2, 53502, Note_on_c, 0, 45, 99
2, 53502, Note_on_c, 0, 33, 90
2, 53503, Note_on_c, 0, 88, 94
2, 53506, Control_c, 0, 64, 127
2, 53612, Control_c, 0, 64, 0
2, 53617, Note_on_c, 0, 45, 0
2, 53619, Note_on_c, 0, 88, 0
2, 53619, Note_on_c, 0, 80, 0
2, 53620, Note_on_c, 0, 33, 0
2, 53623, Note_on_c, 0, 85, 0
2, 53631, Note_on_c, 0, 32, 82
2, 53634, Note_on_c, 0, 44, 82
2, 53667, Note_on_c, 0, 32, 0
2, 53667, Note_on_c, 0, 44, 0
2, 53760, Note_on_c, 0, 92, 0
2, 53772, Note_on_c, 0, 93, 109
2, 53775, Note_on_c, 0, 45, 94
2, 53776, Note_on_c, 0, 81, 104
2, 53778, Note_on_c, 0, 33, 86
2, 53778, Note_on_c, 0, 85, 102
2, 53779, Note_on_c, 0, 88, 94
2, 53818, Note_on_c, 0, 45, 0
2, 53908, Note_on_c, 0, 47, 97
2, 53910, Note_on_c, 0, 35, 87
2, 53921, Note_on_c, 0, 33, 0
2, 53926, Note_on_c, 0, 81, 0
2, 53936, Control_c, 0, 64, 127
2, 53982, Note_on_c, 0, 88, 0
2, 53990, Note_on_c, 0, 93, 0
2, 54055, Note_on_c, 0, 90, 109
2, 54058, Note_on_c, 0, 78, 104
2, 54060, Note_on_c, 0, 83, 97
2, 54063, Note_on_c, 0, 87, 89
2, 54105, Control_c, 0, 64, 0
2, 54170, Note_on_c, 0, 33, 84
2, 54171, Note_on_c, 0, 45, 88
2, 54190, Control_c, 0, 64, 127
2, 54243, Note_on_c, 0, 85, 0
2, 54247, Note_on_c, 0, 45, 0
2, 54247, Note_on_c, 0, 47, 0
2, 54247, Note_on_c, 0, 33, 0
2, 54248, Note_on_c, 0, 78, 0
2, 54248, Note_on_c, 0, 35, 0
2, 54248, Note_on_c, 0, 83, 0
2, 54248, Note_on_c, 0, 87, 0
2, 54248, Control_c, 0, 64, 0
2, 54249, Note_on_c, 0, 90, 0
2, 54317, Note_on_c, 0, 87, 104
2, 54318, Note_on_c, 0, 47, 93
2, 54321, Note_on_c, 0, 35, 87
2, 54323, Note_on_c, 0, 75, 105
2, 54325, Note_on_c, 0, 78, 90
2, 54327, Note_on_c, 0, 83, 93
2, 54359, Control_c, 0, 64, 127
2, 54389, Note_on_c, 0, 47, 0
2, 54397, Note_on_c, 0, 35, 0
2, 54446, Note_on_c, 0, 37, 95
2, 54447, Note_on_c, 0, 49, 96
2, 54589, Note_on_c, 0, 88, 102
2, 54592, Note_on_c, 0, 76, 101
2, 54592, Note_on_c, 0, 85, 96
2, 54593, Note_on_c, 0, 80, 102
2, 54609, Note_on_c, 0, 37, 0
2, 54620, Note_on_c, 0, 75, 0
2, 54620, Note_on_c, 0, 87, 0
2, 54633, Control_c, 0, 64, 0
2, 54666, Note_on_c, 0, 78, 0
2, 54681, Note_on_c, 0, 83, 0
2, 54712, Note_on_c, 0, 49, 0
2, 54712, Note_on_c, 0, 76, 0
2, 54712, Note_on_c, 0, 85, 0
2, 54712, Note_on_c, 0, 88, 0
2, 54716, Note_on_c, 0, 35, 82
2, 54716, Note_on_c, 0, 47, 91
2, 54721, Note_on_c, 0, 88, 103
2, 54722, Note_on_c, 0, 85, 73
2, 54722, Note_on_c, 0, 76, 96
2, 54827, Control_c, 0, 64, 127
2, 54843, Note_on_c, 0, 49, 98
2, 54846, Note_on_c, 0, 37, 95
2, 54849, Note_on_c, 0, 90, 107
2, 54850, Note_on_c, 0, 78, 99
2, 54978, Note_on_c, 0, 39, 91
2, 54983, Note_on_c, 0, 51, 91
2, 55027, Note_on_c, 0, 76, 0
2, 55027, Note_on_c, 0, 85, 0
2, 55027, Note_on_c, 0, 88, 0
2, 55031, Note_on_c, 0, 88, 96
2, 55031, Note_on_c, 0, 76, 102
2, 55032, Note_on_c, 0, 85, 87
2, 55063, Note_on_c, 0, 76, 0
2, 55063, Note_on_c, 0, 90, 0
2, 55064, Note_on_c, 0, 78, 0
2, 55065, Note_on_c, 0, 37, 0
2, 55066, Note_on_c, 0, 49, 0
2, 55067, Note_on_c, 0, 51, 0
2, 55068, Note_on_c, 0, 39, 0
2, 55072, Control_c, 0, 64, 0
2, 55080, Note_on_c, 0, 35, 0
2, 55080, Note_on_c, 0, 80, 0
2, 55088, Note_on_c, 0, 47, 0
2, 55111, Note_on_c, 0, 88, 0
2, 55116, Note_on_c, 0, 52, 107
2, 55119, Note_on_c, 0, 85, 0
2, 55119, Control_c, 0, 64, 127
2, 55120, Note_on_c, 0, 40, 99
2, 55122, Note_on_c, 0, 88, 92
2, 55123, Note_on_c, 0, 76, 102
2, 55123, Note_on_c, 0, 85, 87
2, 55127, Note_on_c, 0, 80, 91
2, 55257, Note_on_c, 0, 85, 0
2, 55260, Note_on_c, 0, 51, 93
2, 55262, Note_on_c, 0, 39, 88
2, 55263, Note_on_c, 0, 85, 90
2, 55265, Note_on_c, 0, 76, 0
2, 55267, Note_on_c, 0, 73, 87
2, 55271, Note_on_c, 0, 76, 83
2, 55345, Note_on_c, 0, 52, 0
2, 55346, Control_c, 0, 64, 0
2, 55346, Note_on_c, 0, 80, 0
2, 55346, Note_on_c, 0, 39, 0
2, 55347, Note_on_c, 0, 76, 0
2, 55347, Note_on_c, 0, 85, 0
2, 55347, Note_on_c, 0, 40, 0
2, 55347, Note_on_c, 0, 51, 0
2, 55350, Note_on_c, 0, 73, 0
2, 55365, Note_on_c, 0, 88, 0
2, 55391, Note_on_c, 0, 49, 88
2, 55391, Note_on_c, 0, 37, 96
2, 55422, Note_on_c, 0, 49, 0
2, 55424, Note_on_c, 0, 37, 0
2, 55531, Note_on_c, 0, 83, 90
2, 55531, Note_on_c, 0, 47, 91
2, 55532, Note_on_c, 0, 71, 90
2, 55533, Note_on_c, 0, 35, 87
2, 55536, Note_on_c, 0, 84, 94
2, 55542, Note_on_c, 0, 72, 78
2, 55564, Note_on_c, 0, 71, 0
2, 55565, Note_on_c, 0, 47, 0
2, 55570, Note_on_c, 0, 35, 0
2, 55572, Note_on_c, 0, 72, 0
2, 55573, Note_on_c, 0, 84, 0
2, 55576, Note_on_c, 0, 83, 0
2, 55661, Note_on_c, 0, 85, 104
2, 55661, Note_on_c, 0, 33, 93
2, 55661, Note_on_c, 0, 79, 81
2, 55662, Note_on_c, 0, 45, 98
2, 55666, Note_on_c, 0, 76, 99
2, 55666, Note_on_c, 0, 73, 101
2, 55667, Note_on_c, 0, 81, 83
2, 55687, Control_c, 0, 64, 127
2, 55791, Note_on_c, 0, 32, 68
2, 55792, Note_on_c, 0, 44, 81
2, 55925, Note_on_c, 0, 33, 0
2, 55925, Note_on_c, 0, 45, 0
2, 55925, Note_on_c, 0, 73, 0
2, 55925, Note_on_c, 0, 85, 0
2, 55930, Note_on_c, 0, 85, 93
2, 55932, Note_on_c, 0, 33, 80
2, 55932, Note_on_c, 0, 45, 85
2, 55936, Note_on_c, 0, 73, 87
2, 55964, Note_on_c, 0, 44, 0
2, 55968, Control_c, 0, 64, 0
2, 55971, Note_on_c, 0, 32, 0
2, 55973, Note_on_c, 0, 81, 0
2, 55973, Note_on_c, 0, 45, 0
2, 55975, Note_on_c, 0, 76, 0
2, 55978, Note_on_c, 0, 73, 0
2, 55979, Note_on_c, 0, 79, 0
2, 55981, Note_on_c, 0, 85, 0
2, 55994, Note_on_c, 0, 33, 0
2, 56068, Note_on_c, 0, 88, 105
2, 56075, Note_on_c, 0, 47, 96
2, 56075, Note_on_c, 0, 35, 91
2, 56075, Note_on_c, 0, 78, 102
2, 56075, Note_on_c, 0, 83, 96
2, 56076, Note_on_c, 0, 76, 100
2, 56094, Control_c, 0, 64, 127
2, 56331, Note_on_c, 0, 45, 90
2, 56331, Note_on_c, 0, 33, 81
2, 56332, Note_on_c, 0, 76, 0
2, 56332, Note_on_c, 0, 88, 0
2, 56338, Note_on_c, 0, 88, 93
2, 56342, Note_on_c, 0, 76, 86
2, 56463, Note_on_c, 0, 35, 0
2, 56463, Note_on_c, 0, 47, 0
2, 56463, Note_on_c, 0, 78, 0
2, 56467, Note_on_c, 0, 90, 98
2, 56467, Note_on_c, 0, 78, 93
2, 56473, Note_on_c, 0, 35, 83
2, 56474, Note_on_c, 0, 47, 89
2, 56536, Note_on_c, 0, 90, 0
2, 56536, Note_on_c, 0, 33, 0
2, 56536, Note_on_c, 0, 35, 0
2, 56536, Note_on_c, 0, 47, 0
2, 56536, Note_on_c, 0, 45, 0
2, 56537, Note_on_c, 0, 76, 0
2, 56537, Note_on_c, 0, 88, 0
2, 56539, Control_c, 0, 64, 0
2, 56555, Note_on_c, 0, 83, 0
2, 56600, Note_on_c, 0, 49, 97
2, 56600, Note_on_c, 0, 37, 100
2, 56624, Control_c, 0, 64, 127
2, 56732, Note_on_c, 0, 49, 0
2, 56733, Note_on_c, 0, 85, 101
2, 56735, Note_on_c, 0, 73, 102
2, 56739, Note_on_c, 0, 80, 86
2, 56740, Note_on_c, 0, 49, 84
2, 56740, Note_on_c, 0, 76, 86
2, 56858, Note_on_c, 0, 47, 89
2, 56860, Note_on_c, 0, 35, 77
2, 56870, Note_on_c, 0, 37, 0
2, 56874, Note_on_c, 0, 37, 63
2, 56985, Note_on_c, 0, 37, 0
2, 56990, Note_on_c, 0, 37, 94
2, 56993, Note_on_c, 0, 49, 0
2, 56997, Note_on_c, 0, 49, 81
2, 57006, Note_on_c, 0, 97, 92
2, 57099, Note_on_c, 0, 92, 86
2, 57124, Note_on_c, 0, 39, 86
2, 57126, Note_on_c, 0, 51, 92
2, 57151, Note_on_c, 0, 90, 88
2, 57169, Note_on_c, 0, 85, 0
2, 57181, Note_on_c, 0, 85, 66
2, 57246, Note_on_c, 0, 35, 0
2, 57262, Note_on_c, 0, 85, 0
2, 57267, Note_on_c, 0, 85, 99
2, 57267, Note_on_c, 0, 52, 98
2, 57270, Note_on_c, 0, 40, 92
2, 57384, Note_on_c, 0, 39, 0
2, 57384, Note_on_c, 0, 51, 0
2, 57384, Note_on_c, 0, 78, 0
2, 57394, Note_on_c, 0, 78, 87
2, 57395, Note_on_c, 0, 51, 92
2, 57395, Note_on_c, 0, 39, 91
2, 57515, Note_on_c, 0, 49, 0
2, 57523, Note_on_c, 0, 37, 0
2, 57526, Note_on_c, 0, 61, 78
2, 57526, Note_on_c, 0, 49, 82
2, 57526, Note_on_c, 0, 65, 69
2, 57527, Note_on_c, 0, 37, 88
2, 57530, Note_on_c, 0, 65, 0
2, 57624, Note_on_c, 0, 66, 85
2, 57638, Note_on_c, 0, 61, 0
2, 57649, Note_on_c, 0, 61, 86
2, 57649, Note_on_c, 0, 37, 0
2, 57745, Note_on_c, 0, 40, 0
2, 57747, Note_on_c, 0, 97, 0
2, 57747, Note_on_c, 0, 92, 0
2, 57747, Note_on_c, 0, 90, 0
2, 57747, Note_on_c, 0, 85, 0
2, 57748, Note_on_c, 0, 78, 0
2, 57748, Note_on_c, 0, 47, 0
2, 57748, Note_on_c, 0, 76, 0
2, 57748, Note_on_c, 0, 52, 0
2, 57748, Note_on_c, 0, 80, 0
2, 57748, Note_on_c, 0, 73, 0
2, 57748, Note_on_c, 0, 51, 0
2, 57749, Note_on_c, 0, 61, 0
2, 57750, Control_c, 0, 64, 0
2, 57761, Note_on_c, 0, 66, 0
2, 57768, Note_on_c, 0, 49, 0
2, 57776, Note_on_c, 0, 39, 0
2, 57793, Note_on_c, 0, 80, 111
2, 57795, Note_on_c, 0, 45, 96
2, 57796, Note_on_c, 0, 68, 108
2, 57796, Note_on_c, 0, 33, 93
2, 57801, Note_on_c, 0, 76, 86
2, 57815, Control_c, 0, 64, 127
2, 57922, Note_on_c, 0, 68, 0
2, 57930, Note_on_c, 0, 33, 0
2, 57932, Note_on_c, 0, 32, 83
2, 57933, Note_on_c, 0, 68, 88
2, 57938, Note_on_c, 0, 33, 84
2, 57940, Note_on_c, 0, 80, 0
2, 57948, Control_c, 0, 64, 0
2, 57976, Note_on_c, 0, 32, 0
2, 57999, Note_on_c, 0, 45, 0
2, 58007, Note_on_c, 0, 76, 0
2, 58022, Note_on_c, 0, 68, 0
2, 58053, Note_on_c, 0, 33, 0
2, 58064, Note_on_c, 0, 33, 85
2, 58064, Note_on_c, 0, 80, 102
2, 58064, Note_on_c, 0, 45, 87
2, 58065, Note_on_c, 0, 68, 96
2, 58115, Note_on_c, 0, 33, 0
2, 58115, Note_on_c, 0, 45, 0
2, 58117, Note_on_c, 0, 68, 0
2, 58124, Note_on_c, 0, 80, 0
2, 58197, Note_on_c, 0, 81, 104
2, 58198, Note_on_c, 0, 35, 93
2, 58198, Note_on_c, 0, 47, 97
2, 58200, Note_on_c, 0, 69, 98
2, 58204, Note_on_c, 0, 71, 83
2, 58268, Control_c, 0, 64, 127
2, 58337, Note_on_c, 0, 69, 0
2, 58337, Note_on_c, 0, 71, 0
2, 58338, Note_on_c, 0, 78, 102
2, 58340, Note_on_c, 0, 66, 101
2, 58342, Note_on_c, 0, 69, 82
2, 58344, Note_on_c, 0, 71, 83
2, 58348, Note_on_c, 0, 75, 86
2, 58464, Note_on_c, 0, 45, 88
2, 58465, Note_on_c, 0, 33, 87
2, 58548, Note_on_c, 0, 81, 0
2, 58548, Note_on_c, 0, 78, 0
2, 58548, Note_on_c, 0, 69, 0
2, 58548, Note_on_c, 0, 33, 0
2, 58548, Note_on_c, 0, 71, 0
2, 58548, Note_on_c, 0, 66, 0
2, 58549, Note_on_c, 0, 35, 0
2, 58549, Note_on_c, 0, 45, 0
2, 58549, Note_on_c, 0, 75, 0
2, 58549, Note_on_c, 0, 47, 0
2, 58559, Control_c, 0, 64, 0
2, 58613, Note_on_c, 0, 47, 93
2, 58616, Note_on_c, 0, 63, 100
2, 58616, Note_on_c, 0, 75, 102
2, 58616, Note_on_c, 0, 35, 86
2, 58619, Note_on_c, 0, 66, 87
2, 58620, Note_on_c, 0, 71, 86
2, 58675, Control_c, 0, 64, 127
2, 58698, Note_on_c, 0, 35, 0
2, 58739, Note_on_c, 0, 37, 96
2, 58740, Note_on_c, 0, 49, 91
2, 58893, Note_on_c, 0, 76, 103
2, 58895, Note_on_c, 0, 68, 97
2, 58895, Note_on_c, 0, 63, 0
2, 58896, Note_on_c, 0, 64, 100
2, 58898, Note_on_c, 0, 75, 0
2, 58901, Note_on_c, 0, 73, 87
2, 58901, Note_on_c, 0, 71, 0
2, 58904, Control_c, 0, 64, 0
2, 58936, Note_on_c, 0, 47, 0
2, 58982, Control_c, 0, 64, 127
2, 59007, Note_on_c, 0, 47, 77
2, 59007, Note_on_c, 0, 35, 77
2, 59102, Control_c, 0, 64, 0
2, 59105, Note_on_c, 0, 66, 0
2, 59116, Note_on_c, 0, 64, 0
2, 59119, Note_on_c, 0, 76, 0
2, 59143, Note_on_c, 0, 49, 0
2, 59151, Note_on_c, 0, 37, 0
2, 59153, Note_on_c, 0, 49, 85
2, 59156, Note_on_c, 0, 37, 88
2, 59159, Note_on_c, 0, 78, 99
2, 59163, Note_on_c, 0, 66, 102
2, 59166, Note_on_c, 0, 35, 0
2, 59189, Note_on_c, 0, 47, 0
2, 59205, Control_c, 0, 64, 127
2, 59284, Note_on_c, 0, 39, 86
2, 59286, Note_on_c, 0, 51, 83
2, 59368, Note_on_c, 0, 37, 0
2, 59370, Note_on_c, 0, 66, 0
2, 59370, Note_on_c, 0, 68, 0
2, 59371, Note_on_c, 0, 78, 0
2, 59371, Note_on_c, 0, 51, 0
2, 59371, Note_on_c, 0, 39, 0
2, 59374, Note_on_c, 0, 73, 0
2, 59377, Control_c, 0, 64, 0
2, 59381, Note_on_c, 0, 49, 0
2, 59426, Note_on_c, 0, 76, 100
2, 59428, Note_on_c, 0, 52, 97
2, 59429, Note_on_c, 0, 64, 99
2, 59430, Note_on_c, 0, 68, 98
2, 59431, Note_on_c, 0, 40, 92
2, 59512, Note_on_c, 0, 52, 0
2, 59512, Control_c, 0, 64, 127
2, 59520, Control_c, 0, 64, 0
2, 59554, Note_on_c, 0, 39, 84
2, 59555, Note_on_c, 0, 51, 90
2, 59561, Note_on_c, 0, 61, 93
2, 59562, Note_on_c, 0, 73, 85
2, 59573, Note_on_c, 0, 40, 0
2, 59612, Note_on_c, 0, 73, 0
2, 59617, Note_on_c, 0, 73, 76
2, 59658, Note_on_c, 0, 51, 0
2, 59686, Note_on_c, 0, 37, 91
2, 59687, Note_on_c, 0, 49, 76
2, 59742, Note_on_c, 0, 61, 0
2, 59757, Note_on_c, 0, 48, 65
2, 59765, Note_on_c, 0, 48, 0
2, 59796, Note_on_c, 0, 64, 0
2, 59831, Note_on_c, 0, 47, 90
2, 59831, Note_on_c, 0, 35, 84
2, 59831, Note_on_c, 0, 59, 88
2, 59832, Note_on_c, 0, 71, 92
2, 59834, Note_on_c, 0, 68, 0
2, 59839, Note_on_c, 0, 68, 69
2, 59842, Note_on_c, 0, 39, 0
2, 59865, Note_on_c, 0, 37, 0
2, 59865, Note_on_c, 0, 73, 0
2, 59870, Note_on_c, 0, 71, 0
2, 59882, Note_on_c, 0, 35, 0
2, 59888, Note_on_c, 0, 49, 0
2, 59896, Note_on_c, 0, 59, 0
2, 59904, Note_on_c, 0, 47, 0
2, 59904, Note_on_c, 0, 68, 0
2, 59911, Note_on_c, 0, 76, 0
2, 59962, Note_on_c, 0, 61, 98
2, 59964, Note_on_c, 0, 73, 102
2, 59967, Note_on_c, 0, 64, 91
2, 59967, Note_on_c, 0, 45, 98
2, 59967, Note_on_c, 0, 33, 95
2, 59969, Note_on_c, 0, 69, 84
2, 59996, Control_c, 0, 64, 127
2, 60099, Note_on_c, 0, 32, 81
2, 60100, Note_on_c, 0, 44, 77
2, 60102, Note_on_c, 0, 68, 59
2, 60111, Note_on_c, 0, 68, 0
2, 60226, Note_on_c, 0, 61, 0
2, 60226, Note_on_c, 0, 64, 0
2, 60226, Note_on_c, 0, 73, 0
2, 60234, Note_on_c, 0, 33, 0
2, 60234, Note_on_c, 0, 45, 0
2, 60234, Note_on_c, 0, 69, 0
2, 60235, Note_on_c, 0, 73, 92
2, 60237, Note_on_c, 0, 61, 83
2, 60237, Note_on_c, 0, 64, 75
2, 60238, Note_on_c, 0, 45, 88
2, 60238, Note_on_c, 0, 69, 58
2, 60239, Note_on_c, 0, 33, 82
2, 60260, Note_on_c, 0, 32, 0
2, 60269, Note_on_c, 0, 64, 0
2, 60276, Note_on_c, 0, 33, 0
2, 60276, Note_on_c, 0, 73, 0
2, 60277, Note_on_c, 0, 45, 0
2, 60278, Control_c, 0, 64, 0
2, 60280, Note_on_c, 0, 44, 0
2, 60288, Note_on_c, 0, 69, 0
2, 60295, Note_on_c, 0, 61, 0
2, 60375, Note_on_c, 0, 64, 98
2, 60375, Note_on_c, 0, 76, 99
2, 60376, Note_on_c, 0, 47, 98
2, 60376, Note_on_c, 0, 68, 91
2, 60377, Note_on_c, 0, 35, 89
2, 60378, Note_on_c, 0, 71, 86
2, 60464, Control_c, 0, 64, 127
2, 60512, Control_c, 0, 64, 0
2, 60641, Note_on_c, 0, 64, 0
2, 60641, Note_on_c, 0, 76, 0
2, 60647, Note_on_c, 0, 64, 87
2, 60648, Note_on_c, 0, 76, 90
2, 60651, Note_on_c, 0, 45, 92
2, 60652, Note_on_c, 0, 69, 82
2, 60652, Note_on_c, 0, 33, 84
2, 60659, Note_on_c, 0, 73, 74
2, 60664, Note_on_c, 0, 47, 0
2, 60672, Control_c, 0, 64, 127
2, 60679, Note_on_c, 0, 35, 0
2, 60779, Note_on_c, 0, 69, 0
2, 60779, Note_on_c, 0, 78, 100
2, 60782, Note_on_c, 0, 66, 101
2, 60783, Note_on_c, 0, 47, 92
2, 60784, Note_on_c, 0, 69, 76
2, 60785, Note_on_c, 0, 35, 85
2, 60876, Note_on_c, 0, 33, 0
2, 60877, Note_on_c, 0, 35, 0
2, 60877, Control_c, 0, 64, 0
2, 60878, Note_on_c, 0, 45, 0
2, 60881, Note_on_c, 0, 47, 0
2, 60881, Note_on_c, 0, 66, 0
2, 60882, Note_on_c, 0, 71, 0
2, 60882, Note_on_c, 0, 78, 0
2, 60883, Note_on_c, 0, 76, 0
2, 60887, Note_on_c, 0, 73, 0
2, 60894, Note_on_c, 0, 68, 0
2, 60910, Note_on_c, 0, 69, 0
2, 60914, Note_on_c, 0, 65, 82
2, 60915, Note_on_c, 0, 49, 97
2, 60915, Note_on_c, 0, 37, 96
2, 60986, Control_c, 0, 64, 127
2, 61048, Note_on_c, 0, 64, 0
2, 61050, Note_on_c, 0, 73, 101
2, 61050, Note_on_c, 0, 61, 98
2, 61053, Note_on_c, 0, 68, 84
2, 61057, Note_on_c, 0, 64, 86
2, 61063, Note_on_c, 0, 65, 0
2, 61109, Control_c, 0, 64, 0
2, 61178, Note_on_c, 0, 37, 0
2, 61178, Note_on_c, 0, 61, 0
2, 61183, Note_on_c, 0, 47, 87
2, 61184, Note_on_c, 0, 35, 80
2, 61186, Note_on_c, 0, 61, 80
2, 61188, Note_on_c, 0, 37, 85
2, 61194, Control_c, 0, 64, 127
2, 61301, Note_on_c, 0, 37, 0
2, 61301, Note_on_c, 0, 49, 0
2, 61301, Note_on_c, 0, 61, 0
2, 61307, Control_c, 0, 64, 0
2, 61311, Note_on_c, 0, 65, 80
2, 61311, Note_on_c, 0, 37, 95
2, 61312, Note_on_c, 0, 49, 86
2, 61313, Note_on_c, 0, 61, 83
2, 61324, Note_on_c, 0, 35, 0
2, 61386, Note_on_c, 0, 37, 0
2, 61393, Note_on_c, 0, 49, 0
2, 61440, Control_c, 0, 64, 127
2, 61447, Note_on_c, 0, 61, 0
2, 61448, Note_on_c, 0, 39, 92
2, 61450, Note_on_c, 0, 51, 86
2, 61458, Note_on_c, 0, 61, 68
2, 61493, Note_on_c, 0, 47, 0
2, 61589, Note_on_c, 0, 52, 96
2, 61589, Note_on_c, 0, 40, 96
2, 61607, Control_c, 0, 64, 0
2, 61655, Note_on_c, 0, 39, 0
2, 61693, Note_on_c, 0, 40, 0
2, 61701, Note_on_c, 0, 64, 0
2, 61708, Note_on_c, 0, 51, 0
2, 61714, Note_on_c, 0, 71, 93
2, 61715, Note_on_c, 0, 59, 87
2, 61718, Note_on_c, 0, 39, 94
2, 61719, Note_on_c, 0, 51, 95
2, 61720, Note_on_c, 0, 66, 74
2, 61724, Note_on_c, 0, 52, 0
2, 61731, Note_on_c, 0, 65, 0
2, 61731, Note_on_c, 0, 66, 0
2, 61770, Note_on_c, 0, 68, 0
2, 61808, Note_on_c, 0, 61, 0
2, 61816, Note_on_c, 0, 71, 0
2, 61824, Note_on_c, 0, 51, 0
2, 61831, Note_on_c, 0, 73, 0
2, 61843, Note_on_c, 0, 73, 94
2, 61843, Note_on_c, 0, 61, 95
2, 61843, Note_on_c, 0, 65, 79
2, 61843, Note_on_c, 0, 49, 87
2, 61843, Note_on_c, 0, 37, 89
2, 61862, Note_on_c, 0, 59, 0
2, 61866, Note_on_c, 0, 61, 0
2, 61908, Note_on_c, 0, 65, 0
2, 61939, Control_c, 0, 64, 127
2, 61962, Note_on_c, 0, 37, 0
2, 61962, Note_on_c, 0, 39, 0
2, 61971, Note_on_c, 0, 64, 94
2, 61971, Note_on_c, 0, 76, 102
2, 61972, Note_on_c, 0, 47, 92
2, 61973, Note_on_c, 0, 68, 83
2, 61975, Note_on_c, 0, 35, 84
2, 62000, Note_on_c, 0, 49, 0
2, 62004, Note_on_c, 0, 64, 0
2, 62004, Note_on_c, 0, 47, 0
2, 62004, Note_on_c, 0, 35, 0
2, 62004, Note_on_c, 0, 76, 0
2, 62007, Control_c, 0, 64, 0
2, 62008, Note_on_c, 0, 73, 0
2, 62023, Note_on_c, 0, 68, 0
2, 62106, Note_on_c, 0, 80, 109
2, 62108, Note_on_c, 0, 68, 109
2, 62111, Note_on_c, 0, 45, 96
2, 62112, Note_on_c, 0, 33, 92
2, 62118, Note_on_c, 0, 76, 86
2, 62123, Control_c, 0, 64, 127
2, 62249, Note_on_c, 0, 32, 84
2, 62250, Note_on_c, 0, 44, 80
2, 62288, Note_on_c, 0, 80, 0
2, 62288, Note_on_c, 0, 33, 0
2, 62288, Note_on_c, 0, 68, 0
2, 62289, Note_on_c, 0, 45, 0
2, 62293, Note_on_c, 0, 76, 0
2, 62297, Control_c, 0, 64, 0
2, 62300, Note_on_c, 0, 32, 0
2, 62300, Note_on_c, 0, 44, 0
2, 62381, Note_on_c, 0, 81, 105
2, 62387, Note_on_c, 0, 69, 100
2, 62387, Note_on_c, 0, 76, 96
2, 62388, Note_on_c, 0, 45, 95
2, 62388, Note_on_c, 0, 33, 88
2, 62391, Note_on_c, 0, 73, 91
2, 62407, Control_c, 0, 64, 127
2, 62484, Note_on_c, 0, 33, 0
2, 62487, Note_on_c, 0, 45, 0
2, 62492, Note_on_c, 0, 81, 0
2, 62494, Control_c, 0, 64, 0
2, 62519, Note_on_c, 0, 47, 95
2, 62519, Note_on_c, 0, 35, 89
2, 62545, Note_on_c, 0, 69, 0
2, 62553, Note_on_c, 0, 73, 0
2, 62553, Control_c, 0, 64, 127
2, 62615, Note_on_c, 0, 76, 0
2, 62622, Note_on_c, 0, 47, 0
2, 62654, Note_on_c, 0, 78, 105
2, 62656, Note_on_c, 0, 66, 106
2, 62658, Note_on_c, 0, 71, 88
2, 62663, Note_on_c, 0, 69, 79
2, 62664, Note_on_c, 0, 75, 84
2, 62737, Note_on_c, 0, 35, 0
2, 62782, Note_on_c, 0, 33, 81
2, 62782, Note_on_c, 0, 45, 84
2, 62845, Note_on_c, 0, 45, 0
2, 62845, Note_on_c, 0, 33, 0
2, 62847, Note_on_c, 0, 66, 0
2, 62848, Note_on_c, 0, 78, 0
2, 62849, Note_on_c, 0, 71, 0
2, 62850, Note_on_c, 0, 75, 0
2, 62860, Note_on_c, 0, 69, 0
2, 62862, Control_c, 0, 64, 0
2, 62928, Note_on_c, 0, 63, 105
2, 62929, Note_on_c, 0, 75, 107
2, 62931, Note_on_c, 0, 47, 92
2, 62933, Note_on_c, 0, 35, 82
2, 62933, Note_on_c, 0, 66, 90
2, 62945, Control_c, 0, 64, 127
2, 63056, Note_on_c, 0, 65, 88
2, 63057, Note_on_c, 0, 49, 92
2, 63057, Note_on_c, 0, 37, 94
2, 63059, Note_on_c, 0, 68, 87
2, 63160, Note_on_c, 0, 63, 0
2, 63183, Note_on_c, 0, 49, 0
2, 63191, Note_on_c, 0, 37, 0
2, 63191, Note_on_c, 0, 68, 0
2, 63194, Note_on_c, 0, 64, 105
2, 63194, Note_on_c, 0, 49, 84
2, 63195, Note_on_c, 0, 76, 100
2, 63195, Note_on_c, 0, 68, 100
2, 63200, Note_on_c, 0, 73, 89
2, 63201, Note_on_c, 0, 37, 82
2, 63206, Note_on_c, 0, 47, 0
2, 63227, Note_on_c, 0, 75, 0
2, 63228, Note_on_c, 0, 49, 0
2, 63230, Note_on_c, 0, 64, 0
2, 63233, Note_on_c, 0, 37, 0
2, 63236, Note_on_c, 0, 76, 0
2, 63237, Note_on_c, 0, 73, 0
2, 63245, Control_c, 0, 64, 0
2, 63252, Note_on_c, 0, 35, 0
2, 63275, Note_on_c, 0, 65, 0
2, 63283, Note_on_c, 0, 66, 0
2, 63320, Note_on_c, 0, 47, 92
2, 63324, Note_on_c, 0, 35, 86
2, 63326, Note_on_c, 0, 76, 100
2, 63330, Note_on_c, 0, 64, 93
2, 63365, Note_on_c, 0, 35, 0
2, 63367, Note_on_c, 0, 47, 0
2, 63375, Note_on_c, 0, 68, 0
2, 63406, Control_c, 0, 64, 127
2, 63453, Note_on_c, 0, 49, 93
2, 63455, Note_on_c, 0, 37, 93
2, 63455, Note_on_c, 0, 78, 102
2, 63457, Note_on_c, 0, 66, 102
2, 63586, Note_on_c, 0, 39, 88
2, 63587, Note_on_c, 0, 51, 86
2, 63628, Note_on_c, 0, 64, 0
2, 63628, Note_on_c, 0, 76, 0
2, 63632, Note_on_c, 0, 64, 99
2, 63633, Note_on_c, 0, 76, 103
2, 63678, Note_on_c, 0, 66, 0
2, 63678, Note_on_c, 0, 37, 0
2, 63678, Note_on_c, 0, 64, 0
2, 63679, Note_on_c, 0, 51, 0
2, 63679, Note_on_c, 0, 39, 0
2, 63679, Note_on_c, 0, 76, 0
2, 63679, Note_on_c, 0, 78, 0
2, 63679, Note_on_c, 0, 49, 0
2, 63680, Control_c, 0, 64, 0
2, 63724, Note_on_c, 0, 52, 102
2, 63725, Note_on_c, 0, 40, 100
2, 63726, Note_on_c, 0, 76, 95
2, 63728, Note_on_c, 0, 68, 107
2, 63836, Control_c, 0, 64, 127
2, 63856, Note_on_c, 0, 51, 92
2, 63859, Note_on_c, 0, 39, 93
2, 63861, Note_on_c, 0, 61, 96
2, 63864, Note_on_c, 0, 73, 86
2, 63905, Note_on_c, 0, 52, 0
2, 63916, Note_on_c, 0, 61, 0
2, 63923, Control_c, 0, 64, 0
2, 63926, Note_on_c, 0, 39, 0
2, 63928, Note_on_c, 0, 40, 0
2, 63959, Note_on_c, 0, 51, 0
2, 63982, Note_on_c, 0, 68, 0
2, 63986, Note_on_c, 0, 37, 91
2, 63987, Note_on_c, 0, 65, 71
2, 63988, Note_on_c, 0, 49, 82
2, 64020, Note_on_c, 0, 73, 0
2, 64043, Note_on_c, 0, 49, 0
2, 64051, Note_on_c, 0, 37, 0
2, 64074, Note_on_c, 0, 76, 0
2, 64112, Note_on_c, 0, 65, 0
2, 64131, Note_on_c, 0, 71, 95
2, 64131, Note_on_c, 0, 63, 78
2, 64132, Note_on_c, 0, 59, 82
2, 64132, Note_on_c, 0, 47, 89
2, 64133, Note_on_c, 0, 35, 85
2, 64135, Note_on_c, 0, 63, 0
2, 64164, Note_on_c, 0, 71, 0
2, 64166, Note_on_c, 0, 47, 0
2, 64167, Note_on_c, 0, 59, 0
2, 64170, Note_on_c, 0, 35, 0
2, 64257, Note_on_c, 0, 73, 106
2, 64257, Note_on_c, 0, 64, 94
2, 64259, Note_on_c, 0, 61, 100
2, 64261, Note_on_c, 0, 45, 101
2, 64261, Note_on_c, 0, 69, 89
2, 64263, Note_on_c, 0, 33, 95
2, 64304, Control_c, 0, 64, 127
2, 64388, Note_on_c, 0, 32, 87
2, 64390, Note_on_c, 0, 44, 86
2, 64519, Note_on_c, 0, 33, 0
2, 64519, Note_on_c, 0, 45, 0
2, 64519, Note_on_c, 0, 61, 0
2, 64519, Note_on_c, 0, 73, 0
2, 64527, Note_on_c, 0, 61, 83
2, 64529, Note_on_c, 0, 33, 85
2, 64529, Note_on_c, 0, 45, 90
2, 64529, Note_on_c, 0, 73, 85
2, 64577, Note_on_c, 0, 45, 0
2, 64577, Note_on_c, 0, 61, 0
2, 64577, Note_on_c, 0, 33, 0
2, 64578, Note_on_c, 0, 69, 0
2, 64579, Note_on_c, 0, 73, 0
2, 64588, Note_on_c, 0, 32, 0
2, 64588, Note_on_c, 0, 44, 0
2, 64588, Note_on_c, 0, 64, 0
2, 64590, Control_c, 0, 64, 0
2, 64665, Note_on_c, 0, 76, 103
2, 64666, Note_on_c, 0, 66, 102
2, 64666, Note_on_c, 0, 64, 101
2, 64669, Note_on_c, 0, 47, 98
2, 64669, Note_on_c, 0, 35, 89
2, 64669, Note_on_c, 0, 71, 91
2, 64780, Note_on_c, 0, 47, 0
2, 64803, Note_on_c, 0, 64, 0
2, 64811, Note_on_c, 0, 66, 0
2, 64826, Note_on_c, 0, 35, 0
2, 64911, Note_on_c, 0, 71, 0
2, 64926, Note_on_c, 0, 76, 0
2, 64931, Note_on_c, 0, 64, 90
2, 64932, Note_on_c, 0, 76, 92
2, 64937, Note_on_c, 0, 45, 91
2, 64938, Note_on_c, 0, 33, 87
2, 64943, Note_on_c, 0, 73, 72
2, 64949, Control_c, 0, 64, 127
2, 65061, Note_on_c, 0, 78, 98
2, 65064, Note_on_c, 0, 66, 102
2, 65064, Note_on_c, 0, 33, 0
2, 65064, Note_on_c, 0, 45, 0
2, 65069, Note_on_c, 0, 47, 87
2, 65069, Note_on_c, 0, 69, 72
2, 65073, Note_on_c, 0, 45, 87
2, 65073, Note_on_c, 0, 35, 87
2, 65075, Note_on_c, 0, 33, 88
2, 65150, Control_c, 0, 64, 0
2, 65169, Note_on_c, 0, 33, 0
2, 65171, Note_on_c, 0, 35, 0
2, 65171, Note_on_c, 0, 47, 0
2, 65172, Note_on_c, 0, 78, 0
2, 65172, Note_on_c, 0, 66, 0
2, 65172, Note_on_c, 0, 69, 0
2, 65172, Note_on_c, 0, 73, 0
2, 65174, Note_on_c, 0, 45, 0
2, 65180, Note_on_c, 0, 64, 0
2, 65187, Note_on_c, 0, 76, 0
2, 65192, Note_on_c, 0, 37, 96
2, 65192, Note_on_c, 0, 49, 100
2, 65249, Control_c, 0, 64, 127
2, 65330, Note_on_c, 0, 73, 104
2, 65334, Note_on_c, 0, 61, 96
2, 65336, Note_on_c, 0, 68, 92
2, 65336, Note_on_c, 0, 64, 84
2, 65456, Note_on_c, 0, 37, 0
2, 65461, Note_on_c, 0, 37, 91
2, 65602, Note_on_c, 0, 44, 73
2, 65661, Note_on_c, 0, 66, 88
2, 65733, Note_on_c, 0, 49, 0
2, 65733, Note_on_c, 0, 61, 0
2, 65733, Note_on_c, 0, 68, 0
2, 65742, Note_on_c, 0, 49, 83
2, 65743, Note_on_c, 0, 68, 87
2, 65744, Note_on_c, 0, 61, 78
2, 65779, Note_on_c, 0, 61, 0
2, 65779, Note_on_c, 0, 64, 0
2, 65779, Note_on_c, 0, 73, 0
2, 65783, Note_on_c, 0, 61, 71
2, 65786, Note_on_c, 0, 73, 88
2, 65786, Note_on_c, 0, 64, 54
2, 65863, Note_on_c, 0, 73, 0
2, 65871, Note_on_c, 0, 61, 0
2, 65873, Note_on_c, 0, 73, 89
2, 65876, Note_on_c, 0, 61, 74
2, 65876, Note_on_c, 0, 52, 82
2, 65931, Note_on_c, 0, 78, 87
2, 65986, Note_on_c, 0, 68, 0
2, 65988, Note_on_c, 0, 80, 92
2, 65991, Note_on_c, 0, 56, 87
2, 65997, Note_on_c, 0, 68, 89
2, 66027, Note_on_c, 0, 85, 96
2, 66094, Note_on_c, 0, 85, 0
2, 66104, Note_on_c, 0, 85, 96
2, 66124, Note_on_c, 0, 61, 0
2, 66134, Note_on_c, 0, 89, 84
2, 66136, Note_on_c, 0, 61, 97
2, 66140, Note_on_c, 0, 89, 0
2, 66158, Note_on_c, 0, 90, 95
2, 66212, Note_on_c, 0, 92, 96
2, 66259, Note_on_c, 0, 97, 92
2, 66351, Note_on_c, 0, 78, 0
2, 66351, Note_on_c, 0, 90, 0
2, 66351, Note_on_c, 0, 66, 0
2, 66351, Note_on_c, 0, 64, 0
2, 66351, Note_on_c, 0, 49, 0
2, 66351, Note_on_c, 0, 97, 0
2, 66351, Note_on_c, 0, 92, 0
2, 66351, Note_on_c, 0, 68, 0
2, 66351, Note_on_c, 0, 73, 0
2, 66352, Note_on_c, 0, 61, 0
2, 66352, Note_on_c, 0, 52, 0
2, 66352, Note_on_c, 0, 56, 0
2, 66352, Note_on_c, 0, 80, 0
2, 66352, Note_on_c, 0, 44, 0
2, 66358, Control_c, 0, 64, 0
2, 66370, Note_on_c, 0, 37, 0
2, 66378, Note_on_c, 0, 85, 0
2, 66403, Note_on_c, 0, 48, 101
2, 66404, Note_on_c, 0, 36, 101
2, 66406, Note_on_c, 0, 67, 87
2, 66411, Note_on_c, 0, 72, 90
2, 66412, Note_on_c, 0, 75, 83
2, 66424, Control_c, 0, 64, 127
2, 66539, Note_on_c, 0, 72, 0
2, 66546, Note_on_c, 0, 72, 77
2, 66612, Note_on_c, 0, 79, 79
2, 66662, Note_on_c, 0, 51, 88
2, 66665, Note_on_c, 0, 39, 76
2, 66716, Note_on_c, 0, 79, 0
2, 66720, Note_on_c, 0, 79, 78
2, 66800, Note_on_c, 0, 72, 0
2, 66800, Note_on_c, 0, 79, 0
2, 66805, Note_on_c, 0, 84, 100
2, 66805, Note_on_c, 0, 34, 91
2, 66806, Note_on_c, 0, 46, 93
2, 66809, Note_on_c, 0, 79, 85
2, 66811, Note_on_c, 0, 72, 93
2, 66896, Note_on_c, 0, 34, 0
2, 66896, Note_on_c, 0, 46, 0
2, 66896, Note_on_c, 0, 72, 0
2, 66896, Note_on_c, 0, 51, 0
2, 66897, Note_on_c, 0, 39, 0
2, 66897, Control_c, 0, 64, 0
2, 66897, Note_on_c, 0, 79, 0
2, 66900, Note_on_c, 0, 67, 0
2, 66915, Note_on_c, 0, 75, 0
2, 66931, Note_on_c, 0, 36, 0
2, 66931, Note_on_c, 0, 48, 0
2, 66938, Note_on_c, 0, 84, 0
2, 66941, Note_on_c, 0, 48, 93
2, 66942, Note_on_c, 0, 36, 98
2, 66943, Note_on_c, 0, 84, 103
2, 66944, Note_on_c, 0, 79, 84
2, 66946, Note_on_c, 0, 72, 96
2, 66947, Note_on_c, 0, 39, 80
2, 66953, Note_on_c, 0, 75, 79
2, 66992, Control_c, 0, 64, 127
2, 67084, Note_on_c, 0, 72, 0
2, 67084, Note_on_c, 0, 79, 0
2, 67090, Note_on_c, 0, 72, 79
2, 67096, Note_on_c, 0, 79, 60
2, 67146, Note_on_c, 0, 79, 0
2, 67150, Note_on_c, 0, 79, 66
2, 67215, Note_on_c, 0, 39, 0
2, 67215, Note_on_c, 0, 72, 0
2, 67215, Note_on_c, 0, 75, 0
2, 67215, Note_on_c, 0, 79, 0
2, 67220, Note_on_c, 0, 79, 79
2, 67220, Note_on_c, 0, 72, 81
2, 67220, Note_on_c, 0, 51, 88
2, 67222, Note_on_c, 0, 39, 75
2, 67225, Note_on_c, 0, 75, 76
2, 67338, Note_on_c, 0, 75, 0
2, 67338, Note_on_c, 0, 79, 0
2, 67340, Note_on_c, 0, 46, 88
2, 67342, Note_on_c, 0, 34, 89
2, 67342, Note_on_c, 0, 79, 77
2, 67345, Note_on_c, 0, 75, 85
2, 67402, Note_on_c, 0, 79, 0
2, 67402, Note_on_c, 0, 84, 0
2, 67403, Note_on_c, 0, 75, 0
2, 67403, Note_on_c, 0, 48, 0
2, 67403, Note_on_c, 0, 36, 0
2, 67403, Note_on_c, 0, 72, 0
2, 67403, Note_on_c, 0, 51, 0
2, 67404, Note_on_c, 0, 39, 0
2, 67404, Control_c, 0, 64, 0
2, 67405, Note_on_c, 0, 34, 0
2, 67438, Note_on_c, 0, 46, 0
2, 67475, Note_on_c, 0, 51, 103
2, 67479, Note_on_c, 0, 79, 88
2, 67479, Note_on_c, 0, 39, 90
2, 67480, Note_on_c, 0, 75, 100
2, 67499, Control_c, 0, 64, 127
2, 67549, Note_on_c, 0, 82, 93
2, 67591, Note_on_c, 0, 79, 0
2, 67597, Note_on_c, 0, 79, 60
2, 67668, Note_on_c, 0, 82, 0
2, 67672, Note_on_c, 0, 82, 86
2, 67729, Note_on_c, 0, 79, 0
2, 67735, Note_on_c, 0, 79, 82
2, 67736, Note_on_c, 0, 36, 79
2, 67799, Note_on_c, 0, 82, 0
2, 67803, Note_on_c, 0, 82, 88
2, 67868, Note_on_c, 0, 75, 0
2, 67871, Note_on_c, 0, 87, 103
2, 67875, Note_on_c, 0, 39, 0
2, 67875, Note_on_c, 0, 51, 0
2, 67875, Note_on_c, 0, 79, 0
2, 67877, Note_on_c, 0, 75, 103
2, 67885, Note_on_c, 0, 39, 89
2, 67886, Note_on_c, 0, 79, 85
2, 67887, Note_on_c, 0, 51, 97
2, 68014, Note_on_c, 0, 75, 0
2, 68014, Note_on_c, 0, 82, 0
2, 68014, Note_on_c, 0, 87, 0
2, 68018, Note_on_c, 0, 87, 103
2, 68018, Note_on_c, 0, 75, 87
2, 68024, Note_on_c, 0, 82, 85
2, 68136, Note_on_c, 0, 36, 0
2, 68143, Note_on_c, 0, 36, 88
2, 68144, Note_on_c, 0, 79, 0
2, 68152, Note_on_c, 0, 75, 0
2, 68153, Note_on_c, 0, 79, 92
2, 68156, Note_on_c, 0, 75, 88
2, 68236, Note_on_c, 0, 82, 0
2, 68241, Note_on_c, 0, 82, 85
2, 68252, Control_c, 0, 64, 0
2, 68259, Note_on_c, 0, 39, 0
2, 68267, Note_on_c, 0, 36, 0
2, 68270, Note_on_c, 0, 39, 64
2, 68272, Note_on_c, 0, 36, 78
2, 68275, Note_on_c, 0, 79, 0
2, 68275, Control_c, 0, 64, 127
2, 68282, Note_on_c, 0, 79, 69
2, 68352, Note_on_c, 0, 82, 0
2, 68363, Note_on_c, 0, 82, 79
2, 68405, Note_on_c, 0, 39, 0
2, 68405, Note_on_c, 0, 51, 0
2, 68405, Note_on_c, 0, 75, 0
2, 68405, Note_on_c, 0, 79, 0
2, 68410, Note_on_c, 0, 75, 89
2, 68410, Note_on_c, 0, 79, 89
2, 68410, Note_on_c, 0, 51, 92
2, 68412, Note_on_c, 0, 39, 87
2, 68506, Note_on_c, 0, 36, 0
2, 68507, Note_on_c, 0, 87, 0
2, 68507, Control_c, 0, 64, 0
2, 68507, Note_on_c, 0, 82, 0
2, 68508, Note_on_c, 0, 75, 0
2, 68508, Note_on_c, 0, 79, 0
2, 68508, Note_on_c, 0, 39, 0
2, 68508, Note_on_c, 0, 51, 0
2, 68537, Note_on_c, 0, 73, 98
2, 68537, Note_on_c, 0, 49, 99
2, 68539, Note_on_c, 0, 37, 103
2, 68541, Note_on_c, 0, 77, 91
2, 68597, Control_c, 0, 64, 127
2, 68607, Note_on_c, 0, 80, 95
2, 68674, Note_on_c, 0, 73, 0
2, 68677, Note_on_c, 0, 79, 64
2, 68682, Note_on_c, 0, 73, 72
2, 68782, Note_on_c, 0, 77, 0
2, 68791, Note_on_c, 0, 77, 77
2, 68813, Note_on_c, 0, 34, 88
2, 68943, Note_on_c, 0, 37, 0
2, 68943, Note_on_c, 0, 49, 0
2, 68943, Note_on_c, 0, 73, 0
2, 68948, Note_on_c, 0, 85, 99
2, 68952, Note_on_c, 0, 73, 97
2, 68954, Note_on_c, 0, 37, 95
2, 68954, Note_on_c, 0, 49, 93
2, 69081, Note_on_c, 0, 85, 0
2, 69089, Note_on_c, 0, 73, 0
2, 69092, Note_on_c, 0, 85, 102
2, 69093, Note_on_c, 0, 73, 90
2, 69204, Note_on_c, 0, 34, 0
2, 69209, Note_on_c, 0, 34, 86
2, 69227, Note_on_c, 0, 73, 0
2, 69227, Note_on_c, 0, 77, 0
2, 69231, Note_on_c, 0, 77, 81
2, 69235, Note_on_c, 0, 73, 81
2, 69296, Control_c, 0, 64, 0
2, 69299, Note_on_c, 0, 73, 0
2, 69300, Note_on_c, 0, 80, 0
2, 69327, Note_on_c, 0, 85, 0
2, 69335, Note_on_c, 0, 34, 0
2, 69335, Note_on_c, 0, 37, 0
2, 69335, Note_on_c, 0, 49, 0
2, 69342, Note_on_c, 0, 49, 90
2, 69342, Note_on_c, 0, 77, 0
2, 69343, Note_on_c, 0, 37, 92
2, 69353, Note_on_c, 0, 77, 84
2, 69386, Note_on_c, 0, 37, 0
2, 69388, Note_on_c, 0, 79, 0
2, 69411, Control_c, 0, 64, 127
2, 69480, Note_on_c, 0, 77, 0
2, 69486, Note_on_c, 0, 51, 90
2, 69490, Note_on_c, 0, 39, 86
2, 69491, Note_on_c, 0, 77, 82
2, 69550, Note_on_c, 0, 49, 0
2, 69555, Note_on_c, 0, 51, 0
2, 69559, Note_on_c, 0, 77, 0
2, 69560, Note_on_c, 0, 39, 0
2, 69570, Control_c, 0, 64, 0
2, 69625, Note_on_c, 0, 48, 94
2, 69628, Note_on_c, 0, 36, 96
2, 69631, Note_on_c, 0, 72, 95
2, 69636, Note_on_c, 0, 79, 82
2, 69636, Note_on_c, 0, 75, 90
2, 69672, Control_c, 0, 64, 127
2, 69765, Note_on_c, 0, 72, 0
2, 69772, Note_on_c, 0, 79, 0
2, 69775, Note_on_c, 0, 72, 87
2, 69777, Note_on_c, 0, 79, 74
2, 69801, Note_on_c, 0, 39, 59
2, 69811, Note_on_c, 0, 36, 0
2, 69819, Note_on_c, 0, 36, 63
2, 69888, Note_on_c, 0, 39, 0
2, 69891, Note_on_c, 0, 51, 93
2, 69895, Note_on_c, 0, 39, 87
2, 70025, Note_on_c, 0, 79, 0
2, 70026, Note_on_c, 0, 72, 0
2, 70028, Note_on_c, 0, 84, 105
2, 70030, Note_on_c, 0, 72, 101
2, 70031, Note_on_c, 0, 46, 87
2, 70035, Note_on_c, 0, 34, 84
2, 70129, Control_c, 0, 64, 0
2, 70131, Note_on_c, 0, 75, 0
2, 70133, Note_on_c, 0, 48, 0
2, 70149, Note_on_c, 0, 46, 0
2, 70156, Note_on_c, 0, 36, 0
2, 70156, Note_on_c, 0, 72, 0
2, 70156, Note_on_c, 0, 84, 0
2, 70162, Note_on_c, 0, 84, 103
2, 70164, Note_on_c, 0, 36, 97
2, 70166, Note_on_c, 0, 72, 98
2, 70218, Control_c, 0, 64, 127
2, 70288, Note_on_c, 0, 75, 84
2, 70293, Note_on_c, 0, 79, 68
2, 70295, Note_on_c, 0, 36, 0
2, 70301, Note_on_c, 0, 36, 73
2, 70417, Note_on_c, 0, 51, 0
2, 70425, Note_on_c, 0, 75, 0
2, 70429, Note_on_c, 0, 51, 93
2, 70433, Note_on_c, 0, 39, 0
2, 70434, Note_on_c, 0, 75, 96
2, 70435, Note_on_c, 0, 87, 83
2, 70437, Note_on_c, 0, 39, 79
2, 70440, Note_on_c, 0, 87, 0
2, 70556, Note_on_c, 0, 34, 0
2, 70556, Note_on_c, 0, 39, 0
2, 70556, Note_on_c, 0, 84, 0
2, 70561, Note_on_c, 0, 34, 81
2, 70563, Note_on_c, 0, 75, 0
2, 70563, Note_on_c, 0, 79, 0
2, 70566, Note_on_c, 0, 39, 73
2, 70567, Note_on_c, 0, 84, 80
2, 70568, Note_on_c, 0, 79, 77
2, 70568, Note_on_c, 0, 75, 85
2, 70621, Note_on_c, 0, 84, 0
2, 70622, Note_on_c, 0, 79, 0
2, 70624, Note_on_c, 0, 72, 0
2, 70624, Control_c, 0, 64, 0
2, 70625, Note_on_c, 0, 36, 0
2, 70625, Note_on_c, 0, 39, 0
2, 70626, Note_on_c, 0, 51, 0
2, 70626, Note_on_c, 0, 75, 0
2, 70648, Note_on_c, 0, 34, 0
2, 70692, Note_on_c, 0, 36, 96
2, 70698, Note_on_c, 0, 79, 89
2, 70698, Note_on_c, 0, 75, 96
2, 70698, Note_on_c, 0, 84, 83
2, 70699, Note_on_c, 0, 87, 79
2, 70703, Note_on_c, 0, 39, 74
2, 70732, Control_c, 0, 64, 127
2, 70840, Note_on_c, 0, 79, 0
2, 70849, Note_on_c, 0, 79, 71
2, 70955, Note_on_c, 0, 39, 0
2, 70959, Note_on_c, 0, 51, 93
2, 70964, Note_on_c, 0, 39, 80
2, 71078, Note_on_c, 0, 84, 0
2, 71086, Note_on_c, 0, 79, 0
2, 71087, Note_on_c, 0, 34, 91
2, 71089, Note_on_c, 0, 84, 104
2, 71090, Note_on_c, 0, 72, 97
2, 71091, Note_on_c, 0, 79, 86
2, 71209, Note_on_c, 0, 34, 0
2, 71210, Note_on_c, 0, 75, 0
2, 71213, Control_c, 0, 64, 0
2, 71224, Note_on_c, 0, 36, 0
2, 71224, Note_on_c, 0, 87, 0
2, 71232, Note_on_c, 0, 72, 0
2, 71232, Note_on_c, 0, 79, 0
2, 71232, Note_on_c, 0, 84, 0
2, 71235, Note_on_c, 0, 48, 98
2, 71235, Note_on_c, 0, 36, 96
2, 71236, Note_on_c, 0, 84, 105
2, 71236, Note_on_c, 0, 79, 81
2, 71237, Note_on_c, 0, 72, 99
2, 71308, Control_c, 0, 64, 127
2, 71354, Note_on_c, 0, 79, 0
2, 71354, Note_on_c, 0, 84, 0
2, 71359, Note_on_c, 0, 75, 85
2, 71362, Note_on_c, 0, 79, 70
2, 71364, Note_on_c, 0, 84, 83
2, 71485, Note_on_c, 0, 39, 0
2, 71485, Note_on_c, 0, 51, 0
2, 71485, Note_on_c, 0, 72, 0
2, 71485, Note_on_c, 0, 79, 0
2, 71485, Note_on_c, 0, 84, 0
2, 71490, Note_on_c, 0, 51, 101
2, 71490, Note_on_c, 0, 72, 88
2, 71493, Note_on_c, 0, 75, 0
2, 71494, Note_on_c, 0, 79, 82
2, 71494, Note_on_c, 0, 84, 81
2, 71495, Note_on_c, 0, 39, 85
2, 71498, Note_on_c, 0, 75, 85
2, 71529, Note_on_c, 0, 36, 0
2, 71535, Note_on_c, 0, 51, 0
2, 71540, Control_c, 0, 64, 0
2, 71546, Note_on_c, 0, 48, 0
2, 71562, Note_on_c, 0, 84, 0
2, 71569, Note_on_c, 0, 72, 0
2, 71577, Note_on_c, 0, 75, 0
2, 71623, Note_on_c, 0, 79, 0
2, 71625, Note_on_c, 0, 34, 95
2, 71628, Note_on_c, 0, 79, 75
2, 71629, Note_on_c, 0, 75, 84
2, 71746, Control_c, 0, 64, 127
2, 71754, Note_on_c, 0, 39, 0
2, 71754, Note_on_c, 0, 75, 0
2, 71754, Note_on_c, 0, 79, 0
2, 71760, Note_on_c, 0, 51, 104
2, 71763, Note_on_c, 0, 79, 91
2, 71763, Note_on_c, 0, 39, 92
2, 71764, Note_on_c, 0, 75, 105
2, 71835, Note_on_c, 0, 82, 95
2, 71892, Note_on_c, 0, 75, 0
2, 71892, Note_on_c, 0, 79, 0
2, 71902, Note_on_c, 0, 79, 60
2, 71903, Note_on_c, 0, 75, 83
2, 71961, Note_on_c, 0, 82, 0
2, 71966, Note_on_c, 0, 82, 84
2, 72000, Note_on_c, 0, 79, 0
2, 72007, Note_on_c, 0, 75, 0
2, 72008, Note_on_c, 0, 79, 79
2, 72010, Note_on_c, 0, 36, 88
2, 72013, Note_on_c, 0, 75, 72
2, 72084, Note_on_c, 0, 82, 0
2, 72089, Note_on_c, 0, 82, 86
2, 72142, Note_on_c, 0, 87, 105
2, 72145, Note_on_c, 0, 39, 0
2, 72145, Note_on_c, 0, 75, 0
2, 72145, Note_on_c, 0, 79, 0
2, 72150, Note_on_c, 0, 75, 102
2, 72156, Note_on_c, 0, 79, 79
2, 72157, Note_on_c, 0, 39, 95
2, 72276, Note_on_c, 0, 75, 0
2, 72276, Note_on_c, 0, 79, 0
2, 72276, Note_on_c, 0, 82, 0
2, 72276, Note_on_c, 0, 87, 0
2, 72280, Note_on_c, 0, 79, 78
2, 72280, Note_on_c, 0, 75, 93
2, 72281, Note_on_c, 0, 82, 97
2, 72281, Note_on_c, 0, 87, 99
2, 72399, Note_on_c, 0, 39, 0
2, 72410, Note_on_c, 0, 39, 72
2, 72414, Note_on_c, 0, 79, 0
2, 72422, Note_on_c, 0, 75, 0
2, 72422, Note_on_c, 0, 82, 0
2, 72422, Note_on_c, 0, 87, 0
2, 72424, Note_on_c, 0, 91, 93
2, 72425, Note_on_c, 0, 79, 92
2, 72428, Note_on_c, 0, 75, 89
2, 72428, Note_on_c, 0, 87, 75
2, 72428, Note_on_c, 0, 82, 82
2, 72430, Note_on_c, 0, 91, 0
2, 72510, Note_on_c, 0, 87, 0
2, 72511, Note_on_c, 0, 51, 0
2, 72512, Control_c, 0, 64, 0
2, 72514, Note_on_c, 0, 34, 0
2, 72529, Note_on_c, 0, 36, 0
2, 72537, Note_on_c, 0, 39, 0
2, 72537, Note_on_c, 0, 79, 0
2, 72540, Note_on_c, 0, 36, 96
2, 72545, Note_on_c, 0, 75, 0
2, 72548, Note_on_c, 0, 79, 82
2, 72549, Note_on_c, 0, 87, 71
2, 72552, Note_on_c, 0, 75, 83
2, 72599, Note_on_c, 0, 82, 0
2, 72629, Control_c, 0, 64, 127
2, 72675, Note_on_c, 0, 75, 0
2, 72675, Note_on_c, 0, 79, 0
2, 72675, Note_on_c, 0, 87, 0
2, 72680, Note_on_c, 0, 79, 91
2, 72680, Note_on_c, 0, 75, 88
2, 72681, Note_on_c, 0, 51, 97
2, 72683, Note_on_c, 0, 87, 86
2, 72684, Note_on_c, 0, 82, 84
2, 72685, Note_on_c, 0, 39, 88
2, 72742, Note_on_c, 0, 51, 0
2, 72744, Note_on_c, 0, 79, 0
2, 72744, Note_on_c, 0, 39, 0
2, 72744, Note_on_c, 0, 75, 0
2, 72752, Note_on_c, 0, 36, 0
2, 72756, Control_c, 0, 64, 0
2, 72768, Note_on_c, 0, 82, 0
2, 72768, Note_on_c, 0, 87, 0
2, 72816, Note_on_c, 0, 85, 91
2, 72816, Note_on_c, 0, 73, 102
2, 72817, Note_on_c, 0, 49, 98
2, 72817, Note_on_c, 0, 37, 100
2, 72818, Note_on_c, 0, 77, 93
2, 72860, Control_c, 0, 64, 127
2, 72884, Note_on_c, 0, 80, 95
2, 72944, Note_on_c, 0, 73, 0
2, 72944, Note_on_c, 0, 77, 0
2, 72944, Note_on_c, 0, 85, 0
2, 72950, Note_on_c, 0, 85, 78
2, 72951, Note_on_c, 0, 77, 76
2, 72956, Note_on_c, 0, 73, 77
2, 73044, Note_on_c, 0, 77, 0
2, 73055, Note_on_c, 0, 77, 67
2, 73081, Note_on_c, 0, 74, 72
2, 73086, Note_on_c, 0, 34, 87
2, 73090, Note_on_c, 0, 74, 0
2, 73105, Note_on_c, 0, 80, 0
2, 73112, Note_on_c, 0, 80, 76
2, 73205, Note_on_c, 0, 85, 0
2, 73213, Note_on_c, 0, 73, 0
2, 73216, Note_on_c, 0, 85, 106
2, 73220, Note_on_c, 0, 73, 107
2, 73221, Note_on_c, 0, 37, 0
2, 73228, Note_on_c, 0, 49, 0
2, 73231, Note_on_c, 0, 37, 96
2, 73233, Note_on_c, 0, 49, 93
2, 73235, Control_c, 0, 64, 0
2, 73274, Control_c, 0, 64, 127
2, 73359, Note_on_c, 0, 85, 0
2, 73366, Note_on_c, 0, 85, 104
2, 73367, Note_on_c, 0, 73, 0
2, 73371, Note_on_c, 0, 73, 88
2, 73482, Note_on_c, 0, 34, 0
2, 73491, Note_on_c, 0, 34, 93
2, 73497, Note_on_c, 0, 77, 0
2, 73502, Note_on_c, 0, 77, 82
2, 73509, Control_c, 0, 64, 0
2, 73559, Note_on_c, 0, 80, 0
2, 73567, Note_on_c, 0, 80, 59
2, 73582, Control_c, 0, 64, 127
2, 73620, Note_on_c, 0, 37, 0
2, 73620, Note_on_c, 0, 49, 0
2, 73620, Note_on_c, 0, 73, 0
2, 73620, Note_on_c, 0, 77, 0
2, 73625, Note_on_c, 0, 49, 86
2, 73626, Note_on_c, 0, 37, 91
2, 73629, Note_on_c, 0, 77, 83
2, 73631, Note_on_c, 0, 73, 83
2, 73751, Note_on_c, 0, 73, 0
2, 73755, Note_on_c, 0, 39, 88
2, 73755, Note_on_c, 0, 51, 96
2, 73759, Note_on_c, 0, 73, 78
2, 73853, Note_on_c, 0, 49, 0
2, 73854, Note_on_c, 0, 80, 0
2, 73854, Note_on_c, 0, 73, 0
2, 73854, Note_on_c, 0, 37, 0
2, 73854, Note_on_c, 0, 51, 0
2, 73854, Note_on_c, 0, 77, 0
2, 73859, Control_c, 0, 64, 0
2, 73866, Note_on_c, 0, 34, 0
2, 73892, Note_on_c, 0, 60, 89
2, 73892, Note_on_c, 0, 48, 94
2, 73893, Note_on_c, 0, 36, 95
2, 73895, Note_on_c, 0, 75, 94
2, 73896, Note_on_c, 0, 72, 101
2, 73896, Note_on_c, 0, 85, 0
2, 73943, Note_on_c, 0, 60, 0
2, 73943, Control_c, 0, 64, 127
2, 74012, Note_on_c, 0, 72, 0
2, 74019, Note_on_c, 0, 75, 0
2, 74022, Note_on_c, 0, 84, 82
2, 74023, Note_on_c, 0, 72, 85
2, 74024, Note_on_c, 0, 75, 70
2, 74142, Note_on_c, 0, 39, 0
2, 74149, Note_on_c, 0, 51, 89
2, 74150, Note_on_c, 0, 39, 85
2, 74273, Note_on_c, 0, 84, 0
2, 74280, Note_on_c, 0, 72, 0
2, 74283, Note_on_c, 0, 84, 104
2, 74286, Note_on_c, 0, 72, 94
2, 74288, Note_on_c, 0, 36, 0
2, 74292, Note_on_c, 0, 36, 93
2, 74293, Note_on_c, 0, 46, 87
2, 74293, Note_on_c, 0, 34, 90
2, 74371, Control_c, 0, 64, 0
2, 74371, Note_on_c, 0, 51, 0
2, 74372, Note_on_c, 0, 75, 0
2, 74372, Note_on_c, 0, 36, 0
2, 74373, Note_on_c, 0, 39, 0
2, 74373, Note_on_c, 0, 72, 0
2, 74388, Note_on_c, 0, 34, 0
2, 74388, Note_on_c, 0, 48, 0
2, 74396, Note_on_c, 0, 46, 0
2, 74403, Note_on_c, 0, 84, 0
2, 74410, Note_on_c, 0, 84, 102
2, 74415, Note_on_c, 0, 72, 92
2, 74416, Note_on_c, 0, 36, 90
2, 74419, Note_on_c, 0, 48, 90
2, 74465, Control_c, 0, 64, 127
2, 74484, Note_on_c, 0, 79, 72
2, 74555, Note_on_c, 0, 75, 87
2, 74580, Note_on_c, 0, 72, 0
2, 74591, Note_on_c, 0, 72, 68
2, 74672, Note_on_c, 0, 72, 0
2, 74678, Note_on_c, 0, 72, 74
2, 74749, Note_on_c, 0, 67, 74
2, 74808, Note_on_c, 0, 63, 73
2, 74833, Note_on_c, 0, 60, 68
2, 74927, Note_on_c, 0, 36, 0
2, 74929, Note_on_c, 0, 67, 0
2, 74929, Note_on_c, 0, 75, 0
2, 74930, Control_c, 0, 64, 0
2, 74930, Note_on_c, 0, 63, 0
2, 74930, Note_on_c, 0, 72, 0
2, 74930, Note_on_c, 0, 60, 0
2, 74930, Note_on_c, 0, 84, 0
2, 74949, Note_on_c, 0, 48, 0
2, 74956, Note_on_c, 0, 79, 0
2, 74959, Note_on_c, 0, 48, 74
2, 74962, Note_on_c, 0, 79, 89
2, 75010, Control_c, 0, 64, 127
2, 75060, Note_on_c, 0, 67, 70
2, 75083, Note_on_c, 0, 55, 71
2, 75144, Note_on_c, 0, 72, 40
2, 75145, Note_on_c, 0, 63, 37
2, 75148, Note_on_c, 0, 72, 0
2, 75156, Note_on_c, 0, 63, 0
2, 75227, Note_on_c, 0, 77, 91
2, 75229, Note_on_c, 0, 63, 78
2, 75230, Note_on_c, 0, 58, 76
2, 75302, Note_on_c, 0, 67, 0
2, 75312, Note_on_c, 0, 67, 82
2, 75371, Note_on_c, 0, 75, 94
2, 75440, Note_on_c, 0, 67, 0
2, 75451, Note_on_c, 0, 67, 83
2, 75497, Note_on_c, 0, 70, 72
2, 75578, Note_on_c, 0, 63, 0
2, 75590, Note_on_c, 0, 63, 38
2, 75624, Note_on_c, 0, 55, 0
2, 75632, Note_on_c, 0, 55, 68
2, 75636, Note_on_c, 0, 72, 90
2, 75755, Note_on_c, 0, 67, 0
2, 75755, Note_on_c, 0, 72, 0
2, 75759, Note_on_c, 0, 72, 81
2, 75766, Note_on_c, 0, 67, 78
2, 75778, Note_on_c, 0, 58, 0
2, 75778, Note_on_c, 0, 63, 0
2, 75783, Note_on_c, 0, 63, 73
2, 75785, Note_on_c, 0, 58, 70
2, 75840, Note_on_c, 0, 67, 0
2, 75850, Note_on_c, 0, 67, 79
2, 75916, Note_on_c, 0, 70, 0
2, 75922, Note_on_c, 0, 70, 82
2, 75993, Note_on_c, 0, 67, 0
2, 75998, Note_on_c, 0, 67, 67
2, 76003, Note_on_c, 0, 48, 0
2, 76004, Note_on_c, 0, 55, 0
2, 76004, Note_on_c, 0, 63, 0
2, 76004, Note_on_c, 0, 58, 0
2, 76005, Control_c, 0, 64, 0
2, 76005, Note_on_c, 0, 77, 0
2, 76005, Note_on_c, 0, 75, 0
2, 76005, Note_on_c, 0, 70, 0
2, 76009, Note_on_c, 0, 79, 0
2, 76032, Note_on_c, 0, 72, 0
2, 76039, Note_on_c, 0, 67, 0
2, 76039, Note_on_c, 0, 51, 82
2, 76041, Note_on_c, 0, 72, 94
2, 76093, Control_c, 0, 64, 127
2, 76124, Note_on_c, 0, 67, 81
2, 76173, Note_on_c, 0, 55, 74
2, 76205, Note_on_c, 0, 70, 78
2, 76293, Note_on_c, 0, 67, 0
2, 76303, Note_on_c, 0, 67, 83
2, 76305, Note_on_c, 0, 63, 82
2, 76308, Note_on_c, 0, 72, 0
2, 76311, Note_on_c, 0, 58, 77
2, 76313, Note_on_c, 0, 72, 79
2, 76400, Note_on_c, 0, 67, 0
2, 76411, Note_on_c, 0, 67, 73
2, 76454, Note_on_c, 0, 75, 90
2, 76508, Note_on_c, 0, 67, 0
2, 76518, Note_on_c, 0, 67, 70
2, 76615, Note_on_c, 0, 70, 0
2, 76626, Note_on_c, 0, 70, 51
2, 76684, Note_on_c, 0, 67, 0
2, 76689, Note_on_c, 0, 67, 70
2, 76692, Note_on_c, 0, 55, 0
2, 76699, Note_on_c, 0, 55, 75
2, 76723, Note_on_c, 0, 72, 0
2, 76727, Note_on_c, 0, 72, 86
2, 76800, Note_on_c, 0, 67, 0
2, 76807, Note_on_c, 0, 67, 79
2, 76814, Control_c, 0, 64, 0
2, 76838, Note_on_c, 0, 63, 0
2, 76838, Note_on_c, 0, 72, 0
2, 76846, Note_on_c, 0, 58, 0
2, 76849, Note_on_c, 0, 72, 79
2, 76849, Note_on_c, 0, 63, 82
2, 76850, Note_on_c, 0, 58, 72
2, 76884, Control_c, 0, 64, 127
2, 76915, Note_on_c, 0, 55, 0
2, 76930, Note_on_c, 0, 67, 0
2, 76938, Note_on_c, 0, 67, 78
2, 76992, Note_on_c, 0, 75, 0
2, 76996, Note_on_c, 0, 75, 97
2, 77076, Note_on_c, 0, 67, 0
2, 77080, Note_on_c, 0, 67, 74
2, 77094, Note_on_c, 0, 63, 0
2, 77095, Note_on_c, 0, 72, 0
2, 77095, Note_on_c, 0, 58, 0
2, 77097, Note_on_c, 0, 75, 0
2, 77098, Control_c, 0, 64, 0
2, 77107, Note_on_c, 0, 51, 0
2, 77107, Note_on_c, 0, 70, 0
2, 77124, Note_on_c, 0, 49, 78
2, 77126, Note_on_c, 0, 77, 94
2, 77130, Note_on_c, 0, 67, 0
2, 77168, Control_c, 0, 64, 127
2, 77216, Note_on_c, 0, 65, 73
2, 77270, Note_on_c, 0, 53, 75
2, 77283, Note_on_c, 0, 49, 0
2, 77297, Note_on_c, 0, 70, 76
2, 77352, Note_on_c, 0, 65, 0
2, 77362, Note_on_c, 0, 65, 63
2, 77407, Note_on_c, 0, 61, 76
2, 77408, Note_on_c, 0, 75, 94
2, 77410, Note_on_c, 0, 58, 74
2, 77483, Note_on_c, 0, 65, 0
2, 77488, Note_on_c, 0, 65, 56
2, 77491, Note_on_c, 0, 70, 0
2, 77501, Note_on_c, 0, 70, 47
2, 77529, Note_on_c, 0, 77, 0
2, 77535, Note_on_c, 0, 77, 92
2, 77606, Note_on_c, 0, 65, 0
2, 77611, Note_on_c, 0, 65, 80
2, 77675, Note_on_c, 0, 70, 0
2, 77679, Note_on_c, 0, 70, 75
2, 77752, Note_on_c, 0, 65, 0
2, 77763, Note_on_c, 0, 65, 76
2, 77775, Note_on_c, 0, 53, 0
2, 77784, Note_on_c, 0, 53, 75
2, 77806, Note_on_c, 0, 77, 0
2, 77811, Note_on_c, 0, 77, 80
2, 77867, Note_on_c, 0, 65, 0
2, 77877, Note_on_c, 0, 65, 76
2, 77928, Note_on_c, 0, 58, 0
2, 77928, Note_on_c, 0, 61, 0
2, 77935, Note_on_c, 0, 61, 76
2, 77940, Note_on_c, 0, 58, 71
2, 77940, Note_on_c, 0, 79, 94
2, 78021, Note_on_c, 0, 65, 0
2, 78030, Note_on_c, 0, 65, 69
2, 78044, Note_on_c, 0, 70, 0
2, 78051, Note_on_c, 0, 70, 69
2, 78120, Note_on_c, 0, 65, 0
2, 78129, Note_on_c, 0, 65, 79
2, 78156, Note_on_c, 0, 53, 0
2, 78156, Note_on_c, 0, 61, 0
2, 78156, Control_c, 0, 64, 0
2, 78156, Note_on_c, 0, 77, 0
2, 78156, Note_on_c, 0, 70, 0
2, 78156, Note_on_c, 0, 79, 0
2, 78156, Note_on_c, 0, 58, 0
2, 78157, Note_on_c, 0, 75, 0
2, 78197, Note_on_c, 0, 65, 0
2, 78201, Note_on_c, 0, 48, 81
2, 78201, Note_on_c, 0, 72, 93
2, 78220, Control_c, 0, 64, 127
2, 78278, Note_on_c, 0, 67, 81
2, 78338, Note_on_c, 0, 55, 71
2, 78376, Note_on_c, 0, 70, 71
2, 78458, Note_on_c, 0, 67, 0
2, 78458, Note_on_c, 0, 72, 0
2, 78463, Note_on_c, 0, 67, 87
2, 78468, Note_on_c, 0, 58, 85
2, 78470, Note_on_c, 0, 72, 88
2, 78470, Note_on_c, 0, 63, 85
2, 78587, Note_on_c, 0, 75, 94
2, 78666, Note_on_c, 0, 67, 0
2, 78672, Note_on_c, 0, 67, 72
2, 78750, Note_on_c, 0, 70, 0
2, 78760, Note_on_c, 0, 70, 57
2, 78789, Note_on_c, 0, 67, 0
2, 78798, Note_on_c, 0, 67, 63
2, 78858, Note_on_c, 0, 55, 0
2, 78858, Note_on_c, 0, 70, 0
2, 78865, Note_on_c, 0, 55, 88
2, 78868, Note_on_c, 0, 70, 67
2, 78950, Note_on_c, 0, 67, 0
2, 78954, Note_on_c, 0, 67, 67
2, 78996, Note_on_c, 0, 70, 0
2, 79004, Note_on_c, 0, 58, 0
2, 79004, Note_on_c, 0, 63, 0
2, 79007, Note_on_c, 0, 70, 74
2, 79008, Note_on_c, 0, 63, 82
2, 79011, Note_on_c, 0, 58, 78
2, 79073, Note_on_c, 0, 67, 0
2, 79077, Note_on_c, 0, 67, 66
2, 79134, Note_on_c, 0, 70, 0
2, 79141, Note_on_c, 0, 70, 67
2, 79239, Note_on_c, 0, 67, 0
2, 79239, Control_c, 0, 64, 0
2, 79239, Note_on_c, 0, 70, 0
2, 79240, Note_on_c, 0, 72, 0
2, 79240, Note_on_c, 0, 63, 0
2, 79240, Note_on_c, 0, 58, 0
2, 79241, Note_on_c, 0, 75, 0
2, 79257, Note_on_c, 0, 48, 0
2, 79257, Note_on_c, 0, 55, 0
2, 79275, Note_on_c, 0, 79, 95
2, 79278, Note_on_c, 0, 48, 77
2, 79326, Control_c, 0, 64, 127
2, 79358, Note_on_c, 0, 67, 79
2, 79409, Note_on_c, 0, 55, 72
2, 79431, Note_on_c, 0, 70, 76
2, 79549, Note_on_c, 0, 77, 91
2, 79552, Note_on_c, 0, 63, 82
2, 79575, Note_on_c, 0, 58, 71
2, 79641, Note_on_c, 0, 67, 0
2, 79648, Note_on_c, 0, 67, 71
2, 79684, Note_on_c, 0, 75, 94
2, 79741, Note_on_c, 0, 67, 0
2, 79750, Note_on_c, 0, 67, 79
2, 79825, Note_on_c, 0, 70, 0
2, 79831, Note_on_c, 0, 70, 76
2, 79902, Note_on_c, 0, 67, 0
2, 79908, Note_on_c, 0, 67, 74
2, 79948, Note_on_c, 0, 55, 0
2, 79960, Note_on_c, 0, 72, 90
2, 79960, Note_on_c, 0, 55, 75
2, 80025, Note_on_c, 0, 67, 0
2, 80029, Note_on_c, 0, 67, 66
2, 80064, Note_on_c, 0, 72, 0
2, 80074, Note_on_c, 0, 72, 70
2, 80094, Note_on_c, 0, 58, 0
2, 80094, Note_on_c, 0, 63, 0
2, 80098, Note_on_c, 0, 63, 75
2, 80102, Note_on_c, 0, 58, 73
2, 80148, Note_on_c, 0, 67, 0
2, 80157, Note_on_c, 0, 67, 78
2, 80217, Note_on_c, 0, 70, 0
2, 80227, Note_on_c, 0, 70, 86
2, 80327, Note_on_c, 0, 63, 0
2, 80328, Note_on_c, 0, 58, 0
2, 80328, Note_on_c, 0, 70, 0
2, 80328, Control_c, 0, 64, 0
2, 80328, Note_on_c, 0, 77, 0
2, 80328, Note_on_c, 0, 75, 0
2, 80329, Note_on_c, 0, 79, 0
2, 80340, Note_on_c, 0, 48, 0
2, 80348, Note_on_c, 0, 55, 0
2, 80348, Note_on_c, 0, 67, 0
2, 80348, Note_on_c, 0, 72, 0
2, 80358, Note_on_c, 0, 72, 97
2, 80361, Note_on_c, 0, 51, 84
2, 80401, Control_c, 0, 64, 127
2, 80429, Note_on_c, 0, 67, 73
2, 80505, Note_on_c, 0, 55, 62
2, 80505, Note_on_c, 0, 70, 78
2, 80593, Note_on_c, 0, 67, 0
2, 80599, Note_on_c, 0, 67, 72
2, 80632, Note_on_c, 0, 72, 0
2, 80638, Note_on_c, 0, 63, 83
2, 80638, Note_on_c, 0, 72, 84
2, 80643, Note_on_c, 0, 58, 79
2, 80716, Note_on_c, 0, 67, 0
2, 80721, Note_on_c, 0, 67, 78
2, 80773, Note_on_c, 0, 75, 92
2, 80816, Note_on_c, 0, 67, 0
2, 80828, Note_on_c, 0, 67, 71
2, 80901, Note_on_c, 0, 70, 0
2, 80911, Note_on_c, 0, 70, 76
2, 80985, Note_on_c, 0, 67, 0
2, 80992, Note_on_c, 0, 67, 67
2, 81024, Note_on_c, 0, 55, 0
2, 81031, Note_on_c, 0, 72, 0
2, 81034, Note_on_c, 0, 55, 77
2, 81036, Note_on_c, 0, 72, 99
2, 81116, Note_on_c, 0, 67, 0
2, 81122, Note_on_c, 0, 67, 71
2, 81162, Note_on_c, 0, 63, 0
2, 81162, Note_on_c, 0, 72, 0
2, 81169, Note_on_c, 0, 72, 79
2, 81169, Note_on_c, 0, 58, 0
2, 81171, Note_on_c, 0, 63, 85
2, 81180, Note_on_c, 0, 58, 85
2, 81254, Note_on_c, 0, 67, 0
2, 81259, Note_on_c, 0, 67, 86
2, 81315, Note_on_c, 0, 75, 0
2, 81324, Note_on_c, 0, 75, 90
2, 81392, Note_on_c, 0, 67, 0
2, 81398, Note_on_c, 0, 67, 79
2, 81406, Note_on_c, 0, 63, 0
2, 81407, Note_on_c, 0, 72, 0
2, 81408, Note_on_c, 0, 51, 0
2, 81408, Note_on_c, 0, 70, 0
2, 81408, Note_on_c, 0, 58, 0
2, 81410, Note_on_c, 0, 75, 0
2, 81411, Control_c, 0, 64, 0
2, 81423, Note_on_c, 0, 55, 0
2, 81442, Note_on_c, 0, 49, 79
2, 81442, Note_on_c, 0, 77, 96
2, 81446, Note_on_c, 0, 67, 0
2, 81492, Control_c, 0, 64, 127
2, 81500, Note_on_c, 0, 49, 0
2, 81534, Note_on_c, 0, 65, 82
2, 81590, Note_on_c, 0, 53, 79
2, 81617, Note_on_c, 0, 70, 78
2, 81653, Note_on_c, 0, 65, 0
2, 81663, Note_on_c, 0, 65, 72
2, 81717, Note_on_c, 0, 75, 95
2, 81721, Note_on_c, 0, 61, 75
2, 81722, Note_on_c, 0, 58, 81
2, 81792, Note_on_c, 0, 65, 0
2, 81795, Note_on_c, 0, 65, 72
2, 81838, Note_on_c, 0, 77, 0
2, 81846, Note_on_c, 0, 77, 94
2, 81907, Note_on_c, 0, 65, 0
2, 81917, Note_on_c, 0, 65, 83
2, 81945, Note_on_c, 0, 77, 0
2, 81956, Note_on_c, 0, 77, 69
2, 81991, Note_on_c, 0, 70, 0
2, 82000, Note_on_c, 0, 70, 80
2, 82022, Note_on_c, 0, 58, 0
2, 82029, Note_on_c, 0, 58, 50
2, 82091, Note_on_c, 0, 53, 0
2, 82091, Note_on_c, 0, 77, 0
2, 82102, Note_on_c, 0, 53, 84
2, 82102, Note_on_c, 0, 77, 91
2, 82183, Note_on_c, 0, 65, 0
2, 82189, Note_on_c, 0, 65, 78
2, 82245, Note_on_c, 0, 61, 0
2, 82252, Note_on_c, 0, 58, 0
2, 82256, Note_on_c, 0, 79, 94
2, 82256, Note_on_c, 0, 61, 78
2, 82258, Note_on_c, 0, 58, 74
2, 82321, Note_on_c, 0, 65, 0
2, 82326, Note_on_c, 0, 65, 74
2, 82368, Note_on_c, 0, 70, 0
2, 82376, Note_on_c, 0, 70, 82
2, 82479, Note_on_c, 0, 53, 0
2, 82479, Note_on_c, 0, 65, 0
2, 82479, Note_on_c, 0, 61, 0
2, 82479, Note_on_c, 0, 58, 0
2, 82479, Note_on_c, 0, 70, 0
2, 82480, Note_on_c, 0, 75, 0
2, 82480, Note_on_c, 0, 79, 0
2, 82480, Control_c, 0, 64, 0
2, 82498, Note_on_c, 0, 77, 0
2, 82517, Note_on_c, 0, 72, 93
2, 82521, Note_on_c, 0, 67, 91
2, 82524, Note_on_c, 0, 48, 80
2, 82590, Note_on_c, 0, 72, 0
2, 82598, Control_c, 0, 64, 127
2, 82600, Note_on_c, 0, 72, 76
2, 82603, Note_on_c, 0, 70, 47
2, 82661, Note_on_c, 0, 55, 79
2, 82782, Note_on_c, 0, 67, 0
2, 82794, Note_on_c, 0, 67, 73
2, 82794, Note_on_c, 0, 63, 78
2, 82837, Note_on_c, 0, 58, 63
2, 82913, Note_on_c, 0, 72, 0
2, 82921, Note_on_c, 0, 72, 70
2, 82975, Note_on_c, 0, 75, 76
2, 83013, Note_on_c, 0, 79, 67
2, 83060, Note_on_c, 0, 84, 91
2, 83312, Note_on_c, 0, 48, 0
2, 83321, Note_on_c, 0, 48, 66
2, 83566, Note_on_c, 0, 75, 0
2, 83576, Note_on_c, 0, 75, 60
2, 83589, Note_on_c, 0, 70, 0
2, 83593, Control_c, 0, 64, 0
2, 83593, Note_on_c, 0, 75, 0
2, 83593, Note_on_c, 0, 67, 0
2, 83593, Note_on_c, 0, 63, 0
2, 83594, Note_on_c, 0, 72, 0
2, 83594, Note_on_c, 0, 58, 0
2, 83594, Note_on_c, 0, 55, 0
2, 83594, Note_on_c, 0, 79, 0
2, 83595, Note_on_c, 0, 48, 0
2, 83610, Note_on_c, 0, 44, 71
2, 83612, Note_on_c, 0, 84, 0
2, 83614, Note_on_c, 0, 80, 79
2, 83620, Note_on_c, 0, 84, 64
2, 83625, Note_on_c, 0, 87, 93
2, 83712, Control_c, 0, 64, 127
2, 83760, Note_on_c, 0, 51, 63
2, 83852, Note_on_c, 0, 89, 85
2, 83885, Note_on_c, 0, 56, 68
2, 84042, Note_on_c, 0, 87, 0
2, 84046, Note_on_c, 0, 58, 64
2, 84051, Note_on_c, 0, 87, 84
2, 84172, Note_on_c, 0, 89, 0
2, 84181, Note_on_c, 0, 89, 87
2, 84191, Note_on_c, 0, 60, 75
2, 84321, Note_on_c, 0, 63, 70
2, 84446, Note_on_c, 0, 68, 76
2, 84590, Note_on_c, 0, 72, 71
2, 84728, Note_on_c, 0, 77, 70
2, 84728, Note_on_c, 0, 68, 0
2, 84728, Control_c, 0, 64, 0
2, 84728, Note_on_c, 0, 80, 0
2, 84728, Note_on_c, 0, 51, 0
2, 84728, Note_on_c, 0, 58, 0
2, 84729, Note_on_c, 0, 44, 0
2, 84729, Note_on_c, 0, 56, 0
2, 84729, Note_on_c, 0, 72, 0
2, 84729, Note_on_c, 0, 60, 0
2, 84729, Note_on_c, 0, 63, 0
2, 84731, Note_on_c, 0, 46, 80
2, 84733, Note_on_c, 0, 87, 0
2, 84741, Note_on_c, 0, 87, 91
2, 84743, Note_on_c, 0, 82, 81
2, 84748, Note_on_c, 0, 84, 0
2, 84833, Control_c, 0, 64, 127
2, 84869, Note_on_c, 0, 53, 74
2, 84963, Note_on_c, 0, 89, 0
2, 84974, Note_on_c, 0, 89, 89
2, 85022, Note_on_c, 0, 58, 72
2, 85155, Note_on_c, 0, 87, 0
2, 85157, Note_on_c, 0, 60, 66
2, 85166, Note_on_c, 0, 87, 84
2, 85294, Note_on_c, 0, 89, 0
2, 85303, Note_on_c, 0, 62, 68
2, 85303, Note_on_c, 0, 89, 90
2, 85412, Note_on_c, 0, 65, 73
2, 85555, Note_on_c, 0, 87, 0
2, 85565, Note_on_c, 0, 87, 87
2, 85580, Note_on_c, 0, 70, 71
2, 85685, Note_on_c, 0, 58, 0
2, 85695, Note_on_c, 0, 58, 75
2, 85831, Control_c, 0, 64, 0
2, 85833, Note_on_c, 0, 87, 0
2, 85833, Note_on_c, 0, 89, 0
2, 85834, Note_on_c, 0, 46, 0
2, 85834, Note_on_c, 0, 70, 0
2, 85834, Note_on_c, 0, 65, 0
2, 85834, Note_on_c, 0, 53, 0
2, 85834, Note_on_c, 0, 60, 0
2, 85834, Note_on_c, 0, 58, 0
2, 85835, Note_on_c, 0, 62, 0
2, 85839, Note_on_c, 0, 77, 0
2, 85842, Note_on_c, 0, 74, 71
2, 85848, Note_on_c, 0, 86, 95
2, 85849, Note_on_c, 0, 77, 71
2, 85854, Note_on_c, 0, 82, 0
2, 85859, Note_on_c, 0, 82, 77
2, 85860, Note_on_c, 0, 48, 68
2, 85939, Control_c, 0, 64, 127
2, 85990, Note_on_c, 0, 55, 73
2, 86112, Note_on_c, 0, 60, 73
2, 86246, Note_on_c, 0, 82, 0
2, 86250, Note_on_c, 0, 82, 91
2, 86271, Note_on_c, 0, 62, 70
2, 86402, Note_on_c, 0, 63, 72
2, 86532, Note_on_c, 0, 65, 68
2, 86653, Note_on_c, 0, 77, 0
2, 86663, Note_on_c, 0, 77, 85
2, 86672, Note_on_c, 0, 70, 73
2, 86791, Note_on_c, 0, 74, 0
2, 86800, Note_on_c, 0, 74, 66
2, 86924, Control_c, 0, 64, 0
2, 86925, Note_on_c, 0, 60, 0
2, 86925, Note_on_c, 0, 82, 0
2, 86925, Note_on_c, 0, 55, 0
2, 86925, Note_on_c, 0, 62, 0
2, 86925, Note_on_c, 0, 63, 0
2, 86926, Note_on_c, 0, 70, 0
2, 86926, Note_on_c, 0, 65, 0
2, 86926, Note_on_c, 0, 77, 0
2, 86926, Note_on_c, 0, 74, 0
2, 86926, Note_on_c, 0, 86, 0
2, 86929, Note_on_c, 0, 48, 0
2, 86945, Note_on_c, 0, 79, 89
2, 86951, Note_on_c, 0, 75, 84
2, 86956, Note_on_c, 0, 46, 75
2, 87029, Control_c, 0, 64, 127
2, 87086, Note_on_c, 0, 74, 73
2, 87235, Note_on_c, 0, 70, 71
2, 87360, Note_on_c, 0, 65, 67
2, 87496, Note_on_c, 0, 72, 83
2, 87498, Note_on_c, 0, 63, 71
2, 87634, Note_on_c, 0, 62, 66
2, 87761, Note_on_c, 0, 58, 73
2, 87774, Note_on_c, 0, 74, 0
2, 87781, Note_on_c, 0, 74, 83
2, 87903, Note_on_c, 0, 53, 71
2, 88015, Note_on_c, 0, 53, 0
2, 88015, Note_on_c, 0, 63, 0
2, 88016, Note_on_c, 0, 62, 0
2, 88016, Note_on_c, 0, 58, 0
2, 88016, Note_on_c, 0, 79, 0
2, 88016, Note_on_c, 0, 70, 0
2, 88016, Note_on_c, 0, 72, 0
2, 88016, Note_on_c, 0, 65, 0
2, 88016, Note_on_c, 0, 75, 0
2, 88016, Note_on_c, 0, 74, 0
2, 88016, Control_c, 0, 64, 0
2, 88028, Note_on_c, 0, 46, 0
2, 88048, Note_on_c, 0, 44, 71
2, 88068, Note_on_c, 0, 75, 91
2, 88069, Note_on_c, 0, 68, 77
2, 88120, Control_c, 0, 64, 127
2, 88193, Note_on_c, 0, 51, 68
2, 88285, Note_on_c, 0, 77, 83
2, 88320, Note_on_c, 0, 56, 72
2, 88473, Note_on_c, 0, 75, 0
2, 88478, Note_on_c, 0, 58, 63
2, 88478, Note_on_c, 0, 75, 78
2, 88604, Note_on_c, 0, 77, 0
2, 88615, Note_on_c, 0, 77, 84
2, 88618, Note_on_c, 0, 60, 75
2, 88743, Note_on_c, 0, 63, 74
2, 88888, Note_on_c, 0, 68, 0
2, 88898, Note_on_c, 0, 68, 67
2, 89030, Note_on_c, 0, 72, 76
2, 89157, Note_on_c, 0, 75, 0
2, 89159, Control_c, 0, 64, 0
2, 89161, Note_on_c, 0, 63, 0
2, 89162, Note_on_c, 0, 51, 0
2, 89162, Note_on_c, 0, 58, 0
2, 89163, Note_on_c, 0, 68, 0
2, 89163, Note_on_c, 0, 60, 0
2, 89163, Note_on_c, 0, 56, 0
2, 89163, Note_on_c, 0, 77, 0
2, 89164, Note_on_c, 0, 72, 0
2, 89164, Note_on_c, 0, 75, 86
2, 89168, Note_on_c, 0, 46, 75
2, 89180, Note_on_c, 0, 44, 0
2, 89187, Note_on_c, 0, 70, 63
2, 89280, Control_c, 0, 64, 127
2, 89287, Note_on_c, 0, 53, 71
2, 89362, Note_on_c, 0, 77, 81
2, 89442, Note_on_c, 0, 58, 73
2, 89548, Note_on_c, 0, 75, 0
2, 89558, Note_on_c, 0, 75, 83
2, 89561, Note_on_c, 0, 60, 64
2, 89711, Note_on_c, 0, 62, 75
2, 89711, Note_on_c, 0, 74, 87
2, 89819, Note_on_c, 0, 65, 68
2, 89963, Note_on_c, 0, 72, 84
2, 89994, Note_on_c, 0, 70, 0
2, 89999, Note_on_c, 0, 70, 65
2, 90094, Note_on_c, 0, 58, 0
2, 90104, Note_on_c, 0, 58, 71
2, 90220, Note_on_c, 0, 62, 0
2, 90220, Note_on_c, 0, 46, 0
2, 90220, Control_c, 0, 64, 0
2, 90220, Note_on_c, 0, 53, 0
2, 90220, Note_on_c, 0, 74, 0
2, 90220, Note_on_c, 0, 65, 0
2, 90220, Note_on_c, 0, 58, 0
2, 90220, Note_on_c, 0, 77, 0
2, 90220, Note_on_c, 0, 70, 0
2, 90221, Note_on_c, 0, 72, 0
2, 90240, Note_on_c, 0, 60, 0
2, 90240, Note_on_c, 0, 75, 0
2, 90244, Note_on_c, 0, 84, 98
2, 90248, Note_on_c, 0, 79, 89
2, 90249, Note_on_c, 0, 48, 93
2, 90250, Note_on_c, 0, 60, 97
2, 90250, Note_on_c, 0, 75, 94
2, 90251, Note_on_c, 0, 55, 91
2, 90278, Control_c, 0, 64, 127
2, 90370, Control_c, 0, 64, 0
2, 90375, Note_on_c, 0, 48, 0
2, 90378, Note_on_c, 0, 75, 0
2, 90378, Note_on_c, 0, 79, 0
2, 90378, Note_on_c, 0, 84, 0
2, 90385, Note_on_c, 0, 55, 0
2, 90385, Note_on_c, 0, 60, 0
2, 90387, Note_on_c, 0, 84, 92
2, 90389, Note_on_c, 0, 75, 86
2, 90389, Note_on_c, 0, 79, 76
2, 90439, Note_on_c, 0, 79, 0
2, 90447, Note_on_c, 0, 75, 0
2, 90447, Note_on_c, 0, 84, 0
2, 90651, Note_on_c, 0, 80, 100
2, 90651, Note_on_c, 0, 56, 91
2, 90652, Note_on_c, 0, 44, 84
2, 90655, Note_on_c, 0, 51, 90
2, 90658, Note_on_c, 0, 72, 85
2, 90659, Note_on_c, 0, 75, 81
2, 90662, Control_c, 0, 64, 127
2, 90792, Note_on_c, 0, 72, 0
2, 90792, Note_on_c, 0, 75, 0
2, 90792, Note_on_c, 0, 80, 0
2, 90797, Note_on_c, 0, 80, 85
2, 90797, Note_on_c, 0, 75, 71
2, 90803, Note_on_c, 0, 72, 73
2, 90883, Control_c, 0, 64, 0
2, 90896, Note_on_c, 0, 51, 0
2, 90896, Note_on_c, 0, 80, 0
2, 90897, Note_on_c, 0, 44, 0
2, 90897, Note_on_c, 0, 72, 0
2, 90897, Note_on_c, 0, 75, 0
2, 90898, Note_on_c, 0, 56, 0
2, 91060, Note_on_c, 0, 46, 93
2, 91063, Note_on_c, 0, 82, 103
2, 91065, Note_on_c, 0, 74, 90
2, 91065, Note_on_c, 0, 53, 82
2, 91065, Note_on_c, 0, 77, 86
2, 91069, Control_c, 0, 64, 127
2, 91200, Note_on_c, 0, 74, 0
2, 91200, Note_on_c, 0, 82, 0
2, 91205, Note_on_c, 0, 82, 93
2, 91210, Note_on_c, 0, 74, 78
2, 91258, Control_c, 0, 64, 0
2, 91260, Note_on_c, 0, 74, 0
2, 91263, Note_on_c, 0, 77, 0
2, 91265, Note_on_c, 0, 46, 0
2, 91265, Note_on_c, 0, 82, 0
2, 91265, Note_on_c, 0, 53, 0
2, 91472, Note_on_c, 0, 55, 80
2, 91539, Note_on_c, 0, 55, 0
2, 91551, Note_on_c, 0, 60, 79
2, 91596, Note_on_c, 0, 60, 0
2, 91598, Note_on_c, 0, 62, 92
2, 91648, Note_on_c, 0, 62, 0
2, 91676, Note_on_c, 0, 60, 82
2, 91723, Note_on_c, 0, 60, 0
2, 91726, Note_on_c, 0, 62, 81
2, 91776, Note_on_c, 0, 62, 0
2, 91780, Note_on_c, 0, 67, 86
2, 91829, Note_on_c, 0, 67, 0
2, 91858, Note_on_c, 0, 72, 91
2, 91893, Note_on_c, 0, 72, 0
2, 91934, Note_on_c, 0, 67, 60
2, 91991, Control_c, 0, 64, 127
2, 92000, Note_on_c, 0, 72, 89
2, 92042, Note_on_c, 0, 74, 80
2, 92109, Note_on_c, 0, 79, 86
2, 92162, Note_on_c, 0, 84, 85
2, 92218, Note_on_c, 0, 86, 83
2, 92263, Note_on_c, 0, 91, 90
2, 92317, Control_c, 0, 64, 0
2, 92318, Note_on_c, 0, 74, 0
2, 92318, Note_on_c, 0, 79, 0
2, 92318, Note_on_c, 0, 84, 0
2, 92318, Note_on_c, 0, 72, 0
2, 92318, Note_on_c, 0, 67, 0
2, 92318, Note_on_c, 0, 86, 0
2, 92319, Note_on_c, 0, 91, 0
2, 92378, Note_on_c, 0, 92, 107
2, 92381, Note_on_c, 0, 80, 93
2, 92384, Note_on_c, 0, 69, 84
2, 92387, Note_on_c, 0, 85, 85
2, 92391, Note_on_c, 0, 61, 81
2, 92391, Note_on_c, 0, 64, 79
2, 92418, Note_on_c, 0, 69, 0
2, 92420, Note_on_c, 0, 80, 0
2, 92422, Note_on_c, 0, 85, 0
2, 92423, Note_on_c, 0, 92, 0
2, 92423, Note_on_c, 0, 61, 0
2, 92425, Note_on_c, 0, 64, 0
2, 92524, Note_on_c, 0, 57, 74
2, 92568, Note_on_c, 0, 57, 0
2, 92653, Note_on_c, 0, 93, 96
2, 92655, Note_on_c, 0, 85, 89
2, 92657, Note_on_c, 0, 64, 80
2, 92657, Note_on_c, 0, 81, 83
2, 92657, Note_on_c, 0, 61, 74
2, 92705, Note_on_c, 0, 85, 0
2, 92712, Note_on_c, 0, 81, 0
2, 92712, Note_on_c, 0, 93, 0
2, 92779, Note_on_c, 0, 69, 78
2, 92805, Note_on_c, 0, 64, 0
2, 92820, Note_on_c, 0, 69, 0
2, 92828, Note_on_c, 0, 61, 0
2, 92919, Note_on_c, 0, 90, 99
2, 92925, Note_on_c, 0, 71, 84
2, 92926, Note_on_c, 0, 78, 87
2, 92927, Note_on_c, 0, 66, 77
2, 92930, Note_on_c, 0, 83, 76
2, 92931, Note_on_c, 0, 87, 76
2, 92932, Note_on_c, 0, 63, 71
2, 92953, Note_on_c, 0, 78, 0
2, 92954, Note_on_c, 0, 90, 0
2, 92958, Note_on_c, 0, 66, 0
2, 92959, Note_on_c, 0, 83, 0
2, 92974, Note_on_c, 0, 71, 0
2, 92981, Note_on_c, 0, 63, 0
2, 92997, Note_on_c, 0, 87, 0
2, 93057, Note_on_c, 0, 59, 82
2, 93117, Note_on_c, 0, 59, 0
2, 93194, Note_on_c, 0, 87, 92
2, 93194, Note_on_c, 0, 75, 84
2, 93197, Note_on_c, 0, 66, 79
2, 93199, Note_on_c, 0, 63, 71
2, 93247, Note_on_c, 0, 75, 0
2, 93249, Note_on_c, 0, 87, 0
2, 93282, Note_on_c, 0, 63, 0
2, 93318, Note_on_c, 0, 71, 76
2, 93347, Note_on_c, 0, 71, 0
2, 93351, Note_on_c, 0, 66, 0
2, 93451, Note_on_c, 0, 88, 95
2, 93461, Note_on_c, 0, 85, 84
2, 93461, Note_on_c, 0, 73, 86
2, 93461, Note_on_c, 0, 76, 83
2, 93463, Note_on_c, 0, 68, 78
2, 93465, Note_on_c, 0, 80, 77
2, 93467, Note_on_c, 0, 64, 71
2, 93489, Note_on_c, 0, 88, 0
2, 93492, Note_on_c, 0, 73, 0
2, 93495, Note_on_c, 0, 85, 0
2, 93500, Note_on_c, 0, 80, 0
2, 93511, Note_on_c, 0, 76, 0
2, 93578, Note_on_c, 0, 61, 72
2, 93711, Note_on_c, 0, 90, 96
2, 93711, Note_on_c, 0, 78, 93
2, 93726, Note_on_c, 0, 68, 0
2, 93734, Note_on_c, 0, 64, 0
2, 93736, Note_on_c, 0, 68, 75
2, 93738, Note_on_c, 0, 64, 60
2, 93858, Note_on_c, 0, 73, 82
2, 93880, Control_c, 0, 64, 127
2, 93992, Note_on_c, 0, 88, 86
2, 93999, Note_on_c, 0, 80, 74
2, 93999, Note_on_c, 0, 76, 74
2, 94033, Note_on_c, 0, 90, 0
2, 94039, Note_on_c, 0, 73, 0
2, 94039, Note_on_c, 0, 64, 0
2, 94039, Note_on_c, 0, 61, 0
2, 94041, Control_c, 0, 64, 0
2, 94043, Note_on_c, 0, 78, 0
2, 94130, Note_on_c, 0, 85, 89
2, 94133, Note_on_c, 0, 61, 64
2, 94172, Note_on_c, 0, 80, 0
2, 94180, Note_on_c, 0, 85, 0
2, 94187, Note_on_c, 0, 88, 0
2, 94264, Note_on_c, 0, 68, 0
2, 94269, Note_on_c, 0, 68, 84
2, 94275, Note_on_c, 0, 73, 79
2, 94276, Note_on_c, 0, 64, 67
2, 94306, Note_on_c, 0, 61, 0
2, 94310, Note_on_c, 0, 76, 0
2, 94387, Note_on_c, 0, 64, 0
2, 94394, Note_on_c, 0, 73, 0
2, 94407, Note_on_c, 0, 61, 60
2, 94413, Note_on_c, 0, 83, 85
2, 94438, Note_on_c, 0, 61, 0
2, 94457, Note_on_c, 0, 83, 0
2, 94510, Note_on_c, 0, 68, 0
2, 94543, Note_on_c, 0, 85, 94
2, 94544, Note_on_c, 0, 61, 81
2, 94544, Note_on_c, 0, 69, 78
2, 94545, Note_on_c, 0, 73, 86
2, 94546, Note_on_c, 0, 64, 71
2, 94576, Note_on_c, 0, 69, 0
2, 94576, Note_on_c, 0, 61, 0
2, 94576, Note_on_c, 0, 64, 0
2, 94582, Note_on_c, 0, 85, 0
2, 94609, Note_on_c, 0, 73, 0
2, 94672, Note_on_c, 0, 57, 77
2, 94812, Note_on_c, 0, 85, 84
2, 94813, Note_on_c, 0, 64, 71
2, 94814, Note_on_c, 0, 61, 69
2, 94819, Note_on_c, 0, 73, 72
2, 94821, Note_on_c, 0, 76, 57
2, 94825, Note_on_c, 0, 69, 53
2, 94850, Note_on_c, 0, 85, 0
2, 94940, Note_on_c, 0, 64, 0
2, 94940, Note_on_c, 0, 69, 0
2, 94940, Note_on_c, 0, 73, 0
2, 94943, Note_on_c, 0, 88, 90
2, 94944, Note_on_c, 0, 69, 65
2, 94947, Note_on_c, 0, 76, 0
2, 94951, Note_on_c, 0, 64, 49
2, 94951, Note_on_c, 0, 73, 68
2, 94952, Note_on_c, 0, 76, 76
2, 94966, Note_on_c, 0, 61, 0
2, 94967, Note_on_c, 0, 57, 0
2, 94983, Note_on_c, 0, 73, 0
2, 95001, Note_on_c, 0, 69, 0
2, 95047, Note_on_c, 0, 64, 0
2, 95063, Note_on_c, 0, 76, 0
2, 95072, Note_on_c, 0, 71, 87
2, 95074, Note_on_c, 0, 66, 81
2, 95080, Note_on_c, 0, 63, 72
2, 95093, Note_on_c, 0, 88, 0
2, 95106, Note_on_c, 0, 71, 0
2, 95111, Note_on_c, 0, 66, 0
2, 95113, Note_on_c, 0, 63, 0
2, 95197, Note_on_c, 0, 88, 89
2, 95203, Note_on_c, 0, 76, 75
2, 95205, Note_on_c, 0, 59, 83
2, 95262, Note_on_c, 0, 76, 0
2, 95324, Note_on_c, 0, 88, 0
2, 95335, Note_on_c, 0, 90, 94
2, 95337, Note_on_c, 0, 78, 83
2, 95345, Note_on_c, 0, 66, 76
2, 95345, Note_on_c, 0, 63, 66
2, 95471, Note_on_c, 0, 71, 76
2, 95487, Note_on_c, 0, 59, 0
2, 95491, Note_on_c, 0, 78, 0
2, 95494, Note_on_c, 0, 90, 0
2, 95498, Note_on_c, 0, 63, 0
2, 95502, Note_on_c, 0, 66, 0
2, 95531, Note_on_c, 0, 71, 0
2, 95604, Note_on_c, 0, 85, 95
2, 95612, Note_on_c, 0, 73, 86
2, 95612, Note_on_c, 0, 64, 74
2, 95612, Note_on_c, 0, 80, 77
2, 95613, Note_on_c, 0, 68, 80
2, 95615, Note_on_c, 0, 76, 76
2, 95668, Note_on_c, 0, 68, 0
2, 95692, Note_on_c, 0, 64, 0
2, 95727, Note_on_c, 0, 61, 80
2, 95731, Control_c, 0, 64, 127
2, 95872, Note_on_c, 0, 68, 83
2, 95874, Note_on_c, 0, 64, 70
2, 95984, Note_on_c, 0, 73, 0
2, 95989, Note_on_c, 0, 73, 80
2, 96122, Note_on_c, 0, 68, 0
2, 96122, Note_on_c, 0, 76, 0
2, 96129, Note_on_c, 0, 68, 92
2, 96132, Note_on_c, 0, 76, 85
2, 96245, Note_on_c, 0, 76, 0
2, 96250, Note_on_c, 0, 76, 76
2, 96251, Note_on_c, 0, 66, 89
2, 96256, Note_on_c, 0, 83, 86
2, 96271, Note_on_c, 0, 75, 63
2, 96360, Note_on_c, 0, 73, 0
2, 96368, Note_on_c, 0, 64, 0
2, 96372, Note_on_c, 0, 73, 89
2, 96376, Note_on_c, 0, 85, 0
2, 96379, Note_on_c, 0, 64, 73
2, 96382, Note_on_c, 0, 85, 93
2, 96504, Note_on_c, 0, 63, 86
2, 96527, Note_on_c, 0, 88, 89
2, 96570, Note_on_c, 0, 80, 0
2, 96570, Note_on_c, 0, 66, 0
2, 96570, Note_on_c, 0, 75, 0
2, 96570, Note_on_c, 0, 61, 0
2, 96570, Note_on_c, 0, 68, 0
2, 96570, Note_on_c, 0, 83, 0
2, 96571, Note_on_c, 0, 85, 0
2, 96571, Note_on_c, 0, 76, 0
2, 96571, Note_on_c, 0, 64, 0
2, 96572, Note_on_c, 0, 63, 0
2, 96572, Note_on_c, 0, 88, 0
2, 96572, Control_c, 0, 64, 0
2, 96583, Note_on_c, 0, 73, 0
2, 96649, Note_on_c, 0, 92, 99
2, 96650, Note_on_c, 0, 80, 92
2, 96650, Note_on_c, 0, 69, 87
2, 96652, Note_on_c, 0, 85, 90
2, 96655, Note_on_c, 0, 61, 82
2, 96663, Note_on_c, 0, 64, 72
2, 96688, Note_on_c, 0, 69, 0
2, 96690, Note_on_c, 0, 80, 0
2, 96690, Note_on_c, 0, 85, 0
2, 96693, Note_on_c, 0, 61, 0
2, 96714, Note_on_c, 0, 64, 0
2, 96768, Note_on_c, 0, 92, 0
2, 96784, Note_on_c, 0, 57, 76
2, 96924, Note_on_c, 0, 93, 100
2, 96926, Note_on_c, 0, 64, 78
2, 96928, Note_on_c, 0, 61, 70
2, 96930, Note_on_c, 0, 81, 88
2, 97062, Note_on_c, 0, 69, 69
2, 97096, Note_on_c, 0, 64, 0
2, 97102, Note_on_c, 0, 61, 0
2, 97108, Note_on_c, 0, 57, 0
2, 97108, Note_on_c, 0, 69, 0
2, 97108, Note_on_c, 0, 93, 0
2, 97109, Note_on_c, 0, 81, 0
2, 97200, Note_on_c, 0, 90, 98
2, 97201, Note_on_c, 0, 71, 87
2, 97201, Note_on_c, 0, 78, 93
2, 97202, Note_on_c, 0, 66, 82
2, 97203, Note_on_c, 0, 87, 84
2, 97208, Note_on_c, 0, 63, 77
2, 97230, Note_on_c, 0, 71, 0
2, 97233, Note_on_c, 0, 78, 0
2, 97234, Note_on_c, 0, 87, 0
2, 97239, Note_on_c, 0, 63, 0
2, 97241, Note_on_c, 0, 66, 0
2, 97274, Note_on_c, 0, 90, 0
2, 97335, Note_on_c, 0, 59, 81
2, 97472, Note_on_c, 0, 63, 73
2, 97475, Note_on_c, 0, 66, 86
2, 97477, Note_on_c, 0, 87, 96
2, 97478, Note_on_c, 0, 75, 85
2, 97534, Note_on_c, 0, 75, 0
2, 97538, Note_on_c, 0, 87, 0
2, 97600, Note_on_c, 0, 71, 79
2, 97627, Note_on_c, 0, 63, 0
2, 97629, Note_on_c, 0, 66, 0
2, 97629, Note_on_c, 0, 71, 0
2, 97635, Note_on_c, 0, 59, 0
2, 97737, Note_on_c, 0, 88, 96
2, 97740, Note_on_c, 0, 80, 87
2, 97741, Note_on_c, 0, 76, 88
2, 97742, Note_on_c, 0, 68, 80
2, 97743, Note_on_c, 0, 73, 86
2, 97743, Note_on_c, 0, 64, 68
2, 97797, Note_on_c, 0, 64, 0
2, 97797, Note_on_c, 0, 76, 0
2, 97804, Note_on_c, 0, 73, 0
2, 97804, Note_on_c, 0, 80, 0
2, 97804, Note_on_c, 0, 88, 0
2, 97864, Note_on_c, 0, 61, 74
2, 98008, Note_on_c, 0, 90, 98
2, 98009, Note_on_c, 0, 78, 85
2, 98012, Note_on_c, 0, 68, 0
2, 98017, Note_on_c, 0, 64, 66
2, 98022, Note_on_c, 0, 68, 84
2, 98135, Note_on_c, 0, 68, 0
2, 98140, Note_on_c, 0, 68, 69
2, 98145, Note_on_c, 0, 73, 87
2, 98276, Note_on_c, 0, 88, 93
2, 98283, Note_on_c, 0, 76, 84
2, 98284, Note_on_c, 0, 80, 85
2, 98319, Note_on_c, 0, 90, 0
2, 98322, Note_on_c, 0, 64, 0
2, 98322, Note_on_c, 0, 61, 0
2, 98327, Note_on_c, 0, 78, 0
2, 98396, Note_on_c, 0, 76, 0
2, 98399, Note_on_c, 0, 61, 75
2, 98401, Note_on_c, 0, 85, 95
2, 98404, Note_on_c, 0, 76, 63
2, 98441, Note_on_c, 0, 61, 0
2, 98442, Note_on_c, 0, 80, 0
2, 98449, Note_on_c, 0, 85, 0
2, 98472, Note_on_c, 0, 88, 0
2, 98526, Note_on_c, 0, 68, 0
2, 98534, Note_on_c, 0, 73, 0
2, 98537, Note_on_c, 0, 68, 90
2, 98541, Note_on_c, 0, 73, 87
2, 98542, Note_on_c, 0, 64, 73
2, 98574, Note_on_c, 0, 76, 0
2, 98674, Note_on_c, 0, 61, 70
2, 98682, Note_on_c, 0, 83, 88
2, 98695, Note_on_c, 0, 73, 0
2, 98700, Note_on_c, 0, 61, 0
2, 98701, Note_on_c, 0, 76, 45
2, 98718, Note_on_c, 0, 64, 0
2, 98734, Note_on_c, 0, 68, 0
2, 98739, Note_on_c, 0, 83, 0
2, 98749, Note_on_c, 0, 76, 0
2, 98803, Note_on_c, 0, 85, 99
2, 98805, Note_on_c, 0, 64, 82
2, 98805, Note_on_c, 0, 61, 84
2, 98805, Note_on_c, 0, 69, 81
2, 98806, Note_on_c, 0, 73, 92
2, 98824, Note_on_c, 0, 76, 59
2, 98838, Note_on_c, 0, 64, 0
2, 98839, Note_on_c, 0, 61, 0
2, 98842, Note_on_c, 0, 69, 0
2, 98853, Note_on_c, 0, 85, 0
2, 98928, Note_on_c, 0, 57, 83
2, 98972, Note_on_c, 0, 73, 0
2, 99068, Note_on_c, 0, 61, 75
2, 99072, Note_on_c, 0, 85, 85
2, 99073, Note_on_c, 0, 64, 77
2, 99209, Note_on_c, 0, 88, 95
2, 99210, Note_on_c, 0, 76, 0
2, 99215, Note_on_c, 0, 67, 66
2, 99216, Note_on_c, 0, 76, 86
2, 99220, Note_on_c, 0, 73, 72
2, 99245, Note_on_c, 0, 64, 0
2, 99245, Note_on_c, 0, 61, 0
2, 99249, Note_on_c, 0, 57, 0
2, 99252, Note_on_c, 0, 67, 0
2, 99271, Note_on_c, 0, 85, 0
2, 99294, Note_on_c, 0, 73, 0
2, 99332, Note_on_c, 0, 71, 91
2, 99335, Note_on_c, 0, 66, 91
2, 99340, Note_on_c, 0, 76, 0
2, 99341, Note_on_c, 0, 63, 75
2, 99369, Note_on_c, 0, 71, 0
2, 99377, Note_on_c, 0, 66, 0
2, 99377, Note_on_c, 0, 63, 0
2, 99456, Note_on_c, 0, 88, 0
2, 99461, Note_on_c, 0, 88, 90
2, 99465, Note_on_c, 0, 59, 83
2, 99465, Note_on_c, 0, 76, 82
2, 99517, Note_on_c, 0, 76, 0
2, 99563, Note_on_c, 0, 88, 0
2, 99598, Note_on_c, 0, 63, 74
2, 99599, Note_on_c, 0, 90, 94
2, 99600, Note_on_c, 0, 66, 78
2, 99606, Note_on_c, 0, 78, 81
2, 99617, Control_c, 0, 64, 127
2, 99736, Note_on_c, 0, 71, 74
2, 99773, Note_on_c, 0, 59, 0
2, 99774, Note_on_c, 0, 78, 0
2, 99774, Note_on_c, 0, 63, 0
2, 99774, Note_on_c, 0, 66, 0
2, 99775, Note_on_c, 0, 71, 0
2, 99776, Note_on_c, 0, 90, 0
2, 99776, Control_c, 0, 64, 0
2, 99864, Note_on_c, 0, 85, 96
2, 99866, Note_on_c, 0, 73, 93
2, 99868, Note_on_c, 0, 64, 76
2, 99872, Note_on_c, 0, 80, 79
2, 99873, Note_on_c, 0, 76, 83
2, 99874, Note_on_c, 0, 68, 80
2, 99978, Note_on_c, 0, 68, 0
2, 99989, Note_on_c, 0, 61, 80
2, 100008, Control_c, 0, 64, 127
2, 100124, Note_on_c, 0, 64, 0
2, 100129, Note_on_c, 0, 68, 88
2, 100133, Note_on_c, 0, 64, 75
2, 100262, Note_on_c, 0, 73, 0
2, 100273, Note_on_c, 0, 73, 89
2, 100397, Note_on_c, 0, 49, 86
2, 100463, Note_on_c, 0, 54, 82
2, 100515, Note_on_c, 0, 56, 86
2, 100569, Note_on_c, 0, 61, 0
2, 100574, Note_on_c, 0, 61, 87
2, 100661, Note_on_c, 0, 66, 88
2, 100700, Note_on_c, 0, 68, 0
2, 100710, Note_on_c, 0, 68, 88
2, 100723, Note_on_c, 0, 73, 0
2, 100730, Note_on_c, 0, 73, 82
2, 100792, Note_on_c, 0, 78, 85
2, 100838, Note_on_c, 0, 80, 0
2, 100845, Note_on_c, 0, 80, 93
2, 100915, Note_on_c, 0, 73, 0
2, 100915, Note_on_c, 0, 49, 0
2, 100915, Note_on_c, 0, 61, 0
2, 100915, Note_on_c, 0, 54, 0
2, 100915, Note_on_c, 0, 80, 0
2, 100915, Note_on_c, 0, 76, 0
2, 100915, Note_on_c, 0, 56, 0
2, 100915, Note_on_c, 0, 66, 0
2, 100916, Note_on_c, 0, 64, 0
2, 100916, Note_on_c, 0, 85, 0
2, 100916, Note_on_c, 0, 78, 0
2, 100918, Control_c, 0, 64, 0
2, 100930, Note_on_c, 0, 68, 0
2, 100949, Note_on_c, 0, 33, 95
2, 100952, Note_on_c, 0, 45, 101
2, 100957, Note_on_c, 0, 76, 96
2, 100999, Control_c, 0, 64, 127
2, 101039, Note_on_c, 0, 85, 88
2, 101084, Note_on_c, 0, 76, 0
2, 101091, Note_on_c, 0, 76, 69
2, 101153, Note_on_c, 0, 85, 0
2, 101158, Note_on_c, 0, 85, 82
2, 101207, Note_on_c, 0, 76, 0
2, 101217, Note_on_c, 0, 76, 75
2, 101268, Note_on_c, 0, 85, 0
2, 101274, Note_on_c, 0, 85, 86
2, 101345, Note_on_c, 0, 76, 0
2, 101350, Note_on_c, 0, 76, 69
2, 101406, Note_on_c, 0, 85, 0
2, 101413, Note_on_c, 0, 85, 84
2, 101500, Control_c, 0, 64, 0
2, 101504, Note_on_c, 0, 47, 99
2, 101505, Note_on_c, 0, 76, 0
2, 101506, Note_on_c, 0, 35, 96
2, 101506, Note_on_c, 0, 85, 0
2, 101507, Note_on_c, 0, 78, 101
2, 101509, Note_on_c, 0, 45, 0
2, 101510, Note_on_c, 0, 75, 92
2, 101514, Note_on_c, 0, 33, 0
2, 101575, Control_c, 0, 64, 127
2, 101581, Note_on_c, 0, 83, 78
2, 101637, Note_on_c, 0, 75, 0
2, 101647, Note_on_c, 0, 75, 80
2, 101698, Note_on_c, 0, 83, 0
2, 101703, Note_on_c, 0, 83, 75
2, 101767, Note_on_c, 0, 75, 0
2, 101775, Note_on_c, 0, 78, 0
2, 101776, Note_on_c, 0, 75, 70
2, 101777, Note_on_c, 0, 71, 60
2, 101782, Note_on_c, 0, 78, 76
2, 101829, Note_on_c, 0, 83, 0
2, 101840, Note_on_c, 0, 83, 66
2, 101890, Note_on_c, 0, 75, 0
2, 101890, Note_on_c, 0, 78, 0
2, 101900, Note_on_c, 0, 78, 73
2, 101901, Note_on_c, 0, 75, 77
2, 101959, Note_on_c, 0, 83, 0
2, 101963, Note_on_c, 0, 83, 80
2, 101987, Note_on_c, 0, 71, 0
2, 101994, Control_c, 0, 64, 0
2, 102005, Note_on_c, 0, 75, 0
2, 102013, Note_on_c, 0, 35, 0
2, 102013, Note_on_c, 0, 47, 0
2, 102013, Note_on_c, 0, 78, 0
2, 102028, Note_on_c, 0, 83, 0
2, 102039, Note_on_c, 0, 49, 93
2, 102039, Note_on_c, 0, 37, 96
2, 102041, Note_on_c, 0, 85, 76
2, 102042, Note_on_c, 0, 76, 91
2, 102045, Note_on_c, 0, 73, 92
2, 102051, Note_on_c, 0, 85, 0
2, 102090, Control_c, 0, 64, 127
2, 102136, Note_on_c, 0, 80, 79
2, 102142, Note_on_c, 0, 77, 66
2, 102197, Note_on_c, 0, 73, 0
2, 102205, Note_on_c, 0, 76, 0
2, 102207, Note_on_c, 0, 73, 68
2, 102209, Note_on_c, 0, 76, 59
2, 102320, Note_on_c, 0, 73, 0
2, 102320, Note_on_c, 0, 76, 0
2, 102327, Note_on_c, 0, 61, 77
2, 102328, Note_on_c, 0, 76, 68
2, 102331, Note_on_c, 0, 73, 73
2, 102389, Note_on_c, 0, 77, 0
2, 102389, Note_on_c, 0, 80, 0
2, 102394, Note_on_c, 0, 80, 68
2, 102401, Note_on_c, 0, 77, 53
2, 102458, Note_on_c, 0, 73, 0
2, 102461, Note_on_c, 0, 63, 82
2, 102466, Note_on_c, 0, 76, 0
2, 102470, Note_on_c, 0, 73, 78
2, 102476, Note_on_c, 0, 76, 67
2, 102547, Note_on_c, 0, 75, 58
2, 102589, Note_on_c, 0, 73, 0
2, 102594, Note_on_c, 0, 64, 96
2, 102600, Note_on_c, 0, 73, 77
2, 102650, Note_on_c, 0, 76, 0
2, 102655, Note_on_c, 0, 76, 74
2, 102720, Note_on_c, 0, 63, 0
2, 102720, Note_on_c, 0, 73, 0
2, 102720, Note_on_c, 0, 75, 0
2, 102720, Note_on_c, 0, 76, 0
2, 102723, Note_on_c, 0, 76, 85
2, 102725, Note_on_c, 0, 63, 96
2, 102730, Note_on_c, 0, 73, 79
2, 102730, Note_on_c, 0, 75, 89
2, 102781, Note_on_c, 0, 75, 0
2, 102785, Note_on_c, 0, 75, 59
2, 102850, Note_on_c, 0, 61, 0
2, 102850, Note_on_c, 0, 64, 0
2, 102850, Note_on_c, 0, 73, 0
2, 102850, Note_on_c, 0, 76, 0
2, 102850, Note_on_c, 0, 80, 0
2, 102857, Note_on_c, 0, 64, 75
2, 102857, Note_on_c, 0, 76, 77
2, 102858, Note_on_c, 0, 61, 86
2, 102859, Note_on_c, 0, 80, 74
2, 102860, Note_on_c, 0, 73, 83
2, 102904, Note_on_c, 0, 80, 0
2, 102911, Note_on_c, 0, 80, 72
2, 102969, Note_on_c, 0, 59, 80
2, 102981, Note_on_c, 0, 73, 0
2, 102988, Note_on_c, 0, 76, 0
2, 102991, Note_on_c, 0, 73, 86
2, 102996, Note_on_c, 0, 76, 77
2, 103050, Note_on_c, 0, 80, 0
2, 103055, Note_on_c, 0, 80, 73
2, 103104, Note_on_c, 0, 77, 0
2, 103109, Note_on_c, 0, 49, 0
2, 103109, Note_on_c, 0, 80, 0
2, 103109, Note_on_c, 0, 61, 0
2, 103109, Note_on_c, 0, 63, 0
2, 103109, Note_on_c, 0, 59, 0
2, 103109, Note_on_c, 0, 76, 0
2, 103110, Note_on_c, 0, 64, 0
2, 103111, Control_c, 0, 64, 0
2, 103119, Note_on_c, 0, 37, 0
2, 103127, Note_on_c, 0, 73, 0
2, 103127, Note_on_c, 0, 33, 90
2, 103128, Note_on_c, 0, 45, 102
2, 103132, Note_on_c, 0, 73, 89
2, 103132, Note_on_c, 0, 69, 97
2, 103173, Note_on_c, 0, 75, 0
2, 103203, Control_c, 0, 64, 127
2, 103208, Note_on_c, 0, 78, 67
2, 103257, Note_on_c, 0, 69, 0
2, 103257, Note_on_c, 0, 73, 0
2, 103264, Note_on_c, 0, 73, 74
2, 103267, Note_on_c, 0, 69, 78
2, 103311, Note_on_c, 0, 78, 0
2, 103322, Note_on_c, 0, 78, 76
2, 103380, Note_on_c, 0, 69, 0
2, 103380, Note_on_c, 0, 73, 0
2, 103390, Note_on_c, 0, 73, 81
2, 103391, Note_on_c, 0, 69, 73
2, 103434, Note_on_c, 0, 78, 0
2, 103441, Note_on_c, 0, 78, 74
2, 103511, Note_on_c, 0, 69, 0
2, 103518, Note_on_c, 0, 73, 0
2, 103522, Note_on_c, 0, 69, 82
2, 103522, Note_on_c, 0, 73, 72
2, 103580, Note_on_c, 0, 78, 0
2, 103585, Note_on_c, 0, 78, 82
2, 103667, Control_c, 0, 64, 0
2, 103668, Note_on_c, 0, 78, 0
2, 103668, Note_on_c, 0, 47, 100
2, 103668, Note_on_c, 0, 73, 0
2, 103670, Note_on_c, 0, 35, 93
2, 103670, Note_on_c, 0, 45, 0
2, 103672, Note_on_c, 0, 69, 0
2, 103676, Note_on_c, 0, 69, 79
2, 103676, Note_on_c, 0, 75, 90
2, 103680, Note_on_c, 0, 33, 0
2, 103680, Note_on_c, 0, 71, 89
2, 103741, Note_on_c, 0, 69, 0
2, 103749, Control_c, 0, 64, 127
2, 103756, Note_on_c, 0, 80, 79
2, 103779, Note_on_c, 0, 35, 0
2, 103802, Note_on_c, 0, 71, 0
2, 103802, Note_on_c, 0, 75, 0
2, 103811, Note_on_c, 0, 71, 80
2, 103812, Note_on_c, 0, 75, 84
2, 103910, Note_on_c, 0, 71, 0
2, 103917, Note_on_c, 0, 71, 73
2, 103925, Note_on_c, 0, 75, 0
2, 103929, Note_on_c, 0, 75, 65
2, 103933, Note_on_c, 0, 78, 60
2, 103987, Note_on_c, 0, 80, 0
2, 103991, Note_on_c, 0, 80, 79
2, 104002, Note_on_c, 0, 71, 0
2, 104007, Note_on_c, 0, 71, 70
2, 104064, Note_on_c, 0, 71, 0
2, 104071, Note_on_c, 0, 75, 0
2, 104071, Note_on_c, 0, 80, 0
2, 104075, Note_on_c, 0, 71, 79
2, 104075, Note_on_c, 0, 75, 84
2, 104078, Note_on_c, 0, 80, 84
2, 104191, Note_on_c, 0, 80, 0
2, 104191, Note_on_c, 0, 75, 0
2, 104197, Control_c, 0, 64, 0
2, 104202, Note_on_c, 0, 47, 0
2, 104206, Note_on_c, 0, 49, 94
2, 104209, Note_on_c, 0, 78, 0
2, 104212, Note_on_c, 0, 64, 90
2, 104215, Note_on_c, 0, 68, 95
2, 104215, Note_on_c, 0, 37, 94
2, 104256, Control_c, 0, 64, 127
2, 104340, Note_on_c, 0, 68, 0
2, 104351, Note_on_c, 0, 68, 87
2, 104359, Note_on_c, 0, 76, 71
2, 104471, Note_on_c, 0, 68, 0
2, 104477, Note_on_c, 0, 68, 84
2, 104478, Note_on_c, 0, 49, 0
2, 104478, Note_on_c, 0, 64, 0
2, 104484, Note_on_c, 0, 64, 86
2, 104488, Note_on_c, 0, 49, 81
2, 104490, Note_on_c, 0, 61, 87
2, 104494, Note_on_c, 0, 76, 0
2, 104501, Note_on_c, 0, 76, 71
2, 104560, Note_on_c, 0, 73, 61
2, 104593, Note_on_c, 0, 68, 0
2, 104603, Note_on_c, 0, 68, 90
2, 104619, Note_on_c, 0, 56, 62
2, 104621, Note_on_c, 0, 63, 82
2, 104640, Note_on_c, 0, 61, 0
2, 104645, Note_on_c, 0, 61, 56
2, 104724, Note_on_c, 0, 68, 0
2, 104734, Note_on_c, 0, 68, 90
2, 104739, Note_on_c, 0, 64, 0
2, 104745, Note_on_c, 0, 64, 89
2, 104778, Note_on_c, 0, 61, 0
2, 104780, Note_on_c, 0, 57, 45
2, 104783, Note_on_c, 0, 61, 43
2, 104785, Note_on_c, 0, 57, 0
2, 104855, Note_on_c, 0, 68, 0
2, 104862, Note_on_c, 0, 68, 76
2, 104862, Note_on_c, 0, 63, 0
2, 104869, Note_on_c, 0, 63, 87
2, 104901, Note_on_c, 0, 73, 0
2, 104912, Note_on_c, 0, 73, 86
2, 104993, Note_on_c, 0, 61, 0
2, 105000, Note_on_c, 0, 64, 0
2, 105004, Note_on_c, 0, 61, 84
2, 105011, Note_on_c, 0, 64, 59
2, 105020, Note_on_c, 0, 80, 88
2, 105075, Note_on_c, 0, 85, 85
2, 105133, Note_on_c, 0, 59, 81
2, 105139, Note_on_c, 0, 88, 80
2, 105140, Note_on_c, 0, 87, 82
2, 105173, Note_on_c, 0, 92, 98
2, 105239, Note_on_c, 0, 37, 0
2, 105246, Note_on_c, 0, 68, 0
2, 105247, Note_on_c, 0, 59, 0
2, 105247, Note_on_c, 0, 87, 0
2, 105247, Note_on_c, 0, 73, 0
2, 105248, Note_on_c, 0, 63, 0
2, 105248, Note_on_c, 0, 85, 0
2, 105248, Note_on_c, 0, 92, 0
2, 105248, Note_on_c, 0, 80, 0
2, 105248, Control_c, 0, 64, 0
2, 105248, Note_on_c, 0, 64, 0
2, 105249, Note_on_c, 0, 88, 0
2, 105254, Note_on_c, 0, 56, 0
2, 105262, Note_on_c, 0, 61, 0
2, 105262, Note_on_c, 0, 71, 0
2, 105262, Note_on_c, 0, 76, 0
2, 105273, Note_on_c, 0, 97, 103
2, 105277, Note_on_c, 0, 49, 0
2, 105282, Note_on_c, 0, 52, 92
2, 105282, Note_on_c, 0, 49, 79
2, 105283, Note_on_c, 0, 57, 99
2, 105284, Note_on_c, 0, 45, 98
2, 105323, Control_c, 0, 64, 127
2, 105343, Note_on_c, 0, 92, 79
2, 105405, Note_on_c, 0, 88, 73
2, 105482, Note_on_c, 0, 85, 74
2, 105546, Note_on_c, 0, 85, 0
2, 105557, Note_on_c, 0, 85, 87
2, 105652, Note_on_c, 0, 80, 74
2, 105702, Note_on_c, 0, 76, 77
2, 105734, Note_on_c, 0, 73, 57
2, 105816, Control_c, 0, 64, 0
2, 105816, Note_on_c, 0, 80, 0
2, 105816, Note_on_c, 0, 92, 0
2, 105817, Note_on_c, 0, 97, 0
2, 105817, Note_on_c, 0, 52, 0
2, 105817, Note_on_c, 0, 49, 0
2, 105818, Note_on_c, 0, 76, 0
2, 105818, Note_on_c, 0, 45, 0
2, 105818, Note_on_c, 0, 73, 0
2, 105818, Note_on_c, 0, 88, 0
2, 105821, Note_on_c, 0, 57, 0
2, 105830, Note_on_c, 0, 85, 0
2, 105831, Note_on_c, 0, 95, 98
2, 105831, Note_on_c, 0, 47, 95
2, 105832, Note_on_c, 0, 59, 95
2, 105834, Note_on_c, 0, 51, 84
2, 105835, Note_on_c, 0, 54, 94
2, 105891, Control_c, 0, 64, 127
2, 105894, Note_on_c, 0, 90, 83
2, 105950, Note_on_c, 0, 87, 70
2, 106029, Note_on_c, 0, 85, 62
2, 106031, Note_on_c, 0, 83, 77
2, 106037, Note_on_c, 0, 85, 0
2, 106099, Note_on_c, 0, 83, 0
2, 106105, Note_on_c, 0, 83, 86
2, 106180, Note_on_c, 0, 78, 72
2, 106251, Note_on_c, 0, 75, 81
2, 106263, Note_on_c, 0, 71, 72
2, 106341, Note_on_c, 0, 54, 0
2, 106341, Control_c, 0, 64, 0
2, 106341, Note_on_c, 0, 78, 0
2, 106341, Note_on_c, 0, 47, 0
2, 106341, Note_on_c, 0, 90, 0
2, 106341, Note_on_c, 0, 75, 0
2, 106341, Note_on_c, 0, 51, 0
2, 106341, Note_on_c, 0, 83, 0
2, 106342, Note_on_c, 0, 71, 0
2, 106342, Note_on_c, 0, 87, 0
2, 106343, Note_on_c, 0, 59, 0
2, 106344, Note_on_c, 0, 95, 0
2, 106381, Note_on_c, 0, 92, 105
2, 106384, Note_on_c, 0, 61, 93
2, 106386, Note_on_c, 0, 56, 96
2, 106387, Note_on_c, 0, 49, 84
2, 106388, Note_on_c, 0, 52, 88
2, 106419, Note_on_c, 0, 61, 0
2, 106429, Control_c, 0, 64, 127
2, 106455, Note_on_c, 0, 88, 78
2, 106517, Note_on_c, 0, 85, 84
2, 106568, Note_on_c, 0, 80, 83
2, 106657, Note_on_c, 0, 77, 68
2, 106659, Note_on_c, 0, 61, 78
2, 106667, Note_on_c, 0, 77, 0
2, 106679, Note_on_c, 0, 76, 70
2, 106733, Note_on_c, 0, 73, 67
2, 106806, Note_on_c, 0, 63, 83
2, 106824, Note_on_c, 0, 68, 77
2, 106890, Note_on_c, 0, 73, 0
2, 106894, Note_on_c, 0, 73, 77
2, 106938, Note_on_c, 0, 64, 91
2, 106951, Note_on_c, 0, 76, 0
2, 106957, Note_on_c, 0, 76, 71
2, 107028, Note_on_c, 0, 80, 0
2, 107033, Note_on_c, 0, 80, 83
2, 107051, Note_on_c, 0, 63, 0
2, 107062, Note_on_c, 0, 63, 91
2, 107082, Note_on_c, 0, 85, 0
2, 107092, Note_on_c, 0, 85, 84
2, 107143, Note_on_c, 0, 88, 0
2, 107155, Note_on_c, 0, 88, 31
2, 107182, Note_on_c, 0, 92, 0
2, 107189, Note_on_c, 0, 61, 0
2, 107193, Note_on_c, 0, 92, 103
2, 107201, Note_on_c, 0, 61, 83
2, 107251, Note_on_c, 0, 88, 0
2, 107256, Note_on_c, 0, 88, 62
2, 107312, Note_on_c, 0, 85, 0
2, 107323, Note_on_c, 0, 85, 85
2, 107325, Note_on_c, 0, 59, 75
2, 107366, Note_on_c, 0, 80, 0
2, 107370, Note_on_c, 0, 80, 64
2, 107432, Note_on_c, 0, 92, 0
2, 107432, Control_c, 0, 64, 0
2, 107432, Note_on_c, 0, 61, 0
2, 107432, Note_on_c, 0, 68, 0
2, 107433, Note_on_c, 0, 73, 0
2, 107433, Note_on_c, 0, 80, 0
2, 107433, Note_on_c, 0, 88, 0
2, 107433, Note_on_c, 0, 56, 0
2, 107433, Note_on_c, 0, 59, 0
2, 107433, Note_on_c, 0, 63, 0
2, 107433, Note_on_c, 0, 64, 0
2, 107433, Note_on_c, 0, 76, 0
2, 107433, Note_on_c, 0, 85, 0
2, 107435, Note_on_c, 0, 49, 0
2, 107458, Note_on_c, 0, 52, 0
2, 107459, Note_on_c, 0, 90, 106
2, 107468, Note_on_c, 0, 52, 85
2, 107469, Note_on_c, 0, 57, 94
2, 107470, Note_on_c, 0, 49, 81
2, 107473, Note_on_c, 0, 45, 87
2, 107496, Control_c, 0, 64, 127
2, 107523, Note_on_c, 0, 85, 83
2, 107584, Note_on_c, 0, 81, 76
2, 107642, Note_on_c, 0, 78, 72
2, 107727, Note_on_c, 0, 78, 0
2, 107732, Note_on_c, 0, 78, 77
2, 107807, Note_on_c, 0, 73, 74
2, 107856, Note_on_c, 0, 69, 61
2, 107920, Note_on_c, 0, 66, 51
2, 107978, Note_on_c, 0, 81, 0
2, 107978, Note_on_c, 0, 69, 0
2, 107978, Note_on_c, 0, 45, 0
2, 107978, Note_on_c, 0, 78, 0
2, 107978, Note_on_c, 0, 85, 0
2, 107978, Note_on_c, 0, 52, 0
2, 107979, Note_on_c, 0, 73, 0
2, 107979, Control_c, 0, 64, 0
2, 107980, Note_on_c, 0, 57, 0
2, 107988, Note_on_c, 0, 49, 0
2, 107997, Note_on_c, 0, 51, 92
2, 107999, Note_on_c, 0, 47, 92
2, 108000, Note_on_c, 0, 92, 103
2, 108003, Note_on_c, 0, 90, 0
2, 108006, Note_on_c, 0, 54, 88
2, 108034, Note_on_c, 0, 66, 0
2, 108061, Note_on_c, 0, 87, 73
2, 108072, Control_c, 0, 64, 127
2, 108133, Note_on_c, 0, 83, 70
2, 108197, Note_on_c, 0, 80, 66
2, 108280, Note_on_c, 0, 80, 0
2, 108291, Note_on_c, 0, 80, 75
2, 108355, Note_on_c, 0, 75, 74
2, 108422, Note_on_c, 0, 71, 67
2, 108452, Note_on_c, 0, 68, 69
2, 108506, Control_c, 0, 64, 0
2, 108507, Note_on_c, 0, 47, 0
2, 108508, Note_on_c, 0, 80, 0
2, 108508, Note_on_c, 0, 83, 0
2, 108508, Note_on_c, 0, 71, 0
2, 108508, Note_on_c, 0, 54, 0
2, 108508, Note_on_c, 0, 68, 0
2, 108508, Note_on_c, 0, 92, 0
2, 108508, Note_on_c, 0, 87, 0
2, 108509, Note_on_c, 0, 51, 0
2, 108509, Note_on_c, 0, 75, 0
2, 108557, Note_on_c, 0, 85, 94
2, 108561, Note_on_c, 0, 56, 83
2, 108561, Note_on_c, 0, 61, 84
2, 108565, Note_on_c, 0, 49, 77
2, 108566, Note_on_c, 0, 52, 71
2, 108595, Control_c, 0, 64, 127
2, 108626, Note_on_c, 0, 80, 81
2, 108691, Note_on_c, 0, 76, 68
2, 108774, Note_on_c, 0, 73, 72
2, 108825, Note_on_c, 0, 61, 0
2, 108825, Note_on_c, 0, 76, 0
2, 108832, Note_on_c, 0, 76, 66
2, 108836, Note_on_c, 0, 61, 67
2, 108871, Note_on_c, 0, 80, 0
2, 108876, Note_on_c, 0, 80, 73
2, 108948, Note_on_c, 0, 85, 0
2, 108952, Note_on_c, 0, 64, 75
2, 108955, Note_on_c, 0, 85, 72
2, 109010, Note_on_c, 0, 88, 80
2, 109050, Note_on_c, 0, 68, 72
2, 109054, Note_on_c, 0, 92, 77
2, 109102, Note_on_c, 0, 73, 0
2, 109112, Note_on_c, 0, 73, 87
2, 109114, Note_on_c, 0, 97, 99
2, 109136, Control_c, 0, 64, 0
2, 109139, Note_on_c, 0, 80, 0
2, 109141, Note_on_c, 0, 88, 0
2, 109141, Note_on_c, 0, 76, 0
2, 109142, Note_on_c, 0, 85, 0
2, 109142, Note_on_c, 0, 49, 0
2, 109142, Note_on_c, 0, 56, 0
2, 109142, Note_on_c, 0, 68, 0
2, 109143, Note_on_c, 0, 61, 0
2, 109143, Note_on_c, 0, 52, 0
2, 109155, Note_on_c, 0, 64, 0
2, 109240, Note_on_c, 0, 92, 0
2, 109378, Note_on_c, 0, 73, 0
2, 109378, Note_on_c, 0, 97, 0
2, 109713, Note_on_c, 0, 93, 83
2, 109713, Note_on_c, 0, 60, 53
2, 109740, Note_on_c, 0, 87, 61
2, 109742, Note_on_c, 0, 81, 55
2, 109747, Note_on_c, 0, 84, 47
2, 109754, Note_on_c, 0, 84, 0
2, 109754, Control_c, 0, 64, 127
2, 109870, Note_on_c, 0, 68, 54
2, 110013, Note_on_c, 0, 75, 54
2, 110016, Note_on_c, 0, 72, 51
2, 110138, Note_on_c, 0, 68, 0
2, 110144, Note_on_c, 0, 68, 50
2, 110277, Note_on_c, 0, 75, 0
2, 110281, Note_on_c, 0, 78, 63
2, 110282, Note_on_c, 0, 75, 55
2, 110407, Note_on_c, 0, 68, 0
2, 110418, Note_on_c, 0, 68, 54
2, 110545, Note_on_c, 0, 93, 0
2, 110551, Note_on_c, 0, 93, 77
2, 110561, Note_on_c, 0, 72, 0
2, 110561, Note_on_c, 0, 81, 0
2, 110568, Note_on_c, 0, 72, 58
2, 110568, Note_on_c, 0, 87, 0
2, 110570, Note_on_c, 0, 81, 65
2, 110573, Note_on_c, 0, 87, 51
2, 110699, Note_on_c, 0, 68, 0
2, 110703, Note_on_c, 0, 68, 55
2, 110806, Note_on_c, 0, 68, 0
2, 110806, Note_on_c, 0, 93, 0
2, 110807, Note_on_c, 0, 78, 0
2, 110808, Note_on_c, 0, 87, 0
2, 110808, Note_on_c, 0, 81, 0
2, 110808, Note_on_c, 0, 72, 0
2, 110809, Note_on_c, 0, 60, 0
2, 110809, Control_c, 0, 64, 0
2, 110809, Note_on_c, 0, 75, 0
2, 110828, Note_on_c, 0, 92, 84
2, 110840, Note_on_c, 0, 61, 59
2, 110846, Note_on_c, 0, 80, 64
2, 110862, Note_on_c, 0, 88, 53
2, 110863, Note_on_c, 0, 85, 60
2, 110937, Control_c, 0, 64, 127
2, 110978, Note_on_c, 0, 68, 53
2, 111108, Note_on_c, 0, 76, 66
2, 111142, Note_on_c, 0, 73, 45
2, 111237, Note_on_c, 0, 68, 0
2, 111243, Note_on_c, 0, 68, 48
2, 111383, Note_on_c, 0, 76, 0
2, 111383, Note_on_c, 0, 80, 0
2, 111389, Note_on_c, 0, 80, 76
2, 111394, Note_on_c, 0, 76, 47
2, 111513, Note_on_c, 0, 68, 0
2, 111523, Note_on_c, 0, 68, 54
2, 111644, Note_on_c, 0, 92, 0
2, 111655, Note_on_c, 0, 92, 83
2, 111659, Note_on_c, 0, 73, 0
2, 111659, Note_on_c, 0, 80, 0
2, 111668, Note_on_c, 0, 80, 63
2, 111670, Note_on_c, 0, 73, 56
2, 111674, Note_on_c, 0, 85, 0
2, 111685, Note_on_c, 0, 85, 48
2, 111790, Note_on_c, 0, 68, 0
2, 111797, Note_on_c, 0, 68, 64
2, 111915, Note_on_c, 0, 68, 0
2, 111916, Note_on_c, 0, 85, 0
2, 111916, Note_on_c, 0, 88, 0
2, 111916, Control_c, 0, 64, 0
2, 111916, Note_on_c, 0, 61, 0
2, 111928, Note_on_c, 0, 73, 0
2, 111936, Note_on_c, 0, 76, 0
2, 111936, Note_on_c, 0, 80, 0
2, 111936, Note_on_c, 0, 92, 0
2, 111938, Note_on_c, 0, 84, 71
2, 111939, Note_on_c, 0, 78, 64
2, 111940, Note_on_c, 0, 60, 58
2, 112005, Control_c, 0, 64, 127
2, 112076, Note_on_c, 0, 90, 74
2, 112078, Note_on_c, 0, 72, 54
2, 112208, Note_on_c, 0, 87, 69
2, 112209, Note_on_c, 0, 68, 67
2, 112335, Note_on_c, 0, 84, 0
2, 112340, Note_on_c, 0, 84, 71
2, 112348, Note_on_c, 0, 63, 52
2, 112439, Control_c, 0, 64, 0
2, 112441, Note_on_c, 0, 68, 0
2, 112441, Note_on_c, 0, 78, 0
2, 112443, Note_on_c, 0, 90, 0
2, 112443, Note_on_c, 0, 60, 0
2, 112443, Note_on_c, 0, 63, 0
2, 112465, Note_on_c, 0, 87, 0
2, 112470, Note_on_c, 0, 56, 69
2, 112471, Note_on_c, 0, 87, 73
2, 112488, Note_on_c, 0, 72, 0
2, 112519, Control_c, 0, 64, 127
2, 112550, Note_on_c, 0, 56, 0
2, 112600, Note_on_c, 0, 63, 60
2, 112601, Note_on_c, 0, 78, 63
2, 112742, Note_on_c, 0, 87, 0
2, 112746, Note_on_c, 0, 90, 76
2, 112747, Note_on_c, 0, 72, 60
2, 112751, Note_on_c, 0, 87, 70
2, 112757, Note_on_c, 0, 84, 0
2, 112865, Note_on_c, 0, 78, 0
2, 112872, Note_on_c, 0, 63, 0
2, 112875, Note_on_c, 0, 78, 66
2, 112877, Note_on_c, 0, 63, 61
2, 112981, Note_on_c, 0, 90, 0
2, 112982, Control_c, 0, 64, 0
2, 112983, Note_on_c, 0, 78, 0
2, 112983, Note_on_c, 0, 72, 0
2, 112983, Note_on_c, 0, 63, 0
2, 112984, Note_on_c, 0, 87, 0
2, 113015, Note_on_c, 0, 88, 80
2, 113019, Note_on_c, 0, 61, 66
2, 113023, Note_on_c, 0, 85, 72
2, 113080, Control_c, 0, 64, 127
2, 113146, Note_on_c, 0, 68, 66
2, 113147, Note_on_c, 0, 80, 67
2, 113276, Note_on_c, 0, 90, 84
2, 113287, Note_on_c, 0, 85, 0
2, 113291, Note_on_c, 0, 73, 61
2, 113298, Note_on_c, 0, 85, 77
2, 113410, Note_on_c, 0, 68, 0
2, 113410, Note_on_c, 0, 80, 0
2, 113416, Note_on_c, 0, 80, 68
2, 113420, Note_on_c, 0, 68, 65
2, 113456, Note_on_c, 0, 61, 0
2, 113460, Note_on_c, 0, 61, 30
2, 113527, Note_on_c, 0, 90, 0
2, 113528, Note_on_c, 0, 85, 0
2, 113528, Note_on_c, 0, 88, 0
2, 113528, Note_on_c, 0, 68, 0
2, 113528, Note_on_c, 0, 73, 0
2, 113529, Note_on_c, 0, 80, 0
2, 113529, Note_on_c, 0, 61, 0
2, 113530, Control_c, 0, 64, 0
2, 113559, Note_on_c, 0, 92, 92
2, 113565, Note_on_c, 0, 83, 77
2, 113565, Note_on_c, 0, 59, 72
2, 113625, Control_c, 0, 64, 127
2, 113685, Note_on_c, 0, 68, 71
2, 113689, Note_on_c, 0, 80, 71
2, 113690, Note_on_c, 0, 71, 55
2, 113694, Note_on_c, 0, 71, 0
2, 113825, Note_on_c, 0, 83, 0
2, 113832, Note_on_c, 0, 83, 81
2, 113832, Note_on_c, 0, 59, 0
2, 113834, Note_on_c, 0, 88, 83
2, 113835, Note_on_c, 0, 71, 66
2, 113838, Note_on_c, 0, 59, 57
2, 113955, Note_on_c, 0, 68, 0
2, 113955, Note_on_c, 0, 80, 0
2, 113960, Note_on_c, 0, 80, 70
2, 113960, Note_on_c, 0, 68, 67
2, 114059, Note_on_c, 0, 92, 0
2, 114059, Note_on_c, 0, 68, 0
2, 114059, Note_on_c, 0, 71, 0
2, 114060, Control_c, 0, 64, 0
2, 114060, Note_on_c, 0, 83, 0
2, 114061, Note_on_c, 0, 59, 0
2, 114061, Note_on_c, 0, 80, 0
2, 114094, Note_on_c, 0, 88, 0
2, 114104, Note_on_c, 0, 88, 88
2, 114106, Note_on_c, 0, 69, 65
2, 114110, Note_on_c, 0, 57, 69
2, 114111, Note_on_c, 0, 81, 76
2, 114113, Note_on_c, 0, 85, 79
2, 114170, Control_c, 0, 64, 127
2, 114236, Note_on_c, 0, 64, 66
2, 114378, Note_on_c, 0, 69, 0
2, 114378, Note_on_c, 0, 81, 0
2, 114384, Note_on_c, 0, 69, 70
2, 114386, Note_on_c, 0, 81, 59
2, 114398, Note_on_c, 0, 76, 53
2, 114531, Note_on_c, 0, 64, 0
2, 114540, Note_on_c, 0, 64, 65
2, 114654, Note_on_c, 0, 81, 0
2, 114658, Note_on_c, 0, 73, 71
2, 114659, Note_on_c, 0, 81, 66
2, 114662, Note_on_c, 0, 69, 0
2, 114670, Note_on_c, 0, 69, 41
2, 114777, Note_on_c, 0, 64, 0
2, 114785, Note_on_c, 0, 64, 67
2, 114931, Note_on_c, 0, 81, 0
2, 114931, Note_on_c, 0, 88, 0
2, 114935, Note_on_c, 0, 88, 74
2, 114938, Note_on_c, 0, 69, 0
2, 114942, Note_on_c, 0, 81, 75
2, 114945, Note_on_c, 0, 69, 68
2, 115069, Note_on_c, 0, 64, 0
2, 115079, Note_on_c, 0, 64, 67
2, 115163, Control_c, 0, 64, 0
2, 115165, Note_on_c, 0, 69, 0
2, 115165, Note_on_c, 0, 73, 0
2, 115166, Note_on_c, 0, 85, 0
2, 115166, Note_on_c, 0, 57, 0
2, 115166, Note_on_c, 0, 76, 0
2, 115168, Note_on_c, 0, 64, 0
2, 115184, Note_on_c, 0, 81, 0
2, 115209, Note_on_c, 0, 95, 89
2, 115219, Note_on_c, 0, 56, 72
2, 115223, Note_on_c, 0, 88, 0
2, 115227, Note_on_c, 0, 88, 70
2, 115228, Note_on_c, 0, 83, 68
2, 115269, Control_c, 0, 64, 127
2, 115342, Note_on_c, 0, 64, 61
2, 115488, Note_on_c, 0, 76, 70
2, 115488, Note_on_c, 0, 68, 63
2, 115607, Note_on_c, 0, 64, 0
2, 115613, Note_on_c, 0, 64, 57
2, 115757, Note_on_c, 0, 80, 79
2, 115765, Note_on_c, 0, 71, 70
2, 115891, Note_on_c, 0, 64, 0
2, 115895, Note_on_c, 0, 64, 68
2, 116021, Note_on_c, 0, 95, 0
2, 116027, Note_on_c, 0, 95, 84
2, 116029, Note_on_c, 0, 68, 0
2, 116029, Note_on_c, 0, 83, 0
2, 116029, Note_on_c, 0, 88, 0
2, 116034, Note_on_c, 0, 88, 76
2, 116036, Note_on_c, 0, 83, 77
2, 116039, Note_on_c, 0, 68, 65
2, 116144, Note_on_c, 0, 64, 0
2, 116149, Note_on_c, 0, 64, 54
2, 116271, Control_c, 0, 64, 0
2, 116276, Note_on_c, 0, 80, 0
2, 116276, Note_on_c, 0, 83, 0
2, 116276, Note_on_c, 0, 71, 0
2, 116277, Note_on_c, 0, 95, 0
2, 116277, Note_on_c, 0, 76, 0
2, 116277, Note_on_c, 0, 64, 0
2, 116282, Note_on_c, 0, 56, 0
2, 116290, Note_on_c, 0, 68, 0
2, 116294, Note_on_c, 0, 97, 92
2, 116305, Note_on_c, 0, 88, 0
2, 116310, Note_on_c, 0, 85, 85
2, 116310, Note_on_c, 0, 88, 75
2, 116311, Note_on_c, 0, 55, 67
2, 116317, Note_on_c, 0, 91, 76
2, 116375, Control_c, 0, 64, 127
2, 116434, Note_on_c, 0, 64, 63
2, 116574, Note_on_c, 0, 85, 0
2, 116574, Note_on_c, 0, 97, 0
2, 116583, Note_on_c, 0, 97, 86
2, 116586, Note_on_c, 0, 85, 93
2, 116589, Note_on_c, 0, 67, 65
2, 116712, Note_on_c, 0, 64, 0
2, 116717, Note_on_c, 0, 64, 67
2, 116849, Note_on_c, 0, 94, 89
2, 116851, Note_on_c, 0, 85, 0
2, 116851, Note_on_c, 0, 88, 0
2, 116854, Note_on_c, 0, 82, 83
2, 116857, Note_on_c, 0, 88, 72
2, 116858, Note_on_c, 0, 70, 64
2, 116859, Note_on_c, 0, 85, 79
2, 116981, Note_on_c, 0, 64, 0
2, 116993, Note_on_c, 0, 64, 69
2, 117127, Note_on_c, 0, 94, 0
2, 117135, Note_on_c, 0, 67, 0
2, 117135, Note_on_c, 0, 82, 0
2, 117138, Note_on_c, 0, 94, 93
2, 117141, Note_on_c, 0, 67, 74
2, 117144, Note_on_c, 0, 82, 83
2, 117265, Note_on_c, 0, 64, 0
2, 117277, Note_on_c, 0, 64, 62
2, 117387, Note_on_c, 0, 97, 0
2, 117387, Note_on_c, 0, 94, 0
2, 117388, Note_on_c, 0, 91, 0
2, 117388, Note_on_c, 0, 70, 0
2, 117389, Note_on_c, 0, 82, 0
2, 117389, Note_on_c, 0, 55, 0
2, 117390, Note_on_c, 0, 88, 0
2, 117391, Note_on_c, 0, 67, 0
2, 117391, Note_on_c, 0, 64, 0
2, 117391, Control_c, 0, 64, 0
2, 117415, Note_on_c, 0, 92, 94
2, 117419, Note_on_c, 0, 68, 81
2, 117423, Note_on_c, 0, 80, 78
2, 117427, Note_on_c, 0, 68, 0
2, 117427, Note_on_c, 0, 85, 0
2, 117430, Note_on_c, 0, 87, 79
2, 117431, Note_on_c, 0, 85, 77
2, 117431, Note_on_c, 0, 56, 74
2, 117527, Control_c, 0, 64, 127
2, 117565, Note_on_c, 0, 63, 60
2, 117690, Note_on_c, 0, 68, 72
2, 117828, Note_on_c, 0, 73, 65
2, 117960, Note_on_c, 0, 75, 65
2, 118080, Note_on_c, 0, 68, 0
2, 118088, Note_on_c, 0, 68, 69
2, 118210, Note_on_c, 0, 73, 0
2, 118218, Note_on_c, 0, 73, 64
2, 118356, Note_on_c, 0, 75, 0
2, 118362, Note_on_c, 0, 75, 66
2, 118479, Note_on_c, 0, 80, 0
2, 118488, Note_on_c, 0, 80, 73
2, 118617, Note_on_c, 0, 75, 0
2, 118627, Note_on_c, 0, 75, 63
2, 118748, Note_on_c, 0, 80, 0
2, 118758, Note_on_c, 0, 80, 76
2, 118886, Note_on_c, 0, 85, 0
2, 118890, Note_on_c, 0, 85, 76
2, 119024, Note_on_c, 0, 87, 0
2, 119035, Note_on_c, 0, 87, 72
2, 119170, Note_on_c, 0, 80, 0
2, 119174, Note_on_c, 0, 80, 68
2, 119293, Note_on_c, 0, 92, 0
2, 119300, Note_on_c, 0, 92, 78
2, 119301, Note_on_c, 0, 87, 0
2, 119312, Note_on_c, 0, 87, 72
2, 119362, Note_on_c, 0, 93, 85
2, 119439, Note_on_c, 0, 92, 0
2, 119449, Note_on_c, 0, 92, 78
2, 119491, Note_on_c, 0, 90, 80
2, 119561, Control_c, 0, 64, 0
2, 119564, Note_on_c, 0, 68, 0
2, 119564, Note_on_c, 0, 73, 0
2, 119565, Note_on_c, 0, 80, 0
2, 119565, Note_on_c, 0, 85, 0
2, 119565, Note_on_c, 0, 63, 0
2, 119566, Note_on_c, 0, 56, 0
2, 119577, Note_on_c, 0, 93, 0
2, 119585, Note_on_c, 0, 87, 0
2, 119585, Note_on_c, 0, 92, 0
2, 119590, Note_on_c, 0, 92, 83
2, 119592, Note_on_c, 0, 75, 0
2, 119594, Note_on_c, 0, 68, 78
2, 119596, Note_on_c, 0, 84, 75
2, 119596, Note_on_c, 0, 87, 80
2, 119597, Note_on_c, 0, 75, 74
2, 119599, Note_on_c, 0, 80, 73
2, 119700, Note_on_c, 0, 90, 0
2, 119715, Control_c, 0, 64, 127
2, 119854, Note_on_c, 0, 87, 0
2, 119865, Note_on_c, 0, 87, 62
2, 119877, Note_on_c, 0, 84, 0
2, 119887, Note_on_c, 0, 84, 60
2, 119946, Note_on_c, 0, 92, 0
2, 119956, Note_on_c, 0, 92, 64
2, 119992, Note_on_c, 0, 84, 0
2, 119992, Note_on_c, 0, 87, 0
2, 119997, Note_on_c, 0, 84, 68
2, 120003, Note_on_c, 0, 87, 62
2, 120069, Note_on_c, 0, 92, 0
2, 120073, Note_on_c, 0, 92, 69
2, 120130, Note_on_c, 0, 84, 0
2, 120138, Note_on_c, 0, 87, 0
2, 120140, Note_on_c, 0, 84, 68
2, 120142, Note_on_c, 0, 87, 59
2, 120192, Note_on_c, 0, 92, 0
2, 120198, Note_on_c, 0, 92, 73
2, 120261, Note_on_c, 0, 84, 0
2, 120261, Note_on_c, 0, 87, 0
2, 120266, Note_on_c, 0, 87, 62
2, 120272, Note_on_c, 0, 84, 62
2, 120330, Note_on_c, 0, 92, 0
2, 120336, Note_on_c, 0, 92, 56
2, 120391, Note_on_c, 0, 84, 0
2, 120391, Note_on_c, 0, 87, 0
2, 120398, Note_on_c, 0, 84, 62
2, 120399, Note_on_c, 0, 87, 68
2, 120453, Note_on_c, 0, 92, 0
2, 120464, Note_on_c, 0, 92, 67
2, 120529, Note_on_c, 0, 84, 0
2, 120529, Note_on_c, 0, 87, 0
2, 120538, Note_on_c, 0, 87, 58
2, 120540, Note_on_c, 0, 84, 59
2, 120576, Note_on_c, 0, 92, 0
2, 120586, Note_on_c, 0, 92, 67
2, 120660, Note_on_c, 0, 87, 0
2, 120666, Note_on_c, 0, 87, 64
2, 120675, Note_on_c, 0, 84, 0
2, 120683, Note_on_c, 0, 84, 58
2, 120737, Note_on_c, 0, 92, 0
2, 120745, Note_on_c, 0, 92, 57
2, 120806, Note_on_c, 0, 84, 0
2, 120806, Note_on_c, 0, 87, 0
2, 120814, Note_on_c, 0, 87, 63
2, 120816, Note_on_c, 0, 84, 63
2, 120867, Note_on_c, 0, 92, 0
2, 120878, Note_on_c, 0, 92, 65
2, 120944, Note_on_c, 0, 87, 0
2, 120952, Note_on_c, 0, 84, 0
2, 120955, Note_on_c, 0, 87, 64
2, 120959, Note_on_c, 0, 84, 60
2, 121021, Note_on_c, 0, 92, 0
2, 121030, Note_on_c, 0, 92, 60
2, 121082, Note_on_c, 0, 84, 0
2, 121082, Note_on_c, 0, 87, 0
2, 121090, Note_on_c, 0, 87, 67
2, 121092, Note_on_c, 0, 84, 66
2, 121152, Note_on_c, 0, 92, 0
2, 121160, Note_on_c, 0, 92, 61
2, 121221, Note_on_c, 0, 84, 0
2, 121221, Note_on_c, 0, 87, 0
2, 121225, Note_on_c, 0, 87, 67
2, 121231, Note_on_c, 0, 84, 56
2, 121290, Note_on_c, 0, 92, 0
2, 121294, Note_on_c, 0, 92, 63
2, 121344, Note_on_c, 0, 84, 0
2, 121344, Note_on_c, 0, 87, 0
2, 121348, Note_on_c, 0, 87, 70
2, 121349, Note_on_c, 0, 84, 61
2, 121420, Note_on_c, 0, 92, 0
2, 121430, Note_on_c, 0, 92, 61
2, 121489, Note_on_c, 0, 84, 0
2, 121489, Note_on_c, 0, 87, 0
2, 121500, Note_on_c, 0, 87, 55
2, 121500, Note_on_c, 0, 84, 60
2, 121536, Note_on_c, 0, 92, 0
2, 121545, Note_on_c, 0, 92, 69
2, 121605, Note_on_c, 0, 84, 0
2, 121605, Note_on_c, 0, 87, 0
2, 121610, Note_on_c, 0, 84, 65
2, 121610, Note_on_c, 0, 87, 64
2, 121674, Note_on_c, 0, 92, 0
2, 121682, Note_on_c, 0, 92, 73
2, 121747, Note_on_c, 0, 84, 0
2, 121747, Note_on_c, 0, 92, 0
2, 121749, Note_on_c, 0, 68, 0
2, 121749, Note_on_c, 0, 87, 0
2, 121750, Note_on_c, 0, 80, 0
2, 121751, Note_on_c, 0, 75, 0
2, 121751, Note_on_c, 0, 69, 66
2, 121754, Control_c, 0, 64, 0
2, 121757, Note_on_c, 0, 64, 64
2, 121760, Note_on_c, 0, 85, 67
2, 121762, Note_on_c, 0, 61, 58
2, 121765, Note_on_c, 0, 57, 56
2, 121787, Note_on_c, 0, 88, 50
2, 121843, Note_on_c, 0, 85, 0
2, 121866, Control_c, 0, 64, 127
2, 121889, Note_on_c, 0, 88, 0
2, 121893, Note_on_c, 0, 85, 61
2, 121893, Note_on_c, 0, 88, 56
2, 121950, Note_on_c, 0, 92, 68
2, 122019, Note_on_c, 0, 85, 0
2, 122019, Note_on_c, 0, 88, 0
2, 122026, Note_on_c, 0, 88, 61
2, 122030, Note_on_c, 0, 85, 63
2, 122104, Note_on_c, 0, 92, 0
2, 122108, Note_on_c, 0, 92, 61
2, 122165, Note_on_c, 0, 85, 0
2, 122165, Note_on_c, 0, 88, 0
2, 122172, Note_on_c, 0, 85, 65
2, 122176, Note_on_c, 0, 88, 52
2, 122227, Note_on_c, 0, 92, 0
2, 122237, Note_on_c, 0, 92, 66
2, 122313, Note_on_c, 0, 61, 0
2, 122314, Note_on_c, 0, 92, 0
2, 122314, Note_on_c, 0, 57, 0
2, 122314, Note_on_c, 0, 64, 0
2, 122319, Note_on_c, 0, 85, 0
2, 122319, Note_on_c, 0, 88, 0
2, 122320, Control_c, 0, 64, 0
2, 122321, Note_on_c, 0, 66, 74
2, 122322, Note_on_c, 0, 63, 64
2, 122323, Note_on_c, 0, 85, 67
2, 122323, Note_on_c, 0, 88, 59
2, 122326, Note_on_c, 0, 59, 65
2, 122334, Note_on_c, 0, 69, 0
2, 122389, Note_on_c, 0, 92, 66
2, 122411, Control_c, 0, 64, 127
2, 122419, Note_on_c, 0, 88, 0
2, 122465, Note_on_c, 0, 85, 0
2, 122469, Note_on_c, 0, 85, 61
2, 122470, Note_on_c, 0, 88, 59
2, 122519, Note_on_c, 0, 92, 0
2, 122524, Note_on_c, 0, 92, 68
2, 122603, Note_on_c, 0, 85, 0
2, 122603, Note_on_c, 0, 88, 0
2, 122608, Note_on_c, 0, 85, 64
2, 122612, Note_on_c, 0, 88, 57
2, 122657, Note_on_c, 0, 92, 0
2, 122667, Note_on_c, 0, 92, 71
2, 122741, Note_on_c, 0, 85, 0
2, 122741, Note_on_c, 0, 88, 0
2, 122745, Note_on_c, 0, 88, 56
2, 122745, Note_on_c, 0, 85, 67
2, 122803, Note_on_c, 0, 92, 0
2, 122811, Note_on_c, 0, 92, 70
2, 122852, Control_c, 0, 64, 0
2, 122853, Note_on_c, 0, 59, 0
2, 122853, Note_on_c, 0, 66, 0
2, 122854, Note_on_c, 0, 63, 0
2, 122880, Note_on_c, 0, 85, 0
2, 122880, Note_on_c, 0, 88, 0
2, 122884, Note_on_c, 0, 68, 69
2, 122885, Note_on_c, 0, 85, 67
2, 122886, Note_on_c, 0, 61, 72
2, 122887, Note_on_c, 0, 64, 67
2, 122888, Note_on_c, 0, 88, 64
2, 122924, Note_on_c, 0, 85, 0
2, 122949, Note_on_c, 0, 92, 0
2, 122953, Note_on_c, 0, 92, 71
2, 123010, Control_c, 0, 64, 127
2, 123018, Note_on_c, 0, 88, 0
2, 123026, Note_on_c, 0, 85, 66
2, 123026, Note_on_c, 0, 88, 55
2, 123087, Note_on_c, 0, 92, 0
2, 123093, Note_on_c, 0, 92, 68
2, 123156, Note_on_c, 0, 85, 0
2, 123156, Note_on_c, 0, 88, 0
2, 123167, Note_on_c, 0, 85, 70
2, 123167, Note_on_c, 0, 88, 63
2, 123225, Note_on_c, 0, 92, 0
2, 123234, Note_on_c, 0, 92, 69
2, 123294, Note_on_c, 0, 85, 0
2, 123302, Note_on_c, 0, 88, 0
2, 123305, Note_on_c, 0, 85, 71
2, 123310, Note_on_c, 0, 88, 58
2, 123356, Note_on_c, 0, 92, 0
2, 123360, Note_on_c, 0, 92, 75
2, 123432, Note_on_c, 0, 85, 0
2, 123432, Note_on_c, 0, 88, 0
2, 123438, Note_on_c, 0, 88, 66
2, 123439, Note_on_c, 0, 85, 68
2, 123517, Note_on_c, 0, 92, 0
2, 123523, Note_on_c, 0, 92, 65
2, 123578, Note_on_c, 0, 85, 0
2, 123578, Note_on_c, 0, 88, 0
2, 123589, Note_on_c, 0, 85, 65
2, 123589, Note_on_c, 0, 88, 62
2, 123640, Note_on_c, 0, 92, 0
2, 123645, Note_on_c, 0, 92, 74
2, 123709, Note_on_c, 0, 85, 0
2, 123709, Note_on_c, 0, 88, 0
2, 123714, Note_on_c, 0, 88, 65
2, 123716, Note_on_c, 0, 85, 68
2, 123778, Note_on_c, 0, 92, 0
2, 123787, Note_on_c, 0, 92, 68
2, 123847, Note_on_c, 0, 85, 0
2, 123847, Note_on_c, 0, 88, 0
2, 123851, Note_on_c, 0, 85, 68
2, 123853, Note_on_c, 0, 88, 58
2, 123901, Note_on_c, 0, 92, 0
2, 123910, Note_on_c, 0, 92, 74
2, 123970, Note_on_c, 0, 88, 0
2, 123980, Note_on_c, 0, 88, 72
2, 123985, Note_on_c, 0, 85, 0
2, 123989, Control_c, 0, 64, 0
2, 123993, Note_on_c, 0, 61, 0
2, 123993, Note_on_c, 0, 64, 0
2, 123994, Note_on_c, 0, 69, 63
2, 123995, Note_on_c, 0, 92, 0
2, 123995, Note_on_c, 0, 85, 63
2, 123998, Note_on_c, 0, 61, 62
2, 124001, Note_on_c, 0, 64, 63
2, 124005, Note_on_c, 0, 57, 59
2, 124008, Note_on_c, 0, 68, 0
2, 124074, Note_on_c, 0, 92, 70
2, 124085, Control_c, 0, 64, 127
2, 124101, Note_on_c, 0, 88, 0
2, 124131, Note_on_c, 0, 85, 0
2, 124142, Note_on_c, 0, 88, 72
2, 124143, Note_on_c, 0, 85, 72
2, 124216, Note_on_c, 0, 92, 0
2, 124223, Note_on_c, 0, 92, 62
2, 124270, Note_on_c, 0, 88, 0
2, 124277, Note_on_c, 0, 85, 0
2, 124281, Note_on_c, 0, 88, 70
2, 124282, Note_on_c, 0, 85, 66
2, 124339, Note_on_c, 0, 92, 0
2, 124349, Note_on_c, 0, 92, 69
2, 124416, Note_on_c, 0, 85, 0
2, 124416, Note_on_c, 0, 88, 0
2, 124419, Note_on_c, 0, 88, 73
2, 124425, Note_on_c, 0, 85, 70
2, 124492, Note_on_c, 0, 92, 0
2, 124502, Note_on_c, 0, 92, 63
2, 124539, Note_on_c, 0, 61, 0
2, 124539, Control_c, 0, 64, 0
2, 124540, Note_on_c, 0, 64, 0
2, 124540, Note_on_c, 0, 57, 0
2, 124554, Note_on_c, 0, 69, 0
2, 124554, Note_on_c, 0, 85, 0
2, 124554, Note_on_c, 0, 88, 0
2, 124564, Note_on_c, 0, 88, 73
2, 124564, Note_on_c, 0, 59, 73
2, 124565, Note_on_c, 0, 85, 75
2, 124565, Note_on_c, 0, 66, 78
2, 124566, Note_on_c, 0, 63, 65
2, 124631, Note_on_c, 0, 92, 0
2, 124636, Note_on_c, 0, 92, 67
2, 124646, Control_c, 0, 64, 127
2, 124692, Note_on_c, 0, 88, 0
2, 124700, Note_on_c, 0, 85, 0
2, 124703, Note_on_c, 0, 88, 77
2, 124707, Note_on_c, 0, 85, 72
2, 124769, Note_on_c, 0, 92, 0
2, 124778, Note_on_c, 0, 92, 71
2, 124830, Note_on_c, 0, 85, 0
2, 124830, Note_on_c, 0, 88, 0
2, 124836, Note_on_c, 0, 88, 75
2, 124837, Note_on_c, 0, 85, 73
2, 124907, Note_on_c, 0, 92, 0
2, 124911, Note_on_c, 0, 92, 68
2, 124968, Note_on_c, 0, 85, 0
2, 124968, Note_on_c, 0, 88, 0
2, 124973, Note_on_c, 0, 88, 75
2, 124980, Note_on_c, 0, 85, 72
2, 125038, Note_on_c, 0, 92, 0
2, 125042, Note_on_c, 0, 92, 70
2, 125099, Note_on_c, 0, 88, 0
2, 125103, Control_c, 0, 64, 0
2, 125103, Note_on_c, 0, 68, 75
2, 125105, Note_on_c, 0, 61, 69
2, 125106, Note_on_c, 0, 63, 0
2, 125107, Note_on_c, 0, 85, 0
2, 125107, Note_on_c, 0, 66, 0
2, 125107, Note_on_c, 0, 64, 66
2, 125107, Note_on_c, 0, 88, 78
2, 125114, Note_on_c, 0, 59, 0
2, 125117, Note_on_c, 0, 85, 74
2, 125168, Note_on_c, 0, 92, 0
2, 125179, Note_on_c, 0, 92, 74
2, 125230, Control_c, 0, 64, 127
2, 125237, Note_on_c, 0, 88, 0
2, 125245, Note_on_c, 0, 85, 0
2, 125247, Note_on_c, 0, 88, 78
2, 125253, Note_on_c, 0, 85, 75
2, 125314, Note_on_c, 0, 92, 0
2, 125319, Note_on_c, 0, 92, 70
2, 125376, Note_on_c, 0, 85, 0
2, 125376, Note_on_c, 0, 88, 0
2, 125379, Note_on_c, 0, 88, 76
2, 125380, Note_on_c, 0, 85, 73
2, 125445, Note_on_c, 0, 92, 0
2, 125450, Note_on_c, 0, 92, 75
2, 125514, Note_on_c, 0, 85, 0
2, 125514, Note_on_c, 0, 88, 0
2, 125518, Note_on_c, 0, 88, 71
2, 125523, Note_on_c, 0, 85, 71
2, 125583, Note_on_c, 0, 92, 0
2, 125592, Note_on_c, 0, 92, 70
2, 125644, Note_on_c, 0, 88, 0
2, 125652, Note_on_c, 0, 85, 0
2, 125656, Note_on_c, 0, 88, 80
2, 125662, Note_on_c, 0, 85, 74
2, 125721, Note_on_c, 0, 92, 0
2, 125727, Note_on_c, 0, 92, 73
2, 125783, Note_on_c, 0, 88, 0
2, 125789, Note_on_c, 0, 88, 75
2, 125790, Note_on_c, 0, 85, 0
2, 125796, Note_on_c, 0, 85, 73
2, 125852, Note_on_c, 0, 92, 0
2, 125862, Note_on_c, 0, 92, 79
2, 125928, Note_on_c, 0, 85, 0
2, 125928, Note_on_c, 0, 88, 0
2, 125933, Note_on_c, 0, 85, 74
2, 125937, Note_on_c, 0, 88, 64
2, 125990, Note_on_c, 0, 92, 0
2, 125994, Note_on_c, 0, 92, 78
2, 126051, Note_on_c, 0, 85, 0
2, 126057, Note_on_c, 0, 85, 70
2, 126059, Note_on_c, 0, 88, 0
2, 126063, Note_on_c, 0, 88, 67
2, 126120, Note_on_c, 0, 92, 0
2, 126125, Note_on_c, 0, 92, 85
2, 126196, Note_on_c, 0, 97, 97
2, 126217, Note_on_c, 0, 57, 74
2, 126219, Note_on_c, 0, 85, 0
2, 126219, Note_on_c, 0, 92, 0
2, 126220, Note_on_c, 0, 88, 0
2, 126220, Control_c, 0, 64, 0
2, 126221, Note_on_c, 0, 61, 0
2, 126222, Note_on_c, 0, 64, 0
2, 126223, Note_on_c, 0, 68, 0
2, 126223, Note_on_c, 0, 45, 73
2, 126223, Note_on_c, 0, 52, 69
2, 126223, Note_on_c, 0, 49, 62
2, 126284, Note_on_c, 0, 92, 76
2, 126330, Note_on_c, 0, 88, 77
2, 126336, Control_c, 0, 64, 127
2, 126412, Note_on_c, 0, 92, 0
2, 126417, Note_on_c, 0, 92, 80
2, 126475, Note_on_c, 0, 85, 90
2, 126551, Note_on_c, 0, 88, 0
2, 126559, Note_on_c, 0, 88, 71
2, 126617, Note_on_c, 0, 80, 75
2, 126658, Note_on_c, 0, 85, 0
2, 126667, Note_on_c, 0, 85, 87
2, 126743, Note_on_c, 0, 92, 0
2, 126746, Note_on_c, 0, 80, 0
2, 126747, Note_on_c, 0, 45, 0
2, 126748, Note_on_c, 0, 97, 0
2, 126748, Note_on_c, 0, 52, 0
2, 126749, Note_on_c, 0, 85, 0
2, 126750, Note_on_c, 0, 88, 0
2, 126753, Control_c, 0, 64, 0
2, 126754, Note_on_c, 0, 92, 100
2, 126758, Note_on_c, 0, 49, 0
2, 126764, Note_on_c, 0, 59, 84
2, 126764, Note_on_c, 0, 51, 81
2, 126766, Note_on_c, 0, 57, 0
2, 126768, Note_on_c, 0, 47, 82
2, 126772, Note_on_c, 0, 54, 81
2, 126832, Note_on_c, 0, 88, 78
2, 126873, Control_c, 0, 64, 127
2, 126886, Note_on_c, 0, 85, 84
2, 126950, Note_on_c, 0, 88, 0
2, 126955, Note_on_c, 0, 88, 80
2, 127026, Note_on_c, 0, 80, 83
2, 127104, Note_on_c, 0, 85, 0
2, 127109, Note_on_c, 0, 85, 83
2, 127181, Note_on_c, 0, 76, 73
2, 127226, Note_on_c, 0, 80, 0
2, 127235, Note_on_c, 0, 80, 80
2, 127288, Note_on_c, 0, 88, 0
2, 127299, Note_on_c, 0, 88, 90
2, 127304, Note_on_c, 0, 59, 0
2, 127304, Note_on_c, 0, 76, 0
2, 127305, Control_c, 0, 64, 0
2, 127306, Note_on_c, 0, 80, 0
2, 127307, Note_on_c, 0, 85, 0
2, 127307, Note_on_c, 0, 54, 0
2, 127307, Note_on_c, 0, 47, 0
2, 127307, Note_on_c, 0, 92, 0
2, 127307, Note_on_c, 0, 51, 0
2, 127309, Note_on_c, 0, 61, 84
2, 127313, Note_on_c, 0, 49, 77
2, 127313, Note_on_c, 0, 52, 83
2, 127315, Note_on_c, 0, 56, 84
2, 127362, Note_on_c, 0, 85, 83
2, 127418, Note_on_c, 0, 88, 0
2, 127430, Note_on_c, 0, 80, 74
2, 127434, Control_c, 0, 64, 127
2, 127488, Note_on_c, 0, 85, 0
2, 127497, Note_on_c, 0, 85, 82
2, 127557, Note_on_c, 0, 76, 80
2, 127641, Note_on_c, 0, 80, 0
2, 127650, Note_on_c, 0, 80, 77
2, 127716, Note_on_c, 0, 73, 72
2, 127772, Note_on_c, 0, 76, 0
2, 127776, Note_on_c, 0, 76, 85
2, 127841, Note_on_c, 0, 85, 0
2, 127845, Note_on_c, 0, 85, 92
2, 127910, Note_on_c, 0, 80, 0
2, 127916, Note_on_c, 0, 80, 69
2, 127964, Note_on_c, 0, 76, 0
2, 127973, Note_on_c, 0, 76, 78
2, 128010, Note_on_c, 0, 80, 0
2, 128017, Note_on_c, 0, 80, 80
2, 128056, Note_on_c, 0, 73, 0
2, 128067, Note_on_c, 0, 73, 83
2, 128133, Note_on_c, 0, 76, 0
2, 128143, Note_on_c, 0, 76, 86
2, 128224, Note_on_c, 0, 68, 74
2, 128286, Note_on_c, 0, 73, 0
2, 128296, Note_on_c, 0, 73, 85
2, 128342, Control_c, 0, 64, 0
2, 128348, Note_on_c, 0, 80, 0
2, 128348, Note_on_c, 0, 68, 0
2, 128349, Note_on_c, 0, 85, 0
2, 128349, Note_on_c, 0, 56, 0
2, 128350, Note_on_c, 0, 73, 0
2, 128350, Note_on_c, 0, 61, 0
2, 128351, Note_on_c, 0, 76, 0
2, 128355, Note_on_c, 0, 49, 0
2, 128355, Note_on_c, 0, 52, 0
2, 128364, Note_on_c, 0, 57, 91
2, 128364, Note_on_c, 0, 49, 80
2, 128365, Note_on_c, 0, 45, 90
2, 128367, Note_on_c, 0, 52, 85
2, 128367, Note_on_c, 0, 69, 88
2, 128413, Note_on_c, 0, 69, 0
2, 128434, Note_on_c, 0, 64, 84
2, 128463, Control_c, 0, 64, 127
2, 128518, Note_on_c, 0, 61, 90
2, 128586, Note_on_c, 0, 64, 0
2, 128591, Note_on_c, 0, 64, 71
2, 128666, Note_on_c, 0, 69, 78
2, 128720, Note_on_c, 0, 73, 80
2, 128797, Note_on_c, 0, 76, 71
2, 128844, Note_on_c, 0, 81, 79
2, 128879, Control_c, 0, 64, 0
2, 128881, Note_on_c, 0, 52, 0
2, 128881, Note_on_c, 0, 73, 0
2, 128881, Note_on_c, 0, 61, 0
2, 128881, Note_on_c, 0, 57, 0
2, 128881, Note_on_c, 0, 49, 0
2, 128881, Note_on_c, 0, 76, 0
2, 128893, Note_on_c, 0, 64, 0
2, 128901, Note_on_c, 0, 45, 0
2, 128901, Note_on_c, 0, 69, 0
2, 128908, Note_on_c, 0, 81, 0
2, 128921, Note_on_c, 0, 59, 88
2, 128926, Note_on_c, 0, 54, 87
2, 128926, Note_on_c, 0, 47, 90
2, 128927, Note_on_c, 0, 71, 95
2, 128928, Note_on_c, 0, 51, 79
2, 128933, Note_on_c, 0, 83, 84
2, 128985, Control_c, 0, 64, 127
2, 128996, Note_on_c, 0, 81, 56
2, 129009, Note_on_c, 0, 78, 73
2, 129082, Note_on_c, 0, 63, 94
2, 129167, Note_on_c, 0, 66, 86
2, 129200, Note_on_c, 0, 71, 0
2, 129210, Note_on_c, 0, 71, 80
2, 129262, Note_on_c, 0, 75, 91
2, 129323, Note_on_c, 0, 78, 0
2, 129327, Note_on_c, 0, 78, 85
2, 129377, Note_on_c, 0, 83, 0
2, 129382, Note_on_c, 0, 83, 95
2, 129444, Note_on_c, 0, 54, 0
2, 129445, Note_on_c, 0, 81, 0
2, 129446, Note_on_c, 0, 78, 0
2, 129446, Note_on_c, 0, 63, 0
2, 129446, Note_on_c, 0, 71, 0
2, 129446, Note_on_c, 0, 51, 0
2, 129447, Note_on_c, 0, 47, 0
2, 129448, Note_on_c, 0, 83, 0
2, 129448, Control_c, 0, 64, 0
2, 129449, Note_on_c, 0, 75, 0
2, 129454, Note_on_c, 0, 59, 0
2, 129461, Note_on_c, 0, 66, 0
2, 129488, Note_on_c, 0, 61, 95
2, 129488, Note_on_c, 0, 52, 81
2, 129488, Note_on_c, 0, 56, 92
2, 129489, Note_on_c, 0, 49, 79
2, 129530, Control_c, 0, 64, 127
2, 129600, Note_on_c, 0, 49, 0
2, 129607, Note_on_c, 0, 61, 0
2, 129610, Note_on_c, 0, 49, 69
2, 129611, Note_on_c, 0, 61, 79
2, 129679, Note_on_c, 0, 54, 84
2, 129692, Note_on_c, 0, 52, 0
2, 129692, Control_c, 0, 64, 0
2, 129707, Note_on_c, 0, 56, 0
2, 129735, Note_on_c, 0, 68, 79
2, 129736, Note_on_c, 0, 56, 75
2, 129776, Control_c, 0, 64, 127
2, 129792, Note_on_c, 0, 54, 0
2, 129796, Note_on_c, 0, 66, 80
2, 129796, Note_on_c, 0, 54, 78
2, 129838, Note_on_c, 0, 56, 0
2, 129845, Note_on_c, 0, 68, 0
2, 129848, Note_on_c, 0, 56, 63
2, 129849, Note_on_c, 0, 68, 87
2, 129854, Note_on_c, 0, 66, 0
2, 129884, Note_on_c, 0, 61, 0
2, 129894, Note_on_c, 0, 61, 76
2, 129928, Note_on_c, 0, 73, 89
2, 129978, Note_on_c, 0, 66, 96
2, 129980, Note_on_c, 0, 78, 89
2, 130053, Note_on_c, 0, 61, 0
2, 130053, Note_on_c, 0, 73, 0
2, 130057, Note_on_c, 0, 73, 82
2, 130064, Note_on_c, 0, 61, 81
2, 130114, Note_on_c, 0, 78, 0
2, 130122, Note_on_c, 0, 66, 0
2, 130122, Note_on_c, 0, 78, 94
2, 130127, Note_on_c, 0, 66, 86
2, 130156, Control_c, 0, 64, 0
2, 130160, Control_c, 0, 64, 127
2, 130165, Note_on_c, 0, 80, 92
2, 130176, Note_on_c, 0, 68, 0
2, 130186, Note_on_c, 0, 68, 94
2, 130245, Note_on_c, 0, 73, 0
2, 130249, Note_on_c, 0, 73, 82
2, 130249, Note_on_c, 0, 85, 93
2, 130292, Note_on_c, 0, 90, 92
2, 130343, Note_on_c, 0, 92, 91
2, 130379, Note_on_c, 0, 97, 96
2, 130459, Note_on_c, 0, 78, 0
2, 130459, Note_on_c, 0, 68, 0
2, 130459, Note_on_c, 0, 66, 0
2, 130459, Note_on_c, 0, 80, 0
2, 130459, Note_on_c, 0, 73, 0
2, 130460, Note_on_c, 0, 90, 0
2, 130460, Note_on_c, 0, 61, 0
2, 130460, Note_on_c, 0, 85, 0
2, 130460, Note_on_c, 0, 92, 0
2, 130461, Note_on_c, 0, 97, 0
2, 130464, Control_c, 0, 64, 0
2, 130467, Note_on_c, 0, 56, 0
2, 130475, Note_on_c, 0, 49, 0
2, 130475, Note_on_c, 0, 54, 0
2, 130511, Note_on_c, 0, 92, 106
2, 130511, Note_on_c, 0, 69, 93
2, 130516, Note_on_c, 0, 85, 102
2, 130517, Note_on_c, 0, 52, 96
2, 130517, Note_on_c, 0, 64, 89
2, 130517, Note_on_c, 0, 61, 76
2, 130518, Note_on_c, 0, 80, 98
2, 130519, Note_on_c, 0, 57, 92
2, 130521, Control_c, 0, 64, 127
2, 130649, Note_on_c, 0, 45, 88
2, 130663, Note_on_c, 0, 80, 0
2, 130663, Note_on_c, 0, 52, 0
2, 130663, Note_on_c, 0, 57, 0
2, 130664, Note_on_c, 0, 85, 0
2, 130664, Note_on_c, 0, 92, 0
2, 130665, Control_c, 0, 64, 0
2, 130667, Note_on_c, 0, 64, 0
2, 130667, Note_on_c, 0, 69, 0
2, 130675, Note_on_c, 0, 61, 0
2, 130775, Control_c, 0, 64, 127
2, 130792, Note_on_c, 0, 93, 107
2, 130792, Note_on_c, 0, 33, 87
2, 130794, Note_on_c, 0, 85, 97
2, 130794, Note_on_c, 0, 81, 93
2, 130920, Note_on_c, 0, 45, 0
2, 130920, Note_on_c, 0, 93, 0
2, 130925, Note_on_c, 0, 81, 0
2, 130925, Note_on_c, 0, 33, 0
2, 130928, Note_on_c, 0, 85, 0
2, 130932, Control_c, 0, 64, 0
2, 131051, Control_c, 0, 64, 127
2, 131054, Note_on_c, 0, 90, 104
2, 131056, Note_on_c, 0, 87, 96
2, 131056, Note_on_c, 0, 78, 102
2, 131057, Note_on_c, 0, 59, 96
2, 131058, Note_on_c, 0, 83, 93
2, 131062, Note_on_c, 0, 51, 97
2, 131062, Note_on_c, 0, 54, 99
2, 131204, Note_on_c, 0, 47, 89
2, 131243, Control_c, 0, 64, 0
2, 131245, Note_on_c, 0, 78, 0
2, 131245, Note_on_c, 0, 51, 0
2, 131246, Note_on_c, 0, 83, 0
2, 131246, Note_on_c, 0, 90, 0
2, 131246, Note_on_c, 0, 54, 0
2, 131246, Note_on_c, 0, 47, 0
2, 131246, Note_on_c, 0, 59, 0
2, 131246, Note_on_c, 0, 87, 0
2, 131332, Note_on_c, 0, 87, 96
2, 131333, Note_on_c, 0, 83, 89
2, 131333, Note_on_c, 0, 75, 101
2, 131334, Note_on_c, 0, 35, 91
2, 131335, Note_on_c, 0, 78, 95
2, 131351, Control_c, 0, 64, 127
2, 131581, Note_on_c, 0, 35, 0
2, 131592, Note_on_c, 0, 61, 94
2, 131594, Note_on_c, 0, 64, 77
2, 131598, Note_on_c, 0, 56, 86
2, 131600, Note_on_c, 0, 52, 75
2, 131600, Note_on_c, 0, 88, 99
2, 131607, Note_on_c, 0, 76, 100
2, 131608, Note_on_c, 0, 80, 96
2, 131609, Note_on_c, 0, 85, 89
2, 131727, Note_on_c, 0, 56, 0
2, 131727, Note_on_c, 0, 76, 0
2, 131727, Note_on_c, 0, 88, 0
2, 131733, Note_on_c, 0, 49, 87
2, 131733, Note_on_c, 0, 56, 73
2, 131734, Note_on_c, 0, 88, 93
2, 131738, Note_on_c, 0, 76, 98
2, 131858, Note_on_c, 0, 37, 93
2, 131865, Note_on_c, 0, 78, 0
2, 131869, Note_on_c, 0, 78, 98
2, 131874, Note_on_c, 0, 90, 104
2, 131958, Control_c, 0, 64, 0
2, 131961, Note_on_c, 0, 37, 0
2, 131961, Note_on_c, 0, 49, 0
2, 131961, Note_on_c, 0, 80, 0
2, 131962, Note_on_c, 0, 88, 0
2, 131962, Note_on_c, 0, 87, 0
2, 131962, Note_on_c, 0, 76, 0
2, 131962, Note_on_c, 0, 75, 0
2, 131962, Note_on_c, 0, 78, 0
2, 131963, Note_on_c, 0, 85, 0
2, 131963, Note_on_c, 0, 90, 0
2, 131973, Note_on_c, 0, 64, 0
2, 131988, Note_on_c, 0, 83, 0
2, 131996, Note_on_c, 0, 52, 0
2, 131996, Note_on_c, 0, 56, 0
2, 131996, Note_on_c, 0, 61, 0
2, 132000, Note_on_c, 0, 61, 89
2, 132001, Note_on_c, 0, 56, 85
2, 132002, Note_on_c, 0, 52, 86
2, 132026, Control_c, 0, 64, 127
2, 132047, Note_on_c, 0, 88, 94
2, 132048, Note_on_c, 0, 80, 96
2, 132049, Note_on_c, 0, 76, 98
2, 132051, Note_on_c, 0, 85, 93
2, 132134, Note_on_c, 0, 76, 0
2, 132134, Note_on_c, 0, 80, 0
2, 132134, Note_on_c, 0, 88, 0
2, 132138, Note_on_c, 0, 88, 103
2, 132140, Note_on_c, 0, 76, 101
2, 132141, Note_on_c, 0, 80, 89
2, 132269, Note_on_c, 0, 49, 91
2, 132272, Note_on_c, 0, 85, 0
2, 132273, Note_on_c, 0, 37, 89
2, 132279, Note_on_c, 0, 85, 96
2, 132287, Note_on_c, 0, 73, 96
2, 132395, Note_on_c, 0, 49, 0
2, 132395, Note_on_c, 0, 52, 0
2, 132395, Note_on_c, 0, 56, 0
2, 132395, Note_on_c, 0, 61, 0
2, 132404, Note_on_c, 0, 56, 89
2, 132404, Note_on_c, 0, 61, 87
2, 132406, Note_on_c, 0, 52, 74
2, 132406, Note_on_c, 0, 49, 76
2, 132545, Note_on_c, 0, 83, 96
2, 132551, Note_on_c, 0, 71, 85
2, 132609, Note_on_c, 0, 37, 0
2, 132611, Note_on_c, 0, 80, 0
2, 132612, Note_on_c, 0, 71, 0
2, 132612, Note_on_c, 0, 85, 0
2, 132612, Note_on_c, 0, 52, 0
2, 132612, Note_on_c, 0, 76, 0
2, 132612, Note_on_c, 0, 56, 0
2, 132612, Note_on_c, 0, 83, 0
2, 132612, Note_on_c, 0, 61, 0
2, 132612, Note_on_c, 0, 88, 0
2, 132613, Note_on_c, 0, 73, 0
2, 132616, Control_c, 0, 64, 0
2, 132625, Note_on_c, 0, 49, 0
2, 132668, Note_on_c, 0, 52, 95
2, 132669, Note_on_c, 0, 57, 96
2, 132671, Note_on_c, 0, 85, 105
2, 132672, Note_on_c, 0, 73, 106
2, 132672, Note_on_c, 0, 76, 98
2, 132673, Note_on_c, 0, 49, 89
2, 132677, Note_on_c, 0, 81, 82
2, 132679, Control_c, 0, 64, 127
2, 132799, Note_on_c, 0, 45, 90
2, 132836, Note_on_c, 0, 81, 0
2, 132836, Note_on_c, 0, 73, 0
2, 132836, Note_on_c, 0, 52, 0
2, 132836, Control_c, 0, 64, 0
2, 132836, Note_on_c, 0, 76, 0
2, 132836, Note_on_c, 0, 49, 0
2, 132837, Note_on_c, 0, 57, 0
2, 132902, Control_c, 0, 64, 127
2, 132917, Note_on_c, 0, 85, 0
2, 132928, Note_on_c, 0, 85, 94
2, 132929, Note_on_c, 0, 33, 86
2, 132938, Note_on_c, 0, 79, 72
2, 132970, Note_on_c, 0, 33, 0
2, 132972, Note_on_c, 0, 85, 0
2, 132978, Control_c, 0, 64, 0
2, 132979, Note_on_c, 0, 45, 0
2, 132994, Note_on_c, 0, 79, 0
2, 133076, Note_on_c, 0, 88, 102
2, 133079, Note_on_c, 0, 78, 99
2, 133082, Note_on_c, 0, 83, 91
2, 133084, Note_on_c, 0, 76, 95
2, 133102, Control_c, 0, 64, 127
2, 133199, Note_on_c, 0, 59, 94
2, 133201, Note_on_c, 0, 54, 99
2, 133204, Note_on_c, 0, 51, 89
2, 133340, Note_on_c, 0, 76, 0
2, 133340, Note_on_c, 0, 88, 0
2, 133345, Note_on_c, 0, 47, 98
2, 133349, Note_on_c, 0, 88, 100
2, 133351, Note_on_c, 0, 76, 92
2, 133385, Note_on_c, 0, 51, 0
2, 133385, Note_on_c, 0, 59, 0
2, 133386, Control_c, 0, 64, 0
2, 133386, Note_on_c, 0, 76, 0
2, 133386, Note_on_c, 0, 83, 0
2, 133386, Note_on_c, 0, 54, 0
2, 133386, Note_on_c, 0, 78, 0
2, 133432, Note_on_c, 0, 88, 0
2, 133455, Control_c, 0, 64, 127
2, 133468, Note_on_c, 0, 35, 87
2, 133475, Note_on_c, 0, 78, 101
2, 133475, Note_on_c, 0, 90, 107
2, 133644, Note_on_c, 0, 78, 0
2, 133646, Note_on_c, 0, 90, 0
2, 133647, Control_c, 0, 64, 0
2, 133655, Note_on_c, 0, 35, 0
2, 133693, Note_on_c, 0, 47, 0
2, 133735, Note_on_c, 0, 85, 102
2, 133735, Note_on_c, 0, 64, 84
2, 133736, Note_on_c, 0, 61, 97
2, 133737, Note_on_c, 0, 73, 98
2, 133738, Note_on_c, 0, 56, 95
2, 133740, Note_on_c, 0, 80, 95
2, 133741, Note_on_c, 0, 76, 90
2, 133741, Note_on_c, 0, 68, 94
2, 133741, Note_on_c, 0, 52, 84
2, 133777, Control_c, 0, 64, 127
2, 133854, Note_on_c, 0, 64, 0
2, 133871, Note_on_c, 0, 49, 82
2, 133873, Note_on_c, 0, 47, 62
2, 133995, Note_on_c, 0, 37, 96
2, 134125, Note_on_c, 0, 51, 91
2, 134125, Note_on_c, 0, 39, 93
2, 134134, Note_on_c, 0, 49, 0
2, 134136, Note_on_c, 0, 80, 0
2, 134136, Note_on_c, 0, 73, 0
2, 134136, Note_on_c, 0, 52, 0
2, 134139, Note_on_c, 0, 85, 0
2, 134146, Note_on_c, 0, 56, 0
2, 134154, Note_on_c, 0, 68, 0
2, 134231, Note_on_c, 0, 47, 0
2, 134263, Note_on_c, 0, 40, 99
2, 134264, Note_on_c, 0, 52, 101
2, 134323, Note_on_c, 0, 61, 0
2, 134357, Note_on_c, 0, 52, 0
2, 134359, Note_on_c, 0, 40, 0
2, 134362, Control_c, 0, 64, 0
2, 134376, Note_on_c, 0, 37, 0
2, 134376, Note_on_c, 0, 76, 0
2, 134392, Note_on_c, 0, 39, 0
2, 134392, Note_on_c, 0, 51, 0
2, 134401, Note_on_c, 0, 39, 93
2, 134402, Note_on_c, 0, 51, 91
2, 134404, Note_on_c, 0, 83, 98
2, 134405, Note_on_c, 0, 71, 91
2, 134438, Control_c, 0, 64, 127
2, 134525, Note_on_c, 0, 61, 89
2, 134527, Note_on_c, 0, 49, 91
2, 134528, Note_on_c, 0, 37, 89
2, 134528, Note_on_c, 0, 85, 98
2, 134531, Note_on_c, 0, 73, 92
2, 134653, Note_on_c, 0, 37, 0
2, 134654, Note_on_c, 0, 49, 0
2, 134654, Control_c, 0, 64, 0
2, 134655, Note_on_c, 0, 85, 0
2, 134655, Note_on_c, 0, 47, 91
2, 134656, Note_on_c, 0, 73, 0
2, 134656, Note_on_c, 0, 88, 100
2, 134656, Note_on_c, 0, 39, 0
2, 134657, Note_on_c, 0, 71, 0
2, 134657, Note_on_c, 0, 35, 85
2, 134660, Note_on_c, 0, 76, 84
2, 134661, Note_on_c, 0, 51, 0
2, 134661, Note_on_c, 0, 61, 0
2, 134684, Note_on_c, 0, 83, 0
2, 134693, Note_on_c, 0, 47, 0
2, 134696, Note_on_c, 0, 88, 0
2, 134697, Note_on_c, 0, 35, 0
2, 134714, Note_on_c, 0, 76, 0
2, 134782, Note_on_c, 0, 92, 110
2, 134784, Control_c, 0, 64, 127
2, 134787, Note_on_c, 0, 85, 103
2, 134788, Note_on_c, 0, 49, 99
2, 134788, Note_on_c, 0, 80, 105
2, 134792, Note_on_c, 0, 52, 95
2, 134793, Note_on_c, 0, 57, 97
2, 134793, Note_on_c, 0, 88, 88
2, 134795, Note_on_c, 0, 45, 97
2, 134929, Note_on_c, 0, 45, 0
2, 134938, Note_on_c, 0, 80, 0
2, 134938, Note_on_c, 0, 33, 79
2, 134940, Note_on_c, 0, 45, 91
2, 134940, Note_on_c, 0, 88, 0
2, 134940, Note_on_c, 0, 92, 0
2, 134940, Note_on_c, 0, 85, 0
2, 134941, Note_on_c, 0, 49, 0
2, 134950, Control_c, 0, 64, 0
2, 134952, Note_on_c, 0, 52, 0
2, 134976, Note_on_c, 0, 57, 0
2, 135022, Note_on_c, 0, 45, 0
2, 135060, Note_on_c, 0, 33, 0
2, 135071, Note_on_c, 0, 93, 109
2, 135071, Note_on_c, 0, 33, 90
2, 135072, Note_on_c, 0, 85, 103
2, 135073, Note_on_c, 0, 81, 101
2, 135073, Note_on_c, 0, 88, 81
2, 135075, Control_c, 0, 64, 127
2, 135233, Note_on_c, 0, 81, 0
2, 135233, Note_on_c, 0, 93, 0
2, 135233, Control_c, 0, 64, 0
2, 135234, Note_on_c, 0, 85, 0
2, 135237, Note_on_c, 0, 88, 0
2, 135252, Note_on_c, 0, 33, 0
2, 135333, Note_on_c, 0, 90, 109
2, 135338, Note_on_c, 0, 78, 106
2, 135340, Note_on_c, 0, 54, 99
2, 135340, Note_on_c, 0, 87, 95
2, 135341, Note_on_c, 0, 83, 89
2, 135341, Note_on_c, 0, 59, 94
2, 135342, Note_on_c, 0, 51, 94
2, 135344, Control_c, 0, 64, 127
2, 135473, Note_on_c, 0, 47, 94
2, 135526, Note_on_c, 0, 78, 0
2, 135526, Note_on_c, 0, 90, 0
2, 135526, Note_on_c, 0, 51, 0
2, 135526, Control_c, 0, 64, 0
2, 135526, Note_on_c, 0, 83, 0
2, 135527, Note_on_c, 0, 87, 0
2, 135528, Note_on_c, 0, 59, 0
2, 135528, Note_on_c, 0, 54, 0
2, 135528, Note_on_c, 0, 47, 0
2, 135609, Note_on_c, 0, 35, 95
2, 135609, Note_on_c, 0, 87, 99
2, 135612, Note_on_c, 0, 78, 98
2, 135612, Note_on_c, 0, 75, 104
2, 135613, Control_c, 0, 64, 127
2, 135615, Note_on_c, 0, 83, 94
2, 135828, Note_on_c, 0, 78, 0
2, 135829, Note_on_c, 0, 75, 0
2, 135829, Note_on_c, 0, 87, 0
2, 135831, Note_on_c, 0, 83, 0
2, 135834, Control_c, 0, 64, 0
2, 135836, Note_on_c, 0, 35, 0
2, 135875, Note_on_c, 0, 61, 92
2, 135877, Note_on_c, 0, 56, 91
2, 135878, Note_on_c, 0, 88, 104
2, 135878, Note_on_c, 0, 52, 83
2, 135883, Note_on_c, 0, 85, 96
2, 135883, Note_on_c, 0, 76, 102
2, 135884, Note_on_c, 0, 80, 103
2, 135905, Control_c, 0, 64, 127
2, 135911, Note_on_c, 0, 61, 0
2, 135917, Note_on_c, 0, 56, 0
2, 135917, Note_on_c, 0, 85, 0
2, 135943, Note_on_c, 0, 76, 0
2, 135951, Note_on_c, 0, 88, 0
2, 136005, Note_on_c, 0, 52, 0
2, 136014, Note_on_c, 0, 52, 67
2, 136014, Note_on_c, 0, 88, 96
2, 136016, Note_on_c, 0, 49, 85
2, 136016, Note_on_c, 0, 76, 98
2, 136040, Note_on_c, 0, 85, 64
2, 136129, Note_on_c, 0, 37, 102
2, 136132, Control_c, 0, 64, 0
2, 136144, Note_on_c, 0, 90, 109
2, 136146, Note_on_c, 0, 78, 97
2, 136151, Control_c, 0, 64, 127
2, 136262, Control_c, 0, 64, 0
2, 136273, Note_on_c, 0, 52, 0
2, 136275, Note_on_c, 0, 61, 92
2, 136277, Note_on_c, 0, 56, 81
2, 136281, Note_on_c, 0, 52, 85
2, 136304, Note_on_c, 0, 80, 0
2, 136304, Control_c, 0, 64, 127
2, 136335, Note_on_c, 0, 76, 0
2, 136335, Note_on_c, 0, 85, 0
2, 136335, Note_on_c, 0, 88, 0
2, 136339, Note_on_c, 0, 88, 99
2, 136340, Note_on_c, 0, 76, 99
2, 136340, Note_on_c, 0, 85, 91
2, 136342, Note_on_c, 0, 80, 94
2, 136404, Note_on_c, 0, 88, 0
2, 136412, Note_on_c, 0, 76, 0
2, 136412, Note_on_c, 0, 80, 0
2, 136415, Note_on_c, 0, 88, 96
2, 136416, Note_on_c, 0, 80, 100
2, 136416, Note_on_c, 0, 76, 93
2, 136527, Note_on_c, 0, 49, 0
2, 136535, Note_on_c, 0, 49, 91
2, 136542, Note_on_c, 0, 85, 0
2, 136554, Note_on_c, 0, 85, 101
2, 136562, Note_on_c, 0, 73, 94
2, 136565, Note_on_c, 0, 76, 0
2, 136570, Note_on_c, 0, 76, 75
2, 136596, Note_on_c, 0, 90, 0
2, 136665, Note_on_c, 0, 49, 0
2, 136665, Note_on_c, 0, 52, 0
2, 136665, Note_on_c, 0, 56, 0
2, 136665, Note_on_c, 0, 61, 0
2, 136671, Note_on_c, 0, 52, 87
2, 136672, Note_on_c, 0, 56, 92
2, 136672, Note_on_c, 0, 61, 95
2, 136676, Note_on_c, 0, 49, 86
2, 136780, Note_on_c, 0, 49, 0
2, 136790, Note_on_c, 0, 49, 87
2, 136798, Note_on_c, 0, 85, 0
2, 136803, Note_on_c, 0, 78, 0
2, 136807, Note_on_c, 0, 83, 91
2, 136815, Note_on_c, 0, 71, 80
2, 136884, Note_on_c, 0, 80, 0
2, 136884, Note_on_c, 0, 88, 0
2, 136884, Note_on_c, 0, 76, 0
2, 136884, Note_on_c, 0, 56, 0
2, 136884, Note_on_c, 0, 71, 0
2, 136884, Note_on_c, 0, 73, 0
2, 136884, Note_on_c, 0, 83, 0
2, 136884, Note_on_c, 0, 61, 0
2, 136888, Note_on_c, 0, 37, 0
2, 136891, Control_c, 0, 64, 0
2, 136911, Note_on_c, 0, 49, 0
2, 136919, Note_on_c, 0, 52, 0
2, 136930, Note_on_c, 0, 52, 93
2, 136930, Note_on_c, 0, 57, 94
2, 136932, Note_on_c, 0, 49, 88
2, 136935, Note_on_c, 0, 73, 103
2, 136936, Note_on_c, 0, 85, 104
2, 136937, Note_on_c, 0, 81, 91
2, 136937, Note_on_c, 0, 76, 96
2, 136949, Control_c, 0, 64, 127
2, 137053, Note_on_c, 0, 49, 0
2, 137053, Note_on_c, 0, 52, 0
2, 137053, Note_on_c, 0, 81, 0
2, 137053, Note_on_c, 0, 73, 0
2, 137053, Note_on_c, 0, 76, 0
2, 137055, Note_on_c, 0, 85, 0
2, 137058, Control_c, 0, 64, 0
2, 137064, Note_on_c, 0, 57, 0
2, 137066, Note_on_c, 0, 45, 90
2, 137164, Note_on_c, 0, 45, 0
2, 137197, Note_on_c, 0, 85, 96
2, 137198, Note_on_c, 0, 33, 87
2, 137201, Note_on_c, 0, 73, 86
2, 137237, Note_on_c, 0, 85, 0
2, 137238, Note_on_c, 0, 73, 0
2, 137287, Control_c, 0, 64, 127
2, 137345, Note_on_c, 0, 88, 103
2, 137348, Note_on_c, 0, 78, 103
2, 137352, Note_on_c, 0, 76, 103
2, 137352, Note_on_c, 0, 83, 94
2, 137356, Note_on_c, 0, 33, 0
2, 137466, Note_on_c, 0, 59, 90
2, 137466, Note_on_c, 0, 54, 94
2, 137466, Note_on_c, 0, 51, 87
2, 137602, Note_on_c, 0, 76, 0
2, 137602, Note_on_c, 0, 88, 0
2, 137607, Note_on_c, 0, 47, 96
2, 137608, Note_on_c, 0, 88, 92
2, 137611, Note_on_c, 0, 76, 90
2, 137632, Note_on_c, 0, 54, 0
2, 137632, Note_on_c, 0, 51, 0
2, 137633, Note_on_c, 0, 78, 0
2, 137633, Note_on_c, 0, 59, 0
2, 137636, Note_on_c, 0, 83, 0
2, 137636, Control_c, 0, 64, 0
2, 137679, Note_on_c, 0, 76, 0
2, 137702, Control_c, 0, 64, 127
2, 137717, Note_on_c, 0, 88, 0
2, 137724, Note_on_c, 0, 35, 89
2, 137728, Note_on_c, 0, 90, 107
2, 137730, Note_on_c, 0, 78, 98
2, 137897, Note_on_c, 0, 90, 0
2, 137897, Note_on_c, 0, 78, 0
2, 137898, Control_c, 0, 64, 0
2, 137902, Note_on_c, 0, 47, 0
2, 137917, Note_on_c, 0, 35, 0
2, 137977, Note_on_c, 0, 85, 102
2, 137978, Note_on_c, 0, 61, 100
2, 137978, Note_on_c, 0, 73, 103
2, 137978, Control_c, 0, 64, 127
2, 137981, Note_on_c, 0, 52, 81
2, 137982, Note_on_c, 0, 80, 95
2, 137982, Note_on_c, 0, 76, 83
2, 137984, Note_on_c, 0, 68, 89
2, 137984, Note_on_c, 0, 56, 96
2, 138104, Note_on_c, 0, 49, 80
2, 138232, Note_on_c, 0, 49, 0
2, 138237, Note_on_c, 0, 97, 94
2, 138240, Note_on_c, 0, 85, 0
2, 138242, Note_on_c, 0, 37, 95
2, 138242, Note_on_c, 0, 49, 82
2, 138250, Note_on_c, 0, 85, 81
2, 138310, Note_on_c, 0, 92, 87
2, 138363, Note_on_c, 0, 51, 96
2, 138366, Note_on_c, 0, 39, 92
2, 138378, Note_on_c, 0, 85, 0
2, 138381, Note_on_c, 0, 90, 86
2, 138384, Note_on_c, 0, 85, 78
2, 138485, Note_on_c, 0, 52, 0
2, 138493, Note_on_c, 0, 85, 0
2, 138494, Note_on_c, 0, 40, 95
2, 138495, Note_on_c, 0, 52, 101
2, 138497, Note_on_c, 0, 85, 97
2, 138616, Note_on_c, 0, 39, 0
2, 138616, Note_on_c, 0, 51, 0
2, 138623, Note_on_c, 0, 51, 85
2, 138624, Note_on_c, 0, 73, 0
2, 138627, Note_on_c, 0, 39, 85
2, 138628, Note_on_c, 0, 73, 74
2, 138628, Note_on_c, 0, 78, 92
2, 138746, Note_on_c, 0, 49, 0
2, 138746, Note_on_c, 0, 61, 0
2, 138754, Note_on_c, 0, 37, 0
2, 138754, Note_on_c, 0, 73, 0
2, 138757, Note_on_c, 0, 49, 88
2, 138757, Note_on_c, 0, 61, 87
2, 138758, Note_on_c, 0, 37, 90
2, 138759, Note_on_c, 0, 73, 78
2, 138800, Note_on_c, 0, 68, 0
2, 138810, Note_on_c, 0, 68, 58
2, 138877, Note_on_c, 0, 68, 0
2, 138877, Note_on_c, 0, 73, 0
2, 138877, Note_on_c, 0, 78, 0
2, 138880, Note_on_c, 0, 66, 98
2, 138881, Note_on_c, 0, 68, 89
2, 138883, Note_on_c, 0, 73, 86
2, 138884, Note_on_c, 0, 78, 87
2, 138885, Note_on_c, 0, 37, 0
2, 138886, Note_on_c, 0, 47, 98
2, 138888, Note_on_c, 0, 35, 95
2, 138892, Note_on_c, 0, 35, 0
2, 138893, Note_on_c, 0, 71, 80
2, 138894, Note_on_c, 0, 37, 77
2, 138900, Note_on_c, 0, 71, 0
2, 138980, Note_on_c, 0, 97, 0
2, 138980, Note_on_c, 0, 92, 0
2, 138980, Note_on_c, 0, 73, 0
2, 138980, Note_on_c, 0, 56, 0
2, 138980, Note_on_c, 0, 40, 0
2, 138980, Note_on_c, 0, 61, 0
2, 138980, Note_on_c, 0, 76, 0
2, 138980, Note_on_c, 0, 52, 0
2, 138980, Note_on_c, 0, 47, 0
2, 138980, Note_on_c, 0, 68, 0
2, 138980, Note_on_c, 0, 90, 0
2, 138980, Note_on_c, 0, 85, 0
2, 138980, Note_on_c, 0, 51, 0
2, 138980, Control_c, 0, 64, 0
2, 138981, Note_on_c, 0, 49, 0
2, 138981, Note_on_c, 0, 37, 0
2, 138981, Note_on_c, 0, 78, 0
2, 138981, Note_on_c, 0, 66, 0
2, 139008, Note_on_c, 0, 39, 0
2, 139015, Note_on_c, 0, 80, 0
2, 139023, Note_on_c, 0, 80, 109
2, 139027, Note_on_c, 0, 68, 108
2, 139028, Note_on_c, 0, 73, 95
2, 139029, Note_on_c, 0, 32, 91
2, 139030, Note_on_c, 0, 76, 89
2, 139038, Note_on_c, 0, 32, 0
2, 139046, Control_c, 0, 64, 127
2, 139153, Note_on_c, 0, 80, 0
2, 139161, Note_on_c, 0, 68, 0
2, 139164, Note_on_c, 0, 80, 98
2, 139166, Note_on_c, 0, 68, 94
2, 139166, Note_on_c, 0, 78, 87
2, 139166, Note_on_c, 0, 32, 85
2, 139167, Note_on_c, 0, 44, 86
2, 139284, Note_on_c, 0, 80, 0
2, 139292, Note_on_c, 0, 68, 0
2, 139292, Note_on_c, 0, 78, 0
2, 139295, Note_on_c, 0, 80, 99
2, 139296, Note_on_c, 0, 69, 82
2, 139297, Note_on_c, 0, 68, 93
2, 139299, Note_on_c, 0, 78, 82
2, 139330, Note_on_c, 0, 69, 0
2, 139332, Control_c, 0, 64, 0
2, 139335, Note_on_c, 0, 32, 0
2, 139336, Note_on_c, 0, 44, 0
2, 139340, Note_on_c, 0, 68, 0
2, 139342, Note_on_c, 0, 76, 0
2, 139343, Note_on_c, 0, 80, 0
2, 139353, Note_on_c, 0, 73, 0
2, 139376, Note_on_c, 0, 78, 0
2, 139420, Note_on_c, 0, 47, 97
2, 139420, Note_on_c, 0, 35, 93
2, 139423, Note_on_c, 0, 81, 107
2, 139426, Note_on_c, 0, 69, 98
2, 139461, Control_c, 0, 64, 127
2, 139563, Note_on_c, 0, 78, 107
2, 139567, Note_on_c, 0, 66, 105
2, 139570, Note_on_c, 0, 71, 86
2, 139574, Note_on_c, 0, 75, 84
2, 139683, Note_on_c, 0, 45, 92
2, 139685, Note_on_c, 0, 33, 90
2, 139740, Note_on_c, 0, 78, 0
2, 139740, Note_on_c, 0, 66, 0
2, 139740, Control_c, 0, 64, 0
2, 139741, Note_on_c, 0, 71, 0
2, 139741, Note_on_c, 0, 81, 0
2, 139741, Note_on_c, 0, 75, 0
2, 139741, Note_on_c, 0, 47, 0
2, 139741, Note_on_c, 0, 45, 0
2, 139742, Note_on_c, 0, 33, 0
2, 139745, Note_on_c, 0, 69, 0
2, 139752, Note_on_c, 0, 35, 0
2, 139827, Note_on_c, 0, 47, 101
2, 139828, Note_on_c, 0, 75, 107
2, 139829, Note_on_c, 0, 63, 103
2, 139831, Note_on_c, 0, 35, 94
2, 139832, Note_on_c, 0, 66, 98
2, 139833, Note_on_c, 0, 69, 90
2, 139833, Note_on_c, 0, 71, 87
2, 139837, Control_c, 0, 64, 127
2, 139962, Note_on_c, 0, 37, 100
2, 139963, Note_on_c, 0, 49, 98
2, 140100, Note_on_c, 0, 76, 106
2, 140101, Note_on_c, 0, 68, 103
2, 140102, Note_on_c, 0, 64, 103
2, 140102, Note_on_c, 0, 73, 90
2, 140221, Note_on_c, 0, 35, 0
2, 140221, Note_on_c, 0, 47, 0
2, 140230, Note_on_c, 0, 47, 84
2, 140232, Note_on_c, 0, 35, 80
2, 140256, Note_on_c, 0, 71, 0
2, 140259, Note_on_c, 0, 75, 0
2, 140282, Note_on_c, 0, 63, 0
2, 140282, Control_c, 0, 64, 0
2, 140290, Note_on_c, 0, 69, 0
2, 140336, Note_on_c, 0, 49, 0
2, 140367, Note_on_c, 0, 37, 0
2, 140367, Note_on_c, 0, 66, 0
2, 140367, Control_c, 0, 64, 127
2, 140371, Note_on_c, 0, 37, 92
2, 140371, Note_on_c, 0, 49, 89
2, 140372, Note_on_c, 0, 78, 103
2, 140373, Note_on_c, 0, 66, 103
2, 140495, Note_on_c, 0, 51, 88
2, 140497, Note_on_c, 0, 39, 74
2, 140513, Note_on_c, 0, 64, 0
2, 140582, Note_on_c, 0, 47, 0
2, 140588, Control_c, 0, 64, 0
2, 140590, Note_on_c, 0, 49, 0
2, 140591, Note_on_c, 0, 37, 0
2, 140592, Note_on_c, 0, 66, 0
2, 140592, Note_on_c, 0, 51, 0
2, 140593, Note_on_c, 0, 78, 0
2, 140593, Note_on_c, 0, 39, 0
2, 140597, Note_on_c, 0, 35, 0
2, 140605, Note_on_c, 0, 68, 0
2, 140605, Note_on_c, 0, 73, 0
2, 140605, Note_on_c, 0, 76, 0
2, 140631, Note_on_c, 0, 76, 102
2, 140632, Note_on_c, 0, 52, 101
2, 140633, Note_on_c, 0, 40, 98
2, 140633, Note_on_c, 0, 68, 101
2, 140674, Control_c, 0, 64, 127
2, 140764, Note_on_c, 0, 39, 95
2, 140766, Note_on_c, 0, 51, 92
2, 140768, Note_on_c, 0, 61, 91
2, 140770, Note_on_c, 0, 73, 80
2, 140878, Note_on_c, 0, 39, 0
2, 140881, Note_on_c, 0, 52, 0
2, 140885, Control_c, 0, 64, 0
2, 140887, Note_on_c, 0, 76, 0
2, 140889, Note_on_c, 0, 61, 0
2, 140893, Note_on_c, 0, 68, 0
2, 140893, Note_on_c, 0, 37, 88
2, 140893, Note_on_c, 0, 61, 73
2, 140894, Note_on_c, 0, 25, 83
2, 140904, Note_on_c, 0, 25, 0
2, 140904, Note_on_c, 0, 40, 0
2, 141024, Note_on_c, 0, 71, 94
2, 141024, Note_on_c, 0, 59, 91
2, 141025, Note_on_c, 0, 47, 96
2, 141027, Note_on_c, 0, 35, 90
2, 141050, Note_on_c, 0, 37, 0
2, 141050, Note_on_c, 0, 61, 0
2, 141058, Note_on_c, 0, 51, 0
2, 141058, Note_on_c, 0, 73, 0
2, 141062, Note_on_c, 0, 47, 0
2, 141067, Note_on_c, 0, 71, 0
2, 141069, Note_on_c, 0, 35, 0
2, 141089, Note_on_c, 0, 59, 0
2, 141157, Note_on_c, 0, 33, 96
2, 141158, Note_on_c, 0, 61, 99
2, 141159, Note_on_c, 0, 73, 101
2, 141159, Note_on_c, 0, 64, 92
2, 141159, Note_on_c, 0, 45, 102
2, 141162, Note_on_c, 0, 69, 88
2, 141235, Control_c, 0, 64, 127
2, 141265, Note_on_c, 0, 45, 0
2, 141288, Note_on_c, 0, 73, 0
2, 141293, Note_on_c, 0, 32, 85
2, 141296, Note_on_c, 0, 44, 79
2, 141298, Note_on_c, 0, 73, 75
2, 141419, Note_on_c, 0, 33, 0
2, 141419, Note_on_c, 0, 61, 0
2, 141419, Note_on_c, 0, 73, 0
2, 141428, Note_on_c, 0, 33, 91
2, 141428, Note_on_c, 0, 45, 89
2, 141430, Note_on_c, 0, 73, 86
2, 141430, Note_on_c, 0, 61, 80
2, 141469, Note_on_c, 0, 64, 0
2, 141469, Note_on_c, 0, 61, 0
2, 141471, Note_on_c, 0, 33, 0
2, 141471, Note_on_c, 0, 45, 0
2, 141472, Note_on_c, 0, 73, 0
2, 141473, Note_on_c, 0, 44, 0
2, 141478, Control_c, 0, 64, 0
2, 141480, Note_on_c, 0, 32, 0
2, 141496, Note_on_c, 0, 69, 0
2, 141562, Note_on_c, 0, 64, 101
2, 141563, Note_on_c, 0, 76, 105
2, 141566, Note_on_c, 0, 47, 99
2, 141567, Note_on_c, 0, 66, 101
2, 141568, Note_on_c, 0, 35, 92
2, 141570, Note_on_c, 0, 71, 87
2, 141634, Control_c, 0, 64, 127
2, 141826, Note_on_c, 0, 76, 0
2, 141834, Note_on_c, 0, 64, 0
2, 141837, Note_on_c, 0, 76, 93
2, 141838, Note_on_c, 0, 64, 86
2, 141839, Note_on_c, 0, 45, 91
2, 141840, Note_on_c, 0, 33, 88
2, 141844, Note_on_c, 0, 69, 76
2, 141964, Note_on_c, 0, 35, 0
2, 141964, Note_on_c, 0, 47, 0
2, 141964, Note_on_c, 0, 66, 0
2, 141964, Note_on_c, 0, 69, 0
2, 141969, Note_on_c, 0, 78, 101
2, 141970, Note_on_c, 0, 66, 97
2, 141972, Note_on_c, 0, 71, 0
2, 141973, Note_on_c, 0, 47, 88
2, 141975, Note_on_c, 0, 69, 85
2, 141975, Note_on_c, 0, 35, 89
2, 141976, Note_on_c, 0, 71, 79
2, 142068, Control_c, 0, 64, 0
2, 142072, Note_on_c, 0, 33, 0
2, 142073, Note_on_c, 0, 35, 0
2, 142074, Note_on_c, 0, 47, 0
2, 142075, Note_on_c, 0, 45, 0
2, 142075, Note_on_c, 0, 71, 0
2, 142075, Note_on_c, 0, 66, 0
2, 142076, Note_on_c, 0, 64, 0
2, 142076, Note_on_c, 0, 78, 0
2, 142076, Note_on_c, 0, 76, 0
2, 142095, Note_on_c, 0, 69, 0
2, 142107, Note_on_c, 0, 49, 95
2, 142107, Note_on_c, 0, 37, 95
2, 142109, Note_on_c, 0, 65, 81
2, 142149, Control_c, 0, 64, 127
2, 142246, Note_on_c, 0, 73, 102
2, 142248, Note_on_c, 0, 61, 97
2, 142248, Note_on_c, 0, 49, 0
2, 142251, Note_on_c, 0, 68, 86
2, 142252, Note_on_c, 0, 64, 87
2, 142253, Note_on_c, 0, 49, 90
2, 142264, Note_on_c, 0, 37, 0
2, 142268, Note_on_c, 0, 37, 78
2, 142364, Control_c, 0, 64, 0
2, 142383, Note_on_c, 0, 47, 91
2, 142384, Note_on_c, 0, 35, 82
2, 142502, Note_on_c, 0, 37, 0
2, 142502, Note_on_c, 0, 49, 0
2, 142502, Note_on_c, 0, 61, 0
2, 142502, Note_on_c, 0, 65, 0
2, 142506, Note_on_c, 0, 37, 94
2, 142506, Note_on_c, 0, 49, 87
2, 142507, Note_on_c, 0, 61, 80
2, 142507, Note_on_c, 0, 65, 77
2, 142517, Control_c, 0, 64, 127
2, 142636, Note_on_c, 0, 39, 94
2, 142636, Note_on_c, 0, 51, 91
2, 142702, Note_on_c, 0, 35, 0
2, 142774, Note_on_c, 0, 52, 98
2, 142774, Note_on_c, 0, 40, 96
2, 142844, Control_c, 0, 64, 0
2, 142892, Note_on_c, 0, 59, 89
2, 142894, Note_on_c, 0, 71, 95
2, 142894, Note_on_c, 0, 39, 0
2, 142894, Note_on_c, 0, 51, 0
2, 142899, Note_on_c, 0, 39, 97
2, 142902, Note_on_c, 0, 51, 94
2, 143016, Note_on_c, 0, 65, 0
2, 143024, Note_on_c, 0, 49, 0
2, 143024, Note_on_c, 0, 61, 0
2, 143024, Note_on_c, 0, 73, 0
2, 143027, Note_on_c, 0, 65, 80
2, 143028, Note_on_c, 0, 73, 95
2, 143028, Note_on_c, 0, 61, 92
2, 143032, Note_on_c, 0, 37, 0
2, 143035, Note_on_c, 0, 49, 84
2, 143036, Note_on_c, 0, 37, 87
2, 143040, Note_on_c, 0, 47, 0
2, 143055, Control_c, 0, 64, 127
2, 143155, Note_on_c, 0, 64, 0
2, 143155, Note_on_c, 0, 68, 0
2, 143159, Note_on_c, 0, 47, 90
2, 143160, Note_on_c, 0, 35, 86
2, 143160, Note_on_c, 0, 76, 100
2, 143160, Note_on_c, 0, 64, 89
2, 143164, Note_on_c, 0, 68, 85
2, 143170, Note_on_c, 0, 73, 0
2, 143170, Note_on_c, 0, 65, 0
2, 143176, Note_on_c, 0, 65, 70
2, 143178, Note_on_c, 0, 51, 0
2, 143184, Control_c, 0, 64, 0
2, 143197, Note_on_c, 0, 64, 0
2, 143208, Note_on_c, 0, 39, 0
2, 143208, Note_on_c, 0, 52, 0
2, 143208, Note_on_c, 0, 61, 0
2, 143216, Note_on_c, 0, 37, 0
2, 143216, Note_on_c, 0, 68, 0
2, 143224, Note_on_c, 0, 35, 0
2, 143224, Note_on_c, 0, 59, 0
2, 143224, Note_on_c, 0, 65, 0
2, 143224, Note_on_c, 0, 71, 0
2, 143224, Note_on_c, 0, 76, 0
2, 143232, Note_on_c, 0, 47, 0
2, 143239, Note_on_c, 0, 40, 0
2, 143262, Note_on_c, 0, 49, 0
2, 143290, Note_on_c, 0, 80, 110
2, 143290, Note_on_c, 0, 68, 109
2, 143296, Note_on_c, 0, 45, 98
2, 143296, Note_on_c, 0, 76, 95
2, 143296, Note_on_c, 0, 33, 91
2, 143297, Note_on_c, 0, 73, 97
2, 143301, Control_c, 0, 64, 127
2, 143423, Note_on_c, 0, 32, 84
2, 143424, Note_on_c, 0, 33, 0
2, 143424, Note_on_c, 0, 44, 82
2, 143428, Note_on_c, 0, 33, 84
2, 143466, Note_on_c, 0, 80, 0
2, 143466, Note_on_c, 0, 76, 0
2, 143467, Note_on_c, 0, 33, 0
2, 143468, Note_on_c, 0, 45, 0
2, 143468, Note_on_c, 0, 68, 0
2, 143473, Control_c, 0, 64, 0
2, 143477, Note_on_c, 0, 44, 0
2, 143485, Note_on_c, 0, 32, 0
2, 143485, Note_on_c, 0, 73, 0
2, 143563, Note_on_c, 0, 81, 110
2, 143564, Note_on_c, 0, 69, 104
2, 143566, Note_on_c, 0, 73, 98
2, 143566, Note_on_c, 0, 45, 90
2, 143567, Note_on_c, 0, 33, 85
2, 143568, Note_on_c, 0, 76, 93
2, 143585, Control_c, 0, 64, 127
2, 143657, Note_on_c, 0, 81, 0
2, 143669, Note_on_c, 0, 33, 0
2, 143694, Note_on_c, 0, 47, 98
2, 143696, Note_on_c, 0, 35, 89
2, 143703, Control_c, 0, 64, 0
2, 143708, Note_on_c, 0, 69, 0
2, 143715, Control_c, 0, 64, 127
2, 143746, Note_on_c, 0, 76, 0
2, 143832, Note_on_c, 0, 78, 106
2, 143834, Note_on_c, 0, 66, 105
2, 143835, Note_on_c, 0, 71, 93
2, 143840, Note_on_c, 0, 75, 87
2, 143953, Note_on_c, 0, 45, 0
2, 143964, Note_on_c, 0, 45, 87
2, 143964, Note_on_c, 0, 33, 87
2, 144012, Note_on_c, 0, 66, 0
2, 144013, Note_on_c, 0, 78, 0
2, 144013, Note_on_c, 0, 35, 0
2, 144014, Note_on_c, 0, 33, 0
2, 144014, Note_on_c, 0, 71, 0
2, 144014, Note_on_c, 0, 47, 0
2, 144015, Note_on_c, 0, 75, 0
2, 144015, Note_on_c, 0, 73, 0
2, 144016, Note_on_c, 0, 45, 0
2, 144022, Control_c, 0, 64, 0
2, 144105, Note_on_c, 0, 75, 105
2, 144107, Note_on_c, 0, 63, 101
2, 144109, Note_on_c, 0, 71, 86
2, 144111, Note_on_c, 0, 66, 93
2, 144111, Note_on_c, 0, 69, 86
2, 144111, Note_on_c, 0, 35, 89
2, 144111, Note_on_c, 0, 47, 95
2, 144130, Control_c, 0, 64, 127
2, 144184, Note_on_c, 0, 35, 0
2, 144227, Note_on_c, 0, 37, 101
2, 144229, Note_on_c, 0, 49, 101
2, 144365, Note_on_c, 0, 76, 104
2, 144366, Note_on_c, 0, 64, 103
2, 144366, Note_on_c, 0, 68, 102
2, 144371, Note_on_c, 0, 73, 93
2, 144398, Control_c, 0, 64, 0
2, 144399, Note_on_c, 0, 63, 0
2, 144422, Note_on_c, 0, 47, 0
2, 144445, Note_on_c, 0, 49, 0
2, 144468, Note_on_c, 0, 75, 0
2, 144483, Note_on_c, 0, 76, 0
2, 144491, Note_on_c, 0, 64, 0
2, 144491, Note_on_c, 0, 68, 0
2, 144495, Note_on_c, 0, 76, 101
2, 144496, Note_on_c, 0, 64, 92
2, 144498, Note_on_c, 0, 47, 91
2, 144499, Control_c, 0, 64, 127
2, 144499, Note_on_c, 0, 35, 87
2, 144501, Note_on_c, 0, 68, 80
2, 144614, Note_on_c, 0, 37, 0
2, 144614, Note_on_c, 0, 66, 0
2, 144618, Note_on_c, 0, 49, 96
2, 144619, Note_on_c, 0, 78, 105
2, 144620, Note_on_c, 0, 37, 99
2, 144624, Note_on_c, 0, 66, 104
2, 144751, Note_on_c, 0, 39, 88
2, 144761, Note_on_c, 0, 51, 83
2, 144798, Note_on_c, 0, 64, 0
2, 144804, Note_on_c, 0, 64, 102
2, 144806, Note_on_c, 0, 73, 0
2, 144811, Note_on_c, 0, 73, 83
2, 144816, Note_on_c, 0, 75, 69
2, 144837, Note_on_c, 0, 69, 0
2, 144839, Note_on_c, 0, 66, 0
2, 144840, Note_on_c, 0, 37, 0
2, 144841, Note_on_c, 0, 49, 0
2, 144841, Note_on_c, 0, 64, 0
2, 144841, Note_on_c, 0, 78, 0
2, 144841, Note_on_c, 0, 75, 0
2, 144842, Note_on_c, 0, 68, 0
2, 144844, Note_on_c, 0, 39, 0
2, 144844, Note_on_c, 0, 51, 0
2, 144848, Control_c, 0, 64, 0
2, 144852, Note_on_c, 0, 71, 0
2, 144860, Note_on_c, 0, 35, 0
2, 144860, Note_on_c, 0, 47, 0
2, 144860, Note_on_c, 0, 76, 0
2, 144894, Note_on_c, 0, 52, 106
2, 144895, Note_on_c, 0, 40, 103
2, 144898, Note_on_c, 0, 76, 86
2, 144899, Note_on_c, 0, 68, 106
2, 144900, Note_on_c, 0, 64, 96
2, 144906, Control_c, 0, 64, 127
2, 145029, Note_on_c, 0, 73, 0
2, 145030, Note_on_c, 0, 51, 90
2, 145032, Note_on_c, 0, 39, 87
2, 145033, Note_on_c, 0, 61, 95
2, 145036, Note_on_c, 0, 73, 95
2, 145090, Note_on_c, 0, 64, 0
2, 145094, Note_on_c, 0, 51, 0
2, 145097, Note_on_c, 0, 61, 0
2, 145098, Note_on_c, 0, 52, 0
2, 145101, Control_c, 0, 64, 0
2, 145128, Note_on_c, 0, 40, 0
2, 145128, Note_on_c, 0, 76, 0
2, 145152, Note_on_c, 0, 68, 0
2, 145156, Note_on_c, 0, 65, 73
2, 145157, Note_on_c, 0, 37, 89
2, 145158, Note_on_c, 0, 49, 84
2, 145158, Note_on_c, 0, 61, 74
2, 145161, Note_on_c, 0, 68, 76
2, 145182, Note_on_c, 0, 39, 0
2, 145190, Note_on_c, 0, 73, 0
2, 145191, Note_on_c, 0, 68, 0
2, 145192, Note_on_c, 0, 49, 0
2, 145193, Note_on_c, 0, 37, 0
2, 145205, Note_on_c, 0, 61, 0
2, 145221, Note_on_c, 0, 65, 0
2, 145295, Note_on_c, 0, 71, 96
2, 145296, Note_on_c, 0, 59, 88
2, 145297, Note_on_c, 0, 47, 95
2, 145299, Note_on_c, 0, 35, 90
2, 145300, Note_on_c, 0, 63, 85
2, 145305, Note_on_c, 0, 63, 0
2, 145333, Note_on_c, 0, 71, 0
2, 145335, Note_on_c, 0, 59, 0
2, 145338, Note_on_c, 0, 47, 0
2, 145346, Note_on_c, 0, 35, 0
2, 145423, Note_on_c, 0, 64, 96
2, 145423, Note_on_c, 0, 61, 103
2, 145423, Note_on_c, 0, 73, 104
2, 145424, Note_on_c, 0, 33, 94
2, 145425, Note_on_c, 0, 45, 100
2, 145426, Note_on_c, 0, 69, 88
2, 145443, Control_c, 0, 64, 127
2, 145551, Note_on_c, 0, 33, 0
2, 145559, Note_on_c, 0, 73, 0
2, 145560, Note_on_c, 0, 32, 90
2, 145561, Note_on_c, 0, 33, 93
2, 145564, Note_on_c, 0, 44, 83
2, 145568, Note_on_c, 0, 66, 76
2, 145570, Note_on_c, 0, 73, 83
2, 145689, Note_on_c, 0, 33, 0
2, 145689, Note_on_c, 0, 64, 0
2, 145696, Note_on_c, 0, 64, 89
2, 145696, Note_on_c, 0, 76, 96
2, 145697, Note_on_c, 0, 45, 0
2, 145700, Note_on_c, 0, 33, 90
2, 145700, Note_on_c, 0, 61, 0
2, 145701, Note_on_c, 0, 69, 0
2, 145702, Note_on_c, 0, 73, 0
2, 145702, Note_on_c, 0, 45, 84
2, 145702, Note_on_c, 0, 32, 0
2, 145706, Control_c, 0, 64, 0
2, 145712, Note_on_c, 0, 44, 0
2, 145728, Note_on_c, 0, 66, 0
2, 145739, Note_on_c, 0, 76, 0
2, 145751, Note_on_c, 0, 33, 0
2, 145751, Note_on_c, 0, 45, 0
2, 145758, Note_on_c, 0, 64, 0
2, 145832, Note_on_c, 0, 78, 108
2, 145835, Note_on_c, 0, 66, 107
2, 145839, Note_on_c, 0, 47, 100
2, 145841, Note_on_c, 0, 75, 88
2, 145843, Note_on_c, 0, 35, 93
2, 145866, Control_c, 0, 64, 127
2, 146088, Note_on_c, 0, 80, 104
2, 146089, Note_on_c, 0, 68, 100
2, 146092, Note_on_c, 0, 45, 94
2, 146092, Note_on_c, 0, 33, 95
2, 146219, Note_on_c, 0, 47, 0
2, 146223, Note_on_c, 0, 83, 103
2, 146224, Note_on_c, 0, 71, 94
2, 146224, Note_on_c, 0, 47, 97
2, 146224, Note_on_c, 0, 59, 90
2, 146322, Note_on_c, 0, 33, 0
2, 146322, Note_on_c, 0, 45, 0
2, 146323, Note_on_c, 0, 66, 0
2, 146323, Note_on_c, 0, 75, 0
2, 146323, Note_on_c, 0, 68, 0
2, 146323, Note_on_c, 0, 35, 0
2, 146323, Note_on_c, 0, 78, 0
2, 146324, Note_on_c, 0, 83, 0
2, 146324, Note_on_c, 0, 59, 0
2, 146328, Control_c, 0, 64, 0
2, 146342, Note_on_c, 0, 47, 0
2, 146342, Note_on_c, 0, 71, 0
2, 146345, Note_on_c, 0, 37, 107
2, 146346, Note_on_c, 0, 49, 98
2, 146347, Note_on_c, 0, 65, 94
2, 146349, Note_on_c, 0, 77, 89
2, 146403, Control_c, 0, 64, 127
2, 146434, Note_on_c, 0, 49, 0
2, 146442, Note_on_c, 0, 37, 0
2, 146465, Note_on_c, 0, 65, 0
2, 146480, Note_on_c, 0, 80, 0
2, 146481, Note_on_c, 0, 85, 102
2, 146483, Note_on_c, 0, 37, 94
2, 146484, Note_on_c, 0, 73, 105
2, 146485, Note_on_c, 0, 49, 85
2, 146485, Note_on_c, 0, 80, 88
2, 146488, Note_on_c, 0, 76, 99
2, 146603, Note_on_c, 0, 37, 0
2, 146603, Note_on_c, 0, 49, 0
2, 146610, Note_on_c, 0, 49, 77
2, 146612, Note_on_c, 0, 37, 86
2, 146749, Note_on_c, 0, 85, 0
2, 146757, Note_on_c, 0, 76, 0
2, 146757, Note_on_c, 0, 80, 0
2, 146759, Note_on_c, 0, 44, 77
2, 146760, Note_on_c, 0, 85, 95
2, 146767, Note_on_c, 0, 76, 79
2, 146768, Note_on_c, 0, 80, 79
2, 146856, Note_on_c, 0, 73, 0
2, 146861, Note_on_c, 0, 73, 87
2, 146872, Note_on_c, 0, 49, 0
2, 146881, Note_on_c, 0, 49, 77
2, 146903, Note_on_c, 0, 85, 0
2, 146908, Note_on_c, 0, 85, 85
2, 146964, Note_on_c, 0, 73, 0
2, 146968, Note_on_c, 0, 73, 81
2, 147025, Note_on_c, 0, 85, 0
2, 147031, Note_on_c, 0, 85, 97
2, 147032, Note_on_c, 0, 52, 95
2, 147095, Note_on_c, 0, 73, 0
2, 147103, Note_on_c, 0, 73, 83
2, 147156, Note_on_c, 0, 85, 0
2, 147164, Note_on_c, 0, 44, 0
2, 147164, Note_on_c, 0, 76, 0
2, 147166, Note_on_c, 0, 85, 88
2, 147168, Note_on_c, 0, 56, 93
2, 147169, Note_on_c, 0, 44, 73
2, 147170, Note_on_c, 0, 76, 84
2, 147233, Note_on_c, 0, 73, 0
2, 147239, Note_on_c, 0, 73, 56
2, 147294, Note_on_c, 0, 73, 0
2, 147294, Note_on_c, 0, 76, 0
2, 147294, Note_on_c, 0, 85, 0
2, 147302, Note_on_c, 0, 61, 98
2, 147302, Note_on_c, 0, 80, 0
2, 147303, Note_on_c, 0, 85, 101
2, 147304, Note_on_c, 0, 73, 98
2, 147305, Note_on_c, 0, 76, 91
2, 147307, Note_on_c, 0, 80, 87
2, 147308, Note_on_c, 0, 49, 0
2, 147315, Note_on_c, 0, 82, 74
2, 147371, Note_on_c, 0, 73, 0
2, 147382, Note_on_c, 0, 73, 87
2, 147440, Note_on_c, 0, 80, 0
2, 147440, Note_on_c, 0, 85, 0
2, 147446, Note_on_c, 0, 85, 83
2, 147448, Note_on_c, 0, 80, 65
2, 147509, Note_on_c, 0, 73, 0
2, 147514, Note_on_c, 0, 73, 79
2, 147531, Note_on_c, 0, 80, 0
2, 147532, Note_on_c, 0, 37, 0
2, 147532, Note_on_c, 0, 77, 0
2, 147532, Note_on_c, 0, 82, 0
2, 147533, Note_on_c, 0, 52, 0
2, 147533, Note_on_c, 0, 56, 0
2, 147533, Note_on_c, 0, 44, 0
2, 147535, Note_on_c, 0, 61, 0
2, 147544, Control_c, 0, 64, 0
2, 147555, Note_on_c, 0, 73, 0
2, 147562, Note_on_c, 0, 45, 104
2, 147563, Note_on_c, 0, 76, 0
2, 147563, Note_on_c, 0, 85, 0
2, 147566, Note_on_c, 0, 33, 99
2, 147567, Note_on_c, 0, 76, 93
2, 147567, Note_on_c, 0, 85, 100
2, 147601, Control_c, 0, 64, 127
2, 147694, Note_on_c, 0, 76, 0
2, 147694, Note_on_c, 0, 85, 0
2, 147697, Note_on_c, 0, 32, 93
2, 147699, Note_on_c, 0, 44, 91
2, 147703, Note_on_c, 0, 85, 93
2, 147705, Note_on_c, 0, 76, 90
2, 147706, Note_on_c, 0, 73, 86
2, 147816, Note_on_c, 0, 33, 0
2, 147816, Note_on_c, 0, 45, 0
2, 147820, Note_on_c, 0, 45, 94
2, 147823, Note_on_c, 0, 33, 91
2, 147824, Note_on_c, 0, 76, 0
2, 147824, Note_on_c, 0, 85, 0
2, 147829, Note_on_c, 0, 81, 77
2, 147829, Note_on_c, 0, 85, 87
2, 147829, Note_on_c, 0, 76, 87
2, 147878, Note_on_c, 0, 32, 0
2, 147878, Note_on_c, 0, 44, 0
2, 147881, Note_on_c, 0, 33, 0
2, 147882, Note_on_c, 0, 45, 0
2, 147882, Note_on_c, 0, 85, 0
2, 147882, Note_on_c, 0, 76, 0
2, 147886, Note_on_c, 0, 73, 0
2, 147886, Note_on_c, 0, 81, 0
2, 147886, Control_c, 0, 64, 0
2, 147960, Note_on_c, 0, 85, 100
2, 147960, Note_on_c, 0, 47, 101
2, 147961, Note_on_c, 0, 35, 95
2, 147964, Note_on_c, 0, 81, 88
2, 147965, Note_on_c, 0, 73, 95
2, 147968, Note_on_c, 0, 76, 88
2, 147985, Control_c, 0, 64, 127
2, 148032, Note_on_c, 0, 73, 0
2, 148032, Note_on_c, 0, 76, 0
2, 148036, Note_on_c, 0, 73, 88
2, 148040, Note_on_c, 0, 76, 71
2, 148093, Note_on_c, 0, 85, 0
2, 148101, Note_on_c, 0, 76, 0
2, 148101, Note_on_c, 0, 81, 0
2, 148104, Note_on_c, 0, 85, 87
2, 148108, Note_on_c, 0, 76, 63
2, 148109, Note_on_c, 0, 81, 66
2, 148162, Note_on_c, 0, 73, 0
2, 148166, Note_on_c, 0, 73, 80
2, 148224, Note_on_c, 0, 76, 0
2, 148224, Note_on_c, 0, 81, 0
2, 148224, Note_on_c, 0, 85, 0
2, 148227, Note_on_c, 0, 45, 97
2, 148228, Note_on_c, 0, 33, 94
2, 148229, Note_on_c, 0, 85, 95
2, 148232, Note_on_c, 0, 76, 84
2, 148234, Note_on_c, 0, 81, 81
2, 148289, Note_on_c, 0, 47, 0
2, 148290, Note_on_c, 0, 35, 0
2, 148290, Note_on_c, 0, 33, 0
2, 148291, Note_on_c, 0, 45, 0
2, 148292, Note_on_c, 0, 76, 0
2, 148295, Note_on_c, 0, 85, 0
2, 148296, Note_on_c, 0, 73, 0
2, 148298, Control_c, 0, 64, 0
2, 148346, Note_on_c, 0, 81, 0
2, 148359, Note_on_c, 0, 47, 88
2, 148359, Note_on_c, 0, 85, 97
2, 148360, Note_on_c, 0, 35, 82
2, 148360, Note_on_c, 0, 73, 93
2, 148363, Note_on_c, 0, 80, 88
2, 148366, Note_on_c, 0, 76, 84
2, 148403, Note_on_c, 0, 73, 0
2, 148423, Note_on_c, 0, 80, 0
2, 148439, Note_on_c, 0, 35, 0
2, 148446, Note_on_c, 0, 47, 0
2, 148485, Note_on_c, 0, 85, 0
2, 148492, Note_on_c, 0, 76, 0
2, 148494, Note_on_c, 0, 49, 101
2, 148495, Note_on_c, 0, 37, 106
2, 148496, Note_on_c, 0, 85, 94
2, 148498, Note_on_c, 0, 73, 95
2, 148499, Note_on_c, 0, 76, 95
2, 148523, Control_c, 0, 64, 127
2, 148561, Note_on_c, 0, 73, 0
2, 148570, Note_on_c, 0, 73, 59
2, 148623, Note_on_c, 0, 85, 0
2, 148631, Note_on_c, 0, 73, 0
2, 148631, Note_on_c, 0, 76, 0
2, 148634, Note_on_c, 0, 85, 88
2, 148637, Note_on_c, 0, 76, 63
2, 148637, Note_on_c, 0, 73, 74
2, 148753, Note_on_c, 0, 85, 0
2, 148761, Note_on_c, 0, 76, 0
2, 148762, Note_on_c, 0, 85, 90
2, 148763, Note_on_c, 0, 73, 0
2, 148764, Note_on_c, 0, 47, 93
2, 148764, Note_on_c, 0, 81, 85
2, 148764, Note_on_c, 0, 35, 86
2, 148767, Note_on_c, 0, 78, 81
2, 148767, Note_on_c, 0, 76, 81
2, 148867, Note_on_c, 0, 35, 0
2, 148867, Control_c, 0, 64, 0
2, 148868, Note_on_c, 0, 47, 0
2, 148876, Note_on_c, 0, 81, 0
2, 148884, Note_on_c, 0, 37, 0
2, 148884, Note_on_c, 0, 49, 0
2, 148884, Note_on_c, 0, 78, 0
2, 148884, Note_on_c, 0, 85, 0
2, 148889, Note_on_c, 0, 49, 92
2, 148890, Note_on_c, 0, 37, 94
2, 148890, Note_on_c, 0, 73, 92
2, 148892, Note_on_c, 0, 76, 0
2, 148894, Note_on_c, 0, 85, 87
2, 148896, Note_on_c, 0, 76, 88
2, 148938, Note_on_c, 0, 73, 0
2, 148961, Note_on_c, 0, 37, 0
2, 148976, Note_on_c, 0, 49, 0
2, 149015, Note_on_c, 0, 85, 0
2, 149019, Note_on_c, 0, 39, 98
2, 149019, Note_on_c, 0, 51, 97
2, 149024, Note_on_c, 0, 85, 77
2, 149026, Note_on_c, 0, 73, 87
2, 149029, Note_on_c, 0, 77, 81
2, 149067, Note_on_c, 0, 51, 0
2, 149073, Note_on_c, 0, 39, 0
2, 149091, Note_on_c, 0, 77, 0
2, 149099, Note_on_c, 0, 76, 0
2, 149145, Note_on_c, 0, 73, 0
2, 149145, Note_on_c, 0, 85, 0
2, 149153, Note_on_c, 0, 52, 100
2, 149155, Note_on_c, 0, 76, 86
2, 149156, Note_on_c, 0, 85, 92
2, 149156, Note_on_c, 0, 40, 94
2, 149156, Note_on_c, 0, 73, 90
2, 149157, Note_on_c, 0, 80, 81
2, 149188, Note_on_c, 0, 40, 0
2, 149189, Note_on_c, 0, 52, 0
2, 149237, Note_on_c, 0, 76, 0
2, 149253, Note_on_c, 0, 73, 0
2, 149276, Note_on_c, 0, 85, 0
2, 149280, Note_on_c, 0, 85, 77
2, 149281, Note_on_c, 0, 51, 93
2, 149282, Note_on_c, 0, 79, 76
2, 149283, Note_on_c, 0, 39, 93
2, 149285, Note_on_c, 0, 73, 75
2, 149360, Note_on_c, 0, 73, 0
2, 149391, Note_on_c, 0, 51, 0
2, 149391, Note_on_c, 0, 80, 0
2, 149399, Note_on_c, 0, 39, 0
2, 149399, Note_on_c, 0, 79, 0
2, 149406, Note_on_c, 0, 85, 0
2, 149410, Note_on_c, 0, 85, 86
2, 149415, Note_on_c, 0, 73, 84
2, 149416, Note_on_c, 0, 76, 78
2, 149416, Note_on_c, 0, 49, 86
2, 149416, Note_on_c, 0, 37, 94
2, 149449, Note_on_c, 0, 37, 0
2, 149475, Note_on_c, 0, 49, 0
2, 149537, Note_on_c, 0, 76, 0
2, 149537, Note_on_c, 0, 85, 0
2, 149541, Note_on_c, 0, 85, 87
2, 149544, Note_on_c, 0, 78, 84
2, 149545, Note_on_c, 0, 76, 85
2, 149548, Note_on_c, 0, 47, 95
2, 149548, Note_on_c, 0, 35, 87
2, 149549, Note_on_c, 0, 80, 78
2, 149596, Note_on_c, 0, 47, 0
2, 149598, Note_on_c, 0, 35, 0
2, 149601, Note_on_c, 0, 73, 0
2, 149601, Note_on_c, 0, 85, 0
2, 149602, Note_on_c, 0, 76, 0
2, 149603, Note_on_c, 0, 80, 0
2, 149606, Note_on_c, 0, 78, 0
2, 149676, Note_on_c, 0, 45, 102
2, 149677, Note_on_c, 0, 85, 100
2, 149677, Note_on_c, 0, 33, 96
2, 149679, Note_on_c, 0, 76, 94
2, 149713, Control_c, 0, 64, 127
2, 149806, Note_on_c, 0, 76, 0
2, 149806, Note_on_c, 0, 85, 0
2, 149810, Note_on_c, 0, 66, 86
2, 149811, Note_on_c, 0, 32, 85
2, 149811, Note_on_c, 0, 44, 89
2, 149811, Note_on_c, 0, 76, 79
2, 149813, Note_on_c, 0, 85, 82
2, 149814, Note_on_c, 0, 73, 68
2, 149821, Note_on_c, 0, 66, 0
2, 149821, Note_on_c, 0, 73, 0
2, 149936, Note_on_c, 0, 33, 0
2, 149936, Note_on_c, 0, 45, 0
2, 149936, Note_on_c, 0, 76, 0
2, 149936, Note_on_c, 0, 85, 0
2, 149940, Note_on_c, 0, 45, 88
2, 149941, Note_on_c, 0, 33, 86
2, 149944, Note_on_c, 0, 81, 71
2, 149945, Note_on_c, 0, 85, 98
2, 149947, Note_on_c, 0, 73, 88
2, 149947, Note_on_c, 0, 76, 81
2, 149949, Note_on_c, 0, 32, 0
2, 149955, Note_on_c, 0, 44, 0
2, 149973, Note_on_c, 0, 76, 0
2, 149978, Control_c, 0, 64, 0
2, 149990, Note_on_c, 0, 81, 0
2, 149998, Note_on_c, 0, 45, 0
2, 149998, Note_on_c, 0, 73, 0
2, 150005, Note_on_c, 0, 33, 0
2, 150005, Note_on_c, 0, 85, 0
2, 150076, Note_on_c, 0, 47, 101
2, 150077, Note_on_c, 0, 85, 99
2, 150077, Note_on_c, 0, 35, 97
2, 150079, Note_on_c, 0, 33, 90
2, 150079, Note_on_c, 0, 81, 91
2, 150080, Note_on_c, 0, 88, 92
2, 150084, Note_on_c, 0, 76, 90
2, 150105, Control_c, 0, 64, 127
2, 150213, Note_on_c, 0, 85, 0
2, 150220, Note_on_c, 0, 81, 0
2, 150224, Note_on_c, 0, 85, 84
2, 150226, Note_on_c, 0, 81, 70
2, 150230, Note_on_c, 0, 73, 66
2, 150282, Note_on_c, 0, 73, 0
2, 150289, Note_on_c, 0, 73, 67
2, 150336, Note_on_c, 0, 33, 0
2, 150340, Note_on_c, 0, 45, 89
2, 150343, Note_on_c, 0, 76, 0
2, 150343, Note_on_c, 0, 85, 0
2, 150344, Note_on_c, 0, 33, 86
2, 150345, Note_on_c, 0, 81, 0
2, 150347, Note_on_c, 0, 35, 0
2, 150350, Note_on_c, 0, 76, 81
2, 150351, Note_on_c, 0, 85, 90
2, 150368, Control_c, 0, 64, 0
2, 150386, Note_on_c, 0, 45, 0
2, 150389, Note_on_c, 0, 47, 0
2, 150397, Note_on_c, 0, 88, 0
2, 150405, Note_on_c, 0, 73, 0
2, 150412, Note_on_c, 0, 33, 0
2, 150466, Note_on_c, 0, 85, 0
2, 150472, Note_on_c, 0, 47, 93
2, 150474, Note_on_c, 0, 76, 0
2, 150475, Note_on_c, 0, 35, 88
2, 150477, Note_on_c, 0, 85, 90
2, 150481, Note_on_c, 0, 76, 78
2, 150510, Note_on_c, 0, 47, 0
2, 150513, Note_on_c, 0, 35, 0
2, 150516, Note_on_c, 0, 76, 0
2, 150518, Note_on_c, 0, 85, 0
2, 150609, Note_on_c, 0, 49, 101
2, 150612, Note_on_c, 0, 37, 105
2, 150615, Note_on_c, 0, 73, 97
2, 150616, Note_on_c, 0, 85, 91
2, 150616, Note_on_c, 0, 76, 93
2, 150627, Control_c, 0, 64, 127
2, 150743, Note_on_c, 0, 73, 0
2, 150743, Note_on_c, 0, 76, 0
2, 150743, Note_on_c, 0, 85, 0
2, 150748, Note_on_c, 0, 76, 80
2, 150748, Note_on_c, 0, 85, 80
2, 150750, Note_on_c, 0, 73, 82
2, 150755, Note_on_c, 0, 78, 73
2, 150865, Note_on_c, 0, 85, 0
2, 150869, Note_on_c, 0, 37, 0
2, 150870, Note_on_c, 0, 49, 0
2, 150870, Note_on_c, 0, 78, 0
2, 150873, Note_on_c, 0, 73, 0
2, 150877, Note_on_c, 0, 85, 94
2, 150881, Note_on_c, 0, 76, 0
2, 150882, Note_on_c, 0, 35, 85
2, 150882, Note_on_c, 0, 73, 87
2, 150883, Note_on_c, 0, 47, 91
2, 150884, Note_on_c, 0, 80, 80
2, 150884, Control_c, 0, 64, 0
2, 150890, Note_on_c, 0, 76, 73
2, 150942, Control_c, 0, 64, 127
2, 150950, Note_on_c, 0, 73, 0
2, 150965, Note_on_c, 0, 76, 0
2, 150996, Note_on_c, 0, 35, 0
2, 151004, Note_on_c, 0, 85, 0
2, 151015, Note_on_c, 0, 85, 86
2, 151015, Note_on_c, 0, 49, 88
2, 151016, Note_on_c, 0, 76, 81
2, 151016, Note_on_c, 0, 37, 91
2, 151018, Note_on_c, 0, 73, 81
2, 151050, Note_on_c, 0, 47, 0
2, 151111, Note_on_c, 0, 73, 0
2, 151134, Note_on_c, 0, 85, 0
2, 151140, Note_on_c, 0, 39, 94
2, 151142, Note_on_c, 0, 76, 0
2, 151144, Note_on_c, 0, 85, 86
2, 151144, Note_on_c, 0, 51, 94
2, 151146, Note_on_c, 0, 79, 84
2, 151149, Note_on_c, 0, 73, 80
2, 151151, Note_on_c, 0, 76, 76
2, 151157, Note_on_c, 0, 80, 0
2, 151180, Note_on_c, 0, 49, 0
2, 151196, Note_on_c, 0, 73, 0
2, 151206, Note_on_c, 0, 73, 76
2, 151265, Note_on_c, 0, 76, 0
2, 151265, Note_on_c, 0, 85, 0
2, 151272, Note_on_c, 0, 73, 0
2, 151275, Note_on_c, 0, 52, 100
2, 151275, Note_on_c, 0, 85, 89
2, 151276, Note_on_c, 0, 76, 89
2, 151276, Note_on_c, 0, 40, 94
2, 151277, Note_on_c, 0, 73, 87
2, 151282, Note_on_c, 0, 80, 82
2, 151388, Note_on_c, 0, 37, 0
2, 151388, Note_on_c, 0, 39, 0
2, 151388, Note_on_c, 0, 51, 0
2, 151395, Note_on_c, 0, 85, 0
2, 151396, Note_on_c, 0, 39, 93
2, 151397, Note_on_c, 0, 51, 86
2, 151400, Note_on_c, 0, 85, 81
2, 151411, Note_on_c, 0, 76, 0
2, 151420, Note_on_c, 0, 76, 64
2, 151511, Note_on_c, 0, 76, 0
2, 151515, Note_on_c, 0, 37, 92
2, 151518, Note_on_c, 0, 49, 87
2, 151518, Note_on_c, 0, 85, 0
2, 151521, Note_on_c, 0, 76, 76
2, 151527, Note_on_c, 0, 85, 64
2, 151572, Note_on_c, 0, 80, 0
2, 151577, Note_on_c, 0, 80, 98
2, 151649, Note_on_c, 0, 85, 0
2, 151653, Note_on_c, 0, 47, 92
2, 151654, Note_on_c, 0, 85, 94
2, 151655, Note_on_c, 0, 35, 88
2, 151722, Note_on_c, 0, 88, 82
2, 151768, Control_c, 0, 64, 0
2, 151772, Note_on_c, 0, 51, 0
2, 151772, Note_on_c, 0, 79, 0
2, 151774, Note_on_c, 0, 49, 0
2, 151774, Note_on_c, 0, 37, 0
2, 151774, Note_on_c, 0, 35, 0
2, 151774, Note_on_c, 0, 47, 0
2, 151774, Note_on_c, 0, 73, 0
2, 151775, Note_on_c, 0, 76, 0
2, 151775, Note_on_c, 0, 88, 0
2, 151779, Note_on_c, 0, 52, 0
2, 151787, Note_on_c, 0, 40, 0
2, 151787, Note_on_c, 0, 80, 0
2, 151792, Note_on_c, 0, 45, 105
2, 151798, Note_on_c, 0, 33, 96
2, 151799, Note_on_c, 0, 97, 106
2, 151802, Note_on_c, 0, 39, 0
2, 151825, Control_c, 0, 64, 127
2, 151874, Note_on_c, 0, 92, 91
2, 151925, Note_on_c, 0, 33, 0
2, 151932, Note_on_c, 0, 32, 84
2, 151933, Note_on_c, 0, 33, 89
2, 151936, Note_on_c, 0, 44, 87
2, 151979, Note_on_c, 0, 85, 0
2, 151990, Note_on_c, 0, 85, 76
2, 152048, Note_on_c, 0, 92, 0
2, 152056, Note_on_c, 0, 33, 0
2, 152056, Note_on_c, 0, 45, 0
2, 152059, Note_on_c, 0, 92, 105
2, 152066, Note_on_c, 0, 33, 88
2, 152066, Note_on_c, 0, 45, 99
2, 152108, Note_on_c, 0, 33, 0
2, 152110, Note_on_c, 0, 44, 0
2, 152113, Note_on_c, 0, 85, 0
2, 152113, Note_on_c, 0, 45, 0
2, 152116, Control_c, 0, 64, 0
2, 152117, Note_on_c, 0, 32, 0
2, 152117, Note_on_c, 0, 97, 0
2, 152191, Note_on_c, 0, 47, 102
2, 152194, Note_on_c, 0, 35, 93
2, 152197, Note_on_c, 0, 85, 90
2, 152197, Note_on_c, 0, 78, 91
2, 152200, Note_on_c, 0, 81, 90
2, 152209, Note_on_c, 0, 81, 0
2, 152217, Control_c, 0, 64, 127
2, 152225, Note_on_c, 0, 92, 0
2, 152326, Note_on_c, 0, 88, 95
2, 152378, Note_on_c, 0, 85, 0
2, 152383, Note_on_c, 0, 85, 89
2, 152453, Note_on_c, 0, 33, 87
2, 152454, Note_on_c, 0, 45, 91
2, 152456, Note_on_c, 0, 81, 79
2, 152466, Note_on_c, 0, 69, 74
2, 152471, Note_on_c, 0, 69, 0
2, 152570, Note_on_c, 0, 85, 0
2, 152578, Note_on_c, 0, 35, 0
2, 152581, Note_on_c, 0, 85, 101
2, 152586, Note_on_c, 0, 47, 0
2, 152586, Note_on_c, 0, 88, 0
2, 152588, Note_on_c, 0, 76, 80
2, 152589, Note_on_c, 0, 35, 91
2, 152591, Note_on_c, 0, 47, 94
2, 152670, Note_on_c, 0, 33, 0
2, 152672, Note_on_c, 0, 78, 0
2, 152672, Note_on_c, 0, 45, 0
2, 152673, Note_on_c, 0, 35, 0
2, 152673, Note_on_c, 0, 81, 0
2, 152673, Control_c, 0, 64, 0
2, 152673, Note_on_c, 0, 47, 0
2, 152693, Note_on_c, 0, 85, 0
2, 152709, Note_on_c, 0, 76, 0
2, 152713, Note_on_c, 0, 49, 99
2, 152714, Note_on_c, 0, 37, 97
2, 152715, Note_on_c, 0, 65, 85
2, 152719, Note_on_c, 0, 76, 88
2, 152721, Note_on_c, 0, 73, 84
2, 152724, Note_on_c, 0, 65, 0
2, 152755, Control_c, 0, 64, 127
2, 152851, Note_on_c, 0, 92, 95
2, 152852, Note_on_c, 0, 80, 103
2, 152977, Note_on_c, 0, 37, 0
2, 152983, Note_on_c, 0, 47, 88
2, 152983, Note_on_c, 0, 35, 80
2, 152986, Note_on_c, 0, 59, 81
2, 152988, Note_on_c, 0, 37, 70
2, 152988, Note_on_c, 0, 61, 80
2, 152988, Note_on_c, 0, 68, 79
2, 152993, Note_on_c, 0, 61, 0
2, 153108, Note_on_c, 0, 37, 0
2, 153108, Note_on_c, 0, 49, 0
2, 153108, Note_on_c, 0, 76, 0
2, 153112, Note_on_c, 0, 49, 86
2, 153114, Note_on_c, 0, 76, 93
2, 153114, Note_on_c, 0, 37, 85
2, 153169, Note_on_c, 0, 73, 0
2, 153179, Note_on_c, 0, 73, 82
2, 153181, Note_on_c, 0, 61, 63
2, 153239, Note_on_c, 0, 61, 0
2, 153239, Note_on_c, 0, 68, 0
2, 153246, Note_on_c, 0, 39, 89
2, 153246, Note_on_c, 0, 73, 0
2, 153249, Note_on_c, 0, 68, 81
2, 153249, Note_on_c, 0, 61, 80
2, 153250, Note_on_c, 0, 51, 93
2, 153252, Note_on_c, 0, 73, 73
2, 153329, Note_on_c, 0, 92, 0
2, 153329, Note_on_c, 0, 35, 0
2, 153329, Note_on_c, 0, 51, 0
2, 153329, Note_on_c, 0, 76, 0
2, 153329, Note_on_c, 0, 80, 0
2, 153330, Note_on_c, 0, 49, 0
2, 153330, Note_on_c, 0, 47, 0
2, 153330, Note_on_c, 0, 39, 0
2, 153330, Note_on_c, 0, 59, 0
2, 153331, Note_on_c, 0, 37, 0
2, 153335, Control_c, 0, 64, 0
2, 153354, Note_on_c, 0, 61, 0
2, 153369, Note_on_c, 0, 68, 0
2, 153369, Note_on_c, 0, 73, 0
2, 153377, Note_on_c, 0, 73, 100
2, 153379, Note_on_c, 0, 40, 99
2, 153380, Note_on_c, 0, 52, 101
2, 153382, Note_on_c, 0, 64, 88
2, 153392, Note_on_c, 0, 64, 0
2, 153415, Control_c, 0, 64, 127
2, 153441, Note_on_c, 0, 68, 47
2, 153505, Note_on_c, 0, 51, 92
2, 153511, Note_on_c, 0, 39, 91
2, 153513, Note_on_c, 0, 61, 77
2, 153515, Note_on_c, 0, 64, 76
2, 153623, Note_on_c, 0, 68, 0
2, 153628, Note_on_c, 0, 68, 106
2, 153630, Note_on_c, 0, 61, 0
2, 153634, Note_on_c, 0, 49, 82
2, 153636, Note_on_c, 0, 65, 74
2, 153637, Note_on_c, 0, 59, 70
2, 153640, Note_on_c, 0, 61, 64
2, 153640, Note_on_c, 0, 37, 87
2, 153646, Note_on_c, 0, 59, 0
2, 153699, Note_on_c, 0, 64, 0
2, 153706, Note_on_c, 0, 64, 68
2, 153768, Note_on_c, 0, 37, 0
2, 153768, Note_on_c, 0, 61, 0
2, 153768, Note_on_c, 0, 68, 0
2, 153773, Note_on_c, 0, 47, 92
2, 153773, Note_on_c, 0, 56, 88
2, 153773, Note_on_c, 0, 35, 93
2, 153773, Note_on_c, 0, 68, 81
2, 153774, Note_on_c, 0, 63, 72
2, 153775, Note_on_c, 0, 61, 77
2, 153777, Note_on_c, 0, 37, 83
2, 153860, Note_on_c, 0, 73, 0
2, 153860, Note_on_c, 0, 52, 0
2, 153860, Note_on_c, 0, 51, 0
2, 153860, Note_on_c, 0, 68, 0
2, 153860, Note_on_c, 0, 39, 0
2, 153861, Note_on_c, 0, 65, 0
2, 153861, Note_on_c, 0, 40, 0
2, 153861, Control_c, 0, 64, 0
2, 153861, Note_on_c, 0, 47, 0
2, 153861, Note_on_c, 0, 56, 0
2, 153861, Note_on_c, 0, 37, 0
2, 153861, Note_on_c, 0, 49, 0
2, 153862, Note_on_c, 0, 35, 0
2, 153868, Note_on_c, 0, 63, 0
2, 153876, Note_on_c, 0, 64, 0
2, 153899, Note_on_c, 0, 61, 0
2, 153903, Note_on_c, 0, 69, 104
2, 153904, Note_on_c, 0, 61, 92
2, 153904, Note_on_c, 0, 57, 97
2, 153905, Note_on_c, 0, 45, 98
2, 153907, Note_on_c, 0, 33, 94
2, 153912, Note_on_c, 0, 66, 68
2, 153930, Control_c, 0, 64, 127
2, 153993, Note_on_c, 0, 33, 0
2, 153994, Control_c, 0, 64, 0
2, 153994, Note_on_c, 0, 45, 0
2, 153995, Note_on_c, 0, 61, 0
2, 153995, Note_on_c, 0, 57, 0
2, 154014, Note_on_c, 0, 69, 0
2, 154041, Note_on_c, 0, 68, 93
2, 154043, Note_on_c, 0, 56, 94
2, 154044, Note_on_c, 0, 44, 86
2, 154045, Note_on_c, 0, 66, 0
2, 154047, Note_on_c, 0, 32, 85
2, 154048, Note_on_c, 0, 61, 75
2, 154050, Note_on_c, 0, 66, 73
2, 154072, Note_on_c, 0, 56, 0
2, 154072, Note_on_c, 0, 44, 0
2, 154073, Note_on_c, 0, 68, 0
2, 154075, Note_on_c, 0, 32, 0
2, 154083, Note_on_c, 0, 66, 0
2, 154091, Note_on_c, 0, 61, 0
2, 154178, Note_on_c, 0, 69, 98
2, 154179, Note_on_c, 0, 57, 86
2, 154180, Note_on_c, 0, 45, 86
2, 154181, Note_on_c, 0, 33, 87
2, 154182, Note_on_c, 0, 61, 72
2, 154186, Note_on_c, 0, 66, 73
2, 154208, Note_on_c, 0, 57, 0
2, 154210, Note_on_c, 0, 69, 0
2, 154212, Note_on_c, 0, 33, 0
2, 154229, Note_on_c, 0, 45, 0
2, 154252, Note_on_c, 0, 61, 0
2, 154260, Note_on_c, 0, 66, 0
2, 154318, Note_on_c, 0, 71, 105
2, 154319, Note_on_c, 0, 63, 96
2, 154322, Note_on_c, 0, 66, 96
2, 154323, Note_on_c, 0, 59, 97
2, 154325, Note_on_c, 0, 47, 96
2, 154344, Control_c, 0, 64, 127
2, 154859, Note_on_c, 0, 71, 0
2, 154864, Note_on_c, 0, 83, 103
2, 154867, Note_on_c, 0, 59, 0
2, 154867, Note_on_c, 0, 63, 0
2, 154867, Note_on_c, 0, 71, 101
2, 154868, Note_on_c, 0, 78, 103
2, 154870, Note_on_c, 0, 75, 93
2, 154871, Note_on_c, 0, 63, 90
2, 154876, Note_on_c, 0, 59, 99
2, 154880, Note_on_c, 0, 54, 78
2, 154886, Note_on_c, 0, 51, 84
2, 155136, Note_on_c, 0, 47, 0
2, 155140, Note_on_c, 0, 47, 77
2, 155266, Note_on_c, 0, 59, 0
2, 155274, Note_on_c, 0, 51, 0
2, 155274, Note_on_c, 0, 54, 0
2, 155277, Note_on_c, 0, 59, 98
2, 155278, Note_on_c, 0, 51, 97
2, 155278, Note_on_c, 0, 54, 101
2, 155351, Note_on_c, 0, 63, 0
2, 155351, Note_on_c, 0, 66, 0
2, 155361, Note_on_c, 0, 66, 74
2, 155361, Note_on_c, 0, 63, 71
2, 155435, Note_on_c, 0, 71, 0
2, 155445, Note_on_c, 0, 71, 79
2, 155504, Note_on_c, 0, 75, 0
2, 155509, Note_on_c, 0, 75, 90
2, 155550, Note_on_c, 0, 78, 0
2, 155561, Note_on_c, 0, 78, 85
2, 155619, Note_on_c, 0, 83, 0
2, 155629, Note_on_c, 0, 83, 86
2, 155683, Note_on_c, 0, 87, 96
2, 155749, Note_on_c, 0, 90, 91
2, 155801, Note_on_c, 0, 95, 96
2, 155873, Note_on_c, 0, 90, 0
2, 155878, Note_on_c, 0, 90, 88
2, 155927, Note_on_c, 0, 87, 0
2, 155932, Note_on_c, 0, 87, 88
2, 155965, Note_on_c, 0, 83, 0
2, 155970, Note_on_c, 0, 83, 81
2, 156032, Note_on_c, 0, 54, 0
2, 156032, Note_on_c, 0, 95, 0
2, 156032, Note_on_c, 0, 87, 0
2, 156032, Note_on_c, 0, 71, 0
2, 156032, Note_on_c, 0, 90, 0
2, 156032, Note_on_c, 0, 83, 0
2, 156032, Note_on_c, 0, 63, 0
2, 156032, Note_on_c, 0, 75, 0
2, 156032, Note_on_c, 0, 78, 0
2, 156032, Control_c, 0, 64, 0
2, 156032, Note_on_c, 0, 51, 0
2, 156033, Note_on_c, 0, 66, 0
2, 156049, Note_on_c, 0, 47, 0
2, 156049, Note_on_c, 0, 59, 0
2, 156068, Note_on_c, 0, 61, 100
2, 156069, Note_on_c, 0, 97, 109
2, 156069, Note_on_c, 0, 85, 107
2, 156069, Note_on_c, 0, 56, 96
2, 156070, Note_on_c, 0, 64, 92
2, 156070, Note_on_c, 0, 92, 97
2, 156071, Note_on_c, 0, 52, 95
2, 156071, Note_on_c, 0, 88, 99
2, 156076, Note_on_c, 0, 49, 91
2, 156088, Control_c, 0, 64, 127
2, 156195, Note_on_c, 0, 56, 0
2, 156195, Note_on_c, 0, 61, 0
2, 156195, Note_on_c, 0, 85, 0
2, 156195, Note_on_c, 0, 97, 0
2, 156201, Note_on_c, 0, 61, 97
2, 156203, Note_on_c, 0, 56, 89
2, 156203, Note_on_c, 0, 49, 0
2, 156203, Note_on_c, 0, 52, 0
2, 156203, Note_on_c, 0, 64, 0
2, 156203, Note_on_c, 0, 88, 0
2, 156204, Note_on_c, 0, 85, 98
2, 156207, Note_on_c, 0, 97, 97
2, 156207, Note_on_c, 0, 64, 82
2, 156207, Note_on_c, 0, 52, 85
2, 156207, Note_on_c, 0, 49, 87
2, 156209, Note_on_c, 0, 88, 81
2, 156224, Note_on_c, 0, 92, 0
2, 156229, Control_c, 0, 64, 0
2, 156234, Note_on_c, 0, 56, 0
2, 156241, Note_on_c, 0, 64, 0
2, 156241, Note_on_c, 0, 88, 0
2, 156249, Note_on_c, 0, 49, 0
2, 156249, Note_on_c, 0, 52, 0
2, 156249, Note_on_c, 0, 61, 0
2, 156249, Note_on_c, 0, 85, 0
2, 156249, Note_on_c, 0, 97, 0
2, 156476, Note_on_c, 0, 49, 97
2, 156476, Note_on_c, 0, 85, 103
2, 156476, Note_on_c, 0, 37, 99
2, 156478, Note_on_c, 0, 80, 88
2, 156478, Note_on_c, 0, 73, 103
2, 156482, Note_on_c, 0, 76, 98
2, 156487, Note_on_c, 0, 77, 83
2, 156495, Control_c, 0, 64, 127
2, 156602, Note_on_c, 0, 49, 0
2, 156602, Note_on_c, 0, 73, 0
2, 156602, Note_on_c, 0, 76, 0
2, 156602, Note_on_c, 0, 80, 0
2, 156602, Note_on_c, 0, 85, 0
2, 156606, Note_on_c, 0, 85, 98
2, 156609, Note_on_c, 0, 73, 96
2, 156612, Note_on_c, 0, 68, 90
2, 156613, Note_on_c, 0, 80, 84
2, 156613, Note_on_c, 0, 76, 88
2, 156614, Note_on_c, 0, 49, 93
2, 156664, Note_on_c, 0, 77, 0
2, 156668, Note_on_c, 0, 80, 0
2, 156668, Note_on_c, 0, 73, 0
2, 156669, Note_on_c, 0, 49, 0
2, 156670, Note_on_c, 0, 37, 0
2, 156671, Note_on_c, 0, 76, 0
2, 156671, Note_on_c, 0, 85, 0
2, 156679, Note_on_c, 0, 68, 0
2, 156684, Control_c, 0, 64, 0
2, 157050, Note_on_c, 0, 25, 90
2, 157094, Note_on_c, 0, 25, 0
2, 157099, Note_on_c, 0, 25, 91
2, 157103, Note_on_c, 0, 61, 105
2, 157103, Note_on_c, 0, 37, 94
2, 157104, Note_on_c, 0, 49, 103
2, 157416, Control_c, 0, 64, 127
2, 159360, Note_on_c, 0, 25, 0
2, 159360, Note_on_c, 0, 37, 0
2, 159360, Note_on_c, 0, 49, 0
2, 159360, Note_on_c, 0, 61, 0
2, 159759, Note_on_c, 0, 28, 49
2, 159761, Note_on_c, 0, 40, 35
2, 159829, Control_c, 0, 64, 0
2, 159849, Note_on_c, 0, 27, 57
2, 159901, Note_on_c, 0, 34, 46
2, 159905, Note_on_c, 0, 40, 0
2, 159959, Note_on_c, 0, 34, 0
2, 160250, Note_on_c, 0, 27, 0
2, 160281, Note_on_c, 0, 28, 0
2, 160282, End_track
0, 0, End_of_file
