0, 0, Header, 1, 2, 384
1, 0, Start_track
1, 0, Tempo, 500000
1, 0, Time_signature, 4, 2, 24, 8
1, 1, End_track
2, 0, Start_track
2, 7, Control_c, 0, 64, 127
2, 2928, Note_on_c, 0, 75, 64
2, 2935, Note_on_c, 0, 52, 37
2, 2937, Note_on_c, 0, 64, 43
2, 2941, Control_c, 0, 64, 0
2, 2943, Note_on_c, 0, 63, 44
2, 2943, Note_on_c, 0, 61, 41
2, 2949, Note_on_c, 0, 71, 45
2, 2951, Note_on_c, 0, 57, 57
2, 3095, Control_c, 0, 64, 127
2, 3113, Note_on_c, 0, 80, 81
2, 3310, Note_on_c, 0, 85, 92
2, 3425, Note_on_c, 0, 52, 0
2, 3497, Note_on_c, 0, 87, 83
2, 3689, Note_on_c, 0, 92, 99
2, 4239, Note_on_c, 0, 80, 0
2, 4248, Note_on_c, 0, 80, 86
2, 4446, Note_on_c, 0, 63, 0
2, 4451, Note_on_c, 0, 81, 84
2, 4455, Note_on_c, 0, 73, 69
2, 4456, Note_on_c, 0, 63, 61
2, 4458, Note_on_c, 0, 59, 67
2, 4459, Note_on_c, 0, 66, 61
2, 4523, Control_c, 0, 64, 0
2, 4608, Control_c, 0, 64, 127
2, 4642, Note_on_c, 0, 88, 90
2, 4823, Note_on_c, 0, 87, 0
2, 4832, Note_on_c, 0, 87, 91
2, 5191, Note_on_c, 0, 75, 0
2, 5197, Note_on_c, 0, 83, 92
2, 5203, Note_on_c, 0, 75, 73
2, 5760, Note_on_c, 0, 57, 0
2, 5760, Note_on_c, 0, 61, 0
2, 5760, Note_on_c, 0, 64, 0
2, 5760, Note_on_c, 0, 71, 0
2, 5760, Note_on_c, 0, 85, 0
2, 5760, Note_on_c, 0, 92, 0
2, 5788, Note_on_c, 0, 82, 92
2, 5882, Note_on_c, 0, 81, 0
2, 5887, Note_on_c, 0, 81, 90
2, 5990, Note_on_c, 0, 80, 0
2, 5998, Note_on_c, 0, 71, 78
2, 5999, Note_on_c, 0, 80, 91
2, 6002, Note_on_c, 0, 68, 75
2, 6004, Control_c, 0, 64, 0
2, 6009, Note_on_c, 0, 76, 75
2, 6011, Note_on_c, 0, 61, 61
2, 6027, Note_on_c, 0, 63, 0
2, 6029, Note_on_c, 0, 66, 0
2, 6030, Note_on_c, 0, 73, 0
2, 6030, Note_on_c, 0, 59, 0
2, 6031, Note_on_c, 0, 83, 0
2, 6032, Note_on_c, 0, 87, 0
2, 6059, Note_on_c, 0, 75, 0
2, 6059, Note_on_c, 0, 82, 0
2, 6059, Note_on_c, 0, 88, 0
2, 6067, Note_on_c, 0, 81, 0
2, 6159, Control_c, 0, 64, 127
2, 6812, Note_on_c, 0, 76, 0
2, 6820, Note_on_c, 0, 76, 73
2, 6827, Note_on_c, 0, 68, 0
2, 6835, Note_on_c, 0, 68, 63
2, 6857, Control_c, 0, 64, 0
2, 6904, Control_c, 0, 64, 127
2, 7615, Note_on_c, 0, 75, 67
2, 7622, Note_on_c, 0, 66, 49
2, 7622, Note_on_c, 0, 59, 50
2, 7626, Note_on_c, 0, 49, 45
2, 7627, Note_on_c, 0, 56, 49
2, 7643, Control_c, 0, 64, 0
2, 7703, Note_on_c, 0, 80, 0
2, 7726, Control_c, 0, 64, 127
2, 7818, Note_on_c, 0, 71, 0
2, 8399, Note_on_c, 0, 71, 69
2, 8400, Note_on_c, 0, 63, 48
2, 8609, Note_on_c, 0, 76, 0
2, 9162, Note_on_c, 0, 68, 0
2, 9162, Note_on_c, 0, 73, 77
2, 9164, Note_on_c, 0, 45, 70
2, 9172, Note_on_c, 0, 68, 69
2, 9177, Note_on_c, 0, 61, 0
2, 9188, Note_on_c, 0, 61, 55
2, 9189, Note_on_c, 0, 64, 45
2, 9197, Control_c, 0, 64, 0
2, 9198, Note_on_c, 0, 59, 0
2, 9198, Note_on_c, 0, 66, 0
2, 9199, Note_on_c, 0, 49, 0
2, 9201, Note_on_c, 0, 71, 0
2, 9201, Note_on_c, 0, 75, 0
2, 9202, Note_on_c, 0, 56, 0
2, 9202, Note_on_c, 0, 63, 0
2, 9364, Note_on_c, 0, 52, 59
2, 9384, Control_c, 0, 64, 127
2, 9557, Note_on_c, 0, 56, 68
2, 9738, Note_on_c, 0, 61, 0
2, 9747, Note_on_c, 0, 61, 76
2, 9937, Note_on_c, 0, 68, 0
2, 9945, Note_on_c, 0, 61, 0
2, 9947, Note_on_c, 0, 68, 93
2, 9954, Note_on_c, 0, 61, 56
2, 10702, Note_on_c, 0, 47, 71
2, 10706, Control_c, 0, 64, 0
2, 10710, Note_on_c, 0, 66, 68
2, 10715, Note_on_c, 0, 56, 0
2, 10716, Note_on_c, 0, 68, 0
2, 10716, Note_on_c, 0, 73, 0
2, 10717, Note_on_c, 0, 52, 0
2, 10717, Note_on_c, 0, 61, 0
2, 10718, Note_on_c, 0, 45, 0
2, 10720, Note_on_c, 0, 59, 57
2, 10724, Note_on_c, 0, 63, 58
2, 10767, Note_on_c, 0, 64, 0
2, 10880, Note_on_c, 0, 54, 66
2, 10890, Note_on_c, 0, 59, 0
2, 10897, Control_c, 0, 64, 127
2, 11092, Note_on_c, 0, 61, 70
2, 11281, Note_on_c, 0, 63, 0
2, 11287, Note_on_c, 0, 63, 72
2, 11471, Note_on_c, 0, 71, 94
2, 11473, Note_on_c, 0, 47, 0
2, 11473, Note_on_c, 0, 66, 0
2, 11478, Note_on_c, 0, 47, 48
2, 11478, Note_on_c, 0, 66, 76
2, 12218, Note_on_c, 0, 63, 0
2, 12218, Note_on_c, 0, 71, 0
2, 12218, Note_on_c, 0, 75, 93
2, 12224, Note_on_c, 0, 71, 75
2, 12226, Note_on_c, 0, 40, 68
2, 12228, Note_on_c, 0, 63, 74
2, 12230, Note_on_c, 0, 68, 78
2, 12239, Control_c, 0, 64, 0
2, 12256, Note_on_c, 0, 61, 0
2, 12259, Note_on_c, 0, 47, 0
2, 12259, Note_on_c, 0, 66, 0
2, 12261, Note_on_c, 0, 54, 0
2, 12372, Control_c, 0, 64, 127
2, 12409, Note_on_c, 0, 47, 62
2, 12597, Note_on_c, 0, 54, 64
2, 12781, Note_on_c, 0, 76, 98
2, 12799, Note_on_c, 0, 64, 74
2, 12807, Note_on_c, 0, 56, 70
2, 13324, Note_on_c, 0, 47, 0
2, 13336, Note_on_c, 0, 47, 82
2, 13754, Note_on_c, 0, 40, 0
2, 13758, Note_on_c, 0, 78, 102
2, 13759, Note_on_c, 0, 44, 69
2, 13760, Note_on_c, 0, 73, 87
2, 13765, Note_on_c, 0, 51, 76
2, 13766, Note_on_c, 0, 69, 76
2, 13782, Control_c, 0, 64, 0
2, 13791, Note_on_c, 0, 64, 0
2, 13792, Note_on_c, 0, 68, 0
2, 13792, Note_on_c, 0, 54, 0
2, 13792, Note_on_c, 0, 56, 0
2, 13793, Note_on_c, 0, 75, 0
2, 13793, Note_on_c, 0, 76, 0
2, 13794, Note_on_c, 0, 63, 0
2, 13808, Note_on_c, 0, 71, 0
2, 13816, Note_on_c, 0, 47, 0
2, 13908, Control_c, 0, 64, 127
2, 14164, Note_on_c, 0, 68, 90
2, 14541, Note_on_c, 0, 80, 93
2, 14550, Note_on_c, 0, 56, 67
2, 14561, Note_on_c, 0, 73, 0
2, 14567, Note_on_c, 0, 73, 73
2, 14571, Note_on_c, 0, 75, 79
2, 14592, Note_on_c, 0, 78, 0
2, 14593, Control_c, 0, 64, 0
2, 14599, Note_on_c, 0, 69, 0
2, 14630, Control_c, 0, 64, 127
2, 14967, Note_on_c, 0, 72, 72
2, 17280, Note_on_c, 0, 44, 0
2, 17280, Note_on_c, 0, 51, 0
2, 17280, Note_on_c, 0, 56, 0
2, 17280, Note_on_c, 0, 68, 0
2, 17280, Note_on_c, 0, 72, 0
2, 17280, Note_on_c, 0, 73, 0
2, 17280, Note_on_c, 0, 75, 0
2, 17280, Note_on_c, 0, 80, 0
2, 17876, Note_on_c, 0, 59, 79
2, 17877, Note_on_c, 0, 63, 91
2, 17895, Control_c, 0, 64, 0
2, 17932, Control_c, 0, 64, 127
2, 18069, Note_on_c, 0, 75, 97
2, 18073, Note_on_c, 0, 71, 73
2, 18247, Note_on_c, 0, 71, 0
2, 18258, Note_on_c, 0, 71, 90
2, 18259, Note_on_c, 0, 68, 83
2, 18404, Control_c, 0, 64, 0
2, 18406, Note_on_c, 0, 68, 0
2, 18406, Note_on_c, 0, 75, 0
2, 18406, Note_on_c, 0, 63, 0
2, 18406, Note_on_c, 0, 71, 0
2, 18407, Note_on_c, 0, 59, 0
2, 18443, Note_on_c, 0, 69, 86
2, 18443, Note_on_c, 0, 45, 63
2, 18444, Note_on_c, 0, 49, 60
2, 18450, Note_on_c, 0, 66, 70
2, 18485, Control_c, 0, 64, 127
2, 18537, Note_on_c, 0, 59, 69
2, 18616, Note_on_c, 0, 45, 0
2, 18616, Note_on_c, 0, 49, 0
2, 18621, Note_on_c, 0, 45, 59
2, 18621, Note_on_c, 0, 52, 51
2, 18622, Note_on_c, 0, 49, 59
2, 18723, Note_on_c, 0, 59, 0
2, 18732, Note_on_c, 0, 59, 59
2, 18816, Note_on_c, 0, 49, 0
2, 18816, Note_on_c, 0, 52, 0
2, 18816, Note_on_c, 0, 66, 0
2, 18816, Note_on_c, 0, 69, 0
2, 18822, Note_on_c, 0, 49, 67
2, 18824, Note_on_c, 0, 69, 90
2, 18825, Note_on_c, 0, 52, 61
2, 18826, Note_on_c, 0, 66, 74
2, 18900, Note_on_c, 0, 59, 0
2, 18905, Note_on_c, 0, 59, 41
2, 18992, Note_on_c, 0, 49, 0
2, 19000, Note_on_c, 0, 45, 0
2, 19002, Note_on_c, 0, 49, 69
2, 19003, Note_on_c, 0, 71, 89
2, 19004, Note_on_c, 0, 45, 67
2, 19013, Note_on_c, 0, 68, 74
2, 19033, Note_on_c, 0, 61, 50
2, 19038, Note_on_c, 0, 61, 0
2, 19092, Note_on_c, 0, 59, 0
2, 19101, Note_on_c, 0, 59, 54
2, 19168, Control_c, 0, 64, 0
2, 19171, Note_on_c, 0, 68, 0
2, 19172, Note_on_c, 0, 69, 0
2, 19172, Note_on_c, 0, 59, 0
2, 19172, Note_on_c, 0, 45, 0
2, 19173, Note_on_c, 0, 71, 0
2, 19184, Note_on_c, 0, 49, 0
2, 19188, Note_on_c, 0, 64, 89
2, 19192, Note_on_c, 0, 52, 0
2, 19196, Note_on_c, 0, 61, 80
2, 19197, Note_on_c, 0, 47, 72
2, 19201, Note_on_c, 0, 54, 69
2, 19207, Note_on_c, 0, 66, 0
2, 19230, Control_c, 0, 64, 127
2, 19289, Note_on_c, 0, 59, 72
2, 19368, Note_on_c, 0, 54, 0
2, 19376, Note_on_c, 0, 47, 0
2, 19377, Note_on_c, 0, 54, 72
2, 19380, Note_on_c, 0, 47, 76
2, 19382, Note_on_c, 0, 52, 63
2, 19468, Note_on_c, 0, 59, 0
2, 19476, Note_on_c, 0, 59, 78
2, 19560, Note_on_c, 0, 47, 0
2, 19568, Note_on_c, 0, 52, 0
2, 19568, Note_on_c, 0, 54, 0
2, 19570, Note_on_c, 0, 47, 76
2, 19572, Note_on_c, 0, 71, 87
2, 19572, Note_on_c, 0, 75, 91
2, 19573, Note_on_c, 0, 54, 69
2, 19577, Note_on_c, 0, 52, 62
2, 19653, Note_on_c, 0, 59, 0
2, 19661, Note_on_c, 0, 59, 74
2, 19745, Note_on_c, 0, 47, 0
2, 19745, Note_on_c, 0, 71, 0
2, 19749, Note_on_c, 0, 47, 70
2, 19752, Note_on_c, 0, 52, 0
2, 19752, Note_on_c, 0, 54, 0
2, 19756, Note_on_c, 0, 71, 89
2, 19757, Note_on_c, 0, 52, 67
2, 19757, Note_on_c, 0, 54, 69
2, 19763, Note_on_c, 0, 68, 89
2, 19837, Note_on_c, 0, 59, 0
2, 19848, Note_on_c, 0, 59, 50
2, 19879, Control_c, 0, 64, 0
2, 19891, Note_on_c, 0, 54, 0
2, 19893, Note_on_c, 0, 71, 0
2, 19894, Note_on_c, 0, 59, 0
2, 19895, Note_on_c, 0, 52, 0
2, 19896, Note_on_c, 0, 47, 0
2, 19914, Note_on_c, 0, 61, 0
2, 19914, Note_on_c, 0, 64, 0
2, 19914, Note_on_c, 0, 75, 0
2, 19929, Note_on_c, 0, 68, 0
2, 19946, Note_on_c, 0, 69, 93
2, 19947, Note_on_c, 0, 66, 86
2, 19948, Note_on_c, 0, 49, 78
2, 19950, Note_on_c, 0, 56, 75
2, 19983, Control_c, 0, 64, 127
2, 20034, Note_on_c, 0, 59, 68
2, 20129, Note_on_c, 0, 49, 0
2, 20129, Note_on_c, 0, 56, 0
2, 20133, Note_on_c, 0, 56, 68
2, 20134, Note_on_c, 0, 49, 73
2, 20221, Note_on_c, 0, 59, 0
2, 20231, Note_on_c, 0, 59, 67
2, 20298, Note_on_c, 0, 49, 0
2, 20305, Note_on_c, 0, 69, 0
2, 20307, Note_on_c, 0, 49, 71
2, 20313, Note_on_c, 0, 66, 0
2, 20314, Note_on_c, 0, 69, 96
2, 20318, Note_on_c, 0, 66, 82
2, 20367, Note_on_c, 0, 56, 0
2, 20373, Note_on_c, 0, 56, 46
2, 20375, Note_on_c, 0, 59, 0
2, 20379, Note_on_c, 0, 59, 45
2, 20467, Note_on_c, 0, 49, 0
2, 20478, Note_on_c, 0, 49, 80
2, 20489, Note_on_c, 0, 71, 92
2, 20501, Note_on_c, 0, 68, 89
2, 20601, Note_on_c, 0, 56, 0
2, 20602, Note_on_c, 0, 69, 0
2, 20602, Note_on_c, 0, 66, 0
2, 20602, Note_on_c, 0, 49, 0
2, 20602, Note_on_c, 0, 59, 0
2, 20616, Control_c, 0, 64, 0
2, 20672, Note_on_c, 0, 47, 72
2, 20672, Note_on_c, 0, 64, 91
2, 20675, Note_on_c, 0, 54, 74
2, 20675, Note_on_c, 0, 61, 84
2, 20678, Note_on_c, 0, 52, 70
2, 20682, Control_c, 0, 64, 127
2, 20751, Note_on_c, 0, 68, 0
2, 20753, Note_on_c, 0, 59, 50
2, 20805, Note_on_c, 0, 52, 0
2, 20835, Note_on_c, 0, 47, 0
2, 20843, Note_on_c, 0, 54, 0
2, 20845, Note_on_c, 0, 47, 69
2, 20853, Note_on_c, 0, 54, 68
2, 20858, Note_on_c, 0, 61, 0
2, 20861, Note_on_c, 0, 52, 55
2, 20867, Note_on_c, 0, 61, 56
2, 20935, Note_on_c, 0, 59, 0
2, 20947, Note_on_c, 0, 59, 74
2, 21020, Note_on_c, 0, 47, 0
2, 21020, Note_on_c, 0, 54, 0
2, 21027, Note_on_c, 0, 52, 0
2, 21029, Note_on_c, 0, 47, 76
2, 21031, Note_on_c, 0, 54, 64
2, 21032, Note_on_c, 0, 52, 63
2, 21112, Note_on_c, 0, 59, 0
2, 21121, Note_on_c, 0, 59, 74
2, 21212, Note_on_c, 0, 47, 0
2, 21212, Note_on_c, 0, 52, 0
2, 21212, Note_on_c, 0, 54, 0
2, 21220, Note_on_c, 0, 54, 69
2, 21222, Note_on_c, 0, 52, 70
2, 21223, Note_on_c, 0, 47, 71
2, 21296, Note_on_c, 0, 59, 0
2, 21307, Note_on_c, 0, 59, 73
2, 21389, Control_c, 0, 64, 0
2, 21396, Note_on_c, 0, 52, 0
2, 21405, Note_on_c, 0, 49, 79
2, 21406, Note_on_c, 0, 45, 78
2, 21406, Note_on_c, 0, 52, 71
2, 21416, Note_on_c, 0, 64, 0
2, 21434, Control_c, 0, 64, 127
2, 21496, Note_on_c, 0, 59, 0
2, 21505, Note_on_c, 0, 59, 81
2, 21588, Note_on_c, 0, 45, 0
2, 21588, Note_on_c, 0, 49, 0
2, 21588, Note_on_c, 0, 52, 0
2, 21596, Note_on_c, 0, 49, 71
2, 21597, Note_on_c, 0, 73, 86
2, 21599, Note_on_c, 0, 45, 73
2, 21599, Note_on_c, 0, 52, 59
2, 21672, Note_on_c, 0, 59, 0
2, 21684, Note_on_c, 0, 59, 72
2, 21765, Note_on_c, 0, 52, 0
2, 21765, Note_on_c, 0, 71, 0
2, 21765, Note_on_c, 0, 73, 0
2, 21767, Note_on_c, 0, 80, 100
2, 21772, Note_on_c, 0, 45, 0
2, 21772, Note_on_c, 0, 49, 0
2, 21775, Note_on_c, 0, 71, 97
2, 21775, Note_on_c, 0, 73, 95
2, 21776, Note_on_c, 0, 52, 72
2, 21777, Note_on_c, 0, 49, 72
2, 21778, Note_on_c, 0, 45, 80
2, 21849, Note_on_c, 0, 59, 0
2, 21856, Note_on_c, 0, 59, 43
2, 21957, Note_on_c, 0, 45, 0
2, 21957, Note_on_c, 0, 49, 0
2, 21957, Note_on_c, 0, 52, 0
2, 21961, Note_on_c, 0, 57, 75
2, 21961, Note_on_c, 0, 52, 59
2, 21961, Note_on_c, 0, 49, 67
2, 21962, Note_on_c, 0, 45, 73
2, 21963, Note_on_c, 0, 78, 96
2, 21980, Note_on_c, 0, 54, 0
2, 22041, Note_on_c, 0, 59, 0
2, 22047, Note_on_c, 0, 59, 75
2, 22080, Note_on_c, 0, 47, 0
2, 22084, Control_c, 0, 64, 0
2, 22084, Note_on_c, 0, 45, 0
2, 22085, Note_on_c, 0, 71, 0
2, 22085, Note_on_c, 0, 73, 0
2, 22095, Note_on_c, 0, 61, 0
2, 22103, Note_on_c, 0, 49, 0
2, 22103, Note_on_c, 0, 52, 0
2, 22110, Note_on_c, 0, 57, 0
2, 22145, Note_on_c, 0, 47, 80
2, 22146, Note_on_c, 0, 54, 75
2, 22148, Note_on_c, 0, 52, 65
2, 22149, Note_on_c, 0, 59, 0
2, 22172, Control_c, 0, 64, 127
2, 22245, Note_on_c, 0, 59, 82
2, 22333, Note_on_c, 0, 47, 0
2, 22333, Note_on_c, 0, 52, 0
2, 22335, Note_on_c, 0, 73, 81
2, 22343, Note_on_c, 0, 47, 81
2, 22344, Note_on_c, 0, 52, 75
2, 22430, Note_on_c, 0, 71, 58
2, 22494, Note_on_c, 0, 47, 0
2, 22502, Note_on_c, 0, 80, 0
2, 22505, Note_on_c, 0, 47, 89
2, 22510, Note_on_c, 0, 52, 0
2, 22510, Note_on_c, 0, 54, 0
2, 22510, Note_on_c, 0, 80, 100
2, 22517, Note_on_c, 0, 54, 76
2, 22517, Note_on_c, 0, 71, 0
2, 22517, Note_on_c, 0, 73, 0
2, 22521, Note_on_c, 0, 52, 79
2, 22521, Note_on_c, 0, 71, 92
2, 22522, Note_on_c, 0, 73, 89
2, 22679, Note_on_c, 0, 47, 0
2, 22679, Note_on_c, 0, 52, 0
2, 22684, Note_on_c, 0, 47, 79
2, 22686, Note_on_c, 0, 78, 0
2, 22690, Note_on_c, 0, 52, 69
2, 22692, Note_on_c, 0, 78, 98
2, 22748, Note_on_c, 0, 59, 0
2, 22754, Note_on_c, 0, 59, 52
2, 22836, Control_c, 0, 64, 0
2, 22839, Note_on_c, 0, 80, 0
2, 22841, Note_on_c, 0, 47, 0
2, 22842, Note_on_c, 0, 52, 0
2, 22843, Note_on_c, 0, 59, 0
2, 22843, Note_on_c, 0, 71, 0
2, 22863, Note_on_c, 0, 54, 0
2, 22864, Note_on_c, 0, 56, 75
2, 22866, Note_on_c, 0, 44, 90
2, 22873, Note_on_c, 0, 51, 79
2, 22886, Note_on_c, 0, 73, 0
2, 22894, Control_c, 0, 64, 127
2, 22966, Note_on_c, 0, 59, 91
2, 23047, Note_on_c, 0, 44, 0
2, 23047, Note_on_c, 0, 51, 0
2, 23051, Note_on_c, 0, 73, 92
2, 23056, Note_on_c, 0, 51, 69
2, 23058, Note_on_c, 0, 44, 74
2, 23059, Note_on_c, 0, 54, 72
2, 23132, Note_on_c, 0, 59, 0
2, 23143, Note_on_c, 0, 59, 84
2, 23224, Note_on_c, 0, 54, 0
2, 23228, Note_on_c, 0, 81, 103
2, 23229, Note_on_c, 0, 71, 94
2, 23231, Note_on_c, 0, 54, 83
2, 23232, Note_on_c, 0, 44, 0
2, 23232, Note_on_c, 0, 51, 0
2, 23235, Note_on_c, 0, 75, 94
2, 23237, Note_on_c, 0, 51, 78
2, 23243, Note_on_c, 0, 44, 81
2, 23308, Note_on_c, 0, 59, 0
2, 23317, Note_on_c, 0, 59, 90
2, 23400, Note_on_c, 0, 44, 0
2, 23400, Note_on_c, 0, 51, 0
2, 23400, Note_on_c, 0, 54, 0
2, 23405, Note_on_c, 0, 44, 77
2, 23409, Note_on_c, 0, 51, 75
2, 23410, Note_on_c, 0, 54, 74
2, 23470, Note_on_c, 0, 59, 0
2, 23477, Note_on_c, 0, 59, 65
2, 23558, Control_c, 0, 64, 0
2, 23572, Note_on_c, 0, 44, 0
2, 23572, Note_on_c, 0, 73, 0
2, 23572, Note_on_c, 0, 56, 0
2, 23573, Note_on_c, 0, 51, 0
2, 23573, Note_on_c, 0, 81, 0
2, 23573, Note_on_c, 0, 54, 0
2, 23574, Note_on_c, 0, 59, 0
2, 23575, Note_on_c, 0, 75, 0
2, 23585, Note_on_c, 0, 71, 0
2, 23585, Note_on_c, 0, 78, 0
2, 23588, Note_on_c, 0, 80, 106
2, 23592, Note_on_c, 0, 71, 91
2, 23596, Note_on_c, 0, 76, 91
2, 23597, Note_on_c, 0, 49, 96
2, 23598, Note_on_c, 0, 56, 85
2, 23623, Control_c, 0, 64, 127
2, 23691, Note_on_c, 0, 59, 38
2, 23769, Note_on_c, 0, 49, 0
2, 23769, Note_on_c, 0, 56, 0
2, 23773, Note_on_c, 0, 63, 98
2, 23773, Note_on_c, 0, 49, 90
2, 23777, Note_on_c, 0, 56, 82
2, 23838, Note_on_c, 0, 59, 0
2, 23844, Note_on_c, 0, 59, 96
2, 23938, Note_on_c, 0, 56, 0
2, 23946, Note_on_c, 0, 49, 0
2, 23949, Note_on_c, 0, 56, 98
2, 23953, Note_on_c, 0, 49, 98
2, 23953, Note_on_c, 0, 71, 0
2, 23959, Note_on_c, 0, 71, 94
2, 23964, Note_on_c, 0, 75, 103
2, 24130, Note_on_c, 0, 71, 0
2, 24135, Note_on_c, 0, 71, 101
2, 24137, Control_c, 0, 64, 0
2, 24139, Note_on_c, 0, 68, 102
2, 24148, Note_on_c, 0, 80, 0
2, 24148, Note_on_c, 0, 76, 0
2, 24149, Note_on_c, 0, 59, 0
2, 24150, Note_on_c, 0, 63, 0
2, 24150, Note_on_c, 0, 75, 0
2, 24153, Note_on_c, 0, 49, 0
2, 24176, Note_on_c, 0, 56, 0
2, 24276, Note_on_c, 0, 68, 0
2, 24276, Note_on_c, 0, 71, 0
2, 24326, Note_on_c, 0, 45, 110
2, 24327, Note_on_c, 0, 69, 104
2, 24327, Note_on_c, 0, 33, 98
2, 24333, Note_on_c, 0, 66, 102
2, 24353, Control_c, 0, 64, 127
2, 24510, Note_on_c, 0, 61, 76
2, 24510, Note_on_c, 0, 49, 86
2, 24587, Note_on_c, 0, 59, 74
2, 24683, Note_on_c, 0, 45, 0
2, 24683, Note_on_c, 0, 61, 0
2, 24683, Note_on_c, 0, 69, 0
2, 24691, Note_on_c, 0, 33, 0
2, 24691, Note_on_c, 0, 66, 0
2, 24692, Note_on_c, 0, 45, 91
2, 24693, Note_on_c, 0, 69, 103
2, 24694, Note_on_c, 0, 61, 76
2, 24696, Note_on_c, 0, 66, 86
2, 24696, Note_on_c, 0, 33, 77
2, 24783, Note_on_c, 0, 59, 0
2, 24787, Note_on_c, 0, 59, 72
2, 24875, Note_on_c, 0, 45, 0
2, 24875, Note_on_c, 0, 59, 0
2, 24877, Note_on_c, 0, 71, 98
2, 24879, Note_on_c, 0, 49, 0
2, 24879, Note_on_c, 0, 45, 91
2, 24880, Note_on_c, 0, 68, 97
2, 24880, Note_on_c, 0, 47, 87
2, 24881, Note_on_c, 0, 52, 81
2, 24883, Note_on_c, 0, 61, 0
2, 24886, Note_on_c, 0, 59, 96
2, 24887, Note_on_c, 0, 61, 71
2, 24998, Note_on_c, 0, 47, 0
2, 25025, Note_on_c, 0, 33, 0
2, 25026, Note_on_c, 0, 68, 0
2, 25026, Control_c, 0, 64, 0
2, 25026, Note_on_c, 0, 69, 0
2, 25026, Note_on_c, 0, 66, 0
2, 25026, Note_on_c, 0, 59, 0
2, 25026, Note_on_c, 0, 45, 0
2, 25028, Note_on_c, 0, 71, 0
2, 25044, Note_on_c, 0, 52, 0
2, 25044, Note_on_c, 0, 61, 0
2, 25065, Note_on_c, 0, 64, 106
2, 25071, Note_on_c, 0, 47, 110
2, 25072, Note_on_c, 0, 35, 98
2, 25074, Note_on_c, 0, 61, 91
2, 25105, Control_c, 0, 64, 127
2, 25259, Note_on_c, 0, 47, 0
2, 25263, Note_on_c, 0, 47, 88
2, 25264, Note_on_c, 0, 52, 74
2, 25348, Note_on_c, 0, 59, 84
2, 25436, Note_on_c, 0, 47, 0
2, 25436, Note_on_c, 0, 52, 0
2, 25440, Note_on_c, 0, 47, 97
2, 25440, Note_on_c, 0, 75, 101
2, 25440, Note_on_c, 0, 71, 97
2, 25444, Note_on_c, 0, 52, 87
2, 25528, Note_on_c, 0, 59, 0
2, 25533, Note_on_c, 0, 59, 93
2, 25612, Note_on_c, 0, 47, 0
2, 25620, Note_on_c, 0, 52, 0
2, 25620, Note_on_c, 0, 71, 0
2, 25622, Note_on_c, 0, 47, 95
2, 25626, Note_on_c, 0, 52, 85
2, 25627, Note_on_c, 0, 71, 99
2, 25629, Note_on_c, 0, 68, 97
2, 25712, Note_on_c, 0, 59, 0
2, 25717, Note_on_c, 0, 59, 80
2, 25783, Control_c, 0, 64, 0
2, 25785, Note_on_c, 0, 75, 0
2, 25786, Note_on_c, 0, 52, 0
2, 25786, Note_on_c, 0, 64, 0
2, 25786, Note_on_c, 0, 68, 0
2, 25786, Note_on_c, 0, 47, 0
2, 25786, Note_on_c, 0, 59, 0
2, 25787, Note_on_c, 0, 71, 0
2, 25790, Note_on_c, 0, 35, 0
2, 25797, Note_on_c, 0, 61, 0
2, 25818, Note_on_c, 0, 69, 108
2, 25820, Note_on_c, 0, 49, 104
2, 25822, Note_on_c, 0, 37, 97
2, 25823, Note_on_c, 0, 66, 98
2, 25858, Control_c, 0, 64, 127
2, 25981, Note_on_c, 0, 49, 0
2, 25987, Note_on_c, 0, 49, 84
2, 25989, Note_on_c, 0, 56, 80
2, 26087, Note_on_c, 0, 59, 82
2, 26172, Note_on_c, 0, 71, 102
2, 26173, Note_on_c, 0, 49, 0
2, 26176, Note_on_c, 0, 68, 100
2, 26178, Note_on_c, 0, 49, 88
2, 26250, Note_on_c, 0, 56, 0
2, 26254, Note_on_c, 0, 56, 72
2, 26257, Note_on_c, 0, 59, 0
2, 26262, Note_on_c, 0, 59, 90
2, 26342, Note_on_c, 0, 49, 0
2, 26347, Note_on_c, 0, 49, 95
2, 26542, Note_on_c, 0, 68, 0
2, 26542, Control_c, 0, 64, 0
2, 26544, Note_on_c, 0, 56, 0
2, 26544, Note_on_c, 0, 73, 110
2, 26545, Note_on_c, 0, 49, 0
2, 26545, Note_on_c, 0, 66, 0
2, 26546, Note_on_c, 0, 68, 102
2, 26546, Note_on_c, 0, 47, 108
2, 26547, Note_on_c, 0, 69, 0
2, 26548, Note_on_c, 0, 71, 0
2, 26550, Note_on_c, 0, 64, 99
2, 26552, Note_on_c, 0, 35, 94
2, 26553, Note_on_c, 0, 76, 95
2, 26572, Note_on_c, 0, 37, 0
2, 26580, Note_on_c, 0, 59, 0
2, 26618, Control_c, 0, 64, 127
2, 26726, Note_on_c, 0, 47, 0
2, 26734, Note_on_c, 0, 47, 85
2, 26737, Note_on_c, 0, 52, 71
2, 26826, Note_on_c, 0, 59, 89
2, 26910, Note_on_c, 0, 47, 0
2, 26910, Note_on_c, 0, 52, 0
2, 26918, Note_on_c, 0, 47, 89
2, 26918, Note_on_c, 0, 52, 75
2, 26995, Note_on_c, 0, 59, 0
2, 27006, Note_on_c, 0, 59, 97
2, 27079, Note_on_c, 0, 47, 0
2, 27090, Note_on_c, 0, 47, 93
2, 27164, Note_on_c, 0, 59, 0
2, 27174, Note_on_c, 0, 59, 91
2, 27258, Note_on_c, 0, 64, 0
2, 27258, Control_c, 0, 64, 0
2, 27258, Note_on_c, 0, 52, 0
2, 27258, Note_on_c, 0, 68, 0
2, 27259, Note_on_c, 0, 73, 0
2, 27259, Note_on_c, 0, 59, 0
2, 27260, Note_on_c, 0, 35, 0
2, 27271, Note_on_c, 0, 76, 0
2, 27279, Note_on_c, 0, 47, 0
2, 27280, Note_on_c, 0, 45, 107
2, 27281, Note_on_c, 0, 33, 97
2, 27333, Control_c, 0, 64, 127
2, 27409, Note_on_c, 0, 33, 0
2, 27468, Note_on_c, 0, 49, 87
2, 27468, Note_on_c, 0, 73, 93
2, 27468, Note_on_c, 0, 52, 58
2, 27479, Note_on_c, 0, 52, 0
2, 27560, Note_on_c, 0, 59, 80
2, 27648, Note_on_c, 0, 49, 0
2, 27655, Note_on_c, 0, 80, 107
2, 27655, Note_on_c, 0, 73, 0
2, 27658, Note_on_c, 0, 49, 87
2, 27660, Note_on_c, 0, 52, 77
2, 27660, Note_on_c, 0, 73, 100
2, 27663, Note_on_c, 0, 71, 96
2, 27724, Note_on_c, 0, 59, 0
2, 27732, Note_on_c, 0, 59, 77
2, 27840, Note_on_c, 0, 49, 0
2, 27840, Note_on_c, 0, 52, 0
2, 27841, Note_on_c, 0, 78, 100
2, 27844, Note_on_c, 0, 52, 65
2, 27845, Note_on_c, 0, 49, 90
2, 27967, Note_on_c, 0, 59, 0
2, 27967, Note_on_c, 0, 49, 0
2, 27967, Note_on_c, 0, 73, 0
2, 27967, Note_on_c, 0, 71, 0
2, 27967, Control_c, 0, 64, 0
2, 27968, Note_on_c, 0, 45, 0
2, 27993, Note_on_c, 0, 52, 0
2, 28013, Note_on_c, 0, 47, 105
2, 28014, Note_on_c, 0, 35, 101
2, 28055, Control_c, 0, 64, 127
2, 28185, Note_on_c, 0, 47, 0
2, 28189, Note_on_c, 0, 54, 89
2, 28196, Note_on_c, 0, 47, 91
2, 28199, Note_on_c, 0, 52, 81
2, 28205, Note_on_c, 0, 73, 95
2, 28219, Note_on_c, 0, 71, 76
2, 28297, Note_on_c, 0, 59, 88
2, 28369, Note_on_c, 0, 47, 0
2, 28369, Note_on_c, 0, 54, 0
2, 28377, Note_on_c, 0, 52, 0
2, 28377, Note_on_c, 0, 80, 0
2, 28380, Note_on_c, 0, 47, 93
2, 28380, Note_on_c, 0, 54, 88
2, 28381, Note_on_c, 0, 52, 87
2, 28385, Note_on_c, 0, 80, 103
2, 28385, Note_on_c, 0, 71, 0
2, 28385, Note_on_c, 0, 73, 0
2, 28393, Note_on_c, 0, 71, 90
2, 28396, Note_on_c, 0, 73, 99
2, 28401, Note_on_c, 0, 76, 78
2, 28446, Note_on_c, 0, 59, 0
2, 28456, Note_on_c, 0, 59, 67
2, 28531, Note_on_c, 0, 47, 0
2, 28531, Note_on_c, 0, 59, 0
2, 28541, Note_on_c, 0, 59, 88
2, 28542, Note_on_c, 0, 47, 87
2, 28561, Note_on_c, 0, 54, 0
2, 28569, Note_on_c, 0, 73, 0
2, 28569, Note_on_c, 0, 78, 0
2, 28573, Note_on_c, 0, 78, 98
2, 28576, Note_on_c, 0, 73, 93
2, 28665, Note_on_c, 0, 52, 0
2, 28668, Note_on_c, 0, 59, 0
2, 28668, Note_on_c, 0, 71, 0
2, 28671, Control_c, 0, 64, 0
2, 28677, Note_on_c, 0, 35, 0
2, 28677, Note_on_c, 0, 76, 0
2, 28700, Note_on_c, 0, 47, 0
2, 28746, Note_on_c, 0, 49, 105
2, 28748, Note_on_c, 0, 37, 99
2, 28769, Control_c, 0, 64, 127
2, 28922, Note_on_c, 0, 49, 0
2, 28922, Note_on_c, 0, 73, 0
2, 28929, Note_on_c, 0, 73, 93
2, 28930, Note_on_c, 0, 56, 83
2, 28931, Note_on_c, 0, 49, 77
2, 29026, Note_on_c, 0, 59, 56
2, 29107, Note_on_c, 0, 73, 0
2, 29114, Note_on_c, 0, 49, 0
2, 29114, Note_on_c, 0, 80, 0
2, 29118, Note_on_c, 0, 73, 106
2, 29118, Note_on_c, 0, 85, 105
2, 29121, Note_on_c, 0, 49, 82
2, 29122, Note_on_c, 0, 78, 0
2, 29123, Note_on_c, 0, 80, 95
2, 29126, Note_on_c, 0, 78, 90
2, 29130, Note_on_c, 0, 56, 0
2, 29139, Note_on_c, 0, 56, 64
2, 29214, Note_on_c, 0, 59, 0
2, 29224, Note_on_c, 0, 59, 78
2, 29299, Note_on_c, 0, 56, 0
2, 29310, Note_on_c, 0, 56, 58
2, 29383, Note_on_c, 0, 59, 0
2, 29388, Note_on_c, 0, 59, 66
2, 29483, Note_on_c, 0, 49, 0
2, 29483, Note_on_c, 0, 56, 0
2, 29493, Note_on_c, 0, 49, 77
2, 29494, Note_on_c, 0, 56, 56
2, 29568, Note_on_c, 0, 59, 0
2, 29577, Note_on_c, 0, 59, 66
2, 29667, Note_on_c, 0, 49, 0
2, 29671, Note_on_c, 0, 61, 87
2, 29673, Note_on_c, 0, 49, 70
2, 29752, Note_on_c, 0, 59, 0
2, 29756, Note_on_c, 0, 59, 73
2, 29760, Note_on_c, 0, 63, 83
2, 29844, Note_on_c, 0, 49, 0
2, 29844, Note_on_c, 0, 56, 0
2, 29848, Note_on_c, 0, 56, 65
2, 29848, Note_on_c, 0, 49, 67
2, 29852, Note_on_c, 0, 64, 99
2, 29921, Note_on_c, 0, 59, 0
2, 29928, Note_on_c, 0, 63, 0
2, 29930, Note_on_c, 0, 59, 63
2, 29933, Note_on_c, 0, 63, 66
2, 29998, Note_on_c, 0, 56, 0
2, 30002, Note_on_c, 0, 56, 65
2, 30005, Note_on_c, 0, 49, 0
2, 30013, Note_on_c, 0, 64, 0
2, 30014, Note_on_c, 0, 49, 66
2, 30021, Note_on_c, 0, 64, 76
2, 30113, Note_on_c, 0, 66, 86
2, 30190, Note_on_c, 0, 56, 0
2, 30197, Note_on_c, 0, 49, 0
2, 30199, Note_on_c, 0, 68, 99
2, 30200, Note_on_c, 0, 56, 74
2, 30201, Note_on_c, 0, 49, 63
2, 30289, Note_on_c, 0, 66, 0
2, 30297, Note_on_c, 0, 66, 83
2, 30359, Note_on_c, 0, 68, 0
2, 30367, Note_on_c, 0, 68, 92
2, 30460, Note_on_c, 0, 71, 90
2, 30535, Note_on_c, 0, 73, 0
2, 30540, Note_on_c, 0, 73, 101
2, 30627, Note_on_c, 0, 71, 0
2, 30638, Note_on_c, 0, 71, 85
2, 30727, Note_on_c, 0, 73, 0
2, 30734, Note_on_c, 0, 73, 91
2, 30825, Note_on_c, 0, 75, 89
2, 30911, Note_on_c, 0, 76, 99
2, 31004, Note_on_c, 0, 75, 0
2, 31009, Note_on_c, 0, 75, 86
2, 31088, Note_on_c, 0, 76, 0
2, 31099, Note_on_c, 0, 76, 84
2, 31173, Note_on_c, 0, 78, 0
2, 31178, Note_on_c, 0, 78, 82
2, 31249, Note_on_c, 0, 61, 0
2, 31257, Note_on_c, 0, 80, 0
2, 31261, Note_on_c, 0, 61, 96
2, 31263, Note_on_c, 0, 80, 95
2, 31342, Note_on_c, 0, 83, 89
2, 31418, Note_on_c, 0, 85, 0
2, 31423, Note_on_c, 0, 85, 96
2, 31519, Note_on_c, 0, 87, 96
2, 31606, Control_c, 0, 64, 0
2, 31607, Note_on_c, 0, 49, 0
2, 31609, Note_on_c, 0, 68, 0
2, 31611, Note_on_c, 0, 59, 0
2, 31612, Note_on_c, 0, 56, 0
2, 31613, Note_on_c, 0, 66, 0
2, 31613, Note_on_c, 0, 80, 0
2, 31613, Note_on_c, 0, 71, 0
2, 31613, Note_on_c, 0, 78, 0
2, 31614, Note_on_c, 0, 83, 0
2, 31614, Note_on_c, 0, 63, 0
2, 31614, Note_on_c, 0, 75, 0
2, 31615, Note_on_c, 0, 85, 0
2, 31615, Note_on_c, 0, 73, 0
2, 31615, Note_on_c, 0, 76, 0
2, 31618, Note_on_c, 0, 37, 0
2, 31618, Note_on_c, 0, 61, 0
2, 31618, Note_on_c, 0, 64, 0
2, 31620, Note_on_c, 0, 87, 0
2, 31622, Note_on_c, 0, 64, 92
2, 31624, Note_on_c, 0, 61, 80
2, 31630, Note_on_c, 0, 88, 99
2, 31630, Note_on_c, 0, 57, 71
2, 31687, Control_c, 0, 64, 127
2, 31813, Note_on_c, 0, 45, 71
2, 32006, Note_on_c, 0, 52, 57
2, 32167, Note_on_c, 0, 66, 89
2, 32371, Note_on_c, 0, 64, 0
2, 32378, Note_on_c, 0, 64, 90
2, 32739, Note_on_c, 0, 61, 0
2, 32750, Note_on_c, 0, 61, 84
2, 33108, Note_on_c, 0, 52, 0
2, 33108, Note_on_c, 0, 66, 0
2, 33108, Note_on_c, 0, 61, 0
2, 33109, Note_on_c, 0, 64, 0
2, 33109, Note_on_c, 0, 57, 0
2, 33110, Note_on_c, 0, 45, 0
2, 33111, Note_on_c, 0, 88, 0
2, 33111, Control_c, 0, 64, 0
2, 33113, Note_on_c, 0, 66, 94
2, 33119, Note_on_c, 0, 63, 85
2, 33121, Note_on_c, 0, 59, 82
2, 33127, Note_on_c, 0, 90, 100
2, 33129, Note_on_c, 0, 78, 96
2, 33185, Control_c, 0, 64, 127
2, 33304, Note_on_c, 0, 47, 83
2, 33486, Note_on_c, 0, 54, 74
2, 33679, Note_on_c, 0, 68, 87
2, 33868, Note_on_c, 0, 66, 0
2, 33874, Note_on_c, 0, 66, 92
2, 34232, Note_on_c, 0, 69, 86
2, 34592, Note_on_c, 0, 63, 0
2, 34592, Note_on_c, 0, 59, 0
2, 34593, Note_on_c, 0, 47, 0
2, 34593, Note_on_c, 0, 78, 0
2, 34593, Note_on_c, 0, 66, 0
2, 34594, Note_on_c, 0, 69, 0
2, 34594, Note_on_c, 0, 54, 0
2, 34598, Note_on_c, 0, 68, 0
2, 34600, Control_c, 0, 64, 0
2, 34604, Note_on_c, 0, 68, 98
2, 34606, Note_on_c, 0, 90, 0
2, 34610, Note_on_c, 0, 64, 84
2, 34611, Note_on_c, 0, 61, 81
2, 34612, Note_on_c, 0, 92, 104
2, 34614, Note_on_c, 0, 80, 94
2, 34659, Control_c, 0, 64, 127
2, 34794, Note_on_c, 0, 49, 72
2, 34970, Note_on_c, 0, 56, 74
2, 35169, Note_on_c, 0, 66, 76
2, 35266, Note_on_c, 0, 64, 0
2, 35275, Note_on_c, 0, 64, 83
2, 35366, Note_on_c, 0, 66, 0
2, 35373, Note_on_c, 0, 66, 96
2, 35911, Note_on_c, 0, 64, 0
2, 35918, Note_on_c, 0, 64, 70
2, 36027, Note_on_c, 0, 63, 74
2, 36111, Note_on_c, 0, 64, 0
2, 36114, Note_on_c, 0, 95, 102
2, 36115, Note_on_c, 0, 83, 97
2, 36122, Note_on_c, 0, 64, 84
2, 36672, Note_on_c, 0, 63, 0
2, 36681, Note_on_c, 0, 63, 80
2, 36771, Note_on_c, 0, 61, 0
2, 36782, Note_on_c, 0, 61, 74
2, 36859, Note_on_c, 0, 99, 103
2, 36860, Note_on_c, 0, 87, 86
2, 36877, Note_on_c, 0, 59, 76
2, 37240, Note_on_c, 0, 61, 0
2, 37244, Note_on_c, 0, 61, 85
2, 37564, Note_on_c, 0, 87, 0
2, 37564, Note_on_c, 0, 68, 0
2, 37564, Note_on_c, 0, 95, 0
2, 37565, Note_on_c, 0, 83, 0
2, 37565, Note_on_c, 0, 49, 0
2, 37566, Note_on_c, 0, 66, 0
2, 37566, Note_on_c, 0, 92, 0
2, 37566, Note_on_c, 0, 59, 0
2, 37566, Note_on_c, 0, 56, 0
2, 37578, Note_on_c, 0, 80, 0
2, 37581, Control_c, 0, 64, 0
2, 37585, Note_on_c, 0, 63, 0
2, 37593, Note_on_c, 0, 61, 0
2, 37593, Note_on_c, 0, 64, 0
2, 37593, Note_on_c, 0, 99, 0
2, 37601, Note_on_c, 0, 61, 91
2, 37604, Note_on_c, 0, 64, 95
2, 37605, Note_on_c, 0, 57, 88
2, 37678, Control_c, 0, 64, 127
2, 37795, Note_on_c, 0, 45, 73
2, 37804, Note_on_c, 0, 76, 80
2, 37981, Note_on_c, 0, 52, 70
2, 37983, Note_on_c, 0, 88, 96
2, 37989, Note_on_c, 0, 85, 89
2, 37989, Note_on_c, 0, 81, 82
2, 38000, Note_on_c, 0, 76, 0
2, 38011, Note_on_c, 0, 76, 63
2, 38165, Note_on_c, 0, 66, 88
2, 38346, Note_on_c, 0, 64, 0
2, 38352, Note_on_c, 0, 64, 98
2, 38530, Note_on_c, 0, 57, 0
2, 38535, Note_on_c, 0, 57, 76
2, 38714, Note_on_c, 0, 61, 0
2, 38726, Note_on_c, 0, 61, 96
2, 38737, Note_on_c, 0, 85, 0
2, 38737, Note_on_c, 0, 88, 0
2, 38743, Note_on_c, 0, 88, 92
2, 38745, Note_on_c, 0, 81, 0
2, 38748, Note_on_c, 0, 85, 89
2, 38750, Note_on_c, 0, 81, 76
2, 39091, Note_on_c, 0, 66, 0
2, 39098, Note_on_c, 0, 63, 98
2, 39100, Note_on_c, 0, 66, 99
2, 39101, Control_c, 0, 64, 0
2, 39101, Note_on_c, 0, 59, 97
2, 39107, Note_on_c, 0, 45, 0
2, 39109, Note_on_c, 0, 64, 0
2, 39109, Note_on_c, 0, 81, 0
2, 39109, Note_on_c, 0, 57, 0
2, 39109, Note_on_c, 0, 52, 0
2, 39110, Note_on_c, 0, 88, 0
2, 39110, Note_on_c, 0, 76, 0
2, 39111, Note_on_c, 0, 85, 0
2, 39121, Note_on_c, 0, 61, 0
2, 39168, Control_c, 0, 64, 127
2, 39293, Note_on_c, 0, 47, 82
2, 39481, Note_on_c, 0, 90, 100
2, 39484, Note_on_c, 0, 54, 85
2, 39489, Note_on_c, 0, 87, 86
2, 39494, Note_on_c, 0, 83, 72
2, 39670, Note_on_c, 0, 68, 93
2, 39843, Note_on_c, 0, 66, 0
2, 39852, Note_on_c, 0, 66, 95
2, 40035, Note_on_c, 0, 59, 0
2, 40040, Note_on_c, 0, 59, 75
2, 40047, Note_on_c, 0, 71, 61
2, 40051, Note_on_c, 0, 71, 0
2, 40075, Note_on_c, 0, 78, 59
2, 40218, Note_on_c, 0, 69, 100
2, 40220, Note_on_c, 0, 63, 0
2, 40227, Note_on_c, 0, 90, 0
2, 40230, Note_on_c, 0, 63, 90
2, 40231, Note_on_c, 0, 90, 98
2, 40235, Note_on_c, 0, 87, 0
2, 40243, Note_on_c, 0, 83, 0
2, 40245, Note_on_c, 0, 87, 80
2, 40249, Note_on_c, 0, 83, 71
2, 40541, Note_on_c, 0, 83, 0
2, 40541, Note_on_c, 0, 90, 0
2, 40541, Note_on_c, 0, 47, 0
2, 40541, Note_on_c, 0, 68, 0
2, 40542, Note_on_c, 0, 69, 0
2, 40542, Note_on_c, 0, 66, 0
2, 40542, Note_on_c, 0, 54, 0
2, 40542, Note_on_c, 0, 59, 0
2, 40543, Note_on_c, 0, 87, 0
2, 40552, Control_c, 0, 64, 0
2, 40558, Note_on_c, 0, 63, 0
2, 40565, Note_on_c, 0, 78, 0
2, 40600, Note_on_c, 0, 68, 104
2, 40607, Note_on_c, 0, 61, 88
2, 40607, Note_on_c, 0, 64, 96
2, 40627, Control_c, 0, 64, 127
2, 40784, Note_on_c, 0, 49, 78
2, 40802, Note_on_c, 0, 80, 85
2, 40967, Note_on_c, 0, 92, 108
2, 40976, Note_on_c, 0, 56, 80
2, 40976, Note_on_c, 0, 83, 89
2, 40978, Note_on_c, 0, 88, 93
2, 41158, Note_on_c, 0, 59, 82
2, 41533, Note_on_c, 0, 80, 0
2, 41543, Note_on_c, 0, 80, 91
2, 41725, Note_on_c, 0, 92, 0
2, 41731, Note_on_c, 0, 92, 102
2, 41733, Note_on_c, 0, 88, 0
2, 41744, Note_on_c, 0, 88, 93
2, 41748, Note_on_c, 0, 83, 0
2, 41753, Note_on_c, 0, 83, 72
2, 41914, Note_on_c, 0, 71, 105
2, 42094, Note_on_c, 0, 69, 102
2, 42270, Note_on_c, 0, 68, 0
2, 42277, Note_on_c, 0, 68, 95
2, 42303, Note_on_c, 0, 78, 76
2, 42467, Note_on_c, 0, 66, 102
2, 42478, Note_on_c, 0, 83, 0
2, 42482, Note_on_c, 0, 90, 103
2, 42488, Note_on_c, 0, 83, 90
2, 42654, Note_on_c, 0, 64, 0
2, 42660, Note_on_c, 0, 64, 75
2, 42846, Note_on_c, 0, 66, 0
2, 42854, Note_on_c, 0, 78, 0
2, 42857, Note_on_c, 0, 66, 103
2, 42858, Note_on_c, 0, 78, 79
2, 43038, Note_on_c, 0, 78, 0
2, 43044, Note_on_c, 0, 78, 73
2, 43077, Note_on_c, 0, 78, 0
2, 43086, Note_on_c, 0, 78, 60
2, 43215, Note_on_c, 0, 64, 0
2, 43223, Note_on_c, 0, 83, 0
2, 43223, Note_on_c, 0, 90, 0
2, 43226, Note_on_c, 0, 64, 89
2, 43232, Note_on_c, 0, 90, 84
2, 43234, Note_on_c, 0, 83, 86
2, 43399, Note_on_c, 0, 59, 0
2, 43410, Note_on_c, 0, 59, 86
2, 43599, Note_on_c, 0, 61, 0
2, 43603, Note_on_c, 0, 61, 95
2, 43609, Note_on_c, 0, 57, 90
2, 43650, Note_on_c, 0, 69, 0
2, 43650, Note_on_c, 0, 64, 0
2, 43650, Note_on_c, 0, 59, 0
2, 43650, Note_on_c, 0, 66, 0
2, 43650, Note_on_c, 0, 88, 0
2, 43650, Note_on_c, 0, 92, 0
2, 43650, Note_on_c, 0, 90, 0
2, 43651, Note_on_c, 0, 49, 0
2, 43651, Note_on_c, 0, 78, 0
2, 43651, Note_on_c, 0, 80, 0
2, 43651, Note_on_c, 0, 71, 0
2, 43653, Control_c, 0, 64, 0
2, 43653, Note_on_c, 0, 56, 0
2, 43668, Note_on_c, 0, 68, 0
2, 43683, Note_on_c, 0, 83, 0
2, 43829, Control_c, 0, 64, 127
2, 43837, Control_c, 0, 64, 0
2, 43937, Control_c, 0, 64, 127
2, 43988, Note_on_c, 0, 92, 99
2, 43998, Control_c, 0, 64, 0
2, 44002, Note_on_c, 0, 80, 80
2, 44009, Note_on_c, 0, 85, 64
2, 44090, Control_c, 0, 64, 127
2, 44365, Note_on_c, 0, 59, 79
2, 44386, Control_c, 0, 64, 0
2, 44386, Note_on_c, 0, 57, 0
2, 44482, Control_c, 0, 64, 127
2, 44751, Note_on_c, 0, 61, 0
2, 44751, Note_on_c, 0, 92, 0
2, 44760, Note_on_c, 0, 92, 95
2, 44766, Note_on_c, 0, 80, 0
2, 44766, Note_on_c, 0, 85, 0
2, 44771, Note_on_c, 0, 80, 78
2, 44776, Note_on_c, 0, 85, 72
2, 44812, Control_c, 0, 64, 0
2, 44935, Control_c, 0, 64, 127
2, 45149, Note_on_c, 0, 61, 84
2, 45185, Control_c, 0, 64, 0
2, 45235, Note_on_c, 0, 59, 0
2, 45281, Control_c, 0, 64, 127
2, 45519, Note_on_c, 0, 92, 0
2, 45527, Note_on_c, 0, 80, 0
2, 45529, Note_on_c, 0, 71, 103
2, 45530, Note_on_c, 0, 92, 93
2, 45532, Note_on_c, 0, 80, 89
2, 45534, Note_on_c, 0, 85, 0
2, 45543, Note_on_c, 0, 85, 83
2, 45564, Control_c, 0, 64, 0
2, 45649, Control_c, 0, 64, 127
2, 45913, Note_on_c, 0, 69, 105
2, 46279, Note_on_c, 0, 68, 106
2, 46634, Note_on_c, 0, 60, 98
2, 46634, Note_on_c, 0, 64, 103
2, 46636, Note_on_c, 0, 48, 91
2, 46636, Note_on_c, 0, 67, 101
2, 46638, Note_on_c, 0, 76, 90
2, 46644, Note_on_c, 0, 69, 0
2, 46650, Note_on_c, 0, 92, 0
2, 46653, Control_c, 0, 64, 0
2, 46656, Note_on_c, 0, 85, 0
2, 46663, Note_on_c, 0, 61, 0
2, 46663, Note_on_c, 0, 80, 0
2, 46671, Note_on_c, 0, 68, 0
2, 46671, Note_on_c, 0, 71, 0
2, 46801, Control_c, 0, 64, 127
2, 46842, Note_on_c, 0, 79, 78
2, 47027, Note_on_c, 0, 88, 100
2, 47027, Note_on_c, 0, 91, 103
2, 47028, Note_on_c, 0, 84, 98
2, 47193, Note_on_c, 0, 79, 0
2, 47204, Note_on_c, 0, 79, 81
2, 47391, Note_on_c, 0, 66, 104
2, 47398, Note_on_c, 0, 62, 103
2, 47402, Note_on_c, 0, 50, 97
2, 47408, Note_on_c, 0, 48, 0
2, 47412, Note_on_c, 0, 67, 0
2, 47412, Note_on_c, 0, 84, 0
2, 47412, Note_on_c, 0, 79, 0
2, 47416, Note_on_c, 0, 76, 0
2, 47416, Note_on_c, 0, 60, 0
2, 47417, Note_on_c, 0, 64, 0
2, 47417, Note_on_c, 0, 88, 0
2, 47418, Note_on_c, 0, 91, 0
2, 47434, Control_c, 0, 64, 0
2, 47562, Control_c, 0, 64, 127
2, 47594, Note_on_c, 0, 78, 90
2, 47765, Note_on_c, 0, 90, 105
2, 47766, Note_on_c, 0, 81, 94
2, 47772, Note_on_c, 0, 86, 86
2, 47938, Note_on_c, 0, 78, 0
2, 47944, Note_on_c, 0, 78, 90
2, 47947, Note_on_c, 0, 64, 96
2, 48130, Note_on_c, 0, 64, 0
2, 48134, Note_on_c, 0, 64, 101
2, 48137, Note_on_c, 0, 59, 95
2, 48139, Note_on_c, 0, 52, 91
2, 48160, Control_c, 0, 64, 0
2, 48164, Note_on_c, 0, 50, 0
2, 48165, Note_on_c, 0, 62, 0
2, 48165, Note_on_c, 0, 86, 0
2, 48166, Note_on_c, 0, 78, 0
2, 48166, Note_on_c, 0, 81, 0
2, 48167, Note_on_c, 0, 66, 0
2, 48167, Note_on_c, 0, 90, 0
2, 48332, Note_on_c, 0, 76, 90
2, 48514, Note_on_c, 0, 76, 0
2, 48517, Note_on_c, 0, 88, 102
2, 48518, Note_on_c, 0, 81, 93
2, 48522, Note_on_c, 0, 76, 96
2, 48560, Control_c, 0, 64, 127
2, 48702, Note_on_c, 0, 83, 93
2, 48875, Note_on_c, 0, 81, 0
2, 48885, Note_on_c, 0, 81, 95
2, 49059, Note_on_c, 0, 76, 0
2, 49067, Note_on_c, 0, 76, 95
2, 49244, Note_on_c, 0, 81, 0
2, 49250, Note_on_c, 0, 81, 100
2, 49413, Note_on_c, 0, 83, 0
2, 49419, Note_on_c, 0, 83, 94
2, 49597, Note_on_c, 0, 76, 0
2, 49597, Note_on_c, 0, 83, 0
2, 49597, Note_on_c, 0, 88, 0
2, 49601, Note_on_c, 0, 76, 93
2, 49603, Note_on_c, 0, 83, 89
2, 49606, Note_on_c, 0, 100, 109
2, 49607, Note_on_c, 0, 88, 99
2, 49620, Note_on_c, 0, 93, 90
2, 49704, Note_on_c, 0, 93, 0
2, 49797, Note_on_c, 0, 88, 0
2, 49804, Note_on_c, 0, 95, 85
2, 49807, Note_on_c, 0, 88, 54
2, 49991, Note_on_c, 0, 93, 94
2, 50158, Note_on_c, 0, 88, 0
2, 50166, Note_on_c, 0, 88, 84
2, 50242, Note_on_c, 0, 100, 0
2, 50252, Note_on_c, 0, 100, 113
2, 50423, Control_c, 0, 64, 0
2, 50424, Note_on_c, 0, 52, 0
2, 50429, Note_on_c, 0, 100, 0
2, 50431, Note_on_c, 0, 88, 0
2, 50431, Note_on_c, 0, 83, 0
2, 50432, Note_on_c, 0, 76, 0
2, 50434, Note_on_c, 0, 95, 0
2, 50442, Note_on_c, 0, 93, 0
2, 50449, Note_on_c, 0, 59, 0
2, 50449, Note_on_c, 0, 64, 0
2, 50449, Note_on_c, 0, 81, 0
2, 50585, Note_on_c, 0, 63, 101
2, 50585, Note_on_c, 0, 59, 101
2, 50634, Control_c, 0, 64, 127
2, 50762, Note_on_c, 0, 75, 104
2, 50763, Note_on_c, 0, 71, 102
2, 50941, Note_on_c, 0, 71, 0
2, 50947, Note_on_c, 0, 68, 104
2, 50948, Note_on_c, 0, 71, 102
2, 51079, Control_c, 0, 64, 0
2, 51093, Note_on_c, 0, 75, 0
2, 51093, Note_on_c, 0, 63, 0
2, 51095, Note_on_c, 0, 68, 0
2, 51096, Note_on_c, 0, 59, 0
2, 51098, Note_on_c, 0, 71, 0
2, 51145, Note_on_c, 0, 57, 107
2, 51145, Note_on_c, 0, 69, 103
2, 51146, Note_on_c, 0, 45, 98
2, 51149, Note_on_c, 0, 52, 96
2, 51152, Note_on_c, 0, 66, 94
2, 51154, Note_on_c, 0, 49, 88
2, 51202, Control_c, 0, 64, 127
2, 51325, Note_on_c, 0, 52, 0
2, 51332, Note_on_c, 0, 52, 86
2, 51425, Note_on_c, 0, 57, 0
2, 51429, Note_on_c, 0, 57, 78
2, 51509, Note_on_c, 0, 69, 0
2, 51515, Note_on_c, 0, 81, 103
2, 51516, Note_on_c, 0, 69, 101
2, 51517, Note_on_c, 0, 57, 0
2, 51518, Note_on_c, 0, 78, 94
2, 51519, Note_on_c, 0, 61, 88
2, 51520, Note_on_c, 0, 73, 83
2, 51525, Note_on_c, 0, 57, 90
2, 51617, Note_on_c, 0, 57, 0
2, 51627, Note_on_c, 0, 57, 81
2, 51707, Note_on_c, 0, 71, 97
2, 51713, Note_on_c, 0, 68, 93
2, 51786, Note_on_c, 0, 57, 0
2, 51796, Note_on_c, 0, 57, 89
2, 51851, Control_c, 0, 64, 0
2, 51859, Note_on_c, 0, 68, 0
2, 51860, Note_on_c, 0, 81, 0
2, 51860, Note_on_c, 0, 66, 0
2, 51860, Note_on_c, 0, 78, 0
2, 51861, Note_on_c, 0, 57, 0
2, 51861, Note_on_c, 0, 71, 0
2, 51861, Note_on_c, 0, 49, 0
2, 51861, Note_on_c, 0, 69, 0
2, 51863, Note_on_c, 0, 52, 0
2, 51865, Note_on_c, 0, 45, 0
2, 51878, Note_on_c, 0, 73, 0
2, 51890, Note_on_c, 0, 47, 101
2, 51891, Note_on_c, 0, 59, 104
2, 51892, Note_on_c, 0, 64, 106
2, 51893, Note_on_c, 0, 61, 0
2, 51900, Note_on_c, 0, 61, 95
2, 51939, Control_c, 0, 64, 127
2, 52081, Note_on_c, 0, 54, 92
2, 52170, Note_on_c, 0, 59, 0
2, 52179, Note_on_c, 0, 59, 91
2, 52257, Note_on_c, 0, 63, 100
2, 52259, Note_on_c, 0, 87, 105
2, 52264, Note_on_c, 0, 75, 104
2, 52264, Note_on_c, 0, 83, 99
2, 52283, Note_on_c, 0, 82, 65
2, 52294, Note_on_c, 0, 85, 47
2, 52346, Note_on_c, 0, 59, 0
2, 52357, Note_on_c, 0, 59, 81
2, 52439, Note_on_c, 0, 54, 0
2, 52441, Note_on_c, 0, 71, 103
2, 52443, Note_on_c, 0, 68, 98
2, 52444, Note_on_c, 0, 54, 93
2, 52515, Note_on_c, 0, 59, 0
2, 52525, Note_on_c, 0, 59, 61
2, 52597, Control_c, 0, 64, 0
2, 52600, Note_on_c, 0, 64, 0
2, 52606, Note_on_c, 0, 54, 0
2, 52606, Note_on_c, 0, 63, 0
2, 52607, Note_on_c, 0, 75, 0
2, 52608, Note_on_c, 0, 82, 0
2, 52608, Note_on_c, 0, 85, 0
2, 52609, Note_on_c, 0, 83, 0
2, 52609, Note_on_c, 0, 47, 0
2, 52609, Note_on_c, 0, 68, 0
2, 52611, Note_on_c, 0, 87, 0
2, 52612, Note_on_c, 0, 71, 0
2, 52615, Note_on_c, 0, 59, 0
2, 52615, Note_on_c, 0, 61, 0
2, 52619, Note_on_c, 0, 69, 105
2, 52619, Note_on_c, 0, 59, 97
2, 52622, Note_on_c, 0, 49, 101
2, 52623, Note_on_c, 0, 66, 94
2, 52677, Control_c, 0, 64, 127
2, 52715, Note_on_c, 0, 66, 0
2, 52720, Note_on_c, 0, 66, 63
2, 52776, Note_on_c, 0, 69, 0
2, 52788, Note_on_c, 0, 69, 75
2, 52796, Note_on_c, 0, 56, 88
2, 52899, Note_on_c, 0, 59, 0
2, 52904, Note_on_c, 0, 59, 88
2, 52999, Note_on_c, 0, 69, 0
2, 53003, Note_on_c, 0, 81, 108
2, 53005, Note_on_c, 0, 64, 98
2, 53005, Note_on_c, 0, 69, 101
2, 53009, Note_on_c, 0, 78, 97
2, 53084, Note_on_c, 0, 59, 0
2, 53093, Note_on_c, 0, 59, 45
2, 53176, Note_on_c, 0, 56, 0
2, 53180, Note_on_c, 0, 56, 88
2, 53184, Note_on_c, 0, 71, 97
2, 53187, Note_on_c, 0, 68, 101
2, 53237, Note_on_c, 0, 59, 0
2, 53248, Note_on_c, 0, 59, 37
2, 53349, Control_c, 0, 64, 0
2, 53360, Note_on_c, 0, 64, 0
2, 53364, Note_on_c, 0, 49, 0
2, 53366, Note_on_c, 0, 66, 0
2, 53367, Note_on_c, 0, 64, 102
2, 53367, Note_on_c, 0, 81, 0
2, 53367, Note_on_c, 0, 78, 0
2, 53368, Note_on_c, 0, 68, 0
2, 53368, Note_on_c, 0, 61, 93
2, 53368, Note_on_c, 0, 47, 103
2, 53369, Note_on_c, 0, 69, 0
2, 53370, Note_on_c, 0, 59, 0
2, 53372, Note_on_c, 0, 71, 0
2, 53383, Note_on_c, 0, 56, 0
2, 53460, Control_c, 0, 64, 127
2, 53554, Note_on_c, 0, 54, 93
2, 53654, Note_on_c, 0, 59, 74
2, 53729, Note_on_c, 0, 64, 0
2, 53734, Note_on_c, 0, 64, 93
2, 53736, Note_on_c, 0, 71, 100
2, 53738, Note_on_c, 0, 76, 101
2, 53738, Note_on_c, 0, 83, 103
2, 53739, Note_on_c, 0, 78, 97
2, 53750, Note_on_c, 0, 49, 75
2, 53760, Note_on_c, 0, 49, 0
2, 53821, Note_on_c, 0, 54, 0
2, 53825, Note_on_c, 0, 54, 78
2, 53913, Note_on_c, 0, 47, 0
2, 53921, Note_on_c, 0, 59, 0
2, 53924, Note_on_c, 0, 47, 95
2, 53925, Note_on_c, 0, 59, 106
2, 54013, Note_on_c, 0, 54, 0
2, 54018, Note_on_c, 0, 54, 94
2, 54091, Control_c, 0, 64, 0
2, 54097, Note_on_c, 0, 78, 0
2, 54097, Note_on_c, 0, 47, 0
2, 54100, Note_on_c, 0, 59, 0
2, 54100, Note_on_c, 0, 54, 0
2, 54101, Note_on_c, 0, 83, 0
2, 54101, Note_on_c, 0, 64, 0
2, 54101, Note_on_c, 0, 71, 0
2, 54105, Note_on_c, 0, 61, 0
2, 54116, Note_on_c, 0, 61, 100
2, 54117, Note_on_c, 0, 57, 103
2, 54119, Note_on_c, 0, 45, 104
2, 54197, Control_c, 0, 64, 127
2, 54297, Note_on_c, 0, 45, 0
2, 54300, Note_on_c, 0, 68, 104
2, 54300, Note_on_c, 0, 52, 93
2, 54306, Note_on_c, 0, 45, 87
2, 54382, Note_on_c, 0, 57, 0
2, 54390, Note_on_c, 0, 57, 94
2, 54474, Note_on_c, 0, 61, 0
2, 54476, Note_on_c, 0, 80, 105
2, 54478, Note_on_c, 0, 61, 99
2, 54479, Note_on_c, 0, 73, 106
2, 54480, Note_on_c, 0, 71, 100
2, 54558, Note_on_c, 0, 57, 0
2, 54564, Note_on_c, 0, 57, 85
2, 54666, Note_on_c, 0, 52, 0
2, 54672, Note_on_c, 0, 59, 103
2, 54673, Note_on_c, 0, 52, 85
2, 54846, Control_c, 0, 64, 0
2, 54847, Note_on_c, 0, 47, 105
2, 54850, Note_on_c, 0, 59, 0
2, 54850, Note_on_c, 0, 61, 0
2, 54853, Note_on_c, 0, 80, 0
2, 54854, Note_on_c, 0, 68, 0
2, 54854, Note_on_c, 0, 52, 0
2, 54855, Note_on_c, 0, 59, 104
2, 54855, Note_on_c, 0, 73, 0
2, 54855, Note_on_c, 0, 57, 0
2, 54855, Note_on_c, 0, 45, 0
2, 54855, Note_on_c, 0, 61, 99
2, 54855, Note_on_c, 0, 71, 0
2, 54858, Note_on_c, 0, 76, 0
2, 54942, Control_c, 0, 64, 127
2, 55043, Note_on_c, 0, 68, 104
2, 55049, Note_on_c, 0, 54, 95
2, 55119, Note_on_c, 0, 61, 0
2, 55142, Note_on_c, 0, 59, 0
2, 55152, Note_on_c, 0, 59, 93
2, 55225, Note_on_c, 0, 80, 104
2, 55226, Note_on_c, 0, 73, 106
2, 55226, Note_on_c, 0, 71, 101
2, 55238, Note_on_c, 0, 63, 94
2, 55334, Note_on_c, 0, 59, 0
2, 55344, Note_on_c, 0, 59, 82
2, 55403, Note_on_c, 0, 54, 0
2, 55403, Note_on_c, 0, 63, 0
2, 55408, Note_on_c, 0, 66, 105
2, 55409, Note_on_c, 0, 63, 97
2, 55414, Note_on_c, 0, 54, 98
2, 55595, Control_c, 0, 64, 0
2, 55595, Note_on_c, 0, 54, 0
2, 55599, Note_on_c, 0, 59, 0
2, 55599, Note_on_c, 0, 44, 101
2, 55600, Note_on_c, 0, 47, 0
2, 55600, Note_on_c, 0, 66, 0
2, 55600, Note_on_c, 0, 54, 100
2, 55600, Note_on_c, 0, 71, 0
2, 55600, Note_on_c, 0, 80, 0
2, 55600, Note_on_c, 0, 68, 0
2, 55601, Note_on_c, 0, 73, 0
2, 55601, Note_on_c, 0, 63, 0
2, 55664, Control_c, 0, 64, 127
2, 55772, Note_on_c, 0, 44, 0
2, 55772, Note_on_c, 0, 54, 0
2, 55776, Note_on_c, 0, 51, 91
2, 55777, Note_on_c, 0, 63, 96
2, 55782, Note_on_c, 0, 66, 103
2, 55782, Note_on_c, 0, 54, 92
2, 55783, Note_on_c, 0, 44, 86
2, 55872, Note_on_c, 0, 54, 0
2, 55880, Note_on_c, 0, 54, 83
2, 55970, Note_on_c, 0, 59, 100
2, 55974, Note_on_c, 0, 87, 106
2, 55975, Note_on_c, 0, 83, 106
2, 55976, Note_on_c, 0, 75, 99
2, 56048, Note_on_c, 0, 54, 0
2, 56059, Note_on_c, 0, 54, 86
2, 56153, Note_on_c, 0, 71, 100
2, 56156, Note_on_c, 0, 68, 97
2, 56171, Note_on_c, 0, 63, 0
2, 56175, Note_on_c, 0, 63, 56
2, 56240, Note_on_c, 0, 63, 0
2, 56246, Note_on_c, 0, 69, 98
2, 56250, Note_on_c, 0, 63, 63
2, 56289, Note_on_c, 0, 54, 0
2, 56294, Note_on_c, 0, 87, 0
2, 56295, Note_on_c, 0, 51, 0
2, 56307, Note_on_c, 0, 83, 0
2, 56308, Note_on_c, 0, 75, 0
2, 56308, Note_on_c, 0, 68, 0
2, 56309, Note_on_c, 0, 44, 0
2, 56322, Control_c, 0, 64, 0
2, 56325, Note_on_c, 0, 59, 0
2, 56325, Note_on_c, 0, 63, 0
2, 56325, Note_on_c, 0, 66, 0
2, 56330, Note_on_c, 0, 59, 104
2, 56333, Note_on_c, 0, 49, 100
2, 56334, Note_on_c, 0, 63, 97
2, 56334, Note_on_c, 0, 66, 99
2, 56394, Control_c, 0, 64, 127
2, 56517, Note_on_c, 0, 56, 89
2, 56593, Note_on_c, 0, 59, 0
2, 56603, Note_on_c, 0, 59, 88
2, 56695, Note_on_c, 0, 64, 102
2, 56697, Note_on_c, 0, 80, 104
2, 56700, Note_on_c, 0, 68, 107
2, 56701, Note_on_c, 0, 76, 102
2, 56770, Note_on_c, 0, 59, 0
2, 56781, Note_on_c, 0, 59, 50
2, 56878, Note_on_c, 0, 56, 0
2, 56884, Note_on_c, 0, 56, 93
2, 56997, Control_c, 0, 64, 0
2, 57003, Note_on_c, 0, 63, 0
2, 57003, Note_on_c, 0, 56, 0
2, 57003, Note_on_c, 0, 59, 0
2, 57004, Note_on_c, 0, 69, 0
2, 57004, Note_on_c, 0, 49, 0
2, 57004, Note_on_c, 0, 64, 0
2, 57004, Note_on_c, 0, 76, 0
2, 57004, Note_on_c, 0, 66, 0
2, 57004, Note_on_c, 0, 68, 0
2, 57008, Note_on_c, 0, 71, 0
2, 57063, Note_on_c, 0, 45, 97
2, 57065, Note_on_c, 0, 52, 88
2, 57065, Note_on_c, 0, 49, 97
2, 57093, Control_c, 0, 64, 127
2, 57239, Note_on_c, 0, 61, 104
2, 57239, Note_on_c, 0, 73, 93
2, 57346, Note_on_c, 0, 76, 90
2, 57423, Note_on_c, 0, 61, 0
2, 57431, Note_on_c, 0, 85, 98
2, 57434, Note_on_c, 0, 61, 104
2, 57500, Note_on_c, 0, 80, 0
2, 57508, Note_on_c, 0, 80, 92
2, 57615, Note_on_c, 0, 57, 102
2, 57617, Note_on_c, 0, 69, 85
2, 57692, Note_on_c, 0, 73, 0
2, 57696, Note_on_c, 0, 73, 88
2, 57792, Note_on_c, 0, 69, 0
2, 57799, Note_on_c, 0, 69, 109
2, 57807, Note_on_c, 0, 85, 0
2, 57818, Note_on_c, 0, 85, 101
2, 57907, Note_on_c, 0, 80, 0
2, 57911, Note_on_c, 0, 80, 89
2, 57979, Note_on_c, 0, 68, 111
2, 57999, Note_on_c, 0, 76, 0
2, 58008, Note_on_c, 0, 76, 88
2, 58076, Note_on_c, 0, 73, 0
2, 58081, Note_on_c, 0, 73, 86
2, 58168, Note_on_c, 0, 85, 0
2, 58178, Note_on_c, 0, 85, 105
2, 58260, Note_on_c, 0, 80, 0
2, 58266, Note_on_c, 0, 80, 90
2, 58344, Note_on_c, 0, 59, 99
2, 58360, Note_on_c, 0, 76, 0
2, 58370, Note_on_c, 0, 76, 74
2, 58414, Note_on_c, 0, 73, 0
2, 58424, Note_on_c, 0, 73, 79
2, 58502, Note_on_c, 0, 80, 0
2, 58502, Note_on_c, 0, 68, 0
2, 58502, Note_on_c, 0, 45, 0
2, 58502, Note_on_c, 0, 69, 0
2, 58502, Note_on_c, 0, 49, 0
2, 58502, Note_on_c, 0, 52, 0
2, 58503, Note_on_c, 0, 73, 0
2, 58503, Note_on_c, 0, 57, 0
2, 58503, Control_c, 0, 64, 0
2, 58503, Note_on_c, 0, 85, 0
2, 58504, Note_on_c, 0, 76, 0
2, 58513, Note_on_c, 0, 61, 0
2, 58517, Note_on_c, 0, 47, 101
2, 58524, Note_on_c, 0, 61, 95
2, 58525, Note_on_c, 0, 54, 89
2, 58529, Note_on_c, 0, 87, 106
2, 58531, Note_on_c, 0, 51, 90
2, 58552, Control_c, 0, 64, 127
2, 58609, Note_on_c, 0, 83, 95
2, 58695, Note_on_c, 0, 81, 97
2, 58724, Note_on_c, 0, 69, 108
2, 58800, Note_on_c, 0, 75, 82
2, 58889, Note_on_c, 0, 68, 109
2, 58905, Note_on_c, 0, 87, 0
2, 58916, Note_on_c, 0, 87, 108
2, 58982, Note_on_c, 0, 83, 0
2, 58991, Note_on_c, 0, 83, 91
2, 59089, Note_on_c, 0, 81, 0
2, 59100, Note_on_c, 0, 81, 97
2, 59166, Note_on_c, 0, 75, 0
2, 59173, Note_on_c, 0, 75, 89
2, 59258, Note_on_c, 0, 54, 0
2, 59258, Note_on_c, 0, 59, 0
2, 59262, Note_on_c, 0, 59, 105
2, 59269, Note_on_c, 0, 54, 107
2, 59284, Note_on_c, 0, 88, 107
2, 59366, Note_on_c, 0, 83, 0
2, 59370, Note_on_c, 0, 83, 87
2, 59477, Note_on_c, 0, 78, 89
2, 59537, Note_on_c, 0, 63, 98
2, 59540, Note_on_c, 0, 66, 99
2, 59554, Note_on_c, 0, 76, 88
2, 59642, Note_on_c, 0, 88, 0
2, 59648, Note_on_c, 0, 88, 107
2, 59742, Note_on_c, 0, 83, 0
2, 59751, Note_on_c, 0, 83, 87
2, 59811, Note_on_c, 0, 61, 0
2, 59818, Note_on_c, 0, 64, 104
2, 59818, Note_on_c, 0, 61, 100
2, 59850, Note_on_c, 0, 83, 0
2, 59857, Note_on_c, 0, 83, 76
2, 59857, Note_on_c, 0, 78, 0
2, 59867, Note_on_c, 0, 78, 82
2, 59904, Note_on_c, 0, 76, 0
2, 59912, Note_on_c, 0, 76, 94
2, 60003, Note_on_c, 0, 59, 0
2, 60003, Note_on_c, 0, 63, 0
2, 60007, Note_on_c, 0, 51, 0
2, 60007, Note_on_c, 0, 47, 0
2, 60007, Note_on_c, 0, 68, 0
2, 60008, Note_on_c, 0, 66, 0
2, 60008, Note_on_c, 0, 69, 0
2, 60008, Note_on_c, 0, 75, 0
2, 60008, Note_on_c, 0, 76, 0
2, 60008, Note_on_c, 0, 61, 0
2, 60008, Note_on_c, 0, 54, 0
2, 60008, Control_c, 0, 64, 0
2, 60008, Note_on_c, 0, 78, 0
2, 60008, Note_on_c, 0, 87, 0
2, 60008, Note_on_c, 0, 81, 0
2, 60009, Note_on_c, 0, 83, 0
2, 60009, Note_on_c, 0, 64, 0
2, 60009, Note_on_c, 0, 88, 0
2, 60009, Note_on_c, 0, 63, 103
2, 60010, Note_on_c, 0, 59, 102
2, 60015, Note_on_c, 0, 90, 104
2, 60018, Note_on_c, 0, 56, 94
2, 60021, Note_on_c, 0, 49, 96
2, 60088, Control_c, 0, 64, 127
2, 60096, Note_on_c, 0, 90, 0
2, 60106, Note_on_c, 0, 90, 81
2, 60106, Note_on_c, 0, 87, 93
2, 60199, Note_on_c, 0, 83, 90
2, 60292, Note_on_c, 0, 78, 86
2, 60372, Note_on_c, 0, 90, 0
2, 60382, Note_on_c, 0, 90, 106
2, 60464, Note_on_c, 0, 87, 0
2, 60474, Note_on_c, 0, 87, 92
2, 60556, Note_on_c, 0, 83, 0
2, 60563, Note_on_c, 0, 83, 87
2, 60648, Note_on_c, 0, 78, 0
2, 60656, Note_on_c, 0, 78, 87
2, 60737, Note_on_c, 0, 37, 101
2, 60741, Note_on_c, 0, 90, 0
2, 60751, Note_on_c, 0, 90, 103
2, 60825, Note_on_c, 0, 87, 0
2, 60829, Note_on_c, 0, 87, 81
2, 60933, Note_on_c, 0, 83, 0
2, 60941, Note_on_c, 0, 83, 81
2, 61017, Note_on_c, 0, 78, 0
2, 61023, Note_on_c, 0, 78, 93
2, 61102, Note_on_c, 0, 90, 0
2, 61113, Note_on_c, 0, 90, 105
2, 61201, Note_on_c, 0, 87, 0
2, 61208, Note_on_c, 0, 87, 97
2, 61288, Note_on_c, 0, 69, 99
2, 61309, Note_on_c, 0, 83, 0
2, 61314, Note_on_c, 0, 83, 66
2, 61347, Note_on_c, 0, 78, 0
2, 61354, Note_on_c, 0, 78, 81
2, 61475, Note_on_c, 0, 68, 104
2, 61478, Note_on_c, 0, 92, 111
2, 61479, Note_on_c, 0, 64, 98
2, 61480, Note_on_c, 0, 61, 90
2, 61568, Note_on_c, 0, 88, 107
2, 61647, Note_on_c, 0, 87, 0
2, 61656, Note_on_c, 0, 87, 101
2, 61756, Note_on_c, 0, 85, 105
2, 61832, Note_on_c, 0, 80, 97
2, 61948, Note_on_c, 0, 76, 90
2, 62034, Note_on_c, 0, 75, 94
2, 62112, Note_on_c, 0, 73, 97
2, 62192, Note_on_c, 0, 68, 0
2, 62202, Note_on_c, 0, 68, 99
2, 62203, Note_on_c, 0, 47, 107
2, 62277, Note_on_c, 0, 64, 0
2, 62286, Note_on_c, 0, 64, 95
2, 62369, Note_on_c, 0, 59, 0
2, 62369, Note_on_c, 0, 63, 0
2, 62369, Note_on_c, 0, 75, 0
2, 62375, Note_on_c, 0, 63, 104
2, 62376, Note_on_c, 0, 59, 101
2, 62378, Note_on_c, 0, 75, 97
2, 62477, Note_on_c, 0, 54, 95
2, 62561, Note_on_c, 0, 87, 0
2, 62566, Note_on_c, 0, 52, 82
2, 62568, Note_on_c, 0, 75, 0
2, 62571, Note_on_c, 0, 87, 110
2, 62573, Note_on_c, 0, 75, 101
2, 62645, Note_on_c, 0, 51, 86
2, 62730, Note_on_c, 0, 47, 0
2, 62740, Note_on_c, 0, 47, 88
2, 62745, Note_on_c, 0, 83, 0
2, 62755, Note_on_c, 0, 83, 109
2, 62756, Note_on_c, 0, 71, 107
2, 62808, Note_on_c, 0, 42, 90
2, 62881, Note_on_c, 0, 42, 0
2, 62883, Note_on_c, 0, 69, 0
2, 62883, Note_on_c, 0, 51, 0
2, 62883, Note_on_c, 0, 49, 0
2, 62883, Note_on_c, 0, 87, 0
2, 62883, Note_on_c, 0, 37, 0
2, 62884, Note_on_c, 0, 88, 0
2, 62884, Note_on_c, 0, 78, 0
2, 62884, Note_on_c, 0, 73, 0
2, 62884, Note_on_c, 0, 85, 0
2, 62884, Note_on_c, 0, 68, 0
2, 62884, Note_on_c, 0, 83, 0
2, 62884, Note_on_c, 0, 56, 0
2, 62884, Note_on_c, 0, 80, 0
2, 62884, Note_on_c, 0, 61, 0
2, 62884, Note_on_c, 0, 75, 0
2, 62884, Note_on_c, 0, 54, 0
2, 62885, Note_on_c, 0, 76, 0
2, 62885, Note_on_c, 0, 47, 0
2, 62885, Note_on_c, 0, 59, 0
2, 62885, Note_on_c, 0, 64, 0
2, 62886, Note_on_c, 0, 52, 0
2, 62886, Note_on_c, 0, 71, 0
2, 62888, Control_c, 0, 64, 0
2, 62891, Note_on_c, 0, 90, 0
2, 62891, Note_on_c, 0, 92, 0
2, 62899, Note_on_c, 0, 63, 0
2, 62932, Note_on_c, 0, 81, 110
2, 62934, Note_on_c, 0, 33, 96
2, 62934, Note_on_c, 0, 45, 111
2, 62934, Note_on_c, 0, 69, 106
2, 62935, Note_on_c, 0, 78, 103
2, 62952, Control_c, 0, 64, 127
2, 63214, Note_on_c, 0, 49, 83
2, 63298, Note_on_c, 0, 69, 0
2, 63298, Note_on_c, 0, 78, 0
2, 63298, Note_on_c, 0, 81, 0
2, 63302, Note_on_c, 0, 81, 105
2, 63303, Note_on_c, 0, 59, 100
2, 63304, Note_on_c, 0, 69, 105
2, 63305, Note_on_c, 0, 78, 102
2, 63387, Note_on_c, 0, 52, 85
2, 63494, Note_on_c, 0, 83, 107
2, 63495, Note_on_c, 0, 71, 103
2, 63498, Note_on_c, 0, 80, 95
2, 63536, Note_on_c, 0, 52, 0
2, 63548, Note_on_c, 0, 52, 69
2, 63657, Control_c, 0, 64, 0
2, 63661, Note_on_c, 0, 49, 0
2, 63662, Note_on_c, 0, 81, 0
2, 63663, Note_on_c, 0, 52, 0
2, 63663, Note_on_c, 0, 59, 0
2, 63663, Note_on_c, 0, 80, 0
2, 63664, Note_on_c, 0, 78, 0
2, 63664, Note_on_c, 0, 71, 0
2, 63664, Note_on_c, 0, 83, 0
2, 63664, Note_on_c, 0, 45, 0
2, 63666, Note_on_c, 0, 69, 0
2, 63674, Note_on_c, 0, 33, 0
2, 63677, Note_on_c, 0, 47, 110
2, 63678, Note_on_c, 0, 76, 106
2, 63679, Note_on_c, 0, 35, 98
2, 63679, Note_on_c, 0, 64, 106
2, 63683, Note_on_c, 0, 73, 103
2, 63720, Control_c, 0, 64, 127
2, 63843, Note_on_c, 0, 47, 0
2, 63848, Note_on_c, 0, 47, 91
2, 63947, Note_on_c, 0, 52, 86
2, 64036, Note_on_c, 0, 59, 102
2, 64041, Note_on_c, 0, 83, 104
2, 64043, Note_on_c, 0, 87, 105
2, 64050, Note_on_c, 0, 75, 98
2, 64122, Note_on_c, 0, 54, 86
2, 64227, Note_on_c, 0, 52, 0
2, 64227, Note_on_c, 0, 83, 0
2, 64232, Note_on_c, 0, 83, 105
2, 64232, Note_on_c, 0, 71, 104
2, 64233, Note_on_c, 0, 80, 98
2, 64236, Note_on_c, 0, 52, 85
2, 64312, Note_on_c, 0, 54, 0
2, 64318, Note_on_c, 0, 54, 88
2, 64414, Control_c, 0, 64, 0
2, 64414, Note_on_c, 0, 52, 0
2, 64414, Note_on_c, 0, 54, 0
2, 64415, Note_on_c, 0, 87, 0
2, 64415, Note_on_c, 0, 75, 0
2, 64416, Note_on_c, 0, 76, 0
2, 64416, Note_on_c, 0, 47, 0
2, 64416, Note_on_c, 0, 83, 0
2, 64416, Note_on_c, 0, 80, 0
2, 64416, Note_on_c, 0, 59, 0
2, 64416, Note_on_c, 0, 35, 0
2, 64416, Note_on_c, 0, 71, 0
2, 64425, Note_on_c, 0, 81, 110
2, 64429, Note_on_c, 0, 78, 105
2, 64430, Note_on_c, 0, 69, 107
2, 64430, Note_on_c, 0, 49, 100
2, 64431, Note_on_c, 0, 37, 97
2, 64435, Note_on_c, 0, 64, 0
2, 64435, Note_on_c, 0, 73, 0
2, 64481, Control_c, 0, 64, 127
2, 64596, Note_on_c, 0, 49, 0
2, 64605, Note_on_c, 0, 49, 91
2, 64699, Note_on_c, 0, 52, 89
2, 64788, Note_on_c, 0, 69, 0
2, 64788, Note_on_c, 0, 78, 0
2, 64788, Note_on_c, 0, 81, 0
2, 64793, Note_on_c, 0, 59, 98
2, 64794, Note_on_c, 0, 78, 104
2, 64794, Note_on_c, 0, 81, 109
2, 64797, Note_on_c, 0, 69, 102
2, 64872, Note_on_c, 0, 52, 0
2, 64884, Note_on_c, 0, 52, 77
2, 64980, Note_on_c, 0, 37, 0
2, 64980, Note_on_c, 0, 49, 0
2, 64984, Note_on_c, 0, 83, 105
2, 64984, Note_on_c, 0, 49, 91
2, 64985, Note_on_c, 0, 71, 100
2, 64986, Note_on_c, 0, 80, 97
2, 64988, Note_on_c, 0, 37, 81
2, 65049, Note_on_c, 0, 52, 0
2, 65054, Note_on_c, 0, 52, 74
2, 65131, Control_c, 0, 64, 0
2, 65138, Note_on_c, 0, 49, 0
2, 65139, Note_on_c, 0, 37, 0
2, 65139, Note_on_c, 0, 80, 0
2, 65140, Note_on_c, 0, 81, 0
2, 65141, Note_on_c, 0, 52, 0
2, 65141, Note_on_c, 0, 71, 0
2, 65141, Note_on_c, 0, 83, 0
2, 65142, Note_on_c, 0, 59, 0
2, 65143, Note_on_c, 0, 69, 0
2, 65143, Note_on_c, 0, 78, 0
2, 65160, Note_on_c, 0, 47, 106
2, 65161, Note_on_c, 0, 76, 105
2, 65162, Note_on_c, 0, 64, 104
2, 65162, Note_on_c, 0, 35, 95
2, 65165, Note_on_c, 0, 68, 93
2, 65166, Note_on_c, 0, 73, 102
2, 65172, Note_on_c, 0, 68, 0
2, 65203, Control_c, 0, 64, 127
2, 65326, Note_on_c, 0, 47, 0
2, 65332, Note_on_c, 0, 47, 92
2, 65427, Note_on_c, 0, 52, 86
2, 65520, Note_on_c, 0, 59, 98
2, 65609, Note_on_c, 0, 54, 94
2, 65710, Note_on_c, 0, 52, 0
2, 65710, Note_on_c, 0, 64, 0
2, 65714, Note_on_c, 0, 52, 92
2, 65715, Note_on_c, 0, 71, 101
2, 65719, Note_on_c, 0, 64, 84
2, 65802, Note_on_c, 0, 54, 0
2, 65806, Note_on_c, 0, 54, 84
2, 65867, Control_c, 0, 64, 0
2, 65867, Note_on_c, 0, 52, 0
2, 65868, Note_on_c, 0, 54, 0
2, 65868, Note_on_c, 0, 64, 0
2, 65868, Note_on_c, 0, 76, 0
2, 65868, Note_on_c, 0, 47, 0
2, 65869, Note_on_c, 0, 71, 0
2, 65870, Note_on_c, 0, 59, 0
2, 65879, Note_on_c, 0, 35, 0
2, 65886, Note_on_c, 0, 73, 0
2, 65892, Note_on_c, 0, 33, 98
2, 65892, Note_on_c, 0, 73, 108
2, 65894, Note_on_c, 0, 45, 107
2, 65932, Control_c, 0, 64, 127
2, 66071, Note_on_c, 0, 45, 0
2, 66075, Note_on_c, 0, 45, 93
2, 66081, Note_on_c, 0, 80, 108
2, 66192, Note_on_c, 0, 52, 77
2, 66262, Note_on_c, 0, 68, 108
2, 66266, Note_on_c, 0, 61, 93
2, 66267, Note_on_c, 0, 59, 100
2, 66268, Note_on_c, 0, 57, 93
2, 66355, Note_on_c, 0, 52, 0
2, 66360, Note_on_c, 0, 52, 89
2, 66446, Note_on_c, 0, 44, 87
2, 66452, Note_on_c, 0, 71, 103
2, 66455, Note_on_c, 0, 44, 0
2, 66516, Note_on_c, 0, 52, 0
2, 66525, Note_on_c, 0, 52, 90
2, 66585, Control_c, 0, 64, 0
2, 66588, Note_on_c, 0, 80, 0
2, 66589, Note_on_c, 0, 57, 0
2, 66589, Note_on_c, 0, 45, 0
2, 66589, Note_on_c, 0, 52, 0
2, 66589, Note_on_c, 0, 73, 0
2, 66589, Note_on_c, 0, 68, 0
2, 66590, Note_on_c, 0, 61, 0
2, 66591, Note_on_c, 0, 59, 0
2, 66591, Note_on_c, 0, 71, 0
2, 66600, Note_on_c, 0, 33, 0
2, 66630, Note_on_c, 0, 47, 111
2, 66635, Note_on_c, 0, 35, 95
2, 66638, Note_on_c, 0, 73, 101
2, 66670, Control_c, 0, 64, 127
2, 66800, Note_on_c, 0, 47, 0
2, 66811, Note_on_c, 0, 47, 90
2, 66818, Note_on_c, 0, 80, 104
2, 66908, Note_on_c, 0, 54, 89
2, 66988, Note_on_c, 0, 68, 109
2, 66990, Note_on_c, 0, 59, 100
2, 66992, Note_on_c, 0, 61, 100
2, 66994, Note_on_c, 0, 63, 97
2, 67084, Note_on_c, 0, 54, 0
2, 67093, Note_on_c, 0, 54, 88
2, 67169, Note_on_c, 0, 47, 0
2, 67174, Note_on_c, 0, 47, 93
2, 67195, Note_on_c, 0, 78, 111
2, 67197, Note_on_c, 0, 71, 100
2, 67200, Note_on_c, 0, 75, 101
2, 67269, Note_on_c, 0, 54, 0
2, 67274, Note_on_c, 0, 54, 94
2, 67349, Control_c, 0, 64, 0
2, 67352, Note_on_c, 0, 80, 0
2, 67355, Note_on_c, 0, 61, 0
2, 67355, Note_on_c, 0, 68, 0
2, 67355, Note_on_c, 0, 59, 0
2, 67355, Note_on_c, 0, 54, 0
2, 67356, Note_on_c, 0, 73, 0
2, 67357, Note_on_c, 0, 63, 0
2, 67357, Note_on_c, 0, 35, 0
2, 67364, Note_on_c, 0, 44, 104
2, 67365, Note_on_c, 0, 32, 93
2, 67376, Note_on_c, 0, 47, 0
2, 67422, Control_c, 0, 64, 127
2, 67537, Note_on_c, 0, 71, 0
2, 67537, Note_on_c, 0, 75, 0
2, 67537, Note_on_c, 0, 78, 0
2, 67545, Note_on_c, 0, 71, 99
2, 67548, Note_on_c, 0, 78, 104
2, 67549, Note_on_c, 0, 75, 90
2, 67553, Note_on_c, 0, 44, 0
2, 67556, Note_on_c, 0, 51, 82
2, 67557, Note_on_c, 0, 44, 80
2, 67650, Note_on_c, 0, 54, 91
2, 67730, Note_on_c, 0, 59, 104
2, 67731, Note_on_c, 0, 83, 104
2, 67732, Note_on_c, 0, 87, 105
2, 67822, Note_on_c, 0, 54, 0
2, 67827, Note_on_c, 0, 54, 93
2, 67906, Note_on_c, 0, 83, 0
2, 67914, Note_on_c, 0, 51, 0
2, 67915, Note_on_c, 0, 80, 102
2, 67917, Note_on_c, 0, 83, 103
2, 67919, Note_on_c, 0, 51, 90
2, 67992, Note_on_c, 0, 81, 103
2, 68006, Note_on_c, 0, 54, 0
2, 68011, Note_on_c, 0, 54, 88
2, 68041, Note_on_c, 0, 59, 0
2, 68041, Note_on_c, 0, 87, 0
2, 68041, Note_on_c, 0, 44, 0
2, 68041, Note_on_c, 0, 51, 0
2, 68042, Note_on_c, 0, 71, 0
2, 68042, Note_on_c, 0, 83, 0
2, 68043, Note_on_c, 0, 80, 0
2, 68049, Control_c, 0, 64, 0
2, 68052, Note_on_c, 0, 32, 0
2, 68067, Note_on_c, 0, 75, 0
2, 68075, Note_on_c, 0, 54, 0
2, 68083, Note_on_c, 0, 78, 0
2, 68090, Note_on_c, 0, 78, 110
2, 68092, Note_on_c, 0, 37, 103
2, 68094, Note_on_c, 0, 75, 94
2, 68121, Control_c, 0, 64, 127
2, 68290, Note_on_c, 0, 56, 90
2, 68380, Note_on_c, 0, 59, 88
2, 68463, Note_on_c, 0, 64, 100
2, 68463, Note_on_c, 0, 80, 105
2, 68464, Note_on_c, 0, 68, 111
2, 68466, Note_on_c, 0, 76, 100
2, 68536, Note_on_c, 0, 59, 0
2, 68542, Note_on_c, 0, 59, 64
2, 68628, Note_on_c, 0, 56, 0
2, 68637, Note_on_c, 0, 56, 86
2, 68773, Control_c, 0, 64, 0
2, 68778, Note_on_c, 0, 56, 0
2, 68778, Note_on_c, 0, 75, 0
2, 68778, Note_on_c, 0, 59, 0
2, 68780, Note_on_c, 0, 78, 0
2, 68780, Note_on_c, 0, 68, 0
2, 68782, Note_on_c, 0, 64, 0
2, 68789, Note_on_c, 0, 81, 0
2, 68805, Note_on_c, 0, 37, 0
2, 68834, Note_on_c, 0, 33, 104
2, 68835, Note_on_c, 0, 45, 110
2, 68935, Control_c, 0, 64, 127
2, 69027, Note_on_c, 0, 49, 88
2, 69116, Note_on_c, 0, 51, 90
2, 69212, Note_on_c, 0, 80, 0
2, 69219, Note_on_c, 0, 76, 0
2, 69221, Note_on_c, 0, 80, 108
2, 69223, Note_on_c, 0, 76, 97
2, 69224, Note_on_c, 0, 68, 108
2, 69226, Note_on_c, 0, 73, 101
2, 69304, Note_on_c, 0, 51, 0
2, 69312, Note_on_c, 0, 51, 87
2, 69403, Note_on_c, 0, 52, 94
2, 69465, Note_on_c, 0, 33, 0
2, 69511, Note_on_c, 0, 54, 93
2, 69588, Note_on_c, 0, 56, 95
2, 69688, Note_on_c, 0, 54, 0
2, 69696, Note_on_c, 0, 54, 92
2, 69765, Note_on_c, 0, 56, 0
2, 69775, Note_on_c, 0, 56, 88
2, 69867, Note_on_c, 0, 57, 100
2, 69961, Note_on_c, 0, 78, 109
2, 69962, Note_on_c, 0, 59, 96
2, 69968, Note_on_c, 0, 75, 102
2, 70042, Note_on_c, 0, 61, 96
2, 70133, Note_on_c, 0, 73, 0
2, 70133, Note_on_c, 0, 76, 0
2, 70143, Note_on_c, 0, 76, 108
2, 70143, Note_on_c, 0, 63, 100
2, 70145, Note_on_c, 0, 73, 107
2, 70233, Note_on_c, 0, 64, 95
2, 70313, Control_c, 0, 64, 0
2, 70315, Note_on_c, 0, 49, 0
2, 70315, Note_on_c, 0, 63, 0
2, 70316, Note_on_c, 0, 51, 0
2, 70316, Note_on_c, 0, 80, 0
2, 70316, Note_on_c, 0, 45, 0
2, 70316, Note_on_c, 0, 56, 0
2, 70316, Note_on_c, 0, 78, 0
2, 70317, Note_on_c, 0, 57, 0
2, 70317, Note_on_c, 0, 52, 0
2, 70317, Note_on_c, 0, 61, 0
2, 70317, Note_on_c, 0, 68, 0
2, 70318, Note_on_c, 0, 75, 0
2, 70318, Note_on_c, 0, 59, 0
2, 70319, Note_on_c, 0, 64, 0
2, 70323, Note_on_c, 0, 75, 108
2, 70325, Note_on_c, 0, 35, 100
2, 70326, Note_on_c, 0, 66, 96
2, 70333, Note_on_c, 0, 54, 0
2, 70333, Note_on_c, 0, 73, 0
2, 70341, Note_on_c, 0, 76, 0
2, 70402, Control_c, 0, 64, 127
2, 70419, Note_on_c, 0, 64, 86
2, 70516, Note_on_c, 0, 63, 89
2, 70597, Note_on_c, 0, 61, 94
2, 70680, Note_on_c, 0, 59, 99
2, 70686, Note_on_c, 0, 71, 73
2, 70771, Note_on_c, 0, 61, 0
2, 70782, Note_on_c, 0, 61, 86
2, 70871, Note_on_c, 0, 59, 0
2, 70875, Note_on_c, 0, 59, 86
2, 70970, Note_on_c, 0, 57, 101
2, 71047, Note_on_c, 0, 66, 0
2, 71047, Note_on_c, 0, 71, 0
2, 71051, Note_on_c, 0, 71, 93
2, 71051, Note_on_c, 0, 66, 104
2, 71065, Note_on_c, 0, 56, 92
2, 71147, Note_on_c, 0, 57, 0
2, 71151, Note_on_c, 0, 57, 85
2, 71232, Note_on_c, 0, 56, 0
2, 71236, Note_on_c, 0, 56, 87
2, 71310, Note_on_c, 0, 54, 94
2, 71339, Note_on_c, 0, 75, 0
2, 71347, Note_on_c, 0, 71, 0
2, 71349, Note_on_c, 0, 75, 110
2, 71351, Note_on_c, 0, 71, 96
2, 71358, Note_on_c, 0, 68, 82
2, 71407, Note_on_c, 0, 52, 90
2, 71489, Note_on_c, 0, 51, 82
2, 71551, Note_on_c, 0, 49, 91
2, 71619, Note_on_c, 0, 80, 106
2, 71623, Note_on_c, 0, 75, 0
2, 71633, Note_on_c, 0, 75, 96
2, 71656, Note_on_c, 0, 47, 96
2, 71796, Note_on_c, 0, 59, 0
2, 71797, Note_on_c, 0, 56, 0
2, 71797, Note_on_c, 0, 64, 0
2, 71797, Note_on_c, 0, 63, 0
2, 71797, Note_on_c, 0, 51, 0
2, 71797, Note_on_c, 0, 52, 0
2, 71797, Note_on_c, 0, 66, 0
2, 71797, Note_on_c, 0, 54, 0
2, 71797, Note_on_c, 0, 68, 0
2, 71798, Note_on_c, 0, 57, 0
2, 71798, Note_on_c, 0, 49, 0
2, 71800, Note_on_c, 0, 71, 0
2, 71800, Note_on_c, 0, 75, 0
2, 71803, Control_c, 0, 64, 0
2, 71803, Note_on_c, 0, 78, 107
2, 71804, Note_on_c, 0, 83, 96
2, 71806, Note_on_c, 0, 75, 101
2, 71806, Note_on_c, 0, 71, 98
2, 71808, Note_on_c, 0, 37, 99
2, 71815, Note_on_c, 0, 35, 0
2, 71815, Note_on_c, 0, 47, 0
2, 71815, Note_on_c, 0, 61, 0
2, 71930, Control_c, 0, 64, 127
2, 71985, Note_on_c, 0, 44, 81
2, 72065, Note_on_c, 0, 47, 91
2, 72153, Note_on_c, 0, 49, 89
2, 72245, Note_on_c, 0, 47, 0
2, 72253, Note_on_c, 0, 47, 82
2, 72337, Note_on_c, 0, 80, 0
2, 72349, Note_on_c, 0, 80, 104
2, 72360, Note_on_c, 0, 49, 0
2, 72364, Note_on_c, 0, 49, 82
2, 72414, Note_on_c, 0, 78, 0
2, 72419, Note_on_c, 0, 78, 100
2, 72448, Note_on_c, 0, 51, 90
2, 72526, Note_on_c, 0, 52, 94
2, 72528, Note_on_c, 0, 76, 110
2, 72533, Note_on_c, 0, 73, 105
2, 72614, Note_on_c, 0, 49, 0
2, 72620, Note_on_c, 0, 49, 83
2, 72706, Note_on_c, 0, 83, 0
2, 72714, Note_on_c, 0, 51, 0
2, 72718, Note_on_c, 0, 51, 81
2, 72798, Note_on_c, 0, 52, 0
2, 72805, Note_on_c, 0, 52, 89
2, 72915, Note_on_c, 0, 54, 93
2, 72994, Note_on_c, 0, 56, 91
2, 73082, Note_on_c, 0, 76, 0
2, 73089, Note_on_c, 0, 57, 102
2, 73094, Note_on_c, 0, 76, 102
2, 73176, Note_on_c, 0, 59, 94
2, 73266, Note_on_c, 0, 73, 0
2, 73267, Note_on_c, 0, 71, 0
2, 73268, Note_on_c, 0, 80, 0
2, 73268, Note_on_c, 0, 52, 0
2, 73269, Note_on_c, 0, 44, 0
2, 73270, Note_on_c, 0, 57, 0
2, 73270, Note_on_c, 0, 59, 0
2, 73270, Control_c, 0, 64, 0
2, 73270, Note_on_c, 0, 54, 0
2, 73270, Note_on_c, 0, 47, 0
2, 73270, Note_on_c, 0, 56, 0
2, 73273, Note_on_c, 0, 83, 111
2, 73274, Note_on_c, 0, 37, 0
2, 73274, Note_on_c, 0, 49, 0
2, 73274, Note_on_c, 0, 75, 0
2, 73274, Note_on_c, 0, 78, 0
2, 73277, Note_on_c, 0, 71, 105
2, 73279, Note_on_c, 0, 78, 98
2, 73281, Note_on_c, 0, 75, 94
2, 73284, Note_on_c, 0, 49, 91
2, 73290, Note_on_c, 0, 51, 0
2, 73290, Note_on_c, 0, 76, 0
2, 73390, Control_c, 0, 64, 127
2, 73456, Note_on_c, 0, 59, 90
2, 73554, Note_on_c, 0, 61, 81
2, 73642, Note_on_c, 0, 63, 88
2, 73720, Note_on_c, 0, 59, 0
2, 73731, Note_on_c, 0, 59, 81
2, 73827, Note_on_c, 0, 61, 0
2, 73833, Note_on_c, 0, 61, 73
2, 73920, Note_on_c, 0, 63, 0
2, 73925, Note_on_c, 0, 63, 78
2, 74016, Note_on_c, 0, 81, 108
2, 74018, Note_on_c, 0, 64, 92
2, 74019, Note_on_c, 0, 71, 0
2, 74019, Note_on_c, 0, 75, 0
2, 74019, Note_on_c, 0, 78, 0
2, 74023, Note_on_c, 0, 71, 95
2, 74026, Note_on_c, 0, 78, 98
2, 74028, Note_on_c, 0, 75, 92
2, 74112, Note_on_c, 0, 61, 0
2, 74117, Note_on_c, 0, 61, 72
2, 74196, Note_on_c, 0, 63, 0
2, 74203, Note_on_c, 0, 63, 81
2, 74296, Note_on_c, 0, 64, 0
2, 74307, Note_on_c, 0, 64, 93
2, 74396, Note_on_c, 0, 66, 94
2, 74480, Note_on_c, 0, 64, 0
2, 74488, Note_on_c, 0, 64, 91
2, 74576, Note_on_c, 0, 80, 97
2, 74577, Note_on_c, 0, 68, 98
2, 74657, Note_on_c, 0, 71, 0
2, 74657, Note_on_c, 0, 78, 0
2, 74662, Note_on_c, 0, 78, 96
2, 74663, Note_on_c, 0, 71, 93
2, 74762, Note_on_c, 0, 73, 101
2, 74765, Note_on_c, 0, 76, 101
2, 75868, Note_on_c, 0, 44, 75
2, 76231, Note_on_c, 0, 92, 97
2, 76242, Note_on_c, 0, 37, 75
2, 76325, Note_on_c, 0, 88, 94
2, 76423, Note_on_c, 0, 61, 0
2, 76435, Note_on_c, 0, 61, 73
2, 76435, Note_on_c, 0, 85, 81
2, 76538, Note_on_c, 0, 80, 0
2, 76544, Note_on_c, 0, 80, 72
2, 76600, Note_on_c, 0, 64, 0
2, 76606, Note_on_c, 0, 64, 87
2, 76623, Note_on_c, 0, 92, 0
2, 76628, Note_on_c, 0, 92, 98
2, 76715, Note_on_c, 0, 88, 0
2, 76719, Note_on_c, 0, 88, 80
2, 76784, Note_on_c, 0, 66, 0
2, 76793, Note_on_c, 0, 66, 102
2, 76807, Note_on_c, 0, 85, 0
2, 76818, Note_on_c, 0, 85, 80
2, 76922, Note_on_c, 0, 80, 0
2, 76932, Note_on_c, 0, 80, 73
2, 76976, Note_on_c, 0, 68, 0
2, 76987, Note_on_c, 0, 68, 107
2, 76999, Note_on_c, 0, 92, 0
2, 77010, Note_on_c, 0, 92, 93
2, 77099, Note_on_c, 0, 88, 0
2, 77110, Note_on_c, 0, 88, 89
2, 77222, Note_on_c, 0, 85, 0
2, 77227, Note_on_c, 0, 85, 78
2, 77284, Note_on_c, 0, 69, 105
2, 77314, Note_on_c, 0, 80, 0
2, 77319, Note_on_c, 0, 80, 66
2, 77376, Note_on_c, 0, 92, 0
2, 77386, Note_on_c, 0, 92, 100
2, 77468, Note_on_c, 0, 88, 0
2, 77478, Note_on_c, 0, 88, 96
2, 77552, Note_on_c, 0, 68, 0
2, 77552, Note_on_c, 0, 85, 0
2, 77558, Note_on_c, 0, 68, 102
2, 77563, Note_on_c, 0, 85, 93
2, 77652, Note_on_c, 0, 80, 0
2, 77656, Note_on_c, 0, 80, 73
2, 77756, Control_c, 0, 64, 0
2, 77757, Note_on_c, 0, 67, 101
2, 77760, Note_on_c, 0, 49, 0
2, 77760, Note_on_c, 0, 64, 0
2, 77760, Note_on_c, 0, 73, 0
2, 77761, Note_on_c, 0, 81, 0
2, 77761, Note_on_c, 0, 80, 0
2, 77761, Note_on_c, 0, 92, 0
2, 77761, Note_on_c, 0, 78, 0
2, 77761, Note_on_c, 0, 83, 0
2, 77762, Note_on_c, 0, 66, 0
2, 77762, Note_on_c, 0, 85, 0
2, 77762, Note_on_c, 0, 68, 0
2, 77762, Note_on_c, 0, 69, 0
2, 77762, Note_on_c, 0, 71, 0
2, 77762, Note_on_c, 0, 63, 0
2, 77762, Note_on_c, 0, 76, 0
2, 77762, Note_on_c, 0, 44, 0
2, 77762, Note_on_c, 0, 88, 0
2, 77764, Note_on_c, 0, 64, 97
2, 77764, Note_on_c, 0, 48, 90
2, 77764, Note_on_c, 0, 36, 82
2, 77765, Note_on_c, 0, 43, 79
2, 77767, Note_on_c, 0, 37, 0
2, 77767, Note_on_c, 0, 59, 0
2, 77767, Note_on_c, 0, 61, 0
2, 77775, Note_on_c, 0, 75, 0
2, 77829, Control_c, 0, 64, 127
2, 77890, Note_on_c, 0, 76, 72
2, 77965, Note_on_c, 0, 79, 79
2, 78057, Note_on_c, 0, 84, 93
2, 78143, Note_on_c, 0, 91, 103
2, 78231, Note_on_c, 0, 88, 98
2, 78336, Note_on_c, 0, 84, 0
2, 78340, Note_on_c, 0, 84, 88
2, 78420, Note_on_c, 0, 79, 0
2, 78430, Note_on_c, 0, 79, 81
2, 78504, Note_on_c, 0, 64, 0
2, 78512, Note_on_c, 0, 91, 0
2, 78516, Note_on_c, 0, 64, 91
2, 78516, Note_on_c, 0, 60, 91
2, 78522, Note_on_c, 0, 91, 97
2, 78604, Note_on_c, 0, 88, 0
2, 78609, Note_on_c, 0, 88, 96
2, 78696, Note_on_c, 0, 84, 0
2, 78705, Note_on_c, 0, 84, 81
2, 78789, Note_on_c, 0, 79, 0
2, 78798, Note_on_c, 0, 79, 79
2, 78888, Note_on_c, 0, 91, 0
2, 78899, Note_on_c, 0, 91, 108
2, 78973, Note_on_c, 0, 88, 0
2, 78984, Note_on_c, 0, 88, 97
2, 79057, Note_on_c, 0, 84, 0
2, 79066, Note_on_c, 0, 84, 89
2, 79142, Note_on_c, 0, 79, 0
2, 79150, Note_on_c, 0, 79, 78
2, 79259, Control_c, 0, 64, 0
2, 79265, Note_on_c, 0, 67, 0
2, 79268, Note_on_c, 0, 71, 104
2, 79271, Note_on_c, 0, 40, 86
2, 79273, Note_on_c, 0, 67, 98
2, 79275, Note_on_c, 0, 47, 83
2, 79284, Note_on_c, 0, 79, 0
2, 79286, Note_on_c, 0, 60, 0
2, 79286, Note_on_c, 0, 76, 0
2, 79287, Note_on_c, 0, 43, 0
2, 79287, Note_on_c, 0, 91, 0
2, 79288, Note_on_c, 0, 84, 0
2, 79290, Note_on_c, 0, 64, 0
2, 79292, Note_on_c, 0, 36, 0
2, 79311, Note_on_c, 0, 88, 0
2, 79319, Note_on_c, 0, 48, 0
2, 79380, Note_on_c, 0, 71, 0
2, 79390, Note_on_c, 0, 71, 80
2, 79441, Control_c, 0, 64, 127
2, 79456, Note_on_c, 0, 83, 78
2, 79543, Note_on_c, 0, 88, 83
2, 79623, Note_on_c, 0, 95, 102
2, 79712, Note_on_c, 0, 91, 100
2, 79802, Note_on_c, 0, 88, 0
2, 79813, Note_on_c, 0, 88, 99
2, 79895, Note_on_c, 0, 83, 0
2, 79902, Note_on_c, 0, 83, 86
2, 79994, Note_on_c, 0, 67, 0
2, 80002, Note_on_c, 0, 95, 0
2, 80005, Note_on_c, 0, 67, 102
2, 80006, Note_on_c, 0, 64, 98
2, 80006, Note_on_c, 0, 95, 104
2, 80071, Note_on_c, 0, 91, 0
2, 80079, Note_on_c, 0, 91, 104
2, 80171, Note_on_c, 0, 88, 0
2, 80177, Note_on_c, 0, 88, 98
2, 80271, Note_on_c, 0, 83, 0
2, 80279, Note_on_c, 0, 83, 92
2, 80363, Note_on_c, 0, 95, 0
2, 80369, Note_on_c, 0, 95, 107
2, 80448, Note_on_c, 0, 91, 0
2, 80451, Note_on_c, 0, 91, 99
2, 80524, Note_on_c, 0, 88, 0
2, 80534, Note_on_c, 0, 88, 98
2, 80609, Note_on_c, 0, 83, 0
2, 80615, Note_on_c, 0, 83, 93
2, 80716, Note_on_c, 0, 67, 0
2, 80718, Note_on_c, 0, 95, 0
2, 80719, Note_on_c, 0, 91, 0
2, 80720, Note_on_c, 0, 88, 0
2, 80720, Note_on_c, 0, 83, 0
2, 80721, Note_on_c, 0, 64, 0
2, 80721, Note_on_c, 0, 71, 0
2, 80721, Note_on_c, 0, 70, 102
2, 80722, Note_on_c, 0, 51, 93
2, 80726, Note_on_c, 0, 39, 89
2, 80726, Control_c, 0, 64, 0
2, 80727, Note_on_c, 0, 46, 90
2, 80728, Note_on_c, 0, 67, 89
2, 80732, Note_on_c, 0, 40, 0
2, 80732, Note_on_c, 0, 47, 0
2, 80941, Note_on_c, 0, 82, 80
2, 81016, Control_c, 0, 64, 127
2, 81028, Note_on_c, 0, 87, 83
2, 81113, Note_on_c, 0, 94, 99
2, 81196, Note_on_c, 0, 91, 95
2, 81308, Note_on_c, 0, 87, 0
2, 81313, Note_on_c, 0, 87, 82
2, 81384, Note_on_c, 0, 82, 0
2, 81389, Note_on_c, 0, 82, 73
2, 81469, Note_on_c, 0, 67, 0
2, 81469, Note_on_c, 0, 94, 0
2, 81480, Note_on_c, 0, 67, 103
2, 81480, Note_on_c, 0, 94, 104
2, 81482, Note_on_c, 0, 63, 97
2, 81553, Note_on_c, 0, 91, 0
2, 81563, Note_on_c, 0, 91, 91
2, 81669, Note_on_c, 0, 87, 0
2, 81672, Note_on_c, 0, 87, 87
2, 81738, Note_on_c, 0, 82, 0
2, 81746, Note_on_c, 0, 82, 85
2, 81854, Note_on_c, 0, 79, 92
2, 81948, Note_on_c, 0, 75, 90
2, 82030, Note_on_c, 0, 70, 0
2, 82037, Note_on_c, 0, 70, 86
2, 82109, Control_c, 0, 64, 0
2, 82110, Note_on_c, 0, 46, 0
2, 82111, Note_on_c, 0, 87, 0
2, 82112, Note_on_c, 0, 39, 0
2, 82112, Note_on_c, 0, 94, 0
2, 82112, Note_on_c, 0, 82, 0
2, 82112, Note_on_c, 0, 75, 0
2, 82115, Note_on_c, 0, 51, 0
2, 82117, Note_on_c, 0, 70, 0
2, 82119, Note_on_c, 0, 63, 0
2, 82122, Note_on_c, 0, 67, 0
2, 82129, Note_on_c, 0, 79, 0
2, 82130, Note_on_c, 0, 67, 80
2, 82137, Note_on_c, 0, 91, 0
2, 82202, Note_on_c, 0, 43, 88
2, 82207, Note_on_c, 0, 58, 92
2, 82207, Note_on_c, 0, 50, 87
2, 82208, Note_on_c, 0, 31, 82
2, 82214, Note_on_c, 0, 31, 0
2, 82237, Note_on_c, 0, 67, 0
2, 82321, Control_c, 0, 64, 127
2, 82399, Note_on_c, 0, 67, 101
2, 82509, Note_on_c, 0, 91, 89
2, 82579, Note_on_c, 0, 98, 107
2, 82580, Note_on_c, 0, 69, 103
2, 82679, Note_on_c, 0, 94, 92
2, 82759, Note_on_c, 0, 91, 0
2, 82769, Note_on_c, 0, 70, 102
2, 82770, Note_on_c, 0, 91, 99
2, 82862, Note_on_c, 0, 86, 99
2, 82951, Note_on_c, 0, 67, 0
2, 82951, Note_on_c, 0, 98, 0
2, 82955, Note_on_c, 0, 72, 111
2, 82956, Note_on_c, 0, 67, 97
2, 82959, Note_on_c, 0, 62, 97
2, 82962, Note_on_c, 0, 98, 105
2, 83051, Note_on_c, 0, 94, 0
2, 83060, Note_on_c, 0, 94, 94
2, 83136, Note_on_c, 0, 91, 0
2, 83145, Note_on_c, 0, 91, 104
2, 83235, Note_on_c, 0, 70, 0
2, 83243, Note_on_c, 0, 86, 0
2, 83245, Note_on_c, 0, 70, 103
2, 83247, Note_on_c, 0, 86, 92
2, 83320, Note_on_c, 0, 98, 0
2, 83331, Note_on_c, 0, 98, 114
2, 83420, Note_on_c, 0, 94, 0
2, 83427, Note_on_c, 0, 94, 100
2, 83512, Note_on_c, 0, 72, 0
2, 83521, Note_on_c, 0, 72, 106
2, 83596, Note_on_c, 0, 86, 0
2, 83603, Note_on_c, 0, 86, 97
2, 83704, Note_on_c, 0, 58, 0
2, 83713, Note_on_c, 0, 58, 101
2, 83713, Note_on_c, 0, 49, 94
2, 83713, Note_on_c, 0, 73, 109
2, 83715, Note_on_c, 0, 42, 91
2, 83715, Note_on_c, 0, 43, 0
2, 83715, Note_on_c, 0, 50, 0
2, 83715, Control_c, 0, 64, 0
2, 83715, Note_on_c, 0, 94, 0
2, 83715, Note_on_c, 0, 91, 0
2, 83715, Note_on_c, 0, 98, 0
2, 83716, Note_on_c, 0, 62, 0
2, 83716, Note_on_c, 0, 86, 0
2, 83716, Note_on_c, 0, 72, 0
2, 83717, Note_on_c, 0, 70, 0
2, 83718, Note_on_c, 0, 67, 0
2, 83719, Note_on_c, 0, 69, 0
2, 83925, Note_on_c, 0, 85, 93
2, 84023, Note_on_c, 0, 90, 86
2, 84049, Control_c, 0, 64, 127
2, 84106, Note_on_c, 0, 97, 109
2, 84186, Note_on_c, 0, 94, 99
2, 84280, Note_on_c, 0, 90, 0
2, 84289, Note_on_c, 0, 90, 96
2, 84364, Note_on_c, 0, 85, 0
2, 84374, Note_on_c, 0, 85, 96
2, 84447, Note_on_c, 0, 70, 94
2, 84460, Note_on_c, 0, 61, 89
2, 84460, Note_on_c, 0, 66, 79
2, 84464, Note_on_c, 0, 97, 0
2, 84469, Note_on_c, 0, 97, 108
2, 84549, Note_on_c, 0, 94, 0
2, 84556, Note_on_c, 0, 94, 102
2, 84641, Note_on_c, 0, 90, 0
2, 84649, Note_on_c, 0, 90, 95
2, 84725, Note_on_c, 0, 85, 0
2, 84730, Note_on_c, 0, 85, 93
2, 84817, Note_on_c, 0, 97, 0
2, 84823, Note_on_c, 0, 97, 111
2, 84917, Note_on_c, 0, 94, 0
2, 84922, Note_on_c, 0, 94, 104
2, 85017, Note_on_c, 0, 90, 0
2, 85024, Note_on_c, 0, 90, 99
2, 85102, Note_on_c, 0, 85, 0
2, 85110, Note_on_c, 0, 85, 100
2, 85152, Note_on_c, 0, 42, 0
2, 85152, Control_c, 0, 64, 0
2, 85153, Note_on_c, 0, 66, 0
2, 85153, Note_on_c, 0, 94, 0
2, 85154, Note_on_c, 0, 49, 0
2, 85154, Note_on_c, 0, 73, 0
2, 85154, Note_on_c, 0, 97, 0
2, 85154, Note_on_c, 0, 90, 0
2, 85156, Note_on_c, 0, 70, 0
2, 85156, Note_on_c, 0, 85, 0
2, 85163, Note_on_c, 0, 58, 0
2, 85186, Note_on_c, 0, 61, 0
2, 85194, Note_on_c, 0, 61, 101
2, 85196, Note_on_c, 0, 58, 96
2, 85196, Note_on_c, 0, 53, 96
2, 85197, Note_on_c, 0, 73, 104
2, 85197, Note_on_c, 0, 46, 103
2, 85255, Control_c, 0, 64, 127
2, 85390, Note_on_c, 0, 85, 89
2, 85472, Note_on_c, 0, 89, 89
2, 85484, Note_on_c, 0, 72, 102
2, 85550, Note_on_c, 0, 97, 109
2, 85650, Note_on_c, 0, 94, 97
2, 85731, Note_on_c, 0, 89, 0
2, 85743, Note_on_c, 0, 89, 81
2, 85765, Note_on_c, 0, 70, 101
2, 85824, Note_on_c, 0, 85, 0
2, 85834, Note_on_c, 0, 85, 85
2, 85916, Note_on_c, 0, 70, 0
2, 85916, Note_on_c, 0, 97, 0
2, 85923, Note_on_c, 0, 61, 0
2, 85926, Note_on_c, 0, 97, 111
2, 85926, Note_on_c, 0, 70, 104
2, 85930, Note_on_c, 0, 61, 94
2, 85933, Note_on_c, 0, 65, 90
2, 86008, Note_on_c, 0, 94, 0
2, 86016, Note_on_c, 0, 94, 95
2, 86100, Note_on_c, 0, 89, 0
2, 86108, Note_on_c, 0, 89, 94
2, 86200, Note_on_c, 0, 65, 0
2, 86200, Note_on_c, 0, 85, 0
2, 86210, Note_on_c, 0, 85, 90
2, 86210, Note_on_c, 0, 65, 96
2, 86300, Note_on_c, 0, 97, 0
2, 86306, Note_on_c, 0, 97, 112
2, 86407, Note_on_c, 0, 94, 0
2, 86411, Note_on_c, 0, 94, 97
2, 86499, Note_on_c, 0, 70, 0
2, 86499, Note_on_c, 0, 89, 0
2, 86505, Note_on_c, 0, 70, 98
2, 86509, Note_on_c, 0, 89, 93
2, 86584, Note_on_c, 0, 85, 0
2, 86594, Note_on_c, 0, 85, 95
2, 86684, Note_on_c, 0, 58, 0
2, 86685, Control_c, 0, 64, 0
2, 86688, Note_on_c, 0, 72, 0
2, 86689, Note_on_c, 0, 94, 0
2, 86690, Note_on_c, 0, 70, 0
2, 86690, Note_on_c, 0, 89, 0
2, 86691, Note_on_c, 0, 65, 0
2, 86691, Note_on_c, 0, 85, 0
2, 86692, Note_on_c, 0, 73, 0
2, 86692, Note_on_c, 0, 46, 0
2, 86693, Note_on_c, 0, 53, 0
2, 86704, Note_on_c, 0, 69, 102
2, 86707, Note_on_c, 0, 61, 0
2, 86707, Note_on_c, 0, 97, 0
2, 86711, Note_on_c, 0, 45, 90
2, 86712, Note_on_c, 0, 64, 91
2, 86712, Note_on_c, 0, 52, 92
2, 86712, Note_on_c, 0, 57, 94
2, 86716, Note_on_c, 0, 61, 93
2, 86931, Note_on_c, 0, 85, 87
2, 86952, Control_c, 0, 64, 127
2, 87009, Note_on_c, 0, 88, 91
2, 87014, Note_on_c, 0, 45, 0
2, 87095, Note_on_c, 0, 97, 104
2, 87179, Note_on_c, 0, 93, 87
2, 87267, Note_on_c, 0, 88, 0
2, 87273, Note_on_c, 0, 88, 77
2, 87360, Note_on_c, 0, 85, 0
2, 87364, Note_on_c, 0, 85, 73
2, 87444, Note_on_c, 0, 64, 0
2, 87452, Note_on_c, 0, 97, 0
2, 87454, Note_on_c, 0, 64, 85
2, 87456, Note_on_c, 0, 97, 108
2, 87459, Note_on_c, 0, 61, 0
2, 87463, Note_on_c, 0, 61, 74
2, 87528, Note_on_c, 0, 93, 0
2, 87534, Note_on_c, 0, 93, 92
2, 87613, Note_on_c, 0, 88, 0
2, 87624, Note_on_c, 0, 88, 76
2, 87713, Note_on_c, 0, 85, 0
2, 87722, Note_on_c, 0, 85, 78
2, 87805, Note_on_c, 0, 88, 0
2, 87816, Note_on_c, 0, 88, 98
2, 87889, Note_on_c, 0, 93, 0
2, 87899, Note_on_c, 0, 93, 85
2, 88005, Note_on_c, 0, 97, 0
2, 88009, Note_on_c, 0, 97, 86
2, 88120, Note_on_c, 0, 100, 93
2, 88211, Note_on_c, 0, 103, 72
2, 89418, Note_on_c, 0, 61, 0
2, 89428, Note_on_c, 0, 61, 70
2, 89794, Note_on_c, 0, 57, 0
2, 89794, Note_on_c, 0, 64, 0
2, 89794, Note_on_c, 0, 69, 0
2, 89804, Note_on_c, 0, 57, 70
2, 89804, Note_on_c, 0, 64, 72
2, 89805, Note_on_c, 0, 69, 69
2, 89902, Note_on_c, 0, 76, 75
2, 89999, Note_on_c, 0, 75, 63
2, 90078, Note_on_c, 0, 76, 0
2, 90086, Note_on_c, 0, 76, 69
2, 90170, Note_on_c, 0, 103, 0
2, 90172, Note_on_c, 0, 78, 73
2, 90240, Note_on_c, 0, 52, 0
2, 90240, Note_on_c, 0, 85, 0
2, 90240, Note_on_c, 0, 88, 0
2, 90240, Note_on_c, 0, 93, 0
2, 90240, Note_on_c, 0, 97, 0
2, 90240, Note_on_c, 0, 100, 0
2, 90255, Note_on_c, 0, 76, 0
2, 90264, Note_on_c, 0, 76, 80
2, 90355, Note_on_c, 0, 75, 0
2, 90359, Note_on_c, 0, 75, 73
2, 90366, Note_on_c, 0, 66, 80
2, 90378, Note_on_c, 0, 57, 0
2, 90382, Note_on_c, 0, 57, 44
2, 90439, Note_on_c, 0, 76, 0
2, 90445, Note_on_c, 0, 76, 81
2, 90547, Note_on_c, 0, 64, 0
2, 90547, Note_on_c, 0, 69, 0
2, 90553, Note_on_c, 0, 64, 77
2, 90556, Note_on_c, 0, 69, 74
2, 90639, Note_on_c, 0, 76, 0
2, 90650, Note_on_c, 0, 76, 81
2, 90739, Note_on_c, 0, 75, 0
2, 90750, Note_on_c, 0, 75, 76
2, 90823, Note_on_c, 0, 76, 0
2, 90833, Note_on_c, 0, 76, 82
2, 90915, Note_on_c, 0, 61, 0
2, 90915, Note_on_c, 0, 78, 0
2, 90920, Note_on_c, 0, 61, 82
2, 90920, Note_on_c, 0, 78, 87
2, 91023, Note_on_c, 0, 76, 0
2, 91027, Note_on_c, 0, 76, 85
2, 91107, Note_on_c, 0, 75, 0
2, 91115, Note_on_c, 0, 75, 84
2, 91192, Note_on_c, 0, 76, 0
2, 91202, Note_on_c, 0, 76, 86
2, 91292, Note_on_c, 0, 66, 0
2, 91301, Note_on_c, 0, 59, 91
2, 91303, Note_on_c, 0, 66, 89
2, 91326, Note_on_c, 0, 61, 0
2, 91326, Note_on_c, 0, 75, 0
2, 91326, Note_on_c, 0, 69, 0
2, 91327, Note_on_c, 0, 76, 0
2, 91327, Note_on_c, 0, 78, 0
2, 91327, Note_on_c, 0, 64, 0
2, 91328, Note_on_c, 0, 57, 0
2, 91342, Control_c, 0, 64, 0
2, 91380, Note_on_c, 0, 78, 86
2, 91384, Control_c, 0, 64, 127
2, 91480, Note_on_c, 0, 76, 78
2, 91560, Note_on_c, 0, 78, 0
2, 91571, Note_on_c, 0, 78, 85
2, 91668, Note_on_c, 0, 80, 94
2, 91752, Note_on_c, 0, 78, 0
2, 91761, Note_on_c, 0, 78, 87
2, 91829, Note_on_c, 0, 76, 0
2, 91834, Note_on_c, 0, 68, 92
2, 91835, Note_on_c, 0, 76, 87
2, 91929, Note_on_c, 0, 78, 0
2, 91934, Note_on_c, 0, 78, 85
2, 92014, Note_on_c, 0, 66, 0
2, 92020, Note_on_c, 0, 71, 77
2, 92023, Note_on_c, 0, 66, 94
2, 92113, Note_on_c, 0, 78, 0
2, 92118, Note_on_c, 0, 78, 89
2, 92206, Note_on_c, 0, 76, 0
2, 92210, Note_on_c, 0, 76, 84
2, 92298, Note_on_c, 0, 78, 0
2, 92302, Note_on_c, 0, 78, 83
2, 92390, Note_on_c, 0, 80, 0
2, 92394, Note_on_c, 0, 69, 102
2, 92395, Note_on_c, 0, 80, 88
2, 92482, Note_on_c, 0, 78, 0
2, 92493, Note_on_c, 0, 78, 77
2, 92574, Note_on_c, 0, 76, 0
2, 92584, Note_on_c, 0, 76, 90
2, 92674, Note_on_c, 0, 78, 0
2, 92680, Note_on_c, 0, 78, 90
2, 92759, Note_on_c, 0, 68, 0
2, 92769, Note_on_c, 0, 68, 101
2, 92769, Note_on_c, 0, 73, 91
2, 92772, Control_c, 0, 64, 0
2, 92772, Note_on_c, 0, 61, 89
2, 92777, Note_on_c, 0, 80, 0
2, 92778, Note_on_c, 0, 66, 0
2, 92778, Note_on_c, 0, 71, 0
2, 92778, Note_on_c, 0, 78, 0
2, 92778, Note_on_c, 0, 69, 0
2, 92778, Note_on_c, 0, 59, 0
2, 92805, Note_on_c, 0, 76, 0
2, 92851, Control_c, 0, 64, 127
2, 92853, Note_on_c, 0, 80, 79
2, 92934, Note_on_c, 0, 78, 89
2, 93020, Note_on_c, 0, 80, 0
2, 93030, Note_on_c, 0, 80, 88
2, 93130, Note_on_c, 0, 81, 100
2, 93219, Note_on_c, 0, 80, 0
2, 93230, Note_on_c, 0, 80, 84
2, 93304, Note_on_c, 0, 78, 0
2, 93311, Note_on_c, 0, 78, 88
2, 93312, Note_on_c, 0, 66, 91
2, 93396, Note_on_c, 0, 80, 0
2, 93406, Note_on_c, 0, 80, 83
2, 93406, Note_on_c, 0, 64, 77
2, 93480, Note_on_c, 0, 73, 0
2, 93488, Note_on_c, 0, 66, 0
2, 93492, Note_on_c, 0, 73, 82
2, 93497, Note_on_c, 0, 66, 97
2, 93573, Note_on_c, 0, 80, 0
2, 93584, Note_on_c, 0, 80, 76
2, 93665, Note_on_c, 0, 78, 0
2, 93671, Note_on_c, 0, 78, 82
2, 93742, Note_on_c, 0, 80, 0
2, 93753, Note_on_c, 0, 80, 87
2, 93841, Note_on_c, 0, 81, 0
2, 93852, Note_on_c, 0, 81, 94
2, 93926, Note_on_c, 0, 80, 0
2, 93936, Note_on_c, 0, 80, 88
2, 94018, Note_on_c, 0, 64, 0
2, 94018, Note_on_c, 0, 78, 0
2, 94029, Note_on_c, 0, 64, 78
2, 94029, Note_on_c, 0, 78, 84
2, 94111, Note_on_c, 0, 63, 92
2, 94118, Note_on_c, 0, 80, 0
2, 94122, Note_on_c, 0, 80, 85
2, 94202, Note_on_c, 0, 64, 0
2, 94202, Note_on_c, 0, 73, 0
2, 94213, Note_on_c, 0, 64, 97
2, 94214, Note_on_c, 0, 73, 85
2, 94310, Note_on_c, 0, 81, 0
2, 94316, Note_on_c, 0, 81, 80
2, 94402, Note_on_c, 0, 80, 0
2, 94412, Note_on_c, 0, 80, 94
2, 94502, Note_on_c, 0, 81, 0
2, 94507, Note_on_c, 0, 81, 91
2, 94595, Note_on_c, 0, 83, 96
2, 94671, Note_on_c, 0, 81, 0
2, 94682, Note_on_c, 0, 81, 96
2, 94755, Note_on_c, 0, 63, 0
2, 94755, Note_on_c, 0, 80, 0
2, 94760, Note_on_c, 0, 80, 81
2, 94763, Note_on_c, 0, 63, 76
2, 94840, Note_on_c, 0, 81, 0
2, 94845, Note_on_c, 0, 81, 88
2, 94848, Note_on_c, 0, 61, 0
2, 94859, Note_on_c, 0, 61, 84
2, 94940, Note_on_c, 0, 80, 0
2, 94944, Note_on_c, 0, 80, 89
2, 94945, Note_on_c, 0, 59, 89
2, 95032, Note_on_c, 0, 78, 0
2, 95043, Note_on_c, 0, 78, 90
2, 95145, Note_on_c, 0, 76, 82
2, 95224, Note_on_c, 0, 78, 0
2, 95234, Note_on_c, 0, 78, 83
2, 95301, Note_on_c, 0, 61, 0
2, 95301, Note_on_c, 0, 76, 0
2, 95307, Note_on_c, 0, 61, 98
2, 95310, Note_on_c, 0, 76, 82
2, 95398, Note_on_c, 0, 75, 86
2, 95477, Note_on_c, 0, 73, 0
2, 95482, Note_on_c, 0, 73, 87
2, 95521, Note_on_c, 0, 61, 0
2, 95523, Note_on_c, 0, 83, 0
2, 95523, Note_on_c, 0, 59, 0
2, 95526, Note_on_c, 0, 80, 0
2, 95526, Note_on_c, 0, 81, 0
2, 95526, Note_on_c, 0, 76, 0
2, 95526, Note_on_c, 0, 75, 0
2, 95526, Note_on_c, 0, 63, 0
2, 95527, Note_on_c, 0, 78, 0
2, 95539, Note_on_c, 0, 64, 0
2, 95539, Note_on_c, 0, 66, 0
2, 95540, Control_c, 0, 64, 0
2, 95546, Note_on_c, 0, 68, 0
2, 95577, Note_on_c, 0, 71, 90
2, 95600, Note_on_c, 0, 73, 0
2, 95662, Note_on_c, 0, 64, 98
2, 95665, Note_on_c, 0, 61, 92
2, 95666, Note_on_c, 0, 57, 90
2, 95685, Control_c, 0, 64, 127
2, 95838, Note_on_c, 0, 45, 83
2, 95841, Note_on_c, 0, 76, 87
2, 95950, Note_on_c, 0, 81, 76
2, 96019, Note_on_c, 0, 88, 100
2, 96023, Note_on_c, 0, 52, 84
2, 96110, Note_on_c, 0, 87, 88
2, 96196, Note_on_c, 0, 85, 85
2, 96208, Note_on_c, 0, 66, 95
2, 96268, Note_on_c, 0, 81, 0
2, 96276, Note_on_c, 0, 81, 90
2, 96376, Note_on_c, 0, 64, 0
2, 96381, Note_on_c, 0, 64, 98
2, 96560, Note_on_c, 0, 57, 0
2, 96560, Note_on_c, 0, 76, 0
2, 96569, Note_on_c, 0, 57, 85
2, 96571, Note_on_c, 0, 76, 73
2, 96668, Note_on_c, 0, 81, 0
2, 96672, Note_on_c, 0, 81, 74
2, 96737, Note_on_c, 0, 88, 0
2, 96744, Note_on_c, 0, 61, 0
2, 96748, Note_on_c, 0, 88, 102
2, 96748, Note_on_c, 0, 61, 93
2, 96821, Note_on_c, 0, 87, 0
2, 96832, Note_on_c, 0, 87, 89
2, 96913, Note_on_c, 0, 85, 0
2, 96924, Note_on_c, 0, 85, 96
2, 97006, Note_on_c, 0, 81, 0
2, 97015, Note_on_c, 0, 81, 89
2, 97055, Control_c, 0, 64, 0
2, 97055, Note_on_c, 0, 45, 0
2, 97056, Note_on_c, 0, 76, 0
2, 97056, Note_on_c, 0, 52, 0
2, 97056, Note_on_c, 0, 61, 0
2, 97057, Note_on_c, 0, 64, 0
2, 97060, Note_on_c, 0, 66, 0
2, 97075, Note_on_c, 0, 57, 0
2, 97082, Note_on_c, 0, 71, 0
2, 97098, Note_on_c, 0, 87, 0
2, 97098, Note_on_c, 0, 88, 0
2, 97102, Note_on_c, 0, 63, 95
2, 97103, Note_on_c, 0, 66, 95
2, 97106, Note_on_c, 0, 59, 95
2, 97113, Control_c, 0, 64, 127
2, 97301, Note_on_c, 0, 47, 89
2, 97301, Note_on_c, 0, 78, 85
2, 97401, Note_on_c, 0, 83, 74
2, 97480, Note_on_c, 0, 54, 93
2, 97480, Note_on_c, 0, 90, 103
2, 97571, Note_on_c, 0, 88, 99
2, 97663, Note_on_c, 0, 87, 94
2, 97664, Note_on_c, 0, 68, 100
2, 97758, Note_on_c, 0, 83, 0
2, 97764, Note_on_c, 0, 83, 86
2, 97843, Note_on_c, 0, 66, 0
2, 97852, Note_on_c, 0, 66, 101
2, 98027, Note_on_c, 0, 59, 0
2, 98027, Note_on_c, 0, 78, 0
2, 98037, Note_on_c, 0, 78, 73
2, 98037, Note_on_c, 0, 59, 76
2, 98135, Note_on_c, 0, 83, 0
2, 98146, Note_on_c, 0, 83, 66
2, 98219, Note_on_c, 0, 63, 0
2, 98219, Note_on_c, 0, 90, 0
2, 98223, Note_on_c, 0, 69, 103
2, 98223, Note_on_c, 0, 90, 103
2, 98224, Note_on_c, 0, 63, 92
2, 98311, Note_on_c, 0, 88, 0
2, 98317, Note_on_c, 0, 88, 100
2, 98403, Note_on_c, 0, 87, 0
2, 98414, Note_on_c, 0, 87, 97
2, 98506, Control_c, 0, 64, 0
2, 98511, Note_on_c, 0, 83, 0
2, 98515, Note_on_c, 0, 83, 93
2, 98542, Control_c, 0, 64, 127
2, 98553, Note_on_c, 0, 47, 0
2, 98554, Note_on_c, 0, 88, 0
2, 98554, Note_on_c, 0, 78, 0
2, 98555, Note_on_c, 0, 59, 0
2, 98556, Note_on_c, 0, 90, 0
2, 98557, Note_on_c, 0, 85, 0
2, 98559, Note_on_c, 0, 63, 0
2, 98559, Note_on_c, 0, 54, 0
2, 98561, Note_on_c, 0, 69, 0
2, 98561, Note_on_c, 0, 66, 0
2, 98565, Note_on_c, 0, 81, 0
2, 98572, Note_on_c, 0, 68, 0
2, 98583, Note_on_c, 0, 68, 105
2, 98588, Note_on_c, 0, 87, 0
2, 98588, Control_c, 0, 64, 0
2, 98590, Note_on_c, 0, 64, 97
2, 98591, Note_on_c, 0, 61, 92
2, 98626, Note_on_c, 0, 83, 0
2, 98672, Control_c, 0, 64, 127
2, 98783, Note_on_c, 0, 49, 89
2, 98784, Note_on_c, 0, 80, 93
2, 98879, Note_on_c, 0, 83, 77
2, 98963, Note_on_c, 0, 92, 103
2, 98967, Note_on_c, 0, 56, 84
2, 99056, Note_on_c, 0, 88, 98
2, 99153, Note_on_c, 0, 87, 78
2, 99159, Note_on_c, 0, 59, 80
2, 99225, Note_on_c, 0, 83, 0
2, 99232, Note_on_c, 0, 83, 90
2, 99517, Note_on_c, 0, 80, 0
2, 99523, Note_on_c, 0, 80, 91
2, 99609, Note_on_c, 0, 83, 0
2, 99620, Note_on_c, 0, 83, 80
2, 99709, Note_on_c, 0, 92, 0
2, 99714, Note_on_c, 0, 92, 101
2, 99778, Note_on_c, 0, 88, 0
2, 99790, Note_on_c, 0, 88, 102
2, 99870, Note_on_c, 0, 68, 0
2, 99877, Note_on_c, 0, 71, 96
2, 99878, Note_on_c, 0, 87, 0
2, 99881, Note_on_c, 0, 68, 94
2, 99888, Note_on_c, 0, 87, 95
2, 99993, Note_on_c, 0, 83, 0
2, 100000, Note_on_c, 0, 83, 90
2, 100068, Note_on_c, 0, 66, 93
2, 100072, Note_on_c, 0, 69, 99
2, 100247, Note_on_c, 0, 64, 0
2, 100247, Note_on_c, 0, 68, 0
2, 100251, Note_on_c, 0, 68, 93
2, 100253, Note_on_c, 0, 64, 89
2, 100262, Note_on_c, 0, 83, 0
2, 100272, Note_on_c, 0, 83, 94
2, 100362, Note_on_c, 0, 88, 0
2, 100368, Note_on_c, 0, 88, 98
2, 100431, Note_on_c, 0, 66, 0
2, 100436, Note_on_c, 0, 66, 96
2, 100442, Note_on_c, 0, 95, 108
2, 100445, Note_on_c, 0, 63, 88
2, 100535, Note_on_c, 0, 90, 98
2, 100615, Note_on_c, 0, 88, 0
2, 100623, Note_on_c, 0, 61, 0
2, 100623, Note_on_c, 0, 64, 0
2, 100626, Note_on_c, 0, 88, 100
2, 100627, Note_on_c, 0, 64, 93
2, 100633, Note_on_c, 0, 61, 85
2, 100707, Note_on_c, 0, 83, 0
2, 100719, Note_on_c, 0, 83, 86
2, 100815, Note_on_c, 0, 63, 0
2, 100815, Note_on_c, 0, 66, 0
2, 100819, Note_on_c, 0, 66, 100
2, 100819, Note_on_c, 0, 63, 99
2, 100984, Note_on_c, 0, 83, 0
2, 100991, Note_on_c, 0, 83, 87
2, 101084, Note_on_c, 0, 88, 0
2, 101088, Note_on_c, 0, 88, 96
2, 101168, Note_on_c, 0, 95, 0
2, 101180, Note_on_c, 0, 95, 109
2, 101191, Note_on_c, 0, 64, 0
2, 101197, Note_on_c, 0, 64, 94
2, 101276, Note_on_c, 0, 90, 0
2, 101281, Note_on_c, 0, 90, 97
2, 101368, Note_on_c, 0, 59, 0
2, 101368, Note_on_c, 0, 88, 0
2, 101374, Note_on_c, 0, 59, 86
2, 101377, Note_on_c, 0, 88, 96
2, 101445, Note_on_c, 0, 83, 0
2, 101456, Note_on_c, 0, 83, 86
2, 101552, Note_on_c, 0, 61, 0
2, 101562, Note_on_c, 0, 61, 89
2, 101562, Note_on_c, 0, 57, 92
2, 101579, Control_c, 0, 64, 0
2, 101584, Note_on_c, 0, 49, 0
2, 101585, Note_on_c, 0, 90, 0
2, 101585, Note_on_c, 0, 69, 0
2, 101585, Note_on_c, 0, 92, 0
2, 101586, Note_on_c, 0, 64, 0
2, 101586, Note_on_c, 0, 95, 0
2, 101586, Note_on_c, 0, 59, 0
2, 101587, Note_on_c, 0, 83, 0
2, 101587, Note_on_c, 0, 68, 0
2, 101587, Note_on_c, 0, 63, 0
2, 101587, Note_on_c, 0, 66, 0
2, 101588, Note_on_c, 0, 71, 0
2, 101592, Note_on_c, 0, 56, 0
2, 101606, Note_on_c, 0, 80, 0
2, 101606, Note_on_c, 0, 87, 0
2, 101606, Note_on_c, 0, 88, 0
2, 101762, Note_on_c, 0, 85, 84
2, 101767, Control_c, 0, 64, 127
2, 101856, Note_on_c, 0, 92, 92
2, 101942, Note_on_c, 0, 97, 109
2, 102036, Note_on_c, 0, 92, 0
2, 102042, Note_on_c, 0, 92, 78
2, 102105, Note_on_c, 0, 85, 0
2, 102116, Note_on_c, 0, 85, 73
2, 102205, Note_on_c, 0, 92, 0
2, 102213, Note_on_c, 0, 92, 73
2, 102299, Note_on_c, 0, 63, 75
2, 102300, Note_on_c, 0, 59, 81
2, 102336, Control_c, 0, 64, 0
2, 102341, Note_on_c, 0, 57, 0
2, 102342, Note_on_c, 0, 97, 0
2, 102359, Note_on_c, 0, 61, 0
2, 102466, Control_c, 0, 64, 127
2, 102497, Note_on_c, 0, 85, 0
2, 102502, Note_on_c, 0, 85, 80
2, 102581, Note_on_c, 0, 92, 0
2, 102592, Note_on_c, 0, 92, 88
2, 102678, Note_on_c, 0, 97, 104
2, 102773, Note_on_c, 0, 92, 0
2, 102778, Note_on_c, 0, 92, 77
2, 102865, Note_on_c, 0, 85, 0
2, 102872, Note_on_c, 0, 85, 72
2, 102950, Note_on_c, 0, 92, 0
2, 102954, Note_on_c, 0, 92, 79
2, 103033, Note_on_c, 0, 61, 74
2, 103044, Note_on_c, 0, 64, 82
2, 103047, Note_on_c, 0, 63, 0
2, 103048, Control_c, 0, 64, 0
2, 103050, Note_on_c, 0, 59, 0
2, 103111, Control_c, 0, 64, 127
2, 103165, Note_on_c, 0, 97, 0
2, 103226, Note_on_c, 0, 85, 0
2, 103236, Note_on_c, 0, 85, 79
2, 103334, Note_on_c, 0, 92, 0
2, 103338, Note_on_c, 0, 92, 85
2, 103411, Note_on_c, 0, 71, 106
2, 103423, Note_on_c, 0, 97, 103
2, 103428, Control_c, 0, 64, 0
2, 103441, Note_on_c, 0, 61, 0
2, 103472, Control_c, 0, 64, 127
2, 103511, Note_on_c, 0, 92, 0
2, 103521, Note_on_c, 0, 92, 82
2, 103587, Note_on_c, 0, 85, 0
2, 103594, Note_on_c, 0, 85, 79
2, 103687, Note_on_c, 0, 92, 0
2, 103698, Note_on_c, 0, 92, 86
2, 103791, Note_on_c, 0, 69, 108
2, 104168, Note_on_c, 0, 68, 107
2, 104505, Control_c, 0, 64, 0
2, 104516, Note_on_c, 0, 71, 0
2, 104517, Note_on_c, 0, 97, 0
2, 104518, Note_on_c, 0, 85, 0
2, 104520, Note_on_c, 0, 68, 0
2, 104520, Note_on_c, 0, 69, 0
2, 104524, Note_on_c, 0, 64, 0
2, 104540, Note_on_c, 0, 92, 0
2, 104543, Note_on_c, 0, 67, 104
2, 104543, Note_on_c, 0, 64, 104
2, 104544, Note_on_c, 0, 60, 101
2, 104578, Control_c, 0, 64, 127
2, 104725, Note_on_c, 0, 88, 102
2, 104736, Note_on_c, 0, 48, 97
2, 104811, Note_on_c, 0, 91, 102
2, 104896, Note_on_c, 0, 100, 114
2, 104915, Note_on_c, 0, 55, 87
2, 104996, Note_on_c, 0, 96, 101
2, 105070, Note_on_c, 0, 60, 0
2, 105076, Note_on_c, 0, 60, 101
2, 105077, Note_on_c, 0, 91, 0
2, 105088, Note_on_c, 0, 91, 91
2, 105185, Note_on_c, 0, 88, 0
2, 105195, Note_on_c, 0, 88, 97
2, 105223, Note_on_c, 0, 67, 0
2, 105234, Note_on_c, 0, 60, 0
2, 105235, Note_on_c, 0, 96, 0
2, 105236, Note_on_c, 0, 100, 0
2, 105236, Note_on_c, 0, 64, 0
2, 105238, Note_on_c, 0, 48, 0
2, 105240, Control_c, 0, 64, 0
2, 105241, Note_on_c, 0, 55, 0
2, 105267, Note_on_c, 0, 66, 110
2, 105269, Note_on_c, 0, 91, 0
2, 105272, Note_on_c, 0, 62, 98
2, 105277, Control_c, 0, 64, 127
2, 105443, Note_on_c, 0, 50, 96
2, 105450, Note_on_c, 0, 86, 92
2, 105544, Note_on_c, 0, 90, 101
2, 105636, Note_on_c, 0, 98, 110
2, 105637, Note_on_c, 0, 57, 101
2, 105724, Note_on_c, 0, 93, 96
2, 105811, Note_on_c, 0, 64, 104
2, 105891, Note_on_c, 0, 86, 0
2, 105897, Note_on_c, 0, 86, 96
2, 105986, Control_c, 0, 64, 0
2, 105988, Note_on_c, 0, 93, 0
2, 105988, Note_on_c, 0, 90, 0
2, 105988, Note_on_c, 0, 98, 0
2, 105988, Note_on_c, 0, 66, 0
2, 105988, Note_on_c, 0, 86, 0
2, 105988, Note_on_c, 0, 50, 0
2, 105989, Note_on_c, 0, 57, 0
2, 105991, Note_on_c, 0, 64, 0
2, 105999, Note_on_c, 0, 62, 0
2, 105999, Note_on_c, 0, 88, 0
2, 106002, Note_on_c, 0, 64, 109
2, 106003, Note_on_c, 0, 59, 106
2, 106053, Control_c, 0, 64, 127
2, 106180, Note_on_c, 0, 88, 101
2, 106190, Note_on_c, 0, 52, 93
2, 106270, Note_on_c, 0, 93, 100
2, 106357, Note_on_c, 0, 100, 116
2, 106360, Note_on_c, 0, 59, 0
2, 106371, Note_on_c, 0, 59, 99
2, 106455, Note_on_c, 0, 95, 102
2, 106552, Note_on_c, 0, 93, 0
2, 106556, Note_on_c, 0, 93, 98
2, 106560, Note_on_c, 0, 64, 0
2, 106567, Note_on_c, 0, 64, 94
2, 106636, Note_on_c, 0, 88, 0
2, 106645, Note_on_c, 0, 88, 95
2, 106725, Note_on_c, 0, 69, 102
2, 106732, Note_on_c, 0, 83, 96
2, 106820, Note_on_c, 0, 81, 92
2, 106905, Note_on_c, 0, 64, 0
2, 106910, Note_on_c, 0, 64, 99
2, 106916, Note_on_c, 0, 76, 92
2, 106997, Note_on_c, 0, 81, 0
2, 107008, Note_on_c, 0, 81, 83
2, 107089, Note_on_c, 0, 69, 0
2, 107097, Note_on_c, 0, 83, 0
2, 107099, Note_on_c, 0, 69, 102
2, 107102, Note_on_c, 0, 83, 87
2, 107182, Note_on_c, 0, 88, 0
2, 107191, Note_on_c, 0, 88, 100
2, 107265, Note_on_c, 0, 71, 101
2, 107274, Note_on_c, 0, 93, 0
2, 107284, Note_on_c, 0, 93, 96
2, 107374, Note_on_c, 0, 95, 0
2, 107385, Note_on_c, 0, 95, 93
2, 107450, Note_on_c, 0, 100, 0
2, 107458, Note_on_c, 0, 76, 0
2, 107462, Note_on_c, 0, 100, 112
2, 107466, Note_on_c, 0, 88, 0
2, 107467, Note_on_c, 0, 76, 106
2, 107470, Note_on_c, 0, 88, 105
2, 107650, Note_on_c, 0, 83, 0
2, 107656, Note_on_c, 0, 83, 78
2, 107827, Note_on_c, 0, 81, 0
2, 107837, Note_on_c, 0, 81, 89
2, 108026, Note_on_c, 0, 76, 0
2, 108030, Note_on_c, 0, 76, 83
2, 108119, Note_on_c, 0, 88, 0
2, 108122, Note_on_c, 0, 88, 96
2, 108303, Control_c, 0, 64, 0
2, 108306, Note_on_c, 0, 88, 0
2, 108307, Note_on_c, 0, 81, 0
2, 108307, Note_on_c, 0, 76, 0
2, 108307, Note_on_c, 0, 95, 0
2, 108307, Note_on_c, 0, 83, 0
2, 108307, Note_on_c, 0, 64, 0
2, 108307, Note_on_c, 0, 100, 0
2, 108308, Note_on_c, 0, 71, 0
2, 108311, Note_on_c, 0, 59, 0
2, 108326, Note_on_c, 0, 93, 0
2, 108334, Note_on_c, 0, 52, 0
2, 108349, Note_on_c, 0, 69, 0
2, 108461, Note_on_c, 0, 75, 107
2, 108463, Note_on_c, 0, 71, 105
2, 108463, Note_on_c, 0, 63, 105
2, 108494, Note_on_c, 0, 63, 0
2, 108526, Note_on_c, 0, 75, 0
2, 108556, Note_on_c, 0, 71, 0
2, 108651, Note_on_c, 0, 87, 109
2, 108653, Note_on_c, 0, 83, 100
2, 108656, Note_on_c, 0, 75, 103
2, 108664, Control_c, 0, 64, 127
2, 108833, Note_on_c, 0, 83, 0
2, 108840, Note_on_c, 0, 83, 108
2, 108840, Note_on_c, 0, 71, 105
2, 108841, Note_on_c, 0, 80, 102
2, 109025, Note_on_c, 0, 71, 0
2, 109027, Note_on_c, 0, 81, 111
2, 109029, Note_on_c, 0, 69, 108
2, 109029, Note_on_c, 0, 78, 107
2, 109033, Note_on_c, 0, 71, 90
2, 109049, Control_c, 0, 64, 0
2, 109051, Note_on_c, 0, 87, 0
2, 109052, Note_on_c, 0, 83, 0
2, 109054, Note_on_c, 0, 80, 0
2, 109079, Note_on_c, 0, 75, 0
2, 109224, Note_on_c, 0, 69, 0
2, 109393, Note_on_c, 0, 78, 0
2, 109393, Note_on_c, 0, 81, 0
2, 109403, Note_on_c, 0, 33, 97
2, 109403, Note_on_c, 0, 81, 108
2, 109403, Note_on_c, 0, 78, 105
2, 109404, Note_on_c, 0, 45, 106
2, 109404, Note_on_c, 0, 40, 100
2, 109404, Note_on_c, 0, 69, 105
2, 109432, Control_c, 0, 64, 127
2, 109570, Note_on_c, 0, 71, 0
2, 109581, Note_on_c, 0, 83, 107
2, 109581, Note_on_c, 0, 71, 104
2, 109582, Note_on_c, 0, 80, 103
2, 109620, Note_on_c, 0, 59, 54
2, 109643, Note_on_c, 0, 81, 0
2, 109644, Note_on_c, 0, 78, 0
2, 109644, Note_on_c, 0, 69, 0
2, 109645, Note_on_c, 0, 45, 0
2, 109645, Note_on_c, 0, 40, 0
2, 109647, Note_on_c, 0, 33, 0
2, 109647, Note_on_c, 0, 80, 0
2, 109648, Control_c, 0, 64, 0
2, 109648, Note_on_c, 0, 71, 0
2, 109648, Note_on_c, 0, 83, 0
2, 109685, Note_on_c, 0, 59, 0
2, 109767, Note_on_c, 0, 47, 109
2, 109767, Note_on_c, 0, 64, 104
2, 109768, Note_on_c, 0, 76, 102
2, 109770, Note_on_c, 0, 73, 103
2, 109772, Note_on_c, 0, 35, 96
2, 109775, Note_on_c, 0, 42, 99
2, 109808, Control_c, 0, 64, 127
2, 109946, Note_on_c, 0, 47, 0
2, 109955, Note_on_c, 0, 47, 90
2, 110053, Note_on_c, 0, 52, 84
2, 110134, Note_on_c, 0, 87, 105
2, 110134, Note_on_c, 0, 83, 100
2, 110135, Note_on_c, 0, 59, 98
2, 110138, Note_on_c, 0, 75, 103
2, 110218, Note_on_c, 0, 54, 97
2, 110300, Note_on_c, 0, 52, 0
2, 110309, Note_on_c, 0, 52, 86
2, 110323, Note_on_c, 0, 83, 0
2, 110327, Note_on_c, 0, 83, 106
2, 110327, Note_on_c, 0, 71, 98
2, 110328, Note_on_c, 0, 80, 99
2, 110376, Note_on_c, 0, 54, 0
2, 110386, Note_on_c, 0, 54, 44
2, 110489, Control_c, 0, 64, 0
2, 110497, Note_on_c, 0, 52, 0
2, 110497, Note_on_c, 0, 73, 0
2, 110498, Note_on_c, 0, 42, 0
2, 110498, Note_on_c, 0, 80, 0
2, 110498, Note_on_c, 0, 47, 0
2, 110499, Note_on_c, 0, 54, 0
2, 110499, Note_on_c, 0, 64, 0
2, 110499, Note_on_c, 0, 87, 0
2, 110499, Note_on_c, 0, 75, 0
2, 110499, Note_on_c, 0, 83, 0
2, 110500, Note_on_c, 0, 76, 0
2, 110501, Note_on_c, 0, 71, 0
2, 110501, Note_on_c, 0, 59, 0
2, 110507, Note_on_c, 0, 35, 0
2, 110517, Note_on_c, 0, 81, 109
2, 110518, Note_on_c, 0, 49, 107
2, 110519, Note_on_c, 0, 69, 104
2, 110519, Note_on_c, 0, 37, 97
2, 110519, Note_on_c, 0, 78, 103
2, 110592, Control_c, 0, 64, 127
2, 110630, Note_on_c, 0, 49, 0
2, 110640, Note_on_c, 0, 49, 57
2, 110699, Note_on_c, 0, 49, 0
2, 110704, Note_on_c, 0, 49, 92
2, 110801, Note_on_c, 0, 52, 87
2, 110876, Note_on_c, 0, 69, 0
2, 110876, Note_on_c, 0, 78, 0
2, 110876, Note_on_c, 0, 81, 0
2, 110881, Note_on_c, 0, 81, 108
2, 110881, Note_on_c, 0, 78, 103
2, 110883, Note_on_c, 0, 69, 105
2, 110885, Note_on_c, 0, 59, 103
2, 110952, Note_on_c, 0, 52, 0
2, 110963, Note_on_c, 0, 52, 76
2, 111029, Note_on_c, 0, 49, 0
2, 111040, Note_on_c, 0, 49, 87
2, 111073, Note_on_c, 0, 83, 107
2, 111079, Note_on_c, 0, 71, 100
2, 111083, Note_on_c, 0, 80, 99
2, 111106, Note_on_c, 0, 52, 0
2, 111117, Note_on_c, 0, 52, 79
2, 111215, Control_c, 0, 64, 0
2, 111227, Note_on_c, 0, 80, 0
2, 111227, Note_on_c, 0, 81, 0
2, 111227, Note_on_c, 0, 59, 0
2, 111228, Note_on_c, 0, 52, 0
2, 111229, Note_on_c, 0, 78, 0
2, 111229, Note_on_c, 0, 71, 0
2, 111229, Note_on_c, 0, 83, 0
2, 111231, Note_on_c, 0, 69, 0
2, 111244, Note_on_c, 0, 37, 0
2, 111244, Note_on_c, 0, 49, 0
2, 111256, Note_on_c, 0, 47, 110
2, 111262, Note_on_c, 0, 76, 103
2, 111262, Note_on_c, 0, 35, 97
2, 111263, Note_on_c, 0, 73, 104
2, 111264, Note_on_c, 0, 64, 106
2, 111321, Control_c, 0, 64, 127
2, 111429, Note_on_c, 0, 47, 0
2, 111433, Note_on_c, 0, 47, 93
2, 111527, Note_on_c, 0, 52, 85
2, 111616, Note_on_c, 0, 59, 100
2, 111707, Note_on_c, 0, 54, 98
2, 111805, Note_on_c, 0, 52, 0
2, 111810, Note_on_c, 0, 52, 89
2, 111812, Note_on_c, 0, 71, 100
2, 111882, Note_on_c, 0, 54, 0
2, 111891, Note_on_c, 0, 54, 92
2, 111979, Control_c, 0, 64, 0
2, 111982, Note_on_c, 0, 73, 0
2, 111987, Note_on_c, 0, 54, 0
2, 111987, Note_on_c, 0, 52, 0
2, 111987, Note_on_c, 0, 64, 0
2, 111988, Note_on_c, 0, 76, 0
2, 111989, Note_on_c, 0, 47, 0
2, 111989, Note_on_c, 0, 71, 0
2, 111990, Note_on_c, 0, 59, 0
2, 111992, Note_on_c, 0, 33, 97
2, 111993, Note_on_c, 0, 45, 106
2, 111993, Note_on_c, 0, 73, 108
2, 112012, Note_on_c, 0, 35, 0
2, 112066, Control_c, 0, 64, 127
2, 112174, Note_on_c, 0, 45, 0
2, 112180, Note_on_c, 0, 80, 109
2, 112181, Note_on_c, 0, 45, 88
2, 112278, Note_on_c, 0, 52, 82
2, 112362, Note_on_c, 0, 68, 106
2, 112363, Note_on_c, 0, 61, 88
2, 112364, Note_on_c, 0, 59, 95
2, 112365, Note_on_c, 0, 57, 96
2, 112458, Note_on_c, 0, 52, 0
2, 112466, Note_on_c, 0, 52, 87
2, 112542, Note_on_c, 0, 45, 0
2, 112548, Note_on_c, 0, 71, 103
2, 112551, Note_on_c, 0, 45, 93
2, 112693, Note_on_c, 0, 80, 0
2, 112694, Note_on_c, 0, 68, 0
2, 112694, Note_on_c, 0, 52, 0
2, 112694, Note_on_c, 0, 45, 0
2, 112695, Note_on_c, 0, 59, 0
2, 112695, Note_on_c, 0, 57, 0
2, 112696, Control_c, 0, 64, 0
2, 112697, Note_on_c, 0, 61, 0
2, 112698, Note_on_c, 0, 71, 0
2, 112711, Note_on_c, 0, 33, 0
2, 112719, Note_on_c, 0, 73, 0
2, 112721, Note_on_c, 0, 47, 111
2, 112723, Note_on_c, 0, 35, 96
2, 112726, Note_on_c, 0, 73, 102
2, 112788, Control_c, 0, 64, 127
2, 112903, Note_on_c, 0, 47, 0
2, 112914, Note_on_c, 0, 80, 104
2, 112914, Note_on_c, 0, 47, 86
2, 113029, Note_on_c, 0, 54, 89
2, 113106, Note_on_c, 0, 68, 108
2, 113109, Note_on_c, 0, 59, 99
2, 113110, Note_on_c, 0, 61, 97
2, 113111, Note_on_c, 0, 63, 99
2, 113187, Note_on_c, 0, 54, 0
2, 113194, Note_on_c, 0, 54, 80
2, 113287, Note_on_c, 0, 47, 0
2, 113295, Note_on_c, 0, 54, 0
2, 113295, Note_on_c, 0, 47, 90
2, 113298, Note_on_c, 0, 78, 111
2, 113300, Note_on_c, 0, 71, 100
2, 113303, Note_on_c, 0, 75, 101
2, 113306, Note_on_c, 0, 54, 96
2, 113437, Control_c, 0, 64, 0
2, 113445, Note_on_c, 0, 80, 0
2, 113445, Note_on_c, 0, 47, 0
2, 113446, Note_on_c, 0, 54, 0
2, 113446, Note_on_c, 0, 59, 0
2, 113446, Note_on_c, 0, 68, 0
2, 113448, Note_on_c, 0, 73, 0
2, 113450, Note_on_c, 0, 61, 0
2, 113451, Note_on_c, 0, 63, 0
2, 113455, Note_on_c, 0, 35, 0
2, 113471, Note_on_c, 0, 44, 105
2, 113471, Note_on_c, 0, 32, 95
2, 113533, Control_c, 0, 64, 127
2, 113648, Note_on_c, 0, 71, 0
2, 113656, Note_on_c, 0, 75, 0
2, 113656, Note_on_c, 0, 78, 0
2, 113659, Note_on_c, 0, 71, 96
2, 113660, Note_on_c, 0, 78, 100
2, 113662, Note_on_c, 0, 75, 94
2, 113663, Note_on_c, 0, 51, 90
2, 113761, Note_on_c, 0, 54, 90
2, 113843, Note_on_c, 0, 59, 102
2, 113844, Note_on_c, 0, 87, 107
2, 113844, Note_on_c, 0, 83, 96
2, 113932, Note_on_c, 0, 54, 0
2, 113937, Note_on_c, 0, 54, 93
2, 114017, Note_on_c, 0, 83, 0
2, 114024, Note_on_c, 0, 83, 102
2, 114027, Note_on_c, 0, 80, 102
2, 114032, Note_on_c, 0, 51, 0
2, 114037, Note_on_c, 0, 51, 78
2, 114108, Note_on_c, 0, 81, 103
2, 114109, Note_on_c, 0, 54, 0
2, 114119, Note_on_c, 0, 54, 93
2, 114155, Note_on_c, 0, 32, 0
2, 114157, Note_on_c, 0, 87, 0
2, 114157, Note_on_c, 0, 44, 0
2, 114157, Note_on_c, 0, 54, 0
2, 114158, Note_on_c, 0, 75, 0
2, 114158, Note_on_c, 0, 59, 0
2, 114158, Note_on_c, 0, 83, 0
2, 114158, Note_on_c, 0, 51, 0
2, 114159, Note_on_c, 0, 71, 0
2, 114159, Note_on_c, 0, 78, 0
2, 114159, Control_c, 0, 64, 0
2, 114159, Note_on_c, 0, 80, 0
2, 114204, Note_on_c, 0, 37, 100
2, 114204, Note_on_c, 0, 49, 102
2, 114205, Note_on_c, 0, 78, 110
2, 114207, Note_on_c, 0, 75, 92
2, 114224, Control_c, 0, 64, 127
2, 114392, Note_on_c, 0, 56, 85
2, 114482, Note_on_c, 0, 59, 90
2, 114573, Note_on_c, 0, 80, 108
2, 114573, Note_on_c, 0, 64, 103
2, 114575, Note_on_c, 0, 68, 106
2, 114576, Note_on_c, 0, 76, 99
2, 114662, Note_on_c, 0, 59, 0
2, 114672, Note_on_c, 0, 59, 92
2, 114754, Note_on_c, 0, 56, 0
2, 114758, Note_on_c, 0, 56, 93
2, 114895, Note_on_c, 0, 75, 0
2, 114895, Note_on_c, 0, 37, 0
2, 114895, Control_c, 0, 64, 0
2, 114895, Note_on_c, 0, 49, 0
2, 114896, Note_on_c, 0, 81, 0
2, 114897, Note_on_c, 0, 56, 0
2, 114897, Note_on_c, 0, 76, 0
2, 114897, Note_on_c, 0, 59, 0
2, 114897, Note_on_c, 0, 80, 0
2, 114898, Note_on_c, 0, 78, 0
2, 114898, Note_on_c, 0, 64, 0
2, 114898, Note_on_c, 0, 68, 0
2, 114934, Note_on_c, 0, 33, 105
2, 114934, Note_on_c, 0, 45, 107
2, 115023, Control_c, 0, 64, 127
2, 115115, Note_on_c, 0, 40, 98
2, 115139, Note_on_c, 0, 73, 106
2, 115200, Note_on_c, 0, 45, 0
2, 115211, Note_on_c, 0, 45, 83
2, 115307, Note_on_c, 0, 73, 0
2, 115311, Note_on_c, 0, 49, 98
2, 115312, Note_on_c, 0, 73, 108
2, 115399, Note_on_c, 0, 45, 0
2, 115403, Note_on_c, 0, 45, 90
2, 115491, Note_on_c, 0, 49, 0
2, 115503, Note_on_c, 0, 49, 93
2, 115586, Note_on_c, 0, 52, 87
2, 115676, Note_on_c, 0, 73, 0
2, 115680, Note_on_c, 0, 81, 112
2, 115683, Note_on_c, 0, 71, 100
2, 115684, Note_on_c, 0, 61, 97
2, 115687, Note_on_c, 0, 73, 108
2, 115774, Note_on_c, 0, 57, 95
2, 115875, Note_on_c, 0, 71, 0
2, 115875, Note_on_c, 0, 73, 0
2, 115876, Note_on_c, 0, 80, 108
2, 115879, Note_on_c, 0, 73, 103
2, 115880, Note_on_c, 0, 71, 85
2, 115960, Note_on_c, 0, 49, 0
2, 115967, Note_on_c, 0, 49, 87
2, 116060, Note_on_c, 0, 57, 0
2, 116067, Note_on_c, 0, 57, 104
2, 116144, Note_on_c, 0, 52, 0
2, 116155, Note_on_c, 0, 52, 90
2, 116244, Note_on_c, 0, 49, 0
2, 116244, Note_on_c, 0, 71, 0
2, 116250, Note_on_c, 0, 71, 100
2, 116251, Note_on_c, 0, 49, 92
2, 116328, Note_on_c, 0, 45, 0
2, 116338, Note_on_c, 0, 45, 89
2, 116406, Control_c, 0, 64, 0
2, 116411, Note_on_c, 0, 80, 0
2, 116413, Note_on_c, 0, 81, 0
2, 116414, Note_on_c, 0, 57, 0
2, 116414, Note_on_c, 0, 40, 0
2, 116414, Note_on_c, 0, 45, 0
2, 116414, Note_on_c, 0, 52, 0
2, 116414, Note_on_c, 0, 61, 0
2, 116415, Note_on_c, 0, 33, 0
2, 116416, Note_on_c, 0, 71, 0
2, 116428, Note_on_c, 0, 73, 0
2, 116432, Note_on_c, 0, 47, 111
2, 116432, Note_on_c, 0, 73, 107
2, 116432, Note_on_c, 0, 35, 99
2, 116436, Note_on_c, 0, 49, 0
2, 116497, Control_c, 0, 64, 127
2, 116614, Note_on_c, 0, 42, 87
2, 116638, Note_on_c, 0, 81, 110
2, 116689, Note_on_c, 0, 47, 0
2, 116701, Note_on_c, 0, 47, 88
2, 116804, Note_on_c, 0, 80, 107
2, 116808, Note_on_c, 0, 51, 99
2, 116809, Note_on_c, 0, 75, 103
2, 116810, Note_on_c, 0, 71, 89
2, 116897, Note_on_c, 0, 47, 0
2, 116907, Note_on_c, 0, 47, 92
2, 117004, Note_on_c, 0, 51, 0
2, 117012, Note_on_c, 0, 51, 73
2, 117092, Note_on_c, 0, 54, 90
2, 117166, Note_on_c, 0, 71, 0
2, 117174, Note_on_c, 0, 71, 104
2, 117177, Note_on_c, 0, 66, 96
2, 117178, Note_on_c, 0, 63, 102
2, 117268, Note_on_c, 0, 59, 89
2, 117358, Note_on_c, 0, 54, 0
2, 117367, Note_on_c, 0, 54, 87
2, 117450, Note_on_c, 0, 51, 0
2, 117450, Note_on_c, 0, 75, 0
2, 117453, Note_on_c, 0, 78, 111
2, 117454, Note_on_c, 0, 51, 64
2, 117456, Note_on_c, 0, 75, 100
2, 117542, Note_on_c, 0, 59, 0
2, 117553, Note_on_c, 0, 59, 98
2, 117626, Note_on_c, 0, 54, 0
2, 117638, Note_on_c, 0, 54, 95
2, 117726, Note_on_c, 0, 51, 0
2, 117734, Note_on_c, 0, 73, 0
2, 117735, Note_on_c, 0, 51, 82
2, 117736, Note_on_c, 0, 76, 106
2, 117739, Note_on_c, 0, 73, 104
2, 117795, Note_on_c, 0, 47, 0
2, 117799, Note_on_c, 0, 47, 91
2, 117897, Control_c, 0, 64, 0
2, 117904, Note_on_c, 0, 47, 0
2, 117905, Note_on_c, 0, 35, 0
2, 117905, Note_on_c, 0, 42, 0
2, 117905, Note_on_c, 0, 51, 0
2, 117905, Note_on_c, 0, 59, 0
2, 117905, Note_on_c, 0, 80, 0
2, 117905, Note_on_c, 0, 63, 0
2, 117906, Note_on_c, 0, 81, 0
2, 117906, Note_on_c, 0, 54, 0
2, 117906, Note_on_c, 0, 73, 0
2, 117906, Note_on_c, 0, 76, 0
2, 117906, Note_on_c, 0, 78, 0
2, 117911, Note_on_c, 0, 66, 0
2, 117911, Note_on_c, 0, 71, 0
2, 117911, Note_on_c, 0, 75, 0
2, 117919, Note_on_c, 0, 75, 108
2, 117919, Note_on_c, 0, 71, 100
2, 117922, Note_on_c, 0, 66, 101
2, 117922, Note_on_c, 0, 37, 100
2, 118018, Control_c, 0, 64, 127
2, 118080, Note_on_c, 0, 37, 0
2, 118091, Note_on_c, 0, 44, 90
2, 118184, Note_on_c, 0, 47, 90
2, 118281, Note_on_c, 0, 51, 96
2, 118379, Note_on_c, 0, 47, 0
2, 118383, Note_on_c, 0, 47, 93
2, 118464, Note_on_c, 0, 51, 0
2, 118474, Note_on_c, 0, 51, 85
2, 118566, Note_on_c, 0, 54, 94
2, 118649, Note_on_c, 0, 63, 102
2, 118731, Note_on_c, 0, 59, 94
2, 118817, Note_on_c, 0, 54, 0
2, 118827, Note_on_c, 0, 54, 89
2, 118909, Note_on_c, 0, 51, 0
2, 118915, Note_on_c, 0, 51, 84
2, 119001, Note_on_c, 0, 59, 0
2, 119005, Note_on_c, 0, 59, 98
2, 119093, Note_on_c, 0, 54, 0
2, 119100, Note_on_c, 0, 54, 95
2, 119185, Note_on_c, 0, 51, 0
2, 119185, Note_on_c, 0, 71, 0
2, 119194, Note_on_c, 0, 78, 104
2, 119194, Note_on_c, 0, 81, 108
2, 119194, Note_on_c, 0, 51, 79
2, 119195, Note_on_c, 0, 71, 99
2, 119270, Note_on_c, 0, 47, 0
2, 119281, Note_on_c, 0, 47, 91
2, 119353, Control_c, 0, 64, 0
2, 119361, Note_on_c, 0, 63, 0
2, 119361, Note_on_c, 0, 51, 0
2, 119361, Note_on_c, 0, 75, 0
2, 119362, Note_on_c, 0, 81, 0
2, 119362, Note_on_c, 0, 66, 0
2, 119362, Note_on_c, 0, 71, 0
2, 119363, Note_on_c, 0, 54, 0
2, 119363, Note_on_c, 0, 47, 0
2, 119363, Note_on_c, 0, 44, 0
2, 119363, Note_on_c, 0, 59, 0
2, 119373, Note_on_c, 0, 80, 108
2, 119373, Note_on_c, 0, 71, 104
2, 119374, Note_on_c, 0, 76, 101
2, 119375, Note_on_c, 0, 37, 100
2, 119416, Note_on_c, 0, 78, 0
2, 119462, Control_c, 0, 64, 127
2, 119542, Note_on_c, 0, 44, 84
2, 119637, Note_on_c, 0, 49, 91
2, 119728, Note_on_c, 0, 61, 100
2, 119729, Note_on_c, 0, 52, 92
2, 119800, Note_on_c, 0, 37, 0
2, 119817, Note_on_c, 0, 63, 98
2, 119823, Note_on_c, 0, 49, 0
2, 119833, Note_on_c, 0, 49, 81
2, 119907, Note_on_c, 0, 64, 102
2, 119915, Note_on_c, 0, 52, 0
2, 119920, Note_on_c, 0, 52, 87
2, 119999, Note_on_c, 0, 66, 98
2, 120002, Note_on_c, 0, 56, 93
2, 120084, Note_on_c, 0, 61, 0
2, 120087, Note_on_c, 0, 68, 107
2, 120090, Note_on_c, 0, 61, 102
2, 120261, Note_on_c, 0, 63, 0
2, 120266, Note_on_c, 0, 75, 108
2, 120267, Note_on_c, 0, 63, 104
2, 120275, Note_on_c, 0, 47, 102
2, 120363, Note_on_c, 0, 42, 88
2, 120453, Note_on_c, 0, 75, 0
2, 120456, Note_on_c, 0, 87, 111
2, 120456, Note_on_c, 0, 35, 98
2, 120460, Note_on_c, 0, 75, 112
2, 120461, Note_on_c, 0, 80, 0
2, 120522, Note_on_c, 0, 42, 0
2, 120529, Note_on_c, 0, 49, 0
2, 120533, Note_on_c, 0, 42, 86
2, 120536, Note_on_c, 0, 49, 82
2, 120614, Note_on_c, 0, 47, 0
2, 120624, Note_on_c, 0, 47, 100
2, 120637, Note_on_c, 0, 71, 0
2, 120640, Note_on_c, 0, 83, 109
2, 120643, Note_on_c, 0, 71, 104
2, 120698, Note_on_c, 0, 42, 0
2, 120707, Note_on_c, 0, 42, 85
2, 120740, Note_on_c, 0, 42, 0
2, 120740, Note_on_c, 0, 87, 0
2, 120740, Note_on_c, 0, 61, 0
2, 120741, Note_on_c, 0, 76, 0
2, 120741, Note_on_c, 0, 52, 0
2, 120741, Note_on_c, 0, 64, 0
2, 120741, Note_on_c, 0, 44, 0
2, 120741, Note_on_c, 0, 56, 0
2, 120741, Note_on_c, 0, 63, 0
2, 120741, Note_on_c, 0, 68, 0
2, 120741, Note_on_c, 0, 66, 0
2, 120741, Note_on_c, 0, 49, 0
2, 120742, Note_on_c, 0, 83, 0
2, 120742, Note_on_c, 0, 35, 0
2, 120742, Note_on_c, 0, 75, 0
2, 120743, Note_on_c, 0, 71, 0
2, 120749, Control_c, 0, 64, 0
2, 120768, Note_on_c, 0, 47, 0
2, 120830, Note_on_c, 0, 81, 111
2, 120831, Note_on_c, 0, 33, 98
2, 120832, Note_on_c, 0, 45, 111
2, 120833, Note_on_c, 0, 69, 107
2, 120833, Note_on_c, 0, 78, 106
2, 120844, Control_c, 0, 64, 127
2, 120936, Note_on_c, 0, 45, 0
2, 120946, Note_on_c, 0, 45, 85
2, 121021, Note_on_c, 0, 45, 0
2, 121030, Note_on_c, 0, 45, 94
2, 121125, Note_on_c, 0, 49, 86
2, 121198, Note_on_c, 0, 69, 0
2, 121198, Note_on_c, 0, 78, 0
2, 121198, Note_on_c, 0, 81, 0
2, 121203, Note_on_c, 0, 59, 102
2, 121205, Note_on_c, 0, 81, 110
2, 121207, Note_on_c, 0, 78, 102
2, 121207, Note_on_c, 0, 69, 109
2, 121234, Note_on_c, 0, 52, 61
2, 121282, Note_on_c, 0, 49, 0
2, 121293, Note_on_c, 0, 49, 52
2, 121351, Note_on_c, 0, 33, 0
2, 121393, Note_on_c, 0, 83, 110
2, 121394, Note_on_c, 0, 71, 103
2, 121399, Note_on_c, 0, 80, 99
2, 121428, Note_on_c, 0, 52, 0
2, 121435, Note_on_c, 0, 52, 75
2, 121548, Control_c, 0, 64, 0
2, 121555, Note_on_c, 0, 81, 0
2, 121555, Note_on_c, 0, 80, 0
2, 121556, Note_on_c, 0, 83, 0
2, 121556, Note_on_c, 0, 52, 0
2, 121557, Note_on_c, 0, 59, 0
2, 121558, Note_on_c, 0, 71, 0
2, 121561, Note_on_c, 0, 69, 0
2, 121566, Note_on_c, 0, 49, 0
2, 121567, Note_on_c, 0, 47, 111
2, 121572, Note_on_c, 0, 35, 96
2, 121574, Note_on_c, 0, 78, 0
2, 121579, Note_on_c, 0, 76, 102
2, 121581, Note_on_c, 0, 73, 104
2, 121582, Note_on_c, 0, 45, 0
2, 121583, Note_on_c, 0, 64, 108
2, 121643, Control_c, 0, 64, 127
2, 121774, Note_on_c, 0, 47, 0
2, 121779, Note_on_c, 0, 47, 93
2, 121872, Note_on_c, 0, 52, 85
2, 121960, Note_on_c, 0, 83, 108
2, 121961, Note_on_c, 0, 59, 105
2, 121962, Note_on_c, 0, 87, 108
2, 121969, Note_on_c, 0, 75, 103
2, 122045, Note_on_c, 0, 54, 84
2, 122142, Note_on_c, 0, 52, 0
2, 122150, Note_on_c, 0, 83, 0
2, 122153, Note_on_c, 0, 52, 87
2, 122155, Note_on_c, 0, 83, 108
2, 122156, Note_on_c, 0, 71, 101
2, 122156, Note_on_c, 0, 80, 99
2, 122227, Note_on_c, 0, 54, 0
2, 122232, Note_on_c, 0, 54, 93
2, 122315, Control_c, 0, 64, 0
2, 122318, Note_on_c, 0, 73, 0
2, 122318, Note_on_c, 0, 54, 0
2, 122318, Note_on_c, 0, 52, 0
2, 122320, Note_on_c, 0, 75, 0
2, 122320, Note_on_c, 0, 47, 0
2, 122320, Note_on_c, 0, 80, 0
2, 122320, Note_on_c, 0, 87, 0
2, 122320, Note_on_c, 0, 76, 0
2, 122320, Note_on_c, 0, 64, 0
2, 122321, Note_on_c, 0, 59, 0
2, 122321, Note_on_c, 0, 83, 0
2, 122322, Note_on_c, 0, 71, 0
2, 122327, Note_on_c, 0, 35, 0
2, 122330, Note_on_c, 0, 81, 111
2, 122332, Note_on_c, 0, 69, 106
2, 122334, Note_on_c, 0, 78, 103
2, 122334, Note_on_c, 0, 37, 99
2, 122337, Note_on_c, 0, 49, 105
2, 122396, Control_c, 0, 64, 127
2, 122519, Note_on_c, 0, 49, 0
2, 122528, Note_on_c, 0, 49, 92
2, 122620, Note_on_c, 0, 52, 89
2, 122703, Note_on_c, 0, 69, 0
2, 122703, Note_on_c, 0, 78, 0
2, 122703, Note_on_c, 0, 81, 0
2, 122707, Note_on_c, 0, 59, 105
2, 122707, Note_on_c, 0, 78, 104
2, 122707, Note_on_c, 0, 81, 109
2, 122708, Note_on_c, 0, 69, 106
2, 122772, Note_on_c, 0, 52, 0
2, 122777, Note_on_c, 0, 52, 79
2, 122856, Note_on_c, 0, 49, 0
2, 122868, Note_on_c, 0, 49, 70
2, 122895, Note_on_c, 0, 83, 108
2, 122899, Note_on_c, 0, 71, 101
2, 122899, Note_on_c, 0, 80, 101
2, 122949, Note_on_c, 0, 52, 0
2, 122959, Note_on_c, 0, 52, 54
2, 123049, Control_c, 0, 64, 0
2, 123049, Note_on_c, 0, 80, 0
2, 123050, Note_on_c, 0, 81, 0
2, 123050, Note_on_c, 0, 37, 0
2, 123050, Note_on_c, 0, 52, 0
2, 123050, Note_on_c, 0, 83, 0
2, 123051, Note_on_c, 0, 59, 0
2, 123051, Note_on_c, 0, 71, 0
2, 123051, Note_on_c, 0, 69, 0
2, 123051, Note_on_c, 0, 78, 0
2, 123064, Note_on_c, 0, 49, 0
2, 123076, Note_on_c, 0, 47, 110
2, 123080, Note_on_c, 0, 76, 106
2, 123081, Note_on_c, 0, 35, 99
2, 123083, Note_on_c, 0, 73, 106
2, 123084, Note_on_c, 0, 64, 108
2, 123125, Control_c, 0, 64, 127
2, 123240, Note_on_c, 0, 47, 0
2, 123247, Note_on_c, 0, 47, 91
2, 123351, Note_on_c, 0, 52, 85
2, 123449, Note_on_c, 0, 59, 104
2, 123541, Note_on_c, 0, 54, 91
2, 123639, Note_on_c, 0, 71, 107
2, 123640, Note_on_c, 0, 52, 0
2, 123645, Note_on_c, 0, 52, 94
2, 123732, Note_on_c, 0, 54, 0
2, 123742, Note_on_c, 0, 54, 95
2, 123790, Control_c, 0, 64, 0
2, 123791, Note_on_c, 0, 52, 0
2, 123792, Note_on_c, 0, 47, 0
2, 123793, Note_on_c, 0, 71, 0
2, 123794, Note_on_c, 0, 54, 0
2, 123794, Note_on_c, 0, 76, 0
2, 123795, Note_on_c, 0, 59, 0
2, 123795, Note_on_c, 0, 64, 0
2, 123816, Note_on_c, 0, 35, 0
2, 123816, Note_on_c, 0, 73, 0
2, 123827, Note_on_c, 0, 73, 111
2, 123828, Note_on_c, 0, 33, 97
2, 123828, Note_on_c, 0, 45, 107
2, 123863, Control_c, 0, 64, 127
2, 124008, Note_on_c, 0, 45, 0
2, 124013, Note_on_c, 0, 45, 94
2, 124018, Note_on_c, 0, 80, 109
2, 124109, Note_on_c, 0, 52, 85
2, 124194, Note_on_c, 0, 68, 109
2, 124195, Note_on_c, 0, 59, 102
2, 124196, Note_on_c, 0, 57, 101
2, 124197, Note_on_c, 0, 61, 89
2, 124270, Note_on_c, 0, 52, 0
2, 124279, Note_on_c, 0, 52, 91
2, 124369, Note_on_c, 0, 45, 0
2, 124375, Note_on_c, 0, 45, 100
2, 124377, Note_on_c, 0, 71, 102
2, 124538, Control_c, 0, 64, 0
2, 124538, Note_on_c, 0, 80, 0
2, 124539, Note_on_c, 0, 68, 0
2, 124540, Note_on_c, 0, 52, 0
2, 124540, Note_on_c, 0, 59, 0
2, 124541, Note_on_c, 0, 57, 0
2, 124541, Note_on_c, 0, 61, 0
2, 124541, Note_on_c, 0, 45, 0
2, 124542, Note_on_c, 0, 71, 0
2, 124554, Note_on_c, 0, 33, 0
2, 124554, Note_on_c, 0, 73, 0
2, 124556, Note_on_c, 0, 47, 111
2, 124558, Note_on_c, 0, 35, 98
2, 124562, Note_on_c, 0, 73, 105
2, 124608, Control_c, 0, 64, 127
2, 124738, Note_on_c, 0, 47, 0
2, 124742, Note_on_c, 0, 80, 108
2, 124743, Note_on_c, 0, 47, 94
2, 124830, Note_on_c, 0, 54, 92
2, 124919, Note_on_c, 0, 68, 110
2, 124920, Note_on_c, 0, 59, 98
2, 124921, Note_on_c, 0, 61, 96
2, 124924, Note_on_c, 0, 63, 102
2, 125015, Note_on_c, 0, 54, 0
2, 125026, Note_on_c, 0, 54, 92
2, 125114, Note_on_c, 0, 59, 0
2, 125124, Note_on_c, 0, 59, 102
2, 125125, Note_on_c, 0, 47, 0
2, 125125, Note_on_c, 0, 78, 109
2, 125128, Note_on_c, 0, 75, 105
2, 125128, Note_on_c, 0, 71, 100
2, 125199, Note_on_c, 0, 54, 0
2, 125210, Note_on_c, 0, 54, 96
2, 125283, Control_c, 0, 64, 0
2, 125288, Note_on_c, 0, 44, 107
2, 125288, Note_on_c, 0, 32, 94
2, 125289, Note_on_c, 0, 59, 0
2, 125289, Note_on_c, 0, 80, 0
2, 125290, Note_on_c, 0, 61, 0
2, 125290, Note_on_c, 0, 71, 0
2, 125291, Note_on_c, 0, 68, 0
2, 125291, Note_on_c, 0, 73, 0
2, 125292, Note_on_c, 0, 63, 0
2, 125306, Note_on_c, 0, 35, 0
2, 125314, Note_on_c, 0, 54, 0
2, 125360, Control_c, 0, 64, 127
2, 125475, Note_on_c, 0, 75, 0
2, 125475, Note_on_c, 0, 78, 0
2, 125481, Note_on_c, 0, 71, 101
2, 125483, Note_on_c, 0, 44, 0
2, 125485, Note_on_c, 0, 51, 92
2, 125485, Note_on_c, 0, 75, 97
2, 125486, Note_on_c, 0, 78, 104
2, 125488, Note_on_c, 0, 44, 88
2, 125577, Note_on_c, 0, 54, 89
2, 125660, Note_on_c, 0, 78, 0
2, 125664, Note_on_c, 0, 59, 103
2, 125666, Note_on_c, 0, 83, 107
2, 125666, Note_on_c, 0, 87, 108
2, 125670, Note_on_c, 0, 78, 95
2, 125744, Note_on_c, 0, 54, 0
2, 125755, Note_on_c, 0, 54, 91
2, 125844, Note_on_c, 0, 51, 0
2, 125844, Note_on_c, 0, 83, 0
2, 125853, Note_on_c, 0, 51, 87
2, 125855, Note_on_c, 0, 83, 106
2, 125855, Note_on_c, 0, 80, 100
2, 125928, Note_on_c, 0, 32, 0
2, 125936, Note_on_c, 0, 54, 0
2, 125943, Note_on_c, 0, 81, 100
2, 125947, Note_on_c, 0, 54, 89
2, 125994, Note_on_c, 0, 71, 0
2, 125994, Note_on_c, 0, 44, 0
2, 125994, Note_on_c, 0, 51, 0
2, 125995, Note_on_c, 0, 54, 0
2, 125995, Note_on_c, 0, 59, 0
2, 125995, Note_on_c, 0, 87, 0
2, 125996, Control_c, 0, 64, 0
2, 126002, Note_on_c, 0, 80, 0
2, 126021, Note_on_c, 0, 78, 0
2, 126021, Note_on_c, 0, 83, 0
2, 126028, Note_on_c, 0, 75, 0
2, 126030, Note_on_c, 0, 78, 111
2, 126033, Note_on_c, 0, 75, 98
2, 126036, Note_on_c, 0, 49, 105
2, 126039, Note_on_c, 0, 37, 97
2, 126067, Control_c, 0, 64, 127
2, 126222, Note_on_c, 0, 56, 92
2, 126319, Note_on_c, 0, 59, 93
2, 126409, Note_on_c, 0, 64, 103
2, 126410, Note_on_c, 0, 80, 109
2, 126411, Note_on_c, 0, 68, 111
2, 126414, Note_on_c, 0, 76, 99
2, 126489, Note_on_c, 0, 59, 0
2, 126500, Note_on_c, 0, 59, 83
2, 126589, Note_on_c, 0, 56, 0
2, 126600, Note_on_c, 0, 56, 92
2, 126724, Note_on_c, 0, 37, 0
2, 126725, Control_c, 0, 64, 0
2, 126726, Note_on_c, 0, 56, 0
2, 126727, Note_on_c, 0, 81, 0
2, 126729, Note_on_c, 0, 78, 0
2, 126729, Note_on_c, 0, 64, 0
2, 126735, Note_on_c, 0, 49, 0
2, 126750, Note_on_c, 0, 59, 0
2, 126773, Note_on_c, 0, 75, 0
2, 126784, Note_on_c, 0, 33, 102
2, 126784, Note_on_c, 0, 45, 110
2, 126842, Control_c, 0, 64, 127
2, 126972, Note_on_c, 0, 49, 86
2, 127071, Note_on_c, 0, 51, 89
2, 127157, Note_on_c, 0, 68, 0
2, 127157, Note_on_c, 0, 76, 0
2, 127157, Note_on_c, 0, 80, 0
2, 127163, Note_on_c, 0, 80, 109
2, 127168, Note_on_c, 0, 76, 106
2, 127168, Note_on_c, 0, 68, 111
2, 127169, Note_on_c, 0, 73, 106
2, 127249, Note_on_c, 0, 51, 0
2, 127254, Note_on_c, 0, 51, 91
2, 127353, Note_on_c, 0, 52, 90
2, 127453, Note_on_c, 0, 54, 91
2, 127547, Note_on_c, 0, 56, 99
2, 127641, Note_on_c, 0, 54, 0
2, 127646, Note_on_c, 0, 54, 96
2, 127726, Note_on_c, 0, 56, 0
2, 127737, Note_on_c, 0, 56, 94
2, 127821, Note_on_c, 0, 57, 100
2, 127896, Note_on_c, 0, 78, 109
2, 127898, Note_on_c, 0, 75, 104
2, 127901, Note_on_c, 0, 59, 97
2, 127996, Note_on_c, 0, 61, 96
2, 128064, Note_on_c, 0, 73, 0
2, 128064, Note_on_c, 0, 76, 0
2, 128075, Note_on_c, 0, 73, 107
2, 128075, Note_on_c, 0, 76, 107
2, 128076, Note_on_c, 0, 63, 100
2, 128172, Note_on_c, 0, 64, 101
2, 128263, Note_on_c, 0, 75, 0
2, 128270, Note_on_c, 0, 49, 0
2, 128271, Control_c, 0, 64, 0
2, 128271, Note_on_c, 0, 33, 0
2, 128271, Note_on_c, 0, 80, 0
2, 128271, Note_on_c, 0, 51, 0
2, 128272, Note_on_c, 0, 68, 0
2, 128272, Note_on_c, 0, 52, 0
2, 128272, Note_on_c, 0, 56, 0
2, 128272, Note_on_c, 0, 59, 0
2, 128272, Note_on_c, 0, 78, 0
2, 128273, Note_on_c, 0, 45, 0
2, 128273, Note_on_c, 0, 63, 0
2, 128273, Note_on_c, 0, 54, 0
2, 128273, Note_on_c, 0, 57, 0
2, 128273, Note_on_c, 0, 75, 111
2, 128273, Note_on_c, 0, 76, 0
2, 128274, Note_on_c, 0, 61, 0
2, 128274, Note_on_c, 0, 64, 0
2, 128274, Note_on_c, 0, 66, 102
2, 128275, Note_on_c, 0, 35, 100
2, 128286, Note_on_c, 0, 73, 0
2, 128348, Control_c, 0, 64, 127
2, 128367, Note_on_c, 0, 64, 101
2, 128463, Note_on_c, 0, 63, 99
2, 128550, Note_on_c, 0, 61, 96
2, 128629, Note_on_c, 0, 59, 101
2, 128716, Note_on_c, 0, 61, 0
2, 128721, Note_on_c, 0, 61, 94
2, 128808, Note_on_c, 0, 59, 0
2, 128815, Note_on_c, 0, 59, 95
2, 128907, Note_on_c, 0, 57, 96
2, 129000, Note_on_c, 0, 66, 0
2, 129006, Note_on_c, 0, 71, 106
2, 129008, Note_on_c, 0, 66, 103
2, 129017, Note_on_c, 0, 56, 96
2, 129100, Note_on_c, 0, 57, 0
2, 129108, Note_on_c, 0, 57, 91
2, 129192, Note_on_c, 0, 56, 0
2, 129199, Note_on_c, 0, 56, 89
2, 129275, Note_on_c, 0, 54, 101
2, 129285, Note_on_c, 0, 71, 0
2, 129285, Note_on_c, 0, 75, 0
2, 129289, Note_on_c, 0, 75, 111
2, 129294, Note_on_c, 0, 71, 102
2, 129299, Note_on_c, 0, 68, 92
2, 129376, Note_on_c, 0, 52, 94
2, 129453, Note_on_c, 0, 51, 88
2, 129537, Note_on_c, 0, 49, 93
2, 129567, Note_on_c, 0, 80, 107
2, 129569, Note_on_c, 0, 71, 0
2, 129569, Note_on_c, 0, 75, 0
2, 129573, Note_on_c, 0, 75, 105
2, 129579, Note_on_c, 0, 71, 73
2, 129620, Note_on_c, 0, 47, 98
2, 129753, Note_on_c, 0, 71, 0
2, 129753, Note_on_c, 0, 75, 0
2, 129757, Note_on_c, 0, 37, 104
2, 129757, Note_on_c, 0, 78, 109
2, 129758, Note_on_c, 0, 83, 97
2, 129760, Note_on_c, 0, 71, 104
2, 129762, Note_on_c, 0, 75, 106
2, 129766, Note_on_c, 0, 63, 0
2, 129766, Note_on_c, 0, 59, 0
2, 129767, Note_on_c, 0, 64, 0
2, 129768, Note_on_c, 0, 66, 0
2, 129768, Note_on_c, 0, 68, 0
2, 129768, Note_on_c, 0, 56, 0
2, 129769, Note_on_c, 0, 52, 0
2, 129770, Note_on_c, 0, 54, 0
2, 129770, Note_on_c, 0, 49, 0
2, 129770, Note_on_c, 0, 47, 0
2, 129771, Note_on_c, 0, 61, 0
2, 129771, Note_on_c, 0, 51, 0
2, 129784, Note_on_c, 0, 35, 0
2, 129784, Note_on_c, 0, 57, 0
2, 129790, Control_c, 0, 64, 0
2, 129914, Control_c, 0, 64, 127
2, 129923, Note_on_c, 0, 44, 91
2, 130019, Note_on_c, 0, 47, 98
2, 130124, Note_on_c, 0, 49, 95
2, 130214, Note_on_c, 0, 47, 0
2, 130219, Note_on_c, 0, 47, 87
2, 130306, Note_on_c, 0, 49, 0
2, 130306, Note_on_c, 0, 80, 0
2, 130314, Note_on_c, 0, 49, 93
2, 130317, Note_on_c, 0, 80, 106
2, 130383, Note_on_c, 0, 78, 0
2, 130392, Note_on_c, 0, 78, 102
2, 130395, Note_on_c, 0, 51, 92
2, 130488, Note_on_c, 0, 52, 99
2, 130495, Note_on_c, 0, 76, 108
2, 130501, Note_on_c, 0, 73, 108
2, 130575, Note_on_c, 0, 49, 0
2, 130580, Note_on_c, 0, 49, 93
2, 130659, Note_on_c, 0, 83, 0
2, 130667, Note_on_c, 0, 51, 0
2, 130671, Note_on_c, 0, 51, 85
2, 130759, Note_on_c, 0, 52, 0
2, 130763, Note_on_c, 0, 52, 94
2, 130866, Note_on_c, 0, 54, 102
2, 130956, Note_on_c, 0, 56, 94
2, 131036, Note_on_c, 0, 76, 0
2, 131040, Note_on_c, 0, 76, 104
2, 131047, Note_on_c, 0, 57, 104
2, 131134, Note_on_c, 0, 59, 95
2, 131228, Note_on_c, 0, 44, 0
2, 131231, Note_on_c, 0, 49, 0
2, 131232, Note_on_c, 0, 56, 0
2, 131232, Note_on_c, 0, 37, 0
2, 131232, Note_on_c, 0, 76, 0
2, 131232, Note_on_c, 0, 52, 0
2, 131232, Note_on_c, 0, 80, 0
2, 131232, Note_on_c, 0, 47, 0
2, 131232, Note_on_c, 0, 57, 0
2, 131232, Note_on_c, 0, 51, 0
2, 131232, Note_on_c, 0, 73, 0
2, 131233, Note_on_c, 0, 54, 0
2, 131233, Note_on_c, 0, 59, 0
2, 131235, Note_on_c, 0, 75, 0
2, 131235, Note_on_c, 0, 78, 0
2, 131237, Control_c, 0, 64, 0
2, 131237, Note_on_c, 0, 84, 109
2, 131238, Note_on_c, 0, 44, 103
2, 131238, Note_on_c, 0, 72, 111
2, 131239, Note_on_c, 0, 83, 112
2, 131241, Note_on_c, 0, 32, 96
2, 131241, Note_on_c, 0, 75, 104
2, 131243, Note_on_c, 0, 78, 109
2, 131258, Note_on_c, 0, 71, 0
2, 131374, Control_c, 0, 64, 127
2, 131408, Note_on_c, 0, 39, 93
2, 131496, Note_on_c, 0, 44, 0
2, 131507, Note_on_c, 0, 44, 94
2, 131601, Note_on_c, 0, 49, 99
2, 131699, Note_on_c, 0, 51, 90
2, 131783, Note_on_c, 0, 56, 96
2, 131875, Note_on_c, 0, 61, 102
2, 131965, Note_on_c, 0, 72, 0
2, 131973, Note_on_c, 0, 75, 0
2, 131973, Note_on_c, 0, 78, 0
2, 131973, Note_on_c, 0, 72, 111
2, 131974, Note_on_c, 0, 81, 108
2, 131977, Note_on_c, 0, 68, 106
2, 131978, Note_on_c, 0, 75, 106
2, 131979, Note_on_c, 0, 78, 104
2, 132067, Note_on_c, 0, 63, 95
2, 132142, Note_on_c, 0, 61, 0
2, 132151, Note_on_c, 0, 61, 99
2, 132234, Note_on_c, 0, 56, 0
2, 132245, Note_on_c, 0, 56, 99
2, 132334, Note_on_c, 0, 51, 0
2, 132339, Note_on_c, 0, 51, 88
2, 132403, Note_on_c, 0, 84, 0
2, 132418, Note_on_c, 0, 49, 0
2, 132424, Note_on_c, 0, 49, 93
2, 132503, Note_on_c, 0, 44, 0
2, 132511, Note_on_c, 0, 44, 92
2, 132512, Note_on_c, 0, 80, 105
2, 132579, Note_on_c, 0, 78, 0
2, 132588, Note_on_c, 0, 78, 95
2, 132651, Control_c, 0, 64, 0
2, 132653, Note_on_c, 0, 75, 0
2, 132653, Note_on_c, 0, 49, 0
2, 132654, Note_on_c, 0, 68, 0
2, 132654, Note_on_c, 0, 63, 0
2, 132654, Note_on_c, 0, 81, 0
2, 132654, Note_on_c, 0, 80, 0
2, 132654, Note_on_c, 0, 32, 0
2, 132654, Note_on_c, 0, 39, 0
2, 132655, Note_on_c, 0, 78, 0
2, 132655, Note_on_c, 0, 44, 0
2, 132655, Note_on_c, 0, 61, 0
2, 132656, Note_on_c, 0, 83, 0
2, 132672, Note_on_c, 0, 56, 0
2, 132672, Note_on_c, 0, 72, 0
2, 132679, Note_on_c, 0, 51, 0
2, 132708, Note_on_c, 0, 37, 91
2, 132709, Note_on_c, 0, 68, 108
2, 132709, Note_on_c, 0, 73, 106
2, 132710, Note_on_c, 0, 64, 106
2, 132711, Note_on_c, 0, 76, 109
2, 132733, Control_c, 0, 64, 127
2, 133000, Note_on_c, 0, 49, 75
2, 133114, Note_on_c, 0, 85, 94
2, 133117, Note_on_c, 0, 37, 0
2, 133123, Note_on_c, 0, 37, 73
2, 133206, Note_on_c, 0, 80, 89
2, 133258, Note_on_c, 0, 44, 72
2, 133304, Note_on_c, 0, 78, 87
2, 133332, Note_on_c, 0, 37, 0
2, 133343, Note_on_c, 0, 37, 71
2, 133409, Note_on_c, 0, 80, 0
2, 133419, Note_on_c, 0, 80, 79
2, 133455, Note_on_c, 0, 37, 0
2, 133459, Note_on_c, 0, 37, 79
2, 133478, Note_on_c, 0, 73, 0
2, 133482, Note_on_c, 0, 73, 84
2, 133539, Note_on_c, 0, 49, 0
2, 133545, Note_on_c, 0, 49, 72
2, 133593, Note_on_c, 0, 80, 0
2, 133599, Note_on_c, 0, 80, 80
2, 133616, Note_on_c, 0, 44, 0
2, 133621, Note_on_c, 0, 44, 67
2, 133670, Note_on_c, 0, 78, 0
2, 133676, Note_on_c, 0, 78, 77
2, 133708, Note_on_c, 0, 49, 0
2, 133714, Note_on_c, 0, 49, 72
2, 133762, Note_on_c, 0, 80, 0
2, 133768, Note_on_c, 0, 80, 82
2, 133808, Note_on_c, 0, 37, 0
2, 133816, Note_on_c, 0, 37, 85
2, 133824, Note_on_c, 0, 85, 0
2, 133835, Note_on_c, 0, 85, 97
2, 133877, Note_on_c, 0, 49, 0
2, 133882, Note_on_c, 0, 49, 83
2, 133916, Note_on_c, 0, 80, 0
2, 133927, Note_on_c, 0, 80, 88
2, 133962, Note_on_c, 0, 44, 0
2, 133966, Note_on_c, 0, 44, 69
2, 134008, Note_on_c, 0, 78, 0
2, 134014, Note_on_c, 0, 78, 80
2, 134062, Note_on_c, 0, 49, 0
2, 134069, Note_on_c, 0, 49, 83
2, 134108, Note_on_c, 0, 80, 0
2, 134118, Note_on_c, 0, 80, 82
2, 134200, Note_on_c, 0, 73, 0
2, 134204, Note_on_c, 0, 54, 104
2, 134210, Note_on_c, 0, 73, 88
2, 134307, Note_on_c, 0, 80, 0
2, 134313, Note_on_c, 0, 80, 73
2, 134384, Note_on_c, 0, 37, 0
2, 134394, Note_on_c, 0, 37, 83
2, 134476, Note_on_c, 0, 80, 0
2, 134485, Note_on_c, 0, 80, 87
2, 134563, Note_on_c, 0, 56, 96
2, 134576, Note_on_c, 0, 85, 0
2, 134580, Note_on_c, 0, 85, 95
2, 134653, Note_on_c, 0, 80, 0
2, 134657, Note_on_c, 0, 80, 91
2, 134737, Note_on_c, 0, 37, 0
2, 134737, Note_on_c, 0, 78, 0
2, 134748, Note_on_c, 0, 78, 81
2, 134749, Note_on_c, 0, 37, 77
2, 134860, Note_on_c, 0, 80, 0
2, 134871, Note_on_c, 0, 80, 81
2, 134929, Note_on_c, 0, 49, 0
2, 134938, Note_on_c, 0, 49, 91
2, 134960, Note_on_c, 0, 73, 0
2, 134965, Note_on_c, 0, 73, 92
2, 135045, Note_on_c, 0, 80, 0
2, 135049, Note_on_c, 0, 80, 87
2, 135137, Note_on_c, 0, 78, 0
2, 135143, Note_on_c, 0, 78, 73
2, 135229, Note_on_c, 0, 80, 0
2, 135238, Note_on_c, 0, 80, 87
2, 135306, Note_on_c, 0, 44, 0
2, 135306, Note_on_c, 0, 85, 0
2, 135310, Note_on_c, 0, 44, 91
2, 135313, Note_on_c, 0, 32, 86
2, 135317, Note_on_c, 0, 85, 98
2, 135390, Note_on_c, 0, 80, 0
2, 135395, Note_on_c, 0, 80, 90
2, 135459, Note_on_c, 0, 78, 0
2, 135469, Note_on_c, 0, 78, 70
2, 135582, Note_on_c, 0, 80, 0
2, 135594, Note_on_c, 0, 80, 93
2, 135653, Note_on_c, 0, 32, 0
2, 135653, Note_on_c, 0, 68, 0
2, 135654, Note_on_c, 0, 54, 0
2, 135654, Note_on_c, 0, 73, 0
2, 135654, Note_on_c, 0, 56, 0
2, 135655, Note_on_c, 0, 44, 0
2, 135655, Note_on_c, 0, 80, 0
2, 135655, Note_on_c, 0, 78, 0
2, 135655, Note_on_c, 0, 64, 0
2, 135655, Note_on_c, 0, 85, 0
2, 135661, Control_c, 0, 64, 0
2, 135682, Note_on_c, 0, 37, 0
2, 135682, Note_on_c, 0, 76, 0
2, 135686, Note_on_c, 0, 37, 99
2, 135691, Note_on_c, 0, 25, 92
2, 135692, Note_on_c, 0, 76, 91
2, 135720, Note_on_c, 0, 49, 0
2, 135736, Control_c, 0, 64, 127
2, 135779, Note_on_c, 0, 85, 78
2, 135863, Note_on_c, 0, 80, 84
2, 135951, Note_on_c, 0, 85, 0
2, 135955, Note_on_c, 0, 85, 83
2, 136044, Note_on_c, 0, 88, 103
2, 136051, Note_on_c, 0, 37, 0
2, 136056, Note_on_c, 0, 37, 76
2, 136131, Note_on_c, 0, 87, 81
2, 136132, Note_on_c, 0, 49, 75
2, 136204, Note_on_c, 0, 85, 0
2, 136213, Note_on_c, 0, 85, 86
2, 136226, Note_on_c, 0, 44, 69
2, 136296, Note_on_c, 0, 87, 0
2, 136303, Note_on_c, 0, 87, 94
2, 136304, Note_on_c, 0, 49, 0
2, 136314, Note_on_c, 0, 49, 76
2, 136404, Note_on_c, 0, 37, 0
2, 136404, Note_on_c, 0, 76, 0
2, 136415, Note_on_c, 0, 37, 85
2, 136415, Note_on_c, 0, 76, 90
2, 136481, Note_on_c, 0, 49, 0
2, 136481, Note_on_c, 0, 85, 0
2, 136492, Note_on_c, 0, 49, 81
2, 136492, Note_on_c, 0, 85, 85
2, 136512, Note_on_c, 0, 44, 0
2, 136587, Note_on_c, 0, 44, 69
2, 136588, Note_on_c, 0, 80, 0
2, 136593, Note_on_c, 0, 80, 85
2, 136657, Note_on_c, 0, 49, 0
2, 136663, Note_on_c, 0, 49, 80
2, 136673, Note_on_c, 0, 85, 0
2, 136681, Note_on_c, 0, 85, 81
2, 136757, Note_on_c, 0, 37, 0
2, 136757, Note_on_c, 0, 88, 0
2, 136764, Note_on_c, 0, 37, 86
2, 136765, Note_on_c, 0, 88, 105
2, 136834, Note_on_c, 0, 87, 0
2, 136842, Note_on_c, 0, 87, 93
2, 136842, Note_on_c, 0, 44, 0
2, 136913, Note_on_c, 0, 44, 79
2, 136934, Note_on_c, 0, 85, 0
2, 136938, Note_on_c, 0, 85, 91
2, 136980, Note_on_c, 0, 49, 0
2, 136985, Note_on_c, 0, 49, 83
2, 137034, Note_on_c, 0, 87, 0
2, 137038, Note_on_c, 0, 87, 90
2, 137118, Note_on_c, 0, 76, 0
2, 137128, Note_on_c, 0, 54, 107
2, 137128, Note_on_c, 0, 76, 84
2, 137195, Note_on_c, 0, 85, 0
2, 137206, Note_on_c, 0, 85, 88
2, 137280, Note_on_c, 0, 37, 0
2, 137290, Note_on_c, 0, 37, 82
2, 137310, Note_on_c, 0, 80, 0
2, 137315, Note_on_c, 0, 80, 74
2, 137402, Note_on_c, 0, 85, 0
2, 137414, Note_on_c, 0, 85, 87
2, 137479, Note_on_c, 0, 44, 0
2, 137479, Note_on_c, 0, 88, 0
2, 137480, Note_on_c, 0, 56, 103
2, 137483, Note_on_c, 0, 44, 71
2, 137491, Note_on_c, 0, 88, 100
2, 137587, Note_on_c, 0, 87, 0
2, 137591, Note_on_c, 0, 87, 88
2, 137664, Note_on_c, 0, 37, 0
2, 137664, Note_on_c, 0, 85, 0
2, 137669, Note_on_c, 0, 37, 83
2, 137675, Note_on_c, 0, 85, 92
2, 137771, Note_on_c, 0, 87, 0
2, 137779, Note_on_c, 0, 87, 90
2, 137856, Note_on_c, 0, 49, 0
2, 137863, Note_on_c, 0, 37, 0
2, 137863, Note_on_c, 0, 76, 0
2, 137866, Note_on_c, 0, 49, 102
2, 137868, Note_on_c, 0, 76, 91
2, 137869, Note_on_c, 0, 37, 84
2, 137932, Note_on_c, 0, 85, 0
2, 137942, Note_on_c, 0, 85, 89
2, 137948, Note_on_c, 0, 25, 0
2, 138055, Note_on_c, 0, 80, 0
2, 138064, Note_on_c, 0, 80, 88
2, 138147, Note_on_c, 0, 85, 0
2, 138152, Note_on_c, 0, 85, 94
2, 138209, Note_on_c, 0, 44, 0
2, 138216, Note_on_c, 0, 88, 0
2, 138220, Note_on_c, 0, 44, 97
2, 138220, Note_on_c, 0, 32, 88
2, 138221, Note_on_c, 0, 88, 108
2, 138316, Note_on_c, 0, 87, 0
2, 138320, Note_on_c, 0, 87, 98
2, 138401, Note_on_c, 0, 85, 0
2, 138406, Note_on_c, 0, 85, 102
2, 138508, Note_on_c, 0, 87, 0
2, 138512, Note_on_c, 0, 87, 98
2, 138535, Control_c, 0, 64, 0
2, 138543, Note_on_c, 0, 32, 0
2, 138549, Note_on_c, 0, 49, 0
2, 138549, Note_on_c, 0, 44, 0
2, 138550, Note_on_c, 0, 54, 0
2, 138551, Note_on_c, 0, 76, 0
2, 138552, Note_on_c, 0, 56, 0
2, 138577, Note_on_c, 0, 37, 0
2, 138577, Note_on_c, 0, 80, 0
2, 138581, Note_on_c, 0, 37, 96
2, 138583, Note_on_c, 0, 25, 93
2, 138588, Note_on_c, 0, 80, 96
2, 138608, Control_c, 0, 64, 127
2, 138677, Note_on_c, 0, 88, 0
2, 138683, Note_on_c, 0, 88, 98
2, 138769, Note_on_c, 0, 85, 0
2, 138779, Note_on_c, 0, 85, 96
2, 138846, Note_on_c, 0, 88, 0
2, 138855, Note_on_c, 0, 88, 101
2, 138954, Note_on_c, 0, 37, 0
2, 138956, Note_on_c, 0, 93, 108
2, 138965, Note_on_c, 0, 37, 85
2, 139040, Note_on_c, 0, 92, 99
2, 139042, Note_on_c, 0, 49, 88
2, 139140, Note_on_c, 0, 90, 100
2, 139141, Note_on_c, 0, 44, 72
2, 139215, Note_on_c, 0, 49, 0
2, 139215, Note_on_c, 0, 92, 0
2, 139225, Note_on_c, 0, 92, 96
2, 139225, Note_on_c, 0, 49, 78
2, 139299, Note_on_c, 0, 80, 0
2, 139307, Note_on_c, 0, 37, 0
2, 139310, Note_on_c, 0, 80, 97
2, 139311, Note_on_c, 0, 37, 88
2, 139392, Note_on_c, 0, 88, 0
2, 139400, Note_on_c, 0, 88, 98
2, 139476, Note_on_c, 0, 44, 0
2, 139481, Note_on_c, 0, 44, 74
2, 139484, Note_on_c, 0, 85, 0
2, 139494, Note_on_c, 0, 85, 96
2, 139553, Note_on_c, 0, 49, 0
2, 139557, Note_on_c, 0, 49, 85
2, 139560, Note_on_c, 0, 88, 0
2, 139571, Note_on_c, 0, 88, 96
2, 139653, Note_on_c, 0, 37, 0
2, 139653, Note_on_c, 0, 93, 0
2, 139659, Note_on_c, 0, 37, 91
2, 139662, Note_on_c, 0, 93, 109
2, 139714, Note_on_c, 0, 49, 0
2, 139722, Note_on_c, 0, 49, 58
2, 139752, Note_on_c, 0, 92, 0
2, 139760, Note_on_c, 0, 92, 104
2, 139829, Note_on_c, 0, 90, 0
2, 139834, Note_on_c, 0, 90, 94
2, 139883, Note_on_c, 0, 49, 0
2, 139891, Note_on_c, 0, 49, 94
2, 139921, Note_on_c, 0, 92, 0
2, 139931, Note_on_c, 0, 92, 98
2, 140021, Note_on_c, 0, 80, 0
2, 140027, Note_on_c, 0, 80, 100
2, 140030, Note_on_c, 0, 54, 106
2, 140098, Note_on_c, 0, 88, 0
2, 140107, Note_on_c, 0, 88, 94
2, 140198, Note_on_c, 0, 37, 0
2, 140206, Note_on_c, 0, 85, 0
2, 140207, Note_on_c, 0, 37, 78
2, 140215, Note_on_c, 0, 85, 88
2, 140290, Note_on_c, 0, 88, 0
2, 140295, Note_on_c, 0, 88, 95
2, 140367, Note_on_c, 0, 93, 0
2, 140375, Note_on_c, 0, 56, 101
2, 140378, Note_on_c, 0, 93, 111
2, 140474, Note_on_c, 0, 92, 0
2, 140479, Note_on_c, 0, 92, 105
2, 140551, Note_on_c, 0, 37, 0
2, 140555, Note_on_c, 0, 37, 94
2, 140567, Note_on_c, 0, 90, 0
2, 140571, Note_on_c, 0, 90, 94
2, 140728, Note_on_c, 0, 49, 0
2, 140736, Note_on_c, 0, 80, 0
2, 140738, Note_on_c, 0, 49, 105
2, 140739, Note_on_c, 0, 80, 104
2, 140812, Note_on_c, 0, 88, 0
2, 140824, Note_on_c, 0, 88, 95
2, 140920, Note_on_c, 0, 85, 0
2, 140924, Note_on_c, 0, 85, 95
2, 141004, Note_on_c, 0, 88, 0
2, 141014, Note_on_c, 0, 88, 105
2, 141081, Note_on_c, 0, 44, 0
2, 141089, Note_on_c, 0, 93, 0
2, 141092, Note_on_c, 0, 44, 102
2, 141094, Note_on_c, 0, 93, 113
2, 141189, Note_on_c, 0, 92, 0
2, 141193, Note_on_c, 0, 92, 105
2, 141265, Note_on_c, 0, 90, 0
2, 141271, Note_on_c, 0, 90, 104
2, 141373, Note_on_c, 0, 92, 0
2, 141378, Note_on_c, 0, 92, 104
2, 141417, Control_c, 0, 64, 0
2, 141430, Note_on_c, 0, 90, 0
2, 141430, Note_on_c, 0, 49, 0
2, 141430, Note_on_c, 0, 93, 0
2, 141430, Note_on_c, 0, 54, 0
2, 141430, Note_on_c, 0, 88, 0
2, 141431, Note_on_c, 0, 44, 0
2, 141431, Note_on_c, 0, 80, 0
2, 141431, Note_on_c, 0, 56, 0
2, 141434, Note_on_c, 0, 87, 0
2, 141457, Note_on_c, 0, 25, 0
2, 141457, Note_on_c, 0, 37, 0
2, 141457, Note_on_c, 0, 85, 0
2, 141462, Note_on_c, 0, 37, 106
2, 141464, Note_on_c, 0, 25, 98
2, 141465, Note_on_c, 0, 85, 107
2, 141511, Control_c, 0, 64, 127
2, 141565, Note_on_c, 0, 92, 0
2, 141570, Note_on_c, 0, 92, 104
2, 141655, Note_on_c, 0, 90, 109
2, 141749, Note_on_c, 0, 92, 0
2, 141754, Note_on_c, 0, 92, 105
2, 141829, Note_on_c, 0, 97, 114
2, 141831, Note_on_c, 0, 49, 92
2, 141903, Note_on_c, 0, 49, 0
2, 141908, Note_on_c, 0, 49, 97
2, 141926, Note_on_c, 0, 92, 0
2, 141936, Note_on_c, 0, 92, 106
2, 142003, Note_on_c, 0, 90, 0
2, 142007, Note_on_c, 0, 44, 85
2, 142013, Note_on_c, 0, 90, 106
2, 142072, Note_on_c, 0, 49, 0
2, 142083, Note_on_c, 0, 49, 79
2, 142110, Note_on_c, 0, 92, 0
2, 142119, Note_on_c, 0, 92, 102
2, 142187, Note_on_c, 0, 37, 0
2, 142187, Note_on_c, 0, 49, 0
2, 142187, Note_on_c, 0, 85, 0
2, 142191, Note_on_c, 0, 37, 84
2, 142192, Note_on_c, 0, 85, 105
2, 142192, Note_on_c, 0, 49, 91
2, 142248, Note_on_c, 0, 49, 0
2, 142258, Note_on_c, 0, 49, 101
2, 142287, Note_on_c, 0, 92, 0
2, 142298, Note_on_c, 0, 92, 106
2, 142341, Note_on_c, 0, 44, 0
2, 142345, Note_on_c, 0, 44, 82
2, 142379, Note_on_c, 0, 90, 0
2, 142385, Note_on_c, 0, 90, 104
2, 142433, Note_on_c, 0, 49, 0
2, 142441, Note_on_c, 0, 49, 86
2, 142479, Note_on_c, 0, 92, 0
2, 142483, Note_on_c, 0, 92, 101
2, 142533, Note_on_c, 0, 37, 0
2, 142538, Note_on_c, 0, 37, 96
2, 142548, Note_on_c, 0, 97, 0
2, 142553, Note_on_c, 0, 97, 112
2, 142609, Note_on_c, 0, 49, 0
2, 142615, Note_on_c, 0, 49, 85
2, 142625, Note_on_c, 0, 92, 0
2, 142635, Note_on_c, 0, 92, 103
2, 142694, Note_on_c, 0, 44, 0
2, 142699, Note_on_c, 0, 44, 87
2, 142717, Note_on_c, 0, 90, 0
2, 142722, Note_on_c, 0, 90, 106
2, 142771, Note_on_c, 0, 49, 0
2, 142782, Note_on_c, 0, 49, 93
2, 142824, Note_on_c, 0, 92, 0
2, 142833, Note_on_c, 0, 92, 104
2, 142906, Note_on_c, 0, 54, 108
2, 142909, Note_on_c, 0, 85, 0
2, 142911, Note_on_c, 0, 66, 112
2, 142913, Note_on_c, 0, 85, 101
2, 143001, Note_on_c, 0, 92, 0
2, 143012, Note_on_c, 0, 92, 101
2, 143093, Note_on_c, 0, 90, 0
2, 143101, Note_on_c, 0, 66, 0
2, 143102, Note_on_c, 0, 90, 109
2, 143108, Note_on_c, 0, 66, 89
2, 143193, Note_on_c, 0, 92, 0
2, 143197, Note_on_c, 0, 92, 98
2, 143270, Note_on_c, 0, 68, 112
2, 143273, Note_on_c, 0, 56, 111
2, 143285, Note_on_c, 0, 97, 0
2, 143289, Note_on_c, 0, 97, 97
2, 143354, Note_on_c, 0, 92, 0
2, 143365, Note_on_c, 0, 92, 101
2, 143454, Note_on_c, 0, 90, 0
2, 143460, Note_on_c, 0, 90, 92
2, 143523, Note_on_c, 0, 92, 0
2, 143533, Note_on_c, 0, 92, 102
2, 143623, Note_on_c, 0, 97, 0
2, 143628, Note_on_c, 0, 73, 114
2, 143629, Note_on_c, 0, 61, 112
2, 143630, Note_on_c, 0, 97, 110
2, 143708, Note_on_c, 0, 90, 0
2, 143712, Note_on_c, 0, 90, 100
2, 143731, Note_on_c, 0, 85, 0
2, 143742, Note_on_c, 0, 85, 99
2, 143823, Note_on_c, 0, 85, 0
2, 143831, Note_on_c, 0, 85, 104
2, 143876, Note_on_c, 0, 80, 98
2, 143914, Note_on_c, 0, 78, 89
2, 143953, Note_on_c, 0, 73, 0
2, 143958, Note_on_c, 0, 73, 97
2, 144030, Note_on_c, 0, 73, 0
2, 144038, Note_on_c, 0, 73, 99
2, 144076, Note_on_c, 0, 68, 0
2, 144082, Note_on_c, 0, 68, 97
2, 144122, Note_on_c, 0, 66, 0
2, 144128, Note_on_c, 0, 66, 96
2, 144176, Note_on_c, 0, 61, 0
2, 144185, Note_on_c, 0, 61, 99
2, 144384, Note_on_c, 0, 73, 0
2, 144391, Note_on_c, 0, 76, 104
2, 144393, Note_on_c, 0, 83, 106
2, 144393, Note_on_c, 0, 71, 108
2, 144394, Note_on_c, 0, 45, 108
2, 144394, Note_on_c, 0, 40, 99
2, 144395, Note_on_c, 0, 73, 110
2, 144395, Note_on_c, 0, 33, 97
2, 144396, Note_on_c, 0, 49, 0
2, 144396, Note_on_c, 0, 97, 0
2, 144397, Note_on_c, 0, 90, 0
2, 144398, Note_on_c, 0, 56, 0
2, 144398, Note_on_c, 0, 92, 0
2, 144399, Note_on_c, 0, 37, 0
2, 144400, Note_on_c, 0, 66, 0
2, 144400, Note_on_c, 0, 85, 0
2, 144400, Note_on_c, 0, 80, 0
2, 144400, Note_on_c, 0, 78, 0
2, 144401, Note_on_c, 0, 61, 0
2, 144401, Note_on_c, 0, 54, 0
2, 144402, Note_on_c, 0, 68, 0
2, 144402, Note_on_c, 0, 44, 0
2, 144407, Note_on_c, 0, 25, 0
2, 144419, Control_c, 0, 64, 0
2, 144506, Control_c, 0, 64, 127
2, 144522, Note_on_c, 0, 40, 0
2, 144545, Control_c, 0, 64, 0
2, 144591, Note_on_c, 0, 33, 0
2, 144607, Note_on_c, 0, 45, 0
2, 144622, Note_on_c, 0, 76, 0
2, 144629, Note_on_c, 0, 71, 0
2, 144629, Note_on_c, 0, 73, 0
2, 144660, Note_on_c, 0, 83, 0
2, 144688, Note_on_c, 0, 88, 112
2, 144690, Note_on_c, 0, 76, 110
2, 144798, Note_on_c, 0, 76, 0
2, 144913, Note_on_c, 0, 88, 0
2, 144955, Note_on_c, 0, 87, 109
2, 144956, Note_on_c, 0, 75, 106
2, 145090, Note_on_c, 0, 75, 0
2, 145146, Note_on_c, 0, 71, 110
2, 145146, Note_on_c, 0, 83, 109
2, 145159, Note_on_c, 0, 87, 0
2, 145282, Control_c, 0, 64, 127
2, 145320, Note_on_c, 0, 47, 107
2, 145323, Note_on_c, 0, 35, 95
2, 145507, Note_on_c, 0, 54, 103
2, 145509, Note_on_c, 0, 51, 98
2, 145666, Note_on_c, 0, 68, 95
2, 145754, Note_on_c, 0, 69, 93
2, 145764, Note_on_c, 0, 47, 0
2, 145782, Control_c, 0, 64, 0
2, 145808, Note_on_c, 0, 68, 0
2, 145816, Note_on_c, 0, 35, 0
2, 145835, Note_on_c, 0, 71, 0
2, 145837, Note_on_c, 0, 69, 0
2, 145839, Note_on_c, 0, 71, 101
2, 145843, Note_on_c, 0, 51, 0
2, 145850, Note_on_c, 0, 54, 0
2, 145854, Note_on_c, 0, 49, 99
2, 145855, Note_on_c, 0, 37, 98
2, 145881, Note_on_c, 0, 83, 0
2, 145889, Control_c, 0, 64, 127
2, 145925, Note_on_c, 0, 69, 98
2, 146021, Note_on_c, 0, 68, 95
2, 146104, Note_on_c, 0, 69, 0
2, 146110, Note_on_c, 0, 69, 96
2, 146138, Note_on_c, 0, 52, 89
2, 146139, Note_on_c, 0, 56, 97
2, 146196, Note_on_c, 0, 68, 0
2, 146202, Note_on_c, 0, 68, 100
2, 146295, Note_on_c, 0, 66, 95
2, 146388, Note_on_c, 0, 56, 0
2, 146388, Note_on_c, 0, 68, 0
2, 146393, Note_on_c, 0, 68, 105
2, 146395, Note_on_c, 0, 56, 93
2, 146395, Note_on_c, 0, 59, 100
2, 146480, Note_on_c, 0, 66, 0
2, 146488, Note_on_c, 0, 66, 94
2, 146583, Note_on_c, 0, 64, 86
2, 146664, Note_on_c, 0, 66, 0
2, 146669, Note_on_c, 0, 66, 88
2, 146734, Note_on_c, 0, 37, 0
2, 146734, Note_on_c, 0, 49, 0
2, 146744, Note_on_c, 0, 49, 93
2, 146744, Note_on_c, 0, 37, 94
2, 146749, Note_on_c, 0, 64, 0
2, 146753, Note_on_c, 0, 64, 97
2, 146851, Note_on_c, 0, 63, 91
2, 146933, Note_on_c, 0, 64, 0
2, 146934, Note_on_c, 0, 47, 100
2, 146938, Note_on_c, 0, 64, 97
2, 146938, Note_on_c, 0, 35, 81
2, 147010, Note_on_c, 0, 66, 0
2, 147018, Note_on_c, 0, 66, 99
2, 147087, Note_on_c, 0, 68, 0
2, 147098, Note_on_c, 0, 68, 98
2, 147148, Note_on_c, 0, 69, 0
2, 147159, Note_on_c, 0, 69, 101
2, 147252, Note_on_c, 0, 63, 0
2, 147252, Control_c, 0, 64, 0
2, 147252, Note_on_c, 0, 52, 0
2, 147252, Note_on_c, 0, 66, 0
2, 147253, Note_on_c, 0, 56, 0
2, 147253, Note_on_c, 0, 35, 0
2, 147253, Note_on_c, 0, 64, 0
2, 147253, Note_on_c, 0, 71, 0
2, 147253, Note_on_c, 0, 47, 0
2, 147253, Note_on_c, 0, 37, 0
2, 147253, Note_on_c, 0, 49, 0
2, 147253, Note_on_c, 0, 69, 0
2, 147254, Note_on_c, 0, 59, 0
2, 147271, Note_on_c, 0, 68, 0
2, 147284, Note_on_c, 0, 33, 99
2, 147285, Note_on_c, 0, 40, 101
2, 147285, Note_on_c, 0, 45, 107
2, 147287, Note_on_c, 0, 71, 109
2, 147287, Note_on_c, 0, 83, 108
2, 147310, Control_c, 0, 64, 127
2, 147379, Note_on_c, 0, 45, 0
2, 147389, Note_on_c, 0, 45, 83
2, 147409, Note_on_c, 0, 71, 0
2, 147420, Note_on_c, 0, 71, 73
2, 147498, Control_c, 0, 64, 0
2, 147502, Note_on_c, 0, 40, 0
2, 147503, Note_on_c, 0, 71, 0
2, 147504, Note_on_c, 0, 45, 0
2, 147505, Note_on_c, 0, 83, 0
2, 147517, Note_on_c, 0, 33, 0
2, 147589, Note_on_c, 0, 88, 110
2, 147589, Note_on_c, 0, 76, 108
2, 147732, Note_on_c, 0, 76, 0
2, 147851, Note_on_c, 0, 87, 109
2, 147852, Note_on_c, 0, 75, 108
2, 147901, Control_c, 0, 64, 127
2, 147924, Note_on_c, 0, 75, 0
2, 147985, Note_on_c, 0, 88, 0
2, 148053, Note_on_c, 0, 83, 111
2, 148053, Note_on_c, 0, 71, 109
2, 148078, Note_on_c, 0, 87, 0
2, 148083, Control_c, 0, 64, 0
2, 148236, Note_on_c, 0, 47, 106
2, 148236, Note_on_c, 0, 35, 96
2, 148262, Control_c, 0, 64, 127
2, 148425, Note_on_c, 0, 54, 103
2, 148426, Note_on_c, 0, 51, 96
2, 148603, Note_on_c, 0, 59, 98
2, 148689, Note_on_c, 0, 61, 92
2, 148721, Control_c, 0, 64, 0
2, 148726, Note_on_c, 0, 54, 0
2, 148726, Note_on_c, 0, 47, 0
2, 148726, Note_on_c, 0, 51, 0
2, 148726, Note_on_c, 0, 71, 0
2, 148727, Note_on_c, 0, 35, 0
2, 148728, Note_on_c, 0, 59, 0
2, 148774, Note_on_c, 0, 44, 104
2, 148774, Note_on_c, 0, 63, 92
2, 148775, Note_on_c, 0, 32, 93
2, 148823, Note_on_c, 0, 83, 0
2, 148846, Control_c, 0, 64, 127
2, 148865, Note_on_c, 0, 59, 94
2, 148945, Note_on_c, 0, 61, 0
2, 148952, Note_on_c, 0, 61, 92
2, 149045, Note_on_c, 0, 63, 0
2, 149052, Note_on_c, 0, 63, 92
2, 149056, Note_on_c, 0, 54, 102
2, 149061, Note_on_c, 0, 51, 90
2, 149132, Note_on_c, 0, 64, 101
2, 149222, Note_on_c, 0, 63, 0
2, 149226, Note_on_c, 0, 63, 92
2, 149312, Control_c, 0, 64, 0
2, 149314, Note_on_c, 0, 64, 0
2, 149316, Note_on_c, 0, 32, 0
2, 149317, Note_on_c, 0, 54, 0
2, 149317, Note_on_c, 0, 61, 0
2, 149317, Note_on_c, 0, 44, 0
2, 149317, Note_on_c, 0, 51, 0
2, 149317, Note_on_c, 0, 59, 0
2, 149318, Note_on_c, 0, 63, 0
2, 149320, Note_on_c, 0, 64, 89
2, 149325, Note_on_c, 0, 49, 102
2, 149326, Note_on_c, 0, 37, 100
2, 149401, Note_on_c, 0, 66, 100
2, 149422, Control_c, 0, 64, 127
2, 149482, Note_on_c, 0, 68, 104
2, 149560, Note_on_c, 0, 66, 0
2, 149569, Note_on_c, 0, 66, 96
2, 149644, Note_on_c, 0, 68, 0
2, 149650, Note_on_c, 0, 68, 99
2, 149667, Note_on_c, 0, 49, 0
2, 149674, Note_on_c, 0, 49, 92
2, 149736, Note_on_c, 0, 69, 104
2, 149847, Note_on_c, 0, 59, 110
2, 149847, Note_on_c, 0, 52, 89
2, 149848, Note_on_c, 0, 56, 91
2, 149854, Note_on_c, 0, 71, 108
2, 149855, Note_on_c, 0, 83, 109
2, 150021, Note_on_c, 0, 69, 0
2, 150028, Note_on_c, 0, 69, 104
2, 150028, Note_on_c, 0, 81, 108
2, 150128, Note_on_c, 0, 68, 0
2, 150134, Note_on_c, 0, 80, 101
2, 150137, Note_on_c, 0, 68, 98
2, 150204, Note_on_c, 0, 49, 0
2, 150204, Control_c, 0, 64, 0
2, 150205, Note_on_c, 0, 66, 0
2, 150206, Note_on_c, 0, 52, 0
2, 150206, Note_on_c, 0, 37, 0
2, 150207, Note_on_c, 0, 81, 0
2, 150207, Note_on_c, 0, 69, 0
2, 150207, Note_on_c, 0, 68, 0
2, 150207, Note_on_c, 0, 56, 0
2, 150207, Note_on_c, 0, 59, 0
2, 150207, Note_on_c, 0, 71, 0
2, 150207, Note_on_c, 0, 83, 0
2, 150207, Note_on_c, 0, 80, 0
2, 150220, Note_on_c, 0, 64, 0
2, 150224, Note_on_c, 0, 45, 100
2, 150225, Note_on_c, 0, 76, 107
2, 150225, Note_on_c, 0, 64, 111
2, 150225, Note_on_c, 0, 33, 88
2, 150282, Control_c, 0, 64, 127
2, 150343, Note_on_c, 0, 33, 0
2, 150408, Note_on_c, 0, 57, 91
2, 150497, Note_on_c, 0, 59, 92
2, 150590, Note_on_c, 0, 61, 89
2, 150685, Note_on_c, 0, 63, 96
2, 150781, Note_on_c, 0, 64, 0
2, 150787, Note_on_c, 0, 64, 95
2, 150789, Note_on_c, 0, 52, 90
2, 150792, Note_on_c, 0, 49, 93
2, 150868, Note_on_c, 0, 66, 94
2, 150969, Note_on_c, 0, 68, 100
2, 151063, Note_on_c, 0, 69, 94
2, 151137, Note_on_c, 0, 71, 98
2, 151142, Note_on_c, 0, 45, 0
2, 151147, Note_on_c, 0, 45, 100
2, 151234, Note_on_c, 0, 73, 92
2, 151311, Note_on_c, 0, 49, 0
2, 151311, Note_on_c, 0, 52, 0
2, 151316, Note_on_c, 0, 64, 0
2, 151319, Note_on_c, 0, 75, 101
2, 151322, Note_on_c, 0, 49, 90
2, 151322, Note_on_c, 0, 52, 82
2, 151403, Note_on_c, 0, 76, 0
2, 151409, Note_on_c, 0, 76, 100
2, 151499, Note_on_c, 0, 78, 102
2, 151581, Note_on_c, 0, 80, 101
2, 151629, Control_c, 0, 64, 0
2, 151630, Note_on_c, 0, 59, 0
2, 151630, Note_on_c, 0, 52, 0
2, 151631, Note_on_c, 0, 57, 0
2, 151631, Note_on_c, 0, 49, 0
2, 151631, Note_on_c, 0, 75, 0
2, 151631, Note_on_c, 0, 69, 0
2, 151631, Note_on_c, 0, 73, 0
2, 151631, Note_on_c, 0, 63, 0
2, 151631, Note_on_c, 0, 68, 0
2, 151631, Note_on_c, 0, 71, 0
2, 151632, Note_on_c, 0, 45, 0
2, 151632, Note_on_c, 0, 66, 0
2, 151632, Note_on_c, 0, 76, 0
2, 151632, Note_on_c, 0, 78, 0
2, 151634, Note_on_c, 0, 80, 0
2, 151649, Note_on_c, 0, 61, 0
2, 151683, Note_on_c, 0, 78, 109
2, 151684, Note_on_c, 0, 47, 109
2, 151686, Note_on_c, 0, 35, 98
2, 151689, Note_on_c, 0, 66, 107
2, 151710, Control_c, 0, 64, 127
2, 151860, Note_on_c, 0, 61, 97
2, 151956, Note_on_c, 0, 63, 100
2, 152049, Note_on_c, 0, 64, 96
2, 152125, Note_on_c, 0, 66, 0
2, 152136, Note_on_c, 0, 66, 100
2, 152218, Note_on_c, 0, 68, 103
2, 152237, Note_on_c, 0, 54, 89
2, 152238, Note_on_c, 0, 51, 84
2, 152296, Note_on_c, 0, 69, 104
2, 152399, Note_on_c, 0, 71, 110
2, 152402, Note_on_c, 0, 83, 112
2, 152486, Note_on_c, 0, 66, 0
2, 152496, Note_on_c, 0, 66, 103
2, 152570, Note_on_c, 0, 68, 0
2, 152579, Note_on_c, 0, 68, 102
2, 152586, Note_on_c, 0, 47, 0
2, 152597, Note_on_c, 0, 47, 96
2, 152670, Note_on_c, 0, 69, 0
2, 152676, Note_on_c, 0, 69, 100
2, 152755, Note_on_c, 0, 51, 0
2, 152755, Note_on_c, 0, 54, 0
2, 152760, Note_on_c, 0, 54, 95
2, 152765, Note_on_c, 0, 51, 80
2, 152770, Note_on_c, 0, 63, 0
2, 152770, Note_on_c, 0, 71, 0
2, 152775, Note_on_c, 0, 71, 97
2, 152780, Note_on_c, 0, 63, 74
2, 152862, Note_on_c, 0, 69, 0
2, 152866, Note_on_c, 0, 69, 100
2, 152947, Note_on_c, 0, 71, 0
2, 152955, Note_on_c, 0, 71, 95
2, 153034, Note_on_c, 0, 75, 104
2, 153072, Control_c, 0, 64, 0
2, 153076, Note_on_c, 0, 68, 0
2, 153076, Note_on_c, 0, 69, 0
2, 153077, Note_on_c, 0, 64, 0
2, 153077, Note_on_c, 0, 63, 0
2, 153077, Note_on_c, 0, 47, 0
2, 153079, Note_on_c, 0, 71, 0
2, 153079, Note_on_c, 0, 66, 0
2, 153079, Note_on_c, 0, 54, 0
2, 153080, Note_on_c, 0, 61, 0
2, 153080, Note_on_c, 0, 83, 0
2, 153080, Note_on_c, 0, 78, 0
2, 153080, Note_on_c, 0, 75, 0
2, 153093, Note_on_c, 0, 51, 0
2, 153100, Note_on_c, 0, 35, 0
2, 153127, Note_on_c, 0, 73, 112
2, 153127, Note_on_c, 0, 85, 106
2, 153130, Note_on_c, 0, 49, 104
2, 153132, Note_on_c, 0, 37, 102
2, 153154, Control_c, 0, 64, 127
2, 153290, Note_on_c, 0, 61, 97
2, 153383, Note_on_c, 0, 63, 99
2, 153468, Note_on_c, 0, 64, 104
2, 153553, Note_on_c, 0, 63, 0
2, 153565, Note_on_c, 0, 63, 82
2, 153657, Note_on_c, 0, 59, 101
2, 153659, Note_on_c, 0, 56, 91
2, 153761, Note_on_c, 0, 66, 98
2, 153845, Note_on_c, 0, 68, 101
2, 153930, Note_on_c, 0, 66, 0
2, 153936, Note_on_c, 0, 66, 92
2, 153991, Note_on_c, 0, 49, 0
2, 153997, Note_on_c, 0, 49, 86
2, 154014, Note_on_c, 0, 68, 0
2, 154019, Note_on_c, 0, 68, 99
2, 154106, Note_on_c, 0, 71, 92
2, 154183, Note_on_c, 0, 56, 0
2, 154183, Note_on_c, 0, 59, 0
2, 154183, Note_on_c, 0, 73, 0
2, 154189, Note_on_c, 0, 59, 98
2, 154191, Note_on_c, 0, 73, 99
2, 154193, Note_on_c, 0, 56, 91
2, 154283, Note_on_c, 0, 71, 0
2, 154288, Note_on_c, 0, 71, 88
2, 154368, Note_on_c, 0, 73, 0
2, 154377, Note_on_c, 0, 73, 94
2, 154457, Note_on_c, 0, 75, 94
2, 154529, Note_on_c, 0, 49, 0
2, 154529, Note_on_c, 0, 56, 0
2, 154529, Note_on_c, 0, 59, 0
2, 154533, Note_on_c, 0, 59, 100
2, 154538, Note_on_c, 0, 56, 96
2, 154539, Note_on_c, 0, 49, 97
2, 154543, Note_on_c, 0, 76, 99
2, 154629, Note_on_c, 0, 75, 0
2, 154637, Note_on_c, 0, 75, 98
2, 154644, Note_on_c, 0, 85, 0
2, 154721, Note_on_c, 0, 76, 0
2, 154728, Note_on_c, 0, 76, 99
2, 154810, Note_on_c, 0, 78, 94
2, 154886, Note_on_c, 0, 80, 100
2, 154990, Note_on_c, 0, 78, 0
2, 154996, Note_on_c, 0, 78, 88
2, 155059, Note_on_c, 0, 80, 0
2, 155065, Note_on_c, 0, 80, 94
2, 155089, Note_on_c, 0, 78, 0
2, 155101, Note_on_c, 0, 78, 57
2, 155149, Note_on_c, 0, 83, 96
2, 155245, Note_on_c, 0, 85, 106
2, 155328, Note_on_c, 0, 80, 0
2, 155338, Note_on_c, 0, 80, 97
2, 155412, Note_on_c, 0, 73, 0
2, 155419, Note_on_c, 0, 73, 99
2, 155420, Note_on_c, 0, 63, 0
2, 155424, Note_on_c, 0, 63, 99
2, 155504, Note_on_c, 0, 80, 0
2, 155513, Note_on_c, 0, 80, 85
2, 155596, Note_on_c, 0, 75, 0
2, 155602, Note_on_c, 0, 75, 105
2, 155606, Note_on_c, 0, 87, 102
2, 155673, Note_on_c, 0, 83, 0
2, 155681, Note_on_c, 0, 83, 89
2, 155765, Note_on_c, 0, 61, 0
2, 155773, Note_on_c, 0, 71, 0
2, 155773, Note_on_c, 0, 75, 0
2, 155780, Note_on_c, 0, 71, 99
2, 155781, Note_on_c, 0, 75, 81
2, 155873, Note_on_c, 0, 83, 0
2, 155883, Note_on_c, 0, 83, 87
2, 155973, Note_on_c, 0, 64, 0
2, 155978, Note_on_c, 0, 69, 106
2, 155981, Note_on_c, 0, 64, 98
2, 155984, Note_on_c, 0, 57, 103
2, 155985, Note_on_c, 0, 61, 92
2, 155985, Note_on_c, 0, 88, 102
2, 156057, Note_on_c, 0, 83, 0
2, 156062, Note_on_c, 0, 83, 76
2, 156172, Note_on_c, 0, 76, 0
2, 156179, Note_on_c, 0, 76, 86
2, 156272, Note_on_c, 0, 83, 0
2, 156284, Note_on_c, 0, 83, 50
2, 156341, Note_on_c, 0, 69, 0
2, 156341, Note_on_c, 0, 88, 0
2, 156346, Note_on_c, 0, 69, 97
2, 156350, Note_on_c, 0, 88, 95
2, 156456, Note_on_c, 0, 83, 0
2, 156462, Note_on_c, 0, 83, 73
2, 156518, Note_on_c, 0, 71, 0
2, 156529, Note_on_c, 0, 71, 95
2, 156541, Note_on_c, 0, 76, 0
2, 156545, Note_on_c, 0, 76, 82
2, 156633, Note_on_c, 0, 83, 0
2, 156638, Note_on_c, 0, 83, 73
2, 156710, Note_on_c, 0, 64, 0
2, 156718, Note_on_c, 0, 59, 0
2, 156718, Note_on_c, 0, 88, 0
2, 156721, Note_on_c, 0, 64, 99
2, 156722, Note_on_c, 0, 59, 95
2, 156724, Note_on_c, 0, 88, 91
2, 156802, Note_on_c, 0, 83, 0
2, 156813, Note_on_c, 0, 83, 86
2, 156902, Note_on_c, 0, 76, 0
2, 156912, Note_on_c, 0, 76, 75
2, 157017, Note_on_c, 0, 83, 0
2, 157021, Note_on_c, 0, 83, 74
2, 157079, Note_on_c, 0, 83, 0
2, 157086, Note_on_c, 0, 75, 0
2, 157088, Note_on_c, 0, 83, 73
2, 157091, Note_on_c, 0, 75, 98
2, 157094, Note_on_c, 0, 87, 0
2, 157104, Note_on_c, 0, 87, 79
2, 157109, Note_on_c, 0, 88, 0
2, 157113, Note_on_c, 0, 88, 95
2, 157194, Note_on_c, 0, 83, 0
2, 157201, Note_on_c, 0, 83, 83
2, 157271, Note_on_c, 0, 71, 0
2, 157276, Note_on_c, 0, 71, 100
2, 157278, Note_on_c, 0, 76, 0
2, 157289, Note_on_c, 0, 76, 79
2, 157363, Note_on_c, 0, 83, 0
2, 157372, Note_on_c, 0, 83, 81
2, 157463, Note_on_c, 0, 64, 0
2, 157463, Note_on_c, 0, 69, 0
2, 157463, Note_on_c, 0, 88, 0
2, 157468, Note_on_c, 0, 69, 104
2, 157470, Note_on_c, 0, 61, 0
2, 157473, Note_on_c, 0, 64, 97
2, 157474, Note_on_c, 0, 88, 91
2, 157474, Note_on_c, 0, 61, 92
2, 157547, Note_on_c, 0, 83, 0
2, 157554, Note_on_c, 0, 83, 83
2, 157647, Note_on_c, 0, 76, 0
2, 157655, Note_on_c, 0, 76, 79
2, 157739, Note_on_c, 0, 37, 0
2, 157754, Note_on_c, 0, 83, 0
2, 157759, Note_on_c, 0, 84, 69
2, 157761, Note_on_c, 0, 83, 74
2, 157824, Note_on_c, 0, 69, 0
2, 157831, Note_on_c, 0, 88, 0
2, 157835, Note_on_c, 0, 69, 100
2, 157843, Note_on_c, 0, 88, 93
2, 157931, Note_on_c, 0, 83, 0
2, 157937, Note_on_c, 0, 83, 76
2, 158016, Note_on_c, 0, 71, 0
2, 158016, Note_on_c, 0, 76, 0
2, 158020, Note_on_c, 0, 71, 90
2, 158025, Note_on_c, 0, 76, 74
2, 158123, Note_on_c, 0, 83, 0
2, 158133, Note_on_c, 0, 83, 83
2, 158208, Note_on_c, 0, 59, 0
2, 158208, Note_on_c, 0, 64, 0
2, 158208, Note_on_c, 0, 84, 0
2, 158212, Note_on_c, 0, 59, 99
2, 158215, Note_on_c, 0, 64, 94
2, 158223, Note_on_c, 0, 88, 0
2, 158229, Note_on_c, 0, 88, 93
2, 158315, Note_on_c, 0, 83, 0
2, 158320, Note_on_c, 0, 83, 82
2, 158415, Note_on_c, 0, 76, 0
2, 158420, Note_on_c, 0, 76, 78
2, 158507, Note_on_c, 0, 83, 0
2, 158516, Note_on_c, 0, 83, 85
2, 158545, Note_on_c, 0, 66, 0
2, 158592, Note_on_c, 0, 88, 0
2, 158598, Note_on_c, 0, 88, 99
2, 158630, Note_on_c, 0, 68, 0
2, 158676, Note_on_c, 0, 83, 0
2, 158685, Note_on_c, 0, 83, 85
2, 158776, Note_on_c, 0, 59, 0
2, 158784, Note_on_c, 0, 76, 0
2, 158786, Note_on_c, 0, 59, 97
2, 158788, Note_on_c, 0, 76, 79
2, 158845, Note_on_c, 0, 83, 0
2, 158852, Note_on_c, 0, 83, 87
2, 158924, Note_on_c, 0, 49, 0
2, 158926, Note_on_c, 0, 87, 0
2, 158926, Note_on_c, 0, 57, 0
2, 158926, Note_on_c, 0, 80, 0
2, 158926, Note_on_c, 0, 75, 0
2, 158926, Note_on_c, 0, 61, 0
2, 158926, Note_on_c, 0, 73, 0
2, 158926, Note_on_c, 0, 56, 0
2, 158926, Note_on_c, 0, 63, 0
2, 158926, Note_on_c, 0, 83, 0
2, 158927, Note_on_c, 0, 78, 0
2, 158927, Note_on_c, 0, 85, 0
2, 158927, Note_on_c, 0, 76, 0
2, 158927, Note_on_c, 0, 59, 0
2, 158927, Note_on_c, 0, 88, 0
2, 158927, Note_on_c, 0, 64, 0
2, 158927, Note_on_c, 0, 71, 0
2, 158932, Control_c, 0, 64, 0
2, 158945, Note_on_c, 0, 69, 0
2, 158969, Note_on_c, 0, 57, 99
2, 158970, Note_on_c, 0, 61, 94
2, 159137, Control_c, 0, 64, 127
2, 159167, Note_on_c, 0, 68, 103
2, 159170, Note_on_c, 0, 80, 89
2, 159269, Note_on_c, 0, 85, 96
2, 159347, Note_on_c, 0, 92, 103
2, 159459, Note_on_c, 0, 85, 0
2, 159469, Note_on_c, 0, 85, 83
2, 159521, Note_on_c, 0, 80, 0
2, 159522, Note_on_c, 0, 59, 101
2, 159529, Note_on_c, 0, 80, 77
2, 159621, Note_on_c, 0, 85, 0
2, 159629, Note_on_c, 0, 85, 86
2, 159705, Note_on_c, 0, 59, 0
2, 159705, Note_on_c, 0, 61, 0
2, 159715, Note_on_c, 0, 59, 90
2, 159715, Note_on_c, 0, 61, 95
2, 159882, Note_on_c, 0, 68, 0
2, 159882, Note_on_c, 0, 80, 0
2, 159890, Note_on_c, 0, 68, 104
2, 159893, Note_on_c, 0, 80, 92
2, 159989, Note_on_c, 0, 85, 0
2, 159994, Note_on_c, 0, 85, 93
2, 160066, Note_on_c, 0, 92, 0
2, 160076, Note_on_c, 0, 92, 103
2, 160166, Note_on_c, 0, 85, 0
2, 160172, Note_on_c, 0, 85, 91
2, 160235, Note_on_c, 0, 80, 0
2, 160243, Note_on_c, 0, 80, 90
2, 160246, Note_on_c, 0, 66, 102
2, 160327, Note_on_c, 0, 85, 0
2, 160332, Note_on_c, 0, 85, 95
2, 160416, Control_c, 0, 64, 0
2, 160416, Note_on_c, 0, 66, 0
2, 160416, Note_on_c, 0, 92, 0
2, 160416, Note_on_c, 0, 61, 0
2, 160417, Note_on_c, 0, 68, 0
2, 160417, Note_on_c, 0, 57, 0
2, 160417, Note_on_c, 0, 80, 0
2, 160427, Note_on_c, 0, 59, 0
2, 160433, Note_on_c, 0, 59, 92
2, 160435, Note_on_c, 0, 56, 94
2, 160458, Control_c, 0, 64, 127
2, 160606, Note_on_c, 0, 83, 94
2, 160629, Note_on_c, 0, 66, 96
2, 160712, Note_on_c, 0, 90, 101
2, 160796, Note_on_c, 0, 85, 0
2, 160800, Note_on_c, 0, 71, 104
2, 160804, Note_on_c, 0, 75, 101
2, 160806, Note_on_c, 0, 95, 107
2, 160888, Note_on_c, 0, 90, 0
2, 160898, Note_on_c, 0, 90, 98
2, 160980, Note_on_c, 0, 83, 0
2, 160984, Note_on_c, 0, 83, 83
2, 160988, Note_on_c, 0, 71, 0
2, 160996, Note_on_c, 0, 71, 100
2, 161057, Note_on_c, 0, 90, 0
2, 161067, Note_on_c, 0, 90, 92
2, 161076, Note_on_c, 0, 69, 99
2, 161172, Note_on_c, 0, 66, 0
2, 161172, Note_on_c, 0, 69, 0
2, 161176, Note_on_c, 0, 66, 104
2, 161182, Note_on_c, 0, 61, 101
2, 161183, Note_on_c, 0, 63, 92
2, 161183, Note_on_c, 0, 69, 83
2, 161191, Note_on_c, 0, 90, 0
2, 161191, Note_on_c, 0, 56, 0
2, 161192, Note_on_c, 0, 59, 0
2, 161193, Note_on_c, 0, 71, 0
2, 161193, Note_on_c, 0, 95, 0
2, 161194, Note_on_c, 0, 83, 0
2, 161194, Note_on_c, 0, 75, 0
2, 161197, Control_c, 0, 64, 0
2, 161241, Control_c, 0, 64, 127
2, 161342, Note_on_c, 0, 80, 90
2, 161407, Note_on_c, 0, 83, 44
2, 161418, Note_on_c, 0, 83, 0
2, 161445, Note_on_c, 0, 85, 96
2, 161537, Note_on_c, 0, 92, 102
2, 161546, Note_on_c, 0, 68, 107
2, 161633, Note_on_c, 0, 85, 0
2, 161637, Note_on_c, 0, 85, 91
2, 161725, Note_on_c, 0, 80, 0
2, 161736, Note_on_c, 0, 80, 80
2, 161825, Note_on_c, 0, 85, 0
2, 161829, Note_on_c, 0, 85, 84
2, 161860, Control_c, 0, 64, 0
2, 161874, Note_on_c, 0, 68, 0
2, 161874, Note_on_c, 0, 92, 0
2, 161875, Note_on_c, 0, 63, 0
2, 161875, Note_on_c, 0, 80, 0
2, 161875, Note_on_c, 0, 61, 0
2, 161886, Note_on_c, 0, 69, 0
2, 161894, Note_on_c, 0, 57, 100
2, 161902, Note_on_c, 0, 66, 0
2, 161925, Control_c, 0, 64, 127
2, 161993, Note_on_c, 0, 80, 87
2, 162078, Note_on_c, 0, 85, 0
2, 162081, Note_on_c, 0, 61, 100
2, 162084, Note_on_c, 0, 85, 96
2, 162177, Note_on_c, 0, 88, 98
2, 162255, Note_on_c, 0, 61, 0
2, 162261, Note_on_c, 0, 92, 106
2, 162266, Note_on_c, 0, 61, 100
2, 162352, Note_on_c, 0, 93, 95
2, 162432, Note_on_c, 0, 92, 0
2, 162443, Note_on_c, 0, 92, 96
2, 162529, Note_on_c, 0, 90, 98
2, 162624, Note_on_c, 0, 88, 0
2, 162629, Control_c, 0, 64, 0
2, 162629, Note_on_c, 0, 69, 107
2, 162630, Note_on_c, 0, 88, 104
2, 162654, Control_c, 0, 64, 127
2, 162716, Note_on_c, 0, 90, 0
2, 162727, Note_on_c, 0, 90, 96
2, 162808, Note_on_c, 0, 88, 0
2, 162813, Note_on_c, 0, 88, 90
2, 162817, Note_on_c, 0, 68, 103
2, 162903, Note_on_c, 0, 87, 89
2, 162977, Note_on_c, 0, 85, 0
2, 162984, Note_on_c, 0, 85, 102
2, 163061, Note_on_c, 0, 87, 0
2, 163071, Note_on_c, 0, 87, 89
2, 163161, Note_on_c, 0, 85, 0
2, 163164, Note_on_c, 0, 59, 104
2, 163165, Note_on_c, 0, 85, 85
2, 163252, Note_on_c, 0, 83, 89
2, 163338, Note_on_c, 0, 59, 0
2, 163338, Note_on_c, 0, 61, 0
2, 163338, Note_on_c, 0, 90, 0
2, 163348, Note_on_c, 0, 59, 92
2, 163349, Note_on_c, 0, 61, 99
2, 163349, Note_on_c, 0, 90, 106
2, 163438, Note_on_c, 0, 92, 0
2, 163444, Note_on_c, 0, 92, 98
2, 163522, Note_on_c, 0, 69, 0
2, 163530, Note_on_c, 0, 90, 0
2, 163533, Note_on_c, 0, 69, 104
2, 163536, Note_on_c, 0, 90, 91
2, 163614, Note_on_c, 0, 88, 0
2, 163620, Note_on_c, 0, 88, 98
2, 163706, Note_on_c, 0, 68, 0
2, 163706, Note_on_c, 0, 87, 0
2, 163712, Note_on_c, 0, 68, 104
2, 163714, Note_on_c, 0, 87, 101
2, 163822, Note_on_c, 0, 88, 0
2, 163829, Note_on_c, 0, 88, 86
2, 163906, Note_on_c, 0, 87, 0
2, 163910, Note_on_c, 0, 87, 89
2, 163983, Note_on_c, 0, 85, 0
2, 163988, Note_on_c, 0, 85, 86
2, 164075, Note_on_c, 0, 59, 0
2, 164075, Note_on_c, 0, 83, 0
2, 164079, Note_on_c, 0, 83, 94
2, 164079, Note_on_c, 0, 59, 107
2, 164085, Note_on_c, 0, 54, 97
2, 164183, Note_on_c, 0, 85, 0
2, 164193, Note_on_c, 0, 85, 91
2, 164259, Note_on_c, 0, 83, 0
2, 164268, Note_on_c, 0, 83, 88
2, 164362, Note_on_c, 0, 81, 97
2, 164363, Note_on_c, 0, 66, 100
2, 164363, Note_on_c, 0, 63, 99
2, 164451, Note_on_c, 0, 80, 0
2, 164457, Note_on_c, 0, 80, 88
2, 164536, Note_on_c, 0, 81, 0
2, 164544, Note_on_c, 0, 81, 85
2, 164613, Note_on_c, 0, 80, 0
2, 164617, Note_on_c, 0, 80, 84
2, 164643, Note_on_c, 0, 61, 0
2, 164652, Note_on_c, 0, 64, 102
2, 164655, Note_on_c, 0, 61, 91
2, 164723, Note_on_c, 0, 76, 96
2, 164843, Note_on_c, 0, 59, 0
2, 164843, Note_on_c, 0, 63, 0
2, 164847, Note_on_c, 0, 78, 101
2, 164850, Note_on_c, 0, 63, 99
2, 164854, Note_on_c, 0, 59, 98
2, 164859, Note_on_c, 0, 49, 93
2, 164860, Note_on_c, 0, 56, 94
2, 164874, Note_on_c, 0, 93, 0
2, 164875, Control_c, 0, 64, 0
2, 164878, Note_on_c, 0, 64, 0
2, 164878, Note_on_c, 0, 81, 0
2, 164878, Note_on_c, 0, 83, 0
2, 164878, Note_on_c, 0, 61, 0
2, 164878, Note_on_c, 0, 87, 0
2, 164878, Note_on_c, 0, 68, 0
2, 164878, Note_on_c, 0, 57, 0
2, 164878, Note_on_c, 0, 92, 0
2, 164878, Note_on_c, 0, 66, 0
2, 164878, Note_on_c, 0, 76, 0
2, 164878, Note_on_c, 0, 85, 0
2, 164879, Note_on_c, 0, 88, 0
2, 164879, Note_on_c, 0, 54, 0
2, 164889, Note_on_c, 0, 69, 0
2, 164889, Note_on_c, 0, 80, 0
2, 164904, Note_on_c, 0, 90, 0
2, 164934, Note_on_c, 0, 76, 83
2, 164989, Control_c, 0, 64, 127
2, 165038, Note_on_c, 0, 75, 71
2, 165123, Note_on_c, 0, 71, 70
2, 165220, Note_on_c, 0, 66, 76
2, 165304, Note_on_c, 0, 71, 0
2, 165313, Note_on_c, 0, 71, 88
2, 165396, Note_on_c, 0, 75, 0
2, 165404, Note_on_c, 0, 75, 90
2, 165488, Note_on_c, 0, 76, 0
2, 165496, Note_on_c, 0, 76, 88
2, 165588, Note_on_c, 0, 78, 0
2, 165596, Note_on_c, 0, 78, 101
2, 165604, Note_on_c, 0, 37, 96
2, 165680, Note_on_c, 0, 83, 80
2, 165775, Note_on_c, 0, 87, 85
2, 165864, Note_on_c, 0, 88, 100
2, 165956, Note_on_c, 0, 90, 103
2, 166049, Note_on_c, 0, 88, 0
2, 166059, Note_on_c, 0, 88, 96
2, 166133, Note_on_c, 0, 90, 0
2, 166135, Note_on_c, 0, 69, 102
2, 166137, Note_on_c, 0, 90, 92
2, 166229, Note_on_c, 0, 93, 101
2, 166317, Note_on_c, 0, 92, 107
2, 166320, Note_on_c, 0, 68, 104
2, 166321, Note_on_c, 0, 64, 100
2, 166323, Note_on_c, 0, 61, 88
2, 166394, Note_on_c, 0, 93, 0
2, 166403, Note_on_c, 0, 93, 96
2, 166487, Note_on_c, 0, 92, 0
2, 166497, Note_on_c, 0, 92, 89
2, 166571, Note_on_c, 0, 90, 0
2, 166576, Note_on_c, 0, 90, 99
2, 166671, Note_on_c, 0, 88, 0
2, 166682, Note_on_c, 0, 88, 101
2, 166771, Note_on_c, 0, 87, 0
2, 166781, Note_on_c, 0, 87, 95
2, 166871, Note_on_c, 0, 88, 0
2, 166877, Note_on_c, 0, 88, 99
2, 166955, Note_on_c, 0, 90, 0
2, 166963, Note_on_c, 0, 90, 93
2, 167032, Note_on_c, 0, 49, 0
2, 167040, Note_on_c, 0, 56, 0
2, 167040, Note_on_c, 0, 92, 0
2, 167043, Note_on_c, 0, 49, 92
2, 167044, Note_on_c, 0, 92, 105
2, 167224, Note_on_c, 0, 75, 0
2, 167224, Note_on_c, 0, 87, 0
2, 167234, Note_on_c, 0, 75, 98
2, 167234, Note_on_c, 0, 87, 100
2, 167400, Note_on_c, 0, 59, 0
2, 167405, Note_on_c, 0, 47, 98
2, 167406, Note_on_c, 0, 59, 88
2, 167408, Note_on_c, 0, 87, 0
2, 167412, Note_on_c, 0, 99, 112
2, 167413, Note_on_c, 0, 87, 104
2, 167592, Note_on_c, 0, 83, 0
2, 167599, Note_on_c, 0, 95, 110
2, 167602, Note_on_c, 0, 83, 105
2, 167749, Control_c, 0, 64, 0
2, 167758, Note_on_c, 0, 49, 0
2, 167758, Note_on_c, 0, 61, 0
2, 167759, Note_on_c, 0, 95, 0
2, 167759, Note_on_c, 0, 69, 0
2, 167759, Note_on_c, 0, 87, 0
2, 167759, Note_on_c, 0, 47, 0
2, 167759, Note_on_c, 0, 59, 0
2, 167760, Note_on_c, 0, 90, 0
2, 167760, Note_on_c, 0, 92, 0
2, 167760, Note_on_c, 0, 66, 0
2, 167760, Note_on_c, 0, 64, 0
2, 167760, Note_on_c, 0, 68, 0
2, 167760, Note_on_c, 0, 83, 0
2, 167760, Note_on_c, 0, 88, 0
2, 167761, Note_on_c, 0, 75, 0
2, 167761, Note_on_c, 0, 71, 0
2, 167761, Note_on_c, 0, 37, 0
2, 167761, Note_on_c, 0, 99, 0
2, 167762, Note_on_c, 0, 78, 0
2, 167762, Note_on_c, 0, 76, 0
2, 167769, Note_on_c, 0, 63, 0
2, 167769, Note_on_c, 0, 93, 0
2, 167775, Note_on_c, 0, 93, 112
2, 167776, Note_on_c, 0, 45, 101
2, 167779, Note_on_c, 0, 81, 103
2, 167823, Control_c, 0, 64, 127
2, 167884, Note_on_c, 0, 52, 85
2, 167961, Note_on_c, 0, 57, 97
2, 168072, Note_on_c, 0, 59, 88
2, 168153, Note_on_c, 0, 93, 0
2, 168160, Note_on_c, 0, 69, 101
2, 168161, Note_on_c, 0, 81, 0
2, 168165, Note_on_c, 0, 93, 106
2, 168166, Note_on_c, 0, 64, 81
2, 168167, Note_on_c, 0, 81, 105
2, 168170, Note_on_c, 0, 61, 84
2, 168346, Note_on_c, 0, 95, 105
2, 168348, Note_on_c, 0, 83, 102
2, 168353, Note_on_c, 0, 61, 0
2, 168357, Note_on_c, 0, 61, 66
2, 168477, Control_c, 0, 64, 0
2, 168486, Note_on_c, 0, 45, 0
2, 168487, Note_on_c, 0, 81, 0
2, 168487, Note_on_c, 0, 61, 0
2, 168487, Note_on_c, 0, 64, 0
2, 168487, Note_on_c, 0, 95, 0
2, 168487, Note_on_c, 0, 52, 0
2, 168487, Note_on_c, 0, 93, 0
2, 168487, Note_on_c, 0, 57, 0
2, 168487, Note_on_c, 0, 69, 0
2, 168487, Note_on_c, 0, 59, 0
2, 168488, Note_on_c, 0, 83, 0
2, 168517, Note_on_c, 0, 47, 97
2, 168533, Note_on_c, 0, 88, 103
2, 168533, Note_on_c, 0, 76, 99
2, 168552, Control_c, 0, 64, 127
2, 168620, Note_on_c, 0, 54, 92
2, 168709, Note_on_c, 0, 59, 92
2, 168787, Note_on_c, 0, 64, 87
2, 168887, Note_on_c, 0, 71, 97
2, 168887, Note_on_c, 0, 66, 101
2, 168901, Note_on_c, 0, 99, 110
2, 168903, Note_on_c, 0, 87, 100
2, 169074, Note_on_c, 0, 95, 108
2, 169078, Note_on_c, 0, 83, 99
2, 169244, Note_on_c, 0, 49, 95
2, 169245, Control_c, 0, 64, 0
2, 169249, Note_on_c, 0, 47, 0
2, 169249, Note_on_c, 0, 64, 0
2, 169249, Note_on_c, 0, 54, 0
2, 169249, Note_on_c, 0, 59, 0
2, 169249, Note_on_c, 0, 88, 0
2, 169251, Note_on_c, 0, 87, 0
2, 169251, Note_on_c, 0, 99, 0
2, 169251, Note_on_c, 0, 95, 0
2, 169252, Note_on_c, 0, 66, 0
2, 169252, Note_on_c, 0, 71, 0
2, 169253, Note_on_c, 0, 76, 0
2, 169254, Note_on_c, 0, 83, 0
2, 169261, Note_on_c, 0, 93, 111
2, 169264, Note_on_c, 0, 81, 104
2, 169320, Control_c, 0, 64, 127
2, 169337, Note_on_c, 0, 49, 0
2, 169363, Note_on_c, 0, 56, 91
2, 169443, Note_on_c, 0, 59, 95
2, 169544, Note_on_c, 0, 61, 87
2, 169612, Note_on_c, 0, 81, 0
2, 169612, Note_on_c, 0, 93, 0
2, 169615, Note_on_c, 0, 69, 98
2, 169616, Note_on_c, 0, 93, 101
2, 169618, Note_on_c, 0, 64, 90
2, 169623, Note_on_c, 0, 81, 102
2, 169811, Note_on_c, 0, 95, 105
2, 169815, Note_on_c, 0, 83, 101
2, 169990, Control_c, 0, 64, 0
2, 169991, Note_on_c, 0, 95, 0
2, 169992, Note_on_c, 0, 61, 0
2, 169992, Note_on_c, 0, 47, 94
2, 169992, Note_on_c, 0, 64, 0
2, 169992, Note_on_c, 0, 93, 0
2, 169993, Note_on_c, 0, 56, 0
2, 169993, Note_on_c, 0, 69, 0
2, 169993, Note_on_c, 0, 83, 0
2, 169993, Note_on_c, 0, 59, 0
2, 170006, Note_on_c, 0, 88, 103
2, 170007, Note_on_c, 0, 76, 95
2, 170012, Note_on_c, 0, 81, 0
2, 170065, Control_c, 0, 64, 127
2, 170083, Note_on_c, 0, 54, 92
2, 170163, Note_on_c, 0, 59, 94
2, 170264, Note_on_c, 0, 64, 99
2, 170363, Note_on_c, 0, 71, 102
2, 170365, Note_on_c, 0, 66, 92
2, 170561, Note_on_c, 0, 83, 104
2, 170661, Control_c, 0, 64, 0
2, 170669, Note_on_c, 0, 54, 0
2, 170671, Note_on_c, 0, 66, 0
2, 170672, Note_on_c, 0, 76, 0
2, 170672, Note_on_c, 0, 59, 0
2, 170672, Note_on_c, 0, 64, 0
2, 170672, Note_on_c, 0, 71, 0
2, 170680, Note_on_c, 0, 47, 0
2, 170718, Note_on_c, 0, 45, 101
2, 170730, Note_on_c, 0, 85, 102
2, 170764, Control_c, 0, 64, 127
2, 170913, Note_on_c, 0, 57, 85
2, 170915, Note_on_c, 0, 92, 102
2, 170995, Note_on_c, 0, 61, 93
2, 171086, Note_on_c, 0, 68, 101
2, 171089, Note_on_c, 0, 64, 94
2, 171279, Note_on_c, 0, 83, 0
2, 171284, Note_on_c, 0, 83, 98
2, 171422, Control_c, 0, 64, 0
2, 171430, Note_on_c, 0, 68, 0
2, 171430, Note_on_c, 0, 92, 0
2, 171431, Note_on_c, 0, 61, 0
2, 171433, Note_on_c, 0, 57, 0
2, 171434, Note_on_c, 0, 83, 0
2, 171434, Note_on_c, 0, 45, 0
2, 171435, Note_on_c, 0, 64, 0
2, 171440, Note_on_c, 0, 88, 0
2, 171448, Note_on_c, 0, 85, 0
2, 171455, Note_on_c, 0, 47, 99
2, 171459, Note_on_c, 0, 85, 102
2, 171494, Control_c, 0, 64, 127
2, 171647, Note_on_c, 0, 59, 82
2, 171651, Note_on_c, 0, 92, 106
2, 171731, Note_on_c, 0, 61, 94
2, 171832, Note_on_c, 0, 63, 99
2, 171832, Note_on_c, 0, 68, 103
2, 172024, Note_on_c, 0, 47, 0
2, 172028, Note_on_c, 0, 90, 109
2, 172037, Note_on_c, 0, 87, 101
2, 172037, Note_on_c, 0, 83, 97
2, 172151, Note_on_c, 0, 68, 0
2, 172151, Note_on_c, 0, 85, 0
2, 172152, Note_on_c, 0, 59, 0
2, 172153, Control_c, 0, 64, 0
2, 172153, Note_on_c, 0, 61, 0
2, 172154, Note_on_c, 0, 63, 0
2, 172156, Note_on_c, 0, 92, 0
2, 172192, Note_on_c, 0, 44, 96
2, 172231, Control_c, 0, 64, 127
2, 172369, Note_on_c, 0, 90, 0
2, 172380, Note_on_c, 0, 90, 105
2, 172397, Note_on_c, 0, 56, 75
2, 172464, Note_on_c, 0, 63, 92
2, 172558, Note_on_c, 0, 71, 103
2, 172559, Note_on_c, 0, 99, 110
2, 172562, Note_on_c, 0, 66, 102
2, 172752, Note_on_c, 0, 95, 99
2, 172835, Note_on_c, 0, 93, 104
2, 172884, Note_on_c, 0, 87, 0
2, 172885, Note_on_c, 0, 83, 0
2, 172886, Note_on_c, 0, 99, 0
2, 172887, Note_on_c, 0, 95, 0
2, 172887, Note_on_c, 0, 66, 0
2, 172887, Note_on_c, 0, 56, 0
2, 172887, Note_on_c, 0, 44, 0
2, 172887, Note_on_c, 0, 63, 0
2, 172887, Note_on_c, 0, 71, 0
2, 172888, Control_c, 0, 64, 0
2, 172915, Note_on_c, 0, 93, 0
2, 172922, Note_on_c, 0, 90, 0
2, 172927, Note_on_c, 0, 90, 110
2, 172929, Note_on_c, 0, 49, 99
2, 172934, Note_on_c, 0, 83, 97
2, 172935, Note_on_c, 0, 87, 92
2, 172968, Control_c, 0, 64, 127
2, 173109, Note_on_c, 0, 59, 92
2, 173200, Note_on_c, 0, 61, 85
2, 173291, Note_on_c, 0, 68, 103
2, 173295, Note_on_c, 0, 64, 92
2, 173309, Note_on_c, 0, 92, 102
2, 173679, Note_on_c, 0, 45, 102
2, 173708, Note_on_c, 0, 49, 0
2, 173709, Note_on_c, 0, 87, 0
2, 173709, Note_on_c, 0, 59, 0
2, 173709, Note_on_c, 0, 90, 0
2, 173709, Note_on_c, 0, 61, 0
2, 173709, Note_on_c, 0, 92, 0
2, 173709, Note_on_c, 0, 83, 0
2, 173710, Note_on_c, 0, 68, 0
2, 173710, Note_on_c, 0, 64, 0
2, 173712, Control_c, 0, 64, 0
2, 173790, Control_c, 0, 64, 127
2, 173865, Note_on_c, 0, 52, 85
2, 174051, Note_on_c, 0, 59, 89
2, 174055, Note_on_c, 0, 92, 107
2, 174061, Note_on_c, 0, 80, 94
2, 174069, Note_on_c, 0, 88, 94
2, 174077, Note_on_c, 0, 85, 83
2, 174237, Note_on_c, 0, 61, 81
2, 174431, Note_on_c, 0, 68, 94
2, 174445, Note_on_c, 0, 64, 78
2, 174822, Note_on_c, 0, 90, 99
2, 174823, Note_on_c, 0, 78, 96
2, 174973, Note_on_c, 0, 88, 0
2, 174982, Note_on_c, 0, 88, 97
2, 175042, Note_on_c, 0, 90, 0
2, 175048, Note_on_c, 0, 90, 97
2, 175176, Note_on_c, 0, 47, 92
2, 175181, Note_on_c, 0, 87, 99
2, 175183, Note_on_c, 0, 83, 96
2, 175192, Note_on_c, 0, 75, 87
2, 175208, Note_on_c, 0, 52, 0
2, 175208, Note_on_c, 0, 90, 0
2, 175208, Note_on_c, 0, 59, 0
2, 175208, Note_on_c, 0, 92, 0
2, 175209, Note_on_c, 0, 64, 0
2, 175209, Note_on_c, 0, 68, 0
2, 175209, Note_on_c, 0, 45, 0
2, 175209, Note_on_c, 0, 80, 0
2, 175210, Note_on_c, 0, 61, 0
2, 175211, Note_on_c, 0, 85, 0
2, 175215, Control_c, 0, 64, 0
2, 175234, Note_on_c, 0, 88, 0
2, 175288, Control_c, 0, 64, 127
2, 175385, Note_on_c, 0, 54, 75
2, 175555, Note_on_c, 0, 61, 73
2, 175744, Note_on_c, 0, 63, 70
2, 175941, Note_on_c, 0, 83, 0
2, 175945, Note_on_c, 0, 83, 97
2, 175946, Note_on_c, 0, 71, 89
2, 175947, Note_on_c, 0, 66, 84
2, 176232, Note_on_c, 0, 75, 0
2, 176232, Note_on_c, 0, 87, 0
2, 176240, Note_on_c, 0, 87, 98
2, 176241, Note_on_c, 0, 75, 94
2, 176509, Note_on_c, 0, 78, 0
2, 176521, Note_on_c, 0, 92, 102
2, 176531, Note_on_c, 0, 80, 87
2, 176724, Note_on_c, 0, 83, 0
2, 176724, Note_on_c, 0, 87, 0
2, 176725, Note_on_c, 0, 90, 102
2, 176731, Note_on_c, 0, 87, 87
2, 176731, Note_on_c, 0, 78, 88
2, 176734, Note_on_c, 0, 49, 79
2, 176735, Note_on_c, 0, 83, 86
2, 176752, Note_on_c, 0, 63, 0
2, 176752, Note_on_c, 0, 71, 0
2, 176754, Note_on_c, 0, 75, 0
2, 176755, Note_on_c, 0, 61, 0
2, 176756, Note_on_c, 0, 66, 0
2, 176757, Note_on_c, 0, 54, 0
2, 176757, Note_on_c, 0, 47, 0
2, 176761, Control_c, 0, 64, 0
2, 176808, Note_on_c, 0, 92, 0
2, 176839, Control_c, 0, 64, 127
2, 176908, Note_on_c, 0, 49, 0
2, 176909, Note_on_c, 0, 56, 77
2, 177089, Note_on_c, 0, 59, 79
2, 177273, Note_on_c, 0, 63, 72
2, 177288, Note_on_c, 0, 92, 98
2, 177361, Note_on_c, 0, 90, 0
2, 177368, Note_on_c, 0, 90, 95
2, 177472, Note_on_c, 0, 88, 101
2, 177472, Note_on_c, 0, 76, 94
2, 177473, Note_on_c, 0, 71, 78
2, 177475, Note_on_c, 0, 64, 68
2, 177476, Note_on_c, 0, 68, 80
2, 178045, Note_on_c, 0, 88, 0
2, 178053, Note_on_c, 0, 88, 99
2, 178249, Note_on_c, 0, 95, 105
2, 178252, Note_on_c, 0, 68, 0
2, 178252, Note_on_c, 0, 71, 0
2, 178252, Note_on_c, 0, 76, 0
2, 178252, Note_on_c, 0, 83, 0
2, 178258, Note_on_c, 0, 83, 91
2, 178260, Note_on_c, 0, 88, 0
2, 178262, Note_on_c, 0, 71, 78
2, 178262, Note_on_c, 0, 68, 78
2, 178263, Note_on_c, 0, 76, 85
2, 178269, Note_on_c, 0, 88, 68
2, 178271, Note_on_c, 0, 61, 69
2, 178560, Note_on_c, 0, 80, 0
2, 179038, Note_on_c, 0, 93, 101
2, 179047, Note_on_c, 0, 75, 72
2, 179047, Note_on_c, 0, 81, 86
2, 179619, Note_on_c, 0, 92, 0
2, 179631, Note_on_c, 0, 92, 85
2, 179632, Note_on_c, 0, 80, 79
2, 179850, Note_on_c, 0, 88, 0
2, 179852, Note_on_c, 0, 73, 69
2, 179854, Note_on_c, 0, 88, 89
2, 179857, Note_on_c, 0, 76, 0
2, 179863, Note_on_c, 0, 76, 75
2, 181340, Note_on_c, 0, 78, 0
2, 181340, Note_on_c, 0, 87, 0
2, 181503, Note_on_c, 0, 66, 63
2, 181516, Note_on_c, 0, 56, 0
2, 181693, Note_on_c, 0, 59, 0
2, 181877, Note_on_c, 0, 63, 0
2, 181908, Note_on_c, 0, 68, 0
2, 181913, Note_on_c, 0, 68, 66
2, 181977, Note_on_c, 0, 90, 0
2, 182085, Note_on_c, 0, 64, 0
2, 182195, Note_on_c, 0, 76, 0
2, 182196, Note_on_c, 0, 83, 0
2, 182246, Note_on_c, 0, 73, 0
2, 182254, Note_on_c, 0, 71, 0
2, 182300, Control_c, 0, 64, 0
2, 182307, Note_on_c, 0, 61, 0
2, 182307, Note_on_c, 0, 81, 0
2, 182315, Note_on_c, 0, 66, 0
2, 182315, Note_on_c, 0, 75, 0
2, 182317, Note_on_c, 0, 61, 55
2, 182323, Note_on_c, 0, 95, 0
2, 182353, Note_on_c, 0, 80, 0
2, 182353, Note_on_c, 0, 93, 0
2, 182392, Note_on_c, 0, 88, 0
2, 182400, Note_on_c, 0, 92, 0
2, 182404, Note_on_c, 0, 68, 0
2, 182714, Control_c, 0, 64, 127
2, 183045, Control_c, 0, 64, 0
2, 183087, Note_on_c, 0, 45, 68
2, 183282, Note_on_c, 0, 52, 71
2, 183306, Control_c, 0, 64, 127
2, 183377, Note_on_c, 0, 57, 62
2, 183478, Note_on_c, 0, 64, 71
2, 183574, Note_on_c, 0, 63, 66
2, 183651, Note_on_c, 0, 61, 0
2, 183656, Note_on_c, 0, 61, 70
2, 183751, Note_on_c, 0, 63, 0
2, 183759, Note_on_c, 0, 63, 70
2, 183779, Control_c, 0, 64, 0
2, 183831, Note_on_c, 0, 47, 74
2, 183848, Note_on_c, 0, 45, 0
2, 183851, Note_on_c, 0, 52, 0
2, 183853, Note_on_c, 0, 57, 0
2, 183854, Note_on_c, 0, 61, 0
2, 183854, Note_on_c, 0, 64, 0
2, 183966, Control_c, 0, 64, 127
2, 184021, Note_on_c, 0, 54, 71
2, 184101, Note_on_c, 0, 59, 73
2, 184215, Note_on_c, 0, 66, 79
2, 184308, Note_on_c, 0, 64, 74
2, 184396, Note_on_c, 0, 63, 0
2, 184402, Note_on_c, 0, 63, 69
2, 184473, Note_on_c, 0, 64, 0
2, 184479, Note_on_c, 0, 64, 88
2, 184585, Note_on_c, 0, 49, 69
2, 184592, Control_c, 0, 64, 0
2, 184619, Control_c, 0, 64, 127
2, 184764, Note_on_c, 0, 56, 75
2, 184804, Control_c, 0, 64, 0
2, 184829, Note_on_c, 0, 61, 74
2, 184888, Control_c, 0, 64, 127
2, 184949, Note_on_c, 0, 68, 87
2, 185034, Note_on_c, 0, 66, 0
2, 185038, Note_on_c, 0, 66, 79
2, 185126, Note_on_c, 0, 64, 0
2, 185130, Note_on_c, 0, 64, 71
2, 185226, Note_on_c, 0, 66, 0
2, 185232, Note_on_c, 0, 66, 77
2, 185324, Note_on_c, 0, 69, 83
2, 185395, Note_on_c, 0, 68, 0
2, 185402, Note_on_c, 0, 68, 72
2, 185487, Note_on_c, 0, 66, 0
2, 185492, Note_on_c, 0, 66, 78
2, 185594, Note_on_c, 0, 68, 0
2, 185604, Note_on_c, 0, 68, 76
2, 185667, Note_on_c, 0, 57, 102
2, 185672, Note_on_c, 0, 71, 89
2, 185756, Note_on_c, 0, 69, 0
2, 185765, Note_on_c, 0, 69, 76
2, 185848, Note_on_c, 0, 68, 0
2, 185858, Note_on_c, 0, 68, 82
2, 185985, Note_on_c, 0, 71, 0
2, 185986, Note_on_c, 0, 56, 0
2, 185988, Note_on_c, 0, 66, 0
2, 185988, Note_on_c, 0, 54, 0
2, 185993, Control_c, 0, 64, 0
2, 186001, Note_on_c, 0, 49, 0
2, 186001, Note_on_c, 0, 63, 0
2, 186017, Note_on_c, 0, 57, 0
2, 186017, Note_on_c, 0, 64, 0
2, 186024, Note_on_c, 0, 59, 0
2, 186027, Note_on_c, 0, 57, 98
2, 186028, Note_on_c, 0, 45, 94
2, 186029, Note_on_c, 0, 73, 98
2, 186032, Control_c, 0, 64, 127
2, 186055, Note_on_c, 0, 47, 0
2, 186136, Note_on_c, 0, 71, 84
2, 186209, Note_on_c, 0, 69, 0
2, 186216, Note_on_c, 0, 59, 95
2, 186219, Note_on_c, 0, 69, 76
2, 186301, Note_on_c, 0, 68, 0
2, 186310, Note_on_c, 0, 68, 76
2, 186393, Note_on_c, 0, 73, 0
2, 186403, Note_on_c, 0, 73, 84
2, 186422, Note_on_c, 0, 52, 81
2, 186478, Note_on_c, 0, 71, 0
2, 186485, Note_on_c, 0, 71, 81
2, 186577, Note_on_c, 0, 69, 0
2, 186582, Note_on_c, 0, 69, 74
2, 186670, Note_on_c, 0, 68, 0
2, 186673, Note_on_c, 0, 68, 77
2, 186750, Control_c, 0, 64, 0
2, 186770, Note_on_c, 0, 47, 98
2, 186776, Note_on_c, 0, 63, 101
2, 186776, Note_on_c, 0, 75, 96
2, 186777, Control_c, 0, 64, 127
2, 186782, Note_on_c, 0, 68, 0
2, 186783, Note_on_c, 0, 45, 0
2, 186784, Note_on_c, 0, 73, 0
2, 186784, Note_on_c, 0, 59, 0
2, 186808, Note_on_c, 0, 61, 0
2, 186876, Note_on_c, 0, 73, 86
2, 186968, Note_on_c, 0, 59, 98
2, 186992, Note_on_c, 0, 69, 0
2, 186998, Note_on_c, 0, 69, 82
2, 187138, Note_on_c, 0, 57, 0
2, 187143, Note_on_c, 0, 57, 100
2, 187146, Note_on_c, 0, 75, 0
2, 187156, Note_on_c, 0, 75, 89
2, 187223, Note_on_c, 0, 73, 0
2, 187234, Note_on_c, 0, 73, 83
2, 187315, Note_on_c, 0, 71, 0
2, 187321, Note_on_c, 0, 71, 71
2, 187384, Note_on_c, 0, 69, 0
2, 187391, Note_on_c, 0, 69, 81
2, 187407, Note_on_c, 0, 52, 0
2, 187486, Control_c, 0, 64, 0
2, 187494, Note_on_c, 0, 75, 0
2, 187495, Note_on_c, 0, 59, 0
2, 187498, Note_on_c, 0, 47, 0
2, 187499, Note_on_c, 0, 57, 0
2, 187506, Note_on_c, 0, 57, 96
2, 187507, Note_on_c, 0, 76, 100
2, 187509, Note_on_c, 0, 49, 91
2, 187514, Control_c, 0, 64, 127
2, 187590, Note_on_c, 0, 75, 90
2, 187668, Note_on_c, 0, 73, 0
2, 187678, Note_on_c, 0, 73, 88
2, 187698, Note_on_c, 0, 59, 95
2, 187776, Note_on_c, 0, 71, 0
2, 187783, Note_on_c, 0, 71, 78
2, 187875, Note_on_c, 0, 69, 0
2, 187880, Note_on_c, 0, 69, 71
2, 187886, Note_on_c, 0, 52, 88
2, 187969, Note_on_c, 0, 68, 90
2, 188064, Note_on_c, 0, 66, 81
2, 188148, Note_on_c, 0, 64, 82
2, 188244, Note_on_c, 0, 73, 0
2, 188249, Note_on_c, 0, 73, 101
2, 188328, Note_on_c, 0, 71, 0
2, 188338, Note_on_c, 0, 71, 82
2, 188413, Note_on_c, 0, 69, 0
2, 188417, Note_on_c, 0, 69, 80
2, 188447, Note_on_c, 0, 51, 89
2, 188528, Note_on_c, 0, 68, 0
2, 188538, Note_on_c, 0, 68, 78
2, 188605, Note_on_c, 0, 52, 0
2, 188605, Note_on_c, 0, 66, 0
2, 188610, Note_on_c, 0, 66, 84
2, 188614, Note_on_c, 0, 52, 89
2, 188666, Note_on_c, 0, 64, 0
2, 188678, Note_on_c, 0, 64, 80
2, 188801, Note_on_c, 0, 61, 96
2, 188904, Note_on_c, 0, 64, 0
2, 188914, Note_on_c, 0, 64, 84
2, 189007, Note_on_c, 0, 33, 85
2, 189010, Note_on_c, 0, 66, 0
2, 189010, Note_on_c, 0, 68, 0
2, 189010, Note_on_c, 0, 76, 0
2, 189011, Note_on_c, 0, 73, 0
2, 189011, Note_on_c, 0, 75, 0
2, 189011, Note_on_c, 0, 59, 0
2, 189012, Note_on_c, 0, 49, 0
2, 189012, Note_on_c, 0, 57, 0
2, 189013, Note_on_c, 0, 51, 0
2, 189013, Note_on_c, 0, 61, 0
2, 189013, Control_c, 0, 64, 0
2, 189027, Note_on_c, 0, 52, 0
2, 189027, Note_on_c, 0, 69, 0
2, 189035, Note_on_c, 0, 63, 0
2, 189035, Note_on_c, 0, 71, 0
2, 189127, Control_c, 0, 64, 127
2, 189176, Note_on_c, 0, 57, 73
2, 189277, Note_on_c, 0, 59, 76
2, 189281, Note_on_c, 0, 33, 0
2, 189366, Note_on_c, 0, 61, 78
2, 189457, Note_on_c, 0, 57, 0
2, 189466, Note_on_c, 0, 57, 64
2, 189534, Note_on_c, 0, 59, 0
2, 189546, Note_on_c, 0, 59, 70
2, 189596, Note_on_c, 0, 57, 0
2, 189601, Note_on_c, 0, 57, 56
2, 189642, Note_on_c, 0, 61, 0
2, 189646, Note_on_c, 0, 61, 71
2, 189723, Note_on_c, 0, 45, 94
2, 189728, Note_on_c, 0, 63, 78
2, 189826, Note_on_c, 0, 59, 0
2, 189833, Note_on_c, 0, 59, 79
2, 189918, Note_on_c, 0, 61, 0
2, 189928, Note_on_c, 0, 61, 74
2, 189995, Note_on_c, 0, 63, 0
2, 190006, Note_on_c, 0, 63, 74
2, 190080, Note_on_c, 0, 64, 0
2, 190088, Note_on_c, 0, 64, 75
2, 190195, Note_on_c, 0, 61, 0
2, 190200, Note_on_c, 0, 61, 76
2, 190287, Note_on_c, 0, 63, 0
2, 190292, Note_on_c, 0, 63, 77
2, 190379, Note_on_c, 0, 64, 0
2, 190384, Note_on_c, 0, 64, 87
2, 190463, Note_on_c, 0, 35, 95
2, 190466, Note_on_c, 0, 66, 82
2, 190540, Note_on_c, 0, 63, 0
2, 190551, Note_on_c, 0, 63, 84
2, 190640, Note_on_c, 0, 64, 0
2, 190650, Note_on_c, 0, 64, 92
2, 190732, Note_on_c, 0, 66, 0
2, 190741, Note_on_c, 0, 66, 90
2, 190817, Note_on_c, 0, 68, 93
2, 190917, Note_on_c, 0, 64, 0
2, 190923, Note_on_c, 0, 64, 86
2, 191009, Note_on_c, 0, 66, 0
2, 191019, Note_on_c, 0, 66, 87
2, 191101, Note_on_c, 0, 68, 0
2, 191107, Note_on_c, 0, 68, 86
2, 191178, Note_on_c, 0, 69, 91
2, 191182, Note_on_c, 0, 47, 105
2, 191301, Note_on_c, 0, 66, 0
2, 191305, Note_on_c, 0, 66, 85
2, 191385, Note_on_c, 0, 68, 0
2, 191389, Note_on_c, 0, 68, 81
2, 191477, Note_on_c, 0, 69, 0
2, 191486, Note_on_c, 0, 69, 89
2, 191549, Note_on_c, 0, 51, 103
2, 191568, Note_on_c, 0, 71, 85
2, 191669, Note_on_c, 0, 68, 0
2, 191680, Note_on_c, 0, 68, 90
2, 191754, Note_on_c, 0, 69, 0
2, 191765, Note_on_c, 0, 69, 89
2, 191854, Note_on_c, 0, 71, 0
2, 191859, Note_on_c, 0, 71, 81
2, 191900, Note_on_c, 0, 51, 0
2, 191905, Note_on_c, 0, 51, 94
2, 191912, Control_c, 0, 64, 0
2, 191916, Note_on_c, 0, 37, 95
2, 191936, Note_on_c, 0, 73, 86
2, 191946, Control_c, 0, 64, 127
2, 191981, Note_on_c, 0, 70, 63
2, 192038, Note_on_c, 0, 69, 0
2, 192042, Note_on_c, 0, 69, 87
2, 192107, Note_on_c, 0, 71, 0
2, 192111, Note_on_c, 0, 44, 100
2, 192118, Note_on_c, 0, 71, 92
2, 192215, Note_on_c, 0, 73, 0
2, 192223, Note_on_c, 0, 73, 80
2, 192291, Note_on_c, 0, 44, 0
2, 192302, Note_on_c, 0, 44, 102
2, 192310, Note_on_c, 0, 75, 96
2, 192399, Note_on_c, 0, 71, 0
2, 192406, Note_on_c, 0, 71, 90
2, 192499, Note_on_c, 0, 73, 0
2, 192509, Note_on_c, 0, 73, 90
2, 192568, Note_on_c, 0, 75, 0
2, 192579, Note_on_c, 0, 75, 91
2, 192667, Note_on_c, 0, 56, 105
2, 192671, Note_on_c, 0, 76, 95
2, 192775, Note_on_c, 0, 73, 0
2, 192786, Note_on_c, 0, 73, 96
2, 192857, Note_on_c, 0, 64, 0
2, 192860, Note_on_c, 0, 52, 98
2, 192860, Note_on_c, 0, 75, 0
2, 192864, Note_on_c, 0, 75, 92
2, 192952, Note_on_c, 0, 76, 0
2, 192959, Note_on_c, 0, 76, 102
2, 193044, Note_on_c, 0, 51, 0
2, 193048, Note_on_c, 0, 78, 106
2, 193049, Note_on_c, 0, 51, 100
2, 193144, Note_on_c, 0, 75, 0
2, 193151, Note_on_c, 0, 75, 91
2, 193236, Note_on_c, 0, 76, 0
2, 193246, Note_on_c, 0, 76, 103
2, 193328, Note_on_c, 0, 78, 0
2, 193333, Note_on_c, 0, 78, 97
2, 193405, Note_on_c, 0, 37, 0
2, 193409, Note_on_c, 0, 80, 100
2, 193413, Note_on_c, 0, 51, 0
2, 193416, Note_on_c, 0, 37, 99
2, 193417, Note_on_c, 0, 51, 94
2, 193497, Note_on_c, 0, 76, 0
2, 193505, Note_on_c, 0, 76, 102
2, 193605, Note_on_c, 0, 44, 0
2, 193605, Note_on_c, 0, 78, 0
2, 193610, Note_on_c, 0, 78, 98
2, 193615, Note_on_c, 0, 44, 98
2, 193697, Note_on_c, 0, 80, 0
2, 193707, Note_on_c, 0, 80, 102
2, 193789, Note_on_c, 0, 44, 0
2, 193796, Note_on_c, 0, 81, 101
2, 193798, Note_on_c, 0, 44, 99
2, 193896, Note_on_c, 0, 78, 0
2, 193901, Note_on_c, 0, 78, 99
2, 193920, Note_on_c, 0, 35, 0
2, 193920, Note_on_c, 0, 45, 0
2, 193920, Note_on_c, 0, 47, 0
2, 193920, Note_on_c, 0, 57, 0
2, 193920, Note_on_c, 0, 59, 0
2, 193920, Note_on_c, 0, 61, 0
2, 193920, Note_on_c, 0, 63, 0
2, 193920, Note_on_c, 0, 66, 0
2, 193920, Note_on_c, 0, 68, 0
2, 193920, Note_on_c, 0, 70, 0
2, 193958, Note_on_c, 0, 80, 0
2, 193962, Note_on_c, 0, 80, 101
2, 194058, Note_on_c, 0, 81, 0
2, 194068, Note_on_c, 0, 81, 108
2, 194156, Note_on_c, 0, 83, 112
2, 194334, Note_on_c, 0, 44, 0
2, 194340, Note_on_c, 0, 44, 108
2, 194435, Note_on_c, 0, 75, 0
2, 194436, Note_on_c, 0, 83, 0
2, 194436, Note_on_c, 0, 80, 0
2, 194436, Note_on_c, 0, 52, 0
2, 194436, Note_on_c, 0, 56, 0
2, 194437, Note_on_c, 0, 78, 0
2, 194437, Note_on_c, 0, 76, 0
2, 194437, Note_on_c, 0, 69, 0
2, 194437, Note_on_c, 0, 44, 0
2, 194437, Note_on_c, 0, 71, 0
2, 194437, Note_on_c, 0, 81, 0
2, 194438, Control_c, 0, 64, 0
2, 194449, Note_on_c, 0, 37, 0
2, 194449, Note_on_c, 0, 51, 0
2, 194457, Note_on_c, 0, 73, 0
2, 194509, Note_on_c, 0, 47, 108
2, 194569, Note_on_c, 0, 47, 0
2, 194710, Note_on_c, 0, 49, 108
2, 194803, Control_c, 0, 64, 127
2, 194883, Note_on_c, 0, 45, 106
2, 194884, Note_on_c, 0, 33, 97
2, 195079, Note_on_c, 0, 49, 0
2, 195083, Note_on_c, 0, 57, 105
2, 195083, Note_on_c, 0, 49, 101
2, 195084, Note_on_c, 0, 76, 101
2, 195176, Note_on_c, 0, 81, 95
2, 195259, Note_on_c, 0, 88, 109
2, 195344, Note_on_c, 0, 87, 102
2, 195425, Note_on_c, 0, 33, 0
2, 195425, Note_on_c, 0, 45, 0
2, 195436, Note_on_c, 0, 45, 103
2, 195436, Note_on_c, 0, 85, 106
2, 195436, Note_on_c, 0, 33, 88
2, 195509, Note_on_c, 0, 87, 0
2, 195520, Note_on_c, 0, 87, 106
2, 195549, Control_c, 0, 64, 0
2, 195551, Note_on_c, 0, 33, 0
2, 195553, Note_on_c, 0, 81, 0
2, 195553, Note_on_c, 0, 76, 0
2, 195554, Note_on_c, 0, 88, 0
2, 195554, Note_on_c, 0, 45, 0
2, 195554, Note_on_c, 0, 57, 0
2, 195558, Note_on_c, 0, 49, 0
2, 195559, Note_on_c, 0, 85, 0
2, 195615, Note_on_c, 0, 47, 108
2, 195618, Note_on_c, 0, 35, 97
2, 195640, Control_c, 0, 64, 127
2, 195800, Note_on_c, 0, 78, 110
2, 195805, Note_on_c, 0, 59, 104
2, 195815, Note_on_c, 0, 54, 98
2, 195827, Note_on_c, 0, 51, 93
2, 195890, Note_on_c, 0, 83, 95
2, 195972, Note_on_c, 0, 90, 112
2, 196069, Note_on_c, 0, 88, 107
2, 196154, Note_on_c, 0, 35, 0
2, 196154, Note_on_c, 0, 47, 0
2, 196154, Note_on_c, 0, 87, 0
2, 196159, Note_on_c, 0, 47, 98
2, 196159, Note_on_c, 0, 35, 90
2, 196163, Note_on_c, 0, 87, 105
2, 196247, Note_on_c, 0, 88, 0
2, 196258, Note_on_c, 0, 88, 112
2, 196299, Control_c, 0, 64, 0
2, 196306, Note_on_c, 0, 90, 0
2, 196306, Note_on_c, 0, 47, 0
2, 196306, Note_on_c, 0, 83, 0
2, 196306, Note_on_c, 0, 35, 0
2, 196306, Note_on_c, 0, 78, 0
2, 196307, Note_on_c, 0, 87, 0
2, 196307, Note_on_c, 0, 54, 0
2, 196308, Note_on_c, 0, 51, 0
2, 196309, Note_on_c, 0, 59, 0
2, 196346, Note_on_c, 0, 37, 102
2, 196346, Note_on_c, 0, 49, 107
2, 196385, Control_c, 0, 64, 127
2, 196527, Note_on_c, 0, 83, 104
2, 196528, Note_on_c, 0, 59, 107
2, 196531, Note_on_c, 0, 49, 0
2, 196533, Note_on_c, 0, 56, 98
2, 196542, Note_on_c, 0, 49, 93
2, 196615, Note_on_c, 0, 88, 0
2, 196626, Note_on_c, 0, 88, 105
2, 196726, Note_on_c, 0, 95, 109
2, 196806, Note_on_c, 0, 93, 104
2, 196861, Note_on_c, 0, 49, 0
2, 196872, Note_on_c, 0, 49, 96
2, 196895, Note_on_c, 0, 92, 107
2, 196976, Note_on_c, 0, 93, 0
2, 196987, Note_on_c, 0, 93, 104
2, 197053, Note_on_c, 0, 61, 107
2, 197061, Note_on_c, 0, 92, 0
2, 197066, Note_on_c, 0, 92, 106
2, 197145, Note_on_c, 0, 93, 0
2, 197150, Note_on_c, 0, 63, 99
2, 197150, Note_on_c, 0, 93, 105
2, 197237, Note_on_c, 0, 92, 0
2, 197243, Note_on_c, 0, 64, 99
2, 197243, Note_on_c, 0, 92, 104
2, 197336, Note_on_c, 0, 90, 109
2, 197357, Note_on_c, 0, 66, 97
2, 197414, Note_on_c, 0, 88, 0
2, 197425, Note_on_c, 0, 88, 105
2, 197426, Note_on_c, 0, 68, 98
2, 197514, Note_on_c, 0, 87, 99
2, 197516, Note_on_c, 0, 69, 101
2, 197593, Note_on_c, 0, 85, 100
2, 197594, Note_on_c, 0, 71, 101
2, 197660, Note_on_c, 0, 83, 0
2, 197666, Note_on_c, 0, 83, 99
2, 197733, Control_c, 0, 64, 0
2, 197734, Note_on_c, 0, 93, 0
2, 197735, Note_on_c, 0, 61, 0
2, 197736, Note_on_c, 0, 56, 0
2, 197736, Note_on_c, 0, 64, 0
2, 197737, Note_on_c, 0, 92, 0
2, 197737, Note_on_c, 0, 90, 0
2, 197737, Note_on_c, 0, 59, 0
2, 197738, Note_on_c, 0, 68, 0
2, 197738, Note_on_c, 0, 83, 0
2, 197739, Note_on_c, 0, 66, 0
2, 197739, Note_on_c, 0, 87, 0
2, 197740, Note_on_c, 0, 63, 0
2, 197740, Note_on_c, 0, 69, 0
2, 197740, Note_on_c, 0, 71, 0
2, 197744, Note_on_c, 0, 37, 0
2, 197744, Note_on_c, 0, 49, 0
2, 197752, Note_on_c, 0, 85, 0
2, 197752, Note_on_c, 0, 95, 0
2, 197756, Note_on_c, 0, 45, 109
2, 197757, Note_on_c, 0, 33, 96
2, 197757, Note_on_c, 0, 85, 107
2, 197759, Note_on_c, 0, 81, 99
2, 197760, Note_on_c, 0, 88, 0
2, 197783, Control_c, 0, 64, 127
2, 197848, Note_on_c, 0, 87, 101
2, 197940, Note_on_c, 0, 83, 103
2, 197946, Note_on_c, 0, 57, 99
2, 197946, Note_on_c, 0, 61, 96
2, 198036, Note_on_c, 0, 85, 0
2, 198046, Note_on_c, 0, 85, 104
2, 198113, Note_on_c, 0, 81, 0
2, 198122, Note_on_c, 0, 64, 104
2, 198123, Note_on_c, 0, 81, 102
2, 198197, Note_on_c, 0, 83, 0
2, 198201, Note_on_c, 0, 83, 104
2, 198297, Note_on_c, 0, 57, 0
2, 198299, Note_on_c, 0, 63, 100
2, 198301, Note_on_c, 0, 80, 96
2, 198307, Note_on_c, 0, 57, 70
2, 198382, Note_on_c, 0, 81, 0
2, 198392, Note_on_c, 0, 81, 100
2, 198449, Control_c, 0, 64, 0
2, 198450, Note_on_c, 0, 45, 0
2, 198451, Note_on_c, 0, 33, 0
2, 198451, Note_on_c, 0, 87, 0
2, 198454, Note_on_c, 0, 63, 0
2, 198454, Note_on_c, 0, 85, 0
2, 198454, Note_on_c, 0, 83, 0
2, 198454, Note_on_c, 0, 57, 0
2, 198454, Note_on_c, 0, 61, 0
2, 198454, Note_on_c, 0, 64, 0
2, 198455, Note_on_c, 0, 80, 0
2, 198455, Note_on_c, 0, 81, 0
2, 198477, Note_on_c, 0, 47, 109
2, 198478, Note_on_c, 0, 78, 104
2, 198478, Note_on_c, 0, 35, 100
2, 198478, Note_on_c, 0, 75, 98
2, 198528, Control_c, 0, 64, 127
2, 198593, Note_on_c, 0, 80, 96
2, 198669, Note_on_c, 0, 59, 94
2, 198670, Note_on_c, 0, 76, 101
2, 198750, Note_on_c, 0, 78, 0
2, 198755, Note_on_c, 0, 78, 93
2, 198842, Note_on_c, 0, 75, 0
2, 198846, Note_on_c, 0, 64, 105
2, 198847, Note_on_c, 0, 75, 93
2, 198935, Note_on_c, 0, 76, 0
2, 198944, Note_on_c, 0, 76, 97
2, 199019, Note_on_c, 0, 63, 98
2, 199020, Note_on_c, 0, 73, 104
2, 199111, Note_on_c, 0, 75, 0
2, 199116, Note_on_c, 0, 75, 99
2, 199182, Note_on_c, 0, 78, 0
2, 199182, Note_on_c, 0, 80, 0
2, 199183, Note_on_c, 0, 75, 0
2, 199184, Note_on_c, 0, 76, 0
2, 199184, Note_on_c, 0, 47, 0
2, 199184, Note_on_c, 0, 64, 0
2, 199184, Note_on_c, 0, 63, 0
2, 199184, Note_on_c, 0, 73, 0
2, 199185, Note_on_c, 0, 59, 0
2, 199185, Note_on_c, 0, 35, 0
2, 199186, Control_c, 0, 64, 0
2, 199199, Note_on_c, 0, 44, 105
2, 199199, Note_on_c, 0, 32, 98
2, 199200, Note_on_c, 0, 71, 101
2, 199272, Control_c, 0, 64, 127
2, 199300, Note_on_c, 0, 73, 106
2, 199382, Note_on_c, 0, 69, 99
2, 199406, Note_on_c, 0, 56, 90
2, 199441, Note_on_c, 0, 71, 0
2, 199452, Note_on_c, 0, 71, 100
2, 199560, Note_on_c, 0, 68, 105
2, 199567, Note_on_c, 0, 63, 94
2, 199567, Note_on_c, 0, 66, 103
2, 199649, Note_on_c, 0, 69, 0
2, 199660, Note_on_c, 0, 69, 101
2, 199749, Note_on_c, 0, 68, 0
2, 199753, Note_on_c, 0, 68, 100
2, 199841, Note_on_c, 0, 66, 0
2, 199845, Note_on_c, 0, 66, 94
2, 199899, Note_on_c, 0, 73, 0
2, 199899, Note_on_c, 0, 66, 0
2, 199899, Note_on_c, 0, 56, 0
2, 199900, Note_on_c, 0, 71, 0
2, 199900, Note_on_c, 0, 63, 0
2, 199902, Control_c, 0, 64, 0
2, 199902, Note_on_c, 0, 32, 0
2, 199918, Note_on_c, 0, 44, 0
2, 199918, Note_on_c, 0, 68, 0
2, 199923, Note_on_c, 0, 68, 99
2, 199925, Note_on_c, 0, 69, 0
2, 199927, Note_on_c, 0, 49, 105
2, 199928, Note_on_c, 0, 37, 98
2, 199987, Control_c, 0, 64, 127
2, 200024, Note_on_c, 0, 61, 100
2, 200119, Note_on_c, 0, 63, 96
2, 200196, Note_on_c, 0, 64, 96
2, 200286, Note_on_c, 0, 49, 0
2, 200287, Control_c, 0, 64, 0
2, 200288, Note_on_c, 0, 56, 99
2, 200291, Note_on_c, 0, 66, 94
2, 200293, Note_on_c, 0, 49, 92
2, 200297, Note_on_c, 0, 52, 95
2, 200309, Control_c, 0, 64, 127
2, 200355, Note_on_c, 0, 68, 0
2, 200365, Note_on_c, 0, 68, 101
2, 200453, Note_on_c, 0, 69, 99
2, 200555, Note_on_c, 0, 71, 97
2, 200644, Note_on_c, 0, 49, 0
2, 200644, Note_on_c, 0, 37, 0
2, 200645, Note_on_c, 0, 68, 0
2, 200645, Note_on_c, 0, 52, 0
2, 200646, Note_on_c, 0, 56, 0
2, 200646, Note_on_c, 0, 69, 0
2, 200648, Note_on_c, 0, 63, 0
2, 200648, Note_on_c, 0, 71, 0
2, 200650, Control_c, 0, 64, 0
2, 200655, Note_on_c, 0, 61, 0
2, 200663, Note_on_c, 0, 64, 0
2, 200663, Note_on_c, 0, 66, 0
2, 200668, Note_on_c, 0, 64, 104
2, 200669, Note_on_c, 0, 73, 111
2, 200670, Note_on_c, 0, 61, 107
2, 200670, Note_on_c, 0, 45, 110
2, 200672, Note_on_c, 0, 33, 98
2, 200724, Control_c, 0, 64, 127
2, 200739, Note_on_c, 0, 61, 0
2, 200855, Note_on_c, 0, 73, 0
2, 200858, Note_on_c, 0, 73, 104
2, 200947, Note_on_c, 0, 76, 106
2, 201036, Note_on_c, 0, 85, 108
2, 201139, Note_on_c, 0, 85, 0
2, 201143, Note_on_c, 0, 85, 102
2, 201196, Note_on_c, 0, 57, 102
2, 201219, Note_on_c, 0, 88, 104
2, 201309, Note_on_c, 0, 93, 99
2, 201383, Note_on_c, 0, 75, 106
2, 201384, Note_on_c, 0, 69, 94
2, 201384, Note_on_c, 0, 71, 100
2, 201392, Note_on_c, 0, 63, 107
2, 201394, Note_on_c, 0, 97, 111
2, 201394, Note_on_c, 0, 66, 100
2, 201484, Note_on_c, 0, 93, 0
2, 201491, Note_on_c, 0, 93, 97
2, 201592, Note_on_c, 0, 88, 0
2, 201598, Note_on_c, 0, 88, 96
2, 201661, Note_on_c, 0, 85, 0
2, 201671, Note_on_c, 0, 85, 100
2, 201753, Note_on_c, 0, 45, 0
2, 201753, Note_on_c, 0, 57, 0
2, 201761, Note_on_c, 0, 57, 108
2, 201761, Note_on_c, 0, 85, 0
2, 201762, Note_on_c, 0, 45, 92
2, 201763, Note_on_c, 0, 52, 90
2, 201770, Note_on_c, 0, 85, 98
2, 201866, Note_on_c, 0, 81, 86
2, 201945, Note_on_c, 0, 45, 0
2, 201945, Note_on_c, 0, 76, 0
2, 201950, Note_on_c, 0, 45, 92
2, 201952, Note_on_c, 0, 76, 91
2, 202022, Note_on_c, 0, 73, 0
2, 202027, Note_on_c, 0, 73, 97
2, 202087, Note_on_c, 0, 45, 0
2, 202087, Note_on_c, 0, 93, 0
2, 202088, Note_on_c, 0, 75, 0
2, 202088, Note_on_c, 0, 69, 0
2, 202088, Note_on_c, 0, 97, 0
2, 202088, Note_on_c, 0, 81, 0
2, 202088, Control_c, 0, 64, 0
2, 202088, Note_on_c, 0, 73, 0
2, 202088, Note_on_c, 0, 85, 0
2, 202089, Note_on_c, 0, 57, 0
2, 202089, Note_on_c, 0, 66, 0
2, 202089, Note_on_c, 0, 64, 0
2, 202089, Note_on_c, 0, 88, 0
2, 202089, Note_on_c, 0, 63, 0
2, 202099, Note_on_c, 0, 33, 0
2, 202099, Note_on_c, 0, 52, 0
2, 202114, Note_on_c, 0, 71, 0
2, 202114, Note_on_c, 0, 76, 0
2, 202119, Note_on_c, 0, 76, 108
2, 202122, Note_on_c, 0, 71, 98
2, 202122, Note_on_c, 0, 47, 109
2, 202123, Note_on_c, 0, 64, 107
2, 202125, Note_on_c, 0, 35, 96
2, 202168, Control_c, 0, 64, 127
2, 202314, Note_on_c, 0, 76, 0
2, 202318, Note_on_c, 0, 76, 106
2, 202360, Note_on_c, 0, 64, 0
2, 202394, Note_on_c, 0, 83, 103
2, 202487, Note_on_c, 0, 88, 103
2, 202575, Note_on_c, 0, 88, 0
2, 202580, Note_on_c, 0, 88, 102
2, 202656, Note_on_c, 0, 59, 93
2, 202670, Note_on_c, 0, 90, 108
2, 202758, Note_on_c, 0, 95, 103
2, 202828, Note_on_c, 0, 71, 0
2, 202836, Note_on_c, 0, 66, 106
2, 202837, Note_on_c, 0, 71, 98
2, 202838, Note_on_c, 0, 75, 101
2, 202842, Note_on_c, 0, 100, 114
2, 202846, Note_on_c, 0, 99, 93
2, 202920, Note_on_c, 0, 95, 0
2, 202925, Note_on_c, 0, 95, 107
2, 203028, Note_on_c, 0, 90, 0
2, 203033, Note_on_c, 0, 90, 105
2, 203112, Note_on_c, 0, 88, 0
2, 203118, Note_on_c, 0, 88, 106
2, 203197, Note_on_c, 0, 59, 0
2, 203205, Note_on_c, 0, 88, 0
2, 203208, Note_on_c, 0, 59, 108
2, 203210, Note_on_c, 0, 100, 0
2, 203215, Note_on_c, 0, 54, 102
2, 203215, Note_on_c, 0, 88, 103
2, 203289, Note_on_c, 0, 83, 0
2, 203300, Note_on_c, 0, 83, 81
2, 203366, Note_on_c, 0, 47, 0
2, 203370, Note_on_c, 0, 47, 93
2, 203380, Note_on_c, 0, 78, 96
2, 203458, Note_on_c, 0, 76, 0
2, 203464, Note_on_c, 0, 76, 100
2, 203512, Note_on_c, 0, 83, 0
2, 203512, Note_on_c, 0, 90, 0
2, 203512, Control_c, 0, 64, 0
2, 203512, Note_on_c, 0, 95, 0
2, 203512, Note_on_c, 0, 75, 0
2, 203512, Note_on_c, 0, 71, 0
2, 203513, Note_on_c, 0, 47, 0
2, 203513, Note_on_c, 0, 66, 0
2, 203513, Note_on_c, 0, 99, 0
2, 203513, Note_on_c, 0, 78, 0
2, 203513, Note_on_c, 0, 59, 0
2, 203514, Note_on_c, 0, 76, 0
2, 203527, Note_on_c, 0, 54, 0
2, 203535, Note_on_c, 0, 35, 0
2, 203535, Note_on_c, 0, 88, 0
2, 203560, Note_on_c, 0, 83, 109
2, 203561, Note_on_c, 0, 71, 106
2, 203562, Note_on_c, 0, 49, 104
2, 203562, Note_on_c, 0, 37, 103
2, 203563, Note_on_c, 0, 76, 101
2, 203567, Note_on_c, 0, 78, 101
2, 203596, Control_c, 0, 64, 127
2, 203627, Note_on_c, 0, 37, 0
2, 203750, Note_on_c, 0, 83, 0
2, 203754, Note_on_c, 0, 83, 102
2, 203840, Note_on_c, 0, 88, 108
2, 203941, Note_on_c, 0, 95, 108
2, 204019, Note_on_c, 0, 95, 0
2, 204029, Note_on_c, 0, 95, 96
2, 204102, Note_on_c, 0, 100, 114
2, 204107, Note_on_c, 0, 61, 97
2, 204207, Note_on_c, 0, 102, 111
2, 204272, Note_on_c, 0, 71, 0
2, 204272, Note_on_c, 0, 76, 0
2, 204278, Note_on_c, 0, 76, 109
2, 204280, Note_on_c, 0, 71, 103
2, 204282, Note_on_c, 0, 68, 108
2, 204372, Note_on_c, 0, 102, 0
2, 204382, Note_on_c, 0, 102, 111
2, 204449, Note_on_c, 0, 100, 0
2, 204460, Note_on_c, 0, 100, 115
2, 204526, Note_on_c, 0, 95, 0
2, 204537, Note_on_c, 0, 95, 98
2, 204641, Note_on_c, 0, 95, 0
2, 204645, Note_on_c, 0, 59, 103
2, 204646, Note_on_c, 0, 56, 96
2, 204647, Note_on_c, 0, 95, 102
2, 204723, Note_on_c, 0, 90, 105
2, 204810, Note_on_c, 0, 49, 0
2, 204810, Note_on_c, 0, 88, 0
2, 204814, Note_on_c, 0, 49, 97
2, 204815, Note_on_c, 0, 88, 101
2, 204902, Note_on_c, 0, 83, 0
2, 204909, Note_on_c, 0, 83, 86
2, 204998, Note_on_c, 0, 37, 106
2, 205079, Note_on_c, 0, 83, 0
2, 205089, Note_on_c, 0, 83, 89
2, 205163, Note_on_c, 0, 88, 0
2, 205173, Note_on_c, 0, 88, 104
2, 205248, Note_on_c, 0, 90, 0
2, 205252, Note_on_c, 0, 90, 89
2, 205332, Note_on_c, 0, 95, 0
2, 205341, Note_on_c, 0, 95, 104
2, 205424, Note_on_c, 0, 100, 0
2, 205429, Note_on_c, 0, 100, 113
2, 205440, Note_on_c, 0, 61, 0
2, 205516, Note_on_c, 0, 102, 0
2, 205522, Note_on_c, 0, 102, 112
2, 205608, Note_on_c, 0, 103, 95
2, 205616, Note_on_c, 0, 103, 0
2, 205689, Note_on_c, 0, 81, 107
2, 205693, Note_on_c, 0, 102, 0
2, 205693, Note_on_c, 0, 69, 109
2, 205697, Note_on_c, 0, 102, 110
2, 205777, Note_on_c, 0, 100, 0
2, 205784, Note_on_c, 0, 100, 115
2, 205870, Note_on_c, 0, 95, 0
2, 205875, Note_on_c, 0, 95, 105
2, 205969, Note_on_c, 0, 90, 0
2, 205974, Note_on_c, 0, 90, 104
2, 206054, Note_on_c, 0, 83, 0
2, 206062, Note_on_c, 0, 68, 0
2, 206064, Note_on_c, 0, 80, 104
2, 206065, Note_on_c, 0, 83, 98
2, 206066, Note_on_c, 0, 68, 109
2, 206154, Note_on_c, 0, 88, 0
2, 206159, Note_on_c, 0, 88, 102
2, 206238, Note_on_c, 0, 90, 0
2, 206248, Note_on_c, 0, 90, 108
2, 206323, Note_on_c, 0, 95, 0
2, 206333, Note_on_c, 0, 95, 107
2, 206428, Note_on_c, 0, 25, 99
2, 206634, Note_on_c, 0, 85, 87
2, 206730, Note_on_c, 0, 90, 0
2, 206736, Note_on_c, 0, 90, 100
2, 206827, Note_on_c, 0, 97, 107
2, 206905, Note_on_c, 0, 92, 96
2, 206999, Note_on_c, 0, 90, 0
2, 207002, Note_on_c, 0, 90, 83
2, 207098, Note_on_c, 0, 92, 0
2, 207102, Note_on_c, 0, 92, 79
2, 207160, Note_on_c, 0, 85, 0
2, 207164, Note_on_c, 0, 85, 76
2, 207244, Note_on_c, 0, 92, 0
2, 207252, Note_on_c, 0, 92, 82
2, 207336, Note_on_c, 0, 90, 0
2, 207346, Note_on_c, 0, 90, 83
2, 207429, Note_on_c, 0, 92, 0
2, 207437, Note_on_c, 0, 92, 86
2, 207521, Note_on_c, 0, 97, 0
2, 207532, Note_on_c, 0, 97, 104
2, 207613, Note_on_c, 0, 92, 0
2, 207618, Note_on_c, 0, 92, 87
2, 207713, Note_on_c, 0, 90, 0
2, 207722, Note_on_c, 0, 90, 75
2, 207820, Note_on_c, 0, 92, 0
2, 207825, Note_on_c, 0, 92, 78
2, 207889, Note_on_c, 0, 85, 0
2, 207896, Note_on_c, 0, 85, 76
2, 207982, Note_on_c, 0, 92, 0
2, 207990, Note_on_c, 0, 92, 85
2, 208089, Note_on_c, 0, 90, 0
2, 208098, Note_on_c, 0, 90, 71
2, 208174, Note_on_c, 0, 78, 0
2, 208197, Note_on_c, 0, 92, 0
2, 208200, Note_on_c, 0, 92, 69
2, 208266, Note_on_c, 0, 97, 0
2, 208270, Note_on_c, 0, 97, 101
2, 208343, Note_on_c, 0, 92, 0
2, 208352, Note_on_c, 0, 92, 80
2, 208435, Note_on_c, 0, 90, 0
2, 208440, Note_on_c, 0, 90, 75
2, 208535, Note_on_c, 0, 92, 0
2, 208541, Note_on_c, 0, 92, 67
2, 208596, Note_on_c, 0, 85, 0
2, 208607, Note_on_c, 0, 85, 79
2, 208688, Note_on_c, 0, 92, 0
2, 208699, Note_on_c, 0, 92, 71
2, 208803, Note_on_c, 0, 90, 0
2, 208808, Note_on_c, 0, 90, 63
2, 208888, Note_on_c, 0, 71, 0
2, 208888, Note_on_c, 0, 76, 0
2, 208896, Note_on_c, 0, 92, 0
2, 208904, Note_on_c, 0, 92, 73
2, 208972, Note_on_c, 0, 97, 0
2, 208983, Note_on_c, 0, 97, 103
2, 209072, Note_on_c, 0, 92, 0
2, 209079, Note_on_c, 0, 92, 70
2, 209141, Note_on_c, 0, 90, 0
2, 209149, Note_on_c, 0, 90, 74
2, 209241, Note_on_c, 0, 92, 0
2, 209252, Note_on_c, 0, 92, 81
2, 209256, Note_on_c, 0, 56, 0
2, 209256, Note_on_c, 0, 59, 0
2, 209280, Note_on_c, 0, 25, 0
2, 209280, Note_on_c, 0, 37, 0
2, 209280, Note_on_c, 0, 49, 0
2, 209280, Note_on_c, 0, 68, 0
2, 209280, Note_on_c, 0, 69, 0
2, 209280, Note_on_c, 0, 80, 0
2, 209280, Note_on_c, 0, 81, 0
2, 209280, Note_on_c, 0, 83, 0
2, 209280, Note_on_c, 0, 95, 0
2, 209280, Note_on_c, 0, 100, 0
2, 209280, Note_on_c, 0, 102, 0
2, 209328, Note_on_c, 0, 73, 86
2, 209344, Note_on_c, 0, 87, 75
2, 209430, Note_on_c, 0, 93, 75
2, 209430, Note_on_c, 0, 81, 75
2, 209525, Note_on_c, 0, 92, 0
2, 209529, Note_on_c, 0, 92, 79
2, 209530, Note_on_c, 0, 80, 70
2, 209602, Note_on_c, 0, 81, 0
2, 209602, Note_on_c, 0, 93, 0
2, 209606, Note_on_c, 0, 93, 82
2, 209612, Note_on_c, 0, 81, 79
2, 209698, Note_on_c, 0, 99, 100
2, 209722, Note_on_c, 0, 83, 59
2, 209786, Note_on_c, 0, 81, 0
2, 209786, Note_on_c, 0, 93, 0
2, 209791, Note_on_c, 0, 81, 70
2, 209794, Note_on_c, 0, 93, 69
2, 209863, Note_on_c, 0, 80, 0
2, 209863, Note_on_c, 0, 92, 0
2, 209875, Note_on_c, 0, 92, 79
2, 209875, Note_on_c, 0, 80, 76
2, 209963, Note_on_c, 0, 81, 0
2, 209963, Note_on_c, 0, 93, 0
2, 209969, Note_on_c, 0, 93, 77
2, 209969, Note_on_c, 0, 81, 80
2, 210048, Note_on_c, 0, 87, 0
2, 210055, Note_on_c, 0, 87, 79
2, 210055, Note_on_c, 0, 73, 0
2, 210065, Note_on_c, 0, 73, 83
2, 210140, Note_on_c, 0, 81, 0
2, 210140, Note_on_c, 0, 93, 0
2, 210144, Note_on_c, 0, 93, 74
2, 210144, Note_on_c, 0, 81, 69
2, 210224, Note_on_c, 0, 80, 0
2, 210232, Note_on_c, 0, 92, 0
2, 210236, Note_on_c, 0, 80, 68
2, 210236, Note_on_c, 0, 92, 75
2, 210316, Note_on_c, 0, 81, 0
2, 210316, Note_on_c, 0, 93, 0
2, 210326, Note_on_c, 0, 93, 81
2, 210327, Note_on_c, 0, 81, 90
2, 210408, Note_on_c, 0, 83, 0
2, 210408, Note_on_c, 0, 99, 0
2, 210416, Note_on_c, 0, 83, 83
2, 210420, Note_on_c, 0, 99, 106
2, 210485, Note_on_c, 0, 81, 0
2, 210493, Note_on_c, 0, 93, 0
2, 210496, Note_on_c, 0, 81, 74
2, 210498, Note_on_c, 0, 93, 80
2, 210577, Note_on_c, 0, 80, 0
2, 210577, Note_on_c, 0, 92, 0
2, 210584, Note_on_c, 0, 80, 80
2, 210587, Note_on_c, 0, 92, 86
2, 210662, Note_on_c, 0, 81, 0
2, 210666, Note_on_c, 0, 81, 80
2, 210670, Note_on_c, 0, 93, 0
2, 210681, Note_on_c, 0, 93, 83
2, 210754, Note_on_c, 0, 73, 0
2, 210762, Note_on_c, 0, 87, 0
2, 210766, Note_on_c, 0, 73, 83
2, 210768, Note_on_c, 0, 87, 85
2, 210769, Note_on_c, 0, 88, 0
2, 210777, Note_on_c, 0, 85, 0
2, 210783, Note_on_c, 0, 85, 67
2, 210854, Note_on_c, 0, 81, 0
2, 210854, Note_on_c, 0, 93, 0
2, 210860, Note_on_c, 0, 93, 75
2, 210862, Note_on_c, 0, 81, 78
2, 210938, Note_on_c, 0, 80, 0
2, 210938, Note_on_c, 0, 92, 0
2, 210948, Note_on_c, 0, 80, 77
2, 210949, Note_on_c, 0, 92, 83
2, 211023, Note_on_c, 0, 93, 0
2, 211031, Note_on_c, 0, 81, 0
2, 211034, Note_on_c, 0, 93, 81
2, 211035, Note_on_c, 0, 81, 74
2, 211107, Note_on_c, 0, 99, 0
2, 211115, Note_on_c, 0, 83, 0
2, 211118, Note_on_c, 0, 99, 109
2, 211126, Note_on_c, 0, 83, 79
2, 211207, Note_on_c, 0, 81, 0
2, 211207, Note_on_c, 0, 93, 0
2, 211213, Note_on_c, 0, 81, 79
2, 211213, Note_on_c, 0, 93, 85
2, 211284, Note_on_c, 0, 80, 0
2, 211284, Note_on_c, 0, 92, 0
2, 211291, Note_on_c, 0, 92, 89
2, 211293, Note_on_c, 0, 80, 84
2, 211384, Note_on_c, 0, 81, 0
2, 211384, Note_on_c, 0, 93, 0
2, 211388, Note_on_c, 0, 81, 83
2, 211389, Note_on_c, 0, 93, 75
2, 211468, Note_on_c, 0, 73, 0
2, 211468, Note_on_c, 0, 87, 0
2, 211473, Note_on_c, 0, 73, 83
2, 211476, Note_on_c, 0, 85, 0
2, 211479, Note_on_c, 0, 87, 83
2, 211487, Note_on_c, 0, 85, 72
2, 211553, Note_on_c, 0, 81, 0
2, 211553, Note_on_c, 0, 93, 0
2, 211563, Note_on_c, 0, 93, 86
2, 211564, Note_on_c, 0, 81, 76
2, 211645, Note_on_c, 0, 80, 0
2, 211645, Note_on_c, 0, 92, 0
2, 211655, Note_on_c, 0, 80, 83
2, 211656, Note_on_c, 0, 92, 85
2, 211729, Note_on_c, 0, 81, 0
2, 211729, Note_on_c, 0, 93, 0
2, 211734, Note_on_c, 0, 93, 84
2, 211735, Note_on_c, 0, 81, 74
2, 211806, Note_on_c, 0, 83, 0
2, 211814, Note_on_c, 0, 99, 0
2, 211818, Note_on_c, 0, 83, 86
2, 211819, Note_on_c, 0, 99, 105
2, 211898, Note_on_c, 0, 81, 0
2, 211898, Note_on_c, 0, 93, 0
2, 211903, Note_on_c, 0, 93, 84
2, 211905, Note_on_c, 0, 81, 74
2, 211975, Note_on_c, 0, 80, 0
2, 211975, Note_on_c, 0, 92, 0
2, 211983, Note_on_c, 0, 80, 89
2, 211984, Note_on_c, 0, 92, 93
2, 212067, Note_on_c, 0, 93, 0
2, 212075, Note_on_c, 0, 81, 0
2, 212078, Note_on_c, 0, 93, 86
2, 212079, Note_on_c, 0, 81, 73
2, 212167, Note_on_c, 0, 73, 0
2, 212173, Note_on_c, 0, 73, 84
2, 212178, Note_on_c, 0, 88, 83
2, 212267, Note_on_c, 0, 97, 0
2, 212276, Note_on_c, 0, 97, 89
2, 212344, Note_on_c, 0, 80, 0
2, 212344, Note_on_c, 0, 92, 0
2, 212354, Note_on_c, 0, 80, 91
2, 212355, Note_on_c, 0, 92, 84
2, 212428, Note_on_c, 0, 97, 0
2, 212435, Note_on_c, 0, 97, 93
2, 212516, Note_on_c, 0, 100, 108
2, 212544, Note_on_c, 0, 85, 0
2, 212548, Note_on_c, 0, 85, 89
2, 212597, Note_on_c, 0, 99, 0
2, 212606, Note_on_c, 0, 99, 97
2, 212697, Note_on_c, 0, 97, 0
2, 212704, Note_on_c, 0, 97, 83
2, 212720, Note_on_c, 0, 80, 0
2, 212724, Note_on_c, 0, 80, 87
2, 212789, Note_on_c, 0, 99, 0
2, 212800, Note_on_c, 0, 99, 98
2, 212897, Note_on_c, 0, 73, 0
2, 212897, Note_on_c, 0, 88, 0
2, 212901, Note_on_c, 0, 88, 80
2, 212904, Note_on_c, 0, 73, 88
2, 212974, Note_on_c, 0, 97, 0
2, 212982, Note_on_c, 0, 97, 89
2, 213073, Note_on_c, 0, 92, 0
2, 213081, Note_on_c, 0, 80, 0
2, 213084, Note_on_c, 0, 92, 82
2, 213087, Note_on_c, 0, 80, 83
2, 213158, Note_on_c, 0, 97, 0
2, 213162, Note_on_c, 0, 97, 84
2, 213235, Note_on_c, 0, 100, 0
2, 213242, Note_on_c, 0, 100, 108
2, 213258, Note_on_c, 0, 85, 0
2, 213267, Note_on_c, 0, 85, 84
2, 213342, Note_on_c, 0, 99, 0
2, 213352, Note_on_c, 0, 99, 88
2, 213427, Note_on_c, 0, 97, 0
2, 213434, Note_on_c, 0, 80, 0
2, 213438, Note_on_c, 0, 97, 85
2, 213438, Note_on_c, 0, 80, 76
2, 213519, Note_on_c, 0, 99, 0
2, 213528, Note_on_c, 0, 99, 93
2, 213603, Note_on_c, 0, 73, 0
2, 213603, Note_on_c, 0, 88, 0
2, 213615, Note_on_c, 0, 73, 80
2, 213615, Note_on_c, 0, 88, 75
2, 213688, Note_on_c, 0, 97, 0
2, 213694, Note_on_c, 0, 97, 95
2, 213757, Note_on_c, 0, 90, 0
2, 213788, Note_on_c, 0, 92, 0
2, 213795, Note_on_c, 0, 80, 0
2, 213799, Note_on_c, 0, 92, 77
2, 213799, Note_on_c, 0, 80, 81
2, 213864, Note_on_c, 0, 97, 0
2, 213875, Note_on_c, 0, 97, 90
2, 213949, Note_on_c, 0, 100, 0
2, 213954, Note_on_c, 0, 100, 102
2, 213957, Note_on_c, 0, 85, 0
2, 213967, Note_on_c, 0, 85, 92
2, 214049, Note_on_c, 0, 99, 0
2, 214053, Note_on_c, 0, 99, 92
2, 214141, Note_on_c, 0, 80, 0
2, 214141, Note_on_c, 0, 97, 0
2, 214149, Note_on_c, 0, 80, 83
2, 214152, Note_on_c, 0, 97, 85
2, 214233, Note_on_c, 0, 99, 0
2, 214245, Note_on_c, 0, 99, 86
2, 214318, Note_on_c, 0, 73, 0
2, 214318, Note_on_c, 0, 88, 0
2, 214328, Note_on_c, 0, 73, 77
2, 214328, Note_on_c, 0, 88, 77
2, 214402, Note_on_c, 0, 97, 0
2, 214406, Note_on_c, 0, 97, 99
2, 214502, Note_on_c, 0, 80, 0
2, 214502, Note_on_c, 0, 92, 0
2, 214506, Note_on_c, 0, 80, 84
2, 214507, Note_on_c, 0, 92, 91
2, 214579, Note_on_c, 0, 97, 0
2, 214584, Note_on_c, 0, 97, 101
2, 214663, Note_on_c, 0, 100, 0
2, 214669, Note_on_c, 0, 100, 107
2, 214671, Note_on_c, 0, 85, 0
2, 214676, Note_on_c, 0, 85, 89
2, 214748, Note_on_c, 0, 99, 0
2, 214752, Note_on_c, 0, 99, 99
2, 214848, Note_on_c, 0, 80, 0
2, 214848, Note_on_c, 0, 97, 0
2, 214852, Note_on_c, 0, 80, 82
2, 214852, Note_on_c, 0, 97, 101
2, 214924, Note_on_c, 0, 99, 0
2, 214929, Note_on_c, 0, 99, 96
2, 215009, Note_on_c, 0, 73, 0
2, 215009, Note_on_c, 0, 80, 0
2, 215009, Note_on_c, 0, 85, 0
2, 215009, Note_on_c, 0, 92, 0
2, 215009, Note_on_c, 0, 97, 0
2, 215013, Note_on_c, 0, 80, 96
2, 215016, Note_on_c, 0, 85, 91
2, 215017, Note_on_c, 0, 97, 88
2, 215018, Note_on_c, 0, 73, 83
2, 215018, Note_on_c, 0, 92, 92
2, 215041, Note_on_c, 0, 104, 106
2, 215118, Note_on_c, 0, 103, 82
2, 215224, Note_on_c, 0, 104, 0
2, 215228, Note_on_c, 0, 104, 91
2, 215301, Note_on_c, 0, 103, 0
2, 215311, Note_on_c, 0, 103, 69
2, 215400, Note_on_c, 0, 104, 0
2, 215411, Note_on_c, 0, 104, 86
2, 215485, Note_on_c, 0, 104, 0
2, 215493, Note_on_c, 0, 103, 0
2, 215496, Note_on_c, 0, 104, 79
2, 215496, Note_on_c, 0, 103, 65
2, 215569, Note_on_c, 0, 104, 0
2, 215579, Note_on_c, 0, 104, 87
2, 215646, Note_on_c, 0, 104, 0
2, 215654, Note_on_c, 0, 103, 0
2, 215658, Note_on_c, 0, 104, 80
2, 215658, Note_on_c, 0, 103, 69
2, 215746, Note_on_c, 0, 85, 0
2, 215746, Note_on_c, 0, 92, 0
2, 215754, Note_on_c, 0, 88, 0
2, 215754, Note_on_c, 0, 97, 0
2, 215757, Note_on_c, 0, 85, 64
2, 215757, Note_on_c, 0, 92, 97
2, 215758, Note_on_c, 0, 97, 68
2, 215758, Note_on_c, 0, 88, 74
2, 215759, Note_on_c, 0, 76, 46
2, 215838, Note_on_c, 0, 104, 0
2, 215849, Note_on_c, 0, 104, 79
2, 215930, Note_on_c, 0, 104, 0
2, 215935, Note_on_c, 0, 104, 89
2, 216015, Note_on_c, 0, 104, 0
2, 216022, Note_on_c, 0, 104, 83
2, 216084, Note_on_c, 0, 87, 0
2, 216107, Note_on_c, 0, 104, 0
2, 216117, Note_on_c, 0, 104, 93
2, 216207, Note_on_c, 0, 104, 0
2, 216213, Note_on_c, 0, 104, 77
2, 216307, Note_on_c, 0, 104, 0
2, 216311, Note_on_c, 0, 104, 87
2, 216384, Note_on_c, 0, 104, 0
2, 216394, Note_on_c, 0, 104, 81
2, 216422, Note_on_c, 0, 83, 0
2, 216483, Note_on_c, 0, 73, 0
2, 216491, Note_on_c, 0, 80, 0
2, 216495, Note_on_c, 0, 73, 77
2, 216502, Note_on_c, 0, 80, 70
2, 216568, Note_on_c, 0, 103, 0
2, 216573, Note_on_c, 0, 103, 66
2, 216652, Note_on_c, 0, 104, 0
2, 216662, Note_on_c, 0, 104, 90
2, 216683, Note_on_c, 0, 93, 0
2, 216691, Note_on_c, 0, 81, 0
2, 216737, Note_on_c, 0, 103, 0
2, 216737, Note_on_c, 0, 104, 0
2, 216742, Note_on_c, 0, 104, 83
2, 216744, Note_on_c, 0, 103, 70
2, 216821, Note_on_c, 0, 104, 0
2, 216831, Note_on_c, 0, 104, 97
2, 216936, Note_on_c, 0, 103, 0
2, 216944, Note_on_c, 0, 103, 69
2, 216960, Note_on_c, 0, 76, 0
2, 216960, Note_on_c, 0, 99, 0
2, 216960, Note_on_c, 0, 100, 0
2, 217013, Note_on_c, 0, 104, 0
2, 217021, Note_on_c, 0, 104, 90
2, 217098, Note_on_c, 0, 103, 0
2, 217104, Note_on_c, 0, 103, 70
2, 217182, Note_on_c, 0, 88, 0
2, 217190, Note_on_c, 0, 85, 0
2, 217190, Note_on_c, 0, 92, 0
2, 217190, Note_on_c, 0, 104, 0
2, 217193, Note_on_c, 0, 88, 74
2, 217194, Note_on_c, 0, 85, 60
2, 217197, Note_on_c, 0, 92, 96
2, 217201, Note_on_c, 0, 104, 100
2, 217290, Note_on_c, 0, 104, 0
2, 217297, Note_on_c, 0, 104, 89
2, 217390, Note_on_c, 0, 104, 0
2, 217394, Note_on_c, 0, 104, 102
2, 217466, Note_on_c, 0, 103, 0
2, 217475, Note_on_c, 0, 103, 80
2, 217564, Note_on_c, 0, 102, 103
2, 217651, Note_on_c, 0, 104, 0
2, 217656, Note_on_c, 0, 104, 107
2, 217712, Note_on_c, 0, 103, 0
2, 217712, Note_on_c, 0, 104, 0
2, 217722, Note_on_c, 0, 104, 99
2, 217723, Note_on_c, 0, 103, 86
2, 217912, Note_on_c, 0, 85, 0
2, 217912, Note_on_c, 0, 92, 0
2, 217920, Note_on_c, 0, 88, 0
2, 217920, Note_on_c, 0, 97, 0
2, 217921, Note_on_c, 0, 92, 87
2, 217922, Note_on_c, 0, 85, 92
2, 217924, Note_on_c, 0, 97, 102
2, 217928, Note_on_c, 0, 88, 80
2, 220800, Note_on_c, 0, 73, 0
2, 220800, Note_on_c, 0, 80, 0
2, 220800, Note_on_c, 0, 85, 0
2, 220800, Note_on_c, 0, 88, 0
2, 220800, Note_on_c, 0, 92, 0
2, 220800, Note_on_c, 0, 97, 0
2, 220800, Note_on_c, 0, 102, 0
2, 220800, Note_on_c, 0, 103, 0
2, 220800, Note_on_c, 0, 104, 0
2, 222704, Control_c, 0, 64, 0
2, 224640, Control_c, 0, 64, 127
2, 225262, Control_c, 0, 64, 0
2, 225263, End_track
0, 0, End_of_file
