0, 0, Header, 1, 2, 384
1, 0, Start_track
1, 0, Tempo, 500000
1, 0, Time_signature, 4, 2, 24, 8
1, 1, End_track
2, 0, Start_track
2, 1772, Note_on_c, 0, 57, 70
2, 1804, Control_c, 0, 64, 127
2, 1897, Note_on_c, 0, 64, 71
2, 2023, Note_on_c, 0, 71, 71
2, 2024, Note_on_c, 0, 76, 80
2, 2142, Note_on_c, 0, 71, 0
2, 2146, Note_on_c, 0, 73, 69
2, 2154, Note_on_c, 0, 71, 50
2, 2296, Note_on_c, 0, 76, 0
2, 2298, Note_on_c, 0, 83, 87
2, 2300, Note_on_c, 0, 76, 75
2, 2570, Note_on_c, 0, 80, 78
2, 2696, Note_on_c, 0, 81, 85
2, 2711, Note_on_c, 0, 73, 0
2, 2718, Note_on_c, 0, 76, 0
2, 2722, Note_on_c, 0, 73, 65
2, 2722, Note_on_c, 0, 76, 67
2, 2786, Control_c, 0, 64, 0
2, 2788, Note_on_c, 0, 71, 0
2, 2788, Note_on_c, 0, 57, 0
2, 2789, Note_on_c, 0, 83, 0
2, 2789, Note_on_c, 0, 64, 0
2, 2789, Note_on_c, 0, 80, 0
2, 2827, Note_on_c, 0, 61, 69
2, 2903, Control_c, 0, 64, 127
2, 2964, Note_on_c, 0, 69, 65
2, 3098, Note_on_c, 0, 71, 61
2, 3233, Note_on_c, 0, 76, 0
2, 3238, Note_on_c, 0, 76, 69
2, 3502, Note_on_c, 0, 81, 0
2, 3506, Note_on_c, 0, 81, 83
2, 3628, Note_on_c, 0, 80, 82
2, 3732, Note_on_c, 0, 81, 0
2, 3743, Note_on_c, 0, 81, 83
2, 3878, Note_on_c, 0, 80, 0
2, 3883, Control_c, 0, 64, 0
2, 3885, Note_on_c, 0, 80, 80
2, 3888, Note_on_c, 0, 71, 0
2, 3888, Note_on_c, 0, 61, 0
2, 3889, Note_on_c, 0, 81, 0
2, 3893, Note_on_c, 0, 73, 0
2, 3901, Note_on_c, 0, 76, 0
2, 3909, Note_on_c, 0, 69, 0
2, 3910, Note_on_c, 0, 76, 65
2, 3913, Note_on_c, 0, 69, 56
2, 3913, Note_on_c, 0, 62, 52
2, 3919, Note_on_c, 0, 73, 56
2, 4173, Note_on_c, 0, 78, 77
2, 4300, Note_on_c, 0, 76, 0
2, 4305, Note_on_c, 0, 76, 76
2, 4339, Control_c, 0, 64, 127
2, 4569, Note_on_c, 0, 62, 0
2, 4579, Note_on_c, 0, 62, 58
2, 4692, Note_on_c, 0, 69, 0
2, 4703, Note_on_c, 0, 69, 61
2, 4984, Note_on_c, 0, 80, 0
2, 4993, Note_on_c, 0, 80, 80
2, 4994, Control_c, 0, 64, 0
2, 4999, Note_on_c, 0, 76, 0
2, 5000, Note_on_c, 0, 69, 0
2, 5002, Note_on_c, 0, 78, 0
2, 5003, Note_on_c, 0, 64, 62
2, 5009, Note_on_c, 0, 76, 69
2, 5012, Note_on_c, 0, 68, 65
2, 5015, Note_on_c, 0, 62, 0
2, 5091, Note_on_c, 0, 73, 0
2, 5091, Control_c, 0, 64, 127
2, 5122, Note_on_c, 0, 52, 76
2, 5248, Note_on_c, 0, 59, 78
2, 5358, Note_on_c, 0, 66, 74
2, 5495, Control_c, 0, 64, 0
2, 5495, Note_on_c, 0, 52, 0
2, 5495, Note_on_c, 0, 64, 0
2, 5496, Note_on_c, 0, 76, 0
2, 5496, Note_on_c, 0, 59, 0
2, 5496, Note_on_c, 0, 66, 0
2, 5509, Note_on_c, 0, 83, 91
2, 5513, Note_on_c, 0, 77, 76
2, 5514, Note_on_c, 0, 68, 0
2, 5517, Note_on_c, 0, 61, 72
2, 5519, Note_on_c, 0, 68, 75
2, 5520, Note_on_c, 0, 53, 71
2, 5522, Note_on_c, 0, 71, 69
2, 5583, Control_c, 0, 64, 127
2, 5774, Note_on_c, 0, 49, 79
2, 5986, Note_on_c, 0, 69, 66
2, 6009, Control_c, 0, 64, 0
2, 6013, Note_on_c, 0, 53, 0
2, 6014, Note_on_c, 0, 61, 0
2, 6015, Note_on_c, 0, 77, 0
2, 6015, Note_on_c, 0, 49, 0
2, 6015, Note_on_c, 0, 68, 0
2, 6016, Note_on_c, 0, 83, 0
2, 6017, Note_on_c, 0, 71, 0
2, 6018, Note_on_c, 0, 73, 78
2, 6021, Note_on_c, 0, 80, 0
2, 6041, Note_on_c, 0, 76, 75
2, 6048, Note_on_c, 0, 54, 72
2, 6050, Note_on_c, 0, 81, 91
2, 6120, Control_c, 0, 64, 127
2, 6168, Note_on_c, 0, 61, 74
2, 6303, Note_on_c, 0, 68, 75
2, 6443, Note_on_c, 0, 69, 0
2, 6451, Note_on_c, 0, 69, 75
2, 6696, Note_on_c, 0, 81, 0
2, 6704, Note_on_c, 0, 81, 86
2, 6706, Note_on_c, 0, 64, 72
2, 6720, Note_on_c, 0, 76, 0
2, 6729, Note_on_c, 0, 76, 53
2, 6829, Note_on_c, 0, 80, 83
2, 6935, Note_on_c, 0, 81, 0
2, 6944, Note_on_c, 0, 81, 89
2, 6950, Note_on_c, 0, 61, 0
2, 6958, Note_on_c, 0, 61, 68
2, 7034, Note_on_c, 0, 54, 0
2, 7047, Control_c, 0, 64, 0
2, 7048, Note_on_c, 0, 68, 0
2, 7048, Note_on_c, 0, 69, 0
2, 7049, Note_on_c, 0, 73, 0
2, 7049, Note_on_c, 0, 61, 0
2, 7049, Note_on_c, 0, 76, 0
2, 7049, Note_on_c, 0, 64, 0
2, 7050, Note_on_c, 0, 81, 0
2, 7080, Note_on_c, 0, 80, 0
2, 7091, Note_on_c, 0, 80, 92
2, 7093, Note_on_c, 0, 52, 78
2, 7099, Note_on_c, 0, 71, 78
2, 7099, Note_on_c, 0, 76, 79
2, 7157, Control_c, 0, 64, 127
2, 7231, Note_on_c, 0, 59, 76
2, 7351, Note_on_c, 0, 81, 86
2, 7353, Note_on_c, 0, 66, 73
2, 7472, Note_on_c, 0, 80, 0
2, 7482, Note_on_c, 0, 80, 87
2, 7483, Note_on_c, 0, 68, 83
2, 7488, Note_on_c, 0, 71, 0
2, 7496, Note_on_c, 0, 71, 68
2, 7741, Note_on_c, 0, 76, 0
2, 7752, Note_on_c, 0, 76, 80
2, 7795, Note_on_c, 0, 68, 0
2, 7800, Note_on_c, 0, 68, 18
2, 7879, Note_on_c, 0, 59, 0
2, 7883, Note_on_c, 0, 59, 69
2, 8017, Note_on_c, 0, 76, 0
2, 8021, Note_on_c, 0, 76, 74
2, 8114, Note_on_c, 0, 68, 0
2, 8114, Note_on_c, 0, 52, 0
2, 8114, Note_on_c, 0, 71, 0
2, 8114, Note_on_c, 0, 80, 0
2, 8115, Note_on_c, 0, 81, 0
2, 8115, Control_c, 0, 64, 0
2, 8116, Note_on_c, 0, 59, 0
2, 8117, Note_on_c, 0, 76, 0
2, 8133, Note_on_c, 0, 66, 0
2, 8143, Note_on_c, 0, 73, 79
2, 8144, Note_on_c, 0, 69, 65
2, 8159, Note_on_c, 0, 51, 73
2, 8167, Note_on_c, 0, 78, 85
2, 8225, Control_c, 0, 64, 127
2, 8278, Note_on_c, 0, 57, 69
2, 8412, Note_on_c, 0, 61, 74
2, 8540, Note_on_c, 0, 73, 0
2, 8540, Note_on_c, 0, 78, 0
2, 8544, Note_on_c, 0, 85, 87
2, 8546, Note_on_c, 0, 66, 81
2, 8550, Note_on_c, 0, 73, 77
2, 8551, Note_on_c, 0, 78, 76
2, 8663, Note_on_c, 0, 85, 0
2, 8670, Note_on_c, 0, 78, 0
2, 8671, Note_on_c, 0, 85, 91
2, 8678, Note_on_c, 0, 73, 0
2, 8680, Note_on_c, 0, 78, 76
2, 8683, Note_on_c, 0, 73, 73
2, 8811, Note_on_c, 0, 81, 83
2, 8916, Note_on_c, 0, 78, 0
2, 8927, Note_on_c, 0, 78, 83
2, 9039, Note_on_c, 0, 73, 0
2, 9045, Note_on_c, 0, 73, 81
2, 9179, Note_on_c, 0, 61, 0
2, 9179, Note_on_c, 0, 51, 0
2, 9179, Note_on_c, 0, 66, 0
2, 9180, Note_on_c, 0, 81, 0
2, 9180, Note_on_c, 0, 78, 0
2, 9180, Note_on_c, 0, 57, 0
2, 9181, Note_on_c, 0, 73, 0
2, 9181, Note_on_c, 0, 85, 0
2, 9181, Control_c, 0, 64, 0
2, 9200, Note_on_c, 0, 69, 0
2, 9211, Note_on_c, 0, 69, 76
2, 9218, Note_on_c, 0, 66, 74
2, 9219, Note_on_c, 0, 62, 62
2, 9228, Note_on_c, 0, 52, 49
2, 9231, Note_on_c, 0, 57, 55
2, 9423, Control_c, 0, 64, 127
2, 9947, Note_on_c, 0, 40, 52
2, 10098, Note_on_c, 0, 47, 65
2, 10228, Note_on_c, 0, 50, 72
2, 10360, Note_on_c, 0, 57, 0
2, 10369, Note_on_c, 0, 57, 64
2, 10480, Note_on_c, 0, 54, 69
2, 10613, Note_on_c, 0, 62, 0
2, 10620, Note_on_c, 0, 62, 78
2, 10736, Note_on_c, 0, 66, 0
2, 10746, Note_on_c, 0, 66, 73
2, 10874, Note_on_c, 0, 69, 0
2, 10883, Note_on_c, 0, 69, 72
2, 11018, Note_on_c, 0, 74, 71
2, 11172, Note_on_c, 0, 78, 71
2, 11325, Note_on_c, 0, 81, 64
2, 11328, Note_on_c, 0, 40, 0
2, 11333, Note_on_c, 0, 40, 54
2, 11458, Note_on_c, 0, 47, 0
2, 11468, Note_on_c, 0, 47, 68
2, 11517, Note_on_c, 0, 78, 0
2, 11518, Note_on_c, 0, 74, 0
2, 11518, Note_on_c, 0, 54, 0
2, 11520, Note_on_c, 0, 66, 0
2, 11520, Note_on_c, 0, 57, 0
2, 11520, Note_on_c, 0, 69, 0
2, 11520, Note_on_c, 0, 62, 0
2, 11520, Note_on_c, 0, 50, 0
2, 11521, Control_c, 0, 64, 0
2, 11522, Note_on_c, 0, 52, 0
2, 11553, Note_on_c, 0, 76, 56
2, 11555, Note_on_c, 0, 80, 60
2, 11602, Note_on_c, 0, 88, 80
2, 11788, Note_on_c, 0, 81, 0
2, 12111, Control_c, 0, 64, 127
2, 14043, Note_on_c, 0, 38, 51
2, 14101, Note_on_c, 0, 45, 52
2, 14130, Control_c, 0, 64, 0
2, 14138, Control_c, 0, 64, 127
2, 14150, Note_on_c, 0, 57, 63
2, 14157, Note_on_c, 0, 64, 77
2, 14158, Note_on_c, 0, 61, 59
2, 14158, Note_on_c, 0, 54, 57
2, 14238, Note_on_c, 0, 80, 0
2, 14254, Note_on_c, 0, 47, 0
2, 14254, Note_on_c, 0, 76, 0
2, 14261, Note_on_c, 0, 88, 0
2, 14284, Note_on_c, 0, 40, 0
2, 14405, Note_on_c, 0, 66, 75
2, 14530, Note_on_c, 0, 64, 0
2, 14536, Note_on_c, 0, 64, 81
2, 14937, Note_on_c, 0, 66, 0
2, 14948, Note_on_c, 0, 66, 78
2, 15060, Note_on_c, 0, 64, 0
2, 15065, Note_on_c, 0, 64, 76
2, 15091, Note_on_c, 0, 56, 60
2, 15091, Note_on_c, 0, 59, 67
2, 15179, Note_on_c, 0, 66, 0
2, 15179, Note_on_c, 0, 45, 0
2, 15180, Note_on_c, 0, 38, 0
2, 15180, Note_on_c, 0, 57, 0
2, 15183, Note_on_c, 0, 61, 0
2, 15187, Control_c, 0, 64, 0
2, 15191, Note_on_c, 0, 54, 0
2, 15219, Note_on_c, 0, 40, 55
2, 15219, Note_on_c, 0, 52, 59
2, 15223, Note_on_c, 0, 47, 56
2, 15306, Control_c, 0, 64, 127
2, 15470, Note_on_c, 0, 61, 79
2, 15666, Control_c, 0, 64, 0
2, 15713, Control_c, 0, 64, 127
2, 15720, Note_on_c, 0, 59, 0
2, 15728, Note_on_c, 0, 59, 73
2, 15997, Note_on_c, 0, 57, 71
2, 16239, Control_c, 0, 64, 0
2, 16241, Note_on_c, 0, 47, 0
2, 16242, Note_on_c, 0, 57, 0
2, 16243, Note_on_c, 0, 59, 0
2, 16250, Note_on_c, 0, 40, 0
2, 16250, Note_on_c, 0, 61, 0
2, 16250, Note_on_c, 0, 64, 0
2, 16254, Note_on_c, 0, 59, 80
2, 16258, Note_on_c, 0, 52, 0
2, 16258, Note_on_c, 0, 56, 0
2, 16259, Note_on_c, 0, 40, 50
2, 16263, Note_on_c, 0, 52, 54
2, 16263, Note_on_c, 0, 56, 63
2, 16266, Note_on_c, 0, 49, 49
2, 16366, Control_c, 0, 64, 127
2, 16506, Note_on_c, 0, 61, 74
2, 16586, Control_c, 0, 64, 0
2, 16587, Note_on_c, 0, 59, 0
2, 16587, Note_on_c, 0, 56, 0
2, 16627, Note_on_c, 0, 61, 0
2, 16635, Note_on_c, 0, 61, 72
2, 16649, Note_on_c, 0, 57, 64
2, 16688, Control_c, 0, 64, 127
2, 16915, Note_on_c, 0, 54, 54
2, 16926, Note_on_c, 0, 52, 0
2, 17034, Note_on_c, 0, 61, 0
2, 17043, Note_on_c, 0, 61, 73
2, 17052, Note_on_c, 0, 64, 69
2, 17167, Note_on_c, 0, 69, 72
2, 17430, Note_on_c, 0, 81, 83
2, 17453, Note_on_c, 0, 73, 59
2, 17559, Note_on_c, 0, 80, 77
2, 17680, Note_on_c, 0, 76, 79
2, 17802, Note_on_c, 0, 57, 0
2, 17806, Note_on_c, 0, 57, 72
2, 17809, Note_on_c, 0, 64, 0
2, 17820, Note_on_c, 0, 64, 84
2, 17836, Control_c, 0, 64, 0
2, 17848, Control_c, 0, 64, 127
2, 17938, Note_on_c, 0, 62, 83
2, 17940, Note_on_c, 0, 49, 0
2, 18048, Note_on_c, 0, 40, 0
2, 18055, Note_on_c, 0, 61, 0
2, 18063, Note_on_c, 0, 61, 78
2, 18091, Note_on_c, 0, 42, 62
2, 18193, Note_on_c, 0, 61, 0
2, 18202, Note_on_c, 0, 61, 77
2, 18209, Note_on_c, 0, 54, 0
2, 18219, Note_on_c, 0, 54, 58
2, 18224, Note_on_c, 0, 57, 0
2, 18230, Note_on_c, 0, 57, 56
2, 18316, Control_c, 0, 64, 0
2, 18316, Note_on_c, 0, 64, 0
2, 18318, Note_on_c, 0, 62, 0
2, 18318, Note_on_c, 0, 69, 0
2, 18320, Note_on_c, 0, 73, 0
2, 18324, Note_on_c, 0, 80, 0
2, 18332, Note_on_c, 0, 76, 0
2, 18332, Note_on_c, 0, 81, 0
2, 18341, Note_on_c, 0, 35, 61
2, 18462, Note_on_c, 0, 57, 0
2, 18470, Note_on_c, 0, 57, 38
2, 18570, Note_on_c, 0, 61, 0
2, 18596, Note_on_c, 0, 62, 85
2, 18731, Note_on_c, 0, 57, 0
2, 18736, Note_on_c, 0, 57, 78
2, 18736, Note_on_c, 0, 50, 59
2, 18764, Note_on_c, 0, 62, 0
2, 18969, Control_c, 0, 64, 127
2, 19010, Note_on_c, 0, 62, 86
2, 19123, Note_on_c, 0, 42, 0
2, 19132, Note_on_c, 0, 42, 66
2, 19279, Note_on_c, 0, 61, 88
2, 19308, Note_on_c, 0, 53, 51
2, 19311, Note_on_c, 0, 56, 64
2, 19329, Note_on_c, 0, 50, 0
2, 19330, Note_on_c, 0, 42, 0
2, 19331, Note_on_c, 0, 62, 0
2, 19334, Control_c, 0, 64, 0
2, 19338, Note_on_c, 0, 54, 0
2, 19345, Note_on_c, 0, 35, 0
2, 19345, Note_on_c, 0, 57, 0
2, 19409, Note_on_c, 0, 37, 66
2, 19491, Control_c, 0, 64, 127
2, 19530, Note_on_c, 0, 44, 67
2, 19656, Note_on_c, 0, 57, 75
2, 19729, Control_c, 0, 64, 0
2, 19732, Note_on_c, 0, 37, 0
2, 19732, Note_on_c, 0, 44, 0
2, 19733, Note_on_c, 0, 53, 0
2, 19733, Note_on_c, 0, 61, 0
2, 19734, Note_on_c, 0, 57, 0
2, 19768, Note_on_c, 0, 56, 0
2, 19772, Note_on_c, 0, 56, 85
2, 19787, Note_on_c, 0, 54, 76
2, 19790, Note_on_c, 0, 39, 63
2, 19830, Note_on_c, 0, 54, 0
2, 19838, Note_on_c, 0, 56, 0
2, 19844, Note_on_c, 0, 39, 0
2, 20046, Note_on_c, 0, 57, 79
2, 20053, Note_on_c, 0, 41, 67
2, 20054, Note_on_c, 0, 53, 81
2, 20062, Note_on_c, 0, 48, 57
2, 20067, Note_on_c, 0, 48, 0
2, 20087, Note_on_c, 0, 53, 0
2, 20089, Note_on_c, 0, 57, 0
2, 20092, Note_on_c, 0, 41, 0
2, 20316, Note_on_c, 0, 59, 82
2, 20317, Note_on_c, 0, 56, 67
2, 20444, Control_c, 0, 64, 127
2, 20448, Note_on_c, 0, 42, 66
2, 20576, Note_on_c, 0, 49, 65
2, 20703, Note_on_c, 0, 52, 62
2, 20835, Note_on_c, 0, 59, 0
2, 20842, Note_on_c, 0, 59, 65
2, 21093, Note_on_c, 0, 64, 75
2, 21223, Note_on_c, 0, 68, 84
2, 21227, Note_on_c, 0, 42, 0
2, 21231, Note_on_c, 0, 42, 73
2, 21351, Note_on_c, 0, 71, 82
2, 21473, Note_on_c, 0, 71, 0
2, 21475, Note_on_c, 0, 74, 106
2, 21477, Note_on_c, 0, 50, 90
2, 21477, Note_on_c, 0, 40, 90
2, 21478, Note_on_c, 0, 67, 95
2, 21478, Note_on_c, 0, 71, 91
2, 21478, Note_on_c, 0, 38, 88
2, 21525, Note_on_c, 0, 59, 0
2, 21527, Note_on_c, 0, 64, 0
2, 21528, Note_on_c, 0, 49, 0
2, 21530, Note_on_c, 0, 42, 0
2, 21530, Note_on_c, 0, 68, 0
2, 21530, Note_on_c, 0, 52, 0
2, 21530, Note_on_c, 0, 56, 0
2, 21532, Note_on_c, 0, 67, 0
2, 21534, Note_on_c, 0, 50, 0
2, 21535, Note_on_c, 0, 40, 0
2, 21536, Note_on_c, 0, 74, 0
2, 21540, Control_c, 0, 64, 0
2, 21542, Note_on_c, 0, 38, 0
2, 21603, Note_on_c, 0, 71, 0
2, 21606, Note_on_c, 0, 74, 89
2, 21607, Note_on_c, 0, 52, 79
2, 21607, Note_on_c, 0, 40, 81
2, 21608, Note_on_c, 0, 67, 81
2, 21608, Note_on_c, 0, 71, 78
2, 21612, Note_on_c, 0, 50, 78
2, 21645, Note_on_c, 0, 50, 0
2, 21646, Note_on_c, 0, 40, 0
2, 21646, Note_on_c, 0, 71, 0
2, 21648, Note_on_c, 0, 67, 0
2, 21649, Note_on_c, 0, 74, 0
2, 21665, Note_on_c, 0, 52, 0
2, 22003, Note_on_c, 0, 45, 95
2, 22003, Note_on_c, 0, 33, 88
2, 22004, Note_on_c, 0, 73, 94
2, 22005, Note_on_c, 0, 64, 93
2, 22005, Note_on_c, 0, 76, 90
2, 22006, Note_on_c, 0, 67, 88
2, 22010, Control_c, 0, 64, 127
2, 22103, Note_on_c, 0, 73, 0
2, 22113, Note_on_c, 0, 73, 92
2, 22126, Note_on_c, 0, 64, 0
2, 22126, Note_on_c, 0, 67, 0
2, 22129, Note_on_c, 0, 64, 86
2, 22133, Note_on_c, 0, 45, 0
2, 22136, Note_on_c, 0, 67, 69
2, 22137, Note_on_c, 0, 52, 70
2, 22138, Note_on_c, 0, 45, 75
2, 22141, Note_on_c, 0, 52, 0
2, 22256, Note_on_c, 0, 45, 0
2, 22260, Note_on_c, 0, 57, 83
2, 22268, Note_on_c, 0, 45, 84
2, 22292, Note_on_c, 0, 52, 90
2, 22353, Note_on_c, 0, 40, 79
2, 22419, Note_on_c, 0, 33, 0
2, 22419, Control_c, 0, 64, 0
2, 22420, Note_on_c, 0, 45, 0
2, 22420, Note_on_c, 0, 67, 0
2, 22420, Note_on_c, 0, 40, 0
2, 22420, Note_on_c, 0, 52, 0
2, 22421, Note_on_c, 0, 57, 0
2, 22421, Note_on_c, 0, 64, 0
2, 22425, Note_on_c, 0, 76, 0
2, 22433, Note_on_c, 0, 73, 0
2, 22536, Note_on_c, 0, 76, 105
2, 22537, Note_on_c, 0, 50, 97
2, 22538, Note_on_c, 0, 38, 95
2, 22541, Note_on_c, 0, 64, 100
2, 22544, Note_on_c, 0, 69, 89
2, 22549, Note_on_c, 0, 73, 86
2, 22602, Control_c, 0, 64, 127
2, 22794, Note_on_c, 0, 38, 0
2, 22798, Note_on_c, 0, 78, 91
2, 22799, Note_on_c, 0, 38, 81
2, 22801, Note_on_c, 0, 66, 85
2, 22924, Note_on_c, 0, 64, 0
2, 22924, Note_on_c, 0, 76, 0
2, 22930, Note_on_c, 0, 76, 94
2, 22932, Note_on_c, 0, 69, 0
2, 22935, Note_on_c, 0, 64, 82
2, 22937, Note_on_c, 0, 69, 72
2, 22937, Note_on_c, 0, 57, 71
2, 22938, Note_on_c, 0, 54, 77
2, 23047, Note_on_c, 0, 38, 0
2, 23051, Note_on_c, 0, 38, 77
2, 23185, Note_on_c, 0, 54, 0
2, 23185, Note_on_c, 0, 57, 0
2, 23185, Note_on_c, 0, 69, 0
2, 23190, Note_on_c, 0, 69, 70
2, 23192, Note_on_c, 0, 54, 71
2, 23193, Note_on_c, 0, 57, 69
2, 23308, Note_on_c, 0, 38, 0
2, 23308, Note_on_c, 0, 78, 0
2, 23313, Note_on_c, 0, 78, 94
2, 23316, Note_on_c, 0, 66, 0
2, 23317, Note_on_c, 0, 38, 79
2, 23320, Note_on_c, 0, 66, 86
2, 23439, Note_on_c, 0, 54, 0
2, 23439, Note_on_c, 0, 76, 0
2, 23445, Note_on_c, 0, 76, 100
2, 23447, Note_on_c, 0, 64, 0
2, 23448, Note_on_c, 0, 54, 76
2, 23451, Note_on_c, 0, 71, 85
2, 23451, Note_on_c, 0, 68, 91
2, 23452, Note_on_c, 0, 64, 89
2, 23470, Note_on_c, 0, 50, 0
2, 23483, Note_on_c, 0, 66, 0
2, 23483, Note_on_c, 0, 38, 0
2, 23483, Note_on_c, 0, 54, 0
2, 23485, Note_on_c, 0, 78, 0
2, 23486, Note_on_c, 0, 57, 0
2, 23487, Note_on_c, 0, 69, 0
2, 23495, Control_c, 0, 64, 0
2, 23500, Note_on_c, 0, 73, 0
2, 23574, Note_on_c, 0, 40, 87
2, 23608, Control_c, 0, 64, 127
2, 23712, Note_on_c, 0, 59, 78
2, 23714, Note_on_c, 0, 56, 75
2, 23843, Note_on_c, 0, 52, 73
2, 23849, Note_on_c, 0, 73, 92
2, 23969, Note_on_c, 0, 56, 0
2, 23969, Note_on_c, 0, 59, 0
2, 23973, Note_on_c, 0, 56, 65
2, 23974, Note_on_c, 0, 59, 71
2, 24084, Note_on_c, 0, 40, 0
2, 24088, Note_on_c, 0, 40, 76
2, 24099, Note_on_c, 0, 68, 0
2, 24099, Note_on_c, 0, 71, 0
2, 24107, Note_on_c, 0, 71, 96
2, 24111, Note_on_c, 0, 68, 69
2, 24215, Note_on_c, 0, 59, 0
2, 24222, Note_on_c, 0, 59, 84
2, 24345, Note_on_c, 0, 40, 0
2, 24350, Note_on_c, 0, 40, 85
2, 24356, Note_on_c, 0, 69, 94
2, 24476, Note_on_c, 0, 56, 0
2, 24476, Note_on_c, 0, 59, 0
2, 24481, Note_on_c, 0, 56, 76
2, 24482, Note_on_c, 0, 59, 83
2, 24583, Note_on_c, 0, 73, 0
2, 24584, Note_on_c, 0, 40, 0
2, 24584, Note_on_c, 0, 69, 0
2, 24585, Note_on_c, 0, 56, 0
2, 24586, Note_on_c, 0, 59, 0
2, 24589, Control_c, 0, 64, 0
2, 24599, Note_on_c, 0, 64, 0
2, 24599, Note_on_c, 0, 76, 0
2, 24606, Note_on_c, 0, 52, 0
2, 24606, Note_on_c, 0, 71, 0
2, 24614, Note_on_c, 0, 68, 0
2, 24615, Note_on_c, 0, 71, 97
2, 24618, Note_on_c, 0, 37, 77
2, 24618, Note_on_c, 0, 68, 95
2, 24619, Note_on_c, 0, 64, 92
2, 24660, Control_c, 0, 64, 127
2, 24743, Note_on_c, 0, 59, 83
2, 24746, Note_on_c, 0, 56, 77
2, 24867, Note_on_c, 0, 37, 0
2, 24867, Note_on_c, 0, 64, 0
2, 24871, Note_on_c, 0, 76, 96
2, 24876, Note_on_c, 0, 64, 91
2, 24878, Note_on_c, 0, 37, 78
2, 24882, Note_on_c, 0, 65, 69
2, 24890, Note_on_c, 0, 65, 0
2, 24990, Note_on_c, 0, 59, 0
2, 24994, Note_on_c, 0, 59, 87
2, 24998, Note_on_c, 0, 56, 0
2, 25002, Note_on_c, 0, 56, 67
2, 25076, Note_on_c, 0, 49, 36
2, 25125, Note_on_c, 0, 78, 100
2, 25127, Note_on_c, 0, 66, 93
2, 25236, Note_on_c, 0, 59, 0
2, 25244, Note_on_c, 0, 56, 0
2, 25245, Note_on_c, 0, 59, 73
2, 25253, Note_on_c, 0, 56, 67
2, 25354, Note_on_c, 0, 56, 0
2, 25354, Note_on_c, 0, 66, 0
2, 25354, Control_c, 0, 64, 0
2, 25355, Note_on_c, 0, 49, 0
2, 25355, Note_on_c, 0, 71, 0
2, 25355, Note_on_c, 0, 78, 0
2, 25355, Note_on_c, 0, 76, 0
2, 25355, Note_on_c, 0, 37, 0
2, 25374, Note_on_c, 0, 59, 0
2, 25374, Note_on_c, 0, 64, 0
2, 25374, Note_on_c, 0, 68, 0
2, 25384, Note_on_c, 0, 69, 97
2, 25386, Note_on_c, 0, 64, 91
2, 25386, Note_on_c, 0, 42, 90
2, 25386, Note_on_c, 0, 61, 91
2, 25388, Note_on_c, 0, 57, 88
2, 25443, Control_c, 0, 64, 127
2, 25674, Note_on_c, 0, 57, 0
2, 25680, Note_on_c, 0, 57, 39
2, 25774, Note_on_c, 0, 61, 0
2, 25781, Note_on_c, 0, 57, 0
2, 25781, Note_on_c, 0, 69, 0
2, 25784, Note_on_c, 0, 61, 72
2, 25788, Note_on_c, 0, 57, 65
2, 25790, Note_on_c, 0, 81, 87
2, 25792, Note_on_c, 0, 69, 63
2, 25793, Note_on_c, 0, 73, 76
2, 25896, Note_on_c, 0, 42, 0
2, 25896, Note_on_c, 0, 57, 0
2, 25907, Note_on_c, 0, 57, 67
2, 25908, Note_on_c, 0, 42, 71
2, 25910, Note_on_c, 0, 54, 70
2, 26042, Note_on_c, 0, 61, 0
2, 26046, Note_on_c, 0, 80, 86
2, 26046, Note_on_c, 0, 61, 81
2, 26050, Note_on_c, 0, 71, 77
2, 26050, Note_on_c, 0, 57, 0
2, 26050, Note_on_c, 0, 69, 0
2, 26060, Note_on_c, 0, 57, 59
2, 26061, Note_on_c, 0, 69, 70
2, 26173, Note_on_c, 0, 42, 0
2, 26173, Note_on_c, 0, 69, 0
2, 26178, Note_on_c, 0, 42, 67
2, 26179, Note_on_c, 0, 69, 63
2, 26296, Note_on_c, 0, 57, 0
2, 26303, Note_on_c, 0, 68, 89
2, 26305, Note_on_c, 0, 76, 80
2, 26307, Note_on_c, 0, 57, 71
2, 26438, Note_on_c, 0, 52, 77
2, 26545, Note_on_c, 0, 49, 81
2, 26637, Control_c, 0, 64, 0
2, 26639, Note_on_c, 0, 80, 0
2, 26640, Note_on_c, 0, 52, 0
2, 26640, Note_on_c, 0, 71, 0
2, 26640, Note_on_c, 0, 69, 0
2, 26640, Note_on_c, 0, 81, 0
2, 26640, Note_on_c, 0, 54, 0
2, 26640, Note_on_c, 0, 42, 0
2, 26640, Note_on_c, 0, 68, 0
2, 26640, Note_on_c, 0, 64, 0
2, 26640, Note_on_c, 0, 73, 0
2, 26642, Note_on_c, 0, 49, 0
2, 26642, Note_on_c, 0, 76, 0
2, 26657, Note_on_c, 0, 57, 0
2, 26657, Note_on_c, 0, 61, 0
2, 26686, Note_on_c, 0, 69, 95
2, 26688, Note_on_c, 0, 62, 88
2, 26690, Note_on_c, 0, 66, 94
2, 26695, Note_on_c, 0, 47, 85
2, 26697, Note_on_c, 0, 35, 79
2, 26726, Control_c, 0, 64, 127
2, 26949, Note_on_c, 0, 62, 0
2, 26949, Note_on_c, 0, 69, 0
2, 26954, Note_on_c, 0, 69, 81
2, 26954, Note_on_c, 0, 57, 67
2, 26954, Note_on_c, 0, 62, 62
2, 26957, Note_on_c, 0, 54, 64
2, 27072, Note_on_c, 0, 54, 0
2, 27072, Note_on_c, 0, 57, 0
2, 27072, Note_on_c, 0, 69, 0
2, 27076, Note_on_c, 0, 69, 89
2, 27076, Note_on_c, 0, 54, 86
2, 27076, Note_on_c, 0, 57, 81
2, 27187, Note_on_c, 0, 35, 0
2, 27194, Note_on_c, 0, 66, 0
2, 27194, Note_on_c, 0, 69, 0
2, 27197, Note_on_c, 0, 35, 78
2, 27200, Note_on_c, 0, 66, 66
2, 27204, Note_on_c, 0, 69, 68
2, 27340, Note_on_c, 0, 54, 0
2, 27340, Note_on_c, 0, 69, 0
2, 27348, Note_on_c, 0, 47, 0
2, 27348, Note_on_c, 0, 57, 0
2, 27348, Note_on_c, 0, 66, 0
2, 27352, Note_on_c, 0, 54, 79
2, 27352, Note_on_c, 0, 69, 71
2, 27352, Note_on_c, 0, 57, 73
2, 27352, Note_on_c, 0, 74, 90
2, 27354, Note_on_c, 0, 47, 67
2, 27355, Note_on_c, 0, 66, 78
2, 27356, Note_on_c, 0, 62, 0
2, 27601, Note_on_c, 0, 57, 0
2, 27607, Note_on_c, 0, 76, 101
2, 27610, Note_on_c, 0, 57, 79
2, 27612, Note_on_c, 0, 71, 87
2, 27613, Note_on_c, 0, 68, 85
2, 27613, Note_on_c, 0, 64, 84
2, 27614, Note_on_c, 0, 52, 80
2, 27647, Note_on_c, 0, 57, 0
2, 27650, Note_on_c, 0, 69, 0
2, 27652, Note_on_c, 0, 54, 0
2, 27652, Note_on_c, 0, 74, 0
2, 27655, Note_on_c, 0, 52, 0
2, 27657, Control_c, 0, 64, 0
2, 27671, Note_on_c, 0, 47, 0
2, 27671, Note_on_c, 0, 66, 0
2, 27678, Note_on_c, 0, 35, 0
2, 27722, Note_on_c, 0, 40, 89
2, 27724, Note_on_c, 0, 28, 81
2, 27724, Control_c, 0, 64, 127
2, 27778, Note_on_c, 0, 28, 0
2, 27867, Note_on_c, 0, 56, 74
2, 27869, Note_on_c, 0, 59, 70
2, 27993, Note_on_c, 0, 64, 0
2, 27994, Note_on_c, 0, 69, 85
2, 28002, Note_on_c, 0, 64, 58
2, 28004, Note_on_c, 0, 62, 58
2, 28008, Note_on_c, 0, 62, 0
2, 28116, Note_on_c, 0, 56, 0
2, 28116, Note_on_c, 0, 59, 0
2, 28116, Note_on_c, 0, 68, 0
2, 28116, Note_on_c, 0, 71, 0
2, 28121, Note_on_c, 0, 56, 81
2, 28124, Note_on_c, 0, 64, 0
2, 28126, Note_on_c, 0, 59, 81
2, 28127, Note_on_c, 0, 71, 93
2, 28127, Note_on_c, 0, 68, 80
2, 28130, Note_on_c, 0, 62, 60
2, 28132, Note_on_c, 0, 64, 58
2, 28239, Note_on_c, 0, 40, 0
2, 28249, Note_on_c, 0, 40, 83
2, 28251, Note_on_c, 0, 28, 76
2, 28262, Note_on_c, 0, 28, 0
2, 28369, Note_on_c, 0, 69, 0
2, 28377, Note_on_c, 0, 59, 0
2, 28377, Note_on_c, 0, 62, 0
2, 28377, Note_on_c, 0, 69, 78
2, 28382, Note_on_c, 0, 59, 83
2, 28388, Note_on_c, 0, 62, 62
2, 28500, Note_on_c, 0, 64, 0
2, 28500, Note_on_c, 0, 68, 0
2, 28507, Note_on_c, 0, 64, 64
2, 28508, Note_on_c, 0, 62, 0
2, 28511, Note_on_c, 0, 68, 66
2, 28513, Note_on_c, 0, 62, 59
2, 28623, Note_on_c, 0, 59, 0
2, 28631, Note_on_c, 0, 62, 0
2, 28631, Note_on_c, 0, 69, 0
2, 28634, Note_on_c, 0, 59, 88
2, 28635, Note_on_c, 0, 69, 91
2, 28636, Note_on_c, 0, 62, 69
2, 28733, Note_on_c, 0, 68, 0
2, 28733, Note_on_c, 0, 69, 0
2, 28734, Note_on_c, 0, 76, 0
2, 28740, Control_c, 0, 64, 0
2, 28746, Note_on_c, 0, 56, 0
2, 28753, Note_on_c, 0, 59, 0
2, 28753, Note_on_c, 0, 71, 0
2, 28761, Note_on_c, 0, 62, 0
2, 28761, Note_on_c, 0, 64, 0
2, 28766, Note_on_c, 0, 64, 92
2, 28769, Note_on_c, 0, 40, 0
2, 28770, Note_on_c, 0, 62, 86
2, 28774, Note_on_c, 0, 45, 89
2, 28779, Note_on_c, 0, 33, 79
2, 28815, Control_c, 0, 64, 127
2, 28892, Note_on_c, 0, 62, 0
2, 28892, Note_on_c, 0, 64, 0
2, 28902, Note_on_c, 0, 64, 76
2, 28902, Note_on_c, 0, 62, 77
2, 28902, Note_on_c, 0, 68, 66
2, 29022, Note_on_c, 0, 62, 0
2, 29022, Note_on_c, 0, 64, 0
2, 29029, Note_on_c, 0, 62, 69
2, 29030, Note_on_c, 0, 64, 70
2, 29153, Note_on_c, 0, 62, 0
2, 29153, Note_on_c, 0, 64, 0
2, 29159, Note_on_c, 0, 64, 65
2, 29160, Note_on_c, 0, 62, 79
2, 29180, Note_on_c, 0, 52, 42
2, 29283, Note_on_c, 0, 52, 0
2, 29283, Note_on_c, 0, 62, 0
2, 29283, Note_on_c, 0, 64, 0
2, 29288, Note_on_c, 0, 52, 80
2, 29290, Note_on_c, 0, 62, 80
2, 29291, Note_on_c, 0, 64, 83
2, 29293, Note_on_c, 0, 57, 74
2, 29422, Note_on_c, 0, 62, 0
2, 29422, Note_on_c, 0, 64, 0
2, 29426, Note_on_c, 0, 62, 86
2, 29431, Note_on_c, 0, 64, 85
2, 29537, Note_on_c, 0, 64, 0
2, 29544, Note_on_c, 0, 62, 0
2, 29548, Note_on_c, 0, 64, 80
2, 29548, Note_on_c, 0, 62, 83
2, 29552, Note_on_c, 0, 33, 0
2, 29552, Note_on_c, 0, 45, 0
2, 29559, Note_on_c, 0, 33, 79
2, 29560, Note_on_c, 0, 45, 83
2, 29632, Note_on_c, 0, 52, 0
2, 29632, Note_on_c, 0, 57, 0
2, 29632, Note_on_c, 0, 62, 0
2, 29634, Control_c, 0, 64, 0
2, 29667, Note_on_c, 0, 64, 0
2, 29675, Note_on_c, 0, 33, 0
2, 29675, Note_on_c, 0, 45, 0
2, 29675, Note_on_c, 0, 68, 0
2, 29675, Note_on_c, 0, 64, 86
2, 29677, Note_on_c, 0, 57, 88
2, 29678, Note_on_c, 0, 61, 88
2, 29679, Note_on_c, 0, 33, 85
2, 29682, Note_on_c, 0, 45, 91
2, 29721, Control_c, 0, 64, 127
2, 30048, Note_on_c, 0, 52, 77
2, 30171, Note_on_c, 0, 59, 79
2, 30297, Note_on_c, 0, 45, 0
2, 30297, Note_on_c, 0, 57, 0
2, 30297, Note_on_c, 0, 61, 0
2, 30306, Note_on_c, 0, 69, 92
2, 30307, Note_on_c, 0, 61, 87
2, 30308, Note_on_c, 0, 45, 76
2, 30309, Note_on_c, 0, 57, 79
2, 30351, Note_on_c, 0, 59, 0
2, 30352, Note_on_c, 0, 52, 0
2, 30352, Note_on_c, 0, 64, 0
2, 30354, Control_c, 0, 64, 0
2, 30412, Control_c, 0, 64, 127
2, 30435, Note_on_c, 0, 33, 0
2, 30558, Note_on_c, 0, 45, 0
2, 30567, Note_on_c, 0, 68, 89
2, 30568, Note_on_c, 0, 45, 77
2, 30570, Note_on_c, 0, 59, 82
2, 30570, Note_on_c, 0, 56, 75
2, 30785, Control_c, 0, 64, 0
2, 30786, Note_on_c, 0, 68, 0
2, 30786, Note_on_c, 0, 69, 0
2, 30787, Note_on_c, 0, 45, 0
2, 30787, Note_on_c, 0, 59, 0
2, 30796, Note_on_c, 0, 57, 0
2, 30796, Note_on_c, 0, 61, 0
2, 30804, Note_on_c, 0, 56, 0
2, 30838, Note_on_c, 0, 66, 87
2, 30839, Note_on_c, 0, 61, 83
2, 30843, Note_on_c, 0, 38, 88
2, 30845, Note_on_c, 0, 57, 81
2, 30888, Control_c, 0, 64, 127
2, 31091, Control_c, 0, 64, 0
2, 31107, Note_on_c, 0, 73, 100
2, 31111, Control_c, 0, 64, 127
2, 31372, Note_on_c, 0, 78, 104
2, 31377, Note_on_c, 0, 54, 87
2, 31379, Note_on_c, 0, 69, 91
2, 31380, Note_on_c, 0, 57, 0
2, 31383, Note_on_c, 0, 50, 84
2, 31384, Note_on_c, 0, 62, 80
2, 31384, Note_on_c, 0, 57, 88
2, 31391, Note_on_c, 0, 66, 0
2, 31633, Note_on_c, 0, 73, 0
2, 31640, Note_on_c, 0, 73, 97
2, 31726, Note_on_c, 0, 61, 0
2, 31729, Control_c, 0, 64, 0
2, 31729, Note_on_c, 0, 54, 0
2, 31729, Note_on_c, 0, 69, 0
2, 31729, Note_on_c, 0, 50, 0
2, 31730, Note_on_c, 0, 73, 0
2, 31730, Note_on_c, 0, 78, 0
2, 31731, Note_on_c, 0, 38, 0
2, 31741, Note_on_c, 0, 62, 0
2, 31749, Note_on_c, 0, 57, 0
2, 31775, Note_on_c, 0, 80, 102
2, 31778, Note_on_c, 0, 50, 92
2, 31781, Note_on_c, 0, 71, 89
2, 31783, Note_on_c, 0, 38, 92
2, 31783, Note_on_c, 0, 76, 84
2, 31818, Control_c, 0, 64, 127
2, 32033, Note_on_c, 0, 50, 0
2, 32037, Note_on_c, 0, 50, 71
2, 32158, Note_on_c, 0, 54, 74
2, 32298, Note_on_c, 0, 68, 99
2, 32298, Note_on_c, 0, 62, 83
2, 32298, Note_on_c, 0, 59, 79
2, 32304, Note_on_c, 0, 64, 77
2, 32570, Note_on_c, 0, 50, 0
2, 32581, Note_on_c, 0, 50, 78
2, 32701, Note_on_c, 0, 38, 0
2, 32701, Note_on_c, 0, 59, 0
2, 32706, Note_on_c, 0, 59, 83
2, 32709, Note_on_c, 0, 38, 74
2, 32828, Note_on_c, 0, 60, 85
2, 32917, Note_on_c, 0, 80, 0
2, 32918, Note_on_c, 0, 71, 0
2, 32918, Note_on_c, 0, 62, 0
2, 32918, Note_on_c, 0, 64, 0
2, 32918, Note_on_c, 0, 68, 0
2, 32918, Note_on_c, 0, 50, 0
2, 32918, Note_on_c, 0, 54, 0
2, 32918, Note_on_c, 0, 76, 0
2, 32918, Note_on_c, 0, 59, 0
2, 32919, Note_on_c, 0, 38, 0
2, 32919, Note_on_c, 0, 60, 0
2, 32924, Control_c, 0, 64, 0
2, 32968, Note_on_c, 0, 61, 95
2, 32969, Note_on_c, 0, 37, 91
2, 32980, Note_on_c, 0, 53, 78
2, 32981, Note_on_c, 0, 56, 82
2, 33016, Control_c, 0, 64, 127
2, 33232, Note_on_c, 0, 73, 93
2, 33487, Note_on_c, 0, 80, 101
2, 33492, Note_on_c, 0, 73, 0
2, 33495, Note_on_c, 0, 68, 88
2, 33496, Note_on_c, 0, 71, 82
2, 33496, Note_on_c, 0, 49, 86
2, 33496, Note_on_c, 0, 73, 84
2, 33496, Note_on_c, 0, 77, 80
2, 33497, Note_on_c, 0, 41, 82
2, 33499, Control_c, 0, 64, 0
2, 33500, Note_on_c, 0, 37, 0
2, 33503, Note_on_c, 0, 53, 0
2, 33504, Note_on_c, 0, 61, 0
2, 33504, Note_on_c, 0, 56, 0
2, 33584, Control_c, 0, 64, 127
2, 33744, Note_on_c, 0, 76, 85
2, 33870, Control_c, 0, 64, 0
2, 33884, Note_on_c, 0, 41, 0
2, 33884, Note_on_c, 0, 49, 0
2, 33884, Note_on_c, 0, 71, 0
2, 33884, Note_on_c, 0, 73, 0
2, 33884, Note_on_c, 0, 76, 0
2, 33884, Note_on_c, 0, 42, 92
2, 33889, Note_on_c, 0, 83, 99
2, 33890, Note_on_c, 0, 71, 93
2, 33891, Note_on_c, 0, 49, 87
2, 33891, Note_on_c, 0, 57, 89
2, 33892, Note_on_c, 0, 73, 92
2, 33895, Note_on_c, 0, 76, 85
2, 33899, Note_on_c, 0, 77, 0
2, 33914, Note_on_c, 0, 68, 0
2, 33953, Control_c, 0, 64, 127
2, 34139, Note_on_c, 0, 54, 79
2, 34140, Note_on_c, 0, 81, 93
2, 34252, Note_on_c, 0, 57, 0
2, 34256, Note_on_c, 0, 64, 72
2, 34256, Note_on_c, 0, 61, 72
2, 34259, Note_on_c, 0, 69, 71
2, 34260, Note_on_c, 0, 80, 0
2, 34263, Note_on_c, 0, 57, 69
2, 34269, Note_on_c, 0, 80, 90
2, 34363, Note_on_c, 0, 71, 0
2, 34363, Note_on_c, 0, 42, 0
2, 34363, Note_on_c, 0, 73, 0
2, 34364, Note_on_c, 0, 83, 0
2, 34364, Note_on_c, 0, 54, 0
2, 34364, Note_on_c, 0, 49, 0
2, 34364, Note_on_c, 0, 80, 0
2, 34364, Note_on_c, 0, 69, 0
2, 34364, Note_on_c, 0, 57, 0
2, 34364, Note_on_c, 0, 61, 0
2, 34365, Control_c, 0, 64, 0
2, 34375, Note_on_c, 0, 76, 0
2, 34383, Note_on_c, 0, 64, 0
2, 34391, Note_on_c, 0, 81, 0
2, 34401, Note_on_c, 0, 81, 103
2, 34402, Note_on_c, 0, 76, 92
2, 34407, Note_on_c, 0, 69, 87
2, 34408, Note_on_c, 0, 73, 91
2, 34409, Note_on_c, 0, 40, 83
2, 34410, Note_on_c, 0, 52, 89
2, 34444, Control_c, 0, 64, 127
2, 34671, Note_on_c, 0, 64, 89
2, 34797, Note_on_c, 0, 57, 75
2, 34890, Note_on_c, 0, 52, 0
2, 34899, Note_on_c, 0, 52, 79
2, 34988, Note_on_c, 0, 66, 76
2, 35013, Note_on_c, 0, 69, 0
2, 35018, Note_on_c, 0, 69, 68
2, 35027, Control_c, 0, 64, 0
2, 35032, Note_on_c, 0, 73, 0
2, 35032, Note_on_c, 0, 57, 0
2, 35032, Note_on_c, 0, 64, 0
2, 35032, Note_on_c, 0, 76, 0
2, 35032, Note_on_c, 0, 52, 0
2, 35033, Note_on_c, 0, 81, 0
2, 35040, Note_on_c, 0, 66, 0
2, 35042, Note_on_c, 0, 40, 0
2, 35065, Note_on_c, 0, 74, 62
2, 35076, Note_on_c, 0, 78, 93
2, 35089, Control_c, 0, 64, 127
2, 35307, Note_on_c, 0, 54, 80
2, 35309, Note_on_c, 0, 57, 65
2, 35335, Note_on_c, 0, 69, 0
2, 35335, Note_on_c, 0, 74, 0
2, 35340, Note_on_c, 0, 69, 66
2, 35340, Note_on_c, 0, 74, 83
2, 35425, Control_c, 0, 64, 0
2, 35428, Note_on_c, 0, 54, 0
2, 35429, Note_on_c, 0, 57, 0
2, 35430, Note_on_c, 0, 78, 0
2, 35454, Note_on_c, 0, 35, 63
2, 35496, Control_c, 0, 64, 127
2, 35595, Note_on_c, 0, 78, 93
2, 35696, Note_on_c, 0, 35, 0
2, 35703, Note_on_c, 0, 47, 56
2, 35704, Note_on_c, 0, 35, 64
2, 35712, Note_on_c, 0, 47, 0
2, 35850, Note_on_c, 0, 69, 0
2, 35850, Note_on_c, 0, 74, 0
2, 35851, Note_on_c, 0, 54, 73
2, 35853, Note_on_c, 0, 81, 85
2, 35854, Note_on_c, 0, 57, 71
2, 35854, Note_on_c, 0, 69, 65
2, 35860, Note_on_c, 0, 74, 79
2, 36062, Note_on_c, 0, 71, 71
2, 36073, Note_on_c, 0, 76, 75
2, 36084, Note_on_c, 0, 74, 0
2, 36085, Note_on_c, 0, 57, 0
2, 36085, Note_on_c, 0, 78, 0
2, 36085, Control_c, 0, 64, 0
2, 36085, Note_on_c, 0, 54, 0
2, 36086, Note_on_c, 0, 81, 0
2, 36103, Note_on_c, 0, 69, 0
2, 36110, Note_on_c, 0, 37, 80
2, 36111, Note_on_c, 0, 35, 0
2, 36113, Note_on_c, 0, 80, 88
2, 36157, Control_c, 0, 64, 127
2, 36360, Note_on_c, 0, 81, 84
2, 36364, Note_on_c, 0, 52, 73
2, 36366, Note_on_c, 0, 57, 67
2, 36367, Note_on_c, 0, 69, 71
2, 36487, Note_on_c, 0, 80, 0
2, 36495, Note_on_c, 0, 52, 0
2, 36498, Note_on_c, 0, 80, 92
2, 36503, Note_on_c, 0, 71, 0
2, 36503, Note_on_c, 0, 76, 0
2, 36506, Note_on_c, 0, 52, 62
2, 36510, Note_on_c, 0, 76, 63
2, 36511, Note_on_c, 0, 71, 73
2, 36748, Note_on_c, 0, 69, 0
2, 36757, Note_on_c, 0, 69, 76
2, 36771, Note_on_c, 0, 52, 0
2, 36781, Note_on_c, 0, 52, 37
2, 36879, Note_on_c, 0, 52, 0
2, 36887, Note_on_c, 0, 57, 0
2, 36890, Note_on_c, 0, 52, 76
2, 36893, Note_on_c, 0, 57, 71
2, 36893, Note_on_c, 0, 68, 78
2, 36998, Note_on_c, 0, 64, 75
2, 37092, Note_on_c, 0, 52, 0
2, 37092, Note_on_c, 0, 71, 0
2, 37093, Note_on_c, 0, 64, 0
2, 37093, Note_on_c, 0, 69, 0
2, 37094, Note_on_c, 0, 57, 0
2, 37094, Note_on_c, 0, 68, 0
2, 37094, Note_on_c, 0, 80, 0
2, 37094, Note_on_c, 0, 81, 0
2, 37095, Note_on_c, 0, 76, 0
2, 37097, Control_c, 0, 64, 0
2, 37109, Note_on_c, 0, 37, 0
2, 37144, Note_on_c, 0, 69, 74
2, 37145, Note_on_c, 0, 38, 79
2, 37145, Note_on_c, 0, 78, 96
2, 37147, Note_on_c, 0, 74, 78
2, 37147, Note_on_c, 0, 66, 88
2, 37171, Control_c, 0, 64, 127
2, 37397, Note_on_c, 0, 57, 67
2, 37398, Note_on_c, 0, 54, 70
2, 37401, Note_on_c, 0, 74, 0
2, 37411, Note_on_c, 0, 74, 88
2, 37416, Note_on_c, 0, 69, 0
2, 37427, Note_on_c, 0, 69, 66
2, 37547, Note_on_c, 0, 38, 0
2, 37552, Note_on_c, 0, 38, 69
2, 37662, Note_on_c, 0, 78, 0
2, 37670, Note_on_c, 0, 78, 96
2, 37785, Note_on_c, 0, 38, 0
2, 37795, Note_on_c, 0, 38, 65
2, 37923, Note_on_c, 0, 54, 0
2, 37931, Note_on_c, 0, 57, 0
2, 37931, Note_on_c, 0, 69, 0
2, 37931, Note_on_c, 0, 74, 0
2, 37935, Note_on_c, 0, 54, 85
2, 37936, Note_on_c, 0, 57, 79
2, 37937, Note_on_c, 0, 74, 78
2, 37937, Note_on_c, 0, 81, 87
2, 37940, Note_on_c, 0, 69, 75
2, 38085, Note_on_c, 0, 71, 61
2, 38135, Note_on_c, 0, 54, 0
2, 38135, Note_on_c, 0, 69, 0
2, 38135, Note_on_c, 0, 57, 0
2, 38136, Note_on_c, 0, 78, 0
2, 38136, Note_on_c, 0, 74, 0
2, 38136, Note_on_c, 0, 66, 0
2, 38136, Note_on_c, 0, 81, 0
2, 38136, Note_on_c, 0, 71, 0
2, 38139, Control_c, 0, 64, 0
2, 38144, Note_on_c, 0, 76, 74
2, 38161, Note_on_c, 0, 38, 0
2, 38180, Note_on_c, 0, 83, 96
2, 38182, Note_on_c, 0, 37, 86
2, 38183, Note_on_c, 0, 25, 74
2, 38192, Note_on_c, 0, 25, 0
2, 38215, Control_c, 0, 64, 127
2, 38430, Note_on_c, 0, 76, 0
2, 38436, Note_on_c, 0, 76, 77
2, 38436, Note_on_c, 0, 68, 68
2, 38437, Note_on_c, 0, 56, 68
2, 38441, Note_on_c, 0, 52, 65
2, 38442, Note_on_c, 0, 64, 60
2, 38568, Note_on_c, 0, 37, 0
2, 38568, Note_on_c, 0, 76, 0
2, 38572, Note_on_c, 0, 76, 84
2, 38573, Note_on_c, 0, 37, 72
2, 38576, Note_on_c, 0, 68, 0
2, 38580, Note_on_c, 0, 68, 84
2, 38821, Note_on_c, 0, 69, 78
2, 38945, Note_on_c, 0, 52, 0
2, 38945, Note_on_c, 0, 68, 0
2, 38952, Note_on_c, 0, 56, 0
2, 38955, Note_on_c, 0, 52, 78
2, 38956, Note_on_c, 0, 68, 82
2, 38957, Note_on_c, 0, 56, 74
2, 38976, Note_on_c, 0, 62, 47
2, 38983, Note_on_c, 0, 62, 0
2, 39060, Note_on_c, 0, 64, 0
2, 39070, Note_on_c, 0, 64, 74
2, 39155, Note_on_c, 0, 56, 0
2, 39156, Note_on_c, 0, 69, 0
2, 39156, Note_on_c, 0, 83, 0
2, 39156, Note_on_c, 0, 37, 0
2, 39156, Note_on_c, 0, 64, 0
2, 39156, Note_on_c, 0, 68, 0
2, 39156, Note_on_c, 0, 76, 0
2, 39157, Control_c, 0, 64, 0
2, 39175, Note_on_c, 0, 52, 0
2, 39202, Note_on_c, 0, 38, 89
2, 39202, Note_on_c, 0, 66, 95
2, 39205, Note_on_c, 0, 74, 79
2, 39209, Note_on_c, 0, 78, 97
2, 39252, Control_c, 0, 64, 127
2, 39463, Note_on_c, 0, 57, 81
2, 39465, Note_on_c, 0, 50, 65
2, 39467, Note_on_c, 0, 54, 78
2, 39467, Note_on_c, 0, 74, 0
2, 39472, Note_on_c, 0, 69, 82
2, 39473, Note_on_c, 0, 74, 94
2, 39475, Note_on_c, 0, 50, 0
2, 39590, Note_on_c, 0, 38, 0
2, 39597, Note_on_c, 0, 38, 89
2, 39713, Note_on_c, 0, 78, 0
2, 39724, Note_on_c, 0, 78, 99
2, 39836, Note_on_c, 0, 38, 0
2, 39842, Note_on_c, 0, 38, 86
2, 39974, Note_on_c, 0, 57, 0
2, 39982, Note_on_c, 0, 54, 0
2, 39983, Note_on_c, 0, 81, 97
2, 39985, Note_on_c, 0, 57, 86
2, 39986, Note_on_c, 0, 54, 85
2, 40009, Note_on_c, 0, 50, 43
2, 40112, Note_on_c, 0, 78, 0
2, 40112, Note_on_c, 0, 81, 0
2, 40120, Note_on_c, 0, 81, 101
2, 40120, Note_on_c, 0, 69, 0
2, 40122, Note_on_c, 0, 78, 100
2, 40125, Note_on_c, 0, 69, 88
2, 40129, Note_on_c, 0, 75, 85
2, 40161, Control_c, 0, 64, 0
2, 40164, Note_on_c, 0, 74, 0
2, 40165, Note_on_c, 0, 38, 0
2, 40166, Note_on_c, 0, 50, 0
2, 40166, Note_on_c, 0, 57, 0
2, 40167, Note_on_c, 0, 54, 0
2, 40167, Note_on_c, 0, 66, 0
2, 40239, Note_on_c, 0, 39, 96
2, 40242, Note_on_c, 0, 27, 85
2, 40250, Note_on_c, 0, 27, 0
2, 40266, Control_c, 0, 64, 127
2, 40373, Note_on_c, 0, 78, 0
2, 40379, Note_on_c, 0, 78, 96
2, 40383, Note_on_c, 0, 66, 98
2, 40515, Note_on_c, 0, 57, 82
2, 40517, Note_on_c, 0, 51, 88
2, 40518, Note_on_c, 0, 54, 74
2, 40638, Note_on_c, 0, 80, 104
2, 40639, Note_on_c, 0, 68, 101
2, 40642, Note_on_c, 0, 39, 0
2, 40646, Note_on_c, 0, 39, 92
2, 40888, Note_on_c, 0, 39, 0
2, 40892, Note_on_c, 0, 39, 92
2, 40896, Note_on_c, 0, 81, 0
2, 40897, Note_on_c, 0, 27, 87
2, 40901, Note_on_c, 0, 81, 105
2, 40903, Note_on_c, 0, 27, 0
2, 40903, Note_on_c, 0, 69, 0
2, 40913, Note_on_c, 0, 69, 90
2, 41018, Note_on_c, 0, 51, 0
2, 41018, Note_on_c, 0, 54, 0
2, 41018, Note_on_c, 0, 57, 0
2, 41023, Note_on_c, 0, 54, 86
2, 41026, Note_on_c, 0, 51, 88
2, 41028, Note_on_c, 0, 57, 86
2, 41134, Note_on_c, 0, 81, 0
2, 41141, Note_on_c, 0, 69, 0
2, 41144, Note_on_c, 0, 57, 0
2, 41144, Note_on_c, 0, 51, 0
2, 41145, Note_on_c, 0, 81, 99
2, 41147, Note_on_c, 0, 69, 86
2, 41216, Note_on_c, 0, 54, 0
2, 41216, Note_on_c, 0, 69, 0
2, 41217, Note_on_c, 0, 81, 0
2, 41217, Note_on_c, 0, 80, 0
2, 41217, Note_on_c, 0, 68, 0
2, 41218, Note_on_c, 0, 75, 0
2, 41219, Control_c, 0, 64, 0
2, 41226, Note_on_c, 0, 66, 0
2, 41233, Note_on_c, 0, 78, 0
2, 41241, Note_on_c, 0, 39, 0
2, 41281, Note_on_c, 0, 40, 103
2, 41281, Note_on_c, 0, 28, 93
2, 41281, Note_on_c, 0, 83, 108
2, 41283, Note_on_c, 0, 71, 104
2, 41283, Note_on_c, 0, 76, 94
2, 41287, Note_on_c, 0, 28, 0
2, 41290, Note_on_c, 0, 80, 86
2, 41295, Control_c, 0, 64, 127
2, 41532, Note_on_c, 0, 64, 103
2, 41533, Note_on_c, 0, 76, 0
2, 41540, Note_on_c, 0, 52, 95
2, 41541, Note_on_c, 0, 71, 0
2, 41543, Note_on_c, 0, 59, 90
2, 41544, Note_on_c, 0, 76, 101
2, 41545, Note_on_c, 0, 71, 89
2, 41545, Note_on_c, 0, 57, 79
2, 41664, Note_on_c, 0, 52, 0
2, 41671, Note_on_c, 0, 57, 0
2, 41674, Note_on_c, 0, 52, 93
2, 41679, Note_on_c, 0, 59, 0
2, 41681, Note_on_c, 0, 57, 73
2, 41690, Note_on_c, 0, 59, 64
2, 41763, Note_on_c, 0, 59, 0
2, 41771, Note_on_c, 0, 64, 0
2, 41774, Note_on_c, 0, 59, 80
2, 41775, Note_on_c, 0, 64, 96
2, 41794, Note_on_c, 0, 76, 0
2, 41802, Note_on_c, 0, 71, 0
2, 41804, Note_on_c, 0, 76, 107
2, 41806, Note_on_c, 0, 71, 97
2, 41918, Note_on_c, 0, 37, 101
2, 41919, Note_on_c, 0, 49, 98
2, 42048, Note_on_c, 0, 71, 0
2, 42048, Note_on_c, 0, 76, 0
2, 42054, Note_on_c, 0, 50, 98
2, 42055, Note_on_c, 0, 71, 93
2, 42055, Note_on_c, 0, 38, 101
2, 42056, Note_on_c, 0, 76, 100
2, 42171, Note_on_c, 0, 51, 100
2, 42173, Note_on_c, 0, 27, 95
2, 42173, Note_on_c, 0, 39, 100
2, 42178, Note_on_c, 0, 27, 0
2, 42282, Note_on_c, 0, 71, 0
2, 42282, Note_on_c, 0, 83, 0
2, 42282, Note_on_c, 0, 64, 0
2, 42282, Note_on_c, 0, 49, 0
2, 42282, Note_on_c, 0, 51, 0
2, 42282, Note_on_c, 0, 37, 0
2, 42282, Note_on_c, 0, 80, 0
2, 42282, Note_on_c, 0, 59, 0
2, 42282, Note_on_c, 0, 38, 0
2, 42282, Note_on_c, 0, 50, 0
2, 42283, Control_c, 0, 64, 0
2, 42283, Note_on_c, 0, 39, 0
2, 42301, Note_on_c, 0, 40, 0
2, 42301, Note_on_c, 0, 57, 0
2, 42309, Note_on_c, 0, 52, 0
2, 42309, Note_on_c, 0, 76, 0
2, 42313, Note_on_c, 0, 85, 111
2, 42315, Note_on_c, 0, 40, 99
2, 42315, Note_on_c, 0, 52, 105
2, 42318, Note_on_c, 0, 73, 108
2, 42319, Note_on_c, 0, 76, 109
2, 42320, Note_on_c, 0, 80, 97
2, 42362, Control_c, 0, 64, 127
2, 42439, Note_on_c, 0, 40, 0
2, 42439, Note_on_c, 0, 52, 0
2, 42445, Note_on_c, 0, 52, 106
2, 42450, Note_on_c, 0, 40, 88
2, 42693, Note_on_c, 0, 76, 0
2, 42698, Note_on_c, 0, 71, 105
2, 42699, Note_on_c, 0, 76, 110
2, 42700, Note_on_c, 0, 80, 0
2, 42702, Note_on_c, 0, 83, 109
2, 42706, Note_on_c, 0, 80, 95
2, 42843, Note_on_c, 0, 100, 103
2, 42856, Note_on_c, 0, 98, 102
2, 42862, Note_on_c, 0, 73, 0
2, 42878, Note_on_c, 0, 96, 98
2, 42896, Note_on_c, 0, 95, 77
2, 42913, Note_on_c, 0, 93, 96
2, 42931, Note_on_c, 0, 91, 102
2, 42938, Note_on_c, 0, 40, 0
2, 42947, Note_on_c, 0, 40, 96
2, 42950, Note_on_c, 0, 89, 96
2, 42965, Note_on_c, 0, 88, 82
2, 42990, Note_on_c, 0, 86, 79
2, 43002, Note_on_c, 0, 84, 92
2, 43025, Note_on_c, 0, 81, 77
2, 43034, Note_on_c, 0, 79, 61
2, 43052, Note_on_c, 0, 77, 73
2, 43069, Note_on_c, 0, 52, 0
2, 43069, Note_on_c, 0, 76, 0
2, 43073, Note_on_c, 0, 52, 106
2, 43073, Note_on_c, 0, 76, 89
2, 43075, Note_on_c, 0, 59, 88
2, 43077, Note_on_c, 0, 71, 0
2, 43081, Note_on_c, 0, 64, 92
2, 43085, Note_on_c, 0, 71, 90
2, 43112, Note_on_c, 0, 62, 46
2, 43118, Note_on_c, 0, 55, 54
2, 43121, Note_on_c, 0, 67, 69
2, 43126, Note_on_c, 0, 65, 43
2, 43172, Note_on_c, 0, 60, 84
2, 43176, Note_on_c, 0, 59, 0
2, 43181, Note_on_c, 0, 59, 69
2, 43312, Control_c, 0, 64, 0
2, 43312, Note_on_c, 0, 95, 0
2, 43312, Note_on_c, 0, 98, 0
2, 43312, Note_on_c, 0, 93, 0
2, 43313, Note_on_c, 0, 86, 0
2, 43313, Note_on_c, 0, 83, 0
2, 43313, Note_on_c, 0, 81, 0
2, 43314, Note_on_c, 0, 89, 0
2, 43314, Note_on_c, 0, 96, 0
2, 43314, Note_on_c, 0, 65, 0
2, 43314, Note_on_c, 0, 88, 0
2, 43314, Note_on_c, 0, 91, 0
2, 43314, Note_on_c, 0, 71, 0
2, 43314, Note_on_c, 0, 62, 0
2, 43314, Note_on_c, 0, 84, 0
2, 43314, Note_on_c, 0, 77, 0
2, 43315, Note_on_c, 0, 55, 0
2, 43315, Note_on_c, 0, 76, 0
2, 43315, Note_on_c, 0, 100, 0
2, 43315, Note_on_c, 0, 64, 0
2, 43315, Note_on_c, 0, 52, 0
2, 43316, Note_on_c, 0, 67, 0
2, 43316, Note_on_c, 0, 79, 0
2, 43316, Note_on_c, 0, 80, 0
2, 43316, Note_on_c, 0, 60, 0
2, 43316, Note_on_c, 0, 59, 0
2, 43317, Note_on_c, 0, 85, 0
2, 43330, Note_on_c, 0, 40, 0
2, 43334, Note_on_c, 0, 45, 102
2, 43334, Note_on_c, 0, 40, 84
2, 43334, Note_on_c, 0, 33, 100
2, 43368, Control_c, 0, 64, 127
2, 43581, Note_on_c, 0, 64, 84
2, 43589, Note_on_c, 0, 69, 87
2, 43589, Note_on_c, 0, 57, 77
2, 43589, Note_on_c, 0, 76, 94
2, 43590, Note_on_c, 0, 61, 84
2, 43595, Note_on_c, 0, 55, 58
2, 43595, Note_on_c, 0, 73, 67
2, 43719, Note_on_c, 0, 52, 66
2, 43845, Note_on_c, 0, 73, 0
2, 43845, Note_on_c, 0, 76, 0
2, 43850, Note_on_c, 0, 73, 98
2, 43854, Note_on_c, 0, 83, 100
2, 43855, Note_on_c, 0, 76, 83
2, 43952, Note_on_c, 0, 45, 0
2, 43956, Note_on_c, 0, 45, 79
2, 44098, Note_on_c, 0, 61, 0
2, 44098, Note_on_c, 0, 64, 0
2, 44103, Note_on_c, 0, 64, 93
2, 44108, Note_on_c, 0, 61, 88
2, 44110, Note_on_c, 0, 80, 94
2, 44113, Note_on_c, 0, 76, 0
2, 44116, Note_on_c, 0, 71, 84
2, 44123, Note_on_c, 0, 76, 73
2, 44236, Note_on_c, 0, 69, 0
2, 44236, Note_on_c, 0, 73, 0
2, 44240, Note_on_c, 0, 81, 103
2, 44244, Note_on_c, 0, 69, 84
2, 44247, Note_on_c, 0, 73, 96
2, 44308, Note_on_c, 0, 45, 0
2, 44308, Note_on_c, 0, 40, 0
2, 44309, Control_c, 0, 64, 0
2, 44309, Note_on_c, 0, 61, 0
2, 44309, Note_on_c, 0, 83, 0
2, 44309, Note_on_c, 0, 76, 0
2, 44309, Note_on_c, 0, 64, 0
2, 44310, Note_on_c, 0, 52, 0
2, 44310, Note_on_c, 0, 80, 0
2, 44310, Note_on_c, 0, 71, 0
2, 44313, Note_on_c, 0, 33, 0
2, 44313, Note_on_c, 0, 55, 0
2, 44328, Note_on_c, 0, 57, 0
2, 44353, Note_on_c, 0, 37, 105
2, 44375, Control_c, 0, 64, 127
2, 44613, Note_on_c, 0, 69, 0
2, 44613, Note_on_c, 0, 73, 0
2, 44613, Note_on_c, 0, 81, 0
2, 44614, Note_on_c, 0, 64, 86
2, 44616, Note_on_c, 0, 69, 84
2, 44617, Note_on_c, 0, 61, 82
2, 44617, Note_on_c, 0, 81, 99
2, 44618, Note_on_c, 0, 57, 78
2, 44620, Note_on_c, 0, 73, 90
2, 44623, Note_on_c, 0, 76, 84
2, 44733, Note_on_c, 0, 49, 85
2, 44874, Note_on_c, 0, 73, 0
2, 44874, Note_on_c, 0, 76, 0
2, 44878, Note_on_c, 0, 80, 101
2, 44880, Note_on_c, 0, 71, 93
2, 44882, Note_on_c, 0, 73, 78
2, 44885, Note_on_c, 0, 76, 69
2, 44989, Note_on_c, 0, 49, 0
2, 44999, Note_on_c, 0, 49, 80
2, 45127, Note_on_c, 0, 61, 0
2, 45127, Note_on_c, 0, 64, 0
2, 45127, Note_on_c, 0, 69, 0
2, 45127, Note_on_c, 0, 81, 0
2, 45135, Note_on_c, 0, 57, 0
2, 45135, Note_on_c, 0, 73, 0
2, 45135, Note_on_c, 0, 81, 98
2, 45137, Note_on_c, 0, 64, 95
2, 45138, Note_on_c, 0, 69, 95
2, 45138, Note_on_c, 0, 61, 93
2, 45140, Note_on_c, 0, 73, 93
2, 45141, Note_on_c, 0, 57, 86
2, 45319, Note_on_c, 0, 69, 0
2, 45326, Note_on_c, 0, 69, 79
2, 45341, Control_c, 0, 64, 0
2, 45341, Note_on_c, 0, 49, 0
2, 45342, Note_on_c, 0, 57, 0
2, 45342, Note_on_c, 0, 81, 0
2, 45342, Note_on_c, 0, 73, 0
2, 45342, Note_on_c, 0, 61, 0
2, 45342, Note_on_c, 0, 64, 0
2, 45342, Note_on_c, 0, 71, 0
2, 45350, Note_on_c, 0, 37, 0
2, 45369, Note_on_c, 0, 74, 84
2, 45373, Note_on_c, 0, 76, 0
2, 45373, Note_on_c, 0, 80, 0
2, 45381, Note_on_c, 0, 69, 0
2, 45381, Note_on_c, 0, 38, 96
2, 45381, Note_on_c, 0, 80, 104
2, 45383, Note_on_c, 0, 26, 79
2, 45404, Control_c, 0, 64, 127
2, 45442, Note_on_c, 0, 26, 0
2, 45638, Note_on_c, 0, 78, 95
2, 45638, Note_on_c, 0, 64, 86
2, 45639, Note_on_c, 0, 54, 82
2, 45641, Note_on_c, 0, 69, 70
2, 45647, Note_on_c, 0, 57, 71
2, 45772, Note_on_c, 0, 69, 0
2, 45775, Note_on_c, 0, 76, 100
2, 45777, Note_on_c, 0, 66, 74
2, 45779, Note_on_c, 0, 69, 81
2, 45780, Note_on_c, 0, 73, 93
2, 45784, Note_on_c, 0, 62, 64
2, 46010, Note_on_c, 0, 66, 0
2, 46016, Note_on_c, 0, 50, 66
2, 46016, Note_on_c, 0, 66, 60
2, 46141, Note_on_c, 0, 54, 0
2, 46141, Note_on_c, 0, 64, 0
2, 46148, Note_on_c, 0, 64, 86
2, 46149, Note_on_c, 0, 57, 0
2, 46151, Note_on_c, 0, 54, 92
2, 46159, Note_on_c, 0, 57, 70
2, 46272, Note_on_c, 0, 69, 0
2, 46282, Note_on_c, 0, 69, 74
2, 46384, Control_c, 0, 64, 0
2, 46384, Note_on_c, 0, 66, 0
2, 46385, Note_on_c, 0, 73, 0
2, 46385, Note_on_c, 0, 69, 0
2, 46386, Note_on_c, 0, 50, 0
2, 46386, Note_on_c, 0, 76, 0
2, 46387, Note_on_c, 0, 78, 0
2, 46389, Note_on_c, 0, 80, 0
2, 46402, Note_on_c, 0, 38, 0
2, 46402, Note_on_c, 0, 54, 0
2, 46402, Note_on_c, 0, 62, 0
2, 46402, Note_on_c, 0, 74, 0
2, 46404, Note_on_c, 0, 68, 87
2, 46406, Note_on_c, 0, 40, 95
2, 46408, Note_on_c, 0, 28, 82
2, 46410, Note_on_c, 0, 57, 0
2, 46411, Note_on_c, 0, 62, 63
2, 46417, Note_on_c, 0, 28, 0
2, 46456, Control_c, 0, 64, 127
2, 46533, Note_on_c, 0, 59, 77
2, 46648, Note_on_c, 0, 68, 0
2, 46651, Note_on_c, 0, 56, 85
2, 46657, Note_on_c, 0, 68, 73
2, 46661, Note_on_c, 0, 47, 67
2, 46663, Note_on_c, 0, 64, 0
2, 46667, Note_on_c, 0, 64, 73
2, 46771, Note_on_c, 0, 40, 0
2, 46778, Note_on_c, 0, 68, 0
2, 46781, Note_on_c, 0, 40, 85
2, 46782, Note_on_c, 0, 68, 76
2, 46782, Note_on_c, 0, 66, 83
2, 46784, Note_on_c, 0, 28, 79
2, 46794, Note_on_c, 0, 28, 0
2, 46884, Note_on_c, 0, 64, 0
2, 46885, Note_on_c, 0, 40, 0
2, 46885, Note_on_c, 0, 56, 0
2, 46886, Note_on_c, 0, 47, 0
2, 46888, Control_c, 0, 64, 0
2, 46894, Note_on_c, 0, 62, 0
2, 46901, Note_on_c, 0, 68, 0
2, 46906, Note_on_c, 0, 68, 91
2, 46907, Note_on_c, 0, 29, 70
2, 46909, Note_on_c, 0, 41, 80
2, 46909, Note_on_c, 0, 59, 0
2, 46917, Note_on_c, 0, 65, 57
2, 46917, Note_on_c, 0, 29, 0
2, 46924, Note_on_c, 0, 65, 0
2, 46932, Control_c, 0, 64, 127
2, 47030, Note_on_c, 0, 69, 80
2, 47156, Note_on_c, 0, 56, 77
2, 47158, Note_on_c, 0, 71, 87
2, 47159, Note_on_c, 0, 61, 74
2, 47270, Note_on_c, 0, 68, 0
2, 47274, Note_on_c, 0, 40, 81
2, 47274, Note_on_c, 0, 28, 82
2, 47274, Note_on_c, 0, 68, 86
2, 47280, Note_on_c, 0, 64, 64
2, 47285, Note_on_c, 0, 28, 0
2, 47328, Note_on_c, 0, 69, 0
2, 47329, Note_on_c, 0, 41, 0
2, 47329, Note_on_c, 0, 56, 0
2, 47329, Note_on_c, 0, 61, 0
2, 47330, Note_on_c, 0, 68, 0
2, 47330, Note_on_c, 0, 71, 0
2, 47334, Control_c, 0, 64, 0
2, 47339, Note_on_c, 0, 66, 0
2, 47385, Note_on_c, 0, 64, 0
2, 47393, Note_on_c, 0, 40, 0
2, 47418, Note_on_c, 0, 42, 87
2, 47420, Note_on_c, 0, 61, 86
2, 47420, Note_on_c, 0, 69, 87
2, 47420, Note_on_c, 0, 64, 84
2, 47424, Control_c, 0, 64, 127
2, 47677, Note_on_c, 0, 64, 0
2, 47677, Note_on_c, 0, 69, 0
2, 47685, Note_on_c, 0, 61, 0
2, 47686, Note_on_c, 0, 76, 92
2, 47687, Note_on_c, 0, 69, 91
2, 47688, Note_on_c, 0, 64, 86
2, 47689, Note_on_c, 0, 61, 82
2, 47689, Note_on_c, 0, 57, 77
2, 47806, Note_on_c, 0, 54, 84
2, 47936, Note_on_c, 0, 73, 98
2, 47936, Note_on_c, 0, 83, 100
2, 48053, Note_on_c, 0, 54, 0
2, 48057, Note_on_c, 0, 54, 75
2, 48184, Note_on_c, 0, 61, 0
2, 48184, Note_on_c, 0, 64, 0
2, 48189, Note_on_c, 0, 64, 86
2, 48191, Note_on_c, 0, 61, 89
2, 48192, Note_on_c, 0, 57, 0
2, 48192, Note_on_c, 0, 80, 92
2, 48196, Note_on_c, 0, 57, 76
2, 48197, Note_on_c, 0, 71, 83
2, 48314, Note_on_c, 0, 69, 0
2, 48314, Note_on_c, 0, 73, 0
2, 48317, Note_on_c, 0, 81, 100
2, 48322, Note_on_c, 0, 69, 93
2, 48325, Note_on_c, 0, 73, 94
2, 48376, Note_on_c, 0, 42, 0
2, 48376, Control_c, 0, 64, 0
2, 48376, Note_on_c, 0, 54, 0
2, 48377, Note_on_c, 0, 71, 0
2, 48378, Note_on_c, 0, 83, 0
2, 48378, Note_on_c, 0, 61, 0
2, 48378, Note_on_c, 0, 57, 0
2, 48378, Note_on_c, 0, 64, 0
2, 48378, Note_on_c, 0, 76, 0
2, 48378, Note_on_c, 0, 80, 0
2, 48431, Note_on_c, 0, 40, 99
2, 48460, Control_c, 0, 64, 127
2, 48695, Note_on_c, 0, 64, 87
2, 48695, Note_on_c, 0, 61, 77
2, 48699, Note_on_c, 0, 57, 79
2, 48826, Note_on_c, 0, 52, 87
2, 49075, Note_on_c, 0, 52, 0
2, 49081, Note_on_c, 0, 76, 88
2, 49083, Note_on_c, 0, 52, 84
2, 49190, Note_on_c, 0, 61, 0
2, 49190, Note_on_c, 0, 64, 0
2, 49190, Note_on_c, 0, 69, 0
2, 49190, Note_on_c, 0, 81, 0
2, 49198, Note_on_c, 0, 57, 0
2, 49199, Note_on_c, 0, 81, 99
2, 49200, Note_on_c, 0, 69, 92
2, 49201, Note_on_c, 0, 64, 84
2, 49201, Note_on_c, 0, 61, 83
2, 49202, Note_on_c, 0, 57, 81
2, 49317, Note_on_c, 0, 83, 97
2, 49317, Note_on_c, 0, 71, 92
2, 49401, Note_on_c, 0, 69, 0
2, 49401, Note_on_c, 0, 71, 0
2, 49401, Note_on_c, 0, 81, 0
2, 49401, Note_on_c, 0, 64, 0
2, 49402, Note_on_c, 0, 52, 0
2, 49402, Note_on_c, 0, 57, 0
2, 49402, Note_on_c, 0, 76, 0
2, 49402, Note_on_c, 0, 83, 0
2, 49403, Note_on_c, 0, 40, 0
2, 49403, Control_c, 0, 64, 0
2, 49413, Note_on_c, 0, 61, 0
2, 49413, Note_on_c, 0, 73, 0
2, 49443, Note_on_c, 0, 78, 101
2, 49445, Note_on_c, 0, 81, 89
2, 49446, Note_on_c, 0, 73, 104
2, 49450, Note_on_c, 0, 85, 106
2, 49456, Note_on_c, 0, 39, 98
2, 49456, Note_on_c, 0, 27, 94
2, 49466, Note_on_c, 0, 27, 0
2, 49489, Control_c, 0, 64, 127
2, 49708, Note_on_c, 0, 59, 87
2, 49709, Note_on_c, 0, 57, 74
2, 49713, Note_on_c, 0, 54, 82
2, 49833, Note_on_c, 0, 51, 90
2, 49839, Note_on_c, 0, 83, 97
2, 49845, Note_on_c, 0, 71, 90
2, 49966, Note_on_c, 0, 83, 0
2, 49971, Note_on_c, 0, 83, 102
2, 49973, Note_on_c, 0, 71, 0
2, 49973, Note_on_c, 0, 78, 0
2, 49977, Note_on_c, 0, 71, 90
2, 49978, Note_on_c, 0, 78, 92
2, 49979, Note_on_c, 0, 75, 94
2, 50104, Note_on_c, 0, 39, 0
2, 50104, Note_on_c, 0, 51, 0
2, 50108, Note_on_c, 0, 51, 86
2, 50110, Note_on_c, 0, 39, 76
2, 50219, Note_on_c, 0, 54, 0
2, 50219, Note_on_c, 0, 59, 0
2, 50230, Note_on_c, 0, 59, 87
2, 50230, Note_on_c, 0, 54, 89
2, 50236, Note_on_c, 0, 47, 74
2, 50242, Note_on_c, 0, 47, 0
2, 50350, Note_on_c, 0, 71, 0
2, 50350, Note_on_c, 0, 78, 0
2, 50350, Note_on_c, 0, 83, 0
2, 50355, Note_on_c, 0, 83, 90
2, 50358, Note_on_c, 0, 71, 85
2, 50361, Note_on_c, 0, 78, 71
2, 50408, Note_on_c, 0, 51, 0
2, 50408, Note_on_c, 0, 57, 0
2, 50408, Note_on_c, 0, 78, 0
2, 50409, Note_on_c, 0, 75, 0
2, 50409, Note_on_c, 0, 81, 0
2, 50409, Note_on_c, 0, 54, 0
2, 50409, Note_on_c, 0, 85, 0
2, 50409, Note_on_c, 0, 73, 0
2, 50409, Note_on_c, 0, 83, 0
2, 50410, Note_on_c, 0, 71, 0
2, 50410, Note_on_c, 0, 39, 0
2, 50410, Control_c, 0, 64, 0
2, 50410, Note_on_c, 0, 59, 0
2, 50480, Control_c, 0, 64, 127
2, 50488, Note_on_c, 0, 86, 103
2, 50490, Note_on_c, 0, 47, 106
2, 50491, Note_on_c, 0, 35, 96
2, 50492, Note_on_c, 0, 78, 102
2, 50493, Note_on_c, 0, 74, 101
2, 50611, Note_on_c, 0, 47, 0
2, 50618, Note_on_c, 0, 47, 85
2, 50639, Control_c, 0, 64, 0
2, 50646, Note_on_c, 0, 86, 0
2, 50646, Note_on_c, 0, 35, 0
2, 50647, Note_on_c, 0, 74, 0
2, 50648, Note_on_c, 0, 78, 0
2, 50649, Note_on_c, 0, 47, 0
2, 50759, Note_on_c, 0, 85, 89
2, 50764, Note_on_c, 0, 73, 83
2, 50800, Note_on_c, 0, 73, 0
2, 50801, Note_on_c, 0, 85, 0
2, 50883, Note_on_c, 0, 83, 106
2, 50884, Note_on_c, 0, 71, 97
2, 50888, Note_on_c, 0, 76, 101
2, 50890, Note_on_c, 0, 80, 91
2, 51006, Note_on_c, 0, 52, 98
2, 51007, Note_on_c, 0, 40, 97
2, 51018, Control_c, 0, 64, 127
2, 51125, Note_on_c, 0, 40, 0
2, 51125, Note_on_c, 0, 52, 0
2, 51128, Note_on_c, 0, 81, 103
2, 51129, Note_on_c, 0, 69, 93
2, 51130, Note_on_c, 0, 52, 91
2, 51130, Note_on_c, 0, 40, 86
2, 51275, Note_on_c, 0, 64, 97
2, 51294, Note_on_c, 0, 52, 0
2, 51301, Note_on_c, 0, 52, 90
2, 51302, Note_on_c, 0, 40, 0
2, 51311, Note_on_c, 0, 40, 81
2, 51312, Note_on_c, 0, 59, 86
2, 51328, Note_on_c, 0, 47, 78
2, 51363, Note_on_c, 0, 47, 0
2, 51370, Note_on_c, 0, 47, 75
2, 51394, Note_on_c, 0, 40, 0
2, 51401, Note_on_c, 0, 40, 84
2, 51447, Control_c, 0, 64, 0
2, 51450, Note_on_c, 0, 81, 0
2, 51450, Note_on_c, 0, 69, 0
2, 51450, Note_on_c, 0, 64, 0
2, 51450, Note_on_c, 0, 59, 0
2, 51451, Note_on_c, 0, 47, 0
2, 51451, Note_on_c, 0, 40, 0
2, 51456, Note_on_c, 0, 71, 0
2, 51456, Note_on_c, 0, 83, 0
2, 51463, Note_on_c, 0, 52, 0
2, 51463, Note_on_c, 0, 76, 0
2, 51471, Note_on_c, 0, 80, 0
2, 51512, Note_on_c, 0, 33, 96
2, 51513, Note_on_c, 0, 45, 100
2, 51513, Note_on_c, 0, 40, 86
2, 51525, Control_c, 0, 64, 127
2, 51779, Note_on_c, 0, 61, 83
2, 51780, Note_on_c, 0, 64, 85
2, 51784, Note_on_c, 0, 76, 90
2, 51787, Note_on_c, 0, 57, 73
2, 51787, Note_on_c, 0, 69, 83
2, 52039, Note_on_c, 0, 61, 0
2, 52039, Note_on_c, 0, 64, 0
2, 52039, Note_on_c, 0, 76, 0
2, 52043, Note_on_c, 0, 73, 98
2, 52044, Note_on_c, 0, 83, 101
2, 52048, Note_on_c, 0, 61, 78
2, 52048, Note_on_c, 0, 76, 81
2, 52049, Note_on_c, 0, 64, 72
2, 52300, Note_on_c, 0, 57, 0
2, 52300, Note_on_c, 0, 61, 0
2, 52300, Note_on_c, 0, 64, 0
2, 52306, Note_on_c, 0, 61, 78
2, 52307, Note_on_c, 0, 64, 87
2, 52310, Note_on_c, 0, 57, 72
2, 52311, Note_on_c, 0, 80, 89
2, 52312, Note_on_c, 0, 71, 83
2, 52316, Note_on_c, 0, 76, 0
2, 52325, Note_on_c, 0, 76, 73
2, 52431, Note_on_c, 0, 69, 0
2, 52437, Note_on_c, 0, 81, 102
2, 52439, Note_on_c, 0, 73, 0
2, 52441, Note_on_c, 0, 69, 87
2, 52443, Note_on_c, 0, 73, 93
2, 52492, Note_on_c, 0, 33, 0
2, 52493, Control_c, 0, 64, 0
2, 52494, Note_on_c, 0, 61, 0
2, 52494, Note_on_c, 0, 45, 0
2, 52494, Note_on_c, 0, 40, 0
2, 52494, Note_on_c, 0, 64, 0
2, 52494, Note_on_c, 0, 76, 0
2, 52494, Note_on_c, 0, 71, 0
2, 52495, Note_on_c, 0, 83, 0
2, 52495, Note_on_c, 0, 80, 0
2, 52508, Note_on_c, 0, 57, 0
2, 52551, Note_on_c, 0, 37, 102
2, 52553, Note_on_c, 0, 33, 83
2, 52556, Note_on_c, 0, 45, 77
2, 52561, Control_c, 0, 64, 127
2, 52815, Note_on_c, 0, 69, 0
2, 52815, Note_on_c, 0, 73, 0
2, 52815, Note_on_c, 0, 81, 0
2, 52819, Note_on_c, 0, 64, 90
2, 52822, Note_on_c, 0, 61, 79
2, 52823, Note_on_c, 0, 81, 97
2, 52824, Note_on_c, 0, 57, 75
2, 52825, Note_on_c, 0, 69, 83
2, 52826, Note_on_c, 0, 73, 93
2, 52829, Note_on_c, 0, 76, 81
2, 53084, Note_on_c, 0, 76, 0
2, 53086, Note_on_c, 0, 80, 101
2, 53087, Note_on_c, 0, 71, 91
2, 53089, Note_on_c, 0, 76, 63
2, 53184, Note_on_c, 0, 37, 0
2, 53191, Note_on_c, 0, 37, 75
2, 53192, Note_on_c, 0, 49, 71
2, 53322, Note_on_c, 0, 64, 0
2, 53322, Note_on_c, 0, 81, 0
2, 53329, Note_on_c, 0, 57, 0
2, 53329, Note_on_c, 0, 61, 0
2, 53329, Note_on_c, 0, 69, 0
2, 53329, Note_on_c, 0, 73, 0
2, 53329, Note_on_c, 0, 76, 0
2, 53333, Note_on_c, 0, 64, 93
2, 53333, Note_on_c, 0, 81, 94
2, 53333, Note_on_c, 0, 69, 89
2, 53334, Note_on_c, 0, 61, 89
2, 53338, Note_on_c, 0, 73, 92
2, 53340, Note_on_c, 0, 57, 80
2, 53340, Note_on_c, 0, 76, 80
2, 53514, Note_on_c, 0, 69, 0
2, 53519, Note_on_c, 0, 69, 74
2, 53525, Note_on_c, 0, 73, 0
2, 53525, Note_on_c, 0, 71, 0
2, 53525, Note_on_c, 0, 61, 0
2, 53525, Note_on_c, 0, 80, 0
2, 53525, Note_on_c, 0, 57, 0
2, 53525, Note_on_c, 0, 49, 0
2, 53526, Note_on_c, 0, 37, 0
2, 53526, Control_c, 0, 64, 0
2, 53527, Note_on_c, 0, 76, 0
2, 53536, Note_on_c, 0, 74, 73
2, 53537, Note_on_c, 0, 33, 0
2, 53544, Note_on_c, 0, 45, 0
2, 53544, Note_on_c, 0, 64, 0
2, 53552, Note_on_c, 0, 81, 0
2, 53560, Note_on_c, 0, 69, 0
2, 53581, Note_on_c, 0, 80, 105
2, 53586, Note_on_c, 0, 26, 74
2, 53588, Note_on_c, 0, 38, 87
2, 53592, Note_on_c, 0, 40, 75
2, 53598, Control_c, 0, 64, 127
2, 53744, Note_on_c, 0, 26, 0
2, 53834, Note_on_c, 0, 78, 94
2, 53847, Note_on_c, 0, 69, 71
2, 53847, Note_on_c, 0, 64, 86
2, 53853, Note_on_c, 0, 54, 77
2, 53854, Note_on_c, 0, 57, 71
2, 53967, Note_on_c, 0, 38, 0
2, 53967, Note_on_c, 0, 69, 0
2, 53974, Note_on_c, 0, 38, 84
2, 53974, Note_on_c, 0, 76, 99
2, 53975, Note_on_c, 0, 69, 86
2, 53976, Note_on_c, 0, 50, 83
2, 53979, Note_on_c, 0, 73, 93
2, 54228, Note_on_c, 0, 50, 0
2, 54228, Note_on_c, 0, 69, 0
2, 54238, Note_on_c, 0, 50, 79
2, 54239, Note_on_c, 0, 69, 72
2, 54246, Note_on_c, 0, 68, 57
2, 54251, Note_on_c, 0, 68, 0
2, 54343, Note_on_c, 0, 54, 0
2, 54351, Note_on_c, 0, 64, 0
2, 54354, Note_on_c, 0, 54, 75
2, 54358, Note_on_c, 0, 64, 72
2, 54359, Note_on_c, 0, 76, 0
2, 54368, Note_on_c, 0, 76, 73
2, 54474, Note_on_c, 0, 69, 0
2, 54478, Note_on_c, 0, 69, 66
2, 54478, Note_on_c, 0, 81, 84
2, 54566, Note_on_c, 0, 40, 0
2, 54586, Note_on_c, 0, 50, 0
2, 54586, Note_on_c, 0, 69, 0
2, 54586, Note_on_c, 0, 76, 0
2, 54586, Note_on_c, 0, 73, 0
2, 54587, Note_on_c, 0, 81, 0
2, 54587, Note_on_c, 0, 78, 0
2, 54588, Control_c, 0, 64, 0
2, 54597, Note_on_c, 0, 74, 0
2, 54604, Note_on_c, 0, 38, 0
2, 54604, Note_on_c, 0, 54, 0
2, 54604, Note_on_c, 0, 57, 0
2, 54604, Note_on_c, 0, 64, 0
2, 54611, Note_on_c, 0, 40, 92
2, 54612, Note_on_c, 0, 80, 0
2, 54616, Note_on_c, 0, 88, 90
2, 54623, Note_on_c, 0, 80, 82
2, 54658, Control_c, 0, 64, 127
2, 54759, Note_on_c, 0, 76, 66
2, 54865, Note_on_c, 0, 56, 82
2, 54871, Note_on_c, 0, 47, 75
2, 54876, Note_on_c, 0, 86, 92
2, 54881, Note_on_c, 0, 80, 0
2, 54890, Note_on_c, 0, 80, 77
2, 54981, Note_on_c, 0, 40, 0
2, 54987, Note_on_c, 0, 40, 84
2, 54988, Note_on_c, 0, 76, 0
2, 54994, Note_on_c, 0, 76, 77
2, 54997, Note_on_c, 0, 68, 75
2, 55084, Control_c, 0, 64, 0
2, 55084, Note_on_c, 0, 47, 0
2, 55084, Note_on_c, 0, 88, 0
2, 55084, Note_on_c, 0, 40, 0
2, 55085, Note_on_c, 0, 76, 0
2, 55085, Note_on_c, 0, 56, 0
2, 55085, Note_on_c, 0, 86, 0
2, 55087, Note_on_c, 0, 68, 0
2, 55119, Note_on_c, 0, 80, 0
2, 55121, Note_on_c, 0, 85, 93
2, 55123, Note_on_c, 0, 41, 83
2, 55124, Note_on_c, 0, 40, 86
2, 55127, Note_on_c, 0, 76, 75
2, 55127, Note_on_c, 0, 80, 82
2, 55150, Control_c, 0, 64, 127
2, 55246, Note_on_c, 0, 77, 77
2, 55372, Note_on_c, 0, 80, 0
2, 55373, Note_on_c, 0, 61, 77
2, 55375, Note_on_c, 0, 56, 80
2, 55375, Note_on_c, 0, 83, 91
2, 55381, Note_on_c, 0, 49, 76
2, 55383, Note_on_c, 0, 52, 53
2, 55383, Note_on_c, 0, 80, 77
2, 55388, Note_on_c, 0, 52, 0
2, 55488, Note_on_c, 0, 40, 0
2, 55488, Note_on_c, 0, 41, 0
2, 55488, Note_on_c, 0, 77, 0
2, 55495, Note_on_c, 0, 77, 78
2, 55496, Note_on_c, 0, 41, 82
2, 55498, Note_on_c, 0, 29, 77
2, 55499, Note_on_c, 0, 40, 71
2, 55503, Note_on_c, 0, 29, 0
2, 55575, Note_on_c, 0, 85, 0
2, 55575, Note_on_c, 0, 77, 0
2, 55575, Note_on_c, 0, 80, 0
2, 55575, Note_on_c, 0, 41, 0
2, 55575, Note_on_c, 0, 49, 0
2, 55576, Note_on_c, 0, 83, 0
2, 55576, Note_on_c, 0, 56, 0
2, 55577, Control_c, 0, 64, 0
2, 55580, Note_on_c, 0, 61, 0
2, 55587, Note_on_c, 0, 76, 0
2, 55595, Note_on_c, 0, 40, 0
2, 55634, Note_on_c, 0, 85, 96
2, 55636, Note_on_c, 0, 81, 82
2, 55637, Note_on_c, 0, 42, 89
2, 55640, Note_on_c, 0, 73, 90
2, 55641, Control_c, 0, 64, 127
2, 55891, Note_on_c, 0, 76, 94
2, 55892, Note_on_c, 0, 64, 87
2, 55896, Note_on_c, 0, 69, 88
2, 55898, Note_on_c, 0, 61, 81
2, 55899, Note_on_c, 0, 57, 72
2, 56017, Note_on_c, 0, 54, 80
2, 56140, Note_on_c, 0, 73, 0
2, 56140, Note_on_c, 0, 76, 0
2, 56141, Note_on_c, 0, 85, 0
2, 56145, Note_on_c, 0, 83, 100
2, 56147, Note_on_c, 0, 73, 93
2, 56150, Note_on_c, 0, 76, 82
2, 56271, Note_on_c, 0, 54, 0
2, 56281, Note_on_c, 0, 54, 61
2, 56401, Note_on_c, 0, 57, 0
2, 56401, Note_on_c, 0, 61, 0
2, 56401, Note_on_c, 0, 64, 0
2, 56402, Note_on_c, 0, 80, 95
2, 56405, Note_on_c, 0, 71, 88
2, 56406, Note_on_c, 0, 61, 81
2, 56407, Note_on_c, 0, 64, 77
2, 56409, Note_on_c, 0, 57, 66
2, 56524, Note_on_c, 0, 81, 0
2, 56532, Note_on_c, 0, 69, 0
2, 56532, Note_on_c, 0, 73, 0
2, 56533, Note_on_c, 0, 81, 106
2, 56536, Note_on_c, 0, 69, 93
2, 56537, Note_on_c, 0, 73, 100
2, 56589, Note_on_c, 0, 54, 0
2, 56590, Control_c, 0, 64, 0
2, 56590, Note_on_c, 0, 64, 0
2, 56590, Note_on_c, 0, 61, 0
2, 56591, Note_on_c, 0, 57, 0
2, 56591, Note_on_c, 0, 71, 0
2, 56592, Note_on_c, 0, 83, 0
2, 56593, Note_on_c, 0, 42, 0
2, 56594, Note_on_c, 0, 80, 0
2, 56597, Note_on_c, 0, 76, 0
2, 56647, Note_on_c, 0, 40, 97
2, 56655, Control_c, 0, 64, 127
2, 56920, Note_on_c, 0, 61, 78
2, 56920, Note_on_c, 0, 64, 87
2, 56926, Note_on_c, 0, 57, 76
2, 57051, Note_on_c, 0, 52, 84
2, 57308, Note_on_c, 0, 52, 0
2, 57312, Note_on_c, 0, 52, 79
2, 57312, Note_on_c, 0, 76, 96
2, 57431, Note_on_c, 0, 57, 0
2, 57431, Note_on_c, 0, 61, 0
2, 57431, Note_on_c, 0, 64, 0
2, 57431, Note_on_c, 0, 69, 0
2, 57431, Note_on_c, 0, 81, 0
2, 57435, Note_on_c, 0, 64, 88
2, 57435, Note_on_c, 0, 61, 82
2, 57437, Note_on_c, 0, 81, 94
2, 57439, Note_on_c, 0, 69, 86
2, 57441, Note_on_c, 0, 57, 80
2, 57553, Note_on_c, 0, 83, 99
2, 57553, Note_on_c, 0, 71, 88
2, 57634, Note_on_c, 0, 69, 0
2, 57634, Note_on_c, 0, 40, 0
2, 57634, Note_on_c, 0, 52, 0
2, 57634, Note_on_c, 0, 57, 0
2, 57634, Note_on_c, 0, 64, 0
2, 57634, Note_on_c, 0, 81, 0
2, 57634, Note_on_c, 0, 61, 0
2, 57634, Note_on_c, 0, 71, 0
2, 57634, Note_on_c, 0, 76, 0
2, 57635, Note_on_c, 0, 83, 0
2, 57637, Control_c, 0, 64, 0
2, 57646, Note_on_c, 0, 73, 0
2, 57681, Note_on_c, 0, 73, 97
2, 57681, Note_on_c, 0, 78, 96
2, 57682, Note_on_c, 0, 85, 100
2, 57683, Note_on_c, 0, 39, 95
2, 57685, Note_on_c, 0, 27, 88
2, 57687, Note_on_c, 0, 81, 84
2, 57715, Note_on_c, 0, 27, 0
2, 57722, Control_c, 0, 64, 127
2, 57937, Note_on_c, 0, 59, 85
2, 57942, Note_on_c, 0, 54, 81
2, 57942, Note_on_c, 0, 57, 78
2, 58058, Note_on_c, 0, 51, 87
2, 58065, Note_on_c, 0, 71, 86
2, 58066, Note_on_c, 0, 83, 96
2, 58183, Note_on_c, 0, 83, 0
2, 58191, Note_on_c, 0, 71, 0
2, 58191, Note_on_c, 0, 78, 0
2, 58195, Note_on_c, 0, 83, 103
2, 58198, Note_on_c, 0, 78, 93
2, 58201, Note_on_c, 0, 75, 92
2, 58202, Note_on_c, 0, 71, 88
2, 58337, Note_on_c, 0, 51, 0
2, 58348, Note_on_c, 0, 51, 89
2, 58452, Note_on_c, 0, 59, 0
2, 58460, Note_on_c, 0, 54, 0
2, 58462, Note_on_c, 0, 59, 88
2, 58464, Note_on_c, 0, 54, 80
2, 58567, Note_on_c, 0, 59, 0
2, 58567, Note_on_c, 0, 71, 0
2, 58567, Note_on_c, 0, 83, 0
2, 58574, Note_on_c, 0, 83, 91
2, 58578, Note_on_c, 0, 59, 77
2, 58578, Note_on_c, 0, 71, 79
2, 58633, Note_on_c, 0, 57, 0
2, 58633, Note_on_c, 0, 78, 0
2, 58633, Note_on_c, 0, 54, 0
2, 58634, Note_on_c, 0, 81, 0
2, 58634, Note_on_c, 0, 73, 0
2, 58634, Note_on_c, 0, 85, 0
2, 58634, Note_on_c, 0, 83, 0
2, 58634, Note_on_c, 0, 59, 0
2, 58634, Note_on_c, 0, 71, 0
2, 58636, Note_on_c, 0, 75, 0
2, 58636, Note_on_c, 0, 39, 0
2, 58638, Control_c, 0, 64, 0
2, 58652, Note_on_c, 0, 51, 0
2, 58705, Control_c, 0, 64, 127
2, 58714, Note_on_c, 0, 86, 105
2, 58716, Note_on_c, 0, 38, 101
2, 58717, Note_on_c, 0, 50, 101
2, 58717, Note_on_c, 0, 74, 105
2, 58717, Note_on_c, 0, 78, 97
2, 58844, Note_on_c, 0, 50, 0
2, 58854, Control_c, 0, 64, 0
2, 58854, Note_on_c, 0, 50, 93
2, 58859, Note_on_c, 0, 38, 0
2, 58877, Note_on_c, 0, 78, 0
2, 58877, Note_on_c, 0, 74, 0
2, 58880, Note_on_c, 0, 86, 0
2, 58913, Note_on_c, 0, 50, 0
2, 58984, Note_on_c, 0, 85, 94
2, 58986, Note_on_c, 0, 73, 86
2, 59029, Note_on_c, 0, 73, 0
2, 59031, Note_on_c, 0, 85, 0
2, 59116, Note_on_c, 0, 83, 103
2, 59122, Note_on_c, 0, 71, 96
2, 59122, Note_on_c, 0, 37, 97
2, 59123, Note_on_c, 0, 77, 96
2, 59123, Note_on_c, 0, 80, 90
2, 59143, Control_c, 0, 64, 127
2, 59363, Note_on_c, 0, 39, 84
2, 59364, Note_on_c, 0, 85, 102
2, 59365, Note_on_c, 0, 51, 83
2, 59369, Note_on_c, 0, 79, 79
2, 59370, Note_on_c, 0, 73, 92
2, 59381, Note_on_c, 0, 77, 0
2, 59386, Note_on_c, 0, 77, 56
2, 59453, Note_on_c, 0, 77, 0
2, 59453, Note_on_c, 0, 37, 0
2, 59453, Note_on_c, 0, 80, 0
2, 59454, Control_c, 0, 64, 0
2, 59454, Note_on_c, 0, 83, 0
2, 59454, Note_on_c, 0, 71, 0
2, 59503, Note_on_c, 0, 53, 89
2, 59504, Note_on_c, 0, 51, 0
2, 59507, Note_on_c, 0, 41, 79
2, 59527, Control_c, 0, 64, 127
2, 59658, Note_on_c, 0, 53, 0
2, 59658, Note_on_c, 0, 79, 0
2, 59663, Note_on_c, 0, 53, 57
2, 59758, Note_on_c, 0, 39, 0
2, 59772, Note_on_c, 0, 41, 0
2, 59774, Note_on_c, 0, 53, 0
2, 59777, Control_c, 0, 64, 0
2, 59780, Note_on_c, 0, 54, 67
2, 59781, Note_on_c, 0, 85, 0
2, 59783, Note_on_c, 0, 30, 67
2, 59783, Note_on_c, 0, 42, 81
2, 59788, Note_on_c, 0, 73, 0
2, 59834, Note_on_c, 0, 30, 0
2, 59880, Note_on_c, 0, 54, 0
2, 59917, Note_on_c, 0, 49, 55
2, 59942, Control_c, 0, 64, 127
2, 60043, Note_on_c, 0, 61, 73
2, 60178, Note_on_c, 0, 54, 58
2, 60180, Note_on_c, 0, 57, 66
2, 60316, Note_on_c, 0, 66, 81
2, 60441, Note_on_c, 0, 73, 71
2, 60560, Note_on_c, 0, 78, 80
2, 60571, Note_on_c, 0, 69, 81
2, 60829, Note_on_c, 0, 61, 0
2, 60829, Note_on_c, 0, 66, 0
2, 60830, Note_on_c, 0, 49, 0
2, 60830, Note_on_c, 0, 54, 0
2, 60830, Note_on_c, 0, 73, 0
2, 60830, Note_on_c, 0, 57, 0
2, 60830, Control_c, 0, 64, 0
2, 60831, Note_on_c, 0, 69, 0
2, 60831, Note_on_c, 0, 78, 0
2, 60835, Note_on_c, 0, 41, 62
2, 60838, Note_on_c, 0, 68, 85
2, 60848, Note_on_c, 0, 42, 0
2, 60940, Control_c, 0, 64, 127
2, 60960, Note_on_c, 0, 49, 55
2, 61088, Note_on_c, 0, 69, 76
2, 61209, Note_on_c, 0, 68, 0
2, 61219, Note_on_c, 0, 68, 85
2, 61222, Note_on_c, 0, 53, 61
2, 61227, Note_on_c, 0, 56, 61
2, 61492, Note_on_c, 0, 73, 66
2, 61596, Note_on_c, 0, 80, 76
2, 61606, Note_on_c, 0, 77, 66
2, 61858, Note_on_c, 0, 49, 0
2, 61858, Note_on_c, 0, 53, 0
2, 61858, Note_on_c, 0, 41, 0
2, 61859, Note_on_c, 0, 73, 0
2, 61859, Note_on_c, 0, 69, 0
2, 61859, Note_on_c, 0, 56, 0
2, 61859, Note_on_c, 0, 77, 0
2, 61861, Control_c, 0, 64, 0
2, 61877, Note_on_c, 0, 68, 0
2, 61882, Note_on_c, 0, 40, 70
2, 61954, Control_c, 0, 64, 127
2, 62032, Note_on_c, 0, 49, 71
2, 62127, Note_on_c, 0, 64, 74
2, 62246, Note_on_c, 0, 64, 0
2, 62250, Note_on_c, 0, 52, 70
2, 62251, Note_on_c, 0, 56, 66
2, 62254, Note_on_c, 0, 64, 70
2, 62389, Note_on_c, 0, 68, 84
2, 62498, Note_on_c, 0, 73, 71
2, 62584, Note_on_c, 0, 80, 0
2, 62592, Note_on_c, 0, 80, 75
2, 62612, Note_on_c, 0, 76, 65
2, 62641, Note_on_c, 0, 61, 83
2, 62753, Note_on_c, 0, 61, 0
2, 62760, Note_on_c, 0, 61, 77
2, 62860, Note_on_c, 0, 40, 0
2, 62866, Note_on_c, 0, 49, 0
2, 62866, Note_on_c, 0, 68, 0
2, 62867, Note_on_c, 0, 73, 0
2, 62867, Note_on_c, 0, 52, 0
2, 62868, Note_on_c, 0, 56, 0
2, 62868, Note_on_c, 0, 64, 0
2, 62869, Note_on_c, 0, 76, 0
2, 62872, Control_c, 0, 64, 0
2, 62876, Note_on_c, 0, 61, 0
2, 62881, Note_on_c, 0, 39, 70
2, 62883, Note_on_c, 0, 80, 0
2, 62884, Note_on_c, 0, 61, 74
2, 62983, Control_c, 0, 64, 127
2, 63001, Note_on_c, 0, 47, 72
2, 63034, Note_on_c, 0, 71, 78
2, 63153, Note_on_c, 0, 68, 81
2, 63258, Note_on_c, 0, 51, 77
2, 63264, Note_on_c, 0, 54, 67
2, 63271, Note_on_c, 0, 59, 58
2, 63273, Note_on_c, 0, 69, 85
2, 63521, Note_on_c, 0, 69, 0
2, 63521, Note_on_c, 0, 71, 0
2, 63530, Note_on_c, 0, 69, 54
2, 63531, Note_on_c, 0, 71, 68
2, 63663, Note_on_c, 0, 78, 64
2, 63664, Note_on_c, 0, 75, 76
2, 63847, Control_c, 0, 64, 0
2, 63848, Note_on_c, 0, 47, 0
2, 63848, Note_on_c, 0, 69, 0
2, 63848, Note_on_c, 0, 51, 0
2, 63849, Note_on_c, 0, 54, 0
2, 63849, Note_on_c, 0, 68, 0
2, 63850, Note_on_c, 0, 61, 0
2, 63859, Note_on_c, 0, 39, 0
2, 63866, Note_on_c, 0, 59, 0
2, 63919, Note_on_c, 0, 47, 84
2, 63923, Note_on_c, 0, 35, 76
2, 63928, Note_on_c, 0, 71, 0
2, 63943, Control_c, 0, 64, 127
2, 64035, Note_on_c, 0, 35, 0
2, 64035, Note_on_c, 0, 47, 0
2, 64035, Note_on_c, 0, 75, 0
2, 64035, Note_on_c, 0, 78, 0
2, 64045, Note_on_c, 0, 69, 70
2, 64045, Note_on_c, 0, 75, 70
2, 64046, Note_on_c, 0, 35, 72
2, 64046, Note_on_c, 0, 78, 68
2, 64046, Note_on_c, 0, 47, 81
2, 64185, Note_on_c, 0, 76, 84
2, 64190, Note_on_c, 0, 59, 58
2, 64191, Note_on_c, 0, 64, 76
2, 64197, Note_on_c, 0, 59, 0
2, 64296, Note_on_c, 0, 64, 0
2, 64296, Note_on_c, 0, 76, 0
2, 64304, Note_on_c, 0, 69, 0
2, 64307, Note_on_c, 0, 76, 88
2, 64307, Note_on_c, 0, 64, 85
2, 64313, Note_on_c, 0, 69, 70
2, 64314, Note_on_c, 0, 57, 75
2, 64315, Note_on_c, 0, 54, 74
2, 64419, Note_on_c, 0, 69, 0
2, 64427, Note_on_c, 0, 81, 96
2, 64429, Note_on_c, 0, 69, 83
2, 64519, Note_on_c, 0, 47, 0
2, 64523, Note_on_c, 0, 47, 79
2, 64527, Note_on_c, 0, 35, 0
2, 64532, Note_on_c, 0, 35, 66
2, 64549, Note_on_c, 0, 86, 96
2, 64555, Note_on_c, 0, 74, 88
2, 64665, Note_on_c, 0, 57, 0
2, 64674, Note_on_c, 0, 57, 82
2, 64675, Note_on_c, 0, 62, 86
2, 64803, Note_on_c, 0, 76, 0
2, 64806, Note_on_c, 0, 85, 104
2, 64808, Note_on_c, 0, 73, 93
2, 64810, Note_on_c, 0, 76, 91
2, 64852, Note_on_c, 0, 69, 0
2, 64852, Note_on_c, 0, 64, 0
2, 64852, Note_on_c, 0, 86, 0
2, 64852, Note_on_c, 0, 47, 0
2, 64852, Note_on_c, 0, 54, 0
2, 64852, Note_on_c, 0, 74, 0
2, 64853, Note_on_c, 0, 81, 0
2, 64853, Note_on_c, 0, 57, 0
2, 64853, Control_c, 0, 64, 0
2, 64853, Note_on_c, 0, 62, 0
2, 64857, Note_on_c, 0, 75, 0
2, 64865, Note_on_c, 0, 35, 0
2, 64865, Note_on_c, 0, 78, 0
2, 64919, Control_c, 0, 64, 127
2, 64922, Note_on_c, 0, 49, 90
2, 64923, Note_on_c, 0, 37, 90
2, 65041, Note_on_c, 0, 37, 0
2, 65049, Note_on_c, 0, 49, 0
2, 65053, Note_on_c, 0, 37, 80
2, 65053, Note_on_c, 0, 49, 80
2, 65184, Note_on_c, 0, 81, 96
2, 65189, Note_on_c, 0, 69, 78
2, 65314, Note_on_c, 0, 80, 98
2, 65314, Note_on_c, 0, 57, 79
2, 65314, Note_on_c, 0, 52, 80
2, 65315, Note_on_c, 0, 68, 100
2, 65571, Note_on_c, 0, 49, 0
2, 65571, Note_on_c, 0, 52, 0
2, 65571, Note_on_c, 0, 57, 0
2, 65571, Note_on_c, 0, 69, 0
2, 65571, Note_on_c, 0, 81, 0
2, 65575, Note_on_c, 0, 81, 103
2, 65580, Note_on_c, 0, 57, 84
2, 65580, Note_on_c, 0, 69, 90
2, 65582, Note_on_c, 0, 49, 76
2, 65582, Note_on_c, 0, 52, 70
2, 65702, Note_on_c, 0, 57, 0
2, 65708, Note_on_c, 0, 64, 86
2, 65709, Note_on_c, 0, 68, 0
2, 65712, Note_on_c, 0, 57, 74
2, 65832, Note_on_c, 0, 81, 0
2, 65840, Note_on_c, 0, 69, 0
2, 65843, Note_on_c, 0, 81, 105
2, 65845, Note_on_c, 0, 69, 100
2, 65845, Note_on_c, 0, 77, 95
2, 65846, Note_on_c, 0, 74, 101
2, 65888, Note_on_c, 0, 73, 0
2, 65888, Note_on_c, 0, 80, 0
2, 65888, Note_on_c, 0, 64, 0
2, 65889, Note_on_c, 0, 57, 0
2, 65889, Note_on_c, 0, 49, 0
2, 65889, Control_c, 0, 64, 0
2, 65890, Note_on_c, 0, 37, 0
2, 65894, Note_on_c, 0, 85, 0
2, 65902, Note_on_c, 0, 76, 0
2, 65917, Note_on_c, 0, 52, 0
2, 65982, Note_on_c, 0, 38, 100
2, 65982, Note_on_c, 0, 50, 99
2, 66009, Control_c, 0, 64, 127
2, 66129, Note_on_c, 0, 57, 61
2, 66186, Note_on_c, 0, 57, 0
2, 66193, Note_on_c, 0, 57, 67
2, 66196, Note_on_c, 0, 62, 83
2, 66255, Note_on_c, 0, 64, 83
2, 66299, Note_on_c, 0, 65, 72
2, 66362, Note_on_c, 0, 50, 0
2, 66362, Note_on_c, 0, 69, 0
2, 66369, Note_on_c, 0, 50, 73
2, 66369, Note_on_c, 0, 69, 79
2, 66416, Note_on_c, 0, 74, 0
2, 66423, Note_on_c, 0, 74, 83
2, 66485, Note_on_c, 0, 57, 0
2, 66485, Note_on_c, 0, 62, 0
2, 66489, Note_on_c, 0, 76, 85
2, 66495, Note_on_c, 0, 57, 82
2, 66495, Note_on_c, 0, 53, 83
2, 66496, Note_on_c, 0, 62, 91
2, 66562, Note_on_c, 0, 81, 0
2, 66571, Note_on_c, 0, 81, 90
2, 66615, Note_on_c, 0, 86, 88
2, 66674, Note_on_c, 0, 88, 88
2, 66698, Note_on_c, 0, 89, 51
2, 66708, Note_on_c, 0, 89, 0
2, 66743, Note_on_c, 0, 93, 95
2, 66797, Note_on_c, 0, 98, 97
2, 66831, Note_on_c, 0, 100, 73
2, 66878, Note_on_c, 0, 101, 88
2, 67023, Note_on_c, 0, 50, 0
2, 67032, Note_on_c, 0, 55, 106
2, 67034, Note_on_c, 0, 50, 94
2, 67034, Note_on_c, 0, 43, 94
2, 67036, Note_on_c, 0, 101, 0
2, 67036, Note_on_c, 0, 100, 0
2, 67037, Note_on_c, 0, 98, 0
2, 67038, Note_on_c, 0, 77, 0
2, 67038, Note_on_c, 0, 93, 0
2, 67038, Note_on_c, 0, 88, 0
2, 67038, Note_on_c, 0, 76, 0
2, 67039, Note_on_c, 0, 86, 0
2, 67039, Note_on_c, 0, 38, 0
2, 67039, Note_on_c, 0, 64, 0
2, 67040, Note_on_c, 0, 81, 0
2, 67040, Note_on_c, 0, 69, 0
2, 67040, Note_on_c, 0, 57, 0
2, 67041, Note_on_c, 0, 53, 0
2, 67041, Note_on_c, 0, 62, 0
2, 67041, Note_on_c, 0, 74, 0
2, 67043, Control_c, 0, 64, 0
2, 67046, Note_on_c, 0, 65, 0
2, 67176, Control_c, 0, 64, 127
2, 67433, Note_on_c, 0, 76, 83
2, 67494, Note_on_c, 0, 55, 0
2, 67494, Note_on_c, 0, 43, 0
2, 67494, Control_c, 0, 64, 0
2, 67497, Note_on_c, 0, 76, 0
2, 67499, Note_on_c, 0, 50, 0
2, 67552, Note_on_c, 0, 52, 107
2, 67553, Note_on_c, 0, 47, 96
2, 67553, Note_on_c, 0, 76, 97
2, 67555, Note_on_c, 0, 71, 100
2, 67555, Note_on_c, 0, 40, 100
2, 67556, Note_on_c, 0, 83, 102
2, 67559, Note_on_c, 0, 80, 89
2, 67568, Control_c, 0, 64, 127
2, 67676, Note_on_c, 0, 40, 0
2, 67677, Note_on_c, 0, 81, 97
2, 67683, Note_on_c, 0, 52, 0
2, 67687, Note_on_c, 0, 69, 77
2, 67687, Note_on_c, 0, 40, 80
2, 67688, Note_on_c, 0, 52, 77
2, 67699, Note_on_c, 0, 71, 0
2, 67703, Note_on_c, 0, 71, 59
2, 67711, Control_c, 0, 64, 0
2, 67713, Note_on_c, 0, 83, 0
2, 67717, Note_on_c, 0, 80, 0
2, 67718, Note_on_c, 0, 47, 0
2, 67718, Note_on_c, 0, 40, 0
2, 67719, Note_on_c, 0, 76, 0
2, 67719, Note_on_c, 0, 81, 0
2, 67724, Note_on_c, 0, 69, 0
2, 67745, Note_on_c, 0, 52, 0
2, 67745, Note_on_c, 0, 71, 0
2, 67821, Note_on_c, 0, 80, 87
2, 67823, Note_on_c, 0, 68, 80
2, 67857, Note_on_c, 0, 68, 0
2, 67863, Note_on_c, 0, 80, 0
2, 67942, Note_on_c, 0, 81, 101
2, 67943, Note_on_c, 0, 69, 91
2, 67945, Note_on_c, 0, 76, 100
2, 67948, Note_on_c, 0, 73, 96
2, 68072, Note_on_c, 0, 45, 99
2, 68072, Note_on_c, 0, 33, 91
2, 68090, Control_c, 0, 64, 127
2, 68346, Note_on_c, 0, 52, 71
2, 68347, Note_on_c, 0, 59, 75
2, 68409, Note_on_c, 0, 64, 69
2, 68467, Note_on_c, 0, 71, 81
2, 68490, Note_on_c, 0, 73, 0
2, 68497, Note_on_c, 0, 73, 95
2, 68743, Note_on_c, 0, 45, 0
2, 68743, Note_on_c, 0, 52, 0
2, 68749, Note_on_c, 0, 52, 66
2, 68751, Note_on_c, 0, 64, 0
2, 68754, Note_on_c, 0, 45, 70
2, 68761, Note_on_c, 0, 64, 77
2, 68866, Note_on_c, 0, 69, 0
2, 68874, Note_on_c, 0, 52, 0
2, 68875, Note_on_c, 0, 69, 83
2, 68881, Note_on_c, 0, 52, 71
2, 68897, Note_on_c, 0, 59, 0
2, 68904, Note_on_c, 0, 59, 66
2, 68997, Note_on_c, 0, 73, 0
2, 69007, Note_on_c, 0, 73, 87
2, 69120, Note_on_c, 0, 71, 0
2, 69127, Note_on_c, 0, 71, 89
2, 69127, Note_on_c, 0, 64, 0
2, 69127, Note_on_c, 0, 69, 0
2, 69132, Note_on_c, 0, 37, 93
2, 69135, Note_on_c, 0, 64, 83
2, 69137, Note_on_c, 0, 69, 87
2, 69137, Note_on_c, 0, 65, 77
2, 69139, Note_on_c, 0, 49, 80
2, 69142, Control_c, 0, 64, 0
2, 69143, Note_on_c, 0, 65, 0
2, 69158, Note_on_c, 0, 52, 0
2, 69161, Note_on_c, 0, 81, 0
2, 69161, Note_on_c, 0, 76, 0
2, 69162, Note_on_c, 0, 59, 0
2, 69162, Note_on_c, 0, 73, 0
2, 69166, Note_on_c, 0, 33, 0
2, 69173, Note_on_c, 0, 45, 0
2, 69219, Control_c, 0, 64, 127
2, 69385, Note_on_c, 0, 59, 87
2, 69401, Note_on_c, 0, 57, 72
2, 69404, Note_on_c, 0, 52, 71
2, 69504, Note_on_c, 0, 49, 0
2, 69515, Note_on_c, 0, 49, 69
2, 69519, Note_on_c, 0, 57, 0
2, 69527, Note_on_c, 0, 52, 0
2, 69529, Note_on_c, 0, 57, 77
2, 69530, Note_on_c, 0, 88, 86
2, 69531, Note_on_c, 0, 76, 95
2, 69534, Note_on_c, 0, 88, 0
2, 69536, Note_on_c, 0, 52, 61
2, 69757, Note_on_c, 0, 49, 0
2, 69768, Note_on_c, 0, 49, 71
2, 69895, Note_on_c, 0, 69, 0
2, 69903, Note_on_c, 0, 57, 0
2, 69906, Note_on_c, 0, 69, 90
2, 69911, Note_on_c, 0, 52, 0
2, 69911, Note_on_c, 0, 59, 0
2, 69913, Note_on_c, 0, 57, 77
2, 69919, Note_on_c, 0, 59, 79
2, 69922, Note_on_c, 0, 52, 72
2, 70010, Note_on_c, 0, 49, 0
2, 70015, Note_on_c, 0, 49, 70
2, 70154, Note_on_c, 0, 59, 0
2, 70154, Control_c, 0, 64, 0
2, 70154, Note_on_c, 0, 49, 0
2, 70154, Note_on_c, 0, 37, 0
2, 70155, Note_on_c, 0, 52, 0
2, 70156, Note_on_c, 0, 57, 0
2, 70156, Note_on_c, 0, 76, 0
2, 70164, Note_on_c, 0, 64, 0
2, 70164, Note_on_c, 0, 71, 0
2, 70166, Note_on_c, 0, 68, 97
2, 70173, Note_on_c, 0, 38, 87
2, 70175, Note_on_c, 0, 50, 89
2, 70175, Note_on_c, 0, 64, 85
2, 70175, Note_on_c, 0, 62, 85
2, 70179, Note_on_c, 0, 69, 0
2, 70248, Control_c, 0, 64, 127
2, 70424, Note_on_c, 0, 57, 70
2, 70424, Note_on_c, 0, 54, 69
2, 70556, Note_on_c, 0, 50, 0
2, 70556, Note_on_c, 0, 62, 0
2, 70561, Note_on_c, 0, 66, 92
2, 70563, Note_on_c, 0, 62, 73
2, 70565, Note_on_c, 0, 50, 77
2, 70832, Note_on_c, 0, 62, 0
2, 70832, Note_on_c, 0, 68, 0
2, 70837, Note_on_c, 0, 68, 64
2, 70838, Note_on_c, 0, 62, 78
2, 70947, Note_on_c, 0, 66, 0
2, 70955, Note_on_c, 0, 54, 0
2, 70955, Note_on_c, 0, 57, 0
2, 70957, Note_on_c, 0, 66, 85
2, 70965, Note_on_c, 0, 57, 78
2, 70966, Note_on_c, 0, 54, 75
2, 71055, Note_on_c, 0, 50, 0
2, 71064, Note_on_c, 0, 50, 85
2, 71086, Note_on_c, 0, 69, 81
2, 71189, Note_on_c, 0, 54, 0
2, 71190, Note_on_c, 0, 62, 0
2, 71190, Note_on_c, 0, 69, 0
2, 71190, Note_on_c, 0, 50, 0
2, 71190, Note_on_c, 0, 57, 0
2, 71190, Note_on_c, 0, 66, 0
2, 71191, Note_on_c, 0, 64, 0
2, 71191, Note_on_c, 0, 38, 0
2, 71196, Control_c, 0, 64, 0
2, 71201, Note_on_c, 0, 68, 0
2, 71209, Note_on_c, 0, 68, 82
2, 71212, Note_on_c, 0, 40, 86
2, 71212, Note_on_c, 0, 52, 88
2, 71270, Control_c, 0, 64, 127
2, 71283, Note_on_c, 0, 69, 67
2, 71339, Note_on_c, 0, 68, 0
2, 71343, Note_on_c, 0, 68, 85
2, 71343, Note_on_c, 0, 47, 74
2, 71399, Note_on_c, 0, 66, 80
2, 71462, Note_on_c, 0, 52, 0
2, 71472, Note_on_c, 0, 52, 77
2, 71472, Note_on_c, 0, 64, 79
2, 71474, Note_on_c, 0, 56, 73
2, 71516, Note_on_c, 0, 66, 0
2, 71527, Note_on_c, 0, 66, 77
2, 71569, Note_on_c, 0, 68, 0
2, 71574, Note_on_c, 0, 68, 80
2, 71639, Note_on_c, 0, 69, 0
2, 71650, Note_on_c, 0, 69, 83
2, 71711, Note_on_c, 0, 71, 89
2, 71715, Note_on_c, 0, 64, 0
2, 71716, Note_on_c, 0, 68, 0
2, 71716, Note_on_c, 0, 56, 0
2, 71716, Note_on_c, 0, 47, 0
2, 71716, Note_on_c, 0, 52, 0
2, 71716, Note_on_c, 0, 69, 0
2, 71718, Control_c, 0, 64, 0
2, 71728, Note_on_c, 0, 53, 78
2, 71728, Note_on_c, 0, 41, 75
2, 71731, Note_on_c, 0, 66, 0
2, 71738, Note_on_c, 0, 40, 0
2, 71788, Note_on_c, 0, 73, 86
2, 71792, Note_on_c, 0, 53, 0
2, 71792, Control_c, 0, 64, 127
2, 71846, Note_on_c, 0, 71, 0
2, 71853, Note_on_c, 0, 71, 82
2, 71854, Note_on_c, 0, 49, 69
2, 71930, Note_on_c, 0, 69, 71
2, 71934, Note_on_c, 0, 53, 66
2, 71988, Note_on_c, 0, 68, 87
2, 71990, Note_on_c, 0, 56, 74
2, 72053, Note_on_c, 0, 69, 0
2, 72057, Note_on_c, 0, 69, 65
2, 72099, Note_on_c, 0, 71, 0
2, 72106, Note_on_c, 0, 71, 72
2, 72166, Note_on_c, 0, 74, 86
2, 72185, Note_on_c, 0, 49, 0
2, 72186, Note_on_c, 0, 56, 0
2, 72186, Note_on_c, 0, 73, 0
2, 72186, Note_on_c, 0, 69, 0
2, 72187, Control_c, 0, 64, 0
2, 72187, Note_on_c, 0, 53, 0
2, 72187, Note_on_c, 0, 68, 0
2, 72187, Note_on_c, 0, 71, 0
2, 72199, Note_on_c, 0, 41, 0
2, 72237, Note_on_c, 0, 42, 93
2, 72238, Note_on_c, 0, 54, 90
2, 72241, Note_on_c, 0, 73, 90
2, 72246, Note_on_c, 0, 69, 71
2, 72276, Control_c, 0, 64, 127
2, 72318, Note_on_c, 0, 71, 89
2, 72414, Note_on_c, 0, 69, 0
2, 72423, Note_on_c, 0, 69, 75
2, 72460, Note_on_c, 0, 71, 0
2, 72472, Note_on_c, 0, 71, 70
2, 72503, Note_on_c, 0, 64, 85
2, 72507, Note_on_c, 0, 61, 75
2, 72524, Note_on_c, 0, 57, 67
2, 72545, Note_on_c, 0, 73, 0
2, 72551, Note_on_c, 0, 73, 82
2, 72622, Note_on_c, 0, 74, 0
2, 72626, Note_on_c, 0, 74, 87
2, 72629, Note_on_c, 0, 54, 0
2, 72633, Note_on_c, 0, 54, 74
2, 72695, Note_on_c, 0, 76, 80
2, 72742, Note_on_c, 0, 78, 82
2, 72820, Note_on_c, 0, 80, 84
2, 72880, Note_on_c, 0, 81, 85
2, 72883, Note_on_c, 0, 54, 0
2, 72891, Note_on_c, 0, 54, 78
2, 72938, Note_on_c, 0, 83, 90
2, 72992, Note_on_c, 0, 85, 91
2, 73013, Note_on_c, 0, 61, 0
2, 73013, Note_on_c, 0, 64, 0
2, 73022, Note_on_c, 0, 64, 83
2, 73024, Note_on_c, 0, 61, 77
2, 73029, Note_on_c, 0, 57, 0
2, 73033, Note_on_c, 0, 57, 74
2, 73047, Note_on_c, 0, 86, 91
2, 73105, Note_on_c, 0, 54, 0
2, 73111, Note_on_c, 0, 88, 90
2, 73112, Note_on_c, 0, 54, 75
2, 73161, Note_on_c, 0, 90, 86
2, 73221, Note_on_c, 0, 92, 95
2, 73225, Note_on_c, 0, 86, 0
2, 73225, Note_on_c, 0, 74, 0
2, 73225, Note_on_c, 0, 42, 0
2, 73225, Note_on_c, 0, 54, 0
2, 73225, Note_on_c, 0, 81, 0
2, 73225, Note_on_c, 0, 69, 0
2, 73226, Note_on_c, 0, 83, 0
2, 73226, Note_on_c, 0, 57, 0
2, 73226, Note_on_c, 0, 80, 0
2, 73226, Note_on_c, 0, 61, 0
2, 73226, Note_on_c, 0, 85, 0
2, 73226, Note_on_c, 0, 73, 0
2, 73226, Note_on_c, 0, 76, 0
2, 73227, Note_on_c, 0, 78, 0
2, 73227, Note_on_c, 0, 64, 0
2, 73228, Note_on_c, 0, 88, 0
2, 73230, Note_on_c, 0, 90, 0
2, 73236, Note_on_c, 0, 71, 0
2, 73237, Control_c, 0, 64, 0
2, 73253, Note_on_c, 0, 93, 102
2, 73253, Note_on_c, 0, 52, 103
2, 73255, Note_on_c, 0, 40, 99
2, 73297, Control_c, 0, 64, 127
2, 73328, Note_on_c, 0, 92, 0
2, 73340, Note_on_c, 0, 92, 91
2, 73382, Note_on_c, 0, 93, 0
2, 73386, Note_on_c, 0, 93, 53
2, 73423, Note_on_c, 0, 88, 82
2, 73479, Note_on_c, 0, 86, 92
2, 73509, Note_on_c, 0, 64, 88
2, 73517, Note_on_c, 0, 59, 67
2, 73525, Note_on_c, 0, 57, 58
2, 73563, Note_on_c, 0, 85, 81
2, 73620, Note_on_c, 0, 52, 0
2, 73629, Note_on_c, 0, 83, 86
2, 73630, Note_on_c, 0, 52, 79
2, 73697, Note_on_c, 0, 85, 0
2, 73705, Note_on_c, 0, 85, 83
2, 73743, Note_on_c, 0, 93, 0
2, 73745, Note_on_c, 0, 81, 96
2, 73747, Note_on_c, 0, 93, 82
2, 73823, Note_on_c, 0, 80, 74
2, 73850, Note_on_c, 0, 52, 0
2, 73857, Note_on_c, 0, 52, 81
2, 73881, Note_on_c, 0, 81, 0
2, 73886, Note_on_c, 0, 81, 88
2, 73941, Note_on_c, 0, 76, 81
2, 73996, Note_on_c, 0, 57, 0
2, 73996, Note_on_c, 0, 64, 0
2, 74004, Note_on_c, 0, 52, 0
2, 74004, Note_on_c, 0, 59, 0
2, 74007, Note_on_c, 0, 74, 89
2, 74007, Note_on_c, 0, 64, 83
2, 74007, Note_on_c, 0, 57, 75
2, 74008, Note_on_c, 0, 52, 76
2, 74008, Note_on_c, 0, 59, 79
2, 74073, Note_on_c, 0, 52, 0
2, 74077, Note_on_c, 0, 73, 83
2, 74077, Note_on_c, 0, 52, 77
2, 74140, Note_on_c, 0, 71, 82
2, 74191, Note_on_c, 0, 93, 0
2, 74192, Note_on_c, 0, 52, 0
2, 74192, Note_on_c, 0, 64, 0
2, 74192, Note_on_c, 0, 81, 0
2, 74192, Note_on_c, 0, 83, 0
2, 74192, Note_on_c, 0, 88, 0
2, 74192, Note_on_c, 0, 57, 0
2, 74192, Note_on_c, 0, 59, 0
2, 74192, Note_on_c, 0, 76, 0
2, 74192, Note_on_c, 0, 86, 0
2, 74192, Note_on_c, 0, 74, 0
2, 74192, Note_on_c, 0, 92, 0
2, 74192, Note_on_c, 0, 85, 0
2, 74192, Note_on_c, 0, 71, 0
2, 74193, Note_on_c, 0, 80, 0
2, 74196, Note_on_c, 0, 40, 0
2, 74196, Note_on_c, 0, 73, 0
2, 74197, Control_c, 0, 64, 0
2, 74207, Note_on_c, 0, 73, 85
2, 74247, Note_on_c, 0, 39, 91
2, 74249, Note_on_c, 0, 51, 99
2, 74250, Note_on_c, 0, 69, 81
2, 74265, Control_c, 0, 64, 127
2, 74299, Note_on_c, 0, 71, 56
2, 74335, Note_on_c, 0, 68, 92
2, 74414, Note_on_c, 0, 66, 85
2, 74485, Note_on_c, 0, 61, 88
2, 74508, Note_on_c, 0, 57, 64
2, 74520, Note_on_c, 0, 59, 75
2, 74535, Note_on_c, 0, 54, 83
2, 74549, Note_on_c, 0, 66, 0
2, 74561, Note_on_c, 0, 66, 86
2, 74595, Note_on_c, 0, 68, 0
2, 74601, Note_on_c, 0, 68, 90
2, 74626, Note_on_c, 0, 51, 0
2, 74636, Note_on_c, 0, 51, 78
2, 74672, Note_on_c, 0, 69, 0
2, 74680, Note_on_c, 0, 69, 80
2, 74726, Note_on_c, 0, 73, 0
2, 74734, Note_on_c, 0, 73, 90
2, 74792, Note_on_c, 0, 78, 91
2, 74841, Note_on_c, 0, 73, 0
2, 74848, Note_on_c, 0, 73, 86
2, 74864, Note_on_c, 0, 51, 0
2, 74874, Note_on_c, 0, 51, 86
2, 74915, Note_on_c, 0, 81, 90
2, 74964, Note_on_c, 0, 78, 0
2, 74974, Note_on_c, 0, 78, 96
2, 74995, Note_on_c, 0, 54, 0
2, 74999, Note_on_c, 0, 54, 75
2, 75005, Note_on_c, 0, 85, 104
2, 75018, Note_on_c, 0, 59, 0
2, 75022, Note_on_c, 0, 59, 89
2, 75079, Note_on_c, 0, 51, 0
2, 75086, Note_on_c, 0, 51, 93
2, 75087, Note_on_c, 0, 81, 0
2, 75091, Note_on_c, 0, 81, 87
2, 75146, Note_on_c, 0, 90, 102
2, 75171, Note_on_c, 0, 85, 0
2, 75183, Note_on_c, 0, 85, 84
2, 75210, Note_on_c, 0, 69, 0
2, 75210, Note_on_c, 0, 68, 0
2, 75210, Note_on_c, 0, 54, 0
2, 75210, Note_on_c, 0, 66, 0
2, 75211, Note_on_c, 0, 59, 0
2, 75212, Note_on_c, 0, 73, 0
2, 75212, Note_on_c, 0, 51, 0
2, 75212, Note_on_c, 0, 57, 0
2, 75212, Note_on_c, 0, 61, 0
2, 75212, Note_on_c, 0, 78, 0
2, 75212, Note_on_c, 0, 39, 0
2, 75213, Note_on_c, 0, 90, 0
2, 75213, Control_c, 0, 64, 0
2, 75233, Note_on_c, 0, 71, 0
2, 75240, Note_on_c, 0, 85, 0
2, 75248, Note_on_c, 0, 81, 0
2, 75255, Note_on_c, 0, 52, 109
2, 75258, Note_on_c, 0, 93, 107
2, 75259, Note_on_c, 0, 81, 98
2, 75259, Note_on_c, 0, 40, 101
2, 75264, Note_on_c, 0, 86, 93
2, 75271, Control_c, 0, 64, 127
2, 75386, Note_on_c, 0, 52, 0
2, 75386, Note_on_c, 0, 93, 0
2, 75392, Note_on_c, 0, 93, 96
2, 75394, Note_on_c, 0, 40, 0
2, 75394, Note_on_c, 0, 81, 0
2, 75394, Note_on_c, 0, 86, 0
2, 75397, Note_on_c, 0, 52, 96
2, 75398, Note_on_c, 0, 81, 85
2, 75399, Note_on_c, 0, 40, 86
2, 75400, Note_on_c, 0, 90, 83
2, 75400, Note_on_c, 0, 86, 86
2, 75442, Note_on_c, 0, 81, 0
2, 75442, Control_c, 0, 64, 0
2, 75443, Note_on_c, 0, 93, 0
2, 75443, Note_on_c, 0, 86, 0
2, 75443, Note_on_c, 0, 52, 0
2, 75443, Note_on_c, 0, 40, 0
2, 75456, Note_on_c, 0, 90, 0
2, 75676, Note_on_c, 0, 81, 98
2, 75682, Note_on_c, 0, 52, 89
2, 75682, Note_on_c, 0, 62, 92
2, 75682, Note_on_c, 0, 69, 82
2, 75683, Note_on_c, 0, 71, 86
2, 75683, Note_on_c, 0, 74, 89
2, 75684, Note_on_c, 0, 59, 86
2, 75694, Control_c, 0, 64, 127
2, 75801, Note_on_c, 0, 69, 0
2, 75801, Note_on_c, 0, 71, 0
2, 75801, Note_on_c, 0, 81, 0
2, 75809, Note_on_c, 0, 59, 0
2, 75809, Note_on_c, 0, 62, 0
2, 75811, Note_on_c, 0, 81, 93
2, 75812, Note_on_c, 0, 69, 84
2, 75812, Note_on_c, 0, 71, 84
2, 75815, Note_on_c, 0, 62, 83
2, 75816, Note_on_c, 0, 59, 77
2, 75820, Note_on_c, 0, 64, 70
2, 75867, Control_c, 0, 64, 0
2, 75920, Note_on_c, 0, 59, 0
2, 75924, Note_on_c, 0, 64, 0
2, 75928, Note_on_c, 0, 74, 0
2, 75929, Note_on_c, 0, 81, 0
2, 75930, Note_on_c, 0, 62, 0
2, 75931, Note_on_c, 0, 69, 0
2, 75939, Note_on_c, 0, 52, 0
2, 75955, Note_on_c, 0, 71, 0
2, 76095, Note_on_c, 0, 28, 70
2, 76222, Note_on_c, 0, 69, 89
2, 76229, Note_on_c, 0, 40, 72
2, 76233, Note_on_c, 0, 65, 77
2, 76234, Note_on_c, 0, 57, 78
2, 76235, Note_on_c, 0, 62, 74
2, 76285, Control_c, 0, 64, 127
2, 76492, Note_on_c, 0, 40, 0
2, 76500, Note_on_c, 0, 40, 51
2, 76635, Note_on_c, 0, 47, 56
2, 76750, Note_on_c, 0, 50, 68
2, 76872, Note_on_c, 0, 53, 62
2, 76984, Note_on_c, 0, 50, 0
2, 76992, Note_on_c, 0, 50, 56
2, 77130, Note_on_c, 0, 57, 0
2, 77135, Note_on_c, 0, 57, 54
2, 77245, Note_on_c, 0, 53, 0
2, 77252, Note_on_c, 0, 53, 60
2, 77352, Note_on_c, 0, 47, 0
2, 77362, Note_on_c, 0, 47, 38
2, 77391, Note_on_c, 0, 62, 0
2, 77396, Note_on_c, 0, 62, 65
2, 77521, Note_on_c, 0, 57, 0
2, 77526, Note_on_c, 0, 57, 57
2, 77660, Note_on_c, 0, 57, 0
2, 77667, Note_on_c, 0, 65, 0
2, 77669, Note_on_c, 0, 57, 53
2, 77671, Note_on_c, 0, 65, 68
2, 77790, Note_on_c, 0, 62, 0
2, 77794, Note_on_c, 0, 62, 61
2, 77913, Note_on_c, 0, 69, 0
2, 77924, Note_on_c, 0, 69, 67
2, 78028, Note_on_c, 0, 65, 0
2, 78036, Note_on_c, 0, 65, 67
2, 78165, Note_on_c, 0, 74, 73
2, 78266, Note_on_c, 0, 40, 0
2, 78270, Note_on_c, 0, 40, 58
2, 78282, Note_on_c, 0, 69, 0
2, 78291, Note_on_c, 0, 69, 62
2, 78374, Note_on_c, 0, 47, 0
2, 78380, Note_on_c, 0, 47, 64
2, 78408, Control_c, 0, 64, 0
2, 78413, Note_on_c, 0, 53, 0
2, 78414, Note_on_c, 0, 62, 0
2, 78414, Note_on_c, 0, 57, 0
2, 78414, Note_on_c, 0, 50, 0
2, 78415, Note_on_c, 0, 65, 0
2, 78416, Note_on_c, 0, 69, 0
2, 78428, Note_on_c, 0, 28, 0
2, 78438, Note_on_c, 0, 76, 68
2, 78443, Note_on_c, 0, 74, 0
2, 78454, Note_on_c, 0, 68, 57
2, 78454, Note_on_c, 0, 74, 49
2, 78455, Note_on_c, 0, 56, 51
2, 78535, Control_c, 0, 64, 127
2, 78574, Note_on_c, 0, 74, 0
2, 78579, Note_on_c, 0, 74, 67
2, 78700, Note_on_c, 0, 73, 66
2, 78827, Note_on_c, 0, 74, 0
2, 78833, Note_on_c, 0, 74, 72
2, 78958, Note_on_c, 0, 76, 0
2, 78963, Note_on_c, 0, 76, 72
2, 78991, Note_on_c, 0, 68, 0
2, 78991, Note_on_c, 0, 56, 0
2, 78992, Note_on_c, 0, 74, 0
2, 78992, Note_on_c, 0, 73, 0
2, 78992, Control_c, 0, 64, 0
2, 79011, Note_on_c, 0, 47, 0
2, 79017, Note_on_c, 0, 47, 34
2, 79065, Control_c, 0, 64, 127
2, 79094, Note_on_c, 0, 74, 66
2, 79111, Note_on_c, 0, 71, 54
2, 79211, Note_on_c, 0, 76, 0
2, 79218, Note_on_c, 0, 76, 73
2, 79219, Note_on_c, 0, 73, 67
2, 79349, Note_on_c, 0, 74, 0
2, 79352, Note_on_c, 0, 78, 78
2, 79356, Note_on_c, 0, 74, 63
2, 79407, Note_on_c, 0, 73, 0
2, 79407, Note_on_c, 0, 71, 0
2, 79407, Control_c, 0, 64, 0
2, 79434, Note_on_c, 0, 76, 0
2, 79470, Note_on_c, 0, 80, 79
2, 79480, Note_on_c, 0, 74, 0
2, 79488, Control_c, 0, 64, 127
2, 79497, Note_on_c, 0, 76, 61
2, 79587, Note_on_c, 0, 78, 0
2, 79596, Note_on_c, 0, 78, 79
2, 79629, Note_on_c, 0, 74, 63
2, 79718, Note_on_c, 0, 76, 0
2, 79718, Note_on_c, 0, 80, 0
2, 79728, Note_on_c, 0, 80, 76
2, 79728, Note_on_c, 0, 76, 62
2, 79848, Note_on_c, 0, 78, 0
2, 79857, Note_on_c, 0, 81, 77
2, 79860, Note_on_c, 0, 78, 70
2, 79988, Control_c, 0, 64, 0
2, 79993, Note_on_c, 0, 74, 0
2, 79997, Note_on_c, 0, 81, 0
2, 80002, Note_on_c, 0, 80, 0
2, 80006, Note_on_c, 0, 52, 69
2, 80009, Note_on_c, 0, 80, 70
2, 80013, Note_on_c, 0, 83, 65
2, 80079, Note_on_c, 0, 47, 0
2, 80079, Control_c, 0, 64, 127
2, 80130, Note_on_c, 0, 85, 82
2, 80283, Note_on_c, 0, 86, 75
2, 80409, Note_on_c, 0, 83, 0
2, 80415, Note_on_c, 0, 83, 75
2, 80563, Note_on_c, 0, 76, 0
2, 80597, Note_on_c, 0, 50, 67
2, 80602, Note_on_c, 0, 88, 82
2, 80606, Control_c, 0, 64, 0
2, 80607, Note_on_c, 0, 86, 0
2, 80608, Note_on_c, 0, 83, 0
2, 80608, Note_on_c, 0, 85, 0
2, 80611, Note_on_c, 0, 52, 0
2, 80611, Note_on_c, 0, 80, 0
2, 80616, Note_on_c, 0, 78, 0
2, 80617, Note_on_c, 0, 81, 63
2, 80624, Note_on_c, 0, 40, 0
2, 80640, Note_on_c, 0, 78, 55
2, 80640, Note_on_c, 0, 76, 51
2, 80747, Control_c, 0, 64, 127
2, 80772, Note_on_c, 0, 57, 49
2, 80816, Note_on_c, 0, 50, 0
2, 80892, Note_on_c, 0, 64, 65
2, 81028, Note_on_c, 0, 66, 62
2, 81173, Note_on_c, 0, 69, 57
2, 81308, Note_on_c, 0, 81, 0
2, 81312, Note_on_c, 0, 81, 67
2, 81423, Note_on_c, 0, 88, 0
2, 81431, Note_on_c, 0, 88, 72
2, 81461, Note_on_c, 0, 81, 0
2, 81466, Note_on_c, 0, 81, 42
2, 81561, Note_on_c, 0, 90, 74
2, 81684, Note_on_c, 0, 52, 67
2, 81688, Control_c, 0, 64, 0
2, 81691, Note_on_c, 0, 90, 0
2, 81692, Note_on_c, 0, 78, 0
2, 81692, Note_on_c, 0, 88, 0
2, 81692, Note_on_c, 0, 69, 0
2, 81693, Note_on_c, 0, 66, 0
2, 81693, Note_on_c, 0, 64, 0
2, 81694, Note_on_c, 0, 57, 0
2, 81695, Note_on_c, 0, 76, 0
2, 81701, Note_on_c, 0, 88, 79
2, 81722, Note_on_c, 0, 81, 0
2, 81729, Note_on_c, 0, 76, 57
2, 81729, Note_on_c, 0, 81, 53
2, 81792, Control_c, 0, 64, 127
2, 81846, Note_on_c, 0, 59, 62
2, 81965, Note_on_c, 0, 64, 66
2, 82095, Note_on_c, 0, 69, 62
2, 82241, Note_on_c, 0, 68, 65
2, 82363, Note_on_c, 0, 86, 78
2, 82495, Note_on_c, 0, 85, 74
2, 82613, Note_on_c, 0, 81, 0
2, 82625, Note_on_c, 0, 81, 72
2, 82746, Note_on_c, 0, 52, 0
2, 82747, Note_on_c, 0, 68, 0
2, 82747, Note_on_c, 0, 64, 0
2, 82747, Note_on_c, 0, 86, 0
2, 82747, Note_on_c, 0, 88, 0
2, 82747, Note_on_c, 0, 69, 0
2, 82748, Note_on_c, 0, 59, 0
2, 82748, Note_on_c, 0, 81, 0
2, 82748, Note_on_c, 0, 85, 0
2, 82748, Note_on_c, 0, 54, 60
2, 82749, Control_c, 0, 64, 0
2, 82759, Note_on_c, 0, 76, 0
2, 82764, Note_on_c, 0, 76, 64
2, 82770, Note_on_c, 0, 83, 69
2, 82781, Note_on_c, 0, 80, 61
2, 82867, Control_c, 0, 64, 127
2, 82894, Note_on_c, 0, 61, 62
2, 83018, Note_on_c, 0, 64, 66
2, 83162, Note_on_c, 0, 85, 74
2, 83169, Note_on_c, 0, 69, 60
2, 83189, Note_on_c, 0, 76, 0
2, 83194, Note_on_c, 0, 76, 54
2, 83445, Note_on_c, 0, 73, 50
2, 83446, Note_on_c, 0, 81, 61
2, 83573, Note_on_c, 0, 80, 0
2, 83580, Note_on_c, 0, 80, 68
2, 83582, Note_on_c, 0, 71, 57
2, 83696, Note_on_c, 0, 69, 0
2, 83704, Note_on_c, 0, 76, 0
2, 83707, Note_on_c, 0, 69, 56
2, 83710, Note_on_c, 0, 76, 65
2, 83832, Note_on_c, 0, 74, 71
2, 83836, Note_on_c, 0, 66, 64
2, 83950, Note_on_c, 0, 64, 0
2, 83955, Note_on_c, 0, 64, 68
2, 83957, Note_on_c, 0, 73, 0
2, 83963, Note_on_c, 0, 73, 71
2, 84072, Note_on_c, 0, 62, 65
2, 84080, Note_on_c, 0, 71, 0
2, 84085, Note_on_c, 0, 71, 65
2, 84195, Note_on_c, 0, 61, 0
2, 84195, Note_on_c, 0, 73, 0
2, 84200, Note_on_c, 0, 73, 74
2, 84201, Note_on_c, 0, 61, 69
2, 84341, Note_on_c, 0, 76, 0
2, 84345, Note_on_c, 0, 59, 65
2, 84346, Note_on_c, 0, 76, 78
2, 84456, Note_on_c, 0, 81, 0
2, 84468, Note_on_c, 0, 81, 86
2, 84470, Note_on_c, 0, 57, 69
2, 84587, Note_on_c, 0, 81, 0
2, 84593, Note_on_c, 0, 88, 89
2, 84598, Note_on_c, 0, 81, 65
2, 84624, Note_on_c, 0, 56, 64
2, 84718, Note_on_c, 0, 54, 0
2, 84723, Note_on_c, 0, 86, 90
2, 84724, Note_on_c, 0, 54, 63
2, 84856, Note_on_c, 0, 85, 0
2, 84861, Note_on_c, 0, 85, 90
2, 84870, Control_c, 0, 64, 0
2, 84870, Note_on_c, 0, 56, 0
2, 84870, Note_on_c, 0, 57, 0
2, 84870, Note_on_c, 0, 73, 0
2, 84871, Note_on_c, 0, 80, 0
2, 84871, Note_on_c, 0, 71, 0
2, 84871, Note_on_c, 0, 61, 0
2, 84871, Note_on_c, 0, 66, 0
2, 84872, Note_on_c, 0, 81, 0
2, 84872, Note_on_c, 0, 83, 0
2, 84872, Note_on_c, 0, 62, 0
2, 84872, Note_on_c, 0, 59, 0
2, 84872, Note_on_c, 0, 76, 0
2, 84872, Note_on_c, 0, 54, 0
2, 84872, Note_on_c, 0, 64, 0
2, 84872, Note_on_c, 0, 86, 0
2, 84873, Note_on_c, 0, 69, 0
2, 84874, Note_on_c, 0, 88, 0
2, 84879, Note_on_c, 0, 74, 0
2, 84882, Note_on_c, 0, 47, 63
2, 84886, Note_on_c, 0, 78, 70
2, 84890, Note_on_c, 0, 74, 63
2, 84986, Control_c, 0, 64, 127
2, 85014, Note_on_c, 0, 54, 59
2, 85136, Note_on_c, 0, 62, 56
2, 85148, Note_on_c, 0, 85, 0
2, 85249, Note_on_c, 0, 73, 72
2, 85265, Note_on_c, 0, 66, 62
2, 85386, Note_on_c, 0, 74, 0
2, 85391, Note_on_c, 0, 71, 67
2, 85396, Note_on_c, 0, 74, 75
2, 85520, Note_on_c, 0, 77, 81
2, 85532, Note_on_c, 0, 71, 0
2, 85537, Note_on_c, 0, 71, 50
2, 85647, Note_on_c, 0, 78, 0
2, 85656, Note_on_c, 0, 78, 84
2, 85785, Note_on_c, 0, 73, 0
2, 85785, Note_on_c, 0, 77, 0
2, 85788, Note_on_c, 0, 79, 91
2, 85796, Note_on_c, 0, 73, 76
2, 85796, Note_on_c, 0, 77, 75
2, 85886, Note_on_c, 0, 71, 0
2, 85887, Note_on_c, 0, 54, 0
2, 85887, Note_on_c, 0, 62, 0
2, 85887, Note_on_c, 0, 74, 0
2, 85887, Note_on_c, 0, 66, 0
2, 85889, Note_on_c, 0, 47, 0
2, 85889, Control_c, 0, 64, 0
2, 85900, Note_on_c, 0, 78, 0
2, 85909, Note_on_c, 0, 49, 72
2, 85992, Control_c, 0, 64, 127
2, 86052, Note_on_c, 0, 56, 64
2, 86053, Note_on_c, 0, 80, 92
2, 86100, Note_on_c, 0, 49, 0
2, 86180, Note_on_c, 0, 65, 71
2, 86315, Note_on_c, 0, 80, 0
2, 86317, Note_on_c, 0, 85, 92
2, 86326, Note_on_c, 0, 80, 76
2, 86330, Note_on_c, 0, 77, 0
2, 86341, Note_on_c, 0, 77, 71
2, 86381, Control_c, 0, 64, 0
2, 86392, Control_c, 0, 64, 127
2, 86415, Control_c, 0, 64, 0
2, 86423, Note_on_c, 0, 79, 0
2, 86446, Note_on_c, 0, 53, 73
2, 86499, Control_c, 0, 64, 127
2, 86568, Note_on_c, 0, 80, 0
2, 86576, Note_on_c, 0, 77, 0
2, 86580, Note_on_c, 0, 80, 88
2, 86583, Note_on_c, 0, 61, 73
2, 86584, Note_on_c, 0, 77, 63
2, 86668, Note_on_c, 0, 65, 0
2, 86673, Note_on_c, 0, 65, 22
2, 86706, Note_on_c, 0, 68, 74
2, 86832, Note_on_c, 0, 83, 80
2, 86952, Note_on_c, 0, 73, 0
2, 86960, Note_on_c, 0, 83, 0
2, 86962, Control_c, 0, 64, 0
2, 86963, Note_on_c, 0, 65, 0
2, 86964, Note_on_c, 0, 68, 0
2, 86964, Note_on_c, 0, 85, 0
2, 86964, Note_on_c, 0, 53, 0
2, 86964, Note_on_c, 0, 61, 0
2, 86964, Note_on_c, 0, 77, 0
2, 86968, Note_on_c, 0, 83, 76
2, 86976, Note_on_c, 0, 56, 0
2, 86976, Note_on_c, 0, 54, 69
2, 86983, Note_on_c, 0, 80, 0
2, 86989, Note_on_c, 0, 73, 62
2, 86998, Note_on_c, 0, 76, 57
2, 87111, Note_on_c, 0, 61, 64
2, 87121, Control_c, 0, 64, 127
2, 87247, Note_on_c, 0, 64, 56
2, 87357, Note_on_c, 0, 65, 62
2, 87509, Note_on_c, 0, 66, 67
2, 87637, Note_on_c, 0, 67, 63
2, 87770, Note_on_c, 0, 68, 74
2, 87770, Note_on_c, 0, 85, 81
2, 87817, Control_c, 0, 64, 0
2, 87817, Note_on_c, 0, 65, 0
2, 87817, Note_on_c, 0, 67, 0
2, 87817, Note_on_c, 0, 54, 0
2, 87818, Note_on_c, 0, 76, 0
2, 87818, Note_on_c, 0, 66, 0
2, 87818, Note_on_c, 0, 61, 0
2, 87818, Note_on_c, 0, 83, 0
2, 87828, Note_on_c, 0, 64, 0
2, 87851, Note_on_c, 0, 73, 0
2, 87866, Note_on_c, 0, 68, 0
2, 87882, Note_on_c, 0, 85, 0
2, 87900, Note_on_c, 0, 81, 79
2, 87912, Control_c, 0, 64, 127
2, 87924, Note_on_c, 0, 76, 58
2, 87924, Note_on_c, 0, 73, 62
2, 87931, Note_on_c, 0, 69, 61
2, 88315, Note_on_c, 0, 67, 74
2, 88323, Note_on_c, 0, 62, 63
2, 88330, Note_on_c, 0, 59, 55
2, 88437, Note_on_c, 0, 52, 59
2, 88584, Note_on_c, 0, 65, 74
2, 88585, Note_on_c, 0, 51, 76
2, 88589, Note_on_c, 0, 61, 61
2, 88591, Note_on_c, 0, 55, 67
2, 88592, Note_on_c, 0, 69, 0
2, 88593, Note_on_c, 0, 52, 0
2, 88594, Note_on_c, 0, 59, 0
2, 88594, Note_on_c, 0, 62, 0
2, 88594, Note_on_c, 0, 73, 0
2, 88594, Note_on_c, 0, 81, 0
2, 88595, Note_on_c, 0, 67, 0
2, 88599, Control_c, 0, 64, 0
2, 88611, Note_on_c, 0, 76, 0
2, 88719, Control_c, 0, 64, 127
2, 88844, Note_on_c, 0, 66, 86
2, 89077, Note_on_c, 0, 65, 0
2, 89077, Note_on_c, 0, 61, 0
2, 89077, Control_c, 0, 64, 0
2, 89077, Note_on_c, 0, 51, 0
2, 89077, Note_on_c, 0, 66, 0
2, 89078, Note_on_c, 0, 55, 0
2, 89107, Note_on_c, 0, 38, 94
2, 89109, Note_on_c, 0, 76, 106
2, 89113, Note_on_c, 0, 64, 100
2, 89115, Note_on_c, 0, 69, 87
2, 89119, Note_on_c, 0, 73, 94
2, 89149, Control_c, 0, 64, 127
2, 89250, Note_on_c, 0, 57, 74
2, 89252, Note_on_c, 0, 54, 80
2, 89364, Note_on_c, 0, 38, 0
2, 89370, Note_on_c, 0, 38, 79
2, 89372, Note_on_c, 0, 76, 0
2, 89382, Note_on_c, 0, 76, 76
2, 89507, Note_on_c, 0, 81, 80
2, 89511, Note_on_c, 0, 78, 63
2, 89617, Note_on_c, 0, 38, 0
2, 89629, Note_on_c, 0, 38, 75
2, 89640, Note_on_c, 0, 76, 0
2, 89644, Note_on_c, 0, 88, 87
2, 89646, Note_on_c, 0, 76, 83
2, 89763, Note_on_c, 0, 54, 0
2, 89763, Note_on_c, 0, 57, 0
2, 89768, Note_on_c, 0, 57, 76
2, 89768, Note_on_c, 0, 54, 74
2, 89886, Note_on_c, 0, 78, 0
2, 89897, Note_on_c, 0, 78, 93
2, 89900, Note_on_c, 0, 66, 90
2, 90024, Note_on_c, 0, 64, 0
2, 90024, Note_on_c, 0, 76, 0
2, 90034, Note_on_c, 0, 76, 104
2, 90036, Note_on_c, 0, 71, 90
2, 90036, Note_on_c, 0, 64, 97
2, 90036, Note_on_c, 0, 68, 92
2, 90041, Control_c, 0, 64, 0
2, 90053, Note_on_c, 0, 54, 0
2, 90053, Note_on_c, 0, 57, 0
2, 90054, Note_on_c, 0, 81, 0
2, 90055, Note_on_c, 0, 66, 0
2, 90055, Note_on_c, 0, 78, 0
2, 90063, Note_on_c, 0, 69, 0
2, 90063, Note_on_c, 0, 73, 0
2, 90063, Note_on_c, 0, 88, 0
2, 90071, Note_on_c, 0, 38, 0
2, 90124, Control_c, 0, 64, 127
2, 90156, Note_on_c, 0, 40, 92
2, 90293, Note_on_c, 0, 68, 0
2, 90293, Note_on_c, 0, 71, 0
2, 90293, Note_on_c, 0, 76, 0
2, 90299, Note_on_c, 0, 59, 79
2, 90302, Note_on_c, 0, 71, 66
2, 90304, Note_on_c, 0, 76, 72
2, 90304, Note_on_c, 0, 56, 63
2, 90304, Note_on_c, 0, 68, 67
2, 90408, Note_on_c, 0, 40, 0
2, 90415, Note_on_c, 0, 52, 69
2, 90417, Note_on_c, 0, 40, 73
2, 90419, Note_on_c, 0, 81, 85
2, 90539, Note_on_c, 0, 56, 0
2, 90539, Note_on_c, 0, 59, 0
2, 90539, Note_on_c, 0, 68, 0
2, 90539, Note_on_c, 0, 71, 0
2, 90547, Note_on_c, 0, 68, 78
2, 90548, Note_on_c, 0, 56, 86
2, 90548, Note_on_c, 0, 59, 78
2, 90550, Note_on_c, 0, 71, 72
2, 90561, Note_on_c, 0, 83, 76
2, 90662, Note_on_c, 0, 40, 0
2, 90673, Note_on_c, 0, 40, 85
2, 90677, Note_on_c, 0, 88, 88
2, 90677, Note_on_c, 0, 76, 0
2, 90682, Note_on_c, 0, 76, 84
2, 90800, Note_on_c, 0, 59, 0
2, 90808, Note_on_c, 0, 56, 0
2, 90811, Note_on_c, 0, 59, 77
2, 90812, Note_on_c, 0, 56, 76
2, 90812, Note_on_c, 0, 74, 86
2, 90923, Note_on_c, 0, 40, 0
2, 90923, Note_on_c, 0, 56, 0
2, 90923, Note_on_c, 0, 64, 0
2, 90923, Note_on_c, 0, 68, 0
2, 90925, Note_on_c, 0, 73, 85
2, 90928, Note_on_c, 0, 64, 64
2, 90929, Note_on_c, 0, 40, 72
2, 90933, Note_on_c, 0, 56, 67
2, 90934, Note_on_c, 0, 68, 68
2, 91046, Note_on_c, 0, 56, 0
2, 91046, Note_on_c, 0, 59, 0
2, 91052, Note_on_c, 0, 69, 84
2, 91053, Note_on_c, 0, 59, 80
2, 91055, Note_on_c, 0, 56, 78
2, 91133, Note_on_c, 0, 81, 0
2, 91133, Note_on_c, 0, 56, 0
2, 91134, Note_on_c, 0, 69, 0
2, 91134, Note_on_c, 0, 73, 0
2, 91134, Note_on_c, 0, 74, 0
2, 91134, Note_on_c, 0, 83, 0
2, 91134, Note_on_c, 0, 64, 0
2, 91134, Note_on_c, 0, 68, 0
2, 91134, Note_on_c, 0, 40, 0
2, 91134, Control_c, 0, 64, 0
2, 91134, Note_on_c, 0, 59, 0
2, 91146, Note_on_c, 0, 88, 0
2, 91153, Note_on_c, 0, 52, 0
2, 91153, Note_on_c, 0, 71, 0
2, 91153, Note_on_c, 0, 76, 0
2, 91179, Note_on_c, 0, 49, 82
2, 91183, Note_on_c, 0, 71, 100
2, 91184, Note_on_c, 0, 37, 88
2, 91184, Note_on_c, 0, 49, 0
2, 91189, Note_on_c, 0, 65, 71
2, 91192, Note_on_c, 0, 68, 90
2, 91207, Control_c, 0, 64, 127
2, 91322, Note_on_c, 0, 68, 0
2, 91324, Note_on_c, 0, 56, 67
2, 91325, Note_on_c, 0, 59, 76
2, 91325, Note_on_c, 0, 64, 84
2, 91328, Note_on_c, 0, 68, 72
2, 91430, Note_on_c, 0, 37, 0
2, 91438, Note_on_c, 0, 71, 0
2, 91441, Note_on_c, 0, 37, 96
2, 91445, Note_on_c, 0, 71, 84
2, 91446, Note_on_c, 0, 76, 99
2, 91553, Note_on_c, 0, 68, 0
2, 91560, Note_on_c, 0, 71, 0
2, 91563, Note_on_c, 0, 68, 92
2, 91568, Note_on_c, 0, 59, 0
2, 91572, Note_on_c, 0, 71, 72
2, 91579, Note_on_c, 0, 59, 82
2, 91691, Note_on_c, 0, 37, 0
2, 91696, Note_on_c, 0, 49, 82
2, 91696, Note_on_c, 0, 80, 99
2, 91699, Note_on_c, 0, 71, 0
2, 91699, Note_on_c, 0, 76, 0
2, 91700, Note_on_c, 0, 37, 85
2, 91704, Note_on_c, 0, 76, 86
2, 91704, Note_on_c, 0, 71, 72
2, 91822, Note_on_c, 0, 64, 0
2, 91824, Note_on_c, 0, 60, 87
2, 91827, Note_on_c, 0, 64, 68
2, 91937, Note_on_c, 0, 37, 0
2, 91943, Note_on_c, 0, 37, 97
2, 91944, Note_on_c, 0, 64, 0
2, 91944, Note_on_c, 0, 65, 0
2, 91950, Note_on_c, 0, 64, 89
2, 91953, Note_on_c, 0, 65, 90
2, 91960, Note_on_c, 0, 71, 0
2, 91962, Note_on_c, 0, 83, 99
2, 91966, Note_on_c, 0, 71, 84
2, 92021, Note_on_c, 0, 49, 0
2, 92023, Control_c, 0, 64, 0
2, 92030, Note_on_c, 0, 71, 0
2, 92031, Note_on_c, 0, 37, 0
2, 92031, Note_on_c, 0, 83, 0
2, 92032, Note_on_c, 0, 59, 0
2, 92032, Note_on_c, 0, 64, 0
2, 92032, Note_on_c, 0, 60, 0
2, 92032, Note_on_c, 0, 80, 0
2, 92032, Note_on_c, 0, 76, 0
2, 92044, Note_on_c, 0, 65, 0
2, 92044, Note_on_c, 0, 68, 0
2, 92052, Note_on_c, 0, 56, 0
2, 92087, Note_on_c, 0, 42, 105
2, 92087, Note_on_c, 0, 54, 103
2, 92088, Note_on_c, 0, 81, 94
2, 92091, Note_on_c, 0, 69, 97
2, 92094, Note_on_c, 0, 73, 98
2, 92095, Note_on_c, 0, 76, 85
2, 92113, Control_c, 0, 64, 127
2, 92354, Note_on_c, 0, 93, 94
2, 92395, Note_on_c, 0, 64, 88
2, 92397, Note_on_c, 0, 61, 75
2, 92406, Note_on_c, 0, 57, 73
2, 92408, Note_on_c, 0, 92, 82
2, 92464, Note_on_c, 0, 88, 85
2, 92490, Note_on_c, 0, 57, 0
2, 92495, Note_on_c, 0, 57, 69
2, 92510, Note_on_c, 0, 83, 66
2, 92597, Note_on_c, 0, 69, 0
2, 92604, Note_on_c, 0, 69, 45
2, 92605, Note_on_c, 0, 61, 0
2, 92613, Note_on_c, 0, 57, 0
2, 92613, Note_on_c, 0, 61, 46
2, 92618, Note_on_c, 0, 66, 67
2, 92620, Note_on_c, 0, 54, 0
2, 92624, Note_on_c, 0, 57, 59
2, 92624, Note_on_c, 0, 54, 54
2, 92651, Note_on_c, 0, 76, 0
2, 92662, Note_on_c, 0, 76, 85
2, 92720, Note_on_c, 0, 61, 0
2, 92720, Note_on_c, 0, 64, 0
2, 92720, Note_on_c, 0, 69, 0
2, 92720, Note_on_c, 0, 81, 0
2, 92725, Note_on_c, 0, 81, 93
2, 92726, Note_on_c, 0, 64, 80
2, 92727, Note_on_c, 0, 69, 75
2, 92728, Note_on_c, 0, 57, 0
2, 92730, Note_on_c, 0, 61, 76
2, 92732, Note_on_c, 0, 57, 72
2, 92786, Note_on_c, 0, 80, 82
2, 92820, Note_on_c, 0, 76, 0
2, 92830, Note_on_c, 0, 76, 83
2, 92876, Note_on_c, 0, 71, 76
2, 92943, Note_on_c, 0, 69, 0
2, 92947, Note_on_c, 0, 69, 73
2, 92958, Note_on_c, 0, 57, 0
2, 92964, Note_on_c, 0, 57, 65
2, 92970, Note_on_c, 0, 52, 89
2, 93029, Note_on_c, 0, 68, 83
2, 93110, Note_on_c, 0, 30, 73
2, 93117, Note_on_c, 0, 59, 74
2, 93170, Note_on_c, 0, 93, 0
2, 93170, Note_on_c, 0, 81, 0
2, 93170, Note_on_c, 0, 92, 0
2, 93170, Note_on_c, 0, 61, 0
2, 93170, Note_on_c, 0, 57, 0
2, 93170, Note_on_c, 0, 83, 0
2, 93170, Note_on_c, 0, 52, 0
2, 93170, Note_on_c, 0, 80, 0
2, 93170, Note_on_c, 0, 64, 0
2, 93170, Note_on_c, 0, 66, 0
2, 93170, Note_on_c, 0, 71, 0
2, 93171, Note_on_c, 0, 73, 0
2, 93171, Note_on_c, 0, 54, 0
2, 93171, Note_on_c, 0, 76, 0
2, 93171, Note_on_c, 0, 88, 0
2, 93172, Control_c, 0, 64, 0
2, 93173, Note_on_c, 0, 42, 0
2, 93173, Note_on_c, 0, 30, 0
2, 93181, Note_on_c, 0, 68, 0
2, 93181, Note_on_c, 0, 69, 0
2, 93189, Note_on_c, 0, 59, 0
2, 93220, Note_on_c, 0, 69, 101
2, 93224, Note_on_c, 0, 62, 93
2, 93225, Note_on_c, 0, 66, 95
2, 93227, Note_on_c, 0, 35, 85
2, 93258, Control_c, 0, 64, 127
2, 93362, Note_on_c, 0, 57, 65
2, 93363, Note_on_c, 0, 54, 81
2, 93480, Note_on_c, 0, 69, 0
2, 93488, Note_on_c, 0, 57, 0
2, 93488, Note_on_c, 0, 62, 0
2, 93488, Note_on_c, 0, 66, 0
2, 93489, Note_on_c, 0, 69, 74
2, 93493, Note_on_c, 0, 57, 63
2, 93496, Note_on_c, 0, 54, 0
2, 93497, Note_on_c, 0, 66, 57
2, 93499, Note_on_c, 0, 62, 56
2, 93501, Note_on_c, 0, 54, 54
2, 93611, Note_on_c, 0, 54, 0
2, 93611, Note_on_c, 0, 57, 0
2, 93611, Note_on_c, 0, 62, 0
2, 93611, Note_on_c, 0, 66, 0
2, 93611, Note_on_c, 0, 69, 0
2, 93614, Note_on_c, 0, 74, 81
2, 93619, Note_on_c, 0, 57, 66
2, 93621, Note_on_c, 0, 54, 66
2, 93621, Note_on_c, 0, 69, 67
2, 93622, Note_on_c, 0, 62, 59
2, 93622, Note_on_c, 0, 66, 70
2, 93742, Note_on_c, 0, 35, 0
2, 93742, Note_on_c, 0, 66, 0
2, 93742, Note_on_c, 0, 69, 0
2, 93747, Note_on_c, 0, 66, 72
2, 93747, Note_on_c, 0, 47, 74
2, 93748, Note_on_c, 0, 35, 75
2, 93750, Note_on_c, 0, 81, 91
2, 93753, Note_on_c, 0, 69, 72
2, 93872, Note_on_c, 0, 54, 0
2, 93880, Note_on_c, 0, 57, 0
2, 93881, Note_on_c, 0, 54, 81
2, 93887, Note_on_c, 0, 57, 66
2, 93995, Note_on_c, 0, 35, 0
2, 93995, Note_on_c, 0, 47, 0
2, 93995, Note_on_c, 0, 74, 0
2, 94003, Note_on_c, 0, 62, 0
2, 94003, Note_on_c, 0, 66, 0
2, 94003, Note_on_c, 0, 69, 0
2, 94005, Note_on_c, 0, 47, 76
2, 94005, Note_on_c, 0, 35, 79
2, 94006, Note_on_c, 0, 74, 93
2, 94007, Note_on_c, 0, 59, 70
2, 94008, Note_on_c, 0, 66, 81
2, 94008, Note_on_c, 0, 69, 71
2, 94010, Note_on_c, 0, 62, 79
2, 94116, Control_c, 0, 64, 0
2, 94126, Note_on_c, 0, 59, 0
2, 94130, Note_on_c, 0, 81, 0
2, 94130, Note_on_c, 0, 62, 0
2, 94130, Note_on_c, 0, 74, 0
2, 94130, Note_on_c, 0, 54, 0
2, 94130, Note_on_c, 0, 35, 0
2, 94130, Note_on_c, 0, 69, 0
2, 94130, Note_on_c, 0, 47, 0
2, 94132, Note_on_c, 0, 66, 0
2, 94139, Note_on_c, 0, 76, 104
2, 94141, Note_on_c, 0, 57, 0
2, 94143, Note_on_c, 0, 64, 101
2, 94144, Note_on_c, 0, 68, 91
2, 94145, Note_on_c, 0, 52, 80
2, 94151, Note_on_c, 0, 71, 76
2, 94152, Note_on_c, 0, 57, 74
2, 94202, Control_c, 0, 64, 127
2, 94210, Note_on_c, 0, 52, 0
2, 94253, Note_on_c, 0, 40, 92
2, 94254, Note_on_c, 0, 28, 85
2, 94394, Note_on_c, 0, 59, 75
2, 94398, Note_on_c, 0, 56, 70
2, 94402, Note_on_c, 0, 68, 0
2, 94410, Note_on_c, 0, 64, 0
2, 94410, Note_on_c, 0, 68, 68
2, 94420, Note_on_c, 0, 64, 45
2, 94421, Note_on_c, 0, 52, 44
2, 94517, Note_on_c, 0, 52, 0
2, 94524, Note_on_c, 0, 52, 64
2, 94525, Note_on_c, 0, 40, 0
2, 94535, Note_on_c, 0, 40, 65
2, 94541, Note_on_c, 0, 81, 85
2, 94648, Note_on_c, 0, 59, 0
2, 94654, Note_on_c, 0, 59, 80
2, 94656, Note_on_c, 0, 56, 0
2, 94656, Note_on_c, 0, 68, 0
2, 94661, Note_on_c, 0, 56, 68
2, 94667, Note_on_c, 0, 68, 71
2, 94673, Note_on_c, 0, 83, 82
2, 94686, Note_on_c, 0, 80, 55
2, 94778, Note_on_c, 0, 88, 89
2, 94778, Note_on_c, 0, 28, 0
2, 94778, Note_on_c, 0, 40, 0
2, 94778, Note_on_c, 0, 76, 0
2, 94783, Note_on_c, 0, 76, 91
2, 94783, Note_on_c, 0, 40, 80
2, 94788, Note_on_c, 0, 28, 83
2, 94919, Note_on_c, 0, 86, 87
2, 94920, Note_on_c, 0, 74, 94
2, 95036, Note_on_c, 0, 61, 59
2, 95036, Note_on_c, 0, 73, 88
2, 95040, Note_on_c, 0, 68, 0
2, 95044, Note_on_c, 0, 68, 61
2, 95055, Note_on_c, 0, 59, 0
2, 95064, Note_on_c, 0, 59, 58
2, 95147, Note_on_c, 0, 56, 0
2, 95154, Note_on_c, 0, 69, 81
2, 95155, Note_on_c, 0, 59, 0
2, 95158, Note_on_c, 0, 56, 78
2, 95159, Note_on_c, 0, 68, 0
2, 95159, Note_on_c, 0, 59, 74
2, 95248, Note_on_c, 0, 28, 0
2, 95249, Note_on_c, 0, 40, 0
2, 95250, Note_on_c, 0, 69, 0
2, 95250, Note_on_c, 0, 73, 0
2, 95250, Note_on_c, 0, 74, 0
2, 95250, Note_on_c, 0, 86, 0
2, 95250, Note_on_c, 0, 80, 0
2, 95250, Note_on_c, 0, 83, 0
2, 95250, Note_on_c, 0, 88, 0
2, 95250, Note_on_c, 0, 56, 0
2, 95250, Note_on_c, 0, 81, 0
2, 95250, Note_on_c, 0, 59, 0
2, 95251, Note_on_c, 0, 76, 0
2, 95257, Control_c, 0, 64, 0
2, 95262, Note_on_c, 0, 57, 0
2, 95262, Note_on_c, 0, 61, 0
2, 95262, Note_on_c, 0, 71, 0
2, 95270, Note_on_c, 0, 52, 0
2, 95270, Note_on_c, 0, 64, 0
2, 95297, Note_on_c, 0, 71, 103
2, 95298, Note_on_c, 0, 64, 99
2, 95299, Note_on_c, 0, 68, 92
2, 95300, Note_on_c, 0, 62, 95
2, 95306, Note_on_c, 0, 45, 98
2, 95307, Note_on_c, 0, 33, 86
2, 95308, Note_on_c, 0, 76, 85
2, 95347, Control_c, 0, 64, 127
2, 95477, Note_on_c, 0, 64, 0
2, 95487, Note_on_c, 0, 64, 84
2, 95489, Note_on_c, 0, 52, 68
2, 95531, Note_on_c, 0, 68, 0
2, 95542, Note_on_c, 0, 68, 81
2, 95562, Note_on_c, 0, 71, 0
2, 95566, Note_on_c, 0, 71, 67
2, 95651, Note_on_c, 0, 74, 84
2, 95708, Note_on_c, 0, 76, 0
2, 95714, Note_on_c, 0, 76, 87
2, 95760, Note_on_c, 0, 80, 55
2, 95792, Note_on_c, 0, 71, 0
2, 95792, Note_on_c, 0, 80, 0
2, 95798, Note_on_c, 0, 71, 83
2, 95798, Note_on_c, 0, 83, 97
2, 95799, Note_on_c, 0, 80, 84
2, 95800, Note_on_c, 0, 52, 0
2, 95802, Note_on_c, 0, 59, 87
2, 95804, Note_on_c, 0, 52, 79
2, 95804, Note_on_c, 0, 56, 88
2, 95854, Note_on_c, 0, 80, 0
2, 95864, Note_on_c, 0, 80, 70
2, 95900, Note_on_c, 0, 76, 0
2, 95908, Note_on_c, 0, 76, 80
2, 96046, Note_on_c, 0, 64, 0
2, 96053, Note_on_c, 0, 45, 0
2, 96057, Note_on_c, 0, 64, 89
2, 96059, Note_on_c, 0, 45, 75
2, 96143, Note_on_c, 0, 45, 0
2, 96143, Note_on_c, 0, 33, 0
2, 96143, Control_c, 0, 64, 0
2, 96143, Note_on_c, 0, 68, 0
2, 96144, Note_on_c, 0, 74, 0
2, 96144, Note_on_c, 0, 80, 0
2, 96144, Note_on_c, 0, 52, 0
2, 96144, Note_on_c, 0, 62, 0
2, 96144, Note_on_c, 0, 71, 0
2, 96144, Note_on_c, 0, 83, 0
2, 96145, Note_on_c, 0, 59, 0
2, 96145, Note_on_c, 0, 56, 0
2, 96146, Note_on_c, 0, 76, 0
2, 96161, Note_on_c, 0, 64, 0
2, 96188, Note_on_c, 0, 33, 87
2, 96188, Note_on_c, 0, 69, 96
2, 96189, Note_on_c, 0, 64, 80
2, 96189, Note_on_c, 0, 61, 91
2, 96190, Note_on_c, 0, 45, 85
2, 96230, Control_c, 0, 64, 127
2, 96453, Note_on_c, 0, 69, 0
2, 96460, Note_on_c, 0, 61, 0
2, 96460, Note_on_c, 0, 64, 0
2, 96462, Note_on_c, 0, 69, 62
2, 96464, Note_on_c, 0, 81, 93
2, 96467, Note_on_c, 0, 57, 52
2, 96468, Note_on_c, 0, 64, 50
2, 96471, Note_on_c, 0, 61, 62
2, 96478, Note_on_c, 0, 73, 75
2, 96479, Note_on_c, 0, 76, 70
2, 96583, Note_on_c, 0, 81, 0
2, 96591, Note_on_c, 0, 57, 0
2, 96591, Note_on_c, 0, 61, 0
2, 96591, Note_on_c, 0, 69, 0
2, 96591, Note_on_c, 0, 73, 0
2, 96591, Note_on_c, 0, 76, 0
2, 96593, Note_on_c, 0, 81, 83
2, 96595, Note_on_c, 0, 61, 63
2, 96597, Note_on_c, 0, 76, 72
2, 96598, Note_on_c, 0, 73, 74
2, 96599, Note_on_c, 0, 69, 65
2, 96600, Note_on_c, 0, 57, 70
2, 96691, Note_on_c, 0, 57, 0
2, 96698, Note_on_c, 0, 61, 0
2, 96698, Note_on_c, 0, 57, 79
2, 96706, Note_on_c, 0, 61, 72
2, 96714, Note_on_c, 0, 69, 0
2, 96714, Note_on_c, 0, 73, 0
2, 96714, Note_on_c, 0, 81, 0
2, 96719, Note_on_c, 0, 69, 64
2, 96721, Note_on_c, 0, 81, 84
2, 96721, Note_on_c, 0, 76, 0
2, 96724, Note_on_c, 0, 73, 76
2, 96726, Note_on_c, 0, 76, 71
2, 96844, Note_on_c, 0, 81, 0
2, 96852, Note_on_c, 0, 57, 0
2, 96852, Note_on_c, 0, 61, 0
2, 96852, Note_on_c, 0, 69, 0
2, 96852, Note_on_c, 0, 73, 0
2, 96855, Note_on_c, 0, 81, 82
2, 96856, Note_on_c, 0, 57, 77
2, 96859, Note_on_c, 0, 61, 69
2, 96860, Note_on_c, 0, 76, 0
2, 96860, Note_on_c, 0, 69, 73
2, 96863, Note_on_c, 0, 73, 79
2, 96864, Note_on_c, 0, 76, 69
2, 97113, Note_on_c, 0, 45, 0
2, 97113, Note_on_c, 0, 57, 0
2, 97117, Note_on_c, 0, 45, 61
2, 97120, Note_on_c, 0, 57, 63
2, 97397, Note_on_c, 0, 33, 0
2, 97397, Note_on_c, 0, 61, 0
2, 97405, Note_on_c, 0, 45, 0
2, 97405, Note_on_c, 0, 57, 0
2, 97406, Note_on_c, 0, 81, 0
2, 97406, Note_on_c, 0, 73, 0
2, 97407, Note_on_c, 0, 76, 0
2, 97407, Note_on_c, 0, 69, 0
2, 97408, Note_on_c, 0, 61, 75
2, 97409, Control_c, 0, 64, 0
2, 97412, Note_on_c, 0, 50, 81
2, 97412, Note_on_c, 0, 57, 75
2, 97416, Note_on_c, 0, 66, 71
2, 97428, Note_on_c, 0, 64, 0
2, 97536, Control_c, 0, 64, 127
2, 97542, Note_on_c, 0, 69, 70
2, 97681, Note_on_c, 0, 73, 69
2, 97815, Note_on_c, 0, 78, 75
2, 97927, Note_on_c, 0, 66, 0
2, 97935, Note_on_c, 0, 50, 0
2, 97935, Note_on_c, 0, 61, 0
2, 97937, Note_on_c, 0, 66, 92
2, 97943, Note_on_c, 0, 57, 0
2, 97946, Note_on_c, 0, 61, 78
2, 97947, Note_on_c, 0, 57, 73
2, 97949, Note_on_c, 0, 81, 78
2, 98094, Note_on_c, 0, 85, 69
2, 98201, Note_on_c, 0, 90, 73
2, 98332, Note_on_c, 0, 92, 89
2, 98333, Note_on_c, 0, 68, 92
2, 98339, Note_on_c, 0, 59, 77
2, 98339, Note_on_c, 0, 69, 0
2, 98340, Note_on_c, 0, 78, 0
2, 98340, Note_on_c, 0, 81, 0
2, 98340, Note_on_c, 0, 61, 0
2, 98341, Note_on_c, 0, 85, 0
2, 98341, Note_on_c, 0, 73, 0
2, 98342, Note_on_c, 0, 57, 0
2, 98343, Control_c, 0, 64, 0
2, 98343, Note_on_c, 0, 64, 81
2, 98357, Note_on_c, 0, 66, 0
2, 98411, Control_c, 0, 64, 127
2, 98447, Note_on_c, 0, 88, 77
2, 98534, Note_on_c, 0, 90, 0
2, 98575, Note_on_c, 0, 83, 83
2, 98703, Note_on_c, 0, 88, 0
2, 98708, Note_on_c, 0, 88, 49
2, 98708, Note_on_c, 0, 80, 71
2, 98830, Note_on_c, 0, 76, 68
2, 98956, Note_on_c, 0, 59, 0
2, 98958, Note_on_c, 0, 81, 78
2, 98962, Note_on_c, 0, 59, 74
2, 98966, Note_on_c, 0, 56, 70
2, 98966, Note_on_c, 0, 50, 62
2, 99087, Note_on_c, 0, 80, 0
2, 99093, Note_on_c, 0, 80, 74
2, 99202, Note_on_c, 0, 76, 0
2, 99209, Note_on_c, 0, 76, 68
2, 99326, Note_on_c, 0, 71, 74
2, 99456, Note_on_c, 0, 59, 0
2, 99463, Note_on_c, 0, 56, 0
2, 99466, Note_on_c, 0, 92, 0
2, 99466, Note_on_c, 0, 59, 79
2, 99467, Note_on_c, 0, 64, 0
2, 99467, Note_on_c, 0, 88, 0
2, 99467, Note_on_c, 0, 80, 0
2, 99467, Note_on_c, 0, 71, 0
2, 99467, Note_on_c, 0, 50, 0
2, 99467, Note_on_c, 0, 83, 0
2, 99468, Note_on_c, 0, 76, 0
2, 99469, Control_c, 0, 64, 0
2, 99471, Note_on_c, 0, 68, 0
2, 99471, Note_on_c, 0, 49, 65
2, 99472, Note_on_c, 0, 81, 0
2, 99474, Note_on_c, 0, 56, 64
2, 99481, Note_on_c, 0, 68, 75
2, 99563, Control_c, 0, 64, 127
2, 99627, Note_on_c, 0, 73, 78
2, 99752, Note_on_c, 0, 77, 75
2, 99879, Note_on_c, 0, 80, 76
2, 99985, Note_on_c, 0, 68, 0
2, 99994, Note_on_c, 0, 68, 92
2, 100005, Note_on_c, 0, 61, 78
2, 100006, Note_on_c, 0, 53, 76
2, 100014, Note_on_c, 0, 83, 79
2, 100136, Note_on_c, 0, 85, 74
2, 100269, Note_on_c, 0, 92, 87
2, 100400, Note_on_c, 0, 49, 0
2, 100400, Note_on_c, 0, 61, 0
2, 100400, Note_on_c, 0, 69, 87
2, 100405, Note_on_c, 0, 61, 77
2, 100405, Note_on_c, 0, 93, 90
2, 100406, Note_on_c, 0, 54, 73
2, 100411, Note_on_c, 0, 77, 0
2, 100411, Note_on_c, 0, 53, 0
2, 100411, Note_on_c, 0, 56, 0
2, 100411, Note_on_c, 0, 80, 0
2, 100411, Note_on_c, 0, 59, 0
2, 100412, Note_on_c, 0, 83, 0
2, 100412, Note_on_c, 0, 73, 0
2, 100412, Note_on_c, 0, 85, 0
2, 100412, Control_c, 0, 64, 0
2, 100423, Note_on_c, 0, 68, 0
2, 100500, Control_c, 0, 64, 127
2, 100531, Note_on_c, 0, 92, 0
2, 100535, Note_on_c, 0, 92, 85
2, 100656, Note_on_c, 0, 88, 76
2, 100781, Note_on_c, 0, 83, 77
2, 100846, Note_on_c, 0, 69, 0
2, 100910, Note_on_c, 0, 81, 76
2, 101030, Note_on_c, 0, 61, 0
2, 101038, Note_on_c, 0, 83, 0
2, 101040, Note_on_c, 0, 61, 74
2, 101042, Note_on_c, 0, 52, 65
2, 101043, Note_on_c, 0, 83, 77
2, 101045, Note_on_c, 0, 57, 70
2, 101145, Note_on_c, 0, 81, 0
2, 101154, Note_on_c, 0, 81, 74
2, 101315, Note_on_c, 0, 80, 76
2, 101433, Note_on_c, 0, 76, 72
2, 101563, Note_on_c, 0, 92, 0
2, 101564, Note_on_c, 0, 93, 0
2, 101564, Note_on_c, 0, 52, 0
2, 101564, Note_on_c, 0, 80, 0
2, 101564, Note_on_c, 0, 57, 0
2, 101564, Note_on_c, 0, 81, 0
2, 101564, Note_on_c, 0, 54, 0
2, 101564, Note_on_c, 0, 61, 0
2, 101564, Note_on_c, 0, 88, 0
2, 101565, Note_on_c, 0, 83, 0
2, 101565, Note_on_c, 0, 76, 0
2, 101569, Control_c, 0, 64, 0
2, 101577, Note_on_c, 0, 47, 77
2, 101578, Note_on_c, 0, 78, 81
2, 101579, Note_on_c, 0, 66, 87
2, 101660, Control_c, 0, 64, 127
2, 101723, Note_on_c, 0, 76, 71
2, 101835, Note_on_c, 0, 57, 63
2, 101835, Note_on_c, 0, 54, 59
2, 101858, Note_on_c, 0, 74, 67
2, 101959, Note_on_c, 0, 47, 0
2, 101965, Note_on_c, 0, 47, 73
2, 101970, Note_on_c, 0, 73, 70
2, 102082, Note_on_c, 0, 74, 0
2, 102088, Note_on_c, 0, 62, 88
2, 102093, Note_on_c, 0, 74, 82
2, 102220, Note_on_c, 0, 47, 0
2, 102220, Note_on_c, 0, 76, 0
2, 102225, Note_on_c, 0, 76, 73
2, 102232, Note_on_c, 0, 47, 65
2, 102351, Note_on_c, 0, 54, 0
2, 102351, Note_on_c, 0, 78, 0
2, 102358, Note_on_c, 0, 78, 75
2, 102359, Note_on_c, 0, 57, 0
2, 102362, Note_on_c, 0, 54, 69
2, 102362, Note_on_c, 0, 57, 71
2, 102363, Note_on_c, 0, 69, 59
2, 102481, Note_on_c, 0, 69, 0
2, 102485, Note_on_c, 0, 81, 82
2, 102485, Note_on_c, 0, 69, 73
2, 102582, Note_on_c, 0, 47, 0
2, 102583, Note_on_c, 0, 74, 0
2, 102583, Note_on_c, 0, 76, 0
2, 102583, Note_on_c, 0, 57, 0
2, 102583, Note_on_c, 0, 62, 0
2, 102583, Note_on_c, 0, 69, 0
2, 102583, Note_on_c, 0, 66, 0
2, 102583, Note_on_c, 0, 73, 0
2, 102584, Note_on_c, 0, 81, 0
2, 102584, Control_c, 0, 64, 0
2, 102584, Note_on_c, 0, 78, 0
2, 102597, Note_on_c, 0, 54, 0
2, 102623, Note_on_c, 0, 80, 85
2, 102623, Note_on_c, 0, 49, 83
2, 102624, Note_on_c, 0, 68, 86
2, 102673, Control_c, 0, 64, 127
2, 102746, Note_on_c, 0, 81, 72
2, 102873, Note_on_c, 0, 80, 0
2, 102881, Note_on_c, 0, 68, 0
2, 102882, Note_on_c, 0, 59, 70
2, 102882, Note_on_c, 0, 80, 72
2, 102883, Note_on_c, 0, 56, 61
2, 102885, Note_on_c, 0, 68, 63
2, 103004, Note_on_c, 0, 49, 0
2, 103013, Note_on_c, 0, 49, 73
2, 103019, Note_on_c, 0, 78, 81
2, 103019, Note_on_c, 0, 69, 76
2, 103142, Note_on_c, 0, 68, 0
2, 103151, Note_on_c, 0, 68, 84
2, 103152, Note_on_c, 0, 76, 79
2, 103272, Note_on_c, 0, 78, 0
2, 103280, Note_on_c, 0, 49, 0
2, 103281, Note_on_c, 0, 78, 81
2, 103286, Note_on_c, 0, 49, 68
2, 103395, Note_on_c, 0, 80, 0
2, 103401, Note_on_c, 0, 80, 72
2, 103404, Note_on_c, 0, 81, 0
2, 103418, Note_on_c, 0, 59, 0
2, 103426, Note_on_c, 0, 56, 0
2, 103426, Note_on_c, 0, 68, 0
2, 103430, Note_on_c, 0, 59, 72
2, 103430, Note_on_c, 0, 56, 66
2, 103432, Note_on_c, 0, 68, 66
2, 103541, Note_on_c, 0, 76, 0
2, 103547, Note_on_c, 0, 76, 69
2, 103631, Note_on_c, 0, 80, 0
2, 103632, Note_on_c, 0, 69, 0
2, 103632, Control_c, 0, 64, 0
2, 103632, Note_on_c, 0, 76, 0
2, 103632, Note_on_c, 0, 49, 0
2, 103632, Note_on_c, 0, 56, 0
2, 103632, Note_on_c, 0, 68, 0
2, 103632, Note_on_c, 0, 78, 0
2, 103649, Note_on_c, 0, 59, 0
2, 103682, Note_on_c, 0, 78, 85
2, 103683, Note_on_c, 0, 50, 75
2, 103683, Note_on_c, 0, 66, 88
2, 103726, Control_c, 0, 64, 127
2, 103823, Note_on_c, 0, 76, 73
2, 103950, Note_on_c, 0, 54, 65
2, 103952, Note_on_c, 0, 57, 67
2, 103953, Note_on_c, 0, 74, 68
2, 104064, Note_on_c, 0, 50, 0
2, 104071, Note_on_c, 0, 50, 78
2, 104074, Note_on_c, 0, 73, 69
2, 104194, Note_on_c, 0, 74, 0
2, 104198, Note_on_c, 0, 62, 84
2, 104199, Note_on_c, 0, 74, 82
2, 104325, Note_on_c, 0, 50, 0
2, 104325, Note_on_c, 0, 76, 0
2, 104330, Note_on_c, 0, 50, 67
2, 104330, Note_on_c, 0, 76, 78
2, 104455, Note_on_c, 0, 50, 0
2, 104455, Note_on_c, 0, 54, 0
2, 104455, Note_on_c, 0, 78, 0
2, 104462, Note_on_c, 0, 78, 79
2, 104463, Note_on_c, 0, 57, 0
2, 104466, Note_on_c, 0, 50, 57
2, 104466, Note_on_c, 0, 54, 63
2, 104471, Note_on_c, 0, 57, 69
2, 104593, Note_on_c, 0, 81, 86
2, 104595, Note_on_c, 0, 69, 81
2, 104677, Control_c, 0, 64, 0
2, 104680, Note_on_c, 0, 62, 0
2, 104680, Note_on_c, 0, 66, 0
2, 104681, Note_on_c, 0, 74, 0
2, 104681, Note_on_c, 0, 50, 0
2, 104681, Note_on_c, 0, 76, 0
2, 104681, Note_on_c, 0, 78, 0
2, 104681, Note_on_c, 0, 69, 0
2, 104682, Note_on_c, 0, 81, 0
2, 104693, Note_on_c, 0, 54, 0
2, 104701, Note_on_c, 0, 57, 0
2, 104701, Note_on_c, 0, 73, 0
2, 104729, Note_on_c, 0, 83, 95
2, 104732, Note_on_c, 0, 49, 81
2, 104737, Note_on_c, 0, 71, 83
2, 104770, Control_c, 0, 64, 127
2, 104867, Note_on_c, 0, 81, 69
2, 104975, Note_on_c, 0, 59, 80
2, 104977, Note_on_c, 0, 56, 77
2, 104987, Note_on_c, 0, 68, 73
2, 104988, Note_on_c, 0, 80, 78
2, 105105, Note_on_c, 0, 64, 94
2, 105105, Note_on_c, 0, 78, 74
2, 105129, Note_on_c, 0, 76, 62
2, 105231, Note_on_c, 0, 64, 0
2, 105237, Note_on_c, 0, 64, 87
2, 105239, Note_on_c, 0, 76, 0
2, 105243, Note_on_c, 0, 76, 79
2, 105346, Note_on_c, 0, 76, 0
2, 105354, Note_on_c, 0, 49, 0
2, 105354, Note_on_c, 0, 76, 64
2, 105364, Note_on_c, 0, 49, 80
2, 105392, Note_on_c, 0, 78, 0
2, 105399, Note_on_c, 0, 78, 76
2, 105402, Note_on_c, 0, 66, 47
2, 105408, Note_on_c, 0, 66, 0
2, 105477, Note_on_c, 0, 80, 0
2, 105488, Note_on_c, 0, 80, 90
2, 105492, Note_on_c, 0, 56, 0
2, 105500, Note_on_c, 0, 59, 0
2, 105500, Note_on_c, 0, 68, 0
2, 105501, Note_on_c, 0, 56, 83
2, 105504, Note_on_c, 0, 68, 78
2, 105504, Note_on_c, 0, 59, 82
2, 105615, Note_on_c, 0, 76, 0
2, 105619, Note_on_c, 0, 76, 68
2, 105690, Control_c, 0, 64, 0
2, 105693, Note_on_c, 0, 78, 0
2, 105693, Note_on_c, 0, 80, 0
2, 105693, Note_on_c, 0, 81, 0
2, 105693, Note_on_c, 0, 56, 0
2, 105693, Note_on_c, 0, 76, 0
2, 105693, Note_on_c, 0, 71, 0
2, 105693, Note_on_c, 0, 83, 0
2, 105693, Note_on_c, 0, 68, 0
2, 105694, Note_on_c, 0, 59, 0
2, 105694, Note_on_c, 0, 64, 0
2, 105707, Note_on_c, 0, 49, 0
2, 105758, Note_on_c, 0, 78, 103
2, 105763, Note_on_c, 0, 38, 87
2, 105764, Note_on_c, 0, 66, 95
2, 105768, Note_on_c, 0, 69, 78
2, 105774, Note_on_c, 0, 74, 76
2, 105776, Control_c, 0, 64, 127
2, 106014, Note_on_c, 0, 69, 0
2, 106020, Note_on_c, 0, 57, 71
2, 106023, Note_on_c, 0, 54, 75
2, 106023, Note_on_c, 0, 69, 64
2, 106025, Note_on_c, 0, 62, 54
2, 106030, Note_on_c, 0, 62, 0
2, 106145, Note_on_c, 0, 74, 0
2, 106152, Note_on_c, 0, 38, 0
2, 106152, Note_on_c, 0, 66, 0
2, 106155, Note_on_c, 0, 74, 92
2, 106158, Note_on_c, 0, 62, 78
2, 106161, Note_on_c, 0, 38, 74
2, 106163, Note_on_c, 0, 66, 68
2, 106275, Note_on_c, 0, 62, 0
2, 106275, Note_on_c, 0, 74, 0
2, 106283, Note_on_c, 0, 66, 0
2, 106284, Note_on_c, 0, 62, 78
2, 106284, Note_on_c, 0, 74, 96
2, 106291, Note_on_c, 0, 66, 72
2, 106414, Note_on_c, 0, 38, 0
2, 106419, Note_on_c, 0, 38, 75
2, 106467, Note_on_c, 0, 78, 0
2, 106475, Note_on_c, 0, 66, 0
2, 106476, Note_on_c, 0, 78, 97
2, 106480, Note_on_c, 0, 66, 90
2, 106567, Note_on_c, 0, 54, 0
2, 106567, Note_on_c, 0, 57, 0
2, 106567, Note_on_c, 0, 69, 0
2, 106572, Note_on_c, 0, 57, 85
2, 106572, Note_on_c, 0, 69, 83
2, 106576, Note_on_c, 0, 54, 89
2, 106690, Note_on_c, 0, 66, 0
2, 106690, Note_on_c, 0, 69, 0
2, 106695, Note_on_c, 0, 81, 98
2, 106696, Note_on_c, 0, 66, 78
2, 106698, Note_on_c, 0, 69, 82
2, 106776, Note_on_c, 0, 62, 0
2, 106776, Note_on_c, 0, 69, 0
2, 106776, Note_on_c, 0, 74, 0
2, 106776, Note_on_c, 0, 81, 0
2, 106776, Note_on_c, 0, 66, 0
2, 106777, Note_on_c, 0, 57, 0
2, 106777, Note_on_c, 0, 78, 0
2, 106777, Note_on_c, 0, 54, 0
2, 106778, Note_on_c, 0, 38, 0
2, 106778, Control_c, 0, 64, 0
2, 106825, Note_on_c, 0, 39, 93
2, 106829, Note_on_c, 0, 81, 104
2, 106835, Note_on_c, 0, 69, 96
2, 106835, Note_on_c, 0, 78, 95
2, 106839, Note_on_c, 0, 75, 91
2, 106844, Control_c, 0, 64, 127
2, 107100, Note_on_c, 0, 57, 81
2, 107100, Note_on_c, 0, 54, 77
2, 107100, Note_on_c, 0, 51, 84
2, 107212, Note_on_c, 0, 78, 0
2, 107218, Note_on_c, 0, 78, 101
2, 107220, Note_on_c, 0, 39, 0
2, 107223, Note_on_c, 0, 66, 98
2, 107224, Note_on_c, 0, 39, 89
2, 107343, Note_on_c, 0, 66, 0
2, 107343, Note_on_c, 0, 78, 0
2, 107348, Note_on_c, 0, 78, 100
2, 107352, Note_on_c, 0, 66, 100
2, 107466, Note_on_c, 0, 39, 0
2, 107470, Note_on_c, 0, 39, 91
2, 107540, Note_on_c, 0, 80, 107
2, 107544, Note_on_c, 0, 68, 104
2, 107612, Note_on_c, 0, 51, 0
2, 107612, Note_on_c, 0, 54, 0
2, 107612, Note_on_c, 0, 57, 0
2, 107623, Note_on_c, 0, 51, 93
2, 107623, Note_on_c, 0, 57, 86
2, 107623, Note_on_c, 0, 54, 75
2, 107624, Note_on_c, 0, 66, 0
2, 107735, Note_on_c, 0, 69, 0
2, 107735, Note_on_c, 0, 81, 0
2, 107739, Note_on_c, 0, 81, 103
2, 107740, Note_on_c, 0, 69, 95
2, 107821, Note_on_c, 0, 54, 0
2, 107821, Note_on_c, 0, 39, 0
2, 107821, Note_on_c, 0, 69, 0
2, 107821, Note_on_c, 0, 80, 0
2, 107821, Note_on_c, 0, 75, 0
2, 107821, Note_on_c, 0, 68, 0
2, 107821, Note_on_c, 0, 78, 0
2, 107821, Note_on_c, 0, 81, 0
2, 107823, Control_c, 0, 64, 0
2, 107842, Note_on_c, 0, 51, 0
2, 107842, Note_on_c, 0, 57, 0
2, 107876, Note_on_c, 0, 40, 104
2, 107876, Note_on_c, 0, 28, 95
2, 107877, Note_on_c, 0, 52, 106
2, 107879, Note_on_c, 0, 71, 102
2, 107880, Note_on_c, 0, 83, 102
2, 107880, Note_on_c, 0, 28, 0
2, 107884, Note_on_c, 0, 76, 98
2, 107888, Control_c, 0, 64, 127
2, 107893, Note_on_c, 0, 81, 80
2, 108134, Note_on_c, 0, 52, 0
2, 108134, Note_on_c, 0, 76, 0
2, 108139, Note_on_c, 0, 64, 100
2, 108142, Note_on_c, 0, 71, 0
2, 108145, Note_on_c, 0, 52, 90
2, 108145, Note_on_c, 0, 76, 98
2, 108146, Note_on_c, 0, 59, 90
2, 108146, Note_on_c, 0, 57, 83
2, 108146, Note_on_c, 0, 71, 92
2, 108280, Note_on_c, 0, 52, 0
2, 108280, Note_on_c, 0, 71, 0
2, 108284, Note_on_c, 0, 52, 79
2, 108291, Note_on_c, 0, 71, 77
2, 108380, Note_on_c, 0, 64, 0
2, 108387, Note_on_c, 0, 57, 0
2, 108387, Note_on_c, 0, 59, 0
2, 108391, Note_on_c, 0, 64, 98
2, 108392, Note_on_c, 0, 57, 79
2, 108395, Note_on_c, 0, 71, 0
2, 108395, Note_on_c, 0, 76, 0
2, 108397, Note_on_c, 0, 59, 79
2, 108401, Note_on_c, 0, 76, 101
2, 108406, Note_on_c, 0, 71, 96
2, 108524, Note_on_c, 0, 49, 97
2, 108524, Note_on_c, 0, 37, 100
2, 108656, Note_on_c, 0, 76, 0
2, 108657, Note_on_c, 0, 38, 104
2, 108658, Note_on_c, 0, 50, 102
2, 108660, Note_on_c, 0, 71, 0
2, 108660, Note_on_c, 0, 76, 93
2, 108661, Note_on_c, 0, 57, 0
2, 108780, Note_on_c, 0, 51, 103
2, 108781, Note_on_c, 0, 39, 98
2, 108879, Note_on_c, 0, 49, 0
2, 108881, Note_on_c, 0, 83, 0
2, 108881, Note_on_c, 0, 51, 0
2, 108881, Note_on_c, 0, 37, 0
2, 108881, Note_on_c, 0, 59, 0
2, 108881, Note_on_c, 0, 50, 0
2, 108881, Note_on_c, 0, 38, 0
2, 108881, Note_on_c, 0, 76, 0
2, 108882, Control_c, 0, 64, 0
2, 108882, Note_on_c, 0, 39, 0
2, 108894, Note_on_c, 0, 81, 0
2, 108902, Note_on_c, 0, 64, 0
2, 108910, Note_on_c, 0, 40, 0
2, 108910, Note_on_c, 0, 52, 0
2, 108916, Note_on_c, 0, 52, 113
2, 108917, Note_on_c, 0, 40, 109
2, 108918, Note_on_c, 0, 28, 100
2, 108919, Note_on_c, 0, 100, 107
2, 108925, Note_on_c, 0, 28, 0
2, 108947, Note_on_c, 0, 95, 68
2, 108956, Control_c, 0, 64, 127
2, 109005, Note_on_c, 0, 92, 98
2, 109035, Note_on_c, 0, 88, 82
2, 109136, Note_on_c, 0, 83, 75
2, 109150, Note_on_c, 0, 80, 76
2, 109205, Note_on_c, 0, 76, 77
2, 109274, Note_on_c, 0, 71, 72
2, 109322, Note_on_c, 0, 68, 84
2, 109372, Note_on_c, 0, 64, 76
2, 109440, Note_on_c, 0, 40, 0
2, 109440, Note_on_c, 0, 64, 0
2, 109440, Note_on_c, 0, 76, 0
2, 109445, Note_on_c, 0, 40, 97
2, 109446, Note_on_c, 0, 28, 91
2, 109447, Note_on_c, 0, 71, 0
2, 109449, Note_on_c, 0, 64, 91
2, 109451, Note_on_c, 0, 76, 99
2, 109458, Note_on_c, 0, 71, 79
2, 109524, Note_on_c, 0, 68, 0
2, 109529, Note_on_c, 0, 68, 99
2, 109532, Note_on_c, 0, 64, 0
2, 109542, Note_on_c, 0, 64, 86
2, 109655, Note_on_c, 0, 68, 0
2, 109658, Note_on_c, 0, 68, 91
2, 109675, Note_on_c, 0, 56, 94
2, 109739, Note_on_c, 0, 56, 0
2, 109739, Note_on_c, 0, 64, 0
2, 109739, Note_on_c, 0, 68, 0
2, 109747, Note_on_c, 0, 68, 79
2, 109749, Note_on_c, 0, 59, 71
2, 109749, Note_on_c, 0, 56, 76
2, 109751, Note_on_c, 0, 64, 58
2, 109847, Note_on_c, 0, 52, 0
2, 109850, Note_on_c, 0, 52, 69
2, 109854, Note_on_c, 0, 68, 0
2, 109858, Note_on_c, 0, 68, 73
2, 109927, Note_on_c, 0, 100, 0
2, 109927, Control_c, 0, 64, 0
2, 109928, Note_on_c, 0, 59, 0
2, 109928, Note_on_c, 0, 95, 0
2, 109928, Note_on_c, 0, 88, 0
2, 109928, Note_on_c, 0, 64, 0
2, 109928, Note_on_c, 0, 76, 0
2, 109929, Note_on_c, 0, 56, 0
2, 109929, Note_on_c, 0, 71, 0
2, 109929, Note_on_c, 0, 68, 0
2, 109929, Note_on_c, 0, 52, 0
2, 109929, Note_on_c, 0, 92, 0
2, 109929, Note_on_c, 0, 80, 0
2, 109929, Note_on_c, 0, 40, 0
2, 109939, Note_on_c, 0, 28, 0
2, 109946, Note_on_c, 0, 83, 0
2, 109982, Note_on_c, 0, 64, 77
2, 109987, Note_on_c, 0, 33, 94
2, 109988, Note_on_c, 0, 45, 100
2, 109990, Note_on_c, 0, 61, 78
2, 110016, Control_c, 0, 64, 127
2, 110238, Note_on_c, 0, 61, 0
2, 110238, Note_on_c, 0, 64, 0
2, 110244, Note_on_c, 0, 64, 88
2, 110248, Note_on_c, 0, 69, 85
2, 110248, Note_on_c, 0, 57, 79
2, 110249, Note_on_c, 0, 61, 79
2, 110249, Note_on_c, 0, 76, 96
2, 110250, Note_on_c, 0, 52, 77
2, 110369, Note_on_c, 0, 45, 0
2, 110379, Note_on_c, 0, 45, 93
2, 110499, Note_on_c, 0, 76, 0
2, 110505, Note_on_c, 0, 73, 102
2, 110506, Note_on_c, 0, 76, 89
2, 110508, Note_on_c, 0, 83, 104
2, 110615, Note_on_c, 0, 45, 0
2, 110622, Note_on_c, 0, 45, 77
2, 110760, Note_on_c, 0, 61, 0
2, 110760, Note_on_c, 0, 64, 0
2, 110765, Note_on_c, 0, 64, 92
2, 110766, Note_on_c, 0, 80, 95
2, 110768, Note_on_c, 0, 57, 0
2, 110768, Note_on_c, 0, 61, 88
2, 110770, Note_on_c, 0, 71, 87
2, 110776, Note_on_c, 0, 76, 0
2, 110779, Note_on_c, 0, 57, 72
2, 110785, Note_on_c, 0, 76, 70
2, 110891, Note_on_c, 0, 69, 0
2, 110891, Note_on_c, 0, 73, 0
2, 110900, Note_on_c, 0, 81, 105
2, 110902, Note_on_c, 0, 69, 93
2, 110902, Note_on_c, 0, 73, 97
2, 110965, Note_on_c, 0, 33, 0
2, 110965, Note_on_c, 0, 45, 0
2, 110966, Note_on_c, 0, 71, 0
2, 110966, Note_on_c, 0, 61, 0
2, 110966, Note_on_c, 0, 83, 0
2, 110966, Note_on_c, 0, 76, 0
2, 110966, Note_on_c, 0, 64, 0
2, 110967, Note_on_c, 0, 80, 0
2, 110967, Control_c, 0, 64, 0
2, 110976, Note_on_c, 0, 52, 0
2, 110991, Note_on_c, 0, 57, 0
2, 111015, Note_on_c, 0, 37, 104
2, 111017, Note_on_c, 0, 25, 91
2, 111022, Note_on_c, 0, 25, 0
2, 111029, Control_c, 0, 64, 127
2, 111268, Note_on_c, 0, 64, 92
2, 111275, Note_on_c, 0, 61, 81
2, 111275, Note_on_c, 0, 81, 0
2, 111279, Note_on_c, 0, 57, 76
2, 111283, Note_on_c, 0, 69, 0
2, 111283, Note_on_c, 0, 73, 0
2, 111285, Note_on_c, 0, 81, 100
2, 111285, Note_on_c, 0, 52, 71
2, 111287, Note_on_c, 0, 69, 84
2, 111288, Note_on_c, 0, 73, 94
2, 111292, Note_on_c, 0, 76, 86
2, 111404, Note_on_c, 0, 49, 84
2, 111544, Note_on_c, 0, 76, 0
2, 111548, Note_on_c, 0, 80, 101
2, 111549, Note_on_c, 0, 71, 93
2, 111554, Note_on_c, 0, 76, 64
2, 111790, Note_on_c, 0, 61, 0
2, 111790, Note_on_c, 0, 64, 0
2, 111790, Note_on_c, 0, 69, 0
2, 111790, Note_on_c, 0, 81, 0
2, 111797, Note_on_c, 0, 81, 96
2, 111797, Note_on_c, 0, 57, 0
2, 111797, Note_on_c, 0, 73, 0
2, 111799, Note_on_c, 0, 69, 92
2, 111799, Note_on_c, 0, 64, 95
2, 111801, Note_on_c, 0, 61, 91
2, 111802, Note_on_c, 0, 57, 88
2, 111802, Note_on_c, 0, 73, 96
2, 111996, Control_c, 0, 64, 0
2, 111997, Note_on_c, 0, 49, 0
2, 111998, Note_on_c, 0, 71, 0
2, 111998, Note_on_c, 0, 73, 0
2, 111998, Note_on_c, 0, 81, 0
2, 111998, Note_on_c, 0, 64, 0
2, 111998, Note_on_c, 0, 57, 0
2, 111998, Note_on_c, 0, 80, 0
2, 112005, Note_on_c, 0, 69, 0
2, 112009, Note_on_c, 0, 69, 77
2, 112012, Note_on_c, 0, 37, 0
2, 112012, Note_on_c, 0, 52, 0
2, 112020, Note_on_c, 0, 61, 0
2, 112034, Note_on_c, 0, 74, 89
2, 112043, Note_on_c, 0, 38, 92
2, 112045, Note_on_c, 0, 50, 73
2, 112046, Note_on_c, 0, 80, 101
2, 112047, Note_on_c, 0, 45, 75
2, 112051, Note_on_c, 0, 45, 0
2, 112058, Control_c, 0, 64, 127
2, 112289, Note_on_c, 0, 69, 0
2, 112293, Note_on_c, 0, 64, 80
2, 112295, Note_on_c, 0, 54, 85
2, 112296, Note_on_c, 0, 78, 88
2, 112298, Note_on_c, 0, 57, 76
2, 112298, Note_on_c, 0, 69, 73
2, 112419, Note_on_c, 0, 50, 0
2, 112419, Note_on_c, 0, 76, 0
2, 112427, Note_on_c, 0, 69, 0
2, 112430, Note_on_c, 0, 76, 100
2, 112430, Note_on_c, 0, 50, 80
2, 112432, Note_on_c, 0, 66, 80
2, 112432, Note_on_c, 0, 69, 87
2, 112437, Note_on_c, 0, 62, 75
2, 112437, Note_on_c, 0, 73, 92
2, 112657, Note_on_c, 0, 62, 0
2, 112657, Note_on_c, 0, 64, 0
2, 112662, Note_on_c, 0, 64, 62
2, 112667, Note_on_c, 0, 62, 57
2, 112796, Note_on_c, 0, 54, 0
2, 112796, Note_on_c, 0, 64, 0
2, 112803, Note_on_c, 0, 54, 91
2, 112804, Note_on_c, 0, 64, 85
2, 112919, Note_on_c, 0, 69, 0
2, 112926, Note_on_c, 0, 66, 0
2, 112929, Note_on_c, 0, 69, 79
2, 112935, Note_on_c, 0, 66, 64
2, 113022, Note_on_c, 0, 54, 0
2, 113022, Note_on_c, 0, 62, 0
2, 113022, Note_on_c, 0, 66, 0
2, 113022, Note_on_c, 0, 76, 0
2, 113022, Note_on_c, 0, 73, 0
2, 113022, Note_on_c, 0, 69, 0
2, 113022, Note_on_c, 0, 80, 0
2, 113022, Note_on_c, 0, 57, 0
2, 113022, Note_on_c, 0, 78, 0
2, 113027, Control_c, 0, 64, 0
2, 113034, Note_on_c, 0, 74, 0
2, 113041, Note_on_c, 0, 38, 0
2, 113041, Note_on_c, 0, 50, 0
2, 113049, Note_on_c, 0, 64, 0
2, 113055, Note_on_c, 0, 40, 97
2, 113059, Note_on_c, 0, 64, 71
2, 113060, Note_on_c, 0, 68, 87
2, 113060, Note_on_c, 0, 28, 87
2, 113095, Note_on_c, 0, 28, 0
2, 113095, Control_c, 0, 64, 127
2, 113191, Note_on_c, 0, 59, 80
2, 113209, Note_on_c, 0, 47, 54
2, 113319, Note_on_c, 0, 56, 83
2, 113326, Note_on_c, 0, 47, 0
2, 113326, Note_on_c, 0, 68, 0
2, 113330, Note_on_c, 0, 47, 66
2, 113331, Note_on_c, 0, 68, 70
2, 113333, Note_on_c, 0, 64, 0
2, 113340, Note_on_c, 0, 64, 73
2, 113441, Note_on_c, 0, 40, 0
2, 113445, Note_on_c, 0, 40, 87
2, 113451, Note_on_c, 0, 66, 81
2, 113452, Note_on_c, 0, 28, 84
2, 113457, Note_on_c, 0, 57, 66
2, 113554, Note_on_c, 0, 64, 0
2, 113555, Note_on_c, 0, 56, 0
2, 113555, Note_on_c, 0, 40, 0
2, 113556, Note_on_c, 0, 66, 0
2, 113556, Note_on_c, 0, 28, 0
2, 113556, Note_on_c, 0, 57, 0
2, 113560, Control_c, 0, 64, 0
2, 113571, Note_on_c, 0, 68, 0
2, 113579, Note_on_c, 0, 59, 0
2, 113582, Note_on_c, 0, 68, 89
2, 113585, Note_on_c, 0, 41, 82
2, 113586, Note_on_c, 0, 65, 70
2, 113587, Note_on_c, 0, 29, 72
2, 113587, Note_on_c, 0, 47, 0
2, 113590, Note_on_c, 0, 59, 77
2, 113625, Control_c, 0, 64, 127
2, 113633, Note_on_c, 0, 29, 0
2, 113698, Note_on_c, 0, 69, 74
2, 113825, Note_on_c, 0, 65, 0
2, 113831, Note_on_c, 0, 71, 89
2, 113833, Note_on_c, 0, 65, 60
2, 113835, Note_on_c, 0, 61, 79
2, 113835, Note_on_c, 0, 56, 77
2, 113940, Note_on_c, 0, 68, 0
2, 113950, Note_on_c, 0, 68, 92
2, 113991, Note_on_c, 0, 56, 0
2, 113991, Note_on_c, 0, 61, 0
2, 113992, Note_on_c, 0, 71, 0
2, 113996, Note_on_c, 0, 69, 0
2, 113999, Control_c, 0, 64, 0
2, 114009, Note_on_c, 0, 41, 0
2, 114024, Note_on_c, 0, 59, 0
2, 114024, Note_on_c, 0, 65, 0
2, 114071, Note_on_c, 0, 68, 0
2, 114083, Note_on_c, 0, 42, 92
2, 114083, Note_on_c, 0, 61, 92
2, 114084, Note_on_c, 0, 30, 84
2, 114085, Note_on_c, 0, 69, 87
2, 114086, Note_on_c, 0, 64, 87
2, 114101, Control_c, 0, 64, 127
2, 114347, Note_on_c, 0, 69, 0
2, 114355, Note_on_c, 0, 61, 0
2, 114355, Note_on_c, 0, 64, 0
2, 114357, Note_on_c, 0, 69, 92
2, 114357, Note_on_c, 0, 76, 102
2, 114360, Note_on_c, 0, 64, 95
2, 114362, Note_on_c, 0, 61, 90
2, 114366, Note_on_c, 0, 57, 78
2, 114483, Note_on_c, 0, 54, 87
2, 114608, Note_on_c, 0, 69, 0
2, 114619, Note_on_c, 0, 69, 71
2, 114619, Note_on_c, 0, 73, 97
2, 114619, Note_on_c, 0, 83, 100
2, 114739, Note_on_c, 0, 54, 0
2, 114749, Note_on_c, 0, 54, 80
2, 114862, Note_on_c, 0, 61, 0
2, 114862, Note_on_c, 0, 64, 0
2, 114869, Note_on_c, 0, 57, 0
2, 114872, Note_on_c, 0, 61, 78
2, 114873, Note_on_c, 0, 64, 92
2, 114879, Note_on_c, 0, 57, 70
2, 114881, Note_on_c, 0, 80, 89
2, 114884, Note_on_c, 0, 71, 87
2, 115000, Note_on_c, 0, 69, 0
2, 115005, Note_on_c, 0, 81, 104
2, 115008, Note_on_c, 0, 73, 0
2, 115009, Note_on_c, 0, 69, 89
2, 115012, Note_on_c, 0, 73, 96
2, 115058, Note_on_c, 0, 42, 0
2, 115058, Note_on_c, 0, 54, 0
2, 115058, Control_c, 0, 64, 0
2, 115058, Note_on_c, 0, 61, 0
2, 115058, Note_on_c, 0, 64, 0
2, 115058, Note_on_c, 0, 80, 0
2, 115058, Note_on_c, 0, 71, 0
2, 115058, Note_on_c, 0, 83, 0
2, 115059, Note_on_c, 0, 76, 0
2, 115059, Note_on_c, 0, 57, 0
2, 115061, Note_on_c, 0, 30, 0
2, 115117, Note_on_c, 0, 40, 100
2, 115118, Note_on_c, 0, 28, 90
2, 115123, Note_on_c, 0, 28, 0
2, 115130, Control_c, 0, 64, 127
2, 115402, Note_on_c, 0, 64, 87
2, 115403, Note_on_c, 0, 61, 80
2, 115406, Note_on_c, 0, 57, 78
2, 115527, Note_on_c, 0, 52, 98
2, 115783, Note_on_c, 0, 52, 0
2, 115791, Note_on_c, 0, 76, 96
2, 115792, Note_on_c, 0, 52, 83
2, 115898, Note_on_c, 0, 64, 0
2, 115906, Note_on_c, 0, 57, 0
2, 115906, Note_on_c, 0, 61, 0
2, 115906, Note_on_c, 0, 69, 0
2, 115906, Note_on_c, 0, 81, 0
2, 115909, Note_on_c, 0, 64, 91
2, 115911, Note_on_c, 0, 61, 84
2, 115912, Note_on_c, 0, 81, 99
2, 115915, Note_on_c, 0, 69, 91
2, 115916, Note_on_c, 0, 57, 79
2, 116025, Note_on_c, 0, 83, 101
2, 116028, Note_on_c, 0, 71, 93
2, 116097, Note_on_c, 0, 69, 0
2, 116098, Note_on_c, 0, 40, 0
2, 116098, Note_on_c, 0, 81, 0
2, 116098, Note_on_c, 0, 52, 0
2, 116098, Note_on_c, 0, 61, 0
2, 116099, Note_on_c, 0, 64, 0
2, 116099, Note_on_c, 0, 57, 0
2, 116099, Note_on_c, 0, 71, 0
2, 116099, Note_on_c, 0, 76, 0
2, 116100, Note_on_c, 0, 83, 0
2, 116102, Control_c, 0, 64, 0
2, 116106, Note_on_c, 0, 73, 0
2, 116156, Note_on_c, 0, 73, 102
2, 116156, Note_on_c, 0, 85, 99
2, 116157, Note_on_c, 0, 78, 100
2, 116161, Note_on_c, 0, 81, 90
2, 116163, Note_on_c, 0, 27, 88
2, 116163, Note_on_c, 0, 39, 93
2, 116167, Note_on_c, 0, 27, 0
2, 116175, Control_c, 0, 64, 127
2, 116419, Note_on_c, 0, 59, 89
2, 116423, Note_on_c, 0, 54, 79
2, 116547, Note_on_c, 0, 51, 93
2, 116548, Note_on_c, 0, 83, 98
2, 116550, Note_on_c, 0, 71, 90
2, 116674, Note_on_c, 0, 71, 0
2, 116674, Note_on_c, 0, 78, 0
2, 116674, Note_on_c, 0, 83, 0
2, 116678, Note_on_c, 0, 83, 101
2, 116685, Note_on_c, 0, 78, 93
2, 116685, Note_on_c, 0, 71, 90
2, 116687, Note_on_c, 0, 75, 88
2, 116700, Note_on_c, 0, 61, 58
2, 116705, Note_on_c, 0, 61, 0
2, 116820, Note_on_c, 0, 39, 0
2, 116820, Note_on_c, 0, 51, 0
2, 116824, Note_on_c, 0, 51, 82
2, 116828, Note_on_c, 0, 39, 69
2, 116928, Note_on_c, 0, 54, 0
2, 116928, Note_on_c, 0, 59, 0
2, 116932, Note_on_c, 0, 59, 88
2, 116933, Note_on_c, 0, 54, 86
2, 117043, Note_on_c, 0, 71, 0
2, 117043, Note_on_c, 0, 83, 0
2, 117049, Note_on_c, 0, 47, 72
2, 117051, Note_on_c, 0, 83, 92
2, 117053, Note_on_c, 0, 71, 84
2, 117119, Note_on_c, 0, 51, 0
2, 117119, Note_on_c, 0, 81, 0
2, 117119, Note_on_c, 0, 54, 0
2, 117119, Note_on_c, 0, 73, 0
2, 117119, Note_on_c, 0, 78, 0
2, 117119, Note_on_c, 0, 85, 0
2, 117120, Note_on_c, 0, 59, 0
2, 117121, Note_on_c, 0, 75, 0
2, 117121, Note_on_c, 0, 39, 0
2, 117121, Note_on_c, 0, 71, 0
2, 117121, Note_on_c, 0, 83, 0
2, 117123, Control_c, 0, 64, 0
2, 117127, Note_on_c, 0, 47, 0
2, 117185, Note_on_c, 0, 86, 105
2, 117189, Control_c, 0, 64, 127
2, 117189, Note_on_c, 0, 74, 105
2, 117190, Note_on_c, 0, 78, 105
2, 117192, Note_on_c, 0, 47, 106
2, 117193, Note_on_c, 0, 35, 96
2, 117312, Note_on_c, 0, 35, 0
2, 117312, Note_on_c, 0, 47, 0
2, 117316, Note_on_c, 0, 47, 100
2, 117316, Note_on_c, 0, 35, 92
2, 117385, Note_on_c, 0, 35, 0
2, 117385, Note_on_c, 0, 47, 0
2, 117385, Note_on_c, 0, 86, 0
2, 117385, Note_on_c, 0, 74, 0
2, 117385, Note_on_c, 0, 78, 0
2, 117392, Control_c, 0, 64, 0
2, 117447, Note_on_c, 0, 85, 91
2, 117452, Note_on_c, 0, 73, 89
2, 117499, Note_on_c, 0, 73, 0
2, 117506, Note_on_c, 0, 85, 0
2, 117584, Note_on_c, 0, 83, 107
2, 117585, Note_on_c, 0, 71, 101
2, 117586, Note_on_c, 0, 76, 102
2, 117592, Note_on_c, 0, 47, 77
2, 117592, Note_on_c, 0, 80, 90
2, 117705, Note_on_c, 0, 52, 97
2, 117706, Note_on_c, 0, 40, 95
2, 117711, Control_c, 0, 64, 127
2, 117826, Note_on_c, 0, 52, 0
2, 117828, Note_on_c, 0, 81, 98
2, 117829, Note_on_c, 0, 69, 95
2, 117832, Note_on_c, 0, 52, 89
2, 117967, Note_on_c, 0, 64, 92
2, 117972, Note_on_c, 0, 52, 0
2, 117976, Note_on_c, 0, 52, 78
2, 117991, Note_on_c, 0, 59, 77
2, 118026, Note_on_c, 0, 47, 0
2, 118032, Note_on_c, 0, 47, 54
2, 118087, Note_on_c, 0, 40, 0
2, 118087, Note_on_c, 0, 47, 0
2, 118099, Note_on_c, 0, 40, 94
2, 118099, Note_on_c, 0, 47, 81
2, 118166, Note_on_c, 0, 83, 0
2, 118166, Note_on_c, 0, 52, 0
2, 118167, Note_on_c, 0, 69, 0
2, 118167, Note_on_c, 0, 40, 0
2, 118167, Note_on_c, 0, 81, 0
2, 118167, Control_c, 0, 64, 0
2, 118167, Note_on_c, 0, 64, 0
2, 118167, Note_on_c, 0, 80, 0
2, 118167, Note_on_c, 0, 71, 0
2, 118168, Note_on_c, 0, 76, 0
2, 118168, Note_on_c, 0, 59, 0
2, 118168, Note_on_c, 0, 47, 0
2, 118216, Note_on_c, 0, 45, 103
2, 118216, Note_on_c, 0, 33, 93
2, 118220, Note_on_c, 0, 40, 80
2, 118225, Control_c, 0, 64, 127
2, 118469, Note_on_c, 0, 64, 85
2, 118470, Note_on_c, 0, 52, 75
2, 118475, Note_on_c, 0, 61, 85
2, 118477, Note_on_c, 0, 57, 81
2, 118483, Note_on_c, 0, 76, 90
2, 118483, Note_on_c, 0, 69, 85
2, 118489, Note_on_c, 0, 73, 75
2, 118602, Note_on_c, 0, 45, 0
2, 118602, Note_on_c, 0, 52, 0
2, 118607, Note_on_c, 0, 45, 90
2, 118612, Note_on_c, 0, 52, 60
2, 118732, Note_on_c, 0, 73, 0
2, 118732, Note_on_c, 0, 76, 0
2, 118738, Note_on_c, 0, 73, 96
2, 118741, Note_on_c, 0, 76, 87
2, 118741, Note_on_c, 0, 83, 98
2, 118840, Note_on_c, 0, 61, 0
2, 118850, Note_on_c, 0, 61, 65
2, 118986, Note_on_c, 0, 61, 0
2, 118986, Note_on_c, 0, 64, 0
2, 118993, Note_on_c, 0, 57, 0
2, 118996, Note_on_c, 0, 64, 85
2, 118997, Note_on_c, 0, 61, 84
2, 119000, Note_on_c, 0, 57, 72
2, 119001, Note_on_c, 0, 80, 92
2, 119003, Note_on_c, 0, 71, 84
2, 119116, Note_on_c, 0, 69, 0
2, 119116, Note_on_c, 0, 73, 0
2, 119122, Note_on_c, 0, 81, 105
2, 119126, Note_on_c, 0, 69, 90
2, 119128, Note_on_c, 0, 73, 95
2, 119166, Note_on_c, 0, 45, 0
2, 119166, Note_on_c, 0, 57, 0
2, 119166, Note_on_c, 0, 64, 0
2, 119167, Note_on_c, 0, 80, 0
2, 119167, Note_on_c, 0, 76, 0
2, 119167, Note_on_c, 0, 71, 0
2, 119167, Note_on_c, 0, 83, 0
2, 119168, Control_c, 0, 64, 0
2, 119170, Note_on_c, 0, 40, 0
2, 119185, Note_on_c, 0, 33, 0
2, 119185, Note_on_c, 0, 52, 0
2, 119185, Note_on_c, 0, 61, 0
2, 119239, Control_c, 0, 64, 127
2, 119244, Note_on_c, 0, 37, 102
2, 119500, Note_on_c, 0, 69, 0
2, 119500, Note_on_c, 0, 81, 0
2, 119504, Note_on_c, 0, 64, 87
2, 119505, Note_on_c, 0, 61, 85
2, 119508, Note_on_c, 0, 73, 0
2, 119510, Note_on_c, 0, 81, 99
2, 119511, Note_on_c, 0, 69, 91
2, 119512, Note_on_c, 0, 57, 78
2, 119519, Note_on_c, 0, 73, 92
2, 119520, Note_on_c, 0, 76, 86
2, 119632, Note_on_c, 0, 49, 79
2, 119769, Note_on_c, 0, 57, 0
2, 119772, Note_on_c, 0, 80, 100
2, 119773, Note_on_c, 0, 71, 90
2, 119774, Note_on_c, 0, 57, 74
2, 119900, Note_on_c, 0, 49, 0
2, 119909, Note_on_c, 0, 49, 65
2, 120015, Note_on_c, 0, 61, 0
2, 120015, Note_on_c, 0, 64, 0
2, 120015, Note_on_c, 0, 81, 0
2, 120023, Note_on_c, 0, 57, 0
2, 120023, Note_on_c, 0, 69, 0
2, 120023, Note_on_c, 0, 73, 0
2, 120023, Note_on_c, 0, 76, 0
2, 120026, Note_on_c, 0, 64, 96
2, 120026, Note_on_c, 0, 81, 90
2, 120026, Note_on_c, 0, 61, 91
2, 120027, Note_on_c, 0, 69, 94
2, 120031, Note_on_c, 0, 57, 85
2, 120032, Note_on_c, 0, 73, 86
2, 120033, Note_on_c, 0, 76, 79
2, 120199, Note_on_c, 0, 69, 0
2, 120204, Note_on_c, 0, 69, 71
2, 120205, Control_c, 0, 64, 0
2, 120207, Note_on_c, 0, 49, 0
2, 120208, Note_on_c, 0, 61, 0
2, 120208, Note_on_c, 0, 37, 0
2, 120209, Note_on_c, 0, 73, 0
2, 120209, Note_on_c, 0, 64, 0
2, 120209, Note_on_c, 0, 81, 0
2, 120209, Note_on_c, 0, 71, 0
2, 120209, Note_on_c, 0, 57, 0
2, 120209, Note_on_c, 0, 80, 0
2, 120238, Note_on_c, 0, 74, 78
2, 120272, Note_on_c, 0, 80, 105
2, 120272, Note_on_c, 0, 38, 93
2, 120276, Control_c, 0, 64, 127
2, 120307, Note_on_c, 0, 69, 0
2, 120524, Note_on_c, 0, 78, 93
2, 120526, Note_on_c, 0, 64, 81
2, 120526, Note_on_c, 0, 54, 84
2, 120527, Note_on_c, 0, 69, 80
2, 120536, Note_on_c, 0, 57, 71
2, 120652, Note_on_c, 0, 38, 0
2, 120652, Note_on_c, 0, 69, 0
2, 120652, Note_on_c, 0, 76, 0
2, 120656, Note_on_c, 0, 76, 98
2, 120659, Note_on_c, 0, 50, 78
2, 120660, Note_on_c, 0, 38, 82
2, 120663, Note_on_c, 0, 69, 80
2, 120666, Note_on_c, 0, 73, 89
2, 120913, Note_on_c, 0, 50, 0
2, 120913, Note_on_c, 0, 69, 0
2, 120919, Note_on_c, 0, 50, 68
2, 120919, Note_on_c, 0, 69, 73
2, 121013, Note_on_c, 0, 54, 0
2, 121013, Note_on_c, 0, 64, 0
2, 121019, Note_on_c, 0, 64, 80
2, 121023, Note_on_c, 0, 54, 84
2, 121036, Note_on_c, 0, 76, 0
2, 121043, Note_on_c, 0, 76, 70
2, 121153, Note_on_c, 0, 81, 81
2, 121243, Note_on_c, 0, 54, 0
2, 121243, Note_on_c, 0, 69, 0
2, 121243, Note_on_c, 0, 50, 0
2, 121243, Control_c, 0, 64, 0
2, 121244, Note_on_c, 0, 73, 0
2, 121244, Note_on_c, 0, 64, 0
2, 121244, Note_on_c, 0, 76, 0
2, 121244, Note_on_c, 0, 57, 0
2, 121244, Note_on_c, 0, 81, 0
2, 121245, Note_on_c, 0, 78, 0
2, 121245, Note_on_c, 0, 38, 0
2, 121246, Note_on_c, 0, 80, 0
2, 121251, Note_on_c, 0, 74, 0
2, 121278, Note_on_c, 0, 40, 90
2, 121279, Note_on_c, 0, 88, 88
2, 121287, Note_on_c, 0, 80, 77
2, 121313, Control_c, 0, 64, 127
2, 121423, Note_on_c, 0, 76, 60
2, 121517, Note_on_c, 0, 56, 77
2, 121524, Note_on_c, 0, 86, 87
2, 121526, Note_on_c, 0, 47, 75
2, 121528, Note_on_c, 0, 80, 0
2, 121537, Note_on_c, 0, 80, 80
2, 121628, Note_on_c, 0, 40, 0
2, 121635, Note_on_c, 0, 76, 0
2, 121639, Note_on_c, 0, 40, 81
2, 121647, Note_on_c, 0, 76, 78
2, 121732, Control_c, 0, 64, 0
2, 121736, Note_on_c, 0, 40, 0
2, 121738, Note_on_c, 0, 56, 0
2, 121738, Note_on_c, 0, 76, 0
2, 121739, Note_on_c, 0, 86, 0
2, 121739, Note_on_c, 0, 88, 0
2, 121758, Note_on_c, 0, 47, 0
2, 121774, Note_on_c, 0, 80, 0
2, 121776, Note_on_c, 0, 85, 90
2, 121777, Note_on_c, 0, 41, 83
2, 121781, Note_on_c, 0, 76, 69
2, 121783, Note_on_c, 0, 80, 82
2, 121797, Control_c, 0, 64, 127
2, 121914, Note_on_c, 0, 77, 71
2, 121931, Note_on_c, 0, 53, 32
2, 121939, Note_on_c, 0, 52, 28
2, 121943, Note_on_c, 0, 52, 0
2, 122022, Note_on_c, 0, 56, 80
2, 122030, Note_on_c, 0, 49, 70
2, 122035, Note_on_c, 0, 80, 0
2, 122039, Note_on_c, 0, 83, 80
2, 122044, Note_on_c, 0, 80, 76
2, 122142, Note_on_c, 0, 77, 0
2, 122146, Note_on_c, 0, 52, 65
2, 122148, Note_on_c, 0, 77, 76
2, 122165, Note_on_c, 0, 76, 0
2, 122170, Note_on_c, 0, 76, 49
2, 122238, Note_on_c, 0, 85, 0
2, 122239, Control_c, 0, 64, 0
2, 122239, Note_on_c, 0, 77, 0
2, 122239, Note_on_c, 0, 83, 0
2, 122240, Note_on_c, 0, 80, 0
2, 122240, Note_on_c, 0, 56, 0
2, 122240, Note_on_c, 0, 49, 0
2, 122250, Note_on_c, 0, 41, 0
2, 122250, Note_on_c, 0, 52, 0
2, 122250, Note_on_c, 0, 53, 0
2, 122250, Note_on_c, 0, 76, 0
2, 122289, Note_on_c, 0, 85, 93
2, 122293, Note_on_c, 0, 81, 66
2, 122294, Note_on_c, 0, 42, 89
2, 122299, Note_on_c, 0, 30, 75
2, 122300, Note_on_c, 0, 73, 83
2, 122304, Note_on_c, 0, 30, 0
2, 122327, Control_c, 0, 64, 127
2, 122442, Note_on_c, 0, 81, 0
2, 122453, Note_on_c, 0, 81, 60
2, 122554, Note_on_c, 0, 76, 90
2, 122562, Note_on_c, 0, 69, 83
2, 122562, Note_on_c, 0, 64, 82
2, 122565, Note_on_c, 0, 61, 79
2, 122585, Note_on_c, 0, 57, 69
2, 122678, Note_on_c, 0, 54, 84
2, 122803, Note_on_c, 0, 73, 0
2, 122813, Note_on_c, 0, 83, 101
2, 122814, Note_on_c, 0, 73, 98
2, 122933, Note_on_c, 0, 54, 0
2, 122943, Note_on_c, 0, 54, 92
2, 123072, Note_on_c, 0, 61, 0
2, 123072, Note_on_c, 0, 64, 0
2, 123079, Note_on_c, 0, 57, 0
2, 123080, Note_on_c, 0, 80, 91
2, 123082, Note_on_c, 0, 64, 80
2, 123082, Note_on_c, 0, 61, 85
2, 123084, Note_on_c, 0, 57, 80
2, 123085, Note_on_c, 0, 71, 74
2, 123194, Note_on_c, 0, 81, 0
2, 123202, Note_on_c, 0, 69, 0
2, 123202, Note_on_c, 0, 73, 0
2, 123205, Note_on_c, 0, 81, 105
2, 123208, Note_on_c, 0, 69, 93
2, 123209, Note_on_c, 0, 73, 96
2, 123233, Note_on_c, 0, 42, 0
2, 123243, Note_on_c, 0, 85, 0
2, 123244, Note_on_c, 0, 80, 0
2, 123244, Note_on_c, 0, 54, 0
2, 123244, Note_on_c, 0, 83, 0
2, 123245, Note_on_c, 0, 61, 0
2, 123245, Note_on_c, 0, 71, 0
2, 123245, Note_on_c, 0, 57, 0
2, 123245, Note_on_c, 0, 64, 0
2, 123245, Note_on_c, 0, 76, 0
2, 123250, Control_c, 0, 64, 0
2, 123317, Control_c, 0, 64, 127
2, 123320, Note_on_c, 0, 40, 96
2, 123323, Note_on_c, 0, 28, 84
2, 123333, Note_on_c, 0, 28, 0
2, 123596, Note_on_c, 0, 64, 87
2, 123597, Note_on_c, 0, 61, 80
2, 123599, Note_on_c, 0, 57, 79
2, 123729, Note_on_c, 0, 52, 78
2, 123978, Note_on_c, 0, 52, 0
2, 123984, Note_on_c, 0, 52, 83
2, 123987, Note_on_c, 0, 76, 93
2, 124093, Note_on_c, 0, 61, 0
2, 124093, Note_on_c, 0, 64, 0
2, 124093, Note_on_c, 0, 69, 0
2, 124093, Note_on_c, 0, 81, 0
2, 124101, Note_on_c, 0, 57, 0
2, 124102, Note_on_c, 0, 64, 92
2, 124103, Note_on_c, 0, 61, 87
2, 124104, Note_on_c, 0, 81, 95
2, 124104, Note_on_c, 0, 69, 93
2, 124106, Note_on_c, 0, 57, 80
2, 124221, Note_on_c, 0, 71, 90
2, 124225, Note_on_c, 0, 83, 97
2, 124239, Note_on_c, 0, 81, 0
2, 124246, Note_on_c, 0, 81, 60
2, 124283, Note_on_c, 0, 61, 0
2, 124283, Note_on_c, 0, 69, 0
2, 124284, Note_on_c, 0, 52, 0
2, 124284, Note_on_c, 0, 64, 0
2, 124284, Note_on_c, 0, 57, 0
2, 124284, Note_on_c, 0, 40, 0
2, 124285, Note_on_c, 0, 81, 0
2, 124287, Note_on_c, 0, 76, 0
2, 124287, Note_on_c, 0, 71, 0
2, 124288, Control_c, 0, 64, 0
2, 124289, Note_on_c, 0, 83, 0
2, 124293, Note_on_c, 0, 73, 0
2, 124349, Note_on_c, 0, 78, 97
2, 124350, Note_on_c, 0, 73, 100
2, 124351, Note_on_c, 0, 85, 98
2, 124358, Note_on_c, 0, 27, 89
2, 124358, Note_on_c, 0, 39, 97
2, 124362, Note_on_c, 0, 27, 0
2, 124385, Control_c, 0, 64, 127
2, 124602, Note_on_c, 0, 59, 85
2, 124605, Note_on_c, 0, 57, 78
2, 124606, Note_on_c, 0, 54, 79
2, 124728, Note_on_c, 0, 51, 85
2, 124728, Note_on_c, 0, 83, 100
2, 124735, Note_on_c, 0, 71, 88
2, 124853, Note_on_c, 0, 83, 0
2, 124861, Note_on_c, 0, 71, 0
2, 124861, Note_on_c, 0, 78, 0
2, 124862, Note_on_c, 0, 83, 102
2, 124866, Note_on_c, 0, 78, 91
2, 124871, Note_on_c, 0, 75, 90
2, 124872, Note_on_c, 0, 71, 86
2, 125007, Note_on_c, 0, 39, 0
2, 125007, Note_on_c, 0, 51, 0
2, 125012, Note_on_c, 0, 51, 86
2, 125016, Note_on_c, 0, 39, 71
2, 125130, Note_on_c, 0, 54, 0
2, 125130, Note_on_c, 0, 59, 0
2, 125139, Note_on_c, 0, 59, 83
2, 125141, Note_on_c, 0, 54, 86
2, 125142, Note_on_c, 0, 47, 72
2, 125245, Note_on_c, 0, 71, 0
2, 125245, Note_on_c, 0, 83, 0
2, 125251, Note_on_c, 0, 83, 93
2, 125255, Note_on_c, 0, 71, 78
2, 125317, Note_on_c, 0, 54, 0
2, 125317, Note_on_c, 0, 78, 0
2, 125317, Note_on_c, 0, 57, 0
2, 125318, Note_on_c, 0, 51, 0
2, 125318, Note_on_c, 0, 73, 0
2, 125318, Note_on_c, 0, 83, 0
2, 125318, Note_on_c, 0, 71, 0
2, 125318, Note_on_c, 0, 85, 0
2, 125318, Control_c, 0, 64, 0
2, 125318, Note_on_c, 0, 59, 0
2, 125318, Note_on_c, 0, 75, 0
2, 125319, Note_on_c, 0, 39, 0
2, 125322, Note_on_c, 0, 47, 0
2, 125388, Note_on_c, 0, 86, 105
2, 125391, Control_c, 0, 64, 127
2, 125393, Note_on_c, 0, 78, 103
2, 125393, Note_on_c, 0, 74, 108
2, 125394, Note_on_c, 0, 50, 103
2, 125394, Note_on_c, 0, 38, 102
2, 125520, Control_c, 0, 64, 0
2, 125521, Note_on_c, 0, 38, 0
2, 125521, Note_on_c, 0, 50, 0
2, 125528, Note_on_c, 0, 50, 87
2, 125529, Note_on_c, 0, 38, 85
2, 125533, Note_on_c, 0, 74, 0
2, 125533, Note_on_c, 0, 86, 0
2, 125533, Note_on_c, 0, 78, 0
2, 125591, Note_on_c, 0, 50, 0
2, 125606, Note_on_c, 0, 38, 0
2, 125654, Note_on_c, 0, 85, 87
2, 125657, Note_on_c, 0, 73, 78
2, 125703, Note_on_c, 0, 73, 0
2, 125705, Note_on_c, 0, 85, 0
2, 125787, Note_on_c, 0, 49, 88
2, 125789, Note_on_c, 0, 83, 102
2, 125789, Note_on_c, 0, 37, 94
2, 125794, Note_on_c, 0, 71, 94
2, 125794, Note_on_c, 0, 77, 91
2, 125794, Note_on_c, 0, 80, 87
2, 125806, Control_c, 0, 64, 127
2, 126037, Note_on_c, 0, 85, 100
2, 126047, Note_on_c, 0, 73, 92
2, 126048, Note_on_c, 0, 39, 80
2, 126048, Note_on_c, 0, 79, 75
2, 126105, Note_on_c, 0, 80, 0
2, 126105, Note_on_c, 0, 77, 0
2, 126106, Note_on_c, 0, 49, 0
2, 126107, Note_on_c, 0, 71, 0
2, 126107, Note_on_c, 0, 83, 0
2, 126108, Note_on_c, 0, 37, 0
2, 126109, Control_c, 0, 64, 0
2, 126182, Control_c, 0, 64, 127
2, 126185, Note_on_c, 0, 53, 86
2, 126199, Note_on_c, 0, 41, 73
2, 126439, Note_on_c, 0, 53, 0
2, 126439, Note_on_c, 0, 41, 0
2, 126439, Control_c, 0, 64, 0
2, 126443, Note_on_c, 0, 85, 0
2, 126451, Note_on_c, 0, 39, 0
2, 126451, Note_on_c, 0, 79, 0
2, 126455, Note_on_c, 0, 42, 76
2, 126504, Note_on_c, 0, 73, 0
2, 126578, Note_on_c, 0, 49, 62
2, 126627, Control_c, 0, 64, 127
2, 126716, Note_on_c, 0, 61, 75
2, 126832, Note_on_c, 0, 54, 69
2, 126832, Note_on_c, 0, 57, 69
2, 126972, Note_on_c, 0, 66, 80
2, 127108, Note_on_c, 0, 73, 57
2, 127214, Note_on_c, 0, 81, 79
2, 127217, Note_on_c, 0, 78, 79
2, 127232, Note_on_c, 0, 69, 79
2, 127476, Note_on_c, 0, 54, 0
2, 127476, Note_on_c, 0, 49, 0
2, 127476, Note_on_c, 0, 66, 0
2, 127476, Note_on_c, 0, 69, 0
2, 127476, Note_on_c, 0, 61, 0
2, 127476, Note_on_c, 0, 73, 0
2, 127476, Note_on_c, 0, 57, 0
2, 127477, Note_on_c, 0, 78, 0
2, 127477, Control_c, 0, 64, 0
2, 127479, Note_on_c, 0, 81, 0
2, 127482, Note_on_c, 0, 41, 64
2, 127488, Note_on_c, 0, 42, 0
2, 127506, Note_on_c, 0, 68, 85
2, 127564, Control_c, 0, 64, 127
2, 127614, Note_on_c, 0, 49, 64
2, 127747, Note_on_c, 0, 69, 70
2, 127872, Note_on_c, 0, 68, 0
2, 127880, Note_on_c, 0, 56, 71
2, 127882, Note_on_c, 0, 53, 61
2, 127883, Note_on_c, 0, 68, 88
2, 128147, Note_on_c, 0, 73, 76
2, 128264, Note_on_c, 0, 80, 79
2, 128282, Note_on_c, 0, 77, 65
2, 128515, Note_on_c, 0, 49, 0
2, 128516, Note_on_c, 0, 73, 0
2, 128516, Control_c, 0, 64, 0
2, 128516, Note_on_c, 0, 56, 0
2, 128516, Note_on_c, 0, 69, 0
2, 128517, Note_on_c, 0, 77, 0
2, 128518, Note_on_c, 0, 80, 0
2, 128518, Note_on_c, 0, 41, 0
2, 128532, Note_on_c, 0, 53, 0
2, 128532, Note_on_c, 0, 68, 0
2, 128544, Note_on_c, 0, 40, 75
2, 128593, Control_c, 0, 64, 127
2, 128680, Note_on_c, 0, 49, 72
2, 128814, Note_on_c, 0, 64, 67
2, 128911, Note_on_c, 0, 56, 70
2, 128912, Note_on_c, 0, 52, 71
2, 128924, Note_on_c, 0, 64, 0
2, 128928, Note_on_c, 0, 64, 66
2, 129054, Note_on_c, 0, 68, 91
2, 129173, Note_on_c, 0, 73, 70
2, 129279, Note_on_c, 0, 80, 78
2, 129292, Note_on_c, 0, 76, 70
2, 129306, Note_on_c, 0, 61, 79
2, 129423, Note_on_c, 0, 61, 0
2, 129431, Note_on_c, 0, 61, 81
2, 129528, Note_on_c, 0, 52, 0
2, 129528, Note_on_c, 0, 68, 0
2, 129528, Note_on_c, 0, 80, 0
2, 129528, Note_on_c, 0, 73, 0
2, 129529, Note_on_c, 0, 49, 0
2, 129529, Note_on_c, 0, 64, 0
2, 129529, Note_on_c, 0, 76, 0
2, 129530, Note_on_c, 0, 56, 0
2, 129532, Control_c, 0, 64, 0
2, 129538, Note_on_c, 0, 40, 0
2, 129546, Note_on_c, 0, 61, 0
2, 129557, Note_on_c, 0, 61, 89
2, 129558, Note_on_c, 0, 39, 72
2, 129630, Control_c, 0, 64, 127
2, 129695, Note_on_c, 0, 71, 82
2, 129695, Note_on_c, 0, 47, 75
2, 129818, Note_on_c, 0, 68, 82
2, 129944, Note_on_c, 0, 69, 90
2, 129946, Note_on_c, 0, 51, 73
2, 129948, Note_on_c, 0, 54, 77
2, 130145, Note_on_c, 0, 69, 0
2, 130155, Note_on_c, 0, 69, 42
2, 130199, Note_on_c, 0, 71, 0
2, 130207, Note_on_c, 0, 71, 65
2, 130323, Note_on_c, 0, 81, 80
2, 130326, Note_on_c, 0, 78, 75
2, 130341, Note_on_c, 0, 75, 67
2, 130526, Note_on_c, 0, 47, 0
2, 130527, Note_on_c, 0, 51, 0
2, 130527, Note_on_c, 0, 54, 0
2, 130527, Note_on_c, 0, 71, 0
2, 130528, Note_on_c, 0, 61, 0
2, 130530, Note_on_c, 0, 68, 0
2, 130530, Control_c, 0, 64, 0
2, 130544, Note_on_c, 0, 39, 0
2, 130589, Note_on_c, 0, 47, 83
2, 130593, Note_on_c, 0, 35, 78
2, 130606, Control_c, 0, 64, 127
2, 130705, Note_on_c, 0, 35, 0
2, 130705, Note_on_c, 0, 47, 0
2, 130711, Note_on_c, 0, 35, 66
2, 130713, Note_on_c, 0, 47, 70
2, 130847, Note_on_c, 0, 76, 87
2, 130848, Note_on_c, 0, 64, 80
2, 130967, Note_on_c, 0, 64, 0
2, 130967, Note_on_c, 0, 69, 0
2, 130967, Note_on_c, 0, 76, 0
2, 130971, Note_on_c, 0, 76, 85
2, 130974, Note_on_c, 0, 64, 74
2, 130977, Note_on_c, 0, 69, 76
2, 130977, Note_on_c, 0, 54, 72
2, 130978, Note_on_c, 0, 57, 74
2, 131089, Note_on_c, 0, 69, 0
2, 131089, Note_on_c, 0, 81, 0
2, 131099, Note_on_c, 0, 81, 92
2, 131101, Note_on_c, 0, 69, 84
2, 131212, Note_on_c, 0, 35, 0
2, 131212, Note_on_c, 0, 47, 0
2, 131220, Note_on_c, 0, 47, 80
2, 131220, Note_on_c, 0, 35, 71
2, 131224, Note_on_c, 0, 86, 96
2, 131231, Note_on_c, 0, 74, 94
2, 131343, Note_on_c, 0, 57, 0
2, 131343, Note_on_c, 0, 69, 0
2, 131349, Note_on_c, 0, 69, 74
2, 131352, Note_on_c, 0, 57, 83
2, 131353, Note_on_c, 0, 62, 82
2, 131481, Note_on_c, 0, 76, 0
2, 131485, Note_on_c, 0, 85, 103
2, 131488, Note_on_c, 0, 73, 94
2, 131489, Note_on_c, 0, 76, 94
2, 131509, Note_on_c, 0, 69, 0
2, 131510, Note_on_c, 0, 74, 0
2, 131510, Note_on_c, 0, 64, 0
2, 131510, Note_on_c, 0, 81, 0
2, 131510, Control_c, 0, 64, 0
2, 131510, Note_on_c, 0, 86, 0
2, 131510, Note_on_c, 0, 62, 0
2, 131511, Note_on_c, 0, 47, 0
2, 131512, Note_on_c, 0, 75, 0
2, 131512, Note_on_c, 0, 54, 0
2, 131520, Note_on_c, 0, 78, 0
2, 131527, Note_on_c, 0, 35, 0
2, 131527, Note_on_c, 0, 57, 0
2, 131573, Control_c, 0, 64, 127
2, 131607, Note_on_c, 0, 49, 94
2, 131608, Note_on_c, 0, 37, 95
2, 131735, Note_on_c, 0, 37, 0
2, 131735, Note_on_c, 0, 49, 0
2, 131741, Note_on_c, 0, 49, 92
2, 131744, Note_on_c, 0, 37, 76
2, 131875, Note_on_c, 0, 81, 94
2, 131880, Note_on_c, 0, 69, 80
2, 132000, Note_on_c, 0, 80, 99
2, 132002, Note_on_c, 0, 57, 81
2, 132003, Note_on_c, 0, 52, 77
2, 132003, Note_on_c, 0, 68, 96
2, 132249, Note_on_c, 0, 81, 0
2, 132257, Note_on_c, 0, 49, 0
2, 132257, Note_on_c, 0, 69, 0
2, 132260, Note_on_c, 0, 81, 104
2, 132262, Note_on_c, 0, 69, 90
2, 132268, Note_on_c, 0, 49, 78
2, 132269, Note_on_c, 0, 64, 76
2, 132387, Note_on_c, 0, 57, 0
2, 132387, Note_on_c, 0, 64, 0
2, 132391, Note_on_c, 0, 57, 83
2, 132393, Note_on_c, 0, 64, 90
2, 132518, Note_on_c, 0, 69, 0
2, 132518, Note_on_c, 0, 81, 0
2, 132526, Note_on_c, 0, 81, 104
2, 132528, Note_on_c, 0, 69, 102
2, 132529, Note_on_c, 0, 77, 95
2, 132530, Note_on_c, 0, 74, 103
2, 132562, Note_on_c, 0, 73, 0
2, 132562, Note_on_c, 0, 80, 0
2, 132563, Note_on_c, 0, 64, 0
2, 132563, Note_on_c, 0, 52, 0
2, 132564, Note_on_c, 0, 68, 0
2, 132564, Note_on_c, 0, 49, 0
2, 132565, Note_on_c, 0, 37, 0
2, 132566, Note_on_c, 0, 57, 0
2, 132568, Control_c, 0, 64, 0
2, 132572, Note_on_c, 0, 85, 0
2, 132579, Note_on_c, 0, 76, 0
2, 132648, Control_c, 0, 64, 127
2, 132658, Note_on_c, 0, 50, 104
2, 132658, Note_on_c, 0, 38, 103
2, 132809, Note_on_c, 0, 57, 80
2, 132871, Note_on_c, 0, 69, 0
2, 132879, Note_on_c, 0, 69, 66
2, 132880, Note_on_c, 0, 62, 82
2, 132937, Note_on_c, 0, 64, 84
2, 132989, Note_on_c, 0, 65, 69
2, 133048, Note_on_c, 0, 50, 0
2, 133054, Note_on_c, 0, 50, 79
2, 133056, Note_on_c, 0, 69, 0
2, 133062, Note_on_c, 0, 69, 79
2, 133109, Note_on_c, 0, 74, 0
2, 133119, Note_on_c, 0, 74, 86
2, 133164, Note_on_c, 0, 76, 86
2, 133186, Note_on_c, 0, 57, 0
2, 133186, Note_on_c, 0, 62, 0
2, 133194, Note_on_c, 0, 77, 0
2, 133196, Note_on_c, 0, 57, 89
2, 133197, Note_on_c, 0, 62, 84
2, 133197, Note_on_c, 0, 53, 85
2, 133198, Note_on_c, 0, 77, 83
2, 133255, Note_on_c, 0, 81, 0
2, 133262, Note_on_c, 0, 81, 94
2, 133313, Note_on_c, 0, 86, 91
2, 133359, Note_on_c, 0, 88, 87
2, 133393, Note_on_c, 0, 89, 62
2, 133435, Note_on_c, 0, 93, 94
2, 133485, Note_on_c, 0, 98, 100
2, 133518, Note_on_c, 0, 100, 68
2, 133566, Note_on_c, 0, 101, 85
2, 133716, Note_on_c, 0, 50, 0
2, 133721, Note_on_c, 0, 55, 101
2, 133723, Note_on_c, 0, 50, 92
2, 133725, Note_on_c, 0, 43, 92
2, 133743, Note_on_c, 0, 101, 0
2, 133743, Note_on_c, 0, 100, 0
2, 133743, Note_on_c, 0, 98, 0
2, 133744, Note_on_c, 0, 93, 0
2, 133744, Note_on_c, 0, 86, 0
2, 133744, Note_on_c, 0, 77, 0
2, 133744, Note_on_c, 0, 38, 0
2, 133744, Note_on_c, 0, 64, 0
2, 133744, Note_on_c, 0, 65, 0
2, 133744, Note_on_c, 0, 88, 0
2, 133744, Note_on_c, 0, 76, 0
2, 133744, Note_on_c, 0, 89, 0
2, 133745, Note_on_c, 0, 81, 0
2, 133745, Note_on_c, 0, 57, 0
2, 133745, Note_on_c, 0, 53, 0
2, 133745, Note_on_c, 0, 62, 0
2, 133746, Note_on_c, 0, 74, 0
2, 133751, Control_c, 0, 64, 0
2, 133762, Note_on_c, 0, 69, 0
2, 133900, Control_c, 0, 64, 127
2, 134117, Note_on_c, 0, 76, 85
2, 134189, Note_on_c, 0, 55, 0
2, 134189, Note_on_c, 0, 50, 0
2, 134190, Control_c, 0, 64, 0
2, 134190, Note_on_c, 0, 76, 0
2, 134208, Note_on_c, 0, 43, 0
2, 134238, Note_on_c, 0, 47, 100
2, 134239, Note_on_c, 0, 52, 104
2, 134240, Note_on_c, 0, 40, 101
2, 134242, Note_on_c, 0, 76, 97
2, 134244, Note_on_c, 0, 83, 99
2, 134244, Note_on_c, 0, 71, 99
2, 134249, Note_on_c, 0, 80, 92
2, 134254, Control_c, 0, 64, 127
2, 134352, Control_c, 0, 64, 0
2, 134353, Note_on_c, 0, 52, 0
2, 134361, Note_on_c, 0, 40, 0
2, 134365, Note_on_c, 0, 52, 85
2, 134365, Note_on_c, 0, 40, 79
2, 134366, Note_on_c, 0, 81, 95
2, 134370, Note_on_c, 0, 69, 68
2, 134403, Note_on_c, 0, 47, 0
2, 134405, Note_on_c, 0, 71, 0
2, 134405, Note_on_c, 0, 83, 0
2, 134407, Note_on_c, 0, 81, 0
2, 134409, Note_on_c, 0, 76, 0
2, 134415, Note_on_c, 0, 69, 0
2, 134415, Note_on_c, 0, 80, 0
2, 134438, Note_on_c, 0, 52, 0
2, 134510, Note_on_c, 0, 68, 80
2, 134510, Note_on_c, 0, 80, 87
2, 134522, Note_on_c, 0, 40, 0
2, 134540, Note_on_c, 0, 68, 0
2, 134552, Note_on_c, 0, 80, 0
2, 134646, Note_on_c, 0, 81, 103
2, 134654, Note_on_c, 0, 76, 87
2, 134655, Note_on_c, 0, 72, 89
2, 134655, Note_on_c, 0, 69, 83
2, 134760, Control_c, 0, 64, 127
2, 134792, Note_on_c, 0, 41, 73
2, 134794, Note_on_c, 0, 48, 78
2, 135083, Note_on_c, 0, 48, 0
2, 135092, Note_on_c, 0, 48, 62
2, 135221, Note_on_c, 0, 53, 59
2, 135359, Note_on_c, 0, 55, 67
2, 135473, Note_on_c, 0, 57, 67
2, 135611, Note_on_c, 0, 60, 64
2, 135718, Note_on_c, 0, 62, 68
2, 135720, Note_on_c, 0, 69, 0
2, 135725, Note_on_c, 0, 69, 65
2, 135769, Note_on_c, 0, 71, 66
2, 135820, Note_on_c, 0, 60, 0
2, 135828, Note_on_c, 0, 72, 0
2, 135831, Note_on_c, 0, 60, 60
2, 135833, Note_on_c, 0, 72, 69
2, 135851, Note_on_c, 0, 76, 0
2, 135862, Note_on_c, 0, 76, 84
2, 135868, Note_on_c, 0, 64, 71
2, 135997, Note_on_c, 0, 60, 0
2, 136005, Note_on_c, 0, 60, 70
2, 136112, Note_on_c, 0, 57, 0
2, 136123, Note_on_c, 0, 57, 62
2, 136258, Note_on_c, 0, 60, 0
2, 136265, Note_on_c, 0, 60, 59
2, 136269, Note_on_c, 0, 74, 81
2, 136273, Note_on_c, 0, 69, 0
2, 136284, Note_on_c, 0, 69, 65
2, 136396, Note_on_c, 0, 57, 0
2, 136401, Note_on_c, 0, 57, 61
2, 136535, Note_on_c, 0, 53, 0
2, 136541, Note_on_c, 0, 53, 51
2, 136657, Note_on_c, 0, 72, 0
2, 136665, Note_on_c, 0, 69, 0
2, 136668, Note_on_c, 0, 72, 85
2, 136673, Note_on_c, 0, 57, 0
2, 136676, Note_on_c, 0, 69, 68
2, 136677, Note_on_c, 0, 57, 65
2, 136780, Note_on_c, 0, 48, 0
2, 136788, Note_on_c, 0, 48, 65
2, 136926, Note_on_c, 0, 74, 0
2, 136928, Note_on_c, 0, 48, 0
2, 136929, Note_on_c, 0, 55, 0
2, 136929, Note_on_c, 0, 64, 0
2, 136929, Note_on_c, 0, 69, 0
2, 136929, Note_on_c, 0, 76, 0
2, 136929, Note_on_c, 0, 60, 0
2, 136929, Note_on_c, 0, 62, 0
2, 136929, Control_c, 0, 64, 0
2, 136929, Note_on_c, 0, 81, 0
2, 136929, Note_on_c, 0, 57, 0
2, 136929, Note_on_c, 0, 72, 0
2, 136934, Note_on_c, 0, 41, 0
2, 136937, Note_on_c, 0, 74, 81
2, 136940, Note_on_c, 0, 41, 66
2, 136942, Note_on_c, 0, 53, 0
2, 136942, Note_on_c, 0, 71, 0
2, 136946, Note_on_c, 0, 71, 71
2, 136948, Note_on_c, 0, 67, 70
2, 137049, Control_c, 0, 64, 127
2, 137203, Note_on_c, 0, 50, 71
2, 137328, Note_on_c, 0, 72, 75
2, 137334, Note_on_c, 0, 55, 71
2, 137341, Note_on_c, 0, 41, 0
2, 137366, Note_on_c, 0, 48, 35
2, 137372, Note_on_c, 0, 48, 0
2, 137448, Note_on_c, 0, 71, 0
2, 137459, Note_on_c, 0, 71, 76
2, 137472, Note_on_c, 0, 67, 0
2, 137476, Note_on_c, 0, 67, 64
2, 137483, Note_on_c, 0, 57, 50
2, 137607, Note_on_c, 0, 59, 70
2, 137730, Note_on_c, 0, 60, 67
2, 137836, Note_on_c, 0, 62, 78
2, 137965, Note_on_c, 0, 91, 91
2, 137986, Note_on_c, 0, 67, 0
2, 137992, Note_on_c, 0, 67, 78
2, 138033, Note_on_c, 0, 86, 77
2, 138100, Note_on_c, 0, 84, 82
2, 138132, Note_on_c, 0, 62, 0
2, 138138, Note_on_c, 0, 62, 72
2, 138155, Note_on_c, 0, 86, 0
2, 138166, Note_on_c, 0, 86, 80
2, 138213, Note_on_c, 0, 83, 82
2, 138263, Note_on_c, 0, 59, 0
2, 138263, Note_on_c, 0, 84, 0
2, 138268, Note_on_c, 0, 59, 69
2, 138274, Note_on_c, 0, 84, 72
2, 138340, Note_on_c, 0, 81, 78
2, 138355, Note_on_c, 0, 55, 0
2, 138361, Note_on_c, 0, 55, 78
2, 138432, Note_on_c, 0, 83, 0
2, 138440, Note_on_c, 0, 83, 82
2, 138478, Note_on_c, 0, 62, 0
2, 138482, Note_on_c, 0, 62, 79
2, 138496, Note_on_c, 0, 79, 83
2, 138531, Note_on_c, 0, 74, 0
2, 138542, Note_on_c, 0, 74, 85
2, 138624, Note_on_c, 0, 72, 0
2, 138629, Note_on_c, 0, 72, 80
2, 138631, Note_on_c, 0, 59, 0
2, 138635, Note_on_c, 0, 59, 76
2, 138662, Note_on_c, 0, 74, 0
2, 138673, Note_on_c, 0, 74, 74
2, 138746, Note_on_c, 0, 71, 0
2, 138756, Note_on_c, 0, 71, 82
2, 138762, Note_on_c, 0, 55, 0
2, 138766, Note_on_c, 0, 55, 70
2, 138846, Note_on_c, 0, 72, 0
2, 138854, Note_on_c, 0, 72, 82
2, 138854, Note_on_c, 0, 50, 0
2, 138864, Note_on_c, 0, 50, 74
2, 138876, Note_on_c, 0, 69, 72
2, 138961, Note_on_c, 0, 71, 0
2, 138967, Note_on_c, 0, 71, 69
2, 138991, Note_on_c, 0, 86, 0
2, 138991, Note_on_c, 0, 67, 0
2, 138991, Note_on_c, 0, 72, 0
2, 138992, Note_on_c, 0, 62, 0
2, 138992, Note_on_c, 0, 83, 0
2, 138992, Note_on_c, 0, 60, 0
2, 138992, Note_on_c, 0, 59, 0
2, 138993, Note_on_c, 0, 55, 0
2, 138993, Note_on_c, 0, 84, 0
2, 138993, Note_on_c, 0, 50, 0
2, 138993, Note_on_c, 0, 69, 0
2, 138993, Note_on_c, 0, 81, 0
2, 138993, Note_on_c, 0, 57, 0
2, 138994, Note_on_c, 0, 91, 0
2, 138994, Control_c, 0, 64, 0
2, 139015, Note_on_c, 0, 74, 0
2, 139015, Note_on_c, 0, 79, 0
2, 139021, Note_on_c, 0, 74, 89
2, 139023, Note_on_c, 0, 71, 0
2, 139023, Note_on_c, 0, 40, 71
2, 139027, Note_on_c, 0, 67, 79
2, 139138, Control_c, 0, 64, 127
2, 139291, Note_on_c, 0, 50, 66
2, 139433, Note_on_c, 0, 55, 70
2, 139563, Note_on_c, 0, 57, 66
2, 139688, Note_on_c, 0, 59, 73
2, 139807, Note_on_c, 0, 60, 76
2, 139886, Note_on_c, 0, 69, 75
2, 139914, Note_on_c, 0, 62, 73
2, 139939, Note_on_c, 0, 71, 78
2, 139968, Note_on_c, 0, 74, 0
2, 139978, Note_on_c, 0, 74, 84
2, 140067, Note_on_c, 0, 67, 0
2, 140067, Note_on_c, 0, 71, 0
2, 140072, Note_on_c, 0, 67, 75
2, 140075, Note_on_c, 0, 79, 92
2, 140078, Note_on_c, 0, 71, 77
2, 140213, Note_on_c, 0, 62, 0
2, 140221, Note_on_c, 0, 62, 65
2, 140276, Note_on_c, 0, 83, 93
2, 140282, Note_on_c, 0, 74, 0
2, 140293, Note_on_c, 0, 74, 79
2, 140336, Note_on_c, 0, 60, 0
2, 140344, Note_on_c, 0, 60, 71
2, 140428, Note_on_c, 0, 83, 0
2, 140434, Note_on_c, 0, 83, 91
2, 140436, Note_on_c, 0, 59, 0
2, 140440, Note_on_c, 0, 59, 79
2, 140444, Note_on_c, 0, 74, 0
2, 140449, Note_on_c, 0, 74, 80
2, 140582, Note_on_c, 0, 62, 0
2, 140582, Note_on_c, 0, 83, 0
2, 140589, Note_on_c, 0, 62, 82
2, 140589, Note_on_c, 0, 83, 96
2, 140590, Note_on_c, 0, 74, 0
2, 140595, Note_on_c, 0, 74, 92
2, 140728, Note_on_c, 0, 60, 0
2, 140737, Note_on_c, 0, 60, 76
2, 140766, Note_on_c, 0, 71, 0
2, 140766, Note_on_c, 0, 79, 0
2, 140770, Note_on_c, 0, 79, 89
2, 140776, Note_on_c, 0, 71, 82
2, 140851, Note_on_c, 0, 59, 0
2, 140862, Note_on_c, 0, 59, 73
2, 140943, Note_on_c, 0, 76, 88
2, 140943, Note_on_c, 0, 55, 0
2, 140943, Note_on_c, 0, 67, 0
2, 140947, Note_on_c, 0, 55, 83
2, 140947, Note_on_c, 0, 67, 80
2, 140958, Note_on_c, 0, 71, 0
2, 140969, Note_on_c, 0, 71, 59
2, 141112, Note_on_c, 0, 74, 0
2, 141120, Note_on_c, 0, 69, 0
2, 141121, Note_on_c, 0, 74, 94
2, 141124, Note_on_c, 0, 45, 70
2, 141126, Control_c, 0, 64, 0
2, 141127, Note_on_c, 0, 50, 0
2, 141127, Note_on_c, 0, 62, 0
2, 141128, Note_on_c, 0, 59, 0
2, 141128, Note_on_c, 0, 67, 0
2, 141128, Note_on_c, 0, 57, 0
2, 141128, Note_on_c, 0, 71, 0
2, 141129, Note_on_c, 0, 55, 0
2, 141129, Note_on_c, 0, 83, 0
2, 141129, Note_on_c, 0, 79, 0
2, 141131, Note_on_c, 0, 69, 72
2, 141131, Note_on_c, 0, 76, 0
2, 141135, Note_on_c, 0, 40, 0
2, 141143, Note_on_c, 0, 60, 0
2, 141242, Control_c, 0, 64, 127
2, 141255, Note_on_c, 0, 52, 66
2, 141392, Note_on_c, 0, 57, 69
2, 141522, Note_on_c, 0, 59, 66
2, 141629, Note_on_c, 0, 72, 87
2, 141634, Note_on_c, 0, 69, 0
2, 141640, Note_on_c, 0, 60, 72
2, 141645, Note_on_c, 0, 69, 69
2, 141757, Note_on_c, 0, 57, 0
2, 141767, Note_on_c, 0, 57, 56
2, 141888, Note_on_c, 0, 64, 69
2, 141900, Note_on_c, 0, 71, 55
2, 142010, Note_on_c, 0, 69, 0
2, 142010, Note_on_c, 0, 72, 0
2, 142015, Note_on_c, 0, 72, 89
2, 142016, Note_on_c, 0, 69, 76
2, 142275, Note_on_c, 0, 96, 85
2, 142287, Note_on_c, 0, 69, 0
2, 142298, Note_on_c, 0, 69, 69
2, 142339, Note_on_c, 0, 95, 79
2, 142403, Note_on_c, 0, 91, 80
2, 142440, Note_on_c, 0, 64, 0
2, 142441, Note_on_c, 0, 88, 78
2, 142445, Note_on_c, 0, 64, 74
2, 142520, Note_on_c, 0, 86, 72
2, 142540, Note_on_c, 0, 60, 0
2, 142545, Note_on_c, 0, 60, 67
2, 142585, Note_on_c, 0, 84, 81
2, 142648, Note_on_c, 0, 59, 0
2, 142653, Note_on_c, 0, 59, 77
2, 142655, Note_on_c, 0, 83, 72
2, 142720, Note_on_c, 0, 79, 83
2, 142778, Note_on_c, 0, 57, 0
2, 142778, Note_on_c, 0, 84, 0
2, 142786, Note_on_c, 0, 84, 88
2, 142789, Note_on_c, 0, 57, 68
2, 142855, Note_on_c, 0, 83, 0
2, 142862, Note_on_c, 0, 83, 74
2, 142909, Note_on_c, 0, 52, 0
2, 142909, Note_on_c, 0, 79, 0
2, 142913, Note_on_c, 0, 79, 72
2, 142916, Note_on_c, 0, 52, 62
2, 142967, Note_on_c, 0, 76, 72
2, 143032, Note_on_c, 0, 45, 0
2, 143038, Note_on_c, 0, 45, 66
2, 143040, Note_on_c, 0, 72, 0
2, 143046, Note_on_c, 0, 72, 80
2, 143109, Note_on_c, 0, 71, 0
2, 143119, Note_on_c, 0, 71, 76
2, 143167, Note_on_c, 0, 59, 0
2, 143168, Note_on_c, 0, 52, 0
2, 143168, Note_on_c, 0, 95, 0
2, 143168, Note_on_c, 0, 45, 0
2, 143168, Note_on_c, 0, 86, 0
2, 143168, Note_on_c, 0, 83, 0
2, 143169, Note_on_c, 0, 64, 0
2, 143169, Note_on_c, 0, 72, 0
2, 143169, Note_on_c, 0, 71, 0
2, 143169, Control_c, 0, 64, 0
2, 143169, Note_on_c, 0, 96, 0
2, 143169, Note_on_c, 0, 84, 0
2, 143169, Note_on_c, 0, 91, 0
2, 143169, Note_on_c, 0, 60, 0
2, 143170, Note_on_c, 0, 88, 0
2, 143170, Note_on_c, 0, 79, 0
2, 143170, Note_on_c, 0, 69, 0
2, 143170, Note_on_c, 0, 76, 0
2, 143181, Note_on_c, 0, 69, 80
2, 143184, Note_on_c, 0, 41, 68
2, 143185, Note_on_c, 0, 57, 0
2, 143185, Note_on_c, 0, 74, 0
2, 143198, Note_on_c, 0, 65, 64
2, 143308, Control_c, 0, 64, 127
2, 143337, Note_on_c, 0, 48, 65
2, 143480, Note_on_c, 0, 53, 66
2, 143561, Note_on_c, 0, 55, 74
2, 143592, Note_on_c, 0, 67, 76
2, 143646, Note_on_c, 0, 69, 0
2, 143652, Note_on_c, 0, 69, 72
2, 143726, Note_on_c, 0, 76, 90
2, 143728, Note_on_c, 0, 64, 68
2, 143732, Note_on_c, 0, 60, 59
2, 143746, Note_on_c, 0, 67, 0
2, 143751, Note_on_c, 0, 67, 50
2, 143756, Note_on_c, 0, 57, 59
2, 143873, Note_on_c, 0, 74, 85
2, 143987, Note_on_c, 0, 72, 85
2, 144115, Note_on_c, 0, 74, 0
2, 144121, Note_on_c, 0, 74, 87
2, 144122, Note_on_c, 0, 67, 0
2, 144131, Note_on_c, 0, 67, 69
2, 144133, Note_on_c, 0, 71, 70
2, 144203, Note_on_c, 0, 53, 0
2, 144203, Note_on_c, 0, 55, 0
2, 144203, Control_c, 0, 64, 0
2, 144203, Note_on_c, 0, 72, 0
2, 144204, Note_on_c, 0, 48, 0
2, 144204, Note_on_c, 0, 57, 0
2, 144204, Note_on_c, 0, 64, 0
2, 144204, Note_on_c, 0, 76, 0
2, 144204, Note_on_c, 0, 60, 0
2, 144204, Note_on_c, 0, 65, 0
2, 144222, Note_on_c, 0, 69, 0
2, 144238, Note_on_c, 0, 41, 0
2, 144243, Note_on_c, 0, 41, 71
2, 144322, Control_c, 0, 64, 127
2, 144374, Note_on_c, 0, 72, 80
2, 144389, Note_on_c, 0, 50, 69
2, 144402, Note_on_c, 0, 69, 57
2, 144407, Note_on_c, 0, 69, 0
2, 144499, Note_on_c, 0, 71, 0
2, 144508, Note_on_c, 0, 55, 76
2, 144510, Note_on_c, 0, 71, 83
2, 144645, Note_on_c, 0, 71, 0
2, 144647, Note_on_c, 0, 57, 61
2, 144650, Note_on_c, 0, 71, 52
2, 144761, Note_on_c, 0, 59, 73
2, 144763, Note_on_c, 0, 69, 55
2, 144898, Note_on_c, 0, 67, 0
2, 144904, Note_on_c, 0, 67, 71
2, 144906, Note_on_c, 0, 71, 0
2, 144907, Note_on_c, 0, 91, 84
2, 144910, Note_on_c, 0, 71, 61
2, 145031, Note_on_c, 0, 86, 77
2, 145033, Note_on_c, 0, 62, 62
2, 145121, Note_on_c, 0, 55, 0
2, 145125, Note_on_c, 0, 55, 78
2, 145156, Note_on_c, 0, 83, 70
2, 145253, Note_on_c, 0, 69, 0
2, 145253, Note_on_c, 0, 57, 0
2, 145253, Note_on_c, 0, 62, 0
2, 145254, Note_on_c, 0, 86, 0
2, 145254, Note_on_c, 0, 50, 0
2, 145254, Note_on_c, 0, 71, 0
2, 145254, Note_on_c, 0, 83, 0
2, 145254, Note_on_c, 0, 41, 0
2, 145254, Note_on_c, 0, 67, 0
2, 145254, Note_on_c, 0, 55, 0
2, 145254, Note_on_c, 0, 59, 0
2, 145254, Note_on_c, 0, 72, 0
2, 145255, Control_c, 0, 64, 0
2, 145255, Note_on_c, 0, 91, 0
2, 145267, Note_on_c, 0, 74, 0
2, 145287, Note_on_c, 0, 93, 74
2, 145291, Note_on_c, 0, 81, 81
2, 145295, Note_on_c, 0, 38, 59
2, 145297, Note_on_c, 0, 93, 0
2, 145299, Note_on_c, 0, 77, 67
2, 145299, Note_on_c, 0, 89, 67
2, 145305, Note_on_c, 0, 38, 0
2, 145305, Note_on_c, 0, 89, 0
2, 145307, Note_on_c, 0, 41, 62
2, 145344, Control_c, 0, 64, 127
2, 145430, Note_on_c, 0, 48, 78
2, 145585, Note_on_c, 0, 53, 68
2, 145663, Note_on_c, 0, 55, 77
2, 145668, Note_on_c, 0, 67, 75
2, 145745, Note_on_c, 0, 69, 70
2, 145818, Note_on_c, 0, 64, 71
2, 145821, Note_on_c, 0, 76, 87
2, 145822, Note_on_c, 0, 60, 63
2, 145835, Note_on_c, 0, 69, 0
2, 145841, Note_on_c, 0, 69, 59
2, 145845, Note_on_c, 0, 57, 58
2, 145939, Note_on_c, 0, 74, 79
2, 146067, Note_on_c, 0, 72, 82
2, 146196, Note_on_c, 0, 74, 0
2, 146205, Note_on_c, 0, 74, 83
2, 146211, Note_on_c, 0, 67, 0
2, 146222, Note_on_c, 0, 67, 78
2, 146224, Note_on_c, 0, 71, 76
2, 146282, Control_c, 0, 64, 0
2, 146284, Note_on_c, 0, 64, 0
2, 146284, Note_on_c, 0, 76, 0
2, 146284, Note_on_c, 0, 48, 0
2, 146284, Note_on_c, 0, 69, 0
2, 146284, Note_on_c, 0, 53, 0
2, 146284, Note_on_c, 0, 55, 0
2, 146284, Note_on_c, 0, 72, 0
2, 146285, Note_on_c, 0, 60, 0
2, 146285, Note_on_c, 0, 41, 0
2, 146285, Note_on_c, 0, 57, 0
2, 146285, Note_on_c, 0, 77, 0
2, 146287, Note_on_c, 0, 81, 0
2, 146332, Note_on_c, 0, 41, 70
2, 146388, Control_c, 0, 64, 127
2, 146461, Note_on_c, 0, 50, 69
2, 146466, Note_on_c, 0, 79, 87
2, 146567, Note_on_c, 0, 55, 78
2, 146588, Note_on_c, 0, 74, 0
2, 146598, Note_on_c, 0, 74, 89
2, 146713, Note_on_c, 0, 57, 66
2, 146732, Note_on_c, 0, 91, 85
2, 146836, Note_on_c, 0, 59, 75
2, 146862, Note_on_c, 0, 86, 81
2, 146952, Note_on_c, 0, 62, 68
2, 146988, Note_on_c, 0, 83, 73
2, 147095, Note_on_c, 0, 79, 0
2, 147102, Note_on_c, 0, 67, 0
2, 147106, Note_on_c, 0, 79, 83
2, 147108, Note_on_c, 0, 67, 72
2, 147386, Note_on_c, 0, 74, 0
2, 147390, Note_on_c, 0, 74, 89
2, 147395, Note_on_c, 0, 86, 0
2, 147395, Note_on_c, 0, 57, 0
2, 147396, Note_on_c, 0, 79, 0
2, 147396, Note_on_c, 0, 71, 0
2, 147396, Note_on_c, 0, 55, 0
2, 147396, Note_on_c, 0, 50, 0
2, 147396, Note_on_c, 0, 67, 0
2, 147396, Control_c, 0, 64, 0
2, 147396, Note_on_c, 0, 59, 0
2, 147396, Note_on_c, 0, 83, 0
2, 147397, Note_on_c, 0, 91, 0
2, 147398, Note_on_c, 0, 41, 0
2, 147402, Note_on_c, 0, 62, 0
2, 147406, Note_on_c, 0, 69, 64
2, 147412, Note_on_c, 0, 62, 60
2, 147414, Note_on_c, 0, 66, 72
2, 147464, Note_on_c, 0, 40, 59
2, 147548, Control_c, 0, 64, 127
2, 147665, Note_on_c, 0, 47, 64
2, 147790, Note_on_c, 0, 50, 65
2, 147918, Note_on_c, 0, 57, 62
2, 148077, Note_on_c, 0, 52, 52
2, 148200, Note_on_c, 0, 57, 0
2, 148206, Note_on_c, 0, 57, 39
2, 148320, Note_on_c, 0, 59, 66
2, 148446, Note_on_c, 0, 62, 0
2, 148451, Note_on_c, 0, 62, 69
2, 148561, Note_on_c, 0, 59, 0
2, 148572, Note_on_c, 0, 59, 68
2, 148707, Note_on_c, 0, 62, 0
2, 148712, Note_on_c, 0, 62, 67
2, 148855, Note_on_c, 0, 64, 70
2, 148984, Note_on_c, 0, 66, 0
2, 148995, Note_on_c, 0, 66, 83
2, 149184, Note_on_c, 0, 69, 0
2, 149194, Note_on_c, 0, 69, 79
2, 149368, Note_on_c, 0, 74, 0
2, 149373, Note_on_c, 0, 74, 81
2, 149414, Note_on_c, 0, 52, 0
2, 149418, Note_on_c, 0, 52, 51
2, 149460, Note_on_c, 0, 59, 0
2, 149466, Note_on_c, 0, 59, 63
2, 149544, Note_on_c, 0, 64, 0
2, 149552, Note_on_c, 0, 64, 62
2, 149554, Note_on_c, 0, 62, 0
2, 149555, Note_on_c, 0, 40, 0
2, 149555, Note_on_c, 0, 57, 0
2, 149555, Note_on_c, 0, 69, 0
2, 149555, Note_on_c, 0, 66, 0
2, 149556, Note_on_c, 0, 74, 0
2, 149575, Note_on_c, 0, 50, 0
2, 149583, Note_on_c, 0, 47, 0
2, 149585, Note_on_c, 0, 68, 64
2, 149590, Control_c, 0, 64, 0
2, 149618, Note_on_c, 0, 76, 77
2, 149798, Control_c, 0, 64, 127
2, 150181, Note_on_c, 0, 88, 74
2, 150750, Note_on_c, 0, 88, 0
2, 150755, Note_on_c, 0, 88, 61
2, 151342, Note_on_c, 0, 88, 0
2, 151348, Note_on_c, 0, 88, 60
2, 151680, Note_on_c, 0, 52, 0
2, 151680, Note_on_c, 0, 59, 0
2, 151680, Note_on_c, 0, 64, 0
2, 151680, Note_on_c, 0, 68, 0
2, 151680, Note_on_c, 0, 76, 0
2, 152025, Note_on_c, 0, 88, 0
2, 152031, Note_on_c, 0, 88, 48
2, 152493, Note_on_c, 0, 76, 41
2, 152785, Note_on_c, 0, 88, 0
2, 152790, Note_on_c, 0, 88, 58
2, 153093, Note_on_c, 0, 76, 0
2, 153100, Note_on_c, 0, 76, 43
2, 153392, Note_on_c, 0, 88, 0
2, 153402, Note_on_c, 0, 88, 54
2, 153618, Note_on_c, 0, 76, 0
2, 153640, Control_c, 0, 64, 0
2, 153711, Note_on_c, 0, 76, 36
2, 153891, Control_c, 0, 64, 127
2, 153968, Note_on_c, 0, 88, 0
2, 153977, Note_on_c, 0, 88, 54
2, 154122, Note_on_c, 0, 76, 0
2, 154272, Note_on_c, 0, 76, 51
2, 154562, Control_c, 0, 64, 0
2, 154575, Note_on_c, 0, 88, 0
2, 154575, Control_c, 0, 64, 127
2, 154582, Note_on_c, 0, 88, 55
2, 154611, Note_on_c, 0, 69, 40
2, 154897, Note_on_c, 0, 76, 0
2, 154907, Note_on_c, 0, 76, 50
2, 155187, Note_on_c, 0, 95, 70
2, 155195, Note_on_c, 0, 81, 43
2, 155466, Note_on_c, 0, 76, 0
2, 155477, Note_on_c, 0, 76, 46
2, 155498, Note_on_c, 0, 92, 57
2, 155622, Note_on_c, 0, 93, 84
2, 155762, Note_on_c, 0, 73, 53
2, 156034, Note_on_c, 0, 76, 0
2, 156043, Note_on_c, 0, 76, 57
2, 156303, Note_on_c, 0, 81, 0
2, 156307, Note_on_c, 0, 81, 48
2, 156572, Note_on_c, 0, 93, 0
2, 156578, Note_on_c, 0, 93, 79
2, 156587, Note_on_c, 0, 76, 0
2, 156595, Note_on_c, 0, 73, 0
2, 156597, Note_on_c, 0, 76, 52
2, 156606, Note_on_c, 0, 73, 29
2, 156840, Note_on_c, 0, 92, 0
2, 156844, Note_on_c, 0, 92, 85
2, 156845, Note_on_c, 0, 74, 61
2, 156853, Note_on_c, 0, 69, 0
2, 156853, Note_on_c, 0, 73, 0
2, 156854, Note_on_c, 0, 76, 0
2, 156855, Note_on_c, 0, 81, 0
2, 156857, Control_c, 0, 64, 0
2, 156857, Note_on_c, 0, 88, 0
2, 156948, Note_on_c, 0, 95, 0
2, 156979, Control_c, 0, 64, 127
2, 157126, Note_on_c, 0, 78, 58
2, 157259, Note_on_c, 0, 90, 70
2, 157387, Note_on_c, 0, 88, 69
2, 157390, Note_on_c, 0, 81, 57
2, 157655, Note_on_c, 0, 78, 0
2, 157660, Note_on_c, 0, 78, 62
2, 157940, Note_on_c, 0, 80, 61
2, 157944, Note_on_c, 0, 64, 51
2, 157952, Note_on_c, 0, 76, 45
2, 157963, Control_c, 0, 64, 0
2, 157964, Note_on_c, 0, 90, 0
2, 157965, Note_on_c, 0, 74, 0
2, 157965, Note_on_c, 0, 78, 0
2, 157965, Note_on_c, 0, 81, 0
2, 157977, Note_on_c, 0, 93, 0
2, 158054, Control_c, 0, 64, 127
2, 158214, Note_on_c, 0, 71, 57
2, 158493, Note_on_c, 0, 81, 55
2, 158495, Note_on_c, 0, 77, 48
2, 158498, Note_on_c, 0, 65, 49
2, 158521, Control_c, 0, 64, 0
2, 158538, Note_on_c, 0, 64, 0
2, 158538, Note_on_c, 0, 92, 0
2, 158599, Control_c, 0, 64, 127
2, 158638, Note_on_c, 0, 76, 0
2, 158737, Note_on_c, 0, 80, 0
2, 158768, Note_on_c, 0, 73, 59
2, 158774, Note_on_c, 0, 83, 53
2, 159037, Note_on_c, 0, 88, 0
2, 159043, Note_on_c, 0, 65, 0
2, 159043, Note_on_c, 0, 81, 0
2, 159044, Note_on_c, 0, 83, 0
2, 159044, Control_c, 0, 64, 0
2, 159047, Note_on_c, 0, 73, 0
2, 159052, Note_on_c, 0, 77, 0
2, 159054, Note_on_c, 0, 66, 55
2, 159056, Note_on_c, 0, 85, 56
2, 159060, Note_on_c, 0, 71, 0
2, 159144, Control_c, 0, 64, 127
2, 159322, Note_on_c, 0, 73, 55
2, 159594, Note_on_c, 0, 95, 77
2, 159613, Note_on_c, 0, 81, 45
2, 159865, Note_on_c, 0, 92, 72
2, 159874, Note_on_c, 0, 73, 0
2, 159885, Note_on_c, 0, 73, 51
2, 160002, Note_on_c, 0, 93, 84
2, 160126, Note_on_c, 0, 66, 0
2, 160126, Note_on_c, 0, 95, 0
2, 160128, Note_on_c, 0, 64, 57
2, 160131, Note_on_c, 0, 73, 0
2, 160131, Note_on_c, 0, 85, 0
2, 160132, Control_c, 0, 64, 0
2, 160235, Control_c, 0, 64, 127
2, 160416, Note_on_c, 0, 73, 53
2, 160680, Note_on_c, 0, 81, 0
2, 160689, Note_on_c, 0, 81, 55
2, 160957, Note_on_c, 0, 95, 78
2, 160965, Note_on_c, 0, 73, 0
2, 160969, Note_on_c, 0, 73, 58
2, 161190, Note_on_c, 0, 85, 63
2, 161246, Note_on_c, 0, 90, 70
2, 161306, Note_on_c, 0, 97, 83
2, 161314, Note_on_c, 0, 63, 58
2, 161330, Control_c, 0, 64, 0
2, 161332, Note_on_c, 0, 64, 0
2, 161332, Note_on_c, 0, 73, 0
2, 161333, Note_on_c, 0, 81, 0
2, 161333, Note_on_c, 0, 92, 0
2, 161425, Note_on_c, 0, 93, 0
2, 161433, Control_c, 0, 64, 127
2, 161448, Note_on_c, 0, 95, 0
2, 161591, Note_on_c, 0, 69, 56
2, 161934, Note_on_c, 0, 73, 52
2, 162320, Note_on_c, 0, 95, 67
2, 162345, Note_on_c, 0, 83, 36
2, 162351, Note_on_c, 0, 78, 54
2, 164770, Note_on_c, 0, 74, 58
2, 164828, Note_on_c, 0, 78, 0
2, 164833, Note_on_c, 0, 78, 59
2, 164874, Note_on_c, 0, 59, 56
2, 164888, Note_on_c, 0, 95, 0
2, 164890, Note_on_c, 0, 97, 0
2, 164891, Note_on_c, 0, 83, 0
2, 164891, Note_on_c, 0, 74, 0
2, 164892, Note_on_c, 0, 90, 0
2, 164892, Note_on_c, 0, 69, 0
2, 164892, Note_on_c, 0, 78, 0
2, 164893, Note_on_c, 0, 63, 0
2, 164893, Note_on_c, 0, 73, 0
2, 164894, Control_c, 0, 64, 0
2, 164897, Note_on_c, 0, 85, 0
2, 164902, Note_on_c, 0, 85, 75
2, 164989, Control_c, 0, 64, 127
2, 165181, Note_on_c, 0, 66, 60
2, 165454, Note_on_c, 0, 69, 54
2, 165760, Note_on_c, 0, 83, 65
2, 165789, Note_on_c, 0, 78, 54
2, 165795, Note_on_c, 0, 74, 47
2, 167040, Note_on_c, 0, 59, 0
2, 167040, Note_on_c, 0, 85, 0
2, 167470, Note_on_c, 0, 78, 0
2, 167474, Note_on_c, 0, 78, 65
2, 167557, Note_on_c, 0, 80, 70
2, 167597, Control_c, 0, 64, 0
2, 167597, Note_on_c, 0, 86, 82
2, 167601, Note_on_c, 0, 61, 54
2, 167601, Note_on_c, 0, 69, 0
2, 167602, Note_on_c, 0, 74, 0
2, 167602, Note_on_c, 0, 83, 0
2, 167602, Note_on_c, 0, 66, 0
2, 167604, Note_on_c, 0, 78, 0
2, 167746, Control_c, 0, 64, 127
2, 167870, Note_on_c, 0, 66, 64
2, 168148, Note_on_c, 0, 68, 71
2, 168445, Note_on_c, 0, 80, 0
2, 168450, Note_on_c, 0, 85, 76
2, 168456, Note_on_c, 0, 77, 55
2, 168456, Note_on_c, 0, 73, 56
2, 168456, Note_on_c, 0, 80, 57
2, 168464, Control_c, 0, 64, 0
2, 168466, Note_on_c, 0, 86, 0
2, 168560, Control_c, 0, 64, 127
2, 169046, Note_on_c, 0, 79, 71
2, 169136, Note_on_c, 0, 73, 0
2, 169313, Note_on_c, 0, 61, 0
2, 169318, Note_on_c, 0, 61, 64
2, 169397, Note_on_c, 0, 66, 0
2, 169443, Note_on_c, 0, 80, 0
2, 169451, Note_on_c, 0, 80, 79
2, 169741, Note_on_c, 0, 73, 64
2, 169820, Note_on_c, 0, 78, 68
2, 169883, Note_on_c, 0, 83, 73
2, 169896, Note_on_c, 0, 77, 0
2, 169904, Note_on_c, 0, 68, 0
2, 169905, Control_c, 0, 64, 0
2, 169905, Note_on_c, 0, 80, 0
2, 169905, Note_on_c, 0, 79, 0
2, 169905, Note_on_c, 0, 54, 46
2, 169906, Note_on_c, 0, 85, 0
2, 169906, Note_on_c, 0, 73, 0
2, 169907, Note_on_c, 0, 61, 0
2, 169989, Control_c, 0, 64, 127
2, 170169, Note_on_c, 0, 61, 62
2, 170297, Note_on_c, 0, 81, 78
2, 170459, Note_on_c, 0, 69, 58
2, 170718, Note_on_c, 0, 81, 0
2, 170730, Note_on_c, 0, 81, 76
2, 170999, Note_on_c, 0, 53, 58
2, 171029, Control_c, 0, 64, 0
2, 171035, Note_on_c, 0, 61, 0
2, 171036, Note_on_c, 0, 83, 0
2, 171036, Note_on_c, 0, 54, 0
2, 171056, Note_on_c, 0, 78, 0
2, 171118, Control_c, 0, 64, 127
2, 171279, Note_on_c, 0, 61, 59
2, 171574, Note_on_c, 0, 68, 64
2, 171838, Note_on_c, 0, 80, 79
2, 171962, Note_on_c, 0, 81, 0
2, 171970, Note_on_c, 0, 81, 76
2, 172079, Note_on_c, 0, 73, 56
2, 172110, Note_on_c, 0, 76, 64
2, 172124, Note_on_c, 0, 53, 0
2, 172129, Note_on_c, 0, 71, 55
2, 172131, Note_on_c, 0, 64, 56
2, 172132, Note_on_c, 0, 68, 0
2, 172134, Note_on_c, 0, 61, 0
2, 172135, Note_on_c, 0, 81, 0
2, 172135, Note_on_c, 0, 73, 0
2, 172136, Control_c, 0, 64, 0
2, 172137, Note_on_c, 0, 83, 79
2, 172147, Note_on_c, 0, 69, 0
2, 172158, Note_on_c, 0, 52, 57
2, 172224, Control_c, 0, 64, 127
2, 172400, Note_on_c, 0, 71, 0
2, 172421, Note_on_c, 0, 61, 60
2, 172564, Note_on_c, 0, 81, 79
2, 172725, Note_on_c, 0, 69, 54
2, 173042, Note_on_c, 0, 85, 73
2, 173057, Note_on_c, 0, 73, 50
2, 173058, Note_on_c, 0, 78, 63
2, 173357, Note_on_c, 0, 51, 56
2, 173378, Control_c, 0, 64, 0
2, 173380, Note_on_c, 0, 69, 0
2, 173380, Note_on_c, 0, 81, 0
2, 173380, Note_on_c, 0, 61, 0
2, 173381, Note_on_c, 0, 76, 0
2, 173383, Note_on_c, 0, 64, 0
2, 173391, Note_on_c, 0, 52, 0
2, 173391, Note_on_c, 0, 80, 0
2, 173514, Control_c, 0, 64, 127
2, 173720, Note_on_c, 0, 59, 54
2, 173729, Note_on_c, 0, 51, 0
2, 174151, Note_on_c, 0, 66, 57
2, 174720, Note_on_c, 0, 83, 0
2, 176420, Note_on_c, 0, 47, 44
2, 176422, Note_on_c, 0, 59, 0
2, 176428, Note_on_c, 0, 66, 0
2, 176437, Control_c, 0, 64, 0
2, 176463, Note_on_c, 0, 85, 0
2, 176501, Note_on_c, 0, 73, 0
2, 176555, Control_c, 0, 64, 127
2, 176678, Note_on_c, 0, 78, 0
2, 176707, Note_on_c, 0, 54, 45
2, 176854, Note_on_c, 0, 57, 53
2, 176976, Note_on_c, 0, 62, 62
2, 177100, Note_on_c, 0, 54, 0
2, 177106, Note_on_c, 0, 54, 61
2, 177208, Note_on_c, 0, 47, 0
2, 177219, Note_on_c, 0, 47, 64
2, 177354, Note_on_c, 0, 57, 0
2, 177357, Note_on_c, 0, 69, 63
2, 177363, Note_on_c, 0, 57, 42
2, 177479, Note_on_c, 0, 68, 75
2, 177491, Note_on_c, 0, 57, 0
2, 177491, Control_c, 0, 64, 0
2, 177491, Note_on_c, 0, 54, 0
2, 177493, Note_on_c, 0, 47, 0
2, 177493, Note_on_c, 0, 62, 0
2, 177494, Note_on_c, 0, 49, 52
2, 177494, Note_on_c, 0, 69, 0
2, 177495, Note_on_c, 0, 64, 55
2, 177592, Control_c, 0, 64, 127
2, 177742, Note_on_c, 0, 56, 62
2, 177866, Note_on_c, 0, 69, 71
2, 177883, Note_on_c, 0, 59, 60
2, 177999, Note_on_c, 0, 68, 0
2, 178003, Note_on_c, 0, 68, 77
2, 178122, Note_on_c, 0, 56, 0
2, 178127, Note_on_c, 0, 56, 49
2, 178245, Note_on_c, 0, 49, 0
2, 178254, Note_on_c, 0, 49, 55
2, 178406, Note_on_c, 0, 56, 0
2, 178406, Note_on_c, 0, 68, 0
2, 178415, Note_on_c, 0, 68, 60
2, 178417, Note_on_c, 0, 56, 57
2, 178522, Note_on_c, 0, 59, 0
2, 178522, Note_on_c, 0, 68, 0
2, 178523, Note_on_c, 0, 56, 0
2, 178523, Note_on_c, 0, 49, 0
2, 178524, Note_on_c, 0, 69, 0
2, 178524, Control_c, 0, 64, 0
2, 178524, Note_on_c, 0, 64, 0
2, 178539, Note_on_c, 0, 50, 69
2, 178539, Note_on_c, 0, 66, 73
2, 178541, Note_on_c, 0, 62, 56
2, 178644, Control_c, 0, 64, 127
2, 178794, Note_on_c, 0, 54, 65
2, 178923, Note_on_c, 0, 57, 61
2, 179043, Note_on_c, 0, 62, 0
2, 179048, Note_on_c, 0, 62, 79
2, 179189, Note_on_c, 0, 54, 0
2, 179195, Note_on_c, 0, 54, 65
2, 179304, Note_on_c, 0, 50, 0
2, 179315, Note_on_c, 0, 50, 71
2, 179431, Note_on_c, 0, 69, 76
2, 179545, Note_on_c, 0, 57, 0
2, 179545, Note_on_c, 0, 50, 0
2, 179545, Note_on_c, 0, 62, 0
2, 179545, Note_on_c, 0, 66, 0
2, 179545, Note_on_c, 0, 54, 0
2, 179546, Note_on_c, 0, 69, 0
2, 179546, Control_c, 0, 64, 0
2, 179562, Note_on_c, 0, 49, 63
2, 179563, Note_on_c, 0, 71, 80
2, 179589, Note_on_c, 0, 68, 68
2, 179590, Note_on_c, 0, 64, 58
2, 179658, Control_c, 0, 64, 127
2, 179831, Note_on_c, 0, 56, 65
2, 179942, Note_on_c, 0, 64, 0
2, 179953, Note_on_c, 0, 64, 73
2, 179955, Note_on_c, 0, 59, 63
2, 180065, Note_on_c, 0, 64, 0
2, 180072, Note_on_c, 0, 64, 75
2, 180218, Note_on_c, 0, 56, 0
2, 180226, Note_on_c, 0, 56, 62
2, 180341, Note_on_c, 0, 49, 0
2, 180346, Note_on_c, 0, 49, 61
2, 180449, Note_on_c, 0, 56, 0
2, 180459, Note_on_c, 0, 56, 43
2, 180605, Note_on_c, 0, 66, 74
2, 180608, Note_on_c, 0, 49, 0
2, 180609, Note_on_c, 0, 68, 0
2, 180609, Note_on_c, 0, 56, 0
2, 180609, Note_on_c, 0, 59, 0
2, 180610, Note_on_c, 0, 64, 0
2, 180611, Note_on_c, 0, 71, 0
2, 180611, Control_c, 0, 64, 0
2, 180612, Note_on_c, 0, 47, 60
2, 180615, Note_on_c, 0, 62, 55
2, 180702, Control_c, 0, 64, 127
2, 180858, Note_on_c, 0, 54, 56
2, 180979, Note_on_c, 0, 62, 0
2, 180986, Note_on_c, 0, 62, 66
2, 180995, Note_on_c, 0, 57, 63
2, 181224, Note_on_c, 0, 47, 0
2, 181230, Note_on_c, 0, 47, 48
2, 181340, Note_on_c, 0, 66, 0
2, 181347, Note_on_c, 0, 62, 0
2, 181351, Note_on_c, 0, 66, 76
2, 181351, Note_on_c, 0, 62, 60
2, 181401, Note_on_c, 0, 47, 0
2, 181406, Note_on_c, 0, 47, 52
2, 181616, Note_on_c, 0, 54, 0
2, 181625, Note_on_c, 0, 54, 58
2, 181753, Note_on_c, 0, 69, 79
2, 181754, Note_on_c, 0, 66, 0
2, 181760, Note_on_c, 0, 66, 69
2, 181762, Note_on_c, 0, 57, 0
2, 181768, Note_on_c, 0, 57, 54
2, 181969, Note_on_c, 0, 47, 0
2, 181977, Note_on_c, 0, 47, 58
2, 182123, Note_on_c, 0, 66, 0
2, 182128, Note_on_c, 0, 66, 76
2, 182131, Note_on_c, 0, 62, 0
2, 182142, Note_on_c, 0, 62, 70
2, 182231, Note_on_c, 0, 47, 0
2, 182242, Note_on_c, 0, 47, 71
2, 182384, Note_on_c, 0, 69, 0
2, 182391, Note_on_c, 0, 69, 81
2, 182392, Note_on_c, 0, 54, 0
2, 182392, Note_on_c, 0, 66, 0
2, 182397, Note_on_c, 0, 66, 69
2, 182401, Note_on_c, 0, 54, 68
2, 182522, Note_on_c, 0, 57, 0
2, 182529, Note_on_c, 0, 57, 48
2, 182644, Control_c, 0, 64, 0
2, 182644, Note_on_c, 0, 57, 0
2, 182645, Note_on_c, 0, 74, 84
2, 182645, Note_on_c, 0, 47, 0
2, 182646, Note_on_c, 0, 54, 0
2, 182646, Note_on_c, 0, 62, 0
2, 182647, Note_on_c, 0, 66, 0
2, 182650, Note_on_c, 0, 47, 64
2, 182653, Note_on_c, 0, 69, 0
2, 182658, Note_on_c, 0, 65, 61
2, 182659, Note_on_c, 0, 69, 58
2, 182730, Control_c, 0, 64, 127
2, 182896, Note_on_c, 0, 53, 64
2, 183022, Note_on_c, 0, 69, 0
2, 183029, Note_on_c, 0, 65, 0
2, 183031, Note_on_c, 0, 69, 81
2, 183036, Note_on_c, 0, 65, 69
2, 183040, Note_on_c, 0, 57, 68
2, 183260, Note_on_c, 0, 47, 0
2, 183264, Note_on_c, 0, 47, 68
2, 183383, Note_on_c, 0, 74, 0
2, 183390, Note_on_c, 0, 47, 0
2, 183390, Note_on_c, 0, 65, 0
2, 183390, Note_on_c, 0, 69, 0
2, 183392, Note_on_c, 0, 74, 90
2, 183399, Note_on_c, 0, 65, 74
2, 183399, Note_on_c, 0, 47, 80
2, 183401, Note_on_c, 0, 69, 72
2, 183644, Note_on_c, 0, 53, 0
2, 183649, Note_on_c, 0, 53, 70
2, 183782, Note_on_c, 0, 69, 0
2, 183782, Note_on_c, 0, 74, 0
2, 183782, Note_on_c, 0, 77, 89
2, 183789, Note_on_c, 0, 74, 86
2, 183790, Note_on_c, 0, 57, 0
2, 183792, Note_on_c, 0, 69, 79
2, 183794, Note_on_c, 0, 57, 71
2, 184005, Note_on_c, 0, 47, 0
2, 184009, Note_on_c, 0, 47, 69
2, 184143, Note_on_c, 0, 65, 0
2, 184143, Note_on_c, 0, 69, 0
2, 184143, Note_on_c, 0, 74, 0
2, 184147, Note_on_c, 0, 74, 88
2, 184150, Note_on_c, 0, 65, 77
2, 184152, Note_on_c, 0, 69, 68
2, 184266, Note_on_c, 0, 47, 0
2, 184276, Note_on_c, 0, 47, 80
2, 184389, Note_on_c, 0, 77, 0
2, 184396, Note_on_c, 0, 53, 0
2, 184396, Note_on_c, 0, 69, 0
2, 184396, Note_on_c, 0, 74, 0
2, 184399, Note_on_c, 0, 77, 90
2, 184400, Note_on_c, 0, 69, 76
2, 184401, Note_on_c, 0, 74, 81
2, 184402, Note_on_c, 0, 53, 74
2, 184504, Note_on_c, 0, 57, 0
2, 184509, Note_on_c, 0, 57, 75
2, 184626, Note_on_c, 0, 47, 0
2, 184628, Note_on_c, 0, 53, 0
2, 184628, Control_c, 0, 64, 0
2, 184629, Note_on_c, 0, 69, 0
2, 184629, Note_on_c, 0, 57, 0
2, 184629, Note_on_c, 0, 65, 0
2, 184629, Note_on_c, 0, 74, 0
2, 184630, Note_on_c, 0, 77, 0
2, 184652, Note_on_c, 0, 81, 97
2, 184656, Note_on_c, 0, 40, 85
2, 184658, Note_on_c, 0, 76, 89
2, 184661, Note_on_c, 0, 73, 83
2, 184661, Note_on_c, 0, 69, 71
2, 184719, Control_c, 0, 64, 127
2, 184890, Note_on_c, 0, 52, 71
2, 184896, Note_on_c, 0, 69, 0
2, 185018, Note_on_c, 0, 52, 0
2, 185026, Note_on_c, 0, 73, 0
2, 185026, Note_on_c, 0, 76, 0
2, 185028, Note_on_c, 0, 52, 72
2, 185032, Note_on_c, 0, 76, 88
2, 185032, Note_on_c, 0, 64, 76
2, 185034, Note_on_c, 0, 73, 85
2, 185034, Note_on_c, 0, 61, 74
2, 185038, Note_on_c, 0, 69, 69
2, 185180, Note_on_c, 0, 40, 0
2, 185184, Note_on_c, 0, 40, 52
2, 185264, Note_on_c, 0, 52, 0
2, 185274, Note_on_c, 0, 52, 68
2, 185395, Note_on_c, 0, 73, 0
2, 185395, Note_on_c, 0, 81, 0
2, 185399, Note_on_c, 0, 81, 93
2, 185402, Note_on_c, 0, 40, 0
2, 185403, Note_on_c, 0, 73, 89
2, 185407, Note_on_c, 0, 40, 81
2, 185633, Note_on_c, 0, 52, 0
2, 185639, Note_on_c, 0, 52, 68
2, 185763, Note_on_c, 0, 52, 0
2, 185763, Note_on_c, 0, 61, 0
2, 185763, Note_on_c, 0, 64, 0
2, 185763, Note_on_c, 0, 81, 0
2, 185767, Note_on_c, 0, 64, 81
2, 185769, Note_on_c, 0, 61, 75
2, 185770, Note_on_c, 0, 85, 94
2, 185771, Note_on_c, 0, 76, 0
2, 185774, Note_on_c, 0, 52, 72
2, 185775, Note_on_c, 0, 81, 83
2, 185776, Note_on_c, 0, 57, 72
2, 185777, Note_on_c, 0, 76, 84
2, 185986, Note_on_c, 0, 40, 0
2, 185993, Note_on_c, 0, 40, 76
2, 186117, Note_on_c, 0, 73, 0
2, 186117, Note_on_c, 0, 76, 0
2, 186117, Note_on_c, 0, 81, 0
2, 186123, Note_on_c, 0, 81, 90
2, 186125, Note_on_c, 0, 76, 88
2, 186127, Note_on_c, 0, 73, 85
2, 186232, Note_on_c, 0, 52, 0
2, 186238, Note_on_c, 0, 52, 72
2, 186339, Note_on_c, 0, 85, 0
2, 186347, Note_on_c, 0, 57, 0
2, 186347, Note_on_c, 0, 76, 0
2, 186347, Note_on_c, 0, 81, 0
2, 186351, Note_on_c, 0, 85, 87
2, 186354, Note_on_c, 0, 81, 71
2, 186357, Note_on_c, 0, 76, 63
2, 186357, Note_on_c, 0, 57, 65
2, 186583, Note_on_c, 0, 73, 0
2, 186583, Note_on_c, 0, 52, 0
2, 186583, Note_on_c, 0, 85, 0
2, 186584, Note_on_c, 0, 76, 0
2, 186584, Note_on_c, 0, 61, 0
2, 186584, Control_c, 0, 64, 0
2, 186585, Note_on_c, 0, 57, 0
2, 186585, Note_on_c, 0, 64, 0
2, 186600, Note_on_c, 0, 40, 0
2, 186600, Note_on_c, 0, 69, 0
2, 186600, Note_on_c, 0, 81, 0
2, 186603, Note_on_c, 0, 84, 97
2, 186612, Note_on_c, 0, 81, 85
2, 186612, Note_on_c, 0, 40, 84
2, 186613, Note_on_c, 0, 72, 79
2, 186618, Note_on_c, 0, 75, 83
2, 186654, Control_c, 0, 64, 127
2, 186834, Note_on_c, 0, 52, 73
2, 186960, Note_on_c, 0, 63, 86
2, 186961, Note_on_c, 0, 72, 0
2, 186961, Note_on_c, 0, 75, 0
2, 186964, Note_on_c, 0, 78, 88
2, 186969, Note_on_c, 0, 75, 87
2, 186970, Note_on_c, 0, 72, 82
2, 186972, Note_on_c, 0, 60, 71
2, 186974, Note_on_c, 0, 57, 60
2, 187207, Note_on_c, 0, 52, 0
2, 187218, Note_on_c, 0, 52, 74
2, 187330, Note_on_c, 0, 78, 0
2, 187330, Note_on_c, 0, 81, 0
2, 187338, Note_on_c, 0, 40, 0
2, 187338, Note_on_c, 0, 75, 0
2, 187341, Note_on_c, 0, 81, 98
2, 187341, Note_on_c, 0, 78, 94
2, 187344, Note_on_c, 0, 75, 88
2, 187347, Note_on_c, 0, 40, 82
2, 187584, Note_on_c, 0, 52, 0
2, 187587, Note_on_c, 0, 52, 77
2, 187706, Note_on_c, 0, 63, 0
2, 187706, Note_on_c, 0, 84, 0
2, 187714, Note_on_c, 0, 60, 0
2, 187714, Note_on_c, 0, 75, 0
2, 187714, Note_on_c, 0, 78, 0
2, 187715, Note_on_c, 0, 84, 96
2, 187717, Note_on_c, 0, 63, 92
2, 187718, Note_on_c, 0, 78, 86
2, 187719, Note_on_c, 0, 60, 71
2, 187719, Note_on_c, 0, 75, 82
2, 187722, Note_on_c, 0, 69, 75
2, 187921, Note_on_c, 0, 40, 0
2, 187929, Note_on_c, 0, 40, 77
2, 188067, Note_on_c, 0, 75, 0
2, 188067, Note_on_c, 0, 78, 0
2, 188067, Note_on_c, 0, 81, 0
2, 188071, Note_on_c, 0, 78, 84
2, 188072, Note_on_c, 0, 81, 89
2, 188076, Note_on_c, 0, 75, 83
2, 188167, Note_on_c, 0, 52, 0
2, 188178, Note_on_c, 0, 52, 75
2, 188313, Note_on_c, 0, 63, 0
2, 188313, Note_on_c, 0, 75, 0
2, 188313, Note_on_c, 0, 84, 0
2, 188321, Note_on_c, 0, 60, 0
2, 188321, Note_on_c, 0, 81, 0
2, 188322, Note_on_c, 0, 84, 97
2, 188323, Note_on_c, 0, 63, 88
2, 188324, Note_on_c, 0, 75, 91
2, 188325, Note_on_c, 0, 60, 74
2, 188326, Note_on_c, 0, 81, 87
2, 188328, Note_on_c, 0, 57, 0
2, 188334, Note_on_c, 0, 57, 71
2, 188542, Note_on_c, 0, 52, 0
2, 188543, Note_on_c, 0, 69, 0
2, 188543, Note_on_c, 0, 63, 0
2, 188544, Note_on_c, 0, 57, 0
2, 188544, Note_on_c, 0, 40, 0
2, 188544, Note_on_c, 0, 81, 0
2, 188544, Note_on_c, 0, 78, 0
2, 188545, Note_on_c, 0, 60, 0
2, 188545, Note_on_c, 0, 72, 0
2, 188545, Note_on_c, 0, 75, 0
2, 188546, Note_on_c, 0, 84, 0
2, 188550, Control_c, 0, 64, 0
2, 188585, Note_on_c, 0, 28, 94
2, 188586, Note_on_c, 0, 40, 90
2, 188590, Note_on_c, 0, 28, 0
2, 188591, Note_on_c, 0, 83, 100
2, 188593, Note_on_c, 0, 74, 92
2, 188597, Note_on_c, 0, 76, 89
2, 188598, Note_on_c, 0, 80, 83
2, 188628, Control_c, 0, 64, 127
2, 188841, Note_on_c, 0, 52, 65
2, 188968, Note_on_c, 0, 64, 83
2, 188969, Note_on_c, 0, 59, 79
2, 188969, Note_on_c, 0, 62, 82
2, 189204, Note_on_c, 0, 52, 0
2, 189204, Note_on_c, 0, 64, 0
2, 189209, Note_on_c, 0, 52, 80
2, 189212, Note_on_c, 0, 64, 77
2, 189319, Note_on_c, 0, 40, 0
2, 189329, Note_on_c, 0, 40, 90
2, 189331, Note_on_c, 0, 66, 88
2, 189457, Note_on_c, 0, 64, 0
2, 189469, Note_on_c, 0, 64, 84
2, 189580, Note_on_c, 0, 52, 0
2, 189580, Note_on_c, 0, 66, 0
2, 189589, Note_on_c, 0, 66, 83
2, 189591, Note_on_c, 0, 52, 77
2, 189703, Note_on_c, 0, 59, 0
2, 189703, Note_on_c, 0, 62, 0
2, 189705, Note_on_c, 0, 68, 96
2, 189708, Note_on_c, 0, 59, 85
2, 189712, Note_on_c, 0, 62, 87
2, 189826, Note_on_c, 0, 66, 0
2, 189836, Note_on_c, 0, 66, 88
2, 189926, Note_on_c, 0, 52, 0
2, 189930, Note_on_c, 0, 71, 67
2, 189935, Note_on_c, 0, 52, 79
2, 189949, Note_on_c, 0, 68, 0
2, 189959, Note_on_c, 0, 68, 89
2, 190056, Note_on_c, 0, 40, 0
2, 190061, Note_on_c, 0, 40, 94
2, 190067, Note_on_c, 0, 69, 87
2, 190179, Note_on_c, 0, 71, 0
2, 190191, Note_on_c, 0, 71, 91
2, 190302, Note_on_c, 0, 62, 0
2, 190310, Note_on_c, 0, 59, 0
2, 190312, Note_on_c, 0, 62, 88
2, 190316, Note_on_c, 0, 59, 82
2, 190316, Note_on_c, 0, 73, 95
2, 190425, Note_on_c, 0, 74, 0
2, 190436, Note_on_c, 0, 74, 95
2, 190519, Note_on_c, 0, 52, 0
2, 190519, Note_on_c, 0, 83, 0
2, 190520, Note_on_c, 0, 80, 0
2, 190520, Note_on_c, 0, 62, 0
2, 190520, Note_on_c, 0, 66, 0
2, 190520, Note_on_c, 0, 64, 0
2, 190521, Note_on_c, 0, 59, 0
2, 190521, Note_on_c, 0, 69, 0
2, 190521, Note_on_c, 0, 73, 0
2, 190521, Note_on_c, 0, 74, 0
2, 190537, Control_c, 0, 64, 0
2, 190540, Note_on_c, 0, 68, 0
2, 190556, Note_on_c, 0, 40, 0
2, 190556, Note_on_c, 0, 71, 0
2, 190556, Note_on_c, 0, 76, 0
2, 190561, Note_on_c, 0, 76, 100
2, 190561, Note_on_c, 0, 69, 88
2, 190565, Note_on_c, 0, 40, 88
2, 190566, Note_on_c, 0, 28, 88
2, 190566, Note_on_c, 0, 71, 89
2, 190602, Control_c, 0, 64, 127
2, 190702, Note_on_c, 0, 71, 0
2, 190705, Note_on_c, 0, 74, 85
2, 190707, Note_on_c, 0, 71, 66
2, 190794, Note_on_c, 0, 76, 0
2, 190803, Note_on_c, 0, 76, 87
2, 190924, Note_on_c, 0, 69, 0
2, 190924, Note_on_c, 0, 71, 0
2, 190929, Note_on_c, 0, 78, 102
2, 190929, Note_on_c, 0, 62, 91
2, 190930, Note_on_c, 0, 71, 91
2, 190936, Note_on_c, 0, 69, 88
2, 190937, Note_on_c, 0, 59, 92
2, 190941, Note_on_c, 0, 52, 89
2, 191063, Note_on_c, 0, 76, 0
2, 191073, Note_on_c, 0, 76, 78
2, 191155, Note_on_c, 0, 78, 0
2, 191161, Note_on_c, 0, 78, 95
2, 191263, Note_on_c, 0, 69, 0
2, 191263, Note_on_c, 0, 52, 0
2, 191263, Note_on_c, 0, 62, 0
2, 191264, Note_on_c, 0, 59, 0
2, 191265, Note_on_c, 0, 74, 0
2, 191265, Note_on_c, 0, 78, 0
2, 191266, Control_c, 0, 64, 0
2, 191278, Note_on_c, 0, 28, 0
2, 191278, Note_on_c, 0, 40, 0
2, 191283, Note_on_c, 0, 40, 94
2, 191285, Note_on_c, 0, 28, 88
2, 191293, Note_on_c, 0, 71, 0
2, 191293, Note_on_c, 0, 76, 0
2, 191297, Note_on_c, 0, 76, 92
2, 191298, Note_on_c, 0, 80, 98
2, 191304, Note_on_c, 0, 71, 82
2, 191324, Control_c, 0, 64, 127
2, 191431, Note_on_c, 0, 78, 90
2, 191531, Note_on_c, 0, 80, 0
2, 191538, Note_on_c, 0, 80, 100
2, 191662, Note_on_c, 0, 71, 0
2, 191662, Note_on_c, 0, 76, 0
2, 191664, Note_on_c, 0, 81, 107
2, 191667, Note_on_c, 0, 64, 95
2, 191667, Note_on_c, 0, 71, 99
2, 191667, Note_on_c, 0, 76, 94
2, 191669, Note_on_c, 0, 62, 99
2, 191670, Note_on_c, 0, 59, 91
2, 191672, Note_on_c, 0, 52, 97
2, 191677, Note_on_c, 0, 64, 0
2, 191784, Note_on_c, 0, 80, 0
2, 191792, Note_on_c, 0, 80, 84
2, 191907, Note_on_c, 0, 81, 0
2, 191915, Note_on_c, 0, 93, 86
2, 191916, Note_on_c, 0, 81, 99
2, 191923, Note_on_c, 0, 93, 0
2, 192046, Note_on_c, 0, 40, 0
2, 192053, Note_on_c, 0, 28, 0
2, 192053, Note_on_c, 0, 71, 0
2, 192057, Note_on_c, 0, 95, 98
2, 192057, Note_on_c, 0, 83, 102
2, 192057, Note_on_c, 0, 40, 100
2, 192058, Note_on_c, 0, 28, 94
2, 192061, Note_on_c, 0, 95, 0
2, 192062, Control_c, 0, 64, 0
2, 192063, Note_on_c, 0, 71, 95
2, 192084, Control_c, 0, 64, 127
2, 192195, Note_on_c, 0, 85, 104
2, 192202, Note_on_c, 0, 73, 97
2, 192345, Note_on_c, 0, 86, 109
2, 192348, Note_on_c, 0, 74, 103
2, 192491, Note_on_c, 0, 76, 0
2, 192498, Note_on_c, 0, 88, 104
2, 192500, Note_on_c, 0, 76, 105
2, 192752, Note_on_c, 0, 52, 0
2, 192757, Note_on_c, 0, 33, 99
2, 192757, Note_on_c, 0, 57, 96
2, 192757, Note_on_c, 0, 45, 106
2, 192758, Note_on_c, 0, 52, 86
2, 192761, Note_on_c, 0, 49, 86
2, 192765, Note_on_c, 0, 73, 0
2, 192766, Note_on_c, 0, 59, 0
2, 192766, Note_on_c, 0, 83, 0
2, 192766, Note_on_c, 0, 78, 0
2, 192767, Note_on_c, 0, 71, 0
2, 192768, Note_on_c, 0, 74, 0
2, 192768, Note_on_c, 0, 76, 0
2, 192771, Control_c, 0, 64, 0
2, 192775, Note_on_c, 0, 62, 0
2, 192791, Note_on_c, 0, 28, 0
2, 192798, Note_on_c, 0, 80, 0
2, 192806, Note_on_c, 0, 40, 0
2, 192806, Control_c, 0, 64, 127
2, 192829, Note_on_c, 0, 81, 0
2, 193105, Note_on_c, 0, 88, 0
2, 193116, Note_on_c, 0, 88, 101
2, 193117, Note_on_c, 0, 76, 98
2, 193382, Note_on_c, 0, 86, 0
2, 193387, Note_on_c, 0, 95, 105
2, 193390, Note_on_c, 0, 88, 0
2, 193394, Note_on_c, 0, 83, 100
2, 193398, Note_on_c, 0, 88, 82
2, 193628, Note_on_c, 0, 88, 0
2, 193632, Note_on_c, 0, 92, 104
2, 193634, Note_on_c, 0, 80, 100
2, 193636, Note_on_c, 0, 88, 79
2, 193758, Note_on_c, 0, 85, 0
2, 193758, Note_on_c, 0, 88, 0
2, 193761, Note_on_c, 0, 93, 108
2, 193762, Note_on_c, 0, 88, 93
2, 193762, Note_on_c, 0, 85, 98
2, 193763, Note_on_c, 0, 81, 101
2, 193850, Note_on_c, 0, 52, 0
2, 193881, Note_on_c, 0, 45, 0
2, 193887, Note_on_c, 0, 52, 87
2, 193889, Note_on_c, 0, 33, 0
2, 193889, Note_on_c, 0, 57, 0
2, 193893, Note_on_c, 0, 45, 90
2, 193893, Note_on_c, 0, 37, 86
2, 193893, Note_on_c, 0, 33, 84
2, 193900, Note_on_c, 0, 57, 78
2, 193912, Control_c, 0, 64, 0
2, 193935, Note_on_c, 0, 76, 0
2, 193958, Note_on_c, 0, 49, 0
2, 193996, Control_c, 0, 64, 127
2, 194211, Note_on_c, 0, 95, 0
2, 194411, Note_on_c, 0, 52, 0
2, 194411, Note_on_c, 0, 57, 0
2, 194415, Note_on_c, 0, 64, 100
2, 194415, Note_on_c, 0, 61, 89
2, 194417, Note_on_c, 0, 52, 87
2, 194421, Note_on_c, 0, 57, 89
2, 194664, Note_on_c, 0, 93, 0
2, 194672, Note_on_c, 0, 81, 0
2, 194676, Note_on_c, 0, 93, 107
2, 194679, Note_on_c, 0, 81, 99
2, 194841, Note_on_c, 0, 45, 0
2, 194844, Note_on_c, 0, 38, 79
2, 194850, Note_on_c, 0, 45, 59
2, 194906, Note_on_c, 0, 52, 0
2, 194906, Note_on_c, 0, 83, 0
2, 194906, Note_on_c, 0, 45, 0
2, 194906, Note_on_c, 0, 80, 0
2, 194906, Note_on_c, 0, 88, 0
2, 194906, Note_on_c, 0, 85, 0
2, 194907, Note_on_c, 0, 81, 0
2, 194907, Note_on_c, 0, 61, 0
2, 194907, Note_on_c, 0, 57, 0
2, 194907, Note_on_c, 0, 37, 0
2, 194908, Note_on_c, 0, 33, 0
2, 194908, Control_c, 0, 64, 0
2, 194908, Note_on_c, 0, 64, 0
2, 194933, Note_on_c, 0, 92, 0
2, 194942, Note_on_c, 0, 86, 97
2, 194944, Note_on_c, 0, 92, 113
2, 194945, Note_on_c, 0, 80, 105
2, 194953, Note_on_c, 0, 54, 74
2, 194964, Control_c, 0, 64, 127
2, 195322, Control_c, 0, 64, 0
2, 195325, Note_on_c, 0, 86, 0
2, 195329, Note_on_c, 0, 90, 104
2, 195330, Note_on_c, 0, 81, 91
2, 195331, Note_on_c, 0, 78, 99
2, 195333, Note_on_c, 0, 54, 0
2, 195334, Note_on_c, 0, 86, 85
2, 195334, Note_on_c, 0, 62, 92
2, 195337, Note_on_c, 0, 57, 83
2, 195339, Note_on_c, 0, 54, 83
2, 195356, Control_c, 0, 64, 127
2, 195701, Note_on_c, 0, 38, 0
2, 195709, Note_on_c, 0, 81, 0
2, 195711, Note_on_c, 0, 88, 106
2, 195712, Note_on_c, 0, 38, 86
2, 195714, Note_on_c, 0, 76, 105
2, 195714, Note_on_c, 0, 81, 99
2, 195981, Note_on_c, 0, 38, 0
2, 195981, Note_on_c, 0, 92, 0
2, 195981, Note_on_c, 0, 52, 98
2, 195982, Note_on_c, 0, 57, 0
2, 195982, Note_on_c, 0, 40, 94
2, 195982, Note_on_c, 0, 80, 0
2, 195982, Note_on_c, 0, 54, 0
2, 195982, Note_on_c, 0, 90, 0
2, 195982, Control_c, 0, 64, 0
2, 195982, Note_on_c, 0, 81, 0
2, 195982, Note_on_c, 0, 88, 0
2, 195983, Note_on_c, 0, 86, 0
2, 195983, Note_on_c, 0, 62, 0
2, 195983, Note_on_c, 0, 78, 0
2, 195985, Note_on_c, 0, 93, 0
2, 195986, Note_on_c, 0, 47, 93
2, 196003, Note_on_c, 0, 83, 75
2, 196032, Control_c, 0, 64, 127
2, 196078, Note_on_c, 0, 81, 78
2, 196156, Note_on_c, 0, 80, 73
2, 196170, Note_on_c, 0, 76, 0
2, 196176, Note_on_c, 0, 76, 80
2, 196256, Note_on_c, 0, 71, 81
2, 196315, Note_on_c, 0, 69, 73
2, 196366, Note_on_c, 0, 68, 85
2, 196400, Note_on_c, 0, 52, 0
2, 196405, Note_on_c, 0, 64, 77
2, 196410, Note_on_c, 0, 52, 77
2, 196507, Note_on_c, 0, 53, 98
2, 196513, Note_on_c, 0, 61, 92
2, 196514, Note_on_c, 0, 49, 93
2, 196517, Note_on_c, 0, 41, 89
2, 196519, Note_on_c, 0, 45, 80
2, 196538, Control_c, 0, 64, 0
2, 196540, Note_on_c, 0, 76, 0
2, 196542, Note_on_c, 0, 71, 0
2, 196543, Note_on_c, 0, 81, 0
2, 196543, Note_on_c, 0, 47, 0
2, 196543, Note_on_c, 0, 83, 0
2, 196543, Note_on_c, 0, 69, 0
2, 196545, Note_on_c, 0, 40, 0
2, 196554, Control_c, 0, 64, 127
2, 196584, Note_on_c, 0, 80, 0
2, 196596, Note_on_c, 0, 65, 62
2, 196608, Note_on_c, 0, 68, 0
2, 196612, Note_on_c, 0, 68, 77
2, 196676, Note_on_c, 0, 69, 80
2, 196752, Note_on_c, 0, 71, 91
2, 196769, Note_on_c, 0, 45, 0
2, 196807, Note_on_c, 0, 69, 0
2, 196812, Note_on_c, 0, 73, 84
2, 196817, Note_on_c, 0, 69, 52
2, 196884, Note_on_c, 0, 71, 0
2, 196888, Note_on_c, 0, 80, 82
2, 196893, Note_on_c, 0, 71, 64
2, 196894, Note_on_c, 0, 75, 58
2, 197011, Note_on_c, 0, 68, 0
2, 197012, Note_on_c, 0, 49, 0
2, 197012, Note_on_c, 0, 80, 0
2, 197012, Note_on_c, 0, 61, 0
2, 197013, Note_on_c, 0, 75, 0
2, 197013, Note_on_c, 0, 53, 0
2, 197013, Note_on_c, 0, 71, 0
2, 197013, Note_on_c, 0, 41, 0
2, 197018, Control_c, 0, 64, 0
2, 197022, Note_on_c, 0, 65, 0
2, 197030, Note_on_c, 0, 52, 0
2, 197030, Note_on_c, 0, 64, 0
2, 197030, Note_on_c, 0, 69, 0
2, 197030, Note_on_c, 0, 73, 0
2, 197035, Note_on_c, 0, 81, 87
2, 197035, Note_on_c, 0, 73, 95
2, 197035, Note_on_c, 0, 76, 90
2, 197037, Note_on_c, 0, 52, 94
2, 197038, Note_on_c, 0, 42, 79
2, 197040, Note_on_c, 0, 69, 87
2, 197041, Note_on_c, 0, 57, 90
2, 197084, Control_c, 0, 64, 127
2, 197299, Note_on_c, 0, 76, 0
2, 197309, Note_on_c, 0, 88, 102
2, 197310, Note_on_c, 0, 76, 95
2, 197570, Note_on_c, 0, 95, 105
2, 197575, Note_on_c, 0, 83, 100
2, 197817, Note_on_c, 0, 92, 102
2, 197819, Note_on_c, 0, 80, 92
2, 197936, Note_on_c, 0, 81, 0
2, 197936, Note_on_c, 0, 88, 0
2, 197940, Note_on_c, 0, 93, 106
2, 197941, Note_on_c, 0, 88, 84
2, 197942, Note_on_c, 0, 81, 94
2, 197942, Note_on_c, 0, 85, 98
2, 198013, Note_on_c, 0, 69, 0
2, 198028, Note_on_c, 0, 57, 0
2, 198034, Note_on_c, 0, 95, 0
2, 198035, Note_on_c, 0, 80, 0
2, 198036, Note_on_c, 0, 83, 0
2, 198036, Note_on_c, 0, 76, 0
2, 198040, Control_c, 0, 64, 0
2, 198044, Note_on_c, 0, 42, 0
2, 198044, Note_on_c, 0, 73, 0
2, 198059, Note_on_c, 0, 52, 0
2, 198065, Note_on_c, 0, 52, 98
2, 198069, Note_on_c, 0, 40, 94
2, 198070, Note_on_c, 0, 49, 88
2, 198097, Control_c, 0, 64, 127
2, 198452, Note_on_c, 0, 64, 98
2, 198453, Note_on_c, 0, 61, 86
2, 198456, Note_on_c, 0, 57, 87
2, 198704, Note_on_c, 0, 40, 0
2, 198713, Note_on_c, 0, 40, 78
2, 198812, Note_on_c, 0, 81, 0
2, 198812, Note_on_c, 0, 93, 0
2, 198819, Note_on_c, 0, 93, 105
2, 198822, Note_on_c, 0, 81, 93
2, 198835, Note_on_c, 0, 88, 0
2, 198936, Note_on_c, 0, 95, 96
2, 198940, Note_on_c, 0, 83, 88
2, 198965, Note_on_c, 0, 93, 0
2, 198973, Note_on_c, 0, 93, 45
2, 199040, Note_on_c, 0, 52, 0
2, 199040, Note_on_c, 0, 40, 0
2, 199040, Note_on_c, 0, 81, 0
2, 199041, Note_on_c, 0, 61, 0
2, 199041, Note_on_c, 0, 57, 0
2, 199042, Note_on_c, 0, 83, 0
2, 199043, Note_on_c, 0, 49, 0
2, 199043, Note_on_c, 0, 64, 0
2, 199046, Control_c, 0, 64, 0
2, 199057, Note_on_c, 0, 92, 0
2, 199065, Note_on_c, 0, 85, 0
2, 199065, Note_on_c, 0, 93, 0
2, 199068, Note_on_c, 0, 97, 97
2, 199071, Note_on_c, 0, 93, 87
2, 199074, Note_on_c, 0, 85, 97
2, 199076, Note_on_c, 0, 90, 95
2, 199077, Note_on_c, 0, 39, 85
2, 199099, Note_on_c, 0, 47, 56
2, 199104, Control_c, 0, 64, 127
2, 199119, Note_on_c, 0, 47, 0
2, 199129, Note_on_c, 0, 47, 30
2, 199219, Note_on_c, 0, 39, 0
2, 199224, Note_on_c, 0, 39, 75
2, 199326, Note_on_c, 0, 47, 0
2, 199330, Note_on_c, 0, 47, 68
2, 199334, Note_on_c, 0, 51, 70
2, 199342, Note_on_c, 0, 51, 0
2, 199398, Note_on_c, 0, 51, 79
2, 199434, Note_on_c, 0, 39, 0
2, 199444, Note_on_c, 0, 39, 80
2, 199457, Note_on_c, 0, 95, 0
2, 199463, Note_on_c, 0, 95, 98
2, 199469, Note_on_c, 0, 83, 96
2, 199511, Note_on_c, 0, 51, 0
2, 199518, Note_on_c, 0, 51, 68
2, 199564, Note_on_c, 0, 47, 0
2, 199568, Note_on_c, 0, 47, 89
2, 199580, Note_on_c, 0, 39, 0
2, 199580, Note_on_c, 0, 95, 0
2, 199585, Note_on_c, 0, 39, 91
2, 199587, Note_on_c, 0, 83, 0
2, 199589, Note_on_c, 0, 95, 100
2, 199595, Note_on_c, 0, 90, 0
2, 199597, Note_on_c, 0, 87, 93
2, 199598, Note_on_c, 0, 83, 97
2, 199605, Note_on_c, 0, 90, 88
2, 199656, Note_on_c, 0, 47, 0
2, 199666, Note_on_c, 0, 47, 75
2, 199695, Note_on_c, 0, 39, 0
2, 199700, Note_on_c, 0, 39, 86
2, 199756, Note_on_c, 0, 51, 0
2, 199761, Note_on_c, 0, 51, 88
2, 199810, Note_on_c, 0, 39, 0
2, 199816, Note_on_c, 0, 39, 92
2, 199856, Note_on_c, 0, 47, 0
2, 199867, Note_on_c, 0, 47, 60
2, 199910, Note_on_c, 0, 39, 0
2, 199920, Note_on_c, 0, 39, 84
2, 199964, Note_on_c, 0, 51, 0
2, 199975, Note_on_c, 0, 51, 84
2, 200087, Note_on_c, 0, 47, 0
2, 200091, Note_on_c, 0, 47, 90
2, 200098, Note_on_c, 0, 35, 85
2, 200102, Note_on_c, 0, 39, 0
2, 200106, Note_on_c, 0, 39, 72
2, 200112, Note_on_c, 0, 97, 0
2, 200113, Note_on_c, 0, 93, 0
2, 200113, Note_on_c, 0, 95, 0
2, 200114, Note_on_c, 0, 87, 0
2, 200114, Control_c, 0, 64, 0
2, 200114, Note_on_c, 0, 90, 0
2, 200115, Note_on_c, 0, 85, 0
2, 200116, Note_on_c, 0, 83, 0
2, 200116, Note_on_c, 0, 51, 0
2, 200156, Control_c, 0, 64, 127
2, 200222, Note_on_c, 0, 71, 98
2, 200224, Note_on_c, 0, 59, 91
2, 200343, Note_on_c, 0, 76, 98
2, 200344, Note_on_c, 0, 64, 92
2, 200363, Note_on_c, 0, 39, 0
2, 200435, Note_on_c, 0, 28, 96
2, 200436, Note_on_c, 0, 40, 93
2, 200455, Note_on_c, 0, 71, 0
2, 200464, Note_on_c, 0, 83, 100
2, 200466, Note_on_c, 0, 71, 94
2, 200578, Note_on_c, 0, 76, 0
2, 200578, Note_on_c, 0, 83, 0
2, 200587, Note_on_c, 0, 88, 93
2, 200589, Note_on_c, 0, 76, 92
2, 200589, Note_on_c, 0, 83, 78
2, 200706, Note_on_c, 0, 95, 94
2, 200709, Note_on_c, 0, 83, 0
2, 200709, Note_on_c, 0, 52, 82
2, 200712, Note_on_c, 0, 93, 79
2, 200712, Note_on_c, 0, 83, 83
2, 200713, Note_on_c, 0, 81, 70
2, 200716, Note_on_c, 0, 93, 0
2, 200808, Note_on_c, 0, 52, 0
2, 200808, Note_on_c, 0, 64, 0
2, 200813, Note_on_c, 0, 64, 87
2, 200813, Note_on_c, 0, 52, 91
2, 200814, Note_on_c, 0, 56, 91
2, 200816, Note_on_c, 0, 88, 0
2, 200820, Note_on_c, 0, 88, 103
2, 200821, Note_on_c, 0, 100, 109
2, 201013, Note_on_c, 0, 28, 0
2, 201013, Control_c, 0, 64, 0
2, 201014, Note_on_c, 0, 40, 0
2, 201015, Note_on_c, 0, 100, 0
2, 201015, Note_on_c, 0, 52, 0
2, 201015, Note_on_c, 0, 35, 0
2, 201016, Note_on_c, 0, 95, 0
2, 201016, Note_on_c, 0, 81, 0
2, 201016, Note_on_c, 0, 64, 0
2, 201017, Note_on_c, 0, 88, 0
2, 201017, Note_on_c, 0, 76, 0
2, 201017, Note_on_c, 0, 83, 0
2, 201024, Note_on_c, 0, 47, 0
2, 201031, Note_on_c, 0, 59, 0
2, 201031, Note_on_c, 0, 71, 0
2, 201039, Note_on_c, 0, 56, 0
2, 201064, Note_on_c, 0, 33, 93
2, 201065, Note_on_c, 0, 45, 102
2, 201100, Control_c, 0, 64, 127
2, 201335, Note_on_c, 0, 64, 87
2, 201338, Note_on_c, 0, 61, 83
2, 201342, Note_on_c, 0, 57, 77
2, 201342, Note_on_c, 0, 69, 88
2, 201345, Note_on_c, 0, 76, 91
2, 201446, Note_on_c, 0, 57, 0
2, 201457, Note_on_c, 0, 57, 75
2, 201584, Note_on_c, 0, 76, 0
2, 201590, Note_on_c, 0, 73, 97
2, 201591, Note_on_c, 0, 83, 100
2, 201594, Note_on_c, 0, 76, 85
2, 201684, Note_on_c, 0, 57, 0
2, 201684, Note_on_c, 0, 61, 0
2, 201692, Note_on_c, 0, 57, 73
2, 201695, Note_on_c, 0, 61, 73
2, 201838, Note_on_c, 0, 61, 0
2, 201838, Note_on_c, 0, 64, 0
2, 201847, Note_on_c, 0, 61, 82
2, 201848, Note_on_c, 0, 64, 95
2, 201851, Note_on_c, 0, 80, 90
2, 201853, Note_on_c, 0, 76, 0
2, 201856, Note_on_c, 0, 71, 85
2, 201859, Note_on_c, 0, 76, 77
2, 201968, Note_on_c, 0, 69, 0
2, 201974, Note_on_c, 0, 81, 103
2, 201976, Note_on_c, 0, 61, 0
2, 201976, Note_on_c, 0, 73, 0
2, 201979, Note_on_c, 0, 69, 92
2, 201982, Note_on_c, 0, 61, 77
2, 201983, Note_on_c, 0, 73, 93
2, 202026, Control_c, 0, 64, 0
2, 202029, Note_on_c, 0, 45, 0
2, 202031, Note_on_c, 0, 57, 0
2, 202032, Note_on_c, 0, 76, 0
2, 202032, Note_on_c, 0, 61, 0
2, 202032, Note_on_c, 0, 83, 0
2, 202032, Note_on_c, 0, 71, 0
2, 202032, Note_on_c, 0, 80, 0
2, 202045, Note_on_c, 0, 33, 0
2, 202053, Note_on_c, 0, 64, 0
2, 202076, Control_c, 0, 64, 127
2, 202100, Note_on_c, 0, 37, 85
2, 202102, Note_on_c, 0, 25, 80
2, 202352, Note_on_c, 0, 69, 0
2, 202352, Note_on_c, 0, 73, 0
2, 202352, Note_on_c, 0, 81, 0
2, 202354, Note_on_c, 0, 64, 95
2, 202356, Note_on_c, 0, 81, 101
2, 202357, Note_on_c, 0, 61, 88
2, 202358, Note_on_c, 0, 69, 90
2, 202359, Note_on_c, 0, 57, 81
2, 202359, Note_on_c, 0, 73, 97
2, 202363, Note_on_c, 0, 76, 89
2, 202480, Note_on_c, 0, 49, 94
2, 202613, Note_on_c, 0, 76, 0
2, 202618, Note_on_c, 0, 80, 102
2, 202618, Note_on_c, 0, 71, 94
2, 202623, Note_on_c, 0, 76, 65
2, 202828, Note_on_c, 0, 25, 0
2, 202859, Note_on_c, 0, 64, 0
2, 202859, Note_on_c, 0, 69, 0
2, 202859, Note_on_c, 0, 81, 0
2, 202867, Note_on_c, 0, 57, 0
2, 202867, Note_on_c, 0, 61, 0
2, 202867, Note_on_c, 0, 73, 0
2, 202869, Note_on_c, 0, 81, 99
2, 202869, Note_on_c, 0, 64, 94
2, 202870, Note_on_c, 0, 69, 91
2, 202871, Note_on_c, 0, 57, 84
2, 202871, Note_on_c, 0, 61, 87
2, 202874, Note_on_c, 0, 73, 91
2, 203036, Note_on_c, 0, 69, 0
2, 203044, Note_on_c, 0, 69, 76
2, 203083, Note_on_c, 0, 69, 0
2, 203083, Note_on_c, 0, 37, 0
2, 203084, Note_on_c, 0, 80, 0
2, 203084, Note_on_c, 0, 49, 0
2, 203084, Note_on_c, 0, 71, 0
2, 203084, Note_on_c, 0, 81, 0
2, 203084, Note_on_c, 0, 57, 0
2, 203084, Note_on_c, 0, 61, 0
2, 203084, Note_on_c, 0, 73, 0
2, 203084, Note_on_c, 0, 76, 0
2, 203084, Control_c, 0, 64, 0
2, 203085, Note_on_c, 0, 74, 73
2, 203097, Note_on_c, 0, 64, 0
2, 203119, Note_on_c, 0, 38, 91
2, 203120, Note_on_c, 0, 26, 77
2, 203125, Note_on_c, 0, 80, 103
2, 203151, Control_c, 0, 64, 127
2, 203212, Note_on_c, 0, 26, 0
2, 203380, Note_on_c, 0, 78, 95
2, 203385, Note_on_c, 0, 64, 82
2, 203387, Note_on_c, 0, 54, 78
2, 203392, Note_on_c, 0, 57, 67
2, 203504, Note_on_c, 0, 38, 0
2, 203510, Note_on_c, 0, 76, 99
2, 203511, Note_on_c, 0, 69, 88
2, 203513, Note_on_c, 0, 38, 84
2, 203514, Note_on_c, 0, 50, 80
2, 203515, Note_on_c, 0, 73, 92
2, 203769, Note_on_c, 0, 88, 90
2, 203781, Note_on_c, 0, 50, 0
2, 203785, Note_on_c, 0, 50, 82
2, 203785, Note_on_c, 0, 84, 74
2, 203796, Note_on_c, 0, 84, 0
2, 203838, Note_on_c, 0, 83, 81
2, 203880, Note_on_c, 0, 54, 0
2, 203880, Note_on_c, 0, 64, 0
2, 203886, Note_on_c, 0, 54, 82
2, 203888, Note_on_c, 0, 64, 76
2, 203888, Note_on_c, 0, 81, 83
2, 203927, Note_on_c, 0, 76, 0
2, 203935, Note_on_c, 0, 76, 91
2, 204024, Note_on_c, 0, 71, 84
2, 204096, Note_on_c, 0, 69, 0
2, 204102, Note_on_c, 0, 69, 80
2, 204139, Note_on_c, 0, 57, 0
2, 204139, Note_on_c, 0, 76, 0
2, 204139, Note_on_c, 0, 38, 0
2, 204139, Note_on_c, 0, 80, 0
2, 204139, Note_on_c, 0, 83, 0
2, 204139, Note_on_c, 0, 64, 0
2, 204140, Note_on_c, 0, 73, 0
2, 204140, Note_on_c, 0, 88, 0
2, 204140, Note_on_c, 0, 50, 0
2, 204140, Note_on_c, 0, 69, 0
2, 204141, Note_on_c, 0, 71, 0
2, 204141, Note_on_c, 0, 78, 0
2, 204144, Control_c, 0, 64, 0
2, 204157, Note_on_c, 0, 54, 0
2, 204157, Note_on_c, 0, 81, 0
2, 204163, Note_on_c, 0, 40, 89
2, 204165, Note_on_c, 0, 74, 0
2, 204168, Note_on_c, 0, 68, 90
2, 204226, Control_c, 0, 64, 127
2, 204246, Note_on_c, 0, 66, 83
2, 204311, Note_on_c, 0, 68, 0
2, 204322, Note_on_c, 0, 68, 71
2, 204333, Note_on_c, 0, 64, 78
2, 204395, Note_on_c, 0, 66, 0
2, 204400, Note_on_c, 0, 66, 78
2, 204432, Note_on_c, 0, 47, 68
2, 204436, Note_on_c, 0, 56, 72
2, 204449, Note_on_c, 0, 68, 0
2, 204454, Note_on_c, 0, 68, 81
2, 204529, Note_on_c, 0, 69, 80
2, 204533, Note_on_c, 0, 40, 0
2, 204537, Note_on_c, 0, 40, 81
2, 204592, Note_on_c, 0, 71, 79
2, 204631, Note_on_c, 0, 73, 77
2, 204664, Note_on_c, 0, 40, 0
2, 204674, Note_on_c, 0, 40, 85
2, 204674, Note_on_c, 0, 74, 90
2, 204678, Note_on_c, 0, 28, 89
2, 204682, Note_on_c, 0, 41, 87
2, 204682, Note_on_c, 0, 29, 80
2, 204687, Note_on_c, 0, 28, 0
2, 204687, Note_on_c, 0, 29, 0
2, 204700, Note_on_c, 0, 66, 0
2, 204700, Control_c, 0, 64, 0
2, 204700, Note_on_c, 0, 64, 0
2, 204700, Note_on_c, 0, 56, 0
2, 204701, Note_on_c, 0, 68, 0
2, 204702, Note_on_c, 0, 71, 0
2, 204704, Note_on_c, 0, 73, 0
2, 204705, Note_on_c, 0, 47, 0
2, 204718, Note_on_c, 0, 69, 0
2, 204737, Note_on_c, 0, 71, 63
2, 204748, Note_on_c, 0, 40, 0
2, 204748, Control_c, 0, 64, 127
2, 204787, Note_on_c, 0, 71, 0
2, 204797, Note_on_c, 0, 68, 65
2, 204797, Note_on_c, 0, 71, 77
2, 204874, Note_on_c, 0, 73, 77
2, 204933, Note_on_c, 0, 74, 0
2, 204935, Note_on_c, 0, 56, 76
2, 204943, Note_on_c, 0, 74, 83
2, 205003, Note_on_c, 0, 76, 78
2, 205040, Note_on_c, 0, 41, 0
2, 205045, Note_on_c, 0, 41, 74
2, 205049, Note_on_c, 0, 78, 78
2, 205097, Note_on_c, 0, 80, 85
2, 205166, Note_on_c, 0, 68, 0
2, 205166, Note_on_c, 0, 41, 0
2, 205167, Note_on_c, 0, 74, 0
2, 205167, Note_on_c, 0, 56, 0
2, 205167, Control_c, 0, 64, 0
2, 205167, Note_on_c, 0, 71, 0
2, 205167, Note_on_c, 0, 80, 0
2, 205168, Note_on_c, 0, 78, 0
2, 205186, Note_on_c, 0, 76, 0
2, 205193, Note_on_c, 0, 42, 88
2, 205193, Note_on_c, 0, 81, 99
2, 205194, Note_on_c, 0, 73, 0
2, 205197, Note_on_c, 0, 30, 83
2, 205197, Note_on_c, 0, 76, 94
2, 205201, Note_on_c, 0, 73, 89
2, 205201, Note_on_c, 0, 30, 0
2, 205232, Control_c, 0, 64, 127
2, 205447, Note_on_c, 0, 76, 0
2, 205455, Note_on_c, 0, 64, 87
2, 205455, Note_on_c, 0, 73, 0
2, 205456, Note_on_c, 0, 61, 89
2, 205456, Note_on_c, 0, 76, 97
2, 205459, Note_on_c, 0, 57, 83
2, 205459, Note_on_c, 0, 69, 88
2, 205463, Note_on_c, 0, 73, 82
2, 205572, Note_on_c, 0, 54, 78
2, 205701, Note_on_c, 0, 73, 0
2, 205701, Note_on_c, 0, 76, 0
2, 205707, Note_on_c, 0, 83, 102
2, 205711, Note_on_c, 0, 76, 78
2, 205712, Note_on_c, 0, 73, 97
2, 205731, Note_on_c, 0, 81, 0
2, 205736, Note_on_c, 0, 81, 54
2, 205824, Note_on_c, 0, 54, 0
2, 205830, Note_on_c, 0, 54, 77
2, 205946, Note_on_c, 0, 64, 0
2, 205952, Note_on_c, 0, 64, 94
2, 205954, Note_on_c, 0, 57, 0
2, 205954, Note_on_c, 0, 61, 0
2, 205959, Note_on_c, 0, 61, 81
2, 205965, Note_on_c, 0, 57, 73
2, 205966, Note_on_c, 0, 80, 93
2, 205975, Note_on_c, 0, 71, 70
2, 206085, Note_on_c, 0, 69, 0
2, 206085, Note_on_c, 0, 81, 0
2, 206090, Note_on_c, 0, 81, 106
2, 206092, Note_on_c, 0, 73, 0
2, 206095, Note_on_c, 0, 69, 92
2, 206097, Note_on_c, 0, 73, 98
2, 206134, Note_on_c, 0, 42, 0
2, 206136, Note_on_c, 0, 54, 0
2, 206137, Note_on_c, 0, 57, 0
2, 206137, Note_on_c, 0, 61, 0
2, 206138, Note_on_c, 0, 83, 0
2, 206138, Note_on_c, 0, 64, 0
2, 206138, Note_on_c, 0, 80, 0
2, 206139, Note_on_c, 0, 71, 0
2, 206139, Note_on_c, 0, 76, 0
2, 206140, Control_c, 0, 64, 0
2, 206209, Note_on_c, 0, 40, 98
2, 206215, Control_c, 0, 64, 127
2, 206472, Note_on_c, 0, 64, 89
2, 206472, Note_on_c, 0, 61, 82
2, 206472, Note_on_c, 0, 57, 81
2, 206600, Note_on_c, 0, 52, 95
2, 206853, Note_on_c, 0, 52, 0
2, 206857, Note_on_c, 0, 52, 87
2, 206859, Note_on_c, 0, 76, 98
2, 206968, Note_on_c, 0, 61, 0
2, 206968, Note_on_c, 0, 64, 0
2, 206968, Note_on_c, 0, 81, 0
2, 206976, Note_on_c, 0, 57, 0
2, 206976, Note_on_c, 0, 69, 0
2, 206977, Note_on_c, 0, 64, 91
2, 206979, Note_on_c, 0, 61, 89
2, 206979, Note_on_c, 0, 81, 97
2, 206979, Note_on_c, 0, 69, 87
2, 206981, Note_on_c, 0, 57, 83
2, 206983, Note_on_c, 0, 52, 0
2, 206987, Note_on_c, 0, 52, 77
2, 207091, Note_on_c, 0, 83, 103
2, 207092, Note_on_c, 0, 71, 95
2, 207174, Note_on_c, 0, 69, 0
2, 207174, Note_on_c, 0, 81, 0
2, 207174, Note_on_c, 0, 64, 0
2, 207174, Note_on_c, 0, 52, 0
2, 207174, Note_on_c, 0, 57, 0
2, 207174, Note_on_c, 0, 71, 0
2, 207174, Note_on_c, 0, 40, 0
2, 207176, Note_on_c, 0, 76, 0
2, 207176, Note_on_c, 0, 83, 0
2, 207178, Control_c, 0, 64, 0
2, 207183, Note_on_c, 0, 73, 0
2, 207191, Note_on_c, 0, 61, 0
2, 207225, Note_on_c, 0, 73, 101
2, 207225, Note_on_c, 0, 85, 101
2, 207226, Note_on_c, 0, 78, 99
2, 207229, Note_on_c, 0, 81, 88
2, 207233, Note_on_c, 0, 39, 99
2, 207252, Control_c, 0, 64, 127
2, 207476, Note_on_c, 0, 59, 85
2, 207483, Note_on_c, 0, 54, 75
2, 207486, Note_on_c, 0, 57, 72
2, 207598, Note_on_c, 0, 57, 0
2, 207602, Note_on_c, 0, 51, 85
2, 207603, Note_on_c, 0, 57, 70
2, 207605, Note_on_c, 0, 83, 97
2, 207606, Note_on_c, 0, 71, 91
2, 207728, Note_on_c, 0, 78, 0
2, 207728, Note_on_c, 0, 83, 0
2, 207733, Note_on_c, 0, 83, 99
2, 207736, Note_on_c, 0, 71, 0
2, 207739, Note_on_c, 0, 78, 95
2, 207740, Note_on_c, 0, 71, 88
2, 207741, Note_on_c, 0, 75, 86
2, 207874, Note_on_c, 0, 51, 0
2, 207879, Note_on_c, 0, 51, 90
2, 207982, Note_on_c, 0, 54, 0
2, 207982, Note_on_c, 0, 59, 0
2, 207986, Note_on_c, 0, 59, 91
2, 207987, Note_on_c, 0, 54, 91
2, 208104, Note_on_c, 0, 83, 0
2, 208112, Note_on_c, 0, 71, 0
2, 208115, Note_on_c, 0, 83, 93
2, 208116, Note_on_c, 0, 71, 87
2, 208193, Note_on_c, 0, 81, 0
2, 208193, Note_on_c, 0, 54, 0
2, 208193, Note_on_c, 0, 73, 0
2, 208194, Note_on_c, 0, 57, 0
2, 208194, Note_on_c, 0, 85, 0
2, 208194, Note_on_c, 0, 78, 0
2, 208194, Note_on_c, 0, 71, 0
2, 208194, Note_on_c, 0, 51, 0
2, 208194, Note_on_c, 0, 75, 0
2, 208194, Note_on_c, 0, 59, 0
2, 208195, Note_on_c, 0, 83, 0
2, 208200, Control_c, 0, 64, 0
2, 208212, Note_on_c, 0, 39, 0
2, 208247, Note_on_c, 0, 86, 102
2, 208249, Note_on_c, 0, 50, 100
2, 208251, Note_on_c, 0, 78, 103
2, 208252, Note_on_c, 0, 38, 99
2, 208253, Note_on_c, 0, 74, 104
2, 208254, Note_on_c, 0, 84, 88
2, 208258, Control_c, 0, 64, 127
2, 208373, Note_on_c, 0, 38, 0
2, 208373, Note_on_c, 0, 50, 0
2, 208380, Note_on_c, 0, 50, 92
2, 208384, Note_on_c, 0, 38, 81
2, 208484, Note_on_c, 0, 38, 0
2, 208484, Note_on_c, 0, 86, 0
2, 208485, Note_on_c, 0, 50, 0
2, 208486, Note_on_c, 0, 74, 0
2, 208486, Note_on_c, 0, 78, 0
2, 208493, Control_c, 0, 64, 0
2, 208499, Note_on_c, 0, 85, 96
2, 208505, Note_on_c, 0, 73, 85
2, 208512, Note_on_c, 0, 84, 0
2, 208546, Note_on_c, 0, 73, 0
2, 208547, Note_on_c, 0, 85, 0
2, 208625, Note_on_c, 0, 83, 103
2, 208627, Control_c, 0, 64, 127
2, 208627, Note_on_c, 0, 49, 90
2, 208629, Note_on_c, 0, 37, 98
2, 208631, Note_on_c, 0, 71, 95
2, 208634, Note_on_c, 0, 77, 94
2, 208636, Note_on_c, 0, 80, 91
2, 208869, Note_on_c, 0, 85, 101
2, 208871, Note_on_c, 0, 39, 83
2, 208871, Note_on_c, 0, 51, 81
2, 208876, Note_on_c, 0, 73, 91
2, 208877, Note_on_c, 0, 79, 75
2, 208948, Note_on_c, 0, 77, 0
2, 208949, Note_on_c, 0, 49, 0
2, 208949, Note_on_c, 0, 80, 0
2, 208951, Note_on_c, 0, 37, 0
2, 208951, Note_on_c, 0, 71, 0
2, 208951, Note_on_c, 0, 83, 0
2, 208957, Control_c, 0, 64, 0
2, 209011, Note_on_c, 0, 51, 0
2, 209015, Note_on_c, 0, 53, 77
2, 209022, Note_on_c, 0, 41, 72
2, 209034, Control_c, 0, 64, 127
2, 209264, Note_on_c, 0, 39, 0
2, 209270, Note_on_c, 0, 53, 0
2, 209272, Control_c, 0, 64, 0
2, 209275, Note_on_c, 0, 41, 0
2, 209280, Note_on_c, 0, 79, 0
2, 209287, Note_on_c, 0, 85, 0
2, 209289, Note_on_c, 0, 42, 78
2, 209402, Control_c, 0, 64, 127
2, 209410, Note_on_c, 0, 73, 0
2, 209429, Note_on_c, 0, 49, 61
2, 209559, Note_on_c, 0, 73, 75
2, 209560, Note_on_c, 0, 54, 65
2, 209695, Note_on_c, 0, 57, 62
2, 209821, Note_on_c, 0, 78, 79
2, 209823, Note_on_c, 0, 61, 68
2, 209946, Note_on_c, 0, 66, 72
2, 210079, Note_on_c, 0, 81, 82
2, 210081, Note_on_c, 0, 68, 67
2, 210327, Note_on_c, 0, 80, 86
2, 210327, Note_on_c, 0, 49, 0
2, 210328, Note_on_c, 0, 66, 0
2, 210328, Note_on_c, 0, 68, 0
2, 210328, Note_on_c, 0, 54, 0
2, 210328, Note_on_c, 0, 61, 0
2, 210329, Note_on_c, 0, 42, 0
2, 210329, Note_on_c, 0, 57, 0
2, 210330, Note_on_c, 0, 78, 0
2, 210331, Note_on_c, 0, 81, 0
2, 210332, Note_on_c, 0, 73, 0
2, 210333, Control_c, 0, 64, 0
2, 210336, Note_on_c, 0, 71, 72
2, 210337, Note_on_c, 0, 73, 72
2, 210338, Note_on_c, 0, 41, 63
2, 210408, Control_c, 0, 64, 127
2, 210475, Note_on_c, 0, 49, 59
2, 210579, Note_on_c, 0, 53, 67
2, 210584, Note_on_c, 0, 81, 78
2, 210716, Note_on_c, 0, 80, 0
2, 210721, Note_on_c, 0, 80, 87
2, 210721, Note_on_c, 0, 56, 60
2, 210856, Note_on_c, 0, 59, 74
2, 210972, Note_on_c, 0, 61, 72
2, 211128, Note_on_c, 0, 65, 63
2, 211252, Note_on_c, 0, 68, 78
2, 211357, Note_on_c, 0, 49, 0
2, 211357, Note_on_c, 0, 71, 0
2, 211357, Note_on_c, 0, 53, 0
2, 211357, Note_on_c, 0, 61, 0
2, 211357, Note_on_c, 0, 41, 0
2, 211357, Note_on_c, 0, 56, 0
2, 211357, Note_on_c, 0, 59, 0
2, 211358, Note_on_c, 0, 81, 0
2, 211358, Note_on_c, 0, 80, 0
2, 211358, Note_on_c, 0, 65, 0
2, 211361, Control_c, 0, 64, 0
2, 211368, Note_on_c, 0, 73, 0
2, 211382, Note_on_c, 0, 40, 70
2, 211438, Control_c, 0, 64, 127
2, 211510, Note_on_c, 0, 49, 65
2, 211633, Note_on_c, 0, 52, 68
2, 211650, Note_on_c, 0, 76, 69
2, 211768, Note_on_c, 0, 76, 0
2, 211779, Note_on_c, 0, 76, 78
2, 211791, Note_on_c, 0, 56, 61
2, 211913, Note_on_c, 0, 59, 77
2, 211914, Note_on_c, 0, 76, 0
2, 211916, Note_on_c, 0, 80, 89
2, 211922, Note_on_c, 0, 76, 62
2, 212034, Note_on_c, 0, 61, 78
2, 212168, Note_on_c, 0, 73, 84
2, 212171, Note_on_c, 0, 64, 76
2, 212259, Note_on_c, 0, 68, 0
2, 212270, Note_on_c, 0, 68, 72
2, 212290, Note_on_c, 0, 73, 0
2, 212301, Note_on_c, 0, 73, 81
2, 212408, Note_on_c, 0, 80, 0
2, 212408, Note_on_c, 0, 59, 0
2, 212408, Note_on_c, 0, 49, 0
2, 212408, Note_on_c, 0, 56, 0
2, 212408, Note_on_c, 0, 52, 0
2, 212409, Note_on_c, 0, 76, 0
2, 212409, Note_on_c, 0, 61, 0
2, 212409, Note_on_c, 0, 64, 0
2, 212410, Control_c, 0, 64, 0
2, 212413, Note_on_c, 0, 40, 0
2, 212413, Note_on_c, 0, 73, 0
2, 212419, Note_on_c, 0, 73, 86
2, 212425, Note_on_c, 0, 39, 80
2, 212428, Note_on_c, 0, 68, 0
2, 212497, Control_c, 0, 64, 127
2, 212548, Note_on_c, 0, 83, 85
2, 212569, Note_on_c, 0, 47, 73
2, 212653, Note_on_c, 0, 51, 80
2, 212684, Note_on_c, 0, 80, 88
2, 212806, Note_on_c, 0, 81, 97
2, 212808, Note_on_c, 0, 54, 70
2, 212942, Note_on_c, 0, 59, 79
2, 213068, Note_on_c, 0, 63, 79
2, 213191, Note_on_c, 0, 66, 86
2, 213325, Note_on_c, 0, 69, 84
2, 213399, Note_on_c, 0, 51, 0
2, 213399, Note_on_c, 0, 63, 0
2, 213399, Note_on_c, 0, 47, 0
2, 213399, Note_on_c, 0, 73, 0
2, 213399, Note_on_c, 0, 80, 0
2, 213399, Note_on_c, 0, 83, 0
2, 213400, Note_on_c, 0, 54, 0
2, 213400, Note_on_c, 0, 66, 0
2, 213400, Note_on_c, 0, 59, 0
2, 213400, Note_on_c, 0, 81, 0
2, 213400, Control_c, 0, 64, 0
2, 213411, Note_on_c, 0, 39, 0
2, 213453, Note_on_c, 0, 38, 93
2, 213488, Control_c, 0, 64, 127
2, 213581, Note_on_c, 0, 45, 84
2, 213707, Note_on_c, 0, 50, 85
2, 213710, Note_on_c, 0, 76, 100
2, 213712, Note_on_c, 0, 64, 97
2, 213826, Note_on_c, 0, 76, 0
2, 213834, Note_on_c, 0, 52, 92
2, 213835, Note_on_c, 0, 76, 102
2, 213957, Note_on_c, 0, 69, 0
2, 213961, Note_on_c, 0, 81, 101
2, 213962, Note_on_c, 0, 69, 94
2, 213965, Note_on_c, 0, 54, 88
2, 214084, Note_on_c, 0, 86, 108
2, 214086, Note_on_c, 0, 74, 104
2, 214090, Note_on_c, 0, 57, 84
2, 214223, Note_on_c, 0, 62, 100
2, 214348, Note_on_c, 0, 76, 0
2, 214350, Note_on_c, 0, 85, 112
2, 214353, Note_on_c, 0, 73, 105
2, 214355, Note_on_c, 0, 76, 103
2, 214379, Note_on_c, 0, 45, 0
2, 214379, Note_on_c, 0, 81, 0
2, 214380, Note_on_c, 0, 52, 0
2, 214380, Note_on_c, 0, 50, 0
2, 214381, Note_on_c, 0, 86, 0
2, 214381, Control_c, 0, 64, 0
2, 214381, Note_on_c, 0, 74, 0
2, 214381, Note_on_c, 0, 57, 0
2, 214381, Note_on_c, 0, 62, 0
2, 214381, Note_on_c, 0, 38, 0
2, 214381, Note_on_c, 0, 54, 0
2, 214394, Note_on_c, 0, 64, 0
2, 214394, Note_on_c, 0, 69, 0
2, 214448, Control_c, 0, 64, 127
2, 214484, Note_on_c, 0, 52, 111
2, 214484, Note_on_c, 0, 40, 104
2, 214486, Note_on_c, 0, 47, 100
2, 214488, Note_on_c, 0, 28, 92
2, 214494, Note_on_c, 0, 28, 0
2, 214602, Note_on_c, 0, 40, 0
2, 214602, Note_on_c, 0, 47, 0
2, 214606, Note_on_c, 0, 47, 88
2, 214607, Note_on_c, 0, 35, 76
2, 214608, Note_on_c, 0, 40, 83
2, 214617, Note_on_c, 0, 35, 0
2, 214717, Note_on_c, 0, 76, 0
2, 214721, Control_c, 0, 64, 0
2, 214721, Note_on_c, 0, 47, 0
2, 214721, Note_on_c, 0, 40, 0
2, 214722, Note_on_c, 0, 85, 0
2, 214722, Note_on_c, 0, 52, 0
2, 214723, Note_on_c, 0, 73, 0
2, 214724, Note_on_c, 0, 81, 103
2, 214727, Note_on_c, 0, 69, 88
2, 214761, Note_on_c, 0, 69, 0
2, 214763, Note_on_c, 0, 81, 0
2, 214874, Note_on_c, 0, 80, 107
2, 214876, Note_on_c, 0, 68, 109
2, 214917, Control_c, 0, 64, 127
2, 215112, Note_on_c, 0, 81, 111
2, 215113, Note_on_c, 0, 69, 98
2, 215243, Note_on_c, 0, 40, 86
2, 215246, Note_on_c, 0, 88, 96
2, 215250, Note_on_c, 0, 100, 92
2, 215255, Note_on_c, 0, 100, 0
2, 215287, Note_on_c, 0, 92, 91
2, 215296, Note_on_c, 0, 95, 86
2, 215320, Note_on_c, 0, 100, 98
2, 215323, Note_on_c, 0, 44, 86
2, 215435, Control_c, 0, 64, 0
2, 215435, Note_on_c, 0, 81, 0
2, 215436, Note_on_c, 0, 80, 0
2, 215436, Note_on_c, 0, 100, 0
2, 215436, Note_on_c, 0, 40, 0
2, 215436, Note_on_c, 0, 92, 0
2, 215436, Note_on_c, 0, 68, 0
2, 215436, Note_on_c, 0, 44, 0
2, 215437, Note_on_c, 0, 88, 0
2, 215437, Note_on_c, 0, 69, 0
2, 215439, Note_on_c, 0, 95, 0
2, 215513, Note_on_c, 0, 45, 103
2, 215513, Note_on_c, 0, 33, 96
2, 215514, Note_on_c, 0, 81, 109
2, 215516, Note_on_c, 0, 69, 103
2, 215517, Note_on_c, 0, 73, 104
2, 215519, Note_on_c, 0, 76, 103
2, 215531, Control_c, 0, 64, 127
2, 215767, Note_on_c, 0, 52, 84
2, 215773, Note_on_c, 0, 59, 82
2, 215774, Note_on_c, 0, 57, 78
2, 215900, Note_on_c, 0, 45, 0
2, 215900, Note_on_c, 0, 52, 0
2, 215900, Note_on_c, 0, 57, 0
2, 215905, Note_on_c, 0, 45, 80
2, 215908, Note_on_c, 0, 57, 67
2, 215909, Note_on_c, 0, 52, 68
2, 216030, Note_on_c, 0, 52, 0
2, 216039, Note_on_c, 0, 52, 78
2, 216099, Note_on_c, 0, 57, 0
2, 216103, Note_on_c, 0, 57, 87
2, 216153, Note_on_c, 0, 59, 0
2, 216158, Note_on_c, 0, 59, 73
2, 216192, Note_on_c, 0, 45, 0
2, 216203, Note_on_c, 0, 45, 81
2, 216203, Note_on_c, 0, 61, 83
2, 216288, Note_on_c, 0, 64, 91
2, 216299, Note_on_c, 0, 52, 0
2, 216299, Note_on_c, 0, 59, 0
2, 216306, Note_on_c, 0, 52, 82
2, 216309, Note_on_c, 0, 59, 82
2, 216337, Note_on_c, 0, 69, 0
2, 216348, Note_on_c, 0, 69, 71
2, 216399, Note_on_c, 0, 45, 0
2, 216399, Note_on_c, 0, 69, 0
2, 216404, Note_on_c, 0, 45, 89
2, 216407, Note_on_c, 0, 52, 0
2, 216410, Note_on_c, 0, 69, 78
2, 216411, Note_on_c, 0, 52, 61
2, 216411, Note_on_c, 0, 71, 76
2, 216437, Note_on_c, 0, 73, 0
2, 216443, Note_on_c, 0, 73, 88
2, 216539, Control_c, 0, 64, 0
2, 216540, Note_on_c, 0, 52, 0
2, 216540, Note_on_c, 0, 81, 0
2, 216540, Note_on_c, 0, 73, 0
2, 216540, Note_on_c, 0, 57, 0
2, 216540, Note_on_c, 0, 61, 0
2, 216540, Note_on_c, 0, 59, 0
2, 216552, Note_on_c, 0, 33, 0
2, 216552, Note_on_c, 0, 76, 0
2, 216560, Note_on_c, 0, 64, 0
2, 216560, Note_on_c, 0, 69, 0
2, 216564, Note_on_c, 0, 76, 103
2, 216568, Note_on_c, 0, 49, 87
2, 216570, Note_on_c, 0, 69, 81
2, 216571, Note_on_c, 0, 37, 95
2, 216571, Note_on_c, 0, 64, 84
2, 216606, Control_c, 0, 64, 127
2, 216817, Note_on_c, 0, 59, 89
2, 216826, Note_on_c, 0, 57, 80
2, 216832, Note_on_c, 0, 52, 78
2, 216936, Note_on_c, 0, 49, 0
2, 216936, Note_on_c, 0, 52, 0
2, 216936, Note_on_c, 0, 64, 0
2, 216936, Note_on_c, 0, 76, 0
2, 216940, Note_on_c, 0, 49, 73
2, 216941, Note_on_c, 0, 64, 91
2, 216941, Note_on_c, 0, 76, 96
2, 216941, Note_on_c, 0, 52, 74
2, 217059, Note_on_c, 0, 71, 0
2, 217070, Note_on_c, 0, 83, 104
2, 217070, Note_on_c, 0, 71, 100
2, 217167, Note_on_c, 0, 49, 0
2, 217175, Note_on_c, 0, 37, 0
2, 217177, Note_on_c, 0, 49, 87
2, 217178, Note_on_c, 0, 37, 77
2, 217182, Note_on_c, 0, 69, 0
2, 217186, Note_on_c, 0, 81, 102
2, 217190, Note_on_c, 0, 71, 0
2, 217191, Note_on_c, 0, 69, 90
2, 217197, Note_on_c, 0, 71, 86
2, 217297, Note_on_c, 0, 59, 0
2, 217297, Note_on_c, 0, 71, 0
2, 217302, Note_on_c, 0, 59, 92
2, 217304, Note_on_c, 0, 71, 88
2, 217305, Note_on_c, 0, 52, 0
2, 217308, Note_on_c, 0, 47, 73
2, 217308, Note_on_c, 0, 80, 102
2, 217309, Note_on_c, 0, 68, 94
2, 217312, Note_on_c, 0, 52, 69
2, 217313, Note_on_c, 0, 47, 0
2, 217328, Note_on_c, 0, 49, 0
2, 217335, Note_on_c, 0, 49, 55
2, 217428, Note_on_c, 0, 81, 0
2, 217434, Note_on_c, 0, 81, 102
2, 217436, Note_on_c, 0, 45, 0
2, 217436, Note_on_c, 0, 69, 0
2, 217436, Note_on_c, 0, 76, 0
2, 217440, Note_on_c, 0, 69, 86
2, 217442, Note_on_c, 0, 45, 74
2, 217442, Note_on_c, 0, 76, 91
2, 217442, Note_on_c, 0, 73, 94
2, 217478, Note_on_c, 0, 57, 0
2, 217478, Note_on_c, 0, 83, 0
2, 217478, Note_on_c, 0, 52, 0
2, 217478, Note_on_c, 0, 37, 0
2, 217478, Note_on_c, 0, 49, 0
2, 217479, Note_on_c, 0, 71, 0
2, 217479, Note_on_c, 0, 59, 0
2, 217479, Note_on_c, 0, 64, 0
2, 217479, Note_on_c, 0, 80, 0
2, 217479, Note_on_c, 0, 68, 0
2, 217484, Control_c, 0, 64, 0
2, 217520, Note_on_c, 0, 45, 0
2, 217563, Note_on_c, 0, 50, 102
2, 217563, Note_on_c, 0, 38, 104
2, 217574, Control_c, 0, 64, 127
2, 217827, Note_on_c, 0, 69, 0
2, 217834, Note_on_c, 0, 69, 71
2, 217837, Note_on_c, 0, 54, 80
2, 217947, Note_on_c, 0, 93, 101
2, 217950, Note_on_c, 0, 50, 0
2, 217959, Note_on_c, 0, 45, 65
2, 217962, Note_on_c, 0, 50, 84
2, 217973, Note_on_c, 0, 97, 63
2, 217981, Note_on_c, 0, 97, 0
2, 218067, Note_on_c, 0, 92, 88
2, 218135, Note_on_c, 0, 93, 0
2, 218143, Note_on_c, 0, 93, 87
2, 218181, Note_on_c, 0, 50, 0
2, 218185, Note_on_c, 0, 50, 65
2, 218188, Note_on_c, 0, 92, 0
2, 218200, Note_on_c, 0, 92, 97
2, 218262, Note_on_c, 0, 90, 84
2, 218311, Note_on_c, 0, 54, 0
2, 218317, Note_on_c, 0, 88, 84
2, 218317, Note_on_c, 0, 54, 79
2, 218318, Note_on_c, 0, 57, 84
2, 218388, Note_on_c, 0, 50, 0
2, 218399, Note_on_c, 0, 50, 92
2, 218434, Note_on_c, 0, 88, 0
2, 218445, Note_on_c, 0, 88, 79
2, 218499, Note_on_c, 0, 86, 89
2, 218540, Note_on_c, 0, 69, 0
2, 218541, Note_on_c, 0, 54, 0
2, 218541, Note_on_c, 0, 92, 0
2, 218541, Note_on_c, 0, 90, 0
2, 218541, Note_on_c, 0, 45, 0
2, 218542, Note_on_c, 0, 73, 0
2, 218542, Note_on_c, 0, 76, 0
2, 218542, Note_on_c, 0, 57, 0
2, 218542, Note_on_c, 0, 50, 0
2, 218542, Note_on_c, 0, 88, 0
2, 218542, Note_on_c, 0, 38, 0
2, 218542, Note_on_c, 0, 93, 0
2, 218543, Note_on_c, 0, 86, 0
2, 218545, Control_c, 0, 64, 0
2, 218549, Note_on_c, 0, 81, 0
2, 218569, Note_on_c, 0, 85, 91
2, 218569, Note_on_c, 0, 52, 91
2, 218569, Note_on_c, 0, 40, 92
2, 218595, Control_c, 0, 64, 127
2, 218634, Note_on_c, 0, 86, 92
2, 218695, Note_on_c, 0, 85, 0
2, 218707, Note_on_c, 0, 85, 85
2, 218765, Note_on_c, 0, 47, 72
2, 218772, Note_on_c, 0, 83, 80
2, 218810, Note_on_c, 0, 52, 0
2, 218817, Note_on_c, 0, 52, 70
2, 218821, Note_on_c, 0, 56, 75
2, 218828, Note_on_c, 0, 81, 80
2, 218894, Note_on_c, 0, 80, 83
2, 218952, Note_on_c, 0, 78, 85
2, 219020, Note_on_c, 0, 76, 82
2, 219075, Note_on_c, 0, 74, 88
2, 219076, Note_on_c, 0, 53, 83
2, 219077, Note_on_c, 0, 41, 78
2, 219083, Control_c, 0, 64, 0
2, 219087, Note_on_c, 0, 56, 0
2, 219087, Note_on_c, 0, 76, 0
2, 219088, Note_on_c, 0, 52, 0
2, 219088, Note_on_c, 0, 86, 0
2, 219089, Note_on_c, 0, 80, 0
2, 219089, Note_on_c, 0, 85, 0
2, 219090, Note_on_c, 0, 81, 0
2, 219091, Note_on_c, 0, 83, 0
2, 219091, Note_on_c, 0, 47, 0
2, 219091, Note_on_c, 0, 78, 0
2, 219095, Note_on_c, 0, 40, 0
2, 219101, Note_on_c, 0, 74, 0
2, 219125, Control_c, 0, 64, 127
2, 219142, Note_on_c, 0, 73, 85
2, 219192, Note_on_c, 0, 49, 68
2, 219195, Note_on_c, 0, 71, 84
2, 219256, Note_on_c, 0, 53, 0
2, 219262, Note_on_c, 0, 69, 83
2, 219263, Note_on_c, 0, 53, 64
2, 219331, Note_on_c, 0, 56, 79
2, 219332, Note_on_c, 0, 68, 92
2, 219448, Note_on_c, 0, 71, 0
2, 219453, Note_on_c, 0, 71, 72
2, 219494, Note_on_c, 0, 68, 0
2, 219498, Note_on_c, 0, 68, 89
2, 219544, Control_c, 0, 64, 0
2, 219544, Note_on_c, 0, 49, 0
2, 219544, Note_on_c, 0, 56, 0
2, 219545, Note_on_c, 0, 71, 0
2, 219545, Note_on_c, 0, 73, 0
2, 219555, Note_on_c, 0, 41, 0
2, 219563, Note_on_c, 0, 53, 0
2, 219563, Note_on_c, 0, 69, 0
2, 219571, Note_on_c, 0, 68, 0
2, 219574, Note_on_c, 0, 69, 83
2, 219579, Note_on_c, 0, 68, 79
2, 219582, Note_on_c, 0, 54, 87
2, 219582, Note_on_c, 0, 42, 89
2, 219609, Control_c, 0, 64, 127
2, 219631, Note_on_c, 0, 71, 75
2, 219678, Note_on_c, 0, 68, 0
2, 219684, Note_on_c, 0, 68, 88
2, 219747, Note_on_c, 0, 69, 0
2, 219755, Note_on_c, 0, 71, 0
2, 219757, Note_on_c, 0, 69, 73
2, 219759, Note_on_c, 0, 71, 62
2, 219814, Note_on_c, 0, 66, 86
2, 219845, Note_on_c, 0, 64, 75
2, 219850, Note_on_c, 0, 61, 65
2, 219874, Note_on_c, 0, 57, 58
2, 219878, Note_on_c, 0, 68, 0
2, 219889, Note_on_c, 0, 68, 87
2, 219970, Note_on_c, 0, 69, 0
2, 219978, Note_on_c, 0, 61, 0
2, 219981, Note_on_c, 0, 69, 76
2, 219987, Note_on_c, 0, 61, 54
2, 220039, Note_on_c, 0, 71, 0
2, 220048, Note_on_c, 0, 71, 79
2, 220098, Note_on_c, 0, 73, 83
2, 220144, Note_on_c, 0, 74, 86
2, 220216, Note_on_c, 0, 54, 0
2, 220216, Note_on_c, 0, 71, 0
2, 220221, Note_on_c, 0, 71, 86
2, 220227, Note_on_c, 0, 54, 66
2, 220277, Note_on_c, 0, 73, 0
2, 220288, Note_on_c, 0, 73, 90
2, 220346, Note_on_c, 0, 61, 0
2, 220346, Note_on_c, 0, 64, 0
2, 220346, Note_on_c, 0, 69, 0
2, 220353, Note_on_c, 0, 64, 87
2, 220355, Note_on_c, 0, 69, 81
2, 220356, Note_on_c, 0, 61, 80
2, 220362, Note_on_c, 0, 57, 0
2, 220366, Note_on_c, 0, 57, 68
2, 220385, Note_on_c, 0, 71, 0
2, 220390, Note_on_c, 0, 71, 67
2, 220423, Note_on_c, 0, 54, 0
2, 220435, Note_on_c, 0, 54, 81
2, 220446, Note_on_c, 0, 73, 0
2, 220451, Note_on_c, 0, 73, 78
2, 220492, Note_on_c, 0, 74, 0
2, 220503, Note_on_c, 0, 74, 92
2, 220559, Note_on_c, 0, 71, 0
2, 220560, Note_on_c, 0, 64, 0
2, 220561, Note_on_c, 0, 73, 0
2, 220562, Note_on_c, 0, 68, 0
2, 220564, Note_on_c, 0, 74, 0
2, 220565, Control_c, 0, 64, 0
2, 220569, Note_on_c, 0, 42, 0
2, 220569, Note_on_c, 0, 66, 0
2, 220577, Note_on_c, 0, 54, 0
2, 220577, Note_on_c, 0, 57, 0
2, 220577, Note_on_c, 0, 61, 0
2, 220577, Note_on_c, 0, 69, 0
2, 220580, Note_on_c, 0, 76, 96
2, 220587, Note_on_c, 0, 52, 97
2, 220588, Note_on_c, 0, 40, 95
2, 220631, Control_c, 0, 64, 127
2, 220644, Note_on_c, 0, 78, 93
2, 220690, Note_on_c, 0, 74, 84
2, 220769, Note_on_c, 0, 76, 0
2, 220775, Note_on_c, 0, 76, 80
2, 220822, Note_on_c, 0, 73, 86
2, 220842, Note_on_c, 0, 64, 82
2, 220846, Note_on_c, 0, 52, 0
2, 220850, Note_on_c, 0, 52, 72
2, 220851, Note_on_c, 0, 59, 78
2, 220857, Note_on_c, 0, 57, 69
2, 220899, Note_on_c, 0, 74, 0
2, 220911, Note_on_c, 0, 74, 88
2, 220964, Note_on_c, 0, 71, 66
2, 220968, Note_on_c, 0, 52, 0
2, 220975, Note_on_c, 0, 52, 76
2, 220976, Note_on_c, 0, 57, 0
2, 220984, Note_on_c, 0, 76, 0
2, 220984, Note_on_c, 0, 57, 55
2, 220989, Note_on_c, 0, 76, 90
2, 221015, Note_on_c, 0, 78, 0
2, 221025, Note_on_c, 0, 78, 86
2, 221093, Note_on_c, 0, 80, 88
2, 221135, Note_on_c, 0, 81, 89
2, 221199, Note_on_c, 0, 78, 0
2, 221207, Note_on_c, 0, 52, 0
2, 221209, Note_on_c, 0, 78, 96
2, 221211, Note_on_c, 0, 52, 79
2, 221268, Note_on_c, 0, 80, 0
2, 221274, Note_on_c, 0, 80, 82
2, 221329, Note_on_c, 0, 52, 0
2, 221329, Note_on_c, 0, 57, 0
2, 221329, Note_on_c, 0, 64, 0
2, 221329, Note_on_c, 0, 76, 0
2, 221335, Note_on_c, 0, 64, 86
2, 221337, Note_on_c, 0, 57, 69
2, 221337, Note_on_c, 0, 52, 76
2, 221337, Note_on_c, 0, 59, 0
2, 221340, Note_on_c, 0, 76, 91
2, 221341, Note_on_c, 0, 59, 69
2, 221399, Note_on_c, 0, 81, 0
2, 221406, Note_on_c, 0, 52, 0
2, 221409, Note_on_c, 0, 81, 88
2, 221418, Note_on_c, 0, 52, 86
2, 221460, Note_on_c, 0, 57, 0
2, 221465, Note_on_c, 0, 57, 28
2, 221466, Note_on_c, 0, 83, 93
2, 221529, Note_on_c, 0, 85, 87
2, 221534, Note_on_c, 0, 57, 0
2, 221534, Note_on_c, 0, 74, 0
2, 221534, Note_on_c, 0, 81, 0
2, 221534, Note_on_c, 0, 78, 0
2, 221534, Note_on_c, 0, 64, 0
2, 221535, Note_on_c, 0, 80, 0
2, 221535, Note_on_c, 0, 59, 0
2, 221535, Note_on_c, 0, 76, 0
2, 221536, Note_on_c, 0, 71, 0
2, 221536, Note_on_c, 0, 73, 0
2, 221537, Note_on_c, 0, 40, 0
2, 221538, Control_c, 0, 64, 0
2, 221539, Note_on_c, 0, 83, 0
2, 221552, Note_on_c, 0, 52, 0
2, 221587, Note_on_c, 0, 90, 101
2, 221587, Note_on_c, 0, 51, 97
2, 221590, Note_on_c, 0, 39, 97
2, 221606, Control_c, 0, 64, 127
2, 221614, Note_on_c, 0, 85, 0
2, 221664, Note_on_c, 0, 85, 90
2, 221722, Note_on_c, 0, 81, 62
2, 221801, Note_on_c, 0, 78, 63
2, 221852, Note_on_c, 0, 85, 0
2, 221858, Note_on_c, 0, 85, 92
2, 221863, Note_on_c, 0, 59, 79
2, 221865, Note_on_c, 0, 54, 82
2, 221913, Note_on_c, 0, 81, 0
2, 221917, Note_on_c, 0, 81, 76
2, 221959, Note_on_c, 0, 59, 0
2, 221967, Note_on_c, 0, 51, 0
2, 221967, Note_on_c, 0, 54, 0
2, 221970, Note_on_c, 0, 59, 67
2, 221971, Note_on_c, 0, 51, 74
2, 221973, Note_on_c, 0, 54, 47
2, 222032, Note_on_c, 0, 73, 72
2, 222097, Note_on_c, 0, 81, 0
2, 222103, Note_on_c, 0, 81, 89
2, 222159, Note_on_c, 0, 78, 0
2, 222165, Note_on_c, 0, 78, 88
2, 222213, Note_on_c, 0, 51, 0
2, 222219, Note_on_c, 0, 51, 68
2, 222220, Note_on_c, 0, 73, 0
2, 222227, Note_on_c, 0, 73, 72
2, 222276, Note_on_c, 0, 69, 69
2, 222343, Note_on_c, 0, 54, 0
2, 222351, Note_on_c, 0, 78, 0
2, 222353, Note_on_c, 0, 54, 86
2, 222359, Note_on_c, 0, 59, 0
2, 222360, Note_on_c, 0, 78, 98
2, 222365, Note_on_c, 0, 59, 83
2, 222405, Note_on_c, 0, 51, 0
2, 222405, Note_on_c, 0, 85, 0
2, 222409, Note_on_c, 0, 51, 68
2, 222412, Note_on_c, 0, 73, 0
2, 222416, Note_on_c, 0, 85, 79
2, 222418, Note_on_c, 0, 73, 83
2, 222466, Note_on_c, 0, 69, 0
2, 222466, Note_on_c, 0, 81, 0
2, 222471, Note_on_c, 0, 69, 63
2, 222474, Note_on_c, 0, 81, 72
2, 222501, Note_on_c, 0, 66, 80
2, 222570, Note_on_c, 0, 81, 0
2, 222570, Note_on_c, 0, 78, 0
2, 222570, Note_on_c, 0, 51, 0
2, 222570, Note_on_c, 0, 66, 0
2, 222570, Note_on_c, 0, 85, 0
2, 222570, Note_on_c, 0, 73, 0
2, 222571, Note_on_c, 0, 90, 0
2, 222571, Note_on_c, 0, 39, 0
2, 222572, Note_on_c, 0, 59, 0
2, 222577, Control_c, 0, 64, 0
2, 222589, Note_on_c, 0, 54, 0
2, 222589, Note_on_c, 0, 69, 0
2, 222602, Note_on_c, 0, 35, 92
2, 222606, Note_on_c, 0, 74, 96
2, 222607, Note_on_c, 0, 47, 94
2, 222627, Control_c, 0, 64, 127
2, 222648, Note_on_c, 0, 73, 73
2, 222707, Note_on_c, 0, 71, 75
2, 222743, Note_on_c, 0, 47, 0
2, 222753, Note_on_c, 0, 47, 90
2, 222781, Note_on_c, 0, 73, 0
2, 222786, Note_on_c, 0, 73, 83
2, 222850, Note_on_c, 0, 47, 0
2, 222856, Note_on_c, 0, 57, 80
2, 222858, Note_on_c, 0, 54, 70
2, 222861, Note_on_c, 0, 47, 68
2, 222882, Note_on_c, 0, 69, 83
2, 222965, Note_on_c, 0, 68, 83
2, 223034, Note_on_c, 0, 69, 0
2, 223034, Note_on_c, 0, 71, 0
2, 223040, Note_on_c, 0, 71, 65
2, 223043, Note_on_c, 0, 69, 63
2, 223096, Note_on_c, 0, 74, 0
2, 223098, Note_on_c, 0, 71, 0
2, 223098, Note_on_c, 0, 57, 0
2, 223098, Note_on_c, 0, 47, 0
2, 223098, Note_on_c, 0, 69, 0
2, 223099, Note_on_c, 0, 73, 0
2, 223099, Note_on_c, 0, 35, 0
2, 223104, Note_on_c, 0, 68, 0
2, 223106, Control_c, 0, 64, 0
2, 223108, Note_on_c, 0, 68, 88
2, 223108, Note_on_c, 0, 40, 101
2, 223109, Note_on_c, 0, 52, 95
2, 223119, Note_on_c, 0, 54, 0
2, 223165, Control_c, 0, 64, 127
2, 223180, Note_on_c, 0, 68, 0
2, 223188, Note_on_c, 0, 68, 77
2, 223188, Note_on_c, 0, 66, 81
2, 223250, Note_on_c, 0, 64, 83
2, 223253, Note_on_c, 0, 47, 59
2, 223303, Note_on_c, 0, 47, 0
2, 223310, Note_on_c, 0, 47, 65
2, 223311, Note_on_c, 0, 66, 0
2, 223315, Note_on_c, 0, 66, 84
2, 223342, Note_on_c, 0, 47, 0
2, 223346, Note_on_c, 0, 47, 61
2, 223357, Note_on_c, 0, 52, 0
2, 223357, Note_on_c, 0, 68, 0
2, 223362, Note_on_c, 0, 52, 81
2, 223363, Note_on_c, 0, 56, 88
2, 223367, Note_on_c, 0, 68, 91
2, 223430, Note_on_c, 0, 69, 82
2, 223495, Note_on_c, 0, 52, 0
2, 223497, Note_on_c, 0, 71, 87
2, 223504, Note_on_c, 0, 52, 75
2, 223557, Note_on_c, 0, 66, 0
2, 223557, Note_on_c, 0, 56, 0
2, 223558, Note_on_c, 0, 47, 0
2, 223558, Note_on_c, 0, 64, 0
2, 223558, Note_on_c, 0, 76, 100
2, 223558, Note_on_c, 0, 69, 0
2, 223558, Note_on_c, 0, 68, 0
2, 223559, Note_on_c, 0, 52, 0
2, 223559, Note_on_c, 0, 71, 0
2, 223562, Control_c, 0, 64, 0
2, 223564, Note_on_c, 0, 40, 0
2, 223630, Note_on_c, 0, 45, 95
2, 223630, Note_on_c, 0, 33, 92
2, 223633, Note_on_c, 0, 40, 77
2, 223633, Control_c, 0, 64, 127
2, 223676, Note_on_c, 0, 69, 81
2, 223883, Note_on_c, 0, 64, 98
2, 223898, Note_on_c, 0, 52, 84
2, 223906, Note_on_c, 0, 61, 72
2, 223913, Note_on_c, 0, 59, 74
2, 224019, Note_on_c, 0, 57, 73
2, 224156, Note_on_c, 0, 64, 0
2, 224156, Note_on_c, 0, 76, 0
2, 224160, Note_on_c, 0, 76, 103
2, 224163, Note_on_c, 0, 64, 91
2, 224168, Note_on_c, 0, 73, 83
2, 224174, Note_on_c, 0, 71, 77
2, 224248, Note_on_c, 0, 57, 0
2, 224248, Note_on_c, 0, 69, 0
2, 224255, Note_on_c, 0, 57, 81
2, 224258, Note_on_c, 0, 69, 77
2, 224408, Note_on_c, 0, 88, 97
2, 224409, Note_on_c, 0, 73, 0
2, 224409, Note_on_c, 0, 76, 0
2, 224415, Note_on_c, 0, 67, 80
2, 224417, Note_on_c, 0, 64, 0
2, 224418, Note_on_c, 0, 73, 89
2, 224420, Note_on_c, 0, 85, 83
2, 224420, Note_on_c, 0, 76, 92
2, 224420, Note_on_c, 0, 86, 86
2, 224422, Note_on_c, 0, 64, 63
2, 224478, Note_on_c, 0, 69, 0
2, 224486, Note_on_c, 0, 69, 75
2, 224639, Note_on_c, 0, 45, 0
2, 224640, Note_on_c, 0, 64, 0
2, 224640, Note_on_c, 0, 57, 0
2, 224641, Note_on_c, 0, 76, 0
2, 224641, Control_c, 0, 64, 0
2, 224641, Note_on_c, 0, 61, 0
2, 224641, Note_on_c, 0, 59, 0
2, 224641, Note_on_c, 0, 71, 0
2, 224642, Note_on_c, 0, 67, 0
2, 224647, Note_on_c, 0, 40, 0
2, 224647, Note_on_c, 0, 86, 0
2, 224655, Note_on_c, 0, 33, 0
2, 224655, Note_on_c, 0, 52, 0
2, 224655, Note_on_c, 0, 69, 0
2, 224655, Note_on_c, 0, 73, 0
2, 224663, Note_on_c, 0, 85, 0
2, 224663, Note_on_c, 0, 93, 110
2, 224668, Note_on_c, 0, 85, 96
2, 224668, Note_on_c, 0, 37, 102
2, 224669, Note_on_c, 0, 49, 94
2, 224670, Note_on_c, 0, 81, 98
2, 224670, Note_on_c, 0, 88, 0
2, 224676, Note_on_c, 0, 88, 70
2, 224693, Control_c, 0, 64, 127
2, 224922, Note_on_c, 0, 64, 100
2, 224929, Note_on_c, 0, 52, 92
2, 224935, Note_on_c, 0, 59, 77
2, 224937, Note_on_c, 0, 61, 78
2, 225034, Note_on_c, 0, 57, 82
2, 225169, Note_on_c, 0, 64, 0
2, 225177, Note_on_c, 0, 52, 0
2, 225181, Note_on_c, 0, 76, 108
2, 225181, Note_on_c, 0, 64, 96
2, 225188, Note_on_c, 0, 52, 79
2, 225198, Note_on_c, 0, 71, 77
2, 225200, Note_on_c, 0, 57, 0
2, 225205, Note_on_c, 0, 73, 72
2, 225211, Note_on_c, 0, 57, 68
2, 225277, Note_on_c, 0, 61, 0
2, 225287, Note_on_c, 0, 61, 74
2, 225423, Note_on_c, 0, 93, 0
2, 225431, Note_on_c, 0, 73, 0
2, 225431, Note_on_c, 0, 76, 0
2, 225431, Note_on_c, 0, 88, 0
2, 225433, Note_on_c, 0, 93, 110
2, 225438, Note_on_c, 0, 88, 94
2, 225438, Note_on_c, 0, 64, 0
2, 225438, Note_on_c, 0, 85, 0
2, 225441, Note_on_c, 0, 76, 96
2, 225442, Note_on_c, 0, 73, 95
2, 225443, Note_on_c, 0, 69, 69
2, 225444, Note_on_c, 0, 85, 96
2, 225447, Note_on_c, 0, 64, 73
2, 225523, Note_on_c, 0, 69, 0
2, 225528, Note_on_c, 0, 69, 74
2, 225534, Note_on_c, 0, 81, 0
2, 225650, Note_on_c, 0, 69, 0
2, 225651, Note_on_c, 0, 52, 0
2, 225651, Note_on_c, 0, 71, 0
2, 225651, Note_on_c, 0, 59, 0
2, 225651, Note_on_c, 0, 93, 0
2, 225651, Note_on_c, 0, 49, 0
2, 225651, Note_on_c, 0, 57, 0
2, 225652, Note_on_c, 0, 85, 0
2, 225652, Note_on_c, 0, 64, 0
2, 225652, Note_on_c, 0, 88, 0
2, 225653, Note_on_c, 0, 76, 0
2, 225657, Control_c, 0, 64, 0
2, 225661, Note_on_c, 0, 37, 0
2, 225669, Note_on_c, 0, 61, 0
2, 225669, Note_on_c, 0, 73, 0
2, 225689, Note_on_c, 0, 92, 107
2, 225695, Note_on_c, 0, 80, 103
2, 225695, Note_on_c, 0, 86, 87
2, 225696, Note_on_c, 0, 50, 98
2, 225696, Note_on_c, 0, 38, 93
2, 225697, Note_on_c, 0, 88, 79
2, 225715, Control_c, 0, 64, 127
2, 225953, Note_on_c, 0, 66, 96
2, 225954, Note_on_c, 0, 54, 94
2, 225955, Note_on_c, 0, 62, 83
2, 225956, Note_on_c, 0, 64, 91
2, 225957, Note_on_c, 0, 57, 78
2, 226060, Note_on_c, 0, 57, 0
2, 226066, Note_on_c, 0, 57, 80
2, 226206, Note_on_c, 0, 66, 0
2, 226209, Note_on_c, 0, 75, 98
2, 226210, Note_on_c, 0, 73, 93
2, 226211, Note_on_c, 0, 78, 91
2, 226212, Note_on_c, 0, 85, 83
2, 226212, Note_on_c, 0, 66, 101
2, 226314, Note_on_c, 0, 62, 0
2, 226320, Note_on_c, 0, 69, 79
2, 226321, Note_on_c, 0, 62, 83
2, 226465, Note_on_c, 0, 90, 107
2, 226467, Note_on_c, 0, 78, 0
2, 226467, Note_on_c, 0, 86, 0
2, 226471, Note_on_c, 0, 86, 90
2, 226472, Note_on_c, 0, 78, 94
2, 226478, Note_on_c, 0, 74, 88
2, 226552, Note_on_c, 0, 69, 0
2, 226558, Note_on_c, 0, 69, 82
2, 226699, Note_on_c, 0, 69, 0
2, 226699, Note_on_c, 0, 38, 0
2, 226699, Note_on_c, 0, 75, 0
2, 226699, Note_on_c, 0, 64, 0
2, 226699, Note_on_c, 0, 86, 0
2, 226699, Note_on_c, 0, 62, 0
2, 226699, Note_on_c, 0, 50, 0
2, 226700, Note_on_c, 0, 54, 0
2, 226700, Note_on_c, 0, 66, 0
2, 226700, Note_on_c, 0, 57, 0
2, 226700, Note_on_c, 0, 78, 0
2, 226704, Control_c, 0, 64, 0
2, 226713, Note_on_c, 0, 73, 0
2, 226713, Note_on_c, 0, 74, 0
2, 226713, Note_on_c, 0, 85, 0
2, 226713, Note_on_c, 0, 90, 0
2, 226721, Note_on_c, 0, 80, 0
2, 226721, Note_on_c, 0, 88, 0
2, 226721, Note_on_c, 0, 92, 0
2, 226725, Note_on_c, 0, 92, 109
2, 226730, Note_on_c, 0, 80, 107
2, 226731, Note_on_c, 0, 40, 96
2, 226732, Note_on_c, 0, 88, 96
2, 226732, Note_on_c, 0, 52, 100
2, 226737, Note_on_c, 0, 83, 90
2, 226748, Note_on_c, 0, 90, 77
2, 226759, Control_c, 0, 64, 127
2, 226859, Note_on_c, 0, 47, 63
2, 226974, Note_on_c, 0, 52, 0
2, 226984, Note_on_c, 0, 52, 91
2, 226988, Note_on_c, 0, 64, 96
2, 226990, Note_on_c, 0, 68, 104
2, 226992, Note_on_c, 0, 56, 79
2, 227088, Note_on_c, 0, 59, 73
2, 227225, Note_on_c, 0, 64, 0
2, 227225, Note_on_c, 0, 68, 0
2, 227225, Note_on_c, 0, 83, 0
2, 227226, Note_on_c, 0, 59, 0
2, 227226, Control_c, 0, 64, 0
2, 227228, Note_on_c, 0, 52, 0
2, 227228, Note_on_c, 0, 80, 0
2, 227228, Note_on_c, 0, 92, 0
2, 227228, Note_on_c, 0, 88, 0
2, 227230, Note_on_c, 0, 47, 0
2, 227235, Note_on_c, 0, 90, 0
2, 227238, Note_on_c, 0, 80, 101
2, 227239, Note_on_c, 0, 41, 95
2, 227239, Note_on_c, 0, 53, 98
2, 227239, Note_on_c, 0, 92, 90
2, 227239, Note_on_c, 0, 77, 90
2, 227240, Note_on_c, 0, 89, 93
2, 227243, Note_on_c, 0, 40, 0
2, 227251, Note_on_c, 0, 56, 0
2, 227266, Control_c, 0, 64, 127
2, 227274, Note_on_c, 0, 92, 0
2, 227354, Note_on_c, 0, 71, 83
2, 227357, Note_on_c, 0, 61, 75
2, 227359, Note_on_c, 0, 49, 71
2, 227487, Note_on_c, 0, 56, 85
2, 227489, Note_on_c, 0, 65, 82
2, 227492, Note_on_c, 0, 95, 91
2, 227499, Note_on_c, 0, 96, 93
2, 227501, Note_on_c, 0, 92, 79
2, 227517, Note_on_c, 0, 93, 72
2, 227709, Note_on_c, 0, 95, 0
2, 227710, Note_on_c, 0, 89, 0
2, 227710, Note_on_c, 0, 96, 0
2, 227710, Control_c, 0, 64, 0
2, 227710, Note_on_c, 0, 41, 0
2, 227710, Note_on_c, 0, 53, 0
2, 227710, Note_on_c, 0, 92, 0
2, 227712, Note_on_c, 0, 77, 0
2, 227712, Note_on_c, 0, 71, 0
2, 227712, Note_on_c, 0, 56, 0
2, 227712, Note_on_c, 0, 80, 0
2, 227713, Note_on_c, 0, 49, 0
2, 227719, Note_on_c, 0, 61, 0
2, 227719, Note_on_c, 0, 65, 0
2, 227742, Note_on_c, 0, 93, 0
2, 227746, Note_on_c, 0, 93, 109
2, 227747, Note_on_c, 0, 52, 96
2, 227747, Note_on_c, 0, 85, 104
2, 227749, Note_on_c, 0, 49, 85
2, 227750, Note_on_c, 0, 81, 101
2, 227765, Control_c, 0, 64, 127
2, 228003, Note_on_c, 0, 52, 0
2, 228013, Note_on_c, 0, 69, 89
2, 228014, Note_on_c, 0, 64, 91
2, 228015, Note_on_c, 0, 52, 93
2, 228015, Note_on_c, 0, 61, 90
2, 228137, Note_on_c, 0, 57, 75
2, 228249, Note_on_c, 0, 93, 0
2, 228257, Note_on_c, 0, 64, 0
2, 228257, Note_on_c, 0, 81, 0
2, 228261, Note_on_c, 0, 93, 95
2, 228264, Note_on_c, 0, 85, 0
2, 228265, Note_on_c, 0, 81, 100
2, 228268, Note_on_c, 0, 64, 97
2, 228269, Note_on_c, 0, 76, 95
2, 228269, Note_on_c, 0, 88, 82
2, 228270, Note_on_c, 0, 73, 93
2, 228275, Note_on_c, 0, 85, 81
2, 228364, Note_on_c, 0, 69, 0
2, 228372, Note_on_c, 0, 61, 0
2, 228375, Note_on_c, 0, 69, 75
2, 228376, Note_on_c, 0, 61, 77
2, 228518, Note_on_c, 0, 93, 0
2, 228526, Note_on_c, 0, 64, 0
2, 228526, Note_on_c, 0, 73, 0
2, 228526, Note_on_c, 0, 76, 0
2, 228526, Note_on_c, 0, 85, 0
2, 228526, Note_on_c, 0, 88, 0
2, 228528, Note_on_c, 0, 81, 0
2, 228529, Note_on_c, 0, 93, 105
2, 228530, Note_on_c, 0, 76, 92
2, 228531, Note_on_c, 0, 64, 71
2, 228531, Note_on_c, 0, 88, 86
2, 228533, Note_on_c, 0, 85, 98
2, 228535, Note_on_c, 0, 73, 92
2, 228595, Note_on_c, 0, 69, 0
2, 228606, Note_on_c, 0, 69, 70
2, 228743, Note_on_c, 0, 93, 0
2, 228743, Note_on_c, 0, 69, 0
2, 228744, Note_on_c, 0, 73, 0
2, 228744, Note_on_c, 0, 49, 0
2, 228744, Note_on_c, 0, 57, 0
2, 228744, Note_on_c, 0, 88, 0
2, 228744, Note_on_c, 0, 61, 0
2, 228744, Note_on_c, 0, 64, 0
2, 228744, Note_on_c, 0, 76, 0
2, 228749, Control_c, 0, 64, 0
2, 228771, Note_on_c, 0, 85, 0
2, 228779, Note_on_c, 0, 52, 0
2, 228782, Note_on_c, 0, 85, 109
2, 228783, Note_on_c, 0, 97, 107
2, 228784, Note_on_c, 0, 40, 100
2, 228785, Note_on_c, 0, 52, 105
2, 228786, Note_on_c, 0, 88, 96
2, 228790, Note_on_c, 0, 92, 96
2, 228802, Control_c, 0, 64, 127
2, 229032, Note_on_c, 0, 52, 0
2, 229042, Note_on_c, 0, 68, 98
2, 229043, Note_on_c, 0, 52, 103
2, 229043, Note_on_c, 0, 73, 84
2, 229043, Note_on_c, 0, 64, 95
2, 229045, Note_on_c, 0, 76, 76
2, 229046, Note_on_c, 0, 61, 85
2, 229056, Note_on_c, 0, 76, 0
2, 229151, Note_on_c, 0, 49, 60
2, 229286, Note_on_c, 0, 52, 0
2, 229286, Note_on_c, 0, 64, 0
2, 229290, Note_on_c, 0, 80, 100
2, 229291, Note_on_c, 0, 64, 96
2, 229294, Note_on_c, 0, 68, 0
2, 229296, Note_on_c, 0, 52, 84
2, 229301, Note_on_c, 0, 73, 0
2, 229303, Note_on_c, 0, 68, 85
2, 229306, Note_on_c, 0, 73, 69
2, 229306, Note_on_c, 0, 76, 74
2, 229386, Note_on_c, 0, 61, 0
2, 229395, Note_on_c, 0, 61, 82
2, 229532, Note_on_c, 0, 92, 0
2, 229532, Note_on_c, 0, 97, 0
2, 229539, Note_on_c, 0, 76, 0
2, 229540, Note_on_c, 0, 97, 101
2, 229541, Note_on_c, 0, 92, 103
2, 229543, Note_on_c, 0, 88, 0
2, 229544, Note_on_c, 0, 76, 99
2, 229545, Note_on_c, 0, 80, 0
2, 229547, Note_on_c, 0, 73, 0
2, 229552, Note_on_c, 0, 73, 93
2, 229608, Note_on_c, 0, 68, 0
2, 229618, Note_on_c, 0, 68, 63
2, 229749, Note_on_c, 0, 92, 0
2, 229750, Note_on_c, 0, 40, 0
2, 229750, Note_on_c, 0, 97, 0
2, 229750, Note_on_c, 0, 49, 0
2, 229750, Note_on_c, 0, 68, 0
2, 229750, Note_on_c, 0, 73, 0
2, 229750, Note_on_c, 0, 52, 0
2, 229750, Note_on_c, 0, 85, 0
2, 229750, Note_on_c, 0, 76, 0
2, 229751, Note_on_c, 0, 64, 0
2, 229751, Control_c, 0, 64, 0
2, 229770, Note_on_c, 0, 61, 0
2, 229804, Note_on_c, 0, 102, 111
2, 229805, Note_on_c, 0, 90, 101
2, 229806, Note_on_c, 0, 47, 101
2, 229807, Note_on_c, 0, 35, 94
2, 229824, Control_c, 0, 64, 127
2, 229838, Note_on_c, 0, 100, 61
2, 229849, Note_on_c, 0, 98, 55
2, 229916, Note_on_c, 0, 90, 0
2, 229918, Note_on_c, 0, 93, 82
2, 229925, Note_on_c, 0, 90, 79
2, 230027, Note_on_c, 0, 85, 76
2, 230055, Note_on_c, 0, 86, 72
2, 230075, Note_on_c, 0, 81, 69
2, 230136, Note_on_c, 0, 78, 81
2, 230177, Note_on_c, 0, 90, 0
2, 230181, Note_on_c, 0, 90, 106
2, 230188, Note_on_c, 0, 54, 86
2, 230203, Note_on_c, 0, 57, 76
2, 230215, Note_on_c, 0, 86, 0
2, 230226, Note_on_c, 0, 86, 80
2, 230292, Note_on_c, 0, 81, 0
2, 230296, Note_on_c, 0, 81, 82
2, 230315, Note_on_c, 0, 78, 0
2, 230322, Note_on_c, 0, 78, 89
2, 230384, Note_on_c, 0, 81, 0
2, 230388, Note_on_c, 0, 81, 67
2, 230422, Note_on_c, 0, 74, 84
2, 230446, Note_on_c, 0, 47, 0
2, 230452, Note_on_c, 0, 47, 76
2, 230472, Note_on_c, 0, 69, 58
2, 230553, Note_on_c, 0, 54, 0
2, 230553, Note_on_c, 0, 57, 0
2, 230553, Note_on_c, 0, 69, 0
2, 230553, Note_on_c, 0, 78, 0
2, 230561, Note_on_c, 0, 78, 100
2, 230564, Note_on_c, 0, 69, 75
2, 230565, Note_on_c, 0, 57, 80
2, 230565, Note_on_c, 0, 54, 86
2, 230607, Note_on_c, 0, 74, 0
2, 230613, Note_on_c, 0, 74, 83
2, 230676, Note_on_c, 0, 69, 0
2, 230684, Note_on_c, 0, 69, 79
2, 230705, Note_on_c, 0, 66, 76
2, 230784, Note_on_c, 0, 100, 0
2, 230787, Note_on_c, 0, 98, 0
2, 230788, Note_on_c, 0, 93, 0
2, 230789, Note_on_c, 0, 47, 0
2, 230789, Note_on_c, 0, 90, 0
2, 230791, Note_on_c, 0, 54, 0
2, 230791, Note_on_c, 0, 66, 0
2, 230792, Note_on_c, 0, 85, 0
2, 230794, Control_c, 0, 64, 0
2, 230799, Note_on_c, 0, 102, 0
2, 230807, Note_on_c, 0, 35, 0
2, 230807, Note_on_c, 0, 57, 0
2, 230807, Note_on_c, 0, 86, 0
2, 230814, Note_on_c, 0, 69, 0
2, 230814, Note_on_c, 0, 74, 0
2, 230814, Note_on_c, 0, 78, 0
2, 230814, Note_on_c, 0, 81, 0
2, 230819, Note_on_c, 0, 81, 96
2, 230821, Note_on_c, 0, 69, 91
2, 230823, Note_on_c, 0, 40, 104
2, 230824, Note_on_c, 0, 78, 99
2, 230824, Note_on_c, 0, 52, 108
2, 230825, Note_on_c, 0, 74, 94
2, 230853, Control_c, 0, 64, 127
2, 231037, Note_on_c, 0, 52, 0
2, 231043, Note_on_c, 0, 62, 82
2, 231048, Note_on_c, 0, 52, 69
2, 231085, Note_on_c, 0, 64, 72
2, 231091, Note_on_c, 0, 52, 0
2, 231093, Note_on_c, 0, 66, 81
2, 231095, Note_on_c, 0, 52, 76
2, 231098, Note_on_c, 0, 54, 74
2, 231152, Note_on_c, 0, 69, 0
2, 231158, Note_on_c, 0, 69, 83
2, 231206, Note_on_c, 0, 40, 0
2, 231210, Note_on_c, 0, 40, 85
2, 231211, Note_on_c, 0, 28, 85
2, 231224, Note_on_c, 0, 62, 0
2, 231224, Note_on_c, 0, 66, 0
2, 231229, Note_on_c, 0, 74, 0
2, 231234, Note_on_c, 0, 74, 77
2, 231313, Note_on_c, 0, 52, 0
2, 231314, Note_on_c, 0, 64, 0
2, 231314, Note_on_c, 0, 74, 0
2, 231314, Note_on_c, 0, 81, 0
2, 231315, Note_on_c, 0, 40, 0
2, 231315, Note_on_c, 0, 78, 0
2, 231315, Control_c, 0, 64, 0
2, 231321, Note_on_c, 0, 28, 0
2, 231321, Note_on_c, 0, 54, 0
2, 231329, Note_on_c, 0, 69, 0
2, 231350, Note_on_c, 0, 80, 96
2, 231355, Note_on_c, 0, 76, 90
2, 231356, Note_on_c, 0, 68, 101
2, 231357, Note_on_c, 0, 71, 85
2, 231357, Note_on_c, 0, 28, 89
2, 231360, Note_on_c, 0, 40, 103
2, 231362, Note_on_c, 0, 64, 89
2, 231390, Control_c, 0, 64, 127
2, 231528, Note_on_c, 0, 40, 0
2, 231528, Note_on_c, 0, 68, 0
2, 231533, Note_on_c, 0, 59, 76
2, 231534, Note_on_c, 0, 47, 61
2, 231535, Note_on_c, 0, 40, 68
2, 231539, Note_on_c, 0, 68, 72
2, 231559, Note_on_c, 0, 64, 0
2, 231568, Note_on_c, 0, 64, 49
2, 231615, Note_on_c, 0, 66, 88
2, 231621, Note_on_c, 0, 40, 0
2, 231623, Note_on_c, 0, 33, 76
2, 231625, Note_on_c, 0, 40, 79
2, 231705, Note_on_c, 0, 71, 0
2, 231709, Note_on_c, 0, 71, 82
2, 231720, Note_on_c, 0, 40, 0
2, 231720, Note_on_c, 0, 64, 0
2, 231725, Note_on_c, 0, 64, 73
2, 231731, Note_on_c, 0, 40, 84
2, 231764, Note_on_c, 0, 75, 86
2, 231805, Note_on_c, 0, 76, 0
2, 231811, Note_on_c, 0, 76, 77
2, 231869, Note_on_c, 0, 66, 0
2, 231870, Note_on_c, 0, 47, 0
2, 231870, Note_on_c, 0, 80, 0
2, 231870, Note_on_c, 0, 75, 0
2, 231870, Note_on_c, 0, 76, 0
2, 231877, Control_c, 0, 64, 0
2, 231882, Note_on_c, 0, 28, 0
2, 231882, Note_on_c, 0, 59, 0
2, 231882, Note_on_c, 0, 68, 0
2, 231882, Note_on_c, 0, 71, 0
2, 231889, Note_on_c, 0, 64, 0
2, 231897, Note_on_c, 0, 33, 0
2, 231904, Note_on_c, 0, 81, 105
2, 231905, Note_on_c, 0, 40, 0
2, 231908, Note_on_c, 0, 33, 98
2, 231908, Note_on_c, 0, 45, 102
2, 231909, Note_on_c, 0, 40, 87
2, 231909, Note_on_c, 0, 69, 101
2, 231909, Note_on_c, 0, 76, 94
2, 231912, Note_on_c, 0, 73, 99
2, 231951, Control_c, 0, 64, 127
2, 232158, Note_on_c, 0, 45, 0
2, 232168, Note_on_c, 0, 45, 76
2, 232189, Note_on_c, 0, 40, 0
2, 232194, Note_on_c, 0, 52, 73
2, 232199, Note_on_c, 0, 40, 64
2, 232281, Note_on_c, 0, 52, 0
2, 232289, Note_on_c, 0, 40, 0
2, 232290, Note_on_c, 0, 52, 86
2, 232297, Note_on_c, 0, 40, 81
2, 232321, Note_on_c, 0, 59, 85
2, 232421, Note_on_c, 0, 61, 82
2, 232421, Note_on_c, 0, 49, 79
2, 232450, Note_on_c, 0, 45, 0
2, 232450, Note_on_c, 0, 52, 0
2, 232455, Note_on_c, 0, 64, 98
2, 232460, Note_on_c, 0, 45, 81
2, 232461, Note_on_c, 0, 52, 76
2, 232542, Note_on_c, 0, 45, 0
2, 232551, Note_on_c, 0, 45, 87
2, 232554, Note_on_c, 0, 57, 81
2, 232673, Note_on_c, 0, 52, 0
2, 232679, Note_on_c, 0, 52, 95
2, 232727, Note_on_c, 0, 64, 0
2, 232737, Note_on_c, 0, 64, 81
2, 232796, Note_on_c, 0, 57, 0
2, 232796, Note_on_c, 0, 61, 0
2, 232800, Note_on_c, 0, 61, 71
2, 232801, Note_on_c, 0, 57, 84
2, 232850, Note_on_c, 0, 71, 96
2, 232934, Note_on_c, 0, 61, 0
2, 232934, Note_on_c, 0, 69, 0
2, 232943, Note_on_c, 0, 69, 98
2, 232945, Note_on_c, 0, 61, 98
2, 232972, Note_on_c, 0, 71, 0
2, 232972, Note_on_c, 0, 73, 0
2, 232972, Note_on_c, 0, 76, 0
2, 232979, Note_on_c, 0, 76, 105
2, 232982, Note_on_c, 0, 71, 87
2, 232983, Note_on_c, 0, 73, 96
2, 233057, Note_on_c, 0, 57, 0
2, 233061, Note_on_c, 0, 57, 87
2, 233095, Note_on_c, 0, 69, 0
2, 233099, Note_on_c, 0, 69, 83
2, 233195, Note_on_c, 0, 64, 0
2, 233204, Note_on_c, 0, 64, 75
2, 233207, Note_on_c, 0, 62, 81
2, 233241, Note_on_c, 0, 76, 0
2, 233247, Note_on_c, 0, 76, 93
2, 233303, Note_on_c, 0, 69, 0
2, 233309, Note_on_c, 0, 69, 100
2, 233357, Note_on_c, 0, 83, 104
2, 233448, Note_on_c, 0, 69, 0
2, 233448, Note_on_c, 0, 73, 0
2, 233448, Note_on_c, 0, 81, 0
2, 233453, Note_on_c, 0, 81, 97
2, 233454, Note_on_c, 0, 69, 84
2, 233459, Note_on_c, 0, 73, 101
2, 233486, Note_on_c, 0, 88, 106
2, 233486, Note_on_c, 0, 85, 99
2, 233487, Note_on_c, 0, 76, 0
2, 233495, Note_on_c, 0, 83, 0
2, 233498, Note_on_c, 0, 76, 90
2, 233500, Note_on_c, 0, 83, 78
2, 233564, Note_on_c, 0, 69, 0
2, 233570, Note_on_c, 0, 69, 98
2, 233587, Note_on_c, 0, 61, 0
2, 233595, Note_on_c, 0, 61, 62
2, 233602, Note_on_c, 0, 81, 0
2, 233612, Note_on_c, 0, 81, 89
2, 233702, Note_on_c, 0, 76, 0
2, 233706, Note_on_c, 0, 76, 94
2, 233748, Note_on_c, 0, 88, 0
2, 233756, Note_on_c, 0, 71, 0
2, 233759, Note_on_c, 0, 88, 85
2, 233765, Note_on_c, 0, 71, 66
2, 233817, Note_on_c, 0, 69, 0
2, 233817, Note_on_c, 0, 81, 0
2, 233824, Note_on_c, 0, 69, 74
2, 233828, Note_on_c, 0, 81, 89
2, 233831, Note_on_c, 0, 93, 83
2, 233860, Note_on_c, 0, 95, 95
2, 233978, Note_on_c, 0, 61, 0
2, 233986, Note_on_c, 0, 69, 0
2, 233986, Note_on_c, 0, 73, 0
2, 233986, Note_on_c, 0, 76, 0
2, 233986, Note_on_c, 0, 81, 0
2, 233986, Note_on_c, 0, 88, 0
2, 233986, Note_on_c, 0, 93, 0
2, 233988, Note_on_c, 0, 100, 107
2, 233989, Note_on_c, 0, 61, 74
2, 233991, Note_on_c, 0, 81, 99
2, 233992, Note_on_c, 0, 93, 97
2, 233993, Note_on_c, 0, 88, 103
2, 233993, Note_on_c, 0, 76, 102
2, 233995, Note_on_c, 0, 73, 99
2, 233997, Note_on_c, 0, 69, 75
2, 233999, Note_on_c, 0, 97, 90
2, 235176, Note_on_c, 0, 64, 0
2, 235183, Note_on_c, 0, 64, 77
2, 235230, Note_on_c, 0, 69, 0
2, 235230, Note_on_c, 0, 73, 0
2, 235234, Note_on_c, 0, 69, 78
2, 235236, Note_on_c, 0, 73, 91
2, 235276, Note_on_c, 0, 71, 0
2, 235276, Note_on_c, 0, 76, 0
2, 235285, Note_on_c, 0, 71, 98
2, 235288, Note_on_c, 0, 76, 98
2, 235292, Note_on_c, 0, 69, 0
2, 235292, Note_on_c, 0, 81, 0
2, 235298, Note_on_c, 0, 81, 103
2, 235299, Note_on_c, 0, 69, 79
2, 236160, Note_on_c, 0, 33, 0
2, 236160, Note_on_c, 0, 40, 0
2, 236160, Note_on_c, 0, 45, 0
2, 236160, Note_on_c, 0, 49, 0
2, 236160, Note_on_c, 0, 52, 0
2, 236160, Note_on_c, 0, 57, 0
2, 236160, Note_on_c, 0, 59, 0
2, 236160, Note_on_c, 0, 61, 0
2, 236160, Note_on_c, 0, 62, 0
2, 236160, Note_on_c, 0, 83, 0
2, 236160, Note_on_c, 0, 85, 0
2, 236160, Note_on_c, 0, 88, 0
2, 236160, Note_on_c, 0, 93, 0
2, 236160, Note_on_c, 0, 95, 0
2, 236160, Note_on_c, 0, 97, 0
2, 236160, Note_on_c, 0, 100, 0
2, 236486, Note_on_c, 0, 33, 89
2, 236487, Note_on_c, 0, 40, 67
2, 236497, Note_on_c, 0, 40, 0
2, 236516, Control_c, 0, 64, 0
2, 236551, Control_c, 0, 64, 127
2, 236709, Note_on_c, 0, 45, 60
2, 236720, Note_on_c, 0, 45, 0
2, 236731, Note_on_c, 0, 57, 40
2, 236736, Note_on_c, 0, 57, 0
2, 236815, Note_on_c, 0, 45, 81
2, 236890, Note_on_c, 0, 52, 84
2, 236958, Note_on_c, 0, 57, 72
2, 237031, Note_on_c, 0, 59, 85
2, 237130, Note_on_c, 0, 61, 100
2, 239792, Note_on_c, 0, 64, 0
2, 239846, Note_on_c, 0, 73, 0
2, 239892, Note_on_c, 0, 71, 0
2, 239892, Note_on_c, 0, 76, 0
2, 239907, Note_on_c, 0, 69, 0
2, 239907, Note_on_c, 0, 81, 0
2, 240000, Note_on_c, 0, 33, 0
2, 240000, Note_on_c, 0, 45, 0
2, 240000, Note_on_c, 0, 52, 0
2, 240000, Note_on_c, 0, 57, 0
2, 240000, Note_on_c, 0, 59, 0
2, 240000, Note_on_c, 0, 61, 0
2, 241826, Control_c, 0, 64, 0
2, 243256, Control_c, 0, 64, 127
2, 243840, Control_c, 0, 64, 0
2, 243841, End_track
0, 0, End_of_file
