0, 0, Header, 1, 2, 384
1, 0, Start_track
1, 0, Tempo, 500000
1, 0, Time_signature, 4, 2, 24, 8
1, 1, End_track
2, 0, Start_track
2, 1512, Control_c, 0, 64, 127
2, 1566, Note_on_c, 0, 78, 66
2, 1567, Note_on_c, 0, 40, 41
2, 1729, Note_on_c, 0, 47, 58
2, 1740, Note_on_c, 0, 71, 60
2, 1912, Note_on_c, 0, 78, 0
2, 1923, Note_on_c, 0, 78, 74
2, 1924, Note_on_c, 0, 59, 65
2, 2078, Note_on_c, 0, 54, 66
2, 2079, Note_on_c, 0, 76, 67
2, 2250, Note_on_c, 0, 71, 0
2, 2257, Note_on_c, 0, 52, 61
2, 2260, Note_on_c, 0, 71, 69
2, 2419, Note_on_c, 0, 78, 0
2, 2424, Note_on_c, 0, 78, 78
2, 2424, Note_on_c, 0, 64, 71
2, 2588, Note_on_c, 0, 59, 0
2, 2588, Note_on_c, 0, 76, 0
2, 2593, Note_on_c, 0, 59, 62
2, 2596, Note_on_c, 0, 76, 62
2, 2741, Note_on_c, 0, 54, 0
2, 2741, Note_on_c, 0, 71, 0
2, 2752, Note_on_c, 0, 54, 55
2, 2753, Note_on_c, 0, 71, 71
2, 2926, Note_on_c, 0, 71, 0
2, 2930, Note_on_c, 0, 83, 89
2, 2930, Note_on_c, 0, 71, 74
2, 3102, Note_on_c, 0, 71, 0
2, 3111, Note_on_c, 0, 71, 63
2, 3271, Note_on_c, 0, 78, 0
2, 3281, Note_on_c, 0, 78, 77
2, 3448, Note_on_c, 0, 76, 0
2, 3456, Note_on_c, 0, 76, 55
2, 3632, Note_on_c, 0, 71, 0
2, 3643, Note_on_c, 0, 71, 54
2, 3778, Note_on_c, 0, 78, 0
2, 3789, Note_on_c, 0, 78, 73
2, 3962, Note_on_c, 0, 76, 0
2, 3969, Note_on_c, 0, 76, 63
2, 4131, Note_on_c, 0, 71, 0
2, 4141, Note_on_c, 0, 71, 67
2, 4294, Note_on_c, 0, 47, 0
2, 4295, Note_on_c, 0, 40, 0
2, 4295, Note_on_c, 0, 64, 0
2, 4295, Note_on_c, 0, 52, 0
2, 4295, Note_on_c, 0, 54, 0
2, 4295, Control_c, 0, 64, 0
2, 4295, Note_on_c, 0, 71, 0
2, 4295, Note_on_c, 0, 59, 0
2, 4295, Note_on_c, 0, 76, 0
2, 4296, Note_on_c, 0, 83, 0
2, 4308, Note_on_c, 0, 78, 0
2, 4310, Note_on_c, 0, 44, 64
2, 4318, Note_on_c, 0, 78, 68
2, 4400, Control_c, 0, 64, 127
2, 4486, Note_on_c, 0, 71, 61
2, 4486, Note_on_c, 0, 52, 62
2, 4646, Note_on_c, 0, 78, 0
2, 4650, Note_on_c, 0, 78, 73
2, 4654, Note_on_c, 0, 59, 70
2, 4808, Note_on_c, 0, 76, 72
2, 4833, Note_on_c, 0, 54, 62
2, 4968, Note_on_c, 0, 52, 0
2, 4968, Note_on_c, 0, 71, 0
2, 4980, Note_on_c, 0, 52, 63
2, 4980, Note_on_c, 0, 71, 73
2, 5153, Note_on_c, 0, 78, 0
2, 5158, Note_on_c, 0, 64, 72
2, 5163, Note_on_c, 0, 78, 85
2, 5314, Note_on_c, 0, 59, 0
2, 5322, Note_on_c, 0, 76, 0
2, 5325, Note_on_c, 0, 59, 69
2, 5326, Note_on_c, 0, 76, 73
2, 5468, Note_on_c, 0, 54, 0
2, 5475, Note_on_c, 0, 71, 0
2, 5478, Note_on_c, 0, 54, 69
2, 5480, Note_on_c, 0, 71, 71
2, 5667, Note_on_c, 0, 71, 0
2, 5672, Note_on_c, 0, 71, 82
2, 5673, Note_on_c, 0, 83, 90
2, 5859, Note_on_c, 0, 71, 0
2, 5864, Note_on_c, 0, 71, 66
2, 6013, Note_on_c, 0, 78, 0
2, 6021, Note_on_c, 0, 78, 78
2, 6197, Note_on_c, 0, 76, 0
2, 6202, Note_on_c, 0, 76, 55
2, 6359, Note_on_c, 0, 71, 0
2, 6368, Note_on_c, 0, 71, 63
2, 6535, Note_on_c, 0, 78, 0
2, 6540, Note_on_c, 0, 78, 73
2, 6704, Note_on_c, 0, 76, 0
2, 6713, Note_on_c, 0, 76, 67
2, 6873, Note_on_c, 0, 71, 0
2, 6879, Note_on_c, 0, 71, 65
2, 7050, Note_on_c, 0, 78, 0
2, 7058, Note_on_c, 0, 78, 78
2, 7062, Control_c, 0, 64, 0
2, 7069, Note_on_c, 0, 45, 63
2, 7069, Note_on_c, 0, 44, 0
2, 7069, Note_on_c, 0, 54, 0
2, 7069, Note_on_c, 0, 64, 0
2, 7070, Note_on_c, 0, 59, 0
2, 7070, Note_on_c, 0, 76, 0
2, 7070, Note_on_c, 0, 71, 0
2, 7070, Note_on_c, 0, 83, 0
2, 7088, Note_on_c, 0, 52, 0
2, 7165, Control_c, 0, 64, 127
2, 7228, Note_on_c, 0, 52, 63
2, 7231, Note_on_c, 0, 71, 62
2, 7380, Note_on_c, 0, 78, 0
2, 7388, Note_on_c, 0, 78, 79
2, 7406, Note_on_c, 0, 64, 66
2, 7552, Note_on_c, 0, 76, 68
2, 7554, Note_on_c, 0, 59, 56
2, 7718, Note_on_c, 0, 71, 0
2, 7726, Note_on_c, 0, 57, 63
2, 7727, Note_on_c, 0, 71, 71
2, 7895, Note_on_c, 0, 64, 0
2, 7895, Note_on_c, 0, 78, 0
2, 7902, Note_on_c, 0, 78, 90
2, 7905, Note_on_c, 0, 64, 66
2, 8064, Note_on_c, 0, 59, 0
2, 8064, Note_on_c, 0, 76, 0
2, 8073, Note_on_c, 0, 76, 78
2, 8075, Note_on_c, 0, 59, 66
2, 8225, Note_on_c, 0, 57, 0
2, 8233, Note_on_c, 0, 80, 91
2, 8235, Note_on_c, 0, 57, 66
2, 8388, Control_c, 0, 64, 0
2, 8388, Note_on_c, 0, 52, 0
2, 8389, Note_on_c, 0, 71, 0
2, 8389, Note_on_c, 0, 57, 0
2, 8389, Note_on_c, 0, 59, 0
2, 8389, Note_on_c, 0, 76, 0
2, 8389, Note_on_c, 0, 78, 0
2, 8390, Note_on_c, 0, 45, 0
2, 8401, Note_on_c, 0, 81, 87
2, 8404, Note_on_c, 0, 47, 64
2, 8409, Note_on_c, 0, 64, 0
2, 8451, Note_on_c, 0, 80, 0
2, 8486, Control_c, 0, 64, 127
2, 8575, Note_on_c, 0, 80, 91
2, 8575, Note_on_c, 0, 54, 58
2, 8732, Note_on_c, 0, 81, 0
2, 8737, Note_on_c, 0, 81, 89
2, 8740, Note_on_c, 0, 59, 60
2, 8743, Note_on_c, 0, 71, 76
2, 8747, Note_on_c, 0, 59, 0
2, 8911, Note_on_c, 0, 83, 88
2, 8912, Note_on_c, 0, 66, 74
2, 9077, Note_on_c, 0, 80, 0
2, 9082, Note_on_c, 0, 80, 89
2, 9084, Note_on_c, 0, 64, 71
2, 9238, Note_on_c, 0, 78, 91
2, 9269, Note_on_c, 0, 71, 0
2, 9274, Note_on_c, 0, 71, 70
2, 9412, Note_on_c, 0, 76, 84
2, 9431, Note_on_c, 0, 66, 0
2, 9439, Note_on_c, 0, 66, 64
2, 9576, Note_on_c, 0, 64, 0
2, 9582, Note_on_c, 0, 64, 73
2, 9583, Note_on_c, 0, 73, 79
2, 9756, Note_on_c, 0, 54, 0
2, 9756, Note_on_c, 0, 66, 0
2, 9756, Note_on_c, 0, 64, 0
2, 9756, Note_on_c, 0, 80, 0
2, 9756, Note_on_c, 0, 81, 0
2, 9756, Note_on_c, 0, 73, 0
2, 9756, Control_c, 0, 64, 0
2, 9757, Note_on_c, 0, 83, 0
2, 9757, Note_on_c, 0, 76, 0
2, 9757, Note_on_c, 0, 78, 0
2, 9761, Note_on_c, 0, 71, 0
2, 9766, Note_on_c, 0, 71, 88
2, 9768, Note_on_c, 0, 47, 0
2, 9779, Note_on_c, 0, 40, 59
2, 9884, Control_c, 0, 64, 127
2, 9934, Note_on_c, 0, 47, 58
2, 10100, Note_on_c, 0, 78, 75
2, 10118, Note_on_c, 0, 59, 63
2, 10264, Note_on_c, 0, 76, 63
2, 10275, Note_on_c, 0, 54, 55
2, 10437, Note_on_c, 0, 71, 0
2, 10441, Note_on_c, 0, 52, 57
2, 10447, Note_on_c, 0, 71, 61
2, 10606, Note_on_c, 0, 78, 0
2, 10611, Note_on_c, 0, 64, 66
2, 10612, Note_on_c, 0, 78, 78
2, 10775, Note_on_c, 0, 59, 0
2, 10775, Note_on_c, 0, 76, 0
2, 10779, Note_on_c, 0, 59, 64
2, 10779, Note_on_c, 0, 76, 62
2, 10944, Note_on_c, 0, 54, 0
2, 10944, Note_on_c, 0, 71, 0
2, 10948, Note_on_c, 0, 54, 42
2, 10949, Note_on_c, 0, 71, 54
2, 11128, Note_on_c, 0, 71, 0
2, 11133, Note_on_c, 0, 83, 82
2, 11135, Note_on_c, 0, 71, 75
2, 11312, Note_on_c, 0, 71, 0
2, 11322, Note_on_c, 0, 71, 64
2, 11466, Note_on_c, 0, 78, 0
2, 11477, Note_on_c, 0, 78, 74
2, 11650, Note_on_c, 0, 76, 0
2, 11657, Note_on_c, 0, 76, 52
2, 11819, Note_on_c, 0, 71, 0
2, 11830, Note_on_c, 0, 71, 53
2, 11980, Note_on_c, 0, 78, 0
2, 11991, Note_on_c, 0, 78, 70
2, 12165, Note_on_c, 0, 76, 0
2, 12170, Note_on_c, 0, 76, 52
2, 12334, Note_on_c, 0, 71, 0
2, 12340, Note_on_c, 0, 71, 54
2, 12503, Note_on_c, 0, 52, 0
2, 12503, Note_on_c, 0, 78, 0
2, 12505, Note_on_c, 0, 64, 0
2, 12505, Note_on_c, 0, 40, 0
2, 12505, Note_on_c, 0, 47, 0
2, 12506, Note_on_c, 0, 59, 0
2, 12506, Note_on_c, 0, 54, 0
2, 12506, Note_on_c, 0, 71, 0
2, 12506, Note_on_c, 0, 83, 0
2, 12506, Note_on_c, 0, 76, 0
2, 12507, Note_on_c, 0, 52, 71
2, 12508, Control_c, 0, 64, 0
2, 12512, Note_on_c, 0, 78, 69
2, 12648, Control_c, 0, 64, 127
2, 12677, Note_on_c, 0, 59, 73
2, 12681, Note_on_c, 0, 71, 63
2, 12825, Note_on_c, 0, 78, 0
2, 12836, Note_on_c, 0, 78, 81
2, 12837, Note_on_c, 0, 66, 81
2, 12994, Note_on_c, 0, 59, 0
2, 13004, Note_on_c, 0, 59, 67
2, 13014, Note_on_c, 0, 76, 57
2, 13171, Note_on_c, 0, 66, 0
2, 13178, Note_on_c, 0, 71, 0
2, 13180, Note_on_c, 0, 66, 81
2, 13182, Note_on_c, 0, 71, 61
2, 13332, Note_on_c, 0, 78, 0
2, 13334, Note_on_c, 0, 64, 81
2, 13341, Note_on_c, 0, 78, 79
2, 13493, Note_on_c, 0, 59, 0
2, 13503, Note_on_c, 0, 59, 74
2, 13524, Note_on_c, 0, 76, 0
2, 13531, Note_on_c, 0, 76, 35
2, 13662, Note_on_c, 0, 64, 0
2, 13670, Note_on_c, 0, 71, 0
2, 13673, Note_on_c, 0, 64, 79
2, 13681, Note_on_c, 0, 71, 64
2, 13816, Note_on_c, 0, 59, 0
2, 13816, Note_on_c, 0, 76, 0
2, 13816, Note_on_c, 0, 52, 0
2, 13817, Note_on_c, 0, 71, 0
2, 13817, Note_on_c, 0, 78, 0
2, 13818, Control_c, 0, 64, 0
2, 13824, Note_on_c, 0, 66, 0
2, 13835, Note_on_c, 0, 66, 84
2, 13852, Note_on_c, 0, 83, 69
2, 13923, Control_c, 0, 64, 127
2, 14010, Note_on_c, 0, 59, 66
2, 14012, Note_on_c, 0, 71, 56
2, 14169, Note_on_c, 0, 66, 0
2, 14175, Note_on_c, 0, 78, 78
2, 14176, Note_on_c, 0, 66, 75
2, 14343, Note_on_c, 0, 68, 84
2, 14345, Note_on_c, 0, 76, 66
2, 14507, Note_on_c, 0, 59, 0
2, 14507, Note_on_c, 0, 71, 0
2, 14517, Note_on_c, 0, 59, 73
2, 14518, Note_on_c, 0, 71, 62
2, 14668, Note_on_c, 0, 64, 0
2, 14674, Note_on_c, 0, 64, 84
2, 14684, Note_on_c, 0, 78, 0
2, 14692, Note_on_c, 0, 78, 77
2, 14837, Note_on_c, 0, 59, 0
2, 14848, Note_on_c, 0, 59, 66
2, 14860, Note_on_c, 0, 76, 0
2, 14865, Note_on_c, 0, 76, 51
2, 14995, Note_on_c, 0, 52, 65
2, 15029, Note_on_c, 0, 71, 0
2, 15033, Note_on_c, 0, 71, 58
2, 15156, Note_on_c, 0, 66, 0
2, 15156, Control_c, 0, 64, 0
2, 15157, Note_on_c, 0, 52, 0
2, 15157, Note_on_c, 0, 68, 0
2, 15157, Note_on_c, 0, 59, 0
2, 15157, Note_on_c, 0, 71, 0
2, 15158, Note_on_c, 0, 64, 0
2, 15158, Note_on_c, 0, 76, 0
2, 15159, Note_on_c, 0, 83, 0
2, 15182, Note_on_c, 0, 44, 70
2, 15183, Note_on_c, 0, 78, 0
2, 15188, Note_on_c, 0, 78, 74
2, 15275, Control_c, 0, 64, 127
2, 15335, Note_on_c, 0, 52, 68
2, 15375, Note_on_c, 0, 71, 59
2, 15513, Note_on_c, 0, 78, 0
2, 15519, Note_on_c, 0, 66, 78
2, 15523, Note_on_c, 0, 78, 81
2, 15677, Note_on_c, 0, 59, 73
2, 15697, Note_on_c, 0, 76, 57
2, 15851, Note_on_c, 0, 66, 0
2, 15851, Note_on_c, 0, 71, 0
2, 15855, Note_on_c, 0, 66, 88
2, 15862, Note_on_c, 0, 71, 66
2, 16012, Note_on_c, 0, 78, 0
2, 16022, Note_on_c, 0, 64, 76
2, 16024, Note_on_c, 0, 78, 82
2, 16181, Note_on_c, 0, 59, 0
2, 16181, Note_on_c, 0, 76, 0
2, 16186, Note_on_c, 0, 59, 71
2, 16192, Note_on_c, 0, 76, 63
2, 16350, Note_on_c, 0, 64, 0
2, 16350, Note_on_c, 0, 71, 0
2, 16358, Note_on_c, 0, 64, 75
2, 16361, Note_on_c, 0, 71, 69
2, 16504, Note_on_c, 0, 66, 0
2, 16514, Note_on_c, 0, 66, 86
2, 16524, Note_on_c, 0, 83, 79
2, 16688, Note_on_c, 0, 71, 0
2, 16696, Note_on_c, 0, 59, 0
2, 16697, Note_on_c, 0, 71, 63
2, 16702, Note_on_c, 0, 59, 72
2, 16842, Note_on_c, 0, 66, 0
2, 16842, Note_on_c, 0, 78, 0
2, 16848, Note_on_c, 0, 66, 85
2, 16853, Note_on_c, 0, 78, 79
2, 17018, Note_on_c, 0, 76, 0
2, 17021, Note_on_c, 0, 68, 91
2, 17023, Note_on_c, 0, 76, 72
2, 17187, Note_on_c, 0, 59, 0
2, 17195, Note_on_c, 0, 71, 0
2, 17199, Note_on_c, 0, 59, 76
2, 17200, Note_on_c, 0, 71, 68
2, 17280, Note_on_c, 0, 44, 0
2, 17364, Note_on_c, 0, 64, 0
2, 17372, Note_on_c, 0, 78, 0
2, 17375, Note_on_c, 0, 64, 81
2, 17378, Note_on_c, 0, 78, 81
2, 17518, Note_on_c, 0, 59, 0
2, 17529, Note_on_c, 0, 59, 73
2, 17541, Note_on_c, 0, 76, 0
2, 17545, Note_on_c, 0, 76, 51
2, 17679, Note_on_c, 0, 52, 0
2, 17686, Note_on_c, 0, 52, 62
2, 17710, Note_on_c, 0, 71, 0
2, 17715, Note_on_c, 0, 71, 55
2, 17839, Control_c, 0, 64, 0
2, 17839, Note_on_c, 0, 66, 0
2, 17840, Note_on_c, 0, 68, 0
2, 17840, Note_on_c, 0, 71, 0
2, 17842, Note_on_c, 0, 76, 0
2, 17842, Note_on_c, 0, 83, 0
2, 17856, Note_on_c, 0, 52, 0
2, 17856, Note_on_c, 0, 59, 0
2, 17863, Note_on_c, 0, 64, 0
2, 17871, Note_on_c, 0, 78, 0
2, 17874, Note_on_c, 0, 45, 69
2, 17876, Note_on_c, 0, 78, 74
2, 17955, Control_c, 0, 64, 127
2, 18030, Note_on_c, 0, 52, 72
2, 18056, Note_on_c, 0, 71, 60
2, 18193, Note_on_c, 0, 78, 0
2, 18195, Note_on_c, 0, 61, 81
2, 18198, Note_on_c, 0, 78, 76
2, 18359, Note_on_c, 0, 57, 63
2, 18384, Note_on_c, 0, 76, 50
2, 18539, Note_on_c, 0, 71, 0
2, 18548, Note_on_c, 0, 71, 65
2, 18716, Note_on_c, 0, 78, 0
2, 18719, Note_on_c, 0, 64, 86
2, 18720, Note_on_c, 0, 78, 77
2, 18869, Note_on_c, 0, 57, 0
2, 18878, Note_on_c, 0, 57, 72
2, 18885, Note_on_c, 0, 76, 0
2, 18893, Note_on_c, 0, 76, 64
2, 19042, Note_on_c, 0, 68, 84
2, 19046, Note_on_c, 0, 71, 0
2, 19056, Note_on_c, 0, 71, 78
2, 19218, Control_c, 0, 64, 0
2, 19219, Note_on_c, 0, 68, 0
2, 19219, Note_on_c, 0, 52, 0
2, 19219, Note_on_c, 0, 71, 0
2, 19219, Note_on_c, 0, 61, 0
2, 19219, Note_on_c, 0, 64, 0
2, 19219, Note_on_c, 0, 57, 0
2, 19219, Note_on_c, 0, 78, 0
2, 19220, Note_on_c, 0, 76, 0
2, 19220, Note_on_c, 0, 45, 0
2, 19227, Note_on_c, 0, 47, 68
2, 19227, Note_on_c, 0, 69, 89
2, 19315, Control_c, 0, 64, 127
2, 19394, Note_on_c, 0, 54, 66
2, 19395, Note_on_c, 0, 76, 67
2, 19545, Note_on_c, 0, 69, 0
2, 19552, Note_on_c, 0, 69, 88
2, 19586, Note_on_c, 0, 78, 72
2, 19718, Note_on_c, 0, 71, 96
2, 19740, Note_on_c, 0, 59, 82
2, 19875, Note_on_c, 0, 78, 0
2, 19886, Note_on_c, 0, 78, 79
2, 19886, Note_on_c, 0, 68, 77
2, 20050, Note_on_c, 0, 66, 78
2, 20052, Note_on_c, 0, 83, 83
2, 20213, Note_on_c, 0, 59, 0
2, 20213, Note_on_c, 0, 78, 0
2, 20216, Note_on_c, 0, 64, 79
2, 20222, Note_on_c, 0, 59, 73
2, 20223, Note_on_c, 0, 78, 75
2, 20382, Note_on_c, 0, 76, 0
2, 20386, Note_on_c, 0, 61, 73
2, 20387, Note_on_c, 0, 76, 75
2, 20534, Note_on_c, 0, 47, 0
2, 20534, Note_on_c, 0, 68, 0
2, 20534, Note_on_c, 0, 69, 0
2, 20535, Note_on_c, 0, 66, 0
2, 20535, Note_on_c, 0, 59, 0
2, 20535, Note_on_c, 0, 54, 0
2, 20535, Note_on_c, 0, 61, 0
2, 20536, Note_on_c, 0, 71, 0
2, 20536, Control_c, 0, 64, 0
2, 20537, Note_on_c, 0, 76, 0
2, 20537, Note_on_c, 0, 64, 0
2, 20537, Note_on_c, 0, 78, 0
2, 20539, Note_on_c, 0, 83, 0
2, 20578, Note_on_c, 0, 40, 60
2, 20578, Note_on_c, 0, 59, 89
2, 20659, Control_c, 0, 64, 127
2, 20705, Note_on_c, 0, 59, 0
2, 20739, Note_on_c, 0, 47, 60
2, 20905, Note_on_c, 0, 78, 75
2, 21076, Note_on_c, 0, 52, 65
2, 21077, Note_on_c, 0, 76, 59
2, 21256, Note_on_c, 0, 71, 66
2, 21427, Note_on_c, 0, 78, 0
2, 21431, Note_on_c, 0, 78, 70
2, 21431, Note_on_c, 0, 59, 65
2, 21596, Note_on_c, 0, 76, 0
2, 21599, Note_on_c, 0, 64, 60
2, 21607, Note_on_c, 0, 76, 59
2, 21757, Note_on_c, 0, 71, 0
2, 21767, Note_on_c, 0, 71, 67
2, 21767, Note_on_c, 0, 66, 61
2, 21941, Note_on_c, 0, 71, 0
2, 21950, Note_on_c, 0, 71, 70
2, 21951, Note_on_c, 0, 83, 79
2, 22126, Note_on_c, 0, 71, 0
2, 22130, Note_on_c, 0, 71, 58
2, 22295, Note_on_c, 0, 78, 0
2, 22304, Note_on_c, 0, 78, 78
2, 22448, Note_on_c, 0, 76, 0
2, 22459, Note_on_c, 0, 76, 59
2, 22632, Note_on_c, 0, 71, 0
2, 22642, Note_on_c, 0, 71, 60
2, 22794, Note_on_c, 0, 66, 0
2, 22804, Note_on_c, 0, 66, 51
2, 22970, Note_on_c, 0, 64, 0
2, 22977, Note_on_c, 0, 64, 53
2, 23147, Note_on_c, 0, 59, 0
2, 23154, Note_on_c, 0, 59, 63
2, 23294, Note_on_c, 0, 47, 0
2, 23295, Note_on_c, 0, 71, 0
2, 23296, Note_on_c, 0, 59, 0
2, 23296, Note_on_c, 0, 52, 0
2, 23296, Note_on_c, 0, 66, 0
2, 23296, Note_on_c, 0, 64, 0
2, 23296, Note_on_c, 0, 78, 0
2, 23296, Note_on_c, 0, 76, 0
2, 23297, Control_c, 0, 64, 0
2, 23297, Note_on_c, 0, 83, 0
2, 23308, Note_on_c, 0, 40, 0
2, 23319, Note_on_c, 0, 40, 57
2, 23400, Control_c, 0, 64, 127
2, 23481, Note_on_c, 0, 90, 77
2, 23482, Note_on_c, 0, 47, 52
2, 23483, Note_on_c, 0, 78, 74
2, 23493, Note_on_c, 0, 40, 0
2, 23646, Note_on_c, 0, 90, 0
2, 23653, Note_on_c, 0, 90, 81
2, 23654, Note_on_c, 0, 78, 0
2, 23658, Note_on_c, 0, 59, 65
2, 23659, Note_on_c, 0, 78, 73
2, 23808, Note_on_c, 0, 90, 0
2, 23813, Note_on_c, 0, 90, 87
2, 23815, Note_on_c, 0, 78, 0
2, 23817, Note_on_c, 0, 54, 65
2, 23819, Note_on_c, 0, 78, 66
2, 23984, Note_on_c, 0, 78, 0
2, 23984, Note_on_c, 0, 90, 0
2, 23985, Note_on_c, 0, 52, 63
2, 23988, Note_on_c, 0, 90, 90
2, 23990, Note_on_c, 0, 78, 82
2, 24159, Note_on_c, 0, 88, 77
2, 24161, Note_on_c, 0, 52, 0
2, 24165, Note_on_c, 0, 64, 70
2, 24165, Note_on_c, 0, 76, 64
2, 24166, Note_on_c, 0, 52, 57
2, 24322, Note_on_c, 0, 59, 0
2, 24322, Note_on_c, 0, 78, 0
2, 24322, Note_on_c, 0, 90, 0
2, 24327, Note_on_c, 0, 90, 82
2, 24328, Note_on_c, 0, 59, 67
2, 24330, Note_on_c, 0, 78, 77
2, 24483, Note_on_c, 0, 52, 0
2, 24483, Note_on_c, 0, 88, 0
2, 24491, Note_on_c, 0, 76, 0
2, 24492, Note_on_c, 0, 88, 79
2, 24494, Note_on_c, 0, 52, 49
2, 24501, Note_on_c, 0, 76, 62
2, 24648, Note_on_c, 0, 47, 0
2, 24648, Note_on_c, 0, 52, 0
2, 24649, Note_on_c, 0, 64, 0
2, 24649, Note_on_c, 0, 59, 0
2, 24649, Note_on_c, 0, 88, 0
2, 24649, Note_on_c, 0, 54, 0
2, 24649, Control_c, 0, 64, 0
2, 24650, Note_on_c, 0, 76, 0
2, 24652, Note_on_c, 0, 90, 0
2, 24654, Note_on_c, 0, 71, 80
2, 24662, Note_on_c, 0, 90, 91
2, 24668, Note_on_c, 0, 78, 0
2, 24673, Note_on_c, 0, 78, 81
2, 24721, Control_c, 0, 64, 127
2, 24831, Note_on_c, 0, 59, 62
2, 24832, Note_on_c, 0, 88, 82
2, 24851, Note_on_c, 0, 76, 52
2, 24998, Note_on_c, 0, 78, 0
2, 24998, Note_on_c, 0, 90, 0
2, 25007, Note_on_c, 0, 78, 85
2, 25008, Note_on_c, 0, 90, 85
2, 25009, Note_on_c, 0, 66, 66
2, 25171, Note_on_c, 0, 64, 64
2, 25177, Note_on_c, 0, 92, 90
2, 25180, Note_on_c, 0, 80, 80
2, 25336, Note_on_c, 0, 59, 0
2, 25345, Note_on_c, 0, 59, 69
2, 25505, Note_on_c, 0, 64, 0
2, 25505, Note_on_c, 0, 76, 0
2, 25505, Note_on_c, 0, 88, 0
2, 25512, Note_on_c, 0, 88, 83
2, 25516, Note_on_c, 0, 64, 76
2, 25516, Note_on_c, 0, 76, 75
2, 25681, Note_on_c, 0, 59, 0
2, 25692, Note_on_c, 0, 59, 56
2, 25831, Note_on_c, 0, 52, 59
2, 25982, Note_on_c, 0, 66, 0
2, 25982, Note_on_c, 0, 78, 0
2, 25983, Note_on_c, 0, 71, 0
2, 25983, Note_on_c, 0, 90, 0
2, 25983, Note_on_c, 0, 92, 0
2, 25983, Note_on_c, 0, 64, 0
2, 25983, Note_on_c, 0, 59, 0
2, 25984, Note_on_c, 0, 88, 0
2, 25984, Note_on_c, 0, 80, 0
2, 25984, Note_on_c, 0, 52, 0
2, 25984, Note_on_c, 0, 76, 0
2, 25985, Control_c, 0, 64, 0
2, 26014, Note_on_c, 0, 44, 74
2, 26119, Control_c, 0, 64, 127
2, 26183, Note_on_c, 0, 90, 82
2, 26187, Note_on_c, 0, 52, 58
2, 26189, Note_on_c, 0, 78, 81
2, 26340, Note_on_c, 0, 59, 69
2, 26342, Note_on_c, 0, 90, 0
2, 26353, Note_on_c, 0, 90, 84
2, 26357, Note_on_c, 0, 78, 0
2, 26361, Note_on_c, 0, 78, 73
2, 26503, Note_on_c, 0, 78, 0
2, 26503, Note_on_c, 0, 90, 0
2, 26508, Note_on_c, 0, 54, 61
2, 26508, Note_on_c, 0, 90, 86
2, 26513, Note_on_c, 0, 78, 77
2, 26657, Note_on_c, 0, 52, 0
2, 26661, Note_on_c, 0, 52, 62
2, 26680, Note_on_c, 0, 78, 0
2, 26680, Note_on_c, 0, 90, 0
2, 26686, Note_on_c, 0, 90, 92
2, 26689, Note_on_c, 0, 78, 80
2, 26847, Note_on_c, 0, 88, 86
2, 26851, Note_on_c, 0, 64, 70
2, 26852, Note_on_c, 0, 76, 72
2, 27002, Note_on_c, 0, 59, 0
2, 27002, Note_on_c, 0, 78, 0
2, 27002, Note_on_c, 0, 90, 0
2, 27011, Note_on_c, 0, 90, 85
2, 27013, Note_on_c, 0, 59, 69
2, 27014, Note_on_c, 0, 78, 81
2, 27148, Note_on_c, 0, 54, 0
2, 27155, Note_on_c, 0, 54, 61
2, 27171, Note_on_c, 0, 88, 0
2, 27179, Note_on_c, 0, 76, 0
2, 27180, Note_on_c, 0, 88, 80
2, 27185, Note_on_c, 0, 76, 63
2, 27329, Control_c, 0, 64, 0
2, 27329, Note_on_c, 0, 52, 0
2, 27330, Note_on_c, 0, 54, 0
2, 27330, Note_on_c, 0, 88, 0
2, 27330, Note_on_c, 0, 64, 0
2, 27331, Note_on_c, 0, 76, 0
2, 27332, Note_on_c, 0, 71, 82
2, 27333, Note_on_c, 0, 44, 0
2, 27333, Note_on_c, 0, 90, 0
2, 27343, Note_on_c, 0, 90, 91
2, 27348, Note_on_c, 0, 59, 0
2, 27356, Note_on_c, 0, 78, 0
2, 27361, Note_on_c, 0, 78, 78
2, 27417, Control_c, 0, 64, 127
2, 27511, Note_on_c, 0, 59, 61
2, 27512, Note_on_c, 0, 88, 80
2, 27514, Note_on_c, 0, 76, 70
2, 27678, Note_on_c, 0, 78, 0
2, 27678, Note_on_c, 0, 90, 0
2, 27682, Note_on_c, 0, 90, 85
2, 27683, Note_on_c, 0, 66, 71
2, 27684, Note_on_c, 0, 78, 80
2, 27835, Note_on_c, 0, 64, 66
2, 27837, Note_on_c, 0, 92, 87
2, 27842, Note_on_c, 0, 80, 82
2, 27993, Note_on_c, 0, 59, 0
2, 27997, Note_on_c, 0, 59, 65
2, 28170, Note_on_c, 0, 64, 0
2, 28170, Note_on_c, 0, 88, 0
2, 28174, Note_on_c, 0, 64, 65
2, 28176, Note_on_c, 0, 88, 84
2, 28177, Note_on_c, 0, 76, 0
2, 28182, Note_on_c, 0, 76, 72
2, 28339, Note_on_c, 0, 59, 0
2, 28348, Note_on_c, 0, 59, 69
2, 28503, Note_on_c, 0, 52, 62
2, 28635, Note_on_c, 0, 66, 0
2, 28635, Note_on_c, 0, 71, 0
2, 28635, Note_on_c, 0, 59, 0
2, 28635, Note_on_c, 0, 90, 0
2, 28635, Control_c, 0, 64, 0
2, 28636, Note_on_c, 0, 78, 0
2, 28636, Note_on_c, 0, 64, 0
2, 28636, Note_on_c, 0, 88, 0
2, 28636, Note_on_c, 0, 80, 0
2, 28636, Note_on_c, 0, 76, 0
2, 28646, Note_on_c, 0, 52, 0
2, 28654, Note_on_c, 0, 92, 0
2, 28656, Note_on_c, 0, 45, 76
2, 28792, Control_c, 0, 64, 127
2, 28826, Note_on_c, 0, 52, 69
2, 28842, Note_on_c, 0, 73, 68
2, 28992, Note_on_c, 0, 52, 0
2, 28992, Note_on_c, 0, 73, 0
2, 28992, Note_on_c, 0, 64, 73
2, 28996, Note_on_c, 0, 52, 58
2, 29001, Note_on_c, 0, 73, 70
2, 29002, Note_on_c, 0, 85, 73
2, 29160, Note_on_c, 0, 73, 0
2, 29160, Note_on_c, 0, 85, 0
2, 29165, Note_on_c, 0, 59, 71
2, 29165, Note_on_c, 0, 85, 71
2, 29165, Note_on_c, 0, 73, 70
2, 29326, Note_on_c, 0, 57, 68
2, 29327, Note_on_c, 0, 88, 84
2, 29337, Note_on_c, 0, 76, 64
2, 29491, Note_on_c, 0, 88, 0
2, 29498, Note_on_c, 0, 69, 74
2, 29498, Note_on_c, 0, 76, 0
2, 29501, Note_on_c, 0, 88, 85
2, 29503, Note_on_c, 0, 76, 72
2, 29652, Note_on_c, 0, 52, 0
2, 29652, Note_on_c, 0, 64, 0
2, 29652, Note_on_c, 0, 76, 0
2, 29652, Note_on_c, 0, 88, 0
2, 29657, Note_on_c, 0, 88, 96
2, 29660, Note_on_c, 0, 64, 62
2, 29662, Note_on_c, 0, 76, 88
2, 29662, Note_on_c, 0, 52, 55
2, 29798, Note_on_c, 0, 57, 0
2, 29807, Note_on_c, 0, 57, 65
2, 29826, Note_on_c, 0, 80, 83
2, 29826, Note_on_c, 0, 92, 87
2, 29965, Control_c, 0, 64, 0
2, 29965, Note_on_c, 0, 92, 0
2, 29965, Note_on_c, 0, 73, 0
2, 29966, Note_on_c, 0, 69, 0
2, 29966, Note_on_c, 0, 85, 0
2, 29966, Note_on_c, 0, 80, 0
2, 29966, Note_on_c, 0, 52, 0
2, 29966, Note_on_c, 0, 64, 0
2, 29967, Note_on_c, 0, 57, 0
2, 29967, Note_on_c, 0, 88, 0
2, 29967, Note_on_c, 0, 45, 0
2, 29967, Note_on_c, 0, 59, 0
2, 29968, Note_on_c, 0, 76, 0
2, 29971, Note_on_c, 0, 47, 74
2, 29986, Note_on_c, 0, 93, 94
2, 29993, Note_on_c, 0, 81, 83
2, 30044, Control_c, 0, 64, 127
2, 30150, Note_on_c, 0, 54, 66
2, 30152, Note_on_c, 0, 92, 87
2, 30154, Note_on_c, 0, 80, 86
2, 30312, Note_on_c, 0, 93, 0
2, 30317, Note_on_c, 0, 93, 94
2, 30320, Note_on_c, 0, 81, 0
2, 30324, Note_on_c, 0, 81, 81
2, 30324, Note_on_c, 0, 66, 71
2, 30327, Note_on_c, 0, 59, 61
2, 30478, Note_on_c, 0, 64, 65
2, 30479, Note_on_c, 0, 95, 95
2, 30488, Note_on_c, 0, 83, 85
2, 30635, Note_on_c, 0, 59, 0
2, 30635, Note_on_c, 0, 80, 0
2, 30635, Note_on_c, 0, 92, 0
2, 30641, Note_on_c, 0, 92, 93
2, 30645, Note_on_c, 0, 59, 79
2, 30646, Note_on_c, 0, 80, 86
2, 30815, Note_on_c, 0, 90, 90
2, 30816, Note_on_c, 0, 78, 91
2, 30816, Note_on_c, 0, 71, 76
2, 30973, Note_on_c, 0, 66, 0
2, 30977, Note_on_c, 0, 88, 92
2, 30980, Note_on_c, 0, 76, 80
2, 30982, Note_on_c, 0, 66, 70
2, 31119, Note_on_c, 0, 59, 0
2, 31119, Note_on_c, 0, 78, 0
2, 31119, Note_on_c, 0, 90, 0
2, 31123, Note_on_c, 0, 59, 69
2, 31124, Note_on_c, 0, 90, 92
2, 31125, Note_on_c, 0, 78, 89
2, 31303, Note_on_c, 0, 92, 0
2, 31311, Note_on_c, 0, 80, 0
2, 31314, Note_on_c, 0, 92, 100
2, 31317, Note_on_c, 0, 71, 0
2, 31317, Note_on_c, 0, 81, 0
2, 31317, Note_on_c, 0, 93, 0
2, 31317, Note_on_c, 0, 54, 0
2, 31318, Note_on_c, 0, 64, 0
2, 31318, Note_on_c, 0, 59, 0
2, 31318, Note_on_c, 0, 76, 0
2, 31318, Note_on_c, 0, 66, 0
2, 31318, Note_on_c, 0, 83, 0
2, 31319, Note_on_c, 0, 78, 0
2, 31319, Note_on_c, 0, 88, 0
2, 31320, Note_on_c, 0, 90, 0
2, 31320, Note_on_c, 0, 95, 0
2, 31320, Note_on_c, 0, 40, 64
2, 31320, Control_c, 0, 64, 0
2, 31321, Note_on_c, 0, 80, 86
2, 31326, Note_on_c, 0, 47, 0
2, 31472, Control_c, 0, 64, 127
2, 31490, Note_on_c, 0, 47, 59
2, 31655, Note_on_c, 0, 59, 65
2, 31822, Note_on_c, 0, 54, 54
2, 31984, Note_on_c, 0, 52, 53
2, 32160, Note_on_c, 0, 64, 66
2, 32317, Note_on_c, 0, 59, 0
2, 32326, Note_on_c, 0, 59, 67
2, 32486, Note_on_c, 0, 54, 0
2, 32492, Note_on_c, 0, 54, 50
2, 32681, Note_on_c, 0, 71, 74
2, 32718, Control_c, 0, 64, 0
2, 32719, Note_on_c, 0, 54, 0
2, 32719, Note_on_c, 0, 52, 0
2, 32719, Note_on_c, 0, 64, 0
2, 32720, Note_on_c, 0, 47, 0
2, 32720, Note_on_c, 0, 59, 0
2, 32720, Note_on_c, 0, 80, 0
2, 32732, Note_on_c, 0, 92, 0
2, 33277, Control_c, 0, 64, 127
2, 33412, Note_on_c, 0, 76, 70
2, 33692, Note_on_c, 0, 76, 0
2, 33697, Note_on_c, 0, 76, 65
2, 33978, Note_on_c, 0, 83, 86
2, 34154, Note_on_c, 0, 45, 57
2, 34163, Control_c, 0, 64, 0
2, 34166, Note_on_c, 0, 71, 0
2, 34170, Note_on_c, 0, 40, 0
2, 34314, Control_c, 0, 64, 127
2, 34338, Note_on_c, 0, 52, 39
2, 34499, Note_on_c, 0, 59, 39
2, 34659, Note_on_c, 0, 64, 61
2, 34685, Note_on_c, 0, 61, 59
2, 34836, Note_on_c, 0, 76, 0
2, 34841, Note_on_c, 0, 76, 74
2, 35112, Note_on_c, 0, 76, 0
2, 35119, Note_on_c, 0, 76, 70
2, 35404, Note_on_c, 0, 83, 0
2, 35412, Note_on_c, 0, 83, 87
2, 35573, Note_on_c, 0, 45, 0
2, 35580, Note_on_c, 0, 45, 61
2, 35617, Note_on_c, 0, 59, 0
2, 35618, Note_on_c, 0, 64, 0
2, 35618, Control_c, 0, 64, 0
2, 35619, Note_on_c, 0, 52, 0
2, 35619, Note_on_c, 0, 61, 0
2, 35621, Note_on_c, 0, 76, 0
2, 35735, Control_c, 0, 64, 127
2, 35769, Note_on_c, 0, 54, 51
2, 35931, Note_on_c, 0, 59, 67
2, 36124, Note_on_c, 0, 66, 61
2, 36125, Note_on_c, 0, 63, 54
2, 36304, Note_on_c, 0, 71, 75
2, 36619, Note_on_c, 0, 76, 76
2, 36802, Note_on_c, 0, 75, 89
2, 36802, Note_on_c, 0, 45, 0
2, 36972, Note_on_c, 0, 44, 68
2, 37012, Control_c, 0, 64, 0
2, 37013, Note_on_c, 0, 54, 0
2, 37014, Note_on_c, 0, 59, 0
2, 37014, Note_on_c, 0, 63, 0
2, 37015, Note_on_c, 0, 71, 0
2, 37015, Note_on_c, 0, 66, 0
2, 37018, Note_on_c, 0, 76, 0
2, 37117, Control_c, 0, 64, 127
2, 37144, Note_on_c, 0, 51, 62
2, 37151, Note_on_c, 0, 71, 85
2, 37314, Note_on_c, 0, 59, 72
2, 37493, Note_on_c, 0, 71, 0
2, 37502, Note_on_c, 0, 71, 84
2, 37504, Note_on_c, 0, 63, 57
2, 37508, Note_on_c, 0, 66, 64
2, 37839, Note_on_c, 0, 71, 0
2, 37843, Note_on_c, 0, 71, 75
2, 38021, Note_on_c, 0, 73, 78
2, 38046, Note_on_c, 0, 83, 0
2, 38169, Note_on_c, 0, 71, 0
2, 38180, Note_on_c, 0, 71, 74
2, 38338, Note_on_c, 0, 73, 0
2, 38342, Note_on_c, 0, 73, 81
2, 38343, Note_on_c, 0, 49, 65
2, 38365, Control_c, 0, 64, 0
2, 38367, Note_on_c, 0, 63, 0
2, 38368, Note_on_c, 0, 44, 0
2, 38368, Note_on_c, 0, 75, 0
2, 38369, Note_on_c, 0, 59, 0
2, 38369, Note_on_c, 0, 66, 0
2, 38370, Note_on_c, 0, 51, 0
2, 38407, Note_on_c, 0, 71, 0
2, 38505, Note_on_c, 0, 56, 68
2, 38522, Control_c, 0, 64, 127
2, 38681, Note_on_c, 0, 59, 67
2, 38866, Note_on_c, 0, 64, 73
2, 38867, Note_on_c, 0, 68, 69
2, 39041, Note_on_c, 0, 76, 81
2, 39313, Note_on_c, 0, 76, 0
2, 39323, Note_on_c, 0, 76, 85
2, 39587, Note_on_c, 0, 83, 91
2, 39601, Note_on_c, 0, 71, 84
2, 39750, Control_c, 0, 64, 0
2, 39754, Note_on_c, 0, 59, 0
2, 39754, Note_on_c, 0, 76, 0
2, 39754, Note_on_c, 0, 56, 0
2, 39754, Note_on_c, 0, 64, 0
2, 39755, Note_on_c, 0, 68, 0
2, 39755, Note_on_c, 0, 49, 0
2, 39767, Note_on_c, 0, 73, 0
2, 39772, Note_on_c, 0, 42, 61
2, 39859, Control_c, 0, 64, 127
2, 39925, Note_on_c, 0, 52, 68
2, 40093, Note_on_c, 0, 57, 69
2, 40274, Note_on_c, 0, 64, 62
2, 40293, Note_on_c, 0, 61, 66
2, 40447, Note_on_c, 0, 75, 85
2, 40788, Note_on_c, 0, 42, 0
2, 40793, Note_on_c, 0, 76, 85
2, 40965, Note_on_c, 0, 71, 0
2, 40965, Note_on_c, 0, 83, 0
2, 40970, Note_on_c, 0, 83, 95
2, 40976, Note_on_c, 0, 71, 89
2, 41046, Note_on_c, 0, 52, 0
2, 41046, Note_on_c, 0, 57, 0
2, 41046, Control_c, 0, 64, 0
2, 41046, Note_on_c, 0, 64, 0
2, 41046, Note_on_c, 0, 61, 0
2, 41047, Note_on_c, 0, 76, 0
2, 41048, Note_on_c, 0, 75, 0
2, 41120, Note_on_c, 0, 44, 73
2, 41141, Control_c, 0, 64, 127
2, 41289, Note_on_c, 0, 52, 61
2, 41290, Note_on_c, 0, 85, 80
2, 41298, Note_on_c, 0, 73, 75
2, 41464, Note_on_c, 0, 83, 0
2, 41468, Note_on_c, 0, 56, 67
2, 41469, Note_on_c, 0, 83, 88
2, 41479, Note_on_c, 0, 71, 0
2, 41486, Note_on_c, 0, 71, 69
2, 41487, Note_on_c, 0, 52, 0
2, 41492, Note_on_c, 0, 52, 45
2, 41646, Note_on_c, 0, 64, 70
2, 41674, Note_on_c, 0, 59, 60
2, 41978, Note_on_c, 0, 44, 0
2, 41986, Note_on_c, 0, 76, 83
2, 41990, Note_on_c, 0, 44, 55
2, 42147, Note_on_c, 0, 44, 0
2, 42154, Note_on_c, 0, 44, 54
2, 42156, Note_on_c, 0, 78, 93
2, 42333, Note_on_c, 0, 79, 90
2, 42347, Note_on_c, 0, 76, 0
2, 42350, Note_on_c, 0, 72, 75
2, 42352, Note_on_c, 0, 76, 65
2, 42457, Note_on_c, 0, 64, 0
2, 42457, Note_on_c, 0, 52, 0
2, 42457, Note_on_c, 0, 56, 0
2, 42457, Note_on_c, 0, 59, 0
2, 42458, Note_on_c, 0, 85, 0
2, 42458, Note_on_c, 0, 44, 0
2, 42458, Note_on_c, 0, 71, 0
2, 42458, Note_on_c, 0, 73, 0
2, 42458, Note_on_c, 0, 78, 0
2, 42458, Control_c, 0, 64, 0
2, 42458, Note_on_c, 0, 83, 0
2, 42498, Note_on_c, 0, 45, 75
2, 42547, Control_c, 0, 64, 127
2, 42665, Note_on_c, 0, 52, 71
2, 42669, Note_on_c, 0, 78, 96
2, 42831, Note_on_c, 0, 79, 0
2, 42835, Note_on_c, 0, 79, 87
2, 42835, Note_on_c, 0, 60, 73
2, 42840, Note_on_c, 0, 71, 66
2, 42846, Note_on_c, 0, 71, 0
2, 43015, Note_on_c, 0, 78, 0
2, 43016, Note_on_c, 0, 81, 92
2, 43026, Note_on_c, 0, 78, 87
2, 43027, Note_on_c, 0, 74, 79
2, 43176, Control_c, 0, 64, 0
2, 43176, Note_on_c, 0, 76, 0
2, 43177, Note_on_c, 0, 52, 0
2, 43178, Note_on_c, 0, 72, 0
2, 43179, Note_on_c, 0, 60, 0
2, 43179, Note_on_c, 0, 79, 0
2, 43179, Note_on_c, 0, 45, 0
2, 43181, Note_on_c, 0, 47, 75
2, 43276, Control_c, 0, 64, 127
2, 43345, Note_on_c, 0, 54, 73
2, 43348, Note_on_c, 0, 79, 88
2, 43514, Note_on_c, 0, 81, 0
2, 43524, Note_on_c, 0, 81, 89
2, 43526, Note_on_c, 0, 62, 79
2, 43683, Note_on_c, 0, 79, 0
2, 43688, Note_on_c, 0, 79, 89
2, 43688, Note_on_c, 0, 82, 98
2, 43708, Note_on_c, 0, 75, 85
2, 43709, Note_on_c, 0, 70, 83
2, 43801, Note_on_c, 0, 47, 0
2, 43802, Note_on_c, 0, 81, 0
2, 43803, Note_on_c, 0, 54, 0
2, 43803, Note_on_c, 0, 62, 0
2, 43803, Note_on_c, 0, 74, 0
2, 43803, Control_c, 0, 64, 0
2, 43814, Note_on_c, 0, 78, 0
2, 43873, Note_on_c, 0, 48, 78
2, 43921, Control_c, 0, 64, 127
2, 44021, Note_on_c, 0, 75, 0
2, 44032, Note_on_c, 0, 75, 91
2, 44033, Note_on_c, 0, 55, 78
2, 44190, Note_on_c, 0, 82, 0
2, 44201, Note_on_c, 0, 82, 95
2, 44202, Note_on_c, 0, 63, 78
2, 44375, Note_on_c, 0, 75, 0
2, 44375, Note_on_c, 0, 79, 0
2, 44378, Note_on_c, 0, 84, 87
2, 44379, Note_on_c, 0, 79, 84
2, 44381, Note_on_c, 0, 75, 93
2, 44452, Note_on_c, 0, 48, 0
2, 44452, Control_c, 0, 64, 0
2, 44453, Note_on_c, 0, 82, 0
2, 44453, Note_on_c, 0, 70, 0
2, 44453, Note_on_c, 0, 55, 0
2, 44454, Note_on_c, 0, 63, 0
2, 44541, Note_on_c, 0, 50, 87
2, 44544, Control_c, 0, 64, 127
2, 44717, Note_on_c, 0, 62, 81
2, 44717, Note_on_c, 0, 86, 96
2, 44723, Note_on_c, 0, 74, 90
2, 44878, Note_on_c, 0, 67, 86
2, 45043, Note_on_c, 0, 69, 88
2, 45204, Note_on_c, 0, 74, 0
2, 45214, Note_on_c, 0, 74, 99
2, 45382, Note_on_c, 0, 98, 107
2, 45475, Note_on_c, 0, 93, 94
2, 45563, Note_on_c, 0, 91, 89
2, 45626, Note_on_c, 0, 86, 0
2, 45637, Note_on_c, 0, 86, 76
2, 45707, Note_on_c, 0, 81, 81
2, 45795, Note_on_c, 0, 79, 0
2, 45799, Note_on_c, 0, 79, 79
2, 45880, Note_on_c, 0, 74, 0
2, 45888, Note_on_c, 0, 74, 75
2, 45949, Note_on_c, 0, 69, 0
2, 45957, Note_on_c, 0, 69, 71
2, 46033, Note_on_c, 0, 67, 0
2, 46040, Note_on_c, 0, 67, 80
2, 46126, Note_on_c, 0, 62, 0
2, 46132, Note_on_c, 0, 62, 78
2, 46207, Note_on_c, 0, 57, 81
2, 46301, Note_on_c, 0, 55, 72
2, 46356, Note_on_c, 0, 50, 0
2, 46362, Note_on_c, 0, 50, 82
2, 46450, Note_on_c, 0, 45, 83
2, 46512, Control_c, 0, 64, 0
2, 46514, Note_on_c, 0, 81, 0
2, 46514, Note_on_c, 0, 84, 0
2, 46514, Note_on_c, 0, 69, 0
2, 46514, Note_on_c, 0, 93, 0
2, 46514, Note_on_c, 0, 74, 0
2, 46515, Note_on_c, 0, 79, 0
2, 46515, Note_on_c, 0, 55, 0
2, 46515, Note_on_c, 0, 50, 0
2, 46515, Note_on_c, 0, 62, 0
2, 46515, Note_on_c, 0, 91, 0
2, 46515, Note_on_c, 0, 57, 0
2, 46515, Note_on_c, 0, 67, 0
2, 46525, Note_on_c, 0, 75, 0
2, 46525, Note_on_c, 0, 98, 0
2, 46533, Note_on_c, 0, 45, 0
2, 46533, Note_on_c, 0, 86, 0
2, 46552, Note_on_c, 0, 38, 90
2, 46553, Note_on_c, 0, 26, 95
2, 46617, Control_c, 0, 64, 127
2, 46871, Note_on_c, 0, 26, 0
2, 46912, Note_on_c, 0, 62, 70
2, 46968, Note_on_c, 0, 66, 72
2, 47019, Note_on_c, 0, 69, 80
2, 47072, Note_on_c, 0, 74, 92
2, 47129, Note_on_c, 0, 78, 97
2, 47190, Note_on_c, 0, 81, 91
2, 47245, Note_on_c, 0, 86, 102
2, 47892, Note_on_c, 0, 69, 0
2, 47903, Note_on_c, 0, 69, 73
2, 47955, Note_on_c, 0, 71, 80
2, 47971, Note_on_c, 0, 62, 0
2, 47972, Note_on_c, 0, 78, 0
2, 47972, Note_on_c, 0, 66, 0
2, 47972, Note_on_c, 0, 86, 0
2, 47972, Note_on_c, 0, 69, 0
2, 47975, Control_c, 0, 64, 0
2, 47976, Note_on_c, 0, 38, 0
2, 47984, Note_on_c, 0, 74, 0
2, 47996, Note_on_c, 0, 74, 86
2, 48007, Note_on_c, 0, 81, 0
2, 48013, Note_on_c, 0, 43, 88
2, 48016, Note_on_c, 0, 31, 86
2, 48017, Note_on_c, 0, 81, 103
2, 48107, Control_c, 0, 64, 127
2, 48202, Note_on_c, 0, 50, 59
2, 48376, Note_on_c, 0, 71, 0
2, 48384, Note_on_c, 0, 79, 101
2, 48384, Note_on_c, 0, 59, 82
2, 48386, Note_on_c, 0, 71, 80
2, 48387, Note_on_c, 0, 67, 92
2, 48540, Note_on_c, 0, 55, 72
2, 48714, Note_on_c, 0, 81, 0
2, 48721, Note_on_c, 0, 71, 0
2, 48721, Note_on_c, 0, 74, 0
2, 48725, Note_on_c, 0, 81, 101
2, 48726, Note_on_c, 0, 69, 90
2, 48727, Note_on_c, 0, 62, 85
2, 48727, Note_on_c, 0, 74, 90
2, 48732, Note_on_c, 0, 71, 93
2, 48890, Note_on_c, 0, 50, 0
2, 48896, Note_on_c, 0, 50, 68
2, 49067, Note_on_c, 0, 67, 0
2, 49067, Note_on_c, 0, 79, 0
2, 49073, Note_on_c, 0, 79, 96
2, 49075, Note_on_c, 0, 59, 0
2, 49075, Note_on_c, 0, 71, 0
2, 49078, Note_on_c, 0, 67, 94
2, 49080, Note_on_c, 0, 71, 81
2, 49085, Note_on_c, 0, 59, 88
2, 49236, Note_on_c, 0, 55, 0
2, 49236, Note_on_c, 0, 74, 0
2, 49240, Note_on_c, 0, 55, 79
2, 49243, Note_on_c, 0, 74, 91
2, 49374, Note_on_c, 0, 31, 0
2, 49375, Note_on_c, 0, 69, 0
2, 49375, Note_on_c, 0, 62, 0
2, 49375, Note_on_c, 0, 50, 0
2, 49375, Note_on_c, 0, 55, 0
2, 49376, Note_on_c, 0, 81, 0
2, 49376, Control_c, 0, 64, 0
2, 49377, Note_on_c, 0, 67, 0
2, 49377, Note_on_c, 0, 43, 0
2, 49377, Note_on_c, 0, 59, 0
2, 49377, Note_on_c, 0, 79, 0
2, 49405, Note_on_c, 0, 71, 0
2, 49405, Note_on_c, 0, 74, 0
2, 49411, Note_on_c, 0, 74, 90
2, 49412, Note_on_c, 0, 81, 104
2, 49412, Note_on_c, 0, 47, 81
2, 49413, Note_on_c, 0, 71, 98
2, 49415, Note_on_c, 0, 69, 98
2, 49416, Note_on_c, 0, 35, 84
2, 49451, Control_c, 0, 64, 127
2, 49497, Note_on_c, 0, 35, 0
2, 49585, Note_on_c, 0, 50, 74
2, 49758, Note_on_c, 0, 71, 0
2, 49764, Note_on_c, 0, 83, 100
2, 49767, Note_on_c, 0, 71, 100
2, 49769, Note_on_c, 0, 59, 89
2, 49927, Note_on_c, 0, 71, 0
2, 49927, Note_on_c, 0, 74, 0
2, 49927, Note_on_c, 0, 83, 0
2, 49933, Note_on_c, 0, 83, 98
2, 49936, Note_on_c, 0, 74, 90
2, 49937, Note_on_c, 0, 79, 85
2, 49938, Note_on_c, 0, 55, 78
2, 49938, Note_on_c, 0, 71, 93
2, 50113, Note_on_c, 0, 62, 91
2, 50273, Note_on_c, 0, 50, 0
2, 50273, Note_on_c, 0, 79, 0
2, 50278, Note_on_c, 0, 50, 77
2, 50284, Note_on_c, 0, 79, 93
2, 50449, Note_on_c, 0, 59, 0
2, 50449, Note_on_c, 0, 79, 0
2, 50455, Note_on_c, 0, 79, 86
2, 50458, Note_on_c, 0, 59, 93
2, 50611, Note_on_c, 0, 55, 0
2, 50618, Note_on_c, 0, 74, 0
2, 50618, Note_on_c, 0, 79, 0
2, 50622, Note_on_c, 0, 55, 78
2, 50625, Note_on_c, 0, 79, 90
2, 50625, Note_on_c, 0, 86, 98
2, 50630, Note_on_c, 0, 74, 94
2, 50633, Note_on_c, 0, 76, 94
2, 50757, Note_on_c, 0, 47, 0
2, 50758, Control_c, 0, 64, 0
2, 50758, Note_on_c, 0, 50, 0
2, 50759, Note_on_c, 0, 81, 0
2, 50759, Note_on_c, 0, 62, 0
2, 50759, Note_on_c, 0, 71, 0
2, 50759, Note_on_c, 0, 83, 0
2, 50759, Note_on_c, 0, 59, 0
2, 50760, Note_on_c, 0, 55, 0
2, 50764, Note_on_c, 0, 69, 0
2, 50791, Note_on_c, 0, 48, 85
2, 50792, Note_on_c, 0, 36, 86
2, 50841, Control_c, 0, 64, 127
2, 50971, Note_on_c, 0, 52, 68
2, 51141, Note_on_c, 0, 79, 0
2, 51147, Note_on_c, 0, 60, 85
2, 51152, Note_on_c, 0, 79, 92
2, 51158, Note_on_c, 0, 67, 90
2, 51171, Note_on_c, 0, 36, 0
2, 51302, Note_on_c, 0, 67, 0
2, 51302, Note_on_c, 0, 79, 0
2, 51310, Note_on_c, 0, 55, 77
2, 51311, Note_on_c, 0, 79, 99
2, 51313, Note_on_c, 0, 67, 92
2, 51486, Note_on_c, 0, 64, 86
2, 51655, Note_on_c, 0, 52, 0
2, 51655, Note_on_c, 0, 79, 0
2, 51659, Note_on_c, 0, 79, 98
2, 51659, Note_on_c, 0, 52, 80
2, 51832, Note_on_c, 0, 60, 0
2, 51832, Note_on_c, 0, 79, 0
2, 51836, Note_on_c, 0, 79, 94
2, 51837, Note_on_c, 0, 60, 88
2, 51970, Note_on_c, 0, 55, 0
2, 51979, Note_on_c, 0, 55, 79
2, 51993, Note_on_c, 0, 79, 0
2, 51993, Note_on_c, 0, 86, 0
2, 52001, Note_on_c, 0, 74, 0
2, 52002, Note_on_c, 0, 86, 99
2, 52005, Note_on_c, 0, 79, 94
2, 52005, Note_on_c, 0, 74, 95
2, 52012, Note_on_c, 0, 75, 92
2, 52122, Note_on_c, 0, 52, 0
2, 52123, Note_on_c, 0, 60, 0
2, 52123, Control_c, 0, 64, 0
2, 52124, Note_on_c, 0, 64, 0
2, 52124, Note_on_c, 0, 67, 0
2, 52124, Note_on_c, 0, 55, 0
2, 52124, Note_on_c, 0, 48, 0
2, 52131, Note_on_c, 0, 76, 0
2, 52160, Note_on_c, 0, 48, 76
2, 52163, Note_on_c, 0, 36, 82
2, 52216, Control_c, 0, 64, 127
2, 52341, Note_on_c, 0, 51, 72
2, 52515, Note_on_c, 0, 79, 0
2, 52518, Note_on_c, 0, 60, 84
2, 52519, Note_on_c, 0, 79, 93
2, 52527, Note_on_c, 0, 67, 84
2, 52677, Note_on_c, 0, 67, 0
2, 52677, Note_on_c, 0, 79, 0
2, 52681, Note_on_c, 0, 79, 98
2, 52681, Note_on_c, 0, 67, 89
2, 52685, Note_on_c, 0, 55, 77
2, 52846, Note_on_c, 0, 36, 0
2, 52857, Note_on_c, 0, 63, 83
2, 53015, Note_on_c, 0, 51, 0
2, 53023, Note_on_c, 0, 78, 99
2, 53024, Note_on_c, 0, 51, 78
2, 53176, Note_on_c, 0, 79, 0
2, 53184, Note_on_c, 0, 60, 0
2, 53186, Note_on_c, 0, 79, 86
2, 53188, Note_on_c, 0, 60, 83
2, 53322, Note_on_c, 0, 55, 0
2, 53326, Note_on_c, 0, 55, 81
2, 53329, Note_on_c, 0, 86, 0
2, 53337, Note_on_c, 0, 74, 0
2, 53337, Note_on_c, 0, 78, 0
2, 53337, Note_on_c, 0, 86, 96
2, 53342, Note_on_c, 0, 74, 92
2, 53343, Note_on_c, 0, 78, 94
2, 53345, Note_on_c, 0, 81, 83
2, 53467, Note_on_c, 0, 51, 0
2, 53467, Note_on_c, 0, 79, 0
2, 53468, Note_on_c, 0, 60, 0
2, 53468, Note_on_c, 0, 67, 0
2, 53468, Note_on_c, 0, 55, 0
2, 53469, Note_on_c, 0, 63, 0
2, 53469, Control_c, 0, 64, 0
2, 53469, Note_on_c, 0, 48, 0
2, 53475, Note_on_c, 0, 75, 0
2, 53514, Note_on_c, 0, 47, 90
2, 53517, Note_on_c, 0, 35, 85
2, 53552, Control_c, 0, 64, 127
2, 53681, Note_on_c, 0, 50, 78
2, 53851, Note_on_c, 0, 57, 75
2, 54036, Note_on_c, 0, 35, 0
2, 54039, Note_on_c, 0, 54, 75
2, 54200, Note_on_c, 0, 79, 95
2, 54208, Note_on_c, 0, 67, 85
2, 54212, Note_on_c, 0, 62, 70
2, 54217, Note_on_c, 0, 60, 75
2, 54366, Note_on_c, 0, 50, 0
2, 54366, Note_on_c, 0, 81, 0
2, 54375, Note_on_c, 0, 81, 95
2, 54377, Note_on_c, 0, 50, 71
2, 54378, Note_on_c, 0, 69, 90
2, 54553, Note_on_c, 0, 83, 94
2, 54553, Note_on_c, 0, 71, 95
2, 54554, Note_on_c, 0, 59, 69
2, 54667, Control_c, 0, 64, 0
2, 54669, Note_on_c, 0, 54, 0
2, 54669, Note_on_c, 0, 47, 0
2, 54670, Note_on_c, 0, 57, 0
2, 54670, Note_on_c, 0, 81, 0
2, 54670, Note_on_c, 0, 62, 0
2, 54670, Note_on_c, 0, 67, 0
2, 54670, Note_on_c, 0, 50, 0
2, 54670, Note_on_c, 0, 71, 0
2, 54670, Note_on_c, 0, 69, 0
2, 54670, Note_on_c, 0, 83, 0
2, 54670, Note_on_c, 0, 59, 0
2, 54670, Note_on_c, 0, 79, 0
2, 54671, Note_on_c, 0, 60, 0
2, 54671, Note_on_c, 0, 86, 0
2, 54681, Note_on_c, 0, 74, 0
2, 54689, Note_on_c, 0, 78, 0
2, 54722, Note_on_c, 0, 64, 88
2, 54724, Note_on_c, 0, 69, 87
2, 54724, Note_on_c, 0, 76, 92
2, 54724, Note_on_c, 0, 77, 90
2, 54724, Note_on_c, 0, 37, 79
2, 54725, Note_on_c, 0, 49, 86
2, 54731, Note_on_c, 0, 73, 83
2, 54773, Control_c, 0, 64, 127
2, 55073, Note_on_c, 0, 52, 63
2, 55073, Note_on_c, 0, 69, 0
2, 55075, Note_on_c, 0, 81, 87
2, 55077, Note_on_c, 0, 69, 78
2, 55222, Note_on_c, 0, 61, 81
2, 55247, Note_on_c, 0, 67, 88
2, 55247, Note_on_c, 0, 79, 94
2, 55265, Note_on_c, 0, 77, 0
2, 55271, Note_on_c, 0, 77, 47
2, 55402, Note_on_c, 0, 57, 73
2, 55564, Note_on_c, 0, 64, 0
2, 55575, Note_on_c, 0, 64, 88
2, 55726, Note_on_c, 0, 52, 0
2, 55726, Note_on_c, 0, 76, 0
2, 55731, Note_on_c, 0, 76, 98
2, 55733, Note_on_c, 0, 52, 79
2, 55887, Note_on_c, 0, 57, 0
2, 55891, Note_on_c, 0, 57, 89
2, 55899, Note_on_c, 0, 78, 95
2, 55902, Note_on_c, 0, 69, 0
2, 55906, Note_on_c, 0, 69, 64
2, 56026, Note_on_c, 0, 64, 0
2, 56026, Note_on_c, 0, 57, 0
2, 56026, Control_c, 0, 64, 0
2, 56026, Note_on_c, 0, 61, 0
2, 56026, Note_on_c, 0, 52, 0
2, 56026, Note_on_c, 0, 67, 0
2, 56026, Note_on_c, 0, 81, 0
2, 56026, Note_on_c, 0, 73, 0
2, 56026, Note_on_c, 0, 69, 0
2, 56027, Note_on_c, 0, 76, 0
2, 56027, Note_on_c, 0, 49, 0
2, 56027, Note_on_c, 0, 79, 0
2, 56027, Note_on_c, 0, 78, 0
2, 56028, Note_on_c, 0, 77, 0
2, 56028, Note_on_c, 0, 37, 0
2, 56068, Note_on_c, 0, 79, 100
2, 56070, Note_on_c, 0, 72, 89
2, 56073, Note_on_c, 0, 76, 93
2, 56073, Note_on_c, 0, 33, 87
2, 56074, Note_on_c, 0, 67, 97
2, 56074, Note_on_c, 0, 45, 92
2, 56113, Note_on_c, 0, 33, 0
2, 56140, Control_c, 0, 64, 127
2, 56424, Note_on_c, 0, 76, 0
2, 56429, Note_on_c, 0, 76, 95
2, 56429, Note_on_c, 0, 52, 80
2, 56432, Note_on_c, 0, 64, 79
2, 56602, Note_on_c, 0, 60, 84
2, 56603, Note_on_c, 0, 57, 79
2, 56747, Note_on_c, 0, 45, 0
2, 56750, Note_on_c, 0, 52, 0
2, 56750, Note_on_c, 0, 57, 0
2, 56751, Note_on_c, 0, 60, 0
2, 56751, Note_on_c, 0, 64, 0
2, 56751, Note_on_c, 0, 72, 0
2, 56752, Note_on_c, 0, 76, 0
2, 56752, Control_c, 0, 64, 0
2, 56762, Note_on_c, 0, 79, 0
2, 56770, Note_on_c, 0, 67, 0
2, 56772, Note_on_c, 0, 79, 100
2, 56775, Note_on_c, 0, 67, 87
2, 56776, Note_on_c, 0, 47, 88
2, 56776, Note_on_c, 0, 74, 88
2, 56778, Note_on_c, 0, 71, 91
2, 56781, Note_on_c, 0, 35, 84
2, 56815, Note_on_c, 0, 47, 0
2, 56832, Note_on_c, 0, 35, 0
2, 56847, Control_c, 0, 64, 127
2, 57112, Note_on_c, 0, 81, 95
2, 57114, Note_on_c, 0, 69, 90
2, 57126, Note_on_c, 0, 55, 76
2, 57290, Note_on_c, 0, 62, 85
2, 57291, Note_on_c, 0, 59, 80
2, 57447, Note_on_c, 0, 81, 0
2, 57448, Note_on_c, 0, 55, 0
2, 57448, Control_c, 0, 64, 0
2, 57448, Note_on_c, 0, 69, 0
2, 57448, Note_on_c, 0, 62, 0
2, 57448, Note_on_c, 0, 59, 0
2, 57454, Note_on_c, 0, 67, 0
2, 57454, Note_on_c, 0, 71, 0
2, 57454, Note_on_c, 0, 74, 0
2, 57460, Note_on_c, 0, 83, 105
2, 57461, Note_on_c, 0, 79, 0
2, 57465, Note_on_c, 0, 71, 99
2, 57468, Note_on_c, 0, 79, 86
2, 57469, Note_on_c, 0, 76, 96
2, 57477, Note_on_c, 0, 36, 83
2, 57561, Control_c, 0, 64, 127
2, 57600, Note_on_c, 0, 36, 0
2, 57799, Note_on_c, 0, 76, 0
2, 57802, Note_on_c, 0, 55, 74
2, 57803, Note_on_c, 0, 84, 90
2, 57803, Note_on_c, 0, 72, 95
2, 57806, Note_on_c, 0, 76, 74
2, 57965, Note_on_c, 0, 64, 89
2, 57967, Note_on_c, 0, 60, 82
2, 57968, Note_on_c, 0, 71, 0
2, 57968, Note_on_c, 0, 83, 0
2, 57972, Note_on_c, 0, 83, 99
2, 57974, Note_on_c, 0, 71, 97
2, 58137, Note_on_c, 0, 71, 0
2, 58137, Note_on_c, 0, 83, 0
2, 58143, Note_on_c, 0, 83, 97
2, 58146, Note_on_c, 0, 71, 96
2, 58148, Note_on_c, 0, 81, 86
2, 58251, Note_on_c, 0, 60, 0
2, 58251, Note_on_c, 0, 81, 0
2, 58252, Note_on_c, 0, 64, 0
2, 58253, Note_on_c, 0, 76, 0
2, 58254, Note_on_c, 0, 55, 0
2, 58254, Note_on_c, 0, 72, 0
2, 58254, Control_c, 0, 64, 0
2, 58254, Note_on_c, 0, 71, 0
2, 58254, Note_on_c, 0, 79, 0
2, 58255, Note_on_c, 0, 84, 0
2, 58255, Note_on_c, 0, 83, 0
2, 58309, Note_on_c, 0, 81, 96
2, 58311, Note_on_c, 0, 69, 96
2, 58311, Note_on_c, 0, 38, 85
2, 58312, Note_on_c, 0, 50, 91
2, 58314, Note_on_c, 0, 74, 92
2, 58315, Note_on_c, 0, 78, 92
2, 58383, Control_c, 0, 64, 127
2, 58475, Note_on_c, 0, 74, 0
2, 58481, Note_on_c, 0, 74, 85
2, 58552, Note_on_c, 0, 69, 0
2, 58552, Note_on_c, 0, 81, 0
2, 58563, Note_on_c, 0, 81, 77
2, 58563, Note_on_c, 0, 69, 77
2, 58564, Note_on_c, 0, 72, 62
2, 58575, Note_on_c, 0, 72, 0
2, 58640, Note_on_c, 0, 67, 79
2, 58644, Note_on_c, 0, 50, 0
2, 58693, Note_on_c, 0, 62, 80
2, 58768, Note_on_c, 0, 57, 73
2, 58864, Note_on_c, 0, 55, 76
2, 58967, Note_on_c, 0, 38, 0
2, 58970, Note_on_c, 0, 67, 0
2, 58970, Note_on_c, 0, 62, 0
2, 58970, Note_on_c, 0, 78, 0
2, 58970, Note_on_c, 0, 55, 0
2, 58970, Note_on_c, 0, 57, 0
2, 58971, Control_c, 0, 64, 0
2, 58974, Note_on_c, 0, 74, 0
2, 58974, Note_on_c, 0, 81, 0
2, 58981, Note_on_c, 0, 43, 82
2, 58982, Note_on_c, 0, 69, 0
2, 58985, Note_on_c, 0, 71, 93
2, 58985, Note_on_c, 0, 81, 99
2, 58985, Note_on_c, 0, 74, 89
2, 58987, Note_on_c, 0, 69, 92
2, 59074, Control_c, 0, 64, 127
2, 59078, Note_on_c, 0, 50, 71
2, 59158, Note_on_c, 0, 55, 72
2, 59259, Note_on_c, 0, 57, 72
2, 59328, Note_on_c, 0, 71, 0
2, 59333, Note_on_c, 0, 59, 77
2, 59334, Note_on_c, 0, 79, 93
2, 59338, Note_on_c, 0, 71, 76
2, 59352, Note_on_c, 0, 67, 69
2, 59420, Note_on_c, 0, 55, 0
2, 59426, Note_on_c, 0, 55, 69
2, 59512, Note_on_c, 0, 59, 0
2, 59517, Note_on_c, 0, 59, 74
2, 59600, Note_on_c, 0, 62, 67
2, 59665, Note_on_c, 0, 67, 0
2, 59665, Note_on_c, 0, 69, 0
2, 59665, Note_on_c, 0, 71, 0
2, 59665, Note_on_c, 0, 81, 0
2, 59669, Note_on_c, 0, 81, 99
2, 59670, Note_on_c, 0, 71, 90
2, 59670, Note_on_c, 0, 69, 91
2, 59673, Note_on_c, 0, 74, 0
2, 59676, Note_on_c, 0, 67, 84
2, 59677, Note_on_c, 0, 74, 79
2, 59750, Note_on_c, 0, 62, 0
2, 59759, Note_on_c, 0, 62, 67
2, 59834, Note_on_c, 0, 59, 0
2, 59840, Note_on_c, 0, 59, 77
2, 59911, Note_on_c, 0, 55, 0
2, 59917, Note_on_c, 0, 55, 71
2, 60003, Note_on_c, 0, 62, 0
2, 60010, Note_on_c, 0, 62, 67
2, 60011, Note_on_c, 0, 79, 0
2, 60017, Note_on_c, 0, 79, 92
2, 60019, Note_on_c, 0, 67, 0
2, 60025, Note_on_c, 0, 67, 83
2, 60049, Note_on_c, 0, 59, 0
2, 60058, Note_on_c, 0, 59, 84
2, 60157, Note_on_c, 0, 55, 0
2, 60161, Note_on_c, 0, 55, 74
2, 60188, Note_on_c, 0, 74, 0
2, 60192, Note_on_c, 0, 74, 86
2, 60234, Note_on_c, 0, 50, 0
2, 60242, Note_on_c, 0, 50, 78
2, 60353, Control_c, 0, 64, 0
2, 60353, Note_on_c, 0, 57, 0
2, 60353, Note_on_c, 0, 55, 0
2, 60353, Note_on_c, 0, 62, 0
2, 60354, Note_on_c, 0, 50, 0
2, 60354, Note_on_c, 0, 59, 0
2, 60354, Note_on_c, 0, 79, 0
2, 60356, Note_on_c, 0, 43, 0
2, 60361, Note_on_c, 0, 47, 73
2, 60364, Note_on_c, 0, 67, 0
2, 60364, Note_on_c, 0, 74, 0
2, 60364, Note_on_c, 0, 81, 0
2, 60372, Note_on_c, 0, 69, 0
2, 60372, Note_on_c, 0, 71, 0
2, 60375, Note_on_c, 0, 81, 102
2, 60375, Note_on_c, 0, 74, 93
2, 60377, Note_on_c, 0, 71, 91
2, 60377, Note_on_c, 0, 69, 90
2, 60441, Control_c, 0, 64, 127
2, 60453, Note_on_c, 0, 50, 67
2, 60523, Note_on_c, 0, 55, 62
2, 60621, Note_on_c, 0, 57, 65
2, 60699, Note_on_c, 0, 59, 74
2, 60709, Note_on_c, 0, 83, 97
2, 60710, Note_on_c, 0, 71, 0
2, 60715, Note_on_c, 0, 71, 88
2, 60825, Note_on_c, 0, 55, 0
2, 60836, Note_on_c, 0, 55, 59
2, 60879, Note_on_c, 0, 71, 0
2, 60879, Note_on_c, 0, 74, 0
2, 60879, Note_on_c, 0, 83, 0
2, 60883, Note_on_c, 0, 83, 98
2, 60883, Note_on_c, 0, 79, 90
2, 60884, Note_on_c, 0, 71, 90
2, 60885, Note_on_c, 0, 74, 83
2, 60917, Note_on_c, 0, 59, 0
2, 60923, Note_on_c, 0, 59, 74
2, 61000, Note_on_c, 0, 62, 67
2, 61056, Note_on_c, 0, 67, 86
2, 61132, Note_on_c, 0, 62, 0
2, 61136, Note_on_c, 0, 62, 79
2, 61201, Note_on_c, 0, 59, 0
2, 61208, Note_on_c, 0, 59, 83
2, 61232, Note_on_c, 0, 71, 0
2, 61232, Note_on_c, 0, 79, 0
2, 61237, Note_on_c, 0, 71, 75
2, 61238, Note_on_c, 0, 79, 93
2, 61286, Note_on_c, 0, 55, 0
2, 61296, Note_on_c, 0, 55, 68
2, 61386, Note_on_c, 0, 74, 0
2, 61386, Note_on_c, 0, 79, 0
2, 61393, Note_on_c, 0, 59, 0
2, 61394, Note_on_c, 0, 74, 72
2, 61397, Note_on_c, 0, 79, 94
2, 61404, Note_on_c, 0, 59, 85
2, 61509, Note_on_c, 0, 55, 0
2, 61516, Note_on_c, 0, 55, 65
2, 61562, Note_on_c, 0, 74, 0
2, 61562, Note_on_c, 0, 79, 0
2, 61573, Note_on_c, 0, 74, 96
2, 61574, Note_on_c, 0, 86, 98
2, 61574, Note_on_c, 0, 79, 88
2, 61579, Note_on_c, 0, 76, 91
2, 61585, Note_on_c, 0, 50, 0
2, 61590, Note_on_c, 0, 50, 74
2, 61599, Note_on_c, 0, 82, 47
2, 61712, Note_on_c, 0, 81, 0
2, 61713, Note_on_c, 0, 55, 0
2, 61713, Note_on_c, 0, 69, 0
2, 61713, Note_on_c, 0, 67, 0
2, 61713, Note_on_c, 0, 71, 0
2, 61713, Note_on_c, 0, 59, 0
2, 61713, Note_on_c, 0, 62, 0
2, 61713, Note_on_c, 0, 83, 0
2, 61714, Note_on_c, 0, 50, 0
2, 61715, Control_c, 0, 64, 0
2, 61715, Note_on_c, 0, 57, 0
2, 61716, Note_on_c, 0, 47, 0
2, 61716, Note_on_c, 0, 82, 0
2, 61729, Note_on_c, 0, 48, 85
2, 61802, Note_on_c, 0, 48, 0
2, 61831, Control_c, 0, 64, 127
2, 61834, Note_on_c, 0, 55, 72
2, 61912, Note_on_c, 0, 60, 82
2, 61996, Note_on_c, 0, 62, 75
2, 62082, Note_on_c, 0, 64, 78
2, 62085, Note_on_c, 0, 79, 0
2, 62090, Note_on_c, 0, 79, 93
2, 62169, Note_on_c, 0, 60, 0
2, 62174, Note_on_c, 0, 60, 76
2, 62246, Note_on_c, 0, 64, 0
2, 62246, Note_on_c, 0, 79, 0
2, 62257, Note_on_c, 0, 64, 77
2, 62257, Note_on_c, 0, 79, 92
2, 62333, Note_on_c, 0, 67, 72
2, 62418, Note_on_c, 0, 72, 85
2, 62492, Note_on_c, 0, 67, 0
2, 62499, Note_on_c, 0, 67, 79
2, 62553, Note_on_c, 0, 64, 0
2, 62561, Note_on_c, 0, 64, 77
2, 62599, Note_on_c, 0, 79, 0
2, 62605, Note_on_c, 0, 79, 97
2, 62661, Note_on_c, 0, 60, 0
2, 62671, Note_on_c, 0, 60, 75
2, 62722, Note_on_c, 0, 67, 0
2, 62733, Note_on_c, 0, 67, 78
2, 62760, Note_on_c, 0, 79, 0
2, 62765, Note_on_c, 0, 79, 99
2, 62791, Note_on_c, 0, 64, 0
2, 62801, Note_on_c, 0, 64, 83
2, 62899, Note_on_c, 0, 60, 0
2, 62909, Note_on_c, 0, 60, 82
2, 62922, Note_on_c, 0, 79, 0
2, 62922, Note_on_c, 0, 86, 0
2, 62929, Note_on_c, 0, 74, 0
2, 62930, Note_on_c, 0, 86, 94
2, 62933, Note_on_c, 0, 79, 89
2, 62935, Note_on_c, 0, 74, 91
2, 62938, Note_on_c, 0, 75, 91
2, 62991, Note_on_c, 0, 55, 0
2, 62996, Note_on_c, 0, 55, 74
2, 63080, Note_on_c, 0, 62, 0
2, 63080, Control_c, 0, 64, 0
2, 63080, Note_on_c, 0, 72, 0
2, 63081, Note_on_c, 0, 55, 0
2, 63083, Note_on_c, 0, 76, 0
2, 63091, Note_on_c, 0, 64, 0
2, 63098, Note_on_c, 0, 67, 0
2, 63104, Note_on_c, 0, 48, 84
2, 63106, Note_on_c, 0, 60, 0
2, 63151, Note_on_c, 0, 48, 0
2, 63183, Control_c, 0, 64, 127
2, 63187, Note_on_c, 0, 55, 71
2, 63261, Note_on_c, 0, 60, 81
2, 63356, Note_on_c, 0, 62, 63
2, 63423, Note_on_c, 0, 63, 70
2, 63444, Note_on_c, 0, 79, 0
2, 63448, Note_on_c, 0, 79, 89
2, 63544, Note_on_c, 0, 60, 0
2, 63552, Note_on_c, 0, 60, 77
2, 63605, Note_on_c, 0, 63, 0
2, 63605, Note_on_c, 0, 75, 0
2, 63605, Note_on_c, 0, 79, 0
2, 63613, Note_on_c, 0, 79, 96
2, 63616, Note_on_c, 0, 63, 71
2, 63616, Note_on_c, 0, 75, 74
2, 63733, Note_on_c, 0, 67, 57
2, 63787, Note_on_c, 0, 72, 88
2, 63866, Note_on_c, 0, 67, 0
2, 63873, Note_on_c, 0, 67, 69
2, 63928, Note_on_c, 0, 63, 0
2, 63932, Note_on_c, 0, 78, 103
2, 63933, Note_on_c, 0, 63, 76
2, 64012, Note_on_c, 0, 60, 0
2, 64022, Note_on_c, 0, 60, 71
2, 64089, Note_on_c, 0, 67, 0
2, 64089, Note_on_c, 0, 79, 0
2, 64098, Note_on_c, 0, 67, 71
2, 64100, Note_on_c, 0, 79, 95
2, 64128, Note_on_c, 0, 63, 0
2, 64137, Note_on_c, 0, 63, 71
2, 64235, Note_on_c, 0, 60, 0
2, 64243, Note_on_c, 0, 60, 73
2, 64269, Note_on_c, 0, 88, 97
2, 64276, Note_on_c, 0, 76, 87
2, 64320, Note_on_c, 0, 55, 0
2, 64329, Note_on_c, 0, 55, 70
2, 64430, Control_c, 0, 64, 0
2, 64430, Note_on_c, 0, 62, 0
2, 64430, Note_on_c, 0, 67, 0
2, 64430, Note_on_c, 0, 75, 0
2, 64431, Note_on_c, 0, 63, 0
2, 64431, Note_on_c, 0, 76, 0
2, 64431, Note_on_c, 0, 72, 0
2, 64431, Note_on_c, 0, 79, 0
2, 64431, Note_on_c, 0, 88, 0
2, 64442, Note_on_c, 0, 55, 0
2, 64442, Note_on_c, 0, 74, 0
2, 64442, Note_on_c, 0, 78, 0
2, 64442, Note_on_c, 0, 86, 0
2, 64444, Note_on_c, 0, 47, 84
2, 64447, Note_on_c, 0, 86, 96
2, 64450, Note_on_c, 0, 60, 0
2, 64451, Note_on_c, 0, 81, 89
2, 64451, Note_on_c, 0, 74, 94
2, 64451, Note_on_c, 0, 78, 92
2, 64522, Note_on_c, 0, 47, 0
2, 64535, Control_c, 0, 64, 127
2, 64541, Note_on_c, 0, 54, 66
2, 64608, Note_on_c, 0, 59, 80
2, 64699, Note_on_c, 0, 62, 63
2, 64779, Note_on_c, 0, 66, 73
2, 64865, Note_on_c, 0, 59, 0
2, 64876, Note_on_c, 0, 59, 81
2, 64942, Note_on_c, 0, 62, 0
2, 64946, Note_on_c, 0, 62, 67
2, 65034, Note_on_c, 0, 66, 0
2, 65038, Note_on_c, 0, 66, 79
2, 65123, Note_on_c, 0, 71, 91
2, 65125, Note_on_c, 0, 79, 98
2, 65180, Note_on_c, 0, 66, 0
2, 65187, Note_on_c, 0, 66, 72
2, 65249, Note_on_c, 0, 62, 0
2, 65254, Note_on_c, 0, 62, 87
2, 65295, Note_on_c, 0, 81, 0
2, 65301, Note_on_c, 0, 81, 98
2, 65349, Note_on_c, 0, 59, 0
2, 65359, Note_on_c, 0, 59, 84
2, 65456, Note_on_c, 0, 54, 0
2, 65460, Note_on_c, 0, 54, 74
2, 65460, Note_on_c, 0, 83, 99
2, 65520, Note_on_c, 0, 50, 71
2, 65633, Note_on_c, 0, 81, 0
2, 65637, Note_on_c, 0, 88, 105
2, 65640, Note_on_c, 0, 49, 82
2, 65644, Note_on_c, 0, 81, 92
2, 65645, Note_on_c, 0, 76, 97
2, 65651, Note_on_c, 0, 85, 89
2, 65662, Note_on_c, 0, 62, 0
2, 65662, Note_on_c, 0, 74, 0
2, 65662, Note_on_c, 0, 86, 0
2, 65662, Note_on_c, 0, 79, 0
2, 65663, Note_on_c, 0, 59, 0
2, 65663, Note_on_c, 0, 71, 0
2, 65664, Note_on_c, 0, 66, 0
2, 65666, Note_on_c, 0, 83, 0
2, 65666, Note_on_c, 0, 78, 0
2, 65666, Note_on_c, 0, 54, 0
2, 65666, Note_on_c, 0, 50, 0
2, 65666, Control_c, 0, 64, 0
2, 65963, Control_c, 0, 64, 127
2, 66000, Note_on_c, 0, 57, 70
2, 66102, Note_on_c, 0, 61, 71
2, 66156, Note_on_c, 0, 64, 73
2, 66256, Note_on_c, 0, 69, 67
2, 66331, Note_on_c, 0, 73, 81
2, 66408, Note_on_c, 0, 76, 0
2, 66415, Note_on_c, 0, 76, 80
2, 66510, Note_on_c, 0, 79, 92
2, 66693, Note_on_c, 0, 81, 0
2, 66698, Note_on_c, 0, 81, 90
2, 66853, Note_on_c, 0, 83, 95
2, 67031, Note_on_c, 0, 76, 0
2, 67031, Note_on_c, 0, 79, 0
2, 67035, Note_on_c, 0, 79, 90
2, 67042, Note_on_c, 0, 76, 84
2, 67042, Note_on_c, 0, 67, 77
2, 67043, Note_on_c, 0, 72, 78
2, 67144, Note_on_c, 0, 85, 0
2, 67144, Note_on_c, 0, 69, 0
2, 67145, Control_c, 0, 64, 0
2, 67146, Note_on_c, 0, 73, 0
2, 67146, Note_on_c, 0, 57, 0
2, 67146, Note_on_c, 0, 61, 0
2, 67146, Note_on_c, 0, 88, 0
2, 67146, Note_on_c, 0, 64, 0
2, 67147, Note_on_c, 0, 83, 0
2, 67147, Note_on_c, 0, 49, 0
2, 67147, Note_on_c, 0, 81, 0
2, 67196, Note_on_c, 0, 45, 76
2, 67253, Control_c, 0, 64, 127
2, 67292, Note_on_c, 0, 52, 71
2, 67349, Note_on_c, 0, 57, 78
2, 67379, Note_on_c, 0, 81, 88
2, 67381, Note_on_c, 0, 69, 81
2, 67458, Note_on_c, 0, 60, 79
2, 67537, Note_on_c, 0, 69, 0
2, 67547, Note_on_c, 0, 64, 85
2, 67548, Note_on_c, 0, 83, 84
2, 67549, Note_on_c, 0, 69, 75
2, 67549, Note_on_c, 0, 71, 77
2, 67714, Note_on_c, 0, 79, 0
2, 67720, Note_on_c, 0, 79, 94
2, 67722, Note_on_c, 0, 67, 0
2, 67722, Note_on_c, 0, 71, 0
2, 67725, Note_on_c, 0, 74, 83
2, 67726, Note_on_c, 0, 71, 76
2, 67732, Note_on_c, 0, 67, 82
2, 67856, Control_c, 0, 64, 0
2, 67857, Note_on_c, 0, 81, 0
2, 67858, Note_on_c, 0, 52, 0
2, 67858, Note_on_c, 0, 57, 0
2, 67858, Note_on_c, 0, 83, 0
2, 67858, Note_on_c, 0, 69, 0
2, 67858, Note_on_c, 0, 64, 0
2, 67859, Note_on_c, 0, 60, 0
2, 67859, Note_on_c, 0, 72, 0
2, 67868, Note_on_c, 0, 45, 0
2, 67875, Note_on_c, 0, 76, 0
2, 67886, Note_on_c, 0, 47, 79
2, 67952, Control_c, 0, 64, 127
2, 67964, Note_on_c, 0, 50, 70
2, 68048, Note_on_c, 0, 55, 71
2, 68063, Note_on_c, 0, 81, 95
2, 68065, Note_on_c, 0, 69, 90
2, 68115, Note_on_c, 0, 59, 84
2, 68229, Note_on_c, 0, 71, 0
2, 68232, Note_on_c, 0, 83, 99
2, 68233, Note_on_c, 0, 62, 79
2, 68234, Note_on_c, 0, 71, 94
2, 68413, Note_on_c, 0, 79, 0
2, 68420, Note_on_c, 0, 88, 102
2, 68424, Note_on_c, 0, 84, 84
2, 68424, Note_on_c, 0, 79, 91
2, 68424, Note_on_c, 0, 76, 95
2, 68500, Control_c, 0, 64, 0
2, 68501, Note_on_c, 0, 81, 0
2, 68501, Note_on_c, 0, 74, 0
2, 68501, Note_on_c, 0, 69, 0
2, 68502, Note_on_c, 0, 83, 0
2, 68502, Note_on_c, 0, 59, 0
2, 68502, Note_on_c, 0, 50, 0
2, 68502, Note_on_c, 0, 71, 0
2, 68502, Note_on_c, 0, 67, 0
2, 68502, Note_on_c, 0, 55, 0
2, 68502, Note_on_c, 0, 62, 0
2, 68513, Note_on_c, 0, 47, 0
2, 68567, Note_on_c, 0, 48, 80
2, 68643, Control_c, 0, 64, 127
2, 68674, Note_on_c, 0, 55, 72
2, 68746, Note_on_c, 0, 60, 78
2, 68835, Note_on_c, 0, 62, 65
2, 68915, Note_on_c, 0, 64, 67
2, 68920, Note_on_c, 0, 48, 0
2, 68989, Note_on_c, 0, 60, 0
2, 68994, Note_on_c, 0, 60, 75
2, 69096, Note_on_c, 0, 64, 0
2, 69101, Note_on_c, 0, 64, 53
2, 69171, Note_on_c, 0, 67, 62
2, 69248, Note_on_c, 0, 72, 82
2, 69319, Note_on_c, 0, 67, 0
2, 69327, Note_on_c, 0, 67, 69
2, 69404, Note_on_c, 0, 64, 0
2, 69411, Note_on_c, 0, 64, 72
2, 69488, Note_on_c, 0, 62, 0
2, 69492, Note_on_c, 0, 62, 81
2, 69596, Note_on_c, 0, 60, 0
2, 69602, Note_on_c, 0, 60, 76
2, 69696, Note_on_c, 0, 55, 0
2, 69700, Note_on_c, 0, 55, 66
2, 69781, Note_on_c, 0, 52, 65
2, 69868, Note_on_c, 0, 48, 68
2, 70020, Control_c, 0, 64, 0
2, 70022, Note_on_c, 0, 52, 0
2, 70022, Note_on_c, 0, 60, 0
2, 70023, Note_on_c, 0, 64, 0
2, 70023, Note_on_c, 0, 88, 0
2, 70023, Note_on_c, 0, 76, 0
2, 70023, Note_on_c, 0, 55, 0
2, 70023, Note_on_c, 0, 72, 0
2, 70023, Note_on_c, 0, 62, 0
2, 70024, Note_on_c, 0, 48, 0
2, 70024, Note_on_c, 0, 67, 0
2, 70031, Note_on_c, 0, 50, 71
2, 70039, Note_on_c, 0, 38, 68
2, 70717, Note_on_c, 0, 84, 0
2, 70722, Note_on_c, 0, 84, 71
2, 70725, Control_c, 0, 64, 127
2, 70727, Note_on_c, 0, 72, 70
2, 71040, Note_on_c, 0, 79, 0
2, 71082, Control_c, 0, 64, 0
2, 71082, Note_on_c, 0, 72, 0
2, 71092, Note_on_c, 0, 83, 75
2, 71120, Note_on_c, 0, 71, 64
2, 71132, Control_c, 0, 64, 127
2, 71324, Note_on_c, 0, 79, 75
2, 71327, Note_on_c, 0, 67, 65
2, 71416, Note_on_c, 0, 84, 0
2, 71543, Note_on_c, 0, 81, 80
2, 71549, Note_on_c, 0, 69, 64
2, 71749, Note_on_c, 0, 38, 0
2, 71749, Note_on_c, 0, 67, 0
2, 71750, Note_on_c, 0, 83, 0
2, 71750, Note_on_c, 0, 50, 0
2, 71750, Note_on_c, 0, 79, 0
2, 71750, Note_on_c, 0, 71, 0
2, 71752, Note_on_c, 0, 47, 58
2, 71753, Control_c, 0, 64, 0
2, 71869, Control_c, 0, 64, 127
2, 71965, Note_on_c, 0, 79, 82
2, 71970, Note_on_c, 0, 55, 63
2, 72003, Note_on_c, 0, 67, 40
2, 72209, Note_on_c, 0, 74, 66
2, 72384, Note_on_c, 0, 69, 0
2, 72392, Note_on_c, 0, 69, 64
2, 72412, Note_on_c, 0, 62, 49
2, 72514, Note_on_c, 0, 81, 0
2, 72583, Note_on_c, 0, 67, 0
2, 72588, Note_on_c, 0, 67, 57
2, 72760, Note_on_c, 0, 74, 0
2, 72766, Note_on_c, 0, 74, 64
2, 72768, Note_on_c, 0, 55, 0
2, 72774, Note_on_c, 0, 55, 51
2, 72936, Note_on_c, 0, 69, 0
2, 72946, Note_on_c, 0, 69, 59
2, 73105, Note_on_c, 0, 67, 0
2, 73115, Note_on_c, 0, 67, 56
2, 73297, Note_on_c, 0, 69, 0
2, 73303, Note_on_c, 0, 48, 56
2, 73308, Note_on_c, 0, 69, 54
2, 73322, Control_c, 0, 64, 0
2, 73324, Note_on_c, 0, 62, 0
2, 73324, Note_on_c, 0, 67, 0
2, 73324, Note_on_c, 0, 55, 0
2, 73325, Note_on_c, 0, 47, 0
2, 73325, Note_on_c, 0, 79, 0
2, 73326, Note_on_c, 0, 74, 0
2, 73451, Control_c, 0, 64, 127
2, 73485, Note_on_c, 0, 55, 59
2, 73487, Note_on_c, 0, 67, 56
2, 73661, Note_on_c, 0, 74, 54
2, 73827, Note_on_c, 0, 69, 0
2, 73833, Note_on_c, 0, 69, 61
2, 73836, Note_on_c, 0, 64, 60
2, 74012, Note_on_c, 0, 67, 0
2, 74020, Note_on_c, 0, 67, 62
2, 74196, Note_on_c, 0, 55, 0
2, 74196, Note_on_c, 0, 74, 0
2, 74201, Note_on_c, 0, 55, 53
2, 74201, Note_on_c, 0, 74, 60
2, 74373, Note_on_c, 0, 69, 0
2, 74383, Note_on_c, 0, 69, 72
2, 74542, Note_on_c, 0, 67, 0
2, 74548, Note_on_c, 0, 67, 67
2, 74714, Note_on_c, 0, 69, 0
2, 74714, Note_on_c, 0, 48, 0
2, 74714, Note_on_c, 0, 64, 0
2, 74714, Control_c, 0, 64, 0
2, 74714, Note_on_c, 0, 55, 0
2, 74715, Note_on_c, 0, 67, 0
2, 74734, Note_on_c, 0, 74, 0
2, 74737, Note_on_c, 0, 78, 89
2, 74737, Note_on_c, 0, 50, 61
2, 74743, Note_on_c, 0, 74, 72
2, 74841, Control_c, 0, 64, 127
2, 74923, Note_on_c, 0, 57, 56
2, 75075, Note_on_c, 0, 62, 64
2, 75088, Note_on_c, 0, 69, 66
2, 75248, Note_on_c, 0, 78, 0
2, 75253, Note_on_c, 0, 78, 89
2, 75253, Note_on_c, 0, 66, 67
2, 75428, Note_on_c, 0, 81, 94
2, 75443, Note_on_c, 0, 62, 0
2, 75443, Note_on_c, 0, 74, 0
2, 75444, Note_on_c, 0, 69, 0
2, 75444, Note_on_c, 0, 57, 0
2, 75445, Note_on_c, 0, 50, 0
2, 75446, Note_on_c, 0, 71, 73
2, 75446, Note_on_c, 0, 78, 0
2, 75446, Note_on_c, 0, 51, 63
2, 75446, Note_on_c, 0, 66, 0
2, 75450, Note_on_c, 0, 75, 71
2, 75451, Control_c, 0, 64, 0
2, 75571, Control_c, 0, 64, 127
2, 75612, Note_on_c, 0, 59, 69
2, 75613, Note_on_c, 0, 79, 83
2, 75788, Note_on_c, 0, 78, 84
2, 75801, Note_on_c, 0, 63, 50
2, 75953, Control_c, 0, 64, 0
2, 75960, Note_on_c, 0, 59, 0
2, 75961, Note_on_c, 0, 51, 0
2, 75961, Note_on_c, 0, 81, 0
2, 75962, Note_on_c, 0, 75, 0
2, 75962, Note_on_c, 0, 79, 0
2, 75963, Note_on_c, 0, 78, 0
2, 75968, Note_on_c, 0, 79, 92
2, 75977, Note_on_c, 0, 76, 68
2, 75981, Note_on_c, 0, 52, 65
2, 75985, Note_on_c, 0, 63, 0
2, 76346, Control_c, 0, 64, 127
2, 76350, Note_on_c, 0, 59, 58
2, 76533, Note_on_c, 0, 64, 60
2, 76713, Note_on_c, 0, 67, 58
2, 77080, Note_on_c, 0, 69, 71
2, 77241, Control_c, 0, 64, 0
2, 77242, Note_on_c, 0, 64, 0
2, 77242, Note_on_c, 0, 59, 0
2, 77242, Note_on_c, 0, 76, 0
2, 77243, Note_on_c, 0, 67, 0
2, 77244, Note_on_c, 0, 79, 0
2, 77249, Note_on_c, 0, 69, 0
2, 77253, Note_on_c, 0, 52, 0
2, 77253, Note_on_c, 0, 71, 0
2, 77259, Note_on_c, 0, 52, 59
2, 77260, Note_on_c, 0, 71, 77
2, 77314, Control_c, 0, 64, 127
2, 77440, Note_on_c, 0, 72, 84
2, 77457, Note_on_c, 0, 64, 67
2, 77463, Note_on_c, 0, 69, 66
2, 77509, Note_on_c, 0, 52, 0
2, 77510, Control_c, 0, 64, 0
2, 77511, Note_on_c, 0, 71, 0
2, 77610, Note_on_c, 0, 45, 62
2, 77614, Control_c, 0, 64, 127
2, 77792, Note_on_c, 0, 74, 68
2, 77794, Note_on_c, 0, 52, 63
2, 77848, Note_on_c, 0, 76, 74
2, 77902, Note_on_c, 0, 78, 74
2, 77962, Note_on_c, 0, 79, 86
2, 77966, Note_on_c, 0, 57, 64
2, 78010, Note_on_c, 0, 81, 79
2, 78050, Note_on_c, 0, 83, 78
2, 78123, Note_on_c, 0, 74, 0
2, 78124, Note_on_c, 0, 72, 0
2, 78124, Control_c, 0, 64, 0
2, 78124, Note_on_c, 0, 52, 0
2, 78124, Note_on_c, 0, 81, 0
2, 78124, Note_on_c, 0, 57, 0
2, 78124, Note_on_c, 0, 79, 0
2, 78124, Note_on_c, 0, 78, 0
2, 78125, Note_on_c, 0, 69, 0
2, 78136, Note_on_c, 0, 64, 0
2, 78139, Note_on_c, 0, 84, 84
2, 78144, Note_on_c, 0, 76, 0
2, 78148, Note_on_c, 0, 76, 72
2, 78156, Note_on_c, 0, 60, 57
2, 78213, Control_c, 0, 64, 127
2, 78412, Note_on_c, 0, 83, 0
2, 78484, Note_on_c, 0, 71, 79
2, 78485, Note_on_c, 0, 52, 58
2, 78652, Note_on_c, 0, 72, 81
2, 78658, Note_on_c, 0, 60, 0
2, 78664, Note_on_c, 0, 60, 66
2, 78842, Note_on_c, 0, 71, 0
2, 78846, Note_on_c, 0, 74, 88
2, 78853, Note_on_c, 0, 71, 76
2, 78861, Note_on_c, 0, 67, 72
2, 78909, Control_c, 0, 64, 0
2, 78910, Note_on_c, 0, 52, 0
2, 78910, Note_on_c, 0, 60, 0
2, 78912, Note_on_c, 0, 45, 0
2, 78913, Note_on_c, 0, 72, 0
2, 78919, Note_on_c, 0, 84, 0
2, 78927, Note_on_c, 0, 76, 0
2, 78996, Control_c, 0, 64, 127
2, 79007, Note_on_c, 0, 47, 71
2, 79027, Note_on_c, 0, 67, 0
2, 79166, Note_on_c, 0, 76, 79
2, 79201, Note_on_c, 0, 55, 64
2, 79228, Note_on_c, 0, 78, 84
2, 79285, Note_on_c, 0, 79, 70
2, 79335, Note_on_c, 0, 81, 90
2, 79353, Note_on_c, 0, 59, 72
2, 79386, Note_on_c, 0, 83, 84
2, 79438, Note_on_c, 0, 84, 77
2, 79500, Note_on_c, 0, 74, 0
2, 79500, Note_on_c, 0, 47, 0
2, 79500, Note_on_c, 0, 76, 0
2, 79500, Note_on_c, 0, 81, 0
2, 79500, Control_c, 0, 64, 0
2, 79501, Note_on_c, 0, 78, 0
2, 79501, Note_on_c, 0, 55, 0
2, 79511, Note_on_c, 0, 71, 0
2, 79519, Note_on_c, 0, 86, 88
2, 79526, Note_on_c, 0, 83, 0
2, 79532, Note_on_c, 0, 83, 76
2, 79534, Note_on_c, 0, 79, 0
2, 79534, Note_on_c, 0, 62, 62
2, 79540, Note_on_c, 0, 79, 70
2, 79549, Note_on_c, 0, 84, 0
2, 79587, Control_c, 0, 64, 127
2, 79861, Note_on_c, 0, 67, 78
2, 79863, Note_on_c, 0, 55, 65
2, 80040, Note_on_c, 0, 62, 0
2, 80043, Note_on_c, 0, 69, 81
2, 80049, Note_on_c, 0, 62, 66
2, 80228, Note_on_c, 0, 70, 82
2, 80232, Note_on_c, 0, 67, 0
2, 80238, Note_on_c, 0, 67, 62
2, 80242, Note_on_c, 0, 63, 62
2, 80320, Note_on_c, 0, 83, 0
2, 80320, Note_on_c, 0, 62, 0
2, 80320, Control_c, 0, 64, 0
2, 80320, Note_on_c, 0, 86, 0
2, 80320, Note_on_c, 0, 55, 0
2, 80320, Note_on_c, 0, 69, 0
2, 80321, Note_on_c, 0, 79, 0
2, 80325, Note_on_c, 0, 59, 0
2, 80398, Note_on_c, 0, 48, 68
2, 80417, Control_c, 0, 64, 127
2, 80575, Note_on_c, 0, 72, 71
2, 80576, Note_on_c, 0, 55, 67
2, 80642, Note_on_c, 0, 74, 75
2, 80695, Note_on_c, 0, 75, 76
2, 80727, Note_on_c, 0, 58, 72
2, 80744, Note_on_c, 0, 77, 93
2, 80803, Note_on_c, 0, 79, 76
2, 80843, Note_on_c, 0, 81, 85
2, 80922, Note_on_c, 0, 82, 87
2, 80922, Control_c, 0, 64, 0
2, 80924, Note_on_c, 0, 67, 0
2, 80924, Note_on_c, 0, 70, 0
2, 80925, Note_on_c, 0, 72, 0
2, 80926, Note_on_c, 0, 55, 0
2, 80926, Note_on_c, 0, 74, 0
2, 80926, Note_on_c, 0, 79, 0
2, 80927, Note_on_c, 0, 77, 0
2, 80931, Note_on_c, 0, 63, 0
2, 80931, Note_on_c, 0, 75, 0
2, 80938, Note_on_c, 0, 63, 64
2, 80942, Note_on_c, 0, 75, 79
2, 80970, Note_on_c, 0, 81, 0
2, 81031, Control_c, 0, 64, 127
2, 81085, Note_on_c, 0, 48, 0
2, 81268, Note_on_c, 0, 72, 85
2, 81289, Note_on_c, 0, 55, 59
2, 81433, Note_on_c, 0, 70, 84
2, 81446, Note_on_c, 0, 63, 0
2, 81456, Note_on_c, 0, 63, 58
2, 81617, Note_on_c, 0, 69, 83
2, 81737, Control_c, 0, 64, 0
2, 81739, Note_on_c, 0, 72, 0
2, 81739, Note_on_c, 0, 55, 0
2, 81739, Note_on_c, 0, 70, 0
2, 81739, Note_on_c, 0, 82, 0
2, 81739, Note_on_c, 0, 63, 0
2, 81745, Note_on_c, 0, 58, 0
2, 81745, Note_on_c, 0, 75, 0
2, 81782, Note_on_c, 0, 50, 66
2, 81937, Control_c, 0, 64, 127
2, 81974, Note_on_c, 0, 74, 68
2, 81988, Note_on_c, 0, 57, 56
2, 82051, Note_on_c, 0, 76, 66
2, 82108, Note_on_c, 0, 78, 71
2, 82142, Note_on_c, 0, 62, 70
2, 82183, Note_on_c, 0, 76, 0
2, 82188, Note_on_c, 0, 76, 69
2, 82222, Note_on_c, 0, 74, 0
2, 82228, Note_on_c, 0, 74, 77
2, 82260, Note_on_c, 0, 62, 0
2, 82270, Note_on_c, 0, 62, 48
2, 82306, Note_on_c, 0, 76, 0
2, 82311, Note_on_c, 0, 76, 66
2, 82360, Note_on_c, 0, 78, 0
2, 82370, Note_on_c, 0, 78, 79
2, 82425, Note_on_c, 0, 79, 65
2, 82478, Note_on_c, 0, 81, 77
2, 82488, Note_on_c, 0, 67, 67
2, 82536, Note_on_c, 0, 79, 0
2, 82541, Note_on_c, 0, 79, 82
2, 82575, Note_on_c, 0, 78, 0
2, 82579, Note_on_c, 0, 78, 82
2, 82652, Note_on_c, 0, 79, 0
2, 82662, Note_on_c, 0, 79, 81
2, 82721, Note_on_c, 0, 81, 0
2, 82726, Note_on_c, 0, 81, 80
2, 82785, Note_on_c, 0, 83, 74
2, 82844, Note_on_c, 0, 69, 0
2, 82845, Note_on_c, 0, 84, 81
2, 82848, Note_on_c, 0, 69, 66
2, 82905, Note_on_c, 0, 83, 0
2, 82913, Note_on_c, 0, 83, 83
2, 82990, Note_on_c, 0, 81, 0
2, 82998, Note_on_c, 0, 81, 82
2, 83066, Note_on_c, 0, 83, 0
2, 83075, Note_on_c, 0, 83, 79
2, 83120, Note_on_c, 0, 84, 0
2, 83129, Note_on_c, 0, 84, 72
2, 83233, Note_on_c, 0, 85, 68
2, 83372, Note_on_c, 0, 86, 81
2, 83381, Note_on_c, 0, 74, 0
2, 83381, Note_on_c, 0, 78, 0
2, 83381, Note_on_c, 0, 81, 0
2, 83385, Note_on_c, 0, 81, 59
2, 83385, Note_on_c, 0, 78, 66
2, 83391, Note_on_c, 0, 74, 56
2, 83401, Note_on_c, 0, 83, 0
2, 83401, Note_on_c, 0, 84, 0
2, 83401, Note_on_c, 0, 85, 0
2, 83402, Note_on_c, 0, 76, 0
2, 83402, Note_on_c, 0, 79, 0
2, 83403, Note_on_c, 0, 67, 0
2, 83407, Control_c, 0, 64, 0
2, 83412, Note_on_c, 0, 57, 0
2, 83420, Note_on_c, 0, 50, 0
2, 84664, Control_c, 0, 64, 127
2, 85463, Note_on_c, 0, 62, 0
2, 85467, Control_c, 0, 64, 0
2, 85468, Note_on_c, 0, 86, 0
2, 85474, Note_on_c, 0, 74, 0
2, 85478, Note_on_c, 0, 69, 0
2, 85486, Note_on_c, 0, 78, 0
2, 85501, Note_on_c, 0, 81, 0
2, 85705, Note_on_c, 0, 81, 46
2, 85771, Note_on_c, 0, 83, 53
2, 85823, Note_on_c, 0, 86, 63
2, 85824, Control_c, 0, 64, 127
2, 85870, Note_on_c, 0, 81, 0
2, 85896, Note_on_c, 0, 93, 79
2, 85898, Note_on_c, 0, 55, 44
2, 86164, Note_on_c, 0, 62, 41
2, 86357, Note_on_c, 0, 91, 77
2, 86381, Note_on_c, 0, 71, 37
2, 86386, Note_on_c, 0, 79, 49
2, 86578, Note_on_c, 0, 67, 55
2, 86753, Note_on_c, 0, 93, 0
2, 86762, Note_on_c, 0, 93, 83
2, 86785, Note_on_c, 0, 81, 59
2, 86791, Note_on_c, 0, 74, 47
2, 86968, Note_on_c, 0, 67, 0
2, 86973, Note_on_c, 0, 67, 46
2, 87160, Note_on_c, 0, 91, 0
2, 87165, Note_on_c, 0, 91, 80
2, 87183, Note_on_c, 0, 71, 0
2, 87183, Note_on_c, 0, 79, 0
2, 87187, Note_on_c, 0, 79, 63
2, 87193, Note_on_c, 0, 71, 51
2, 87375, Note_on_c, 0, 86, 0
2, 87383, Note_on_c, 0, 62, 0
2, 87383, Note_on_c, 0, 74, 0
2, 87386, Note_on_c, 0, 86, 62
2, 87387, Note_on_c, 0, 74, 54
2, 87390, Note_on_c, 0, 62, 54
2, 87582, Note_on_c, 0, 93, 0
2, 87592, Note_on_c, 0, 93, 80
2, 87605, Note_on_c, 0, 71, 0
2, 87605, Note_on_c, 0, 81, 0
2, 87608, Note_on_c, 0, 59, 57
2, 87610, Note_on_c, 0, 81, 65
2, 87613, Note_on_c, 0, 71, 49
2, 87623, Control_c, 0, 64, 0
2, 87625, Note_on_c, 0, 86, 0
2, 87625, Note_on_c, 0, 74, 0
2, 87625, Note_on_c, 0, 91, 0
2, 87626, Note_on_c, 0, 79, 0
2, 87626, Note_on_c, 0, 67, 0
2, 87636, Note_on_c, 0, 55, 0
2, 87644, Note_on_c, 0, 62, 0
2, 87644, Note_on_c, 0, 83, 0
2, 87651, Note_on_c, 0, 71, 0
2, 87720, Control_c, 0, 64, 127
2, 87821, Note_on_c, 0, 62, 48
2, 88023, Note_on_c, 0, 95, 81
2, 88029, Note_on_c, 0, 71, 57
2, 88031, Note_on_c, 0, 83, 68
2, 88220, Note_on_c, 0, 95, 0
2, 88225, Note_on_c, 0, 95, 82
2, 88235, Note_on_c, 0, 83, 0
2, 88241, Note_on_c, 0, 67, 48
2, 88245, Note_on_c, 0, 83, 70
2, 88247, Note_on_c, 0, 79, 53
2, 88459, Note_on_c, 0, 74, 52
2, 88665, Note_on_c, 0, 67, 0
2, 88665, Note_on_c, 0, 79, 0
2, 88669, Note_on_c, 0, 91, 78
2, 88674, Note_on_c, 0, 79, 78
2, 88675, Note_on_c, 0, 67, 52
2, 88888, Note_on_c, 0, 71, 0
2, 88888, Note_on_c, 0, 79, 0
2, 88888, Note_on_c, 0, 91, 0
2, 88896, Note_on_c, 0, 91, 84
2, 88898, Note_on_c, 0, 79, 82
2, 88899, Note_on_c, 0, 71, 57
2, 89130, Note_on_c, 0, 98, 88
2, 89134, Note_on_c, 0, 62, 0
2, 89139, Note_on_c, 0, 62, 54
2, 89141, Note_on_c, 0, 79, 0
2, 89144, Note_on_c, 0, 86, 80
2, 89145, Note_on_c, 0, 79, 58
2, 89340, Note_on_c, 0, 81, 0
2, 89342, Note_on_c, 0, 93, 0
2, 89342, Note_on_c, 0, 59, 0
2, 89344, Note_on_c, 0, 74, 0
2, 89344, Note_on_c, 0, 62, 0
2, 89344, Note_on_c, 0, 95, 0
2, 89344, Note_on_c, 0, 67, 0
2, 89345, Note_on_c, 0, 83, 0
2, 89345, Control_c, 0, 64, 0
2, 89362, Note_on_c, 0, 60, 60
2, 89364, Note_on_c, 0, 71, 0
2, 89472, Control_c, 0, 64, 127
2, 89571, Note_on_c, 0, 60, 0
2, 89606, Note_on_c, 0, 67, 52
2, 89817, Note_on_c, 0, 91, 0
2, 89825, Note_on_c, 0, 79, 0
2, 89828, Note_on_c, 0, 91, 77
2, 89831, Note_on_c, 0, 79, 72
2, 89834, Note_on_c, 0, 72, 58
2, 89848, Note_on_c, 0, 98, 0
2, 90071, Note_on_c, 0, 67, 0
2, 90071, Note_on_c, 0, 79, 0
2, 90071, Note_on_c, 0, 91, 0
2, 90075, Note_on_c, 0, 91, 71
2, 90077, Note_on_c, 0, 79, 73
2, 90080, Note_on_c, 0, 67, 46
2, 90314, Note_on_c, 0, 76, 59
2, 90554, Note_on_c, 0, 79, 0
2, 90554, Note_on_c, 0, 91, 0
2, 90559, Note_on_c, 0, 91, 74
2, 90565, Note_on_c, 0, 79, 72
2, 90593, Note_on_c, 0, 67, 0
2, 90604, Note_on_c, 0, 67, 45
2, 90625, Note_on_c, 0, 60, 25
2, 90823, Note_on_c, 0, 72, 0
2, 90823, Note_on_c, 0, 79, 0
2, 90823, Note_on_c, 0, 91, 0
2, 90827, Note_on_c, 0, 91, 75
2, 90834, Note_on_c, 0, 72, 65
2, 90834, Note_on_c, 0, 79, 71
2, 91092, Note_on_c, 0, 67, 0
2, 91102, Note_on_c, 0, 67, 54
2, 91104, Note_on_c, 0, 98, 86
2, 91107, Note_on_c, 0, 86, 0
2, 91117, Note_on_c, 0, 86, 78
2, 91376, Note_on_c, 0, 60, 0
2, 91380, Note_on_c, 0, 60, 56
2, 91387, Note_on_c, 0, 72, 0
2, 91387, Note_on_c, 0, 67, 0
2, 91388, Note_on_c, 0, 76, 0
2, 91396, Control_c, 0, 64, 0
2, 91407, Note_on_c, 0, 79, 0
2, 91514, Control_c, 0, 64, 127
2, 91651, Note_on_c, 0, 67, 51
2, 91973, Note_on_c, 0, 72, 55
2, 92301, Note_on_c, 0, 75, 57
2, 92712, Note_on_c, 0, 91, 0
2, 92722, Note_on_c, 0, 91, 73
2, 92743, Note_on_c, 0, 79, 65
2, 93804, Note_on_c, 0, 93, 65
2, 93807, Note_on_c, 0, 81, 59
2, 94080, Note_on_c, 0, 60, 0
2, 94080, Note_on_c, 0, 67, 0
2, 94080, Note_on_c, 0, 86, 0
2, 94080, Note_on_c, 0, 98, 0
2, 95375, Note_on_c, 0, 75, 0
2, 95376, Note_on_c, 0, 72, 0
2, 95376, Note_on_c, 0, 81, 0
2, 95377, Note_on_c, 0, 93, 0
2, 95378, Note_on_c, 0, 79, 0
2, 95378, Note_on_c, 0, 91, 0
2, 95389, Control_c, 0, 64, 0
2, 95436, Note_on_c, 0, 71, 106
2, 95439, Note_on_c, 0, 59, 105
2, 95440, Note_on_c, 0, 31, 88
2, 95442, Note_on_c, 0, 67, 96
2, 95442, Note_on_c, 0, 62, 99
2, 95442, Note_on_c, 0, 43, 95
2, 95470, Control_c, 0, 64, 127
2, 95718, Note_on_c, 0, 69, 37
2, 95723, Note_on_c, 0, 69, 0
2, 95763, Note_on_c, 0, 55, 67
2, 95815, Note_on_c, 0, 59, 0
2, 95815, Note_on_c, 0, 62, 0
2, 95820, Note_on_c, 0, 59, 78
2, 95825, Note_on_c, 0, 62, 73
2, 95854, Note_on_c, 0, 67, 0
2, 95864, Note_on_c, 0, 67, 71
2, 95900, Note_on_c, 0, 71, 0
2, 95910, Note_on_c, 0, 71, 83
2, 95988, Note_on_c, 0, 74, 74
2, 96023, Note_on_c, 0, 79, 81
2, 96026, Note_on_c, 0, 78, 65
2, 96030, Note_on_c, 0, 78, 0
2, 96063, Note_on_c, 0, 83, 86
2, 96126, Note_on_c, 0, 86, 81
2, 96157, Note_on_c, 0, 91, 96
2, 96205, Note_on_c, 0, 95, 99
2, 96261, Note_on_c, 0, 91, 0
2, 96266, Note_on_c, 0, 91, 96
2, 96314, Note_on_c, 0, 86, 0
2, 96320, Note_on_c, 0, 86, 82
2, 96384, Note_on_c, 0, 83, 0
2, 96390, Note_on_c, 0, 83, 82
2, 96422, Note_on_c, 0, 79, 0
2, 96428, Note_on_c, 0, 79, 78
2, 96483, Note_on_c, 0, 74, 0
2, 96491, Note_on_c, 0, 74, 64
2, 96537, Note_on_c, 0, 71, 0
2, 96542, Note_on_c, 0, 71, 81
2, 96576, Note_on_c, 0, 67, 0
2, 96581, Note_on_c, 0, 67, 70
2, 96622, Note_on_c, 0, 62, 0
2, 96630, Note_on_c, 0, 62, 73
2, 96637, Note_on_c, 0, 59, 0
2, 96643, Note_on_c, 0, 59, 79
2, 96714, Note_on_c, 0, 55, 0
2, 96720, Note_on_c, 0, 55, 78
2, 96768, Note_on_c, 0, 50, 77
2, 96884, Note_on_c, 0, 86, 0
2, 96884, Note_on_c, 0, 95, 0
2, 96885, Control_c, 0, 64, 0
2, 96885, Note_on_c, 0, 59, 0
2, 96885, Note_on_c, 0, 74, 0
2, 96885, Note_on_c, 0, 83, 0
2, 96885, Note_on_c, 0, 71, 0
2, 96885, Note_on_c, 0, 55, 0
2, 96885, Note_on_c, 0, 62, 0
2, 96886, Note_on_c, 0, 50, 0
2, 96886, Note_on_c, 0, 91, 0
2, 96886, Note_on_c, 0, 79, 0
2, 96898, Note_on_c, 0, 43, 0
2, 96898, Note_on_c, 0, 67, 0
2, 96903, Note_on_c, 0, 72, 105
2, 96906, Note_on_c, 0, 31, 0
2, 96908, Note_on_c, 0, 60, 98
2, 96909, Note_on_c, 0, 67, 95
2, 96909, Note_on_c, 0, 43, 91
2, 96910, Note_on_c, 0, 31, 87
2, 96910, Note_on_c, 0, 63, 98
2, 96941, Note_on_c, 0, 60, 0
2, 96975, Control_c, 0, 64, 127
2, 96990, Note_on_c, 0, 67, 0
2, 97078, Note_on_c, 0, 50, 50
2, 97139, Note_on_c, 0, 51, 67
2, 97200, Note_on_c, 0, 60, 77
2, 97202, Note_on_c, 0, 55, 59
2, 97251, Note_on_c, 0, 63, 0
2, 97257, Note_on_c, 0, 63, 69
2, 97288, Note_on_c, 0, 67, 79
2, 97359, Note_on_c, 0, 72, 0
2, 97364, Note_on_c, 0, 72, 84
2, 97416, Note_on_c, 0, 75, 79
2, 97442, Note_on_c, 0, 79, 84
2, 97508, Note_on_c, 0, 84, 76
2, 97561, Note_on_c, 0, 87, 96
2, 97566, Note_on_c, 0, 50, 0
2, 97587, Note_on_c, 0, 91, 93
2, 97645, Note_on_c, 0, 96, 109
2, 97689, Note_on_c, 0, 91, 0
2, 97700, Note_on_c, 0, 91, 86
2, 97720, Note_on_c, 0, 87, 0
2, 97724, Note_on_c, 0, 87, 97
2, 97827, Note_on_c, 0, 79, 0
2, 97833, Note_on_c, 0, 79, 83
2, 97881, Note_on_c, 0, 75, 0
2, 97885, Note_on_c, 0, 75, 84
2, 98012, Note_on_c, 0, 67, 0
2, 98017, Note_on_c, 0, 67, 70
2, 98021, Note_on_c, 0, 69, 66
2, 98050, Note_on_c, 0, 63, 0
2, 98060, Note_on_c, 0, 63, 73
2, 98096, Note_on_c, 0, 55, 0
2, 98106, Note_on_c, 0, 55, 67
2, 98127, Note_on_c, 0, 60, 0
2, 98131, Note_on_c, 0, 60, 70
2, 98165, Note_on_c, 0, 51, 0
2, 98175, Note_on_c, 0, 51, 70
2, 98235, Note_on_c, 0, 50, 80
2, 98354, Control_c, 0, 64, 0
2, 98357, Note_on_c, 0, 87, 0
2, 98358, Note_on_c, 0, 67, 0
2, 98358, Note_on_c, 0, 75, 0
2, 98358, Note_on_c, 0, 96, 0
2, 98358, Note_on_c, 0, 79, 0
2, 98359, Note_on_c, 0, 72, 0
2, 98359, Note_on_c, 0, 84, 0
2, 98360, Note_on_c, 0, 50, 0
2, 98360, Note_on_c, 0, 43, 0
2, 98373, Note_on_c, 0, 51, 0
2, 98373, Note_on_c, 0, 55, 0
2, 98373, Note_on_c, 0, 63, 0
2, 98373, Note_on_c, 0, 91, 0
2, 98380, Note_on_c, 0, 31, 0
2, 98380, Note_on_c, 0, 60, 0
2, 98380, Note_on_c, 0, 69, 0
2, 98385, Note_on_c, 0, 69, 100
2, 98389, Note_on_c, 0, 60, 97
2, 98390, Note_on_c, 0, 65, 90
2, 98390, Note_on_c, 0, 31, 89
2, 98449, Control_c, 0, 64, 127
2, 98558, Note_on_c, 0, 50, 67
2, 98598, Note_on_c, 0, 53, 74
2, 98660, Note_on_c, 0, 57, 76
2, 98664, Note_on_c, 0, 60, 0
2, 98676, Note_on_c, 0, 60, 78
2, 98711, Note_on_c, 0, 65, 0
2, 98718, Note_on_c, 0, 65, 79
2, 98764, Note_on_c, 0, 69, 0
2, 98769, Note_on_c, 0, 69, 79
2, 98845, Note_on_c, 0, 72, 85
2, 98886, Note_on_c, 0, 77, 85
2, 98926, Note_on_c, 0, 81, 86
2, 98991, Note_on_c, 0, 84, 77
2, 99033, Note_on_c, 0, 89, 99
2, 99071, Note_on_c, 0, 93, 73
2, 99079, Note_on_c, 0, 93, 0
2, 99101, Note_on_c, 0, 96, 106
2, 99160, Note_on_c, 0, 93, 91
2, 99187, Note_on_c, 0, 89, 0
2, 99193, Note_on_c, 0, 89, 97
2, 99294, Note_on_c, 0, 81, 0
2, 99301, Note_on_c, 0, 81, 79
2, 99333, Note_on_c, 0, 77, 0
2, 99342, Note_on_c, 0, 77, 92
2, 99409, Note_on_c, 0, 72, 0
2, 99418, Note_on_c, 0, 72, 70
2, 99471, Note_on_c, 0, 69, 0
2, 99482, Note_on_c, 0, 69, 72
2, 99494, Note_on_c, 0, 65, 0
2, 99497, Note_on_c, 0, 67, 66
2, 99505, Note_on_c, 0, 65, 81
2, 99563, Note_on_c, 0, 60, 0
2, 99569, Note_on_c, 0, 60, 71
2, 99578, Note_on_c, 0, 57, 0
2, 99586, Note_on_c, 0, 57, 76
2, 99671, Note_on_c, 0, 53, 0
2, 99675, Note_on_c, 0, 53, 71
2, 99717, Note_on_c, 0, 50, 0
2, 99723, Note_on_c, 0, 50, 78
2, 99859, Control_c, 0, 64, 0
2, 99859, Note_on_c, 0, 84, 0
2, 99859, Note_on_c, 0, 89, 0
2, 99860, Note_on_c, 0, 96, 0
2, 99860, Note_on_c, 0, 77, 0
2, 99860, Note_on_c, 0, 65, 0
2, 99860, Note_on_c, 0, 69, 0
2, 99861, Note_on_c, 0, 53, 0
2, 99861, Note_on_c, 0, 50, 0
2, 99861, Note_on_c, 0, 81, 0
2, 99861, Note_on_c, 0, 67, 0
2, 99861, Note_on_c, 0, 57, 0
2, 99870, Note_on_c, 0, 72, 0
2, 99870, Note_on_c, 0, 93, 0
2, 99878, Note_on_c, 0, 31, 0
2, 99878, Note_on_c, 0, 60, 0
2, 99880, Note_on_c, 0, 72, 105
2, 99882, Note_on_c, 0, 32, 82
2, 99883, Note_on_c, 0, 60, 99
2, 99884, Note_on_c, 0, 31, 85
2, 99887, Note_on_c, 0, 68, 97
2, 99888, Note_on_c, 0, 43, 91
2, 99889, Note_on_c, 0, 63, 95
2, 99947, Control_c, 0, 64, 127
2, 100122, Note_on_c, 0, 51, 68
2, 100173, Note_on_c, 0, 56, 72
2, 100193, Note_on_c, 0, 60, 0
2, 100202, Note_on_c, 0, 60, 74
2, 100285, Note_on_c, 0, 63, 0
2, 100293, Note_on_c, 0, 68, 0
2, 100294, Note_on_c, 0, 63, 67
2, 100302, Note_on_c, 0, 68, 76
2, 100377, Note_on_c, 0, 72, 0
2, 100382, Note_on_c, 0, 72, 81
2, 100449, Note_on_c, 0, 75, 80
2, 100481, Note_on_c, 0, 80, 82
2, 100565, Note_on_c, 0, 84, 68
2, 100621, Note_on_c, 0, 87, 91
2, 100704, Note_on_c, 0, 92, 75
2, 100774, Note_on_c, 0, 74, 108
2, 100774, Note_on_c, 0, 96, 102
2, 100775, Note_on_c, 0, 62, 104
2, 100792, Note_on_c, 0, 43, 0
2, 100846, Note_on_c, 0, 92, 0
2, 100853, Note_on_c, 0, 31, 0
2, 100855, Note_on_c, 0, 92, 80
2, 100892, Note_on_c, 0, 87, 0
2, 100902, Note_on_c, 0, 87, 84
2, 101015, Note_on_c, 0, 80, 0
2, 101019, Note_on_c, 0, 80, 75
2, 101076, Note_on_c, 0, 75, 0
2, 101081, Note_on_c, 0, 75, 78
2, 101160, Note_on_c, 0, 72, 0
2, 101172, Note_on_c, 0, 72, 77
2, 101253, Note_on_c, 0, 68, 0
2, 101258, Note_on_c, 0, 68, 76
2, 101329, Note_on_c, 0, 63, 0
2, 101336, Note_on_c, 0, 63, 75
2, 101414, Note_on_c, 0, 60, 0
2, 101418, Note_on_c, 0, 60, 76
2, 101483, Note_on_c, 0, 56, 0
2, 101489, Note_on_c, 0, 56, 79
2, 101598, Note_on_c, 0, 51, 0
2, 101607, Note_on_c, 0, 51, 69
2, 101748, Note_on_c, 0, 50, 77
2, 102051, Note_on_c, 0, 74, 0
2, 102059, Note_on_c, 0, 62, 0
2, 102062, Note_on_c, 0, 74, 102
2, 102064, Note_on_c, 0, 84, 0
2, 102065, Note_on_c, 0, 75, 0
2, 102065, Note_on_c, 0, 96, 0
2, 102065, Note_on_c, 0, 62, 98
2, 102065, Note_on_c, 0, 87, 0
2, 102065, Note_on_c, 0, 71, 96
2, 102065, Note_on_c, 0, 50, 0
2, 102066, Note_on_c, 0, 92, 0
2, 102067, Note_on_c, 0, 51, 0
2, 102068, Note_on_c, 0, 56, 0
2, 102068, Note_on_c, 0, 31, 93
2, 102068, Note_on_c, 0, 43, 95
2, 102069, Control_c, 0, 64, 0
2, 102069, Note_on_c, 0, 68, 0
2, 102069, Note_on_c, 0, 67, 92
2, 102070, Note_on_c, 0, 80, 0
2, 102070, Note_on_c, 0, 60, 0
2, 102070, Note_on_c, 0, 72, 0
2, 102070, Note_on_c, 0, 63, 0
2, 102074, Note_on_c, 0, 32, 0
2, 102197, Control_c, 0, 64, 127
2, 102328, Note_on_c, 0, 62, 0
2, 102339, Note_on_c, 0, 62, 80
2, 102382, Note_on_c, 0, 67, 0
2, 102386, Note_on_c, 0, 67, 76
2, 102451, Note_on_c, 0, 71, 0
2, 102457, Note_on_c, 0, 71, 74
2, 102458, Note_on_c, 0, 69, 74
2, 102520, Note_on_c, 0, 74, 0
2, 102526, Note_on_c, 0, 74, 91
2, 102542, Note_on_c, 0, 38, 78
2, 102544, Note_on_c, 0, 26, 82
2, 102589, Note_on_c, 0, 71, 0
2, 102599, Note_on_c, 0, 71, 78
2, 102643, Note_on_c, 0, 69, 0
2, 102653, Note_on_c, 0, 69, 74
2, 102689, Note_on_c, 0, 67, 0
2, 102695, Note_on_c, 0, 67, 84
2, 102735, Note_on_c, 0, 69, 0
2, 102746, Note_on_c, 0, 69, 75
2, 102819, Note_on_c, 0, 71, 0
2, 102824, Note_on_c, 0, 71, 84
2, 102865, Note_on_c, 0, 74, 0
2, 102876, Note_on_c, 0, 74, 79
2, 102940, Note_on_c, 0, 79, 91
2, 102950, Note_on_c, 0, 31, 0
2, 102950, Note_on_c, 0, 43, 0
2, 102954, Note_on_c, 0, 31, 85
2, 102954, Note_on_c, 0, 43, 86
2, 103034, Note_on_c, 0, 71, 0
2, 103037, Note_on_c, 0, 72, 65
2, 103039, Note_on_c, 0, 71, 71
2, 103088, Note_on_c, 0, 69, 0
2, 103097, Note_on_c, 0, 69, 68
2, 103134, Note_on_c, 0, 71, 0
2, 103139, Note_on_c, 0, 71, 74
2, 103226, Note_on_c, 0, 72, 0
2, 103226, Note_on_c, 0, 74, 0
2, 103234, Note_on_c, 0, 72, 71
2, 103234, Note_on_c, 0, 74, 57
2, 103272, Note_on_c, 0, 79, 0
2, 103281, Note_on_c, 0, 79, 76
2, 103344, Note_on_c, 0, 83, 100
2, 103349, Note_on_c, 0, 38, 0
2, 103357, Note_on_c, 0, 26, 0
2, 103360, Note_on_c, 0, 38, 89
2, 103361, Note_on_c, 0, 26, 90
2, 103380, Note_on_c, 0, 79, 0
2, 103391, Note_on_c, 0, 79, 70
2, 103441, Note_on_c, 0, 74, 0
2, 103451, Note_on_c, 0, 74, 66
2, 103480, Note_on_c, 0, 71, 0
2, 103487, Note_on_c, 0, 71, 82
2, 103541, Note_on_c, 0, 74, 0
2, 103553, Note_on_c, 0, 74, 66
2, 103618, Note_on_c, 0, 79, 0
2, 103623, Note_on_c, 0, 79, 87
2, 103663, Note_on_c, 0, 81, 80
2, 103710, Note_on_c, 0, 83, 0
2, 103715, Note_on_c, 0, 83, 80
2, 103729, Control_c, 0, 64, 0
2, 103729, Note_on_c, 0, 72, 0
2, 103731, Note_on_c, 0, 71, 0
2, 103732, Note_on_c, 0, 81, 0
2, 103734, Note_on_c, 0, 67, 0
2, 103749, Note_on_c, 0, 31, 0
2, 103749, Note_on_c, 0, 62, 0
2, 103749, Note_on_c, 0, 69, 0
2, 103755, Note_on_c, 0, 86, 97
2, 103756, Note_on_c, 0, 43, 0
2, 103760, Note_on_c, 0, 31, 77
2, 103763, Note_on_c, 0, 43, 87
2, 103779, Note_on_c, 0, 26, 0
2, 103802, Note_on_c, 0, 74, 0
2, 103810, Note_on_c, 0, 83, 0
2, 103810, Control_c, 0, 64, 127
2, 103819, Note_on_c, 0, 83, 77
2, 103853, Note_on_c, 0, 81, 73
2, 103887, Note_on_c, 0, 79, 0
2, 103896, Note_on_c, 0, 79, 75
2, 103948, Note_on_c, 0, 81, 0
2, 103956, Note_on_c, 0, 81, 72
2, 104010, Note_on_c, 0, 83, 0
2, 104016, Note_on_c, 0, 83, 93
2, 104079, Note_on_c, 0, 86, 0
2, 104086, Note_on_c, 0, 86, 82
2, 104137, Note_on_c, 0, 91, 102
2, 104140, Note_on_c, 0, 38, 0
2, 104148, Note_on_c, 0, 38, 85
2, 104152, Note_on_c, 0, 26, 90
2, 104225, Note_on_c, 0, 83, 0
2, 104231, Note_on_c, 0, 83, 89
2, 104279, Note_on_c, 0, 81, 0
2, 104288, Note_on_c, 0, 81, 76
2, 104348, Note_on_c, 0, 83, 0
2, 104353, Note_on_c, 0, 83, 49
2, 104386, Note_on_c, 0, 86, 0
2, 104397, Note_on_c, 0, 86, 83
2, 104448, Note_on_c, 0, 91, 0
2, 104452, Note_on_c, 0, 91, 86
2, 104527, Note_on_c, 0, 95, 106
2, 104540, Note_on_c, 0, 31, 0
2, 104540, Note_on_c, 0, 43, 0
2, 104551, Note_on_c, 0, 31, 83
2, 104551, Note_on_c, 0, 43, 94
2, 104570, Note_on_c, 0, 91, 0
2, 104579, Note_on_c, 0, 91, 89
2, 104632, Note_on_c, 0, 86, 0
2, 104637, Note_on_c, 0, 86, 74
2, 104686, Note_on_c, 0, 83, 0
2, 104690, Note_on_c, 0, 83, 76
2, 104732, Note_on_c, 0, 86, 0
2, 104743, Note_on_c, 0, 86, 82
2, 104801, Note_on_c, 0, 91, 0
2, 104809, Note_on_c, 0, 91, 99
2, 104857, Note_on_c, 0, 93, 92
2, 104908, Note_on_c, 0, 95, 0
2, 104914, Note_on_c, 0, 95, 97
2, 104962, Note_on_c, 0, 26, 0
2, 104962, Note_on_c, 0, 38, 0
2, 104965, Note_on_c, 0, 98, 108
2, 104966, Note_on_c, 0, 26, 86
2, 104969, Note_on_c, 0, 38, 82
2, 105031, Note_on_c, 0, 95, 0
2, 105037, Note_on_c, 0, 95, 98
2, 105100, Note_on_c, 0, 93, 0
2, 105105, Note_on_c, 0, 93, 78
2, 105139, Note_on_c, 0, 91, 0
2, 105148, Note_on_c, 0, 91, 99
2, 105208, Note_on_c, 0, 93, 0
2, 105218, Note_on_c, 0, 93, 98
2, 105254, Note_on_c, 0, 95, 0
2, 105259, Note_on_c, 0, 95, 85
2, 105308, Note_on_c, 0, 98, 0
2, 105316, Note_on_c, 0, 98, 97
2, 105500, Note_on_c, 0, 26, 0
2, 105500, Note_on_c, 0, 95, 0
2, 105500, Note_on_c, 0, 98, 0
2, 105505, Note_on_c, 0, 103, 114
2, 105507, Note_on_c, 0, 31, 0
2, 105507, Note_on_c, 0, 91, 0
2, 105508, Note_on_c, 0, 98, 99
2, 105510, Note_on_c, 0, 95, 101
2, 105512, Note_on_c, 0, 31, 87
2, 105514, Note_on_c, 0, 91, 107
2, 105514, Note_on_c, 0, 38, 0
2, 105515, Note_on_c, 0, 43, 0
2, 105516, Note_on_c, 0, 81, 0
2, 105516, Note_on_c, 0, 79, 0
2, 105517, Note_on_c, 0, 86, 0
2, 105518, Note_on_c, 0, 83, 0
2, 105521, Note_on_c, 0, 43, 86
2, 105525, Control_c, 0, 64, 0
2, 105530, Note_on_c, 0, 93, 0
2, 105676, Note_on_c, 0, 103, 0
2, 105822, Control_c, 0, 64, 127
2, 106398, Note_on_c, 0, 95, 0
2, 106406, Note_on_c, 0, 98, 0
2, 106441, Note_on_c, 0, 79, 103
2, 106448, Note_on_c, 0, 67, 97
2, 106449, Note_on_c, 0, 62, 97
2, 106449, Note_on_c, 0, 71, 93
2, 106449, Note_on_c, 0, 74, 95
2, 106450, Note_on_c, 0, 59, 95
2, 106452, Note_on_c, 0, 55, 93
2, 106466, Control_c, 0, 64, 0
2, 106536, Control_c, 0, 64, 127
2, 107681, Note_on_c, 0, 91, 0
2, 107712, Note_on_c, 0, 31, 0
2, 107712, Note_on_c, 0, 55, 0
2, 107712, Note_on_c, 0, 67, 0
2, 107718, Note_on_c, 0, 67, 104
2, 107719, Note_on_c, 0, 43, 0
2, 107721, Note_on_c, 0, 55, 101
2, 107723, Note_on_c, 0, 31, 91
2, 107723, Note_on_c, 0, 43, 93
2, 107772, Note_on_c, 0, 71, 0
2, 107774, Note_on_c, 0, 59, 0
2, 107774, Note_on_c, 0, 62, 0
2, 107775, Note_on_c, 0, 74, 0
2, 107775, Control_c, 0, 64, 0
2, 108403, Control_c, 0, 64, 127
2, 109440, Note_on_c, 0, 79, 0
2, 109440, Control_c, 0, 64, 0
2, 110484, Note_on_c, 0, 55, 0
2, 110766, Note_on_c, 0, 31, 0
2, 110776, Note_on_c, 0, 67, 0
2, 110784, Note_on_c, 0, 43, 0
2, 110785, End_track
0, 0, End_of_file
