0, 0, Header, 1, 2, 384
1, 0, Start_track
1, 0, Tempo, 500000
1, 0, Time_signature, 4, 2, 24, 8
1, 1, End_track
2, 0, Start_track
2, 2675, Note_on_c, 0, 61, 39
2, 2710, Note_on_c, 0, 65, 38
2, 2718, Note_on_c, 0, 68, 55
2, 2757, Control_c, 0, 64, 127
2, 2764, Note_on_c, 0, 72, 65
2, 2796, Note_on_c, 0, 77, 66
2, 2818, Note_on_c, 0, 61, 0
2, 2831, Note_on_c, 0, 82, 70
2, 2873, Note_on_c, 0, 84, 69
2, 2927, Note_on_c, 0, 89, 86
2, 3417, Note_on_c, 0, 72, 0
2, 3417, Note_on_c, 0, 84, 0
2, 3421, Note_on_c, 0, 84, 63
2, 3427, Note_on_c, 0, 72, 59
2, 3709, Note_on_c, 0, 72, 0
2, 3709, Note_on_c, 0, 84, 0
2, 3713, Note_on_c, 0, 84, 51
2, 3714, Note_on_c, 0, 72, 50
2, 5760, Note_on_c, 0, 65, 0
2, 5760, Note_on_c, 0, 68, 0
2, 5760, Note_on_c, 0, 72, 0
2, 5760, Note_on_c, 0, 77, 0
2, 5760, Note_on_c, 0, 82, 0
2, 5760, Note_on_c, 0, 84, 0
2, 5760, Note_on_c, 0, 89, 0
2, 6196, Note_on_c, 0, 60, 45
2, 6232, Note_on_c, 0, 63, 59
2, 6250, Control_c, 0, 64, 0
2, 6252, Note_on_c, 0, 68, 56
2, 6287, Note_on_c, 0, 70, 62
2, 6314, Note_on_c, 0, 75, 59
2, 6343, Control_c, 0, 64, 127
2, 6353, Note_on_c, 0, 80, 65
2, 6359, Note_on_c, 0, 60, 0
2, 6401, Note_on_c, 0, 82, 69
2, 6456, Note_on_c, 0, 87, 84
2, 7004, Note_on_c, 0, 82, 0
2, 7009, Note_on_c, 0, 82, 55
2, 7011, Note_on_c, 0, 70, 0
2, 7019, Note_on_c, 0, 75, 0
2, 7019, Note_on_c, 0, 70, 51
2, 7030, Note_on_c, 0, 75, 35
2, 7326, Note_on_c, 0, 70, 0
2, 7326, Note_on_c, 0, 82, 0
2, 7331, Note_on_c, 0, 82, 45
2, 7336, Note_on_c, 0, 70, 41
2, 9600, Note_on_c, 0, 63, 0
2, 9600, Note_on_c, 0, 68, 0
2, 9600, Note_on_c, 0, 70, 0
2, 9600, Note_on_c, 0, 75, 0
2, 9600, Note_on_c, 0, 80, 0
2, 9600, Note_on_c, 0, 82, 0
2, 9600, Note_on_c, 0, 87, 0
2, 9750, Note_on_c, 0, 58, 60
2, 9788, Control_c, 0, 64, 0
2, 9788, Note_on_c, 0, 65, 60
2, 9797, Note_on_c, 0, 62, 28
2, 9807, Note_on_c, 0, 62, 0
2, 9846, Note_on_c, 0, 68, 68
2, 9859, Note_on_c, 0, 73, 69
2, 9917, Note_on_c, 0, 77, 66
2, 9930, Note_on_c, 0, 58, 0
2, 9930, Control_c, 0, 64, 127
2, 9963, Note_on_c, 0, 79, 59
2, 9998, Note_on_c, 0, 85, 86
2, 11416, Note_on_c, 0, 67, 49
2, 11453, Note_on_c, 0, 70, 55
2, 11492, Control_c, 0, 64, 0
2, 11506, Note_on_c, 0, 72, 68
2, 11507, Note_on_c, 0, 75, 69
2, 11512, Control_c, 0, 64, 127
2, 11552, Note_on_c, 0, 87, 78
2, 13129, Note_on_c, 0, 43, 41
2, 13160, Note_on_c, 0, 50, 48
2, 13174, Control_c, 0, 64, 0
2, 13191, Note_on_c, 0, 72, 0
2, 13198, Note_on_c, 0, 53, 57
2, 13209, Note_on_c, 0, 73, 0
2, 13239, Note_on_c, 0, 74, 64
2, 13248, Note_on_c, 0, 77, 0
2, 13254, Note_on_c, 0, 77, 65
2, 13255, Note_on_c, 0, 85, 0
2, 13294, Note_on_c, 0, 79, 0
2, 13298, Note_on_c, 0, 79, 66
2, 13324, Control_c, 0, 64, 127
2, 13351, Note_on_c, 0, 84, 77
2, 13386, Note_on_c, 0, 50, 0
2, 13397, Note_on_c, 0, 50, 42
2, 13440, Note_on_c, 0, 65, 0
2, 13440, Note_on_c, 0, 67, 0
2, 13440, Note_on_c, 0, 68, 0
2, 13440, Note_on_c, 0, 70, 0
2, 13440, Note_on_c, 0, 75, 0
2, 13440, Note_on_c, 0, 87, 0
2, 13493, Control_c, 0, 64, 0
2, 13578, Control_c, 0, 64, 127
2, 14979, Note_on_c, 0, 55, 36
2, 15313, Note_on_c, 0, 60, 48
2, 15667, Note_on_c, 0, 55, 0
2, 15671, Note_on_c, 0, 62, 47
2, 15677, Note_on_c, 0, 55, 25
2, 16193, Note_on_c, 0, 31, 35
2, 17280, Note_on_c, 0, 50, 0
2, 17280, Note_on_c, 0, 74, 0
2, 17280, Note_on_c, 0, 77, 0
2, 17280, Note_on_c, 0, 79, 0
2, 17280, Note_on_c, 0, 84, 0
2, 17740, Note_on_c, 0, 43, 0
2, 17809, Note_on_c, 0, 53, 0
2, 18397, Control_c, 0, 64, 0
2, 18432, Note_on_c, 0, 60, 0
2, 18754, Note_on_c, 0, 62, 0
2, 18977, Note_on_c, 0, 55, 0
2, 19200, Note_on_c, 0, 31, 0
2, 19446, Note_on_c, 0, 72, 66
2, 19622, Control_c, 0, 64, 127
2, 19706, Control_c, 0, 64, 0
2, 19715, Note_on_c, 0, 74, 78
2, 19979, Note_on_c, 0, 75, 80
2, 19983, Note_on_c, 0, 48, 53
2, 19993, Note_on_c, 0, 60, 44
2, 19995, Note_on_c, 0, 67, 58
2, 20037, Note_on_c, 0, 72, 0
2, 20067, Note_on_c, 0, 74, 0
2, 20129, Control_c, 0, 64, 127
2, 20409, Note_on_c, 0, 74, 73
2, 20411, Note_on_c, 0, 55, 52
2, 20597, Note_on_c, 0, 75, 0
2, 20605, Note_on_c, 0, 75, 82
2, 20620, Note_on_c, 0, 67, 0
2, 20624, Control_c, 0, 64, 0
2, 20631, Note_on_c, 0, 67, 64
2, 20689, Control_c, 0, 64, 127
2, 20804, Note_on_c, 0, 63, 53
2, 21010, Note_on_c, 0, 79, 83
2, 21404, Note_on_c, 0, 74, 0
2, 21411, Note_on_c, 0, 74, 77
2, 21419, Note_on_c, 0, 67, 0
2, 21424, Note_on_c, 0, 67, 47
2, 21428, Note_on_c, 0, 62, 54
2, 21433, Note_on_c, 0, 70, 59
2, 21501, Control_c, 0, 64, 0
2, 21565, Note_on_c, 0, 60, 0
2, 21584, Note_on_c, 0, 79, 0
2, 21584, Note_on_c, 0, 55, 0
2, 21585, Note_on_c, 0, 48, 0
2, 21586, Note_on_c, 0, 63, 0
2, 21596, Note_on_c, 0, 75, 0
2, 21611, Note_on_c, 0, 46, 53
2, 21711, Control_c, 0, 64, 127
2, 21991, Note_on_c, 0, 55, 47
2, 22225, Note_on_c, 0, 62, 0
2, 22230, Note_on_c, 0, 62, 44
2, 22640, Note_on_c, 0, 67, 0
2, 22646, Note_on_c, 0, 67, 52
2, 22856, Note_on_c, 0, 68, 73
2, 23032, Note_on_c, 0, 70, 0
2, 23043, Note_on_c, 0, 70, 75
2, 23236, Note_on_c, 0, 72, 77
2, 23237, Control_c, 0, 64, 0
2, 23246, Note_on_c, 0, 44, 60
2, 23247, Note_on_c, 0, 63, 62
2, 23249, Note_on_c, 0, 67, 0
2, 23250, Note_on_c, 0, 62, 0
2, 23251, Note_on_c, 0, 55, 0
2, 23257, Note_on_c, 0, 74, 0
2, 23258, Note_on_c, 0, 46, 0
2, 23258, Note_on_c, 0, 70, 0
2, 23278, Note_on_c, 0, 68, 0
2, 23400, Control_c, 0, 64, 127
2, 23614, Note_on_c, 0, 51, 51
2, 23619, Note_on_c, 0, 70, 66
2, 23823, Note_on_c, 0, 72, 0
2, 23827, Note_on_c, 0, 72, 83
2, 24002, Note_on_c, 0, 60, 52
2, 24193, Note_on_c, 0, 75, 81
2, 24576, Note_on_c, 0, 70, 0
2, 24585, Note_on_c, 0, 70, 72
2, 24606, Note_on_c, 0, 63, 0
2, 24610, Note_on_c, 0, 58, 53
2, 24610, Note_on_c, 0, 65, 52
2, 24611, Note_on_c, 0, 63, 48
2, 24738, Note_on_c, 0, 44, 0
2, 24740, Note_on_c, 0, 51, 0
2, 24740, Note_on_c, 0, 75, 0
2, 24741, Note_on_c, 0, 72, 0
2, 24743, Note_on_c, 0, 60, 0
2, 24744, Control_c, 0, 64, 0
2, 24781, Note_on_c, 0, 43, 46
2, 24898, Control_c, 0, 64, 127
2, 24966, Note_on_c, 0, 51, 51
2, 24990, Note_on_c, 0, 65, 0
2, 25105, Note_on_c, 0, 63, 0
2, 25116, Note_on_c, 0, 63, 44
2, 25359, Note_on_c, 0, 58, 0
2, 25368, Note_on_c, 0, 58, 47
2, 25770, Note_on_c, 0, 55, 46
2, 25957, Note_on_c, 0, 67, 73
2, 25958, Note_on_c, 0, 63, 0
2, 25965, Note_on_c, 0, 63, 38
2, 26127, Note_on_c, 0, 51, 0
2, 26137, Note_on_c, 0, 51, 49
2, 26325, Control_c, 0, 64, 0
2, 26332, Note_on_c, 0, 51, 0
2, 26332, Note_on_c, 0, 55, 0
2, 26332, Note_on_c, 0, 67, 0
2, 26333, Note_on_c, 0, 43, 0
2, 26342, Note_on_c, 0, 58, 0
2, 26350, Note_on_c, 0, 63, 0
2, 26350, Note_on_c, 0, 70, 0
2, 26351, Note_on_c, 0, 41, 60
2, 26352, Note_on_c, 0, 68, 78
2, 26361, Note_on_c, 0, 63, 62
2, 26369, Note_on_c, 0, 60, 56
2, 26457, Control_c, 0, 64, 127
2, 26729, Note_on_c, 0, 48, 53
2, 26945, Note_on_c, 0, 67, 73
2, 27125, Note_on_c, 0, 68, 0
2, 27130, Note_on_c, 0, 56, 61
2, 27136, Note_on_c, 0, 68, 82
2, 27350, Note_on_c, 0, 75, 80
2, 27763, Note_on_c, 0, 60, 0
2, 27767, Note_on_c, 0, 60, 55
2, 27819, Note_on_c, 0, 62, 57
2, 27847, Note_on_c, 0, 63, 0
2, 27856, Note_on_c, 0, 63, 66
2, 27866, Note_on_c, 0, 56, 0
2, 27866, Note_on_c, 0, 68, 0
2, 27866, Note_on_c, 0, 75, 0
2, 27867, Note_on_c, 0, 48, 0
2, 27867, Control_c, 0, 64, 0
2, 27901, Note_on_c, 0, 67, 0
2, 27906, Note_on_c, 0, 67, 74
2, 27907, Note_on_c, 0, 39, 56
2, 27970, Note_on_c, 0, 41, 0
2, 28032, Control_c, 0, 64, 127
2, 28047, Note_on_c, 0, 60, 0
2, 28258, Note_on_c, 0, 48, 56
2, 28454, Note_on_c, 0, 65, 67
2, 28654, Note_on_c, 0, 67, 0
2, 28658, Note_on_c, 0, 67, 73
2, 28665, Note_on_c, 0, 55, 63
2, 29047, Note_on_c, 0, 74, 87
2, 29232, Note_on_c, 0, 75, 88
2, 29436, Control_c, 0, 64, 0
2, 29437, Note_on_c, 0, 74, 0
2, 29445, Note_on_c, 0, 62, 0
2, 29446, Note_on_c, 0, 74, 77
2, 29449, Note_on_c, 0, 39, 0
2, 29449, Note_on_c, 0, 38, 62
2, 29449, Note_on_c, 0, 62, 55
2, 29450, Note_on_c, 0, 48, 0
2, 29451, Note_on_c, 0, 55, 0
2, 29452, Note_on_c, 0, 75, 0
2, 29452, Note_on_c, 0, 67, 0
2, 29452, Note_on_c, 0, 65, 0
2, 29455, Note_on_c, 0, 66, 59
2, 29460, Note_on_c, 0, 63, 0
2, 29552, Control_c, 0, 64, 127
2, 29818, Note_on_c, 0, 45, 58
2, 30011, Note_on_c, 0, 69, 70
2, 30205, Note_on_c, 0, 69, 0
2, 30216, Note_on_c, 0, 69, 75
2, 30220, Note_on_c, 0, 62, 0
2, 30220, Note_on_c, 0, 66, 0
2, 30222, Note_on_c, 0, 54, 57
2, 30225, Note_on_c, 0, 66, 54
2, 30229, Note_on_c, 0, 62, 53
2, 30602, Note_on_c, 0, 72, 80
2, 30796, Note_on_c, 0, 74, 0
2, 30805, Note_on_c, 0, 74, 77
2, 30988, Note_on_c, 0, 74, 0
2, 30996, Note_on_c, 0, 74, 82
2, 31012, Note_on_c, 0, 43, 53
2, 31017, Control_c, 0, 64, 0
2, 31023, Note_on_c, 0, 67, 57
2, 31023, Note_on_c, 0, 45, 0
2, 31023, Note_on_c, 0, 62, 0
2, 31023, Note_on_c, 0, 71, 62
2, 31023, Note_on_c, 0, 72, 0
2, 31023, Note_on_c, 0, 54, 0
2, 31023, Note_on_c, 0, 69, 0
2, 31024, Note_on_c, 0, 66, 0
2, 31024, Note_on_c, 0, 38, 0
2, 31280, Control_c, 0, 64, 127
2, 31387, Note_on_c, 0, 50, 50
2, 31805, Note_on_c, 0, 59, 55
2, 32231, Note_on_c, 0, 72, 84
2, 32432, Note_on_c, 0, 74, 0
2, 32438, Note_on_c, 0, 74, 86
2, 32642, Note_on_c, 0, 75, 91
2, 32644, Control_c, 0, 64, 0
2, 32649, Note_on_c, 0, 71, 0
2, 32649, Note_on_c, 0, 72, 0
2, 32650, Note_on_c, 0, 50, 0
2, 32650, Note_on_c, 0, 59, 0
2, 32650, Note_on_c, 0, 74, 0
2, 32651, Note_on_c, 0, 43, 0
2, 32663, Note_on_c, 0, 67, 0
2, 32663, Note_on_c, 0, 48, 55
2, 32672, Note_on_c, 0, 67, 63
2, 32739, Control_c, 0, 64, 127
2, 32867, Note_on_c, 0, 55, 42
2, 33035, Note_on_c, 0, 74, 78
2, 33038, Note_on_c, 0, 65, 60
2, 33231, Note_on_c, 0, 75, 0
2, 33237, Note_on_c, 0, 63, 60
2, 33237, Note_on_c, 0, 75, 86
2, 33239, Note_on_c, 0, 67, 0
2, 33243, Note_on_c, 0, 67, 68
2, 33613, Note_on_c, 0, 60, 60
2, 33617, Note_on_c, 0, 79, 80
2, 33627, Note_on_c, 0, 70, 61
2, 33815, Note_on_c, 0, 55, 0
2, 33822, Note_on_c, 0, 55, 57
2, 33991, Note_on_c, 0, 74, 0
2, 34002, Note_on_c, 0, 74, 87
2, 34022, Note_on_c, 0, 70, 0
2, 34030, Note_on_c, 0, 67, 0
2, 34031, Note_on_c, 0, 70, 69
2, 34032, Note_on_c, 0, 62, 59
2, 34034, Note_on_c, 0, 67, 52
2, 34164, Control_c, 0, 64, 0
2, 34178, Note_on_c, 0, 60, 0
2, 34179, Note_on_c, 0, 55, 0
2, 34179, Note_on_c, 0, 65, 0
2, 34179, Note_on_c, 0, 79, 0
2, 34179, Note_on_c, 0, 48, 0
2, 34179, Note_on_c, 0, 63, 0
2, 34180, Note_on_c, 0, 75, 0
2, 34194, Note_on_c, 0, 46, 58
2, 34252, Control_c, 0, 64, 127
2, 34388, Note_on_c, 0, 55, 56
2, 34583, Note_on_c, 0, 67, 0
2, 34593, Note_on_c, 0, 67, 54
2, 34782, Note_on_c, 0, 62, 0
2, 34793, Note_on_c, 0, 62, 48
2, 34793, Note_on_c, 0, 58, 50
2, 35166, Note_on_c, 0, 67, 0
2, 35174, Note_on_c, 0, 55, 0
2, 35177, Note_on_c, 0, 67, 57
2, 35178, Note_on_c, 0, 55, 52
2, 35366, Note_on_c, 0, 46, 0
2, 35373, Note_on_c, 0, 68, 78
2, 35375, Note_on_c, 0, 46, 51
2, 35558, Note_on_c, 0, 70, 0
2, 35563, Note_on_c, 0, 70, 75
2, 35581, Note_on_c, 0, 67, 0
2, 35585, Note_on_c, 0, 67, 40
2, 35750, Note_on_c, 0, 72, 82
2, 35758, Control_c, 0, 64, 0
2, 35760, Note_on_c, 0, 44, 68
2, 35760, Note_on_c, 0, 55, 0
2, 35762, Note_on_c, 0, 67, 0
2, 35762, Note_on_c, 0, 62, 0
2, 35763, Note_on_c, 0, 46, 0
2, 35763, Note_on_c, 0, 58, 0
2, 35763, Note_on_c, 0, 70, 0
2, 35765, Note_on_c, 0, 68, 0
2, 35768, Note_on_c, 0, 74, 0
2, 35771, Note_on_c, 0, 60, 60
2, 35772, Note_on_c, 0, 68, 66
2, 35772, Note_on_c, 0, 63, 64
2, 35842, Control_c, 0, 64, 127
2, 35944, Note_on_c, 0, 51, 59
2, 36137, Note_on_c, 0, 70, 74
2, 36144, Note_on_c, 0, 58, 60
2, 36145, Note_on_c, 0, 62, 66
2, 36226, Note_on_c, 0, 60, 0
2, 36334, Note_on_c, 0, 72, 0
2, 36341, Note_on_c, 0, 63, 0
2, 36345, Note_on_c, 0, 72, 82
2, 36345, Note_on_c, 0, 60, 70
2, 36347, Note_on_c, 0, 63, 76
2, 36712, Note_on_c, 0, 75, 90
2, 36733, Note_on_c, 0, 63, 0
2, 36733, Note_on_c, 0, 68, 0
2, 36742, Note_on_c, 0, 63, 55
2, 36744, Note_on_c, 0, 68, 45
2, 36744, Note_on_c, 0, 56, 48
2, 36902, Note_on_c, 0, 51, 0
2, 36912, Note_on_c, 0, 51, 58
2, 37102, Note_on_c, 0, 70, 0
2, 37109, Note_on_c, 0, 70, 83
2, 37125, Note_on_c, 0, 58, 0
2, 37130, Note_on_c, 0, 58, 67
2, 37131, Note_on_c, 0, 65, 61
2, 37132, Note_on_c, 0, 51, 0
2, 37137, Note_on_c, 0, 51, 56
2, 37243, Note_on_c, 0, 44, 0
2, 37243, Note_on_c, 0, 75, 0
2, 37243, Note_on_c, 0, 56, 0
2, 37243, Note_on_c, 0, 62, 0
2, 37243, Note_on_c, 0, 72, 0
2, 37244, Note_on_c, 0, 68, 0
2, 37244, Note_on_c, 0, 63, 0
2, 37244, Note_on_c, 0, 60, 0
2, 37245, Control_c, 0, 64, 0
2, 37282, Note_on_c, 0, 43, 51
2, 37347, Control_c, 0, 64, 127
2, 37470, Note_on_c, 0, 51, 0
2, 37478, Note_on_c, 0, 65, 0
2, 37481, Note_on_c, 0, 51, 50
2, 37482, Note_on_c, 0, 65, 57
2, 37666, Note_on_c, 0, 63, 55
2, 37854, Note_on_c, 0, 58, 0
2, 37865, Note_on_c, 0, 58, 70
2, 38220, Note_on_c, 0, 55, 60
2, 38422, Note_on_c, 0, 67, 78
2, 38423, Note_on_c, 0, 58, 0
2, 38423, Note_on_c, 0, 63, 0
2, 38427, Note_on_c, 0, 58, 69
2, 38430, Note_on_c, 0, 51, 0
2, 38431, Note_on_c, 0, 63, 58
2, 38435, Note_on_c, 0, 51, 52
2, 38607, Note_on_c, 0, 51, 0
2, 38608, Note_on_c, 0, 39, 41
2, 38615, Note_on_c, 0, 39, 0
2, 38617, Note_on_c, 0, 51, 50
2, 38779, Note_on_c, 0, 55, 0
2, 38779, Control_c, 0, 64, 0
2, 38779, Note_on_c, 0, 51, 0
2, 38780, Note_on_c, 0, 58, 0
2, 38780, Note_on_c, 0, 65, 0
2, 38780, Note_on_c, 0, 67, 0
2, 38780, Note_on_c, 0, 43, 0
2, 38791, Note_on_c, 0, 63, 0
2, 38795, Note_on_c, 0, 68, 84
2, 38802, Note_on_c, 0, 41, 66
2, 38803, Note_on_c, 0, 63, 63
2, 38807, Note_on_c, 0, 70, 0
2, 38807, Note_on_c, 0, 60, 62
2, 38868, Control_c, 0, 64, 127
2, 38988, Note_on_c, 0, 48, 50
2, 39037, Note_on_c, 0, 60, 0
2, 39171, Note_on_c, 0, 75, 79
2, 39187, Note_on_c, 0, 53, 47
2, 39191, Note_on_c, 0, 63, 0
2, 39195, Note_on_c, 0, 63, 53
2, 39380, Note_on_c, 0, 74, 86
2, 39383, Note_on_c, 0, 68, 0
2, 39387, Note_on_c, 0, 68, 61
2, 39389, Note_on_c, 0, 56, 57
2, 39389, Note_on_c, 0, 62, 68
2, 39767, Note_on_c, 0, 63, 0
2, 39767, Note_on_c, 0, 75, 0
2, 39772, Note_on_c, 0, 75, 87
2, 39777, Note_on_c, 0, 63, 69
2, 39959, Note_on_c, 0, 53, 0
2, 39969, Note_on_c, 0, 53, 63
2, 40151, Note_on_c, 0, 75, 0
2, 40155, Note_on_c, 0, 75, 84
2, 40289, Note_on_c, 0, 67, 62
2, 40337, Note_on_c, 0, 72, 73
2, 40363, Note_on_c, 0, 77, 84
2, 40367, Note_on_c, 0, 39, 71
2, 40378, Control_c, 0, 64, 0
2, 40389, Note_on_c, 0, 41, 0
2, 40392, Note_on_c, 0, 63, 0
2, 40392, Note_on_c, 0, 68, 0
2, 40392, Note_on_c, 0, 48, 0
2, 40392, Note_on_c, 0, 62, 0
2, 40392, Note_on_c, 0, 53, 0
2, 40392, Note_on_c, 0, 75, 0
2, 40392, Note_on_c, 0, 56, 0
2, 40393, Note_on_c, 0, 74, 0
2, 40396, Note_on_c, 0, 67, 0
2, 40519, Control_c, 0, 64, 127
2, 40554, Note_on_c, 0, 48, 43
2, 40730, Note_on_c, 0, 50, 55
2, 40735, Note_on_c, 0, 79, 80
2, 40934, Note_on_c, 0, 39, 0
2, 40945, Note_on_c, 0, 39, 54
2, 40945, Note_on_c, 0, 75, 85
2, 41313, Note_on_c, 0, 60, 57
2, 41345, Note_on_c, 0, 55, 44
2, 41357, Note_on_c, 0, 51, 33
2, 41523, Note_on_c, 0, 62, 51
2, 41729, Note_on_c, 0, 63, 59
2, 41909, Note_on_c, 0, 75, 0
2, 41912, Note_on_c, 0, 41, 62
2, 41914, Note_on_c, 0, 75, 85
2, 41918, Note_on_c, 0, 48, 0
2, 41920, Note_on_c, 0, 50, 0
2, 41920, Note_on_c, 0, 51, 0
2, 41920, Note_on_c, 0, 55, 0
2, 41920, Note_on_c, 0, 63, 0
2, 41920, Note_on_c, 0, 62, 0
2, 41920, Note_on_c, 0, 77, 0
2, 41921, Note_on_c, 0, 68, 72
2, 41921, Note_on_c, 0, 79, 0
2, 41921, Note_on_c, 0, 39, 0
2, 41921, Note_on_c, 0, 60, 0
2, 41932, Note_on_c, 0, 72, 0
2, 41941, Control_c, 0, 64, 0
2, 42101, Control_c, 0, 64, 127
2, 42112, Note_on_c, 0, 48, 56
2, 42113, Note_on_c, 0, 74, 79
2, 42322, Note_on_c, 0, 72, 77
2, 42521, Note_on_c, 0, 56, 52
2, 42733, Control_c, 0, 64, 0
2, 42733, Note_on_c, 0, 41, 0
2, 42734, Note_on_c, 0, 56, 0
2, 42734, Note_on_c, 0, 68, 0
2, 42734, Note_on_c, 0, 75, 0
2, 42734, Note_on_c, 0, 48, 0
2, 42735, Note_on_c, 0, 72, 0
2, 42739, Note_on_c, 0, 74, 0
2, 42743, Note_on_c, 0, 74, 82
2, 42752, Note_on_c, 0, 71, 66
2, 42756, Note_on_c, 0, 43, 59
2, 42758, Note_on_c, 0, 62, 57
2, 42760, Note_on_c, 0, 55, 54
2, 42961, Note_on_c, 0, 55, 0
2, 42971, Note_on_c, 0, 55, 33
2, 43015, Control_c, 0, 64, 127
2, 43188, Note_on_c, 0, 59, 54
2, 43372, Note_on_c, 0, 72, 78
2, 43614, Note_on_c, 0, 72, 0
2, 43619, Note_on_c, 0, 72, 68
2, 43619, Note_on_c, 0, 48, 52
2, 43633, Note_on_c, 0, 67, 53
2, 43642, Note_on_c, 0, 63, 47
2, 43648, Note_on_c, 0, 71, 0
2, 43648, Control_c, 0, 64, 0
2, 43649, Note_on_c, 0, 59, 0
2, 43649, Note_on_c, 0, 62, 0
2, 43649, Note_on_c, 0, 74, 0
2, 43652, Note_on_c, 0, 43, 0
2, 43676, Note_on_c, 0, 55, 0
2, 43791, Control_c, 0, 64, 127
2, 43847, Note_on_c, 0, 55, 40
2, 44047, Note_on_c, 0, 60, 48
2, 44252, Note_on_c, 0, 62, 48
2, 44474, Note_on_c, 0, 67, 0
2, 44486, Note_on_c, 0, 67, 48
2, 44697, Note_on_c, 0, 60, 0
2, 44708, Note_on_c, 0, 60, 49
2, 44920, Note_on_c, 0, 55, 0
2, 44924, Note_on_c, 0, 55, 48
2, 45150, Note_on_c, 0, 48, 0
2, 45161, Note_on_c, 0, 48, 49
2, 45419, Note_on_c, 0, 60, 0
2, 45419, Note_on_c, 0, 63, 0
2, 45419, Note_on_c, 0, 67, 0
2, 45424, Note_on_c, 0, 63, 51
2, 45428, Note_on_c, 0, 67, 55
2, 45429, Note_on_c, 0, 60, 47
2, 45435, Note_on_c, 0, 46, 54
2, 45445, Control_c, 0, 64, 0
2, 45447, Note_on_c, 0, 62, 0
2, 45448, Note_on_c, 0, 48, 0
2, 45448, Note_on_c, 0, 55, 0
2, 45473, Note_on_c, 0, 72, 0
2, 45565, Control_c, 0, 64, 127
2, 45669, Note_on_c, 0, 53, 65
2, 45906, Note_on_c, 0, 58, 70
2, 45912, Note_on_c, 0, 65, 75
2, 45920, Note_on_c, 0, 62, 68
2, 45964, Control_c, 0, 64, 0
2, 46049, Control_c, 0, 64, 127
2, 46167, Note_on_c, 0, 56, 68
2, 46440, Note_on_c, 0, 75, 102
2, 46440, Note_on_c, 0, 63, 0
2, 46444, Note_on_c, 0, 63, 88
2, 46709, Note_on_c, 0, 46, 0
2, 46718, Note_on_c, 0, 46, 87
2, 47009, Note_on_c, 0, 56, 0
2, 47009, Note_on_c, 0, 65, 0
2, 47013, Note_on_c, 0, 77, 101
2, 47013, Note_on_c, 0, 56, 79
2, 47019, Note_on_c, 0, 68, 93
2, 47020, Note_on_c, 0, 65, 78
2, 47315, Note_on_c, 0, 34, 87
2, 47685, Note_on_c, 0, 34, 0
2, 47691, Note_on_c, 0, 34, 47
2, 47761, Note_on_c, 0, 60, 0
2, 47762, Note_on_c, 0, 39, 88
2, 47764, Note_on_c, 0, 27, 87
2, 47774, Note_on_c, 0, 79, 100
2, 47777, Note_on_c, 0, 67, 0
2, 47777, Note_on_c, 0, 75, 0
2, 47781, Note_on_c, 0, 67, 83
2, 47784, Note_on_c, 0, 70, 89
2, 47785, Note_on_c, 0, 75, 85
2, 47788, Control_c, 0, 64, 0
2, 47796, Note_on_c, 0, 46, 0
2, 47796, Note_on_c, 0, 63, 0
2, 47796, Note_on_c, 0, 68, 0
2, 47797, Note_on_c, 0, 34, 0
2, 47797, Note_on_c, 0, 62, 0
2, 47798, Note_on_c, 0, 53, 0
2, 47798, Note_on_c, 0, 56, 0
2, 47799, Note_on_c, 0, 58, 0
2, 47799, Note_on_c, 0, 77, 0
2, 47823, Note_on_c, 0, 65, 0
2, 47930, Control_c, 0, 64, 127
2, 48061, Note_on_c, 0, 39, 0
2, 48072, Note_on_c, 0, 39, 55
2, 48196, Note_on_c, 0, 46, 70
2, 48215, Note_on_c, 0, 27, 0
2, 48319, Note_on_c, 0, 51, 72
2, 48430, Note_on_c, 0, 53, 71
2, 48536, Note_on_c, 0, 77, 92
2, 48545, Note_on_c, 0, 70, 0
2, 48550, Note_on_c, 0, 70, 51
2, 48663, Note_on_c, 0, 63, 76
2, 48760, Note_on_c, 0, 67, 0
2, 48760, Note_on_c, 0, 70, 0
2, 48760, Note_on_c, 0, 75, 0
2, 48760, Note_on_c, 0, 79, 0
2, 48764, Note_on_c, 0, 79, 90
2, 48765, Note_on_c, 0, 70, 92
2, 48766, Note_on_c, 0, 75, 88
2, 48769, Note_on_c, 0, 67, 77
2, 48867, Note_on_c, 0, 63, 0
2, 48874, Note_on_c, 0, 63, 89
2, 48979, Note_on_c, 0, 58, 80
2, 49128, Note_on_c, 0, 53, 0
2, 49134, Note_on_c, 0, 55, 56
2, 49137, Note_on_c, 0, 53, 51
2, 49213, Note_on_c, 0, 63, 0
2, 49213, Note_on_c, 0, 70, 0
2, 49214, Note_on_c, 0, 82, 102
2, 49218, Note_on_c, 0, 51, 0
2, 49218, Note_on_c, 0, 63, 79
2, 49220, Note_on_c, 0, 70, 92
2, 49305, Note_on_c, 0, 58, 0
2, 49311, Note_on_c, 0, 58, 81
2, 49413, Note_on_c, 0, 55, 0
2, 49420, Note_on_c, 0, 55, 70
2, 49570, Note_on_c, 0, 65, 69
2, 49620, Note_on_c, 0, 70, 0
2, 49630, Note_on_c, 0, 70, 78
2, 49635, Note_on_c, 0, 75, 0
2, 49645, Note_on_c, 0, 75, 74
2, 49666, Note_on_c, 0, 77, 0
2, 49670, Note_on_c, 0, 77, 98
2, 49680, Note_on_c, 0, 38, 90
2, 49691, Note_on_c, 0, 55, 0
2, 49692, Note_on_c, 0, 46, 0
2, 49692, Note_on_c, 0, 58, 0
2, 49692, Note_on_c, 0, 67, 0
2, 49692, Note_on_c, 0, 82, 0
2, 49692, Control_c, 0, 64, 0
2, 49692, Note_on_c, 0, 79, 0
2, 49693, Note_on_c, 0, 53, 0
2, 49693, Note_on_c, 0, 63, 0
2, 49693, Note_on_c, 0, 39, 0
2, 49797, Control_c, 0, 64, 127
2, 49912, Note_on_c, 0, 75, 0
2, 49940, Note_on_c, 0, 46, 60
2, 50042, Note_on_c, 0, 65, 0
2, 50053, Note_on_c, 0, 65, 66
2, 50096, Note_on_c, 0, 70, 0
2, 50101, Note_on_c, 0, 70, 78
2, 50124, Note_on_c, 0, 50, 69
2, 50185, Note_on_c, 0, 74, 79
2, 50251, Note_on_c, 0, 75, 68
2, 50300, Note_on_c, 0, 53, 70
2, 50311, Note_on_c, 0, 77, 0
2, 50322, Note_on_c, 0, 77, 77
2, 50380, Note_on_c, 0, 82, 81
2, 50414, Note_on_c, 0, 86, 81
2, 50505, Note_on_c, 0, 89, 95
2, 50522, Note_on_c, 0, 62, 73
2, 50523, Note_on_c, 0, 58, 71
2, 50573, Note_on_c, 0, 87, 85
2, 50626, Note_on_c, 0, 86, 0
2, 50631, Note_on_c, 0, 86, 73
2, 50695, Note_on_c, 0, 82, 0
2, 50703, Note_on_c, 0, 82, 68
2, 50711, Note_on_c, 0, 77, 0
2, 50718, Note_on_c, 0, 77, 65
2, 50749, Note_on_c, 0, 53, 0
2, 50760, Note_on_c, 0, 53, 68
2, 50849, Note_on_c, 0, 70, 0
2, 50859, Note_on_c, 0, 70, 68
2, 50933, Note_on_c, 0, 58, 0
2, 50933, Note_on_c, 0, 77, 0
2, 50942, Note_on_c, 0, 77, 82
2, 50944, Note_on_c, 0, 58, 67
2, 51002, Note_on_c, 0, 75, 0
2, 51009, Note_on_c, 0, 75, 79
2, 51064, Note_on_c, 0, 58, 0
2, 51064, Note_on_c, 0, 74, 0
2, 51073, Note_on_c, 0, 74, 83
2, 51074, Note_on_c, 0, 58, 64
2, 51148, Note_on_c, 0, 70, 0
2, 51152, Note_on_c, 0, 70, 73
2, 51210, Note_on_c, 0, 50, 0
2, 51214, Note_on_c, 0, 50, 50
2, 51217, Note_on_c, 0, 65, 0
2, 51222, Note_on_c, 0, 65, 70
2, 51402, Note_on_c, 0, 75, 0
2, 51413, Note_on_c, 0, 75, 92
2, 51414, Note_on_c, 0, 36, 86
2, 51418, Note_on_c, 0, 87, 0
2, 51420, Note_on_c, 0, 67, 72
2, 51420, Note_on_c, 0, 89, 0
2, 51420, Note_on_c, 0, 77, 0
2, 51420, Note_on_c, 0, 62, 0
2, 51420, Note_on_c, 0, 46, 0
2, 51420, Note_on_c, 0, 82, 0
2, 51421, Note_on_c, 0, 50, 0
2, 51421, Note_on_c, 0, 65, 0
2, 51421, Note_on_c, 0, 58, 0
2, 51421, Note_on_c, 0, 70, 0
2, 51421, Note_on_c, 0, 74, 0
2, 51421, Note_on_c, 0, 86, 0
2, 51422, Control_c, 0, 64, 0
2, 51422, Note_on_c, 0, 63, 76
2, 51440, Note_on_c, 0, 38, 0
2, 51440, Note_on_c, 0, 53, 0
2, 51563, Control_c, 0, 64, 127
2, 51639, Note_on_c, 0, 43, 65
2, 51746, Note_on_c, 0, 48, 62
2, 51852, Note_on_c, 0, 50, 65
2, 51947, Note_on_c, 0, 51, 70
2, 52066, Note_on_c, 0, 55, 81
2, 52068, Note_on_c, 0, 74, 88
2, 52185, Note_on_c, 0, 60, 65
2, 52254, Note_on_c, 0, 75, 0
2, 52266, Note_on_c, 0, 75, 94
2, 52392, Note_on_c, 0, 60, 0
2, 52402, Note_on_c, 0, 60, 73
2, 52485, Note_on_c, 0, 55, 0
2, 52494, Note_on_c, 0, 55, 79
2, 52584, Note_on_c, 0, 51, 0
2, 52589, Note_on_c, 0, 51, 64
2, 52684, Note_on_c, 0, 48, 0
2, 52684, Note_on_c, 0, 75, 0
2, 52689, Note_on_c, 0, 79, 94
2, 52692, Note_on_c, 0, 67, 0
2, 52693, Note_on_c, 0, 75, 96
2, 52695, Note_on_c, 0, 48, 73
2, 52696, Note_on_c, 0, 67, 83
2, 52776, Note_on_c, 0, 55, 0
2, 52784, Note_on_c, 0, 55, 73
2, 52861, Note_on_c, 0, 51, 0
2, 52869, Note_on_c, 0, 51, 64
2, 52922, Note_on_c, 0, 48, 0
2, 52927, Note_on_c, 0, 48, 55
2, 52953, Note_on_c, 0, 50, 0
2, 52958, Note_on_c, 0, 50, 53
2, 52973, Note_on_c, 0, 62, 66
2, 53022, Note_on_c, 0, 67, 0
2, 53031, Note_on_c, 0, 67, 67
2, 53067, Note_on_c, 0, 70, 75
2, 53089, Control_c, 0, 64, 0
2, 53090, Note_on_c, 0, 48, 0
2, 53091, Note_on_c, 0, 55, 0
2, 53091, Note_on_c, 0, 60, 0
2, 53092, Note_on_c, 0, 67, 0
2, 53092, Note_on_c, 0, 51, 0
2, 53092, Note_on_c, 0, 75, 0
2, 53093, Note_on_c, 0, 79, 0
2, 53093, Note_on_c, 0, 63, 0
2, 53093, Note_on_c, 0, 50, 0
2, 53094, Note_on_c, 0, 43, 0
2, 53107, Note_on_c, 0, 36, 0
2, 53114, Note_on_c, 0, 74, 0
2, 53126, Note_on_c, 0, 74, 97
2, 53128, Note_on_c, 0, 46, 84
2, 53128, Note_on_c, 0, 34, 88
2, 53176, Control_c, 0, 64, 127
2, 53222, Note_on_c, 0, 62, 0
2, 53345, Note_on_c, 0, 46, 0
2, 53352, Note_on_c, 0, 46, 69
2, 53436, Note_on_c, 0, 62, 53
2, 53489, Note_on_c, 0, 67, 63
2, 53492, Note_on_c, 0, 55, 53
2, 53555, Note_on_c, 0, 50, 67
2, 53556, Note_on_c, 0, 68, 75
2, 53598, Note_on_c, 0, 70, 0
2, 53608, Note_on_c, 0, 70, 71
2, 53683, Note_on_c, 0, 74, 0
2, 53693, Note_on_c, 0, 74, 64
2, 53757, Note_on_c, 0, 58, 65
2, 53770, Note_on_c, 0, 79, 72
2, 53846, Note_on_c, 0, 80, 80
2, 53897, Note_on_c, 0, 82, 67
2, 53936, Note_on_c, 0, 62, 0
2, 53943, Note_on_c, 0, 62, 69
2, 53947, Note_on_c, 0, 86, 84
2, 54028, Note_on_c, 0, 82, 0
2, 54032, Note_on_c, 0, 82, 91
2, 54097, Note_on_c, 0, 80, 0
2, 54102, Note_on_c, 0, 80, 71
2, 54167, Note_on_c, 0, 58, 0
2, 54167, Note_on_c, 0, 79, 0
2, 54171, Note_on_c, 0, 79, 68
2, 54177, Note_on_c, 0, 58, 69
2, 54228, Note_on_c, 0, 74, 0
2, 54234, Note_on_c, 0, 74, 69
2, 54320, Note_on_c, 0, 82, 0
2, 54330, Note_on_c, 0, 82, 71
2, 54374, Note_on_c, 0, 55, 0
2, 54374, Note_on_c, 0, 80, 0
2, 54381, Note_on_c, 0, 80, 76
2, 54384, Note_on_c, 0, 55, 67
2, 54420, Note_on_c, 0, 79, 0
2, 54426, Note_on_c, 0, 79, 63
2, 54466, Note_on_c, 0, 74, 0
2, 54472, Note_on_c, 0, 74, 70
2, 54551, Note_on_c, 0, 50, 0
2, 54551, Note_on_c, 0, 70, 0
2, 54554, Note_on_c, 0, 50, 58
2, 54562, Note_on_c, 0, 70, 73
2, 54612, Note_on_c, 0, 68, 0
2, 54619, Note_on_c, 0, 68, 69
2, 54648, Note_on_c, 0, 65, 66
2, 54689, Note_on_c, 0, 62, 0
2, 54700, Note_on_c, 0, 62, 58
2, 54791, Note_on_c, 0, 72, 94
2, 54796, Note_on_c, 0, 34, 0
2, 54801, Control_c, 0, 64, 0
2, 54802, Note_on_c, 0, 55, 0
2, 54802, Note_on_c, 0, 65, 0
2, 54802, Note_on_c, 0, 79, 0
2, 54803, Note_on_c, 0, 80, 0
2, 54803, Note_on_c, 0, 50, 0
2, 54803, Note_on_c, 0, 62, 0
2, 54803, Note_on_c, 0, 58, 0
2, 54803, Note_on_c, 0, 70, 0
2, 54803, Note_on_c, 0, 82, 0
2, 54804, Note_on_c, 0, 46, 0
2, 54804, Note_on_c, 0, 68, 0
2, 54804, Note_on_c, 0, 74, 0
2, 54806, Note_on_c, 0, 86, 0
2, 54808, Note_on_c, 0, 60, 70
2, 54810, Note_on_c, 0, 44, 78
2, 54813, Note_on_c, 0, 68, 68
2, 54814, Note_on_c, 0, 63, 69
2, 54817, Note_on_c, 0, 56, 70
2, 54819, Note_on_c, 0, 67, 0
2, 54888, Control_c, 0, 64, 127
2, 54927, Note_on_c, 0, 56, 0
2, 55002, Note_on_c, 0, 51, 65
2, 55022, Note_on_c, 0, 74, 88
2, 55032, Note_on_c, 0, 62, 71
2, 55118, Note_on_c, 0, 56, 69
2, 55234, Note_on_c, 0, 60, 0
2, 55239, Note_on_c, 0, 75, 95
2, 55242, Note_on_c, 0, 63, 0
2, 55242, Note_on_c, 0, 68, 0
2, 55244, Note_on_c, 0, 60, 65
2, 55247, Note_on_c, 0, 68, 62
2, 55253, Note_on_c, 0, 63, 72
2, 55449, Note_on_c, 0, 44, 0
2, 55456, Note_on_c, 0, 44, 64
2, 55664, Note_on_c, 0, 74, 0
2, 55668, Note_on_c, 0, 74, 91
2, 55672, Note_on_c, 0, 62, 0
2, 55672, Note_on_c, 0, 68, 0
2, 55676, Note_on_c, 0, 70, 79
2, 55676, Note_on_c, 0, 62, 81
2, 55680, Note_on_c, 0, 56, 0
2, 55682, Note_on_c, 0, 68, 70
2, 55685, Note_on_c, 0, 56, 61
2, 55867, Note_on_c, 0, 53, 75
2, 56079, Note_on_c, 0, 63, 0
2, 56079, Note_on_c, 0, 70, 0
2, 56079, Note_on_c, 0, 75, 0
2, 56083, Note_on_c, 0, 75, 101
2, 56083, Note_on_c, 0, 58, 75
2, 56087, Note_on_c, 0, 63, 80
2, 56088, Note_on_c, 0, 70, 81
2, 56279, Note_on_c, 0, 53, 0
2, 56287, Note_on_c, 0, 53, 63
2, 56403, Note_on_c, 0, 77, 84
2, 56493, Note_on_c, 0, 62, 0
2, 56493, Note_on_c, 0, 68, 0
2, 56493, Note_on_c, 0, 60, 0
2, 56493, Note_on_c, 0, 51, 0
2, 56493, Note_on_c, 0, 56, 0
2, 56494, Note_on_c, 0, 44, 0
2, 56494, Note_on_c, 0, 74, 0
2, 56495, Note_on_c, 0, 72, 0
2, 56495, Note_on_c, 0, 58, 0
2, 56495, Note_on_c, 0, 53, 0
2, 56496, Note_on_c, 0, 77, 0
2, 56497, Control_c, 0, 64, 0
2, 56501, Note_on_c, 0, 75, 0
2, 56509, Note_on_c, 0, 70, 0
2, 56511, Note_on_c, 0, 55, 85
2, 56513, Note_on_c, 0, 75, 96
2, 56514, Note_on_c, 0, 70, 84
2, 56515, Note_on_c, 0, 65, 72
2, 56515, Note_on_c, 0, 43, 79
2, 56517, Note_on_c, 0, 63, 0
2, 56601, Control_c, 0, 64, 127
2, 56624, Note_on_c, 0, 55, 0
2, 56686, Note_on_c, 0, 65, 0
2, 56716, Note_on_c, 0, 51, 70
2, 56819, Note_on_c, 0, 55, 79
2, 56924, Note_on_c, 0, 63, 89
2, 56938, Note_on_c, 0, 58, 60
2, 56951, Note_on_c, 0, 67, 32
2, 57139, Note_on_c, 0, 55, 0
2, 57139, Note_on_c, 0, 70, 0
2, 57144, Note_on_c, 0, 70, 84
2, 57147, Note_on_c, 0, 55, 81
2, 57346, Note_on_c, 0, 70, 0
2, 57354, Note_on_c, 0, 67, 0
2, 57356, Note_on_c, 0, 70, 95
2, 57362, Note_on_c, 0, 67, 69
2, 57438, Note_on_c, 0, 55, 0
2, 57445, Note_on_c, 0, 55, 58
2, 57546, Note_on_c, 0, 58, 0
2, 57551, Note_on_c, 0, 58, 76
2, 57776, Note_on_c, 0, 51, 0
2, 57776, Note_on_c, 0, 63, 0
2, 57781, Note_on_c, 0, 79, 93
2, 57784, Note_on_c, 0, 43, 0
2, 57784, Note_on_c, 0, 55, 0
2, 57784, Note_on_c, 0, 67, 0
2, 57784, Note_on_c, 0, 70, 0
2, 57784, Note_on_c, 0, 75, 0
2, 57786, Note_on_c, 0, 51, 72
2, 57787, Note_on_c, 0, 63, 84
2, 57789, Note_on_c, 0, 70, 91
2, 57789, Note_on_c, 0, 67, 82
2, 57789, Note_on_c, 0, 75, 87
2, 57794, Note_on_c, 0, 55, 72
2, 57794, Note_on_c, 0, 43, 71
2, 57953, Note_on_c, 0, 58, 0
2, 57963, Note_on_c, 0, 58, 74
2, 58211, Note_on_c, 0, 80, 103
2, 58217, Note_on_c, 0, 41, 91
2, 58218, Note_on_c, 0, 72, 89
2, 58218, Note_on_c, 0, 29, 90
2, 58219, Note_on_c, 0, 68, 90
2, 58229, Note_on_c, 0, 29, 0
2, 58236, Note_on_c, 0, 55, 0
2, 58237, Note_on_c, 0, 63, 0
2, 58237, Note_on_c, 0, 51, 0
2, 58238, Note_on_c, 0, 67, 0
2, 58238, Note_on_c, 0, 70, 0
2, 58239, Note_on_c, 0, 43, 0
2, 58239, Note_on_c, 0, 79, 0
2, 58239, Note_on_c, 0, 75, 0
2, 58241, Control_c, 0, 64, 0
2, 58252, Note_on_c, 0, 58, 0
2, 58352, Control_c, 0, 64, 127
2, 58441, Note_on_c, 0, 48, 76
2, 58636, Note_on_c, 0, 72, 0
2, 58640, Note_on_c, 0, 55, 91
2, 58644, Note_on_c, 0, 79, 95
2, 58647, Note_on_c, 0, 72, 92
2, 58647, Note_on_c, 0, 76, 74
2, 58655, Note_on_c, 0, 67, 84
2, 58689, Note_on_c, 0, 80, 0
2, 58693, Note_on_c, 0, 68, 0
2, 58695, Control_c, 0, 64, 0
2, 58752, Control_c, 0, 64, 127
2, 58846, Note_on_c, 0, 56, 84
2, 59082, Note_on_c, 0, 72, 0
2, 59087, Note_on_c, 0, 77, 97
2, 59090, Note_on_c, 0, 65, 81
2, 59092, Note_on_c, 0, 68, 89
2, 59093, Note_on_c, 0, 72, 84
2, 59286, Note_on_c, 0, 60, 76
2, 59504, Note_on_c, 0, 55, 0
2, 59510, Note_on_c, 0, 55, 96
2, 59750, Note_on_c, 0, 56, 0
2, 59750, Note_on_c, 0, 68, 0
2, 59750, Note_on_c, 0, 72, 0
2, 59755, Note_on_c, 0, 75, 91
2, 59759, Note_on_c, 0, 56, 92
2, 59760, Note_on_c, 0, 68, 78
2, 59761, Note_on_c, 0, 72, 72
2, 60056, Control_c, 0, 64, 0
2, 60061, Note_on_c, 0, 68, 0
2, 60061, Note_on_c, 0, 56, 0
2, 60062, Note_on_c, 0, 60, 0
2, 60062, Note_on_c, 0, 65, 0
2, 60062, Note_on_c, 0, 75, 0
2, 60063, Note_on_c, 0, 77, 0
2, 60063, Note_on_c, 0, 41, 0
2, 60065, Note_on_c, 0, 55, 0
2, 60065, Note_on_c, 0, 79, 0
2, 60072, Note_on_c, 0, 67, 0
2, 60072, Note_on_c, 0, 72, 0
2, 60072, Note_on_c, 0, 76, 0
2, 60076, Note_on_c, 0, 79, 96
2, 60076, Note_on_c, 0, 55, 94
2, 60077, Note_on_c, 0, 43, 85
2, 60078, Note_on_c, 0, 74, 93
2, 60080, Note_on_c, 0, 48, 0
2, 60081, Note_on_c, 0, 67, 86
2, 60081, Note_on_c, 0, 72, 86
2, 60180, Control_c, 0, 64, 127
2, 60203, Note_on_c, 0, 67, 0
2, 60334, Note_on_c, 0, 72, 0
2, 60334, Note_on_c, 0, 74, 0
2, 60339, Note_on_c, 0, 74, 77
2, 60340, Note_on_c, 0, 72, 66
2, 60510, Note_on_c, 0, 55, 0
2, 60515, Note_on_c, 0, 55, 77
2, 60725, Note_on_c, 0, 74, 0
2, 60730, Note_on_c, 0, 60, 78
2, 60733, Note_on_c, 0, 72, 0
2, 60735, Note_on_c, 0, 62, 83
2, 60737, Note_on_c, 0, 74, 84
2, 60737, Note_on_c, 0, 72, 80
2, 60738, Note_on_c, 0, 67, 75
2, 61155, Note_on_c, 0, 60, 0
2, 61155, Note_on_c, 0, 62, 0
2, 61155, Note_on_c, 0, 72, 0
2, 61161, Note_on_c, 0, 60, 84
2, 61163, Note_on_c, 0, 55, 0
2, 61163, Note_on_c, 0, 67, 0
2, 61166, Note_on_c, 0, 62, 91
2, 61166, Note_on_c, 0, 72, 91
2, 61170, Note_on_c, 0, 67, 83
2, 61173, Note_on_c, 0, 55, 75
2, 61363, Note_on_c, 0, 74, 0
2, 61367, Note_on_c, 0, 74, 83
2, 61562, Note_on_c, 0, 60, 0
2, 61562, Note_on_c, 0, 72, 0
2, 61570, Note_on_c, 0, 62, 0
2, 61572, Note_on_c, 0, 60, 73
2, 61574, Note_on_c, 0, 72, 91
2, 61581, Note_on_c, 0, 62, 59
2, 61791, Control_c, 0, 64, 0
2, 61791, Note_on_c, 0, 67, 0
2, 61791, Note_on_c, 0, 62, 0
2, 61800, Note_on_c, 0, 79, 0
2, 61808, Note_on_c, 0, 60, 0
2, 61808, Note_on_c, 0, 72, 0
2, 61816, Note_on_c, 0, 43, 0
2, 61816, Note_on_c, 0, 55, 0
2, 61816, Note_on_c, 0, 74, 0
2, 61820, Note_on_c, 0, 55, 96
2, 61821, Note_on_c, 0, 43, 92
2, 61822, Note_on_c, 0, 79, 94
2, 61823, Note_on_c, 0, 74, 92
2, 61824, Note_on_c, 0, 71, 90
2, 61916, Control_c, 0, 64, 127
2, 62050, Note_on_c, 0, 50, 74
2, 62115, Note_on_c, 0, 55, 0
2, 62120, Note_on_c, 0, 55, 73
2, 62211, Note_on_c, 0, 59, 74
2, 62260, Note_on_c, 0, 62, 81
2, 62312, Note_on_c, 0, 67, 72
2, 62338, Note_on_c, 0, 71, 0
2, 62346, Note_on_c, 0, 71, 73
2, 62376, Note_on_c, 0, 74, 0
2, 62385, Note_on_c, 0, 74, 85
2, 62395, Note_on_c, 0, 78, 67
2, 62453, Note_on_c, 0, 79, 0
2, 62458, Note_on_c, 0, 79, 75
2, 62504, Note_on_c, 0, 83, 78
2, 62572, Note_on_c, 0, 86, 81
2, 62638, Note_on_c, 0, 79, 0
2, 62643, Note_on_c, 0, 91, 108
2, 62649, Note_on_c, 0, 79, 94
2, 62868, Note_on_c, 0, 43, 0
2, 62873, Note_on_c, 0, 43, 91
2, 62991, Note_on_c, 0, 55, 0
2, 62995, Note_on_c, 0, 55, 89
2, 63083, Note_on_c, 0, 79, 0
2, 63091, Note_on_c, 0, 67, 0
2, 63093, Note_on_c, 0, 79, 101
2, 63095, Note_on_c, 0, 67, 89
2, 63321, Note_on_c, 0, 50, 0
2, 63326, Note_on_c, 0, 50, 87
2, 63601, Control_c, 0, 64, 0
2, 63602, Note_on_c, 0, 71, 0
2, 63603, Note_on_c, 0, 59, 0
2, 63603, Note_on_c, 0, 62, 0
2, 63603, Note_on_c, 0, 74, 0
2, 63603, Note_on_c, 0, 67, 0
2, 63603, Note_on_c, 0, 55, 0
2, 63604, Note_on_c, 0, 43, 0
2, 63604, Note_on_c, 0, 50, 0
2, 63605, Note_on_c, 0, 91, 0
2, 63613, Note_on_c, 0, 78, 0
2, 63621, Note_on_c, 0, 79, 0
2, 63621, Note_on_c, 0, 83, 0
2, 63621, Note_on_c, 0, 86, 0
2, 63641, Note_on_c, 0, 84, 103
2, 63648, Note_on_c, 0, 48, 87
2, 63648, Note_on_c, 0, 36, 93
2, 63649, Note_on_c, 0, 72, 95
2, 63653, Note_on_c, 0, 79, 67
2, 63655, Note_on_c, 0, 75, 91
2, 63713, Control_c, 0, 64, 127
2, 63751, Note_on_c, 0, 36, 0
2, 63889, Note_on_c, 0, 75, 0
2, 63896, Note_on_c, 0, 75, 64
2, 63897, Note_on_c, 0, 72, 0
2, 63902, Note_on_c, 0, 72, 64
2, 63909, Note_on_c, 0, 67, 67
2, 64094, Note_on_c, 0, 65, 74
2, 64104, Note_on_c, 0, 72, 0
2, 64111, Note_on_c, 0, 62, 63
2, 64112, Note_on_c, 0, 75, 0
2, 64115, Note_on_c, 0, 72, 70
2, 64116, Note_on_c, 0, 75, 64
2, 64304, Note_on_c, 0, 67, 0
2, 64309, Note_on_c, 0, 67, 76
2, 64320, Note_on_c, 0, 72, 0
2, 64327, Note_on_c, 0, 75, 0
2, 64330, Note_on_c, 0, 72, 70
2, 64332, Note_on_c, 0, 75, 63
2, 64512, Note_on_c, 0, 67, 0
2, 64516, Note_on_c, 0, 63, 82
2, 64519, Note_on_c, 0, 75, 0
2, 64521, Note_on_c, 0, 60, 73
2, 64521, Note_on_c, 0, 67, 61
2, 64522, Note_on_c, 0, 82, 100
2, 64527, Note_on_c, 0, 79, 0
2, 64529, Note_on_c, 0, 75, 83
2, 64538, Note_on_c, 0, 79, 67
2, 64704, Note_on_c, 0, 60, 0
2, 64715, Note_on_c, 0, 60, 62
2, 64750, Note_on_c, 0, 72, 0
2, 64750, Note_on_c, 0, 75, 0
2, 64760, Note_on_c, 0, 75, 69
2, 64761, Note_on_c, 0, 72, 70
2, 64814, Note_on_c, 0, 55, 74
2, 64934, Note_on_c, 0, 48, 0
2, 64944, Note_on_c, 0, 48, 69
2, 64957, Note_on_c, 0, 63, 0
2, 64961, Note_on_c, 0, 63, 40
2, 65126, Note_on_c, 0, 55, 0
2, 65134, Note_on_c, 0, 82, 0
2, 65135, Note_on_c, 0, 55, 75
2, 65141, Note_on_c, 0, 75, 0
2, 65145, Note_on_c, 0, 82, 96
2, 65149, Note_on_c, 0, 75, 90
2, 65149, Note_on_c, 0, 72, 0
2, 65153, Note_on_c, 0, 72, 83
2, 65330, Control_c, 0, 64, 0
2, 65336, Note_on_c, 0, 65, 0
2, 65336, Note_on_c, 0, 62, 0
2, 65336, Note_on_c, 0, 72, 0
2, 65337, Note_on_c, 0, 82, 0
2, 65337, Note_on_c, 0, 84, 0
2, 65337, Note_on_c, 0, 67, 0
2, 65337, Note_on_c, 0, 63, 0
2, 65337, Note_on_c, 0, 55, 0
2, 65337, Note_on_c, 0, 75, 0
2, 65349, Note_on_c, 0, 48, 0
2, 65349, Note_on_c, 0, 60, 0
2, 65364, Note_on_c, 0, 79, 0
2, 65368, Note_on_c, 0, 32, 90
2, 65369, Note_on_c, 0, 75, 82
2, 65369, Note_on_c, 0, 79, 94
2, 65371, Note_on_c, 0, 72, 86
2, 65456, Control_c, 0, 64, 127
2, 65576, Note_on_c, 0, 77, 89
2, 65586, Note_on_c, 0, 67, 72
2, 65786, Note_on_c, 0, 72, 0
2, 65786, Note_on_c, 0, 75, 0
2, 65790, Note_on_c, 0, 75, 98
2, 65797, Note_on_c, 0, 65, 71
2, 65798, Note_on_c, 0, 72, 76
2, 65799, Note_on_c, 0, 68, 64
2, 65799, Note_on_c, 0, 62, 64
2, 65801, Note_on_c, 0, 60, 60
2, 65809, Note_on_c, 0, 68, 0
2, 65986, Note_on_c, 0, 67, 0
2, 65994, Note_on_c, 0, 72, 0
2, 65997, Note_on_c, 0, 67, 71
2, 66003, Note_on_c, 0, 72, 57
2, 66193, Note_on_c, 0, 60, 0
2, 66193, Note_on_c, 0, 72, 0
2, 66197, Note_on_c, 0, 63, 76
2, 66198, Note_on_c, 0, 72, 73
2, 66198, Note_on_c, 0, 68, 60
2, 66199, Note_on_c, 0, 60, 75
2, 66378, Note_on_c, 0, 68, 0
2, 66388, Note_on_c, 0, 56, 69
2, 66389, Note_on_c, 0, 68, 63
2, 66401, Note_on_c, 0, 63, 0
2, 66408, Note_on_c, 0, 63, 42
2, 66408, Note_on_c, 0, 72, 0
2, 66413, Note_on_c, 0, 72, 71
2, 66501, Note_on_c, 0, 60, 0
2, 66504, Note_on_c, 0, 51, 58
2, 66506, Note_on_c, 0, 60, 53
2, 66608, Note_on_c, 0, 32, 0
2, 66613, Note_on_c, 0, 44, 78
2, 66616, Note_on_c, 0, 72, 0
2, 66617, Note_on_c, 0, 32, 71
2, 66622, Note_on_c, 0, 72, 65
2, 66800, Note_on_c, 0, 51, 0
2, 66808, Note_on_c, 0, 72, 0
2, 66808, Note_on_c, 0, 75, 0
2, 66811, Note_on_c, 0, 51, 63
2, 66812, Note_on_c, 0, 75, 87
2, 66817, Note_on_c, 0, 72, 71
2, 66969, Note_on_c, 0, 62, 0
2, 66971, Note_on_c, 0, 65, 0
2, 66971, Note_on_c, 0, 79, 0
2, 66971, Note_on_c, 0, 51, 0
2, 66971, Note_on_c, 0, 44, 0
2, 66972, Note_on_c, 0, 60, 0
2, 66972, Note_on_c, 0, 63, 0
2, 66972, Note_on_c, 0, 67, 0
2, 66972, Note_on_c, 0, 72, 0
2, 66973, Control_c, 0, 64, 0
2, 66973, Note_on_c, 0, 75, 0
2, 66977, Note_on_c, 0, 68, 0
2, 66984, Note_on_c, 0, 32, 0
2, 66984, Note_on_c, 0, 56, 0
2, 67008, Note_on_c, 0, 77, 0
2, 67012, Note_on_c, 0, 77, 95
2, 67020, Note_on_c, 0, 46, 86
2, 67021, Note_on_c, 0, 74, 78
2, 67021, Note_on_c, 0, 70, 84
2, 67022, Note_on_c, 0, 34, 82
2, 67077, Control_c, 0, 64, 127
2, 67223, Note_on_c, 0, 70, 0
2, 67227, Note_on_c, 0, 65, 63
2, 67227, Note_on_c, 0, 70, 65
2, 67430, Note_on_c, 0, 74, 0
2, 67434, Note_on_c, 0, 60, 75
2, 67435, Note_on_c, 0, 74, 80
2, 67436, Note_on_c, 0, 63, 70
2, 67438, Note_on_c, 0, 70, 0
2, 67442, Note_on_c, 0, 70, 71
2, 67614, Note_on_c, 0, 65, 0
2, 67614, Note_on_c, 0, 77, 0
2, 67621, Note_on_c, 0, 65, 75
2, 67625, Note_on_c, 0, 77, 93
2, 67637, Note_on_c, 0, 70, 0
2, 67649, Note_on_c, 0, 70, 51
2, 67654, Note_on_c, 0, 75, 57
2, 67833, Note_on_c, 0, 58, 75
2, 67834, Note_on_c, 0, 62, 70
2, 67837, Note_on_c, 0, 74, 0
2, 67845, Note_on_c, 0, 70, 0
2, 67848, Note_on_c, 0, 74, 70
2, 67851, Note_on_c, 0, 70, 70
2, 68014, Note_on_c, 0, 58, 0
2, 68025, Note_on_c, 0, 58, 76
2, 68052, Note_on_c, 0, 70, 0
2, 68055, Note_on_c, 0, 82, 103
2, 68060, Note_on_c, 0, 74, 0
2, 68063, Note_on_c, 0, 70, 80
2, 68065, Note_on_c, 0, 74, 84
2, 68125, Note_on_c, 0, 53, 73
2, 68236, Note_on_c, 0, 46, 0
2, 68244, Note_on_c, 0, 70, 0
2, 68244, Note_on_c, 0, 74, 0
2, 68247, Note_on_c, 0, 46, 84
2, 68254, Note_on_c, 0, 70, 78
2, 68254, Note_on_c, 0, 74, 75
2, 68428, Note_on_c, 0, 53, 0
2, 68434, Note_on_c, 0, 53, 52
2, 68448, Note_on_c, 0, 79, 89
2, 68536, Note_on_c, 0, 77, 0
2, 68540, Note_on_c, 0, 77, 89
2, 68586, Note_on_c, 0, 62, 0
2, 68586, Control_c, 0, 64, 0
2, 68586, Note_on_c, 0, 74, 0
2, 68586, Note_on_c, 0, 53, 0
2, 68586, Note_on_c, 0, 60, 0
2, 68587, Note_on_c, 0, 79, 0
2, 68587, Note_on_c, 0, 77, 0
2, 68587, Note_on_c, 0, 75, 0
2, 68587, Note_on_c, 0, 63, 0
2, 68587, Note_on_c, 0, 82, 0
2, 68597, Note_on_c, 0, 34, 0
2, 68605, Note_on_c, 0, 46, 0
2, 68605, Note_on_c, 0, 58, 0
2, 68605, Note_on_c, 0, 65, 0
2, 68605, Note_on_c, 0, 70, 0
2, 68638, Note_on_c, 0, 39, 92
2, 68640, Note_on_c, 0, 79, 93
2, 68646, Note_on_c, 0, 67, 80
2, 68647, Note_on_c, 0, 70, 84
2, 68647, Note_on_c, 0, 75, 75
2, 68689, Control_c, 0, 64, 127
2, 68843, Note_on_c, 0, 67, 0
2, 68848, Note_on_c, 0, 67, 71
2, 68875, Note_on_c, 0, 51, 39
2, 69035, Note_on_c, 0, 67, 0
2, 69040, Note_on_c, 0, 65, 85
2, 69046, Note_on_c, 0, 67, 71
2, 69049, Note_on_c, 0, 62, 78
2, 69242, Note_on_c, 0, 67, 0
2, 69247, Note_on_c, 0, 67, 75
2, 69247, Note_on_c, 0, 63, 76
2, 69393, Note_on_c, 0, 39, 0
2, 69394, Note_on_c, 0, 70, 0
2, 69394, Note_on_c, 0, 51, 0
2, 69394, Note_on_c, 0, 65, 0
2, 69394, Note_on_c, 0, 67, 0
2, 69394, Note_on_c, 0, 63, 0
2, 69394, Note_on_c, 0, 75, 0
2, 69394, Note_on_c, 0, 62, 0
2, 69395, Control_c, 0, 64, 0
2, 69452, Note_on_c, 0, 31, 80
2, 69452, Note_on_c, 0, 43, 80
2, 69453, Note_on_c, 0, 72, 92
2, 69454, Note_on_c, 0, 55, 82
2, 69480, Note_on_c, 0, 31, 0
2, 69504, Control_c, 0, 64, 127
2, 69653, Note_on_c, 0, 67, 83
2, 69657, Note_on_c, 0, 55, 0
2, 69667, Note_on_c, 0, 55, 60
2, 69755, Note_on_c, 0, 62, 82
2, 69864, Note_on_c, 0, 67, 0
2, 69864, Note_on_c, 0, 79, 0
2, 69866, Note_on_c, 0, 59, 84
2, 69867, Note_on_c, 0, 71, 79
2, 69873, Note_on_c, 0, 67, 80
2, 69875, Note_on_c, 0, 79, 96
2, 69972, Note_on_c, 0, 55, 0
2, 69982, Note_on_c, 0, 55, 84
2, 70069, Note_on_c, 0, 50, 78
2, 70183, Note_on_c, 0, 48, 81
2, 70251, Note_on_c, 0, 72, 0
2, 70251, Control_c, 0, 64, 0
2, 70252, Note_on_c, 0, 67, 0
2, 70252, Note_on_c, 0, 62, 0
2, 70252, Note_on_c, 0, 59, 0
2, 70252, Note_on_c, 0, 50, 0
2, 70252, Note_on_c, 0, 79, 0
2, 70264, Note_on_c, 0, 43, 0
2, 70272, Note_on_c, 0, 55, 0
2, 70272, Note_on_c, 0, 71, 0
2, 70283, Note_on_c, 0, 84, 101
2, 70288, Note_on_c, 0, 72, 95
2, 70291, Note_on_c, 0, 36, 90
2, 70293, Note_on_c, 0, 75, 85
2, 70293, Note_on_c, 0, 79, 62
2, 70348, Control_c, 0, 64, 127
2, 70494, Note_on_c, 0, 72, 0
2, 70504, Note_on_c, 0, 72, 75
2, 70510, Note_on_c, 0, 79, 0
2, 70511, Note_on_c, 0, 67, 72
2, 70518, Note_on_c, 0, 79, 56
2, 70706, Note_on_c, 0, 65, 79
2, 70709, Note_on_c, 0, 72, 0
2, 70713, Note_on_c, 0, 62, 69
2, 70716, Note_on_c, 0, 72, 72
2, 70717, Note_on_c, 0, 75, 0
2, 70725, Note_on_c, 0, 75, 70
2, 70894, Note_on_c, 0, 67, 0
2, 70903, Note_on_c, 0, 67, 74
2, 70909, Note_on_c, 0, 72, 0
2, 70909, Note_on_c, 0, 75, 0
2, 70915, Note_on_c, 0, 75, 64
2, 70916, Note_on_c, 0, 72, 77
2, 71112, Note_on_c, 0, 82, 100
2, 71113, Note_on_c, 0, 63, 84
2, 71116, Note_on_c, 0, 72, 0
2, 71116, Note_on_c, 0, 75, 0
2, 71116, Note_on_c, 0, 79, 0
2, 71118, Note_on_c, 0, 60, 76
2, 71126, Note_on_c, 0, 75, 82
2, 71126, Note_on_c, 0, 72, 87
2, 71127, Note_on_c, 0, 79, 68
2, 71316, Note_on_c, 0, 79, 0
2, 71327, Note_on_c, 0, 79, 53
2, 71331, Note_on_c, 0, 72, 0
2, 71331, Note_on_c, 0, 75, 0
2, 71335, Note_on_c, 0, 72, 69
2, 71335, Note_on_c, 0, 75, 62
2, 71414, Note_on_c, 0, 55, 70
2, 71531, Note_on_c, 0, 48, 0
2, 71531, Note_on_c, 0, 72, 0
2, 71531, Note_on_c, 0, 75, 0
2, 71539, Note_on_c, 0, 48, 83
2, 71541, Note_on_c, 0, 75, 74
2, 71542, Note_on_c, 0, 72, 69
2, 71715, Note_on_c, 0, 55, 0
2, 71720, Note_on_c, 0, 55, 68
2, 71731, Note_on_c, 0, 82, 0
2, 71738, Note_on_c, 0, 72, 0
2, 71741, Note_on_c, 0, 82, 91
2, 71746, Note_on_c, 0, 75, 0
2, 71747, Note_on_c, 0, 72, 80
2, 71751, Note_on_c, 0, 75, 76
2, 71759, Note_on_c, 0, 76, 58
2, 71769, Note_on_c, 0, 76, 0
2, 71908, Note_on_c, 0, 48, 0
2, 71910, Control_c, 0, 64, 0
2, 71910, Note_on_c, 0, 62, 0
2, 71910, Note_on_c, 0, 82, 0
2, 71910, Note_on_c, 0, 65, 0
2, 71911, Note_on_c, 0, 63, 0
2, 71911, Note_on_c, 0, 67, 0
2, 71911, Note_on_c, 0, 75, 0
2, 71911, Note_on_c, 0, 72, 0
2, 71911, Note_on_c, 0, 84, 0
2, 71915, Note_on_c, 0, 36, 0
2, 71923, Note_on_c, 0, 55, 0
2, 71923, Note_on_c, 0, 60, 0
2, 71938, Note_on_c, 0, 79, 0
2, 71949, Note_on_c, 0, 32, 92
2, 71949, Note_on_c, 0, 79, 99
2, 71949, Note_on_c, 0, 72, 92
2, 71950, Note_on_c, 0, 75, 84
2, 72000, Control_c, 0, 64, 127
2, 72151, Note_on_c, 0, 77, 91
2, 72176, Note_on_c, 0, 72, 0
2, 72179, Note_on_c, 0, 67, 64
2, 72187, Note_on_c, 0, 72, 44
2, 72360, Note_on_c, 0, 75, 0
2, 72368, Note_on_c, 0, 72, 0
2, 72369, Note_on_c, 0, 75, 101
2, 72373, Note_on_c, 0, 65, 75
2, 72374, Note_on_c, 0, 62, 72
2, 72376, Note_on_c, 0, 72, 79
2, 72560, Note_on_c, 0, 67, 0
2, 72560, Note_on_c, 0, 72, 0
2, 72564, Note_on_c, 0, 55, 55
2, 72565, Note_on_c, 0, 67, 70
2, 72565, Note_on_c, 0, 60, 49
2, 72568, Note_on_c, 0, 72, 67
2, 72752, Note_on_c, 0, 60, 0
2, 72752, Note_on_c, 0, 72, 0
2, 72752, Note_on_c, 0, 75, 0
2, 72757, Note_on_c, 0, 63, 82
2, 72761, Note_on_c, 0, 60, 73
2, 72762, Note_on_c, 0, 75, 76
2, 72763, Note_on_c, 0, 72, 77
2, 72763, Note_on_c, 0, 68, 66
2, 72956, Note_on_c, 0, 56, 64
2, 72960, Note_on_c, 0, 68, 0
2, 72960, Note_on_c, 0, 72, 0
2, 72963, Note_on_c, 0, 68, 55
2, 72968, Note_on_c, 0, 72, 62
2, 73087, Note_on_c, 0, 51, 54
2, 73167, Note_on_c, 0, 32, 0
2, 73167, Note_on_c, 0, 72, 0
2, 73171, Note_on_c, 0, 72, 69
2, 73173, Note_on_c, 0, 44, 77
2, 73176, Note_on_c, 0, 32, 70
2, 73359, Note_on_c, 0, 56, 0
2, 73359, Note_on_c, 0, 68, 0
2, 73359, Note_on_c, 0, 75, 0
2, 73367, Note_on_c, 0, 72, 0
2, 73368, Note_on_c, 0, 56, 68
2, 73369, Note_on_c, 0, 75, 85
2, 73370, Note_on_c, 0, 68, 80
2, 73373, Note_on_c, 0, 72, 68
2, 73520, Note_on_c, 0, 55, 0
2, 73522, Note_on_c, 0, 62, 0
2, 73523, Note_on_c, 0, 79, 0
2, 73523, Note_on_c, 0, 65, 0
2, 73523, Note_on_c, 0, 51, 0
2, 73524, Note_on_c, 0, 60, 0
2, 73524, Note_on_c, 0, 32, 0
2, 73524, Note_on_c, 0, 67, 0
2, 73524, Note_on_c, 0, 63, 0
2, 73524, Note_on_c, 0, 56, 0
2, 73524, Note_on_c, 0, 72, 0
2, 73524, Control_c, 0, 64, 0
2, 73524, Note_on_c, 0, 75, 0
2, 73543, Note_on_c, 0, 44, 0
2, 73543, Note_on_c, 0, 68, 0
2, 73559, Note_on_c, 0, 77, 0
2, 73569, Note_on_c, 0, 77, 94
2, 73572, Note_on_c, 0, 46, 86
2, 73576, Note_on_c, 0, 34, 85
2, 73576, Note_on_c, 0, 70, 74
2, 73578, Note_on_c, 0, 74, 67
2, 73612, Control_c, 0, 64, 127
2, 73781, Note_on_c, 0, 70, 0
2, 73791, Note_on_c, 0, 65, 66
2, 73793, Note_on_c, 0, 70, 65
2, 73996, Note_on_c, 0, 70, 0
2, 73997, Note_on_c, 0, 75, 85
2, 74004, Note_on_c, 0, 65, 0
2, 74006, Note_on_c, 0, 70, 72
2, 74008, Note_on_c, 0, 65, 68
2, 74022, Note_on_c, 0, 53, 51
2, 74181, Note_on_c, 0, 77, 0
2, 74185, Note_on_c, 0, 77, 90
2, 74371, Note_on_c, 0, 62, 81
2, 74377, Note_on_c, 0, 58, 73
2, 74380, Note_on_c, 0, 70, 0
2, 74386, Note_on_c, 0, 70, 65
2, 74572, Note_on_c, 0, 58, 0
2, 74572, Note_on_c, 0, 74, 0
2, 74576, Note_on_c, 0, 74, 88
2, 74576, Note_on_c, 0, 58, 75
2, 74580, Note_on_c, 0, 70, 0
2, 74589, Note_on_c, 0, 70, 69
2, 74688, Note_on_c, 0, 53, 0
2, 74691, Note_on_c, 0, 53, 62
2, 74795, Note_on_c, 0, 46, 0
2, 74795, Note_on_c, 0, 70, 0
2, 74799, Note_on_c, 0, 70, 67
2, 74800, Note_on_c, 0, 46, 75
2, 74956, Note_on_c, 0, 53, 0
2, 74964, Note_on_c, 0, 53, 49
2, 74997, Note_on_c, 0, 72, 74
2, 75079, Note_on_c, 0, 70, 0
2, 75089, Note_on_c, 0, 70, 76
2, 75152, Control_c, 0, 64, 0
2, 75159, Note_on_c, 0, 62, 0
2, 75159, Note_on_c, 0, 65, 0
2, 75159, Note_on_c, 0, 75, 0
2, 75159, Note_on_c, 0, 53, 0
2, 75159, Note_on_c, 0, 74, 0
2, 75159, Note_on_c, 0, 77, 0
2, 75159, Note_on_c, 0, 46, 0
2, 75160, Note_on_c, 0, 70, 0
2, 75171, Note_on_c, 0, 34, 0
2, 75171, Note_on_c, 0, 58, 0
2, 75187, Note_on_c, 0, 72, 0
2, 75191, Note_on_c, 0, 72, 94
2, 75193, Note_on_c, 0, 36, 77
2, 75279, Control_c, 0, 64, 127
2, 75398, Note_on_c, 0, 67, 57
2, 75399, Note_on_c, 0, 48, 54
2, 75582, Note_on_c, 0, 65, 59
2, 75618, Note_on_c, 0, 62, 54
2, 75802, Note_on_c, 0, 55, 57
2, 75824, Note_on_c, 0, 67, 0
2, 75831, Note_on_c, 0, 67, 45
2, 75897, Control_c, 0, 64, 0
2, 75955, Control_c, 0, 64, 127
2, 76010, Note_on_c, 0, 63, 53
2, 76229, Note_on_c, 0, 60, 50
2, 76416, Note_on_c, 0, 72, 0
2, 76424, Note_on_c, 0, 72, 68
2, 76515, Note_on_c, 0, 36, 0
2, 76638, Note_on_c, 0, 55, 0
2, 76643, Note_on_c, 0, 55, 50
2, 76648, Note_on_c, 0, 74, 68
2, 76830, Note_on_c, 0, 48, 0
2, 76839, Note_on_c, 0, 48, 49
2, 76849, Note_on_c, 0, 75, 83
2, 76871, Control_c, 0, 64, 0
2, 76872, Note_on_c, 0, 72, 0
2, 76872, Note_on_c, 0, 67, 0
2, 76872, Note_on_c, 0, 63, 0
2, 76873, Note_on_c, 0, 55, 0
2, 76873, Note_on_c, 0, 60, 0
2, 76873, Note_on_c, 0, 74, 0
2, 76876, Note_on_c, 0, 62, 0
2, 76876, Note_on_c, 0, 65, 0
2, 76976, Control_c, 0, 64, 127
2, 77057, Note_on_c, 0, 55, 54
2, 77264, Note_on_c, 0, 60, 50
2, 77474, Note_on_c, 0, 62, 50
2, 77475, Note_on_c, 0, 74, 72
2, 77667, Note_on_c, 0, 75, 0
2, 77679, Note_on_c, 0, 75, 87
2, 77680, Note_on_c, 0, 63, 53
2, 77852, Note_on_c, 0, 62, 0
2, 77857, Note_on_c, 0, 62, 59
2, 78082, Note_on_c, 0, 60, 0
2, 78087, Note_on_c, 0, 79, 71
2, 78089, Note_on_c, 0, 60, 51
2, 78259, Note_on_c, 0, 55, 0
2, 78267, Note_on_c, 0, 55, 57
2, 78382, Note_on_c, 0, 62, 0
2, 78390, Note_on_c, 0, 62, 45
2, 78439, Note_on_c, 0, 67, 51
2, 78476, Note_on_c, 0, 58, 55
2, 78481, Note_on_c, 0, 74, 0
2, 78488, Note_on_c, 0, 74, 79
2, 78491, Note_on_c, 0, 46, 56
2, 78502, Control_c, 0, 64, 0
2, 78505, Note_on_c, 0, 62, 0
2, 78505, Note_on_c, 0, 60, 0
2, 78505, Note_on_c, 0, 55, 0
2, 78506, Note_on_c, 0, 63, 0
2, 78506, Note_on_c, 0, 75, 0
2, 78507, Note_on_c, 0, 79, 0
2, 78520, Note_on_c, 0, 48, 0
2, 78604, Control_c, 0, 64, 127
2, 78695, Note_on_c, 0, 55, 57
2, 78896, Note_on_c, 0, 67, 0
2, 78900, Note_on_c, 0, 67, 46
2, 79080, Note_on_c, 0, 58, 0
2, 79091, Note_on_c, 0, 58, 32
2, 79284, Note_on_c, 0, 62, 55
2, 79488, Note_on_c, 0, 58, 0
2, 79495, Note_on_c, 0, 67, 0
2, 79498, Note_on_c, 0, 58, 38
2, 79506, Note_on_c, 0, 67, 50
2, 79680, Note_on_c, 0, 55, 0
2, 79683, Note_on_c, 0, 55, 45
2, 79685, Note_on_c, 0, 68, 75
2, 79889, Note_on_c, 0, 70, 74
2, 79895, Note_on_c, 0, 46, 0
2, 79904, Note_on_c, 0, 46, 43
2, 80084, Note_on_c, 0, 72, 75
2, 80100, Note_on_c, 0, 44, 54
2, 80106, Note_on_c, 0, 60, 49
2, 80110, Note_on_c, 0, 68, 0
2, 80116, Note_on_c, 0, 62, 0
2, 80117, Note_on_c, 0, 55, 0
2, 80117, Note_on_c, 0, 68, 56
2, 80118, Note_on_c, 0, 46, 0
2, 80118, Note_on_c, 0, 70, 0
2, 80120, Control_c, 0, 64, 0
2, 80123, Note_on_c, 0, 63, 46
2, 80133, Note_on_c, 0, 58, 0
2, 80133, Note_on_c, 0, 74, 0
2, 80140, Note_on_c, 0, 67, 0
2, 80232, Control_c, 0, 64, 127
2, 80307, Note_on_c, 0, 51, 53
2, 80507, Note_on_c, 0, 56, 59
2, 80703, Note_on_c, 0, 58, 57
2, 80705, Note_on_c, 0, 70, 68
2, 80893, Note_on_c, 0, 72, 0
2, 80902, Note_on_c, 0, 72, 81
2, 80916, Note_on_c, 0, 60, 0
2, 80916, Note_on_c, 0, 63, 0
2, 80916, Note_on_c, 0, 68, 0
2, 80920, Note_on_c, 0, 60, 54
2, 80923, Note_on_c, 0, 68, 62
2, 80923, Note_on_c, 0, 63, 58
2, 81100, Note_on_c, 0, 56, 0
2, 81106, Note_on_c, 0, 56, 62
2, 81308, Note_on_c, 0, 51, 0
2, 81312, Note_on_c, 0, 51, 48
2, 81313, Note_on_c, 0, 75, 75
2, 81492, Note_on_c, 0, 44, 0
2, 81496, Note_on_c, 0, 44, 58
2, 81684, Note_on_c, 0, 63, 0
2, 81690, Note_on_c, 0, 65, 57
2, 81695, Note_on_c, 0, 63, 49
2, 81715, Note_on_c, 0, 70, 0
2, 81719, Note_on_c, 0, 70, 73
2, 81732, Note_on_c, 0, 43, 54
2, 81751, Note_on_c, 0, 68, 0
2, 81752, Note_on_c, 0, 56, 0
2, 81752, Note_on_c, 0, 58, 0
2, 81753, Note_on_c, 0, 72, 0
2, 81753, Note_on_c, 0, 51, 0
2, 81755, Note_on_c, 0, 60, 0
2, 81755, Note_on_c, 0, 75, 0
2, 81755, Note_on_c, 0, 44, 0
2, 81756, Control_c, 0, 64, 0
2, 81891, Control_c, 0, 64, 127
2, 81919, Note_on_c, 0, 51, 47
2, 82122, Note_on_c, 0, 65, 0
2, 82132, Note_on_c, 0, 65, 52
2, 82302, Note_on_c, 0, 55, 50
2, 82506, Note_on_c, 0, 63, 0
2, 82517, Note_on_c, 0, 63, 56
2, 82543, Note_on_c, 0, 58, 45
2, 82698, Note_on_c, 0, 55, 0
2, 82704, Note_on_c, 0, 55, 54
2, 82910, Note_on_c, 0, 67, 75
2, 82913, Note_on_c, 0, 51, 0
2, 82920, Note_on_c, 0, 63, 0
2, 82923, Note_on_c, 0, 51, 47
2, 82930, Note_on_c, 0, 63, 42
2, 83105, Note_on_c, 0, 43, 0
2, 83111, Note_on_c, 0, 43, 46
2, 83317, Note_on_c, 0, 68, 79
2, 83318, Note_on_c, 0, 41, 65
2, 83328, Note_on_c, 0, 63, 0
2, 83336, Note_on_c, 0, 63, 50
2, 83338, Note_on_c, 0, 58, 0
2, 83338, Note_on_c, 0, 65, 0
2, 83338, Note_on_c, 0, 55, 0
2, 83339, Note_on_c, 0, 51, 0
2, 83339, Note_on_c, 0, 43, 0
2, 83340, Note_on_c, 0, 67, 0
2, 83346, Note_on_c, 0, 60, 47
2, 83350, Control_c, 0, 64, 0
2, 83358, Note_on_c, 0, 70, 0
2, 83443, Control_c, 0, 64, 127
2, 83524, Note_on_c, 0, 48, 58
2, 83716, Note_on_c, 0, 53, 55
2, 83934, Note_on_c, 0, 67, 69
2, 83937, Note_on_c, 0, 55, 64
2, 84126, Note_on_c, 0, 68, 0
2, 84136, Note_on_c, 0, 68, 81
2, 84303, Note_on_c, 0, 53, 0
2, 84313, Note_on_c, 0, 53, 63
2, 84435, Note_on_c, 0, 75, 86
2, 84487, Note_on_c, 0, 48, 0
2, 84497, Note_on_c, 0, 48, 59
2, 84672, Note_on_c, 0, 41, 0
2, 84681, Note_on_c, 0, 41, 59
2, 84910, Note_on_c, 0, 67, 0
2, 84917, Note_on_c, 0, 63, 0
2, 84921, Note_on_c, 0, 67, 71
2, 84925, Note_on_c, 0, 60, 0
2, 84926, Note_on_c, 0, 39, 69
2, 84929, Note_on_c, 0, 63, 66
2, 84929, Note_on_c, 0, 60, 56
2, 84952, Note_on_c, 0, 41, 0
2, 84953, Note_on_c, 0, 48, 0
2, 84953, Note_on_c, 0, 55, 0
2, 84953, Note_on_c, 0, 68, 0
2, 84958, Note_on_c, 0, 53, 0
2, 84962, Control_c, 0, 64, 0
2, 85071, Control_c, 0, 64, 127
2, 85148, Note_on_c, 0, 48, 48
2, 85328, Note_on_c, 0, 50, 59
2, 85523, Note_on_c, 0, 65, 71
2, 85731, Note_on_c, 0, 60, 0
2, 85731, Note_on_c, 0, 67, 0
2, 85735, Note_on_c, 0, 67, 76
2, 85736, Note_on_c, 0, 60, 66
2, 85933, Note_on_c, 0, 55, 69
2, 86127, Note_on_c, 0, 51, 61
2, 86139, Note_on_c, 0, 74, 86
2, 86161, Note_on_c, 0, 67, 0
2, 86170, Note_on_c, 0, 67, 42
2, 86346, Note_on_c, 0, 50, 0
2, 86346, Note_on_c, 0, 75, 0
2, 86351, Note_on_c, 0, 50, 55
2, 86356, Note_on_c, 0, 75, 85
2, 86561, Note_on_c, 0, 74, 0
2, 86567, Note_on_c, 0, 74, 88
2, 86572, Note_on_c, 0, 38, 74
2, 86580, Note_on_c, 0, 62, 55
2, 86587, Note_on_c, 0, 66, 60
2, 86600, Note_on_c, 0, 48, 0
2, 86600, Control_c, 0, 64, 0
2, 86600, Note_on_c, 0, 51, 0
2, 86601, Note_on_c, 0, 50, 0
2, 86601, Note_on_c, 0, 55, 0
2, 86601, Note_on_c, 0, 60, 0
2, 86601, Note_on_c, 0, 39, 0
2, 86602, Note_on_c, 0, 67, 0
2, 86602, Note_on_c, 0, 65, 0
2, 86602, Note_on_c, 0, 75, 0
2, 86607, Note_on_c, 0, 63, 0
2, 86707, Control_c, 0, 64, 127
2, 86787, Note_on_c, 0, 45, 57
2, 86963, Note_on_c, 0, 50, 64
2, 87159, Note_on_c, 0, 54, 67
2, 87164, Note_on_c, 0, 69, 71
2, 87352, Note_on_c, 0, 69, 0
2, 87361, Note_on_c, 0, 69, 73
2, 87375, Note_on_c, 0, 66, 0
2, 87382, Note_on_c, 0, 60, 64
2, 87382, Note_on_c, 0, 66, 64
2, 87571, Note_on_c, 0, 57, 68
2, 87767, Note_on_c, 0, 50, 0
2, 87767, Note_on_c, 0, 69, 0
2, 87770, Note_on_c, 0, 72, 81
2, 87776, Note_on_c, 0, 50, 67
2, 87777, Note_on_c, 0, 69, 61
2, 87959, Note_on_c, 0, 74, 0
2, 87963, Note_on_c, 0, 74, 88
2, 88181, Note_on_c, 0, 74, 0
2, 88190, Note_on_c, 0, 74, 88
2, 88197, Note_on_c, 0, 43, 69
2, 88200, Note_on_c, 0, 71, 68
2, 88204, Note_on_c, 0, 69, 0
2, 88208, Note_on_c, 0, 67, 67
2, 88209, Note_on_c, 0, 69, 62
2, 88209, Control_c, 0, 64, 0
2, 88218, Note_on_c, 0, 54, 0
2, 88219, Note_on_c, 0, 45, 0
2, 88219, Note_on_c, 0, 50, 0
2, 88219, Note_on_c, 0, 62, 0
2, 88220, Note_on_c, 0, 57, 0
2, 88221, Note_on_c, 0, 66, 0
2, 88221, Note_on_c, 0, 60, 0
2, 88221, Note_on_c, 0, 72, 0
2, 88227, Note_on_c, 0, 38, 0
2, 88312, Note_on_c, 0, 69, 0
2, 88320, Control_c, 0, 64, 127
2, 88395, Note_on_c, 0, 50, 66
2, 88630, Note_on_c, 0, 57, 86
2, 88632, Note_on_c, 0, 69, 67
2, 88826, Note_on_c, 0, 50, 0
2, 88834, Note_on_c, 0, 50, 70
2, 89032, Note_on_c, 0, 59, 86
2, 89246, Note_on_c, 0, 41, 87
2, 89246, Note_on_c, 0, 53, 83
2, 89485, Note_on_c, 0, 84, 101
2, 89486, Note_on_c, 0, 39, 93
2, 89488, Note_on_c, 0, 51, 83
2, 89491, Note_on_c, 0, 72, 94
2, 89733, Note_on_c, 0, 50, 0
2, 89740, Note_on_c, 0, 74, 0
2, 89741, Note_on_c, 0, 50, 85
2, 89743, Note_on_c, 0, 86, 93
2, 89743, Note_on_c, 0, 38, 89
2, 89745, Note_on_c, 0, 74, 92
2, 90026, Control_c, 0, 64, 0
2, 90036, Note_on_c, 0, 84, 0
2, 90036, Note_on_c, 0, 39, 0
2, 90036, Note_on_c, 0, 72, 0
2, 90039, Note_on_c, 0, 86, 0
2, 90039, Note_on_c, 0, 38, 0
2, 90040, Note_on_c, 0, 43, 0
2, 90040, Note_on_c, 0, 74, 0
2, 90048, Note_on_c, 0, 51, 0
2, 90048, Note_on_c, 0, 48, 95
2, 90051, Note_on_c, 0, 36, 94
2, 90052, Note_on_c, 0, 87, 101
2, 90053, Note_on_c, 0, 24, 88
2, 90055, Note_on_c, 0, 53, 0
2, 90055, Note_on_c, 0, 59, 0
2, 90055, Note_on_c, 0, 67, 0
2, 90055, Note_on_c, 0, 71, 0
2, 90058, Note_on_c, 0, 75, 93
2, 90060, Note_on_c, 0, 79, 76
2, 90063, Note_on_c, 0, 24, 0
2, 90063, Note_on_c, 0, 41, 0
2, 90063, Note_on_c, 0, 50, 0
2, 90063, Note_on_c, 0, 57, 0
2, 90063, Note_on_c, 0, 69, 0
2, 90170, Control_c, 0, 64, 127
2, 90516, Note_on_c, 0, 55, 84
2, 90520, Note_on_c, 0, 60, 82
2, 90525, Note_on_c, 0, 51, 68
2, 90531, Note_on_c, 0, 48, 0
2, 90536, Note_on_c, 0, 48, 65
2, 90539, Note_on_c, 0, 75, 0
2, 90545, Note_on_c, 0, 75, 76
2, 90731, Note_on_c, 0, 55, 0
2, 90734, Note_on_c, 0, 63, 82
2, 90737, Note_on_c, 0, 86, 89
2, 90738, Note_on_c, 0, 74, 82
2, 90740, Note_on_c, 0, 55, 55
2, 90954, Note_on_c, 0, 75, 0
2, 90954, Note_on_c, 0, 79, 0
2, 90954, Note_on_c, 0, 87, 0
2, 90957, Note_on_c, 0, 72, 86
2, 90958, Note_on_c, 0, 87, 103
2, 90962, Note_on_c, 0, 75, 93
2, 90963, Note_on_c, 0, 67, 86
2, 90964, Note_on_c, 0, 79, 87
2, 91153, Note_on_c, 0, 60, 0
2, 91161, Note_on_c, 0, 75, 0
2, 91164, Note_on_c, 0, 60, 84
2, 91166, Note_on_c, 0, 75, 82
2, 91365, Note_on_c, 0, 91, 99
2, 91368, Note_on_c, 0, 48, 0
2, 91373, Note_on_c, 0, 48, 89
2, 91376, Note_on_c, 0, 79, 0
2, 91385, Note_on_c, 0, 79, 77
2, 91403, Note_on_c, 0, 81, 54
2, 91553, Note_on_c, 0, 55, 0
2, 91557, Note_on_c, 0, 55, 74
2, 91630, Note_on_c, 0, 74, 0
2, 91639, Note_on_c, 0, 74, 73
2, 91691, Note_on_c, 0, 79, 0
2, 91697, Note_on_c, 0, 79, 73
2, 91742, Note_on_c, 0, 82, 77
2, 91766, Note_on_c, 0, 67, 0
2, 91767, Note_on_c, 0, 48, 0
2, 91769, Control_c, 0, 64, 0
2, 91769, Note_on_c, 0, 51, 0
2, 91770, Note_on_c, 0, 75, 0
2, 91770, Note_on_c, 0, 72, 0
2, 91770, Note_on_c, 0, 63, 0
2, 91770, Note_on_c, 0, 60, 0
2, 91770, Note_on_c, 0, 55, 0
2, 91770, Note_on_c, 0, 91, 0
2, 91771, Note_on_c, 0, 87, 0
2, 91776, Note_on_c, 0, 36, 0
2, 91783, Note_on_c, 0, 81, 0
2, 91799, Note_on_c, 0, 86, 0
2, 91803, Note_on_c, 0, 34, 84
2, 91803, Note_on_c, 0, 46, 87
2, 91804, Note_on_c, 0, 86, 97
2, 91806, Note_on_c, 0, 74, 0
2, 91860, Control_c, 0, 64, 127
2, 91921, Note_on_c, 0, 82, 0
2, 91931, Note_on_c, 0, 82, 88
2, 92029, Note_on_c, 0, 46, 0
2, 92029, Note_on_c, 0, 79, 0
2, 92034, Note_on_c, 0, 46, 67
2, 92034, Note_on_c, 0, 79, 74
2, 92126, Note_on_c, 0, 74, 78
2, 92213, Note_on_c, 0, 82, 0
2, 92218, Note_on_c, 0, 82, 92
2, 92239, Note_on_c, 0, 58, 66
2, 92242, Note_on_c, 0, 55, 53
2, 92352, Note_on_c, 0, 79, 0
2, 92360, Note_on_c, 0, 79, 75
2, 92421, Note_on_c, 0, 58, 0
2, 92426, Note_on_c, 0, 58, 60
2, 92444, Note_on_c, 0, 74, 0
2, 92452, Note_on_c, 0, 74, 77
2, 92541, Note_on_c, 0, 70, 69
2, 92632, Note_on_c, 0, 67, 76
2, 92734, Note_on_c, 0, 62, 76
2, 92820, Note_on_c, 0, 58, 0
2, 92820, Note_on_c, 0, 67, 0
2, 92820, Note_on_c, 0, 79, 0
2, 92825, Note_on_c, 0, 58, 65
2, 92828, Note_on_c, 0, 79, 87
2, 92831, Note_on_c, 0, 67, 72
2, 92912, Note_on_c, 0, 58, 0
2, 92919, Note_on_c, 0, 58, 79
2, 93043, Note_on_c, 0, 46, 0
2, 93051, Note_on_c, 0, 80, 93
2, 93053, Note_on_c, 0, 46, 79
2, 93056, Note_on_c, 0, 68, 82
2, 93227, Note_on_c, 0, 55, 0
2, 93235, Note_on_c, 0, 55, 66
2, 93250, Note_on_c, 0, 82, 0
2, 93257, Note_on_c, 0, 82, 101
2, 93273, Note_on_c, 0, 70, 0
2, 93283, Note_on_c, 0, 70, 57
2, 93446, Note_on_c, 0, 86, 0
2, 93447, Note_on_c, 0, 80, 0
2, 93447, Note_on_c, 0, 68, 0
2, 93447, Note_on_c, 0, 62, 0
2, 93447, Note_on_c, 0, 79, 0
2, 93447, Note_on_c, 0, 67, 0
2, 93447, Note_on_c, 0, 74, 0
2, 93448, Note_on_c, 0, 58, 0
2, 93448, Note_on_c, 0, 70, 0
2, 93448, Note_on_c, 0, 46, 0
2, 93450, Note_on_c, 0, 34, 0
2, 93450, Control_c, 0, 64, 0
2, 93465, Note_on_c, 0, 55, 0
2, 93465, Note_on_c, 0, 82, 0
2, 93490, Note_on_c, 0, 84, 100
2, 93493, Note_on_c, 0, 44, 87
2, 93493, Note_on_c, 0, 32, 91
2, 93497, Note_on_c, 0, 80, 83
2, 93499, Note_on_c, 0, 75, 83
2, 93499, Note_on_c, 0, 72, 89
2, 93557, Control_c, 0, 64, 127
2, 93711, Note_on_c, 0, 44, 0
2, 93720, Note_on_c, 0, 44, 67
2, 93914, Note_on_c, 0, 60, 83
2, 93915, Note_on_c, 0, 68, 77
2, 93916, Note_on_c, 0, 56, 78
2, 93918, Note_on_c, 0, 72, 0
2, 93918, Note_on_c, 0, 75, 0
2, 93923, Note_on_c, 0, 75, 85
2, 93924, Note_on_c, 0, 72, 91
2, 94095, Note_on_c, 0, 51, 73
2, 94116, Note_on_c, 0, 82, 95
2, 94318, Note_on_c, 0, 84, 0
2, 94325, Note_on_c, 0, 72, 0
2, 94325, Note_on_c, 0, 75, 0
2, 94329, Note_on_c, 0, 84, 95
2, 94333, Note_on_c, 0, 56, 0
2, 94333, Note_on_c, 0, 60, 0
2, 94333, Note_on_c, 0, 68, 0
2, 94335, Note_on_c, 0, 72, 88
2, 94336, Note_on_c, 0, 75, 88
2, 94337, Note_on_c, 0, 60, 70
2, 94337, Note_on_c, 0, 63, 79
2, 94337, Note_on_c, 0, 68, 75
2, 94338, Note_on_c, 0, 56, 69
2, 94525, Note_on_c, 0, 75, 0
2, 94535, Note_on_c, 0, 75, 71
2, 94732, Note_on_c, 0, 56, 0
2, 94732, Note_on_c, 0, 60, 0
2, 94732, Note_on_c, 0, 68, 0
2, 94740, Note_on_c, 0, 75, 0
2, 94743, Note_on_c, 0, 60, 75
2, 94743, Note_on_c, 0, 68, 79
2, 94743, Note_on_c, 0, 56, 76
2, 94744, Note_on_c, 0, 84, 0
2, 94744, Note_on_c, 0, 87, 102
2, 94746, Note_on_c, 0, 75, 93
2, 94909, Note_on_c, 0, 51, 0
2, 94918, Note_on_c, 0, 51, 75
2, 95046, Note_on_c, 0, 70, 77
2, 95095, Note_on_c, 0, 68, 0
2, 95095, Note_on_c, 0, 80, 0
2, 95096, Note_on_c, 0, 44, 0
2, 95096, Note_on_c, 0, 51, 0
2, 95096, Note_on_c, 0, 87, 0
2, 95097, Note_on_c, 0, 72, 0
2, 95097, Note_on_c, 0, 63, 0
2, 95097, Control_c, 0, 64, 0
2, 95116, Note_on_c, 0, 56, 0
2, 95116, Note_on_c, 0, 60, 0
2, 95139, Note_on_c, 0, 82, 0
2, 95142, Note_on_c, 0, 43, 83
2, 95142, Note_on_c, 0, 31, 83
2, 95143, Note_on_c, 0, 77, 80
2, 95147, Note_on_c, 0, 82, 102
2, 95155, Note_on_c, 0, 32, 0
2, 95178, Control_c, 0, 64, 127
2, 95247, Note_on_c, 0, 77, 0
2, 95253, Note_on_c, 0, 77, 80
2, 95354, Note_on_c, 0, 43, 0
2, 95354, Note_on_c, 0, 75, 0
2, 95364, Note_on_c, 0, 43, 66
2, 95365, Note_on_c, 0, 75, 78
2, 95439, Note_on_c, 0, 70, 0
2, 95449, Note_on_c, 0, 70, 73
2, 95546, Note_on_c, 0, 77, 0
2, 95550, Note_on_c, 0, 55, 70
2, 95553, Note_on_c, 0, 77, 91
2, 95646, Note_on_c, 0, 75, 0
2, 95657, Note_on_c, 0, 75, 81
2, 95722, Note_on_c, 0, 51, 60
2, 95746, Note_on_c, 0, 70, 0
2, 95752, Note_on_c, 0, 70, 73
2, 95823, Note_on_c, 0, 55, 0
2, 95834, Note_on_c, 0, 55, 46
2, 95835, Note_on_c, 0, 65, 65
2, 95934, Note_on_c, 0, 63, 79
2, 96042, Note_on_c, 0, 58, 57
2, 96138, Note_on_c, 0, 55, 0
2, 96142, Note_on_c, 0, 55, 70
2, 96230, Note_on_c, 0, 51, 0
2, 96239, Note_on_c, 0, 51, 61
2, 96357, Note_on_c, 0, 79, 90
2, 96360, Note_on_c, 0, 31, 0
2, 96360, Note_on_c, 0, 43, 0
2, 96368, Note_on_c, 0, 31, 69
2, 96368, Note_on_c, 0, 70, 0
2, 96368, Note_on_c, 0, 75, 0
2, 96370, Note_on_c, 0, 43, 60
2, 96372, Note_on_c, 0, 67, 67
2, 96373, Note_on_c, 0, 70, 72
2, 96374, Note_on_c, 0, 75, 75
2, 96568, Note_on_c, 0, 55, 0
2, 96575, Note_on_c, 0, 55, 71
2, 96808, Note_on_c, 0, 80, 98
2, 96812, Note_on_c, 0, 53, 81
2, 96815, Note_on_c, 0, 72, 81
2, 96816, Note_on_c, 0, 68, 84
2, 96817, Note_on_c, 0, 41, 82
2, 96835, Note_on_c, 0, 65, 0
2, 96836, Note_on_c, 0, 55, 0
2, 96836, Control_c, 0, 64, 0
2, 96836, Note_on_c, 0, 58, 0
2, 96836, Note_on_c, 0, 63, 0
2, 96838, Note_on_c, 0, 67, 0
2, 96838, Note_on_c, 0, 70, 0
2, 96838, Note_on_c, 0, 82, 0
2, 96838, Note_on_c, 0, 79, 0
2, 96838, Note_on_c, 0, 51, 0
2, 96839, Note_on_c, 0, 77, 0
2, 96839, Note_on_c, 0, 75, 0
2, 96840, Note_on_c, 0, 43, 0
2, 96840, Note_on_c, 0, 31, 0
2, 97052, Control_c, 0, 64, 127
2, 97058, Note_on_c, 0, 48, 63
2, 97236, Note_on_c, 0, 53, 0
2, 97242, Note_on_c, 0, 53, 65
2, 97432, Note_on_c, 0, 55, 68
2, 97458, Note_on_c, 0, 79, 84
2, 97462, Note_on_c, 0, 67, 73
2, 97658, Note_on_c, 0, 68, 0
2, 97658, Note_on_c, 0, 80, 0
2, 97662, Note_on_c, 0, 63, 77
2, 97665, Note_on_c, 0, 80, 93
2, 97667, Note_on_c, 0, 68, 90
2, 97667, Note_on_c, 0, 60, 74
2, 97669, Note_on_c, 0, 56, 79
2, 98009, Note_on_c, 0, 87, 98
2, 98014, Note_on_c, 0, 75, 85
2, 98119, Note_on_c, 0, 41, 0
2, 98125, Note_on_c, 0, 53, 0
2, 98125, Note_on_c, 0, 41, 63
2, 98327, Note_on_c, 0, 75, 0
2, 98327, Note_on_c, 0, 87, 0
2, 98333, Note_on_c, 0, 87, 96
2, 98338, Note_on_c, 0, 75, 80
2, 98468, Note_on_c, 0, 77, 77
2, 98542, Note_on_c, 0, 84, 72
2, 98570, Control_c, 0, 64, 0
2, 98575, Note_on_c, 0, 39, 82
2, 98576, Note_on_c, 0, 48, 0
2, 98577, Note_on_c, 0, 41, 0
2, 98577, Note_on_c, 0, 68, 0
2, 98577, Note_on_c, 0, 67, 0
2, 98578, Note_on_c, 0, 89, 101
2, 98578, Note_on_c, 0, 56, 0
2, 98578, Note_on_c, 0, 72, 0
2, 98578, Note_on_c, 0, 80, 0
2, 98579, Note_on_c, 0, 87, 0
2, 98579, Note_on_c, 0, 63, 0
2, 98579, Note_on_c, 0, 79, 0
2, 98579, Note_on_c, 0, 55, 0
2, 98580, Note_on_c, 0, 75, 0
2, 98611, Note_on_c, 0, 60, 0
2, 98672, Control_c, 0, 64, 127
2, 98779, Note_on_c, 0, 48, 65
2, 98985, Note_on_c, 0, 50, 76
2, 98993, Note_on_c, 0, 91, 95
2, 99012, Note_on_c, 0, 79, 76
2, 99225, Note_on_c, 0, 84, 0
2, 99229, Note_on_c, 0, 87, 97
2, 99234, Note_on_c, 0, 84, 76
2, 99236, Note_on_c, 0, 75, 87
2, 99367, Control_c, 0, 64, 0
2, 99394, Control_c, 0, 64, 127
2, 99443, Note_on_c, 0, 51, 77
2, 99532, Note_on_c, 0, 39, 0
2, 99690, Note_on_c, 0, 60, 64
2, 99724, Note_on_c, 0, 77, 0
2, 99727, Note_on_c, 0, 55, 32
2, 99902, Note_on_c, 0, 62, 76
2, 100141, Note_on_c, 0, 63, 69
2, 100354, Note_on_c, 0, 87, 0
2, 100365, Note_on_c, 0, 41, 73
2, 100365, Note_on_c, 0, 87, 90
2, 100369, Note_on_c, 0, 75, 0
2, 100369, Note_on_c, 0, 84, 0
2, 100374, Note_on_c, 0, 75, 79
2, 100374, Note_on_c, 0, 80, 76
2, 100377, Note_on_c, 0, 84, 70
2, 100385, Note_on_c, 0, 91, 0
2, 100388, Control_c, 0, 64, 0
2, 100390, Note_on_c, 0, 62, 0
2, 100390, Note_on_c, 0, 50, 0
2, 100390, Note_on_c, 0, 63, 0
2, 100390, Note_on_c, 0, 48, 0
2, 100390, Note_on_c, 0, 55, 0
2, 100391, Note_on_c, 0, 60, 0
2, 100391, Note_on_c, 0, 79, 0
2, 100391, Note_on_c, 0, 89, 0
2, 100408, Note_on_c, 0, 51, 0
2, 100500, Control_c, 0, 64, 127
2, 100608, Note_on_c, 0, 48, 59
2, 100610, Note_on_c, 0, 86, 85
2, 100612, Note_on_c, 0, 74, 83
2, 100853, Note_on_c, 0, 84, 0
2, 100863, Note_on_c, 0, 84, 89
2, 100872, Note_on_c, 0, 72, 79
2, 101082, Note_on_c, 0, 56, 59
2, 101199, Note_on_c, 0, 84, 0
2, 101204, Note_on_c, 0, 84, 75
2, 101222, Note_on_c, 0, 72, 0
2, 101228, Note_on_c, 0, 72, 60
2, 101230, Note_on_c, 0, 75, 0
2, 101240, Note_on_c, 0, 75, 48
2, 101352, Note_on_c, 0, 86, 0
2, 101359, Note_on_c, 0, 77, 77
2, 101359, Note_on_c, 0, 86, 88
2, 101360, Note_on_c, 0, 74, 0
2, 101363, Note_on_c, 0, 43, 67
2, 101370, Note_on_c, 0, 74, 76
2, 101394, Control_c, 0, 64, 0
2, 101395, Note_on_c, 0, 87, 0
2, 101396, Note_on_c, 0, 75, 0
2, 101396, Note_on_c, 0, 41, 0
2, 101396, Note_on_c, 0, 72, 0
2, 101397, Note_on_c, 0, 84, 0
2, 101397, Note_on_c, 0, 56, 0
2, 101397, Note_on_c, 0, 80, 0
2, 101398, Note_on_c, 0, 48, 0
2, 101614, Control_c, 0, 64, 127
2, 101620, Note_on_c, 0, 50, 57
2, 101871, Note_on_c, 0, 59, 62
2, 102114, Note_on_c, 0, 53, 57
2, 102260, Note_on_c, 0, 84, 73
2, 102264, Note_on_c, 0, 72, 71
2, 102451, Note_on_c, 0, 84, 0
2, 102458, Note_on_c, 0, 72, 0
2, 102462, Note_on_c, 0, 84, 91
2, 102467, Note_on_c, 0, 72, 79
2, 102468, Note_on_c, 0, 48, 64
2, 102489, Control_c, 0, 64, 0
2, 102493, Note_on_c, 0, 53, 0
2, 102493, Note_on_c, 0, 59, 0
2, 102493, Note_on_c, 0, 50, 0
2, 102493, Note_on_c, 0, 77, 0
2, 102495, Note_on_c, 0, 43, 0
2, 102504, Note_on_c, 0, 74, 0
2, 102504, Note_on_c, 0, 86, 0
2, 102643, Control_c, 0, 64, 127
2, 102762, Note_on_c, 0, 55, 55
2, 102766, Note_on_c, 0, 72, 0
2, 102789, Note_on_c, 0, 48, 0
2, 102794, Note_on_c, 0, 82, 60
2, 102818, Note_on_c, 0, 72, 35
2, 102883, Note_on_c, 0, 80, 67
2, 102964, Note_on_c, 0, 79, 68
2, 103027, Note_on_c, 0, 77, 63
2, 103029, Note_on_c, 0, 60, 48
2, 103134, Note_on_c, 0, 75, 68
2, 103193, Note_on_c, 0, 74, 70
2, 103257, Note_on_c, 0, 72, 0
2, 103267, Note_on_c, 0, 72, 72
2, 103292, Note_on_c, 0, 62, 46
2, 103365, Note_on_c, 0, 70, 58
2, 103444, Note_on_c, 0, 68, 54
2, 103480, Note_on_c, 0, 72, 0
2, 103484, Note_on_c, 0, 72, 49
2, 103485, Note_on_c, 0, 67, 52
2, 103546, Note_on_c, 0, 65, 43
2, 103624, Note_on_c, 0, 63, 49
2, 103687, Note_on_c, 0, 62, 0
2, 103693, Note_on_c, 0, 62, 49
2, 103764, Note_on_c, 0, 60, 0
2, 103775, Note_on_c, 0, 60, 53
2, 103929, Note_on_c, 0, 56, 52
2, 104056, Note_on_c, 0, 72, 0
2, 104064, Note_on_c, 0, 55, 0
2, 104065, Note_on_c, 0, 72, 71
2, 104074, Note_on_c, 0, 55, 42
2, 104205, Note_on_c, 0, 53, 51
2, 104348, Note_on_c, 0, 74, 0
2, 104355, Note_on_c, 0, 74, 73
2, 104375, Note_on_c, 0, 51, 36
2, 104542, Note_on_c, 0, 50, 47
2, 104693, Note_on_c, 0, 75, 0
2, 104697, Note_on_c, 0, 75, 76
2, 104709, Note_on_c, 0, 67, 0
2, 104709, Note_on_c, 0, 48, 48
2, 104714, Note_on_c, 0, 67, 53
2, 104736, Control_c, 0, 64, 0
2, 104738, Note_on_c, 0, 82, 0
2, 104738, Note_on_c, 0, 56, 0
2, 104739, Note_on_c, 0, 60, 0
2, 104739, Note_on_c, 0, 65, 0
2, 104739, Note_on_c, 0, 70, 0
2, 104739, Note_on_c, 0, 53, 0
2, 104739, Note_on_c, 0, 55, 0
2, 104740, Note_on_c, 0, 77, 0
2, 104740, Note_on_c, 0, 68, 0
2, 104741, Note_on_c, 0, 74, 0
2, 104741, Note_on_c, 0, 62, 0
2, 104741, Note_on_c, 0, 72, 0
2, 104741, Note_on_c, 0, 80, 0
2, 104741, Note_on_c, 0, 63, 0
2, 104741, Note_on_c, 0, 79, 0
2, 104741, Note_on_c, 0, 84, 0
2, 104742, Note_on_c, 0, 50, 0
2, 104755, Note_on_c, 0, 51, 0
2, 104939, Control_c, 0, 64, 127
2, 105225, Note_on_c, 0, 55, 46
2, 105458, Note_on_c, 0, 74, 73
2, 105692, Note_on_c, 0, 75, 0
2, 105697, Note_on_c, 0, 75, 81
2, 105707, Note_on_c, 0, 67, 0
2, 105711, Note_on_c, 0, 63, 47
2, 105715, Note_on_c, 0, 55, 0
2, 105717, Note_on_c, 0, 67, 56
2, 105719, Note_on_c, 0, 55, 46
2, 106224, Note_on_c, 0, 79, 68
2, 106618, Note_on_c, 0, 62, 56
2, 106652, Note_on_c, 0, 67, 0
2, 106663, Note_on_c, 0, 67, 51
2, 106708, Note_on_c, 0, 70, 56
2, 106767, Note_on_c, 0, 74, 0
2, 106768, Control_c, 0, 64, 0
2, 106769, Note_on_c, 0, 63, 0
2, 106774, Note_on_c, 0, 74, 76
2, 106775, Note_on_c, 0, 79, 0
2, 106795, Note_on_c, 0, 46, 48
2, 106813, Note_on_c, 0, 75, 0
2, 106828, Note_on_c, 0, 48, 0
2, 106913, Control_c, 0, 64, 127
2, 107320, Note_on_c, 0, 55, 0
2, 107324, Note_on_c, 0, 55, 43
2, 107868, Note_on_c, 0, 58, 38
2, 108134, Note_on_c, 0, 67, 0
2, 108144, Note_on_c, 0, 67, 56
2, 108459, Note_on_c, 0, 68, 68
2, 108553, Control_c, 0, 64, 0
2, 108595, Control_c, 0, 64, 127
2, 108764, Note_on_c, 0, 70, 0
2, 108775, Note_on_c, 0, 70, 70
2, 109046, Note_on_c, 0, 60, 48
2, 109086, Note_on_c, 0, 44, 48
2, 109107, Note_on_c, 0, 63, 56
2, 109144, Note_on_c, 0, 51, 41
2, 109148, Note_on_c, 0, 67, 0
2, 109152, Note_on_c, 0, 67, 56
2, 109176, Control_c, 0, 64, 0
2, 109177, Note_on_c, 0, 68, 0
2, 109179, Note_on_c, 0, 62, 0
2, 109179, Note_on_c, 0, 70, 0
2, 109179, Note_on_c, 0, 55, 0
2, 109179, Note_on_c, 0, 58, 0
2, 109194, Note_on_c, 0, 46, 0
2, 109194, Note_on_c, 0, 74, 0
2, 109233, Note_on_c, 0, 72, 78
2, 109309, Control_c, 0, 64, 127
2, 109363, Note_on_c, 0, 60, 0
2, 109486, Note_on_c, 0, 72, 0
2, 109490, Note_on_c, 0, 72, 41
2, 109820, Note_on_c, 0, 79, 44
2, 110082, Note_on_c, 0, 77, 57
2, 110330, Note_on_c, 0, 79, 0
2, 110335, Note_on_c, 0, 79, 64
2, 110571, Note_on_c, 0, 84, 68
2, 110814, Note_on_c, 0, 79, 0
2, 110824, Note_on_c, 0, 79, 63
2, 111052, Note_on_c, 0, 77, 0
2, 111056, Note_on_c, 0, 77, 56
2, 111283, Note_on_c, 0, 79, 0
2, 111289, Note_on_c, 0, 79, 54
2, 111388, Note_on_c, 0, 56, 37
2, 111429, Note_on_c, 0, 60, 35
2, 111512, Note_on_c, 0, 65, 35
2, 111528, Note_on_c, 0, 67, 0
2, 111536, Note_on_c, 0, 72, 0
2, 111540, Note_on_c, 0, 67, 51
2, 111543, Note_on_c, 0, 72, 63
2, 111759, Note_on_c, 0, 79, 0
2, 111769, Note_on_c, 0, 79, 53
2, 111989, Note_on_c, 0, 77, 0
2, 111996, Note_on_c, 0, 77, 57
2, 112189, Note_on_c, 0, 79, 0
2, 112195, Note_on_c, 0, 79, 63
2, 112404, Note_on_c, 0, 84, 0
2, 112409, Note_on_c, 0, 84, 63
2, 112619, Note_on_c, 0, 79, 0
2, 112630, Note_on_c, 0, 79, 60
2, 112849, Note_on_c, 0, 77, 0
2, 112857, Note_on_c, 0, 77, 55
2, 113064, Note_on_c, 0, 79, 0
2, 113076, Note_on_c, 0, 79, 59
2, 113233, Note_on_c, 0, 60, 0
2, 113239, Note_on_c, 0, 60, 47
2, 113280, Note_on_c, 0, 44, 0
2, 113280, Note_on_c, 0, 51, 0
2, 113280, Note_on_c, 0, 63, 0
2, 113287, Note_on_c, 0, 65, 0
2, 113292, Note_on_c, 0, 65, 49
2, 113349, Note_on_c, 0, 67, 0
2, 113349, Note_on_c, 0, 72, 0
2, 113354, Note_on_c, 0, 72, 62
2, 113354, Note_on_c, 0, 67, 46
2, 113594, Note_on_c, 0, 79, 0
2, 113600, Note_on_c, 0, 79, 53
2, 113809, Note_on_c, 0, 77, 0
2, 113820, Note_on_c, 0, 77, 49
2, 114048, Note_on_c, 0, 79, 0
2, 114058, Note_on_c, 0, 79, 56
2, 114301, Note_on_c, 0, 84, 0
2, 114309, Note_on_c, 0, 84, 50
2, 114570, Note_on_c, 0, 79, 0
2, 114575, Note_on_c, 0, 79, 55
2, 114862, Note_on_c, 0, 77, 0
2, 114870, Note_on_c, 0, 77, 48
2, 115200, Note_on_c, 0, 79, 0
2, 115207, Note_on_c, 0, 79, 52
2, 115668, Note_on_c, 0, 72, 0
2, 115676, Note_on_c, 0, 72, 47
2, 115998, Note_on_c, 0, 56, 0
2, 117120, Note_on_c, 0, 60, 0
2, 117120, Note_on_c, 0, 65, 0
2, 117120, Note_on_c, 0, 77, 0
2, 117120, Note_on_c, 0, 84, 0
2, 117941, Note_on_c, 0, 67, 0
2, 117949, Note_on_c, 0, 79, 0
2, 117955, Note_on_c, 0, 79, 69
2, 118769, Note_on_c, 0, 77, 65
2, 119454, Note_on_c, 0, 72, 0
2, 119459, Note_on_c, 0, 72, 64
2, 120553, Note_on_c, 0, 55, 42
2, 120579, Note_on_c, 0, 62, 40
2, 120639, Note_on_c, 0, 65, 44
2, 120672, Note_on_c, 0, 67, 46
2, 120708, Note_on_c, 0, 69, 44
2, 120734, Note_on_c, 0, 70, 61
2, 120775, Note_on_c, 0, 72, 0
2, 120780, Note_on_c, 0, 72, 60
2, 120789, Control_c, 0, 64, 0
2, 120814, Control_c, 0, 64, 127
2, 120832, Note_on_c, 0, 74, 75
2, 120904, Control_c, 0, 64, 0
2, 120941, Note_on_c, 0, 76, 46
2, 120952, Note_on_c, 0, 76, 0
2, 120960, Note_on_c, 0, 77, 0
2, 120960, Note_on_c, 0, 79, 0
2, 121067, Control_c, 0, 64, 127
2, 121482, Note_on_c, 0, 69, 0
2, 123228, Note_on_c, 0, 77, 72
2, 123843, Note_on_c, 0, 75, 74
2, 123962, Note_on_c, 0, 62, 0
2, 124323, Note_on_c, 0, 74, 0
2, 124492, Note_on_c, 0, 70, 0
2, 124500, Note_on_c, 0, 70, 63
2, 124594, Control_c, 0, 64, 0
2, 124623, Control_c, 0, 64, 127
2, 124800, Note_on_c, 0, 55, 0
2, 124800, Note_on_c, 0, 65, 0
2, 124800, Note_on_c, 0, 67, 0
2, 124800, Note_on_c, 0, 72, 0
2, 125364, Note_on_c, 0, 53, 37
2, 125387, Note_on_c, 0, 60, 37
2, 125439, Note_on_c, 0, 63, 48
2, 125490, Control_c, 0, 64, 0
2, 125492, Note_on_c, 0, 65, 54
2, 125542, Note_on_c, 0, 67, 56
2, 125543, Note_on_c, 0, 68, 63
2, 125544, Control_c, 0, 64, 127
2, 125593, Control_c, 0, 64, 0
2, 125614, Note_on_c, 0, 70, 0
2, 125614, Note_on_c, 0, 77, 0
2, 125623, Note_on_c, 0, 70, 53
2, 125629, Control_c, 0, 64, 127
2, 125644, Note_on_c, 0, 72, 71
2, 128040, Note_on_c, 0, 75, 0
2, 128640, Note_on_c, 0, 53, 0
2, 128640, Note_on_c, 0, 60, 0
2, 128640, Note_on_c, 0, 63, 0
2, 128640, Note_on_c, 0, 65, 0
2, 128640, Note_on_c, 0, 67, 0
2, 128640, Note_on_c, 0, 68, 0
2, 128640, Note_on_c, 0, 70, 0
2, 128640, Note_on_c, 0, 72, 0
2, 128653, Note_on_c, 0, 40, 49
2, 128671, Control_c, 0, 64, 0
2, 128709, Control_c, 0, 64, 127
2, 128713, Note_on_c, 0, 47, 55
2, 128753, Note_on_c, 0, 58, 53
2, 128783, Note_on_c, 0, 52, 67
2, 128783, Note_on_c, 0, 61, 60
2, 128805, Control_c, 0, 64, 0
2, 128820, Note_on_c, 0, 63, 76
2, 128845, Note_on_c, 0, 68, 86
2, 128855, Note_on_c, 0, 58, 0
2, 128866, Note_on_c, 0, 58, 52
2, 128893, Control_c, 0, 64, 127
2, 129323, Note_on_c, 0, 47, 0
2, 129333, Note_on_c, 0, 47, 42
2, 129431, Note_on_c, 0, 58, 0
2, 129441, Note_on_c, 0, 58, 55
2, 129477, Note_on_c, 0, 68, 0
2, 129481, Note_on_c, 0, 68, 60
2, 129530, Note_on_c, 0, 63, 0
2, 129541, Note_on_c, 0, 63, 67
2, 129615, Note_on_c, 0, 58, 0
2, 129626, Note_on_c, 0, 58, 75
2, 129788, Note_on_c, 0, 70, 80
2, 129831, Note_on_c, 0, 73, 74
2, 129874, Note_on_c, 0, 75, 74
2, 129876, Note_on_c, 0, 52, 0
2, 129885, Note_on_c, 0, 52, 54
2, 129943, Note_on_c, 0, 82, 78
2, 129957, Note_on_c, 0, 54, 56
2, 129979, Note_on_c, 0, 56, 59
2, 129994, Note_on_c, 0, 85, 79
2, 130011, Note_on_c, 0, 59, 67
2, 130022, Note_on_c, 0, 87, 89
2, 130056, Note_on_c, 0, 92, 96
2, 131222, Note_on_c, 0, 42, 60
2, 131255, Note_on_c, 0, 49, 63
2, 131270, Note_on_c, 0, 60, 69
2, 131284, Control_c, 0, 64, 0
2, 131285, Note_on_c, 0, 73, 0
2, 131288, Note_on_c, 0, 68, 0
2, 131288, Note_on_c, 0, 70, 0
2, 131288, Note_on_c, 0, 85, 0
2, 131289, Note_on_c, 0, 56, 0
2, 131290, Note_on_c, 0, 75, 0
2, 131290, Note_on_c, 0, 92, 0
2, 131291, Note_on_c, 0, 52, 0
2, 131291, Note_on_c, 0, 87, 0
2, 131291, Note_on_c, 0, 47, 0
2, 131292, Note_on_c, 0, 82, 0
2, 131297, Note_on_c, 0, 61, 0
2, 131297, Note_on_c, 0, 63, 0
2, 131304, Note_on_c, 0, 40, 0
2, 131305, Note_on_c, 0, 63, 69
2, 131312, Note_on_c, 0, 58, 0
2, 131312, Note_on_c, 0, 59, 0
2, 131320, Note_on_c, 0, 54, 0
2, 131329, Note_on_c, 0, 54, 66
2, 131335, Note_on_c, 0, 53, 59
2, 131338, Note_on_c, 0, 61, 53
2, 131339, Note_on_c, 0, 65, 73
2, 131343, Note_on_c, 0, 53, 0
2, 131363, Note_on_c, 0, 70, 88
2, 131366, Control_c, 0, 64, 127
2, 131796, Note_on_c, 0, 49, 0
2, 131803, Note_on_c, 0, 49, 54
2, 131865, Note_on_c, 0, 54, 0
2, 131875, Note_on_c, 0, 54, 58
2, 131904, Note_on_c, 0, 60, 0
2, 131909, Note_on_c, 0, 60, 55
2, 131950, Note_on_c, 0, 70, 0
2, 131954, Note_on_c, 0, 70, 67
2, 132003, Note_on_c, 0, 65, 0
2, 132013, Note_on_c, 0, 65, 71
2, 132034, Note_on_c, 0, 63, 0
2, 132038, Note_on_c, 0, 63, 56
2, 132080, Note_on_c, 0, 60, 0
2, 132084, Note_on_c, 0, 60, 74
2, 132165, Note_on_c, 0, 63, 0
2, 132170, Note_on_c, 0, 63, 57
2, 132180, Note_on_c, 0, 65, 0
2, 132189, Note_on_c, 0, 65, 60
2, 132252, Note_on_c, 0, 72, 76
2, 132293, Note_on_c, 0, 75, 74
2, 132318, Note_on_c, 0, 54, 0
2, 132325, Note_on_c, 0, 54, 61
2, 132335, Note_on_c, 0, 77, 67
2, 132390, Note_on_c, 0, 58, 63
2, 132418, Note_on_c, 0, 60, 0
2, 132419, Note_on_c, 0, 84, 71
2, 132429, Note_on_c, 0, 60, 59
2, 132461, Note_on_c, 0, 87, 74
2, 132505, Note_on_c, 0, 89, 81
2, 132537, Note_on_c, 0, 94, 99
2, 133845, Note_on_c, 0, 43, 47
2, 133852, Note_on_c, 0, 50, 56
2, 133940, Note_on_c, 0, 55, 67
2, 133943, Note_on_c, 0, 57, 60
2, 133946, Note_on_c, 0, 50, 0
2, 133954, Note_on_c, 0, 50, 52
2, 133985, Note_on_c, 0, 49, 0
2, 133992, Note_on_c, 0, 60, 0
2, 133997, Note_on_c, 0, 60, 64
2, 134008, Note_on_c, 0, 61, 0
2, 134011, Note_on_c, 0, 62, 62
2, 134069, Note_on_c, 0, 65, 0
2, 134069, Note_on_c, 0, 70, 0
2, 134077, Note_on_c, 0, 63, 0
2, 134079, Control_c, 0, 64, 0
2, 134080, Note_on_c, 0, 65, 64
2, 134083, Note_on_c, 0, 67, 74
2, 134092, Note_on_c, 0, 72, 0
2, 134092, Note_on_c, 0, 77, 0
2, 134108, Note_on_c, 0, 75, 0
2, 134131, Note_on_c, 0, 94, 0
2, 134138, Note_on_c, 0, 42, 0
2, 134154, Note_on_c, 0, 58, 0
2, 134169, Note_on_c, 0, 54, 0
2, 134169, Note_on_c, 0, 84, 0
2, 134177, Note_on_c, 0, 87, 0
2, 134192, Note_on_c, 0, 89, 0
2, 134254, Control_c, 0, 64, 127
2, 134768, Note_on_c, 0, 50, 0
2, 134773, Note_on_c, 0, 50, 44
2, 134945, Note_on_c, 0, 55, 0
2, 134950, Note_on_c, 0, 55, 54
2, 135052, Note_on_c, 0, 60, 0
2, 135056, Note_on_c, 0, 60, 55
2, 135144, Note_on_c, 0, 62, 0
2, 135153, Note_on_c, 0, 62, 59
2, 135229, Note_on_c, 0, 67, 0
2, 135234, Note_on_c, 0, 67, 60
2, 135290, Note_on_c, 0, 65, 0
2, 135302, Note_on_c, 0, 65, 66
2, 135375, Note_on_c, 0, 62, 0
2, 135383, Note_on_c, 0, 62, 61
2, 135436, Note_on_c, 0, 60, 0
2, 135442, Note_on_c, 0, 60, 62
2, 135513, Note_on_c, 0, 55, 0
2, 135522, Note_on_c, 0, 55, 61
2, 135559, Note_on_c, 0, 60, 0
2, 135565, Note_on_c, 0, 60, 66
2, 135636, Note_on_c, 0, 62, 0
2, 135643, Note_on_c, 0, 62, 60
2, 135667, Note_on_c, 0, 65, 0
2, 135678, Note_on_c, 0, 65, 63
2, 135690, Note_on_c, 0, 67, 0
2, 135701, Note_on_c, 0, 67, 48
2, 135726, Note_on_c, 0, 69, 59
2, 135778, Note_on_c, 0, 72, 81
2, 135849, Note_on_c, 0, 70, 73
2, 135897, Note_on_c, 0, 69, 0
2, 135901, Note_on_c, 0, 69, 57
2, 135905, Note_on_c, 0, 67, 0
2, 135914, Note_on_c, 0, 67, 49
2, 135936, Note_on_c, 0, 65, 0
2, 135946, Note_on_c, 0, 65, 56
2, 136012, Note_on_c, 0, 60, 0
2, 136016, Note_on_c, 0, 60, 48
2, 136043, Note_on_c, 0, 62, 0
2, 136051, Note_on_c, 0, 62, 67
2, 136104, Note_on_c, 0, 65, 0
2, 136110, Note_on_c, 0, 65, 52
2, 136158, Note_on_c, 0, 67, 0
2, 136169, Note_on_c, 0, 67, 61
2, 136235, Note_on_c, 0, 69, 0
2, 136242, Note_on_c, 0, 69, 52
2, 136279, Note_on_c, 0, 74, 82
2, 136320, Note_on_c, 0, 43, 0
2, 136335, Note_on_c, 0, 72, 0
2, 136345, Note_on_c, 0, 72, 78
2, 136381, Note_on_c, 0, 69, 0
2, 136386, Note_on_c, 0, 69, 57
2, 136504, Note_on_c, 0, 65, 0
2, 136510, Note_on_c, 0, 65, 57
2, 136588, Note_on_c, 0, 69, 0
2, 136598, Note_on_c, 0, 69, 54
2, 136634, Note_on_c, 0, 72, 0
2, 136640, Note_on_c, 0, 72, 74
2, 136680, Note_on_c, 0, 74, 0
2, 136686, Note_on_c, 0, 74, 66
2, 136731, Note_on_c, 0, 79, 70
2, 136787, Note_on_c, 0, 77, 74
2, 136849, Note_on_c, 0, 72, 0
2, 136849, Note_on_c, 0, 74, 0
2, 136857, Note_on_c, 0, 74, 60
2, 136860, Note_on_c, 0, 72, 74
2, 136957, Note_on_c, 0, 72, 0
2, 136965, Note_on_c, 0, 67, 0
2, 136967, Note_on_c, 0, 72, 65
2, 136969, Note_on_c, 0, 67, 45
2, 137064, Note_on_c, 0, 74, 0
2, 137073, Note_on_c, 0, 74, 64
2, 137088, Note_on_c, 0, 77, 0
2, 137095, Note_on_c, 0, 77, 54
2, 137131, Note_on_c, 0, 81, 68
2, 137181, Note_on_c, 0, 84, 73
2, 137244, Note_on_c, 0, 82, 72
2, 137318, Note_on_c, 0, 77, 0
2, 137322, Note_on_c, 0, 77, 60
2, 137387, Note_on_c, 0, 72, 0
2, 137394, Note_on_c, 0, 72, 66
2, 137456, Note_on_c, 0, 74, 0
2, 137462, Note_on_c, 0, 74, 64
2, 137548, Note_on_c, 0, 79, 0
2, 137559, Note_on_c, 0, 79, 53
2, 137617, Note_on_c, 0, 84, 0
2, 137629, Note_on_c, 0, 84, 53
2, 137682, Note_on_c, 0, 86, 63
2, 137744, Note_on_c, 0, 91, 70
2, 137823, Note_on_c, 0, 89, 62
2, 137859, Note_on_c, 0, 87, 65
2, 137932, Note_on_c, 0, 84, 0
2, 137942, Note_on_c, 0, 84, 54
2, 138017, Note_on_c, 0, 82, 0
2, 138021, Note_on_c, 0, 82, 63
2, 138079, Note_on_c, 0, 80, 63
2, 138186, Note_on_c, 0, 77, 0
2, 138194, Note_on_c, 0, 77, 42
2, 138328, Note_on_c, 0, 48, 43
2, 138335, Note_on_c, 0, 75, 44
2, 138347, Note_on_c, 0, 74, 0
2, 138354, Note_on_c, 0, 74, 55
2, 138362, Note_on_c, 0, 55, 0
2, 138373, Note_on_c, 0, 55, 64
2, 138462, Note_on_c, 0, 57, 0
2, 138466, Note_on_c, 0, 67, 0
2, 138466, Note_on_c, 0, 84, 0
2, 138466, Note_on_c, 0, 65, 0
2, 138466, Note_on_c, 0, 74, 0
2, 138466, Note_on_c, 0, 50, 0
2, 138466, Note_on_c, 0, 72, 0
2, 138467, Note_on_c, 0, 70, 0
2, 138467, Note_on_c, 0, 77, 0
2, 138467, Note_on_c, 0, 62, 0
2, 138467, Note_on_c, 0, 69, 0
2, 138467, Note_on_c, 0, 89, 0
2, 138467, Note_on_c, 0, 79, 0
2, 138467, Note_on_c, 0, 82, 0
2, 138467, Control_c, 0, 64, 0
2, 138468, Note_on_c, 0, 80, 0
2, 138468, Note_on_c, 0, 81, 0
2, 138469, Note_on_c, 0, 91, 0
2, 138469, Note_on_c, 0, 87, 0
2, 138478, Note_on_c, 0, 75, 0
2, 138478, Note_on_c, 0, 86, 0
2, 138485, Note_on_c, 0, 60, 0
2, 138491, Note_on_c, 0, 60, 72
2, 138509, Note_on_c, 0, 72, 69
2, 138562, Control_c, 0, 64, 127
2, 138620, Note_on_c, 0, 74, 55
2, 138662, Note_on_c, 0, 60, 0
2, 138703, Note_on_c, 0, 75, 52
2, 138809, Note_on_c, 0, 77, 56
2, 138851, Note_on_c, 0, 67, 66
2, 138888, Note_on_c, 0, 79, 53
2, 138948, Note_on_c, 0, 80, 64
2, 139029, Note_on_c, 0, 82, 55
2, 139079, Note_on_c, 0, 84, 65
2, 139115, Note_on_c, 0, 67, 0
2, 139126, Note_on_c, 0, 67, 74
2, 139130, Note_on_c, 0, 60, 71
2, 139192, Note_on_c, 0, 82, 0
2, 139199, Note_on_c, 0, 82, 69
2, 139414, Note_on_c, 0, 65, 64
2, 139432, Note_on_c, 0, 86, 54
2, 139522, Note_on_c, 0, 87, 62
2, 139619, Note_on_c, 0, 89, 61
2, 139685, Note_on_c, 0, 91, 77
2, 139706, Note_on_c, 0, 67, 0
2, 139710, Note_on_c, 0, 67, 82
2, 139722, Control_c, 0, 64, 0
2, 139776, Control_c, 0, 64, 127
2, 139783, Note_on_c, 0, 89, 0
2, 139787, Note_on_c, 0, 89, 68
2, 139829, Note_on_c, 0, 87, 0
2, 139834, Note_on_c, 0, 87, 68
2, 139914, Note_on_c, 0, 84, 0
2, 139922, Note_on_c, 0, 84, 73
2, 140021, Note_on_c, 0, 82, 0
2, 140030, Note_on_c, 0, 82, 61
2, 140075, Note_on_c, 0, 80, 0
2, 140080, Note_on_c, 0, 80, 63
2, 140121, Note_on_c, 0, 79, 0
2, 140128, Note_on_c, 0, 79, 66
2, 140190, Note_on_c, 0, 77, 0
2, 140197, Note_on_c, 0, 77, 67
2, 140259, Note_on_c, 0, 84, 0
2, 140271, Note_on_c, 0, 84, 76
2, 140328, Note_on_c, 0, 82, 0
2, 140336, Note_on_c, 0, 82, 68
2, 140375, Note_on_c, 0, 80, 0
2, 140379, Note_on_c, 0, 80, 66
2, 140436, Note_on_c, 0, 79, 0
2, 140440, Note_on_c, 0, 79, 48
2, 140551, Note_on_c, 0, 67, 0
2, 140556, Note_on_c, 0, 67, 72
2, 140567, Note_on_c, 0, 75, 0
2, 140571, Note_on_c, 0, 75, 60
2, 140628, Note_on_c, 0, 74, 0
2, 140634, Note_on_c, 0, 74, 70
2, 140712, Note_on_c, 0, 72, 0
2, 140717, Note_on_c, 0, 72, 63
2, 140863, Note_on_c, 0, 53, 59
2, 140869, Note_on_c, 0, 46, 63
2, 140887, Note_on_c, 0, 74, 0
2, 140887, Control_c, 0, 64, 0
2, 140888, Note_on_c, 0, 70, 78
2, 140888, Note_on_c, 0, 86, 0
2, 140888, Note_on_c, 0, 67, 0
2, 140889, Note_on_c, 0, 80, 0
2, 140890, Note_on_c, 0, 79, 0
2, 140890, Note_on_c, 0, 82, 0
2, 140890, Note_on_c, 0, 75, 0
2, 140891, Note_on_c, 0, 72, 0
2, 140891, Note_on_c, 0, 77, 0
2, 140891, Note_on_c, 0, 87, 0
2, 140891, Note_on_c, 0, 65, 0
2, 140891, Note_on_c, 0, 60, 0
2, 140893, Note_on_c, 0, 91, 0
2, 140897, Note_on_c, 0, 48, 0
2, 140901, Note_on_c, 0, 58, 71
2, 140904, Note_on_c, 0, 55, 0
2, 140904, Note_on_c, 0, 84, 0
2, 140912, Note_on_c, 0, 89, 0
2, 140966, Control_c, 0, 64, 127
2, 141068, Note_on_c, 0, 72, 66
2, 141153, Note_on_c, 0, 74, 63
2, 141217, Note_on_c, 0, 65, 74
2, 141224, Note_on_c, 0, 75, 65
2, 141298, Note_on_c, 0, 77, 63
2, 141371, Note_on_c, 0, 79, 63
2, 141407, Note_on_c, 0, 80, 71
2, 141458, Note_on_c, 0, 82, 69
2, 141480, Note_on_c, 0, 58, 0
2, 141487, Note_on_c, 0, 58, 67
2, 141494, Note_on_c, 0, 84, 71
2, 141573, Note_on_c, 0, 82, 0
2, 141577, Note_on_c, 0, 82, 67
2, 141665, Note_on_c, 0, 84, 0
2, 141673, Note_on_c, 0, 84, 64
2, 141729, Note_on_c, 0, 86, 61
2, 141767, Note_on_c, 0, 87, 71
2, 141831, Note_on_c, 0, 89, 60
2, 141877, Note_on_c, 0, 91, 66
2, 141938, Note_on_c, 0, 92, 78
2, 142018, Note_on_c, 0, 94, 80
2, 142073, Note_on_c, 0, 62, 54
2, 142095, Note_on_c, 0, 92, 0
2, 142099, Note_on_c, 0, 92, 61
2, 142179, Note_on_c, 0, 89, 0
2, 142188, Note_on_c, 0, 89, 63
2, 142287, Note_on_c, 0, 87, 0
2, 142292, Note_on_c, 0, 87, 63
2, 142356, Note_on_c, 0, 86, 0
2, 142360, Note_on_c, 0, 86, 58
2, 142433, Note_on_c, 0, 84, 0
2, 142437, Note_on_c, 0, 84, 65
2, 142533, Note_on_c, 0, 91, 0
2, 142537, Note_on_c, 0, 91, 68
2, 142602, Note_on_c, 0, 89, 0
2, 142608, Note_on_c, 0, 89, 62
2, 142617, Note_on_c, 0, 70, 0
2, 142625, Note_on_c, 0, 87, 0
2, 142628, Note_on_c, 0, 70, 58
2, 142636, Note_on_c, 0, 87, 67
2, 142702, Note_on_c, 0, 84, 0
2, 142712, Note_on_c, 0, 84, 67
2, 142786, Note_on_c, 0, 82, 0
2, 142797, Note_on_c, 0, 82, 68
2, 142824, Note_on_c, 0, 80, 0
2, 142835, Note_on_c, 0, 80, 64
2, 142886, Note_on_c, 0, 79, 0
2, 142891, Note_on_c, 0, 79, 54
2, 142924, Note_on_c, 0, 77, 0
2, 142933, Note_on_c, 0, 77, 62
2, 143001, Note_on_c, 0, 75, 0
2, 143012, Note_on_c, 0, 75, 58
2, 143036, Note_on_c, 0, 44, 56
2, 143093, Note_on_c, 0, 74, 0
2, 143098, Note_on_c, 0, 74, 64
2, 143098, Note_on_c, 0, 51, 62
2, 143163, Note_on_c, 0, 56, 70
2, 143215, Note_on_c, 0, 60, 79
2, 143239, Note_on_c, 0, 72, 0
2, 143244, Note_on_c, 0, 72, 70
2, 143339, Note_on_c, 0, 74, 0
2, 143344, Note_on_c, 0, 74, 57
2, 143424, Note_on_c, 0, 74, 0
2, 143427, Note_on_c, 0, 74, 57
2, 143431, Note_on_c, 0, 75, 0
2, 143442, Note_on_c, 0, 75, 62
2, 143508, Note_on_c, 0, 77, 0
2, 143512, Note_on_c, 0, 77, 65
2, 143513, Note_on_c, 0, 67, 68
2, 143577, Note_on_c, 0, 79, 0
2, 143583, Note_on_c, 0, 79, 63
2, 143631, Note_on_c, 0, 80, 0
2, 143642, Note_on_c, 0, 80, 70
2, 143723, Note_on_c, 0, 82, 0
2, 143731, Note_on_c, 0, 82, 69
2, 143769, Note_on_c, 0, 67, 0
2, 143775, Note_on_c, 0, 67, 70
2, 143784, Note_on_c, 0, 84, 0
2, 143792, Note_on_c, 0, 56, 0
2, 143794, Note_on_c, 0, 84, 73
2, 143800, Note_on_c, 0, 60, 0
2, 143804, Note_on_c, 0, 56, 59
2, 143804, Note_on_c, 0, 60, 55
2, 143907, Note_on_c, 0, 82, 0
2, 143914, Note_on_c, 0, 82, 68
2, 144000, Note_on_c, 0, 62, 0
2, 144015, Note_on_c, 0, 84, 0
2, 144024, Note_on_c, 0, 84, 61
2, 144076, Note_on_c, 0, 65, 0
2, 144082, Note_on_c, 0, 65, 64
2, 144115, Note_on_c, 0, 86, 0
2, 144125, Note_on_c, 0, 86, 46
2, 144199, Note_on_c, 0, 87, 0
2, 144208, Note_on_c, 0, 87, 62
2, 144291, Note_on_c, 0, 89, 0
2, 144298, Note_on_c, 0, 89, 55
2, 144360, Note_on_c, 0, 91, 0
2, 144364, Note_on_c, 0, 91, 75
2, 144376, Note_on_c, 0, 67, 0
2, 144381, Note_on_c, 0, 67, 72
2, 144399, Note_on_c, 0, 65, 0
2, 144404, Note_on_c, 0, 65, 34
2, 144437, Note_on_c, 0, 89, 0
2, 144443, Note_on_c, 0, 89, 67
2, 144499, Note_on_c, 0, 87, 0
2, 144508, Note_on_c, 0, 87, 62
2, 144591, Note_on_c, 0, 84, 0
2, 144602, Note_on_c, 0, 84, 63
2, 144698, Note_on_c, 0, 82, 0
2, 144704, Note_on_c, 0, 82, 61
2, 144752, Note_on_c, 0, 80, 0
2, 144757, Note_on_c, 0, 80, 65
2, 144806, Note_on_c, 0, 79, 0
2, 144812, Note_on_c, 0, 79, 56
2, 144867, Note_on_c, 0, 77, 0
2, 144878, Note_on_c, 0, 77, 63
2, 144936, Note_on_c, 0, 84, 0
2, 144943, Note_on_c, 0, 84, 77
2, 144983, Note_on_c, 0, 82, 0
2, 144992, Note_on_c, 0, 82, 76
2, 145044, Note_on_c, 0, 80, 0
2, 145049, Note_on_c, 0, 80, 64
2, 145113, Note_on_c, 0, 84, 0
2, 145118, Note_on_c, 0, 84, 52
2, 145159, Note_on_c, 0, 77, 0
2, 145165, Note_on_c, 0, 77, 34
2, 145182, Note_on_c, 0, 46, 0
2, 145205, Note_on_c, 0, 67, 0
2, 145215, Note_on_c, 0, 67, 68
2, 145251, Note_on_c, 0, 75, 0
2, 145256, Note_on_c, 0, 75, 61
2, 145313, Note_on_c, 0, 74, 0
2, 145317, Note_on_c, 0, 74, 65
2, 145382, Note_on_c, 0, 72, 0
2, 145393, Note_on_c, 0, 72, 62
2, 145474, Note_on_c, 0, 53, 0
2, 145504, Note_on_c, 0, 38, 56
2, 145509, Note_on_c, 0, 50, 62
2, 145509, Note_on_c, 0, 80, 0
2, 145509, Note_on_c, 0, 43, 54
2, 145510, Note_on_c, 0, 56, 0
2, 145510, Note_on_c, 0, 82, 0
2, 145510, Note_on_c, 0, 74, 0
2, 145510, Note_on_c, 0, 84, 0
2, 145510, Note_on_c, 0, 75, 0
2, 145511, Note_on_c, 0, 94, 0
2, 145511, Control_c, 0, 64, 0
2, 145511, Note_on_c, 0, 51, 0
2, 145511, Note_on_c, 0, 79, 0
2, 145511, Note_on_c, 0, 77, 0
2, 145511, Note_on_c, 0, 65, 0
2, 145511, Note_on_c, 0, 58, 0
2, 145511, Note_on_c, 0, 89, 0
2, 145511, Note_on_c, 0, 86, 0
2, 145511, Note_on_c, 0, 31, 58
2, 145512, Note_on_c, 0, 92, 0
2, 145512, Note_on_c, 0, 67, 0
2, 145512, Note_on_c, 0, 38, 0
2, 145513, Note_on_c, 0, 72, 0
2, 145514, Note_on_c, 0, 91, 0
2, 145514, Note_on_c, 0, 60, 0
2, 145514, Note_on_c, 0, 44, 0
2, 145528, Note_on_c, 0, 87, 0
2, 145536, Note_on_c, 0, 70, 0
2, 145545, Note_on_c, 0, 70, 85
2, 145597, Control_c, 0, 64, 127
2, 145677, Note_on_c, 0, 72, 72
2, 145770, Note_on_c, 0, 74, 66
2, 145839, Note_on_c, 0, 75, 63
2, 145906, Note_on_c, 0, 77, 64
2, 145979, Note_on_c, 0, 79, 62
2, 146023, Note_on_c, 0, 80, 70
2, 146074, Note_on_c, 0, 82, 70
2, 146137, Note_on_c, 0, 55, 55
2, 146137, Note_on_c, 0, 84, 66
2, 146211, Note_on_c, 0, 82, 0
2, 146217, Note_on_c, 0, 82, 67
2, 146304, Note_on_c, 0, 84, 0
2, 146309, Note_on_c, 0, 84, 63
2, 146386, Note_on_c, 0, 86, 57
2, 146438, Note_on_c, 0, 87, 66
2, 146509, Note_on_c, 0, 89, 65
2, 146573, Note_on_c, 0, 91, 62
2, 146624, Note_on_c, 0, 92, 69
2, 146697, Note_on_c, 0, 94, 82
2, 146719, Note_on_c, 0, 65, 47
2, 146721, Note_on_c, 0, 62, 50
2, 146772, Note_on_c, 0, 92, 0
2, 146783, Note_on_c, 0, 92, 64
2, 146818, Note_on_c, 0, 91, 0
2, 146829, Note_on_c, 0, 91, 52
2, 146964, Note_on_c, 0, 87, 0
2, 146974, Note_on_c, 0, 87, 53
2, 147041, Note_on_c, 0, 86, 0
2, 147047, Note_on_c, 0, 86, 48
2, 147102, Note_on_c, 0, 84, 0
2, 147109, Note_on_c, 0, 84, 58
2, 147240, Note_on_c, 0, 91, 0
2, 147251, Note_on_c, 0, 91, 77
2, 147276, Note_on_c, 0, 67, 78
2, 147317, Note_on_c, 0, 89, 0
2, 147325, Note_on_c, 0, 89, 59
2, 147348, Note_on_c, 0, 87, 0
2, 147355, Note_on_c, 0, 87, 69
2, 147532, Note_on_c, 0, 82, 0
2, 147536, Note_on_c, 0, 82, 63
2, 147540, Note_on_c, 0, 70, 0
2, 147551, Note_on_c, 0, 70, 67
2, 147578, Note_on_c, 0, 80, 0
2, 147588, Note_on_c, 0, 80, 68
2, 147632, Note_on_c, 0, 79, 0
2, 147640, Note_on_c, 0, 79, 51
2, 147686, Note_on_c, 0, 77, 0
2, 147696, Note_on_c, 0, 77, 65
2, 147838, Note_on_c, 0, 60, 57
2, 147838, Note_on_c, 0, 53, 61
2, 147840, Note_on_c, 0, 31, 0
2, 147840, Note_on_c, 0, 43, 0
2, 147840, Note_on_c, 0, 50, 0
2, 147851, Control_c, 0, 64, 0
2, 147851, Note_on_c, 0, 74, 0
2, 147851, Note_on_c, 0, 86, 0
2, 147851, Note_on_c, 0, 65, 0
2, 147851, Note_on_c, 0, 84, 0
2, 147851, Note_on_c, 0, 89, 0
2, 147852, Note_on_c, 0, 67, 0
2, 147852, Note_on_c, 0, 70, 0
2, 147852, Note_on_c, 0, 94, 0
2, 147852, Note_on_c, 0, 62, 0
2, 147852, Note_on_c, 0, 82, 0
2, 147852, Note_on_c, 0, 75, 0
2, 147852, Note_on_c, 0, 91, 0
2, 147852, Note_on_c, 0, 79, 0
2, 147852, Note_on_c, 0, 92, 0
2, 147852, Note_on_c, 0, 55, 0
2, 147863, Note_on_c, 0, 77, 0
2, 147863, Note_on_c, 0, 80, 0
2, 147870, Note_on_c, 0, 87, 0
2, 147878, Note_on_c, 0, 72, 0
2, 147882, Note_on_c, 0, 68, 77
2, 147882, Note_on_c, 0, 72, 84
2, 147924, Control_c, 0, 64, 127
2, 147967, Note_on_c, 0, 74, 69
2, 148015, Note_on_c, 0, 75, 66
2, 148105, Note_on_c, 0, 77, 61
2, 148147, Note_on_c, 0, 72, 0
2, 148156, Note_on_c, 0, 72, 75
2, 148192, Note_on_c, 0, 79, 56
2, 148233, Note_on_c, 0, 80, 64
2, 148321, Note_on_c, 0, 82, 61
2, 148395, Note_on_c, 0, 84, 62
2, 148439, Note_on_c, 0, 72, 0
2, 148450, Note_on_c, 0, 72, 81
2, 148458, Note_on_c, 0, 65, 63
2, 148462, Note_on_c, 0, 68, 0
2, 148466, Note_on_c, 0, 68, 72
2, 148485, Note_on_c, 0, 82, 0
2, 148496, Note_on_c, 0, 82, 78
2, 148515, Note_on_c, 0, 53, 0
2, 148577, Note_on_c, 0, 84, 0
2, 148587, Note_on_c, 0, 84, 59
2, 148682, Note_on_c, 0, 86, 56
2, 148692, Note_on_c, 0, 60, 0
2, 148707, Note_on_c, 0, 72, 0
2, 148718, Note_on_c, 0, 72, 76
2, 148737, Note_on_c, 0, 87, 82
2, 148834, Note_on_c, 0, 89, 64
2, 148905, Note_on_c, 0, 91, 68
2, 148947, Note_on_c, 0, 92, 78
2, 149000, Note_on_c, 0, 94, 68
2, 149022, Note_on_c, 0, 72, 0
2, 149026, Note_on_c, 0, 72, 84
2, 149034, Note_on_c, 0, 96, 91
2, 149099, Note_on_c, 0, 94, 0
2, 149107, Note_on_c, 0, 94, 87
2, 149145, Note_on_c, 0, 92, 0
2, 149155, Note_on_c, 0, 92, 68
2, 149199, Note_on_c, 0, 91, 0
2, 149204, Note_on_c, 0, 91, 53
2, 149237, Note_on_c, 0, 89, 0
2, 149244, Note_on_c, 0, 89, 65
2, 149345, Note_on_c, 0, 87, 0
2, 149354, Note_on_c, 0, 87, 61
2, 149414, Note_on_c, 0, 86, 0
2, 149419, Note_on_c, 0, 86, 60
2, 149491, Note_on_c, 0, 84, 0
2, 149495, Note_on_c, 0, 84, 65
2, 149552, Note_on_c, 0, 91, 0
2, 149558, Note_on_c, 0, 91, 77
2, 149621, Note_on_c, 0, 89, 0
2, 149629, Note_on_c, 0, 89, 58
2, 149644, Note_on_c, 0, 87, 0
2, 149655, Note_on_c, 0, 87, 68
2, 149698, Note_on_c, 0, 86, 0
2, 149708, Note_on_c, 0, 86, 61
2, 149829, Note_on_c, 0, 82, 0
2, 149840, Note_on_c, 0, 82, 66
2, 149844, Note_on_c, 0, 72, 0
2, 149855, Note_on_c, 0, 72, 85
2, 149875, Note_on_c, 0, 80, 0
2, 149882, Note_on_c, 0, 80, 70
2, 149952, Note_on_c, 0, 79, 0
2, 149957, Note_on_c, 0, 79, 52
2, 150013, Note_on_c, 0, 77, 0
2, 150022, Note_on_c, 0, 77, 67
2, 150159, Note_on_c, 0, 65, 0
2, 150161, Note_on_c, 0, 50, 61
2, 150163, Note_on_c, 0, 58, 64
2, 150164, Note_on_c, 0, 65, 55
2, 150169, Note_on_c, 0, 70, 82
2, 150170, Note_on_c, 0, 94, 0
2, 150171, Note_on_c, 0, 92, 0
2, 150171, Note_on_c, 0, 96, 0
2, 150171, Note_on_c, 0, 91, 0
2, 150172, Note_on_c, 0, 87, 0
2, 150172, Note_on_c, 0, 84, 0
2, 150172, Note_on_c, 0, 80, 0
2, 150172, Note_on_c, 0, 82, 0
2, 150173, Note_on_c, 0, 72, 0
2, 150173, Note_on_c, 0, 86, 0
2, 150173, Note_on_c, 0, 79, 0
2, 150174, Note_on_c, 0, 89, 0
2, 150177, Note_on_c, 0, 77, 0
2, 150182, Note_on_c, 0, 74, 0
2, 150185, Control_c, 0, 64, 0
2, 150205, Note_on_c, 0, 68, 0
2, 150205, Note_on_c, 0, 75, 0
2, 150259, Control_c, 0, 64, 127
2, 150310, Note_on_c, 0, 72, 66
2, 150336, Note_on_c, 0, 65, 0
2, 150394, Note_on_c, 0, 74, 66
2, 150463, Note_on_c, 0, 75, 57
2, 150535, Note_on_c, 0, 77, 56
2, 150598, Note_on_c, 0, 79, 46
2, 150642, Note_on_c, 0, 80, 64
2, 150723, Note_on_c, 0, 82, 68
2, 150738, Note_on_c, 0, 65, 81
2, 150773, Note_on_c, 0, 80, 0
2, 150783, Note_on_c, 0, 80, 64
2, 150796, Note_on_c, 0, 50, 0
2, 150865, Note_on_c, 0, 77, 0
2, 150870, Note_on_c, 0, 77, 50
2, 150950, Note_on_c, 0, 75, 0
2, 150960, Note_on_c, 0, 75, 66
2, 151011, Note_on_c, 0, 74, 0
2, 151020, Note_on_c, 0, 74, 63
2, 151096, Note_on_c, 0, 77, 0
2, 151100, Note_on_c, 0, 77, 47
2, 151165, Note_on_c, 0, 70, 0
2, 151174, Note_on_c, 0, 70, 63
2, 151297, Note_on_c, 0, 67, 79
2, 151303, Note_on_c, 0, 58, 0
2, 151308, Note_on_c, 0, 63, 57
2, 151313, Note_on_c, 0, 58, 60
2, 151313, Note_on_c, 0, 51, 58
2, 151320, Note_on_c, 0, 80, 0
2, 151320, Note_on_c, 0, 65, 0
2, 151321, Note_on_c, 0, 74, 0
2, 151321, Note_on_c, 0, 82, 0
2, 151321, Note_on_c, 0, 70, 0
2, 151321, Note_on_c, 0, 72, 0
2, 151322, Note_on_c, 0, 77, 0
2, 151322, Note_on_c, 0, 79, 0
2, 151323, Control_c, 0, 64, 0
2, 151342, Note_on_c, 0, 75, 0
2, 151411, Control_c, 0, 64, 127
2, 151440, Note_on_c, 0, 68, 66
2, 151512, Note_on_c, 0, 70, 63
2, 151581, Note_on_c, 0, 72, 69
2, 151651, Note_on_c, 0, 74, 67
2, 151713, Note_on_c, 0, 75, 69
2, 151749, Note_on_c, 0, 72, 0
2, 151753, Note_on_c, 0, 72, 45
2, 151783, Note_on_c, 0, 77, 59
2, 151845, Note_on_c, 0, 79, 65
2, 151848, Note_on_c, 0, 67, 0
2, 151860, Note_on_c, 0, 67, 57
2, 151879, Note_on_c, 0, 63, 0
2, 151884, Note_on_c, 0, 63, 53
2, 151890, Note_on_c, 0, 80, 67
2, 152008, Note_on_c, 0, 84, 69
2, 152064, Note_on_c, 0, 85, 70
2, 152142, Note_on_c, 0, 87, 55
2, 152179, Note_on_c, 0, 89, 64
2, 152208, Note_on_c, 0, 91, 75
2, 152351, Note_on_c, 0, 49, 53
2, 152399, Note_on_c, 0, 56, 63
2, 152435, Note_on_c, 0, 85, 0
2, 152435, Note_on_c, 0, 74, 0
2, 152435, Note_on_c, 0, 84, 0
2, 152435, Note_on_c, 0, 87, 0
2, 152435, Note_on_c, 0, 75, 0
2, 152436, Note_on_c, 0, 72, 0
2, 152436, Note_on_c, 0, 80, 0
2, 152436, Note_on_c, 0, 51, 0
2, 152436, Note_on_c, 0, 63, 0
2, 152436, Note_on_c, 0, 77, 0
2, 152436, Note_on_c, 0, 79, 0
2, 152436, Note_on_c, 0, 68, 0
2, 152436, Control_c, 0, 64, 0
2, 152436, Note_on_c, 0, 91, 0
2, 152436, Note_on_c, 0, 89, 0
2, 152437, Note_on_c, 0, 70, 0
2, 152448, Note_on_c, 0, 58, 0
2, 152448, Note_on_c, 0, 67, 0
2, 152451, Note_on_c, 0, 61, 67
2, 152455, Note_on_c, 0, 61, 0
2, 152460, Note_on_c, 0, 65, 68
2, 152521, Note_on_c, 0, 67, 67
2, 152524, Control_c, 0, 64, 127
2, 152592, Note_on_c, 0, 68, 68
2, 152646, Note_on_c, 0, 70, 60
2, 152678, Note_on_c, 0, 65, 0
2, 152721, Note_on_c, 0, 72, 74
2, 152750, Note_on_c, 0, 65, 67
2, 152807, Note_on_c, 0, 73, 66
2, 152880, Note_on_c, 0, 75, 58
2, 152968, Note_on_c, 0, 77, 54
2, 152970, Note_on_c, 0, 80, 52
2, 152977, Note_on_c, 0, 80, 0
2, 152988, Note_on_c, 0, 79, 52
2, 153024, Note_on_c, 0, 56, 0
2, 153024, Note_on_c, 0, 65, 0
2, 153024, Note_on_c, 0, 75, 0
2, 153028, Note_on_c, 0, 65, 71
2, 153029, Note_on_c, 0, 75, 63
2, 153029, Note_on_c, 0, 56, 52
2, 153032, Note_on_c, 0, 61, 65
2, 153062, Note_on_c, 0, 73, 0
2, 153067, Note_on_c, 0, 73, 48
2, 153116, Note_on_c, 0, 77, 0
2, 153122, Note_on_c, 0, 77, 63
2, 153185, Note_on_c, 0, 79, 0
2, 153194, Note_on_c, 0, 79, 54
2, 153255, Note_on_c, 0, 80, 63
2, 153300, Note_on_c, 0, 82, 73
2, 153315, Note_on_c, 0, 67, 0
2, 153321, Note_on_c, 0, 67, 61
2, 153398, Note_on_c, 0, 84, 57
2, 153441, Note_on_c, 0, 85, 70
2, 153502, Note_on_c, 0, 87, 67
2, 153594, Note_on_c, 0, 91, 72
2, 153600, Note_on_c, 0, 65, 0
2, 153604, Note_on_c, 0, 65, 77
2, 153676, Note_on_c, 0, 89, 73
2, 153707, Note_on_c, 0, 87, 0
2, 153713, Note_on_c, 0, 87, 61
2, 153753, Note_on_c, 0, 85, 0
2, 153763, Note_on_c, 0, 85, 55
2, 153784, Control_c, 0, 64, 0
2, 153868, Control_c, 0, 64, 127
2, 153884, Note_on_c, 0, 82, 0
2, 153891, Note_on_c, 0, 82, 60
2, 153937, Note_on_c, 0, 80, 0
2, 153942, Note_on_c, 0, 80, 65
2, 153968, Note_on_c, 0, 49, 0
2, 154007, Note_on_c, 0, 79, 0
2, 154011, Note_on_c, 0, 79, 50
2, 154045, Note_on_c, 0, 77, 0
2, 154056, Note_on_c, 0, 77, 62
2, 154152, Note_on_c, 0, 84, 0
2, 154160, Note_on_c, 0, 84, 77
2, 154199, Note_on_c, 0, 82, 0
2, 154203, Note_on_c, 0, 82, 74
2, 154245, Note_on_c, 0, 80, 0
2, 154256, Note_on_c, 0, 80, 64
2, 154291, Note_on_c, 0, 79, 0
2, 154295, Note_on_c, 0, 79, 52
2, 154421, Note_on_c, 0, 75, 0
2, 154426, Note_on_c, 0, 75, 70
2, 154429, Note_on_c, 0, 60, 64
2, 154490, Note_on_c, 0, 73, 0
2, 154500, Note_on_c, 0, 73, 68
2, 154567, Note_on_c, 0, 72, 0
2, 154571, Note_on_c, 0, 72, 63
2, 154730, Note_on_c, 0, 50, 60
2, 154743, Note_on_c, 0, 70, 0
2, 154743, Note_on_c, 0, 82, 0
2, 154744, Note_on_c, 0, 65, 0
2, 154744, Note_on_c, 0, 85, 0
2, 154745, Note_on_c, 0, 73, 0
2, 154745, Note_on_c, 0, 68, 0
2, 154745, Note_on_c, 0, 84, 0
2, 154745, Note_on_c, 0, 72, 0
2, 154745, Note_on_c, 0, 87, 0
2, 154746, Note_on_c, 0, 79, 0
2, 154746, Note_on_c, 0, 75, 0
2, 154746, Note_on_c, 0, 77, 0
2, 154746, Note_on_c, 0, 89, 0
2, 154747, Note_on_c, 0, 56, 0
2, 154747, Note_on_c, 0, 91, 0
2, 154748, Control_c, 0, 64, 0
2, 154752, Note_on_c, 0, 60, 0
2, 154752, Note_on_c, 0, 67, 0
2, 154756, Note_on_c, 0, 67, 76
2, 154756, Note_on_c, 0, 57, 57
2, 154758, Note_on_c, 0, 60, 61
2, 154767, Note_on_c, 0, 61, 0
2, 154767, Note_on_c, 0, 80, 0
2, 154828, Control_c, 0, 64, 127
2, 154867, Note_on_c, 0, 69, 61
2, 154946, Note_on_c, 0, 71, 63
2, 155039, Note_on_c, 0, 72, 69
2, 155147, Note_on_c, 0, 74, 59
2, 155205, Note_on_c, 0, 75, 64
2, 155304, Note_on_c, 0, 69, 0
2, 155309, Note_on_c, 0, 69, 73
2, 155340, Note_on_c, 0, 79, 63
2, 155430, Note_on_c, 0, 77, 66
2, 155496, Note_on_c, 0, 79, 0
2, 155503, Note_on_c, 0, 79, 64
2, 155552, Note_on_c, 0, 81, 65
2, 155617, Note_on_c, 0, 84, 72
2, 155683, Note_on_c, 0, 86, 70
2, 155749, Note_on_c, 0, 87, 76
2, 155823, Note_on_c, 0, 55, 54
2, 155844, Note_on_c, 0, 89, 66
2, 155861, Note_on_c, 0, 62, 53
2, 155876, Note_on_c, 0, 65, 70
2, 155896, Note_on_c, 0, 71, 0
2, 155903, Note_on_c, 0, 71, 80
2, 155916, Note_on_c, 0, 91, 86
2, 155938, Note_on_c, 0, 77, 0
2, 155938, Note_on_c, 0, 84, 0
2, 155938, Note_on_c, 0, 81, 0
2, 155938, Note_on_c, 0, 75, 0
2, 155938, Note_on_c, 0, 72, 0
2, 155939, Note_on_c, 0, 69, 0
2, 155939, Note_on_c, 0, 74, 0
2, 155939, Note_on_c, 0, 60, 0
2, 155939, Note_on_c, 0, 86, 0
2, 155939, Note_on_c, 0, 79, 0
2, 155939, Note_on_c, 0, 87, 0
2, 155939, Note_on_c, 0, 50, 0
2, 155941, Control_c, 0, 64, 0
2, 155950, Note_on_c, 0, 57, 0
2, 155957, Note_on_c, 0, 67, 0
2, 155996, Note_on_c, 0, 89, 0
2, 156003, Note_on_c, 0, 89, 76
2, 156042, Control_c, 0, 64, 127
2, 156074, Note_on_c, 0, 87, 61
2, 156124, Note_on_c, 0, 86, 60
2, 156134, Note_on_c, 0, 91, 0
2, 156181, Note_on_c, 0, 84, 66
2, 156276, Note_on_c, 0, 83, 64
2, 156318, Note_on_c, 0, 80, 65
2, 156367, Note_on_c, 0, 79, 63
2, 156428, Note_on_c, 0, 77, 69
2, 156495, Note_on_c, 0, 86, 0
2, 156501, Note_on_c, 0, 86, 72
2, 156556, Note_on_c, 0, 84, 0
2, 156565, Note_on_c, 0, 84, 68
2, 156625, Note_on_c, 0, 83, 0
2, 156632, Note_on_c, 0, 83, 66
2, 156679, Note_on_c, 0, 80, 0
2, 156684, Note_on_c, 0, 80, 69
2, 156756, Note_on_c, 0, 79, 0
2, 156764, Note_on_c, 0, 79, 48
2, 156848, Note_on_c, 0, 77, 0
2, 156857, Note_on_c, 0, 77, 61
2, 156941, Note_on_c, 0, 75, 66
2, 157041, Note_on_c, 0, 74, 68
2, 157208, Note_on_c, 0, 48, 60
2, 157220, Note_on_c, 0, 72, 80
2, 157236, Note_on_c, 0, 84, 0
2, 157241, Note_on_c, 0, 77, 0
2, 157242, Note_on_c, 0, 86, 0
2, 157243, Note_on_c, 0, 83, 0
2, 157243, Note_on_c, 0, 79, 0
2, 157263, Note_on_c, 0, 89, 0
2, 157278, Note_on_c, 0, 62, 0
2, 157278, Note_on_c, 0, 65, 0
2, 157286, Note_on_c, 0, 71, 0
2, 157286, Note_on_c, 0, 80, 0
2, 157301, Note_on_c, 0, 87, 0
2, 157347, Note_on_c, 0, 74, 0
2, 157378, Note_on_c, 0, 75, 0
2, 157447, Note_on_c, 0, 55, 0
2, 157473, Control_c, 0, 64, 0
2, 157516, Control_c, 0, 64, 127
2, 157551, Note_on_c, 0, 79, 79
2, 157551, Note_on_c, 0, 55, 62
2, 157824, Note_on_c, 0, 79, 0
2, 157830, Note_on_c, 0, 79, 80
2, 157837, Note_on_c, 0, 62, 57
2, 157858, Note_on_c, 0, 67, 33
2, 157870, Note_on_c, 0, 67, 0
2, 158105, Note_on_c, 0, 77, 88
2, 158111, Note_on_c, 0, 63, 61
2, 158392, Note_on_c, 0, 79, 0
2, 158396, Note_on_c, 0, 79, 89
2, 158403, Note_on_c, 0, 70, 64
2, 158684, Note_on_c, 0, 62, 0
2, 158695, Note_on_c, 0, 62, 61
2, 158945, Note_on_c, 0, 63, 0
2, 158956, Note_on_c, 0, 63, 74
2, 159221, Note_on_c, 0, 70, 0
2, 159221, Note_on_c, 0, 79, 0
2, 159226, Note_on_c, 0, 79, 89
2, 159231, Note_on_c, 0, 70, 62
2, 159360, Note_on_c, 0, 48, 0
2, 159534, Note_on_c, 0, 82, 93
2, 159539, Note_on_c, 0, 46, 68
2, 159584, Control_c, 0, 64, 0
2, 159585, Note_on_c, 0, 70, 0
2, 159586, Note_on_c, 0, 72, 0
2, 159586, Note_on_c, 0, 63, 0
2, 159586, Note_on_c, 0, 79, 0
2, 159586, Note_on_c, 0, 55, 0
2, 159586, Note_on_c, 0, 62, 0
2, 159586, Note_on_c, 0, 77, 0
2, 159682, Control_c, 0, 64, 127
2, 159818, Note_on_c, 0, 77, 84
2, 159824, Note_on_c, 0, 53, 66
2, 160093, Note_on_c, 0, 74, 76
2, 160097, Note_on_c, 0, 58, 60
2, 160388, Note_on_c, 0, 60, 51
2, 160653, Note_on_c, 0, 70, 65
2, 160654, Note_on_c, 0, 62, 55
2, 160942, Note_on_c, 0, 58, 0
2, 160946, Note_on_c, 0, 58, 50
2, 161215, Note_on_c, 0, 65, 59
2, 161487, Note_on_c, 0, 53, 0
2, 161492, Note_on_c, 0, 53, 47
2, 161802, Note_on_c, 0, 72, 74
2, 161804, Note_on_c, 0, 44, 65
2, 161853, Note_on_c, 0, 60, 0
2, 161853, Note_on_c, 0, 65, 0
2, 161853, Note_on_c, 0, 58, 0
2, 161853, Note_on_c, 0, 62, 0
2, 161853, Note_on_c, 0, 74, 0
2, 161854, Note_on_c, 0, 77, 0
2, 161854, Note_on_c, 0, 46, 0
2, 161854, Note_on_c, 0, 53, 0
2, 161854, Note_on_c, 0, 70, 0
2, 161855, Note_on_c, 0, 82, 0
2, 161855, Control_c, 0, 64, 0
2, 161948, Control_c, 0, 64, 127
2, 162103, Note_on_c, 0, 79, 75
2, 162117, Note_on_c, 0, 51, 54
2, 162355, Note_on_c, 0, 79, 0
2, 162363, Note_on_c, 0, 79, 86
2, 162388, Note_on_c, 0, 56, 61
2, 162632, Note_on_c, 0, 62, 64
2, 162633, Note_on_c, 0, 77, 84
2, 162908, Note_on_c, 0, 79, 0
2, 162919, Note_on_c, 0, 79, 83
2, 162926, Note_on_c, 0, 70, 65
2, 163192, Note_on_c, 0, 62, 0
2, 163203, Note_on_c, 0, 62, 58
2, 163473, Note_on_c, 0, 63, 71
2, 163737, Note_on_c, 0, 70, 0
2, 163744, Note_on_c, 0, 70, 68
2, 163745, Note_on_c, 0, 79, 0
2, 163750, Note_on_c, 0, 79, 80
2, 163753, Note_on_c, 0, 75, 59
2, 164040, Note_on_c, 0, 82, 89
2, 164044, Note_on_c, 0, 77, 0
2, 164050, Note_on_c, 0, 43, 60
2, 164052, Note_on_c, 0, 70, 0
2, 164052, Note_on_c, 0, 77, 71
2, 164057, Note_on_c, 0, 70, 65
2, 164060, Note_on_c, 0, 75, 0
2, 164066, Note_on_c, 0, 75, 65
2, 164087, Control_c, 0, 64, 0
2, 164089, Note_on_c, 0, 79, 0
2, 164090, Note_on_c, 0, 72, 0
2, 164091, Note_on_c, 0, 56, 0
2, 164091, Note_on_c, 0, 51, 0
2, 164093, Note_on_c, 0, 63, 0
2, 164106, Note_on_c, 0, 62, 0
2, 164113, Note_on_c, 0, 44, 0
2, 164213, Control_c, 0, 64, 127
2, 164325, Note_on_c, 0, 51, 52
2, 164577, Note_on_c, 0, 53, 65
2, 164852, Note_on_c, 0, 58, 63
2, 165159, Note_on_c, 0, 65, 65
2, 165435, Note_on_c, 0, 63, 74
2, 165688, Note_on_c, 0, 58, 0
2, 165699, Note_on_c, 0, 58, 62
2, 165701, Note_on_c, 0, 79, 91
2, 165978, Note_on_c, 0, 55, 71
2, 165980, Note_on_c, 0, 82, 0
2, 165984, Note_on_c, 0, 82, 94
2, 166285, Note_on_c, 0, 84, 89
2, 166286, Note_on_c, 0, 41, 70
2, 166295, Note_on_c, 0, 75, 0
2, 166296, Note_on_c, 0, 72, 76
2, 166298, Note_on_c, 0, 80, 72
2, 166298, Control_c, 0, 64, 0
2, 166304, Note_on_c, 0, 75, 76
2, 166305, Note_on_c, 0, 63, 0
2, 166305, Note_on_c, 0, 55, 0
2, 166306, Note_on_c, 0, 51, 0
2, 166306, Note_on_c, 0, 79, 0
2, 166306, Note_on_c, 0, 82, 0
2, 166309, Note_on_c, 0, 43, 0
2, 166318, Note_on_c, 0, 58, 0
2, 166318, Note_on_c, 0, 70, 0
2, 166325, Note_on_c, 0, 77, 0
2, 166356, Note_on_c, 0, 65, 0
2, 166387, Note_on_c, 0, 53, 0
2, 166394, Control_c, 0, 64, 127
2, 166571, Note_on_c, 0, 84, 0
2, 166575, Note_on_c, 0, 84, 90
2, 166583, Note_on_c, 0, 48, 55
2, 166832, Note_on_c, 0, 84, 0
2, 166840, Note_on_c, 0, 80, 0
2, 166843, Note_on_c, 0, 84, 90
2, 166844, Note_on_c, 0, 55, 65
2, 166848, Note_on_c, 0, 72, 0
2, 166848, Note_on_c, 0, 75, 0
2, 166851, Note_on_c, 0, 80, 70
2, 166852, Note_on_c, 0, 72, 76
2, 166854, Note_on_c, 0, 75, 75
2, 167109, Note_on_c, 0, 84, 0
2, 167113, Note_on_c, 0, 56, 65
2, 167116, Note_on_c, 0, 72, 0
2, 167119, Note_on_c, 0, 84, 87
2, 167128, Note_on_c, 0, 72, 61
2, 167370, Note_on_c, 0, 84, 0
2, 167375, Note_on_c, 0, 84, 93
2, 167385, Note_on_c, 0, 72, 0
2, 167385, Note_on_c, 0, 80, 0
2, 167390, Note_on_c, 0, 80, 76
2, 167393, Note_on_c, 0, 75, 0
2, 167396, Note_on_c, 0, 72, 75
2, 167397, Note_on_c, 0, 75, 80
2, 167397, Note_on_c, 0, 63, 65
2, 167402, Note_on_c, 0, 60, 54
2, 167409, Control_c, 0, 64, 0
2, 167447, Control_c, 0, 64, 127
2, 167653, Note_on_c, 0, 53, 56
2, 167930, Note_on_c, 0, 55, 0
2, 167930, Note_on_c, 0, 60, 0
2, 167940, Note_on_c, 0, 60, 50
2, 167941, Note_on_c, 0, 55, 48
2, 167941, Note_on_c, 0, 67, 54
2, 168192, Note_on_c, 0, 84, 0
2, 168203, Note_on_c, 0, 84, 86
2, 168205, Note_on_c, 0, 68, 66
2, 168485, Note_on_c, 0, 82, 87
2, 168504, Note_on_c, 0, 50, 65
2, 168506, Note_on_c, 0, 65, 61
2, 168510, Note_on_c, 0, 74, 73
2, 168511, Note_on_c, 0, 70, 70
2, 168512, Note_on_c, 0, 77, 70
2, 168534, Note_on_c, 0, 63, 0
2, 168535, Note_on_c, 0, 53, 0
2, 168535, Note_on_c, 0, 60, 0
2, 168536, Note_on_c, 0, 48, 0
2, 168536, Note_on_c, 0, 84, 0
2, 168536, Control_c, 0, 64, 0
2, 168536, Note_on_c, 0, 55, 0
2, 168536, Note_on_c, 0, 75, 0
2, 168536, Note_on_c, 0, 72, 0
2, 168536, Note_on_c, 0, 56, 0
2, 168536, Note_on_c, 0, 68, 0
2, 168536, Note_on_c, 0, 67, 0
2, 168537, Note_on_c, 0, 80, 0
2, 168560, Note_on_c, 0, 41, 0
2, 168691, Control_c, 0, 64, 127
2, 168824, Note_on_c, 0, 58, 54
2, 169059, Note_on_c, 0, 74, 0
2, 169059, Note_on_c, 0, 77, 0
2, 169063, Note_on_c, 0, 77, 73
2, 169071, Note_on_c, 0, 74, 67
2, 169071, Note_on_c, 0, 68, 61
2, 169336, Note_on_c, 0, 58, 0
2, 169340, Note_on_c, 0, 58, 49
2, 169616, Note_on_c, 0, 39, 54
2, 169619, Note_on_c, 0, 79, 74
2, 169635, Note_on_c, 0, 70, 0
2, 169638, Note_on_c, 0, 75, 69
2, 169640, Note_on_c, 0, 70, 53
2, 169640, Note_on_c, 0, 67, 48
2, 169646, Note_on_c, 0, 50, 0
2, 169646, Control_c, 0, 64, 0
2, 169648, Note_on_c, 0, 58, 0
2, 169648, Note_on_c, 0, 68, 0
2, 169649, Note_on_c, 0, 74, 0
2, 169650, Note_on_c, 0, 77, 0
2, 169651, Note_on_c, 0, 65, 0
2, 169674, Note_on_c, 0, 82, 0
2, 169743, Note_on_c, 0, 39, 0
2, 169766, Control_c, 0, 64, 127
2, 169876, Note_on_c, 0, 58, 53
2, 170142, Note_on_c, 0, 70, 0
2, 170150, Note_on_c, 0, 67, 0
2, 170153, Note_on_c, 0, 70, 58
2, 170154, Note_on_c, 0, 67, 49
2, 170438, Note_on_c, 0, 63, 57
2, 170718, Note_on_c, 0, 53, 54
2, 170720, Note_on_c, 0, 63, 0
2, 170721, Note_on_c, 0, 70, 0
2, 170721, Note_on_c, 0, 58, 0
2, 170721, Note_on_c, 0, 67, 0
2, 170721, Note_on_c, 0, 75, 0
2, 170722, Control_c, 0, 64, 0
2, 170722, Note_on_c, 0, 79, 0
2, 170731, Note_on_c, 0, 77, 69
2, 170747, Note_on_c, 0, 72, 53
2, 170763, Note_on_c, 0, 68, 57
2, 170818, Control_c, 0, 64, 127
2, 171005, Note_on_c, 0, 60, 57
2, 171018, Note_on_c, 0, 68, 0
2, 171018, Note_on_c, 0, 77, 0
2, 171024, Note_on_c, 0, 77, 75
2, 171025, Note_on_c, 0, 72, 0
2, 171028, Note_on_c, 0, 68, 70
2, 171035, Note_on_c, 0, 72, 69
2, 171271, Note_on_c, 0, 77, 0
2, 171279, Note_on_c, 0, 68, 0
2, 171279, Note_on_c, 0, 72, 0
2, 171282, Note_on_c, 0, 77, 79
2, 171283, Note_on_c, 0, 65, 59
2, 171284, Note_on_c, 0, 72, 76
2, 171289, Note_on_c, 0, 68, 69
2, 171549, Note_on_c, 0, 67, 63
2, 171550, Note_on_c, 0, 79, 80
2, 171816, Note_on_c, 0, 77, 0
2, 171826, Note_on_c, 0, 77, 81
2, 171832, Note_on_c, 0, 68, 0
2, 171832, Note_on_c, 0, 72, 0
2, 171839, Note_on_c, 0, 72, 67
2, 171841, Note_on_c, 0, 68, 66
2, 171845, Note_on_c, 0, 46, 58
2, 171857, Control_c, 0, 64, 0
2, 171862, Note_on_c, 0, 65, 0
2, 171864, Note_on_c, 0, 60, 0
2, 171864, Note_on_c, 0, 67, 0
2, 171865, Note_on_c, 0, 53, 0
2, 171866, Note_on_c, 0, 79, 0
2, 171962, Control_c, 0, 64, 127
2, 172112, Note_on_c, 0, 53, 58
2, 172373, Note_on_c, 0, 56, 52
2, 172654, Note_on_c, 0, 72, 0
2, 172665, Note_on_c, 0, 72, 68
2, 172669, Note_on_c, 0, 68, 0
2, 172679, Note_on_c, 0, 68, 57
2, 172681, Note_on_c, 0, 60, 47
2, 172940, Note_on_c, 0, 75, 76
2, 172967, Note_on_c, 0, 51, 50
2, 172969, Note_on_c, 0, 70, 60
2, 172970, Note_on_c, 0, 67, 52
2, 172981, Note_on_c, 0, 46, 0
2, 172982, Control_c, 0, 64, 0
2, 172983, Note_on_c, 0, 56, 0
2, 172984, Note_on_c, 0, 72, 0
2, 172985, Note_on_c, 0, 60, 0
2, 172985, Note_on_c, 0, 68, 0
2, 172985, Note_on_c, 0, 53, 0
2, 173007, Note_on_c, 0, 77, 0
2, 173153, Control_c, 0, 64, 127
2, 173227, Note_on_c, 0, 58, 49
2, 173485, Note_on_c, 0, 63, 53
2, 173751, Note_on_c, 0, 65, 49
2, 174051, Note_on_c, 0, 70, 0
2, 174056, Note_on_c, 0, 70, 52
2, 174067, Note_on_c, 0, 67, 0
2, 174074, Note_on_c, 0, 63, 0
2, 174077, Note_on_c, 0, 67, 37
2, 174086, Note_on_c, 0, 63, 30
2, 174632, Note_on_c, 0, 50, 52
2, 175214, Note_on_c, 0, 84, 64
2, 175215, Note_on_c, 0, 48, 54
2, 175229, Control_c, 0, 64, 0
2, 175230, Note_on_c, 0, 63, 0
2, 175231, Note_on_c, 0, 79, 31
2, 175231, Note_on_c, 0, 51, 0
2, 175231, Note_on_c, 0, 67, 0
2, 175231, Note_on_c, 0, 58, 0
2, 175231, Note_on_c, 0, 65, 0
2, 175232, Note_on_c, 0, 70, 0
2, 175232, Note_on_c, 0, 50, 0
2, 175233, Note_on_c, 0, 75, 0
2, 175319, Control_c, 0, 64, 127
2, 175378, Note_on_c, 0, 75, 57
2, 175380, Note_on_c, 0, 48, 0
2, 175495, Note_on_c, 0, 84, 0
2, 175506, Note_on_c, 0, 84, 75
2, 175510, Note_on_c, 0, 55, 62
2, 175516, Note_on_c, 0, 74, 66
2, 175526, Note_on_c, 0, 79, 0
2, 175641, Note_on_c, 0, 75, 0
2, 175646, Note_on_c, 0, 75, 67
2, 175764, Note_on_c, 0, 84, 0
2, 175775, Note_on_c, 0, 84, 76
2, 175777, Note_on_c, 0, 72, 72
2, 175786, Note_on_c, 0, 62, 61
2, 175795, Note_on_c, 0, 55, 0
2, 175805, Note_on_c, 0, 55, 41
2, 175864, Note_on_c, 0, 75, 0
2, 175868, Note_on_c, 0, 75, 56
2, 175925, Note_on_c, 0, 75, 0
2, 175931, Note_on_c, 0, 75, 65
2, 176056, Note_on_c, 0, 55, 0
2, 176059, Note_on_c, 0, 63, 61
2, 176059, Note_on_c, 0, 86, 79
2, 176061, Note_on_c, 0, 55, 46
2, 176202, Note_on_c, 0, 75, 0
2, 176213, Note_on_c, 0, 75, 65
2, 176317, Note_on_c, 0, 84, 0
2, 176325, Note_on_c, 0, 84, 81
2, 176471, Note_on_c, 0, 75, 0
2, 176476, Note_on_c, 0, 75, 66
2, 176593, Note_on_c, 0, 72, 0
2, 176593, Note_on_c, 0, 74, 0
2, 176601, Note_on_c, 0, 72, 63
2, 176601, Note_on_c, 0, 74, 71
2, 176724, Note_on_c, 0, 75, 0
2, 176731, Note_on_c, 0, 75, 62
2, 176847, Note_on_c, 0, 72, 0
2, 176855, Note_on_c, 0, 72, 69
2, 176882, Note_on_c, 0, 67, 58
2, 176985, Note_on_c, 0, 75, 0
2, 176991, Note_on_c, 0, 75, 77
2, 177123, Note_on_c, 0, 84, 0
2, 177132, Note_on_c, 0, 84, 85
2, 177139, Note_on_c, 0, 63, 0
2, 177146, Note_on_c, 0, 55, 0
2, 177147, Note_on_c, 0, 63, 63
2, 177151, Note_on_c, 0, 55, 35
2, 177425, Note_on_c, 0, 87, 88
2, 177426, Note_on_c, 0, 43, 67
2, 177449, Note_on_c, 0, 67, 0
2, 177450, Note_on_c, 0, 63, 0
2, 177450, Control_c, 0, 64, 0
2, 177450, Note_on_c, 0, 74, 0
2, 177450, Note_on_c, 0, 75, 0
2, 177450, Note_on_c, 0, 55, 0
2, 177451, Note_on_c, 0, 72, 0
2, 177451, Note_on_c, 0, 84, 0
2, 177461, Note_on_c, 0, 62, 0
2, 177515, Control_c, 0, 64, 127
2, 177538, Note_on_c, 0, 86, 0
2, 177595, Note_on_c, 0, 79, 56
2, 177700, Note_on_c, 0, 75, 63
2, 177703, Note_on_c, 0, 50, 56
2, 177830, Note_on_c, 0, 79, 0
2, 177840, Note_on_c, 0, 79, 67
2, 177956, Note_on_c, 0, 86, 86
2, 177971, Note_on_c, 0, 55, 64
2, 178099, Note_on_c, 0, 79, 0
2, 178104, Note_on_c, 0, 79, 62
2, 178256, Note_on_c, 0, 58, 58
2, 178258, Note_on_c, 0, 74, 62
2, 178368, Note_on_c, 0, 79, 0
2, 178373, Note_on_c, 0, 79, 61
2, 178498, Note_on_c, 0, 79, 0
2, 178508, Note_on_c, 0, 79, 76
2, 178519, Note_on_c, 0, 67, 60
2, 178675, Note_on_c, 0, 74, 0
2, 178679, Note_on_c, 0, 74, 66
2, 178796, Note_on_c, 0, 62, 48
2, 178805, Note_on_c, 0, 58, 0
2, 178809, Note_on_c, 0, 58, 41
2, 178827, Note_on_c, 0, 70, 46
2, 179059, Note_on_c, 0, 67, 0
2, 179068, Note_on_c, 0, 67, 57
2, 179205, Note_on_c, 0, 70, 0
2, 179211, Note_on_c, 0, 70, 61
2, 179343, Note_on_c, 0, 62, 0
2, 179343, Note_on_c, 0, 74, 0
2, 179352, Note_on_c, 0, 62, 41
2, 179353, Note_on_c, 0, 74, 65
2, 179473, Note_on_c, 0, 79, 0
2, 179484, Note_on_c, 0, 79, 66
2, 179631, Note_on_c, 0, 77, 79
2, 179651, Note_on_c, 0, 53, 71
2, 179678, Note_on_c, 0, 58, 0
2, 179679, Note_on_c, 0, 50, 0
2, 179679, Note_on_c, 0, 67, 0
2, 179679, Note_on_c, 0, 70, 0
2, 179679, Note_on_c, 0, 55, 0
2, 179680, Note_on_c, 0, 62, 0
2, 179680, Note_on_c, 0, 43, 0
2, 179680, Note_on_c, 0, 74, 0
2, 179681, Note_on_c, 0, 86, 0
2, 179681, Note_on_c, 0, 79, 0
2, 179683, Note_on_c, 0, 75, 0
2, 179685, Control_c, 0, 64, 0
2, 179688, Note_on_c, 0, 87, 0
2, 179750, Control_c, 0, 64, 127
2, 179767, Note_on_c, 0, 72, 69
2, 179915, Note_on_c, 0, 60, 56
2, 179915, Note_on_c, 0, 68, 60
2, 180042, Note_on_c, 0, 72, 0
2, 180046, Note_on_c, 0, 72, 65
2, 180180, Note_on_c, 0, 82, 86
2, 180311, Note_on_c, 0, 72, 0
2, 180315, Note_on_c, 0, 72, 70
2, 180441, Note_on_c, 0, 68, 0
2, 180452, Note_on_c, 0, 65, 57
2, 180452, Note_on_c, 0, 68, 67
2, 180579, Note_on_c, 0, 72, 0
2, 180586, Note_on_c, 0, 72, 71
2, 180722, Note_on_c, 0, 51, 64
2, 180723, Note_on_c, 0, 79, 81
2, 180735, Control_c, 0, 64, 0
2, 180737, Note_on_c, 0, 68, 0
2, 180738, Note_on_c, 0, 82, 0
2, 180739, Note_on_c, 0, 72, 0
2, 180740, Note_on_c, 0, 65, 0
2, 180741, Note_on_c, 0, 77, 0
2, 180741, Note_on_c, 0, 60, 0
2, 180742, Note_on_c, 0, 53, 0
2, 180802, Control_c, 0, 64, 127
2, 180861, Note_on_c, 0, 74, 70
2, 180991, Note_on_c, 0, 60, 66
2, 180991, Note_on_c, 0, 72, 72
2, 181125, Note_on_c, 0, 74, 0
2, 181134, Note_on_c, 0, 74, 60
2, 181260, Note_on_c, 0, 67, 64
2, 181264, Note_on_c, 0, 62, 58
2, 181363, Note_on_c, 0, 72, 0
2, 181373, Note_on_c, 0, 72, 82
2, 181509, Note_on_c, 0, 60, 0
2, 181516, Note_on_c, 0, 60, 69
2, 181528, Note_on_c, 0, 77, 80
2, 181647, Note_on_c, 0, 79, 0
2, 181653, Note_on_c, 0, 79, 75
2, 181807, Note_on_c, 0, 55, 79
2, 181807, Note_on_c, 0, 86, 86
2, 181820, Note_on_c, 0, 62, 0
2, 181821, Note_on_c, 0, 51, 0
2, 181821, Note_on_c, 0, 60, 0
2, 181821, Note_on_c, 0, 67, 0
2, 181821, Note_on_c, 0, 74, 0
2, 181822, Note_on_c, 0, 79, 0
2, 181825, Note_on_c, 0, 77, 0
2, 181826, Control_c, 0, 64, 0
2, 181839, Note_on_c, 0, 72, 0
2, 181900, Control_c, 0, 64, 127
2, 181939, Note_on_c, 0, 82, 75
2, 182072, Note_on_c, 0, 62, 69
2, 182075, Note_on_c, 0, 79, 68
2, 182200, Note_on_c, 0, 82, 0
2, 182205, Note_on_c, 0, 82, 79
2, 182340, Note_on_c, 0, 77, 79
2, 182342, Note_on_c, 0, 67, 73
2, 182461, Note_on_c, 0, 79, 0
2, 182467, Note_on_c, 0, 79, 73
2, 182599, Note_on_c, 0, 82, 0
2, 182602, Note_on_c, 0, 87, 91
2, 182603, Note_on_c, 0, 70, 82
2, 182607, Note_on_c, 0, 82, 81
2, 182745, Note_on_c, 0, 77, 0
2, 182753, Note_on_c, 0, 77, 70
2, 182876, Note_on_c, 0, 86, 0
2, 182887, Note_on_c, 0, 86, 94
2, 182891, Note_on_c, 0, 77, 0
2, 182891, Note_on_c, 0, 82, 0
2, 182896, Note_on_c, 0, 77, 76
2, 182897, Note_on_c, 0, 82, 83
2, 182897, Note_on_c, 0, 74, 81
2, 183087, Note_on_c, 0, 65, 39
2, 183144, Note_on_c, 0, 62, 0
2, 183151, Note_on_c, 0, 62, 76
2, 183274, Note_on_c, 0, 58, 78
2, 183398, Note_on_c, 0, 67, 0
2, 183398, Note_on_c, 0, 79, 0
2, 183403, Note_on_c, 0, 79, 91
2, 183406, Note_on_c, 0, 70, 0
2, 183406, Note_on_c, 0, 74, 0
2, 183409, Note_on_c, 0, 67, 84
2, 183410, Note_on_c, 0, 70, 83
2, 183413, Note_on_c, 0, 55, 0
2, 183414, Note_on_c, 0, 74, 69
2, 183418, Note_on_c, 0, 55, 85
2, 183528, Note_on_c, 0, 50, 79
2, 183680, Note_on_c, 0, 43, 75
2, 183686, Note_on_c, 0, 31, 74
2, 183690, Note_on_c, 0, 82, 0
2, 183694, Note_on_c, 0, 82, 102
2, 183697, Note_on_c, 0, 31, 0
2, 183697, Note_on_c, 0, 70, 0
2, 183701, Note_on_c, 0, 70, 88
2, 183820, Note_on_c, 0, 50, 0
2, 183825, Note_on_c, 0, 50, 78
2, 184004, Control_c, 0, 64, 0
2, 184005, Note_on_c, 0, 58, 0
2, 184005, Note_on_c, 0, 86, 0
2, 184006, Note_on_c, 0, 62, 0
2, 184007, Note_on_c, 0, 55, 0
2, 184007, Note_on_c, 0, 50, 0
2, 184007, Note_on_c, 0, 43, 0
2, 184007, Note_on_c, 0, 70, 0
2, 184008, Note_on_c, 0, 74, 0
2, 184008, Note_on_c, 0, 77, 0
2, 184020, Note_on_c, 0, 65, 0
2, 184020, Note_on_c, 0, 67, 0
2, 184020, Note_on_c, 0, 87, 0
2, 184028, Note_on_c, 0, 82, 0
2, 184031, Note_on_c, 0, 87, 102
2, 184033, Note_on_c, 0, 36, 90
2, 184035, Note_on_c, 0, 79, 0
2, 184038, Note_on_c, 0, 82, 87
2, 184039, Note_on_c, 0, 75, 90
2, 184040, Note_on_c, 0, 79, 76
2, 184089, Control_c, 0, 64, 127
2, 184143, Note_on_c, 0, 36, 0
2, 184321, Note_on_c, 0, 60, 76
2, 184583, Control_c, 0, 64, 0
2, 184596, Note_on_c, 0, 79, 0
2, 184596, Note_on_c, 0, 82, 0
2, 184597, Note_on_c, 0, 70, 87
2, 184600, Note_on_c, 0, 86, 96
2, 184602, Note_on_c, 0, 55, 71
2, 184604, Note_on_c, 0, 67, 69
2, 184605, Note_on_c, 0, 79, 68
2, 184605, Note_on_c, 0, 74, 89
2, 184606, Note_on_c, 0, 75, 0
2, 184606, Note_on_c, 0, 82, 88
2, 184612, Note_on_c, 0, 63, 72
2, 184619, Control_c, 0, 64, 127
2, 184849, Note_on_c, 0, 60, 0
2, 184858, Note_on_c, 0, 60, 74
2, 185057, Note_on_c, 0, 67, 0
2, 185063, Note_on_c, 0, 67, 63
2, 185103, Note_on_c, 0, 70, 0
2, 185108, Note_on_c, 0, 70, 70
2, 185122, Control_c, 0, 64, 0
2, 185123, Note_on_c, 0, 55, 0
2, 185126, Note_on_c, 0, 82, 0
2, 185127, Note_on_c, 0, 67, 0
2, 185127, Note_on_c, 0, 86, 0
2, 185128, Note_on_c, 0, 63, 0
2, 185128, Note_on_c, 0, 87, 0
2, 185134, Note_on_c, 0, 60, 0
2, 185141, Note_on_c, 0, 74, 0
2, 185147, Note_on_c, 0, 74, 74
2, 185149, Note_on_c, 0, 79, 0
2, 185152, Note_on_c, 0, 34, 80
2, 185154, Note_on_c, 0, 46, 68
2, 185160, Note_on_c, 0, 79, 93
2, 185210, Control_c, 0, 64, 127
2, 185233, Note_on_c, 0, 46, 0
2, 185429, Note_on_c, 0, 58, 64
2, 185687, Note_on_c, 0, 70, 0
2, 185693, Note_on_c, 0, 70, 79
2, 185696, Note_on_c, 0, 62, 61
2, 185698, Note_on_c, 0, 67, 65
2, 185948, Note_on_c, 0, 58, 0
2, 185955, Note_on_c, 0, 79, 0
2, 185959, Note_on_c, 0, 58, 76
2, 185961, Note_on_c, 0, 79, 92
2, 186234, Control_c, 0, 64, 0
2, 186235, Note_on_c, 0, 34, 0
2, 186235, Note_on_c, 0, 62, 0
2, 186235, Note_on_c, 0, 67, 0
2, 186236, Note_on_c, 0, 79, 0
2, 186236, Note_on_c, 0, 70, 0
2, 186236, Note_on_c, 0, 74, 0
2, 186243, Note_on_c, 0, 32, 85
2, 186244, Note_on_c, 0, 44, 82
2, 186247, Note_on_c, 0, 84, 98
2, 186247, Note_on_c, 0, 58, 0
2, 186264, Note_on_c, 0, 72, 87
2, 186266, Note_on_c, 0, 75, 80
2, 186339, Note_on_c, 0, 44, 0
2, 186339, Control_c, 0, 64, 127
2, 186424, Note_on_c, 0, 32, 0
2, 186541, Note_on_c, 0, 56, 62
2, 186671, Note_on_c, 0, 82, 88
2, 186674, Note_on_c, 0, 74, 79
2, 186808, Note_on_c, 0, 70, 77
2, 186811, Note_on_c, 0, 60, 70
2, 186811, Note_on_c, 0, 63, 74
2, 187054, Note_on_c, 0, 56, 0
2, 187054, Note_on_c, 0, 60, 0
2, 187058, Note_on_c, 0, 56, 75
2, 187061, Note_on_c, 0, 60, 54
2, 187065, Note_on_c, 0, 80, 85
2, 187299, Note_on_c, 0, 70, 0
2, 187309, Note_on_c, 0, 70, 62
2, 187347, Note_on_c, 0, 74, 0
2, 187348, Note_on_c, 0, 80, 0
2, 187348, Control_c, 0, 64, 0
2, 187348, Note_on_c, 0, 63, 0
2, 187349, Note_on_c, 0, 60, 0
2, 187349, Note_on_c, 0, 75, 0
2, 187349, Note_on_c, 0, 56, 0
2, 187349, Note_on_c, 0, 84, 0
2, 187349, Note_on_c, 0, 72, 0
2, 187353, Note_on_c, 0, 82, 0
2, 187364, Note_on_c, 0, 82, 98
2, 187364, Note_on_c, 0, 31, 72
2, 187365, Note_on_c, 0, 77, 80
2, 187491, Control_c, 0, 64, 127
2, 187665, Note_on_c, 0, 43, 53
2, 187957, Note_on_c, 0, 51, 60
2, 187962, Note_on_c, 0, 53, 56
2, 187975, Note_on_c, 0, 31, 0
2, 188294, Note_on_c, 0, 58, 54
2, 188699, Note_on_c, 0, 63, 50
2, 188702, Note_on_c, 0, 75, 59
2, 188705, Note_on_c, 0, 70, 0
2, 188709, Note_on_c, 0, 55, 43
2, 188709, Note_on_c, 0, 65, 48
2, 188709, Note_on_c, 0, 70, 49
2, 190080, Note_on_c, 0, 43, 0
2, 190080, Note_on_c, 0, 77, 0
2, 190080, Note_on_c, 0, 82, 0
2, 190419, Note_on_c, 0, 79, 87
2, 190430, Note_on_c, 0, 67, 71
2, 190717, Note_on_c, 0, 70, 0
2, 190720, Note_on_c, 0, 82, 91
2, 190726, Note_on_c, 0, 70, 72
2, 190937, Note_on_c, 0, 72, 74
2, 190978, Note_on_c, 0, 75, 0
2, 190989, Note_on_c, 0, 75, 72
2, 191012, Note_on_c, 0, 80, 70
2, 191035, Note_on_c, 0, 41, 66
2, 191039, Note_on_c, 0, 84, 95
2, 191042, Control_c, 0, 64, 0
2, 191046, Note_on_c, 0, 63, 0
2, 191047, Note_on_c, 0, 72, 0
2, 191047, Note_on_c, 0, 65, 0
2, 191047, Note_on_c, 0, 53, 0
2, 191047, Note_on_c, 0, 67, 0
2, 191048, Note_on_c, 0, 51, 0
2, 191048, Note_on_c, 0, 58, 0
2, 191049, Note_on_c, 0, 79, 0
2, 191049, Note_on_c, 0, 55, 0
2, 191049, Note_on_c, 0, 70, 0
2, 191049, Note_on_c, 0, 82, 0
2, 191155, Control_c, 0, 64, 127
2, 191322, Note_on_c, 0, 48, 55
2, 191614, Note_on_c, 0, 87, 91
2, 191623, Note_on_c, 0, 75, 0
2, 191623, Note_on_c, 0, 80, 0
2, 191623, Note_on_c, 0, 84, 0
2, 191628, Note_on_c, 0, 84, 62
2, 191630, Note_on_c, 0, 75, 70
2, 191631, Note_on_c, 0, 80, 61
2, 191912, Note_on_c, 0, 56, 59
2, 191913, Note_on_c, 0, 68, 55
2, 192171, Note_on_c, 0, 56, 0
2, 192172, Note_on_c, 0, 87, 0
2, 192172, Note_on_c, 0, 80, 0
2, 192172, Note_on_c, 0, 75, 0
2, 192172, Note_on_c, 0, 48, 0
2, 192172, Control_c, 0, 64, 0
2, 192172, Note_on_c, 0, 41, 0
2, 192172, Note_on_c, 0, 84, 0
2, 192176, Note_on_c, 0, 68, 0
2, 192191, Note_on_c, 0, 86, 80
2, 192195, Note_on_c, 0, 43, 59
2, 192197, Note_on_c, 0, 77, 72
2, 192200, Note_on_c, 0, 82, 78
2, 192202, Note_on_c, 0, 74, 71
2, 192299, Control_c, 0, 64, 127
2, 192471, Note_on_c, 0, 50, 50
2, 192613, Note_on_c, 0, 84, 87
2, 192619, Note_on_c, 0, 72, 79
2, 192629, Note_on_c, 0, 77, 0
2, 192640, Note_on_c, 0, 77, 49
2, 192650, Note_on_c, 0, 78, 47
2, 192660, Note_on_c, 0, 78, 0
2, 192765, Note_on_c, 0, 58, 60
2, 193013, Note_on_c, 0, 82, 0
2, 193022, Note_on_c, 0, 82, 87
2, 193049, Note_on_c, 0, 70, 68
2, 193320, Note_on_c, 0, 84, 0
2, 193332, Note_on_c, 0, 86, 0
2, 193332, Note_on_c, 0, 43, 0
2, 193332, Note_on_c, 0, 84, 85
2, 193332, Note_on_c, 0, 77, 0
2, 193332, Note_on_c, 0, 50, 0
2, 193332, Control_c, 0, 64, 0
2, 193333, Note_on_c, 0, 70, 0
2, 193333, Note_on_c, 0, 44, 63
2, 193336, Note_on_c, 0, 72, 0
2, 193336, Note_on_c, 0, 74, 0
2, 193340, Note_on_c, 0, 80, 70
2, 193340, Note_on_c, 0, 72, 70
2, 193341, Note_on_c, 0, 75, 77
2, 193344, Note_on_c, 0, 58, 0
2, 193351, Note_on_c, 0, 82, 0
2, 193451, Control_c, 0, 64, 127
2, 193603, Note_on_c, 0, 51, 55
2, 193902, Note_on_c, 0, 56, 49
2, 194211, Note_on_c, 0, 72, 0
2, 194219, Note_on_c, 0, 72, 69
2, 194226, Note_on_c, 0, 60, 45
2, 194230, Note_on_c, 0, 68, 50
2, 194233, Note_on_c, 0, 63, 49
2, 194234, Note_on_c, 0, 51, 0
2, 194238, Note_on_c, 0, 58, 51
2, 194246, Note_on_c, 0, 51, 47
2, 194311, Control_c, 0, 64, 0
2, 194396, Control_c, 0, 64, 127
2, 194818, Note_on_c, 0, 56, 0
2, 194822, Note_on_c, 0, 56, 48
2, 195112, Note_on_c, 0, 67, 77
2, 195391, Note_on_c, 0, 70, 70
2, 195408, Note_on_c, 0, 55, 56
2, 195686, Note_on_c, 0, 72, 0
2, 195686, Note_on_c, 0, 84, 0
2, 195690, Note_on_c, 0, 72, 81
2, 195694, Note_on_c, 0, 80, 0
2, 195694, Note_on_c, 0, 58, 0
2, 195696, Note_on_c, 0, 67, 0
2, 195697, Note_on_c, 0, 55, 0
2, 195697, Note_on_c, 0, 60, 0
2, 195697, Note_on_c, 0, 75, 0
2, 195697, Note_on_c, 0, 44, 0
2, 195697, Note_on_c, 0, 70, 0
2, 195697, Control_c, 0, 64, 0
2, 195697, Note_on_c, 0, 56, 0
2, 195699, Note_on_c, 0, 53, 56
2, 195701, Note_on_c, 0, 63, 0
2, 195701, Note_on_c, 0, 68, 0
2, 195707, Note_on_c, 0, 63, 49
2, 195707, Note_on_c, 0, 65, 54
2, 195708, Note_on_c, 0, 68, 60
2, 195717, Note_on_c, 0, 51, 0
2, 195847, Control_c, 0, 64, 127
2, 195992, Note_on_c, 0, 60, 50
2, 196290, Note_on_c, 0, 75, 86
2, 196557, Note_on_c, 0, 56, 48
2, 196863, Note_on_c, 0, 68, 0
2, 196863, Note_on_c, 0, 72, 0
2, 196864, Note_on_c, 0, 60, 0
2, 196864, Note_on_c, 0, 56, 0
2, 196864, Note_on_c, 0, 63, 0
2, 196864, Note_on_c, 0, 74, 81
2, 196864, Note_on_c, 0, 75, 0
2, 196871, Control_c, 0, 64, 0
2, 196876, Note_on_c, 0, 65, 0
2, 196881, Note_on_c, 0, 55, 59
2, 196884, Note_on_c, 0, 53, 0
2, 196886, Note_on_c, 0, 70, 63
2, 196886, Note_on_c, 0, 65, 52
2, 196892, Note_on_c, 0, 53, 50
2, 196896, Note_on_c, 0, 67, 52
2, 196961, Note_on_c, 0, 53, 0
2, 196999, Control_c, 0, 64, 127
2, 197335, Note_on_c, 0, 72, 75
2, 197471, Note_on_c, 0, 58, 47
2, 197473, Note_on_c, 0, 62, 49
2, 197760, Note_on_c, 0, 65, 0
2, 197760, Note_on_c, 0, 70, 0
2, 197770, Note_on_c, 0, 70, 73
2, 197783, Note_on_c, 0, 67, 0
2, 197794, Note_on_c, 0, 67, 39
2, 198010, Note_on_c, 0, 65, 42
2, 198013, Note_on_c, 0, 67, 0
2, 198017, Note_on_c, 0, 67, 63
2, 198044, Note_on_c, 0, 72, 0
2, 198055, Note_on_c, 0, 72, 79
2, 198063, Note_on_c, 0, 48, 51
2, 198083, Note_on_c, 0, 55, 0
2, 198083, Note_on_c, 0, 58, 0
2, 198084, Note_on_c, 0, 70, 0
2, 198084, Note_on_c, 0, 62, 0
2, 198085, Note_on_c, 0, 74, 0
2, 198088, Control_c, 0, 64, 0
2, 198259, Control_c, 0, 64, 127
2, 198347, Note_on_c, 0, 55, 52
2, 198603, Note_on_c, 0, 60, 48
2, 198908, Note_on_c, 0, 62, 45
2, 199211, Note_on_c, 0, 65, 0
2, 199218, Note_on_c, 0, 65, 42
2, 199226, Note_on_c, 0, 67, 0
2, 199231, Note_on_c, 0, 67, 44
2, 199841, Note_on_c, 0, 62, 0
2, 199852, Note_on_c, 0, 62, 35
2, 200102, Note_on_c, 0, 55, 0
2, 200108, Note_on_c, 0, 55, 14
2, 200540, Note_on_c, 0, 48, 0
2, 200544, Note_on_c, 0, 48, 38
2, 200548, Note_on_c, 0, 64, 42
2, 200591, Note_on_c, 0, 67, 0
2, 200591, Note_on_c, 0, 55, 0
2, 200591, Control_c, 0, 64, 0
2, 200592, Note_on_c, 0, 60, 0
2, 200593, Note_on_c, 0, 62, 0
2, 200609, Note_on_c, 0, 65, 0
2, 200632, Note_on_c, 0, 72, 0
2, 200875, Note_on_c, 0, 55, 42
2, 200901, Control_c, 0, 64, 127
2, 201202, Note_on_c, 0, 60, 46
2, 201590, Note_on_c, 0, 62, 25
2, 201971, Note_on_c, 0, 67, 45
2, 202787, Note_on_c, 0, 72, 46
2, 204856, Note_on_c, 0, 79, 45
2, 204998, Note_on_c, 0, 77, 47
2, 205048, Control_c, 0, 64, 0
2, 205125, Note_on_c, 0, 72, 0
2, 205132, Note_on_c, 0, 72, 41
2, 205132, Control_c, 0, 64, 127
2, 205155, Note_on_c, 0, 48, 0
2, 205155, Note_on_c, 0, 64, 0
2, 205286, Note_on_c, 0, 79, 0
2, 205296, Note_on_c, 0, 79, 56
2, 205440, Note_on_c, 0, 55, 0
2, 205440, Note_on_c, 0, 60, 0
2, 205440, Note_on_c, 0, 62, 0
2, 205440, Note_on_c, 0, 67, 0
2, 205547, Note_on_c, 0, 77, 0
2, 205557, Note_on_c, 0, 77, 46
2, 205701, Note_on_c, 0, 72, 0
2, 205711, Note_on_c, 0, 72, 49
2, 205969, Note_on_c, 0, 79, 0
2, 205975, Note_on_c, 0, 79, 51
2, 206100, Note_on_c, 0, 77, 0
2, 206107, Note_on_c, 0, 77, 40
2, 206215, Note_on_c, 0, 72, 0
2, 206221, Note_on_c, 0, 72, 46
2, 206361, Note_on_c, 0, 79, 0
2, 206369, Note_on_c, 0, 79, 59
2, 206630, Note_on_c, 0, 77, 0
2, 206636, Note_on_c, 0, 77, 41
2, 206784, Note_on_c, 0, 72, 0
2, 206793, Note_on_c, 0, 72, 51
2, 206880, Control_c, 0, 64, 0
2, 207068, Control_c, 0, 64, 127
2, 207075, Note_on_c, 0, 77, 0
2, 207079, Note_on_c, 0, 77, 46
2, 207098, Control_c, 0, 64, 0
2, 207205, Note_on_c, 0, 75, 47
2, 207260, Control_c, 0, 64, 127
2, 207335, Note_on_c, 0, 70, 36
2, 207467, Note_on_c, 0, 77, 0
2, 207477, Note_on_c, 0, 77, 45
2, 207736, Note_on_c, 0, 75, 0
2, 207740, Note_on_c, 0, 75, 51
2, 207782, Control_c, 0, 64, 0
2, 207889, Note_on_c, 0, 70, 0
2, 207897, Note_on_c, 0, 70, 34
2, 208005, Control_c, 0, 64, 127
2, 208143, Note_on_c, 0, 77, 0
2, 208150, Note_on_c, 0, 77, 43
2, 208273, Note_on_c, 0, 75, 0
2, 208280, Note_on_c, 0, 75, 46
2, 208343, Note_on_c, 0, 79, 0
2, 208404, Note_on_c, 0, 70, 0
2, 208408, Note_on_c, 0, 70, 36
2, 208535, Note_on_c, 0, 77, 0
2, 208542, Note_on_c, 0, 77, 58
2, 208642, Note_on_c, 0, 72, 0
2, 208796, Note_on_c, 0, 75, 0
2, 208807, Note_on_c, 0, 75, 50
2, 208934, Note_on_c, 0, 70, 0
2, 208938, Note_on_c, 0, 70, 48
2, 209071, Note_on_c, 0, 56, 43
2, 209073, Note_on_c, 0, 60, 41
2, 209076, Note_on_c, 0, 68, 41
2, 209117, Note_on_c, 0, 77, 0
2, 209157, Control_c, 0, 64, 0
2, 209211, Note_on_c, 0, 79, 56
2, 209280, Control_c, 0, 64, 127
2, 209335, Note_on_c, 0, 77, 58
2, 209379, Control_c, 0, 64, 0
2, 209465, Note_on_c, 0, 72, 54
2, 209541, Control_c, 0, 64, 127
2, 209602, Note_on_c, 0, 79, 0
2, 209614, Note_on_c, 0, 79, 62
2, 209871, Note_on_c, 0, 70, 0
2, 209871, Note_on_c, 0, 77, 0
2, 209875, Note_on_c, 0, 77, 55
2, 210009, Note_on_c, 0, 72, 0
2, 210020, Note_on_c, 0, 72, 49
2, 210278, Note_on_c, 0, 79, 0
2, 210287, Note_on_c, 0, 79, 58
2, 210332, Note_on_c, 0, 68, 0
2, 210362, Note_on_c, 0, 75, 0
2, 210393, Note_on_c, 0, 77, 0
2, 210398, Note_on_c, 0, 77, 58
2, 210516, Note_on_c, 0, 72, 0
2, 210527, Note_on_c, 0, 72, 56
2, 210662, Note_on_c, 0, 79, 0
2, 210672, Note_on_c, 0, 79, 61
2, 210931, Note_on_c, 0, 77, 0
2, 210941, Note_on_c, 0, 77, 55
2, 211077, Note_on_c, 0, 72, 0
2, 211082, Note_on_c, 0, 72, 56
2, 211187, Note_on_c, 0, 55, 50
2, 211192, Note_on_c, 0, 58, 52
2, 211248, Control_c, 0, 64, 0
2, 211262, Note_on_c, 0, 56, 0
2, 211262, Note_on_c, 0, 60, 0
2, 211353, Note_on_c, 0, 77, 0
2, 211359, Note_on_c, 0, 77, 48
2, 211399, Control_c, 0, 64, 127
2, 211415, Note_on_c, 0, 79, 0
2, 211421, Note_on_c, 0, 79, 38
2, 211470, Note_on_c, 0, 75, 58
2, 211585, Note_on_c, 0, 70, 55
2, 211722, Note_on_c, 0, 77, 0
2, 211727, Note_on_c, 0, 77, 63
2, 211860, Note_on_c, 0, 77, 0
2, 211867, Note_on_c, 0, 77, 37
2, 211991, Note_on_c, 0, 75, 0
2, 212002, Note_on_c, 0, 75, 47
2, 212121, Note_on_c, 0, 70, 0
2, 212125, Note_on_c, 0, 70, 46
2, 212190, Control_c, 0, 64, 0
2, 212275, Control_c, 0, 64, 127
2, 212382, Note_on_c, 0, 77, 0
2, 212391, Note_on_c, 0, 77, 53
2, 212528, Note_on_c, 0, 75, 0
2, 212532, Note_on_c, 0, 75, 44
2, 212766, Note_on_c, 0, 77, 0
2, 212770, Note_on_c, 0, 77, 63
2, 212818, Control_c, 0, 64, 0
2, 212897, Control_c, 0, 64, 127
2, 213020, Note_on_c, 0, 75, 0
2, 213029, Note_on_c, 0, 75, 63
2, 213120, Note_on_c, 0, 72, 0
2, 213158, Note_on_c, 0, 70, 0
2, 213169, Note_on_c, 0, 70, 51
2, 213283, Note_on_c, 0, 44, 66
2, 213419, Note_on_c, 0, 79, 0
2, 213429, Note_on_c, 0, 79, 64
2, 213550, Note_on_c, 0, 77, 0
2, 213556, Note_on_c, 0, 77, 66
2, 213575, Note_on_c, 0, 67, 54
2, 213698, Note_on_c, 0, 72, 61
2, 213818, Note_on_c, 0, 79, 0
2, 213830, Note_on_c, 0, 79, 68
2, 213852, Note_on_c, 0, 65, 47
2, 214087, Note_on_c, 0, 77, 0
2, 214097, Note_on_c, 0, 77, 65
2, 214110, Note_on_c, 0, 70, 0
2, 214114, Note_on_c, 0, 70, 57
2, 214233, Note_on_c, 0, 72, 0
2, 214243, Note_on_c, 0, 72, 65
2, 214371, Note_on_c, 0, 75, 0
2, 214377, Note_on_c, 0, 75, 36
2, 214533, Note_on_c, 0, 79, 0
2, 214542, Note_on_c, 0, 79, 61
2, 214602, Note_on_c, 0, 67, 0
2, 214611, Note_on_c, 0, 67, 57
2, 214632, Note_on_c, 0, 77, 0
2, 214644, Note_on_c, 0, 77, 66
2, 214763, Note_on_c, 0, 72, 0
2, 214771, Note_on_c, 0, 72, 67
2, 214894, Note_on_c, 0, 65, 0
2, 214902, Note_on_c, 0, 65, 57
2, 214909, Note_on_c, 0, 79, 0
2, 214916, Note_on_c, 0, 79, 71
2, 215155, Note_on_c, 0, 77, 0
2, 215165, Note_on_c, 0, 77, 65
2, 215293, Note_on_c, 0, 72, 0
2, 215303, Note_on_c, 0, 72, 72
2, 215410, Control_c, 0, 64, 0
2, 215411, Note_on_c, 0, 67, 0
2, 215411, Note_on_c, 0, 44, 0
2, 215411, Note_on_c, 0, 58, 0
2, 215412, Note_on_c, 0, 70, 0
2, 215412, Note_on_c, 0, 79, 0
2, 215412, Note_on_c, 0, 65, 0
2, 215412, Note_on_c, 0, 55, 0
2, 215438, Note_on_c, 0, 43, 64
2, 215493, Control_c, 0, 64, 127
2, 215608, Note_on_c, 0, 43, 0
2, 215608, Note_on_c, 0, 77, 0
2, 215615, Note_on_c, 0, 77, 57
2, 215714, Note_on_c, 0, 65, 62
2, 215723, Note_on_c, 0, 75, 0
2, 215729, Note_on_c, 0, 75, 68
2, 215851, Note_on_c, 0, 70, 61
2, 215984, Note_on_c, 0, 77, 0
2, 215988, Note_on_c, 0, 63, 64
2, 215990, Note_on_c, 0, 77, 70
2, 216012, Note_on_c, 0, 67, 31
2, 216238, Note_on_c, 0, 75, 0
2, 216245, Note_on_c, 0, 70, 0
2, 216249, Note_on_c, 0, 75, 65
2, 216250, Note_on_c, 0, 70, 60
2, 216384, Note_on_c, 0, 70, 0
2, 216395, Note_on_c, 0, 70, 64
2, 216660, Note_on_c, 0, 77, 0
2, 216666, Note_on_c, 0, 77, 66
2, 216783, Note_on_c, 0, 75, 0
2, 216791, Note_on_c, 0, 65, 0
2, 216794, Note_on_c, 0, 75, 64
2, 216794, Note_on_c, 0, 65, 57
2, 216906, Note_on_c, 0, 70, 0
2, 216914, Note_on_c, 0, 70, 56
2, 216960, Note_on_c, 0, 67, 0
2, 217052, Note_on_c, 0, 63, 0
2, 217052, Note_on_c, 0, 77, 0
2, 217056, Note_on_c, 0, 63, 64
2, 217063, Note_on_c, 0, 77, 68
2, 217313, Note_on_c, 0, 75, 0
2, 217318, Note_on_c, 0, 75, 66
2, 217451, Note_on_c, 0, 70, 0
2, 217459, Note_on_c, 0, 70, 63
2, 217563, Control_c, 0, 64, 0
2, 217567, Note_on_c, 0, 63, 0
2, 217567, Note_on_c, 0, 65, 0
2, 217574, Note_on_c, 0, 72, 0
2, 217596, Note_on_c, 0, 44, 70
2, 217635, Control_c, 0, 64, 127
2, 217724, Note_on_c, 0, 79, 69
2, 217728, Note_on_c, 0, 44, 0
2, 217850, Note_on_c, 0, 77, 0
2, 217860, Note_on_c, 0, 77, 72
2, 217893, Note_on_c, 0, 67, 54
2, 218003, Note_on_c, 0, 72, 62
2, 218127, Note_on_c, 0, 79, 0
2, 218129, Note_on_c, 0, 65, 59
2, 218132, Note_on_c, 0, 79, 70
2, 218388, Note_on_c, 0, 77, 0
2, 218399, Note_on_c, 0, 77, 62
2, 218403, Note_on_c, 0, 70, 0
2, 218408, Note_on_c, 0, 70, 52
2, 218542, Note_on_c, 0, 72, 0
2, 218546, Note_on_c, 0, 72, 65
2, 218803, Note_on_c, 0, 79, 0
2, 218812, Note_on_c, 0, 79, 70
2, 218895, Note_on_c, 0, 67, 0
2, 218899, Note_on_c, 0, 67, 60
2, 218926, Note_on_c, 0, 77, 0
2, 218932, Note_on_c, 0, 77, 70
2, 219064, Note_on_c, 0, 72, 0
2, 219073, Note_on_c, 0, 72, 71
2, 219194, Note_on_c, 0, 65, 0
2, 219202, Note_on_c, 0, 79, 0
2, 219205, Note_on_c, 0, 65, 57
2, 219210, Note_on_c, 0, 79, 71
2, 219463, Note_on_c, 0, 77, 0
2, 219474, Note_on_c, 0, 77, 69
2, 219586, Note_on_c, 0, 72, 0
2, 219597, Note_on_c, 0, 72, 72
2, 219705, Note_on_c, 0, 70, 0
2, 219705, Note_on_c, 0, 79, 0
2, 219706, Control_c, 0, 64, 0
2, 219706, Note_on_c, 0, 65, 0
2, 219709, Note_on_c, 0, 75, 0
2, 219724, Note_on_c, 0, 67, 0
2, 219729, Note_on_c, 0, 43, 64
2, 219786, Control_c, 0, 64, 127
2, 219878, Note_on_c, 0, 77, 0
2, 219882, Note_on_c, 0, 77, 66
2, 220017, Note_on_c, 0, 75, 68
2, 220018, Note_on_c, 0, 65, 59
2, 220138, Note_on_c, 0, 70, 60
2, 220270, Note_on_c, 0, 77, 0
2, 220277, Note_on_c, 0, 63, 61
2, 220278, Note_on_c, 0, 77, 71
2, 220531, Note_on_c, 0, 75, 0
2, 220536, Note_on_c, 0, 75, 66
2, 220538, Note_on_c, 0, 70, 0
2, 220549, Note_on_c, 0, 70, 61
2, 220557, Note_on_c, 0, 67, 32
2, 220561, Note_on_c, 0, 67, 0
2, 220669, Note_on_c, 0, 70, 0
2, 220677, Note_on_c, 0, 70, 65
2, 220884, Note_on_c, 0, 77, 0
2, 220895, Note_on_c, 0, 77, 39
2, 220953, Note_on_c, 0, 77, 0
2, 220957, Note_on_c, 0, 77, 48
2, 221091, Note_on_c, 0, 75, 0
2, 221097, Note_on_c, 0, 75, 47
2, 221184, Note_on_c, 0, 70, 0
2, 221192, Note_on_c, 0, 70, 51
2, 221322, Note_on_c, 0, 77, 0
2, 221331, Note_on_c, 0, 60, 82
2, 221333, Note_on_c, 0, 77, 77
2, 221583, Note_on_c, 0, 63, 0
2, 221583, Note_on_c, 0, 75, 0
2, 221590, Note_on_c, 0, 63, 72
2, 221594, Note_on_c, 0, 75, 71
2, 221736, Note_on_c, 0, 70, 0
2, 221742, Note_on_c, 0, 70, 71
2, 221832, Control_c, 0, 64, 0
2, 221832, Note_on_c, 0, 60, 0
2, 221832, Note_on_c, 0, 77, 0
2, 221832, Note_on_c, 0, 63, 0
2, 221833, Note_on_c, 0, 72, 0
2, 221835, Note_on_c, 0, 43, 0
2, 221859, Note_on_c, 0, 65, 0
2, 221859, Note_on_c, 0, 75, 0
2, 221866, Note_on_c, 0, 44, 73
2, 221866, Note_on_c, 0, 65, 80
2, 221928, Note_on_c, 0, 70, 0
2, 221928, Control_c, 0, 64, 127
2, 221998, Note_on_c, 0, 79, 72
2, 222147, Note_on_c, 0, 77, 69
2, 222272, Note_on_c, 0, 72, 68
2, 222382, Note_on_c, 0, 65, 0
2, 222391, Note_on_c, 0, 65, 84
2, 222405, Note_on_c, 0, 79, 0
2, 222412, Note_on_c, 0, 44, 0
2, 222415, Note_on_c, 0, 79, 75
2, 222658, Note_on_c, 0, 77, 0
2, 222664, Note_on_c, 0, 67, 76
2, 222668, Note_on_c, 0, 77, 69
2, 222796, Note_on_c, 0, 72, 0
2, 222801, Note_on_c, 0, 72, 71
2, 222931, Note_on_c, 0, 63, 78
2, 223073, Note_on_c, 0, 79, 0
2, 223078, Note_on_c, 0, 79, 65
2, 223211, Note_on_c, 0, 77, 0
2, 223221, Note_on_c, 0, 77, 65
2, 223342, Note_on_c, 0, 72, 0
2, 223352, Note_on_c, 0, 72, 63
2, 223468, Note_on_c, 0, 60, 86
2, 223480, Note_on_c, 0, 79, 0
2, 223486, Note_on_c, 0, 79, 73
2, 223726, Note_on_c, 0, 63, 0
2, 223732, Note_on_c, 0, 63, 77
2, 223733, Note_on_c, 0, 77, 0
2, 223739, Note_on_c, 0, 77, 67
2, 223887, Note_on_c, 0, 72, 0
2, 223891, Note_on_c, 0, 72, 71
2, 223979, Note_on_c, 0, 67, 0
2, 223981, Note_on_c, 0, 79, 0
2, 223981, Note_on_c, 0, 63, 0
2, 223981, Control_c, 0, 64, 0
2, 223981, Note_on_c, 0, 60, 0
2, 223981, Note_on_c, 0, 72, 0
2, 224002, Note_on_c, 0, 65, 0
2, 224010, Note_on_c, 0, 43, 73
2, 224010, Note_on_c, 0, 31, 67
2, 224012, Note_on_c, 0, 65, 80
2, 224017, Note_on_c, 0, 31, 0
2, 224079, Control_c, 0, 64, 127
2, 224148, Note_on_c, 0, 77, 0
2, 224158, Note_on_c, 0, 77, 72
2, 224287, Note_on_c, 0, 75, 71
2, 224420, Note_on_c, 0, 70, 60
2, 224540, Note_on_c, 0, 65, 0
2, 224540, Note_on_c, 0, 77, 0
2, 224544, Note_on_c, 0, 65, 86
2, 224550, Note_on_c, 0, 77, 75
2, 224785, Note_on_c, 0, 70, 0
2, 224796, Note_on_c, 0, 70, 82
2, 224808, Note_on_c, 0, 75, 0
2, 224820, Note_on_c, 0, 75, 72
2, 224962, Note_on_c, 0, 70, 0
2, 224968, Note_on_c, 0, 70, 67
2, 225074, Note_on_c, 0, 67, 80
2, 225216, Note_on_c, 0, 77, 0
2, 225222, Note_on_c, 0, 77, 62
2, 225354, Note_on_c, 0, 75, 0
2, 225362, Note_on_c, 0, 75, 66
2, 225484, Note_on_c, 0, 70, 0
2, 225488, Note_on_c, 0, 70, 55
2, 225615, Note_on_c, 0, 67, 0
2, 225623, Note_on_c, 0, 77, 0
2, 225623, Note_on_c, 0, 67, 88
2, 225627, Note_on_c, 0, 77, 77
2, 225853, Note_on_c, 0, 70, 0
2, 225863, Note_on_c, 0, 70, 76
2, 225899, Note_on_c, 0, 75, 0
2, 225904, Note_on_c, 0, 75, 74
2, 226030, Note_on_c, 0, 70, 0
2, 226041, Note_on_c, 0, 70, 66
2, 226126, Note_on_c, 0, 65, 0
2, 226126, Note_on_c, 0, 67, 0
2, 226126, Note_on_c, 0, 70, 0
2, 226127, Note_on_c, 0, 75, 0
2, 226127, Note_on_c, 0, 77, 0
2, 226128, Control_c, 0, 64, 0
2, 226137, Note_on_c, 0, 43, 0
2, 226164, Note_on_c, 0, 72, 93
2, 226166, Note_on_c, 0, 41, 70
2, 226167, Note_on_c, 0, 29, 71
2, 226191, Note_on_c, 0, 29, 0
2, 226214, Control_c, 0, 64, 127
2, 226294, Note_on_c, 0, 79, 74
2, 226421, Note_on_c, 0, 72, 0
2, 226431, Note_on_c, 0, 72, 83
2, 226435, Note_on_c, 0, 77, 75
2, 226560, Note_on_c, 0, 72, 0
2, 226571, Note_on_c, 0, 72, 80
2, 226682, Note_on_c, 0, 72, 0
2, 226692, Note_on_c, 0, 72, 88
2, 226698, Note_on_c, 0, 79, 0
2, 226699, Note_on_c, 0, 68, 79
2, 226702, Note_on_c, 0, 65, 59
2, 226709, Note_on_c, 0, 79, 74
2, 226951, Note_on_c, 0, 77, 0
2, 226955, Note_on_c, 0, 75, 87
2, 226960, Note_on_c, 0, 77, 64
2, 227089, Note_on_c, 0, 72, 0
2, 227100, Note_on_c, 0, 72, 67
2, 227235, Note_on_c, 0, 74, 94
2, 227351, Note_on_c, 0, 79, 0
2, 227358, Note_on_c, 0, 79, 63
2, 227481, Note_on_c, 0, 72, 0
2, 227481, Note_on_c, 0, 77, 0
2, 227487, Note_on_c, 0, 72, 90
2, 227492, Note_on_c, 0, 77, 80
2, 227642, Note_on_c, 0, 72, 0
2, 227648, Note_on_c, 0, 72, 60
2, 227760, Note_on_c, 0, 70, 93
2, 227781, Note_on_c, 0, 79, 0
2, 227788, Note_on_c, 0, 79, 69
2, 228003, Note_on_c, 0, 68, 0
2, 228009, Note_on_c, 0, 68, 84
2, 228011, Note_on_c, 0, 77, 0
2, 228017, Note_on_c, 0, 77, 76
2, 228149, Note_on_c, 0, 72, 0
2, 228156, Note_on_c, 0, 72, 68
2, 228282, Note_on_c, 0, 70, 0
2, 228282, Note_on_c, 0, 68, 0
2, 228283, Note_on_c, 0, 79, 0
2, 228283, Control_c, 0, 64, 0
2, 228283, Note_on_c, 0, 75, 0
2, 228283, Note_on_c, 0, 72, 0
2, 228283, Note_on_c, 0, 77, 0
2, 228283, Note_on_c, 0, 41, 0
2, 228284, Note_on_c, 0, 74, 0
2, 228284, Note_on_c, 0, 65, 0
2, 228296, Note_on_c, 0, 67, 81
2, 228302, Note_on_c, 0, 55, 79
2, 228307, Note_on_c, 0, 43, 71
2, 228410, Note_on_c, 0, 67, 0
2, 228410, Control_c, 0, 64, 127
2, 228483, Note_on_c, 0, 81, 53
2, 228587, Note_on_c, 0, 77, 67
2, 228712, Note_on_c, 0, 72, 68
2, 228816, Note_on_c, 0, 65, 84
2, 228817, Note_on_c, 0, 77, 0
2, 228828, Note_on_c, 0, 77, 68
2, 228852, Note_on_c, 0, 79, 75
2, 229086, Note_on_c, 0, 77, 0
2, 229090, Note_on_c, 0, 77, 69
2, 229091, Note_on_c, 0, 60, 69
2, 229224, Note_on_c, 0, 72, 0
2, 229231, Note_on_c, 0, 72, 62
2, 229369, Note_on_c, 0, 67, 83
2, 229501, Note_on_c, 0, 79, 0
2, 229511, Note_on_c, 0, 79, 64
2, 229639, Note_on_c, 0, 77, 0
2, 229650, Note_on_c, 0, 77, 68
2, 229747, Note_on_c, 0, 72, 0
2, 229751, Note_on_c, 0, 72, 65
2, 229893, Note_on_c, 0, 60, 0
2, 229902, Note_on_c, 0, 60, 78
2, 229908, Note_on_c, 0, 79, 0
2, 229912, Note_on_c, 0, 79, 75
2, 230154, Note_on_c, 0, 77, 0
2, 230157, Note_on_c, 0, 63, 76
2, 230158, Note_on_c, 0, 77, 71
2, 230292, Note_on_c, 0, 72, 0
2, 230298, Note_on_c, 0, 72, 77
2, 230396, Note_on_c, 0, 55, 0
2, 230396, Note_on_c, 0, 67, 0
2, 230397, Note_on_c, 0, 60, 0
2, 230397, Note_on_c, 0, 79, 0
2, 230397, Note_on_c, 0, 63, 0
2, 230397, Note_on_c, 0, 77, 0
2, 230398, Note_on_c, 0, 72, 0
2, 230398, Control_c, 0, 64, 0
2, 230404, Note_on_c, 0, 43, 0
2, 230407, Note_on_c, 0, 81, 0
2, 230423, Note_on_c, 0, 65, 0
2, 230426, Note_on_c, 0, 44, 81
2, 230428, Note_on_c, 0, 65, 83
2, 230441, Note_on_c, 0, 72, 65
2, 230484, Control_c, 0, 64, 127
2, 230572, Note_on_c, 0, 77, 72
2, 230712, Note_on_c, 0, 75, 66
2, 230830, Note_on_c, 0, 72, 0
2, 230834, Note_on_c, 0, 72, 67
2, 230952, Note_on_c, 0, 65, 0
2, 230960, Note_on_c, 0, 72, 0
2, 230962, Note_on_c, 0, 65, 79
2, 230967, Note_on_c, 0, 60, 77
2, 230969, Note_on_c, 0, 56, 75
2, 230971, Note_on_c, 0, 72, 75
2, 230990, Note_on_c, 0, 79, 71
2, 231075, Note_on_c, 0, 72, 0
2, 231079, Note_on_c, 0, 72, 50
2, 231175, Note_on_c, 0, 77, 0
2, 231180, Note_on_c, 0, 77, 62
2, 231248, Note_on_c, 0, 67, 77
2, 231367, Note_on_c, 0, 72, 0
2, 231372, Note_on_c, 0, 72, 70
2, 231505, Note_on_c, 0, 63, 83
2, 231536, Note_on_c, 0, 72, 0
2, 231547, Note_on_c, 0, 72, 47
2, 231644, Note_on_c, 0, 79, 0
2, 231653, Note_on_c, 0, 79, 67
2, 231774, Note_on_c, 0, 77, 0
2, 231782, Note_on_c, 0, 77, 60
2, 231882, Note_on_c, 0, 56, 0
2, 231889, Note_on_c, 0, 72, 0
2, 231891, Note_on_c, 0, 56, 72
2, 231901, Note_on_c, 0, 72, 69
2, 232005, Note_on_c, 0, 60, 0
2, 232010, Note_on_c, 0, 60, 85
2, 232035, Note_on_c, 0, 72, 0
2, 232035, Note_on_c, 0, 79, 0
2, 232041, Note_on_c, 0, 72, 68
2, 232042, Note_on_c, 0, 79, 69
2, 232266, Note_on_c, 0, 63, 0
2, 232266, Note_on_c, 0, 77, 0
2, 232270, Note_on_c, 0, 63, 79
2, 232276, Note_on_c, 0, 77, 66
2, 232404, Note_on_c, 0, 72, 0
2, 232413, Note_on_c, 0, 72, 71
2, 232513, Note_on_c, 0, 67, 0
2, 232513, Note_on_c, 0, 75, 0
2, 232513, Note_on_c, 0, 63, 0
2, 232513, Note_on_c, 0, 79, 0
2, 232513, Note_on_c, 0, 56, 0
2, 232513, Note_on_c, 0, 77, 0
2, 232514, Note_on_c, 0, 72, 0
2, 232514, Control_c, 0, 64, 0
2, 232527, Note_on_c, 0, 44, 0
2, 232527, Note_on_c, 0, 60, 0
2, 232527, Note_on_c, 0, 65, 0
2, 232536, Note_on_c, 0, 43, 80
2, 232536, Note_on_c, 0, 31, 73
2, 232538, Note_on_c, 0, 65, 81
2, 232542, Note_on_c, 0, 31, 0
2, 232627, Control_c, 0, 64, 127
2, 232680, Note_on_c, 0, 77, 76
2, 232811, Note_on_c, 0, 75, 69
2, 232938, Note_on_c, 0, 70, 66
2, 233041, Note_on_c, 0, 65, 0
2, 233046, Note_on_c, 0, 65, 75
2, 233049, Note_on_c, 0, 77, 0
2, 233054, Note_on_c, 0, 63, 64
2, 233057, Note_on_c, 0, 77, 80
2, 233059, Note_on_c, 0, 55, 70
2, 233060, Note_on_c, 0, 58, 67
2, 233310, Note_on_c, 0, 70, 0
2, 233319, Note_on_c, 0, 70, 81
2, 233333, Note_on_c, 0, 75, 0
2, 233343, Note_on_c, 0, 75, 75
2, 233464, Note_on_c, 0, 70, 0
2, 233472, Note_on_c, 0, 70, 70
2, 233601, Note_on_c, 0, 67, 84
2, 233725, Note_on_c, 0, 77, 0
2, 233735, Note_on_c, 0, 77, 69
2, 233863, Note_on_c, 0, 75, 0
2, 233873, Note_on_c, 0, 75, 70
2, 234017, Note_on_c, 0, 70, 0
2, 234021, Note_on_c, 0, 70, 52
2, 234124, Note_on_c, 0, 67, 0
2, 234132, Note_on_c, 0, 58, 0
2, 234132, Note_on_c, 0, 63, 0
2, 234132, Note_on_c, 0, 77, 0
2, 234135, Note_on_c, 0, 67, 87
2, 234137, Note_on_c, 0, 63, 82
2, 234139, Note_on_c, 0, 77, 79
2, 234142, Note_on_c, 0, 58, 63
2, 234370, Note_on_c, 0, 70, 0
2, 234376, Note_on_c, 0, 70, 77
2, 234401, Note_on_c, 0, 75, 0
2, 234408, Note_on_c, 0, 75, 75
2, 234531, Note_on_c, 0, 70, 0
2, 234536, Note_on_c, 0, 70, 57
2, 234629, Note_on_c, 0, 58, 0
2, 234630, Note_on_c, 0, 67, 0
2, 234630, Note_on_c, 0, 65, 0
2, 234630, Note_on_c, 0, 55, 0
2, 234630, Note_on_c, 0, 70, 0
2, 234631, Note_on_c, 0, 63, 0
2, 234632, Note_on_c, 0, 77, 0
2, 234633, Note_on_c, 0, 75, 0
2, 234634, Control_c, 0, 64, 0
2, 234639, Note_on_c, 0, 43, 0
2, 234661, Note_on_c, 0, 56, 74
2, 234664, Note_on_c, 0, 41, 75
2, 234664, Note_on_c, 0, 72, 92
2, 234666, Note_on_c, 0, 48, 67
2, 234731, Control_c, 0, 64, 127
2, 234813, Note_on_c, 0, 79, 65
2, 234931, Note_on_c, 0, 72, 0
2, 234935, Note_on_c, 0, 72, 77
2, 234958, Note_on_c, 0, 77, 71
2, 235107, Note_on_c, 0, 72, 0
2, 235119, Note_on_c, 0, 72, 56
2, 235192, Note_on_c, 0, 72, 0
2, 235200, Note_on_c, 0, 56, 0
2, 235203, Note_on_c, 0, 72, 96
2, 235204, Note_on_c, 0, 65, 76
2, 235205, Note_on_c, 0, 68, 85
2, 235210, Note_on_c, 0, 56, 64
2, 235230, Note_on_c, 0, 79, 0
2, 235236, Note_on_c, 0, 79, 64
2, 235465, Note_on_c, 0, 75, 91
2, 235484, Note_on_c, 0, 77, 0
2, 235490, Note_on_c, 0, 77, 72
2, 235614, Note_on_c, 0, 72, 0
2, 235625, Note_on_c, 0, 72, 81
2, 235694, Note_on_c, 0, 48, 0
2, 235694, Note_on_c, 0, 79, 0
2, 235694, Note_on_c, 0, 68, 0
2, 235694, Note_on_c, 0, 56, 0
2, 235694, Note_on_c, 0, 41, 0
2, 235695, Note_on_c, 0, 72, 0
2, 235695, Note_on_c, 0, 77, 0
2, 235695, Note_on_c, 0, 65, 0
2, 235695, Note_on_c, 0, 75, 0
2, 235701, Control_c, 0, 64, 0
2, 235742, Note_on_c, 0, 43, 74
2, 235744, Note_on_c, 0, 74, 92
2, 235747, Note_on_c, 0, 55, 74
2, 235822, Control_c, 0, 64, 127
2, 235893, Note_on_c, 0, 79, 77
2, 235995, Note_on_c, 0, 72, 94
2, 236025, Note_on_c, 0, 77, 77
2, 236144, Note_on_c, 0, 72, 0
2, 236155, Note_on_c, 0, 72, 73
2, 236265, Note_on_c, 0, 67, 85
2, 236275, Note_on_c, 0, 79, 0
2, 236285, Note_on_c, 0, 79, 76
2, 236513, Note_on_c, 0, 77, 0
2, 236523, Note_on_c, 0, 77, 75
2, 236532, Note_on_c, 0, 60, 80
2, 236666, Note_on_c, 0, 72, 0
2, 236675, Note_on_c, 0, 72, 68
2, 236805, Note_on_c, 0, 55, 0
2, 236808, Note_on_c, 0, 63, 77
2, 236809, Note_on_c, 0, 55, 71
2, 236829, Note_on_c, 0, 48, 56
2, 236834, Control_c, 0, 64, 0
2, 236834, Note_on_c, 0, 74, 0
2, 236835, Note_on_c, 0, 67, 0
2, 236835, Note_on_c, 0, 43, 0
2, 236836, Note_on_c, 0, 72, 0
2, 236836, Note_on_c, 0, 79, 0
2, 236837, Note_on_c, 0, 60, 0
2, 236837, Note_on_c, 0, 77, 0
2, 236986, Note_on_c, 0, 79, 61
2, 237027, Control_c, 0, 64, 127
2, 237103, Note_on_c, 0, 77, 62
2, 237224, Note_on_c, 0, 72, 62
2, 237365, Note_on_c, 0, 63, 0
2, 237374, Note_on_c, 0, 63, 50
2, 237381, Note_on_c, 0, 79, 0
2, 237392, Note_on_c, 0, 79, 63
2, 237603, Note_on_c, 0, 77, 0
2, 237612, Note_on_c, 0, 77, 66
2, 237749, Note_on_c, 0, 72, 0
2, 237758, Note_on_c, 0, 72, 65
2, 238003, Note_on_c, 0, 55, 0
2, 238008, Note_on_c, 0, 55, 62
2, 238121, Note_on_c, 0, 60, 58
2, 238239, Note_on_c, 0, 62, 57
2, 238364, Note_on_c, 0, 72, 0
2, 238368, Note_on_c, 0, 67, 77
2, 238369, Note_on_c, 0, 72, 91
2, 238371, Note_on_c, 0, 75, 67
2, 238625, Note_on_c, 0, 48, 0
2, 238625, Note_on_c, 0, 75, 0
2, 238629, Note_on_c, 0, 48, 59
2, 238631, Note_on_c, 0, 75, 94
2, 238881, Note_on_c, 0, 48, 0
2, 238881, Note_on_c, 0, 60, 0
2, 238881, Note_on_c, 0, 67, 0
2, 238881, Note_on_c, 0, 63, 0
2, 238881, Note_on_c, 0, 62, 0
2, 238882, Note_on_c, 0, 72, 0
2, 238882, Note_on_c, 0, 75, 0
2, 238882, Note_on_c, 0, 55, 0
2, 238882, Note_on_c, 0, 79, 0
2, 238882, Control_c, 0, 64, 0
2, 238894, Note_on_c, 0, 77, 0
2, 238898, Note_on_c, 0, 77, 91
2, 238914, Note_on_c, 0, 44, 72
2, 238993, Control_c, 0, 64, 127
2, 239038, Note_on_c, 0, 67, 66
2, 239164, Note_on_c, 0, 65, 69
2, 239294, Note_on_c, 0, 56, 67
2, 239431, Note_on_c, 0, 67, 0
2, 239431, Note_on_c, 0, 77, 0
2, 239436, Note_on_c, 0, 77, 88
2, 239439, Note_on_c, 0, 72, 81
2, 239441, Note_on_c, 0, 67, 72
2, 239685, Note_on_c, 0, 65, 0
2, 239695, Note_on_c, 0, 65, 65
2, 239696, Note_on_c, 0, 79, 84
2, 239830, Note_on_c, 0, 60, 66
2, 239971, Note_on_c, 0, 75, 96
2, 240000, Note_on_c, 0, 44, 0
2, 240092, Note_on_c, 0, 67, 0
2, 240100, Note_on_c, 0, 67, 62
2, 240238, Note_on_c, 0, 65, 0
2, 240248, Note_on_c, 0, 65, 68
2, 240376, Note_on_c, 0, 60, 0
2, 240385, Note_on_c, 0, 60, 67
2, 240483, Note_on_c, 0, 72, 0
2, 240492, Note_on_c, 0, 72, 94
2, 240506, Note_on_c, 0, 67, 0
2, 240511, Note_on_c, 0, 67, 75
2, 240752, Note_on_c, 0, 65, 0
2, 240752, Note_on_c, 0, 75, 0
2, 240760, Note_on_c, 0, 65, 65
2, 240762, Note_on_c, 0, 75, 88
2, 241003, Control_c, 0, 64, 0
2, 241004, Note_on_c, 0, 67, 0
2, 241004, Note_on_c, 0, 60, 0
2, 241004, Note_on_c, 0, 56, 0
2, 241005, Note_on_c, 0, 65, 0
2, 241005, Note_on_c, 0, 72, 0
2, 241005, Note_on_c, 0, 79, 0
2, 241021, Note_on_c, 0, 75, 0
2, 241021, Note_on_c, 0, 77, 0
2, 241024, Note_on_c, 0, 31, 70
2, 241024, Note_on_c, 0, 43, 73
2, 241025, Note_on_c, 0, 77, 91
2, 241029, Note_on_c, 0, 31, 0
2, 241136, Control_c, 0, 64, 127
2, 241169, Note_on_c, 0, 65, 66
2, 241300, Note_on_c, 0, 63, 74
2, 241416, Note_on_c, 0, 58, 69
2, 241543, Note_on_c, 0, 77, 0
2, 241551, Note_on_c, 0, 65, 0
2, 241555, Note_on_c, 0, 77, 89
2, 241556, Note_on_c, 0, 70, 76
2, 241556, Note_on_c, 0, 65, 72
2, 241781, Note_on_c, 0, 63, 0
2, 241789, Note_on_c, 0, 63, 68
2, 241839, Note_on_c, 0, 82, 86
2, 241943, Note_on_c, 0, 58, 0
2, 241947, Note_on_c, 0, 58, 65
2, 242101, Note_on_c, 0, 79, 90
2, 242219, Note_on_c, 0, 65, 0
2, 242228, Note_on_c, 0, 65, 69
2, 242396, Note_on_c, 0, 63, 0
2, 242400, Note_on_c, 0, 63, 66
2, 242488, Note_on_c, 0, 58, 0
2, 242499, Note_on_c, 0, 58, 61
2, 242611, Note_on_c, 0, 79, 0
2, 242616, Note_on_c, 0, 79, 88
2, 242618, Note_on_c, 0, 65, 0
2, 242626, Note_on_c, 0, 65, 77
2, 242638, Note_on_c, 0, 77, 0
2, 242864, Note_on_c, 0, 63, 0
2, 242864, Note_on_c, 0, 82, 0
2, 242869, Note_on_c, 0, 63, 76
2, 242874, Note_on_c, 0, 82, 89
2, 242972, Note_on_c, 0, 58, 0
2, 242976, Note_on_c, 0, 58, 66
2, 243115, Note_on_c, 0, 58, 0
2, 243115, Note_on_c, 0, 79, 0
2, 243116, Note_on_c, 0, 63, 0
2, 243116, Note_on_c, 0, 82, 0
2, 243119, Control_c, 0, 64, 0
2, 243125, Note_on_c, 0, 43, 0
2, 243133, Note_on_c, 0, 65, 0
2, 243141, Note_on_c, 0, 70, 0
2, 243146, Note_on_c, 0, 41, 79
2, 243148, Note_on_c, 0, 84, 94
2, 243158, Note_on_c, 0, 72, 83
2, 243161, Note_on_c, 0, 75, 78
2, 243202, Control_c, 0, 64, 127
2, 243336, Note_on_c, 0, 67, 58
2, 243425, Note_on_c, 0, 84, 0
2, 243436, Note_on_c, 0, 84, 80
2, 243448, Note_on_c, 0, 72, 0
2, 243452, Note_on_c, 0, 65, 57
2, 243453, Note_on_c, 0, 72, 64
2, 243563, Note_on_c, 0, 60, 72
2, 243694, Note_on_c, 0, 72, 0
2, 243694, Note_on_c, 0, 84, 0
2, 243699, Note_on_c, 0, 84, 87
2, 243701, Note_on_c, 0, 67, 0
2, 243701, Note_on_c, 0, 75, 0
2, 243703, Note_on_c, 0, 72, 83
2, 243712, Note_on_c, 0, 75, 78
2, 243712, Note_on_c, 0, 67, 73
2, 243939, Note_on_c, 0, 65, 0
2, 243948, Note_on_c, 0, 65, 61
2, 243980, Note_on_c, 0, 87, 88
2, 243985, Note_on_c, 0, 75, 0
2, 243994, Note_on_c, 0, 75, 69
2, 244093, Note_on_c, 0, 60, 0
2, 244099, Note_on_c, 0, 60, 62
2, 244236, Note_on_c, 0, 86, 89
2, 244249, Note_on_c, 0, 74, 76
2, 244362, Note_on_c, 0, 67, 0
2, 244372, Note_on_c, 0, 67, 63
2, 244477, Note_on_c, 0, 84, 0
2, 244487, Note_on_c, 0, 84, 85
2, 244500, Note_on_c, 0, 65, 0
2, 244500, Note_on_c, 0, 72, 0
2, 244509, Note_on_c, 0, 72, 69
2, 244509, Note_on_c, 0, 65, 65
2, 244631, Note_on_c, 0, 60, 0
2, 244641, Note_on_c, 0, 60, 70
2, 244757, Note_on_c, 0, 82, 90
2, 244769, Note_on_c, 0, 67, 0
2, 244779, Note_on_c, 0, 67, 70
2, 244792, Note_on_c, 0, 72, 0
2, 244800, Note_on_c, 0, 72, 43
2, 245019, Note_on_c, 0, 80, 81
2, 245022, Note_on_c, 0, 65, 0
2, 245022, Note_on_c, 0, 72, 0
2, 245031, Note_on_c, 0, 65, 66
2, 245032, Note_on_c, 0, 72, 56
2, 245114, Note_on_c, 0, 60, 0
2, 245125, Note_on_c, 0, 60, 52
2, 245284, Control_c, 0, 64, 0
2, 245287, Note_on_c, 0, 82, 0
2, 245287, Note_on_c, 0, 86, 0
2, 245287, Note_on_c, 0, 84, 0
2, 245287, Note_on_c, 0, 60, 0
2, 245287, Note_on_c, 0, 65, 0
2, 245287, Note_on_c, 0, 80, 0
2, 245287, Note_on_c, 0, 87, 0
2, 245288, Note_on_c, 0, 75, 0
2, 245295, Note_on_c, 0, 79, 86
2, 245299, Note_on_c, 0, 41, 0
2, 245299, Note_on_c, 0, 67, 0
2, 245299, Note_on_c, 0, 72, 0
2, 245299, Note_on_c, 0, 74, 0
2, 245305, Note_on_c, 0, 72, 65
2, 245309, Note_on_c, 0, 74, 78
2, 245310, Note_on_c, 0, 31, 62
2, 245313, Note_on_c, 0, 43, 68
2, 245322, Note_on_c, 0, 31, 0
2, 245383, Control_c, 0, 64, 127
2, 245428, Note_on_c, 0, 67, 69
2, 245564, Note_on_c, 0, 65, 67
2, 245671, Note_on_c, 0, 60, 72
2, 245806, Note_on_c, 0, 67, 0
2, 245806, Note_on_c, 0, 72, 0
2, 245807, Note_on_c, 0, 77, 92
2, 245810, Note_on_c, 0, 72, 73
2, 245810, Note_on_c, 0, 67, 69
2, 246067, Note_on_c, 0, 65, 0
2, 246067, Note_on_c, 0, 72, 0
2, 246074, Note_on_c, 0, 65, 58
2, 246074, Note_on_c, 0, 67, 0
2, 246078, Note_on_c, 0, 72, 79
2, 246082, Note_on_c, 0, 67, 55
2, 246190, Note_on_c, 0, 60, 0
2, 246199, Note_on_c, 0, 60, 61
2, 246351, Note_on_c, 0, 79, 0
2, 246355, Note_on_c, 0, 79, 88
2, 246359, Note_on_c, 0, 74, 0
2, 246366, Note_on_c, 0, 74, 71
2, 246481, Note_on_c, 0, 67, 0
2, 246492, Note_on_c, 0, 67, 67
2, 246612, Note_on_c, 0, 65, 0
2, 246621, Note_on_c, 0, 65, 68
2, 246712, Note_on_c, 0, 60, 0
2, 246722, Note_on_c, 0, 60, 70
2, 246858, Note_on_c, 0, 72, 0
2, 246865, Note_on_c, 0, 67, 0
2, 246869, Note_on_c, 0, 72, 94
2, 246870, Note_on_c, 0, 67, 81
2, 247014, Note_on_c, 0, 62, 68
2, 247138, Note_on_c, 0, 55, 73
2, 247144, Note_on_c, 0, 75, 91
2, 247203, Note_on_c, 0, 43, 0
2, 247261, Note_on_c, 0, 59, 62
2, 247384, Note_on_c, 0, 62, 0
2, 247384, Note_on_c, 0, 60, 0
2, 247384, Note_on_c, 0, 72, 0
2, 247384, Note_on_c, 0, 74, 0
2, 247385, Note_on_c, 0, 55, 0
2, 247385, Note_on_c, 0, 59, 0
2, 247385, Control_c, 0, 64, 0
2, 247385, Note_on_c, 0, 65, 0
2, 247385, Note_on_c, 0, 79, 0
2, 247386, Note_on_c, 0, 75, 0
2, 247403, Note_on_c, 0, 67, 0
2, 247411, Note_on_c, 0, 77, 0
2, 247415, Note_on_c, 0, 77, 89
2, 247416, Note_on_c, 0, 44, 78
2, 247480, Control_c, 0, 64, 127
2, 247543, Note_on_c, 0, 67, 73
2, 247680, Note_on_c, 0, 65, 65
2, 247791, Note_on_c, 0, 60, 71
2, 247933, Note_on_c, 0, 67, 0
2, 247933, Note_on_c, 0, 77, 0
2, 247938, Note_on_c, 0, 77, 92
2, 247943, Note_on_c, 0, 72, 85
2, 247944, Note_on_c, 0, 67, 78
2, 248209, Note_on_c, 0, 65, 0
2, 248215, Note_on_c, 0, 65, 46
2, 248221, Note_on_c, 0, 79, 77
2, 248332, Note_on_c, 0, 60, 0
2, 248340, Note_on_c, 0, 60, 57
2, 248499, Note_on_c, 0, 75, 88
2, 248624, Note_on_c, 0, 67, 0
2, 248631, Note_on_c, 0, 67, 64
2, 248755, Note_on_c, 0, 65, 0
2, 248766, Note_on_c, 0, 65, 62
2, 248885, Note_on_c, 0, 60, 0
2, 248890, Note_on_c, 0, 60, 65
2, 248985, Note_on_c, 0, 44, 0
2, 249008, Note_on_c, 0, 72, 0
2, 249015, Note_on_c, 0, 72, 95
2, 249031, Note_on_c, 0, 67, 0
2, 249039, Note_on_c, 0, 67, 76
2, 249285, Note_on_c, 0, 65, 0
2, 249285, Note_on_c, 0, 75, 0
2, 249290, Note_on_c, 0, 65, 70
2, 249293, Note_on_c, 0, 75, 92
2, 249384, Note_on_c, 0, 60, 0
2, 249394, Note_on_c, 0, 60, 62
2, 249542, Control_c, 0, 64, 0
2, 249542, Note_on_c, 0, 67, 0
2, 249542, Note_on_c, 0, 72, 0
2, 249543, Note_on_c, 0, 65, 0
2, 249543, Note_on_c, 0, 79, 0
2, 249543, Note_on_c, 0, 75, 0
2, 249553, Note_on_c, 0, 77, 0
2, 249559, Note_on_c, 0, 77, 92
2, 249561, Note_on_c, 0, 60, 0
2, 249568, Note_on_c, 0, 43, 74
2, 249661, Control_c, 0, 64, 127
2, 249704, Note_on_c, 0, 65, 60
2, 249952, Note_on_c, 0, 58, 72
2, 249960, Note_on_c, 0, 43, 0
2, 250068, Note_on_c, 0, 77, 0
2, 250075, Note_on_c, 0, 77, 86
2, 250079, Note_on_c, 0, 70, 81
2, 250083, Note_on_c, 0, 65, 0
2, 250094, Note_on_c, 0, 65, 63
2, 250338, Note_on_c, 0, 63, 60
2, 250345, Note_on_c, 0, 82, 90
2, 250460, Note_on_c, 0, 58, 0
2, 250470, Note_on_c, 0, 58, 66
2, 250632, Note_on_c, 0, 79, 89
2, 250636, Note_on_c, 0, 70, 0
2, 250637, Note_on_c, 0, 67, 63
2, 250641, Note_on_c, 0, 75, 71
2, 250644, Note_on_c, 0, 70, 57
2, 250767, Note_on_c, 0, 65, 0
2, 250773, Note_on_c, 0, 65, 64
2, 250897, Note_on_c, 0, 58, 0
2, 250897, Note_on_c, 0, 63, 0
2, 250907, Note_on_c, 0, 63, 64
2, 250908, Note_on_c, 0, 58, 53
2, 250997, Note_on_c, 0, 58, 0
2, 251009, Note_on_c, 0, 58, 68
2, 251166, Note_on_c, 0, 79, 0
2, 251171, Note_on_c, 0, 79, 92
2, 251174, Note_on_c, 0, 65, 0
2, 251181, Note_on_c, 0, 65, 71
2, 251182, Note_on_c, 0, 67, 0
2, 251190, Note_on_c, 0, 67, 52
2, 251412, Note_on_c, 0, 63, 0
2, 251420, Note_on_c, 0, 75, 0
2, 251420, Note_on_c, 0, 82, 0
2, 251421, Note_on_c, 0, 63, 76
2, 251424, Note_on_c, 0, 82, 90
2, 251425, Note_on_c, 0, 75, 71
2, 251520, Note_on_c, 0, 58, 0
2, 251529, Note_on_c, 0, 58, 63
2, 251639, Note_on_c, 0, 79, 0
2, 251640, Control_c, 0, 64, 0
2, 251641, Note_on_c, 0, 70, 0
2, 251642, Note_on_c, 0, 82, 0
2, 251658, Note_on_c, 0, 58, 0
2, 251658, Note_on_c, 0, 63, 0
2, 251665, Note_on_c, 0, 67, 0
2, 251665, Note_on_c, 0, 77, 0
2, 251673, Note_on_c, 0, 75, 0
2, 251681, Note_on_c, 0, 65, 0
2, 251692, Note_on_c, 0, 41, 80
2, 251692, Note_on_c, 0, 84, 98
2, 251707, Note_on_c, 0, 72, 81
2, 251709, Note_on_c, 0, 80, 77
2, 251715, Note_on_c, 0, 75, 76
2, 251742, Control_c, 0, 64, 127
2, 251781, Note_on_c, 0, 41, 0
2, 251868, Note_on_c, 0, 67, 66
2, 251980, Note_on_c, 0, 84, 0
2, 251985, Note_on_c, 0, 84, 83
2, 251996, Note_on_c, 0, 72, 0
2, 251999, Note_on_c, 0, 65, 57
2, 252007, Note_on_c, 0, 72, 70
2, 252007, Note_on_c, 0, 77, 51
2, 252119, Note_on_c, 0, 60, 66
2, 252234, Note_on_c, 0, 84, 0
2, 252245, Note_on_c, 0, 84, 87
2, 252249, Note_on_c, 0, 67, 0
2, 252249, Note_on_c, 0, 72, 0
2, 252254, Note_on_c, 0, 72, 82
2, 252260, Note_on_c, 0, 67, 75
2, 252487, Note_on_c, 0, 65, 0
2, 252492, Note_on_c, 0, 65, 57
2, 252507, Note_on_c, 0, 87, 87
2, 252510, Note_on_c, 0, 75, 0
2, 252515, Note_on_c, 0, 75, 76
2, 252648, Note_on_c, 0, 77, 0
2, 252651, Note_on_c, 0, 43, 75
2, 252651, Note_on_c, 0, 67, 0
2, 252651, Note_on_c, 0, 80, 0
2, 252652, Note_on_c, 0, 72, 0
2, 252652, Note_on_c, 0, 87, 0
2, 252652, Note_on_c, 0, 65, 0
2, 252652, Note_on_c, 0, 75, 0
2, 252652, Note_on_c, 0, 84, 0
2, 252653, Note_on_c, 0, 60, 0
2, 252655, Control_c, 0, 64, 0
2, 252725, Control_c, 0, 64, 127
2, 252738, Note_on_c, 0, 43, 0
2, 252779, Note_on_c, 0, 86, 90
2, 252789, Note_on_c, 0, 74, 77
2, 252790, Note_on_c, 0, 77, 74
2, 252791, Note_on_c, 0, 82, 74
2, 252908, Note_on_c, 0, 67, 67
2, 253052, Note_on_c, 0, 65, 65
2, 253053, Note_on_c, 0, 84, 86
2, 253061, Note_on_c, 0, 72, 79
2, 253191, Note_on_c, 0, 60, 67
2, 253309, Note_on_c, 0, 67, 0
2, 253317, Note_on_c, 0, 79, 86
2, 253319, Note_on_c, 0, 67, 74
2, 253562, Note_on_c, 0, 65, 0
2, 253562, Note_on_c, 0, 72, 0
2, 253567, Note_on_c, 0, 65, 66
2, 253567, Note_on_c, 0, 72, 86
2, 253678, Note_on_c, 0, 60, 0
2, 253684, Note_on_c, 0, 60, 48
2, 253844, Note_on_c, 0, 75, 89
2, 253847, Note_on_c, 0, 82, 0
2, 253847, Note_on_c, 0, 86, 0
2, 253848, Note_on_c, 0, 84, 0
2, 253849, Note_on_c, 0, 67, 0
2, 253849, Note_on_c, 0, 72, 0
2, 253849, Note_on_c, 0, 79, 0
2, 253850, Note_on_c, 0, 74, 0
2, 253850, Note_on_c, 0, 77, 0
2, 253850, Note_on_c, 0, 65, 0
2, 253850, Note_on_c, 0, 60, 0
2, 253850, Control_c, 0, 64, 0
2, 253858, Note_on_c, 0, 48, 60
2, 253982, Note_on_c, 0, 67, 66
2, 253985, Control_c, 0, 64, 127
2, 254117, Note_on_c, 0, 65, 54
2, 254219, Note_on_c, 0, 60, 57
2, 254361, Note_on_c, 0, 67, 0
2, 254373, Note_on_c, 0, 67, 58
2, 254630, Note_on_c, 0, 65, 0
2, 254639, Note_on_c, 0, 65, 57
2, 254791, Note_on_c, 0, 60, 0
2, 254798, Note_on_c, 0, 60, 46
2, 255052, Note_on_c, 0, 67, 0
2, 255056, Note_on_c, 0, 67, 57
2, 255191, Note_on_c, 0, 65, 0
2, 255195, Note_on_c, 0, 65, 59
2, 255321, Note_on_c, 0, 60, 0
2, 255331, Note_on_c, 0, 60, 51
2, 255467, Note_on_c, 0, 67, 0
2, 255474, Note_on_c, 0, 67, 64
2, 255713, Note_on_c, 0, 75, 0
2, 255721, Note_on_c, 0, 75, 81
2, 255846, Note_on_c, 0, 74, 82
2, 255986, Note_on_c, 0, 46, 72
2, 255987, Note_on_c, 0, 73, 75
2, 255990, Note_on_c, 0, 67, 0
2, 255991, Note_on_c, 0, 74, 0
2, 255991, Control_c, 0, 64, 0
2, 255991, Note_on_c, 0, 60, 0
2, 255991, Note_on_c, 0, 48, 0
2, 255992, Note_on_c, 0, 65, 0
2, 255993, Note_on_c, 0, 75, 0
2, 256089, Control_c, 0, 64, 127
2, 256252, Note_on_c, 0, 80, 86
2, 256253, Note_on_c, 0, 53, 59
2, 256388, Note_on_c, 0, 60, 46
2, 256512, Note_on_c, 0, 80, 0
2, 256516, Note_on_c, 0, 80, 90
2, 256516, Note_on_c, 0, 58, 60
2, 256777, Note_on_c, 0, 68, 72
2, 256788, Note_on_c, 0, 73, 0
2, 256798, Note_on_c, 0, 73, 72
2, 256799, Note_on_c, 0, 61, 62
2, 256800, Note_on_c, 0, 70, 69
2, 256834, Control_c, 0, 64, 0
2, 256919, Control_c, 0, 64, 127
2, 257049, Note_on_c, 0, 80, 0
2, 257053, Note_on_c, 0, 80, 93
2, 257287, Note_on_c, 0, 46, 0
2, 257298, Note_on_c, 0, 46, 72
2, 257556, Note_on_c, 0, 53, 0
2, 257562, Note_on_c, 0, 53, 56
2, 257671, Note_on_c, 0, 60, 0
2, 257681, Note_on_c, 0, 60, 63
2, 257809, Note_on_c, 0, 61, 0
2, 257814, Note_on_c, 0, 61, 60
2, 257948, Note_on_c, 0, 68, 0
2, 257959, Note_on_c, 0, 68, 67
2, 258067, Control_c, 0, 64, 0
2, 258072, Note_on_c, 0, 58, 0
2, 258072, Note_on_c, 0, 80, 0
2, 258073, Note_on_c, 0, 60, 0
2, 258073, Note_on_c, 0, 70, 0
2, 258073, Note_on_c, 0, 61, 0
2, 258074, Note_on_c, 0, 53, 0
2, 258074, Note_on_c, 0, 73, 0
2, 258078, Note_on_c, 0, 46, 0
2, 258089, Note_on_c, 0, 46, 69
2, 258163, Control_c, 0, 64, 127
2, 258343, Note_on_c, 0, 53, 66
2, 258347, Note_on_c, 0, 73, 78
2, 258458, Note_on_c, 0, 60, 64
2, 258593, Note_on_c, 0, 53, 0
2, 258600, Note_on_c, 0, 73, 0
2, 258603, Note_on_c, 0, 53, 60
2, 258610, Note_on_c, 0, 73, 82
2, 258869, Note_on_c, 0, 68, 0
2, 258875, Note_on_c, 0, 80, 92
2, 258877, Note_on_c, 0, 73, 0
2, 258879, Note_on_c, 0, 68, 73
2, 258883, Note_on_c, 0, 73, 66
2, 258897, Note_on_c, 0, 61, 48
2, 259138, Note_on_c, 0, 80, 0
2, 259148, Note_on_c, 0, 80, 95
2, 259161, Note_on_c, 0, 73, 0
2, 259169, Note_on_c, 0, 68, 0
2, 259171, Note_on_c, 0, 73, 66
2, 259178, Note_on_c, 0, 68, 66
2, 259345, Note_on_c, 0, 46, 0
2, 259417, Note_on_c, 0, 46, 69
2, 259530, Note_on_c, 0, 53, 0
2, 259538, Note_on_c, 0, 53, 63
2, 259637, Note_on_c, 0, 60, 0
2, 259644, Note_on_c, 0, 60, 79
2, 259666, Note_on_c, 0, 79, 85
2, 259683, Note_on_c, 0, 73, 0
2, 259694, Note_on_c, 0, 73, 68
2, 259694, Note_on_c, 0, 70, 68
2, 259914, Note_on_c, 0, 61, 0
2, 259921, Note_on_c, 0, 73, 0
2, 259925, Note_on_c, 0, 61, 63
2, 259925, Note_on_c, 0, 77, 82
2, 259932, Note_on_c, 0, 73, 63
2, 260147, Control_c, 0, 64, 0
2, 260147, Note_on_c, 0, 68, 0
2, 260147, Note_on_c, 0, 53, 0
2, 260147, Note_on_c, 0, 61, 0
2, 260148, Note_on_c, 0, 70, 0
2, 260149, Note_on_c, 0, 77, 0
2, 260160, Note_on_c, 0, 60, 0
2, 260160, Note_on_c, 0, 79, 0
2, 260170, Note_on_c, 0, 79, 81
2, 260175, Note_on_c, 0, 46, 0
2, 260175, Note_on_c, 0, 73, 0
2, 260175, Note_on_c, 0, 80, 0
2, 260186, Note_on_c, 0, 73, 75
2, 260192, Note_on_c, 0, 60, 76
2, 260192, Note_on_c, 0, 70, 74
2, 260198, Note_on_c, 0, 48, 73
2, 260259, Control_c, 0, 64, 127
2, 260459, Note_on_c, 0, 80, 82
2, 260471, Note_on_c, 0, 61, 67
2, 260478, Note_on_c, 0, 55, 55
2, 260720, Note_on_c, 0, 79, 0
2, 260728, Note_on_c, 0, 73, 0
2, 260731, Note_on_c, 0, 79, 82
2, 260732, Note_on_c, 0, 63, 71
2, 260736, Note_on_c, 0, 70, 0
2, 260738, Note_on_c, 0, 73, 72
2, 260741, Note_on_c, 0, 70, 69
2, 260987, Note_on_c, 0, 77, 85
2, 261096, Note_on_c, 0, 60, 0
2, 261103, Note_on_c, 0, 60, 63
2, 261250, Note_on_c, 0, 70, 0
2, 261255, Note_on_c, 0, 75, 82
2, 261261, Note_on_c, 0, 70, 74
2, 261268, Note_on_c, 0, 67, 60
2, 261519, Note_on_c, 0, 48, 0
2, 261526, Note_on_c, 0, 48, 65
2, 261550, Note_on_c, 0, 61, 0
2, 261665, Note_on_c, 0, 55, 0
2, 261670, Note_on_c, 0, 55, 69
2, 261676, Note_on_c, 0, 72, 64
2, 261957, Note_on_c, 0, 60, 0
2, 261963, Note_on_c, 0, 60, 74
2, 262064, Note_on_c, 0, 75, 0
2, 262070, Note_on_c, 0, 75, 85
2, 262164, Note_on_c, 0, 48, 0
2, 262174, Note_on_c, 0, 48, 56
2, 262321, Note_on_c, 0, 36, 69
2, 262323, Note_on_c, 0, 82, 93
2, 262579, Note_on_c, 0, 75, 0
2, 262590, Note_on_c, 0, 75, 69
2, 262663, Note_on_c, 0, 48, 0
2, 262668, Note_on_c, 0, 48, 57
2, 262794, Note_on_c, 0, 55, 0
2, 262802, Note_on_c, 0, 55, 72
2, 262843, Note_on_c, 0, 74, 65
2, 262932, Note_on_c, 0, 60, 0
2, 262932, Note_on_c, 0, 72, 0
2, 262936, Note_on_c, 0, 72, 61
2, 262936, Note_on_c, 0, 60, 62
2, 263040, Note_on_c, 0, 63, 0
2, 263040, Note_on_c, 0, 73, 0
2, 263040, Note_on_c, 0, 77, 0
2, 263040, Note_on_c, 0, 80, 0
2, 263093, Note_on_c, 0, 75, 0
2, 263098, Note_on_c, 0, 75, 86
2, 263099, Note_on_c, 0, 62, 56
2, 263339, Note_on_c, 0, 72, 0
2, 263344, Note_on_c, 0, 72, 79
2, 263351, Note_on_c, 0, 94, 99
2, 263601, Note_on_c, 0, 92, 86
2, 263603, Note_on_c, 0, 84, 65
2, 263608, Note_on_c, 0, 75, 0
2, 263612, Note_on_c, 0, 75, 70
2, 263654, Note_on_c, 0, 94, 0
2, 263660, Note_on_c, 0, 94, 91
2, 263746, Note_on_c, 0, 92, 0
2, 263757, Note_on_c, 0, 92, 85
2, 263867, Note_on_c, 0, 91, 93
2, 263869, Note_on_c, 0, 72, 0
2, 263874, Note_on_c, 0, 72, 84
2, 264119, Note_on_c, 0, 89, 93
2, 264130, Note_on_c, 0, 67, 0
2, 264141, Note_on_c, 0, 67, 51
2, 264397, Control_c, 0, 64, 0
2, 264400, Note_on_c, 0, 73, 91
2, 264402, Note_on_c, 0, 46, 81
2, 264403, Note_on_c, 0, 77, 69
2, 264413, Note_on_c, 0, 91, 0
2, 264414, Note_on_c, 0, 84, 0
2, 264415, Note_on_c, 0, 94, 0
2, 264415, Note_on_c, 0, 82, 0
2, 264416, Note_on_c, 0, 62, 0
2, 264417, Note_on_c, 0, 60, 0
2, 264417, Note_on_c, 0, 74, 0
2, 264417, Note_on_c, 0, 55, 0
2, 264417, Note_on_c, 0, 75, 0
2, 264417, Note_on_c, 0, 48, 0
2, 264418, Note_on_c, 0, 89, 0
2, 264422, Note_on_c, 0, 79, 0
2, 264422, Note_on_c, 0, 92, 0
2, 264430, Note_on_c, 0, 36, 0
2, 264430, Note_on_c, 0, 67, 0
2, 264430, Note_on_c, 0, 70, 0
2, 264437, Note_on_c, 0, 72, 0
2, 264476, Control_c, 0, 64, 127
2, 264540, Note_on_c, 0, 53, 69
2, 264671, Note_on_c, 0, 80, 88
2, 264683, Note_on_c, 0, 60, 65
2, 264818, Note_on_c, 0, 58, 68
2, 264929, Note_on_c, 0, 80, 0
2, 264934, Note_on_c, 0, 80, 92
2, 264940, Note_on_c, 0, 72, 54
2, 265190, Note_on_c, 0, 73, 0
2, 265199, Note_on_c, 0, 68, 77
2, 265199, Note_on_c, 0, 61, 75
2, 265200, Note_on_c, 0, 73, 82
2, 265466, Note_on_c, 0, 80, 0
2, 265471, Note_on_c, 0, 80, 91
2, 265489, Note_on_c, 0, 73, 0
2, 265495, Note_on_c, 0, 73, 64
2, 265503, Note_on_c, 0, 70, 63
2, 265666, Control_c, 0, 64, 0
2, 265666, Note_on_c, 0, 68, 0
2, 265666, Note_on_c, 0, 77, 0
2, 265667, Note_on_c, 0, 46, 0
2, 265667, Note_on_c, 0, 58, 0
2, 265668, Note_on_c, 0, 53, 0
2, 265668, Note_on_c, 0, 61, 0
2, 265668, Note_on_c, 0, 60, 0
2, 265681, Note_on_c, 0, 72, 0
2, 265713, Note_on_c, 0, 46, 64
2, 265751, Control_c, 0, 64, 127
2, 265963, Note_on_c, 0, 53, 66
2, 266088, Note_on_c, 0, 46, 0
2, 266097, Note_on_c, 0, 46, 76
2, 266215, Note_on_c, 0, 60, 68
2, 266353, Note_on_c, 0, 68, 76
2, 266368, Note_on_c, 0, 61, 58
2, 266465, Note_on_c, 0, 46, 0
2, 266475, Note_on_c, 0, 46, 79
2, 266479, Control_c, 0, 64, 0
2, 266491, Note_on_c, 0, 60, 0
2, 266495, Note_on_c, 0, 61, 0
2, 266511, Note_on_c, 0, 73, 0
2, 266519, Note_on_c, 0, 53, 0
2, 266526, Note_on_c, 0, 80, 0
2, 266542, Control_c, 0, 64, 127
2, 266727, Note_on_c, 0, 53, 70
2, 266729, Note_on_c, 0, 73, 77
2, 266873, Note_on_c, 0, 60, 68
2, 266880, Note_on_c, 0, 70, 0
2, 267002, Note_on_c, 0, 73, 0
2, 267010, Note_on_c, 0, 53, 0
2, 267011, Note_on_c, 0, 73, 86
2, 267020, Note_on_c, 0, 53, 75
2, 267269, Note_on_c, 0, 80, 95
2, 267274, Note_on_c, 0, 61, 65
2, 267287, Note_on_c, 0, 68, 0
2, 267298, Note_on_c, 0, 68, 57
2, 267540, Note_on_c, 0, 80, 0
2, 267546, Note_on_c, 0, 80, 98
2, 267548, Note_on_c, 0, 73, 0
2, 267555, Note_on_c, 0, 68, 0
2, 267558, Note_on_c, 0, 73, 77
2, 267565, Note_on_c, 0, 68, 79
2, 267801, Note_on_c, 0, 46, 0
2, 267812, Note_on_c, 0, 46, 79
2, 267947, Note_on_c, 0, 53, 0
2, 267956, Note_on_c, 0, 53, 62
2, 268047, Note_on_c, 0, 60, 0
2, 268057, Note_on_c, 0, 60, 83
2, 268069, Note_on_c, 0, 72, 74
2, 268074, Note_on_c, 0, 79, 87
2, 268078, Note_on_c, 0, 72, 0
2, 268323, Note_on_c, 0, 77, 90
2, 268331, Note_on_c, 0, 61, 0
2, 268331, Note_on_c, 0, 73, 0
2, 268336, Note_on_c, 0, 61, 68
2, 268341, Note_on_c, 0, 73, 63
2, 268555, Control_c, 0, 64, 0
2, 268558, Note_on_c, 0, 80, 0
2, 268559, Note_on_c, 0, 68, 0
2, 268561, Note_on_c, 0, 46, 0
2, 268561, Note_on_c, 0, 53, 0
2, 268562, Note_on_c, 0, 61, 0
2, 268564, Note_on_c, 0, 77, 0
2, 268577, Note_on_c, 0, 79, 0
2, 268584, Note_on_c, 0, 60, 0
2, 268584, Note_on_c, 0, 73, 0
2, 268586, Note_on_c, 0, 79, 85
2, 268593, Note_on_c, 0, 73, 83
2, 268593, Note_on_c, 0, 60, 80
2, 268597, Note_on_c, 0, 70, 80
2, 268598, Note_on_c, 0, 48, 73
2, 268603, Note_on_c, 0, 55, 76
2, 268769, Control_c, 0, 64, 127
2, 268838, Note_on_c, 0, 60, 0
2, 268857, Note_on_c, 0, 80, 92
2, 268861, Note_on_c, 0, 61, 75
2, 268938, Note_on_c, 0, 48, 0
2, 269122, Note_on_c, 0, 82, 94
2, 269135, Note_on_c, 0, 63, 77
2, 269137, Note_on_c, 0, 72, 77
2, 269402, Note_on_c, 0, 75, 94
2, 269410, Note_on_c, 0, 48, 54
2, 269414, Note_on_c, 0, 70, 0
2, 269418, Note_on_c, 0, 67, 67
2, 269420, Note_on_c, 0, 70, 74
2, 269527, Note_on_c, 0, 60, 52
2, 269775, Note_on_c, 0, 55, 0
2, 269781, Note_on_c, 0, 55, 70
2, 269898, Note_on_c, 0, 67, 0
2, 269898, Note_on_c, 0, 72, 0
2, 269904, Note_on_c, 0, 72, 86
2, 269909, Note_on_c, 0, 67, 72
2, 270144, Note_on_c, 0, 48, 0
2, 270148, Note_on_c, 0, 48, 62
2, 270428, Note_on_c, 0, 70, 0
2, 270433, Note_on_c, 0, 70, 78
2, 270443, Note_on_c, 0, 67, 0
2, 270454, Note_on_c, 0, 67, 47
2, 270692, Note_on_c, 0, 46, 68
2, 270701, Note_on_c, 0, 63, 0
2, 270702, Note_on_c, 0, 67, 0
2, 270702, Note_on_c, 0, 60, 0
2, 270702, Note_on_c, 0, 61, 0
2, 270702, Note_on_c, 0, 55, 0
2, 270702, Note_on_c, 0, 79, 0
2, 270702, Note_on_c, 0, 72, 0
2, 270702, Note_on_c, 0, 73, 0
2, 270702, Note_on_c, 0, 75, 0
2, 270703, Note_on_c, 0, 80, 0
2, 270703, Note_on_c, 0, 70, 0
2, 270704, Note_on_c, 0, 48, 0
2, 270707, Control_c, 0, 64, 0
2, 270709, Note_on_c, 0, 65, 66
2, 270712, Note_on_c, 0, 82, 0
2, 270715, Note_on_c, 0, 71, 59
2, 270804, Control_c, 0, 64, 127
2, 270942, Note_on_c, 0, 46, 0
2, 270944, Note_on_c, 0, 67, 66
2, 271062, Note_on_c, 0, 53, 58
2, 271188, Note_on_c, 0, 58, 67
2, 271228, Note_on_c, 0, 68, 68
2, 271474, Note_on_c, 0, 55, 66
2, 271476, Note_on_c, 0, 43, 65
2, 271478, Note_on_c, 0, 60, 77
2, 271761, Note_on_c, 0, 84, 92
2, 271767, Note_on_c, 0, 72, 76
2, 271999, Note_on_c, 0, 50, 69
2, 272133, Note_on_c, 0, 55, 0
2, 272137, Note_on_c, 0, 55, 62
2, 272271, Note_on_c, 0, 60, 0
2, 272271, Note_on_c, 0, 72, 0
2, 272275, Note_on_c, 0, 72, 100
2, 272278, Note_on_c, 0, 43, 0
2, 272279, Note_on_c, 0, 67, 0
2, 272279, Note_on_c, 0, 68, 0
2, 272281, Note_on_c, 0, 60, 90
2, 272281, Control_c, 0, 64, 0
2, 272283, Note_on_c, 0, 65, 0
2, 272283, Note_on_c, 0, 53, 0
2, 272283, Note_on_c, 0, 67, 83
2, 272284, Note_on_c, 0, 48, 88
2, 272317, Note_on_c, 0, 71, 0
2, 272332, Note_on_c, 0, 58, 0
2, 272355, Control_c, 0, 64, 127
2, 272538, Note_on_c, 0, 75, 102
2, 272540, Note_on_c, 0, 67, 0
2, 272542, Note_on_c, 0, 46, 87
2, 272544, Note_on_c, 0, 67, 67
2, 272770, Note_on_c, 0, 84, 0
2, 272777, Control_c, 0, 64, 0
2, 272778, Note_on_c, 0, 48, 0
2, 272779, Note_on_c, 0, 72, 0
2, 272779, Note_on_c, 0, 50, 0
2, 272780, Note_on_c, 0, 46, 0
2, 272780, Note_on_c, 0, 67, 0
2, 272780, Note_on_c, 0, 75, 0
2, 272785, Note_on_c, 0, 55, 0
2, 272793, Note_on_c, 0, 60, 0
2, 272812, Note_on_c, 0, 32, 92
2, 272813, Note_on_c, 0, 77, 102
2, 272819, Note_on_c, 0, 72, 95
2, 272820, Note_on_c, 0, 65, 90
2, 272878, Control_c, 0, 64, 127
2, 272939, Note_on_c, 0, 32, 0
2, 273081, Note_on_c, 0, 44, 55
2, 273085, Note_on_c, 0, 44, 0
2, 273191, Note_on_c, 0, 51, 61
2, 273361, Note_on_c, 0, 72, 0
2, 273361, Note_on_c, 0, 77, 0
2, 273367, Note_on_c, 0, 77, 99
2, 273369, Note_on_c, 0, 65, 0
2, 273372, Note_on_c, 0, 72, 89
2, 273372, Note_on_c, 0, 67, 83
2, 273373, Note_on_c, 0, 65, 72
2, 273645, Note_on_c, 0, 79, 93
2, 273753, Note_on_c, 0, 56, 73
2, 273897, Note_on_c, 0, 75, 93
2, 274045, Note_on_c, 0, 56, 0
2, 274049, Note_on_c, 0, 56, 73
2, 274177, Note_on_c, 0, 60, 69
2, 274283, Note_on_c, 0, 56, 0
2, 274289, Note_on_c, 0, 56, 79
2, 274421, Note_on_c, 0, 72, 0
2, 274430, Note_on_c, 0, 72, 95
2, 274437, Note_on_c, 0, 65, 0
2, 274437, Note_on_c, 0, 67, 0
2, 274441, Note_on_c, 0, 65, 77
2, 274443, Note_on_c, 0, 67, 79
2, 274682, Note_on_c, 0, 75, 0
2, 274688, Note_on_c, 0, 75, 92
2, 274855, Note_on_c, 0, 43, 57
2, 274874, Note_on_c, 0, 65, 0
2, 274879, Note_on_c, 0, 65, 70
2, 274920, Note_on_c, 0, 79, 0
2, 274920, Note_on_c, 0, 51, 0
2, 274920, Note_on_c, 0, 72, 0
2, 274921, Note_on_c, 0, 67, 0
2, 274921, Note_on_c, 0, 56, 0
2, 274922, Note_on_c, 0, 60, 0
2, 274923, Control_c, 0, 64, 0
2, 274938, Note_on_c, 0, 70, 80
2, 274948, Note_on_c, 0, 31, 90
2, 274951, Note_on_c, 0, 75, 0
2, 274959, Note_on_c, 0, 65, 0
2, 274959, Note_on_c, 0, 77, 0
2, 274966, Note_on_c, 0, 77, 99
2, 274997, Note_on_c, 0, 31, 0
2, 275005, Control_c, 0, 64, 127
2, 275217, Note_on_c, 0, 55, 71
2, 275332, Note_on_c, 0, 58, 77
2, 275458, Note_on_c, 0, 77, 0
2, 275466, Note_on_c, 0, 70, 0
2, 275469, Note_on_c, 0, 77, 94
2, 275471, Note_on_c, 0, 70, 87
2, 275477, Note_on_c, 0, 63, 87
2, 275477, Note_on_c, 0, 65, 85
2, 275484, Note_on_c, 0, 75, 83
2, 275745, Note_on_c, 0, 82, 90
2, 275857, Note_on_c, 0, 55, 0
2, 275861, Note_on_c, 0, 55, 69
2, 275992, Note_on_c, 0, 79, 93
2, 275996, Note_on_c, 0, 70, 0
2, 276000, Note_on_c, 0, 70, 78
2, 276003, Note_on_c, 0, 75, 0
2, 276007, Note_on_c, 0, 75, 70
2, 276134, Note_on_c, 0, 55, 0
2, 276140, Note_on_c, 0, 55, 76
2, 276264, Note_on_c, 0, 58, 0
2, 276273, Note_on_c, 0, 58, 67
2, 276372, Note_on_c, 0, 55, 0
2, 276379, Note_on_c, 0, 55, 67
2, 276526, Note_on_c, 0, 63, 0
2, 276526, Note_on_c, 0, 65, 0
2, 276526, Note_on_c, 0, 79, 0
2, 276531, Note_on_c, 0, 63, 85
2, 276533, Note_on_c, 0, 75, 0
2, 276535, Note_on_c, 0, 65, 83
2, 276537, Note_on_c, 0, 79, 96
2, 276543, Note_on_c, 0, 75, 78
2, 276549, Note_on_c, 0, 77, 0
2, 276559, Note_on_c, 0, 77, 67
2, 276764, Note_on_c, 0, 58, 0
2, 276771, Note_on_c, 0, 58, 62
2, 276787, Note_on_c, 0, 82, 0
2, 276796, Note_on_c, 0, 82, 96
2, 276817, Note_on_c, 0, 43, 0
2, 276930, Note_on_c, 0, 41, 68
2, 277026, Note_on_c, 0, 79, 0
2, 277026, Note_on_c, 0, 77, 0
2, 277027, Note_on_c, 0, 58, 0
2, 277027, Note_on_c, 0, 65, 0
2, 277027, Note_on_c, 0, 55, 0
2, 277027, Note_on_c, 0, 75, 0
2, 277028, Note_on_c, 0, 63, 0
2, 277028, Note_on_c, 0, 41, 0
2, 277028, Note_on_c, 0, 70, 0
2, 277028, Note_on_c, 0, 82, 0
2, 277029, Control_c, 0, 64, 0
2, 277060, Note_on_c, 0, 84, 99
2, 277066, Note_on_c, 0, 72, 95
2, 277066, Note_on_c, 0, 75, 96
2, 277068, Note_on_c, 0, 80, 86
2, 277109, Control_c, 0, 64, 127
2, 277317, Note_on_c, 0, 84, 0
2, 277324, Note_on_c, 0, 72, 0
2, 277327, Note_on_c, 0, 84, 90
2, 277335, Note_on_c, 0, 72, 64
2, 277335, Note_on_c, 0, 53, 63
2, 277340, Note_on_c, 0, 75, 0
2, 277351, Note_on_c, 0, 75, 61
2, 277466, Note_on_c, 0, 56, 75
2, 277593, Note_on_c, 0, 84, 0
2, 277601, Note_on_c, 0, 72, 0
2, 277601, Note_on_c, 0, 75, 0
2, 277601, Note_on_c, 0, 80, 0
2, 277604, Note_on_c, 0, 84, 97
2, 277604, Note_on_c, 0, 63, 90
2, 277606, Note_on_c, 0, 60, 69
2, 277608, Note_on_c, 0, 75, 90
2, 277609, Note_on_c, 0, 80, 82
2, 277612, Note_on_c, 0, 72, 88
2, 277874, Note_on_c, 0, 87, 93
2, 277877, Note_on_c, 0, 75, 0
2, 277887, Note_on_c, 0, 75, 82
2, 277977, Note_on_c, 0, 53, 0
2, 277982, Note_on_c, 0, 53, 68
2, 278135, Note_on_c, 0, 86, 94
2, 278141, Note_on_c, 0, 74, 86
2, 278143, Note_on_c, 0, 82, 82
2, 278261, Note_on_c, 0, 53, 0
2, 278271, Note_on_c, 0, 53, 71
2, 278392, Note_on_c, 0, 84, 0
2, 278398, Note_on_c, 0, 84, 94
2, 278407, Note_on_c, 0, 56, 0
2, 278407, Note_on_c, 0, 72, 0
2, 278417, Note_on_c, 0, 72, 78
2, 278419, Note_on_c, 0, 56, 63
2, 278515, Note_on_c, 0, 53, 0
2, 278522, Note_on_c, 0, 53, 66
2, 278661, Note_on_c, 0, 60, 0
2, 278661, Note_on_c, 0, 63, 0
2, 278661, Note_on_c, 0, 82, 0
2, 278666, Note_on_c, 0, 63, 84
2, 278671, Note_on_c, 0, 82, 99
2, 278672, Note_on_c, 0, 60, 66
2, 278906, Note_on_c, 0, 56, 0
2, 278906, Note_on_c, 0, 80, 0
2, 278917, Note_on_c, 0, 56, 80
2, 278917, Note_on_c, 0, 80, 92
2, 279120, Note_on_c, 0, 67, 58
2, 279144, Note_on_c, 0, 72, 0
2, 279156, Note_on_c, 0, 72, 84
2, 279166, Control_c, 0, 64, 0
2, 279167, Note_on_c, 0, 84, 0
2, 279168, Note_on_c, 0, 74, 0
2, 279168, Note_on_c, 0, 82, 0
2, 279168, Note_on_c, 0, 86, 0
2, 279168, Note_on_c, 0, 80, 0
2, 279169, Note_on_c, 0, 53, 0
2, 279169, Note_on_c, 0, 56, 0
2, 279169, Note_on_c, 0, 63, 0
2, 279170, Note_on_c, 0, 75, 0
2, 279170, Note_on_c, 0, 87, 0
2, 279174, Note_on_c, 0, 74, 87
2, 279180, Note_on_c, 0, 31, 85
2, 279183, Note_on_c, 0, 60, 0
2, 279186, Note_on_c, 0, 79, 98
2, 279252, Control_c, 0, 64, 127
2, 279437, Note_on_c, 0, 55, 67
2, 279561, Note_on_c, 0, 60, 75
2, 279705, Note_on_c, 0, 67, 0
2, 279705, Note_on_c, 0, 72, 0
2, 279710, Note_on_c, 0, 77, 96
2, 279714, Note_on_c, 0, 62, 76
2, 279716, Note_on_c, 0, 72, 82
2, 279717, Note_on_c, 0, 67, 84
2, 279974, Note_on_c, 0, 55, 0
2, 279974, Note_on_c, 0, 72, 0
2, 279985, Note_on_c, 0, 72, 96
2, 279985, Note_on_c, 0, 55, 58
2, 280081, Note_on_c, 0, 60, 0
2, 280085, Note_on_c, 0, 60, 64
2, 280235, Note_on_c, 0, 72, 0
2, 280235, Note_on_c, 0, 79, 0
2, 280243, Note_on_c, 0, 67, 0
2, 280243, Note_on_c, 0, 74, 0
2, 280243, Note_on_c, 0, 79, 96
2, 280246, Note_on_c, 0, 72, 93
2, 280250, Note_on_c, 0, 67, 86
2, 280250, Note_on_c, 0, 74, 90
2, 280381, Note_on_c, 0, 62, 0
2, 280386, Note_on_c, 0, 62, 74
2, 280496, Note_on_c, 0, 60, 0
2, 280501, Note_on_c, 0, 60, 71
2, 280611, Note_on_c, 0, 55, 0
2, 280621, Note_on_c, 0, 55, 83
2, 280757, Note_on_c, 0, 72, 0
2, 280758, Note_on_c, 0, 50, 86
2, 280761, Note_on_c, 0, 72, 89
2, 280765, Note_on_c, 0, 74, 0
2, 280769, Note_on_c, 0, 74, 76
2, 280901, Note_on_c, 0, 43, 75
2, 281018, Note_on_c, 0, 50, 0
2, 281023, Note_on_c, 0, 50, 57
2, 281028, Note_on_c, 0, 69, 66
2, 281030, Note_on_c, 0, 75, 95
2, 281034, Note_on_c, 0, 69, 0
2, 281252, Note_on_c, 0, 60, 0
2, 281253, Note_on_c, 0, 72, 0
2, 281253, Note_on_c, 0, 50, 0
2, 281253, Note_on_c, 0, 62, 0
2, 281253, Note_on_c, 0, 55, 0
2, 281253, Note_on_c, 0, 79, 0
2, 281253, Note_on_c, 0, 43, 0
2, 281253, Note_on_c, 0, 75, 0
2, 281253, Note_on_c, 0, 74, 0
2, 281255, Control_c, 0, 64, 0
2, 281256, Note_on_c, 0, 31, 0
2, 281264, Note_on_c, 0, 67, 0
2, 281287, Note_on_c, 0, 77, 0
2, 281291, Note_on_c, 0, 77, 102
2, 281300, Note_on_c, 0, 32, 91
2, 281305, Note_on_c, 0, 72, 88
2, 281341, Control_c, 0, 64, 127
2, 281437, Note_on_c, 0, 67, 79
2, 281574, Note_on_c, 0, 65, 75
2, 281677, Note_on_c, 0, 56, 72
2, 281802, Note_on_c, 0, 72, 0
2, 281802, Note_on_c, 0, 77, 0
2, 281809, Note_on_c, 0, 67, 0
2, 281813, Note_on_c, 0, 77, 97
2, 281813, Note_on_c, 0, 72, 96
2, 281815, Note_on_c, 0, 67, 85
2, 282078, Note_on_c, 0, 65, 0
2, 282085, Note_on_c, 0, 65, 68
2, 282090, Note_on_c, 0, 79, 93
2, 282209, Note_on_c, 0, 60, 73
2, 282347, Note_on_c, 0, 75, 98
2, 282347, Note_on_c, 0, 72, 0
2, 282359, Note_on_c, 0, 72, 82
2, 282362, Note_on_c, 0, 67, 0
2, 282370, Note_on_c, 0, 67, 61
2, 282478, Note_on_c, 0, 67, 0
2, 282484, Note_on_c, 0, 67, 77
2, 282600, Note_on_c, 0, 65, 0
2, 282611, Note_on_c, 0, 65, 69
2, 282739, Note_on_c, 0, 56, 0
2, 282743, Note_on_c, 0, 56, 73
2, 282854, Note_on_c, 0, 72, 0
2, 282862, Note_on_c, 0, 67, 0
2, 282865, Note_on_c, 0, 72, 97
2, 282873, Note_on_c, 0, 67, 86
2, 282882, Note_on_c, 0, 79, 0
2, 283130, Note_on_c, 0, 75, 0
2, 283140, Note_on_c, 0, 75, 98
2, 283170, Note_on_c, 0, 62, 34
2, 283176, Note_on_c, 0, 62, 0
2, 283250, Note_on_c, 0, 43, 72
2, 283365, Control_c, 0, 64, 0
2, 283374, Note_on_c, 0, 56, 0
2, 283374, Note_on_c, 0, 67, 0
2, 283379, Note_on_c, 0, 75, 0
2, 283392, Note_on_c, 0, 60, 0
2, 283395, Note_on_c, 0, 31, 84
2, 283399, Note_on_c, 0, 72, 0
2, 283399, Note_on_c, 0, 77, 0
2, 283404, Note_on_c, 0, 77, 97
2, 283407, Note_on_c, 0, 32, 0
2, 283407, Note_on_c, 0, 65, 0
2, 283412, Note_on_c, 0, 65, 77
2, 283417, Note_on_c, 0, 70, 79
2, 283468, Control_c, 0, 64, 127
2, 283568, Note_on_c, 0, 65, 0
2, 283574, Note_on_c, 0, 65, 35
2, 283690, Note_on_c, 0, 63, 65
2, 283803, Note_on_c, 0, 58, 82
2, 283921, Note_on_c, 0, 65, 0
2, 283921, Note_on_c, 0, 77, 0
2, 283929, Note_on_c, 0, 70, 0
2, 283932, Note_on_c, 0, 77, 90
2, 283933, Note_on_c, 0, 65, 77
2, 283934, Note_on_c, 0, 70, 82
2, 283939, Note_on_c, 0, 74, 62
2, 283944, Note_on_c, 0, 74, 0
2, 284206, Note_on_c, 0, 63, 0
2, 284213, Note_on_c, 0, 70, 0
2, 284215, Note_on_c, 0, 82, 95
2, 284215, Note_on_c, 0, 63, 61
2, 284218, Note_on_c, 0, 70, 67
2, 284224, Note_on_c, 0, 75, 66
2, 284336, Note_on_c, 0, 58, 0
2, 284341, Note_on_c, 0, 58, 77
2, 284479, Note_on_c, 0, 79, 95
2, 284482, Note_on_c, 0, 70, 0
2, 284482, Note_on_c, 0, 75, 0
2, 284488, Note_on_c, 0, 67, 78
2, 284492, Note_on_c, 0, 75, 71
2, 284492, Note_on_c, 0, 70, 79
2, 284620, Note_on_c, 0, 65, 0
2, 284629, Note_on_c, 0, 65, 66
2, 284743, Note_on_c, 0, 63, 0
2, 284755, Note_on_c, 0, 63, 67
2, 284858, Note_on_c, 0, 58, 0
2, 284865, Note_on_c, 0, 58, 70
2, 284997, Note_on_c, 0, 79, 0
2, 285004, Note_on_c, 0, 65, 0
2, 285004, Note_on_c, 0, 67, 0
2, 285004, Note_on_c, 0, 75, 0
2, 285007, Note_on_c, 0, 79, 93
2, 285008, Note_on_c, 0, 67, 80
2, 285009, Note_on_c, 0, 65, 76
2, 285011, Note_on_c, 0, 75, 75
2, 285265, Note_on_c, 0, 82, 0
2, 285270, Note_on_c, 0, 82, 98
2, 285281, Note_on_c, 0, 70, 0
2, 285290, Note_on_c, 0, 70, 69
2, 285291, Note_on_c, 0, 58, 0
2, 285409, Note_on_c, 0, 41, 70
2, 285477, Note_on_c, 0, 67, 0
2, 285477, Note_on_c, 0, 65, 0
2, 285478, Note_on_c, 0, 79, 0
2, 285478, Note_on_c, 0, 77, 0
2, 285478, Note_on_c, 0, 70, 0
2, 285478, Note_on_c, 0, 75, 0
2, 285478, Note_on_c, 0, 82, 0
2, 285482, Control_c, 0, 64, 0
2, 285488, Note_on_c, 0, 43, 0
2, 285496, Note_on_c, 0, 31, 0
2, 285496, Note_on_c, 0, 63, 0
2, 285538, Note_on_c, 0, 84, 99
2, 285542, Control_c, 0, 64, 127
2, 285544, Note_on_c, 0, 72, 97
2, 285547, Note_on_c, 0, 80, 85
2, 285548, Note_on_c, 0, 75, 94
2, 285718, Note_on_c, 0, 67, 67
2, 285826, Note_on_c, 0, 72, 0
2, 285826, Note_on_c, 0, 75, 0
2, 285826, Note_on_c, 0, 80, 0
2, 285826, Note_on_c, 0, 84, 0
2, 285829, Note_on_c, 0, 65, 73
2, 285830, Note_on_c, 0, 84, 82
2, 285832, Note_on_c, 0, 72, 75
2, 285833, Note_on_c, 0, 75, 78
2, 285835, Note_on_c, 0, 80, 78
2, 285955, Note_on_c, 0, 60, 72
2, 286072, Note_on_c, 0, 80, 0
2, 286072, Note_on_c, 0, 84, 0
2, 286080, Note_on_c, 0, 67, 0
2, 286080, Note_on_c, 0, 72, 0
2, 286080, Note_on_c, 0, 84, 98
2, 286082, Note_on_c, 0, 80, 84
2, 286084, Note_on_c, 0, 72, 92
2, 286090, Note_on_c, 0, 67, 83
2, 286348, Note_on_c, 0, 75, 0
2, 286351, Note_on_c, 0, 87, 94
2, 286352, Note_on_c, 0, 75, 90
2, 286570, Note_on_c, 0, 41, 0
2, 286570, Note_on_c, 0, 80, 0
2, 286570, Note_on_c, 0, 75, 0
2, 286570, Note_on_c, 0, 84, 0
2, 286571, Control_c, 0, 64, 0
2, 286571, Note_on_c, 0, 87, 0
2, 286571, Note_on_c, 0, 72, 0
2, 286572, Note_on_c, 0, 67, 0
2, 286573, Note_on_c, 0, 60, 0
2, 286586, Note_on_c, 0, 31, 86
2, 286586, Note_on_c, 0, 65, 0
2, 286590, Note_on_c, 0, 43, 80
2, 286594, Note_on_c, 0, 86, 95
2, 286599, Note_on_c, 0, 74, 90
2, 286600, Note_on_c, 0, 77, 86
2, 286600, Note_on_c, 0, 82, 84
2, 286640, Control_c, 0, 64, 127
2, 286874, Note_on_c, 0, 84, 98
2, 286883, Note_on_c, 0, 72, 87
2, 286886, Note_on_c, 0, 77, 0
2, 286896, Note_on_c, 0, 77, 59
2, 286983, Note_on_c, 0, 60, 76
2, 287124, Note_on_c, 0, 72, 0
2, 287131, Note_on_c, 0, 79, 97
2, 287135, Note_on_c, 0, 72, 61
2, 287135, Note_on_c, 0, 67, 81
2, 287264, Note_on_c, 0, 65, 74
2, 287385, Note_on_c, 0, 60, 0
2, 287385, Note_on_c, 0, 72, 0
2, 287389, Note_on_c, 0, 60, 61
2, 287395, Note_on_c, 0, 72, 93
2, 287400, Note_on_c, 0, 67, 0
2, 287408, Note_on_c, 0, 67, 54
2, 287521, Note_on_c, 0, 48, 73
2, 287608, Note_on_c, 0, 31, 0
2, 287647, Control_c, 0, 64, 0
2, 287652, Note_on_c, 0, 36, 83
2, 287654, Note_on_c, 0, 67, 0
2, 287657, Note_on_c, 0, 75, 101
2, 287657, Note_on_c, 0, 82, 0
2, 287658, Note_on_c, 0, 84, 0
2, 287659, Note_on_c, 0, 65, 0
2, 287660, Note_on_c, 0, 60, 0
2, 287660, Note_on_c, 0, 79, 0
2, 287660, Note_on_c, 0, 77, 0
2, 287662, Note_on_c, 0, 74, 0
2, 287663, Note_on_c, 0, 86, 0
2, 287665, Note_on_c, 0, 67, 77
2, 287700, Note_on_c, 0, 43, 0
2, 287723, Control_c, 0, 64, 127
2, 287800, Note_on_c, 0, 67, 0
2, 287804, Note_on_c, 0, 67, 69
2, 287933, Note_on_c, 0, 65, 59
2, 288038, Note_on_c, 0, 48, 0
2, 288049, Note_on_c, 0, 48, 55
2, 288187, Note_on_c, 0, 60, 74
2, 288192, Note_on_c, 0, 67, 0
2, 288201, Note_on_c, 0, 67, 69
2, 288453, Note_on_c, 0, 65, 0
2, 288462, Note_on_c, 0, 65, 60
2, 288592, Note_on_c, 0, 55, 68
2, 288867, Note_on_c, 0, 60, 0
2, 288871, Note_on_c, 0, 60, 57
2, 289031, Note_on_c, 0, 63, 50
2, 289105, Note_on_c, 0, 67, 0
2, 289113, Note_on_c, 0, 67, 53
2, 289259, Note_on_c, 0, 72, 0
2, 289263, Note_on_c, 0, 72, 89
2, 289520, Note_on_c, 0, 55, 0
2, 289520, Note_on_c, 0, 75, 0
2, 289525, Note_on_c, 0, 75, 89
2, 289526, Note_on_c, 0, 55, 53
2, 289704, Note_on_c, 0, 65, 0
2, 289716, Note_on_c, 0, 65, 64
2, 289769, Note_on_c, 0, 68, 61
2, 289774, Note_on_c, 0, 72, 0
2, 289784, Note_on_c, 0, 72, 68
2, 289800, Note_on_c, 0, 77, 98
2, 289802, Note_on_c, 0, 63, 0
2, 289803, Control_c, 0, 64, 0
2, 289803, Note_on_c, 0, 37, 60
2, 289804, Note_on_c, 0, 65, 0
2, 289806, Note_on_c, 0, 67, 0
2, 289808, Note_on_c, 0, 75, 0
2, 289827, Note_on_c, 0, 55, 0
2, 289835, Note_on_c, 0, 48, 0
2, 289838, Note_on_c, 0, 36, 0
2, 289850, Note_on_c, 0, 60, 0
2, 289943, Control_c, 0, 64, 127
2, 290067, Note_on_c, 0, 49, 51
2, 290321, Note_on_c, 0, 53, 59
2, 290602, Note_on_c, 0, 60, 52
2, 290602, Note_on_c, 0, 56, 48
2, 290864, Note_on_c, 0, 77, 0
2, 290872, Note_on_c, 0, 68, 0
2, 290872, Note_on_c, 0, 72, 0
2, 290875, Note_on_c, 0, 77, 81
2, 290880, Note_on_c, 0, 68, 69
2, 290883, Note_on_c, 0, 72, 64
2, 290883, Note_on_c, 0, 65, 56
2, 291433, Note_on_c, 0, 79, 87
2, 291847, Note_on_c, 0, 63, 36
2, 291877, Note_on_c, 0, 67, 66
2, 291928, Note_on_c, 0, 70, 73
2, 291961, Control_c, 0, 64, 0
2, 291967, Note_on_c, 0, 53, 0
2, 291968, Note_on_c, 0, 49, 0
2, 291971, Note_on_c, 0, 75, 88
2, 291974, Note_on_c, 0, 36, 52
2, 292002, Note_on_c, 0, 56, 0
2, 292007, Note_on_c, 0, 77, 0
2, 292008, Note_on_c, 0, 37, 0
2, 292008, Note_on_c, 0, 60, 0
2, 292008, Note_on_c, 0, 65, 0
2, 292016, Note_on_c, 0, 68, 0
2, 292024, Note_on_c, 0, 72, 0
2, 292039, Note_on_c, 0, 79, 0
2, 292147, Control_c, 0, 64, 127
2, 292208, Note_on_c, 0, 36, 0
2, 292241, Note_on_c, 0, 48, 47
2, 292511, Note_on_c, 0, 51, 45
2, 292781, Note_on_c, 0, 58, 50
2, 292790, Note_on_c, 0, 55, 38
2, 293052, Note_on_c, 0, 72, 79
2, 293076, Note_on_c, 0, 63, 0
2, 293076, Note_on_c, 0, 67, 0
2, 293076, Note_on_c, 0, 70, 0
2, 293083, Note_on_c, 0, 70, 46
2, 293083, Note_on_c, 0, 67, 50
2, 293086, Note_on_c, 0, 63, 35
2, 293598, Note_on_c, 0, 75, 0
2, 293606, Note_on_c, 0, 75, 86
2, 294032, Note_on_c, 0, 65, 60
2, 294051, Note_on_c, 0, 70, 0
2, 294060, Note_on_c, 0, 70, 64
2, 294090, Note_on_c, 0, 72, 0
2, 294098, Note_on_c, 0, 72, 73
2, 294117, Control_c, 0, 64, 0
2, 294118, Note_on_c, 0, 51, 0
2, 294118, Note_on_c, 0, 48, 0
2, 294119, Note_on_c, 0, 58, 0
2, 294119, Note_on_c, 0, 55, 0
2, 294121, Note_on_c, 0, 75, 0
2, 294128, Note_on_c, 0, 63, 0
2, 294144, Note_on_c, 0, 67, 0
2, 294155, Note_on_c, 0, 77, 90
2, 294163, Note_on_c, 0, 37, 63
2, 294228, Control_c, 0, 64, 127
2, 294440, Note_on_c, 0, 49, 54
2, 294692, Note_on_c, 0, 53, 49
2, 294968, Note_on_c, 0, 56, 45
2, 294974, Note_on_c, 0, 60, 52
2, 295242, Note_on_c, 0, 77, 0
2, 295247, Note_on_c, 0, 77, 78
2, 295249, Note_on_c, 0, 65, 0
2, 295249, Note_on_c, 0, 70, 0
2, 295249, Note_on_c, 0, 72, 0
2, 295253, Note_on_c, 0, 72, 60
2, 295255, Note_on_c, 0, 65, 65
2, 295257, Note_on_c, 0, 60, 0
2, 295260, Note_on_c, 0, 70, 63
2, 295268, Note_on_c, 0, 60, 48
2, 295790, Note_on_c, 0, 82, 87
2, 296244, Note_on_c, 0, 67, 48
2, 296263, Note_on_c, 0, 70, 0
2, 296275, Note_on_c, 0, 70, 60
2, 296304, Note_on_c, 0, 74, 72
2, 296350, Note_on_c, 0, 75, 74
2, 296355, Note_on_c, 0, 82, 0
2, 296355, Control_c, 0, 64, 0
2, 296358, Note_on_c, 0, 60, 0
2, 296358, Note_on_c, 0, 65, 0
2, 296358, Note_on_c, 0, 53, 0
2, 296358, Note_on_c, 0, 77, 0
2, 296359, Note_on_c, 0, 49, 0
2, 296359, Note_on_c, 0, 56, 0
2, 296360, Note_on_c, 0, 37, 0
2, 296369, Note_on_c, 0, 36, 58
2, 296371, Note_on_c, 0, 72, 0
2, 296372, Note_on_c, 0, 79, 84
2, 296463, Control_c, 0, 64, 127
2, 296517, Note_on_c, 0, 36, 0
2, 296620, Note_on_c, 0, 48, 53
2, 296898, Note_on_c, 0, 55, 48
2, 297185, Note_on_c, 0, 70, 0
2, 297194, Note_on_c, 0, 63, 58
2, 297195, Note_on_c, 0, 58, 46
2, 297196, Note_on_c, 0, 70, 51
2, 298022, Note_on_c, 0, 70, 0
2, 298024, Note_on_c, 0, 62, 44
2, 298027, Note_on_c, 0, 70, 31
2, 298613, Note_on_c, 0, 48, 0
2, 298619, Note_on_c, 0, 48, 52
2, 298874, Note_on_c, 0, 55, 0
2, 298880, Note_on_c, 0, 55, 52
2, 299159, Note_on_c, 0, 58, 0
2, 299164, Note_on_c, 0, 58, 52
2, 299466, Note_on_c, 0, 63, 0
2, 299473, Note_on_c, 0, 55, 0
2, 299477, Note_on_c, 0, 63, 59
2, 299484, Note_on_c, 0, 55, 35
2, 300333, Note_on_c, 0, 65, 47
2, 300848, Note_on_c, 0, 67, 0
2, 300910, Note_on_c, 0, 74, 0
2, 300956, Note_on_c, 0, 48, 0
2, 300956, Note_on_c, 0, 75, 0
2, 300960, Note_on_c, 0, 48, 42
2, 300979, Note_on_c, 0, 79, 0
2, 301217, Note_on_c, 0, 55, 0
2, 301226, Note_on_c, 0, 55, 51
2, 301440, Note_on_c, 0, 62, 0
2, 301440, Note_on_c, 0, 63, 0
2, 301501, Note_on_c, 0, 58, 0
2, 301512, Note_on_c, 0, 58, 38
2, 301516, Note_on_c, 0, 70, 0
2, 301793, Note_on_c, 0, 65, 0
2, 301798, Note_on_c, 0, 65, 43
2, 301807, Note_on_c, 0, 70, 47
2, 301808, Note_on_c, 0, 55, 0
2, 301814, Note_on_c, 0, 62, 39
2, 301815, Note_on_c, 0, 55, 33
2, 302735, Note_on_c, 0, 74, 56
2, 303360, Note_on_c, 0, 62, 0
2, 303370, Note_on_c, 0, 62, 28
2, 305280, Note_on_c, 0, 48, 0
2, 305280, Note_on_c, 0, 55, 0
2, 305280, Note_on_c, 0, 65, 0
2, 305280, Note_on_c, 0, 70, 0
2, 305280, Note_on_c, 0, 74, 0
2, 305665, Note_on_c, 0, 72, 53
2, 306117, Note_on_c, 0, 58, 0
2, 306283, Note_on_c, 0, 67, 43
2, 306347, Note_on_c, 0, 72, 0
2, 306349, Note_on_c, 0, 71, 49
2, 306351, Note_on_c, 0, 53, 46
2, 306356, Note_on_c, 0, 72, 54
2, 306390, Note_on_c, 0, 76, 69
2, 306423, Control_c, 0, 64, 0
2, 306524, Control_c, 0, 64, 127
2, 306577, Note_on_c, 0, 62, 0
2, 306666, Note_on_c, 0, 60, 46
2, 306716, Note_on_c, 0, 67, 0
2, 306947, Note_on_c, 0, 67, 43
2, 307223, Note_on_c, 0, 71, 0
2, 307229, Note_on_c, 0, 74, 66
2, 307229, Note_on_c, 0, 71, 51
2, 308058, Note_on_c, 0, 81, 71
2, 308510, Note_on_c, 0, 69, 41
2, 308536, Note_on_c, 0, 71, 0
2, 308547, Note_on_c, 0, 71, 56
2, 308582, Note_on_c, 0, 76, 0
2, 308593, Note_on_c, 0, 76, 70
2, 308620, Control_c, 0, 64, 0
2, 308621, Note_on_c, 0, 55, 52
2, 308624, Note_on_c, 0, 53, 0
2, 308624, Note_on_c, 0, 81, 0
2, 308625, Note_on_c, 0, 60, 0
2, 308636, Note_on_c, 0, 72, 0
2, 308712, Control_c, 0, 64, 127
2, 308843, Note_on_c, 0, 69, 0
2, 308891, Note_on_c, 0, 62, 51
2, 309120, Note_on_c, 0, 67, 0
2, 309170, Note_on_c, 0, 69, 43
2, 309434, Note_on_c, 0, 74, 0
2, 309446, Note_on_c, 0, 74, 66
2, 309457, Note_on_c, 0, 71, 0
2, 309463, Note_on_c, 0, 71, 47
2, 309471, Note_on_c, 0, 67, 29
2, 310907, Note_on_c, 0, 64, 58
2, 310924, Note_on_c, 0, 67, 0
2, 310933, Note_on_c, 0, 67, 55
2, 310947, Note_on_c, 0, 71, 0
2, 310958, Note_on_c, 0, 71, 59
2, 310977, Control_c, 0, 64, 0
2, 310989, Note_on_c, 0, 62, 0
2, 310991, Note_on_c, 0, 76, 0
2, 311009, Note_on_c, 0, 55, 0
2, 311016, Note_on_c, 0, 74, 0
2, 311017, Note_on_c, 0, 48, 50
2, 311025, Note_on_c, 0, 74, 78
2, 311047, Control_c, 0, 64, 127
2, 311295, Note_on_c, 0, 55, 47
2, 311308, Note_on_c, 0, 69, 0
2, 311566, Note_on_c, 0, 62, 42
2, 311851, Note_on_c, 0, 72, 65
2, 311854, Note_on_c, 0, 64, 0
2, 311855, Note_on_c, 0, 76, 50
2, 311859, Note_on_c, 0, 64, 46
2, 311861, Note_on_c, 0, 76, 0
2, 312620, Note_on_c, 0, 47, 52
2, 312624, Note_on_c, 0, 79, 70
2, 312629, Note_on_c, 0, 71, 0
2, 312634, Note_on_c, 0, 71, 55
2, 312695, Note_on_c, 0, 72, 0
2, 312696, Note_on_c, 0, 48, 0
2, 312697, Note_on_c, 0, 62, 0
2, 312699, Note_on_c, 0, 74, 0
2, 312706, Control_c, 0, 64, 0
2, 312791, Control_c, 0, 64, 127
2, 313090, Note_on_c, 0, 55, 0
2, 313090, Note_on_c, 0, 64, 0
2, 313099, Note_on_c, 0, 64, 56
2, 313100, Note_on_c, 0, 55, 37
2, 313121, Note_on_c, 0, 67, 0
2, 313126, Note_on_c, 0, 67, 51
2, 313128, Note_on_c, 0, 71, 0
2, 313137, Note_on_c, 0, 71, 58
2, 313200, Note_on_c, 0, 74, 81
2, 313203, Note_on_c, 0, 45, 58
2, 313244, Control_c, 0, 64, 0
2, 313246, Note_on_c, 0, 47, 0
2, 313248, Note_on_c, 0, 79, 0
2, 313344, Control_c, 0, 64, 127
2, 313478, Note_on_c, 0, 52, 52
2, 314022, Note_on_c, 0, 72, 71
2, 314027, Note_on_c, 0, 64, 0
2, 314027, Note_on_c, 0, 67, 0
2, 314032, Note_on_c, 0, 60, 48
2, 314033, Note_on_c, 0, 64, 53
2, 314036, Note_on_c, 0, 67, 56
2, 314872, Note_on_c, 0, 71, 0
2, 314882, Note_on_c, 0, 43, 50
2, 314882, Note_on_c, 0, 71, 68
2, 314907, Note_on_c, 0, 62, 44
2, 314910, Note_on_c, 0, 55, 0
2, 314914, Note_on_c, 0, 55, 31
2, 315375, Note_on_c, 0, 48, 41
2, 315375, Note_on_c, 0, 41, 43
2, 315440, Note_on_c, 0, 60, 0
2, 315449, Note_on_c, 0, 60, 52
2, 315456, Note_on_c, 0, 57, 58
2, 315459, Note_on_c, 0, 69, 68
2, 315484, Note_on_c, 0, 72, 0
2, 315486, Note_on_c, 0, 74, 0
2, 315487, Note_on_c, 0, 62, 0
2, 315488, Note_on_c, 0, 45, 0
2, 315488, Note_on_c, 0, 64, 0
2, 315488, Note_on_c, 0, 67, 0
2, 315489, Note_on_c, 0, 71, 0
2, 315489, Note_on_c, 0, 52, 0
2, 315489, Note_on_c, 0, 43, 0
2, 315491, Control_c, 0, 64, 0
2, 315509, Note_on_c, 0, 55, 0
2, 315617, Control_c, 0, 64, 127
2, 315773, Note_on_c, 0, 64, 56
2, 316024, Note_on_c, 0, 64, 0
2, 316034, Note_on_c, 0, 64, 75
2, 316300, Note_on_c, 0, 64, 0
2, 316309, Note_on_c, 0, 64, 79
2, 316569, Note_on_c, 0, 64, 0
2, 316576, Note_on_c, 0, 64, 81
2, 316700, Control_c, 0, 64, 0
2, 316784, Control_c, 0, 64, 127
2, 316850, Note_on_c, 0, 62, 69
2, 317099, Note_on_c, 0, 64, 0
2, 317104, Note_on_c, 0, 64, 77
2, 317360, Note_on_c, 0, 69, 0
2, 317371, Note_on_c, 0, 69, 73
2, 317570, Note_on_c, 0, 43, 45
2, 317575, Note_on_c, 0, 31, 48
2, 317583, Note_on_c, 0, 31, 0
2, 317593, Note_on_c, 0, 50, 49
2, 317644, Note_on_c, 0, 64, 0
2, 317652, Note_on_c, 0, 48, 0
2, 317652, Note_on_c, 0, 60, 0
2, 317655, Note_on_c, 0, 64, 70
2, 317658, Note_on_c, 0, 62, 0
2, 317662, Note_on_c, 0, 57, 0
2, 317665, Note_on_c, 0, 69, 0
2, 317667, Note_on_c, 0, 41, 0
2, 317671, Note_on_c, 0, 59, 50
2, 317686, Control_c, 0, 64, 0
2, 317829, Control_c, 0, 64, 127
2, 317901, Note_on_c, 0, 62, 70
2, 318044, Note_on_c, 0, 62, 0
2, 318049, Note_on_c, 0, 62, 59
2, 318099, Control_c, 0, 64, 0
2, 318297, Control_c, 0, 64, 127
2, 318896, Note_on_c, 0, 64, 0
2, 319019, Note_on_c, 0, 59, 0
2, 319026, Note_on_c, 0, 59, 42
2, 319345, Note_on_c, 0, 55, 35
2, 319910, Note_on_c, 0, 43, 0
2, 319916, Note_on_c, 0, 43, 34
2, 319936, Note_on_c, 0, 52, 36
2, 319938, Note_on_c, 0, 36, 33
2, 319952, Control_c, 0, 64, 0
2, 319953, Note_on_c, 0, 59, 0
2, 319954, Note_on_c, 0, 50, 0
2, 319954, Note_on_c, 0, 62, 0
2, 320102, Control_c, 0, 64, 127
2, 320219, Note_on_c, 0, 62, 55
2, 320478, Note_on_c, 0, 62, 0
2, 320483, Note_on_c, 0, 62, 63
2, 320739, Note_on_c, 0, 62, 0
2, 320745, Note_on_c, 0, 62, 63
2, 321008, Note_on_c, 0, 62, 0
2, 321012, Note_on_c, 0, 62, 76
2, 321285, Note_on_c, 0, 60, 72
2, 321530, Note_on_c, 0, 62, 0
2, 321542, Note_on_c, 0, 62, 82
2, 321820, Note_on_c, 0, 67, 74
2, 322027, Note_on_c, 0, 45, 47
2, 322041, Note_on_c, 0, 33, 48
2, 322042, Note_on_c, 0, 40, 38
2, 322053, Note_on_c, 0, 36, 0
2, 322076, Note_on_c, 0, 62, 0
2, 322081, Note_on_c, 0, 62, 68
2, 322094, Note_on_c, 0, 57, 52
2, 322098, Note_on_c, 0, 60, 0
2, 322099, Note_on_c, 0, 55, 0
2, 322101, Note_on_c, 0, 67, 0
2, 322103, Control_c, 0, 64, 0
2, 322114, Note_on_c, 0, 43, 0
2, 322137, Note_on_c, 0, 33, 0
2, 322340, Note_on_c, 0, 60, 71
2, 322611, Note_on_c, 0, 59, 64
2, 322613, Note_on_c, 0, 62, 0
2, 322617, Note_on_c, 0, 60, 0
2, 322887, Note_on_c, 0, 60, 63
2, 322926, Note_on_c, 0, 59, 0
2, 323089, Control_c, 0, 64, 127
2, 323463, Note_on_c, 0, 55, 36
2, 323727, Note_on_c, 0, 52, 0
2, 323738, Note_on_c, 0, 52, 41
2, 324019, Note_on_c, 0, 57, 0
2, 324030, Note_on_c, 0, 57, 60
2, 324164, Note_on_c, 0, 59, 57
2, 324195, Note_on_c, 0, 40, 0
2, 324234, Note_on_c, 0, 45, 0
2, 324236, Note_on_c, 0, 38, 52
2, 324241, Note_on_c, 0, 45, 42
2, 324262, Note_on_c, 0, 60, 0
2, 324263, Control_c, 0, 64, 0
2, 324267, Note_on_c, 0, 52, 0
2, 324268, Note_on_c, 0, 55, 0
2, 324268, Note_on_c, 0, 59, 0
2, 324309, Note_on_c, 0, 53, 56
2, 324309, Note_on_c, 0, 60, 66
2, 324341, Note_on_c, 0, 57, 0
2, 324418, Control_c, 0, 64, 127
2, 324572, Note_on_c, 0, 60, 0
2, 324576, Note_on_c, 0, 60, 61
2, 324840, Note_on_c, 0, 60, 0
2, 324851, Note_on_c, 0, 60, 66
2, 325102, Note_on_c, 0, 60, 0
2, 325105, Control_c, 0, 64, 0
2, 325108, Note_on_c, 0, 60, 56
2, 325109, Note_on_c, 0, 53, 0
2, 325115, Note_on_c, 0, 53, 37
2, 325126, Note_on_c, 0, 57, 39
2, 325255, Control_c, 0, 64, 127
2, 325635, Note_on_c, 0, 50, 46
2, 325900, Note_on_c, 0, 57, 0
2, 325908, Note_on_c, 0, 53, 0
2, 325910, Note_on_c, 0, 57, 47
2, 325914, Note_on_c, 0, 53, 38
2, 326177, Note_on_c, 0, 57, 0
2, 326188, Note_on_c, 0, 57, 60
2, 326305, Note_on_c, 0, 59, 59
2, 326427, Note_on_c, 0, 40, 42
2, 326432, Note_on_c, 0, 48, 43
2, 326463, Control_c, 0, 64, 0
2, 326464, Note_on_c, 0, 52, 43
2, 326469, Note_on_c, 0, 60, 0
2, 326472, Note_on_c, 0, 50, 0
2, 326473, Note_on_c, 0, 57, 0
2, 326475, Note_on_c, 0, 59, 0
2, 326477, Note_on_c, 0, 60, 57
2, 326484, Note_on_c, 0, 38, 0
2, 326484, Note_on_c, 0, 45, 0
2, 326488, Note_on_c, 0, 55, 51
2, 326492, Note_on_c, 0, 53, 0
2, 326622, Control_c, 0, 64, 127
2, 326768, Note_on_c, 0, 60, 0
2, 326776, Note_on_c, 0, 55, 0
2, 326779, Note_on_c, 0, 60, 68
2, 326783, Note_on_c, 0, 55, 42
2, 327029, Note_on_c, 0, 60, 0
2, 327041, Note_on_c, 0, 60, 72
2, 327313, Note_on_c, 0, 52, 0
2, 327313, Note_on_c, 0, 55, 0
2, 327313, Note_on_c, 0, 60, 0
2, 327319, Note_on_c, 0, 60, 60
2, 327322, Note_on_c, 0, 52, 50
2, 327324, Note_on_c, 0, 55, 52
2, 327820, Note_on_c, 0, 52, 0
2, 327820, Note_on_c, 0, 55, 0
2, 327828, Note_on_c, 0, 52, 45
2, 327831, Note_on_c, 0, 55, 32
2, 328128, Note_on_c, 0, 55, 0
2, 328131, Note_on_c, 0, 55, 46
2, 328408, Note_on_c, 0, 57, 62
2, 328515, Note_on_c, 0, 59, 65
2, 328634, Note_on_c, 0, 48, 0
2, 328646, Note_on_c, 0, 48, 42
2, 328657, Note_on_c, 0, 41, 49
2, 328665, Note_on_c, 0, 55, 0
2, 328669, Control_c, 0, 64, 0
2, 328671, Note_on_c, 0, 40, 0
2, 328671, Note_on_c, 0, 52, 0
2, 328673, Note_on_c, 0, 60, 0
2, 328674, Note_on_c, 0, 59, 0
2, 328676, Note_on_c, 0, 55, 55
2, 328684, Note_on_c, 0, 60, 62
2, 328819, Control_c, 0, 64, 127
2, 329218, Note_on_c, 0, 57, 0
2, 329218, Note_on_c, 0, 60, 0
2, 329222, Note_on_c, 0, 60, 68
2, 329226, Note_on_c, 0, 57, 44
2, 329494, Note_on_c, 0, 67, 74
2, 329733, Note_on_c, 0, 57, 0
2, 329738, Note_on_c, 0, 57, 50
2, 330014, Note_on_c, 0, 64, 73
2, 330017, Note_on_c, 0, 60, 0
2, 330021, Note_on_c, 0, 60, 57
2, 330071, Control_c, 0, 64, 0
2, 330224, Control_c, 0, 64, 127
2, 330533, Note_on_c, 0, 65, 68
2, 330647, Note_on_c, 0, 64, 0
2, 330656, Note_on_c, 0, 64, 67
2, 330784, Control_c, 0, 64, 0
2, 330805, Note_on_c, 0, 62, 64
2, 330820, Note_on_c, 0, 43, 36
2, 330820, Note_on_c, 0, 67, 0
2, 330820, Note_on_c, 0, 31, 43
2, 330822, Note_on_c, 0, 41, 0
2, 330824, Note_on_c, 0, 50, 43
2, 330825, Note_on_c, 0, 57, 0
2, 330826, Note_on_c, 0, 64, 0
2, 330826, Note_on_c, 0, 65, 0
2, 330827, Note_on_c, 0, 60, 0
2, 330831, Note_on_c, 0, 31, 0
2, 330854, Note_on_c, 0, 48, 0
2, 331092, Note_on_c, 0, 55, 0
2, 331276, Control_c, 0, 64, 127
2, 331365, Note_on_c, 0, 59, 38
2, 331633, Note_on_c, 0, 55, 46
2, 331903, Control_c, 0, 64, 0
2, 331926, Note_on_c, 0, 64, 60
2, 331960, Note_on_c, 0, 59, 0
2, 331975, Note_on_c, 0, 62, 0
2, 332006, Note_on_c, 0, 50, 0
2, 332467, Control_c, 0, 64, 127
2, 332483, Note_on_c, 0, 65, 63
2, 332588, Control_c, 0, 64, 0
2, 332597, Control_c, 0, 64, 127
2, 333053, Control_c, 0, 64, 0
2, 333053, Note_on_c, 0, 67, 54
2, 333059, Note_on_c, 0, 55, 0
2, 333059, Note_on_c, 0, 64, 0
2, 333060, Note_on_c, 0, 60, 35
2, 333061, Note_on_c, 0, 65, 0
2, 333068, Note_on_c, 0, 53, 34
2, 333069, Note_on_c, 0, 57, 37
2, 333189, Control_c, 0, 64, 127
2, 333350, Note_on_c, 0, 67, 0
2, 333361, Note_on_c, 0, 67, 57
2, 333857, Note_on_c, 0, 67, 0
2, 333863, Note_on_c, 0, 67, 66
2, 334133, Note_on_c, 0, 57, 0
2, 334145, Control_c, 0, 64, 0
2, 334149, Note_on_c, 0, 67, 0
2, 334158, Note_on_c, 0, 67, 54
2, 334167, Note_on_c, 0, 52, 42
2, 334168, Note_on_c, 0, 56, 42
2, 334174, Note_on_c, 0, 62, 42
2, 334264, Note_on_c, 0, 60, 0
2, 334379, Control_c, 0, 64, 127
2, 334415, Note_on_c, 0, 65, 68
2, 334662, Control_c, 0, 64, 0
2, 334679, Note_on_c, 0, 52, 0
2, 334687, Note_on_c, 0, 59, 58
2, 334690, Note_on_c, 0, 64, 67
2, 334690, Note_on_c, 0, 52, 46
2, 334801, Control_c, 0, 64, 127
2, 334940, Note_on_c, 0, 43, 0
2, 334940, Note_on_c, 0, 53, 0
2, 334940, Note_on_c, 0, 62, 0
2, 334950, Note_on_c, 0, 62, 72
2, 335191, Note_on_c, 0, 56, 0
2, 335194, Note_on_c, 0, 52, 0
2, 335211, Control_c, 0, 64, 0
2, 335224, Note_on_c, 0, 59, 0
2, 335224, Note_on_c, 0, 62, 0
2, 335227, Note_on_c, 0, 45, 57
2, 335228, Note_on_c, 0, 62, 56
2, 335233, Note_on_c, 0, 59, 53
2, 335239, Note_on_c, 0, 64, 0
2, 335239, Note_on_c, 0, 65, 0
2, 335385, Control_c, 0, 64, 127
2, 335485, Note_on_c, 0, 52, 50
2, 335619, Note_on_c, 0, 60, 60
2, 335631, Note_on_c, 0, 67, 0
2, 335665, Note_on_c, 0, 62, 0
2, 335669, Note_on_c, 0, 59, 0
2, 335757, Note_on_c, 0, 57, 54
2, 336015, Note_on_c, 0, 60, 0
2, 336024, Note_on_c, 0, 60, 57
2, 336290, Control_c, 0, 64, 0
2, 336295, Note_on_c, 0, 45, 0
2, 336297, Note_on_c, 0, 52, 0
2, 336298, Note_on_c, 0, 43, 37
2, 336299, Note_on_c, 0, 58, 42
2, 336299, Note_on_c, 0, 57, 0
2, 336303, Note_on_c, 0, 53, 42
2, 336307, Note_on_c, 0, 50, 36
2, 336414, Control_c, 0, 64, 127
2, 336838, Note_on_c, 0, 64, 71
2, 336844, Note_on_c, 0, 58, 0
2, 336852, Note_on_c, 0, 60, 0
2, 336854, Note_on_c, 0, 52, 51
2, 336855, Note_on_c, 0, 58, 48
2, 336856, Note_on_c, 0, 55, 44
2, 336856, Note_on_c, 0, 48, 40
2, 336861, Note_on_c, 0, 60, 38
2, 336865, Control_c, 0, 64, 0
2, 336877, Note_on_c, 0, 53, 0
2, 336879, Note_on_c, 0, 50, 0
2, 336967, Control_c, 0, 64, 127
2, 337036, Note_on_c, 0, 43, 0
2, 337089, Note_on_c, 0, 65, 80
2, 337354, Note_on_c, 0, 52, 0
2, 337354, Note_on_c, 0, 65, 0
2, 337354, Note_on_c, 0, 55, 0
2, 337359, Note_on_c, 0, 60, 0
2, 337360, Control_c, 0, 64, 0
2, 337367, Note_on_c, 0, 58, 0
2, 337368, Note_on_c, 0, 67, 71
2, 337382, Note_on_c, 0, 57, 55
2, 337382, Note_on_c, 0, 64, 0
2, 337386, Note_on_c, 0, 53, 54
2, 337389, Note_on_c, 0, 64, 58
2, 337393, Note_on_c, 0, 60, 46
2, 337474, Control_c, 0, 64, 127
2, 337658, Note_on_c, 0, 67, 0
2, 337664, Note_on_c, 0, 67, 64
2, 337896, Note_on_c, 0, 57, 0
2, 337896, Note_on_c, 0, 60, 0
2, 337901, Note_on_c, 0, 60, 47
2, 337905, Note_on_c, 0, 57, 35
2, 338165, Note_on_c, 0, 67, 0
2, 338170, Note_on_c, 0, 67, 72
2, 338434, Note_on_c, 0, 67, 0
2, 338437, Note_on_c, 0, 56, 53
2, 338438, Note_on_c, 0, 67, 67
2, 338438, Note_on_c, 0, 62, 56
2, 338439, Note_on_c, 0, 52, 51
2, 338451, Control_c, 0, 64, 0
2, 338459, Note_on_c, 0, 60, 0
2, 338460, Note_on_c, 0, 64, 0
2, 338460, Note_on_c, 0, 57, 0
2, 338461, Note_on_c, 0, 53, 0
2, 338465, Note_on_c, 0, 48, 0
2, 338641, Control_c, 0, 64, 127
2, 338697, Note_on_c, 0, 65, 74
2, 338959, Note_on_c, 0, 59, 65
2, 338964, Note_on_c, 0, 56, 0
2, 338968, Note_on_c, 0, 56, 50
2, 338974, Note_on_c, 0, 64, 73
2, 339072, Control_c, 0, 64, 0
2, 339156, Control_c, 0, 64, 127
2, 339225, Note_on_c, 0, 62, 0
2, 339233, Note_on_c, 0, 62, 74
2, 339486, Note_on_c, 0, 67, 0
2, 339502, Note_on_c, 0, 62, 0
2, 339504, Note_on_c, 0, 45, 54
2, 339507, Note_on_c, 0, 62, 61
2, 339509, Note_on_c, 0, 59, 0
2, 339513, Control_c, 0, 64, 0
2, 339515, Note_on_c, 0, 59, 55
2, 339563, Note_on_c, 0, 65, 0
2, 339586, Note_on_c, 0, 56, 0
2, 339594, Note_on_c, 0, 64, 0
2, 339709, Note_on_c, 0, 52, 0
2, 339779, Note_on_c, 0, 52, 46
2, 339912, Note_on_c, 0, 64, 68
2, 339993, Note_on_c, 0, 59, 0
2, 339993, Note_on_c, 0, 62, 0
2, 340055, Control_c, 0, 64, 127
2, 340063, Note_on_c, 0, 57, 50
2, 340308, Note_on_c, 0, 64, 0
2, 340314, Note_on_c, 0, 64, 54
2, 340335, Note_on_c, 0, 60, 50
2, 340362, Control_c, 0, 64, 0
2, 340508, Control_c, 0, 64, 127
2, 340846, Note_on_c, 0, 57, 0
2, 340851, Note_on_c, 0, 57, 40
2, 341099, Note_on_c, 0, 60, 0
2, 341109, Note_on_c, 0, 60, 61
2, 341368, Note_on_c, 0, 62, 70
2, 341637, Note_on_c, 0, 64, 0
2, 341643, Note_on_c, 0, 38, 61
2, 341644, Note_on_c, 0, 64, 66
2, 341644, Note_on_c, 0, 57, 0
2, 341648, Note_on_c, 0, 57, 55
2, 341648, Note_on_c, 0, 54, 48
2, 341678, Note_on_c, 0, 62, 0
2, 341679, Note_on_c, 0, 45, 0
2, 341679, Note_on_c, 0, 52, 0
2, 341683, Control_c, 0, 64, 0
2, 341706, Note_on_c, 0, 60, 0
2, 341941, Note_on_c, 0, 45, 40
2, 341952, Control_c, 0, 64, 127
2, 342219, Note_on_c, 0, 50, 41
2, 342504, Note_on_c, 0, 54, 0
2, 342504, Note_on_c, 0, 57, 0
2, 342509, Note_on_c, 0, 57, 49
2, 342515, Note_on_c, 0, 54, 38
2, 342563, Control_c, 0, 64, 0
2, 342789, Control_c, 0, 64, 127
2, 343405, Note_on_c, 0, 60, 63
2, 343680, Note_on_c, 0, 64, 0
2, 343683, Note_on_c, 0, 62, 64
2, 343944, Note_on_c, 0, 64, 64
2, 343948, Note_on_c, 0, 57, 0
2, 343948, Note_on_c, 0, 60, 0
2, 343954, Note_on_c, 0, 60, 51
2, 343957, Note_on_c, 0, 43, 44
2, 343959, Control_c, 0, 64, 0
2, 343959, Note_on_c, 0, 57, 49
2, 343966, Note_on_c, 0, 45, 0
2, 343969, Note_on_c, 0, 54, 0
2, 343970, Note_on_c, 0, 62, 0
2, 343974, Note_on_c, 0, 38, 0
2, 343979, Note_on_c, 0, 50, 0
2, 344194, Control_c, 0, 64, 127
2, 344251, Note_on_c, 0, 50, 43
2, 344562, Note_on_c, 0, 53, 29
2, 344838, Note_on_c, 0, 55, 40
2, 345177, Note_on_c, 0, 43, 0
2, 345181, Note_on_c, 0, 43, 27
2, 345182, Control_c, 0, 64, 0
2, 345183, Note_on_c, 0, 59, 39
2, 345183, Note_on_c, 0, 62, 45
2, 345184, Note_on_c, 0, 53, 0
2, 345208, Note_on_c, 0, 60, 0
2, 345216, Note_on_c, 0, 57, 0
2, 345216, Note_on_c, 0, 64, 0
2, 346275, Control_c, 0, 64, 127
2, 347520, Note_on_c, 0, 43, 0
2, 347520, Note_on_c, 0, 50, 0
2, 347520, Note_on_c, 0, 55, 0
2, 347520, Note_on_c, 0, 59, 0
2, 347520, Note_on_c, 0, 62, 0
2, 348042, Control_c, 0, 64, 0
2, 348291, Note_on_c, 0, 69, 52
2, 348587, Control_c, 0, 64, 127
2, 348616, Note_on_c, 0, 71, 62
2, 348924, Note_on_c, 0, 72, 64
2, 348928, Note_on_c, 0, 57, 43
2, 349201, Note_on_c, 0, 72, 0
2, 349211, Note_on_c, 0, 72, 79
2, 349220, Note_on_c, 0, 59, 55
2, 349247, Note_on_c, 0, 71, 0
2, 349271, Control_c, 0, 64, 0
2, 349309, Note_on_c, 0, 69, 0
2, 349355, Control_c, 0, 64, 127
2, 349463, Note_on_c, 0, 57, 0
2, 349474, Note_on_c, 0, 57, 44
2, 349475, Note_on_c, 0, 74, 83
2, 349476, Note_on_c, 0, 60, 34
2, 349555, Control_c, 0, 64, 0
2, 349639, Note_on_c, 0, 74, 0
2, 349639, Control_c, 0, 64, 127
2, 349647, Note_on_c, 0, 74, 53
2, 349731, Note_on_c, 0, 72, 0
2, 349737, Note_on_c, 0, 72, 82
2, 349769, Note_on_c, 0, 64, 56
2, 350019, Note_on_c, 0, 71, 71
2, 350028, Note_on_c, 0, 74, 0
2, 350028, Note_on_c, 0, 55, 53
2, 350029, Note_on_c, 0, 59, 0
2, 350029, Note_on_c, 0, 72, 0
2, 350030, Note_on_c, 0, 64, 0
2, 350031, Note_on_c, 0, 57, 0
2, 350031, Control_c, 0, 64, 0
2, 350054, Note_on_c, 0, 60, 0
2, 350192, Control_c, 0, 64, 127
2, 350273, Note_on_c, 0, 57, 45
2, 350555, Note_on_c, 0, 64, 63
2, 350584, Note_on_c, 0, 55, 0
2, 350589, Note_on_c, 0, 55, 24
2, 350825, Note_on_c, 0, 59, 50
2, 350829, Note_on_c, 0, 67, 68
2, 350837, Note_on_c, 0, 55, 0
2, 350843, Note_on_c, 0, 55, 37
2, 351104, Note_on_c, 0, 53, 51
2, 351110, Note_on_c, 0, 69, 58
2, 351123, Note_on_c, 0, 57, 0
2, 351125, Note_on_c, 0, 55, 0
2, 351125, Note_on_c, 0, 71, 0
2, 351125, Control_c, 0, 64, 0
2, 351126, Note_on_c, 0, 59, 0
2, 351237, Control_c, 0, 64, 127
2, 351360, Note_on_c, 0, 69, 0
2, 351364, Note_on_c, 0, 55, 64
2, 351370, Note_on_c, 0, 69, 80
2, 351621, Note_on_c, 0, 67, 0
2, 351627, Note_on_c, 0, 57, 68
2, 351630, Note_on_c, 0, 67, 79
2, 351654, Control_c, 0, 64, 0
2, 351697, Control_c, 0, 64, 127
2, 351896, Note_on_c, 0, 65, 75
2, 351915, Note_on_c, 0, 60, 67
2, 352158, Note_on_c, 0, 67, 0
2, 352166, Note_on_c, 0, 67, 68
2, 352170, Note_on_c, 0, 52, 52
2, 352190, Control_c, 0, 64, 0
2, 352191, Note_on_c, 0, 62, 55
2, 352193, Note_on_c, 0, 55, 0
2, 352193, Note_on_c, 0, 57, 0
2, 352193, Note_on_c, 0, 60, 0
2, 352193, Note_on_c, 0, 53, 0
2, 352193, Note_on_c, 0, 65, 0
2, 352204, Note_on_c, 0, 64, 0
2, 352212, Note_on_c, 0, 69, 0
2, 352312, Control_c, 0, 64, 127
2, 352450, Note_on_c, 0, 55, 51
2, 352668, Note_on_c, 0, 60, 58
2, 352942, Note_on_c, 0, 67, 0
2, 352948, Note_on_c, 0, 67, 58
2, 352957, Note_on_c, 0, 60, 0
2, 352967, Note_on_c, 0, 60, 46
2, 353218, Note_on_c, 0, 67, 0
2, 353228, Note_on_c, 0, 67, 68
2, 353232, Note_on_c, 0, 51, 51
2, 353262, Note_on_c, 0, 52, 0
2, 353263, Note_on_c, 0, 62, 0
2, 353264, Note_on_c, 0, 55, 0
2, 353266, Note_on_c, 0, 60, 0
2, 353276, Control_c, 0, 64, 0
2, 353402, Control_c, 0, 64, 127
2, 353491, Note_on_c, 0, 65, 75
2, 353497, Note_on_c, 0, 55, 62
2, 353748, Note_on_c, 0, 65, 0
2, 353757, Note_on_c, 0, 65, 65
2, 354004, Note_on_c, 0, 63, 72
2, 354007, Note_on_c, 0, 60, 53
2, 354255, Note_on_c, 0, 65, 0
2, 354260, Note_on_c, 0, 50, 64
2, 354261, Note_on_c, 0, 65, 71
2, 354297, Note_on_c, 0, 60, 0
2, 354297, Note_on_c, 0, 51, 0
2, 354297, Note_on_c, 0, 55, 0
2, 354298, Note_on_c, 0, 63, 0
2, 354298, Control_c, 0, 64, 0
2, 354301, Note_on_c, 0, 67, 0
2, 354401, Control_c, 0, 64, 127
2, 354548, Note_on_c, 0, 57, 46
2, 354790, Note_on_c, 0, 60, 69
2, 355046, Note_on_c, 0, 57, 0
2, 355046, Note_on_c, 0, 65, 0
2, 355052, Note_on_c, 0, 65, 75
2, 355056, Note_on_c, 0, 57, 66
2, 355327, Note_on_c, 0, 67, 69
2, 355334, Note_on_c, 0, 49, 54
2, 355341, Note_on_c, 0, 63, 57
2, 355344, Control_c, 0, 64, 0
2, 355346, Note_on_c, 0, 60, 0
2, 355346, Note_on_c, 0, 50, 0
2, 355349, Note_on_c, 0, 59, 55
2, 355353, Note_on_c, 0, 57, 0
2, 355353, Note_on_c, 0, 65, 0
2, 355468, Control_c, 0, 64, 127
2, 355590, Note_on_c, 0, 53, 53
2, 355829, Note_on_c, 0, 59, 0
2, 355837, Note_on_c, 0, 59, 62
2, 356124, Note_on_c, 0, 68, 73
2, 356131, Note_on_c, 0, 55, 52
2, 356382, Note_on_c, 0, 67, 0
2, 356394, Note_on_c, 0, 67, 79
2, 356405, Note_on_c, 0, 55, 0
2, 356405, Note_on_c, 0, 59, 0
2, 356410, Note_on_c, 0, 55, 61
2, 356414, Note_on_c, 0, 59, 65
2, 356415, Note_on_c, 0, 62, 65
2, 356448, Control_c, 0, 64, 0
2, 356450, Note_on_c, 0, 49, 0
2, 356452, Note_on_c, 0, 63, 0
2, 356454, Note_on_c, 0, 53, 0
2, 356497, Note_on_c, 0, 68, 0
2, 356559, Control_c, 0, 64, 127
2, 356651, Note_on_c, 0, 43, 65
2, 356915, Note_on_c, 0, 69, 87
2, 356916, Note_on_c, 0, 50, 70
2, 357195, Note_on_c, 0, 71, 86
2, 357196, Note_on_c, 0, 55, 0
2, 357201, Note_on_c, 0, 55, 65
2, 357204, Note_on_c, 0, 43, 0
2, 357210, Note_on_c, 0, 43, 55
2, 357465, Note_on_c, 0, 69, 0
2, 357466, Control_c, 0, 64, 0
2, 357468, Note_on_c, 0, 62, 0
2, 357469, Note_on_c, 0, 55, 0
2, 357469, Note_on_c, 0, 50, 0
2, 357469, Note_on_c, 0, 72, 88
2, 357469, Note_on_c, 0, 43, 0
2, 357469, Note_on_c, 0, 57, 73
2, 357470, Note_on_c, 0, 71, 0
2, 357472, Note_on_c, 0, 69, 70
2, 357473, Note_on_c, 0, 67, 0
2, 357474, Note_on_c, 0, 45, 74
2, 357476, Note_on_c, 0, 64, 68
2, 357479, Note_on_c, 0, 67, 57
2, 357480, Note_on_c, 0, 59, 0
2, 357550, Control_c, 0, 64, 127
2, 357734, Note_on_c, 0, 72, 0
2, 357738, Note_on_c, 0, 72, 90
2, 357739, Note_on_c, 0, 52, 77
2, 357742, Note_on_c, 0, 64, 0
2, 357742, Note_on_c, 0, 67, 0
2, 357752, Note_on_c, 0, 67, 70
2, 357753, Note_on_c, 0, 64, 76
2, 357995, Note_on_c, 0, 57, 0
2, 357999, Note_on_c, 0, 74, 90
2, 358000, Note_on_c, 0, 57, 74
2, 358248, Note_on_c, 0, 72, 0
2, 358253, Note_on_c, 0, 72, 87
2, 358264, Note_on_c, 0, 64, 0
2, 358268, Note_on_c, 0, 59, 69
2, 358268, Note_on_c, 0, 64, 68
2, 358533, Note_on_c, 0, 64, 0
2, 358533, Note_on_c, 0, 67, 0
2, 358536, Note_on_c, 0, 71, 83
2, 358543, Note_on_c, 0, 64, 69
2, 358544, Note_on_c, 0, 67, 70
2, 358547, Note_on_c, 0, 55, 65
2, 358551, Note_on_c, 0, 43, 66
2, 358564, Control_c, 0, 64, 0
2, 358567, Note_on_c, 0, 52, 0
2, 358567, Note_on_c, 0, 74, 0
2, 358567, Note_on_c, 0, 59, 0
2, 358567, Note_on_c, 0, 57, 0
2, 358568, Note_on_c, 0, 72, 0
2, 358568, Note_on_c, 0, 45, 0
2, 358579, Note_on_c, 0, 69, 0
2, 358725, Control_c, 0, 64, 127
2, 358816, Note_on_c, 0, 52, 65
2, 359055, Note_on_c, 0, 64, 0
2, 359066, Note_on_c, 0, 64, 75
2, 359073, Note_on_c, 0, 59, 73
2, 359331, Note_on_c, 0, 55, 0
2, 359331, Note_on_c, 0, 67, 0
2, 359336, Note_on_c, 0, 67, 77
2, 359343, Note_on_c, 0, 55, 73
2, 359554, Note_on_c, 0, 64, 0
2, 359560, Note_on_c, 0, 64, 49
2, 359572, Note_on_c, 0, 65, 65
2, 359573, Note_on_c, 0, 60, 56
2, 359598, Note_on_c, 0, 41, 65
2, 359601, Note_on_c, 0, 52, 0
2, 359601, Note_on_c, 0, 71, 0
2, 359601, Note_on_c, 0, 59, 0
2, 359601, Note_on_c, 0, 43, 0
2, 359601, Control_c, 0, 64, 0
2, 359601, Note_on_c, 0, 67, 0
2, 359607, Note_on_c, 0, 69, 76
2, 359631, Note_on_c, 0, 55, 0
2, 359723, Note_on_c, 0, 64, 0
2, 359731, Control_c, 0, 64, 127
2, 359854, Note_on_c, 0, 69, 0
2, 359861, Note_on_c, 0, 60, 0
2, 359861, Note_on_c, 0, 65, 0
2, 359861, Note_on_c, 0, 69, 83
2, 359870, Note_on_c, 0, 65, 71
2, 359873, Note_on_c, 0, 60, 66
2, 359873, Note_on_c, 0, 48, 63
2, 360115, Note_on_c, 0, 41, 0
2, 360120, Note_on_c, 0, 41, 67
2, 360124, Note_on_c, 0, 53, 67
2, 360126, Note_on_c, 0, 67, 77
2, 360127, Note_on_c, 0, 64, 65
2, 360134, Note_on_c, 0, 62, 68
2, 360376, Note_on_c, 0, 65, 0
2, 360384, Note_on_c, 0, 65, 80
2, 360386, Note_on_c, 0, 55, 74
2, 360652, Note_on_c, 0, 62, 0
2, 360652, Note_on_c, 0, 67, 0
2, 360657, Note_on_c, 0, 67, 79
2, 360657, Note_on_c, 0, 40, 69
2, 360660, Note_on_c, 0, 60, 0
2, 360663, Note_on_c, 0, 62, 58
2, 360664, Note_on_c, 0, 60, 61
2, 360709, Control_c, 0, 64, 0
2, 360717, Note_on_c, 0, 65, 0
2, 360717, Note_on_c, 0, 69, 0
2, 360717, Note_on_c, 0, 48, 0
2, 360717, Note_on_c, 0, 41, 0
2, 360718, Note_on_c, 0, 53, 0
2, 360737, Note_on_c, 0, 64, 0
2, 360875, Control_c, 0, 64, 127
2, 360918, Note_on_c, 0, 48, 58
2, 361090, Note_on_c, 0, 55, 0
2, 361159, Note_on_c, 0, 60, 0
2, 361163, Note_on_c, 0, 60, 56
2, 361178, Note_on_c, 0, 55, 51
2, 361420, Note_on_c, 0, 67, 0
2, 361432, Note_on_c, 0, 67, 71
2, 361451, Note_on_c, 0, 60, 0
2, 361455, Note_on_c, 0, 52, 56
2, 361457, Note_on_c, 0, 60, 42
2, 361566, Note_on_c, 0, 67, 0
2, 361572, Note_on_c, 0, 67, 63
2, 361704, Note_on_c, 0, 67, 0
2, 361715, Note_on_c, 0, 67, 71
2, 361730, Note_on_c, 0, 39, 63
2, 361734, Note_on_c, 0, 63, 53
2, 361735, Note_on_c, 0, 60, 0
2, 361743, Note_on_c, 0, 63, 0
2, 361743, Note_on_c, 0, 60, 49
2, 361764, Control_c, 0, 64, 0
2, 361778, Note_on_c, 0, 52, 0
2, 361779, Note_on_c, 0, 48, 0
2, 361779, Note_on_c, 0, 55, 0
2, 361780, Note_on_c, 0, 40, 0
2, 361873, Note_on_c, 0, 62, 0
2, 361943, Control_c, 0, 64, 127
2, 361989, Note_on_c, 0, 60, 0
2, 361993, Note_on_c, 0, 65, 71
2, 361997, Note_on_c, 0, 48, 51
2, 362000, Note_on_c, 0, 60, 46
2, 362242, Note_on_c, 0, 60, 0
2, 362242, Note_on_c, 0, 65, 0
2, 362247, Note_on_c, 0, 65, 75
2, 362251, Note_on_c, 0, 60, 63
2, 362252, Note_on_c, 0, 50, 66
2, 362256, Note_on_c, 0, 62, 66
2, 362290, Control_c, 0, 64, 0
2, 362319, Control_c, 0, 64, 127
2, 362482, Note_on_c, 0, 51, 59
2, 362503, Note_on_c, 0, 60, 0
2, 362509, Note_on_c, 0, 60, 38
2, 362515, Note_on_c, 0, 63, 79
2, 362764, Note_on_c, 0, 65, 0
2, 362764, Note_on_c, 0, 38, 73
2, 362769, Note_on_c, 0, 65, 77
2, 362772, Note_on_c, 0, 60, 0
2, 362781, Control_c, 0, 64, 0
2, 362781, Note_on_c, 0, 60, 65
2, 362782, Note_on_c, 0, 57, 68
2, 362784, Note_on_c, 0, 51, 0
2, 362784, Note_on_c, 0, 39, 0
2, 362784, Note_on_c, 0, 48, 0
2, 362785, Note_on_c, 0, 62, 0
2, 362785, Note_on_c, 0, 50, 0
2, 362785, Note_on_c, 0, 63, 0
2, 362795, Note_on_c, 0, 67, 0
2, 362933, Control_c, 0, 64, 127
2, 363033, Note_on_c, 0, 45, 50
2, 363299, Note_on_c, 0, 48, 59
2, 363302, Note_on_c, 0, 67, 84
2, 363553, Note_on_c, 0, 53, 65
2, 363554, Note_on_c, 0, 68, 82
2, 363819, Note_on_c, 0, 45, 0
2, 363819, Note_on_c, 0, 67, 0
2, 363820, Control_c, 0, 64, 0
2, 363820, Note_on_c, 0, 68, 0
2, 363820, Note_on_c, 0, 48, 0
2, 363820, Note_on_c, 0, 57, 0
2, 363820, Note_on_c, 0, 53, 0
2, 363820, Note_on_c, 0, 37, 76
2, 363820, Note_on_c, 0, 38, 0
2, 363832, Note_on_c, 0, 60, 0
2, 363832, Note_on_c, 0, 65, 0
2, 363835, Note_on_c, 0, 70, 84
2, 363842, Note_on_c, 0, 65, 69
2, 363851, Note_on_c, 0, 59, 72
2, 363851, Note_on_c, 0, 63, 67
2, 363947, Control_c, 0, 64, 127
2, 364113, Note_on_c, 0, 49, 55
2, 364236, Note_on_c, 0, 68, 87
2, 364321, Note_on_c, 0, 53, 66
2, 364492, Note_on_c, 0, 68, 0
2, 364502, Note_on_c, 0, 68, 88
2, 364508, Note_on_c, 0, 63, 0
2, 364508, Note_on_c, 0, 65, 0
2, 364512, Note_on_c, 0, 63, 67
2, 364516, Note_on_c, 0, 65, 54
2, 364531, Note_on_c, 0, 59, 0
2, 364535, Note_on_c, 0, 59, 38
2, 364623, Note_on_c, 0, 59, 0
2, 364630, Note_on_c, 0, 56, 70
2, 364633, Note_on_c, 0, 59, 67
2, 364734, Note_on_c, 0, 67, 82
2, 364907, Note_on_c, 0, 68, 0
2, 364918, Note_on_c, 0, 68, 90
2, 364924, Note_on_c, 0, 63, 0
2, 364924, Note_on_c, 0, 65, 0
2, 364924, Note_on_c, 0, 59, 0
2, 364925, Note_on_c, 0, 56, 0
2, 364925, Note_on_c, 0, 67, 0
2, 364925, Note_on_c, 0, 49, 0
2, 364925, Note_on_c, 0, 53, 0
2, 364925, Note_on_c, 0, 70, 0
2, 364925, Note_on_c, 0, 37, 0
2, 364926, Control_c, 0, 64, 0
2, 364926, Note_on_c, 0, 36, 69
2, 364934, Note_on_c, 0, 60, 61
2, 364942, Note_on_c, 0, 64, 63
2, 365061, Control_c, 0, 64, 127
2, 365171, Note_on_c, 0, 43, 62
2, 365441, Control_c, 0, 64, 0
2, 365441, Note_on_c, 0, 43, 0
2, 365442, Note_on_c, 0, 36, 0
2, 365442, Note_on_c, 0, 67, 82
2, 365445, Note_on_c, 0, 64, 0
2, 365449, Note_on_c, 0, 40, 75
2, 365449, Note_on_c, 0, 64, 72
2, 365475, Note_on_c, 0, 68, 0
2, 365544, Control_c, 0, 64, 127
2, 365618, Note_on_c, 0, 68, 85
2, 365623, Note_on_c, 0, 65, 75
2, 365730, Note_on_c, 0, 48, 58
2, 365801, Note_on_c, 0, 70, 88
2, 366003, Note_on_c, 0, 72, 95
2, 366004, Note_on_c, 0, 29, 81
2, 366005, Note_on_c, 0, 60, 0
2, 366013, Note_on_c, 0, 29, 0
2, 366013, Note_on_c, 0, 65, 0
2, 366013, Note_on_c, 0, 68, 0
2, 366016, Note_on_c, 0, 60, 77
2, 366024, Note_on_c, 0, 68, 78
2, 366024, Note_on_c, 0, 65, 67
2, 366042, Note_on_c, 0, 48, 0
2, 366043, Note_on_c, 0, 64, 0
2, 366043, Note_on_c, 0, 67, 0
2, 366043, Note_on_c, 0, 70, 0
2, 366043, Note_on_c, 0, 40, 0
2, 366045, Control_c, 0, 64, 0
2, 366236, Control_c, 0, 64, 127
2, 366279, Note_on_c, 0, 48, 60
2, 366527, Note_on_c, 0, 55, 63
2, 366792, Note_on_c, 0, 56, 70
2, 367032, Note_on_c, 0, 67, 68
2, 367042, Note_on_c, 0, 60, 0
2, 367047, Note_on_c, 0, 60, 56
2, 367047, Note_on_c, 0, 39, 69
2, 367048, Note_on_c, 0, 63, 55
2, 367064, Note_on_c, 0, 48, 0
2, 367065, Note_on_c, 0, 55, 0
2, 367067, Control_c, 0, 64, 0
2, 367068, Note_on_c, 0, 56, 0
2, 367096, Note_on_c, 0, 65, 0
2, 367150, Control_c, 0, 64, 127
2, 367180, Note_on_c, 0, 68, 0
2, 367298, Note_on_c, 0, 48, 60
2, 367558, Note_on_c, 0, 55, 69
2, 367563, Note_on_c, 0, 68, 86
2, 367837, Note_on_c, 0, 70, 89
2, 367848, Note_on_c, 0, 67, 0
2, 367859, Note_on_c, 0, 67, 47
2, 368102, Note_on_c, 0, 72, 0
2, 368109, Note_on_c, 0, 38, 79
2, 368110, Note_on_c, 0, 68, 0
2, 368110, Note_on_c, 0, 72, 98
2, 368117, Note_on_c, 0, 60, 0
2, 368119, Note_on_c, 0, 68, 82
2, 368122, Note_on_c, 0, 65, 67
2, 368122, Note_on_c, 0, 60, 76
2, 368135, Note_on_c, 0, 63, 0
2, 368136, Note_on_c, 0, 55, 0
2, 368137, Note_on_c, 0, 67, 0
2, 368138, Control_c, 0, 64, 0
2, 368138, Note_on_c, 0, 48, 0
2, 368139, Note_on_c, 0, 70, 0
2, 368143, Note_on_c, 0, 39, 0
2, 368271, Control_c, 0, 64, 127
2, 368370, Note_on_c, 0, 50, 61
2, 368635, Note_on_c, 0, 53, 56
2, 368916, Note_on_c, 0, 65, 0
2, 368919, Note_on_c, 0, 56, 63
2, 368924, Note_on_c, 0, 60, 0
2, 368927, Note_on_c, 0, 65, 70
2, 368935, Note_on_c, 0, 60, 48
2, 369431, Note_on_c, 0, 72, 0
2, 369441, Note_on_c, 0, 72, 99
2, 369446, Note_on_c, 0, 56, 0
2, 369446, Note_on_c, 0, 65, 0
2, 369446, Note_on_c, 0, 68, 0
2, 369452, Note_on_c, 0, 56, 62
2, 369456, Note_on_c, 0, 68, 78
2, 369456, Note_on_c, 0, 65, 69
2, 369715, Note_on_c, 0, 56, 0
2, 369715, Note_on_c, 0, 60, 0
2, 369722, Note_on_c, 0, 71, 86
2, 369723, Note_on_c, 0, 60, 64
2, 369723, Note_on_c, 0, 56, 73
2, 369991, Note_on_c, 0, 72, 0
2, 369998, Note_on_c, 0, 72, 99
2, 370268, Note_on_c, 0, 65, 0
2, 370268, Note_on_c, 0, 74, 100
2, 370268, Note_on_c, 0, 43, 69
2, 370277, Note_on_c, 0, 67, 74
2, 370279, Note_on_c, 0, 65, 70
2, 370308, Control_c, 0, 64, 0
2, 370318, Note_on_c, 0, 68, 0
2, 370318, Note_on_c, 0, 72, 0
2, 370318, Note_on_c, 0, 56, 0
2, 370319, Note_on_c, 0, 71, 0
2, 370319, Note_on_c, 0, 50, 0
2, 370319, Note_on_c, 0, 53, 0
2, 370321, Note_on_c, 0, 38, 0
2, 370337, Note_on_c, 0, 60, 0
2, 370475, Control_c, 0, 64, 127
2, 370554, Note_on_c, 0, 50, 59
2, 370817, Note_on_c, 0, 53, 61
2, 371070, Note_on_c, 0, 57, 63
2, 371354, Control_c, 0, 64, 0
2, 371355, Note_on_c, 0, 59, 70
2, 371381, Control_c, 0, 64, 127
2, 371619, Note_on_c, 0, 67, 0
2, 371628, Note_on_c, 0, 67, 85
2, 371904, Note_on_c, 0, 59, 0
2, 371914, Note_on_c, 0, 59, 76
2, 371918, Note_on_c, 0, 72, 98
2, 372176, Note_on_c, 0, 71, 84
2, 372395, Note_on_c, 0, 64, 69
2, 372426, Note_on_c, 0, 67, 0
2, 372430, Note_on_c, 0, 67, 79
2, 372433, Note_on_c, 0, 72, 0
2, 372444, Note_on_c, 0, 72, 96
2, 372452, Note_on_c, 0, 48, 73
2, 372482, Note_on_c, 0, 71, 0
2, 372482, Note_on_c, 0, 50, 0
2, 372483, Note_on_c, 0, 59, 0
2, 372483, Note_on_c, 0, 74, 0
2, 372483, Control_c, 0, 64, 0
2, 372483, Note_on_c, 0, 53, 0
2, 372484, Note_on_c, 0, 43, 0
2, 372495, Note_on_c, 0, 57, 0
2, 372495, Note_on_c, 0, 65, 0
2, 372625, Control_c, 0, 64, 127
2, 372716, Note_on_c, 0, 55, 62
2, 372846, Note_on_c, 0, 60, 56
2, 372986, Note_on_c, 0, 64, 0
2, 372991, Note_on_c, 0, 64, 62
2, 373102, Note_on_c, 0, 55, 0
2, 373107, Note_on_c, 0, 55, 64
2, 373240, Note_on_c, 0, 60, 0
2, 373246, Note_on_c, 0, 60, 61
2, 373370, Note_on_c, 0, 64, 0
2, 373375, Note_on_c, 0, 64, 65
2, 373511, Note_on_c, 0, 62, 61
2, 373512, Note_on_c, 0, 47, 55
2, 373512, Note_on_c, 0, 59, 56
2, 373519, Note_on_c, 0, 48, 0
2, 373520, Note_on_c, 0, 55, 0
2, 373520, Note_on_c, 0, 60, 0
2, 373520, Note_on_c, 0, 64, 0
2, 373522, Control_c, 0, 64, 0
2, 373555, Note_on_c, 0, 72, 0
2, 373632, Control_c, 0, 64, 127
2, 373774, Note_on_c, 0, 55, 54
2, 373893, Note_on_c, 0, 59, 0
2, 373899, Note_on_c, 0, 59, 56
2, 374031, Note_on_c, 0, 67, 0
2, 374040, Note_on_c, 0, 67, 71
2, 374062, Note_on_c, 0, 62, 0
2, 374069, Note_on_c, 0, 62, 53
2, 374177, Note_on_c, 0, 55, 0
2, 374186, Note_on_c, 0, 55, 67
2, 374315, Note_on_c, 0, 59, 0
2, 374319, Note_on_c, 0, 59, 64
2, 374407, Note_on_c, 0, 55, 0
2, 374412, Note_on_c, 0, 55, 65
2, 374538, Note_on_c, 0, 67, 0
2, 374548, Note_on_c, 0, 67, 69
2, 374553, Note_on_c, 0, 62, 0
2, 374560, Control_c, 0, 64, 0
2, 374562, Note_on_c, 0, 62, 54
2, 374563, Note_on_c, 0, 46, 60
2, 374564, Note_on_c, 0, 55, 0
2, 374564, Note_on_c, 0, 59, 0
2, 374565, Note_on_c, 0, 47, 0
2, 374684, Control_c, 0, 64, 127
2, 374799, Note_on_c, 0, 55, 62
2, 374938, Note_on_c, 0, 58, 61
2, 375062, Note_on_c, 0, 60, 69
2, 375183, Note_on_c, 0, 62, 0
2, 375192, Note_on_c, 0, 62, 61
2, 375318, Note_on_c, 0, 65, 79
2, 375329, Note_on_c, 0, 58, 0
2, 375335, Note_on_c, 0, 58, 69
2, 375454, Note_on_c, 0, 64, 75
2, 375568, Note_on_c, 0, 58, 0
2, 375569, Note_on_c, 0, 46, 0
2, 375569, Note_on_c, 0, 62, 0
2, 375570, Note_on_c, 0, 55, 0
2, 375570, Note_on_c, 0, 64, 0
2, 375570, Control_c, 0, 64, 0
2, 375582, Note_on_c, 0, 65, 0
2, 375590, Note_on_c, 0, 60, 0
2, 375590, Note_on_c, 0, 67, 0
2, 375591, Note_on_c, 0, 65, 69
2, 375593, Note_on_c, 0, 57, 75
2, 375596, Note_on_c, 0, 60, 69
2, 375599, Note_on_c, 0, 45, 66
2, 375667, Note_on_c, 0, 57, 0
2, 375720, Control_c, 0, 64, 127
2, 375853, Note_on_c, 0, 53, 53
2, 375892, Note_on_c, 0, 64, 67
2, 375966, Note_on_c, 0, 65, 0
2, 375977, Note_on_c, 0, 65, 60
2, 376020, Note_on_c, 0, 64, 0
2, 376027, Note_on_c, 0, 64, 69
2, 376089, Note_on_c, 0, 60, 0
2, 376100, Note_on_c, 0, 60, 72
2, 376117, Note_on_c, 0, 65, 0
2, 376118, Note_on_c, 0, 64, 0
2, 376121, Note_on_c, 0, 53, 0
2, 376128, Control_c, 0, 64, 0
2, 376227, Control_c, 0, 64, 127
2, 376229, Note_on_c, 0, 53, 59
2, 376356, Note_on_c, 0, 57, 65
2, 376396, Note_on_c, 0, 60, 0
2, 376400, Note_on_c, 0, 60, 66
2, 376504, Note_on_c, 0, 53, 0
2, 376508, Note_on_c, 0, 53, 54
2, 376515, Note_on_c, 0, 62, 70
2, 376607, Control_c, 0, 64, 0
2, 376610, Note_on_c, 0, 53, 0
2, 376610, Note_on_c, 0, 62, 0
2, 376610, Note_on_c, 0, 60, 0
2, 376612, Note_on_c, 0, 57, 0
2, 376617, Note_on_c, 0, 45, 0
2, 376645, Note_on_c, 0, 64, 82
2, 376646, Note_on_c, 0, 55, 68
2, 376646, Note_on_c, 0, 43, 61
2, 376656, Note_on_c, 0, 60, 60
2, 376828, Note_on_c, 0, 55, 0
2, 376886, Note_on_c, 0, 52, 66
2, 376896, Control_c, 0, 64, 127
2, 377024, Note_on_c, 0, 55, 66
2, 377151, Note_on_c, 0, 65, 81
2, 377157, Note_on_c, 0, 60, 0
2, 377161, Note_on_c, 0, 53, 64
2, 377163, Note_on_c, 0, 60, 61
2, 377272, Note_on_c, 0, 64, 0
2, 377282, Note_on_c, 0, 64, 79
2, 377379, Note_on_c, 0, 55, 0
2, 377387, Note_on_c, 0, 55, 74
2, 377388, Note_on_c, 0, 63, 77
2, 377418, Note_on_c, 0, 60, 0
2, 377423, Note_on_c, 0, 60, 31
2, 377518, Note_on_c, 0, 64, 0
2, 377522, Note_on_c, 0, 64, 76
2, 377624, Note_on_c, 0, 52, 0
2, 377625, Note_on_c, 0, 43, 0
2, 377625, Note_on_c, 0, 65, 0
2, 377626, Note_on_c, 0, 60, 0
2, 377627, Note_on_c, 0, 63, 0
2, 377627, Note_on_c, 0, 55, 0
2, 377627, Control_c, 0, 64, 0
2, 377627, Note_on_c, 0, 64, 0
2, 377648, Note_on_c, 0, 53, 0
2, 377664, Note_on_c, 0, 42, 67
2, 377665, Note_on_c, 0, 62, 80
2, 377667, Note_on_c, 0, 54, 72
2, 377812, Note_on_c, 0, 50, 51
2, 377856, Control_c, 0, 64, 127
2, 377925, Note_on_c, 0, 50, 0
2, 377926, Note_on_c, 0, 57, 73
2, 377932, Note_on_c, 0, 50, 46
2, 378048, Note_on_c, 0, 54, 0
2, 378058, Note_on_c, 0, 54, 57
2, 378182, Note_on_c, 0, 69, 79
2, 378209, Note_on_c, 0, 62, 0
2, 378213, Note_on_c, 0, 62, 37
2, 378301, Note_on_c, 0, 50, 0
2, 378310, Note_on_c, 0, 50, 63
2, 378432, Note_on_c, 0, 54, 0
2, 378432, Note_on_c, 0, 57, 0
2, 378437, Note_on_c, 0, 54, 63
2, 378441, Note_on_c, 0, 57, 79
2, 378562, Note_on_c, 0, 50, 0
2, 378573, Note_on_c, 0, 50, 49
2, 378685, Note_on_c, 0, 57, 0
2, 378691, Note_on_c, 0, 60, 79
2, 378694, Note_on_c, 0, 41, 71
2, 378695, Note_on_c, 0, 57, 75
2, 378699, Note_on_c, 0, 54, 0
2, 378700, Note_on_c, 0, 62, 0
2, 378701, Note_on_c, 0, 69, 0
2, 378704, Control_c, 0, 64, 0
2, 378708, Note_on_c, 0, 42, 0
2, 378723, Note_on_c, 0, 50, 0
2, 378892, Control_c, 0, 64, 127
2, 378950, Note_on_c, 0, 50, 67
2, 379069, Note_on_c, 0, 53, 64
2, 379202, Note_on_c, 0, 55, 69
2, 379341, Note_on_c, 0, 59, 72
2, 379461, Note_on_c, 0, 60, 0
2, 379470, Note_on_c, 0, 60, 77
2, 379484, Note_on_c, 0, 41, 0
2, 379484, Note_on_c, 0, 53, 0
2, 379493, Note_on_c, 0, 41, 60
2, 379495, Note_on_c, 0, 53, 62
2, 379591, Note_on_c, 0, 59, 0
2, 379595, Note_on_c, 0, 59, 68
2, 379729, Note_on_c, 0, 59, 0
2, 379732, Note_on_c, 0, 62, 82
2, 379737, Note_on_c, 0, 43, 71
2, 379740, Note_on_c, 0, 59, 70
2, 379748, Note_on_c, 0, 55, 0
2, 379748, Note_on_c, 0, 41, 0
2, 379748, Note_on_c, 0, 53, 0
2, 379748, Note_on_c, 0, 50, 0
2, 379748, Control_c, 0, 64, 0
2, 379768, Note_on_c, 0, 57, 0
2, 379768, Note_on_c, 0, 60, 0
2, 379929, Control_c, 0, 64, 127
2, 379956, Note_on_c, 0, 50, 70
2, 380063, Note_on_c, 0, 55, 76
2, 380225, Note_on_c, 0, 67, 91
2, 380436, Note_on_c, 0, 50, 0
2, 380442, Note_on_c, 0, 50, 71
2, 380536, Note_on_c, 0, 62, 0
2, 380542, Note_on_c, 0, 62, 70
2, 380613, Note_on_c, 0, 67, 0
2, 380621, Note_on_c, 0, 67, 78
2, 380673, Note_on_c, 0, 72, 76
2, 380746, Note_on_c, 0, 74, 101
2, 380749, Note_on_c, 0, 40, 84
2, 380749, Note_on_c, 0, 64, 85
2, 380782, Note_on_c, 0, 59, 0
2, 380787, Note_on_c, 0, 43, 0
2, 380787, Control_c, 0, 64, 0
2, 380794, Note_on_c, 0, 55, 0
2, 380800, Note_on_c, 0, 67, 0
2, 380801, Note_on_c, 0, 50, 0
2, 380805, Note_on_c, 0, 62, 0
2, 380904, Control_c, 0, 64, 127
2, 380958, Note_on_c, 0, 72, 0
2, 381010, Note_on_c, 0, 72, 86
2, 381016, Note_on_c, 0, 48, 72
2, 381132, Note_on_c, 0, 52, 70
2, 381267, Note_on_c, 0, 79, 95
2, 381283, Note_on_c, 0, 67, 77
2, 381381, Note_on_c, 0, 52, 0
2, 381392, Note_on_c, 0, 52, 63
2, 381519, Note_on_c, 0, 72, 0
2, 381529, Note_on_c, 0, 72, 93
2, 381531, Note_on_c, 0, 60, 84
2, 381656, Note_on_c, 0, 55, 77
2, 381788, Note_on_c, 0, 72, 0
2, 381791, Note_on_c, 0, 84, 102
2, 381792, Note_on_c, 0, 72, 92
2, 381936, Note_on_c, 0, 62, 74
2, 382049, Note_on_c, 0, 60, 0
2, 382054, Note_on_c, 0, 83, 94
2, 382058, Note_on_c, 0, 71, 81
2, 382060, Note_on_c, 0, 60, 64
2, 382156, Note_on_c, 0, 55, 0
2, 382164, Note_on_c, 0, 72, 0
2, 382164, Note_on_c, 0, 84, 0
2, 382167, Note_on_c, 0, 55, 75
2, 382172, Note_on_c, 0, 84, 91
2, 382175, Note_on_c, 0, 72, 83
2, 382302, Note_on_c, 0, 74, 0
2, 382305, Note_on_c, 0, 86, 94
2, 382308, Note_on_c, 0, 74, 89
2, 382310, Note_on_c, 0, 62, 0
2, 382318, Note_on_c, 0, 62, 72
2, 382410, Note_on_c, 0, 55, 0
2, 382421, Note_on_c, 0, 55, 59
2, 382425, Note_on_c, 0, 60, 0
2, 382432, Note_on_c, 0, 60, 66
2, 382517, Note_on_c, 0, 55, 0
2, 382525, Note_on_c, 0, 55, 77
2, 382548, Note_on_c, 0, 79, 0
2, 382556, Note_on_c, 0, 67, 0
2, 382557, Note_on_c, 0, 79, 93
2, 382563, Note_on_c, 0, 67, 75
2, 382668, Note_on_c, 0, 53, 54
2, 382679, Note_on_c, 0, 53, 0
2, 382832, Note_on_c, 0, 72, 0
2, 382843, Note_on_c, 0, 72, 95
2, 382845, Note_on_c, 0, 45, 94
2, 382984, Note_on_c, 0, 48, 0
2, 382985, Control_c, 0, 64, 0
2, 382986, Note_on_c, 0, 83, 0
2, 382987, Note_on_c, 0, 79, 0
2, 382987, Note_on_c, 0, 86, 0
2, 382987, Note_on_c, 0, 71, 0
2, 382987, Note_on_c, 0, 67, 0
2, 382987, Note_on_c, 0, 60, 0
2, 382987, Note_on_c, 0, 74, 0
2, 382988, Note_on_c, 0, 62, 0
2, 382989, Note_on_c, 0, 40, 0
2, 382993, Note_on_c, 0, 64, 0
2, 383001, Note_on_c, 0, 52, 0
2, 383009, Note_on_c, 0, 55, 0
2, 383009, Note_on_c, 0, 84, 0
2, 383088, Note_on_c, 0, 52, 78
2, 383101, Control_c, 0, 64, 127
2, 383136, Note_on_c, 0, 71, 72
2, 383214, Note_on_c, 0, 55, 78
2, 383349, Note_on_c, 0, 74, 93
2, 383359, Note_on_c, 0, 60, 68
2, 383460, Note_on_c, 0, 57, 70
2, 383610, Note_on_c, 0, 67, 86
2, 383612, Note_on_c, 0, 64, 80
2, 383723, Note_on_c, 0, 60, 0
2, 383732, Note_on_c, 0, 60, 73
2, 383854, Note_on_c, 0, 67, 0
2, 383860, Note_on_c, 0, 67, 80
2, 383861, Note_on_c, 0, 72, 0
2, 383865, Note_on_c, 0, 84, 101
2, 383866, Note_on_c, 0, 72, 89
2, 383976, Note_on_c, 0, 64, 0
2, 383981, Note_on_c, 0, 64, 78
2, 384107, Note_on_c, 0, 71, 0
2, 384117, Note_on_c, 0, 71, 88
2, 384118, Note_on_c, 0, 83, 96
2, 384119, Note_on_c, 0, 79, 67
2, 384230, Note_on_c, 0, 72, 0
2, 384230, Note_on_c, 0, 84, 0
2, 384240, Note_on_c, 0, 84, 97
2, 384241, Note_on_c, 0, 72, 94
2, 384268, Note_on_c, 0, 57, 0
2, 384277, Note_on_c, 0, 57, 64
2, 384353, Note_on_c, 0, 74, 0
2, 384363, Note_on_c, 0, 86, 96
2, 384364, Note_on_c, 0, 74, 89
2, 384445, Note_on_c, 0, 55, 0
2, 384453, Note_on_c, 0, 67, 0
2, 384455, Note_on_c, 0, 55, 62
2, 384457, Note_on_c, 0, 67, 72
2, 384637, Note_on_c, 0, 67, 0
2, 384637, Note_on_c, 0, 79, 0
2, 384642, Note_on_c, 0, 79, 96
2, 384647, Note_on_c, 0, 67, 80
2, 384898, Note_on_c, 0, 72, 0
2, 384908, Note_on_c, 0, 72, 95
2, 384911, Note_on_c, 0, 40, 84
2, 384915, Note_on_c, 0, 84, 0
2, 384916, Note_on_c, 0, 52, 0
2, 384916, Control_c, 0, 64, 0
2, 384916, Note_on_c, 0, 83, 0
2, 384917, Note_on_c, 0, 64, 0
2, 384917, Note_on_c, 0, 86, 0
2, 384917, Note_on_c, 0, 57, 0
2, 384917, Note_on_c, 0, 79, 0
2, 384917, Note_on_c, 0, 67, 0
2, 384918, Note_on_c, 0, 55, 0
2, 384918, Note_on_c, 0, 45, 0
2, 384929, Note_on_c, 0, 60, 0
2, 384929, Note_on_c, 0, 74, 0
2, 384936, Note_on_c, 0, 71, 0
2, 385013, Control_c, 0, 64, 127
2, 385047, Note_on_c, 0, 48, 69
2, 385173, Note_on_c, 0, 50, 74
2, 385187, Note_on_c, 0, 71, 78
2, 385308, Note_on_c, 0, 55, 66
2, 385439, Note_on_c, 0, 79, 93
2, 385585, Note_on_c, 0, 52, 68
2, 385692, Note_on_c, 0, 67, 82
2, 385723, Note_on_c, 0, 60, 71
2, 385850, Note_on_c, 0, 55, 0
2, 385860, Note_on_c, 0, 55, 72
2, 385950, Note_on_c, 0, 60, 0
2, 385955, Note_on_c, 0, 86, 99
2, 385961, Note_on_c, 0, 74, 86
2, 385961, Note_on_c, 0, 60, 76
2, 386102, Note_on_c, 0, 62, 69
2, 386196, Note_on_c, 0, 72, 0
2, 386201, Note_on_c, 0, 84, 90
2, 386207, Note_on_c, 0, 72, 87
2, 386211, Note_on_c, 0, 60, 0
2, 386221, Note_on_c, 0, 60, 70
2, 386327, Note_on_c, 0, 86, 0
2, 386334, Note_on_c, 0, 55, 0
2, 386334, Note_on_c, 0, 74, 0
2, 386336, Note_on_c, 0, 86, 82
2, 386340, Note_on_c, 0, 55, 70
2, 386345, Note_on_c, 0, 74, 67
2, 386461, Note_on_c, 0, 88, 95
2, 386465, Note_on_c, 0, 62, 0
2, 386467, Note_on_c, 0, 76, 87
2, 386476, Note_on_c, 0, 62, 82
2, 386580, Note_on_c, 0, 60, 0
2, 386584, Note_on_c, 0, 60, 76
2, 386634, Note_on_c, 0, 55, 0
2, 386644, Note_on_c, 0, 55, 59
2, 386715, Note_on_c, 0, 81, 86
2, 386717, Note_on_c, 0, 69, 75
2, 386726, Note_on_c, 0, 79, 0
2, 386731, Note_on_c, 0, 79, 73
2, 386964, Note_on_c, 0, 40, 0
2, 386965, Note_on_c, 0, 48, 0
2, 386966, Note_on_c, 0, 69, 0
2, 386966, Note_on_c, 0, 52, 0
2, 386967, Note_on_c, 0, 76, 0
2, 386967, Note_on_c, 0, 88, 0
2, 386967, Note_on_c, 0, 60, 0
2, 386967, Note_on_c, 0, 72, 0
2, 386967, Control_c, 0, 64, 0
2, 386967, Note_on_c, 0, 50, 0
2, 386967, Note_on_c, 0, 67, 0
2, 386967, Note_on_c, 0, 71, 0
2, 386967, Note_on_c, 0, 62, 0
2, 386967, Note_on_c, 0, 81, 0
2, 386967, Note_on_c, 0, 86, 0
2, 386967, Note_on_c, 0, 74, 0
2, 386972, Note_on_c, 0, 79, 0
2, 386972, Note_on_c, 0, 84, 0
2, 386972, Note_on_c, 0, 91, 97
2, 386976, Note_on_c, 0, 41, 81
2, 386976, Note_on_c, 0, 84, 82
2, 386979, Note_on_c, 0, 55, 0
2, 386983, Note_on_c, 0, 79, 80
2, 387064, Control_c, 0, 64, 127
2, 387111, Note_on_c, 0, 48, 75
2, 387220, Note_on_c, 0, 53, 74
2, 387319, Note_on_c, 0, 55, 86
2, 387469, Note_on_c, 0, 89, 97
2, 387471, Note_on_c, 0, 65, 84
2, 387471, Note_on_c, 0, 84, 0
2, 387475, Note_on_c, 0, 81, 82
2, 387475, Note_on_c, 0, 84, 78
2, 387476, Note_on_c, 0, 77, 89
2, 387608, Note_on_c, 0, 60, 79
2, 387715, Note_on_c, 0, 57, 83
2, 387732, Note_on_c, 0, 88, 87
2, 387743, Note_on_c, 0, 76, 82
2, 387863, Note_on_c, 0, 55, 0
2, 387874, Note_on_c, 0, 55, 79
2, 387997, Control_c, 0, 64, 0
2, 387997, Note_on_c, 0, 84, 0
2, 387997, Note_on_c, 0, 89, 0
2, 387997, Note_on_c, 0, 65, 0
2, 387997, Note_on_c, 0, 88, 0
2, 387998, Note_on_c, 0, 48, 0
2, 387998, Note_on_c, 0, 81, 0
2, 387998, Note_on_c, 0, 41, 0
2, 387998, Note_on_c, 0, 57, 0
2, 387998, Note_on_c, 0, 60, 0
2, 387998, Note_on_c, 0, 91, 0
2, 387998, Note_on_c, 0, 77, 0
2, 387998, Note_on_c, 0, 76, 0
2, 388004, Note_on_c, 0, 86, 97
2, 388004, Note_on_c, 0, 43, 85
2, 388011, Note_on_c, 0, 74, 94
2, 388016, Note_on_c, 0, 53, 0
2, 388016, Note_on_c, 0, 55, 0
2, 388016, Note_on_c, 0, 79, 0
2, 388018, Note_on_c, 0, 83, 90
2, 388022, Note_on_c, 0, 79, 81
2, 388101, Control_c, 0, 64, 127
2, 388129, Note_on_c, 0, 50, 80
2, 388243, Note_on_c, 0, 55, 79
2, 388364, Note_on_c, 0, 59, 80
2, 388492, Note_on_c, 0, 67, 89
2, 388500, Note_on_c, 0, 93, 105
2, 388502, Note_on_c, 0, 81, 100
2, 388761, Note_on_c, 0, 55, 0
2, 388769, Note_on_c, 0, 43, 0
2, 388769, Note_on_c, 0, 83, 0
2, 388772, Note_on_c, 0, 55, 89
2, 388773, Note_on_c, 0, 95, 99
2, 388774, Note_on_c, 0, 43, 79
2, 388779, Note_on_c, 0, 83, 96
2, 389014, Note_on_c, 0, 74, 0
2, 389014, Control_c, 0, 64, 0
2, 389014, Note_on_c, 0, 59, 0
2, 389014, Note_on_c, 0, 86, 0
2, 389015, Note_on_c, 0, 81, 0
2, 389015, Note_on_c, 0, 50, 0
2, 389016, Note_on_c, 0, 67, 0
2, 389016, Note_on_c, 0, 79, 0
2, 389016, Note_on_c, 0, 95, 0
2, 389018, Note_on_c, 0, 43, 0
2, 389030, Note_on_c, 0, 55, 0
2, 389030, Note_on_c, 0, 83, 0
2, 389037, Note_on_c, 0, 57, 92
2, 389040, Note_on_c, 0, 96, 101
2, 389042, Note_on_c, 0, 45, 93
2, 389042, Note_on_c, 0, 84, 95
2, 389042, Note_on_c, 0, 88, 88
2, 389091, Control_c, 0, 64, 127
2, 389299, Note_on_c, 0, 57, 0
2, 389306, Note_on_c, 0, 96, 0
2, 389307, Note_on_c, 0, 69, 81
2, 389310, Note_on_c, 0, 57, 86
2, 389314, Note_on_c, 0, 84, 0
2, 389317, Note_on_c, 0, 96, 96
2, 389318, Note_on_c, 0, 84, 93
2, 389355, Note_on_c, 0, 83, 35
2, 389360, Note_on_c, 0, 83, 0
2, 389541, Note_on_c, 0, 59, 81
2, 389574, Note_on_c, 0, 98, 106
2, 389575, Note_on_c, 0, 88, 0
2, 389581, Note_on_c, 0, 86, 92
2, 389583, Note_on_c, 0, 88, 81
2, 389790, Note_on_c, 0, 57, 0
2, 389790, Note_on_c, 0, 69, 0
2, 389800, Note_on_c, 0, 69, 78
2, 389801, Note_on_c, 0, 57, 76
2, 389817, Note_on_c, 0, 60, 75
2, 389817, Note_on_c, 0, 64, 71
2, 389821, Note_on_c, 0, 96, 0
2, 389829, Note_on_c, 0, 84, 0
2, 389832, Note_on_c, 0, 96, 94
2, 389833, Note_on_c, 0, 84, 92
2, 390067, Note_on_c, 0, 98, 0
2, 390069, Note_on_c, 0, 96, 0
2, 390069, Control_c, 0, 64, 0
2, 390070, Note_on_c, 0, 93, 0
2, 390070, Note_on_c, 0, 86, 0
2, 390070, Note_on_c, 0, 84, 0
2, 390071, Note_on_c, 0, 69, 0
2, 390071, Note_on_c, 0, 64, 0
2, 390071, Note_on_c, 0, 60, 0
2, 390071, Note_on_c, 0, 57, 0
2, 390074, Note_on_c, 0, 45, 0
2, 390074, Note_on_c, 0, 59, 0
2, 390081, Note_on_c, 0, 95, 99
2, 390082, Note_on_c, 0, 88, 0
2, 390086, Note_on_c, 0, 43, 80
2, 390089, Note_on_c, 0, 88, 83
2, 390093, Note_on_c, 0, 83, 92
2, 390094, Note_on_c, 0, 91, 86
2, 390320, Control_c, 0, 64, 127
2, 390339, Note_on_c, 0, 52, 70
2, 390597, Note_on_c, 0, 88, 0
2, 390599, Note_on_c, 0, 59, 70
2, 390602, Note_on_c, 0, 88, 93
2, 390607, Note_on_c, 0, 76, 87
2, 390858, Note_on_c, 0, 91, 0
2, 390863, Note_on_c, 0, 67, 74
2, 390868, Note_on_c, 0, 64, 73
2, 390868, Note_on_c, 0, 91, 91
2, 390873, Note_on_c, 0, 79, 83
2, 390873, Note_on_c, 0, 55, 60
2, 391047, Note_on_c, 0, 81, 81
2, 391096, Note_on_c, 0, 84, 72
2, 391111, Note_on_c, 0, 88, 0
2, 391113, Note_on_c, 0, 95, 0
2, 391114, Note_on_c, 0, 52, 0
2, 391115, Note_on_c, 0, 59, 0
2, 391115, Note_on_c, 0, 83, 0
2, 391115, Note_on_c, 0, 67, 0
2, 391115, Note_on_c, 0, 55, 0
2, 391116, Note_on_c, 0, 76, 0
2, 391116, Note_on_c, 0, 64, 0
2, 391116, Note_on_c, 0, 91, 0
2, 391116, Note_on_c, 0, 79, 0
2, 391116, Control_c, 0, 64, 0
2, 391121, Note_on_c, 0, 88, 80
2, 391127, Note_on_c, 0, 43, 0
2, 391138, Note_on_c, 0, 93, 103
2, 391141, Note_on_c, 0, 41, 86
2, 391144, Note_on_c, 0, 53, 83
2, 391188, Control_c, 0, 64, 127
2, 391388, Note_on_c, 0, 93, 0
2, 391395, Note_on_c, 0, 53, 0
2, 391395, Note_on_c, 0, 81, 0
2, 391395, Note_on_c, 0, 84, 0
2, 391395, Note_on_c, 0, 88, 0
2, 391398, Note_on_c, 0, 65, 64
2, 391399, Note_on_c, 0, 93, 98
2, 391399, Note_on_c, 0, 53, 69
2, 391401, Note_on_c, 0, 84, 73
2, 391402, Note_on_c, 0, 81, 87
2, 391407, Note_on_c, 0, 88, 62
2, 391669, Note_on_c, 0, 55, 63
2, 391669, Note_on_c, 0, 91, 93
2, 391671, Note_on_c, 0, 67, 60
2, 391675, Note_on_c, 0, 79, 81
2, 391680, Note_on_c, 0, 67, 0
2, 391702, Note_on_c, 0, 57, 48
2, 391910, Note_on_c, 0, 65, 0
2, 391918, Note_on_c, 0, 57, 0
2, 391918, Note_on_c, 0, 65, 66
2, 391928, Note_on_c, 0, 57, 69
2, 391930, Note_on_c, 0, 89, 93
2, 391932, Note_on_c, 0, 77, 80
2, 392175, Note_on_c, 0, 57, 0
2, 392176, Note_on_c, 0, 93, 0
2, 392176, Note_on_c, 0, 53, 0
2, 392176, Note_on_c, 0, 77, 0
2, 392176, Note_on_c, 0, 89, 0
2, 392176, Note_on_c, 0, 41, 0
2, 392176, Note_on_c, 0, 81, 0
2, 392177, Note_on_c, 0, 55, 0
2, 392177, Note_on_c, 0, 65, 0
2, 392177, Control_c, 0, 64, 0
2, 392186, Note_on_c, 0, 91, 0
2, 392194, Note_on_c, 0, 79, 0
2, 392194, Note_on_c, 0, 84, 0
2, 392197, Note_on_c, 0, 91, 98
2, 392197, Note_on_c, 0, 40, 82
2, 392199, Note_on_c, 0, 84, 86
2, 392204, Note_on_c, 0, 79, 81
2, 392256, Control_c, 0, 64, 127
2, 392458, Note_on_c, 0, 52, 60
2, 392710, Note_on_c, 0, 55, 77
2, 392962, Note_on_c, 0, 91, 0
2, 392965, Note_on_c, 0, 64, 65
2, 392966, Note_on_c, 0, 60, 66
2, 392970, Note_on_c, 0, 79, 0
2, 392973, Note_on_c, 0, 91, 88
2, 392978, Note_on_c, 0, 79, 80
2, 393100, Note_on_c, 0, 79, 0
2, 393100, Note_on_c, 0, 91, 0
2, 393105, Note_on_c, 0, 91, 90
2, 393109, Note_on_c, 0, 79, 86
2, 393196, Note_on_c, 0, 52, 0
2, 393196, Note_on_c, 0, 84, 0
2, 393197, Note_on_c, 0, 60, 0
2, 393197, Note_on_c, 0, 64, 0
2, 393197, Note_on_c, 0, 40, 0
2, 393197, Note_on_c, 0, 55, 0
2, 393199, Control_c, 0, 64, 0
2, 393200, Note_on_c, 0, 88, 0
2, 393223, Note_on_c, 0, 91, 0
2, 393231, Note_on_c, 0, 79, 0
2, 393232, Note_on_c, 0, 51, 79
2, 393232, Note_on_c, 0, 39, 82
2, 393233, Note_on_c, 0, 91, 93
2, 393238, Note_on_c, 0, 79, 81
2, 393242, Note_on_c, 0, 87, 81
2, 393242, Note_on_c, 0, 84, 80
2, 393285, Control_c, 0, 64, 127
2, 393500, Note_on_c, 0, 39, 0
2, 393500, Note_on_c, 0, 51, 0
2, 393503, Note_on_c, 0, 89, 89
2, 393503, Note_on_c, 0, 77, 79
2, 393506, Note_on_c, 0, 51, 73
2, 393510, Note_on_c, 0, 39, 63
2, 393753, Note_on_c, 0, 89, 0
2, 393761, Note_on_c, 0, 77, 0
2, 393765, Note_on_c, 0, 89, 96
2, 393765, Note_on_c, 0, 55, 78
2, 393768, Note_on_c, 0, 84, 0
2, 393772, Note_on_c, 0, 77, 89
2, 393773, Note_on_c, 0, 84, 79
2, 394007, Note_on_c, 0, 87, 0
2, 394017, Note_on_c, 0, 87, 89
2, 394018, Note_on_c, 0, 75, 76
2, 394244, Note_on_c, 0, 39, 0
2, 394245, Note_on_c, 0, 87, 0
2, 394245, Control_c, 0, 64, 0
2, 394245, Note_on_c, 0, 51, 0
2, 394247, Note_on_c, 0, 75, 0
2, 394247, Note_on_c, 0, 55, 0
2, 394247, Note_on_c, 0, 79, 0
2, 394252, Note_on_c, 0, 91, 0
2, 394260, Note_on_c, 0, 89, 0
2, 394268, Note_on_c, 0, 77, 0
2, 394268, Note_on_c, 0, 84, 0
2, 394268, Note_on_c, 0, 89, 98
2, 394272, Note_on_c, 0, 50, 74
2, 394273, Note_on_c, 0, 38, 81
2, 394274, Note_on_c, 0, 84, 86
2, 394274, Note_on_c, 0, 77, 86
2, 394329, Control_c, 0, 64, 127
2, 394513, Note_on_c, 0, 38, 0
2, 394513, Note_on_c, 0, 50, 0
2, 394518, Note_on_c, 0, 50, 78
2, 394521, Note_on_c, 0, 38, 71
2, 394775, Note_on_c, 0, 84, 0
2, 394779, Note_on_c, 0, 57, 77
2, 394781, Note_on_c, 0, 84, 93
2, 394784, Note_on_c, 0, 72, 88
2, 394787, Note_on_c, 0, 60, 73
2, 395028, Note_on_c, 0, 77, 0
2, 395028, Note_on_c, 0, 89, 0
2, 395034, Note_on_c, 0, 89, 93
2, 395039, Note_on_c, 0, 77, 84
2, 395283, Control_c, 0, 64, 0
2, 395286, Note_on_c, 0, 84, 0
2, 395287, Note_on_c, 0, 50, 0
2, 395287, Note_on_c, 0, 60, 0
2, 395287, Note_on_c, 0, 89, 0
2, 395288, Note_on_c, 0, 77, 0
2, 395288, Note_on_c, 0, 57, 0
2, 395290, Note_on_c, 0, 38, 0
2, 395297, Note_on_c, 0, 72, 0
2, 395308, Note_on_c, 0, 37, 84
2, 395308, Note_on_c, 0, 91, 104
2, 395310, Note_on_c, 0, 49, 84
2, 395314, Note_on_c, 0, 87, 81
2, 395315, Note_on_c, 0, 79, 87
2, 395323, Note_on_c, 0, 83, 82
2, 395358, Control_c, 0, 64, 127
2, 395558, Note_on_c, 0, 49, 0
2, 395563, Note_on_c, 0, 49, 52
2, 395826, Note_on_c, 0, 65, 84
2, 395833, Note_on_c, 0, 59, 72
2, 395838, Note_on_c, 0, 56, 75
2, 396049, Note_on_c, 0, 49, 0
2, 396060, Note_on_c, 0, 49, 76
2, 396085, Note_on_c, 0, 92, 101
2, 396090, Note_on_c, 0, 80, 91
2, 396357, Note_on_c, 0, 91, 0
2, 396366, Note_on_c, 0, 91, 102
2, 396372, Note_on_c, 0, 79, 0
2, 396372, Note_on_c, 0, 83, 0
2, 396374, Note_on_c, 0, 43, 88
2, 396375, Note_on_c, 0, 55, 89
2, 396378, Note_on_c, 0, 79, 89
2, 396379, Note_on_c, 0, 83, 80
2, 396384, Note_on_c, 0, 87, 0
2, 396384, Note_on_c, 0, 37, 0
2, 396387, Note_on_c, 0, 80, 0
2, 396387, Note_on_c, 0, 56, 0
2, 396388, Note_on_c, 0, 92, 0
2, 396388, Note_on_c, 0, 59, 0
2, 396388, Note_on_c, 0, 65, 0
2, 396391, Control_c, 0, 64, 0
2, 396395, Note_on_c, 0, 49, 0
2, 396526, Control_c, 0, 64, 127
2, 396637, Note_on_c, 0, 50, 81
2, 396898, Note_on_c, 0, 81, 106
2, 396902, Note_on_c, 0, 69, 95
2, 397117, Note_on_c, 0, 43, 0
2, 397127, Note_on_c, 0, 43, 60
2, 397163, Note_on_c, 0, 83, 0
2, 397167, Note_on_c, 0, 83, 101
2, 397171, Note_on_c, 0, 71, 94
2, 397370, Note_on_c, 0, 91, 0
2, 397377, Note_on_c, 0, 55, 0
2, 397377, Note_on_c, 0, 71, 0
2, 397377, Note_on_c, 0, 50, 0
2, 397377, Note_on_c, 0, 83, 0
2, 397377, Note_on_c, 0, 81, 0
2, 397377, Note_on_c, 0, 69, 0
2, 397377, Note_on_c, 0, 79, 0
2, 397379, Control_c, 0, 64, 0
2, 397386, Note_on_c, 0, 43, 0
2, 397414, Note_on_c, 0, 33, 88
2, 397414, Note_on_c, 0, 45, 92
2, 397415, Note_on_c, 0, 84, 102
2, 397419, Note_on_c, 0, 72, 99
2, 397420, Note_on_c, 0, 76, 91
2, 397450, Note_on_c, 0, 45, 0
2, 397455, Control_c, 0, 64, 127
2, 397509, Note_on_c, 0, 33, 0
2, 397573, Note_on_c, 0, 45, 72
2, 397708, Note_on_c, 0, 72, 0
2, 397708, Note_on_c, 0, 84, 0
2, 397712, Note_on_c, 0, 52, 70
2, 397713, Note_on_c, 0, 84, 87
2, 397719, Note_on_c, 0, 72, 78
2, 397747, Note_on_c, 0, 76, 0
2, 397751, Note_on_c, 0, 76, 46
2, 397829, Note_on_c, 0, 57, 74
2, 397966, Note_on_c, 0, 59, 77
2, 397973, Note_on_c, 0, 86, 98
2, 397984, Note_on_c, 0, 74, 85
2, 397985, Note_on_c, 0, 76, 0
2, 397994, Note_on_c, 0, 76, 77
2, 398103, Note_on_c, 0, 60, 77
2, 398231, Note_on_c, 0, 72, 0
2, 398231, Note_on_c, 0, 76, 0
2, 398231, Note_on_c, 0, 84, 0
2, 398235, Note_on_c, 0, 84, 92
2, 398236, Note_on_c, 0, 64, 78
2, 398238, Note_on_c, 0, 72, 90
2, 398239, Note_on_c, 0, 76, 87
2, 398352, Note_on_c, 0, 69, 69
2, 398481, Control_c, 0, 64, 0
2, 398481, Note_on_c, 0, 83, 102
2, 398484, Note_on_c, 0, 76, 0
2, 398486, Note_on_c, 0, 59, 0
2, 398487, Note_on_c, 0, 74, 0
2, 398487, Note_on_c, 0, 52, 0
2, 398487, Note_on_c, 0, 86, 0
2, 398487, Note_on_c, 0, 72, 0
2, 398487, Note_on_c, 0, 84, 0
2, 398487, Note_on_c, 0, 64, 0
2, 398488, Note_on_c, 0, 57, 0
2, 398488, Note_on_c, 0, 71, 94
2, 398489, Note_on_c, 0, 76, 76
2, 398499, Note_on_c, 0, 60, 0
2, 398499, Note_on_c, 0, 69, 0
2, 398500, Note_on_c, 0, 55, 78
2, 398502, Note_on_c, 0, 43, 76
2, 398507, Note_on_c, 0, 45, 0
2, 398517, Note_on_c, 0, 45, 60
2, 398561, Control_c, 0, 64, 127
2, 398599, Note_on_c, 0, 76, 0
2, 398611, Note_on_c, 0, 79, 80
2, 398615, Note_on_c, 0, 45, 0
2, 398728, Note_on_c, 0, 76, 81
2, 398845, Note_on_c, 0, 71, 0
2, 398849, Note_on_c, 0, 71, 75
2, 398999, Note_on_c, 0, 76, 0
2, 399005, Note_on_c, 0, 76, 96
2, 399010, Note_on_c, 0, 64, 88
2, 399121, Note_on_c, 0, 55, 0
2, 399132, Note_on_c, 0, 55, 76
2, 399244, Note_on_c, 0, 79, 0
2, 399250, Note_on_c, 0, 79, 88
2, 399261, Note_on_c, 0, 67, 79
2, 399266, Note_on_c, 0, 52, 74
2, 399352, Note_on_c, 0, 43, 0
2, 399361, Note_on_c, 0, 43, 76
2, 399478, Note_on_c, 0, 83, 0
2, 399478, Control_c, 0, 64, 0
2, 399478, Note_on_c, 0, 52, 0
2, 399478, Note_on_c, 0, 71, 0
2, 399478, Note_on_c, 0, 64, 0
2, 399478, Note_on_c, 0, 43, 0
2, 399478, Note_on_c, 0, 79, 0
2, 399479, Note_on_c, 0, 76, 0
2, 399490, Note_on_c, 0, 55, 0
2, 399490, Note_on_c, 0, 67, 0
2, 399518, Note_on_c, 0, 81, 93
2, 399519, Note_on_c, 0, 41, 82
2, 399523, Note_on_c, 0, 29, 84
2, 399524, Note_on_c, 0, 69, 86
2, 399525, Note_on_c, 0, 77, 83
2, 399525, Note_on_c, 0, 72, 88
2, 399559, Control_c, 0, 64, 127
2, 399651, Note_on_c, 0, 41, 0
2, 399657, Note_on_c, 0, 41, 64
2, 399790, Note_on_c, 0, 69, 0
2, 399790, Note_on_c, 0, 72, 0
2, 399790, Note_on_c, 0, 81, 0
2, 399794, Note_on_c, 0, 81, 89
2, 399796, Note_on_c, 0, 72, 84
2, 399797, Note_on_c, 0, 48, 68
2, 399798, Note_on_c, 0, 69, 73
2, 399923, Note_on_c, 0, 53, 75
2, 400054, Note_on_c, 0, 79, 95
2, 400056, Note_on_c, 0, 67, 85
2, 400066, Note_on_c, 0, 55, 72
2, 400180, Note_on_c, 0, 57, 75
2, 400296, Note_on_c, 0, 77, 0
2, 400301, Note_on_c, 0, 77, 99
2, 400304, Note_on_c, 0, 53, 0
2, 400308, Note_on_c, 0, 60, 75
2, 400308, Note_on_c, 0, 65, 84
2, 400538, Control_c, 0, 64, 0
2, 400540, Note_on_c, 0, 60, 0
2, 400540, Note_on_c, 0, 69, 0
2, 400540, Note_on_c, 0, 41, 0
2, 400540, Note_on_c, 0, 65, 0
2, 400540, Note_on_c, 0, 57, 0
2, 400540, Note_on_c, 0, 81, 0
2, 400540, Note_on_c, 0, 55, 0
2, 400541, Note_on_c, 0, 48, 0
2, 400541, Note_on_c, 0, 72, 0
2, 400542, Note_on_c, 0, 77, 0
2, 400542, Note_on_c, 0, 29, 0
2, 400558, Note_on_c, 0, 79, 0
2, 400565, Note_on_c, 0, 67, 0
2, 400566, Note_on_c, 0, 79, 95
2, 400573, Note_on_c, 0, 67, 78
2, 400575, Note_on_c, 0, 52, 75
2, 400576, Note_on_c, 0, 40, 76
2, 400634, Control_c, 0, 64, 127
2, 400698, Note_on_c, 0, 76, 81
2, 400817, Note_on_c, 0, 72, 82
2, 400942, Note_on_c, 0, 67, 0
2, 400947, Note_on_c, 0, 67, 71
2, 401080, Note_on_c, 0, 52, 0
2, 401081, Note_on_c, 0, 64, 78
2, 401091, Note_on_c, 0, 52, 60
2, 401193, Note_on_c, 0, 60, 73
2, 401295, Note_on_c, 0, 55, 54
2, 401333, Note_on_c, 0, 72, 0
2, 401339, Note_on_c, 0, 72, 87
2, 401379, Note_on_c, 0, 52, 0
2, 401385, Note_on_c, 0, 52, 66
2, 401456, Note_on_c, 0, 79, 0
2, 401468, Note_on_c, 0, 79, 82
2, 401587, Note_on_c, 0, 79, 0
2, 401597, Note_on_c, 0, 79, 97
2, 401606, Control_c, 0, 64, 0
2, 401608, Note_on_c, 0, 64, 0
2, 401609, Note_on_c, 0, 52, 0
2, 401609, Note_on_c, 0, 60, 0
2, 401610, Note_on_c, 0, 67, 0
2, 401610, Note_on_c, 0, 72, 0
2, 401610, Note_on_c, 0, 55, 0
2, 401610, Note_on_c, 0, 76, 0
2, 401612, Note_on_c, 0, 40, 0
2, 401615, Note_on_c, 0, 72, 73
2, 401618, Note_on_c, 0, 67, 69
2, 401620, Note_on_c, 0, 39, 78
2, 401621, Note_on_c, 0, 75, 67
2, 401702, Control_c, 0, 64, 127
2, 401756, Note_on_c, 0, 48, 60
2, 401871, Note_on_c, 0, 77, 83
2, 401874, Note_on_c, 0, 65, 75
2, 401879, Note_on_c, 0, 51, 58
2, 402002, Note_on_c, 0, 55, 64
2, 402109, Note_on_c, 0, 77, 0
2, 402113, Note_on_c, 0, 77, 95
2, 402117, Note_on_c, 0, 65, 0
2, 402121, Note_on_c, 0, 60, 72
2, 402123, Note_on_c, 0, 65, 74
2, 402216, Note_on_c, 0, 55, 0
2, 402222, Note_on_c, 0, 55, 83
2, 402370, Note_on_c, 0, 75, 0
2, 402375, Note_on_c, 0, 75, 89
2, 402378, Note_on_c, 0, 39, 0
2, 402382, Note_on_c, 0, 39, 75
2, 402385, Note_on_c, 0, 63, 71
2, 402493, Note_on_c, 0, 51, 0
2, 402499, Note_on_c, 0, 51, 60
2, 402624, Note_on_c, 0, 77, 0
2, 402626, Control_c, 0, 64, 0
2, 402627, Note_on_c, 0, 48, 0
2, 402627, Note_on_c, 0, 63, 0
2, 402628, Note_on_c, 0, 51, 0
2, 402628, Note_on_c, 0, 39, 0
2, 402628, Note_on_c, 0, 75, 0
2, 402628, Note_on_c, 0, 55, 0
2, 402630, Note_on_c, 0, 67, 0
2, 402630, Note_on_c, 0, 38, 87
2, 402631, Note_on_c, 0, 72, 0
2, 402634, Note_on_c, 0, 77, 89
2, 402639, Note_on_c, 0, 65, 0
2, 402643, Note_on_c, 0, 72, 78
2, 402645, Note_on_c, 0, 65, 79
2, 402654, Note_on_c, 0, 79, 0
2, 402662, Note_on_c, 0, 60, 0
2, 402723, Control_c, 0, 64, 127
2, 402776, Note_on_c, 0, 48, 68
2, 402888, Note_on_c, 0, 50, 46
2, 402995, Note_on_c, 0, 53, 68
2, 403126, Note_on_c, 0, 60, 79
2, 403138, Note_on_c, 0, 72, 0
2, 403143, Note_on_c, 0, 79, 94
2, 403147, Note_on_c, 0, 72, 75
2, 403148, Note_on_c, 0, 67, 84
2, 403253, Note_on_c, 0, 53, 0
2, 403263, Note_on_c, 0, 53, 70
2, 403407, Note_on_c, 0, 38, 0
2, 403407, Note_on_c, 0, 72, 0
2, 403408, Note_on_c, 0, 80, 99
2, 403411, Note_on_c, 0, 38, 81
2, 403413, Note_on_c, 0, 68, 85
2, 403416, Note_on_c, 0, 72, 68
2, 403514, Note_on_c, 0, 50, 0
2, 403518, Note_on_c, 0, 50, 74
2, 403672, Control_c, 0, 64, 0
2, 403679, Note_on_c, 0, 82, 103
2, 403682, Note_on_c, 0, 72, 0
2, 403682, Note_on_c, 0, 67, 0
2, 403683, Note_on_c, 0, 60, 0
2, 403683, Note_on_c, 0, 80, 0
2, 403683, Note_on_c, 0, 50, 0
2, 403683, Note_on_c, 0, 77, 0
2, 403684, Note_on_c, 0, 79, 0
2, 403684, Note_on_c, 0, 48, 0
2, 403684, Note_on_c, 0, 65, 0
2, 403685, Note_on_c, 0, 38, 0
2, 403686, Note_on_c, 0, 73, 85
2, 403686, Note_on_c, 0, 37, 84
2, 403686, Note_on_c, 0, 70, 92
2, 403688, Note_on_c, 0, 77, 79
2, 403691, Note_on_c, 0, 68, 0
2, 403706, Note_on_c, 0, 53, 0
2, 403760, Control_c, 0, 64, 127
2, 403818, Note_on_c, 0, 49, 72
2, 403944, Note_on_c, 0, 49, 0
2, 403949, Note_on_c, 0, 49, 57
2, 404041, Note_on_c, 0, 54, 72
2, 404041, Note_on_c, 0, 80, 95
2, 404048, Note_on_c, 0, 68, 83
2, 404089, Note_on_c, 0, 53, 58
2, 404172, Note_on_c, 0, 61, 81
2, 404298, Note_on_c, 0, 80, 0
2, 404300, Note_on_c, 0, 58, 76
2, 404305, Note_on_c, 0, 58, 0
2, 404305, Note_on_c, 0, 68, 0
2, 404305, Note_on_c, 0, 73, 0
2, 404308, Note_on_c, 0, 80, 103
2, 404310, Note_on_c, 0, 73, 89
2, 404312, Note_on_c, 0, 68, 93
2, 404313, Note_on_c, 0, 77, 0
2, 404315, Control_c, 0, 64, 0
2, 404317, Note_on_c, 0, 77, 76
2, 404367, Control_c, 0, 64, 127
2, 404436, Note_on_c, 0, 37, 0
2, 404443, Note_on_c, 0, 37, 76
2, 404533, Note_on_c, 0, 79, 95
2, 404540, Note_on_c, 0, 67, 83
2, 404695, Control_c, 0, 64, 0
2, 404697, Note_on_c, 0, 77, 0
2, 404698, Note_on_c, 0, 82, 0
2, 404698, Note_on_c, 0, 53, 0
2, 404698, Note_on_c, 0, 61, 0
2, 404698, Note_on_c, 0, 73, 0
2, 404698, Note_on_c, 0, 70, 0
2, 404699, Note_on_c, 0, 54, 0
2, 404699, Note_on_c, 0, 49, 0
2, 404699, Note_on_c, 0, 79, 0
2, 404700, Note_on_c, 0, 67, 0
2, 404705, Note_on_c, 0, 80, 0
2, 404709, Note_on_c, 0, 80, 101
2, 404710, Note_on_c, 0, 36, 87
2, 404712, Note_on_c, 0, 68, 0
2, 404714, Note_on_c, 0, 72, 90
2, 404717, Note_on_c, 0, 68, 93
2, 404720, Note_on_c, 0, 37, 0
2, 404722, Note_on_c, 0, 76, 80
2, 404797, Control_c, 0, 64, 127
2, 404818, Note_on_c, 0, 48, 68
2, 404851, Note_on_c, 0, 36, 0
2, 404955, Note_on_c, 0, 52, 72
2, 405086, Note_on_c, 0, 55, 81
2, 405232, Note_on_c, 0, 40, 91
2, 405239, Note_on_c, 0, 79, 99
2, 405242, Note_on_c, 0, 67, 88
2, 405358, Note_on_c, 0, 48, 0
2, 405364, Note_on_c, 0, 48, 77
2, 405427, Note_on_c, 0, 80, 0
2, 405432, Note_on_c, 0, 80, 96
2, 405434, Note_on_c, 0, 68, 0
2, 405439, Note_on_c, 0, 68, 90
2, 405480, Note_on_c, 0, 52, 0
2, 405490, Note_on_c, 0, 52, 79
2, 405614, Note_on_c, 0, 82, 103
2, 405619, Note_on_c, 0, 76, 0
2, 405630, Note_on_c, 0, 76, 61
2, 405631, Note_on_c, 0, 70, 84
2, 405795, Note_on_c, 0, 72, 0
2, 405795, Note_on_c, 0, 80, 0
2, 405798, Note_on_c, 0, 84, 102
2, 405798, Note_on_c, 0, 41, 85
2, 405800, Note_on_c, 0, 72, 96
2, 405801, Note_on_c, 0, 80, 83
2, 405802, Note_on_c, 0, 77, 88
2, 405816, Control_c, 0, 64, 0
2, 405816, Note_on_c, 0, 68, 0
2, 405816, Note_on_c, 0, 82, 0
2, 405817, Note_on_c, 0, 55, 0
2, 405817, Note_on_c, 0, 67, 0
2, 405817, Note_on_c, 0, 76, 0
2, 405818, Note_on_c, 0, 79, 0
2, 405820, Note_on_c, 0, 70, 0
2, 405822, Note_on_c, 0, 48, 0
2, 405849, Note_on_c, 0, 40, 0
2, 405849, Note_on_c, 0, 52, 0
2, 406010, Control_c, 0, 64, 127
2, 406076, Note_on_c, 0, 48, 65
2, 406198, Note_on_c, 0, 53, 67
2, 406333, Note_on_c, 0, 53, 0
2, 406334, Note_on_c, 0, 55, 57
2, 406337, Note_on_c, 0, 53, 53
2, 406445, Note_on_c, 0, 56, 73
2, 406564, Note_on_c, 0, 60, 63
2, 406661, Note_on_c, 0, 65, 74
2, 406817, Note_on_c, 0, 60, 0
2, 406817, Note_on_c, 0, 72, 0
2, 406822, Note_on_c, 0, 72, 86
2, 406825, Note_on_c, 0, 27, 81
2, 406827, Note_on_c, 0, 39, 81
2, 406827, Note_on_c, 0, 60, 72
2, 406832, Note_on_c, 0, 27, 0
2, 406833, Note_on_c, 0, 68, 63
2, 406836, Control_c, 0, 64, 0
2, 406836, Note_on_c, 0, 48, 0
2, 406839, Note_on_c, 0, 53, 0
2, 406840, Note_on_c, 0, 56, 0
2, 406841, Note_on_c, 0, 65, 0
2, 406844, Note_on_c, 0, 77, 0
2, 406844, Note_on_c, 0, 41, 0
2, 406845, Note_on_c, 0, 84, 0
2, 406863, Note_on_c, 0, 55, 0
2, 406924, Control_c, 0, 64, 127
2, 406963, Note_on_c, 0, 60, 0
2, 407094, Note_on_c, 0, 55, 80
2, 407116, Note_on_c, 0, 80, 0
2, 407362, Note_on_c, 0, 68, 0
2, 407366, Note_on_c, 0, 80, 103
2, 407370, Note_on_c, 0, 68, 92
2, 407371, Note_on_c, 0, 51, 65
2, 407628, Note_on_c, 0, 82, 102
2, 407652, Note_on_c, 0, 70, 78
2, 407884, Control_c, 0, 64, 0
2, 407886, Note_on_c, 0, 39, 0
2, 407887, Note_on_c, 0, 51, 0
2, 407887, Note_on_c, 0, 55, 0
2, 407887, Note_on_c, 0, 68, 0
2, 407888, Note_on_c, 0, 82, 0
2, 407888, Note_on_c, 0, 70, 0
2, 407900, Note_on_c, 0, 72, 0
2, 407900, Note_on_c, 0, 80, 0
2, 407903, Note_on_c, 0, 84, 100
2, 407906, Note_on_c, 0, 38, 91
2, 407908, Note_on_c, 0, 72, 90
2, 407911, Note_on_c, 0, 80, 86
2, 407911, Note_on_c, 0, 77, 86
2, 407984, Control_c, 0, 64, 127
2, 408181, Note_on_c, 0, 50, 65
2, 408332, Note_on_c, 0, 53, 70
2, 408451, Note_on_c, 0, 56, 75
2, 408571, Note_on_c, 0, 60, 74
2, 408714, Note_on_c, 0, 65, 72
2, 408836, Note_on_c, 0, 68, 71
2, 408975, Note_on_c, 0, 72, 0
2, 408980, Note_on_c, 0, 72, 90
2, 409236, Note_on_c, 0, 65, 0
2, 409236, Note_on_c, 0, 84, 0
2, 409241, Note_on_c, 0, 84, 96
2, 409242, Note_on_c, 0, 65, 73
2, 409244, Note_on_c, 0, 72, 0
2, 409250, Note_on_c, 0, 72, 83
2, 409251, Note_on_c, 0, 80, 0
2, 409258, Note_on_c, 0, 80, 81
2, 409520, Note_on_c, 0, 60, 0
2, 409531, Note_on_c, 0, 60, 70
2, 409533, Note_on_c, 0, 83, 99
2, 409538, Note_on_c, 0, 71, 87
2, 409551, Note_on_c, 0, 77, 0
2, 409558, Note_on_c, 0, 77, 45
2, 409804, Note_on_c, 0, 84, 0
2, 409812, Note_on_c, 0, 56, 0
2, 409812, Note_on_c, 0, 72, 0
2, 409815, Note_on_c, 0, 84, 95
2, 409817, Note_on_c, 0, 56, 71
2, 409820, Note_on_c, 0, 77, 0
2, 409823, Note_on_c, 0, 72, 87
2, 409829, Note_on_c, 0, 77, 62
2, 410112, Note_on_c, 0, 80, 0
2, 410119, Note_on_c, 0, 86, 97
2, 410119, Note_on_c, 0, 77, 0
2, 410123, Note_on_c, 0, 80, 87
2, 410123, Note_on_c, 0, 77, 82
2, 410126, Note_on_c, 0, 43, 74
2, 410128, Note_on_c, 0, 74, 89
2, 410164, Control_c, 0, 64, 0
2, 410168, Note_on_c, 0, 71, 0
2, 410168, Note_on_c, 0, 84, 0
2, 410168, Note_on_c, 0, 50, 0
2, 410168, Note_on_c, 0, 56, 0
2, 410169, Note_on_c, 0, 83, 0
2, 410169, Note_on_c, 0, 53, 0
2, 410173, Note_on_c, 0, 38, 0
2, 410181, Note_on_c, 0, 60, 0
2, 410181, Note_on_c, 0, 65, 0
2, 410181, Note_on_c, 0, 68, 0
2, 410181, Note_on_c, 0, 72, 0
2, 410421, Note_on_c, 0, 50, 59
2, 410434, Control_c, 0, 64, 127
2, 410553, Note_on_c, 0, 53, 60
2, 410672, Note_on_c, 0, 56, 60
2, 410795, Note_on_c, 0, 53, 0
2, 410805, Note_on_c, 0, 53, 49
2, 410895, Note_on_c, 0, 56, 0
2, 410899, Note_on_c, 0, 56, 57
2, 411173, Note_on_c, 0, 62, 61
2, 411321, Note_on_c, 0, 60, 57
2, 411417, Note_on_c, 0, 62, 0
2, 411428, Note_on_c, 0, 62, 58
2, 411575, Note_on_c, 0, 65, 62
2, 411721, Note_on_c, 0, 68, 65
2, 411871, Note_on_c, 0, 72, 72
2, 412047, Note_on_c, 0, 74, 0
2, 412056, Note_on_c, 0, 74, 70
2, 412208, Note_on_c, 0, 77, 0
2, 412220, Note_on_c, 0, 77, 62
2, 412508, Note_on_c, 0, 62, 0
2, 412508, Note_on_c, 0, 74, 0
2, 412513, Note_on_c, 0, 62, 43
2, 412518, Note_on_c, 0, 74, 54
2, 412519, Note_on_c, 0, 55, 52
2, 412520, Note_on_c, 0, 71, 45
2, 412561, Note_on_c, 0, 86, 0
2, 412571, Note_on_c, 0, 56, 0
2, 412571, Note_on_c, 0, 50, 0
2, 412572, Note_on_c, 0, 53, 0
2, 412572, Note_on_c, 0, 72, 0
2, 412572, Note_on_c, 0, 68, 0
2, 412573, Note_on_c, 0, 65, 0
2, 412573, Note_on_c, 0, 60, 0
2, 412592, Note_on_c, 0, 77, 0
2, 412600, Note_on_c, 0, 43, 0
2, 412601, Control_c, 0, 64, 0
2, 412800, Note_on_c, 0, 80, 0
2, 413283, Control_c, 0, 64, 127
2, 414714, Note_on_c, 0, 79, 54
2, 415034, Note_on_c, 0, 79, 0
2, 415043, Note_on_c, 0, 79, 60
2, 415080, Control_c, 0, 64, 0
2, 415188, Control_c, 0, 64, 127
2, 415326, Note_on_c, 0, 84, 63
2, 415628, Note_on_c, 0, 83, 66
2, 415948, Note_on_c, 0, 84, 0
2, 415958, Note_on_c, 0, 84, 67
2, 416221, Note_on_c, 0, 72, 56
2, 416281, Note_on_c, 0, 76, 51
2, 416309, Note_on_c, 0, 84, 0
2, 416317, Note_on_c, 0, 84, 70
2, 416338, Note_on_c, 0, 53, 47
2, 416345, Note_on_c, 0, 69, 40
2, 416353, Control_c, 0, 64, 0
2, 416378, Note_on_c, 0, 55, 0
2, 416386, Note_on_c, 0, 62, 0
2, 416386, Note_on_c, 0, 71, 0
2, 416386, Note_on_c, 0, 74, 0
2, 416440, Note_on_c, 0, 79, 0
2, 416448, Note_on_c, 0, 83, 0
2, 416463, Control_c, 0, 64, 127
2, 416612, Note_on_c, 0, 60, 48
2, 416875, Note_on_c, 0, 67, 50
2, 417162, Note_on_c, 0, 69, 0
2, 417169, Note_on_c, 0, 69, 43
2, 417169, Note_on_c, 0, 74, 59
2, 417977, Note_on_c, 0, 81, 65
2, 418467, Note_on_c, 0, 74, 0
2, 418471, Note_on_c, 0, 71, 41
2, 418473, Note_on_c, 0, 74, 51
2, 418506, Note_on_c, 0, 76, 0
2, 418516, Note_on_c, 0, 76, 63
2, 418526, Note_on_c, 0, 55, 49
2, 418536, Note_on_c, 0, 60, 0
2, 418536, Note_on_c, 0, 67, 0
2, 418536, Note_on_c, 0, 72, 0
2, 418539, Note_on_c, 0, 69, 0
2, 418539, Note_on_c, 0, 53, 0
2, 418540, Note_on_c, 0, 81, 0
2, 418542, Control_c, 0, 64, 0
2, 418552, Note_on_c, 0, 84, 0
2, 418652, Control_c, 0, 64, 127
2, 418793, Note_on_c, 0, 62, 47
2, 419070, Note_on_c, 0, 69, 41
2, 419366, Note_on_c, 0, 74, 0
2, 419371, Note_on_c, 0, 74, 61
2, 419381, Note_on_c, 0, 71, 0
2, 419390, Note_on_c, 0, 71, 45
2, 420480, Note_on_c, 0, 55, 0
2, 420480, Note_on_c, 0, 76, 0
2, 420691, Note_on_c, 0, 64, 51
2, 420704, Note_on_c, 0, 67, 50
2, 420733, Note_on_c, 0, 71, 0
2, 420737, Note_on_c, 0, 71, 53
2, 420748, Note_on_c, 0, 74, 0
2, 420756, Note_on_c, 0, 74, 69
2, 420760, Note_on_c, 0, 48, 43
2, 420771, Control_c, 0, 64, 0
2, 420776, Note_on_c, 0, 62, 0
2, 420894, Control_c, 0, 64, 127
2, 420948, Note_on_c, 0, 69, 0
2, 421029, Note_on_c, 0, 55, 50
2, 421301, Note_on_c, 0, 62, 42
2, 421409, Note_on_c, 0, 64, 0
2, 421588, Note_on_c, 0, 72, 62
2, 421593, Note_on_c, 0, 67, 0
2, 421597, Note_on_c, 0, 67, 48
2, 421598, Note_on_c, 0, 64, 45
2, 421662, Control_c, 0, 64, 0
2, 421747, Control_c, 0, 64, 127
2, 422377, Note_on_c, 0, 47, 49
2, 422382, Note_on_c, 0, 79, 64
2, 422384, Note_on_c, 0, 71, 0
2, 422394, Note_on_c, 0, 71, 51
2, 422459, Control_c, 0, 64, 0
2, 422530, Control_c, 0, 64, 127
2, 422822, Note_on_c, 0, 64, 0
2, 422833, Note_on_c, 0, 64, 46
2, 422883, Note_on_c, 0, 67, 0
2, 422883, Note_on_c, 0, 71, 0
2, 422894, Note_on_c, 0, 71, 60
2, 422894, Note_on_c, 0, 67, 48
2, 422929, Note_on_c, 0, 74, 0
2, 422940, Note_on_c, 0, 74, 72
2, 422941, Note_on_c, 0, 45, 50
2, 422956, Note_on_c, 0, 47, 0
2, 422956, Note_on_c, 0, 79, 0
2, 422963, Control_c, 0, 64, 0
2, 422976, Note_on_c, 0, 48, 0
2, 422991, Note_on_c, 0, 72, 0
2, 423060, Note_on_c, 0, 55, 0
2, 423068, Control_c, 0, 64, 127
2, 423234, Note_on_c, 0, 52, 49
2, 423482, Note_on_c, 0, 62, 0
2, 423504, Note_on_c, 0, 59, 48
2, 423797, Note_on_c, 0, 64, 0
2, 423799, Note_on_c, 0, 72, 63
2, 423802, Note_on_c, 0, 64, 47
2, 423808, Note_on_c, 0, 60, 48
2, 423831, Control_c, 0, 64, 0
2, 423835, Note_on_c, 0, 74, 0
2, 423835, Note_on_c, 0, 59, 0
2, 423859, Note_on_c, 0, 67, 0
2, 423859, Note_on_c, 0, 71, 0
2, 423943, Control_c, 0, 64, 127
2, 424608, Note_on_c, 0, 43, 38
2, 424610, Note_on_c, 0, 71, 62
2, 425072, Note_on_c, 0, 60, 0
2, 425076, Note_on_c, 0, 60, 46
2, 425099, Note_on_c, 0, 62, 50
2, 425134, Note_on_c, 0, 64, 0
2, 425139, Note_on_c, 0, 64, 53
2, 425185, Note_on_c, 0, 69, 63
2, 425192, Note_on_c, 0, 41, 50
2, 425202, Control_c, 0, 64, 0
2, 425207, Note_on_c, 0, 65, 36
2, 425214, Note_on_c, 0, 71, 0
2, 425215, Note_on_c, 0, 43, 0
2, 425218, Note_on_c, 0, 45, 0
2, 425226, Note_on_c, 0, 72, 0
2, 425233, Note_on_c, 0, 52, 0
2, 425341, Control_c, 0, 64, 127
2, 425425, Note_on_c, 0, 62, 0
2, 425462, Note_on_c, 0, 48, 37
2, 425737, Note_on_c, 0, 57, 42
2, 426002, Note_on_c, 0, 62, 49
2, 426278, Note_on_c, 0, 64, 0
2, 426938, Note_on_c, 0, 57, 0
2, 426949, Note_on_c, 0, 57, 50
2, 427445, Note_on_c, 0, 57, 0
2, 427445, Note_on_c, 0, 62, 0
2, 427445, Note_on_c, 0, 69, 0
2, 427453, Note_on_c, 0, 62, 37
2, 427454, Note_on_c, 0, 69, 46
2, 427454, Note_on_c, 0, 57, 43
2, 427486, Note_on_c, 0, 64, 55
2, 427526, Note_on_c, 0, 43, 37
2, 427542, Control_c, 0, 64, 0
2, 427549, Note_on_c, 0, 41, 0
2, 427549, Note_on_c, 0, 48, 0
2, 427553, Note_on_c, 0, 65, 0
2, 427560, Note_on_c, 0, 60, 0
2, 427745, Control_c, 0, 64, 127
2, 427787, Note_on_c, 0, 50, 40
2, 427822, Note_on_c, 0, 62, 0
2, 428078, Note_on_c, 0, 53, 42
2, 428382, Note_on_c, 0, 57, 0
2, 428388, Note_on_c, 0, 57, 43
2, 428727, Note_on_c, 0, 62, 52
2, 428736, Note_on_c, 0, 56, 43
2, 428764, Control_c, 0, 64, 0
2, 428777, Note_on_c, 0, 57, 0
2, 428777, Note_on_c, 0, 53, 0
2, 428782, Note_on_c, 0, 69, 0
2, 428797, Note_on_c, 0, 64, 0
2, 429035, Control_c, 0, 64, 127
2, 429484, Note_on_c, 0, 55, 41
2, 429500, Control_c, 0, 64, 0
2, 429505, Note_on_c, 0, 56, 0
2, 429649, Control_c, 0, 64, 127
2, 429924, Note_on_c, 0, 60, 43
2, 430702, Note_on_c, 0, 50, 0
2, 430710, Note_on_c, 0, 50, 44
2, 430794, Note_on_c, 0, 55, 0
2, 430798, Note_on_c, 0, 55, 43
2, 430815, Note_on_c, 0, 36, 37
2, 430848, Note_on_c, 0, 60, 0
2, 430852, Note_on_c, 0, 60, 52
2, 430881, Note_on_c, 0, 62, 0
2, 430900, Control_c, 0, 64, 0
2, 430917, Note_on_c, 0, 43, 0
2, 431170, Control_c, 0, 64, 127
2, 431197, Note_on_c, 0, 43, 26
2, 431477, Note_on_c, 0, 50, 0
2, 431484, Note_on_c, 0, 50, 45
2, 431808, Note_on_c, 0, 55, 0
2, 431819, Note_on_c, 0, 55, 40
2, 432160, Note_on_c, 0, 62, 32
2, 432503, Note_on_c, 0, 48, 42
2, 432895, Note_on_c, 0, 67, 38
2, 433793, Note_on_c, 0, 74, 53
2, 435425, Note_on_c, 0, 36, 0
2, 435463, Note_on_c, 0, 60, 0
2, 435809, Note_on_c, 0, 43, 0
2, 435840, Note_on_c, 0, 48, 0
2, 435840, Note_on_c, 0, 50, 0
2, 435840, Note_on_c, 0, 55, 0
2, 435840, Note_on_c, 0, 62, 0
2, 435840, Note_on_c, 0, 67, 0
2, 435840, Note_on_c, 0, 74, 0
2, 436578, Note_on_c, 0, 74, 58
2, 437905, Note_on_c, 0, 55, 27
2, 437920, Note_on_c, 0, 62, 27
2, 438294, Note_on_c, 0, 67, 31
2, 438476, Note_on_c, 0, 69, 44
2, 438608, Note_on_c, 0, 70, 58
2, 438773, Note_on_c, 0, 74, 0
2, 438781, Note_on_c, 0, 74, 67
2, 438819, Control_c, 0, 64, 0
2, 438842, Note_on_c, 0, 69, 0
2, 439027, Control_c, 0, 64, 127
2, 439288, Note_on_c, 0, 67, 0
2, 439300, Note_on_c, 0, 65, 45
2, 439467, Note_on_c, 0, 67, 52
2, 439612, Note_on_c, 0, 69, 56
2, 439786, Note_on_c, 0, 72, 54
2, 439948, Note_on_c, 0, 62, 0
2, 439948, Note_on_c, 0, 70, 0
2, 439958, Note_on_c, 0, 70, 57
2, 439958, Note_on_c, 0, 62, 45
2, 439978, Note_on_c, 0, 65, 0
2, 439978, Note_on_c, 0, 67, 0
2, 439982, Control_c, 0, 64, 0
2, 440002, Note_on_c, 0, 69, 0
2, 440102, Control_c, 0, 64, 127
2, 440293, Note_on_c, 0, 67, 50
2, 440302, Note_on_c, 0, 72, 0
2, 440481, Note_on_c, 0, 69, 51
2, 440632, Note_on_c, 0, 70, 0
2, 440642, Note_on_c, 0, 70, 59
2, 440663, Note_on_c, 0, 74, 0
2, 440958, Note_on_c, 0, 60, 38
2, 440981, Note_on_c, 0, 72, 59
2, 440990, Note_on_c, 0, 65, 34
2, 441323, Note_on_c, 0, 70, 0
2, 441327, Note_on_c, 0, 70, 56
2, 441415, Note_on_c, 0, 69, 0
2, 441657, Note_on_c, 0, 69, 53
2, 441930, Note_on_c, 0, 55, 0
2, 441941, Note_on_c, 0, 55, 46
2, 441953, Note_on_c, 0, 62, 0
2, 441957, Note_on_c, 0, 62, 40
2, 441961, Note_on_c, 0, 79, 56
2, 442002, Note_on_c, 0, 82, 72
2, 442003, Note_on_c, 0, 91, 79
2, 442034, Control_c, 0, 64, 0
2, 442060, Note_on_c, 0, 72, 0
2, 442083, Note_on_c, 0, 60, 0
2, 442091, Note_on_c, 0, 65, 0
2, 442099, Note_on_c, 0, 67, 0
2, 442099, Note_on_c, 0, 69, 0
2, 442122, Control_c, 0, 64, 127
2, 442268, Note_on_c, 0, 70, 0
2, 442353, Note_on_c, 0, 67, 50
2, 442502, Note_on_c, 0, 69, 54
2, 442670, Note_on_c, 0, 70, 61
2, 442833, Note_on_c, 0, 74, 62
2, 443003, Note_on_c, 0, 57, 45
2, 443007, Note_on_c, 0, 60, 47
2, 443014, Note_on_c, 0, 65, 35
2, 443023, Note_on_c, 0, 67, 0
2, 443043, Note_on_c, 0, 79, 0
2, 443151, Note_on_c, 0, 62, 0
2, 443220, Note_on_c, 0, 69, 0
2, 443335, Note_on_c, 0, 65, 0
2, 443342, Note_on_c, 0, 65, 50
2, 443505, Note_on_c, 0, 67, 53
2, 443660, Note_on_c, 0, 69, 58
2, 443829, Note_on_c, 0, 72, 61
2, 444008, Note_on_c, 0, 62, 49
2, 444014, Note_on_c, 0, 58, 41
2, 444019, Note_on_c, 0, 70, 0
2, 444025, Note_on_c, 0, 70, 58
2, 444028, Control_c, 0, 64, 0
2, 444030, Note_on_c, 0, 69, 0
2, 444030, Note_on_c, 0, 91, 0
2, 444030, Note_on_c, 0, 72, 0
2, 444030, Note_on_c, 0, 55, 0
2, 444031, Note_on_c, 0, 82, 0
2, 444031, Note_on_c, 0, 60, 0
2, 444032, Note_on_c, 0, 65, 0
2, 444032, Note_on_c, 0, 74, 0
2, 444032, Note_on_c, 0, 57, 0
2, 444032, Note_on_c, 0, 67, 0
2, 444126, Control_c, 0, 64, 127
2, 444354, Note_on_c, 0, 67, 53
2, 444538, Note_on_c, 0, 69, 44
2, 444687, Note_on_c, 0, 70, 0
2, 444695, Note_on_c, 0, 62, 0
2, 444698, Note_on_c, 0, 70, 60
2, 444705, Note_on_c, 0, 62, 30
2, 444833, Note_on_c, 0, 67, 0
2, 444843, Note_on_c, 0, 67, 44
2, 445025, Note_on_c, 0, 72, 58
2, 445028, Note_on_c, 0, 60, 46
2, 445340, Note_on_c, 0, 70, 0
2, 445348, Note_on_c, 0, 70, 62
2, 445678, Note_on_c, 0, 69, 0
2, 445679, Note_on_c, 0, 55, 70
2, 445682, Note_on_c, 0, 69, 48
2, 446008, Note_on_c, 0, 55, 0
2, 446008, Note_on_c, 0, 62, 0
2, 446016, Note_on_c, 0, 67, 0
2, 446018, Note_on_c, 0, 62, 80
2, 446019, Note_on_c, 0, 55, 76
2, 446020, Note_on_c, 0, 74, 70
2, 446021, Note_on_c, 0, 67, 62
2, 446024, Control_c, 0, 64, 0
2, 446100, Control_c, 0, 64, 127
2, 446346, Note_on_c, 0, 67, 0
2, 446355, Note_on_c, 0, 67, 47
2, 446522, Note_on_c, 0, 62, 0
2, 446528, Note_on_c, 0, 62, 72
2, 446538, Note_on_c, 0, 69, 0
2, 446547, Note_on_c, 0, 69, 49
2, 446699, Note_on_c, 0, 70, 0
2, 446707, Note_on_c, 0, 70, 66
2, 446837, Note_on_c, 0, 62, 0
2, 446837, Note_on_c, 0, 74, 0
2, 446842, Note_on_c, 0, 62, 70
2, 446845, Note_on_c, 0, 74, 72
2, 447029, Note_on_c, 0, 60, 0
2, 447029, Note_on_c, 0, 72, 0
2, 447033, Note_on_c, 0, 60, 78
2, 447038, Note_on_c, 0, 72, 75
2, 447347, Note_on_c, 0, 65, 55
2, 447360, Note_on_c, 0, 58, 0
2, 447522, Note_on_c, 0, 58, 70
2, 447552, Note_on_c, 0, 67, 0
2, 447556, Note_on_c, 0, 67, 43
2, 447690, Note_on_c, 0, 60, 0
2, 447696, Note_on_c, 0, 60, 75
2, 447713, Note_on_c, 0, 69, 0
2, 447717, Note_on_c, 0, 69, 51
2, 447866, Note_on_c, 0, 72, 0
2, 447873, Note_on_c, 0, 72, 63
2, 448020, Note_on_c, 0, 55, 0
2, 448020, Note_on_c, 0, 62, 0
2, 448024, Note_on_c, 0, 62, 76
2, 448024, Control_c, 0, 64, 0
2, 448028, Note_on_c, 0, 55, 69
2, 448031, Note_on_c, 0, 69, 0
2, 448031, Note_on_c, 0, 65, 0
2, 448032, Note_on_c, 0, 58, 0
2, 448033, Note_on_c, 0, 72, 0
2, 448033, Note_on_c, 0, 60, 0
2, 448058, Note_on_c, 0, 70, 0
2, 448064, Note_on_c, 0, 70, 51
2, 448120, Control_c, 0, 64, 127
2, 448197, Note_on_c, 0, 74, 0
2, 448366, Note_on_c, 0, 55, 0
2, 448373, Note_on_c, 0, 67, 0
2, 448376, Note_on_c, 0, 55, 66
2, 448382, Note_on_c, 0, 67, 55
2, 448549, Note_on_c, 0, 69, 48
2, 448711, Note_on_c, 0, 70, 0
2, 448720, Note_on_c, 0, 70, 58
2, 448880, Note_on_c, 0, 67, 0
2, 448885, Note_on_c, 0, 67, 48
2, 449054, Note_on_c, 0, 72, 60
2, 449372, Note_on_c, 0, 70, 0
2, 449382, Note_on_c, 0, 70, 61
2, 449694, Note_on_c, 0, 55, 0
2, 449704, Note_on_c, 0, 55, 70
2, 449710, Note_on_c, 0, 69, 0
2, 449720, Note_on_c, 0, 69, 52
2, 450040, Note_on_c, 0, 62, 0
2, 450048, Note_on_c, 0, 55, 0
2, 450048, Note_on_c, 0, 67, 0
2, 450050, Note_on_c, 0, 62, 80
2, 450050, Control_c, 0, 64, 0
2, 450051, Note_on_c, 0, 55, 75
2, 450055, Note_on_c, 0, 67, 67
2, 450056, Note_on_c, 0, 74, 76
2, 450094, Control_c, 0, 64, 127
2, 450370, Note_on_c, 0, 67, 0
2, 450379, Note_on_c, 0, 67, 56
2, 450547, Note_on_c, 0, 62, 0
2, 450557, Note_on_c, 0, 62, 79
2, 450570, Note_on_c, 0, 69, 0
2, 450579, Note_on_c, 0, 69, 58
2, 450731, Note_on_c, 0, 70, 0
2, 450738, Note_on_c, 0, 70, 65
2, 450877, Note_on_c, 0, 62, 0
2, 450877, Note_on_c, 0, 74, 0
2, 450881, Note_on_c, 0, 62, 63
2, 450882, Note_on_c, 0, 74, 72
2, 451069, Note_on_c, 0, 72, 0
2, 451073, Control_c, 0, 64, 0
2, 451073, Note_on_c, 0, 60, 82
2, 451075, Note_on_c, 0, 72, 78
2, 451084, Control_c, 0, 64, 127
2, 451381, Note_on_c, 0, 65, 50
2, 451558, Note_on_c, 0, 58, 71
2, 451560, Note_on_c, 0, 67, 0
2, 451569, Note_on_c, 0, 67, 48
2, 451729, Note_on_c, 0, 60, 0
2, 451737, Note_on_c, 0, 60, 79
2, 451760, Note_on_c, 0, 69, 0
2, 451765, Note_on_c, 0, 69, 44
2, 451914, Note_on_c, 0, 72, 0
2, 451919, Note_on_c, 0, 72, 63
2, 452057, Note_on_c, 0, 69, 0
2, 452059, Note_on_c, 0, 65, 0
2, 452060, Note_on_c, 0, 55, 0
2, 452060, Note_on_c, 0, 58, 0
2, 452060, Note_on_c, 0, 62, 0
2, 452060, Note_on_c, 0, 72, 0
2, 452061, Note_on_c, 0, 67, 0
2, 452062, Control_c, 0, 64, 0
2, 452067, Note_on_c, 0, 70, 0
2, 452068, Note_on_c, 0, 62, 76
2, 452071, Note_on_c, 0, 55, 69
2, 452072, Note_on_c, 0, 70, 58
2, 452075, Note_on_c, 0, 60, 0
2, 452144, Control_c, 0, 64, 127
2, 452405, Note_on_c, 0, 55, 0
2, 452407, Note_on_c, 0, 65, 76
2, 452416, Note_on_c, 0, 55, 56
2, 452416, Note_on_c, 0, 67, 60
2, 452584, Note_on_c, 0, 69, 53
2, 452613, Note_on_c, 0, 70, 0
2, 452750, Note_on_c, 0, 70, 59
2, 452904, Note_on_c, 0, 74, 0
2, 452914, Note_on_c, 0, 74, 64
2, 453089, Note_on_c, 0, 69, 0
2, 453090, Note_on_c, 0, 72, 65
2, 453099, Note_on_c, 0, 69, 42
2, 453411, Note_on_c, 0, 70, 0
2, 453417, Note_on_c, 0, 70, 60
2, 453596, Note_on_c, 0, 62, 0
2, 453602, Note_on_c, 0, 62, 56
2, 453749, Note_on_c, 0, 69, 0
2, 453759, Note_on_c, 0, 69, 59
2, 454080, Note_on_c, 0, 67, 0
2, 454089, Note_on_c, 0, 43, 56
2, 454090, Note_on_c, 0, 67, 55
2, 454091, Note_on_c, 0, 31, 52
2, 454095, Note_on_c, 0, 31, 0
2, 454107, Note_on_c, 0, 69, 0
2, 454108, Note_on_c, 0, 70, 0
2, 454108, Note_on_c, 0, 62, 0
2, 454108, Note_on_c, 0, 65, 0
2, 454108, Control_c, 0, 64, 0
2, 454109, Note_on_c, 0, 55, 0
2, 454109, Note_on_c, 0, 72, 0
2, 454111, Note_on_c, 0, 74, 0
2, 454187, Control_c, 0, 64, 127
2, 454248, Note_on_c, 0, 50, 56
2, 454399, Note_on_c, 0, 55, 60
2, 454553, Note_on_c, 0, 57, 58
2, 454721, Note_on_c, 0, 58, 62
2, 454734, Note_on_c, 0, 74, 72
2, 454738, Note_on_c, 0, 70, 64
2, 454786, Note_on_c, 0, 62, 32
2, 454878, Note_on_c, 0, 55, 0
2, 454886, Note_on_c, 0, 55, 60
2, 454891, Note_on_c, 0, 79, 71
2, 455076, Note_on_c, 0, 77, 80
2, 455078, Note_on_c, 0, 57, 0
2, 455083, Note_on_c, 0, 60, 58
2, 455084, Note_on_c, 0, 69, 65
2, 455084, Note_on_c, 0, 65, 60
2, 455085, Note_on_c, 0, 57, 60
2, 455413, Note_on_c, 0, 72, 69
2, 455577, Note_on_c, 0, 57, 0
2, 455577, Note_on_c, 0, 60, 0
2, 455577, Note_on_c, 0, 69, 0
2, 455577, Note_on_c, 0, 72, 0
2, 455582, Note_on_c, 0, 57, 58
2, 455582, Note_on_c, 0, 60, 61
2, 455583, Note_on_c, 0, 69, 64
2, 455584, Note_on_c, 0, 72, 70
2, 455907, Note_on_c, 0, 72, 0
2, 455917, Note_on_c, 0, 72, 76
2, 456084, Note_on_c, 0, 43, 0
2, 456084, Note_on_c, 0, 74, 0
2, 456092, Note_on_c, 0, 74, 82
2, 456092, Note_on_c, 0, 67, 0
2, 456094, Note_on_c, 0, 43, 60
2, 456099, Note_on_c, 0, 70, 0
2, 456102, Note_on_c, 0, 67, 50
2, 456103, Note_on_c, 0, 70, 64
2, 456110, Control_c, 0, 64, 0
2, 456111, Note_on_c, 0, 50, 0
2, 456111, Note_on_c, 0, 62, 0
2, 456111, Note_on_c, 0, 69, 0
2, 456111, Note_on_c, 0, 55, 0
2, 456111, Note_on_c, 0, 58, 0
2, 456111, Note_on_c, 0, 65, 0
2, 456111, Note_on_c, 0, 57, 0
2, 456111, Note_on_c, 0, 79, 0
2, 456111, Note_on_c, 0, 60, 0
2, 456111, Note_on_c, 0, 77, 0
2, 456130, Note_on_c, 0, 72, 0
2, 456215, Control_c, 0, 64, 127
2, 456254, Note_on_c, 0, 50, 53
2, 456261, Note_on_c, 0, 67, 0
2, 456427, Note_on_c, 0, 55, 57
2, 456587, Note_on_c, 0, 57, 49
2, 456753, Note_on_c, 0, 58, 51
2, 456760, Note_on_c, 0, 62, 62
2, 456918, Note_on_c, 0, 67, 59
2, 457082, Note_on_c, 0, 55, 0
2, 457094, Note_on_c, 0, 65, 66
2, 457094, Note_on_c, 0, 55, 63
2, 457098, Note_on_c, 0, 57, 0
2, 457107, Note_on_c, 0, 57, 62
2, 457107, Note_on_c, 0, 60, 48
2, 457397, Note_on_c, 0, 43, 0
2, 457404, Note_on_c, 0, 43, 47
2, 457589, Note_on_c, 0, 60, 0
2, 457597, Note_on_c, 0, 57, 0
2, 457601, Note_on_c, 0, 60, 60
2, 457601, Note_on_c, 0, 57, 55
2, 457620, Note_on_c, 0, 55, 0
2, 457625, Note_on_c, 0, 55, 38
2, 457926, Note_on_c, 0, 41, 45
2, 457927, Note_on_c, 0, 60, 0
2, 457933, Note_on_c, 0, 60, 65
2, 457935, Note_on_c, 0, 41, 0
2, 458100, Note_on_c, 0, 39, 58
2, 458104, Note_on_c, 0, 58, 0
2, 458104, Note_on_c, 0, 62, 0
2, 458109, Note_on_c, 0, 62, 60
2, 458114, Note_on_c, 0, 58, 51
2, 458119, Control_c, 0, 64, 0
2, 458121, Note_on_c, 0, 65, 0
2, 458121, Note_on_c, 0, 55, 0
2, 458121, Note_on_c, 0, 50, 0
2, 458122, Note_on_c, 0, 57, 0
2, 458122, Note_on_c, 0, 67, 0
2, 458122, Note_on_c, 0, 60, 0
2, 458122, Note_on_c, 0, 43, 0
2, 458135, Note_on_c, 0, 70, 0
2, 458142, Note_on_c, 0, 74, 0
2, 458165, Note_on_c, 0, 58, 0
2, 458227, Control_c, 0, 64, 127
2, 458278, Note_on_c, 0, 46, 56
2, 458461, Note_on_c, 0, 51, 55
2, 458607, Note_on_c, 0, 55, 55
2, 458794, Note_on_c, 0, 74, 78
2, 458795, Note_on_c, 0, 70, 68
2, 458799, Note_on_c, 0, 67, 44
2, 459125, Note_on_c, 0, 67, 0
2, 459135, Note_on_c, 0, 67, 66
2, 459136, Control_c, 0, 64, 0
2, 459136, Note_on_c, 0, 51, 0
2, 459136, Note_on_c, 0, 55, 0
2, 459137, Note_on_c, 0, 46, 0
2, 459137, Note_on_c, 0, 70, 0
2, 459137, Note_on_c, 0, 74, 0
2, 459138, Note_on_c, 0, 36, 60
2, 459139, Note_on_c, 0, 39, 0
2, 459148, Note_on_c, 0, 62, 0
2, 459150, Note_on_c, 0, 63, 58
2, 459240, Control_c, 0, 64, 127
2, 459307, Note_on_c, 0, 43, 53
2, 459371, Note_on_c, 0, 36, 0
2, 459460, Note_on_c, 0, 48, 60
2, 459631, Note_on_c, 0, 55, 61
2, 459634, Note_on_c, 0, 51, 51
2, 459804, Note_on_c, 0, 74, 82
2, 459824, Note_on_c, 0, 67, 0
2, 459830, Note_on_c, 0, 67, 37
2, 460098, Note_on_c, 0, 65, 50
2, 460126, Note_on_c, 0, 69, 59
2, 460134, Note_on_c, 0, 41, 61
2, 460143, Note_on_c, 0, 48, 0
2, 460143, Note_on_c, 0, 51, 0
2, 460143, Note_on_c, 0, 43, 0
2, 460143, Note_on_c, 0, 55, 0
2, 460143, Note_on_c, 0, 67, 0
2, 460143, Note_on_c, 0, 63, 0
2, 460144, Control_c, 0, 64, 0
2, 460147, Note_on_c, 0, 74, 0
2, 460163, Note_on_c, 0, 72, 77
2, 460247, Control_c, 0, 64, 127
2, 460305, Note_on_c, 0, 48, 54
2, 460454, Note_on_c, 0, 72, 0
2, 460459, Note_on_c, 0, 72, 74
2, 460475, Note_on_c, 0, 53, 51
2, 460644, Note_on_c, 0, 57, 60
2, 460645, Note_on_c, 0, 60, 62
2, 460812, Note_on_c, 0, 70, 75
2, 461045, Note_on_c, 0, 65, 0
2, 461054, Note_on_c, 0, 65, 40
2, 461091, Note_on_c, 0, 69, 0
2, 461099, Note_on_c, 0, 69, 54
2, 461145, Note_on_c, 0, 72, 0
2, 461149, Control_c, 0, 64, 0
2, 461150, Note_on_c, 0, 48, 0
2, 461150, Note_on_c, 0, 41, 0
2, 461150, Note_on_c, 0, 60, 0
2, 461151, Note_on_c, 0, 57, 0
2, 461151, Note_on_c, 0, 65, 0
2, 461152, Note_on_c, 0, 53, 0
2, 461153, Note_on_c, 0, 69, 0
2, 461153, Note_on_c, 0, 70, 0
2, 461156, Note_on_c, 0, 72, 74
2, 461157, Note_on_c, 0, 31, 54
2, 461157, Note_on_c, 0, 43, 56
2, 461168, Note_on_c, 0, 31, 0
2, 461283, Control_c, 0, 64, 127
2, 461312, Note_on_c, 0, 70, 70
2, 461317, Note_on_c, 0, 38, 47
2, 461318, Note_on_c, 0, 50, 42
2, 461322, Note_on_c, 0, 38, 0
2, 461466, Note_on_c, 0, 67, 70
2, 461673, Note_on_c, 0, 55, 49
2, 461833, Note_on_c, 0, 58, 41
2, 462155, Control_c, 0, 64, 0
2, 462157, Note_on_c, 0, 58, 0
2, 462157, Note_on_c, 0, 50, 0
2, 462157, Note_on_c, 0, 70, 0
2, 462158, Note_on_c, 0, 67, 0
2, 462159, Note_on_c, 0, 43, 0
2, 462159, Note_on_c, 0, 55, 0
2, 462159, Note_on_c, 0, 72, 0
2, 462163, Note_on_c, 0, 43, 68
2, 462165, Note_on_c, 0, 55, 71
2, 462251, Control_c, 0, 64, 127
2, 462332, Note_on_c, 0, 50, 63
2, 462477, Control_c, 0, 64, 0
2, 462479, Note_on_c, 0, 55, 0
2, 462480, Note_on_c, 0, 50, 0
2, 462483, Note_on_c, 0, 43, 0
2, 462498, Note_on_c, 0, 69, 73
2, 462499, Note_on_c, 0, 45, 79
2, 462500, Note_on_c, 0, 57, 77
2, 462551, Control_c, 0, 64, 127
2, 462831, Control_c, 0, 64, 0
2, 462831, Note_on_c, 0, 46, 83
2, 462831, Note_on_c, 0, 58, 79
2, 462881, Control_c, 0, 64, 127
2, 463162, Control_c, 0, 64, 0
2, 463165, Note_on_c, 0, 45, 0
2, 463167, Note_on_c, 0, 58, 0
2, 463168, Note_on_c, 0, 46, 0
2, 463172, Note_on_c, 0, 60, 83
2, 463173, Note_on_c, 0, 57, 0
2, 463176, Note_on_c, 0, 36, 80
2, 463179, Note_on_c, 0, 48, 78
2, 463180, Note_on_c, 0, 69, 0
2, 463265, Control_c, 0, 64, 127
2, 463354, Note_on_c, 0, 43, 40
2, 463488, Note_on_c, 0, 48, 0
2, 463491, Note_on_c, 0, 48, 57
2, 463672, Note_on_c, 0, 60, 0
2, 463676, Note_on_c, 0, 60, 62
2, 463692, Note_on_c, 0, 51, 50
2, 463841, Note_on_c, 0, 51, 0
2, 463844, Note_on_c, 0, 79, 86
2, 463845, Note_on_c, 0, 51, 47
2, 463851, Note_on_c, 0, 75, 77
2, 463861, Note_on_c, 0, 67, 57
2, 463861, Note_on_c, 0, 70, 49
2, 463872, Note_on_c, 0, 70, 0
2, 464187, Note_on_c, 0, 38, 73
2, 464188, Control_c, 0, 64, 0
2, 464197, Note_on_c, 0, 77, 84
2, 464205, Note_on_c, 0, 74, 73
2, 464206, Note_on_c, 0, 43, 0
2, 464207, Note_on_c, 0, 60, 0
2, 464209, Note_on_c, 0, 67, 0
2, 464210, Note_on_c, 0, 79, 0
2, 464211, Note_on_c, 0, 51, 0
2, 464211, Note_on_c, 0, 48, 0
2, 464212, Note_on_c, 0, 75, 0
2, 464213, Note_on_c, 0, 65, 63
2, 464219, Note_on_c, 0, 70, 57
2, 464225, Note_on_c, 0, 36, 0
2, 464302, Control_c, 0, 64, 127
2, 464355, Note_on_c, 0, 46, 56
2, 464501, Note_on_c, 0, 38, 0
2, 464508, Note_on_c, 0, 38, 49
2, 464512, Note_on_c, 0, 50, 42
2, 464524, Note_on_c, 0, 70, 0
2, 464534, Note_on_c, 0, 70, 72
2, 464688, Note_on_c, 0, 58, 66
2, 464715, Note_on_c, 0, 41, 44
2, 464717, Note_on_c, 0, 53, 46
2, 464724, Note_on_c, 0, 41, 0
2, 464855, Note_on_c, 0, 77, 0
2, 464866, Note_on_c, 0, 77, 81
2, 464885, Note_on_c, 0, 65, 0
2, 464892, Note_on_c, 0, 65, 52
2, 465000, Note_on_c, 0, 38, 0
2, 465000, Note_on_c, 0, 50, 0
2, 465010, Note_on_c, 0, 38, 68
2, 465012, Note_on_c, 0, 50, 61
2, 465144, Note_on_c, 0, 55, 44
2, 465169, Note_on_c, 0, 70, 0
2, 465180, Note_on_c, 0, 70, 59
2, 465204, Note_on_c, 0, 75, 75
2, 465204, Control_c, 0, 64, 0
2, 465221, Note_on_c, 0, 79, 78
2, 465222, Note_on_c, 0, 39, 69
2, 465236, Note_on_c, 0, 38, 0
2, 465242, Note_on_c, 0, 46, 0
2, 465243, Note_on_c, 0, 58, 0
2, 465244, Note_on_c, 0, 65, 0
2, 465245, Note_on_c, 0, 53, 0
2, 465248, Note_on_c, 0, 74, 0
2, 465262, Note_on_c, 0, 50, 0
2, 465269, Note_on_c, 0, 77, 0
2, 465300, Note_on_c, 0, 55, 0
2, 465323, Control_c, 0, 64, 127
2, 465366, Note_on_c, 0, 46, 57
2, 465530, Note_on_c, 0, 70, 0
2, 465536, Note_on_c, 0, 70, 62
2, 465542, Note_on_c, 0, 58, 46
2, 465699, Note_on_c, 0, 58, 0
2, 465711, Note_on_c, 0, 58, 65
2, 465726, Note_on_c, 0, 55, 54
2, 465868, Note_on_c, 0, 79, 0
2, 465876, Note_on_c, 0, 70, 0
2, 465876, Note_on_c, 0, 75, 0
2, 465877, Note_on_c, 0, 79, 80
2, 465882, Note_on_c, 0, 70, 68
2, 465882, Note_on_c, 0, 67, 67
2, 465883, Note_on_c, 0, 51, 53
2, 465886, Note_on_c, 0, 75, 64
2, 466014, Note_on_c, 0, 39, 0
2, 466014, Note_on_c, 0, 51, 0
2, 466024, Note_on_c, 0, 39, 69
2, 466025, Note_on_c, 0, 51, 68
2, 466207, Note_on_c, 0, 67, 0
2, 466207, Note_on_c, 0, 55, 0
2, 466208, Note_on_c, 0, 39, 0
2, 466208, Note_on_c, 0, 75, 0
2, 466209, Note_on_c, 0, 70, 0
2, 466209, Note_on_c, 0, 46, 0
2, 466209, Note_on_c, 0, 79, 0
2, 466209, Note_on_c, 0, 81, 88
2, 466210, Note_on_c, 0, 51, 0
2, 466214, Control_c, 0, 64, 0
2, 466217, Note_on_c, 0, 41, 73
2, 466218, Note_on_c, 0, 72, 80
2, 466219, Note_on_c, 0, 69, 72
2, 466220, Note_on_c, 0, 77, 66
2, 466222, Note_on_c, 0, 58, 0
2, 466366, Note_on_c, 0, 48, 65
2, 466383, Control_c, 0, 64, 127
2, 466522, Note_on_c, 0, 53, 65
2, 466710, Note_on_c, 0, 57, 63
2, 466716, Note_on_c, 0, 79, 80
2, 466721, Note_on_c, 0, 69, 0
2, 466728, Note_on_c, 0, 72, 0
2, 466732, Note_on_c, 0, 69, 52
2, 466734, Note_on_c, 0, 72, 47
2, 466874, Note_on_c, 0, 77, 0
2, 466885, Note_on_c, 0, 77, 74
2, 466888, Note_on_c, 0, 60, 61
2, 466890, Note_on_c, 0, 72, 0
2, 466897, Note_on_c, 0, 72, 60
2, 467036, Note_on_c, 0, 65, 63
2, 467151, Note_on_c, 0, 72, 0
2, 467157, Note_on_c, 0, 72, 54
2, 467166, Note_on_c, 0, 77, 0
2, 467172, Note_on_c, 0, 77, 61
2, 467184, Note_on_c, 0, 74, 60
2, 467212, Control_c, 0, 64, 0
2, 467212, Note_on_c, 0, 48, 0
2, 467214, Note_on_c, 0, 81, 0
2, 467214, Note_on_c, 0, 53, 0
2, 467214, Note_on_c, 0, 41, 0
2, 467215, Note_on_c, 0, 72, 0
2, 467215, Note_on_c, 0, 69, 0
2, 467215, Note_on_c, 0, 57, 0
2, 467215, Note_on_c, 0, 60, 0
2, 467215, Note_on_c, 0, 77, 0
2, 467216, Note_on_c, 0, 65, 0
2, 467219, Note_on_c, 0, 48, 61
2, 467228, Note_on_c, 0, 79, 0
2, 467232, Note_on_c, 0, 79, 84
2, 467328, Control_c, 0, 64, 127
2, 467377, Note_on_c, 0, 55, 63
2, 467383, Note_on_c, 0, 77, 71
2, 467560, Note_on_c, 0, 75, 77
2, 467574, Note_on_c, 0, 60, 58
2, 467724, Note_on_c, 0, 62, 66
2, 467878, Note_on_c, 0, 63, 61
2, 467880, Note_on_c, 0, 79, 0
2, 467888, Note_on_c, 0, 75, 0
2, 467892, Note_on_c, 0, 79, 79
2, 467893, Note_on_c, 0, 75, 76
2, 467900, Note_on_c, 0, 72, 69
2, 468026, Note_on_c, 0, 48, 0
2, 468031, Note_on_c, 0, 48, 62
2, 468203, Note_on_c, 0, 77, 0
2, 468211, Note_on_c, 0, 74, 0
2, 468212, Note_on_c, 0, 77, 86
2, 468213, Note_on_c, 0, 50, 70
2, 468219, Note_on_c, 0, 74, 73
2, 468229, Note_on_c, 0, 70, 65
2, 468230, Control_c, 0, 64, 0
2, 468233, Note_on_c, 0, 72, 0
2, 468234, Note_on_c, 0, 60, 0
2, 468235, Note_on_c, 0, 63, 0
2, 468235, Note_on_c, 0, 62, 0
2, 468235, Note_on_c, 0, 55, 0
2, 468236, Note_on_c, 0, 75, 0
2, 468236, Note_on_c, 0, 48, 0
2, 468257, Note_on_c, 0, 79, 0
2, 468334, Control_c, 0, 64, 127
2, 468353, Note_on_c, 0, 58, 70
2, 468526, Note_on_c, 0, 70, 0
2, 468536, Note_on_c, 0, 70, 76
2, 468691, Note_on_c, 0, 62, 65
2, 468864, Note_on_c, 0, 70, 0
2, 468864, Note_on_c, 0, 77, 0
2, 468868, Note_on_c, 0, 77, 84
2, 468873, Note_on_c, 0, 70, 72
2, 468875, Note_on_c, 0, 58, 0
2, 469009, Note_on_c, 0, 50, 0
2, 469017, Note_on_c, 0, 50, 67
2, 469137, Note_on_c, 0, 67, 60
2, 469163, Note_on_c, 0, 70, 0
2, 469174, Note_on_c, 0, 70, 71
2, 469191, Note_on_c, 0, 75, 76
2, 469191, Note_on_c, 0, 79, 82
2, 469192, Note_on_c, 0, 51, 75
2, 469198, Control_c, 0, 64, 0
2, 469202, Note_on_c, 0, 50, 0
2, 469203, Note_on_c, 0, 62, 0
2, 469205, Note_on_c, 0, 77, 0
2, 469217, Note_on_c, 0, 74, 0
2, 469309, Control_c, 0, 64, 127
2, 469344, Note_on_c, 0, 58, 69
2, 469528, Note_on_c, 0, 77, 87
2, 469573, Note_on_c, 0, 63, 67
2, 469695, Note_on_c, 0, 65, 75
2, 469839, Note_on_c, 0, 75, 0
2, 469843, Note_on_c, 0, 75, 94
2, 470000, Note_on_c, 0, 63, 0
2, 470000, Note_on_c, 0, 77, 0
2, 470009, Note_on_c, 0, 63, 54
2, 470011, Note_on_c, 0, 77, 89
2, 470141, Note_on_c, 0, 63, 0
2, 470141, Note_on_c, 0, 51, 0
2, 470142, Note_on_c, 0, 58, 0
2, 470142, Note_on_c, 0, 65, 0
2, 470142, Note_on_c, 0, 75, 0
2, 470142, Note_on_c, 0, 79, 0
2, 470142, Control_c, 0, 64, 0
2, 470161, Note_on_c, 0, 67, 0
2, 470169, Note_on_c, 0, 70, 0
2, 470169, Note_on_c, 0, 77, 0
2, 470188, Note_on_c, 0, 65, 81
2, 470190, Note_on_c, 0, 77, 98
2, 470196, Note_on_c, 0, 72, 85
2, 470196, Note_on_c, 0, 60, 77
2, 470196, Note_on_c, 0, 69, 79
2, 470196, Note_on_c, 0, 53, 76
2, 470217, Note_on_c, 0, 65, 0
2, 470246, Note_on_c, 0, 53, 0
2, 470246, Note_on_c, 0, 60, 0
2, 470254, Control_c, 0, 64, 127
2, 470518, Note_on_c, 0, 53, 78
2, 470664, Note_on_c, 0, 41, 77
2, 470664, Note_on_c, 0, 29, 70
2, 470668, Note_on_c, 0, 29, 0
2, 470825, Note_on_c, 0, 79, 102
2, 470826, Note_on_c, 0, 67, 91
2, 470915, Note_on_c, 0, 41, 0
2, 470918, Note_on_c, 0, 53, 0
2, 470918, Note_on_c, 0, 77, 0
2, 470918, Note_on_c, 0, 67, 0
2, 470918, Note_on_c, 0, 79, 0
2, 470920, Control_c, 0, 64, 0
2, 470922, Note_on_c, 0, 69, 0
2, 470937, Note_on_c, 0, 72, 0
2, 470968, Note_on_c, 0, 82, 100
2, 470972, Note_on_c, 0, 70, 88
2, 471022, Note_on_c, 0, 70, 0
2, 471129, Note_on_c, 0, 82, 0
2, 471163, Note_on_c, 0, 31, 92
2, 471163, Note_on_c, 0, 43, 95
2, 471166, Note_on_c, 0, 84, 105
2, 471171, Note_on_c, 0, 72, 104
2, 471198, Control_c, 0, 64, 127
2, 471475, Note_on_c, 0, 84, 0
2, 471482, Note_on_c, 0, 72, 0
2, 471484, Note_on_c, 0, 84, 92
2, 471486, Note_on_c, 0, 72, 77
2, 471646, Note_on_c, 0, 67, 69
2, 471648, Note_on_c, 0, 58, 79
2, 471652, Note_on_c, 0, 82, 101
2, 471655, Note_on_c, 0, 70, 90
2, 471805, Note_on_c, 0, 72, 0
2, 471805, Note_on_c, 0, 84, 0
2, 471813, Note_on_c, 0, 84, 100
2, 471816, Note_on_c, 0, 72, 85
2, 471978, Note_on_c, 0, 89, 96
2, 471981, Note_on_c, 0, 77, 89
2, 472105, Note_on_c, 0, 31, 0
2, 472107, Note_on_c, 0, 58, 0
2, 472108, Note_on_c, 0, 72, 0
2, 472108, Note_on_c, 0, 70, 0
2, 472108, Note_on_c, 0, 84, 0
2, 472108, Note_on_c, 0, 82, 0
2, 472109, Note_on_c, 0, 89, 0
2, 472109, Note_on_c, 0, 77, 0
2, 472119, Control_c, 0, 64, 0
2, 472120, Note_on_c, 0, 43, 0
2, 472120, Note_on_c, 0, 67, 0
2, 472155, Note_on_c, 0, 34, 90
2, 472159, Note_on_c, 0, 86, 98
2, 472164, Note_on_c, 0, 74, 96
2, 472167, Note_on_c, 0, 82, 90
2, 472204, Control_c, 0, 64, 127
2, 472492, Note_on_c, 0, 46, 76
2, 472649, Note_on_c, 0, 62, 85
2, 472653, Note_on_c, 0, 53, 75
2, 472654, Note_on_c, 0, 58, 78
2, 472801, Note_on_c, 0, 84, 98
2, 472804, Note_on_c, 0, 72, 94
2, 472807, Note_on_c, 0, 77, 84
2, 472972, Note_on_c, 0, 58, 0
2, 472972, Note_on_c, 0, 82, 0
2, 472977, Note_on_c, 0, 82, 93
2, 472982, Note_on_c, 0, 58, 72
2, 473128, Note_on_c, 0, 34, 0
2, 473130, Control_c, 0, 64, 0
2, 473130, Note_on_c, 0, 86, 0
2, 473130, Note_on_c, 0, 46, 0
2, 473130, Note_on_c, 0, 62, 0
2, 473130, Note_on_c, 0, 74, 0
2, 473131, Note_on_c, 0, 58, 0
2, 473131, Note_on_c, 0, 53, 0
2, 473131, Note_on_c, 0, 82, 0
2, 473141, Note_on_c, 0, 84, 0
2, 473149, Note_on_c, 0, 72, 0
2, 473149, Note_on_c, 0, 77, 0
2, 473150, Note_on_c, 0, 84, 99
2, 473152, Note_on_c, 0, 81, 95
2, 473154, Note_on_c, 0, 72, 96
2, 473156, Note_on_c, 0, 77, 86
2, 473160, Note_on_c, 0, 41, 91
2, 473160, Note_on_c, 0, 29, 98
2, 473241, Control_c, 0, 64, 127
2, 473472, Note_on_c, 0, 72, 0
2, 473472, Note_on_c, 0, 84, 0
2, 473478, Note_on_c, 0, 84, 87
2, 473479, Note_on_c, 0, 77, 0
2, 473481, Note_on_c, 0, 53, 71
2, 473482, Note_on_c, 0, 72, 85
2, 473484, Note_on_c, 0, 77, 68
2, 473633, Note_on_c, 0, 53, 0
2, 473638, Note_on_c, 0, 57, 76
2, 473639, Note_on_c, 0, 65, 71
2, 473643, Note_on_c, 0, 53, 71
2, 473645, Note_on_c, 0, 86, 94
2, 473649, Note_on_c, 0, 74, 89
2, 473687, Note_on_c, 0, 29, 0
2, 473802, Note_on_c, 0, 72, 0
2, 473802, Note_on_c, 0, 81, 0
2, 473802, Note_on_c, 0, 84, 0
2, 473806, Note_on_c, 0, 84, 96
2, 473811, Note_on_c, 0, 81, 76
2, 473812, Note_on_c, 0, 72, 90
2, 473966, Note_on_c, 0, 82, 93
2, 473973, Note_on_c, 0, 70, 82
2, 474113, Note_on_c, 0, 41, 0
2, 474113, Note_on_c, 0, 86, 0
2, 474113, Control_c, 0, 64, 0
2, 474114, Note_on_c, 0, 72, 0
2, 474114, Note_on_c, 0, 84, 0
2, 474114, Note_on_c, 0, 74, 0
2, 474114, Note_on_c, 0, 77, 0
2, 474114, Note_on_c, 0, 81, 0
2, 474114, Note_on_c, 0, 57, 0
2, 474114, Note_on_c, 0, 82, 0
2, 474132, Note_on_c, 0, 53, 0
2, 474132, Note_on_c, 0, 65, 0
2, 474135, Note_on_c, 0, 79, 98
2, 474140, Note_on_c, 0, 70, 0
2, 474143, Note_on_c, 0, 39, 85
2, 474144, Note_on_c, 0, 67, 80
2, 474151, Note_on_c, 0, 75, 73
2, 474151, Note_on_c, 0, 70, 77
2, 474232, Control_c, 0, 64, 127
2, 474240, Note_on_c, 0, 67, 0
2, 474312, Note_on_c, 0, 46, 57
2, 474467, Note_on_c, 0, 77, 94
2, 474482, Note_on_c, 0, 65, 82
2, 474616, Note_on_c, 0, 75, 0
2, 474620, Note_on_c, 0, 63, 84
2, 474622, Note_on_c, 0, 75, 74
2, 474626, Note_on_c, 0, 55, 78
2, 474627, Note_on_c, 0, 67, 68
2, 474782, Note_on_c, 0, 51, 76
2, 474938, Note_on_c, 0, 46, 0
2, 474948, Note_on_c, 0, 46, 80
2, 475084, Control_c, 0, 64, 0
2, 475087, Note_on_c, 0, 63, 0
2, 475087, Note_on_c, 0, 67, 0
2, 475088, Note_on_c, 0, 51, 0
2, 475088, Note_on_c, 0, 65, 0
2, 475088, Note_on_c, 0, 55, 0
2, 475088, Note_on_c, 0, 77, 0
2, 475088, Note_on_c, 0, 75, 0
2, 475088, Note_on_c, 0, 70, 0
2, 475088, Note_on_c, 0, 79, 0
2, 475088, Note_on_c, 0, 39, 0
2, 475107, Note_on_c, 0, 46, 0
2, 475128, Note_on_c, 0, 84, 98
2, 475130, Note_on_c, 0, 48, 89
2, 475133, Note_on_c, 0, 36, 93
2, 475133, Note_on_c, 0, 72, 97
2, 475136, Note_on_c, 0, 79, 75
2, 475136, Note_on_c, 0, 75, 87
2, 475184, Control_c, 0, 64, 127
2, 475284, Note_on_c, 0, 84, 0
2, 475292, Note_on_c, 0, 72, 0
2, 475294, Note_on_c, 0, 84, 79
2, 475296, Note_on_c, 0, 72, 78
2, 475299, Note_on_c, 0, 75, 0
2, 475303, Note_on_c, 0, 60, 53
2, 475304, Note_on_c, 0, 75, 72
2, 475315, Note_on_c, 0, 79, 0
2, 475320, Note_on_c, 0, 79, 46
2, 475453, Note_on_c, 0, 48, 0
2, 475453, Note_on_c, 0, 72, 0
2, 475453, Note_on_c, 0, 84, 0
2, 475461, Note_on_c, 0, 60, 0
2, 475463, Note_on_c, 0, 48, 69
2, 475463, Note_on_c, 0, 84, 90
2, 475464, Note_on_c, 0, 72, 87
2, 475465, Note_on_c, 0, 60, 66
2, 475614, Note_on_c, 0, 60, 0
2, 475620, Note_on_c, 0, 60, 71
2, 475625, Note_on_c, 0, 86, 95
2, 475626, Note_on_c, 0, 51, 65
2, 475627, Note_on_c, 0, 74, 91
2, 475776, Note_on_c, 0, 51, 0
2, 475776, Note_on_c, 0, 72, 0
2, 475776, Note_on_c, 0, 84, 0
2, 475779, Note_on_c, 0, 84, 94
2, 475783, Note_on_c, 0, 51, 59
2, 475785, Note_on_c, 0, 72, 88
2, 475929, Note_on_c, 0, 48, 0
2, 475932, Note_on_c, 0, 67, 70
2, 475937, Note_on_c, 0, 67, 0
2, 475941, Note_on_c, 0, 82, 93
2, 475948, Note_on_c, 0, 70, 81
2, 476106, Note_on_c, 0, 79, 0
2, 476113, Note_on_c, 0, 79, 96
2, 476113, Control_c, 0, 64, 0
2, 476116, Note_on_c, 0, 84, 0
2, 476117, Note_on_c, 0, 86, 0
2, 476117, Note_on_c, 0, 82, 0
2, 476117, Note_on_c, 0, 74, 0
2, 476118, Note_on_c, 0, 72, 0
2, 476118, Note_on_c, 0, 51, 0
2, 476121, Note_on_c, 0, 70, 0
2, 476122, Note_on_c, 0, 39, 86
2, 476124, Note_on_c, 0, 67, 80
2, 476127, Note_on_c, 0, 70, 75
2, 476129, Note_on_c, 0, 36, 0
2, 476129, Note_on_c, 0, 60, 0
2, 476129, Note_on_c, 0, 75, 0
2, 476229, Control_c, 0, 64, 127
2, 476302, Note_on_c, 0, 46, 64
2, 476421, Note_on_c, 0, 39, 0
2, 476430, Note_on_c, 0, 39, 66
2, 476432, Note_on_c, 0, 51, 67
2, 476602, Note_on_c, 0, 63, 84
2, 476605, Note_on_c, 0, 51, 0
2, 476608, Note_on_c, 0, 55, 79
2, 476610, Note_on_c, 0, 51, 63
2, 476766, Note_on_c, 0, 51, 0
2, 476766, Note_on_c, 0, 70, 0
2, 476774, Note_on_c, 0, 82, 97
2, 476777, Note_on_c, 0, 70, 85
2, 476777, Note_on_c, 0, 51, 62
2, 476928, Note_on_c, 0, 39, 0
2, 476928, Note_on_c, 0, 51, 0
2, 476932, Note_on_c, 0, 51, 70
2, 476932, Note_on_c, 0, 39, 72
2, 477093, Note_on_c, 0, 39, 0
2, 477093, Note_on_c, 0, 46, 0
2, 477093, Note_on_c, 0, 67, 0
2, 477093, Note_on_c, 0, 51, 0
2, 477093, Note_on_c, 0, 55, 0
2, 477094, Note_on_c, 0, 63, 0
2, 477094, Note_on_c, 0, 82, 0
2, 477099, Control_c, 0, 64, 0
2, 477100, Note_on_c, 0, 84, 97
2, 477104, Note_on_c, 0, 79, 0
2, 477105, Note_on_c, 0, 41, 81
2, 477107, Note_on_c, 0, 53, 80
2, 477107, Note_on_c, 0, 72, 89
2, 477108, Note_on_c, 0, 81, 84
2, 477109, Note_on_c, 0, 77, 75
2, 477112, Note_on_c, 0, 70, 0
2, 477227, Control_c, 0, 64, 127
2, 477258, Note_on_c, 0, 48, 76
2, 477404, Note_on_c, 0, 53, 0
2, 477414, Note_on_c, 0, 53, 68
2, 477592, Note_on_c, 0, 57, 71
2, 477742, Note_on_c, 0, 53, 0
2, 477750, Note_on_c, 0, 53, 64
2, 477757, Note_on_c, 0, 57, 0
2, 477759, Note_on_c, 0, 65, 77
2, 477762, Note_on_c, 0, 60, 71
2, 477768, Note_on_c, 0, 57, 59
2, 477914, Note_on_c, 0, 70, 81
2, 478060, Note_on_c, 0, 48, 0
2, 478060, Note_on_c, 0, 77, 0
2, 478060, Note_on_c, 0, 65, 0
2, 478060, Note_on_c, 0, 60, 0
2, 478060, Note_on_c, 0, 84, 0
2, 478061, Note_on_c, 0, 81, 0
2, 478061, Note_on_c, 0, 57, 0
2, 478061, Note_on_c, 0, 72, 0
2, 478061, Control_c, 0, 64, 0
2, 478072, Note_on_c, 0, 41, 0
2, 478077, Note_on_c, 0, 38, 78
2, 478079, Note_on_c, 0, 69, 79
2, 478080, Note_on_c, 0, 53, 0
2, 478081, Note_on_c, 0, 50, 81
2, 478083, Note_on_c, 0, 62, 69
2, 478118, Note_on_c, 0, 70, 0
2, 478172, Control_c, 0, 64, 127
2, 478255, Note_on_c, 0, 65, 82
2, 478256, Note_on_c, 0, 38, 0
2, 478402, Note_on_c, 0, 50, 0
2, 478402, Note_on_c, 0, 62, 0
2, 478410, Note_on_c, 0, 62, 81
2, 478411, Note_on_c, 0, 50, 62
2, 478563, Note_on_c, 0, 50, 0
2, 478568, Note_on_c, 0, 50, 74
2, 478732, Note_on_c, 0, 50, 0
2, 478732, Note_on_c, 0, 62, 0
2, 478736, Note_on_c, 0, 62, 82
2, 478740, Note_on_c, 0, 50, 79
2, 478742, Note_on_c, 0, 57, 77
2, 478744, Note_on_c, 0, 53, 78
2, 478744, Note_on_c, 0, 79, 93
2, 478751, Note_on_c, 0, 67, 86
2, 478900, Note_on_c, 0, 82, 97
2, 478911, Note_on_c, 0, 70, 78
2, 479050, Note_on_c, 0, 69, 0
2, 479050, Note_on_c, 0, 65, 0
2, 479050, Note_on_c, 0, 67, 0
2, 479050, Note_on_c, 0, 62, 0
2, 479050, Control_c, 0, 64, 0
2, 479050, Note_on_c, 0, 53, 0
2, 479050, Note_on_c, 0, 70, 0
2, 479050, Note_on_c, 0, 57, 0
2, 479050, Note_on_c, 0, 79, 0
2, 479051, Note_on_c, 0, 50, 0
2, 479051, Note_on_c, 0, 82, 0
2, 479085, Note_on_c, 0, 84, 103
2, 479086, Note_on_c, 0, 43, 91
2, 479086, Note_on_c, 0, 31, 89
2, 479090, Note_on_c, 0, 72, 98
2, 479147, Control_c, 0, 64, 127
2, 479408, Note_on_c, 0, 72, 0
2, 479408, Note_on_c, 0, 84, 0
2, 479414, Note_on_c, 0, 84, 89
2, 479417, Note_on_c, 0, 55, 76
2, 479420, Note_on_c, 0, 72, 75
2, 479579, Note_on_c, 0, 58, 75
2, 479580, Note_on_c, 0, 82, 96
2, 479581, Note_on_c, 0, 70, 85
2, 479723, Note_on_c, 0, 72, 0
2, 479723, Note_on_c, 0, 84, 0
2, 479733, Note_on_c, 0, 84, 96
2, 479734, Note_on_c, 0, 72, 90
2, 479884, Note_on_c, 0, 31, 0
2, 479888, Note_on_c, 0, 43, 0
2, 479895, Note_on_c, 0, 31, 76
2, 479897, Note_on_c, 0, 89, 97
2, 479908, Note_on_c, 0, 77, 81
2, 480020, Note_on_c, 0, 82, 0
2, 480020, Note_on_c, 0, 55, 0
2, 480020, Note_on_c, 0, 72, 0
2, 480021, Note_on_c, 0, 84, 0
2, 480021, Note_on_c, 0, 58, 0
2, 480021, Note_on_c, 0, 70, 0
2, 480021, Note_on_c, 0, 77, 0
2, 480021, Note_on_c, 0, 89, 0
2, 480024, Control_c, 0, 64, 0
2, 480038, Note_on_c, 0, 31, 0
2, 480072, Note_on_c, 0, 86, 93
2, 480072, Note_on_c, 0, 34, 79
2, 480081, Note_on_c, 0, 74, 88
2, 480082, Note_on_c, 0, 82, 80
2, 480115, Control_c, 0, 64, 127
2, 480254, Note_on_c, 0, 46, 62
2, 480389, Note_on_c, 0, 53, 70
2, 480567, Note_on_c, 0, 62, 77
2, 480568, Note_on_c, 0, 58, 76
2, 480721, Note_on_c, 0, 72, 87
2, 480724, Note_on_c, 0, 77, 82
2, 480725, Note_on_c, 0, 84, 95
2, 480875, Note_on_c, 0, 46, 0
2, 480879, Note_on_c, 0, 46, 81
2, 480883, Note_on_c, 0, 82, 0
2, 480887, Note_on_c, 0, 82, 88
2, 481058, Note_on_c, 0, 34, 0
2, 481059, Note_on_c, 0, 84, 0
2, 481060, Note_on_c, 0, 86, 0
2, 481060, Note_on_c, 0, 62, 0
2, 481061, Note_on_c, 0, 46, 0
2, 481061, Note_on_c, 0, 58, 0
2, 481061, Note_on_c, 0, 74, 0
2, 481062, Note_on_c, 0, 82, 0
2, 481063, Control_c, 0, 64, 0
2, 481067, Note_on_c, 0, 53, 0
2, 481067, Note_on_c, 0, 72, 0
2, 481067, Note_on_c, 0, 77, 0
2, 481069, Note_on_c, 0, 41, 81
2, 481070, Note_on_c, 0, 84, 96
2, 481071, Note_on_c, 0, 53, 78
2, 481074, Note_on_c, 0, 72, 90
2, 481075, Note_on_c, 0, 81, 88
2, 481076, Note_on_c, 0, 77, 83
2, 481167, Control_c, 0, 64, 127
2, 481214, Note_on_c, 0, 48, 67
2, 481382, Note_on_c, 0, 53, 0
2, 481386, Note_on_c, 0, 53, 56
2, 481390, Note_on_c, 0, 72, 0
2, 481390, Note_on_c, 0, 84, 0
2, 481400, Note_on_c, 0, 60, 56
2, 481400, Note_on_c, 0, 84, 84
2, 481401, Note_on_c, 0, 72, 79
2, 481553, Note_on_c, 0, 65, 77
2, 481560, Note_on_c, 0, 57, 71
2, 481578, Note_on_c, 0, 74, 92
2, 481578, Note_on_c, 0, 86, 91
2, 481720, Note_on_c, 0, 84, 0
2, 481728, Note_on_c, 0, 72, 0
2, 481731, Note_on_c, 0, 84, 93
2, 481732, Note_on_c, 0, 72, 92
2, 481866, Note_on_c, 0, 53, 0
2, 481877, Note_on_c, 0, 53, 70
2, 481891, Note_on_c, 0, 82, 91
2, 481899, Note_on_c, 0, 70, 83
2, 482060, Note_on_c, 0, 41, 0
2, 482061, Control_c, 0, 64, 0
2, 482061, Note_on_c, 0, 48, 0
2, 482061, Note_on_c, 0, 65, 0
2, 482061, Note_on_c, 0, 72, 0
2, 482061, Note_on_c, 0, 77, 0
2, 482061, Note_on_c, 0, 82, 0
2, 482061, Note_on_c, 0, 86, 0
2, 482061, Note_on_c, 0, 57, 0
2, 482062, Note_on_c, 0, 84, 0
2, 482062, Note_on_c, 0, 79, 95
2, 482062, Note_on_c, 0, 74, 0
2, 482062, Note_on_c, 0, 81, 0
2, 482065, Note_on_c, 0, 70, 0
2, 482069, Note_on_c, 0, 39, 86
2, 482070, Note_on_c, 0, 67, 79
2, 482073, Note_on_c, 0, 75, 79
2, 482073, Note_on_c, 0, 60, 0
2, 482076, Note_on_c, 0, 70, 78
2, 482081, Note_on_c, 0, 53, 0
2, 482165, Control_c, 0, 64, 127
2, 482231, Note_on_c, 0, 46, 64
2, 482393, Note_on_c, 0, 77, 90
2, 482400, Note_on_c, 0, 65, 79
2, 482547, Note_on_c, 0, 63, 80
2, 482560, Note_on_c, 0, 58, 67
2, 482561, Note_on_c, 0, 55, 71
2, 482703, Note_on_c, 0, 63, 0
2, 482713, Note_on_c, 0, 63, 59
2, 482714, Note_on_c, 0, 51, 64
2, 482864, Note_on_c, 0, 46, 0
2, 482873, Note_on_c, 0, 46, 64
2, 482929, Note_on_c, 0, 72, 74
2, 482979, Note_on_c, 0, 75, 0
2, 482984, Note_on_c, 0, 75, 70
2, 483006, Note_on_c, 0, 55, 0
2, 483006, Note_on_c, 0, 63, 0
2, 483006, Note_on_c, 0, 67, 0
2, 483006, Note_on_c, 0, 51, 0
2, 483006, Control_c, 0, 64, 0
2, 483006, Note_on_c, 0, 58, 0
2, 483006, Note_on_c, 0, 65, 0
2, 483007, Note_on_c, 0, 70, 0
2, 483007, Note_on_c, 0, 77, 0
2, 483007, Note_on_c, 0, 72, 0
2, 483007, Note_on_c, 0, 79, 0
2, 483008, Note_on_c, 0, 39, 0
2, 483025, Note_on_c, 0, 46, 0
2, 483033, Note_on_c, 0, 75, 0
2, 483047, Note_on_c, 0, 48, 83
2, 483052, Note_on_c, 0, 36, 86
2, 483054, Note_on_c, 0, 84, 96
2, 483059, Note_on_c, 0, 72, 86
2, 483095, Control_c, 0, 64, 127
2, 483217, Note_on_c, 0, 72, 0
2, 483217, Note_on_c, 0, 84, 0
2, 483223, Note_on_c, 0, 84, 83
2, 483225, Note_on_c, 0, 72, 78
2, 483371, Note_on_c, 0, 72, 0
2, 483371, Note_on_c, 0, 84, 0
2, 483375, Note_on_c, 0, 60, 70
2, 483378, Note_on_c, 0, 84, 90
2, 483378, Note_on_c, 0, 72, 84
2, 483521, Note_on_c, 0, 63, 66
2, 483532, Note_on_c, 0, 67, 70
2, 483537, Note_on_c, 0, 86, 92
2, 483539, Note_on_c, 0, 74, 87
2, 483694, Note_on_c, 0, 84, 0
2, 483701, Note_on_c, 0, 72, 0
2, 483705, Note_on_c, 0, 84, 91
2, 483712, Note_on_c, 0, 72, 80
2, 483843, Note_on_c, 0, 55, 70
2, 483859, Note_on_c, 0, 82, 94
2, 483867, Note_on_c, 0, 70, 83
2, 484039, Note_on_c, 0, 67, 0
2, 484039, Note_on_c, 0, 79, 96
2, 484044, Note_on_c, 0, 39, 84
2, 484047, Note_on_c, 0, 70, 0
2, 484049, Note_on_c, 0, 67, 81
2, 484051, Note_on_c, 0, 75, 72
2, 484051, Note_on_c, 0, 82, 0
2, 484052, Note_on_c, 0, 55, 0
2, 484052, Note_on_c, 0, 84, 0
2, 484052, Note_on_c, 0, 86, 0
2, 484052, Control_c, 0, 64, 0
2, 484052, Note_on_c, 0, 60, 0
2, 484052, Note_on_c, 0, 74, 0
2, 484054, Note_on_c, 0, 72, 0
2, 484054, Note_on_c, 0, 63, 0
2, 484054, Note_on_c, 0, 70, 76
2, 484062, Note_on_c, 0, 36, 0
2, 484062, Note_on_c, 0, 48, 0
2, 484162, Control_c, 0, 64, 127
2, 484210, Note_on_c, 0, 46, 62
2, 484357, Note_on_c, 0, 51, 66
2, 484536, Note_on_c, 0, 63, 78
2, 484541, Note_on_c, 0, 55, 72
2, 484541, Note_on_c, 0, 58, 66
2, 484700, Note_on_c, 0, 70, 0
2, 484701, Note_on_c, 0, 82, 101
2, 484704, Note_on_c, 0, 70, 81
2, 484853, Note_on_c, 0, 39, 0
2, 484853, Note_on_c, 0, 51, 0
2, 484858, Note_on_c, 0, 39, 72
2, 484861, Note_on_c, 0, 51, 69
2, 485024, Control_c, 0, 64, 0
2, 485025, Note_on_c, 0, 67, 0
2, 485026, Note_on_c, 0, 63, 0
2, 485026, Note_on_c, 0, 55, 0
2, 485026, Note_on_c, 0, 46, 0
2, 485026, Note_on_c, 0, 75, 0
2, 485026, Note_on_c, 0, 39, 0
2, 485026, Note_on_c, 0, 70, 0
2, 485026, Note_on_c, 0, 51, 0
2, 485027, Note_on_c, 0, 58, 0
2, 485027, Note_on_c, 0, 79, 0
2, 485028, Note_on_c, 0, 82, 0
2, 485040, Note_on_c, 0, 84, 98
2, 485044, Note_on_c, 0, 72, 90
2, 485045, Note_on_c, 0, 53, 82
2, 485047, Note_on_c, 0, 81, 87
2, 485049, Note_on_c, 0, 41, 78
2, 485049, Note_on_c, 0, 77, 80
2, 485160, Note_on_c, 0, 53, 0
2, 485168, Control_c, 0, 64, 127
2, 485189, Note_on_c, 0, 48, 69
2, 485349, Note_on_c, 0, 53, 68
2, 485525, Note_on_c, 0, 57, 70
2, 485683, Note_on_c, 0, 57, 0
2, 485690, Note_on_c, 0, 57, 65
2, 485691, Note_on_c, 0, 60, 75
2, 485692, Note_on_c, 0, 65, 74
2, 485694, Note_on_c, 0, 53, 0
2, 485855, Note_on_c, 0, 70, 84
2, 485981, Control_c, 0, 64, 0
2, 485983, Note_on_c, 0, 48, 0
2, 485984, Note_on_c, 0, 60, 0
2, 485984, Note_on_c, 0, 65, 0
2, 485984, Note_on_c, 0, 84, 0
2, 485984, Note_on_c, 0, 77, 0
2, 485984, Note_on_c, 0, 57, 0
2, 485985, Note_on_c, 0, 81, 0
2, 485985, Note_on_c, 0, 72, 0
2, 485990, Note_on_c, 0, 41, 0
2, 486005, Note_on_c, 0, 70, 0
2, 486024, Note_on_c, 0, 38, 88
2, 486025, Note_on_c, 0, 72, 93
2, 486030, Note_on_c, 0, 69, 75
2, 486035, Note_on_c, 0, 50, 77
2, 486038, Note_on_c, 0, 65, 69
2, 486097, Control_c, 0, 64, 127
2, 486343, Note_on_c, 0, 50, 0
2, 486349, Note_on_c, 0, 50, 73
2, 486511, Note_on_c, 0, 57, 85
2, 486513, Note_on_c, 0, 62, 88
2, 486675, Note_on_c, 0, 67, 91
2, 486824, Note_on_c, 0, 70, 94
2, 486947, Note_on_c, 0, 72, 0
2, 486948, Note_on_c, 0, 65, 0
2, 486948, Note_on_c, 0, 67, 0
2, 486948, Note_on_c, 0, 69, 0
2, 486948, Note_on_c, 0, 62, 0
2, 486948, Note_on_c, 0, 70, 0
2, 486948, Note_on_c, 0, 50, 0
2, 486949, Note_on_c, 0, 57, 0
2, 486951, Control_c, 0, 64, 0
2, 486958, Note_on_c, 0, 38, 0
2, 487000, Note_on_c, 0, 72, 107
2, 487001, Note_on_c, 0, 43, 98
2, 487001, Note_on_c, 0, 31, 91
2, 487057, Note_on_c, 0, 43, 0
2, 487057, Control_c, 0, 64, 127
2, 487157, Note_on_c, 0, 72, 0
2, 487162, Note_on_c, 0, 72, 94
2, 487319, Note_on_c, 0, 72, 0
2, 487325, Note_on_c, 0, 72, 98
2, 487475, Note_on_c, 0, 58, 81
2, 487476, Note_on_c, 0, 67, 77
2, 487499, Note_on_c, 0, 70, 89
2, 487641, Note_on_c, 0, 72, 0
2, 487646, Note_on_c, 0, 72, 93
2, 487800, Note_on_c, 0, 77, 97
2, 487870, Note_on_c, 0, 67, 0
2, 487871, Note_on_c, 0, 72, 0
2, 487871, Note_on_c, 0, 58, 0
2, 487872, Note_on_c, 0, 31, 0
2, 487873, Note_on_c, 0, 70, 0
2, 487874, Control_c, 0, 64, 0
2, 487876, Note_on_c, 0, 77, 0
2, 487959, Note_on_c, 0, 74, 103
2, 487964, Note_on_c, 0, 70, 87
2, 487964, Note_on_c, 0, 65, 85
2, 487966, Note_on_c, 0, 46, 91
2, 487967, Note_on_c, 0, 34, 87
2, 488010, Control_c, 0, 64, 127
2, 488182, Note_on_c, 0, 87, 86
2, 488194, Note_on_c, 0, 46, 0
2, 488203, Note_on_c, 0, 46, 98
2, 488229, Note_on_c, 0, 86, 79
2, 488286, Note_on_c, 0, 53, 71
2, 488343, Note_on_c, 0, 84, 87
2, 488378, Note_on_c, 0, 74, 0
2, 488383, Note_on_c, 0, 74, 46
2, 488483, Note_on_c, 0, 82, 94
2, 488486, Note_on_c, 0, 70, 0
2, 488494, Note_on_c, 0, 65, 0
2, 488496, Note_on_c, 0, 70, 74
2, 488498, Note_on_c, 0, 62, 66
2, 488498, Note_on_c, 0, 58, 70
2, 488499, Note_on_c, 0, 65, 61
2, 488640, Note_on_c, 0, 70, 0
2, 488644, Note_on_c, 0, 70, 90
2, 488647, Note_on_c, 0, 65, 0
2, 488648, Note_on_c, 0, 91, 95
2, 488651, Note_on_c, 0, 79, 91
2, 488652, Note_on_c, 0, 65, 68
2, 488793, Note_on_c, 0, 82, 0
2, 488801, Note_on_c, 0, 82, 94
2, 488939, Note_on_c, 0, 91, 0
2, 488943, Note_on_c, 0, 34, 0
2, 488943, Note_on_c, 0, 79, 0
2, 488944, Note_on_c, 0, 62, 0
2, 488944, Note_on_c, 0, 65, 0
2, 488944, Note_on_c, 0, 86, 0
2, 488944, Note_on_c, 0, 58, 0
2, 488944, Note_on_c, 0, 53, 0
2, 488944, Note_on_c, 0, 74, 0
2, 488944, Note_on_c, 0, 82, 0
2, 488945, Note_on_c, 0, 70, 0
2, 488946, Control_c, 0, 64, 0
2, 488954, Note_on_c, 0, 87, 0
2, 488962, Note_on_c, 0, 46, 0
2, 488962, Note_on_c, 0, 84, 0
2, 488969, Note_on_c, 0, 84, 99
2, 488971, Note_on_c, 0, 81, 96
2, 488971, Note_on_c, 0, 72, 99
2, 488980, Note_on_c, 0, 77, 89
2, 488996, Note_on_c, 0, 53, 87
2, 488997, Note_on_c, 0, 41, 86
2, 489039, Control_c, 0, 64, 127
2, 489300, Note_on_c, 0, 72, 0
2, 489306, Note_on_c, 0, 72, 84
2, 489464, Note_on_c, 0, 74, 86
2, 489479, Note_on_c, 0, 65, 64
2, 489481, Note_on_c, 0, 69, 59
2, 489481, Note_on_c, 0, 57, 68
2, 489615, Note_on_c, 0, 72, 0
2, 489620, Note_on_c, 0, 72, 87
2, 489782, Note_on_c, 0, 48, 74
2, 489788, Note_on_c, 0, 70, 92
2, 489863, Note_on_c, 0, 84, 0
2, 489863, Note_on_c, 0, 53, 0
2, 489863, Note_on_c, 0, 77, 0
2, 489864, Note_on_c, 0, 65, 0
2, 489864, Note_on_c, 0, 81, 0
2, 489864, Note_on_c, 0, 72, 0
2, 489864, Note_on_c, 0, 57, 0
2, 489864, Note_on_c, 0, 48, 0
2, 489864, Control_c, 0, 64, 0
2, 489864, Note_on_c, 0, 74, 0
2, 489865, Note_on_c, 0, 69, 0
2, 489868, Note_on_c, 0, 41, 0
2, 489942, Note_on_c, 0, 67, 89
2, 489948, Note_on_c, 0, 39, 87
2, 489948, Note_on_c, 0, 51, 85
2, 489960, Control_c, 0, 64, 127
2, 490102, Note_on_c, 0, 87, 82
2, 490129, Note_on_c, 0, 51, 0
2, 490140, Note_on_c, 0, 51, 45
2, 490180, Note_on_c, 0, 86, 77
2, 490251, Note_on_c, 0, 84, 96
2, 490260, Note_on_c, 0, 67, 0
2, 490264, Note_on_c, 0, 63, 78
2, 490270, Note_on_c, 0, 67, 76
2, 490275, Note_on_c, 0, 51, 0
2, 490280, Note_on_c, 0, 58, 73
2, 490286, Note_on_c, 0, 51, 64
2, 490298, Note_on_c, 0, 86, 0
2, 490302, Note_on_c, 0, 86, 47
2, 490433, Note_on_c, 0, 82, 85
2, 490437, Note_on_c, 0, 39, 0
2, 490441, Note_on_c, 0, 39, 59
2, 490590, Note_on_c, 0, 63, 0
2, 490595, Note_on_c, 0, 63, 69
2, 490598, Note_on_c, 0, 58, 0
2, 490602, Note_on_c, 0, 79, 78
2, 490603, Note_on_c, 0, 55, 65
2, 490603, Note_on_c, 0, 58, 64
2, 490744, Note_on_c, 0, 82, 0
2, 490750, Note_on_c, 0, 82, 98
2, 490895, Control_c, 0, 64, 0
2, 490897, Note_on_c, 0, 39, 0
2, 490898, Note_on_c, 0, 51, 0
2, 490898, Note_on_c, 0, 55, 0
2, 490898, Note_on_c, 0, 87, 0
2, 490898, Note_on_c, 0, 63, 0
2, 490899, Note_on_c, 0, 82, 0
2, 490899, Note_on_c, 0, 58, 0
2, 490899, Note_on_c, 0, 67, 0
2, 490899, Note_on_c, 0, 79, 0
2, 490899, Note_on_c, 0, 86, 0
2, 490905, Note_on_c, 0, 70, 0
2, 490920, Note_on_c, 0, 84, 0
2, 490927, Note_on_c, 0, 84, 97
2, 490928, Note_on_c, 0, 72, 98
2, 490931, Note_on_c, 0, 48, 88
2, 490931, Note_on_c, 0, 36, 93
2, 490932, Note_on_c, 0, 75, 89
2, 490982, Control_c, 0, 64, 127
2, 491082, Note_on_c, 0, 72, 0
2, 491090, Note_on_c, 0, 72, 85
2, 491251, Note_on_c, 0, 72, 0
2, 491256, Note_on_c, 0, 72, 88
2, 491266, Note_on_c, 0, 48, 0
2, 491274, Note_on_c, 0, 48, 76
2, 491425, Note_on_c, 0, 74, 94
2, 491429, Note_on_c, 0, 51, 70
2, 491431, Note_on_c, 0, 63, 83
2, 491433, Note_on_c, 0, 55, 75
2, 491581, Note_on_c, 0, 72, 0
2, 491592, Note_on_c, 0, 72, 96
2, 491650, Note_on_c, 0, 48, 0
2, 491654, Note_on_c, 0, 48, 45
2, 491748, Note_on_c, 0, 70, 90
2, 491758, Note_on_c, 0, 51, 0
2, 491763, Note_on_c, 0, 51, 61
2, 491819, Note_on_c, 0, 84, 0
2, 491821, Control_c, 0, 64, 0
2, 491822, Note_on_c, 0, 48, 0
2, 491823, Note_on_c, 0, 74, 0
2, 491823, Note_on_c, 0, 63, 0
2, 491823, Note_on_c, 0, 55, 0
2, 491823, Note_on_c, 0, 72, 0
2, 491823, Note_on_c, 0, 51, 0
2, 491823, Note_on_c, 0, 75, 0
2, 491827, Note_on_c, 0, 36, 0
2, 491899, Note_on_c, 0, 67, 94
2, 491907, Note_on_c, 0, 39, 88
2, 491908, Note_on_c, 0, 51, 83
2, 491950, Control_c, 0, 64, 127
2, 492082, Note_on_c, 0, 87, 78
2, 492143, Note_on_c, 0, 86, 70
2, 492210, Note_on_c, 0, 84, 89
2, 492215, Note_on_c, 0, 49, 62
2, 492392, Note_on_c, 0, 82, 87
2, 492413, Note_on_c, 0, 56, 55
2, 492541, Note_on_c, 0, 67, 0
2, 492541, Note_on_c, 0, 70, 0
2, 492545, Note_on_c, 0, 70, 86
2, 492550, Note_on_c, 0, 67, 76
2, 492558, Note_on_c, 0, 79, 86
2, 492702, Note_on_c, 0, 82, 0
2, 492710, Note_on_c, 0, 82, 91
2, 492851, Note_on_c, 0, 39, 0
2, 492852, Note_on_c, 0, 51, 0
2, 492852, Note_on_c, 0, 49, 0
2, 492852, Note_on_c, 0, 87, 0
2, 492852, Note_on_c, 0, 67, 0
2, 492852, Note_on_c, 0, 82, 0
2, 492852, Note_on_c, 0, 79, 0
2, 492852, Note_on_c, 0, 70, 0
2, 492852, Control_c, 0, 64, 0
2, 492853, Note_on_c, 0, 86, 0
2, 492856, Note_on_c, 0, 56, 0
2, 492879, Note_on_c, 0, 84, 0
2, 492884, Note_on_c, 0, 84, 98
2, 492886, Note_on_c, 0, 53, 87
2, 492886, Note_on_c, 0, 41, 85
2, 492889, Note_on_c, 0, 81, 91
2, 492889, Note_on_c, 0, 72, 93
2, 492890, Note_on_c, 0, 77, 87
2, 492979, Control_c, 0, 64, 127
2, 493040, Note_on_c, 0, 48, 63
2, 493209, Note_on_c, 0, 53, 0
2, 493213, Note_on_c, 0, 53, 61
2, 493374, Note_on_c, 0, 57, 66
2, 493529, Note_on_c, 0, 53, 0
2, 493532, Note_on_c, 0, 57, 0
2, 493535, Note_on_c, 0, 65, 79
2, 493536, Note_on_c, 0, 60, 68
2, 493543, Note_on_c, 0, 57, 59
2, 493696, Note_on_c, 0, 70, 82
2, 493818, Note_on_c, 0, 48, 0
2, 493818, Note_on_c, 0, 77, 0
2, 493818, Note_on_c, 0, 84, 0
2, 493819, Note_on_c, 0, 65, 0
2, 493819, Note_on_c, 0, 60, 0
2, 493819, Note_on_c, 0, 70, 0
2, 493819, Note_on_c, 0, 72, 0
2, 493819, Note_on_c, 0, 81, 0
2, 493819, Note_on_c, 0, 57, 0
2, 493821, Control_c, 0, 64, 0
2, 493831, Note_on_c, 0, 41, 0
2, 493865, Note_on_c, 0, 38, 86
2, 493867, Note_on_c, 0, 26, 80
2, 493871, Note_on_c, 0, 65, 80
2, 493872, Note_on_c, 0, 69, 86
2, 493874, Note_on_c, 0, 62, 79
2, 493877, Note_on_c, 0, 26, 0
2, 493901, Note_on_c, 0, 38, 0
2, 493904, Note_on_c, 0, 65, 0
2, 493923, Control_c, 0, 64, 127
2, 494040, Note_on_c, 0, 65, 85
2, 494192, Note_on_c, 0, 62, 0
2, 494197, Note_on_c, 0, 62, 84
2, 494345, Note_on_c, 0, 50, 81
2, 494511, Note_on_c, 0, 60, 77
2, 494517, Note_on_c, 0, 67, 93
2, 494517, Note_on_c, 0, 53, 78
2, 494675, Note_on_c, 0, 70, 96
2, 494783, Note_on_c, 0, 60, 0
2, 494783, Note_on_c, 0, 65, 0
2, 494784, Note_on_c, 0, 67, 0
2, 494784, Note_on_c, 0, 62, 0
2, 494784, Note_on_c, 0, 53, 0
2, 494785, Note_on_c, 0, 50, 0
2, 494785, Control_c, 0, 64, 0
2, 494786, Note_on_c, 0, 70, 0
2, 494791, Note_on_c, 0, 69, 0
2, 494834, Note_on_c, 0, 31, 88
2, 494837, Note_on_c, 0, 72, 107
2, 494883, Control_c, 0, 64, 127
2, 495175, Note_on_c, 0, 72, 0
2, 495180, Note_on_c, 0, 72, 98
2, 495341, Note_on_c, 0, 70, 95
2, 495350, Note_on_c, 0, 67, 78
2, 495355, Note_on_c, 0, 62, 76
2, 495356, Note_on_c, 0, 58, 81
2, 495359, Note_on_c, 0, 55, 74
2, 495490, Note_on_c, 0, 72, 0
2, 495495, Note_on_c, 0, 72, 97
2, 495657, Note_on_c, 0, 77, 99
2, 495682, Note_on_c, 0, 31, 0
2, 495745, Note_on_c, 0, 67, 0
2, 495745, Note_on_c, 0, 62, 0
2, 495746, Note_on_c, 0, 70, 0
2, 495746, Note_on_c, 0, 55, 0
2, 495746, Note_on_c, 0, 72, 0
2, 495746, Note_on_c, 0, 58, 0
2, 495748, Control_c, 0, 64, 0
2, 495754, Note_on_c, 0, 77, 0
2, 495809, Note_on_c, 0, 74, 105
2, 495811, Note_on_c, 0, 34, 85
2, 495814, Note_on_c, 0, 46, 90
2, 495836, Control_c, 0, 64, 127
2, 495979, Note_on_c, 0, 87, 86
2, 496005, Note_on_c, 0, 46, 0
2, 496010, Note_on_c, 0, 46, 65
2, 496024, Note_on_c, 0, 53, 52
2, 496035, Note_on_c, 0, 53, 0
2, 496055, Note_on_c, 0, 86, 77
2, 496129, Note_on_c, 0, 53, 67
2, 496135, Note_on_c, 0, 84, 90
2, 496316, Note_on_c, 0, 58, 82
2, 496317, Note_on_c, 0, 82, 97
2, 496480, Note_on_c, 0, 72, 103
2, 496489, Note_on_c, 0, 79, 86
2, 496624, Note_on_c, 0, 70, 84
2, 496642, Note_on_c, 0, 82, 0
2, 496649, Note_on_c, 0, 82, 93
2, 496811, Note_on_c, 0, 84, 0
2, 496813, Note_on_c, 0, 87, 0
2, 496814, Note_on_c, 0, 34, 0
2, 496814, Note_on_c, 0, 46, 0
2, 496814, Note_on_c, 0, 79, 0
2, 496814, Note_on_c, 0, 58, 0
2, 496814, Control_c, 0, 64, 0
2, 496814, Note_on_c, 0, 86, 0
2, 496815, Note_on_c, 0, 74, 0
2, 496815, Note_on_c, 0, 70, 0
2, 496815, Note_on_c, 0, 82, 0
2, 496819, Note_on_c, 0, 53, 0
2, 496819, Note_on_c, 0, 72, 0
2, 496822, Note_on_c, 0, 84, 100
2, 496823, Note_on_c, 0, 72, 96
2, 496824, Note_on_c, 0, 81, 88
2, 496828, Note_on_c, 0, 53, 86
2, 496830, Note_on_c, 0, 77, 87
2, 496831, Note_on_c, 0, 41, 83
2, 496934, Control_c, 0, 64, 127
2, 497118, Note_on_c, 0, 72, 0
2, 497129, Note_on_c, 0, 72, 81
2, 497175, Note_on_c, 0, 62, 21
2, 497180, Note_on_c, 0, 62, 0
2, 497292, Note_on_c, 0, 65, 77
2, 497295, Note_on_c, 0, 53, 0
2, 497299, Note_on_c, 0, 57, 74
2, 497301, Note_on_c, 0, 74, 93
2, 497305, Note_on_c, 0, 53, 66
2, 497456, Note_on_c, 0, 72, 0
2, 497460, Note_on_c, 0, 72, 98
2, 497606, Note_on_c, 0, 55, 56
2, 497607, Note_on_c, 0, 48, 68
2, 497621, Note_on_c, 0, 70, 89
2, 497705, Note_on_c, 0, 77, 0
2, 497706, Note_on_c, 0, 41, 0
2, 497706, Note_on_c, 0, 65, 0
2, 497706, Note_on_c, 0, 48, 0
2, 497706, Note_on_c, 0, 74, 0
2, 497707, Note_on_c, 0, 53, 0
2, 497707, Note_on_c, 0, 57, 0
2, 497707, Note_on_c, 0, 72, 0
2, 497707, Control_c, 0, 64, 0
2, 497717, Note_on_c, 0, 81, 0
2, 497717, Note_on_c, 0, 84, 0
2, 497725, Note_on_c, 0, 55, 0
2, 497775, Note_on_c, 0, 67, 95
2, 497776, Note_on_c, 0, 39, 95
2, 497779, Note_on_c, 0, 51, 89
2, 497840, Control_c, 0, 64, 127
2, 497856, Note_on_c, 0, 70, 0
2, 497949, Note_on_c, 0, 87, 77
2, 498031, Note_on_c, 0, 86, 72
2, 498102, Note_on_c, 0, 84, 90
2, 498104, Note_on_c, 0, 65, 78
2, 498119, Note_on_c, 0, 58, 61
2, 498124, Note_on_c, 0, 58, 0
2, 498270, Note_on_c, 0, 51, 0
2, 498273, Note_on_c, 0, 82, 86
2, 498276, Note_on_c, 0, 51, 70
2, 498438, Note_on_c, 0, 63, 73
2, 498441, Note_on_c, 0, 58, 68
2, 498441, Note_on_c, 0, 55, 67
2, 498443, Note_on_c, 0, 79, 81
2, 498577, Note_on_c, 0, 82, 0
2, 498588, Note_on_c, 0, 82, 89
2, 498727, Note_on_c, 0, 65, 0
2, 498727, Control_c, 0, 64, 0
2, 498727, Note_on_c, 0, 39, 0
2, 498727, Note_on_c, 0, 58, 0
2, 498727, Note_on_c, 0, 51, 0
2, 498727, Note_on_c, 0, 55, 0
2, 498727, Note_on_c, 0, 87, 0
2, 498727, Note_on_c, 0, 63, 0
2, 498728, Note_on_c, 0, 82, 0
2, 498728, Note_on_c, 0, 86, 0
2, 498728, Note_on_c, 0, 67, 0
2, 498728, Note_on_c, 0, 79, 0
2, 498754, Note_on_c, 0, 84, 0
2, 498764, Note_on_c, 0, 84, 98
2, 498765, Note_on_c, 0, 48, 89
2, 498765, Note_on_c, 0, 72, 98
2, 498766, Note_on_c, 0, 36, 90
2, 498769, Note_on_c, 0, 75, 88
2, 498831, Control_c, 0, 64, 127
2, 498923, Note_on_c, 0, 72, 0
2, 498932, Note_on_c, 0, 72, 79
2, 499100, Note_on_c, 0, 72, 0
2, 499105, Note_on_c, 0, 72, 74
2, 499262, Note_on_c, 0, 74, 92
2, 499265, Note_on_c, 0, 55, 76
2, 499265, Note_on_c, 0, 63, 73
2, 499422, Note_on_c, 0, 72, 0
2, 499434, Note_on_c, 0, 72, 100
2, 499514, Note_on_c, 0, 48, 0
2, 499519, Note_on_c, 0, 48, 62
2, 499589, Note_on_c, 0, 70, 94
2, 499675, Note_on_c, 0, 48, 0
2, 499676, Note_on_c, 0, 84, 0
2, 499676, Note_on_c, 0, 55, 0
2, 499677, Note_on_c, 0, 74, 0
2, 499677, Note_on_c, 0, 75, 0
2, 499677, Note_on_c, 0, 63, 0
2, 499677, Note_on_c, 0, 72, 0
2, 499679, Control_c, 0, 64, 0
2, 499691, Note_on_c, 0, 36, 0
2, 499741, Note_on_c, 0, 67, 94
2, 499746, Note_on_c, 0, 39, 92
2, 499747, Note_on_c, 0, 51, 82
2, 499806, Control_c, 0, 64, 127
2, 499924, Note_on_c, 0, 87, 75
2, 500018, Note_on_c, 0, 86, 77
2, 500060, Note_on_c, 0, 39, 0
2, 500060, Note_on_c, 0, 51, 0
2, 500069, Note_on_c, 0, 39, 72
2, 500070, Note_on_c, 0, 51, 81
2, 500071, Note_on_c, 0, 84, 77
2, 500236, Note_on_c, 0, 39, 0
2, 500236, Note_on_c, 0, 51, 0
2, 500241, Note_on_c, 0, 82, 83
2, 500242, Note_on_c, 0, 39, 67
2, 500247, Note_on_c, 0, 51, 64
2, 500390, Note_on_c, 0, 67, 0
2, 500390, Note_on_c, 0, 70, 0
2, 500395, Note_on_c, 0, 70, 82
2, 500396, Note_on_c, 0, 67, 79
2, 500402, Note_on_c, 0, 54, 59
2, 500409, Note_on_c, 0, 79, 72
2, 500413, Note_on_c, 0, 54, 0
2, 500559, Note_on_c, 0, 82, 0
2, 500563, Note_on_c, 0, 82, 90
2, 500736, Note_on_c, 0, 84, 0
2, 500743, Note_on_c, 0, 84, 94
2, 500746, Note_on_c, 0, 39, 0
2, 500747, Note_on_c, 0, 81, 87
2, 500747, Note_on_c, 0, 72, 88
2, 500748, Note_on_c, 0, 53, 85
2, 500748, Note_on_c, 0, 86, 0
2, 500748, Note_on_c, 0, 67, 0
2, 500748, Note_on_c, 0, 70, 0
2, 500748, Note_on_c, 0, 41, 82
2, 500748, Note_on_c, 0, 79, 0
2, 500748, Note_on_c, 0, 87, 0
2, 500749, Note_on_c, 0, 82, 0
2, 500749, Note_on_c, 0, 77, 82
2, 500749, Control_c, 0, 64, 0
2, 500759, Note_on_c, 0, 51, 0
2, 500866, Control_c, 0, 64, 127
2, 501216, Note_on_c, 0, 57, 66
2, 501375, Note_on_c, 0, 65, 66
2, 501376, Note_on_c, 0, 53, 0
2, 501384, Note_on_c, 0, 60, 62
2, 501532, Note_on_c, 0, 70, 72
2, 501687, Note_on_c, 0, 77, 0
2, 501687, Note_on_c, 0, 84, 0
2, 501689, Note_on_c, 0, 70, 0
2, 501690, Note_on_c, 0, 60, 0
2, 501690, Control_c, 0, 64, 0
2, 501690, Note_on_c, 0, 57, 0
2, 501690, Note_on_c, 0, 81, 0
2, 501696, Note_on_c, 0, 41, 0
2, 501696, Note_on_c, 0, 72, 0
2, 501703, Note_on_c, 0, 65, 0
2, 501705, Note_on_c, 0, 72, 85
2, 501708, Note_on_c, 0, 38, 82
2, 501708, Note_on_c, 0, 69, 66
2, 501709, Note_on_c, 0, 50, 76
2, 501713, Note_on_c, 0, 65, 71
2, 501753, Note_on_c, 0, 50, 0
2, 501755, Note_on_c, 0, 38, 0
2, 501788, Control_c, 0, 64, 127
2, 502026, Note_on_c, 0, 65, 0
2, 502034, Note_on_c, 0, 65, 82
2, 502162, Note_on_c, 0, 50, 76
2, 502356, Note_on_c, 0, 69, 0
2, 502361, Note_on_c, 0, 77, 89
2, 502364, Note_on_c, 0, 60, 69
2, 502364, Note_on_c, 0, 69, 79
2, 502364, Note_on_c, 0, 72, 0
2, 502370, Note_on_c, 0, 72, 66
2, 502533, Note_on_c, 0, 50, 0
2, 502537, Note_on_c, 0, 50, 51
2, 502566, Note_on_c, 0, 67, 66
2, 502625, Note_on_c, 0, 72, 0
2, 502630, Note_on_c, 0, 72, 78
2, 502694, Note_on_c, 0, 50, 0
2, 502700, Note_on_c, 0, 74, 75
2, 502705, Note_on_c, 0, 50, 61
2, 502705, Note_on_c, 0, 55, 75
2, 502706, Control_c, 0, 64, 0
2, 502706, Note_on_c, 0, 43, 71
2, 502707, Note_on_c, 0, 67, 0
2, 502707, Note_on_c, 0, 79, 94
2, 502709, Note_on_c, 0, 69, 0
2, 502709, Note_on_c, 0, 60, 0
2, 502709, Note_on_c, 0, 65, 0
2, 502710, Note_on_c, 0, 77, 0
2, 502924, Control_c, 0, 64, 127
2, 502955, Note_on_c, 0, 55, 0
2, 502978, Note_on_c, 0, 72, 0
2, 503057, Note_on_c, 0, 67, 53
2, 503060, Note_on_c, 0, 55, 53
2, 503236, Note_on_c, 0, 69, 56
2, 503397, Note_on_c, 0, 70, 57
2, 503546, Note_on_c, 0, 74, 0
2, 503553, Note_on_c, 0, 74, 67
2, 503742, Note_on_c, 0, 57, 50
2, 503906, Note_on_c, 0, 65, 47
2, 504046, Note_on_c, 0, 65, 0
2, 504054, Note_on_c, 0, 65, 45
2, 504230, Note_on_c, 0, 67, 0
2, 504236, Note_on_c, 0, 67, 56
2, 504384, Note_on_c, 0, 69, 0
2, 504395, Note_on_c, 0, 69, 55
2, 504548, Note_on_c, 0, 72, 61
2, 504706, Note_on_c, 0, 55, 0
2, 504716, Note_on_c, 0, 55, 50
2, 504737, Note_on_c, 0, 70, 0
2, 504745, Note_on_c, 0, 70, 61
2, 504752, Note_on_c, 0, 67, 0
2, 504758, Note_on_c, 0, 67, 46
2, 504910, Note_on_c, 0, 62, 49
2, 504960, Note_on_c, 0, 43, 0
2, 504960, Note_on_c, 0, 79, 0
2, 505059, Note_on_c, 0, 67, 0
2, 505064, Note_on_c, 0, 67, 55
2, 505221, Note_on_c, 0, 69, 0
2, 505225, Note_on_c, 0, 69, 52
2, 505374, Note_on_c, 0, 70, 0
2, 505383, Note_on_c, 0, 70, 58
2, 505405, Note_on_c, 0, 55, 0
2, 505413, Note_on_c, 0, 55, 32
2, 505489, Note_on_c, 0, 50, 0
2, 505543, Note_on_c, 0, 67, 0
2, 505548, Note_on_c, 0, 67, 58
2, 505704, Note_on_c, 0, 72, 0
2, 505706, Note_on_c, 0, 60, 47
2, 505710, Note_on_c, 0, 72, 68
2, 505712, Note_on_c, 0, 65, 0
2, 505722, Note_on_c, 0, 65, 47
2, 506058, Note_on_c, 0, 70, 0
2, 506064, Note_on_c, 0, 70, 58
2, 506234, Note_on_c, 0, 60, 0
2, 506240, Note_on_c, 0, 60, 46
2, 506388, Note_on_c, 0, 69, 0
2, 506399, Note_on_c, 0, 69, 68
2, 506572, Note_on_c, 0, 65, 0
2, 506580, Note_on_c, 0, 65, 45
2, 506680, Note_on_c, 0, 67, 0
2, 506689, Note_on_c, 0, 67, 54
2, 506703, Note_on_c, 0, 70, 0
2, 506712, Note_on_c, 0, 70, 61
2, 506714, Note_on_c, 0, 62, 0
2, 506714, Control_c, 0, 64, 0
2, 506714, Note_on_c, 0, 72, 0
2, 506714, Note_on_c, 0, 60, 0
2, 506714, Note_on_c, 0, 69, 0
2, 506715, Note_on_c, 0, 57, 0
2, 506715, Note_on_c, 0, 65, 0
2, 506734, Note_on_c, 0, 55, 0
2, 506734, Note_on_c, 0, 74, 0
2, 506738, Note_on_c, 0, 74, 72
2, 506739, Note_on_c, 0, 79, 80
2, 506740, Note_on_c, 0, 55, 65
2, 506841, Note_on_c, 0, 67, 0
2, 506856, Control_c, 0, 64, 127
2, 507090, Note_on_c, 0, 62, 50
2, 507237, Note_on_c, 0, 67, 41
2, 507263, Note_on_c, 0, 69, 55
2, 507417, Note_on_c, 0, 70, 0
2, 507429, Note_on_c, 0, 70, 50
2, 507448, Note_on_c, 0, 55, 0
2, 507457, Note_on_c, 0, 55, 25
2, 507571, Note_on_c, 0, 74, 0
2, 507577, Note_on_c, 0, 74, 59
2, 507741, Note_on_c, 0, 65, 50
2, 508078, Note_on_c, 0, 65, 0
2, 508084, Note_on_c, 0, 65, 41
2, 508085, Note_on_c, 0, 55, 0
2, 508089, Note_on_c, 0, 55, 25
2, 508231, Note_on_c, 0, 67, 0
2, 508239, Note_on_c, 0, 55, 0
2, 508243, Note_on_c, 0, 67, 54
2, 508244, Note_on_c, 0, 55, 32
2, 508408, Note_on_c, 0, 69, 0
2, 508413, Note_on_c, 0, 69, 55
2, 508574, Note_on_c, 0, 72, 60
2, 508738, Note_on_c, 0, 55, 0
2, 508748, Note_on_c, 0, 55, 45
2, 508758, Note_on_c, 0, 62, 0
2, 508769, Note_on_c, 0, 70, 0
2, 508777, Note_on_c, 0, 70, 54
2, 508800, Note_on_c, 0, 79, 0
2, 509084, Note_on_c, 0, 67, 0
2, 509088, Note_on_c, 0, 67, 48
2, 509268, Note_on_c, 0, 69, 0
2, 509273, Note_on_c, 0, 69, 47
2, 509276, Note_on_c, 0, 55, 0
2, 509281, Note_on_c, 0, 55, 28
2, 509298, Note_on_c, 0, 62, 19
2, 509429, Note_on_c, 0, 70, 0
2, 509435, Note_on_c, 0, 70, 51
2, 509575, Note_on_c, 0, 67, 0
2, 509584, Note_on_c, 0, 67, 46
2, 509752, Note_on_c, 0, 65, 0
2, 509763, Note_on_c, 0, 65, 41
2, 509767, Note_on_c, 0, 72, 0
2, 509775, Note_on_c, 0, 72, 54
2, 510090, Note_on_c, 0, 62, 0
2, 510097, Note_on_c, 0, 70, 0
2, 510107, Note_on_c, 0, 70, 48
2, 510132, Note_on_c, 0, 62, 17
2, 510443, Note_on_c, 0, 69, 0
2, 510454, Note_on_c, 0, 69, 55
2, 510727, Note_on_c, 0, 70, 0
2, 510734, Note_on_c, 0, 70, 37
2, 510758, Note_on_c, 0, 74, 0
2, 510764, Note_on_c, 0, 74, 52
2, 510801, Note_on_c, 0, 72, 0
2, 510801, Note_on_c, 0, 62, 0
2, 510801, Note_on_c, 0, 70, 0
2, 510802, Control_c, 0, 64, 0
2, 510804, Note_on_c, 0, 55, 0
2, 510808, Note_on_c, 0, 55, 51
2, 510816, Note_on_c, 0, 79, 63
2, 510819, Note_on_c, 0, 65, 0
2, 510881, Note_on_c, 0, 69, 0
2, 510958, Control_c, 0, 64, 127
2, 511463, Note_on_c, 0, 62, 26
2, 511825, Note_on_c, 0, 67, 0
2, 511835, Note_on_c, 0, 67, 41
2, 511848, Note_on_c, 0, 55, 0
2, 511859, Note_on_c, 0, 55, 18
2, 512494, Note_on_c, 0, 62, 0
2, 512500, Note_on_c, 0, 62, 42
2, 512762, Note_on_c, 0, 67, 0
2, 512762, Note_on_c, 0, 74, 0
2, 512766, Note_on_c, 0, 67, 35
2, 512767, Note_on_c, 0, 74, 56
2, 512839, Note_on_c, 0, 79, 0
2, 512851, Note_on_c, 0, 79, 59
2, 512855, Note_on_c, 0, 55, 0
2, 512859, Note_on_c, 0, 55, 44
2, 512896, Control_c, 0, 64, 0
2, 512896, Note_on_c, 0, 62, 0
2, 513085, Control_c, 0, 64, 127
2, 513510, Note_on_c, 0, 62, 36
2, 513868, Note_on_c, 0, 67, 0
2, 513880, Note_on_c, 0, 67, 42
2, 514598, Note_on_c, 0, 62, 0
2, 514603, Note_on_c, 0, 62, 25
2, 514882, Note_on_c, 0, 67, 0
2, 514882, Note_on_c, 0, 74, 0
2, 514886, Note_on_c, 0, 67, 32
2, 514893, Note_on_c, 0, 74, 40
2, 514974, Note_on_c, 0, 79, 0
2, 514982, Note_on_c, 0, 55, 0
2, 514984, Note_on_c, 0, 79, 55
2, 514993, Note_on_c, 0, 55, 39
2, 515007, Control_c, 0, 64, 0
2, 515074, Control_c, 0, 64, 127
2, 516157, Note_on_c, 0, 67, 0
2, 516165, Note_on_c, 0, 67, 39
2, 517463, Note_on_c, 0, 55, 0
2, 517468, Note_on_c, 0, 55, 33
2, 519214, Note_on_c, 0, 62, 0
2, 519498, Note_on_c, 0, 74, 0
2, 519590, Note_on_c, 0, 79, 0
2, 520320, Note_on_c, 0, 55, 0
2, 520320, Note_on_c, 0, 67, 0
2, 520337, Note_on_c, 0, 71, 58
2, 520353, Note_on_c, 0, 43, 28
2, 520358, Note_on_c, 0, 62, 46
2, 520368, Control_c, 0, 64, 0
2, 520573, Control_c, 0, 64, 127
2, 520847, Note_on_c, 0, 69, 64
2, 520850, Note_on_c, 0, 60, 53
2, 521008, Note_on_c, 0, 67, 61
2, 521022, Note_on_c, 0, 55, 48
2, 521026, Note_on_c, 0, 59, 45
2, 521029, Note_on_c, 0, 62, 0
2, 521030, Control_c, 0, 64, 0
2, 521030, Note_on_c, 0, 71, 0
2, 521032, Note_on_c, 0, 60, 0
2, 521034, Note_on_c, 0, 69, 0
2, 521080, Note_on_c, 0, 43, 0
2, 521310, Control_c, 0, 64, 127
2, 521779, Note_on_c, 0, 59, 0
2, 521787, Note_on_c, 0, 62, 53
2, 521788, Note_on_c, 0, 59, 43
2, 521845, Control_c, 0, 64, 0
2, 522094, Control_c, 0, 64, 127
2, 523138, Note_on_c, 0, 67, 0
2, 523148, Note_on_c, 0, 67, 52
2, 523153, Note_on_c, 0, 62, 0
2, 523165, Note_on_c, 0, 62, 50
2, 523176, Note_on_c, 0, 59, 0
2, 523238, Control_c, 0, 64, 0
2, 523407, Control_c, 0, 64, 127
2, 523480, Note_on_c, 0, 71, 71
2, 523491, Note_on_c, 0, 67, 0
2, 523499, Note_on_c, 0, 62, 0
2, 523502, Note_on_c, 0, 67, 59
2, 523510, Note_on_c, 0, 62, 29
2, 523512, Control_c, 0, 64, 0
2, 523630, Control_c, 0, 64, 127
2, 523796, Note_on_c, 0, 76, 84
2, 524160, Note_on_c, 0, 55, 0
2, 524196, Note_on_c, 0, 73, 72
2, 524210, Note_on_c, 0, 70, 67
2, 524222, Note_on_c, 0, 55, 47
2, 524223, Note_on_c, 0, 61, 49
2, 524224, Note_on_c, 0, 58, 52
2, 524240, Note_on_c, 0, 71, 0
2, 524240, Note_on_c, 0, 76, 0
2, 524240, Note_on_c, 0, 62, 0
2, 524241, Control_c, 0, 64, 0
2, 524421, Control_c, 0, 64, 127
2, 524984, Note_on_c, 0, 74, 57
2, 525008, Note_on_c, 0, 59, 34
2, 525008, Note_on_c, 0, 62, 29
2, 525009, Note_on_c, 0, 71, 40
2, 525012, Note_on_c, 0, 59, 0
2, 525031, Control_c, 0, 64, 0
2, 525033, Note_on_c, 0, 70, 0
2, 525033, Note_on_c, 0, 61, 0
2, 525034, Note_on_c, 0, 58, 0
2, 525038, Note_on_c, 0, 73, 0
2, 525534, Control_c, 0, 64, 127
2, 525672, Note_on_c, 0, 74, 0
2, 526549, Note_on_c, 0, 76, 58
2, 526571, Note_on_c, 0, 67, 0
2, 526580, Note_on_c, 0, 67, 27
2, 526884, Note_on_c, 0, 78, 79
2, 526894, Note_on_c, 0, 69, 59
2, 527251, Note_on_c, 0, 79, 78
2, 527255, Note_on_c, 0, 55, 0
2, 527259, Note_on_c, 0, 62, 0
2, 527260, Note_on_c, 0, 52, 50
2, 527261, Note_on_c, 0, 78, 0
2, 527261, Note_on_c, 0, 69, 0
2, 527262, Note_on_c, 0, 71, 0
2, 527266, Control_c, 0, 64, 0
2, 527273, Note_on_c, 0, 71, 56
2, 527293, Note_on_c, 0, 67, 0
2, 527393, Control_c, 0, 64, 127
2, 527596, Note_on_c, 0, 59, 55
2, 527646, Note_on_c, 0, 76, 0
2, 527918, Note_on_c, 0, 67, 66
2, 528222, Note_on_c, 0, 71, 0
2, 528232, Note_on_c, 0, 71, 71
2, 528238, Note_on_c, 0, 67, 0
2, 528242, Note_on_c, 0, 67, 60
2, 528248, Note_on_c, 0, 59, 0
2, 528545, Note_on_c, 0, 67, 0
2, 528548, Note_on_c, 0, 73, 78
2, 528554, Note_on_c, 0, 45, 61
2, 528554, Note_on_c, 0, 67, 58
2, 528558, Note_on_c, 0, 64, 58
2, 528558, Note_on_c, 0, 71, 0
2, 528558, Note_on_c, 0, 52, 0
2, 528558, Control_c, 0, 64, 0
2, 528652, Control_c, 0, 64, 127
2, 528845, Note_on_c, 0, 52, 51
2, 528860, Note_on_c, 0, 79, 0
2, 529031, Note_on_c, 0, 74, 73
2, 529098, Note_on_c, 0, 73, 0
2, 529102, Note_on_c, 0, 73, 79
2, 529159, Note_on_c, 0, 67, 0
2, 529163, Control_c, 0, 64, 0
2, 529163, Note_on_c, 0, 59, 63
2, 529167, Note_on_c, 0, 67, 46
2, 529169, Note_on_c, 0, 71, 87
2, 529244, Control_c, 0, 64, 127
2, 529459, Note_on_c, 0, 73, 0
2, 529467, Note_on_c, 0, 73, 82
2, 529471, Note_on_c, 0, 61, 53
2, 529814, Note_on_c, 0, 76, 85
2, 529815, Control_c, 0, 64, 0
2, 529818, Note_on_c, 0, 64, 0
2, 529818, Note_on_c, 0, 50, 61
2, 529820, Note_on_c, 0, 67, 0
2, 529821, Note_on_c, 0, 59, 0
2, 529821, Note_on_c, 0, 52, 0
2, 529822, Note_on_c, 0, 73, 0
2, 529822, Note_on_c, 0, 61, 0
2, 529822, Note_on_c, 0, 71, 0
2, 529823, Note_on_c, 0, 74, 0
2, 529830, Note_on_c, 0, 67, 51
2, 529835, Note_on_c, 0, 45, 0
2, 530012, Control_c, 0, 64, 127
2, 530148, Note_on_c, 0, 57, 53
2, 530327, Note_on_c, 0, 67, 0
2, 530342, Note_on_c, 0, 76, 0
2, 530349, Note_on_c, 0, 76, 73
2, 530423, Control_c, 0, 64, 0
2, 530433, Note_on_c, 0, 74, 75
2, 530438, Note_on_c, 0, 76, 0
2, 530459, Note_on_c, 0, 66, 47
2, 530557, Control_c, 0, 64, 127
2, 530791, Note_on_c, 0, 64, 54
2, 531081, Control_c, 0, 64, 0
2, 531086, Note_on_c, 0, 66, 0
2, 531117, Note_on_c, 0, 62, 47
2, 531171, Control_c, 0, 64, 127
2, 531471, Note_on_c, 0, 64, 0
2, 531486, Note_on_c, 0, 62, 0
2, 531490, Note_on_c, 0, 62, 47
2, 531591, Note_on_c, 0, 60, 47
2, 531747, Note_on_c, 0, 74, 0
2, 531756, Note_on_c, 0, 74, 77
2, 531769, Control_c, 0, 64, 0
2, 531772, Note_on_c, 0, 60, 0
2, 531772, Note_on_c, 0, 62, 0
2, 531773, Note_on_c, 0, 59, 50
2, 531840, Note_on_c, 0, 50, 0
2, 531870, Control_c, 0, 64, 127
2, 532093, Note_on_c, 0, 57, 0
2, 532100, Note_on_c, 0, 57, 54
2, 532244, Note_on_c, 0, 75, 76
2, 532462, Note_on_c, 0, 75, 0
2, 532463, Note_on_c, 0, 48, 49
2, 532472, Note_on_c, 0, 75, 80
2, 532505, Control_c, 0, 64, 0
2, 532508, Note_on_c, 0, 74, 0
2, 532513, Note_on_c, 0, 57, 0
2, 532516, Note_on_c, 0, 59, 0
2, 532700, Control_c, 0, 64, 127
2, 532780, Note_on_c, 0, 55, 49
2, 532941, Note_on_c, 0, 76, 75
2, 533149, Note_on_c, 0, 60, 46
2, 533464, Note_on_c, 0, 62, 37
2, 533491, Note_on_c, 0, 75, 0
2, 533803, Note_on_c, 0, 64, 38
2, 533816, Note_on_c, 0, 66, 38
2, 533826, Note_on_c, 0, 69, 34
2, 533834, Control_c, 0, 64, 0
2, 533839, Note_on_c, 0, 48, 0
2, 533840, Note_on_c, 0, 60, 0
2, 533841, Note_on_c, 0, 62, 0
2, 533841, Note_on_c, 0, 76, 0
2, 534220, Control_c, 0, 64, 127
2, 534566, Note_on_c, 0, 69, 0
2, 534577, Note_on_c, 0, 69, 59
2, 534594, Control_c, 0, 64, 0
2, 534720, Control_c, 0, 64, 127
2, 534896, Note_on_c, 0, 55, 0
2, 535094, Note_on_c, 0, 70, 69
2, 535119, Note_on_c, 0, 66, 0
2, 535127, Note_on_c, 0, 66, 42
2, 535242, Note_on_c, 0, 70, 0
2, 535246, Note_on_c, 0, 70, 68
2, 535249, Note_on_c, 0, 64, 0
2, 535249, Note_on_c, 0, 66, 0
2, 535260, Note_on_c, 0, 66, 59
2, 535261, Note_on_c, 0, 43, 45
2, 535277, Control_c, 0, 64, 0
2, 535319, Note_on_c, 0, 69, 0
2, 535526, Control_c, 0, 64, 127
2, 535567, Note_on_c, 0, 50, 48
2, 535744, Note_on_c, 0, 71, 69
2, 535761, Note_on_c, 0, 67, 50
2, 535764, Note_on_c, 0, 50, 0
2, 535770, Note_on_c, 0, 50, 31
2, 535771, Note_on_c, 0, 55, 38
2, 535800, Control_c, 0, 64, 0
2, 535825, Note_on_c, 0, 66, 0
2, 535833, Note_on_c, 0, 70, 0
2, 535898, Note_on_c, 0, 59, 34
2, 536215, Note_on_c, 0, 62, 42
2, 536225, Control_c, 0, 64, 127
2, 536540, Note_on_c, 0, 67, 0
2, 536550, Note_on_c, 0, 67, 39
2, 537319, Note_on_c, 0, 42, 56
2, 537322, Note_on_c, 0, 74, 88
2, 537364, Control_c, 0, 64, 0
2, 537373, Note_on_c, 0, 67, 0
2, 537379, Note_on_c, 0, 71, 0
2, 537379, Note_on_c, 0, 62, 0
2, 537379, Note_on_c, 0, 59, 0
2, 537400, Note_on_c, 0, 43, 0
2, 537400, Note_on_c, 0, 55, 0
2, 537592, Control_c, 0, 64, 127
2, 538057, Note_on_c, 0, 79, 87
2, 538058, Note_on_c, 0, 40, 60
2, 538083, Note_on_c, 0, 74, 0
2, 538091, Note_on_c, 0, 74, 63
2, 538093, Note_on_c, 0, 67, 52
2, 538096, Note_on_c, 0, 71, 51
2, 538122, Note_on_c, 0, 50, 0
2, 538127, Note_on_c, 0, 42, 0
2, 538134, Control_c, 0, 64, 0
2, 538306, Control_c, 0, 64, 127
2, 538402, Note_on_c, 0, 47, 49
2, 538693, Note_on_c, 0, 55, 67
2, 538981, Note_on_c, 0, 59, 72
2, 539289, Note_on_c, 0, 79, 0
2, 539301, Note_on_c, 0, 79, 78
2, 539304, Note_on_c, 0, 47, 0
2, 539304, Note_on_c, 0, 71, 0
2, 539314, Note_on_c, 0, 75, 69
2, 539315, Note_on_c, 0, 71, 60
2, 539315, Note_on_c, 0, 57, 58
2, 539316, Note_on_c, 0, 47, 56
2, 539332, Control_c, 0, 64, 0
2, 539335, Note_on_c, 0, 40, 0
2, 539355, Note_on_c, 0, 55, 0
2, 539355, Note_on_c, 0, 67, 0
2, 539359, Note_on_c, 0, 59, 0
2, 539366, Note_on_c, 0, 74, 0
2, 539481, Control_c, 0, 64, 127
2, 539618, Note_on_c, 0, 51, 57
2, 539623, Note_on_c, 0, 78, 65
2, 539665, Note_on_c, 0, 79, 0
2, 539672, Note_on_c, 0, 79, 81
2, 539750, Note_on_c, 0, 78, 0
2, 539761, Note_on_c, 0, 78, 79
2, 539915, Note_on_c, 0, 76, 89
2, 539927, Note_on_c, 0, 57, 0
2, 539934, Note_on_c, 0, 57, 51
2, 539940, Note_on_c, 0, 59, 55
2, 540226, Note_on_c, 0, 75, 0
2, 540237, Note_on_c, 0, 75, 86
2, 540238, Note_on_c, 0, 63, 63
2, 540244, Note_on_c, 0, 66, 58
2, 540572, Note_on_c, 0, 75, 0
2, 540577, Note_on_c, 0, 75, 85
2, 540579, Note_on_c, 0, 66, 0
2, 540583, Note_on_c, 0, 48, 61
2, 540585, Note_on_c, 0, 66, 63
2, 540607, Control_c, 0, 64, 0
2, 540614, Note_on_c, 0, 78, 0
2, 540614, Note_on_c, 0, 79, 0
2, 540614, Note_on_c, 0, 51, 0
2, 540614, Note_on_c, 0, 76, 0
2, 540614, Note_on_c, 0, 63, 0
2, 540615, Note_on_c, 0, 57, 0
2, 540615, Note_on_c, 0, 59, 0
2, 540625, Note_on_c, 0, 47, 0
2, 540625, Note_on_c, 0, 71, 0
2, 540802, Control_c, 0, 64, 127
2, 540909, Note_on_c, 0, 55, 56
2, 541232, Note_on_c, 0, 76, 75
2, 541252, Note_on_c, 0, 71, 60
2, 541258, Note_on_c, 0, 67, 56
2, 541275, Control_c, 0, 64, 0
2, 541294, Note_on_c, 0, 75, 0
2, 541301, Note_on_c, 0, 66, 0
2, 541612, Note_on_c, 0, 64, 48
2, 541900, Control_c, 0, 64, 127
2, 542552, Note_on_c, 0, 75, 72
2, 542887, Note_on_c, 0, 74, 71
2, 542889, Note_on_c, 0, 59, 47
2, 542889, Note_on_c, 0, 47, 50
2, 542902, Control_c, 0, 64, 0
2, 542913, Note_on_c, 0, 67, 0
2, 542913, Note_on_c, 0, 71, 0
2, 542916, Note_on_c, 0, 64, 0
2, 542917, Note_on_c, 0, 76, 0
2, 542917, Note_on_c, 0, 75, 0
2, 542922, Note_on_c, 0, 48, 0
2, 542952, Note_on_c, 0, 59, 0
2, 543045, Note_on_c, 0, 55, 0
2, 543098, Control_c, 0, 64, 127
2, 543182, Note_on_c, 0, 72, 77
2, 543517, Note_on_c, 0, 72, 0
2, 543518, Note_on_c, 0, 74, 0
2, 543518, Note_on_c, 0, 47, 0
2, 543520, Note_on_c, 0, 71, 53
2, 543524, Note_on_c, 0, 45, 53
2, 543525, Control_c, 0, 64, 0
2, 543529, Note_on_c, 0, 60, 47
2, 543532, Note_on_c, 0, 64, 45
2, 543536, Note_on_c, 0, 64, 0
2, 543705, Control_c, 0, 64, 127
2, 543835, Note_on_c, 0, 52, 53
2, 543845, Note_on_c, 0, 69, 64
2, 544128, Note_on_c, 0, 69, 0
2, 544131, Note_on_c, 0, 69, 80
2, 544137, Note_on_c, 0, 55, 64
2, 544442, Note_on_c, 0, 71, 0
2, 544450, Note_on_c, 0, 60, 0
2, 544450, Note_on_c, 0, 71, 80
2, 544461, Note_on_c, 0, 60, 64
2, 544757, Note_on_c, 0, 69, 0
2, 544760, Note_on_c, 0, 72, 80
2, 544766, Note_on_c, 0, 50, 60
2, 544768, Control_c, 0, 64, 0
2, 544768, Note_on_c, 0, 69, 56
2, 544777, Note_on_c, 0, 71, 0
2, 544777, Note_on_c, 0, 52, 0
2, 544777, Note_on_c, 0, 60, 0
2, 544778, Note_on_c, 0, 55, 0
2, 544796, Note_on_c, 0, 45, 0
2, 545100, Note_on_c, 0, 67, 58
2, 545101, Note_on_c, 0, 64, 52
2, 545111, Control_c, 0, 64, 127
2, 545172, Note_on_c, 0, 69, 0
2, 545410, Note_on_c, 0, 64, 0
2, 545421, Note_on_c, 0, 64, 52
2, 545439, Note_on_c, 0, 60, 43
2, 545441, Note_on_c, 0, 50, 0
2, 545444, Control_c, 0, 64, 0
2, 545452, Note_on_c, 0, 50, 29
2, 545776, Note_on_c, 0, 66, 70
2, 545797, Note_on_c, 0, 62, 53
2, 545840, Control_c, 0, 64, 127
2, 546127, Note_on_c, 0, 69, 69
2, 546128, Note_on_c, 0, 43, 52
2, 546132, Note_on_c, 0, 66, 0
2, 546140, Note_on_c, 0, 66, 51
2, 546144, Note_on_c, 0, 62, 0
2, 546147, Note_on_c, 0, 60, 0
2, 546149, Note_on_c, 0, 50, 0
2, 546151, Control_c, 0, 64, 0
2, 546151, Note_on_c, 0, 60, 32
2, 546155, Note_on_c, 0, 64, 0
2, 546170, Note_on_c, 0, 67, 0
2, 546186, Note_on_c, 0, 72, 0
2, 546332, Control_c, 0, 64, 127
2, 546451, Note_on_c, 0, 50, 47
2, 546608, Note_on_c, 0, 43, 0
2, 546611, Note_on_c, 0, 67, 60
2, 546617, Note_on_c, 0, 43, 35
2, 546627, Note_on_c, 0, 59, 46
2, 546629, Control_c, 0, 64, 0
2, 546635, Note_on_c, 0, 60, 0
2, 546640, Note_on_c, 0, 69, 0
2, 546662, Note_on_c, 0, 66, 0
2, 546869, Control_c, 0, 64, 127
2, 547089, Note_on_c, 0, 69, 64
2, 547109, Note_on_c, 0, 60, 23
2, 547115, Note_on_c, 0, 60, 0
2, 547119, Note_on_c, 0, 66, 40
2, 547415, Note_on_c, 0, 67, 0
2, 547422, Note_on_c, 0, 69, 0
2, 547425, Note_on_c, 0, 67, 65
2, 547433, Note_on_c, 0, 69, 52
2, 547449, Note_on_c, 0, 63, 54
2, 547449, Note_on_c, 0, 60, 45
2, 547467, Note_on_c, 0, 59, 0
2, 547471, Note_on_c, 0, 66, 0
2, 547472, Control_c, 0, 64, 0
2, 547499, Note_on_c, 0, 50, 0
2, 547668, Note_on_c, 0, 69, 0
2, 547683, Control_c, 0, 64, 127
2, 547930, Note_on_c, 0, 62, 65
2, 547946, Note_on_c, 0, 59, 51
2, 547990, Control_c, 0, 64, 0
2, 547994, Note_on_c, 0, 60, 0
2, 547994, Note_on_c, 0, 63, 0
2, 548485, Note_on_c, 0, 60, 54
2, 548486, Note_on_c, 0, 57, 42
2, 548490, Control_c, 0, 64, 127
2, 548851, Note_on_c, 0, 43, 0
2, 548851, Note_on_c, 0, 59, 0
2, 548851, Note_on_c, 0, 62, 0
2, 548855, Note_on_c, 0, 43, 35
2, 548855, Note_on_c, 0, 62, 48
2, 548861, Note_on_c, 0, 55, 37
2, 548862, Note_on_c, 0, 59, 40
2, 548889, Control_c, 0, 64, 0
2, 548891, Note_on_c, 0, 60, 0
2, 548892, Note_on_c, 0, 57, 0
2, 548920, Note_on_c, 0, 67, 0
2, 549296, Control_c, 0, 64, 127
2, 550617, Note_on_c, 0, 59, 0
2, 550617, Note_on_c, 0, 62, 0
2, 551040, Note_on_c, 0, 43, 0
2, 551040, Note_on_c, 0, 55, 0
2, 551205, Note_on_c, 0, 74, 50
2, 551229, Control_c, 0, 64, 0
2, 551553, Note_on_c, 0, 86, 63
2, 551585, Control_c, 0, 64, 127
2, 551897, Note_on_c, 0, 84, 60
2, 551946, Control_c, 0, 64, 0
2, 552030, Control_c, 0, 64, 127
2, 552138, Note_on_c, 0, 67, 39
2, 552188, Note_on_c, 0, 70, 42
2, 552222, Note_on_c, 0, 74, 0
2, 552229, Note_on_c, 0, 74, 52
2, 552266, Note_on_c, 0, 82, 50
2, 552266, Note_on_c, 0, 79, 35
2, 552330, Note_on_c, 0, 86, 0
2, 552340, Note_on_c, 0, 86, 51
2, 552407, Note_on_c, 0, 82, 0
2, 552411, Note_on_c, 0, 82, 60
2, 552499, Note_on_c, 0, 86, 0
2, 552503, Note_on_c, 0, 86, 39
2, 552537, Note_on_c, 0, 82, 0
2, 552548, Note_on_c, 0, 82, 62
2, 552568, Note_on_c, 0, 79, 0
2, 552578, Note_on_c, 0, 79, 33
2, 552606, Note_on_c, 0, 86, 0
2, 552610, Note_on_c, 0, 86, 33
2, 552645, Note_on_c, 0, 82, 0
2, 552650, Note_on_c, 0, 82, 67
2, 552698, Note_on_c, 0, 86, 0
2, 552708, Note_on_c, 0, 86, 50
2, 552744, Note_on_c, 0, 82, 0
2, 552750, Note_on_c, 0, 82, 74
2, 552783, Note_on_c, 0, 79, 0
2, 552787, Note_on_c, 0, 79, 30
2, 552806, Note_on_c, 0, 86, 0
2, 552817, Note_on_c, 0, 86, 57
2, 552852, Note_on_c, 0, 82, 0
2, 552858, Note_on_c, 0, 82, 74
2, 552913, Note_on_c, 0, 86, 0
2, 552918, Note_on_c, 0, 86, 66
2, 552952, Note_on_c, 0, 82, 0
2, 552962, Note_on_c, 0, 82, 71
2, 552998, Note_on_c, 0, 86, 0
2, 553008, Note_on_c, 0, 86, 75
2, 553052, Note_on_c, 0, 79, 0
2, 553063, Note_on_c, 0, 79, 58
2, 553082, Note_on_c, 0, 86, 0
2, 553090, Note_on_c, 0, 86, 83
2, 553208, Note_on_c, 0, 85, 77
2, 553336, Note_on_c, 0, 86, 0
2, 553340, Note_on_c, 0, 86, 79
2, 553474, Note_on_c, 0, 67, 0
2, 553479, Note_on_c, 0, 63, 52
2, 553486, Note_on_c, 0, 67, 48
2, 553505, Note_on_c, 0, 70, 0
2, 553505, Note_on_c, 0, 82, 0
2, 553510, Note_on_c, 0, 70, 56
2, 553515, Note_on_c, 0, 82, 60
2, 553542, Note_on_c, 0, 91, 82
2, 553635, Note_on_c, 0, 79, 0
2, 553635, Note_on_c, 0, 82, 0
2, 553641, Note_on_c, 0, 79, 53
2, 553642, Note_on_c, 0, 82, 63
2, 553681, Note_on_c, 0, 91, 0
2, 553687, Note_on_c, 0, 91, 70
2, 553735, Note_on_c, 0, 82, 0
2, 553747, Note_on_c, 0, 82, 73
2, 553766, Note_on_c, 0, 79, 0
2, 553771, Note_on_c, 0, 79, 56
2, 553812, Note_on_c, 0, 91, 0
2, 553818, Note_on_c, 0, 91, 78
2, 553889, Note_on_c, 0, 82, 0
2, 553899, Note_on_c, 0, 82, 71
2, 553979, Note_on_c, 0, 89, 74
2, 554035, Note_on_c, 0, 82, 0
2, 554044, Note_on_c, 0, 82, 66
2, 554044, Note_on_c, 0, 77, 69
2, 554050, Note_on_c, 0, 84, 0
2, 554073, Note_on_c, 0, 89, 0
2, 554081, Note_on_c, 0, 89, 68
2, 554135, Note_on_c, 0, 82, 0
2, 554139, Note_on_c, 0, 75, 63
2, 554142, Note_on_c, 0, 77, 0
2, 554142, Note_on_c, 0, 82, 75
2, 554147, Note_on_c, 0, 77, 64
2, 554188, Note_on_c, 0, 89, 0
2, 554200, Note_on_c, 0, 89, 75
2, 554250, Note_on_c, 0, 77, 0
2, 554250, Note_on_c, 0, 82, 0
2, 554254, Note_on_c, 0, 82, 72
2, 554256, Note_on_c, 0, 77, 70
2, 554296, Note_on_c, 0, 89, 0
2, 554300, Note_on_c, 0, 89, 81
2, 554365, Note_on_c, 0, 82, 0
2, 554369, Note_on_c, 0, 82, 75
2, 554434, Note_on_c, 0, 87, 81
2, 554480, Note_on_c, 0, 82, 0
2, 554480, Note_on_c, 0, 85, 0
2, 554486, Note_on_c, 0, 82, 78
2, 554486, Note_on_c, 0, 85, 52
2, 554557, Note_on_c, 0, 87, 0
2, 554564, Note_on_c, 0, 87, 58
2, 554603, Note_on_c, 0, 82, 0
2, 554611, Note_on_c, 0, 77, 0
2, 554614, Note_on_c, 0, 82, 69
2, 554618, Note_on_c, 0, 77, 56
2, 554657, Note_on_c, 0, 87, 0
2, 554667, Note_on_c, 0, 87, 69
2, 554695, Note_on_c, 0, 70, 0
2, 554703, Note_on_c, 0, 58, 54
2, 554704, Note_on_c, 0, 70, 55
2, 554707, Note_on_c, 0, 67, 0
2, 554707, Note_on_c, 0, 79, 0
2, 554708, Note_on_c, 0, 91, 0
2, 554708, Note_on_c, 0, 77, 0
2, 554708, Note_on_c, 0, 89, 0
2, 554708, Note_on_c, 0, 86, 0
2, 554708, Control_c, 0, 64, 0
2, 554709, Note_on_c, 0, 75, 0
2, 554710, Note_on_c, 0, 63, 0
2, 554711, Note_on_c, 0, 87, 0
2, 554713, Note_on_c, 0, 85, 0
2, 554719, Note_on_c, 0, 65, 43
2, 554726, Note_on_c, 0, 74, 0
2, 554726, Note_on_c, 0, 82, 0
2, 554756, Note_on_c, 0, 82, 69
2, 554772, Control_c, 0, 64, 127
2, 554784, Note_on_c, 0, 77, 64
2, 554824, Note_on_c, 0, 86, 69
2, 554880, Note_on_c, 0, 82, 0
2, 554885, Note_on_c, 0, 82, 69
2, 554941, Note_on_c, 0, 86, 0
2, 554945, Note_on_c, 0, 86, 65
2, 554987, Note_on_c, 0, 82, 0
2, 554995, Note_on_c, 0, 77, 0
2, 554997, Note_on_c, 0, 82, 69
2, 555001, Note_on_c, 0, 77, 56
2, 555041, Note_on_c, 0, 86, 0
2, 555049, Note_on_c, 0, 86, 76
2, 555095, Note_on_c, 0, 82, 0
2, 555104, Note_on_c, 0, 82, 69
2, 555148, Note_on_c, 0, 86, 0
2, 555157, Note_on_c, 0, 86, 68
2, 555210, Note_on_c, 0, 77, 0
2, 555210, Note_on_c, 0, 82, 0
2, 555214, Note_on_c, 0, 82, 67
2, 555221, Note_on_c, 0, 77, 66
2, 555256, Note_on_c, 0, 86, 0
2, 555266, Note_on_c, 0, 86, 71
2, 555317, Note_on_c, 0, 82, 0
2, 555325, Note_on_c, 0, 77, 0
2, 555329, Note_on_c, 0, 82, 68
2, 555335, Note_on_c, 0, 77, 65
2, 555356, Note_on_c, 0, 86, 0
2, 555367, Note_on_c, 0, 86, 72
2, 555398, Note_on_c, 0, 74, 64
2, 555425, Note_on_c, 0, 82, 0
2, 555436, Note_on_c, 0, 82, 72
2, 555463, Note_on_c, 0, 86, 0
2, 555470, Note_on_c, 0, 86, 75
2, 555525, Note_on_c, 0, 82, 0
2, 555530, Note_on_c, 0, 82, 60
2, 555555, Note_on_c, 0, 77, 0
2, 555555, Note_on_c, 0, 86, 0
2, 555565, Note_on_c, 0, 77, 49
2, 555566, Note_on_c, 0, 86, 76
2, 555671, Note_on_c, 0, 77, 0
2, 555671, Note_on_c, 0, 82, 0
2, 555681, Note_on_c, 0, 82, 67
2, 555681, Note_on_c, 0, 77, 55
2, 555833, Note_on_c, 0, 84, 69
2, 555893, Note_on_c, 0, 77, 0
2, 555903, Note_on_c, 0, 77, 21
2, 555985, Note_on_c, 0, 86, 0
2, 555993, Note_on_c, 0, 74, 0
2, 555997, Note_on_c, 0, 86, 70
2, 555997, Note_on_c, 0, 74, 60
2, 556008, Note_on_c, 0, 77, 0
2, 556019, Note_on_c, 0, 77, 47
2, 556032, Control_c, 0, 64, 0
2, 556124, Control_c, 0, 64, 127
2, 556316, Note_on_c, 0, 77, 0
2, 556323, Note_on_c, 0, 77, 44
2, 556400, Note_on_c, 0, 74, 0
2, 556408, Note_on_c, 0, 74, 45
2, 556439, Note_on_c, 0, 77, 0
2, 556449, Note_on_c, 0, 77, 48
2, 556515, Note_on_c, 0, 74, 0
2, 556525, Note_on_c, 0, 74, 52
2, 556592, Note_on_c, 0, 84, 0
2, 556599, Note_on_c, 0, 84, 62
2, 556692, Note_on_c, 0, 77, 0
2, 556697, Note_on_c, 0, 77, 56
2, 556723, Note_on_c, 0, 84, 0
2, 556727, Note_on_c, 0, 84, 68
2, 556784, Note_on_c, 0, 77, 0
2, 556793, Note_on_c, 0, 77, 70
2, 556838, Note_on_c, 0, 84, 0
2, 556846, Note_on_c, 0, 84, 74
2, 556940, Note_on_c, 0, 83, 59
2, 557007, Note_on_c, 0, 83, 0
2, 557017, Note_on_c, 0, 83, 52
2, 557076, Note_on_c, 0, 77, 0
2, 557086, Note_on_c, 0, 77, 59
2, 557107, Note_on_c, 0, 83, 0
2, 557112, Note_on_c, 0, 83, 70
2, 557184, Note_on_c, 0, 77, 0
2, 557192, Note_on_c, 0, 77, 67
2, 557276, Note_on_c, 0, 65, 0
2, 557279, Note_on_c, 0, 81, 65
2, 557280, Note_on_c, 0, 65, 46
2, 557283, Note_on_c, 0, 84, 0
2, 557286, Note_on_c, 0, 69, 48
2, 557292, Note_on_c, 0, 84, 76
2, 557304, Control_c, 0, 64, 0
2, 557315, Note_on_c, 0, 72, 64
2, 557317, Note_on_c, 0, 77, 0
2, 557318, Note_on_c, 0, 58, 0
2, 557329, Note_on_c, 0, 82, 0
2, 557337, Note_on_c, 0, 70, 0
2, 557337, Note_on_c, 0, 74, 0
2, 557337, Note_on_c, 0, 83, 0
2, 557337, Note_on_c, 0, 86, 0
2, 557391, Control_c, 0, 64, 127
2, 557393, Note_on_c, 0, 77, 66
2, 557429, Note_on_c, 0, 84, 0
2, 557435, Note_on_c, 0, 84, 71
2, 557506, Note_on_c, 0, 77, 0
2, 557506, Note_on_c, 0, 81, 0
2, 557511, Note_on_c, 0, 81, 59
2, 557516, Note_on_c, 0, 77, 60
2, 557544, Note_on_c, 0, 84, 0
2, 557552, Note_on_c, 0, 84, 71
2, 557598, Note_on_c, 0, 81, 0
2, 557609, Note_on_c, 0, 81, 67
2, 557621, Note_on_c, 0, 77, 0
2, 557630, Note_on_c, 0, 77, 64
2, 557652, Note_on_c, 0, 84, 0
2, 557658, Note_on_c, 0, 84, 67
2, 557698, Note_on_c, 0, 81, 0
2, 557703, Note_on_c, 0, 81, 74
2, 557736, Note_on_c, 0, 77, 0
2, 557740, Note_on_c, 0, 77, 54
2, 557760, Note_on_c, 0, 84, 0
2, 557768, Note_on_c, 0, 84, 72
2, 557806, Note_on_c, 0, 81, 0
2, 557817, Note_on_c, 0, 81, 70
2, 557836, Note_on_c, 0, 77, 0
2, 557845, Note_on_c, 0, 77, 52
2, 557875, Note_on_c, 0, 84, 0
2, 557884, Note_on_c, 0, 84, 72
2, 557921, Note_on_c, 0, 81, 0
2, 557925, Note_on_c, 0, 81, 75
2, 557951, Note_on_c, 0, 89, 59
2, 557959, Note_on_c, 0, 77, 0
2, 557959, Note_on_c, 0, 84, 0
2, 557959, Note_on_c, 0, 89, 0
2, 557968, Note_on_c, 0, 84, 76
2, 557970, Note_on_c, 0, 77, 54
2, 558028, Note_on_c, 0, 81, 0
2, 558036, Note_on_c, 0, 77, 0
2, 558039, Note_on_c, 0, 81, 66
2, 558046, Note_on_c, 0, 77, 50
2, 558090, Note_on_c, 0, 84, 0
2, 558098, Note_on_c, 0, 84, 58
2, 558246, Note_on_c, 0, 83, 84
2, 558374, Note_on_c, 0, 84, 0
2, 558380, Note_on_c, 0, 84, 76
2, 558520, Note_on_c, 0, 72, 0
2, 558530, Note_on_c, 0, 72, 59
2, 558551, Note_on_c, 0, 77, 0
2, 558559, Note_on_c, 0, 77, 61
2, 558579, Note_on_c, 0, 89, 68
2, 558627, Note_on_c, 0, 81, 0
2, 558631, Note_on_c, 0, 81, 51
2, 558673, Note_on_c, 0, 89, 0
2, 558679, Note_on_c, 0, 89, 71
2, 558727, Note_on_c, 0, 84, 0
2, 558731, Note_on_c, 0, 84, 69
2, 558750, Note_on_c, 0, 81, 0
2, 558755, Note_on_c, 0, 81, 61
2, 558781, Note_on_c, 0, 89, 0
2, 558785, Note_on_c, 0, 89, 74
2, 558835, Note_on_c, 0, 81, 0
2, 558835, Note_on_c, 0, 84, 0
2, 558839, Note_on_c, 0, 81, 68
2, 558841, Note_on_c, 0, 84, 63
2, 558881, Note_on_c, 0, 89, 0
2, 558890, Note_on_c, 0, 89, 75
2, 558950, Note_on_c, 0, 81, 0
2, 558961, Note_on_c, 0, 81, 61
2, 559020, Note_on_c, 0, 87, 89
2, 559088, Note_on_c, 0, 84, 0
2, 559092, Note_on_c, 0, 84, 53
2, 559127, Note_on_c, 0, 87, 0
2, 559135, Note_on_c, 0, 87, 83
2, 559165, Note_on_c, 0, 72, 0
2, 559169, Note_on_c, 0, 72, 65
2, 559173, Note_on_c, 0, 69, 0
2, 559176, Note_on_c, 0, 69, 43
2, 559196, Note_on_c, 0, 84, 0
2, 559202, Note_on_c, 0, 84, 62
2, 559234, Note_on_c, 0, 87, 0
2, 559239, Note_on_c, 0, 87, 82
2, 559334, Note_on_c, 0, 87, 0
2, 559340, Note_on_c, 0, 87, 71
2, 559480, Note_on_c, 0, 84, 0
2, 559485, Note_on_c, 0, 84, 75
2, 559564, Note_on_c, 0, 81, 0
2, 559572, Note_on_c, 0, 81, 71
2, 559610, Note_on_c, 0, 84, 0
2, 559621, Note_on_c, 0, 84, 72
2, 559687, Note_on_c, 0, 81, 0
2, 559694, Note_on_c, 0, 81, 65
2, 559772, Note_on_c, 0, 65, 0
2, 559779, Note_on_c, 0, 65, 37
2, 559806, Note_on_c, 0, 70, 48
2, 559810, Note_on_c, 0, 70, 0
2, 559813, Note_on_c, 0, 58, 50
2, 559831, Control_c, 0, 64, 0
2, 559835, Note_on_c, 0, 85, 65
2, 559835, Note_on_c, 0, 72, 0
2, 559836, Note_on_c, 0, 84, 0
2, 559836, Note_on_c, 0, 87, 0
2, 559836, Note_on_c, 0, 89, 0
2, 559836, Note_on_c, 0, 81, 0
2, 559837, Note_on_c, 0, 83, 0
2, 559838, Note_on_c, 0, 69, 0
2, 559856, Note_on_c, 0, 77, 0
2, 559887, Note_on_c, 0, 85, 0
2, 559897, Note_on_c, 0, 82, 68
2, 559933, Control_c, 0, 64, 127
2, 559967, Note_on_c, 0, 85, 75
2, 560033, Note_on_c, 0, 82, 0
2, 560037, Note_on_c, 0, 82, 59
2, 560079, Note_on_c, 0, 85, 0
2, 560083, Note_on_c, 0, 85, 79
2, 560133, Note_on_c, 0, 82, 0
2, 560140, Note_on_c, 0, 82, 77
2, 560286, Note_on_c, 0, 82, 0
2, 560293, Note_on_c, 0, 82, 66
2, 560401, Note_on_c, 0, 82, 0
2, 560406, Note_on_c, 0, 82, 59
2, 560465, Note_on_c, 0, 86, 56
2, 560493, Note_on_c, 0, 74, 55
2, 560494, Note_on_c, 0, 82, 0
2, 560498, Note_on_c, 0, 82, 69
2, 560508, Note_on_c, 0, 77, 47
2, 560555, Note_on_c, 0, 86, 0
2, 560560, Note_on_c, 0, 86, 70
2, 560609, Note_on_c, 0, 82, 0
2, 560619, Note_on_c, 0, 82, 69
2, 560678, Note_on_c, 0, 86, 0
2, 560683, Note_on_c, 0, 86, 59
2, 560724, Note_on_c, 0, 82, 0
2, 560734, Note_on_c, 0, 82, 69
2, 560793, Note_on_c, 0, 86, 0
2, 560801, Note_on_c, 0, 86, 60
2, 560839, Note_on_c, 0, 82, 0
2, 560844, Note_on_c, 0, 82, 64
2, 560908, Note_on_c, 0, 86, 0
2, 560913, Note_on_c, 0, 86, 43
2, 560947, Note_on_c, 0, 82, 0
2, 560955, Note_on_c, 0, 82, 72
2, 561000, Note_on_c, 0, 86, 0
2, 561010, Note_on_c, 0, 86, 50
2, 561162, Note_on_c, 0, 74, 0
2, 561170, Note_on_c, 0, 74, 51
2, 561503, Note_on_c, 0, 70, 63
2, 561807, Note_on_c, 0, 74, 0
2, 561813, Note_on_c, 0, 74, 81
2, 561904, Control_c, 0, 64, 0
2, 561953, Control_c, 0, 64, 127
2, 561999, Note_on_c, 0, 85, 0
2, 562106, Note_on_c, 0, 77, 0
2, 562118, Note_on_c, 0, 77, 79
2, 562191, Note_on_c, 0, 65, 0
2, 562443, Note_on_c, 0, 48, 53
2, 562448, Note_on_c, 0, 78, 79
2, 562450, Note_on_c, 0, 76, 55
2, 562470, Note_on_c, 0, 58, 0
2, 562470, Control_c, 0, 64, 0
2, 562471, Note_on_c, 0, 74, 0
2, 562471, Note_on_c, 0, 82, 0
2, 562471, Note_on_c, 0, 70, 0
2, 562472, Note_on_c, 0, 77, 0
2, 562483, Note_on_c, 0, 86, 0
2, 562613, Control_c, 0, 64, 127
2, 562636, Note_on_c, 0, 76, 0
2, 562667, Note_on_c, 0, 48, 0
2, 562764, Note_on_c, 0, 67, 57
2, 562765, Note_on_c, 0, 55, 52
2, 562927, Note_on_c, 0, 79, 76
2, 563079, Control_c, 0, 64, 0
2, 563087, Note_on_c, 0, 69, 68
2, 563093, Note_on_c, 0, 58, 58
2, 563097, Control_c, 0, 64, 127
2, 563351, Note_on_c, 0, 78, 0
2, 563362, Note_on_c, 0, 78, 77
2, 563369, Note_on_c, 0, 64, 55
2, 563374, Note_on_c, 0, 70, 69
2, 563512, Note_on_c, 0, 79, 0
2, 563521, Note_on_c, 0, 79, 77
2, 563676, Note_on_c, 0, 67, 0
2, 563676, Note_on_c, 0, 58, 0
2, 563676, Note_on_c, 0, 69, 0
2, 563677, Note_on_c, 0, 64, 0
2, 563677, Note_on_c, 0, 70, 0
2, 563677, Note_on_c, 0, 79, 0
2, 563678, Note_on_c, 0, 55, 0
2, 563680, Control_c, 0, 64, 0
2, 563696, Note_on_c, 0, 78, 0
2, 563697, Note_on_c, 0, 81, 86
2, 563701, Note_on_c, 0, 41, 60
2, 563709, Note_on_c, 0, 71, 67
2, 563717, Note_on_c, 0, 75, 68
2, 563819, Control_c, 0, 64, 127
2, 564008, Note_on_c, 0, 53, 48
2, 564160, Note_on_c, 0, 79, 73
2, 564172, Note_on_c, 0, 71, 0
2, 564172, Note_on_c, 0, 75, 0
2, 564177, Note_on_c, 0, 75, 66
2, 564177, Note_on_c, 0, 71, 49
2, 564178, Note_on_c, 0, 72, 58
2, 564329, Note_on_c, 0, 63, 53
2, 564336, Note_on_c, 0, 57, 48
2, 564337, Note_on_c, 0, 69, 46
2, 564634, Note_on_c, 0, 73, 68
2, 564929, Control_c, 0, 64, 0
2, 564942, Note_on_c, 0, 73, 0
2, 564942, Note_on_c, 0, 75, 0
2, 564943, Note_on_c, 0, 41, 0
2, 564943, Note_on_c, 0, 72, 0
2, 564943, Note_on_c, 0, 74, 78
2, 564943, Note_on_c, 0, 79, 0
2, 564943, Note_on_c, 0, 57, 0
2, 564943, Note_on_c, 0, 81, 0
2, 564944, Note_on_c, 0, 63, 0
2, 564944, Note_on_c, 0, 71, 0
2, 564945, Note_on_c, 0, 53, 0
2, 564951, Note_on_c, 0, 46, 59
2, 564953, Note_on_c, 0, 70, 63
2, 564971, Note_on_c, 0, 69, 0
2, 565040, Control_c, 0, 64, 127
2, 565247, Note_on_c, 0, 65, 70
2, 565252, Note_on_c, 0, 53, 62
2, 565395, Note_on_c, 0, 77, 79
2, 565559, Note_on_c, 0, 57, 57
2, 565563, Note_on_c, 0, 67, 65
2, 565568, Note_on_c, 0, 79, 57
2, 565851, Note_on_c, 0, 62, 52
2, 565851, Note_on_c, 0, 76, 74
2, 565866, Note_on_c, 0, 68, 64
2, 565992, Note_on_c, 0, 77, 0
2, 566004, Note_on_c, 0, 77, 76
2, 566152, Control_c, 0, 64, 0
2, 566158, Note_on_c, 0, 67, 0
2, 566158, Note_on_c, 0, 76, 0
2, 566158, Note_on_c, 0, 68, 0
2, 566158, Note_on_c, 0, 62, 0
2, 566158, Note_on_c, 0, 65, 0
2, 566158, Note_on_c, 0, 53, 0
2, 566159, Note_on_c, 0, 46, 0
2, 566159, Note_on_c, 0, 77, 0
2, 566159, Note_on_c, 0, 57, 0
2, 566159, Note_on_c, 0, 70, 0
2, 566169, Note_on_c, 0, 79, 0
2, 566177, Note_on_c, 0, 74, 0
2, 566177, Note_on_c, 0, 79, 81
2, 566179, Note_on_c, 0, 39, 64
2, 566183, Note_on_c, 0, 74, 73
2, 566186, Note_on_c, 0, 69, 67
2, 566261, Control_c, 0, 64, 127
2, 566493, Note_on_c, 0, 51, 46
2, 566637, Note_on_c, 0, 77, 81
2, 566650, Note_on_c, 0, 70, 64
2, 566807, Note_on_c, 0, 70, 0
2, 566810, Note_on_c, 0, 58, 54
2, 566810, Note_on_c, 0, 62, 57
2, 566811, Note_on_c, 0, 55, 47
2, 566815, Note_on_c, 0, 70, 55
2, 567022, Note_on_c, 0, 69, 0
2, 567083, Note_on_c, 0, 74, 0
2, 567095, Note_on_c, 0, 74, 84
2, 567405, Note_on_c, 0, 73, 80
2, 567406, Note_on_c, 0, 55, 0
2, 567413, Note_on_c, 0, 45, 58
2, 567414, Note_on_c, 0, 57, 61
2, 567415, Note_on_c, 0, 69, 59
2, 567416, Note_on_c, 0, 55, 58
2, 567424, Control_c, 0, 64, 0
2, 567429, Note_on_c, 0, 39, 0
2, 567430, Note_on_c, 0, 62, 0
2, 567431, Note_on_c, 0, 77, 0
2, 567431, Note_on_c, 0, 51, 0
2, 567432, Note_on_c, 0, 70, 0
2, 567433, Note_on_c, 0, 74, 0
2, 567433, Note_on_c, 0, 79, 0
2, 567444, Note_on_c, 0, 58, 0
2, 567590, Control_c, 0, 64, 127
2, 567733, Note_on_c, 0, 52, 48
2, 567880, Note_on_c, 0, 74, 84
2, 568030, Note_on_c, 0, 59, 62
2, 568120, Note_on_c, 0, 69, 0
2, 568328, Note_on_c, 0, 76, 84
2, 568330, Note_on_c, 0, 61, 61
2, 568640, Note_on_c, 0, 79, 79
2, 568644, Note_on_c, 0, 50, 62
2, 568644, Control_c, 0, 64, 0
2, 568649, Note_on_c, 0, 45, 0
2, 568650, Note_on_c, 0, 60, 58
2, 568652, Note_on_c, 0, 72, 67
2, 568652, Note_on_c, 0, 52, 0
2, 568652, Note_on_c, 0, 57, 0
2, 568652, Note_on_c, 0, 73, 0
2, 568652, Note_on_c, 0, 59, 0
2, 568652, Note_on_c, 0, 61, 0
2, 568653, Note_on_c, 0, 76, 0
2, 568653, Note_on_c, 0, 74, 0
2, 568654, Note_on_c, 0, 69, 57
2, 568665, Note_on_c, 0, 55, 0
2, 568757, Control_c, 0, 64, 127
2, 568953, Note_on_c, 0, 57, 55
2, 569257, Note_on_c, 0, 78, 78
2, 569541, Note_on_c, 0, 60, 0
2, 569548, Note_on_c, 0, 57, 0
2, 569553, Note_on_c, 0, 57, 45
2, 569855, Control_c, 0, 64, 0
2, 569856, Note_on_c, 0, 57, 0
2, 569856, Note_on_c, 0, 69, 0
2, 569856, Note_on_c, 0, 50, 0
2, 569857, Note_on_c, 0, 72, 0
2, 569857, Note_on_c, 0, 78, 0
2, 569859, Note_on_c, 0, 76, 82
2, 569864, Note_on_c, 0, 70, 72
2, 569867, Note_on_c, 0, 48, 64
2, 569868, Note_on_c, 0, 67, 67
2, 569886, Note_on_c, 0, 79, 0
2, 569955, Control_c, 0, 64, 127
2, 570141, Note_on_c, 0, 55, 63
2, 570313, Note_on_c, 0, 78, 88
2, 570471, Note_on_c, 0, 60, 64
2, 570750, Note_on_c, 0, 79, 86
2, 570752, Note_on_c, 0, 62, 61
2, 571072, Note_on_c, 0, 82, 93
2, 571079, Note_on_c, 0, 50, 62
2, 571092, Note_on_c, 0, 72, 70
2, 571100, Note_on_c, 0, 76, 0
2, 571104, Note_on_c, 0, 76, 62
2, 571115, Control_c, 0, 64, 0
2, 571126, Note_on_c, 0, 48, 0
2, 571126, Note_on_c, 0, 60, 0
2, 571127, Note_on_c, 0, 55, 0
2, 571127, Note_on_c, 0, 62, 0
2, 571127, Note_on_c, 0, 70, 0
2, 571127, Note_on_c, 0, 67, 0
2, 571127, Note_on_c, 0, 79, 0
2, 571127, Note_on_c, 0, 78, 0
2, 571322, Control_c, 0, 64, 127
2, 571416, Note_on_c, 0, 57, 50
2, 571718, Note_on_c, 0, 81, 82
2, 571737, Note_on_c, 0, 78, 62
2, 571743, Note_on_c, 0, 74, 60
2, 571769, Control_c, 0, 64, 0
2, 571783, Note_on_c, 0, 78, 0
2, 571793, Note_on_c, 0, 78, 50
2, 571829, Note_on_c, 0, 76, 0
2, 571845, Control_c, 0, 64, 127
2, 571921, Note_on_c, 0, 72, 0
2, 572014, Note_on_c, 0, 82, 0
2, 572063, Note_on_c, 0, 66, 43
2, 572098, Control_c, 0, 64, 0
2, 572359, Control_c, 0, 64, 127
2, 573353, Control_c, 0, 64, 0
2, 573378, Note_on_c, 0, 71, 71
2, 573383, Note_on_c, 0, 43, 45
2, 573384, Note_on_c, 0, 62, 62
2, 573388, Note_on_c, 0, 43, 0
2, 573391, Note_on_c, 0, 74, 0
2, 573392, Note_on_c, 0, 81, 0
2, 573393, Note_on_c, 0, 78, 0
2, 573393, Note_on_c, 0, 57, 0
2, 573395, Note_on_c, 0, 66, 0
2, 573518, Note_on_c, 0, 72, 80
2, 573657, Note_on_c, 0, 71, 0
2, 573661, Note_on_c, 0, 71, 73
2, 573772, Control_c, 0, 64, 127
2, 573809, Note_on_c, 0, 69, 74
2, 573964, Note_on_c, 0, 72, 0
2, 573975, Note_on_c, 0, 67, 72
2, 573980, Note_on_c, 0, 50, 0
2, 573996, Note_on_c, 0, 43, 45
2, 574000, Note_on_c, 0, 59, 45
2, 574011, Control_c, 0, 64, 0
2, 574019, Note_on_c, 0, 71, 0
2, 574021, Note_on_c, 0, 69, 0
2, 574022, Note_on_c, 0, 62, 0
2, 574279, Control_c, 0, 64, 127
2, 574292, Note_on_c, 0, 50, 44
2, 574607, Note_on_c, 0, 62, 59
2, 574648, Note_on_c, 0, 59, 0
2, 574657, Note_on_c, 0, 59, 37
2, 574809, Control_c, 0, 64, 0
2, 574907, Note_on_c, 0, 55, 42
2, 574955, Control_c, 0, 64, 127
2, 575531, Note_on_c, 0, 50, 0
2, 575542, Note_on_c, 0, 50, 39
2, 575838, Note_on_c, 0, 59, 0
2, 575843, Note_on_c, 0, 59, 46
2, 575861, Note_on_c, 0, 62, 0
2, 575865, Note_on_c, 0, 62, 57
2, 575992, Note_on_c, 0, 67, 0
2, 575999, Note_on_c, 0, 67, 69
2, 576127, Note_on_c, 0, 71, 76
2, 576266, Note_on_c, 0, 76, 76
2, 576453, Note_on_c, 0, 73, 81
2, 576460, Note_on_c, 0, 50, 0
2, 576466, Note_on_c, 0, 69, 50
2, 576466, Note_on_c, 0, 50, 55
2, 576478, Note_on_c, 0, 65, 52
2, 576488, Control_c, 0, 64, 0
2, 576488, Note_on_c, 0, 43, 0
2, 576489, Note_on_c, 0, 55, 0
2, 576490, Note_on_c, 0, 67, 0
2, 576490, Note_on_c, 0, 62, 0
2, 576491, Note_on_c, 0, 76, 0
2, 576492, Note_on_c, 0, 71, 0
2, 576514, Note_on_c, 0, 59, 0
2, 576629, Note_on_c, 0, 65, 0
2, 576737, Control_c, 0, 64, 127
2, 576773, Note_on_c, 0, 57, 46
2, 577070, Note_on_c, 0, 74, 73
2, 577086, Note_on_c, 0, 66, 51
2, 577090, Control_c, 0, 64, 0
2, 577182, Control_c, 0, 64, 127
2, 577198, Note_on_c, 0, 73, 0
2, 577412, Note_on_c, 0, 62, 44
2, 578065, Note_on_c, 0, 57, 0
2, 578071, Note_on_c, 0, 57, 37
2, 578360, Note_on_c, 0, 76, 68
2, 578365, Note_on_c, 0, 69, 0
2, 578387, Note_on_c, 0, 67, 41
2, 578667, Note_on_c, 0, 78, 85
2, 578673, Note_on_c, 0, 69, 67
2, 578692, Note_on_c, 0, 62, 0
2, 578977, Note_on_c, 0, 79, 86
2, 578983, Note_on_c, 0, 52, 49
2, 578995, Control_c, 0, 64, 0
2, 578995, Note_on_c, 0, 67, 0
2, 579001, Note_on_c, 0, 74, 0
2, 579002, Note_on_c, 0, 66, 0
2, 579003, Note_on_c, 0, 57, 0
2, 579003, Note_on_c, 0, 69, 0
2, 579004, Note_on_c, 0, 76, 0
2, 579004, Note_on_c, 0, 78, 0
2, 579006, Note_on_c, 0, 67, 60
2, 579006, Note_on_c, 0, 71, 64
2, 579025, Note_on_c, 0, 50, 0
2, 579156, Control_c, 0, 64, 127
2, 579294, Note_on_c, 0, 55, 53
2, 579304, Note_on_c, 0, 59, 49
2, 579590, Note_on_c, 0, 61, 63
2, 579878, Note_on_c, 0, 71, 0
2, 579886, Note_on_c, 0, 71, 75
2, 579890, Note_on_c, 0, 62, 64
2, 579893, Note_on_c, 0, 55, 0
2, 579893, Note_on_c, 0, 67, 0
2, 579897, Note_on_c, 0, 67, 65
2, 579902, Note_on_c, 0, 55, 57
2, 580193, Note_on_c, 0, 55, 0
2, 580198, Control_c, 0, 64, 0
2, 580198, Note_on_c, 0, 55, 62
2, 580200, Note_on_c, 0, 73, 81
2, 580200, Note_on_c, 0, 67, 0
2, 580206, Note_on_c, 0, 45, 60
2, 580210, Note_on_c, 0, 67, 62
2, 580212, Note_on_c, 0, 64, 61
2, 580237, Note_on_c, 0, 52, 0
2, 580244, Note_on_c, 0, 71, 0
2, 580254, Note_on_c, 0, 59, 0
2, 580254, Note_on_c, 0, 79, 0
2, 580262, Note_on_c, 0, 61, 0
2, 580285, Note_on_c, 0, 62, 0
2, 580354, Control_c, 0, 64, 127
2, 580500, Note_on_c, 0, 52, 51
2, 580561, Note_on_c, 0, 55, 0
2, 580652, Note_on_c, 0, 74, 76
2, 580730, Note_on_c, 0, 73, 0
2, 580737, Note_on_c, 0, 73, 71
2, 580806, Note_on_c, 0, 71, 85
2, 580812, Note_on_c, 0, 59, 62
2, 581084, Note_on_c, 0, 73, 0
2, 581091, Note_on_c, 0, 73, 87
2, 581102, Note_on_c, 0, 61, 57
2, 581106, Note_on_c, 0, 55, 40
2, 581408, Note_on_c, 0, 76, 84
2, 581411, Note_on_c, 0, 50, 65
2, 581412, Control_c, 0, 64, 0
2, 581414, Note_on_c, 0, 67, 0
2, 581415, Note_on_c, 0, 64, 0
2, 581417, Note_on_c, 0, 55, 0
2, 581417, Note_on_c, 0, 73, 0
2, 581417, Note_on_c, 0, 52, 0
2, 581417, Note_on_c, 0, 59, 0
2, 581417, Note_on_c, 0, 71, 0
2, 581417, Note_on_c, 0, 61, 0
2, 581418, Note_on_c, 0, 45, 0
2, 581418, Note_on_c, 0, 74, 0
2, 581422, Note_on_c, 0, 67, 64
2, 581629, Control_c, 0, 64, 127
2, 581679, Note_on_c, 0, 57, 62
2, 581849, Note_on_c, 0, 74, 71
2, 581898, Note_on_c, 0, 76, 0
2, 581909, Note_on_c, 0, 76, 73
2, 581986, Control_c, 0, 64, 0
2, 581990, Note_on_c, 0, 74, 0
2, 581996, Note_on_c, 0, 74, 84
2, 582024, Note_on_c, 0, 66, 57
2, 582024, Note_on_c, 0, 69, 52
2, 582030, Note_on_c, 0, 76, 0
2, 582034, Note_on_c, 0, 67, 0
2, 582205, Control_c, 0, 64, 127
2, 582303, Note_on_c, 0, 64, 47
2, 582608, Note_on_c, 0, 62, 49
2, 582611, Control_c, 0, 64, 0
2, 582615, Note_on_c, 0, 74, 0
2, 582616, Note_on_c, 0, 64, 0
2, 582616, Note_on_c, 0, 50, 0
2, 582616, Note_on_c, 0, 69, 0
2, 582617, Note_on_c, 0, 57, 0
2, 582617, Note_on_c, 0, 66, 0
2, 582789, Control_c, 0, 64, 127
2, 582878, Note_on_c, 0, 60, 58
2, 582965, Note_on_c, 0, 62, 0
2, 582975, Note_on_c, 0, 62, 49
2, 583034, Note_on_c, 0, 60, 0
2, 583039, Note_on_c, 0, 60, 51
2, 583189, Note_on_c, 0, 74, 85
2, 583196, Note_on_c, 0, 59, 58
2, 583200, Note_on_c, 0, 60, 0
2, 583200, Note_on_c, 0, 62, 0
2, 583206, Control_c, 0, 64, 0
2, 583380, Control_c, 0, 64, 127
2, 583474, Note_on_c, 0, 57, 53
2, 583635, Note_on_c, 0, 75, 74
2, 583783, Control_c, 0, 64, 0
2, 583784, Note_on_c, 0, 57, 0
2, 583787, Note_on_c, 0, 75, 0
2, 583790, Note_on_c, 0, 59, 0
2, 583792, Note_on_c, 0, 75, 84
2, 583807, Note_on_c, 0, 48, 48
2, 583810, Note_on_c, 0, 74, 0
2, 583821, Note_on_c, 0, 66, 48
2, 583933, Control_c, 0, 64, 127
2, 584110, Note_on_c, 0, 55, 51
2, 584244, Note_on_c, 0, 76, 75
2, 584398, Note_on_c, 0, 64, 61
2, 584432, Note_on_c, 0, 66, 0
2, 584563, Note_on_c, 0, 75, 0
2, 584706, Note_on_c, 0, 69, 69
2, 584707, Note_on_c, 0, 47, 49
2, 584824, Note_on_c, 0, 48, 0
2, 584855, Note_on_c, 0, 76, 0
2, 585005, Control_c, 0, 64, 0
2, 585008, Note_on_c, 0, 55, 0
2, 585012, Note_on_c, 0, 47, 0
2, 585018, Note_on_c, 0, 55, 49
2, 585021, Note_on_c, 0, 45, 44
2, 585116, Control_c, 0, 64, 127
2, 585318, Note_on_c, 0, 71, 73
2, 585638, Note_on_c, 0, 50, 42
2, 585648, Note_on_c, 0, 60, 43
2, 585653, Note_on_c, 0, 54, 30
2, 585653, Note_on_c, 0, 69, 0
2, 585656, Note_on_c, 0, 55, 0
2, 585657, Control_c, 0, 64, 0
2, 585738, Note_on_c, 0, 64, 0
2, 585753, Control_c, 0, 64, 127
2, 585761, Note_on_c, 0, 45, 0
2, 585936, Note_on_c, 0, 72, 82
2, 586238, Note_on_c, 0, 73, 79
2, 586248, Note_on_c, 0, 43, 50
2, 586256, Note_on_c, 0, 70, 57
2, 586260, Note_on_c, 0, 60, 0
2, 586261, Note_on_c, 0, 54, 0
2, 586261, Control_c, 0, 64, 0
2, 586263, Note_on_c, 0, 50, 0
2, 586263, Note_on_c, 0, 71, 0
2, 586263, Note_on_c, 0, 72, 0
2, 586414, Control_c, 0, 64, 127
2, 586547, Note_on_c, 0, 50, 52
2, 586710, Note_on_c, 0, 74, 87
2, 586731, Note_on_c, 0, 71, 66
2, 586786, Note_on_c, 0, 70, 0
2, 586788, Note_on_c, 0, 73, 0
2, 586789, Control_c, 0, 64, 0
2, 586870, Note_on_c, 0, 42, 59
2, 586905, Control_c, 0, 64, 127
2, 587175, Note_on_c, 0, 79, 86
2, 587189, Note_on_c, 0, 71, 0
2, 587189, Note_on_c, 0, 74, 0
2, 587198, Note_on_c, 0, 74, 66
2, 587200, Note_on_c, 0, 71, 57
2, 587224, Note_on_c, 0, 67, 30
2, 587231, Note_on_c, 0, 55, 32
2, 587235, Note_on_c, 0, 55, 0
2, 587343, Note_on_c, 0, 43, 0
2, 587516, Note_on_c, 0, 40, 48
2, 587517, Note_on_c, 0, 55, 51
2, 587548, Control_c, 0, 64, 0
2, 587576, Note_on_c, 0, 67, 0
2, 587576, Note_on_c, 0, 42, 0
2, 587581, Note_on_c, 0, 50, 0
2, 587758, Control_c, 0, 64, 127
2, 588172, Note_on_c, 0, 79, 0
2, 588180, Note_on_c, 0, 79, 85
2, 588190, Note_on_c, 0, 39, 71
2, 588191, Note_on_c, 0, 67, 71
2, 588192, Note_on_c, 0, 73, 72
2, 588195, Note_on_c, 0, 70, 71
2, 588228, Control_c, 0, 64, 0
2, 588234, Note_on_c, 0, 55, 0
2, 588237, Note_on_c, 0, 40, 0
2, 588241, Note_on_c, 0, 71, 0
2, 588241, Note_on_c, 0, 74, 0
2, 588326, Control_c, 0, 64, 127
2, 588456, Note_on_c, 0, 67, 0
2, 588682, Note_on_c, 0, 81, 82
2, 588686, Note_on_c, 0, 69, 67
2, 588839, Control_c, 0, 64, 0
2, 588845, Note_on_c, 0, 69, 0
2, 588845, Note_on_c, 0, 73, 0
2, 588846, Note_on_c, 0, 39, 0
2, 588846, Note_on_c, 0, 70, 0
2, 588849, Note_on_c, 0, 81, 0
2, 588853, Note_on_c, 0, 38, 66
2, 588859, Note_on_c, 0, 83, 94
2, 588869, Note_on_c, 0, 71, 69
2, 588871, Note_on_c, 0, 79, 0
2, 588872, Note_on_c, 0, 74, 75
2, 588876, Note_on_c, 0, 79, 62
2, 588948, Control_c, 0, 64, 127
2, 589232, Note_on_c, 0, 55, 52
2, 589236, Note_on_c, 0, 59, 43
2, 589237, Note_on_c, 0, 50, 45
2, 589532, Note_on_c, 0, 55, 0
2, 589532, Note_on_c, 0, 59, 0
2, 589535, Note_on_c, 0, 62, 61
2, 589536, Note_on_c, 0, 59, 56
2, 589542, Note_on_c, 0, 55, 51
2, 589839, Note_on_c, 0, 71, 0
2, 589839, Note_on_c, 0, 83, 0
2, 589846, Note_on_c, 0, 67, 65
2, 589850, Note_on_c, 0, 83, 84
2, 589850, Note_on_c, 0, 71, 75
2, 590191, Control_c, 0, 64, 0
2, 590192, Note_on_c, 0, 38, 0
2, 590194, Note_on_c, 0, 67, 0
2, 590195, Note_on_c, 0, 74, 0
2, 590195, Note_on_c, 0, 59, 0
2, 590195, Note_on_c, 0, 55, 0
2, 590195, Note_on_c, 0, 62, 0
2, 590203, Note_on_c, 0, 38, 68
2, 590204, Note_on_c, 0, 84, 91
2, 590208, Note_on_c, 0, 71, 0
2, 590212, Note_on_c, 0, 72, 79
2, 590215, Note_on_c, 0, 50, 0
2, 590215, Note_on_c, 0, 75, 80
2, 590223, Note_on_c, 0, 83, 0
2, 590273, Note_on_c, 0, 38, 0
2, 590284, Control_c, 0, 64, 127
2, 590546, Note_on_c, 0, 57, 56
2, 590553, Note_on_c, 0, 60, 53
2, 590711, Note_on_c, 0, 83, 86
2, 590730, Note_on_c, 0, 72, 0
2, 590730, Note_on_c, 0, 75, 0
2, 590734, Note_on_c, 0, 72, 67
2, 590737, Note_on_c, 0, 75, 67
2, 590899, Note_on_c, 0, 60, 0
2, 590909, Note_on_c, 0, 60, 50
2, 590918, Note_on_c, 0, 63, 51
2, 591298, Note_on_c, 0, 81, 82
2, 591306, Note_on_c, 0, 72, 0
2, 591311, Note_on_c, 0, 66, 52
2, 591315, Note_on_c, 0, 72, 68
2, 591329, Note_on_c, 0, 75, 0
2, 591333, Note_on_c, 0, 75, 60
2, 591335, Note_on_c, 0, 78, 46
2, 591744, Note_on_c, 0, 81, 0
2, 591753, Note_on_c, 0, 81, 84
2, 591759, Note_on_c, 0, 72, 0
2, 591759, Note_on_c, 0, 75, 0
2, 591762, Note_on_c, 0, 43, 59
2, 591764, Note_on_c, 0, 31, 58
2, 591769, Note_on_c, 0, 72, 78
2, 591770, Note_on_c, 0, 75, 75
2, 591774, Note_on_c, 0, 31, 0
2, 591800, Control_c, 0, 64, 0
2, 591806, Note_on_c, 0, 63, 0
2, 591807, Note_on_c, 0, 57, 0
2, 591807, Note_on_c, 0, 83, 0
2, 591808, Note_on_c, 0, 60, 0
2, 591808, Note_on_c, 0, 84, 0
2, 591809, Note_on_c, 0, 66, 0
2, 591820, Note_on_c, 0, 78, 0
2, 591882, Note_on_c, 0, 79, 0
2, 591982, Control_c, 0, 64, 127
2, 592084, Note_on_c, 0, 50, 50
2, 592261, Note_on_c, 0, 79, 71
2, 592278, Note_on_c, 0, 71, 57
2, 592278, Note_on_c, 0, 74, 61
2, 592389, Note_on_c, 0, 72, 0
2, 592389, Note_on_c, 0, 75, 0
2, 592393, Control_c, 0, 64, 0
2, 592404, Note_on_c, 0, 81, 0
2, 592429, Note_on_c, 0, 59, 71
2, 592680, Control_c, 0, 64, 127
2, 592725, Note_on_c, 0, 81, 80
2, 592754, Note_on_c, 0, 72, 66
2, 592759, Note_on_c, 0, 75, 66
2, 592882, Note_on_c, 0, 57, 63
2, 593049, Note_on_c, 0, 79, 0
2, 593060, Note_on_c, 0, 79, 76
2, 593064, Note_on_c, 0, 55, 70
2, 593064, Note_on_c, 0, 71, 0
2, 593069, Note_on_c, 0, 71, 62
2, 593072, Control_c, 0, 64, 0
2, 593072, Note_on_c, 0, 74, 0
2, 593077, Note_on_c, 0, 74, 63
2, 593077, Note_on_c, 0, 75, 0
2, 593078, Note_on_c, 0, 72, 0
2, 593078, Note_on_c, 0, 50, 0
2, 593079, Note_on_c, 0, 57, 0
2, 593080, Note_on_c, 0, 59, 0
2, 593082, Note_on_c, 0, 81, 0
2, 593372, Control_c, 0, 64, 127
2, 593518, Note_on_c, 0, 79, 0
2, 593525, Note_on_c, 0, 79, 66
2, 593602, Note_on_c, 0, 71, 0
2, 593607, Note_on_c, 0, 71, 47
2, 593664, Note_on_c, 0, 79, 0
2, 593674, Note_on_c, 0, 79, 59
2, 593710, Note_on_c, 0, 74, 0
2, 593715, Note_on_c, 0, 50, 50
2, 593716, Note_on_c, 0, 74, 35
2, 593756, Note_on_c, 0, 71, 0
2, 593766, Note_on_c, 0, 71, 56
2, 593809, Note_on_c, 0, 79, 0
2, 593814, Note_on_c, 0, 79, 64
2, 593886, Note_on_c, 0, 71, 0
2, 593895, Note_on_c, 0, 71, 62
2, 593940, Note_on_c, 0, 79, 0
2, 593945, Note_on_c, 0, 79, 67
2, 594009, Note_on_c, 0, 71, 0
2, 594009, Note_on_c, 0, 74, 0
2, 594015, Note_on_c, 0, 71, 65
2, 594017, Note_on_c, 0, 74, 51
2, 594071, Note_on_c, 0, 79, 0
2, 594081, Note_on_c, 0, 79, 67
2, 594155, Note_on_c, 0, 71, 0
2, 594155, Note_on_c, 0, 74, 0
2, 594160, Note_on_c, 0, 71, 55
2, 594163, Note_on_c, 0, 74, 69
2, 594216, Note_on_c, 0, 79, 0
2, 594222, Note_on_c, 0, 79, 63
2, 594278, Note_on_c, 0, 74, 0
2, 594282, Note_on_c, 0, 74, 69
2, 594286, Note_on_c, 0, 71, 0
2, 594291, Note_on_c, 0, 71, 60
2, 594339, Note_on_c, 0, 43, 0
2, 594339, Note_on_c, 0, 79, 0
2, 594349, Note_on_c, 0, 43, 46
2, 594350, Note_on_c, 0, 79, 61
2, 594424, Note_on_c, 0, 74, 0
2, 594432, Note_on_c, 0, 71, 0
2, 594434, Note_on_c, 0, 74, 69
2, 594439, Note_on_c, 0, 71, 61
2, 594493, Note_on_c, 0, 79, 0
2, 594497, Note_on_c, 0, 79, 60
2, 594562, Note_on_c, 0, 74, 0
2, 594572, Note_on_c, 0, 74, 63
2, 594585, Note_on_c, 0, 71, 0
2, 594589, Note_on_c, 0, 71, 52
2, 594631, Note_on_c, 0, 79, 0
2, 594639, Note_on_c, 0, 79, 59
2, 594708, Note_on_c, 0, 71, 0
2, 594708, Note_on_c, 0, 74, 0
2, 594714, Note_on_c, 0, 74, 55
2, 594719, Note_on_c, 0, 71, 48
2, 594769, Note_on_c, 0, 79, 0
2, 594778, Note_on_c, 0, 79, 59
2, 594839, Note_on_c, 0, 71, 0
2, 594839, Note_on_c, 0, 74, 0
2, 594843, Note_on_c, 0, 74, 57
2, 594850, Note_on_c, 0, 71, 50
2, 594892, Note_on_c, 0, 79, 0
2, 594900, Note_on_c, 0, 79, 65
2, 594961, Note_on_c, 0, 50, 0
2, 594961, Note_on_c, 0, 74, 0
2, 594967, Note_on_c, 0, 50, 52
2, 594973, Note_on_c, 0, 74, 65
2, 594990, Note_on_c, 0, 77, 39
2, 595000, Note_on_c, 0, 77, 0
2, 595031, Note_on_c, 0, 79, 0
2, 595037, Note_on_c, 0, 79, 64
2, 595100, Note_on_c, 0, 55, 0
2, 595100, Note_on_c, 0, 71, 0
2, 595100, Note_on_c, 0, 74, 0
2, 595105, Note_on_c, 0, 74, 71
2, 595110, Note_on_c, 0, 71, 61
2, 595110, Note_on_c, 0, 55, 72
2, 595169, Note_on_c, 0, 79, 0
2, 595174, Note_on_c, 0, 79, 59
2, 595230, Note_on_c, 0, 74, 0
2, 595238, Note_on_c, 0, 71, 0
2, 595239, Note_on_c, 0, 74, 72
2, 595248, Note_on_c, 0, 71, 71
2, 595249, Note_on_c, 0, 59, 72
2, 595299, Note_on_c, 0, 79, 0
2, 595311, Note_on_c, 0, 79, 70
2, 595353, Note_on_c, 0, 74, 0
2, 595364, Note_on_c, 0, 74, 73
2, 595376, Note_on_c, 0, 71, 0
2, 595381, Note_on_c, 0, 71, 64
2, 595400, Note_on_c, 0, 64, 71
2, 595438, Note_on_c, 0, 79, 0
2, 595447, Note_on_c, 0, 79, 67
2, 595514, Note_on_c, 0, 71, 0
2, 595514, Note_on_c, 0, 74, 0
2, 595525, Note_on_c, 0, 74, 69
2, 595525, Note_on_c, 0, 71, 64
2, 595560, Note_on_c, 0, 55, 0
2, 595570, Control_c, 0, 64, 0
2, 595571, Note_on_c, 0, 61, 69
2, 595571, Note_on_c, 0, 55, 73
2, 595573, Note_on_c, 0, 58, 69
2, 595580, Note_on_c, 0, 64, 0
2, 595584, Note_on_c, 0, 59, 0
2, 595591, Note_on_c, 0, 79, 0
2, 595602, Note_on_c, 0, 79, 62
2, 595637, Note_on_c, 0, 74, 0
2, 595648, Note_on_c, 0, 74, 75
2, 595668, Note_on_c, 0, 71, 0
2, 595672, Note_on_c, 0, 71, 58
2, 595714, Note_on_c, 0, 79, 0
2, 595725, Note_on_c, 0, 79, 61
2, 595752, Control_c, 0, 64, 127
2, 595783, Note_on_c, 0, 74, 0
2, 595788, Note_on_c, 0, 74, 68
2, 595791, Note_on_c, 0, 71, 0
2, 595797, Note_on_c, 0, 71, 56
2, 595845, Note_on_c, 0, 79, 0
2, 595848, Note_on_c, 0, 79, 64
2, 595898, Note_on_c, 0, 74, 0
2, 595908, Note_on_c, 0, 74, 70
2, 595921, Note_on_c, 0, 71, 0
2, 595930, Note_on_c, 0, 71, 57
2, 595983, Note_on_c, 0, 79, 0
2, 595988, Note_on_c, 0, 79, 62
2, 596037, Note_on_c, 0, 74, 0
2, 596042, Note_on_c, 0, 74, 71
2, 596044, Note_on_c, 0, 71, 0
2, 596054, Note_on_c, 0, 71, 56
2, 596098, Note_on_c, 0, 79, 0
2, 596109, Note_on_c, 0, 79, 66
2, 596160, Note_on_c, 0, 74, 0
2, 596171, Note_on_c, 0, 74, 72
2, 596190, Note_on_c, 0, 71, 0
2, 596202, Note_on_c, 0, 71, 58
2, 596233, Note_on_c, 0, 62, 65
2, 596236, Note_on_c, 0, 79, 0
2, 596238, Note_on_c, 0, 59, 69
2, 596247, Note_on_c, 0, 79, 69
2, 596264, Control_c, 0, 64, 0
2, 596321, Control_c, 0, 64, 127
2, 596359, Note_on_c, 0, 50, 0
2, 596359, Note_on_c, 0, 71, 0
2, 596369, Note_on_c, 0, 71, 53
2, 596436, Note_on_c, 0, 79, 0
2, 596446, Note_on_c, 0, 79, 69
2, 596601, Note_on_c, 0, 67, 63
2, 596736, Note_on_c, 0, 74, 0
2, 596740, Note_on_c, 0, 74, 60
2, 596820, Note_on_c, 0, 79, 0
2, 596828, Note_on_c, 0, 79, 65
2, 596924, Note_on_c, 0, 83, 72
2, 597112, Note_on_c, 0, 71, 0
2, 597120, Note_on_c, 0, 43, 0
2, 597122, Note_on_c, 0, 71, 66
2, 597123, Note_on_c, 0, 86, 71
2, 597147, Note_on_c, 0, 59, 0
2, 597147, Note_on_c, 0, 74, 0
2, 597148, Note_on_c, 0, 79, 0
2, 597150, Note_on_c, 0, 61, 0
2, 597158, Note_on_c, 0, 58, 0
2, 597164, Control_c, 0, 64, 0
2, 597173, Note_on_c, 0, 55, 0
2, 597365, Control_c, 0, 64, 127
2, 597373, Note_on_c, 0, 83, 0
2, 597383, Note_on_c, 0, 83, 67
2, 597543, Note_on_c, 0, 79, 64
2, 597657, Note_on_c, 0, 83, 0
2, 597669, Note_on_c, 0, 83, 67
2, 597829, Note_on_c, 0, 74, 57
2, 597949, Note_on_c, 0, 79, 0
2, 597953, Note_on_c, 0, 79, 59
2, 598118, Note_on_c, 0, 71, 0
2, 598129, Note_on_c, 0, 71, 57
2, 598248, Note_on_c, 0, 74, 0
2, 598256, Note_on_c, 0, 74, 66
2, 598311, Note_on_c, 0, 79, 0
2, 598333, Control_c, 0, 64, 0
2, 598402, Note_on_c, 0, 86, 0
2, 598407, Note_on_c, 0, 86, 69
2, 598417, Control_c, 0, 64, 127
2, 598540, Note_on_c, 0, 83, 0
2, 598550, Note_on_c, 0, 83, 63
2, 598689, Note_on_c, 0, 79, 59
2, 598801, Note_on_c, 0, 83, 0
2, 598813, Note_on_c, 0, 83, 56
2, 598963, Note_on_c, 0, 74, 0
2, 598969, Note_on_c, 0, 74, 60
2, 599093, Note_on_c, 0, 79, 0
2, 599098, Note_on_c, 0, 79, 53
2, 599255, Note_on_c, 0, 71, 0
2, 599263, Note_on_c, 0, 71, 60
2, 599289, Control_c, 0, 64, 0
2, 599308, Control_c, 0, 64, 127
2, 599408, Note_on_c, 0, 74, 0
2, 599415, Note_on_c, 0, 74, 68
2, 599500, Control_c, 0, 64, 0
2, 599518, Note_on_c, 0, 55, 58
2, 599554, Note_on_c, 0, 57, 56
2, 599569, Note_on_c, 0, 60, 58
2, 599583, Note_on_c, 0, 71, 0
2, 599588, Note_on_c, 0, 74, 0
2, 599619, Note_on_c, 0, 64, 61
2, 599623, Control_c, 0, 64, 127
2, 599662, Note_on_c, 0, 86, 0
2, 599665, Note_on_c, 0, 86, 72
2, 599800, Note_on_c, 0, 62, 0
2, 599820, Note_on_c, 0, 84, 71
2, 599950, Note_on_c, 0, 81, 70
2, 600069, Note_on_c, 0, 84, 0
2, 600077, Note_on_c, 0, 84, 70
2, 600215, Note_on_c, 0, 79, 0
2, 600220, Note_on_c, 0, 79, 67
2, 600345, Note_on_c, 0, 81, 0
2, 600356, Note_on_c, 0, 81, 65
2, 600504, Note_on_c, 0, 76, 55
2, 600614, Note_on_c, 0, 79, 0
2, 600621, Note_on_c, 0, 79, 63
2, 600752, Note_on_c, 0, 86, 0
2, 600762, Note_on_c, 0, 86, 75
2, 600898, Note_on_c, 0, 84, 0
2, 600902, Note_on_c, 0, 84, 67
2, 600960, Note_on_c, 0, 67, 0
2, 600960, Note_on_c, 0, 83, 0
2, 601036, Note_on_c, 0, 81, 0
2, 601042, Note_on_c, 0, 81, 70
2, 601167, Note_on_c, 0, 84, 0
2, 601173, Note_on_c, 0, 84, 68
2, 601313, Note_on_c, 0, 79, 0
2, 601320, Note_on_c, 0, 79, 67
2, 601451, Note_on_c, 0, 81, 0
2, 601462, Note_on_c, 0, 81, 65
2, 601605, Note_on_c, 0, 76, 0
2, 601612, Note_on_c, 0, 76, 63
2, 601743, Note_on_c, 0, 79, 0
2, 601754, Note_on_c, 0, 79, 65
2, 601820, Note_on_c, 0, 55, 0
2, 601827, Note_on_c, 0, 57, 0
2, 601830, Note_on_c, 0, 55, 50
2, 601833, Note_on_c, 0, 57, 49
2, 601873, Note_on_c, 0, 60, 0
2, 601884, Note_on_c, 0, 60, 53
2, 601897, Note_on_c, 0, 62, 56
2, 601921, Note_on_c, 0, 79, 0
2, 601922, Note_on_c, 0, 84, 0
2, 601922, Note_on_c, 0, 64, 0
2, 601922, Note_on_c, 0, 81, 0
2, 601922, Control_c, 0, 64, 0
2, 601922, Note_on_c, 0, 76, 0
2, 601950, Note_on_c, 0, 86, 0
2, 601954, Note_on_c, 0, 66, 60
2, 601956, Note_on_c, 0, 86, 70
2, 602073, Control_c, 0, 64, 127
2, 602100, Note_on_c, 0, 84, 67
2, 602237, Note_on_c, 0, 81, 70
2, 602357, Note_on_c, 0, 84, 0
2, 602367, Note_on_c, 0, 84, 66
2, 602496, Note_on_c, 0, 79, 72
2, 602634, Note_on_c, 0, 81, 0
2, 602642, Note_on_c, 0, 81, 68
2, 602785, Note_on_c, 0, 74, 73
2, 602924, Note_on_c, 0, 78, 69
2, 603056, Note_on_c, 0, 86, 0
2, 603061, Note_on_c, 0, 86, 77
2, 603194, Note_on_c, 0, 84, 0
2, 603200, Note_on_c, 0, 84, 66
2, 603333, Note_on_c, 0, 81, 0
2, 603337, Note_on_c, 0, 81, 64
2, 603532, Note_on_c, 0, 81, 0
2, 603537, Note_on_c, 0, 81, 55
2, 603655, Note_on_c, 0, 79, 0
2, 603661, Note_on_c, 0, 79, 67
2, 603778, Note_on_c, 0, 81, 0
2, 603789, Note_on_c, 0, 81, 53
2, 603947, Note_on_c, 0, 74, 0
2, 603955, Note_on_c, 0, 74, 70
2, 604093, Note_on_c, 0, 78, 0
2, 604097, Note_on_c, 0, 78, 70
2, 604177, Note_on_c, 0, 55, 0
2, 604189, Note_on_c, 0, 55, 58
2, 604216, Note_on_c, 0, 62, 0
2, 604227, Note_on_c, 0, 62, 56
2, 604281, Control_c, 0, 64, 0
2, 604281, Note_on_c, 0, 86, 0
2, 604282, Note_on_c, 0, 81, 0
2, 604283, Note_on_c, 0, 66, 0
2, 604283, Note_on_c, 0, 79, 0
2, 604283, Note_on_c, 0, 74, 0
2, 604284, Note_on_c, 0, 78, 0
2, 604293, Note_on_c, 0, 84, 0
2, 604299, Note_on_c, 0, 84, 75
2, 604300, Note_on_c, 0, 57, 0
2, 604305, Note_on_c, 0, 71, 59
2, 604316, Note_on_c, 0, 60, 0
2, 604423, Control_c, 0, 64, 127
2, 604449, Note_on_c, 0, 83, 70
2, 604585, Note_on_c, 0, 79, 67
2, 604692, Note_on_c, 0, 83, 0
2, 604702, Note_on_c, 0, 83, 66
2, 604843, Note_on_c, 0, 74, 69
2, 604968, Note_on_c, 0, 79, 0
2, 604978, Note_on_c, 0, 79, 67
2, 605122, Note_on_c, 0, 71, 0
2, 605127, Note_on_c, 0, 71, 65
2, 605191, Control_c, 0, 64, 0
2, 605260, Note_on_c, 0, 74, 0
2, 605265, Note_on_c, 0, 74, 68
2, 605276, Control_c, 0, 64, 127
2, 605422, Note_on_c, 0, 84, 0
2, 605430, Note_on_c, 0, 84, 60
2, 605529, Note_on_c, 0, 83, 0
2, 605537, Note_on_c, 0, 83, 72
2, 605675, Note_on_c, 0, 81, 77
2, 605806, Note_on_c, 0, 83, 0
2, 605813, Note_on_c, 0, 83, 65
2, 605936, Note_on_c, 0, 79, 0
2, 605945, Note_on_c, 0, 79, 73
2, 606082, Note_on_c, 0, 74, 0
2, 606088, Note_on_c, 0, 74, 79
2, 606236, Note_on_c, 0, 79, 0
2, 606245, Note_on_c, 0, 79, 74
2, 606382, Note_on_c, 0, 83, 0
2, 606393, Note_on_c, 0, 83, 75
2, 606451, Note_on_c, 0, 55, 0
2, 606456, Note_on_c, 0, 55, 64
2, 606545, Note_on_c, 0, 59, 64
2, 606598, Note_on_c, 0, 64, 77
2, 606625, Note_on_c, 0, 91, 86
2, 606666, Control_c, 0, 64, 0
2, 606750, Control_c, 0, 64, 127
2, 606778, Note_on_c, 0, 88, 81
2, 606912, Note_on_c, 0, 83, 0
2, 606920, Note_on_c, 0, 83, 72
2, 606938, Note_on_c, 0, 67, 48
2, 607042, Note_on_c, 0, 88, 0
2, 607047, Note_on_c, 0, 88, 66
2, 607173, Note_on_c, 0, 79, 0
2, 607184, Note_on_c, 0, 79, 66
2, 607303, Note_on_c, 0, 83, 0
2, 607310, Note_on_c, 0, 83, 70
2, 607478, Note_on_c, 0, 76, 64
2, 607603, Note_on_c, 0, 79, 0
2, 607611, Note_on_c, 0, 79, 63
2, 607741, Note_on_c, 0, 91, 0
2, 607748, Note_on_c, 0, 91, 69
2, 607895, Note_on_c, 0, 88, 0
2, 607906, Note_on_c, 0, 88, 62
2, 608033, Note_on_c, 0, 83, 0
2, 608041, Note_on_c, 0, 83, 54
2, 608148, Note_on_c, 0, 88, 0
2, 608159, Note_on_c, 0, 88, 64
2, 608302, Note_on_c, 0, 79, 0
2, 608310, Note_on_c, 0, 79, 67
2, 608432, Note_on_c, 0, 83, 0
2, 608443, Note_on_c, 0, 83, 65
2, 608601, Note_on_c, 0, 76, 0
2, 608612, Note_on_c, 0, 76, 66
2, 608640, Note_on_c, 0, 55, 0
2, 608640, Note_on_c, 0, 59, 0
2, 608640, Note_on_c, 0, 62, 0
2, 608640, Note_on_c, 0, 64, 0
2, 608640, Note_on_c, 0, 71, 0
2, 608640, Note_on_c, 0, 74, 0
2, 608640, Note_on_c, 0, 81, 0
2, 608640, Note_on_c, 0, 84, 0
2, 608739, Note_on_c, 0, 79, 0
2, 608749, Note_on_c, 0, 79, 72
2, 608804, Note_on_c, 0, 55, 55
2, 608835, Note_on_c, 0, 57, 51
2, 608881, Note_on_c, 0, 61, 57
2, 608930, Note_on_c, 0, 64, 76
2, 608952, Note_on_c, 0, 76, 0
2, 608957, Note_on_c, 0, 83, 0
2, 608961, Note_on_c, 0, 79, 0
2, 608962, Note_on_c, 0, 91, 0
2, 608962, Control_c, 0, 64, 0
2, 608967, Note_on_c, 0, 91, 79
2, 608977, Note_on_c, 0, 67, 0
2, 608985, Note_on_c, 0, 88, 0
2, 609116, Control_c, 0, 64, 127
2, 609129, Note_on_c, 0, 88, 73
2, 609250, Note_on_c, 0, 85, 75
2, 609285, Note_on_c, 0, 91, 0
2, 609369, Note_on_c, 0, 88, 0
2, 609380, Note_on_c, 0, 88, 71
2, 609528, Note_on_c, 0, 81, 68
2, 609646, Note_on_c, 0, 85, 0
2, 609653, Note_on_c, 0, 85, 76
2, 609804, Note_on_c, 0, 79, 64
2, 609914, Note_on_c, 0, 81, 0
2, 609920, Note_on_c, 0, 81, 66
2, 610045, Note_on_c, 0, 91, 79
2, 610191, Note_on_c, 0, 88, 0
2, 610200, Note_on_c, 0, 88, 62
2, 610314, Note_on_c, 0, 85, 0
2, 610319, Note_on_c, 0, 85, 78
2, 610452, Note_on_c, 0, 88, 0
2, 610456, Note_on_c, 0, 88, 74
2, 610598, Note_on_c, 0, 81, 0
2, 610606, Note_on_c, 0, 81, 70
2, 610736, Note_on_c, 0, 85, 0
2, 610740, Note_on_c, 0, 85, 76
2, 610882, Note_on_c, 0, 79, 0
2, 610893, Note_on_c, 0, 79, 71
2, 611028, Note_on_c, 0, 81, 0
2, 611038, Note_on_c, 0, 81, 73
2, 611074, Note_on_c, 0, 55, 0
2, 611085, Note_on_c, 0, 55, 50
2, 611112, Note_on_c, 0, 57, 0
2, 611122, Note_on_c, 0, 57, 53
2, 611199, Note_on_c, 0, 60, 58
2, 611239, Note_on_c, 0, 63, 67
2, 611289, Note_on_c, 0, 91, 0
2, 611300, Note_on_c, 0, 91, 80
2, 611304, Note_on_c, 0, 85, 0
2, 611305, Note_on_c, 0, 81, 0
2, 611305, Note_on_c, 0, 79, 0
2, 611305, Note_on_c, 0, 61, 0
2, 611306, Note_on_c, 0, 88, 0
2, 611307, Control_c, 0, 64, 0
2, 611328, Note_on_c, 0, 64, 0
2, 611458, Control_c, 0, 64, 127
2, 611536, Note_on_c, 0, 87, 70
2, 611687, Note_on_c, 0, 86, 74
2, 611811, Note_on_c, 0, 87, 0
2, 611823, Note_on_c, 0, 87, 73
2, 611974, Note_on_c, 0, 84, 73
2, 612111, Note_on_c, 0, 86, 0
2, 612122, Note_on_c, 0, 86, 72
2, 612261, Note_on_c, 0, 81, 71
2, 612380, Note_on_c, 0, 84, 0
2, 612390, Note_on_c, 0, 84, 68
2, 612540, Note_on_c, 0, 79, 69
2, 612687, Note_on_c, 0, 81, 0
2, 612693, Note_on_c, 0, 81, 70
2, 612852, Note_on_c, 0, 78, 63
2, 613002, Note_on_c, 0, 81, 0
2, 613006, Note_on_c, 0, 81, 60
2, 613190, Note_on_c, 0, 74, 64
2, 613391, Note_on_c, 0, 75, 60
2, 613578, Note_on_c, 0, 74, 0
2, 613582, Note_on_c, 0, 74, 62
2, 613779, Note_on_c, 0, 72, 63
2, 613885, Note_on_c, 0, 55, 0
2, 613896, Note_on_c, 0, 55, 37
2, 613943, Note_on_c, 0, 62, 53
2, 613994, Control_c, 0, 64, 0
2, 613996, Note_on_c, 0, 84, 0
2, 613996, Note_on_c, 0, 63, 0
2, 613996, Note_on_c, 0, 87, 0
2, 613996, Note_on_c, 0, 75, 0
2, 613997, Note_on_c, 0, 79, 0
2, 613997, Note_on_c, 0, 81, 0
2, 613997, Note_on_c, 0, 78, 0
2, 613997, Note_on_c, 0, 86, 0
2, 613997, Note_on_c, 0, 72, 0
2, 613998, Note_on_c, 0, 60, 0
2, 614000, Note_on_c, 0, 91, 0
2, 614016, Note_on_c, 0, 74, 0
2, 614020, Note_on_c, 0, 74, 66
2, 614023, Note_on_c, 0, 57, 0
2, 614080, Note_on_c, 0, 78, 48
2, 614192, Control_c, 0, 64, 127
2, 614207, Note_on_c, 0, 71, 46
2, 614208, Note_on_c, 0, 78, 0
2, 614360, Note_on_c, 0, 69, 51
2, 614538, Note_on_c, 0, 71, 0
2, 614549, Note_on_c, 0, 71, 50
2, 614727, Note_on_c, 0, 67, 51
2, 614745, Note_on_c, 0, 55, 0
2, 614750, Note_on_c, 0, 55, 26
2, 614914, Note_on_c, 0, 74, 0
2, 614919, Note_on_c, 0, 74, 63
2, 615141, Note_on_c, 0, 79, 60
2, 615379, Note_on_c, 0, 86, 54
2, 615444, Control_c, 0, 64, 0
2, 615687, Note_on_c, 0, 91, 46
2, 615905, Control_c, 0, 64, 127
2, 616320, Note_on_c, 0, 62, 0
2, 618270, Note_on_c, 0, 74, 0
2, 618276, Note_on_c, 0, 74, 91
2, 618313, Control_c, 0, 64, 0
2, 618332, Note_on_c, 0, 67, 0
2, 618334, Note_on_c, 0, 55, 0
2, 618336, Note_on_c, 0, 79, 0
2, 618338, Note_on_c, 0, 91, 0
2, 618470, Note_on_c, 0, 69, 0
2, 618470, Note_on_c, 0, 71, 0
2, 618593, Control_c, 0, 64, 127
2, 618723, Note_on_c, 0, 86, 0
2, 618729, Note_on_c, 0, 86, 98
2, 618816, Control_c, 0, 64, 0
2, 618908, Control_c, 0, 64, 127
2, 619079, Note_on_c, 0, 84, 92
2, 619223, Note_on_c, 0, 74, 0
2, 619228, Note_on_c, 0, 74, 75
2, 619305, Note_on_c, 0, 79, 74
2, 619360, Note_on_c, 0, 82, 85
2, 619384, Note_on_c, 0, 84, 0
2, 619386, Control_c, 0, 64, 0
2, 619407, Note_on_c, 0, 86, 0
2, 619417, Note_on_c, 0, 55, 89
2, 619418, Note_on_c, 0, 43, 85
2, 619418, Note_on_c, 0, 86, 98
2, 619484, Note_on_c, 0, 79, 0
2, 619514, Control_c, 0, 64, 127
2, 619660, Control_c, 0, 64, 0
2, 619683, Note_on_c, 0, 74, 0
2, 619699, Note_on_c, 0, 82, 0
2, 619701, Note_on_c, 0, 67, 65
2, 619705, Note_on_c, 0, 70, 77
2, 619706, Note_on_c, 0, 82, 93
2, 619706, Note_on_c, 0, 58, 75
2, 619708, Note_on_c, 0, 62, 59
2, 619737, Note_on_c, 0, 86, 0
2, 619739, Note_on_c, 0, 67, 0
2, 619746, Note_on_c, 0, 58, 0
2, 619747, Note_on_c, 0, 62, 0
2, 619752, Note_on_c, 0, 55, 0
2, 619760, Note_on_c, 0, 43, 0
2, 619776, Note_on_c, 0, 70, 0
2, 619835, Note_on_c, 0, 81, 79
2, 619948, Note_on_c, 0, 81, 0
2, 619952, Note_on_c, 0, 82, 0
2, 619972, Note_on_c, 0, 38, 81
2, 620000, Note_on_c, 0, 79, 80
2, 620009, Note_on_c, 0, 38, 0
2, 620125, Note_on_c, 0, 74, 73
2, 620149, Note_on_c, 0, 79, 0
2, 620213, Note_on_c, 0, 74, 0
2, 620237, Note_on_c, 0, 67, 70
2, 620249, Note_on_c, 0, 62, 47
2, 620254, Note_on_c, 0, 58, 69
2, 620255, Note_on_c, 0, 85, 93
2, 620256, Note_on_c, 0, 73, 87
2, 620282, Control_c, 0, 64, 127
2, 620392, Note_on_c, 0, 88, 87
2, 620393, Note_on_c, 0, 74, 67
2, 620413, Note_on_c, 0, 67, 0
2, 620425, Note_on_c, 0, 85, 0
2, 620428, Note_on_c, 0, 73, 0
2, 620428, Note_on_c, 0, 62, 0
2, 620429, Control_c, 0, 64, 0
2, 620429, Note_on_c, 0, 88, 0
2, 620436, Note_on_c, 0, 58, 0
2, 620444, Note_on_c, 0, 74, 0
2, 620517, Note_on_c, 0, 43, 80
2, 620524, Note_on_c, 0, 55, 67
2, 620525, Note_on_c, 0, 91, 97
2, 620525, Note_on_c, 0, 50, 57
2, 620539, Note_on_c, 0, 79, 85
2, 620547, Note_on_c, 0, 82, 79
2, 620559, Control_c, 0, 64, 127
2, 620574, Note_on_c, 0, 50, 0
2, 620574, Note_on_c, 0, 55, 0
2, 620786, Note_on_c, 0, 62, 77
2, 620790, Note_on_c, 0, 67, 74
2, 620791, Note_on_c, 0, 58, 76
2, 620795, Note_on_c, 0, 55, 67
2, 620889, Note_on_c, 0, 58, 0
2, 620900, Note_on_c, 0, 58, 82
2, 620911, Control_c, 0, 64, 0
2, 620919, Note_on_c, 0, 67, 0
2, 620923, Note_on_c, 0, 91, 0
2, 620923, Note_on_c, 0, 43, 0
2, 620923, Note_on_c, 0, 55, 0
2, 620923, Note_on_c, 0, 62, 0
2, 620925, Note_on_c, 0, 89, 97
2, 620926, Note_on_c, 0, 58, 0
2, 620928, Note_on_c, 0, 82, 0
2, 620937, Note_on_c, 0, 77, 84
2, 620938, Note_on_c, 0, 82, 86
2, 620966, Note_on_c, 0, 79, 0
2, 621056, Note_on_c, 0, 50, 84
2, 621056, Note_on_c, 0, 38, 88
2, 621081, Control_c, 0, 64, 127
2, 621305, Note_on_c, 0, 58, 85
2, 621306, Note_on_c, 0, 75, 87
2, 621307, Note_on_c, 0, 87, 89
2, 621308, Note_on_c, 0, 67, 66
2, 621310, Note_on_c, 0, 55, 66
2, 621431, Note_on_c, 0, 74, 78
2, 621495, Note_on_c, 0, 79, 72
2, 621519, Note_on_c, 0, 82, 0
2, 621529, Note_on_c, 0, 67, 0
2, 621529, Note_on_c, 0, 82, 76
2, 621529, Note_on_c, 0, 87, 0
2, 621530, Control_c, 0, 64, 0
2, 621530, Note_on_c, 0, 50, 0
2, 621530, Note_on_c, 0, 74, 0
2, 621530, Note_on_c, 0, 75, 0
2, 621530, Note_on_c, 0, 58, 0
2, 621534, Note_on_c, 0, 38, 0
2, 621534, Note_on_c, 0, 55, 0
2, 621542, Note_on_c, 0, 89, 0
2, 621550, Note_on_c, 0, 77, 0
2, 621585, Note_on_c, 0, 43, 87
2, 621587, Note_on_c, 0, 55, 89
2, 621588, Note_on_c, 0, 86, 95
2, 621589, Note_on_c, 0, 83, 85
2, 621619, Note_on_c, 0, 55, 0
2, 621649, Note_on_c, 0, 43, 0
2, 621665, Note_on_c, 0, 83, 0
2, 621703, Note_on_c, 0, 79, 0
2, 621841, Note_on_c, 0, 82, 0
2, 621841, Note_on_c, 0, 86, 0
2, 621844, Note_on_c, 0, 58, 85
2, 621845, Note_on_c, 0, 67, 74
2, 621847, Note_on_c, 0, 62, 58
2, 621847, Note_on_c, 0, 82, 93
2, 621847, Note_on_c, 0, 70, 75
2, 621850, Note_on_c, 0, 94, 84
2, 621850, Note_on_c, 0, 86, 73
2, 621857, Note_on_c, 0, 70, 0
2, 621857, Note_on_c, 0, 94, 0
2, 621873, Note_on_c, 0, 67, 0
2, 621875, Note_on_c, 0, 58, 0
2, 621911, Note_on_c, 0, 62, 0
2, 621970, Note_on_c, 0, 81, 80
2, 621972, Note_on_c, 0, 86, 0
2, 622092, Note_on_c, 0, 38, 82
2, 622098, Note_on_c, 0, 50, 71
2, 622118, Note_on_c, 0, 82, 0
2, 622120, Note_on_c, 0, 79, 78
2, 622133, Control_c, 0, 64, 127
2, 622243, Note_on_c, 0, 74, 72
2, 622344, Note_on_c, 0, 58, 78
2, 622346, Note_on_c, 0, 67, 69
2, 622355, Note_on_c, 0, 85, 92
2, 622357, Note_on_c, 0, 73, 81
2, 622479, Note_on_c, 0, 74, 0
2, 622483, Note_on_c, 0, 86, 88
2, 622486, Note_on_c, 0, 74, 70
2, 622548, Note_on_c, 0, 81, 0
2, 622554, Control_c, 0, 64, 0
2, 622554, Note_on_c, 0, 67, 0
2, 622556, Note_on_c, 0, 50, 0
2, 622556, Note_on_c, 0, 74, 0
2, 622556, Note_on_c, 0, 79, 0
2, 622556, Note_on_c, 0, 58, 0
2, 622557, Note_on_c, 0, 73, 0
2, 622557, Note_on_c, 0, 85, 0
2, 622558, Note_on_c, 0, 86, 0
2, 622563, Note_on_c, 0, 38, 0
2, 622615, Note_on_c, 0, 86, 93
2, 622619, Note_on_c, 0, 83, 80
2, 622620, Note_on_c, 0, 55, 87
2, 622620, Note_on_c, 0, 43, 84
2, 622620, Note_on_c, 0, 74, 85
2, 622663, Control_c, 0, 64, 127
2, 622881, Note_on_c, 0, 67, 78
2, 622882, Note_on_c, 0, 62, 70
2, 622888, Note_on_c, 0, 58, 71
2, 622940, Note_on_c, 0, 43, 0
2, 623016, Note_on_c, 0, 55, 0
2, 623016, Note_on_c, 0, 58, 0
2, 623020, Note_on_c, 0, 55, 74
2, 623026, Note_on_c, 0, 58, 60
2, 623171, Note_on_c, 0, 84, 102
2, 623171, Note_on_c, 0, 72, 96
2, 623278, Note_on_c, 0, 55, 0
2, 623286, Note_on_c, 0, 55, 85
2, 623289, Note_on_c, 0, 43, 67
2, 623416, Note_on_c, 0, 58, 0
2, 623421, Note_on_c, 0, 58, 76
2, 623424, Note_on_c, 0, 83, 0
2, 623427, Note_on_c, 0, 83, 101
2, 623433, Note_on_c, 0, 71, 83
2, 623640, Note_on_c, 0, 62, 0
2, 623640, Note_on_c, 0, 67, 0
2, 623641, Note_on_c, 0, 72, 0
2, 623641, Note_on_c, 0, 74, 0
2, 623641, Note_on_c, 0, 84, 0
2, 623641, Note_on_c, 0, 71, 0
2, 623641, Note_on_c, 0, 83, 0
2, 623641, Note_on_c, 0, 58, 0
2, 623642, Note_on_c, 0, 43, 0
2, 623642, Note_on_c, 0, 86, 0
2, 623643, Control_c, 0, 64, 0
2, 623654, Note_on_c, 0, 55, 0
2, 623690, Note_on_c, 0, 84, 100
2, 623693, Note_on_c, 0, 72, 95
2, 623694, Note_on_c, 0, 57, 90
2, 623695, Note_on_c, 0, 45, 88
2, 623727, Note_on_c, 0, 45, 0
2, 623727, Note_on_c, 0, 57, 0
2, 623746, Control_c, 0, 64, 127
2, 623944, Note_on_c, 0, 57, 72
2, 623944, Note_on_c, 0, 62, 75
2, 623945, Note_on_c, 0, 81, 82
2, 623947, Note_on_c, 0, 69, 70
2, 623948, Note_on_c, 0, 60, 68
2, 623973, Control_c, 0, 64, 0
2, 623981, Note_on_c, 0, 57, 0
2, 623982, Note_on_c, 0, 84, 0
2, 623984, Note_on_c, 0, 72, 0
2, 623986, Note_on_c, 0, 62, 0
2, 623987, Note_on_c, 0, 60, 0
2, 624070, Note_on_c, 0, 79, 80
2, 624145, Note_on_c, 0, 69, 0
2, 624195, Note_on_c, 0, 50, 76
2, 624195, Note_on_c, 0, 38, 85
2, 624211, Note_on_c, 0, 78, 65
2, 624245, Control_c, 0, 64, 127
2, 624320, Note_on_c, 0, 74, 85
2, 624395, Control_c, 0, 64, 0
2, 624448, Note_on_c, 0, 62, 76
2, 624448, Note_on_c, 0, 57, 81
2, 624449, Note_on_c, 0, 60, 74
2, 624450, Note_on_c, 0, 83, 95
2, 624450, Note_on_c, 0, 71, 85
2, 624460, Control_c, 0, 64, 127
2, 624573, Note_on_c, 0, 84, 95
2, 624573, Note_on_c, 0, 72, 93
2, 624607, Control_c, 0, 64, 0
2, 624607, Note_on_c, 0, 74, 0
2, 624607, Note_on_c, 0, 71, 0
2, 624608, Note_on_c, 0, 78, 0
2, 624609, Note_on_c, 0, 62, 0
2, 624609, Note_on_c, 0, 57, 0
2, 624609, Note_on_c, 0, 83, 0
2, 624610, Note_on_c, 0, 72, 0
2, 624611, Note_on_c, 0, 84, 0
2, 624614, Note_on_c, 0, 38, 0
2, 624614, Note_on_c, 0, 50, 0
2, 624614, Note_on_c, 0, 79, 0
2, 624622, Note_on_c, 0, 81, 0
2, 624637, Note_on_c, 0, 60, 0
2, 624704, Note_on_c, 0, 57, 84
2, 624709, Note_on_c, 0, 89, 97
2, 624710, Note_on_c, 0, 45, 77
2, 624712, Note_on_c, 0, 77, 87
2, 624775, Control_c, 0, 64, 127
2, 624936, Note_on_c, 0, 57, 0
2, 624946, Note_on_c, 0, 62, 85
2, 624947, Note_on_c, 0, 57, 80
2, 624947, Note_on_c, 0, 69, 72
2, 624949, Note_on_c, 0, 60, 71
2, 625076, Note_on_c, 0, 87, 99
2, 625086, Note_on_c, 0, 75, 87
2, 625090, Note_on_c, 0, 79, 78
2, 625098, Note_on_c, 0, 45, 0
2, 625135, Control_c, 0, 64, 0
2, 625138, Note_on_c, 0, 62, 0
2, 625138, Note_on_c, 0, 77, 0
2, 625138, Note_on_c, 0, 89, 0
2, 625139, Note_on_c, 0, 60, 0
2, 625152, Note_on_c, 0, 57, 0
2, 625152, Note_on_c, 0, 69, 0
2, 625204, Note_on_c, 0, 38, 66
2, 625236, Control_c, 0, 64, 127
2, 625319, Note_on_c, 0, 72, 84
2, 625442, Note_on_c, 0, 84, 93
2, 625446, Note_on_c, 0, 81, 74
2, 625446, Note_on_c, 0, 57, 75
2, 625447, Note_on_c, 0, 62, 60
2, 625448, Note_on_c, 0, 60, 60
2, 625451, Note_on_c, 0, 81, 0
2, 625620, Note_on_c, 0, 86, 60
2, 625663, Control_c, 0, 64, 0
2, 625664, Note_on_c, 0, 86, 0
2, 625664, Note_on_c, 0, 38, 0
2, 625664, Note_on_c, 0, 79, 0
2, 625665, Note_on_c, 0, 57, 0
2, 625665, Note_on_c, 0, 75, 0
2, 625666, Note_on_c, 0, 84, 0
2, 625666, Note_on_c, 0, 72, 0
2, 625674, Note_on_c, 0, 87, 0
2, 625681, Note_on_c, 0, 60, 0
2, 625689, Note_on_c, 0, 62, 0
2, 625707, Note_on_c, 0, 85, 102
2, 625708, Note_on_c, 0, 55, 92
2, 625710, Note_on_c, 0, 43, 85
2, 625712, Note_on_c, 0, 73, 91
2, 625766, Control_c, 0, 64, 127
2, 625943, Note_on_c, 0, 43, 0
2, 625954, Note_on_c, 0, 86, 98
2, 625962, Note_on_c, 0, 67, 71
2, 625962, Note_on_c, 0, 74, 85
2, 625970, Note_on_c, 0, 58, 75
2, 626088, Note_on_c, 0, 82, 89
2, 626162, Control_c, 0, 64, 0
2, 626162, Note_on_c, 0, 55, 0
2, 626162, Note_on_c, 0, 58, 0
2, 626162, Note_on_c, 0, 73, 0
2, 626163, Note_on_c, 0, 74, 0
2, 626163, Note_on_c, 0, 86, 0
2, 626163, Note_on_c, 0, 85, 0
2, 626188, Note_on_c, 0, 67, 0
2, 626201, Note_on_c, 0, 50, 81
2, 626201, Note_on_c, 0, 38, 83
2, 626207, Note_on_c, 0, 81, 81
2, 626265, Control_c, 0, 64, 127
2, 626349, Note_on_c, 0, 79, 81
2, 626440, Note_on_c, 0, 58, 75
2, 626445, Note_on_c, 0, 74, 83
2, 626445, Note_on_c, 0, 67, 59
2, 626554, Note_on_c, 0, 70, 76
2, 626615, Note_on_c, 0, 69, 73
2, 626657, Note_on_c, 0, 67, 0
2, 626662, Note_on_c, 0, 67, 66
2, 626674, Note_on_c, 0, 81, 0
2, 626674, Note_on_c, 0, 74, 0
2, 626674, Note_on_c, 0, 79, 0
2, 626675, Note_on_c, 0, 82, 0
2, 626675, Control_c, 0, 64, 0
2, 626675, Note_on_c, 0, 70, 0
2, 626675, Note_on_c, 0, 69, 0
2, 626675, Note_on_c, 0, 50, 0
2, 626677, Note_on_c, 0, 38, 0
2, 626688, Note_on_c, 0, 58, 0
2, 626719, Note_on_c, 0, 55, 88
2, 626721, Note_on_c, 0, 43, 87
2, 626741, Note_on_c, 0, 67, 0
2, 626895, Note_on_c, 0, 55, 0
2, 626926, Note_on_c, 0, 43, 0
2, 626995, Note_on_c, 0, 71, 82
2, 627041, Note_on_c, 0, 71, 0
2, 627259, Note_on_c, 0, 74, 85
2, 627261, Note_on_c, 0, 71, 77
2, 627268, Note_on_c, 0, 62, 68
2, 627274, Note_on_c, 0, 67, 72
2, 627274, Note_on_c, 0, 65, 68
2, 627276, Note_on_c, 0, 59, 71
2, 627356, Control_c, 0, 64, 127
2, 627506, Note_on_c, 0, 55, 77
2, 627511, Note_on_c, 0, 77, 82
2, 627755, Note_on_c, 0, 74, 0
2, 627765, Note_on_c, 0, 78, 90
2, 627766, Note_on_c, 0, 74, 67
2, 627774, Control_c, 0, 64, 0
2, 627774, Note_on_c, 0, 55, 0
2, 627775, Note_on_c, 0, 62, 0
2, 627775, Note_on_c, 0, 65, 0
2, 627775, Note_on_c, 0, 71, 0
2, 627776, Note_on_c, 0, 67, 0
2, 627777, Note_on_c, 0, 77, 0
2, 627777, Note_on_c, 0, 59, 0
2, 627781, Note_on_c, 0, 76, 73
2, 627782, Note_on_c, 0, 70, 73
2, 627786, Note_on_c, 0, 76, 0
2, 627787, Note_on_c, 0, 48, 78
2, 627924, Control_c, 0, 64, 127
2, 628012, Note_on_c, 0, 67, 78
2, 628014, Note_on_c, 0, 55, 76
2, 628155, Note_on_c, 0, 79, 92
2, 628157, Note_on_c, 0, 63, 76
2, 628293, Note_on_c, 0, 48, 0
2, 628299, Note_on_c, 0, 48, 87
2, 628299, Note_on_c, 0, 69, 84
2, 628546, Note_on_c, 0, 78, 0
2, 628554, Note_on_c, 0, 55, 0
2, 628557, Note_on_c, 0, 78, 84
2, 628558, Note_on_c, 0, 55, 82
2, 628677, Note_on_c, 0, 79, 0
2, 628683, Note_on_c, 0, 79, 85
2, 628766, Control_c, 0, 64, 0
2, 628767, Note_on_c, 0, 69, 0
2, 628767, Note_on_c, 0, 48, 0
2, 628767, Note_on_c, 0, 55, 0
2, 628768, Note_on_c, 0, 67, 0
2, 628770, Note_on_c, 0, 63, 0
2, 628776, Note_on_c, 0, 70, 0
2, 628784, Note_on_c, 0, 74, 0
2, 628792, Note_on_c, 0, 78, 0
2, 628800, Note_on_c, 0, 79, 0
2, 628818, Note_on_c, 0, 41, 83
2, 628819, Note_on_c, 0, 81, 96
2, 628828, Note_on_c, 0, 71, 84
2, 628834, Note_on_c, 0, 75, 75
2, 628884, Control_c, 0, 64, 127
2, 629064, Note_on_c, 0, 53, 70
2, 629176, Note_on_c, 0, 75, 0
2, 629178, Note_on_c, 0, 79, 90
2, 629186, Note_on_c, 0, 72, 80
2, 629186, Note_on_c, 0, 75, 81
2, 629340, Note_on_c, 0, 57, 63
2, 629341, Note_on_c, 0, 63, 88
2, 629345, Note_on_c, 0, 60, 76
2, 629568, Note_on_c, 0, 53, 0
2, 629576, Note_on_c, 0, 53, 74
2, 629599, Note_on_c, 0, 73, 88
2, 629818, Control_c, 0, 64, 0
2, 629820, Note_on_c, 0, 63, 0
2, 629821, Note_on_c, 0, 75, 0
2, 629821, Note_on_c, 0, 73, 0
2, 629821, Note_on_c, 0, 71, 0
2, 629821, Note_on_c, 0, 41, 0
2, 629822, Note_on_c, 0, 60, 0
2, 629829, Note_on_c, 0, 57, 0
2, 629829, Note_on_c, 0, 79, 0
2, 629829, Note_on_c, 0, 81, 0
2, 629835, Note_on_c, 0, 74, 91
2, 629836, Note_on_c, 0, 53, 0
2, 629844, Note_on_c, 0, 72, 0
2, 629846, Note_on_c, 0, 46, 77
2, 629936, Control_c, 0, 64, 127
2, 630087, Note_on_c, 0, 69, 81
2, 630093, Note_on_c, 0, 62, 75
2, 630095, Note_on_c, 0, 57, 70
2, 630220, Note_on_c, 0, 77, 96
2, 630224, Note_on_c, 0, 53, 77
2, 630351, Note_on_c, 0, 46, 0
2, 630355, Note_on_c, 0, 46, 85
2, 630581, Note_on_c, 0, 62, 0
2, 630587, Note_on_c, 0, 76, 86
2, 630589, Note_on_c, 0, 57, 0
2, 630590, Note_on_c, 0, 62, 72
2, 630597, Note_on_c, 0, 57, 65
2, 630666, Note_on_c, 0, 53, 0
2, 630674, Note_on_c, 0, 53, 70
2, 630704, Note_on_c, 0, 77, 0
2, 630715, Note_on_c, 0, 77, 85
2, 630789, Note_on_c, 0, 46, 0
2, 630790, Note_on_c, 0, 74, 0
2, 630791, Note_on_c, 0, 76, 0
2, 630791, Note_on_c, 0, 69, 0
2, 630792, Note_on_c, 0, 62, 0
2, 630792, Note_on_c, 0, 53, 0
2, 630792, Note_on_c, 0, 57, 0
2, 630792, Control_c, 0, 64, 0
2, 630846, Note_on_c, 0, 39, 86
2, 630853, Note_on_c, 0, 79, 90
2, 630861, Note_on_c, 0, 74, 86
2, 630867, Note_on_c, 0, 70, 78
2, 630919, Control_c, 0, 64, 127
2, 631131, Note_on_c, 0, 51, 70
2, 631242, Note_on_c, 0, 77, 0
2, 631252, Note_on_c, 0, 77, 91
2, 631257, Note_on_c, 0, 70, 0
2, 631262, Note_on_c, 0, 70, 75
2, 631385, Note_on_c, 0, 58, 84
2, 631385, Note_on_c, 0, 62, 79
2, 631641, Note_on_c, 0, 74, 0
2, 631646, Note_on_c, 0, 74, 92
2, 631874, Control_c, 0, 64, 0
2, 631875, Note_on_c, 0, 39, 0
2, 631875, Note_on_c, 0, 51, 0
2, 631876, Note_on_c, 0, 58, 0
2, 631876, Note_on_c, 0, 70, 0
2, 631876, Note_on_c, 0, 79, 0
2, 631876, Note_on_c, 0, 62, 0
2, 631877, Note_on_c, 0, 77, 0
2, 631878, Note_on_c, 0, 74, 0
2, 631895, Note_on_c, 0, 73, 93
2, 631908, Note_on_c, 0, 67, 74
2, 631912, Note_on_c, 0, 64, 68
2, 631914, Note_on_c, 0, 55, 83
2, 631914, Note_on_c, 0, 45, 76
2, 631918, Note_on_c, 0, 64, 0
2, 631979, Control_c, 0, 64, 127
2, 632142, Note_on_c, 0, 52, 65
2, 632286, Note_on_c, 0, 67, 0
2, 632293, Note_on_c, 0, 74, 93
2, 632297, Note_on_c, 0, 67, 80
2, 632416, Note_on_c, 0, 64, 78
2, 632523, Note_on_c, 0, 61, 73
2, 632647, Note_on_c, 0, 55, 0
2, 632652, Note_on_c, 0, 55, 82
2, 632657, Note_on_c, 0, 76, 91
2, 632903, Control_c, 0, 64, 0
2, 632905, Note_on_c, 0, 73, 0
2, 632905, Note_on_c, 0, 74, 0
2, 632905, Note_on_c, 0, 67, 0
2, 632905, Note_on_c, 0, 52, 0
2, 632905, Note_on_c, 0, 61, 0
2, 632905, Note_on_c, 0, 76, 0
2, 632906, Note_on_c, 0, 55, 0
2, 632906, Note_on_c, 0, 64, 0
2, 632906, Note_on_c, 0, 45, 0
2, 632928, Note_on_c, 0, 79, 93
2, 632928, Note_on_c, 0, 38, 90
2, 632928, Note_on_c, 0, 50, 82
2, 632932, Note_on_c, 0, 72, 90
2, 632934, Note_on_c, 0, 69, 85
2, 632993, Control_c, 0, 64, 127
2, 633200, Note_on_c, 0, 50, 0
2, 633205, Note_on_c, 0, 50, 76
2, 633327, Note_on_c, 0, 60, 74
2, 633475, Note_on_c, 0, 78, 98
2, 633477, Note_on_c, 0, 72, 0
2, 633481, Note_on_c, 0, 72, 79
2, 633487, Note_on_c, 0, 66, 79
2, 633694, Note_on_c, 0, 57, 65
2, 633936, Control_c, 0, 64, 0
2, 633942, Note_on_c, 0, 69, 0
2, 633942, Note_on_c, 0, 79, 0
2, 633942, Note_on_c, 0, 50, 0
2, 633942, Note_on_c, 0, 78, 0
2, 633942, Note_on_c, 0, 60, 0
2, 633942, Note_on_c, 0, 72, 0
2, 633942, Note_on_c, 0, 57, 0
2, 633943, Note_on_c, 0, 66, 0
2, 633945, Note_on_c, 0, 38, 0
2, 633980, Note_on_c, 0, 36, 89
2, 633981, Note_on_c, 0, 76, 94
2, 633981, Note_on_c, 0, 70, 87
2, 634018, Note_on_c, 0, 36, 0
2, 634037, Control_c, 0, 64, 127
2, 634234, Note_on_c, 0, 48, 57
2, 634245, Note_on_c, 0, 48, 0
2, 634359, Note_on_c, 0, 78, 95
2, 634360, Note_on_c, 0, 70, 0
2, 634365, Note_on_c, 0, 64, 86
2, 634367, Note_on_c, 0, 70, 83
2, 634625, Note_on_c, 0, 60, 82
2, 634734, Control_c, 0, 64, 0
2, 634754, Note_on_c, 0, 79, 96
2, 634757, Note_on_c, 0, 70, 0
2, 634758, Note_on_c, 0, 72, 85
2, 634759, Note_on_c, 0, 76, 0
2, 634763, Note_on_c, 0, 76, 71
2, 634763, Note_on_c, 0, 55, 84
2, 634767, Control_c, 0, 64, 127
2, 634847, Note_on_c, 0, 52, 79
2, 635009, Note_on_c, 0, 52, 0
2, 635009, Control_c, 0, 64, 0
2, 635010, Note_on_c, 0, 55, 0
2, 635020, Note_on_c, 0, 64, 0
2, 635020, Note_on_c, 0, 78, 0
2, 635025, Note_on_c, 0, 82, 103
2, 635028, Note_on_c, 0, 60, 0
2, 635036, Note_on_c, 0, 38, 89
2, 635036, Note_on_c, 0, 72, 0
2, 635036, Note_on_c, 0, 76, 0
2, 635036, Note_on_c, 0, 79, 0
2, 635040, Note_on_c, 0, 72, 88
2, 635041, Note_on_c, 0, 79, 74
2, 635045, Note_on_c, 0, 76, 77
2, 635182, Control_c, 0, 64, 127
2, 635307, Note_on_c, 0, 50, 73
2, 635512, Note_on_c, 0, 50, 0
2, 635523, Note_on_c, 0, 50, 45
2, 635569, Note_on_c, 0, 81, 94
2, 635575, Control_c, 0, 64, 0
2, 635579, Note_on_c, 0, 78, 80
2, 635587, Note_on_c, 0, 69, 65
2, 635589, Note_on_c, 0, 38, 0
2, 635593, Note_on_c, 0, 74, 74
2, 635593, Note_on_c, 0, 57, 61
2, 635611, Note_on_c, 0, 76, 0
2, 635665, Note_on_c, 0, 72, 0
2, 635665, Control_c, 0, 64, 127
2, 635673, Note_on_c, 0, 82, 0
2, 635727, Note_on_c, 0, 79, 0
2, 635884, Note_on_c, 0, 62, 60
2, 636194, Note_on_c, 0, 66, 57
2, 636549, Note_on_c, 0, 50, 0
2, 636553, Note_on_c, 0, 50, 35
2, 637896, Control_c, 0, 64, 0
2, 637908, Note_on_c, 0, 69, 0
2, 637911, Note_on_c, 0, 50, 0
2, 637912, Note_on_c, 0, 81, 0
2, 637914, Note_on_c, 0, 74, 0
2, 637915, Note_on_c, 0, 66, 0
2, 637917, Note_on_c, 0, 78, 0
2, 637926, Note_on_c, 0, 71, 73
2, 637931, Note_on_c, 0, 57, 0
2, 637931, Note_on_c, 0, 62, 0
2, 637941, Note_on_c, 0, 62, 66
2, 638036, Note_on_c, 0, 72, 81
2, 638039, Note_on_c, 0, 71, 0
2, 638071, Note_on_c, 0, 64, 63
2, 638077, Control_c, 0, 64, 127
2, 638154, Note_on_c, 0, 62, 0
2, 638162, Note_on_c, 0, 71, 77
2, 638193, Note_on_c, 0, 62, 62
2, 638306, Note_on_c, 0, 69, 73
2, 638326, Note_on_c, 0, 60, 50
2, 638346, Control_c, 0, 64, 0
2, 638360, Note_on_c, 0, 72, 0
2, 638364, Note_on_c, 0, 71, 0
2, 638365, Note_on_c, 0, 64, 0
2, 638370, Note_on_c, 0, 60, 0
2, 638376, Note_on_c, 0, 62, 0
2, 638415, Control_c, 0, 64, 127
2, 638430, Control_c, 0, 64, 0
2, 638450, Note_on_c, 0, 67, 79
2, 638467, Note_on_c, 0, 43, 54
2, 638471, Note_on_c, 0, 59, 62
2, 638484, Note_on_c, 0, 69, 0
2, 638722, Control_c, 0, 64, 127
2, 638725, Note_on_c, 0, 50, 54
2, 638999, Note_on_c, 0, 59, 0
2, 639001, Note_on_c, 0, 62, 76
2, 639004, Note_on_c, 0, 59, 67
2, 639010, Note_on_c, 0, 67, 0
2, 639012, Control_c, 0, 64, 0
2, 639114, Control_c, 0, 64, 127
2, 639153, Note_on_c, 0, 60, 69
2, 639260, Note_on_c, 0, 59, 0
2, 639271, Note_on_c, 0, 59, 64
2, 639421, Note_on_c, 0, 57, 56
2, 639571, Control_c, 0, 64, 0
2, 639572, Note_on_c, 0, 59, 0
2, 639573, Note_on_c, 0, 57, 0
2, 639573, Note_on_c, 0, 60, 0
2, 639578, Note_on_c, 0, 55, 52
2, 639598, Note_on_c, 0, 50, 0
2, 639767, Control_c, 0, 64, 127
2, 640151, Note_on_c, 0, 62, 0
2, 640157, Control_c, 0, 64, 0
2, 640159, Note_on_c, 0, 62, 69
2, 640162, Note_on_c, 0, 50, 58
2, 640212, Control_c, 0, 64, 127
2, 640287, Note_on_c, 0, 67, 76
2, 640414, Note_on_c, 0, 71, 72
2, 640533, Note_on_c, 0, 76, 79
2, 640665, Note_on_c, 0, 55, 0
2, 640682, Note_on_c, 0, 50, 0
2, 640683, Note_on_c, 0, 71, 0
2, 640683, Control_c, 0, 64, 0
2, 640683, Note_on_c, 0, 62, 0
2, 640683, Note_on_c, 0, 67, 0
2, 640684, Note_on_c, 0, 76, 0
2, 640688, Note_on_c, 0, 38, 63
2, 640690, Note_on_c, 0, 73, 82
2, 640696, Note_on_c, 0, 43, 0
2, 640707, Note_on_c, 0, 65, 58
2, 640849, Control_c, 0, 64, 127
2, 640959, Note_on_c, 0, 45, 34
2, 641229, Note_on_c, 0, 74, 85
2, 641246, Note_on_c, 0, 50, 64
2, 641254, Note_on_c, 0, 66, 59
2, 641262, Control_c, 0, 64, 0
2, 641271, Note_on_c, 0, 65, 0
2, 641272, Note_on_c, 0, 73, 0
2, 641272, Note_on_c, 0, 38, 0
2, 641295, Note_on_c, 0, 45, 0
2, 641387, Control_c, 0, 64, 127
2, 641396, Note_on_c, 0, 55, 62
2, 641517, Note_on_c, 0, 59, 71
2, 641652, Note_on_c, 0, 64, 77
2, 641810, Note_on_c, 0, 58, 65
2, 641810, Note_on_c, 0, 61, 58
2, 641812, Control_c, 0, 64, 0
2, 641821, Note_on_c, 0, 59, 0
2, 641986, Control_c, 0, 64, 127
2, 642001, Note_on_c, 0, 66, 0
2, 642355, Note_on_c, 0, 74, 0
2, 642403, Note_on_c, 0, 58, 0
2, 642403, Note_on_c, 0, 64, 0
2, 642404, Note_on_c, 0, 61, 0
2, 642404, Note_on_c, 0, 76, 88
2, 642406, Note_on_c, 0, 59, 59
2, 642406, Control_c, 0, 64, 0
2, 642406, Note_on_c, 0, 62, 66
2, 642408, Note_on_c, 0, 55, 0
2, 642508, Control_c, 0, 64, 127
2, 642547, Note_on_c, 0, 59, 0
2, 642669, Note_on_c, 0, 78, 86
2, 642794, Note_on_c, 0, 67, 68
2, 642873, Note_on_c, 0, 71, 73
2, 642926, Control_c, 0, 64, 0
2, 642928, Note_on_c, 0, 76, 0
2, 642930, Note_on_c, 0, 78, 0
2, 642952, Note_on_c, 0, 40, 75
2, 642954, Note_on_c, 0, 62, 0
2, 642958, Note_on_c, 0, 79, 92
2, 642969, Note_on_c, 0, 50, 0
2, 643031, Control_c, 0, 64, 127
2, 643254, Note_on_c, 0, 55, 60
2, 643257, Note_on_c, 0, 59, 60
2, 643522, Note_on_c, 0, 59, 0
2, 643526, Note_on_c, 0, 61, 77
2, 643530, Note_on_c, 0, 59, 62
2, 643798, Note_on_c, 0, 62, 78
2, 643799, Note_on_c, 0, 71, 0
2, 643804, Note_on_c, 0, 71, 85
2, 644090, Note_on_c, 0, 55, 0
2, 644093, Note_on_c, 0, 73, 88
2, 644094, Note_on_c, 0, 45, 73
2, 644098, Note_on_c, 0, 67, 0
2, 644100, Note_on_c, 0, 57, 74
2, 644101, Note_on_c, 0, 55, 71
2, 644102, Note_on_c, 0, 69, 71
2, 644102, Note_on_c, 0, 67, 73
2, 644121, Control_c, 0, 64, 0
2, 644124, Note_on_c, 0, 59, 0
2, 644125, Note_on_c, 0, 62, 0
2, 644125, Note_on_c, 0, 61, 0
2, 644125, Note_on_c, 0, 71, 0
2, 644136, Note_on_c, 0, 40, 0
2, 644144, Note_on_c, 0, 79, 0
2, 644313, Note_on_c, 0, 55, 0
2, 644352, Control_c, 0, 64, 127
2, 644356, Note_on_c, 0, 52, 64
2, 644503, Note_on_c, 0, 74, 72
2, 644567, Note_on_c, 0, 73, 0
2, 644572, Note_on_c, 0, 73, 69
2, 644629, Note_on_c, 0, 71, 87
2, 644641, Note_on_c, 0, 59, 74
2, 644887, Note_on_c, 0, 61, 76
2, 644897, Note_on_c, 0, 73, 0
2, 644902, Note_on_c, 0, 73, 85
2, 645196, Note_on_c, 0, 69, 0
2, 645201, Note_on_c, 0, 76, 84
2, 645204, Note_on_c, 0, 67, 0
2, 645206, Note_on_c, 0, 69, 68
2, 645208, Note_on_c, 0, 38, 73
2, 645211, Note_on_c, 0, 67, 69
2, 645221, Note_on_c, 0, 57, 0
2, 645223, Note_on_c, 0, 52, 0
2, 645223, Note_on_c, 0, 71, 0
2, 645224, Note_on_c, 0, 74, 0
2, 645224, Note_on_c, 0, 73, 0
2, 645225, Note_on_c, 0, 59, 0
2, 645225, Note_on_c, 0, 61, 0
2, 645226, Note_on_c, 0, 45, 0
2, 645231, Control_c, 0, 64, 0
2, 645419, Control_c, 0, 64, 127
2, 645485, Note_on_c, 0, 45, 44
2, 645611, Note_on_c, 0, 74, 75
2, 645688, Note_on_c, 0, 76, 0
2, 645692, Note_on_c, 0, 76, 71
2, 645757, Note_on_c, 0, 74, 0
2, 645759, Control_c, 0, 64, 0
2, 645766, Note_on_c, 0, 50, 61
2, 645766, Note_on_c, 0, 74, 80
2, 645777, Note_on_c, 0, 38, 0
2, 645779, Note_on_c, 0, 45, 0
2, 645780, Note_on_c, 0, 69, 0
2, 645781, Note_on_c, 0, 76, 0
2, 645785, Note_on_c, 0, 69, 62
2, 645794, Note_on_c, 0, 66, 55
2, 645803, Note_on_c, 0, 67, 0
2, 646033, Control_c, 0, 64, 127
2, 646043, Note_on_c, 0, 64, 63
2, 646315, Note_on_c, 0, 62, 58
2, 646581, Note_on_c, 0, 60, 61
2, 646656, Note_on_c, 0, 62, 0
2, 646660, Note_on_c, 0, 62, 65
2, 646755, Note_on_c, 0, 60, 0
2, 646761, Note_on_c, 0, 60, 64
2, 646863, Note_on_c, 0, 74, 0
2, 646871, Note_on_c, 0, 74, 87
2, 646873, Note_on_c, 0, 59, 70
2, 647116, Note_on_c, 0, 57, 56
2, 647260, Note_on_c, 0, 75, 84
2, 647354, Note_on_c, 0, 69, 0
2, 647355, Note_on_c, 0, 62, 0
2, 647355, Note_on_c, 0, 74, 0
2, 647357, Note_on_c, 0, 50, 0
2, 647357, Note_on_c, 0, 60, 0
2, 647357, Note_on_c, 0, 57, 0
2, 647357, Note_on_c, 0, 59, 0
2, 647358, Control_c, 0, 64, 0
2, 647359, Note_on_c, 0, 75, 0
2, 647362, Note_on_c, 0, 64, 0
2, 647377, Note_on_c, 0, 66, 0
2, 647405, Note_on_c, 0, 48, 65
2, 647410, Note_on_c, 0, 75, 82
2, 647439, Control_c, 0, 64, 127
2, 647523, Note_on_c, 0, 48, 0
2, 647666, Note_on_c, 0, 64, 69
2, 647672, Note_on_c, 0, 59, 64
2, 647795, Note_on_c, 0, 84, 87
2, 647796, Note_on_c, 0, 55, 71
2, 647811, Note_on_c, 0, 76, 82
2, 647921, Note_on_c, 0, 48, 69
2, 648061, Note_on_c, 0, 55, 0
2, 648072, Note_on_c, 0, 55, 69
2, 648171, Note_on_c, 0, 83, 89
2, 648189, Note_on_c, 0, 47, 72
2, 648191, Note_on_c, 0, 74, 75
2, 648410, Control_c, 0, 64, 0
2, 648410, Note_on_c, 0, 48, 0
2, 648411, Note_on_c, 0, 84, 0
2, 648411, Note_on_c, 0, 64, 0
2, 648411, Note_on_c, 0, 75, 0
2, 648411, Note_on_c, 0, 76, 0
2, 648411, Note_on_c, 0, 47, 0
2, 648411, Note_on_c, 0, 59, 0
2, 648412, Note_on_c, 0, 74, 0
2, 648412, Note_on_c, 0, 83, 0
2, 648430, Note_on_c, 0, 55, 0
2, 648447, Note_on_c, 0, 81, 90
2, 648449, Note_on_c, 0, 45, 71
2, 648450, Note_on_c, 0, 72, 84
2, 648529, Control_c, 0, 64, 127
2, 648698, Note_on_c, 0, 69, 78
2, 648702, Note_on_c, 0, 60, 65
2, 648702, Note_on_c, 0, 55, 73
2, 648737, Note_on_c, 0, 45, 0
2, 648824, Note_on_c, 0, 52, 63
2, 648954, Note_on_c, 0, 50, 80
2, 648958, Note_on_c, 0, 71, 82
2, 648960, Control_c, 0, 64, 0
2, 648976, Note_on_c, 0, 60, 0
2, 648977, Note_on_c, 0, 55, 0
2, 648978, Note_on_c, 0, 52, 0
2, 648979, Note_on_c, 0, 69, 0
2, 648979, Note_on_c, 0, 81, 0
2, 648979, Note_on_c, 0, 72, 0
2, 649190, Control_c, 0, 64, 127
2, 649213, Note_on_c, 0, 60, 82
2, 649215, Note_on_c, 0, 72, 92
2, 649315, Note_on_c, 0, 54, 65
2, 649428, Note_on_c, 0, 50, 0
2, 649430, Control_c, 0, 64, 0
2, 649431, Note_on_c, 0, 54, 0
2, 649432, Note_on_c, 0, 71, 0
2, 649432, Note_on_c, 0, 60, 0
2, 649433, Note_on_c, 0, 72, 0
2, 649477, Note_on_c, 0, 43, 76
2, 649478, Note_on_c, 0, 73, 84
2, 649479, Note_on_c, 0, 70, 81
2, 649516, Note_on_c, 0, 43, 0
2, 649551, Control_c, 0, 64, 127
2, 649710, Note_on_c, 0, 55, 44
2, 649713, Note_on_c, 0, 59, 72
2, 649720, Note_on_c, 0, 55, 0
2, 649856, Note_on_c, 0, 50, 75
2, 649862, Note_on_c, 0, 83, 96
2, 649866, Note_on_c, 0, 74, 90
2, 649869, Note_on_c, 0, 71, 79
2, 649929, Note_on_c, 0, 73, 0
2, 649932, Note_on_c, 0, 59, 0
2, 649932, Control_c, 0, 64, 0
2, 649933, Note_on_c, 0, 70, 0
2, 649937, Note_on_c, 0, 50, 0
2, 649998, Note_on_c, 0, 43, 72
2, 650042, Control_c, 0, 64, 127
2, 650159, Note_on_c, 0, 50, 62
2, 650245, Note_on_c, 0, 81, 94
2, 650250, Note_on_c, 0, 43, 0
2, 650250, Note_on_c, 0, 72, 89
2, 650257, Note_on_c, 0, 43, 77
2, 650268, Note_on_c, 0, 31, 71
2, 650273, Note_on_c, 0, 31, 0
2, 650519, Note_on_c, 0, 71, 0
2, 650522, Note_on_c, 0, 40, 85
2, 650526, Note_on_c, 0, 74, 0
2, 650526, Note_on_c, 0, 79, 92
2, 650529, Note_on_c, 0, 71, 83
2, 650530, Control_c, 0, 64, 0
2, 650532, Note_on_c, 0, 83, 0
2, 650535, Note_on_c, 0, 50, 0
2, 650535, Note_on_c, 0, 72, 0
2, 650536, Note_on_c, 0, 81, 0
2, 650536, Note_on_c, 0, 74, 80
2, 650542, Note_on_c, 0, 43, 0
2, 650780, Control_c, 0, 64, 127
2, 650798, Note_on_c, 0, 47, 77
2, 651069, Control_c, 0, 64, 0
2, 651074, Note_on_c, 0, 47, 0
2, 651075, Note_on_c, 0, 40, 0
2, 651075, Note_on_c, 0, 74, 0
2, 651095, Note_on_c, 0, 71, 0
2, 651095, Note_on_c, 0, 79, 0
2, 651096, Note_on_c, 0, 39, 81
2, 651103, Note_on_c, 0, 79, 92
2, 651104, Note_on_c, 0, 67, 79
2, 651109, Note_on_c, 0, 73, 80
2, 651110, Note_on_c, 0, 67, 0
2, 651111, Note_on_c, 0, 70, 83
2, 651112, Note_on_c, 0, 75, 82
2, 651149, Note_on_c, 0, 39, 0
2, 651202, Control_c, 0, 64, 127
2, 651398, Note_on_c, 0, 61, 73
2, 651400, Note_on_c, 0, 55, 67
2, 651531, Note_on_c, 0, 81, 90
2, 651536, Note_on_c, 0, 69, 74
2, 651697, Control_c, 0, 64, 0
2, 651700, Note_on_c, 0, 61, 0
2, 651700, Note_on_c, 0, 75, 0
2, 651700, Note_on_c, 0, 55, 0
2, 651701, Note_on_c, 0, 73, 0
2, 651703, Note_on_c, 0, 69, 0
2, 651704, Note_on_c, 0, 81, 0
2, 651709, Note_on_c, 0, 70, 0
2, 651713, Note_on_c, 0, 38, 83
2, 651719, Note_on_c, 0, 83, 100
2, 651722, Note_on_c, 0, 74, 81
2, 651723, Note_on_c, 0, 71, 82
2, 651724, Note_on_c, 0, 79, 0
2, 651729, Note_on_c, 0, 79, 74
2, 651766, Note_on_c, 0, 38, 0
2, 651832, Control_c, 0, 64, 127
2, 652014, Note_on_c, 0, 55, 68
2, 652035, Note_on_c, 0, 50, 55
2, 652308, Note_on_c, 0, 55, 0
2, 652314, Note_on_c, 0, 62, 69
2, 652315, Note_on_c, 0, 59, 69
2, 652317, Note_on_c, 0, 55, 55
2, 652623, Note_on_c, 0, 83, 0
2, 652623, Note_on_c, 0, 67, 68
2, 652631, Note_on_c, 0, 71, 0
2, 652632, Note_on_c, 0, 83, 93
2, 652634, Note_on_c, 0, 71, 78
2, 652964, Control_c, 0, 64, 0
2, 652965, Note_on_c, 0, 67, 0
2, 652965, Note_on_c, 0, 62, 0
2, 652965, Note_on_c, 0, 59, 0
2, 652965, Note_on_c, 0, 79, 0
2, 652965, Note_on_c, 0, 71, 0
2, 652966, Note_on_c, 0, 74, 0
2, 652967, Note_on_c, 0, 50, 0
2, 652976, Note_on_c, 0, 55, 0
2, 652977, Note_on_c, 0, 84, 96
2, 652984, Note_on_c, 0, 83, 0
2, 652987, Note_on_c, 0, 72, 81
2, 652988, Note_on_c, 0, 38, 73
2, 652989, Note_on_c, 0, 75, 80
2, 653047, Note_on_c, 0, 38, 0
2, 653061, Control_c, 0, 64, 127
2, 653317, Note_on_c, 0, 50, 64
2, 653318, Note_on_c, 0, 38, 61
2, 653485, Note_on_c, 0, 83, 89
2, 653491, Note_on_c, 0, 72, 0
2, 653491, Note_on_c, 0, 75, 0
2, 653495, Note_on_c, 0, 72, 73
2, 653495, Note_on_c, 0, 75, 78
2, 653503, Note_on_c, 0, 78, 54
2, 653698, Note_on_c, 0, 63, 63
2, 653706, Note_on_c, 0, 60, 45
2, 654157, Note_on_c, 0, 81, 80
2, 654182, Note_on_c, 0, 72, 0
2, 654182, Note_on_c, 0, 75, 0
2, 654186, Note_on_c, 0, 72, 56
2, 654190, Note_on_c, 0, 63, 0
2, 654190, Note_on_c, 0, 78, 0
2, 654192, Note_on_c, 0, 75, 60
2, 654193, Note_on_c, 0, 66, 41
2, 654193, Note_on_c, 0, 78, 42
2, 654194, Note_on_c, 0, 63, 46
2, 655490, Note_on_c, 0, 63, 0
2, 655490, Note_on_c, 0, 83, 0
2, 655491, Note_on_c, 0, 60, 0
2, 655491, Note_on_c, 0, 38, 0
2, 655491, Note_on_c, 0, 50, 0
2, 655491, Note_on_c, 0, 66, 0
2, 655491, Note_on_c, 0, 84, 0
2, 655492, Control_c, 0, 64, 0
2, 655495, Note_on_c, 0, 81, 0
2, 655505, Note_on_c, 0, 81, 71
2, 655511, Note_on_c, 0, 72, 0
2, 655511, Note_on_c, 0, 75, 0
2, 655511, Note_on_c, 0, 78, 0
2, 655515, Note_on_c, 0, 43, 46
2, 655515, Note_on_c, 0, 75, 65
2, 655521, Note_on_c, 0, 72, 54
2, 655595, Control_c, 0, 64, 127
2, 655626, Note_on_c, 0, 43, 0
2, 655819, Note_on_c, 0, 59, 52
2, 655820, Note_on_c, 0, 55, 56
2, 655941, Note_on_c, 0, 81, 0
2, 655948, Note_on_c, 0, 81, 73
2, 655956, Note_on_c, 0, 72, 0
2, 655961, Note_on_c, 0, 75, 0
2, 655963, Note_on_c, 0, 72, 62
2, 656046, Note_on_c, 0, 59, 0
2, 656046, Note_on_c, 0, 55, 0
2, 656046, Note_on_c, 0, 72, 0
2, 656046, Note_on_c, 0, 81, 0
2, 656051, Control_c, 0, 64, 0
2, 656084, Note_on_c, 0, 38, 64
2, 656091, Note_on_c, 0, 79, 72
2, 656096, Note_on_c, 0, 71, 70
2, 656099, Note_on_c, 0, 74, 64
2, 656117, Control_c, 0, 64, 127
2, 656217, Note_on_c, 0, 71, 0
2, 656217, Note_on_c, 0, 74, 0
2, 656217, Note_on_c, 0, 79, 0
2, 656227, Note_on_c, 0, 74, 71
2, 656227, Note_on_c, 0, 71, 65
2, 656227, Note_on_c, 0, 79, 63
2, 656232, Note_on_c, 0, 77, 57
2, 656345, Note_on_c, 0, 59, 63
2, 656345, Note_on_c, 0, 55, 67
2, 656463, Note_on_c, 0, 71, 0
2, 656463, Note_on_c, 0, 74, 0
2, 656463, Note_on_c, 0, 79, 0
2, 656470, Note_on_c, 0, 79, 74
2, 656470, Note_on_c, 0, 71, 63
2, 656474, Note_on_c, 0, 74, 53
2, 656547, Note_on_c, 0, 77, 0
2, 656567, Note_on_c, 0, 74, 0
2, 656567, Note_on_c, 0, 59, 0
2, 656567, Note_on_c, 0, 71, 0
2, 656567, Note_on_c, 0, 79, 0
2, 656567, Note_on_c, 0, 55, 0
2, 656570, Control_c, 0, 64, 0
2, 656570, Note_on_c, 0, 38, 0
2, 656592, Note_on_c, 0, 81, 80
2, 656605, Note_on_c, 0, 43, 57
2, 656614, Note_on_c, 0, 75, 64
2, 656615, Note_on_c, 0, 72, 63
2, 656640, Control_c, 0, 64, 127
2, 656724, Note_on_c, 0, 72, 0
2, 656724, Note_on_c, 0, 81, 0
2, 656729, Note_on_c, 0, 81, 76
2, 656732, Note_on_c, 0, 75, 0
2, 656733, Note_on_c, 0, 72, 74
2, 656736, Note_on_c, 0, 75, 76
2, 656858, Note_on_c, 0, 55, 66
2, 656860, Note_on_c, 0, 59, 63
2, 656962, Note_on_c, 0, 81, 0
2, 656970, Note_on_c, 0, 72, 0
2, 656972, Note_on_c, 0, 81, 84
2, 656977, Note_on_c, 0, 72, 76
2, 657052, Note_on_c, 0, 43, 0
2, 657053, Note_on_c, 0, 55, 0
2, 657054, Note_on_c, 0, 59, 0
2, 657055, Note_on_c, 0, 72, 0
2, 657056, Note_on_c, 0, 75, 0
2, 657056, Note_on_c, 0, 81, 0
2, 657059, Control_c, 0, 64, 0
2, 657111, Note_on_c, 0, 79, 84
2, 657111, Note_on_c, 0, 38, 73
2, 657112, Note_on_c, 0, 71, 79
2, 657117, Note_on_c, 0, 74, 74
2, 657154, Control_c, 0, 64, 127
2, 657231, Note_on_c, 0, 38, 0
2, 657231, Note_on_c, 0, 71, 0
2, 657231, Note_on_c, 0, 74, 0
2, 657231, Note_on_c, 0, 79, 0
2, 657236, Note_on_c, 0, 79, 80
2, 657237, Note_on_c, 0, 71, 80
2, 657238, Note_on_c, 0, 74, 81
2, 657334, Note_on_c, 0, 55, 79
2, 657335, Note_on_c, 0, 59, 75
2, 657454, Note_on_c, 0, 71, 0
2, 657454, Note_on_c, 0, 79, 0
2, 657458, Note_on_c, 0, 71, 74
2, 657458, Note_on_c, 0, 79, 87
2, 657548, Control_c, 0, 64, 0
2, 657549, Note_on_c, 0, 71, 0
2, 657549, Note_on_c, 0, 74, 0
2, 657550, Note_on_c, 0, 79, 0
2, 657550, Note_on_c, 0, 55, 0
2, 657550, Note_on_c, 0, 59, 0
2, 657593, Note_on_c, 0, 84, 96
2, 657593, Note_on_c, 0, 31, 74
2, 657594, Note_on_c, 0, 43, 76
2, 657600, Note_on_c, 0, 31, 0
2, 657601, Note_on_c, 0, 72, 87
2, 657602, Note_on_c, 0, 75, 84
2, 657623, Control_c, 0, 64, 127
2, 657628, Note_on_c, 0, 43, 0
2, 657707, Note_on_c, 0, 72, 0
2, 657707, Note_on_c, 0, 75, 0
2, 657707, Note_on_c, 0, 84, 0
2, 657712, Note_on_c, 0, 84, 91
2, 657713, Note_on_c, 0, 72, 93
2, 657718, Note_on_c, 0, 75, 85
2, 657826, Note_on_c, 0, 55, 83
2, 657827, Note_on_c, 0, 59, 75
2, 657922, Note_on_c, 0, 72, 0
2, 657922, Note_on_c, 0, 84, 0
2, 657933, Note_on_c, 0, 84, 98
2, 657933, Note_on_c, 0, 72, 85
2, 658022, Note_on_c, 0, 72, 0
2, 658022, Note_on_c, 0, 55, 0
2, 658022, Note_on_c, 0, 59, 0
2, 658022, Note_on_c, 0, 84, 0
2, 658028, Control_c, 0, 64, 0
2, 658037, Note_on_c, 0, 75, 0
2, 658065, Note_on_c, 0, 38, 90
2, 658068, Note_on_c, 0, 26, 84
2, 658071, Note_on_c, 0, 71, 89
2, 658071, Note_on_c, 0, 83, 99
2, 658072, Note_on_c, 0, 74, 91
2, 658076, Note_on_c, 0, 26, 0
2, 658114, Control_c, 0, 64, 127
2, 658199, Note_on_c, 0, 71, 0
2, 658199, Note_on_c, 0, 83, 0
2, 658206, Note_on_c, 0, 74, 0
2, 658209, Note_on_c, 0, 83, 93
2, 658210, Note_on_c, 0, 71, 86
2, 658210, Note_on_c, 0, 74, 92
2, 658308, Note_on_c, 0, 55, 85
2, 658314, Note_on_c, 0, 59, 77
2, 658406, Note_on_c, 0, 38, 0
2, 658421, Note_on_c, 0, 71, 0
2, 658421, Note_on_c, 0, 74, 0
2, 658421, Note_on_c, 0, 83, 0
2, 658425, Note_on_c, 0, 83, 93
2, 658426, Note_on_c, 0, 71, 82
2, 658430, Note_on_c, 0, 74, 83
2, 658530, Note_on_c, 0, 71, 0
2, 658530, Note_on_c, 0, 83, 0
2, 658531, Note_on_c, 0, 55, 0
2, 658531, Note_on_c, 0, 59, 0
2, 658531, Note_on_c, 0, 74, 0
2, 658534, Control_c, 0, 64, 0
2, 658572, Note_on_c, 0, 84, 101
2, 658574, Note_on_c, 0, 72, 98
2, 658575, Note_on_c, 0, 75, 97
2, 658581, Note_on_c, 0, 41, 87
2, 658584, Note_on_c, 0, 29, 85
2, 658590, Note_on_c, 0, 29, 0
2, 658621, Note_on_c, 0, 41, 0
2, 658623, Note_on_c, 0, 72, 0
2, 658629, Control_c, 0, 64, 127
2, 658705, Note_on_c, 0, 84, 0
2, 658713, Note_on_c, 0, 75, 0
2, 658717, Note_on_c, 0, 84, 101
2, 658717, Note_on_c, 0, 72, 100
2, 658720, Note_on_c, 0, 75, 89
2, 658831, Note_on_c, 0, 59, 80
2, 658832, Note_on_c, 0, 55, 81
2, 658949, Note_on_c, 0, 83, 101
2, 658953, Note_on_c, 0, 71, 87
2, 658957, Note_on_c, 0, 74, 88
2, 659066, Control_c, 0, 64, 0
2, 659089, Note_on_c, 0, 74, 0
2, 659089, Note_on_c, 0, 83, 0
2, 659094, Note_on_c, 0, 83, 102
2, 659097, Note_on_c, 0, 74, 103
2, 659098, Note_on_c, 0, 38, 91
2, 659101, Note_on_c, 0, 75, 0
2, 659136, Control_c, 0, 64, 127
2, 659151, Note_on_c, 0, 72, 0
2, 659235, Note_on_c, 0, 71, 0
2, 659243, Note_on_c, 0, 74, 0
2, 659246, Note_on_c, 0, 71, 84
2, 659252, Note_on_c, 0, 74, 85
2, 659381, Note_on_c, 0, 55, 0
2, 659391, Note_on_c, 0, 55, 78
2, 659397, Note_on_c, 0, 79, 99
2, 659602, Note_on_c, 0, 86, 93
2, 659604, Note_on_c, 0, 74, 0
2, 659609, Note_on_c, 0, 74, 84
2, 659829, Note_on_c, 0, 43, 67
2, 659891, Note_on_c, 0, 50, 74
2, 659973, Note_on_c, 0, 59, 0
2, 659973, Note_on_c, 0, 71, 0
2, 659973, Note_on_c, 0, 79, 0
2, 659978, Note_on_c, 0, 71, 78
2, 659978, Note_on_c, 0, 59, 79
2, 659983, Note_on_c, 0, 79, 75
2, 660019, Note_on_c, 0, 84, 0
2, 660022, Note_on_c, 0, 91, 106
2, 660031, Note_on_c, 0, 38, 0
2, 660031, Control_c, 0, 64, 0
2, 660035, Note_on_c, 0, 83, 0
2, 660035, Note_on_c, 0, 55, 0
2, 660037, Note_on_c, 0, 86, 0
2, 660037, Note_on_c, 0, 74, 0
2, 660165, Note_on_c, 0, 71, 0
2, 660288, Control_c, 0, 64, 127
2, 660289, Note_on_c, 0, 86, 73
2, 660439, Note_on_c, 0, 83, 76
2, 660572, Note_on_c, 0, 86, 0
2, 660581, Note_on_c, 0, 86, 76
2, 660702, Note_on_c, 0, 79, 0
2, 660713, Note_on_c, 0, 79, 75
2, 660833, Note_on_c, 0, 83, 0
2, 660841, Note_on_c, 0, 83, 72
2, 660969, Note_on_c, 0, 74, 80
2, 661094, Note_on_c, 0, 79, 0
2, 661098, Note_on_c, 0, 79, 68
2, 661232, Note_on_c, 0, 86, 0
2, 661241, Note_on_c, 0, 86, 88
2, 661432, Note_on_c, 0, 83, 0
2, 661442, Note_on_c, 0, 83, 74
2, 661578, Note_on_c, 0, 79, 0
2, 661582, Note_on_c, 0, 79, 70
2, 661693, Note_on_c, 0, 83, 0
2, 661697, Note_on_c, 0, 83, 68
2, 661816, Note_on_c, 0, 74, 0
2, 661826, Note_on_c, 0, 74, 75
2, 661946, Note_on_c, 0, 79, 0
2, 661957, Note_on_c, 0, 79, 69
2, 662101, Note_on_c, 0, 71, 66
2, 662238, Note_on_c, 0, 74, 0
2, 662246, Note_on_c, 0, 74, 69
2, 662400, Note_on_c, 0, 43, 0
2, 662400, Note_on_c, 0, 50, 0
2, 662400, Note_on_c, 0, 59, 0
2, 662400, Note_on_c, 0, 83, 0
2, 662400, Note_on_c, 0, 91, 0
2, 662407, Note_on_c, 0, 74, 0
2, 662410, Note_on_c, 0, 83, 77
2, 662417, Note_on_c, 0, 74, 72
2, 662584, Note_on_c, 0, 79, 0
2, 662594, Note_on_c, 0, 79, 67
2, 662630, Note_on_c, 0, 71, 0
2, 662634, Note_on_c, 0, 71, 45
2, 662730, Note_on_c, 0, 74, 0
2, 662736, Note_on_c, 0, 74, 74
2, 662759, Note_on_c, 0, 67, 45
2, 662853, Note_on_c, 0, 71, 0
2, 662853, Note_on_c, 0, 79, 0
2, 662857, Note_on_c, 0, 71, 56
2, 662859, Note_on_c, 0, 79, 70
2, 663006, Note_on_c, 0, 71, 0
2, 663016, Note_on_c, 0, 62, 43
2, 663018, Note_on_c, 0, 59, 41
2, 663018, Note_on_c, 0, 71, 54
2, 663121, Note_on_c, 0, 74, 0
2, 663129, Note_on_c, 0, 74, 77
2, 663275, Note_on_c, 0, 59, 0
2, 663283, Note_on_c, 0, 67, 0
2, 663286, Note_on_c, 0, 59, 53
2, 663293, Note_on_c, 0, 67, 63
2, 663295, Note_on_c, 0, 55, 40
2, 663398, Note_on_c, 0, 62, 0
2, 663398, Note_on_c, 0, 71, 0
2, 663403, Note_on_c, 0, 62, 56
2, 663409, Note_on_c, 0, 71, 68
2, 663552, Note_on_c, 0, 79, 0
2, 663559, Note_on_c, 0, 71, 0
2, 663563, Note_on_c, 0, 79, 73
2, 663564, Note_on_c, 0, 71, 60
2, 663728, Note_on_c, 0, 74, 0
2, 663733, Note_on_c, 0, 74, 67
2, 663736, Note_on_c, 0, 67, 0
2, 663740, Note_on_c, 0, 67, 56
2, 663889, Note_on_c, 0, 71, 0
2, 663897, Note_on_c, 0, 62, 0
2, 663898, Note_on_c, 0, 71, 64
2, 663903, Note_on_c, 0, 62, 47
2, 664051, Note_on_c, 0, 59, 0
2, 664051, Note_on_c, 0, 67, 0
2, 664062, Note_on_c, 0, 59, 45
2, 664062, Note_on_c, 0, 67, 62
2, 664227, Note_on_c, 0, 71, 0
2, 664232, Note_on_c, 0, 71, 65
2, 664250, Note_on_c, 0, 62, 0
2, 664260, Note_on_c, 0, 62, 56
2, 664442, Note_on_c, 0, 74, 0
2, 664447, Note_on_c, 0, 74, 75
2, 664473, Note_on_c, 0, 67, 0
2, 664484, Note_on_c, 0, 67, 40
2, 664665, Note_on_c, 0, 71, 0
2, 664665, Note_on_c, 0, 79, 0
2, 664670, Note_on_c, 0, 79, 72
2, 664670, Note_on_c, 0, 71, 55
2, 664919, Note_on_c, 0, 74, 0
2, 664926, Note_on_c, 0, 86, 0
2, 664927, Note_on_c, 0, 74, 66
2, 664931, Note_on_c, 0, 86, 60
2, 665345, Note_on_c, 0, 91, 75
2, 665364, Note_on_c, 0, 79, 0
2, 665375, Note_on_c, 0, 79, 53
2, 666240, Note_on_c, 0, 55, 0
2, 666240, Note_on_c, 0, 62, 0
2, 666240, Note_on_c, 0, 83, 0
2, 668666, Note_on_c, 0, 59, 0
2, 669089, Note_on_c, 0, 67, 0
2, 669281, Note_on_c, 0, 71, 0
2, 669534, Note_on_c, 0, 74, 0
2, 669542, Note_on_c, 0, 86, 0
2, 669698, Control_c, 0, 64, 0
2, 669864, Note_on_c, 0, 79, 0
2, 669864, Note_on_c, 0, 91, 0
2, 669865, End_track
0, 0, End_of_file
