0, 0, Header, 1, 2, 384
1, 0, Start_track
1, 0, Tempo, 500000
1, 0, Time_signature, 4, 2, 24, 8
1, 1, End_track
2, 0, Start_track
2, 192, Control_c, 0, 64, 127
2, 3836, Note_on_c, 0, 62, 36
2, 3869, Note_on_c, 0, 65, 29
2, 3917, Note_on_c, 0, 69, 56
2, 3945, Note_on_c, 0, 77, 79
2, 3966, Note_on_c, 0, 72, 50
2, 4033, Control_c, 0, 64, 0
2, 4264, Note_on_c, 0, 79, 93
2, 4293, Control_c, 0, 64, 127
2, 4564, Note_on_c, 0, 81, 92
2, 4830, Note_on_c, 0, 72, 0
2, 4841, Note_on_c, 0, 72, 58
2, 4861, Note_on_c, 0, 77, 0
2, 4866, Note_on_c, 0, 77, 56
2, 4869, Note_on_c, 0, 81, 0
2, 4876, Note_on_c, 0, 79, 0
2, 4877, Note_on_c, 0, 81, 58
2, 4884, Note_on_c, 0, 65, 0
2, 4885, Note_on_c, 0, 79, 61
2, 4888, Note_on_c, 0, 65, 47
2, 4910, Note_on_c, 0, 58, 64
2, 4910, Note_on_c, 0, 84, 91
2, 4958, Note_on_c, 0, 62, 0
2, 4958, Note_on_c, 0, 69, 0
2, 4959, Control_c, 0, 64, 0
2, 4959, Note_on_c, 0, 81, 0
2, 5084, Control_c, 0, 64, 127
2, 5314, Note_on_c, 0, 77, 0
2, 5582, Note_on_c, 0, 77, 77
2, 5583, Note_on_c, 0, 72, 0
2, 5593, Note_on_c, 0, 72, 43
2, 5875, Note_on_c, 0, 65, 0
2, 5882, Note_on_c, 0, 70, 59
2, 5883, Note_on_c, 0, 65, 45
2, 6497, Note_on_c, 0, 72, 0
2, 6497, Note_on_c, 0, 77, 0
2, 6505, Note_on_c, 0, 72, 65
2, 6508, Note_on_c, 0, 77, 66
2, 6543, Note_on_c, 0, 65, 0
2, 6543, Note_on_c, 0, 79, 0
2, 6549, Note_on_c, 0, 79, 91
2, 6549, Note_on_c, 0, 65, 51
2, 6554, Note_on_c, 0, 67, 56
2, 6554, Note_on_c, 0, 60, 46
2, 6595, Control_c, 0, 64, 0
2, 6598, Note_on_c, 0, 58, 0
2, 6598, Note_on_c, 0, 70, 0
2, 6601, Note_on_c, 0, 84, 0
2, 6704, Control_c, 0, 64, 127
2, 7809, Note_on_c, 0, 64, 49
2, 8401, Note_on_c, 0, 79, 0
2, 8413, Note_on_c, 0, 79, 77
2, 8485, Note_on_c, 0, 81, 96
2, 8609, Note_on_c, 0, 79, 0
2, 8620, Note_on_c, 0, 79, 91
2, 8762, Note_on_c, 0, 77, 0
2, 8773, Note_on_c, 0, 77, 89
2, 9077, Note_on_c, 0, 77, 0
2, 9085, Note_on_c, 0, 65, 0
2, 9085, Note_on_c, 0, 72, 0
2, 9088, Note_on_c, 0, 77, 85
2, 9089, Note_on_c, 0, 69, 66
2, 9091, Note_on_c, 0, 72, 82
2, 9092, Note_on_c, 0, 65, 49
2, 9112, Note_on_c, 0, 62, 46
2, 9141, Note_on_c, 0, 60, 0
2, 9142, Note_on_c, 0, 64, 0
2, 9142, Note_on_c, 0, 67, 0
2, 9143, Note_on_c, 0, 81, 0
2, 9147, Control_c, 0, 64, 0
2, 9162, Note_on_c, 0, 79, 0
2, 9403, Note_on_c, 0, 79, 99
2, 9423, Control_c, 0, 64, 127
2, 9720, Note_on_c, 0, 81, 99
2, 10014, Note_on_c, 0, 72, 0
2, 10019, Note_on_c, 0, 82, 84
2, 10022, Note_on_c, 0, 65, 0
2, 10025, Note_on_c, 0, 72, 69
2, 10033, Note_on_c, 0, 65, 68
2, 10041, Note_on_c, 0, 70, 78
2, 10042, Note_on_c, 0, 86, 98
2, 10046, Note_on_c, 0, 58, 77
2, 10092, Note_on_c, 0, 69, 0
2, 10093, Note_on_c, 0, 72, 0
2, 10093, Note_on_c, 0, 79, 0
2, 10094, Note_on_c, 0, 81, 0
2, 10095, Note_on_c, 0, 62, 0
2, 10103, Control_c, 0, 64, 0
2, 10106, Note_on_c, 0, 77, 0
2, 10337, Control_c, 0, 64, 127
2, 10687, Note_on_c, 0, 84, 99
2, 10997, Note_on_c, 0, 65, 0
2, 10997, Note_on_c, 0, 70, 0
2, 11000, Note_on_c, 0, 79, 94
2, 11004, Note_on_c, 0, 72, 66
2, 11005, Note_on_c, 0, 70, 71
2, 11007, Note_on_c, 0, 65, 55
2, 11312, Note_on_c, 0, 79, 0
2, 11319, Note_on_c, 0, 79, 98
2, 11642, Note_on_c, 0, 65, 0
2, 11642, Note_on_c, 0, 72, 0
2, 11645, Note_on_c, 0, 67, 63
2, 11646, Note_on_c, 0, 74, 62
2, 11646, Note_on_c, 0, 72, 64
2, 11649, Note_on_c, 0, 60, 52
2, 11653, Note_on_c, 0, 65, 59
2, 11662, Control_c, 0, 64, 0
2, 11665, Note_on_c, 0, 58, 0
2, 11673, Note_on_c, 0, 70, 0
2, 11673, Note_on_c, 0, 82, 0
2, 11719, Control_c, 0, 64, 127
2, 11857, Note_on_c, 0, 84, 0
2, 12943, Note_on_c, 0, 64, 54
2, 12963, Note_on_c, 0, 86, 0
2, 13440, Note_on_c, 0, 79, 0
2, 13573, Note_on_c, 0, 57, 69
2, 13574, Note_on_c, 0, 49, 65
2, 13880, Note_on_c, 0, 77, 96
2, 14183, Note_on_c, 0, 64, 0
2, 14184, Note_on_c, 0, 67, 0
2, 14200, Note_on_c, 0, 49, 0
2, 14208, Note_on_c, 0, 77, 0
2, 14213, Note_on_c, 0, 77, 94
2, 14215, Note_on_c, 0, 72, 0
2, 14223, Note_on_c, 0, 57, 0
2, 14223, Note_on_c, 0, 60, 0
2, 14223, Note_on_c, 0, 65, 0
2, 14225, Note_on_c, 0, 72, 78
2, 14227, Note_on_c, 0, 57, 65
2, 14228, Note_on_c, 0, 65, 88
2, 14231, Note_on_c, 0, 60, 68
2, 14233, Note_on_c, 0, 50, 67
2, 14265, Control_c, 0, 64, 0
2, 14269, Note_on_c, 0, 74, 0
2, 14461, Control_c, 0, 64, 127
2, 14542, Note_on_c, 0, 67, 95
2, 14850, Note_on_c, 0, 69, 98
2, 15152, Note_on_c, 0, 72, 0
2, 15160, Note_on_c, 0, 60, 0
2, 15160, Note_on_c, 0, 65, 0
2, 15163, Note_on_c, 0, 72, 102
2, 15165, Note_on_c, 0, 53, 74
2, 15168, Note_on_c, 0, 65, 87
2, 15171, Note_on_c, 0, 60, 77
2, 15172, Note_on_c, 0, 70, 89
2, 15172, Note_on_c, 0, 46, 77
2, 15193, Control_c, 0, 64, 0
2, 15196, Note_on_c, 0, 50, 0
2, 15197, Note_on_c, 0, 67, 0
2, 15202, Note_on_c, 0, 69, 0
2, 15202, Note_on_c, 0, 77, 0
2, 15202, Note_on_c, 0, 57, 0
2, 15352, Control_c, 0, 64, 127
2, 15828, Note_on_c, 0, 65, 0
2, 15834, Note_on_c, 0, 65, 74
2, 16128, Note_on_c, 0, 53, 0
2, 16137, Note_on_c, 0, 53, 47
2, 16138, Note_on_c, 0, 58, 59
2, 16140, Note_on_c, 0, 77, 74
2, 16143, Note_on_c, 0, 60, 0
2, 16150, Note_on_c, 0, 60, 53
2, 16183, Control_c, 0, 64, 0
2, 16189, Control_c, 0, 64, 127
2, 16788, Note_on_c, 0, 60, 0
2, 16788, Note_on_c, 0, 72, 0
2, 16793, Note_on_c, 0, 79, 88
2, 16795, Note_on_c, 0, 76, 87
2, 16796, Note_on_c, 0, 72, 81
2, 16797, Note_on_c, 0, 67, 85
2, 16797, Note_on_c, 0, 60, 67
2, 16798, Note_on_c, 0, 48, 65
2, 16800, Note_on_c, 0, 55, 70
2, 16822, Control_c, 0, 64, 0
2, 16837, Note_on_c, 0, 70, 0
2, 16845, Note_on_c, 0, 53, 0
2, 16845, Note_on_c, 0, 65, 0
2, 16845, Note_on_c, 0, 58, 0
2, 16847, Note_on_c, 0, 46, 0
2, 16849, Note_on_c, 0, 77, 0
2, 17018, Control_c, 0, 64, 127
2, 17784, Note_on_c, 0, 69, 95
2, 17785, Note_on_c, 0, 49, 66
2, 17787, Note_on_c, 0, 57, 69
2, 17787, Note_on_c, 0, 64, 73
2, 17823, Control_c, 0, 64, 0
2, 17824, Note_on_c, 0, 48, 0
2, 17827, Note_on_c, 0, 67, 0
2, 17827, Note_on_c, 0, 55, 0
2, 17828, Note_on_c, 0, 76, 0
2, 17840, Note_on_c, 0, 60, 0
2, 17840, Note_on_c, 0, 72, 0
2, 17879, Note_on_c, 0, 79, 0
2, 18032, Control_c, 0, 64, 127
2, 18870, Note_on_c, 0, 81, 92
2, 18876, Note_on_c, 0, 45, 61
2, 18877, Note_on_c, 0, 64, 0
2, 18881, Note_on_c, 0, 55, 65
2, 18882, Note_on_c, 0, 64, 67
2, 18883, Note_on_c, 0, 52, 55
2, 18887, Note_on_c, 0, 73, 74
2, 18887, Note_on_c, 0, 67, 83
2, 18888, Note_on_c, 0, 76, 77
2, 18890, Note_on_c, 0, 49, 0
2, 18892, Note_on_c, 0, 57, 0
2, 18926, Control_c, 0, 64, 0
2, 19084, Control_c, 0, 64, 127
2, 19246, Note_on_c, 0, 64, 0
2, 19523, Note_on_c, 0, 77, 81
2, 19524, Note_on_c, 0, 50, 75
2, 19530, Note_on_c, 0, 69, 0
2, 19534, Note_on_c, 0, 74, 77
2, 19535, Note_on_c, 0, 69, 71
2, 19538, Note_on_c, 0, 65, 76
2, 19556, Note_on_c, 0, 67, 0
2, 19556, Note_on_c, 0, 73, 0
2, 19556, Note_on_c, 0, 52, 0
2, 19556, Note_on_c, 0, 81, 0
2, 19556, Note_on_c, 0, 55, 0
2, 19558, Note_on_c, 0, 76, 0
2, 19559, Note_on_c, 0, 45, 0
2, 19563, Control_c, 0, 64, 0
2, 19683, Control_c, 0, 64, 127
2, 19838, Note_on_c, 0, 57, 72
2, 20118, Note_on_c, 0, 72, 85
2, 20144, Note_on_c, 0, 74, 0
2, 20153, Note_on_c, 0, 60, 74
2, 20155, Note_on_c, 0, 74, 98
2, 20164, Control_c, 0, 64, 0
2, 20198, Control_c, 0, 64, 127
2, 20459, Note_on_c, 0, 72, 0
2, 20464, Note_on_c, 0, 72, 96
2, 20467, Note_on_c, 0, 60, 0
2, 20470, Note_on_c, 0, 53, 71
2, 20472, Note_on_c, 0, 60, 73
2, 20472, Note_on_c, 0, 46, 71
2, 20481, Note_on_c, 0, 58, 69
2, 20506, Control_c, 0, 64, 0
2, 20519, Note_on_c, 0, 57, 0
2, 20520, Note_on_c, 0, 65, 0
2, 20520, Note_on_c, 0, 50, 0
2, 20520, Note_on_c, 0, 69, 0
2, 20521, Note_on_c, 0, 74, 0
2, 20522, Note_on_c, 0, 77, 0
2, 20613, Control_c, 0, 64, 127
2, 21101, Note_on_c, 0, 65, 84
2, 21411, Note_on_c, 0, 58, 0
2, 21411, Note_on_c, 0, 60, 0
2, 21415, Note_on_c, 0, 74, 79
2, 21416, Note_on_c, 0, 58, 67
2, 21416, Note_on_c, 0, 53, 0
2, 21417, Note_on_c, 0, 60, 63
2, 21423, Note_on_c, 0, 77, 73
2, 21427, Note_on_c, 0, 70, 66
2, 22080, Note_on_c, 0, 60, 0
2, 22089, Note_on_c, 0, 48, 54
2, 22090, Note_on_c, 0, 60, 56
2, 22091, Note_on_c, 0, 55, 57
2, 22095, Note_on_c, 0, 72, 0
2, 22096, Note_on_c, 0, 79, 81
2, 22097, Note_on_c, 0, 76, 74
2, 22099, Note_on_c, 0, 67, 70
2, 22101, Note_on_c, 0, 72, 63
2, 22120, Note_on_c, 0, 62, 46
2, 22129, Control_c, 0, 64, 0
2, 22146, Note_on_c, 0, 70, 0
2, 22150, Note_on_c, 0, 74, 0
2, 22150, Note_on_c, 0, 65, 0
2, 22151, Note_on_c, 0, 46, 0
2, 22151, Note_on_c, 0, 58, 0
2, 22152, Note_on_c, 0, 77, 0
2, 22571, Control_c, 0, 64, 127
2, 22609, Control_c, 0, 64, 0
2, 22632, Note_on_c, 0, 60, 0
2, 22694, Control_c, 0, 64, 127
2, 22740, Note_on_c, 0, 62, 0
2, 22763, Control_c, 0, 64, 0
2, 22894, Control_c, 0, 64, 127
2, 23040, Control_c, 0, 64, 0
2, 23132, Control_c, 0, 64, 127
2, 23201, Control_c, 0, 64, 0
2, 23285, Control_c, 0, 64, 127
2, 23422, Note_on_c, 0, 64, 64
2, 24093, Note_on_c, 0, 46, 64
2, 24726, Note_on_c, 0, 45, 55
2, 24763, Note_on_c, 0, 52, 43
2, 24804, Note_on_c, 0, 57, 67
2, 24818, Note_on_c, 0, 69, 77
2, 24850, Note_on_c, 0, 74, 73
2, 24867, Note_on_c, 0, 76, 0
2, 24875, Note_on_c, 0, 76, 65
2, 24890, Note_on_c, 0, 72, 0
2, 24902, Note_on_c, 0, 64, 0
2, 24905, Control_c, 0, 64, 0
2, 24905, Note_on_c, 0, 55, 0
2, 24906, Note_on_c, 0, 48, 0
2, 24908, Note_on_c, 0, 67, 0
2, 24909, Note_on_c, 0, 79, 0
2, 24909, Note_on_c, 0, 46, 0
2, 24910, Note_on_c, 0, 81, 89
2, 24960, Control_c, 0, 64, 127
2, 24983, Control_c, 0, 64, 0
2, 25128, Control_c, 0, 64, 127
2, 26190, Note_on_c, 0, 59, 65
2, 27533, Note_on_c, 0, 61, 56
2, 27540, Note_on_c, 0, 57, 0
2, 27545, Note_on_c, 0, 57, 50
2, 28215, Note_on_c, 0, 64, 62
2, 28800, Note_on_c, 0, 45, 0
2, 28800, Note_on_c, 0, 52, 0
2, 28800, Note_on_c, 0, 59, 0
2, 28800, Note_on_c, 0, 69, 0
2, 28800, Note_on_c, 0, 74, 0
2, 28800, Note_on_c, 0, 76, 0
2, 28800, Note_on_c, 0, 81, 0
2, 28915, Note_on_c, 0, 69, 69
2, 29719, Note_on_c, 0, 76, 68
2, 30798, Note_on_c, 0, 74, 73
2, 30807, Note_on_c, 0, 55, 46
2, 30811, Note_on_c, 0, 62, 38
2, 30961, Control_c, 0, 64, 0
2, 30965, Control_c, 0, 64, 127
2, 31008, Note_on_c, 0, 86, 58
2, 31042, Note_on_c, 0, 76, 0
2, 31073, Note_on_c, 0, 57, 0
2, 31138, Note_on_c, 0, 93, 62
2, 31311, Note_on_c, 0, 98, 81
2, 31311, Note_on_c, 0, 61, 0
2, 32148, Note_on_c, 0, 64, 0
2, 32153, Note_on_c, 0, 64, 56
2, 32156, Note_on_c, 0, 57, 48
2, 32173, Control_c, 0, 64, 0
2, 32232, Control_c, 0, 64, 127
2, 32309, Note_on_c, 0, 86, 0
2, 32318, Note_on_c, 0, 86, 58
2, 32471, Note_on_c, 0, 93, 0
2, 32476, Note_on_c, 0, 93, 64
2, 32629, Note_on_c, 0, 97, 79
2, 32779, Note_on_c, 0, 73, 71
2, 32785, Note_on_c, 0, 69, 0
2, 32790, Note_on_c, 0, 69, 71
2, 33438, Note_on_c, 0, 69, 0
2, 33444, Note_on_c, 0, 69, 78
2, 33446, Note_on_c, 0, 55, 0
2, 33447, Control_c, 0, 64, 0
2, 33448, Note_on_c, 0, 73, 0
2, 33449, Note_on_c, 0, 74, 0
2, 33450, Note_on_c, 0, 93, 0
2, 33450, Note_on_c, 0, 97, 0
2, 33450, Note_on_c, 0, 86, 0
2, 33451, Note_on_c, 0, 98, 0
2, 33451, Note_on_c, 0, 66, 71
2, 33453, Note_on_c, 0, 59, 65
2, 33461, Note_on_c, 0, 62, 0
2, 33469, Note_on_c, 0, 57, 0
2, 33469, Note_on_c, 0, 64, 0
2, 33484, Control_c, 0, 64, 127
2, 33611, Note_on_c, 0, 86, 75
2, 33764, Note_on_c, 0, 93, 76
2, 33942, Note_on_c, 0, 98, 81
2, 34734, Note_on_c, 0, 54, 60
2, 34740, Note_on_c, 0, 64, 57
2, 34778, Note_on_c, 0, 61, 53
2, 34882, Note_on_c, 0, 86, 0
2, 34893, Note_on_c, 0, 86, 76
2, 35043, Note_on_c, 0, 93, 0
2, 35048, Note_on_c, 0, 93, 78
2, 35213, Note_on_c, 0, 100, 88
2, 35368, Note_on_c, 0, 76, 75
2, 35374, Note_on_c, 0, 69, 0
2, 35377, Note_on_c, 0, 69, 72
2, 35378, Note_on_c, 0, 73, 74
2, 35983, Note_on_c, 0, 98, 0
2, 35984, Note_on_c, 0, 93, 0
2, 35984, Note_on_c, 0, 86, 0
2, 35984, Note_on_c, 0, 100, 0
2, 35984, Note_on_c, 0, 69, 0
2, 35984, Note_on_c, 0, 76, 0
2, 35985, Note_on_c, 0, 59, 0
2, 35985, Note_on_c, 0, 64, 0
2, 35985, Note_on_c, 0, 73, 0
2, 35985, Note_on_c, 0, 66, 0
2, 35986, Note_on_c, 0, 61, 0
2, 35988, Control_c, 0, 64, 0
2, 35988, Note_on_c, 0, 54, 0
2, 36031, Note_on_c, 0, 74, 86
2, 36033, Note_on_c, 0, 69, 72
2, 36037, Note_on_c, 0, 55, 71
2, 36043, Note_on_c, 0, 62, 59
2, 36126, Control_c, 0, 64, 127
2, 36204, Note_on_c, 0, 86, 82
2, 36346, Note_on_c, 0, 93, 77
2, 36517, Note_on_c, 0, 98, 80
2, 37306, Note_on_c, 0, 57, 66
2, 37308, Note_on_c, 0, 64, 68
2, 37463, Note_on_c, 0, 86, 0
2, 37468, Note_on_c, 0, 86, 72
2, 37616, Note_on_c, 0, 93, 0
2, 37622, Note_on_c, 0, 93, 76
2, 37762, Note_on_c, 0, 97, 79
2, 37923, Note_on_c, 0, 69, 0
2, 37928, Note_on_c, 0, 73, 77
2, 37933, Note_on_c, 0, 69, 73
2, 38568, Note_on_c, 0, 69, 0
2, 38573, Note_on_c, 0, 69, 73
2, 38577, Note_on_c, 0, 66, 67
2, 38577, Note_on_c, 0, 59, 67
2, 38626, Control_c, 0, 64, 0
2, 38668, Control_c, 0, 64, 127
2, 38730, Note_on_c, 0, 86, 0
2, 38740, Note_on_c, 0, 86, 78
2, 38753, Note_on_c, 0, 55, 0
2, 38753, Note_on_c, 0, 74, 0
2, 38891, Note_on_c, 0, 93, 0
2, 38900, Note_on_c, 0, 93, 74
2, 39052, Note_on_c, 0, 98, 0
2, 39060, Note_on_c, 0, 98, 87
2, 39828, Note_on_c, 0, 64, 0
2, 39839, Note_on_c, 0, 54, 57
2, 39839, Note_on_c, 0, 64, 60
2, 39840, Note_on_c, 0, 61, 62
2, 39920, Control_c, 0, 64, 0
2, 40005, Control_c, 0, 64, 127
2, 40012, Note_on_c, 0, 93, 0
2, 40017, Note_on_c, 0, 93, 69
2, 40164, Note_on_c, 0, 100, 78
2, 40320, Note_on_c, 0, 57, 0
2, 40320, Note_on_c, 0, 62, 0
2, 40320, Note_on_c, 0, 73, 0
2, 40320, Note_on_c, 0, 97, 0
2, 40988, Note_on_c, 0, 69, 0
2, 40994, Note_on_c, 0, 69, 83
2, 41044, Note_on_c, 0, 54, 0
2, 41045, Note_on_c, 0, 61, 0
2, 41046, Note_on_c, 0, 66, 0
2, 41049, Note_on_c, 0, 64, 0
2, 41049, Note_on_c, 0, 86, 0
2, 41049, Note_on_c, 0, 98, 0
2, 41049, Note_on_c, 0, 100, 0
2, 41057, Note_on_c, 0, 59, 0
2, 41064, Note_on_c, 0, 93, 0
2, 41095, Control_c, 0, 64, 0
2, 41152, Note_on_c, 0, 55, 75
2, 41153, Note_on_c, 0, 62, 74
2, 41154, Note_on_c, 0, 76, 92
2, 41180, Control_c, 0, 64, 127
2, 41197, Control_c, 0, 64, 0
2, 41280, Control_c, 0, 64, 127
2, 41323, Note_on_c, 0, 86, 82
2, 41466, Note_on_c, 0, 74, 96
2, 41633, Note_on_c, 0, 76, 0
2, 41636, Note_on_c, 0, 98, 92
2, 41642, Note_on_c, 0, 76, 87
2, 42132, Note_on_c, 0, 78, 98
2, 42286, Note_on_c, 0, 76, 0
2, 42290, Note_on_c, 0, 76, 97
2, 42336, Note_on_c, 0, 55, 0
2, 42336, Note_on_c, 0, 86, 0
2, 42338, Note_on_c, 0, 62, 0
2, 42338, Note_on_c, 0, 74, 0
2, 42340, Note_on_c, 0, 78, 0
2, 42347, Note_on_c, 0, 69, 0
2, 42349, Control_c, 0, 64, 0
2, 42362, Note_on_c, 0, 98, 0
2, 42436, Note_on_c, 0, 57, 77
2, 42436, Note_on_c, 0, 64, 83
2, 42462, Control_c, 0, 64, 127
2, 42539, Note_on_c, 0, 76, 0
2, 42595, Note_on_c, 0, 86, 83
2, 42745, Note_on_c, 0, 74, 94
2, 42749, Note_on_c, 0, 93, 93
2, 42908, Note_on_c, 0, 74, 0
2, 42912, Note_on_c, 0, 98, 86
2, 42913, Note_on_c, 0, 74, 74
2, 43061, Note_on_c, 0, 64, 0
2, 43066, Note_on_c, 0, 69, 79
2, 43066, Note_on_c, 0, 64, 68
2, 43537, Note_on_c, 0, 69, 0
2, 43543, Note_on_c, 0, 69, 90
2, 43640, Note_on_c, 0, 64, 0
2, 43640, Note_on_c, 0, 74, 0
2, 43641, Note_on_c, 0, 57, 0
2, 43642, Note_on_c, 0, 86, 0
2, 43646, Control_c, 0, 64, 0
2, 43653, Note_on_c, 0, 93, 0
2, 43676, Note_on_c, 0, 98, 0
2, 43706, Note_on_c, 0, 59, 82
2, 43709, Note_on_c, 0, 66, 80
2, 43710, Note_on_c, 0, 76, 96
2, 43729, Note_on_c, 0, 69, 0
2, 43735, Note_on_c, 0, 69, 63
2, 43829, Control_c, 0, 64, 127
2, 43872, Note_on_c, 0, 86, 88
2, 44020, Note_on_c, 0, 74, 99
2, 44183, Note_on_c, 0, 76, 0
2, 44189, Note_on_c, 0, 98, 89
2, 44194, Note_on_c, 0, 76, 88
2, 44697, Note_on_c, 0, 74, 0
2, 44705, Note_on_c, 0, 74, 97
2, 44843, Note_on_c, 0, 76, 0
2, 44849, Note_on_c, 0, 76, 98
2, 44918, Note_on_c, 0, 69, 0
2, 44919, Note_on_c, 0, 86, 0
2, 44919, Note_on_c, 0, 59, 0
2, 44921, Note_on_c, 0, 66, 0
2, 44922, Note_on_c, 0, 74, 0
2, 44927, Control_c, 0, 64, 0
2, 44928, Note_on_c, 0, 98, 0
2, 45000, Note_on_c, 0, 54, 74
2, 45008, Note_on_c, 0, 64, 75
2, 45012, Note_on_c, 0, 61, 79
2, 45089, Control_c, 0, 64, 127
2, 45167, Note_on_c, 0, 86, 91
2, 45326, Note_on_c, 0, 93, 92
2, 45328, Note_on_c, 0, 78, 93
2, 45480, Note_on_c, 0, 78, 0
2, 45484, Note_on_c, 0, 78, 84
2, 45490, Note_on_c, 0, 90, 75
2, 45493, Note_on_c, 0, 98, 87
2, 45654, Note_on_c, 0, 69, 75
2, 46126, Note_on_c, 0, 69, 0
2, 46136, Note_on_c, 0, 69, 89
2, 46187, Note_on_c, 0, 90, 0
2, 46190, Note_on_c, 0, 78, 0
2, 46190, Note_on_c, 0, 64, 0
2, 46191, Note_on_c, 0, 86, 0
2, 46191, Note_on_c, 0, 54, 0
2, 46195, Note_on_c, 0, 76, 0
2, 46202, Note_on_c, 0, 93, 0
2, 46210, Note_on_c, 0, 61, 0
2, 46218, Note_on_c, 0, 98, 0
2, 46219, Control_c, 0, 64, 0
2, 46287, Note_on_c, 0, 69, 0
2, 46293, Note_on_c, 0, 62, 93
2, 46296, Note_on_c, 0, 55, 86
2, 46296, Note_on_c, 0, 74, 98
2, 46297, Note_on_c, 0, 69, 77
2, 46364, Control_c, 0, 64, 127
2, 46483, Note_on_c, 0, 86, 85
2, 46596, Note_on_c, 0, 76, 99
2, 46614, Note_on_c, 0, 93, 94
2, 46775, Note_on_c, 0, 98, 83
2, 46921, Note_on_c, 0, 78, 98
2, 47232, Note_on_c, 0, 76, 0
2, 47238, Note_on_c, 0, 76, 92
2, 47385, Note_on_c, 0, 76, 0
2, 47396, Note_on_c, 0, 76, 96
2, 47477, Control_c, 0, 64, 0
2, 47480, Note_on_c, 0, 69, 0
2, 47480, Note_on_c, 0, 86, 0
2, 47480, Note_on_c, 0, 62, 0
2, 47481, Note_on_c, 0, 55, 0
2, 47482, Note_on_c, 0, 74, 0
2, 47482, Note_on_c, 0, 78, 0
2, 47493, Note_on_c, 0, 98, 0
2, 47500, Note_on_c, 0, 93, 0
2, 47550, Note_on_c, 0, 64, 79
2, 47551, Note_on_c, 0, 57, 72
2, 47554, Control_c, 0, 64, 127
2, 47718, Note_on_c, 0, 86, 88
2, 47856, Note_on_c, 0, 74, 94
2, 47869, Note_on_c, 0, 93, 92
2, 47884, Note_on_c, 0, 76, 0
2, 48007, Note_on_c, 0, 74, 0
2, 48019, Note_on_c, 0, 74, 80
2, 48022, Note_on_c, 0, 98, 85
2, 48180, Note_on_c, 0, 64, 0
2, 48180, Note_on_c, 0, 69, 76
2, 48645, Note_on_c, 0, 69, 0
2, 48654, Note_on_c, 0, 69, 86
2, 48715, Note_on_c, 0, 74, 0
2, 48716, Note_on_c, 0, 98, 0
2, 48721, Note_on_c, 0, 93, 0
2, 48726, Control_c, 0, 64, 0
2, 48729, Note_on_c, 0, 57, 0
2, 48752, Note_on_c, 0, 86, 0
2, 48817, Note_on_c, 0, 74, 96
2, 48818, Note_on_c, 0, 59, 80
2, 48818, Note_on_c, 0, 66, 83
2, 48867, Note_on_c, 0, 69, 0
2, 48983, Control_c, 0, 64, 127
2, 49024, Note_on_c, 0, 86, 84
2, 49127, Note_on_c, 0, 69, 85
2, 49130, Note_on_c, 0, 93, 90
2, 49282, Note_on_c, 0, 74, 0
2, 49287, Note_on_c, 0, 98, 92
2, 49291, Note_on_c, 0, 74, 97
2, 49623, Note_on_c, 0, 76, 86
2, 49778, Note_on_c, 0, 78, 100
2, 50088, Note_on_c, 0, 93, 0
2, 50088, Note_on_c, 0, 98, 0
2, 50094, Control_c, 0, 64, 0
2, 50099, Note_on_c, 0, 54, 73
2, 50101, Note_on_c, 0, 69, 0
2, 50103, Note_on_c, 0, 59, 0
2, 50105, Note_on_c, 0, 78, 0
2, 50112, Note_on_c, 0, 74, 0
2, 50112, Note_on_c, 0, 86, 0
2, 50127, Note_on_c, 0, 66, 0
2, 50165, Note_on_c, 0, 76, 0
2, 50255, Note_on_c, 0, 61, 73
2, 50288, Control_c, 0, 64, 127
2, 50414, Note_on_c, 0, 66, 98
2, 50563, Note_on_c, 0, 64, 86
2, 50728, Note_on_c, 0, 67, 101
2, 50872, Note_on_c, 0, 61, 0
2, 50880, Note_on_c, 0, 61, 84
2, 51022, Note_on_c, 0, 57, 85
2, 51171, Note_on_c, 0, 54, 0
2, 51183, Note_on_c, 0, 54, 82
2, 51184, Note_on_c, 0, 69, 95
2, 51322, Control_c, 0, 64, 0
2, 51323, Note_on_c, 0, 66, 0
2, 51323, Note_on_c, 0, 67, 0
2, 51324, Note_on_c, 0, 54, 0
2, 51324, Note_on_c, 0, 69, 0
2, 51324, Note_on_c, 0, 57, 0
2, 51326, Note_on_c, 0, 61, 0
2, 51340, Note_on_c, 0, 64, 0
2, 51344, Note_on_c, 0, 76, 104
2, 51344, Note_on_c, 0, 43, 84
2, 51344, Note_on_c, 0, 64, 98
2, 51463, Control_c, 0, 64, 127
2, 51490, Note_on_c, 0, 50, 71
2, 51645, Note_on_c, 0, 62, 83
2, 51648, Note_on_c, 0, 57, 77
2, 51816, Note_on_c, 0, 64, 0
2, 51820, Note_on_c, 0, 59, 82
2, 51821, Note_on_c, 0, 64, 85
2, 52289, Note_on_c, 0, 66, 87
2, 52439, Note_on_c, 0, 64, 0
2, 52446, Note_on_c, 0, 64, 98
2, 52554, Note_on_c, 0, 76, 0
2, 52563, Note_on_c, 0, 57, 0
2, 52564, Note_on_c, 0, 66, 0
2, 52564, Note_on_c, 0, 62, 0
2, 52564, Note_on_c, 0, 59, 0
2, 52565, Note_on_c, 0, 50, 0
2, 52566, Note_on_c, 0, 43, 0
2, 52566, Control_c, 0, 64, 0
2, 52597, Note_on_c, 0, 45, 93
2, 52707, Control_c, 0, 64, 127
2, 52749, Note_on_c, 0, 52, 69
2, 52897, Note_on_c, 0, 57, 80
2, 52902, Note_on_c, 0, 62, 85
2, 53053, Note_on_c, 0, 62, 0
2, 53058, Note_on_c, 0, 62, 88
2, 53058, Note_on_c, 0, 59, 85
2, 53208, Note_on_c, 0, 81, 100
2, 53690, Note_on_c, 0, 57, 0
2, 53700, Note_on_c, 0, 57, 91
2, 53850, Note_on_c, 0, 81, 0
2, 53850, Note_on_c, 0, 57, 0
2, 53851, Note_on_c, 0, 52, 0
2, 53852, Note_on_c, 0, 64, 0
2, 53852, Note_on_c, 0, 62, 0
2, 53852, Control_c, 0, 64, 0
2, 53853, Note_on_c, 0, 59, 0
2, 53854, Note_on_c, 0, 45, 0
2, 53855, Note_on_c, 0, 47, 92
2, 53856, Note_on_c, 0, 76, 100
2, 53861, Note_on_c, 0, 64, 97
2, 53944, Control_c, 0, 64, 127
2, 54014, Note_on_c, 0, 54, 78
2, 54157, Note_on_c, 0, 57, 85
2, 54169, Note_on_c, 0, 62, 84
2, 54320, Note_on_c, 0, 64, 0
2, 54331, Note_on_c, 0, 64, 93
2, 54332, Note_on_c, 0, 59, 81
2, 54821, Note_on_c, 0, 69, 91
2, 54973, Note_on_c, 0, 64, 0
2, 54984, Note_on_c, 0, 64, 99
2, 55077, Note_on_c, 0, 57, 0
2, 55077, Note_on_c, 0, 76, 0
2, 55077, Control_c, 0, 64, 0
2, 55077, Note_on_c, 0, 54, 0
2, 55079, Note_on_c, 0, 62, 0
2, 55082, Note_on_c, 0, 59, 0
2, 55082, Note_on_c, 0, 47, 0
2, 55102, Note_on_c, 0, 42, 81
2, 55157, Control_c, 0, 64, 127
2, 55267, Note_on_c, 0, 49, 68
2, 55426, Note_on_c, 0, 52, 73
2, 55429, Note_on_c, 0, 62, 89
2, 55580, Note_on_c, 0, 62, 0
2, 55588, Note_on_c, 0, 62, 86
2, 55590, Note_on_c, 0, 57, 84
2, 55736, Note_on_c, 0, 81, 100
2, 56179, Note_on_c, 0, 57, 0
2, 56185, Note_on_c, 0, 57, 88
2, 56363, Note_on_c, 0, 62, 0
2, 56366, Note_on_c, 0, 40, 78
2, 56367, Note_on_c, 0, 74, 101
2, 56367, Control_c, 0, 64, 0
2, 56370, Note_on_c, 0, 52, 0
2, 56371, Note_on_c, 0, 57, 0
2, 56371, Note_on_c, 0, 49, 0
2, 56373, Note_on_c, 0, 81, 0
2, 56373, Note_on_c, 0, 42, 0
2, 56374, Note_on_c, 0, 62, 90
2, 56374, Note_on_c, 0, 71, 85
2, 56381, Note_on_c, 0, 67, 81
2, 56386, Note_on_c, 0, 64, 0
2, 56386, Note_on_c, 0, 69, 0
2, 56455, Control_c, 0, 64, 127
2, 56498, Note_on_c, 0, 47, 80
2, 56671, Note_on_c, 0, 55, 78
2, 56674, Note_on_c, 0, 64, 90
2, 56828, Note_on_c, 0, 59, 95
2, 56988, Note_on_c, 0, 66, 100
2, 57300, Note_on_c, 0, 67, 0
2, 57304, Note_on_c, 0, 67, 99
2, 57474, Note_on_c, 0, 69, 100
2, 57576, Note_on_c, 0, 74, 0
2, 57576, Note_on_c, 0, 40, 0
2, 57578, Note_on_c, 0, 62, 0
2, 57578, Note_on_c, 0, 47, 0
2, 57578, Note_on_c, 0, 71, 0
2, 57578, Note_on_c, 0, 66, 0
2, 57579, Note_on_c, 0, 64, 0
2, 57579, Note_on_c, 0, 59, 0
2, 57579, Note_on_c, 0, 55, 0
2, 57579, Note_on_c, 0, 67, 0
2, 57587, Control_c, 0, 64, 0
2, 57628, Note_on_c, 0, 45, 101
2, 57669, Control_c, 0, 64, 127
2, 57779, Note_on_c, 0, 52, 84
2, 57919, Note_on_c, 0, 57, 97
2, 57921, Note_on_c, 0, 67, 93
2, 58076, Note_on_c, 0, 69, 0
2, 58079, Note_on_c, 0, 66, 93
2, 58080, Note_on_c, 0, 69, 96
2, 58080, Note_on_c, 0, 59, 94
2, 58153, Note_on_c, 0, 71, 86
2, 58225, Note_on_c, 0, 64, 96
2, 58227, Note_on_c, 0, 61, 93
2, 58228, Note_on_c, 0, 73, 90
2, 58304, Note_on_c, 0, 74, 86
2, 58386, Note_on_c, 0, 62, 99
2, 58387, Note_on_c, 0, 76, 82
2, 58458, Note_on_c, 0, 78, 92
2, 58527, Note_on_c, 0, 79, 90
2, 58597, Note_on_c, 0, 81, 95
2, 58678, Note_on_c, 0, 83, 98
2, 58744, Note_on_c, 0, 85, 103
2, 58859, Note_on_c, 0, 74, 0
2, 58859, Note_on_c, 0, 78, 0
2, 58862, Note_on_c, 0, 86, 107
2, 58865, Note_on_c, 0, 74, 102
2, 58865, Note_on_c, 0, 55, 96
2, 58869, Note_on_c, 0, 78, 94
2, 58878, Note_on_c, 0, 85, 0
2, 58878, Note_on_c, 0, 61, 0
2, 58878, Note_on_c, 0, 62, 0
2, 58879, Note_on_c, 0, 69, 0
2, 58879, Note_on_c, 0, 59, 0
2, 58879, Note_on_c, 0, 57, 0
2, 58879, Note_on_c, 0, 67, 0
2, 58879, Note_on_c, 0, 73, 0
2, 58879, Note_on_c, 0, 64, 0
2, 58880, Note_on_c, 0, 79, 0
2, 58880, Note_on_c, 0, 83, 0
2, 58880, Note_on_c, 0, 76, 0
2, 58880, Note_on_c, 0, 81, 0
2, 58881, Note_on_c, 0, 52, 0
2, 58882, Note_on_c, 0, 66, 0
2, 58884, Note_on_c, 0, 71, 0
2, 58885, Note_on_c, 0, 45, 0
2, 58903, Control_c, 0, 64, 0
2, 59008, Note_on_c, 0, 62, 83
2, 59013, Control_c, 0, 64, 127
2, 59174, Note_on_c, 0, 86, 0
2, 59178, Note_on_c, 0, 69, 74
2, 59179, Note_on_c, 0, 86, 95
2, 59339, Note_on_c, 0, 85, 101
2, 59351, Note_on_c, 0, 78, 0
2, 59353, Note_on_c, 0, 71, 71
2, 59354, Note_on_c, 0, 76, 83
2, 59359, Note_on_c, 0, 78, 73
2, 59496, Note_on_c, 0, 62, 0
2, 59501, Note_on_c, 0, 62, 70
2, 59635, Note_on_c, 0, 69, 0
2, 59642, Note_on_c, 0, 69, 68
2, 59788, Note_on_c, 0, 71, 0
2, 59799, Note_on_c, 0, 71, 85
2, 59816, Note_on_c, 0, 83, 80
2, 59965, Note_on_c, 0, 74, 0
2, 59969, Note_on_c, 0, 81, 97
2, 59974, Note_on_c, 0, 74, 86
2, 59988, Note_on_c, 0, 76, 0
2, 59998, Note_on_c, 0, 76, 68
2, 60130, Note_on_c, 0, 57, 85
2, 60154, Note_on_c, 0, 55, 0
2, 60155, Note_on_c, 0, 78, 0
2, 60156, Control_c, 0, 64, 0
2, 60162, Note_on_c, 0, 83, 0
2, 60195, Note_on_c, 0, 71, 0
2, 60203, Note_on_c, 0, 85, 0
2, 60234, Note_on_c, 0, 74, 0
2, 60234, Control_c, 0, 64, 127
2, 60241, Note_on_c, 0, 76, 0
2, 60273, Note_on_c, 0, 64, 70
2, 60288, Note_on_c, 0, 86, 0
2, 60418, Note_on_c, 0, 69, 0
2, 60429, Note_on_c, 0, 69, 70
2, 60440, Note_on_c, 0, 74, 90
2, 60587, Note_on_c, 0, 74, 0
2, 60593, Note_on_c, 0, 74, 94
2, 60594, Note_on_c, 0, 71, 78
2, 60741, Note_on_c, 0, 64, 0
2, 60751, Note_on_c, 0, 64, 77
2, 60887, Note_on_c, 0, 69, 0
2, 60892, Note_on_c, 0, 69, 75
2, 60896, Note_on_c, 0, 76, 91
2, 61040, Note_on_c, 0, 71, 0
2, 61048, Note_on_c, 0, 69, 0
2, 61051, Note_on_c, 0, 78, 97
2, 61051, Note_on_c, 0, 71, 76
2, 61054, Note_on_c, 0, 69, 62
2, 61071, Note_on_c, 0, 62, 0
2, 61194, Note_on_c, 0, 64, 0
2, 61205, Note_on_c, 0, 64, 71
2, 61367, Note_on_c, 0, 59, 89
2, 61389, Note_on_c, 0, 97, 104
2, 61529, Note_on_c, 0, 98, 100
2, 61535, Note_on_c, 0, 66, 59
2, 61670, Note_on_c, 0, 69, 0
2, 61674, Note_on_c, 0, 69, 69
2, 61679, Note_on_c, 0, 93, 92
2, 61835, Note_on_c, 0, 86, 94
2, 61985, Note_on_c, 0, 66, 0
2, 61995, Note_on_c, 0, 66, 72
2, 62146, Note_on_c, 0, 69, 0
2, 62151, Note_on_c, 0, 69, 64
2, 62292, Note_on_c, 0, 71, 0
2, 62298, Note_on_c, 0, 71, 72
2, 62446, Note_on_c, 0, 74, 0
2, 62453, Note_on_c, 0, 66, 0
2, 62456, Note_on_c, 0, 74, 89
2, 62457, Note_on_c, 0, 66, 72
2, 62599, Note_on_c, 0, 59, 0
2, 62604, Note_on_c, 0, 59, 81
2, 62607, Note_on_c, 0, 78, 0
2, 62612, Note_on_c, 0, 78, 99
2, 62745, Note_on_c, 0, 66, 0
2, 62752, Note_on_c, 0, 66, 76
2, 62899, Note_on_c, 0, 69, 0
2, 62903, Note_on_c, 0, 69, 90
2, 62903, Note_on_c, 0, 79, 95
2, 63052, Note_on_c, 0, 78, 0
2, 63062, Note_on_c, 0, 78, 96
2, 63063, Note_on_c, 0, 73, 95
2, 63206, Note_on_c, 0, 74, 0
2, 63213, Note_on_c, 0, 74, 95
2, 63360, Note_on_c, 0, 57, 0
2, 63360, Note_on_c, 0, 76, 0
2, 63360, Note_on_c, 0, 97, 0
2, 63367, Note_on_c, 0, 73, 0
2, 63376, Note_on_c, 0, 73, 82
2, 63376, Note_on_c, 0, 76, 99
2, 63528, Note_on_c, 0, 74, 0
2, 63536, Note_on_c, 0, 69, 0
2, 63539, Note_on_c, 0, 74, 103
2, 63541, Note_on_c, 0, 69, 87
2, 63692, Note_on_c, 0, 62, 74
2, 63846, Note_on_c, 0, 55, 94
2, 63852, Note_on_c, 0, 97, 104
2, 63896, Control_c, 0, 64, 0
2, 63899, Note_on_c, 0, 59, 0
2, 63899, Note_on_c, 0, 71, 0
2, 63900, Note_on_c, 0, 76, 0
2, 63900, Note_on_c, 0, 79, 0
2, 63900, Note_on_c, 0, 98, 0
2, 63900, Note_on_c, 0, 73, 0
2, 63900, Note_on_c, 0, 74, 0
2, 63900, Note_on_c, 0, 86, 0
2, 63905, Note_on_c, 0, 64, 0
2, 63905, Note_on_c, 0, 81, 0
2, 63912, Note_on_c, 0, 78, 0
2, 63928, Control_c, 0, 64, 127
2, 63943, Note_on_c, 0, 66, 0
2, 63989, Note_on_c, 0, 62, 0
2, 63996, Note_on_c, 0, 62, 74
2, 64001, Note_on_c, 0, 98, 101
2, 64151, Note_on_c, 0, 69, 0
2, 64158, Note_on_c, 0, 93, 0
2, 64159, Note_on_c, 0, 69, 75
2, 64162, Note_on_c, 0, 93, 91
2, 64314, Note_on_c, 0, 71, 72
2, 64315, Note_on_c, 0, 86, 93
2, 64320, Note_on_c, 0, 97, 0
2, 64465, Note_on_c, 0, 62, 0
2, 64474, Note_on_c, 0, 74, 94
2, 64476, Note_on_c, 0, 62, 74
2, 64604, Note_on_c, 0, 69, 0
2, 64615, Note_on_c, 0, 69, 74
2, 64620, Note_on_c, 0, 76, 97
2, 64757, Note_on_c, 0, 71, 0
2, 64769, Note_on_c, 0, 71, 83
2, 64770, Note_on_c, 0, 78, 98
2, 64911, Note_on_c, 0, 62, 0
2, 64916, Note_on_c, 0, 62, 70
2, 64925, Note_on_c, 0, 81, 103
2, 65079, Note_on_c, 0, 57, 92
2, 65084, Control_c, 0, 64, 0
2, 65090, Note_on_c, 0, 86, 0
2, 65091, Note_on_c, 0, 76, 0
2, 65091, Note_on_c, 0, 69, 0
2, 65091, Note_on_c, 0, 74, 0
2, 65091, Note_on_c, 0, 71, 0
2, 65091, Note_on_c, 0, 62, 0
2, 65091, Note_on_c, 0, 55, 0
2, 65091, Note_on_c, 0, 78, 0
2, 65095, Note_on_c, 0, 98, 0
2, 65103, Note_on_c, 0, 93, 0
2, 65164, Control_c, 0, 64, 127
2, 65239, Note_on_c, 0, 64, 71
2, 65401, Note_on_c, 0, 69, 78
2, 65403, Note_on_c, 0, 78, 99
2, 65553, Note_on_c, 0, 76, 98
2, 65554, Note_on_c, 0, 71, 77
2, 65702, Note_on_c, 0, 64, 0
2, 65708, Note_on_c, 0, 64, 71
2, 65848, Note_on_c, 0, 69, 0
2, 65859, Note_on_c, 0, 69, 64
2, 65860, Note_on_c, 0, 74, 92
2, 66009, Note_on_c, 0, 71, 0
2, 66009, Note_on_c, 0, 74, 0
2, 66019, Note_on_c, 0, 71, 74
2, 66020, Note_on_c, 0, 74, 93
2, 66163, Note_on_c, 0, 64, 0
2, 66171, Note_on_c, 0, 64, 68
2, 66319, Note_on_c, 0, 59, 90
2, 66335, Note_on_c, 0, 97, 105
2, 66474, Note_on_c, 0, 98, 102
2, 66481, Note_on_c, 0, 66, 61
2, 66624, Note_on_c, 0, 69, 0
2, 66629, Note_on_c, 0, 69, 75
2, 66629, Note_on_c, 0, 93, 97
2, 66777, Note_on_c, 0, 71, 0
2, 66784, Note_on_c, 0, 86, 94
2, 66787, Note_on_c, 0, 71, 74
2, 66931, Note_on_c, 0, 66, 0
2, 66941, Note_on_c, 0, 66, 88
2, 67092, Note_on_c, 0, 69, 0
2, 67102, Note_on_c, 0, 69, 74
2, 67200, Note_on_c, 0, 57, 0
2, 67200, Note_on_c, 0, 81, 0
2, 67230, Note_on_c, 0, 71, 0
2, 67239, Note_on_c, 0, 71, 88
2, 67368, Note_on_c, 0, 86, 0
2, 67373, Note_on_c, 0, 86, 86
2, 67384, Note_on_c, 0, 66, 0
2, 67390, Note_on_c, 0, 66, 75
2, 67396, Note_on_c, 0, 88, 77
2, 67417, Note_on_c, 0, 90, 84
2, 67422, Note_on_c, 0, 93, 0
2, 67427, Note_on_c, 0, 93, 95
2, 67545, Note_on_c, 0, 69, 0
2, 67549, Note_on_c, 0, 73, 95
2, 67549, Note_on_c, 0, 100, 106
2, 67550, Note_on_c, 0, 69, 86
2, 67553, Note_on_c, 0, 88, 0
2, 67557, Note_on_c, 0, 88, 96
2, 67699, Note_on_c, 0, 86, 0
2, 67699, Note_on_c, 0, 98, 0
2, 67708, Note_on_c, 0, 98, 106
2, 67708, Note_on_c, 0, 86, 92
2, 67852, Note_on_c, 0, 97, 0
2, 67858, Note_on_c, 0, 97, 107
2, 67863, Note_on_c, 0, 85, 89
2, 68014, Note_on_c, 0, 71, 0
2, 68014, Note_on_c, 0, 74, 0
2, 68014, Note_on_c, 0, 93, 0
2, 68018, Note_on_c, 0, 74, 95
2, 68018, Note_on_c, 0, 71, 77
2, 68023, Note_on_c, 0, 93, 107
2, 68025, Note_on_c, 0, 81, 97
2, 68331, Note_on_c, 0, 91, 105
2, 68338, Note_on_c, 0, 79, 86
2, 68490, Note_on_c, 0, 73, 0
2, 68490, Note_on_c, 0, 76, 0
2, 68490, Note_on_c, 0, 90, 0
2, 68498, Note_on_c, 0, 76, 95
2, 68500, Note_on_c, 0, 73, 95
2, 68501, Note_on_c, 0, 90, 102
2, 68797, Note_on_c, 0, 69, 0
2, 68797, Note_on_c, 0, 74, 0
2, 68797, Note_on_c, 0, 86, 0
2, 68804, Note_on_c, 0, 86, 103
2, 68805, Note_on_c, 0, 78, 0
2, 68806, Note_on_c, 0, 69, 98
2, 68808, Note_on_c, 0, 74, 103
2, 68809, Note_on_c, 0, 62, 92
2, 68810, Control_c, 0, 64, 0
2, 68810, Note_on_c, 0, 55, 90
2, 68813, Note_on_c, 0, 78, 98
2, 68851, Control_c, 0, 64, 127
2, 68951, Note_on_c, 0, 55, 0
2, 68951, Note_on_c, 0, 69, 0
2, 68958, Note_on_c, 0, 62, 0
2, 68960, Note_on_c, 0, 69, 88
2, 68961, Note_on_c, 0, 55, 85
2, 68963, Note_on_c, 0, 62, 81
2, 68980, Note_on_c, 0, 64, 0
2, 68991, Note_on_c, 0, 59, 0
2, 68993, Control_c, 0, 64, 0
2, 69004, Note_on_c, 0, 74, 0
2, 69007, Note_on_c, 0, 79, 0
2, 69008, Note_on_c, 0, 71, 0
2, 69008, Note_on_c, 0, 98, 0
2, 69009, Note_on_c, 0, 86, 0
2, 69009, Note_on_c, 0, 78, 0
2, 69009, Note_on_c, 0, 81, 0
2, 69010, Note_on_c, 0, 66, 0
2, 69011, Note_on_c, 0, 97, 0
2, 69012, Note_on_c, 0, 91, 0
2, 69012, Note_on_c, 0, 100, 0
2, 69012, Note_on_c, 0, 73, 0
2, 69013, Note_on_c, 0, 85, 0
2, 69013, Note_on_c, 0, 69, 0
2, 69014, Note_on_c, 0, 93, 0
2, 69014, Note_on_c, 0, 90, 0
2, 69027, Note_on_c, 0, 55, 0
2, 69027, Note_on_c, 0, 76, 0
2, 69035, Note_on_c, 0, 62, 0
2, 69035, Note_on_c, 0, 88, 0
2, 69115, Note_on_c, 0, 86, 93
2, 69117, Note_on_c, 0, 74, 89
2, 69138, Note_on_c, 0, 78, 62
2, 69163, Note_on_c, 0, 74, 0
2, 69172, Note_on_c, 0, 78, 0
2, 69279, Note_on_c, 0, 85, 100
2, 69287, Note_on_c, 0, 78, 85
2, 69291, Note_on_c, 0, 74, 81
2, 69327, Control_c, 0, 64, 127
2, 69542, Note_on_c, 0, 86, 0
2, 69578, Note_on_c, 0, 69, 92
2, 69582, Note_on_c, 0, 55, 85
2, 69585, Note_on_c, 0, 62, 79
2, 69744, Note_on_c, 0, 83, 93
2, 69899, Note_on_c, 0, 81, 101
2, 69903, Note_on_c, 0, 74, 0
2, 69907, Note_on_c, 0, 74, 89
2, 69915, Note_on_c, 0, 76, 84
2, 69976, Control_c, 0, 64, 0
2, 70029, Note_on_c, 0, 55, 0
2, 70029, Note_on_c, 0, 69, 0
2, 70029, Note_on_c, 0, 78, 0
2, 70030, Note_on_c, 0, 62, 0
2, 70030, Note_on_c, 0, 83, 0
2, 70032, Note_on_c, 0, 74, 0
2, 70033, Note_on_c, 0, 85, 0
2, 70051, Note_on_c, 0, 57, 92
2, 70118, Control_c, 0, 64, 127
2, 70195, Note_on_c, 0, 64, 77
2, 70356, Note_on_c, 0, 76, 0
2, 70360, Note_on_c, 0, 71, 78
2, 70361, Note_on_c, 0, 76, 91
2, 70517, Note_on_c, 0, 76, 0
2, 70527, Note_on_c, 0, 76, 95
2, 70528, Note_on_c, 0, 73, 68
2, 70663, Note_on_c, 0, 64, 0
2, 70670, Note_on_c, 0, 64, 62
2, 70809, Note_on_c, 0, 71, 0
2, 70814, Note_on_c, 0, 71, 80
2, 70955, Note_on_c, 0, 73, 0
2, 70961, Note_on_c, 0, 73, 77
2, 71109, Note_on_c, 0, 76, 0
2, 71116, Note_on_c, 0, 64, 0
2, 71120, Note_on_c, 0, 76, 92
2, 71121, Note_on_c, 0, 64, 84
2, 71291, Note_on_c, 0, 85, 103
2, 71293, Note_on_c, 0, 73, 0
2, 71296, Note_on_c, 0, 58, 92
2, 71297, Note_on_c, 0, 73, 91
2, 71300, Note_on_c, 0, 78, 91
2, 71302, Control_c, 0, 64, 0
2, 71303, Note_on_c, 0, 64, 0
2, 71304, Note_on_c, 0, 71, 0
2, 71304, Note_on_c, 0, 81, 0
2, 71304, Note_on_c, 0, 57, 0
2, 71316, Note_on_c, 0, 76, 0
2, 71416, Control_c, 0, 64, 127
2, 71458, Note_on_c, 0, 66, 76
2, 71612, Note_on_c, 0, 83, 92
2, 71615, Note_on_c, 0, 70, 72
2, 71761, Note_on_c, 0, 73, 0
2, 71761, Note_on_c, 0, 78, 0
2, 71761, Note_on_c, 0, 85, 0
2, 71767, Note_on_c, 0, 85, 101
2, 71772, Note_on_c, 0, 78, 93
2, 71772, Note_on_c, 0, 73, 88
2, 71930, Note_on_c, 0, 66, 0
2, 71941, Note_on_c, 0, 66, 86
2, 72084, Note_on_c, 0, 70, 0
2, 72092, Note_on_c, 0, 70, 73
2, 72230, Note_on_c, 0, 73, 0
2, 72237, Note_on_c, 0, 86, 100
2, 72240, Note_on_c, 0, 73, 87
2, 72281, Note_on_c, 0, 76, 29
2, 72291, Note_on_c, 0, 76, 0
2, 72391, Note_on_c, 0, 66, 0
2, 72399, Note_on_c, 0, 78, 0
2, 72399, Note_on_c, 0, 86, 0
2, 72400, Note_on_c, 0, 66, 83
2, 72404, Note_on_c, 0, 86, 107
2, 72405, Note_on_c, 0, 81, 93
2, 72407, Note_on_c, 0, 74, 97
2, 72410, Note_on_c, 0, 78, 90
2, 72478, Control_c, 0, 64, 0
2, 72553, Note_on_c, 0, 59, 94
2, 72585, Note_on_c, 0, 58, 0
2, 72586, Note_on_c, 0, 70, 0
2, 72587, Note_on_c, 0, 85, 0
2, 72591, Note_on_c, 0, 73, 0
2, 72614, Note_on_c, 0, 66, 0
2, 72622, Control_c, 0, 64, 127
2, 72703, Note_on_c, 0, 66, 76
2, 72852, Note_on_c, 0, 83, 0
2, 72872, Note_on_c, 0, 69, 64
2, 73036, Note_on_c, 0, 74, 0
2, 73041, Note_on_c, 0, 74, 65
2, 73474, Control_c, 0, 64, 0
2, 73543, Note_on_c, 0, 62, 71
2, 73628, Control_c, 0, 64, 127
2, 73699, Note_on_c, 0, 64, 66
2, 73858, Note_on_c, 0, 66, 0
2, 73862, Note_on_c, 0, 66, 71
2, 73864, Note_on_c, 0, 52, 48
2, 73866, Note_on_c, 0, 59, 0
2, 73876, Note_on_c, 0, 59, 55
2, 73876, Note_on_c, 0, 55, 52
2, 73892, Control_c, 0, 64, 0
2, 73908, Note_on_c, 0, 69, 0
2, 73966, Note_on_c, 0, 78, 0
2, 74004, Note_on_c, 0, 81, 0
2, 74019, Note_on_c, 0, 74, 0
2, 74081, Note_on_c, 0, 64, 0
2, 74119, Note_on_c, 0, 86, 0
2, 74174, Note_on_c, 0, 67, 69
2, 74357, Note_on_c, 0, 66, 0
2, 74367, Note_on_c, 0, 66, 69
2, 74649, Control_c, 0, 64, 127
2, 74863, Note_on_c, 0, 64, 66
2, 75018, Note_on_c, 0, 62, 0
2, 75029, Note_on_c, 0, 62, 71
2, 75072, Note_on_c, 0, 67, 0
2, 75189, Note_on_c, 0, 57, 45
2, 75189, Note_on_c, 0, 54, 45
2, 75202, Control_c, 0, 64, 0
2, 75242, Note_on_c, 0, 52, 0
2, 75242, Note_on_c, 0, 55, 0
2, 75248, Note_on_c, 0, 59, 0
2, 75264, Note_on_c, 0, 64, 0
2, 75264, Note_on_c, 0, 66, 0
2, 75432, Control_c, 0, 64, 127
2, 76042, Note_on_c, 0, 69, 65
2, 76192, Note_on_c, 0, 74, 87
2, 76340, Note_on_c, 0, 81, 98
2, 76500, Note_on_c, 0, 74, 0
2, 76500, Note_on_c, 0, 81, 0
2, 76506, Note_on_c, 0, 81, 94
2, 76508, Note_on_c, 0, 62, 0
2, 76509, Note_on_c, 0, 65, 69
2, 76510, Note_on_c, 0, 58, 64
2, 76511, Note_on_c, 0, 74, 84
2, 76512, Note_on_c, 0, 77, 78
2, 76514, Note_on_c, 0, 62, 67
2, 76558, Control_c, 0, 64, 0
2, 76559, Note_on_c, 0, 69, 0
2, 76561, Note_on_c, 0, 54, 0
2, 76563, Note_on_c, 0, 57, 0
2, 76730, Control_c, 0, 64, 127
2, 76838, Note_on_c, 0, 81, 0
2, 76843, Note_on_c, 0, 81, 92
2, 76996, Note_on_c, 0, 79, 94
2, 77160, Note_on_c, 0, 62, 0
2, 77160, Note_on_c, 0, 65, 0
2, 77164, Note_on_c, 0, 70, 63
2, 77167, Note_on_c, 0, 62, 52
2, 77169, Note_on_c, 0, 65, 49
2, 77306, Note_on_c, 0, 62, 0
2, 77306, Note_on_c, 0, 77, 0
2, 77316, Note_on_c, 0, 77, 83
2, 77317, Note_on_c, 0, 62, 47
2, 77844, Note_on_c, 0, 77, 0
2, 77854, Note_on_c, 0, 77, 82
2, 77867, Note_on_c, 0, 65, 0
2, 77867, Note_on_c, 0, 74, 0
2, 77869, Note_on_c, 0, 60, 53
2, 77876, Note_on_c, 0, 67, 55
2, 77878, Note_on_c, 0, 65, 54
2, 77878, Note_on_c, 0, 74, 61
2, 77904, Control_c, 0, 64, 0
2, 77908, Note_on_c, 0, 79, 0
2, 77908, Note_on_c, 0, 58, 0
2, 77909, Note_on_c, 0, 81, 0
2, 77909, Note_on_c, 0, 70, 0
2, 77910, Note_on_c, 0, 62, 0
2, 78013, Control_c, 0, 64, 127
2, 78607, Note_on_c, 0, 79, 72
2, 78613, Note_on_c, 0, 64, 46
2, 80002, Note_on_c, 0, 60, 0
2, 80011, Note_on_c, 0, 60, 50
2, 80682, Control_c, 0, 64, 0
2, 80683, Note_on_c, 0, 64, 0
2, 80684, Note_on_c, 0, 67, 0
2, 80685, Note_on_c, 0, 79, 0
2, 80693, Note_on_c, 0, 77, 0
2, 80701, Note_on_c, 0, 74, 0
2, 80709, Note_on_c, 0, 60, 0
2, 80716, Note_on_c, 0, 65, 0
2, 80718, Note_on_c, 0, 50, 56
2, 80720, Note_on_c, 0, 57, 59
2, 80721, Note_on_c, 0, 65, 60
2, 80732, Control_c, 0, 64, 127
2, 80807, Note_on_c, 0, 67, 67
2, 80862, Note_on_c, 0, 65, 0
2, 80871, Note_on_c, 0, 65, 66
2, 80947, Note_on_c, 0, 64, 68
2, 81016, Note_on_c, 0, 65, 0
2, 81020, Note_on_c, 0, 65, 79
2, 81097, Note_on_c, 0, 60, 75
2, 81162, Note_on_c, 0, 64, 0
2, 81170, Note_on_c, 0, 64, 76
2, 81239, Note_on_c, 0, 65, 0
2, 81248, Note_on_c, 0, 65, 70
2, 81331, Note_on_c, 0, 67, 0
2, 81341, Note_on_c, 0, 67, 85
2, 81411, Note_on_c, 0, 69, 79
2, 81481, Note_on_c, 0, 70, 81
2, 81553, Note_on_c, 0, 65, 0
2, 81559, Note_on_c, 0, 65, 79
2, 81630, Note_on_c, 0, 60, 0
2, 81637, Note_on_c, 0, 72, 91
2, 81639, Note_on_c, 0, 60, 80
2, 81640, Note_on_c, 0, 53, 76
2, 81642, Note_on_c, 0, 46, 78
2, 81679, Control_c, 0, 64, 0
2, 81680, Note_on_c, 0, 50, 0
2, 81681, Note_on_c, 0, 69, 0
2, 81682, Note_on_c, 0, 65, 0
2, 81684, Note_on_c, 0, 70, 0
2, 81684, Note_on_c, 0, 64, 0
2, 81690, Note_on_c, 0, 67, 0
2, 81711, Note_on_c, 0, 74, 81
2, 81776, Note_on_c, 0, 72, 0
2, 81776, Control_c, 0, 64, 127
2, 81785, Note_on_c, 0, 72, 86
2, 81858, Note_on_c, 0, 70, 86
2, 81930, Note_on_c, 0, 72, 0
2, 81934, Note_on_c, 0, 72, 84
2, 81991, Note_on_c, 0, 70, 0
2, 81999, Note_on_c, 0, 70, 83
2, 82069, Note_on_c, 0, 69, 81
2, 82145, Note_on_c, 0, 70, 0
2, 82149, Note_on_c, 0, 70, 91
2, 82222, Note_on_c, 0, 69, 0
2, 82231, Note_on_c, 0, 69, 80
2, 82307, Note_on_c, 0, 67, 78
2, 82384, Note_on_c, 0, 65, 79
2, 82467, Note_on_c, 0, 67, 0
2, 82474, Note_on_c, 0, 67, 73
2, 82536, Note_on_c, 0, 65, 0
2, 82544, Note_on_c, 0, 53, 0
2, 82544, Note_on_c, 0, 60, 0
2, 82545, Note_on_c, 0, 65, 74
2, 82549, Note_on_c, 0, 60, 70
2, 82552, Note_on_c, 0, 53, 72
2, 82598, Note_on_c, 0, 67, 0
2, 82607, Note_on_c, 0, 67, 77
2, 82675, Note_on_c, 0, 65, 0
2, 82679, Note_on_c, 0, 65, 74
2, 82750, Note_on_c, 0, 64, 85
2, 82821, Note_on_c, 0, 65, 0
2, 82831, Note_on_c, 0, 65, 67
2, 82897, Note_on_c, 0, 60, 0
2, 82902, Note_on_c, 0, 60, 74
2, 82967, Note_on_c, 0, 65, 0
2, 82976, Note_on_c, 0, 65, 74
2, 83051, Note_on_c, 0, 69, 0
2, 83055, Note_on_c, 0, 69, 87
2, 83136, Note_on_c, 0, 67, 0
2, 83143, Note_on_c, 0, 67, 92
2, 83145, Note_on_c, 0, 55, 93
2, 83146, Note_on_c, 0, 48, 82
2, 83164, Note_on_c, 0, 46, 0
2, 83164, Note_on_c, 0, 64, 0
2, 83165, Note_on_c, 0, 65, 0
2, 83165, Note_on_c, 0, 72, 0
2, 83166, Control_c, 0, 64, 0
2, 83166, Note_on_c, 0, 69, 0
2, 83166, Note_on_c, 0, 60, 0
2, 83166, Note_on_c, 0, 70, 0
2, 83167, Note_on_c, 0, 53, 0
2, 83174, Note_on_c, 0, 57, 0
2, 83174, Note_on_c, 0, 74, 0
2, 83228, Note_on_c, 0, 69, 81
2, 83243, Note_on_c, 0, 67, 0
2, 83251, Control_c, 0, 64, 127
2, 83301, Note_on_c, 0, 67, 89
2, 83384, Note_on_c, 0, 65, 89
2, 83450, Note_on_c, 0, 67, 0
2, 83460, Note_on_c, 0, 67, 82
2, 83534, Note_on_c, 0, 60, 90
2, 83613, Note_on_c, 0, 64, 88
2, 83681, Note_on_c, 0, 65, 0
2, 83687, Note_on_c, 0, 65, 85
2, 83765, Note_on_c, 0, 67, 0
2, 83770, Note_on_c, 0, 67, 90
2, 83827, Note_on_c, 0, 69, 0
2, 83836, Note_on_c, 0, 69, 91
2, 83909, Note_on_c, 0, 70, 87
2, 83980, Note_on_c, 0, 65, 0
2, 83990, Note_on_c, 0, 65, 85
2, 84065, Note_on_c, 0, 48, 0
2, 84065, Note_on_c, 0, 69, 0
2, 84068, Note_on_c, 0, 57, 98
2, 84070, Note_on_c, 0, 69, 95
2, 84070, Note_on_c, 0, 48, 92
2, 84072, Note_on_c, 0, 53, 81
2, 84074, Note_on_c, 0, 41, 88
2, 84100, Control_c, 0, 64, 0
2, 84116, Note_on_c, 0, 55, 0
2, 84117, Note_on_c, 0, 67, 0
2, 84117, Note_on_c, 0, 64, 0
2, 84118, Note_on_c, 0, 65, 0
2, 84118, Note_on_c, 0, 60, 0
2, 84134, Note_on_c, 0, 70, 0
2, 84140, Note_on_c, 0, 70, 86
2, 84211, Note_on_c, 0, 69, 0
2, 84211, Control_c, 0, 64, 127
2, 84215, Note_on_c, 0, 69, 93
2, 84289, Note_on_c, 0, 67, 92
2, 84357, Note_on_c, 0, 69, 0
2, 84363, Note_on_c, 0, 69, 97
2, 84439, Note_on_c, 0, 65, 93
2, 84503, Note_on_c, 0, 69, 0
2, 84514, Note_on_c, 0, 69, 93
2, 84579, Note_on_c, 0, 70, 0
2, 84588, Note_on_c, 0, 70, 91
2, 84673, Note_on_c, 0, 72, 97
2, 84749, Note_on_c, 0, 76, 95
2, 84825, Note_on_c, 0, 77, 94
2, 84894, Note_on_c, 0, 72, 0
2, 84904, Note_on_c, 0, 72, 95
2, 84938, Note_on_c, 0, 70, 0
2, 84938, Note_on_c, 0, 69, 0
2, 84938, Note_on_c, 0, 41, 0
2, 84938, Note_on_c, 0, 76, 0
2, 84939, Note_on_c, 0, 57, 0
2, 84941, Note_on_c, 0, 65, 0
2, 84945, Note_on_c, 0, 77, 0
2, 84948, Note_on_c, 0, 67, 0
2, 84952, Control_c, 0, 64, 0
2, 84965, Note_on_c, 0, 79, 100
2, 84967, Note_on_c, 0, 60, 101
2, 84969, Note_on_c, 0, 55, 96
2, 84975, Note_on_c, 0, 52, 88
2, 84979, Note_on_c, 0, 53, 0
2, 85017, Control_c, 0, 64, 127
2, 85038, Note_on_c, 0, 77, 87
2, 85128, Note_on_c, 0, 76, 99
2, 85186, Note_on_c, 0, 77, 0
2, 85197, Note_on_c, 0, 77, 96
2, 85271, Note_on_c, 0, 76, 0
2, 85282, Note_on_c, 0, 76, 96
2, 85355, Note_on_c, 0, 72, 0
2, 85360, Note_on_c, 0, 72, 97
2, 85424, Note_on_c, 0, 76, 0
2, 85428, Note_on_c, 0, 76, 97
2, 85493, Note_on_c, 0, 79, 0
2, 85499, Note_on_c, 0, 79, 101
2, 85570, Note_on_c, 0, 77, 0
2, 85580, Note_on_c, 0, 57, 101
2, 85581, Note_on_c, 0, 77, 103
2, 85582, Note_on_c, 0, 50, 90
2, 85583, Note_on_c, 0, 65, 99
2, 85589, Note_on_c, 0, 79, 0
2, 85590, Note_on_c, 0, 72, 0
2, 85590, Note_on_c, 0, 76, 0
2, 85590, Note_on_c, 0, 60, 0
2, 85590, Note_on_c, 0, 52, 0
2, 85591, Note_on_c, 0, 55, 0
2, 85591, Control_c, 0, 64, 0
2, 85601, Note_on_c, 0, 48, 0
2, 85662, Note_on_c, 0, 79, 93
2, 85670, Control_c, 0, 64, 127
2, 85731, Note_on_c, 0, 77, 0
2, 85739, Note_on_c, 0, 77, 94
2, 85818, Note_on_c, 0, 76, 98
2, 85885, Note_on_c, 0, 77, 0
2, 85894, Note_on_c, 0, 77, 95
2, 85958, Note_on_c, 0, 72, 96
2, 86023, Note_on_c, 0, 65, 0
2, 86023, Note_on_c, 0, 76, 0
2, 86029, Note_on_c, 0, 69, 102
2, 86030, Note_on_c, 0, 65, 95
2, 86031, Note_on_c, 0, 76, 96
2, 86034, Note_on_c, 0, 62, 91
2, 86037, Note_on_c, 0, 72, 0
2, 86041, Note_on_c, 0, 57, 0
2, 86043, Control_c, 0, 64, 0
2, 86043, Note_on_c, 0, 50, 0
2, 86048, Note_on_c, 0, 79, 0
2, 86100, Note_on_c, 0, 77, 0
2, 86100, Control_c, 0, 64, 127
2, 86111, Note_on_c, 0, 77, 88
2, 86193, Note_on_c, 0, 79, 91
2, 86271, Note_on_c, 0, 81, 95
2, 86337, Note_on_c, 0, 82, 96
2, 86400, Note_on_c, 0, 77, 0
2, 86404, Note_on_c, 0, 77, 98
2, 86473, Note_on_c, 0, 60, 103
2, 86476, Note_on_c, 0, 58, 103
2, 86477, Note_on_c, 0, 84, 106
2, 86477, Control_c, 0, 64, 0
2, 86478, Note_on_c, 0, 53, 96
2, 86478, Note_on_c, 0, 46, 99
2, 86489, Note_on_c, 0, 82, 0
2, 86489, Note_on_c, 0, 62, 0
2, 86490, Note_on_c, 0, 77, 0
2, 86490, Note_on_c, 0, 79, 0
2, 86490, Note_on_c, 0, 81, 0
2, 86492, Note_on_c, 0, 69, 0
2, 86507, Note_on_c, 0, 65, 0
2, 86507, Note_on_c, 0, 76, 0
2, 86530, Control_c, 0, 64, 127
2, 86558, Note_on_c, 0, 86, 96
2, 86630, Note_on_c, 0, 84, 0
2, 86635, Note_on_c, 0, 84, 89
2, 86703, Note_on_c, 0, 82, 97
2, 86760, Note_on_c, 0, 84, 0
2, 86771, Note_on_c, 0, 84, 98
2, 86830, Note_on_c, 0, 82, 0
2, 86839, Note_on_c, 0, 82, 100
2, 86918, Note_on_c, 0, 81, 100
2, 86922, Note_on_c, 0, 58, 0
2, 86926, Note_on_c, 0, 65, 102
2, 86928, Note_on_c, 0, 58, 92
2, 86931, Note_on_c, 0, 62, 94
2, 87060, Note_on_c, 0, 81, 0
2, 87068, Note_on_c, 0, 81, 91
2, 87135, Note_on_c, 0, 79, 94
2, 87216, Note_on_c, 0, 77, 94
2, 87298, Note_on_c, 0, 79, 0
2, 87307, Note_on_c, 0, 79, 93
2, 87360, Note_on_c, 0, 77, 0
2, 87371, Note_on_c, 0, 77, 97
2, 87374, Note_on_c, 0, 70, 99
2, 87375, Note_on_c, 0, 62, 0
2, 87375, Note_on_c, 0, 65, 0
2, 87385, Note_on_c, 0, 65, 94
2, 87385, Note_on_c, 0, 62, 77
2, 87444, Note_on_c, 0, 79, 0
2, 87448, Note_on_c, 0, 79, 96
2, 87505, Note_on_c, 0, 77, 0
2, 87513, Note_on_c, 0, 77, 92
2, 87588, Note_on_c, 0, 76, 92
2, 87667, Note_on_c, 0, 77, 0
2, 87672, Note_on_c, 0, 77, 94
2, 87674, Note_on_c, 0, 65, 0
2, 87682, Note_on_c, 0, 58, 0
2, 87682, Note_on_c, 0, 62, 0
2, 87685, Note_on_c, 0, 65, 93
2, 87686, Note_on_c, 0, 58, 79
2, 87687, Note_on_c, 0, 62, 81
2, 87742, Note_on_c, 0, 72, 98
2, 87805, Note_on_c, 0, 77, 0
2, 87810, Note_on_c, 0, 77, 93
2, 87889, Note_on_c, 0, 81, 0
2, 87897, Note_on_c, 0, 81, 98
2, 87966, Note_on_c, 0, 79, 0
2, 87969, Control_c, 0, 64, 0
2, 87976, Note_on_c, 0, 55, 99
2, 87977, Note_on_c, 0, 64, 102
2, 87977, Note_on_c, 0, 79, 98
2, 87977, Note_on_c, 0, 48, 93
2, 87978, Note_on_c, 0, 46, 0
2, 87978, Note_on_c, 0, 72, 0
2, 87978, Note_on_c, 0, 76, 0
2, 87978, Note_on_c, 0, 65, 0
2, 87979, Note_on_c, 0, 58, 0
2, 87979, Note_on_c, 0, 77, 0
2, 87979, Note_on_c, 0, 60, 0
2, 87979, Note_on_c, 0, 81, 0
2, 87979, Note_on_c, 0, 62, 0
2, 87979, Note_on_c, 0, 70, 0
2, 87979, Note_on_c, 0, 82, 0
2, 87980, Note_on_c, 0, 84, 0
2, 87980, Note_on_c, 0, 86, 0
2, 87981, Note_on_c, 0, 53, 0
2, 88035, Control_c, 0, 64, 127
2, 88061, Note_on_c, 0, 81, 93
2, 88120, Note_on_c, 0, 79, 0
2, 88131, Note_on_c, 0, 79, 95
2, 88199, Note_on_c, 0, 77, 98
2, 88266, Note_on_c, 0, 79, 0
2, 88277, Note_on_c, 0, 79, 97
2, 88357, Note_on_c, 0, 72, 99
2, 88435, Note_on_c, 0, 64, 0
2, 88438, Note_on_c, 0, 76, 101
2, 88439, Note_on_c, 0, 60, 97
2, 88440, Note_on_c, 0, 67, 104
2, 88440, Note_on_c, 0, 64, 100
2, 88442, Note_on_c, 0, 55, 0
2, 88450, Note_on_c, 0, 55, 76
2, 88453, Note_on_c, 0, 58, 77
2, 88504, Note_on_c, 0, 77, 0
2, 88509, Note_on_c, 0, 77, 90
2, 88581, Note_on_c, 0, 79, 0
2, 88591, Note_on_c, 0, 79, 96
2, 88650, Note_on_c, 0, 81, 0
2, 88658, Note_on_c, 0, 81, 98
2, 88739, Note_on_c, 0, 82, 102
2, 88811, Note_on_c, 0, 79, 0
2, 88820, Note_on_c, 0, 79, 93
2, 88880, Note_on_c, 0, 81, 0
2, 88888, Note_on_c, 0, 48, 0
2, 88891, Note_on_c, 0, 81, 104
2, 88897, Note_on_c, 0, 57, 105
2, 88899, Note_on_c, 0, 48, 99
2, 88901, Control_c, 0, 64, 0
2, 88902, Note_on_c, 0, 41, 89
2, 88903, Note_on_c, 0, 58, 0
2, 88904, Note_on_c, 0, 53, 90
2, 88912, Note_on_c, 0, 67, 0
2, 88913, Note_on_c, 0, 64, 0
2, 88913, Note_on_c, 0, 55, 0
2, 88913, Note_on_c, 0, 72, 0
2, 88914, Note_on_c, 0, 77, 0
2, 88914, Note_on_c, 0, 82, 0
2, 88914, Note_on_c, 0, 76, 0
2, 88915, Note_on_c, 0, 60, 0
2, 88915, Note_on_c, 0, 79, 0
2, 88953, Note_on_c, 0, 82, 93
2, 88957, Control_c, 0, 64, 127
2, 88980, Note_on_c, 0, 81, 0
2, 89040, Note_on_c, 0, 81, 103
2, 89117, Note_on_c, 0, 79, 101
2, 89180, Note_on_c, 0, 81, 0
2, 89186, Note_on_c, 0, 81, 101
2, 89278, Note_on_c, 0, 77, 98
2, 89349, Note_on_c, 0, 57, 0
2, 89349, Note_on_c, 0, 81, 0
2, 89352, Note_on_c, 0, 65, 101
2, 89352, Note_on_c, 0, 60, 101
2, 89355, Note_on_c, 0, 57, 98
2, 89356, Note_on_c, 0, 81, 101
2, 89425, Note_on_c, 0, 82, 0
2, 89435, Note_on_c, 0, 82, 101
2, 89510, Note_on_c, 0, 84, 105
2, 89579, Note_on_c, 0, 88, 105
2, 89655, Note_on_c, 0, 89, 107
2, 89725, Note_on_c, 0, 84, 0
2, 89730, Note_on_c, 0, 84, 102
2, 89761, Control_c, 0, 64, 0
2, 89765, Note_on_c, 0, 82, 0
2, 89766, Note_on_c, 0, 81, 0
2, 89766, Note_on_c, 0, 57, 0
2, 89767, Note_on_c, 0, 79, 0
2, 89767, Note_on_c, 0, 41, 0
2, 89767, Note_on_c, 0, 65, 0
2, 89767, Note_on_c, 0, 60, 0
2, 89767, Note_on_c, 0, 77, 0
2, 89767, Note_on_c, 0, 84, 0
2, 89769, Note_on_c, 0, 89, 0
2, 89772, Note_on_c, 0, 88, 0
2, 89779, Note_on_c, 0, 53, 0
2, 89786, Note_on_c, 0, 48, 0
2, 89790, Note_on_c, 0, 48, 102
2, 89794, Note_on_c, 0, 52, 106
2, 89797, Note_on_c, 0, 91, 111
2, 89797, Note_on_c, 0, 40, 98
2, 89817, Control_c, 0, 64, 127
2, 89860, Note_on_c, 0, 89, 100
2, 89937, Note_on_c, 0, 88, 101
2, 90015, Note_on_c, 0, 84, 99
2, 90081, Note_on_c, 0, 60, 102
2, 90081, Note_on_c, 0, 79, 98
2, 90082, Note_on_c, 0, 64, 106
2, 90083, Note_on_c, 0, 55, 101
2, 90088, Note_on_c, 0, 76, 91
2, 90094, Note_on_c, 0, 76, 0
2, 90153, Note_on_c, 0, 77, 95
2, 90231, Note_on_c, 0, 76, 100
2, 90299, Note_on_c, 0, 72, 99
2, 90361, Control_c, 0, 64, 0
2, 90369, Note_on_c, 0, 84, 0
2, 90369, Note_on_c, 0, 89, 0
2, 90369, Note_on_c, 0, 88, 0
2, 90370, Note_on_c, 0, 60, 0
2, 90371, Note_on_c, 0, 48, 0
2, 90371, Note_on_c, 0, 52, 0
2, 90371, Note_on_c, 0, 72, 0
2, 90372, Note_on_c, 0, 91, 0
2, 90372, Note_on_c, 0, 64, 0
2, 90372, Note_on_c, 0, 55, 0
2, 90372, Note_on_c, 0, 76, 0
2, 90373, Note_on_c, 0, 79, 0
2, 90373, Note_on_c, 0, 40, 0
2, 90407, Note_on_c, 0, 89, 113
2, 90408, Note_on_c, 0, 77, 0
2, 90411, Note_on_c, 0, 86, 105
2, 90412, Note_on_c, 0, 81, 107
2, 90412, Note_on_c, 0, 45, 98
2, 90412, Note_on_c, 0, 77, 108
2, 90413, Note_on_c, 0, 50, 105
2, 90415, Note_on_c, 0, 38, 98
2, 90432, Control_c, 0, 64, 127
2, 90678, Control_c, 0, 64, 0
2, 90678, Note_on_c, 0, 89, 0
2, 90679, Note_on_c, 0, 86, 0
2, 90679, Note_on_c, 0, 38, 0
2, 90680, Note_on_c, 0, 77, 0
2, 90680, Note_on_c, 0, 81, 0
2, 90680, Note_on_c, 0, 45, 0
2, 90682, Note_on_c, 0, 50, 0
2, 90726, Note_on_c, 0, 79, 110
2, 90727, Note_on_c, 0, 67, 106
2, 90846, Note_on_c, 0, 67, 0
2, 91015, Note_on_c, 0, 79, 0
2, 91034, Note_on_c, 0, 81, 109
2, 91035, Note_on_c, 0, 69, 106
2, 91054, Control_c, 0, 64, 127
2, 91170, Note_on_c, 0, 38, 91
2, 91173, Note_on_c, 0, 45, 92
2, 91185, Note_on_c, 0, 50, 93
2, 91306, Control_c, 0, 64, 0
2, 91309, Note_on_c, 0, 81, 0
2, 91310, Note_on_c, 0, 69, 0
2, 91310, Note_on_c, 0, 45, 0
2, 91310, Note_on_c, 0, 38, 0
2, 91311, Note_on_c, 0, 50, 0
2, 91343, Note_on_c, 0, 72, 110
2, 91344, Note_on_c, 0, 84, 110
2, 91347, Note_on_c, 0, 77, 99
2, 91350, Note_on_c, 0, 46, 108
2, 91356, Note_on_c, 0, 34, 99
2, 91356, Note_on_c, 0, 82, 99
2, 91392, Control_c, 0, 64, 127
2, 91817, Note_on_c, 0, 60, 102
2, 91818, Note_on_c, 0, 53, 92
2, 91818, Note_on_c, 0, 58, 102
2, 91964, Note_on_c, 0, 79, 109
2, 91968, Note_on_c, 0, 67, 103
2, 92106, Note_on_c, 0, 46, 0
2, 92106, Note_on_c, 0, 77, 0
2, 92117, Note_on_c, 0, 46, 100
2, 92117, Note_on_c, 0, 77, 105
2, 92118, Note_on_c, 0, 65, 104
2, 92259, Note_on_c, 0, 53, 0
2, 92259, Note_on_c, 0, 58, 0
2, 92259, Note_on_c, 0, 60, 0
2, 92261, Note_on_c, 0, 89, 108
2, 92265, Note_on_c, 0, 60, 104
2, 92271, Note_on_c, 0, 53, 96
2, 92271, Note_on_c, 0, 58, 101
2, 92313, Note_on_c, 0, 84, 0
2, 92318, Note_on_c, 0, 84, 88
2, 92375, Note_on_c, 0, 82, 0
2, 92380, Note_on_c, 0, 82, 97
2, 92451, Note_on_c, 0, 77, 0
2, 92457, Note_on_c, 0, 77, 88
2, 92513, Note_on_c, 0, 72, 0
2, 92518, Note_on_c, 0, 72, 97
2, 92559, Note_on_c, 0, 46, 0
2, 92567, Note_on_c, 0, 46, 98
2, 92571, Note_on_c, 0, 70, 76
2, 92728, Note_on_c, 0, 72, 0
2, 92737, Note_on_c, 0, 72, 97
2, 92837, Note_on_c, 0, 34, 0
2, 92839, Note_on_c, 0, 82, 0
2, 92839, Note_on_c, 0, 60, 0
2, 92839, Note_on_c, 0, 79, 0
2, 92839, Note_on_c, 0, 67, 0
2, 92839, Note_on_c, 0, 65, 0
2, 92839, Note_on_c, 0, 84, 0
2, 92839, Note_on_c, 0, 70, 0
2, 92839, Note_on_c, 0, 53, 0
2, 92840, Note_on_c, 0, 89, 0
2, 92840, Note_on_c, 0, 72, 0
2, 92841, Control_c, 0, 64, 0
2, 92858, Note_on_c, 0, 58, 0
2, 92866, Note_on_c, 0, 46, 0
2, 92874, Note_on_c, 0, 77, 0
2, 92885, Note_on_c, 0, 77, 105
2, 92886, Note_on_c, 0, 48, 106
2, 92886, Note_on_c, 0, 74, 102
2, 92889, Note_on_c, 0, 70, 93
2, 92891, Note_on_c, 0, 65, 102
2, 92892, Note_on_c, 0, 43, 101
2, 92893, Note_on_c, 0, 36, 100
2, 92904, Control_c, 0, 64, 127
2, 93027, Note_on_c, 0, 36, 0
2, 93027, Note_on_c, 0, 48, 0
2, 93032, Note_on_c, 0, 36, 84
2, 93033, Note_on_c, 0, 48, 91
2, 93102, Control_c, 0, 64, 0
2, 93109, Note_on_c, 0, 36, 0
2, 93109, Note_on_c, 0, 48, 0
2, 93110, Note_on_c, 0, 77, 0
2, 93110, Note_on_c, 0, 43, 0
2, 93110, Note_on_c, 0, 65, 0
2, 93111, Note_on_c, 0, 74, 0
2, 93150, Note_on_c, 0, 70, 0
2, 93199, Note_on_c, 0, 74, 106
2, 93200, Note_on_c, 0, 62, 100
2, 93253, Note_on_c, 0, 62, 0
2, 93262, Note_on_c, 0, 74, 0
2, 93357, Note_on_c, 0, 77, 107
2, 93360, Note_on_c, 0, 65, 107
2, 93542, Control_c, 0, 64, 127
2, 93588, Control_c, 0, 64, 0
2, 93634, Note_on_c, 0, 65, 0
2, 93663, Note_on_c, 0, 48, 92
2, 93668, Note_on_c, 0, 79, 106
2, 93669, Note_on_c, 0, 36, 90
2, 93670, Note_on_c, 0, 67, 100
2, 93672, Control_c, 0, 64, 127
2, 93776, Control_c, 0, 64, 0
2, 93780, Note_on_c, 0, 77, 0
2, 93783, Note_on_c, 0, 48, 0
2, 93783, Note_on_c, 0, 36, 0
2, 93784, Note_on_c, 0, 67, 0
2, 93784, Note_on_c, 0, 79, 0
2, 93830, Note_on_c, 0, 81, 107
2, 93831, Note_on_c, 0, 69, 105
2, 93832, Note_on_c, 0, 41, 103
2, 93836, Note_on_c, 0, 29, 104
2, 93837, Note_on_c, 0, 72, 103
2, 93837, Note_on_c, 0, 77, 92
2, 93949, Control_c, 0, 64, 127
2, 94080, Control_c, 0, 64, 0
2, 94164, Control_c, 0, 64, 127
2, 94302, Note_on_c, 0, 72, 0
2, 94305, Note_on_c, 0, 48, 104
2, 94305, Note_on_c, 0, 53, 104
2, 94312, Note_on_c, 0, 72, 104
2, 94377, Note_on_c, 0, 76, 88
2, 94440, Note_on_c, 0, 77, 0
2, 94452, Note_on_c, 0, 77, 71
2, 94506, Note_on_c, 0, 84, 84
2, 94571, Note_on_c, 0, 41, 0
2, 94576, Note_on_c, 0, 88, 100
2, 94578, Note_on_c, 0, 41, 96
2, 94647, Note_on_c, 0, 89, 97
2, 94766, Note_on_c, 0, 91, 111
2, 94766, Note_on_c, 0, 60, 104
2, 94766, Note_on_c, 0, 67, 105
2, 94767, Note_on_c, 0, 64, 106
2, 94768, Note_on_c, 0, 79, 105
2, 94832, Note_on_c, 0, 89, 0
2, 94841, Note_on_c, 0, 89, 104
2, 94901, Note_on_c, 0, 88, 0
2, 94905, Note_on_c, 0, 88, 96
2, 94963, Note_on_c, 0, 84, 0
2, 94973, Note_on_c, 0, 84, 93
2, 95059, Note_on_c, 0, 52, 100
2, 95061, Note_on_c, 0, 40, 97
2, 95109, Note_on_c, 0, 77, 0
2, 95118, Note_on_c, 0, 77, 84
2, 95162, Note_on_c, 0, 76, 0
2, 95172, Note_on_c, 0, 76, 85
2, 95224, Note_on_c, 0, 72, 0
2, 95231, Note_on_c, 0, 72, 83
2, 95339, Note_on_c, 0, 29, 0
2, 95339, Note_on_c, 0, 89, 0
2, 95339, Control_c, 0, 64, 0
2, 95340, Note_on_c, 0, 41, 0
2, 95340, Note_on_c, 0, 69, 0
2, 95341, Note_on_c, 0, 88, 0
2, 95341, Note_on_c, 0, 91, 0
2, 95341, Note_on_c, 0, 81, 0
2, 95341, Note_on_c, 0, 48, 0
2, 95341, Note_on_c, 0, 84, 0
2, 95341, Note_on_c, 0, 40, 0
2, 95341, Note_on_c, 0, 53, 0
2, 95342, Note_on_c, 0, 67, 0
2, 95342, Note_on_c, 0, 52, 0
2, 95342, Note_on_c, 0, 79, 0
2, 95342, Note_on_c, 0, 64, 0
2, 95342, Note_on_c, 0, 72, 0
2, 95342, Note_on_c, 0, 76, 0
2, 95354, Note_on_c, 0, 60, 0
2, 95377, Note_on_c, 0, 77, 0
2, 95381, Note_on_c, 0, 50, 107
2, 95382, Note_on_c, 0, 77, 108
2, 95383, Note_on_c, 0, 69, 103
2, 95386, Note_on_c, 0, 65, 103
2, 95386, Note_on_c, 0, 74, 102
2, 95387, Note_on_c, 0, 38, 98
2, 95431, Control_c, 0, 64, 127
2, 95447, Note_on_c, 0, 65, 0
2, 95462, Note_on_c, 0, 50, 0
2, 95523, Note_on_c, 0, 38, 0
2, 95530, Note_on_c, 0, 38, 82
2, 95531, Note_on_c, 0, 50, 91
2, 95534, Note_on_c, 0, 65, 86
2, 95621, Control_c, 0, 64, 0
2, 95650, Note_on_c, 0, 38, 0
2, 95650, Note_on_c, 0, 50, 0
2, 95651, Note_on_c, 0, 77, 0
2, 95651, Note_on_c, 0, 74, 0
2, 95651, Note_on_c, 0, 65, 0
2, 95669, Note_on_c, 0, 69, 0
2, 95700, Note_on_c, 0, 79, 108
2, 95702, Note_on_c, 0, 67, 105
2, 95869, Note_on_c, 0, 67, 0
2, 96006, Note_on_c, 0, 81, 107
2, 96009, Note_on_c, 0, 69, 106
2, 96023, Control_c, 0, 64, 127
2, 96148, Note_on_c, 0, 38, 92
2, 96172, Note_on_c, 0, 50, 88
2, 96245, Note_on_c, 0, 79, 0
2, 96298, Control_c, 0, 64, 0
2, 96307, Note_on_c, 0, 81, 0
2, 96308, Note_on_c, 0, 38, 0
2, 96309, Note_on_c, 0, 69, 0
2, 96310, Note_on_c, 0, 50, 0
2, 96315, Note_on_c, 0, 72, 109
2, 96316, Note_on_c, 0, 84, 109
2, 96318, Note_on_c, 0, 46, 108
2, 96318, Note_on_c, 0, 77, 97
2, 96319, Note_on_c, 0, 34, 99
2, 96323, Note_on_c, 0, 82, 97
2, 96407, Control_c, 0, 64, 127
2, 96783, Note_on_c, 0, 60, 101
2, 96786, Note_on_c, 0, 53, 92
2, 96786, Note_on_c, 0, 58, 100
2, 96936, Note_on_c, 0, 79, 108
2, 96939, Note_on_c, 0, 67, 101
2, 97075, Note_on_c, 0, 46, 0
2, 97075, Note_on_c, 0, 77, 0
2, 97080, Note_on_c, 0, 77, 105
2, 97081, Note_on_c, 0, 46, 100
2, 97082, Note_on_c, 0, 65, 105
2, 97236, Note_on_c, 0, 53, 0
2, 97236, Note_on_c, 0, 58, 0
2, 97236, Note_on_c, 0, 60, 0
2, 97236, Note_on_c, 0, 77, 0
2, 97237, Note_on_c, 0, 89, 106
2, 97242, Note_on_c, 0, 60, 104
2, 97242, Note_on_c, 0, 77, 92
2, 97245, Note_on_c, 0, 53, 95
2, 97247, Note_on_c, 0, 58, 98
2, 97282, Note_on_c, 0, 84, 0
2, 97289, Note_on_c, 0, 84, 90
2, 97336, Note_on_c, 0, 82, 0
2, 97341, Note_on_c, 0, 82, 98
2, 97390, Note_on_c, 0, 77, 0
2, 97401, Note_on_c, 0, 77, 91
2, 97459, Note_on_c, 0, 72, 0
2, 97463, Note_on_c, 0, 72, 98
2, 97528, Note_on_c, 0, 46, 0
2, 97530, Note_on_c, 0, 70, 86
2, 97532, Note_on_c, 0, 46, 93
2, 97534, Note_on_c, 0, 58, 0
2, 97582, Note_on_c, 0, 65, 0
2, 97591, Note_on_c, 0, 65, 90
2, 97681, Note_on_c, 0, 72, 0
2, 97690, Note_on_c, 0, 72, 97
2, 97787, Control_c, 0, 64, 0
2, 97791, Note_on_c, 0, 67, 0
2, 97791, Note_on_c, 0, 82, 0
2, 97792, Note_on_c, 0, 60, 0
2, 97792, Note_on_c, 0, 65, 0
2, 97792, Note_on_c, 0, 79, 0
2, 97792, Note_on_c, 0, 84, 0
2, 97792, Note_on_c, 0, 53, 0
2, 97792, Note_on_c, 0, 70, 0
2, 97793, Note_on_c, 0, 46, 0
2, 97793, Note_on_c, 0, 72, 0
2, 97804, Note_on_c, 0, 34, 0
2, 97804, Note_on_c, 0, 89, 0
2, 97812, Note_on_c, 0, 77, 0
2, 97855, Note_on_c, 0, 48, 106
2, 97858, Note_on_c, 0, 77, 102
2, 97861, Note_on_c, 0, 36, 102
2, 97861, Note_on_c, 0, 43, 100
2, 97861, Note_on_c, 0, 65, 103
2, 97861, Note_on_c, 0, 70, 99
2, 97861, Note_on_c, 0, 74, 100
2, 97896, Control_c, 0, 64, 127
2, 98171, Note_on_c, 0, 81, 101
2, 98172, Note_on_c, 0, 69, 99
2, 98325, Note_on_c, 0, 79, 109
2, 98327, Note_on_c, 0, 48, 0
2, 98330, Note_on_c, 0, 72, 102
2, 98330, Note_on_c, 0, 67, 102
2, 98331, Note_on_c, 0, 48, 92
2, 98331, Note_on_c, 0, 76, 101
2, 98476, Note_on_c, 0, 60, 101
2, 98477, Note_on_c, 0, 55, 95
2, 98478, Note_on_c, 0, 53, 96
2, 98764, Note_on_c, 0, 48, 0
2, 98773, Note_on_c, 0, 48, 91
2, 98795, Note_on_c, 0, 65, 0
2, 98795, Note_on_c, 0, 77, 0
2, 98800, Note_on_c, 0, 77, 106
2, 98804, Note_on_c, 0, 65, 107
2, 98956, Note_on_c, 0, 65, 0
2, 98956, Note_on_c, 0, 69, 0
2, 98956, Note_on_c, 0, 72, 0
2, 98956, Note_on_c, 0, 77, 0
2, 98961, Note_on_c, 0, 77, 103
2, 98962, Note_on_c, 0, 69, 103
2, 98963, Note_on_c, 0, 65, 100
2, 98966, Note_on_c, 0, 72, 99
2, 99025, Note_on_c, 0, 70, 0
2, 99025, Note_on_c, 0, 74, 0
2, 99029, Note_on_c, 0, 81, 0
2, 99029, Note_on_c, 0, 53, 0
2, 99029, Note_on_c, 0, 67, 0
2, 99030, Note_on_c, 0, 43, 0
2, 99030, Note_on_c, 0, 76, 0
2, 99030, Note_on_c, 0, 55, 0
2, 99030, Note_on_c, 0, 79, 0
2, 99031, Note_on_c, 0, 36, 0
2, 99037, Control_c, 0, 64, 0
2, 99116, Note_on_c, 0, 53, 100
2, 99117, Note_on_c, 0, 41, 102
2, 99179, Control_c, 0, 64, 127
2, 99421, Note_on_c, 0, 55, 100
2, 99571, Note_on_c, 0, 52, 102
2, 99574, Note_on_c, 0, 40, 93
2, 99617, Note_on_c, 0, 60, 0
2, 99754, Note_on_c, 0, 60, 102
2, 99901, Note_on_c, 0, 48, 0
2, 99905, Note_on_c, 0, 48, 91
2, 100055, Note_on_c, 0, 52, 0
2, 100063, Note_on_c, 0, 64, 106
2, 100064, Note_on_c, 0, 52, 94
2, 100344, Note_on_c, 0, 52, 0
2, 100344, Note_on_c, 0, 77, 0
2, 100344, Control_c, 0, 64, 0
2, 100345, Note_on_c, 0, 53, 0
2, 100345, Note_on_c, 0, 48, 0
2, 100345, Note_on_c, 0, 40, 0
2, 100346, Note_on_c, 0, 55, 0
2, 100346, Note_on_c, 0, 41, 0
2, 100346, Note_on_c, 0, 69, 0
2, 100348, Note_on_c, 0, 64, 0
2, 100354, Note_on_c, 0, 60, 0
2, 100354, Note_on_c, 0, 65, 0
2, 100364, Note_on_c, 0, 60, 100
2, 100365, Note_on_c, 0, 65, 104
2, 100365, Note_on_c, 0, 57, 99
2, 100369, Note_on_c, 0, 72, 0
2, 100370, Note_on_c, 0, 50, 100
2, 100373, Note_on_c, 0, 38, 102
2, 100423, Control_c, 0, 64, 127
2, 100543, Note_on_c, 0, 77, 91
2, 100694, Note_on_c, 0, 67, 105
2, 100703, Note_on_c, 0, 82, 91
2, 100830, Note_on_c, 0, 60, 0
2, 100841, Note_on_c, 0, 60, 98
2, 100847, Note_on_c, 0, 84, 92
2, 100984, Note_on_c, 0, 65, 0
2, 100993, Note_on_c, 0, 69, 105
2, 100995, Note_on_c, 0, 65, 104
2, 101002, Note_on_c, 0, 89, 99
2, 101137, Note_on_c, 0, 84, 0
2, 101145, Note_on_c, 0, 84, 90
2, 101303, Note_on_c, 0, 84, 0
2, 101304, Note_on_c, 0, 82, 0
2, 101306, Note_on_c, 0, 38, 0
2, 101306, Note_on_c, 0, 57, 0
2, 101308, Note_on_c, 0, 77, 0
2, 101308, Note_on_c, 0, 89, 0
2, 101309, Note_on_c, 0, 69, 0
2, 101310, Note_on_c, 0, 67, 0
2, 101314, Note_on_c, 0, 60, 0
2, 101317, Note_on_c, 0, 72, 107
2, 101318, Note_on_c, 0, 46, 108
2, 101318, Note_on_c, 0, 60, 100
2, 101318, Note_on_c, 0, 34, 99
2, 101322, Note_on_c, 0, 50, 0
2, 101324, Note_on_c, 0, 58, 101
2, 101333, Control_c, 0, 64, 0
2, 101337, Note_on_c, 0, 65, 0
2, 101383, Control_c, 0, 64, 127
2, 101460, Note_on_c, 0, 58, 0
2, 101502, Note_on_c, 0, 77, 84
2, 101642, Note_on_c, 0, 82, 90
2, 101801, Note_on_c, 0, 84, 98
2, 101809, Note_on_c, 0, 58, 92
2, 101944, Note_on_c, 0, 77, 0
2, 101948, Note_on_c, 0, 67, 101
2, 101948, Note_on_c, 0, 77, 98
2, 102090, Note_on_c, 0, 82, 0
2, 102095, Note_on_c, 0, 65, 103
2, 102098, Note_on_c, 0, 82, 102
2, 102249, Note_on_c, 0, 62, 97
2, 102251, Note_on_c, 0, 58, 0
2, 102256, Note_on_c, 0, 58, 94
2, 102270, Note_on_c, 0, 89, 101
2, 102420, Note_on_c, 0, 84, 0
2, 102427, Note_on_c, 0, 84, 91
2, 102566, Note_on_c, 0, 46, 0
2, 102566, Note_on_c, 0, 82, 0
2, 102571, Note_on_c, 0, 46, 101
2, 102573, Note_on_c, 0, 82, 98
2, 102704, Note_on_c, 0, 60, 0
2, 102713, Note_on_c, 0, 60, 103
2, 102863, Note_on_c, 0, 72, 0
2, 102863, Note_on_c, 0, 34, 0
2, 102863, Note_on_c, 0, 84, 0
2, 102863, Note_on_c, 0, 82, 0
2, 102863, Note_on_c, 0, 89, 0
2, 102863, Note_on_c, 0, 77, 0
2, 102865, Control_c, 0, 64, 0
2, 102865, Note_on_c, 0, 67, 0
2, 102866, Note_on_c, 0, 58, 0
2, 102866, Note_on_c, 0, 62, 0
2, 102866, Note_on_c, 0, 60, 0
2, 102867, Note_on_c, 0, 46, 0
2, 102872, Note_on_c, 0, 67, 101
2, 102876, Note_on_c, 0, 64, 102
2, 102883, Note_on_c, 0, 48, 104
2, 102884, Note_on_c, 0, 36, 96
2, 102888, Note_on_c, 0, 65, 0
2, 102927, Control_c, 0, 64, 127
2, 103048, Note_on_c, 0, 77, 94
2, 103192, Note_on_c, 0, 65, 99
2, 103192, Note_on_c, 0, 82, 100
2, 103326, Note_on_c, 0, 64, 0
2, 103326, Note_on_c, 0, 67, 0
2, 103336, Note_on_c, 0, 64, 102
2, 103337, Note_on_c, 0, 67, 103
2, 103337, Note_on_c, 0, 60, 98
2, 103339, Note_on_c, 0, 84, 99
2, 103494, Note_on_c, 0, 89, 104
2, 103649, Note_on_c, 0, 84, 0
2, 103655, Note_on_c, 0, 84, 103
2, 103787, Note_on_c, 0, 48, 0
2, 103791, Note_on_c, 0, 48, 94
2, 103793, Note_on_c, 0, 70, 101
2, 103956, Note_on_c, 0, 69, 107
2, 104027, Note_on_c, 0, 48, 0
2, 104029, Note_on_c, 0, 60, 0
2, 104029, Note_on_c, 0, 77, 0
2, 104029, Note_on_c, 0, 67, 0
2, 104029, Note_on_c, 0, 89, 0
2, 104029, Note_on_c, 0, 64, 0
2, 104029, Note_on_c, 0, 82, 0
2, 104030, Note_on_c, 0, 84, 0
2, 104030, Note_on_c, 0, 65, 0
2, 104030, Note_on_c, 0, 70, 0
2, 104036, Control_c, 0, 64, 0
2, 104040, Note_on_c, 0, 36, 0
2, 104093, Note_on_c, 0, 49, 99
2, 104096, Note_on_c, 0, 37, 98
2, 104117, Control_c, 0, 64, 127
2, 104258, Note_on_c, 0, 79, 94
2, 104404, Note_on_c, 0, 85, 100
2, 104558, Note_on_c, 0, 45, 100
2, 104562, Note_on_c, 0, 88, 101
2, 104727, Note_on_c, 0, 67, 106
2, 104727, Note_on_c, 0, 91, 110
2, 104727, Note_on_c, 0, 64, 104
2, 104727, Note_on_c, 0, 61, 102
2, 104862, Note_on_c, 0, 88, 0
2, 104873, Note_on_c, 0, 88, 93
2, 105000, Note_on_c, 0, 85, 0
2, 105011, Note_on_c, 0, 57, 103
2, 105011, Note_on_c, 0, 85, 97
2, 105170, Note_on_c, 0, 65, 104
2, 105271, Control_c, 0, 64, 0
2, 105272, Note_on_c, 0, 69, 0
2, 105272, Note_on_c, 0, 49, 0
2, 105272, Note_on_c, 0, 64, 0
2, 105272, Note_on_c, 0, 67, 0
2, 105272, Note_on_c, 0, 79, 0
2, 105272, Note_on_c, 0, 37, 0
2, 105273, Note_on_c, 0, 61, 0
2, 105273, Note_on_c, 0, 57, 0
2, 105273, Note_on_c, 0, 85, 0
2, 105273, Note_on_c, 0, 45, 0
2, 105277, Note_on_c, 0, 91, 0
2, 105308, Note_on_c, 0, 88, 0
2, 105315, Note_on_c, 0, 65, 0
2, 105325, Note_on_c, 0, 65, 103
2, 105326, Note_on_c, 0, 50, 104
2, 105327, Note_on_c, 0, 38, 101
2, 105354, Control_c, 0, 64, 127
2, 105496, Note_on_c, 0, 77, 89
2, 105619, Note_on_c, 0, 64, 102
2, 105631, Note_on_c, 0, 82, 98
2, 105784, Note_on_c, 0, 65, 0
2, 105791, Note_on_c, 0, 62, 99
2, 105792, Note_on_c, 0, 65, 106
2, 105792, Note_on_c, 0, 84, 99
2, 105793, Note_on_c, 0, 57, 105
2, 105830, Note_on_c, 0, 50, 0
2, 105944, Note_on_c, 0, 89, 106
2, 106099, Note_on_c, 0, 84, 0
2, 106105, Note_on_c, 0, 84, 102
2, 106245, Note_on_c, 0, 57, 0
2, 106249, Note_on_c, 0, 57, 102
2, 106250, Note_on_c, 0, 74, 107
2, 106391, Note_on_c, 0, 38, 0
2, 106411, Note_on_c, 0, 72, 111
2, 106463, Control_c, 0, 64, 0
2, 106466, Note_on_c, 0, 64, 0
2, 106466, Note_on_c, 0, 65, 0
2, 106467, Note_on_c, 0, 82, 0
2, 106467, Note_on_c, 0, 57, 0
2, 106467, Note_on_c, 0, 89, 0
2, 106467, Note_on_c, 0, 84, 0
2, 106467, Note_on_c, 0, 77, 0
2, 106468, Note_on_c, 0, 62, 0
2, 106469, Note_on_c, 0, 74, 0
2, 106564, Note_on_c, 0, 46, 105
2, 106567, Note_on_c, 0, 34, 96
2, 106583, Control_c, 0, 64, 127
2, 106718, Note_on_c, 0, 77, 93
2, 106854, Note_on_c, 0, 65, 104
2, 106857, Note_on_c, 0, 82, 101
2, 107013, Note_on_c, 0, 65, 0
2, 107016, Note_on_c, 0, 65, 107
2, 107017, Note_on_c, 0, 58, 98
2, 107018, Note_on_c, 0, 62, 95
2, 107022, Note_on_c, 0, 84, 103
2, 107187, Note_on_c, 0, 89, 104
2, 107351, Note_on_c, 0, 84, 0
2, 107354, Note_on_c, 0, 84, 89
2, 107466, Note_on_c, 0, 58, 0
2, 107471, Note_on_c, 0, 58, 100
2, 107473, Note_on_c, 0, 82, 0
2, 107478, Note_on_c, 0, 82, 105
2, 107638, Note_on_c, 0, 60, 102
2, 107762, Control_c, 0, 64, 0
2, 107765, Note_on_c, 0, 72, 0
2, 107767, Note_on_c, 0, 89, 0
2, 107767, Note_on_c, 0, 77, 0
2, 107767, Note_on_c, 0, 34, 0
2, 107767, Note_on_c, 0, 84, 0
2, 107768, Note_on_c, 0, 82, 0
2, 107768, Note_on_c, 0, 46, 0
2, 107768, Note_on_c, 0, 60, 0
2, 107768, Note_on_c, 0, 65, 0
2, 107769, Note_on_c, 0, 58, 0
2, 107775, Note_on_c, 0, 67, 104
2, 107777, Note_on_c, 0, 48, 107
2, 107780, Note_on_c, 0, 36, 100
2, 107781, Note_on_c, 0, 62, 0
2, 107819, Control_c, 0, 64, 127
2, 107933, Note_on_c, 0, 77, 94
2, 108086, Note_on_c, 0, 69, 102
2, 108091, Note_on_c, 0, 82, 94
2, 108234, Note_on_c, 0, 67, 0
2, 108243, Note_on_c, 0, 60, 101
2, 108244, Note_on_c, 0, 67, 105
2, 108245, Note_on_c, 0, 64, 100
2, 108245, Note_on_c, 0, 84, 102
2, 108401, Note_on_c, 0, 91, 110
2, 108549, Note_on_c, 0, 84, 0
2, 108554, Note_on_c, 0, 84, 92
2, 108686, Note_on_c, 0, 65, 103
2, 108833, Note_on_c, 0, 60, 0
2, 108833, Note_on_c, 0, 65, 0
2, 108841, Note_on_c, 0, 65, 100
2, 108842, Note_on_c, 0, 60, 92
2, 108844, Note_on_c, 0, 57, 100
2, 108946, Control_c, 0, 64, 0
2, 108963, Note_on_c, 0, 36, 0
2, 108983, Note_on_c, 0, 84, 0
2, 108989, Note_on_c, 0, 82, 0
2, 108991, Note_on_c, 0, 69, 0
2, 108993, Note_on_c, 0, 67, 0
2, 108994, Note_on_c, 0, 64, 0
2, 108994, Note_on_c, 0, 77, 0
2, 108994, Note_on_c, 0, 91, 0
2, 108998, Note_on_c, 0, 65, 0
2, 108998, Note_on_c, 0, 48, 0
2, 109000, Note_on_c, 0, 60, 0
2, 109005, Note_on_c, 0, 53, 97
2, 109006, Note_on_c, 0, 41, 99
2, 109040, Note_on_c, 0, 57, 0
2, 109086, Control_c, 0, 64, 127
2, 109160, Note_on_c, 0, 77, 95
2, 109320, Note_on_c, 0, 82, 91
2, 109455, Note_on_c, 0, 53, 0
2, 109463, Note_on_c, 0, 84, 91
2, 109465, Note_on_c, 0, 53, 88
2, 109613, Note_on_c, 0, 89, 102
2, 109620, Note_on_c, 0, 69, 91
2, 109621, Note_on_c, 0, 60, 78
2, 109924, Note_on_c, 0, 52, 91
2, 109927, Note_on_c, 0, 79, 92
2, 110077, Note_on_c, 0, 77, 0
2, 110088, Note_on_c, 0, 77, 97
2, 110100, Note_on_c, 0, 69, 0
2, 110104, Note_on_c, 0, 69, 84
2, 110105, Note_on_c, 0, 72, 75
2, 110246, Note_on_c, 0, 60, 0
2, 110249, Control_c, 0, 64, 0
2, 110256, Note_on_c, 0, 60, 83
2, 110265, Note_on_c, 0, 50, 86
2, 110266, Note_on_c, 0, 57, 75
2, 110273, Note_on_c, 0, 82, 0
2, 110274, Note_on_c, 0, 79, 0
2, 110274, Note_on_c, 0, 52, 0
2, 110275, Note_on_c, 0, 84, 0
2, 110275, Note_on_c, 0, 41, 0
2, 110275, Note_on_c, 0, 89, 0
2, 110300, Note_on_c, 0, 53, 0
2, 110492, Control_c, 0, 64, 127
2, 110568, Note_on_c, 0, 72, 0
2, 110568, Control_c, 0, 64, 0
2, 110582, Note_on_c, 0, 76, 81
2, 110699, Control_c, 0, 64, 127
2, 110730, Note_on_c, 0, 69, 0
2, 110730, Note_on_c, 0, 77, 0
2, 110734, Note_on_c, 0, 69, 84
2, 110737, Note_on_c, 0, 72, 67
2, 110738, Note_on_c, 0, 77, 91
2, 110778, Control_c, 0, 64, 0
2, 110807, Control_c, 0, 64, 127
2, 111240, Note_on_c, 0, 86, 91
2, 111398, Note_on_c, 0, 72, 0
2, 111398, Note_on_c, 0, 84, 99
2, 111405, Note_on_c, 0, 72, 80
2, 111406, Note_on_c, 0, 77, 0
2, 111416, Note_on_c, 0, 77, 67
2, 111419, Note_on_c, 0, 82, 68
2, 111548, Control_c, 0, 64, 0
2, 111552, Note_on_c, 0, 60, 0
2, 111553, Note_on_c, 0, 53, 64
2, 111555, Note_on_c, 0, 60, 67
2, 111570, Note_on_c, 0, 58, 70
2, 111571, Note_on_c, 0, 46, 65
2, 111590, Control_c, 0, 64, 127
2, 111603, Note_on_c, 0, 57, 0
2, 111603, Note_on_c, 0, 76, 0
2, 111603, Note_on_c, 0, 69, 0
2, 111621, Note_on_c, 0, 50, 0
2, 111621, Note_on_c, 0, 86, 0
2, 111866, Note_on_c, 0, 77, 0
2, 111874, Note_on_c, 0, 77, 86
2, 112043, Note_on_c, 0, 77, 0
2, 112048, Note_on_c, 0, 77, 84
2, 112120, Note_on_c, 0, 72, 0
2, 112694, Note_on_c, 0, 72, 77
2, 112842, Note_on_c, 0, 77, 0
2, 112846, Note_on_c, 0, 55, 58
2, 112846, Note_on_c, 0, 48, 55
2, 112848, Note_on_c, 0, 77, 86
2, 112854, Note_on_c, 0, 62, 64
2, 112875, Control_c, 0, 64, 0
2, 112892, Note_on_c, 0, 72, 0
2, 112892, Note_on_c, 0, 58, 0
2, 112892, Note_on_c, 0, 53, 0
2, 112892, Note_on_c, 0, 46, 0
2, 112894, Note_on_c, 0, 84, 0
2, 112903, Note_on_c, 0, 82, 0
2, 112911, Note_on_c, 0, 60, 0
2, 113026, Control_c, 0, 64, 127
2, 113169, Note_on_c, 0, 81, 93
2, 113328, Note_on_c, 0, 79, 92
2, 113341, Note_on_c, 0, 77, 0
2, 113493, Note_on_c, 0, 64, 65
2, 113530, Control_c, 0, 64, 0
2, 113579, Note_on_c, 0, 81, 0
2, 113594, Control_c, 0, 64, 127
2, 113617, Note_on_c, 0, 62, 0
2, 114961, Note_on_c, 0, 79, 0
2, 114967, Note_on_c, 0, 79, 79
2, 115758, Note_on_c, 0, 43, 50
2, 115766, Note_on_c, 0, 81, 89
2, 115767, Control_c, 0, 64, 0
2, 115779, Note_on_c, 0, 74, 64
2, 115780, Note_on_c, 0, 69, 59
2, 115785, Note_on_c, 0, 71, 59
2, 115791, Note_on_c, 0, 71, 0
2, 115791, Control_c, 0, 64, 127
2, 115837, Note_on_c, 0, 55, 0
2, 115837, Note_on_c, 0, 64, 0
2, 115845, Note_on_c, 0, 48, 0
2, 115914, Note_on_c, 0, 79, 0
2, 115945, Note_on_c, 0, 50, 50
2, 116113, Note_on_c, 0, 57, 53
2, 116268, Note_on_c, 0, 62, 66
2, 116574, Note_on_c, 0, 50, 0
2, 116579, Note_on_c, 0, 50, 52
2, 116743, Note_on_c, 0, 57, 0
2, 116753, Note_on_c, 0, 57, 62
2, 116889, Note_on_c, 0, 62, 0
2, 116897, Note_on_c, 0, 62, 65
2, 117039, Note_on_c, 0, 45, 68
2, 117190, Note_on_c, 0, 52, 71
2, 117335, Note_on_c, 0, 57, 0
2, 117338, Note_on_c, 0, 57, 66
2, 117473, Note_on_c, 0, 62, 0
2, 117483, Note_on_c, 0, 62, 86
2, 117637, Note_on_c, 0, 61, 90
2, 117811, Note_on_c, 0, 52, 0
2, 117811, Note_on_c, 0, 61, 0
2, 117817, Note_on_c, 0, 61, 66
2, 117819, Note_on_c, 0, 52, 59
2, 117972, Note_on_c, 0, 57, 0
2, 117981, Note_on_c, 0, 57, 68
2, 118110, Note_on_c, 0, 62, 0
2, 118121, Note_on_c, 0, 62, 68
2, 118192, Note_on_c, 0, 64, 73
2, 118256, Note_on_c, 0, 62, 0
2, 118264, Note_on_c, 0, 47, 72
2, 118266, Note_on_c, 0, 62, 89
2, 118292, Control_c, 0, 64, 0
2, 118300, Note_on_c, 0, 50, 0
2, 118301, Note_on_c, 0, 43, 0
2, 118301, Note_on_c, 0, 61, 0
2, 118301, Note_on_c, 0, 57, 0
2, 118302, Note_on_c, 0, 52, 0
2, 118303, Note_on_c, 0, 74, 0
2, 118303, Note_on_c, 0, 64, 0
2, 118303, Note_on_c, 0, 69, 0
2, 118304, Note_on_c, 0, 45, 0
2, 118304, Note_on_c, 0, 81, 0
2, 118414, Note_on_c, 0, 54, 69
2, 118417, Control_c, 0, 64, 127
2, 118576, Note_on_c, 0, 57, 73
2, 118740, Note_on_c, 0, 62, 0
2, 118748, Note_on_c, 0, 62, 65
2, 119040, Note_on_c, 0, 54, 0
2, 119044, Note_on_c, 0, 54, 67
2, 119193, Note_on_c, 0, 57, 0
2, 119199, Note_on_c, 0, 57, 71
2, 119339, Note_on_c, 0, 62, 0
2, 119344, Note_on_c, 0, 62, 79
2, 119477, Note_on_c, 0, 47, 0
2, 119486, Note_on_c, 0, 47, 80
2, 119631, Note_on_c, 0, 57, 0
2, 119641, Note_on_c, 0, 57, 75
2, 119642, Note_on_c, 0, 66, 80
2, 119794, Note_on_c, 0, 67, 79
2, 119796, Note_on_c, 0, 59, 66
2, 119937, Note_on_c, 0, 61, 75
2, 119938, Note_on_c, 0, 69, 93
2, 120084, Note_on_c, 0, 62, 0
2, 120087, Note_on_c, 0, 71, 96
2, 120090, Note_on_c, 0, 62, 75
2, 120224, Note_on_c, 0, 73, 100
2, 120233, Note_on_c, 0, 64, 78
2, 120376, Note_on_c, 0, 66, 0
2, 120381, Note_on_c, 0, 74, 100
2, 120383, Note_on_c, 0, 66, 87
2, 120522, Note_on_c, 0, 67, 0
2, 120525, Note_on_c, 0, 76, 98
2, 120532, Note_on_c, 0, 67, 82
2, 120687, Control_c, 0, 64, 0
2, 120687, Note_on_c, 0, 90, 105
2, 120688, Note_on_c, 0, 78, 99
2, 120688, Note_on_c, 0, 47, 0
2, 120688, Note_on_c, 0, 55, 87
2, 120689, Note_on_c, 0, 59, 0
2, 120690, Note_on_c, 0, 61, 0
2, 120690, Note_on_c, 0, 62, 0
2, 120691, Note_on_c, 0, 69, 0
2, 120692, Note_on_c, 0, 54, 0
2, 120692, Note_on_c, 0, 64, 0
2, 120692, Note_on_c, 0, 73, 0
2, 120692, Note_on_c, 0, 66, 0
2, 120693, Note_on_c, 0, 71, 0
2, 120693, Note_on_c, 0, 76, 0
2, 120694, Note_on_c, 0, 74, 0
2, 120706, Note_on_c, 0, 57, 0
2, 120714, Note_on_c, 0, 67, 0
2, 120834, Note_on_c, 0, 62, 73
2, 120837, Control_c, 0, 64, 127
2, 120992, Note_on_c, 0, 69, 57
2, 121161, Note_on_c, 0, 74, 81
2, 121172, Note_on_c, 0, 71, 57
2, 121459, Note_on_c, 0, 62, 0
2, 121470, Note_on_c, 0, 62, 65
2, 121612, Note_on_c, 0, 69, 0
2, 121619, Note_on_c, 0, 69, 66
2, 121766, Note_on_c, 0, 71, 0
2, 121766, Note_on_c, 0, 74, 0
2, 121771, Note_on_c, 0, 74, 84
2, 121775, Note_on_c, 0, 71, 67
2, 121928, Note_on_c, 0, 57, 90
2, 121929, Note_on_c, 0, 93, 106
2, 121939, Note_on_c, 0, 81, 99
2, 121939, Control_c, 0, 64, 0
2, 121942, Note_on_c, 0, 69, 0
2, 121944, Note_on_c, 0, 55, 0
2, 121946, Note_on_c, 0, 78, 0
2, 121946, Note_on_c, 0, 74, 0
2, 121981, Note_on_c, 0, 71, 0
2, 121989, Note_on_c, 0, 62, 0
2, 121996, Note_on_c, 0, 90, 0
2, 122058, Control_c, 0, 64, 127
2, 122091, Note_on_c, 0, 64, 61
2, 122243, Note_on_c, 0, 69, 60
2, 122391, Note_on_c, 0, 74, 80
2, 122392, Note_on_c, 0, 71, 64
2, 122548, Note_on_c, 0, 88, 102
2, 122553, Note_on_c, 0, 76, 95
2, 122688, Note_on_c, 0, 64, 0
2, 122698, Note_on_c, 0, 64, 67
2, 122849, Note_on_c, 0, 69, 0
2, 122854, Note_on_c, 0, 69, 61
2, 122987, Note_on_c, 0, 71, 0
2, 122992, Note_on_c, 0, 71, 78
2, 122995, Note_on_c, 0, 74, 0
2, 123000, Note_on_c, 0, 74, 89
2, 123159, Note_on_c, 0, 90, 106
2, 123160, Note_on_c, 0, 59, 80
2, 123161, Note_on_c, 0, 78, 99
2, 123173, Control_c, 0, 64, 0
2, 123174, Note_on_c, 0, 93, 0
2, 123175, Note_on_c, 0, 57, 0
2, 123175, Note_on_c, 0, 81, 0
2, 123175, Note_on_c, 0, 69, 0
2, 123175, Note_on_c, 0, 71, 0
2, 123175, Note_on_c, 0, 74, 0
2, 123175, Note_on_c, 0, 76, 0
2, 123175, Note_on_c, 0, 88, 0
2, 123187, Note_on_c, 0, 64, 0
2, 123256, Control_c, 0, 64, 127
2, 123320, Note_on_c, 0, 66, 69
2, 123466, Note_on_c, 0, 69, 64
2, 123618, Note_on_c, 0, 74, 83
2, 123620, Note_on_c, 0, 71, 63
2, 123924, Note_on_c, 0, 66, 0
2, 123935, Note_on_c, 0, 66, 69
2, 124085, Note_on_c, 0, 69, 0
2, 124089, Note_on_c, 0, 69, 65
2, 124224, Note_on_c, 0, 71, 0
2, 124224, Note_on_c, 0, 74, 0
2, 124233, Note_on_c, 0, 74, 62
2, 124235, Note_on_c, 0, 71, 70
2, 124403, Note_on_c, 0, 93, 103
2, 124410, Note_on_c, 0, 81, 90
2, 124416, Note_on_c, 0, 73, 81
2, 124435, Note_on_c, 0, 85, 51
2, 124715, Note_on_c, 0, 69, 0
2, 124726, Note_on_c, 0, 69, 62
2, 125053, Note_on_c, 0, 81, 0
2, 125058, Note_on_c, 0, 81, 87
2, 125591, Note_on_c, 0, 69, 0
2, 125595, Note_on_c, 0, 69, 67
2, 125737, Note_on_c, 0, 55, 61
2, 125741, Note_on_c, 0, 76, 81
2, 125764, Control_c, 0, 64, 0
2, 125806, Control_c, 0, 64, 127
2, 125891, Note_on_c, 0, 62, 54
2, 126044, Note_on_c, 0, 69, 0
2, 126044, Note_on_c, 0, 74, 0
2, 126048, Note_on_c, 0, 74, 82
2, 126050, Note_on_c, 0, 69, 63
2, 126197, Note_on_c, 0, 71, 0
2, 126197, Note_on_c, 0, 76, 0
2, 126207, Note_on_c, 0, 76, 82
2, 126208, Note_on_c, 0, 71, 68
2, 126366, Note_on_c, 0, 81, 0
2, 126374, Note_on_c, 0, 81, 92
2, 126497, Note_on_c, 0, 62, 0
2, 126506, Note_on_c, 0, 62, 59
2, 126658, Note_on_c, 0, 69, 0
2, 126658, Note_on_c, 0, 78, 0
2, 126668, Note_on_c, 0, 78, 82
2, 126668, Note_on_c, 0, 69, 62
2, 126812, Note_on_c, 0, 71, 0
2, 126819, Note_on_c, 0, 69, 0
2, 126819, Note_on_c, 0, 76, 0
2, 126823, Note_on_c, 0, 71, 75
2, 126823, Note_on_c, 0, 76, 89
2, 126829, Note_on_c, 0, 69, 63
2, 126835, Note_on_c, 0, 85, 0
2, 126975, Note_on_c, 0, 57, 75
2, 126977, Control_c, 0, 64, 0
2, 126980, Note_on_c, 0, 59, 0
2, 126981, Note_on_c, 0, 90, 0
2, 126981, Note_on_c, 0, 93, 0
2, 126981, Note_on_c, 0, 69, 0
2, 126982, Note_on_c, 0, 62, 0
2, 126982, Note_on_c, 0, 55, 0
2, 126982, Note_on_c, 0, 66, 0
2, 126982, Note_on_c, 0, 74, 0
2, 126982, Note_on_c, 0, 81, 0
2, 126996, Note_on_c, 0, 73, 0
2, 127019, Note_on_c, 0, 78, 0
2, 127057, Control_c, 0, 64, 127
2, 127126, Note_on_c, 0, 64, 60
2, 127271, Note_on_c, 0, 74, 83
2, 127273, Note_on_c, 0, 69, 66
2, 127426, Note_on_c, 0, 71, 0
2, 127426, Note_on_c, 0, 74, 0
2, 127434, Note_on_c, 0, 69, 0
2, 127434, Note_on_c, 0, 74, 83
2, 127436, Note_on_c, 0, 71, 70
2, 127438, Note_on_c, 0, 69, 58
2, 127584, Note_on_c, 0, 85, 95
2, 127741, Note_on_c, 0, 64, 0
2, 127745, Note_on_c, 0, 64, 55
2, 127872, Note_on_c, 0, 69, 0
2, 127883, Note_on_c, 0, 69, 68
2, 128033, Note_on_c, 0, 69, 0
2, 128037, Note_on_c, 0, 69, 74
2, 128179, Note_on_c, 0, 76, 0
2, 128186, Note_on_c, 0, 69, 0
2, 128190, Note_on_c, 0, 76, 95
2, 128190, Note_on_c, 0, 59, 74
2, 128194, Note_on_c, 0, 69, 68
2, 128229, Note_on_c, 0, 71, 0
2, 128229, Note_on_c, 0, 64, 0
2, 128229, Control_c, 0, 64, 0
2, 128229, Note_on_c, 0, 57, 0
2, 128230, Note_on_c, 0, 74, 0
2, 128231, Note_on_c, 0, 85, 0
2, 128286, Control_c, 0, 64, 127
2, 128334, Note_on_c, 0, 66, 68
2, 128494, Note_on_c, 0, 69, 0
2, 128498, Note_on_c, 0, 74, 91
2, 128504, Note_on_c, 0, 69, 69
2, 128640, Note_on_c, 0, 76, 0
2, 128645, Note_on_c, 0, 71, 78
2, 128646, Note_on_c, 0, 76, 94
2, 128816, Note_on_c, 0, 81, 97
2, 128939, Note_on_c, 0, 66, 0
2, 128950, Note_on_c, 0, 66, 69
2, 129100, Note_on_c, 0, 69, 0
2, 129100, Note_on_c, 0, 74, 0
2, 129106, Note_on_c, 0, 74, 95
2, 129110, Note_on_c, 0, 69, 73
2, 129254, Note_on_c, 0, 71, 0
2, 129254, Note_on_c, 0, 76, 0
2, 129259, Note_on_c, 0, 71, 82
2, 129261, Note_on_c, 0, 76, 96
2, 129413, Note_on_c, 0, 54, 88
2, 129450, Control_c, 0, 64, 0
2, 129452, Note_on_c, 0, 59, 0
2, 129538, Control_c, 0, 64, 127
2, 129546, Note_on_c, 0, 69, 0
2, 129569, Note_on_c, 0, 64, 73
2, 129592, Note_on_c, 0, 66, 0
2, 129653, Note_on_c, 0, 71, 0
2, 129717, Note_on_c, 0, 78, 84
2, 129719, Note_on_c, 0, 69, 82
2, 129861, Note_on_c, 0, 78, 0
2, 129870, Note_on_c, 0, 73, 88
2, 129872, Note_on_c, 0, 78, 81
2, 130022, Note_on_c, 0, 85, 95
2, 130106, Note_on_c, 0, 74, 0
2, 130145, Note_on_c, 0, 64, 0
2, 130155, Note_on_c, 0, 64, 67
2, 130306, Note_on_c, 0, 69, 0
2, 130316, Note_on_c, 0, 69, 77
2, 130467, Note_on_c, 0, 69, 0
2, 130471, Note_on_c, 0, 69, 85
2, 130628, Note_on_c, 0, 74, 98
2, 130630, Note_on_c, 0, 55, 86
2, 130656, Note_on_c, 0, 69, 0
2, 130658, Note_on_c, 0, 54, 0
2, 130658, Note_on_c, 0, 85, 0
2, 130659, Note_on_c, 0, 81, 0
2, 130660, Note_on_c, 0, 73, 0
2, 130665, Control_c, 0, 64, 0
2, 130675, Note_on_c, 0, 64, 0
2, 130675, Note_on_c, 0, 76, 0
2, 130682, Note_on_c, 0, 78, 0
2, 130744, Control_c, 0, 64, 127
2, 130778, Note_on_c, 0, 62, 70
2, 130935, Note_on_c, 0, 76, 97
2, 130938, Note_on_c, 0, 69, 82
2, 131081, Note_on_c, 0, 71, 82
2, 131239, Note_on_c, 0, 78, 99
2, 131241, Note_on_c, 0, 81, 97
2, 131389, Note_on_c, 0, 62, 0
2, 131395, Note_on_c, 0, 62, 69
2, 131527, Note_on_c, 0, 76, 0
2, 131535, Note_on_c, 0, 69, 0
2, 131536, Note_on_c, 0, 76, 89
2, 131543, Note_on_c, 0, 69, 74
2, 131688, Note_on_c, 0, 71, 0
2, 131696, Note_on_c, 0, 76, 0
2, 131700, Note_on_c, 0, 71, 83
2, 131702, Note_on_c, 0, 76, 92
2, 131851, Control_c, 0, 64, 0
2, 131853, Note_on_c, 0, 69, 0
2, 131853, Note_on_c, 0, 74, 0
2, 131853, Note_on_c, 0, 62, 0
2, 131853, Note_on_c, 0, 81, 0
2, 131853, Note_on_c, 0, 78, 0
2, 131853, Note_on_c, 0, 57, 81
2, 131853, Note_on_c, 0, 55, 0
2, 131942, Control_c, 0, 64, 127
2, 131995, Note_on_c, 0, 64, 64
2, 132135, Note_on_c, 0, 74, 75
2, 132136, Note_on_c, 0, 69, 73
2, 132303, Note_on_c, 0, 71, 0
2, 132303, Note_on_c, 0, 74, 0
2, 132311, Note_on_c, 0, 71, 83
2, 132312, Note_on_c, 0, 74, 89
2, 132461, Note_on_c, 0, 85, 94
2, 132602, Note_on_c, 0, 64, 0
2, 132609, Note_on_c, 0, 64, 62
2, 132748, Note_on_c, 0, 69, 0
2, 132754, Note_on_c, 0, 69, 70
2, 132894, Note_on_c, 0, 69, 0
2, 132905, Note_on_c, 0, 69, 96
2, 133056, Note_on_c, 0, 74, 0
2, 133060, Note_on_c, 0, 74, 95
2, 133073, Note_on_c, 0, 59, 83
2, 133089, Control_c, 0, 64, 0
2, 133091, Note_on_c, 0, 71, 0
2, 133092, Note_on_c, 0, 64, 0
2, 133093, Note_on_c, 0, 85, 0
2, 133093, Note_on_c, 0, 57, 0
2, 133109, Note_on_c, 0, 76, 0
2, 133163, Control_c, 0, 64, 127
2, 133218, Note_on_c, 0, 66, 88
2, 133248, Note_on_c, 0, 69, 0
2, 133357, Note_on_c, 0, 69, 91
2, 133493, Note_on_c, 0, 74, 0
2, 133505, Note_on_c, 0, 74, 98
2, 133665, Note_on_c, 0, 81, 100
2, 133824, Note_on_c, 0, 66, 0
2, 133829, Note_on_c, 0, 76, 91
2, 133829, Note_on_c, 0, 66, 72
2, 133969, Note_on_c, 0, 69, 0
2, 133976, Note_on_c, 0, 69, 69
2, 133980, Note_on_c, 0, 78, 93
2, 134131, Note_on_c, 0, 76, 0
2, 134133, Note_on_c, 0, 73, 77
2, 134135, Note_on_c, 0, 76, 97
2, 134261, Control_c, 0, 64, 0
2, 134269, Control_c, 0, 64, 127
2, 134291, Note_on_c, 0, 54, 83
2, 134421, Note_on_c, 0, 98, 104
2, 134426, Note_on_c, 0, 86, 89
2, 134449, Note_on_c, 0, 61, 70
2, 134581, Note_on_c, 0, 64, 78
2, 134585, Note_on_c, 0, 97, 105
2, 134586, Note_on_c, 0, 85, 94
2, 134722, Note_on_c, 0, 98, 0
2, 134730, Note_on_c, 0, 69, 0
2, 134730, Note_on_c, 0, 86, 0
2, 134732, Note_on_c, 0, 98, 108
2, 134734, Note_on_c, 0, 69, 87
2, 134735, Note_on_c, 0, 86, 97
2, 134876, Note_on_c, 0, 81, 0
2, 134879, Note_on_c, 0, 93, 105
2, 134882, Note_on_c, 0, 71, 88
2, 134882, Note_on_c, 0, 81, 101
2, 135014, Note_on_c, 0, 73, 0
2, 135021, Note_on_c, 0, 91, 106
2, 135025, Note_on_c, 0, 79, 102
2, 135025, Note_on_c, 0, 73, 93
2, 135160, Note_on_c, 0, 74, 0
2, 135168, Note_on_c, 0, 78, 0
2, 135168, Note_on_c, 0, 74, 99
2, 135177, Note_on_c, 0, 90, 102
2, 135178, Note_on_c, 0, 78, 102
2, 135313, Note_on_c, 0, 74, 0
2, 135313, Note_on_c, 0, 86, 0
2, 135324, Note_on_c, 0, 86, 106
2, 135324, Note_on_c, 0, 74, 103
2, 135423, Note_on_c, 0, 98, 0
2, 135423, Note_on_c, 0, 71, 0
2, 135424, Note_on_c, 0, 81, 0
2, 135424, Note_on_c, 0, 93, 0
2, 135425, Note_on_c, 0, 66, 0
2, 135425, Note_on_c, 0, 86, 0
2, 135425, Note_on_c, 0, 74, 0
2, 135425, Note_on_c, 0, 69, 0
2, 135425, Note_on_c, 0, 91, 0
2, 135425, Note_on_c, 0, 79, 0
2, 135425, Note_on_c, 0, 97, 0
2, 135425, Note_on_c, 0, 73, 0
2, 135425, Note_on_c, 0, 59, 0
2, 135425, Note_on_c, 0, 61, 0
2, 135425, Note_on_c, 0, 76, 0
2, 135425, Note_on_c, 0, 78, 0
2, 135425, Note_on_c, 0, 54, 0
2, 135425, Note_on_c, 0, 64, 0
2, 135425, Note_on_c, 0, 85, 0
2, 135426, Note_on_c, 0, 90, 0
2, 135427, Control_c, 0, 64, 0
2, 135477, Note_on_c, 0, 88, 108
2, 135478, Note_on_c, 0, 76, 106
2, 135479, Note_on_c, 0, 69, 100
2, 135482, Note_on_c, 0, 62, 84
2, 135482, Note_on_c, 0, 55, 93
2, 135521, Control_c, 0, 64, 127
2, 135598, Note_on_c, 0, 76, 0
2, 135621, Note_on_c, 0, 55, 0
2, 135621, Note_on_c, 0, 62, 0
2, 135621, Note_on_c, 0, 69, 0
2, 135628, Note_on_c, 0, 69, 88
2, 135631, Note_on_c, 0, 62, 80
2, 135632, Note_on_c, 0, 55, 83
2, 135680, Control_c, 0, 64, 0
2, 135707, Note_on_c, 0, 62, 0
2, 135709, Note_on_c, 0, 55, 0
2, 135709, Note_on_c, 0, 69, 0
2, 135728, Note_on_c, 0, 88, 0
2, 135781, Note_on_c, 0, 86, 98
2, 135784, Note_on_c, 0, 74, 82
2, 135830, Note_on_c, 0, 74, 0
2, 135889, Control_c, 0, 64, 127
2, 135937, Note_on_c, 0, 88, 107
2, 135939, Note_on_c, 0, 76, 103
2, 135974, Control_c, 0, 64, 0
2, 136058, Control_c, 0, 64, 127
2, 136197, Note_on_c, 0, 86, 0
2, 136242, Note_on_c, 0, 69, 97
2, 136247, Note_on_c, 0, 62, 86
2, 136247, Note_on_c, 0, 55, 90
2, 136389, Note_on_c, 0, 90, 103
2, 136389, Note_on_c, 0, 78, 104
2, 136535, Note_on_c, 0, 88, 0
2, 136542, Note_on_c, 0, 76, 0
2, 136545, Note_on_c, 0, 88, 109
2, 136546, Note_on_c, 0, 76, 104
2, 136548, Note_on_c, 0, 81, 99
2, 136624, Control_c, 0, 64, 0
2, 136629, Note_on_c, 0, 69, 0
2, 136630, Note_on_c, 0, 62, 0
2, 136631, Note_on_c, 0, 55, 0
2, 136631, Note_on_c, 0, 90, 0
2, 136680, Control_c, 0, 64, 127
2, 136692, Note_on_c, 0, 57, 103
2, 136693, Note_on_c, 0, 52, 95
2, 136694, Note_on_c, 0, 45, 104
2, 136926, Note_on_c, 0, 57, 0
2, 136931, Note_on_c, 0, 62, 90
2, 136935, Note_on_c, 0, 57, 82
2, 136988, Note_on_c, 0, 86, 106
2, 136990, Note_on_c, 0, 74, 103
2, 137172, Note_on_c, 0, 62, 0
2, 137172, Note_on_c, 0, 74, 0
2, 137172, Note_on_c, 0, 86, 0
2, 137176, Note_on_c, 0, 64, 98
2, 137180, Note_on_c, 0, 62, 97
2, 137182, Note_on_c, 0, 74, 105
2, 137183, Note_on_c, 0, 86, 106
2, 137307, Note_on_c, 0, 69, 101
2, 137341, Note_on_c, 0, 64, 0
2, 137347, Note_on_c, 0, 64, 91
2, 137441, Note_on_c, 0, 57, 0
2, 137449, Note_on_c, 0, 57, 92
2, 137495, Note_on_c, 0, 52, 0
2, 137506, Note_on_c, 0, 52, 58
2, 137594, Note_on_c, 0, 45, 0
2, 137602, Note_on_c, 0, 78, 0
2, 137602, Note_on_c, 0, 45, 98
2, 137763, Note_on_c, 0, 69, 0
2, 137772, Note_on_c, 0, 69, 94
2, 137917, Note_on_c, 0, 76, 0
2, 137922, Note_on_c, 0, 47, 95
2, 137928, Note_on_c, 0, 76, 102
2, 137948, Note_on_c, 0, 69, 0
2, 137953, Note_on_c, 0, 69, 49
2, 137955, Note_on_c, 0, 57, 0
2, 137955, Note_on_c, 0, 81, 0
2, 137957, Note_on_c, 0, 86, 0
2, 137957, Note_on_c, 0, 52, 0
2, 137958, Control_c, 0, 64, 0
2, 137959, Note_on_c, 0, 62, 0
2, 137959, Note_on_c, 0, 45, 0
2, 137963, Note_on_c, 0, 88, 0
2, 137971, Note_on_c, 0, 64, 0
2, 137971, Note_on_c, 0, 74, 0
2, 137986, Note_on_c, 0, 69, 0
2, 138032, Control_c, 0, 64, 127
2, 138096, Note_on_c, 0, 54, 73
2, 138238, Note_on_c, 0, 74, 100
2, 138242, Note_on_c, 0, 57, 86
2, 138370, Note_on_c, 0, 76, 0
2, 138381, Note_on_c, 0, 76, 98
2, 138383, Note_on_c, 0, 62, 75
2, 138543, Note_on_c, 0, 93, 109
2, 138544, Note_on_c, 0, 81, 103
2, 138677, Note_on_c, 0, 54, 0
2, 138686, Note_on_c, 0, 54, 76
2, 138839, Note_on_c, 0, 57, 0
2, 138839, Note_on_c, 0, 81, 0
2, 138849, Note_on_c, 0, 81, 105
2, 138849, Note_on_c, 0, 57, 85
2, 138977, Note_on_c, 0, 62, 0
2, 138982, Note_on_c, 0, 62, 79
2, 138992, Note_on_c, 0, 76, 0
2, 138996, Note_on_c, 0, 76, 105
2, 139143, Note_on_c, 0, 42, 99
2, 139151, Control_c, 0, 64, 0
2, 139156, Note_on_c, 0, 54, 0
2, 139157, Note_on_c, 0, 47, 0
2, 139158, Note_on_c, 0, 93, 0
2, 139159, Note_on_c, 0, 74, 0
2, 139159, Note_on_c, 0, 62, 0
2, 139176, Note_on_c, 0, 57, 0
2, 139192, Note_on_c, 0, 81, 0
2, 139207, Control_c, 0, 64, 127
2, 139311, Note_on_c, 0, 52, 81
2, 139440, Note_on_c, 0, 74, 102
2, 139453, Note_on_c, 0, 57, 94
2, 139591, Note_on_c, 0, 74, 0
2, 139595, Note_on_c, 0, 74, 104
2, 139598, Note_on_c, 0, 61, 88
2, 139755, Note_on_c, 0, 85, 108
2, 139755, Note_on_c, 0, 97, 110
2, 139891, Note_on_c, 0, 52, 0
2, 139895, Note_on_c, 0, 52, 81
2, 140037, Note_on_c, 0, 57, 0
2, 140045, Note_on_c, 0, 57, 75
2, 140175, Note_on_c, 0, 61, 0
2, 140180, Note_on_c, 0, 61, 75
2, 140210, Note_on_c, 0, 69, 84
2, 140359, Note_on_c, 0, 74, 0
2, 140369, Note_on_c, 0, 74, 104
2, 140370, Note_on_c, 0, 40, 86
2, 140371, Note_on_c, 0, 71, 88
2, 140375, Note_on_c, 0, 67, 89
2, 140385, Note_on_c, 0, 97, 0
2, 140386, Note_on_c, 0, 52, 0
2, 140386, Control_c, 0, 64, 0
2, 140386, Note_on_c, 0, 69, 0
2, 140387, Note_on_c, 0, 57, 0
2, 140387, Note_on_c, 0, 85, 0
2, 140388, Note_on_c, 0, 61, 0
2, 140393, Note_on_c, 0, 42, 0
2, 140436, Note_on_c, 0, 76, 0
2, 140459, Control_c, 0, 64, 127
2, 140496, Note_on_c, 0, 47, 83
2, 140500, Note_on_c, 0, 59, 77
2, 140678, Note_on_c, 0, 76, 102
2, 140815, Note_on_c, 0, 55, 90
2, 140972, Note_on_c, 0, 78, 104
2, 140978, Note_on_c, 0, 69, 95
2, 140978, Note_on_c, 0, 73, 94
2, 140982, Note_on_c, 0, 42, 89
2, 140987, Note_on_c, 0, 54, 87
2, 140997, Note_on_c, 0, 59, 0
2, 141000, Note_on_c, 0, 76, 0
2, 141000, Note_on_c, 0, 71, 0
2, 141000, Note_on_c, 0, 40, 0
2, 141000, Note_on_c, 0, 67, 0
2, 141000, Note_on_c, 0, 47, 0
2, 141001, Note_on_c, 0, 55, 0
2, 141005, Control_c, 0, 64, 0
2, 141012, Note_on_c, 0, 74, 0
2, 141066, Control_c, 0, 64, 127
2, 141089, Note_on_c, 0, 54, 0
2, 141117, Note_on_c, 0, 50, 86
2, 141285, Note_on_c, 0, 79, 102
2, 141427, Note_on_c, 0, 57, 105
2, 141427, Note_on_c, 0, 50, 0
2, 141427, Note_on_c, 0, 69, 0
2, 141434, Note_on_c, 0, 78, 0
2, 141435, Note_on_c, 0, 81, 107
2, 141437, Note_on_c, 0, 69, 96
2, 141438, Note_on_c, 0, 50, 78
2, 141438, Note_on_c, 0, 74, 99
2, 141440, Note_on_c, 0, 78, 99
2, 141517, Note_on_c, 0, 73, 0
2, 141517, Note_on_c, 0, 42, 0
2, 141518, Note_on_c, 0, 79, 0
2, 141525, Control_c, 0, 64, 0
2, 141580, Note_on_c, 0, 50, 0
2, 141585, Note_on_c, 0, 50, 93
2, 141586, Note_on_c, 0, 43, 97
2, 141590, Note_on_c, 0, 55, 91
2, 141619, Control_c, 0, 64, 127
2, 141882, Note_on_c, 0, 79, 103
2, 142032, Note_on_c, 0, 45, 99
2, 142033, Note_on_c, 0, 78, 0
2, 142035, Note_on_c, 0, 52, 93
2, 142037, Control_c, 0, 64, 0
2, 142040, Note_on_c, 0, 78, 100
2, 142048, Note_on_c, 0, 74, 0
2, 142049, Note_on_c, 0, 57, 0
2, 142049, Note_on_c, 0, 43, 0
2, 142072, Control_c, 0, 64, 127
2, 142084, Note_on_c, 0, 76, 66
2, 142087, Note_on_c, 0, 81, 0
2, 142187, Note_on_c, 0, 76, 0
2, 142191, Note_on_c, 0, 57, 97
2, 142193, Note_on_c, 0, 76, 103
2, 142233, Note_on_c, 0, 59, 77
2, 142299, Note_on_c, 0, 61, 87
2, 142337, Note_on_c, 0, 74, 105
2, 142360, Note_on_c, 0, 62, 95
2, 142418, Note_on_c, 0, 64, 93
2, 142469, Note_on_c, 0, 66, 102
2, 142523, Note_on_c, 0, 67, 98
2, 142571, Note_on_c, 0, 69, 0
2, 142577, Note_on_c, 0, 69, 95
2, 142640, Note_on_c, 0, 74, 0
2, 142649, Note_on_c, 0, 74, 89
2, 142720, Note_on_c, 0, 81, 95
2, 142801, Note_on_c, 0, 50, 0
2, 142801, Note_on_c, 0, 59, 0
2, 142806, Note_on_c, 0, 43, 96
2, 142806, Note_on_c, 0, 59, 101
2, 142806, Note_on_c, 0, 50, 97
2, 142813, Note_on_c, 0, 86, 106
2, 142814, Control_c, 0, 64, 0
2, 142817, Note_on_c, 0, 52, 0
2, 142818, Note_on_c, 0, 62, 0
2, 142819, Note_on_c, 0, 74, 0
2, 142819, Note_on_c, 0, 67, 0
2, 142819, Note_on_c, 0, 76, 0
2, 142819, Note_on_c, 0, 64, 0
2, 142819, Note_on_c, 0, 66, 0
2, 142820, Note_on_c, 0, 45, 0
2, 142820, Note_on_c, 0, 69, 0
2, 142820, Note_on_c, 0, 61, 0
2, 142820, Note_on_c, 0, 57, 0
2, 142821, Note_on_c, 0, 81, 0
2, 142824, Note_on_c, 0, 79, 0
2, 142832, Note_on_c, 0, 78, 0
2, 142848, Control_c, 0, 64, 127
2, 142855, Note_on_c, 0, 55, 0
2, 142890, Note_on_c, 0, 85, 97
2, 142975, Note_on_c, 0, 83, 93
2, 143052, Note_on_c, 0, 81, 95
2, 143115, Note_on_c, 0, 79, 89
2, 143206, Note_on_c, 0, 78, 81
2, 143272, Note_on_c, 0, 76, 82
2, 143353, Note_on_c, 0, 74, 86
2, 143439, Note_on_c, 0, 81, 0
2, 143445, Note_on_c, 0, 81, 95
2, 143448, Note_on_c, 0, 62, 105
2, 143516, Note_on_c, 0, 79, 0
2, 143521, Note_on_c, 0, 79, 86
2, 143592, Note_on_c, 0, 78, 0
2, 143597, Note_on_c, 0, 78, 74
2, 143646, Note_on_c, 0, 76, 0
2, 143655, Note_on_c, 0, 76, 79
2, 143708, Note_on_c, 0, 74, 0
2, 143719, Note_on_c, 0, 74, 80
2, 143811, Note_on_c, 0, 73, 74
2, 143884, Note_on_c, 0, 71, 80
2, 143976, Note_on_c, 0, 69, 74
2, 144069, Note_on_c, 0, 74, 0
2, 144075, Note_on_c, 0, 45, 103
2, 144076, Note_on_c, 0, 74, 97
2, 144130, Note_on_c, 0, 73, 0
2, 144138, Note_on_c, 0, 73, 92
2, 144192, Note_on_c, 0, 71, 0
2, 144202, Note_on_c, 0, 71, 79
2, 144261, Note_on_c, 0, 69, 0
2, 144271, Note_on_c, 0, 69, 80
2, 144327, Note_on_c, 0, 67, 62
2, 144372, Note_on_c, 0, 61, 96
2, 144418, Note_on_c, 0, 66, 82
2, 144491, Note_on_c, 0, 64, 76
2, 144529, Note_on_c, 0, 59, 0
2, 144534, Note_on_c, 0, 59, 104
2, 144568, Note_on_c, 0, 62, 0
2, 144576, Note_on_c, 0, 61, 0
2, 144577, Note_on_c, 0, 62, 77
2, 144580, Note_on_c, 0, 61, 73
2, 144660, Note_on_c, 0, 69, 0
2, 144669, Note_on_c, 0, 69, 94
2, 144737, Note_on_c, 0, 67, 0
2, 144741, Note_on_c, 0, 67, 53
2, 144775, Note_on_c, 0, 66, 0
2, 144780, Note_on_c, 0, 66, 74
2, 144828, Note_on_c, 0, 57, 98
2, 144852, Note_on_c, 0, 64, 0
2, 144856, Note_on_c, 0, 64, 70
2, 144906, Note_on_c, 0, 62, 0
2, 144914, Note_on_c, 0, 62, 76
2, 144967, Note_on_c, 0, 61, 0
2, 144976, Note_on_c, 0, 61, 76
2, 144998, Note_on_c, 0, 50, 0
2, 145006, Note_on_c, 0, 50, 86
2, 145044, Note_on_c, 0, 59, 0
2, 145049, Note_on_c, 0, 59, 67
2, 145098, Note_on_c, 0, 57, 0
2, 145102, Note_on_c, 0, 57, 65
2, 145147, Note_on_c, 0, 52, 82
2, 145159, Note_on_c, 0, 50, 0
2, 145170, Note_on_c, 0, 50, 70
2, 145302, Note_on_c, 0, 35, 97
2, 145306, Note_on_c, 0, 54, 98
2, 145306, Note_on_c, 0, 81, 0
2, 145306, Note_on_c, 0, 43, 0
2, 145306, Note_on_c, 0, 57, 0
2, 145307, Note_on_c, 0, 45, 0
2, 145307, Note_on_c, 0, 83, 0
2, 145307, Note_on_c, 0, 76, 0
2, 145307, Note_on_c, 0, 64, 0
2, 145307, Note_on_c, 0, 78, 0
2, 145307, Note_on_c, 0, 59, 0
2, 145308, Note_on_c, 0, 79, 0
2, 145308, Note_on_c, 0, 86, 0
2, 145308, Note_on_c, 0, 85, 0
2, 145308, Note_on_c, 0, 52, 0
2, 145308, Note_on_c, 0, 66, 0
2, 145308, Note_on_c, 0, 69, 0
2, 145308, Note_on_c, 0, 62, 0
2, 145308, Note_on_c, 0, 50, 0
2, 145308, Note_on_c, 0, 61, 0
2, 145308, Note_on_c, 0, 73, 0
2, 145308, Note_on_c, 0, 74, 0
2, 145308, Note_on_c, 0, 67, 0
2, 145311, Control_c, 0, 64, 0
2, 145320, Note_on_c, 0, 71, 0
2, 145382, Control_c, 0, 64, 127
2, 145482, Note_on_c, 0, 57, 91
2, 145563, Note_on_c, 0, 59, 87
2, 145636, Note_on_c, 0, 61, 86
2, 145705, Note_on_c, 0, 62, 90
2, 145782, Note_on_c, 0, 64, 92
2, 145857, Note_on_c, 0, 66, 91
2, 145929, Note_on_c, 0, 47, 104
2, 145931, Note_on_c, 0, 67, 88
2, 146002, Note_on_c, 0, 69, 96
2, 146079, Note_on_c, 0, 71, 88
2, 146149, Note_on_c, 0, 73, 97
2, 146220, Note_on_c, 0, 74, 99
2, 146288, Note_on_c, 0, 76, 90
2, 146365, Note_on_c, 0, 57, 0
2, 146369, Note_on_c, 0, 78, 87
2, 146372, Note_on_c, 0, 57, 102
2, 146440, Note_on_c, 0, 81, 96
2, 146542, Note_on_c, 0, 66, 0
2, 146549, Note_on_c, 0, 85, 102
2, 146551, Note_on_c, 0, 66, 109
2, 146633, Note_on_c, 0, 86, 102
2, 146703, Note_on_c, 0, 81, 0
2, 146708, Note_on_c, 0, 81, 90
2, 146780, Note_on_c, 0, 79, 92
2, 146849, Note_on_c, 0, 67, 0
2, 146849, Note_on_c, 0, 78, 0
2, 146854, Note_on_c, 0, 67, 98
2, 146857, Note_on_c, 0, 78, 94
2, 146926, Note_on_c, 0, 79, 0
2, 146936, Note_on_c, 0, 79, 85
2, 147002, Note_on_c, 0, 66, 0
2, 147002, Note_on_c, 0, 78, 0
2, 147007, Note_on_c, 0, 66, 106
2, 147008, Note_on_c, 0, 78, 82
2, 147064, Note_on_c, 0, 74, 0
2, 147072, Note_on_c, 0, 74, 97
2, 147148, Note_on_c, 0, 73, 0
2, 147157, Note_on_c, 0, 73, 92
2, 147225, Note_on_c, 0, 74, 0
2, 147234, Note_on_c, 0, 74, 88
2, 147310, Note_on_c, 0, 64, 0
2, 147310, Note_on_c, 0, 69, 0
2, 147316, Note_on_c, 0, 69, 88
2, 147319, Note_on_c, 0, 64, 104
2, 147386, Note_on_c, 0, 67, 0
2, 147391, Note_on_c, 0, 67, 76
2, 147463, Note_on_c, 0, 62, 0
2, 147463, Note_on_c, 0, 66, 0
2, 147468, Note_on_c, 0, 66, 94
2, 147469, Note_on_c, 0, 62, 97
2, 147563, Note_on_c, 0, 64, 0
2, 147572, Note_on_c, 0, 64, 80
2, 147632, Note_on_c, 0, 66, 0
2, 147644, Note_on_c, 0, 66, 86
2, 147694, Note_on_c, 0, 69, 0
2, 147705, Note_on_c, 0, 69, 81
2, 147763, Note_on_c, 0, 74, 0
2, 147770, Note_on_c, 0, 74, 101
2, 147770, Note_on_c, 0, 54, 0
2, 147771, Note_on_c, 0, 43, 103
2, 147774, Note_on_c, 0, 47, 0
2, 147776, Note_on_c, 0, 79, 0
2, 147776, Note_on_c, 0, 66, 0
2, 147776, Note_on_c, 0, 71, 0
2, 147776, Note_on_c, 0, 73, 0
2, 147776, Note_on_c, 0, 76, 0
2, 147776, Note_on_c, 0, 78, 0
2, 147776, Note_on_c, 0, 59, 0
2, 147776, Note_on_c, 0, 64, 0
2, 147776, Note_on_c, 0, 67, 0
2, 147776, Note_on_c, 0, 81, 0
2, 147776, Control_c, 0, 64, 0
2, 147777, Note_on_c, 0, 69, 0
2, 147778, Note_on_c, 0, 61, 0
2, 147778, Note_on_c, 0, 86, 0
2, 147779, Note_on_c, 0, 57, 0
2, 147779, Note_on_c, 0, 62, 0
2, 147780, Note_on_c, 0, 85, 0
2, 147809, Control_c, 0, 64, 127
2, 147836, Note_on_c, 0, 73, 94
2, 147840, Note_on_c, 0, 35, 0
2, 147909, Note_on_c, 0, 74, 0
2, 147918, Note_on_c, 0, 74, 92
2, 147981, Note_on_c, 0, 71, 78
2, 148066, Note_on_c, 0, 69, 85
2, 148142, Note_on_c, 0, 67, 77
2, 148228, Note_on_c, 0, 66, 75
2, 148235, Note_on_c, 0, 50, 83
2, 148305, Note_on_c, 0, 62, 78
2, 148377, Note_on_c, 0, 50, 0
2, 148381, Note_on_c, 0, 64, 94
2, 148384, Note_on_c, 0, 50, 87
2, 148446, Note_on_c, 0, 62, 0
2, 148456, Note_on_c, 0, 62, 92
2, 148523, Note_on_c, 0, 64, 0
2, 148531, Note_on_c, 0, 52, 90
2, 148533, Note_on_c, 0, 64, 88
2, 148600, Note_on_c, 0, 66, 0
2, 148610, Note_on_c, 0, 66, 75
2, 148692, Note_on_c, 0, 67, 0
2, 148699, Note_on_c, 0, 67, 83
2, 148699, Note_on_c, 0, 54, 88
2, 148769, Note_on_c, 0, 69, 0
2, 148776, Note_on_c, 0, 69, 87
2, 148838, Note_on_c, 0, 73, 0
2, 148844, Note_on_c, 0, 57, 102
2, 148845, Note_on_c, 0, 73, 93
2, 148907, Note_on_c, 0, 74, 0
2, 148913, Note_on_c, 0, 74, 91
2, 148992, Note_on_c, 0, 76, 100
2, 148997, Note_on_c, 0, 45, 106
2, 149003, Note_on_c, 0, 62, 0
2, 149003, Note_on_c, 0, 71, 0
2, 149003, Note_on_c, 0, 67, 0
2, 149004, Note_on_c, 0, 69, 0
2, 149004, Note_on_c, 0, 52, 0
2, 149004, Note_on_c, 0, 64, 0
2, 149004, Note_on_c, 0, 50, 0
2, 149004, Note_on_c, 0, 54, 0
2, 149004, Note_on_c, 0, 43, 0
2, 149004, Note_on_c, 0, 57, 0
2, 149004, Note_on_c, 0, 73, 0
2, 149004, Note_on_c, 0, 66, 0
2, 149004, Control_c, 0, 64, 0
2, 149053, Note_on_c, 0, 74, 0
2, 149057, Note_on_c, 0, 74, 94
2, 149091, Control_c, 0, 64, 127
2, 149137, Note_on_c, 0, 76, 0
2, 149142, Note_on_c, 0, 76, 88
2, 149219, Note_on_c, 0, 73, 86
2, 149305, Note_on_c, 0, 69, 80
2, 149306, Note_on_c, 0, 54, 91
2, 149379, Note_on_c, 0, 67, 78
2, 149471, Note_on_c, 0, 52, 96
2, 149472, Note_on_c, 0, 66, 85
2, 149539, Note_on_c, 0, 62, 77
2, 149620, Note_on_c, 0, 64, 96
2, 149698, Note_on_c, 0, 62, 0
2, 149706, Note_on_c, 0, 62, 82
2, 149775, Note_on_c, 0, 64, 0
2, 149785, Note_on_c, 0, 50, 90
2, 149786, Note_on_c, 0, 64, 76
2, 149852, Note_on_c, 0, 66, 0
2, 149858, Note_on_c, 0, 66, 80
2, 149936, Note_on_c, 0, 69, 0
2, 149944, Note_on_c, 0, 50, 0
2, 149947, Note_on_c, 0, 69, 86
2, 149948, Note_on_c, 0, 50, 92
2, 149998, Note_on_c, 0, 73, 0
2, 150003, Note_on_c, 0, 73, 92
2, 150074, Note_on_c, 0, 74, 0
2, 150080, Note_on_c, 0, 74, 90
2, 150136, Note_on_c, 0, 76, 0
2, 150144, Note_on_c, 0, 76, 89
2, 150243, Note_on_c, 0, 78, 105
2, 150246, Note_on_c, 0, 35, 98
2, 150264, Control_c, 0, 64, 0
2, 150272, Note_on_c, 0, 67, 0
2, 150272, Note_on_c, 0, 64, 0
2, 150273, Note_on_c, 0, 66, 0
2, 150273, Note_on_c, 0, 52, 0
2, 150273, Note_on_c, 0, 54, 0
2, 150274, Note_on_c, 0, 73, 0
2, 150275, Note_on_c, 0, 74, 0
2, 150282, Note_on_c, 0, 45, 0
2, 150289, Note_on_c, 0, 62, 0
2, 150305, Note_on_c, 0, 69, 0
2, 150312, Note_on_c, 0, 76, 0
2, 150320, Note_on_c, 0, 76, 96
2, 150343, Control_c, 0, 64, 127
2, 150385, Note_on_c, 0, 74, 85
2, 150453, Note_on_c, 0, 73, 76
2, 150515, Note_on_c, 0, 69, 79
2, 150587, Note_on_c, 0, 67, 70
2, 150657, Note_on_c, 0, 66, 77
2, 150748, Note_on_c, 0, 62, 79
2, 150840, Note_on_c, 0, 64, 97
2, 150867, Note_on_c, 0, 47, 95
2, 150912, Note_on_c, 0, 66, 0
2, 150918, Note_on_c, 0, 66, 69
2, 150973, Note_on_c, 0, 67, 0
2, 150984, Note_on_c, 0, 67, 80
2, 151050, Note_on_c, 0, 69, 0
2, 151057, Note_on_c, 0, 69, 88
2, 151139, Note_on_c, 0, 71, 78
2, 151203, Note_on_c, 0, 73, 0
2, 151207, Note_on_c, 0, 73, 83
2, 151303, Note_on_c, 0, 74, 0
2, 151308, Note_on_c, 0, 74, 91
2, 151388, Note_on_c, 0, 76, 0
2, 151395, Note_on_c, 0, 76, 83
2, 151480, Note_on_c, 0, 78, 0
2, 151491, Note_on_c, 0, 78, 99
2, 151493, Note_on_c, 0, 57, 101
2, 151496, Note_on_c, 0, 54, 90
2, 151514, Control_c, 0, 64, 0
2, 151521, Note_on_c, 0, 73, 0
2, 151523, Note_on_c, 0, 64, 0
2, 151523, Note_on_c, 0, 69, 0
2, 151524, Note_on_c, 0, 71, 0
2, 151525, Note_on_c, 0, 76, 0
2, 151527, Note_on_c, 0, 66, 0
2, 151541, Note_on_c, 0, 67, 0
2, 151549, Note_on_c, 0, 35, 0
2, 151549, Note_on_c, 0, 50, 0
2, 151557, Note_on_c, 0, 62, 0
2, 151557, Note_on_c, 0, 74, 0
2, 151564, Note_on_c, 0, 74, 78
2, 151587, Control_c, 0, 64, 127
2, 151656, Note_on_c, 0, 73, 85
2, 151726, Note_on_c, 0, 74, 0
2, 151735, Note_on_c, 0, 74, 88
2, 151816, Note_on_c, 0, 71, 88
2, 151895, Note_on_c, 0, 74, 0
2, 151906, Note_on_c, 0, 74, 83
2, 151976, Control_c, 0, 64, 0
2, 151983, Note_on_c, 0, 81, 96
2, 151985, Note_on_c, 0, 59, 97
2, 152017, Control_c, 0, 64, 127
2, 152109, Note_on_c, 0, 76, 86
2, 152179, Note_on_c, 0, 78, 0
2, 152183, Note_on_c, 0, 78, 87
2, 152248, Note_on_c, 0, 74, 0
2, 152252, Note_on_c, 0, 74, 90
2, 152317, Note_on_c, 0, 78, 0
2, 152328, Note_on_c, 0, 78, 75
2, 152417, Note_on_c, 0, 85, 102
2, 152423, Note_on_c, 0, 61, 95
2, 152424, Note_on_c, 0, 57, 0
2, 152434, Note_on_c, 0, 57, 93
2, 152494, Note_on_c, 0, 76, 0
2, 152499, Note_on_c, 0, 76, 72
2, 152563, Note_on_c, 0, 78, 0
2, 152568, Note_on_c, 0, 78, 72
2, 152640, Note_on_c, 0, 81, 0
2, 152645, Note_on_c, 0, 81, 75
2, 152747, Note_on_c, 0, 74, 0
2, 152747, Note_on_c, 0, 86, 99
2, 152748, Note_on_c, 0, 55, 83
2, 152752, Control_c, 0, 64, 0
2, 152752, Note_on_c, 0, 74, 81
2, 152758, Note_on_c, 0, 71, 0
2, 152758, Note_on_c, 0, 59, 0
2, 152759, Note_on_c, 0, 76, 0
2, 152759, Note_on_c, 0, 57, 0
2, 152760, Note_on_c, 0, 81, 0
2, 152760, Note_on_c, 0, 85, 0
2, 152760, Note_on_c, 0, 61, 0
2, 152770, Note_on_c, 0, 73, 0
2, 152778, Note_on_c, 0, 47, 0
2, 152778, Note_on_c, 0, 54, 0
2, 152893, Control_c, 0, 64, 127
2, 152896, Note_on_c, 0, 62, 61
2, 153062, Note_on_c, 0, 86, 0
2, 153065, Note_on_c, 0, 69, 61
2, 153067, Note_on_c, 0, 86, 74
2, 153229, Note_on_c, 0, 85, 77
2, 153246, Note_on_c, 0, 71, 57
2, 153725, Note_on_c, 0, 83, 79
2, 153876, Note_on_c, 0, 74, 0
2, 153878, Note_on_c, 0, 81, 88
2, 153886, Note_on_c, 0, 74, 70
2, 153894, Note_on_c, 0, 76, 68
2, 153953, Control_c, 0, 64, 0
2, 154027, Note_on_c, 0, 57, 72
2, 154035, Note_on_c, 0, 55, 0
2, 154037, Note_on_c, 0, 69, 0
2, 154038, Note_on_c, 0, 78, 0
2, 154039, Note_on_c, 0, 62, 0
2, 154039, Note_on_c, 0, 86, 0
2, 154039, Note_on_c, 0, 74, 0
2, 154040, Note_on_c, 0, 71, 0
2, 154041, Note_on_c, 0, 85, 0
2, 154041, Note_on_c, 0, 83, 0
2, 154083, Control_c, 0, 64, 127
2, 154180, Note_on_c, 0, 64, 60
2, 154329, Note_on_c, 0, 76, 0
2, 154333, Note_on_c, 0, 76, 73
2, 154356, Note_on_c, 0, 71, 57
2, 154498, Note_on_c, 0, 76, 0
2, 154502, Note_on_c, 0, 73, 69
2, 154506, Note_on_c, 0, 76, 81
2, 154974, Note_on_c, 0, 57, 0
2, 154984, Note_on_c, 0, 57, 79
2, 155128, Note_on_c, 0, 76, 0
2, 155136, Note_on_c, 0, 76, 82
2, 155292, Note_on_c, 0, 85, 96
2, 155297, Note_on_c, 0, 73, 0
2, 155300, Note_on_c, 0, 58, 76
2, 155304, Note_on_c, 0, 73, 80
2, 155304, Note_on_c, 0, 76, 0
2, 155309, Note_on_c, 0, 66, 64
2, 155314, Note_on_c, 0, 76, 66
2, 155316, Control_c, 0, 64, 0
2, 155318, Note_on_c, 0, 64, 0
2, 155320, Note_on_c, 0, 71, 0
2, 155321, Note_on_c, 0, 81, 0
2, 155321, Note_on_c, 0, 57, 0
2, 155458, Control_c, 0, 64, 127
2, 155630, Note_on_c, 0, 83, 88
2, 155758, Note_on_c, 0, 85, 0
2, 155767, Note_on_c, 0, 85, 97
2, 155927, Note_on_c, 0, 73, 0
2, 155934, Note_on_c, 0, 66, 0
2, 155936, Note_on_c, 0, 73, 69
2, 155938, Note_on_c, 0, 70, 59
2, 155939, Note_on_c, 0, 66, 61
2, 156208, Note_on_c, 0, 86, 81
2, 156264, Note_on_c, 0, 88, 88
2, 156403, Note_on_c, 0, 86, 0
2, 156407, Note_on_c, 0, 86, 94
2, 156415, Note_on_c, 0, 74, 82
2, 156429, Note_on_c, 0, 78, 73
2, 156587, Note_on_c, 0, 66, 0
2, 156589, Note_on_c, 0, 59, 61
2, 156590, Note_on_c, 0, 69, 66
2, 156591, Note_on_c, 0, 66, 57
2, 156593, Note_on_c, 0, 58, 0
2, 156595, Note_on_c, 0, 76, 0
2, 156607, Note_on_c, 0, 73, 0
2, 156611, Note_on_c, 0, 85, 0
2, 156618, Note_on_c, 0, 83, 0
2, 156625, Note_on_c, 0, 70, 0
2, 156633, Note_on_c, 0, 88, 0
2, 156635, Control_c, 0, 64, 0
2, 156702, Control_c, 0, 64, 127
2, 157248, Note_on_c, 0, 66, 0
2, 157248, Note_on_c, 0, 69, 0
2, 157248, Note_on_c, 0, 74, 0
2, 157251, Note_on_c, 0, 74, 52
2, 157252, Note_on_c, 0, 69, 58
2, 157253, Note_on_c, 0, 66, 51
2, 157590, Note_on_c, 0, 62, 69
2, 157733, Note_on_c, 0, 64, 70
2, 157900, Note_on_c, 0, 59, 0
2, 157900, Note_on_c, 0, 66, 0
2, 157906, Note_on_c, 0, 52, 46
2, 157906, Note_on_c, 0, 66, 70
2, 157906, Note_on_c, 0, 59, 50
2, 157906, Note_on_c, 0, 55, 54
2, 157931, Note_on_c, 0, 78, 0
2, 157936, Control_c, 0, 64, 0
2, 157946, Note_on_c, 0, 69, 0
2, 157948, Note_on_c, 0, 86, 0
2, 157949, Note_on_c, 0, 64, 0
2, 158008, Note_on_c, 0, 74, 0
2, 158217, Note_on_c, 0, 67, 73
2, 158261, Note_on_c, 0, 66, 0
2, 158375, Note_on_c, 0, 66, 72
2, 158404, Note_on_c, 0, 67, 0
2, 158553, Control_c, 0, 64, 127
2, 158878, Note_on_c, 0, 64, 69
2, 159022, Note_on_c, 0, 62, 0
2, 159031, Note_on_c, 0, 62, 67
2, 159200, Note_on_c, 0, 54, 52
2, 159201, Note_on_c, 0, 57, 59
2, 159217, Note_on_c, 0, 55, 0
2, 159217, Note_on_c, 0, 52, 0
2, 159218, Control_c, 0, 64, 0
2, 159219, Note_on_c, 0, 64, 0
2, 159237, Note_on_c, 0, 59, 0
2, 159352, Note_on_c, 0, 66, 0
2, 159413, Control_c, 0, 64, 127
2, 159697, Note_on_c, 0, 57, 0
2, 159703, Note_on_c, 0, 69, 102
2, 159703, Note_on_c, 0, 57, 105
2, 159732, Control_c, 0, 64, 0
2, 159782, Control_c, 0, 64, 127
2, 159843, Note_on_c, 0, 62, 0
2, 159854, Note_on_c, 0, 74, 109
2, 159855, Note_on_c, 0, 62, 100
2, 159997, Note_on_c, 0, 69, 0
2, 160007, Note_on_c, 0, 81, 109
2, 160008, Note_on_c, 0, 69, 106
2, 160128, Note_on_c, 0, 54, 0
2, 160130, Control_c, 0, 64, 0
2, 160155, Note_on_c, 0, 50, 91
2, 160158, Control_c, 0, 64, 127
2, 160196, Note_on_c, 0, 52, 85
2, 160237, Note_on_c, 0, 53, 90
2, 160271, Note_on_c, 0, 55, 96
2, 160397, Control_c, 0, 64, 0
2, 160405, Note_on_c, 0, 81, 0
2, 160406, Note_on_c, 0, 74, 0
2, 160406, Note_on_c, 0, 53, 0
2, 160407, Note_on_c, 0, 69, 0
2, 160407, Note_on_c, 0, 52, 0
2, 160408, Note_on_c, 0, 50, 0
2, 160408, Note_on_c, 0, 57, 0
2, 160409, Note_on_c, 0, 55, 0
2, 160419, Note_on_c, 0, 62, 0
2, 160470, Note_on_c, 0, 81, 107
2, 160472, Note_on_c, 0, 69, 102
2, 160475, Note_on_c, 0, 74, 103
2, 160476, Note_on_c, 0, 50, 92
2, 160477, Note_on_c, 0, 53, 96
2, 160477, Note_on_c, 0, 57, 102
2, 160477, Note_on_c, 0, 46, 93
2, 160478, Note_on_c, 0, 77, 91
2, 160519, Control_c, 0, 64, 127
2, 160770, Note_on_c, 0, 34, 83
2, 160773, Note_on_c, 0, 81, 0
2, 160780, Note_on_c, 0, 69, 0
2, 160783, Note_on_c, 0, 81, 105
2, 160787, Note_on_c, 0, 69, 100
2, 160827, Control_c, 0, 64, 0
2, 160846, Note_on_c, 0, 57, 0
2, 160848, Note_on_c, 0, 74, 0
2, 160849, Note_on_c, 0, 81, 0
2, 160850, Note_on_c, 0, 77, 0
2, 160851, Note_on_c, 0, 69, 0
2, 160852, Note_on_c, 0, 46, 0
2, 160852, Note_on_c, 0, 34, 0
2, 160852, Note_on_c, 0, 53, 0
2, 160853, Note_on_c, 0, 50, 0
2, 160938, Note_on_c, 0, 57, 104
2, 160941, Note_on_c, 0, 53, 91
2, 160943, Note_on_c, 0, 79, 106
2, 160945, Note_on_c, 0, 50, 91
2, 160945, Note_on_c, 0, 46, 91
2, 160946, Note_on_c, 0, 45, 86
2, 160948, Note_on_c, 0, 67, 100
2, 160988, Control_c, 0, 64, 127
2, 161251, Note_on_c, 0, 77, 107
2, 161253, Note_on_c, 0, 65, 105
2, 161253, Note_on_c, 0, 34, 91
2, 161379, Note_on_c, 0, 46, 0
2, 161390, Note_on_c, 0, 46, 69
2, 161527, Control_c, 0, 64, 0
2, 161530, Note_on_c, 0, 67, 0
2, 161531, Note_on_c, 0, 34, 0
2, 161531, Note_on_c, 0, 79, 0
2, 161532, Note_on_c, 0, 53, 0
2, 161532, Note_on_c, 0, 46, 0
2, 161533, Note_on_c, 0, 57, 0
2, 161534, Note_on_c, 0, 50, 0
2, 161541, Note_on_c, 0, 45, 0
2, 161551, Note_on_c, 0, 48, 107
2, 161555, Note_on_c, 0, 36, 98
2, 161556, Note_on_c, 0, 65, 0
2, 161556, Note_on_c, 0, 77, 0
2, 161566, Note_on_c, 0, 77, 104
2, 161566, Note_on_c, 0, 65, 99
2, 161567, Note_on_c, 0, 72, 103
2, 161569, Note_on_c, 0, 74, 101
2, 161602, Control_c, 0, 64, 127
2, 161694, Note_on_c, 0, 36, 0
2, 161725, Note_on_c, 0, 65, 0
2, 161725, Note_on_c, 0, 74, 0
2, 161725, Note_on_c, 0, 77, 0
2, 161734, Note_on_c, 0, 77, 103
2, 161735, Note_on_c, 0, 65, 105
2, 161736, Note_on_c, 0, 74, 89
2, 161871, Note_on_c, 0, 48, 0
2, 161880, Note_on_c, 0, 48, 95
2, 162015, Note_on_c, 0, 53, 97
2, 162019, Note_on_c, 0, 55, 98
2, 162022, Note_on_c, 0, 60, 100
2, 162147, Note_on_c, 0, 60, 0
2, 162152, Note_on_c, 0, 60, 93
2, 162159, Note_on_c, 0, 79, 109
2, 162159, Note_on_c, 0, 67, 103
2, 162301, Note_on_c, 0, 60, 0
2, 162309, Note_on_c, 0, 48, 0
2, 162309, Note_on_c, 0, 67, 0
2, 162309, Note_on_c, 0, 79, 0
2, 162309, Note_on_c, 0, 60, 101
2, 162316, Note_on_c, 0, 55, 0
2, 162316, Note_on_c, 0, 72, 0
2, 162319, Note_on_c, 0, 79, 105
2, 162319, Note_on_c, 0, 67, 102
2, 162319, Note_on_c, 0, 52, 93
2, 162320, Note_on_c, 0, 48, 92
2, 162320, Note_on_c, 0, 76, 102
2, 162321, Note_on_c, 0, 72, 98
2, 162322, Note_on_c, 0, 55, 98
2, 162470, Note_on_c, 0, 48, 0
2, 162478, Note_on_c, 0, 79, 0
2, 162480, Note_on_c, 0, 48, 102
2, 162481, Note_on_c, 0, 91, 111
2, 162485, Note_on_c, 0, 79, 104
2, 162626, Note_on_c, 0, 96, 111
2, 162627, Note_on_c, 0, 36, 95
2, 162628, Note_on_c, 0, 84, 108
2, 162819, Note_on_c, 0, 74, 0
2, 162820, Note_on_c, 0, 84, 0
2, 162820, Note_on_c, 0, 52, 0
2, 162820, Note_on_c, 0, 60, 0
2, 162821, Note_on_c, 0, 77, 0
2, 162821, Note_on_c, 0, 96, 0
2, 162822, Note_on_c, 0, 72, 0
2, 162822, Note_on_c, 0, 67, 0
2, 162823, Note_on_c, 0, 91, 0
2, 162823, Note_on_c, 0, 65, 0
2, 162823, Note_on_c, 0, 53, 0
2, 162824, Note_on_c, 0, 36, 0
2, 162824, Note_on_c, 0, 79, 0
2, 162824, Note_on_c, 0, 76, 0
2, 162825, Control_c, 0, 64, 0
2, 162826, Note_on_c, 0, 55, 0
2, 162846, Note_on_c, 0, 48, 0
2, 162964, Note_on_c, 0, 65, 105
2, 162964, Note_on_c, 0, 77, 109
2, 162965, Note_on_c, 0, 69, 106
2, 162967, Note_on_c, 0, 72, 105
2, 162969, Note_on_c, 0, 38, 106
2, 162971, Note_on_c, 0, 26, 100
2, 163023, Control_c, 0, 64, 127
2, 163289, Note_on_c, 0, 67, 99
2, 163428, Note_on_c, 0, 53, 89
2, 163428, Note_on_c, 0, 57, 100
2, 163437, Note_on_c, 0, 50, 81
2, 163576, Note_on_c, 0, 69, 0
2, 163587, Note_on_c, 0, 69, 99
2, 163722, Note_on_c, 0, 38, 0
2, 163722, Note_on_c, 0, 50, 0
2, 163731, Note_on_c, 0, 50, 88
2, 163732, Note_on_c, 0, 38, 84
2, 163866, Control_c, 0, 64, 0
2, 163872, Note_on_c, 0, 53, 0
2, 163872, Note_on_c, 0, 77, 0
2, 163873, Note_on_c, 0, 57, 0
2, 163874, Note_on_c, 0, 38, 0
2, 163874, Note_on_c, 0, 50, 0
2, 163875, Note_on_c, 0, 69, 0
2, 163875, Note_on_c, 0, 26, 0
2, 163898, Note_on_c, 0, 65, 0
2, 163898, Note_on_c, 0, 72, 0
2, 163902, Note_on_c, 0, 72, 109
2, 163904, Note_on_c, 0, 60, 104
2, 163906, Note_on_c, 0, 45, 107
2, 163908, Note_on_c, 0, 33, 100
2, 163909, Note_on_c, 0, 65, 95
2, 163983, Control_c, 0, 64, 127
2, 164298, Note_on_c, 0, 45, 0
2, 164309, Note_on_c, 0, 45, 88
2, 164505, Note_on_c, 0, 67, 0
2, 164515, Note_on_c, 0, 67, 100
2, 164528, Note_on_c, 0, 72, 0
2, 164532, Note_on_c, 0, 72, 96
2, 164666, Note_on_c, 0, 65, 0
2, 164677, Note_on_c, 0, 65, 103
2, 164679, Note_on_c, 0, 77, 103
2, 164812, Note_on_c, 0, 60, 0
2, 164817, Note_on_c, 0, 60, 100
2, 164819, Note_on_c, 0, 57, 101
2, 164831, Note_on_c, 0, 84, 105
2, 164987, Note_on_c, 0, 79, 95
2, 165112, Note_on_c, 0, 45, 0
2, 165118, Note_on_c, 0, 45, 91
2, 165120, Note_on_c, 0, 77, 0
2, 165131, Note_on_c, 0, 77, 95
2, 165273, Note_on_c, 0, 60, 0
2, 165283, Note_on_c, 0, 60, 96
2, 165373, Note_on_c, 0, 60, 0
2, 165383, Note_on_c, 0, 60, 80
2, 165419, Note_on_c, 0, 33, 0
2, 165421, Note_on_c, 0, 45, 0
2, 165421, Note_on_c, 0, 84, 0
2, 165421, Note_on_c, 0, 77, 0
2, 165422, Note_on_c, 0, 57, 0
2, 165422, Note_on_c, 0, 72, 0
2, 165422, Note_on_c, 0, 67, 0
2, 165422, Note_on_c, 0, 79, 0
2, 165423, Control_c, 0, 64, 0
2, 165427, Note_on_c, 0, 60, 0
2, 165427, Note_on_c, 0, 65, 0
2, 165431, Note_on_c, 0, 60, 103
2, 165436, Note_on_c, 0, 65, 104
2, 165437, Note_on_c, 0, 34, 100
2, 165440, Note_on_c, 0, 62, 101
2, 165504, Control_c, 0, 64, 127
2, 165560, Note_on_c, 0, 46, 99
2, 165749, Note_on_c, 0, 62, 0
2, 165755, Note_on_c, 0, 62, 91
2, 165838, Control_c, 0, 64, 0
2, 165843, Note_on_c, 0, 46, 0
2, 165843, Note_on_c, 0, 34, 0
2, 165845, Note_on_c, 0, 65, 0
2, 165846, Note_on_c, 0, 62, 0
2, 165857, Note_on_c, 0, 60, 0
2, 165912, Note_on_c, 0, 48, 108
2, 165912, Note_on_c, 0, 60, 103
2, 165913, Note_on_c, 0, 65, 100
2, 165914, Note_on_c, 0, 36, 102
2, 165941, Control_c, 0, 64, 127
2, 166048, Note_on_c, 0, 43, 88
2, 166221, Control_c, 0, 64, 0
2, 166225, Note_on_c, 0, 36, 0
2, 166226, Note_on_c, 0, 48, 0
2, 166226, Note_on_c, 0, 43, 0
2, 166227, Note_on_c, 0, 60, 0
2, 166229, Note_on_c, 0, 67, 107
2, 166229, Note_on_c, 0, 65, 0
2, 166346, Note_on_c, 0, 67, 0
2, 166389, Note_on_c, 0, 69, 106
2, 166391, Note_on_c, 0, 41, 102
2, 166392, Note_on_c, 0, 29, 103
2, 166392, Note_on_c, 0, 60, 100
2, 166396, Note_on_c, 0, 65, 98
2, 166440, Control_c, 0, 64, 127
2, 166863, Note_on_c, 0, 41, 0
2, 166869, Note_on_c, 0, 53, 101
2, 166871, Note_on_c, 0, 48, 98
2, 166873, Note_on_c, 0, 41, 95
2, 166874, Note_on_c, 0, 72, 105
2, 167018, Note_on_c, 0, 77, 99
2, 167147, Note_on_c, 0, 41, 0
2, 167158, Note_on_c, 0, 41, 94
2, 167164, Note_on_c, 0, 79, 101
2, 167316, Note_on_c, 0, 48, 0
2, 167316, Note_on_c, 0, 60, 0
2, 167321, Note_on_c, 0, 48, 92
2, 167323, Note_on_c, 0, 60, 104
2, 167324, Note_on_c, 0, 84, 102
2, 167324, Note_on_c, 0, 67, 103
2, 167325, Note_on_c, 0, 64, 106
2, 167470, Note_on_c, 0, 79, 0
2, 167475, Note_on_c, 0, 79, 99
2, 167616, Note_on_c, 0, 77, 0
2, 167623, Note_on_c, 0, 77, 95
2, 167627, Note_on_c, 0, 52, 100
2, 167631, Note_on_c, 0, 40, 98
2, 167761, Note_on_c, 0, 79, 0
2, 167767, Note_on_c, 0, 79, 100
2, 167922, Note_on_c, 0, 41, 0
2, 167922, Note_on_c, 0, 40, 0
2, 167922, Note_on_c, 0, 52, 0
2, 167923, Note_on_c, 0, 29, 0
2, 167923, Note_on_c, 0, 53, 0
2, 167923, Note_on_c, 0, 69, 0
2, 167924, Note_on_c, 0, 77, 0
2, 167924, Note_on_c, 0, 79, 0
2, 167924, Note_on_c, 0, 84, 0
2, 167924, Note_on_c, 0, 48, 0
2, 167925, Note_on_c, 0, 67, 0
2, 167925, Note_on_c, 0, 64, 0
2, 167929, Control_c, 0, 64, 0
2, 167938, Note_on_c, 0, 72, 0
2, 167946, Note_on_c, 0, 60, 0
2, 167946, Note_on_c, 0, 65, 0
2, 167950, Note_on_c, 0, 65, 105
2, 167950, Note_on_c, 0, 57, 97
2, 167955, Note_on_c, 0, 60, 96
2, 167956, Note_on_c, 0, 50, 103
2, 167958, Note_on_c, 0, 38, 99
2, 168030, Control_c, 0, 64, 127
2, 168092, Note_on_c, 0, 38, 0
2, 168092, Note_on_c, 0, 50, 0
2, 168101, Note_on_c, 0, 50, 95
2, 168102, Note_on_c, 0, 38, 90
2, 168285, Note_on_c, 0, 67, 104
2, 168407, Note_on_c, 0, 57, 0
2, 168414, Note_on_c, 0, 50, 0
2, 168414, Note_on_c, 0, 65, 0
2, 168418, Note_on_c, 0, 57, 105
2, 168418, Note_on_c, 0, 50, 92
2, 168419, Note_on_c, 0, 53, 93
2, 168420, Note_on_c, 0, 65, 89
2, 168574, Note_on_c, 0, 69, 106
2, 168714, Note_on_c, 0, 50, 0
2, 168721, Note_on_c, 0, 38, 0
2, 168725, Note_on_c, 0, 50, 92
2, 168727, Note_on_c, 0, 38, 82
2, 168732, Control_c, 0, 64, 0
2, 168766, Note_on_c, 0, 60, 0
2, 168771, Note_on_c, 0, 53, 0
2, 168772, Note_on_c, 0, 57, 0
2, 168772, Note_on_c, 0, 69, 0
2, 168773, Note_on_c, 0, 65, 0
2, 168776, Note_on_c, 0, 38, 0
2, 168778, Note_on_c, 0, 67, 0
2, 168798, Note_on_c, 0, 50, 0
2, 168888, Note_on_c, 0, 72, 111
2, 168889, Note_on_c, 0, 60, 107
2, 168890, Note_on_c, 0, 45, 108
2, 168892, Note_on_c, 0, 33, 102
2, 168894, Note_on_c, 0, 67, 99
2, 168894, Note_on_c, 0, 65, 96
2, 168929, Control_c, 0, 64, 127
2, 169359, Note_on_c, 0, 45, 0
2, 169360, Control_c, 0, 64, 0
2, 169367, Note_on_c, 0, 72, 0
2, 169370, Note_on_c, 0, 45, 94
2, 169371, Note_on_c, 0, 33, 0
2, 169372, Note_on_c, 0, 72, 103
2, 169397, Control_c, 0, 64, 127
2, 169520, Note_on_c, 0, 67, 0
2, 169526, Note_on_c, 0, 67, 104
2, 169529, Note_on_c, 0, 77, 103
2, 169666, Note_on_c, 0, 65, 0
2, 169677, Note_on_c, 0, 65, 99
2, 169680, Note_on_c, 0, 79, 101
2, 169803, Control_c, 0, 64, 0
2, 169820, Note_on_c, 0, 60, 0
2, 169825, Note_on_c, 0, 60, 102
2, 169828, Note_on_c, 0, 57, 103
2, 169835, Control_c, 0, 64, 127
2, 169841, Note_on_c, 0, 84, 104
2, 169981, Note_on_c, 0, 79, 0
2, 169989, Note_on_c, 0, 79, 96
2, 170127, Note_on_c, 0, 45, 0
2, 170127, Note_on_c, 0, 77, 0
2, 170132, Note_on_c, 0, 45, 90
2, 170135, Note_on_c, 0, 33, 81
2, 170137, Note_on_c, 0, 77, 94
2, 170288, Note_on_c, 0, 60, 0
2, 170298, Note_on_c, 0, 60, 101
2, 170404, Control_c, 0, 64, 0
2, 170434, Note_on_c, 0, 60, 0
2, 170434, Note_on_c, 0, 65, 0
2, 170437, Note_on_c, 0, 84, 0
2, 170438, Note_on_c, 0, 45, 0
2, 170438, Note_on_c, 0, 72, 0
2, 170438, Note_on_c, 0, 77, 0
2, 170439, Note_on_c, 0, 67, 0
2, 170439, Note_on_c, 0, 79, 0
2, 170442, Note_on_c, 0, 57, 0
2, 170443, Note_on_c, 0, 60, 98
2, 170445, Note_on_c, 0, 65, 104
2, 170446, Note_on_c, 0, 34, 102
2, 170449, Note_on_c, 0, 33, 0
2, 170450, Note_on_c, 0, 62, 99
2, 170480, Control_c, 0, 64, 127
2, 170582, Note_on_c, 0, 46, 101
2, 170603, Note_on_c, 0, 62, 0
2, 170611, Note_on_c, 0, 62, 71
2, 170762, Note_on_c, 0, 69, 103
2, 170910, Note_on_c, 0, 60, 0
2, 170916, Note_on_c, 0, 60, 94
2, 170917, Note_on_c, 0, 67, 105
2, 170918, Note_on_c, 0, 64, 101
2, 170992, Note_on_c, 0, 65, 0
2, 170993, Note_on_c, 0, 69, 0
2, 170997, Note_on_c, 0, 34, 0
2, 170997, Note_on_c, 0, 62, 0
2, 170998, Note_on_c, 0, 46, 0
2, 171014, Control_c, 0, 64, 0
2, 171072, Note_on_c, 0, 48, 101
2, 171073, Note_on_c, 0, 36, 101
2, 171087, Control_c, 0, 64, 127
2, 171206, Note_on_c, 0, 43, 95
2, 171377, Note_on_c, 0, 65, 103
2, 171532, Note_on_c, 0, 65, 0
2, 171538, Note_on_c, 0, 65, 101
2, 171540, Note_on_c, 0, 60, 0
2, 171544, Note_on_c, 0, 60, 92
2, 171546, Note_on_c, 0, 57, 100
2, 171651, Control_c, 0, 64, 0
2, 171652, Note_on_c, 0, 43, 0
2, 171654, Note_on_c, 0, 36, 0
2, 171657, Note_on_c, 0, 64, 0
2, 171659, Note_on_c, 0, 48, 0
2, 171663, Note_on_c, 0, 67, 0
2, 171688, Note_on_c, 0, 41, 104
2, 171689, Note_on_c, 0, 29, 99
2, 171732, Control_c, 0, 64, 127
2, 172006, Note_on_c, 0, 67, 95
2, 172013, Note_on_c, 0, 55, 86
2, 172147, Note_on_c, 0, 41, 0
2, 172154, Note_on_c, 0, 48, 92
2, 172155, Note_on_c, 0, 53, 94
2, 172157, Note_on_c, 0, 41, 91
2, 172308, Note_on_c, 0, 60, 0
2, 172317, Note_on_c, 0, 72, 105
2, 172318, Note_on_c, 0, 60, 102
2, 172454, Note_on_c, 0, 41, 0
2, 172465, Note_on_c, 0, 41, 92
2, 172615, Note_on_c, 0, 48, 0
2, 172615, Note_on_c, 0, 53, 0
2, 172615, Note_on_c, 0, 65, 0
2, 172619, Note_on_c, 0, 77, 102
2, 172620, Note_on_c, 0, 53, 96
2, 172620, Note_on_c, 0, 48, 96
2, 172622, Note_on_c, 0, 65, 103
2, 172888, Note_on_c, 0, 29, 0
2, 172892, Note_on_c, 0, 53, 0
2, 172894, Note_on_c, 0, 57, 0
2, 172894, Note_on_c, 0, 55, 0
2, 172894, Note_on_c, 0, 72, 0
2, 172895, Note_on_c, 0, 48, 0
2, 172895, Note_on_c, 0, 60, 0
2, 172895, Note_on_c, 0, 77, 0
2, 172895, Control_c, 0, 64, 0
2, 172896, Note_on_c, 0, 67, 0
2, 172896, Note_on_c, 0, 65, 0
2, 172925, Note_on_c, 0, 47, 111
2, 172926, Note_on_c, 0, 78, 109
2, 172926, Note_on_c, 0, 74, 108
2, 172928, Note_on_c, 0, 35, 100
2, 172930, Note_on_c, 0, 41, 0
2, 172930, Note_on_c, 0, 69, 99
2, 172961, Control_c, 0, 64, 127
2, 172965, Note_on_c, 0, 47, 0
2, 173061, Note_on_c, 0, 35, 0
2, 173064, Note_on_c, 0, 47, 101
2, 173065, Note_on_c, 0, 35, 87
2, 173142, Control_c, 0, 64, 0
2, 173146, Note_on_c, 0, 35, 0
2, 173147, Note_on_c, 0, 78, 0
2, 173147, Note_on_c, 0, 69, 0
2, 173149, Note_on_c, 0, 74, 0
2, 173150, Note_on_c, 0, 47, 0
2, 173239, Note_on_c, 0, 79, 109
2, 173241, Note_on_c, 0, 67, 107
2, 173399, Note_on_c, 0, 67, 0
2, 173506, Note_on_c, 0, 79, 0
2, 173577, Note_on_c, 0, 81, 109
2, 173578, Note_on_c, 0, 69, 104
2, 173579, Note_on_c, 0, 74, 100
2, 173581, Note_on_c, 0, 78, 100
2, 173598, Control_c, 0, 64, 127
2, 173724, Note_on_c, 0, 35, 95
2, 173725, Note_on_c, 0, 47, 104
2, 173862, Control_c, 0, 64, 0
2, 173871, Note_on_c, 0, 35, 0
2, 173872, Note_on_c, 0, 69, 0
2, 173874, Note_on_c, 0, 47, 0
2, 173875, Note_on_c, 0, 74, 0
2, 173875, Note_on_c, 0, 78, 0
2, 173875, Note_on_c, 0, 81, 0
2, 173878, Note_on_c, 0, 86, 110
2, 173881, Note_on_c, 0, 74, 112
2, 173885, Note_on_c, 0, 81, 103
2, 173885, Note_on_c, 0, 78, 106
2, 173886, Note_on_c, 0, 43, 105
2, 173887, Note_on_c, 0, 31, 98
2, 173982, Control_c, 0, 64, 127
2, 174363, Note_on_c, 0, 57, 105
2, 174364, Note_on_c, 0, 50, 88
2, 174510, Note_on_c, 0, 76, 107
2, 174512, Note_on_c, 0, 64, 108
2, 174650, Note_on_c, 0, 43, 0
2, 174650, Note_on_c, 0, 74, 0
2, 174654, Note_on_c, 0, 43, 98
2, 174660, Note_on_c, 0, 62, 105
2, 174661, Note_on_c, 0, 74, 110
2, 174807, Note_on_c, 0, 66, 103
2, 174819, Note_on_c, 0, 62, 0
2, 174826, Note_on_c, 0, 62, 89
2, 174854, Note_on_c, 0, 59, 83
2, 174954, Note_on_c, 0, 55, 100
2, 175019, Note_on_c, 0, 50, 0
2, 175030, Note_on_c, 0, 50, 82
2, 175088, Note_on_c, 0, 43, 0
2, 175094, Note_on_c, 0, 43, 106
2, 175249, Note_on_c, 0, 86, 0
2, 175257, Note_on_c, 0, 74, 0
2, 175261, Note_on_c, 0, 86, 106
2, 175261, Note_on_c, 0, 74, 108
2, 175386, Control_c, 0, 64, 0
2, 175390, Note_on_c, 0, 66, 0
2, 175390, Note_on_c, 0, 78, 0
2, 175391, Note_on_c, 0, 64, 0
2, 175391, Note_on_c, 0, 57, 0
2, 175391, Note_on_c, 0, 59, 0
2, 175391, Note_on_c, 0, 74, 0
2, 175391, Note_on_c, 0, 62, 0
2, 175391, Note_on_c, 0, 55, 0
2, 175391, Note_on_c, 0, 43, 0
2, 175403, Note_on_c, 0, 31, 0
2, 175403, Note_on_c, 0, 50, 0
2, 175403, Note_on_c, 0, 76, 0
2, 175403, Note_on_c, 0, 81, 0
2, 175413, Note_on_c, 0, 88, 111
2, 175414, Note_on_c, 0, 81, 105
2, 175414, Note_on_c, 0, 45, 109
2, 175414, Note_on_c, 0, 76, 108
2, 175415, Note_on_c, 0, 33, 96
2, 175415, Note_on_c, 0, 85, 105
2, 175418, Note_on_c, 0, 86, 0
2, 175488, Control_c, 0, 64, 127
2, 175730, Note_on_c, 0, 86, 108
2, 175731, Note_on_c, 0, 74, 109
2, 175887, Note_on_c, 0, 88, 0
2, 175888, Note_on_c, 0, 64, 101
2, 175890, Note_on_c, 0, 57, 95
2, 175895, Note_on_c, 0, 76, 0
2, 175895, Note_on_c, 0, 85, 0
2, 175896, Note_on_c, 0, 61, 90
2, 175898, Note_on_c, 0, 88, 108
2, 175902, Note_on_c, 0, 76, 109
2, 175902, Note_on_c, 0, 81, 0
2, 175905, Note_on_c, 0, 85, 104
2, 175906, Note_on_c, 0, 81, 100
2, 176179, Note_on_c, 0, 45, 0
2, 176179, Note_on_c, 0, 57, 0
2, 176183, Note_on_c, 0, 57, 92
2, 176183, Note_on_c, 0, 45, 104
2, 176330, Note_on_c, 0, 91, 110
2, 176332, Note_on_c, 0, 79, 105
2, 176494, Note_on_c, 0, 85, 0
2, 176496, Note_on_c, 0, 79, 0
2, 176497, Note_on_c, 0, 78, 111
2, 176497, Note_on_c, 0, 91, 0
2, 176497, Note_on_c, 0, 81, 0
2, 176497, Note_on_c, 0, 46, 107
2, 176497, Note_on_c, 0, 90, 109
2, 176497, Note_on_c, 0, 86, 0
2, 176497, Note_on_c, 0, 61, 0
2, 176498, Note_on_c, 0, 34, 98
2, 176498, Note_on_c, 0, 57, 0
2, 176498, Note_on_c, 0, 76, 0
2, 176500, Note_on_c, 0, 82, 96
2, 176500, Note_on_c, 0, 64, 0
2, 176501, Note_on_c, 0, 88, 0
2, 176502, Note_on_c, 0, 85, 102
2, 176504, Note_on_c, 0, 45, 0
2, 176506, Control_c, 0, 64, 0
2, 176517, Note_on_c, 0, 74, 0
2, 176524, Note_on_c, 0, 33, 0
2, 176655, Control_c, 0, 64, 127
2, 176793, Note_on_c, 0, 46, 0
2, 176799, Note_on_c, 0, 46, 101
2, 176946, Note_on_c, 0, 58, 96
2, 176948, Note_on_c, 0, 54, 96
2, 177097, Note_on_c, 0, 42, 107
2, 177269, Note_on_c, 0, 78, 0
2, 177269, Note_on_c, 0, 82, 0
2, 177270, Note_on_c, 0, 88, 111
2, 177273, Note_on_c, 0, 76, 110
2, 177273, Note_on_c, 0, 49, 103
2, 177273, Note_on_c, 0, 82, 105
2, 177274, Note_on_c, 0, 78, 102
2, 177354, Note_on_c, 0, 54, 0
2, 177359, Note_on_c, 0, 54, 97
2, 177446, Note_on_c, 0, 58, 0
2, 177452, Note_on_c, 0, 58, 97
2, 177542, Note_on_c, 0, 61, 102
2, 177607, Note_on_c, 0, 64, 103
2, 177687, Note_on_c, 0, 74, 98
2, 177730, Note_on_c, 0, 78, 0
2, 177736, Note_on_c, 0, 78, 94
2, 177788, Note_on_c, 0, 81, 85
2, 177849, Note_on_c, 0, 42, 0
2, 177850, Note_on_c, 0, 46, 0
2, 177850, Note_on_c, 0, 49, 0
2, 177850, Control_c, 0, 64, 0
2, 177850, Note_on_c, 0, 88, 0
2, 177851, Note_on_c, 0, 76, 0
2, 177851, Note_on_c, 0, 85, 0
2, 177852, Note_on_c, 0, 90, 0
2, 177852, Note_on_c, 0, 82, 0
2, 177852, Note_on_c, 0, 64, 0
2, 177853, Note_on_c, 0, 61, 0
2, 177853, Note_on_c, 0, 54, 0
2, 177861, Note_on_c, 0, 34, 0
2, 177861, Note_on_c, 0, 74, 0
2, 177861, Note_on_c, 0, 78, 0
2, 177868, Note_on_c, 0, 58, 0
2, 177868, Note_on_c, 0, 81, 0
2, 177870, Note_on_c, 0, 47, 108
2, 177871, Note_on_c, 0, 35, 98
2, 177871, Note_on_c, 0, 86, 109
2, 177871, Note_on_c, 0, 74, 107
2, 177872, Note_on_c, 0, 78, 108
2, 177872, Note_on_c, 0, 81, 104
2, 177922, Control_c, 0, 64, 127
2, 177991, Note_on_c, 0, 47, 0
2, 178002, Note_on_c, 0, 47, 90
2, 178173, Note_on_c, 0, 85, 105
2, 178175, Note_on_c, 0, 73, 105
2, 178321, Note_on_c, 0, 74, 0
2, 178321, Note_on_c, 0, 78, 0
2, 178321, Note_on_c, 0, 81, 0
2, 178321, Note_on_c, 0, 86, 0
2, 178325, Note_on_c, 0, 86, 109
2, 178327, Note_on_c, 0, 74, 111
2, 178327, Note_on_c, 0, 57, 108
2, 178327, Note_on_c, 0, 78, 108
2, 178331, Note_on_c, 0, 81, 98
2, 178332, Note_on_c, 0, 54, 97
2, 178613, Note_on_c, 0, 47, 0
2, 178621, Note_on_c, 0, 47, 98
2, 178786, Note_on_c, 0, 95, 111
2, 178787, Note_on_c, 0, 83, 106
2, 178931, Note_on_c, 0, 74, 0
2, 178931, Note_on_c, 0, 83, 0
2, 178931, Note_on_c, 0, 78, 0
2, 178931, Note_on_c, 0, 73, 0
2, 178932, Note_on_c, 0, 57, 0
2, 178932, Note_on_c, 0, 47, 0
2, 178932, Note_on_c, 0, 85, 0
2, 178932, Note_on_c, 0, 35, 0
2, 178932, Control_c, 0, 64, 0
2, 178933, Note_on_c, 0, 54, 0
2, 178943, Note_on_c, 0, 93, 114
2, 178944, Note_on_c, 0, 81, 0
2, 178944, Note_on_c, 0, 86, 0
2, 178946, Note_on_c, 0, 43, 104
2, 178948, Note_on_c, 0, 81, 106
2, 178949, Note_on_c, 0, 31, 94
2, 178950, Note_on_c, 0, 86, 105
2, 178953, Note_on_c, 0, 90, 102
2, 178997, Note_on_c, 0, 95, 0
2, 179143, Control_c, 0, 64, 127
2, 179243, Note_on_c, 0, 43, 0
2, 179252, Note_on_c, 0, 43, 101
2, 179412, Note_on_c, 0, 86, 0
2, 179417, Note_on_c, 0, 86, 106
2, 179420, Note_on_c, 0, 74, 106
2, 179548, Note_on_c, 0, 57, 104
2, 179553, Note_on_c, 0, 50, 86
2, 179558, Note_on_c, 0, 74, 0
2, 179558, Note_on_c, 0, 86, 0
2, 179566, Note_on_c, 0, 81, 0
2, 179567, Note_on_c, 0, 86, 107
2, 179567, Note_on_c, 0, 78, 104
2, 179568, Note_on_c, 0, 74, 107
2, 179570, Note_on_c, 0, 81, 99
2, 179709, Note_on_c, 0, 66, 90
2, 179801, Note_on_c, 0, 59, 80
2, 179861, Note_on_c, 0, 55, 94
2, 179934, Note_on_c, 0, 50, 0
2, 179945, Note_on_c, 0, 50, 85
2, 179980, Note_on_c, 0, 43, 0
2, 179991, Note_on_c, 0, 43, 104
2, 180149, Note_on_c, 0, 81, 0
2, 180153, Note_on_c, 0, 81, 103
2, 180303, Note_on_c, 0, 81, 0
2, 180307, Control_c, 0, 64, 0
2, 180308, Note_on_c, 0, 93, 0
2, 180309, Note_on_c, 0, 90, 0
2, 180311, Note_on_c, 0, 78, 0
2, 180312, Note_on_c, 0, 59, 0
2, 180313, Note_on_c, 0, 86, 0
2, 180313, Note_on_c, 0, 55, 0
2, 180313, Note_on_c, 0, 88, 109
2, 180314, Note_on_c, 0, 57, 0
2, 180314, Note_on_c, 0, 74, 0
2, 180314, Note_on_c, 0, 66, 0
2, 180314, Note_on_c, 0, 81, 106
2, 180315, Note_on_c, 0, 76, 107
2, 180315, Note_on_c, 0, 33, 96
2, 180315, Note_on_c, 0, 45, 104
2, 180316, Note_on_c, 0, 85, 99
2, 180326, Note_on_c, 0, 31, 0
2, 180326, Note_on_c, 0, 50, 0
2, 180334, Note_on_c, 0, 43, 0
2, 180374, Note_on_c, 0, 45, 0
2, 180403, Control_c, 0, 64, 127
2, 180449, Note_on_c, 0, 33, 0
2, 180460, Note_on_c, 0, 45, 98
2, 180460, Note_on_c, 0, 33, 77
2, 180629, Note_on_c, 0, 78, 106
2, 180630, Note_on_c, 0, 90, 106
2, 180771, Note_on_c, 0, 88, 0
2, 180779, Note_on_c, 0, 45, 0
2, 180779, Note_on_c, 0, 76, 0
2, 180779, Note_on_c, 0, 81, 0
2, 180779, Note_on_c, 0, 85, 0
2, 180780, Note_on_c, 0, 88, 106
2, 180781, Note_on_c, 0, 64, 98
2, 180783, Note_on_c, 0, 85, 104
2, 180784, Note_on_c, 0, 57, 93
2, 180784, Note_on_c, 0, 61, 92
2, 180784, Note_on_c, 0, 76, 106
2, 180784, Note_on_c, 0, 81, 103
2, 180787, Note_on_c, 0, 45, 93
2, 181079, Note_on_c, 0, 45, 0
2, 181079, Note_on_c, 0, 57, 0
2, 181089, Note_on_c, 0, 57, 96
2, 181089, Note_on_c, 0, 45, 98
2, 181231, Note_on_c, 0, 86, 106
2, 181332, Note_on_c, 0, 33, 0
2, 181335, Note_on_c, 0, 88, 0
2, 181335, Note_on_c, 0, 78, 0
2, 181335, Note_on_c, 0, 76, 0
2, 181335, Note_on_c, 0, 64, 0
2, 181336, Note_on_c, 0, 85, 0
2, 181336, Note_on_c, 0, 81, 0
2, 181336, Note_on_c, 0, 61, 0
2, 181336, Note_on_c, 0, 57, 0
2, 181336, Note_on_c, 0, 45, 0
2, 181342, Control_c, 0, 64, 0
2, 181347, Note_on_c, 0, 90, 0
2, 181378, Note_on_c, 0, 86, 0
2, 181388, Note_on_c, 0, 86, 106
2, 181389, Note_on_c, 0, 50, 103
2, 181389, Note_on_c, 0, 74, 109
2, 181389, Note_on_c, 0, 81, 101
2, 181390, Note_on_c, 0, 38, 96
2, 181470, Control_c, 0, 64, 127
2, 181678, Note_on_c, 0, 50, 0
2, 181688, Note_on_c, 0, 50, 81
2, 181841, Note_on_c, 0, 79, 102
2, 181847, Note_on_c, 0, 50, 0
2, 181847, Note_on_c, 0, 74, 0
2, 181851, Note_on_c, 0, 62, 96
2, 181851, Note_on_c, 0, 74, 88
2, 181852, Note_on_c, 0, 50, 81
2, 181854, Note_on_c, 0, 54, 91
2, 182005, Note_on_c, 0, 33, 91
2, 182146, Note_on_c, 0, 74, 0
2, 182150, Note_on_c, 0, 78, 103
2, 182151, Note_on_c, 0, 69, 95
2, 182152, Note_on_c, 0, 57, 97
2, 182152, Note_on_c, 0, 45, 104
2, 182156, Note_on_c, 0, 74, 82
2, 182461, Note_on_c, 0, 76, 98
2, 182788, Note_on_c, 0, 76, 0
2, 182788, Note_on_c, 0, 45, 0
2, 182788, Note_on_c, 0, 33, 0
2, 182788, Note_on_c, 0, 79, 0
2, 182789, Note_on_c, 0, 86, 0
2, 182789, Note_on_c, 0, 57, 0
2, 182789, Note_on_c, 0, 54, 0
2, 182789, Note_on_c, 0, 62, 0
2, 182790, Note_on_c, 0, 81, 0
2, 182791, Note_on_c, 0, 78, 0
2, 182792, Control_c, 0, 64, 0
2, 182799, Note_on_c, 0, 38, 0
2, 182799, Note_on_c, 0, 69, 0
2, 182799, Note_on_c, 0, 74, 0
2, 182801, Note_on_c, 0, 78, 106
2, 182804, Note_on_c, 0, 69, 87
2, 182804, Note_on_c, 0, 74, 88
2, 182806, Note_on_c, 0, 38, 97
2, 182809, Note_on_c, 0, 66, 101
2, 182809, Note_on_c, 0, 26, 93
2, 182922, Note_on_c, 0, 26, 0
2, 183014, Control_c, 0, 64, 127
2, 183124, Note_on_c, 0, 64, 85
2, 183260, Note_on_c, 0, 66, 0
2, 183271, Note_on_c, 0, 66, 90
2, 183413, Note_on_c, 0, 78, 0
2, 183421, Note_on_c, 0, 69, 0
2, 183422, Note_on_c, 0, 78, 94
2, 183427, Note_on_c, 0, 69, 69
2, 183429, Note_on_c, 0, 74, 0
2, 183432, Note_on_c, 0, 62, 71
2, 183433, Note_on_c, 0, 74, 72
2, 183579, Note_on_c, 0, 57, 66
2, 183713, Note_on_c, 0, 50, 0
2, 183723, Note_on_c, 0, 50, 66
2, 183726, Note_on_c, 0, 67, 80
2, 183866, Note_on_c, 0, 69, 0
2, 183874, Note_on_c, 0, 57, 0
2, 183877, Note_on_c, 0, 69, 89
2, 183878, Note_on_c, 0, 57, 73
2, 184043, Note_on_c, 0, 62, 0
2, 184043, Note_on_c, 0, 74, 0
2, 184043, Note_on_c, 0, 78, 0
2, 184047, Note_on_c, 0, 81, 97
2, 184051, Note_on_c, 0, 69, 0
2, 184051, Note_on_c, 0, 62, 79
2, 184052, Note_on_c, 0, 78, 90
2, 184054, Note_on_c, 0, 74, 83
2, 184055, Note_on_c, 0, 69, 76
2, 184192, Note_on_c, 0, 58, 70
2, 184350, Note_on_c, 0, 67, 0
2, 184359, Note_on_c, 0, 67, 80
2, 184488, Note_on_c, 0, 62, 0
2, 184496, Note_on_c, 0, 58, 0
2, 184499, Note_on_c, 0, 62, 92
2, 184507, Note_on_c, 0, 58, 76
2, 184657, Note_on_c, 0, 62, 0
2, 184657, Note_on_c, 0, 74, 0
2, 184668, Note_on_c, 0, 62, 74
2, 184669, Note_on_c, 0, 74, 96
2, 184675, Note_on_c, 0, 70, 78
2, 184803, Note_on_c, 0, 58, 0
2, 184803, Note_on_c, 0, 64, 0
2, 184808, Note_on_c, 0, 58, 72
2, 184814, Note_on_c, 0, 64, 89
2, 184949, Note_on_c, 0, 50, 0
2, 184954, Note_on_c, 0, 50, 76
2, 184957, Note_on_c, 0, 66, 0
2, 184961, Note_on_c, 0, 66, 97
2, 185088, Note_on_c, 0, 58, 0
2, 185099, Note_on_c, 0, 58, 62
2, 185264, Note_on_c, 0, 78, 0
2, 185265, Note_on_c, 0, 81, 0
2, 185267, Note_on_c, 0, 64, 0
2, 185267, Note_on_c, 0, 57, 0
2, 185267, Note_on_c, 0, 70, 0
2, 185268, Note_on_c, 0, 66, 0
2, 185268, Note_on_c, 0, 67, 0
2, 185272, Control_c, 0, 64, 0
2, 185272, Note_on_c, 0, 50, 0
2, 185272, Note_on_c, 0, 69, 0
2, 185272, Note_on_c, 0, 74, 0
2, 185275, Note_on_c, 0, 78, 98
2, 185277, Note_on_c, 0, 74, 91
2, 185278, Note_on_c, 0, 69, 78
2, 185280, Note_on_c, 0, 38, 0
2, 185280, Note_on_c, 0, 58, 0
2, 185280, Note_on_c, 0, 62, 0
2, 185283, Note_on_c, 0, 50, 88
2, 185285, Note_on_c, 0, 38, 82
2, 185448, Control_c, 0, 64, 127
2, 185571, Note_on_c, 0, 50, 0
2, 185581, Note_on_c, 0, 50, 65
2, 185745, Note_on_c, 0, 57, 62
2, 185886, Note_on_c, 0, 57, 0
2, 185894, Note_on_c, 0, 69, 0
2, 185894, Note_on_c, 0, 78, 0
2, 185896, Note_on_c, 0, 57, 58
2, 185898, Note_on_c, 0, 78, 86
2, 185902, Note_on_c, 0, 74, 0
2, 185905, Note_on_c, 0, 69, 73
2, 185906, Note_on_c, 0, 62, 66
2, 185908, Note_on_c, 0, 74, 68
2, 186040, Note_on_c, 0, 57, 0
2, 186046, Note_on_c, 0, 57, 30
2, 186193, Note_on_c, 0, 50, 0
2, 186200, Note_on_c, 0, 50, 55
2, 186347, Note_on_c, 0, 57, 0
2, 186351, Note_on_c, 0, 57, 57
2, 186508, Note_on_c, 0, 62, 0
2, 186508, Note_on_c, 0, 78, 0
2, 186512, Note_on_c, 0, 78, 87
2, 186513, Note_on_c, 0, 62, 71
2, 186531, Note_on_c, 0, 69, 0
2, 186531, Note_on_c, 0, 74, 0
2, 186536, Note_on_c, 0, 69, 67
2, 186540, Note_on_c, 0, 74, 68
2, 186662, Note_on_c, 0, 57, 0
2, 186666, Note_on_c, 0, 57, 50
2, 186800, Note_on_c, 0, 50, 0
2, 186808, Note_on_c, 0, 50, 72
2, 186961, Note_on_c, 0, 57, 0
2, 186968, Note_on_c, 0, 57, 77
2, 187110, Note_on_c, 0, 62, 0
2, 187111, Note_on_c, 0, 50, 0
2, 187111, Note_on_c, 0, 57, 0
2, 187112, Note_on_c, 0, 38, 0
2, 187115, Note_on_c, 0, 78, 0
2, 187117, Control_c, 0, 64, 0
2, 187120, Note_on_c, 0, 78, 103
2, 187123, Note_on_c, 0, 69, 0
2, 187123, Note_on_c, 0, 74, 0
2, 187124, Note_on_c, 0, 66, 99
2, 187127, Note_on_c, 0, 74, 88
2, 187127, Note_on_c, 0, 69, 85
2, 187131, Note_on_c, 0, 49, 92
2, 187134, Note_on_c, 0, 37, 88
2, 187207, Control_c, 0, 64, 127
2, 187215, Note_on_c, 0, 37, 0
2, 187323, Note_on_c, 0, 57, 67
2, 187415, Note_on_c, 0, 69, 0
2, 187424, Note_on_c, 0, 69, 102
2, 187432, Note_on_c, 0, 61, 85
2, 187568, Note_on_c, 0, 74, 0
2, 187575, Note_on_c, 0, 74, 108
2, 187591, Note_on_c, 0, 49, 0
2, 187597, Note_on_c, 0, 49, 62
2, 187600, Note_on_c, 0, 37, 68
2, 187719, Note_on_c, 0, 37, 0
2, 187723, Note_on_c, 0, 66, 0
2, 187725, Note_on_c, 0, 49, 0
2, 187726, Note_on_c, 0, 57, 0
2, 187726, Note_on_c, 0, 61, 0
2, 187727, Note_on_c, 0, 69, 0
2, 187727, Note_on_c, 0, 74, 0
2, 187727, Control_c, 0, 64, 0
2, 187737, Note_on_c, 0, 78, 0
2, 187747, Note_on_c, 0, 86, 103
2, 187748, Note_on_c, 0, 47, 102
2, 187748, Note_on_c, 0, 78, 101
2, 187749, Note_on_c, 0, 81, 93
2, 187749, Note_on_c, 0, 35, 96
2, 187822, Control_c, 0, 64, 127
2, 188060, Note_on_c, 0, 47, 0
2, 188062, Note_on_c, 0, 74, 101
2, 188064, Note_on_c, 0, 47, 78
2, 188206, Note_on_c, 0, 74, 0
2, 188210, Note_on_c, 0, 74, 100
2, 188211, Note_on_c, 0, 54, 77
2, 188359, Note_on_c, 0, 86, 0
2, 188367, Note_on_c, 0, 78, 0
2, 188367, Note_on_c, 0, 81, 0
2, 188369, Note_on_c, 0, 86, 102
2, 188371, Note_on_c, 0, 62, 91
2, 188371, Note_on_c, 0, 81, 97
2, 188372, Note_on_c, 0, 78, 97
2, 188401, Note_on_c, 0, 57, 74
2, 188513, Note_on_c, 0, 54, 0
2, 188517, Note_on_c, 0, 54, 74
2, 188666, Note_on_c, 0, 47, 0
2, 188666, Note_on_c, 0, 74, 0
2, 188673, Note_on_c, 0, 47, 90
2, 188677, Note_on_c, 0, 74, 102
2, 188812, Note_on_c, 0, 54, 0
2, 188823, Note_on_c, 0, 54, 86
2, 188824, Note_on_c, 0, 73, 106
2, 188956, Control_c, 0, 64, 0
2, 188965, Note_on_c, 0, 47, 0
2, 188965, Note_on_c, 0, 86, 0
2, 188967, Note_on_c, 0, 78, 0
2, 188967, Note_on_c, 0, 74, 0
2, 188968, Note_on_c, 0, 62, 0
2, 188969, Note_on_c, 0, 54, 0
2, 188969, Note_on_c, 0, 57, 0
2, 188981, Note_on_c, 0, 35, 0
2, 188989, Note_on_c, 0, 81, 0
2, 188998, Note_on_c, 0, 33, 95
2, 188999, Note_on_c, 0, 45, 103
2, 188999, Note_on_c, 0, 85, 105
2, 189000, Note_on_c, 0, 76, 98
2, 189000, Note_on_c, 0, 81, 97
2, 189058, Control_c, 0, 64, 127
2, 189150, Note_on_c, 0, 33, 0
2, 189300, Note_on_c, 0, 74, 102
2, 189327, Note_on_c, 0, 45, 0
2, 189333, Note_on_c, 0, 45, 65
2, 189450, Note_on_c, 0, 73, 0
2, 189457, Note_on_c, 0, 73, 99
2, 189459, Note_on_c, 0, 52, 65
2, 189603, Note_on_c, 0, 85, 0
2, 189611, Note_on_c, 0, 76, 0
2, 189611, Note_on_c, 0, 81, 0
2, 189615, Note_on_c, 0, 85, 102
2, 189617, Note_on_c, 0, 81, 95
2, 189618, Note_on_c, 0, 61, 93
2, 189619, Note_on_c, 0, 76, 93
2, 189624, Note_on_c, 0, 57, 91
2, 189757, Note_on_c, 0, 52, 0
2, 189766, Note_on_c, 0, 52, 64
2, 189772, Note_on_c, 0, 61, 0
2, 189784, Note_on_c, 0, 61, 72
2, 189918, Note_on_c, 0, 45, 0
2, 189926, Note_on_c, 0, 69, 100
2, 189926, Note_on_c, 0, 45, 85
2, 190041, Note_on_c, 0, 52, 0
2, 190047, Note_on_c, 0, 52, 82
2, 190080, Note_on_c, 0, 57, 0
2, 190081, Note_on_c, 0, 71, 102
2, 190090, Note_on_c, 0, 57, 69
2, 190180, Control_c, 0, 64, 0
2, 190189, Note_on_c, 0, 81, 0
2, 190190, Note_on_c, 0, 57, 0
2, 190190, Note_on_c, 0, 61, 0
2, 190191, Note_on_c, 0, 85, 0
2, 190225, Note_on_c, 0, 74, 0
2, 190233, Note_on_c, 0, 45, 0
2, 190233, Note_on_c, 0, 69, 0
2, 190233, Note_on_c, 0, 76, 0
2, 190238, Note_on_c, 0, 83, 99
2, 190241, Note_on_c, 0, 73, 0
2, 190242, Note_on_c, 0, 76, 95
2, 190243, Note_on_c, 0, 44, 94
2, 190244, Note_on_c, 0, 32, 88
2, 190244, Note_on_c, 0, 80, 97
2, 190325, Control_c, 0, 64, 127
2, 190540, Note_on_c, 0, 44, 0
2, 190552, Note_on_c, 0, 44, 74
2, 190694, Note_on_c, 0, 52, 0
2, 190698, Note_on_c, 0, 52, 63
2, 190855, Note_on_c, 0, 76, 0
2, 190855, Note_on_c, 0, 83, 0
2, 190859, Note_on_c, 0, 59, 100
2, 190860, Note_on_c, 0, 83, 99
2, 190863, Note_on_c, 0, 80, 0
2, 190866, Note_on_c, 0, 76, 98
2, 190866, Control_c, 0, 64, 0
2, 190868, Note_on_c, 0, 56, 85
2, 190870, Note_on_c, 0, 80, 93
2, 190932, Control_c, 0, 64, 127
2, 190993, Note_on_c, 0, 52, 0
2, 190998, Note_on_c, 0, 52, 79
2, 191116, Note_on_c, 0, 32, 0
2, 191162, Note_on_c, 0, 44, 0
2, 191162, Note_on_c, 0, 71, 0
2, 191167, Note_on_c, 0, 44, 86
2, 191169, Note_on_c, 0, 71, 106
2, 191255, Note_on_c, 0, 52, 0
2, 191261, Note_on_c, 0, 52, 84
2, 191471, Control_c, 0, 64, 0
2, 191479, Note_on_c, 0, 44, 0
2, 191479, Note_on_c, 0, 56, 0
2, 191480, Note_on_c, 0, 80, 0
2, 191480, Note_on_c, 0, 59, 0
2, 191480, Note_on_c, 0, 71, 0
2, 191480, Note_on_c, 0, 52, 0
2, 191481, Note_on_c, 0, 83, 0
2, 191485, Note_on_c, 0, 76, 0
2, 191491, Note_on_c, 0, 43, 104
2, 191493, Note_on_c, 0, 88, 106
2, 191495, Note_on_c, 0, 76, 110
2, 191496, Note_on_c, 0, 79, 103
2, 191496, Note_on_c, 0, 31, 93
2, 191496, Note_on_c, 0, 82, 104
2, 191585, Control_c, 0, 64, 127
2, 191608, Note_on_c, 0, 31, 0
2, 191793, Note_on_c, 0, 55, 96
2, 191900, Note_on_c, 0, 82, 0
2, 191901, Note_on_c, 0, 88, 0
2, 191901, Note_on_c, 0, 43, 0
2, 191902, Note_on_c, 0, 76, 0
2, 191902, Note_on_c, 0, 55, 0
2, 191903, Note_on_c, 0, 79, 0
2, 191906, Control_c, 0, 64, 0
2, 191972, Note_on_c, 0, 73, 109
2, 191972, Note_on_c, 0, 58, 100
2, 191972, Note_on_c, 0, 85, 108
2, 191972, Note_on_c, 0, 64, 101
2, 191973, Note_on_c, 0, 61, 101
2, 191973, Note_on_c, 0, 79, 97
2, 191976, Note_on_c, 0, 76, 103
2, 191992, Control_c, 0, 64, 127
2, 192247, Note_on_c, 0, 43, 94
2, 192417, Note_on_c, 0, 55, 100
2, 192420, Note_on_c, 0, 83, 103
2, 192425, Note_on_c, 0, 71, 101
2, 192428, Note_on_c, 0, 74, 95
2, 192448, Control_c, 0, 64, 0
2, 192455, Note_on_c, 0, 73, 0
2, 192455, Note_on_c, 0, 58, 0
2, 192456, Note_on_c, 0, 43, 0
2, 192456, Note_on_c, 0, 61, 0
2, 192456, Note_on_c, 0, 64, 0
2, 192456, Note_on_c, 0, 85, 0
2, 192457, Note_on_c, 0, 76, 0
2, 192459, Note_on_c, 0, 79, 0
2, 192583, Note_on_c, 0, 69, 98
2, 192585, Note_on_c, 0, 81, 98
2, 192621, Note_on_c, 0, 71, 0
2, 192622, Note_on_c, 0, 55, 0
2, 192625, Note_on_c, 0, 83, 0
2, 192668, Note_on_c, 0, 74, 0
2, 192675, Note_on_c, 0, 69, 0
2, 192691, Note_on_c, 0, 81, 0
2, 192742, Note_on_c, 0, 81, 103
2, 192743, Note_on_c, 0, 42, 90
2, 192743, Note_on_c, 0, 30, 93
2, 192744, Note_on_c, 0, 69, 102
2, 192744, Note_on_c, 0, 74, 98
2, 192746, Note_on_c, 0, 78, 93
2, 192944, Control_c, 0, 64, 127
2, 193061, Note_on_c, 0, 54, 82
2, 193204, Note_on_c, 0, 57, 81
2, 193351, Note_on_c, 0, 69, 0
2, 193351, Note_on_c, 0, 81, 0
2, 193356, Note_on_c, 0, 64, 98
2, 193359, Note_on_c, 0, 74, 0
2, 193362, Note_on_c, 0, 69, 95
2, 193362, Note_on_c, 0, 81, 96
2, 193363, Note_on_c, 0, 74, 84
2, 193364, Note_on_c, 0, 76, 83
2, 193382, Note_on_c, 0, 78, 0
2, 193386, Note_on_c, 0, 78, 56
2, 193497, Note_on_c, 0, 57, 0
2, 193503, Note_on_c, 0, 57, 89
2, 193651, Note_on_c, 0, 54, 0
2, 193660, Note_on_c, 0, 66, 97
2, 193662, Note_on_c, 0, 54, 75
2, 193797, Note_on_c, 0, 57, 0
2, 193802, Note_on_c, 0, 57, 83
2, 193814, Note_on_c, 0, 67, 94
2, 193927, Note_on_c, 0, 30, 0
2, 193933, Note_on_c, 0, 42, 0
2, 193936, Note_on_c, 0, 64, 0
2, 193936, Note_on_c, 0, 66, 0
2, 193937, Note_on_c, 0, 78, 0
2, 193937, Note_on_c, 0, 74, 0
2, 193938, Control_c, 0, 64, 0
2, 193938, Note_on_c, 0, 67, 0
2, 193938, Note_on_c, 0, 57, 0
2, 193938, Note_on_c, 0, 54, 0
2, 193958, Note_on_c, 0, 69, 0
2, 193958, Note_on_c, 0, 76, 0
2, 193966, Note_on_c, 0, 81, 0
2, 193976, Note_on_c, 0, 79, 99
2, 193982, Note_on_c, 0, 70, 95
2, 193983, Note_on_c, 0, 46, 93
2, 193984, Note_on_c, 0, 73, 94
2, 193985, Note_on_c, 0, 34, 89
2, 194058, Control_c, 0, 64, 127
2, 194293, Note_on_c, 0, 69, 94
2, 194296, Note_on_c, 0, 46, 0
2, 194304, Note_on_c, 0, 46, 81
2, 194445, Note_on_c, 0, 66, 101
2, 194446, Note_on_c, 0, 54, 82
2, 194595, Note_on_c, 0, 54, 0
2, 194595, Note_on_c, 0, 70, 0
2, 194599, Note_on_c, 0, 78, 96
2, 194603, Note_on_c, 0, 73, 0
2, 194605, Note_on_c, 0, 54, 81
2, 194607, Note_on_c, 0, 70, 92
2, 194607, Note_on_c, 0, 61, 83
2, 194607, Note_on_c, 0, 73, 91
2, 194610, Note_on_c, 0, 58, 86
2, 194749, Note_on_c, 0, 54, 0
2, 194757, Note_on_c, 0, 64, 99
2, 194760, Note_on_c, 0, 54, 74
2, 194795, Note_on_c, 0, 61, 0
2, 194806, Note_on_c, 0, 61, 42
2, 194887, Note_on_c, 0, 46, 0
2, 194892, Note_on_c, 0, 46, 81
2, 195048, Note_on_c, 0, 54, 0
2, 195058, Note_on_c, 0, 54, 82
2, 195060, Note_on_c, 0, 62, 93
2, 195148, Note_on_c, 0, 62, 0
2, 195156, Note_on_c, 0, 62, 64
2, 195187, Control_c, 0, 64, 0
2, 195188, Note_on_c, 0, 54, 0
2, 195189, Note_on_c, 0, 73, 0
2, 195189, Note_on_c, 0, 34, 0
2, 195189, Note_on_c, 0, 58, 0
2, 195189, Note_on_c, 0, 79, 0
2, 195190, Note_on_c, 0, 78, 0
2, 195190, Note_on_c, 0, 69, 0
2, 195190, Note_on_c, 0, 70, 0
2, 195190, Note_on_c, 0, 46, 0
2, 195190, Note_on_c, 0, 66, 0
2, 195190, Note_on_c, 0, 62, 0
2, 195190, Note_on_c, 0, 61, 0
2, 195217, Note_on_c, 0, 64, 0
2, 195224, Note_on_c, 0, 76, 100
2, 195228, Note_on_c, 0, 64, 100
2, 195230, Note_on_c, 0, 69, 88
2, 195236, Note_on_c, 0, 47, 95
2, 195236, Note_on_c, 0, 35, 85
2, 195302, Control_c, 0, 64, 127
2, 195310, Note_on_c, 0, 35, 0
2, 195525, Note_on_c, 0, 47, 0
2, 195528, Note_on_c, 0, 62, 87
2, 195531, Note_on_c, 0, 47, 75
2, 195678, Note_on_c, 0, 61, 94
2, 195681, Note_on_c, 0, 54, 82
2, 195832, Note_on_c, 0, 69, 0
2, 195836, Note_on_c, 0, 74, 100
2, 195838, Note_on_c, 0, 57, 98
2, 195842, Note_on_c, 0, 69, 88
2, 195843, Note_on_c, 0, 66, 94
2, 195985, Note_on_c, 0, 54, 0
2, 195991, Note_on_c, 0, 54, 90
2, 195993, Note_on_c, 0, 62, 0
2, 195997, Note_on_c, 0, 62, 98
2, 196131, Note_on_c, 0, 47, 0
2, 196138, Note_on_c, 0, 47, 85
2, 196293, Note_on_c, 0, 54, 0
2, 196302, Note_on_c, 0, 71, 102
2, 196304, Note_on_c, 0, 54, 78
2, 196406, Note_on_c, 0, 69, 0
2, 196407, Note_on_c, 0, 57, 0
2, 196407, Note_on_c, 0, 62, 0
2, 196407, Note_on_c, 0, 64, 0
2, 196407, Note_on_c, 0, 76, 0
2, 196407, Note_on_c, 0, 74, 0
2, 196408, Note_on_c, 0, 66, 0
2, 196409, Note_on_c, 0, 61, 0
2, 196409, Note_on_c, 0, 47, 0
2, 196410, Note_on_c, 0, 71, 0
2, 196410, Control_c, 0, 64, 0
2, 196431, Note_on_c, 0, 54, 0
2, 196463, Note_on_c, 0, 83, 105
2, 196465, Note_on_c, 0, 74, 102
2, 196466, Note_on_c, 0, 52, 98
2, 196466, Note_on_c, 0, 80, 97
2, 196466, Note_on_c, 0, 40, 93
2, 196523, Control_c, 0, 64, 127
2, 196753, Note_on_c, 0, 52, 0
2, 196757, Note_on_c, 0, 52, 83
2, 196891, Note_on_c, 0, 56, 78
2, 197068, Note_on_c, 0, 74, 0
2, 197068, Note_on_c, 0, 80, 0
2, 197068, Note_on_c, 0, 83, 0
2, 197072, Note_on_c, 0, 62, 94
2, 197073, Note_on_c, 0, 59, 91
2, 197073, Note_on_c, 0, 83, 102
2, 197076, Note_on_c, 0, 74, 100
2, 197079, Note_on_c, 0, 80, 93
2, 197214, Note_on_c, 0, 56, 0
2, 197222, Note_on_c, 0, 56, 85
2, 197368, Note_on_c, 0, 52, 0
2, 197375, Note_on_c, 0, 52, 91
2, 197380, Note_on_c, 0, 76, 105
2, 197382, Note_on_c, 0, 64, 106
2, 197526, Note_on_c, 0, 59, 0
2, 197527, Note_on_c, 0, 83, 0
2, 197528, Note_on_c, 0, 74, 0
2, 197528, Note_on_c, 0, 76, 0
2, 197529, Note_on_c, 0, 78, 105
2, 197529, Note_on_c, 0, 64, 0
2, 197529, Note_on_c, 0, 80, 0
2, 197530, Note_on_c, 0, 52, 0
2, 197531, Note_on_c, 0, 40, 0
2, 197531, Note_on_c, 0, 66, 95
2, 197532, Control_c, 0, 64, 0
2, 197544, Note_on_c, 0, 56, 0
2, 197544, Note_on_c, 0, 62, 0
2, 197583, Note_on_c, 0, 66, 0
2, 197644, Note_on_c, 0, 78, 0
2, 197684, Note_on_c, 0, 79, 110
2, 197685, Note_on_c, 0, 40, 99
2, 197687, Note_on_c, 0, 71, 102
2, 197688, Note_on_c, 0, 67, 102
2, 197688, Note_on_c, 0, 28, 92
2, 197698, Control_c, 0, 64, 127
2, 197998, Note_on_c, 0, 71, 0
2, 198001, Note_on_c, 0, 78, 99
2, 198003, Note_on_c, 0, 66, 96
2, 198007, Note_on_c, 0, 71, 69
2, 198008, Note_on_c, 0, 59, 89
2, 198008, Note_on_c, 0, 62, 83
2, 198010, Note_on_c, 0, 55, 78
2, 198151, Note_on_c, 0, 67, 0
2, 198151, Note_on_c, 0, 71, 0
2, 198151, Note_on_c, 0, 79, 0
2, 198157, Note_on_c, 0, 79, 106
2, 198159, Note_on_c, 0, 55, 0
2, 198160, Note_on_c, 0, 67, 94
2, 198162, Note_on_c, 0, 71, 90
2, 198164, Note_on_c, 0, 55, 79
2, 198164, Note_on_c, 0, 52, 87
2, 198305, Note_on_c, 0, 59, 0
2, 198305, Note_on_c, 0, 79, 0
2, 198312, Note_on_c, 0, 55, 0
2, 198312, Note_on_c, 0, 62, 0
2, 198313, Note_on_c, 0, 91, 107
2, 198315, Note_on_c, 0, 79, 103
2, 198316, Note_on_c, 0, 59, 96
2, 198317, Note_on_c, 0, 62, 87
2, 198317, Note_on_c, 0, 83, 95
2, 198322, Note_on_c, 0, 55, 91
2, 198458, Note_on_c, 0, 52, 0
2, 198464, Note_on_c, 0, 52, 85
2, 198604, Note_on_c, 0, 55, 0
2, 198604, Note_on_c, 0, 62, 0
2, 198612, Note_on_c, 0, 71, 0
2, 198612, Note_on_c, 0, 83, 0
2, 198614, Note_on_c, 0, 59, 0
2, 198615, Note_on_c, 0, 55, 82
2, 198616, Note_on_c, 0, 62, 95
2, 198616, Note_on_c, 0, 71, 100
2, 198618, Note_on_c, 0, 83, 104
2, 198620, Note_on_c, 0, 74, 95
2, 198696, Note_on_c, 0, 91, 0
2, 198701, Note_on_c, 0, 67, 0
2, 198702, Note_on_c, 0, 71, 0
2, 198702, Note_on_c, 0, 66, 0
2, 198702, Note_on_c, 0, 74, 0
2, 198702, Note_on_c, 0, 55, 0
2, 198702, Note_on_c, 0, 78, 0
2, 198702, Note_on_c, 0, 52, 0
2, 198702, Note_on_c, 0, 79, 0
2, 198702, Note_on_c, 0, 40, 0
2, 198703, Note_on_c, 0, 83, 0
2, 198704, Note_on_c, 0, 28, 0
2, 198707, Control_c, 0, 64, 0
2, 198720, Note_on_c, 0, 62, 0
2, 198770, Note_on_c, 0, 81, 107
2, 198771, Note_on_c, 0, 69, 105
2, 198773, Note_on_c, 0, 74, 84
2, 198777, Note_on_c, 0, 78, 95
2, 198913, Note_on_c, 0, 42, 107
2, 198914, Note_on_c, 0, 30, 103
2, 198927, Control_c, 0, 64, 127
2, 199065, Note_on_c, 0, 74, 0
2, 199069, Note_on_c, 0, 86, 108
2, 199073, Note_on_c, 0, 78, 0
2, 199075, Note_on_c, 0, 74, 99
2, 199083, Note_on_c, 0, 78, 89
2, 199217, Note_on_c, 0, 57, 97
2, 199220, Note_on_c, 0, 62, 84
2, 199222, Note_on_c, 0, 73, 103
2, 199223, Note_on_c, 0, 85, 103
2, 199365, Note_on_c, 0, 74, 0
2, 199365, Note_on_c, 0, 78, 0
2, 199365, Note_on_c, 0, 86, 0
2, 199369, Note_on_c, 0, 86, 109
2, 199369, Note_on_c, 0, 74, 105
2, 199369, Note_on_c, 0, 54, 89
2, 199370, Note_on_c, 0, 78, 97
2, 199518, Note_on_c, 0, 57, 0
2, 199518, Note_on_c, 0, 62, 0
2, 199518, Note_on_c, 0, 69, 0
2, 199518, Note_on_c, 0, 86, 0
2, 199524, Note_on_c, 0, 86, 103
2, 199525, Note_on_c, 0, 62, 91
2, 199528, Note_on_c, 0, 98, 112
2, 199529, Note_on_c, 0, 69, 89
2, 199530, Note_on_c, 0, 57, 97
2, 199672, Note_on_c, 0, 54, 0
2, 199680, Note_on_c, 0, 62, 0
2, 199683, Note_on_c, 0, 54, 92
2, 199684, Note_on_c, 0, 62, 79
2, 199825, Note_on_c, 0, 62, 0
2, 199825, Note_on_c, 0, 69, 0
2, 199825, Note_on_c, 0, 81, 0
2, 199833, Note_on_c, 0, 57, 0
2, 199833, Note_on_c, 0, 74, 0
2, 199836, Note_on_c, 0, 81, 106
2, 199837, Note_on_c, 0, 62, 86
2, 199837, Note_on_c, 0, 69, 105
2, 199838, Note_on_c, 0, 57, 95
2, 199843, Note_on_c, 0, 74, 88
2, 199964, Note_on_c, 0, 54, 0
2, 199973, Note_on_c, 0, 54, 87
2, 200062, Note_on_c, 0, 42, 0
2, 200062, Note_on_c, 0, 86, 0
2, 200062, Note_on_c, 0, 85, 0
2, 200062, Note_on_c, 0, 73, 0
2, 200063, Note_on_c, 0, 78, 0
2, 200063, Note_on_c, 0, 74, 0
2, 200063, Control_c, 0, 64, 0
2, 200064, Note_on_c, 0, 98, 0
2, 200065, Note_on_c, 0, 54, 0
2, 200071, Note_on_c, 0, 30, 0
2, 200079, Note_on_c, 0, 57, 0
2, 200079, Note_on_c, 0, 62, 0
2, 200079, Note_on_c, 0, 69, 0
2, 200079, Note_on_c, 0, 81, 0
2, 200137, Note_on_c, 0, 70, 107
2, 200137, Note_on_c, 0, 82, 106
2, 200137, Note_on_c, 0, 46, 105
2, 200138, Note_on_c, 0, 34, 98
2, 200141, Note_on_c, 0, 74, 101
2, 200143, Note_on_c, 0, 77, 91
2, 200163, Control_c, 0, 64, 127
2, 200444, Note_on_c, 0, 81, 105
2, 200449, Note_on_c, 0, 69, 101
2, 200458, Note_on_c, 0, 62, 87
2, 200459, Note_on_c, 0, 58, 85
2, 200593, Note_on_c, 0, 70, 0
2, 200593, Note_on_c, 0, 82, 0
2, 200602, Note_on_c, 0, 82, 108
2, 200604, Note_on_c, 0, 70, 98
2, 200614, Note_on_c, 0, 53, 91
2, 200616, Note_on_c, 0, 62, 0
2, 200622, Note_on_c, 0, 62, 74
2, 200755, Note_on_c, 0, 62, 0
2, 200755, Note_on_c, 0, 82, 0
2, 200758, Note_on_c, 0, 94, 109
2, 200758, Note_on_c, 0, 86, 103
2, 200760, Note_on_c, 0, 82, 106
2, 200762, Note_on_c, 0, 58, 0
2, 200766, Note_on_c, 0, 62, 92
2, 200767, Note_on_c, 0, 58, 100
2, 200908, Note_on_c, 0, 53, 0
2, 200914, Note_on_c, 0, 53, 93
2, 201054, Note_on_c, 0, 58, 0
2, 201054, Note_on_c, 0, 62, 0
2, 201059, Note_on_c, 0, 58, 81
2, 201062, Note_on_c, 0, 62, 92
2, 201065, Note_on_c, 0, 72, 107
2, 201065, Note_on_c, 0, 84, 107
2, 201208, Note_on_c, 0, 74, 0
2, 201208, Note_on_c, 0, 86, 0
2, 201217, Note_on_c, 0, 86, 109
2, 201218, Note_on_c, 0, 74, 110
2, 201304, Note_on_c, 0, 77, 0
2, 201304, Note_on_c, 0, 34, 0
2, 201304, Note_on_c, 0, 81, 0
2, 201304, Note_on_c, 0, 74, 0
2, 201304, Note_on_c, 0, 58, 0
2, 201304, Note_on_c, 0, 69, 0
2, 201304, Note_on_c, 0, 94, 0
2, 201304, Note_on_c, 0, 62, 0
2, 201305, Note_on_c, 0, 46, 0
2, 201305, Note_on_c, 0, 53, 0
2, 201305, Note_on_c, 0, 82, 0
2, 201305, Note_on_c, 0, 72, 0
2, 201305, Note_on_c, 0, 86, 0
2, 201305, Note_on_c, 0, 84, 0
2, 201310, Control_c, 0, 64, 0
2, 201323, Note_on_c, 0, 70, 0
2, 201367, Note_on_c, 0, 48, 105
2, 201368, Note_on_c, 0, 86, 109
2, 201371, Note_on_c, 0, 36, 96
2, 201371, Note_on_c, 0, 74, 112
2, 201373, Note_on_c, 0, 77, 101
2, 201377, Note_on_c, 0, 82, 101
2, 201408, Control_c, 0, 64, 127
2, 201661, Note_on_c, 0, 48, 0
2, 201667, Note_on_c, 0, 48, 89
2, 201833, Note_on_c, 0, 60, 106
2, 201837, Note_on_c, 0, 53, 95
2, 201837, Note_on_c, 0, 84, 106
2, 201838, Note_on_c, 0, 55, 99
2, 201838, Note_on_c, 0, 72, 109
2, 201984, Note_on_c, 0, 72, 0
2, 201984, Note_on_c, 0, 77, 0
2, 201984, Note_on_c, 0, 84, 0
2, 201989, Note_on_c, 0, 84, 106
2, 201990, Note_on_c, 0, 72, 107
2, 201991, Note_on_c, 0, 60, 0
2, 201991, Note_on_c, 0, 82, 0
2, 201995, Note_on_c, 0, 77, 98
2, 201996, Note_on_c, 0, 60, 92
2, 201998, Note_on_c, 0, 82, 99
2, 202268, Note_on_c, 0, 48, 0
2, 202279, Note_on_c, 0, 48, 92
2, 202452, Note_on_c, 0, 60, 0
2, 202452, Note_on_c, 0, 84, 0
2, 202458, Note_on_c, 0, 89, 100
2, 202458, Note_on_c, 0, 84, 106
2, 202459, Note_on_c, 0, 96, 107
2, 202460, Note_on_c, 0, 55, 0
2, 202462, Note_on_c, 0, 60, 103
2, 202463, Note_on_c, 0, 94, 105
2, 202470, Note_on_c, 0, 55, 100
2, 202476, Note_on_c, 0, 52, 93
2, 202790, Note_on_c, 0, 60, 0
2, 202790, Note_on_c, 0, 72, 0
2, 202801, Note_on_c, 0, 60, 99
2, 202801, Note_on_c, 0, 72, 104
2, 202928, Note_on_c, 0, 48, 0
2, 202936, Note_on_c, 0, 77, 0
2, 202938, Note_on_c, 0, 48, 92
2, 202940, Note_on_c, 0, 77, 101
2, 202946, Note_on_c, 0, 65, 101
2, 203088, Note_on_c, 0, 79, 105
2, 203093, Note_on_c, 0, 67, 98
2, 203212, Note_on_c, 0, 60, 0
2, 203221, Note_on_c, 0, 60, 103
2, 203228, Note_on_c, 0, 72, 0
2, 203228, Note_on_c, 0, 84, 0
2, 203232, Note_on_c, 0, 84, 108
2, 203234, Note_on_c, 0, 72, 108
2, 203266, Note_on_c, 0, 55, 0
2, 203271, Note_on_c, 0, 55, 74
2, 203297, Note_on_c, 0, 53, 0
2, 203306, Note_on_c, 0, 53, 69
2, 203366, Note_on_c, 0, 48, 0
2, 203370, Note_on_c, 0, 48, 88
2, 203445, Note_on_c, 0, 43, 89
2, 203535, Note_on_c, 0, 36, 0
2, 203541, Note_on_c, 0, 36, 90
2, 203596, Note_on_c, 0, 89, 0
2, 203600, Note_on_c, 0, 94, 0
2, 203600, Note_on_c, 0, 82, 0
2, 203601, Note_on_c, 0, 96, 0
2, 203601, Note_on_c, 0, 52, 0
2, 203601, Note_on_c, 0, 60, 0
2, 203601, Note_on_c, 0, 77, 0
2, 203601, Note_on_c, 0, 74, 0
2, 203601, Note_on_c, 0, 67, 0
2, 203601, Note_on_c, 0, 84, 0
2, 203602, Note_on_c, 0, 86, 0
2, 203602, Note_on_c, 0, 53, 0
2, 203602, Note_on_c, 0, 72, 0
2, 203602, Note_on_c, 0, 48, 0
2, 203602, Note_on_c, 0, 65, 0
2, 203603, Note_on_c, 0, 79, 0
2, 203603, Note_on_c, 0, 36, 0
2, 203604, Note_on_c, 0, 43, 0
2, 203605, Note_on_c, 0, 55, 0
2, 203613, Control_c, 0, 64, 0
2, 203862, Note_on_c, 0, 77, 104
2, 203867, Note_on_c, 0, 45, 90
2, 203868, Note_on_c, 0, 53, 93
2, 203868, Note_on_c, 0, 50, 87
2, 203869, Note_on_c, 0, 72, 96
2, 203870, Note_on_c, 0, 65, 96
2, 203870, Note_on_c, 0, 69, 95
2, 203996, Control_c, 0, 64, 127
2, 204215, Note_on_c, 0, 67, 88
2, 204518, Note_on_c, 0, 69, 0
2, 204527, Note_on_c, 0, 69, 91
2, 204672, Note_on_c, 0, 45, 0
2, 204677, Note_on_c, 0, 45, 97
2, 204787, Note_on_c, 0, 50, 0
2, 204840, Note_on_c, 0, 53, 0
2, 204840, Note_on_c, 0, 72, 0
2, 204848, Note_on_c, 0, 67, 0
2, 204849, Note_on_c, 0, 72, 101
2, 204851, Note_on_c, 0, 60, 95
2, 204852, Note_on_c, 0, 53, 84
2, 204856, Note_on_c, 0, 55, 83
2, 204859, Note_on_c, 0, 67, 77
2, 204948, Control_c, 0, 64, 0
2, 205025, Note_on_c, 0, 77, 0
2, 205056, Control_c, 0, 64, 127
2, 205455, Note_on_c, 0, 67, 0
2, 205461, Note_on_c, 0, 67, 82
2, 205470, Note_on_c, 0, 69, 0
2, 205616, Note_on_c, 0, 65, 0
2, 205621, Note_on_c, 0, 65, 88
2, 205762, Note_on_c, 0, 60, 0
2, 205771, Note_on_c, 0, 60, 82
2, 205931, Note_on_c, 0, 55, 0
2, 205935, Note_on_c, 0, 55, 77
2, 206077, Note_on_c, 0, 53, 0
2, 206088, Note_on_c, 0, 53, 78
2, 206234, Note_on_c, 0, 62, 83
2, 206396, Control_c, 0, 64, 0
2, 206400, Note_on_c, 0, 60, 0
2, 206403, Note_on_c, 0, 60, 90
2, 206404, Note_on_c, 0, 46, 92
2, 206406, Note_on_c, 0, 77, 95
2, 206407, Note_on_c, 0, 65, 0
2, 206410, Note_on_c, 0, 74, 93
2, 206413, Note_on_c, 0, 70, 87
2, 206418, Note_on_c, 0, 65, 93
2, 206429, Note_on_c, 0, 67, 0
2, 206430, Note_on_c, 0, 72, 0
2, 206430, Note_on_c, 0, 45, 0
2, 206431, Note_on_c, 0, 62, 0
2, 206433, Note_on_c, 0, 55, 0
2, 206515, Control_c, 0, 64, 127
2, 206706, Note_on_c, 0, 62, 87
2, 206876, Note_on_c, 0, 60, 0
2, 206876, Note_on_c, 0, 65, 0
2, 206883, Note_on_c, 0, 53, 0
2, 206887, Note_on_c, 0, 60, 82
2, 206887, Note_on_c, 0, 65, 91
2, 206888, Note_on_c, 0, 48, 93
2, 206888, Note_on_c, 0, 55, 82
2, 206888, Note_on_c, 0, 53, 81
2, 206895, Note_on_c, 0, 74, 0
2, 206899, Note_on_c, 0, 77, 0
2, 207200, Note_on_c, 0, 67, 91
2, 207360, Note_on_c, 0, 65, 0
2, 207363, Note_on_c, 0, 41, 89
2, 207364, Control_c, 0, 64, 0
2, 207364, Note_on_c, 0, 69, 99
2, 207368, Note_on_c, 0, 57, 95
2, 207370, Note_on_c, 0, 65, 91
2, 207376, Note_on_c, 0, 48, 0
2, 207378, Note_on_c, 0, 55, 0
2, 207378, Note_on_c, 0, 67, 0
2, 207378, Note_on_c, 0, 53, 0
2, 207398, Note_on_c, 0, 46, 0
2, 207398, Note_on_c, 0, 62, 0
2, 207398, Note_on_c, 0, 70, 0
2, 207559, Control_c, 0, 64, 127
2, 207817, Note_on_c, 0, 48, 73
2, 207974, Note_on_c, 0, 53, 81
2, 208097, Note_on_c, 0, 57, 0
2, 208102, Note_on_c, 0, 57, 93
2, 208266, Note_on_c, 0, 60, 0
2, 208271, Note_on_c, 0, 60, 97
2, 208276, Note_on_c, 0, 67, 101
2, 208277, Note_on_c, 0, 55, 91
2, 208279, Note_on_c, 0, 52, 82
2, 208569, Note_on_c, 0, 40, 82
2, 208887, Control_c, 0, 64, 0
2, 208895, Note_on_c, 0, 52, 0
2, 208897, Note_on_c, 0, 60, 0
2, 208897, Note_on_c, 0, 57, 0
2, 208897, Note_on_c, 0, 48, 0
2, 208898, Note_on_c, 0, 67, 0
2, 208898, Note_on_c, 0, 55, 0
2, 208899, Note_on_c, 0, 41, 0
2, 208909, Note_on_c, 0, 77, 100
2, 208911, Note_on_c, 0, 65, 0
2, 208911, Note_on_c, 0, 69, 0
2, 208914, Note_on_c, 0, 74, 96
2, 208915, Note_on_c, 0, 50, 82
2, 208915, Note_on_c, 0, 65, 97
2, 208916, Note_on_c, 0, 45, 85
2, 208919, Note_on_c, 0, 40, 0
2, 208920, Note_on_c, 0, 69, 88
2, 209057, Control_c, 0, 64, 127
2, 209245, Note_on_c, 0, 67, 99
2, 209548, Note_on_c, 0, 69, 0
2, 209555, Note_on_c, 0, 69, 96
2, 209694, Note_on_c, 0, 45, 0
2, 209698, Note_on_c, 0, 45, 98
2, 209879, Note_on_c, 0, 53, 0
2, 209879, Note_on_c, 0, 65, 0
2, 209879, Note_on_c, 0, 67, 0
2, 209882, Note_on_c, 0, 60, 95
2, 209882, Note_on_c, 0, 72, 101
2, 209883, Note_on_c, 0, 53, 87
2, 209886, Note_on_c, 0, 77, 0
2, 209889, Note_on_c, 0, 65, 86
2, 209890, Note_on_c, 0, 55, 86
2, 209890, Note_on_c, 0, 67, 81
2, 209922, Note_on_c, 0, 69, 0
2, 209932, Control_c, 0, 64, 0
2, 209948, Note_on_c, 0, 50, 0
2, 209948, Note_on_c, 0, 74, 0
2, 210101, Control_c, 0, 64, 127
2, 210501, Note_on_c, 0, 67, 0
2, 210510, Note_on_c, 0, 67, 92
2, 210654, Note_on_c, 0, 65, 0
2, 210665, Note_on_c, 0, 65, 82
2, 210785, Note_on_c, 0, 60, 0
2, 210796, Note_on_c, 0, 60, 75
2, 210969, Note_on_c, 0, 55, 0
2, 210973, Note_on_c, 0, 55, 74
2, 211107, Note_on_c, 0, 53, 0
2, 211115, Note_on_c, 0, 53, 82
2, 211265, Note_on_c, 0, 62, 82
2, 211430, Note_on_c, 0, 53, 0
2, 211431, Note_on_c, 0, 77, 96
2, 211432, Note_on_c, 0, 46, 89
2, 211434, Note_on_c, 0, 74, 94
2, 211438, Note_on_c, 0, 65, 0
2, 211441, Control_c, 0, 64, 0
2, 211441, Note_on_c, 0, 53, 77
2, 211442, Note_on_c, 0, 65, 83
2, 211451, Note_on_c, 0, 70, 69
2, 211456, Note_on_c, 0, 67, 0
2, 211456, Note_on_c, 0, 72, 0
2, 211457, Note_on_c, 0, 62, 0
2, 211457, Note_on_c, 0, 55, 0
2, 211458, Note_on_c, 0, 45, 0
2, 211568, Control_c, 0, 64, 127
2, 211758, Note_on_c, 0, 69, 90
2, 211891, Note_on_c, 0, 77, 0
2, 211923, Note_on_c, 0, 67, 92
2, 212052, Note_on_c, 0, 53, 0
2, 212062, Control_c, 0, 64, 0
2, 212063, Note_on_c, 0, 48, 86
2, 212063, Note_on_c, 0, 55, 75
2, 212063, Note_on_c, 0, 53, 70
2, 212088, Note_on_c, 0, 46, 0
2, 212167, Control_c, 0, 64, 127
2, 212367, Note_on_c, 0, 65, 0
2, 212376, Note_on_c, 0, 65, 79
2, 212544, Note_on_c, 0, 65, 0
2, 212547, Note_on_c, 0, 65, 78
2, 212679, Note_on_c, 0, 41, 75
2, 212680, Note_on_c, 0, 57, 78
2, 212693, Control_c, 0, 64, 0
2, 212702, Note_on_c, 0, 69, 0
2, 212703, Note_on_c, 0, 48, 0
2, 212703, Note_on_c, 0, 55, 0
2, 212704, Note_on_c, 0, 67, 0
2, 212712, Note_on_c, 0, 60, 0
2, 212712, Note_on_c, 0, 70, 0
2, 212720, Note_on_c, 0, 74, 0
2, 212759, Note_on_c, 0, 53, 0
2, 212843, Control_c, 0, 64, 127
2, 212970, Note_on_c, 0, 48, 60
2, 213144, Note_on_c, 0, 55, 72
2, 213317, Note_on_c, 0, 60, 68
2, 213470, Note_on_c, 0, 64, 64
2, 213619, Note_on_c, 0, 67, 74
2, 213622, Note_on_c, 0, 52, 64
2, 213941, Note_on_c, 0, 57, 0
2, 213947, Note_on_c, 0, 77, 86
2, 213947, Note_on_c, 0, 57, 73
2, 213949, Note_on_c, 0, 65, 0
2, 213951, Note_on_c, 0, 72, 83
2, 213953, Note_on_c, 0, 50, 70
2, 213957, Note_on_c, 0, 65, 69
2, 213988, Control_c, 0, 64, 0
2, 213991, Note_on_c, 0, 60, 0
2, 213992, Note_on_c, 0, 64, 0
2, 213992, Note_on_c, 0, 52, 0
2, 213993, Note_on_c, 0, 55, 0
2, 213993, Note_on_c, 0, 48, 0
2, 213994, Note_on_c, 0, 67, 0
2, 213994, Note_on_c, 0, 41, 0
2, 214095, Control_c, 0, 64, 127
2, 214290, Note_on_c, 0, 79, 88
2, 214318, Note_on_c, 0, 65, 0
2, 214612, Note_on_c, 0, 81, 90
2, 214755, Note_on_c, 0, 50, 0
2, 214767, Note_on_c, 0, 50, 58
2, 214924, Note_on_c, 0, 84, 95
2, 214929, Note_on_c, 0, 53, 67
2, 214931, Note_on_c, 0, 60, 70
2, 214940, Note_on_c, 0, 72, 0
2, 214944, Note_on_c, 0, 46, 63
2, 214947, Note_on_c, 0, 77, 0
2, 214950, Note_on_c, 0, 72, 69
2, 214952, Note_on_c, 0, 77, 64
2, 214968, Control_c, 0, 64, 0
2, 214990, Note_on_c, 0, 79, 0
2, 214991, Note_on_c, 0, 50, 0
2, 214992, Note_on_c, 0, 81, 0
2, 215001, Note_on_c, 0, 57, 0
2, 215070, Control_c, 0, 64, 127
2, 215579, Note_on_c, 0, 79, 80
2, 215616, Note_on_c, 0, 72, 0
2, 215723, Note_on_c, 0, 77, 0
2, 215728, Note_on_c, 0, 77, 80
2, 215865, Note_on_c, 0, 65, 63
2, 216015, Note_on_c, 0, 60, 0
2, 216020, Note_on_c, 0, 60, 65
2, 216166, Note_on_c, 0, 58, 76
2, 216341, Note_on_c, 0, 72, 69
2, 216476, Note_on_c, 0, 79, 0
2, 216482, Note_on_c, 0, 79, 94
2, 216483, Note_on_c, 0, 72, 0
2, 216487, Note_on_c, 0, 48, 64
2, 216488, Note_on_c, 0, 72, 82
2, 216492, Note_on_c, 0, 55, 65
2, 216493, Note_on_c, 0, 64, 73
2, 216493, Note_on_c, 0, 76, 78
2, 216503, Control_c, 0, 64, 0
2, 216526, Note_on_c, 0, 60, 0
2, 216527, Note_on_c, 0, 65, 0
2, 216527, Note_on_c, 0, 53, 0
2, 216528, Note_on_c, 0, 58, 0
2, 216528, Note_on_c, 0, 84, 0
2, 216530, Note_on_c, 0, 46, 0
2, 216531, Note_on_c, 0, 77, 0
2, 216622, Control_c, 0, 64, 127
2, 216826, Note_on_c, 0, 77, 72
2, 216967, Note_on_c, 0, 72, 0
2, 216967, Note_on_c, 0, 79, 0
2, 216973, Note_on_c, 0, 79, 87
2, 216979, Note_on_c, 0, 72, 84
2, 217413, Note_on_c, 0, 48, 0
2, 217424, Note_on_c, 0, 48, 66
2, 217425, Note_on_c, 0, 82, 92
2, 217584, Note_on_c, 0, 81, 95
2, 217594, Note_on_c, 0, 69, 76
2, 217597, Note_on_c, 0, 76, 0
2, 217608, Note_on_c, 0, 76, 68
2, 217609, Note_on_c, 0, 73, 72
2, 217725, Control_c, 0, 64, 0
2, 217731, Note_on_c, 0, 82, 0
2, 217731, Note_on_c, 0, 79, 0
2, 217732, Note_on_c, 0, 72, 0
2, 217733, Note_on_c, 0, 55, 0
2, 217735, Note_on_c, 0, 64, 0
2, 217736, Note_on_c, 0, 57, 66
2, 217741, Note_on_c, 0, 64, 68
2, 217743, Note_on_c, 0, 77, 0
2, 217751, Note_on_c, 0, 48, 0
2, 217764, Note_on_c, 0, 49, 62
2, 217850, Control_c, 0, 64, 127
2, 218209, Note_on_c, 0, 45, 76
2, 218211, Note_on_c, 0, 64, 0
2, 218365, Note_on_c, 0, 45, 0
2, 218370, Note_on_c, 0, 45, 62
2, 218375, Note_on_c, 0, 52, 62
2, 218376, Note_on_c, 0, 79, 92
2, 218380, Note_on_c, 0, 76, 0
2, 218388, Note_on_c, 0, 73, 0
2, 218391, Note_on_c, 0, 76, 76
2, 218394, Note_on_c, 0, 73, 66
2, 218396, Note_on_c, 0, 67, 64
2, 218522, Note_on_c, 0, 59, 67
2, 218692, Note_on_c, 0, 61, 74
2, 219018, Note_on_c, 0, 57, 0
2, 219018, Note_on_c, 0, 69, 0
2, 219019, Note_on_c, 0, 77, 91
2, 219022, Note_on_c, 0, 50, 75
2, 219023, Note_on_c, 0, 69, 81
2, 219025, Note_on_c, 0, 57, 75
2, 219027, Note_on_c, 0, 74, 81
2, 219028, Note_on_c, 0, 65, 71
2, 219050, Control_c, 0, 64, 0
2, 219059, Note_on_c, 0, 59, 0
2, 219060, Note_on_c, 0, 52, 0
2, 219060, Note_on_c, 0, 73, 0
2, 219060, Note_on_c, 0, 61, 0
2, 219060, Note_on_c, 0, 45, 0
2, 219060, Note_on_c, 0, 79, 0
2, 219060, Note_on_c, 0, 49, 0
2, 219060, Note_on_c, 0, 67, 0
2, 219061, Note_on_c, 0, 76, 0
2, 219079, Note_on_c, 0, 81, 0
2, 219156, Control_c, 0, 64, 127
2, 219351, Note_on_c, 0, 76, 76
2, 219494, Note_on_c, 0, 69, 0
2, 219494, Note_on_c, 0, 77, 0
2, 219501, Note_on_c, 0, 69, 79
2, 219501, Note_on_c, 0, 77, 86
2, 219993, Note_on_c, 0, 50, 0
2, 219998, Note_on_c, 0, 86, 85
2, 219998, Note_on_c, 0, 50, 67
2, 220158, Note_on_c, 0, 84, 95
2, 220167, Note_on_c, 0, 72, 73
2, 220177, Note_on_c, 0, 77, 0
2, 220182, Note_on_c, 0, 82, 65
2, 220182, Note_on_c, 0, 77, 58
2, 220295, Control_c, 0, 64, 0
2, 220305, Note_on_c, 0, 65, 0
2, 220305, Note_on_c, 0, 60, 58
2, 220306, Note_on_c, 0, 69, 0
2, 220306, Note_on_c, 0, 74, 0
2, 220307, Note_on_c, 0, 46, 62
2, 220307, Note_on_c, 0, 50, 0
2, 220309, Note_on_c, 0, 58, 67
2, 220310, Note_on_c, 0, 53, 56
2, 220310, Note_on_c, 0, 76, 0
2, 220316, Note_on_c, 0, 57, 0
2, 220316, Note_on_c, 0, 86, 0
2, 220369, Control_c, 0, 64, 127
2, 220631, Note_on_c, 0, 72, 0
2, 220638, Note_on_c, 0, 77, 0
2, 220643, Note_on_c, 0, 77, 74
2, 220792, Note_on_c, 0, 77, 0
2, 220796, Note_on_c, 0, 77, 75
2, 220930, Note_on_c, 0, 58, 0
2, 220930, Note_on_c, 0, 60, 0
2, 220939, Note_on_c, 0, 58, 59
2, 220941, Note_on_c, 0, 65, 55
2, 220941, Note_on_c, 0, 60, 47
2, 221437, Note_on_c, 0, 72, 73
2, 221583, Note_on_c, 0, 48, 55
2, 221592, Note_on_c, 0, 79, 87
2, 221594, Note_on_c, 0, 55, 53
2, 221599, Note_on_c, 0, 62, 56
2, 221612, Control_c, 0, 64, 0
2, 221632, Note_on_c, 0, 84, 0
2, 221633, Note_on_c, 0, 72, 0
2, 221633, Note_on_c, 0, 77, 0
2, 221633, Note_on_c, 0, 46, 0
2, 221633, Note_on_c, 0, 53, 0
2, 221633, Note_on_c, 0, 65, 0
2, 221633, Note_on_c, 0, 58, 0
2, 221644, Note_on_c, 0, 82, 0
2, 221652, Note_on_c, 0, 60, 0
2, 221783, Control_c, 0, 64, 127
2, 221907, Note_on_c, 0, 81, 87
2, 222051, Note_on_c, 0, 79, 0
2, 222062, Note_on_c, 0, 79, 86
2, 222078, Note_on_c, 0, 76, 67
2, 222136, Control_c, 0, 64, 0
2, 222213, Note_on_c, 0, 81, 0
2, 222222, Note_on_c, 0, 64, 59
2, 222228, Control_c, 0, 64, 127
2, 222535, Note_on_c, 0, 77, 79
2, 222689, Note_on_c, 0, 77, 0
2, 222695, Note_on_c, 0, 77, 80
2, 222696, Note_on_c, 0, 62, 0
2, 222850, Control_c, 0, 64, 0
2, 222851, Note_on_c, 0, 53, 49
2, 222855, Note_on_c, 0, 70, 54
2, 222868, Note_on_c, 0, 79, 0
2, 222869, Note_on_c, 0, 55, 0
2, 222869, Note_on_c, 0, 48, 0
2, 222870, Note_on_c, 0, 64, 0
2, 222873, Note_on_c, 0, 76, 0
2, 222878, Note_on_c, 0, 60, 24
2, 223019, Control_c, 0, 64, 127
2, 223495, Note_on_c, 0, 53, 0
2, 223497, Note_on_c, 0, 69, 54
2, 223502, Note_on_c, 0, 53, 36
2, 223507, Note_on_c, 0, 52, 36
2, 223518, Note_on_c, 0, 60, 0
2, 223529, Note_on_c, 0, 60, 8
2, 223564, Control_c, 0, 64, 0
2, 223649, Control_c, 0, 64, 127
2, 223827, Note_on_c, 0, 67, 65
2, 223975, Note_on_c, 0, 65, 73
2, 224117, Note_on_c, 0, 60, 0
2, 224129, Note_on_c, 0, 60, 52
2, 224133, Note_on_c, 0, 50, 41
2, 224138, Note_on_c, 0, 57, 41
2, 224170, Control_c, 0, 64, 0
2, 224171, Note_on_c, 0, 52, 0
2, 224174, Note_on_c, 0, 67, 0
2, 224175, Note_on_c, 0, 69, 0
2, 224179, Note_on_c, 0, 70, 0
2, 224194, Note_on_c, 0, 77, 0
2, 224470, Note_on_c, 0, 64, 63
2, 224524, Note_on_c, 0, 65, 0
2, 224563, Note_on_c, 0, 53, 0
2, 224637, Note_on_c, 0, 65, 62
2, 224657, Note_on_c, 0, 64, 0
2, 224924, Control_c, 0, 64, 127
2, 225099, Note_on_c, 0, 74, 76
2, 225260, Note_on_c, 0, 72, 74
2, 225393, Control_c, 0, 64, 0
2, 225395, Note_on_c, 0, 74, 0
2, 225400, Note_on_c, 0, 60, 0
2, 225404, Note_on_c, 0, 53, 43
2, 225405, Note_on_c, 0, 60, 41
2, 225406, Note_on_c, 0, 50, 0
2, 225407, Note_on_c, 0, 65, 0
2, 225407, Note_on_c, 0, 58, 51
2, 225409, Note_on_c, 0, 46, 45
2, 225410, Note_on_c, 0, 57, 0
2, 225743, Note_on_c, 0, 65, 56
2, 225891, Note_on_c, 0, 65, 0
2, 225900, Note_on_c, 0, 65, 51
2, 226068, Control_c, 0, 64, 127
2, 226567, Note_on_c, 0, 60, 0
2, 226572, Note_on_c, 0, 60, 65
2, 226728, Note_on_c, 0, 53, 0
2, 226728, Note_on_c, 0, 72, 0
2, 226731, Note_on_c, 0, 55, 51
2, 226738, Note_on_c, 0, 53, 48
2, 226741, Note_on_c, 0, 48, 41
2, 226744, Note_on_c, 0, 65, 0
2, 226755, Note_on_c, 0, 65, 64
2, 226790, Control_c, 0, 64, 0
2, 226913, Note_on_c, 0, 46, 0
2, 226920, Note_on_c, 0, 58, 0
2, 227063, Note_on_c, 0, 69, 63
2, 227231, Note_on_c, 0, 67, 64
2, 227238, Note_on_c, 0, 69, 0
2, 227427, Control_c, 0, 64, 127
2, 228303, Note_on_c, 0, 60, 0
2, 229204, Note_on_c, 0, 72, 76
2, 229539, Note_on_c, 0, 65, 0
2, 229539, Note_on_c, 0, 67, 0
2, 229543, Note_on_c, 0, 77, 78
2, 229547, Note_on_c, 0, 60, 50
2, 229550, Note_on_c, 0, 65, 46
2, 229551, Note_on_c, 0, 67, 53
2, 229589, Control_c, 0, 64, 0
2, 229655, Control_c, 0, 64, 127
2, 229845, Note_on_c, 0, 81, 77
2, 230036, Note_on_c, 0, 79, 75
2, 230123, Note_on_c, 0, 53, 0
2, 230499, Note_on_c, 0, 72, 0
2, 230760, Note_on_c, 0, 81, 0
2, 231336, Note_on_c, 0, 55, 0
2, 231352, Note_on_c, 0, 48, 0
2, 231613, Note_on_c, 0, 77, 0
2, 231620, Note_on_c, 0, 77, 67
2, 232307, Note_on_c, 0, 76, 62
2, 232320, Note_on_c, 0, 65, 0
2, 232320, Note_on_c, 0, 67, 0
2, 232320, Note_on_c, 0, 79, 0
2, 233025, Note_on_c, 0, 72, 56
2, 233774, Note_on_c, 0, 67, 41
2, 234155, Note_on_c, 0, 60, 0
2, 234591, Note_on_c, 0, 65, 39
2, 235496, Note_on_c, 0, 64, 45
2, 236160, Note_on_c, 0, 72, 0
2, 236160, Note_on_c, 0, 76, 0
2, 236160, Note_on_c, 0, 77, 0
2, 236520, Note_on_c, 0, 67, 0
2, 236699, Note_on_c, 0, 60, 52
2, 236828, Note_on_c, 0, 65, 0
2, 237045, Note_on_c, 0, 64, 0
2, 237219, Control_c, 0, 64, 0
2, 237396, Control_c, 0, 64, 127
2, 238944, Note_on_c, 0, 69, 81
2, 238953, Note_on_c, 0, 58, 47
2, 239001, Note_on_c, 0, 60, 0
2, 239221, Note_on_c, 0, 62, 40
2, 239324, Note_on_c, 0, 58, 0
2, 239333, Note_on_c, 0, 58, 46
2, 239416, Note_on_c, 0, 62, 0
2, 239425, Note_on_c, 0, 62, 43
2, 239523, Note_on_c, 0, 58, 0
2, 239527, Note_on_c, 0, 58, 51
2, 239631, Note_on_c, 0, 62, 0
2, 239636, Note_on_c, 0, 62, 44
2, 239692, Note_on_c, 0, 58, 0
2, 239701, Note_on_c, 0, 58, 51
2, 239769, Note_on_c, 0, 62, 0
2, 239773, Note_on_c, 0, 62, 58
2, 239854, Note_on_c, 0, 58, 0
2, 239861, Note_on_c, 0, 58, 42
2, 239923, Note_on_c, 0, 62, 0
2, 239929, Note_on_c, 0, 62, 55
2, 239992, Note_on_c, 0, 58, 0
2, 239996, Note_on_c, 0, 58, 40
2, 240076, Note_on_c, 0, 62, 0
2, 240087, Note_on_c, 0, 62, 52
2, 240130, Note_on_c, 0, 58, 0
2, 240134, Note_on_c, 0, 58, 44
2, 240192, Note_on_c, 0, 62, 0
2, 240196, Note_on_c, 0, 62, 69
2, 240253, Note_on_c, 0, 58, 0
2, 240263, Note_on_c, 0, 58, 64
2, 240353, Note_on_c, 0, 62, 0
2, 240359, Note_on_c, 0, 62, 61
2, 240414, Note_on_c, 0, 58, 0
2, 240424, Note_on_c, 0, 58, 61
2, 240494, Note_on_c, 0, 72, 90
2, 240506, Note_on_c, 0, 62, 0
2, 240513, Note_on_c, 0, 62, 59
2, 240576, Note_on_c, 0, 58, 0
2, 240585, Note_on_c, 0, 58, 54
2, 240660, Note_on_c, 0, 62, 0
2, 240664, Note_on_c, 0, 62, 60
2, 240714, Note_on_c, 0, 58, 0
2, 240719, Note_on_c, 0, 58, 56
2, 240791, Note_on_c, 0, 62, 0
2, 240796, Note_on_c, 0, 62, 61
2, 240852, Note_on_c, 0, 58, 0
2, 240858, Note_on_c, 0, 58, 54
2, 240913, Note_on_c, 0, 62, 0
2, 240922, Note_on_c, 0, 62, 63
2, 240975, Note_on_c, 0, 58, 0
2, 240981, Note_on_c, 0, 58, 65
2, 241044, Note_on_c, 0, 62, 0
2, 241055, Note_on_c, 0, 62, 65
2, 241098, Note_on_c, 0, 58, 0
2, 241109, Note_on_c, 0, 58, 66
2, 241182, Note_on_c, 0, 62, 0
2, 241193, Note_on_c, 0, 62, 61
2, 241236, Note_on_c, 0, 58, 0
2, 241239, Note_on_c, 0, 67, 84
2, 241247, Note_on_c, 0, 58, 62
2, 241320, Note_on_c, 0, 62, 0
2, 241325, Note_on_c, 0, 62, 69
2, 241374, Note_on_c, 0, 58, 0
2, 241384, Note_on_c, 0, 58, 50
2, 241451, Note_on_c, 0, 62, 0
2, 241461, Note_on_c, 0, 62, 67
2, 241489, Note_on_c, 0, 58, 0
2, 241500, Note_on_c, 0, 58, 65
2, 241559, Note_on_c, 0, 62, 0
2, 241566, Note_on_c, 0, 62, 69
2, 241620, Note_on_c, 0, 58, 0
2, 241627, Note_on_c, 0, 58, 54
2, 241681, Note_on_c, 0, 62, 0
2, 241687, Note_on_c, 0, 62, 56
2, 241720, Note_on_c, 0, 58, 0
2, 241730, Note_on_c, 0, 58, 68
2, 241797, Note_on_c, 0, 62, 0
2, 241807, Note_on_c, 0, 62, 54
2, 241835, Note_on_c, 0, 58, 0
2, 241843, Note_on_c, 0, 58, 72
2, 241896, Note_on_c, 0, 62, 0
2, 241907, Note_on_c, 0, 62, 73
2, 241973, Note_on_c, 0, 62, 0
2, 241984, Note_on_c, 0, 62, 54
2, 242065, Note_on_c, 0, 69, 0
2, 242071, Note_on_c, 0, 69, 91
2, 242077, Note_on_c, 0, 60, 72
2, 242100, Control_c, 0, 64, 0
2, 242106, Note_on_c, 0, 67, 0
2, 242106, Note_on_c, 0, 72, 0
2, 242107, Note_on_c, 0, 58, 0
2, 242107, Note_on_c, 0, 62, 0
2, 242173, Note_on_c, 0, 64, 61
2, 242196, Control_c, 0, 64, 127
2, 242242, Note_on_c, 0, 60, 0
2, 242251, Note_on_c, 0, 60, 45
2, 242251, Note_on_c, 0, 67, 36
2, 242327, Note_on_c, 0, 64, 0
2, 242331, Note_on_c, 0, 64, 54
2, 242373, Note_on_c, 0, 60, 0
2, 242383, Note_on_c, 0, 60, 55
2, 242465, Note_on_c, 0, 64, 0
2, 242472, Note_on_c, 0, 64, 64
2, 242542, Note_on_c, 0, 60, 0
2, 242547, Note_on_c, 0, 60, 58
2, 242611, Note_on_c, 0, 64, 0
2, 242620, Note_on_c, 0, 64, 63
2, 242672, Note_on_c, 0, 60, 0
2, 242680, Note_on_c, 0, 60, 60
2, 242757, Note_on_c, 0, 64, 0
2, 242762, Note_on_c, 0, 64, 61
2, 242810, Note_on_c, 0, 60, 0
2, 242815, Note_on_c, 0, 60, 63
2, 242880, Note_on_c, 0, 64, 0
2, 242890, Note_on_c, 0, 64, 64
2, 242949, Note_on_c, 0, 60, 0
2, 242953, Note_on_c, 0, 60, 65
2, 243025, Note_on_c, 0, 64, 0
2, 243030, Note_on_c, 0, 64, 67
2, 243072, Note_on_c, 0, 60, 0
2, 243082, Note_on_c, 0, 60, 61
2, 243156, Note_on_c, 0, 64, 0
2, 243163, Note_on_c, 0, 64, 66
2, 243210, Note_on_c, 0, 60, 0
2, 243220, Note_on_c, 0, 60, 64
2, 243287, Note_on_c, 0, 64, 0
2, 243297, Note_on_c, 0, 64, 69
2, 243356, Note_on_c, 0, 60, 0
2, 243360, Note_on_c, 0, 60, 47
2, 243448, Note_on_c, 0, 64, 0
2, 243459, Note_on_c, 0, 64, 53
2, 243502, Note_on_c, 0, 60, 0
2, 243508, Note_on_c, 0, 60, 59
2, 243520, Note_on_c, 0, 72, 98
2, 243535, Note_on_c, 0, 65, 73
2, 243586, Note_on_c, 0, 64, 0
2, 243590, Note_on_c, 0, 64, 63
2, 243655, Note_on_c, 0, 60, 0
2, 243659, Note_on_c, 0, 60, 50
2, 243732, Note_on_c, 0, 64, 0
2, 243742, Note_on_c, 0, 64, 55
2, 243793, Note_on_c, 0, 60, 0
2, 243799, Note_on_c, 0, 60, 59
2, 243840, Note_on_c, 0, 67, 0
2, 243863, Note_on_c, 0, 64, 0
2, 243871, Note_on_c, 0, 64, 61
2, 243924, Note_on_c, 0, 60, 0
2, 243931, Note_on_c, 0, 60, 62
2, 244024, Note_on_c, 0, 64, 0
2, 244029, Note_on_c, 0, 64, 58
2, 244078, Note_on_c, 0, 60, 0
2, 244082, Note_on_c, 0, 60, 71
2, 244154, Note_on_c, 0, 64, 0
2, 244164, Note_on_c, 0, 64, 67
2, 244216, Note_on_c, 0, 60, 0
2, 244227, Note_on_c, 0, 60, 59
2, 244277, Note_on_c, 0, 67, 65
2, 244308, Note_on_c, 0, 64, 0
2, 244318, Note_on_c, 0, 64, 58
2, 244369, Note_on_c, 0, 60, 0
2, 244373, Note_on_c, 0, 60, 67
2, 244462, Note_on_c, 0, 64, 0
2, 244471, Note_on_c, 0, 64, 66
2, 244523, Note_on_c, 0, 60, 0
2, 244529, Note_on_c, 0, 60, 66
2, 244608, Note_on_c, 0, 64, 0
2, 244612, Note_on_c, 0, 64, 69
2, 244654, Note_on_c, 0, 60, 0
2, 244665, Note_on_c, 0, 60, 62
2, 244738, Note_on_c, 0, 64, 0
2, 244749, Note_on_c, 0, 64, 54
2, 244769, Note_on_c, 0, 60, 0
2, 244777, Note_on_c, 0, 60, 66
2, 244861, Note_on_c, 0, 64, 0
2, 244865, Note_on_c, 0, 64, 65
2, 245084, Note_on_c, 0, 69, 0
2, 245093, Note_on_c, 0, 69, 96
2, 245095, Note_on_c, 0, 62, 70
2, 245112, Note_on_c, 0, 65, 0
2, 245113, Note_on_c, 0, 60, 0
2, 245114, Note_on_c, 0, 64, 0
2, 245115, Note_on_c, 0, 72, 0
2, 245115, Note_on_c, 0, 67, 0
2, 245128, Control_c, 0, 64, 0
2, 245183, Note_on_c, 0, 65, 61
2, 245222, Control_c, 0, 64, 127
2, 245276, Note_on_c, 0, 62, 0
2, 245284, Note_on_c, 0, 62, 61
2, 245352, Note_on_c, 0, 65, 0
2, 245359, Note_on_c, 0, 65, 64
2, 245422, Note_on_c, 0, 62, 0
2, 245429, Note_on_c, 0, 62, 65
2, 245506, Note_on_c, 0, 65, 0
2, 245517, Note_on_c, 0, 65, 57
2, 245583, Note_on_c, 0, 62, 0
2, 245587, Note_on_c, 0, 62, 65
2, 245644, Note_on_c, 0, 65, 0
2, 245654, Note_on_c, 0, 65, 62
2, 245713, Note_on_c, 0, 62, 0
2, 245724, Note_on_c, 0, 62, 66
2, 245790, Note_on_c, 0, 65, 0
2, 245796, Note_on_c, 0, 65, 60
2, 245844, Note_on_c, 0, 62, 0
2, 245853, Note_on_c, 0, 62, 67
2, 245921, Note_on_c, 0, 65, 0
2, 245932, Note_on_c, 0, 65, 66
2, 245998, Note_on_c, 0, 62, 0
2, 246005, Note_on_c, 0, 62, 68
2, 246067, Note_on_c, 0, 65, 0
2, 246076, Note_on_c, 0, 65, 65
2, 246136, Note_on_c, 0, 62, 0
2, 246143, Note_on_c, 0, 62, 74
2, 246205, Note_on_c, 0, 65, 0
2, 246213, Note_on_c, 0, 65, 66
2, 246274, Note_on_c, 0, 62, 0
2, 246280, Note_on_c, 0, 62, 69
2, 246351, Note_on_c, 0, 65, 0
2, 246361, Note_on_c, 0, 65, 66
2, 246428, Note_on_c, 0, 62, 0
2, 246433, Note_on_c, 0, 62, 66
2, 246504, Note_on_c, 0, 65, 0
2, 246515, Note_on_c, 0, 72, 100
2, 246516, Note_on_c, 0, 65, 69
2, 246555, Control_c, 0, 64, 0
2, 246558, Note_on_c, 0, 62, 0
2, 246567, Note_on_c, 0, 62, 72
2, 246589, Control_c, 0, 64, 127
2, 246635, Note_on_c, 0, 65, 0
2, 246640, Note_on_c, 0, 65, 66
2, 246689, Note_on_c, 0, 62, 0
2, 246696, Note_on_c, 0, 62, 75
2, 246758, Note_on_c, 0, 65, 0
2, 246764, Note_on_c, 0, 65, 66
2, 246835, Note_on_c, 0, 62, 0
2, 246842, Note_on_c, 0, 62, 69
2, 246896, Note_on_c, 0, 65, 0
2, 246902, Note_on_c, 0, 65, 71
2, 246958, Note_on_c, 0, 62, 0
2, 246966, Note_on_c, 0, 62, 73
2, 247011, Note_on_c, 0, 65, 0
2, 247018, Note_on_c, 0, 65, 73
2, 247080, Note_on_c, 0, 62, 0
2, 247089, Note_on_c, 0, 62, 78
2, 247173, Note_on_c, 0, 65, 0
2, 247177, Note_on_c, 0, 65, 68
2, 247226, Note_on_c, 0, 62, 0
2, 247230, Note_on_c, 0, 62, 78
2, 247260, Note_on_c, 0, 76, 101
2, 247265, Note_on_c, 0, 67, 92
2, 247296, Note_on_c, 0, 65, 0
2, 247306, Note_on_c, 0, 65, 59
2, 247372, Note_on_c, 0, 62, 0
2, 247376, Note_on_c, 0, 62, 75
2, 247441, Note_on_c, 0, 65, 0
2, 247452, Note_on_c, 0, 65, 78
2, 247518, Note_on_c, 0, 62, 0
2, 247523, Note_on_c, 0, 62, 79
2, 247580, Note_on_c, 0, 65, 0
2, 247584, Note_on_c, 0, 65, 85
2, 247641, Note_on_c, 0, 62, 0
2, 247652, Note_on_c, 0, 62, 80
2, 247680, Note_on_c, 0, 69, 0
2, 247695, Note_on_c, 0, 65, 0
2, 247704, Note_on_c, 0, 65, 85
2, 247756, Note_on_c, 0, 62, 0
2, 247761, Note_on_c, 0, 62, 73
2, 247808, Note_on_c, 0, 69, 86
2, 247879, Note_on_c, 0, 72, 0
2, 247891, Note_on_c, 0, 72, 86
2, 248033, Note_on_c, 0, 69, 0
2, 248033, Note_on_c, 0, 72, 0
2, 248033, Note_on_c, 0, 76, 0
2, 248037, Note_on_c, 0, 57, 87
2, 248037, Note_on_c, 0, 76, 103
2, 248039, Note_on_c, 0, 69, 94
2, 248042, Note_on_c, 0, 72, 89
2, 248087, Control_c, 0, 64, 0
2, 248089, Note_on_c, 0, 67, 0
2, 248090, Note_on_c, 0, 65, 0
2, 248090, Note_on_c, 0, 62, 0
2, 248106, Note_on_c, 0, 60, 77
2, 248186, Control_c, 0, 64, 127
2, 248294, Note_on_c, 0, 60, 0
2, 248300, Note_on_c, 0, 60, 67
2, 248348, Note_on_c, 0, 57, 0
2, 248359, Note_on_c, 0, 57, 74
2, 248417, Note_on_c, 0, 60, 0
2, 248422, Note_on_c, 0, 60, 65
2, 248509, Note_on_c, 0, 57, 0
2, 248514, Note_on_c, 0, 57, 66
2, 248570, Note_on_c, 0, 60, 0
2, 248575, Note_on_c, 0, 60, 64
2, 248640, Note_on_c, 0, 57, 0
2, 248645, Note_on_c, 0, 57, 64
2, 248709, Note_on_c, 0, 60, 0
2, 248716, Note_on_c, 0, 60, 66
2, 248785, Note_on_c, 0, 57, 0
2, 248795, Note_on_c, 0, 57, 65
2, 248824, Note_on_c, 0, 67, 89
2, 248862, Note_on_c, 0, 60, 0
2, 248871, Note_on_c, 0, 60, 69
2, 248947, Note_on_c, 0, 57, 0
2, 248953, Note_on_c, 0, 57, 62
2, 249016, Note_on_c, 0, 60, 0
2, 249022, Note_on_c, 0, 60, 65
2, 249085, Note_on_c, 0, 57, 0
2, 249090, Note_on_c, 0, 57, 72
2, 249146, Note_on_c, 0, 60, 0
2, 249154, Note_on_c, 0, 60, 64
2, 249216, Note_on_c, 0, 57, 0
2, 249220, Note_on_c, 0, 57, 69
2, 249285, Note_on_c, 0, 60, 0
2, 249296, Note_on_c, 0, 60, 66
2, 249361, Note_on_c, 0, 57, 0
2, 249368, Note_on_c, 0, 57, 72
2, 249438, Note_on_c, 0, 60, 0
2, 249450, Note_on_c, 0, 60, 71
2, 249518, Note_on_c, 0, 79, 102
2, 249523, Note_on_c, 0, 57, 0
2, 249523, Note_on_c, 0, 72, 0
2, 249527, Note_on_c, 0, 72, 93
2, 249528, Note_on_c, 0, 57, 79
2, 249528, Note_on_c, 0, 65, 85
2, 249607, Note_on_c, 0, 60, 0
2, 249615, Note_on_c, 0, 60, 74
2, 249669, Note_on_c, 0, 57, 0
2, 249677, Note_on_c, 0, 57, 65
2, 249738, Note_on_c, 0, 60, 0
2, 249743, Note_on_c, 0, 60, 67
2, 249815, Note_on_c, 0, 57, 0
2, 249822, Note_on_c, 0, 57, 67
2, 249876, Note_on_c, 0, 60, 0
2, 249887, Note_on_c, 0, 60, 75
2, 249953, Note_on_c, 0, 57, 0
2, 249964, Note_on_c, 0, 57, 66
2, 250014, Note_on_c, 0, 60, 0
2, 250025, Note_on_c, 0, 60, 69
2, 250091, Note_on_c, 0, 57, 0
2, 250101, Note_on_c, 0, 57, 64
2, 250168, Note_on_c, 0, 60, 0
2, 250176, Note_on_c, 0, 60, 71
2, 250237, Note_on_c, 0, 57, 0
2, 250244, Note_on_c, 0, 57, 74
2, 250274, Note_on_c, 0, 64, 95
2, 250306, Note_on_c, 0, 60, 0
2, 250316, Note_on_c, 0, 60, 69
2, 250391, Note_on_c, 0, 57, 0
2, 250396, Note_on_c, 0, 57, 72
2, 250467, Note_on_c, 0, 60, 0
2, 250474, Note_on_c, 0, 60, 74
2, 250529, Note_on_c, 0, 57, 0
2, 250534, Note_on_c, 0, 57, 72
2, 250590, Note_on_c, 0, 60, 0
2, 250595, Note_on_c, 0, 60, 72
2, 250682, Note_on_c, 0, 57, 0
2, 250689, Note_on_c, 0, 57, 64
2, 250736, Note_on_c, 0, 60, 0
2, 250746, Note_on_c, 0, 60, 80
2, 250805, Note_on_c, 0, 57, 0
2, 250809, Note_on_c, 0, 57, 67
2, 250897, Note_on_c, 0, 69, 0
2, 250908, Note_on_c, 0, 69, 72
2, 250981, Note_on_c, 0, 70, 70
2, 251018, Note_on_c, 0, 74, 76
2, 251212, Note_on_c, 0, 69, 0
2, 251212, Note_on_c, 0, 70, 0
2, 251212, Note_on_c, 0, 74, 0
2, 251216, Note_on_c, 0, 58, 95
2, 251216, Note_on_c, 0, 81, 100
2, 251217, Note_on_c, 0, 69, 98
2, 251217, Note_on_c, 0, 60, 0
2, 251218, Note_on_c, 0, 72, 0
2, 251219, Note_on_c, 0, 67, 0
2, 251219, Note_on_c, 0, 41, 76
2, 251219, Note_on_c, 0, 64, 0
2, 251219, Note_on_c, 0, 77, 92
2, 251220, Note_on_c, 0, 70, 93
2, 251221, Note_on_c, 0, 46, 90
2, 251223, Note_on_c, 0, 74, 91
2, 251223, Note_on_c, 0, 57, 0
2, 251251, Note_on_c, 0, 41, 0
2, 251258, Control_c, 0, 64, 0
2, 251266, Note_on_c, 0, 76, 0
2, 251274, Note_on_c, 0, 65, 0
2, 251312, Note_on_c, 0, 79, 0
2, 251389, Note_on_c, 0, 58, 0
2, 251404, Control_c, 0, 64, 127
2, 251460, Note_on_c, 0, 53, 65
2, 251554, Note_on_c, 0, 62, 69
2, 251619, Note_on_c, 0, 58, 54
2, 251635, Note_on_c, 0, 53, 0
2, 251641, Note_on_c, 0, 53, 51
2, 251704, Note_on_c, 0, 62, 0
2, 251709, Note_on_c, 0, 62, 67
2, 251781, Note_on_c, 0, 53, 0
2, 251786, Note_on_c, 0, 53, 55
2, 251857, Note_on_c, 0, 62, 0
2, 251862, Note_on_c, 0, 62, 72
2, 251911, Note_on_c, 0, 58, 0
2, 251919, Note_on_c, 0, 53, 0
2, 251921, Note_on_c, 0, 58, 67
2, 251928, Note_on_c, 0, 53, 57
2, 252003, Note_on_c, 0, 62, 0
2, 252009, Note_on_c, 0, 62, 69
2, 252057, Note_on_c, 0, 53, 0
2, 252057, Note_on_c, 0, 58, 0
2, 252061, Note_on_c, 0, 58, 72
2, 252068, Note_on_c, 0, 53, 49
2, 252119, Note_on_c, 0, 62, 0
2, 252130, Note_on_c, 0, 62, 75
2, 252188, Note_on_c, 0, 53, 0
2, 252188, Note_on_c, 0, 58, 0
2, 252192, Note_on_c, 0, 58, 73
2, 252195, Note_on_c, 0, 53, 64
2, 252257, Note_on_c, 0, 62, 0
2, 252261, Note_on_c, 0, 62, 78
2, 252303, Note_on_c, 0, 58, 0
2, 252311, Note_on_c, 0, 53, 0
2, 252313, Note_on_c, 0, 58, 77
2, 252316, Note_on_c, 0, 53, 62
2, 252372, Note_on_c, 0, 62, 0
2, 252380, Note_on_c, 0, 62, 75
2, 252426, Note_on_c, 0, 53, 0
2, 252426, Note_on_c, 0, 58, 0
2, 252430, Note_on_c, 0, 58, 79
2, 252431, Note_on_c, 0, 53, 63
2, 252487, Note_on_c, 0, 62, 0
2, 252491, Note_on_c, 0, 62, 86
2, 252556, Note_on_c, 0, 58, 0
2, 252566, Note_on_c, 0, 58, 82
2, 252572, Note_on_c, 0, 53, 0
2, 252576, Note_on_c, 0, 53, 62
2, 252646, Note_on_c, 0, 84, 106
2, 252648, Note_on_c, 0, 77, 0
2, 252652, Note_on_c, 0, 72, 102
2, 252656, Note_on_c, 0, 79, 95
2, 252659, Note_on_c, 0, 77, 96
2, 252744, Note_on_c, 0, 64, 83
2, 252810, Note_on_c, 0, 53, 0
2, 252810, Note_on_c, 0, 58, 0
2, 252821, Note_on_c, 0, 53, 66
2, 252821, Note_on_c, 0, 58, 69
2, 252902, Note_on_c, 0, 64, 0
2, 252906, Note_on_c, 0, 64, 74
2, 252963, Note_on_c, 0, 53, 0
2, 252975, Note_on_c, 0, 53, 64
2, 253032, Note_on_c, 0, 64, 0
2, 253036, Note_on_c, 0, 64, 72
2, 253086, Note_on_c, 0, 53, 0
2, 253094, Note_on_c, 0, 58, 0
2, 253097, Note_on_c, 0, 53, 70
2, 253098, Note_on_c, 0, 58, 67
2, 253171, Note_on_c, 0, 64, 0
2, 253176, Note_on_c, 0, 64, 71
2, 253224, Note_on_c, 0, 58, 0
2, 253229, Note_on_c, 0, 58, 76
2, 253232, Note_on_c, 0, 53, 0
2, 253236, Note_on_c, 0, 53, 62
2, 253271, Note_on_c, 0, 62, 0
2, 253278, Note_on_c, 0, 62, 40
2, 253294, Note_on_c, 0, 64, 0
2, 253304, Note_on_c, 0, 64, 67
2, 253340, Note_on_c, 0, 79, 0
2, 253349, Note_on_c, 0, 79, 103
2, 253355, Note_on_c, 0, 53, 0
2, 253355, Note_on_c, 0, 58, 0
2, 253358, Note_on_c, 0, 67, 93
2, 253366, Note_on_c, 0, 53, 75
2, 253366, Note_on_c, 0, 58, 80
2, 253440, Note_on_c, 0, 64, 0
2, 253444, Note_on_c, 0, 64, 70
2, 253493, Note_on_c, 0, 58, 0
2, 253497, Note_on_c, 0, 58, 76
2, 253562, Note_on_c, 0, 64, 0
2, 253569, Note_on_c, 0, 64, 85
2, 253616, Note_on_c, 0, 58, 0
2, 253622, Note_on_c, 0, 58, 85
2, 253693, Note_on_c, 0, 64, 0
2, 253698, Note_on_c, 0, 64, 81
2, 253739, Note_on_c, 0, 53, 0
2, 253739, Note_on_c, 0, 58, 0
2, 253744, Note_on_c, 0, 53, 74
2, 253748, Note_on_c, 0, 58, 69
2, 253785, Note_on_c, 0, 64, 0
2, 253795, Note_on_c, 0, 64, 82
2, 253831, Note_on_c, 0, 58, 0
2, 253840, Note_on_c, 0, 58, 78
2, 253870, Note_on_c, 0, 69, 0
2, 253873, Note_on_c, 0, 69, 86
2, 253916, Note_on_c, 0, 72, 0
2, 253927, Note_on_c, 0, 72, 87
2, 253983, Note_on_c, 0, 76, 85
2, 254100, Note_on_c, 0, 69, 0
2, 254100, Note_on_c, 0, 81, 0
2, 254108, Note_on_c, 0, 72, 0
2, 254108, Note_on_c, 0, 76, 0
2, 254110, Note_on_c, 0, 81, 106
2, 254111, Note_on_c, 0, 48, 90
2, 254111, Note_on_c, 0, 60, 94
2, 254111, Note_on_c, 0, 69, 98
2, 254112, Note_on_c, 0, 57, 94
2, 254113, Note_on_c, 0, 76, 87
2, 254116, Note_on_c, 0, 72, 92
2, 254123, Control_c, 0, 64, 0
2, 254123, Note_on_c, 0, 46, 0
2, 254127, Note_on_c, 0, 53, 0
2, 254127, Note_on_c, 0, 62, 0
2, 254127, Note_on_c, 0, 58, 0
2, 254127, Note_on_c, 0, 64, 0
2, 254128, Note_on_c, 0, 67, 0
2, 254128, Note_on_c, 0, 79, 0
2, 254128, Note_on_c, 0, 84, 0
2, 254129, Note_on_c, 0, 74, 0
2, 254131, Note_on_c, 0, 70, 0
2, 254154, Note_on_c, 0, 77, 0
2, 254215, Control_c, 0, 64, 127
2, 254307, Note_on_c, 0, 60, 0
2, 254317, Note_on_c, 0, 60, 71
2, 254386, Note_on_c, 0, 64, 80
2, 254446, Note_on_c, 0, 60, 0
2, 254456, Note_on_c, 0, 60, 75
2, 254530, Note_on_c, 0, 64, 0
2, 254541, Note_on_c, 0, 64, 75
2, 254584, Note_on_c, 0, 60, 0
2, 254591, Note_on_c, 0, 60, 68
2, 254661, Note_on_c, 0, 64, 0
2, 254666, Note_on_c, 0, 64, 71
2, 254714, Note_on_c, 0, 60, 0
2, 254722, Note_on_c, 0, 57, 0
2, 254725, Note_on_c, 0, 60, 84
2, 254728, Note_on_c, 0, 57, 83
2, 254799, Note_on_c, 0, 64, 0
2, 254809, Note_on_c, 0, 64, 80
2, 254853, Note_on_c, 0, 60, 0
2, 254860, Note_on_c, 0, 60, 78
2, 254860, Note_on_c, 0, 57, 0
2, 254865, Note_on_c, 0, 57, 72
2, 254914, Note_on_c, 0, 64, 0
2, 254919, Note_on_c, 0, 64, 78
2, 254968, Note_on_c, 0, 60, 0
2, 254976, Note_on_c, 0, 57, 0
2, 254977, Note_on_c, 0, 60, 75
2, 254987, Note_on_c, 0, 57, 75
2, 255045, Note_on_c, 0, 64, 0
2, 255050, Note_on_c, 0, 64, 81
2, 255106, Note_on_c, 0, 57, 0
2, 255106, Note_on_c, 0, 60, 0
2, 255110, Note_on_c, 0, 60, 84
2, 255112, Note_on_c, 0, 57, 75
2, 255160, Note_on_c, 0, 64, 0
2, 255171, Note_on_c, 0, 64, 81
2, 255221, Note_on_c, 0, 60, 0
2, 255229, Note_on_c, 0, 60, 85
2, 255229, Note_on_c, 0, 57, 0
2, 255234, Note_on_c, 0, 57, 67
2, 255275, Note_on_c, 0, 64, 0
2, 255282, Note_on_c, 0, 64, 85
2, 255336, Note_on_c, 0, 60, 0
2, 255344, Note_on_c, 0, 57, 0
2, 255347, Note_on_c, 0, 60, 88
2, 255349, Note_on_c, 0, 57, 87
2, 255360, Note_on_c, 0, 48, 0
2, 255398, Note_on_c, 0, 64, 0
2, 255406, Note_on_c, 0, 64, 84
2, 255482, Note_on_c, 0, 57, 0
2, 255490, Note_on_c, 0, 60, 0
2, 255491, Note_on_c, 0, 57, 94
2, 255495, Note_on_c, 0, 60, 92
2, 255505, Note_on_c, 0, 72, 0
2, 255510, Note_on_c, 0, 84, 101
2, 255513, Note_on_c, 0, 76, 0
2, 255516, Note_on_c, 0, 72, 106
2, 255518, Note_on_c, 0, 79, 99
2, 255519, Note_on_c, 0, 76, 102
2, 255569, Note_on_c, 0, 65, 88
2, 255644, Note_on_c, 0, 60, 0
2, 255655, Note_on_c, 0, 60, 86
2, 255720, Note_on_c, 0, 65, 0
2, 255730, Note_on_c, 0, 65, 80
2, 255782, Note_on_c, 0, 60, 0
2, 255790, Note_on_c, 0, 69, 0
2, 255793, Note_on_c, 0, 60, 84
2, 255797, Note_on_c, 0, 57, 0
2, 255799, Note_on_c, 0, 69, 70
2, 255806, Note_on_c, 0, 57, 68
2, 255843, Note_on_c, 0, 65, 0
2, 255852, Note_on_c, 0, 65, 81
2, 255897, Note_on_c, 0, 60, 0
2, 255908, Note_on_c, 0, 60, 88
2, 255912, Note_on_c, 0, 57, 0
2, 255919, Note_on_c, 0, 57, 75
2, 255974, Note_on_c, 0, 65, 0
2, 255979, Note_on_c, 0, 65, 82
2, 256035, Note_on_c, 0, 57, 0
2, 256035, Note_on_c, 0, 60, 0
2, 256043, Note_on_c, 0, 60, 78
2, 256045, Note_on_c, 0, 57, 85
2, 256104, Note_on_c, 0, 65, 0
2, 256113, Note_on_c, 0, 65, 89
2, 256189, Note_on_c, 0, 57, 0
2, 256189, Note_on_c, 0, 79, 0
2, 256197, Note_on_c, 0, 60, 0
2, 256197, Note_on_c, 0, 76, 0
2, 256198, Note_on_c, 0, 57, 93
2, 256200, Note_on_c, 0, 88, 106
2, 256200, Note_on_c, 0, 79, 103
2, 256202, Note_on_c, 0, 76, 106
2, 256204, Note_on_c, 0, 60, 85
2, 256269, Note_on_c, 0, 67, 88
2, 256343, Note_on_c, 0, 57, 0
2, 256343, Note_on_c, 0, 60, 0
2, 256346, Note_on_c, 0, 57, 81
2, 256350, Note_on_c, 0, 60, 82
2, 256396, Note_on_c, 0, 67, 0
2, 256403, Note_on_c, 0, 67, 86
2, 256458, Note_on_c, 0, 57, 0
2, 256458, Note_on_c, 0, 60, 0
2, 256463, Note_on_c, 0, 60, 78
2, 256465, Note_on_c, 0, 57, 86
2, 256512, Note_on_c, 0, 67, 0
2, 256517, Note_on_c, 0, 67, 80
2, 256588, Note_on_c, 0, 57, 0
2, 256588, Note_on_c, 0, 60, 0
2, 256592, Note_on_c, 0, 60, 84
2, 256594, Note_on_c, 0, 57, 95
2, 256634, Note_on_c, 0, 67, 0
2, 256646, Note_on_c, 0, 67, 82
2, 256680, Note_on_c, 0, 60, 0
2, 256691, Note_on_c, 0, 60, 79
2, 256724, Note_on_c, 0, 77, 93
2, 256765, Note_on_c, 0, 81, 0
2, 256776, Note_on_c, 0, 81, 96
2, 256819, Note_on_c, 0, 67, 0
2, 256819, Note_on_c, 0, 84, 0
2, 256826, Note_on_c, 0, 67, 62
2, 256826, Note_on_c, 0, 60, 0
2, 256828, Note_on_c, 0, 84, 91
2, 256834, Note_on_c, 0, 60, 72
2, 257000, Control_c, 0, 64, 0
2, 257007, Note_on_c, 0, 79, 0
2, 257008, Note_on_c, 0, 65, 0
2, 257008, Note_on_c, 0, 64, 0
2, 257009, Note_on_c, 0, 67, 0
2, 257009, Note_on_c, 0, 76, 0
2, 257011, Note_on_c, 0, 77, 0
2, 257011, Note_on_c, 0, 81, 0
2, 257011, Note_on_c, 0, 84, 0
2, 257018, Note_on_c, 0, 60, 0
2, 257022, Note_on_c, 0, 77, 108
2, 257022, Note_on_c, 0, 81, 102
2, 257022, Note_on_c, 0, 84, 101
2, 257022, Note_on_c, 0, 89, 112
2, 257026, Note_on_c, 0, 69, 0
2, 257026, Note_on_c, 0, 72, 0
2, 257028, Note_on_c, 0, 50, 91
2, 257029, Note_on_c, 0, 60, 95
2, 257034, Note_on_c, 0, 57, 0
2, 257034, Note_on_c, 0, 88, 0
2, 257038, Note_on_c, 0, 57, 87
2, 257149, Control_c, 0, 64, 127
2, 257263, Note_on_c, 0, 62, 50
2, 257272, Note_on_c, 0, 62, 0
2, 257330, Note_on_c, 0, 65, 67
2, 257410, Note_on_c, 0, 57, 0
2, 257415, Note_on_c, 0, 62, 66
2, 257416, Note_on_c, 0, 57, 72
2, 257456, Note_on_c, 0, 65, 0
2, 257465, Note_on_c, 0, 65, 63
2, 257533, Note_on_c, 0, 57, 0
2, 257533, Note_on_c, 0, 62, 0
2, 257540, Note_on_c, 0, 57, 63
2, 257543, Note_on_c, 0, 62, 79
2, 257602, Note_on_c, 0, 57, 0
2, 257602, Note_on_c, 0, 65, 0
2, 257608, Note_on_c, 0, 57, 65
2, 257609, Note_on_c, 0, 65, 73
2, 257664, Note_on_c, 0, 57, 0
2, 257664, Note_on_c, 0, 62, 0
2, 257671, Note_on_c, 0, 62, 67
2, 257672, Note_on_c, 0, 57, 69
2, 257675, Note_on_c, 0, 69, 68
2, 257740, Note_on_c, 0, 65, 0
2, 257747, Note_on_c, 0, 65, 76
2, 257794, Note_on_c, 0, 62, 0
2, 257798, Note_on_c, 0, 62, 84
2, 257802, Note_on_c, 0, 57, 0
2, 257808, Note_on_c, 0, 57, 65
2, 257863, Note_on_c, 0, 65, 0
2, 257872, Note_on_c, 0, 65, 83
2, 257925, Note_on_c, 0, 57, 0
2, 257925, Note_on_c, 0, 62, 0
2, 257935, Note_on_c, 0, 62, 76
2, 257935, Note_on_c, 0, 57, 77
2, 257986, Note_on_c, 0, 65, 0
2, 257992, Note_on_c, 0, 65, 75
2, 258040, Note_on_c, 0, 62, 0
2, 258044, Note_on_c, 0, 62, 86
2, 258055, Note_on_c, 0, 57, 0
2, 258059, Note_on_c, 0, 57, 77
2, 258101, Note_on_c, 0, 65, 0
2, 258105, Note_on_c, 0, 65, 85
2, 258155, Note_on_c, 0, 57, 0
2, 258155, Note_on_c, 0, 62, 0
2, 258159, Note_on_c, 0, 62, 81
2, 258160, Note_on_c, 0, 57, 81
2, 258224, Note_on_c, 0, 65, 0
2, 258230, Note_on_c, 0, 65, 76
2, 258270, Note_on_c, 0, 50, 0
2, 258278, Note_on_c, 0, 57, 0
2, 258278, Note_on_c, 0, 62, 0
2, 258282, Note_on_c, 0, 62, 75
2, 258282, Note_on_c, 0, 57, 82
2, 258332, Note_on_c, 0, 65, 0
2, 258337, Note_on_c, 0, 65, 83
2, 258424, Note_on_c, 0, 57, 0
2, 258428, Note_on_c, 0, 79, 104
2, 258429, Note_on_c, 0, 88, 107
2, 258430, Note_on_c, 0, 57, 93
2, 258432, Note_on_c, 0, 76, 108
2, 258435, Control_c, 0, 64, 0
2, 258443, Note_on_c, 0, 64, 84
2, 258470, Control_c, 0, 64, 127
2, 258512, Note_on_c, 0, 67, 82
2, 258593, Note_on_c, 0, 64, 0
2, 258597, Note_on_c, 0, 64, 83
2, 258662, Note_on_c, 0, 67, 0
2, 258667, Note_on_c, 0, 67, 73
2, 258723, Note_on_c, 0, 57, 0
2, 258723, Note_on_c, 0, 64, 0
2, 258728, Note_on_c, 0, 64, 74
2, 258729, Note_on_c, 0, 57, 77
2, 258792, Note_on_c, 0, 67, 0
2, 258799, Note_on_c, 0, 67, 79
2, 258854, Note_on_c, 0, 57, 0
2, 258854, Note_on_c, 0, 64, 0
2, 258864, Note_on_c, 0, 57, 81
2, 258864, Note_on_c, 0, 64, 80
2, 258923, Note_on_c, 0, 67, 0
2, 258934, Note_on_c, 0, 67, 79
2, 258977, Note_on_c, 0, 57, 0
2, 258984, Note_on_c, 0, 64, 0
2, 258987, Note_on_c, 0, 57, 89
2, 258988, Note_on_c, 0, 64, 82
2, 259046, Note_on_c, 0, 67, 0
2, 259056, Note_on_c, 0, 67, 83
2, 259107, Note_on_c, 0, 57, 0
2, 259107, Note_on_c, 0, 64, 0
2, 259113, Note_on_c, 0, 64, 85
2, 259114, Note_on_c, 0, 57, 87
2, 259153, Note_on_c, 0, 67, 0
2, 259163, Note_on_c, 0, 67, 76
2, 259200, Note_on_c, 0, 60, 0
2, 259200, Note_on_c, 0, 77, 0
2, 259200, Note_on_c, 0, 81, 0
2, 259200, Note_on_c, 0, 84, 0
2, 259200, Note_on_c, 0, 89, 0
2, 259215, Note_on_c, 0, 57, 0
2, 259215, Note_on_c, 0, 64, 0
2, 259225, Note_on_c, 0, 64, 95
2, 259225, Note_on_c, 0, 57, 96
2, 259284, Note_on_c, 0, 67, 0
2, 259289, Note_on_c, 0, 67, 77
2, 259338, Note_on_c, 0, 57, 0
2, 259338, Note_on_c, 0, 64, 0
2, 259343, Note_on_c, 0, 64, 86
2, 259343, Note_on_c, 0, 57, 91
2, 259384, Note_on_c, 0, 67, 0
2, 259395, Note_on_c, 0, 67, 86
2, 259453, Note_on_c, 0, 64, 0
2, 259460, Note_on_c, 0, 64, 86
2, 259468, Note_on_c, 0, 57, 0
2, 259474, Note_on_c, 0, 57, 79
2, 259522, Note_on_c, 0, 67, 0
2, 259523, Note_on_c, 0, 84, 108
2, 259525, Note_on_c, 0, 72, 110
2, 259533, Note_on_c, 0, 67, 89
2, 259599, Note_on_c, 0, 64, 0
2, 259610, Note_on_c, 0, 64, 89
2, 259683, Note_on_c, 0, 72, 0
2, 259690, Note_on_c, 0, 72, 88
2, 259745, Note_on_c, 0, 76, 0
2, 259753, Note_on_c, 0, 76, 86
2, 259799, Note_on_c, 0, 79, 0
2, 259807, Note_on_c, 0, 79, 78
2, 259881, Note_on_c, 0, 64, 0
2, 259883, Note_on_c, 0, 62, 0
2, 259891, Note_on_c, 0, 69, 0
2, 259898, Note_on_c, 0, 65, 0
2, 259898, Note_on_c, 0, 72, 0
2, 259898, Note_on_c, 0, 84, 0
2, 259902, Control_c, 0, 64, 0
2, 259906, Note_on_c, 0, 76, 0
2, 259909, Note_on_c, 0, 84, 108
2, 259909, Note_on_c, 0, 72, 108
2, 259911, Note_on_c, 0, 76, 102
2, 259911, Note_on_c, 0, 55, 101
2, 259912, Note_on_c, 0, 45, 95
2, 259914, Note_on_c, 0, 52, 92
2, 259929, Note_on_c, 0, 67, 0
2, 259937, Note_on_c, 0, 88, 0
2, 259950, Note_on_c, 0, 57, 0
2, 259952, Note_on_c, 0, 79, 0
2, 260037, Note_on_c, 0, 76, 0
2, 260067, Control_c, 0, 64, 127
2, 260141, Note_on_c, 0, 60, 63
2, 260146, Note_on_c, 0, 57, 57
2, 260220, Note_on_c, 0, 64, 81
2, 260290, Note_on_c, 0, 57, 0
2, 260290, Note_on_c, 0, 60, 0
2, 260295, Note_on_c, 0, 60, 68
2, 260296, Note_on_c, 0, 57, 74
2, 260359, Note_on_c, 0, 64, 0
2, 260368, Note_on_c, 0, 64, 82
2, 260428, Note_on_c, 0, 57, 0
2, 260428, Note_on_c, 0, 60, 0
2, 260433, Note_on_c, 0, 60, 89
2, 260433, Note_on_c, 0, 57, 75
2, 260490, Note_on_c, 0, 64, 0
2, 260495, Note_on_c, 0, 64, 87
2, 260551, Note_on_c, 0, 57, 0
2, 260551, Note_on_c, 0, 60, 0
2, 260558, Note_on_c, 0, 60, 86
2, 260560, Note_on_c, 0, 57, 89
2, 260613, Note_on_c, 0, 64, 0
2, 260621, Note_on_c, 0, 64, 89
2, 260674, Note_on_c, 0, 57, 0
2, 260674, Note_on_c, 0, 60, 0
2, 260683, Note_on_c, 0, 60, 94
2, 260685, Note_on_c, 0, 57, 92
2, 260736, Note_on_c, 0, 64, 0
2, 260740, Note_on_c, 0, 64, 92
2, 260797, Note_on_c, 0, 57, 0
2, 260797, Note_on_c, 0, 60, 0
2, 260802, Note_on_c, 0, 60, 86
2, 260808, Note_on_c, 0, 57, 91
2, 260851, Note_on_c, 0, 64, 0
2, 260860, Note_on_c, 0, 64, 91
2, 260912, Note_on_c, 0, 57, 0
2, 260912, Note_on_c, 0, 60, 0
2, 260923, Note_on_c, 0, 60, 91
2, 260923, Note_on_c, 0, 57, 93
2, 260966, Note_on_c, 0, 64, 0
2, 260971, Note_on_c, 0, 64, 90
2, 261027, Note_on_c, 0, 57, 0
2, 261027, Note_on_c, 0, 60, 0
2, 261032, Note_on_c, 0, 60, 94
2, 261038, Note_on_c, 0, 57, 77
2, 261066, Note_on_c, 0, 64, 0
2, 261075, Note_on_c, 0, 64, 89
2, 261150, Note_on_c, 0, 57, 0
2, 261150, Note_on_c, 0, 60, 0
2, 261158, Note_on_c, 0, 60, 87
2, 261159, Note_on_c, 0, 57, 86
2, 261196, Note_on_c, 0, 64, 0
2, 261201, Note_on_c, 0, 64, 86
2, 261242, Note_on_c, 0, 57, 0
2, 261242, Note_on_c, 0, 60, 0
2, 261254, Note_on_c, 0, 60, 90
2, 261254, Note_on_c, 0, 57, 97
2, 261388, Note_on_c, 0, 57, 0
2, 261393, Note_on_c, 0, 79, 110
2, 261393, Note_on_c, 0, 91, 113
2, 261396, Note_on_c, 0, 60, 0
2, 261396, Note_on_c, 0, 64, 0
2, 261397, Note_on_c, 0, 57, 99
2, 261400, Control_c, 0, 64, 0
2, 261400, Note_on_c, 0, 60, 94
2, 261404, Note_on_c, 0, 45, 0
2, 261405, Note_on_c, 0, 67, 103
2, 261406, Note_on_c, 0, 64, 102
2, 261450, Control_c, 0, 64, 127
2, 261473, Note_on_c, 0, 52, 0
2, 261504, Note_on_c, 0, 72, 0
2, 261557, Note_on_c, 0, 84, 0
2, 261581, Note_on_c, 0, 88, 97
2, 261642, Note_on_c, 0, 57, 0
2, 261649, Note_on_c, 0, 57, 73
2, 261652, Note_on_c, 0, 72, 91
2, 261653, Note_on_c, 0, 84, 93
2, 261711, Note_on_c, 0, 64, 0
2, 261711, Note_on_c, 0, 79, 0
2, 261719, Note_on_c, 0, 79, 95
2, 261719, Note_on_c, 0, 64, 75
2, 261796, Note_on_c, 0, 76, 97
2, 261826, Note_on_c, 0, 64, 0
2, 261826, Note_on_c, 0, 72, 0
2, 261830, Note_on_c, 0, 72, 97
2, 261831, Note_on_c, 0, 64, 83
2, 261880, Note_on_c, 0, 60, 0
2, 261880, Note_on_c, 0, 67, 0
2, 261886, Note_on_c, 0, 60, 83
2, 261886, Note_on_c, 0, 67, 94
2, 261888, Note_on_c, 0, 57, 0
2, 261892, Note_on_c, 0, 57, 75
2, 261949, Note_on_c, 0, 64, 0
2, 261949, Note_on_c, 0, 72, 0
2, 261954, Note_on_c, 0, 64, 91
2, 261959, Note_on_c, 0, 72, 97
2, 261987, Note_on_c, 0, 60, 0
2, 261994, Note_on_c, 0, 60, 65
2, 262010, Note_on_c, 0, 57, 0
2, 262010, Note_on_c, 0, 76, 0
2, 262020, Note_on_c, 0, 57, 81
2, 262021, Note_on_c, 0, 76, 98
2, 262072, Note_on_c, 0, 79, 0
2, 262080, Note_on_c, 0, 79, 104
2, 262141, Note_on_c, 0, 76, 0
2, 262147, Note_on_c, 0, 76, 97
2, 262187, Note_on_c, 0, 72, 0
2, 262191, Note_on_c, 0, 72, 96
2, 262233, Note_on_c, 0, 67, 0
2, 262242, Note_on_c, 0, 67, 94
2, 262287, Note_on_c, 0, 64, 0
2, 262297, Note_on_c, 0, 64, 95
2, 262348, Note_on_c, 0, 60, 0
2, 262354, Note_on_c, 0, 60, 93
2, 262394, Note_on_c, 0, 55, 0
2, 262403, Note_on_c, 0, 55, 95
2, 262475, Note_on_c, 0, 45, 96
2, 262508, Note_on_c, 0, 40, 76
2, 262569, Note_on_c, 0, 36, 90
2, 262638, Note_on_c, 0, 81, 95
2, 262700, Note_on_c, 0, 82, 97
2, 262744, Note_on_c, 0, 86, 101
2, 262947, Note_on_c, 0, 81, 0
2, 262955, Note_on_c, 0, 86, 0
2, 262956, Note_on_c, 0, 93, 116
2, 262957, Note_on_c, 0, 89, 106
2, 262958, Note_on_c, 0, 81, 110
2, 262961, Note_on_c, 0, 34, 106
2, 262962, Note_on_c, 0, 86, 108
2, 262964, Note_on_c, 0, 79, 0
2, 262965, Note_on_c, 0, 76, 0
2, 262965, Note_on_c, 0, 40, 0
2, 262965, Note_on_c, 0, 67, 0
2, 262965, Note_on_c, 0, 64, 0
2, 262965, Note_on_c, 0, 91, 0
2, 262965, Note_on_c, 0, 82, 0
2, 262966, Note_on_c, 0, 84, 0
2, 262966, Note_on_c, 0, 72, 0
2, 262966, Note_on_c, 0, 55, 0
2, 262966, Note_on_c, 0, 60, 0
2, 262966, Note_on_c, 0, 57, 0
2, 262967, Control_c, 0, 64, 0
2, 262967, Note_on_c, 0, 88, 0
2, 262967, Note_on_c, 0, 36, 0
2, 262986, Note_on_c, 0, 45, 0
2, 263055, Control_c, 0, 64, 127
2, 263337, Note_on_c, 0, 53, 54
2, 263339, Note_on_c, 0, 58, 72
2, 263417, Note_on_c, 0, 62, 77
2, 263493, Note_on_c, 0, 53, 0
2, 263493, Note_on_c, 0, 58, 0
2, 263498, Note_on_c, 0, 58, 67
2, 263500, Note_on_c, 0, 53, 57
2, 263562, Note_on_c, 0, 62, 0
2, 263571, Note_on_c, 0, 62, 84
2, 263639, Note_on_c, 0, 53, 0
2, 263639, Note_on_c, 0, 58, 0
2, 263643, Note_on_c, 0, 58, 73
2, 263647, Note_on_c, 0, 53, 66
2, 263708, Note_on_c, 0, 62, 0
2, 263715, Note_on_c, 0, 62, 80
2, 263777, Note_on_c, 0, 58, 0
2, 263783, Note_on_c, 0, 58, 82
2, 263784, Note_on_c, 0, 53, 0
2, 263789, Note_on_c, 0, 53, 63
2, 263831, Note_on_c, 0, 62, 0
2, 263837, Note_on_c, 0, 62, 89
2, 263900, Note_on_c, 0, 58, 0
2, 263904, Note_on_c, 0, 58, 89
2, 263961, Note_on_c, 0, 62, 0
2, 263971, Note_on_c, 0, 62, 84
2, 264015, Note_on_c, 0, 53, 0
2, 264015, Note_on_c, 0, 58, 0
2, 264025, Note_on_c, 0, 58, 88
2, 264026, Note_on_c, 0, 53, 83
2, 264069, Note_on_c, 0, 62, 0
2, 264076, Note_on_c, 0, 62, 92
2, 264122, Note_on_c, 0, 58, 0
2, 264132, Note_on_c, 0, 58, 92
2, 264176, Note_on_c, 0, 62, 0
2, 264181, Note_on_c, 0, 62, 88
2, 264238, Note_on_c, 0, 53, 0
2, 264238, Note_on_c, 0, 58, 0
2, 264242, Note_on_c, 0, 53, 74
2, 264248, Note_on_c, 0, 58, 84
2, 264307, Note_on_c, 0, 62, 0
2, 264313, Note_on_c, 0, 62, 89
2, 264384, Note_on_c, 0, 58, 0
2, 264387, Note_on_c, 0, 72, 112
2, 264388, Note_on_c, 0, 84, 111
2, 264391, Note_on_c, 0, 77, 106
2, 264392, Note_on_c, 0, 79, 105
2, 264395, Note_on_c, 0, 58, 102
2, 264503, Note_on_c, 0, 64, 89
2, 264568, Note_on_c, 0, 53, 0
2, 264577, Note_on_c, 0, 53, 76
2, 264637, Note_on_c, 0, 64, 0
2, 264648, Note_on_c, 0, 64, 86
2, 264706, Note_on_c, 0, 53, 0
2, 264706, Note_on_c, 0, 58, 0
2, 264711, Note_on_c, 0, 58, 79
2, 264712, Note_on_c, 0, 53, 84
2, 264783, Note_on_c, 0, 64, 0
2, 264787, Note_on_c, 0, 64, 88
2, 264837, Note_on_c, 0, 53, 0
2, 264837, Note_on_c, 0, 58, 0
2, 264843, Note_on_c, 0, 58, 87
2, 264848, Note_on_c, 0, 53, 82
2, 264913, Note_on_c, 0, 64, 0
2, 264918, Note_on_c, 0, 64, 86
2, 264975, Note_on_c, 0, 53, 0
2, 264975, Note_on_c, 0, 58, 0
2, 264979, Note_on_c, 0, 53, 88
2, 264980, Note_on_c, 0, 58, 69
2, 265036, Note_on_c, 0, 64, 0
2, 265041, Note_on_c, 0, 64, 86
2, 265098, Note_on_c, 0, 53, 0
2, 265098, Note_on_c, 0, 58, 0
2, 265107, Note_on_c, 0, 58, 86
2, 265109, Note_on_c, 0, 53, 79
2, 265144, Note_on_c, 0, 64, 0
2, 265155, Note_on_c, 0, 64, 89
2, 265228, Note_on_c, 0, 53, 0
2, 265228, Note_on_c, 0, 58, 0
2, 265233, Note_on_c, 0, 53, 87
2, 265240, Note_on_c, 0, 58, 87
2, 265282, Note_on_c, 0, 64, 0
2, 265293, Note_on_c, 0, 64, 91
2, 265344, Note_on_c, 0, 58, 0
2, 265354, Note_on_c, 0, 58, 87
2, 265443, Note_on_c, 0, 64, 0
2, 265443, Note_on_c, 0, 79, 0
2, 265452, Note_on_c, 0, 79, 110
2, 265454, Note_on_c, 0, 64, 101
2, 265456, Note_on_c, 0, 67, 107
2, 265459, Note_on_c, 0, 58, 0
2, 265463, Note_on_c, 0, 58, 89
2, 265474, Note_on_c, 0, 53, 0
2, 265484, Note_on_c, 0, 53, 59
2, 265543, Note_on_c, 0, 58, 0
2, 265547, Note_on_c, 0, 58, 75
2, 265612, Note_on_c, 0, 67, 0
2, 265620, Note_on_c, 0, 67, 88
2, 265666, Note_on_c, 0, 72, 0
2, 265674, Note_on_c, 0, 72, 91
2, 265739, Note_on_c, 0, 76, 92
2, 265834, Control_c, 0, 64, 0
2, 265835, Note_on_c, 0, 67, 0
2, 265835, Note_on_c, 0, 72, 0
2, 265835, Note_on_c, 0, 79, 0
2, 265841, Note_on_c, 0, 58, 0
2, 265842, Note_on_c, 0, 84, 0
2, 265843, Note_on_c, 0, 76, 0
2, 265843, Note_on_c, 0, 93, 0
2, 265844, Note_on_c, 0, 77, 0
2, 265844, Note_on_c, 0, 79, 111
2, 265844, Note_on_c, 0, 53, 0
2, 265845, Note_on_c, 0, 34, 0
2, 265846, Note_on_c, 0, 86, 0
2, 265846, Note_on_c, 0, 72, 105
2, 265846, Note_on_c, 0, 67, 105
2, 265847, Note_on_c, 0, 76, 104
2, 265851, Note_on_c, 0, 36, 103
2, 265854, Note_on_c, 0, 24, 97
2, 265858, Note_on_c, 0, 62, 0
2, 265866, Note_on_c, 0, 64, 0
2, 265866, Note_on_c, 0, 89, 0
2, 265873, Note_on_c, 0, 81, 0
2, 265896, Control_c, 0, 64, 127
2, 266116, Note_on_c, 0, 60, 61
2, 266120, Note_on_c, 0, 55, 49
2, 266171, Note_on_c, 0, 64, 87
2, 266257, Note_on_c, 0, 55, 0
2, 266266, Note_on_c, 0, 55, 79
2, 266334, Note_on_c, 0, 64, 0
2, 266339, Note_on_c, 0, 64, 87
2, 266388, Note_on_c, 0, 60, 0
2, 266399, Note_on_c, 0, 60, 85
2, 266411, Note_on_c, 0, 55, 0
2, 266421, Note_on_c, 0, 55, 68
2, 266472, Note_on_c, 0, 64, 0
2, 266477, Note_on_c, 0, 64, 91
2, 266542, Note_on_c, 0, 60, 0
2, 266550, Note_on_c, 0, 60, 89
2, 266580, Note_on_c, 0, 79, 0
2, 266583, Note_on_c, 0, 91, 116
2, 266586, Note_on_c, 0, 79, 110
2, 266587, Note_on_c, 0, 84, 108
2, 266588, Note_on_c, 0, 88, 106
2, 266611, Note_on_c, 0, 64, 0
2, 266621, Note_on_c, 0, 64, 90
2, 266680, Note_on_c, 0, 60, 0
2, 266684, Note_on_c, 0, 60, 83
2, 266688, Note_on_c, 0, 55, 0
2, 266693, Note_on_c, 0, 55, 89
2, 266764, Note_on_c, 0, 64, 0
2, 266775, Note_on_c, 0, 64, 77
2, 266818, Note_on_c, 0, 60, 0
2, 266822, Note_on_c, 0, 60, 59
2, 266826, Note_on_c, 0, 55, 0
2, 266835, Note_on_c, 0, 55, 83
2, 266872, Note_on_c, 0, 64, 0
2, 266876, Note_on_c, 0, 64, 78
2, 266926, Note_on_c, 0, 55, 0
2, 266926, Note_on_c, 0, 60, 0
2, 266932, Note_on_c, 0, 60, 93
2, 266936, Note_on_c, 0, 55, 90
2, 266987, Note_on_c, 0, 64, 0
2, 266996, Note_on_c, 0, 64, 89
2, 267056, Note_on_c, 0, 55, 0
2, 267056, Note_on_c, 0, 60, 0
2, 267060, Note_on_c, 0, 60, 80
2, 267064, Note_on_c, 0, 55, 82
2, 267118, Note_on_c, 0, 64, 0
2, 267123, Note_on_c, 0, 64, 96
2, 267164, Note_on_c, 0, 60, 0
2, 267171, Note_on_c, 0, 55, 0
2, 267174, Note_on_c, 0, 60, 90
2, 267178, Note_on_c, 0, 55, 91
2, 267233, Note_on_c, 0, 64, 0
2, 267237, Note_on_c, 0, 64, 98
2, 267248, Note_on_c, 0, 24, 0
2, 267285, Note_on_c, 0, 89, 113
2, 267287, Note_on_c, 0, 55, 0
2, 267287, Note_on_c, 0, 60, 0
2, 267287, Note_on_c, 0, 84, 0
2, 267289, Note_on_c, 0, 77, 109
2, 267290, Note_on_c, 0, 81, 107
2, 267290, Note_on_c, 0, 84, 104
2, 267292, Note_on_c, 0, 60, 94
2, 267296, Note_on_c, 0, 55, 92
2, 267368, Note_on_c, 0, 65, 96
2, 267432, Note_on_c, 0, 60, 0
2, 267443, Note_on_c, 0, 60, 85
2, 267448, Note_on_c, 0, 65, 0
2, 267453, Note_on_c, 0, 65, 84
2, 267548, Note_on_c, 0, 55, 0
2, 267548, Note_on_c, 0, 60, 0
2, 267557, Note_on_c, 0, 60, 88
2, 267558, Note_on_c, 0, 55, 79
2, 267601, Note_on_c, 0, 65, 0
2, 267608, Note_on_c, 0, 65, 83
2, 267663, Note_on_c, 0, 55, 0
2, 267663, Note_on_c, 0, 60, 0
2, 267670, Note_on_c, 0, 60, 90
2, 267674, Note_on_c, 0, 55, 86
2, 267770, Note_on_c, 0, 60, 0
2, 267781, Note_on_c, 0, 60, 87
2, 267786, Note_on_c, 0, 55, 0
2, 267791, Note_on_c, 0, 55, 76
2, 267832, Note_on_c, 0, 65, 0
2, 267842, Note_on_c, 0, 65, 82
2, 267916, Note_on_c, 0, 55, 0
2, 267916, Note_on_c, 0, 60, 0
2, 267921, Note_on_c, 0, 60, 80
2, 267927, Note_on_c, 0, 55, 83
2, 267970, Note_on_c, 0, 76, 0
2, 267970, Note_on_c, 0, 79, 0
2, 267970, Note_on_c, 0, 84, 0
2, 267970, Note_on_c, 0, 88, 0
2, 267981, Note_on_c, 0, 88, 109
2, 267981, Note_on_c, 0, 79, 110
2, 267981, Note_on_c, 0, 76, 111
2, 267981, Note_on_c, 0, 84, 107
2, 268078, Note_on_c, 0, 55, 0
2, 268078, Note_on_c, 0, 60, 0
2, 268088, Note_on_c, 0, 60, 80
2, 268089, Note_on_c, 0, 55, 80
2, 268131, Note_on_c, 0, 55, 0
2, 268137, Note_on_c, 0, 55, 86
2, 268139, Note_on_c, 0, 67, 0
2, 268143, Note_on_c, 0, 67, 91
2, 268208, Note_on_c, 0, 55, 0
2, 268208, Note_on_c, 0, 60, 0
2, 268213, Note_on_c, 0, 60, 90
2, 268216, Note_on_c, 0, 55, 92
2, 268254, Note_on_c, 0, 67, 0
2, 268258, Note_on_c, 0, 67, 85
2, 268323, Note_on_c, 0, 60, 0
2, 268331, Note_on_c, 0, 55, 0
2, 268334, Note_on_c, 0, 60, 98
2, 268336, Note_on_c, 0, 55, 78
2, 268385, Note_on_c, 0, 67, 0
2, 268389, Note_on_c, 0, 67, 96
2, 268423, Note_on_c, 0, 55, 0
2, 268423, Note_on_c, 0, 60, 0
2, 268432, Note_on_c, 0, 60, 87
2, 268434, Note_on_c, 0, 55, 86
2, 268485, Note_on_c, 0, 77, 0
2, 268494, Note_on_c, 0, 77, 100
2, 268508, Note_on_c, 0, 76, 0
2, 268512, Note_on_c, 0, 76, 64
2, 268538, Note_on_c, 0, 60, 0
2, 268538, Note_on_c, 0, 81, 0
2, 268546, Note_on_c, 0, 81, 90
2, 268547, Note_on_c, 0, 60, 66
2, 268577, Note_on_c, 0, 84, 0
2, 268586, Note_on_c, 0, 84, 100
2, 268776, Note_on_c, 0, 89, 0
2, 268784, Note_on_c, 0, 77, 0
2, 268784, Note_on_c, 0, 81, 0
2, 268787, Note_on_c, 0, 89, 114
2, 268788, Note_on_c, 0, 86, 109
2, 268791, Note_on_c, 0, 77, 112
2, 268793, Note_on_c, 0, 81, 106
2, 268796, Note_on_c, 0, 38, 103
2, 268800, Note_on_c, 0, 64, 0
2, 268800, Note_on_c, 0, 76, 0
2, 268801, Note_on_c, 0, 91, 0
2, 268801, Note_on_c, 0, 79, 0
2, 268801, Note_on_c, 0, 60, 0
2, 268802, Note_on_c, 0, 67, 0
2, 268802, Note_on_c, 0, 88, 0
2, 268802, Note_on_c, 0, 55, 0
2, 268803, Note_on_c, 0, 26, 94
2, 268803, Note_on_c, 0, 72, 0
2, 268803, Control_c, 0, 64, 0
2, 268815, Note_on_c, 0, 36, 0
2, 268815, Note_on_c, 0, 65, 0
2, 268838, Note_on_c, 0, 84, 0
2, 268853, Control_c, 0, 64, 127
2, 269204, Note_on_c, 0, 53, 66
2, 269212, Note_on_c, 0, 57, 59
2, 269254, Note_on_c, 0, 62, 85
2, 269322, Note_on_c, 0, 57, 0
2, 269326, Note_on_c, 0, 57, 72
2, 269329, Note_on_c, 0, 53, 0
2, 269335, Note_on_c, 0, 53, 76
2, 269383, Note_on_c, 0, 62, 0
2, 269389, Note_on_c, 0, 62, 70
2, 269460, Note_on_c, 0, 53, 0
2, 269460, Note_on_c, 0, 57, 0
2, 269471, Note_on_c, 0, 53, 65
2, 269471, Note_on_c, 0, 57, 80
2, 269537, Note_on_c, 0, 62, 0
2, 269546, Note_on_c, 0, 62, 81
2, 269606, Note_on_c, 0, 57, 0
2, 269614, Note_on_c, 0, 53, 0
2, 269617, Note_on_c, 0, 57, 77
2, 269618, Note_on_c, 0, 53, 73
2, 269683, Note_on_c, 0, 62, 0
2, 269688, Note_on_c, 0, 62, 84
2, 269744, Note_on_c, 0, 57, 0
2, 269752, Note_on_c, 0, 53, 0
2, 269756, Note_on_c, 0, 57, 81
2, 269762, Note_on_c, 0, 53, 62
2, 269813, Note_on_c, 0, 62, 0
2, 269821, Note_on_c, 0, 62, 78
2, 269882, Note_on_c, 0, 53, 0
2, 269882, Note_on_c, 0, 57, 0
2, 269893, Note_on_c, 0, 53, 63
2, 269893, Note_on_c, 0, 57, 80
2, 269959, Note_on_c, 0, 62, 0
2, 269969, Note_on_c, 0, 62, 89
2, 270036, Note_on_c, 0, 53, 0
2, 270036, Note_on_c, 0, 57, 0
2, 270047, Note_on_c, 0, 57, 82
2, 270047, Note_on_c, 0, 53, 62
2, 270159, Note_on_c, 0, 53, 0
2, 270169, Note_on_c, 0, 53, 78
2, 270174, Note_on_c, 0, 57, 0
2, 270184, Note_on_c, 0, 84, 109
2, 270185, Note_on_c, 0, 57, 83
2, 270186, Note_on_c, 0, 72, 112
2, 270187, Note_on_c, 0, 79, 106
2, 270191, Note_on_c, 0, 76, 106
2, 270224, Note_on_c, 0, 64, 81
2, 270312, Note_on_c, 0, 57, 0
2, 270324, Note_on_c, 0, 57, 79
2, 270336, Note_on_c, 0, 53, 0
2, 270346, Note_on_c, 0, 53, 66
2, 270374, Note_on_c, 0, 64, 0
2, 270385, Note_on_c, 0, 64, 79
2, 270443, Note_on_c, 0, 53, 0
2, 270443, Note_on_c, 0, 57, 0
2, 270451, Note_on_c, 0, 53, 81
2, 270452, Note_on_c, 0, 65, 77
2, 270454, Note_on_c, 0, 57, 95
2, 270512, Note_on_c, 0, 64, 0
2, 270517, Note_on_c, 0, 64, 74
2, 270520, Note_on_c, 0, 53, 0
2, 270528, Note_on_c, 0, 53, 74
2, 270574, Note_on_c, 0, 53, 0
2, 270574, Note_on_c, 0, 57, 0
2, 270581, Note_on_c, 0, 53, 77
2, 270582, Note_on_c, 0, 57, 89
2, 270643, Note_on_c, 0, 64, 0
2, 270647, Note_on_c, 0, 64, 64
2, 270704, Note_on_c, 0, 53, 0
2, 270712, Note_on_c, 0, 57, 0
2, 270713, Note_on_c, 0, 53, 80
2, 270716, Note_on_c, 0, 57, 91
2, 270720, Note_on_c, 0, 89, 0
2, 270750, Note_on_c, 0, 64, 0
2, 270759, Note_on_c, 0, 64, 62
2, 270812, Note_on_c, 0, 53, 0
2, 270819, Note_on_c, 0, 57, 0
2, 270822, Note_on_c, 0, 53, 84
2, 270830, Note_on_c, 0, 57, 88
2, 270873, Note_on_c, 0, 26, 0
2, 270873, Note_on_c, 0, 64, 0
2, 270878, Note_on_c, 0, 64, 77
2, 270942, Note_on_c, 0, 53, 0
2, 270942, Note_on_c, 0, 57, 0
2, 270946, Note_on_c, 0, 53, 71
2, 270947, Note_on_c, 0, 57, 92
2, 270993, Note_on_c, 0, 60, 57
2, 270996, Note_on_c, 0, 64, 0
2, 271004, Note_on_c, 0, 60, 0
2, 271005, Note_on_c, 0, 64, 83
2, 271065, Note_on_c, 0, 53, 0
2, 271065, Note_on_c, 0, 57, 0
2, 271070, Note_on_c, 0, 57, 93
2, 271070, Note_on_c, 0, 53, 83
2, 271127, Note_on_c, 0, 64, 0
2, 271130, Note_on_c, 0, 64, 77
2, 271211, Note_on_c, 0, 53, 0
2, 271211, Note_on_c, 0, 57, 0
2, 271211, Note_on_c, 0, 72, 0
2, 271211, Note_on_c, 0, 76, 0
2, 271215, Note_on_c, 0, 53, 86
2, 271216, Note_on_c, 0, 57, 94
2, 271218, Note_on_c, 0, 76, 112
2, 271222, Note_on_c, 0, 72, 107
2, 271224, Note_on_c, 0, 67, 104
2, 271226, Note_on_c, 0, 69, 94
2, 271280, Note_on_c, 0, 64, 0
2, 271291, Note_on_c, 0, 64, 92
2, 271326, Note_on_c, 0, 57, 0
2, 271338, Note_on_c, 0, 57, 77
2, 271395, Note_on_c, 0, 64, 0
2, 271403, Note_on_c, 0, 64, 71
2, 271457, Note_on_c, 0, 67, 0
2, 271463, Note_on_c, 0, 67, 88
2, 271610, Note_on_c, 0, 64, 0
2, 271610, Note_on_c, 0, 72, 0
2, 271610, Note_on_c, 0, 76, 0
2, 271618, Note_on_c, 0, 67, 0
2, 271620, Note_on_c, 0, 72, 107
2, 271621, Note_on_c, 0, 64, 108
2, 271621, Note_on_c, 0, 76, 114
2, 271622, Note_on_c, 0, 67, 106
2, 271625, Note_on_c, 0, 33, 100
2, 271628, Note_on_c, 0, 79, 0
2, 271628, Note_on_c, 0, 84, 0
2, 271629, Note_on_c, 0, 53, 0
2, 271629, Note_on_c, 0, 65, 0
2, 271630, Note_on_c, 0, 69, 0
2, 271630, Control_c, 0, 64, 0
2, 271630, Note_on_c, 0, 57, 0
2, 271630, Note_on_c, 0, 86, 0
2, 271632, Note_on_c, 0, 38, 0
2, 271649, Note_on_c, 0, 62, 0
2, 271649, Note_on_c, 0, 81, 0
2, 271656, Note_on_c, 0, 77, 0
2, 271749, Control_c, 0, 64, 127
2, 272100, Note_on_c, 0, 60, 62
2, 272105, Note_on_c, 0, 57, 58
2, 272156, Note_on_c, 0, 64, 0
2, 272167, Note_on_c, 0, 64, 83
2, 272225, Note_on_c, 0, 60, 0
2, 272231, Note_on_c, 0, 60, 85
2, 272240, Note_on_c, 0, 57, 0
2, 272246, Note_on_c, 0, 57, 70
2, 272309, Note_on_c, 0, 64, 0
2, 272315, Note_on_c, 0, 64, 86
2, 272386, Note_on_c, 0, 57, 0
2, 272394, Note_on_c, 0, 60, 0
2, 272396, Note_on_c, 0, 57, 85
2, 272403, Note_on_c, 0, 60, 88
2, 272405, Note_on_c, 0, 96, 111
2, 272407, Note_on_c, 0, 84, 113
2, 272411, Note_on_c, 0, 88, 107
2, 272448, Note_on_c, 0, 64, 0
2, 272458, Note_on_c, 0, 64, 92
2, 272517, Note_on_c, 0, 60, 0
2, 272524, Note_on_c, 0, 57, 0
2, 272527, Note_on_c, 0, 60, 88
2, 272531, Note_on_c, 0, 57, 78
2, 272593, Note_on_c, 0, 64, 0
2, 272597, Note_on_c, 0, 64, 85
2, 272701, Note_on_c, 0, 64, 0
2, 272712, Note_on_c, 0, 64, 87
2, 272770, Note_on_c, 0, 57, 0
2, 272778, Note_on_c, 0, 60, 0
2, 272781, Note_on_c, 0, 57, 86
2, 272787, Note_on_c, 0, 60, 86
2, 272824, Note_on_c, 0, 64, 0
2, 272835, Note_on_c, 0, 64, 88
2, 272893, Note_on_c, 0, 60, 0
2, 272901, Note_on_c, 0, 57, 0
2, 272901, Note_on_c, 0, 60, 87
2, 272911, Note_on_c, 0, 57, 78
2, 272954, Note_on_c, 0, 64, 0
2, 272958, Note_on_c, 0, 64, 85
2, 273016, Note_on_c, 0, 60, 0
2, 273022, Note_on_c, 0, 60, 81
2, 273024, Note_on_c, 0, 57, 0
2, 273034, Note_on_c, 0, 57, 70
2, 273082, Note_on_c, 0, 82, 107
2, 273083, Note_on_c, 0, 94, 111
2, 273086, Note_on_c, 0, 86, 106
2, 273096, Note_on_c, 0, 89, 102
2, 273177, Note_on_c, 0, 57, 0
2, 273184, Note_on_c, 0, 57, 73
2, 273197, Note_on_c, 0, 65, 96
2, 273277, Note_on_c, 0, 57, 0
2, 273277, Note_on_c, 0, 60, 0
2, 273288, Note_on_c, 0, 60, 82
2, 273288, Note_on_c, 0, 57, 80
2, 273315, Note_on_c, 0, 65, 0
2, 273325, Note_on_c, 0, 65, 86
2, 273400, Note_on_c, 0, 60, 0
2, 273408, Note_on_c, 0, 57, 0
2, 273409, Note_on_c, 0, 60, 86
2, 273412, Note_on_c, 0, 57, 80
2, 273438, Note_on_c, 0, 65, 0
2, 273449, Note_on_c, 0, 65, 86
2, 273507, Note_on_c, 0, 60, 0
2, 273511, Note_on_c, 0, 60, 97
2, 273515, Note_on_c, 0, 57, 0
2, 273522, Note_on_c, 0, 57, 84
2, 273553, Note_on_c, 0, 65, 0
2, 273565, Note_on_c, 0, 65, 88
2, 273615, Note_on_c, 0, 60, 0
2, 273626, Note_on_c, 0, 60, 85
2, 273638, Note_on_c, 0, 57, 0
2, 273642, Note_on_c, 0, 57, 85
2, 273669, Note_on_c, 0, 65, 0
2, 273677, Note_on_c, 0, 65, 75
2, 273745, Note_on_c, 0, 57, 0
2, 273753, Note_on_c, 0, 60, 0
2, 273756, Note_on_c, 0, 57, 87
2, 273757, Note_on_c, 0, 60, 76
2, 273784, Note_on_c, 0, 86, 0
2, 273784, Note_on_c, 0, 89, 0
2, 273787, Note_on_c, 0, 93, 116
2, 273793, Note_on_c, 0, 81, 106
2, 273794, Note_on_c, 0, 86, 108
2, 273795, Note_on_c, 0, 89, 106
2, 273815, Note_on_c, 0, 67, 0
2, 273826, Note_on_c, 0, 67, 96
2, 273914, Note_on_c, 0, 60, 0
2, 273914, Note_on_c, 0, 65, 0
2, 273919, Note_on_c, 0, 60, 88
2, 273919, Note_on_c, 0, 65, 68
2, 273960, Note_on_c, 0, 67, 0
2, 273964, Note_on_c, 0, 67, 92
2, 274037, Note_on_c, 0, 57, 0
2, 274037, Note_on_c, 0, 60, 0
2, 274042, Note_on_c, 0, 60, 91
2, 274048, Note_on_c, 0, 57, 81
2, 274083, Note_on_c, 0, 67, 0
2, 274094, Note_on_c, 0, 67, 94
2, 274160, Note_on_c, 0, 57, 0
2, 274160, Note_on_c, 0, 60, 0
2, 274167, Note_on_c, 0, 60, 86
2, 274169, Note_on_c, 0, 57, 88
2, 274214, Note_on_c, 0, 67, 0
2, 274219, Note_on_c, 0, 67, 94
2, 274252, Note_on_c, 0, 57, 0
2, 274252, Note_on_c, 0, 65, 0
2, 274261, Note_on_c, 0, 57, 81
2, 274263, Note_on_c, 0, 65, 39
2, 274321, Note_on_c, 0, 81, 0
2, 274331, Note_on_c, 0, 81, 99
2, 274375, Note_on_c, 0, 82, 0
2, 274383, Note_on_c, 0, 82, 95
2, 274414, Note_on_c, 0, 86, 0
2, 274425, Note_on_c, 0, 86, 102
2, 274560, Note_on_c, 0, 33, 0
2, 274560, Note_on_c, 0, 72, 0
2, 274560, Note_on_c, 0, 76, 0
2, 274560, Note_on_c, 0, 96, 0
2, 274621, Note_on_c, 0, 88, 0
2, 274629, Note_on_c, 0, 81, 0
2, 274629, Note_on_c, 0, 93, 0
2, 274633, Note_on_c, 0, 93, 118
2, 274635, Note_on_c, 0, 81, 112
2, 274636, Note_on_c, 0, 86, 0
2, 274636, Note_on_c, 0, 89, 0
2, 274640, Note_on_c, 0, 89, 100
2, 274642, Note_on_c, 0, 86, 106
2, 274653, Note_on_c, 0, 34, 107
2, 274654, Note_on_c, 0, 57, 0
2, 274654, Note_on_c, 0, 67, 0
2, 274655, Note_on_c, 0, 60, 0
2, 274655, Note_on_c, 0, 84, 0
2, 274655, Note_on_c, 0, 65, 0
2, 274657, Note_on_c, 0, 94, 0
2, 274657, Control_c, 0, 64, 0
2, 274675, Note_on_c, 0, 64, 0
2, 274705, Control_c, 0, 64, 127
2, 274987, Note_on_c, 0, 53, 65
2, 274992, Note_on_c, 0, 58, 59
2, 275045, Note_on_c, 0, 62, 76
2, 275112, Note_on_c, 0, 58, 0
2, 275122, Note_on_c, 0, 58, 76
2, 275197, Note_on_c, 0, 62, 0
2, 275204, Note_on_c, 0, 62, 81
2, 275266, Note_on_c, 0, 53, 0
2, 275266, Note_on_c, 0, 58, 0
2, 275275, Note_on_c, 0, 58, 73
2, 275275, Note_on_c, 0, 53, 69
2, 275343, Note_on_c, 0, 62, 0
2, 275350, Note_on_c, 0, 62, 80
2, 275404, Note_on_c, 0, 53, 0
2, 275404, Note_on_c, 0, 58, 0
2, 275409, Note_on_c, 0, 53, 63
2, 275409, Note_on_c, 0, 58, 83
2, 275465, Note_on_c, 0, 65, 64
2, 275466, Note_on_c, 0, 62, 0
2, 275473, Note_on_c, 0, 65, 0
2, 275476, Note_on_c, 0, 62, 60
2, 275535, Note_on_c, 0, 58, 0
2, 275543, Note_on_c, 0, 53, 0
2, 275546, Note_on_c, 0, 58, 82
2, 275552, Note_on_c, 0, 53, 64
2, 275596, Note_on_c, 0, 62, 0
2, 275601, Note_on_c, 0, 62, 86
2, 275658, Note_on_c, 0, 53, 0
2, 275658, Note_on_c, 0, 58, 0
2, 275667, Note_on_c, 0, 58, 76
2, 275668, Note_on_c, 0, 53, 72
2, 275727, Note_on_c, 0, 62, 0
2, 275738, Note_on_c, 0, 62, 70
2, 275788, Note_on_c, 0, 53, 0
2, 275796, Note_on_c, 0, 58, 0
2, 275799, Note_on_c, 0, 53, 84
2, 275803, Note_on_c, 0, 58, 54
2, 275850, Note_on_c, 0, 58, 0
2, 275850, Note_on_c, 0, 62, 0
2, 275857, Note_on_c, 0, 62, 82
2, 275859, Note_on_c, 0, 58, 65
2, 276003, Note_on_c, 0, 53, 0
2, 276003, Note_on_c, 0, 62, 0
2, 276006, Note_on_c, 0, 84, 110
2, 276007, Note_on_c, 0, 72, 112
2, 276008, Note_on_c, 0, 79, 105
2, 276009, Note_on_c, 0, 53, 82
2, 276011, Note_on_c, 0, 77, 105
2, 276015, Note_on_c, 0, 62, 79
2, 276019, Note_on_c, 0, 58, 0
2, 276030, Note_on_c, 0, 58, 73
2, 276057, Note_on_c, 0, 64, 71
2, 276142, Note_on_c, 0, 58, 0
2, 276146, Note_on_c, 0, 58, 79
2, 276149, Note_on_c, 0, 53, 0
2, 276154, Note_on_c, 0, 53, 77
2, 276218, Note_on_c, 0, 64, 0
2, 276224, Note_on_c, 0, 64, 72
2, 276226, Note_on_c, 0, 62, 0
2, 276230, Note_on_c, 0, 62, 63
2, 276295, Note_on_c, 0, 53, 0
2, 276299, Note_on_c, 0, 53, 79
2, 276303, Note_on_c, 0, 58, 0
2, 276313, Note_on_c, 0, 58, 73
2, 276343, Note_on_c, 0, 65, 59
2, 276410, Note_on_c, 0, 58, 0
2, 276415, Note_on_c, 0, 58, 84
2, 276441, Note_on_c, 0, 62, 0
2, 276445, Note_on_c, 0, 62, 51
2, 276487, Note_on_c, 0, 64, 0
2, 276493, Note_on_c, 0, 64, 82
2, 276541, Note_on_c, 0, 53, 0
2, 276541, Note_on_c, 0, 58, 0
2, 276550, Note_on_c, 0, 58, 78
2, 276550, Note_on_c, 0, 53, 82
2, 276695, Note_on_c, 0, 58, 0
2, 276704, Note_on_c, 0, 58, 87
2, 276710, Note_on_c, 0, 53, 0
2, 276710, Note_on_c, 0, 79, 0
2, 276715, Note_on_c, 0, 53, 84
2, 276718, Note_on_c, 0, 72, 0
2, 276721, Note_on_c, 0, 79, 107
2, 276722, Note_on_c, 0, 72, 105
2, 276724, Note_on_c, 0, 76, 102
2, 276764, Note_on_c, 0, 65, 0
2, 276774, Note_on_c, 0, 65, 62
2, 276817, Note_on_c, 0, 62, 0
2, 276824, Note_on_c, 0, 62, 59
2, 276848, Note_on_c, 0, 58, 0
2, 276859, Note_on_c, 0, 58, 82
2, 276925, Note_on_c, 0, 53, 0
2, 276935, Note_on_c, 0, 53, 78
2, 276986, Note_on_c, 0, 53, 0
2, 276986, Note_on_c, 0, 58, 0
2, 276995, Note_on_c, 0, 53, 77
2, 276997, Note_on_c, 0, 58, 63
2, 277040, Note_on_c, 0, 65, 0
2, 277051, Note_on_c, 0, 65, 89
2, 277125, Note_on_c, 0, 53, 0
2, 277125, Note_on_c, 0, 58, 0
2, 277130, Note_on_c, 0, 58, 74
2, 277131, Note_on_c, 0, 53, 72
2, 277178, Note_on_c, 0, 65, 0
2, 277184, Note_on_c, 0, 65, 96
2, 277201, Note_on_c, 0, 58, 0
2, 277207, Note_on_c, 0, 58, 86
2, 277224, Note_on_c, 0, 77, 0
2, 277234, Note_on_c, 0, 77, 81
2, 277278, Note_on_c, 0, 62, 0
2, 277283, Note_on_c, 0, 62, 55
2, 277286, Note_on_c, 0, 82, 0
2, 277290, Note_on_c, 0, 82, 94
2, 277332, Note_on_c, 0, 84, 0
2, 277342, Note_on_c, 0, 84, 85
2, 277378, Note_on_c, 0, 82, 0
2, 277382, Note_on_c, 0, 82, 64
2, 277424, Note_on_c, 0, 93, 0
2, 277428, Note_on_c, 0, 34, 0
2, 277429, Note_on_c, 0, 79, 0
2, 277429, Note_on_c, 0, 64, 0
2, 277429, Note_on_c, 0, 65, 0
2, 277430, Note_on_c, 0, 62, 0
2, 277430, Note_on_c, 0, 53, 0
2, 277430, Note_on_c, 0, 76, 0
2, 277431, Note_on_c, 0, 72, 0
2, 277434, Note_on_c, 0, 84, 0
2, 277435, Control_c, 0, 64, 0
2, 277440, Note_on_c, 0, 86, 0
2, 277440, Note_on_c, 0, 89, 0
2, 277445, Note_on_c, 0, 89, 113
2, 277447, Note_on_c, 0, 77, 0
2, 277447, Note_on_c, 0, 81, 0
2, 277447, Note_on_c, 0, 82, 0
2, 277449, Note_on_c, 0, 86, 109
2, 277450, Note_on_c, 0, 31, 97
2, 277450, Note_on_c, 0, 43, 105
2, 277451, Note_on_c, 0, 77, 109
2, 277452, Note_on_c, 0, 82, 101
2, 277455, Note_on_c, 0, 58, 0
2, 277493, Control_c, 0, 64, 127
2, 277667, Note_on_c, 0, 55, 73
2, 277732, Note_on_c, 0, 58, 69
2, 277735, Note_on_c, 0, 62, 83
2, 277816, Note_on_c, 0, 55, 0
2, 277816, Note_on_c, 0, 58, 0
2, 277822, Note_on_c, 0, 55, 71
2, 277827, Note_on_c, 0, 58, 68
2, 277877, Note_on_c, 0, 62, 0
2, 277888, Note_on_c, 0, 62, 77
2, 277939, Note_on_c, 0, 55, 0
2, 277939, Note_on_c, 0, 58, 0
2, 277943, Note_on_c, 0, 55, 70
2, 277943, Note_on_c, 0, 58, 76
2, 278008, Note_on_c, 0, 62, 0
2, 278017, Note_on_c, 0, 62, 82
2, 278018, Note_on_c, 0, 64, 67
2, 278023, Note_on_c, 0, 64, 0
2, 278100, Note_on_c, 0, 55, 0
2, 278100, Note_on_c, 0, 58, 0
2, 278107, Note_on_c, 0, 58, 99
2, 278109, Note_on_c, 0, 55, 82
2, 278138, Note_on_c, 0, 82, 0
2, 278143, Note_on_c, 0, 88, 111
2, 278145, Note_on_c, 0, 76, 111
2, 278149, Note_on_c, 0, 84, 111
2, 278149, Note_on_c, 0, 82, 106
2, 278188, Note_on_c, 0, 64, 86
2, 278261, Note_on_c, 0, 58, 0
2, 278269, Note_on_c, 0, 55, 0
2, 278273, Note_on_c, 0, 58, 78
2, 278280, Note_on_c, 0, 55, 80
2, 278353, Note_on_c, 0, 64, 0
2, 278357, Note_on_c, 0, 64, 73
2, 278400, Note_on_c, 0, 55, 0
2, 278400, Note_on_c, 0, 58, 0
2, 278405, Note_on_c, 0, 55, 81
2, 278408, Note_on_c, 0, 58, 80
2, 278453, Note_on_c, 0, 64, 0
2, 278462, Note_on_c, 0, 64, 85
2, 278522, Note_on_c, 0, 55, 0
2, 278522, Note_on_c, 0, 58, 0
2, 278532, Note_on_c, 0, 58, 88
2, 278533, Note_on_c, 0, 55, 79
2, 278592, Note_on_c, 0, 64, 0
2, 278597, Note_on_c, 0, 64, 87
2, 278645, Note_on_c, 0, 55, 0
2, 278645, Note_on_c, 0, 58, 0
2, 278650, Note_on_c, 0, 58, 82
2, 278656, Note_on_c, 0, 55, 66
2, 278707, Note_on_c, 0, 64, 0
2, 278715, Note_on_c, 0, 64, 93
2, 278768, Note_on_c, 0, 55, 0
2, 278768, Note_on_c, 0, 58, 0
2, 278772, Note_on_c, 0, 58, 80
2, 278776, Note_on_c, 0, 55, 65
2, 278837, Note_on_c, 0, 77, 0
2, 278837, Note_on_c, 0, 89, 0
2, 278845, Note_on_c, 0, 84, 0
2, 278845, Note_on_c, 0, 86, 0
2, 278847, Note_on_c, 0, 89, 111
2, 278848, Note_on_c, 0, 77, 112
2, 278849, Note_on_c, 0, 86, 110
2, 278851, Note_on_c, 0, 84, 107
2, 278853, Note_on_c, 0, 82, 0
2, 278854, Note_on_c, 0, 65, 107
2, 278856, Note_on_c, 0, 82, 104
2, 278937, Note_on_c, 0, 58, 0
2, 278945, Note_on_c, 0, 55, 0
2, 278948, Note_on_c, 0, 58, 91
2, 278950, Note_on_c, 0, 55, 77
2, 278999, Note_on_c, 0, 65, 0
2, 279010, Note_on_c, 0, 65, 74
2, 279075, Note_on_c, 0, 55, 0
2, 279075, Note_on_c, 0, 58, 0
2, 279082, Note_on_c, 0, 58, 90
2, 279086, Note_on_c, 0, 55, 61
2, 279121, Note_on_c, 0, 65, 0
2, 279128, Note_on_c, 0, 65, 85
2, 279198, Note_on_c, 0, 55, 0
2, 279198, Note_on_c, 0, 58, 0
2, 279202, Note_on_c, 0, 55, 91
2, 279209, Note_on_c, 0, 58, 80
2, 279237, Note_on_c, 0, 65, 0
2, 279243, Note_on_c, 0, 65, 63
2, 279313, Note_on_c, 0, 55, 0
2, 279313, Note_on_c, 0, 58, 0
2, 279319, Note_on_c, 0, 58, 91
2, 279324, Note_on_c, 0, 55, 74
2, 279375, Note_on_c, 0, 65, 0
2, 279380, Note_on_c, 0, 65, 68
2, 279436, Note_on_c, 0, 55, 0
2, 279436, Note_on_c, 0, 58, 0
2, 279441, Note_on_c, 0, 58, 86
2, 279445, Note_on_c, 0, 55, 85
2, 279482, Note_on_c, 0, 65, 0
2, 279494, Note_on_c, 0, 65, 76
2, 279575, Note_on_c, 0, 55, 0
2, 279582, Note_on_c, 0, 58, 0
2, 279582, Note_on_c, 0, 62, 0
2, 279582, Note_on_c, 0, 82, 0
2, 279582, Note_on_c, 0, 86, 0
2, 279584, Note_on_c, 0, 55, 98
2, 279586, Note_on_c, 0, 58, 103
2, 279587, Note_on_c, 0, 62, 61
2, 279588, Note_on_c, 0, 67, 107
2, 279588, Note_on_c, 0, 91, 115
2, 279592, Note_on_c, 0, 79, 111
2, 279592, Note_on_c, 0, 82, 109
2, 279592, Note_on_c, 0, 86, 106
2, 279636, Note_on_c, 0, 67, 0
2, 279646, Note_on_c, 0, 67, 75
2, 279728, Note_on_c, 0, 55, 0
2, 279728, Note_on_c, 0, 58, 0
2, 279734, Note_on_c, 0, 58, 86
2, 279738, Note_on_c, 0, 55, 86
2, 279782, Note_on_c, 0, 64, 0
2, 279790, Note_on_c, 0, 67, 0
2, 279793, Note_on_c, 0, 64, 39
2, 279800, Note_on_c, 0, 67, 63
2, 279866, Note_on_c, 0, 55, 0
2, 279866, Note_on_c, 0, 58, 0
2, 279866, Note_on_c, 0, 67, 0
2, 279871, Note_on_c, 0, 55, 85
2, 279871, Note_on_c, 0, 58, 89
2, 279876, Note_on_c, 0, 67, 86
2, 279889, Note_on_c, 0, 65, 0
2, 279899, Note_on_c, 0, 65, 51
2, 279912, Note_on_c, 0, 64, 0
2, 279923, Note_on_c, 0, 64, 37
2, 279982, Note_on_c, 0, 55, 0
2, 279982, Note_on_c, 0, 58, 0
2, 279986, Note_on_c, 0, 58, 94
2, 279986, Note_on_c, 0, 55, 91
2, 280043, Note_on_c, 0, 67, 0
2, 280051, Note_on_c, 0, 67, 90
2, 280097, Note_on_c, 0, 55, 0
2, 280097, Note_on_c, 0, 58, 0
2, 280102, Note_on_c, 0, 58, 84
2, 280103, Note_on_c, 0, 55, 89
2, 280151, Note_on_c, 0, 67, 0
2, 280161, Note_on_c, 0, 67, 93
2, 280197, Note_on_c, 0, 55, 0
2, 280197, Note_on_c, 0, 58, 0
2, 280201, Note_on_c, 0, 55, 85
2, 280208, Note_on_c, 0, 58, 73
2, 280255, Note_on_c, 0, 81, 95
2, 280304, Note_on_c, 0, 86, 0
2, 280315, Note_on_c, 0, 86, 100
2, 280358, Note_on_c, 0, 88, 0
2, 280364, Note_on_c, 0, 88, 101
2, 280535, Note_on_c, 0, 31, 0
2, 280581, Note_on_c, 0, 43, 0
2, 280581, Note_on_c, 0, 86, 0
2, 280581, Note_on_c, 0, 88, 0
2, 280586, Note_on_c, 0, 93, 116
2, 280588, Note_on_c, 0, 65, 0
2, 280588, Note_on_c, 0, 81, 0
2, 280589, Note_on_c, 0, 62, 0
2, 280590, Note_on_c, 0, 82, 0
2, 280590, Note_on_c, 0, 64, 0
2, 280590, Note_on_c, 0, 84, 0
2, 280590, Note_on_c, 0, 76, 0
2, 280591, Note_on_c, 0, 58, 0
2, 280591, Note_on_c, 0, 55, 0
2, 280591, Note_on_c, 0, 89, 0
2, 280591, Note_on_c, 0, 79, 0
2, 280591, Note_on_c, 0, 91, 0
2, 280592, Note_on_c, 0, 86, 107
2, 280592, Note_on_c, 0, 88, 96
2, 280592, Note_on_c, 0, 81, 109
2, 280592, Note_on_c, 0, 33, 100
2, 280593, Control_c, 0, 64, 0
2, 280593, Note_on_c, 0, 45, 99
2, 280593, Note_on_c, 0, 40, 101
2, 280604, Note_on_c, 0, 67, 0
2, 280604, Note_on_c, 0, 77, 0
2, 280711, Control_c, 0, 64, 127
2, 281044, Note_on_c, 0, 52, 52
2, 281045, Note_on_c, 0, 57, 71
2, 281125, Note_on_c, 0, 62, 62
2, 281180, Note_on_c, 0, 52, 0
2, 281180, Note_on_c, 0, 57, 0
2, 281186, Note_on_c, 0, 57, 74
2, 281191, Note_on_c, 0, 52, 53
2, 281256, Note_on_c, 0, 62, 0
2, 281262, Note_on_c, 0, 62, 66
2, 281264, Note_on_c, 0, 57, 0
2, 281268, Note_on_c, 0, 57, 65
2, 281333, Note_on_c, 0, 57, 0
2, 281341, Note_on_c, 0, 52, 0
2, 281343, Note_on_c, 0, 57, 72
2, 281346, Note_on_c, 0, 52, 62
2, 281418, Note_on_c, 0, 62, 0
2, 281429, Note_on_c, 0, 62, 74
2, 281464, Note_on_c, 0, 57, 0
2, 281474, Note_on_c, 0, 57, 73
2, 281548, Note_on_c, 0, 62, 0
2, 281553, Note_on_c, 0, 62, 76
2, 281617, Note_on_c, 0, 57, 0
2, 281628, Note_on_c, 0, 57, 70
2, 281687, Note_on_c, 0, 62, 0
2, 281691, Note_on_c, 0, 62, 79
2, 281740, Note_on_c, 0, 57, 0
2, 281748, Note_on_c, 0, 52, 0
2, 281749, Note_on_c, 0, 57, 73
2, 281754, Note_on_c, 0, 52, 67
2, 281802, Note_on_c, 0, 62, 0
2, 281810, Note_on_c, 0, 62, 76
2, 281863, Note_on_c, 0, 52, 0
2, 281863, Note_on_c, 0, 57, 0
2, 281874, Note_on_c, 0, 57, 88
2, 281875, Note_on_c, 0, 52, 71
2, 281925, Note_on_c, 0, 62, 0
2, 281932, Note_on_c, 0, 62, 73
2, 282001, Note_on_c, 0, 52, 0
2, 282001, Note_on_c, 0, 57, 0
2, 282006, Note_on_c, 0, 57, 88
2, 282011, Note_on_c, 0, 52, 67
2, 282063, Note_on_c, 0, 81, 0
2, 282068, Note_on_c, 0, 81, 108
2, 282070, Note_on_c, 0, 69, 107
2, 282073, Note_on_c, 0, 74, 109
2, 282073, Note_on_c, 0, 76, 107
2, 282107, Control_c, 0, 64, 0
2, 282117, Note_on_c, 0, 52, 0
2, 282117, Note_on_c, 0, 93, 0
2, 282119, Note_on_c, 0, 45, 0
2, 282124, Note_on_c, 0, 57, 0
2, 282124, Note_on_c, 0, 88, 0
2, 282127, Note_on_c, 0, 52, 52
2, 282129, Note_on_c, 0, 57, 62
2, 282132, Note_on_c, 0, 33, 0
2, 282155, Control_c, 0, 64, 127
2, 282186, Note_on_c, 0, 86, 0
2, 282193, Note_on_c, 0, 62, 0
2, 282204, Note_on_c, 0, 62, 69
2, 282224, Note_on_c, 0, 40, 0
2, 282240, Note_on_c, 0, 57, 0
2, 282247, Note_on_c, 0, 52, 0
2, 282251, Note_on_c, 0, 57, 82
2, 282251, Note_on_c, 0, 52, 76
2, 282324, Note_on_c, 0, 62, 0
2, 282331, Note_on_c, 0, 62, 76
2, 282385, Note_on_c, 0, 52, 0
2, 282392, Note_on_c, 0, 52, 61
2, 282393, Note_on_c, 0, 57, 0
2, 282398, Note_on_c, 0, 57, 83
2, 282447, Note_on_c, 0, 62, 0
2, 282453, Note_on_c, 0, 62, 73
2, 282508, Note_on_c, 0, 57, 0
2, 282516, Note_on_c, 0, 52, 0
2, 282519, Note_on_c, 0, 57, 84
2, 282524, Note_on_c, 0, 52, 62
2, 282577, Note_on_c, 0, 62, 0
2, 282582, Note_on_c, 0, 62, 86
2, 282639, Note_on_c, 0, 57, 0
2, 282647, Note_on_c, 0, 52, 0
2, 282650, Note_on_c, 0, 57, 87
2, 282651, Note_on_c, 0, 52, 72
2, 282693, Note_on_c, 0, 62, 0
2, 282704, Note_on_c, 0, 62, 68
2, 282777, Note_on_c, 0, 52, 0
2, 282777, Note_on_c, 0, 57, 0
2, 282782, Note_on_c, 0, 57, 87
2, 282782, Note_on_c, 0, 52, 74
2, 282816, Note_on_c, 0, 62, 0
2, 282825, Note_on_c, 0, 62, 55
2, 282908, Note_on_c, 0, 52, 0
2, 282908, Note_on_c, 0, 57, 0
2, 282912, Note_on_c, 0, 57, 84
2, 282915, Note_on_c, 0, 52, 72
2, 282954, Note_on_c, 0, 62, 0
2, 282964, Note_on_c, 0, 62, 62
2, 283031, Note_on_c, 0, 52, 0
2, 283031, Note_on_c, 0, 57, 0
2, 283035, Note_on_c, 0, 52, 65
2, 283036, Note_on_c, 0, 57, 86
2, 283069, Note_on_c, 0, 62, 0
2, 283076, Note_on_c, 0, 62, 65
2, 283153, Note_on_c, 0, 57, 0
2, 283161, Note_on_c, 0, 52, 0
2, 283162, Note_on_c, 0, 57, 86
2, 283172, Note_on_c, 0, 52, 70
2, 283207, Note_on_c, 0, 69, 0
2, 283207, Note_on_c, 0, 81, 0
2, 283215, Note_on_c, 0, 74, 0
2, 283215, Note_on_c, 0, 76, 0
2, 283215, Note_on_c, 0, 81, 108
2, 283217, Note_on_c, 0, 69, 104
2, 283219, Note_on_c, 0, 74, 107
2, 283224, Note_on_c, 0, 76, 107
2, 283284, Note_on_c, 0, 52, 0
2, 283289, Note_on_c, 0, 52, 78
2, 283292, Note_on_c, 0, 57, 0
2, 283296, Note_on_c, 0, 57, 78
2, 283353, Note_on_c, 0, 62, 0
2, 283359, Note_on_c, 0, 62, 88
2, 283399, Note_on_c, 0, 57, 0
2, 283409, Note_on_c, 0, 57, 68
2, 283691, Note_on_c, 0, 81, 0
2, 283699, Note_on_c, 0, 69, 0
2, 283699, Note_on_c, 0, 76, 0
2, 283702, Note_on_c, 0, 81, 111
2, 283703, Note_on_c, 0, 69, 112
2, 283703, Note_on_c, 0, 73, 108
2, 283704, Note_on_c, 0, 76, 106
2, 283710, Note_on_c, 0, 33, 101
2, 283730, Note_on_c, 0, 52, 0
2, 283732, Note_on_c, 0, 57, 0
2, 283733, Note_on_c, 0, 74, 0
2, 283742, Control_c, 0, 64, 0
2, 283752, Note_on_c, 0, 62, 0
2, 284037, Control_c, 0, 64, 127
2, 284160, Note_on_c, 0, 33, 0
2, 284170, Note_on_c, 0, 33, 87
2, 284283, Note_on_c, 0, 40, 80
2, 284409, Note_on_c, 0, 45, 90
2, 284528, Note_on_c, 0, 40, 0
2, 284531, Note_on_c, 0, 52, 77
2, 284532, Note_on_c, 0, 50, 94
2, 284534, Note_on_c, 0, 40, 71
2, 284643, Note_on_c, 0, 45, 0
2, 284649, Note_on_c, 0, 45, 88
2, 284774, Note_on_c, 0, 50, 0
2, 284782, Note_on_c, 0, 50, 74
2, 284889, Note_on_c, 0, 52, 0
2, 284893, Note_on_c, 0, 57, 107
2, 284897, Note_on_c, 0, 52, 80
2, 285012, Note_on_c, 0, 50, 0
2, 285023, Note_on_c, 0, 50, 80
2, 285043, Note_on_c, 0, 52, 0
2, 285051, Note_on_c, 0, 52, 55
2, 285120, Note_on_c, 0, 52, 0
2, 285128, Note_on_c, 0, 52, 81
2, 285265, Note_on_c, 0, 57, 0
2, 285276, Note_on_c, 0, 57, 103
2, 285277, Note_on_c, 0, 64, 107
2, 285281, Note_on_c, 0, 52, 0
2, 285283, Note_on_c, 0, 62, 98
2, 285286, Note_on_c, 0, 52, 90
2, 285511, Note_on_c, 0, 57, 0
2, 285522, Note_on_c, 0, 57, 95
2, 285657, Note_on_c, 0, 64, 0
2, 285657, Note_on_c, 0, 69, 0
2, 285667, Note_on_c, 0, 69, 106
2, 285668, Note_on_c, 0, 64, 105
2, 285692, Note_on_c, 0, 61, 92
2, 285818, Note_on_c, 0, 57, 0
2, 285824, Note_on_c, 0, 57, 104
2, 285949, Note_on_c, 0, 61, 0
2, 285954, Note_on_c, 0, 61, 103
2, 286080, Note_on_c, 0, 73, 0
2, 286080, Note_on_c, 0, 76, 0
2, 286080, Note_on_c, 0, 81, 0
2, 286118, Note_on_c, 0, 61, 0
2, 286118, Note_on_c, 0, 64, 0
2, 286122, Note_on_c, 0, 91, 113
2, 286122, Note_on_c, 0, 85, 108
2, 286123, Note_on_c, 0, 79, 110
2, 286123, Note_on_c, 0, 64, 101
2, 286126, Note_on_c, 0, 67, 102
2, 286128, Note_on_c, 0, 88, 105
2, 286129, Note_on_c, 0, 61, 99
2, 286295, Note_on_c, 0, 57, 0
2, 286300, Note_on_c, 0, 57, 108
2, 286487, Note_on_c, 0, 45, 0
2, 286497, Note_on_c, 0, 45, 104
2, 286717, Note_on_c, 0, 52, 0
2, 286721, Note_on_c, 0, 55, 103
2, 286725, Note_on_c, 0, 49, 103
2, 286727, Note_on_c, 0, 52, 95
2, 286986, Note_on_c, 0, 45, 0
2, 286995, Note_on_c, 0, 45, 97
2, 287285, Note_on_c, 0, 33, 0
2, 287294, Note_on_c, 0, 33, 95
2, 287650, Note_on_c, 0, 26, 82
2, 287650, Note_on_c, 0, 38, 80
2, 287715, Note_on_c, 0, 38, 0
2, 287719, Note_on_c, 0, 38, 95
2, 288153, Note_on_c, 0, 26, 0
2, 288153, Note_on_c, 0, 38, 0
2, 288155, Note_on_c, 0, 89, 111
2, 288157, Note_on_c, 0, 81, 105
2, 288157, Note_on_c, 0, 77, 108
2, 288158, Note_on_c, 0, 38, 100
2, 288158, Note_on_c, 0, 86, 107
2, 288162, Note_on_c, 0, 26, 96
2, 288165, Control_c, 0, 64, 0
2, 288172, Note_on_c, 0, 64, 0
2, 288172, Note_on_c, 0, 91, 0
2, 288172, Note_on_c, 0, 33, 0
2, 288172, Note_on_c, 0, 40, 0
2, 288172, Note_on_c, 0, 85, 0
2, 288172, Note_on_c, 0, 49, 0
2, 288173, Note_on_c, 0, 45, 0
2, 288173, Note_on_c, 0, 52, 0
2, 288173, Note_on_c, 0, 67, 0
2, 288173, Note_on_c, 0, 79, 0
2, 288173, Note_on_c, 0, 61, 0
2, 288174, Note_on_c, 0, 88, 0
2, 288175, Note_on_c, 0, 55, 0
2, 288184, Note_on_c, 0, 50, 0
2, 288184, Note_on_c, 0, 62, 0
2, 288192, Note_on_c, 0, 57, 0
2, 288192, Note_on_c, 0, 69, 0
2, 288238, Control_c, 0, 64, 127
2, 288291, Note_on_c, 0, 26, 0
2, 288499, Note_on_c, 0, 77, 0
2, 288504, Note_on_c, 0, 77, 87
2, 288664, Note_on_c, 0, 67, 106
2, 288669, Note_on_c, 0, 82, 96
2, 288838, Note_on_c, 0, 84, 102
2, 289006, Note_on_c, 0, 77, 0
2, 289012, Note_on_c, 0, 69, 105
2, 289014, Note_on_c, 0, 77, 94
2, 289175, Note_on_c, 0, 84, 0
2, 289184, Note_on_c, 0, 84, 97
2, 289320, Note_on_c, 0, 34, 77
2, 289331, Note_on_c, 0, 86, 0
2, 289332, Note_on_c, 0, 67, 0
2, 289332, Note_on_c, 0, 82, 0
2, 289332, Note_on_c, 0, 81, 0
2, 289333, Note_on_c, 0, 69, 0
2, 289333, Note_on_c, 0, 77, 0
2, 289333, Note_on_c, 0, 84, 0
2, 289335, Control_c, 0, 64, 0
2, 289339, Note_on_c, 0, 41, 86
2, 289344, Note_on_c, 0, 89, 0
2, 289345, Note_on_c, 0, 46, 109
2, 289359, Note_on_c, 0, 38, 0
2, 289364, Note_on_c, 0, 72, 106
2, 289368, Note_on_c, 0, 60, 102
2, 289370, Note_on_c, 0, 70, 99
2, 289370, Note_on_c, 0, 65, 98
2, 289390, Control_c, 0, 64, 127
2, 289569, Note_on_c, 0, 77, 98
2, 289718, Note_on_c, 0, 82, 100
2, 289870, Note_on_c, 0, 84, 106
2, 290035, Note_on_c, 0, 77, 0
2, 290041, Note_on_c, 0, 77, 94
2, 290196, Note_on_c, 0, 84, 0
2, 290205, Note_on_c, 0, 84, 104
2, 290350, Note_on_c, 0, 65, 0
2, 290357, Note_on_c, 0, 58, 99
2, 290358, Note_on_c, 0, 65, 108
2, 290359, Note_on_c, 0, 62, 102
2, 290386, Note_on_c, 0, 89, 106
2, 290526, Note_on_c, 0, 84, 0
2, 290538, Note_on_c, 0, 84, 91
2, 290672, Note_on_c, 0, 46, 0
2, 290681, Note_on_c, 0, 46, 107
2, 290688, Note_on_c, 0, 82, 0
2, 290692, Note_on_c, 0, 82, 98
2, 290833, Note_on_c, 0, 84, 0
2, 290837, Note_on_c, 0, 84, 96
2, 291001, Note_on_c, 0, 72, 0
2, 291001, Note_on_c, 0, 34, 0
2, 291001, Note_on_c, 0, 82, 0
2, 291001, Note_on_c, 0, 89, 0
2, 291001, Note_on_c, 0, 41, 0
2, 291002, Note_on_c, 0, 84, 0
2, 291002, Note_on_c, 0, 77, 0
2, 291003, Note_on_c, 0, 46, 0
2, 291004, Note_on_c, 0, 70, 0
2, 291005, Note_on_c, 0, 62, 0
2, 291007, Control_c, 0, 64, 0
2, 291010, Note_on_c, 0, 60, 0
2, 291014, Note_on_c, 0, 60, 105
2, 291018, Note_on_c, 0, 58, 0
2, 291018, Note_on_c, 0, 67, 103
2, 291020, Note_on_c, 0, 64, 103
2, 291021, Note_on_c, 0, 48, 106
2, 291023, Note_on_c, 0, 36, 98
2, 291025, Note_on_c, 0, 65, 0
2, 291064, Control_c, 0, 64, 127
2, 291177, Note_on_c, 0, 77, 94
2, 291345, Note_on_c, 0, 65, 106
2, 291356, Note_on_c, 0, 82, 99
2, 291522, Note_on_c, 0, 84, 102
2, 291663, Note_on_c, 0, 60, 0
2, 291663, Note_on_c, 0, 64, 0
2, 291663, Note_on_c, 0, 67, 0
2, 291668, Note_on_c, 0, 64, 105
2, 291669, Note_on_c, 0, 67, 105
2, 291671, Note_on_c, 0, 77, 0
2, 291671, Note_on_c, 0, 60, 99
2, 291680, Note_on_c, 0, 77, 98
2, 291816, Note_on_c, 0, 84, 0
2, 291825, Note_on_c, 0, 84, 104
2, 292000, Note_on_c, 0, 82, 0
2, 292001, Note_on_c, 0, 77, 0
2, 292001, Note_on_c, 0, 36, 0
2, 292001, Note_on_c, 0, 84, 0
2, 292002, Note_on_c, 0, 64, 0
2, 292003, Note_on_c, 0, 67, 0
2, 292005, Control_c, 0, 64, 0
2, 292008, Note_on_c, 0, 48, 0
2, 292008, Note_on_c, 0, 60, 0
2, 292008, Note_on_c, 0, 65, 0
2, 292018, Note_on_c, 0, 69, 107
2, 292019, Note_on_c, 0, 60, 103
2, 292019, Note_on_c, 0, 48, 104
2, 292019, Note_on_c, 0, 65, 101
2, 292020, Note_on_c, 0, 53, 110
2, 292020, Note_on_c, 0, 41, 103
2, 292101, Control_c, 0, 64, 127
2, 292182, Note_on_c, 0, 77, 98
2, 292355, Note_on_c, 0, 82, 100
2, 292513, Note_on_c, 0, 84, 102
2, 292684, Note_on_c, 0, 77, 0
2, 292690, Note_on_c, 0, 77, 101
2, 292838, Note_on_c, 0, 84, 0
2, 292845, Note_on_c, 0, 84, 102
2, 292984, Note_on_c, 0, 60, 0
2, 292991, Note_on_c, 0, 67, 104
2, 292994, Note_on_c, 0, 64, 106
2, 292994, Note_on_c, 0, 60, 104
2, 293008, Note_on_c, 0, 89, 105
2, 293153, Note_on_c, 0, 84, 0
2, 293160, Note_on_c, 0, 84, 101
2, 293299, Note_on_c, 0, 82, 0
2, 293303, Note_on_c, 0, 52, 102
2, 293303, Note_on_c, 0, 40, 96
2, 293308, Note_on_c, 0, 82, 99
2, 293452, Note_on_c, 0, 84, 0
2, 293457, Note_on_c, 0, 84, 100
2, 293615, Note_on_c, 0, 77, 0
2, 293615, Note_on_c, 0, 89, 0
2, 293616, Note_on_c, 0, 52, 0
2, 293617, Note_on_c, 0, 84, 0
2, 293617, Note_on_c, 0, 53, 0
2, 293617, Note_on_c, 0, 82, 0
2, 293617, Note_on_c, 0, 41, 0
2, 293617, Note_on_c, 0, 67, 0
2, 293617, Note_on_c, 0, 69, 0
2, 293618, Note_on_c, 0, 48, 0
2, 293618, Note_on_c, 0, 64, 0
2, 293622, Control_c, 0, 64, 0
2, 293629, Note_on_c, 0, 60, 0
2, 293629, Note_on_c, 0, 65, 0
2, 293636, Note_on_c, 0, 60, 99
2, 293639, Note_on_c, 0, 57, 103
2, 293640, Note_on_c, 0, 65, 104
2, 293641, Note_on_c, 0, 50, 102
2, 293642, Note_on_c, 0, 38, 101
2, 293698, Control_c, 0, 64, 127
2, 293706, Note_on_c, 0, 57, 0
2, 293815, Note_on_c, 0, 77, 98
2, 293978, Note_on_c, 0, 67, 106
2, 294001, Note_on_c, 0, 82, 99
2, 294167, Note_on_c, 0, 84, 107
2, 294305, Note_on_c, 0, 65, 0
2, 294312, Note_on_c, 0, 60, 0
2, 294312, Note_on_c, 0, 77, 0
2, 294316, Note_on_c, 0, 69, 109
2, 294316, Note_on_c, 0, 65, 106
2, 294318, Note_on_c, 0, 60, 95
2, 294319, Note_on_c, 0, 77, 103
2, 294466, Note_on_c, 0, 84, 0
2, 294472, Note_on_c, 0, 84, 99
2, 294627, Note_on_c, 0, 40, 0
2, 294641, Note_on_c, 0, 82, 0
2, 294642, Control_c, 0, 64, 0
2, 294643, Note_on_c, 0, 38, 0
2, 294643, Note_on_c, 0, 60, 0
2, 294643, Note_on_c, 0, 77, 0
2, 294643, Note_on_c, 0, 67, 0
2, 294644, Note_on_c, 0, 84, 0
2, 294645, Note_on_c, 0, 69, 0
2, 294650, Note_on_c, 0, 50, 0
2, 294650, Note_on_c, 0, 65, 0
2, 294653, Note_on_c, 0, 72, 107
2, 294654, Note_on_c, 0, 60, 102
2, 294655, Note_on_c, 0, 46, 111
2, 294656, Note_on_c, 0, 34, 100
2, 294657, Note_on_c, 0, 65, 98
2, 294661, Note_on_c, 0, 70, 96
2, 294712, Control_c, 0, 64, 127
2, 294829, Note_on_c, 0, 77, 96
2, 294991, Note_on_c, 0, 82, 103
2, 295147, Note_on_c, 0, 84, 107
2, 295311, Note_on_c, 0, 77, 0
2, 295319, Note_on_c, 0, 77, 101
2, 295464, Note_on_c, 0, 84, 0
2, 295469, Note_on_c, 0, 84, 106
2, 295626, Note_on_c, 0, 65, 0
2, 295630, Note_on_c, 0, 58, 101
2, 295630, Note_on_c, 0, 65, 108
2, 295635, Note_on_c, 0, 62, 103
2, 295644, Note_on_c, 0, 89, 105
2, 295787, Note_on_c, 0, 84, 0
2, 295796, Note_on_c, 0, 84, 100
2, 295933, Note_on_c, 0, 46, 0
2, 295944, Note_on_c, 0, 46, 106
2, 295948, Note_on_c, 0, 82, 0
2, 295955, Note_on_c, 0, 82, 99
2, 296094, Note_on_c, 0, 84, 0
2, 296098, Note_on_c, 0, 84, 104
2, 296254, Note_on_c, 0, 34, 0
2, 296255, Note_on_c, 0, 82, 0
2, 296255, Note_on_c, 0, 89, 0
2, 296256, Note_on_c, 0, 60, 0
2, 296256, Note_on_c, 0, 72, 0
2, 296256, Note_on_c, 0, 84, 0
2, 296257, Note_on_c, 0, 77, 0
2, 296257, Note_on_c, 0, 46, 0
2, 296258, Note_on_c, 0, 65, 0
2, 296258, Note_on_c, 0, 70, 0
2, 296258, Note_on_c, 0, 62, 0
2, 296258, Control_c, 0, 64, 0
2, 296259, Note_on_c, 0, 58, 0
2, 296267, Note_on_c, 0, 60, 107
2, 296270, Note_on_c, 0, 48, 109
2, 296270, Note_on_c, 0, 67, 105
2, 296273, Note_on_c, 0, 64, 101
2, 296275, Note_on_c, 0, 36, 101
2, 296332, Control_c, 0, 64, 127
2, 296434, Note_on_c, 0, 77, 97
2, 296606, Note_on_c, 0, 69, 105
2, 296612, Note_on_c, 0, 82, 96
2, 296781, Note_on_c, 0, 84, 104
2, 296916, Note_on_c, 0, 64, 0
2, 296924, Note_on_c, 0, 60, 0
2, 296924, Note_on_c, 0, 67, 0
2, 296924, Note_on_c, 0, 77, 0
2, 296927, Note_on_c, 0, 64, 106
2, 296928, Note_on_c, 0, 67, 104
2, 296928, Note_on_c, 0, 60, 99
2, 296935, Note_on_c, 0, 77, 98
2, 297077, Note_on_c, 0, 84, 0
2, 297082, Note_on_c, 0, 84, 97
2, 297239, Note_on_c, 0, 36, 0
2, 297239, Note_on_c, 0, 77, 0
2, 297239, Note_on_c, 0, 69, 0
2, 297240, Note_on_c, 0, 60, 0
2, 297240, Note_on_c, 0, 84, 0
2, 297240, Note_on_c, 0, 67, 0
2, 297240, Note_on_c, 0, 64, 0
2, 297241, Note_on_c, 0, 82, 0
2, 297246, Control_c, 0, 64, 0
2, 297262, Note_on_c, 0, 48, 0
2, 297267, Note_on_c, 0, 53, 106
2, 297268, Note_on_c, 0, 48, 103
2, 297270, Note_on_c, 0, 41, 103
2, 297271, Note_on_c, 0, 57, 103
2, 297272, Note_on_c, 0, 65, 103
2, 297338, Control_c, 0, 64, 127
2, 297419, Note_on_c, 0, 77, 98
2, 297601, Note_on_c, 0, 82, 100
2, 297763, Note_on_c, 0, 84, 103
2, 297922, Note_on_c, 0, 77, 0
2, 297927, Note_on_c, 0, 77, 96
2, 298068, Note_on_c, 0, 84, 0
2, 298078, Note_on_c, 0, 84, 96
2, 298222, Note_on_c, 0, 57, 0
2, 298222, Note_on_c, 0, 65, 0
2, 298222, Note_on_c, 0, 82, 0
2, 298226, Note_on_c, 0, 89, 103
2, 298226, Note_on_c, 0, 60, 97
2, 298226, Note_on_c, 0, 65, 105
2, 298227, Note_on_c, 0, 57, 97
2, 298231, Note_on_c, 0, 82, 104
2, 298536, Note_on_c, 0, 84, 0
2, 298539, Note_on_c, 0, 91, 111
2, 298540, Note_on_c, 0, 52, 102
2, 298540, Note_on_c, 0, 79, 107
2, 298544, Note_on_c, 0, 40, 95
2, 298544, Note_on_c, 0, 84, 95
2, 298867, Note_on_c, 0, 77, 0
2, 298867, Note_on_c, 0, 84, 0
2, 298867, Note_on_c, 0, 89, 0
2, 298871, Note_on_c, 0, 82, 0
2, 298871, Note_on_c, 0, 89, 108
2, 298871, Note_on_c, 0, 57, 0
2, 298872, Note_on_c, 0, 48, 0
2, 298872, Note_on_c, 0, 65, 0
2, 298872, Note_on_c, 0, 79, 0
2, 298872, Note_on_c, 0, 53, 0
2, 298873, Note_on_c, 0, 52, 0
2, 298873, Note_on_c, 0, 91, 0
2, 298873, Note_on_c, 0, 60, 0
2, 298873, Note_on_c, 0, 81, 102
2, 298874, Control_c, 0, 64, 0
2, 298874, Note_on_c, 0, 41, 0
2, 298875, Note_on_c, 0, 84, 99
2, 298875, Note_on_c, 0, 77, 105
2, 298876, Note_on_c, 0, 40, 0
2, 298877, Note_on_c, 0, 50, 103
2, 298879, Note_on_c, 0, 38, 95
2, 298951, Control_c, 0, 64, 127
2, 298967, Note_on_c, 0, 50, 0
2, 299028, Note_on_c, 0, 38, 0
2, 299036, Note_on_c, 0, 38, 86
2, 299038, Note_on_c, 0, 50, 95
2, 299199, Note_on_c, 0, 91, 111
2, 299200, Note_on_c, 0, 79, 105
2, 299325, Note_on_c, 0, 60, 100
2, 299329, Note_on_c, 0, 57, 101
2, 299330, Note_on_c, 0, 53, 97
2, 299496, Note_on_c, 0, 81, 0
2, 299502, Note_on_c, 0, 93, 110
2, 299505, Note_on_c, 0, 81, 107
2, 299635, Note_on_c, 0, 38, 0
2, 299635, Note_on_c, 0, 50, 0
2, 299641, Note_on_c, 0, 50, 93
2, 299642, Note_on_c, 0, 38, 89
2, 299784, Control_c, 0, 64, 0
2, 299787, Note_on_c, 0, 91, 0
2, 299787, Note_on_c, 0, 79, 0
2, 299788, Note_on_c, 0, 81, 0
2, 299788, Note_on_c, 0, 77, 0
2, 299789, Note_on_c, 0, 38, 0
2, 299789, Note_on_c, 0, 53, 0
2, 299790, Note_on_c, 0, 57, 0
2, 299790, Note_on_c, 0, 60, 0
2, 299790, Note_on_c, 0, 50, 0
2, 299811, Note_on_c, 0, 84, 0
2, 299811, Note_on_c, 0, 89, 0
2, 299815, Note_on_c, 0, 46, 108
2, 299818, Note_on_c, 0, 89, 103
2, 299819, Note_on_c, 0, 34, 103
2, 299823, Note_on_c, 0, 96, 107
2, 299823, Note_on_c, 0, 84, 109
2, 299826, Note_on_c, 0, 94, 102
2, 299857, Control_c, 0, 64, 127
2, 299957, Note_on_c, 0, 34, 0
2, 299957, Note_on_c, 0, 46, 0
2, 299966, Note_on_c, 0, 46, 91
2, 299968, Note_on_c, 0, 34, 72
2, 300140, Note_on_c, 0, 65, 89
2, 300286, Note_on_c, 0, 60, 102
2, 300288, Note_on_c, 0, 65, 0
2, 300291, Note_on_c, 0, 53, 84
2, 300292, Note_on_c, 0, 58, 102
2, 300295, Note_on_c, 0, 70, 90
2, 300296, Note_on_c, 0, 65, 78
2, 300459, Note_on_c, 0, 72, 94
2, 300587, Note_on_c, 0, 46, 0
2, 300595, Note_on_c, 0, 65, 0
2, 300598, Note_on_c, 0, 46, 94
2, 300600, Note_on_c, 0, 65, 95
2, 300748, Note_on_c, 0, 53, 0
2, 300748, Note_on_c, 0, 58, 0
2, 300748, Note_on_c, 0, 60, 0
2, 300748, Note_on_c, 0, 65, 0
2, 300748, Note_on_c, 0, 70, 0
2, 300748, Note_on_c, 0, 72, 0
2, 300757, Note_on_c, 0, 60, 99
2, 300758, Note_on_c, 0, 58, 103
2, 300759, Note_on_c, 0, 70, 94
2, 300759, Note_on_c, 0, 77, 104
2, 300759, Note_on_c, 0, 72, 96
2, 300759, Note_on_c, 0, 53, 89
2, 300760, Note_on_c, 0, 65, 105
2, 300902, Note_on_c, 0, 72, 0
2, 300909, Note_on_c, 0, 72, 104
2, 301063, Note_on_c, 0, 89, 0
2, 301071, Note_on_c, 0, 34, 0
2, 301071, Note_on_c, 0, 77, 0
2, 301074, Note_on_c, 0, 89, 112
2, 301075, Note_on_c, 0, 77, 106
2, 301081, Note_on_c, 0, 34, 90
2, 301102, Note_on_c, 0, 93, 0
2, 301194, Note_on_c, 0, 46, 0
2, 301200, Note_on_c, 0, 46, 95
2, 301349, Control_c, 0, 64, 0
2, 301366, Note_on_c, 0, 96, 0
2, 301374, Note_on_c, 0, 34, 0
2, 301374, Note_on_c, 0, 60, 0
2, 301374, Note_on_c, 0, 58, 0
2, 301375, Note_on_c, 0, 72, 0
2, 301375, Note_on_c, 0, 53, 0
2, 301376, Note_on_c, 0, 77, 0
2, 301376, Note_on_c, 0, 46, 0
2, 301377, Note_on_c, 0, 65, 0
2, 301378, Note_on_c, 0, 84, 0
2, 301378, Note_on_c, 0, 89, 0
2, 301383, Note_on_c, 0, 91, 113
2, 301386, Note_on_c, 0, 94, 0
2, 301388, Note_on_c, 0, 79, 107
2, 301389, Note_on_c, 0, 84, 105
2, 301389, Note_on_c, 0, 48, 108
2, 301390, Note_on_c, 0, 88, 102
2, 301393, Note_on_c, 0, 70, 0
2, 301395, Note_on_c, 0, 36, 100
2, 301440, Control_c, 0, 64, 127
2, 301532, Note_on_c, 0, 48, 0
2, 301539, Note_on_c, 0, 36, 0
2, 301543, Note_on_c, 0, 48, 95
2, 301545, Note_on_c, 0, 36, 86
2, 301717, Note_on_c, 0, 89, 111
2, 301718, Note_on_c, 0, 77, 104
2, 301858, Note_on_c, 0, 60, 101
2, 301860, Note_on_c, 0, 53, 92
2, 301861, Note_on_c, 0, 55, 97
2, 302000, Note_on_c, 0, 79, 0
2, 302000, Note_on_c, 0, 91, 0
2, 302007, Note_on_c, 0, 91, 113
2, 302009, Note_on_c, 0, 79, 109
2, 302123, Note_on_c, 0, 48, 0
2, 302129, Note_on_c, 0, 48, 91
2, 302313, Control_c, 0, 64, 0
2, 302323, Note_on_c, 0, 91, 0
2, 302324, Note_on_c, 0, 77, 0
2, 302325, Note_on_c, 0, 79, 0
2, 302325, Note_on_c, 0, 55, 0
2, 302325, Note_on_c, 0, 88, 0
2, 302326, Note_on_c, 0, 36, 0
2, 302326, Note_on_c, 0, 60, 0
2, 302330, Note_on_c, 0, 48, 0
2, 302330, Note_on_c, 0, 53, 0
2, 302330, Note_on_c, 0, 84, 0
2, 302330, Note_on_c, 0, 89, 0
2, 302333, Note_on_c, 0, 93, 114
2, 302334, Note_on_c, 0, 81, 105
2, 302336, Note_on_c, 0, 84, 100
2, 302337, Note_on_c, 0, 53, 106
2, 302337, Note_on_c, 0, 89, 102
2, 302339, Note_on_c, 0, 48, 96
2, 302340, Note_on_c, 0, 41, 105
2, 302376, Control_c, 0, 64, 127
2, 302469, Note_on_c, 0, 53, 0
2, 302475, Note_on_c, 0, 53, 95
2, 302476, Note_on_c, 0, 41, 0
2, 302476, Note_on_c, 0, 48, 0
2, 302480, Note_on_c, 0, 48, 92
2, 302481, Note_on_c, 0, 41, 94
2, 302642, Note_on_c, 0, 65, 99
2, 302788, Note_on_c, 0, 60, 95
2, 302789, Note_on_c, 0, 57, 99
2, 302798, Note_on_c, 0, 70, 92
2, 302957, Note_on_c, 0, 72, 100
2, 302976, Note_on_c, 0, 60, 0
2, 302979, Note_on_c, 0, 60, 59
2, 303098, Note_on_c, 0, 65, 0
2, 303106, Note_on_c, 0, 53, 0
2, 303107, Note_on_c, 0, 65, 98
2, 303110, Note_on_c, 0, 53, 88
2, 303252, Note_on_c, 0, 60, 0
2, 303252, Note_on_c, 0, 65, 0
2, 303252, Note_on_c, 0, 70, 0
2, 303257, Note_on_c, 0, 77, 106
2, 303259, Note_on_c, 0, 65, 105
2, 303260, Note_on_c, 0, 60, 100
2, 303261, Note_on_c, 0, 70, 99
2, 303390, Note_on_c, 0, 57, 0
2, 303398, Note_on_c, 0, 72, 0
2, 303401, Note_on_c, 0, 57, 93
2, 303402, Note_on_c, 0, 72, 97
2, 303554, Control_c, 0, 64, 0
2, 303578, Note_on_c, 0, 89, 0
2, 303578, Note_on_c, 0, 91, 112
2, 303578, Note_on_c, 0, 79, 109
2, 303579, Note_on_c, 0, 52, 100
2, 303579, Note_on_c, 0, 93, 0
2, 303580, Note_on_c, 0, 40, 94
2, 303584, Note_on_c, 0, 60, 0
2, 303584, Note_on_c, 0, 84, 0
2, 303585, Note_on_c, 0, 70, 0
2, 303587, Note_on_c, 0, 65, 0
2, 303588, Note_on_c, 0, 41, 0
2, 303588, Note_on_c, 0, 53, 0
2, 303613, Control_c, 0, 64, 127
2, 303720, Note_on_c, 0, 48, 0
2, 303728, Note_on_c, 0, 48, 94
2, 303744, Note_on_c, 0, 77, 0
2, 303872, Note_on_c, 0, 52, 0
2, 303872, Note_on_c, 0, 40, 0
2, 303872, Control_c, 0, 64, 0
2, 303873, Note_on_c, 0, 79, 0
2, 303874, Note_on_c, 0, 91, 0
2, 303875, Note_on_c, 0, 48, 0
2, 303875, Note_on_c, 0, 72, 0
2, 303882, Note_on_c, 0, 57, 0
2, 303889, Note_on_c, 0, 81, 0
2, 303898, Note_on_c, 0, 89, 112
2, 303900, Note_on_c, 0, 81, 106
2, 303900, Note_on_c, 0, 84, 102
2, 303900, Note_on_c, 0, 77, 108
2, 303902, Note_on_c, 0, 50, 105
2, 303907, Note_on_c, 0, 38, 98
2, 303920, Control_c, 0, 64, 127
2, 304043, Note_on_c, 0, 38, 0
2, 304043, Note_on_c, 0, 50, 0
2, 304051, Note_on_c, 0, 38, 86
2, 304051, Note_on_c, 0, 50, 97
2, 304232, Note_on_c, 0, 91, 111
2, 304233, Note_on_c, 0, 79, 108
2, 304370, Note_on_c, 0, 60, 99
2, 304372, Note_on_c, 0, 57, 105
2, 304373, Note_on_c, 0, 53, 89
2, 304542, Note_on_c, 0, 81, 0
2, 304546, Note_on_c, 0, 93, 112
2, 304547, Note_on_c, 0, 81, 109
2, 304657, Note_on_c, 0, 50, 0
2, 304669, Note_on_c, 0, 50, 94
2, 304851, Control_c, 0, 64, 0
2, 304853, Note_on_c, 0, 81, 0
2, 304853, Note_on_c, 0, 93, 0
2, 304853, Note_on_c, 0, 38, 0
2, 304853, Note_on_c, 0, 53, 0
2, 304853, Note_on_c, 0, 91, 0
2, 304853, Note_on_c, 0, 77, 0
2, 304853, Note_on_c, 0, 79, 0
2, 304853, Note_on_c, 0, 50, 0
2, 304854, Note_on_c, 0, 57, 0
2, 304854, Note_on_c, 0, 60, 0
2, 304857, Note_on_c, 0, 84, 0
2, 304857, Note_on_c, 0, 89, 0
2, 304861, Note_on_c, 0, 89, 104
2, 304862, Note_on_c, 0, 84, 108
2, 304862, Note_on_c, 0, 96, 105
2, 304863, Note_on_c, 0, 46, 108
2, 304864, Note_on_c, 0, 34, 104
2, 304867, Note_on_c, 0, 94, 109
2, 304903, Control_c, 0, 64, 127
2, 305003, Note_on_c, 0, 34, 0
2, 305003, Note_on_c, 0, 46, 0
2, 305009, Note_on_c, 0, 34, 93
2, 305009, Note_on_c, 0, 46, 98
2, 305178, Note_on_c, 0, 65, 97
2, 305319, Note_on_c, 0, 60, 100
2, 305321, Note_on_c, 0, 53, 86
2, 305322, Note_on_c, 0, 58, 101
2, 305330, Note_on_c, 0, 70, 91
2, 305489, Note_on_c, 0, 72, 100
2, 305625, Note_on_c, 0, 46, 0
2, 305633, Note_on_c, 0, 65, 0
2, 305635, Note_on_c, 0, 46, 100
2, 305637, Note_on_c, 0, 65, 99
2, 305779, Note_on_c, 0, 58, 0
2, 305779, Note_on_c, 0, 60, 0
2, 305779, Note_on_c, 0, 65, 0
2, 305786, Note_on_c, 0, 70, 0
2, 305786, Note_on_c, 0, 72, 0
2, 305789, Note_on_c, 0, 77, 104
2, 305790, Note_on_c, 0, 65, 105
2, 305790, Note_on_c, 0, 58, 105
2, 305790, Note_on_c, 0, 60, 101
2, 305791, Note_on_c, 0, 70, 95
2, 305796, Note_on_c, 0, 72, 93
2, 305925, Note_on_c, 0, 72, 0
2, 305930, Note_on_c, 0, 72, 101
2, 305940, Note_on_c, 0, 53, 0
2, 305945, Note_on_c, 0, 53, 62
2, 306101, Note_on_c, 0, 46, 0
2, 306101, Note_on_c, 0, 77, 0
2, 306101, Note_on_c, 0, 89, 0
2, 306106, Note_on_c, 0, 89, 111
2, 306106, Note_on_c, 0, 46, 93
2, 306111, Note_on_c, 0, 77, 104
2, 306232, Note_on_c, 0, 53, 0
2, 306237, Note_on_c, 0, 53, 91
2, 306412, Control_c, 0, 64, 0
2, 306414, Note_on_c, 0, 96, 0
2, 306414, Note_on_c, 0, 58, 0
2, 306414, Note_on_c, 0, 60, 0
2, 306415, Note_on_c, 0, 72, 0
2, 306415, Note_on_c, 0, 77, 0
2, 306415, Note_on_c, 0, 53, 0
2, 306415, Note_on_c, 0, 70, 0
2, 306416, Note_on_c, 0, 46, 0
2, 306416, Note_on_c, 0, 89, 0
2, 306416, Note_on_c, 0, 84, 0
2, 306416, Note_on_c, 0, 94, 0
2, 306416, Note_on_c, 0, 65, 0
2, 306416, Note_on_c, 0, 34, 0
2, 306420, Note_on_c, 0, 91, 111
2, 306422, Note_on_c, 0, 79, 106
2, 306422, Note_on_c, 0, 84, 104
2, 306424, Note_on_c, 0, 48, 107
2, 306427, Note_on_c, 0, 88, 103
2, 306428, Note_on_c, 0, 36, 99
2, 306478, Control_c, 0, 64, 127
2, 306562, Note_on_c, 0, 36, 0
2, 306562, Note_on_c, 0, 48, 0
2, 306567, Note_on_c, 0, 48, 100
2, 306571, Note_on_c, 0, 36, 93
2, 306736, Note_on_c, 0, 93, 109
2, 306737, Note_on_c, 0, 81, 106
2, 306886, Note_on_c, 0, 60, 97
2, 306888, Note_on_c, 0, 55, 96
2, 306889, Note_on_c, 0, 53, 96
2, 307038, Note_on_c, 0, 79, 0
2, 307038, Note_on_c, 0, 91, 0
2, 307048, Note_on_c, 0, 91, 112
2, 307049, Note_on_c, 0, 79, 106
2, 307169, Note_on_c, 0, 48, 0
2, 307177, Note_on_c, 0, 48, 88
2, 307351, Note_on_c, 0, 93, 0
2, 307353, Note_on_c, 0, 53, 0
2, 307353, Note_on_c, 0, 81, 0
2, 307353, Note_on_c, 0, 84, 0
2, 307354, Control_c, 0, 64, 0
2, 307354, Note_on_c, 0, 36, 0
2, 307355, Note_on_c, 0, 88, 0
2, 307355, Note_on_c, 0, 79, 0
2, 307356, Note_on_c, 0, 55, 0
2, 307356, Note_on_c, 0, 60, 0
2, 307361, Note_on_c, 0, 89, 112
2, 307361, Note_on_c, 0, 53, 103
2, 307363, Note_on_c, 0, 81, 103
2, 307364, Note_on_c, 0, 77, 108
2, 307364, Note_on_c, 0, 84, 100
2, 307364, Note_on_c, 0, 41, 102
2, 307368, Note_on_c, 0, 91, 0
2, 307422, Control_c, 0, 64, 127
2, 307491, Note_on_c, 0, 41, 0
2, 307491, Note_on_c, 0, 53, 0
2, 307497, Note_on_c, 0, 41, 89
2, 307501, Note_on_c, 0, 53, 91
2, 307677, Note_on_c, 0, 65, 92
2, 307826, Note_on_c, 0, 57, 102
2, 307827, Note_on_c, 0, 60, 97
2, 307833, Note_on_c, 0, 70, 92
2, 307987, Note_on_c, 0, 72, 100
2, 308129, Note_on_c, 0, 65, 0
2, 308134, Note_on_c, 0, 65, 99
2, 308144, Note_on_c, 0, 53, 0
2, 308151, Note_on_c, 0, 53, 89
2, 308282, Note_on_c, 0, 72, 0
2, 308290, Note_on_c, 0, 60, 0
2, 308290, Note_on_c, 0, 70, 0
2, 308294, Note_on_c, 0, 72, 105
2, 308294, Note_on_c, 0, 70, 95
2, 308295, Note_on_c, 0, 60, 100
2, 308436, Note_on_c, 0, 57, 0
2, 308446, Note_on_c, 0, 57, 92
2, 308593, Note_on_c, 0, 76, 108
2, 308597, Note_on_c, 0, 67, 102
2, 308598, Note_on_c, 0, 64, 101
2, 308599, Note_on_c, 0, 52, 105
2, 308600, Note_on_c, 0, 40, 99
2, 308743, Note_on_c, 0, 48, 0
2, 308750, Note_on_c, 0, 48, 84
2, 308867, Control_c, 0, 64, 0
2, 308873, Note_on_c, 0, 84, 0
2, 308874, Note_on_c, 0, 41, 0
2, 308874, Note_on_c, 0, 53, 0
2, 308874, Note_on_c, 0, 77, 0
2, 308874, Note_on_c, 0, 81, 0
2, 308875, Note_on_c, 0, 57, 0
2, 308875, Note_on_c, 0, 65, 0
2, 308875, Note_on_c, 0, 60, 0
2, 308875, Note_on_c, 0, 70, 0
2, 308875, Note_on_c, 0, 52, 0
2, 308875, Note_on_c, 0, 40, 0
2, 308875, Note_on_c, 0, 48, 0
2, 308876, Note_on_c, 0, 72, 0
2, 308876, Note_on_c, 0, 64, 0
2, 308877, Note_on_c, 0, 67, 0
2, 308877, Note_on_c, 0, 76, 0
2, 308912, Note_on_c, 0, 89, 0
2, 308922, Note_on_c, 0, 89, 111
2, 308924, Note_on_c, 0, 50, 104
2, 308931, Note_on_c, 0, 38, 98
2, 308958, Control_c, 0, 64, 127
2, 309001, Note_on_c, 0, 88, 105
2, 309068, Note_on_c, 0, 84, 95
2, 309138, Note_on_c, 0, 77, 93
2, 309219, Note_on_c, 0, 50, 0
2, 309231, Note_on_c, 0, 50, 90
2, 309231, Note_on_c, 0, 76, 90
2, 309316, Note_on_c, 0, 72, 92
2, 309396, Note_on_c, 0, 77, 0
2, 309399, Note_on_c, 0, 60, 103
2, 309400, Note_on_c, 0, 57, 107
2, 309401, Note_on_c, 0, 53, 97
2, 309403, Note_on_c, 0, 77, 99
2, 309465, Note_on_c, 0, 76, 0
2, 309475, Note_on_c, 0, 76, 95
2, 309550, Note_on_c, 0, 72, 0
2, 309556, Note_on_c, 0, 72, 89
2, 309628, Note_on_c, 0, 65, 83
2, 309657, Note_on_c, 0, 50, 0
2, 309668, Note_on_c, 0, 50, 73
2, 309722, Note_on_c, 0, 64, 85
2, 309795, Note_on_c, 0, 60, 0
2, 309800, Note_on_c, 0, 60, 85
2, 309868, Note_on_c, 0, 53, 0
2, 309868, Note_on_c, 0, 88, 0
2, 309868, Note_on_c, 0, 64, 0
2, 309868, Note_on_c, 0, 60, 0
2, 309868, Note_on_c, 0, 57, 0
2, 309869, Note_on_c, 0, 84, 0
2, 309869, Note_on_c, 0, 72, 0
2, 309870, Control_c, 0, 64, 0
2, 309880, Note_on_c, 0, 65, 0
2, 309880, Note_on_c, 0, 89, 0
2, 309888, Note_on_c, 0, 38, 0
2, 309888, Note_on_c, 0, 50, 0
2, 309888, Note_on_c, 0, 76, 0
2, 309888, Note_on_c, 0, 77, 0
2, 309890, Note_on_c, 0, 65, 102
2, 309895, Note_on_c, 0, 46, 108
2, 309898, Note_on_c, 0, 34, 99
2, 309941, Control_c, 0, 64, 127
2, 309960, Note_on_c, 0, 64, 94
2, 310037, Note_on_c, 0, 60, 89
2, 310102, Note_on_c, 0, 53, 90
2, 310187, Note_on_c, 0, 58, 93
2, 310265, Note_on_c, 0, 57, 92
2, 310348, Note_on_c, 0, 46, 0
2, 310348, Note_on_c, 0, 58, 0
2, 310353, Note_on_c, 0, 58, 95
2, 310356, Note_on_c, 0, 46, 106
2, 310425, Note_on_c, 0, 60, 0
2, 310436, Note_on_c, 0, 60, 92
2, 310511, Note_on_c, 0, 62, 97
2, 310594, Note_on_c, 0, 60, 0
2, 310600, Note_on_c, 0, 60, 96
2, 310648, Note_on_c, 0, 53, 0
2, 310654, Note_on_c, 0, 53, 86
2, 310656, Note_on_c, 0, 62, 0
2, 310666, Note_on_c, 0, 62, 91
2, 310725, Note_on_c, 0, 64, 0
2, 310734, Note_on_c, 0, 64, 95
2, 310809, Note_on_c, 0, 58, 0
2, 310809, Note_on_c, 0, 60, 0
2, 310809, Note_on_c, 0, 65, 0
2, 310816, Note_on_c, 0, 60, 99
2, 310816, Note_on_c, 0, 65, 97
2, 310820, Note_on_c, 0, 58, 102
2, 310887, Note_on_c, 0, 67, 95
2, 310970, Note_on_c, 0, 69, 98
2, 310970, Note_on_c, 0, 53, 0
2, 310975, Note_on_c, 0, 53, 91
2, 311049, Note_on_c, 0, 70, 92
2, 311132, Note_on_c, 0, 58, 0
2, 311132, Note_on_c, 0, 62, 0
2, 311136, Note_on_c, 0, 58, 101
2, 311137, Note_on_c, 0, 72, 101
2, 311139, Note_on_c, 0, 62, 91
2, 311198, Note_on_c, 0, 74, 101
2, 311272, Note_on_c, 0, 76, 98
2, 311348, Note_on_c, 0, 77, 99
2, 311420, Note_on_c, 0, 60, 0
2, 311420, Note_on_c, 0, 58, 0
2, 311420, Note_on_c, 0, 62, 0
2, 311421, Note_on_c, 0, 72, 0
2, 311421, Note_on_c, 0, 76, 0
2, 311421, Note_on_c, 0, 67, 0
2, 311421, Note_on_c, 0, 74, 0
2, 311421, Note_on_c, 0, 57, 0
2, 311421, Note_on_c, 0, 69, 0
2, 311421, Note_on_c, 0, 70, 0
2, 311421, Note_on_c, 0, 65, 0
2, 311421, Control_c, 0, 64, 0
2, 311422, Note_on_c, 0, 46, 0
2, 311425, Note_on_c, 0, 77, 0
2, 311431, Note_on_c, 0, 34, 0
2, 311439, Note_on_c, 0, 53, 0
2, 311439, Note_on_c, 0, 64, 0
2, 311460, Note_on_c, 0, 91, 111
2, 311461, Note_on_c, 0, 48, 109
2, 311465, Note_on_c, 0, 36, 106
2, 311500, Control_c, 0, 64, 127
2, 311549, Note_on_c, 0, 89, 107
2, 311611, Note_on_c, 0, 84, 97
2, 311698, Note_on_c, 0, 79, 94
2, 311784, Note_on_c, 0, 48, 0
2, 311789, Note_on_c, 0, 77, 91
2, 311793, Note_on_c, 0, 48, 96
2, 311854, Note_on_c, 0, 72, 95
2, 311946, Note_on_c, 0, 79, 0
2, 311946, Note_on_c, 0, 60, 103
2, 311948, Note_on_c, 0, 53, 103
2, 311950, Note_on_c, 0, 55, 105
2, 311950, Note_on_c, 0, 79, 97
2, 312015, Note_on_c, 0, 77, 0
2, 312025, Note_on_c, 0, 77, 96
2, 312102, Note_on_c, 0, 76, 84
2, 312176, Note_on_c, 0, 72, 0
2, 312184, Note_on_c, 0, 72, 97
2, 312230, Note_on_c, 0, 48, 0
2, 312235, Note_on_c, 0, 48, 92
2, 312253, Note_on_c, 0, 76, 0
2, 312257, Note_on_c, 0, 76, 96
2, 312330, Note_on_c, 0, 79, 0
2, 312334, Note_on_c, 0, 79, 87
2, 312429, Note_on_c, 0, 89, 0
2, 312430, Note_on_c, 0, 48, 0
2, 312430, Note_on_c, 0, 53, 0
2, 312430, Note_on_c, 0, 76, 0
2, 312431, Note_on_c, 0, 79, 0
2, 312431, Note_on_c, 0, 60, 0
2, 312431, Note_on_c, 0, 84, 0
2, 312431, Note_on_c, 0, 55, 0
2, 312432, Note_on_c, 0, 91, 0
2, 312432, Note_on_c, 0, 72, 0
2, 312432, Note_on_c, 0, 36, 0
2, 312433, Note_on_c, 0, 93, 114
2, 312433, Control_c, 0, 64, 0
2, 312435, Note_on_c, 0, 41, 107
2, 312436, Note_on_c, 0, 53, 104
2, 312438, Note_on_c, 0, 48, 99
2, 312445, Note_on_c, 0, 77, 0
2, 312499, Control_c, 0, 64, 127
2, 312510, Note_on_c, 0, 91, 107
2, 312582, Note_on_c, 0, 89, 101
2, 312657, Note_on_c, 0, 84, 87
2, 312743, Note_on_c, 0, 81, 104
2, 312811, Note_on_c, 0, 79, 98
2, 312889, Note_on_c, 0, 77, 94
2, 312893, Note_on_c, 0, 60, 100
2, 312894, Note_on_c, 0, 57, 102
2, 312978, Note_on_c, 0, 72, 95
2, 313067, Note_on_c, 0, 70, 96
2, 313123, Note_on_c, 0, 69, 89
2, 313175, Note_on_c, 0, 53, 0
2, 313186, Note_on_c, 0, 53, 87
2, 313192, Note_on_c, 0, 67, 92
2, 313274, Note_on_c, 0, 69, 0
2, 313282, Note_on_c, 0, 69, 89
2, 313336, Note_on_c, 0, 60, 0
2, 313336, Note_on_c, 0, 70, 0
2, 313342, Note_on_c, 0, 60, 96
2, 313344, Note_on_c, 0, 57, 0
2, 313344, Note_on_c, 0, 65, 104
2, 313347, Note_on_c, 0, 70, 98
2, 313353, Note_on_c, 0, 57, 95
2, 313420, Note_on_c, 0, 72, 0
2, 313426, Note_on_c, 0, 72, 98
2, 313504, Note_on_c, 0, 74, 97
2, 313579, Note_on_c, 0, 76, 92
2, 313651, Note_on_c, 0, 60, 0
2, 313651, Note_on_c, 0, 77, 0
2, 313655, Note_on_c, 0, 77, 91
2, 313658, Note_on_c, 0, 60, 103
2, 313661, Note_on_c, 0, 55, 101
2, 313663, Note_on_c, 0, 52, 93
2, 313728, Note_on_c, 0, 81, 0
2, 313739, Note_on_c, 0, 81, 92
2, 313812, Note_on_c, 0, 84, 0
2, 313818, Note_on_c, 0, 84, 99
2, 313890, Note_on_c, 0, 88, 104
2, 313926, Note_on_c, 0, 53, 0
2, 313927, Note_on_c, 0, 93, 0
2, 313929, Note_on_c, 0, 84, 0
2, 313929, Note_on_c, 0, 41, 0
2, 313929, Note_on_c, 0, 60, 0
2, 313929, Note_on_c, 0, 52, 0
2, 313929, Note_on_c, 0, 69, 0
2, 313929, Note_on_c, 0, 67, 0
2, 313930, Note_on_c, 0, 77, 0
2, 313930, Note_on_c, 0, 48, 0
2, 313930, Note_on_c, 0, 74, 0
2, 313930, Note_on_c, 0, 57, 0
2, 313930, Note_on_c, 0, 72, 0
2, 313930, Note_on_c, 0, 91, 0
2, 313930, Note_on_c, 0, 79, 0
2, 313931, Note_on_c, 0, 55, 0
2, 313931, Note_on_c, 0, 89, 0
2, 313932, Note_on_c, 0, 76, 0
2, 313936, Control_c, 0, 64, 0
2, 313938, Note_on_c, 0, 88, 0
2, 313943, Note_on_c, 0, 65, 0
2, 313943, Note_on_c, 0, 81, 0
2, 313950, Note_on_c, 0, 70, 0
2, 313978, Note_on_c, 0, 50, 107
2, 313980, Note_on_c, 0, 38, 102
2, 313983, Note_on_c, 0, 89, 110
2, 314019, Control_c, 0, 64, 127
2, 314055, Note_on_c, 0, 88, 105
2, 314134, Note_on_c, 0, 84, 100
2, 314202, Note_on_c, 0, 77, 94
2, 314280, Note_on_c, 0, 50, 0
2, 314290, Note_on_c, 0, 50, 84
2, 314291, Note_on_c, 0, 76, 95
2, 314362, Note_on_c, 0, 72, 94
2, 314442, Note_on_c, 0, 77, 0
2, 314448, Note_on_c, 0, 60, 104
2, 314451, Note_on_c, 0, 57, 107
2, 314452, Note_on_c, 0, 53, 102
2, 314453, Note_on_c, 0, 77, 103
2, 314519, Note_on_c, 0, 76, 0
2, 314530, Note_on_c, 0, 76, 95
2, 314603, Note_on_c, 0, 72, 0
2, 314607, Note_on_c, 0, 72, 89
2, 314677, Note_on_c, 0, 65, 87
2, 314718, Note_on_c, 0, 50, 0
2, 314728, Note_on_c, 0, 50, 80
2, 314730, Note_on_c, 0, 62, 82
2, 314776, Note_on_c, 0, 64, 90
2, 314849, Note_on_c, 0, 60, 0
2, 314856, Note_on_c, 0, 60, 90
2, 314924, Note_on_c, 0, 89, 0
2, 314924, Note_on_c, 0, 88, 0
2, 314924, Note_on_c, 0, 64, 0
2, 314925, Note_on_c, 0, 53, 0
2, 314925, Note_on_c, 0, 84, 0
2, 314925, Note_on_c, 0, 60, 0
2, 314926, Note_on_c, 0, 65, 0
2, 314926, Note_on_c, 0, 76, 0
2, 314927, Note_on_c, 0, 57, 0
2, 314927, Control_c, 0, 64, 0
2, 314927, Note_on_c, 0, 72, 0
2, 314928, Note_on_c, 0, 62, 0
2, 314936, Note_on_c, 0, 46, 110
2, 314936, Note_on_c, 0, 65, 99
2, 314939, Note_on_c, 0, 34, 99
2, 314941, Note_on_c, 0, 38, 0
2, 314941, Note_on_c, 0, 50, 0
2, 314941, Note_on_c, 0, 77, 0
2, 314995, Control_c, 0, 64, 127
2, 315012, Note_on_c, 0, 64, 92
2, 315065, Note_on_c, 0, 60, 93
2, 315138, Note_on_c, 0, 53, 91
2, 315227, Note_on_c, 0, 58, 95
2, 315290, Note_on_c, 0, 57, 93
2, 315363, Note_on_c, 0, 46, 0
2, 315371, Note_on_c, 0, 58, 0
2, 315374, Note_on_c, 0, 46, 103
2, 315375, Note_on_c, 0, 58, 98
2, 315448, Note_on_c, 0, 60, 0
2, 315459, Note_on_c, 0, 60, 94
2, 315531, Note_on_c, 0, 62, 96
2, 315609, Note_on_c, 0, 60, 0
2, 315620, Note_on_c, 0, 60, 93
2, 315678, Note_on_c, 0, 53, 0
2, 315686, Note_on_c, 0, 62, 0
2, 315689, Note_on_c, 0, 53, 90
2, 315692, Note_on_c, 0, 62, 91
2, 315747, Note_on_c, 0, 64, 0
2, 315756, Note_on_c, 0, 64, 95
2, 315824, Note_on_c, 0, 58, 0
2, 315824, Note_on_c, 0, 60, 0
2, 315824, Note_on_c, 0, 65, 0
2, 315834, Note_on_c, 0, 60, 106
2, 315834, Note_on_c, 0, 58, 104
2, 315834, Note_on_c, 0, 65, 99
2, 315899, Note_on_c, 0, 67, 94
2, 315983, Note_on_c, 0, 69, 96
2, 315985, Note_on_c, 0, 53, 0
2, 315989, Note_on_c, 0, 53, 91
2, 316056, Note_on_c, 0, 70, 87
2, 316147, Note_on_c, 0, 58, 0
2, 316147, Note_on_c, 0, 62, 0
2, 316148, Note_on_c, 0, 72, 98
2, 316152, Note_on_c, 0, 58, 99
2, 316153, Note_on_c, 0, 62, 101
2, 316211, Note_on_c, 0, 74, 101
2, 316293, Note_on_c, 0, 74, 0
2, 316299, Note_on_c, 0, 76, 96
2, 316304, Note_on_c, 0, 74, 84
2, 316378, Note_on_c, 0, 77, 98
2, 316415, Control_c, 0, 64, 0
2, 316419, Note_on_c, 0, 60, 0
2, 316420, Note_on_c, 0, 58, 0
2, 316421, Note_on_c, 0, 62, 0
2, 316421, Note_on_c, 0, 76, 0
2, 316421, Note_on_c, 0, 53, 0
2, 316421, Note_on_c, 0, 67, 0
2, 316421, Note_on_c, 0, 70, 0
2, 316422, Note_on_c, 0, 69, 0
2, 316422, Note_on_c, 0, 74, 0
2, 316422, Note_on_c, 0, 57, 0
2, 316422, Note_on_c, 0, 72, 0
2, 316423, Note_on_c, 0, 46, 0
2, 316424, Note_on_c, 0, 65, 0
2, 316431, Note_on_c, 0, 34, 0
2, 316437, Note_on_c, 0, 77, 0
2, 316439, Note_on_c, 0, 64, 0
2, 316458, Note_on_c, 0, 91, 108
2, 316466, Note_on_c, 0, 48, 108
2, 316470, Note_on_c, 0, 36, 103
2, 316492, Control_c, 0, 64, 127
2, 316533, Note_on_c, 0, 89, 101
2, 316619, Note_on_c, 0, 84, 88
2, 316684, Note_on_c, 0, 79, 92
2, 316768, Note_on_c, 0, 77, 97
2, 316776, Note_on_c, 0, 48, 0
2, 316785, Note_on_c, 0, 48, 94
2, 316843, Note_on_c, 0, 72, 96
2, 316896, Control_c, 0, 64, 0
2, 316922, Note_on_c, 0, 79, 0
2, 316929, Note_on_c, 0, 79, 105
2, 316931, Note_on_c, 0, 60, 105
2, 316934, Note_on_c, 0, 53, 101
2, 316934, Note_on_c, 0, 55, 103
2, 316961, Control_c, 0, 64, 127
2, 316992, Note_on_c, 0, 77, 0
2, 317001, Note_on_c, 0, 77, 93
2, 317074, Note_on_c, 0, 76, 92
2, 317153, Note_on_c, 0, 72, 0
2, 317160, Note_on_c, 0, 72, 93
2, 317214, Note_on_c, 0, 48, 0
2, 317222, Note_on_c, 0, 76, 0
2, 317225, Note_on_c, 0, 48, 88
2, 317230, Note_on_c, 0, 76, 96
2, 317299, Note_on_c, 0, 79, 0
2, 317308, Note_on_c, 0, 79, 95
2, 317388, Control_c, 0, 64, 0
2, 317401, Note_on_c, 0, 84, 0
2, 317401, Note_on_c, 0, 60, 0
2, 317401, Note_on_c, 0, 48, 0
2, 317402, Note_on_c, 0, 55, 0
2, 317402, Note_on_c, 0, 77, 0
2, 317402, Note_on_c, 0, 36, 0
2, 317402, Note_on_c, 0, 91, 0
2, 317402, Note_on_c, 0, 76, 0
2, 317403, Note_on_c, 0, 72, 0
2, 317403, Note_on_c, 0, 79, 0
2, 317414, Note_on_c, 0, 89, 0
2, 317420, Note_on_c, 0, 89, 107
2, 317422, Note_on_c, 0, 53, 0
2, 317426, Note_on_c, 0, 53, 106
2, 317427, Note_on_c, 0, 41, 107
2, 317468, Control_c, 0, 64, 127
2, 317490, Note_on_c, 0, 88, 97
2, 317570, Note_on_c, 0, 84, 93
2, 317647, Note_on_c, 0, 79, 95
2, 317725, Note_on_c, 0, 77, 95
2, 317803, Note_on_c, 0, 76, 92
2, 317879, Note_on_c, 0, 60, 101
2, 317881, Note_on_c, 0, 57, 101
2, 317885, Note_on_c, 0, 72, 92
2, 317979, Note_on_c, 0, 70, 94
2, 318053, Note_on_c, 0, 69, 96
2, 318116, Note_on_c, 0, 67, 93
2, 318182, Note_on_c, 0, 53, 0
2, 318190, Note_on_c, 0, 69, 0
2, 318192, Note_on_c, 0, 53, 80
2, 318194, Note_on_c, 0, 69, 97
2, 318259, Note_on_c, 0, 70, 0
2, 318270, Note_on_c, 0, 70, 93
2, 318328, Note_on_c, 0, 72, 0
2, 318332, Note_on_c, 0, 72, 108
2, 318334, Note_on_c, 0, 65, 101
2, 318489, Note_on_c, 0, 60, 0
2, 318494, Note_on_c, 0, 60, 92
2, 318635, Note_on_c, 0, 76, 0
2, 318643, Note_on_c, 0, 67, 0
2, 318643, Note_on_c, 0, 72, 0
2, 318646, Note_on_c, 0, 76, 107
2, 318649, Note_on_c, 0, 72, 103
2, 318653, Note_on_c, 0, 67, 100
2, 318656, Note_on_c, 0, 52, 92
2, 318781, Note_on_c, 0, 60, 0
2, 318790, Note_on_c, 0, 60, 99
2, 318907, Control_c, 0, 64, 0
2, 318908, Note_on_c, 0, 77, 0
2, 318909, Note_on_c, 0, 89, 0
2, 318909, Note_on_c, 0, 72, 0
2, 318909, Note_on_c, 0, 57, 0
2, 318909, Note_on_c, 0, 65, 0
2, 318909, Note_on_c, 0, 60, 0
2, 318909, Note_on_c, 0, 69, 0
2, 318909, Note_on_c, 0, 53, 0
2, 318909, Note_on_c, 0, 88, 0
2, 318909, Note_on_c, 0, 70, 0
2, 318909, Note_on_c, 0, 67, 0
2, 318909, Note_on_c, 0, 84, 0
2, 318909, Note_on_c, 0, 79, 0
2, 318909, Note_on_c, 0, 52, 0
2, 318910, Note_on_c, 0, 76, 0
2, 318927, Note_on_c, 0, 41, 0
2, 318965, Control_c, 0, 64, 127
2, 318968, Note_on_c, 0, 60, 103
2, 318968, Note_on_c, 0, 77, 107
2, 318969, Note_on_c, 0, 69, 101
2, 318971, Note_on_c, 0, 72, 105
2, 318971, Note_on_c, 0, 57, 107
2, 318975, Note_on_c, 0, 50, 99
2, 319111, Note_on_c, 0, 57, 0
2, 319119, Note_on_c, 0, 50, 0
2, 319119, Note_on_c, 0, 60, 0
2, 319119, Note_on_c, 0, 69, 0
2, 319119, Note_on_c, 0, 57, 98
2, 319120, Note_on_c, 0, 76, 103
2, 319123, Note_on_c, 0, 50, 92
2, 319123, Note_on_c, 0, 60, 92
2, 319123, Note_on_c, 0, 69, 99
2, 319162, Control_c, 0, 64, 0
2, 319171, Note_on_c, 0, 60, 0
2, 319172, Note_on_c, 0, 72, 0
2, 319172, Note_on_c, 0, 57, 0
2, 319174, Note_on_c, 0, 50, 0
2, 319175, Note_on_c, 0, 69, 0
2, 319175, Note_on_c, 0, 77, 0
2, 319176, Note_on_c, 0, 76, 0
2, 319285, Note_on_c, 0, 77, 99
2, 319411, Note_on_c, 0, 77, 0
2, 319431, Note_on_c, 0, 72, 105
2, 319495, Note_on_c, 0, 72, 0
2, 319579, Note_on_c, 0, 65, 98
2, 319580, Note_on_c, 0, 77, 78
2, 319587, Note_on_c, 0, 77, 0
2, 319721, Note_on_c, 0, 60, 89
2, 319723, Note_on_c, 0, 50, 85
2, 319724, Note_on_c, 0, 57, 90
2, 319730, Note_on_c, 0, 72, 99
2, 319747, Note_on_c, 0, 60, 0
2, 319749, Note_on_c, 0, 65, 0
2, 319758, Note_on_c, 0, 50, 0
2, 319758, Note_on_c, 0, 65, 75
2, 319779, Note_on_c, 0, 57, 0
2, 319795, Note_on_c, 0, 72, 0
2, 319802, Note_on_c, 0, 65, 0
2, 319874, Note_on_c, 0, 77, 108
2, 319874, Note_on_c, 0, 65, 99
2, 319876, Note_on_c, 0, 70, 100
2, 319877, Note_on_c, 0, 46, 108
2, 319880, Note_on_c, 0, 34, 104
2, 319910, Control_c, 0, 64, 127
2, 320010, Note_on_c, 0, 70, 0
2, 320017, Note_on_c, 0, 65, 0
2, 320019, Note_on_c, 0, 76, 97
2, 320020, Note_on_c, 0, 70, 85
2, 320022, Note_on_c, 0, 65, 84
2, 320194, Note_on_c, 0, 77, 0
2, 320199, Note_on_c, 0, 77, 97
2, 320338, Note_on_c, 0, 60, 107
2, 320343, Note_on_c, 0, 72, 108
2, 320343, Note_on_c, 0, 53, 90
2, 320344, Note_on_c, 0, 58, 98
2, 320494, Note_on_c, 0, 65, 0
2, 320498, Note_on_c, 0, 65, 92
2, 320640, Note_on_c, 0, 70, 0
2, 320647, Note_on_c, 0, 46, 0
2, 320647, Note_on_c, 0, 58, 0
2, 320651, Note_on_c, 0, 70, 98
2, 320651, Note_on_c, 0, 58, 90
2, 320652, Note_on_c, 0, 46, 93
2, 320801, Note_on_c, 0, 72, 0
2, 320808, Note_on_c, 0, 46, 0
2, 320808, Note_on_c, 0, 53, 0
2, 320808, Note_on_c, 0, 58, 0
2, 320808, Note_on_c, 0, 60, 0
2, 320808, Note_on_c, 0, 70, 0
2, 320812, Note_on_c, 0, 72, 107
2, 320813, Note_on_c, 0, 60, 101
2, 320813, Note_on_c, 0, 53, 84
2, 320818, Note_on_c, 0, 58, 104
2, 320818, Note_on_c, 0, 46, 99
2, 320820, Note_on_c, 0, 70, 95
2, 320954, Note_on_c, 0, 65, 0
2, 320963, Note_on_c, 0, 65, 91
2, 321108, Note_on_c, 0, 46, 0
2, 321108, Note_on_c, 0, 72, 0
2, 321116, Note_on_c, 0, 70, 0
2, 321116, Note_on_c, 0, 77, 0
2, 321118, Note_on_c, 0, 46, 102
2, 321119, Note_on_c, 0, 72, 106
2, 321120, Note_on_c, 0, 58, 0
2, 321120, Note_on_c, 0, 53, 0
2, 321120, Note_on_c, 0, 77, 101
2, 321126, Note_on_c, 0, 70, 93
2, 321277, Note_on_c, 0, 65, 0
2, 321281, Note_on_c, 0, 65, 79
2, 321384, Control_c, 0, 64, 0
2, 321402, Note_on_c, 0, 34, 0
2, 321403, Note_on_c, 0, 65, 0
2, 321404, Note_on_c, 0, 70, 0
2, 321404, Note_on_c, 0, 77, 0
2, 321404, Note_on_c, 0, 46, 0
2, 321404, Note_on_c, 0, 72, 0
2, 321404, Note_on_c, 0, 76, 0
2, 321431, Note_on_c, 0, 60, 0
2, 321436, Note_on_c, 0, 60, 104
2, 321437, Note_on_c, 0, 79, 107
2, 321441, Note_on_c, 0, 48, 101
2, 321441, Note_on_c, 0, 55, 101
2, 321442, Note_on_c, 0, 72, 99
2, 321443, Note_on_c, 0, 67, 99
2, 321444, Note_on_c, 0, 53, 92
2, 321469, Control_c, 0, 64, 127
2, 321584, Note_on_c, 0, 48, 0
2, 321584, Note_on_c, 0, 55, 0
2, 321584, Note_on_c, 0, 60, 0
2, 321588, Note_on_c, 0, 60, 98
2, 321588, Note_on_c, 0, 77, 97
2, 321592, Note_on_c, 0, 53, 0
2, 321592, Note_on_c, 0, 48, 93
2, 321595, Note_on_c, 0, 55, 95
2, 321596, Note_on_c, 0, 53, 93
2, 321640, Control_c, 0, 64, 0
2, 321669, Note_on_c, 0, 60, 0
2, 321672, Note_on_c, 0, 53, 0
2, 321672, Note_on_c, 0, 72, 0
2, 321672, Note_on_c, 0, 55, 0
2, 321672, Note_on_c, 0, 79, 0
2, 321673, Note_on_c, 0, 48, 0
2, 321673, Note_on_c, 0, 77, 0
2, 321692, Note_on_c, 0, 67, 0
2, 321750, Note_on_c, 0, 79, 104
2, 321902, Note_on_c, 0, 72, 106
2, 321976, Note_on_c, 0, 79, 0
2, 322039, Note_on_c, 0, 67, 101
2, 322068, Note_on_c, 0, 72, 0
2, 322099, Note_on_c, 0, 67, 0
2, 322196, Note_on_c, 0, 60, 91
2, 322197, Note_on_c, 0, 48, 83
2, 322199, Note_on_c, 0, 53, 84
2, 322201, Note_on_c, 0, 72, 103
2, 322202, Note_on_c, 0, 55, 81
2, 322226, Note_on_c, 0, 60, 0
2, 322233, Note_on_c, 0, 48, 0
2, 322233, Note_on_c, 0, 53, 0
2, 322243, Note_on_c, 0, 55, 0
2, 322275, Note_on_c, 0, 72, 0
2, 322355, Note_on_c, 0, 81, 106
2, 322356, Note_on_c, 0, 72, 100
2, 322356, Note_on_c, 0, 69, 103
2, 322358, Note_on_c, 0, 48, 102
2, 322358, Note_on_c, 0, 55, 104
2, 322359, Note_on_c, 0, 41, 100
2, 322360, Note_on_c, 0, 53, 103
2, 322375, Control_c, 0, 64, 127
2, 322495, Note_on_c, 0, 79, 87
2, 322659, Note_on_c, 0, 81, 0
2, 322664, Note_on_c, 0, 81, 99
2, 322821, Note_on_c, 0, 72, 0
2, 322824, Note_on_c, 0, 60, 103
2, 322828, Note_on_c, 0, 57, 102
2, 322830, Note_on_c, 0, 72, 99
2, 322990, Note_on_c, 0, 69, 0
2, 322995, Note_on_c, 0, 69, 97
2, 323120, Note_on_c, 0, 53, 0
2, 323132, Note_on_c, 0, 53, 88
2, 323143, Note_on_c, 0, 72, 0
2, 323154, Note_on_c, 0, 72, 96
2, 323289, Note_on_c, 0, 81, 0
2, 323297, Note_on_c, 0, 53, 0
2, 323297, Note_on_c, 0, 60, 0
2, 323297, Note_on_c, 0, 72, 0
2, 323299, Note_on_c, 0, 81, 106
2, 323301, Note_on_c, 0, 60, 100
2, 323301, Note_on_c, 0, 77, 99
2, 323301, Note_on_c, 0, 72, 100
2, 323302, Note_on_c, 0, 65, 101
2, 323303, Note_on_c, 0, 53, 85
2, 323466, Note_on_c, 0, 69, 0
2, 323471, Note_on_c, 0, 69, 91
2, 323612, Note_on_c, 0, 55, 0
2, 323612, Note_on_c, 0, 60, 0
2, 323612, Note_on_c, 0, 72, 0
2, 323612, Note_on_c, 0, 79, 0
2, 323619, Note_on_c, 0, 79, 103
2, 323621, Note_on_c, 0, 55, 97
2, 323622, Note_on_c, 0, 60, 97
2, 323623, Note_on_c, 0, 72, 101
2, 323623, Note_on_c, 0, 52, 92
2, 323631, Note_on_c, 0, 76, 82
2, 323642, Note_on_c, 0, 76, 0
2, 323751, Note_on_c, 0, 67, 93
2, 323892, Note_on_c, 0, 81, 0
2, 323894, Note_on_c, 0, 72, 0
2, 323896, Note_on_c, 0, 79, 0
2, 323897, Note_on_c, 0, 41, 0
2, 323898, Note_on_c, 0, 48, 0
2, 323898, Note_on_c, 0, 53, 0
2, 323898, Note_on_c, 0, 52, 0
2, 323899, Note_on_c, 0, 55, 0
2, 323900, Note_on_c, 0, 67, 0
2, 323900, Control_c, 0, 64, 0
2, 323919, Note_on_c, 0, 57, 0
2, 323919, Note_on_c, 0, 60, 0
2, 323919, Note_on_c, 0, 65, 0
2, 323919, Note_on_c, 0, 69, 0
2, 323919, Note_on_c, 0, 77, 0
2, 323926, Note_on_c, 0, 69, 106
2, 323928, Note_on_c, 0, 60, 100
2, 323928, Note_on_c, 0, 65, 104
2, 323928, Note_on_c, 0, 77, 109
2, 323929, Note_on_c, 0, 57, 107
2, 323931, Note_on_c, 0, 50, 98
2, 323957, Control_c, 0, 64, 127
2, 324080, Note_on_c, 0, 50, 0
2, 324080, Note_on_c, 0, 57, 0
2, 324080, Note_on_c, 0, 60, 0
2, 324080, Note_on_c, 0, 65, 0
2, 324084, Note_on_c, 0, 60, 91
2, 324085, Control_c, 0, 64, 0
2, 324085, Note_on_c, 0, 50, 91
2, 324091, Note_on_c, 0, 65, 100
2, 324092, Note_on_c, 0, 57, 93
2, 324092, Note_on_c, 0, 76, 101
2, 324155, Note_on_c, 0, 69, 0
2, 324156, Note_on_c, 0, 60, 0
2, 324157, Note_on_c, 0, 77, 0
2, 324158, Note_on_c, 0, 50, 0
2, 324159, Note_on_c, 0, 65, 0
2, 324159, Note_on_c, 0, 57, 0
2, 324159, Note_on_c, 0, 76, 0
2, 324234, Note_on_c, 0, 77, 99
2, 324311, Note_on_c, 0, 77, 0
2, 324387, Note_on_c, 0, 72, 106
2, 324480, Note_on_c, 0, 72, 0
2, 324535, Note_on_c, 0, 77, 78
2, 324536, Note_on_c, 0, 65, 98
2, 324556, Note_on_c, 0, 77, 0
2, 324683, Note_on_c, 0, 60, 94
2, 324684, Note_on_c, 0, 72, 103
2, 324686, Note_on_c, 0, 57, 97
2, 324687, Note_on_c, 0, 65, 0
2, 324690, Note_on_c, 0, 50, 92
2, 324715, Note_on_c, 0, 57, 0
2, 324730, Note_on_c, 0, 72, 0
2, 324733, Note_on_c, 0, 60, 0
2, 324748, Note_on_c, 0, 50, 0
2, 324835, Note_on_c, 0, 77, 106
2, 324836, Note_on_c, 0, 65, 104
2, 324836, Note_on_c, 0, 46, 110
2, 324838, Note_on_c, 0, 70, 99
2, 324839, Note_on_c, 0, 34, 102
2, 324871, Control_c, 0, 64, 127
2, 324971, Note_on_c, 0, 70, 0
2, 324978, Note_on_c, 0, 76, 94
2, 324979, Note_on_c, 0, 65, 0
2, 324981, Note_on_c, 0, 70, 95
2, 324983, Note_on_c, 0, 65, 96
2, 325148, Note_on_c, 0, 77, 0
2, 325157, Note_on_c, 0, 77, 96
2, 325309, Note_on_c, 0, 60, 106
2, 325311, Note_on_c, 0, 72, 107
2, 325312, Note_on_c, 0, 53, 92
2, 325313, Note_on_c, 0, 58, 98
2, 325447, Note_on_c, 0, 65, 0
2, 325457, Note_on_c, 0, 65, 93
2, 325601, Note_on_c, 0, 46, 0
2, 325601, Note_on_c, 0, 70, 0
2, 325610, Note_on_c, 0, 70, 93
2, 325610, Note_on_c, 0, 46, 93
2, 325754, Note_on_c, 0, 60, 0
2, 325754, Note_on_c, 0, 72, 0
2, 325762, Note_on_c, 0, 53, 0
2, 325762, Note_on_c, 0, 58, 0
2, 325762, Note_on_c, 0, 70, 0
2, 325765, Note_on_c, 0, 72, 109
2, 325765, Note_on_c, 0, 60, 104
2, 325767, Note_on_c, 0, 53, 88
2, 325767, Note_on_c, 0, 58, 103
2, 325773, Note_on_c, 0, 70, 95
2, 325893, Note_on_c, 0, 65, 0
2, 325902, Note_on_c, 0, 65, 89
2, 326062, Note_on_c, 0, 46, 0
2, 326062, Note_on_c, 0, 72, 0
2, 326066, Note_on_c, 0, 46, 100
2, 326068, Note_on_c, 0, 58, 0
2, 326069, Note_on_c, 0, 70, 0
2, 326069, Note_on_c, 0, 77, 0
2, 326072, Note_on_c, 0, 72, 104
2, 326073, Note_on_c, 0, 70, 95
2, 326074, Note_on_c, 0, 77, 102
2, 326192, Note_on_c, 0, 65, 0
2, 326200, Note_on_c, 0, 65, 96
2, 326327, Control_c, 0, 64, 0
2, 326342, Note_on_c, 0, 34, 0
2, 326344, Note_on_c, 0, 65, 0
2, 326345, Note_on_c, 0, 77, 0
2, 326345, Note_on_c, 0, 76, 0
2, 326345, Note_on_c, 0, 70, 0
2, 326346, Note_on_c, 0, 46, 0
2, 326369, Note_on_c, 0, 53, 0
2, 326376, Note_on_c, 0, 60, 0
2, 326376, Note_on_c, 0, 72, 0
2, 326385, Note_on_c, 0, 60, 104
2, 326385, Note_on_c, 0, 79, 103
2, 326386, Note_on_c, 0, 72, 105
2, 326388, Note_on_c, 0, 48, 96
2, 326389, Note_on_c, 0, 55, 100
2, 326389, Note_on_c, 0, 53, 93
2, 326389, Note_on_c, 0, 67, 99
2, 326415, Control_c, 0, 64, 127
2, 326530, Note_on_c, 0, 48, 0
2, 326530, Note_on_c, 0, 53, 0
2, 326530, Note_on_c, 0, 55, 0
2, 326530, Note_on_c, 0, 60, 0
2, 326530, Note_on_c, 0, 72, 0
2, 326535, Note_on_c, 0, 60, 98
2, 326535, Note_on_c, 0, 72, 102
2, 326539, Note_on_c, 0, 53, 91
2, 326540, Note_on_c, 0, 55, 87
2, 326540, Note_on_c, 0, 77, 104
2, 326541, Note_on_c, 0, 48, 86
2, 326549, Note_on_c, 0, 67, 0
2, 326590, Control_c, 0, 64, 0
2, 326638, Note_on_c, 0, 55, 0
2, 326639, Note_on_c, 0, 48, 0
2, 326639, Note_on_c, 0, 53, 0
2, 326640, Note_on_c, 0, 60, 0
2, 326641, Note_on_c, 0, 79, 0
2, 326641, Note_on_c, 0, 72, 0
2, 326642, Note_on_c, 0, 77, 0
2, 326694, Note_on_c, 0, 79, 103
2, 326848, Note_on_c, 0, 72, 106
2, 326882, Note_on_c, 0, 72, 0
2, 326929, Note_on_c, 0, 79, 0
2, 326987, Note_on_c, 0, 67, 101
2, 327128, Note_on_c, 0, 60, 89
2, 327129, Note_on_c, 0, 67, 0
2, 327134, Note_on_c, 0, 53, 79
2, 327135, Note_on_c, 0, 48, 84
2, 327135, Note_on_c, 0, 55, 79
2, 327137, Note_on_c, 0, 72, 102
2, 327178, Note_on_c, 0, 53, 0
2, 327191, Note_on_c, 0, 55, 0
2, 327191, Note_on_c, 0, 60, 0
2, 327198, Note_on_c, 0, 48, 0
2, 327206, Note_on_c, 0, 72, 0
2, 327292, Note_on_c, 0, 77, 108
2, 327294, Note_on_c, 0, 69, 106
2, 327295, Note_on_c, 0, 72, 99
2, 327299, Note_on_c, 0, 41, 108
2, 327301, Note_on_c, 0, 48, 103
2, 327301, Note_on_c, 0, 53, 106
2, 327321, Control_c, 0, 64, 127
2, 327444, Note_on_c, 0, 76, 98
2, 327513, Note_on_c, 0, 69, 0
2, 327522, Note_on_c, 0, 69, 77
2, 327598, Note_on_c, 0, 77, 0
2, 327608, Note_on_c, 0, 77, 97
2, 327756, Note_on_c, 0, 60, 95
2, 327757, Note_on_c, 0, 57, 97
2, 327759, Note_on_c, 0, 55, 94
2, 327926, Note_on_c, 0, 65, 97
2, 328066, Note_on_c, 0, 53, 0
2, 328075, Note_on_c, 0, 67, 97
2, 328076, Note_on_c, 0, 53, 94
2, 328220, Note_on_c, 0, 60, 0
2, 328220, Note_on_c, 0, 69, 0
2, 328220, Note_on_c, 0, 72, 0
2, 328224, Note_on_c, 0, 60, 100
2, 328224, Note_on_c, 0, 72, 107
2, 328227, Note_on_c, 0, 55, 0
2, 328227, Note_on_c, 0, 57, 0
2, 328227, Note_on_c, 0, 67, 0
2, 328230, Note_on_c, 0, 69, 89
2, 328232, Note_on_c, 0, 57, 95
2, 328236, Note_on_c, 0, 55, 90
2, 328237, Note_on_c, 0, 67, 89
2, 328366, Note_on_c, 0, 53, 0
2, 328375, Note_on_c, 0, 53, 89
2, 328519, Note_on_c, 0, 76, 0
2, 328527, Note_on_c, 0, 67, 0
2, 328527, Note_on_c, 0, 72, 0
2, 328530, Note_on_c, 0, 76, 108
2, 328531, Note_on_c, 0, 72, 102
2, 328532, Note_on_c, 0, 52, 94
2, 328532, Note_on_c, 0, 67, 96
2, 328535, Note_on_c, 0, 55, 0
2, 328540, Note_on_c, 0, 55, 88
2, 328657, Note_on_c, 0, 60, 0
2, 328663, Note_on_c, 0, 60, 81
2, 328857, Note_on_c, 0, 60, 0
2, 328857, Note_on_c, 0, 72, 0
2, 328857, Note_on_c, 0, 77, 0
2, 328865, Note_on_c, 0, 65, 0
2, 328865, Note_on_c, 0, 69, 0
2, 328865, Note_on_c, 0, 77, 106
2, 328866, Note_on_c, 0, 60, 97
2, 328868, Note_on_c, 0, 50, 96
2, 328868, Note_on_c, 0, 72, 101
2, 328869, Note_on_c, 0, 65, 100
2, 328870, Note_on_c, 0, 69, 99
2, 328887, Note_on_c, 0, 41, 0
2, 328887, Note_on_c, 0, 48, 0
2, 328889, Note_on_c, 0, 52, 0
2, 328889, Note_on_c, 0, 67, 0
2, 328890, Note_on_c, 0, 57, 0
2, 328890, Note_on_c, 0, 55, 0
2, 328890, Control_c, 0, 64, 0
2, 328911, Note_on_c, 0, 76, 0
2, 329049, Control_c, 0, 64, 127
2, 329190, Note_on_c, 0, 67, 96
2, 329326, Note_on_c, 0, 60, 0
2, 329331, Note_on_c, 0, 60, 73
2, 329343, Note_on_c, 0, 57, 71
2, 329495, Note_on_c, 0, 69, 0
2, 329503, Note_on_c, 0, 69, 100
2, 329802, Note_on_c, 0, 53, 0
2, 329809, Note_on_c, 0, 60, 0
2, 329809, Note_on_c, 0, 72, 0
2, 329811, Note_on_c, 0, 53, 77
2, 329820, Note_on_c, 0, 72, 102
2, 329821, Note_on_c, 0, 60, 87
2, 329821, Note_on_c, 0, 58, 86
2, 329822, Note_on_c, 0, 46, 87
2, 329825, Note_on_c, 0, 65, 0
2, 329831, Note_on_c, 0, 65, 80
2, 329836, Note_on_c, 0, 70, 86
2, 329845, Note_on_c, 0, 67, 0
2, 329847, Note_on_c, 0, 69, 0
2, 329847, Note_on_c, 0, 57, 0
2, 329852, Control_c, 0, 64, 0
2, 329856, Note_on_c, 0, 77, 0
2, 329994, Control_c, 0, 64, 127
2, 330301, Note_on_c, 0, 58, 0
2, 330301, Note_on_c, 0, 60, 0
2, 330305, Note_on_c, 0, 60, 78
2, 330310, Note_on_c, 0, 58, 76
2, 330608, Note_on_c, 0, 53, 0
2, 330616, Note_on_c, 0, 53, 73
2, 330785, Note_on_c, 0, 72, 0
2, 330788, Note_on_c, 0, 84, 92
2, 330790, Note_on_c, 0, 72, 96
2, 330792, Note_on_c, 0, 58, 0
2, 330792, Note_on_c, 0, 60, 0
2, 330792, Note_on_c, 0, 65, 0
2, 330792, Note_on_c, 0, 84, 0
2, 330796, Note_on_c, 0, 77, 79
2, 330797, Note_on_c, 0, 65, 91
2, 330798, Note_on_c, 0, 60, 76
2, 330800, Note_on_c, 0, 77, 0
2, 330803, Note_on_c, 0, 58, 73
2, 331092, Note_on_c, 0, 53, 0
2, 331102, Note_on_c, 0, 53, 65
2, 331430, Note_on_c, 0, 60, 0
2, 331430, Note_on_c, 0, 79, 101
2, 331433, Note_on_c, 0, 48, 76
2, 331437, Note_on_c, 0, 60, 79
2, 331438, Note_on_c, 0, 72, 0
2, 331441, Note_on_c, 0, 76, 87
2, 331442, Note_on_c, 0, 72, 83
2, 331443, Note_on_c, 0, 70, 0
2, 331443, Note_on_c, 0, 67, 85
2, 331445, Note_on_c, 0, 55, 77
2, 331445, Note_on_c, 0, 53, 0
2, 331446, Note_on_c, 0, 46, 0
2, 331446, Note_on_c, 0, 58, 0
2, 331447, Note_on_c, 0, 50, 0
2, 331447, Note_on_c, 0, 65, 0
2, 331449, Control_c, 0, 64, 0
2, 331560, Control_c, 0, 64, 127
2, 331759, Note_on_c, 0, 65, 78
2, 331914, Note_on_c, 0, 60, 0
2, 331917, Note_on_c, 0, 64, 74
2, 331923, Note_on_c, 0, 60, 58
2, 331937, Note_on_c, 0, 55, 0
2, 331945, Note_on_c, 0, 55, 63
2, 332075, Note_on_c, 0, 67, 0
2, 332080, Note_on_c, 0, 67, 76
2, 332397, Note_on_c, 0, 69, 84
2, 332398, Note_on_c, 0, 48, 0
2, 332398, Note_on_c, 0, 65, 0
2, 332401, Note_on_c, 0, 41, 65
2, 332402, Note_on_c, 0, 65, 74
2, 332403, Note_on_c, 0, 48, 63
2, 332403, Note_on_c, 0, 57, 69
2, 332409, Control_c, 0, 64, 0
2, 332419, Note_on_c, 0, 72, 0
2, 332423, Note_on_c, 0, 55, 0
2, 332423, Note_on_c, 0, 67, 0
2, 332423, Note_on_c, 0, 64, 0
2, 332423, Note_on_c, 0, 60, 0
2, 332423, Note_on_c, 0, 79, 0
2, 332424, Note_on_c, 0, 76, 0
2, 332544, Control_c, 0, 64, 127
2, 332861, Note_on_c, 0, 60, 69
2, 332874, Note_on_c, 0, 57, 0
2, 332878, Note_on_c, 0, 57, 61
2, 333194, Note_on_c, 0, 53, 68
2, 333382, Note_on_c, 0, 79, 79
2, 333383, Note_on_c, 0, 84, 89
2, 333383, Note_on_c, 0, 67, 83
2, 333384, Note_on_c, 0, 72, 80
2, 333704, Note_on_c, 0, 52, 68
2, 334018, Note_on_c, 0, 60, 0
2, 334020, Note_on_c, 0, 77, 92
2, 334026, Note_on_c, 0, 57, 0
2, 334029, Note_on_c, 0, 60, 74
2, 334029, Note_on_c, 0, 50, 74
2, 334030, Note_on_c, 0, 57, 74
2, 334033, Note_on_c, 0, 65, 0
2, 334033, Note_on_c, 0, 72, 0
2, 334037, Note_on_c, 0, 72, 73
2, 334043, Note_on_c, 0, 65, 85
2, 334057, Control_c, 0, 64, 0
2, 334060, Note_on_c, 0, 41, 0
2, 334061, Note_on_c, 0, 84, 0
2, 334062, Note_on_c, 0, 52, 0
2, 334062, Note_on_c, 0, 69, 0
2, 334063, Note_on_c, 0, 67, 0
2, 334072, Note_on_c, 0, 79, 0
2, 334087, Note_on_c, 0, 48, 0
2, 334156, Control_c, 0, 64, 127
2, 334361, Note_on_c, 0, 67, 80
2, 334487, Note_on_c, 0, 60, 0
2, 334498, Note_on_c, 0, 60, 74
2, 334502, Note_on_c, 0, 57, 0
2, 334505, Note_on_c, 0, 69, 68
2, 334512, Note_on_c, 0, 57, 71
2, 334671, Note_on_c, 0, 69, 0
2, 334676, Note_on_c, 0, 69, 94
2, 334978, Note_on_c, 0, 53, 0
2, 334984, Note_on_c, 0, 53, 67
2, 334986, Note_on_c, 0, 72, 0
2, 334991, Note_on_c, 0, 46, 80
2, 334993, Note_on_c, 0, 60, 0
2, 334996, Note_on_c, 0, 72, 97
2, 335001, Note_on_c, 0, 65, 0
2, 335002, Note_on_c, 0, 60, 72
2, 335003, Note_on_c, 0, 58, 76
2, 335005, Note_on_c, 0, 65, 71
2, 335010, Note_on_c, 0, 70, 81
2, 335035, Control_c, 0, 64, 0
2, 335038, Note_on_c, 0, 57, 0
2, 335038, Note_on_c, 0, 67, 0
2, 335039, Note_on_c, 0, 50, 0
2, 335041, Note_on_c, 0, 69, 0
2, 335041, Note_on_c, 0, 77, 0
2, 335139, Control_c, 0, 64, 127
2, 335477, Note_on_c, 0, 58, 0
2, 335477, Note_on_c, 0, 60, 0
2, 335483, Note_on_c, 0, 60, 63
2, 335486, Note_on_c, 0, 58, 61
2, 335800, Note_on_c, 0, 53, 0
2, 335811, Note_on_c, 0, 53, 65
2, 335976, Note_on_c, 0, 60, 0
2, 335976, Note_on_c, 0, 72, 0
2, 335980, Note_on_c, 0, 84, 87
2, 335984, Note_on_c, 0, 58, 0
2, 335984, Note_on_c, 0, 65, 0
2, 335987, Note_on_c, 0, 72, 81
2, 335988, Note_on_c, 0, 60, 68
2, 335989, Note_on_c, 0, 58, 61
2, 335989, Note_on_c, 0, 77, 70
2, 335989, Note_on_c, 0, 65, 81
2, 336291, Note_on_c, 0, 53, 0
2, 336298, Note_on_c, 0, 53, 67
2, 336619, Note_on_c, 0, 48, 69
2, 336620, Note_on_c, 0, 79, 95
2, 336622, Note_on_c, 0, 72, 0
2, 336630, Note_on_c, 0, 72, 78
2, 336631, Note_on_c, 0, 55, 70
2, 336631, Note_on_c, 0, 76, 79
2, 336633, Note_on_c, 0, 67, 86
2, 336634, Control_c, 0, 64, 0
2, 336664, Note_on_c, 0, 70, 0
2, 336670, Note_on_c, 0, 53, 0
2, 336671, Note_on_c, 0, 58, 0
2, 336671, Note_on_c, 0, 65, 0
2, 336672, Note_on_c, 0, 46, 0
2, 336675, Note_on_c, 0, 84, 0
2, 336691, Note_on_c, 0, 77, 0
2, 336744, Note_on_c, 0, 60, 0
2, 336775, Control_c, 0, 64, 127
2, 336961, Note_on_c, 0, 69, 78
2, 337102, Note_on_c, 0, 60, 53
2, 337112, Note_on_c, 0, 64, 62
2, 337274, Note_on_c, 0, 67, 0
2, 337279, Note_on_c, 0, 67, 82
2, 337597, Note_on_c, 0, 60, 0
2, 337605, Note_on_c, 0, 72, 0
2, 337608, Note_on_c, 0, 53, 64
2, 337608, Note_on_c, 0, 60, 62
2, 337609, Note_on_c, 0, 77, 82
2, 337614, Note_on_c, 0, 57, 59
2, 337615, Note_on_c, 0, 72, 73
2, 337616, Note_on_c, 0, 65, 76
2, 337644, Control_c, 0, 64, 0
2, 337654, Note_on_c, 0, 48, 0
2, 337655, Note_on_c, 0, 69, 0
2, 337655, Note_on_c, 0, 55, 0
2, 337655, Note_on_c, 0, 64, 0
2, 337655, Note_on_c, 0, 76, 0
2, 337655, Note_on_c, 0, 67, 0
2, 337656, Note_on_c, 0, 79, 0
2, 337751, Control_c, 0, 64, 127
2, 338112, Note_on_c, 0, 60, 0
2, 338116, Note_on_c, 0, 60, 69
2, 338419, Note_on_c, 0, 65, 0
2, 338429, Note_on_c, 0, 65, 61
2, 338589, Note_on_c, 0, 67, 78
2, 338591, Note_on_c, 0, 64, 72
2, 338887, Note_on_c, 0, 72, 0
2, 338893, Note_on_c, 0, 72, 80
2, 339240, Note_on_c, 0, 77, 0
2, 339247, Note_on_c, 0, 77, 84
2, 339248, Note_on_c, 0, 65, 0
2, 339251, Note_on_c, 0, 62, 55
2, 339253, Note_on_c, 0, 65, 52
2, 339258, Note_on_c, 0, 69, 60
2, 339267, Control_c, 0, 64, 0
2, 339270, Note_on_c, 0, 64, 0
2, 339271, Note_on_c, 0, 57, 0
2, 339273, Note_on_c, 0, 72, 0
2, 339273, Note_on_c, 0, 53, 0
2, 339273, Note_on_c, 0, 60, 0
2, 339273, Note_on_c, 0, 67, 0
2, 339409, Control_c, 0, 64, 127
2, 339573, Note_on_c, 0, 79, 84
2, 339909, Note_on_c, 0, 81, 77
2, 340231, Note_on_c, 0, 65, 0
2, 340239, Note_on_c, 0, 77, 0
2, 340242, Note_on_c, 0, 65, 46
2, 340244, Note_on_c, 0, 84, 76
2, 340250, Note_on_c, 0, 72, 57
2, 340250, Note_on_c, 0, 58, 50
2, 340250, Note_on_c, 0, 77, 60
2, 340692, Note_on_c, 0, 69, 0
2, 341053, Note_on_c, 0, 79, 0
2, 342377, Note_on_c, 0, 79, 69
2, 342394, Note_on_c, 0, 60, 40
2, 342398, Note_on_c, 0, 76, 53
2, 342398, Note_on_c, 0, 84, 0
2, 342399, Note_on_c, 0, 58, 0
2, 342399, Note_on_c, 0, 62, 0
2, 342401, Note_on_c, 0, 81, 0
2, 342402, Control_c, 0, 64, 0
2, 342412, Note_on_c, 0, 77, 0
2, 342413, Note_on_c, 0, 67, 32
2, 342420, Note_on_c, 0, 65, 0
2, 342681, Control_c, 0, 64, 127
2, 342724, Note_on_c, 0, 77, 81
2, 343050, Note_on_c, 0, 79, 0
2, 343059, Note_on_c, 0, 79, 90
2, 343403, Note_on_c, 0, 72, 0
2, 343410, Note_on_c, 0, 69, 59
2, 343411, Note_on_c, 0, 72, 67
2, 343413, Note_on_c, 0, 81, 91
2, 343422, Note_on_c, 0, 65, 53
2, 343471, Control_c, 0, 64, 0
2, 343526, Control_c, 0, 64, 127
2, 343595, Note_on_c, 0, 60, 0
2, 343680, Note_on_c, 0, 76, 0
2, 344808, Note_on_c, 0, 67, 0
2, 344819, Note_on_c, 0, 67, 48
2, 344819, Note_on_c, 0, 64, 48
2, 344833, Note_on_c, 0, 60, 26
2, 345553, Note_on_c, 0, 65, 0
2, 345553, Note_on_c, 0, 69, 0
2, 345553, Note_on_c, 0, 72, 0
2, 345553, Note_on_c, 0, 77, 0
2, 345558, Note_on_c, 0, 72, 64
2, 345560, Note_on_c, 0, 69, 54
2, 345560, Note_on_c, 0, 65, 48
2, 345562, Note_on_c, 0, 77, 84
2, 345565, Note_on_c, 0, 62, 63
2, 345606, Note_on_c, 0, 64, 0
2, 345609, Note_on_c, 0, 67, 0
2, 345618, Control_c, 0, 64, 0
2, 345623, Note_on_c, 0, 79, 0
2, 345730, Control_c, 0, 64, 127
2, 345914, Note_on_c, 0, 81, 0
2, 345923, Note_on_c, 0, 81, 93
2, 346304, Note_on_c, 0, 84, 98
2, 346580, Note_on_c, 0, 58, 54
2, 346583, Note_on_c, 0, 65, 0
2, 346587, Note_on_c, 0, 65, 39
2, 346606, Note_on_c, 0, 60, 0
2, 346620, Note_on_c, 0, 70, 45
2, 346625, Note_on_c, 0, 76, 55
2, 346652, Note_on_c, 0, 72, 0
2, 346656, Note_on_c, 0, 72, 67
2, 346698, Note_on_c, 0, 82, 70
2, 346728, Note_on_c, 0, 84, 0
2, 346733, Note_on_c, 0, 84, 70
2, 346772, Note_on_c, 0, 88, 102
2, 346804, Control_c, 0, 64, 0
2, 346818, Note_on_c, 0, 81, 0
2, 346818, Note_on_c, 0, 62, 0
2, 346818, Note_on_c, 0, 77, 0
2, 346828, Note_on_c, 0, 69, 0
2, 346905, Control_c, 0, 64, 127
2, 347512, Note_on_c, 0, 88, 0
2, 347525, Note_on_c, 0, 89, 94
2, 347914, Note_on_c, 0, 86, 88
2, 347919, Note_on_c, 0, 77, 60
2, 347920, Note_on_c, 0, 74, 61
2, 348764, Note_on_c, 0, 70, 0
2, 348764, Note_on_c, 0, 84, 0
2, 348771, Note_on_c, 0, 65, 0
2, 348771, Note_on_c, 0, 72, 0
2, 348774, Note_on_c, 0, 84, 73
2, 348775, Note_on_c, 0, 60, 48
2, 348777, Note_on_c, 0, 65, 37
2, 348778, Note_on_c, 0, 72, 56
2, 348781, Note_on_c, 0, 67, 50
2, 348787, Note_on_c, 0, 77, 0
2, 348798, Note_on_c, 0, 77, 50
2, 348852, Control_c, 0, 64, 0
2, 348894, Note_on_c, 0, 82, 0
2, 348940, Note_on_c, 0, 89, 0
2, 348963, Control_c, 0, 64, 127
2, 348971, Note_on_c, 0, 76, 0
2, 350092, Note_on_c, 0, 74, 0
2, 350326, Note_on_c, 0, 79, 68
2, 350349, Note_on_c, 0, 64, 48
2, 350356, Note_on_c, 0, 76, 38
2, 350361, Note_on_c, 0, 60, 0
2, 350366, Note_on_c, 0, 60, 20
2, 351191, Note_on_c, 0, 58, 0
2, 351206, Note_on_c, 0, 86, 0
2, 351360, Note_on_c, 0, 65, 0
2, 351360, Note_on_c, 0, 72, 0
2, 351360, Note_on_c, 0, 77, 0
2, 351360, Note_on_c, 0, 84, 0
2, 352034, Note_on_c, 0, 58, 43
2, 352039, Note_on_c, 0, 65, 36
2, 352102, Note_on_c, 0, 72, 53
2, 352164, Note_on_c, 0, 74, 46
2, 352173, Note_on_c, 0, 77, 39
2, 352212, Note_on_c, 0, 58, 0
2, 352217, Note_on_c, 0, 81, 82
2, 352221, Note_on_c, 0, 58, 37
2, 352271, Control_c, 0, 64, 0
2, 352273, Note_on_c, 0, 76, 0
2, 352280, Note_on_c, 0, 79, 0
2, 352280, Note_on_c, 0, 64, 0
2, 352281, Note_on_c, 0, 67, 0
2, 352282, Note_on_c, 0, 60, 0
2, 352381, Control_c, 0, 64, 127
2, 355014, Note_on_c, 0, 70, 43
2, 355059, Note_on_c, 0, 73, 41
2, 355130, Note_on_c, 0, 77, 0
2, 355135, Note_on_c, 0, 77, 52
2, 355200, Note_on_c, 0, 58, 0
2, 355200, Note_on_c, 0, 65, 0
2, 355200, Note_on_c, 0, 72, 0
2, 355200, Note_on_c, 0, 74, 0
2, 355200, Note_on_c, 0, 81, 0
2, 355216, Note_on_c, 0, 81, 70
2, 355289, Control_c, 0, 64, 0
2, 355330, Control_c, 0, 64, 127
2, 356889, Note_on_c, 0, 70, 0
2, 356897, Note_on_c, 0, 73, 0
2, 356898, Note_on_c, 0, 70, 42
2, 356908, Note_on_c, 0, 73, 38
2, 356909, Note_on_c, 0, 79, 54
2, 356986, Control_c, 0, 64, 0
2, 357027, Control_c, 0, 64, 127
2, 357987, Note_on_c, 0, 77, 0
2, 357995, Note_on_c, 0, 77, 39
2, 358202, Note_on_c, 0, 81, 0
2, 359040, Note_on_c, 0, 70, 0
2, 359040, Note_on_c, 0, 73, 0
2, 359040, Note_on_c, 0, 79, 0
2, 360017, Note_on_c, 0, 29, 45
2, 360192, Note_on_c, 0, 29, 0
2, 360197, Note_on_c, 0, 29, 24
2, 360334, Note_on_c, 0, 41, 30
2, 360430, Note_on_c, 0, 29, 0
2, 360437, Note_on_c, 0, 29, 33
2, 360552, Note_on_c, 0, 41, 0
2, 360560, Note_on_c, 0, 41, 34
2, 360591, Note_on_c, 0, 29, 0
2, 360596, Note_on_c, 0, 29, 21
2, 360691, Note_on_c, 0, 29, 0
2, 360702, Note_on_c, 0, 29, 39
2, 360760, Note_on_c, 0, 41, 0
2, 360771, Note_on_c, 0, 41, 32
2, 360890, Note_on_c, 0, 29, 0
2, 360894, Note_on_c, 0, 29, 40
2, 360960, Note_on_c, 0, 41, 0
2, 360964, Note_on_c, 0, 41, 33
2, 361029, Note_on_c, 0, 29, 0
2, 361034, Note_on_c, 0, 29, 22
2, 361082, Note_on_c, 0, 29, 0
2, 361091, Note_on_c, 0, 29, 41
2, 361136, Note_on_c, 0, 41, 0
2, 361144, Note_on_c, 0, 41, 42
2, 361236, Note_on_c, 0, 29, 0
2, 361246, Note_on_c, 0, 29, 42
2, 361297, Note_on_c, 0, 41, 0
2, 361308, Note_on_c, 0, 41, 42
2, 361390, Note_on_c, 0, 29, 0
2, 361399, Note_on_c, 0, 29, 45
2, 361459, Note_on_c, 0, 41, 0
2, 361467, Note_on_c, 0, 41, 37
2, 361543, Note_on_c, 0, 29, 0
2, 361548, Note_on_c, 0, 29, 46
2, 361612, Note_on_c, 0, 41, 0
2, 361622, Note_on_c, 0, 41, 38
2, 361712, Note_on_c, 0, 29, 0
2, 361717, Note_on_c, 0, 29, 40
2, 361781, Note_on_c, 0, 41, 0
2, 361789, Note_on_c, 0, 29, 0
2, 361793, Note_on_c, 0, 41, 41
2, 361794, Note_on_c, 0, 29, 39
2, 361816, Note_on_c, 0, 57, 77
2, 361833, Note_on_c, 0, 53, 53
2, 361843, Note_on_c, 0, 41, 0
2, 361847, Note_on_c, 0, 41, 51
2, 361847, Note_on_c, 0, 39, 44
2, 361858, Note_on_c, 0, 39, 0
2, 361958, Note_on_c, 0, 41, 0
2, 361963, Note_on_c, 0, 41, 53
2, 362042, Note_on_c, 0, 29, 0
2, 362050, Note_on_c, 0, 41, 0
2, 362053, Note_on_c, 0, 29, 41
2, 362060, Note_on_c, 0, 41, 47
2, 362127, Note_on_c, 0, 41, 0
2, 362138, Note_on_c, 0, 41, 45
2, 362211, Note_on_c, 0, 29, 0
2, 362215, Note_on_c, 0, 29, 48
2, 362273, Note_on_c, 0, 41, 0
2, 362278, Note_on_c, 0, 41, 48
2, 362350, Note_on_c, 0, 29, 0
2, 362355, Note_on_c, 0, 29, 44
2, 362426, Note_on_c, 0, 41, 0
2, 362430, Note_on_c, 0, 41, 41
2, 362503, Note_on_c, 0, 29, 0
2, 362507, Note_on_c, 0, 29, 47
2, 362565, Note_on_c, 0, 41, 0
2, 362576, Note_on_c, 0, 41, 45
2, 362603, Note_on_c, 0, 77, 0
2, 362634, Note_on_c, 0, 29, 0
2, 362645, Note_on_c, 0, 29, 48
2, 362711, Note_on_c, 0, 41, 0
2, 362717, Note_on_c, 0, 41, 43
2, 362818, Note_on_c, 0, 29, 0
2, 362822, Note_on_c, 0, 29, 43
2, 362864, Note_on_c, 0, 41, 0
2, 362868, Note_on_c, 0, 41, 48
2, 362926, Note_on_c, 0, 29, 0
2, 362937, Note_on_c, 0, 29, 39
2, 363018, Note_on_c, 0, 41, 0
2, 363028, Note_on_c, 0, 41, 52
2, 363148, Note_on_c, 0, 41, 0
2, 363154, Note_on_c, 0, 41, 55
2, 363233, Note_on_c, 0, 29, 0
2, 363238, Note_on_c, 0, 29, 53
2, 363264, Note_on_c, 0, 41, 0
2, 363270, Note_on_c, 0, 41, 57
2, 363348, Note_on_c, 0, 29, 0
2, 363358, Note_on_c, 0, 29, 57
2, 363409, Note_on_c, 0, 41, 0
2, 363414, Note_on_c, 0, 41, 61
2, 363469, Note_on_c, 0, 60, 86
2, 363479, Note_on_c, 0, 41, 0
2, 363486, Note_on_c, 0, 29, 0
2, 363486, Note_on_c, 0, 53, 0
2, 363489, Note_on_c, 0, 41, 70
2, 363490, Control_c, 0, 64, 0
2, 363491, Note_on_c, 0, 50, 74
2, 363492, Note_on_c, 0, 29, 73
2, 363494, Note_on_c, 0, 53, 71
2, 363586, Note_on_c, 0, 29, 0
2, 363586, Note_on_c, 0, 41, 0
2, 363591, Note_on_c, 0, 29, 60
2, 363592, Note_on_c, 0, 41, 59
2, 363601, Control_c, 0, 64, 127
2, 363663, Note_on_c, 0, 29, 0
2, 363669, Note_on_c, 0, 29, 60
2, 363671, Note_on_c, 0, 41, 0
2, 363675, Note_on_c, 0, 41, 63
2, 363724, Note_on_c, 0, 29, 0
2, 363724, Note_on_c, 0, 41, 0
2, 363730, Note_on_c, 0, 41, 63
2, 363735, Note_on_c, 0, 29, 56
2, 363801, Note_on_c, 0, 29, 0
2, 363811, Note_on_c, 0, 29, 62
2, 363878, Note_on_c, 0, 41, 0
2, 363889, Note_on_c, 0, 41, 56
2, 363947, Note_on_c, 0, 29, 0
2, 363958, Note_on_c, 0, 29, 58
2, 364008, Note_on_c, 0, 41, 0
2, 364020, Note_on_c, 0, 41, 56
2, 364093, Note_on_c, 0, 29, 0
2, 364097, Note_on_c, 0, 29, 62
2, 364162, Note_on_c, 0, 41, 0
2, 364167, Note_on_c, 0, 41, 55
2, 364239, Note_on_c, 0, 29, 0
2, 364247, Note_on_c, 0, 29, 59
2, 364308, Note_on_c, 0, 41, 0
2, 364312, Note_on_c, 0, 41, 58
2, 364377, Note_on_c, 0, 29, 0
2, 364387, Note_on_c, 0, 29, 51
2, 364446, Note_on_c, 0, 41, 0
2, 364451, Note_on_c, 0, 41, 61
2, 364546, Note_on_c, 0, 29, 0
2, 364551, Note_on_c, 0, 29, 59
2, 364577, Note_on_c, 0, 41, 0
2, 364588, Note_on_c, 0, 41, 60
2, 364654, Note_on_c, 0, 29, 0
2, 364659, Note_on_c, 0, 29, 51
2, 364715, Note_on_c, 0, 41, 0
2, 364723, Note_on_c, 0, 41, 64
2, 364800, Note_on_c, 0, 29, 0
2, 364805, Note_on_c, 0, 29, 51
2, 364869, Note_on_c, 0, 41, 0
2, 364874, Note_on_c, 0, 41, 65
2, 364938, Note_on_c, 0, 29, 0
2, 364947, Note_on_c, 0, 29, 53
2, 364999, Note_on_c, 0, 41, 0
2, 365010, Note_on_c, 0, 41, 54
2, 365074, Note_on_c, 0, 58, 86
2, 365091, Note_on_c, 0, 53, 0
2, 365099, Note_on_c, 0, 29, 0
2, 365101, Note_on_c, 0, 53, 58
2, 365104, Note_on_c, 0, 29, 64
2, 365107, Control_c, 0, 64, 0
2, 365108, Note_on_c, 0, 49, 63
2, 365111, Note_on_c, 0, 50, 0
2, 365112, Note_on_c, 0, 60, 0
2, 365122, Note_on_c, 0, 57, 0
2, 365145, Note_on_c, 0, 29, 0
2, 365152, Note_on_c, 0, 29, 58
2, 365191, Control_c, 0, 64, 127
2, 365207, Note_on_c, 0, 41, 0
2, 365211, Note_on_c, 0, 41, 51
2, 365230, Note_on_c, 0, 29, 0
2, 365235, Note_on_c, 0, 29, 54
2, 365283, Note_on_c, 0, 29, 0
2, 365292, Note_on_c, 0, 29, 53
2, 365322, Note_on_c, 0, 41, 0
2, 365333, Note_on_c, 0, 41, 60
2, 365391, Note_on_c, 0, 29, 0
2, 365400, Note_on_c, 0, 29, 52
2, 365483, Note_on_c, 0, 41, 0
2, 365489, Note_on_c, 0, 41, 51
2, 365583, Note_on_c, 0, 29, 0
2, 365588, Note_on_c, 0, 29, 52
2, 365644, Note_on_c, 0, 41, 0
2, 365654, Note_on_c, 0, 41, 58
2, 365721, Note_on_c, 0, 29, 0
2, 365731, Note_on_c, 0, 29, 42
2, 365806, Note_on_c, 0, 41, 0
2, 365815, Note_on_c, 0, 41, 43
2, 365829, Note_on_c, 0, 29, 0
2, 365835, Note_on_c, 0, 29, 48
2, 365858, Note_on_c, 0, 55, 83
2, 365898, Note_on_c, 0, 29, 0
2, 365902, Note_on_c, 0, 29, 56
2, 365982, Note_on_c, 0, 41, 0
2, 365989, Note_on_c, 0, 41, 52
2, 366059, Note_on_c, 0, 29, 0
2, 366064, Note_on_c, 0, 29, 57
2, 366136, Note_on_c, 0, 41, 0
2, 366141, Note_on_c, 0, 41, 52
2, 366205, Note_on_c, 0, 29, 0
2, 366212, Note_on_c, 0, 29, 60
2, 366282, Note_on_c, 0, 41, 0
2, 366286, Note_on_c, 0, 41, 65
2, 366359, Note_on_c, 0, 29, 0
2, 366364, Note_on_c, 0, 29, 64
2, 366428, Note_on_c, 0, 41, 0
2, 366438, Note_on_c, 0, 41, 57
2, 366451, Note_on_c, 0, 29, 0
2, 366461, Note_on_c, 0, 29, 46
2, 366551, Note_on_c, 0, 41, 0
2, 366562, Note_on_c, 0, 41, 66
2, 366752, Note_on_c, 0, 57, 82
2, 366758, Note_on_c, 0, 41, 0
2, 366758, Note_on_c, 0, 53, 0
2, 366762, Control_c, 0, 64, 0
2, 366762, Note_on_c, 0, 41, 75
2, 366762, Note_on_c, 0, 48, 71
2, 366763, Note_on_c, 0, 53, 75
2, 366766, Note_on_c, 0, 29, 0
2, 366770, Note_on_c, 0, 29, 78
2, 366810, Note_on_c, 0, 58, 0
2, 366811, Note_on_c, 0, 49, 0
2, 366815, Note_on_c, 0, 55, 0
2, 366873, Note_on_c, 0, 29, 0
2, 366878, Note_on_c, 0, 29, 61
2, 367027, Control_c, 0, 64, 127
2, 367119, Note_on_c, 0, 41, 0
2, 367124, Note_on_c, 0, 41, 43
2, 367180, Note_on_c, 0, 48, 0
2, 367185, Note_on_c, 0, 48, 53
2, 367249, Note_on_c, 0, 41, 0
2, 367249, Note_on_c, 0, 53, 0
2, 367257, Note_on_c, 0, 53, 66
2, 367259, Note_on_c, 0, 41, 55
2, 367349, Note_on_c, 0, 48, 0
2, 367356, Note_on_c, 0, 48, 60
2, 367418, Note_on_c, 0, 53, 0
2, 367422, Note_on_c, 0, 53, 66
2, 367488, Note_on_c, 0, 41, 0
2, 367488, Note_on_c, 0, 48, 0
2, 367491, Note_on_c, 0, 41, 56
2, 367493, Note_on_c, 0, 48, 58
2, 367557, Note_on_c, 0, 53, 0
2, 367566, Note_on_c, 0, 53, 67
2, 367633, Note_on_c, 0, 41, 0
2, 367644, Note_on_c, 0, 41, 68
2, 367687, Note_on_c, 0, 53, 0
2, 367699, Note_on_c, 0, 53, 70
2, 367756, Note_on_c, 0, 48, 0
2, 367764, Note_on_c, 0, 41, 0
2, 367764, Note_on_c, 0, 48, 61
2, 367769, Note_on_c, 0, 41, 72
2, 367833, Note_on_c, 0, 53, 0
2, 367839, Note_on_c, 0, 53, 81
2, 367887, Note_on_c, 0, 48, 0
2, 367894, Note_on_c, 0, 48, 61
2, 367956, Note_on_c, 0, 53, 0
2, 367960, Note_on_c, 0, 53, 74
2, 368010, Note_on_c, 0, 48, 0
2, 368020, Note_on_c, 0, 48, 59
2, 368087, Note_on_c, 0, 53, 0
2, 368092, Note_on_c, 0, 53, 73
2, 368125, Note_on_c, 0, 41, 0
2, 368125, Note_on_c, 0, 48, 0
2, 368133, Note_on_c, 0, 41, 70
2, 368136, Note_on_c, 0, 48, 63
2, 368186, Note_on_c, 0, 53, 0
2, 368194, Note_on_c, 0, 53, 83
2, 368309, Note_on_c, 0, 48, 0
2, 368317, Note_on_c, 0, 48, 65
2, 368344, Note_on_c, 0, 69, 99
2, 368348, Note_on_c, 0, 41, 0
2, 368351, Note_on_c, 0, 60, 90
2, 368353, Note_on_c, 0, 65, 88
2, 368354, Note_on_c, 0, 41, 75
2, 368396, Note_on_c, 0, 51, 66
2, 368494, Note_on_c, 0, 41, 0
2, 368501, Note_on_c, 0, 48, 0
2, 368502, Note_on_c, 0, 41, 70
2, 368505, Note_on_c, 0, 48, 71
2, 368555, Note_on_c, 0, 51, 0
2, 368566, Note_on_c, 0, 51, 56
2, 368616, Note_on_c, 0, 48, 0
2, 368626, Note_on_c, 0, 48, 72
2, 368693, Note_on_c, 0, 51, 0
2, 368697, Note_on_c, 0, 51, 71
2, 368762, Note_on_c, 0, 48, 0
2, 368767, Note_on_c, 0, 48, 76
2, 368824, Note_on_c, 0, 51, 0
2, 368832, Note_on_c, 0, 51, 76
2, 368885, Note_on_c, 0, 48, 0
2, 368896, Note_on_c, 0, 48, 73
2, 368962, Note_on_c, 0, 51, 0
2, 368967, Note_on_c, 0, 51, 71
2, 369024, Note_on_c, 0, 41, 0
2, 369024, Note_on_c, 0, 48, 0
2, 369028, Note_on_c, 0, 41, 73
2, 369029, Note_on_c, 0, 48, 72
2, 369077, Note_on_c, 0, 51, 0
2, 369088, Note_on_c, 0, 51, 71
2, 369146, Note_on_c, 0, 41, 0
2, 369146, Note_on_c, 0, 48, 0
2, 369157, Note_on_c, 0, 48, 72
2, 369157, Note_on_c, 0, 41, 66
2, 369208, Note_on_c, 0, 51, 0
2, 369219, Note_on_c, 0, 51, 73
2, 369277, Note_on_c, 0, 48, 0
2, 369282, Note_on_c, 0, 48, 69
2, 369346, Note_on_c, 0, 51, 0
2, 369357, Note_on_c, 0, 51, 78
2, 369408, Note_on_c, 0, 48, 0
2, 369412, Note_on_c, 0, 48, 74
2, 369431, Note_on_c, 0, 41, 0
2, 369440, Note_on_c, 0, 41, 62
2, 369461, Note_on_c, 0, 41, 0
2, 369469, Note_on_c, 0, 51, 0
2, 369471, Note_on_c, 0, 41, 68
2, 369476, Note_on_c, 0, 51, 83
2, 369530, Note_on_c, 0, 41, 0
2, 369530, Note_on_c, 0, 48, 0
2, 369540, Note_on_c, 0, 48, 78
2, 369542, Note_on_c, 0, 41, 71
2, 369584, Note_on_c, 0, 51, 0
2, 369594, Note_on_c, 0, 51, 83
2, 369646, Note_on_c, 0, 48, 0
2, 369651, Note_on_c, 0, 48, 74
2, 369699, Note_on_c, 0, 41, 0
2, 369699, Note_on_c, 0, 51, 0
2, 369709, Note_on_c, 0, 51, 85
2, 369711, Note_on_c, 0, 41, 66
2, 369909, Note_on_c, 0, 72, 105
2, 369914, Note_on_c, 0, 41, 0
2, 369914, Note_on_c, 0, 65, 0
2, 369918, Note_on_c, 0, 70, 96
2, 369918, Note_on_c, 0, 46, 86
2, 369919, Note_on_c, 0, 65, 86
2, 369919, Note_on_c, 0, 62, 94
2, 369919, Note_on_c, 0, 41, 82
2, 369923, Control_c, 0, 64, 0
2, 369984, Control_c, 0, 64, 127
2, 369996, Note_on_c, 0, 50, 85
2, 370014, Note_on_c, 0, 60, 0
2, 370083, Note_on_c, 0, 41, 0
2, 370083, Note_on_c, 0, 46, 0
2, 370088, Note_on_c, 0, 46, 74
2, 370089, Note_on_c, 0, 41, 78
2, 370152, Note_on_c, 0, 50, 0
2, 370164, Note_on_c, 0, 50, 78
2, 370222, Note_on_c, 0, 41, 0
2, 370222, Note_on_c, 0, 46, 0
2, 370227, Note_on_c, 0, 46, 80
2, 370228, Note_on_c, 0, 41, 78
2, 370298, Note_on_c, 0, 50, 0
2, 370304, Note_on_c, 0, 50, 82
2, 370360, Note_on_c, 0, 41, 0
2, 370360, Note_on_c, 0, 46, 0
2, 370366, Note_on_c, 0, 41, 81
2, 370368, Note_on_c, 0, 46, 84
2, 370429, Note_on_c, 0, 50, 0
2, 370436, Note_on_c, 0, 50, 83
2, 370475, Note_on_c, 0, 41, 0
2, 370475, Note_on_c, 0, 46, 0
2, 370483, Note_on_c, 0, 46, 88
2, 370485, Note_on_c, 0, 41, 82
2, 370552, Note_on_c, 0, 50, 0
2, 370560, Note_on_c, 0, 29, 0
2, 370560, Note_on_c, 0, 53, 0
2, 370560, Note_on_c, 0, 57, 0
2, 370560, Note_on_c, 0, 69, 0
2, 370563, Note_on_c, 0, 50, 82
2, 370621, Note_on_c, 0, 41, 0
2, 370621, Note_on_c, 0, 46, 0
2, 370627, Note_on_c, 0, 41, 81
2, 370631, Note_on_c, 0, 46, 76
2, 370675, Note_on_c, 0, 48, 0
2, 370675, Note_on_c, 0, 65, 0
2, 370675, Note_on_c, 0, 70, 0
2, 370680, Note_on_c, 0, 70, 100
2, 370682, Note_on_c, 0, 62, 0
2, 370685, Note_on_c, 0, 65, 79
2, 370687, Note_on_c, 0, 62, 91
2, 370690, Note_on_c, 0, 58, 106
2, 370705, Note_on_c, 0, 50, 0
2, 370709, Note_on_c, 0, 50, 79
2, 370782, Note_on_c, 0, 41, 0
2, 370792, Note_on_c, 0, 41, 85
2, 370851, Note_on_c, 0, 50, 0
2, 370856, Note_on_c, 0, 50, 80
2, 370913, Note_on_c, 0, 46, 0
2, 370923, Note_on_c, 0, 46, 89
2, 370990, Note_on_c, 0, 50, 0
2, 370996, Note_on_c, 0, 50, 83
2, 371043, Note_on_c, 0, 41, 0
2, 371043, Note_on_c, 0, 46, 0
2, 371048, Note_on_c, 0, 46, 78
2, 371048, Note_on_c, 0, 41, 87
2, 371105, Note_on_c, 0, 50, 0
2, 371113, Note_on_c, 0, 50, 81
2, 371159, Note_on_c, 0, 46, 0
2, 371169, Note_on_c, 0, 46, 90
2, 371228, Note_on_c, 0, 50, 0
2, 371233, Note_on_c, 0, 50, 78
2, 371281, Note_on_c, 0, 41, 0
2, 371281, Note_on_c, 0, 46, 0
2, 371281, Note_on_c, 0, 65, 0
2, 371288, Note_on_c, 0, 46, 77
2, 371290, Note_on_c, 0, 41, 72
2, 371291, Note_on_c, 0, 65, 82
2, 371335, Note_on_c, 0, 70, 0
2, 371339, Note_on_c, 0, 70, 92
2, 371381, Note_on_c, 0, 73, 98
2, 371473, Note_on_c, 0, 77, 107
2, 371473, Note_on_c, 0, 41, 0
2, 371473, Note_on_c, 0, 46, 0
2, 371473, Note_on_c, 0, 65, 0
2, 371473, Note_on_c, 0, 70, 0
2, 371480, Note_on_c, 0, 41, 88
2, 371481, Note_on_c, 0, 73, 0
2, 371483, Note_on_c, 0, 46, 87
2, 371483, Note_on_c, 0, 70, 91
2, 371483, Note_on_c, 0, 49, 93
2, 371484, Note_on_c, 0, 65, 101
2, 371486, Note_on_c, 0, 73, 92
2, 371560, Note_on_c, 0, 53, 83
2, 371619, Note_on_c, 0, 49, 0
2, 371623, Note_on_c, 0, 49, 83
2, 371635, Note_on_c, 0, 46, 0
2, 371646, Note_on_c, 0, 46, 78
2, 371704, Note_on_c, 0, 53, 0
2, 371714, Note_on_c, 0, 53, 83
2, 371765, Note_on_c, 0, 46, 0
2, 371765, Note_on_c, 0, 49, 0
2, 371776, Note_on_c, 0, 46, 75
2, 371776, Note_on_c, 0, 49, 81
2, 371834, Note_on_c, 0, 53, 0
2, 371843, Note_on_c, 0, 53, 82
2, 371888, Note_on_c, 0, 46, 0
2, 371896, Note_on_c, 0, 49, 0
2, 371899, Note_on_c, 0, 46, 82
2, 371905, Note_on_c, 0, 49, 79
2, 371957, Note_on_c, 0, 53, 0
2, 371967, Note_on_c, 0, 53, 81
2, 372011, Note_on_c, 0, 46, 0
2, 372011, Note_on_c, 0, 49, 0
2, 372021, Note_on_c, 0, 49, 85
2, 372022, Note_on_c, 0, 46, 78
2, 372065, Note_on_c, 0, 53, 0
2, 372074, Note_on_c, 0, 53, 84
2, 372126, Note_on_c, 0, 46, 0
2, 372126, Note_on_c, 0, 49, 0
2, 372133, Note_on_c, 0, 46, 84
2, 372134, Note_on_c, 0, 41, 0
2, 372137, Note_on_c, 0, 49, 80
2, 372139, Note_on_c, 0, 41, 89
2, 372188, Note_on_c, 0, 53, 0
2, 372197, Note_on_c, 0, 53, 85
2, 372241, Note_on_c, 0, 46, 0
2, 372249, Note_on_c, 0, 41, 0
2, 372249, Note_on_c, 0, 49, 0
2, 372252, Note_on_c, 0, 46, 85
2, 372253, Note_on_c, 0, 49, 83
2, 372260, Note_on_c, 0, 41, 82
2, 372326, Note_on_c, 0, 70, 0
2, 372326, Note_on_c, 0, 73, 0
2, 372334, Note_on_c, 0, 46, 0
2, 372335, Note_on_c, 0, 70, 103
2, 372335, Note_on_c, 0, 79, 109
2, 372337, Note_on_c, 0, 73, 105
2, 372339, Note_on_c, 0, 46, 97
2, 372341, Note_on_c, 0, 49, 0
2, 372341, Note_on_c, 0, 67, 103
2, 372353, Note_on_c, 0, 49, 91
2, 372372, Note_on_c, 0, 53, 0
2, 372383, Note_on_c, 0, 53, 68
2, 372446, Note_on_c, 0, 55, 92
2, 372503, Note_on_c, 0, 46, 0
2, 372510, Note_on_c, 0, 49, 0
2, 372514, Note_on_c, 0, 46, 90
2, 372518, Note_on_c, 0, 49, 86
2, 372572, Note_on_c, 0, 55, 0
2, 372583, Note_on_c, 0, 55, 94
2, 372633, Note_on_c, 0, 46, 0
2, 372633, Note_on_c, 0, 49, 0
2, 372638, Note_on_c, 0, 46, 89
2, 372641, Note_on_c, 0, 49, 90
2, 372695, Note_on_c, 0, 55, 0
2, 372702, Note_on_c, 0, 55, 90
2, 372764, Note_on_c, 0, 41, 0
2, 372764, Note_on_c, 0, 46, 0
2, 372769, Note_on_c, 0, 41, 85
2, 372770, Note_on_c, 0, 46, 90
2, 372817, Note_on_c, 0, 55, 0
2, 372822, Note_on_c, 0, 55, 90
2, 372871, Note_on_c, 0, 41, 0
2, 372878, Note_on_c, 0, 41, 87
2, 372894, Note_on_c, 0, 46, 0
2, 372894, Note_on_c, 0, 49, 0
2, 372899, Note_on_c, 0, 46, 91
2, 372903, Note_on_c, 0, 49, 88
2, 373017, Note_on_c, 0, 41, 0
2, 373027, Note_on_c, 0, 41, 98
2, 373032, Note_on_c, 0, 46, 0
2, 373037, Note_on_c, 0, 46, 90
2, 373086, Note_on_c, 0, 55, 0
2, 373095, Note_on_c, 0, 55, 95
2, 373140, Note_on_c, 0, 46, 0
2, 373140, Note_on_c, 0, 49, 0
2, 373148, Note_on_c, 0, 46, 97
2, 373150, Note_on_c, 0, 49, 93
2, 373298, Note_on_c, 0, 69, 79
2, 373363, Note_on_c, 0, 72, 0
2, 373368, Note_on_c, 0, 72, 95
2, 373424, Note_on_c, 0, 77, 0
2, 373428, Note_on_c, 0, 77, 91
2, 373777, Note_on_c, 0, 69, 0
2, 373777, Note_on_c, 0, 77, 0
2, 373785, Note_on_c, 0, 41, 0
2, 373785, Note_on_c, 0, 72, 0
2, 373788, Note_on_c, 0, 81, 107
2, 373788, Note_on_c, 0, 69, 106
2, 373789, Note_on_c, 0, 77, 106
2, 373789, Note_on_c, 0, 72, 106
2, 373793, Note_on_c, 0, 50, 0
2, 373796, Note_on_c, 0, 41, 107
2, 373807, Note_on_c, 0, 29, 106
2, 373814, Control_c, 0, 64, 0
2, 373820, Note_on_c, 0, 73, 0
2, 373821, Note_on_c, 0, 67, 0
2, 373821, Note_on_c, 0, 55, 0
2, 373822, Note_on_c, 0, 70, 0
2, 373823, Note_on_c, 0, 53, 0
2, 373824, Note_on_c, 0, 79, 0
2, 373825, Note_on_c, 0, 65, 0
2, 373831, Note_on_c, 0, 51, 0
2, 373839, Note_on_c, 0, 46, 0
2, 373839, Note_on_c, 0, 49, 0
2, 373839, Note_on_c, 0, 58, 0
2, 373839, Note_on_c, 0, 62, 0
2, 374184, Control_c, 0, 64, 127
2, 374264, Note_on_c, 0, 57, 59
2, 374300, Note_on_c, 0, 41, 0
2, 374309, Note_on_c, 0, 41, 63
2, 374309, Note_on_c, 0, 48, 64
2, 374376, Note_on_c, 0, 57, 0
2, 374382, Note_on_c, 0, 57, 72
2, 374446, Note_on_c, 0, 48, 0
2, 374455, Note_on_c, 0, 48, 70
2, 374486, Note_on_c, 0, 53, 34
2, 374492, Note_on_c, 0, 53, 0
2, 374515, Note_on_c, 0, 57, 0
2, 374522, Note_on_c, 0, 57, 75
2, 374576, Note_on_c, 0, 48, 0
2, 374584, Note_on_c, 0, 41, 0
2, 374586, Note_on_c, 0, 48, 77
2, 374588, Note_on_c, 0, 41, 73
2, 374653, Note_on_c, 0, 57, 0
2, 374659, Note_on_c, 0, 57, 86
2, 374704, Note_on_c, 0, 53, 48
2, 374722, Note_on_c, 0, 41, 0
2, 374730, Note_on_c, 0, 48, 0
2, 374731, Note_on_c, 0, 41, 76
2, 374735, Note_on_c, 0, 48, 82
2, 374776, Note_on_c, 0, 57, 0
2, 374784, Note_on_c, 0, 57, 81
2, 374845, Note_on_c, 0, 41, 0
2, 374845, Note_on_c, 0, 48, 0
2, 374851, Note_on_c, 0, 48, 78
2, 374855, Note_on_c, 0, 41, 83
2, 374899, Note_on_c, 0, 57, 0
2, 374908, Note_on_c, 0, 57, 89
2, 374960, Note_on_c, 0, 41, 0
2, 374960, Note_on_c, 0, 48, 0
2, 374967, Note_on_c, 0, 48, 96
2, 374971, Note_on_c, 0, 41, 83
2, 375022, Note_on_c, 0, 57, 0
2, 375030, Note_on_c, 0, 57, 85
2, 375075, Note_on_c, 0, 48, 0
2, 375085, Note_on_c, 0, 48, 96
2, 375137, Note_on_c, 0, 57, 0
2, 375142, Note_on_c, 0, 57, 87
2, 375206, Note_on_c, 0, 48, 0
2, 375214, Note_on_c, 0, 41, 0
2, 375217, Note_on_c, 0, 48, 90
2, 375224, Note_on_c, 0, 41, 83
2, 375252, Note_on_c, 0, 69, 0
2, 375252, Note_on_c, 0, 72, 0
2, 375262, Note_on_c, 0, 72, 106
2, 375263, Note_on_c, 0, 69, 102
2, 375264, Note_on_c, 0, 60, 103
2, 375270, Note_on_c, 0, 65, 96
2, 375352, Note_on_c, 0, 60, 0
2, 375361, Note_on_c, 0, 60, 83
2, 375429, Note_on_c, 0, 57, 0
2, 375434, Note_on_c, 0, 57, 79
2, 375505, Note_on_c, 0, 48, 0
2, 375509, Note_on_c, 0, 48, 82
2, 375521, Note_on_c, 0, 53, 0
2, 375525, Note_on_c, 0, 53, 53
2, 375575, Note_on_c, 0, 57, 0
2, 375583, Note_on_c, 0, 57, 79
2, 375659, Note_on_c, 0, 41, 0
2, 375659, Note_on_c, 0, 48, 0
2, 375669, Note_on_c, 0, 41, 72
2, 375670, Note_on_c, 0, 48, 84
2, 375697, Note_on_c, 0, 57, 0
2, 375707, Note_on_c, 0, 57, 85
2, 375759, Note_on_c, 0, 48, 0
2, 375764, Note_on_c, 0, 48, 76
2, 375828, Note_on_c, 0, 57, 0
2, 375838, Note_on_c, 0, 57, 79
2, 375966, Note_on_c, 0, 36, 108
2, 376066, Note_on_c, 0, 57, 0
2, 376071, Note_on_c, 0, 57, 89
2, 376120, Note_on_c, 0, 48, 0
2, 376128, Note_on_c, 0, 41, 0
2, 376129, Note_on_c, 0, 48, 59
2, 376135, Note_on_c, 0, 53, 0
2, 376139, Note_on_c, 0, 41, 47
2, 376147, Note_on_c, 0, 53, 42
2, 376204, Note_on_c, 0, 57, 0
2, 376209, Note_on_c, 0, 57, 94
2, 376266, Note_on_c, 0, 41, 0
2, 376266, Note_on_c, 0, 48, 0
2, 376270, Note_on_c, 0, 48, 84
2, 376270, Note_on_c, 0, 41, 91
2, 376327, Note_on_c, 0, 57, 0
2, 376332, Note_on_c, 0, 57, 94
2, 376381, Note_on_c, 0, 41, 0
2, 376381, Note_on_c, 0, 48, 0
2, 376391, Note_on_c, 0, 48, 92
2, 376392, Note_on_c, 0, 41, 92
2, 376450, Note_on_c, 0, 57, 0
2, 376460, Note_on_c, 0, 57, 91
2, 376465, Note_on_c, 0, 69, 0
2, 376471, Note_on_c, 0, 69, 90
2, 376535, Note_on_c, 0, 72, 0
2, 376541, Note_on_c, 0, 72, 96
2, 376581, Note_on_c, 0, 77, 0
2, 376591, Note_on_c, 0, 77, 70
2, 376711, Note_on_c, 0, 41, 0
2, 376711, Note_on_c, 0, 81, 0
2, 376718, Note_on_c, 0, 65, 0
2, 376719, Note_on_c, 0, 29, 0
2, 376719, Note_on_c, 0, 69, 0
2, 376719, Note_on_c, 0, 72, 0
2, 376719, Note_on_c, 0, 77, 0
2, 376722, Note_on_c, 0, 81, 108
2, 376723, Note_on_c, 0, 41, 102
2, 376724, Note_on_c, 0, 69, 107
2, 376725, Note_on_c, 0, 72, 103
2, 376727, Note_on_c, 0, 29, 102
2, 376728, Note_on_c, 0, 77, 101
2, 376730, Control_c, 0, 64, 0
2, 376734, Note_on_c, 0, 53, 0
2, 376742, Note_on_c, 0, 57, 0
2, 376742, Note_on_c, 0, 60, 0
2, 376750, Note_on_c, 0, 36, 0
2, 376750, Note_on_c, 0, 48, 0
2, 376872, Control_c, 0, 64, 127
2, 377046, Note_on_c, 0, 57, 83
2, 377117, Note_on_c, 0, 48, 76
2, 377187, Note_on_c, 0, 57, 0
2, 377198, Note_on_c, 0, 57, 79
2, 377256, Note_on_c, 0, 48, 0
2, 377265, Note_on_c, 0, 48, 84
2, 377349, Note_on_c, 0, 57, 0
2, 377354, Note_on_c, 0, 53, 50
2, 377354, Note_on_c, 0, 57, 72
2, 377364, Note_on_c, 0, 53, 0
2, 377418, Note_on_c, 0, 48, 0
2, 377426, Note_on_c, 0, 48, 83
2, 377479, Note_on_c, 0, 57, 0
2, 377484, Note_on_c, 0, 57, 81
2, 377541, Note_on_c, 0, 41, 0
2, 377541, Note_on_c, 0, 48, 0
2, 377550, Note_on_c, 0, 48, 87
2, 377552, Note_on_c, 0, 41, 81
2, 377617, Note_on_c, 0, 57, 0
2, 377622, Note_on_c, 0, 57, 83
2, 377671, Note_on_c, 0, 41, 0
2, 377671, Note_on_c, 0, 48, 0
2, 377676, Note_on_c, 0, 48, 90
2, 377682, Note_on_c, 0, 41, 82
2, 377733, Note_on_c, 0, 57, 0
2, 377739, Note_on_c, 0, 57, 88
2, 377786, Note_on_c, 0, 41, 0
2, 377786, Note_on_c, 0, 48, 0
2, 377794, Note_on_c, 0, 48, 92
2, 377797, Note_on_c, 0, 41, 84
2, 377848, Note_on_c, 0, 57, 0
2, 377854, Note_on_c, 0, 57, 89
2, 377902, Note_on_c, 0, 41, 0
2, 377902, Note_on_c, 0, 48, 0
2, 377908, Note_on_c, 0, 48, 96
2, 377911, Note_on_c, 0, 41, 92
2, 377955, Note_on_c, 0, 57, 0
2, 377964, Note_on_c, 0, 57, 92
2, 378017, Note_on_c, 0, 48, 0
2, 378023, Note_on_c, 0, 48, 87
2, 378094, Note_on_c, 0, 57, 0
2, 378099, Note_on_c, 0, 57, 103
2, 378101, Note_on_c, 0, 48, 0
2, 378101, Note_on_c, 0, 69, 0
2, 378101, Note_on_c, 0, 72, 0
2, 378106, Note_on_c, 0, 72, 107
2, 378107, Note_on_c, 0, 60, 104
2, 378110, Note_on_c, 0, 48, 95
2, 378113, Note_on_c, 0, 69, 101
2, 378113, Note_on_c, 0, 65, 94
2, 378229, Note_on_c, 0, 53, 63
2, 378278, Note_on_c, 0, 48, 0
2, 378288, Note_on_c, 0, 48, 86
2, 378355, Note_on_c, 0, 53, 0
2, 378355, Note_on_c, 0, 57, 0
2, 378361, Note_on_c, 0, 53, 73
2, 378366, Note_on_c, 0, 57, 88
2, 378408, Note_on_c, 0, 48, 0
2, 378416, Note_on_c, 0, 41, 0
2, 378418, Note_on_c, 0, 48, 89
2, 378420, Note_on_c, 0, 41, 82
2, 378478, Note_on_c, 0, 57, 0
2, 378489, Note_on_c, 0, 57, 91
2, 378539, Note_on_c, 0, 48, 0
2, 378550, Note_on_c, 0, 48, 94
2, 378600, Note_on_c, 0, 57, 0
2, 378611, Note_on_c, 0, 57, 93
2, 378670, Note_on_c, 0, 48, 0
2, 378675, Note_on_c, 0, 48, 82
2, 378723, Note_on_c, 0, 57, 0
2, 378729, Note_on_c, 0, 57, 91
2, 378808, Note_on_c, 0, 48, 0
2, 378812, Note_on_c, 0, 48, 83
2, 378866, Note_on_c, 0, 36, 106
2, 378900, Note_on_c, 0, 48, 0
2, 378910, Note_on_c, 0, 48, 76
2, 378954, Note_on_c, 0, 57, 0
2, 378964, Note_on_c, 0, 57, 91
2, 379008, Note_on_c, 0, 41, 0
2, 379015, Note_on_c, 0, 48, 0
2, 379016, Note_on_c, 0, 41, 70
2, 379021, Note_on_c, 0, 48, 84
2, 379084, Note_on_c, 0, 57, 0
2, 379090, Note_on_c, 0, 57, 92
2, 379138, Note_on_c, 0, 48, 0
2, 379146, Note_on_c, 0, 41, 0
2, 379149, Note_on_c, 0, 48, 87
2, 379151, Note_on_c, 0, 41, 80
2, 379215, Note_on_c, 0, 57, 0
2, 379223, Note_on_c, 0, 57, 92
2, 379269, Note_on_c, 0, 41, 0
2, 379269, Note_on_c, 0, 48, 0
2, 379279, Note_on_c, 0, 48, 94
2, 379280, Note_on_c, 0, 41, 94
2, 379338, Note_on_c, 0, 57, 0
2, 379348, Note_on_c, 0, 57, 96
2, 379415, Note_on_c, 0, 69, 0
2, 379419, Note_on_c, 0, 69, 94
2, 379476, Note_on_c, 0, 72, 0
2, 379480, Note_on_c, 0, 72, 89
2, 379530, Note_on_c, 0, 77, 0
2, 379540, Note_on_c, 0, 77, 85
2, 379714, Note_on_c, 0, 69, 0
2, 379714, Note_on_c, 0, 72, 0
2, 379714, Note_on_c, 0, 77, 0
2, 379714, Note_on_c, 0, 81, 0
2, 379722, Note_on_c, 0, 41, 0
2, 379723, Note_on_c, 0, 81, 108
2, 379723, Note_on_c, 0, 69, 108
2, 379725, Note_on_c, 0, 72, 101
2, 379725, Note_on_c, 0, 77, 101
2, 379728, Note_on_c, 0, 65, 0
2, 379728, Note_on_c, 0, 41, 105
2, 379729, Note_on_c, 0, 29, 0
2, 379730, Control_c, 0, 64, 0
2, 379737, Note_on_c, 0, 29, 104
2, 379745, Note_on_c, 0, 60, 0
2, 379752, Note_on_c, 0, 48, 0
2, 379752, Note_on_c, 0, 57, 0
2, 379760, Note_on_c, 0, 36, 0
2, 379760, Note_on_c, 0, 53, 0
2, 379991, Control_c, 0, 64, 127
2, 379996, Note_on_c, 0, 48, 77
2, 380061, Note_on_c, 0, 57, 87
2, 380121, Note_on_c, 0, 48, 0
2, 380131, Note_on_c, 0, 48, 75
2, 380198, Note_on_c, 0, 57, 0
2, 380209, Note_on_c, 0, 57, 87
2, 380267, Note_on_c, 0, 41, 0
2, 380267, Note_on_c, 0, 48, 0
2, 380276, Note_on_c, 0, 48, 88
2, 380277, Note_on_c, 0, 41, 78
2, 380328, Note_on_c, 0, 57, 0
2, 380338, Note_on_c, 0, 57, 72
2, 380428, Note_on_c, 0, 48, 0
2, 380435, Note_on_c, 0, 48, 82
2, 380490, Note_on_c, 0, 57, 0
2, 380497, Note_on_c, 0, 57, 84
2, 380544, Note_on_c, 0, 41, 0
2, 380544, Note_on_c, 0, 48, 0
2, 380550, Note_on_c, 0, 48, 82
2, 380552, Note_on_c, 0, 41, 82
2, 380620, Note_on_c, 0, 57, 0
2, 380628, Note_on_c, 0, 57, 88
2, 380682, Note_on_c, 0, 41, 0
2, 380682, Note_on_c, 0, 48, 0
2, 380688, Note_on_c, 0, 48, 86
2, 380692, Note_on_c, 0, 41, 80
2, 380751, Note_on_c, 0, 57, 0
2, 380756, Note_on_c, 0, 57, 84
2, 380812, Note_on_c, 0, 41, 0
2, 380812, Note_on_c, 0, 48, 0
2, 380820, Note_on_c, 0, 48, 87
2, 380822, Note_on_c, 0, 41, 83
2, 380881, Note_on_c, 0, 57, 0
2, 380893, Note_on_c, 0, 57, 88
2, 380935, Note_on_c, 0, 41, 0
2, 380935, Note_on_c, 0, 48, 0
2, 380942, Note_on_c, 0, 48, 87
2, 380946, Note_on_c, 0, 41, 84
2, 380997, Note_on_c, 0, 57, 0
2, 381005, Note_on_c, 0, 57, 96
2, 381058, Note_on_c, 0, 41, 0
2, 381058, Note_on_c, 0, 48, 0
2, 381063, Note_on_c, 0, 48, 91
2, 381066, Note_on_c, 0, 41, 81
2, 381120, Note_on_c, 0, 57, 0
2, 381131, Note_on_c, 0, 57, 100
2, 381181, Note_on_c, 0, 41, 0
2, 381181, Note_on_c, 0, 48, 0
2, 381186, Note_on_c, 0, 48, 94
2, 381190, Note_on_c, 0, 41, 85
2, 381223, Note_on_c, 0, 60, 97
2, 381284, Note_on_c, 0, 65, 83
2, 381350, Note_on_c, 0, 60, 0
2, 381350, Note_on_c, 0, 72, 0
2, 381356, Note_on_c, 0, 60, 101
2, 381358, Note_on_c, 0, 65, 0
2, 381358, Note_on_c, 0, 69, 0
2, 381360, Note_on_c, 0, 72, 109
2, 381362, Note_on_c, 0, 69, 105
2, 381363, Note_on_c, 0, 65, 97
2, 381368, Note_on_c, 0, 36, 99
2, 381588, Note_on_c, 0, 57, 0
2, 381594, Note_on_c, 0, 57, 86
2, 381626, Note_on_c, 0, 41, 0
2, 381626, Note_on_c, 0, 48, 0
2, 381630, Note_on_c, 0, 48, 83
2, 381631, Note_on_c, 0, 41, 83
2, 381703, Note_on_c, 0, 57, 0
2, 381707, Note_on_c, 0, 57, 90
2, 381765, Note_on_c, 0, 41, 0
2, 381765, Note_on_c, 0, 48, 0
2, 381769, Note_on_c, 0, 48, 80
2, 381770, Note_on_c, 0, 41, 80
2, 381834, Note_on_c, 0, 57, 0
2, 381839, Note_on_c, 0, 57, 92
2, 381903, Note_on_c, 0, 48, 0
2, 381911, Note_on_c, 0, 41, 0
2, 381914, Note_on_c, 0, 48, 94
2, 381915, Note_on_c, 0, 41, 90
2, 381980, Note_on_c, 0, 57, 0
2, 381990, Note_on_c, 0, 57, 91
2, 382049, Note_on_c, 0, 48, 0
2, 382056, Note_on_c, 0, 48, 94
2, 382080, Note_on_c, 0, 77, 0
2, 382080, Note_on_c, 0, 81, 0
2, 382110, Note_on_c, 0, 57, 0
2, 382117, Note_on_c, 0, 57, 96
2, 382195, Note_on_c, 0, 41, 0
2, 382195, Note_on_c, 0, 48, 0
2, 382205, Note_on_c, 0, 41, 87
2, 382205, Note_on_c, 0, 48, 89
2, 382279, Note_on_c, 0, 57, 0
2, 382285, Note_on_c, 0, 57, 95
2, 382364, Note_on_c, 0, 41, 0
2, 382364, Note_on_c, 0, 48, 0
2, 382368, Note_on_c, 0, 48, 87
2, 382368, Note_on_c, 0, 41, 81
2, 382433, Note_on_c, 0, 57, 0
2, 382444, Note_on_c, 0, 57, 94
2, 382517, Note_on_c, 0, 41, 0
2, 382517, Note_on_c, 0, 48, 0
2, 382525, Note_on_c, 0, 48, 95
2, 382528, Note_on_c, 0, 41, 92
2, 382602, Note_on_c, 0, 57, 0
2, 382607, Note_on_c, 0, 57, 91
2, 382694, Note_on_c, 0, 48, 0
2, 382702, Note_on_c, 0, 41, 0
2, 382703, Note_on_c, 0, 48, 94
2, 382706, Note_on_c, 0, 41, 91
2, 382809, Note_on_c, 0, 57, 0
2, 382815, Note_on_c, 0, 57, 101
2, 382924, Note_on_c, 0, 41, 0
2, 382924, Note_on_c, 0, 48, 0
2, 382932, Note_on_c, 0, 48, 94
2, 382933, Note_on_c, 0, 41, 98
2, 383040, Note_on_c, 0, 57, 0
2, 383045, Note_on_c, 0, 57, 100
2, 383224, Note_on_c, 0, 41, 0
2, 383224, Note_on_c, 0, 48, 0
2, 383235, Note_on_c, 0, 48, 90
2, 383235, Note_on_c, 0, 41, 103
2, 384030, Note_on_c, 0, 69, 0
2, 384030, Note_on_c, 0, 72, 0
2, 384038, Note_on_c, 0, 29, 0
2, 384038, Note_on_c, 0, 41, 0
2, 384038, Note_on_c, 0, 81, 105
2, 384039, Note_on_c, 0, 69, 105
2, 384041, Note_on_c, 0, 72, 106
2, 384042, Note_on_c, 0, 77, 103
2, 384043, Note_on_c, 0, 41, 107
2, 384049, Note_on_c, 0, 29, 103
2, 384095, Note_on_c, 0, 57, 0
2, 384096, Note_on_c, 0, 48, 0
2, 384097, Note_on_c, 0, 65, 0
2, 384107, Note_on_c, 0, 36, 0
2, 384115, Note_on_c, 0, 60, 0
2, 388646, Note_on_c, 0, 69, 0
2, 388646, Note_on_c, 0, 72, 0
2, 388646, Note_on_c, 0, 81, 0
2, 388654, Note_on_c, 0, 29, 0
2, 388654, Note_on_c, 0, 41, 0
2, 388654, Note_on_c, 0, 77, 0
2, 390896, Control_c, 0, 64, 0
2, 390897, End_track
0, 0, End_of_file
