0, 0, Header, 1, 2, 384
1, 0, Start_track
1, 0, Tempo, 500000
1, 0, Time_signature, 4, 2, 24, 8
1, 1, End_track
2, 0, Start_track
2, 3002, Note_on_c, 0, 71, 85
2, 3087, Control_c, 0, 64, 127
2, 3156, Note_on_c, 0, 73, 79
2, 3214, Note_on_c, 0, 75, 85
2, 3281, Note_on_c, 0, 76, 87
2, 3345, Note_on_c, 0, 78, 87
2, 3397, Note_on_c, 0, 80, 74
2, 3458, Note_on_c, 0, 81, 90
2, 3540, Note_on_c, 0, 80, 0
2, 3548, Note_on_c, 0, 71, 0
2, 3548, Note_on_c, 0, 76, 0
2, 3551, Note_on_c, 0, 80, 82
2, 3554, Note_on_c, 0, 76, 88
2, 3558, Note_on_c, 0, 71, 81
2, 3559, Note_on_c, 0, 83, 94
2, 3563, Note_on_c, 0, 57, 74
2, 3566, Note_on_c, 0, 64, 69
2, 3587, Note_on_c, 0, 78, 0
2, 3588, Note_on_c, 0, 75, 0
2, 3588, Note_on_c, 0, 73, 0
2, 3589, Note_on_c, 0, 81, 0
2, 3609, Control_c, 0, 64, 0
2, 3701, Control_c, 0, 64, 127
2, 4362, Note_on_c, 0, 83, 0
2, 4369, Note_on_c, 0, 83, 76
2, 4403, Note_on_c, 0, 85, 99
2, 4661, Note_on_c, 0, 83, 0
2, 4670, Note_on_c, 0, 83, 94
2, 4677, Note_on_c, 0, 71, 0
2, 4679, Note_on_c, 0, 75, 88
2, 4680, Note_on_c, 0, 59, 73
2, 4682, Note_on_c, 0, 71, 74
2, 4686, Note_on_c, 0, 66, 69
2, 4719, Note_on_c, 0, 57, 0
2, 4719, Note_on_c, 0, 64, 0
2, 4719, Note_on_c, 0, 76, 0
2, 4719, Note_on_c, 0, 85, 0
2, 4721, Control_c, 0, 64, 0
2, 4723, Note_on_c, 0, 80, 0
2, 4876, Control_c, 0, 64, 127
2, 5225, Note_on_c, 0, 57, 73
2, 5336, Note_on_c, 0, 80, 85
2, 5382, Note_on_c, 0, 81, 98
2, 5387, Control_c, 0, 64, 0
2, 5406, Control_c, 0, 64, 127
2, 5468, Note_on_c, 0, 80, 0
2, 5473, Note_on_c, 0, 80, 86
2, 5598, Note_on_c, 0, 81, 0
2, 5603, Note_on_c, 0, 81, 92
2, 5767, Note_on_c, 0, 75, 0
2, 5767, Note_on_c, 0, 83, 0
2, 5771, Note_on_c, 0, 83, 98
2, 5775, Note_on_c, 0, 66, 0
2, 5778, Note_on_c, 0, 63, 74
2, 5778, Note_on_c, 0, 75, 87
2, 5780, Note_on_c, 0, 66, 81
2, 5780, Note_on_c, 0, 56, 80
2, 5785, Note_on_c, 0, 78, 85
2, 5793, Note_on_c, 0, 59, 0
2, 5796, Note_on_c, 0, 81, 0
2, 5796, Note_on_c, 0, 57, 0
2, 5797, Note_on_c, 0, 80, 0
2, 5806, Note_on_c, 0, 71, 0
2, 5807, Control_c, 0, 64, 0
2, 5975, Control_c, 0, 64, 127
2, 6328, Note_on_c, 0, 75, 0
2, 6328, Note_on_c, 0, 83, 0
2, 6333, Note_on_c, 0, 83, 97
2, 6336, Note_on_c, 0, 66, 0
2, 6338, Note_on_c, 0, 75, 94
2, 6340, Note_on_c, 0, 68, 79
2, 6343, Note_on_c, 0, 60, 74
2, 6346, Note_on_c, 0, 66, 78
2, 6366, Note_on_c, 0, 78, 0
2, 6368, Note_on_c, 0, 56, 0
2, 6370, Note_on_c, 0, 63, 0
2, 6378, Control_c, 0, 64, 0
2, 6466, Control_c, 0, 64, 127
2, 6553, Note_on_c, 0, 88, 106
2, 6721, Note_on_c, 0, 87, 97
2, 6904, Note_on_c, 0, 83, 0
2, 6910, Note_on_c, 0, 83, 96
2, 6912, Note_on_c, 0, 68, 0
2, 6914, Note_on_c, 0, 71, 75
2, 6919, Note_on_c, 0, 61, 67
2, 6922, Note_on_c, 0, 68, 74
2, 6929, Note_on_c, 0, 76, 74
2, 6949, Note_on_c, 0, 60, 0
2, 6954, Note_on_c, 0, 87, 0
2, 6955, Note_on_c, 0, 88, 0
2, 6965, Note_on_c, 0, 66, 0
2, 6965, Note_on_c, 0, 75, 0
2, 6970, Control_c, 0, 64, 0
2, 7802, Note_on_c, 0, 90, 94
2, 7841, Control_c, 0, 64, 127
2, 7881, Note_on_c, 0, 88, 80
2, 7935, Note_on_c, 0, 87, 78
2, 7987, Note_on_c, 0, 83, 0
2, 7998, Note_on_c, 0, 83, 77
2, 8074, Note_on_c, 0, 95, 100
2, 8420, Control_c, 0, 64, 0
2, 8430, Note_on_c, 0, 61, 0
2, 8431, Note_on_c, 0, 83, 0
2, 8431, Note_on_c, 0, 71, 0
2, 8433, Note_on_c, 0, 88, 0
2, 8435, Note_on_c, 0, 87, 0
2, 8448, Note_on_c, 0, 68, 0
2, 8448, Note_on_c, 0, 76, 0
2, 8640, Note_on_c, 0, 90, 0
2, 8662, Note_on_c, 0, 103, 113
2, 8671, Note_on_c, 0, 101, 109
2, 8683, Note_on_c, 0, 100, 105
2, 8709, Control_c, 0, 64, 127
2, 8716, Note_on_c, 0, 98, 106
2, 8716, Note_on_c, 0, 95, 0
2, 8727, Note_on_c, 0, 95, 96
2, 8728, Note_on_c, 0, 96, 105
2, 8744, Note_on_c, 0, 93, 102
2, 8753, Note_on_c, 0, 91, 97
2, 8760, Note_on_c, 0, 89, 99
2, 8773, Note_on_c, 0, 88, 99
2, 8786, Note_on_c, 0, 86, 95
2, 8800, Note_on_c, 0, 84, 87
2, 8827, Note_on_c, 0, 81, 100
2, 8831, Note_on_c, 0, 79, 100
2, 8845, Note_on_c, 0, 77, 92
2, 8858, Note_on_c, 0, 76, 102
2, 8872, Note_on_c, 0, 74, 105
2, 8882, Note_on_c, 0, 72, 94
2, 8889, Note_on_c, 0, 71, 96
2, 8906, Note_on_c, 0, 69, 89
2, 8927, Note_on_c, 0, 67, 81
2, 8943, Note_on_c, 0, 64, 88
2, 8944, Note_on_c, 0, 65, 86
2, 8970, Note_on_c, 0, 62, 79
2, 8997, Note_on_c, 0, 60, 93
2, 9004, Note_on_c, 0, 59, 90
2, 9031, Note_on_c, 0, 57, 94
2, 9068, Note_on_c, 0, 53, 75
2, 9079, Note_on_c, 0, 55, 72
2, 9175, Note_on_c, 0, 74, 0
2, 9175, Control_c, 0, 64, 0
2, 9175, Note_on_c, 0, 101, 0
2, 9175, Note_on_c, 0, 86, 0
2, 9176, Note_on_c, 0, 67, 0
2, 9176, Note_on_c, 0, 57, 0
2, 9177, Note_on_c, 0, 62, 0
2, 9177, Note_on_c, 0, 71, 0
2, 9177, Note_on_c, 0, 77, 0
2, 9177, Note_on_c, 0, 53, 0
2, 9177, Note_on_c, 0, 103, 0
2, 9177, Note_on_c, 0, 93, 0
2, 9178, Note_on_c, 0, 59, 0
2, 9178, Note_on_c, 0, 76, 0
2, 9178, Note_on_c, 0, 60, 0
2, 9178, Note_on_c, 0, 95, 0
2, 9178, Note_on_c, 0, 84, 0
2, 9178, Note_on_c, 0, 65, 0
2, 9178, Note_on_c, 0, 72, 0
2, 9179, Note_on_c, 0, 88, 0
2, 9179, Note_on_c, 0, 98, 0
2, 9179, Note_on_c, 0, 96, 0
2, 9179, Note_on_c, 0, 81, 0
2, 9179, Note_on_c, 0, 79, 0
2, 9179, Note_on_c, 0, 89, 0
2, 9180, Note_on_c, 0, 100, 0
2, 9181, Note_on_c, 0, 91, 0
2, 9192, Note_on_c, 0, 55, 0
2, 9200, Note_on_c, 0, 64, 0
2, 9205, Note_on_c, 0, 42, 103
2, 9208, Note_on_c, 0, 69, 0
2, 9208, Note_on_c, 0, 30, 100
2, 9210, Note_on_c, 0, 64, 89
2, 9212, Note_on_c, 0, 69, 101
2, 9216, Note_on_c, 0, 61, 103
2, 9218, Note_on_c, 0, 57, 106
2, 9285, Control_c, 0, 64, 127
2, 9469, Note_on_c, 0, 42, 0
2, 9474, Note_on_c, 0, 42, 82
2, 9614, Note_on_c, 0, 49, 91
2, 9615, Note_on_c, 0, 64, 0
2, 9619, Note_on_c, 0, 52, 98
2, 9619, Note_on_c, 0, 68, 105
2, 9625, Note_on_c, 0, 64, 87
2, 9626, Note_on_c, 0, 59, 102
2, 9738, Note_on_c, 0, 42, 0
2, 9748, Note_on_c, 0, 42, 100
2, 9868, Note_on_c, 0, 49, 0
2, 9868, Note_on_c, 0, 52, 0
2, 9873, Note_on_c, 0, 52, 93
2, 9874, Note_on_c, 0, 49, 89
2, 9876, Note_on_c, 0, 61, 0
2, 9876, Note_on_c, 0, 69, 0
2, 9880, Note_on_c, 0, 69, 107
2, 9885, Note_on_c, 0, 61, 95
2, 9991, Note_on_c, 0, 42, 0
2, 10002, Note_on_c, 0, 42, 99
2, 10114, Note_on_c, 0, 52, 0
2, 10121, Note_on_c, 0, 52, 94
2, 10122, Note_on_c, 0, 49, 0
2, 10129, Note_on_c, 0, 59, 0
2, 10129, Note_on_c, 0, 68, 0
2, 10131, Note_on_c, 0, 49, 90
2, 10135, Note_on_c, 0, 68, 110
2, 10141, Note_on_c, 0, 59, 102
2, 10145, Note_on_c, 0, 42, 0
2, 10156, Note_on_c, 0, 42, 59
2, 10214, Control_c, 0, 64, 0
2, 10221, Note_on_c, 0, 49, 0
2, 10222, Note_on_c, 0, 69, 0
2, 10222, Note_on_c, 0, 61, 0
2, 10224, Note_on_c, 0, 52, 0
2, 10225, Note_on_c, 0, 57, 0
2, 10245, Note_on_c, 0, 30, 0
2, 10265, Note_on_c, 0, 32, 92
2, 10265, Note_on_c, 0, 44, 104
2, 10298, Note_on_c, 0, 42, 0
2, 10298, Control_c, 0, 64, 127
2, 10409, Note_on_c, 0, 66, 106
2, 10411, Note_on_c, 0, 57, 103
2, 10521, Note_on_c, 0, 44, 0
2, 10532, Note_on_c, 0, 44, 92
2, 10659, Note_on_c, 0, 59, 0
2, 10659, Note_on_c, 0, 64, 0
2, 10663, Note_on_c, 0, 64, 108
2, 10666, Note_on_c, 0, 52, 98
2, 10667, Note_on_c, 0, 56, 100
2, 10668, Note_on_c, 0, 47, 97
2, 10669, Note_on_c, 0, 59, 93
2, 10798, Note_on_c, 0, 44, 0
2, 10808, Note_on_c, 0, 44, 96
2, 10913, Note_on_c, 0, 52, 0
2, 10917, Note_on_c, 0, 52, 95
2, 11043, Note_on_c, 0, 32, 0
2, 11043, Note_on_c, 0, 44, 0
2, 11053, Note_on_c, 0, 44, 85
2, 11054, Note_on_c, 0, 32, 81
2, 11054, Note_on_c, 0, 61, 101
2, 11096, Note_on_c, 0, 63, 89
2, 11105, Note_on_c, 0, 64, 0
2, 11116, Note_on_c, 0, 64, 93
2, 11159, Note_on_c, 0, 47, 0
2, 11159, Note_on_c, 0, 66, 0
2, 11166, Note_on_c, 0, 44, 0
2, 11169, Note_on_c, 0, 47, 86
2, 11170, Note_on_c, 0, 66, 100
2, 11175, Note_on_c, 0, 44, 87
2, 11277, Control_c, 0, 64, 0
2, 11286, Note_on_c, 0, 66, 0
2, 11287, Note_on_c, 0, 56, 0
2, 11287, Note_on_c, 0, 32, 0
2, 11287, Note_on_c, 0, 44, 0
2, 11287, Note_on_c, 0, 59, 0
2, 11297, Note_on_c, 0, 57, 0
2, 11297, Note_on_c, 0, 61, 0
2, 11297, Note_on_c, 0, 64, 0
2, 11299, Note_on_c, 0, 69, 108
2, 11302, Note_on_c, 0, 64, 101
2, 11303, Note_on_c, 0, 57, 106
2, 11304, Note_on_c, 0, 47, 0
2, 11304, Note_on_c, 0, 52, 0
2, 11304, Note_on_c, 0, 63, 0
2, 11304, Note_on_c, 0, 68, 0
2, 11308, Note_on_c, 0, 61, 98
2, 11309, Note_on_c, 0, 52, 99
2, 11309, Note_on_c, 0, 49, 98
2, 11351, Control_c, 0, 64, 127
2, 11438, Note_on_c, 0, 33, 102
2, 11561, Note_on_c, 0, 45, 101
2, 11688, Note_on_c, 0, 49, 0
2, 11688, Note_on_c, 0, 52, 0
2, 11695, Note_on_c, 0, 52, 100
2, 11699, Note_on_c, 0, 49, 100
2, 11827, Note_on_c, 0, 33, 0
2, 11831, Note_on_c, 0, 33, 90
2, 11942, Note_on_c, 0, 45, 0
2, 11950, Note_on_c, 0, 45, 102
2, 11976, Note_on_c, 0, 68, 102
2, 12088, Note_on_c, 0, 49, 0
2, 12088, Note_on_c, 0, 52, 0
2, 12088, Note_on_c, 0, 69, 0
2, 12092, Note_on_c, 0, 69, 103
2, 12092, Note_on_c, 0, 49, 95
2, 12092, Note_on_c, 0, 52, 93
2, 12193, Note_on_c, 0, 33, 0
2, 12193, Note_on_c, 0, 57, 0
2, 12195, Note_on_c, 0, 52, 0
2, 12195, Note_on_c, 0, 68, 0
2, 12197, Note_on_c, 0, 45, 0
2, 12198, Control_c, 0, 64, 0
2, 12198, Note_on_c, 0, 64, 0
2, 12198, Note_on_c, 0, 49, 0
2, 12198, Note_on_c, 0, 61, 0
2, 12226, Note_on_c, 0, 69, 0
2, 12231, Note_on_c, 0, 75, 109
2, 12233, Note_on_c, 0, 47, 102
2, 12236, Note_on_c, 0, 63, 109
2, 12236, Note_on_c, 0, 69, 99
2, 12236, Note_on_c, 0, 54, 104
2, 12418, Control_c, 0, 64, 127
2, 12486, Note_on_c, 0, 35, 96
2, 12610, Note_on_c, 0, 47, 0
2, 12615, Note_on_c, 0, 47, 104
2, 12615, Note_on_c, 0, 42, 103
2, 12868, Note_on_c, 0, 59, 101
2, 12921, Note_on_c, 0, 57, 93
2, 12963, Note_on_c, 0, 54, 0
2, 12974, Note_on_c, 0, 54, 95
2, 13017, Note_on_c, 0, 52, 70
2, 13040, Note_on_c, 0, 47, 0
2, 13048, Note_on_c, 0, 42, 0
2, 13052, Note_on_c, 0, 47, 97
2, 13163, Note_on_c, 0, 35, 0
2, 13172, Note_on_c, 0, 35, 96
2, 13206, Control_c, 0, 64, 0
2, 13221, Note_on_c, 0, 35, 0
2, 13221, Note_on_c, 0, 54, 0
2, 13221, Note_on_c, 0, 75, 0
2, 13222, Note_on_c, 0, 59, 0
2, 13222, Note_on_c, 0, 52, 0
2, 13223, Note_on_c, 0, 47, 0
2, 13224, Note_on_c, 0, 69, 0
2, 13224, Note_on_c, 0, 57, 0
2, 13226, Note_on_c, 0, 63, 0
2, 13442, Note_on_c, 0, 61, 105
2, 13443, Note_on_c, 0, 53, 96
2, 13444, Note_on_c, 0, 56, 94
2, 13445, Note_on_c, 0, 49, 97
2, 13450, Note_on_c, 0, 37, 94
2, 13470, Control_c, 0, 64, 127
2, 13700, Note_on_c, 0, 37, 0
2, 13701, Note_on_c, 0, 53, 0
2, 13701, Note_on_c, 0, 56, 0
2, 13708, Note_on_c, 0, 49, 0
2, 13708, Note_on_c, 0, 61, 0
2, 13711, Note_on_c, 0, 56, 96
2, 13712, Note_on_c, 0, 53, 83
2, 13713, Note_on_c, 0, 61, 105
2, 13717, Note_on_c, 0, 49, 95
2, 13718, Control_c, 0, 64, 0
2, 13758, Note_on_c, 0, 61, 0
2, 13758, Note_on_c, 0, 49, 0
2, 13762, Note_on_c, 0, 53, 0
2, 13762, Note_on_c, 0, 56, 0
2, 13980, Note_on_c, 0, 60, 99
2, 14039, Control_c, 0, 64, 127
2, 14119, Note_on_c, 0, 61, 92
2, 14235, Note_on_c, 0, 49, 88
2, 14236, Note_on_c, 0, 37, 93
2, 14286, Control_c, 0, 64, 0
2, 14287, Note_on_c, 0, 61, 0
2, 14288, Note_on_c, 0, 60, 0
2, 14289, Note_on_c, 0, 37, 0
2, 14290, Note_on_c, 0, 49, 0
2, 14373, Note_on_c, 0, 63, 103
2, 14374, Note_on_c, 0, 39, 101
2, 14374, Note_on_c, 0, 51, 101
2, 14375, Note_on_c, 0, 58, 96
2, 14376, Note_on_c, 0, 54, 95
2, 14415, Control_c, 0, 64, 127
2, 14615, Note_on_c, 0, 63, 0
2, 14622, Note_on_c, 0, 51, 0
2, 14625, Note_on_c, 0, 63, 99
2, 14630, Note_on_c, 0, 51, 83
2, 14745, Note_on_c, 0, 54, 0
2, 14745, Note_on_c, 0, 58, 0
2, 14745, Note_on_c, 0, 63, 0
2, 14754, Note_on_c, 0, 63, 99
2, 14756, Note_on_c, 0, 58, 91
2, 14757, Note_on_c, 0, 54, 94
2, 14764, Control_c, 0, 64, 0
2, 14773, Note_on_c, 0, 51, 0
2, 14775, Note_on_c, 0, 39, 0
2, 14814, Note_on_c, 0, 54, 0
2, 14814, Note_on_c, 0, 58, 0
2, 14814, Note_on_c, 0, 63, 0
2, 14878, Note_on_c, 0, 63, 98
2, 14946, Note_on_c, 0, 63, 0
2, 15006, Note_on_c, 0, 61, 97
2, 15137, Note_on_c, 0, 61, 0
2, 15137, Control_c, 0, 64, 127
2, 15140, Note_on_c, 0, 39, 93
2, 15141, Note_on_c, 0, 61, 93
2, 15266, Note_on_c, 0, 63, 105
2, 15270, Note_on_c, 0, 46, 97
2, 15271, Note_on_c, 0, 54, 95
2, 15470, Control_c, 0, 64, 0
2, 15470, Note_on_c, 0, 46, 0
2, 15471, Note_on_c, 0, 54, 0
2, 15471, Note_on_c, 0, 61, 0
2, 15471, Note_on_c, 0, 63, 0
2, 15471, Note_on_c, 0, 39, 0
2, 15537, Note_on_c, 0, 65, 100
2, 15540, Note_on_c, 0, 53, 91
2, 15543, Note_on_c, 0, 61, 106
2, 15546, Note_on_c, 0, 49, 98
2, 15547, Note_on_c, 0, 41, 95
2, 15547, Note_on_c, 0, 56, 101
2, 15605, Control_c, 0, 64, 127
2, 15768, Control_c, 0, 64, 0
2, 15805, Note_on_c, 0, 53, 0
2, 15805, Note_on_c, 0, 56, 0
2, 15805, Note_on_c, 0, 61, 0
2, 15813, Note_on_c, 0, 66, 106
2, 15815, Note_on_c, 0, 53, 96
2, 15815, Note_on_c, 0, 61, 94
2, 15816, Note_on_c, 0, 56, 95
2, 15846, Note_on_c, 0, 49, 0
2, 15849, Note_on_c, 0, 41, 0
2, 15851, Note_on_c, 0, 61, 0
2, 15853, Note_on_c, 0, 65, 0
2, 15853, Note_on_c, 0, 56, 0
2, 15855, Note_on_c, 0, 53, 0
2, 15874, Note_on_c, 0, 66, 0
2, 15945, Note_on_c, 0, 68, 106
2, 16200, Note_on_c, 0, 41, 96
2, 16200, Note_on_c, 0, 60, 82
2, 16201, Note_on_c, 0, 63, 101
2, 16296, Control_c, 0, 64, 127
2, 16330, Note_on_c, 0, 48, 91
2, 16330, Note_on_c, 0, 56, 89
2, 16447, Control_c, 0, 64, 0
2, 16458, Note_on_c, 0, 63, 0
2, 16461, Note_on_c, 0, 48, 0
2, 16461, Note_on_c, 0, 41, 0
2, 16461, Note_on_c, 0, 68, 0
2, 16468, Note_on_c, 0, 63, 106
2, 16473, Note_on_c, 0, 56, 0
2, 16475, Note_on_c, 0, 53, 90
2, 16475, Note_on_c, 0, 34, 99
2, 16477, Note_on_c, 0, 56, 86
2, 16481, Note_on_c, 0, 60, 0
2, 16731, Note_on_c, 0, 41, 80
2, 16731, Note_on_c, 0, 61, 98
2, 16857, Note_on_c, 0, 61, 0
2, 16861, Note_on_c, 0, 48, 95
2, 16868, Note_on_c, 0, 61, 102
2, 16993, Note_on_c, 0, 49, 97
2, 17218, Control_c, 0, 64, 127
2, 17249, Note_on_c, 0, 41, 0
2, 17259, Note_on_c, 0, 41, 93
2, 17379, Note_on_c, 0, 34, 0
2, 17384, Note_on_c, 0, 34, 81
2, 17496, Note_on_c, 0, 58, 95
2, 17541, Note_on_c, 0, 61, 0
2, 17546, Note_on_c, 0, 61, 91
2, 17548, Note_on_c, 0, 49, 0
2, 17559, Note_on_c, 0, 49, 56
2, 17577, Note_on_c, 0, 34, 0
2, 17579, Note_on_c, 0, 48, 0
2, 17579, Control_c, 0, 64, 0
2, 17581, Note_on_c, 0, 56, 0
2, 17581, Note_on_c, 0, 41, 0
2, 17581, Note_on_c, 0, 66, 83
2, 17584, Note_on_c, 0, 63, 0
2, 17584, Note_on_c, 0, 58, 0
2, 17587, Note_on_c, 0, 53, 0
2, 17602, Note_on_c, 0, 49, 0
2, 17610, Note_on_c, 0, 61, 0
2, 17644, Note_on_c, 0, 68, 105
2, 17644, Note_on_c, 0, 42, 98
2, 17644, Note_on_c, 0, 49, 97
2, 17645, Note_on_c, 0, 54, 99
2, 17645, Note_on_c, 0, 58, 100
2, 17645, Note_on_c, 0, 61, 97
2, 17687, Control_c, 0, 64, 127
2, 17897, Note_on_c, 0, 42, 0
2, 17898, Note_on_c, 0, 61, 0
2, 17898, Note_on_c, 0, 66, 0
2, 17900, Control_c, 0, 64, 0
2, 17902, Note_on_c, 0, 68, 0
2, 17909, Note_on_c, 0, 68, 103
2, 17909, Note_on_c, 0, 54, 0
2, 17909, Note_on_c, 0, 58, 0
2, 17917, Note_on_c, 0, 49, 0
2, 17919, Note_on_c, 0, 54, 84
2, 17920, Note_on_c, 0, 58, 97
2, 17921, Note_on_c, 0, 49, 87
2, 17959, Note_on_c, 0, 68, 0
2, 17959, Note_on_c, 0, 58, 0
2, 17966, Note_on_c, 0, 49, 0
2, 17994, Note_on_c, 0, 54, 0
2, 18050, Note_on_c, 0, 68, 103
2, 18297, Note_on_c, 0, 61, 96
2, 18298, Note_on_c, 0, 42, 94
2, 18347, Control_c, 0, 64, 127
2, 18443, Note_on_c, 0, 58, 96
2, 18443, Note_on_c, 0, 49, 90
2, 18551, Note_on_c, 0, 68, 0
2, 18551, Note_on_c, 0, 42, 0
2, 18551, Note_on_c, 0, 61, 0
2, 18552, Note_on_c, 0, 49, 0
2, 18554, Note_on_c, 0, 58, 0
2, 18559, Control_c, 0, 64, 0
2, 18567, Note_on_c, 0, 60, 101
2, 18570, Note_on_c, 0, 41, 97
2, 18572, Note_on_c, 0, 56, 104
2, 18816, Note_on_c, 0, 41, 0
2, 18823, Control_c, 0, 64, 127
2, 18823, Note_on_c, 0, 41, 86
2, 18837, Note_on_c, 0, 61, 96
2, 18951, Note_on_c, 0, 48, 91
2, 18972, Note_on_c, 0, 63, 93
2, 19020, Control_c, 0, 64, 0
2, 19028, Note_on_c, 0, 41, 0
2, 19031, Note_on_c, 0, 61, 0
2, 19032, Note_on_c, 0, 48, 0
2, 19032, Note_on_c, 0, 60, 0
2, 19032, Note_on_c, 0, 56, 0
2, 19034, Note_on_c, 0, 63, 0
2, 19098, Note_on_c, 0, 61, 102
2, 19099, Note_on_c, 0, 34, 99
2, 19103, Note_on_c, 0, 53, 96
2, 19106, Note_on_c, 0, 56, 95
2, 19161, Control_c, 0, 64, 127
2, 19357, Note_on_c, 0, 46, 85
2, 19499, Note_on_c, 0, 53, 0
2, 19499, Note_on_c, 0, 56, 0
2, 19506, Note_on_c, 0, 56, 96
2, 19509, Note_on_c, 0, 53, 90
2, 19734, Control_c, 0, 64, 0
2, 19739, Note_on_c, 0, 34, 0
2, 19740, Note_on_c, 0, 56, 0
2, 19741, Note_on_c, 0, 53, 0
2, 19760, Note_on_c, 0, 46, 0
2, 19760, Note_on_c, 0, 61, 0
2, 19769, Note_on_c, 0, 61, 101
2, 19772, Note_on_c, 0, 46, 98
2, 19773, Note_on_c, 0, 39, 92
2, 19774, Note_on_c, 0, 58, 101
2, 19778, Note_on_c, 0, 54, 95
2, 19860, Control_c, 0, 64, 127
2, 20021, Note_on_c, 0, 39, 0
2, 20021, Note_on_c, 0, 58, 0
2, 20031, Note_on_c, 0, 58, 96
2, 20031, Note_on_c, 0, 39, 81
2, 20060, Note_on_c, 0, 54, 0
2, 20064, Note_on_c, 0, 54, 44
2, 20167, Note_on_c, 0, 46, 0
2, 20167, Note_on_c, 0, 54, 0
2, 20167, Note_on_c, 0, 61, 0
2, 20171, Note_on_c, 0, 61, 101
2, 20172, Note_on_c, 0, 54, 90
2, 20174, Control_c, 0, 64, 0
2, 20175, Note_on_c, 0, 46, 86
2, 20244, Control_c, 0, 64, 127
2, 20298, Note_on_c, 0, 39, 0
2, 20305, Note_on_c, 0, 39, 87
2, 20413, Note_on_c, 0, 46, 0
2, 20421, Note_on_c, 0, 54, 0
2, 20424, Note_on_c, 0, 46, 90
2, 20427, Note_on_c, 0, 63, 102
2, 20427, Note_on_c, 0, 54, 89
2, 20528, Note_on_c, 0, 39, 0
2, 20534, Note_on_c, 0, 39, 78
2, 20628, Control_c, 0, 64, 0
2, 20639, Note_on_c, 0, 39, 0
2, 20639, Note_on_c, 0, 61, 0
2, 20639, Note_on_c, 0, 54, 0
2, 20640, Note_on_c, 0, 63, 0
2, 20659, Note_on_c, 0, 46, 0
2, 20659, Note_on_c, 0, 58, 0
2, 20686, Note_on_c, 0, 65, 103
2, 20690, Note_on_c, 0, 56, 100
2, 20693, Note_on_c, 0, 61, 94
2, 20694, Note_on_c, 0, 44, 97
2, 20828, Control_c, 0, 64, 127
2, 20935, Note_on_c, 0, 44, 0
2, 20941, Note_on_c, 0, 44, 82
2, 20942, Note_on_c, 0, 66, 96
2, 21081, Note_on_c, 0, 65, 0
2, 21090, Note_on_c, 0, 65, 97
2, 21092, Note_on_c, 0, 46, 87
2, 21214, Note_on_c, 0, 63, 101
2, 21338, Note_on_c, 0, 48, 89
2, 21609, Note_on_c, 0, 51, 83
2, 21876, Control_c, 0, 64, 0
2, 21876, Note_on_c, 0, 61, 0
2, 21876, Note_on_c, 0, 66, 0
2, 21876, Note_on_c, 0, 46, 0
2, 21876, Note_on_c, 0, 63, 0
2, 21876, Note_on_c, 0, 44, 0
2, 21876, Note_on_c, 0, 56, 0
2, 21876, Note_on_c, 0, 65, 0
2, 21876, Note_on_c, 0, 48, 0
2, 21878, Note_on_c, 0, 51, 0
2, 21889, Note_on_c, 0, 68, 105
2, 21891, Note_on_c, 0, 58, 94
2, 21893, Note_on_c, 0, 49, 87
2, 21897, Note_on_c, 0, 42, 84
2, 22003, Control_c, 0, 64, 127
2, 22028, Note_on_c, 0, 72, 89
2, 22159, Note_on_c, 0, 73, 87
2, 22299, Note_on_c, 0, 80, 80
2, 22302, Note_on_c, 0, 58, 0
2, 22310, Note_on_c, 0, 58, 70
2, 22314, Note_on_c, 0, 61, 75
2, 22417, Note_on_c, 0, 72, 0
2, 22426, Note_on_c, 0, 72, 75
2, 22548, Note_on_c, 0, 73, 0
2, 22559, Note_on_c, 0, 73, 75
2, 22682, Note_on_c, 0, 70, 95
2, 22683, Note_on_c, 0, 54, 82
2, 22809, Note_on_c, 0, 73, 0
2, 22818, Note_on_c, 0, 73, 93
2, 22895, Control_c, 0, 64, 0
2, 22897, Note_on_c, 0, 80, 0
2, 22898, Note_on_c, 0, 70, 0
2, 22899, Note_on_c, 0, 58, 0
2, 22899, Note_on_c, 0, 72, 0
2, 22900, Note_on_c, 0, 49, 0
2, 22902, Note_on_c, 0, 61, 0
2, 22904, Note_on_c, 0, 42, 0
2, 22904, Note_on_c, 0, 54, 0
2, 22906, Note_on_c, 0, 73, 0
2, 22909, Note_on_c, 0, 68, 0
2, 22949, Note_on_c, 0, 68, 103
2, 22956, Note_on_c, 0, 56, 98
2, 22960, Note_on_c, 0, 44, 90
2, 22964, Note_on_c, 0, 51, 88
2, 23082, Note_on_c, 0, 72, 88
2, 23086, Control_c, 0, 64, 127
2, 23205, Note_on_c, 0, 73, 94
2, 23206, Note_on_c, 0, 66, 98
2, 23331, Note_on_c, 0, 56, 0
2, 23334, Note_on_c, 0, 80, 101
2, 23335, Note_on_c, 0, 65, 98
2, 23337, Note_on_c, 0, 60, 87
2, 23340, Note_on_c, 0, 56, 85
2, 23454, Note_on_c, 0, 72, 0
2, 23463, Note_on_c, 0, 72, 83
2, 23592, Note_on_c, 0, 66, 0
2, 23592, Note_on_c, 0, 73, 0
2, 23599, Note_on_c, 0, 73, 95
2, 23604, Note_on_c, 0, 66, 96
2, 23723, Note_on_c, 0, 56, 0
2, 23723, Note_on_c, 0, 60, 0
2, 23729, Note_on_c, 0, 60, 84
2, 23734, Note_on_c, 0, 56, 85
2, 23869, Note_on_c, 0, 68, 0
2, 23874, Note_on_c, 0, 68, 106
2, 23958, Note_on_c, 0, 80, 0
2, 23959, Note_on_c, 0, 44, 0
2, 23959, Note_on_c, 0, 51, 0
2, 23959, Note_on_c, 0, 56, 0
2, 23960, Note_on_c, 0, 60, 0
2, 23960, Note_on_c, 0, 73, 0
2, 23960, Note_on_c, 0, 72, 0
2, 23961, Note_on_c, 0, 65, 0
2, 23961, Control_c, 0, 64, 0
2, 23976, Note_on_c, 0, 66, 0
2, 24009, Note_on_c, 0, 48, 86
2, 24010, Note_on_c, 0, 41, 87
2, 24010, Note_on_c, 0, 56, 94
2, 24150, Note_on_c, 0, 72, 94
2, 24274, Note_on_c, 0, 73, 89
2, 24330, Control_c, 0, 64, 127
2, 24392, Note_on_c, 0, 80, 93
2, 24394, Note_on_c, 0, 63, 95
2, 24395, Note_on_c, 0, 60, 78
2, 24514, Note_on_c, 0, 72, 0
2, 24524, Note_on_c, 0, 72, 86
2, 24652, Note_on_c, 0, 73, 0
2, 24664, Note_on_c, 0, 73, 85
2, 24775, Note_on_c, 0, 56, 0
2, 24782, Note_on_c, 0, 56, 94
2, 24783, Note_on_c, 0, 68, 0
2, 24790, Note_on_c, 0, 68, 107
2, 24913, Note_on_c, 0, 73, 0
2, 24918, Note_on_c, 0, 73, 82
2, 25025, Control_c, 0, 64, 0
2, 25033, Note_on_c, 0, 80, 0
2, 25039, Note_on_c, 0, 41, 0
2, 25039, Note_on_c, 0, 48, 0
2, 25040, Note_on_c, 0, 73, 0
2, 25040, Note_on_c, 0, 68, 0
2, 25040, Note_on_c, 0, 63, 0
2, 25040, Note_on_c, 0, 60, 0
2, 25052, Note_on_c, 0, 72, 0
2, 25059, Note_on_c, 0, 56, 0
2, 25061, Note_on_c, 0, 72, 107
2, 25063, Note_on_c, 0, 46, 102
2, 25063, Note_on_c, 0, 53, 96
2, 25064, Note_on_c, 0, 61, 103
2, 25121, Control_c, 0, 64, 127
2, 25347, Note_on_c, 0, 73, 106
2, 25480, Note_on_c, 0, 65, 106
2, 25480, Note_on_c, 0, 80, 97
2, 25620, Note_on_c, 0, 72, 0
2, 25624, Note_on_c, 0, 72, 95
2, 25751, Note_on_c, 0, 73, 0
2, 25753, Note_on_c, 0, 63, 99
2, 25758, Note_on_c, 0, 73, 98
2, 25889, Note_on_c, 0, 80, 0
2, 25894, Note_on_c, 0, 80, 95
2, 25950, Note_on_c, 0, 73, 0
2, 25955, Note_on_c, 0, 73, 97
2, 26007, Note_on_c, 0, 68, 100
2, 26115, Control_c, 0, 64, 0
2, 26122, Note_on_c, 0, 80, 0
2, 26123, Note_on_c, 0, 72, 0
2, 26124, Note_on_c, 0, 61, 0
2, 26125, Note_on_c, 0, 63, 0
2, 26126, Note_on_c, 0, 46, 0
2, 26126, Note_on_c, 0, 53, 0
2, 26126, Note_on_c, 0, 65, 0
2, 26126, Note_on_c, 0, 73, 0
2, 26129, Note_on_c, 0, 68, 0
2, 26154, Note_on_c, 0, 58, 99
2, 26154, Note_on_c, 0, 61, 100
2, 26154, Note_on_c, 0, 49, 94
2, 26155, Note_on_c, 0, 42, 84
2, 26227, Control_c, 0, 64, 127
2, 26403, Note_on_c, 0, 42, 0
2, 26411, Note_on_c, 0, 61, 0
2, 26413, Note_on_c, 0, 42, 76
2, 26415, Note_on_c, 0, 61, 93
2, 26432, Control_c, 0, 64, 0
2, 26454, Note_on_c, 0, 42, 0
2, 26455, Note_on_c, 0, 61, 0
2, 26456, Note_on_c, 0, 58, 0
2, 26460, Note_on_c, 0, 49, 0
2, 26541, Note_on_c, 0, 61, 95
2, 26559, Note_on_c, 0, 58, 86
2, 26561, Note_on_c, 0, 49, 79
2, 26599, Note_on_c, 0, 49, 0
2, 26600, Note_on_c, 0, 58, 0
2, 26672, Note_on_c, 0, 61, 0
2, 26682, Note_on_c, 0, 61, 73
2, 26682, Note_on_c, 0, 42, 89
2, 26726, Control_c, 0, 64, 127
2, 26804, Note_on_c, 0, 58, 94
2, 26805, Note_on_c, 0, 49, 82
2, 26805, Note_on_c, 0, 60, 97
2, 26903, Note_on_c, 0, 42, 0
2, 26913, Note_on_c, 0, 42, 77
2, 26926, Note_on_c, 0, 61, 0
2, 26937, Note_on_c, 0, 61, 98
2, 26989, Note_on_c, 0, 42, 0
2, 26991, Note_on_c, 0, 60, 0
2, 26991, Note_on_c, 0, 58, 0
2, 26992, Control_c, 0, 64, 0
2, 26993, Note_on_c, 0, 49, 0
2, 26995, Note_on_c, 0, 61, 0
2, 27075, Note_on_c, 0, 56, 96
2, 27080, Note_on_c, 0, 63, 96
2, 27083, Note_on_c, 0, 48, 89
2, 27083, Note_on_c, 0, 41, 87
2, 27098, Note_on_c, 0, 60, 88
2, 27187, Control_c, 0, 64, 127
2, 27325, Note_on_c, 0, 41, 0
2, 27330, Note_on_c, 0, 41, 74
2, 27335, Note_on_c, 0, 68, 102
2, 27456, Note_on_c, 0, 48, 0
2, 27456, Note_on_c, 0, 63, 0
2, 27460, Note_on_c, 0, 48, 78
2, 27463, Note_on_c, 0, 56, 0
2, 27467, Note_on_c, 0, 63, 95
2, 27469, Note_on_c, 0, 56, 79
2, 27493, Control_c, 0, 64, 0
2, 27513, Note_on_c, 0, 60, 0
2, 27520, Note_on_c, 0, 41, 0
2, 27521, Note_on_c, 0, 56, 0
2, 27571, Note_on_c, 0, 48, 0
2, 27599, Note_on_c, 0, 46, 94
2, 27602, Note_on_c, 0, 61, 103
2, 27603, Note_on_c, 0, 53, 90
2, 27605, Note_on_c, 0, 56, 97
2, 27801, Control_c, 0, 64, 127
2, 27832, Note_on_c, 0, 46, 0
2, 27843, Note_on_c, 0, 46, 103
2, 27955, Note_on_c, 0, 53, 0
2, 27960, Note_on_c, 0, 53, 95
2, 28001, Note_on_c, 0, 56, 0
2, 28006, Note_on_c, 0, 56, 91
2, 28047, Note_on_c, 0, 61, 0
2, 28058, Note_on_c, 0, 61, 98
2, 28109, Note_on_c, 0, 65, 96
2, 28173, Control_c, 0, 64, 0
2, 28181, Note_on_c, 0, 65, 0
2, 28181, Note_on_c, 0, 56, 0
2, 28181, Note_on_c, 0, 53, 0
2, 28185, Note_on_c, 0, 63, 0
2, 28185, Note_on_c, 0, 68, 0
2, 28200, Note_on_c, 0, 46, 0
2, 28200, Note_on_c, 0, 61, 0
2, 28226, Note_on_c, 0, 69, 106
2, 28228, Note_on_c, 0, 64, 98
2, 28229, Note_on_c, 0, 45, 109
2, 28230, Note_on_c, 0, 57, 104
2, 28231, Note_on_c, 0, 61, 100
2, 28232, Note_on_c, 0, 33, 98
2, 28354, Control_c, 0, 64, 127
2, 28485, Note_on_c, 0, 33, 0
2, 28485, Note_on_c, 0, 45, 0
2, 28492, Control_c, 0, 64, 0
2, 28493, Note_on_c, 0, 33, 87
2, 28494, Note_on_c, 0, 45, 101
2, 28500, Note_on_c, 0, 69, 0
2, 28504, Note_on_c, 0, 69, 103
2, 28577, Control_c, 0, 64, 127
2, 28625, Note_on_c, 0, 52, 87
2, 28627, Note_on_c, 0, 49, 92
2, 28753, Note_on_c, 0, 45, 0
2, 28753, Note_on_c, 0, 69, 0
2, 28764, Note_on_c, 0, 69, 106
2, 28765, Note_on_c, 0, 45, 105
2, 28892, Note_on_c, 0, 49, 0
2, 28892, Note_on_c, 0, 52, 0
2, 28895, Note_on_c, 0, 68, 107
2, 28896, Note_on_c, 0, 52, 89
2, 28898, Note_on_c, 0, 49, 97
2, 28999, Note_on_c, 0, 45, 0
2, 29010, Note_on_c, 0, 45, 91
2, 29118, Note_on_c, 0, 33, 0
2, 29119, Note_on_c, 0, 45, 0
2, 29119, Note_on_c, 0, 68, 0
2, 29119, Note_on_c, 0, 52, 0
2, 29119, Note_on_c, 0, 49, 0
2, 29119, Note_on_c, 0, 64, 0
2, 29119, Note_on_c, 0, 69, 0
2, 29120, Note_on_c, 0, 61, 0
2, 29120, Control_c, 0, 64, 0
2, 29130, Note_on_c, 0, 57, 0
2, 29159, Note_on_c, 0, 66, 109
2, 29162, Note_on_c, 0, 30, 103
2, 29162, Note_on_c, 0, 42, 105
2, 29163, Note_on_c, 0, 57, 103
2, 29164, Note_on_c, 0, 61, 99
2, 29376, Control_c, 0, 64, 127
2, 29399, Note_on_c, 0, 30, 0
2, 29423, Note_on_c, 0, 52, 95
2, 29425, Note_on_c, 0, 49, 85
2, 29544, Note_on_c, 0, 42, 0
2, 29555, Note_on_c, 0, 42, 100
2, 29683, Note_on_c, 0, 52, 0
2, 29683, Note_on_c, 0, 66, 0
2, 29690, Note_on_c, 0, 49, 0
2, 29693, Note_on_c, 0, 66, 104
2, 29693, Note_on_c, 0, 52, 86
2, 29695, Note_on_c, 0, 49, 94
2, 29813, Note_on_c, 0, 42, 0
2, 29813, Note_on_c, 0, 66, 0
2, 29818, Note_on_c, 0, 61, 0
2, 29819, Note_on_c, 0, 42, 102
2, 29824, Note_on_c, 0, 66, 103
2, 29952, Note_on_c, 0, 52, 0
2, 29959, Note_on_c, 0, 52, 89
2, 29963, Note_on_c, 0, 64, 100
2, 30067, Note_on_c, 0, 49, 0
2, 30067, Note_on_c, 0, 66, 0
2, 30075, Note_on_c, 0, 49, 88
2, 30077, Note_on_c, 0, 66, 99
2, 30184, Control_c, 0, 64, 0
2, 30184, Note_on_c, 0, 57, 0
2, 30184, Note_on_c, 0, 52, 0
2, 30184, Note_on_c, 0, 49, 0
2, 30185, Note_on_c, 0, 66, 0
2, 30185, Note_on_c, 0, 42, 0
2, 30185, Note_on_c, 0, 64, 0
2, 30237, Note_on_c, 0, 71, 104
2, 30239, Note_on_c, 0, 47, 110
2, 30240, Note_on_c, 0, 59, 108
2, 30240, Note_on_c, 0, 35, 103
2, 30247, Note_on_c, 0, 66, 94
2, 30320, Control_c, 0, 64, 127
2, 30489, Note_on_c, 0, 47, 0
2, 30500, Note_on_c, 0, 47, 100
2, 30574, Note_on_c, 0, 59, 0
2, 30582, Note_on_c, 0, 59, 71
2, 30646, Note_on_c, 0, 52, 89
2, 30711, Note_on_c, 0, 64, 98
2, 30779, Note_on_c, 0, 51, 89
2, 30838, Note_on_c, 0, 63, 93
2, 30904, Note_on_c, 0, 47, 0
2, 30915, Note_on_c, 0, 47, 92
2, 30965, Note_on_c, 0, 59, 0
2, 30976, Note_on_c, 0, 59, 87
2, 31053, Note_on_c, 0, 54, 99
2, 31104, Note_on_c, 0, 66, 0
2, 31112, Note_on_c, 0, 66, 102
2, 31180, Note_on_c, 0, 52, 0
2, 31188, Note_on_c, 0, 52, 89
2, 31234, Note_on_c, 0, 64, 0
2, 31238, Note_on_c, 0, 64, 96
2, 31303, Note_on_c, 0, 47, 0
2, 31309, Note_on_c, 0, 47, 100
2, 31349, Note_on_c, 0, 59, 0
2, 31357, Note_on_c, 0, 59, 99
2, 31444, Note_on_c, 0, 56, 95
2, 31492, Note_on_c, 0, 68, 101
2, 31572, Note_on_c, 0, 54, 0
2, 31582, Note_on_c, 0, 54, 95
2, 31633, Note_on_c, 0, 54, 0
2, 31633, Note_on_c, 0, 66, 0
2, 31639, Note_on_c, 0, 54, 81
2, 31640, Note_on_c, 0, 66, 100
2, 31695, Note_on_c, 0, 47, 0
2, 31705, Note_on_c, 0, 47, 99
2, 31749, Note_on_c, 0, 59, 0
2, 31757, Note_on_c, 0, 59, 96
2, 31837, Note_on_c, 0, 57, 105
2, 31892, Note_on_c, 0, 69, 102
2, 31964, Note_on_c, 0, 56, 0
2, 31973, Note_on_c, 0, 56, 93
2, 32025, Note_on_c, 0, 68, 0
2, 32029, Note_on_c, 0, 68, 100
2, 32094, Note_on_c, 0, 47, 0
2, 32098, Note_on_c, 0, 47, 94
2, 32140, Note_on_c, 0, 59, 0
2, 32145, Note_on_c, 0, 59, 90
2, 32225, Note_on_c, 0, 54, 0
2, 32225, Note_on_c, 0, 66, 0
2, 32229, Note_on_c, 0, 54, 103
2, 32231, Note_on_c, 0, 66, 105
2, 32260, Control_c, 0, 64, 0
2, 32265, Note_on_c, 0, 69, 0
2, 32265, Note_on_c, 0, 52, 0
2, 32265, Note_on_c, 0, 57, 0
2, 32265, Note_on_c, 0, 64, 0
2, 32265, Note_on_c, 0, 59, 0
2, 32265, Note_on_c, 0, 68, 0
2, 32266, Note_on_c, 0, 51, 0
2, 32266, Note_on_c, 0, 71, 0
2, 32266, Note_on_c, 0, 56, 0
2, 32286, Note_on_c, 0, 35, 0
2, 32294, Note_on_c, 0, 63, 0
2, 32365, Note_on_c, 0, 59, 110
2, 32367, Note_on_c, 0, 71, 106
2, 32401, Control_c, 0, 64, 127
2, 32616, Note_on_c, 0, 59, 0
2, 32626, Note_on_c, 0, 59, 95
2, 32720, Note_on_c, 0, 64, 98
2, 32724, Note_on_c, 0, 47, 0
2, 32732, Note_on_c, 0, 47, 108
2, 32739, Note_on_c, 0, 35, 95
2, 32747, Note_on_c, 0, 66, 0
2, 32786, Note_on_c, 0, 66, 80
2, 32839, Note_on_c, 0, 71, 0
2, 32847, Note_on_c, 0, 71, 97
2, 32931, Note_on_c, 0, 71, 0
2, 32942, Note_on_c, 0, 71, 89
2, 32993, Note_on_c, 0, 47, 0
2, 32997, Note_on_c, 0, 47, 103
2, 33007, Note_on_c, 0, 76, 96
2, 33074, Note_on_c, 0, 78, 97
2, 33130, Note_on_c, 0, 52, 91
2, 33142, Note_on_c, 0, 83, 100
2, 33223, Note_on_c, 0, 83, 0
2, 33234, Note_on_c, 0, 83, 87
2, 33239, Note_on_c, 0, 54, 0
2, 33243, Note_on_c, 0, 54, 99
2, 33282, Note_on_c, 0, 88, 108
2, 33329, Note_on_c, 0, 90, 104
2, 33377, Note_on_c, 0, 59, 0
2, 33382, Note_on_c, 0, 59, 106
2, 33384, Note_on_c, 0, 83, 0
2, 33389, Note_on_c, 0, 95, 112
2, 33391, Note_on_c, 0, 83, 107
2, 33630, Note_on_c, 0, 47, 0
2, 33638, Note_on_c, 0, 35, 0
2, 33640, Note_on_c, 0, 47, 110
2, 33642, Note_on_c, 0, 35, 96
2, 33768, Note_on_c, 0, 35, 0
2, 33768, Note_on_c, 0, 47, 0
2, 33773, Note_on_c, 0, 47, 104
2, 33777, Note_on_c, 0, 35, 95
2, 33866, Control_c, 0, 64, 0
2, 33868, Note_on_c, 0, 35, 0
2, 33868, Note_on_c, 0, 47, 0
2, 33871, Note_on_c, 0, 90, 0
2, 33871, Note_on_c, 0, 78, 0
2, 33872, Note_on_c, 0, 54, 0
2, 33872, Note_on_c, 0, 95, 0
2, 33872, Note_on_c, 0, 71, 0
2, 33872, Note_on_c, 0, 59, 0
2, 33872, Note_on_c, 0, 83, 0
2, 33872, Note_on_c, 0, 88, 0
2, 33872, Note_on_c, 0, 66, 0
2, 33872, Note_on_c, 0, 52, 0
2, 33872, Note_on_c, 0, 64, 0
2, 33872, Note_on_c, 0, 76, 0
2, 33877, Note_on_c, 0, 47, 101
2, 33879, Note_on_c, 0, 35, 89
2, 33953, Note_on_c, 0, 35, 0
2, 33968, Note_on_c, 0, 47, 0
2, 34028, Note_on_c, 0, 101, 109
2, 34041, Note_on_c, 0, 103, 108
2, 34046, Note_on_c, 0, 100, 103
2, 34074, Note_on_c, 0, 98, 107
2, 34080, Note_on_c, 0, 96, 104
2, 34082, Note_on_c, 0, 95, 97
2, 34095, Note_on_c, 0, 93, 104
2, 34106, Control_c, 0, 64, 127
2, 34111, Note_on_c, 0, 89, 102
2, 34117, Note_on_c, 0, 91, 98
2, 34123, Note_on_c, 0, 88, 97
2, 34141, Note_on_c, 0, 86, 93
2, 34152, Note_on_c, 0, 103, 0
2, 34155, Note_on_c, 0, 84, 90
2, 34179, Note_on_c, 0, 83, 86
2, 34180, Note_on_c, 0, 81, 90
2, 34186, Note_on_c, 0, 79, 94
2, 34203, Note_on_c, 0, 77, 83
2, 34210, Note_on_c, 0, 76, 87
2, 34240, Note_on_c, 0, 74, 77
2, 34246, Note_on_c, 0, 72, 75
2, 34255, Note_on_c, 0, 71, 83
2, 34256, Note_on_c, 0, 69, 82
2, 34272, Note_on_c, 0, 67, 74
2, 34285, Note_on_c, 0, 64, 87
2, 34285, Note_on_c, 0, 65, 88
2, 34306, Note_on_c, 0, 62, 84
2, 34319, Note_on_c, 0, 60, 82
2, 34323, Note_on_c, 0, 57, 91
2, 34325, Note_on_c, 0, 59, 84
2, 34334, Note_on_c, 0, 55, 85
2, 34371, Note_on_c, 0, 48, 86
2, 34381, Note_on_c, 0, 43, 95
2, 34383, Note_on_c, 0, 41, 85
2, 34386, Note_on_c, 0, 47, 90
2, 34388, Note_on_c, 0, 45, 89
2, 34408, Control_c, 0, 64, 0
2, 34416, Note_on_c, 0, 65, 0
2, 34417, Note_on_c, 0, 69, 0
2, 34417, Note_on_c, 0, 89, 0
2, 34417, Note_on_c, 0, 77, 0
2, 34417, Note_on_c, 0, 95, 0
2, 34418, Note_on_c, 0, 60, 0
2, 34418, Note_on_c, 0, 67, 0
2, 34418, Note_on_c, 0, 57, 0
2, 34418, Note_on_c, 0, 88, 0
2, 34418, Note_on_c, 0, 64, 0
2, 34418, Note_on_c, 0, 98, 0
2, 34418, Note_on_c, 0, 86, 0
2, 34418, Note_on_c, 0, 79, 0
2, 34418, Note_on_c, 0, 71, 0
2, 34418, Note_on_c, 0, 84, 0
2, 34418, Note_on_c, 0, 96, 0
2, 34418, Note_on_c, 0, 62, 0
2, 34419, Note_on_c, 0, 83, 0
2, 34419, Note_on_c, 0, 45, 0
2, 34419, Note_on_c, 0, 74, 0
2, 34419, Note_on_c, 0, 72, 0
2, 34420, Note_on_c, 0, 59, 0
2, 34420, Note_on_c, 0, 76, 0
2, 34420, Note_on_c, 0, 91, 0
2, 34420, Note_on_c, 0, 81, 0
2, 34420, Note_on_c, 0, 100, 0
2, 34421, Note_on_c, 0, 101, 0
2, 34421, Note_on_c, 0, 93, 0
2, 34423, Note_on_c, 0, 48, 0
2, 34425, Note_on_c, 0, 47, 0
2, 34427, Note_on_c, 0, 43, 0
2, 34437, Note_on_c, 0, 41, 0
2, 34437, Note_on_c, 0, 55, 0
2, 34573, Note_on_c, 0, 83, 109
2, 34575, Note_on_c, 0, 71, 107
2, 34576, Note_on_c, 0, 80, 102
2, 34579, Note_on_c, 0, 76, 102
2, 34581, Note_on_c, 0, 40, 95
2, 34582, Note_on_c, 0, 28, 99
2, 34606, Control_c, 0, 64, 127
2, 34836, Note_on_c, 0, 71, 0
2, 34836, Note_on_c, 0, 76, 0
2, 34836, Note_on_c, 0, 83, 0
2, 34840, Note_on_c, 0, 59, 100
2, 34841, Note_on_c, 0, 83, 105
2, 34841, Note_on_c, 0, 71, 101
2, 34844, Note_on_c, 0, 80, 0
2, 34846, Note_on_c, 0, 56, 86
2, 34847, Note_on_c, 0, 76, 100
2, 34848, Note_on_c, 0, 80, 94
2, 34849, Note_on_c, 0, 47, 80
2, 34971, Note_on_c, 0, 52, 94
2, 34974, Note_on_c, 0, 71, 0
2, 34974, Note_on_c, 0, 83, 0
2, 34979, Note_on_c, 0, 83, 103
2, 34982, Note_on_c, 0, 76, 0
2, 34985, Note_on_c, 0, 71, 98
2, 34988, Note_on_c, 0, 76, 86
2, 35082, Note_on_c, 0, 56, 0
2, 35082, Note_on_c, 0, 59, 0
2, 35088, Note_on_c, 0, 59, 102
2, 35088, Note_on_c, 0, 56, 95
2, 35197, Note_on_c, 0, 80, 0
2, 35203, Note_on_c, 0, 80, 100
2, 35228, Note_on_c, 0, 40, 0
2, 35232, Note_on_c, 0, 40, 89
2, 35241, Note_on_c, 0, 81, 107
2, 35343, Note_on_c, 0, 52, 0
2, 35349, Note_on_c, 0, 52, 94
2, 35351, Note_on_c, 0, 80, 0
2, 35362, Note_on_c, 0, 80, 104
2, 35402, Control_c, 0, 64, 0
2, 35427, Note_on_c, 0, 47, 0
2, 35430, Note_on_c, 0, 56, 0
2, 35430, Note_on_c, 0, 83, 0
2, 35430, Note_on_c, 0, 52, 0
2, 35430, Note_on_c, 0, 81, 0
2, 35430, Note_on_c, 0, 59, 0
2, 35430, Note_on_c, 0, 71, 0
2, 35430, Note_on_c, 0, 40, 0
2, 35432, Note_on_c, 0, 80, 0
2, 35432, Note_on_c, 0, 76, 0
2, 35443, Note_on_c, 0, 28, 0
2, 35498, Note_on_c, 0, 73, 107
2, 35498, Note_on_c, 0, 78, 110
2, 35500, Note_on_c, 0, 69, 105
2, 35500, Note_on_c, 0, 51, 105
2, 35501, Note_on_c, 0, 39, 99
2, 35543, Control_c, 0, 64, 127
2, 35742, Note_on_c, 0, 51, 0
2, 35748, Note_on_c, 0, 51, 92
2, 35757, Note_on_c, 0, 80, 104
2, 35870, Note_on_c, 0, 61, 94
2, 35871, Note_on_c, 0, 57, 88
2, 35896, Note_on_c, 0, 81, 109
2, 35971, Control_c, 0, 64, 0
2, 35977, Note_on_c, 0, 80, 0
2, 35977, Note_on_c, 0, 78, 0
2, 35978, Note_on_c, 0, 73, 0
2, 35979, Note_on_c, 0, 81, 0
2, 35980, Note_on_c, 0, 39, 0
2, 35980, Note_on_c, 0, 69, 0
2, 35981, Note_on_c, 0, 61, 0
2, 35983, Note_on_c, 0, 51, 0
2, 35983, Note_on_c, 0, 57, 0
2, 36030, Note_on_c, 0, 80, 107
2, 36031, Note_on_c, 0, 72, 105
2, 36031, Note_on_c, 0, 56, 106
2, 36032, Note_on_c, 0, 44, 101
2, 36035, Note_on_c, 0, 75, 102
2, 36080, Control_c, 0, 64, 127
2, 36269, Note_on_c, 0, 32, 94
2, 36341, Note_on_c, 0, 44, 0
2, 36347, Note_on_c, 0, 44, 102
2, 36387, Note_on_c, 0, 75, 0
2, 36398, Note_on_c, 0, 75, 107
2, 36427, Note_on_c, 0, 73, 58
2, 36518, Note_on_c, 0, 32, 0
2, 36527, Note_on_c, 0, 32, 87
2, 36531, Control_c, 0, 64, 0
2, 36548, Note_on_c, 0, 80, 0
2, 36552, Note_on_c, 0, 44, 0
2, 36552, Note_on_c, 0, 56, 0
2, 36552, Note_on_c, 0, 72, 0
2, 36554, Note_on_c, 0, 75, 0
2, 36579, Note_on_c, 0, 73, 0
2, 36595, Note_on_c, 0, 32, 0
2, 36659, Note_on_c, 0, 68, 111
2, 36660, Note_on_c, 0, 76, 108
2, 36661, Note_on_c, 0, 71, 92
2, 36667, Note_on_c, 0, 49, 108
2, 36668, Note_on_c, 0, 37, 102
2, 36695, Control_c, 0, 64, 127
2, 36907, Note_on_c, 0, 59, 105
2, 36910, Note_on_c, 0, 56, 94
2, 36914, Note_on_c, 0, 75, 106
2, 36924, Note_on_c, 0, 37, 0
2, 36926, Note_on_c, 0, 68, 0
2, 36926, Control_c, 0, 64, 0
2, 36928, Note_on_c, 0, 76, 0
2, 36929, Note_on_c, 0, 71, 0
2, 36929, Note_on_c, 0, 49, 0
2, 36962, Note_on_c, 0, 59, 0
2, 36967, Note_on_c, 0, 56, 0
2, 37025, Note_on_c, 0, 75, 0
2, 37047, Note_on_c, 0, 49, 103
2, 37049, Note_on_c, 0, 76, 108
2, 37086, Control_c, 0, 64, 127
2, 37162, Note_on_c, 0, 56, 96
2, 37162, Note_on_c, 0, 59, 93
2, 37294, Note_on_c, 0, 49, 0
2, 37304, Note_on_c, 0, 78, 105
2, 37304, Note_on_c, 0, 49, 101
2, 37305, Note_on_c, 0, 37, 101
2, 37429, Note_on_c, 0, 48, 97
2, 37432, Note_on_c, 0, 36, 93
2, 37482, Note_on_c, 0, 59, 0
2, 37483, Note_on_c, 0, 56, 0
2, 37484, Note_on_c, 0, 49, 0
2, 37484, Note_on_c, 0, 37, 0
2, 37484, Note_on_c, 0, 48, 0
2, 37486, Note_on_c, 0, 76, 0
2, 37487, Note_on_c, 0, 78, 0
2, 37489, Control_c, 0, 64, 0
2, 37509, Note_on_c, 0, 36, 0
2, 37567, Note_on_c, 0, 80, 108
2, 37568, Note_on_c, 0, 47, 107
2, 37568, Note_on_c, 0, 71, 104
2, 37571, Note_on_c, 0, 35, 99
2, 37572, Note_on_c, 0, 76, 103
2, 37593, Control_c, 0, 64, 127
2, 37748, Control_c, 0, 64, 0
2, 37750, Note_on_c, 0, 35, 0
2, 37751, Note_on_c, 0, 71, 0
2, 37751, Note_on_c, 0, 76, 0
2, 37752, Note_on_c, 0, 47, 0
2, 37766, Note_on_c, 0, 80, 0
2, 37836, Note_on_c, 0, 59, 106
2, 37837, Note_on_c, 0, 56, 103
2, 37893, Control_c, 0, 64, 127
2, 37965, Note_on_c, 0, 76, 108
2, 38081, Note_on_c, 0, 28, 101
2, 38082, Note_on_c, 0, 40, 102
2, 38223, Note_on_c, 0, 76, 0
2, 38223, Note_on_c, 0, 80, 109
2, 38232, Note_on_c, 0, 76, 99
2, 38338, Note_on_c, 0, 28, 0
2, 38338, Note_on_c, 0, 40, 0
2, 38344, Note_on_c, 0, 28, 97
2, 38345, Note_on_c, 0, 40, 95
2, 38476, Note_on_c, 0, 76, 0
2, 38476, Note_on_c, 0, 80, 0
2, 38479, Note_on_c, 0, 83, 109
2, 38480, Note_on_c, 0, 71, 107
2, 38481, Note_on_c, 0, 52, 101
2, 38482, Note_on_c, 0, 80, 102
2, 38485, Note_on_c, 0, 76, 103
2, 38533, Note_on_c, 0, 47, 79
2, 38584, Note_on_c, 0, 52, 0
2, 38592, Note_on_c, 0, 40, 0
2, 38595, Note_on_c, 0, 52, 97
2, 38596, Note_on_c, 0, 40, 85
2, 38671, Note_on_c, 0, 28, 0
2, 38671, Note_on_c, 0, 59, 0
2, 38672, Control_c, 0, 64, 0
2, 38673, Note_on_c, 0, 52, 0
2, 38673, Note_on_c, 0, 40, 0
2, 38677, Note_on_c, 0, 83, 0
2, 38678, Note_on_c, 0, 80, 0
2, 38678, Note_on_c, 0, 76, 0
2, 38679, Note_on_c, 0, 71, 0
2, 38684, Note_on_c, 0, 56, 0
2, 38691, Note_on_c, 0, 47, 0
2, 38750, Note_on_c, 0, 73, 114
2, 38750, Note_on_c, 0, 85, 113
2, 38755, Note_on_c, 0, 80, 102
2, 38755, Note_on_c, 0, 45, 107
2, 38755, Note_on_c, 0, 33, 99
2, 38756, Note_on_c, 0, 76, 106
2, 38853, Control_c, 0, 64, 127
2, 39027, Note_on_c, 0, 57, 107
2, 39033, Note_on_c, 0, 52, 92
2, 39041, Note_on_c, 0, 97, 103
2, 39095, Note_on_c, 0, 92, 88
2, 39152, Note_on_c, 0, 45, 0
2, 39159, Note_on_c, 0, 88, 99
2, 39163, Note_on_c, 0, 45, 98
2, 39206, Note_on_c, 0, 85, 0
2, 39211, Note_on_c, 0, 85, 98
2, 39275, Note_on_c, 0, 80, 0
2, 39283, Note_on_c, 0, 52, 0
2, 39283, Note_on_c, 0, 57, 0
2, 39285, Note_on_c, 0, 80, 99
2, 39287, Note_on_c, 0, 57, 99
2, 39292, Note_on_c, 0, 52, 100
2, 39336, Note_on_c, 0, 76, 0
2, 39348, Note_on_c, 0, 76, 80
2, 39398, Note_on_c, 0, 73, 0
2, 39407, Note_on_c, 0, 73, 103
2, 39421, Note_on_c, 0, 45, 0
2, 39432, Note_on_c, 0, 45, 98
2, 39470, Note_on_c, 0, 68, 94
2, 39516, Note_on_c, 0, 64, 96
2, 39559, Note_on_c, 0, 52, 0
2, 39559, Note_on_c, 0, 57, 0
2, 39563, Note_on_c, 0, 61, 97
2, 39564, Note_on_c, 0, 57, 105
2, 39567, Note_on_c, 0, 52, 96
2, 39674, Note_on_c, 0, 73, 0
2, 39674, Note_on_c, 0, 80, 0
2, 39674, Note_on_c, 0, 85, 0
2, 39680, Note_on_c, 0, 85, 109
2, 39681, Note_on_c, 0, 73, 108
2, 39682, Note_on_c, 0, 76, 0
2, 39685, Note_on_c, 0, 80, 99
2, 39686, Note_on_c, 0, 76, 98
2, 39736, Note_on_c, 0, 57, 0
2, 39737, Note_on_c, 0, 76, 0
2, 39738, Note_on_c, 0, 97, 0
2, 39738, Note_on_c, 0, 88, 0
2, 39739, Note_on_c, 0, 73, 0
2, 39739, Note_on_c, 0, 61, 0
2, 39739, Note_on_c, 0, 85, 0
2, 39739, Note_on_c, 0, 68, 0
2, 39739, Note_on_c, 0, 92, 0
2, 39739, Note_on_c, 0, 52, 0
2, 39739, Note_on_c, 0, 64, 0
2, 39740, Note_on_c, 0, 80, 0
2, 39748, Control_c, 0, 64, 0
2, 39759, Note_on_c, 0, 33, 0
2, 39759, Note_on_c, 0, 45, 0
2, 39818, Note_on_c, 0, 73, 113
2, 39819, Note_on_c, 0, 85, 112
2, 39823, Note_on_c, 0, 80, 106
2, 39824, Note_on_c, 0, 33, 101
2, 39824, Note_on_c, 0, 45, 104
2, 39825, Note_on_c, 0, 76, 100
2, 39859, Control_c, 0, 64, 127
2, 40089, Note_on_c, 0, 71, 102
2, 40095, Note_on_c, 0, 87, 107
2, 40100, Note_on_c, 0, 75, 105
2, 40147, Note_on_c, 0, 66, 71
2, 40212, Note_on_c, 0, 76, 0
2, 40216, Note_on_c, 0, 63, 96
2, 40222, Note_on_c, 0, 88, 114
2, 40223, Note_on_c, 0, 59, 87
2, 40223, Note_on_c, 0, 76, 108
2, 40289, Note_on_c, 0, 59, 0
2, 40296, Note_on_c, 0, 59, 101
2, 40366, Note_on_c, 0, 54, 91
2, 40439, Note_on_c, 0, 51, 86
2, 40486, Note_on_c, 0, 90, 114
2, 40489, Note_on_c, 0, 78, 107
2, 40496, Note_on_c, 0, 45, 0
2, 40500, Note_on_c, 0, 45, 96
2, 40611, Note_on_c, 0, 33, 0
2, 40611, Note_on_c, 0, 45, 0
2, 40615, Note_on_c, 0, 33, 92
2, 40617, Note_on_c, 0, 45, 86
2, 40742, Note_on_c, 0, 71, 0
2, 40742, Note_on_c, 0, 75, 0
2, 40742, Note_on_c, 0, 78, 0
2, 40745, Note_on_c, 0, 83, 109
2, 40747, Note_on_c, 0, 71, 108
2, 40748, Control_c, 0, 64, 0
2, 40750, Note_on_c, 0, 75, 105
2, 40752, Note_on_c, 0, 78, 104
2, 40754, Note_on_c, 0, 59, 0
2, 40755, Note_on_c, 0, 33, 0
2, 40755, Note_on_c, 0, 90, 0
2, 40756, Note_on_c, 0, 66, 0
2, 40756, Note_on_c, 0, 87, 0
2, 40757, Note_on_c, 0, 80, 0
2, 40758, Note_on_c, 0, 63, 0
2, 40758, Note_on_c, 0, 88, 0
2, 40759, Note_on_c, 0, 45, 0
2, 40760, Note_on_c, 0, 85, 0
2, 40760, Note_on_c, 0, 73, 0
2, 40760, Note_on_c, 0, 51, 0
2, 40773, Note_on_c, 0, 54, 0
2, 40773, Note_on_c, 0, 76, 0
2, 40880, Control_c, 0, 64, 127
2, 40886, Note_on_c, 0, 32, 95
2, 40886, Note_on_c, 0, 44, 104
2, 41011, Note_on_c, 0, 83, 0
2, 41022, Note_on_c, 0, 83, 93
2, 41089, Note_on_c, 0, 87, 96
2, 41144, Note_on_c, 0, 59, 109
2, 41152, Note_on_c, 0, 95, 108
2, 41152, Note_on_c, 0, 54, 97
2, 41158, Note_on_c, 0, 51, 82
2, 41218, Note_on_c, 0, 90, 102
2, 41272, Note_on_c, 0, 87, 0
2, 41280, Note_on_c, 0, 32, 0
2, 41280, Note_on_c, 0, 44, 0
2, 41280, Note_on_c, 0, 87, 99
2, 41286, Note_on_c, 0, 32, 87
2, 41289, Note_on_c, 0, 44, 92
2, 41326, Note_on_c, 0, 83, 0
2, 41333, Note_on_c, 0, 83, 92
2, 41410, Note_on_c, 0, 83, 0
2, 41415, Note_on_c, 0, 83, 100
2, 41418, Note_on_c, 0, 44, 0
2, 41418, Note_on_c, 0, 51, 0
2, 41418, Note_on_c, 0, 54, 0
2, 41423, Note_on_c, 0, 44, 87
2, 41423, Note_on_c, 0, 54, 96
2, 41425, Note_on_c, 0, 51, 85
2, 41479, Note_on_c, 0, 78, 0
2, 41488, Note_on_c, 0, 78, 76
2, 41525, Note_on_c, 0, 75, 0
2, 41535, Note_on_c, 0, 75, 93
2, 41571, Note_on_c, 0, 44, 0
2, 41579, Note_on_c, 0, 32, 0
2, 41582, Note_on_c, 0, 44, 77
2, 41587, Note_on_c, 0, 71, 0
2, 41590, Note_on_c, 0, 32, 71
2, 41596, Note_on_c, 0, 71, 96
2, 41671, Note_on_c, 0, 71, 0
2, 41679, Note_on_c, 0, 51, 0
2, 41679, Note_on_c, 0, 54, 0
2, 41680, Note_on_c, 0, 71, 85
2, 41683, Note_on_c, 0, 51, 76
2, 41684, Note_on_c, 0, 54, 90
2, 41737, Note_on_c, 0, 66, 93
2, 41763, Note_on_c, 0, 44, 0
2, 41774, Note_on_c, 0, 44, 75
2, 41794, Note_on_c, 0, 63, 93
2, 41856, Note_on_c, 0, 54, 0
2, 41856, Note_on_c, 0, 59, 0
2, 41860, Note_on_c, 0, 59, 92
2, 41860, Note_on_c, 0, 54, 66
2, 41909, Control_c, 0, 64, 0
2, 41913, Note_on_c, 0, 32, 0
2, 41914, Note_on_c, 0, 95, 0
2, 41914, Note_on_c, 0, 44, 0
2, 41914, Note_on_c, 0, 90, 0
2, 41914, Note_on_c, 0, 54, 0
2, 41915, Note_on_c, 0, 78, 0
2, 41915, Note_on_c, 0, 59, 0
2, 41915, Note_on_c, 0, 51, 0
2, 41915, Note_on_c, 0, 83, 0
2, 41916, Note_on_c, 0, 63, 0
2, 41917, Note_on_c, 0, 71, 0
2, 41925, Note_on_c, 0, 66, 0
2, 41932, Note_on_c, 0, 75, 0
2, 41932, Note_on_c, 0, 87, 0
2, 41947, Note_on_c, 0, 49, 105
2, 41950, Note_on_c, 0, 37, 101
2, 42024, Control_c, 0, 64, 127
2, 42062, Note_on_c, 0, 59, 83
2, 42116, Note_on_c, 0, 61, 86
2, 42164, Note_on_c, 0, 65, 90
2, 42193, Note_on_c, 0, 59, 0
2, 42202, Note_on_c, 0, 59, 91
2, 42208, Note_on_c, 0, 53, 72
2, 42215, Note_on_c, 0, 56, 88
2, 42216, Note_on_c, 0, 68, 103
2, 42289, Note_on_c, 0, 71, 90
2, 42339, Note_on_c, 0, 49, 0
2, 42347, Note_on_c, 0, 49, 87
2, 42350, Note_on_c, 0, 73, 101
2, 42399, Note_on_c, 0, 77, 65
2, 42459, Note_on_c, 0, 80, 95
2, 42470, Note_on_c, 0, 53, 0
2, 42470, Note_on_c, 0, 56, 0
2, 42470, Note_on_c, 0, 59, 0
2, 42477, Note_on_c, 0, 53, 80
2, 42479, Note_on_c, 0, 59, 97
2, 42481, Note_on_c, 0, 56, 87
2, 42528, Note_on_c, 0, 83, 99
2, 42589, Note_on_c, 0, 85, 103
2, 42600, Note_on_c, 0, 49, 0
2, 42609, Note_on_c, 0, 49, 92
2, 42647, Note_on_c, 0, 89, 104
2, 42696, Note_on_c, 0, 92, 106
2, 42731, Note_on_c, 0, 59, 0
2, 42739, Note_on_c, 0, 56, 0
2, 42742, Note_on_c, 0, 97, 110
2, 42742, Note_on_c, 0, 59, 100
2, 42743, Note_on_c, 0, 56, 83
2, 42746, Note_on_c, 0, 53, 0
2, 42751, Note_on_c, 0, 53, 73
2, 42874, Note_on_c, 0, 69, 104
2, 42940, Note_on_c, 0, 56, 0
2, 42940, Note_on_c, 0, 65, 0
2, 42940, Note_on_c, 0, 53, 0
2, 42940, Note_on_c, 0, 83, 0
2, 42940, Note_on_c, 0, 85, 0
2, 42941, Note_on_c, 0, 92, 0
2, 42941, Note_on_c, 0, 89, 0
2, 42941, Note_on_c, 0, 80, 0
2, 42941, Note_on_c, 0, 68, 0
2, 42941, Note_on_c, 0, 49, 0
2, 42941, Note_on_c, 0, 59, 0
2, 42941, Note_on_c, 0, 97, 0
2, 42941, Note_on_c, 0, 71, 0
2, 42941, Note_on_c, 0, 77, 0
2, 42942, Note_on_c, 0, 73, 0
2, 42943, Control_c, 0, 64, 0
2, 42945, Note_on_c, 0, 69, 0
2, 42946, Note_on_c, 0, 37, 0
2, 42954, Note_on_c, 0, 61, 0
2, 43003, Note_on_c, 0, 81, 110
2, 43003, Note_on_c, 0, 69, 105
2, 43005, Note_on_c, 0, 76, 106
2, 43006, Note_on_c, 0, 73, 112
2, 43010, Note_on_c, 0, 42, 107
2, 43010, Note_on_c, 0, 30, 102
2, 43054, Control_c, 0, 64, 127
2, 43235, Control_c, 0, 64, 0
2, 43238, Note_on_c, 0, 30, 0
2, 43240, Note_on_c, 0, 81, 0
2, 43241, Note_on_c, 0, 73, 0
2, 43241, Note_on_c, 0, 76, 0
2, 43253, Note_on_c, 0, 42, 0
2, 43253, Note_on_c, 0, 69, 0
2, 43266, Note_on_c, 0, 80, 98
2, 43268, Note_on_c, 0, 64, 91
2, 43271, Note_on_c, 0, 71, 96
2, 43272, Note_on_c, 0, 61, 88
2, 43289, Note_on_c, 0, 57, 76
2, 43310, Note_on_c, 0, 71, 0
2, 43312, Note_on_c, 0, 64, 0
2, 43320, Note_on_c, 0, 57, 0
2, 43322, Note_on_c, 0, 80, 0
2, 43345, Note_on_c, 0, 61, 0
2, 43402, Note_on_c, 0, 54, 101
2, 43404, Note_on_c, 0, 78, 105
2, 43418, Note_on_c, 0, 73, 104
2, 43419, Note_on_c, 0, 71, 97
2, 43453, Control_c, 0, 64, 127
2, 43519, Note_on_c, 0, 64, 97
2, 43520, Note_on_c, 0, 61, 89
2, 43653, Note_on_c, 0, 71, 0
2, 43653, Note_on_c, 0, 73, 0
2, 43657, Note_on_c, 0, 71, 97
2, 43657, Note_on_c, 0, 42, 102
2, 43658, Note_on_c, 0, 76, 101
2, 43658, Note_on_c, 0, 73, 99
2, 43768, Note_on_c, 0, 42, 0
2, 43768, Note_on_c, 0, 54, 0
2, 43774, Note_on_c, 0, 54, 101
2, 43774, Note_on_c, 0, 42, 80
2, 43848, Control_c, 0, 64, 0
2, 43858, Note_on_c, 0, 61, 0
2, 43858, Note_on_c, 0, 73, 0
2, 43860, Note_on_c, 0, 71, 0
2, 43860, Note_on_c, 0, 54, 0
2, 43860, Note_on_c, 0, 64, 0
2, 43861, Note_on_c, 0, 42, 0
2, 43862, Note_on_c, 0, 76, 0
2, 43862, Note_on_c, 0, 78, 0
2, 43931, Note_on_c, 0, 66, 98
2, 43931, Note_on_c, 0, 47, 107
2, 43932, Note_on_c, 0, 75, 105
2, 43934, Note_on_c, 0, 71, 88
2, 43936, Note_on_c, 0, 35, 95
2, 43968, Control_c, 0, 64, 127
2, 44175, Note_on_c, 0, 47, 0
2, 44175, Note_on_c, 0, 71, 0
2, 44175, Note_on_c, 0, 75, 0
2, 44184, Note_on_c, 0, 59, 97
2, 44185, Note_on_c, 0, 47, 99
2, 44185, Note_on_c, 0, 71, 95
2, 44186, Note_on_c, 0, 75, 101
2, 44190, Note_on_c, 0, 59, 0
2, 44297, Note_on_c, 0, 35, 0
2, 44298, Note_on_c, 0, 47, 0
2, 44301, Control_c, 0, 64, 0
2, 44321, Note_on_c, 0, 66, 0
2, 44321, Note_on_c, 0, 71, 0
2, 44321, Note_on_c, 0, 75, 0
2, 44323, Note_on_c, 0, 59, 92
2, 44325, Note_on_c, 0, 75, 98
2, 44325, Note_on_c, 0, 71, 96
2, 44327, Note_on_c, 0, 54, 83
2, 44330, Note_on_c, 0, 51, 81
2, 44365, Note_on_c, 0, 51, 0
2, 44367, Note_on_c, 0, 59, 0
2, 44367, Note_on_c, 0, 71, 0
2, 44369, Note_on_c, 0, 75, 0
2, 44398, Note_on_c, 0, 54, 0
2, 44459, Note_on_c, 0, 76, 106
2, 44461, Note_on_c, 0, 73, 107
2, 44462, Note_on_c, 0, 71, 101
2, 44463, Note_on_c, 0, 45, 109
2, 44463, Note_on_c, 0, 33, 100
2, 44505, Control_c, 0, 64, 127
2, 44712, Note_on_c, 0, 33, 0
2, 44712, Note_on_c, 0, 45, 0
2, 44716, Note_on_c, 0, 45, 97
2, 44717, Note_on_c, 0, 78, 106
2, 44719, Note_on_c, 0, 33, 91
2, 44721, Note_on_c, 0, 75, 97
2, 44840, Note_on_c, 0, 59, 96
2, 44844, Note_on_c, 0, 51, 92
2, 44846, Note_on_c, 0, 54, 93
2, 44974, Note_on_c, 0, 71, 0
2, 44974, Note_on_c, 0, 75, 0
2, 44980, Note_on_c, 0, 71, 97
2, 44984, Note_on_c, 0, 75, 66
2, 44988, Control_c, 0, 64, 0
2, 44996, Note_on_c, 0, 59, 0
2, 44996, Note_on_c, 0, 45, 0
2, 44997, Note_on_c, 0, 54, 0
2, 44998, Note_on_c, 0, 33, 0
2, 44998, Note_on_c, 0, 78, 0
2, 44998, Note_on_c, 0, 51, 0
2, 44999, Note_on_c, 0, 73, 0
2, 44999, Note_on_c, 0, 76, 0
2, 45027, Note_on_c, 0, 75, 0
2, 45035, Note_on_c, 0, 71, 0
2, 45107, Note_on_c, 0, 83, 109
2, 45108, Note_on_c, 0, 44, 108
2, 45109, Note_on_c, 0, 32, 94
2, 45110, Note_on_c, 0, 71, 105
2, 45110, Note_on_c, 0, 75, 98
2, 45112, Control_c, 0, 64, 127
2, 45113, Note_on_c, 0, 78, 101
2, 45361, Note_on_c, 0, 44, 0
2, 45365, Note_on_c, 0, 32, 0
2, 45366, Note_on_c, 0, 66, 105
2, 45368, Note_on_c, 0, 63, 97
2, 45369, Control_c, 0, 64, 0
2, 45369, Note_on_c, 0, 59, 99
2, 45373, Note_on_c, 0, 71, 0
2, 45373, Note_on_c, 0, 75, 0
2, 45373, Note_on_c, 0, 78, 0
2, 45373, Note_on_c, 0, 83, 0
2, 45377, Note_on_c, 0, 71, 100
2, 45378, Note_on_c, 0, 78, 101
2, 45378, Note_on_c, 0, 75, 98
2, 45381, Note_on_c, 0, 83, 101
2, 45416, Note_on_c, 0, 66, 0
2, 45422, Note_on_c, 0, 59, 0
2, 45431, Note_on_c, 0, 63, 0
2, 45434, Note_on_c, 0, 71, 0
2, 45442, Note_on_c, 0, 75, 0
2, 45442, Note_on_c, 0, 78, 0
2, 45465, Note_on_c, 0, 83, 0
2, 45504, Note_on_c, 0, 56, 97
2, 45512, Note_on_c, 0, 83, 105
2, 45515, Note_on_c, 0, 71, 102
2, 45517, Note_on_c, 0, 78, 98
2, 45518, Note_on_c, 0, 75, 97
2, 45550, Control_c, 0, 64, 127
2, 45617, Note_on_c, 0, 63, 97
2, 45618, Note_on_c, 0, 66, 101
2, 45757, Note_on_c, 0, 71, 0
2, 45759, Note_on_c, 0, 81, 106
2, 45762, Note_on_c, 0, 71, 93
2, 45768, Note_on_c, 0, 44, 103
2, 45880, Note_on_c, 0, 71, 0
2, 45886, Note_on_c, 0, 80, 108
2, 45887, Note_on_c, 0, 71, 92
2, 45952, Note_on_c, 0, 83, 0
2, 45954, Note_on_c, 0, 66, 0
2, 45954, Note_on_c, 0, 78, 0
2, 45954, Note_on_c, 0, 75, 0
2, 45954, Note_on_c, 0, 71, 0
2, 45954, Note_on_c, 0, 63, 0
2, 45954, Note_on_c, 0, 81, 0
2, 45954, Note_on_c, 0, 44, 0
2, 45955, Note_on_c, 0, 56, 0
2, 45958, Control_c, 0, 64, 0
2, 45958, Note_on_c, 0, 80, 0
2, 46023, Note_on_c, 0, 78, 105
2, 46026, Note_on_c, 0, 71, 92
2, 46027, Note_on_c, 0, 49, 104
2, 46029, Note_on_c, 0, 75, 94
2, 46030, Note_on_c, 0, 37, 102
2, 46064, Control_c, 0, 64, 127
2, 46264, Note_on_c, 0, 37, 0
2, 46264, Note_on_c, 0, 49, 0
2, 46269, Note_on_c, 0, 37, 82
2, 46269, Note_on_c, 0, 49, 97
2, 46272, Note_on_c, 0, 71, 0
2, 46279, Note_on_c, 0, 68, 106
2, 46281, Note_on_c, 0, 76, 101
2, 46283, Note_on_c, 0, 71, 88
2, 46394, Note_on_c, 0, 68, 0
2, 46402, Note_on_c, 0, 71, 0
2, 46402, Note_on_c, 0, 76, 0
2, 46405, Note_on_c, 0, 68, 110
2, 46407, Note_on_c, 0, 76, 104
2, 46409, Note_on_c, 0, 71, 94
2, 46433, Note_on_c, 0, 56, 67
2, 46536, Note_on_c, 0, 59, 99
2, 46536, Note_on_c, 0, 63, 101
2, 46805, Note_on_c, 0, 64, 107
2, 46806, Note_on_c, 0, 61, 99
2, 46944, Note_on_c, 0, 52, 90
2, 46989, Note_on_c, 0, 47, 91
2, 47024, Note_on_c, 0, 63, 0
2, 47035, Note_on_c, 0, 63, 76
2, 47036, Note_on_c, 0, 44, 92
2, 47063, Note_on_c, 0, 37, 0
2, 47074, Note_on_c, 0, 37, 88
2, 47117, Control_c, 0, 64, 0
2, 47119, Note_on_c, 0, 78, 0
2, 47120, Note_on_c, 0, 63, 0
2, 47120, Note_on_c, 0, 59, 0
2, 47120, Note_on_c, 0, 61, 0
2, 47120, Note_on_c, 0, 71, 0
2, 47120, Note_on_c, 0, 56, 0
2, 47121, Note_on_c, 0, 75, 0
2, 47121, Note_on_c, 0, 49, 0
2, 47122, Note_on_c, 0, 76, 0
2, 47122, Note_on_c, 0, 37, 0
2, 47122, Note_on_c, 0, 64, 0
2, 47122, Note_on_c, 0, 52, 0
2, 47122, Note_on_c, 0, 44, 0
2, 47123, Note_on_c, 0, 47, 0
2, 47139, Note_on_c, 0, 68, 0
2, 47200, Note_on_c, 0, 76, 110
2, 47202, Note_on_c, 0, 69, 105
2, 47203, Note_on_c, 0, 64, 110
2, 47205, Note_on_c, 0, 73, 107
2, 47205, Note_on_c, 0, 30, 98
2, 47206, Note_on_c, 0, 42, 99
2, 47247, Control_c, 0, 64, 127
2, 47466, Note_on_c, 0, 52, 92
2, 47468, Note_on_c, 0, 49, 97
2, 47600, Note_on_c, 0, 69, 0
2, 47608, Note_on_c, 0, 73, 0
2, 47608, Note_on_c, 0, 76, 0
2, 47611, Note_on_c, 0, 69, 104
2, 47612, Note_on_c, 0, 76, 107
2, 47612, Note_on_c, 0, 73, 100
2, 47616, Note_on_c, 0, 42, 0
2, 47616, Note_on_c, 0, 52, 0
2, 47624, Note_on_c, 0, 42, 90
2, 47627, Note_on_c, 0, 52, 88
2, 47738, Note_on_c, 0, 49, 0
2, 47738, Note_on_c, 0, 52, 0
2, 47743, Note_on_c, 0, 52, 93
2, 47744, Note_on_c, 0, 49, 95
2, 47750, Note_on_c, 0, 64, 0
2, 47869, Note_on_c, 0, 42, 0
2, 47869, Note_on_c, 0, 73, 0
2, 47877, Note_on_c, 0, 73, 106
2, 47877, Note_on_c, 0, 49, 0
2, 47878, Note_on_c, 0, 42, 93
2, 47881, Note_on_c, 0, 49, 87
2, 47992, Note_on_c, 0, 49, 0
2, 47992, Note_on_c, 0, 52, 0
2, 47996, Note_on_c, 0, 52, 91
2, 47997, Note_on_c, 0, 49, 88
2, 48004, Note_on_c, 0, 75, 104
2, 48015, Note_on_c, 0, 71, 73
2, 48023, Note_on_c, 0, 71, 0
2, 48065, Control_c, 0, 64, 0
2, 48067, Note_on_c, 0, 49, 0
2, 48069, Note_on_c, 0, 42, 0
2, 48070, Note_on_c, 0, 52, 0
2, 48070, Note_on_c, 0, 73, 0
2, 48070, Note_on_c, 0, 76, 0
2, 48071, Note_on_c, 0, 75, 0
2, 48084, Note_on_c, 0, 30, 0
2, 48099, Note_on_c, 0, 69, 0
2, 48139, Note_on_c, 0, 68, 112
2, 48139, Note_on_c, 0, 76, 108
2, 48140, Note_on_c, 0, 71, 101
2, 48142, Note_on_c, 0, 44, 105
2, 48143, Note_on_c, 0, 32, 90
2, 48168, Control_c, 0, 64, 127
2, 48391, Note_on_c, 0, 44, 0
2, 48395, Note_on_c, 0, 44, 92
2, 48522, Note_on_c, 0, 71, 0
2, 48522, Note_on_c, 0, 76, 0
2, 48526, Note_on_c, 0, 52, 99
2, 48526, Note_on_c, 0, 47, 98
2, 48526, Note_on_c, 0, 71, 95
2, 48527, Note_on_c, 0, 76, 108
2, 48652, Note_on_c, 0, 44, 0
2, 48663, Note_on_c, 0, 44, 92
2, 48791, Note_on_c, 0, 47, 0
2, 48791, Note_on_c, 0, 52, 0
2, 48791, Note_on_c, 0, 71, 0
2, 48795, Note_on_c, 0, 78, 110
2, 48800, Note_on_c, 0, 52, 96
2, 48800, Note_on_c, 0, 71, 99
2, 48801, Note_on_c, 0, 47, 89
2, 48921, Note_on_c, 0, 44, 0
2, 48932, Note_on_c, 0, 44, 90
2, 49052, Note_on_c, 0, 47, 0
2, 49052, Note_on_c, 0, 52, 0
2, 49052, Note_on_c, 0, 71, 0
2, 49056, Note_on_c, 0, 47, 95
2, 49057, Note_on_c, 0, 80, 108
2, 49061, Note_on_c, 0, 52, 91
2, 49063, Note_on_c, 0, 71, 87
2, 49175, Note_on_c, 0, 44, 0
2, 49181, Note_on_c, 0, 44, 91
2, 49272, Control_c, 0, 64, 0
2, 49282, Note_on_c, 0, 47, 0
2, 49282, Note_on_c, 0, 71, 0
2, 49283, Note_on_c, 0, 68, 0
2, 49283, Note_on_c, 0, 44, 0
2, 49284, Note_on_c, 0, 78, 0
2, 49284, Note_on_c, 0, 76, 0
2, 49285, Note_on_c, 0, 80, 0
2, 49297, Note_on_c, 0, 32, 0
2, 49313, Note_on_c, 0, 52, 0
2, 49323, Note_on_c, 0, 52, 103
2, 49326, Note_on_c, 0, 80, 110
2, 49329, Note_on_c, 0, 49, 100
2, 49332, Note_on_c, 0, 71, 103
2, 49332, Note_on_c, 0, 73, 111
2, 49367, Control_c, 0, 64, 127
2, 49382, Note_on_c, 0, 52, 0
2, 49461, Note_on_c, 0, 33, 95
2, 49595, Note_on_c, 0, 45, 95
2, 49718, Note_on_c, 0, 52, 95
2, 49720, Note_on_c, 0, 49, 0
2, 49725, Note_on_c, 0, 49, 101
2, 49730, Note_on_c, 0, 68, 110
2, 49731, Note_on_c, 0, 61, 98
2, 49734, Note_on_c, 0, 59, 101
2, 49850, Note_on_c, 0, 33, 0
2, 49858, Note_on_c, 0, 33, 90
2, 49981, Note_on_c, 0, 45, 0
2, 49991, Note_on_c, 0, 45, 99
2, 50000, Note_on_c, 0, 81, 109
2, 50119, Note_on_c, 0, 45, 0
2, 50119, Note_on_c, 0, 49, 0
2, 50119, Note_on_c, 0, 52, 0
2, 50123, Note_on_c, 0, 52, 83
2, 50126, Note_on_c, 0, 49, 100
2, 50127, Note_on_c, 0, 80, 0
2, 50128, Note_on_c, 0, 45, 93
2, 50133, Note_on_c, 0, 80, 107
2, 50191, Note_on_c, 0, 33, 0
2, 50193, Note_on_c, 0, 59, 0
2, 50193, Control_c, 0, 64, 0
2, 50198, Note_on_c, 0, 52, 0
2, 50198, Note_on_c, 0, 71, 0
2, 50198, Note_on_c, 0, 45, 0
2, 50199, Note_on_c, 0, 73, 0
2, 50199, Note_on_c, 0, 81, 0
2, 50199, Note_on_c, 0, 68, 0
2, 50201, Note_on_c, 0, 49, 0
2, 50201, Note_on_c, 0, 80, 0
2, 50227, Note_on_c, 0, 61, 0
2, 50274, Note_on_c, 0, 54, 110
2, 50276, Note_on_c, 0, 47, 104
2, 50276, Note_on_c, 0, 78, 109
2, 50278, Note_on_c, 0, 75, 105
2, 50278, Note_on_c, 0, 71, 97
2, 50304, Control_c, 0, 64, 127
2, 50519, Note_on_c, 0, 47, 0
2, 50527, Note_on_c, 0, 35, 92
2, 50528, Note_on_c, 0, 47, 95
2, 50591, Note_on_c, 0, 59, 94
2, 50656, Note_on_c, 0, 39, 92
2, 50657, Note_on_c, 0, 51, 93
2, 50716, Note_on_c, 0, 63, 98
2, 50767, Note_on_c, 0, 40, 94
2, 50769, Note_on_c, 0, 52, 92
2, 50828, Note_on_c, 0, 64, 103
2, 50880, Note_on_c, 0, 54, 0
2, 50891, Note_on_c, 0, 54, 98
2, 50897, Note_on_c, 0, 42, 91
2, 50945, Note_on_c, 0, 66, 99
2, 51033, Note_on_c, 0, 35, 0
2, 51033, Note_on_c, 0, 59, 0
2, 51038, Note_on_c, 0, 59, 95
2, 51039, Note_on_c, 0, 35, 86
2, 51164, Note_on_c, 0, 47, 0
2, 51164, Note_on_c, 0, 63, 0
2, 51164, Note_on_c, 0, 66, 0
2, 51164, Note_on_c, 0, 71, 0
2, 51168, Note_on_c, 0, 47, 98
2, 51169, Note_on_c, 0, 71, 99
2, 51174, Note_on_c, 0, 63, 95
2, 51174, Note_on_c, 0, 66, 88
2, 51233, Note_on_c, 0, 42, 0
2, 51237, Note_on_c, 0, 42, 39
2, 51383, Control_c, 0, 64, 0
2, 51389, Note_on_c, 0, 47, 0
2, 51389, Note_on_c, 0, 42, 0
2, 51389, Note_on_c, 0, 51, 0
2, 51390, Note_on_c, 0, 63, 0
2, 51390, Note_on_c, 0, 75, 0
2, 51390, Note_on_c, 0, 66, 0
2, 51390, Note_on_c, 0, 64, 0
2, 51390, Note_on_c, 0, 78, 0
2, 51390, Note_on_c, 0, 40, 0
2, 51390, Note_on_c, 0, 52, 0
2, 51390, Note_on_c, 0, 71, 0
2, 51390, Note_on_c, 0, 39, 0
2, 51409, Note_on_c, 0, 54, 0
2, 51409, Note_on_c, 0, 59, 0
2, 51417, Note_on_c, 0, 35, 0
2, 51452, Note_on_c, 0, 71, 105
2, 51456, Note_on_c, 0, 64, 107
2, 51456, Note_on_c, 0, 40, 98
2, 51457, Note_on_c, 0, 68, 109
2, 51458, Note_on_c, 0, 28, 96
2, 51479, Control_c, 0, 64, 127
2, 51709, Note_on_c, 0, 71, 0
2, 51720, Note_on_c, 0, 71, 105
2, 51721, Note_on_c, 0, 59, 105
2, 51727, Note_on_c, 0, 56, 93
2, 51855, Note_on_c, 0, 71, 0
2, 51857, Note_on_c, 0, 52, 101
2, 51859, Note_on_c, 0, 71, 100
2, 51970, Note_on_c, 0, 56, 0
2, 51970, Note_on_c, 0, 59, 0
2, 51977, Note_on_c, 0, 56, 98
2, 51981, Note_on_c, 0, 59, 95
2, 52085, Note_on_c, 0, 68, 0
2, 52095, Note_on_c, 0, 68, 105
2, 52108, Note_on_c, 0, 40, 0
2, 52113, Note_on_c, 0, 40, 91
2, 52114, Note_on_c, 0, 69, 101
2, 52231, Note_on_c, 0, 52, 0
2, 52231, Note_on_c, 0, 68, 0
2, 52235, Note_on_c, 0, 52, 94
2, 52242, Note_on_c, 0, 68, 107
2, 52279, Control_c, 0, 64, 0
2, 52295, Note_on_c, 0, 52, 0
2, 52295, Note_on_c, 0, 40, 0
2, 52296, Note_on_c, 0, 71, 0
2, 52296, Note_on_c, 0, 56, 0
2, 52296, Note_on_c, 0, 69, 0
2, 52297, Note_on_c, 0, 68, 0
2, 52297, Note_on_c, 0, 64, 0
2, 52308, Note_on_c, 0, 28, 0
2, 52316, Note_on_c, 0, 59, 0
2, 52379, Note_on_c, 0, 51, 105
2, 52380, Note_on_c, 0, 66, 99
2, 52381, Note_on_c, 0, 57, 102
2, 52382, Note_on_c, 0, 39, 100
2, 52382, Note_on_c, 0, 61, 99
2, 52392, Control_c, 0, 64, 127
2, 52531, Note_on_c, 0, 61, 0
2, 52536, Note_on_c, 0, 61, 72
2, 52631, Note_on_c, 0, 51, 0
2, 52638, Note_on_c, 0, 68, 105
2, 52641, Note_on_c, 0, 51, 92
2, 52761, Note_on_c, 0, 57, 0
2, 52762, Note_on_c, 0, 54, 94
2, 52766, Note_on_c, 0, 57, 98
2, 52767, Note_on_c, 0, 69, 108
2, 52881, Control_c, 0, 64, 0
2, 52882, Note_on_c, 0, 39, 0
2, 52886, Note_on_c, 0, 57, 0
2, 52886, Note_on_c, 0, 51, 0
2, 52886, Note_on_c, 0, 69, 0
2, 52887, Note_on_c, 0, 61, 0
2, 52888, Note_on_c, 0, 54, 0
2, 52899, Note_on_c, 0, 66, 0
2, 52899, Note_on_c, 0, 68, 0
2, 52904, Note_on_c, 0, 68, 111
2, 52911, Note_on_c, 0, 44, 107
2, 52911, Note_on_c, 0, 60, 97
2, 52912, Note_on_c, 0, 63, 81
2, 52913, Note_on_c, 0, 32, 100
2, 52968, Control_c, 0, 64, 127
2, 53076, Note_on_c, 0, 60, 0
2, 53082, Note_on_c, 0, 60, 67
2, 53153, Note_on_c, 0, 44, 0
2, 53158, Note_on_c, 0, 44, 96
2, 53236, Note_on_c, 0, 51, 80
2, 53240, Note_on_c, 0, 54, 99
2, 53283, Note_on_c, 0, 60, 0
2, 53283, Note_on_c, 0, 63, 0
2, 53291, Note_on_c, 0, 60, 88
2, 53291, Note_on_c, 0, 63, 105
2, 53406, Note_on_c, 0, 44, 0
2, 53412, Note_on_c, 0, 44, 95
2, 53451, Control_c, 0, 64, 0
2, 53464, Note_on_c, 0, 51, 0
2, 53464, Note_on_c, 0, 68, 0
2, 53464, Note_on_c, 0, 44, 0
2, 53464, Note_on_c, 0, 60, 0
2, 53464, Note_on_c, 0, 32, 0
2, 53464, Note_on_c, 0, 54, 0
2, 53464, Note_on_c, 0, 63, 0
2, 53548, Note_on_c, 0, 64, 104
2, 53549, Note_on_c, 0, 49, 104
2, 53549, Note_on_c, 0, 56, 97
2, 53549, Note_on_c, 0, 59, 99
2, 53552, Note_on_c, 0, 37, 100
2, 53575, Control_c, 0, 64, 127
2, 53660, Note_on_c, 0, 56, 0
2, 53667, Note_on_c, 0, 49, 0
2, 53670, Note_on_c, 0, 56, 71
2, 53672, Note_on_c, 0, 49, 40
2, 53806, Note_on_c, 0, 56, 0
2, 53812, Note_on_c, 0, 56, 95
2, 53812, Note_on_c, 0, 52, 89
2, 53818, Note_on_c, 0, 63, 106
2, 53841, Control_c, 0, 64, 0
2, 53843, Note_on_c, 0, 37, 0
2, 53848, Note_on_c, 0, 59, 0
2, 53848, Note_on_c, 0, 49, 0
2, 53849, Note_on_c, 0, 64, 0
2, 53936, Control_c, 0, 64, 127
2, 53948, Note_on_c, 0, 49, 94
2, 53951, Note_on_c, 0, 64, 106
2, 54059, Note_on_c, 0, 52, 0
2, 54059, Note_on_c, 0, 56, 0
2, 54064, Note_on_c, 0, 52, 86
2, 54066, Note_on_c, 0, 56, 95
2, 54205, Note_on_c, 0, 49, 0
2, 54210, Note_on_c, 0, 49, 102
2, 54212, Note_on_c, 0, 66, 102
2, 54213, Note_on_c, 0, 37, 103
2, 54338, Note_on_c, 0, 48, 98
2, 54339, Note_on_c, 0, 36, 95
2, 54347, Control_c, 0, 64, 0
2, 54352, Note_on_c, 0, 37, 0
2, 54353, Note_on_c, 0, 63, 0
2, 54355, Note_on_c, 0, 49, 0
2, 54355, Note_on_c, 0, 56, 0
2, 54356, Note_on_c, 0, 66, 0
2, 54356, Note_on_c, 0, 52, 0
2, 54356, Note_on_c, 0, 64, 0
2, 54372, Note_on_c, 0, 48, 0
2, 54377, Note_on_c, 0, 36, 0
2, 54476, Note_on_c, 0, 68, 109
2, 54476, Note_on_c, 0, 47, 109
2, 54478, Note_on_c, 0, 59, 105
2, 54478, Note_on_c, 0, 35, 94
2, 54480, Note_on_c, 0, 64, 99
2, 54481, Control_c, 0, 64, 127
2, 54615, Control_c, 0, 64, 0
2, 54618, Note_on_c, 0, 35, 0
2, 54619, Note_on_c, 0, 68, 0
2, 54620, Note_on_c, 0, 59, 0
2, 54622, Note_on_c, 0, 64, 0
2, 54623, Note_on_c, 0, 47, 0
2, 54741, Note_on_c, 0, 52, 96
2, 54742, Note_on_c, 0, 56, 103
2, 54789, Control_c, 0, 64, 127
2, 54867, Note_on_c, 0, 64, 105
2, 54990, Note_on_c, 0, 28, 100
2, 54990, Note_on_c, 0, 40, 100
2, 55126, Note_on_c, 0, 68, 110
2, 55234, Note_on_c, 0, 28, 0
2, 55234, Note_on_c, 0, 40, 0
2, 55238, Note_on_c, 0, 28, 90
2, 55238, Note_on_c, 0, 40, 100
2, 55380, Note_on_c, 0, 52, 0
2, 55380, Note_on_c, 0, 64, 0
2, 55380, Note_on_c, 0, 68, 0
2, 55383, Note_on_c, 0, 71, 106
2, 55384, Note_on_c, 0, 52, 104
2, 55390, Note_on_c, 0, 64, 103
2, 55390, Note_on_c, 0, 68, 101
2, 55443, Note_on_c, 0, 47, 80
2, 55495, Note_on_c, 0, 40, 0
2, 55505, Note_on_c, 0, 40, 65
2, 55544, Control_c, 0, 64, 0
2, 55565, Note_on_c, 0, 28, 0
2, 55567, Note_on_c, 0, 56, 0
2, 55568, Note_on_c, 0, 68, 0
2, 55568, Note_on_c, 0, 64, 0
2, 55568, Note_on_c, 0, 71, 0
2, 55568, Note_on_c, 0, 40, 0
2, 55568, Note_on_c, 0, 52, 0
2, 55568, Note_on_c, 0, 47, 0
2, 55647, Note_on_c, 0, 73, 111
2, 55651, Note_on_c, 0, 61, 109
2, 55654, Note_on_c, 0, 68, 102
2, 55656, Note_on_c, 0, 64, 95
2, 55660, Note_on_c, 0, 45, 108
2, 55661, Note_on_c, 0, 33, 97
2, 55764, Control_c, 0, 64, 127
2, 55923, Note_on_c, 0, 52, 90
2, 55923, Note_on_c, 0, 57, 102
2, 55925, Note_on_c, 0, 61, 0
2, 55932, Note_on_c, 0, 61, 91
2, 55987, Note_on_c, 0, 64, 0
2, 55991, Note_on_c, 0, 64, 93
2, 56033, Note_on_c, 0, 68, 0
2, 56044, Note_on_c, 0, 68, 100
2, 56048, Note_on_c, 0, 45, 0
2, 56060, Note_on_c, 0, 45, 100
2, 56110, Note_on_c, 0, 52, 0
2, 56110, Note_on_c, 0, 73, 0
2, 56117, Note_on_c, 0, 52, 59
2, 56119, Note_on_c, 0, 73, 98
2, 56171, Note_on_c, 0, 57, 0
2, 56173, Note_on_c, 0, 76, 84
2, 56182, Note_on_c, 0, 57, 95
2, 56186, Note_on_c, 0, 52, 0
2, 56190, Note_on_c, 0, 52, 75
2, 56227, Note_on_c, 0, 80, 97
2, 56285, Note_on_c, 0, 85, 101
2, 56309, Note_on_c, 0, 45, 0
2, 56320, Note_on_c, 0, 45, 99
2, 56335, Note_on_c, 0, 88, 102
2, 56393, Note_on_c, 0, 92, 96
2, 56436, Note_on_c, 0, 97, 107
2, 56440, Note_on_c, 0, 52, 0
2, 56440, Note_on_c, 0, 57, 0
2, 56445, Note_on_c, 0, 57, 101
2, 56451, Note_on_c, 0, 52, 88
2, 56555, Note_on_c, 0, 45, 0
2, 56555, Note_on_c, 0, 73, 0
2, 56566, Note_on_c, 0, 73, 110
2, 56566, Note_on_c, 0, 45, 91
2, 56682, Note_on_c, 0, 97, 0
2, 56682, Note_on_c, 0, 88, 0
2, 56682, Note_on_c, 0, 80, 0
2, 56683, Note_on_c, 0, 92, 0
2, 56683, Note_on_c, 0, 76, 0
2, 56684, Note_on_c, 0, 52, 0
2, 56684, Note_on_c, 0, 85, 0
2, 56691, Control_c, 0, 64, 0
2, 56693, Note_on_c, 0, 64, 0
2, 56693, Note_on_c, 0, 73, 0
2, 56701, Note_on_c, 0, 33, 0
2, 56701, Note_on_c, 0, 45, 0
2, 56701, Note_on_c, 0, 61, 0
2, 56704, Note_on_c, 0, 73, 108
2, 56705, Note_on_c, 0, 64, 96
2, 56705, Note_on_c, 0, 61, 102
2, 56710, Note_on_c, 0, 33, 97
2, 56711, Note_on_c, 0, 45, 104
2, 56716, Note_on_c, 0, 57, 0
2, 56716, Note_on_c, 0, 68, 0
2, 56770, Control_c, 0, 64, 127
2, 56974, Note_on_c, 0, 59, 96
2, 56974, Note_on_c, 0, 63, 101
2, 56974, Note_on_c, 0, 75, 99
2, 57058, Note_on_c, 0, 54, 82
2, 57108, Note_on_c, 0, 64, 0
2, 57117, Note_on_c, 0, 76, 108
2, 57119, Note_on_c, 0, 64, 110
2, 57134, Note_on_c, 0, 51, 83
2, 57227, Note_on_c, 0, 47, 97
2, 57325, Note_on_c, 0, 42, 92
2, 57375, Note_on_c, 0, 78, 109
2, 57379, Note_on_c, 0, 66, 111
2, 57507, Note_on_c, 0, 33, 0
2, 57518, Note_on_c, 0, 33, 86
2, 57630, Note_on_c, 0, 59, 0
2, 57630, Note_on_c, 0, 63, 0
2, 57637, Note_on_c, 0, 71, 105
2, 57638, Note_on_c, 0, 66, 0
2, 57639, Note_on_c, 0, 59, 110
2, 57641, Note_on_c, 0, 63, 99
2, 57642, Note_on_c, 0, 66, 100
2, 57644, Control_c, 0, 64, 0
2, 57658, Note_on_c, 0, 75, 0
2, 57658, Note_on_c, 0, 78, 0
2, 57658, Note_on_c, 0, 47, 0
2, 57658, Note_on_c, 0, 33, 0
2, 57659, Note_on_c, 0, 51, 0
2, 57659, Note_on_c, 0, 54, 0
2, 57659, Note_on_c, 0, 45, 0
2, 57660, Note_on_c, 0, 42, 0
2, 57660, Note_on_c, 0, 76, 0
2, 57660, Note_on_c, 0, 61, 0
2, 57661, Note_on_c, 0, 73, 0
2, 57676, Note_on_c, 0, 64, 0
2, 57753, Control_c, 0, 64, 127
2, 57763, Note_on_c, 0, 32, 91
2, 57764, Note_on_c, 0, 44, 105
2, 57899, Note_on_c, 0, 59, 0
2, 57905, Note_on_c, 0, 59, 81
2, 57953, Note_on_c, 0, 63, 0
2, 57963, Note_on_c, 0, 63, 89
2, 57991, Note_on_c, 0, 66, 0
2, 58003, Note_on_c, 0, 66, 85
2, 58025, Note_on_c, 0, 54, 97
2, 58053, Note_on_c, 0, 71, 0
2, 58056, Note_on_c, 0, 51, 63
2, 58062, Note_on_c, 0, 71, 92
2, 58152, Note_on_c, 0, 44, 0
2, 58159, Note_on_c, 0, 44, 92
2, 58168, Note_on_c, 0, 63, 0
2, 58172, Note_on_c, 0, 63, 86
2, 58185, Note_on_c, 0, 75, 92
2, 58233, Note_on_c, 0, 78, 90
2, 58288, Note_on_c, 0, 83, 96
2, 58298, Note_on_c, 0, 51, 0
2, 58298, Note_on_c, 0, 54, 0
2, 58303, Note_on_c, 0, 54, 88
2, 58304, Note_on_c, 0, 51, 75
2, 58344, Note_on_c, 0, 83, 0
2, 58354, Note_on_c, 0, 83, 94
2, 58357, Note_on_c, 0, 82, 83
2, 58418, Note_on_c, 0, 87, 98
2, 58437, Note_on_c, 0, 44, 0
2, 58445, Note_on_c, 0, 56, 67
2, 58447, Note_on_c, 0, 44, 85
2, 58523, Note_on_c, 0, 95, 108
2, 58552, Note_on_c, 0, 51, 0
2, 58552, Note_on_c, 0, 54, 0
2, 58558, Note_on_c, 0, 54, 100
2, 58558, Note_on_c, 0, 51, 93
2, 58611, Note_on_c, 0, 90, 97
2, 58667, Note_on_c, 0, 87, 0
2, 58671, Note_on_c, 0, 87, 96
2, 58721, Note_on_c, 0, 83, 0
2, 58725, Note_on_c, 0, 83, 75
2, 58770, Control_c, 0, 64, 0
2, 58774, Note_on_c, 0, 95, 0
2, 58775, Note_on_c, 0, 44, 0
2, 58777, Note_on_c, 0, 51, 0
2, 58777, Note_on_c, 0, 66, 0
2, 58777, Note_on_c, 0, 78, 0
2, 58777, Note_on_c, 0, 59, 0
2, 58777, Note_on_c, 0, 54, 0
2, 58777, Note_on_c, 0, 90, 0
2, 58778, Note_on_c, 0, 83, 0
2, 58778, Note_on_c, 0, 63, 0
2, 58778, Note_on_c, 0, 75, 0
2, 58779, Note_on_c, 0, 87, 0
2, 58782, Note_on_c, 0, 32, 0
2, 58782, Note_on_c, 0, 56, 0
2, 58782, Note_on_c, 0, 82, 0
2, 58790, Note_on_c, 0, 71, 0
2, 58803, Note_on_c, 0, 49, 103
2, 58804, Note_on_c, 0, 93, 110
2, 58806, Note_on_c, 0, 37, 105
2, 58867, Control_c, 0, 64, 127
2, 58873, Note_on_c, 0, 89, 61
2, 58938, Note_on_c, 0, 85, 101
2, 59002, Note_on_c, 0, 83, 91
2, 59056, Note_on_c, 0, 59, 93
2, 59056, Note_on_c, 0, 56, 82
2, 59060, Note_on_c, 0, 81, 94
2, 59062, Note_on_c, 0, 53, 85
2, 59121, Note_on_c, 0, 77, 85
2, 59174, Note_on_c, 0, 49, 0
2, 59179, Note_on_c, 0, 73, 76
2, 59181, Note_on_c, 0, 49, 86
2, 59241, Note_on_c, 0, 71, 82
2, 59297, Note_on_c, 0, 59, 0
2, 59304, Note_on_c, 0, 56, 0
2, 59308, Note_on_c, 0, 59, 95
2, 59308, Note_on_c, 0, 80, 105
2, 59309, Note_on_c, 0, 56, 88
2, 59358, Note_on_c, 0, 77, 0
2, 59368, Note_on_c, 0, 77, 87
2, 59420, Note_on_c, 0, 73, 0
2, 59430, Note_on_c, 0, 73, 90
2, 59489, Note_on_c, 0, 71, 0
2, 59494, Note_on_c, 0, 71, 89
2, 59566, Note_on_c, 0, 37, 0
2, 59566, Note_on_c, 0, 49, 0
2, 59568, Note_on_c, 0, 68, 86
2, 59572, Note_on_c, 0, 49, 95
2, 59577, Note_on_c, 0, 37, 96
2, 59623, Note_on_c, 0, 65, 83
2, 59690, Note_on_c, 0, 61, 69
2, 59727, Note_on_c, 0, 59, 0
2, 59734, Note_on_c, 0, 59, 92
2, 59741, Control_c, 0, 64, 0
2, 59788, Note_on_c, 0, 56, 0
2, 59788, Note_on_c, 0, 93, 0
2, 59789, Note_on_c, 0, 49, 0
2, 59791, Note_on_c, 0, 37, 0
2, 59791, Note_on_c, 0, 81, 0
2, 59792, Note_on_c, 0, 83, 0
2, 59792, Note_on_c, 0, 80, 0
2, 59793, Note_on_c, 0, 68, 0
2, 59793, Note_on_c, 0, 59, 0
2, 59793, Note_on_c, 0, 71, 0
2, 59793, Note_on_c, 0, 61, 0
2, 59793, Note_on_c, 0, 53, 0
2, 59793, Note_on_c, 0, 89, 0
2, 59794, Note_on_c, 0, 77, 0
2, 59794, Note_on_c, 0, 73, 0
2, 59796, Note_on_c, 0, 85, 0
2, 59798, Note_on_c, 0, 65, 0
2, 59837, Note_on_c, 0, 69, 106
2, 59839, Note_on_c, 0, 61, 98
2, 59839, Note_on_c, 0, 42, 98
2, 59840, Note_on_c, 0, 30, 95
2, 59840, Note_on_c, 0, 57, 109
2, 59841, Note_on_c, 0, 64, 100
2, 59896, Control_c, 0, 64, 127
2, 60072, Note_on_c, 0, 61, 0
2, 60080, Note_on_c, 0, 61, 73
2, 60103, Note_on_c, 0, 30, 0
2, 60108, Note_on_c, 0, 68, 106
2, 60108, Control_c, 0, 64, 0
2, 60113, Note_on_c, 0, 52, 87
2, 60115, Note_on_c, 0, 42, 0
2, 60115, Note_on_c, 0, 49, 91
2, 60115, Note_on_c, 0, 61, 0
2, 60116, Note_on_c, 0, 69, 0
2, 60117, Note_on_c, 0, 64, 0
2, 60121, Note_on_c, 0, 57, 0
2, 60140, Note_on_c, 0, 49, 0
2, 60144, Note_on_c, 0, 52, 0
2, 60146, Note_on_c, 0, 68, 0
2, 60240, Note_on_c, 0, 42, 90
2, 60244, Note_on_c, 0, 66, 106
2, 60326, Control_c, 0, 64, 127
2, 60367, Note_on_c, 0, 57, 104
2, 60370, Note_on_c, 0, 52, 86
2, 60372, Note_on_c, 0, 49, 85
2, 60495, Note_on_c, 0, 42, 0
2, 60498, Note_on_c, 0, 64, 102
2, 60499, Note_on_c, 0, 42, 93
2, 60618, Note_on_c, 0, 42, 0
2, 60618, Note_on_c, 0, 49, 0
2, 60618, Note_on_c, 0, 52, 0
2, 60622, Note_on_c, 0, 52, 83
2, 60622, Note_on_c, 0, 49, 92
2, 60629, Note_on_c, 0, 42, 81
2, 60680, Control_c, 0, 64, 0
2, 60694, Note_on_c, 0, 52, 0
2, 60695, Note_on_c, 0, 42, 0
2, 60697, Note_on_c, 0, 64, 0
2, 60697, Note_on_c, 0, 57, 0
2, 60697, Note_on_c, 0, 49, 0
2, 60702, Note_on_c, 0, 66, 0
2, 60768, Note_on_c, 0, 63, 105
2, 60768, Note_on_c, 0, 59, 100
2, 60771, Note_on_c, 0, 47, 103
2, 60774, Note_on_c, 0, 35, 93
2, 60833, Control_c, 0, 64, 127
2, 61017, Note_on_c, 0, 47, 0
2, 61017, Note_on_c, 0, 59, 0
2, 61017, Note_on_c, 0, 63, 0
2, 61026, Note_on_c, 0, 47, 91
2, 61028, Note_on_c, 0, 63, 99
2, 61028, Note_on_c, 0, 59, 94
2, 61029, Note_on_c, 0, 54, 79
2, 61155, Note_on_c, 0, 54, 0
2, 61155, Note_on_c, 0, 59, 0
2, 61155, Note_on_c, 0, 63, 0
2, 61160, Note_on_c, 0, 51, 88
2, 61161, Note_on_c, 0, 63, 97
2, 61162, Note_on_c, 0, 54, 80
2, 61164, Note_on_c, 0, 59, 83
2, 61183, Control_c, 0, 64, 0
2, 61204, Note_on_c, 0, 47, 0
2, 61205, Note_on_c, 0, 54, 0
2, 61205, Note_on_c, 0, 59, 0
2, 61206, Note_on_c, 0, 51, 0
2, 61217, Note_on_c, 0, 35, 0
2, 61255, Note_on_c, 0, 63, 0
2, 61297, Note_on_c, 0, 64, 102
2, 61298, Note_on_c, 0, 59, 95
2, 61299, Note_on_c, 0, 33, 96
2, 61299, Note_on_c, 0, 45, 106
2, 61332, Control_c, 0, 64, 127
2, 61547, Note_on_c, 0, 33, 0
2, 61547, Note_on_c, 0, 45, 0
2, 61551, Note_on_c, 0, 45, 100
2, 61555, Note_on_c, 0, 66, 103
2, 61556, Note_on_c, 0, 33, 90
2, 61677, Note_on_c, 0, 54, 97
2, 61681, Note_on_c, 0, 51, 90
2, 61800, Note_on_c, 0, 59, 0
2, 61806, Control_c, 0, 64, 0
2, 61809, Note_on_c, 0, 59, 103
2, 61819, Note_on_c, 0, 64, 0
2, 61820, Note_on_c, 0, 33, 0
2, 61820, Note_on_c, 0, 66, 0
2, 61822, Note_on_c, 0, 54, 0
2, 61822, Note_on_c, 0, 51, 0
2, 61822, Note_on_c, 0, 45, 0
2, 61885, Note_on_c, 0, 59, 0
2, 61942, Note_on_c, 0, 71, 104
2, 61944, Note_on_c, 0, 63, 97
2, 61945, Note_on_c, 0, 66, 89
2, 61946, Note_on_c, 0, 44, 104
2, 61948, Note_on_c, 0, 32, 93
2, 61962, Control_c, 0, 64, 127
2, 62192, Note_on_c, 0, 63, 0
2, 62192, Note_on_c, 0, 71, 0
2, 62195, Note_on_c, 0, 51, 82
2, 62201, Note_on_c, 0, 71, 102
2, 62202, Note_on_c, 0, 63, 99
2, 62203, Note_on_c, 0, 54, 100
2, 62219, Control_c, 0, 64, 0
2, 62244, Note_on_c, 0, 44, 0
2, 62246, Note_on_c, 0, 32, 0
2, 62250, Note_on_c, 0, 54, 0
2, 62250, Note_on_c, 0, 71, 0
2, 62250, Note_on_c, 0, 63, 0
2, 62251, Note_on_c, 0, 51, 0
2, 62261, Note_on_c, 0, 66, 0
2, 62333, Note_on_c, 0, 44, 98
2, 62337, Note_on_c, 0, 71, 103
2, 62348, Note_on_c, 0, 63, 89
2, 62384, Control_c, 0, 64, 127
2, 62454, Note_on_c, 0, 54, 97
2, 62454, Note_on_c, 0, 59, 101
2, 62457, Note_on_c, 0, 51, 90
2, 62571, Note_on_c, 0, 68, 101
2, 62581, Note_on_c, 0, 69, 104
2, 62584, Note_on_c, 0, 44, 0
2, 62588, Note_on_c, 0, 44, 82
2, 62714, Note_on_c, 0, 51, 0
2, 62714, Note_on_c, 0, 54, 0
2, 62714, Note_on_c, 0, 68, 0
2, 62722, Note_on_c, 0, 54, 86
2, 62723, Note_on_c, 0, 68, 102
2, 62726, Note_on_c, 0, 51, 84
2, 62769, Control_c, 0, 64, 0
2, 62773, Note_on_c, 0, 71, 0
2, 62774, Note_on_c, 0, 44, 0
2, 62774, Note_on_c, 0, 51, 0
2, 62774, Note_on_c, 0, 54, 0
2, 62775, Note_on_c, 0, 63, 0
2, 62775, Note_on_c, 0, 69, 0
2, 62776, Note_on_c, 0, 59, 0
2, 62779, Note_on_c, 0, 68, 0
2, 62860, Note_on_c, 0, 66, 102
2, 62862, Note_on_c, 0, 59, 102
2, 62864, Note_on_c, 0, 63, 103
2, 62864, Note_on_c, 0, 49, 104
2, 62865, Note_on_c, 0, 37, 102
2, 62906, Control_c, 0, 64, 127
2, 63114, Note_on_c, 0, 64, 102
2, 63115, Note_on_c, 0, 44, 87
2, 63146, Note_on_c, 0, 63, 0
2, 63149, Note_on_c, 0, 59, 0
2, 63149, Note_on_c, 0, 66, 0
2, 63151, Control_c, 0, 64, 0
2, 63153, Note_on_c, 0, 49, 0
2, 63206, Control_c, 0, 64, 127
2, 63237, Note_on_c, 0, 64, 0
2, 63241, Note_on_c, 0, 64, 102
2, 63245, Note_on_c, 0, 56, 96
2, 63247, Note_on_c, 0, 59, 97
2, 63249, Note_on_c, 0, 49, 91
2, 63383, Note_on_c, 0, 44, 0
2, 63387, Note_on_c, 0, 51, 106
2, 63389, Note_on_c, 0, 44, 91
2, 63641, Note_on_c, 0, 52, 102
2, 63751, Note_on_c, 0, 37, 0
2, 63762, Note_on_c, 0, 37, 104
2, 63862, Note_on_c, 0, 57, 101
2, 63897, Note_on_c, 0, 59, 0
2, 63901, Note_on_c, 0, 59, 99
2, 63946, Note_on_c, 0, 61, 96
2, 63977, Note_on_c, 0, 59, 0
2, 63978, Note_on_c, 0, 56, 0
2, 63978, Note_on_c, 0, 51, 0
2, 63978, Note_on_c, 0, 37, 0
2, 63979, Note_on_c, 0, 52, 0
2, 63979, Note_on_c, 0, 44, 0
2, 63979, Note_on_c, 0, 49, 0
2, 63981, Note_on_c, 0, 57, 0
2, 63984, Control_c, 0, 64, 0
2, 63985, Note_on_c, 0, 61, 0
2, 64020, Note_on_c, 0, 64, 0
2, 64028, Note_on_c, 0, 64, 111
2, 64032, Note_on_c, 0, 57, 103
2, 64032, Note_on_c, 0, 61, 104
2, 64035, Note_on_c, 0, 42, 105
2, 64038, Note_on_c, 0, 30, 102
2, 64158, Control_c, 0, 64, 127
2, 64308, Note_on_c, 0, 52, 89
2, 64310, Note_on_c, 0, 49, 87
2, 64435, Note_on_c, 0, 57, 0
2, 64435, Note_on_c, 0, 64, 0
2, 64442, Note_on_c, 0, 42, 0
2, 64445, Note_on_c, 0, 64, 109
2, 64446, Note_on_c, 0, 57, 100
2, 64447, Note_on_c, 0, 42, 90
2, 64573, Note_on_c, 0, 49, 0
2, 64573, Note_on_c, 0, 52, 0
2, 64579, Note_on_c, 0, 52, 94
2, 64583, Note_on_c, 0, 49, 97
2, 64696, Note_on_c, 0, 42, 0
2, 64704, Note_on_c, 0, 61, 0
2, 64705, Note_on_c, 0, 42, 98
2, 64707, Note_on_c, 0, 61, 98
2, 64709, Note_on_c, 0, 54, 88
2, 64719, Note_on_c, 0, 54, 0
2, 64826, Note_on_c, 0, 49, 0
2, 64826, Note_on_c, 0, 52, 0
2, 64832, Note_on_c, 0, 52, 92
2, 64832, Note_on_c, 0, 49, 84
2, 64834, Note_on_c, 0, 63, 103
2, 64899, Control_c, 0, 64, 0
2, 64908, Note_on_c, 0, 49, 0
2, 64910, Note_on_c, 0, 64, 0
2, 64912, Note_on_c, 0, 42, 0
2, 64912, Note_on_c, 0, 52, 0
2, 64913, Note_on_c, 0, 61, 0
2, 64915, Note_on_c, 0, 63, 0
2, 64919, Note_on_c, 0, 30, 0
2, 64934, Note_on_c, 0, 57, 0
2, 64978, Note_on_c, 0, 64, 110
2, 64982, Note_on_c, 0, 59, 98
2, 64983, Note_on_c, 0, 56, 104
2, 64985, Note_on_c, 0, 32, 93
2, 64988, Note_on_c, 0, 44, 99
2, 65049, Control_c, 0, 64, 127
2, 65241, Note_on_c, 0, 44, 0
2, 65245, Note_on_c, 0, 44, 86
2, 65372, Note_on_c, 0, 59, 0
2, 65372, Note_on_c, 0, 64, 0
2, 65382, Note_on_c, 0, 59, 103
2, 65382, Note_on_c, 0, 47, 100
2, 65383, Note_on_c, 0, 64, 106
2, 65383, Note_on_c, 0, 52, 98
2, 65510, Note_on_c, 0, 44, 0
2, 65514, Note_on_c, 0, 44, 99
2, 65640, Note_on_c, 0, 47, 0
2, 65640, Note_on_c, 0, 52, 0
2, 65648, Note_on_c, 0, 44, 0
2, 65648, Note_on_c, 0, 59, 0
2, 65650, Note_on_c, 0, 52, 99
2, 65651, Note_on_c, 0, 66, 106
2, 65652, Note_on_c, 0, 47, 100
2, 65653, Note_on_c, 0, 59, 101
2, 65656, Note_on_c, 0, 44, 94
2, 65771, Note_on_c, 0, 44, 0
2, 65780, Note_on_c, 0, 44, 96
2, 65902, Note_on_c, 0, 47, 0
2, 65902, Note_on_c, 0, 52, 0
2, 65911, Note_on_c, 0, 47, 98
2, 65912, Note_on_c, 0, 52, 98
2, 65913, Note_on_c, 0, 68, 109
2, 66017, Note_on_c, 0, 44, 0
2, 66028, Note_on_c, 0, 44, 92
2, 66122, Note_on_c, 0, 56, 0
2, 66122, Note_on_c, 0, 47, 0
2, 66122, Note_on_c, 0, 52, 0
2, 66122, Control_c, 0, 64, 0
2, 66123, Note_on_c, 0, 59, 0
2, 66123, Note_on_c, 0, 32, 0
2, 66123, Note_on_c, 0, 64, 0
2, 66123, Note_on_c, 0, 68, 0
2, 66147, Note_on_c, 0, 44, 0
2, 66147, Note_on_c, 0, 66, 0
2, 66174, Note_on_c, 0, 68, 113
2, 66179, Note_on_c, 0, 52, 92
2, 66181, Note_on_c, 0, 61, 103
2, 66181, Note_on_c, 0, 49, 103
2, 66182, Note_on_c, 0, 59, 104
2, 66224, Control_c, 0, 64, 127
2, 66309, Note_on_c, 0, 33, 92
2, 66438, Note_on_c, 0, 45, 95
2, 66570, Note_on_c, 0, 52, 0
2, 66577, Note_on_c, 0, 49, 0
2, 66581, Note_on_c, 0, 52, 102
2, 66587, Note_on_c, 0, 49, 102
2, 66716, Note_on_c, 0, 33, 0
2, 66724, Note_on_c, 0, 33, 92
2, 66862, Note_on_c, 0, 45, 0
2, 66868, Note_on_c, 0, 45, 92
2, 66870, Note_on_c, 0, 69, 109
2, 66961, Note_on_c, 0, 49, 0
2, 66961, Note_on_c, 0, 52, 0
2, 66965, Note_on_c, 0, 52, 94
2, 66967, Note_on_c, 0, 49, 99
2, 66992, Note_on_c, 0, 68, 0
2, 67001, Note_on_c, 0, 68, 111
2, 67038, Note_on_c, 0, 45, 0
2, 67043, Note_on_c, 0, 45, 34
2, 67072, Control_c, 0, 64, 0
2, 67074, Note_on_c, 0, 52, 0
2, 67075, Note_on_c, 0, 69, 0
2, 67075, Note_on_c, 0, 59, 0
2, 67075, Note_on_c, 0, 68, 0
2, 67076, Note_on_c, 0, 61, 0
2, 67077, Note_on_c, 0, 49, 0
2, 67092, Note_on_c, 0, 33, 0
2, 67107, Note_on_c, 0, 45, 0
2, 67132, Note_on_c, 0, 54, 111
2, 67134, Note_on_c, 0, 59, 107
2, 67134, Note_on_c, 0, 47, 104
2, 67135, Note_on_c, 0, 63, 103
2, 67215, Control_c, 0, 64, 127
2, 67392, Note_on_c, 0, 35, 97
2, 67507, Note_on_c, 0, 47, 0
2, 67517, Note_on_c, 0, 47, 101
2, 67518, Note_on_c, 0, 42, 100
2, 67637, Note_on_c, 0, 35, 0
2, 67647, Note_on_c, 0, 35, 77
2, 67706, Note_on_c, 0, 47, 0
2, 67713, Note_on_c, 0, 47, 100
2, 67770, Note_on_c, 0, 64, 112
2, 67770, Control_c, 0, 64, 0
2, 67784, Note_on_c, 0, 54, 0
2, 67785, Note_on_c, 0, 63, 0
2, 67785, Note_on_c, 0, 59, 0
2, 67786, Note_on_c, 0, 42, 0
2, 67788, Note_on_c, 0, 47, 0
2, 67814, Note_on_c, 0, 35, 0
2, 68038, Note_on_c, 0, 47, 106
2, 68039, Note_on_c, 0, 71, 104
2, 68090, Control_c, 0, 64, 127
2, 68098, Note_on_c, 0, 64, 0
2, 68099, Note_on_c, 0, 42, 87
2, 68164, Note_on_c, 0, 35, 92
2, 68256, Note_on_c, 0, 42, 0
2, 68257, Control_c, 0, 64, 0
2, 68257, Note_on_c, 0, 35, 0
2, 68268, Note_on_c, 0, 71, 0
2, 68282, Note_on_c, 0, 47, 0
2, 68312, Note_on_c, 0, 66, 106
2, 68312, Note_on_c, 0, 61, 103
2, 68312, Note_on_c, 0, 45, 109
2, 68315, Note_on_c, 0, 33, 101
2, 68315, Note_on_c, 0, 59, 100
2, 68436, Control_c, 0, 64, 127
2, 68592, Note_on_c, 0, 52, 86
2, 68594, Note_on_c, 0, 49, 92
2, 68720, Note_on_c, 0, 45, 0
2, 68727, Note_on_c, 0, 64, 108
2, 68731, Note_on_c, 0, 45, 96
2, 68851, Note_on_c, 0, 59, 0
2, 68851, Note_on_c, 0, 64, 0
2, 68858, Note_on_c, 0, 49, 0
2, 68858, Note_on_c, 0, 52, 0
2, 68860, Note_on_c, 0, 64, 104
2, 68862, Note_on_c, 0, 59, 105
2, 68863, Note_on_c, 0, 49, 90
2, 68863, Note_on_c, 0, 52, 100
2, 68997, Note_on_c, 0, 52, 0
2, 69004, Note_on_c, 0, 49, 0
2, 69004, Note_on_c, 0, 61, 0
2, 69006, Note_on_c, 0, 52, 86
2, 69009, Note_on_c, 0, 61, 100
2, 69009, Note_on_c, 0, 49, 87
2, 69112, Note_on_c, 0, 45, 0
2, 69118, Note_on_c, 0, 45, 95
2, 69192, Control_c, 0, 64, 0
2, 69200, Note_on_c, 0, 66, 0
2, 69200, Note_on_c, 0, 52, 0
2, 69201, Note_on_c, 0, 49, 0
2, 69201, Note_on_c, 0, 45, 0
2, 69202, Note_on_c, 0, 64, 0
2, 69202, Note_on_c, 0, 59, 0
2, 69205, Note_on_c, 0, 61, 0
2, 69219, Note_on_c, 0, 33, 0
2, 69269, Note_on_c, 0, 47, 111
2, 69269, Note_on_c, 0, 59, 105
2, 69270, Note_on_c, 0, 35, 100
2, 69350, Control_c, 0, 64, 127
2, 69534, Note_on_c, 0, 47, 0
2, 69542, Note_on_c, 0, 47, 94
2, 69544, Note_on_c, 0, 57, 103
2, 69676, Note_on_c, 0, 52, 91
2, 69810, Note_on_c, 0, 54, 104
2, 69811, Note_on_c, 0, 56, 104
2, 70064, Note_on_c, 0, 47, 0
2, 70072, Note_on_c, 0, 57, 0
2, 70076, Note_on_c, 0, 47, 100
2, 70076, Note_on_c, 0, 57, 104
2, 70195, Note_on_c, 0, 35, 0
2, 70199, Note_on_c, 0, 35, 88
2, 70318, Note_on_c, 0, 56, 0
2, 70329, Note_on_c, 0, 56, 94
2, 70379, Note_on_c, 0, 57, 0
2, 70383, Note_on_c, 0, 57, 90
2, 70398, Control_c, 0, 64, 0
2, 70406, Note_on_c, 0, 35, 0
2, 70407, Note_on_c, 0, 54, 0
2, 70440, Note_on_c, 0, 47, 0
2, 70440, Note_on_c, 0, 52, 0
2, 70440, Note_on_c, 0, 56, 0
2, 70440, Note_on_c, 0, 57, 0
2, 70440, Note_on_c, 0, 59, 0
2, 70446, Note_on_c, 0, 59, 101
2, 70446, Note_on_c, 0, 56, 101
2, 70447, Note_on_c, 0, 40, 105
2, 70448, Note_on_c, 0, 52, 105
2, 70525, Control_c, 0, 64, 127
2, 70686, Note_on_c, 0, 40, 0
2, 70696, Note_on_c, 0, 40, 85
2, 70817, Note_on_c, 0, 52, 0
2, 70817, Note_on_c, 0, 59, 0
2, 70825, Note_on_c, 0, 52, 89
2, 70827, Note_on_c, 0, 59, 105
2, 70897, Control_c, 0, 64, 0
2, 70905, Note_on_c, 0, 40, 0
2, 70905, Note_on_c, 0, 52, 0
2, 70906, Note_on_c, 0, 59, 0
2, 70917, Note_on_c, 0, 56, 0
2, 70964, Note_on_c, 0, 39, 100
2, 70964, Note_on_c, 0, 51, 106
2, 70965, Note_on_c, 0, 59, 107
2, 70966, Note_on_c, 0, 64, 105
2, 70966, Note_on_c, 0, 47, 96
2, 70993, Control_c, 0, 64, 127
2, 71109, Note_on_c, 0, 63, 103
2, 71216, Note_on_c, 0, 39, 0
2, 71227, Note_on_c, 0, 39, 89
2, 71312, Control_c, 0, 64, 0
2, 71318, Note_on_c, 0, 47, 0
2, 71320, Note_on_c, 0, 51, 0
2, 71320, Note_on_c, 0, 63, 0
2, 71320, Note_on_c, 0, 59, 0
2, 71320, Note_on_c, 0, 64, 0
2, 71320, Note_on_c, 0, 39, 0
2, 71376, Note_on_c, 0, 49, 106
2, 71378, Note_on_c, 0, 59, 99
2, 71379, Note_on_c, 0, 37, 101
2, 71431, Control_c, 0, 64, 127
2, 71616, Note_on_c, 0, 49, 0
2, 71626, Note_on_c, 0, 49, 96
2, 71759, Note_on_c, 0, 52, 91
2, 71892, Note_on_c, 0, 52, 0
2, 71892, Note_on_c, 0, 59, 0
2, 71898, Note_on_c, 0, 59, 104
2, 71902, Note_on_c, 0, 56, 98
2, 71903, Note_on_c, 0, 52, 93
2, 72018, Note_on_c, 0, 64, 104
2, 72065, Note_on_c, 0, 66, 96
2, 72118, Note_on_c, 0, 68, 99
2, 72163, Note_on_c, 0, 69, 98
2, 72205, Note_on_c, 0, 71, 98
2, 72253, Note_on_c, 0, 49, 0
2, 72257, Note_on_c, 0, 49, 92
2, 72280, Note_on_c, 0, 76, 99
2, 72328, Note_on_c, 0, 78, 100
2, 72371, Note_on_c, 0, 80, 96
2, 72411, Note_on_c, 0, 81, 99
2, 72521, Control_c, 0, 64, 0
2, 72522, Note_on_c, 0, 52, 0
2, 72523, Note_on_c, 0, 57, 104
2, 72524, Note_on_c, 0, 59, 0
2, 72525, Note_on_c, 0, 66, 0
2, 72525, Note_on_c, 0, 68, 0
2, 72525, Note_on_c, 0, 80, 0
2, 72525, Note_on_c, 0, 71, 0
2, 72525, Note_on_c, 0, 56, 0
2, 72525, Note_on_c, 0, 69, 0
2, 72526, Note_on_c, 0, 78, 0
2, 72526, Note_on_c, 0, 64, 0
2, 72526, Note_on_c, 0, 37, 0
2, 72529, Note_on_c, 0, 76, 0
2, 72532, Note_on_c, 0, 42, 102
2, 72533, Note_on_c, 0, 52, 95
2, 72539, Note_on_c, 0, 88, 111
2, 72540, Note_on_c, 0, 76, 109
2, 72591, Control_c, 0, 64, 127
2, 72679, Note_on_c, 0, 87, 104
2, 72681, Note_on_c, 0, 75, 96
2, 72796, Note_on_c, 0, 54, 92
2, 72798, Note_on_c, 0, 88, 0
2, 72804, Note_on_c, 0, 88, 111
2, 72806, Note_on_c, 0, 76, 0
2, 72810, Note_on_c, 0, 76, 97
2, 72929, Note_on_c, 0, 57, 0
2, 72929, Note_on_c, 0, 76, 0
2, 72933, Note_on_c, 0, 64, 99
2, 72934, Note_on_c, 0, 57, 101
2, 72934, Note_on_c, 0, 71, 105
2, 72938, Note_on_c, 0, 61, 94
2, 72939, Note_on_c, 0, 83, 104
2, 72940, Note_on_c, 0, 76, 90
2, 73190, Note_on_c, 0, 54, 0
2, 73190, Note_on_c, 0, 81, 0
2, 73195, Note_on_c, 0, 54, 98
2, 73201, Note_on_c, 0, 81, 110
2, 73202, Note_on_c, 0, 69, 106
2, 73313, Note_on_c, 0, 61, 0
2, 73313, Note_on_c, 0, 64, 0
2, 73323, Note_on_c, 0, 61, 85
2, 73323, Note_on_c, 0, 64, 100
2, 73344, Note_on_c, 0, 57, 0
2, 73351, Note_on_c, 0, 57, 58
2, 73472, Note_on_c, 0, 80, 106
2, 73477, Note_on_c, 0, 68, 110
2, 73557, Control_c, 0, 64, 0
2, 73566, Note_on_c, 0, 42, 0
2, 73566, Note_on_c, 0, 49, 0
2, 73567, Note_on_c, 0, 87, 0
2, 73568, Note_on_c, 0, 88, 0
2, 73568, Note_on_c, 0, 57, 0
2, 73568, Note_on_c, 0, 75, 0
2, 73568, Note_on_c, 0, 64, 0
2, 73568, Note_on_c, 0, 76, 0
2, 73568, Note_on_c, 0, 54, 0
2, 73568, Note_on_c, 0, 83, 0
2, 73569, Note_on_c, 0, 69, 0
2, 73569, Note_on_c, 0, 81, 0
2, 73569, Note_on_c, 0, 71, 0
2, 73582, Note_on_c, 0, 52, 0
2, 73582, Note_on_c, 0, 61, 0
2, 73585, Note_on_c, 0, 59, 100
2, 73586, Note_on_c, 0, 52, 93
2, 73588, Note_on_c, 0, 44, 97
2, 73658, Control_c, 0, 64, 127
2, 73721, Note_on_c, 0, 81, 107
2, 73723, Note_on_c, 0, 69, 101
2, 73853, Note_on_c, 0, 83, 107
2, 73857, Note_on_c, 0, 71, 102
2, 73858, Note_on_c, 0, 52, 0
2, 73864, Note_on_c, 0, 52, 80
2, 73989, Note_on_c, 0, 59, 0
2, 73990, Note_on_c, 0, 76, 107
2, 73993, Note_on_c, 0, 59, 97
2, 73994, Note_on_c, 0, 64, 109
2, 73996, Note_on_c, 0, 44, 0
2, 73996, Note_on_c, 0, 52, 0
2, 74002, Note_on_c, 0, 44, 83
2, 74007, Note_on_c, 0, 56, 93
2, 74008, Note_on_c, 0, 52, 85
2, 74234, Note_on_c, 0, 52, 0
2, 74239, Note_on_c, 0, 52, 94
2, 74265, Note_on_c, 0, 44, 0
2, 74270, Note_on_c, 0, 44, 64
2, 74365, Note_on_c, 0, 64, 0
2, 74373, Note_on_c, 0, 52, 0
2, 74373, Note_on_c, 0, 56, 0
2, 74373, Note_on_c, 0, 59, 0
2, 74375, Note_on_c, 0, 64, 105
2, 74376, Note_on_c, 0, 73, 103
2, 74376, Note_on_c, 0, 59, 94
2, 74377, Note_on_c, 0, 56, 96
2, 74383, Note_on_c, 0, 52, 85
2, 74422, Note_on_c, 0, 75, 73
2, 74457, Note_on_c, 0, 76, 0
2, 74468, Note_on_c, 0, 76, 98
2, 74514, Note_on_c, 0, 78, 102
2, 74626, Note_on_c, 0, 68, 0
2, 74626, Note_on_c, 0, 80, 0
2, 74630, Control_c, 0, 64, 0
2, 74631, Note_on_c, 0, 80, 108
2, 74634, Note_on_c, 0, 52, 0
2, 74634, Note_on_c, 0, 73, 0
2, 74634, Note_on_c, 0, 76, 0
2, 74637, Note_on_c, 0, 68, 112
2, 74638, Note_on_c, 0, 57, 105
2, 74641, Note_on_c, 0, 73, 104
2, 74641, Note_on_c, 0, 83, 0
2, 74642, Note_on_c, 0, 71, 0
2, 74643, Note_on_c, 0, 56, 0
2, 74643, Note_on_c, 0, 59, 0
2, 74643, Note_on_c, 0, 78, 0
2, 74644, Note_on_c, 0, 75, 0
2, 74644, Note_on_c, 0, 76, 99
2, 74644, Note_on_c, 0, 69, 0
2, 74644, Note_on_c, 0, 44, 0
2, 74645, Note_on_c, 0, 81, 0
2, 74645, Note_on_c, 0, 52, 96
2, 74646, Note_on_c, 0, 49, 102
2, 74664, Note_on_c, 0, 64, 0
2, 74757, Control_c, 0, 64, 127
2, 74779, Note_on_c, 0, 45, 96
2, 74910, Note_on_c, 0, 45, 0
2, 74920, Note_on_c, 0, 45, 87
2, 75041, Note_on_c, 0, 49, 0
2, 75041, Note_on_c, 0, 52, 0
2, 75041, Note_on_c, 0, 57, 0
2, 75046, Note_on_c, 0, 57, 102
2, 75050, Note_on_c, 0, 52, 89
2, 75051, Note_on_c, 0, 49, 93
2, 75164, Note_on_c, 0, 45, 0
2, 75172, Note_on_c, 0, 45, 99
2, 75294, Note_on_c, 0, 45, 0
2, 75306, Note_on_c, 0, 45, 99
2, 75308, Note_on_c, 0, 81, 104
2, 75425, Note_on_c, 0, 49, 0
2, 75425, Note_on_c, 0, 57, 0
2, 75432, Note_on_c, 0, 45, 0
2, 75432, Note_on_c, 0, 52, 0
2, 75434, Note_on_c, 0, 57, 98
2, 75436, Note_on_c, 0, 49, 90
2, 75436, Note_on_c, 0, 52, 81
2, 75438, Note_on_c, 0, 83, 103
2, 75442, Note_on_c, 0, 45, 87
2, 75571, Note_on_c, 0, 81, 0
2, 75571, Note_on_c, 0, 83, 0
2, 75577, Note_on_c, 0, 87, 109
2, 75578, Note_on_c, 0, 59, 105
2, 75580, Note_on_c, 0, 75, 107
2, 75580, Note_on_c, 0, 83, 98
2, 75581, Note_on_c, 0, 47, 103
2, 75582, Note_on_c, 0, 81, 100
2, 75589, Control_c, 0, 64, 0
2, 75593, Note_on_c, 0, 52, 0
2, 75595, Note_on_c, 0, 73, 0
2, 75597, Note_on_c, 0, 76, 0
2, 75598, Note_on_c, 0, 45, 0
2, 75601, Note_on_c, 0, 68, 0
2, 75609, Note_on_c, 0, 49, 0
2, 75617, Note_on_c, 0, 57, 0
2, 75617, Note_on_c, 0, 80, 0
2, 75740, Control_c, 0, 64, 127
2, 75842, Note_on_c, 0, 54, 75
2, 75955, Note_on_c, 0, 59, 0
2, 75962, Note_on_c, 0, 59, 79
2, 76111, Note_on_c, 0, 71, 101
2, 76111, Note_on_c, 0, 66, 96
2, 76114, Note_on_c, 0, 63, 89
2, 76392, Note_on_c, 0, 47, 0
2, 76401, Note_on_c, 0, 47, 72
2, 76538, Note_on_c, 0, 54, 0
2, 76549, Note_on_c, 0, 54, 68
2, 76848, Note_on_c, 0, 85, 99
2, 76849, Note_on_c, 0, 49, 82
2, 76851, Note_on_c, 0, 73, 85
2, 76852, Note_on_c, 0, 80, 81
2, 76856, Note_on_c, 0, 77, 75
2, 76865, Control_c, 0, 64, 0
2, 76875, Note_on_c, 0, 71, 0
2, 76875, Note_on_c, 0, 59, 0
2, 76876, Note_on_c, 0, 54, 0
2, 76877, Note_on_c, 0, 66, 0
2, 76877, Note_on_c, 0, 87, 0
2, 76878, Note_on_c, 0, 75, 0
2, 76878, Note_on_c, 0, 47, 0
2, 76879, Note_on_c, 0, 63, 0
2, 76884, Note_on_c, 0, 81, 0
2, 76884, Note_on_c, 0, 83, 0
2, 77053, Control_c, 0, 64, 127
2, 77124, Note_on_c, 0, 56, 65
2, 77270, Note_on_c, 0, 61, 62
2, 77408, Note_on_c, 0, 65, 53
2, 77529, Note_on_c, 0, 73, 0
2, 77533, Note_on_c, 0, 73, 74
2, 77668, Note_on_c, 0, 72, 72
2, 77798, Note_on_c, 0, 73, 0
2, 77806, Note_on_c, 0, 73, 72
2, 77923, Note_on_c, 0, 51, 68
2, 77932, Note_on_c, 0, 75, 83
2, 77937, Control_c, 0, 64, 0
2, 77940, Note_on_c, 0, 65, 0
2, 77940, Note_on_c, 0, 72, 0
2, 77941, Note_on_c, 0, 77, 0
2, 77941, Note_on_c, 0, 80, 0
2, 77941, Note_on_c, 0, 61, 0
2, 77941, Note_on_c, 0, 73, 0
2, 77942, Note_on_c, 0, 85, 0
2, 77942, Note_on_c, 0, 49, 0
2, 77944, Note_on_c, 0, 56, 0
2, 77945, Note_on_c, 0, 70, 69
2, 77946, Note_on_c, 0, 66, 60
2, 78082, Control_c, 0, 64, 127
2, 78199, Note_on_c, 0, 58, 67
2, 78332, Note_on_c, 0, 61, 61
2, 78451, Note_on_c, 0, 66, 0
2, 78461, Note_on_c, 0, 66, 75
2, 78581, Note_on_c, 0, 75, 0
2, 78591, Note_on_c, 0, 75, 77
2, 78734, Note_on_c, 0, 73, 75
2, 78865, Note_on_c, 0, 75, 0
2, 78872, Note_on_c, 0, 75, 72
2, 79004, Note_on_c, 0, 53, 69
2, 79006, Note_on_c, 0, 51, 0
2, 79006, Note_on_c, 0, 58, 0
2, 79007, Note_on_c, 0, 61, 0
2, 79007, Note_on_c, 0, 75, 0
2, 79007, Note_on_c, 0, 77, 86
2, 79008, Note_on_c, 0, 66, 0
2, 79009, Note_on_c, 0, 70, 0
2, 79011, Note_on_c, 0, 73, 0
2, 79013, Control_c, 0, 64, 0
2, 79020, Note_on_c, 0, 68, 76
2, 79021, Note_on_c, 0, 73, 72
2, 79142, Control_c, 0, 64, 127
2, 79270, Note_on_c, 0, 61, 69
2, 79414, Note_on_c, 0, 65, 51
2, 79534, Note_on_c, 0, 68, 0
2, 79541, Note_on_c, 0, 77, 0
2, 79545, Note_on_c, 0, 68, 66
2, 79546, Note_on_c, 0, 77, 83
2, 79677, Note_on_c, 0, 78, 74
2, 79791, Note_on_c, 0, 80, 83
2, 79935, Note_on_c, 0, 46, 71
2, 79936, Note_on_c, 0, 75, 86
2, 79938, Control_c, 0, 64, 0
2, 79940, Note_on_c, 0, 53, 0
2, 79941, Note_on_c, 0, 78, 0
2, 79942, Note_on_c, 0, 61, 0
2, 79942, Note_on_c, 0, 68, 0
2, 79943, Note_on_c, 0, 73, 0
2, 79944, Note_on_c, 0, 80, 0
2, 79944, Note_on_c, 0, 77, 0
2, 79948, Note_on_c, 0, 65, 0
2, 79953, Note_on_c, 0, 65, 57
2, 80117, Control_c, 0, 64, 127
2, 80197, Note_on_c, 0, 73, 80
2, 80199, Note_on_c, 0, 53, 67
2, 80332, Note_on_c, 0, 73, 0
2, 80336, Note_on_c, 0, 60, 72
2, 80337, Note_on_c, 0, 73, 83
2, 80482, Note_on_c, 0, 61, 74
2, 80732, Note_on_c, 0, 53, 0
2, 80743, Note_on_c, 0, 53, 66
2, 80855, Note_on_c, 0, 46, 0
2, 80865, Note_on_c, 0, 46, 74
2, 80969, Note_on_c, 0, 68, 77
2, 81019, Note_on_c, 0, 72, 78
2, 81062, Note_on_c, 0, 73, 0
2, 81067, Note_on_c, 0, 73, 77
2, 81125, Note_on_c, 0, 80, 93
2, 81125, Control_c, 0, 64, 0
2, 81128, Note_on_c, 0, 54, 74
2, 81132, Note_on_c, 0, 46, 0
2, 81133, Note_on_c, 0, 75, 0
2, 81133, Note_on_c, 0, 60, 0
2, 81134, Note_on_c, 0, 61, 0
2, 81134, Note_on_c, 0, 53, 0
2, 81177, Note_on_c, 0, 65, 0
2, 81254, Control_c, 0, 64, 127
2, 81394, Note_on_c, 0, 60, 64
2, 81540, Note_on_c, 0, 61, 68
2, 81661, Note_on_c, 0, 68, 0
2, 81670, Note_on_c, 0, 68, 80
2, 81797, Note_on_c, 0, 75, 86
2, 81930, Note_on_c, 0, 73, 0
2, 81939, Note_on_c, 0, 73, 84
2, 82063, Control_c, 0, 64, 0
2, 82068, Note_on_c, 0, 68, 0
2, 82068, Note_on_c, 0, 72, 0
2, 82073, Note_on_c, 0, 72, 89
2, 82076, Note_on_c, 0, 53, 80
2, 82078, Note_on_c, 0, 68, 75
2, 82080, Note_on_c, 0, 75, 0
2, 82080, Note_on_c, 0, 80, 0
2, 82080, Note_on_c, 0, 73, 0
2, 82081, Note_on_c, 0, 61, 0
2, 82086, Note_on_c, 0, 54, 0
2, 82087, Note_on_c, 0, 60, 0
2, 82346, Note_on_c, 0, 60, 64
2, 82348, Note_on_c, 0, 73, 80
2, 82368, Control_c, 0, 64, 127
2, 82477, Note_on_c, 0, 63, 74
2, 82479, Note_on_c, 0, 75, 80
2, 82576, Control_c, 0, 64, 0
2, 82576, Note_on_c, 0, 53, 0
2, 82577, Note_on_c, 0, 72, 0
2, 82578, Note_on_c, 0, 68, 0
2, 82579, Note_on_c, 0, 60, 0
2, 82582, Note_on_c, 0, 63, 0
2, 82606, Note_on_c, 0, 73, 0
2, 82615, Note_on_c, 0, 73, 87
2, 82616, Note_on_c, 0, 46, 71
2, 82618, Note_on_c, 0, 65, 68
2, 82728, Note_on_c, 0, 75, 0
2, 82775, Control_c, 0, 64, 127
2, 82888, Note_on_c, 0, 53, 67
2, 83037, Note_on_c, 0, 61, 65
2, 83182, Note_on_c, 0, 61, 0
2, 83190, Note_on_c, 0, 61, 59
2, 83259, Note_on_c, 0, 66, 60
2, 83271, Control_c, 0, 64, 0
2, 83272, Note_on_c, 0, 65, 0
2, 83272, Note_on_c, 0, 53, 0
2, 83280, Note_on_c, 0, 70, 69
2, 83282, Note_on_c, 0, 46, 0
2, 83300, Note_on_c, 0, 51, 69
2, 83304, Note_on_c, 0, 73, 0
2, 83309, Note_on_c, 0, 73, 85
2, 83579, Note_on_c, 0, 58, 70
2, 83696, Control_c, 0, 64, 127
2, 83719, Note_on_c, 0, 61, 0
2, 83726, Note_on_c, 0, 61, 64
2, 83857, Note_on_c, 0, 66, 0
2, 83862, Note_on_c, 0, 66, 65
2, 83988, Note_on_c, 0, 70, 0
2, 83993, Note_on_c, 0, 70, 82
2, 84111, Note_on_c, 0, 73, 0
2, 84122, Note_on_c, 0, 73, 80
2, 84237, Control_c, 0, 64, 0
2, 84246, Note_on_c, 0, 70, 0
2, 84247, Note_on_c, 0, 51, 0
2, 84247, Note_on_c, 0, 58, 0
2, 84248, Note_on_c, 0, 66, 0
2, 84248, Note_on_c, 0, 61, 0
2, 84250, Note_on_c, 0, 56, 73
2, 84257, Note_on_c, 0, 73, 0
2, 84257, Note_on_c, 0, 77, 82
2, 84257, Note_on_c, 0, 68, 78
2, 84265, Note_on_c, 0, 73, 66
2, 84532, Note_on_c, 0, 78, 79
2, 84609, Note_on_c, 0, 68, 0
2, 84641, Note_on_c, 0, 77, 0
2, 84652, Note_on_c, 0, 77, 69
2, 84660, Note_on_c, 0, 58, 70
2, 84696, Note_on_c, 0, 78, 0
2, 84733, Note_on_c, 0, 73, 0
2, 84798, Note_on_c, 0, 75, 82
2, 84806, Note_on_c, 0, 72, 72
2, 84811, Note_on_c, 0, 68, 66
2, 84902, Note_on_c, 0, 77, 0
2, 84937, Note_on_c, 0, 60, 63
2, 85178, Control_c, 0, 64, 127
2, 85216, Note_on_c, 0, 63, 62
2, 85332, Note_on_c, 0, 68, 0
2, 85339, Note_on_c, 0, 68, 64
2, 85374, Note_on_c, 0, 73, 80
2, 85401, Note_on_c, 0, 75, 0
2, 85403, Note_on_c, 0, 58, 0
2, 85405, Note_on_c, 0, 68, 0
2, 85405, Note_on_c, 0, 75, 53
2, 85405, Note_on_c, 0, 60, 0
2, 85405, Control_c, 0, 64, 0
2, 85406, Note_on_c, 0, 72, 0
2, 85406, Note_on_c, 0, 56, 0
2, 85406, Note_on_c, 0, 63, 0
2, 85415, Note_on_c, 0, 73, 0
2, 85492, Note_on_c, 0, 73, 83
2, 85493, Note_on_c, 0, 75, 0
2, 85496, Note_on_c, 0, 80, 89
2, 85497, Note_on_c, 0, 65, 80
2, 85497, Note_on_c, 0, 75, 86
2, 85499, Note_on_c, 0, 68, 80
2, 85501, Control_c, 0, 64, 127
2, 85504, Note_on_c, 0, 61, 77
2, 85504, Note_on_c, 0, 54, 76
2, 85616, Note_on_c, 0, 80, 0
2, 85624, Note_on_c, 0, 68, 0
2, 85627, Note_on_c, 0, 80, 93
2, 85629, Note_on_c, 0, 68, 72
2, 85632, Note_on_c, 0, 61, 0
2, 85632, Note_on_c, 0, 75, 0
2, 85639, Note_on_c, 0, 65, 0
2, 85641, Note_on_c, 0, 75, 68
2, 85643, Note_on_c, 0, 61, 62
2, 85643, Note_on_c, 0, 65, 62
2, 85652, Note_on_c, 0, 54, 0
2, 85658, Control_c, 0, 64, 0
2, 85670, Note_on_c, 0, 73, 0
2, 85685, Note_on_c, 0, 68, 0
2, 85685, Note_on_c, 0, 75, 0
2, 85693, Note_on_c, 0, 61, 0
2, 85693, Note_on_c, 0, 65, 0
2, 85693, Note_on_c, 0, 80, 0
2, 85884, Note_on_c, 0, 80, 81
2, 85935, Note_on_c, 0, 85, 77
2, 85939, Control_c, 0, 64, 127
2, 85974, Note_on_c, 0, 87, 44
2, 86016, Note_on_c, 0, 80, 0
2, 86018, Note_on_c, 0, 92, 102
2, 86020, Note_on_c, 0, 80, 95
2, 86164, Note_on_c, 0, 61, 82
2, 86165, Note_on_c, 0, 65, 78
2, 86165, Note_on_c, 0, 54, 71
2, 86284, Note_on_c, 0, 61, 0
2, 86289, Note_on_c, 0, 82, 93
2, 86289, Note_on_c, 0, 70, 82
2, 86295, Note_on_c, 0, 61, 63
2, 86315, Note_on_c, 0, 65, 0
2, 86320, Note_on_c, 0, 65, 50
2, 86340, Control_c, 0, 64, 0
2, 86341, Note_on_c, 0, 54, 0
2, 86342, Note_on_c, 0, 92, 0
2, 86342, Note_on_c, 0, 80, 0
2, 86342, Note_on_c, 0, 85, 0
2, 86343, Note_on_c, 0, 87, 0
2, 86343, Note_on_c, 0, 61, 0
2, 86349, Note_on_c, 0, 82, 0
2, 86349, Note_on_c, 0, 70, 0
2, 86369, Note_on_c, 0, 65, 0
2, 86418, Note_on_c, 0, 80, 99
2, 86421, Note_on_c, 0, 68, 91
2, 86423, Note_on_c, 0, 60, 81
2, 86425, Note_on_c, 0, 63, 86
2, 86425, Note_on_c, 0, 72, 87
2, 86425, Note_on_c, 0, 75, 81
2, 86426, Note_on_c, 0, 56, 81
2, 86453, Control_c, 0, 64, 127
2, 86684, Note_on_c, 0, 56, 0
2, 86684, Note_on_c, 0, 60, 0
2, 86684, Note_on_c, 0, 63, 0
2, 86688, Note_on_c, 0, 63, 84
2, 86688, Note_on_c, 0, 60, 78
2, 86693, Note_on_c, 0, 56, 72
2, 86704, Note_on_c, 0, 72, 0
2, 86715, Note_on_c, 0, 75, 0
2, 86717, Note_on_c, 0, 68, 0
2, 86718, Note_on_c, 0, 80, 0
2, 86719, Control_c, 0, 64, 0
2, 86745, Note_on_c, 0, 60, 0
2, 86753, Note_on_c, 0, 63, 0
2, 86776, Note_on_c, 0, 56, 0
2, 86814, Note_on_c, 0, 78, 99
2, 86819, Note_on_c, 0, 72, 67
2, 86822, Note_on_c, 0, 68, 92
2, 86883, Note_on_c, 0, 68, 0
2, 86891, Note_on_c, 0, 72, 0
2, 86937, Note_on_c, 0, 78, 0
2, 87095, Note_on_c, 0, 77, 97
2, 87103, Note_on_c, 0, 72, 88
2, 87104, Note_on_c, 0, 68, 87
2, 87152, Control_c, 0, 64, 127
2, 87232, Note_on_c, 0, 60, 83
2, 87233, Note_on_c, 0, 63, 91
2, 87235, Note_on_c, 0, 56, 79
2, 87375, Note_on_c, 0, 68, 0
2, 87378, Note_on_c, 0, 78, 98
2, 87379, Note_on_c, 0, 68, 89
2, 87490, Note_on_c, 0, 60, 0
2, 87490, Note_on_c, 0, 63, 0
2, 87495, Note_on_c, 0, 54, 81
2, 87496, Note_on_c, 0, 60, 66
2, 87498, Note_on_c, 0, 63, 73
2, 87562, Control_c, 0, 64, 0
2, 87586, Note_on_c, 0, 68, 0
2, 87586, Note_on_c, 0, 56, 0
2, 87587, Note_on_c, 0, 60, 0
2, 87587, Note_on_c, 0, 72, 0
2, 87587, Note_on_c, 0, 77, 0
2, 87587, Note_on_c, 0, 63, 0
2, 87588, Note_on_c, 0, 54, 0
2, 87588, Note_on_c, 0, 78, 0
2, 87639, Note_on_c, 0, 80, 102
2, 87640, Note_on_c, 0, 60, 85
2, 87640, Note_on_c, 0, 63, 91
2, 87641, Note_on_c, 0, 72, 98
2, 87641, Note_on_c, 0, 68, 96
2, 87642, Note_on_c, 0, 53, 84
2, 87644, Note_on_c, 0, 75, 92
2, 87667, Control_c, 0, 64, 127
2, 87767, Note_on_c, 0, 80, 0
2, 87774, Note_on_c, 0, 63, 0
2, 87774, Note_on_c, 0, 68, 0
2, 87774, Note_on_c, 0, 72, 0
2, 87774, Note_on_c, 0, 75, 0
2, 87778, Note_on_c, 0, 80, 99
2, 87779, Note_on_c, 0, 68, 95
2, 87782, Note_on_c, 0, 60, 0
2, 87784, Note_on_c, 0, 72, 85
2, 87785, Note_on_c, 0, 75, 86
2, 87786, Note_on_c, 0, 63, 84
2, 87791, Note_on_c, 0, 60, 77
2, 87817, Control_c, 0, 64, 0
2, 87822, Note_on_c, 0, 72, 0
2, 87822, Note_on_c, 0, 60, 0
2, 87824, Note_on_c, 0, 53, 0
2, 87824, Note_on_c, 0, 75, 0
2, 87824, Note_on_c, 0, 68, 0
2, 87825, Note_on_c, 0, 63, 0
2, 87825, Note_on_c, 0, 80, 0
2, 88025, Note_on_c, 0, 80, 89
2, 88058, Control_c, 0, 64, 127
2, 88078, Note_on_c, 0, 84, 86
2, 88127, Note_on_c, 0, 87, 90
2, 88168, Note_on_c, 0, 92, 107
2, 88302, Note_on_c, 0, 63, 94
2, 88307, Note_on_c, 0, 53, 86
2, 88307, Note_on_c, 0, 60, 81
2, 88419, Note_on_c, 0, 80, 0
2, 88425, Note_on_c, 0, 68, 102
2, 88425, Note_on_c, 0, 80, 97
2, 88466, Control_c, 0, 64, 0
2, 88470, Note_on_c, 0, 60, 0
2, 88470, Note_on_c, 0, 84, 0
2, 88470, Note_on_c, 0, 63, 0
2, 88471, Note_on_c, 0, 92, 0
2, 88471, Note_on_c, 0, 53, 0
2, 88471, Note_on_c, 0, 87, 0
2, 88473, Note_on_c, 0, 80, 0
2, 88474, Note_on_c, 0, 68, 0
2, 88568, Note_on_c, 0, 72, 103
2, 88569, Note_on_c, 0, 84, 106
2, 88569, Note_on_c, 0, 68, 98
2, 88569, Note_on_c, 0, 77, 92
2, 88570, Note_on_c, 0, 65, 93
2, 88571, Note_on_c, 0, 58, 96
2, 88578, Note_on_c, 0, 80, 88
2, 88604, Control_c, 0, 64, 127
2, 88819, Note_on_c, 0, 58, 0
2, 88819, Note_on_c, 0, 65, 0
2, 88819, Note_on_c, 0, 68, 0
2, 88824, Note_on_c, 0, 58, 82
2, 88825, Note_on_c, 0, 65, 88
2, 88827, Note_on_c, 0, 68, 87
2, 88952, Note_on_c, 0, 73, 103
2, 88952, Note_on_c, 0, 72, 0
2, 88952, Note_on_c, 0, 84, 0
2, 88953, Note_on_c, 0, 80, 0
2, 88953, Note_on_c, 0, 85, 100
2, 88953, Note_on_c, 0, 68, 0
2, 88954, Note_on_c, 0, 65, 0
2, 88954, Note_on_c, 0, 77, 0
2, 88955, Control_c, 0, 64, 0
2, 88956, Note_on_c, 0, 58, 0
2, 88979, Note_on_c, 0, 73, 0
2, 88986, Note_on_c, 0, 85, 0
2, 89085, Note_on_c, 0, 77, 102
2, 89092, Note_on_c, 0, 65, 89
2, 89093, Note_on_c, 0, 68, 90
2, 89134, Control_c, 0, 64, 127
2, 89367, Note_on_c, 0, 46, 95
2, 89368, Note_on_c, 0, 75, 94
2, 89375, Note_on_c, 0, 77, 0
2, 89425, Note_on_c, 0, 65, 0
2, 89498, Note_on_c, 0, 73, 106
2, 89498, Note_on_c, 0, 61, 98
2, 89560, Note_on_c, 0, 56, 84
2, 89620, Note_on_c, 0, 53, 74
2, 89744, Note_on_c, 0, 75, 0
2, 89744, Control_c, 0, 64, 0
2, 89744, Note_on_c, 0, 46, 0
2, 89745, Note_on_c, 0, 56, 0
2, 89745, Note_on_c, 0, 68, 0
2, 89746, Note_on_c, 0, 73, 0
2, 89746, Note_on_c, 0, 61, 0
2, 89746, Note_on_c, 0, 53, 0
2, 89759, Note_on_c, 0, 42, 96
2, 89765, Note_on_c, 0, 54, 94
2, 89766, Note_on_c, 0, 49, 93
2, 89769, Note_on_c, 0, 70, 96
2, 89772, Note_on_c, 0, 66, 93
2, 89832, Control_c, 0, 64, 127
2, 90040, Note_on_c, 0, 42, 0
2, 90040, Note_on_c, 0, 54, 0
2, 90040, Note_on_c, 0, 70, 0
2, 90044, Note_on_c, 0, 73, 92
2, 90046, Note_on_c, 0, 42, 74
2, 90048, Note_on_c, 0, 70, 84
2, 90049, Note_on_c, 0, 54, 70
2, 90163, Note_on_c, 0, 73, 0
2, 90170, Note_on_c, 0, 49, 0
2, 90170, Note_on_c, 0, 70, 0
2, 90174, Note_on_c, 0, 73, 101
2, 90179, Note_on_c, 0, 49, 86
2, 90179, Note_on_c, 0, 58, 91
2, 90180, Note_on_c, 0, 70, 84
2, 90184, Note_on_c, 0, 46, 74
2, 90301, Note_on_c, 0, 42, 0
2, 90310, Note_on_c, 0, 42, 90
2, 90439, Note_on_c, 0, 49, 0
2, 90439, Note_on_c, 0, 58, 0
2, 90447, Note_on_c, 0, 46, 0
2, 90450, Note_on_c, 0, 72, 102
2, 90450, Note_on_c, 0, 49, 77
2, 90450, Note_on_c, 0, 58, 81
2, 90451, Note_on_c, 0, 46, 76
2, 90562, Note_on_c, 0, 73, 0
2, 90570, Note_on_c, 0, 42, 0
2, 90573, Note_on_c, 0, 73, 101
2, 90576, Note_on_c, 0, 42, 74
2, 90644, Control_c, 0, 64, 0
2, 90650, Note_on_c, 0, 66, 0
2, 90650, Note_on_c, 0, 42, 0
2, 90651, Note_on_c, 0, 72, 0
2, 90651, Note_on_c, 0, 46, 0
2, 90652, Note_on_c, 0, 70, 0
2, 90654, Note_on_c, 0, 73, 0
2, 90662, Note_on_c, 0, 54, 0
2, 90670, Note_on_c, 0, 58, 0
2, 90677, Note_on_c, 0, 49, 0
2, 90714, Note_on_c, 0, 56, 98
2, 90717, Note_on_c, 0, 48, 87
2, 90720, Note_on_c, 0, 41, 84
2, 90720, Note_on_c, 0, 75, 101
2, 90724, Note_on_c, 0, 72, 97
2, 90726, Note_on_c, 0, 68, 98
2, 90754, Control_c, 0, 64, 127
2, 90974, Note_on_c, 0, 80, 99
2, 90984, Note_on_c, 0, 41, 0
2, 90990, Note_on_c, 0, 41, 67
2, 91100, Note_on_c, 0, 48, 0
2, 91107, Note_on_c, 0, 75, 0
2, 91108, Note_on_c, 0, 48, 78
2, 91115, Note_on_c, 0, 68, 0
2, 91116, Note_on_c, 0, 75, 95
2, 91119, Note_on_c, 0, 68, 74
2, 91171, Control_c, 0, 64, 0
2, 91176, Note_on_c, 0, 41, 0
2, 91176, Note_on_c, 0, 75, 0
2, 91177, Note_on_c, 0, 56, 0
2, 91179, Note_on_c, 0, 80, 0
2, 91180, Note_on_c, 0, 68, 0
2, 91180, Note_on_c, 0, 72, 0
2, 91181, Note_on_c, 0, 48, 0
2, 91252, Note_on_c, 0, 46, 92
2, 91254, Note_on_c, 0, 73, 104
2, 91260, Note_on_c, 0, 53, 85
2, 91261, Note_on_c, 0, 68, 97
2, 91265, Note_on_c, 0, 65, 92
2, 91265, Note_on_c, 0, 56, 84
2, 91322, Control_c, 0, 64, 127
2, 91514, Note_on_c, 0, 46, 0
2, 91520, Note_on_c, 0, 46, 102
2, 91622, Note_on_c, 0, 53, 0
2, 91629, Note_on_c, 0, 53, 97
2, 91660, Note_on_c, 0, 56, 0
2, 91665, Note_on_c, 0, 56, 83
2, 91703, Note_on_c, 0, 61, 95
2, 91737, Note_on_c, 0, 65, 0
2, 91742, Note_on_c, 0, 65, 92
2, 91776, Note_on_c, 0, 68, 0
2, 91786, Note_on_c, 0, 68, 104
2, 91856, Control_c, 0, 64, 0
2, 91856, Note_on_c, 0, 46, 0
2, 91856, Note_on_c, 0, 65, 0
2, 91857, Note_on_c, 0, 73, 0
2, 91857, Note_on_c, 0, 61, 0
2, 91857, Note_on_c, 0, 53, 0
2, 91857, Note_on_c, 0, 56, 0
2, 91857, Note_on_c, 0, 68, 0
2, 91903, Note_on_c, 0, 81, 109
2, 91904, Note_on_c, 0, 76, 101
2, 91907, Note_on_c, 0, 69, 104
2, 91908, Note_on_c, 0, 33, 101
2, 91909, Note_on_c, 0, 73, 105
2, 91909, Note_on_c, 0, 45, 109
2, 91952, Control_c, 0, 64, 127
2, 92175, Note_on_c, 0, 45, 0
2, 92175, Note_on_c, 0, 69, 0
2, 92175, Note_on_c, 0, 76, 0
2, 92175, Note_on_c, 0, 81, 0
2, 92179, Note_on_c, 0, 45, 95
2, 92182, Note_on_c, 0, 81, 108
2, 92183, Note_on_c, 0, 73, 0
2, 92186, Note_on_c, 0, 76, 104
2, 92186, Note_on_c, 0, 69, 104
2, 92187, Note_on_c, 0, 73, 108
2, 92305, Note_on_c, 0, 49, 97
2, 92306, Note_on_c, 0, 52, 81
2, 92436, Note_on_c, 0, 45, 0
2, 92436, Note_on_c, 0, 69, 0
2, 92436, Note_on_c, 0, 73, 0
2, 92436, Note_on_c, 0, 81, 0
2, 92441, Note_on_c, 0, 81, 107
2, 92443, Note_on_c, 0, 69, 100
2, 92444, Note_on_c, 0, 76, 0
2, 92446, Note_on_c, 0, 73, 102
2, 92447, Note_on_c, 0, 45, 101
2, 92448, Note_on_c, 0, 76, 79
2, 92567, Note_on_c, 0, 49, 0
2, 92567, Note_on_c, 0, 52, 0
2, 92571, Note_on_c, 0, 52, 89
2, 92571, Note_on_c, 0, 80, 104
2, 92574, Note_on_c, 0, 76, 0
2, 92575, Note_on_c, 0, 68, 95
2, 92576, Note_on_c, 0, 49, 98
2, 92585, Note_on_c, 0, 76, 71
2, 92682, Note_on_c, 0, 45, 0
2, 92688, Note_on_c, 0, 45, 94
2, 92791, Control_c, 0, 64, 0
2, 92794, Note_on_c, 0, 45, 0
2, 92794, Note_on_c, 0, 52, 0
2, 92795, Note_on_c, 0, 80, 0
2, 92795, Note_on_c, 0, 73, 0
2, 92796, Note_on_c, 0, 76, 0
2, 92796, Note_on_c, 0, 49, 0
2, 92796, Note_on_c, 0, 81, 0
2, 92796, Note_on_c, 0, 69, 0
2, 92799, Note_on_c, 0, 68, 0
2, 92805, Note_on_c, 0, 33, 0
2, 92839, Note_on_c, 0, 78, 110
2, 92841, Note_on_c, 0, 42, 107
2, 92843, Note_on_c, 0, 69, 102
2, 92844, Note_on_c, 0, 30, 103
2, 92845, Note_on_c, 0, 73, 106
2, 92928, Control_c, 0, 64, 127
2, 93109, Note_on_c, 0, 52, 93
2, 93113, Note_on_c, 0, 49, 88
2, 93235, Note_on_c, 0, 42, 0
2, 93242, Note_on_c, 0, 42, 99
2, 93358, Note_on_c, 0, 69, 0
2, 93358, Note_on_c, 0, 73, 0
2, 93358, Note_on_c, 0, 78, 0
2, 93367, Note_on_c, 0, 78, 105
2, 93368, Note_on_c, 0, 73, 108
2, 93369, Note_on_c, 0, 69, 99
2, 93373, Note_on_c, 0, 49, 0
2, 93373, Note_on_c, 0, 52, 0
2, 93377, Note_on_c, 0, 49, 90
2, 93379, Note_on_c, 0, 52, 81
2, 93488, Note_on_c, 0, 78, 0
2, 93496, Note_on_c, 0, 42, 0
2, 93496, Note_on_c, 0, 69, 0
2, 93496, Note_on_c, 0, 73, 0
2, 93498, Note_on_c, 0, 78, 105
2, 93500, Note_on_c, 0, 42, 97
2, 93500, Note_on_c, 0, 73, 104
2, 93500, Note_on_c, 0, 69, 96
2, 93619, Note_on_c, 0, 52, 0
2, 93624, Note_on_c, 0, 76, 103
2, 93628, Note_on_c, 0, 52, 88
2, 93742, Note_on_c, 0, 49, 0
2, 93742, Note_on_c, 0, 78, 0
2, 93750, Note_on_c, 0, 78, 105
2, 93753, Note_on_c, 0, 49, 87
2, 93881, Control_c, 0, 64, 0
2, 93888, Note_on_c, 0, 30, 0
2, 93892, Note_on_c, 0, 73, 0
2, 93892, Note_on_c, 0, 42, 0
2, 93892, Note_on_c, 0, 69, 0
2, 93903, Note_on_c, 0, 49, 0
2, 93903, Note_on_c, 0, 52, 0
2, 93918, Note_on_c, 0, 76, 0
2, 93918, Note_on_c, 0, 78, 0
2, 93921, Note_on_c, 0, 83, 107
2, 93923, Note_on_c, 0, 71, 106
2, 93925, Note_on_c, 0, 76, 102
2, 93927, Note_on_c, 0, 78, 101
2, 93927, Note_on_c, 0, 47, 109
2, 93929, Note_on_c, 0, 35, 99
2, 94010, Control_c, 0, 64, 127
2, 94198, Note_on_c, 0, 39, 89
2, 94199, Note_on_c, 0, 51, 90
2, 94325, Note_on_c, 0, 35, 0
2, 94325, Note_on_c, 0, 47, 0
2, 94334, Note_on_c, 0, 47, 102
2, 94337, Note_on_c, 0, 35, 93
2, 94461, Note_on_c, 0, 52, 99
2, 94461, Note_on_c, 0, 40, 93
2, 94586, Note_on_c, 0, 35, 0
2, 94586, Note_on_c, 0, 47, 0
2, 94592, Note_on_c, 0, 47, 104
2, 94595, Note_on_c, 0, 35, 98
2, 94721, Note_on_c, 0, 54, 107
2, 94721, Note_on_c, 0, 42, 103
2, 94840, Note_on_c, 0, 47, 0
2, 94848, Note_on_c, 0, 35, 0
2, 94851, Note_on_c, 0, 47, 98
2, 94853, Note_on_c, 0, 35, 84
2, 94961, Control_c, 0, 64, 0
2, 94966, Note_on_c, 0, 40, 0
2, 94966, Note_on_c, 0, 39, 0
2, 94966, Note_on_c, 0, 42, 0
2, 94966, Note_on_c, 0, 71, 0
2, 94966, Note_on_c, 0, 52, 0
2, 94966, Note_on_c, 0, 51, 0
2, 94967, Note_on_c, 0, 78, 0
2, 94967, Note_on_c, 0, 76, 0
2, 94967, Note_on_c, 0, 54, 0
2, 94986, Note_on_c, 0, 47, 0
2, 94989, Note_on_c, 0, 59, 111
2, 94990, Note_on_c, 0, 47, 101
2, 95001, Note_on_c, 0, 83, 0
2, 95055, Control_c, 0, 64, 127
2, 95255, Note_on_c, 0, 35, 0
2, 95255, Note_on_c, 0, 47, 0
2, 95258, Note_on_c, 0, 47, 108
2, 95261, Note_on_c, 0, 35, 97
2, 95385, Note_on_c, 0, 35, 0
2, 95385, Note_on_c, 0, 47, 0
2, 95390, Note_on_c, 0, 47, 105
2, 95394, Note_on_c, 0, 35, 91
2, 95500, Note_on_c, 0, 47, 0
2, 95508, Note_on_c, 0, 35, 0
2, 95510, Note_on_c, 0, 47, 108
2, 95518, Note_on_c, 0, 35, 97
2, 95557, Control_c, 0, 64, 0
2, 95562, Note_on_c, 0, 59, 0
2, 95566, Note_on_c, 0, 47, 0
2, 95577, Note_on_c, 0, 35, 0
2, 95683, Note_on_c, 0, 98, 110
2, 95692, Note_on_c, 0, 96, 102
2, 95694, Note_on_c, 0, 95, 99
2, 95696, Note_on_c, 0, 93, 103
2, 95704, Note_on_c, 0, 91, 95
2, 95723, Note_on_c, 0, 89, 99
2, 95735, Note_on_c, 0, 88, 92
2, 95745, Note_on_c, 0, 86, 96
2, 95761, Note_on_c, 0, 84, 93
2, 95788, Note_on_c, 0, 81, 93
2, 95789, Note_on_c, 0, 79, 99
2, 95791, Note_on_c, 0, 83, 88
2, 95804, Note_on_c, 0, 77, 98
2, 95816, Note_on_c, 0, 76, 101
2, 95827, Note_on_c, 0, 74, 101
2, 95831, Control_c, 0, 64, 127
2, 95846, Note_on_c, 0, 72, 101
2, 95854, Note_on_c, 0, 91, 0
2, 95865, Note_on_c, 0, 71, 78
2, 95869, Note_on_c, 0, 69, 76
2, 95877, Note_on_c, 0, 98, 0
2, 95884, Note_on_c, 0, 95, 0
2, 95884, Control_c, 0, 64, 0
2, 95892, Note_on_c, 0, 93, 0
2, 95896, Note_on_c, 0, 77, 0
2, 95898, Note_on_c, 0, 67, 63
2, 95900, Note_on_c, 0, 96, 0
2, 95901, Note_on_c, 0, 83, 0
2, 95903, Note_on_c, 0, 74, 0
2, 95910, Note_on_c, 0, 71, 0
2, 95911, Note_on_c, 0, 64, 82
2, 95911, Note_on_c, 0, 65, 82
2, 95915, Note_on_c, 0, 86, 0
2, 95923, Note_on_c, 0, 76, 0
2, 95923, Note_on_c, 0, 81, 0
2, 95923, Note_on_c, 0, 88, 0
2, 95923, Note_on_c, 0, 89, 0
2, 95930, Note_on_c, 0, 79, 0
2, 95930, Note_on_c, 0, 84, 0
2, 95936, Note_on_c, 0, 62, 79
2, 95948, Note_on_c, 0, 57, 97
2, 95949, Note_on_c, 0, 59, 85
2, 95957, Note_on_c, 0, 53, 90
2, 95969, Control_c, 0, 64, 127
2, 95976, Note_on_c, 0, 72, 0
2, 95979, Note_on_c, 0, 52, 80
2, 96004, Note_on_c, 0, 48, 75
2, 96004, Note_on_c, 0, 47, 85
2, 96007, Note_on_c, 0, 50, 81
2, 96011, Control_c, 0, 64, 0
2, 96023, Note_on_c, 0, 69, 0
2, 96027, Note_on_c, 0, 41, 52
2, 96040, Note_on_c, 0, 53, 0
2, 96042, Note_on_c, 0, 47, 0
2, 96046, Note_on_c, 0, 65, 0
2, 96047, Note_on_c, 0, 48, 0
2, 96061, Note_on_c, 0, 62, 0
2, 96061, Note_on_c, 0, 64, 0
2, 96061, Note_on_c, 0, 67, 0
2, 96069, Note_on_c, 0, 59, 0
2, 96084, Note_on_c, 0, 50, 0
2, 96084, Note_on_c, 0, 57, 0
2, 96099, Note_on_c, 0, 41, 0
2, 96099, Note_on_c, 0, 52, 0
2, 96206, Note_on_c, 0, 71, 107
2, 96209, Note_on_c, 0, 83, 108
2, 96210, Note_on_c, 0, 80, 101
2, 96211, Note_on_c, 0, 76, 104
2, 96217, Note_on_c, 0, 40, 100
2, 96218, Note_on_c, 0, 28, 98
2, 96238, Control_c, 0, 64, 127
2, 96476, Note_on_c, 0, 71, 0
2, 96476, Note_on_c, 0, 76, 0
2, 96476, Note_on_c, 0, 80, 0
2, 96476, Note_on_c, 0, 83, 0
2, 96478, Note_on_c, 0, 59, 101
2, 96480, Note_on_c, 0, 56, 93
2, 96480, Note_on_c, 0, 71, 101
2, 96480, Note_on_c, 0, 83, 105
2, 96481, Note_on_c, 0, 76, 101
2, 96483, Note_on_c, 0, 80, 96
2, 96601, Note_on_c, 0, 52, 91
2, 96614, Note_on_c, 0, 71, 0
2, 96614, Note_on_c, 0, 76, 0
2, 96614, Note_on_c, 0, 80, 0
2, 96614, Note_on_c, 0, 83, 0
2, 96620, Note_on_c, 0, 71, 93
2, 96622, Note_on_c, 0, 83, 98
2, 96625, Note_on_c, 0, 80, 88
2, 96625, Note_on_c, 0, 76, 97
2, 96714, Note_on_c, 0, 59, 0
2, 96721, Note_on_c, 0, 56, 0
2, 96724, Note_on_c, 0, 59, 104
2, 96725, Note_on_c, 0, 56, 98
2, 96829, Note_on_c, 0, 80, 0
2, 96839, Note_on_c, 0, 80, 94
2, 96860, Note_on_c, 0, 40, 0
2, 96867, Note_on_c, 0, 40, 95
2, 96877, Note_on_c, 0, 81, 108
2, 96975, Note_on_c, 0, 52, 0
2, 96980, Note_on_c, 0, 52, 97
2, 96990, Note_on_c, 0, 80, 0
2, 96996, Note_on_c, 0, 80, 104
2, 97037, Control_c, 0, 64, 0
2, 97044, Note_on_c, 0, 81, 0
2, 97045, Note_on_c, 0, 52, 0
2, 97045, Note_on_c, 0, 83, 0
2, 97046, Note_on_c, 0, 40, 0
2, 97046, Note_on_c, 0, 71, 0
2, 97047, Note_on_c, 0, 56, 0
2, 97047, Note_on_c, 0, 80, 0
2, 97047, Note_on_c, 0, 76, 0
2, 97052, Note_on_c, 0, 28, 0
2, 97067, Note_on_c, 0, 59, 0
2, 97131, Note_on_c, 0, 78, 110
2, 97133, Note_on_c, 0, 73, 103
2, 97134, Note_on_c, 0, 69, 103
2, 97134, Note_on_c, 0, 51, 108
2, 97138, Note_on_c, 0, 39, 102
2, 97167, Control_c, 0, 64, 127
2, 97382, Note_on_c, 0, 51, 0
2, 97388, Note_on_c, 0, 51, 95
2, 97408, Note_on_c, 0, 80, 104
2, 97425, Note_on_c, 0, 75, 59
2, 97532, Note_on_c, 0, 61, 91
2, 97535, Note_on_c, 0, 81, 108
2, 97538, Note_on_c, 0, 57, 97
2, 97593, Note_on_c, 0, 80, 0
2, 97594, Note_on_c, 0, 73, 0
2, 97594, Note_on_c, 0, 61, 0
2, 97595, Note_on_c, 0, 69, 0
2, 97595, Note_on_c, 0, 78, 0
2, 97595, Note_on_c, 0, 39, 0
2, 97597, Note_on_c, 0, 57, 0
2, 97597, Control_c, 0, 64, 0
2, 97597, Note_on_c, 0, 81, 0
2, 97598, Note_on_c, 0, 51, 0
2, 97612, Note_on_c, 0, 75, 0
2, 97672, Note_on_c, 0, 80, 108
2, 97674, Note_on_c, 0, 72, 110
2, 97675, Note_on_c, 0, 56, 110
2, 97675, Note_on_c, 0, 44, 105
2, 97677, Note_on_c, 0, 75, 106
2, 97720, Control_c, 0, 64, 127
2, 97923, Note_on_c, 0, 32, 91
2, 97989, Note_on_c, 0, 44, 0
2, 97994, Note_on_c, 0, 44, 96
2, 98058, Note_on_c, 0, 72, 0
2, 98058, Note_on_c, 0, 75, 0
2, 98064, Note_on_c, 0, 72, 107
2, 98067, Note_on_c, 0, 75, 106
2, 98173, Note_on_c, 0, 32, 0
2, 98177, Note_on_c, 0, 32, 91
2, 98212, Control_c, 0, 64, 0
2, 98214, Note_on_c, 0, 80, 0
2, 98214, Note_on_c, 0, 44, 0
2, 98215, Note_on_c, 0, 72, 0
2, 98215, Note_on_c, 0, 56, 0
2, 98215, Note_on_c, 0, 75, 0
2, 98242, Note_on_c, 0, 32, 0
2, 98308, Note_on_c, 0, 68, 107
2, 98311, Note_on_c, 0, 71, 96
2, 98314, Note_on_c, 0, 76, 107
2, 98322, Note_on_c, 0, 49, 103
2, 98322, Note_on_c, 0, 37, 101
2, 98350, Control_c, 0, 64, 127
2, 98584, Note_on_c, 0, 59, 104
2, 98585, Note_on_c, 0, 56, 99
2, 98587, Note_on_c, 0, 75, 106
2, 98711, Note_on_c, 0, 49, 0
2, 98711, Note_on_c, 0, 76, 0
2, 98719, Note_on_c, 0, 49, 102
2, 98721, Note_on_c, 0, 76, 108
2, 98841, Note_on_c, 0, 56, 0
2, 98841, Note_on_c, 0, 59, 0
2, 98846, Note_on_c, 0, 56, 70
2, 98849, Note_on_c, 0, 59, 85
2, 98972, Note_on_c, 0, 37, 0
2, 98972, Note_on_c, 0, 49, 0
2, 98972, Note_on_c, 0, 75, 0
2, 98972, Note_on_c, 0, 78, 105
2, 98976, Note_on_c, 0, 49, 102
2, 98977, Note_on_c, 0, 37, 96
2, 98979, Note_on_c, 0, 75, 80
2, 99105, Note_on_c, 0, 48, 96
2, 99110, Note_on_c, 0, 36, 93
2, 99146, Note_on_c, 0, 56, 0
2, 99147, Note_on_c, 0, 59, 0
2, 99149, Note_on_c, 0, 71, 0
2, 99150, Note_on_c, 0, 75, 0
2, 99150, Note_on_c, 0, 37, 0
2, 99150, Note_on_c, 0, 78, 0
2, 99150, Note_on_c, 0, 49, 0
2, 99150, Note_on_c, 0, 68, 0
2, 99151, Note_on_c, 0, 76, 0
2, 99151, Note_on_c, 0, 48, 0
2, 99152, Note_on_c, 0, 36, 0
2, 99153, Control_c, 0, 64, 0
2, 99244, Note_on_c, 0, 80, 108
2, 99245, Note_on_c, 0, 47, 106
2, 99246, Note_on_c, 0, 76, 103
2, 99247, Note_on_c, 0, 35, 96
2, 99247, Note_on_c, 0, 71, 101
2, 99279, Control_c, 0, 64, 127
2, 99435, Note_on_c, 0, 47, 0
2, 99438, Control_c, 0, 64, 0
2, 99448, Note_on_c, 0, 35, 0
2, 99486, Note_on_c, 0, 71, 0
2, 99486, Note_on_c, 0, 76, 0
2, 99486, Note_on_c, 0, 80, 0
2, 99506, Note_on_c, 0, 56, 100
2, 99506, Note_on_c, 0, 59, 105
2, 99552, Note_on_c, 0, 59, 0
2, 99557, Note_on_c, 0, 56, 0
2, 99643, Note_on_c, 0, 64, 109
2, 99643, Note_on_c, 0, 76, 109
2, 99663, Control_c, 0, 64, 127
2, 99760, Note_on_c, 0, 28, 101
2, 99760, Note_on_c, 0, 40, 100
2, 99897, Note_on_c, 0, 80, 106
2, 99898, Note_on_c, 0, 68, 111
2, 99916, Note_on_c, 0, 40, 0
2, 99923, Note_on_c, 0, 40, 81
2, 100008, Note_on_c, 0, 28, 0
2, 100008, Note_on_c, 0, 40, 0
2, 100017, Note_on_c, 0, 28, 93
2, 100017, Note_on_c, 0, 40, 96
2, 100154, Note_on_c, 0, 40, 0
2, 100156, Note_on_c, 0, 83, 109
2, 100158, Note_on_c, 0, 52, 105
2, 100158, Note_on_c, 0, 71, 107
2, 100162, Note_on_c, 0, 40, 94
2, 100198, Note_on_c, 0, 47, 75
2, 100342, Note_on_c, 0, 28, 0
2, 100342, Control_c, 0, 64, 0
2, 100343, Note_on_c, 0, 52, 0
2, 100343, Note_on_c, 0, 68, 0
2, 100343, Note_on_c, 0, 80, 0
2, 100343, Note_on_c, 0, 47, 0
2, 100343, Note_on_c, 0, 64, 0
2, 100343, Note_on_c, 0, 40, 0
2, 100343, Note_on_c, 0, 76, 0
2, 100344, Note_on_c, 0, 71, 0
2, 100344, Note_on_c, 0, 83, 0
2, 100416, Note_on_c, 0, 73, 115
2, 100418, Note_on_c, 0, 85, 112
2, 100420, Note_on_c, 0, 80, 102
2, 100420, Note_on_c, 0, 76, 101
2, 100422, Note_on_c, 0, 45, 109
2, 100424, Note_on_c, 0, 33, 102
2, 100477, Control_c, 0, 64, 127
2, 100692, Note_on_c, 0, 45, 0
2, 100697, Note_on_c, 0, 57, 99
2, 100701, Note_on_c, 0, 45, 102
2, 100703, Note_on_c, 0, 52, 94
2, 100704, Note_on_c, 0, 97, 107
2, 100760, Note_on_c, 0, 92, 54
2, 100823, Note_on_c, 0, 45, 0
2, 100826, Note_on_c, 0, 88, 102
2, 100829, Note_on_c, 0, 45, 95
2, 100876, Note_on_c, 0, 85, 0
2, 100887, Note_on_c, 0, 85, 93
2, 100945, Note_on_c, 0, 80, 0
2, 100953, Note_on_c, 0, 52, 0
2, 100953, Note_on_c, 0, 57, 0
2, 100954, Note_on_c, 0, 80, 97
2, 100960, Note_on_c, 0, 57, 94
2, 100964, Note_on_c, 0, 52, 93
2, 101007, Note_on_c, 0, 76, 0
2, 101014, Note_on_c, 0, 76, 87
2, 101068, Note_on_c, 0, 73, 0
2, 101077, Note_on_c, 0, 73, 101
2, 101099, Note_on_c, 0, 45, 0
2, 101103, Note_on_c, 0, 45, 85
2, 101136, Note_on_c, 0, 68, 97
2, 101145, Note_on_c, 0, 52, 0
2, 101155, Note_on_c, 0, 52, 75
2, 101182, Note_on_c, 0, 64, 91
2, 101222, Note_on_c, 0, 57, 0
2, 101230, Note_on_c, 0, 52, 0
2, 101231, Note_on_c, 0, 57, 104
2, 101232, Note_on_c, 0, 61, 96
2, 101235, Note_on_c, 0, 52, 95
2, 101322, Note_on_c, 0, 45, 0
2, 101329, Note_on_c, 0, 45, 99
2, 101352, Note_on_c, 0, 85, 0
2, 101360, Note_on_c, 0, 73, 0
2, 101360, Note_on_c, 0, 76, 0
2, 101360, Note_on_c, 0, 80, 0
2, 101361, Note_on_c, 0, 85, 108
2, 101369, Note_on_c, 0, 73, 110
2, 101371, Note_on_c, 0, 80, 97
2, 101372, Note_on_c, 0, 76, 102
2, 101435, Note_on_c, 0, 33, 0
2, 101435, Note_on_c, 0, 92, 0
2, 101435, Control_c, 0, 64, 0
2, 101436, Note_on_c, 0, 80, 0
2, 101436, Note_on_c, 0, 52, 0
2, 101437, Note_on_c, 0, 76, 0
2, 101437, Note_on_c, 0, 68, 0
2, 101438, Note_on_c, 0, 73, 0
2, 101438, Note_on_c, 0, 61, 0
2, 101438, Note_on_c, 0, 64, 0
2, 101438, Note_on_c, 0, 97, 0
2, 101440, Note_on_c, 0, 85, 0
2, 101452, Note_on_c, 0, 57, 0
2, 101452, Note_on_c, 0, 88, 0
2, 101460, Note_on_c, 0, 45, 0
2, 101490, Note_on_c, 0, 73, 111
2, 101491, Note_on_c, 0, 85, 110
2, 101493, Note_on_c, 0, 45, 106
2, 101494, Note_on_c, 0, 76, 103
2, 101494, Note_on_c, 0, 33, 96
2, 101494, Note_on_c, 0, 80, 101
2, 101529, Control_c, 0, 64, 127
2, 101770, Note_on_c, 0, 71, 101
2, 101771, Note_on_c, 0, 87, 107
2, 101772, Note_on_c, 0, 75, 105
2, 101833, Note_on_c, 0, 66, 76
2, 101895, Note_on_c, 0, 63, 95
2, 101898, Note_on_c, 0, 76, 0
2, 101899, Note_on_c, 0, 88, 112
2, 101902, Note_on_c, 0, 76, 107
2, 101970, Note_on_c, 0, 59, 104
2, 102032, Note_on_c, 0, 54, 101
2, 102108, Note_on_c, 0, 51, 89
2, 102159, Note_on_c, 0, 33, 0
2, 102159, Note_on_c, 0, 45, 0
2, 102163, Note_on_c, 0, 45, 100
2, 102163, Note_on_c, 0, 78, 109
2, 102163, Note_on_c, 0, 90, 111
2, 102164, Note_on_c, 0, 33, 95
2, 102266, Note_on_c, 0, 33, 0
2, 102266, Note_on_c, 0, 45, 0
2, 102271, Note_on_c, 0, 33, 95
2, 102272, Note_on_c, 0, 45, 92
2, 102400, Control_c, 0, 64, 0
2, 102412, Note_on_c, 0, 71, 0
2, 102412, Note_on_c, 0, 75, 0
2, 102412, Note_on_c, 0, 78, 0
2, 102416, Note_on_c, 0, 83, 111
2, 102418, Note_on_c, 0, 71, 108
2, 102420, Note_on_c, 0, 75, 106
2, 102421, Note_on_c, 0, 78, 105
2, 102426, Note_on_c, 0, 90, 0
2, 102426, Note_on_c, 0, 59, 0
2, 102427, Note_on_c, 0, 87, 0
2, 102428, Note_on_c, 0, 66, 0
2, 102429, Note_on_c, 0, 33, 0
2, 102429, Note_on_c, 0, 80, 0
2, 102429, Note_on_c, 0, 63, 0
2, 102431, Note_on_c, 0, 76, 0
2, 102431, Note_on_c, 0, 85, 0
2, 102431, Note_on_c, 0, 88, 0
2, 102432, Note_on_c, 0, 45, 0
2, 102435, Note_on_c, 0, 73, 0
2, 102443, Note_on_c, 0, 51, 0
2, 102443, Note_on_c, 0, 54, 0
2, 102535, Control_c, 0, 64, 127
2, 102546, Note_on_c, 0, 44, 105
2, 102546, Note_on_c, 0, 32, 96
2, 102689, Note_on_c, 0, 83, 0
2, 102695, Note_on_c, 0, 83, 89
2, 102771, Note_on_c, 0, 87, 95
2, 102814, Note_on_c, 0, 59, 108
2, 102815, Note_on_c, 0, 95, 108
2, 102821, Note_on_c, 0, 54, 100
2, 102827, Note_on_c, 0, 51, 79
2, 102882, Note_on_c, 0, 90, 106
2, 102942, Note_on_c, 0, 44, 0
2, 102950, Note_on_c, 0, 32, 0
2, 102950, Note_on_c, 0, 87, 0
2, 102953, Note_on_c, 0, 44, 92
2, 102954, Note_on_c, 0, 32, 85
2, 102955, Note_on_c, 0, 87, 98
2, 103004, Note_on_c, 0, 83, 0
2, 103012, Note_on_c, 0, 83, 88
2, 103088, Note_on_c, 0, 54, 0
2, 103088, Note_on_c, 0, 83, 0
2, 103096, Note_on_c, 0, 51, 0
2, 103096, Note_on_c, 0, 83, 105
2, 103099, Note_on_c, 0, 54, 100
2, 103102, Note_on_c, 0, 51, 88
2, 103142, Note_on_c, 0, 78, 0
2, 103150, Note_on_c, 0, 78, 89
2, 103196, Note_on_c, 0, 75, 0
2, 103203, Note_on_c, 0, 44, 0
2, 103204, Note_on_c, 0, 75, 90
2, 103213, Note_on_c, 0, 44, 95
2, 103249, Note_on_c, 0, 71, 0
2, 103257, Note_on_c, 0, 71, 83
2, 103349, Note_on_c, 0, 51, 0
2, 103349, Note_on_c, 0, 54, 0
2, 103349, Note_on_c, 0, 71, 0
2, 103358, Note_on_c, 0, 51, 74
2, 103359, Note_on_c, 0, 54, 100
2, 103361, Note_on_c, 0, 71, 95
2, 103423, Note_on_c, 0, 66, 90
2, 103472, Note_on_c, 0, 44, 0
2, 103483, Note_on_c, 0, 63, 90
2, 103483, Note_on_c, 0, 44, 90
2, 103541, Note_on_c, 0, 59, 0
2, 103547, Note_on_c, 0, 59, 95
2, 103577, Control_c, 0, 64, 0
2, 103584, Note_on_c, 0, 32, 0
2, 103585, Note_on_c, 0, 95, 0
2, 103587, Note_on_c, 0, 90, 0
2, 103588, Note_on_c, 0, 44, 0
2, 103588, Note_on_c, 0, 78, 0
2, 103589, Note_on_c, 0, 83, 0
2, 103589, Note_on_c, 0, 54, 0
2, 103590, Note_on_c, 0, 87, 0
2, 103590, Note_on_c, 0, 75, 0
2, 103591, Note_on_c, 0, 59, 0
2, 103591, Note_on_c, 0, 66, 0
2, 103591, Note_on_c, 0, 63, 0
2, 103591, Note_on_c, 0, 51, 0
2, 103610, Note_on_c, 0, 71, 0
2, 103621, Note_on_c, 0, 49, 103
2, 103622, Note_on_c, 0, 37, 98
2, 103695, Control_c, 0, 64, 127
2, 103744, Note_on_c, 0, 59, 83
2, 103805, Note_on_c, 0, 61, 88
2, 103858, Note_on_c, 0, 65, 85
2, 103887, Note_on_c, 0, 59, 0
2, 103896, Note_on_c, 0, 59, 84
2, 103906, Note_on_c, 0, 56, 83
2, 103912, Note_on_c, 0, 53, 68
2, 103913, Note_on_c, 0, 68, 96
2, 103973, Note_on_c, 0, 71, 93
2, 103979, Note_on_c, 0, 59, 0
2, 103983, Note_on_c, 0, 59, 80
2, 104025, Note_on_c, 0, 61, 0
2, 104029, Note_on_c, 0, 73, 97
2, 104031, Note_on_c, 0, 61, 78
2, 104040, Note_on_c, 0, 49, 0
2, 104045, Note_on_c, 0, 49, 79
2, 104089, Note_on_c, 0, 77, 85
2, 104144, Note_on_c, 0, 80, 97
2, 104156, Note_on_c, 0, 53, 0
2, 104163, Note_on_c, 0, 53, 87
2, 104163, Note_on_c, 0, 59, 0
2, 104168, Note_on_c, 0, 59, 98
2, 104171, Note_on_c, 0, 56, 0
2, 104176, Note_on_c, 0, 56, 77
2, 104206, Note_on_c, 0, 83, 99
2, 104275, Note_on_c, 0, 85, 102
2, 104294, Note_on_c, 0, 49, 0
2, 104299, Note_on_c, 0, 49, 87
2, 104329, Note_on_c, 0, 89, 97
2, 104374, Note_on_c, 0, 92, 103
2, 104411, Note_on_c, 0, 97, 108
2, 104417, Note_on_c, 0, 53, 0
2, 104422, Note_on_c, 0, 53, 94
2, 104424, Note_on_c, 0, 56, 0
2, 104424, Note_on_c, 0, 59, 0
2, 104429, Note_on_c, 0, 59, 97
2, 104430, Note_on_c, 0, 56, 88
2, 104548, Note_on_c, 0, 69, 103
2, 104635, Note_on_c, 0, 92, 0
2, 104635, Note_on_c, 0, 65, 0
2, 104635, Note_on_c, 0, 89, 0
2, 104635, Note_on_c, 0, 53, 0
2, 104635, Note_on_c, 0, 83, 0
2, 104635, Note_on_c, 0, 77, 0
2, 104635, Note_on_c, 0, 56, 0
2, 104635, Note_on_c, 0, 49, 0
2, 104635, Note_on_c, 0, 59, 0
2, 104635, Note_on_c, 0, 80, 0
2, 104635, Note_on_c, 0, 85, 0
2, 104635, Note_on_c, 0, 71, 0
2, 104635, Note_on_c, 0, 97, 0
2, 104635, Note_on_c, 0, 69, 0
2, 104635, Note_on_c, 0, 68, 0
2, 104636, Note_on_c, 0, 37, 0
2, 104636, Note_on_c, 0, 73, 0
2, 104636, Control_c, 0, 64, 0
2, 104647, Note_on_c, 0, 61, 0
2, 104682, Note_on_c, 0, 81, 107
2, 104682, Note_on_c, 0, 69, 107
2, 104684, Note_on_c, 0, 76, 104
2, 104685, Note_on_c, 0, 73, 110
2, 104689, Note_on_c, 0, 42, 105
2, 104689, Note_on_c, 0, 30, 101
2, 104716, Control_c, 0, 64, 127
2, 104943, Note_on_c, 0, 64, 91
2, 104943, Note_on_c, 0, 57, 89
2, 104948, Note_on_c, 0, 80, 100
2, 104949, Note_on_c, 0, 71, 96
2, 104989, Control_c, 0, 64, 0
2, 104995, Note_on_c, 0, 69, 0
2, 104996, Note_on_c, 0, 73, 0
2, 104997, Note_on_c, 0, 76, 0
2, 104997, Note_on_c, 0, 81, 0
2, 104997, Note_on_c, 0, 64, 0
2, 104998, Note_on_c, 0, 57, 0
2, 105000, Note_on_c, 0, 71, 0
2, 105000, Note_on_c, 0, 30, 0
2, 105004, Note_on_c, 0, 80, 0
2, 105008, Note_on_c, 0, 42, 0
2, 105080, Note_on_c, 0, 54, 98
2, 105083, Note_on_c, 0, 78, 106
2, 105104, Note_on_c, 0, 71, 74
2, 105104, Note_on_c, 0, 73, 97
2, 105116, Control_c, 0, 64, 127
2, 105198, Note_on_c, 0, 64, 95
2, 105201, Note_on_c, 0, 61, 92
2, 105338, Note_on_c, 0, 73, 0
2, 105341, Note_on_c, 0, 42, 104
2, 105343, Note_on_c, 0, 76, 105
2, 105345, Note_on_c, 0, 73, 102
2, 105454, Note_on_c, 0, 54, 0
2, 105459, Note_on_c, 0, 54, 98
2, 105569, Control_c, 0, 64, 0
2, 105577, Note_on_c, 0, 42, 0
2, 105577, Note_on_c, 0, 61, 0
2, 105578, Note_on_c, 0, 73, 0
2, 105578, Note_on_c, 0, 54, 0
2, 105578, Note_on_c, 0, 71, 0
2, 105578, Note_on_c, 0, 64, 0
2, 105579, Note_on_c, 0, 76, 0
2, 105580, Note_on_c, 0, 78, 0
2, 105624, Note_on_c, 0, 47, 109
2, 105626, Note_on_c, 0, 66, 102
2, 105626, Note_on_c, 0, 75, 108
2, 105626, Note_on_c, 0, 71, 99
2, 105627, Note_on_c, 0, 35, 99
2, 105661, Control_c, 0, 64, 127
2, 105876, Note_on_c, 0, 47, 0
2, 105876, Note_on_c, 0, 71, 0
2, 105876, Note_on_c, 0, 75, 0
2, 105880, Note_on_c, 0, 47, 95
2, 105883, Note_on_c, 0, 59, 98
2, 105886, Note_on_c, 0, 71, 100
2, 105887, Note_on_c, 0, 75, 102
2, 105999, Note_on_c, 0, 59, 0
2, 106008, Note_on_c, 0, 59, 99
2, 106011, Note_on_c, 0, 54, 85
2, 106012, Note_on_c, 0, 51, 92
2, 106014, Note_on_c, 0, 71, 0
2, 106014, Note_on_c, 0, 75, 0
2, 106019, Note_on_c, 0, 75, 102
2, 106021, Note_on_c, 0, 71, 93
2, 106068, Control_c, 0, 64, 0
2, 106072, Note_on_c, 0, 66, 0
2, 106072, Note_on_c, 0, 75, 0
2, 106072, Note_on_c, 0, 59, 0
2, 106072, Note_on_c, 0, 51, 0
2, 106073, Note_on_c, 0, 47, 0
2, 106073, Note_on_c, 0, 71, 0
2, 106083, Note_on_c, 0, 35, 0
2, 106083, Note_on_c, 0, 54, 0
2, 106156, Note_on_c, 0, 76, 108
2, 106157, Note_on_c, 0, 73, 105
2, 106158, Note_on_c, 0, 33, 99
2, 106159, Note_on_c, 0, 45, 109
2, 106163, Note_on_c, 0, 71, 101
2, 106191, Control_c, 0, 64, 127
2, 106414, Note_on_c, 0, 33, 0
2, 106414, Note_on_c, 0, 45, 0
2, 106418, Note_on_c, 0, 78, 109
2, 106420, Note_on_c, 0, 45, 101
2, 106423, Note_on_c, 0, 75, 93
2, 106424, Note_on_c, 0, 33, 92
2, 106548, Note_on_c, 0, 59, 92
2, 106549, Note_on_c, 0, 54, 95
2, 106554, Note_on_c, 0, 51, 94
2, 106659, Note_on_c, 0, 71, 0
2, 106667, Note_on_c, 0, 71, 98
2, 106688, Control_c, 0, 64, 0
2, 106690, Note_on_c, 0, 54, 0
2, 106690, Note_on_c, 0, 76, 0
2, 106690, Note_on_c, 0, 59, 0
2, 106690, Note_on_c, 0, 73, 0
2, 106691, Note_on_c, 0, 78, 0
2, 106691, Note_on_c, 0, 51, 0
2, 106691, Note_on_c, 0, 45, 0
2, 106691, Note_on_c, 0, 75, 0
2, 106705, Note_on_c, 0, 33, 0
2, 106721, Note_on_c, 0, 71, 0
2, 106800, Note_on_c, 0, 83, 111
2, 106802, Note_on_c, 0, 44, 108
2, 106803, Note_on_c, 0, 71, 107
2, 106804, Note_on_c, 0, 32, 94
2, 106804, Note_on_c, 0, 78, 99
2, 106804, Note_on_c, 0, 75, 103
2, 106836, Control_c, 0, 64, 127
2, 107059, Note_on_c, 0, 71, 0
2, 107059, Note_on_c, 0, 75, 0
2, 107059, Note_on_c, 0, 78, 0
2, 107059, Note_on_c, 0, 83, 0
2, 107062, Note_on_c, 0, 59, 104
2, 107063, Note_on_c, 0, 83, 103
2, 107064, Note_on_c, 0, 63, 99
2, 107065, Note_on_c, 0, 71, 100
2, 107066, Note_on_c, 0, 66, 102
2, 107067, Note_on_c, 0, 75, 100
2, 107070, Note_on_c, 0, 78, 102
2, 107113, Control_c, 0, 64, 0
2, 107117, Note_on_c, 0, 75, 0
2, 107117, Note_on_c, 0, 78, 0
2, 107117, Note_on_c, 0, 66, 0
2, 107119, Note_on_c, 0, 63, 0
2, 107120, Note_on_c, 0, 32, 0
2, 107120, Note_on_c, 0, 71, 0
2, 107122, Note_on_c, 0, 83, 0
2, 107124, Note_on_c, 0, 59, 0
2, 107128, Note_on_c, 0, 44, 0
2, 107199, Note_on_c, 0, 83, 107
2, 107202, Note_on_c, 0, 71, 100
2, 107203, Note_on_c, 0, 78, 94
2, 107203, Note_on_c, 0, 56, 100
2, 107203, Note_on_c, 0, 75, 100
2, 107208, Note_on_c, 0, 44, 87
2, 107243, Control_c, 0, 64, 127
2, 107318, Note_on_c, 0, 63, 103
2, 107319, Note_on_c, 0, 66, 99
2, 107443, Note_on_c, 0, 44, 0
2, 107443, Note_on_c, 0, 71, 0
2, 107446, Note_on_c, 0, 81, 106
2, 107449, Note_on_c, 0, 71, 93
2, 107449, Note_on_c, 0, 44, 100
2, 107573, Note_on_c, 0, 56, 0
2, 107577, Note_on_c, 0, 80, 106
2, 107579, Note_on_c, 0, 56, 96
2, 107581, Note_on_c, 0, 71, 0
2, 107581, Note_on_c, 0, 75, 0
2, 107585, Note_on_c, 0, 71, 84
2, 107591, Note_on_c, 0, 75, 74
2, 107595, Control_c, 0, 64, 0
2, 107609, Note_on_c, 0, 44, 0
2, 107609, Note_on_c, 0, 63, 0
2, 107610, Note_on_c, 0, 81, 0
2, 107611, Note_on_c, 0, 78, 0
2, 107611, Note_on_c, 0, 56, 0
2, 107611, Note_on_c, 0, 66, 0
2, 107613, Note_on_c, 0, 83, 0
2, 107635, Note_on_c, 0, 75, 0
2, 107658, Note_on_c, 0, 71, 0
2, 107688, Note_on_c, 0, 80, 0
2, 107712, Note_on_c, 0, 78, 105
2, 107714, Note_on_c, 0, 49, 106
2, 107715, Note_on_c, 0, 71, 89
2, 107715, Note_on_c, 0, 37, 100
2, 107716, Note_on_c, 0, 75, 93
2, 107727, Control_c, 0, 64, 127
2, 107957, Note_on_c, 0, 37, 0
2, 107957, Note_on_c, 0, 49, 0
2, 107965, Note_on_c, 0, 71, 0
2, 107965, Note_on_c, 0, 49, 97
2, 107968, Note_on_c, 0, 37, 83
2, 107969, Note_on_c, 0, 68, 106
2, 107969, Note_on_c, 0, 71, 95
2, 107971, Note_on_c, 0, 76, 103
2, 108096, Note_on_c, 0, 68, 0
2, 108096, Note_on_c, 0, 71, 0
2, 108096, Note_on_c, 0, 76, 0
2, 108101, Note_on_c, 0, 68, 108
2, 108102, Note_on_c, 0, 76, 104
2, 108105, Note_on_c, 0, 71, 94
2, 108107, Note_on_c, 0, 56, 99
2, 108235, Note_on_c, 0, 59, 97
2, 108236, Note_on_c, 0, 63, 102
2, 108484, Note_on_c, 0, 64, 108
2, 108484, Note_on_c, 0, 61, 94
2, 108619, Note_on_c, 0, 52, 89
2, 108651, Note_on_c, 0, 47, 94
2, 108674, Note_on_c, 0, 44, 59
2, 108733, Note_on_c, 0, 37, 0
2, 108741, Note_on_c, 0, 44, 0
2, 108744, Note_on_c, 0, 37, 87
2, 108745, Note_on_c, 0, 44, 82
2, 108815, Control_c, 0, 64, 0
2, 108821, Note_on_c, 0, 78, 0
2, 108822, Note_on_c, 0, 59, 0
2, 108822, Note_on_c, 0, 56, 0
2, 108822, Note_on_c, 0, 75, 0
2, 108822, Note_on_c, 0, 71, 0
2, 108823, Note_on_c, 0, 61, 0
2, 108823, Note_on_c, 0, 63, 0
2, 108823, Note_on_c, 0, 52, 0
2, 108823, Note_on_c, 0, 68, 0
2, 108823, Note_on_c, 0, 49, 0
2, 108824, Note_on_c, 0, 76, 0
2, 108824, Note_on_c, 0, 64, 0
2, 108824, Note_on_c, 0, 37, 0
2, 108824, Note_on_c, 0, 44, 0
2, 108824, Note_on_c, 0, 47, 0
2, 108879, Note_on_c, 0, 76, 110
2, 108883, Note_on_c, 0, 64, 107
2, 108883, Note_on_c, 0, 69, 101
2, 108883, Note_on_c, 0, 73, 102
2, 108885, Note_on_c, 0, 42, 103
2, 108886, Note_on_c, 0, 30, 99
2, 108917, Control_c, 0, 64, 127
2, 109143, Note_on_c, 0, 52, 93
2, 109145, Note_on_c, 0, 49, 96
2, 109278, Note_on_c, 0, 69, 0
2, 109278, Note_on_c, 0, 73, 0
2, 109278, Note_on_c, 0, 76, 0
2, 109286, Note_on_c, 0, 42, 0
2, 109286, Note_on_c, 0, 52, 0
2, 109286, Note_on_c, 0, 76, 107
2, 109288, Note_on_c, 0, 73, 108
2, 109289, Note_on_c, 0, 69, 103
2, 109296, Note_on_c, 0, 42, 91
2, 109297, Note_on_c, 0, 52, 91
2, 109416, Note_on_c, 0, 49, 0
2, 109416, Note_on_c, 0, 52, 0
2, 109423, Note_on_c, 0, 52, 90
2, 109425, Note_on_c, 0, 49, 97
2, 109430, Note_on_c, 0, 64, 0
2, 109532, Note_on_c, 0, 42, 0
2, 109540, Note_on_c, 0, 42, 102
2, 109547, Note_on_c, 0, 73, 0
2, 109553, Note_on_c, 0, 73, 103
2, 109655, Note_on_c, 0, 49, 0
2, 109655, Note_on_c, 0, 52, 0
2, 109661, Note_on_c, 0, 49, 93
2, 109665, Note_on_c, 0, 52, 81
2, 109693, Note_on_c, 0, 42, 0
2, 109697, Note_on_c, 0, 42, 56
2, 109698, Note_on_c, 0, 75, 104
2, 109725, Control_c, 0, 64, 0
2, 109728, Note_on_c, 0, 49, 0
2, 109728, Note_on_c, 0, 73, 0
2, 109728, Note_on_c, 0, 76, 0
2, 109729, Note_on_c, 0, 52, 0
2, 109737, Note_on_c, 0, 75, 0
2, 109747, Note_on_c, 0, 30, 0
2, 109754, Note_on_c, 0, 69, 0
2, 109770, Note_on_c, 0, 42, 0
2, 109817, Note_on_c, 0, 68, 113
2, 109820, Note_on_c, 0, 76, 107
2, 109823, Note_on_c, 0, 71, 97
2, 109824, Note_on_c, 0, 44, 107
2, 109827, Note_on_c, 0, 32, 94
2, 109847, Control_c, 0, 64, 127
2, 110062, Note_on_c, 0, 44, 0
2, 110073, Note_on_c, 0, 44, 89
2, 110200, Note_on_c, 0, 44, 0
2, 110200, Note_on_c, 0, 71, 0
2, 110200, Note_on_c, 0, 76, 0
2, 110205, Note_on_c, 0, 47, 99
2, 110207, Note_on_c, 0, 52, 99
2, 110208, Note_on_c, 0, 71, 99
2, 110209, Note_on_c, 0, 44, 95
2, 110209, Note_on_c, 0, 76, 105
2, 110346, Note_on_c, 0, 44, 0
2, 110353, Note_on_c, 0, 44, 91
2, 110469, Note_on_c, 0, 47, 0
2, 110469, Note_on_c, 0, 52, 0
2, 110469, Note_on_c, 0, 71, 0
2, 110475, Note_on_c, 0, 52, 92
2, 110476, Note_on_c, 0, 44, 0
2, 110477, Note_on_c, 0, 47, 92
2, 110479, Note_on_c, 0, 71, 103
2, 110479, Note_on_c, 0, 78, 109
2, 110481, Note_on_c, 0, 44, 86
2, 110615, Note_on_c, 0, 44, 0
2, 110623, Note_on_c, 0, 44, 98
2, 110737, Note_on_c, 0, 47, 0
2, 110745, Note_on_c, 0, 47, 88
2, 110745, Note_on_c, 0, 52, 0
2, 110746, Note_on_c, 0, 80, 108
2, 110751, Note_on_c, 0, 52, 88
2, 110853, Note_on_c, 0, 44, 0
2, 110853, Note_on_c, 0, 52, 0
2, 110859, Note_on_c, 0, 44, 91
2, 110859, Note_on_c, 0, 52, 87
2, 110931, Control_c, 0, 64, 0
2, 110934, Note_on_c, 0, 32, 0
2, 110935, Note_on_c, 0, 68, 0
2, 110935, Note_on_c, 0, 52, 0
2, 110936, Note_on_c, 0, 76, 0
2, 110936, Note_on_c, 0, 47, 0
2, 110936, Note_on_c, 0, 71, 0
2, 110936, Note_on_c, 0, 78, 0
2, 110936, Note_on_c, 0, 44, 0
2, 110936, Note_on_c, 0, 80, 0
2, 111009, Note_on_c, 0, 52, 104
2, 111010, Note_on_c, 0, 80, 109
2, 111012, Note_on_c, 0, 71, 102
2, 111013, Note_on_c, 0, 49, 98
2, 111013, Note_on_c, 0, 73, 109
2, 111045, Control_c, 0, 64, 127
2, 111140, Note_on_c, 0, 33, 94
2, 111261, Note_on_c, 0, 45, 93
2, 111406, Note_on_c, 0, 49, 0
2, 111406, Note_on_c, 0, 52, 0
2, 111409, Note_on_c, 0, 68, 112
2, 111410, Note_on_c, 0, 52, 99
2, 111410, Note_on_c, 0, 49, 100
2, 111415, Note_on_c, 0, 59, 99
2, 111528, Note_on_c, 0, 33, 0
2, 111534, Note_on_c, 0, 33, 92
2, 111667, Note_on_c, 0, 45, 0
2, 111671, Note_on_c, 0, 45, 98
2, 111678, Note_on_c, 0, 81, 107
2, 111790, Note_on_c, 0, 49, 0
2, 111790, Note_on_c, 0, 52, 0
2, 111794, Note_on_c, 0, 49, 101
2, 111794, Note_on_c, 0, 52, 93
2, 111800, Note_on_c, 0, 45, 0
2, 111805, Note_on_c, 0, 80, 0
2, 111813, Note_on_c, 0, 80, 108
2, 111880, Control_c, 0, 64, 0
2, 111884, Note_on_c, 0, 33, 0
2, 111884, Note_on_c, 0, 59, 0
2, 111885, Note_on_c, 0, 68, 0
2, 111885, Note_on_c, 0, 73, 0
2, 111885, Note_on_c, 0, 81, 0
2, 111885, Note_on_c, 0, 71, 0
2, 111885, Note_on_c, 0, 80, 0
2, 111885, Note_on_c, 0, 49, 0
2, 111886, Note_on_c, 0, 52, 0
2, 111950, Note_on_c, 0, 59, 107
2, 111954, Note_on_c, 0, 47, 102
2, 111954, Note_on_c, 0, 54, 113
2, 111955, Note_on_c, 0, 78, 107
2, 111957, Note_on_c, 0, 71, 100
2, 111957, Note_on_c, 0, 75, 108
2, 112005, Control_c, 0, 64, 127
2, 112197, Note_on_c, 0, 47, 0
2, 112205, Note_on_c, 0, 47, 99
2, 112206, Note_on_c, 0, 35, 97
2, 112266, Note_on_c, 0, 59, 0
2, 112274, Note_on_c, 0, 59, 80
2, 112336, Note_on_c, 0, 39, 93
2, 112337, Note_on_c, 0, 51, 95
2, 112392, Note_on_c, 0, 63, 101
2, 112459, Note_on_c, 0, 52, 94
2, 112459, Note_on_c, 0, 40, 91
2, 112515, Note_on_c, 0, 64, 104
2, 112573, Note_on_c, 0, 54, 0
2, 112576, Note_on_c, 0, 42, 95
2, 112577, Note_on_c, 0, 54, 96
2, 112627, Note_on_c, 0, 42, 0
2, 112634, Note_on_c, 0, 42, 74
2, 112634, Note_on_c, 0, 39, 0
2, 112638, Note_on_c, 0, 66, 101
2, 112640, Note_on_c, 0, 39, 75
2, 112719, Note_on_c, 0, 35, 0
2, 112719, Note_on_c, 0, 47, 0
2, 112719, Note_on_c, 0, 59, 0
2, 112724, Note_on_c, 0, 59, 101
2, 112724, Note_on_c, 0, 47, 91
2, 112725, Note_on_c, 0, 35, 92
2, 112731, Note_on_c, 0, 75, 0
2, 112734, Note_on_c, 0, 51, 0
2, 112734, Note_on_c, 0, 54, 0
2, 112735, Note_on_c, 0, 78, 0
2, 112738, Note_on_c, 0, 71, 0
2, 112738, Note_on_c, 0, 63, 0
2, 112738, Note_on_c, 0, 40, 0
2, 112739, Note_on_c, 0, 52, 0
2, 112751, Note_on_c, 0, 64, 0
2, 112776, Control_c, 0, 64, 0
2, 112796, Control_c, 0, 64, 127
2, 112826, Note_on_c, 0, 39, 0
2, 112834, Note_on_c, 0, 47, 0
2, 112842, Note_on_c, 0, 66, 0
2, 112845, Note_on_c, 0, 47, 97
2, 112846, Note_on_c, 0, 71, 103
2, 112852, Note_on_c, 0, 63, 99
2, 112853, Note_on_c, 0, 66, 95
2, 112865, Note_on_c, 0, 42, 0
2, 112872, Note_on_c, 0, 42, 71
2, 113023, Control_c, 0, 64, 0
2, 113028, Note_on_c, 0, 63, 0
2, 113028, Note_on_c, 0, 66, 0
2, 113030, Note_on_c, 0, 71, 0
2, 113030, Note_on_c, 0, 42, 0
2, 113034, Note_on_c, 0, 59, 0
2, 113035, Note_on_c, 0, 47, 0
2, 113049, Note_on_c, 0, 35, 0
2, 113127, Note_on_c, 0, 71, 109
2, 113131, Note_on_c, 0, 64, 104
2, 113131, Note_on_c, 0, 40, 100
2, 113133, Note_on_c, 0, 68, 107
2, 113134, Note_on_c, 0, 28, 100
2, 113157, Control_c, 0, 64, 127
2, 113277, Control_c, 0, 64, 0
2, 113299, Note_on_c, 0, 28, 0
2, 113306, Note_on_c, 0, 40, 0
2, 113313, Note_on_c, 0, 68, 0
2, 113313, Note_on_c, 0, 71, 0
2, 113314, Note_on_c, 0, 64, 0
2, 113405, Note_on_c, 0, 71, 97
2, 113479, Note_on_c, 0, 71, 0
2, 113545, Note_on_c, 0, 71, 108
2, 113717, Note_on_c, 0, 71, 0
2, 113804, Note_on_c, 0, 69, 105
2, 113936, Note_on_c, 0, 40, 94
2, 113936, Note_on_c, 0, 28, 100
2, 113937, Note_on_c, 0, 68, 105
2, 113964, Note_on_c, 0, 69, 0
2, 113966, Note_on_c, 0, 40, 0
2, 113967, Note_on_c, 0, 68, 0
2, 114001, Note_on_c, 0, 28, 0
2, 114069, Note_on_c, 0, 66, 102
2, 114074, Note_on_c, 0, 39, 99
2, 114075, Note_on_c, 0, 57, 108
2, 114075, Note_on_c, 0, 27, 95
2, 114078, Note_on_c, 0, 61, 95
2, 114101, Control_c, 0, 64, 127
2, 114220, Control_c, 0, 64, 0
2, 114253, Note_on_c, 0, 27, 0
2, 114254, Note_on_c, 0, 57, 0
2, 114255, Note_on_c, 0, 39, 0
2, 114256, Note_on_c, 0, 61, 0
2, 114286, Note_on_c, 0, 66, 0
2, 114352, Note_on_c, 0, 68, 103
2, 114382, Note_on_c, 0, 68, 0
2, 114488, Note_on_c, 0, 69, 103
2, 114533, Note_on_c, 0, 69, 0
2, 114622, Note_on_c, 0, 68, 108
2, 114627, Note_on_c, 0, 63, 89
2, 114627, Note_on_c, 0, 44, 107
2, 114627, Note_on_c, 0, 60, 91
2, 114628, Note_on_c, 0, 32, 96
2, 114885, Note_on_c, 0, 44, 0
2, 114889, Note_on_c, 0, 44, 95
2, 114910, Note_on_c, 0, 68, 0
2, 114931, Note_on_c, 0, 32, 0
2, 114946, Note_on_c, 0, 60, 0
2, 114964, Note_on_c, 0, 51, 87
2, 114965, Note_on_c, 0, 54, 97
2, 114977, Control_c, 0, 64, 127
2, 115023, Note_on_c, 0, 63, 0
2, 115028, Note_on_c, 0, 60, 100
2, 115032, Note_on_c, 0, 63, 100
2, 115138, Note_on_c, 0, 44, 0
2, 115143, Note_on_c, 0, 44, 90
2, 115196, Control_c, 0, 64, 0
2, 115207, Note_on_c, 0, 44, 0
2, 115210, Note_on_c, 0, 51, 0
2, 115211, Note_on_c, 0, 54, 0
2, 115211, Note_on_c, 0, 60, 0
2, 115211, Note_on_c, 0, 63, 0
2, 115280, Note_on_c, 0, 56, 93
2, 115285, Note_on_c, 0, 64, 99
2, 115286, Note_on_c, 0, 49, 104
2, 115287, Note_on_c, 0, 37, 103
2, 115288, Note_on_c, 0, 59, 98
2, 115307, Control_c, 0, 64, 127
2, 115417, Control_c, 0, 64, 0
2, 115447, Note_on_c, 0, 37, 0
2, 115448, Note_on_c, 0, 59, 0
2, 115450, Note_on_c, 0, 49, 0
2, 115451, Note_on_c, 0, 64, 0
2, 115461, Note_on_c, 0, 56, 0
2, 115554, Note_on_c, 0, 63, 96
2, 115660, Note_on_c, 0, 63, 0
2, 115692, Note_on_c, 0, 64, 106
2, 115950, Note_on_c, 0, 49, 102
2, 115953, Note_on_c, 0, 37, 102
2, 115954, Note_on_c, 0, 66, 100
2, 115968, Control_c, 0, 64, 127
2, 116077, Note_on_c, 0, 48, 94
2, 116078, Note_on_c, 0, 36, 93
2, 116127, Control_c, 0, 64, 0
2, 116134, Note_on_c, 0, 66, 0
2, 116138, Note_on_c, 0, 37, 0
2, 116139, Note_on_c, 0, 48, 0
2, 116140, Note_on_c, 0, 36, 0
2, 116144, Note_on_c, 0, 49, 0
2, 116144, Note_on_c, 0, 64, 0
2, 116217, Note_on_c, 0, 68, 107
2, 116217, Note_on_c, 0, 47, 105
2, 116222, Note_on_c, 0, 35, 95
2, 116223, Note_on_c, 0, 64, 99
2, 116244, Control_c, 0, 64, 127
2, 116384, Control_c, 0, 64, 0
2, 116390, Note_on_c, 0, 35, 0
2, 116390, Note_on_c, 0, 47, 0
2, 116395, Note_on_c, 0, 47, 77
2, 116397, Note_on_c, 0, 35, 57
2, 116432, Note_on_c, 0, 64, 0
2, 116435, Note_on_c, 0, 68, 0
2, 116444, Note_on_c, 0, 35, 0
2, 116459, Note_on_c, 0, 47, 0
2, 116502, Note_on_c, 0, 59, 103
2, 116503, Note_on_c, 0, 52, 99
2, 116508, Note_on_c, 0, 56, 95
2, 116544, Control_c, 0, 64, 127
2, 116638, Note_on_c, 0, 64, 105
2, 116760, Note_on_c, 0, 40, 100
2, 116760, Note_on_c, 0, 28, 99
2, 116897, Note_on_c, 0, 68, 109
2, 117004, Note_on_c, 0, 28, 0
2, 117004, Note_on_c, 0, 40, 0
2, 117014, Note_on_c, 0, 28, 93
2, 117014, Note_on_c, 0, 40, 91
2, 117143, Note_on_c, 0, 52, 0
2, 117143, Note_on_c, 0, 64, 0
2, 117148, Note_on_c, 0, 71, 104
2, 117150, Note_on_c, 0, 68, 0
2, 117153, Note_on_c, 0, 52, 103
2, 117153, Note_on_c, 0, 64, 103
2, 117154, Note_on_c, 0, 68, 100
2, 117204, Note_on_c, 0, 47, 85
2, 117250, Note_on_c, 0, 40, 0
2, 117257, Note_on_c, 0, 40, 68
2, 117350, Control_c, 0, 64, 0
2, 117352, Note_on_c, 0, 28, 0
2, 117354, Note_on_c, 0, 40, 0
2, 117355, Note_on_c, 0, 52, 0
2, 117355, Note_on_c, 0, 68, 0
2, 117355, Note_on_c, 0, 59, 0
2, 117355, Note_on_c, 0, 56, 0
2, 117355, Note_on_c, 0, 71, 0
2, 117355, Note_on_c, 0, 47, 0
2, 117373, Note_on_c, 0, 64, 0
2, 117417, Note_on_c, 0, 73, 112
2, 117422, Note_on_c, 0, 68, 107
2, 117422, Note_on_c, 0, 61, 108
2, 117423, Note_on_c, 0, 64, 96
2, 117426, Note_on_c, 0, 45, 109
2, 117428, Note_on_c, 0, 33, 97
2, 117511, Control_c, 0, 64, 127
2, 117695, Note_on_c, 0, 57, 102
2, 117696, Note_on_c, 0, 61, 0
2, 117700, Note_on_c, 0, 52, 91
2, 117706, Note_on_c, 0, 61, 93
2, 117765, Note_on_c, 0, 64, 0
2, 117774, Note_on_c, 0, 64, 81
2, 117826, Note_on_c, 0, 45, 0
2, 117826, Note_on_c, 0, 68, 0
2, 117831, Note_on_c, 0, 68, 99
2, 117836, Note_on_c, 0, 45, 95
2, 117888, Note_on_c, 0, 73, 0
2, 117898, Note_on_c, 0, 73, 91
2, 117951, Note_on_c, 0, 76, 98
2, 117964, Note_on_c, 0, 52, 0
2, 117964, Note_on_c, 0, 57, 0
2, 117968, Note_on_c, 0, 57, 93
2, 117969, Note_on_c, 0, 52, 90
2, 118009, Note_on_c, 0, 80, 97
2, 118067, Note_on_c, 0, 85, 97
2, 118087, Note_on_c, 0, 45, 0
2, 118098, Note_on_c, 0, 45, 100
2, 118113, Note_on_c, 0, 88, 100
2, 118161, Note_on_c, 0, 92, 99
2, 118212, Note_on_c, 0, 97, 108
2, 118218, Note_on_c, 0, 57, 0
2, 118225, Note_on_c, 0, 52, 0
2, 118229, Note_on_c, 0, 57, 101
2, 118232, Note_on_c, 0, 52, 96
2, 118341, Note_on_c, 0, 52, 0
2, 118348, Note_on_c, 0, 64, 0
2, 118348, Note_on_c, 0, 73, 0
2, 118351, Note_on_c, 0, 52, 85
2, 118352, Note_on_c, 0, 73, 108
2, 118357, Note_on_c, 0, 64, 87
2, 118412, Control_c, 0, 64, 0
2, 118415, Note_on_c, 0, 80, 0
2, 118415, Note_on_c, 0, 92, 0
2, 118415, Note_on_c, 0, 88, 0
2, 118415, Note_on_c, 0, 57, 0
2, 118416, Note_on_c, 0, 68, 0
2, 118416, Note_on_c, 0, 97, 0
2, 118416, Note_on_c, 0, 76, 0
2, 118418, Note_on_c, 0, 85, 0
2, 118419, Note_on_c, 0, 61, 0
2, 118419, Note_on_c, 0, 52, 0
2, 118419, Note_on_c, 0, 64, 0
2, 118420, Note_on_c, 0, 73, 0
2, 118433, Note_on_c, 0, 33, 0
2, 118433, Note_on_c, 0, 45, 0
2, 118492, Note_on_c, 0, 73, 112
2, 118495, Note_on_c, 0, 61, 108
2, 118496, Note_on_c, 0, 64, 96
2, 118498, Note_on_c, 0, 33, 91
2, 118498, Note_on_c, 0, 45, 100
2, 118540, Control_c, 0, 64, 127
2, 118766, Note_on_c, 0, 59, 97
2, 118766, Note_on_c, 0, 75, 104
2, 118766, Note_on_c, 0, 63, 100
2, 118773, Note_on_c, 0, 71, 78
2, 118846, Note_on_c, 0, 54, 50
2, 118899, Note_on_c, 0, 76, 107
2, 118901, Note_on_c, 0, 64, 0
2, 118905, Note_on_c, 0, 64, 107
2, 118921, Note_on_c, 0, 51, 73
2, 119007, Note_on_c, 0, 47, 92
2, 119098, Note_on_c, 0, 42, 85
2, 119155, Note_on_c, 0, 42, 0
2, 119157, Note_on_c, 0, 78, 111
2, 119159, Note_on_c, 0, 42, 88
2, 119161, Note_on_c, 0, 66, 107
2, 119270, Note_on_c, 0, 33, 0
2, 119280, Note_on_c, 0, 33, 94
2, 119416, Note_on_c, 0, 71, 0
2, 119419, Control_c, 0, 64, 0
2, 119424, Note_on_c, 0, 59, 0
2, 119424, Note_on_c, 0, 63, 0
2, 119424, Note_on_c, 0, 66, 0
2, 119426, Note_on_c, 0, 71, 106
2, 119428, Note_on_c, 0, 59, 106
2, 119429, Note_on_c, 0, 63, 97
2, 119431, Note_on_c, 0, 66, 96
2, 119437, Note_on_c, 0, 75, 0
2, 119438, Note_on_c, 0, 51, 0
2, 119440, Note_on_c, 0, 78, 0
2, 119441, Note_on_c, 0, 54, 0
2, 119441, Note_on_c, 0, 42, 0
2, 119441, Note_on_c, 0, 76, 0
2, 119442, Note_on_c, 0, 64, 0
2, 119443, Note_on_c, 0, 73, 0
2, 119447, Note_on_c, 0, 61, 0
2, 119454, Note_on_c, 0, 45, 0
2, 119454, Note_on_c, 0, 47, 0
2, 119462, Note_on_c, 0, 33, 0
2, 119546, Control_c, 0, 64, 127
2, 119550, Note_on_c, 0, 32, 92
2, 119551, Note_on_c, 0, 44, 100
2, 119674, Note_on_c, 0, 51, 43
2, 119700, Note_on_c, 0, 59, 0
2, 119708, Note_on_c, 0, 59, 93
2, 119738, Note_on_c, 0, 63, 0
2, 119749, Note_on_c, 0, 63, 88
2, 119792, Note_on_c, 0, 66, 0
2, 119802, Note_on_c, 0, 66, 92
2, 119815, Note_on_c, 0, 51, 0
2, 119824, Note_on_c, 0, 54, 97
2, 119826, Note_on_c, 0, 51, 82
2, 119831, Note_on_c, 0, 44, 0
2, 119841, Note_on_c, 0, 44, 75
2, 119846, Note_on_c, 0, 71, 0
2, 119857, Note_on_c, 0, 71, 90
2, 119923, Note_on_c, 0, 71, 0
2, 119932, Note_on_c, 0, 71, 80
2, 119976, Note_on_c, 0, 44, 0
2, 119981, Note_on_c, 0, 44, 91
2, 119985, Note_on_c, 0, 75, 94
2, 120036, Note_on_c, 0, 78, 95
2, 120078, Note_on_c, 0, 83, 82
2, 120092, Note_on_c, 0, 51, 0
2, 120092, Note_on_c, 0, 54, 0
2, 120099, Note_on_c, 0, 44, 0
2, 120101, Note_on_c, 0, 54, 87
2, 120102, Note_on_c, 0, 51, 83
2, 120104, Note_on_c, 0, 44, 83
2, 120153, Note_on_c, 0, 83, 0
2, 120164, Note_on_c, 0, 83, 99
2, 120222, Note_on_c, 0, 44, 0
2, 120226, Note_on_c, 0, 87, 99
2, 120230, Note_on_c, 0, 32, 0
2, 120232, Note_on_c, 0, 44, 92
2, 120235, Note_on_c, 0, 32, 87
2, 120271, Note_on_c, 0, 90, 100
2, 120324, Note_on_c, 0, 95, 110
2, 120353, Note_on_c, 0, 51, 0
2, 120353, Note_on_c, 0, 54, 0
2, 120359, Note_on_c, 0, 54, 102
2, 120363, Note_on_c, 0, 51, 88
2, 120414, Note_on_c, 0, 90, 0
2, 120422, Note_on_c, 0, 90, 75
2, 120453, Note_on_c, 0, 87, 0
2, 120464, Note_on_c, 0, 87, 93
2, 120514, Note_on_c, 0, 83, 0
2, 120519, Note_on_c, 0, 83, 91
2, 120557, Note_on_c, 0, 95, 0
2, 120557, Control_c, 0, 64, 0
2, 120558, Note_on_c, 0, 32, 0
2, 120558, Note_on_c, 0, 71, 0
2, 120558, Note_on_c, 0, 44, 0
2, 120558, Note_on_c, 0, 59, 0
2, 120558, Note_on_c, 0, 83, 0
2, 120559, Note_on_c, 0, 78, 0
2, 120559, Note_on_c, 0, 66, 0
2, 120559, Note_on_c, 0, 90, 0
2, 120559, Note_on_c, 0, 54, 0
2, 120560, Note_on_c, 0, 75, 0
2, 120576, Note_on_c, 0, 51, 0
2, 120576, Note_on_c, 0, 63, 0
2, 120576, Note_on_c, 0, 87, 0
2, 120589, Note_on_c, 0, 93, 109
2, 120602, Note_on_c, 0, 49, 101
2, 120602, Note_on_c, 0, 37, 104
2, 120650, Note_on_c, 0, 89, 89
2, 120660, Control_c, 0, 64, 127
2, 120711, Note_on_c, 0, 85, 92
2, 120780, Note_on_c, 0, 83, 84
2, 120865, Note_on_c, 0, 81, 87
2, 120869, Note_on_c, 0, 59, 95
2, 120871, Note_on_c, 0, 53, 85
2, 120873, Note_on_c, 0, 56, 82
2, 120924, Note_on_c, 0, 77, 88
2, 120996, Note_on_c, 0, 73, 80
2, 120998, Note_on_c, 0, 49, 0
2, 121007, Note_on_c, 0, 49, 82
2, 121021, Note_on_c, 0, 53, 0
2, 121027, Note_on_c, 0, 53, 49
2, 121059, Note_on_c, 0, 71, 82
2, 121134, Note_on_c, 0, 80, 104
2, 121136, Note_on_c, 0, 53, 0
2, 121136, Note_on_c, 0, 56, 0
2, 121136, Note_on_c, 0, 59, 0
2, 121140, Note_on_c, 0, 59, 93
2, 121141, Note_on_c, 0, 53, 85
2, 121144, Note_on_c, 0, 56, 87
2, 121190, Note_on_c, 0, 77, 0
2, 121195, Note_on_c, 0, 77, 77
2, 121251, Note_on_c, 0, 73, 0
2, 121262, Note_on_c, 0, 73, 74
2, 121320, Note_on_c, 0, 71, 0
2, 121327, Note_on_c, 0, 71, 75
2, 121397, Note_on_c, 0, 49, 0
2, 121405, Note_on_c, 0, 37, 0
2, 121408, Note_on_c, 0, 49, 95
2, 121408, Note_on_c, 0, 68, 96
2, 121410, Note_on_c, 0, 37, 97
2, 121463, Note_on_c, 0, 65, 61
2, 121551, Note_on_c, 0, 59, 0
2, 121562, Note_on_c, 0, 59, 75
2, 121586, Control_c, 0, 64, 0
2, 121592, Note_on_c, 0, 89, 0
2, 121593, Note_on_c, 0, 83, 0
2, 121593, Note_on_c, 0, 81, 0
2, 121593, Note_on_c, 0, 77, 0
2, 121593, Note_on_c, 0, 59, 0
2, 121593, Note_on_c, 0, 37, 0
2, 121593, Note_on_c, 0, 56, 0
2, 121593, Note_on_c, 0, 80, 0
2, 121593, Note_on_c, 0, 85, 0
2, 121594, Note_on_c, 0, 65, 0
2, 121594, Note_on_c, 0, 53, 0
2, 121595, Note_on_c, 0, 68, 0
2, 121597, Note_on_c, 0, 93, 0
2, 121612, Note_on_c, 0, 49, 0
2, 121612, Note_on_c, 0, 71, 0
2, 121612, Note_on_c, 0, 73, 0
2, 121665, Note_on_c, 0, 69, 103
2, 121671, Note_on_c, 0, 57, 103
2, 121671, Note_on_c, 0, 42, 100
2, 121671, Note_on_c, 0, 64, 98
2, 121671, Note_on_c, 0, 30, 97
2, 121673, Note_on_c, 0, 61, 96
2, 121697, Control_c, 0, 64, 127
2, 121908, Control_c, 0, 64, 0
2, 121932, Note_on_c, 0, 52, 90
2, 121933, Note_on_c, 0, 49, 91
2, 121935, Note_on_c, 0, 68, 105
2, 121940, Note_on_c, 0, 57, 0
2, 121940, Note_on_c, 0, 61, 0
2, 121944, Note_on_c, 0, 69, 0
2, 121946, Note_on_c, 0, 42, 0
2, 121946, Note_on_c, 0, 64, 0
2, 121950, Note_on_c, 0, 30, 0
2, 121969, Note_on_c, 0, 52, 0
2, 121993, Note_on_c, 0, 68, 0
2, 122035, Note_on_c, 0, 49, 0
2, 122071, Note_on_c, 0, 42, 89
2, 122071, Note_on_c, 0, 66, 104
2, 122186, Note_on_c, 0, 52, 86
2, 122187, Note_on_c, 0, 57, 102
2, 122191, Note_on_c, 0, 49, 88
2, 122265, Control_c, 0, 64, 127
2, 122311, Note_on_c, 0, 42, 0
2, 122317, Note_on_c, 0, 64, 102
2, 122318, Note_on_c, 0, 42, 98
2, 122434, Note_on_c, 0, 49, 0
2, 122434, Note_on_c, 0, 52, 0
2, 122443, Note_on_c, 0, 49, 90
2, 122444, Note_on_c, 0, 52, 83
2, 122533, Note_on_c, 0, 52, 0
2, 122534, Note_on_c, 0, 42, 0
2, 122535, Control_c, 0, 64, 0
2, 122537, Note_on_c, 0, 57, 0
2, 122537, Note_on_c, 0, 64, 0
2, 122542, Note_on_c, 0, 66, 0
2, 122557, Note_on_c, 0, 49, 0
2, 122590, Note_on_c, 0, 63, 103
2, 122591, Note_on_c, 0, 59, 98
2, 122592, Note_on_c, 0, 47, 103
2, 122592, Note_on_c, 0, 35, 91
2, 122680, Control_c, 0, 64, 127
2, 122833, Note_on_c, 0, 47, 0
2, 122833, Note_on_c, 0, 63, 0
2, 122841, Note_on_c, 0, 59, 0
2, 122841, Note_on_c, 0, 47, 96
2, 122844, Note_on_c, 0, 63, 95
2, 122845, Note_on_c, 0, 59, 91
2, 122968, Note_on_c, 0, 54, 85
2, 122970, Note_on_c, 0, 51, 92
2, 122972, Note_on_c, 0, 63, 0
2, 122983, Note_on_c, 0, 63, 97
2, 123021, Control_c, 0, 64, 0
2, 123036, Note_on_c, 0, 51, 0
2, 123037, Note_on_c, 0, 59, 0
2, 123037, Note_on_c, 0, 54, 0
2, 123038, Note_on_c, 0, 63, 0
2, 123041, Note_on_c, 0, 35, 0
2, 123048, Note_on_c, 0, 47, 0
2, 123114, Note_on_c, 0, 64, 100
2, 123115, Note_on_c, 0, 61, 97
2, 123117, Note_on_c, 0, 45, 107
2, 123119, Note_on_c, 0, 33, 96
2, 123340, Note_on_c, 0, 45, 0
2, 123368, Note_on_c, 0, 66, 100
2, 123371, Note_on_c, 0, 33, 0
2, 123374, Note_on_c, 0, 45, 103
2, 123375, Note_on_c, 0, 33, 86
2, 123386, Control_c, 0, 64, 127
2, 123503, Note_on_c, 0, 54, 99
2, 123510, Note_on_c, 0, 51, 87
2, 123615, Control_c, 0, 64, 0
2, 123627, Note_on_c, 0, 33, 0
2, 123628, Note_on_c, 0, 45, 0
2, 123628, Note_on_c, 0, 54, 0
2, 123629, Note_on_c, 0, 66, 0
2, 123629, Note_on_c, 0, 51, 0
2, 123629, Note_on_c, 0, 61, 0
2, 123632, Note_on_c, 0, 64, 0
2, 123634, Note_on_c, 0, 59, 101
2, 123710, Note_on_c, 0, 59, 0
2, 123769, Note_on_c, 0, 71, 103
2, 123770, Note_on_c, 0, 44, 104
2, 123772, Note_on_c, 0, 63, 97
2, 123773, Note_on_c, 0, 32, 95
2, 123824, Control_c, 0, 64, 127
2, 124032, Note_on_c, 0, 63, 0
2, 124032, Note_on_c, 0, 71, 0
2, 124036, Note_on_c, 0, 71, 98
2, 124037, Note_on_c, 0, 63, 99
2, 124041, Note_on_c, 0, 54, 96
2, 124050, Control_c, 0, 64, 0
2, 124079, Note_on_c, 0, 54, 0
2, 124079, Note_on_c, 0, 44, 0
2, 124081, Note_on_c, 0, 71, 0
2, 124082, Note_on_c, 0, 63, 0
2, 124085, Note_on_c, 0, 32, 0
2, 124167, Note_on_c, 0, 44, 94
2, 124168, Note_on_c, 0, 71, 98
2, 124172, Note_on_c, 0, 63, 92
2, 124200, Control_c, 0, 64, 127
2, 124284, Note_on_c, 0, 54, 90
2, 124285, Note_on_c, 0, 59, 98
2, 124306, Note_on_c, 0, 51, 66
2, 124395, Note_on_c, 0, 68, 105
2, 124416, Note_on_c, 0, 44, 0
2, 124420, Note_on_c, 0, 69, 102
2, 124427, Note_on_c, 0, 44, 82
2, 124554, Note_on_c, 0, 54, 0
2, 124554, Note_on_c, 0, 68, 0
2, 124558, Note_on_c, 0, 68, 107
2, 124561, Note_on_c, 0, 51, 0
2, 124563, Note_on_c, 0, 54, 84
2, 124570, Note_on_c, 0, 51, 73
2, 124611, Note_on_c, 0, 51, 0
2, 124612, Control_c, 0, 64, 0
2, 124612, Note_on_c, 0, 44, 0
2, 124612, Note_on_c, 0, 63, 0
2, 124613, Note_on_c, 0, 54, 0
2, 124613, Note_on_c, 0, 71, 0
2, 124613, Note_on_c, 0, 69, 0
2, 124613, Note_on_c, 0, 59, 0
2, 124616, Note_on_c, 0, 68, 0
2, 124690, Note_on_c, 0, 66, 101
2, 124695, Note_on_c, 0, 59, 100
2, 124695, Note_on_c, 0, 63, 102
2, 124696, Note_on_c, 0, 49, 103
2, 124697, Note_on_c, 0, 37, 103
2, 124800, Control_c, 0, 64, 127
2, 124955, Note_on_c, 0, 64, 105
2, 124956, Note_on_c, 0, 44, 84
2, 124988, Control_c, 0, 64, 0
2, 124993, Note_on_c, 0, 37, 0
2, 124993, Note_on_c, 0, 63, 0
2, 124993, Note_on_c, 0, 66, 0
2, 124996, Note_on_c, 0, 59, 0
2, 125001, Note_on_c, 0, 44, 0
2, 125010, Note_on_c, 0, 64, 0
2, 125015, Note_on_c, 0, 49, 0
2, 125085, Note_on_c, 0, 64, 102
2, 125087, Note_on_c, 0, 56, 98
2, 125087, Note_on_c, 0, 49, 90
2, 125088, Note_on_c, 0, 59, 99
2, 125219, Note_on_c, 0, 44, 85
2, 125220, Note_on_c, 0, 51, 103
2, 125230, Control_c, 0, 64, 127
2, 125477, Note_on_c, 0, 52, 104
2, 125612, Note_on_c, 0, 37, 98
2, 125708, Note_on_c, 0, 57, 96
2, 125729, Note_on_c, 0, 59, 0
2, 125737, Note_on_c, 0, 59, 102
2, 125763, Note_on_c, 0, 61, 93
2, 125787, Note_on_c, 0, 51, 0
2, 125791, Note_on_c, 0, 52, 0
2, 125792, Note_on_c, 0, 44, 0
2, 125793, Note_on_c, 0, 56, 0
2, 125793, Note_on_c, 0, 59, 0
2, 125793, Note_on_c, 0, 49, 0
2, 125793, Note_on_c, 0, 64, 0
2, 125794, Note_on_c, 0, 37, 0
2, 125794, Control_c, 0, 64, 0
2, 125800, Note_on_c, 0, 61, 0
2, 125821, Note_on_c, 0, 57, 0
2, 125870, Note_on_c, 0, 64, 109
2, 125872, Note_on_c, 0, 57, 102
2, 125874, Note_on_c, 0, 61, 104
2, 125880, Note_on_c, 0, 42, 97
2, 125880, Note_on_c, 0, 30, 95
2, 126028, Control_c, 0, 64, 127
2, 126145, Note_on_c, 0, 52, 94
2, 126147, Note_on_c, 0, 49, 93
2, 126274, Note_on_c, 0, 64, 0
2, 126282, Note_on_c, 0, 42, 0
2, 126282, Note_on_c, 0, 57, 0
2, 126282, Note_on_c, 0, 61, 0
2, 126284, Note_on_c, 0, 64, 108
2, 126286, Note_on_c, 0, 57, 98
2, 126286, Note_on_c, 0, 42, 90
2, 126287, Note_on_c, 0, 61, 98
2, 126420, Note_on_c, 0, 49, 0
2, 126420, Note_on_c, 0, 52, 0
2, 126429, Note_on_c, 0, 52, 84
2, 126430, Note_on_c, 0, 49, 93
2, 126543, Note_on_c, 0, 42, 0
2, 126551, Note_on_c, 0, 61, 0
2, 126554, Note_on_c, 0, 42, 93
2, 126557, Note_on_c, 0, 61, 102
2, 126673, Note_on_c, 0, 49, 0
2, 126673, Note_on_c, 0, 52, 0
2, 126677, Note_on_c, 0, 52, 91
2, 126679, Note_on_c, 0, 49, 82
2, 126681, Note_on_c, 0, 61, 0
2, 126684, Note_on_c, 0, 63, 101
2, 126690, Note_on_c, 0, 61, 84
2, 126740, Control_c, 0, 64, 0
2, 126754, Note_on_c, 0, 42, 0
2, 126754, Note_on_c, 0, 64, 0
2, 126754, Note_on_c, 0, 52, 0
2, 126754, Note_on_c, 0, 49, 0
2, 126755, Note_on_c, 0, 61, 0
2, 126756, Note_on_c, 0, 57, 0
2, 126760, Note_on_c, 0, 63, 0
2, 126766, Note_on_c, 0, 30, 0
2, 126823, Note_on_c, 0, 64, 108
2, 126824, Note_on_c, 0, 59, 101
2, 126826, Note_on_c, 0, 56, 103
2, 126829, Note_on_c, 0, 32, 94
2, 126831, Note_on_c, 0, 44, 98
2, 126942, Control_c, 0, 64, 127
2, 127080, Note_on_c, 0, 44, 0
2, 127084, Note_on_c, 0, 44, 83
2, 127211, Note_on_c, 0, 59, 0
2, 127211, Note_on_c, 0, 64, 0
2, 127218, Note_on_c, 0, 64, 103
2, 127221, Note_on_c, 0, 59, 104
2, 127222, Note_on_c, 0, 52, 101
2, 127222, Note_on_c, 0, 47, 97
2, 127349, Note_on_c, 0, 44, 0
2, 127360, Note_on_c, 0, 44, 92
2, 127480, Note_on_c, 0, 47, 0
2, 127480, Note_on_c, 0, 59, 0
2, 127488, Note_on_c, 0, 52, 0
2, 127490, Note_on_c, 0, 47, 98
2, 127491, Note_on_c, 0, 66, 107
2, 127491, Note_on_c, 0, 59, 102
2, 127493, Note_on_c, 0, 52, 90
2, 127618, Note_on_c, 0, 44, 0
2, 127623, Note_on_c, 0, 44, 95
2, 127749, Note_on_c, 0, 52, 0
2, 127756, Note_on_c, 0, 47, 0
2, 127759, Note_on_c, 0, 52, 99
2, 127761, Note_on_c, 0, 47, 92
2, 127762, Note_on_c, 0, 68, 111
2, 127895, Note_on_c, 0, 44, 0
2, 127905, Note_on_c, 0, 44, 89
2, 127952, Control_c, 0, 64, 0
2, 127954, Note_on_c, 0, 32, 0
2, 127954, Note_on_c, 0, 47, 0
2, 127954, Note_on_c, 0, 52, 0
2, 127955, Note_on_c, 0, 66, 0
2, 127955, Note_on_c, 0, 44, 0
2, 127955, Note_on_c, 0, 56, 0
2, 127956, Note_on_c, 0, 59, 0
2, 127957, Note_on_c, 0, 64, 0
2, 127957, Note_on_c, 0, 68, 0
2, 128023, Note_on_c, 0, 68, 112
2, 128027, Note_on_c, 0, 52, 99
2, 128028, Note_on_c, 0, 61, 103
2, 128029, Note_on_c, 0, 59, 105
2, 128029, Note_on_c, 0, 49, 104
2, 128079, Control_c, 0, 64, 127
2, 128160, Note_on_c, 0, 33, 93
2, 128286, Note_on_c, 0, 45, 97
2, 128424, Note_on_c, 0, 33, 0
2, 128424, Note_on_c, 0, 52, 0
2, 128432, Note_on_c, 0, 49, 0
2, 128434, Note_on_c, 0, 33, 92
2, 128436, Note_on_c, 0, 52, 100
2, 128437, Note_on_c, 0, 49, 106
2, 128563, Note_on_c, 0, 33, 0
2, 128574, Note_on_c, 0, 33, 97
2, 128686, Note_on_c, 0, 45, 0
2, 128697, Note_on_c, 0, 69, 107
2, 128697, Note_on_c, 0, 45, 98
2, 128824, Note_on_c, 0, 49, 0
2, 128824, Note_on_c, 0, 52, 0
2, 128824, Note_on_c, 0, 68, 0
2, 128828, Note_on_c, 0, 52, 95
2, 128829, Note_on_c, 0, 68, 111
2, 128832, Note_on_c, 0, 49, 98
2, 128920, Control_c, 0, 64, 0
2, 128922, Note_on_c, 0, 33, 0
2, 128922, Note_on_c, 0, 52, 0
2, 128923, Note_on_c, 0, 61, 0
2, 128923, Note_on_c, 0, 49, 0
2, 128923, Note_on_c, 0, 59, 0
2, 128924, Note_on_c, 0, 69, 0
2, 128924, Note_on_c, 0, 68, 0
2, 128939, Note_on_c, 0, 45, 0
2, 128982, Note_on_c, 0, 47, 105
2, 128982, Note_on_c, 0, 66, 104
2, 128982, Note_on_c, 0, 54, 109
2, 128982, Note_on_c, 0, 59, 106
2, 128982, Note_on_c, 0, 63, 104
2, 129070, Control_c, 0, 64, 127
2, 129235, Note_on_c, 0, 35, 95
2, 129354, Note_on_c, 0, 47, 0
2, 129358, Note_on_c, 0, 47, 105
2, 129359, Note_on_c, 0, 42, 101
2, 129477, Note_on_c, 0, 35, 0
2, 129485, Note_on_c, 0, 35, 83
2, 129546, Note_on_c, 0, 47, 0
2, 129550, Note_on_c, 0, 47, 100
2, 129608, Control_c, 0, 64, 0
2, 129609, Note_on_c, 0, 54, 0
2, 129610, Note_on_c, 0, 66, 0
2, 129610, Note_on_c, 0, 59, 0
2, 129611, Note_on_c, 0, 42, 0
2, 129611, Note_on_c, 0, 47, 0
2, 129612, Note_on_c, 0, 63, 0
2, 129628, Note_on_c, 0, 64, 110
2, 129638, Note_on_c, 0, 35, 0
2, 129738, Note_on_c, 0, 64, 0
2, 129888, Note_on_c, 0, 47, 105
2, 129889, Note_on_c, 0, 71, 107
2, 129942, Note_on_c, 0, 42, 72
2, 129945, Control_c, 0, 64, 127
2, 129999, Note_on_c, 0, 47, 0
2, 130002, Note_on_c, 0, 35, 95
2, 130008, Note_on_c, 0, 47, 87
2, 130085, Control_c, 0, 64, 0
2, 130088, Note_on_c, 0, 71, 0
2, 130089, Note_on_c, 0, 35, 0
2, 130090, Note_on_c, 0, 42, 0
2, 130093, Note_on_c, 0, 47, 0
2, 130148, Note_on_c, 0, 66, 96
2, 130149, Note_on_c, 0, 63, 103
2, 130149, Note_on_c, 0, 49, 104
2, 130150, Note_on_c, 0, 59, 100
2, 130153, Note_on_c, 0, 37, 103
2, 130183, Control_c, 0, 64, 127
2, 130275, Note_on_c, 0, 37, 0
2, 130275, Note_on_c, 0, 49, 0
2, 130286, Note_on_c, 0, 49, 98
2, 130287, Note_on_c, 0, 37, 94
2, 130405, Control_c, 0, 64, 0
2, 130414, Note_on_c, 0, 49, 0
2, 130420, Note_on_c, 0, 63, 0
2, 130421, Note_on_c, 0, 59, 0
2, 130421, Note_on_c, 0, 37, 0
2, 130422, Note_on_c, 0, 66, 0
2, 130424, Note_on_c, 0, 49, 94
2, 130425, Note_on_c, 0, 37, 85
2, 130483, Note_on_c, 0, 37, 0
2, 130498, Note_on_c, 0, 49, 0
2, 130547, Note_on_c, 0, 64, 101
2, 130605, Note_on_c, 0, 64, 0
2, 130679, Note_on_c, 0, 59, 105
2, 130682, Note_on_c, 0, 52, 103
2, 130684, Note_on_c, 0, 56, 100
2, 130686, Note_on_c, 0, 76, 101
2, 130687, Note_on_c, 0, 71, 93
2, 130689, Note_on_c, 0, 64, 105
2, 130689, Note_on_c, 0, 68, 103
2, 130713, Control_c, 0, 64, 127
2, 130825, Note_on_c, 0, 49, 94
2, 130825, Note_on_c, 0, 37, 97
2, 130948, Note_on_c, 0, 51, 100
2, 130951, Note_on_c, 0, 39, 93
2, 130952, Control_c, 0, 64, 0
2, 130953, Note_on_c, 0, 49, 0
2, 130954, Note_on_c, 0, 37, 0
2, 130974, Note_on_c, 0, 52, 0
2, 130987, Note_on_c, 0, 51, 0
2, 130990, Note_on_c, 0, 76, 0
2, 130997, Note_on_c, 0, 59, 0
2, 130997, Note_on_c, 0, 71, 0
2, 131020, Note_on_c, 0, 56, 0
2, 131020, Note_on_c, 0, 64, 0
2, 131028, Note_on_c, 0, 39, 0
2, 131091, Note_on_c, 0, 52, 102
2, 131092, Note_on_c, 0, 47, 103
2, 131092, Note_on_c, 0, 40, 104
2, 131212, Control_c, 0, 64, 127
2, 131343, Note_on_c, 0, 40, 0
2, 131351, Note_on_c, 0, 40, 98
2, 131481, Note_on_c, 0, 47, 0
2, 131481, Note_on_c, 0, 52, 0
2, 131485, Note_on_c, 0, 47, 92
2, 131487, Note_on_c, 0, 52, 87
2, 131539, Control_c, 0, 64, 0
2, 131543, Note_on_c, 0, 68, 0
2, 131543, Note_on_c, 0, 40, 0
2, 131545, Note_on_c, 0, 47, 0
2, 131546, Note_on_c, 0, 52, 0
2, 131620, Note_on_c, 0, 54, 107
2, 131622, Note_on_c, 0, 42, 107
2, 131623, Note_on_c, 0, 49, 104
2, 131835, Note_on_c, 0, 49, 0
2, 131887, Note_on_c, 0, 54, 0
2, 131891, Note_on_c, 0, 43, 101
2, 131892, Note_on_c, 0, 55, 102
2, 131894, Note_on_c, 0, 42, 0
2, 131968, Note_on_c, 0, 55, 0
2, 132015, Note_on_c, 0, 54, 103
2, 132015, Note_on_c, 0, 49, 102
2, 132017, Note_on_c, 0, 42, 97
2, 132026, Control_c, 0, 64, 127
2, 132034, Note_on_c, 0, 43, 0
2, 132150, Note_on_c, 0, 40, 97
2, 132152, Note_on_c, 0, 52, 92
2, 132200, Note_on_c, 0, 54, 0
2, 132200, Note_on_c, 0, 42, 0
2, 132203, Note_on_c, 0, 40, 0
2, 132203, Note_on_c, 0, 52, 0
2, 132205, Note_on_c, 0, 49, 0
2, 132207, Control_c, 0, 64, 0
2, 132282, Note_on_c, 0, 49, 107
2, 132283, Note_on_c, 0, 37, 102
2, 132285, Note_on_c, 0, 44, 91
2, 132303, Control_c, 0, 64, 127
2, 132410, Note_on_c, 0, 37, 0
2, 132410, Note_on_c, 0, 44, 0
2, 132410, Note_on_c, 0, 49, 0
2, 132418, Note_on_c, 0, 37, 96
2, 132420, Note_on_c, 0, 49, 97
2, 132422, Note_on_c, 0, 44, 85
2, 132491, Control_c, 0, 64, 0
2, 132493, Note_on_c, 0, 49, 0
2, 132493, Note_on_c, 0, 37, 0
2, 132510, Note_on_c, 0, 44, 0
2, 132548, Note_on_c, 0, 49, 86
2, 132548, Note_on_c, 0, 37, 89
2, 132610, Note_on_c, 0, 37, 0
2, 132610, Note_on_c, 0, 49, 0
2, 132691, Note_on_c, 0, 64, 96
2, 132744, Note_on_c, 0, 64, 0
2, 132821, Note_on_c, 0, 68, 107
2, 132823, Note_on_c, 0, 76, 100
2, 132823, Note_on_c, 0, 71, 93
2, 132828, Note_on_c, 0, 64, 101
2, 132894, Control_c, 0, 64, 127
2, 132951, Note_on_c, 0, 37, 98
2, 132952, Note_on_c, 0, 49, 99
2, 132952, Note_on_c, 0, 44, 89
2, 133086, Note_on_c, 0, 49, 0
2, 133089, Note_on_c, 0, 51, 91
2, 133089, Note_on_c, 0, 39, 92
2, 133093, Note_on_c, 0, 49, 83
2, 133142, Note_on_c, 0, 71, 0
2, 133143, Note_on_c, 0, 68, 0
2, 133144, Note_on_c, 0, 49, 0
2, 133144, Note_on_c, 0, 37, 0
2, 133145, Control_c, 0, 64, 0
2, 133145, Note_on_c, 0, 44, 0
2, 133148, Note_on_c, 0, 51, 0
2, 133151, Note_on_c, 0, 39, 0
2, 133178, Note_on_c, 0, 64, 0
2, 133178, Note_on_c, 0, 76, 0
2, 133220, Note_on_c, 0, 47, 105
2, 133221, Note_on_c, 0, 52, 98
2, 133221, Note_on_c, 0, 40, 99
2, 133222, Note_on_c, 0, 59, 97
2, 133232, Note_on_c, 0, 59, 0
2, 133370, Control_c, 0, 64, 127
2, 133478, Note_on_c, 0, 40, 0
2, 133486, Note_on_c, 0, 52, 0
2, 133489, Note_on_c, 0, 40, 90
2, 133490, Note_on_c, 0, 52, 83
2, 133608, Note_on_c, 0, 47, 0
2, 133616, Note_on_c, 0, 40, 0
2, 133616, Note_on_c, 0, 52, 0
2, 133620, Note_on_c, 0, 47, 82
2, 133622, Note_on_c, 0, 52, 90
2, 133625, Note_on_c, 0, 40, 80
2, 133649, Control_c, 0, 64, 0
2, 133652, Note_on_c, 0, 47, 0
2, 133685, Note_on_c, 0, 52, 0
2, 133693, Note_on_c, 0, 40, 0
2, 133760, Note_on_c, 0, 42, 108
2, 133760, Note_on_c, 0, 54, 106
2, 133763, Note_on_c, 0, 49, 103
2, 133862, Control_c, 0, 64, 127
2, 134026, Note_on_c, 0, 55, 101
2, 134027, Note_on_c, 0, 43, 100
2, 134154, Note_on_c, 0, 42, 0
2, 134154, Note_on_c, 0, 49, 0
2, 134154, Note_on_c, 0, 54, 0
2, 134158, Note_on_c, 0, 49, 98
2, 134158, Note_on_c, 0, 54, 99
2, 134159, Note_on_c, 0, 42, 98
2, 134290, Note_on_c, 0, 52, 93
2, 134291, Note_on_c, 0, 40, 97
2, 134349, Control_c, 0, 64, 0
2, 134349, Note_on_c, 0, 54, 0
2, 134349, Note_on_c, 0, 43, 0
2, 134349, Note_on_c, 0, 55, 0
2, 134349, Note_on_c, 0, 42, 0
2, 134350, Note_on_c, 0, 40, 0
2, 134350, Note_on_c, 0, 52, 0
2, 134351, Note_on_c, 0, 49, 0
2, 134419, Note_on_c, 0, 49, 110
2, 134420, Note_on_c, 0, 44, 96
2, 134420, Note_on_c, 0, 37, 99
2, 134422, Note_on_c, 0, 85, 109
2, 134446, Control_c, 0, 64, 127
2, 134522, Note_on_c, 0, 49, 0
2, 134530, Note_on_c, 0, 37, 0
2, 134530, Note_on_c, 0, 44, 0
2, 134534, Note_on_c, 0, 49, 88
2, 134534, Note_on_c, 0, 37, 67
2, 134535, Note_on_c, 0, 44, 69
2, 134668, Note_on_c, 0, 37, 0
2, 134668, Note_on_c, 0, 44, 0
2, 134668, Note_on_c, 0, 49, 0
2, 134668, Note_on_c, 0, 85, 0
2, 134678, Note_on_c, 0, 49, 93
2, 134679, Note_on_c, 0, 44, 94
2, 134679, Note_on_c, 0, 37, 90
2, 134680, Note_on_c, 0, 85, 106
2, 134680, Control_c, 0, 64, 0
2, 134680, Note_on_c, 0, 73, 102
2, 134730, Note_on_c, 0, 37, 0
2, 134737, Note_on_c, 0, 49, 0
2, 134737, Note_on_c, 0, 73, 0
2, 134745, Note_on_c, 0, 44, 0
2, 134753, Note_on_c, 0, 85, 0
2, 134825, Note_on_c, 0, 97, 115
2, 134826, Note_on_c, 0, 85, 109
2, 134968, Control_c, 0, 64, 127
2, 135068, Note_on_c, 0, 85, 0
2, 135079, Note_on_c, 0, 85, 101
2, 135079, Note_on_c, 0, 73, 99
2, 135079, Note_on_c, 0, 44, 87
2, 135080, Note_on_c, 0, 49, 97
2, 135081, Note_on_c, 0, 37, 97
2, 135201, Note_on_c, 0, 39, 100
2, 135202, Note_on_c, 0, 51, 99
2, 135206, Note_on_c, 0, 85, 0
2, 135206, Note_on_c, 0, 97, 0
2, 135210, Note_on_c, 0, 85, 109
2, 135213, Note_on_c, 0, 97, 114
2, 135322, Control_c, 0, 64, 0
2, 135325, Note_on_c, 0, 44, 0
2, 135326, Note_on_c, 0, 97, 0
2, 135326, Note_on_c, 0, 51, 0
2, 135326, Note_on_c, 0, 73, 0
2, 135326, Note_on_c, 0, 37, 0
2, 135326, Note_on_c, 0, 49, 0
2, 135327, Note_on_c, 0, 39, 0
2, 135327, Note_on_c, 0, 85, 0
2, 135341, Note_on_c, 0, 47, 106
2, 135343, Note_on_c, 0, 52, 104
2, 135345, Note_on_c, 0, 40, 102
2, 135406, Control_c, 0, 64, 127
2, 135481, Note_on_c, 0, 73, 105
2, 135484, Note_on_c, 0, 85, 110
2, 135590, Note_on_c, 0, 40, 0
2, 135601, Note_on_c, 0, 40, 102
2, 135605, Note_on_c, 0, 85, 0
2, 135616, Note_on_c, 0, 85, 113
2, 135618, Note_on_c, 0, 97, 112
2, 135736, Note_on_c, 0, 47, 0
2, 135736, Note_on_c, 0, 52, 0
2, 135744, Note_on_c, 0, 40, 0
2, 135744, Note_on_c, 0, 47, 92
2, 135747, Note_on_c, 0, 52, 95
2, 135747, Note_on_c, 0, 40, 89
2, 135828, Control_c, 0, 64, 0
2, 135835, Note_on_c, 0, 40, 0
2, 135836, Note_on_c, 0, 97, 0
2, 135837, Note_on_c, 0, 47, 0
2, 135837, Note_on_c, 0, 52, 0
2, 135859, Note_on_c, 0, 73, 0
2, 135859, Note_on_c, 0, 85, 0
2, 135863, Note_on_c, 0, 85, 103
2, 135866, Note_on_c, 0, 73, 102
2, 135868, Note_on_c, 0, 54, 103
2, 135870, Note_on_c, 0, 42, 107
2, 135871, Note_on_c, 0, 49, 96
2, 135905, Control_c, 0, 64, 127
2, 136005, Note_on_c, 0, 85, 0
2, 136009, Note_on_c, 0, 85, 112
2, 136011, Note_on_c, 0, 97, 112
2, 136122, Note_on_c, 0, 55, 109
2, 136123, Note_on_c, 0, 43, 104
2, 136250, Note_on_c, 0, 42, 0
2, 136250, Note_on_c, 0, 49, 0
2, 136250, Note_on_c, 0, 54, 0
2, 136250, Note_on_c, 0, 73, 0
2, 136250, Note_on_c, 0, 85, 0
2, 136254, Note_on_c, 0, 54, 102
2, 136255, Note_on_c, 0, 85, 101
2, 136256, Note_on_c, 0, 73, 104
2, 136256, Note_on_c, 0, 42, 102
2, 136258, Note_on_c, 0, 49, 96
2, 136377, Note_on_c, 0, 40, 96
2, 136378, Note_on_c, 0, 52, 89
2, 136449, Note_on_c, 0, 55, 0
2, 136450, Note_on_c, 0, 97, 0
2, 136452, Note_on_c, 0, 54, 0
2, 136452, Note_on_c, 0, 40, 0
2, 136452, Note_on_c, 0, 43, 0
2, 136452, Note_on_c, 0, 42, 0
2, 136453, Control_c, 0, 64, 0
2, 136453, Note_on_c, 0, 73, 0
2, 136453, Note_on_c, 0, 85, 0
2, 136453, Note_on_c, 0, 52, 0
2, 136454, Note_on_c, 0, 49, 0
2, 136515, Note_on_c, 0, 49, 109
2, 136516, Note_on_c, 0, 44, 93
2, 136518, Note_on_c, 0, 37, 99
2, 136519, Control_c, 0, 64, 127
2, 136521, Note_on_c, 0, 85, 110
2, 136523, Note_on_c, 0, 97, 110
2, 136642, Note_on_c, 0, 37, 0
2, 136642, Note_on_c, 0, 44, 0
2, 136642, Note_on_c, 0, 49, 0
2, 136651, Note_on_c, 0, 49, 99
2, 136651, Note_on_c, 0, 37, 97
2, 136652, Note_on_c, 0, 44, 93
2, 136713, Control_c, 0, 64, 0
2, 136764, Note_on_c, 0, 97, 0
2, 136773, Note_on_c, 0, 37, 0
2, 136773, Note_on_c, 0, 44, 0
2, 136773, Note_on_c, 0, 49, 0
2, 136773, Note_on_c, 0, 85, 0
2, 136783, Note_on_c, 0, 85, 105
2, 136784, Note_on_c, 0, 44, 89
2, 136784, Note_on_c, 0, 73, 106
2, 136784, Note_on_c, 0, 37, 89
2, 136784, Note_on_c, 0, 49, 94
2, 136846, Note_on_c, 0, 73, 0
2, 136853, Note_on_c, 0, 37, 0
2, 136861, Note_on_c, 0, 85, 0
2, 136872, Note_on_c, 0, 44, 0
2, 136888, Note_on_c, 0, 49, 0
2, 136928, Note_on_c, 0, 97, 115
2, 136930, Note_on_c, 0, 85, 108
2, 136965, Control_c, 0, 64, 127
2, 137134, Note_on_c, 0, 97, 0
2, 137164, Note_on_c, 0, 85, 0
2, 137170, Note_on_c, 0, 73, 107
2, 137171, Note_on_c, 0, 47, 101
2, 137171, Note_on_c, 0, 85, 104
2, 137175, Note_on_c, 0, 35, 88
2, 137299, Note_on_c, 0, 48, 101
2, 137303, Note_on_c, 0, 36, 92
2, 137388, Note_on_c, 0, 73, 0
2, 137389, Note_on_c, 0, 36, 0
2, 137390, Note_on_c, 0, 35, 0
2, 137391, Note_on_c, 0, 47, 0
2, 137391, Note_on_c, 0, 48, 0
2, 137392, Control_c, 0, 64, 0
2, 137433, Note_on_c, 0, 85, 0
2, 137441, Note_on_c, 0, 85, 108
2, 137444, Note_on_c, 0, 97, 109
2, 137445, Note_on_c, 0, 49, 107
2, 137446, Note_on_c, 0, 37, 97
2, 137448, Note_on_c, 0, 44, 90
2, 137487, Control_c, 0, 64, 127
2, 137694, Note_on_c, 0, 37, 0
2, 137694, Note_on_c, 0, 44, 0
2, 137694, Note_on_c, 0, 49, 0
2, 137702, Note_on_c, 0, 49, 103
2, 137702, Note_on_c, 0, 37, 96
2, 137704, Note_on_c, 0, 44, 91
2, 137832, Note_on_c, 0, 37, 0
2, 137832, Note_on_c, 0, 44, 0
2, 137832, Note_on_c, 0, 49, 0
2, 137838, Note_on_c, 0, 37, 96
2, 137838, Note_on_c, 0, 49, 102
2, 137843, Note_on_c, 0, 44, 96
2, 137937, Control_c, 0, 64, 0
2, 137941, Note_on_c, 0, 85, 0
2, 137941, Note_on_c, 0, 97, 0
2, 137942, Note_on_c, 0, 37, 0
2, 137942, Note_on_c, 0, 49, 0
2, 137943, Note_on_c, 0, 44, 0
2, 138113, Note_on_c, 0, 103, 115
2, 138119, Note_on_c, 0, 101, 111
2, 138139, Note_on_c, 0, 100, 107
2, 138157, Note_on_c, 0, 98, 107
2, 138163, Note_on_c, 0, 103, 0
2, 138167, Note_on_c, 0, 96, 102
2, 138169, Note_on_c, 0, 95, 94
2, 138191, Note_on_c, 0, 93, 92
2, 138204, Note_on_c, 0, 91, 94
2, 138211, Note_on_c, 0, 89, 91
2, 138221, Note_on_c, 0, 88, 92
2, 138234, Note_on_c, 0, 86, 99
2, 138241, Note_on_c, 0, 84, 96
2, 138263, Note_on_c, 0, 83, 84
2, 138265, Note_on_c, 0, 79, 91
2, 138266, Note_on_c, 0, 81, 88
2, 138285, Note_on_c, 0, 76, 97
2, 138287, Note_on_c, 0, 77, 97
2, 138298, Note_on_c, 0, 74, 92
2, 138307, Note_on_c, 0, 72, 97
2, 138326, Note_on_c, 0, 71, 83
2, 138328, Note_on_c, 0, 69, 81
2, 138329, Note_on_c, 0, 67, 74
2, 138372, Note_on_c, 0, 64, 82
2, 138373, Note_on_c, 0, 65, 81
2, 138382, Note_on_c, 0, 74, 0
2, 138382, Note_on_c, 0, 88, 0
2, 138383, Note_on_c, 0, 89, 0
2, 138386, Note_on_c, 0, 79, 0
2, 138387, Note_on_c, 0, 77, 0
2, 138387, Note_on_c, 0, 93, 0
2, 138388, Note_on_c, 0, 81, 0
2, 138388, Note_on_c, 0, 86, 0
2, 138390, Note_on_c, 0, 83, 0
2, 138390, Note_on_c, 0, 84, 0
2, 138390, Note_on_c, 0, 96, 0
2, 138391, Note_on_c, 0, 95, 0
2, 138395, Note_on_c, 0, 76, 0
2, 138398, Note_on_c, 0, 62, 83
2, 138401, Note_on_c, 0, 100, 0
2, 138408, Note_on_c, 0, 91, 0
2, 138408, Note_on_c, 0, 98, 0
2, 138408, Note_on_c, 0, 101, 0
2, 138412, Note_on_c, 0, 59, 89
2, 138420, Note_on_c, 0, 57, 94
2, 138424, Note_on_c, 0, 72, 0
2, 138431, Note_on_c, 0, 60, 80
2, 138440, Note_on_c, 0, 55, 84
2, 138444, Note_on_c, 0, 53, 90
2, 138458, Note_on_c, 0, 52, 78
2, 138470, Note_on_c, 0, 60, 0
2, 138476, Note_on_c, 0, 60, 86
2, 138478, Note_on_c, 0, 48, 86
2, 138482, Note_on_c, 0, 50, 81
2, 138483, Note_on_c, 0, 47, 89
2, 138485, Note_on_c, 0, 69, 0
2, 138501, Note_on_c, 0, 55, 0
2, 138508, Note_on_c, 0, 67, 0
2, 138508, Note_on_c, 0, 71, 0
2, 138512, Note_on_c, 0, 59, 0
2, 138518, Note_on_c, 0, 65, 0
2, 138519, Note_on_c, 0, 60, 0
2, 138520, Note_on_c, 0, 53, 0
2, 138524, Note_on_c, 0, 62, 0
2, 138524, Note_on_c, 0, 64, 0
2, 138526, Note_on_c, 0, 48, 0
2, 138526, Note_on_c, 0, 50, 0
2, 138527, Note_on_c, 0, 47, 0
2, 138547, Note_on_c, 0, 57, 0
2, 138562, Note_on_c, 0, 52, 0
2, 138675, Note_on_c, 0, 68, 113
2, 138682, Note_on_c, 0, 61, 95
2, 138683, Note_on_c, 0, 64, 88
2, 138687, Note_on_c, 0, 45, 103
2, 138688, Note_on_c, 0, 59, 104
2, 138689, Note_on_c, 0, 33, 98
2, 138716, Control_c, 0, 64, 127
2, 138931, Note_on_c, 0, 45, 0
2, 138931, Note_on_c, 0, 59, 0
2, 138931, Note_on_c, 0, 61, 0
2, 138931, Note_on_c, 0, 64, 0
2, 138931, Note_on_c, 0, 68, 0
2, 138936, Note_on_c, 0, 68, 104
2, 138936, Note_on_c, 0, 45, 93
2, 138939, Note_on_c, 0, 64, 81
2, 138940, Note_on_c, 0, 61, 83
2, 138941, Note_on_c, 0, 59, 90
2, 139069, Note_on_c, 0, 68, 0
2, 139077, Note_on_c, 0, 45, 0
2, 139077, Note_on_c, 0, 61, 0
2, 139078, Note_on_c, 0, 68, 107
2, 139078, Note_on_c, 0, 52, 87
2, 139080, Note_on_c, 0, 49, 95
2, 139082, Note_on_c, 0, 61, 84
2, 139082, Note_on_c, 0, 45, 85
2, 139200, Note_on_c, 0, 45, 0
2, 139200, Note_on_c, 0, 52, 0
2, 139206, Note_on_c, 0, 52, 83
2, 139206, Note_on_c, 0, 45, 85
2, 139338, Note_on_c, 0, 49, 0
2, 139338, Note_on_c, 0, 52, 0
2, 139338, Note_on_c, 0, 68, 0
2, 139345, Note_on_c, 0, 68, 106
2, 139345, Note_on_c, 0, 59, 0
2, 139348, Note_on_c, 0, 49, 94
2, 139348, Note_on_c, 0, 52, 86
2, 139355, Note_on_c, 0, 59, 89
2, 139453, Note_on_c, 0, 45, 0
2, 139461, Note_on_c, 0, 45, 97
2, 139568, Note_on_c, 0, 52, 0
2, 139576, Note_on_c, 0, 61, 0
2, 139580, Note_on_c, 0, 52, 91
2, 139585, Note_on_c, 0, 66, 89
2, 139586, Note_on_c, 0, 61, 81
2, 139607, Note_on_c, 0, 68, 0
2, 139616, Note_on_c, 0, 68, 100
2, 139674, Note_on_c, 0, 59, 0
2, 139674, Note_on_c, 0, 68, 0
2, 139675, Note_on_c, 0, 49, 0
2, 139676, Note_on_c, 0, 61, 0
2, 139679, Control_c, 0, 64, 0
2, 139691, Note_on_c, 0, 33, 0
2, 139691, Note_on_c, 0, 52, 0
2, 139699, Note_on_c, 0, 64, 0
2, 139706, Note_on_c, 0, 45, 0
2, 139722, Note_on_c, 0, 66, 0
2, 139726, Note_on_c, 0, 66, 101
2, 139726, Note_on_c, 0, 63, 102
2, 139726, Note_on_c, 0, 59, 98
2, 139727, Note_on_c, 0, 47, 107
2, 139727, Note_on_c, 0, 35, 97
2, 139768, Control_c, 0, 64, 127
2, 139845, Note_on_c, 0, 59, 0
2, 139845, Note_on_c, 0, 63, 0
2, 139845, Note_on_c, 0, 66, 0
2, 139849, Note_on_c, 0, 59, 84
2, 139849, Note_on_c, 0, 66, 92
2, 139854, Note_on_c, 0, 63, 86
2, 139983, Note_on_c, 0, 47, 0
2, 139983, Note_on_c, 0, 59, 0
2, 139983, Note_on_c, 0, 63, 0
2, 139983, Note_on_c, 0, 66, 0
2, 139989, Note_on_c, 0, 59, 83
2, 139989, Note_on_c, 0, 66, 96
2, 139992, Note_on_c, 0, 47, 83
2, 139993, Note_on_c, 0, 63, 78
2, 140121, Note_on_c, 0, 59, 0
2, 140121, Note_on_c, 0, 63, 0
2, 140121, Note_on_c, 0, 66, 0
2, 140126, Note_on_c, 0, 66, 92
2, 140126, Note_on_c, 0, 59, 88
2, 140127, Note_on_c, 0, 63, 95
2, 140131, Note_on_c, 0, 54, 93
2, 140132, Note_on_c, 0, 51, 85
2, 140259, Note_on_c, 0, 47, 0
2, 140264, Note_on_c, 0, 47, 96
2, 140390, Note_on_c, 0, 54, 0
2, 140390, Note_on_c, 0, 59, 0
2, 140398, Note_on_c, 0, 51, 0
2, 140398, Note_on_c, 0, 59, 100
2, 140398, Note_on_c, 0, 71, 102
2, 140401, Note_on_c, 0, 54, 100
2, 140405, Note_on_c, 0, 51, 91
2, 140528, Note_on_c, 0, 47, 0
2, 140535, Note_on_c, 0, 47, 97
2, 140636, Note_on_c, 0, 51, 0
2, 140643, Note_on_c, 0, 54, 0
2, 140643, Note_on_c, 0, 59, 0
2, 140645, Note_on_c, 0, 51, 82
2, 140647, Note_on_c, 0, 47, 0
2, 140648, Note_on_c, 0, 54, 80
2, 140648, Note_on_c, 0, 59, 87
2, 140686, Note_on_c, 0, 61, 90
2, 140705, Note_on_c, 0, 63, 0
2, 140710, Note_on_c, 0, 63, 97
2, 140738, Control_c, 0, 64, 0
2, 140739, Note_on_c, 0, 71, 0
2, 140740, Note_on_c, 0, 35, 0
2, 140741, Note_on_c, 0, 66, 0
2, 140741, Note_on_c, 0, 54, 0
2, 140741, Note_on_c, 0, 59, 0
2, 140741, Note_on_c, 0, 51, 0
2, 140742, Note_on_c, 0, 61, 0
2, 140742, Note_on_c, 0, 63, 0
2, 140799, Note_on_c, 0, 64, 103
2, 140801, Note_on_c, 0, 59, 99
2, 140801, Note_on_c, 0, 49, 103
2, 140803, Note_on_c, 0, 37, 101
2, 140851, Control_c, 0, 64, 127
2, 140897, Note_on_c, 0, 49, 0
2, 140908, Note_on_c, 0, 49, 37
2, 141050, Note_on_c, 0, 37, 0
2, 141058, Note_on_c, 0, 49, 0
2, 141058, Note_on_c, 0, 64, 0
2, 141059, Note_on_c, 0, 37, 78
2, 141064, Note_on_c, 0, 49, 84
2, 141066, Note_on_c, 0, 59, 0
2, 141069, Note_on_c, 0, 64, 99
2, 141072, Note_on_c, 0, 59, 89
2, 141204, Note_on_c, 0, 59, 0
2, 141204, Note_on_c, 0, 64, 0
2, 141210, Note_on_c, 0, 59, 98
2, 141210, Note_on_c, 0, 64, 101
2, 141213, Note_on_c, 0, 56, 95
2, 141214, Note_on_c, 0, 52, 93
2, 141342, Note_on_c, 0, 49, 0
2, 141342, Note_on_c, 0, 52, 0
2, 141348, Note_on_c, 0, 52, 77
2, 141351, Note_on_c, 0, 49, 83
2, 141465, Note_on_c, 0, 52, 0
2, 141465, Note_on_c, 0, 56, 0
2, 141465, Note_on_c, 0, 59, 0
2, 141465, Note_on_c, 0, 64, 0
2, 141470, Note_on_c, 0, 64, 104
2, 141471, Note_on_c, 0, 59, 95
2, 141472, Note_on_c, 0, 52, 91
2, 141473, Note_on_c, 0, 56, 85
2, 141596, Note_on_c, 0, 49, 0
2, 141604, Note_on_c, 0, 49, 79
2, 141703, Note_on_c, 0, 52, 0
2, 141711, Note_on_c, 0, 56, 0
2, 141712, Note_on_c, 0, 52, 85
2, 141720, Note_on_c, 0, 56, 81
2, 141726, Note_on_c, 0, 64, 0
2, 141734, Note_on_c, 0, 64, 101
2, 141799, Control_c, 0, 64, 0
2, 141800, Note_on_c, 0, 37, 0
2, 141801, Note_on_c, 0, 49, 0
2, 141803, Note_on_c, 0, 59, 0
2, 141805, Note_on_c, 0, 64, 0
2, 141826, Note_on_c, 0, 52, 0
2, 141826, Note_on_c, 0, 56, 0
2, 141858, Note_on_c, 0, 40, 98
2, 141859, Note_on_c, 0, 59, 96
2, 141860, Note_on_c, 0, 63, 99
2, 141895, Control_c, 0, 64, 127
2, 141980, Note_on_c, 0, 63, 0
2, 141985, Note_on_c, 0, 63, 95
2, 142118, Note_on_c, 0, 59, 0
2, 142118, Note_on_c, 0, 63, 0
2, 142122, Note_on_c, 0, 63, 101
2, 142123, Note_on_c, 0, 59, 86
2, 142127, Note_on_c, 0, 52, 90
2, 142248, Note_on_c, 0, 59, 0
2, 142248, Note_on_c, 0, 63, 0
2, 142256, Note_on_c, 0, 59, 92
2, 142258, Note_on_c, 0, 63, 96
2, 142258, Note_on_c, 0, 56, 95
2, 142394, Note_on_c, 0, 52, 0
2, 142400, Note_on_c, 0, 52, 91
2, 142511, Note_on_c, 0, 68, 110
2, 142525, Note_on_c, 0, 56, 0
2, 142525, Note_on_c, 0, 59, 0
2, 142531, Note_on_c, 0, 64, 73
2, 142534, Note_on_c, 0, 59, 88
2, 142535, Note_on_c, 0, 56, 90
2, 142648, Note_on_c, 0, 52, 0
2, 142657, Note_on_c, 0, 52, 92
2, 142778, Note_on_c, 0, 68, 0
2, 142783, Note_on_c, 0, 68, 103
2, 142859, Control_c, 0, 64, 0
2, 142859, Note_on_c, 0, 40, 0
2, 142859, Note_on_c, 0, 63, 0
2, 142859, Note_on_c, 0, 52, 0
2, 142860, Note_on_c, 0, 59, 0
2, 142860, Note_on_c, 0, 68, 0
2, 142861, Note_on_c, 0, 56, 0
2, 142871, Note_on_c, 0, 64, 0
2, 142920, Note_on_c, 0, 69, 109
2, 142922, Note_on_c, 0, 61, 100
2, 142922, Note_on_c, 0, 64, 97
2, 142925, Note_on_c, 0, 45, 107
2, 142926, Note_on_c, 0, 33, 98
2, 143001, Control_c, 0, 64, 127
2, 143185, Note_on_c, 0, 33, 0
2, 143189, Note_on_c, 0, 33, 80
2, 143193, Note_on_c, 0, 68, 102
2, 143308, Note_on_c, 0, 64, 0
2, 143316, Note_on_c, 0, 33, 0
2, 143319, Note_on_c, 0, 64, 106
2, 143320, Note_on_c, 0, 40, 91
2, 143323, Note_on_c, 0, 33, 80
2, 143451, Note_on_c, 0, 47, 104
2, 143577, Note_on_c, 0, 33, 0
2, 143577, Note_on_c, 0, 40, 0
2, 143584, Note_on_c, 0, 33, 85
2, 143585, Note_on_c, 0, 61, 0
2, 143587, Note_on_c, 0, 40, 84
2, 143591, Note_on_c, 0, 61, 102
2, 143700, Note_on_c, 0, 40, 0
2, 143706, Note_on_c, 0, 40, 88
2, 143838, Note_on_c, 0, 33, 0
2, 143838, Note_on_c, 0, 64, 0
2, 143843, Note_on_c, 0, 33, 81
2, 143847, Note_on_c, 0, 64, 107
2, 143877, Note_on_c, 0, 61, 0
2, 143881, Note_on_c, 0, 61, 46
2, 143988, Note_on_c, 0, 49, 101
2, 144107, Note_on_c, 0, 33, 0
2, 144118, Note_on_c, 0, 33, 79
2, 144261, Note_on_c, 0, 40, 0
2, 144265, Note_on_c, 0, 40, 73
2, 144368, Note_on_c, 0, 33, 0
2, 144374, Note_on_c, 0, 33, 88
2, 144507, Note_on_c, 0, 51, 101
2, 144637, Note_on_c, 0, 33, 0
2, 144643, Note_on_c, 0, 33, 88
2, 144775, Note_on_c, 0, 40, 0
2, 144775, Note_on_c, 0, 68, 0
2, 144780, Note_on_c, 0, 68, 108
2, 144785, Note_on_c, 0, 40, 91
2, 144890, Note_on_c, 0, 33, 0
2, 144901, Note_on_c, 0, 33, 89
2, 145006, Control_c, 0, 64, 0
2, 145019, Note_on_c, 0, 33, 0
2, 145021, Note_on_c, 0, 40, 0
2, 145021, Note_on_c, 0, 49, 0
2, 145024, Note_on_c, 0, 51, 0
2, 145024, Note_on_c, 0, 45, 0
2, 145026, Note_on_c, 0, 68, 0
2, 145026, Note_on_c, 0, 47, 0
2, 145029, Note_on_c, 0, 64, 0
2, 145029, Note_on_c, 0, 69, 0
2, 145036, Note_on_c, 0, 61, 0
2, 145037, Note_on_c, 0, 69, 109
2, 145037, Note_on_c, 0, 64, 109
2, 145040, Note_on_c, 0, 61, 101
2, 145040, Note_on_c, 0, 52, 105
2, 145121, Control_c, 0, 64, 127
2, 145180, Note_on_c, 0, 33, 90
2, 145300, Note_on_c, 0, 40, 90
2, 145309, Note_on_c, 0, 68, 106
2, 145420, Note_on_c, 0, 33, 0
2, 145428, Note_on_c, 0, 64, 0
2, 145432, Note_on_c, 0, 33, 87
2, 145434, Note_on_c, 0, 64, 104
2, 145551, Note_on_c, 0, 33, 0
2, 145554, Note_on_c, 0, 54, 107
2, 145560, Note_on_c, 0, 33, 76
2, 145681, Note_on_c, 0, 61, 0
2, 145689, Note_on_c, 0, 33, 0
2, 145693, Note_on_c, 0, 61, 101
2, 145700, Note_on_c, 0, 33, 88
2, 145797, Note_on_c, 0, 40, 0
2, 145802, Note_on_c, 0, 40, 88
2, 145943, Note_on_c, 0, 33, 0
2, 145950, Note_on_c, 0, 64, 0
2, 145953, Note_on_c, 0, 33, 86
2, 145961, Note_on_c, 0, 64, 110
2, 146076, Note_on_c, 0, 56, 108
2, 146204, Note_on_c, 0, 33, 0
2, 146210, Note_on_c, 0, 33, 81
2, 146319, Note_on_c, 0, 40, 0
2, 146330, Note_on_c, 0, 40, 80
2, 146345, Note_on_c, 0, 73, 109
2, 146457, Note_on_c, 0, 33, 0
2, 146468, Note_on_c, 0, 33, 92
2, 146609, Note_on_c, 0, 57, 108
2, 146610, Note_on_c, 0, 71, 107
2, 146726, Note_on_c, 0, 33, 0
2, 146731, Note_on_c, 0, 33, 88
2, 146849, Note_on_c, 0, 40, 0
2, 146856, Note_on_c, 0, 40, 92
2, 146872, Note_on_c, 0, 68, 0
2, 146876, Note_on_c, 0, 68, 106
2, 146944, Control_c, 0, 64, 0
2, 146947, Note_on_c, 0, 69, 0
2, 146947, Note_on_c, 0, 68, 0
2, 146947, Note_on_c, 0, 40, 0
2, 146948, Note_on_c, 0, 71, 0
2, 146948, Note_on_c, 0, 33, 0
2, 146949, Note_on_c, 0, 56, 0
2, 146950, Note_on_c, 0, 64, 0
2, 146950, Note_on_c, 0, 61, 0
2, 146951, Note_on_c, 0, 52, 0
2, 146951, Note_on_c, 0, 54, 0
2, 146951, Note_on_c, 0, 73, 0
2, 146972, Note_on_c, 0, 57, 0
2, 147014, Note_on_c, 0, 71, 108
2, 147016, Note_on_c, 0, 47, 109
2, 147017, Note_on_c, 0, 66, 103
2, 147020, Note_on_c, 0, 64, 103
2, 147021, Note_on_c, 0, 35, 99
2, 147118, Control_c, 0, 64, 127
2, 147256, Note_on_c, 0, 35, 0
2, 147263, Note_on_c, 0, 35, 84
2, 147415, Note_on_c, 0, 52, 90
2, 147463, Note_on_c, 0, 64, 0
2, 147469, Note_on_c, 0, 64, 89
2, 147530, Note_on_c, 0, 51, 89
2, 147582, Note_on_c, 0, 63, 92
2, 147648, Note_on_c, 0, 47, 0
2, 147658, Note_on_c, 0, 47, 93
2, 147721, Note_on_c, 0, 59, 90
2, 147798, Note_on_c, 0, 54, 97
2, 147847, Note_on_c, 0, 66, 0
2, 147852, Note_on_c, 0, 66, 100
2, 147924, Note_on_c, 0, 52, 0
2, 147933, Note_on_c, 0, 52, 88
2, 147985, Note_on_c, 0, 64, 0
2, 147992, Note_on_c, 0, 64, 96
2, 148047, Note_on_c, 0, 47, 0
2, 148058, Note_on_c, 0, 47, 98
2, 148108, Note_on_c, 0, 52, 0
2, 148108, Note_on_c, 0, 59, 0
2, 148113, Note_on_c, 0, 59, 87
2, 148115, Note_on_c, 0, 52, 83
2, 148190, Note_on_c, 0, 56, 100
2, 148240, Note_on_c, 0, 68, 100
2, 148316, Note_on_c, 0, 54, 0
2, 148322, Note_on_c, 0, 54, 99
2, 148377, Note_on_c, 0, 66, 0
2, 148385, Note_on_c, 0, 66, 94
2, 148446, Note_on_c, 0, 47, 0
2, 148458, Note_on_c, 0, 47, 103
2, 148523, Note_on_c, 0, 59, 0
2, 148528, Note_on_c, 0, 59, 94
2, 148588, Note_on_c, 0, 57, 102
2, 148644, Note_on_c, 0, 69, 102
2, 148707, Note_on_c, 0, 56, 0
2, 148712, Note_on_c, 0, 56, 90
2, 148753, Note_on_c, 0, 68, 0
2, 148765, Note_on_c, 0, 68, 104
2, 148846, Note_on_c, 0, 59, 0
2, 148853, Note_on_c, 0, 47, 0
2, 148856, Note_on_c, 0, 59, 88
2, 148858, Note_on_c, 0, 47, 95
2, 148915, Note_on_c, 0, 59, 0
2, 148921, Note_on_c, 0, 59, 92
2, 148999, Note_on_c, 0, 54, 0
2, 149007, Note_on_c, 0, 66, 0
2, 149010, Note_on_c, 0, 54, 102
2, 149013, Note_on_c, 0, 66, 104
2, 149035, Control_c, 0, 64, 0
2, 149057, Note_on_c, 0, 69, 0
2, 149057, Note_on_c, 0, 63, 0
2, 149057, Note_on_c, 0, 59, 0
2, 149057, Note_on_c, 0, 52, 0
2, 149057, Note_on_c, 0, 71, 0
2, 149057, Note_on_c, 0, 57, 0
2, 149058, Note_on_c, 0, 51, 0
2, 149058, Note_on_c, 0, 64, 0
2, 149059, Note_on_c, 0, 56, 0
2, 149076, Note_on_c, 0, 35, 0
2, 149084, Note_on_c, 0, 68, 0
2, 149147, Note_on_c, 0, 59, 108
2, 149147, Note_on_c, 0, 71, 104
2, 149176, Control_c, 0, 64, 127
2, 149391, Note_on_c, 0, 59, 0
2, 149399, Note_on_c, 0, 59, 78
2, 149481, Note_on_c, 0, 61, 85
2, 149514, Note_on_c, 0, 47, 0
2, 149524, Note_on_c, 0, 47, 70
2, 149541, Note_on_c, 0, 63, 89
2, 149608, Note_on_c, 0, 64, 86
2, 149660, Note_on_c, 0, 66, 0
2, 149671, Note_on_c, 0, 66, 87
2, 149736, Note_on_c, 0, 68, 89
2, 149783, Note_on_c, 0, 54, 0
2, 149783, Note_on_c, 0, 59, 0
2, 149792, Note_on_c, 0, 59, 86
2, 149793, Note_on_c, 0, 54, 79
2, 149795, Note_on_c, 0, 69, 93
2, 149859, Note_on_c, 0, 71, 0
2, 149864, Note_on_c, 0, 71, 88
2, 149919, Note_on_c, 0, 73, 86
2, 149972, Note_on_c, 0, 75, 88
2, 150031, Note_on_c, 0, 76, 97
2, 150099, Note_on_c, 0, 78, 91
2, 150160, Note_on_c, 0, 80, 87
2, 150221, Note_on_c, 0, 81, 91
2, 150312, Note_on_c, 0, 71, 0
2, 150322, Note_on_c, 0, 71, 86
2, 150323, Note_on_c, 0, 83, 94
2, 150942, Note_on_c, 0, 47, 0
2, 150953, Note_on_c, 0, 47, 64
2, 151511, Note_on_c, 0, 68, 0
2, 151516, Note_on_c, 0, 68, 60
2, 151534, Note_on_c, 0, 76, 0
2, 151537, Note_on_c, 0, 76, 62
2, 151564, Note_on_c, 0, 83, 0
2, 151566, Control_c, 0, 64, 0
2, 151567, Note_on_c, 0, 47, 0
2, 151567, Note_on_c, 0, 73, 0
2, 151568, Note_on_c, 0, 75, 0
2, 151568, Note_on_c, 0, 80, 0
2, 151568, Note_on_c, 0, 71, 0
2, 151568, Note_on_c, 0, 63, 0
2, 151568, Note_on_c, 0, 61, 0
2, 151569, Note_on_c, 0, 69, 0
2, 151569, Note_on_c, 0, 54, 0
2, 151569, Note_on_c, 0, 66, 0
2, 151569, Note_on_c, 0, 83, 90
2, 151570, Note_on_c, 0, 78, 0
2, 151571, Note_on_c, 0, 81, 0
2, 151580, Note_on_c, 0, 64, 0
2, 151587, Note_on_c, 0, 59, 0
2, 151590, Note_on_c, 0, 52, 54
2, 151591, Note_on_c, 0, 64, 60
2, 151592, Note_on_c, 0, 59, 44
2, 151749, Control_c, 0, 64, 127
2, 151856, Note_on_c, 0, 83, 0
2, 151861, Note_on_c, 0, 83, 82
2, 151987, Note_on_c, 0, 83, 0
2, 151996, Note_on_c, 0, 83, 92
2, 152258, Note_on_c, 0, 81, 90
2, 152396, Note_on_c, 0, 80, 82
2, 152521, Note_on_c, 0, 78, 86
2, 152527, Note_on_c, 0, 69, 66
2, 152536, Note_on_c, 0, 73, 78
2, 152639, Note_on_c, 0, 83, 0
2, 152641, Note_on_c, 0, 80, 0
2, 152643, Note_on_c, 0, 59, 0
2, 152643, Note_on_c, 0, 64, 0
2, 152644, Note_on_c, 0, 52, 0
2, 152647, Note_on_c, 0, 76, 0
2, 152660, Note_on_c, 0, 61, 66
2, 152663, Note_on_c, 0, 68, 0
2, 152664, Note_on_c, 0, 51, 64
2, 152665, Note_on_c, 0, 57, 65
2, 152790, Note_on_c, 0, 80, 90
2, 152916, Note_on_c, 0, 81, 0
2, 152926, Note_on_c, 0, 81, 81
2, 153047, Note_on_c, 0, 80, 0
2, 153055, Note_on_c, 0, 80, 91
2, 153112, Control_c, 0, 64, 0
2, 153112, Note_on_c, 0, 78, 0
2, 153112, Note_on_c, 0, 81, 0
2, 153113, Note_on_c, 0, 57, 0
2, 153113, Note_on_c, 0, 51, 0
2, 153114, Note_on_c, 0, 61, 0
2, 153114, Note_on_c, 0, 44, 76
2, 153115, Note_on_c, 0, 73, 0
2, 153116, Note_on_c, 0, 69, 0
2, 153166, Note_on_c, 0, 51, 58
2, 153177, Control_c, 0, 64, 127
2, 153196, Note_on_c, 0, 60, 91
2, 153473, Note_on_c, 0, 75, 89
2, 153742, Note_on_c, 0, 76, 89
2, 153744, Note_on_c, 0, 56, 63
2, 153747, Note_on_c, 0, 68, 77
2, 153754, Note_on_c, 0, 71, 67
2, 153757, Note_on_c, 0, 49, 65
2, 153763, Control_c, 0, 64, 0
2, 153765, Note_on_c, 0, 60, 0
2, 153766, Note_on_c, 0, 75, 0
2, 153766, Note_on_c, 0, 51, 0
2, 153766, Note_on_c, 0, 64, 64
2, 153766, Note_on_c, 0, 44, 0
2, 153776, Note_on_c, 0, 80, 0
2, 154037, Note_on_c, 0, 75, 82
2, 154160, Note_on_c, 0, 76, 0
2, 154170, Note_on_c, 0, 76, 87
2, 154183, Control_c, 0, 64, 127
2, 154454, Note_on_c, 0, 78, 95
2, 154744, Note_on_c, 0, 68, 0
2, 154746, Note_on_c, 0, 80, 85
2, 154749, Note_on_c, 0, 68, 74
2, 154750, Note_on_c, 0, 74, 74
2, 154825, Control_c, 0, 64, 0
2, 154878, Note_on_c, 0, 47, 61
2, 154879, Note_on_c, 0, 57, 66
2, 154944, Note_on_c, 0, 71, 0
2, 154951, Note_on_c, 0, 75, 0
2, 154955, Note_on_c, 0, 49, 0
2, 154959, Note_on_c, 0, 64, 0
2, 154967, Note_on_c, 0, 56, 0
2, 154967, Note_on_c, 0, 76, 0
2, 154974, Control_c, 0, 64, 127
2, 155160, Note_on_c, 0, 76, 84
2, 155182, Note_on_c, 0, 78, 0
2, 155377, Note_on_c, 0, 74, 0
2, 155377, Note_on_c, 0, 68, 0
2, 155379, Control_c, 0, 64, 0
2, 155383, Note_on_c, 0, 57, 0
2, 155384, Note_on_c, 0, 47, 0
2, 155420, Note_on_c, 0, 80, 0
2, 155424, Note_on_c, 0, 80, 81
2, 155431, Note_on_c, 0, 68, 75
2, 155431, Note_on_c, 0, 52, 54
2, 155435, Note_on_c, 0, 62, 65
2, 155438, Note_on_c, 0, 59, 64
2, 155573, Control_c, 0, 64, 127
2, 155713, Note_on_c, 0, 83, 85
2, 155922, Note_on_c, 0, 73, 74
2, 155950, Note_on_c, 0, 76, 0
2, 155959, Note_on_c, 0, 76, 68
2, 155973, Note_on_c, 0, 80, 0
2, 155984, Note_on_c, 0, 80, 73
2, 156023, Note_on_c, 0, 85, 94
2, 156030, Note_on_c, 0, 57, 71
2, 156038, Control_c, 0, 64, 0
2, 156045, Note_on_c, 0, 62, 0
2, 156045, Note_on_c, 0, 68, 0
2, 156045, Note_on_c, 0, 83, 0
2, 156046, Note_on_c, 0, 52, 0
2, 156046, Note_on_c, 0, 59, 0
2, 156272, Control_c, 0, 64, 127
2, 156310, Note_on_c, 0, 64, 65
2, 156600, Note_on_c, 0, 71, 74
2, 156871, Note_on_c, 0, 73, 0
2, 156876, Note_on_c, 0, 73, 79
2, 157009, Note_on_c, 0, 85, 0
2, 157013, Note_on_c, 0, 85, 92
2, 157155, Note_on_c, 0, 57, 0
2, 157155, Note_on_c, 0, 85, 0
2, 157161, Note_on_c, 0, 85, 89
2, 157164, Note_on_c, 0, 57, 73
2, 157165, Control_c, 0, 64, 0
2, 157165, Note_on_c, 0, 81, 87
2, 157248, Note_on_c, 0, 80, 0
2, 157255, Control_c, 0, 64, 127
2, 157355, Note_on_c, 0, 76, 0
2, 157362, Note_on_c, 0, 87, 98
2, 157366, Note_on_c, 0, 83, 71
2, 157468, Note_on_c, 0, 63, 74
2, 157524, Note_on_c, 0, 83, 0
2, 157524, Note_on_c, 0, 87, 0
2, 157534, Note_on_c, 0, 83, 94
2, 157535, Note_on_c, 0, 87, 99
2, 157708, Note_on_c, 0, 87, 0
2, 157713, Note_on_c, 0, 87, 99
2, 157716, Note_on_c, 0, 83, 0
2, 157722, Control_c, 0, 64, 0
2, 157722, Note_on_c, 0, 83, 89
2, 157736, Note_on_c, 0, 66, 81
2, 157777, Control_c, 0, 64, 127
2, 157906, Note_on_c, 0, 88, 104
2, 157908, Note_on_c, 0, 85, 0
2, 157912, Note_on_c, 0, 85, 94
2, 157977, Note_on_c, 0, 71, 0
2, 157987, Note_on_c, 0, 71, 79
2, 158087, Note_on_c, 0, 90, 107
2, 158238, Note_on_c, 0, 71, 0
2, 158242, Note_on_c, 0, 71, 63
2, 158267, Note_on_c, 0, 75, 71
2, 158284, Note_on_c, 0, 78, 84
2, 158284, Note_on_c, 0, 83, 0
2, 158290, Note_on_c, 0, 83, 98
2, 158295, Note_on_c, 0, 56, 79
2, 158335, Control_c, 0, 64, 0
2, 158338, Note_on_c, 0, 73, 0
2, 158342, Note_on_c, 0, 57, 0
2, 158343, Note_on_c, 0, 87, 0
2, 158344, Note_on_c, 0, 66, 0
2, 158344, Note_on_c, 0, 85, 0
2, 158344, Note_on_c, 0, 90, 0
2, 158345, Note_on_c, 0, 88, 0
2, 158346, Note_on_c, 0, 81, 0
2, 158353, Note_on_c, 0, 64, 0
2, 158545, Note_on_c, 0, 63, 0
2, 158551, Note_on_c, 0, 63, 63
2, 158676, Control_c, 0, 64, 127
2, 158722, Control_c, 0, 64, 0
2, 158807, Control_c, 0, 64, 127
2, 158844, Note_on_c, 0, 66, 73
2, 159137, Note_on_c, 0, 71, 0
2, 159141, Note_on_c, 0, 71, 75
2, 159405, Note_on_c, 0, 74, 90
2, 159411, Note_on_c, 0, 61, 66
2, 159421, Control_c, 0, 64, 0
2, 159447, Note_on_c, 0, 56, 0
2, 159447, Note_on_c, 0, 63, 0
2, 159448, Note_on_c, 0, 71, 0
2, 159467, Note_on_c, 0, 78, 0
2, 159475, Note_on_c, 0, 75, 0
2, 159490, Note_on_c, 0, 83, 0
2, 159605, Control_c, 0, 64, 127
2, 159701, Note_on_c, 0, 65, 58
2, 159859, Note_on_c, 0, 65, 0
2, 159862, Note_on_c, 0, 73, 62
2, 159870, Note_on_c, 0, 65, 38
2, 159905, Note_on_c, 0, 74, 0
2, 159911, Note_on_c, 0, 74, 78
2, 159974, Note_on_c, 0, 73, 0
2, 159980, Note_on_c, 0, 73, 81
2, 159985, Note_on_c, 0, 68, 72
2, 160258, Note_on_c, 0, 61, 0
2, 160266, Note_on_c, 0, 61, 64
2, 160432, Note_on_c, 0, 69, 66
2, 160458, Note_on_c, 0, 73, 0
2, 160469, Note_on_c, 0, 73, 69
2, 160499, Note_on_c, 0, 76, 67
2, 160550, Control_c, 0, 64, 0
2, 160553, Note_on_c, 0, 81, 96
2, 160562, Note_on_c, 0, 54, 71
2, 160581, Note_on_c, 0, 74, 0
2, 160586, Note_on_c, 0, 65, 0
2, 160590, Note_on_c, 0, 68, 0
2, 160591, Note_on_c, 0, 73, 0
2, 160593, Note_on_c, 0, 61, 0
2, 160750, Control_c, 0, 64, 127
2, 160844, Note_on_c, 0, 80, 84
2, 160978, Note_on_c, 0, 78, 84
2, 161011, Note_on_c, 0, 76, 0
2, 161095, Note_on_c, 0, 69, 0
2, 161105, Note_on_c, 0, 69, 72
2, 161117, Note_on_c, 0, 64, 57
2, 161118, Note_on_c, 0, 61, 56
2, 161129, Control_c, 0, 64, 0
2, 161149, Note_on_c, 0, 66, 0
2, 161210, Control_c, 0, 64, 127
2, 161255, Note_on_c, 0, 76, 86
2, 161531, Note_on_c, 0, 75, 83
2, 161534, Note_on_c, 0, 73, 78
2, 161653, Control_c, 0, 64, 0
2, 161676, Note_on_c, 0, 68, 64
2, 161677, Note_on_c, 0, 56, 57
2, 161679, Note_on_c, 0, 61, 0
2, 161684, Note_on_c, 0, 80, 0
2, 161684, Note_on_c, 0, 54, 0
2, 161685, Note_on_c, 0, 78, 0
2, 161686, Note_on_c, 0, 63, 57
2, 161686, Note_on_c, 0, 64, 0
2, 161686, Note_on_c, 0, 69, 0
2, 161688, Note_on_c, 0, 61, 54
2, 161688, Note_on_c, 0, 81, 0
2, 161689, Note_on_c, 0, 76, 0
2, 161809, Note_on_c, 0, 75, 0
2, 161815, Note_on_c, 0, 75, 83
2, 162040, Note_on_c, 0, 73, 0
2, 162102, Note_on_c, 0, 76, 88
2, 162240, Note_on_c, 0, 75, 0
2, 162257, Note_on_c, 0, 60, 58
2, 162258, Note_on_c, 0, 72, 60
2, 162316, Control_c, 0, 64, 127
2, 162389, Note_on_c, 0, 78, 81
2, 162636, Note_on_c, 0, 71, 68
2, 162685, Note_on_c, 0, 76, 0
2, 162695, Note_on_c, 0, 76, 76
2, 162777, Note_on_c, 0, 68, 0
2, 162779, Control_c, 0, 64, 0
2, 162782, Note_on_c, 0, 83, 91
2, 162785, Note_on_c, 0, 61, 0
2, 162787, Note_on_c, 0, 68, 68
2, 162793, Note_on_c, 0, 61, 62
2, 162796, Note_on_c, 0, 64, 60
2, 162800, Note_on_c, 0, 72, 0
2, 162821, Note_on_c, 0, 78, 0
2, 162823, Note_on_c, 0, 56, 0
2, 162826, Note_on_c, 0, 60, 0
2, 162828, Note_on_c, 0, 63, 0
2, 162831, Note_on_c, 0, 76, 0
2, 162931, Control_c, 0, 64, 127
2, 163069, Note_on_c, 0, 83, 0
2, 163077, Note_on_c, 0, 83, 88
2, 163261, Note_on_c, 0, 71, 0
2, 163266, Note_on_c, 0, 71, 66
2, 163302, Note_on_c, 0, 76, 52
2, 163340, Note_on_c, 0, 82, 97
2, 163361, Note_on_c, 0, 68, 0
2, 163367, Note_on_c, 0, 68, 70
2, 163376, Note_on_c, 0, 64, 0
2, 163378, Note_on_c, 0, 60, 66
2, 163382, Note_on_c, 0, 64, 50
2, 163384, Note_on_c, 0, 83, 0
2, 163394, Note_on_c, 0, 83, 94
2, 163405, Note_on_c, 0, 61, 0
2, 163409, Note_on_c, 0, 76, 0
2, 163411, Control_c, 0, 64, 0
2, 163438, Note_on_c, 0, 82, 0
2, 163491, Control_c, 0, 64, 127
2, 163605, Note_on_c, 0, 81, 99
2, 163785, Note_on_c, 0, 80, 94
2, 163960, Note_on_c, 0, 64, 0
2, 163960, Note_on_c, 0, 68, 0
2, 163965, Note_on_c, 0, 59, 71
2, 163965, Note_on_c, 0, 64, 61
2, 163968, Note_on_c, 0, 68, 75
2, 163969, Note_on_c, 0, 76, 89
2, 163995, Control_c, 0, 64, 0
2, 163995, Note_on_c, 0, 60, 0
2, 164001, Note_on_c, 0, 81, 0
2, 164006, Note_on_c, 0, 83, 0
2, 164014, Note_on_c, 0, 71, 0
2, 164052, Control_c, 0, 64, 127
2, 164562, Note_on_c, 0, 58, 70
2, 164567, Note_on_c, 0, 64, 0
2, 164567, Note_on_c, 0, 68, 0
2, 164578, Note_on_c, 0, 64, 52
2, 164578, Note_on_c, 0, 68, 63
2, 164600, Control_c, 0, 64, 0
2, 164605, Note_on_c, 0, 59, 0
2, 164682, Control_c, 0, 64, 127
2, 165158, Note_on_c, 0, 64, 0
2, 165164, Note_on_c, 0, 61, 51
2, 165166, Note_on_c, 0, 57, 63
2, 165168, Note_on_c, 0, 64, 53
2, 165193, Control_c, 0, 64, 0
2, 165195, Note_on_c, 0, 58, 0
2, 165204, Note_on_c, 0, 80, 0
2, 165235, Note_on_c, 0, 68, 0
2, 165342, Note_on_c, 0, 76, 0
2, 165452, Note_on_c, 0, 76, 65
2, 165732, Note_on_c, 0, 73, 76
2, 165772, Note_on_c, 0, 76, 0
2, 165852, Note_on_c, 0, 73, 0
2, 165867, Note_on_c, 0, 75, 72
2, 166165, Note_on_c, 0, 76, 79
2, 166202, Note_on_c, 0, 75, 0
2, 166594, Note_on_c, 0, 64, 0
2, 166603, Note_on_c, 0, 64, 72
2, 166863, Note_on_c, 0, 61, 0
2, 166874, Note_on_c, 0, 61, 71
2, 166901, Control_c, 0, 64, 127
2, 167014, Note_on_c, 0, 63, 66
2, 167147, Note_on_c, 0, 57, 0
2, 167152, Note_on_c, 0, 57, 65
2, 167278, Note_on_c, 0, 64, 0
2, 167287, Note_on_c, 0, 64, 78
2, 167318, Control_c, 0, 64, 0
2, 167336, Note_on_c, 0, 57, 0
2, 167343, Note_on_c, 0, 61, 0
2, 167347, Note_on_c, 0, 63, 0
2, 167424, Note_on_c, 0, 58, 70
2, 167429, Note_on_c, 0, 61, 67
2, 167723, Note_on_c, 0, 76, 0
2, 167730, Note_on_c, 0, 76, 85
2, 167995, Note_on_c, 0, 73, 80
2, 168027, Note_on_c, 0, 76, 0
2, 168138, Note_on_c, 0, 75, 80
2, 168158, Note_on_c, 0, 73, 0
2, 168417, Note_on_c, 0, 76, 86
2, 168470, Note_on_c, 0, 75, 0
2, 168583, Control_c, 0, 64, 127
2, 168854, Note_on_c, 0, 73, 87
2, 169136, Note_on_c, 0, 76, 0
2, 169144, Note_on_c, 0, 64, 0
2, 169145, Note_on_c, 0, 76, 90
2, 169146, Note_on_c, 0, 68, 80
2, 169154, Note_on_c, 0, 64, 66
2, 169424, Note_on_c, 0, 78, 102
2, 169697, Note_on_c, 0, 76, 0
2, 169702, Note_on_c, 0, 76, 85
2, 169707, Note_on_c, 0, 80, 91
2, 169708, Note_on_c, 0, 69, 75
2, 169712, Note_on_c, 0, 73, 0
2, 169718, Note_on_c, 0, 73, 74
2, 169724, Note_on_c, 0, 59, 65
2, 169754, Note_on_c, 0, 58, 0
2, 169754, Note_on_c, 0, 64, 0
2, 169755, Note_on_c, 0, 68, 0
2, 169756, Note_on_c, 0, 61, 0
2, 169756, Note_on_c, 0, 78, 0
2, 169768, Control_c, 0, 64, 0
2, 169989, Control_c, 0, 64, 127
2, 170016, Note_on_c, 0, 64, 62
2, 170280, Note_on_c, 0, 69, 0
2, 170290, Note_on_c, 0, 69, 77
2, 170580, Note_on_c, 0, 64, 0
2, 170586, Note_on_c, 0, 64, 63
2, 170864, Note_on_c, 0, 73, 0
2, 170872, Note_on_c, 0, 73, 82
2, 171156, Note_on_c, 0, 69, 0
2, 171162, Note_on_c, 0, 69, 56
2, 171417, Note_on_c, 0, 76, 0
2, 171428, Note_on_c, 0, 76, 76
2, 171585, Note_on_c, 0, 81, 84
2, 171709, Note_on_c, 0, 80, 0
2, 171719, Note_on_c, 0, 80, 86
2, 171861, Note_on_c, 0, 78, 83
2, 171866, Note_on_c, 0, 75, 75
2, 172001, Note_on_c, 0, 59, 0
2, 172005, Note_on_c, 0, 59, 58
2, 172006, Note_on_c, 0, 69, 0
2, 172007, Note_on_c, 0, 66, 48
2, 172039, Note_on_c, 0, 64, 0
2, 172039, Note_on_c, 0, 76, 0
2, 172044, Control_c, 0, 64, 0
2, 172055, Note_on_c, 0, 81, 0
2, 172224, Note_on_c, 0, 80, 0
2, 172224, Control_c, 0, 64, 127
2, 172254, Note_on_c, 0, 73, 0
2, 172621, Note_on_c, 0, 83, 46
2, 172758, Note_on_c, 0, 71, 42
2, 172892, Note_on_c, 0, 78, 0
2, 172896, Note_on_c, 0, 78, 40
2, 173022, Note_on_c, 0, 83, 0
2, 173034, Note_on_c, 0, 83, 58
2, 173160, Note_on_c, 0, 71, 0
2, 173169, Note_on_c, 0, 71, 43
2, 173306, Note_on_c, 0, 78, 0
2, 173312, Note_on_c, 0, 78, 45
2, 173429, Note_on_c, 0, 83, 0
2, 173438, Note_on_c, 0, 83, 62
2, 173560, Note_on_c, 0, 71, 0
2, 173564, Note_on_c, 0, 71, 51
2, 173706, Note_on_c, 0, 78, 0
2, 173715, Note_on_c, 0, 78, 61
2, 173844, Note_on_c, 0, 83, 0
2, 173852, Note_on_c, 0, 83, 71
2, 173975, Note_on_c, 0, 71, 0
2, 173979, Note_on_c, 0, 71, 62
2, 174113, Note_on_c, 0, 78, 0
2, 174119, Note_on_c, 0, 78, 58
2, 174251, Note_on_c, 0, 83, 0
2, 174257, Note_on_c, 0, 83, 74
2, 174374, Note_on_c, 0, 71, 0
2, 174379, Note_on_c, 0, 71, 62
2, 174520, Note_on_c, 0, 78, 0
2, 174524, Note_on_c, 0, 78, 72
2, 174543, Note_on_c, 0, 59, 0
2, 174547, Note_on_c, 0, 59, 34
2, 174650, Note_on_c, 0, 83, 0
2, 174660, Note_on_c, 0, 83, 78
2, 174720, Note_on_c, 0, 66, 0
2, 174720, Note_on_c, 0, 75, 0
2, 174773, Note_on_c, 0, 71, 0
2, 174778, Note_on_c, 0, 71, 73
2, 174904, Note_on_c, 0, 78, 0
2, 174913, Note_on_c, 0, 78, 90
2, 174957, Control_c, 0, 64, 0
2, 174988, Control_c, 0, 64, 127
2, 175042, Note_on_c, 0, 83, 0
2, 175046, Note_on_c, 0, 83, 89
2, 175065, Note_on_c, 0, 59, 0
2, 175165, Note_on_c, 0, 71, 0
2, 175175, Note_on_c, 0, 71, 87
2, 175215, Control_c, 0, 64, 0
2, 175249, Control_c, 0, 64, 127
2, 175288, Note_on_c, 0, 78, 0
2, 175299, Note_on_c, 0, 78, 100
2, 175426, Note_on_c, 0, 83, 0
2, 175431, Note_on_c, 0, 83, 98
2, 175541, Note_on_c, 0, 71, 0
2, 175550, Note_on_c, 0, 71, 95
2, 175672, Note_on_c, 0, 78, 0
2, 175682, Note_on_c, 0, 78, 103
2, 175810, Note_on_c, 0, 83, 0
2, 175820, Note_on_c, 0, 83, 100
2, 175925, Note_on_c, 0, 71, 0
2, 175933, Note_on_c, 0, 71, 98
2, 175945, Control_c, 0, 64, 0
2, 175987, Control_c, 0, 64, 127
2, 176064, Note_on_c, 0, 78, 0
2, 176072, Note_on_c, 0, 78, 105
2, 176194, Note_on_c, 0, 83, 0
2, 176198, Note_on_c, 0, 83, 99
2, 176332, Note_on_c, 0, 71, 0
2, 176332, Note_on_c, 0, 83, 0
2, 176336, Note_on_c, 0, 68, 108
2, 176339, Note_on_c, 0, 71, 102
2, 176340, Note_on_c, 0, 64, 99
2, 176344, Note_on_c, 0, 83, 98
2, 176349, Control_c, 0, 64, 0
2, 176354, Note_on_c, 0, 78, 0
2, 176475, Note_on_c, 0, 76, 87
2, 176593, Note_on_c, 0, 71, 0
2, 176602, Note_on_c, 0, 71, 98
2, 176606, Note_on_c, 0, 78, 93
2, 176620, Note_on_c, 0, 76, 0
2, 176624, Note_on_c, 0, 64, 0
2, 176624, Note_on_c, 0, 83, 0
2, 176632, Note_on_c, 0, 68, 0
2, 176663, Note_on_c, 0, 71, 0
2, 176732, Note_on_c, 0, 71, 104
2, 176735, Note_on_c, 0, 83, 98
2, 176778, Note_on_c, 0, 78, 0
2, 176862, Control_c, 0, 64, 127
2, 176875, Note_on_c, 0, 76, 94
2, 176994, Note_on_c, 0, 78, 95
2, 176997, Note_on_c, 0, 69, 99
2, 177034, Control_c, 0, 64, 0
2, 177054, Control_c, 0, 64, 127
2, 177116, Note_on_c, 0, 83, 0
2, 177127, Note_on_c, 0, 83, 94
2, 177127, Note_on_c, 0, 68, 102
2, 177131, Note_on_c, 0, 71, 0
2, 177134, Note_on_c, 0, 78, 0
2, 177135, Note_on_c, 0, 69, 0
2, 177208, Note_on_c, 0, 76, 0
2, 177213, Note_on_c, 0, 68, 0
2, 177216, Control_c, 0, 64, 0
2, 177251, Note_on_c, 0, 66, 104
2, 177253, Note_on_c, 0, 63, 102
2, 177257, Note_on_c, 0, 75, 93
2, 177300, Control_c, 0, 64, 127
2, 177398, Note_on_c, 0, 78, 95
2, 177520, Note_on_c, 0, 84, 97
2, 177522, Note_on_c, 0, 68, 104
2, 177630, Note_on_c, 0, 75, 0
2, 177637, Note_on_c, 0, 69, 103
2, 177640, Note_on_c, 0, 75, 91
2, 177744, Note_on_c, 0, 66, 0
2, 177746, Note_on_c, 0, 63, 0
2, 177746, Note_on_c, 0, 84, 0
2, 177747, Note_on_c, 0, 83, 0
2, 177748, Note_on_c, 0, 69, 0
2, 177752, Control_c, 0, 64, 0
2, 177768, Note_on_c, 0, 75, 0
2, 177768, Note_on_c, 0, 78, 0
2, 177776, Note_on_c, 0, 68, 0
2, 177777, Note_on_c, 0, 78, 92
2, 177780, Note_on_c, 0, 56, 100
2, 177781, Note_on_c, 0, 68, 107
2, 177785, Note_on_c, 0, 60, 91
2, 177838, Control_c, 0, 64, 127
2, 177920, Note_on_c, 0, 84, 98
2, 178035, Note_on_c, 0, 75, 95
2, 178160, Note_on_c, 0, 78, 0
2, 178167, Note_on_c, 0, 63, 103
2, 178169, Note_on_c, 0, 78, 92
2, 178298, Note_on_c, 0, 84, 0
2, 178309, Note_on_c, 0, 84, 87
2, 178366, Control_c, 0, 64, 0
2, 178371, Note_on_c, 0, 75, 0
2, 178371, Note_on_c, 0, 63, 0
2, 178371, Note_on_c, 0, 84, 0
2, 178371, Note_on_c, 0, 68, 0
2, 178372, Note_on_c, 0, 78, 0
2, 178372, Note_on_c, 0, 56, 0
2, 178372, Note_on_c, 0, 60, 0
2, 178447, Note_on_c, 0, 64, 105
2, 178449, Note_on_c, 0, 56, 94
2, 178449, Note_on_c, 0, 49, 97
2, 178451, Note_on_c, 0, 85, 105
2, 178451, Note_on_c, 0, 73, 103
2, 178455, Note_on_c, 0, 76, 103
2, 178701, Note_on_c, 0, 49, 0
2, 178701, Note_on_c, 0, 73, 0
2, 178701, Note_on_c, 0, 85, 0
2, 178702, Note_on_c, 0, 76, 0
2, 178702, Note_on_c, 0, 56, 0
2, 178702, Note_on_c, 0, 64, 0
2, 178718, Note_on_c, 0, 63, 99
2, 178787, Note_on_c, 0, 63, 0
2, 178857, Note_on_c, 0, 64, 108
2, 179123, Note_on_c, 0, 61, 102
2, 179124, Note_on_c, 0, 66, 97
2, 179125, Note_on_c, 0, 56, 99
2, 179125, Note_on_c, 0, 49, 97
2, 179166, Control_c, 0, 64, 127
2, 179251, Note_on_c, 0, 56, 0
2, 179258, Note_on_c, 0, 60, 96
2, 179258, Note_on_c, 0, 48, 96
2, 179260, Note_on_c, 0, 56, 88
2, 179299, Control_c, 0, 64, 0
2, 179304, Note_on_c, 0, 48, 0
2, 179305, Note_on_c, 0, 56, 0
2, 179306, Note_on_c, 0, 66, 0
2, 179307, Note_on_c, 0, 61, 0
2, 179307, Note_on_c, 0, 49, 0
2, 179308, Note_on_c, 0, 60, 0
2, 179309, Note_on_c, 0, 64, 0
2, 179395, Note_on_c, 0, 47, 105
2, 179397, Note_on_c, 0, 59, 107
2, 179398, Note_on_c, 0, 68, 108
2, 179401, Note_on_c, 0, 56, 98
2, 179412, Control_c, 0, 64, 127
2, 179540, Control_c, 0, 64, 0
2, 179543, Note_on_c, 0, 47, 0
2, 179544, Note_on_c, 0, 59, 0
2, 179546, Note_on_c, 0, 56, 0
2, 179546, Note_on_c, 0, 68, 0
2, 179789, Note_on_c, 0, 64, 107
2, 179842, Control_c, 0, 64, 127
2, 179924, Note_on_c, 0, 40, 102
2, 179925, Note_on_c, 0, 28, 101
2, 180054, Note_on_c, 0, 68, 109
2, 180165, Note_on_c, 0, 28, 0
2, 180165, Note_on_c, 0, 40, 0
2, 180176, Note_on_c, 0, 40, 99
2, 180176, Note_on_c, 0, 28, 96
2, 180318, Note_on_c, 0, 64, 0
2, 180318, Note_on_c, 0, 68, 0
2, 180322, Note_on_c, 0, 71, 105
2, 180324, Note_on_c, 0, 68, 107
2, 180328, Note_on_c, 0, 64, 104
2, 180330, Note_on_c, 0, 52, 107
2, 180357, Note_on_c, 0, 47, 71
2, 180546, Control_c, 0, 64, 0
2, 180546, Note_on_c, 0, 28, 0
2, 180551, Note_on_c, 0, 47, 0
2, 180551, Note_on_c, 0, 68, 0
2, 180551, Note_on_c, 0, 52, 0
2, 180552, Note_on_c, 0, 71, 0
2, 180572, Note_on_c, 0, 40, 0
2, 180572, Note_on_c, 0, 64, 0
2, 180606, Note_on_c, 0, 73, 116
2, 180606, Note_on_c, 0, 80, 109
2, 180606, Note_on_c, 0, 85, 113
2, 180608, Note_on_c, 0, 45, 111
2, 180609, Note_on_c, 0, 33, 103
2, 180611, Note_on_c, 0, 76, 104
2, 180710, Control_c, 0, 64, 127
2, 180871, Note_on_c, 0, 45, 0
2, 180875, Note_on_c, 0, 57, 103
2, 180875, Note_on_c, 0, 52, 98
2, 180877, Note_on_c, 0, 45, 100
2, 180882, Note_on_c, 0, 97, 108
2, 180936, Note_on_c, 0, 92, 91
2, 180991, Note_on_c, 0, 88, 103
2, 181009, Note_on_c, 0, 45, 0
2, 181015, Note_on_c, 0, 45, 97
2, 181048, Note_on_c, 0, 85, 0
2, 181053, Note_on_c, 0, 85, 102
2, 181132, Note_on_c, 0, 57, 0
2, 181132, Note_on_c, 0, 80, 0
2, 181140, Note_on_c, 0, 52, 0
2, 181141, Note_on_c, 0, 80, 94
2, 181144, Note_on_c, 0, 57, 101
2, 181151, Note_on_c, 0, 52, 98
2, 181186, Note_on_c, 0, 76, 0
2, 181191, Note_on_c, 0, 76, 77
2, 181248, Note_on_c, 0, 73, 0
2, 181256, Note_on_c, 0, 73, 97
2, 181278, Note_on_c, 0, 45, 0
2, 181278, Note_on_c, 0, 52, 0
2, 181282, Note_on_c, 0, 52, 87
2, 181284, Note_on_c, 0, 45, 92
2, 181327, Note_on_c, 0, 68, 99
2, 181373, Note_on_c, 0, 64, 92
2, 181409, Note_on_c, 0, 57, 0
2, 181416, Note_on_c, 0, 52, 0
2, 181420, Note_on_c, 0, 57, 102
2, 181421, Note_on_c, 0, 61, 98
2, 181422, Note_on_c, 0, 52, 93
2, 181509, Note_on_c, 0, 45, 0
2, 181513, Note_on_c, 0, 45, 101
2, 181532, Note_on_c, 0, 73, 0
2, 181532, Note_on_c, 0, 85, 0
2, 181539, Note_on_c, 0, 76, 0
2, 181539, Note_on_c, 0, 80, 0
2, 181543, Note_on_c, 0, 73, 111
2, 181543, Note_on_c, 0, 85, 111
2, 181544, Note_on_c, 0, 76, 100
2, 181545, Note_on_c, 0, 80, 94
2, 181611, Control_c, 0, 64, 0
2, 181612, Note_on_c, 0, 45, 0
2, 181612, Note_on_c, 0, 92, 0
2, 181612, Note_on_c, 0, 88, 0
2, 181612, Note_on_c, 0, 68, 0
2, 181612, Note_on_c, 0, 76, 0
2, 181613, Note_on_c, 0, 61, 0
2, 181613, Note_on_c, 0, 52, 0
2, 181613, Note_on_c, 0, 97, 0
2, 181613, Note_on_c, 0, 80, 0
2, 181613, Note_on_c, 0, 73, 0
2, 181613, Note_on_c, 0, 64, 0
2, 181613, Note_on_c, 0, 85, 0
2, 181632, Note_on_c, 0, 33, 0
2, 181632, Note_on_c, 0, 57, 0
2, 181678, Note_on_c, 0, 73, 113
2, 181680, Note_on_c, 0, 85, 111
2, 181681, Note_on_c, 0, 80, 104
2, 181682, Note_on_c, 0, 45, 106
2, 181682, Note_on_c, 0, 76, 99
2, 181683, Note_on_c, 0, 33, 97
2, 181731, Control_c, 0, 64, 127
2, 181950, Note_on_c, 0, 71, 103
2, 181953, Note_on_c, 0, 87, 107
2, 181957, Note_on_c, 0, 75, 106
2, 182019, Note_on_c, 0, 66, 87
2, 182077, Note_on_c, 0, 76, 0
2, 182081, Note_on_c, 0, 63, 94
2, 182085, Note_on_c, 0, 88, 113
2, 182086, Note_on_c, 0, 76, 110
2, 182155, Note_on_c, 0, 59, 105
2, 182228, Note_on_c, 0, 54, 97
2, 182304, Note_on_c, 0, 51, 83
2, 182351, Note_on_c, 0, 90, 112
2, 182354, Note_on_c, 0, 78, 110
2, 182376, Note_on_c, 0, 45, 0
2, 182381, Note_on_c, 0, 45, 74
2, 182469, Note_on_c, 0, 33, 0
2, 182476, Note_on_c, 0, 45, 0
2, 182479, Note_on_c, 0, 33, 95
2, 182483, Note_on_c, 0, 45, 90
2, 182607, Note_on_c, 0, 71, 0
2, 182607, Note_on_c, 0, 75, 0
2, 182607, Note_on_c, 0, 78, 0
2, 182611, Note_on_c, 0, 83, 111
2, 182613, Note_on_c, 0, 71, 107
2, 182616, Note_on_c, 0, 78, 106
2, 182617, Note_on_c, 0, 75, 106
2, 182628, Control_c, 0, 64, 0
2, 182633, Note_on_c, 0, 90, 0
2, 182634, Note_on_c, 0, 66, 0
2, 182634, Note_on_c, 0, 80, 0
2, 182634, Note_on_c, 0, 33, 0
2, 182634, Note_on_c, 0, 87, 0
2, 182634, Note_on_c, 0, 63, 0
2, 182635, Note_on_c, 0, 45, 0
2, 182635, Note_on_c, 0, 88, 0
2, 182635, Note_on_c, 0, 85, 0
2, 182635, Note_on_c, 0, 51, 0
2, 182635, Note_on_c, 0, 76, 0
2, 182635, Note_on_c, 0, 73, 0
2, 182645, Note_on_c, 0, 54, 0
2, 182645, Note_on_c, 0, 59, 0
2, 182749, Note_on_c, 0, 44, 106
2, 182750, Note_on_c, 0, 32, 98
2, 182760, Control_c, 0, 64, 127
2, 182876, Note_on_c, 0, 83, 0
2, 182887, Note_on_c, 0, 83, 81
2, 182956, Note_on_c, 0, 87, 97
2, 183011, Note_on_c, 0, 59, 108
2, 183013, Note_on_c, 0, 95, 111
2, 183020, Note_on_c, 0, 54, 98
2, 183025, Note_on_c, 0, 51, 85
2, 183081, Note_on_c, 0, 90, 104
2, 183137, Note_on_c, 0, 87, 0
2, 183144, Note_on_c, 0, 44, 0
2, 183148, Note_on_c, 0, 87, 99
2, 183148, Note_on_c, 0, 44, 97
2, 183191, Note_on_c, 0, 83, 0
2, 183198, Note_on_c, 0, 83, 90
2, 183275, Note_on_c, 0, 83, 0
2, 183282, Note_on_c, 0, 83, 103
2, 183283, Note_on_c, 0, 54, 0
2, 183287, Note_on_c, 0, 54, 97
2, 183290, Note_on_c, 0, 51, 0
2, 183296, Note_on_c, 0, 51, 85
2, 183406, Note_on_c, 0, 44, 0
2, 183406, Note_on_c, 0, 75, 0
2, 183410, Note_on_c, 0, 75, 85
2, 183411, Note_on_c, 0, 44, 95
2, 183452, Note_on_c, 0, 71, 0
2, 183461, Note_on_c, 0, 71, 82
2, 183544, Note_on_c, 0, 51, 0
2, 183544, Note_on_c, 0, 54, 0
2, 183544, Note_on_c, 0, 71, 0
2, 183548, Note_on_c, 0, 71, 97
2, 183551, Note_on_c, 0, 51, 86
2, 183553, Note_on_c, 0, 54, 93
2, 183610, Note_on_c, 0, 66, 87
2, 183671, Note_on_c, 0, 63, 96
2, 183720, Note_on_c, 0, 59, 0
2, 183729, Note_on_c, 0, 59, 75
2, 183769, Control_c, 0, 64, 0
2, 183771, Note_on_c, 0, 95, 0
2, 183771, Note_on_c, 0, 32, 0
2, 183772, Note_on_c, 0, 44, 0
2, 183772, Note_on_c, 0, 59, 0
2, 183772, Note_on_c, 0, 75, 0
2, 183773, Note_on_c, 0, 54, 0
2, 183773, Note_on_c, 0, 83, 0
2, 183773, Note_on_c, 0, 90, 0
2, 183773, Note_on_c, 0, 87, 0
2, 183773, Note_on_c, 0, 66, 0
2, 183774, Note_on_c, 0, 63, 0
2, 183774, Note_on_c, 0, 71, 0
2, 183775, Note_on_c, 0, 51, 0
2, 183782, Note_on_c, 0, 78, 0
2, 183799, Note_on_c, 0, 49, 107
2, 183801, Note_on_c, 0, 37, 100
2, 183866, Control_c, 0, 64, 127
2, 183920, Note_on_c, 0, 59, 91
2, 183986, Note_on_c, 0, 61, 89
2, 184034, Note_on_c, 0, 65, 89
2, 184061, Note_on_c, 0, 53, 72
2, 184063, Note_on_c, 0, 56, 89
2, 184089, Note_on_c, 0, 68, 99
2, 184161, Note_on_c, 0, 71, 92
2, 184212, Note_on_c, 0, 49, 0
2, 184216, Note_on_c, 0, 49, 90
2, 184220, Note_on_c, 0, 73, 99
2, 184277, Note_on_c, 0, 77, 87
2, 184332, Note_on_c, 0, 80, 93
2, 184343, Note_on_c, 0, 53, 0
2, 184343, Note_on_c, 0, 59, 0
2, 184346, Note_on_c, 0, 59, 95
2, 184348, Note_on_c, 0, 53, 85
2, 184350, Note_on_c, 0, 56, 0
2, 184358, Note_on_c, 0, 56, 82
2, 184391, Note_on_c, 0, 83, 105
2, 184447, Note_on_c, 0, 85, 101
2, 184465, Note_on_c, 0, 61, 0
2, 184470, Note_on_c, 0, 61, 90
2, 184473, Note_on_c, 0, 49, 0
2, 184478, Note_on_c, 0, 49, 82
2, 184495, Note_on_c, 0, 89, 103
2, 184539, Note_on_c, 0, 92, 106
2, 184588, Note_on_c, 0, 53, 0
2, 184591, Note_on_c, 0, 97, 111
2, 184596, Note_on_c, 0, 56, 0
2, 184596, Note_on_c, 0, 59, 0
2, 184600, Note_on_c, 0, 53, 89
2, 184601, Note_on_c, 0, 59, 99
2, 184606, Note_on_c, 0, 56, 89
2, 184735, Note_on_c, 0, 69, 101
2, 184813, Note_on_c, 0, 37, 0
2, 184814, Note_on_c, 0, 92, 0
2, 184814, Note_on_c, 0, 49, 0
2, 184814, Note_on_c, 0, 89, 0
2, 184814, Note_on_c, 0, 85, 0
2, 184814, Note_on_c, 0, 61, 0
2, 184814, Note_on_c, 0, 59, 0
2, 184814, Note_on_c, 0, 56, 0
2, 184814, Note_on_c, 0, 65, 0
2, 184814, Note_on_c, 0, 83, 0
2, 184814, Note_on_c, 0, 80, 0
2, 184814, Note_on_c, 0, 68, 0
2, 184814, Note_on_c, 0, 53, 0
2, 184814, Note_on_c, 0, 77, 0
2, 184815, Note_on_c, 0, 71, 0
2, 184815, Note_on_c, 0, 69, 0
2, 184815, Note_on_c, 0, 73, 0
2, 184815, Note_on_c, 0, 97, 0
2, 184817, Control_c, 0, 64, 0
2, 184870, Note_on_c, 0, 81, 108
2, 184870, Note_on_c, 0, 42, 107
2, 184871, Note_on_c, 0, 69, 104
2, 184874, Note_on_c, 0, 30, 103
2, 184875, Note_on_c, 0, 73, 107
2, 184875, Note_on_c, 0, 76, 103
2, 184896, Control_c, 0, 64, 127
2, 185137, Note_on_c, 0, 61, 98
2, 185137, Note_on_c, 0, 64, 98
2, 185138, Note_on_c, 0, 73, 0
2, 185138, Note_on_c, 0, 81, 0
2, 185138, Note_on_c, 0, 80, 102
2, 185139, Note_on_c, 0, 42, 0
2, 185140, Note_on_c, 0, 71, 96
2, 185140, Note_on_c, 0, 57, 86
2, 185143, Note_on_c, 0, 76, 0
2, 185143, Note_on_c, 0, 69, 0
2, 185145, Control_c, 0, 64, 0
2, 185149, Note_on_c, 0, 30, 0
2, 185176, Note_on_c, 0, 61, 0
2, 185179, Note_on_c, 0, 71, 0
2, 185191, Note_on_c, 0, 64, 0
2, 185194, Note_on_c, 0, 57, 0
2, 185206, Note_on_c, 0, 80, 0
2, 185276, Note_on_c, 0, 54, 98
2, 185276, Note_on_c, 0, 78, 106
2, 185284, Note_on_c, 0, 71, 98
2, 185285, Note_on_c, 0, 73, 103
2, 185310, Control_c, 0, 64, 127
2, 185391, Note_on_c, 0, 61, 95
2, 185391, Note_on_c, 0, 64, 98
2, 185533, Note_on_c, 0, 71, 0
2, 185533, Note_on_c, 0, 73, 0
2, 185539, Note_on_c, 0, 76, 104
2, 185542, Note_on_c, 0, 42, 103
2, 185542, Note_on_c, 0, 71, 94
2, 185542, Note_on_c, 0, 73, 103
2, 185656, Note_on_c, 0, 54, 0
2, 185660, Note_on_c, 0, 54, 94
2, 185739, Note_on_c, 0, 61, 0
2, 185740, Note_on_c, 0, 71, 0
2, 185740, Note_on_c, 0, 73, 0
2, 185740, Note_on_c, 0, 42, 0
2, 185741, Note_on_c, 0, 64, 0
2, 185741, Note_on_c, 0, 54, 0
2, 185742, Control_c, 0, 64, 0
2, 185743, Note_on_c, 0, 78, 0
2, 185743, Note_on_c, 0, 76, 0
2, 185812, Note_on_c, 0, 47, 111
2, 185813, Note_on_c, 0, 75, 109
2, 185813, Note_on_c, 0, 66, 103
2, 185814, Note_on_c, 0, 35, 99
2, 185814, Note_on_c, 0, 71, 94
2, 185863, Control_c, 0, 64, 127
2, 186063, Note_on_c, 0, 47, 0
2, 186068, Note_on_c, 0, 47, 96
2, 186071, Note_on_c, 0, 71, 0
2, 186071, Note_on_c, 0, 75, 0
2, 186075, Note_on_c, 0, 71, 97
2, 186075, Note_on_c, 0, 75, 97
2, 186201, Note_on_c, 0, 71, 0
2, 186201, Note_on_c, 0, 75, 0
2, 186205, Note_on_c, 0, 59, 99
2, 186206, Note_on_c, 0, 51, 94
2, 186207, Note_on_c, 0, 54, 88
2, 186209, Note_on_c, 0, 75, 100
2, 186210, Note_on_c, 0, 47, 0
2, 186210, Control_c, 0, 64, 0
2, 186211, Note_on_c, 0, 71, 91
2, 186213, Note_on_c, 0, 66, 0
2, 186236, Note_on_c, 0, 59, 0
2, 186240, Note_on_c, 0, 35, 0
2, 186243, Note_on_c, 0, 51, 0
2, 186245, Note_on_c, 0, 54, 0
2, 186278, Note_on_c, 0, 71, 0
2, 186278, Note_on_c, 0, 75, 0
2, 186343, Note_on_c, 0, 76, 106
2, 186344, Note_on_c, 0, 73, 108
2, 186347, Note_on_c, 0, 71, 102
2, 186349, Note_on_c, 0, 45, 111
2, 186350, Note_on_c, 0, 33, 99
2, 186393, Control_c, 0, 64, 127
2, 186600, Note_on_c, 0, 33, 0
2, 186600, Note_on_c, 0, 45, 0
2, 186605, Note_on_c, 0, 78, 107
2, 186605, Note_on_c, 0, 45, 102
2, 186608, Note_on_c, 0, 75, 94
2, 186610, Note_on_c, 0, 33, 92
2, 186735, Note_on_c, 0, 59, 102
2, 186738, Note_on_c, 0, 51, 94
2, 186740, Note_on_c, 0, 54, 96
2, 186854, Note_on_c, 0, 71, 0
2, 186864, Note_on_c, 0, 71, 101
2, 186878, Control_c, 0, 64, 0
2, 186880, Note_on_c, 0, 59, 0
2, 186881, Note_on_c, 0, 51, 0
2, 186883, Note_on_c, 0, 54, 0
2, 186884, Note_on_c, 0, 73, 0
2, 186886, Note_on_c, 0, 78, 0
2, 186887, Note_on_c, 0, 76, 0
2, 186888, Note_on_c, 0, 75, 0
2, 186900, Note_on_c, 0, 33, 0
2, 186900, Note_on_c, 0, 45, 0
2, 186915, Note_on_c, 0, 71, 0
2, 186988, Note_on_c, 0, 83, 108
2, 186990, Note_on_c, 0, 44, 105
2, 186992, Note_on_c, 0, 71, 107
2, 186993, Note_on_c, 0, 75, 100
2, 186994, Note_on_c, 0, 32, 92
2, 186994, Note_on_c, 0, 78, 104
2, 187008, Control_c, 0, 64, 127
2, 187246, Note_on_c, 0, 71, 0
2, 187246, Note_on_c, 0, 75, 0
2, 187246, Note_on_c, 0, 78, 0
2, 187246, Note_on_c, 0, 83, 0
2, 187248, Note_on_c, 0, 63, 99
2, 187249, Note_on_c, 0, 59, 106
2, 187250, Note_on_c, 0, 83, 104
2, 187250, Note_on_c, 0, 71, 104
2, 187250, Note_on_c, 0, 66, 104
2, 187252, Note_on_c, 0, 75, 99
2, 187255, Note_on_c, 0, 78, 101
2, 187282, Control_c, 0, 64, 0
2, 187296, Note_on_c, 0, 75, 0
2, 187296, Note_on_c, 0, 66, 0
2, 187296, Note_on_c, 0, 78, 0
2, 187297, Note_on_c, 0, 71, 0
2, 187297, Note_on_c, 0, 83, 0
2, 187298, Note_on_c, 0, 63, 0
2, 187299, Note_on_c, 0, 32, 0
2, 187300, Note_on_c, 0, 59, 0
2, 187307, Note_on_c, 0, 44, 0
2, 187384, Note_on_c, 0, 83, 108
2, 187389, Note_on_c, 0, 71, 103
2, 187390, Note_on_c, 0, 56, 100
2, 187390, Note_on_c, 0, 78, 87
2, 187393, Note_on_c, 0, 75, 95
2, 187445, Control_c, 0, 64, 127
2, 187519, Note_on_c, 0, 63, 99
2, 187519, Note_on_c, 0, 66, 104
2, 187630, Note_on_c, 0, 71, 0
2, 187634, Note_on_c, 0, 81, 106
2, 187636, Note_on_c, 0, 71, 97
2, 187653, Note_on_c, 0, 44, 101
2, 187752, Note_on_c, 0, 56, 0
2, 187752, Note_on_c, 0, 71, 0
2, 187760, Note_on_c, 0, 75, 0
2, 187763, Note_on_c, 0, 56, 99
2, 187764, Note_on_c, 0, 71, 97
2, 187765, Note_on_c, 0, 80, 107
2, 187770, Note_on_c, 0, 75, 83
2, 187810, Note_on_c, 0, 56, 0
2, 187811, Note_on_c, 0, 75, 0
2, 187811, Note_on_c, 0, 66, 0
2, 187813, Note_on_c, 0, 44, 0
2, 187813, Note_on_c, 0, 81, 0
2, 187814, Note_on_c, 0, 63, 0
2, 187816, Note_on_c, 0, 71, 0
2, 187816, Control_c, 0, 64, 0
2, 187821, Note_on_c, 0, 80, 0
2, 187822, Note_on_c, 0, 83, 0
2, 187837, Note_on_c, 0, 78, 0
2, 187905, Note_on_c, 0, 78, 105
2, 187907, Note_on_c, 0, 49, 109
2, 187909, Note_on_c, 0, 37, 102
2, 187909, Note_on_c, 0, 71, 99
2, 187910, Note_on_c, 0, 75, 102
2, 187944, Control_c, 0, 64, 127
2, 188152, Note_on_c, 0, 49, 0
2, 188160, Note_on_c, 0, 71, 0
2, 188163, Note_on_c, 0, 49, 95
2, 188166, Note_on_c, 0, 68, 108
2, 188169, Note_on_c, 0, 71, 95
2, 188170, Note_on_c, 0, 76, 105
2, 188298, Note_on_c, 0, 68, 0
2, 188298, Note_on_c, 0, 71, 0
2, 188298, Note_on_c, 0, 76, 0
2, 188303, Note_on_c, 0, 56, 97
2, 188304, Note_on_c, 0, 68, 109
2, 188304, Note_on_c, 0, 71, 95
2, 188305, Note_on_c, 0, 76, 107
2, 188431, Note_on_c, 0, 63, 103
2, 188432, Note_on_c, 0, 59, 100
2, 188700, Note_on_c, 0, 64, 109
2, 188701, Note_on_c, 0, 61, 102
2, 188835, Note_on_c, 0, 52, 95
2, 188870, Note_on_c, 0, 47, 91
2, 188900, Note_on_c, 0, 44, 62
2, 188958, Note_on_c, 0, 37, 0
2, 188958, Note_on_c, 0, 44, 0
2, 188963, Note_on_c, 0, 37, 90
2, 188969, Note_on_c, 0, 44, 85
2, 189032, Control_c, 0, 64, 0
2, 189036, Note_on_c, 0, 78, 0
2, 189038, Note_on_c, 0, 75, 0
2, 189038, Note_on_c, 0, 59, 0
2, 189038, Note_on_c, 0, 61, 0
2, 189038, Note_on_c, 0, 56, 0
2, 189038, Note_on_c, 0, 49, 0
2, 189038, Note_on_c, 0, 71, 0
2, 189038, Note_on_c, 0, 63, 0
2, 189038, Note_on_c, 0, 52, 0
2, 189038, Note_on_c, 0, 37, 0
2, 189038, Note_on_c, 0, 64, 0
2, 189039, Note_on_c, 0, 76, 0
2, 189039, Note_on_c, 0, 68, 0
2, 189039, Note_on_c, 0, 44, 0
2, 189050, Note_on_c, 0, 47, 0
2, 189090, Note_on_c, 0, 42, 106
2, 189092, Note_on_c, 0, 30, 99
2, 189096, Note_on_c, 0, 76, 112
2, 189099, Note_on_c, 0, 69, 107
2, 189100, Note_on_c, 0, 64, 107
2, 189100, Note_on_c, 0, 73, 107
2, 189143, Control_c, 0, 64, 127
2, 189367, Note_on_c, 0, 52, 95
2, 189369, Note_on_c, 0, 49, 98
2, 189496, Note_on_c, 0, 49, 0
2, 189496, Note_on_c, 0, 69, 0
2, 189496, Note_on_c, 0, 73, 0
2, 189496, Note_on_c, 0, 76, 0
2, 189504, Note_on_c, 0, 42, 0
2, 189506, Note_on_c, 0, 76, 109
2, 189506, Note_on_c, 0, 69, 101
2, 189507, Note_on_c, 0, 73, 107
2, 189507, Note_on_c, 0, 49, 91
2, 189511, Note_on_c, 0, 52, 0
2, 189515, Note_on_c, 0, 42, 93
2, 189523, Note_on_c, 0, 52, 86
2, 189642, Note_on_c, 0, 49, 0
2, 189642, Note_on_c, 0, 52, 0
2, 189649, Note_on_c, 0, 52, 94
2, 189651, Note_on_c, 0, 49, 95
2, 189765, Note_on_c, 0, 42, 0
2, 189772, Note_on_c, 0, 73, 0
2, 189776, Note_on_c, 0, 42, 99
2, 189776, Note_on_c, 0, 73, 107
2, 189888, Note_on_c, 0, 49, 0
2, 189888, Note_on_c, 0, 52, 0
2, 189895, Note_on_c, 0, 42, 0
2, 189897, Note_on_c, 0, 52, 87
2, 189899, Note_on_c, 0, 49, 97
2, 189903, Note_on_c, 0, 75, 103
2, 189906, Note_on_c, 0, 42, 90
2, 189958, Control_c, 0, 64, 0
2, 189961, Note_on_c, 0, 42, 0
2, 189962, Note_on_c, 0, 52, 0
2, 189962, Note_on_c, 0, 64, 0
2, 189963, Note_on_c, 0, 49, 0
2, 189963, Note_on_c, 0, 76, 0
2, 189964, Note_on_c, 0, 73, 0
2, 189965, Note_on_c, 0, 75, 0
2, 189972, Note_on_c, 0, 30, 0
2, 189987, Note_on_c, 0, 69, 0
2, 190038, Note_on_c, 0, 68, 112
2, 190039, Note_on_c, 0, 76, 110
2, 190042, Note_on_c, 0, 71, 99
2, 190045, Note_on_c, 0, 44, 103
2, 190047, Note_on_c, 0, 32, 91
2, 190141, Control_c, 0, 64, 127
2, 190302, Note_on_c, 0, 44, 0
2, 190307, Note_on_c, 0, 44, 88
2, 190425, Note_on_c, 0, 71, 0
2, 190425, Note_on_c, 0, 76, 0
2, 190434, Note_on_c, 0, 71, 103
2, 190436, Note_on_c, 0, 76, 109
2, 190437, Note_on_c, 0, 52, 98
2, 190442, Note_on_c, 0, 47, 98
2, 190563, Note_on_c, 0, 44, 0
2, 190574, Note_on_c, 0, 44, 92
2, 190694, Note_on_c, 0, 47, 0
2, 190702, Note_on_c, 0, 44, 0
2, 190702, Note_on_c, 0, 52, 0
2, 190702, Note_on_c, 0, 71, 0
2, 190704, Note_on_c, 0, 47, 100
2, 190705, Note_on_c, 0, 78, 109
2, 190706, Note_on_c, 0, 71, 102
2, 190708, Note_on_c, 0, 44, 90
2, 190710, Note_on_c, 0, 52, 95
2, 190848, Note_on_c, 0, 44, 0
2, 190852, Note_on_c, 0, 44, 91
2, 190963, Note_on_c, 0, 47, 0
2, 190963, Note_on_c, 0, 52, 0
2, 190963, Note_on_c, 0, 71, 0
2, 190968, Note_on_c, 0, 47, 99
2, 190970, Note_on_c, 0, 52, 101
2, 190970, Note_on_c, 0, 44, 0
2, 190972, Note_on_c, 0, 80, 109
2, 190974, Note_on_c, 0, 71, 88
2, 190977, Note_on_c, 0, 44, 95
2, 191086, Note_on_c, 0, 44, 0
2, 191090, Note_on_c, 0, 44, 93
2, 191148, Control_c, 0, 64, 0
2, 191150, Note_on_c, 0, 78, 0
2, 191150, Note_on_c, 0, 47, 0
2, 191150, Note_on_c, 0, 76, 0
2, 191151, Note_on_c, 0, 71, 0
2, 191151, Note_on_c, 0, 52, 0
2, 191151, Note_on_c, 0, 44, 0
2, 191151, Note_on_c, 0, 80, 0
2, 191162, Note_on_c, 0, 68, 0
2, 191170, Note_on_c, 0, 32, 0
2, 191235, Note_on_c, 0, 52, 99
2, 191236, Note_on_c, 0, 80, 108
2, 191238, Note_on_c, 0, 71, 103
2, 191239, Note_on_c, 0, 49, 96
2, 191239, Note_on_c, 0, 73, 111
2, 191293, Control_c, 0, 64, 127
2, 191366, Note_on_c, 0, 32, 93
2, 191369, Note_on_c, 0, 33, 96
2, 191491, Note_on_c, 0, 45, 96
2, 191623, Note_on_c, 0, 52, 0
2, 191631, Note_on_c, 0, 49, 0
2, 191634, Note_on_c, 0, 52, 102
2, 191635, Note_on_c, 0, 68, 110
2, 191636, Note_on_c, 0, 61, 96
2, 191637, Note_on_c, 0, 49, 102
2, 191639, Note_on_c, 0, 59, 101
2, 191754, Note_on_c, 0, 33, 0
2, 191760, Note_on_c, 0, 33, 92
2, 191900, Note_on_c, 0, 45, 0
2, 191904, Note_on_c, 0, 45, 95
2, 191912, Note_on_c, 0, 81, 108
2, 191923, Note_on_c, 0, 32, 0
2, 192030, Note_on_c, 0, 49, 0
2, 192030, Note_on_c, 0, 52, 0
2, 192030, Note_on_c, 0, 80, 0
2, 192035, Note_on_c, 0, 52, 88
2, 192039, Note_on_c, 0, 49, 102
2, 192041, Note_on_c, 0, 80, 107
2, 192078, Note_on_c, 0, 33, 0
2, 192080, Note_on_c, 0, 45, 0
2, 192080, Note_on_c, 0, 68, 0
2, 192080, Note_on_c, 0, 52, 0
2, 192080, Note_on_c, 0, 73, 0
2, 192081, Note_on_c, 0, 59, 0
2, 192081, Note_on_c, 0, 71, 0
2, 192082, Note_on_c, 0, 81, 0
2, 192085, Note_on_c, 0, 80, 0
2, 192100, Control_c, 0, 64, 0
2, 192107, Note_on_c, 0, 61, 0
2, 192115, Note_on_c, 0, 49, 0
2, 192175, Note_on_c, 0, 59, 107
2, 192175, Note_on_c, 0, 47, 101
2, 192178, Note_on_c, 0, 78, 108
2, 192179, Note_on_c, 0, 54, 107
2, 192180, Note_on_c, 0, 75, 105
2, 192181, Note_on_c, 0, 71, 98
2, 192439, Note_on_c, 0, 35, 95
2, 192445, Control_c, 0, 64, 127
2, 192545, Note_on_c, 0, 47, 0
2, 192555, Note_on_c, 0, 47, 106
2, 192556, Note_on_c, 0, 42, 100
2, 192675, Note_on_c, 0, 35, 0
2, 192687, Note_on_c, 0, 35, 77
2, 192752, Note_on_c, 0, 47, 0
2, 192761, Note_on_c, 0, 47, 103
2, 192821, Note_on_c, 0, 59, 0
2, 192826, Note_on_c, 0, 54, 0
2, 192826, Note_on_c, 0, 78, 0
2, 192827, Note_on_c, 0, 71, 0
2, 192828, Note_on_c, 0, 75, 0
2, 192831, Note_on_c, 0, 42, 0
2, 192831, Note_on_c, 0, 76, 111
2, 192831, Note_on_c, 0, 47, 0
2, 192832, Control_c, 0, 64, 0
2, 192860, Note_on_c, 0, 35, 0
2, 192998, Note_on_c, 0, 76, 0
2, 193087, Note_on_c, 0, 47, 103
2, 193092, Note_on_c, 0, 83, 105
2, 193113, Control_c, 0, 64, 127
2, 193123, Note_on_c, 0, 42, 95
2, 193179, Note_on_c, 0, 35, 63
2, 193278, Control_c, 0, 64, 0
2, 193281, Note_on_c, 0, 42, 0
2, 193282, Note_on_c, 0, 35, 0
2, 193284, Note_on_c, 0, 47, 0
2, 193284, Note_on_c, 0, 83, 0
2, 193345, Note_on_c, 0, 78, 110
2, 193348, Note_on_c, 0, 71, 99
2, 193349, Note_on_c, 0, 75, 100
2, 193352, Note_on_c, 0, 49, 108
2, 193354, Note_on_c, 0, 37, 105
2, 193390, Control_c, 0, 64, 127
2, 193482, Note_on_c, 0, 37, 0
2, 193482, Note_on_c, 0, 49, 0
2, 193487, Note_on_c, 0, 49, 93
2, 193488, Note_on_c, 0, 37, 83
2, 193582, Note_on_c, 0, 37, 0
2, 193582, Note_on_c, 0, 49, 0
2, 193588, Note_on_c, 0, 49, 90
2, 193590, Note_on_c, 0, 37, 83
2, 193618, Control_c, 0, 64, 0
2, 193632, Note_on_c, 0, 37, 0
2, 193632, Note_on_c, 0, 75, 0
2, 193632, Note_on_c, 0, 71, 0
2, 193633, Note_on_c, 0, 78, 0
2, 193633, Note_on_c, 0, 49, 0
2, 193741, Note_on_c, 0, 76, 103
2, 193784, Note_on_c, 0, 76, 0
2, 193872, Note_on_c, 0, 59, 107
2, 193877, Note_on_c, 0, 52, 98
2, 193877, Note_on_c, 0, 76, 106
2, 193878, Note_on_c, 0, 56, 96
2, 193882, Note_on_c, 0, 64, 108
2, 193883, Note_on_c, 0, 68, 107
2, 193883, Note_on_c, 0, 71, 95
2, 193989, Control_c, 0, 64, 127
2, 194021, Note_on_c, 0, 49, 94
2, 194023, Note_on_c, 0, 37, 96
2, 194065, Note_on_c, 0, 52, 0
2, 194142, Note_on_c, 0, 51, 102
2, 194143, Note_on_c, 0, 39, 94
2, 194184, Control_c, 0, 64, 0
2, 194185, Note_on_c, 0, 37, 0
2, 194187, Note_on_c, 0, 49, 0
2, 194193, Note_on_c, 0, 51, 0
2, 194204, Note_on_c, 0, 56, 0
2, 194204, Note_on_c, 0, 59, 0
2, 194211, Note_on_c, 0, 71, 0
2, 194211, Note_on_c, 0, 76, 0
2, 194242, Note_on_c, 0, 64, 0
2, 194257, Note_on_c, 0, 39, 0
2, 194265, Note_on_c, 0, 68, 0
2, 194286, Note_on_c, 0, 52, 102
2, 194288, Note_on_c, 0, 47, 105
2, 194290, Note_on_c, 0, 40, 101
2, 194357, Control_c, 0, 64, 127
2, 194549, Note_on_c, 0, 40, 0
2, 194558, Note_on_c, 0, 40, 83
2, 194688, Note_on_c, 0, 40, 0
2, 194688, Note_on_c, 0, 47, 0
2, 194688, Note_on_c, 0, 52, 0
2, 194692, Note_on_c, 0, 47, 97
2, 194698, Note_on_c, 0, 52, 91
2, 194699, Note_on_c, 0, 40, 83
2, 194786, Note_on_c, 0, 52, 0
2, 194789, Control_c, 0, 64, 0
2, 194826, Note_on_c, 0, 47, 0
2, 194833, Note_on_c, 0, 47, 103
2, 194833, Note_on_c, 0, 40, 0
2, 194835, Note_on_c, 0, 59, 111
2, 194910, Control_c, 0, 64, 127
2, 195098, Note_on_c, 0, 45, 105
2, 195099, Note_on_c, 0, 57, 98
2, 195228, Note_on_c, 0, 56, 103
2, 195228, Note_on_c, 0, 44, 106
2, 195435, Control_c, 0, 64, 0
2, 195437, Note_on_c, 0, 45, 0
2, 195438, Note_on_c, 0, 44, 0
2, 195439, Note_on_c, 0, 57, 0
2, 195439, Note_on_c, 0, 56, 0
2, 195439, Note_on_c, 0, 59, 0
2, 195456, Note_on_c, 0, 47, 0
2, 195489, Note_on_c, 0, 64, 110
2, 195490, Note_on_c, 0, 57, 99
2, 195492, Note_on_c, 0, 42, 105
2, 195495, Note_on_c, 0, 61, 95
2, 195495, Note_on_c, 0, 30, 103
2, 195601, Control_c, 0, 64, 127
2, 195747, Note_on_c, 0, 30, 0
2, 195758, Note_on_c, 0, 30, 81
2, 195824, Note_on_c, 0, 42, 0
2, 195835, Note_on_c, 0, 42, 80
2, 195893, Note_on_c, 0, 30, 0
2, 195893, Note_on_c, 0, 64, 0
2, 195900, Note_on_c, 0, 64, 103
2, 195902, Note_on_c, 0, 30, 89
2, 195962, Note_on_c, 0, 30, 0
2, 195962, Note_on_c, 0, 42, 0
2, 195968, Note_on_c, 0, 30, 33
2, 195968, Note_on_c, 0, 42, 46
2, 196032, Note_on_c, 0, 30, 0
2, 196042, Note_on_c, 0, 30, 80
2, 196085, Note_on_c, 0, 42, 0
2, 196091, Note_on_c, 0, 42, 78
2, 196162, Note_on_c, 0, 30, 0
2, 196162, Note_on_c, 0, 61, 0
2, 196168, Note_on_c, 0, 30, 80
2, 196172, Note_on_c, 0, 61, 101
2, 196277, Note_on_c, 0, 30, 0
2, 196283, Note_on_c, 0, 30, 88
2, 196293, Note_on_c, 0, 42, 0
2, 196304, Note_on_c, 0, 42, 82
2, 196306, Note_on_c, 0, 63, 102
2, 196331, Note_on_c, 0, 42, 0
2, 196339, Note_on_c, 0, 30, 0
2, 196342, Note_on_c, 0, 42, 57
2, 196350, Note_on_c, 0, 30, 45
2, 196431, Note_on_c, 0, 64, 0
2, 196441, Note_on_c, 0, 64, 108
2, 196444, Note_on_c, 0, 59, 99
2, 196447, Note_on_c, 0, 56, 98
2, 196483, Note_on_c, 0, 30, 0
2, 196486, Note_on_c, 0, 42, 0
2, 196487, Note_on_c, 0, 63, 0
2, 196487, Note_on_c, 0, 57, 0
2, 196487, Note_on_c, 0, 61, 0
2, 196487, Control_c, 0, 64, 0
2, 196563, Note_on_c, 0, 32, 98
2, 196564, Note_on_c, 0, 44, 105
2, 196677, Control_c, 0, 64, 127
2, 196830, Note_on_c, 0, 32, 0
2, 196830, Note_on_c, 0, 64, 0
2, 196835, Note_on_c, 0, 32, 86
2, 196839, Note_on_c, 0, 64, 108
2, 196953, Note_on_c, 0, 32, 0
2, 196958, Note_on_c, 0, 32, 80
2, 197022, Note_on_c, 0, 44, 0
2, 197033, Note_on_c, 0, 44, 71
2, 197099, Note_on_c, 0, 32, 0
2, 197104, Note_on_c, 0, 32, 93
2, 197110, Note_on_c, 0, 66, 110
2, 197180, Note_on_c, 0, 63, 61
2, 197191, Note_on_c, 0, 63, 0
2, 197222, Note_on_c, 0, 32, 0
2, 197231, Note_on_c, 0, 32, 84
2, 197299, Note_on_c, 0, 44, 0
2, 197303, Note_on_c, 0, 44, 90
2, 197376, Note_on_c, 0, 32, 0
2, 197380, Note_on_c, 0, 32, 94
2, 197384, Note_on_c, 0, 68, 111
2, 197445, Note_on_c, 0, 64, 0
2, 197450, Note_on_c, 0, 64, 70
2, 197514, Note_on_c, 0, 32, 0
2, 197518, Note_on_c, 0, 32, 87
2, 197605, Note_on_c, 0, 32, 0
2, 197608, Note_on_c, 0, 66, 0
2, 197608, Note_on_c, 0, 59, 0
2, 197609, Note_on_c, 0, 56, 0
2, 197609, Note_on_c, 0, 44, 0
2, 197610, Note_on_c, 0, 64, 0
2, 197612, Control_c, 0, 64, 0
2, 197637, Note_on_c, 0, 68, 0
2, 197648, Note_on_c, 0, 68, 112
2, 197659, Note_on_c, 0, 61, 96
2, 197662, Note_on_c, 0, 59, 101
2, 197662, Note_on_c, 0, 52, 97
2, 197662, Note_on_c, 0, 49, 105
2, 197729, Control_c, 0, 64, 127
2, 197790, Note_on_c, 0, 33, 95
2, 197917, Note_on_c, 0, 45, 99
2, 198050, Control_c, 0, 64, 0
2, 198051, Note_on_c, 0, 49, 0
2, 198051, Note_on_c, 0, 52, 0
2, 198056, Note_on_c, 0, 52, 99
2, 198058, Note_on_c, 0, 49, 105
2, 198144, Control_c, 0, 64, 127
2, 198190, Note_on_c, 0, 33, 0
2, 198193, Note_on_c, 0, 33, 89
2, 198287, Note_on_c, 0, 49, 0
2, 198290, Note_on_c, 0, 68, 0
2, 198299, Note_on_c, 0, 59, 0
2, 198305, Note_on_c, 0, 45, 0
2, 198315, Note_on_c, 0, 69, 104
2, 198315, Note_on_c, 0, 45, 104
2, 198366, Note_on_c, 0, 33, 0
2, 198382, Note_on_c, 0, 52, 0
2, 198382, Control_c, 0, 64, 0
2, 198454, Note_on_c, 0, 68, 110
2, 198454, Note_on_c, 0, 52, 100
2, 198455, Note_on_c, 0, 49, 100
2, 198528, Note_on_c, 0, 61, 0
2, 198532, Note_on_c, 0, 52, 0
2, 198532, Note_on_c, 0, 45, 0
2, 198536, Note_on_c, 0, 49, 0
2, 198538, Note_on_c, 0, 69, 0
2, 198539, Note_on_c, 0, 68, 0
2, 198609, Note_on_c, 0, 66, 106
2, 198609, Note_on_c, 0, 47, 102
2, 198610, Note_on_c, 0, 54, 108
2, 198610, Note_on_c, 0, 59, 103
2, 198615, Note_on_c, 0, 63, 101
2, 198835, Control_c, 0, 64, 127
2, 198865, Note_on_c, 0, 47, 0
2, 198870, Note_on_c, 0, 47, 97
2, 198871, Note_on_c, 0, 35, 92
2, 199004, Note_on_c, 0, 35, 0
2, 199004, Note_on_c, 0, 47, 0
2, 199009, Note_on_c, 0, 47, 99
2, 199011, Note_on_c, 0, 35, 91
2, 199134, Note_on_c, 0, 35, 0
2, 199134, Note_on_c, 0, 47, 0
2, 199139, Note_on_c, 0, 47, 107
2, 199144, Note_on_c, 0, 35, 96
2, 199265, Note_on_c, 0, 47, 0
2, 199270, Note_on_c, 0, 64, 107
2, 199271, Note_on_c, 0, 47, 106
2, 199272, Note_on_c, 0, 35, 0
2, 199277, Note_on_c, 0, 35, 93
2, 199395, Note_on_c, 0, 35, 0
2, 199395, Note_on_c, 0, 47, 0
2, 199403, Note_on_c, 0, 47, 100
2, 199406, Note_on_c, 0, 35, 89
2, 199526, Note_on_c, 0, 47, 0
2, 199532, Note_on_c, 0, 71, 105
2, 199534, Note_on_c, 0, 35, 0
2, 199536, Note_on_c, 0, 47, 108
2, 199538, Note_on_c, 0, 35, 96
2, 199656, Note_on_c, 0, 35, 0
2, 199656, Note_on_c, 0, 47, 0
2, 199666, Note_on_c, 0, 47, 105
2, 199668, Note_on_c, 0, 35, 92
2, 199791, Control_c, 0, 64, 0
2, 199795, Note_on_c, 0, 66, 0
2, 199800, Note_on_c, 0, 66, 111
2, 199806, Note_on_c, 0, 63, 0
2, 199808, Note_on_c, 0, 71, 0
2, 199808, Note_on_c, 0, 59, 0
2, 199808, Note_on_c, 0, 47, 0
2, 199809, Note_on_c, 0, 54, 0
2, 199811, Note_on_c, 0, 64, 0
2, 199841, Note_on_c, 0, 35, 0
2, 200247, Note_on_c, 0, 64, 106
2, 200294, Note_on_c, 0, 66, 0
2, 200300, Note_on_c, 0, 64, 0
2, 200381, Note_on_c, 0, 64, 107
2, 201077, Note_on_c, 0, 35, 98
2, 201123, Control_c, 0, 64, 127
2, 201195, Note_on_c, 0, 47, 102
2, 201195, Note_on_c, 0, 42, 104
2, 201308, Note_on_c, 0, 35, 0
2, 201314, Note_on_c, 0, 35, 78
2, 201454, Note_on_c, 0, 64, 0
2, 201460, Note_on_c, 0, 59, 106
2, 201463, Note_on_c, 0, 54, 102
2, 201464, Note_on_c, 0, 64, 104
2, 201524, Note_on_c, 0, 66, 100
2, 201580, Note_on_c, 0, 68, 97
2, 201629, Note_on_c, 0, 69, 96
2, 201680, Note_on_c, 0, 71, 93
2, 201715, Note_on_c, 0, 47, 0
2, 201721, Note_on_c, 0, 47, 103
2, 201738, Note_on_c, 0, 76, 101
2, 201778, Note_on_c, 0, 78, 96
2, 201818, Note_on_c, 0, 80, 84
2, 201852, Note_on_c, 0, 81, 103
2, 201942, Note_on_c, 0, 59, 0
2, 201942, Note_on_c, 0, 66, 0
2, 201942, Note_on_c, 0, 80, 0
2, 201942, Note_on_c, 0, 64, 0
2, 201942, Note_on_c, 0, 68, 0
2, 201942, Note_on_c, 0, 69, 0
2, 201942, Note_on_c, 0, 71, 0
2, 201942, Control_c, 0, 64, 0
2, 201942, Note_on_c, 0, 54, 0
2, 201942, Note_on_c, 0, 81, 0
2, 201943, Note_on_c, 0, 76, 0
2, 201943, Note_on_c, 0, 78, 0
2, 201943, Note_on_c, 0, 35, 0
2, 201960, Note_on_c, 0, 42, 0
2, 201968, Note_on_c, 0, 47, 0
2, 201995, Note_on_c, 0, 83, 107
2, 201996, Note_on_c, 0, 71, 107
2, 201998, Note_on_c, 0, 78, 103
2, 201999, Note_on_c, 0, 76, 105
2, 202002, Note_on_c, 0, 45, 107
2, 202003, Note_on_c, 0, 33, 97
2, 202022, Control_c, 0, 64, 127
2, 202262, Note_on_c, 0, 59, 104
2, 202264, Note_on_c, 0, 49, 83
2, 202265, Note_on_c, 0, 52, 78
2, 202391, Note_on_c, 0, 45, 0
2, 202398, Note_on_c, 0, 52, 0
2, 202401, Note_on_c, 0, 45, 98
2, 202409, Note_on_c, 0, 52, 73
2, 202521, Note_on_c, 0, 83, 0
2, 202526, Control_c, 0, 64, 0
2, 202529, Note_on_c, 0, 49, 0
2, 202529, Note_on_c, 0, 52, 0
2, 202529, Note_on_c, 0, 59, 0
2, 202529, Note_on_c, 0, 71, 0
2, 202532, Note_on_c, 0, 83, 110
2, 202534, Note_on_c, 0, 71, 105
2, 202534, Note_on_c, 0, 59, 105
2, 202538, Note_on_c, 0, 52, 85
2, 202539, Note_on_c, 0, 49, 95
2, 202552, Control_c, 0, 64, 127
2, 202663, Note_on_c, 0, 85, 105
2, 202666, Note_on_c, 0, 73, 107
2, 202667, Note_on_c, 0, 49, 0
2, 202667, Note_on_c, 0, 52, 0
2, 202671, Note_on_c, 0, 49, 86
2, 202672, Note_on_c, 0, 52, 75
2, 202782, Note_on_c, 0, 33, 0
2, 202782, Note_on_c, 0, 45, 0
2, 202786, Note_on_c, 0, 33, 90
2, 202786, Note_on_c, 0, 45, 99
2, 202834, Note_on_c, 0, 59, 0
2, 202834, Note_on_c, 0, 33, 0
2, 202834, Note_on_c, 0, 78, 0
2, 202836, Note_on_c, 0, 49, 0
2, 202836, Note_on_c, 0, 52, 0
2, 202837, Note_on_c, 0, 71, 0
2, 202837, Note_on_c, 0, 45, 0
2, 202837, Note_on_c, 0, 76, 0
2, 202838, Control_c, 0, 64, 0
2, 202838, Note_on_c, 0, 73, 0
2, 202839, Note_on_c, 0, 85, 0
2, 202851, Note_on_c, 0, 83, 0
2, 202917, Note_on_c, 0, 83, 105
2, 202918, Note_on_c, 0, 71, 106
2, 202922, Note_on_c, 0, 76, 105
2, 202923, Note_on_c, 0, 47, 106
2, 202924, Note_on_c, 0, 78, 103
2, 202924, Note_on_c, 0, 35, 93
2, 202959, Control_c, 0, 64, 127
2, 203182, Note_on_c, 0, 47, 0
2, 203186, Note_on_c, 0, 59, 95
2, 203187, Note_on_c, 0, 47, 99
2, 203193, Note_on_c, 0, 81, 107
2, 203193, Note_on_c, 0, 69, 105
2, 203317, Note_on_c, 0, 52, 89
2, 203443, Note_on_c, 0, 59, 0
2, 203450, Note_on_c, 0, 47, 0
2, 203453, Note_on_c, 0, 80, 106
2, 203454, Note_on_c, 0, 59, 98
2, 203455, Note_on_c, 0, 68, 110
2, 203455, Note_on_c, 0, 54, 98
2, 203456, Note_on_c, 0, 47, 95
2, 203712, Note_on_c, 0, 35, 0
2, 203712, Note_on_c, 0, 69, 0
2, 203712, Note_on_c, 0, 81, 0
2, 203715, Control_c, 0, 64, 0
2, 203718, Note_on_c, 0, 35, 95
2, 203721, Note_on_c, 0, 81, 108
2, 203722, Note_on_c, 0, 69, 106
2, 203723, Note_on_c, 0, 52, 0
2, 203765, Control_c, 0, 64, 127
2, 203804, Note_on_c, 0, 83, 0
2, 203827, Note_on_c, 0, 47, 0
2, 203838, Note_on_c, 0, 47, 101
2, 203942, Note_on_c, 0, 59, 0
2, 203942, Note_on_c, 0, 80, 0
2, 203953, Note_on_c, 0, 59, 74
2, 203953, Note_on_c, 0, 80, 94
2, 203973, Note_on_c, 0, 81, 0
2, 203982, Note_on_c, 0, 81, 105
2, 204049, Note_on_c, 0, 54, 0
2, 204052, Note_on_c, 0, 59, 0
2, 204053, Note_on_c, 0, 78, 0
2, 204053, Note_on_c, 0, 76, 0
2, 204053, Note_on_c, 0, 71, 0
2, 204053, Note_on_c, 0, 35, 0
2, 204053, Note_on_c, 0, 81, 0
2, 204053, Note_on_c, 0, 69, 0
2, 204053, Note_on_c, 0, 68, 0
2, 204053, Note_on_c, 0, 47, 0
2, 204057, Control_c, 0, 64, 0
2, 204065, Note_on_c, 0, 80, 0
2, 204106, Note_on_c, 0, 83, 109
2, 204107, Note_on_c, 0, 80, 105
2, 204107, Note_on_c, 0, 52, 104
2, 204108, Note_on_c, 0, 76, 107
2, 204109, Note_on_c, 0, 40, 97
2, 204142, Control_c, 0, 64, 127
2, 204352, Note_on_c, 0, 59, 97
2, 204352, Note_on_c, 0, 56, 95
2, 204480, Note_on_c, 0, 40, 0
2, 204480, Note_on_c, 0, 52, 0
2, 204480, Note_on_c, 0, 83, 0
2, 204484, Note_on_c, 0, 52, 97
2, 204484, Note_on_c, 0, 40, 91
2, 204487, Note_on_c, 0, 83, 101
2, 204549, Note_on_c, 0, 52, 0
2, 204550, Note_on_c, 0, 56, 0
2, 204550, Note_on_c, 0, 40, 0
2, 204550, Note_on_c, 0, 59, 0
2, 204550, Note_on_c, 0, 80, 0
2, 204551, Control_c, 0, 64, 0
2, 204551, Note_on_c, 0, 76, 0
2, 204552, Note_on_c, 0, 83, 0
2, 204622, Note_on_c, 0, 76, 106
2, 204623, Note_on_c, 0, 88, 111
2, 204624, Note_on_c, 0, 51, 102
2, 204628, Note_on_c, 0, 87, 86
2, 204629, Note_on_c, 0, 39, 100
2, 204648, Control_c, 0, 64, 127
2, 204666, Note_on_c, 0, 83, 54
2, 204764, Note_on_c, 0, 87, 0
2, 204770, Note_on_c, 0, 87, 105
2, 204775, Note_on_c, 0, 75, 104
2, 204879, Note_on_c, 0, 39, 0
2, 204879, Note_on_c, 0, 51, 0
2, 204883, Note_on_c, 0, 39, 87
2, 204885, Note_on_c, 0, 51, 93
2, 204946, Control_c, 0, 64, 0
2, 204953, Note_on_c, 0, 88, 0
2, 204953, Note_on_c, 0, 87, 0
2, 204953, Note_on_c, 0, 76, 0
2, 204954, Note_on_c, 0, 75, 0
2, 204955, Note_on_c, 0, 39, 0
2, 204956, Note_on_c, 0, 51, 0
2, 204971, Note_on_c, 0, 83, 0
2, 205022, Note_on_c, 0, 83, 108
2, 205023, Note_on_c, 0, 71, 105
2, 205027, Note_on_c, 0, 49, 106
2, 205028, Note_on_c, 0, 37, 104
2, 205079, Control_c, 0, 64, 127
2, 205273, Note_on_c, 0, 63, 100
2, 205386, Note_on_c, 0, 49, 0
2, 205392, Note_on_c, 0, 49, 91
2, 205404, Note_on_c, 0, 64, 101
2, 205532, Note_on_c, 0, 71, 0
2, 205537, Note_on_c, 0, 71, 104
2, 205538, Note_on_c, 0, 59, 109
2, 205542, Note_on_c, 0, 56, 95
2, 205793, Note_on_c, 0, 37, 0
2, 205798, Note_on_c, 0, 69, 105
2, 205803, Note_on_c, 0, 37, 98
2, 205923, Note_on_c, 0, 49, 0
2, 205934, Note_on_c, 0, 49, 93
2, 205935, Note_on_c, 0, 68, 106
2, 206054, Note_on_c, 0, 64, 0
2, 206065, Note_on_c, 0, 64, 105
2, 206092, Note_on_c, 0, 68, 0
2, 206098, Note_on_c, 0, 68, 65
2, 206157, Control_c, 0, 64, 0
2, 206166, Note_on_c, 0, 63, 0
2, 206167, Note_on_c, 0, 56, 0
2, 206170, Note_on_c, 0, 83, 0
2, 206170, Note_on_c, 0, 59, 0
2, 206170, Note_on_c, 0, 71, 0
2, 206171, Note_on_c, 0, 68, 0
2, 206177, Note_on_c, 0, 69, 0
2, 206182, Note_on_c, 0, 81, 109
2, 206184, Note_on_c, 0, 64, 0
2, 206187, Note_on_c, 0, 69, 105
2, 206188, Note_on_c, 0, 73, 111
2, 206190, Note_on_c, 0, 42, 108
2, 206192, Note_on_c, 0, 30, 106
2, 206192, Note_on_c, 0, 49, 0
2, 206200, Note_on_c, 0, 37, 0
2, 206223, Control_c, 0, 64, 127
2, 206453, Note_on_c, 0, 42, 0
2, 206458, Note_on_c, 0, 42, 93
2, 206603, Note_on_c, 0, 52, 99
2, 206603, Note_on_c, 0, 80, 109
2, 206605, Note_on_c, 0, 71, 103
2, 206606, Note_on_c, 0, 49, 96
2, 206737, Note_on_c, 0, 42, 0
2, 206742, Note_on_c, 0, 42, 100
2, 206868, Note_on_c, 0, 49, 0
2, 206868, Note_on_c, 0, 52, 0
2, 206868, Note_on_c, 0, 73, 0
2, 206868, Note_on_c, 0, 81, 0
2, 206872, Note_on_c, 0, 52, 88
2, 206873, Note_on_c, 0, 49, 96
2, 206877, Note_on_c, 0, 81, 106
2, 206879, Note_on_c, 0, 73, 108
2, 206991, Note_on_c, 0, 42, 0
2, 207000, Note_on_c, 0, 42, 102
2, 207129, Note_on_c, 0, 49, 0
2, 207129, Note_on_c, 0, 52, 0
2, 207129, Note_on_c, 0, 80, 0
2, 207133, Note_on_c, 0, 52, 89
2, 207134, Note_on_c, 0, 49, 84
2, 207137, Note_on_c, 0, 42, 0
2, 207137, Note_on_c, 0, 71, 0
2, 207138, Note_on_c, 0, 80, 110
2, 207141, Note_on_c, 0, 71, 102
2, 207142, Note_on_c, 0, 42, 83
2, 207172, Control_c, 0, 64, 0
2, 207174, Note_on_c, 0, 69, 0
2, 207176, Note_on_c, 0, 52, 0
2, 207177, Note_on_c, 0, 73, 0
2, 207178, Note_on_c, 0, 49, 0
2, 207179, Note_on_c, 0, 81, 0
2, 207191, Note_on_c, 0, 30, 0
2, 207221, Note_on_c, 0, 42, 0
2, 207266, Note_on_c, 0, 32, 96
2, 207267, Note_on_c, 0, 44, 108
2, 207283, Control_c, 0, 64, 127
2, 207395, Note_on_c, 0, 78, 110
2, 207397, Note_on_c, 0, 69, 104
2, 207513, Note_on_c, 0, 44, 0
2, 207521, Note_on_c, 0, 44, 98
2, 207662, Note_on_c, 0, 52, 98
2, 207663, Note_on_c, 0, 47, 103
2, 207664, Note_on_c, 0, 68, 110
2, 207664, Note_on_c, 0, 76, 106
2, 207782, Note_on_c, 0, 44, 0
2, 207791, Note_on_c, 0, 44, 97
2, 207912, Note_on_c, 0, 52, 0
2, 207920, Note_on_c, 0, 47, 0
2, 207923, Note_on_c, 0, 52, 90
2, 207924, Note_on_c, 0, 47, 91
2, 208051, Note_on_c, 0, 44, 0
2, 208054, Note_on_c, 0, 73, 105
2, 208058, Note_on_c, 0, 44, 94
2, 208079, Note_on_c, 0, 75, 88
2, 208120, Note_on_c, 0, 76, 0
2, 208124, Note_on_c, 0, 76, 84
2, 208151, Note_on_c, 0, 78, 0
2, 208160, Note_on_c, 0, 78, 102
2, 208166, Note_on_c, 0, 47, 0
2, 208166, Note_on_c, 0, 52, 0
2, 208170, Note_on_c, 0, 47, 90
2, 208177, Note_on_c, 0, 52, 76
2, 208262, Control_c, 0, 64, 0
2, 208270, Note_on_c, 0, 75, 0
2, 208270, Note_on_c, 0, 47, 0
2, 208272, Note_on_c, 0, 68, 0
2, 208272, Note_on_c, 0, 78, 0
2, 208289, Note_on_c, 0, 71, 0
2, 208296, Note_on_c, 0, 32, 0
2, 208296, Note_on_c, 0, 69, 0
2, 208296, Note_on_c, 0, 80, 0
2, 208304, Note_on_c, 0, 81, 109
2, 208304, Note_on_c, 0, 44, 0
2, 208304, Note_on_c, 0, 52, 0
2, 208304, Note_on_c, 0, 73, 0
2, 208304, Note_on_c, 0, 76, 0
2, 208307, Note_on_c, 0, 69, 106
2, 208309, Note_on_c, 0, 76, 104
2, 208314, Note_on_c, 0, 73, 106
2, 208314, Note_on_c, 0, 52, 97
2, 208315, Note_on_c, 0, 49, 101
2, 208381, Control_c, 0, 64, 127
2, 208444, Note_on_c, 0, 33, 98
2, 208582, Note_on_c, 0, 45, 97
2, 208696, Note_on_c, 0, 52, 0
2, 208704, Note_on_c, 0, 45, 0
2, 208704, Note_on_c, 0, 49, 0
2, 208707, Note_on_c, 0, 52, 99
2, 208709, Note_on_c, 0, 49, 108
2, 208715, Note_on_c, 0, 45, 96
2, 208768, Note_on_c, 0, 47, 29
2, 208773, Note_on_c, 0, 47, 0
2, 208842, Note_on_c, 0, 33, 0
2, 208852, Note_on_c, 0, 33, 95
2, 208965, Note_on_c, 0, 45, 0
2, 208974, Note_on_c, 0, 45, 93
2, 208994, Note_on_c, 0, 80, 106
2, 209118, Note_on_c, 0, 49, 0
2, 209118, Note_on_c, 0, 52, 0
2, 209118, Note_on_c, 0, 81, 0
2, 209122, Note_on_c, 0, 81, 100
2, 209123, Note_on_c, 0, 52, 94
2, 209126, Note_on_c, 0, 49, 96
2, 209224, Control_c, 0, 64, 0
2, 209228, Note_on_c, 0, 80, 0
2, 209229, Note_on_c, 0, 73, 0
2, 209230, Note_on_c, 0, 49, 0
2, 209230, Note_on_c, 0, 69, 0
2, 209231, Note_on_c, 0, 76, 0
2, 209231, Note_on_c, 0, 45, 0
2, 209231, Note_on_c, 0, 52, 0
2, 209241, Note_on_c, 0, 33, 0
2, 209249, Note_on_c, 0, 81, 0
2, 209254, Note_on_c, 0, 87, 110
2, 209259, Note_on_c, 0, 75, 107
2, 209259, Note_on_c, 0, 83, 99
2, 209259, Note_on_c, 0, 81, 101
2, 209261, Note_on_c, 0, 54, 105
2, 209261, Note_on_c, 0, 47, 106
2, 209341, Control_c, 0, 64, 127
2, 209513, Note_on_c, 0, 35, 96
2, 209633, Note_on_c, 0, 47, 0
2, 209643, Note_on_c, 0, 42, 100
2, 209644, Note_on_c, 0, 47, 99
2, 209914, Note_on_c, 0, 71, 104
2, 209970, Note_on_c, 0, 69, 95
2, 210031, Note_on_c, 0, 66, 98
2, 210082, Note_on_c, 0, 64, 99
2, 210101, Note_on_c, 0, 87, 0
2, 210135, Note_on_c, 0, 59, 97
2, 210186, Note_on_c, 0, 35, 0
2, 210186, Note_on_c, 0, 47, 0
2, 210195, Note_on_c, 0, 47, 104
2, 210197, Note_on_c, 0, 35, 97
2, 210478, Note_on_c, 0, 83, 0
2, 210480, Control_c, 0, 64, 0
2, 210481, Note_on_c, 0, 64, 0
2, 210482, Note_on_c, 0, 88, 109
2, 210482, Note_on_c, 0, 75, 0
2, 210483, Note_on_c, 0, 81, 0
2, 210483, Note_on_c, 0, 40, 99
2, 210483, Note_on_c, 0, 76, 108
2, 210483, Note_on_c, 0, 47, 0
2, 210484, Note_on_c, 0, 83, 100
2, 210484, Note_on_c, 0, 71, 0
2, 210485, Note_on_c, 0, 42, 0
2, 210486, Note_on_c, 0, 69, 0
2, 210486, Note_on_c, 0, 66, 0
2, 210486, Note_on_c, 0, 80, 103
2, 210487, Note_on_c, 0, 28, 103
2, 210496, Note_on_c, 0, 86, 94
2, 210508, Note_on_c, 0, 54, 0
2, 210508, Note_on_c, 0, 59, 0
2, 210516, Note_on_c, 0, 35, 0
2, 210777, Control_c, 0, 64, 127
2, 210800, Note_on_c, 0, 86, 0
2, 210877, Note_on_c, 0, 76, 0
2, 210885, Note_on_c, 0, 76, 83
2, 211023, Note_on_c, 0, 88, 0
2, 211028, Note_on_c, 0, 88, 103
2, 211153, Note_on_c, 0, 76, 0
2, 211164, Note_on_c, 0, 76, 86
2, 211276, Note_on_c, 0, 83, 0
2, 211286, Note_on_c, 0, 83, 98
2, 211415, Note_on_c, 0, 88, 0
2, 211423, Note_on_c, 0, 88, 103
2, 211545, Note_on_c, 0, 76, 0
2, 211552, Note_on_c, 0, 76, 97
2, 211676, Note_on_c, 0, 83, 0
2, 211687, Note_on_c, 0, 83, 100
2, 211806, Note_on_c, 0, 88, 0
2, 211816, Note_on_c, 0, 88, 104
2, 211929, Note_on_c, 0, 76, 0
2, 211940, Note_on_c, 0, 76, 98
2, 212060, Note_on_c, 0, 83, 0
2, 212070, Note_on_c, 0, 83, 98
2, 212183, Note_on_c, 0, 88, 0
2, 212194, Note_on_c, 0, 88, 105
2, 212298, Note_on_c, 0, 40, 0
2, 212305, Note_on_c, 0, 28, 0
2, 212305, Note_on_c, 0, 76, 0
2, 212309, Note_on_c, 0, 40, 96
2, 212310, Note_on_c, 0, 76, 103
2, 212310, Note_on_c, 0, 28, 97
2, 212451, Note_on_c, 0, 28, 0
2, 212451, Note_on_c, 0, 40, 0
2, 212451, Note_on_c, 0, 76, 0
2, 212451, Note_on_c, 0, 80, 0
2, 212451, Note_on_c, 0, 83, 0
2, 212451, Note_on_c, 0, 88, 0
2, 212456, Note_on_c, 0, 88, 109
2, 212459, Note_on_c, 0, 83, 99
2, 212460, Note_on_c, 0, 76, 109
2, 212461, Note_on_c, 0, 80, 104
2, 212461, Note_on_c, 0, 40, 95
2, 212461, Note_on_c, 0, 28, 100
2, 212473, Control_c, 0, 64, 0
2, 212613, Control_c, 0, 64, 127
2, 212743, Note_on_c, 0, 76, 0
2, 212752, Note_on_c, 0, 76, 99
2, 212866, Note_on_c, 0, 83, 0
2, 212872, Note_on_c, 0, 83, 99
2, 213004, Note_on_c, 0, 88, 0
2, 213010, Note_on_c, 0, 88, 108
2, 213135, Note_on_c, 0, 76, 0
2, 213140, Note_on_c, 0, 76, 100
2, 213258, Note_on_c, 0, 83, 0
2, 213268, Note_on_c, 0, 83, 103
2, 213388, Note_on_c, 0, 88, 0
2, 213399, Note_on_c, 0, 88, 107
2, 213519, Note_on_c, 0, 76, 0
2, 213530, Note_on_c, 0, 76, 103
2, 213657, Note_on_c, 0, 83, 0
2, 213666, Note_on_c, 0, 83, 102
2, 213788, Note_on_c, 0, 88, 0
2, 213794, Note_on_c, 0, 88, 107
2, 213918, Note_on_c, 0, 76, 0
2, 213922, Note_on_c, 0, 76, 99
2, 213975, Note_on_c, 0, 78, 94
2, 214003, Note_on_c, 0, 80, 0
2, 214014, Note_on_c, 0, 80, 93
2, 214051, Note_on_c, 0, 81, 94
2, 214080, Note_on_c, 0, 83, 0
2, 214085, Note_on_c, 0, 83, 100
2, 214187, Note_on_c, 0, 88, 0
2, 214195, Note_on_c, 0, 28, 0
2, 214195, Note_on_c, 0, 40, 0
2, 214195, Note_on_c, 0, 76, 0
2, 214195, Note_on_c, 0, 80, 0
2, 214195, Note_on_c, 0, 83, 0
2, 214198, Note_on_c, 0, 88, 108
2, 214200, Note_on_c, 0, 76, 105
2, 214202, Note_on_c, 0, 83, 93
2, 214203, Note_on_c, 0, 40, 88
2, 214204, Note_on_c, 0, 80, 99
2, 214205, Note_on_c, 0, 28, 100
2, 214220, Note_on_c, 0, 86, 81
2, 214325, Note_on_c, 0, 88, 0
2, 214333, Note_on_c, 0, 28, 0
2, 214333, Note_on_c, 0, 40, 0
2, 214333, Note_on_c, 0, 76, 0
2, 214333, Note_on_c, 0, 80, 0
2, 214333, Note_on_c, 0, 83, 0
2, 214337, Note_on_c, 0, 88, 107
2, 214338, Note_on_c, 0, 80, 104
2, 214338, Note_on_c, 0, 40, 87
2, 214338, Note_on_c, 0, 76, 104
2, 214339, Note_on_c, 0, 83, 94
2, 214339, Note_on_c, 0, 28, 95
2, 214456, Note_on_c, 0, 28, 0
2, 214456, Note_on_c, 0, 40, 0
2, 214456, Note_on_c, 0, 83, 0
2, 214456, Note_on_c, 0, 88, 0
2, 214464, Note_on_c, 0, 76, 0
2, 214464, Note_on_c, 0, 80, 0
2, 214464, Note_on_c, 0, 86, 0
2, 214464, Note_on_c, 0, 40, 91
2, 214464, Note_on_c, 0, 28, 97
2, 214467, Note_on_c, 0, 83, 98
2, 214467, Note_on_c, 0, 88, 105
2, 214468, Note_on_c, 0, 80, 101
2, 214468, Note_on_c, 0, 76, 107
2, 214471, Note_on_c, 0, 86, 98
2, 214594, Note_on_c, 0, 76, 0
2, 214594, Note_on_c, 0, 80, 0
2, 214594, Note_on_c, 0, 83, 0
2, 214594, Note_on_c, 0, 88, 0
2, 214602, Note_on_c, 0, 28, 0
2, 214602, Note_on_c, 0, 40, 0
2, 214602, Note_on_c, 0, 86, 0
2, 214603, Note_on_c, 0, 83, 100
2, 214604, Note_on_c, 0, 88, 107
2, 214605, Note_on_c, 0, 80, 107
2, 214605, Note_on_c, 0, 76, 110
2, 214606, Note_on_c, 0, 40, 91
2, 214606, Note_on_c, 0, 28, 100
2, 214612, Note_on_c, 0, 86, 95
2, 214789, Note_on_c, 0, 28, 0
2, 214790, Control_c, 0, 64, 0
2, 214792, Note_on_c, 0, 86, 0
2, 214793, Note_on_c, 0, 83, 0
2, 214794, Note_on_c, 0, 76, 0
2, 214794, Note_on_c, 0, 40, 0
2, 214795, Note_on_c, 0, 88, 0
2, 214796, Note_on_c, 0, 80, 0
2, 215116, Note_on_c, 0, 78, 0
2, 215201, Note_on_c, 0, 81, 0
2, 215202, End_track
0, 0, End_of_file
