0, 0, Header, 1, 2, 384
1, 0, Start_track
1, 0, Tempo, 500000
1, 0, Time_signature, 4, 2, 24, 8
1, 1, End_track
2, 0, Start_track
2, 1739, Note_on_c, 0, 41, 64
2, 1740, Note_on_c, 0, 68, 79
2, 1741, Note_on_c, 0, 65, 70
2, 1754, Note_on_c, 0, 60, 62
2, 1794, Note_on_c, 0, 60, 0
2, 1892, Note_on_c, 0, 68, 0
2, 1897, Note_on_c, 0, 53, 69
2, 1899, Note_on_c, 0, 65, 0
2, 1935, Note_on_c, 0, 53, 0
2, 1943, Note_on_c, 0, 41, 0
2, 1993, Note_on_c, 0, 53, 63
2, 1993, Note_on_c, 0, 65, 70
2, 1993, Note_on_c, 0, 68, 82
2, 2044, Note_on_c, 0, 53, 0
2, 2065, Note_on_c, 0, 41, 63
2, 2116, Note_on_c, 0, 65, 0
2, 2145, Note_on_c, 0, 68, 0
2, 2229, Note_on_c, 0, 53, 65
2, 2238, Note_on_c, 0, 68, 77
2, 2240, Note_on_c, 0, 65, 68
2, 2262, Note_on_c, 0, 41, 0
2, 2302, Note_on_c, 0, 53, 0
2, 2370, Note_on_c, 0, 41, 71
2, 2450, Note_on_c, 0, 41, 0
2, 2450, Note_on_c, 0, 68, 0
2, 2455, Note_on_c, 0, 65, 0
2, 2516, Note_on_c, 0, 53, 79
2, 2536, Note_on_c, 0, 65, 67
2, 2537, Note_on_c, 0, 68, 81
2, 2594, Note_on_c, 0, 56, 79
2, 2620, Note_on_c, 0, 53, 0
2, 2649, Note_on_c, 0, 65, 0
2, 2651, Note_on_c, 0, 56, 0
2, 2688, Note_on_c, 0, 68, 0
2, 2693, Note_on_c, 0, 41, 73
2, 2693, Note_on_c, 0, 68, 77
2, 2694, Note_on_c, 0, 65, 68
2, 2756, Note_on_c, 0, 53, 64
2, 2759, Note_on_c, 0, 41, 0
2, 2810, Note_on_c, 0, 68, 0
2, 2818, Note_on_c, 0, 53, 0
2, 2857, Note_on_c, 0, 63, 78
2, 2857, Note_on_c, 0, 67, 80
2, 2858, Note_on_c, 0, 39, 69
2, 2883, Note_on_c, 0, 65, 0
2, 2900, Note_on_c, 0, 39, 0
2, 2960, Note_on_c, 0, 63, 0
2, 2990, Note_on_c, 0, 67, 0
2, 3017, Note_on_c, 0, 41, 73
2, 3017, Note_on_c, 0, 68, 88
2, 3021, Note_on_c, 0, 65, 69
2, 3029, Note_on_c, 0, 60, 71
2, 3175, Note_on_c, 0, 60, 0
2, 3182, Note_on_c, 0, 41, 0
2, 3188, Note_on_c, 0, 53, 64
2, 3198, Note_on_c, 0, 68, 0
2, 3206, Note_on_c, 0, 65, 0
2, 3256, Note_on_c, 0, 53, 0
2, 3276, Note_on_c, 0, 68, 81
2, 3278, Note_on_c, 0, 65, 70
2, 3371, Note_on_c, 0, 41, 69
2, 3454, Note_on_c, 0, 68, 0
2, 3461, Note_on_c, 0, 65, 0
2, 3536, Note_on_c, 0, 68, 81
2, 3536, Note_on_c, 0, 41, 0
2, 3536, Note_on_c, 0, 65, 64
2, 3537, Note_on_c, 0, 53, 69
2, 3644, Note_on_c, 0, 53, 0
2, 3695, Note_on_c, 0, 41, 70
2, 3714, Note_on_c, 0, 68, 0
2, 3720, Note_on_c, 0, 65, 0
2, 3805, Note_on_c, 0, 68, 80
2, 3808, Note_on_c, 0, 65, 71
2, 3850, Note_on_c, 0, 53, 76
2, 3882, Note_on_c, 0, 41, 0
2, 3896, Note_on_c, 0, 53, 0
2, 3945, Note_on_c, 0, 68, 0
2, 3996, Note_on_c, 0, 39, 74
2, 4007, Note_on_c, 0, 67, 78
2, 4007, Note_on_c, 0, 63, 78
2, 4012, Note_on_c, 0, 65, 0
2, 4046, Note_on_c, 0, 51, 72
2, 4050, Note_on_c, 0, 39, 0
2, 4114, Note_on_c, 0, 51, 0
2, 4124, Note_on_c, 0, 63, 0
2, 4149, Note_on_c, 0, 67, 0
2, 4150, Note_on_c, 0, 38, 81
2, 4158, Note_on_c, 0, 66, 79
2, 4172, Note_on_c, 0, 62, 64
2, 4214, Note_on_c, 0, 38, 0
2, 4227, Note_on_c, 0, 66, 0
2, 4228, Note_on_c, 0, 50, 57
2, 4231, Note_on_c, 0, 62, 0
2, 4285, Note_on_c, 0, 50, 0
2, 4325, Note_on_c, 0, 65, 81
2, 4328, Note_on_c, 0, 37, 81
2, 4329, Note_on_c, 0, 56, 80
2, 4331, Note_on_c, 0, 49, 78
2, 4332, Note_on_c, 0, 61, 71
2, 4481, Note_on_c, 0, 37, 0
2, 4482, Note_on_c, 0, 61, 0
2, 4482, Note_on_c, 0, 56, 0
2, 4485, Note_on_c, 0, 49, 0
2, 4489, Note_on_c, 0, 65, 0
2, 4494, Note_on_c, 0, 49, 62
2, 4566, Note_on_c, 0, 65, 76
2, 4569, Note_on_c, 0, 61, 73
2, 4577, Note_on_c, 0, 49, 0
2, 4663, Note_on_c, 0, 37, 72
2, 4742, Note_on_c, 0, 65, 0
2, 4743, Note_on_c, 0, 61, 0
2, 4834, Note_on_c, 0, 49, 76
2, 4834, Note_on_c, 0, 65, 80
2, 4838, Note_on_c, 0, 61, 79
2, 4866, Note_on_c, 0, 37, 0
2, 4874, Note_on_c, 0, 49, 0
2, 4987, Note_on_c, 0, 37, 73
2, 5023, Note_on_c, 0, 61, 0
2, 5026, Note_on_c, 0, 65, 0
2, 5138, Note_on_c, 0, 49, 81
2, 5140, Note_on_c, 0, 65, 75
2, 5149, Note_on_c, 0, 61, 73
2, 5212, Note_on_c, 0, 53, 77
2, 5245, Note_on_c, 0, 37, 0
2, 5249, Note_on_c, 0, 61, 0
2, 5252, Note_on_c, 0, 65, 0
2, 5252, Note_on_c, 0, 49, 0
2, 5252, Note_on_c, 0, 53, 0
2, 5302, Note_on_c, 0, 37, 86
2, 5310, Note_on_c, 0, 65, 80
2, 5315, Note_on_c, 0, 56, 66
2, 5316, Note_on_c, 0, 61, 74
2, 5379, Note_on_c, 0, 49, 58
2, 5422, Note_on_c, 0, 49, 0
2, 5429, Note_on_c, 0, 37, 0
2, 5470, Note_on_c, 0, 63, 81
2, 5471, Note_on_c, 0, 36, 74
2, 5472, Note_on_c, 0, 60, 66
2, 5498, Note_on_c, 0, 61, 0
2, 5500, Note_on_c, 0, 65, 0
2, 5511, Note_on_c, 0, 36, 0
2, 5519, Note_on_c, 0, 60, 0
2, 5544, Note_on_c, 0, 56, 0
2, 5578, Note_on_c, 0, 63, 0
2, 5625, Note_on_c, 0, 65, 79
2, 5627, Note_on_c, 0, 61, 75
2, 5631, Note_on_c, 0, 49, 76
2, 5632, Note_on_c, 0, 37, 75
2, 5632, Note_on_c, 0, 56, 75
2, 5686, Note_on_c, 0, 56, 0
2, 5698, Note_on_c, 0, 49, 0
2, 5775, Note_on_c, 0, 61, 0
2, 5780, Note_on_c, 0, 61, 25
2, 5801, Note_on_c, 0, 65, 0
2, 5813, Note_on_c, 0, 61, 0
2, 5886, Note_on_c, 0, 65, 89
2, 5886, Note_on_c, 0, 61, 82
2, 5887, Note_on_c, 0, 49, 82
2, 5973, Note_on_c, 0, 49, 0
2, 5982, Note_on_c, 0, 37, 0
2, 6039, Note_on_c, 0, 65, 0
2, 6046, Note_on_c, 0, 61, 0
2, 6131, Note_on_c, 0, 65, 90
2, 6139, Note_on_c, 0, 61, 87
2, 6139, Note_on_c, 0, 56, 89
2, 6140, Note_on_c, 0, 46, 86
2, 6142, Note_on_c, 0, 34, 87
2, 6285, Note_on_c, 0, 61, 0
2, 6293, Note_on_c, 0, 65, 0
2, 6347, Note_on_c, 0, 56, 0
2, 6387, Note_on_c, 0, 65, 94
2, 6393, Note_on_c, 0, 61, 88
2, 6423, Note_on_c, 0, 46, 0
2, 6428, Note_on_c, 0, 34, 0
2, 6574, Note_on_c, 0, 65, 0
2, 6575, Note_on_c, 0, 61, 0
2, 6637, Note_on_c, 0, 36, 92
2, 6638, Note_on_c, 0, 67, 94
2, 6638, Note_on_c, 0, 48, 94
2, 6639, Note_on_c, 0, 63, 91
2, 6639, Note_on_c, 0, 58, 88
2, 6724, Note_on_c, 0, 63, 0
2, 6726, Note_on_c, 0, 48, 0
2, 6727, Note_on_c, 0, 67, 0
2, 6728, Note_on_c, 0, 36, 0
2, 6735, Note_on_c, 0, 58, 0
2, 6793, Note_on_c, 0, 58, 81
2, 6794, Note_on_c, 0, 67, 78
2, 6794, Note_on_c, 0, 63, 82
2, 6829, Note_on_c, 0, 58, 0
2, 6834, Note_on_c, 0, 63, 0
2, 6860, Note_on_c, 0, 67, 0
2, 6967, Note_on_c, 0, 72, 89
2, 6968, Note_on_c, 0, 80, 96
2, 6969, Note_on_c, 0, 41, 78
2, 6974, Note_on_c, 0, 40, 74
2, 6979, Note_on_c, 0, 77, 78
2, 7009, Note_on_c, 0, 40, 0
2, 7108, Note_on_c, 0, 53, 78
2, 7127, Note_on_c, 0, 41, 0
2, 7143, Note_on_c, 0, 77, 0
2, 7145, Note_on_c, 0, 72, 0
2, 7145, Note_on_c, 0, 80, 0
2, 7180, Note_on_c, 0, 53, 0
2, 7202, Note_on_c, 0, 41, 86
2, 7208, Note_on_c, 0, 80, 92
2, 7213, Note_on_c, 0, 77, 88
2, 7291, Note_on_c, 0, 56, 96
2, 7340, Note_on_c, 0, 41, 0
2, 7348, Note_on_c, 0, 77, 0
2, 7369, Note_on_c, 0, 56, 0
2, 7375, Note_on_c, 0, 80, 0
2, 7447, Note_on_c, 0, 41, 76
2, 7478, Note_on_c, 0, 80, 90
2, 7482, Note_on_c, 0, 77, 88
2, 7532, Note_on_c, 0, 51, 86
2, 7579, Note_on_c, 0, 41, 0
2, 7616, Note_on_c, 0, 55, 78
2, 7657, Note_on_c, 0, 80, 0
2, 7669, Note_on_c, 0, 77, 0
2, 7691, Note_on_c, 0, 55, 0
2, 7693, Note_on_c, 0, 51, 0
2, 7731, Note_on_c, 0, 41, 82
2, 7737, Note_on_c, 0, 80, 91
2, 7738, Note_on_c, 0, 77, 88
2, 7822, Note_on_c, 0, 51, 72
2, 7825, Note_on_c, 0, 41, 0
2, 7882, Note_on_c, 0, 55, 77
2, 7885, Note_on_c, 0, 80, 0
2, 7891, Note_on_c, 0, 51, 0
2, 7895, Note_on_c, 0, 77, 0
2, 7949, Note_on_c, 0, 80, 88
2, 7954, Note_on_c, 0, 68, 77
2, 7955, Note_on_c, 0, 55, 0
2, 7959, Note_on_c, 0, 77, 82
2, 7964, Note_on_c, 0, 68, 0
2, 7970, Note_on_c, 0, 56, 83
2, 8015, Note_on_c, 0, 56, 0
2, 8052, Note_on_c, 0, 55, 78
2, 8074, Note_on_c, 0, 80, 0
2, 8092, Note_on_c, 0, 77, 0
2, 8105, Note_on_c, 0, 75, 88
2, 8107, Note_on_c, 0, 79, 81
2, 8114, Note_on_c, 0, 51, 82
2, 8152, Note_on_c, 0, 55, 0
2, 8203, Note_on_c, 0, 51, 0
2, 8216, Note_on_c, 0, 75, 0
2, 8249, Note_on_c, 0, 41, 87
2, 8252, Note_on_c, 0, 77, 94
2, 8252, Note_on_c, 0, 80, 95
2, 8253, Note_on_c, 0, 72, 89
2, 8289, Note_on_c, 0, 79, 0
2, 8291, Note_on_c, 0, 72, 0
2, 8359, Note_on_c, 0, 77, 0
2, 8388, Note_on_c, 0, 53, 77
2, 8392, Note_on_c, 0, 41, 0
2, 8421, Note_on_c, 0, 80, 0
2, 8471, Note_on_c, 0, 53, 0
2, 8490, Note_on_c, 0, 41, 87
2, 8490, Note_on_c, 0, 80, 93
2, 8490, Note_on_c, 0, 72, 75
2, 8494, Note_on_c, 0, 77, 87
2, 8547, Note_on_c, 0, 41, 0
2, 8587, Note_on_c, 0, 56, 85
2, 8673, Note_on_c, 0, 56, 0
2, 8675, Note_on_c, 0, 77, 0
2, 8681, Note_on_c, 0, 80, 0
2, 8725, Note_on_c, 0, 41, 78
2, 8747, Note_on_c, 0, 72, 0
2, 8753, Note_on_c, 0, 80, 93
2, 8757, Note_on_c, 0, 77, 93
2, 8814, Note_on_c, 0, 51, 85
2, 8822, Note_on_c, 0, 41, 0
2, 8891, Note_on_c, 0, 58, 81
2, 8934, Note_on_c, 0, 58, 0
2, 8949, Note_on_c, 0, 51, 0
2, 8953, Note_on_c, 0, 77, 0
2, 8970, Note_on_c, 0, 80, 0
2, 9005, Note_on_c, 0, 41, 84
2, 9009, Note_on_c, 0, 84, 97
2, 9012, Note_on_c, 0, 80, 87
2, 9099, Note_on_c, 0, 51, 83
2, 9135, Note_on_c, 0, 80, 0
2, 9137, Note_on_c, 0, 41, 0
2, 9177, Note_on_c, 0, 84, 0
2, 9187, Note_on_c, 0, 84, 91
2, 9188, Note_on_c, 0, 55, 82
2, 9190, Note_on_c, 0, 80, 85
2, 9191, Note_on_c, 0, 51, 0
2, 9258, Note_on_c, 0, 55, 0
2, 9265, Note_on_c, 0, 84, 0
2, 9265, Note_on_c, 0, 51, 84
2, 9266, Note_on_c, 0, 80, 0
2, 9335, Note_on_c, 0, 51, 0
2, 9348, Note_on_c, 0, 84, 94
2, 9348, Note_on_c, 0, 56, 97
2, 9352, Note_on_c, 0, 80, 86
2, 9413, Note_on_c, 0, 51, 69
2, 9413, Note_on_c, 0, 56, 0
2, 9416, Note_on_c, 0, 84, 0
2, 9457, Note_on_c, 0, 51, 0
2, 9467, Note_on_c, 0, 80, 0
2, 9505, Note_on_c, 0, 85, 103
2, 9505, Note_on_c, 0, 37, 91
2, 9507, Note_on_c, 0, 77, 91
2, 9509, Note_on_c, 0, 73, 97
2, 9641, Note_on_c, 0, 49, 71
2, 9684, Note_on_c, 0, 77, 0
2, 9686, Note_on_c, 0, 85, 0
2, 9687, Note_on_c, 0, 73, 0
2, 9694, Note_on_c, 0, 37, 0
2, 9697, Note_on_c, 0, 49, 0
2, 9742, Note_on_c, 0, 37, 89
2, 9748, Note_on_c, 0, 73, 89
2, 9749, Note_on_c, 0, 77, 89
2, 9822, Note_on_c, 0, 37, 0
2, 9840, Note_on_c, 0, 53, 93
2, 9890, Note_on_c, 0, 53, 0
2, 9960, Note_on_c, 0, 73, 0
2, 9960, Note_on_c, 0, 77, 0
2, 9975, Note_on_c, 0, 37, 83
2, 10020, Note_on_c, 0, 77, 86
2, 10024, Note_on_c, 0, 73, 86
2, 10059, Note_on_c, 0, 49, 77
2, 10076, Control_c, 0, 64, 127
2, 10145, Note_on_c, 0, 37, 0
2, 10155, Note_on_c, 0, 55, 83
2, 10173, Control_c, 0, 64, 0
2, 10177, Note_on_c, 0, 73, 0
2, 10178, Note_on_c, 0, 49, 0
2, 10180, Note_on_c, 0, 77, 0
2, 10222, Note_on_c, 0, 55, 0
2, 10252, Note_on_c, 0, 77, 97
2, 10254, Note_on_c, 0, 73, 95
2, 10285, Note_on_c, 0, 49, 81
2, 10352, Control_c, 0, 64, 127
2, 10378, Note_on_c, 0, 53, 75
2, 10414, Note_on_c, 0, 56, 84
2, 10444, Note_on_c, 0, 77, 0
2, 10452, Note_on_c, 0, 73, 0
2, 10461, Note_on_c, 0, 73, 98
2, 10462, Note_on_c, 0, 61, 94
2, 10531, Note_on_c, 0, 77, 84
2, 10578, Note_on_c, 0, 65, 79
2, 10619, Note_on_c, 0, 80, 82
2, 10624, Note_on_c, 0, 68, 77
2, 10683, Note_on_c, 0, 85, 77
2, 10732, Control_c, 0, 64, 0
2, 10735, Note_on_c, 0, 53, 0
2, 10735, Note_on_c, 0, 68, 0
2, 10735, Note_on_c, 0, 73, 0
2, 10735, Note_on_c, 0, 65, 0
2, 10736, Note_on_c, 0, 56, 0
2, 10736, Note_on_c, 0, 80, 0
2, 10736, Note_on_c, 0, 61, 0
2, 10736, Note_on_c, 0, 49, 0
2, 10739, Note_on_c, 0, 85, 0
2, 10744, Note_on_c, 0, 77, 0
2, 10762, Note_on_c, 0, 87, 108
2, 10764, Note_on_c, 0, 75, 107
2, 10772, Note_on_c, 0, 63, 91
2, 10776, Note_on_c, 0, 58, 90
2, 10777, Note_on_c, 0, 51, 83
2, 10779, Note_on_c, 0, 55, 84
2, 10813, Control_c, 0, 64, 127
2, 11020, Note_on_c, 0, 51, 0
2, 11020, Note_on_c, 0, 58, 0
2, 11020, Note_on_c, 0, 63, 0
2, 11025, Note_on_c, 0, 39, 85
2, 11027, Note_on_c, 0, 58, 94
2, 11027, Note_on_c, 0, 63, 97
2, 11029, Note_on_c, 0, 51, 86
2, 11034, Control_c, 0, 64, 0
2, 11050, Note_on_c, 0, 75, 0
2, 11051, Note_on_c, 0, 87, 0
2, 11082, Note_on_c, 0, 55, 0
2, 11082, Control_c, 0, 64, 127
2, 11426, Control_c, 0, 64, 0
2, 11426, Note_on_c, 0, 39, 0
2, 11443, Note_on_c, 0, 51, 0
2, 11443, Note_on_c, 0, 58, 0
2, 11443, Note_on_c, 0, 63, 0
2, 11564, Note_on_c, 0, 68, 87
2, 11569, Note_on_c, 0, 56, 83
2, 11627, Control_c, 0, 64, 127
2, 11634, Note_on_c, 0, 58, 79
2, 11635, Note_on_c, 0, 70, 80
2, 11661, Note_on_c, 0, 56, 0
2, 11670, Note_on_c, 0, 68, 0
2, 11670, Control_c, 0, 64, 0
2, 11673, Note_on_c, 0, 58, 0
2, 11677, Note_on_c, 0, 70, 0
2, 11683, Note_on_c, 0, 60, 77
2, 11698, Note_on_c, 0, 72, 91
2, 11736, Note_on_c, 0, 60, 0
2, 11758, Control_c, 0, 64, 127
2, 11760, Note_on_c, 0, 61, 83
2, 11761, Note_on_c, 0, 73, 91
2, 11812, Note_on_c, 0, 63, 76
2, 11831, Note_on_c, 0, 75, 85
2, 11855, Note_on_c, 0, 65, 74
2, 11889, Note_on_c, 0, 77, 85
2, 11934, Note_on_c, 0, 79, 86
2, 11935, Note_on_c, 0, 67, 83
2, 12003, Note_on_c, 0, 72, 0
2, 12009, Note_on_c, 0, 75, 0
2, 12010, Control_c, 0, 64, 0
2, 12010, Note_on_c, 0, 73, 0
2, 12010, Note_on_c, 0, 61, 0
2, 12011, Note_on_c, 0, 63, 0
2, 12011, Note_on_c, 0, 77, 0
2, 12012, Note_on_c, 0, 65, 0
2, 12012, Note_on_c, 0, 79, 0
2, 12013, Note_on_c, 0, 67, 0
2, 12013, Note_on_c, 0, 80, 102
2, 12015, Note_on_c, 0, 72, 96
2, 12015, Note_on_c, 0, 77, 90
2, 12015, Note_on_c, 0, 41, 86
2, 12021, Note_on_c, 0, 68, 97
2, 12096, Control_c, 0, 64, 127
2, 12131, Note_on_c, 0, 48, 69
2, 12239, Note_on_c, 0, 56, 76
2, 12318, Note_on_c, 0, 80, 0
2, 12326, Note_on_c, 0, 41, 0
2, 12330, Note_on_c, 0, 80, 97
2, 12334, Note_on_c, 0, 68, 0
2, 12336, Note_on_c, 0, 41, 77
2, 12341, Note_on_c, 0, 77, 0
2, 12344, Note_on_c, 0, 68, 91
2, 12348, Note_on_c, 0, 77, 80
2, 12350, Control_c, 0, 64, 0
2, 12353, Note_on_c, 0, 48, 0
2, 12353, Note_on_c, 0, 56, 0
2, 12353, Note_on_c, 0, 72, 0
2, 12395, Control_c, 0, 64, 127
2, 12483, Note_on_c, 0, 48, 72
2, 12506, Note_on_c, 0, 75, 78
2, 12507, Note_on_c, 0, 67, 78
2, 12570, Note_on_c, 0, 56, 77
2, 12579, Note_on_c, 0, 68, 0
2, 12579, Note_on_c, 0, 77, 0
2, 12579, Note_on_c, 0, 80, 0
2, 12584, Note_on_c, 0, 80, 93
2, 12588, Note_on_c, 0, 77, 91
2, 12589, Note_on_c, 0, 68, 92
2, 12648, Note_on_c, 0, 41, 0
2, 12654, Note_on_c, 0, 41, 73
2, 12654, Note_on_c, 0, 48, 0
2, 12654, Note_on_c, 0, 75, 0
2, 12654, Note_on_c, 0, 67, 0
2, 12657, Control_c, 0, 64, 0
2, 12718, Control_c, 0, 64, 127
2, 12788, Note_on_c, 0, 48, 64
2, 12829, Note_on_c, 0, 82, 95
2, 12838, Note_on_c, 0, 70, 83
2, 12840, Note_on_c, 0, 56, 0
2, 12847, Note_on_c, 0, 56, 73
2, 12956, Note_on_c, 0, 41, 0
2, 12963, Note_on_c, 0, 68, 0
2, 12965, Note_on_c, 0, 41, 76
2, 12966, Note_on_c, 0, 56, 0
2, 12966, Note_on_c, 0, 48, 0
2, 12966, Note_on_c, 0, 82, 0
2, 12967, Control_c, 0, 64, 0
2, 12967, Note_on_c, 0, 70, 0
2, 12967, Note_on_c, 0, 84, 103
2, 12971, Note_on_c, 0, 77, 0
2, 12971, Note_on_c, 0, 80, 0
2, 12974, Note_on_c, 0, 72, 93
2, 12989, Note_on_c, 0, 81, 72
2, 13025, Control_c, 0, 64, 127
2, 13077, Note_on_c, 0, 48, 58
2, 13109, Note_on_c, 0, 72, 0
2, 13115, Note_on_c, 0, 85, 99
2, 13122, Note_on_c, 0, 73, 96
2, 13128, Note_on_c, 0, 56, 76
2, 13275, Control_c, 0, 64, 0
2, 13276, Note_on_c, 0, 85, 0
2, 13277, Note_on_c, 0, 73, 0
2, 13277, Note_on_c, 0, 81, 0
2, 13278, Note_on_c, 0, 41, 0
2, 13278, Note_on_c, 0, 56, 0
2, 13278, Note_on_c, 0, 48, 0
2, 13286, Note_on_c, 0, 84, 0
2, 13294, Note_on_c, 0, 36, 84
2, 13296, Note_on_c, 0, 84, 105
2, 13298, Note_on_c, 0, 79, 83
2, 13298, Note_on_c, 0, 72, 94
2, 13299, Note_on_c, 0, 75, 94
2, 13347, Control_c, 0, 64, 127
2, 13398, Note_on_c, 0, 43, 70
2, 13539, Note_on_c, 0, 72, 0
2, 13539, Note_on_c, 0, 75, 0
2, 13539, Note_on_c, 0, 79, 0
2, 13539, Note_on_c, 0, 84, 0
2, 13547, Note_on_c, 0, 75, 100
2, 13547, Note_on_c, 0, 84, 101
2, 13551, Note_on_c, 0, 72, 88
2, 13551, Note_on_c, 0, 79, 79
2, 13616, Note_on_c, 0, 36, 0
2, 13625, Note_on_c, 0, 36, 76
2, 13739, Note_on_c, 0, 43, 0
2, 13744, Note_on_c, 0, 43, 66
2, 13777, Note_on_c, 0, 79, 0
2, 13785, Note_on_c, 0, 72, 0
2, 13785, Note_on_c, 0, 75, 0
2, 13788, Note_on_c, 0, 79, 90
2, 13791, Note_on_c, 0, 72, 87
2, 13791, Note_on_c, 0, 75, 85
2, 13792, Note_on_c, 0, 67, 87
2, 13894, Note_on_c, 0, 72, 0
2, 13894, Note_on_c, 0, 75, 0
2, 13894, Note_on_c, 0, 84, 0
2, 13895, Note_on_c, 0, 43, 0
2, 13895, Note_on_c, 0, 67, 0
2, 13896, Note_on_c, 0, 36, 0
2, 13896, Control_c, 0, 64, 0
2, 13908, Note_on_c, 0, 79, 0
2, 13944, Note_on_c, 0, 67, 98
2, 13945, Note_on_c, 0, 79, 96
2, 13945, Note_on_c, 0, 75, 95
2, 13950, Note_on_c, 0, 36, 83
2, 13969, Control_c, 0, 64, 127
2, 14074, Note_on_c, 0, 43, 62
2, 14113, Note_on_c, 0, 91, 80
2, 14168, Note_on_c, 0, 48, 55
2, 14171, Note_on_c, 0, 51, 61
2, 14199, Note_on_c, 0, 87, 83
2, 14261, Note_on_c, 0, 36, 0
2, 14269, Note_on_c, 0, 36, 70
2, 14271, Note_on_c, 0, 84, 85
2, 14353, Note_on_c, 0, 43, 0
2, 14360, Note_on_c, 0, 43, 61
2, 14407, Note_on_c, 0, 75, 0
2, 14416, Note_on_c, 0, 75, 89
2, 14480, Note_on_c, 0, 72, 83
2, 14499, Note_on_c, 0, 43, 0
2, 14509, Note_on_c, 0, 43, 48
2, 14563, Control_c, 0, 64, 0
2, 14563, Note_on_c, 0, 87, 0
2, 14564, Note_on_c, 0, 51, 0
2, 14564, Note_on_c, 0, 75, 0
2, 14565, Note_on_c, 0, 91, 0
2, 14565, Note_on_c, 0, 84, 0
2, 14565, Note_on_c, 0, 72, 0
2, 14565, Note_on_c, 0, 67, 0
2, 14565, Note_on_c, 0, 43, 0
2, 14565, Note_on_c, 0, 79, 0
2, 14565, Note_on_c, 0, 36, 0
2, 14576, Note_on_c, 0, 48, 0
2, 14587, Note_on_c, 0, 77, 104
2, 14594, Note_on_c, 0, 37, 85
2, 14595, Note_on_c, 0, 68, 86
2, 14595, Note_on_c, 0, 73, 92
2, 14595, Note_on_c, 0, 65, 91
2, 14645, Control_c, 0, 64, 127
2, 14722, Note_on_c, 0, 44, 59
2, 14796, Note_on_c, 0, 53, 69
2, 14891, Note_on_c, 0, 65, 0
2, 14891, Note_on_c, 0, 77, 0
2, 14896, Note_on_c, 0, 77, 103
2, 14899, Note_on_c, 0, 37, 0
2, 14900, Note_on_c, 0, 65, 93
2, 14909, Note_on_c, 0, 73, 0
2, 14909, Note_on_c, 0, 37, 76
2, 14910, Note_on_c, 0, 68, 0
2, 14910, Note_on_c, 0, 53, 0
2, 14910, Control_c, 0, 64, 0
2, 14952, Control_c, 0, 64, 127
2, 15014, Note_on_c, 0, 44, 0
2, 15014, Note_on_c, 0, 43, 56
2, 15025, Note_on_c, 0, 44, 58
2, 15057, Note_on_c, 0, 63, 72
2, 15058, Note_on_c, 0, 67, 57
2, 15068, Note_on_c, 0, 67, 0
2, 15118, Note_on_c, 0, 53, 73
2, 15121, Note_on_c, 0, 77, 0
2, 15129, Note_on_c, 0, 77, 103
2, 15129, Note_on_c, 0, 65, 0
2, 15132, Note_on_c, 0, 68, 95
2, 15134, Note_on_c, 0, 65, 81
2, 15161, Control_c, 0, 64, 0
2, 15164, Note_on_c, 0, 63, 0
2, 15167, Note_on_c, 0, 44, 0
2, 15167, Note_on_c, 0, 37, 0
2, 15175, Note_on_c, 0, 43, 0
2, 15206, Note_on_c, 0, 65, 0
2, 15214, Control_c, 0, 64, 127
2, 15226, Note_on_c, 0, 37, 77
2, 15229, Note_on_c, 0, 53, 0
2, 15342, Note_on_c, 0, 44, 65
2, 15390, Note_on_c, 0, 44, 0
2, 15397, Note_on_c, 0, 85, 100
2, 15398, Note_on_c, 0, 44, 73
2, 15398, Note_on_c, 0, 77, 0
2, 15402, Note_on_c, 0, 73, 93
2, 15403, Note_on_c, 0, 77, 91
2, 15410, Note_on_c, 0, 53, 62
2, 15539, Control_c, 0, 64, 0
2, 15542, Note_on_c, 0, 73, 0
2, 15543, Note_on_c, 0, 68, 0
2, 15544, Note_on_c, 0, 37, 0
2, 15544, Note_on_c, 0, 85, 0
2, 15545, Note_on_c, 0, 53, 0
2, 15546, Note_on_c, 0, 84, 103
2, 15549, Note_on_c, 0, 37, 85
2, 15552, Note_on_c, 0, 77, 0
2, 15553, Note_on_c, 0, 72, 96
2, 15556, Note_on_c, 0, 77, 86
2, 15598, Control_c, 0, 64, 127
2, 15696, Note_on_c, 0, 82, 89
2, 15701, Note_on_c, 0, 70, 87
2, 15819, Note_on_c, 0, 84, 0
2, 15819, Note_on_c, 0, 72, 0
2, 15820, Note_on_c, 0, 77, 0
2, 15820, Control_c, 0, 64, 0
2, 15824, Note_on_c, 0, 37, 0
2, 15843, Note_on_c, 0, 44, 0
2, 15851, Note_on_c, 0, 70, 0
2, 15851, Note_on_c, 0, 82, 0
2, 15852, Note_on_c, 0, 44, 77
2, 15853, Note_on_c, 0, 75, 99
2, 15855, Note_on_c, 0, 82, 95
2, 15860, Note_on_c, 0, 70, 89
2, 15874, Control_c, 0, 64, 127
2, 15992, Note_on_c, 0, 51, 69
2, 16072, Note_on_c, 0, 60, 73
2, 16097, Note_on_c, 0, 75, 0
2, 16101, Note_on_c, 0, 56, 81
2, 16107, Note_on_c, 0, 80, 97
2, 16107, Note_on_c, 0, 75, 92
2, 16107, Note_on_c, 0, 68, 96
2, 16174, Note_on_c, 0, 44, 0
2, 16177, Note_on_c, 0, 82, 0
2, 16178, Note_on_c, 0, 51, 0
2, 16178, Control_c, 0, 64, 0
2, 16179, Note_on_c, 0, 70, 0
2, 16181, Note_on_c, 0, 60, 0
2, 16184, Note_on_c, 0, 44, 77
2, 16235, Control_c, 0, 64, 127
2, 16299, Note_on_c, 0, 51, 70
2, 16343, Note_on_c, 0, 75, 0
2, 16347, Note_on_c, 0, 82, 93
2, 16354, Note_on_c, 0, 75, 75
2, 16358, Note_on_c, 0, 70, 76
2, 16381, Note_on_c, 0, 60, 73
2, 16478, Note_on_c, 0, 68, 0
2, 16479, Control_c, 0, 64, 0
2, 16479, Note_on_c, 0, 82, 0
2, 16479, Note_on_c, 0, 70, 0
2, 16479, Note_on_c, 0, 51, 0
2, 16480, Note_on_c, 0, 60, 0
2, 16488, Note_on_c, 0, 56, 0
2, 16496, Note_on_c, 0, 44, 0
2, 16496, Note_on_c, 0, 75, 0
2, 16496, Note_on_c, 0, 80, 0
2, 16499, Note_on_c, 0, 84, 103
2, 16501, Note_on_c, 0, 72, 93
2, 16502, Note_on_c, 0, 44, 89
2, 16506, Note_on_c, 0, 80, 94
2, 16507, Note_on_c, 0, 75, 96
2, 16542, Control_c, 0, 64, 127
2, 16588, Note_on_c, 0, 39, 61
2, 16591, Note_on_c, 0, 51, 66
2, 16596, Note_on_c, 0, 39, 0
2, 16662, Note_on_c, 0, 63, 80
2, 16667, Note_on_c, 0, 60, 66
2, 16738, Note_on_c, 0, 68, 83
2, 16811, Note_on_c, 0, 72, 0
2, 16814, Note_on_c, 0, 43, 87
2, 16820, Note_on_c, 0, 72, 91
2, 16837, Control_c, 0, 64, 0
2, 16857, Control_c, 0, 64, 127
2, 16888, Note_on_c, 0, 75, 0
2, 16898, Note_on_c, 0, 75, 90
2, 16955, Note_on_c, 0, 58, 74
2, 16965, Note_on_c, 0, 51, 0
2, 16972, Note_on_c, 0, 51, 61
2, 16982, Note_on_c, 0, 77, 84
2, 17036, Note_on_c, 0, 79, 85
2, 17104, Note_on_c, 0, 68, 0
2, 17104, Note_on_c, 0, 63, 0
2, 17104, Note_on_c, 0, 51, 0
2, 17105, Note_on_c, 0, 72, 0
2, 17105, Note_on_c, 0, 75, 0
2, 17105, Note_on_c, 0, 60, 0
2, 17106, Control_c, 0, 64, 0
2, 17106, Note_on_c, 0, 58, 0
2, 17106, Note_on_c, 0, 79, 0
2, 17107, Note_on_c, 0, 84, 0
2, 17107, Note_on_c, 0, 43, 0
2, 17111, Note_on_c, 0, 44, 0
2, 17126, Note_on_c, 0, 77, 0
2, 17126, Note_on_c, 0, 80, 0
2, 17132, Note_on_c, 0, 77, 94
2, 17134, Note_on_c, 0, 34, 79
2, 17135, Note_on_c, 0, 80, 103
2, 17135, Note_on_c, 0, 73, 94
2, 17137, Note_on_c, 0, 68, 95
2, 17180, Control_c, 0, 64, 127
2, 17182, Note_on_c, 0, 34, 0
2, 17268, Note_on_c, 0, 41, 62
2, 17374, Note_on_c, 0, 49, 54
2, 17381, Note_on_c, 0, 46, 48
2, 17448, Note_on_c, 0, 73, 0
2, 17448, Note_on_c, 0, 77, 0
2, 17459, Note_on_c, 0, 77, 96
2, 17459, Note_on_c, 0, 73, 84
2, 17461, Note_on_c, 0, 80, 0
2, 17461, Note_on_c, 0, 49, 0
2, 17461, Note_on_c, 0, 41, 0
2, 17461, Control_c, 0, 64, 0
2, 17461, Note_on_c, 0, 68, 0
2, 17464, Note_on_c, 0, 65, 82
2, 17465, Note_on_c, 0, 46, 0
2, 17466, Note_on_c, 0, 34, 76
2, 17533, Control_c, 0, 64, 127
2, 17575, Note_on_c, 0, 41, 59
2, 17695, Note_on_c, 0, 75, 93
2, 17697, Note_on_c, 0, 79, 86
2, 17698, Note_on_c, 0, 46, 64
2, 17705, Note_on_c, 0, 67, 83
2, 17779, Control_c, 0, 64, 0
2, 17780, Note_on_c, 0, 41, 0
2, 17782, Note_on_c, 0, 65, 0
2, 17786, Note_on_c, 0, 34, 0
2, 17794, Note_on_c, 0, 77, 0
2, 17795, Note_on_c, 0, 34, 72
2, 17802, Note_on_c, 0, 73, 0
2, 17832, Control_c, 0, 64, 127
2, 17918, Note_on_c, 0, 41, 53
2, 17956, Note_on_c, 0, 73, 91
2, 17957, Note_on_c, 0, 80, 91
2, 17959, Note_on_c, 0, 68, 88
2, 18003, Note_on_c, 0, 49, 65
2, 18092, Control_c, 0, 64, 0
2, 18093, Note_on_c, 0, 68, 0
2, 18093, Note_on_c, 0, 80, 0
2, 18094, Note_on_c, 0, 41, 0
2, 18098, Note_on_c, 0, 49, 0
2, 18101, Note_on_c, 0, 34, 0
2, 18109, Note_on_c, 0, 46, 0
2, 18109, Note_on_c, 0, 67, 0
2, 18109, Note_on_c, 0, 75, 0
2, 18109, Note_on_c, 0, 79, 0
2, 18113, Note_on_c, 0, 46, 65
2, 18117, Note_on_c, 0, 79, 89
2, 18120, Note_on_c, 0, 34, 70
2, 18120, Note_on_c, 0, 67, 87
2, 18120, Note_on_c, 0, 75, 72
2, 18124, Note_on_c, 0, 73, 0
2, 18128, Note_on_c, 0, 73, 58
2, 18155, Control_c, 0, 64, 127
2, 18226, Note_on_c, 0, 41, 50
2, 18263, Note_on_c, 0, 73, 0
2, 18266, Note_on_c, 0, 73, 82
2, 18273, Note_on_c, 0, 80, 94
2, 18276, Note_on_c, 0, 68, 88
2, 18329, Note_on_c, 0, 49, 53
2, 18394, Note_on_c, 0, 34, 0
2, 18396, Note_on_c, 0, 79, 0
2, 18396, Note_on_c, 0, 41, 0
2, 18396, Note_on_c, 0, 80, 0
2, 18396, Control_c, 0, 64, 0
2, 18396, Note_on_c, 0, 67, 0
2, 18396, Note_on_c, 0, 73, 0
2, 18396, Note_on_c, 0, 68, 0
2, 18401, Note_on_c, 0, 46, 0
2, 18408, Note_on_c, 0, 49, 0
2, 18424, Note_on_c, 0, 75, 0
2, 18428, Note_on_c, 0, 75, 94
2, 18430, Note_on_c, 0, 36, 75
2, 18433, Note_on_c, 0, 70, 90
2, 18435, Note_on_c, 0, 67, 78
2, 18485, Control_c, 0, 64, 127
2, 18551, Note_on_c, 0, 43, 63
2, 18739, Note_on_c, 0, 36, 0
2, 18739, Note_on_c, 0, 70, 0
2, 18739, Note_on_c, 0, 75, 0
2, 18743, Note_on_c, 0, 79, 91
2, 18747, Control_c, 0, 64, 0
2, 18748, Note_on_c, 0, 75, 88
2, 18749, Note_on_c, 0, 70, 84
2, 18750, Note_on_c, 0, 36, 75
2, 18777, Control_c, 0, 64, 127
2, 18846, Note_on_c, 0, 43, 0
2, 18858, Note_on_c, 0, 43, 65
2, 18977, Note_on_c, 0, 75, 0
2, 18981, Note_on_c, 0, 75, 88
2, 18984, Note_on_c, 0, 80, 94
2, 18984, Note_on_c, 0, 70, 0
2, 18987, Note_on_c, 0, 51, 69
2, 18989, Note_on_c, 0, 70, 79
2, 19054, Note_on_c, 0, 67, 0
2, 19056, Note_on_c, 0, 79, 0
2, 19059, Control_c, 0, 64, 0
2, 19077, Note_on_c, 0, 36, 0
2, 19087, Note_on_c, 0, 36, 73
2, 19100, Control_c, 0, 64, 127
2, 19200, Note_on_c, 0, 43, 0
2, 19206, Note_on_c, 0, 43, 64
2, 19253, Note_on_c, 0, 70, 0
2, 19255, Note_on_c, 0, 77, 98
2, 19263, Note_on_c, 0, 70, 76
2, 19284, Note_on_c, 0, 51, 0
2, 19290, Note_on_c, 0, 51, 67
2, 19374, Note_on_c, 0, 51, 0
2, 19374, Note_on_c, 0, 80, 0
2, 19375, Note_on_c, 0, 43, 0
2, 19376, Control_c, 0, 64, 0
2, 19376, Note_on_c, 0, 77, 0
2, 19392, Note_on_c, 0, 75, 0
2, 19399, Note_on_c, 0, 36, 0
2, 19407, Note_on_c, 0, 70, 0
2, 19408, Note_on_c, 0, 79, 90
2, 19409, Note_on_c, 0, 36, 77
2, 19415, Note_on_c, 0, 70, 80
2, 19430, Control_c, 0, 64, 127
2, 19530, Note_on_c, 0, 43, 58
2, 19558, Note_on_c, 0, 80, 92
2, 19568, Note_on_c, 0, 70, 0
2, 19573, Note_on_c, 0, 70, 80
2, 19602, Note_on_c, 0, 51, 63
2, 19690, Control_c, 0, 64, 0
2, 19691, Note_on_c, 0, 80, 0
2, 19693, Note_on_c, 0, 43, 0
2, 19693, Note_on_c, 0, 70, 0
2, 19694, Note_on_c, 0, 51, 0
2, 19694, Note_on_c, 0, 79, 0
2, 19694, Note_on_c, 0, 36, 0
2, 19719, Note_on_c, 0, 77, 96
2, 19721, Note_on_c, 0, 46, 77
2, 19724, Note_on_c, 0, 34, 77
2, 19725, Note_on_c, 0, 73, 84
2, 19726, Note_on_c, 0, 65, 81
2, 19726, Note_on_c, 0, 70, 74
2, 19776, Control_c, 0, 64, 127
2, 19799, Note_on_c, 0, 34, 0
2, 19840, Note_on_c, 0, 41, 64
2, 19932, Note_on_c, 0, 49, 58
2, 20023, Note_on_c, 0, 34, 73
2, 20136, Note_on_c, 0, 41, 0
2, 20143, Note_on_c, 0, 41, 60
2, 20198, Note_on_c, 0, 77, 0
2, 20208, Note_on_c, 0, 77, 81
2, 20267, Note_on_c, 0, 46, 0
2, 20274, Note_on_c, 0, 46, 51
2, 20276, Note_on_c, 0, 79, 85
2, 20310, Note_on_c, 0, 70, 0
2, 20314, Note_on_c, 0, 73, 0
2, 20314, Note_on_c, 0, 65, 0
2, 20316, Note_on_c, 0, 41, 0
2, 20316, Note_on_c, 0, 49, 0
2, 20317, Control_c, 0, 64, 0
2, 20352, Note_on_c, 0, 34, 0
2, 20352, Note_on_c, 0, 77, 0
2, 20356, Note_on_c, 0, 77, 94
2, 20356, Note_on_c, 0, 80, 97
2, 20358, Note_on_c, 0, 34, 80
2, 20359, Control_c, 0, 64, 127
2, 20361, Note_on_c, 0, 73, 86
2, 20375, Note_on_c, 0, 46, 0
2, 20468, Note_on_c, 0, 41, 61
2, 20513, Note_on_c, 0, 77, 0
2, 20517, Note_on_c, 0, 77, 98
2, 20565, Note_on_c, 0, 49, 60
2, 20659, Note_on_c, 0, 34, 0
2, 20659, Note_on_c, 0, 79, 0
2, 20663, Note_on_c, 0, 79, 89
2, 20665, Note_on_c, 0, 34, 66
2, 20670, Note_on_c, 0, 41, 0
2, 20670, Note_on_c, 0, 73, 0
2, 20670, Note_on_c, 0, 80, 0
2, 20671, Note_on_c, 0, 77, 0
2, 20671, Note_on_c, 0, 49, 0
2, 20671, Control_c, 0, 64, 0
2, 20728, Control_c, 0, 64, 127
2, 20808, Note_on_c, 0, 41, 66
2, 20839, Note_on_c, 0, 80, 83
2, 20878, Note_on_c, 0, 49, 67
2, 20951, Note_on_c, 0, 34, 0
2, 20956, Control_c, 0, 64, 0
2, 20956, Note_on_c, 0, 41, 0
2, 20958, Note_on_c, 0, 80, 0
2, 20958, Note_on_c, 0, 49, 0
2, 20981, Note_on_c, 0, 79, 0
2, 20986, Note_on_c, 0, 84, 103
2, 20988, Note_on_c, 0, 72, 94
2, 20989, Note_on_c, 0, 79, 90
2, 20989, Note_on_c, 0, 39, 74
2, 20992, Note_on_c, 0, 75, 95
2, 21020, Control_c, 0, 64, 127
2, 21115, Note_on_c, 0, 46, 68
2, 21200, Note_on_c, 0, 55, 68
2, 21235, Note_on_c, 0, 84, 0
2, 21239, Note_on_c, 0, 84, 101
2, 21242, Note_on_c, 0, 75, 0
2, 21242, Note_on_c, 0, 79, 0
2, 21250, Note_on_c, 0, 75, 96
2, 21253, Note_on_c, 0, 79, 86
2, 21300, Note_on_c, 0, 46, 0
2, 21301, Note_on_c, 0, 55, 0
2, 21304, Note_on_c, 0, 72, 0
2, 21306, Control_c, 0, 64, 0
2, 21319, Note_on_c, 0, 39, 0
2, 21324, Note_on_c, 0, 39, 66
2, 21335, Control_c, 0, 64, 127
2, 21399, Note_on_c, 0, 46, 75
2, 21484, Note_on_c, 0, 85, 88
2, 21486, Note_on_c, 0, 55, 74
2, 21565, Note_on_c, 0, 84, 0
2, 21570, Note_on_c, 0, 84, 76
2, 21591, Note_on_c, 0, 46, 0
2, 21591, Control_c, 0, 64, 0
2, 21591, Note_on_c, 0, 55, 0
2, 21593, Note_on_c, 0, 85, 0
2, 21596, Note_on_c, 0, 79, 0
2, 21603, Note_on_c, 0, 75, 0
2, 21626, Note_on_c, 0, 39, 0
2, 21630, Note_on_c, 0, 82, 93
2, 21631, Note_on_c, 0, 39, 83
2, 21634, Note_on_c, 0, 79, 83
2, 21645, Note_on_c, 0, 75, 84
2, 21657, Control_c, 0, 64, 127
2, 21792, Note_on_c, 0, 70, 75
2, 21793, Note_on_c, 0, 55, 71
2, 21818, Note_on_c, 0, 84, 0
2, 21878, Note_on_c, 0, 56, 81
2, 21878, Note_on_c, 0, 72, 89
2, 21882, Note_on_c, 0, 68, 76
2, 21913, Note_on_c, 0, 58, 68
2, 21959, Note_on_c, 0, 73, 93
2, 21962, Note_on_c, 0, 60, 80
2, 22018, Note_on_c, 0, 75, 0
2, 22028, Note_on_c, 0, 75, 91
2, 22041, Note_on_c, 0, 56, 0
2, 22045, Note_on_c, 0, 56, 58
2, 22046, Note_on_c, 0, 61, 66
2, 22101, Note_on_c, 0, 77, 85
2, 22114, Note_on_c, 0, 63, 76
2, 22164, Note_on_c, 0, 79, 0
2, 22172, Note_on_c, 0, 79, 81
2, 22248, Note_on_c, 0, 72, 0
2, 22248, Note_on_c, 0, 77, 0
2, 22250, Note_on_c, 0, 39, 0
2, 22251, Note_on_c, 0, 82, 0
2, 22251, Note_on_c, 0, 63, 0
2, 22251, Note_on_c, 0, 70, 0
2, 22251, Note_on_c, 0, 60, 0
2, 22251, Note_on_c, 0, 58, 0
2, 22252, Note_on_c, 0, 79, 0
2, 22252, Note_on_c, 0, 73, 0
2, 22252, Note_on_c, 0, 61, 0
2, 22252, Control_c, 0, 64, 0
2, 22252, Note_on_c, 0, 55, 0
2, 22252, Note_on_c, 0, 56, 0
2, 22254, Note_on_c, 0, 72, 97
2, 22256, Note_on_c, 0, 68, 0
2, 22260, Note_on_c, 0, 80, 99
2, 22260, Note_on_c, 0, 77, 88
2, 22260, Note_on_c, 0, 41, 85
2, 22264, Note_on_c, 0, 68, 92
2, 22264, Note_on_c, 0, 75, 0
2, 22325, Control_c, 0, 64, 127
2, 22381, Note_on_c, 0, 48, 65
2, 22496, Note_on_c, 0, 56, 71
2, 22571, Note_on_c, 0, 68, 0
2, 22571, Note_on_c, 0, 77, 0
2, 22571, Note_on_c, 0, 80, 0
2, 22576, Note_on_c, 0, 80, 96
2, 22579, Note_on_c, 0, 41, 0
2, 22581, Note_on_c, 0, 77, 89
2, 22582, Note_on_c, 0, 68, 93
2, 22587, Note_on_c, 0, 41, 78
2, 22590, Control_c, 0, 64, 0
2, 22594, Note_on_c, 0, 72, 0
2, 22594, Note_on_c, 0, 48, 0
2, 22640, Control_c, 0, 64, 127
2, 22717, Note_on_c, 0, 48, 74
2, 22741, Note_on_c, 0, 67, 77
2, 22743, Note_on_c, 0, 79, 72
2, 22786, Note_on_c, 0, 56, 0
2, 22795, Note_on_c, 0, 56, 74
2, 22801, Note_on_c, 0, 80, 0
2, 22809, Note_on_c, 0, 68, 0
2, 22809, Note_on_c, 0, 77, 0
2, 22809, Note_on_c, 0, 80, 95
2, 22819, Note_on_c, 0, 77, 91
2, 22820, Note_on_c, 0, 68, 91
2, 22844, Control_c, 0, 64, 0
2, 22847, Note_on_c, 0, 79, 0
2, 22849, Note_on_c, 0, 48, 0
2, 22850, Note_on_c, 0, 67, 0
2, 22851, Note_on_c, 0, 56, 0
2, 22886, Note_on_c, 0, 41, 0
2, 22891, Note_on_c, 0, 41, 75
2, 22901, Control_c, 0, 64, 127
2, 23025, Note_on_c, 0, 48, 65
2, 23064, Note_on_c, 0, 82, 93
2, 23068, Note_on_c, 0, 79, 75
2, 23069, Note_on_c, 0, 70, 89
2, 23101, Note_on_c, 0, 56, 74
2, 23205, Note_on_c, 0, 68, 0
2, 23206, Control_c, 0, 64, 0
2, 23207, Note_on_c, 0, 79, 0
2, 23208, Note_on_c, 0, 56, 0
2, 23208, Note_on_c, 0, 41, 0
2, 23209, Note_on_c, 0, 48, 0
2, 23210, Note_on_c, 0, 70, 0
2, 23216, Note_on_c, 0, 77, 0
2, 23216, Note_on_c, 0, 80, 0
2, 23216, Note_on_c, 0, 82, 0
2, 23216, Note_on_c, 0, 41, 78
2, 23218, Note_on_c, 0, 84, 102
2, 23220, Note_on_c, 0, 72, 97
2, 23224, Note_on_c, 0, 82, 84
2, 23262, Control_c, 0, 64, 127
2, 23366, Note_on_c, 0, 48, 65
2, 23366, Note_on_c, 0, 85, 101
2, 23371, Note_on_c, 0, 73, 100
2, 23380, Note_on_c, 0, 56, 62
2, 23499, Control_c, 0, 64, 0
2, 23502, Note_on_c, 0, 41, 0
2, 23502, Note_on_c, 0, 56, 0
2, 23502, Note_on_c, 0, 82, 0
2, 23502, Note_on_c, 0, 73, 0
2, 23503, Note_on_c, 0, 85, 0
2, 23508, Note_on_c, 0, 84, 0
2, 23516, Note_on_c, 0, 72, 0
2, 23517, Note_on_c, 0, 84, 104
2, 23520, Note_on_c, 0, 72, 98
2, 23526, Note_on_c, 0, 79, 84
2, 23527, Note_on_c, 0, 36, 73
2, 23528, Note_on_c, 0, 75, 91
2, 23562, Control_c, 0, 64, 127
2, 23577, Note_on_c, 0, 48, 0
2, 23643, Note_on_c, 0, 43, 69
2, 23766, Note_on_c, 0, 51, 65
2, 23769, Note_on_c, 0, 75, 0
2, 23769, Note_on_c, 0, 84, 0
2, 23777, Note_on_c, 0, 43, 0
2, 23777, Note_on_c, 0, 72, 0
2, 23777, Note_on_c, 0, 79, 0
2, 23780, Note_on_c, 0, 84, 102
2, 23780, Note_on_c, 0, 75, 94
2, 23781, Note_on_c, 0, 79, 76
2, 23781, Note_on_c, 0, 72, 88
2, 23784, Note_on_c, 0, 43, 62
2, 23866, Note_on_c, 0, 72, 0
2, 23867, Note_on_c, 0, 43, 0
2, 23870, Control_c, 0, 64, 0
2, 23877, Note_on_c, 0, 36, 0
2, 23881, Note_on_c, 0, 36, 67
2, 23900, Note_on_c, 0, 79, 0
2, 23907, Control_c, 0, 64, 127
2, 23915, Note_on_c, 0, 51, 0
2, 24010, Note_on_c, 0, 43, 61
2, 24023, Note_on_c, 0, 75, 0
2, 24026, Note_on_c, 0, 79, 93
2, 24031, Note_on_c, 0, 72, 80
2, 24034, Note_on_c, 0, 75, 79
2, 24034, Note_on_c, 0, 67, 85
2, 24069, Note_on_c, 0, 84, 0
2, 24076, Note_on_c, 0, 43, 0
2, 24085, Note_on_c, 0, 43, 46
2, 24087, Note_on_c, 0, 51, 63
2, 24160, Note_on_c, 0, 72, 0
2, 24160, Note_on_c, 0, 67, 0
2, 24161, Note_on_c, 0, 51, 0
2, 24163, Note_on_c, 0, 43, 0
2, 24164, Control_c, 0, 64, 0
2, 24184, Note_on_c, 0, 75, 0
2, 24184, Note_on_c, 0, 79, 0
2, 24190, Note_on_c, 0, 79, 97
2, 24192, Note_on_c, 0, 36, 0
2, 24192, Note_on_c, 0, 67, 95
2, 24193, Note_on_c, 0, 72, 91
2, 24194, Note_on_c, 0, 75, 95
2, 24195, Note_on_c, 0, 36, 80
2, 24215, Control_c, 0, 64, 127
2, 24338, Note_on_c, 0, 43, 75
2, 24366, Note_on_c, 0, 91, 80
2, 24437, Note_on_c, 0, 43, 0
2, 24441, Note_on_c, 0, 51, 60
2, 24441, Note_on_c, 0, 87, 87
2, 24445, Note_on_c, 0, 43, 51
2, 24445, Note_on_c, 0, 51, 0
2, 24514, Note_on_c, 0, 36, 0
2, 24516, Note_on_c, 0, 84, 85
2, 24525, Note_on_c, 0, 36, 78
2, 24576, Note_on_c, 0, 79, 0
2, 24580, Note_on_c, 0, 79, 72
2, 24591, Note_on_c, 0, 67, 0
2, 24629, Note_on_c, 0, 43, 0
2, 24633, Note_on_c, 0, 43, 74
2, 24660, Note_on_c, 0, 75, 0
2, 24665, Note_on_c, 0, 75, 88
2, 24721, Note_on_c, 0, 72, 0
2, 24726, Note_on_c, 0, 72, 93
2, 24751, Note_on_c, 0, 51, 47
2, 24807, Note_on_c, 0, 87, 0
2, 24808, Note_on_c, 0, 91, 0
2, 24808, Note_on_c, 0, 84, 0
2, 24809, Note_on_c, 0, 72, 0
2, 24809, Note_on_c, 0, 79, 0
2, 24809, Note_on_c, 0, 75, 0
2, 24814, Note_on_c, 0, 51, 0
2, 24815, Control_c, 0, 64, 0
2, 24821, Note_on_c, 0, 36, 0
2, 24829, Note_on_c, 0, 43, 0
2, 24843, Note_on_c, 0, 77, 105
2, 24847, Note_on_c, 0, 37, 82
2, 24848, Note_on_c, 0, 65, 91
2, 24849, Note_on_c, 0, 68, 85
2, 24849, Note_on_c, 0, 73, 87
2, 24890, Control_c, 0, 64, 127
2, 24972, Note_on_c, 0, 44, 68
2, 25058, Note_on_c, 0, 53, 66
2, 25159, Note_on_c, 0, 65, 0
2, 25159, Note_on_c, 0, 77, 0
2, 25167, Note_on_c, 0, 37, 0
2, 25167, Note_on_c, 0, 68, 0
2, 25168, Note_on_c, 0, 77, 96
2, 25170, Note_on_c, 0, 65, 87
2, 25173, Note_on_c, 0, 73, 0
2, 25175, Note_on_c, 0, 68, 86
2, 25176, Note_on_c, 0, 53, 0
2, 25178, Note_on_c, 0, 37, 75
2, 25179, Control_c, 0, 64, 0
2, 25213, Control_c, 0, 64, 127
2, 25305, Note_on_c, 0, 44, 0
2, 25315, Note_on_c, 0, 44, 68
2, 25322, Note_on_c, 0, 63, 79
2, 25322, Note_on_c, 0, 75, 77
2, 25335, Note_on_c, 0, 67, 54
2, 25344, Note_on_c, 0, 67, 0
2, 25386, Note_on_c, 0, 53, 68
2, 25397, Note_on_c, 0, 68, 0
2, 25397, Note_on_c, 0, 77, 0
2, 25402, Note_on_c, 0, 77, 101
2, 25405, Note_on_c, 0, 65, 0
2, 25407, Note_on_c, 0, 68, 98
2, 25410, Note_on_c, 0, 65, 89
2, 25431, Control_c, 0, 64, 0
2, 25431, Note_on_c, 0, 63, 0
2, 25431, Note_on_c, 0, 44, 0
2, 25437, Note_on_c, 0, 75, 0
2, 25439, Note_on_c, 0, 53, 0
2, 25451, Note_on_c, 0, 37, 0
2, 25474, Control_c, 0, 64, 127
2, 25492, Note_on_c, 0, 37, 87
2, 25603, Note_on_c, 0, 44, 70
2, 25666, Note_on_c, 0, 77, 0
2, 25666, Note_on_c, 0, 85, 105
2, 25667, Note_on_c, 0, 73, 103
2, 25670, Note_on_c, 0, 77, 79
2, 25673, Note_on_c, 0, 53, 70
2, 25801, Note_on_c, 0, 65, 0
2, 25801, Note_on_c, 0, 73, 0
2, 25803, Note_on_c, 0, 53, 0
2, 25803, Note_on_c, 0, 85, 0
2, 25804, Control_c, 0, 64, 0
2, 25804, Note_on_c, 0, 44, 0
2, 25804, Note_on_c, 0, 68, 0
2, 25812, Note_on_c, 0, 37, 0
2, 25812, Note_on_c, 0, 77, 0
2, 25812, Note_on_c, 0, 44, 73
2, 25817, Note_on_c, 0, 84, 105
2, 25822, Note_on_c, 0, 37, 77
2, 25823, Note_on_c, 0, 72, 97
2, 25823, Note_on_c, 0, 77, 93
2, 25866, Control_c, 0, 64, 127
2, 25935, Note_on_c, 0, 44, 0
2, 25945, Note_on_c, 0, 44, 59
2, 25969, Note_on_c, 0, 82, 93
2, 25987, Note_on_c, 0, 70, 75
2, 25991, Note_on_c, 0, 53, 67
2, 26099, Note_on_c, 0, 77, 0
2, 26100, Note_on_c, 0, 72, 0
2, 26100, Note_on_c, 0, 70, 0
2, 26101, Note_on_c, 0, 53, 0
2, 26101, Note_on_c, 0, 84, 0
2, 26101, Control_c, 0, 64, 0
2, 26101, Note_on_c, 0, 37, 0
2, 26127, Note_on_c, 0, 44, 0
2, 26127, Note_on_c, 0, 82, 0
2, 26132, Note_on_c, 0, 44, 84
2, 26133, Note_on_c, 0, 75, 94
2, 26134, Note_on_c, 0, 82, 95
2, 26137, Note_on_c, 0, 87, 84
2, 26142, Note_on_c, 0, 87, 0
2, 26165, Control_c, 0, 64, 127
2, 26255, Note_on_c, 0, 51, 71
2, 26337, Note_on_c, 0, 60, 80
2, 26365, Note_on_c, 0, 75, 0
2, 26370, Note_on_c, 0, 56, 74
2, 26373, Note_on_c, 0, 82, 0
2, 26376, Note_on_c, 0, 75, 98
2, 26377, Note_on_c, 0, 82, 97
2, 26380, Note_on_c, 0, 70, 94
2, 26440, Control_c, 0, 64, 0
2, 26445, Note_on_c, 0, 60, 0
2, 26449, Note_on_c, 0, 44, 0
2, 26459, Note_on_c, 0, 44, 79
2, 26472, Control_c, 0, 64, 127
2, 26549, Note_on_c, 0, 51, 0
2, 26556, Note_on_c, 0, 51, 66
2, 26626, Note_on_c, 0, 75, 0
2, 26630, Note_on_c, 0, 87, 101
2, 26633, Note_on_c, 0, 75, 96
2, 26639, Note_on_c, 0, 60, 82
2, 26773, Note_on_c, 0, 87, 0
2, 26775, Note_on_c, 0, 60, 0
2, 26775, Control_c, 0, 64, 0
2, 26778, Note_on_c, 0, 84, 103
2, 26780, Note_on_c, 0, 44, 0
2, 26780, Note_on_c, 0, 70, 0
2, 26780, Note_on_c, 0, 75, 0
2, 26783, Note_on_c, 0, 72, 101
2, 26784, Note_on_c, 0, 75, 101
2, 26785, Note_on_c, 0, 44, 85
2, 26790, Note_on_c, 0, 80, 97
2, 26795, Note_on_c, 0, 82, 0
2, 26818, Control_c, 0, 64, 127
2, 26826, Note_on_c, 0, 56, 0
2, 26930, Note_on_c, 0, 60, 72
2, 26936, Note_on_c, 0, 63, 87
2, 27010, Note_on_c, 0, 44, 0
2, 27019, Note_on_c, 0, 68, 84
2, 27020, Note_on_c, 0, 44, 64
2, 27077, Note_on_c, 0, 43, 84
2, 27089, Note_on_c, 0, 60, 0
2, 27089, Note_on_c, 0, 84, 0
2, 27089, Note_on_c, 0, 75, 0
2, 27089, Note_on_c, 0, 63, 0
2, 27090, Note_on_c, 0, 44, 0
2, 27090, Note_on_c, 0, 80, 0
2, 27090, Note_on_c, 0, 68, 0
2, 27092, Control_c, 0, 64, 0
2, 27102, Note_on_c, 0, 51, 0
2, 27102, Note_on_c, 0, 72, 0
2, 27109, Note_on_c, 0, 72, 91
2, 27141, Control_c, 0, 64, 127
2, 27175, Note_on_c, 0, 75, 90
2, 27212, Note_on_c, 0, 39, 55
2, 27252, Note_on_c, 0, 77, 89
2, 27313, Note_on_c, 0, 79, 88
2, 27375, Note_on_c, 0, 72, 0
2, 27375, Note_on_c, 0, 75, 0
2, 27376, Note_on_c, 0, 77, 0
2, 27377, Control_c, 0, 64, 0
2, 27377, Note_on_c, 0, 79, 0
2, 27386, Note_on_c, 0, 39, 0
2, 27386, Note_on_c, 0, 43, 0
2, 27398, Note_on_c, 0, 34, 89
2, 27400, Note_on_c, 0, 73, 99
2, 27403, Note_on_c, 0, 80, 104
2, 27404, Note_on_c, 0, 68, 95
2, 27440, Control_c, 0, 64, 127
2, 27507, Note_on_c, 0, 41, 68
2, 27570, Note_on_c, 0, 89, 79
2, 27596, Note_on_c, 0, 49, 66
2, 27599, Note_on_c, 0, 88, 69
2, 27649, Note_on_c, 0, 85, 94
2, 27701, Note_on_c, 0, 34, 0
2, 27713, Note_on_c, 0, 34, 69
2, 27732, Note_on_c, 0, 80, 0
2, 27736, Note_on_c, 0, 80, 86
2, 27791, Note_on_c, 0, 77, 66
2, 27840, Note_on_c, 0, 41, 0
2, 27845, Note_on_c, 0, 41, 50
2, 27870, Note_on_c, 0, 73, 0
2, 27881, Note_on_c, 0, 73, 82
2, 27947, Note_on_c, 0, 49, 0
2, 27947, Note_on_c, 0, 68, 0
2, 27951, Note_on_c, 0, 68, 81
2, 27952, Note_on_c, 0, 49, 64
2, 28024, Note_on_c, 0, 80, 0
2, 28025, Note_on_c, 0, 41, 0
2, 28025, Note_on_c, 0, 88, 0
2, 28025, Note_on_c, 0, 49, 0
2, 28025, Note_on_c, 0, 85, 0
2, 28025, Note_on_c, 0, 68, 0
2, 28026, Note_on_c, 0, 89, 0
2, 28026, Note_on_c, 0, 77, 0
2, 28028, Control_c, 0, 64, 0
2, 28032, Note_on_c, 0, 34, 0
2, 28037, Note_on_c, 0, 79, 94
2, 28039, Note_on_c, 0, 73, 0
2, 28043, Note_on_c, 0, 34, 87
2, 28044, Note_on_c, 0, 73, 84
2, 28044, Note_on_c, 0, 70, 89
2, 28101, Control_c, 0, 64, 127
2, 28199, Note_on_c, 0, 41, 67
2, 28287, Note_on_c, 0, 49, 57
2, 28345, Control_c, 0, 64, 0
2, 28347, Note_on_c, 0, 41, 0
2, 28350, Note_on_c, 0, 79, 0
2, 28354, Note_on_c, 0, 34, 0
2, 28354, Note_on_c, 0, 70, 0
2, 28354, Note_on_c, 0, 73, 0
2, 28358, Note_on_c, 0, 80, 99
2, 28358, Note_on_c, 0, 34, 85
2, 28360, Note_on_c, 0, 73, 90
2, 28363, Note_on_c, 0, 70, 85
2, 28385, Note_on_c, 0, 49, 0
2, 28416, Control_c, 0, 64, 127
2, 28509, Note_on_c, 0, 41, 75
2, 28605, Note_on_c, 0, 42, 51
2, 28654, Note_on_c, 0, 34, 0
2, 28660, Control_c, 0, 64, 0
2, 28664, Note_on_c, 0, 80, 0
2, 28664, Note_on_c, 0, 73, 0
2, 28665, Note_on_c, 0, 41, 0
2, 28669, Note_on_c, 0, 42, 0
2, 28684, Note_on_c, 0, 79, 94
2, 28684, Note_on_c, 0, 70, 0
2, 28686, Note_on_c, 0, 39, 76
2, 28688, Note_on_c, 0, 67, 88
2, 28688, Note_on_c, 0, 75, 87
2, 28689, Note_on_c, 0, 70, 81
2, 28738, Control_c, 0, 64, 127
2, 28810, Note_on_c, 0, 46, 67
2, 28887, Note_on_c, 0, 55, 61
2, 28984, Note_on_c, 0, 75, 0
2, 28984, Note_on_c, 0, 79, 0
2, 28990, Note_on_c, 0, 79, 94
2, 28990, Note_on_c, 0, 75, 88
2, 28999, Note_on_c, 0, 39, 0
2, 29007, Note_on_c, 0, 39, 64
2, 29008, Note_on_c, 0, 67, 0
2, 29009, Note_on_c, 0, 46, 0
2, 29009, Note_on_c, 0, 70, 0
2, 29011, Control_c, 0, 64, 0
2, 29053, Note_on_c, 0, 55, 0
2, 29061, Control_c, 0, 64, 127
2, 29110, Note_on_c, 0, 46, 63
2, 29160, Note_on_c, 0, 75, 0
2, 29165, Note_on_c, 0, 75, 81
2, 29172, Note_on_c, 0, 70, 78
2, 29191, Note_on_c, 0, 55, 70
2, 29304, Note_on_c, 0, 46, 0
2, 29305, Note_on_c, 0, 70, 0
2, 29305, Note_on_c, 0, 55, 0
2, 29307, Control_c, 0, 64, 0
2, 29314, Note_on_c, 0, 39, 0
2, 29314, Note_on_c, 0, 79, 0
2, 29321, Note_on_c, 0, 39, 72
2, 29325, Note_on_c, 0, 79, 86
2, 29326, Note_on_c, 0, 82, 86
2, 29329, Note_on_c, 0, 75, 0
2, 29368, Control_c, 0, 64, 127
2, 29457, Note_on_c, 0, 46, 66
2, 29485, Note_on_c, 0, 75, 86
2, 29491, Note_on_c, 0, 80, 86
2, 29524, Note_on_c, 0, 55, 65
2, 29610, Note_on_c, 0, 82, 0
2, 29610, Note_on_c, 0, 46, 0
2, 29610, Control_c, 0, 64, 0
2, 29611, Note_on_c, 0, 80, 0
2, 29611, Note_on_c, 0, 55, 0
2, 29612, Note_on_c, 0, 75, 0
2, 29629, Note_on_c, 0, 79, 0
2, 29637, Note_on_c, 0, 39, 0
2, 29639, Note_on_c, 0, 79, 87
2, 29644, Note_on_c, 0, 39, 66
2, 29649, Note_on_c, 0, 70, 77
2, 29667, Control_c, 0, 64, 127
2, 29780, Note_on_c, 0, 55, 73
2, 29784, Note_on_c, 0, 80, 83
2, 29793, Note_on_c, 0, 46, 68
2, 29806, Note_on_c, 0, 70, 0
2, 29811, Note_on_c, 0, 70, 57
2, 29850, Note_on_c, 0, 70, 0
2, 29850, Note_on_c, 0, 79, 0
2, 29853, Note_on_c, 0, 55, 0
2, 29853, Note_on_c, 0, 46, 0
2, 29854, Note_on_c, 0, 39, 0
2, 29855, Note_on_c, 0, 80, 0
2, 29859, Control_c, 0, 64, 0
2, 29928, Control_c, 0, 64, 127
2, 29934, Note_on_c, 0, 34, 91
2, 29939, Note_on_c, 0, 77, 93
2, 29940, Note_on_c, 0, 73, 96
2, 29940, Note_on_c, 0, 82, 95
2, 30087, Note_on_c, 0, 73, 0
2, 30087, Note_on_c, 0, 82, 0
2, 30087, Control_c, 0, 64, 0
2, 30088, Note_on_c, 0, 34, 0
2, 30090, Note_on_c, 0, 77, 0
2, 30092, Note_on_c, 0, 58, 78
2, 30093, Note_on_c, 0, 53, 79
2, 30094, Note_on_c, 0, 61, 69
2, 30110, Note_on_c, 0, 68, 82
2, 30113, Note_on_c, 0, 80, 80
2, 30136, Control_c, 0, 64, 127
2, 30167, Note_on_c, 0, 53, 0
2, 30167, Note_on_c, 0, 58, 0
2, 30167, Note_on_c, 0, 61, 0
2, 30167, Note_on_c, 0, 68, 0
2, 30171, Note_on_c, 0, 58, 88
2, 30171, Note_on_c, 0, 53, 87
2, 30175, Note_on_c, 0, 61, 85
2, 30175, Note_on_c, 0, 77, 83
2, 30209, Note_on_c, 0, 53, 0
2, 30212, Note_on_c, 0, 58, 0
2, 30212, Control_c, 0, 64, 0
2, 30215, Note_on_c, 0, 61, 0
2, 30259, Note_on_c, 0, 70, 89
2, 30262, Note_on_c, 0, 82, 89
2, 30266, Note_on_c, 0, 80, 0
2, 30282, Note_on_c, 0, 77, 0
2, 30320, Note_on_c, 0, 70, 0
2, 30329, Note_on_c, 0, 82, 0
2, 30411, Note_on_c, 0, 53, 76
2, 30412, Note_on_c, 0, 84, 103
2, 30412, Note_on_c, 0, 61, 72
2, 30415, Note_on_c, 0, 58, 81
2, 30416, Note_on_c, 0, 72, 97
2, 30442, Note_on_c, 0, 58, 0
2, 30443, Note_on_c, 0, 61, 0
2, 30443, Note_on_c, 0, 53, 0
2, 30471, Note_on_c, 0, 72, 0
2, 30478, Note_on_c, 0, 84, 0
2, 30574, Note_on_c, 0, 36, 91
2, 30579, Note_on_c, 0, 82, 99
2, 30579, Note_on_c, 0, 75, 87
2, 30581, Note_on_c, 0, 70, 99
2, 30581, Control_c, 0, 64, 127
2, 30733, Note_on_c, 0, 48, 82
2, 30739, Note_on_c, 0, 84, 101
2, 30739, Note_on_c, 0, 60, 89
2, 30739, Note_on_c, 0, 55, 80
2, 30746, Note_on_c, 0, 63, 80
2, 30750, Note_on_c, 0, 63, 0
2, 30768, Note_on_c, 0, 82, 0
2, 30770, Note_on_c, 0, 70, 0
2, 30772, Note_on_c, 0, 75, 0
2, 30772, Note_on_c, 0, 48, 0
2, 30776, Note_on_c, 0, 60, 0
2, 30777, Control_c, 0, 64, 0
2, 30789, Note_on_c, 0, 36, 0
2, 30804, Note_on_c, 0, 55, 0
2, 30821, Note_on_c, 0, 63, 91
2, 30822, Note_on_c, 0, 60, 83
2, 30823, Note_on_c, 0, 55, 76
2, 30866, Note_on_c, 0, 63, 0
2, 30869, Note_on_c, 0, 60, 0
2, 30890, Note_on_c, 0, 55, 0
2, 30893, Note_on_c, 0, 87, 101
2, 30897, Note_on_c, 0, 75, 81
2, 30904, Note_on_c, 0, 84, 0
2, 30942, Control_c, 0, 64, 127
2, 31040, Note_on_c, 0, 55, 68
2, 31043, Note_on_c, 0, 60, 65
2, 31053, Note_on_c, 0, 91, 103
2, 31057, Note_on_c, 0, 79, 97
2, 31077, Note_on_c, 0, 87, 0
2, 31085, Note_on_c, 0, 55, 0
2, 31088, Control_c, 0, 64, 0
2, 31093, Note_on_c, 0, 79, 0
2, 31096, Note_on_c, 0, 75, 0
2, 31127, Note_on_c, 0, 60, 0
2, 31134, Note_on_c, 0, 91, 0
2, 31193, Note_on_c, 0, 91, 106
2, 31197, Note_on_c, 0, 84, 98
2, 31197, Note_on_c, 0, 41, 81
2, 31198, Note_on_c, 0, 87, 102
2, 31200, Note_on_c, 0, 79, 96
2, 31211, Control_c, 0, 64, 127
2, 31314, Note_on_c, 0, 48, 64
2, 31357, Note_on_c, 0, 84, 0
2, 31365, Note_on_c, 0, 77, 95
2, 31366, Note_on_c, 0, 89, 96
2, 31367, Note_on_c, 0, 84, 84
2, 31368, Note_on_c, 0, 80, 79
2, 31372, Note_on_c, 0, 53, 60
2, 31434, Note_on_c, 0, 77, 0
2, 31434, Note_on_c, 0, 84, 0
2, 31434, Note_on_c, 0, 89, 0
2, 31441, Note_on_c, 0, 80, 0
2, 31444, Note_on_c, 0, 89, 91
2, 31444, Note_on_c, 0, 84, 100
2, 31445, Note_on_c, 0, 77, 93
2, 31446, Note_on_c, 0, 80, 94
2, 31476, Note_on_c, 0, 79, 0
2, 31476, Control_c, 0, 64, 0
2, 31477, Note_on_c, 0, 91, 0
2, 31479, Note_on_c, 0, 53, 0
2, 31481, Note_on_c, 0, 48, 0
2, 31482, Note_on_c, 0, 87, 0
2, 31488, Note_on_c, 0, 41, 0
2, 31493, Note_on_c, 0, 41, 70
2, 31549, Control_c, 0, 64, 127
2, 31632, Note_on_c, 0, 48, 63
2, 31633, Note_on_c, 0, 47, 64
2, 31700, Note_on_c, 0, 55, 72
2, 31799, Note_on_c, 0, 53, 83
2, 31841, Note_on_c, 0, 55, 0
2, 31849, Note_on_c, 0, 55, 62
2, 31867, Control_c, 0, 64, 0
2, 31876, Note_on_c, 0, 56, 69
2, 31879, Control_c, 0, 64, 127
2, 31922, Note_on_c, 0, 60, 79
2, 31964, Note_on_c, 0, 67, 73
2, 31991, Note_on_c, 0, 65, 79
2, 32031, Note_on_c, 0, 68, 69
2, 32036, Note_on_c, 0, 72, 78
2, 32059, Control_c, 0, 64, 0
2, 32062, Note_on_c, 0, 89, 0
2, 32062, Note_on_c, 0, 47, 0
2, 32064, Note_on_c, 0, 56, 0
2, 32066, Note_on_c, 0, 41, 0
2, 32066, Note_on_c, 0, 53, 0
2, 32066, Note_on_c, 0, 48, 0
2, 32066, Note_on_c, 0, 60, 0
2, 32067, Note_on_c, 0, 65, 0
2, 32068, Note_on_c, 0, 68, 0
2, 32068, Note_on_c, 0, 67, 0
2, 32079, Note_on_c, 0, 55, 0
2, 32079, Note_on_c, 0, 77, 0
2, 32079, Note_on_c, 0, 80, 0
2, 32079, Note_on_c, 0, 84, 0
2, 32086, Note_on_c, 0, 77, 93
2, 32125, Control_c, 0, 64, 127
2, 32148, Note_on_c, 0, 72, 0
2, 32155, Note_on_c, 0, 72, 75
2, 32157, Note_on_c, 0, 53, 68
2, 32163, Note_on_c, 0, 53, 0
2, 32164, Note_on_c, 0, 65, 70
2, 32206, Note_on_c, 0, 68, 78
2, 32206, Note_on_c, 0, 60, 71
2, 32268, Note_on_c, 0, 53, 74
2, 32268, Note_on_c, 0, 67, 75
2, 32342, Note_on_c, 0, 67, 0
2, 32342, Control_c, 0, 64, 0
2, 32342, Note_on_c, 0, 53, 0
2, 32343, Note_on_c, 0, 72, 0
2, 32343, Note_on_c, 0, 68, 0
2, 32343, Note_on_c, 0, 77, 0
2, 32344, Note_on_c, 0, 60, 0
2, 32401, Control_c, 0, 64, 127
2, 32403, Note_on_c, 0, 38, 75
2, 32547, Note_on_c, 0, 50, 69
2, 32579, Note_on_c, 0, 62, 78
2, 32581, Note_on_c, 0, 57, 75
2, 32613, Control_c, 0, 64, 0
2, 32616, Note_on_c, 0, 65, 0
2, 32620, Note_on_c, 0, 38, 0
2, 32621, Note_on_c, 0, 57, 0
2, 32621, Note_on_c, 0, 50, 0
2, 32621, Note_on_c, 0, 62, 0
2, 32632, Note_on_c, 0, 53, 65
2, 32700, Note_on_c, 0, 53, 0
2, 32727, Note_on_c, 0, 48, 62
2, 32728, Note_on_c, 0, 60, 70
2, 32796, Note_on_c, 0, 50, 69
2, 32806, Note_on_c, 0, 62, 72
2, 32818, Note_on_c, 0, 48, 0
2, 32824, Note_on_c, 0, 60, 0
2, 32897, Note_on_c, 0, 53, 53
2, 32900, Note_on_c, 0, 50, 0
2, 32935, Note_on_c, 0, 53, 0
2, 33026, Note_on_c, 0, 38, 64
2, 33052, Note_on_c, 0, 62, 0
2, 33134, Note_on_c, 0, 62, 72
2, 33159, Note_on_c, 0, 57, 53
2, 33202, Note_on_c, 0, 38, 0
2, 33212, Note_on_c, 0, 50, 52
2, 33254, Note_on_c, 0, 62, 0
2, 33285, Note_on_c, 0, 50, 0
2, 33295, Note_on_c, 0, 60, 78
2, 33308, Note_on_c, 0, 57, 0
2, 33366, Note_on_c, 0, 38, 64
2, 33366, Note_on_c, 0, 62, 77
2, 33410, Note_on_c, 0, 60, 0
2, 33486, Note_on_c, 0, 62, 0
2, 33519, Note_on_c, 0, 65, 75
2, 33526, Note_on_c, 0, 50, 66
2, 33573, Note_on_c, 0, 38, 0
2, 33580, Note_on_c, 0, 65, 0
2, 33580, Note_on_c, 0, 50, 0
2, 33658, Note_on_c, 0, 38, 72
2, 33692, Control_c, 0, 64, 127
2, 33802, Note_on_c, 0, 50, 73
2, 33806, Note_on_c, 0, 74, 78
2, 33813, Note_on_c, 0, 69, 71
2, 33859, Note_on_c, 0, 53, 69
2, 33946, Control_c, 0, 64, 0
2, 33948, Note_on_c, 0, 48, 70
2, 33950, Note_on_c, 0, 53, 0
2, 33950, Note_on_c, 0, 38, 0
2, 33950, Note_on_c, 0, 74, 0
2, 33950, Note_on_c, 0, 69, 0
2, 33950, Note_on_c, 0, 50, 0
2, 33975, Note_on_c, 0, 72, 85
2, 33979, Note_on_c, 0, 67, 60
2, 34013, Note_on_c, 0, 50, 70
2, 34022, Control_c, 0, 64, 127
2, 34072, Note_on_c, 0, 74, 83
2, 34079, Note_on_c, 0, 69, 73
2, 34094, Note_on_c, 0, 53, 69
2, 34095, Note_on_c, 0, 62, 62
2, 34251, Control_c, 0, 64, 0
2, 34251, Note_on_c, 0, 53, 0
2, 34253, Note_on_c, 0, 62, 0
2, 34253, Note_on_c, 0, 50, 0
2, 34253, Note_on_c, 0, 72, 0
2, 34254, Note_on_c, 0, 67, 0
2, 34254, Note_on_c, 0, 69, 0
2, 34256, Note_on_c, 0, 74, 0
2, 34268, Note_on_c, 0, 48, 0
2, 34270, Note_on_c, 0, 38, 70
2, 34344, Control_c, 0, 64, 127
2, 34353, Note_on_c, 0, 74, 83
2, 34366, Note_on_c, 0, 62, 74
2, 34367, Note_on_c, 0, 69, 68
2, 34437, Note_on_c, 0, 50, 73
2, 34517, Note_on_c, 0, 72, 93
2, 34523, Note_on_c, 0, 60, 76
2, 34574, Note_on_c, 0, 52, 70
2, 34598, Note_on_c, 0, 62, 0
2, 34598, Note_on_c, 0, 74, 0
2, 34608, Note_on_c, 0, 74, 89
2, 34609, Note_on_c, 0, 62, 67
2, 34758, Note_on_c, 0, 77, 97
2, 34760, Note_on_c, 0, 65, 82
2, 34928, Note_on_c, 0, 38, 0
2, 34936, Note_on_c, 0, 50, 0
2, 34942, Note_on_c, 0, 50, 67
2, 34959, Note_on_c, 0, 60, 0
2, 34963, Note_on_c, 0, 57, 55
2, 34964, Note_on_c, 0, 84, 92
2, 34964, Note_on_c, 0, 60, 64
2, 34967, Note_on_c, 0, 72, 0
2, 34971, Note_on_c, 0, 72, 82
2, 34984, Control_c, 0, 64, 0
2, 34993, Note_on_c, 0, 74, 0
2, 34993, Note_on_c, 0, 69, 0
2, 34993, Note_on_c, 0, 62, 0
2, 34993, Note_on_c, 0, 52, 0
2, 34994, Note_on_c, 0, 77, 0
2, 35005, Note_on_c, 0, 65, 0
2, 35012, Note_on_c, 0, 65, 65
2, 35212, Note_on_c, 0, 84, 0
2, 35223, Note_on_c, 0, 84, 82
2, 35482, Note_on_c, 0, 77, 78
2, 35566, Control_c, 0, 64, 127
2, 35960, Note_on_c, 0, 79, 75
2, 36111, Note_on_c, 0, 77, 0
2, 36115, Note_on_c, 0, 77, 79
2, 36267, Note_on_c, 0, 45, 58
2, 36297, Note_on_c, 0, 76, 75
2, 36298, Note_on_c, 0, 64, 68
2, 36303, Note_on_c, 0, 60, 0
2, 36308, Note_on_c, 0, 84, 0
2, 36309, Note_on_c, 0, 65, 0
2, 36310, Note_on_c, 0, 57, 0
2, 36311, Note_on_c, 0, 79, 0
2, 36311, Note_on_c, 0, 77, 0
2, 36313, Note_on_c, 0, 60, 66
2, 36313, Control_c, 0, 64, 0
2, 36318, Note_on_c, 0, 50, 0
2, 36319, Note_on_c, 0, 55, 60
2, 36341, Note_on_c, 0, 72, 0
2, 36391, Note_on_c, 0, 64, 0
2, 36426, Control_c, 0, 64, 127
2, 36549, Note_on_c, 0, 76, 0
2, 36557, Note_on_c, 0, 76, 77
2, 36797, Note_on_c, 0, 81, 81
2, 37130, Note_on_c, 0, 64, 71
2, 37278, Note_on_c, 0, 60, 0
2, 37282, Note_on_c, 0, 60, 71
2, 37447, Note_on_c, 0, 52, 44
2, 37559, Note_on_c, 0, 46, 72
2, 37578, Note_on_c, 0, 52, 0
2, 37578, Note_on_c, 0, 81, 0
2, 37580, Note_on_c, 0, 60, 0
2, 37580, Note_on_c, 0, 45, 0
2, 37581, Note_on_c, 0, 76, 0
2, 37581, Note_on_c, 0, 55, 0
2, 37581, Note_on_c, 0, 72, 65
2, 37581, Note_on_c, 0, 64, 0
2, 37581, Control_c, 0, 64, 0
2, 37593, Note_on_c, 0, 72, 0
2, 37597, Note_on_c, 0, 53, 48
2, 37612, Note_on_c, 0, 84, 91
2, 37644, Note_on_c, 0, 58, 66
2, 37647, Control_c, 0, 64, 127
2, 37689, Note_on_c, 0, 62, 60
2, 37847, Note_on_c, 0, 84, 0
2, 37856, Note_on_c, 0, 84, 78
2, 38100, Note_on_c, 0, 77, 77
2, 38613, Note_on_c, 0, 79, 83
2, 38776, Note_on_c, 0, 77, 0
2, 38784, Note_on_c, 0, 77, 83
2, 38853, Note_on_c, 0, 53, 0
2, 38857, Note_on_c, 0, 53, 45
2, 38902, Note_on_c, 0, 60, 58
2, 38923, Control_c, 0, 64, 0
2, 38937, Note_on_c, 0, 53, 0
2, 38937, Note_on_c, 0, 79, 0
2, 38937, Note_on_c, 0, 84, 0
2, 38939, Note_on_c, 0, 58, 0
2, 38939, Note_on_c, 0, 62, 0
2, 38940, Note_on_c, 0, 46, 0
2, 38941, Note_on_c, 0, 77, 0
2, 38944, Note_on_c, 0, 53, 56
2, 38948, Note_on_c, 0, 79, 89
2, 38948, Note_on_c, 0, 72, 68
2, 39075, Control_c, 0, 64, 127
2, 39197, Note_on_c, 0, 82, 80
2, 39450, Note_on_c, 0, 81, 77
2, 39599, Note_on_c, 0, 79, 0
2, 39599, Note_on_c, 0, 82, 0
2, 39599, Note_on_c, 0, 72, 0
2, 39600, Note_on_c, 0, 60, 0
2, 39600, Note_on_c, 0, 81, 0
2, 39601, Control_c, 0, 64, 0
2, 39621, Note_on_c, 0, 53, 0
2, 39630, Note_on_c, 0, 53, 60
2, 39630, Note_on_c, 0, 69, 70
2, 39632, Note_on_c, 0, 65, 55
2, 39639, Note_on_c, 0, 60, 56
2, 39674, Control_c, 0, 64, 127
2, 39920, Control_c, 0, 64, 0
2, 39923, Note_on_c, 0, 53, 0
2, 39923, Note_on_c, 0, 69, 0
2, 39936, Note_on_c, 0, 65, 0
2, 39943, Note_on_c, 0, 60, 0
2, 39945, Note_on_c, 0, 67, 70
2, 39948, Note_on_c, 0, 64, 57
2, 39954, Note_on_c, 0, 60, 59
2, 39962, Note_on_c, 0, 52, 52
2, 39982, Control_c, 0, 64, 127
2, 40216, Note_on_c, 0, 52, 0
2, 40216, Control_c, 0, 64, 0
2, 40218, Note_on_c, 0, 60, 0
2, 40218, Note_on_c, 0, 64, 0
2, 40219, Note_on_c, 0, 67, 0
2, 40247, Note_on_c, 0, 46, 75
2, 40252, Note_on_c, 0, 84, 86
2, 40265, Note_on_c, 0, 77, 75
2, 40268, Note_on_c, 0, 74, 73
2, 40366, Control_c, 0, 64, 127
2, 40390, Note_on_c, 0, 53, 62
2, 40440, Control_c, 0, 64, 0
2, 40455, Note_on_c, 0, 46, 0
2, 40458, Note_on_c, 0, 74, 0
2, 40488, Note_on_c, 0, 84, 0
2, 40492, Note_on_c, 0, 58, 77
2, 40500, Note_on_c, 0, 84, 84
2, 40504, Note_on_c, 0, 77, 0
2, 40508, Note_on_c, 0, 77, 83
2, 40509, Note_on_c, 0, 74, 70
2, 40650, Note_on_c, 0, 53, 0
2, 40676, Note_on_c, 0, 58, 0
2, 40677, Note_on_c, 0, 62, 70
2, 40696, Note_on_c, 0, 77, 0
2, 40711, Note_on_c, 0, 74, 0
2, 40746, Note_on_c, 0, 62, 0
2, 40762, Note_on_c, 0, 77, 86
2, 40764, Note_on_c, 0, 74, 81
2, 40769, Note_on_c, 0, 58, 80
2, 40770, Note_on_c, 0, 70, 71
2, 40857, Note_on_c, 0, 84, 0
2, 40885, Note_on_c, 0, 58, 0
2, 40929, Note_on_c, 0, 46, 73
2, 41076, Note_on_c, 0, 53, 68
2, 41077, Note_on_c, 0, 46, 0
2, 41080, Note_on_c, 0, 70, 0
2, 41158, Note_on_c, 0, 58, 75
2, 41206, Note_on_c, 0, 53, 0
2, 41239, Note_on_c, 0, 76, 84
2, 41264, Note_on_c, 0, 72, 76
2, 41272, Note_on_c, 0, 74, 0
2, 41284, Note_on_c, 0, 58, 0
2, 41303, Note_on_c, 0, 77, 0
2, 41347, Note_on_c, 0, 62, 72
2, 41405, Note_on_c, 0, 58, 80
2, 41406, Note_on_c, 0, 62, 0
2, 41430, Note_on_c, 0, 77, 84
2, 41431, Note_on_c, 0, 74, 78
2, 41432, Note_on_c, 0, 76, 0
2, 41499, Note_on_c, 0, 58, 0
2, 41499, Note_on_c, 0, 53, 63
2, 41502, Note_on_c, 0, 72, 0
2, 41545, Note_on_c, 0, 53, 0
2, 41574, Note_on_c, 0, 48, 69
2, 41599, Note_on_c, 0, 76, 83
2, 41605, Note_on_c, 0, 72, 82
2, 41617, Note_on_c, 0, 74, 0
2, 41624, Note_on_c, 0, 77, 0
2, 41725, Note_on_c, 0, 48, 0
2, 41727, Note_on_c, 0, 55, 56
2, 41825, Note_on_c, 0, 76, 0
2, 41834, Note_on_c, 0, 60, 74
2, 41835, Note_on_c, 0, 76, 84
2, 41848, Note_on_c, 0, 72, 0
2, 41852, Note_on_c, 0, 72, 78
2, 41924, Note_on_c, 0, 55, 0
2, 41947, Note_on_c, 0, 60, 0
2, 42018, Note_on_c, 0, 64, 73
2, 42055, Note_on_c, 0, 76, 0
2, 42065, Note_on_c, 0, 79, 88
2, 42066, Note_on_c, 0, 76, 77
2, 42083, Note_on_c, 0, 64, 0
2, 42090, Note_on_c, 0, 60, 78
2, 42178, Note_on_c, 0, 60, 0
2, 42239, Note_on_c, 0, 48, 68
2, 42391, Note_on_c, 0, 55, 68
2, 42401, Control_c, 0, 64, 127
2, 42407, Control_c, 0, 64, 0
2, 42432, Control_c, 0, 64, 127
2, 42481, Note_on_c, 0, 60, 75
2, 42529, Note_on_c, 0, 55, 0
2, 42534, Note_on_c, 0, 48, 0
2, 42547, Note_on_c, 0, 76, 0
2, 42557, Note_on_c, 0, 76, 85
2, 42655, Note_on_c, 0, 64, 76
2, 42713, Note_on_c, 0, 77, 86
2, 42716, Note_on_c, 0, 72, 0
2, 42722, Note_on_c, 0, 72, 74
2, 42723, Note_on_c, 0, 60, 0
2, 42727, Note_on_c, 0, 60, 79
2, 42788, Note_on_c, 0, 55, 69
2, 42820, Control_c, 0, 64, 0
2, 42824, Note_on_c, 0, 64, 0
2, 42824, Note_on_c, 0, 72, 0
2, 42826, Note_on_c, 0, 76, 0
2, 42826, Note_on_c, 0, 79, 0
2, 42826, Note_on_c, 0, 60, 0
2, 42826, Note_on_c, 0, 77, 0
2, 42827, Note_on_c, 0, 55, 0
2, 42871, Note_on_c, 0, 53, 78
2, 42894, Note_on_c, 0, 77, 87
2, 42896, Note_on_c, 0, 79, 85
2, 42898, Note_on_c, 0, 72, 72
2, 42984, Control_c, 0, 64, 127
2, 43054, Note_on_c, 0, 53, 0
2, 43066, Note_on_c, 0, 60, 59
2, 43130, Note_on_c, 0, 72, 0
2, 43130, Note_on_c, 0, 77, 0
2, 43130, Note_on_c, 0, 79, 0
2, 43133, Note_on_c, 0, 65, 75
2, 43135, Note_on_c, 0, 77, 83
2, 43135, Note_on_c, 0, 79, 90
2, 43136, Note_on_c, 0, 53, 66
2, 43140, Note_on_c, 0, 72, 76
2, 43317, Note_on_c, 0, 69, 62
2, 43384, Note_on_c, 0, 53, 0
2, 43384, Note_on_c, 0, 77, 0
2, 43387, Note_on_c, 0, 81, 94
2, 43388, Note_on_c, 0, 53, 62
2, 43390, Note_on_c, 0, 77, 80
2, 43526, Note_on_c, 0, 79, 0
2, 43527, Note_on_c, 0, 60, 0
2, 43527, Note_on_c, 0, 69, 0
2, 43529, Note_on_c, 0, 65, 0
2, 43530, Control_c, 0, 64, 0
2, 43553, Note_on_c, 0, 53, 0
2, 43557, Note_on_c, 0, 53, 76
2, 43653, Control_c, 0, 64, 127
2, 43709, Note_on_c, 0, 60, 71
2, 43797, Note_on_c, 0, 65, 79
2, 43980, Control_c, 0, 64, 0
2, 43981, Note_on_c, 0, 60, 0
2, 43985, Note_on_c, 0, 53, 0
2, 43985, Note_on_c, 0, 65, 0
2, 43988, Note_on_c, 0, 57, 80
2, 43998, Note_on_c, 0, 72, 0
2, 44029, Control_c, 0, 64, 127
2, 44052, Note_on_c, 0, 81, 0
2, 44055, Note_on_c, 0, 53, 67
2, 44056, Note_on_c, 0, 81, 99
2, 44107, Note_on_c, 0, 48, 76
2, 44189, Note_on_c, 0, 57, 0
2, 44191, Note_on_c, 0, 48, 0
2, 44192, Note_on_c, 0, 77, 0
2, 44192, Note_on_c, 0, 81, 0
2, 44192, Note_on_c, 0, 53, 0
2, 44193, Control_c, 0, 64, 0
2, 44229, Note_on_c, 0, 79, 100
2, 44230, Note_on_c, 0, 40, 91
2, 44233, Note_on_c, 0, 70, 98
2, 44233, Note_on_c, 0, 74, 92
2, 44309, Note_on_c, 0, 74, 0
2, 44311, Note_on_c, 0, 70, 0
2, 44321, Note_on_c, 0, 40, 0
2, 44470, Note_on_c, 0, 55, 92
2, 44474, Note_on_c, 0, 52, 79
2, 44478, Note_on_c, 0, 74, 101
2, 44479, Note_on_c, 0, 70, 99
2, 44515, Note_on_c, 0, 52, 0
2, 44517, Note_on_c, 0, 55, 0
2, 44579, Note_on_c, 0, 70, 0
2, 44705, Note_on_c, 0, 74, 0
2, 44705, Note_on_c, 0, 79, 0
2, 44708, Note_on_c, 0, 40, 84
2, 44711, Note_on_c, 0, 82, 99
2, 44715, Note_on_c, 0, 70, 96
2, 44715, Note_on_c, 0, 79, 90
2, 44716, Note_on_c, 0, 74, 83
2, 44761, Note_on_c, 0, 40, 0
2, 44805, Note_on_c, 0, 74, 0
2, 44809, Note_on_c, 0, 79, 0
2, 44814, Note_on_c, 0, 70, 0
2, 44816, Note_on_c, 0, 82, 0
2, 44899, Note_on_c, 0, 33, 89
2, 44900, Note_on_c, 0, 81, 106
2, 44900, Note_on_c, 0, 45, 90
2, 44901, Note_on_c, 0, 69, 97
2, 44903, Note_on_c, 0, 73, 99
2, 44905, Note_on_c, 0, 76, 96
2, 44935, Control_c, 0, 64, 127
2, 45095, Note_on_c, 0, 57, 50
2, 45153, Note_on_c, 0, 61, 75
2, 45166, Note_on_c, 0, 69, 0
2, 45172, Note_on_c, 0, 69, 68
2, 45182, Note_on_c, 0, 64, 67
2, 45204, Note_on_c, 0, 81, 0
2, 45215, Note_on_c, 0, 81, 96
2, 45216, Note_on_c, 0, 85, 100
2, 45216, Note_on_c, 0, 93, 105
2, 45217, Note_on_c, 0, 88, 99
2, 45441, Control_c, 0, 64, 0
2, 45443, Note_on_c, 0, 64, 0
2, 45443, Note_on_c, 0, 57, 0
2, 45443, Note_on_c, 0, 61, 0
2, 45444, Note_on_c, 0, 93, 0
2, 45444, Note_on_c, 0, 69, 0
2, 45444, Note_on_c, 0, 88, 0
2, 45444, Note_on_c, 0, 85, 0
2, 45444, Note_on_c, 0, 73, 0
2, 45444, Note_on_c, 0, 76, 0
2, 45444, Note_on_c, 0, 81, 0
2, 45450, Note_on_c, 0, 33, 0
2, 45450, Note_on_c, 0, 45, 0
2, 45545, Note_on_c, 0, 38, 86
2, 45546, Note_on_c, 0, 84, 104
2, 45553, Note_on_c, 0, 72, 93
2, 45554, Note_on_c, 0, 77, 92
2, 45580, Control_c, 0, 64, 127
2, 45788, Note_on_c, 0, 72, 0
2, 45788, Note_on_c, 0, 84, 0
2, 45792, Note_on_c, 0, 84, 94
2, 45795, Note_on_c, 0, 77, 0
2, 45798, Note_on_c, 0, 72, 80
2, 45800, Note_on_c, 0, 77, 84
2, 45801, Note_on_c, 0, 57, 80
2, 45804, Note_on_c, 0, 62, 74
2, 45805, Note_on_c, 0, 74, 81
2, 45824, Control_c, 0, 64, 0
2, 45860, Note_on_c, 0, 77, 0
2, 45860, Note_on_c, 0, 72, 0
2, 45860, Note_on_c, 0, 62, 0
2, 45860, Note_on_c, 0, 57, 0
2, 45861, Note_on_c, 0, 84, 0
2, 45864, Note_on_c, 0, 74, 0
2, 45872, Note_on_c, 0, 38, 0
2, 46045, Note_on_c, 0, 77, 92
2, 46058, Note_on_c, 0, 62, 74
2, 46059, Note_on_c, 0, 74, 84
2, 46060, Note_on_c, 0, 69, 80
2, 46061, Note_on_c, 0, 57, 72
2, 46062, Note_on_c, 0, 53, 68
2, 46090, Note_on_c, 0, 62, 0
2, 46097, Note_on_c, 0, 57, 0
2, 46097, Note_on_c, 0, 53, 0
2, 46149, Note_on_c, 0, 69, 0
2, 46299, Note_on_c, 0, 53, 54
2, 46299, Note_on_c, 0, 57, 65
2, 46299, Note_on_c, 0, 62, 63
2, 46376, Note_on_c, 0, 53, 0
2, 46376, Note_on_c, 0, 62, 0
2, 46381, Note_on_c, 0, 57, 0
2, 46425, Control_c, 0, 64, 127
2, 46458, Note_on_c, 0, 50, 82
2, 46500, Note_on_c, 0, 53, 52
2, 46521, Note_on_c, 0, 57, 78
2, 46525, Note_on_c, 0, 74, 0
2, 46529, Note_on_c, 0, 62, 80
2, 46536, Note_on_c, 0, 74, 79
2, 46538, Note_on_c, 0, 76, 88
2, 46540, Note_on_c, 0, 69, 76
2, 46582, Note_on_c, 0, 62, 0
2, 46582, Note_on_c, 0, 74, 0
2, 46584, Note_on_c, 0, 50, 0
2, 46585, Note_on_c, 0, 53, 0
2, 46586, Note_on_c, 0, 77, 0
2, 46590, Note_on_c, 0, 57, 0
2, 46695, Note_on_c, 0, 62, 68
2, 46697, Note_on_c, 0, 53, 75
2, 46698, Control_c, 0, 64, 0
2, 46704, Note_on_c, 0, 74, 75
2, 46705, Note_on_c, 0, 77, 90
2, 46722, Note_on_c, 0, 53, 0
2, 46723, Note_on_c, 0, 62, 0
2, 46723, Note_on_c, 0, 76, 0
2, 46740, Note_on_c, 0, 69, 0
2, 46748, Note_on_c, 0, 74, 0
2, 46786, Note_on_c, 0, 77, 0
2, 46839, Note_on_c, 0, 33, 77
2, 46841, Note_on_c, 0, 76, 92
2, 46844, Note_on_c, 0, 72, 84
2, 46844, Note_on_c, 0, 69, 79
2, 46844, Note_on_c, 0, 45, 76
2, 46871, Control_c, 0, 64, 127
2, 46894, Note_on_c, 0, 69, 0
2, 47086, Note_on_c, 0, 72, 0
2, 47086, Note_on_c, 0, 76, 0
2, 47089, Note_on_c, 0, 52, 71
2, 47089, Note_on_c, 0, 57, 78
2, 47090, Note_on_c, 0, 60, 80
2, 47091, Note_on_c, 0, 76, 89
2, 47094, Note_on_c, 0, 72, 85
2, 47100, Note_on_c, 0, 69, 69
2, 47102, Control_c, 0, 64, 0
2, 47121, Note_on_c, 0, 52, 0
2, 47122, Note_on_c, 0, 72, 0
2, 47124, Note_on_c, 0, 57, 0
2, 47124, Note_on_c, 0, 60, 0
2, 47124, Note_on_c, 0, 45, 0
2, 47132, Note_on_c, 0, 33, 0
2, 47147, Note_on_c, 0, 69, 0
2, 47155, Note_on_c, 0, 76, 0
2, 47341, Note_on_c, 0, 81, 94
2, 47343, Note_on_c, 0, 69, 80
2, 47343, Note_on_c, 0, 72, 78
2, 47344, Note_on_c, 0, 60, 80
2, 47344, Note_on_c, 0, 57, 74
2, 47350, Note_on_c, 0, 76, 77
2, 47352, Note_on_c, 0, 52, 68
2, 47370, Control_c, 0, 64, 127
2, 47585, Note_on_c, 0, 52, 0
2, 47585, Note_on_c, 0, 57, 0
2, 47585, Note_on_c, 0, 60, 0
2, 47591, Note_on_c, 0, 60, 73
2, 47592, Note_on_c, 0, 57, 68
2, 47596, Note_on_c, 0, 52, 60
2, 47671, Note_on_c, 0, 88, 85
2, 47706, Note_on_c, 0, 45, 69
2, 47729, Note_on_c, 0, 84, 80
2, 47777, Note_on_c, 0, 57, 0
2, 47784, Note_on_c, 0, 52, 0
2, 47784, Note_on_c, 0, 60, 0
2, 47788, Note_on_c, 0, 57, 83
2, 47788, Note_on_c, 0, 60, 80
2, 47789, Note_on_c, 0, 52, 58
2, 47792, Note_on_c, 0, 72, 0
2, 47802, Note_on_c, 0, 72, 74
2, 47846, Note_on_c, 0, 76, 0
2, 47852, Note_on_c, 0, 76, 72
2, 47923, Note_on_c, 0, 72, 0
2, 47930, Note_on_c, 0, 52, 0
2, 47930, Note_on_c, 0, 60, 0
2, 47934, Note_on_c, 0, 72, 85
2, 47935, Note_on_c, 0, 60, 67
2, 47938, Note_on_c, 0, 52, 75
2, 47985, Note_on_c, 0, 67, 63
2, 48029, Note_on_c, 0, 84, 0
2, 48030, Note_on_c, 0, 69, 0
2, 48030, Note_on_c, 0, 52, 0
2, 48030, Note_on_c, 0, 76, 0
2, 48030, Note_on_c, 0, 81, 0
2, 48031, Note_on_c, 0, 88, 0
2, 48031, Note_on_c, 0, 72, 0
2, 48031, Note_on_c, 0, 60, 0
2, 48031, Note_on_c, 0, 45, 0
2, 48032, Note_on_c, 0, 67, 0
2, 48032, Control_c, 0, 64, 0
2, 48046, Note_on_c, 0, 57, 0
2, 48096, Note_on_c, 0, 84, 99
2, 48097, Note_on_c, 0, 34, 86
2, 48101, Note_on_c, 0, 46, 85
2, 48121, Note_on_c, 0, 77, 71
2, 48130, Control_c, 0, 64, 127
2, 48330, Note_on_c, 0, 84, 0
2, 48337, Note_on_c, 0, 84, 93
2, 48337, Note_on_c, 0, 77, 0
2, 48340, Note_on_c, 0, 72, 88
2, 48341, Note_on_c, 0, 58, 80
2, 48342, Note_on_c, 0, 62, 72
2, 48342, Note_on_c, 0, 77, 78
2, 48343, Note_on_c, 0, 53, 68
2, 48411, Control_c, 0, 64, 0
2, 48413, Note_on_c, 0, 77, 0
2, 48415, Note_on_c, 0, 62, 0
2, 48416, Note_on_c, 0, 53, 0
2, 48416, Note_on_c, 0, 84, 0
2, 48417, Note_on_c, 0, 46, 0
2, 48417, Note_on_c, 0, 72, 0
2, 48419, Note_on_c, 0, 58, 0
2, 48422, Note_on_c, 0, 34, 0
2, 48594, Note_on_c, 0, 77, 90
2, 48601, Note_on_c, 0, 74, 86
2, 48606, Note_on_c, 0, 58, 73
2, 48607, Note_on_c, 0, 70, 78
2, 48608, Note_on_c, 0, 62, 72
2, 48610, Note_on_c, 0, 53, 59
2, 48640, Note_on_c, 0, 62, 0
2, 48646, Note_on_c, 0, 58, 0
2, 48650, Note_on_c, 0, 53, 0
2, 48744, Control_c, 0, 64, 127
2, 48834, Note_on_c, 0, 62, 75
2, 48840, Note_on_c, 0, 58, 65
2, 48850, Note_on_c, 0, 53, 52
2, 49002, Note_on_c, 0, 46, 69
2, 49021, Note_on_c, 0, 53, 0
2, 49021, Note_on_c, 0, 58, 0
2, 49030, Note_on_c, 0, 58, 62
2, 49032, Note_on_c, 0, 53, 52
2, 49043, Note_on_c, 0, 77, 0
2, 49043, Control_c, 0, 64, 0
2, 49044, Note_on_c, 0, 62, 0
2, 49046, Note_on_c, 0, 46, 0
2, 49046, Note_on_c, 0, 74, 0
2, 49047, Note_on_c, 0, 70, 0
2, 49049, Note_on_c, 0, 62, 60
2, 49074, Note_on_c, 0, 86, 88
2, 49086, Note_on_c, 0, 77, 72
2, 49113, Control_c, 0, 64, 127
2, 49190, Note_on_c, 0, 62, 0
2, 49194, Note_on_c, 0, 62, 73
2, 49205, Note_on_c, 0, 58, 0
2, 49210, Note_on_c, 0, 58, 60
2, 49213, Note_on_c, 0, 53, 0
2, 49220, Note_on_c, 0, 84, 92
2, 49221, Note_on_c, 0, 53, 64
2, 49229, Note_on_c, 0, 81, 80
2, 49343, Note_on_c, 0, 58, 0
2, 49344, Note_on_c, 0, 62, 0
2, 49344, Note_on_c, 0, 53, 0
2, 49345, Note_on_c, 0, 77, 0
2, 49345, Control_c, 0, 64, 0
2, 49346, Note_on_c, 0, 81, 0
2, 49347, Note_on_c, 0, 84, 0
2, 49347, Note_on_c, 0, 86, 0
2, 49392, Note_on_c, 0, 41, 81
2, 49392, Note_on_c, 0, 72, 84
2, 49392, Note_on_c, 0, 53, 82
2, 49392, Note_on_c, 0, 77, 80
2, 49393, Note_on_c, 0, 82, 86
2, 49417, Note_on_c, 0, 72, 0
2, 49420, Control_c, 0, 64, 127
2, 49616, Note_on_c, 0, 53, 0
2, 49619, Control_c, 0, 64, 0
2, 49623, Note_on_c, 0, 60, 74
2, 49624, Note_on_c, 0, 57, 70
2, 49625, Note_on_c, 0, 84, 97
2, 49628, Note_on_c, 0, 77, 0
2, 49629, Note_on_c, 0, 65, 75
2, 49632, Note_on_c, 0, 72, 89
2, 49634, Note_on_c, 0, 77, 86
2, 49643, Note_on_c, 0, 41, 0
2, 49651, Note_on_c, 0, 82, 0
2, 49685, Note_on_c, 0, 65, 0
2, 49685, Note_on_c, 0, 57, 0
2, 49693, Note_on_c, 0, 60, 0
2, 49806, Note_on_c, 0, 84, 0
2, 49820, Note_on_c, 0, 72, 0
2, 49858, Note_on_c, 0, 77, 0
2, 49870, Note_on_c, 0, 81, 88
2, 49883, Note_on_c, 0, 72, 81
2, 49892, Note_on_c, 0, 65, 71
2, 49893, Note_on_c, 0, 57, 71
2, 49893, Note_on_c, 0, 60, 69
2, 49896, Note_on_c, 0, 77, 61
2, 49912, Control_c, 0, 64, 127
2, 50033, Control_c, 0, 64, 0
2, 50042, Note_on_c, 0, 65, 0
2, 50048, Note_on_c, 0, 65, 68
2, 50049, Note_on_c, 0, 53, 75
2, 50050, Note_on_c, 0, 57, 0
2, 50053, Note_on_c, 0, 89, 86
2, 50055, Note_on_c, 0, 57, 67
2, 50065, Note_on_c, 0, 72, 0
2, 50065, Control_c, 0, 64, 127
2, 50147, Note_on_c, 0, 84, 75
2, 50211, Note_on_c, 0, 81, 0
2, 50220, Note_on_c, 0, 81, 79
2, 50296, Note_on_c, 0, 77, 0
2, 50300, Note_on_c, 0, 77, 67
2, 50338, Note_on_c, 0, 55, 73
2, 50350, Note_on_c, 0, 60, 0
2, 50353, Note_on_c, 0, 53, 0
2, 50353, Note_on_c, 0, 89, 0
2, 50353, Note_on_c, 0, 81, 0
2, 50354, Note_on_c, 0, 48, 68
2, 50354, Note_on_c, 0, 77, 0
2, 50354, Note_on_c, 0, 84, 0
2, 50354, Note_on_c, 0, 57, 0
2, 50356, Note_on_c, 0, 40, 64
2, 50357, Control_c, 0, 64, 0
2, 50360, Note_on_c, 0, 88, 90
2, 50365, Note_on_c, 0, 65, 0
2, 50379, Note_on_c, 0, 55, 0
2, 50403, Control_c, 0, 64, 127
2, 50449, Note_on_c, 0, 84, 80
2, 50500, Note_on_c, 0, 79, 70
2, 50581, Note_on_c, 0, 76, 73
2, 50610, Note_on_c, 0, 84, 0
2, 50610, Note_on_c, 0, 48, 0
2, 50611, Note_on_c, 0, 88, 0
2, 50612, Note_on_c, 0, 79, 0
2, 50613, Control_c, 0, 64, 0
2, 50613, Note_on_c, 0, 76, 0
2, 50626, Note_on_c, 0, 40, 0
2, 50670, Note_on_c, 0, 46, 88
2, 50672, Note_on_c, 0, 84, 100
2, 50675, Note_on_c, 0, 34, 84
2, 50678, Note_on_c, 0, 72, 85
2, 50680, Control_c, 0, 64, 127
2, 50685, Note_on_c, 0, 77, 79
2, 50910, Note_on_c, 0, 84, 0
2, 50918, Note_on_c, 0, 34, 0
2, 50920, Note_on_c, 0, 84, 93
2, 50926, Note_on_c, 0, 77, 0
2, 50927, Control_c, 0, 64, 0
2, 50930, Note_on_c, 0, 53, 63
2, 50930, Note_on_c, 0, 77, 69
2, 50933, Note_on_c, 0, 58, 71
2, 50934, Note_on_c, 0, 62, 67
2, 50938, Note_on_c, 0, 74, 65
2, 50956, Note_on_c, 0, 46, 0
2, 50972, Note_on_c, 0, 72, 0
2, 50974, Note_on_c, 0, 77, 0
2, 50981, Note_on_c, 0, 84, 0
2, 50986, Note_on_c, 0, 62, 0
2, 50987, Note_on_c, 0, 53, 0
2, 50992, Note_on_c, 0, 58, 0
2, 50995, Note_on_c, 0, 74, 0
2, 51169, Note_on_c, 0, 77, 91
2, 51180, Note_on_c, 0, 74, 83
2, 51184, Note_on_c, 0, 62, 71
2, 51184, Note_on_c, 0, 58, 74
2, 51184, Note_on_c, 0, 70, 75
2, 51188, Note_on_c, 0, 53, 58
2, 51258, Note_on_c, 0, 62, 0
2, 51260, Note_on_c, 0, 53, 0
2, 51267, Note_on_c, 0, 58, 0
2, 51409, Control_c, 0, 64, 127
2, 51417, Note_on_c, 0, 62, 78
2, 51420, Note_on_c, 0, 58, 68
2, 51423, Note_on_c, 0, 53, 51
2, 51565, Note_on_c, 0, 62, 0
2, 51566, Note_on_c, 0, 58, 0
2, 51566, Note_on_c, 0, 53, 0
2, 51566, Control_c, 0, 64, 0
2, 51566, Note_on_c, 0, 70, 0
2, 51566, Note_on_c, 0, 77, 0
2, 51567, Note_on_c, 0, 74, 0
2, 51578, Note_on_c, 0, 46, 69
2, 51615, Note_on_c, 0, 53, 68
2, 51621, Note_on_c, 0, 46, 0
2, 51629, Note_on_c, 0, 58, 66
2, 51637, Note_on_c, 0, 74, 74
2, 51638, Note_on_c, 0, 62, 67
2, 51639, Note_on_c, 0, 76, 84
2, 51667, Note_on_c, 0, 72, 76
2, 51678, Control_c, 0, 64, 127
2, 51793, Note_on_c, 0, 62, 0
2, 51801, Note_on_c, 0, 53, 0
2, 51801, Note_on_c, 0, 58, 0
2, 51801, Note_on_c, 0, 74, 0
2, 51803, Note_on_c, 0, 62, 72
2, 51805, Note_on_c, 0, 53, 70
2, 51805, Note_on_c, 0, 74, 82
2, 51808, Note_on_c, 0, 77, 86
2, 51808, Note_on_c, 0, 58, 67
2, 51881, Note_on_c, 0, 76, 0
2, 51881, Note_on_c, 0, 53, 0
2, 51882, Note_on_c, 0, 62, 0
2, 51882, Note_on_c, 0, 72, 0
2, 51882, Note_on_c, 0, 58, 0
2, 51883, Note_on_c, 0, 74, 0
2, 51884, Note_on_c, 0, 77, 0
2, 51884, Control_c, 0, 64, 0
2, 51960, Note_on_c, 0, 36, 74
2, 51962, Note_on_c, 0, 48, 78
2, 51964, Note_on_c, 0, 76, 95
2, 51966, Note_on_c, 0, 72, 85
2, 51985, Control_c, 0, 64, 127
2, 52137, Note_on_c, 0, 56, 49
2, 52191, Control_c, 0, 64, 0
2, 52200, Note_on_c, 0, 72, 0
2, 52208, Note_on_c, 0, 36, 0
2, 52212, Note_on_c, 0, 72, 87
2, 52219, Note_on_c, 0, 60, 74
2, 52229, Note_on_c, 0, 76, 0
2, 52235, Note_on_c, 0, 64, 70
2, 52239, Note_on_c, 0, 48, 0
2, 52270, Note_on_c, 0, 56, 0
2, 52273, Note_on_c, 0, 64, 0
2, 52294, Note_on_c, 0, 60, 0
2, 52294, Note_on_c, 0, 72, 0
2, 52451, Note_on_c, 0, 79, 86
2, 52457, Note_on_c, 0, 76, 87
2, 52462, Note_on_c, 0, 64, 76
2, 52466, Note_on_c, 0, 55, 61
2, 52467, Note_on_c, 0, 60, 61
2, 52472, Note_on_c, 0, 72, 76
2, 52553, Note_on_c, 0, 55, 0
2, 52554, Note_on_c, 0, 64, 0
2, 52560, Note_on_c, 0, 60, 0
2, 52608, Control_c, 0, 64, 127
2, 52695, Note_on_c, 0, 77, 90
2, 52712, Note_on_c, 0, 64, 73
2, 52712, Note_on_c, 0, 60, 64
2, 52721, Note_on_c, 0, 55, 50
2, 52834, Control_c, 0, 64, 0
2, 52842, Note_on_c, 0, 79, 0
2, 52854, Note_on_c, 0, 48, 73
2, 52876, Note_on_c, 0, 55, 0
2, 52884, Note_on_c, 0, 55, 66
2, 52884, Note_on_c, 0, 60, 0
2, 52884, Note_on_c, 0, 72, 0
2, 52888, Note_on_c, 0, 50, 62
2, 52888, Note_on_c, 0, 60, 74
2, 52892, Note_on_c, 0, 50, 0
2, 52895, Note_on_c, 0, 72, 71
2, 52898, Note_on_c, 0, 48, 0
2, 52907, Note_on_c, 0, 76, 0
2, 52912, Note_on_c, 0, 76, 82
2, 52915, Note_on_c, 0, 64, 0
2, 52925, Note_on_c, 0, 64, 63
2, 52938, Control_c, 0, 64, 127
2, 53030, Note_on_c, 0, 64, 0
2, 53040, Note_on_c, 0, 64, 75
2, 53053, Note_on_c, 0, 55, 0
2, 53053, Note_on_c, 0, 60, 0
2, 53053, Note_on_c, 0, 77, 0
2, 53057, Note_on_c, 0, 60, 61
2, 53060, Note_on_c, 0, 55, 74
2, 53062, Note_on_c, 0, 77, 87
2, 53148, Control_c, 0, 64, 0
2, 53148, Note_on_c, 0, 72, 0
2, 53149, Note_on_c, 0, 60, 0
2, 53149, Note_on_c, 0, 55, 0
2, 53149, Note_on_c, 0, 76, 0
2, 53149, Note_on_c, 0, 77, 0
2, 53168, Note_on_c, 0, 64, 0
2, 53219, Note_on_c, 0, 38, 72
2, 53222, Control_c, 0, 64, 127
2, 53224, Note_on_c, 0, 76, 90
2, 53225, Note_on_c, 0, 65, 74
2, 53225, Note_on_c, 0, 50, 70
2, 53228, Note_on_c, 0, 69, 71
2, 53452, Note_on_c, 0, 69, 0
2, 53460, Note_on_c, 0, 76, 0
2, 53464, Note_on_c, 0, 69, 80
2, 53464, Note_on_c, 0, 57, 73
2, 53465, Note_on_c, 0, 62, 72
2, 53466, Note_on_c, 0, 76, 80
2, 53468, Note_on_c, 0, 65, 0
2, 53472, Note_on_c, 0, 65, 65
2, 53500, Control_c, 0, 64, 0
2, 53506, Note_on_c, 0, 38, 0
2, 53514, Note_on_c, 0, 50, 0
2, 53531, Note_on_c, 0, 62, 0
2, 53534, Note_on_c, 0, 57, 0
2, 53714, Note_on_c, 0, 74, 86
2, 53718, Note_on_c, 0, 62, 69
2, 53722, Note_on_c, 0, 57, 69
2, 53724, Note_on_c, 0, 53, 54
2, 53772, Note_on_c, 0, 62, 0
2, 53795, Note_on_c, 0, 53, 0
2, 53795, Note_on_c, 0, 57, 0
2, 53802, Note_on_c, 0, 74, 0
2, 53806, Note_on_c, 0, 65, 0
2, 53806, Note_on_c, 0, 76, 0
2, 53813, Note_on_c, 0, 69, 0
2, 53880, Note_on_c, 0, 62, 72
2, 53882, Note_on_c, 0, 74, 84
2, 53885, Note_on_c, 0, 50, 74
2, 53885, Note_on_c, 0, 57, 61
2, 53886, Note_on_c, 0, 69, 76
2, 53891, Note_on_c, 0, 53, 62
2, 53897, Note_on_c, 0, 65, 63
2, 53905, Control_c, 0, 64, 127
2, 54177, Control_c, 0, 64, 0
2, 54178, Note_on_c, 0, 50, 0
2, 54178, Note_on_c, 0, 53, 0
2, 54180, Note_on_c, 0, 62, 0
2, 54203, Note_on_c, 0, 33, 71
2, 54203, Note_on_c, 0, 45, 76
2, 54228, Control_c, 0, 64, 127
2, 54493, Control_c, 0, 64, 0
2, 54497, Note_on_c, 0, 45, 0
2, 54497, Note_on_c, 0, 57, 0
2, 54504, Note_on_c, 0, 33, 0
2, 54504, Note_on_c, 0, 65, 0
2, 54512, Note_on_c, 0, 74, 0
2, 54520, Note_on_c, 0, 69, 0
2, 54531, Note_on_c, 0, 50, 83
2, 54532, Note_on_c, 0, 38, 77
2, 54589, Control_c, 0, 64, 127
2, 54593, Note_on_c, 0, 55, 72
2, 54640, Note_on_c, 0, 57, 73
2, 54721, Note_on_c, 0, 62, 68
2, 54768, Note_on_c, 0, 67, 74
2, 54808, Note_on_c, 0, 69, 70
2, 54882, Note_on_c, 0, 74, 73
2, 54929, Note_on_c, 0, 79, 83
2, 54967, Note_on_c, 0, 81, 58
2, 55023, Note_on_c, 0, 86, 92
2, 55077, Note_on_c, 0, 91, 85
2, 55116, Note_on_c, 0, 93, 79
2, 55163, Note_on_c, 0, 98, 97
2, 55219, Note_on_c, 0, 93, 0
2, 55223, Note_on_c, 0, 93, 74
2, 55249, Note_on_c, 0, 91, 0
2, 55254, Note_on_c, 0, 91, 78
2, 55288, Note_on_c, 0, 86, 0
2, 55298, Note_on_c, 0, 86, 73
2, 55365, Note_on_c, 0, 81, 0
2, 55375, Note_on_c, 0, 81, 57
2, 55403, Note_on_c, 0, 79, 0
2, 55411, Note_on_c, 0, 79, 78
2, 55449, Note_on_c, 0, 74, 0
2, 55459, Note_on_c, 0, 74, 78
2, 55488, Note_on_c, 0, 62, 0
2, 55492, Note_on_c, 0, 62, 88
2, 55506, Note_on_c, 0, 98, 0
2, 55507, Control_c, 0, 64, 0
2, 55507, Note_on_c, 0, 93, 0
2, 55507, Note_on_c, 0, 86, 0
2, 55507, Note_on_c, 0, 57, 0
2, 55507, Note_on_c, 0, 67, 0
2, 55508, Note_on_c, 0, 91, 0
2, 55508, Note_on_c, 0, 79, 0
2, 55508, Note_on_c, 0, 55, 0
2, 55509, Note_on_c, 0, 50, 0
2, 55511, Note_on_c, 0, 38, 0
2, 55518, Note_on_c, 0, 81, 0
2, 55526, Note_on_c, 0, 69, 0
2, 55564, Control_c, 0, 64, 127
2, 55636, Note_on_c, 0, 60, 91
2, 55637, Note_on_c, 0, 72, 74
2, 55779, Note_on_c, 0, 74, 0
2, 55787, Note_on_c, 0, 62, 0
2, 55793, Note_on_c, 0, 60, 0
2, 55796, Control_c, 0, 64, 0
2, 55802, Note_on_c, 0, 72, 0
2, 55807, Note_on_c, 0, 98, 88
2, 55811, Note_on_c, 0, 46, 76
2, 55812, Note_on_c, 0, 86, 78
2, 55815, Note_on_c, 0, 58, 77
2, 55826, Note_on_c, 0, 53, 60
2, 55848, Control_c, 0, 64, 127
2, 55886, Note_on_c, 0, 94, 82
2, 55910, Note_on_c, 0, 58, 0
2, 55968, Note_on_c, 0, 89, 79
2, 56025, Note_on_c, 0, 86, 0
2, 56030, Note_on_c, 0, 86, 61
2, 56038, Note_on_c, 0, 60, 89
2, 56056, Note_on_c, 0, 53, 0
2, 56067, Note_on_c, 0, 53, 37
2, 56103, Note_on_c, 0, 82, 69
2, 56176, Note_on_c, 0, 77, 73
2, 56282, Note_on_c, 0, 74, 73
2, 56285, Note_on_c, 0, 62, 77
2, 56288, Note_on_c, 0, 70, 55
2, 56434, Note_on_c, 0, 86, 0
2, 56434, Note_on_c, 0, 60, 0
2, 56434, Note_on_c, 0, 89, 0
2, 56435, Note_on_c, 0, 70, 0
2, 56435, Note_on_c, 0, 98, 0
2, 56435, Note_on_c, 0, 94, 0
2, 56435, Note_on_c, 0, 77, 0
2, 56435, Note_on_c, 0, 53, 0
2, 56435, Note_on_c, 0, 82, 0
2, 56437, Control_c, 0, 64, 0
2, 56440, Note_on_c, 0, 46, 0
2, 56448, Note_on_c, 0, 74, 0
2, 56455, Note_on_c, 0, 62, 0
2, 56456, Note_on_c, 0, 74, 84
2, 56459, Note_on_c, 0, 47, 71
2, 56461, Note_on_c, 0, 55, 75
2, 56461, Note_on_c, 0, 62, 83
2, 56494, Control_c, 0, 64, 127
2, 56502, Note_on_c, 0, 47, 0
2, 56539, Note_on_c, 0, 79, 59
2, 56607, Note_on_c, 0, 83, 74
2, 56694, Note_on_c, 0, 64, 95
2, 56698, Note_on_c, 0, 86, 84
2, 56777, Note_on_c, 0, 91, 78
2, 56858, Note_on_c, 0, 95, 82
2, 56913, Note_on_c, 0, 98, 78
2, 56916, Note_on_c, 0, 65, 80
2, 56996, Note_on_c, 0, 103, 90
2, 57089, Note_on_c, 0, 48, 69
2, 57092, Note_on_c, 0, 79, 0
2, 57093, Note_on_c, 0, 55, 0
2, 57093, Note_on_c, 0, 86, 0
2, 57093, Note_on_c, 0, 74, 0
2, 57094, Note_on_c, 0, 95, 0
2, 57094, Note_on_c, 0, 83, 0
2, 57095, Note_on_c, 0, 65, 0
2, 57099, Control_c, 0, 64, 0
2, 57100, Note_on_c, 0, 62, 0
2, 57100, Note_on_c, 0, 64, 0
2, 57100, Note_on_c, 0, 103, 0
2, 57102, Note_on_c, 0, 100, 91
2, 57104, Note_on_c, 0, 55, 75
2, 57106, Note_on_c, 0, 64, 95
2, 57146, Control_c, 0, 64, 127
2, 57191, Note_on_c, 0, 96, 81
2, 57357, Note_on_c, 0, 88, 70
2, 57357, Note_on_c, 0, 65, 84
2, 57423, Note_on_c, 0, 84, 79
2, 57510, Note_on_c, 0, 79, 61
2, 57589, Note_on_c, 0, 76, 68
2, 57593, Note_on_c, 0, 67, 76
2, 57646, Note_on_c, 0, 98, 0
2, 57679, Note_on_c, 0, 72, 71
2, 57730, Note_on_c, 0, 91, 0
2, 57734, Note_on_c, 0, 65, 0
2, 57734, Note_on_c, 0, 96, 0
2, 57734, Note_on_c, 0, 64, 0
2, 57734, Note_on_c, 0, 88, 0
2, 57735, Note_on_c, 0, 84, 0
2, 57735, Note_on_c, 0, 72, 0
2, 57735, Note_on_c, 0, 67, 0
2, 57736, Note_on_c, 0, 79, 0
2, 57737, Control_c, 0, 64, 0
2, 57745, Note_on_c, 0, 55, 0
2, 57745, Note_on_c, 0, 100, 0
2, 57753, Note_on_c, 0, 48, 0
2, 57757, Note_on_c, 0, 55, 82
2, 57757, Note_on_c, 0, 60, 86
2, 57761, Note_on_c, 0, 76, 0
2, 57769, Note_on_c, 0, 76, 75
2, 57784, Control_c, 0, 64, 127
2, 57855, Note_on_c, 0, 79, 75
2, 57937, Note_on_c, 0, 84, 78
2, 58025, Note_on_c, 0, 88, 79
2, 58057, Note_on_c, 0, 46, 77
2, 58110, Note_on_c, 0, 91, 73
2, 58167, Note_on_c, 0, 96, 78
2, 58225, Note_on_c, 0, 100, 77
2, 58307, Note_on_c, 0, 103, 68
2, 58314, Note_on_c, 0, 103, 0
2, 58368, Note_on_c, 0, 55, 0
2, 58368, Note_on_c, 0, 60, 0
2, 58375, Note_on_c, 0, 55, 70
2, 58375, Note_on_c, 0, 45, 72
2, 58379, Note_on_c, 0, 60, 80
2, 58383, Note_on_c, 0, 100, 0
2, 58389, Note_on_c, 0, 100, 88
2, 58393, Note_on_c, 0, 84, 0
2, 58394, Note_on_c, 0, 88, 0
2, 58394, Note_on_c, 0, 96, 0
2, 58394, Note_on_c, 0, 79, 0
2, 58395, Note_on_c, 0, 91, 0
2, 58395, Control_c, 0, 64, 0
2, 58395, Note_on_c, 0, 46, 0
2, 58406, Note_on_c, 0, 76, 0
2, 58452, Control_c, 0, 64, 127
2, 58479, Note_on_c, 0, 96, 77
2, 58551, Note_on_c, 0, 93, 80
2, 58567, Note_on_c, 0, 100, 0
2, 58626, Note_on_c, 0, 62, 86
2, 58699, Note_on_c, 0, 84, 73
2, 58784, Note_on_c, 0, 81, 74
2, 58864, Note_on_c, 0, 64, 88
2, 58925, Note_on_c, 0, 72, 80
2, 58998, Note_on_c, 0, 49, 81
2, 59000, Note_on_c, 0, 84, 0
2, 59000, Note_on_c, 0, 93, 0
2, 59000, Note_on_c, 0, 96, 0
2, 59000, Note_on_c, 0, 72, 0
2, 59000, Note_on_c, 0, 62, 0
2, 59000, Note_on_c, 0, 81, 0
2, 59001, Control_c, 0, 64, 0
2, 59013, Note_on_c, 0, 45, 0
2, 59013, Note_on_c, 0, 55, 0
2, 59013, Note_on_c, 0, 60, 0
2, 59020, Note_on_c, 0, 57, 86
2, 59028, Note_on_c, 0, 64, 0
2, 59030, Note_on_c, 0, 76, 83
2, 59034, Note_on_c, 0, 64, 94
2, 59059, Control_c, 0, 64, 127
2, 59108, Note_on_c, 0, 81, 75
2, 59192, Note_on_c, 0, 85, 80
2, 59265, Note_on_c, 0, 65, 87
2, 59275, Note_on_c, 0, 88, 69
2, 59339, Note_on_c, 0, 93, 84
2, 59395, Note_on_c, 0, 97, 77
2, 59468, Note_on_c, 0, 100, 83
2, 59475, Note_on_c, 0, 67, 74
2, 59561, Note_on_c, 0, 103, 78
2, 59611, Note_on_c, 0, 50, 73
2, 59612, Note_on_c, 0, 57, 0
2, 59617, Note_on_c, 0, 57, 70
2, 59629, Note_on_c, 0, 93, 0
2, 59629, Note_on_c, 0, 64, 0
2, 59629, Control_c, 0, 64, 0
2, 59629, Note_on_c, 0, 97, 0
2, 59629, Note_on_c, 0, 67, 0
2, 59629, Note_on_c, 0, 88, 0
2, 59629, Note_on_c, 0, 49, 0
2, 59629, Note_on_c, 0, 85, 0
2, 59630, Note_on_c, 0, 81, 0
2, 59635, Note_on_c, 0, 103, 0
2, 59642, Note_on_c, 0, 76, 0
2, 59650, Note_on_c, 0, 65, 0
2, 59655, Note_on_c, 0, 101, 84
2, 59658, Note_on_c, 0, 65, 92
2, 59696, Control_c, 0, 64, 127
2, 59736, Note_on_c, 0, 98, 95
2, 59903, Note_on_c, 0, 70, 84
2, 59907, Note_on_c, 0, 89, 75
2, 59980, Note_on_c, 0, 86, 83
2, 60047, Note_on_c, 0, 81, 74
2, 60049, Note_on_c, 0, 100, 0
2, 60128, Note_on_c, 0, 69, 76
2, 60131, Note_on_c, 0, 77, 73
2, 60208, Note_on_c, 0, 74, 76
2, 60280, Note_on_c, 0, 57, 0
2, 60284, Control_c, 0, 64, 0
2, 60284, Note_on_c, 0, 86, 0
2, 60284, Note_on_c, 0, 89, 0
2, 60285, Note_on_c, 0, 81, 0
2, 60285, Note_on_c, 0, 98, 0
2, 60285, Note_on_c, 0, 69, 0
2, 60286, Note_on_c, 0, 74, 0
2, 60286, Note_on_c, 0, 70, 0
2, 60287, Note_on_c, 0, 50, 0
2, 60288, Note_on_c, 0, 65, 0
2, 60288, Note_on_c, 0, 77, 0
2, 60298, Note_on_c, 0, 77, 84
2, 60298, Note_on_c, 0, 65, 93
2, 60300, Note_on_c, 0, 62, 89
2, 60303, Note_on_c, 0, 101, 0
2, 60349, Control_c, 0, 64, 127
2, 60372, Note_on_c, 0, 74, 81
2, 60447, Note_on_c, 0, 69, 65
2, 60526, Note_on_c, 0, 65, 0
2, 60531, Note_on_c, 0, 65, 74
2, 60579, Note_on_c, 0, 62, 0
2, 60586, Note_on_c, 0, 62, 78
2, 60652, Note_on_c, 0, 57, 66
2, 60726, Note_on_c, 0, 53, 65
2, 60790, Note_on_c, 0, 50, 71
2, 60908, Note_on_c, 0, 37, 77
2, 60909, Note_on_c, 0, 53, 0
2, 60910, Note_on_c, 0, 69, 0
2, 60910, Note_on_c, 0, 50, 0
2, 60910, Note_on_c, 0, 57, 0
2, 60910, Note_on_c, 0, 62, 0
2, 60910, Control_c, 0, 64, 0
2, 60917, Note_on_c, 0, 74, 0
2, 60933, Note_on_c, 0, 77, 0
2, 60937, Note_on_c, 0, 77, 97
2, 60940, Note_on_c, 0, 65, 0
2, 60943, Note_on_c, 0, 68, 88
2, 60944, Note_on_c, 0, 65, 79
2, 60986, Note_on_c, 0, 37, 0
2, 60986, Control_c, 0, 64, 127
2, 60992, Note_on_c, 0, 49, 58
2, 60997, Note_on_c, 0, 53, 64
2, 60998, Note_on_c, 0, 44, 62
2, 61078, Control_c, 0, 64, 0
2, 61080, Note_on_c, 0, 77, 0
2, 61083, Note_on_c, 0, 53, 0
2, 61083, Note_on_c, 0, 49, 0
2, 61083, Note_on_c, 0, 65, 0
2, 61084, Note_on_c, 0, 44, 0
2, 61102, Note_on_c, 0, 68, 0
2, 61192, Note_on_c, 0, 77, 94
2, 61198, Note_on_c, 0, 53, 79
2, 61198, Note_on_c, 0, 68, 80
2, 61199, Note_on_c, 0, 65, 73
2, 61200, Note_on_c, 0, 49, 71
2, 61205, Note_on_c, 0, 44, 67
2, 61236, Note_on_c, 0, 49, 0
2, 61239, Note_on_c, 0, 68, 0
2, 61239, Note_on_c, 0, 53, 0
2, 61249, Note_on_c, 0, 44, 0
2, 61286, Note_on_c, 0, 65, 0
2, 61286, Note_on_c, 0, 77, 0
2, 61430, Note_on_c, 0, 77, 92
2, 61435, Note_on_c, 0, 53, 77
2, 61437, Note_on_c, 0, 49, 72
2, 61437, Note_on_c, 0, 68, 82
2, 61437, Note_on_c, 0, 65, 76
2, 61444, Note_on_c, 0, 44, 64
2, 61476, Note_on_c, 0, 53, 0
2, 61478, Note_on_c, 0, 49, 0
2, 61480, Note_on_c, 0, 68, 0
2, 61495, Note_on_c, 0, 44, 0
2, 61509, Note_on_c, 0, 65, 0
2, 61524, Note_on_c, 0, 77, 0
2, 61591, Note_on_c, 0, 49, 78
2, 61594, Note_on_c, 0, 56, 85
2, 61597, Note_on_c, 0, 68, 90
2, 61597, Note_on_c, 0, 53, 73
2, 61603, Note_on_c, 0, 77, 93
2, 61604, Note_on_c, 0, 65, 79
2, 61626, Note_on_c, 0, 56, 0
2, 61628, Note_on_c, 0, 49, 0
2, 61631, Note_on_c, 0, 53, 0
2, 61677, Note_on_c, 0, 49, 77
2, 61679, Note_on_c, 0, 56, 73
2, 61680, Note_on_c, 0, 53, 66
2, 61724, Note_on_c, 0, 68, 0
2, 61728, Note_on_c, 0, 56, 0
2, 61728, Note_on_c, 0, 49, 0
2, 61785, Note_on_c, 0, 53, 0
2, 61793, Note_on_c, 0, 65, 0
2, 61793, Note_on_c, 0, 77, 0
2, 61836, Note_on_c, 0, 79, 92
2, 61846, Note_on_c, 0, 67, 81
2, 61846, Note_on_c, 0, 56, 82
2, 61847, Note_on_c, 0, 70, 78
2, 61851, Note_on_c, 0, 53, 68
2, 61852, Note_on_c, 0, 49, 74
2, 61881, Note_on_c, 0, 79, 0
2, 61896, Note_on_c, 0, 70, 0
2, 61921, Note_on_c, 0, 49, 0
2, 61927, Note_on_c, 0, 56, 0
2, 61935, Note_on_c, 0, 53, 0
2, 61939, Note_on_c, 0, 67, 0
2, 62065, Note_on_c, 0, 80, 92
2, 62066, Note_on_c, 0, 56, 84
2, 62069, Note_on_c, 0, 53, 65
2, 62070, Note_on_c, 0, 68, 88
2, 62071, Note_on_c, 0, 44, 76
2, 62077, Note_on_c, 0, 44, 0
2, 62080, Note_on_c, 0, 49, 77
2, 62121, Note_on_c, 0, 56, 0
2, 62138, Note_on_c, 0, 53, 0
2, 62142, Note_on_c, 0, 68, 0
2, 62146, Note_on_c, 0, 49, 0
2, 62154, Note_on_c, 0, 80, 0
2, 62234, Note_on_c, 0, 39, 81
2, 62260, Note_on_c, 0, 79, 98
2, 62273, Note_on_c, 0, 67, 81
2, 62275, Note_on_c, 0, 70, 90
2, 62307, Control_c, 0, 64, 127
2, 62311, Note_on_c, 0, 55, 71
2, 62411, Control_c, 0, 64, 0
2, 62492, Note_on_c, 0, 55, 0
2, 62492, Note_on_c, 0, 79, 0
2, 62498, Note_on_c, 0, 55, 83
2, 62499, Note_on_c, 0, 67, 0
2, 62499, Note_on_c, 0, 70, 0
2, 62501, Note_on_c, 0, 51, 79
2, 62502, Note_on_c, 0, 79, 82
2, 62502, Note_on_c, 0, 46, 74
2, 62504, Note_on_c, 0, 67, 76
2, 62507, Note_on_c, 0, 70, 81
2, 62566, Note_on_c, 0, 67, 0
2, 62567, Note_on_c, 0, 55, 0
2, 62568, Note_on_c, 0, 79, 0
2, 62569, Note_on_c, 0, 70, 0
2, 62570, Note_on_c, 0, 51, 0
2, 62570, Note_on_c, 0, 46, 0
2, 62584, Note_on_c, 0, 39, 0
2, 62737, Note_on_c, 0, 75, 96
2, 62739, Note_on_c, 0, 63, 83
2, 62741, Note_on_c, 0, 55, 75
2, 62741, Note_on_c, 0, 51, 71
2, 62748, Note_on_c, 0, 46, 69
2, 62750, Note_on_c, 0, 70, 71
2, 62773, Note_on_c, 0, 55, 0
2, 62773, Note_on_c, 0, 63, 0
2, 62777, Note_on_c, 0, 51, 0
2, 62779, Note_on_c, 0, 46, 0
2, 62780, Note_on_c, 0, 75, 0
2, 62814, Note_on_c, 0, 70, 0
2, 62910, Note_on_c, 0, 58, 85
2, 62910, Note_on_c, 0, 51, 80
2, 62910, Note_on_c, 0, 75, 98
2, 62916, Note_on_c, 0, 70, 88
2, 62916, Note_on_c, 0, 55, 72
2, 62920, Note_on_c, 0, 67, 72
2, 62948, Note_on_c, 0, 51, 0
2, 62976, Note_on_c, 0, 55, 0
2, 62983, Note_on_c, 0, 58, 0
2, 62993, Note_on_c, 0, 58, 74
2, 62999, Note_on_c, 0, 51, 74
2, 62999, Note_on_c, 0, 55, 68
2, 63047, Note_on_c, 0, 58, 0
2, 63048, Note_on_c, 0, 55, 0
2, 63049, Note_on_c, 0, 51, 0
2, 63175, Note_on_c, 0, 70, 0
2, 63178, Note_on_c, 0, 58, 85
2, 63179, Note_on_c, 0, 55, 82
2, 63179, Note_on_c, 0, 70, 82
2, 63181, Note_on_c, 0, 51, 74
2, 63272, Note_on_c, 0, 51, 0
2, 63275, Note_on_c, 0, 75, 0
2, 63276, Note_on_c, 0, 58, 0
2, 63276, Note_on_c, 0, 70, 0
2, 63286, Note_on_c, 0, 55, 0
2, 63298, Note_on_c, 0, 67, 0
2, 63395, Note_on_c, 0, 63, 80
2, 63395, Note_on_c, 0, 58, 81
2, 63399, Note_on_c, 0, 51, 80
2, 63400, Note_on_c, 0, 75, 95
2, 63405, Note_on_c, 0, 70, 78
2, 63429, Note_on_c, 0, 63, 0
2, 63431, Note_on_c, 0, 58, 0
2, 63459, Note_on_c, 0, 51, 0
2, 63468, Note_on_c, 0, 70, 0
2, 63547, Note_on_c, 0, 34, 91
2, 63552, Control_c, 0, 64, 127
2, 63560, Note_on_c, 0, 70, 93
2, 63562, Note_on_c, 0, 82, 91
2, 63575, Note_on_c, 0, 75, 0
2, 63713, Note_on_c, 0, 80, 93
2, 63715, Note_on_c, 0, 61, 78
2, 63716, Note_on_c, 0, 56, 75
2, 63718, Note_on_c, 0, 53, 62
2, 63724, Note_on_c, 0, 77, 86
2, 63859, Note_on_c, 0, 77, 0
2, 63866, Note_on_c, 0, 77, 90
2, 63868, Note_on_c, 0, 79, 88
2, 63997, Note_on_c, 0, 80, 0
2, 64007, Note_on_c, 0, 80, 95
2, 64012, Note_on_c, 0, 53, 0
2, 64012, Note_on_c, 0, 56, 0
2, 64012, Note_on_c, 0, 61, 0
2, 64018, Note_on_c, 0, 61, 80
2, 64021, Note_on_c, 0, 56, 79
2, 64022, Note_on_c, 0, 53, 73
2, 64072, Note_on_c, 0, 34, 0
2, 64072, Control_c, 0, 64, 0
2, 64074, Note_on_c, 0, 70, 0
2, 64074, Note_on_c, 0, 82, 0
2, 64075, Note_on_c, 0, 79, 0
2, 64075, Note_on_c, 0, 80, 0
2, 64075, Note_on_c, 0, 77, 0
2, 64089, Note_on_c, 0, 61, 0
2, 64097, Note_on_c, 0, 84, 105
2, 64097, Note_on_c, 0, 53, 0
2, 64097, Note_on_c, 0, 56, 0
2, 64100, Note_on_c, 0, 61, 78
2, 64101, Note_on_c, 0, 72, 96
2, 64101, Note_on_c, 0, 56, 83
2, 64101, Note_on_c, 0, 53, 75
2, 64149, Note_on_c, 0, 53, 0
2, 64166, Note_on_c, 0, 56, 0
2, 64197, Note_on_c, 0, 61, 0
2, 64353, Note_on_c, 0, 82, 91
2, 64354, Note_on_c, 0, 53, 73
2, 64357, Note_on_c, 0, 79, 87
2, 64359, Note_on_c, 0, 56, 80
2, 64361, Note_on_c, 0, 61, 78
2, 64373, Control_c, 0, 64, 127
2, 64462, Note_on_c, 0, 53, 0
2, 64462, Control_c, 0, 64, 0
2, 64462, Note_on_c, 0, 61, 0
2, 64464, Note_on_c, 0, 56, 0
2, 64465, Note_on_c, 0, 82, 0
2, 64467, Note_on_c, 0, 79, 0
2, 64488, Note_on_c, 0, 72, 0
2, 64508, Note_on_c, 0, 80, 92
2, 64512, Note_on_c, 0, 44, 59
2, 64516, Note_on_c, 0, 77, 92
2, 64519, Note_on_c, 0, 44, 0
2, 64581, Control_c, 0, 64, 127
2, 64604, Note_on_c, 0, 84, 0
2, 64662, Note_on_c, 0, 61, 69
2, 64669, Note_on_c, 0, 53, 65
2, 64670, Note_on_c, 0, 82, 93
2, 64670, Note_on_c, 0, 79, 91
2, 64672, Note_on_c, 0, 56, 70
2, 64789, Control_c, 0, 64, 0
2, 64790, Note_on_c, 0, 61, 0
2, 64790, Note_on_c, 0, 53, 0
2, 64790, Note_on_c, 0, 79, 0
2, 64790, Note_on_c, 0, 56, 0
2, 64791, Note_on_c, 0, 80, 0
2, 64791, Note_on_c, 0, 77, 0
2, 64791, Note_on_c, 0, 82, 0
2, 64828, Note_on_c, 0, 84, 103
2, 64830, Note_on_c, 0, 48, 79
2, 64831, Note_on_c, 0, 77, 92
2, 64832, Note_on_c, 0, 36, 79
2, 64834, Note_on_c, 0, 79, 90
2, 64857, Control_c, 0, 64, 127
2, 64865, Note_on_c, 0, 36, 0
2, 64888, Note_on_c, 0, 48, 0
2, 65064, Note_on_c, 0, 77, 0
2, 65064, Note_on_c, 0, 84, 0
2, 65068, Note_on_c, 0, 84, 102
2, 65071, Note_on_c, 0, 77, 89
2, 65085, Note_on_c, 0, 60, 65
2, 65089, Note_on_c, 0, 58, 87
2, 65091, Note_on_c, 0, 48, 60
2, 65113, Note_on_c, 0, 55, 42
2, 65118, Note_on_c, 0, 55, 0
2, 65295, Note_on_c, 0, 60, 0
2, 65303, Note_on_c, 0, 48, 0
2, 65303, Note_on_c, 0, 77, 0
2, 65303, Note_on_c, 0, 79, 0
2, 65304, Note_on_c, 0, 58, 0
2, 65306, Note_on_c, 0, 60, 78
2, 65307, Note_on_c, 0, 55, 54
2, 65307, Note_on_c, 0, 79, 87
2, 65311, Note_on_c, 0, 48, 66
2, 65313, Note_on_c, 0, 77, 94
2, 65465, Note_on_c, 0, 77, 0
2, 65467, Control_c, 0, 64, 0
2, 65472, Note_on_c, 0, 60, 0
2, 65472, Note_on_c, 0, 79, 0
2, 65477, Note_on_c, 0, 79, 96
2, 65479, Note_on_c, 0, 48, 0
2, 65479, Note_on_c, 0, 55, 0
2, 65480, Note_on_c, 0, 64, 97
2, 65482, Note_on_c, 0, 60, 74
2, 65483, Note_on_c, 0, 55, 85
2, 65483, Note_on_c, 0, 72, 91
2, 65484, Note_on_c, 0, 76, 95
2, 65525, Control_c, 0, 64, 127
2, 65726, Note_on_c, 0, 65, 95
2, 65947, Note_on_c, 0, 67, 97
2, 66109, Note_on_c, 0, 60, 0
2, 66124, Note_on_c, 0, 65, 0
2, 66126, Control_c, 0, 64, 0
2, 66126, Note_on_c, 0, 76, 0
2, 66126, Note_on_c, 0, 72, 0
2, 66127, Note_on_c, 0, 67, 0
2, 66128, Note_on_c, 0, 79, 0
2, 66132, Note_on_c, 0, 55, 0
2, 66132, Note_on_c, 0, 64, 0
2, 66136, Note_on_c, 0, 96, 101
2, 66139, Note_on_c, 0, 60, 93
2, 66141, Note_on_c, 0, 55, 82
2, 66144, Note_on_c, 0, 52, 85
2, 66170, Note_on_c, 0, 84, 0
2, 66220, Note_on_c, 0, 94, 87
2, 66247, Control_c, 0, 64, 127
2, 66293, Control_c, 0, 64, 0
2, 66295, Note_on_c, 0, 91, 72
2, 66301, Note_on_c, 0, 60, 0
2, 66322, Note_on_c, 0, 52, 0
2, 66327, Note_on_c, 0, 88, 84
2, 66332, Note_on_c, 0, 96, 0
2, 66384, Note_on_c, 0, 84, 81
2, 66385, Note_on_c, 0, 55, 0
2, 66389, Note_on_c, 0, 61, 96
2, 66389, Note_on_c, 0, 52, 85
2, 66392, Note_on_c, 0, 55, 81
2, 66393, Note_on_c, 0, 84, 0
2, 66456, Note_on_c, 0, 82, 72
2, 66531, Note_on_c, 0, 61, 0
2, 66532, Note_on_c, 0, 79, 74
2, 66539, Note_on_c, 0, 94, 0
2, 66546, Note_on_c, 0, 52, 0
2, 66547, Note_on_c, 0, 91, 0
2, 66552, Note_on_c, 0, 55, 0
2, 66577, Note_on_c, 0, 88, 0
2, 66582, Note_on_c, 0, 82, 0
2, 66589, Note_on_c, 0, 79, 0
2, 66595, Note_on_c, 0, 76, 73
2, 66635, Note_on_c, 0, 60, 98
2, 66639, Note_on_c, 0, 52, 87
2, 66641, Note_on_c, 0, 55, 86
2, 66642, Note_on_c, 0, 72, 84
2, 66716, Note_on_c, 0, 76, 0
2, 66727, Note_on_c, 0, 60, 0
2, 66751, Note_on_c, 0, 70, 67
2, 66776, Note_on_c, 0, 55, 0
2, 66784, Note_on_c, 0, 52, 0
2, 66816, Note_on_c, 0, 67, 75
2, 66860, Note_on_c, 0, 58, 86
2, 66864, Note_on_c, 0, 52, 86
2, 66866, Note_on_c, 0, 55, 76
2, 66872, Note_on_c, 0, 64, 80
2, 66908, Note_on_c, 0, 72, 0
2, 66920, Note_on_c, 0, 55, 0
2, 66921, Note_on_c, 0, 52, 0
2, 66927, Note_on_c, 0, 58, 0
2, 66931, Note_on_c, 0, 70, 0
2, 66947, Note_on_c, 0, 60, 81
2, 67008, Note_on_c, 0, 60, 0
2, 67036, Note_on_c, 0, 58, 64
2, 67071, Note_on_c, 0, 55, 73
2, 67096, Note_on_c, 0, 52, 82
2, 67096, Note_on_c, 0, 48, 89
2, 67169, Control_c, 0, 64, 127
2, 67248, Note_on_c, 0, 36, 80
2, 67353, Note_on_c, 0, 64, 0
2, 67354, Note_on_c, 0, 55, 0
2, 67355, Note_on_c, 0, 48, 0
2, 67356, Control_c, 0, 64, 0
2, 67356, Note_on_c, 0, 52, 0
2, 67356, Note_on_c, 0, 36, 0
2, 67361, Note_on_c, 0, 58, 0
2, 67361, Note_on_c, 0, 67, 0
2, 67402, Note_on_c, 0, 72, 102
2, 67403, Note_on_c, 0, 84, 95
2, 67404, Note_on_c, 0, 41, 91
2, 67404, Note_on_c, 0, 68, 104
2, 67405, Note_on_c, 0, 77, 98
2, 67405, Note_on_c, 0, 29, 91
2, 67408, Note_on_c, 0, 80, 100
2, 67453, Control_c, 0, 64, 127
2, 67548, Note_on_c, 0, 48, 63
2, 67657, Note_on_c, 0, 56, 65
2, 67683, Note_on_c, 0, 48, 0
2, 67688, Note_on_c, 0, 48, 50
2, 67696, Control_c, 0, 64, 0
2, 67698, Note_on_c, 0, 84, 0
2, 67714, Note_on_c, 0, 77, 0
2, 67714, Note_on_c, 0, 80, 0
2, 67722, Note_on_c, 0, 41, 0
2, 67722, Note_on_c, 0, 68, 0
2, 67722, Note_on_c, 0, 77, 88
2, 67724, Note_on_c, 0, 80, 100
2, 67728, Note_on_c, 0, 68, 96
2, 67733, Note_on_c, 0, 41, 79
2, 67741, Note_on_c, 0, 75, 73
2, 67752, Note_on_c, 0, 56, 0
2, 67760, Control_c, 0, 64, 127
2, 67791, Note_on_c, 0, 48, 0
2, 67875, Note_on_c, 0, 75, 0
2, 67880, Note_on_c, 0, 48, 72
2, 67886, Note_on_c, 0, 75, 78
2, 67888, Note_on_c, 0, 79, 76
2, 67888, Note_on_c, 0, 67, 84
2, 67960, Note_on_c, 0, 68, 0
2, 67960, Note_on_c, 0, 77, 0
2, 67960, Note_on_c, 0, 80, 0
2, 67965, Note_on_c, 0, 80, 101
2, 67967, Note_on_c, 0, 56, 79
2, 67970, Note_on_c, 0, 68, 90
2, 67970, Note_on_c, 0, 77, 95
2, 68004, Note_on_c, 0, 75, 0
2, 68004, Control_c, 0, 64, 0
2, 68006, Note_on_c, 0, 72, 0
2, 68006, Note_on_c, 0, 67, 0
2, 68007, Note_on_c, 0, 48, 0
2, 68029, Note_on_c, 0, 29, 0
2, 68044, Note_on_c, 0, 41, 0
2, 68044, Note_on_c, 0, 56, 0
2, 68053, Note_on_c, 0, 41, 71
2, 68060, Control_c, 0, 64, 127
2, 68194, Note_on_c, 0, 48, 73
2, 68213, Note_on_c, 0, 79, 0
2, 68214, Note_on_c, 0, 82, 99
2, 68218, Note_on_c, 0, 70, 97
2, 68218, Note_on_c, 0, 79, 80
2, 68254, Note_on_c, 0, 56, 76
2, 68342, Control_c, 0, 64, 0
2, 68344, Note_on_c, 0, 79, 0
2, 68345, Note_on_c, 0, 56, 0
2, 68345, Note_on_c, 0, 48, 0
2, 68346, Note_on_c, 0, 70, 0
2, 68352, Note_on_c, 0, 41, 0
2, 68352, Note_on_c, 0, 68, 0
2, 68352, Note_on_c, 0, 77, 0
2, 68359, Note_on_c, 0, 80, 0
2, 68362, Note_on_c, 0, 41, 78
2, 68363, Note_on_c, 0, 84, 101
2, 68367, Note_on_c, 0, 82, 0
2, 68368, Note_on_c, 0, 72, 94
2, 68370, Note_on_c, 0, 77, 66
2, 68375, Note_on_c, 0, 77, 0
2, 68377, Note_on_c, 0, 82, 81
2, 68398, Control_c, 0, 64, 127
2, 68508, Note_on_c, 0, 48, 67
2, 68522, Note_on_c, 0, 85, 99
2, 68525, Note_on_c, 0, 73, 97
2, 68544, Note_on_c, 0, 56, 72
2, 68647, Control_c, 0, 64, 0
2, 68647, Note_on_c, 0, 41, 0
2, 68648, Note_on_c, 0, 56, 0
2, 68648, Note_on_c, 0, 48, 0
2, 68648, Note_on_c, 0, 73, 0
2, 68648, Note_on_c, 0, 85, 0
2, 68651, Note_on_c, 0, 82, 0
2, 68659, Note_on_c, 0, 72, 0
2, 68659, Note_on_c, 0, 84, 0
2, 68669, Note_on_c, 0, 84, 104
2, 68672, Note_on_c, 0, 36, 81
2, 68675, Note_on_c, 0, 72, 98
2, 68678, Note_on_c, 0, 79, 85
2, 68678, Note_on_c, 0, 75, 91
2, 68720, Control_c, 0, 64, 127
2, 68794, Note_on_c, 0, 43, 69
2, 68904, Note_on_c, 0, 72, 0
2, 68904, Note_on_c, 0, 75, 0
2, 68904, Note_on_c, 0, 79, 0
2, 68904, Note_on_c, 0, 84, 0
2, 68910, Note_on_c, 0, 84, 103
2, 68913, Note_on_c, 0, 51, 79
2, 68914, Note_on_c, 0, 75, 96
2, 68915, Note_on_c, 0, 79, 78
2, 68915, Note_on_c, 0, 72, 92
2, 69004, Note_on_c, 0, 36, 0
2, 69008, Note_on_c, 0, 36, 70
2, 69112, Note_on_c, 0, 43, 0
2, 69120, Note_on_c, 0, 43, 64
2, 69150, Note_on_c, 0, 72, 0
2, 69150, Note_on_c, 0, 79, 0
2, 69156, Note_on_c, 0, 79, 93
2, 69158, Note_on_c, 0, 75, 0
2, 69160, Note_on_c, 0, 72, 92
2, 69161, Note_on_c, 0, 48, 68
2, 69161, Note_on_c, 0, 67, 94
2, 69162, Note_on_c, 0, 75, 84
2, 69219, Note_on_c, 0, 43, 0
2, 69226, Note_on_c, 0, 43, 60
2, 69227, Note_on_c, 0, 48, 0
2, 69235, Note_on_c, 0, 48, 56
2, 69263, Control_c, 0, 64, 0
2, 69263, Note_on_c, 0, 51, 0
2, 69263, Note_on_c, 0, 75, 0
2, 69263, Note_on_c, 0, 43, 0
2, 69263, Note_on_c, 0, 72, 0
2, 69263, Note_on_c, 0, 84, 0
2, 69264, Note_on_c, 0, 79, 0
2, 69264, Note_on_c, 0, 67, 0
2, 69281, Note_on_c, 0, 36, 0
2, 69288, Note_on_c, 0, 48, 0
2, 69315, Note_on_c, 0, 79, 97
2, 69316, Note_on_c, 0, 72, 88
2, 69316, Note_on_c, 0, 75, 91
2, 69316, Note_on_c, 0, 67, 91
2, 69323, Note_on_c, 0, 36, 82
2, 69342, Control_c, 0, 64, 127
2, 69475, Note_on_c, 0, 43, 64
2, 69554, Note_on_c, 0, 51, 53
2, 69561, Note_on_c, 0, 87, 78
2, 69622, Note_on_c, 0, 84, 86
2, 69634, Note_on_c, 0, 36, 0
2, 69640, Note_on_c, 0, 36, 73
2, 69696, Note_on_c, 0, 79, 0
2, 69706, Note_on_c, 0, 79, 72
2, 69719, Note_on_c, 0, 67, 0
2, 69742, Note_on_c, 0, 43, 0
2, 69750, Note_on_c, 0, 43, 49
2, 69772, Note_on_c, 0, 75, 0
2, 69779, Note_on_c, 0, 75, 77
2, 69841, Note_on_c, 0, 51, 0
2, 69841, Note_on_c, 0, 72, 0
2, 69849, Note_on_c, 0, 43, 0
2, 69853, Note_on_c, 0, 72, 88
2, 69853, Note_on_c, 0, 51, 57
2, 69857, Note_on_c, 0, 43, 53
2, 69926, Note_on_c, 0, 87, 0
2, 69926, Note_on_c, 0, 51, 0
2, 69926, Note_on_c, 0, 36, 0
2, 69927, Note_on_c, 0, 43, 0
2, 69927, Note_on_c, 0, 72, 0
2, 69927, Note_on_c, 0, 75, 0
2, 69927, Note_on_c, 0, 84, 0
2, 69929, Control_c, 0, 64, 0
2, 69941, Note_on_c, 0, 79, 0
2, 69958, Note_on_c, 0, 77, 104
2, 69959, Note_on_c, 0, 37, 85
2, 69960, Note_on_c, 0, 73, 92
2, 69961, Note_on_c, 0, 65, 91
2, 70003, Control_c, 0, 64, 127
2, 70084, Note_on_c, 0, 44, 61
2, 70170, Note_on_c, 0, 53, 66
2, 70264, Note_on_c, 0, 65, 0
2, 70264, Note_on_c, 0, 77, 0
2, 70269, Note_on_c, 0, 77, 93
2, 70271, Note_on_c, 0, 73, 0
2, 70272, Note_on_c, 0, 37, 0
2, 70274, Note_on_c, 0, 53, 0
2, 70274, Control_c, 0, 64, 0
2, 70275, Note_on_c, 0, 65, 83
2, 70277, Note_on_c, 0, 68, 80
2, 70278, Note_on_c, 0, 37, 76
2, 70310, Control_c, 0, 64, 127
2, 70417, Note_on_c, 0, 44, 0
2, 70422, Note_on_c, 0, 44, 65
2, 70429, Note_on_c, 0, 75, 76
2, 70430, Note_on_c, 0, 63, 69
2, 70494, Note_on_c, 0, 77, 0
2, 70502, Note_on_c, 0, 65, 0
2, 70502, Note_on_c, 0, 68, 0
2, 70504, Note_on_c, 0, 77, 100
2, 70506, Note_on_c, 0, 68, 96
2, 70506, Note_on_c, 0, 65, 86
2, 70538, Note_on_c, 0, 63, 0
2, 70542, Note_on_c, 0, 44, 0
2, 70543, Note_on_c, 0, 75, 0
2, 70544, Control_c, 0, 64, 0
2, 70571, Note_on_c, 0, 37, 0
2, 70571, Note_on_c, 0, 65, 0
2, 70580, Note_on_c, 0, 37, 76
2, 70594, Control_c, 0, 64, 127
2, 70704, Note_on_c, 0, 44, 63
2, 70763, Note_on_c, 0, 77, 0
2, 70770, Note_on_c, 0, 85, 99
2, 70772, Note_on_c, 0, 53, 66
2, 70773, Note_on_c, 0, 73, 94
2, 70773, Note_on_c, 0, 77, 81
2, 70894, Note_on_c, 0, 68, 0
2, 70895, Note_on_c, 0, 73, 0
2, 70896, Note_on_c, 0, 44, 0
2, 70896, Note_on_c, 0, 85, 0
2, 70897, Note_on_c, 0, 53, 0
2, 70897, Control_c, 0, 64, 0
2, 70901, Note_on_c, 0, 37, 0
2, 70909, Note_on_c, 0, 77, 0
2, 70912, Note_on_c, 0, 37, 78
2, 70912, Note_on_c, 0, 84, 101
2, 70914, Note_on_c, 0, 72, 98
2, 70917, Note_on_c, 0, 77, 91
2, 70947, Control_c, 0, 64, 127
2, 71043, Note_on_c, 0, 44, 70
2, 71072, Note_on_c, 0, 82, 91
2, 71080, Note_on_c, 0, 70, 87
2, 71086, Note_on_c, 0, 77, 0
2, 71097, Note_on_c, 0, 77, 62
2, 71192, Note_on_c, 0, 77, 0
2, 71193, Control_c, 0, 64, 0
2, 71194, Note_on_c, 0, 84, 0
2, 71196, Note_on_c, 0, 37, 0
2, 71201, Note_on_c, 0, 72, 0
2, 71216, Note_on_c, 0, 44, 0
2, 71216, Note_on_c, 0, 82, 0
2, 71221, Note_on_c, 0, 44, 88
2, 71222, Note_on_c, 0, 75, 100
2, 71224, Note_on_c, 0, 70, 0
2, 71226, Note_on_c, 0, 82, 99
2, 71228, Note_on_c, 0, 70, 95
2, 71278, Control_c, 0, 64, 127
2, 71363, Note_on_c, 0, 51, 61
2, 71462, Note_on_c, 0, 75, 0
2, 71465, Note_on_c, 0, 60, 82
2, 71467, Note_on_c, 0, 75, 87
2, 71468, Note_on_c, 0, 68, 97
2, 71469, Note_on_c, 0, 80, 98
2, 71550, Note_on_c, 0, 82, 0
2, 71552, Note_on_c, 0, 51, 0
2, 71555, Note_on_c, 0, 60, 0
2, 71557, Control_c, 0, 64, 0
2, 71562, Note_on_c, 0, 44, 0
2, 71562, Note_on_c, 0, 70, 0
2, 71573, Note_on_c, 0, 44, 84
2, 71608, Control_c, 0, 64, 127
2, 71696, Note_on_c, 0, 39, 70
2, 71719, Note_on_c, 0, 51, 73
2, 71719, Note_on_c, 0, 82, 92
2, 71725, Note_on_c, 0, 70, 84
2, 71731, Note_on_c, 0, 75, 0
2, 71737, Note_on_c, 0, 75, 76
2, 71769, Note_on_c, 0, 60, 57
2, 71843, Note_on_c, 0, 82, 0
2, 71844, Control_c, 0, 64, 0
2, 71844, Note_on_c, 0, 70, 0
2, 71844, Note_on_c, 0, 51, 0
2, 71845, Note_on_c, 0, 68, 0
2, 71847, Note_on_c, 0, 60, 0
2, 71848, Note_on_c, 0, 44, 0
2, 71854, Note_on_c, 0, 39, 0
2, 71854, Note_on_c, 0, 80, 0
2, 71869, Note_on_c, 0, 75, 0
2, 71874, Note_on_c, 0, 84, 102
2, 71875, Note_on_c, 0, 44, 91
2, 71877, Note_on_c, 0, 72, 95
2, 71879, Note_on_c, 0, 75, 96
2, 71879, Note_on_c, 0, 80, 94
2, 71907, Control_c, 0, 64, 127
2, 71950, Note_on_c, 0, 51, 76
2, 72027, Note_on_c, 0, 60, 69
2, 72028, Note_on_c, 0, 63, 83
2, 72111, Note_on_c, 0, 68, 79
2, 72162, Note_on_c, 0, 55, 73
2, 72168, Note_on_c, 0, 55, 0
2, 72170, Note_on_c, 0, 43, 87
2, 72184, Note_on_c, 0, 72, 0
2, 72188, Control_c, 0, 64, 0
2, 72193, Note_on_c, 0, 72, 94
2, 72193, Note_on_c, 0, 84, 0
2, 72194, Note_on_c, 0, 51, 0
2, 72194, Note_on_c, 0, 75, 0
2, 72194, Note_on_c, 0, 60, 0
2, 72194, Note_on_c, 0, 63, 0
2, 72194, Note_on_c, 0, 80, 0
2, 72194, Note_on_c, 0, 68, 0
2, 72207, Note_on_c, 0, 44, 0
2, 72222, Control_c, 0, 64, 127
2, 72268, Note_on_c, 0, 75, 84
2, 72336, Note_on_c, 0, 51, 65
2, 72340, Note_on_c, 0, 39, 59
2, 72340, Note_on_c, 0, 77, 83
2, 72345, Note_on_c, 0, 39, 0
2, 72402, Note_on_c, 0, 79, 91
2, 72468, Note_on_c, 0, 51, 0
2, 72469, Note_on_c, 0, 72, 0
2, 72469, Control_c, 0, 64, 0
2, 72470, Note_on_c, 0, 75, 0
2, 72471, Note_on_c, 0, 79, 0
2, 72483, Note_on_c, 0, 43, 0
2, 72491, Note_on_c, 0, 77, 0
2, 72496, Note_on_c, 0, 73, 101
2, 72496, Note_on_c, 0, 34, 85
2, 72497, Note_on_c, 0, 68, 99
2, 72498, Note_on_c, 0, 80, 102
2, 72499, Note_on_c, 0, 77, 87
2, 72502, Note_on_c, 0, 76, 80
2, 72537, Control_c, 0, 64, 127
2, 72612, Note_on_c, 0, 41, 66
2, 72697, Note_on_c, 0, 49, 57
2, 72802, Note_on_c, 0, 41, 0
2, 72802, Note_on_c, 0, 80, 0
2, 72802, Note_on_c, 0, 68, 0
2, 72803, Note_on_c, 0, 49, 0
2, 72809, Control_c, 0, 64, 0
2, 72814, Note_on_c, 0, 73, 0
2, 72814, Note_on_c, 0, 77, 0
2, 72818, Note_on_c, 0, 77, 100
2, 72819, Note_on_c, 0, 73, 93
2, 72824, Note_on_c, 0, 65, 93
2, 72825, Note_on_c, 0, 46, 82
2, 72852, Note_on_c, 0, 76, 0
2, 72875, Control_c, 0, 64, 127
2, 72890, Note_on_c, 0, 34, 0
2, 72929, Note_on_c, 0, 65, 0
2, 72944, Note_on_c, 0, 41, 66
2, 73056, Note_on_c, 0, 79, 89
2, 73058, Note_on_c, 0, 75, 96
2, 73062, Note_on_c, 0, 48, 70
2, 73063, Note_on_c, 0, 67, 86
2, 73139, Note_on_c, 0, 73, 0
2, 73139, Control_c, 0, 64, 0
2, 73139, Note_on_c, 0, 41, 0
2, 73152, Note_on_c, 0, 46, 0
2, 73154, Note_on_c, 0, 34, 71
2, 73159, Note_on_c, 0, 77, 0
2, 73182, Control_c, 0, 64, 127
2, 73228, Note_on_c, 0, 67, 0
2, 73294, Note_on_c, 0, 41, 65
2, 73308, Note_on_c, 0, 73, 91
2, 73315, Note_on_c, 0, 80, 93
2, 73327, Note_on_c, 0, 68, 87
2, 73355, Note_on_c, 0, 49, 61
2, 73436, Note_on_c, 0, 48, 0
2, 73443, Note_on_c, 0, 34, 0
2, 73445, Control_c, 0, 64, 0
2, 73445, Note_on_c, 0, 41, 0
2, 73445, Note_on_c, 0, 79, 0
2, 73445, Note_on_c, 0, 68, 0
2, 73445, Note_on_c, 0, 75, 0
2, 73446, Note_on_c, 0, 49, 0
2, 73446, Note_on_c, 0, 80, 0
2, 73474, Note_on_c, 0, 73, 0
2, 73476, Note_on_c, 0, 46, 77
2, 73476, Note_on_c, 0, 79, 90
2, 73478, Note_on_c, 0, 34, 75
2, 73478, Note_on_c, 0, 67, 89
2, 73483, Note_on_c, 0, 73, 74
2, 73512, Control_c, 0, 64, 127
2, 73543, Note_on_c, 0, 46, 0
2, 73612, Note_on_c, 0, 73, 0
2, 73619, Note_on_c, 0, 41, 62
2, 73622, Note_on_c, 0, 73, 89
2, 73623, Note_on_c, 0, 80, 95
2, 73626, Note_on_c, 0, 68, 90
2, 73631, Note_on_c, 0, 49, 76
2, 73674, Note_on_c, 0, 34, 0
2, 73753, Note_on_c, 0, 80, 0
2, 73754, Note_on_c, 0, 73, 0
2, 73754, Note_on_c, 0, 68, 0
2, 73754, Note_on_c, 0, 79, 0
2, 73754, Note_on_c, 0, 49, 0
2, 73754, Control_c, 0, 64, 0
2, 73758, Note_on_c, 0, 67, 0
2, 73774, Note_on_c, 0, 41, 0
2, 73776, Note_on_c, 0, 75, 98
2, 73776, Note_on_c, 0, 36, 81
2, 73778, Note_on_c, 0, 79, 83
2, 73778, Note_on_c, 0, 67, 80
2, 73779, Note_on_c, 0, 70, 93
2, 73835, Control_c, 0, 64, 127
2, 73920, Note_on_c, 0, 43, 63
2, 74080, Control_c, 0, 64, 0
2, 74081, Note_on_c, 0, 67, 0
2, 74081, Note_on_c, 0, 79, 0
2, 74086, Note_on_c, 0, 43, 0
2, 74088, Note_on_c, 0, 70, 0
2, 74088, Note_on_c, 0, 75, 0
2, 74091, Note_on_c, 0, 79, 90
2, 74093, Note_on_c, 0, 70, 90
2, 74093, Note_on_c, 0, 75, 91
2, 74096, Note_on_c, 0, 36, 0
2, 74101, Note_on_c, 0, 36, 71
2, 74135, Control_c, 0, 64, 127
2, 74231, Note_on_c, 0, 43, 67
2, 74319, Note_on_c, 0, 75, 0
2, 74327, Note_on_c, 0, 70, 0
2, 74330, Note_on_c, 0, 75, 101
2, 74332, Note_on_c, 0, 80, 99
2, 74335, Note_on_c, 0, 51, 67
2, 74337, Note_on_c, 0, 70, 93
2, 74406, Note_on_c, 0, 43, 0
2, 74406, Note_on_c, 0, 79, 0
2, 74409, Control_c, 0, 64, 0
2, 74426, Note_on_c, 0, 36, 0
2, 74431, Note_on_c, 0, 36, 74
2, 74434, Control_c, 0, 64, 127
2, 74472, Note_on_c, 0, 51, 0
2, 74581, Note_on_c, 0, 43, 70
2, 74590, Note_on_c, 0, 77, 92
2, 74603, Note_on_c, 0, 70, 0
2, 74611, Note_on_c, 0, 70, 78
2, 74613, Note_on_c, 0, 82, 77
2, 74659, Note_on_c, 0, 51, 54
2, 74716, Control_c, 0, 64, 0
2, 74716, Note_on_c, 0, 36, 0
2, 74716, Note_on_c, 0, 82, 0
2, 74717, Note_on_c, 0, 80, 0
2, 74717, Note_on_c, 0, 43, 0
2, 74718, Note_on_c, 0, 51, 0
2, 74721, Note_on_c, 0, 77, 0
2, 74741, Note_on_c, 0, 75, 0
2, 74749, Note_on_c, 0, 70, 0
2, 74752, Note_on_c, 0, 36, 80
2, 74752, Note_on_c, 0, 79, 92
2, 74753, Note_on_c, 0, 70, 71
2, 74787, Control_c, 0, 64, 127
2, 74902, Note_on_c, 0, 43, 64
2, 74918, Note_on_c, 0, 70, 0
2, 74920, Note_on_c, 0, 80, 93
2, 74924, Note_on_c, 0, 70, 80
2, 74938, Note_on_c, 0, 51, 64
2, 75042, Note_on_c, 0, 80, 0
2, 75042, Control_c, 0, 64, 0
2, 75042, Note_on_c, 0, 36, 0
2, 75043, Note_on_c, 0, 70, 0
2, 75043, Note_on_c, 0, 51, 0
2, 75044, Note_on_c, 0, 43, 0
2, 75044, Note_on_c, 0, 79, 0
2, 75068, Note_on_c, 0, 46, 76
2, 75069, Note_on_c, 0, 77, 102
2, 75072, Note_on_c, 0, 34, 74
2, 75072, Note_on_c, 0, 65, 88
2, 75074, Note_on_c, 0, 73, 89
2, 75076, Note_on_c, 0, 70, 78
2, 75125, Control_c, 0, 64, 127
2, 75197, Note_on_c, 0, 41, 60
2, 75275, Note_on_c, 0, 49, 67
2, 75371, Note_on_c, 0, 34, 0
2, 75381, Note_on_c, 0, 34, 76
2, 75502, Note_on_c, 0, 41, 0
2, 75513, Note_on_c, 0, 41, 59
2, 75555, Note_on_c, 0, 77, 0
2, 75562, Note_on_c, 0, 77, 86
2, 75601, Note_on_c, 0, 49, 0
2, 75605, Note_on_c, 0, 49, 62
2, 75636, Note_on_c, 0, 79, 78
2, 75666, Note_on_c, 0, 70, 0
2, 75667, Note_on_c, 0, 73, 0
2, 75667, Note_on_c, 0, 34, 0
2, 75667, Note_on_c, 0, 65, 0
2, 75668, Note_on_c, 0, 49, 0
2, 75668, Note_on_c, 0, 41, 0
2, 75669, Note_on_c, 0, 46, 0
2, 75669, Control_c, 0, 64, 0
2, 75709, Note_on_c, 0, 77, 0
2, 75712, Note_on_c, 0, 46, 79
2, 75713, Note_on_c, 0, 80, 95
2, 75713, Note_on_c, 0, 77, 85
2, 75714, Note_on_c, 0, 34, 80
2, 75719, Note_on_c, 0, 73, 80
2, 75724, Control_c, 0, 64, 127
2, 75778, Note_on_c, 0, 34, 0
2, 75844, Note_on_c, 0, 41, 66
2, 75878, Note_on_c, 0, 77, 0
2, 75883, Note_on_c, 0, 77, 98
2, 75942, Note_on_c, 0, 49, 61
2, 76009, Note_on_c, 0, 41, 0
2, 76010, Note_on_c, 0, 80, 0
2, 76010, Note_on_c, 0, 73, 0
2, 76010, Note_on_c, 0, 46, 0
2, 76010, Control_c, 0, 64, 0
2, 76011, Note_on_c, 0, 49, 0
2, 76011, Note_on_c, 0, 77, 0
2, 76016, Note_on_c, 0, 79, 0
2, 76021, Note_on_c, 0, 79, 91
2, 76022, Note_on_c, 0, 34, 85
2, 76055, Control_c, 0, 64, 127
2, 76085, Note_on_c, 0, 34, 0
2, 76164, Note_on_c, 0, 41, 69
2, 76180, Note_on_c, 0, 80, 93
2, 76218, Note_on_c, 0, 49, 66
2, 76320, Note_on_c, 0, 41, 0
2, 76320, Note_on_c, 0, 80, 0
2, 76321, Note_on_c, 0, 49, 0
2, 76323, Control_c, 0, 64, 0
2, 76339, Note_on_c, 0, 79, 0
2, 76343, Note_on_c, 0, 39, 77
2, 76343, Note_on_c, 0, 84, 104
2, 76349, Note_on_c, 0, 75, 96
2, 76349, Note_on_c, 0, 79, 91
2, 76377, Control_c, 0, 64, 127
2, 76461, Note_on_c, 0, 46, 73
2, 76544, Note_on_c, 0, 55, 73
2, 76569, Note_on_c, 0, 84, 0
2, 76577, Note_on_c, 0, 75, 0
2, 76577, Note_on_c, 0, 79, 0
2, 76580, Note_on_c, 0, 84, 105
2, 76587, Note_on_c, 0, 79, 96
2, 76588, Note_on_c, 0, 75, 103
2, 76589, Note_on_c, 0, 87, 91
2, 76611, Control_c, 0, 64, 0
2, 76620, Note_on_c, 0, 46, 0
2, 76624, Note_on_c, 0, 55, 0
2, 76661, Note_on_c, 0, 39, 0
2, 76666, Note_on_c, 0, 39, 67
2, 76677, Control_c, 0, 64, 127
2, 76743, Note_on_c, 0, 46, 69
2, 76821, Note_on_c, 0, 85, 95
2, 76825, Note_on_c, 0, 55, 76
2, 76892, Note_on_c, 0, 84, 0
2, 76903, Note_on_c, 0, 84, 80
2, 76927, Control_c, 0, 64, 0
2, 76934, Note_on_c, 0, 55, 0
2, 76934, Note_on_c, 0, 46, 0
2, 76936, Note_on_c, 0, 85, 0
2, 76938, Note_on_c, 0, 87, 0
2, 76953, Note_on_c, 0, 75, 0
2, 76953, Note_on_c, 0, 79, 0
2, 76961, Note_on_c, 0, 39, 0
2, 76964, Note_on_c, 0, 79, 89
2, 76965, Note_on_c, 0, 39, 79
2, 76965, Note_on_c, 0, 82, 98
2, 76972, Note_on_c, 0, 75, 98
2, 76984, Control_c, 0, 64, 127
2, 77133, Note_on_c, 0, 55, 77
2, 77134, Note_on_c, 0, 70, 83
2, 77176, Note_on_c, 0, 84, 0
2, 77225, Note_on_c, 0, 72, 93
2, 77227, Note_on_c, 0, 56, 74
2, 77237, Note_on_c, 0, 58, 72
2, 77300, Note_on_c, 0, 60, 83
2, 77302, Note_on_c, 0, 73, 100
2, 77368, Note_on_c, 0, 75, 0
2, 77372, Note_on_c, 0, 75, 91
2, 77378, Note_on_c, 0, 61, 74
2, 77444, Note_on_c, 0, 77, 89
2, 77457, Note_on_c, 0, 63, 78
2, 77498, Note_on_c, 0, 60, 0
2, 77498, Note_on_c, 0, 79, 0
2, 77504, Note_on_c, 0, 79, 89
2, 77509, Note_on_c, 0, 60, 64
2, 77568, Note_on_c, 0, 39, 0
2, 77579, Note_on_c, 0, 63, 0
2, 77579, Note_on_c, 0, 70, 0
2, 77579, Note_on_c, 0, 60, 0
2, 77579, Note_on_c, 0, 82, 0
2, 77579, Note_on_c, 0, 56, 0
2, 77579, Note_on_c, 0, 75, 0
2, 77579, Note_on_c, 0, 61, 0
2, 77579, Note_on_c, 0, 55, 0
2, 77579, Note_on_c, 0, 73, 0
2, 77580, Note_on_c, 0, 58, 0
2, 77580, Note_on_c, 0, 79, 0
2, 77581, Control_c, 0, 64, 0
2, 77591, Note_on_c, 0, 72, 0
2, 77591, Note_on_c, 0, 77, 0
2, 77595, Note_on_c, 0, 72, 105
2, 77601, Note_on_c, 0, 80, 103
2, 77602, Note_on_c, 0, 68, 100
2, 77602, Note_on_c, 0, 77, 95
2, 77603, Note_on_c, 0, 41, 86
2, 77660, Control_c, 0, 64, 127
2, 77718, Note_on_c, 0, 48, 68
2, 77832, Note_on_c, 0, 56, 71
2, 77905, Note_on_c, 0, 77, 0
2, 77913, Note_on_c, 0, 41, 0
2, 77913, Note_on_c, 0, 68, 0
2, 77913, Note_on_c, 0, 80, 0
2, 77916, Note_on_c, 0, 77, 94
2, 77917, Note_on_c, 0, 80, 98
2, 77920, Control_c, 0, 64, 0
2, 77921, Note_on_c, 0, 68, 99
2, 77922, Note_on_c, 0, 41, 82
2, 77924, Note_on_c, 0, 56, 0
2, 77924, Note_on_c, 0, 48, 0
2, 77925, Note_on_c, 0, 72, 0
2, 77940, Note_on_c, 0, 75, 63
2, 77959, Control_c, 0, 64, 127
2, 78067, Note_on_c, 0, 75, 0
2, 78070, Note_on_c, 0, 48, 69
2, 78071, Note_on_c, 0, 75, 73
2, 78078, Note_on_c, 0, 67, 77
2, 78151, Note_on_c, 0, 80, 0
2, 78157, Note_on_c, 0, 80, 101
2, 78159, Note_on_c, 0, 68, 0
2, 78159, Note_on_c, 0, 77, 0
2, 78160, Note_on_c, 0, 56, 76
2, 78163, Note_on_c, 0, 77, 92
2, 78163, Note_on_c, 0, 53, 62
2, 78166, Note_on_c, 0, 68, 85
2, 78195, Control_c, 0, 64, 0
2, 78197, Note_on_c, 0, 67, 0
2, 78197, Note_on_c, 0, 48, 0
2, 78199, Note_on_c, 0, 75, 0
2, 78213, Note_on_c, 0, 53, 0
2, 78236, Note_on_c, 0, 41, 0
2, 78242, Note_on_c, 0, 41, 79
2, 78251, Control_c, 0, 64, 127
2, 78380, Note_on_c, 0, 48, 62
2, 78399, Note_on_c, 0, 82, 99
2, 78406, Note_on_c, 0, 79, 90
2, 78408, Note_on_c, 0, 70, 91
2, 78435, Note_on_c, 0, 56, 0
2, 78443, Note_on_c, 0, 56, 73
2, 78543, Note_on_c, 0, 41, 0
2, 78544, Note_on_c, 0, 79, 0
2, 78545, Note_on_c, 0, 56, 0
2, 78545, Note_on_c, 0, 48, 0
2, 78545, Control_c, 0, 64, 0
2, 78546, Note_on_c, 0, 70, 0
2, 78547, Note_on_c, 0, 41, 75
2, 78550, Note_on_c, 0, 84, 106
2, 78551, Note_on_c, 0, 68, 0
2, 78551, Note_on_c, 0, 77, 0
2, 78551, Note_on_c, 0, 80, 0
2, 78553, Note_on_c, 0, 72, 99
2, 78597, Control_c, 0, 64, 127
2, 78701, Note_on_c, 0, 48, 65
2, 78707, Note_on_c, 0, 85, 105
2, 78708, Note_on_c, 0, 73, 101
2, 78731, Note_on_c, 0, 56, 68
2, 78837, Control_c, 0, 64, 0
2, 78839, Note_on_c, 0, 73, 0
2, 78839, Note_on_c, 0, 85, 0
2, 78839, Note_on_c, 0, 82, 0
2, 78839, Note_on_c, 0, 48, 0
2, 78839, Note_on_c, 0, 41, 0
2, 78839, Note_on_c, 0, 56, 0
2, 78850, Note_on_c, 0, 72, 0
2, 78850, Note_on_c, 0, 84, 0
2, 78860, Note_on_c, 0, 84, 107
2, 78861, Note_on_c, 0, 36, 88
2, 78861, Note_on_c, 0, 72, 106
2, 78863, Note_on_c, 0, 75, 100
2, 78863, Note_on_c, 0, 79, 93
2, 78888, Control_c, 0, 64, 127
2, 78942, Note_on_c, 0, 72, 0
2, 78977, Note_on_c, 0, 43, 70
2, 79104, Note_on_c, 0, 75, 0
2, 79104, Note_on_c, 0, 79, 0
2, 79104, Note_on_c, 0, 84, 0
2, 79111, Note_on_c, 0, 79, 92
2, 79113, Note_on_c, 0, 84, 108
2, 79113, Control_c, 0, 64, 0
2, 79114, Note_on_c, 0, 72, 108
2, 79115, Note_on_c, 0, 75, 109
2, 79155, Note_on_c, 0, 43, 0
2, 79188, Control_c, 0, 64, 127
2, 79203, Note_on_c, 0, 36, 0
2, 79208, Note_on_c, 0, 36, 70
2, 79303, Note_on_c, 0, 72, 0
2, 79305, Note_on_c, 0, 43, 75
2, 79342, Note_on_c, 0, 79, 0
2, 79349, Note_on_c, 0, 75, 0
2, 79352, Note_on_c, 0, 79, 100
2, 79353, Note_on_c, 0, 67, 96
2, 79353, Note_on_c, 0, 72, 91
2, 79354, Note_on_c, 0, 75, 94
2, 79393, Note_on_c, 0, 51, 62
2, 79411, Note_on_c, 0, 43, 0
2, 79419, Note_on_c, 0, 43, 66
2, 79469, Control_c, 0, 64, 0
2, 79469, Note_on_c, 0, 72, 0
2, 79469, Note_on_c, 0, 75, 0
2, 79470, Note_on_c, 0, 84, 0
2, 79470, Note_on_c, 0, 67, 0
2, 79470, Note_on_c, 0, 43, 0
2, 79472, Note_on_c, 0, 36, 0
2, 79488, Note_on_c, 0, 51, 0
2, 79488, Note_on_c, 0, 79, 0
2, 79507, Note_on_c, 0, 79, 96
2, 79509, Note_on_c, 0, 67, 97
2, 79511, Note_on_c, 0, 75, 100
2, 79513, Note_on_c, 0, 48, 76
2, 79521, Note_on_c, 0, 36, 78
2, 79526, Control_c, 0, 64, 127
2, 79653, Note_on_c, 0, 43, 66
2, 79672, Note_on_c, 0, 79, 0
2, 79672, Note_on_c, 0, 91, 91
2, 79676, Note_on_c, 0, 79, 67
2, 79707, Note_on_c, 0, 51, 49
2, 79741, Note_on_c, 0, 43, 0
2, 79751, Note_on_c, 0, 43, 51
2, 79752, Note_on_c, 0, 87, 90
2, 79779, Note_on_c, 0, 67, 0
2, 79818, Note_on_c, 0, 36, 0
2, 79825, Note_on_c, 0, 36, 68
2, 79826, Note_on_c, 0, 84, 88
2, 79895, Note_on_c, 0, 43, 0
2, 79895, Note_on_c, 0, 79, 0
2, 79898, Note_on_c, 0, 43, 59
2, 79899, Note_on_c, 0, 79, 73
2, 79941, Note_on_c, 0, 48, 0
2, 79945, Note_on_c, 0, 48, 56
2, 79979, Note_on_c, 0, 75, 0
2, 79983, Note_on_c, 0, 75, 83
2, 80048, Note_on_c, 0, 51, 0
2, 80052, Note_on_c, 0, 72, 84
2, 80056, Note_on_c, 0, 51, 61
2, 80120, Note_on_c, 0, 87, 0
2, 80120, Note_on_c, 0, 91, 0
2, 80121, Note_on_c, 0, 48, 0
2, 80121, Note_on_c, 0, 84, 0
2, 80121, Note_on_c, 0, 75, 0
2, 80121, Note_on_c, 0, 79, 0
2, 80121, Note_on_c, 0, 72, 0
2, 80121, Note_on_c, 0, 43, 0
2, 80121, Note_on_c, 0, 36, 0
2, 80122, Control_c, 0, 64, 0
2, 80133, Note_on_c, 0, 51, 0
2, 80152, Note_on_c, 0, 77, 106
2, 80155, Note_on_c, 0, 37, 86
2, 80157, Note_on_c, 0, 65, 96
2, 80158, Note_on_c, 0, 73, 91
2, 80159, Note_on_c, 0, 68, 87
2, 80194, Control_c, 0, 64, 127
2, 80275, Note_on_c, 0, 44, 65
2, 80347, Note_on_c, 0, 53, 65
2, 80348, Note_on_c, 0, 48, 56
2, 80448, Note_on_c, 0, 65, 0
2, 80448, Note_on_c, 0, 77, 0
2, 80451, Control_c, 0, 64, 0
2, 80452, Note_on_c, 0, 73, 0
2, 80453, Note_on_c, 0, 53, 0
2, 80455, Note_on_c, 0, 44, 0
2, 80455, Note_on_c, 0, 37, 0
2, 80455, Note_on_c, 0, 48, 0
2, 80455, Note_on_c, 0, 68, 0
2, 80459, Note_on_c, 0, 77, 101
2, 80459, Note_on_c, 0, 65, 92
2, 80459, Note_on_c, 0, 68, 91
2, 80460, Note_on_c, 0, 37, 84
2, 80509, Control_c, 0, 64, 127
2, 80606, Note_on_c, 0, 44, 72
2, 80613, Note_on_c, 0, 63, 83
2, 80613, Note_on_c, 0, 75, 79
2, 80634, Note_on_c, 0, 67, 59
2, 80666, Note_on_c, 0, 53, 57
2, 80693, Note_on_c, 0, 65, 0
2, 80693, Note_on_c, 0, 68, 0
2, 80693, Note_on_c, 0, 77, 0
2, 80697, Note_on_c, 0, 77, 104
2, 80704, Note_on_c, 0, 68, 97
2, 80704, Note_on_c, 0, 65, 93
2, 80712, Control_c, 0, 64, 0
2, 80734, Note_on_c, 0, 63, 0
2, 80735, Note_on_c, 0, 75, 0
2, 80737, Note_on_c, 0, 44, 0
2, 80739, Note_on_c, 0, 67, 0
2, 80762, Note_on_c, 0, 37, 0
2, 80767, Note_on_c, 0, 37, 79
2, 80778, Note_on_c, 0, 65, 0
2, 80778, Control_c, 0, 64, 127
2, 80785, Note_on_c, 0, 53, 0
2, 80903, Note_on_c, 0, 44, 61
2, 80947, Note_on_c, 0, 77, 0
2, 80951, Note_on_c, 0, 73, 101
2, 80956, Note_on_c, 0, 84, 86
2, 80957, Note_on_c, 0, 77, 89
2, 80957, Note_on_c, 0, 53, 64
2, 80985, Note_on_c, 0, 83, 68
2, 81073, Control_c, 0, 64, 0
2, 81075, Note_on_c, 0, 73, 0
2, 81076, Note_on_c, 0, 83, 0
2, 81077, Note_on_c, 0, 68, 0
2, 81085, Note_on_c, 0, 37, 0
2, 81085, Note_on_c, 0, 84, 0
2, 81093, Note_on_c, 0, 77, 0
2, 81094, Note_on_c, 0, 84, 108
2, 81096, Note_on_c, 0, 37, 86
2, 81099, Note_on_c, 0, 72, 100
2, 81101, Note_on_c, 0, 77, 95
2, 81116, Note_on_c, 0, 53, 0
2, 81131, Control_c, 0, 64, 127
2, 81216, Note_on_c, 0, 44, 0
2, 81226, Note_on_c, 0, 44, 71
2, 81251, Note_on_c, 0, 82, 99
2, 81256, Note_on_c, 0, 70, 99
2, 81267, Note_on_c, 0, 53, 74
2, 81389, Control_c, 0, 64, 0
2, 81391, Note_on_c, 0, 72, 0
2, 81391, Note_on_c, 0, 77, 0
2, 81393, Note_on_c, 0, 53, 0
2, 81393, Note_on_c, 0, 84, 0
2, 81394, Note_on_c, 0, 37, 0
2, 81408, Note_on_c, 0, 44, 0
2, 81408, Note_on_c, 0, 82, 0
2, 81412, Note_on_c, 0, 44, 87
2, 81412, Note_on_c, 0, 75, 107
2, 81417, Note_on_c, 0, 87, 94
2, 81418, Note_on_c, 0, 82, 99
2, 81446, Control_c, 0, 64, 127
2, 81543, Note_on_c, 0, 51, 74
2, 81616, Note_on_c, 0, 60, 77
2, 81653, Note_on_c, 0, 70, 0
2, 81653, Note_on_c, 0, 75, 0
2, 81653, Note_on_c, 0, 82, 0
2, 81658, Note_on_c, 0, 82, 102
2, 81658, Note_on_c, 0, 75, 105
2, 81659, Note_on_c, 0, 70, 99
2, 81689, Control_c, 0, 64, 0
2, 81697, Note_on_c, 0, 51, 0
2, 81699, Note_on_c, 0, 60, 0
2, 81715, Note_on_c, 0, 44, 0
2, 81725, Note_on_c, 0, 44, 79
2, 81738, Note_on_c, 0, 87, 0
2, 81745, Control_c, 0, 64, 127
2, 81799, Note_on_c, 0, 70, 0
2, 81824, Note_on_c, 0, 51, 70
2, 81899, Note_on_c, 0, 75, 0
2, 81907, Note_on_c, 0, 87, 105
2, 81910, Note_on_c, 0, 75, 100
2, 81915, Note_on_c, 0, 60, 82
2, 82037, Note_on_c, 0, 44, 0
2, 82042, Control_c, 0, 64, 0
2, 82044, Note_on_c, 0, 87, 0
2, 82044, Note_on_c, 0, 44, 84
2, 82046, Note_on_c, 0, 60, 0
2, 82051, Note_on_c, 0, 72, 100
2, 82053, Note_on_c, 0, 75, 0
2, 82053, Note_on_c, 0, 84, 100
2, 82057, Note_on_c, 0, 75, 96
2, 82060, Note_on_c, 0, 82, 0
2, 82081, Note_on_c, 0, 86, 68
2, 82099, Control_c, 0, 64, 127
2, 82106, Note_on_c, 0, 51, 0
2, 82117, Note_on_c, 0, 51, 80
2, 82191, Note_on_c, 0, 44, 0
2, 82210, Note_on_c, 0, 60, 77
2, 82211, Note_on_c, 0, 63, 83
2, 82268, Note_on_c, 0, 68, 86
2, 82291, Note_on_c, 0, 51, 0
2, 82295, Note_on_c, 0, 51, 37
2, 82352, Note_on_c, 0, 72, 0
2, 82355, Note_on_c, 0, 43, 83
2, 82357, Note_on_c, 0, 72, 93
2, 82437, Note_on_c, 0, 75, 0
2, 82442, Note_on_c, 0, 75, 83
2, 82467, Note_on_c, 0, 51, 0
2, 82472, Note_on_c, 0, 51, 70
2, 82484, Note_on_c, 0, 58, 72
2, 82509, Note_on_c, 0, 77, 82
2, 82575, Note_on_c, 0, 79, 84
2, 82646, Note_on_c, 0, 86, 0
2, 82647, Note_on_c, 0, 63, 0
2, 82648, Control_c, 0, 64, 0
2, 82648, Note_on_c, 0, 68, 0
2, 82648, Note_on_c, 0, 72, 0
2, 82648, Note_on_c, 0, 60, 0
2, 82648, Note_on_c, 0, 75, 0
2, 82648, Note_on_c, 0, 77, 0
2, 82648, Note_on_c, 0, 43, 0
2, 82649, Note_on_c, 0, 79, 0
2, 82649, Note_on_c, 0, 84, 0
2, 82649, Note_on_c, 0, 58, 0
2, 82667, Note_on_c, 0, 51, 0
2, 82678, Note_on_c, 0, 34, 90
2, 82679, Note_on_c, 0, 73, 99
2, 82679, Note_on_c, 0, 80, 103
2, 82679, Note_on_c, 0, 77, 92
2, 82679, Note_on_c, 0, 68, 96
2, 82713, Control_c, 0, 64, 127
2, 82759, Note_on_c, 0, 34, 0
2, 82820, Note_on_c, 0, 41, 70
2, 82855, Note_on_c, 0, 89, 93
2, 82923, Note_on_c, 0, 49, 59
2, 82926, Note_on_c, 0, 85, 98
2, 82997, Note_on_c, 0, 80, 0
2, 83008, Note_on_c, 0, 80, 83
2, 83010, Note_on_c, 0, 34, 78
2, 83013, Note_on_c, 0, 68, 0
2, 83051, Note_on_c, 0, 77, 0
2, 83059, Note_on_c, 0, 77, 81
2, 83105, Note_on_c, 0, 41, 0
2, 83116, Note_on_c, 0, 41, 53
2, 83136, Note_on_c, 0, 73, 0
2, 83146, Note_on_c, 0, 73, 84
2, 83223, Note_on_c, 0, 68, 84
2, 83308, Note_on_c, 0, 41, 0
2, 83308, Note_on_c, 0, 80, 0
2, 83309, Note_on_c, 0, 68, 0
2, 83309, Note_on_c, 0, 85, 0
2, 83310, Control_c, 0, 64, 0
2, 83310, Note_on_c, 0, 89, 0
2, 83312, Note_on_c, 0, 49, 0
2, 83320, Note_on_c, 0, 34, 0
2, 83320, Note_on_c, 0, 73, 0
2, 83321, Note_on_c, 0, 79, 100
2, 83325, Note_on_c, 0, 34, 81
2, 83325, Note_on_c, 0, 73, 87
2, 83327, Note_on_c, 0, 70, 95
2, 83343, Note_on_c, 0, 77, 0
2, 83389, Control_c, 0, 64, 127
2, 83478, Note_on_c, 0, 41, 68
2, 83555, Note_on_c, 0, 49, 53
2, 83623, Note_on_c, 0, 70, 0
2, 83623, Note_on_c, 0, 41, 0
2, 83624, Note_on_c, 0, 79, 0
2, 83628, Control_c, 0, 64, 0
2, 83640, Note_on_c, 0, 80, 101
2, 83642, Note_on_c, 0, 34, 0
2, 83642, Note_on_c, 0, 73, 0
2, 83645, Note_on_c, 0, 46, 80
2, 83646, Note_on_c, 0, 73, 93
2, 83646, Note_on_c, 0, 34, 78
2, 83650, Note_on_c, 0, 49, 0
2, 83652, Note_on_c, 0, 70, 87
2, 83681, Control_c, 0, 64, 127
2, 83789, Note_on_c, 0, 41, 64
2, 83862, Note_on_c, 0, 49, 65
2, 83942, Note_on_c, 0, 34, 0
2, 83945, Note_on_c, 0, 73, 0
2, 83946, Note_on_c, 0, 49, 0
2, 83946, Note_on_c, 0, 80, 0
2, 83946, Note_on_c, 0, 41, 0
2, 83948, Control_c, 0, 64, 0
2, 83957, Note_on_c, 0, 70, 0
2, 83959, Note_on_c, 0, 79, 95
2, 83961, Note_on_c, 0, 39, 76
2, 83962, Note_on_c, 0, 67, 89
2, 83962, Note_on_c, 0, 70, 93
2, 83963, Note_on_c, 0, 75, 92
2, 83965, Note_on_c, 0, 46, 0
2, 84019, Control_c, 0, 64, 127
2, 84099, Note_on_c, 0, 46, 67
2, 84172, Note_on_c, 0, 55, 73
2, 84272, Note_on_c, 0, 75, 0
2, 84272, Note_on_c, 0, 79, 0
2, 84277, Note_on_c, 0, 79, 90
2, 84278, Note_on_c, 0, 75, 94
2, 84280, Note_on_c, 0, 39, 0
2, 84284, Note_on_c, 0, 55, 0
2, 84284, Note_on_c, 0, 46, 0
2, 84284, Note_on_c, 0, 70, 0
2, 84285, Note_on_c, 0, 39, 73
2, 84286, Control_c, 0, 64, 0
2, 84295, Note_on_c, 0, 67, 0
2, 84341, Control_c, 0, 64, 127
2, 84405, Note_on_c, 0, 46, 70
2, 84433, Note_on_c, 0, 75, 0
2, 84438, Note_on_c, 0, 75, 85
2, 84445, Note_on_c, 0, 70, 88
2, 84476, Note_on_c, 0, 55, 71
2, 84577, Note_on_c, 0, 75, 0
2, 84577, Note_on_c, 0, 46, 0
2, 84577, Note_on_c, 0, 70, 0
2, 84579, Note_on_c, 0, 55, 0
2, 84580, Control_c, 0, 64, 0
2, 84595, Note_on_c, 0, 39, 0
2, 84595, Note_on_c, 0, 79, 0
2, 84601, Note_on_c, 0, 39, 76
2, 84603, Note_on_c, 0, 82, 91
2, 84605, Note_on_c, 0, 79, 89
2, 84641, Control_c, 0, 64, 127
2, 84745, Note_on_c, 0, 46, 71
2, 84758, Note_on_c, 0, 75, 88
2, 84759, Note_on_c, 0, 80, 90
2, 84769, Note_on_c, 0, 55, 59
2, 84889, Note_on_c, 0, 82, 0
2, 84889, Note_on_c, 0, 46, 0
2, 84889, Note_on_c, 0, 75, 0
2, 84889, Note_on_c, 0, 55, 0
2, 84890, Note_on_c, 0, 80, 0
2, 84890, Control_c, 0, 64, 0
2, 84902, Note_on_c, 0, 39, 0
2, 84902, Note_on_c, 0, 79, 0
2, 84906, Note_on_c, 0, 39, 74
2, 84911, Note_on_c, 0, 79, 90
2, 84921, Note_on_c, 0, 70, 77
2, 84948, Control_c, 0, 64, 127
2, 85042, Note_on_c, 0, 55, 68
2, 85049, Note_on_c, 0, 46, 70
2, 85069, Note_on_c, 0, 80, 75
2, 85070, Note_on_c, 0, 75, 51
2, 85131, Note_on_c, 0, 79, 0
2, 85131, Note_on_c, 0, 55, 0
2, 85132, Note_on_c, 0, 46, 0
2, 85132, Note_on_c, 0, 39, 0
2, 85133, Control_c, 0, 64, 0
2, 85135, Note_on_c, 0, 80, 0
2, 85140, Note_on_c, 0, 70, 0
2, 85148, Note_on_c, 0, 75, 0
2, 85198, Note_on_c, 0, 34, 91
2, 85200, Note_on_c, 0, 82, 102
2, 85200, Note_on_c, 0, 73, 102
2, 85204, Note_on_c, 0, 77, 94
2, 85217, Control_c, 0, 64, 127
2, 85340, Note_on_c, 0, 34, 0
2, 85344, Note_on_c, 0, 82, 0
2, 85347, Control_c, 0, 64, 0
2, 85366, Note_on_c, 0, 49, 76
2, 85367, Note_on_c, 0, 80, 89
2, 85368, Note_on_c, 0, 68, 88
2, 85421, Note_on_c, 0, 53, 52
2, 85463, Note_on_c, 0, 73, 0
2, 85477, Note_on_c, 0, 49, 0
2, 85501, Note_on_c, 0, 68, 0
2, 85501, Note_on_c, 0, 77, 0
2, 85507, Note_on_c, 0, 58, 80
2, 85520, Note_on_c, 0, 82, 90
2, 85525, Note_on_c, 0, 70, 84
2, 85532, Note_on_c, 0, 80, 0
2, 85544, Note_on_c, 0, 58, 0
2, 85555, Note_on_c, 0, 53, 0
2, 85566, Note_on_c, 0, 53, 43
2, 85593, Note_on_c, 0, 70, 0
2, 85655, Note_on_c, 0, 82, 0
2, 85658, Note_on_c, 0, 46, 78
2, 85683, Note_on_c, 0, 84, 96
2, 85684, Note_on_c, 0, 72, 86
2, 85705, Note_on_c, 0, 79, 57
2, 85706, Note_on_c, 0, 75, 67
2, 85712, Note_on_c, 0, 46, 0
2, 85724, Note_on_c, 0, 53, 0
2, 85735, Note_on_c, 0, 72, 0
2, 85737, Note_on_c, 0, 79, 0
2, 85738, Note_on_c, 0, 84, 0
2, 85754, Note_on_c, 0, 75, 0
2, 85829, Note_on_c, 0, 36, 86
2, 85832, Note_on_c, 0, 82, 100
2, 85835, Note_on_c, 0, 75, 98
2, 85835, Note_on_c, 0, 79, 84
2, 85841, Note_on_c, 0, 70, 93
2, 85847, Control_c, 0, 64, 127
2, 85994, Note_on_c, 0, 51, 78
2, 86001, Note_on_c, 0, 68, 99
2, 86001, Note_on_c, 0, 80, 96
2, 86035, Note_on_c, 0, 55, 80
2, 86138, Note_on_c, 0, 79, 0
2, 86144, Note_on_c, 0, 79, 94
2, 86146, Note_on_c, 0, 60, 83
2, 86149, Note_on_c, 0, 67, 89
2, 86279, Note_on_c, 0, 48, 75
2, 86307, Note_on_c, 0, 68, 0
2, 86307, Note_on_c, 0, 80, 0
2, 86311, Note_on_c, 0, 80, 94
2, 86313, Note_on_c, 0, 68, 93
2, 86411, Control_c, 0, 64, 0
2, 86419, Note_on_c, 0, 51, 0
2, 86419, Note_on_c, 0, 75, 0
2, 86419, Note_on_c, 0, 82, 0
2, 86421, Note_on_c, 0, 55, 0
2, 86424, Note_on_c, 0, 70, 0
2, 86425, Note_on_c, 0, 68, 0
2, 86425, Note_on_c, 0, 80, 0
2, 86427, Note_on_c, 0, 60, 0
2, 86446, Note_on_c, 0, 36, 0
2, 86453, Note_on_c, 0, 48, 0
2, 86453, Note_on_c, 0, 79, 0
2, 86458, Note_on_c, 0, 41, 80
2, 86459, Note_on_c, 0, 79, 97
2, 86461, Note_on_c, 0, 67, 0
2, 86466, Note_on_c, 0, 67, 87
2, 86472, Note_on_c, 0, 70, 84
2, 86497, Note_on_c, 0, 67, 0
2, 86501, Note_on_c, 0, 79, 0
2, 86503, Note_on_c, 0, 41, 0
2, 86503, Note_on_c, 0, 70, 0
2, 86592, Control_c, 0, 64, 127
2, 86597, Note_on_c, 0, 53, 79
2, 86607, Control_c, 0, 64, 0
2, 86619, Note_on_c, 0, 77, 80
2, 86619, Note_on_c, 0, 68, 76
2, 86623, Note_on_c, 0, 65, 72
2, 86663, Note_on_c, 0, 41, 79
2, 86684, Note_on_c, 0, 77, 0
2, 86691, Note_on_c, 0, 65, 0
2, 86691, Note_on_c, 0, 68, 0
2, 86694, Note_on_c, 0, 77, 94
2, 86698, Note_on_c, 0, 68, 91
2, 86700, Note_on_c, 0, 65, 81
2, 86752, Note_on_c, 0, 48, 44
2, 86753, Note_on_c, 0, 56, 78
2, 86760, Control_c, 0, 64, 127
2, 86883, Note_on_c, 0, 41, 0
2, 86894, Note_on_c, 0, 41, 68
2, 86945, Note_on_c, 0, 65, 0
2, 86945, Note_on_c, 0, 68, 0
2, 86945, Note_on_c, 0, 77, 0
2, 86950, Note_on_c, 0, 77, 78
2, 86950, Note_on_c, 0, 68, 88
2, 86951, Note_on_c, 0, 65, 77
2, 86986, Note_on_c, 0, 51, 73
2, 87070, Note_on_c, 0, 55, 69
2, 87160, Note_on_c, 0, 41, 0
2, 87166, Note_on_c, 0, 41, 70
2, 87175, Note_on_c, 0, 65, 0
2, 87175, Note_on_c, 0, 68, 0
2, 87181, Note_on_c, 0, 68, 89
2, 87184, Note_on_c, 0, 65, 76
2, 87191, Note_on_c, 0, 56, 0
2, 87196, Note_on_c, 0, 56, 57
2, 87244, Note_on_c, 0, 51, 0
2, 87252, Note_on_c, 0, 51, 71
2, 87313, Note_on_c, 0, 55, 0
2, 87318, Note_on_c, 0, 55, 70
2, 87406, Note_on_c, 0, 65, 0
2, 87406, Note_on_c, 0, 77, 0
2, 87413, Note_on_c, 0, 56, 0
2, 87416, Note_on_c, 0, 77, 99
2, 87417, Note_on_c, 0, 65, 91
2, 87418, Note_on_c, 0, 56, 78
2, 87436, Note_on_c, 0, 55, 0
2, 87441, Note_on_c, 0, 67, 65
2, 87445, Note_on_c, 0, 55, 77
2, 87521, Note_on_c, 0, 51, 0
2, 87531, Note_on_c, 0, 51, 52
2, 87572, Note_on_c, 0, 84, 87
2, 87587, Note_on_c, 0, 71, 74
2, 87587, Note_on_c, 0, 72, 61
2, 87590, Note_on_c, 0, 77, 0
2, 87594, Note_on_c, 0, 77, 50
2, 87645, Note_on_c, 0, 65, 0
2, 87646, Note_on_c, 0, 51, 0
2, 87646, Note_on_c, 0, 56, 0
2, 87646, Note_on_c, 0, 77, 0
2, 87646, Note_on_c, 0, 53, 0
2, 87646, Note_on_c, 0, 68, 0
2, 87646, Note_on_c, 0, 84, 0
2, 87647, Note_on_c, 0, 55, 0
2, 87647, Note_on_c, 0, 71, 0
2, 87647, Note_on_c, 0, 72, 0
2, 87648, Control_c, 0, 64, 0
2, 87659, Note_on_c, 0, 48, 0
2, 87659, Note_on_c, 0, 67, 0
2, 87667, Note_on_c, 0, 41, 0
2, 87706, Note_on_c, 0, 85, 91
2, 87707, Note_on_c, 0, 73, 96
2, 87707, Note_on_c, 0, 82, 97
2, 87710, Note_on_c, 0, 77, 86
2, 87710, Note_on_c, 0, 34, 91
2, 87710, Note_on_c, 0, 46, 95
2, 87728, Control_c, 0, 64, 127
2, 87872, Note_on_c, 0, 68, 93
2, 87872, Note_on_c, 0, 80, 91
2, 87957, Note_on_c, 0, 61, 86
2, 87960, Note_on_c, 0, 58, 74
2, 87963, Note_on_c, 0, 53, 76
2, 88028, Note_on_c, 0, 82, 0
2, 88033, Note_on_c, 0, 70, 87
2, 88033, Note_on_c, 0, 82, 94
2, 88051, Note_on_c, 0, 34, 0
2, 88167, Note_on_c, 0, 61, 0
2, 88171, Note_on_c, 0, 58, 0
2, 88174, Note_on_c, 0, 53, 0
2, 88178, Note_on_c, 0, 82, 0
2, 88180, Note_on_c, 0, 84, 102
2, 88181, Note_on_c, 0, 46, 0
2, 88182, Note_on_c, 0, 53, 77
2, 88184, Note_on_c, 0, 72, 99
2, 88185, Note_on_c, 0, 46, 75
2, 88189, Note_on_c, 0, 85, 0
2, 88279, Note_on_c, 0, 80, 0
2, 88280, Note_on_c, 0, 53, 0
2, 88280, Control_c, 0, 64, 0
2, 88280, Note_on_c, 0, 68, 0
2, 88280, Note_on_c, 0, 72, 0
2, 88281, Note_on_c, 0, 77, 0
2, 88281, Note_on_c, 0, 84, 0
2, 88281, Note_on_c, 0, 73, 0
2, 88283, Note_on_c, 0, 70, 0
2, 88296, Note_on_c, 0, 46, 0
2, 88338, Note_on_c, 0, 36, 93
2, 88338, Note_on_c, 0, 75, 100
2, 88338, Note_on_c, 0, 48, 95
2, 88338, Note_on_c, 0, 82, 104
2, 88339, Note_on_c, 0, 70, 105
2, 88341, Note_on_c, 0, 79, 89
2, 88350, Control_c, 0, 64, 127
2, 88495, Note_on_c, 0, 84, 108
2, 88499, Note_on_c, 0, 72, 100
2, 88501, Note_on_c, 0, 43, 59
2, 88650, Note_on_c, 0, 48, 0
2, 88651, Note_on_c, 0, 87, 109
2, 88657, Note_on_c, 0, 75, 0
2, 88659, Note_on_c, 0, 48, 60
2, 88662, Note_on_c, 0, 75, 84
2, 88745, Note_on_c, 0, 55, 70
2, 88788, Note_on_c, 0, 48, 0
2, 88788, Note_on_c, 0, 79, 0
2, 88795, Note_on_c, 0, 91, 107
2, 88798, Note_on_c, 0, 48, 61
2, 88798, Note_on_c, 0, 79, 105
2, 88922, Control_c, 0, 64, 0
2, 88922, Note_on_c, 0, 48, 0
2, 88922, Note_on_c, 0, 82, 0
2, 88922, Note_on_c, 0, 72, 0
2, 88922, Note_on_c, 0, 75, 0
2, 88922, Note_on_c, 0, 70, 0
2, 88923, Note_on_c, 0, 55, 0
2, 88923, Note_on_c, 0, 43, 0
2, 88924, Note_on_c, 0, 36, 0
2, 88942, Note_on_c, 0, 84, 0
2, 88942, Note_on_c, 0, 87, 0
2, 88949, Note_on_c, 0, 79, 0
2, 88949, Note_on_c, 0, 91, 0
2, 88952, Note_on_c, 0, 84, 106
2, 88953, Note_on_c, 0, 87, 103
2, 88953, Note_on_c, 0, 91, 105
2, 88960, Note_on_c, 0, 79, 101
2, 88962, Note_on_c, 0, 41, 85
2, 88980, Control_c, 0, 64, 127
2, 89096, Note_on_c, 0, 53, 80
2, 89103, Note_on_c, 0, 87, 0
2, 89110, Note_on_c, 0, 77, 99
2, 89111, Note_on_c, 0, 84, 0
2, 89113, Note_on_c, 0, 89, 97
2, 89113, Note_on_c, 0, 87, 88
2, 89114, Note_on_c, 0, 80, 78
2, 89115, Note_on_c, 0, 84, 81
2, 89180, Note_on_c, 0, 41, 0
2, 89180, Note_on_c, 0, 77, 0
2, 89180, Note_on_c, 0, 84, 0
2, 89181, Control_c, 0, 64, 0
2, 89182, Note_on_c, 0, 91, 0
2, 89182, Note_on_c, 0, 89, 0
2, 89183, Note_on_c, 0, 79, 0
2, 89187, Note_on_c, 0, 80, 0
2, 89187, Note_on_c, 0, 41, 89
2, 89189, Note_on_c, 0, 84, 102
2, 89191, Note_on_c, 0, 77, 92
2, 89191, Note_on_c, 0, 72, 89
2, 89191, Note_on_c, 0, 80, 89
2, 89210, Control_c, 0, 64, 127
2, 89280, Note_on_c, 0, 55, 76
2, 89364, Note_on_c, 0, 87, 0
2, 89387, Note_on_c, 0, 41, 0
2, 89397, Note_on_c, 0, 41, 76
2, 89404, Control_c, 0, 64, 0
2, 89405, Note_on_c, 0, 77, 0
2, 89406, Note_on_c, 0, 68, 88
2, 89406, Note_on_c, 0, 55, 0
2, 89407, Note_on_c, 0, 84, 0
2, 89409, Note_on_c, 0, 80, 0
2, 89410, Note_on_c, 0, 53, 0
2, 89431, Note_on_c, 0, 60, 88
2, 89432, Note_on_c, 0, 65, 80
2, 89433, Control_c, 0, 64, 127
2, 89438, Note_on_c, 0, 53, 72
2, 89502, Note_on_c, 0, 56, 77
2, 89625, Note_on_c, 0, 41, 0
2, 89634, Note_on_c, 0, 41, 64
2, 89664, Note_on_c, 0, 72, 0
2, 89669, Note_on_c, 0, 72, 94
2, 89669, Note_on_c, 0, 80, 101
2, 89673, Note_on_c, 0, 77, 89
2, 89729, Note_on_c, 0, 55, 65
2, 89809, Note_on_c, 0, 41, 0
2, 89817, Note_on_c, 0, 41, 81
2, 89879, Note_on_c, 0, 55, 0
2, 89879, Note_on_c, 0, 84, 99
2, 89884, Note_on_c, 0, 89, 89
2, 89887, Note_on_c, 0, 92, 94
2, 89890, Note_on_c, 0, 55, 82
2, 89963, Note_on_c, 0, 56, 0
2, 89973, Note_on_c, 0, 56, 72
2, 90124, Note_on_c, 0, 41, 0
2, 90132, Note_on_c, 0, 41, 74
2, 90243, Note_on_c, 0, 56, 0
2, 90243, Note_on_c, 0, 92, 0
2, 90244, Note_on_c, 0, 60, 0
2, 90247, Control_c, 0, 64, 0
2, 90255, Note_on_c, 0, 77, 0
2, 90260, Note_on_c, 0, 29, 81
2, 90263, Note_on_c, 0, 65, 0
2, 90263, Note_on_c, 0, 68, 0
2, 90263, Note_on_c, 0, 72, 0
2, 90264, Note_on_c, 0, 77, 101
2, 90267, Note_on_c, 0, 72, 91
2, 90268, Note_on_c, 0, 65, 86
2, 90269, Note_on_c, 0, 68, 93
2, 90270, Note_on_c, 0, 55, 0
2, 90309, Note_on_c, 0, 53, 0
2, 91100, Note_on_c, 0, 89, 0
2, 91253, Note_on_c, 0, 80, 0
2, 92664, Note_on_c, 0, 29, 0
2, 92668, Note_on_c, 0, 72, 0
2, 92668, Note_on_c, 0, 68, 0
2, 92668, Note_on_c, 0, 77, 0
2, 92669, Note_on_c, 0, 65, 0
2, 92674, Note_on_c, 0, 41, 0
2, 92674, Note_on_c, 0, 84, 0
2, 92675, End_track
0, 0, End_of_file
