0, 0, Header, 1, 2, 384
1, 0, Start_track
1, 0, Tempo, 500000
1, 0, Time_signature, 4, 2, 24, 8
1, 1, End_track
2, 0, Start_track
2, 15, Control_c, 0, 64, 127
2, 936, Control_c, 0, 64, 0
2, 1169, Note_on_c, 0, 78, 74
2, 1179, Note_on_c, 0, 66, 57
2, 1186, Note_on_c, 0, 71, 64
2, 1305, Note_on_c, 0, 82, 72
2, 1328, Control_c, 0, 64, 127
2, 1428, Note_on_c, 0, 83, 70
2, 1569, Note_on_c, 0, 90, 75
2, 1712, Note_on_c, 0, 82, 0
2, 1718, Note_on_c, 0, 82, 71
2, 1820, Note_on_c, 0, 83, 0
2, 1831, Note_on_c, 0, 83, 74
2, 1966, Note_on_c, 0, 90, 0
2, 1975, Note_on_c, 0, 90, 78
2, 2088, Note_on_c, 0, 82, 0
2, 2098, Note_on_c, 0, 82, 82
2, 2219, Note_on_c, 0, 83, 0
2, 2227, Note_on_c, 0, 83, 78
2, 2357, Note_on_c, 0, 90, 0
2, 2367, Note_on_c, 0, 90, 81
2, 2488, Note_on_c, 0, 83, 0
2, 2499, Note_on_c, 0, 83, 81
2, 2618, Note_on_c, 0, 90, 0
2, 2623, Note_on_c, 0, 90, 75
2, 2752, Note_on_c, 0, 95, 84
2, 2815, Note_on_c, 0, 94, 83
2, 2874, Note_on_c, 0, 92, 79
2, 2949, Note_on_c, 0, 90, 0
2, 2958, Note_on_c, 0, 90, 68
2, 3020, Note_on_c, 0, 88, 79
2, 3144, Note_on_c, 0, 87, 78
2, 3287, Note_on_c, 0, 71, 0
2, 3293, Note_on_c, 0, 71, 76
2, 3294, Note_on_c, 0, 78, 0
2, 3299, Note_on_c, 0, 78, 80
2, 3305, Note_on_c, 0, 68, 64
2, 3305, Note_on_c, 0, 64, 65
2, 3322, Note_on_c, 0, 88, 0
2, 3323, Note_on_c, 0, 90, 0
2, 3323, Note_on_c, 0, 95, 0
2, 3323, Note_on_c, 0, 66, 0
2, 3323, Note_on_c, 0, 82, 0
2, 3324, Note_on_c, 0, 87, 0
2, 3324, Note_on_c, 0, 94, 0
2, 3327, Control_c, 0, 64, 0
2, 3327, Note_on_c, 0, 92, 0
2, 3348, Note_on_c, 0, 83, 0
2, 3417, Control_c, 0, 64, 127
2, 3421, Note_on_c, 0, 82, 68
2, 3546, Note_on_c, 0, 83, 80
2, 3686, Note_on_c, 0, 90, 79
2, 3809, Note_on_c, 0, 82, 0
2, 3815, Note_on_c, 0, 82, 77
2, 3947, Note_on_c, 0, 83, 0
2, 3952, Note_on_c, 0, 83, 78
2, 4085, Note_on_c, 0, 90, 0
2, 4091, Note_on_c, 0, 90, 80
2, 4216, Note_on_c, 0, 82, 0
2, 4224, Note_on_c, 0, 82, 73
2, 4346, Note_on_c, 0, 83, 0
2, 4353, Note_on_c, 0, 83, 77
2, 4485, Note_on_c, 0, 90, 0
2, 4491, Note_on_c, 0, 90, 81
2, 4623, Note_on_c, 0, 83, 0
2, 4629, Note_on_c, 0, 83, 79
2, 4746, Note_on_c, 0, 90, 0
2, 4750, Note_on_c, 0, 90, 85
2, 4881, Note_on_c, 0, 94, 83
2, 4961, Note_on_c, 0, 92, 76
2, 5015, Note_on_c, 0, 90, 0
2, 5022, Note_on_c, 0, 90, 81
2, 5084, Note_on_c, 0, 92, 0
2, 5093, Note_on_c, 0, 92, 77
2, 5130, Note_on_c, 0, 94, 0
2, 5135, Note_on_c, 0, 94, 90
2, 5280, Note_on_c, 0, 95, 81
2, 5406, Note_on_c, 0, 71, 0
2, 5406, Note_on_c, 0, 78, 0
2, 5413, Note_on_c, 0, 78, 81
2, 5415, Note_on_c, 0, 63, 59
2, 5416, Note_on_c, 0, 71, 75
2, 5418, Note_on_c, 0, 56, 56
2, 5432, Control_c, 0, 64, 0
2, 5457, Note_on_c, 0, 64, 0
2, 5461, Note_on_c, 0, 95, 0
2, 5462, Note_on_c, 0, 94, 0
2, 5462, Note_on_c, 0, 83, 0
2, 5462, Note_on_c, 0, 68, 0
2, 5462, Note_on_c, 0, 82, 0
2, 5465, Note_on_c, 0, 90, 0
2, 5475, Note_on_c, 0, 92, 0
2, 5529, Control_c, 0, 64, 127
2, 5532, Note_on_c, 0, 83, 73
2, 5678, Note_on_c, 0, 90, 75
2, 5801, Note_on_c, 0, 82, 77
2, 5913, Note_on_c, 0, 83, 0
2, 5925, Note_on_c, 0, 83, 84
2, 6051, Note_on_c, 0, 90, 0
2, 6062, Note_on_c, 0, 90, 100
2, 6198, Note_on_c, 0, 95, 89
2, 6320, Note_on_c, 0, 90, 0
2, 6325, Note_on_c, 0, 90, 79
2, 6440, Control_c, 0, 64, 0
2, 6446, Note_on_c, 0, 63, 0
2, 6446, Note_on_c, 0, 90, 0
2, 6447, Note_on_c, 0, 82, 0
2, 6447, Note_on_c, 0, 95, 0
2, 6447, Note_on_c, 0, 56, 0
2, 6451, Note_on_c, 0, 78, 0
2, 6460, Note_on_c, 0, 78, 92
2, 6463, Note_on_c, 0, 61, 68
2, 6463, Note_on_c, 0, 70, 77
2, 6463, Note_on_c, 0, 54, 71
2, 6466, Note_on_c, 0, 71, 0
2, 6474, Note_on_c, 0, 83, 0
2, 6551, Control_c, 0, 64, 127
2, 6582, Note_on_c, 0, 83, 83
2, 6721, Note_on_c, 0, 90, 82
2, 6842, Note_on_c, 0, 82, 86
2, 6965, Note_on_c, 0, 83, 0
2, 6975, Note_on_c, 0, 83, 89
2, 7104, Note_on_c, 0, 90, 0
2, 7108, Note_on_c, 0, 90, 87
2, 7241, Note_on_c, 0, 94, 87
2, 7365, Note_on_c, 0, 90, 0
2, 7373, Note_on_c, 0, 90, 74
2, 7374, Note_on_c, 0, 52, 67
2, 7445, Note_on_c, 0, 59, 74
2, 7495, Note_on_c, 0, 78, 0
2, 7502, Note_on_c, 0, 78, 88
2, 7524, Note_on_c, 0, 68, 73
2, 7587, Note_on_c, 0, 54, 0
2, 7587, Note_on_c, 0, 59, 0
2, 7587, Note_on_c, 0, 78, 0
2, 7597, Note_on_c, 0, 78, 78
2, 7598, Note_on_c, 0, 59, 67
2, 7600, Control_c, 0, 64, 0
2, 7603, Note_on_c, 0, 70, 0
2, 7610, Note_on_c, 0, 61, 0
2, 7618, Note_on_c, 0, 94, 0
2, 7626, Note_on_c, 0, 82, 0
2, 7631, Note_on_c, 0, 82, 76
2, 7641, Control_c, 0, 64, 127
2, 7672, Note_on_c, 0, 83, 0
2, 7695, Note_on_c, 0, 90, 0
2, 7745, Note_on_c, 0, 83, 79
2, 7883, Note_on_c, 0, 90, 76
2, 8010, Note_on_c, 0, 82, 0
2, 8014, Note_on_c, 0, 82, 72
2, 8117, Note_on_c, 0, 83, 0
2, 8128, Note_on_c, 0, 83, 78
2, 8256, Note_on_c, 0, 90, 0
2, 8262, Note_on_c, 0, 90, 86
2, 8378, Note_on_c, 0, 83, 0
2, 8385, Note_on_c, 0, 83, 82
2, 8513, Note_on_c, 0, 95, 84
2, 8577, Note_on_c, 0, 94, 83
2, 8633, Note_on_c, 0, 92, 76
2, 8686, Note_on_c, 0, 90, 0
2, 8690, Note_on_c, 0, 90, 75
2, 8737, Note_on_c, 0, 88, 81
2, 8810, Note_on_c, 0, 87, 84
2, 8892, Note_on_c, 0, 85, 72
2, 8939, Note_on_c, 0, 83, 0
2, 8944, Note_on_c, 0, 83, 75
2, 9000, Note_on_c, 0, 82, 0
2, 9011, Note_on_c, 0, 82, 80
2, 9072, Note_on_c, 0, 80, 75
2, 9131, Note_on_c, 0, 78, 0
2, 9136, Note_on_c, 0, 78, 72
2, 9184, Note_on_c, 0, 76, 70
2, 9267, Note_on_c, 0, 75, 71
2, 9364, Note_on_c, 0, 72, 39
2, 9390, Note_on_c, 0, 94, 0
2, 9391, Note_on_c, 0, 95, 0
2, 9391, Note_on_c, 0, 90, 0
2, 9392, Note_on_c, 0, 88, 0
2, 9392, Note_on_c, 0, 52, 0
2, 9392, Note_on_c, 0, 87, 0
2, 9392, Note_on_c, 0, 92, 0
2, 9392, Note_on_c, 0, 85, 0
2, 9393, Note_on_c, 0, 82, 0
2, 9393, Note_on_c, 0, 83, 0
2, 9393, Note_on_c, 0, 76, 0
2, 9394, Note_on_c, 0, 78, 0
2, 9394, Note_on_c, 0, 80, 0
2, 9394, Note_on_c, 0, 59, 0
2, 9397, Control_c, 0, 64, 0
2, 9400, Note_on_c, 0, 75, 0
2, 9411, Note_on_c, 0, 75, 95
2, 9423, Note_on_c, 0, 68, 0
2, 9426, Note_on_c, 0, 71, 81
2, 9427, Note_on_c, 0, 52, 78
2, 9427, Note_on_c, 0, 68, 81
2, 9429, Note_on_c, 0, 40, 75
2, 9454, Note_on_c, 0, 72, 0
2, 9469, Control_c, 0, 64, 127
2, 9470, Note_on_c, 0, 40, 0
2, 9500, Note_on_c, 0, 52, 0
2, 9600, Note_on_c, 0, 68, 0
2, 9689, Note_on_c, 0, 52, 67
2, 9819, Note_on_c, 0, 66, 85
2, 9822, Note_on_c, 0, 75, 0
2, 9826, Note_on_c, 0, 78, 102
2, 9827, Note_on_c, 0, 75, 76
2, 9830, Note_on_c, 0, 71, 0
2, 9830, Note_on_c, 0, 56, 79
2, 9832, Note_on_c, 0, 64, 77
2, 9834, Note_on_c, 0, 68, 81
2, 9837, Note_on_c, 0, 59, 75
2, 9839, Note_on_c, 0, 71, 73
2, 10091, Note_on_c, 0, 52, 0
2, 10097, Note_on_c, 0, 52, 73
2, 10222, Note_on_c, 0, 56, 0
2, 10222, Note_on_c, 0, 59, 0
2, 10222, Note_on_c, 0, 71, 0
2, 10222, Note_on_c, 0, 75, 0
2, 10222, Note_on_c, 0, 78, 0
2, 10224, Note_on_c, 0, 83, 96
2, 10231, Note_on_c, 0, 78, 87
2, 10232, Note_on_c, 0, 71, 89
2, 10232, Note_on_c, 0, 75, 82
2, 10233, Note_on_c, 0, 59, 81
2, 10233, Note_on_c, 0, 56, 79
2, 10460, Note_on_c, 0, 52, 0
2, 10465, Note_on_c, 0, 52, 66
2, 10615, Note_on_c, 0, 52, 0
2, 10615, Control_c, 0, 64, 0
2, 10615, Note_on_c, 0, 68, 0
2, 10615, Note_on_c, 0, 56, 0
2, 10615, Note_on_c, 0, 75, 0
2, 10616, Note_on_c, 0, 64, 0
2, 10616, Note_on_c, 0, 71, 0
2, 10616, Note_on_c, 0, 66, 0
2, 10616, Note_on_c, 0, 59, 0
2, 10617, Note_on_c, 0, 83, 0
2, 10636, Note_on_c, 0, 78, 0
2, 10640, Note_on_c, 0, 82, 97
2, 10645, Note_on_c, 0, 78, 95
2, 10647, Note_on_c, 0, 73, 87
2, 10647, Note_on_c, 0, 42, 82
2, 10648, Note_on_c, 0, 70, 95
2, 10693, Note_on_c, 0, 42, 0
2, 10713, Control_c, 0, 64, 127
2, 10898, Note_on_c, 0, 54, 76
2, 11032, Note_on_c, 0, 66, 80
2, 11032, Note_on_c, 0, 61, 69
2, 11037, Note_on_c, 0, 58, 68
2, 11181, Note_on_c, 0, 83, 98
2, 11182, Note_on_c, 0, 73, 0
2, 11182, Note_on_c, 0, 78, 0
2, 11186, Note_on_c, 0, 78, 95
2, 11186, Note_on_c, 0, 71, 92
2, 11187, Note_on_c, 0, 73, 91
2, 11320, Note_on_c, 0, 54, 0
2, 11328, Note_on_c, 0, 54, 74
2, 11458, Note_on_c, 0, 58, 0
2, 11458, Note_on_c, 0, 61, 0
2, 11458, Note_on_c, 0, 70, 0
2, 11458, Note_on_c, 0, 73, 0
2, 11458, Note_on_c, 0, 78, 0
2, 11460, Note_on_c, 0, 85, 100
2, 11462, Note_on_c, 0, 78, 95
2, 11464, Note_on_c, 0, 73, 91
2, 11464, Note_on_c, 0, 70, 82
2, 11466, Note_on_c, 0, 82, 0
2, 11466, Note_on_c, 0, 58, 76
2, 11468, Note_on_c, 0, 61, 75
2, 11470, Note_on_c, 0, 82, 79
2, 11698, Note_on_c, 0, 73, 0
2, 11699, Note_on_c, 0, 54, 0
2, 11699, Note_on_c, 0, 71, 0
2, 11699, Control_c, 0, 64, 0
2, 11699, Note_on_c, 0, 61, 0
2, 11699, Note_on_c, 0, 58, 0
2, 11699, Note_on_c, 0, 66, 0
2, 11699, Note_on_c, 0, 70, 0
2, 11699, Note_on_c, 0, 82, 0
2, 11699, Note_on_c, 0, 85, 0
2, 11712, Note_on_c, 0, 78, 0
2, 11712, Note_on_c, 0, 83, 0
2, 11715, Note_on_c, 0, 88, 105
2, 11722, Note_on_c, 0, 78, 98
2, 11723, Note_on_c, 0, 83, 89
2, 11723, Note_on_c, 0, 76, 95
2, 11723, Note_on_c, 0, 47, 79
2, 11724, Note_on_c, 0, 35, 73
2, 11763, Note_on_c, 0, 35, 0
2, 11773, Control_c, 0, 64, 127
2, 11788, Note_on_c, 0, 47, 0
2, 11973, Note_on_c, 0, 78, 0
2, 11978, Note_on_c, 0, 87, 97
2, 11983, Note_on_c, 0, 75, 87
2, 11984, Note_on_c, 0, 78, 84
2, 11996, Note_on_c, 0, 83, 0
2, 12000, Note_on_c, 0, 47, 58
2, 12002, Note_on_c, 0, 83, 72
2, 12022, Note_on_c, 0, 59, 57
2, 12026, Note_on_c, 0, 59, 0
2, 12111, Note_on_c, 0, 75, 0
2, 12111, Note_on_c, 0, 78, 0
2, 12111, Note_on_c, 0, 83, 0
2, 12111, Note_on_c, 0, 87, 0
2, 12115, Note_on_c, 0, 87, 96
2, 12118, Note_on_c, 0, 78, 86
2, 12119, Note_on_c, 0, 75, 87
2, 12122, Note_on_c, 0, 83, 81
2, 12124, Note_on_c, 0, 59, 80
2, 12124, Note_on_c, 0, 51, 74
2, 12124, Note_on_c, 0, 54, 73
2, 12364, Note_on_c, 0, 47, 0
2, 12364, Note_on_c, 0, 59, 0
2, 12374, Note_on_c, 0, 59, 69
2, 12374, Note_on_c, 0, 47, 70
2, 12498, Control_c, 0, 64, 0
2, 12499, Note_on_c, 0, 47, 0
2, 12500, Note_on_c, 0, 59, 0
2, 12500, Note_on_c, 0, 51, 0
2, 12500, Note_on_c, 0, 54, 0
2, 12514, Note_on_c, 0, 46, 82
2, 12515, Note_on_c, 0, 34, 78
2, 12564, Control_c, 0, 64, 127
2, 12756, Note_on_c, 0, 46, 0
2, 12758, Control_c, 0, 64, 0
2, 12774, Note_on_c, 0, 32, 85
2, 12775, Note_on_c, 0, 44, 83
2, 12779, Note_on_c, 0, 34, 0
2, 12825, Control_c, 0, 64, 127
2, 13040, Note_on_c, 0, 32, 0
2, 13040, Note_on_c, 0, 44, 0
2, 13046, Note_on_c, 0, 44, 65
2, 13049, Note_on_c, 0, 32, 64
2, 13189, Note_on_c, 0, 59, 75
2, 13189, Note_on_c, 0, 56, 74
2, 13190, Note_on_c, 0, 51, 73
2, 13416, Note_on_c, 0, 44, 0
2, 13421, Note_on_c, 0, 44, 73
2, 13547, Note_on_c, 0, 76, 0
2, 13555, Note_on_c, 0, 88, 0
2, 13558, Note_on_c, 0, 56, 0
2, 13558, Note_on_c, 0, 51, 0
2, 13558, Note_on_c, 0, 44, 0
2, 13558, Note_on_c, 0, 32, 0
2, 13559, Note_on_c, 0, 59, 0
2, 13560, Control_c, 0, 64, 0
2, 13574, Note_on_c, 0, 30, 81
2, 13574, Note_on_c, 0, 42, 77
2, 13632, Control_c, 0, 64, 127
2, 13810, Note_on_c, 0, 42, 0
2, 13811, Control_c, 0, 64, 0
2, 13816, Note_on_c, 0, 30, 0
2, 13824, Note_on_c, 0, 75, 0
2, 13831, Note_on_c, 0, 87, 0
2, 13843, Note_on_c, 0, 87, 101
2, 13847, Note_on_c, 0, 49, 81
2, 13850, Note_on_c, 0, 37, 79
2, 13862, Control_c, 0, 64, 127
2, 13916, Note_on_c, 0, 83, 0
2, 13922, Note_on_c, 0, 83, 84
2, 14007, Note_on_c, 0, 80, 75
2, 14051, Note_on_c, 0, 76, 72
2, 14100, Note_on_c, 0, 49, 0
2, 14104, Note_on_c, 0, 49, 71
2, 14132, Note_on_c, 0, 71, 84
2, 14204, Note_on_c, 0, 68, 75
2, 14245, Note_on_c, 0, 59, 70
2, 14255, Note_on_c, 0, 56, 59
2, 14260, Note_on_c, 0, 64, 75
2, 14265, Note_on_c, 0, 52, 62
2, 14334, Note_on_c, 0, 63, 71
2, 14400, Note_on_c, 0, 64, 0
2, 14406, Note_on_c, 0, 64, 76
2, 14484, Note_on_c, 0, 68, 0
2, 14495, Note_on_c, 0, 68, 76
2, 14515, Note_on_c, 0, 49, 0
2, 14515, Note_on_c, 0, 52, 0
2, 14520, Note_on_c, 0, 49, 61
2, 14523, Note_on_c, 0, 52, 56
2, 14553, Note_on_c, 0, 71, 0
2, 14564, Note_on_c, 0, 71, 83
2, 14607, Note_on_c, 0, 56, 0
2, 14615, Note_on_c, 0, 52, 0
2, 14618, Note_on_c, 0, 56, 69
2, 14619, Note_on_c, 0, 52, 71
2, 14630, Note_on_c, 0, 87, 0
2, 14645, Note_on_c, 0, 76, 0
2, 14651, Note_on_c, 0, 76, 81
2, 14722, Note_on_c, 0, 80, 0
2, 14726, Note_on_c, 0, 80, 81
2, 14814, Note_on_c, 0, 83, 0
2, 14820, Note_on_c, 0, 83, 86
2, 14891, Note_on_c, 0, 78, 0
2, 14892, Note_on_c, 0, 59, 0
2, 14892, Note_on_c, 0, 63, 0
2, 14893, Note_on_c, 0, 71, 0
2, 14893, Note_on_c, 0, 64, 0
2, 14893, Note_on_c, 0, 80, 0
2, 14894, Note_on_c, 0, 83, 0
2, 14894, Note_on_c, 0, 76, 0
2, 14894, Control_c, 0, 64, 0
2, 14899, Note_on_c, 0, 49, 0
2, 14904, Note_on_c, 0, 87, 100
2, 14906, Note_on_c, 0, 37, 0
2, 14906, Note_on_c, 0, 52, 0
2, 14906, Note_on_c, 0, 56, 0
2, 14906, Note_on_c, 0, 68, 0
2, 14910, Note_on_c, 0, 49, 83
2, 14911, Note_on_c, 0, 37, 80
2, 14952, Control_c, 0, 64, 127
2, 14978, Note_on_c, 0, 83, 82
2, 15050, Note_on_c, 0, 80, 76
2, 15110, Note_on_c, 0, 76, 60
2, 15144, Note_on_c, 0, 49, 0
2, 15152, Note_on_c, 0, 37, 0
2, 15155, Note_on_c, 0, 49, 78
2, 15158, Note_on_c, 0, 37, 59
2, 15188, Note_on_c, 0, 72, 61
2, 15318, Note_on_c, 0, 64, 85
2, 15318, Note_on_c, 0, 68, 80
2, 15319, Note_on_c, 0, 59, 80
2, 15319, Note_on_c, 0, 56, 75
2, 15321, Note_on_c, 0, 52, 73
2, 15452, Note_on_c, 0, 64, 0
2, 15463, Note_on_c, 0, 64, 66
2, 15559, Note_on_c, 0, 68, 0
2, 15567, Note_on_c, 0, 68, 81
2, 15620, Note_on_c, 0, 71, 87
2, 15659, Note_on_c, 0, 56, 0
2, 15667, Note_on_c, 0, 52, 0
2, 15670, Note_on_c, 0, 56, 75
2, 15672, Note_on_c, 0, 52, 67
2, 15697, Note_on_c, 0, 76, 0
2, 15708, Note_on_c, 0, 76, 87
2, 15736, Note_on_c, 0, 87, 0
2, 15773, Note_on_c, 0, 78, 92
2, 15828, Note_on_c, 0, 80, 0
2, 15839, Note_on_c, 0, 80, 82
2, 15883, Note_on_c, 0, 82, 88
2, 15948, Note_on_c, 0, 52, 0
2, 15948, Note_on_c, 0, 59, 0
2, 15948, Note_on_c, 0, 68, 0
2, 15948, Note_on_c, 0, 71, 0
2, 15949, Note_on_c, 0, 72, 0
2, 15949, Note_on_c, 0, 64, 0
2, 15949, Note_on_c, 0, 76, 0
2, 15949, Note_on_c, 0, 49, 0
2, 15949, Note_on_c, 0, 80, 0
2, 15950, Note_on_c, 0, 78, 0
2, 15950, Control_c, 0, 64, 0
2, 15951, Note_on_c, 0, 82, 0
2, 15952, Note_on_c, 0, 37, 0
2, 15966, Note_on_c, 0, 56, 0
2, 15966, Note_on_c, 0, 83, 0
2, 15976, Note_on_c, 0, 83, 99
2, 15979, Note_on_c, 0, 30, 83
2, 15984, Note_on_c, 0, 42, 83
2, 16020, Control_c, 0, 64, 127
2, 16063, Note_on_c, 0, 78, 91
2, 16129, Note_on_c, 0, 76, 79
2, 16214, Note_on_c, 0, 71, 76
2, 16243, Note_on_c, 0, 42, 0
2, 16248, Note_on_c, 0, 42, 64
2, 16296, Note_on_c, 0, 66, 78
2, 16349, Note_on_c, 0, 64, 82
2, 16378, Note_on_c, 0, 54, 71
2, 16386, Note_on_c, 0, 49, 79
2, 16452, Note_on_c, 0, 59, 80
2, 16524, Note_on_c, 0, 61, 76
2, 16588, Note_on_c, 0, 64, 0
2, 16596, Note_on_c, 0, 64, 79
2, 16634, Note_on_c, 0, 66, 0
2, 16646, Note_on_c, 0, 66, 81
2, 16727, Note_on_c, 0, 71, 0
2, 16734, Note_on_c, 0, 71, 89
2, 16734, Note_on_c, 0, 49, 0
2, 16745, Note_on_c, 0, 49, 82
2, 16803, Note_on_c, 0, 76, 0
2, 16810, Note_on_c, 0, 76, 84
2, 16849, Note_on_c, 0, 78, 0
2, 16859, Note_on_c, 0, 78, 93
2, 16903, Note_on_c, 0, 83, 0
2, 16914, Note_on_c, 0, 83, 93
2, 17011, Note_on_c, 0, 66, 0
2, 17018, Note_on_c, 0, 61, 0
2, 17021, Note_on_c, 0, 66, 88
2, 17021, Note_on_c, 0, 85, 105
2, 17024, Note_on_c, 0, 58, 74
2, 17026, Note_on_c, 0, 78, 0
2, 17029, Note_on_c, 0, 61, 68
2, 17034, Note_on_c, 0, 76, 0
2, 17036, Note_on_c, 0, 78, 83
2, 17036, Note_on_c, 0, 73, 85
2, 17037, Note_on_c, 0, 70, 78
2, 17038, Note_on_c, 0, 82, 77
2, 17040, Note_on_c, 0, 76, 71
2, 17047, Control_c, 0, 64, 0
2, 17048, Note_on_c, 0, 49, 0
2, 17049, Note_on_c, 0, 64, 0
2, 17050, Note_on_c, 0, 54, 0
2, 17050, Note_on_c, 0, 59, 0
2, 17051, Note_on_c, 0, 71, 0
2, 17051, Note_on_c, 0, 42, 0
2, 17052, Note_on_c, 0, 83, 0
2, 17057, Note_on_c, 0, 30, 0
2, 17141, Note_on_c, 0, 76, 0
2, 17441, Control_c, 0, 64, 127
2, 17570, Note_on_c, 0, 54, 60
2, 18106, Control_c, 0, 64, 0
2, 18109, Note_on_c, 0, 70, 0
2, 18111, Note_on_c, 0, 54, 0
2, 18111, Note_on_c, 0, 58, 0
2, 18113, Note_on_c, 0, 73, 0
2, 18114, Note_on_c, 0, 85, 0
2, 18130, Note_on_c, 0, 47, 59
2, 18132, Note_on_c, 0, 61, 0
2, 18132, Note_on_c, 0, 66, 0
2, 18132, Note_on_c, 0, 78, 0
2, 18135, Note_on_c, 0, 59, 60
2, 18140, Note_on_c, 0, 82, 0
2, 18204, Note_on_c, 0, 47, 0
2, 18216, Control_c, 0, 64, 127
2, 18316, Note_on_c, 0, 59, 0
2, 18395, Note_on_c, 0, 59, 61
2, 18530, Note_on_c, 0, 63, 54
2, 18531, Note_on_c, 0, 71, 75
2, 18534, Note_on_c, 0, 66, 65
2, 18554, Note_on_c, 0, 59, 0
2, 18562, Note_on_c, 0, 59, 38
2, 18659, Note_on_c, 0, 78, 89
2, 18808, Note_on_c, 0, 71, 0
2, 18814, Note_on_c, 0, 71, 79
2, 18831, Note_on_c, 0, 59, 0
2, 18835, Note_on_c, 0, 59, 49
2, 19046, Note_on_c, 0, 78, 0
2, 19050, Note_on_c, 0, 44, 66
2, 19057, Note_on_c, 0, 78, 87
2, 19066, Note_on_c, 0, 59, 0
2, 19067, Control_c, 0, 64, 0
2, 19072, Note_on_c, 0, 63, 0
2, 19073, Note_on_c, 0, 66, 0
2, 19075, Note_on_c, 0, 71, 0
2, 19138, Control_c, 0, 64, 127
2, 19318, Note_on_c, 0, 58, 65
2, 19444, Note_on_c, 0, 59, 70
2, 19560, Note_on_c, 0, 58, 0
2, 19566, Note_on_c, 0, 63, 68
2, 19568, Note_on_c, 0, 66, 69
2, 19568, Note_on_c, 0, 71, 78
2, 19571, Note_on_c, 0, 58, 58
2, 19706, Note_on_c, 0, 78, 0
2, 19716, Note_on_c, 0, 78, 95
2, 19976, Note_on_c, 0, 80, 84
2, 20106, Note_on_c, 0, 78, 0
2, 20113, Note_on_c, 0, 44, 0
2, 20114, Note_on_c, 0, 78, 86
2, 20219, Note_on_c, 0, 63, 0
2, 20219, Note_on_c, 0, 71, 0
2, 20220, Control_c, 0, 64, 0
2, 20220, Note_on_c, 0, 58, 0
2, 20220, Note_on_c, 0, 59, 0
2, 20221, Note_on_c, 0, 66, 0
2, 20241, Note_on_c, 0, 43, 69
2, 20244, Note_on_c, 0, 55, 69
2, 20287, Note_on_c, 0, 43, 0
2, 20305, Control_c, 0, 64, 127
2, 20500, Note_on_c, 0, 76, 80
2, 20511, Note_on_c, 0, 59, 67
2, 20613, Note_on_c, 0, 55, 0
2, 20645, Note_on_c, 0, 74, 75
2, 20653, Note_on_c, 0, 71, 59
2, 20655, Note_on_c, 0, 66, 69
2, 20656, Note_on_c, 0, 62, 60
2, 20904, Note_on_c, 0, 71, 0
2, 20914, Note_on_c, 0, 71, 86
2, 21120, Note_on_c, 0, 80, 0
2, 21166, Note_on_c, 0, 76, 0
2, 21174, Note_on_c, 0, 76, 84
2, 21185, Note_on_c, 0, 45, 64
2, 21193, Control_c, 0, 64, 0
2, 21193, Note_on_c, 0, 69, 57
2, 21197, Note_on_c, 0, 59, 0
2, 21197, Note_on_c, 0, 74, 0
2, 21198, Note_on_c, 0, 62, 0
2, 21198, Note_on_c, 0, 66, 0
2, 21212, Note_on_c, 0, 71, 0
2, 21219, Note_on_c, 0, 78, 0
2, 21273, Control_c, 0, 64, 127
2, 21298, Note_on_c, 0, 45, 0
2, 21439, Note_on_c, 0, 59, 72
2, 21569, Note_on_c, 0, 61, 60
2, 21672, Note_on_c, 0, 76, 0
2, 21680, Note_on_c, 0, 76, 79
2, 21705, Note_on_c, 0, 66, 70
2, 21706, Note_on_c, 0, 64, 72
2, 21839, Note_on_c, 0, 78, 90
2, 21957, Note_on_c, 0, 76, 0
2, 21964, Note_on_c, 0, 76, 73
2, 22097, Note_on_c, 0, 75, 79
2, 22218, Note_on_c, 0, 76, 0
2, 22226, Note_on_c, 0, 76, 74
2, 22313, Note_on_c, 0, 76, 0
2, 22314, Note_on_c, 0, 64, 0
2, 22314, Note_on_c, 0, 59, 0
2, 22314, Note_on_c, 0, 66, 0
2, 22314, Note_on_c, 0, 61, 0
2, 22315, Note_on_c, 0, 75, 0
2, 22316, Control_c, 0, 64, 0
2, 22341, Note_on_c, 0, 69, 0
2, 22348, Note_on_c, 0, 78, 0
2, 22359, Note_on_c, 0, 78, 92
2, 22375, Note_on_c, 0, 47, 60
2, 22425, Control_c, 0, 64, 127
2, 22629, Note_on_c, 0, 59, 61
2, 22636, Note_on_c, 0, 71, 77
2, 22755, Note_on_c, 0, 71, 0
2, 22760, Note_on_c, 0, 63, 63
2, 22761, Note_on_c, 0, 71, 76
2, 22766, Note_on_c, 0, 66, 71
2, 22909, Note_on_c, 0, 71, 0
2, 22914, Note_on_c, 0, 71, 76
2, 23040, Note_on_c, 0, 71, 0
2, 23044, Note_on_c, 0, 71, 79
2, 23306, Note_on_c, 0, 73, 83
2, 23310, Note_on_c, 0, 66, 0
2, 23310, Control_c, 0, 64, 0
2, 23310, Note_on_c, 0, 78, 0
2, 23310, Note_on_c, 0, 63, 0
2, 23311, Note_on_c, 0, 47, 0
2, 23311, Note_on_c, 0, 71, 0
2, 23311, Note_on_c, 0, 59, 0
2, 23324, Note_on_c, 0, 44, 70
2, 23329, Note_on_c, 0, 68, 59
2, 23400, Control_c, 0, 64, 127
2, 23575, Note_on_c, 0, 75, 81
2, 23577, Note_on_c, 0, 58, 61
2, 23699, Note_on_c, 0, 76, 84
2, 23699, Note_on_c, 0, 59, 65
2, 23830, Note_on_c, 0, 66, 76
2, 23834, Note_on_c, 0, 63, 60
2, 23953, Note_on_c, 0, 75, 0
2, 23965, Note_on_c, 0, 75, 86
2, 24215, Note_on_c, 0, 59, 0
2, 24226, Note_on_c, 0, 59, 68
2, 24463, Note_on_c, 0, 55, 58
2, 24483, Note_on_c, 0, 62, 59
2, 24488, Note_on_c, 0, 71, 78
2, 24491, Note_on_c, 0, 95, 75
2, 24496, Note_on_c, 0, 44, 0
2, 24496, Note_on_c, 0, 73, 0
2, 24496, Note_on_c, 0, 75, 0
2, 24496, Note_on_c, 0, 59, 0
2, 24496, Note_on_c, 0, 58, 0
2, 24496, Note_on_c, 0, 76, 0
2, 24496, Control_c, 0, 64, 0
2, 24497, Note_on_c, 0, 63, 0
2, 24498, Note_on_c, 0, 66, 0
2, 24514, Note_on_c, 0, 68, 0
2, 24549, Note_on_c, 0, 93, 73
2, 24583, Control_c, 0, 64, 127
2, 24603, Note_on_c, 0, 91, 74
2, 24629, Note_on_c, 0, 95, 0
2, 24671, Note_on_c, 0, 90, 75
2, 24739, Note_on_c, 0, 88, 76
2, 24798, Note_on_c, 0, 86, 83
2, 24872, Note_on_c, 0, 85, 71
2, 24921, Note_on_c, 0, 83, 73
2, 24989, Note_on_c, 0, 81, 75
2, 25056, Note_on_c, 0, 79, 70
2, 25109, Note_on_c, 0, 78, 81
2, 25179, Note_on_c, 0, 76, 70
2, 25235, Note_on_c, 0, 74, 62
2, 25305, Note_on_c, 0, 73, 76
2, 25351, Note_on_c, 0, 71, 0
2, 25362, Note_on_c, 0, 71, 74
2, 25429, Note_on_c, 0, 69, 68
2, 25461, Control_c, 0, 64, 0
2, 25462, Note_on_c, 0, 90, 0
2, 25462, Note_on_c, 0, 73, 0
2, 25462, Note_on_c, 0, 85, 0
2, 25462, Note_on_c, 0, 88, 0
2, 25462, Note_on_c, 0, 93, 0
2, 25462, Note_on_c, 0, 81, 0
2, 25462, Note_on_c, 0, 86, 0
2, 25462, Note_on_c, 0, 78, 0
2, 25462, Note_on_c, 0, 91, 0
2, 25462, Note_on_c, 0, 55, 0
2, 25462, Note_on_c, 0, 79, 0
2, 25463, Note_on_c, 0, 76, 0
2, 25463, Note_on_c, 0, 74, 0
2, 25463, Note_on_c, 0, 83, 0
2, 25463, Note_on_c, 0, 62, 0
2, 25474, Note_on_c, 0, 71, 0
2, 25493, Note_on_c, 0, 45, 64
2, 25520, Note_on_c, 0, 69, 0
2, 25530, Note_on_c, 0, 52, 57
2, 25536, Control_c, 0, 64, 127
2, 25602, Note_on_c, 0, 57, 72
2, 25700, Note_on_c, 0, 61, 70
2, 25757, Note_on_c, 0, 64, 90
2, 25877, Control_c, 0, 64, 0
2, 25878, Note_on_c, 0, 61, 0
2, 25879, Note_on_c, 0, 57, 0
2, 25880, Note_on_c, 0, 52, 0
2, 25886, Note_on_c, 0, 64, 0
2, 25887, Note_on_c, 0, 71, 88
2, 25896, Note_on_c, 0, 45, 0
2, 25924, Note_on_c, 0, 71, 0
2, 26010, Note_on_c, 0, 74, 85
2, 26045, Note_on_c, 0, 74, 0
2, 26137, Note_on_c, 0, 73, 90
2, 26158, Control_c, 0, 64, 127
2, 26283, Note_on_c, 0, 81, 86
2, 26346, Note_on_c, 0, 88, 76
2, 26392, Note_on_c, 0, 93, 101
2, 26537, Note_on_c, 0, 47, 79
2, 26538, Note_on_c, 0, 35, 69
2, 26672, Note_on_c, 0, 47, 0
2, 26676, Note_on_c, 0, 47, 70
2, 26809, Note_on_c, 0, 54, 76
2, 26809, Note_on_c, 0, 51, 77
2, 26812, Note_on_c, 0, 59, 76
2, 26817, Note_on_c, 0, 35, 0
2, 26821, Note_on_c, 0, 93, 0
2, 26821, Note_on_c, 0, 73, 0
2, 26822, Note_on_c, 0, 88, 0
2, 26822, Note_on_c, 0, 81, 0
2, 26824, Control_c, 0, 64, 0
2, 26832, Note_on_c, 0, 47, 0
2, 26848, Note_on_c, 0, 59, 0
2, 26853, Note_on_c, 0, 54, 0
2, 26861, Note_on_c, 0, 51, 0
2, 26940, Note_on_c, 0, 71, 85
2, 27022, Note_on_c, 0, 71, 0
2, 27073, Note_on_c, 0, 78, 94
2, 27097, Note_on_c, 0, 75, 60
2, 27106, Note_on_c, 0, 78, 0
2, 27148, Note_on_c, 0, 75, 0
2, 27210, Note_on_c, 0, 71, 89
2, 27227, Note_on_c, 0, 47, 65
2, 27258, Note_on_c, 0, 47, 0
2, 27345, Note_on_c, 0, 59, 63
2, 27346, Note_on_c, 0, 54, 68
2, 27347, Note_on_c, 0, 51, 74
2, 27375, Note_on_c, 0, 51, 0
2, 27377, Note_on_c, 0, 54, 0
2, 27417, Note_on_c, 0, 59, 0
2, 27473, Note_on_c, 0, 78, 101
2, 27474, Note_on_c, 0, 32, 85
2, 27480, Note_on_c, 0, 75, 80
2, 27509, Control_c, 0, 64, 127
2, 27724, Note_on_c, 0, 44, 72
2, 27820, Note_on_c, 0, 32, 0
2, 27820, Control_c, 0, 64, 0
2, 27823, Note_on_c, 0, 44, 0
2, 27823, Note_on_c, 0, 75, 0
2, 27823, Note_on_c, 0, 71, 0
2, 27823, Note_on_c, 0, 78, 0
2, 27864, Note_on_c, 0, 56, 69
2, 27865, Note_on_c, 0, 59, 79
2, 27865, Note_on_c, 0, 71, 90
2, 27866, Note_on_c, 0, 68, 70
2, 27866, Note_on_c, 0, 51, 67
2, 27896, Note_on_c, 0, 59, 0
2, 27896, Note_on_c, 0, 71, 0
2, 27896, Note_on_c, 0, 68, 0
2, 27903, Note_on_c, 0, 56, 0
2, 27915, Note_on_c, 0, 51, 0
2, 27997, Note_on_c, 0, 71, 88
2, 28054, Note_on_c, 0, 71, 0
2, 28117, Note_on_c, 0, 78, 99
2, 28157, Note_on_c, 0, 78, 0
2, 28250, Note_on_c, 0, 78, 98
2, 28252, Note_on_c, 0, 44, 79
2, 28294, Note_on_c, 0, 78, 0
2, 28295, Note_on_c, 0, 44, 0
2, 28379, Note_on_c, 0, 80, 91
2, 28384, Note_on_c, 0, 59, 77
2, 28397, Note_on_c, 0, 56, 62
2, 28403, Note_on_c, 0, 51, 67
2, 28419, Note_on_c, 0, 59, 0
2, 28436, Note_on_c, 0, 80, 0
2, 28446, Note_on_c, 0, 51, 0
2, 28446, Note_on_c, 0, 56, 0
2, 28516, Note_on_c, 0, 78, 98
2, 28525, Note_on_c, 0, 71, 77
2, 28528, Note_on_c, 0, 74, 65
2, 28592, Note_on_c, 0, 74, 0
2, 28647, Note_on_c, 0, 43, 80
2, 28647, Note_on_c, 0, 31, 73
2, 28730, Control_c, 0, 64, 127
2, 28776, Note_on_c, 0, 43, 0
2, 28781, Note_on_c, 0, 43, 58
2, 28782, Note_on_c, 0, 50, 60
2, 28896, Control_c, 0, 64, 0
2, 28904, Note_on_c, 0, 76, 87
2, 28907, Note_on_c, 0, 31, 0
2, 28907, Note_on_c, 0, 50, 0
2, 28907, Note_on_c, 0, 71, 0
2, 28911, Note_on_c, 0, 71, 73
2, 28911, Note_on_c, 0, 50, 76
2, 28912, Note_on_c, 0, 59, 78
2, 28912, Note_on_c, 0, 43, 0
2, 28920, Note_on_c, 0, 78, 0
2, 28942, Note_on_c, 0, 59, 0
2, 28963, Note_on_c, 0, 50, 0
2, 28968, Note_on_c, 0, 71, 0
2, 28980, Note_on_c, 0, 76, 0
2, 29060, Note_on_c, 0, 74, 87
2, 29291, Note_on_c, 0, 74, 0
2, 29312, Note_on_c, 0, 71, 89
2, 29315, Note_on_c, 0, 43, 72
2, 29360, Note_on_c, 0, 43, 0
2, 29436, Note_on_c, 0, 50, 75
2, 29440, Note_on_c, 0, 59, 84
2, 29447, Note_on_c, 0, 78, 96
2, 29460, Note_on_c, 0, 71, 0
2, 29471, Note_on_c, 0, 59, 0
2, 29472, Note_on_c, 0, 50, 0
2, 29539, Note_on_c, 0, 78, 0
2, 29570, Note_on_c, 0, 76, 90
2, 29582, Note_on_c, 0, 69, 79
2, 29585, Note_on_c, 0, 73, 80
2, 29586, Note_on_c, 0, 45, 82
2, 29637, Control_c, 0, 64, 127
2, 29836, Note_on_c, 0, 45, 0
2, 29843, Note_on_c, 0, 45, 65
2, 29947, Control_c, 0, 64, 0
2, 29953, Note_on_c, 0, 76, 0
2, 29953, Note_on_c, 0, 73, 0
2, 29954, Note_on_c, 0, 69, 0
2, 29959, Note_on_c, 0, 45, 0
2, 29969, Note_on_c, 0, 57, 76
2, 29970, Note_on_c, 0, 45, 67
2, 29978, Note_on_c, 0, 49, 78
2, 29978, Note_on_c, 0, 52, 68
2, 30010, Note_on_c, 0, 57, 0
2, 30011, Note_on_c, 0, 52, 0
2, 30017, Note_on_c, 0, 49, 0
2, 30021, Note_on_c, 0, 45, 0
2, 30117, Note_on_c, 0, 78, 101
2, 30373, Note_on_c, 0, 45, 74
2, 30375, Note_on_c, 0, 76, 84
2, 30379, Note_on_c, 0, 73, 60
2, 30434, Note_on_c, 0, 78, 0
2, 30445, Note_on_c, 0, 45, 0
2, 30484, Note_on_c, 0, 76, 0
2, 30504, Note_on_c, 0, 57, 76
2, 30508, Note_on_c, 0, 75, 88
2, 30514, Note_on_c, 0, 49, 77
2, 30517, Note_on_c, 0, 52, 57
2, 30538, Note_on_c, 0, 57, 0
2, 30546, Note_on_c, 0, 52, 0
2, 30547, Note_on_c, 0, 49, 0
2, 30592, Note_on_c, 0, 75, 0
2, 30612, Note_on_c, 0, 73, 0
2, 30628, Note_on_c, 0, 76, 87
2, 30694, Note_on_c, 0, 76, 0
2, 30759, Note_on_c, 0, 47, 81
2, 30761, Note_on_c, 0, 35, 76
2, 30762, Note_on_c, 0, 78, 101
2, 30772, Note_on_c, 0, 75, 86
2, 30789, Control_c, 0, 64, 127
2, 30896, Note_on_c, 0, 47, 0
2, 30906, Note_on_c, 0, 47, 63
2, 31034, Note_on_c, 0, 47, 0
2, 31043, Note_on_c, 0, 59, 77
2, 31044, Note_on_c, 0, 47, 67
2, 31044, Note_on_c, 0, 54, 73
2, 31046, Note_on_c, 0, 51, 70
2, 31054, Control_c, 0, 64, 0
2, 31057, Note_on_c, 0, 35, 0
2, 31070, Note_on_c, 0, 47, 0
2, 31075, Note_on_c, 0, 59, 0
2, 31075, Note_on_c, 0, 78, 0
2, 31081, Note_on_c, 0, 54, 0
2, 31085, Note_on_c, 0, 51, 0
2, 31184, Note_on_c, 0, 71, 91
2, 31185, Note_on_c, 0, 75, 0
2, 31363, Note_on_c, 0, 71, 0
2, 31446, Note_on_c, 0, 47, 66
2, 31449, Note_on_c, 0, 71, 93
2, 31489, Note_on_c, 0, 47, 0
2, 31589, Note_on_c, 0, 54, 71
2, 31590, Note_on_c, 0, 59, 69
2, 31594, Note_on_c, 0, 51, 73
2, 31622, Note_on_c, 0, 54, 0
2, 31622, Note_on_c, 0, 51, 0
2, 31649, Note_on_c, 0, 59, 0
2, 31687, Control_c, 0, 64, 127
2, 31718, Note_on_c, 0, 44, 80
2, 31720, Note_on_c, 0, 73, 96
2, 31720, Note_on_c, 0, 32, 80
2, 31964, Note_on_c, 0, 44, 0
2, 31964, Note_on_c, 0, 71, 0
2, 31974, Note_on_c, 0, 44, 79
2, 31975, Note_on_c, 0, 71, 92
2, 31978, Note_on_c, 0, 32, 0
2, 32058, Note_on_c, 0, 73, 0
2, 32061, Control_c, 0, 64, 0
2, 32071, Note_on_c, 0, 44, 0
2, 32108, Note_on_c, 0, 73, 92
2, 32110, Note_on_c, 0, 59, 82
2, 32112, Note_on_c, 0, 56, 72
2, 32120, Note_on_c, 0, 52, 68
2, 32125, Note_on_c, 0, 52, 0
2, 32140, Note_on_c, 0, 59, 0
2, 32147, Note_on_c, 0, 56, 0
2, 32148, Note_on_c, 0, 71, 0
2, 32156, Note_on_c, 0, 73, 0
2, 32165, Note_on_c, 0, 73, 84
2, 32232, Note_on_c, 0, 73, 0
2, 32239, Note_on_c, 0, 75, 87
2, 32276, Note_on_c, 0, 75, 0
2, 32382, Note_on_c, 0, 75, 91
2, 32384, Note_on_c, 0, 71, 85
2, 32514, Note_on_c, 0, 44, 75
2, 32566, Note_on_c, 0, 44, 0
2, 32640, Note_on_c, 0, 59, 83
2, 32642, Note_on_c, 0, 71, 0
2, 32653, Note_on_c, 0, 56, 67
2, 32658, Note_on_c, 0, 51, 76
2, 32667, Note_on_c, 0, 59, 0
2, 32677, Note_on_c, 0, 56, 0
2, 32686, Note_on_c, 0, 51, 0
2, 32771, Note_on_c, 0, 71, 85
2, 32774, Note_on_c, 0, 75, 0
2, 32859, Note_on_c, 0, 71, 0
2, 32894, Note_on_c, 0, 78, 104
2, 32902, Note_on_c, 0, 31, 76
2, 32905, Note_on_c, 0, 74, 75
2, 32931, Control_c, 0, 64, 127
2, 32936, Note_on_c, 0, 31, 0
2, 33024, Note_on_c, 0, 43, 76
2, 33154, Note_on_c, 0, 43, 0
2, 33157, Note_on_c, 0, 50, 79
2, 33159, Control_c, 0, 64, 0
2, 33160, Note_on_c, 0, 59, 85
2, 33164, Note_on_c, 0, 76, 90
2, 33165, Note_on_c, 0, 74, 0
2, 33189, Note_on_c, 0, 78, 0
2, 33200, Note_on_c, 0, 59, 0
2, 33224, Note_on_c, 0, 50, 0
2, 33270, Note_on_c, 0, 76, 0
2, 33303, Note_on_c, 0, 74, 90
2, 33534, Note_on_c, 0, 74, 0
2, 33551, Note_on_c, 0, 78, 101
2, 33553, Note_on_c, 0, 43, 78
2, 33608, Note_on_c, 0, 43, 0
2, 33688, Note_on_c, 0, 59, 80
2, 33690, Note_on_c, 0, 50, 74
2, 33718, Note_on_c, 0, 59, 0
2, 33726, Note_on_c, 0, 50, 0
2, 33811, Note_on_c, 0, 76, 92
2, 33822, Note_on_c, 0, 73, 85
2, 33828, Note_on_c, 0, 45, 82
2, 33829, Note_on_c, 0, 33, 74
2, 33853, Control_c, 0, 64, 127
2, 34060, Note_on_c, 0, 45, 0
2, 34072, Note_on_c, 0, 45, 87
2, 34145, Note_on_c, 0, 33, 0
2, 34146, Note_on_c, 0, 73, 0
2, 34146, Note_on_c, 0, 78, 0
2, 34151, Control_c, 0, 64, 0
2, 34168, Note_on_c, 0, 45, 0
2, 34208, Note_on_c, 0, 57, 82
2, 34210, Note_on_c, 0, 52, 71
2, 34216, Note_on_c, 0, 49, 75
2, 34242, Note_on_c, 0, 57, 0
2, 34246, Note_on_c, 0, 52, 0
2, 34255, Note_on_c, 0, 49, 0
2, 34469, Note_on_c, 0, 75, 92
2, 34498, Note_on_c, 0, 76, 0
2, 34605, Note_on_c, 0, 45, 70
2, 34648, Note_on_c, 0, 45, 0
2, 34740, Note_on_c, 0, 57, 77
2, 34740, Note_on_c, 0, 76, 88
2, 34744, Note_on_c, 0, 49, 71
2, 34745, Note_on_c, 0, 52, 69
2, 34765, Note_on_c, 0, 75, 0
2, 34787, Note_on_c, 0, 52, 0
2, 34788, Note_on_c, 0, 57, 0
2, 34791, Note_on_c, 0, 49, 0
2, 35009, Note_on_c, 0, 78, 93
2, 35010, Note_on_c, 0, 44, 70
2, 35024, Note_on_c, 0, 75, 61
2, 35031, Note_on_c, 0, 71, 67
2, 35043, Note_on_c, 0, 76, 0
2, 35059, Control_c, 0, 64, 127
2, 35146, Note_on_c, 0, 51, 62
2, 35300, Note_on_c, 0, 56, 62
2, 35425, Note_on_c, 0, 59, 62
2, 35426, Note_on_c, 0, 83, 81
2, 35558, Note_on_c, 0, 83, 0
2, 35562, Note_on_c, 0, 83, 81
2, 35693, Note_on_c, 0, 63, 67
2, 35816, Note_on_c, 0, 68, 76
2, 35942, Note_on_c, 0, 71, 0
2, 35953, Note_on_c, 0, 71, 81
2, 36073, Note_on_c, 0, 63, 0
2, 36074, Note_on_c, 0, 59, 0
2, 36074, Note_on_c, 0, 44, 0
2, 36074, Note_on_c, 0, 56, 0
2, 36074, Note_on_c, 0, 51, 0
2, 36074, Note_on_c, 0, 68, 0
2, 36074, Control_c, 0, 64, 0
2, 36075, Note_on_c, 0, 71, 0
2, 36075, Note_on_c, 0, 78, 0
2, 36075, Note_on_c, 0, 83, 0
2, 36089, Note_on_c, 0, 79, 91
2, 36090, Note_on_c, 0, 43, 62
2, 36096, Note_on_c, 0, 75, 0
2, 36098, Note_on_c, 0, 70, 80
2, 36103, Note_on_c, 0, 75, 66
2, 36157, Control_c, 0, 64, 127
2, 36229, Note_on_c, 0, 51, 63
2, 36338, Note_on_c, 0, 55, 76
2, 36478, Note_on_c, 0, 82, 84
2, 36483, Note_on_c, 0, 58, 63
2, 36487, Note_on_c, 0, 70, 0
2, 36496, Note_on_c, 0, 70, 65
2, 36618, Note_on_c, 0, 82, 0
2, 36624, Note_on_c, 0, 82, 88
2, 36758, Note_on_c, 0, 63, 65
2, 36885, Note_on_c, 0, 67, 79
2, 36994, Note_on_c, 0, 82, 0
2, 37004, Note_on_c, 0, 82, 82
2, 37017, Note_on_c, 0, 70, 0
2, 37021, Note_on_c, 0, 70, 76
2, 37133, Control_c, 0, 64, 0
2, 37135, Note_on_c, 0, 63, 0
2, 37136, Note_on_c, 0, 51, 0
2, 37136, Note_on_c, 0, 67, 0
2, 37136, Note_on_c, 0, 55, 0
2, 37136, Note_on_c, 0, 58, 0
2, 37136, Note_on_c, 0, 82, 0
2, 37136, Note_on_c, 0, 79, 0
2, 37137, Note_on_c, 0, 70, 0
2, 37138, Note_on_c, 0, 43, 0
2, 37139, Note_on_c, 0, 42, 70
2, 37149, Note_on_c, 0, 83, 94
2, 37159, Note_on_c, 0, 78, 89
2, 37171, Note_on_c, 0, 75, 0
2, 37173, Note_on_c, 0, 71, 72
2, 37176, Note_on_c, 0, 75, 62
2, 37217, Control_c, 0, 64, 127
2, 37300, Note_on_c, 0, 51, 62
2, 37416, Note_on_c, 0, 75, 0
2, 37427, Note_on_c, 0, 75, 86
2, 37431, Note_on_c, 0, 54, 62
2, 37565, Note_on_c, 0, 59, 62
2, 37693, Note_on_c, 0, 71, 0
2, 37696, Note_on_c, 0, 73, 93
2, 37701, Note_on_c, 0, 71, 56
2, 37836, Note_on_c, 0, 63, 69
2, 37962, Note_on_c, 0, 71, 0
2, 37968, Note_on_c, 0, 66, 71
2, 37969, Note_on_c, 0, 71, 88
2, 38101, Note_on_c, 0, 80, 93
2, 38108, Note_on_c, 0, 71, 0
2, 38108, Note_on_c, 0, 75, 0
2, 38112, Note_on_c, 0, 75, 77
2, 38116, Note_on_c, 0, 71, 74
2, 38183, Control_c, 0, 64, 0
2, 38187, Note_on_c, 0, 59, 0
2, 38187, Note_on_c, 0, 54, 0
2, 38187, Note_on_c, 0, 42, 0
2, 38187, Note_on_c, 0, 63, 0
2, 38188, Note_on_c, 0, 51, 0
2, 38188, Note_on_c, 0, 78, 0
2, 38189, Note_on_c, 0, 73, 0
2, 38192, Note_on_c, 0, 83, 0
2, 38223, Note_on_c, 0, 66, 0
2, 38228, Note_on_c, 0, 41, 60
2, 38330, Control_c, 0, 64, 127
2, 38367, Note_on_c, 0, 49, 68
2, 38495, Note_on_c, 0, 53, 69
2, 38643, Note_on_c, 0, 56, 60
2, 38913, Note_on_c, 0, 61, 66
2, 39041, Note_on_c, 0, 65, 71
2, 39048, Note_on_c, 0, 73, 86
2, 39175, Note_on_c, 0, 75, 0
2, 39179, Note_on_c, 0, 75, 81
2, 39277, Note_on_c, 0, 61, 0
2, 39277, Note_on_c, 0, 80, 0
2, 39277, Note_on_c, 0, 49, 0
2, 39277, Control_c, 0, 64, 0
2, 39278, Note_on_c, 0, 53, 0
2, 39278, Note_on_c, 0, 75, 0
2, 39278, Note_on_c, 0, 56, 0
2, 39278, Note_on_c, 0, 73, 0
2, 39278, Note_on_c, 0, 41, 0
2, 39278, Note_on_c, 0, 65, 0
2, 39298, Note_on_c, 0, 71, 0
2, 39298, Note_on_c, 0, 76, 84
2, 39301, Note_on_c, 0, 40, 58
2, 39313, Note_on_c, 0, 68, 74
2, 39317, Note_on_c, 0, 71, 74
2, 39390, Control_c, 0, 64, 127
2, 39441, Note_on_c, 0, 52, 71
2, 39579, Note_on_c, 0, 75, 82
2, 39579, Note_on_c, 0, 54, 68
2, 39708, Note_on_c, 0, 73, 89
2, 39708, Note_on_c, 0, 56, 64
2, 39827, Note_on_c, 0, 58, 73
2, 39959, Note_on_c, 0, 71, 0
2, 39966, Note_on_c, 0, 59, 77
2, 39969, Note_on_c, 0, 71, 93
2, 40037, Note_on_c, 0, 75, 0
2, 40037, Note_on_c, 0, 68, 0
2, 40039, Note_on_c, 0, 76, 0
2, 40040, Note_on_c, 0, 56, 0
2, 40042, Note_on_c, 0, 54, 0
2, 40066, Note_on_c, 0, 58, 0
2, 40093, Note_on_c, 0, 61, 71
2, 40104, Note_on_c, 0, 52, 0
2, 40120, Note_on_c, 0, 40, 0
2, 40227, Note_on_c, 0, 63, 77
2, 40231, Note_on_c, 0, 76, 87
2, 40258, Note_on_c, 0, 59, 0
2, 40330, Control_c, 0, 64, 0
2, 40332, Note_on_c, 0, 61, 0
2, 40337, Note_on_c, 0, 71, 0
2, 40345, Note_on_c, 0, 63, 0
2, 40350, Note_on_c, 0, 73, 0
2, 40359, Note_on_c, 0, 64, 89
2, 40458, Control_c, 0, 64, 127
2, 40498, Note_on_c, 0, 52, 69
2, 40625, Note_on_c, 0, 63, 80
2, 40773, Note_on_c, 0, 52, 0
2, 40777, Note_on_c, 0, 52, 61
2, 40902, Note_on_c, 0, 61, 77
2, 41034, Note_on_c, 0, 52, 0
2, 41038, Note_on_c, 0, 52, 66
2, 41177, Note_on_c, 0, 75, 87
2, 41178, Note_on_c, 0, 59, 74
2, 41272, Note_on_c, 0, 52, 0
2, 41280, Note_on_c, 0, 52, 68
2, 41287, Note_on_c, 0, 76, 0
2, 41298, Note_on_c, 0, 76, 79
2, 41383, Note_on_c, 0, 61, 0
2, 41383, Note_on_c, 0, 63, 0
2, 41383, Note_on_c, 0, 59, 0
2, 41384, Note_on_c, 0, 75, 0
2, 41384, Control_c, 0, 64, 0
2, 41384, Note_on_c, 0, 52, 0
2, 41384, Note_on_c, 0, 64, 0
2, 41437, Note_on_c, 0, 42, 77
2, 41437, Note_on_c, 0, 78, 95
2, 41440, Note_on_c, 0, 73, 84
2, 41461, Note_on_c, 0, 70, 72
2, 41464, Note_on_c, 0, 76, 0
2, 41569, Note_on_c, 0, 54, 68
2, 41579, Control_c, 0, 64, 127
2, 41710, Note_on_c, 0, 56, 70
2, 41712, Note_on_c, 0, 76, 83
2, 41836, Note_on_c, 0, 75, 93
2, 41837, Note_on_c, 0, 58, 75
2, 41963, Note_on_c, 0, 59, 80
2, 42105, Note_on_c, 0, 61, 73
2, 42106, Note_on_c, 0, 80, 91
2, 42230, Note_on_c, 0, 63, 74
2, 42276, Note_on_c, 0, 76, 0
2, 42276, Note_on_c, 0, 58, 0
2, 42276, Note_on_c, 0, 56, 0
2, 42276, Note_on_c, 0, 42, 0
2, 42277, Note_on_c, 0, 75, 0
2, 42277, Note_on_c, 0, 59, 0
2, 42277, Note_on_c, 0, 78, 0
2, 42278, Note_on_c, 0, 73, 0
2, 42278, Control_c, 0, 64, 0
2, 42278, Note_on_c, 0, 54, 0
2, 42278, Note_on_c, 0, 61, 0
2, 42301, Note_on_c, 0, 70, 0
2, 42346, Note_on_c, 0, 63, 0
2, 42355, Control_c, 0, 64, 127
2, 42360, Note_on_c, 0, 64, 88
2, 42361, Note_on_c, 0, 78, 98
2, 42488, Note_on_c, 0, 66, 87
2, 42621, Note_on_c, 0, 54, 77
2, 42695, Note_on_c, 0, 99, 79
2, 42750, Note_on_c, 0, 97, 75
2, 42758, Note_on_c, 0, 68, 86
2, 42787, Note_on_c, 0, 95, 81
2, 42864, Note_on_c, 0, 94, 84
2, 42885, Note_on_c, 0, 54, 0
2, 42896, Note_on_c, 0, 54, 83
2, 42933, Note_on_c, 0, 92, 78
2, 42988, Note_on_c, 0, 90, 75
2, 43000, Note_on_c, 0, 80, 0
2, 43019, Note_on_c, 0, 70, 98
2, 43036, Note_on_c, 0, 88, 85
2, 43121, Note_on_c, 0, 87, 83
2, 43153, Note_on_c, 0, 54, 0
2, 43163, Note_on_c, 0, 54, 89
2, 43209, Note_on_c, 0, 85, 78
2, 43254, Note_on_c, 0, 83, 77
2, 43283, Note_on_c, 0, 71, 86
2, 43304, Note_on_c, 0, 69, 63
2, 43320, Note_on_c, 0, 82, 76
2, 43395, Note_on_c, 0, 80, 71
2, 43415, Note_on_c, 0, 54, 0
2, 43423, Note_on_c, 0, 54, 70
2, 43453, Note_on_c, 0, 78, 0
2, 43459, Note_on_c, 0, 78, 77
2, 43528, Note_on_c, 0, 78, 0
2, 43528, Note_on_c, 0, 54, 0
2, 43529, Note_on_c, 0, 82, 0
2, 43529, Note_on_c, 0, 70, 0
2, 43529, Note_on_c, 0, 90, 0
2, 43529, Note_on_c, 0, 69, 0
2, 43530, Note_on_c, 0, 68, 0
2, 43530, Note_on_c, 0, 94, 0
2, 43530, Note_on_c, 0, 66, 0
2, 43531, Control_c, 0, 64, 0
2, 43531, Note_on_c, 0, 71, 0
2, 43531, Note_on_c, 0, 80, 0
2, 43531, Note_on_c, 0, 83, 0
2, 43531, Note_on_c, 0, 92, 0
2, 43531, Note_on_c, 0, 88, 0
2, 43531, Note_on_c, 0, 95, 0
2, 43531, Note_on_c, 0, 64, 0
2, 43532, Note_on_c, 0, 97, 0
2, 43532, Note_on_c, 0, 87, 0
2, 43532, Note_on_c, 0, 85, 0
2, 43532, Note_on_c, 0, 99, 0
2, 43565, Note_on_c, 0, 52, 71
2, 43711, Note_on_c, 0, 59, 62
2, 43724, Note_on_c, 0, 52, 0
2, 43760, Control_c, 0, 64, 127
2, 43818, Note_on_c, 0, 64, 72
2, 43818, Note_on_c, 0, 85, 83
2, 43953, Note_on_c, 0, 68, 62
2, 43955, Note_on_c, 0, 83, 79
2, 44083, Note_on_c, 0, 85, 0
2, 44087, Note_on_c, 0, 85, 84
2, 44213, Note_on_c, 0, 64, 0
2, 44217, Note_on_c, 0, 64, 61
2, 44343, Note_on_c, 0, 76, 70
2, 44357, Note_on_c, 0, 71, 71
2, 44428, Note_on_c, 0, 68, 0
2, 44433, Note_on_c, 0, 68, 71
2, 44474, Note_on_c, 0, 83, 0
2, 44479, Note_on_c, 0, 83, 74
2, 44582, Note_on_c, 0, 85, 0
2, 44584, Note_on_c, 0, 59, 0
2, 44584, Note_on_c, 0, 76, 0
2, 44585, Note_on_c, 0, 64, 0
2, 44585, Note_on_c, 0, 68, 0
2, 44586, Note_on_c, 0, 71, 0
2, 44586, Note_on_c, 0, 83, 0
2, 44586, Control_c, 0, 64, 0
2, 44593, Note_on_c, 0, 85, 80
2, 44595, Note_on_c, 0, 54, 61
2, 44682, Control_c, 0, 64, 127
2, 44726, Note_on_c, 0, 87, 86
2, 44731, Note_on_c, 0, 61, 60
2, 44846, Note_on_c, 0, 66, 67
2, 44861, Note_on_c, 0, 88, 85
2, 44991, Note_on_c, 0, 70, 70
2, 44997, Note_on_c, 0, 85, 0
2, 45002, Note_on_c, 0, 85, 86
2, 45158, Note_on_c, 0, 54, 0
2, 45250, Note_on_c, 0, 66, 0
2, 45254, Note_on_c, 0, 90, 85
2, 45261, Note_on_c, 0, 66, 65
2, 45385, Note_on_c, 0, 78, 75
2, 45422, Note_on_c, 0, 73, 62
2, 45457, Note_on_c, 0, 70, 0
2, 45462, Note_on_c, 0, 70, 69
2, 45488, Note_on_c, 0, 66, 0
2, 45499, Note_on_c, 0, 66, 70
2, 45609, Note_on_c, 0, 87, 0
2, 45609, Note_on_c, 0, 88, 0
2, 45610, Note_on_c, 0, 85, 0
2, 45610, Note_on_c, 0, 66, 0
2, 45610, Note_on_c, 0, 78, 0
2, 45610, Note_on_c, 0, 70, 0
2, 45610, Note_on_c, 0, 61, 0
2, 45611, Note_on_c, 0, 73, 0
2, 45614, Control_c, 0, 64, 0
2, 45622, Note_on_c, 0, 51, 72
2, 45711, Control_c, 0, 64, 127
2, 45761, Note_on_c, 0, 58, 60
2, 45876, Note_on_c, 0, 63, 56
2, 45880, Note_on_c, 0, 90, 0
2, 45884, Note_on_c, 0, 90, 80
2, 46015, Note_on_c, 0, 66, 64
2, 46017, Note_on_c, 0, 87, 92
2, 46141, Note_on_c, 0, 90, 0
2, 46152, Note_on_c, 0, 90, 91
2, 46295, Note_on_c, 0, 63, 0
2, 46305, Note_on_c, 0, 63, 67
2, 46393, Note_on_c, 0, 75, 75
2, 46423, Note_on_c, 0, 70, 68
2, 46487, Note_on_c, 0, 66, 0
2, 46495, Note_on_c, 0, 66, 66
2, 46517, Note_on_c, 0, 63, 0
2, 46521, Note_on_c, 0, 63, 54
2, 46540, Note_on_c, 0, 90, 0
2, 46547, Note_on_c, 0, 90, 84
2, 46654, Note_on_c, 0, 70, 0
2, 46655, Note_on_c, 0, 63, 0
2, 46655, Note_on_c, 0, 51, 0
2, 46656, Control_c, 0, 64, 0
2, 46656, Note_on_c, 0, 75, 0
2, 46657, Note_on_c, 0, 58, 0
2, 46671, Note_on_c, 0, 66, 0
2, 46679, Note_on_c, 0, 94, 96
2, 46682, Note_on_c, 0, 56, 67
2, 46740, Control_c, 0, 64, 127
2, 46809, Note_on_c, 0, 63, 69
2, 46940, Note_on_c, 0, 68, 78
2, 46941, Note_on_c, 0, 95, 86
2, 47061, Note_on_c, 0, 71, 83
2, 47078, Note_on_c, 0, 90, 0
2, 47084, Note_on_c, 0, 92, 93
2, 47216, Note_on_c, 0, 56, 0
2, 47316, Note_on_c, 0, 68, 0
2, 47323, Note_on_c, 0, 68, 70
2, 47436, Note_on_c, 0, 80, 77
2, 47459, Note_on_c, 0, 75, 61
2, 47500, Note_on_c, 0, 71, 0
2, 47505, Note_on_c, 0, 71, 71
2, 47554, Note_on_c, 0, 68, 0
2, 47559, Note_on_c, 0, 68, 74
2, 47700, Note_on_c, 0, 95, 0
2, 47705, Note_on_c, 0, 95, 97
2, 47711, Control_c, 0, 64, 0
2, 47712, Note_on_c, 0, 68, 0
2, 47712, Note_on_c, 0, 71, 0
2, 47712, Note_on_c, 0, 48, 75
2, 47712, Note_on_c, 0, 91, 87
2, 47712, Note_on_c, 0, 75, 0
2, 47712, Note_on_c, 0, 80, 0
2, 47713, Note_on_c, 0, 92, 0
2, 47713, Note_on_c, 0, 63, 0
2, 47715, Note_on_c, 0, 87, 0
2, 47717, Note_on_c, 0, 88, 87
2, 47719, Note_on_c, 0, 83, 72
2, 47731, Note_on_c, 0, 94, 0
2, 47792, Control_c, 0, 64, 127
2, 47851, Note_on_c, 0, 50, 74
2, 47963, Note_on_c, 0, 52, 63
2, 48018, Note_on_c, 0, 54, 69
2, 48090, Note_on_c, 0, 55, 66
2, 48092, Note_on_c, 0, 91, 0
2, 48103, Note_on_c, 0, 91, 92
2, 48122, Note_on_c, 0, 88, 0
2, 48124, Note_on_c, 0, 79, 77
2, 48129, Note_on_c, 0, 88, 71
2, 48169, Note_on_c, 0, 57, 68
2, 48241, Note_on_c, 0, 59, 67
2, 48319, Note_on_c, 0, 60, 56
2, 48371, Note_on_c, 0, 62, 74
2, 48457, Note_on_c, 0, 64, 76
2, 48483, Note_on_c, 0, 88, 0
2, 48487, Note_on_c, 0, 88, 94
2, 48492, Note_on_c, 0, 76, 83
2, 48493, Note_on_c, 0, 84, 68
2, 48542, Note_on_c, 0, 66, 85
2, 48631, Note_on_c, 0, 67, 84
2, 48729, Note_on_c, 0, 95, 0
2, 48736, Note_on_c, 0, 54, 0
2, 48736, Note_on_c, 0, 52, 0
2, 48736, Note_on_c, 0, 62, 0
2, 48736, Note_on_c, 0, 76, 0
2, 48736, Note_on_c, 0, 48, 0
2, 48736, Note_on_c, 0, 79, 0
2, 48736, Note_on_c, 0, 57, 0
2, 48736, Note_on_c, 0, 59, 0
2, 48737, Note_on_c, 0, 88, 0
2, 48737, Note_on_c, 0, 84, 0
2, 48737, Note_on_c, 0, 64, 0
2, 48737, Note_on_c, 0, 66, 0
2, 48738, Note_on_c, 0, 60, 0
2, 48738, Note_on_c, 0, 55, 0
2, 48738, Control_c, 0, 64, 0
2, 48739, Note_on_c, 0, 67, 0
2, 48744, Note_on_c, 0, 83, 0
2, 48752, Note_on_c, 0, 50, 0
2, 48752, Note_on_c, 0, 91, 0
2, 48756, Note_on_c, 0, 86, 101
2, 48762, Note_on_c, 0, 50, 79
2, 48763, Note_on_c, 0, 78, 96
2, 48763, Note_on_c, 0, 81, 85
2, 48767, Note_on_c, 0, 74, 79
2, 48806, Control_c, 0, 64, 127
2, 48852, Note_on_c, 0, 74, 0
2, 48879, Note_on_c, 0, 52, 76
2, 48942, Note_on_c, 0, 54, 73
2, 49025, Note_on_c, 0, 55, 70
2, 49031, Note_on_c, 0, 93, 101
2, 49036, Note_on_c, 0, 81, 0
2, 49040, Note_on_c, 0, 81, 94
2, 49076, Note_on_c, 0, 57, 84
2, 49175, Note_on_c, 0, 59, 72
2, 49238, Note_on_c, 0, 60, 67
2, 49299, Note_on_c, 0, 91, 100
2, 49302, Note_on_c, 0, 79, 89
2, 49303, Note_on_c, 0, 62, 68
2, 49380, Note_on_c, 0, 64, 87
2, 49500, Note_on_c, 0, 66, 72
2, 49528, Note_on_c, 0, 78, 0
2, 49531, Note_on_c, 0, 90, 101
2, 49538, Note_on_c, 0, 78, 94
2, 49590, Note_on_c, 0, 67, 83
2, 49683, Note_on_c, 0, 69, 76
2, 49800, Note_on_c, 0, 59, 0
2, 49800, Note_on_c, 0, 69, 0
2, 49800, Note_on_c, 0, 64, 0
2, 49800, Note_on_c, 0, 86, 0
2, 49800, Note_on_c, 0, 50, 0
2, 49800, Note_on_c, 0, 79, 0
2, 49800, Control_c, 0, 64, 0
2, 49800, Note_on_c, 0, 54, 0
2, 49800, Note_on_c, 0, 93, 0
2, 49800, Note_on_c, 0, 62, 0
2, 49800, Note_on_c, 0, 66, 0
2, 49800, Note_on_c, 0, 67, 0
2, 49800, Note_on_c, 0, 90, 0
2, 49801, Note_on_c, 0, 78, 0
2, 49801, Note_on_c, 0, 91, 0
2, 49801, Note_on_c, 0, 57, 0
2, 49801, Note_on_c, 0, 55, 0
2, 49801, Note_on_c, 0, 60, 0
2, 49820, Note_on_c, 0, 52, 0
2, 49820, Note_on_c, 0, 81, 0
2, 49821, Note_on_c, 0, 88, 104
2, 49825, Note_on_c, 0, 76, 98
2, 49826, Note_on_c, 0, 83, 94
2, 49826, Note_on_c, 0, 81, 85
2, 49830, Note_on_c, 0, 52, 81
2, 49831, Note_on_c, 0, 40, 71
2, 49835, Note_on_c, 0, 40, 0
2, 49889, Control_c, 0, 64, 127
2, 50097, Note_on_c, 0, 100, 79
2, 50169, Note_on_c, 0, 95, 78
2, 50229, Note_on_c, 0, 93, 74
2, 50280, Note_on_c, 0, 88, 0
2, 50292, Note_on_c, 0, 88, 80
2, 50365, Note_on_c, 0, 88, 0
2, 50370, Note_on_c, 0, 88, 93
2, 50426, Note_on_c, 0, 83, 0
2, 50438, Note_on_c, 0, 83, 78
2, 50488, Note_on_c, 0, 81, 0
2, 50495, Note_on_c, 0, 81, 83
2, 50565, Note_on_c, 0, 76, 0
2, 50569, Note_on_c, 0, 76, 69
2, 50634, Note_on_c, 0, 76, 0
2, 50639, Note_on_c, 0, 76, 79
2, 50697, Note_on_c, 0, 71, 83
2, 50740, Note_on_c, 0, 69, 76
2, 50817, Note_on_c, 0, 64, 77
2, 50880, Note_on_c, 0, 76, 0
2, 50884, Note_on_c, 0, 76, 88
2, 50895, Note_on_c, 0, 71, 0
2, 50900, Note_on_c, 0, 100, 0
2, 50900, Note_on_c, 0, 71, 77
2, 50900, Note_on_c, 0, 88, 0
2, 50902, Control_c, 0, 64, 0
2, 50902, Note_on_c, 0, 95, 0
2, 50902, Note_on_c, 0, 93, 0
2, 50903, Note_on_c, 0, 52, 0
2, 50903, Note_on_c, 0, 68, 80
2, 50903, Note_on_c, 0, 81, 0
2, 50904, Note_on_c, 0, 69, 0
2, 50904, Note_on_c, 0, 83, 0
2, 50906, Note_on_c, 0, 59, 79
2, 50908, Note_on_c, 0, 52, 69
2, 50987, Control_c, 0, 64, 127
2, 51436, Note_on_c, 0, 40, 79
2, 51686, Note_on_c, 0, 68, 0
2, 51687, Note_on_c, 0, 52, 0
2, 51688, Note_on_c, 0, 59, 0
2, 51688, Control_c, 0, 64, 0
2, 51688, Note_on_c, 0, 71, 0
2, 51689, Note_on_c, 0, 40, 0
2, 51694, Note_on_c, 0, 64, 0
2, 51701, Note_on_c, 0, 76, 0
2, 51970, Control_c, 0, 64, 127
2, 51973, Note_on_c, 0, 31, 79
2, 51974, Note_on_c, 0, 43, 85
2, 51977, Note_on_c, 0, 74, 94
2, 52115, Note_on_c, 0, 78, 100
2, 52135, Note_on_c, 0, 62, 73
2, 52135, Note_on_c, 0, 59, 82
2, 52234, Note_on_c, 0, 79, 94
2, 52241, Note_on_c, 0, 55, 78
2, 52362, Note_on_c, 0, 59, 0
2, 52362, Note_on_c, 0, 62, 0
2, 52373, Note_on_c, 0, 62, 73
2, 52373, Note_on_c, 0, 86, 102
2, 52373, Note_on_c, 0, 59, 79
2, 52503, Note_on_c, 0, 50, 81
2, 52646, Note_on_c, 0, 59, 0
2, 52646, Note_on_c, 0, 62, 0
2, 52652, Note_on_c, 0, 84, 100
2, 52656, Note_on_c, 0, 62, 78
2, 52657, Note_on_c, 0, 59, 74
2, 52769, Note_on_c, 0, 55, 0
2, 52776, Note_on_c, 0, 55, 71
2, 52892, Note_on_c, 0, 59, 0
2, 52892, Note_on_c, 0, 62, 0
2, 52896, Note_on_c, 0, 59, 74
2, 52902, Note_on_c, 0, 83, 91
2, 52903, Note_on_c, 0, 62, 74
2, 52953, Note_on_c, 0, 31, 0
2, 52956, Note_on_c, 0, 78, 0
2, 52957, Control_c, 0, 64, 0
2, 52957, Note_on_c, 0, 74, 0
2, 52957, Note_on_c, 0, 55, 0
2, 52957, Note_on_c, 0, 62, 0
2, 52957, Note_on_c, 0, 50, 0
2, 52958, Note_on_c, 0, 84, 0
2, 52958, Note_on_c, 0, 79, 0
2, 52958, Note_on_c, 0, 86, 0
2, 52958, Note_on_c, 0, 43, 0
2, 52958, Note_on_c, 0, 59, 0
2, 52958, Note_on_c, 0, 83, 0
2, 53030, Control_c, 0, 64, 127
2, 53032, Note_on_c, 0, 81, 103
2, 53033, Note_on_c, 0, 38, 74
2, 53039, Note_on_c, 0, 74, 88
2, 53052, Note_on_c, 0, 78, 70
2, 53162, Note_on_c, 0, 62, 73
2, 53164, Note_on_c, 0, 57, 76
2, 53165, Note_on_c, 0, 79, 84
2, 53295, Note_on_c, 0, 86, 99
2, 53295, Note_on_c, 0, 54, 74
2, 53422, Note_on_c, 0, 57, 0
2, 53422, Note_on_c, 0, 62, 0
2, 53422, Note_on_c, 0, 81, 0
2, 53432, Note_on_c, 0, 62, 85
2, 53433, Note_on_c, 0, 81, 101
2, 53433, Note_on_c, 0, 57, 79
2, 53437, Note_on_c, 0, 74, 0
2, 53437, Note_on_c, 0, 78, 0
2, 53443, Note_on_c, 0, 74, 82
2, 53443, Note_on_c, 0, 78, 96
2, 53572, Note_on_c, 0, 50, 74
2, 53652, Note_on_c, 0, 50, 0
2, 53660, Note_on_c, 0, 54, 0
2, 53660, Note_on_c, 0, 62, 0
2, 53663, Note_on_c, 0, 50, 69
2, 53665, Note_on_c, 0, 62, 71
2, 53670, Note_on_c, 0, 54, 58
2, 53706, Note_on_c, 0, 57, 0
2, 53710, Note_on_c, 0, 57, 80
2, 53836, Note_on_c, 0, 54, 0
2, 53844, Note_on_c, 0, 54, 70
2, 53944, Note_on_c, 0, 50, 0
2, 53944, Note_on_c, 0, 57, 0
2, 53944, Note_on_c, 0, 62, 0
2, 53948, Note_on_c, 0, 57, 83
2, 53948, Note_on_c, 0, 62, 69
2, 53950, Note_on_c, 0, 50, 69
2, 53952, Note_on_c, 0, 81, 0
2, 53955, Note_on_c, 0, 81, 96
2, 54022, Control_c, 0, 64, 0
2, 54024, Note_on_c, 0, 54, 0
2, 54024, Note_on_c, 0, 57, 0
2, 54025, Note_on_c, 0, 62, 0
2, 54025, Note_on_c, 0, 74, 0
2, 54025, Note_on_c, 0, 81, 0
2, 54025, Note_on_c, 0, 50, 0
2, 54025, Note_on_c, 0, 79, 0
2, 54026, Note_on_c, 0, 86, 0
2, 54036, Note_on_c, 0, 38, 0
2, 54044, Note_on_c, 0, 78, 0
2, 54086, Note_on_c, 0, 84, 103
2, 54092, Note_on_c, 0, 35, 82
2, 54094, Note_on_c, 0, 75, 90
2, 54094, Note_on_c, 0, 78, 98
2, 54097, Control_c, 0, 64, 127
2, 54101, Note_on_c, 0, 83, 71
2, 54224, Note_on_c, 0, 59, 74
2, 54231, Note_on_c, 0, 54, 67
2, 54359, Note_on_c, 0, 83, 0
2, 54363, Note_on_c, 0, 83, 96
2, 54365, Note_on_c, 0, 51, 73
2, 54497, Note_on_c, 0, 54, 0
2, 54497, Note_on_c, 0, 59, 0
2, 54501, Note_on_c, 0, 59, 70
2, 54502, Note_on_c, 0, 54, 73
2, 54617, Note_on_c, 0, 81, 100
2, 54620, Note_on_c, 0, 78, 0
2, 54627, Note_on_c, 0, 75, 0
2, 54630, Note_on_c, 0, 78, 99
2, 54633, Note_on_c, 0, 75, 84
2, 54635, Note_on_c, 0, 59, 0
2, 54640, Note_on_c, 0, 59, 78
2, 54642, Note_on_c, 0, 47, 65
2, 54766, Note_on_c, 0, 51, 0
2, 54766, Note_on_c, 0, 54, 0
2, 54766, Note_on_c, 0, 59, 0
2, 54771, Note_on_c, 0, 54, 63
2, 54772, Note_on_c, 0, 59, 75
2, 54775, Note_on_c, 0, 51, 54
2, 54888, Note_on_c, 0, 51, 0
2, 54888, Note_on_c, 0, 54, 0
2, 54888, Note_on_c, 0, 83, 0
2, 54896, Note_on_c, 0, 83, 94
2, 54899, Note_on_c, 0, 51, 80
2, 54899, Note_on_c, 0, 54, 69
2, 55004, Note_on_c, 0, 54, 0
2, 55004, Note_on_c, 0, 59, 0
2, 55010, Note_on_c, 0, 54, 69
2, 55013, Note_on_c, 0, 59, 84
2, 55094, Note_on_c, 0, 81, 0
2, 55094, Note_on_c, 0, 51, 0
2, 55094, Note_on_c, 0, 75, 0
2, 55094, Note_on_c, 0, 47, 0
2, 55094, Control_c, 0, 64, 0
2, 55095, Note_on_c, 0, 54, 0
2, 55095, Note_on_c, 0, 84, 0
2, 55095, Note_on_c, 0, 78, 0
2, 55096, Note_on_c, 0, 59, 0
2, 55096, Note_on_c, 0, 83, 0
2, 55104, Note_on_c, 0, 35, 0
2, 55154, Note_on_c, 0, 81, 102
2, 55157, Note_on_c, 0, 40, 73
2, 55158, Note_on_c, 0, 76, 92
2, 55188, Control_c, 0, 64, 127
2, 55196, Note_on_c, 0, 81, 0
2, 55200, Note_on_c, 0, 81, 79
2, 55284, Note_on_c, 0, 71, 81
2, 55284, Note_on_c, 0, 79, 91
2, 55286, Note_on_c, 0, 59, 85
2, 55289, Note_on_c, 0, 55, 78
2, 55411, Note_on_c, 0, 59, 0
2, 55411, Note_on_c, 0, 79, 0
2, 55418, Note_on_c, 0, 52, 73
2, 55418, Note_on_c, 0, 79, 93
2, 55421, Note_on_c, 0, 59, 70
2, 55495, Note_on_c, 0, 55, 0
2, 55505, Note_on_c, 0, 55, 73
2, 55526, Note_on_c, 0, 59, 0
2, 55534, Note_on_c, 0, 79, 0
2, 55534, Note_on_c, 0, 59, 55
2, 55538, Note_on_c, 0, 79, 90
2, 55615, Note_on_c, 0, 81, 0
2, 55615, Note_on_c, 0, 71, 0
2, 55615, Note_on_c, 0, 52, 0
2, 55615, Note_on_c, 0, 79, 0
2, 55615, Note_on_c, 0, 59, 0
2, 55616, Control_c, 0, 64, 0
2, 55616, Note_on_c, 0, 76, 0
2, 55626, Note_on_c, 0, 40, 0
2, 55633, Note_on_c, 0, 55, 0
2, 55671, Note_on_c, 0, 81, 98
2, 55675, Note_on_c, 0, 38, 82
2, 55676, Note_on_c, 0, 78, 98
2, 55676, Note_on_c, 0, 50, 88
2, 55676, Note_on_c, 0, 74, 89
2, 55726, Control_c, 0, 64, 127
2, 55864, Note_on_c, 0, 74, 0
2, 55864, Note_on_c, 0, 78, 0
2, 55867, Note_on_c, 0, 57, 88
2, 55872, Note_on_c, 0, 50, 0
2, 55874, Note_on_c, 0, 54, 81
2, 55874, Note_on_c, 0, 83, 94
2, 55875, Note_on_c, 0, 74, 84
2, 55875, Note_on_c, 0, 78, 95
2, 55876, Note_on_c, 0, 50, 72
2, 56064, Control_c, 0, 64, 0
2, 56064, Note_on_c, 0, 50, 0
2, 56065, Note_on_c, 0, 81, 0
2, 56065, Note_on_c, 0, 57, 0
2, 56065, Note_on_c, 0, 78, 0
2, 56065, Note_on_c, 0, 38, 0
2, 56066, Note_on_c, 0, 54, 0
2, 56083, Note_on_c, 0, 86, 105
2, 56087, Note_on_c, 0, 74, 0
2, 56087, Note_on_c, 0, 83, 0
2, 56092, Note_on_c, 0, 36, 75
2, 56093, Note_on_c, 0, 74, 91
2, 56096, Note_on_c, 0, 79, 97
2, 56096, Note_on_c, 0, 83, 92
2, 56101, Note_on_c, 0, 48, 75
2, 56134, Note_on_c, 0, 36, 0
2, 56148, Control_c, 0, 64, 127
2, 56163, Note_on_c, 0, 48, 0
2, 56358, Note_on_c, 0, 55, 73
2, 56359, Note_on_c, 0, 60, 67
2, 56478, Note_on_c, 0, 79, 0
2, 56481, Note_on_c, 0, 88, 100
2, 56485, Note_on_c, 0, 79, 90
2, 56488, Note_on_c, 0, 84, 85
2, 56488, Note_on_c, 0, 76, 92
2, 56490, Note_on_c, 0, 52, 73
2, 56632, Note_on_c, 0, 55, 0
2, 56632, Note_on_c, 0, 60, 0
2, 56636, Note_on_c, 0, 60, 76
2, 56636, Note_on_c, 0, 55, 61
2, 56762, Note_on_c, 0, 48, 67
2, 56878, Note_on_c, 0, 79, 0
2, 56883, Note_on_c, 0, 79, 95
2, 56893, Note_on_c, 0, 55, 0
2, 56893, Note_on_c, 0, 60, 0
2, 56897, Note_on_c, 0, 55, 84
2, 56901, Note_on_c, 0, 60, 78
2, 57016, Note_on_c, 0, 52, 0
2, 57016, Note_on_c, 0, 60, 0
2, 57016, Note_on_c, 0, 79, 0
2, 57020, Note_on_c, 0, 52, 74
2, 57022, Note_on_c, 0, 60, 60
2, 57025, Note_on_c, 0, 79, 88
2, 57035, Note_on_c, 0, 71, 70
2, 57039, Note_on_c, 0, 71, 0
2, 57108, Note_on_c, 0, 55, 0
2, 57116, Note_on_c, 0, 60, 0
2, 57118, Note_on_c, 0, 55, 76
2, 57123, Note_on_c, 0, 60, 71
2, 57137, Note_on_c, 0, 52, 0
2, 57146, Note_on_c, 0, 79, 0
2, 57151, Note_on_c, 0, 79, 99
2, 57219, Note_on_c, 0, 74, 0
2, 57220, Note_on_c, 0, 83, 0
2, 57220, Note_on_c, 0, 88, 0
2, 57220, Note_on_c, 0, 84, 0
2, 57220, Note_on_c, 0, 48, 0
2, 57220, Note_on_c, 0, 86, 0
2, 57221, Note_on_c, 0, 79, 0
2, 57221, Note_on_c, 0, 76, 0
2, 57222, Control_c, 0, 64, 0
2, 57239, Note_on_c, 0, 55, 0
2, 57239, Note_on_c, 0, 60, 0
2, 57271, Note_on_c, 0, 38, 77
2, 57275, Note_on_c, 0, 81, 101
2, 57281, Note_on_c, 0, 78, 97
2, 57282, Note_on_c, 0, 74, 85
2, 57315, Control_c, 0, 64, 127
2, 57406, Note_on_c, 0, 62, 75
2, 57407, Note_on_c, 0, 57, 76
2, 57550, Note_on_c, 0, 54, 74
2, 57551, Note_on_c, 0, 79, 94
2, 57676, Note_on_c, 0, 81, 0
2, 57684, Note_on_c, 0, 57, 0
2, 57684, Note_on_c, 0, 62, 0
2, 57684, Note_on_c, 0, 74, 0
2, 57684, Note_on_c, 0, 78, 0
2, 57687, Note_on_c, 0, 81, 100
2, 57690, Note_on_c, 0, 62, 82
2, 57693, Note_on_c, 0, 57, 82
2, 57693, Note_on_c, 0, 78, 94
2, 57694, Note_on_c, 0, 74, 81
2, 57828, Note_on_c, 0, 50, 72
2, 57953, Note_on_c, 0, 57, 0
2, 57953, Note_on_c, 0, 62, 0
2, 57956, Note_on_c, 0, 86, 96
2, 57957, Note_on_c, 0, 62, 81
2, 57960, Note_on_c, 0, 57, 81
2, 58076, Note_on_c, 0, 54, 0
2, 58085, Note_on_c, 0, 54, 83
2, 58183, Note_on_c, 0, 57, 0
2, 58191, Note_on_c, 0, 62, 0
2, 58191, Note_on_c, 0, 79, 0
2, 58194, Note_on_c, 0, 57, 75
2, 58197, Note_on_c, 0, 83, 98
2, 58198, Note_on_c, 0, 62, 76
2, 58199, Note_on_c, 0, 74, 0
2, 58202, Note_on_c, 0, 79, 89
2, 58203, Note_on_c, 0, 74, 90
2, 58280, Note_on_c, 0, 54, 0
2, 58280, Note_on_c, 0, 62, 0
2, 58281, Note_on_c, 0, 57, 0
2, 58281, Note_on_c, 0, 50, 0
2, 58281, Note_on_c, 0, 81, 0
2, 58281, Note_on_c, 0, 78, 0
2, 58281, Note_on_c, 0, 86, 0
2, 58281, Note_on_c, 0, 38, 0
2, 58282, Control_c, 0, 64, 0
2, 58332, Note_on_c, 0, 43, 82
2, 58360, Control_c, 0, 64, 127
2, 58467, Note_on_c, 0, 83, 0
2, 58479, Note_on_c, 0, 83, 90
2, 58479, Note_on_c, 0, 62, 73
2, 58480, Note_on_c, 0, 59, 77
2, 58608, Note_on_c, 0, 55, 82
2, 58608, Note_on_c, 0, 81, 94
2, 58728, Note_on_c, 0, 59, 0
2, 58728, Note_on_c, 0, 62, 0
2, 58728, Note_on_c, 0, 83, 0
2, 58734, Note_on_c, 0, 62, 78
2, 58736, Note_on_c, 0, 55, 0
2, 58736, Note_on_c, 0, 79, 0
2, 58739, Note_on_c, 0, 59, 82
2, 58740, Note_on_c, 0, 83, 100
2, 58741, Note_on_c, 0, 55, 69
2, 58746, Note_on_c, 0, 79, 90
2, 58876, Note_on_c, 0, 50, 82
2, 58997, Note_on_c, 0, 59, 0
2, 58997, Note_on_c, 0, 62, 0
2, 59004, Note_on_c, 0, 62, 78
2, 59007, Note_on_c, 0, 59, 74
2, 59120, Note_on_c, 0, 55, 0
2, 59126, Note_on_c, 0, 55, 78
2, 59205, Note_on_c, 0, 59, 0
2, 59215, Note_on_c, 0, 59, 83
2, 59228, Note_on_c, 0, 62, 0
2, 59232, Note_on_c, 0, 62, 56
2, 59243, Note_on_c, 0, 83, 0
2, 59247, Note_on_c, 0, 83, 92
2, 59320, Note_on_c, 0, 74, 0
2, 59329, Note_on_c, 0, 81, 0
2, 59330, Note_on_c, 0, 62, 0
2, 59330, Note_on_c, 0, 50, 0
2, 59331, Control_c, 0, 64, 0
2, 59331, Note_on_c, 0, 83, 0
2, 59331, Note_on_c, 0, 55, 0
2, 59331, Note_on_c, 0, 79, 0
2, 59331, Note_on_c, 0, 59, 0
2, 59343, Note_on_c, 0, 43, 0
2, 59372, Note_on_c, 0, 87, 104
2, 59376, Note_on_c, 0, 78, 105
2, 59380, Note_on_c, 0, 59, 94
2, 59385, Note_on_c, 0, 54, 84
2, 59388, Note_on_c, 0, 47, 77
2, 59389, Control_c, 0, 64, 127
2, 59392, Note_on_c, 0, 51, 80
2, 59504, Note_on_c, 0, 78, 0
2, 59504, Note_on_c, 0, 87, 0
2, 59509, Note_on_c, 0, 87, 105
2, 59514, Note_on_c, 0, 78, 103
2, 59604, Control_c, 0, 64, 0
2, 59607, Note_on_c, 0, 51, 0
2, 59608, Note_on_c, 0, 78, 0
2, 59608, Note_on_c, 0, 87, 0
2, 59608, Note_on_c, 0, 59, 0
2, 59608, Note_on_c, 0, 54, 0
2, 59619, Note_on_c, 0, 47, 0
2, 59625, Note_on_c, 0, 47, 82
2, 59631, Note_on_c, 0, 35, 73
2, 59636, Note_on_c, 0, 83, 93
2, 59663, Note_on_c, 0, 47, 0
2, 59665, Note_on_c, 0, 35, 0
2, 59698, Note_on_c, 0, 83, 0
2, 59742, Control_c, 0, 64, 127
2, 59766, Note_on_c, 0, 78, 101
2, 59768, Note_on_c, 0, 47, 91
2, 59769, Note_on_c, 0, 81, 94
2, 59769, Note_on_c, 0, 35, 84
2, 60033, Note_on_c, 0, 83, 95
2, 60034, Note_on_c, 0, 78, 0
2, 60035, Note_on_c, 0, 71, 97
2, 60038, Note_on_c, 0, 78, 94
2, 60038, Note_on_c, 0, 75, 84
2, 60167, Note_on_c, 0, 59, 87
2, 60169, Note_on_c, 0, 51, 81
2, 60169, Note_on_c, 0, 54, 78
2, 60380, Note_on_c, 0, 35, 0
2, 60387, Note_on_c, 0, 47, 0
2, 60388, Note_on_c, 0, 71, 0
2, 60388, Note_on_c, 0, 51, 0
2, 60389, Control_c, 0, 64, 0
2, 60389, Note_on_c, 0, 54, 0
2, 60389, Note_on_c, 0, 81, 0
2, 60389, Note_on_c, 0, 75, 0
2, 60389, Note_on_c, 0, 78, 0
2, 60390, Note_on_c, 0, 59, 0
2, 60390, Note_on_c, 0, 83, 0
2, 60429, Note_on_c, 0, 86, 99
2, 60431, Note_on_c, 0, 74, 88
2, 60431, Note_on_c, 0, 43, 85
2, 60472, Control_c, 0, 64, 127
2, 60541, Note_on_c, 0, 43, 0
2, 60567, Note_on_c, 0, 90, 90
2, 60569, Note_on_c, 0, 78, 84
2, 60573, Note_on_c, 0, 62, 77
2, 60575, Note_on_c, 0, 59, 78
2, 60693, Note_on_c, 0, 55, 77
2, 60696, Note_on_c, 0, 91, 93
2, 60697, Note_on_c, 0, 79, 89
2, 60697, Note_on_c, 0, 43, 75
2, 60802, Note_on_c, 0, 62, 0
2, 60809, Note_on_c, 0, 62, 82
2, 60810, Note_on_c, 0, 59, 0
2, 60820, Note_on_c, 0, 59, 74
2, 60833, Note_on_c, 0, 86, 0
2, 60836, Note_on_c, 0, 98, 98
2, 60837, Note_on_c, 0, 86, 98
2, 60960, Note_on_c, 0, 50, 75
2, 60979, Note_on_c, 0, 74, 0
2, 61083, Note_on_c, 0, 96, 98
2, 61086, Note_on_c, 0, 84, 97
2, 61094, Note_on_c, 0, 59, 0
2, 61094, Note_on_c, 0, 62, 0
2, 61099, Note_on_c, 0, 62, 79
2, 61104, Note_on_c, 0, 59, 65
2, 61209, Note_on_c, 0, 55, 0
2, 61215, Note_on_c, 0, 55, 76
2, 61309, Note_on_c, 0, 59, 0
2, 61315, Note_on_c, 0, 59, 80
2, 61317, Note_on_c, 0, 62, 0
2, 61323, Note_on_c, 0, 62, 80
2, 61343, Note_on_c, 0, 95, 94
2, 61351, Note_on_c, 0, 83, 91
2, 61416, Note_on_c, 0, 78, 0
2, 61417, Note_on_c, 0, 62, 0
2, 61418, Note_on_c, 0, 50, 0
2, 61418, Note_on_c, 0, 86, 0
2, 61418, Note_on_c, 0, 55, 0
2, 61418, Note_on_c, 0, 59, 0
2, 61418, Note_on_c, 0, 90, 0
2, 61419, Note_on_c, 0, 79, 0
2, 61419, Note_on_c, 0, 91, 0
2, 61419, Note_on_c, 0, 95, 0
2, 61419, Note_on_c, 0, 98, 0
2, 61420, Note_on_c, 0, 83, 0
2, 61420, Note_on_c, 0, 43, 0
2, 61420, Note_on_c, 0, 84, 0
2, 61420, Note_on_c, 0, 96, 0
2, 61420, Control_c, 0, 64, 0
2, 61448, Note_on_c, 0, 42, 87
2, 61467, Note_on_c, 0, 93, 101
2, 61468, Note_on_c, 0, 81, 99
2, 61493, Control_c, 0, 64, 127
2, 61590, Note_on_c, 0, 62, 77
2, 61595, Note_on_c, 0, 91, 97
2, 61597, Note_on_c, 0, 79, 89
2, 61600, Note_on_c, 0, 57, 71
2, 61655, Note_on_c, 0, 42, 0
2, 61724, Note_on_c, 0, 54, 77
2, 61725, Note_on_c, 0, 86, 100
2, 61726, Note_on_c, 0, 98, 97
2, 61839, Note_on_c, 0, 62, 0
2, 61847, Note_on_c, 0, 57, 0
2, 61847, Note_on_c, 0, 93, 0
2, 61849, Note_on_c, 0, 62, 74
2, 61854, Note_on_c, 0, 93, 107
2, 61854, Note_on_c, 0, 57, 77
2, 61854, Note_on_c, 0, 81, 0
2, 61858, Note_on_c, 0, 81, 98
2, 61993, Note_on_c, 0, 50, 84
2, 62115, Note_on_c, 0, 57, 0
2, 62123, Note_on_c, 0, 62, 0
2, 62126, Note_on_c, 0, 57, 81
2, 62127, Note_on_c, 0, 62, 71
2, 62129, Note_on_c, 0, 69, 71
2, 62138, Note_on_c, 0, 69, 0
2, 62238, Note_on_c, 0, 54, 0
2, 62248, Note_on_c, 0, 54, 81
2, 62353, Note_on_c, 0, 57, 0
2, 62353, Note_on_c, 0, 62, 0
2, 62353, Note_on_c, 0, 81, 0
2, 62353, Note_on_c, 0, 93, 0
2, 62362, Note_on_c, 0, 57, 82
2, 62363, Note_on_c, 0, 93, 97
2, 62365, Note_on_c, 0, 62, 70
2, 62365, Note_on_c, 0, 81, 91
2, 62435, Note_on_c, 0, 79, 0
2, 62435, Note_on_c, 0, 91, 0
2, 62436, Note_on_c, 0, 57, 0
2, 62436, Note_on_c, 0, 98, 0
2, 62436, Note_on_c, 0, 54, 0
2, 62436, Note_on_c, 0, 93, 0
2, 62436, Note_on_c, 0, 81, 0
2, 62437, Note_on_c, 0, 86, 0
2, 62438, Control_c, 0, 64, 0
2, 62453, Note_on_c, 0, 50, 0
2, 62453, Note_on_c, 0, 62, 0
2, 62499, Note_on_c, 0, 89, 98
2, 62502, Note_on_c, 0, 41, 79
2, 62503, Note_on_c, 0, 86, 92
2, 62504, Note_on_c, 0, 96, 104
2, 62509, Note_on_c, 0, 84, 97
2, 62522, Control_c, 0, 64, 127
2, 62619, Note_on_c, 0, 57, 79
2, 62624, Note_on_c, 0, 62, 67
2, 62760, Note_on_c, 0, 86, 0
2, 62760, Note_on_c, 0, 89, 0
2, 62764, Note_on_c, 0, 95, 103
2, 62766, Note_on_c, 0, 89, 92
2, 62770, Note_on_c, 0, 86, 91
2, 62772, Note_on_c, 0, 83, 88
2, 62784, Note_on_c, 0, 53, 72
2, 62876, Note_on_c, 0, 57, 0
2, 62876, Note_on_c, 0, 62, 0
2, 62883, Note_on_c, 0, 57, 65
2, 62885, Note_on_c, 0, 62, 69
2, 63022, Note_on_c, 0, 86, 0
2, 63022, Note_on_c, 0, 89, 0
2, 63026, Note_on_c, 0, 89, 85
2, 63026, Note_on_c, 0, 93, 98
2, 63027, Note_on_c, 0, 81, 94
2, 63029, Note_on_c, 0, 50, 81
2, 63032, Note_on_c, 0, 86, 95
2, 63144, Note_on_c, 0, 57, 0
2, 63144, Note_on_c, 0, 62, 0
2, 63154, Note_on_c, 0, 57, 74
2, 63155, Note_on_c, 0, 62, 77
2, 63283, Note_on_c, 0, 86, 0
2, 63283, Note_on_c, 0, 95, 0
2, 63289, Note_on_c, 0, 95, 105
2, 63290, Note_on_c, 0, 83, 0
2, 63290, Note_on_c, 0, 89, 0
2, 63292, Note_on_c, 0, 65, 75
2, 63293, Note_on_c, 0, 86, 96
2, 63295, Note_on_c, 0, 83, 92
2, 63300, Note_on_c, 0, 89, 82
2, 63309, Note_on_c, 0, 92, 70
2, 63367, Note_on_c, 0, 57, 0
2, 63375, Note_on_c, 0, 57, 87
2, 63496, Control_c, 0, 64, 0
2, 63496, Note_on_c, 0, 81, 0
2, 63496, Note_on_c, 0, 53, 0
2, 63496, Note_on_c, 0, 57, 0
2, 63496, Note_on_c, 0, 89, 0
2, 63496, Note_on_c, 0, 93, 0
2, 63496, Note_on_c, 0, 95, 0
2, 63497, Note_on_c, 0, 62, 0
2, 63497, Note_on_c, 0, 83, 0
2, 63497, Note_on_c, 0, 65, 0
2, 63497, Note_on_c, 0, 84, 0
2, 63497, Note_on_c, 0, 96, 0
2, 63498, Note_on_c, 0, 50, 0
2, 63498, Note_on_c, 0, 41, 0
2, 63521, Note_on_c, 0, 86, 0
2, 63521, Note_on_c, 0, 92, 0
2, 63545, Note_on_c, 0, 93, 105
2, 63547, Note_on_c, 0, 81, 99
2, 63548, Note_on_c, 0, 88, 88
2, 63549, Note_on_c, 0, 52, 90
2, 63555, Note_on_c, 0, 40, 78
2, 63582, Control_c, 0, 64, 127
2, 63797, Note_on_c, 0, 88, 0
2, 63808, Note_on_c, 0, 88, 78
2, 63810, Note_on_c, 0, 80, 90
2, 63816, Note_on_c, 0, 92, 99
2, 63818, Note_on_c, 0, 64, 88
2, 63825, Note_on_c, 0, 59, 77
2, 63832, Note_on_c, 0, 56, 74
2, 63943, Note_on_c, 0, 56, 0
2, 63943, Note_on_c, 0, 64, 0
2, 63943, Note_on_c, 0, 81, 0
2, 63943, Note_on_c, 0, 93, 0
2, 63947, Note_on_c, 0, 93, 103
2, 63949, Note_on_c, 0, 81, 95
2, 63951, Note_on_c, 0, 88, 0
2, 63951, Note_on_c, 0, 64, 90
2, 63954, Note_on_c, 0, 56, 85
2, 63955, Note_on_c, 0, 88, 79
2, 64195, Note_on_c, 0, 95, 103
2, 64197, Note_on_c, 0, 88, 0
2, 64201, Note_on_c, 0, 83, 90
2, 64208, Note_on_c, 0, 88, 80
2, 64312, Note_on_c, 0, 52, 0
2, 64323, Note_on_c, 0, 52, 75
2, 64563, Note_on_c, 0, 93, 0
2, 64564, Note_on_c, 0, 95, 0
2, 64564, Note_on_c, 0, 52, 0
2, 64564, Note_on_c, 0, 81, 0
2, 64564, Control_c, 0, 64, 0
2, 64565, Note_on_c, 0, 56, 0
2, 64565, Note_on_c, 0, 80, 0
2, 64565, Note_on_c, 0, 40, 0
2, 64566, Note_on_c, 0, 59, 0
2, 64566, Note_on_c, 0, 64, 0
2, 64581, Note_on_c, 0, 88, 0
2, 64581, Note_on_c, 0, 92, 0
2, 64588, Note_on_c, 0, 83, 0
2, 64593, Note_on_c, 0, 83, 83
2, 64597, Note_on_c, 0, 48, 63
2, 64600, Note_on_c, 0, 76, 65
2, 64609, Note_on_c, 0, 79, 54
2, 64665, Control_c, 0, 64, 127
2, 64717, Note_on_c, 0, 81, 79
2, 64733, Note_on_c, 0, 55, 68
2, 64845, Note_on_c, 0, 67, 82
2, 64849, Note_on_c, 0, 79, 0
2, 64855, Note_on_c, 0, 79, 80
2, 64985, Note_on_c, 0, 84, 90
2, 65003, Note_on_c, 0, 76, 0
2, 65003, Note_on_c, 0, 79, 0
2, 65012, Note_on_c, 0, 79, 69
2, 65013, Note_on_c, 0, 76, 63
2, 65084, Control_c, 0, 64, 0
2, 65085, Note_on_c, 0, 48, 0
2, 65085, Note_on_c, 0, 55, 0
2, 65085, Note_on_c, 0, 83, 0
2, 65086, Note_on_c, 0, 67, 0
2, 65115, Note_on_c, 0, 50, 74
2, 65157, Control_c, 0, 64, 127
2, 65245, Note_on_c, 0, 83, 83
2, 65245, Note_on_c, 0, 57, 71
2, 65364, Note_on_c, 0, 69, 76
2, 65364, Note_on_c, 0, 84, 0
2, 65370, Note_on_c, 0, 84, 86
2, 65502, Note_on_c, 0, 81, 0
2, 65506, Note_on_c, 0, 86, 96
2, 65513, Note_on_c, 0, 81, 73
2, 65514, Note_on_c, 0, 78, 80
2, 65604, Control_c, 0, 64, 0
2, 65605, Note_on_c, 0, 57, 0
2, 65605, Note_on_c, 0, 83, 0
2, 65606, Note_on_c, 0, 84, 0
2, 65606, Note_on_c, 0, 69, 0
2, 65610, Note_on_c, 0, 50, 0
2, 65617, Note_on_c, 0, 76, 0
2, 65617, Note_on_c, 0, 79, 0
2, 65636, Note_on_c, 0, 47, 66
2, 65679, Control_c, 0, 64, 127
2, 65740, Note_on_c, 0, 81, 0
2, 65745, Note_on_c, 0, 81, 77
2, 65757, Note_on_c, 0, 54, 65
2, 65886, Note_on_c, 0, 81, 0
2, 65889, Note_on_c, 0, 66, 84
2, 65896, Note_on_c, 0, 81, 87
2, 66028, Note_on_c, 0, 84, 84
2, 66117, Note_on_c, 0, 54, 0
2, 66118, Note_on_c, 0, 81, 0
2, 66119, Note_on_c, 0, 66, 0
2, 66119, Control_c, 0, 64, 0
2, 66120, Note_on_c, 0, 47, 0
2, 66132, Note_on_c, 0, 78, 0
2, 66144, Note_on_c, 0, 52, 74
2, 66145, Note_on_c, 0, 79, 79
2, 66152, Note_on_c, 0, 83, 84
2, 66163, Note_on_c, 0, 86, 0
2, 66178, Control_c, 0, 64, 127
2, 66286, Note_on_c, 0, 81, 84
2, 66287, Note_on_c, 0, 59, 66
2, 66408, Note_on_c, 0, 79, 0
2, 66412, Note_on_c, 0, 67, 76
2, 66413, Note_on_c, 0, 79, 89
2, 66642, Note_on_c, 0, 81, 0
2, 66643, Note_on_c, 0, 84, 0
2, 66643, Control_c, 0, 64, 0
2, 66643, Note_on_c, 0, 52, 0
2, 66643, Note_on_c, 0, 59, 0
2, 66643, Note_on_c, 0, 83, 0
2, 66643, Note_on_c, 0, 79, 0
2, 66673, Note_on_c, 0, 72, 69
2, 66674, Note_on_c, 0, 95, 86
2, 66677, Note_on_c, 0, 67, 0
2, 66682, Note_on_c, 0, 67, 72
2, 66684, Note_on_c, 0, 83, 77
2, 66689, Note_on_c, 0, 64, 69
2, 66713, Note_on_c, 0, 72, 0
2, 66716, Control_c, 0, 64, 127
2, 66818, Note_on_c, 0, 93, 83
2, 66821, Note_on_c, 0, 81, 76
2, 66928, Note_on_c, 0, 48, 67
2, 66942, Note_on_c, 0, 91, 83
2, 66944, Note_on_c, 0, 79, 82
2, 67075, Note_on_c, 0, 96, 88
2, 67076, Note_on_c, 0, 84, 89
2, 67161, Note_on_c, 0, 67, 0
2, 67165, Control_c, 0, 64, 0
2, 67165, Note_on_c, 0, 64, 0
2, 67165, Note_on_c, 0, 81, 0
2, 67166, Note_on_c, 0, 79, 0
2, 67166, Note_on_c, 0, 93, 0
2, 67166, Note_on_c, 0, 91, 0
2, 67168, Note_on_c, 0, 84, 0
2, 67176, Note_on_c, 0, 48, 0
2, 67176, Note_on_c, 0, 83, 0
2, 67184, Note_on_c, 0, 95, 0
2, 67197, Note_on_c, 0, 74, 78
2, 67200, Note_on_c, 0, 96, 0
2, 67203, Note_on_c, 0, 69, 70
2, 67204, Note_on_c, 0, 66, 76
2, 67207, Control_c, 0, 64, 127
2, 67333, Note_on_c, 0, 95, 90
2, 67338, Note_on_c, 0, 83, 81
2, 67454, Note_on_c, 0, 50, 63
2, 67460, Note_on_c, 0, 96, 87
2, 67463, Note_on_c, 0, 84, 83
2, 67586, Note_on_c, 0, 99, 84
2, 67592, Note_on_c, 0, 87, 82
2, 67668, Note_on_c, 0, 50, 0
2, 67672, Note_on_c, 0, 69, 0
2, 67673, Note_on_c, 0, 95, 0
2, 67673, Note_on_c, 0, 83, 0
2, 67673, Note_on_c, 0, 84, 0
2, 67673, Note_on_c, 0, 96, 0
2, 67674, Note_on_c, 0, 74, 0
2, 67676, Control_c, 0, 64, 0
2, 67683, Note_on_c, 0, 66, 0
2, 67722, Control_c, 0, 64, 127
2, 67724, Note_on_c, 0, 71, 83
2, 67725, Note_on_c, 0, 63, 69
2, 67727, Note_on_c, 0, 66, 69
2, 67842, Note_on_c, 0, 93, 88
2, 67847, Note_on_c, 0, 81, 80
2, 67968, Note_on_c, 0, 81, 0
2, 67968, Note_on_c, 0, 93, 0
2, 67974, Note_on_c, 0, 93, 81
2, 67975, Note_on_c, 0, 51, 63
2, 67979, Note_on_c, 0, 81, 75
2, 68103, Note_on_c, 0, 91, 86
2, 68107, Note_on_c, 0, 79, 79
2, 68190, Note_on_c, 0, 93, 0
2, 68190, Note_on_c, 0, 81, 0
2, 68190, Note_on_c, 0, 99, 0
2, 68190, Note_on_c, 0, 71, 0
2, 68191, Control_c, 0, 64, 0
2, 68192, Note_on_c, 0, 79, 0
2, 68193, Note_on_c, 0, 66, 0
2, 68193, Note_on_c, 0, 63, 0
2, 68193, Note_on_c, 0, 91, 0
2, 68195, Note_on_c, 0, 51, 0
2, 68213, Note_on_c, 0, 87, 0
2, 68215, Note_on_c, 0, 67, 83
2, 68225, Note_on_c, 0, 64, 65
2, 68232, Note_on_c, 0, 90, 91
2, 68234, Note_on_c, 0, 78, 80
2, 68244, Control_c, 0, 64, 127
2, 68356, Note_on_c, 0, 91, 87
2, 68363, Note_on_c, 0, 79, 80
2, 68482, Note_on_c, 0, 91, 0
2, 68490, Note_on_c, 0, 79, 0
2, 68493, Note_on_c, 0, 91, 83
2, 68494, Note_on_c, 0, 79, 81
2, 68497, Note_on_c, 0, 52, 66
2, 68740, Note_on_c, 0, 52, 0
2, 68740, Note_on_c, 0, 91, 0
2, 68740, Note_on_c, 0, 64, 0
2, 68741, Control_c, 0, 64, 0
2, 68741, Note_on_c, 0, 79, 0
2, 68741, Note_on_c, 0, 90, 0
2, 68742, Note_on_c, 0, 78, 0
2, 68751, Note_on_c, 0, 67, 0
2, 68754, Note_on_c, 0, 76, 87
2, 68762, Note_on_c, 0, 48, 71
2, 68762, Note_on_c, 0, 72, 70
2, 68805, Control_c, 0, 64, 127
2, 68905, Note_on_c, 0, 55, 64
2, 69028, Note_on_c, 0, 60, 76
2, 69153, Note_on_c, 0, 64, 72
2, 69155, Note_on_c, 0, 78, 95
2, 69281, Note_on_c, 0, 60, 0
2, 69287, Note_on_c, 0, 60, 82
2, 69411, Note_on_c, 0, 64, 0
2, 69421, Note_on_c, 0, 64, 69
2, 69530, Note_on_c, 0, 67, 80
2, 69541, Note_on_c, 0, 79, 96
2, 69657, Note_on_c, 0, 72, 0
2, 69668, Note_on_c, 0, 72, 80
2, 69743, Note_on_c, 0, 55, 0
2, 69743, Note_on_c, 0, 64, 0
2, 69743, Note_on_c, 0, 60, 0
2, 69743, Note_on_c, 0, 67, 0
2, 69744, Control_c, 0, 64, 0
2, 69744, Note_on_c, 0, 76, 0
2, 69744, Note_on_c, 0, 79, 0
2, 69745, Note_on_c, 0, 72, 0
2, 69745, Note_on_c, 0, 78, 0
2, 69749, Note_on_c, 0, 48, 0
2, 69792, Note_on_c, 0, 81, 95
2, 69796, Note_on_c, 0, 50, 81
2, 69798, Note_on_c, 0, 62, 85
2, 69800, Note_on_c, 0, 78, 92
2, 69804, Note_on_c, 0, 74, 83
2, 69826, Control_c, 0, 64, 127
2, 69857, Note_on_c, 0, 50, 0
2, 69901, Note_on_c, 0, 64, 81
2, 69968, Note_on_c, 0, 66, 57
2, 70007, Note_on_c, 0, 67, 81
2, 70065, Note_on_c, 0, 69, 75
2, 70107, Note_on_c, 0, 71, 87
2, 70167, Note_on_c, 0, 72, 76
2, 70210, Note_on_c, 0, 74, 0
2, 70219, Note_on_c, 0, 74, 89
2, 70348, Note_on_c, 0, 72, 0
2, 70351, Note_on_c, 0, 69, 0
2, 70352, Note_on_c, 0, 64, 0
2, 70352, Note_on_c, 0, 66, 0
2, 70352, Note_on_c, 0, 84, 97
2, 70352, Note_on_c, 0, 71, 0
2, 70352, Note_on_c, 0, 67, 0
2, 70352, Note_on_c, 0, 74, 0
2, 70353, Note_on_c, 0, 81, 0
2, 70353, Control_c, 0, 64, 0
2, 70353, Note_on_c, 0, 78, 0
2, 70353, Note_on_c, 0, 62, 0
2, 70354, Note_on_c, 0, 72, 94
2, 70392, Note_on_c, 0, 84, 0
2, 70402, Note_on_c, 0, 72, 0
2, 70475, Note_on_c, 0, 83, 95
2, 70475, Note_on_c, 0, 71, 95
2, 70505, Note_on_c, 0, 71, 0
2, 70509, Note_on_c, 0, 83, 0
2, 70595, Note_on_c, 0, 81, 96
2, 70596, Note_on_c, 0, 69, 92
2, 70633, Note_on_c, 0, 69, 0
2, 70636, Note_on_c, 0, 81, 0
2, 70737, Note_on_c, 0, 79, 98
2, 70740, Note_on_c, 0, 71, 90
2, 70744, Note_on_c, 0, 74, 75
2, 70746, Note_on_c, 0, 67, 83
2, 70778, Control_c, 0, 64, 127
2, 71002, Note_on_c, 0, 55, 74
2, 71132, Note_on_c, 0, 67, 0
2, 71142, Note_on_c, 0, 67, 77
2, 71143, Note_on_c, 0, 62, 73
2, 71216, Note_on_c, 0, 71, 0
2, 71220, Note_on_c, 0, 71, 80
2, 71288, Note_on_c, 0, 69, 71
2, 71292, Note_on_c, 0, 60, 52
2, 71339, Note_on_c, 0, 72, 73
2, 71408, Note_on_c, 0, 71, 0
2, 71411, Note_on_c, 0, 59, 76
2, 71418, Note_on_c, 0, 71, 83
2, 71477, Note_on_c, 0, 74, 0
2, 71482, Note_on_c, 0, 74, 76
2, 71527, Note_on_c, 0, 57, 76
2, 71539, Note_on_c, 0, 72, 0
2, 71550, Note_on_c, 0, 72, 84
2, 71612, Note_on_c, 0, 76, 81
2, 71639, Note_on_c, 0, 55, 0
2, 71650, Note_on_c, 0, 55, 74
2, 71669, Note_on_c, 0, 74, 0
2, 71674, Note_on_c, 0, 74, 80
2, 71734, Note_on_c, 0, 78, 84
2, 71773, Note_on_c, 0, 54, 72
2, 71800, Note_on_c, 0, 76, 0
2, 71809, Note_on_c, 0, 76, 83
2, 71831, Note_on_c, 0, 79, 0
2, 71836, Note_on_c, 0, 79, 71
2, 71907, Note_on_c, 0, 78, 0
2, 71911, Note_on_c, 0, 52, 76
2, 71916, Note_on_c, 0, 78, 88
2, 71966, Note_on_c, 0, 81, 86
2, 72020, Note_on_c, 0, 50, 79
2, 72038, Note_on_c, 0, 79, 0
2, 72046, Note_on_c, 0, 79, 86
2, 72118, Note_on_c, 0, 83, 77
2, 72149, Note_on_c, 0, 48, 69
2, 72168, Note_on_c, 0, 81, 0
2, 72175, Note_on_c, 0, 81, 95
2, 72241, Note_on_c, 0, 84, 86
2, 72285, Note_on_c, 0, 47, 71
2, 72299, Note_on_c, 0, 83, 0
2, 72306, Note_on_c, 0, 83, 89
2, 72376, Note_on_c, 0, 84, 0
2, 72384, Note_on_c, 0, 84, 80
2, 72420, Note_on_c, 0, 45, 73
2, 72443, Note_on_c, 0, 88, 89
2, 72523, Note_on_c, 0, 86, 89
2, 72543, Note_on_c, 0, 43, 75
2, 72582, Note_on_c, 0, 90, 89
2, 72618, Note_on_c, 0, 67, 0
2, 72618, Note_on_c, 0, 48, 0
2, 72618, Note_on_c, 0, 71, 0
2, 72619, Note_on_c, 0, 86, 0
2, 72619, Note_on_c, 0, 59, 0
2, 72619, Note_on_c, 0, 50, 0
2, 72619, Note_on_c, 0, 88, 0
2, 72619, Note_on_c, 0, 83, 0
2, 72619, Note_on_c, 0, 45, 0
2, 72619, Note_on_c, 0, 74, 0
2, 72619, Note_on_c, 0, 84, 0
2, 72619, Note_on_c, 0, 79, 0
2, 72619, Note_on_c, 0, 81, 0
2, 72619, Note_on_c, 0, 47, 0
2, 72619, Control_c, 0, 64, 0
2, 72619, Note_on_c, 0, 52, 0
2, 72619, Note_on_c, 0, 62, 0
2, 72619, Note_on_c, 0, 72, 0
2, 72619, Note_on_c, 0, 54, 0
2, 72619, Note_on_c, 0, 69, 0
2, 72619, Note_on_c, 0, 78, 0
2, 72619, Note_on_c, 0, 57, 0
2, 72620, Note_on_c, 0, 60, 0
2, 72629, Note_on_c, 0, 76, 0
2, 72637, Note_on_c, 0, 55, 0
2, 72652, Note_on_c, 0, 90, 0
2, 72684, Note_on_c, 0, 55, 79
2, 72686, Note_on_c, 0, 91, 92
2, 72698, Control_c, 0, 64, 127
2, 72761, Note_on_c, 0, 86, 88
2, 72820, Note_on_c, 0, 83, 83
2, 72862, Note_on_c, 0, 79, 73
2, 72901, Control_c, 0, 64, 0
2, 72902, Note_on_c, 0, 86, 0
2, 72902, Note_on_c, 0, 91, 0
2, 72903, Note_on_c, 0, 83, 0
2, 72903, Note_on_c, 0, 43, 0
2, 72903, Note_on_c, 0, 55, 0
2, 72903, Note_on_c, 0, 79, 0
2, 72935, Note_on_c, 0, 57, 93
2, 72940, Note_on_c, 0, 45, 83
2, 72940, Note_on_c, 0, 81, 97
2, 72946, Note_on_c, 0, 69, 87
2, 72960, Control_c, 0, 64, 127
2, 73031, Note_on_c, 0, 76, 79
2, 73079, Note_on_c, 0, 72, 74
2, 73159, Note_on_c, 0, 69, 0
2, 73167, Note_on_c, 0, 69, 64
2, 73208, Note_on_c, 0, 64, 86
2, 73225, Note_on_c, 0, 60, 74
2, 73326, Control_c, 0, 64, 0
2, 73329, Note_on_c, 0, 45, 0
2, 73329, Note_on_c, 0, 57, 0
2, 73329, Note_on_c, 0, 81, 0
2, 73330, Note_on_c, 0, 72, 0
2, 73330, Note_on_c, 0, 64, 0
2, 73330, Note_on_c, 0, 60, 0
2, 73331, Note_on_c, 0, 76, 0
2, 73344, Note_on_c, 0, 69, 0
2, 73355, Note_on_c, 0, 83, 96
2, 73357, Note_on_c, 0, 59, 88
2, 73359, Note_on_c, 0, 71, 94
2, 73360, Note_on_c, 0, 47, 85
2, 73390, Control_c, 0, 64, 127
2, 73394, Note_on_c, 0, 59, 0
2, 73427, Note_on_c, 0, 78, 92
2, 73462, Note_on_c, 0, 74, 79
2, 73551, Note_on_c, 0, 71, 0
2, 73560, Note_on_c, 0, 71, 81
2, 73607, Note_on_c, 0, 66, 82
2, 73620, Note_on_c, 0, 71, 0
2, 73620, Note_on_c, 0, 78, 0
2, 73628, Note_on_c, 0, 62, 73
2, 73628, Note_on_c, 0, 78, 78
2, 73631, Note_on_c, 0, 59, 74
2, 73631, Note_on_c, 0, 71, 78
2, 73734, Note_on_c, 0, 83, 0
2, 73734, Note_on_c, 0, 62, 0
2, 73735, Note_on_c, 0, 78, 0
2, 73735, Note_on_c, 0, 71, 0
2, 73735, Note_on_c, 0, 66, 0
2, 73735, Note_on_c, 0, 74, 0
2, 73737, Control_c, 0, 64, 0
2, 73737, Note_on_c, 0, 47, 0
2, 73747, Note_on_c, 0, 84, 100
2, 73747, Note_on_c, 0, 72, 95
2, 73754, Note_on_c, 0, 60, 93
2, 73754, Note_on_c, 0, 48, 89
2, 73758, Note_on_c, 0, 59, 0
2, 73789, Control_c, 0, 64, 127
2, 73823, Note_on_c, 0, 79, 89
2, 73835, Note_on_c, 0, 60, 0
2, 73882, Note_on_c, 0, 76, 79
2, 73943, Note_on_c, 0, 72, 0
2, 73950, Note_on_c, 0, 84, 0
2, 73954, Note_on_c, 0, 72, 78
2, 73960, Note_on_c, 0, 84, 71
2, 74003, Note_on_c, 0, 67, 91
2, 74016, Note_on_c, 0, 64, 88
2, 74113, Control_c, 0, 64, 0
2, 74115, Note_on_c, 0, 48, 0
2, 74115, Note_on_c, 0, 84, 0
2, 74115, Note_on_c, 0, 64, 0
2, 74115, Note_on_c, 0, 67, 0
2, 74115, Note_on_c, 0, 76, 0
2, 74115, Note_on_c, 0, 79, 0
2, 74127, Note_on_c, 0, 72, 0
2, 74148, Note_on_c, 0, 49, 98
2, 74152, Note_on_c, 0, 61, 99
2, 74153, Note_on_c, 0, 85, 101
2, 74171, Note_on_c, 0, 79, 86
2, 74173, Control_c, 0, 64, 127
2, 74243, Note_on_c, 0, 76, 85
2, 74277, Note_on_c, 0, 73, 79
2, 74378, Note_on_c, 0, 67, 90
2, 74402, Note_on_c, 0, 64, 73
2, 74440, Note_on_c, 0, 81, 65
2, 74497, Note_on_c, 0, 73, 0
2, 74497, Note_on_c, 0, 49, 0
2, 74498, Note_on_c, 0, 85, 0
2, 74498, Note_on_c, 0, 67, 0
2, 74498, Note_on_c, 0, 64, 0
2, 74498, Control_c, 0, 64, 0
2, 74499, Note_on_c, 0, 76, 0
2, 74499, Note_on_c, 0, 79, 0
2, 74511, Note_on_c, 0, 61, 0
2, 74526, Note_on_c, 0, 86, 103
2, 74530, Note_on_c, 0, 62, 92
2, 74530, Note_on_c, 0, 78, 95
2, 74532, Note_on_c, 0, 50, 93
2, 74533, Note_on_c, 0, 74, 93
2, 74557, Note_on_c, 0, 81, 0
2, 74568, Note_on_c, 0, 50, 0
2, 74568, Note_on_c, 0, 74, 0
2, 74568, Note_on_c, 0, 62, 0
2, 74569, Note_on_c, 0, 78, 0
2, 74573, Note_on_c, 0, 86, 0
2, 74588, Control_c, 0, 64, 127
2, 74660, Note_on_c, 0, 60, 93
2, 74660, Note_on_c, 0, 88, 104
2, 74661, Note_on_c, 0, 76, 99
2, 74661, Note_on_c, 0, 48, 93
2, 74787, Note_on_c, 0, 90, 96
2, 74789, Note_on_c, 0, 78, 103
2, 74799, Note_on_c, 0, 47, 74
2, 74799, Note_on_c, 0, 59, 80
2, 74900, Control_c, 0, 64, 0
2, 74900, Note_on_c, 0, 48, 0
2, 74900, Note_on_c, 0, 88, 0
2, 74900, Note_on_c, 0, 47, 0
2, 74900, Note_on_c, 0, 90, 0
2, 74901, Note_on_c, 0, 59, 0
2, 74901, Note_on_c, 0, 78, 0
2, 74901, Note_on_c, 0, 60, 0
2, 74902, Note_on_c, 0, 76, 0
2, 74930, Note_on_c, 0, 55, 104
2, 74930, Note_on_c, 0, 91, 109
2, 74933, Note_on_c, 0, 43, 96
2, 74936, Note_on_c, 0, 79, 107
2, 74937, Note_on_c, 0, 83, 94
2, 74972, Control_c, 0, 64, 127
2, 75072, Note_on_c, 0, 55, 0
2, 75183, Note_on_c, 0, 31, 51
2, 75240, Note_on_c, 0, 43, 0
2, 75243, Note_on_c, 0, 45, 71
2, 75245, Note_on_c, 0, 43, 70
2, 75324, Note_on_c, 0, 50, 82
2, 75324, Note_on_c, 0, 47, 67
2, 75333, Note_on_c, 0, 31, 0
2, 75386, Note_on_c, 0, 55, 80
2, 75386, Note_on_c, 0, 45, 0
2, 75453, Note_on_c, 0, 59, 81
2, 75508, Note_on_c, 0, 62, 76
2, 75597, Note_on_c, 0, 67, 83
2, 75599, Note_on_c, 0, 69, 72
2, 75663, Note_on_c, 0, 71, 86
2, 75711, Note_on_c, 0, 74, 83
2, 75801, Note_on_c, 0, 79, 0
2, 75808, Note_on_c, 0, 79, 89
2, 75863, Note_on_c, 0, 83, 0
2, 75872, Note_on_c, 0, 83, 85
2, 75905, Note_on_c, 0, 86, 89
2, 75970, Note_on_c, 0, 91, 0
2, 75976, Note_on_c, 0, 91, 88
2, 76051, Note_on_c, 0, 95, 92
2, 76126, Note_on_c, 0, 98, 95
2, 76183, Note_on_c, 0, 103, 110
2, 78339, Control_c, 0, 64, 0
2, 78339, Note_on_c, 0, 74, 0
2, 78339, Note_on_c, 0, 69, 0
2, 78339, Note_on_c, 0, 86, 0
2, 78340, Note_on_c, 0, 59, 0
2, 78340, Note_on_c, 0, 67, 0
2, 78340, Note_on_c, 0, 95, 0
2, 78340, Note_on_c, 0, 71, 0
2, 78340, Note_on_c, 0, 98, 0
2, 78340, Note_on_c, 0, 55, 0
2, 78341, Note_on_c, 0, 50, 0
2, 78341, Note_on_c, 0, 83, 0
2, 78341, Note_on_c, 0, 79, 0
2, 78341, Note_on_c, 0, 91, 0
2, 78341, Note_on_c, 0, 62, 0
2, 78359, Note_on_c, 0, 43, 0
2, 78359, Note_on_c, 0, 47, 0
2, 78720, Note_on_c, 0, 103, 0
2, 79203, Control_c, 0, 64, 127
2, 80181, Note_on_c, 0, 71, 65
2, 80198, Note_on_c, 0, 55, 46
2, 80204, Note_on_c, 0, 62, 42
2, 80209, Note_on_c, 0, 67, 39
2, 80284, Control_c, 0, 64, 0
2, 80578, Control_c, 0, 64, 127
2, 81369, Note_on_c, 0, 72, 61
2, 81369, Note_on_c, 0, 67, 0
2, 81373, Note_on_c, 0, 67, 54
2, 81377, Note_on_c, 0, 64, 53
2, 81380, Note_on_c, 0, 52, 47
2, 81419, Note_on_c, 0, 71, 0
2, 81420, Note_on_c, 0, 55, 0
2, 81420, Control_c, 0, 64, 0
2, 81422, Note_on_c, 0, 62, 0
2, 81561, Control_c, 0, 64, 127
2, 82695, Note_on_c, 0, 74, 62
2, 82698, Note_on_c, 0, 66, 51
2, 82702, Note_on_c, 0, 69, 56
2, 82702, Note_on_c, 0, 62, 40
2, 82706, Note_on_c, 0, 54, 43
2, 82740, Control_c, 0, 64, 0
2, 82741, Note_on_c, 0, 72, 0
2, 82742, Note_on_c, 0, 52, 0
2, 82743, Note_on_c, 0, 64, 0
2, 82759, Note_on_c, 0, 67, 0
2, 82882, Control_c, 0, 64, 127
2, 84464, Note_on_c, 0, 69, 0
2, 84474, Note_on_c, 0, 69, 56
2, 85020, Note_on_c, 0, 67, 70
2, 85037, Note_on_c, 0, 64, 58
2, 85044, Note_on_c, 0, 55, 51
2, 85045, Note_on_c, 0, 52, 44
2, 85066, Note_on_c, 0, 62, 0
2, 85066, Note_on_c, 0, 69, 0
2, 85067, Note_on_c, 0, 74, 0
2, 85067, Note_on_c, 0, 54, 0
2, 85067, Note_on_c, 0, 66, 0
2, 85068, Control_c, 0, 64, 0
2, 85140, Control_c, 0, 64, 127
2, 86226, Note_on_c, 0, 71, 78
2, 86227, Note_on_c, 0, 59, 51
2, 86231, Note_on_c, 0, 67, 0
2, 86236, Note_on_c, 0, 67, 57
2, 86237, Note_on_c, 0, 47, 42
2, 86244, Note_on_c, 0, 62, 49
2, 86278, Control_c, 0, 64, 0
2, 86280, Note_on_c, 0, 64, 0
2, 86281, Note_on_c, 0, 52, 0
2, 86281, Note_on_c, 0, 55, 0
2, 86369, Control_c, 0, 64, 127
2, 86822, Note_on_c, 0, 62, 0
2, 86827, Note_on_c, 0, 62, 72
2, 87382, Note_on_c, 0, 64, 68
2, 87409, Note_on_c, 0, 48, 54
2, 87410, Note_on_c, 0, 60, 58
2, 87414, Note_on_c, 0, 52, 48
2, 87441, Note_on_c, 0, 62, 0
2, 87442, Note_on_c, 0, 47, 0
2, 87442, Control_c, 0, 64, 0
2, 87443, Note_on_c, 0, 71, 0
2, 87459, Note_on_c, 0, 59, 0
2, 87590, Control_c, 0, 64, 127
2, 87991, Note_on_c, 0, 69, 73
2, 88581, Note_on_c, 0, 67, 0
2, 88586, Note_on_c, 0, 67, 80
2, 89226, Note_on_c, 0, 66, 82
2, 89594, Note_on_c, 0, 67, 0
2, 89599, Note_on_c, 0, 67, 84
2, 90055, Note_on_c, 0, 69, 0
2, 90060, Note_on_c, 0, 69, 73
2, 90078, Note_on_c, 0, 64, 0
2, 90083, Note_on_c, 0, 49, 50
2, 90083, Note_on_c, 0, 61, 55
2, 90085, Note_on_c, 0, 64, 60
2, 90089, Note_on_c, 0, 57, 49
2, 90101, Control_c, 0, 64, 0
2, 90102, Note_on_c, 0, 60, 0
2, 90103, Note_on_c, 0, 67, 0
2, 90103, Note_on_c, 0, 66, 0
2, 90103, Note_on_c, 0, 52, 0
2, 90104, Note_on_c, 0, 48, 0
2, 90324, Control_c, 0, 64, 127
2, 91218, Note_on_c, 0, 45, 57
2, 91242, Control_c, 0, 64, 0
2, 91292, Note_on_c, 0, 49, 0
2, 91345, Control_c, 0, 64, 127
2, 92535, Note_on_c, 0, 67, 70
2, 92536, Note_on_c, 0, 64, 0
2, 92540, Note_on_c, 0, 60, 55
2, 92544, Note_on_c, 0, 57, 0
2, 92544, Note_on_c, 0, 64, 57
2, 92548, Note_on_c, 0, 50, 53
2, 92548, Note_on_c, 0, 57, 54
2, 92581, Note_on_c, 0, 61, 0
2, 92584, Control_c, 0, 64, 0
2, 92585, Note_on_c, 0, 45, 0
2, 92628, Note_on_c, 0, 69, 0
2, 92828, Control_c, 0, 64, 127
2, 93242, Note_on_c, 0, 57, 0
2, 93874, Note_on_c, 0, 38, 42
2, 93874, Note_on_c, 0, 62, 50
2, 93877, Note_on_c, 0, 66, 60
2, 93899, Note_on_c, 0, 57, 29
2, 93921, Note_on_c, 0, 50, 0
2, 93921, Control_c, 0, 64, 0
2, 93921, Note_on_c, 0, 60, 0
2, 93941, Note_on_c, 0, 64, 0
2, 94080, Note_on_c, 0, 57, 0
2, 94087, Control_c, 0, 64, 127
2, 96092, Note_on_c, 0, 67, 0
2, 96099, Note_on_c, 0, 62, 0
2, 96103, Note_on_c, 0, 67, 60
2, 96107, Note_on_c, 0, 62, 44
2, 96111, Note_on_c, 0, 59, 46
2, 96129, Note_on_c, 0, 43, 36
2, 96134, Note_on_c, 0, 31, 37
2, 96147, Note_on_c, 0, 38, 0
2, 96150, Note_on_c, 0, 66, 0
2, 96155, Control_c, 0, 64, 0
2, 96483, Control_c, 0, 64, 127
2, 98592, Note_on_c, 0, 63, 52
2, 98607, Note_on_c, 0, 55, 46
2, 98611, Note_on_c, 0, 60, 48
2, 98612, Note_on_c, 0, 51, 49
2, 98614, Note_on_c, 0, 48, 52
2, 98674, Control_c, 0, 64, 0
2, 98678, Note_on_c, 0, 67, 0
2, 98678, Note_on_c, 0, 31, 0
2, 98678, Note_on_c, 0, 43, 0
2, 98680, Note_on_c, 0, 59, 0
2, 98703, Note_on_c, 0, 62, 0
2, 99125, Control_c, 0, 64, 127
2, 101760, Note_on_c, 0, 48, 0
2, 101760, Note_on_c, 0, 51, 0
2, 101760, Note_on_c, 0, 55, 0
2, 101760, Note_on_c, 0, 60, 0
2, 101760, Note_on_c, 0, 63, 0
2, 101848, Note_on_c, 0, 67, 53
2, 101850, Note_on_c, 0, 59, 42
2, 101851, Note_on_c, 0, 62, 41
2, 101852, Note_on_c, 0, 31, 37
2, 101854, Note_on_c, 0, 43, 37
2, 101920, Control_c, 0, 64, 0
2, 102796, Note_on_c, 0, 43, 0
2, 102802, Note_on_c, 0, 43, 29
2, 104924, Control_c, 0, 64, 127
2, 105400, Note_on_c, 0, 59, 0
2, 105404, Note_on_c, 0, 59, 25
2, 105562, Note_on_c, 0, 67, 0
2, 105564, Note_on_c, 0, 59, 0
2, 105564, Note_on_c, 0, 62, 0
2, 105584, Note_on_c, 0, 31, 0
2, 105595, Control_c, 0, 64, 0
2, 105600, Note_on_c, 0, 43, 0
2, 105601, End_track
0, 0, End_of_file
