0, 0, Header, 1, 2, 384
1, 0, Start_track
1, 0, Tempo, 500000
1, 0, Time_signature, 4, 2, 24, 8
1, 1, End_track
2, 0, Start_track
2, 7, Control_c, 0, 64, 127
2, 2257, Control_c, 0, 64, 0
2, 2301, Note_on_c, 0, 25, 82
2, 2377, Note_on_c, 0, 37, 82
2, 2439, Note_on_c, 0, 49, 100
2, 2526, Note_on_c, 0, 25, 0
2, 2572, Note_on_c, 0, 49, 0
2, 2588, Note_on_c, 0, 37, 0
2, 2620, Note_on_c, 0, 51, 88
2, 2681, Note_on_c, 0, 51, 0
2, 2786, Note_on_c, 0, 54, 103
2, 2954, Note_on_c, 0, 49, 91
2, 2995, Note_on_c, 0, 54, 0
2, 3044, Note_on_c, 0, 51, 90
2, 3079, Note_on_c, 0, 49, 0
2, 3091, Note_on_c, 0, 51, 0
2, 3210, Note_on_c, 0, 54, 97
2, 3266, Note_on_c, 0, 54, 0
2, 3371, Note_on_c, 0, 54, 99
2, 3421, Note_on_c, 0, 54, 0
2, 3529, Note_on_c, 0, 56, 97
2, 3605, Note_on_c, 0, 56, 0
2, 3611, Note_on_c, 0, 57, 93
2, 3814, Note_on_c, 0, 25, 80
2, 3824, Note_on_c, 0, 25, 0
2, 3986, Note_on_c, 0, 25, 76
2, 4159, Note_on_c, 0, 37, 89
2, 4323, Note_on_c, 0, 25, 0
2, 4324, Note_on_c, 0, 37, 0
2, 4334, Note_on_c, 0, 25, 81
2, 4423, Note_on_c, 0, 25, 0
2, 4431, Note_on_c, 0, 25, 79
2, 4432, Note_on_c, 0, 37, 73
2, 4485, Note_on_c, 0, 37, 0
2, 4577, Note_on_c, 0, 25, 0
2, 4581, Note_on_c, 0, 25, 74
2, 4669, Note_on_c, 0, 57, 0
2, 4730, Note_on_c, 0, 25, 0
2, 4749, Note_on_c, 0, 25, 85
2, 4826, Note_on_c, 0, 37, 88
2, 4919, Note_on_c, 0, 37, 0
2, 4938, Note_on_c, 0, 25, 0
2, 4990, Note_on_c, 0, 24, 79
2, 4999, Note_on_c, 0, 24, 0
2, 5161, Note_on_c, 0, 49, 97
2, 5163, Note_on_c, 0, 37, 78
2, 5165, Note_on_c, 0, 41, 61
2, 5176, Note_on_c, 0, 41, 0
2, 5191, Note_on_c, 0, 37, 0
2, 5237, Note_on_c, 0, 49, 0
2, 5242, Note_on_c, 0, 49, 92
2, 5339, Note_on_c, 0, 51, 90
2, 5368, Note_on_c, 0, 49, 0
2, 5382, Note_on_c, 0, 51, 0
2, 5507, Note_on_c, 0, 54, 101
2, 5673, Note_on_c, 0, 49, 88
2, 5694, Note_on_c, 0, 54, 0
2, 5760, Note_on_c, 0, 51, 92
2, 5767, Note_on_c, 0, 49, 0
2, 5834, Note_on_c, 0, 51, 0
2, 5926, Note_on_c, 0, 54, 98
2, 6005, Note_on_c, 0, 54, 0
2, 6096, Note_on_c, 0, 54, 100
2, 6143, Note_on_c, 0, 54, 0
2, 6253, Note_on_c, 0, 56, 93
2, 6333, Note_on_c, 0, 57, 92
2, 6349, Note_on_c, 0, 56, 0
2, 6532, Note_on_c, 0, 25, 80
2, 6543, Note_on_c, 0, 25, 0
2, 6700, Note_on_c, 0, 25, 79
2, 6704, Note_on_c, 0, 25, 0
2, 6886, Note_on_c, 0, 37, 86
2, 7045, Note_on_c, 0, 37, 0
2, 7051, Note_on_c, 0, 57, 0
2, 7054, Note_on_c, 0, 25, 80
2, 7073, Note_on_c, 0, 25, 0
2, 7148, Note_on_c, 0, 25, 87
2, 7303, Note_on_c, 0, 25, 0
2, 7312, Note_on_c, 0, 25, 80
2, 7464, Note_on_c, 0, 25, 0
2, 7475, Note_on_c, 0, 25, 84
2, 7552, Note_on_c, 0, 37, 91
2, 7656, Control_c, 0, 64, 127
2, 7707, Note_on_c, 0, 37, 0
2, 7710, Note_on_c, 0, 25, 0
2, 7715, Note_on_c, 0, 25, 79
2, 7808, Note_on_c, 0, 25, 0
2, 7809, Control_c, 0, 64, 0
2, 7893, Note_on_c, 0, 59, 105
2, 7897, Note_on_c, 0, 61, 102
2, 7897, Note_on_c, 0, 47, 106
2, 7899, Note_on_c, 0, 35, 96
2, 7933, Control_c, 0, 64, 127
2, 7971, Note_on_c, 0, 61, 0
2, 7977, Note_on_c, 0, 61, 107
2, 8082, Note_on_c, 0, 63, 102
2, 8145, Note_on_c, 0, 35, 0
2, 8148, Note_on_c, 0, 47, 0
2, 8150, Note_on_c, 0, 61, 0
2, 8151, Control_c, 0, 64, 0
2, 8156, Note_on_c, 0, 63, 0
2, 8163, Note_on_c, 0, 59, 0
2, 8241, Note_on_c, 0, 66, 108
2, 8363, Note_on_c, 0, 66, 0
2, 8421, Note_on_c, 0, 54, 95
2, 8422, Note_on_c, 0, 59, 106
2, 8423, Note_on_c, 0, 47, 98
2, 8427, Note_on_c, 0, 51, 95
2, 8429, Note_on_c, 0, 61, 100
2, 8471, Control_c, 0, 64, 127
2, 8585, Note_on_c, 0, 63, 100
2, 8668, Note_on_c, 0, 66, 103
2, 8706, Control_c, 0, 64, 0
2, 8706, Note_on_c, 0, 54, 0
2, 8707, Note_on_c, 0, 59, 0
2, 8708, Note_on_c, 0, 47, 0
2, 8708, Note_on_c, 0, 51, 0
2, 8724, Note_on_c, 0, 61, 0
2, 8776, Note_on_c, 0, 47, 98
2, 8779, Note_on_c, 0, 35, 89
2, 8816, Control_c, 0, 64, 127
2, 8832, Note_on_c, 0, 66, 0
2, 8840, Note_on_c, 0, 66, 102
2, 8944, Note_on_c, 0, 51, 87
2, 8944, Note_on_c, 0, 54, 92
2, 9001, Note_on_c, 0, 68, 101
2, 9080, Note_on_c, 0, 69, 107
2, 9182, Note_on_c, 0, 51, 0
2, 9183, Note_on_c, 0, 66, 0
2, 9184, Note_on_c, 0, 35, 0
2, 9185, Control_c, 0, 64, 0
2, 9185, Note_on_c, 0, 63, 0
2, 9185, Note_on_c, 0, 68, 0
2, 9186, Note_on_c, 0, 54, 0
2, 9186, Note_on_c, 0, 69, 0
2, 9192, Note_on_c, 0, 47, 0
2, 9264, Note_on_c, 0, 61, 106
2, 9265, Note_on_c, 0, 58, 101
2, 9265, Note_on_c, 0, 46, 105
2, 9266, Note_on_c, 0, 34, 97
2, 9292, Control_c, 0, 64, 127
2, 9331, Note_on_c, 0, 61, 0
2, 9341, Note_on_c, 0, 61, 105
2, 9388, Control_c, 0, 64, 0
2, 9411, Note_on_c, 0, 58, 0
2, 9412, Note_on_c, 0, 46, 0
2, 9431, Note_on_c, 0, 34, 0
2, 9440, Note_on_c, 0, 63, 100
2, 9530, Note_on_c, 0, 61, 0
2, 9532, Note_on_c, 0, 63, 0
2, 9600, Note_on_c, 0, 66, 106
2, 9757, Note_on_c, 0, 61, 105
2, 9779, Note_on_c, 0, 51, 91
2, 9780, Note_on_c, 0, 46, 88
2, 9781, Note_on_c, 0, 39, 85
2, 9792, Control_c, 0, 64, 127
2, 9907, Note_on_c, 0, 46, 0
2, 9914, Note_on_c, 0, 73, 108
2, 9916, Note_on_c, 0, 46, 83
2, 9999, Note_on_c, 0, 73, 0
2, 10004, Note_on_c, 0, 73, 106
2, 10076, Note_on_c, 0, 51, 0
2, 10080, Note_on_c, 0, 58, 97
2, 10082, Note_on_c, 0, 54, 94
2, 10086, Note_on_c, 0, 51, 86
2, 10169, Note_on_c, 0, 71, 105
2, 10268, Note_on_c, 0, 39, 0
2, 10275, Note_on_c, 0, 51, 0
2, 10278, Note_on_c, 0, 39, 90
2, 10279, Note_on_c, 0, 51, 87
2, 10345, Note_on_c, 0, 70, 104
2, 10421, Note_on_c, 0, 66, 0
2, 10431, Note_on_c, 0, 66, 108
2, 10475, Note_on_c, 0, 61, 0
2, 10476, Note_on_c, 0, 66, 0
2, 10477, Control_c, 0, 64, 0
2, 10477, Note_on_c, 0, 58, 0
2, 10477, Note_on_c, 0, 54, 0
2, 10478, Note_on_c, 0, 73, 0
2, 10479, Note_on_c, 0, 51, 0
2, 10479, Note_on_c, 0, 70, 0
2, 10479, Note_on_c, 0, 46, 0
2, 10480, Note_on_c, 0, 71, 0
2, 10498, Note_on_c, 0, 39, 0
2, 10625, Note_on_c, 0, 68, 107
2, 10627, Note_on_c, 0, 44, 103
2, 10629, Note_on_c, 0, 59, 103
2, 10631, Note_on_c, 0, 32, 95
2, 10632, Note_on_c, 0, 61, 94
2, 10875, Note_on_c, 0, 59, 0
2, 10875, Note_on_c, 0, 32, 0
2, 10876, Note_on_c, 0, 44, 0
2, 10876, Note_on_c, 0, 61, 0
2, 10878, Note_on_c, 0, 68, 0
2, 10992, Note_on_c, 0, 70, 105
2, 10993, Note_on_c, 0, 51, 102
2, 10994, Note_on_c, 0, 39, 95
2, 10995, Note_on_c, 0, 61, 97
2, 10999, Note_on_c, 0, 66, 99
2, 11020, Control_c, 0, 64, 127
2, 11194, Control_c, 0, 64, 0
2, 11194, Note_on_c, 0, 66, 0
2, 11199, Note_on_c, 0, 70, 0
2, 11212, Note_on_c, 0, 39, 0
2, 11212, Note_on_c, 0, 51, 0
2, 11212, Note_on_c, 0, 61, 0
2, 11339, Note_on_c, 0, 71, 103
2, 11339, Note_on_c, 0, 68, 103
2, 11341, Note_on_c, 0, 63, 99
2, 11341, Note_on_c, 0, 49, 101
2, 11344, Note_on_c, 0, 37, 97
2, 11366, Control_c, 0, 64, 127
2, 11576, Note_on_c, 0, 63, 0
2, 11576, Note_on_c, 0, 37, 0
2, 11577, Note_on_c, 0, 68, 0
2, 11577, Control_c, 0, 64, 0
2, 11577, Note_on_c, 0, 71, 0
2, 11581, Note_on_c, 0, 49, 0
2, 11692, Note_on_c, 0, 77, 107
2, 11698, Note_on_c, 0, 68, 109
2, 11699, Note_on_c, 0, 73, 101
2, 11700, Note_on_c, 0, 56, 104
2, 11701, Note_on_c, 0, 44, 100
2, 11727, Control_c, 0, 64, 127
2, 11873, Note_on_c, 0, 56, 0
2, 11891, Note_on_c, 0, 73, 0
2, 11892, Control_c, 0, 64, 0
2, 11896, Note_on_c, 0, 44, 0
2, 11896, Note_on_c, 0, 68, 0
2, 11911, Note_on_c, 0, 77, 0
2, 12025, Note_on_c, 0, 78, 107
2, 12026, Note_on_c, 0, 70, 105
2, 12027, Note_on_c, 0, 73, 103
2, 12028, Note_on_c, 0, 54, 105
2, 12029, Note_on_c, 0, 42, 103
2, 12057, Control_c, 0, 64, 127
2, 12195, Note_on_c, 0, 70, 0
2, 12195, Note_on_c, 0, 73, 0
2, 12195, Note_on_c, 0, 78, 0
2, 12199, Note_on_c, 0, 73, 93
2, 12199, Note_on_c, 0, 70, 91
2, 12199, Note_on_c, 0, 78, 95
2, 12264, Note_on_c, 0, 42, 0
2, 12264, Note_on_c, 0, 54, 0
2, 12264, Note_on_c, 0, 70, 0
2, 12264, Note_on_c, 0, 73, 0
2, 12264, Note_on_c, 0, 78, 0
2, 12273, Control_c, 0, 64, 0
2, 12274, Note_on_c, 0, 54, 99
2, 12275, Note_on_c, 0, 70, 94
2, 12275, Note_on_c, 0, 42, 99
2, 12275, Note_on_c, 0, 78, 103
2, 12276, Note_on_c, 0, 73, 102
2, 12307, Note_on_c, 0, 42, 0
2, 12308, Note_on_c, 0, 78, 0
2, 12308, Note_on_c, 0, 70, 0
2, 12318, Note_on_c, 0, 54, 0
2, 12334, Note_on_c, 0, 73, 0
2, 12537, Note_on_c, 0, 78, 103
2, 12539, Note_on_c, 0, 70, 104
2, 12540, Note_on_c, 0, 73, 101
2, 12541, Note_on_c, 0, 42, 103
2, 12542, Note_on_c, 0, 30, 98
2, 12556, Control_c, 0, 64, 127
2, 12695, Note_on_c, 0, 70, 0
2, 12695, Note_on_c, 0, 73, 0
2, 12695, Note_on_c, 0, 78, 0
2, 12699, Note_on_c, 0, 73, 93
2, 12699, Note_on_c, 0, 78, 96
2, 12700, Note_on_c, 0, 70, 88
2, 12768, Note_on_c, 0, 30, 0
2, 12771, Note_on_c, 0, 70, 0
2, 12771, Note_on_c, 0, 73, 0
2, 12771, Note_on_c, 0, 78, 0
2, 12777, Note_on_c, 0, 78, 102
2, 12779, Note_on_c, 0, 42, 0
2, 12780, Note_on_c, 0, 70, 99
2, 12781, Note_on_c, 0, 73, 105
2, 12783, Note_on_c, 0, 54, 107
2, 12784, Note_on_c, 0, 42, 105
2, 12791, Control_c, 0, 64, 0
2, 12819, Note_on_c, 0, 54, 0
2, 12819, Note_on_c, 0, 42, 0
2, 12833, Note_on_c, 0, 70, 0
2, 12833, Note_on_c, 0, 78, 0
2, 12840, Note_on_c, 0, 73, 0
2, 13121, Note_on_c, 0, 30, 103
2, 13121, Note_on_c, 0, 42, 111
2, 13148, Control_c, 0, 64, 127
2, 13155, Note_on_c, 0, 99, 102
2, 13174, Note_on_c, 0, 94, 92
2, 13182, Note_on_c, 0, 97, 82
2, 13196, Note_on_c, 0, 92, 89
2, 13209, Note_on_c, 0, 87, 90
2, 13212, Note_on_c, 0, 90, 89
2, 13222, Note_on_c, 0, 85, 107
2, 13230, Note_on_c, 0, 82, 97
2, 13241, Note_on_c, 0, 78, 96
2, 13242, Note_on_c, 0, 80, 93
2, 13264, Note_on_c, 0, 75, 90
2, 13272, Note_on_c, 0, 73, 88
2, 13278, Note_on_c, 0, 70, 87
2, 13299, Note_on_c, 0, 68, 63
2, 13401, Control_c, 0, 64, 0
2, 13411, Note_on_c, 0, 99, 0
2, 13411, Note_on_c, 0, 75, 0
2, 13411, Note_on_c, 0, 30, 0
2, 13411, Note_on_c, 0, 87, 0
2, 13412, Note_on_c, 0, 94, 0
2, 13412, Note_on_c, 0, 42, 0
2, 13412, Note_on_c, 0, 97, 0
2, 13412, Note_on_c, 0, 78, 0
2, 13412, Note_on_c, 0, 80, 0
2, 13413, Note_on_c, 0, 68, 0
2, 13413, Note_on_c, 0, 90, 0
2, 13413, Note_on_c, 0, 92, 0
2, 13413, Note_on_c, 0, 73, 0
2, 13413, Note_on_c, 0, 70, 0
2, 13413, Note_on_c, 0, 85, 0
2, 13413, Note_on_c, 0, 82, 0
2, 13472, Note_on_c, 0, 32, 94
2, 13472, Note_on_c, 0, 44, 103
2, 13481, Note_on_c, 0, 70, 99
2, 13496, Note_on_c, 0, 66, 88
2, 13532, Control_c, 0, 64, 127
2, 13624, Note_on_c, 0, 70, 0
2, 13630, Note_on_c, 0, 70, 95
2, 13639, Note_on_c, 0, 66, 0
2, 13644, Note_on_c, 0, 66, 75
2, 13647, Note_on_c, 0, 44, 0
2, 13654, Note_on_c, 0, 63, 70
2, 13656, Note_on_c, 0, 44, 81
2, 13808, Note_on_c, 0, 70, 0
2, 13813, Note_on_c, 0, 70, 100
2, 13816, Note_on_c, 0, 66, 0
2, 13819, Note_on_c, 0, 42, 85
2, 13821, Note_on_c, 0, 54, 89
2, 13824, Note_on_c, 0, 42, 0
2, 13825, Note_on_c, 0, 66, 85
2, 13828, Note_on_c, 0, 51, 70
2, 13858, Control_c, 0, 64, 0
2, 13866, Note_on_c, 0, 63, 0
2, 13866, Note_on_c, 0, 32, 0
2, 13867, Note_on_c, 0, 54, 0
2, 13868, Note_on_c, 0, 70, 0
2, 13885, Note_on_c, 0, 44, 0
2, 13893, Note_on_c, 0, 51, 0
2, 13900, Note_on_c, 0, 66, 0
2, 13904, Note_on_c, 0, 71, 95
2, 13973, Note_on_c, 0, 71, 0
2, 13984, Note_on_c, 0, 37, 93
2, 13987, Note_on_c, 0, 49, 78
2, 13992, Note_on_c, 0, 49, 0
2, 14031, Control_c, 0, 64, 127
2, 14065, Note_on_c, 0, 49, 91
2, 14072, Note_on_c, 0, 73, 106
2, 14082, Note_on_c, 0, 68, 98
2, 14086, Note_on_c, 0, 65, 93
2, 14223, Note_on_c, 0, 73, 0
2, 14228, Note_on_c, 0, 73, 88
2, 14238, Note_on_c, 0, 65, 0
2, 14242, Note_on_c, 0, 65, 74
2, 14246, Note_on_c, 0, 68, 0
2, 14250, Note_on_c, 0, 68, 78
2, 14334, Note_on_c, 0, 37, 0
2, 14334, Note_on_c, 0, 44, 85
2, 14335, Note_on_c, 0, 51, 85
2, 14336, Control_c, 0, 64, 0
2, 14338, Note_on_c, 0, 71, 104
2, 14341, Note_on_c, 0, 49, 0
2, 14392, Control_c, 0, 64, 127
2, 14511, Note_on_c, 0, 53, 99
2, 14512, Note_on_c, 0, 70, 102
2, 14584, Note_on_c, 0, 44, 0
2, 14590, Note_on_c, 0, 44, 61
2, 14676, Note_on_c, 0, 70, 0
2, 14680, Note_on_c, 0, 37, 93
2, 14682, Note_on_c, 0, 66, 99
2, 14683, Note_on_c, 0, 70, 76
2, 14756, Control_c, 0, 64, 0
2, 14756, Note_on_c, 0, 51, 0
2, 14756, Note_on_c, 0, 37, 0
2, 14756, Note_on_c, 0, 70, 0
2, 14756, Note_on_c, 0, 71, 0
2, 14756, Note_on_c, 0, 44, 0
2, 14757, Note_on_c, 0, 66, 0
2, 14757, Note_on_c, 0, 53, 0
2, 14760, Note_on_c, 0, 73, 0
2, 14768, Note_on_c, 0, 65, 0
2, 14768, Note_on_c, 0, 68, 0
2, 14849, Note_on_c, 0, 70, 105
2, 14854, Note_on_c, 0, 46, 101
2, 14855, Note_on_c, 0, 34, 96
2, 14855, Note_on_c, 0, 61, 86
2, 14883, Control_c, 0, 64, 127
2, 14922, Note_on_c, 0, 70, 0
2, 14929, Note_on_c, 0, 61, 0
2, 14933, Note_on_c, 0, 70, 100
2, 14935, Note_on_c, 0, 61, 84
2, 14935, Note_on_c, 0, 65, 103
2, 15029, Note_on_c, 0, 46, 0
2, 15033, Note_on_c, 0, 58, 94
2, 15034, Note_on_c, 0, 46, 92
2, 15183, Note_on_c, 0, 70, 0
2, 15189, Note_on_c, 0, 56, 100
2, 15193, Note_on_c, 0, 70, 101
2, 15194, Note_on_c, 0, 53, 82
2, 15273, Note_on_c, 0, 71, 97
2, 15279, Note_on_c, 0, 34, 0
2, 15285, Note_on_c, 0, 61, 0
2, 15286, Note_on_c, 0, 53, 0
2, 15286, Note_on_c, 0, 65, 0
2, 15286, Note_on_c, 0, 46, 0
2, 15286, Note_on_c, 0, 56, 0
2, 15287, Control_c, 0, 64, 0
2, 15288, Note_on_c, 0, 70, 0
2, 15306, Note_on_c, 0, 58, 0
2, 15341, Note_on_c, 0, 71, 0
2, 15348, Note_on_c, 0, 39, 92
2, 15436, Control_c, 0, 64, 127
2, 15442, Note_on_c, 0, 46, 93
2, 15447, Note_on_c, 0, 73, 109
2, 15450, Note_on_c, 0, 70, 101
2, 15454, Note_on_c, 0, 66, 101
2, 15605, Note_on_c, 0, 66, 0
2, 15605, Note_on_c, 0, 73, 0
2, 15610, Note_on_c, 0, 73, 98
2, 15614, Note_on_c, 0, 66, 85
2, 15618, Note_on_c, 0, 70, 0
2, 15717, Note_on_c, 0, 53, 94
2, 15718, Note_on_c, 0, 71, 102
2, 15739, Control_c, 0, 64, 0
2, 15742, Note_on_c, 0, 66, 0
2, 15746, Note_on_c, 0, 73, 0
2, 15774, Note_on_c, 0, 39, 0
2, 15882, Note_on_c, 0, 46, 0
2, 15882, Control_c, 0, 64, 127
2, 15892, Note_on_c, 0, 46, 91
2, 15894, Note_on_c, 0, 54, 99
2, 15894, Note_on_c, 0, 70, 104
2, 16047, Note_on_c, 0, 39, 91
2, 16050, Note_on_c, 0, 51, 93
2, 16052, Note_on_c, 0, 66, 101
2, 16052, Note_on_c, 0, 63, 84
2, 16117, Control_c, 0, 64, 0
2, 16119, Note_on_c, 0, 46, 0
2, 16120, Note_on_c, 0, 53, 0
2, 16120, Note_on_c, 0, 70, 0
2, 16120, Note_on_c, 0, 54, 0
2, 16121, Note_on_c, 0, 71, 0
2, 16121, Note_on_c, 0, 51, 0
2, 16121, Note_on_c, 0, 66, 0
2, 16122, Note_on_c, 0, 39, 0
2, 16123, Note_on_c, 0, 63, 0
2, 16222, Note_on_c, 0, 70, 106
2, 16225, Note_on_c, 0, 44, 104
2, 16225, Note_on_c, 0, 63, 94
2, 16225, Note_on_c, 0, 32, 96
2, 16258, Control_c, 0, 64, 127
2, 16296, Note_on_c, 0, 44, 0
2, 16296, Note_on_c, 0, 63, 0
2, 16296, Note_on_c, 0, 70, 0
2, 16302, Note_on_c, 0, 70, 100
2, 16304, Note_on_c, 0, 63, 87
2, 16305, Note_on_c, 0, 66, 109
2, 16308, Note_on_c, 0, 44, 88
2, 16396, Note_on_c, 0, 66, 0
2, 16404, Note_on_c, 0, 44, 0
2, 16408, Note_on_c, 0, 66, 93
2, 16413, Note_on_c, 0, 44, 91
2, 16558, Note_on_c, 0, 66, 0
2, 16558, Note_on_c, 0, 70, 0
2, 16566, Note_on_c, 0, 54, 85
2, 16567, Note_on_c, 0, 70, 97
2, 16569, Note_on_c, 0, 51, 83
2, 16569, Note_on_c, 0, 66, 94
2, 16582, Control_c, 0, 64, 0
2, 16584, Note_on_c, 0, 32, 0
2, 16599, Note_on_c, 0, 54, 0
2, 16604, Note_on_c, 0, 44, 0
2, 16619, Note_on_c, 0, 63, 0
2, 16634, Note_on_c, 0, 66, 0
2, 16638, Note_on_c, 0, 71, 97
2, 16642, Note_on_c, 0, 70, 0
2, 16665, Note_on_c, 0, 51, 0
2, 16716, Note_on_c, 0, 32, 93
2, 16803, Note_on_c, 0, 32, 0
2, 16812, Note_on_c, 0, 44, 101
2, 16813, Note_on_c, 0, 68, 109
2, 16813, Note_on_c, 0, 65, 101
2, 16814, Note_on_c, 0, 32, 88
2, 16896, Control_c, 0, 64, 127
2, 16965, Note_on_c, 0, 65, 0
2, 16972, Note_on_c, 0, 68, 0
2, 16976, Note_on_c, 0, 65, 87
2, 16977, Note_on_c, 0, 68, 98
2, 17057, Control_c, 0, 64, 0
2, 17090, Note_on_c, 0, 46, 99
2, 17091, Note_on_c, 0, 70, 104
2, 17118, Note_on_c, 0, 32, 0
2, 17141, Control_c, 0, 64, 127
2, 17256, Note_on_c, 0, 71, 0
2, 17261, Note_on_c, 0, 47, 96
2, 17262, Note_on_c, 0, 71, 103
2, 17414, Note_on_c, 0, 48, 91
2, 17415, Note_on_c, 0, 72, 109
2, 17444, Control_c, 0, 64, 0
2, 17452, Note_on_c, 0, 70, 0
2, 17452, Note_on_c, 0, 47, 0
2, 17452, Note_on_c, 0, 68, 0
2, 17452, Note_on_c, 0, 71, 0
2, 17452, Note_on_c, 0, 46, 0
2, 17452, Note_on_c, 0, 44, 0
2, 17454, Note_on_c, 0, 48, 0
2, 17460, Note_on_c, 0, 72, 0
2, 17464, Note_on_c, 0, 65, 0
2, 17598, Note_on_c, 0, 73, 108
2, 17598, Note_on_c, 0, 49, 105
2, 17598, Note_on_c, 0, 37, 98
2, 17600, Note_on_c, 0, 61, 99
2, 17600, Note_on_c, 0, 68, 96
2, 17603, Note_on_c, 0, 44, 89
2, 17606, Note_on_c, 0, 66, 93
2, 17610, Note_on_c, 0, 61, 0
2, 17629, Note_on_c, 0, 49, 0
2, 17632, Note_on_c, 0, 73, 0
2, 17635, Note_on_c, 0, 37, 0
2, 17639, Note_on_c, 0, 66, 0
2, 17641, Note_on_c, 0, 44, 0
2, 17679, Note_on_c, 0, 68, 0
2, 17943, Note_on_c, 0, 66, 98
2, 17943, Note_on_c, 0, 73, 106
2, 17944, Note_on_c, 0, 51, 90
2, 17945, Note_on_c, 0, 44, 92
2, 17945, Note_on_c, 0, 68, 96
2, 17982, Note_on_c, 0, 66, 0
2, 17983, Note_on_c, 0, 73, 0
2, 17984, Note_on_c, 0, 68, 0
2, 18009, Note_on_c, 0, 44, 0
2, 18024, Note_on_c, 0, 51, 0
2, 18276, Note_on_c, 0, 73, 105
2, 18278, Note_on_c, 0, 65, 93
2, 18281, Note_on_c, 0, 68, 99
2, 18281, Note_on_c, 0, 49, 95
2, 18281, Note_on_c, 0, 53, 91
2, 18307, Note_on_c, 0, 65, 0
2, 18307, Note_on_c, 0, 53, 0
2, 18310, Note_on_c, 0, 68, 0
2, 18312, Note_on_c, 0, 49, 0
2, 18314, Note_on_c, 0, 73, 0
2, 18475, Note_on_c, 0, 37, 71
2, 18600, Note_on_c, 0, 85, 91
2, 18629, Note_on_c, 0, 97, 112
2, 18635, Note_on_c, 0, 92, 105
2, 18648, Note_on_c, 0, 49, 82
2, 18653, Note_on_c, 0, 44, 69
2, 18708, Note_on_c, 0, 85, 0
2, 18831, Note_on_c, 0, 37, 0
2, 18836, Note_on_c, 0, 37, 54
2, 18839, Note_on_c, 0, 44, 0
2, 18846, Note_on_c, 0, 49, 0
2, 18862, Note_on_c, 0, 97, 0
2, 18908, Note_on_c, 0, 37, 0
2, 18938, Note_on_c, 0, 92, 0
2, 18988, Note_on_c, 0, 32, 87
2, 19159, Note_on_c, 0, 44, 84
2, 19162, Note_on_c, 0, 66, 100
2, 19194, Note_on_c, 0, 32, 0
2, 19194, Note_on_c, 0, 44, 0
2, 19204, Note_on_c, 0, 66, 0
2, 19326, Note_on_c, 0, 46, 84
2, 19332, Note_on_c, 0, 66, 79
2, 19399, Note_on_c, 0, 66, 0
2, 19406, Note_on_c, 0, 66, 97
2, 19410, Note_on_c, 0, 47, 75
2, 19428, Note_on_c, 0, 46, 0
2, 19450, Note_on_c, 0, 47, 0
2, 19468, Note_on_c, 0, 66, 0
2, 19569, Note_on_c, 0, 66, 96
2, 19570, Note_on_c, 0, 49, 88
2, 19572, Note_on_c, 0, 37, 89
2, 19689, Note_on_c, 0, 66, 0
2, 19767, Note_on_c, 0, 44, 89
2, 19776, Note_on_c, 0, 49, 0
2, 19814, Note_on_c, 0, 37, 0
2, 19853, Note_on_c, 0, 44, 0
2, 19854, Note_on_c, 0, 65, 84
2, 19855, Note_on_c, 0, 51, 80
2, 19902, Note_on_c, 0, 51, 0
2, 19902, Note_on_c, 0, 65, 0
2, 20015, Note_on_c, 0, 53, 83
2, 20017, Note_on_c, 0, 63, 98
2, 20093, Note_on_c, 0, 61, 96
2, 20098, Note_on_c, 0, 53, 0
2, 20118, Note_on_c, 0, 63, 0
2, 20187, Note_on_c, 0, 37, 82
2, 20188, Note_on_c, 0, 49, 73
2, 20259, Note_on_c, 0, 37, 0
2, 20286, Note_on_c, 0, 58, 91
2, 20298, Note_on_c, 0, 49, 0
2, 20313, Note_on_c, 0, 61, 0
2, 20378, Note_on_c, 0, 42, 95
2, 20379, Note_on_c, 0, 30, 90
2, 20381, Note_on_c, 0, 61, 90
2, 20403, Note_on_c, 0, 58, 0
2, 20563, Note_on_c, 0, 58, 90
2, 20566, Note_on_c, 0, 49, 60
2, 20567, Note_on_c, 0, 30, 0
2, 20568, Note_on_c, 0, 37, 61
2, 20570, Note_on_c, 0, 61, 0
2, 20574, Note_on_c, 0, 37, 0
2, 20574, Note_on_c, 0, 42, 0
2, 20618, Note_on_c, 0, 58, 0
2, 20636, Note_on_c, 0, 49, 0
2, 20719, Note_on_c, 0, 54, 89
2, 20722, Note_on_c, 0, 61, 95
2, 20817, Note_on_c, 0, 53, 80
2, 20829, Note_on_c, 0, 54, 0
2, 20877, Note_on_c, 0, 61, 0
2, 20892, Note_on_c, 0, 53, 0
2, 20893, Note_on_c, 0, 58, 93
2, 20961, Note_on_c, 0, 58, 0
2, 20972, Note_on_c, 0, 39, 86
2, 20973, Note_on_c, 0, 51, 89
2, 20993, Note_on_c, 0, 61, 93
2, 21164, Note_on_c, 0, 58, 93
2, 21210, Note_on_c, 0, 39, 0
2, 21254, Note_on_c, 0, 51, 0
2, 21255, Note_on_c, 0, 61, 0
2, 21265, Note_on_c, 0, 46, 73
2, 21327, Note_on_c, 0, 58, 0
2, 21339, Note_on_c, 0, 46, 0
2, 21346, Note_on_c, 0, 63, 96
2, 21435, Note_on_c, 0, 54, 96
2, 21453, Note_on_c, 0, 63, 0
2, 21519, Note_on_c, 0, 46, 75
2, 21590, Note_on_c, 0, 39, 84
2, 21607, Note_on_c, 0, 46, 0
2, 21607, Note_on_c, 0, 58, 93
2, 21615, Note_on_c, 0, 54, 0
2, 21624, Note_on_c, 0, 39, 0
2, 21645, Note_on_c, 0, 58, 0
2, 21760, Note_on_c, 0, 32, 88
2, 21769, Note_on_c, 0, 58, 97
2, 21895, Note_on_c, 0, 58, 0
2, 21918, Note_on_c, 0, 32, 0
2, 21928, Note_on_c, 0, 44, 80
2, 21928, Note_on_c, 0, 32, 72
2, 21935, Note_on_c, 0, 56, 87
2, 21956, Note_on_c, 0, 32, 0
2, 21961, Note_on_c, 0, 44, 0
2, 21978, Note_on_c, 0, 56, 0
2, 22097, Note_on_c, 0, 46, 91
2, 22103, Note_on_c, 0, 56, 92
2, 22184, Note_on_c, 0, 46, 0
2, 22185, Note_on_c, 0, 56, 0
2, 22185, Note_on_c, 0, 47, 80
2, 22252, Note_on_c, 0, 47, 0
2, 22278, Note_on_c, 0, 54, 82
2, 22366, Note_on_c, 0, 54, 0
2, 22367, Note_on_c, 0, 56, 96
2, 22372, Note_on_c, 0, 37, 94
2, 22374, Note_on_c, 0, 49, 93
2, 22440, Control_c, 0, 64, 127
2, 22525, Note_on_c, 0, 49, 0
2, 22529, Control_c, 0, 64, 0
2, 22530, Note_on_c, 0, 56, 0
2, 22571, Note_on_c, 0, 37, 0
2, 22572, Note_on_c, 0, 44, 73
2, 22637, Note_on_c, 0, 44, 0
2, 22647, Note_on_c, 0, 63, 99
2, 22653, Note_on_c, 0, 51, 88
2, 22681, Note_on_c, 0, 63, 0
2, 22709, Note_on_c, 0, 51, 0
2, 22817, Note_on_c, 0, 53, 90
2, 22817, Note_on_c, 0, 63, 96
2, 22871, Note_on_c, 0, 63, 0
2, 22895, Note_on_c, 0, 63, 98
2, 22901, Note_on_c, 0, 53, 0
2, 22985, Note_on_c, 0, 37, 80
2, 23015, Note_on_c, 0, 63, 0
2, 23030, Note_on_c, 0, 37, 0
2, 23066, Note_on_c, 0, 63, 101
2, 23172, Note_on_c, 0, 40, 89
2, 23174, Note_on_c, 0, 52, 90
2, 23334, Note_on_c, 0, 61, 99
2, 23335, Note_on_c, 0, 47, 82
2, 23352, Note_on_c, 0, 40, 0
2, 23354, Note_on_c, 0, 63, 0
2, 23362, Note_on_c, 0, 52, 0
2, 23397, Note_on_c, 0, 47, 0
2, 23405, Note_on_c, 0, 61, 0
2, 23504, Note_on_c, 0, 56, 94
2, 23509, Note_on_c, 0, 61, 98
2, 23560, Note_on_c, 0, 52, 58
2, 23621, Note_on_c, 0, 56, 0
2, 23625, Note_on_c, 0, 52, 0
2, 23629, Note_on_c, 0, 47, 51
2, 23665, Note_on_c, 0, 58, 95
2, 23680, Note_on_c, 0, 47, 0
2, 23687, Note_on_c, 0, 61, 0
2, 23720, Note_on_c, 0, 58, 0
2, 23758, Note_on_c, 0, 61, 94
2, 23758, Note_on_c, 0, 39, 87
2, 23940, Note_on_c, 0, 51, 84
2, 24043, Note_on_c, 0, 39, 0
2, 24043, Note_on_c, 0, 51, 0
2, 24054, Note_on_c, 0, 61, 0
2, 24104, Note_on_c, 0, 39, 71
2, 24186, Note_on_c, 0, 39, 0
2, 24189, Note_on_c, 0, 55, 100
2, 24194, Note_on_c, 0, 63, 101
2, 24312, Note_on_c, 0, 63, 0
2, 24330, Note_on_c, 0, 55, 0
2, 24360, Control_c, 0, 64, 127
2, 24362, Note_on_c, 0, 39, 78
2, 24364, Note_on_c, 0, 65, 98
2, 24425, Control_c, 0, 64, 0
2, 24425, Note_on_c, 0, 39, 0
2, 24427, Note_on_c, 0, 65, 0
2, 24468, Note_on_c, 0, 66, 102
2, 24473, Note_on_c, 0, 63, 91
2, 24475, Note_on_c, 0, 59, 92
2, 24534, Note_on_c, 0, 35, 89
2, 24717, Note_on_c, 0, 47, 90
2, 24808, Note_on_c, 0, 51, 81
2, 24876, Note_on_c, 0, 35, 0
2, 24876, Note_on_c, 0, 47, 0
2, 24879, Note_on_c, 0, 59, 0
2, 24879, Note_on_c, 0, 51, 0
2, 24884, Note_on_c, 0, 63, 0
2, 24888, Note_on_c, 0, 54, 83
2, 24888, Note_on_c, 0, 65, 101
2, 24926, Note_on_c, 0, 54, 0
2, 24938, Note_on_c, 0, 65, 0
2, 24952, Note_on_c, 0, 66, 0
2, 25041, Note_on_c, 0, 66, 93
2, 25042, Note_on_c, 0, 35, 93
2, 25134, Note_on_c, 0, 68, 106
2, 25136, Note_on_c, 0, 66, 0
2, 25143, Note_on_c, 0, 62, 87
2, 25147, Note_on_c, 0, 47, 92
2, 25149, Note_on_c, 0, 59, 84
2, 25198, Note_on_c, 0, 35, 0
2, 25297, Note_on_c, 0, 59, 0
2, 25303, Note_on_c, 0, 47, 0
2, 25317, Note_on_c, 0, 50, 82
2, 25374, Note_on_c, 0, 50, 0
2, 25375, Note_on_c, 0, 68, 0
2, 25431, Note_on_c, 0, 62, 0
2, 25473, Note_on_c, 0, 47, 88
2, 25553, Note_on_c, 0, 53, 96
2, 25554, Note_on_c, 0, 65, 104
2, 25555, Note_on_c, 0, 56, 93
2, 25643, Note_on_c, 0, 47, 0
2, 25722, Note_on_c, 0, 47, 96
2, 25725, Note_on_c, 0, 35, 86
2, 25731, Note_on_c, 0, 63, 98
2, 25735, Note_on_c, 0, 53, 0
2, 25767, Note_on_c, 0, 47, 0
2, 25771, Note_on_c, 0, 35, 0
2, 25781, Note_on_c, 0, 56, 0
2, 25783, Note_on_c, 0, 65, 0
2, 25854, Note_on_c, 0, 63, 0
2, 25901, Note_on_c, 0, 34, 85
2, 25902, Note_on_c, 0, 46, 92
2, 25905, Note_on_c, 0, 61, 100
2, 26058, Note_on_c, 0, 46, 0
2, 26064, Note_on_c, 0, 46, 83
2, 26066, Note_on_c, 0, 58, 92
2, 26143, Note_on_c, 0, 49, 75
2, 26157, Note_on_c, 0, 46, 0
2, 26158, Note_on_c, 0, 34, 0
2, 26159, Note_on_c, 0, 58, 0
2, 26224, Note_on_c, 0, 68, 104
2, 26224, Note_on_c, 0, 53, 82
2, 26225, Note_on_c, 0, 41, 73
2, 26228, Note_on_c, 0, 49, 0
2, 26234, Note_on_c, 0, 41, 0
2, 26242, Note_on_c, 0, 61, 0
2, 26259, Note_on_c, 0, 53, 0
2, 26280, Note_on_c, 0, 68, 0
2, 26393, Note_on_c, 0, 33, 86
2, 26394, Note_on_c, 0, 70, 99
2, 26491, Note_on_c, 0, 68, 100
2, 26493, Note_on_c, 0, 45, 91
2, 26572, Note_on_c, 0, 33, 0
2, 26588, Note_on_c, 0, 45, 0
2, 26650, Note_on_c, 0, 66, 101
2, 26651, Note_on_c, 0, 49, 88
2, 26657, Note_on_c, 0, 70, 0
2, 26695, Note_on_c, 0, 68, 0
2, 26726, Note_on_c, 0, 49, 0
2, 26812, Note_on_c, 0, 45, 90
2, 26891, Note_on_c, 0, 54, 89
2, 26892, Note_on_c, 0, 49, 90
2, 27048, Note_on_c, 0, 45, 0
2, 27060, Note_on_c, 0, 45, 89
2, 27060, Note_on_c, 0, 33, 78
2, 27062, Note_on_c, 0, 61, 101
2, 27087, Note_on_c, 0, 66, 0
2, 27097, Note_on_c, 0, 49, 0
2, 27106, Note_on_c, 0, 54, 0
2, 27106, Note_on_c, 0, 45, 0
2, 27113, Note_on_c, 0, 33, 0
2, 27231, Note_on_c, 0, 59, 100
2, 27232, Note_on_c, 0, 44, 86
2, 27234, Note_on_c, 0, 32, 77
2, 27248, Note_on_c, 0, 61, 0
2, 27263, Note_on_c, 0, 44, 0
2, 27268, Note_on_c, 0, 32, 0
2, 27281, Note_on_c, 0, 59, 0
2, 27413, Note_on_c, 0, 61, 91
2, 27454, Note_on_c, 0, 61, 0
2, 27485, Note_on_c, 0, 44, 76
2, 27572, Note_on_c, 0, 54, 82
2, 27573, Note_on_c, 0, 51, 83
2, 27591, Note_on_c, 0, 59, 97
2, 27606, Note_on_c, 0, 44, 0
2, 27608, Note_on_c, 0, 51, 0
2, 27611, Note_on_c, 0, 54, 0
2, 27660, Note_on_c, 0, 59, 0
2, 27734, Note_on_c, 0, 32, 82
2, 27746, Note_on_c, 0, 61, 98
2, 27832, Note_on_c, 0, 44, 84
2, 27835, Note_on_c, 0, 59, 97
2, 28002, Note_on_c, 0, 58, 97
2, 28084, Note_on_c, 0, 46, 82
2, 28090, Note_on_c, 0, 44, 0
2, 28091, Note_on_c, 0, 59, 0
2, 28116, Note_on_c, 0, 32, 0
2, 28170, Note_on_c, 0, 54, 95
2, 28200, Note_on_c, 0, 61, 0
2, 28239, Note_on_c, 0, 46, 0
2, 28239, Note_on_c, 0, 58, 0
2, 28268, Note_on_c, 0, 47, 89
2, 28374, Note_on_c, 0, 58, 95
2, 28427, Note_on_c, 0, 32, 73
2, 28507, Note_on_c, 0, 32, 0
2, 28508, Note_on_c, 0, 47, 0
2, 28538, Note_on_c, 0, 54, 0
2, 28591, Note_on_c, 0, 58, 0
2, 28591, Note_on_c, 0, 56, 93
2, 28596, Note_on_c, 0, 37, 88
2, 28723, Control_c, 0, 64, 127
2, 28769, Control_c, 0, 64, 0
2, 28772, Note_on_c, 0, 59, 102
2, 28773, Note_on_c, 0, 54, 89
2, 28774, Note_on_c, 0, 44, 75
2, 28775, Note_on_c, 0, 49, 82
2, 28799, Note_on_c, 0, 56, 0
2, 28803, Note_on_c, 0, 37, 0
2, 28808, Note_on_c, 0, 54, 0
2, 28853, Note_on_c, 0, 44, 0
2, 28939, Note_on_c, 0, 37, 70
2, 29024, Note_on_c, 0, 54, 94
2, 29038, Note_on_c, 0, 49, 0
2, 29043, Note_on_c, 0, 44, 73
2, 29049, Note_on_c, 0, 49, 67
2, 29099, Note_on_c, 0, 37, 0
2, 29101, Note_on_c, 0, 54, 0
2, 29178, Note_on_c, 0, 37, 73
2, 29253, Note_on_c, 0, 44, 0
2, 29253, Note_on_c, 0, 49, 0
2, 29256, Note_on_c, 0, 53, 98
2, 29259, Note_on_c, 0, 44, 79
2, 29260, Note_on_c, 0, 49, 91
2, 29429, Note_on_c, 0, 49, 0
2, 29440, Note_on_c, 0, 49, 58
2, 29552, Control_c, 0, 64, 127
2, 29575, Note_on_c, 0, 53, 0
2, 29580, Note_on_c, 0, 53, 50
2, 29598, Note_on_c, 0, 49, 0
2, 29609, Note_on_c, 0, 49, 83
2, 29675, Note_on_c, 0, 44, 0
2, 29681, Note_on_c, 0, 44, 85
2, 29775, Note_on_c, 0, 37, 0
2, 29785, Note_on_c, 0, 37, 83
2, 29849, Control_c, 0, 64, 0
2, 29856, Note_on_c, 0, 49, 0
2, 29856, Note_on_c, 0, 59, 0
2, 29857, Note_on_c, 0, 37, 0
2, 29857, Note_on_c, 0, 44, 0
2, 29875, Note_on_c, 0, 53, 0
2, 29933, Note_on_c, 0, 32, 96
2, 29934, Note_on_c, 0, 44, 105
2, 29935, Note_on_c, 0, 71, 105
2, 29937, Note_on_c, 0, 66, 102
2, 29959, Control_c, 0, 64, 127
2, 30113, Note_on_c, 0, 44, 0
2, 30113, Note_on_c, 0, 71, 0
2, 30118, Note_on_c, 0, 71, 84
2, 30119, Note_on_c, 0, 78, 98
2, 30124, Note_on_c, 0, 44, 82
2, 30190, Note_on_c, 0, 66, 0
2, 30190, Note_on_c, 0, 71, 0
2, 30190, Note_on_c, 0, 78, 0
2, 30198, Note_on_c, 0, 78, 106
2, 30200, Note_on_c, 0, 71, 92
2, 30201, Note_on_c, 0, 66, 102
2, 30202, Control_c, 0, 64, 0
2, 30209, Note_on_c, 0, 59, 100
2, 30216, Note_on_c, 0, 54, 85
2, 30220, Note_on_c, 0, 51, 67
2, 30220, Note_on_c, 0, 32, 0
2, 30236, Note_on_c, 0, 44, 0
2, 30241, Note_on_c, 0, 59, 0
2, 30248, Note_on_c, 0, 54, 0
2, 30251, Note_on_c, 0, 51, 0
2, 30259, Note_on_c, 0, 66, 0
2, 30266, Note_on_c, 0, 71, 0
2, 30266, Note_on_c, 0, 78, 0
2, 30388, Note_on_c, 0, 78, 102
2, 30486, Note_on_c, 0, 44, 93
2, 30488, Note_on_c, 0, 32, 85
2, 30551, Note_on_c, 0, 78, 0
2, 30555, Note_on_c, 0, 78, 98
2, 30563, Note_on_c, 0, 32, 0
2, 30563, Note_on_c, 0, 44, 0
2, 30612, Note_on_c, 0, 78, 0
2, 30652, Note_on_c, 0, 78, 107
2, 30655, Note_on_c, 0, 66, 102
2, 30657, Note_on_c, 0, 68, 98
2, 30657, Note_on_c, 0, 73, 89
2, 30658, Note_on_c, 0, 49, 102
2, 30662, Note_on_c, 0, 37, 97
2, 30673, Control_c, 0, 64, 127
2, 30804, Note_on_c, 0, 68, 0
2, 30804, Note_on_c, 0, 73, 0
2, 30809, Note_on_c, 0, 73, 99
2, 30809, Note_on_c, 0, 68, 100
2, 30809, Note_on_c, 0, 77, 104
2, 30812, Note_on_c, 0, 49, 0
2, 30817, Note_on_c, 0, 49, 75
2, 30822, Note_on_c, 0, 61, 83
2, 30827, Note_on_c, 0, 61, 0
2, 30832, Note_on_c, 0, 53, 52
2, 30842, Note_on_c, 0, 53, 0
2, 30896, Note_on_c, 0, 49, 0
2, 30899, Note_on_c, 0, 61, 95
2, 30900, Note_on_c, 0, 53, 74
2, 30901, Note_on_c, 0, 56, 79
2, 30902, Note_on_c, 0, 49, 78
2, 30903, Note_on_c, 0, 75, 106
2, 30926, Control_c, 0, 64, 0
2, 30926, Note_on_c, 0, 66, 0
2, 30927, Note_on_c, 0, 78, 0
2, 30929, Note_on_c, 0, 68, 0
2, 30929, Note_on_c, 0, 73, 0
2, 30929, Note_on_c, 0, 77, 0
2, 30930, Note_on_c, 0, 37, 0
2, 30930, Note_on_c, 0, 61, 0
2, 30934, Note_on_c, 0, 56, 0
2, 30942, Note_on_c, 0, 53, 0
2, 30950, Note_on_c, 0, 49, 0
2, 30965, Note_on_c, 0, 75, 0
2, 31075, Note_on_c, 0, 73, 106
2, 31180, Note_on_c, 0, 49, 83
2, 31183, Note_on_c, 0, 37, 85
2, 31202, Note_on_c, 0, 73, 0
2, 31211, Note_on_c, 0, 37, 0
2, 31234, Note_on_c, 0, 49, 0
2, 31246, Note_on_c, 0, 70, 93
2, 31296, Note_on_c, 0, 70, 0
2, 31353, Note_on_c, 0, 73, 108
2, 31354, Note_on_c, 0, 46, 104
2, 31356, Note_on_c, 0, 34, 97
2, 31356, Note_on_c, 0, 70, 98
2, 31358, Note_on_c, 0, 65, 91
2, 31388, Control_c, 0, 64, 127
2, 31518, Note_on_c, 0, 46, 0
2, 31523, Note_on_c, 0, 46, 87
2, 31526, Note_on_c, 0, 65, 0
2, 31526, Note_on_c, 0, 70, 0
2, 31530, Note_on_c, 0, 70, 95
2, 31532, Note_on_c, 0, 65, 80
2, 31610, Note_on_c, 0, 65, 0
2, 31610, Note_on_c, 0, 70, 0
2, 31620, Note_on_c, 0, 65, 88
2, 31621, Note_on_c, 0, 70, 99
2, 31623, Note_on_c, 0, 61, 78
2, 31628, Note_on_c, 0, 56, 82
2, 31629, Note_on_c, 0, 53, 79
2, 31695, Note_on_c, 0, 73, 0
2, 31700, Control_c, 0, 64, 0
2, 31706, Note_on_c, 0, 34, 0
2, 31706, Note_on_c, 0, 73, 106
2, 31707, Note_on_c, 0, 46, 0
2, 31707, Note_on_c, 0, 61, 0
2, 31709, Note_on_c, 0, 56, 0
2, 31711, Note_on_c, 0, 65, 0
2, 31712, Note_on_c, 0, 53, 0
2, 31712, Note_on_c, 0, 70, 0
2, 31848, Note_on_c, 0, 73, 0
2, 31873, Note_on_c, 0, 46, 95
2, 31875, Note_on_c, 0, 34, 88
2, 31876, Note_on_c, 0, 70, 103
2, 31891, Note_on_c, 0, 46, 0
2, 31918, Note_on_c, 0, 34, 0
2, 31925, Note_on_c, 0, 70, 0
2, 32044, Note_on_c, 0, 73, 107
2, 32046, Note_on_c, 0, 70, 100
2, 32050, Note_on_c, 0, 66, 100
2, 32052, Note_on_c, 0, 51, 98
2, 32057, Note_on_c, 0, 39, 89
2, 32071, Control_c, 0, 64, 127
2, 32209, Note_on_c, 0, 51, 0
2, 32209, Note_on_c, 0, 66, 0
2, 32214, Note_on_c, 0, 54, 70
2, 32214, Note_on_c, 0, 51, 83
2, 32217, Note_on_c, 0, 75, 95
2, 32218, Note_on_c, 0, 66, 81
2, 32279, Note_on_c, 0, 54, 0
2, 32279, Note_on_c, 0, 70, 0
2, 32279, Note_on_c, 0, 75, 0
2, 32282, Note_on_c, 0, 58, 96
2, 32284, Note_on_c, 0, 70, 97
2, 32285, Note_on_c, 0, 75, 98
2, 32287, Note_on_c, 0, 54, 87
2, 32313, Control_c, 0, 64, 0
2, 32321, Note_on_c, 0, 73, 0
2, 32321, Note_on_c, 0, 58, 0
2, 32321, Note_on_c, 0, 51, 0
2, 32322, Note_on_c, 0, 75, 0
2, 32322, Note_on_c, 0, 66, 0
2, 32327, Note_on_c, 0, 54, 0
2, 32332, Note_on_c, 0, 39, 0
2, 32348, Note_on_c, 0, 70, 0
2, 32452, Note_on_c, 0, 39, 86
2, 32541, Note_on_c, 0, 51, 81
2, 32589, Note_on_c, 0, 70, 100
2, 32610, Note_on_c, 0, 51, 0
2, 32615, Note_on_c, 0, 39, 0
2, 32640, Note_on_c, 0, 70, 0
2, 32753, Note_on_c, 0, 70, 105
2, 32753, Note_on_c, 0, 32, 92
2, 32755, Note_on_c, 0, 44, 103
2, 32757, Note_on_c, 0, 63, 98
2, 32758, Note_on_c, 0, 66, 101
2, 32778, Control_c, 0, 64, 127
2, 32908, Note_on_c, 0, 32, 0
2, 32908, Note_on_c, 0, 44, 0
2, 32916, Note_on_c, 0, 66, 0
2, 32918, Note_on_c, 0, 44, 82
2, 32919, Note_on_c, 0, 32, 74
2, 32920, Note_on_c, 0, 68, 104
2, 32920, Note_on_c, 0, 66, 95
2, 33009, Note_on_c, 0, 59, 93
2, 33019, Note_on_c, 0, 54, 77
2, 33019, Control_c, 0, 64, 0
2, 33020, Note_on_c, 0, 51, 70
2, 33042, Note_on_c, 0, 63, 0
2, 33043, Note_on_c, 0, 44, 0
2, 33044, Note_on_c, 0, 66, 0
2, 33045, Note_on_c, 0, 32, 0
2, 33051, Note_on_c, 0, 70, 0
2, 33052, Note_on_c, 0, 59, 0
2, 33077, Note_on_c, 0, 68, 0
2, 33081, Note_on_c, 0, 68, 105
2, 33085, Note_on_c, 0, 54, 0
2, 33100, Note_on_c, 0, 51, 0
2, 33182, Note_on_c, 0, 66, 92
2, 33212, Note_on_c, 0, 68, 0
2, 33237, Note_on_c, 0, 66, 0
2, 33258, Note_on_c, 0, 32, 84
2, 33258, Note_on_c, 0, 44, 89
2, 33323, Note_on_c, 0, 32, 0
2, 33331, Note_on_c, 0, 44, 0
2, 33337, Note_on_c, 0, 68, 104
2, 33433, Note_on_c, 0, 65, 101
2, 33435, Note_on_c, 0, 61, 105
2, 33443, Note_on_c, 0, 49, 104
2, 33451, Note_on_c, 0, 37, 96
2, 33469, Control_c, 0, 64, 127
2, 33592, Note_on_c, 0, 49, 0
2, 33600, Note_on_c, 0, 61, 0
2, 33601, Note_on_c, 0, 49, 75
2, 33607, Note_on_c, 0, 65, 0
2, 33610, Note_on_c, 0, 61, 93
2, 33611, Note_on_c, 0, 65, 95
2, 33612, Note_on_c, 0, 75, 96
2, 33669, Note_on_c, 0, 49, 0
2, 33675, Note_on_c, 0, 56, 81
2, 33677, Note_on_c, 0, 53, 84
2, 33678, Note_on_c, 0, 49, 84
2, 33743, Control_c, 0, 64, 0
2, 33768, Note_on_c, 0, 75, 0
2, 33773, Note_on_c, 0, 75, 102
2, 33787, Note_on_c, 0, 68, 0
2, 33787, Note_on_c, 0, 49, 0
2, 33789, Note_on_c, 0, 61, 0
2, 33792, Note_on_c, 0, 53, 0
2, 33804, Note_on_c, 0, 65, 0
2, 33815, Note_on_c, 0, 56, 0
2, 33822, Note_on_c, 0, 37, 0
2, 33853, Note_on_c, 0, 75, 0
2, 33861, Note_on_c, 0, 75, 97
2, 33920, Note_on_c, 0, 75, 0
2, 33950, Note_on_c, 0, 49, 80
2, 33953, Note_on_c, 0, 37, 82
2, 33988, Note_on_c, 0, 49, 0
2, 33988, Note_on_c, 0, 37, 0
2, 34026, Note_on_c, 0, 75, 106
2, 34125, Note_on_c, 0, 68, 106
2, 34127, Note_on_c, 0, 64, 98
2, 34132, Note_on_c, 0, 52, 100
2, 34133, Note_on_c, 0, 40, 95
2, 34160, Control_c, 0, 64, 127
2, 34283, Note_on_c, 0, 52, 0
2, 34291, Note_on_c, 0, 64, 0
2, 34291, Note_on_c, 0, 68, 0
2, 34294, Note_on_c, 0, 52, 86
2, 34294, Note_on_c, 0, 73, 105
2, 34296, Note_on_c, 0, 56, 72
2, 34296, Note_on_c, 0, 64, 93
2, 34299, Note_on_c, 0, 68, 93
2, 34383, Note_on_c, 0, 56, 0
2, 34383, Note_on_c, 0, 64, 0
2, 34383, Note_on_c, 0, 68, 0
2, 34389, Note_on_c, 0, 59, 90
2, 34389, Note_on_c, 0, 56, 83
2, 34391, Note_on_c, 0, 68, 92
2, 34392, Note_on_c, 0, 64, 85
2, 34444, Note_on_c, 0, 73, 0
2, 34448, Note_on_c, 0, 73, 105
2, 34456, Control_c, 0, 64, 0
2, 34467, Note_on_c, 0, 75, 0
2, 34471, Note_on_c, 0, 52, 0
2, 34471, Note_on_c, 0, 59, 0
2, 34472, Note_on_c, 0, 56, 0
2, 34472, Note_on_c, 0, 64, 0
2, 34472, Note_on_c, 0, 68, 0
2, 34483, Note_on_c, 0, 40, 0
2, 34546, Note_on_c, 0, 70, 96
2, 34583, Note_on_c, 0, 73, 0
2, 34593, Note_on_c, 0, 70, 0
2, 34612, Note_on_c, 0, 52, 93
2, 34614, Note_on_c, 0, 40, 89
2, 34656, Note_on_c, 0, 52, 0
2, 34662, Note_on_c, 0, 40, 0
2, 34717, Note_on_c, 0, 73, 105
2, 34816, Note_on_c, 0, 67, 104
2, 34817, Note_on_c, 0, 63, 101
2, 34818, Note_on_c, 0, 51, 95
2, 34818, Note_on_c, 0, 39, 90
2, 34828, Control_c, 0, 64, 127
2, 34967, Note_on_c, 0, 67, 0
2, 34967, Note_on_c, 0, 73, 0
2, 34974, Note_on_c, 0, 73, 79
2, 34974, Note_on_c, 0, 51, 0
2, 34978, Note_on_c, 0, 67, 91
2, 34985, Note_on_c, 0, 51, 87
2, 34993, Note_on_c, 0, 58, 81
2, 35051, Note_on_c, 0, 67, 0
2, 35059, Note_on_c, 0, 63, 0
2, 35060, Note_on_c, 0, 67, 98
2, 35063, Note_on_c, 0, 63, 94
2, 35066, Note_on_c, 0, 58, 0
2, 35077, Note_on_c, 0, 58, 86
2, 35079, Note_on_c, 0, 55, 83
2, 35122, Control_c, 0, 64, 0
2, 35147, Note_on_c, 0, 58, 0
2, 35147, Note_on_c, 0, 55, 0
2, 35147, Note_on_c, 0, 39, 0
2, 35147, Note_on_c, 0, 63, 0
2, 35149, Note_on_c, 0, 67, 0
2, 35150, Note_on_c, 0, 73, 0
2, 35159, Note_on_c, 0, 75, 105
2, 35166, Note_on_c, 0, 51, 0
2, 35251, Note_on_c, 0, 75, 0
2, 35323, Note_on_c, 0, 77, 104
2, 35331, Note_on_c, 0, 51, 86
2, 35332, Note_on_c, 0, 39, 87
2, 35356, Note_on_c, 0, 51, 0
2, 35419, Note_on_c, 0, 78, 107
2, 35435, Note_on_c, 0, 39, 0
2, 35443, Note_on_c, 0, 77, 0
2, 35503, Note_on_c, 0, 71, 102
2, 35506, Note_on_c, 0, 47, 108
2, 35508, Note_on_c, 0, 35, 94
2, 35508, Note_on_c, 0, 66, 93
2, 35535, Control_c, 0, 64, 127
2, 35665, Note_on_c, 0, 47, 0
2, 35665, Note_on_c, 0, 71, 0
2, 35670, Note_on_c, 0, 71, 89
2, 35673, Note_on_c, 0, 47, 86
2, 35750, Note_on_c, 0, 66, 0
2, 35759, Note_on_c, 0, 66, 93
2, 35775, Note_on_c, 0, 59, 90
2, 35777, Note_on_c, 0, 54, 77
2, 35778, Note_on_c, 0, 51, 79
2, 35798, Control_c, 0, 64, 0
2, 35806, Note_on_c, 0, 71, 0
2, 35808, Note_on_c, 0, 78, 0
2, 35808, Note_on_c, 0, 66, 0
2, 35809, Note_on_c, 0, 59, 0
2, 35810, Note_on_c, 0, 35, 0
2, 35815, Note_on_c, 0, 51, 0
2, 35827, Note_on_c, 0, 47, 0
2, 35840, Note_on_c, 0, 77, 102
2, 35850, Note_on_c, 0, 54, 0
2, 35893, Note_on_c, 0, 77, 0
2, 36006, Note_on_c, 0, 47, 98
2, 36006, Note_on_c, 0, 78, 104
2, 36008, Note_on_c, 0, 35, 85
2, 36041, Note_on_c, 0, 47, 0
2, 36088, Note_on_c, 0, 35, 0
2, 36096, Note_on_c, 0, 80, 103
2, 36120, Note_on_c, 0, 78, 0
2, 36199, Note_on_c, 0, 68, 104
2, 36199, Note_on_c, 0, 74, 105
2, 36199, Note_on_c, 0, 47, 105
2, 36202, Note_on_c, 0, 35, 90
2, 36218, Control_c, 0, 64, 127
2, 36341, Note_on_c, 0, 68, 0
2, 36341, Note_on_c, 0, 74, 0
2, 36346, Note_on_c, 0, 68, 99
2, 36347, Note_on_c, 0, 74, 95
2, 36349, Note_on_c, 0, 47, 0
2, 36352, Note_on_c, 0, 35, 0
2, 36356, Note_on_c, 0, 47, 91
2, 36433, Note_on_c, 0, 68, 0
2, 36443, Note_on_c, 0, 68, 95
2, 36445, Note_on_c, 0, 56, 82
2, 36447, Note_on_c, 0, 74, 0
2, 36447, Control_c, 0, 64, 0
2, 36450, Note_on_c, 0, 47, 0
2, 36451, Note_on_c, 0, 53, 80
2, 36451, Note_on_c, 0, 80, 0
2, 36455, Note_on_c, 0, 50, 81
2, 36477, Note_on_c, 0, 56, 0
2, 36491, Note_on_c, 0, 50, 0
2, 36493, Note_on_c, 0, 53, 0
2, 36518, Note_on_c, 0, 68, 0
2, 36538, Note_on_c, 0, 77, 106
2, 36610, Note_on_c, 0, 77, 0
2, 36713, Note_on_c, 0, 47, 95
2, 36715, Note_on_c, 0, 75, 102
2, 36715, Note_on_c, 0, 35, 90
2, 36750, Note_on_c, 0, 47, 0
2, 36751, Note_on_c, 0, 35, 0
2, 36780, Note_on_c, 0, 75, 0
2, 36885, Note_on_c, 0, 73, 108
2, 36890, Note_on_c, 0, 46, 105
2, 36890, Note_on_c, 0, 65, 98
2, 36891, Note_on_c, 0, 34, 95
2, 36897, Note_on_c, 0, 70, 94
2, 36925, Control_c, 0, 64, 127
2, 37032, Note_on_c, 0, 70, 0
2, 37040, Note_on_c, 0, 65, 0
2, 37042, Note_on_c, 0, 70, 77
2, 37044, Note_on_c, 0, 58, 79
2, 37044, Note_on_c, 0, 65, 87
2, 37049, Note_on_c, 0, 53, 69
2, 37125, Note_on_c, 0, 53, 0
2, 37132, Note_on_c, 0, 58, 0
2, 37132, Note_on_c, 0, 65, 0
2, 37132, Note_on_c, 0, 70, 0
2, 37135, Note_on_c, 0, 53, 84
2, 37137, Note_on_c, 0, 65, 86
2, 37137, Note_on_c, 0, 56, 75
2, 37137, Note_on_c, 0, 58, 85
2, 37138, Note_on_c, 0, 70, 98
2, 37238, Note_on_c, 0, 80, 101
2, 37393, Note_on_c, 0, 34, 0
2, 37393, Note_on_c, 0, 46, 0
2, 37402, Note_on_c, 0, 46, 96
2, 37403, Note_on_c, 0, 34, 87
2, 37404, Note_on_c, 0, 82, 107
2, 37412, Control_c, 0, 64, 0
2, 37416, Note_on_c, 0, 53, 0
2, 37416, Note_on_c, 0, 65, 0
2, 37418, Note_on_c, 0, 73, 0
2, 37427, Note_on_c, 0, 80, 0
2, 37428, Note_on_c, 0, 70, 0
2, 37447, Note_on_c, 0, 56, 0
2, 37452, Note_on_c, 0, 82, 0
2, 37455, Note_on_c, 0, 46, 0
2, 37455, Note_on_c, 0, 58, 0
2, 37463, Note_on_c, 0, 34, 0
2, 37573, Note_on_c, 0, 80, 108
2, 37580, Note_on_c, 0, 73, 103
2, 37581, Note_on_c, 0, 69, 97
2, 37581, Note_on_c, 0, 45, 103
2, 37582, Note_on_c, 0, 33, 93
2, 37608, Control_c, 0, 64, 127
2, 37734, Note_on_c, 0, 78, 92
2, 37739, Note_on_c, 0, 45, 0
2, 37745, Note_on_c, 0, 45, 82
2, 37816, Note_on_c, 0, 78, 0
2, 37820, Note_on_c, 0, 78, 106
2, 37820, Note_on_c, 0, 57, 97
2, 37824, Note_on_c, 0, 45, 0
2, 37828, Note_on_c, 0, 54, 82
2, 37831, Note_on_c, 0, 49, 81
2, 37835, Note_on_c, 0, 45, 89
2, 38069, Note_on_c, 0, 45, 0
2, 38076, Note_on_c, 0, 45, 93
2, 38077, Note_on_c, 0, 33, 0
2, 38081, Note_on_c, 0, 80, 0
2, 38081, Note_on_c, 0, 33, 81
2, 38083, Note_on_c, 0, 54, 0
2, 38084, Note_on_c, 0, 78, 0
2, 38085, Note_on_c, 0, 49, 0
2, 38085, Note_on_c, 0, 57, 0
2, 38096, Note_on_c, 0, 71, 89
2, 38099, Control_c, 0, 64, 0
2, 38100, Note_on_c, 0, 69, 0
2, 38108, Note_on_c, 0, 73, 0
2, 38116, Note_on_c, 0, 73, 109
2, 38138, Note_on_c, 0, 33, 0
2, 38143, Note_on_c, 0, 71, 0
2, 38146, Note_on_c, 0, 45, 0
2, 38217, Note_on_c, 0, 73, 0
2, 38282, Note_on_c, 0, 44, 98
2, 38282, Note_on_c, 0, 71, 103
2, 38282, Note_on_c, 0, 32, 95
2, 38384, Control_c, 0, 64, 127
2, 38457, Note_on_c, 0, 73, 102
2, 38484, Note_on_c, 0, 44, 0
2, 38584, Control_c, 0, 64, 0
2, 38628, Note_on_c, 0, 59, 94
2, 38629, Note_on_c, 0, 75, 100
2, 38634, Note_on_c, 0, 51, 83
2, 38638, Note_on_c, 0, 54, 82
2, 38643, Note_on_c, 0, 63, 80
2, 38768, Note_on_c, 0, 73, 0
2, 38779, Note_on_c, 0, 73, 100
2, 38807, Note_on_c, 0, 32, 0
2, 38817, Note_on_c, 0, 54, 0
2, 38818, Note_on_c, 0, 63, 0
2, 38818, Note_on_c, 0, 59, 0
2, 38819, Note_on_c, 0, 51, 0
2, 38820, Note_on_c, 0, 75, 0
2, 38853, Note_on_c, 0, 71, 0
2, 38859, Note_on_c, 0, 71, 94
2, 38898, Note_on_c, 0, 49, 93
2, 38900, Note_on_c, 0, 37, 93
2, 38929, Note_on_c, 0, 73, 0
2, 39053, Note_on_c, 0, 70, 105
2, 39114, Note_on_c, 0, 71, 0
2, 39167, Note_on_c, 0, 61, 87
2, 39172, Note_on_c, 0, 54, 79
2, 39206, Note_on_c, 0, 49, 0
2, 39220, Note_on_c, 0, 68, 101
2, 39336, Note_on_c, 0, 37, 0
2, 39341, Note_on_c, 0, 49, 80
2, 39341, Note_on_c, 0, 37, 77
2, 39413, Note_on_c, 0, 66, 89
2, 39482, Note_on_c, 0, 68, 0
2, 39488, Note_on_c, 0, 68, 99
2, 39546, Note_on_c, 0, 37, 0
2, 39546, Note_on_c, 0, 61, 0
2, 39547, Note_on_c, 0, 49, 0
2, 39547, Note_on_c, 0, 70, 0
2, 39548, Note_on_c, 0, 66, 0
2, 39553, Note_on_c, 0, 54, 0
2, 39652, Note_on_c, 0, 66, 93
2, 39655, Note_on_c, 0, 30, 92
2, 39655, Note_on_c, 0, 42, 87
2, 39685, Note_on_c, 0, 30, 0
2, 39728, Note_on_c, 0, 68, 0
2, 39744, Note_on_c, 0, 42, 0
2, 39859, Note_on_c, 0, 56, 82
2, 39861, Note_on_c, 0, 61, 89
2, 39863, Note_on_c, 0, 54, 76
2, 39866, Note_on_c, 0, 49, 77
2, 39886, Note_on_c, 0, 56, 0
2, 39894, Note_on_c, 0, 49, 0
2, 40056, Note_on_c, 0, 42, 68
2, 40112, Note_on_c, 0, 61, 0
2, 40120, Note_on_c, 0, 61, 87
2, 40120, Note_on_c, 0, 54, 0
2, 40123, Note_on_c, 0, 56, 73
2, 40127, Note_on_c, 0, 54, 69
2, 40130, Note_on_c, 0, 49, 74
2, 40155, Note_on_c, 0, 56, 0
2, 40156, Note_on_c, 0, 61, 0
2, 40158, Note_on_c, 0, 42, 0
2, 40189, Note_on_c, 0, 49, 0
2, 40212, Note_on_c, 0, 54, 0
2, 40292, Note_on_c, 0, 42, 63
2, 40358, Note_on_c, 0, 66, 0
2, 40381, Note_on_c, 0, 54, 75
2, 40384, Note_on_c, 0, 49, 72
2, 40385, Note_on_c, 0, 56, 72
2, 40385, Note_on_c, 0, 61, 79
2, 40734, Note_on_c, 0, 75, 93
2, 40842, Control_c, 0, 64, 127
2, 40913, Note_on_c, 0, 78, 93
2, 41044, Note_on_c, 0, 42, 0
2, 41045, Note_on_c, 0, 49, 0
2, 41045, Note_on_c, 0, 61, 0
2, 41048, Note_on_c, 0, 54, 0
2, 41049, Note_on_c, 0, 78, 0
2, 41051, Control_c, 0, 64, 0
2, 41057, Note_on_c, 0, 56, 0
2, 41086, Note_on_c, 0, 59, 92
2, 41087, Note_on_c, 0, 80, 100
2, 41088, Note_on_c, 0, 75, 0
2, 41093, Note_on_c, 0, 71, 88
2, 41093, Note_on_c, 0, 54, 77
2, 41094, Note_on_c, 0, 51, 77
2, 41097, Note_on_c, 0, 44, 84
2, 41098, Note_on_c, 0, 75, 86
2, 41123, Note_on_c, 0, 75, 0
2, 41128, Note_on_c, 0, 71, 0
2, 41130, Note_on_c, 0, 59, 0
2, 41135, Note_on_c, 0, 54, 0
2, 41136, Note_on_c, 0, 44, 0
2, 41139, Note_on_c, 0, 51, 0
2, 41256, Note_on_c, 0, 80, 0
2, 41270, Note_on_c, 0, 82, 101
2, 41274, Note_on_c, 0, 59, 87
2, 41277, Note_on_c, 0, 75, 86
2, 41279, Note_on_c, 0, 51, 74
2, 41282, Note_on_c, 0, 44, 78
2, 41282, Note_on_c, 0, 54, 76
2, 41285, Note_on_c, 0, 71, 71
2, 41387, Control_c, 0, 64, 127
2, 41435, Note_on_c, 0, 80, 97
2, 41533, Note_on_c, 0, 78, 106
2, 41544, Note_on_c, 0, 66, 99
2, 41548, Note_on_c, 0, 63, 85
2, 41552, Note_on_c, 0, 56, 85
2, 41728, Control_c, 0, 64, 0
2, 41770, Note_on_c, 0, 54, 0
2, 41771, Note_on_c, 0, 56, 0
2, 41771, Note_on_c, 0, 63, 0
2, 41771, Note_on_c, 0, 66, 0
2, 41773, Note_on_c, 0, 78, 0
2, 41774, Note_on_c, 0, 59, 0
2, 41775, Note_on_c, 0, 44, 0
2, 41776, Note_on_c, 0, 56, 88
2, 41780, Note_on_c, 0, 66, 94
2, 41782, Note_on_c, 0, 63, 88
2, 41786, Note_on_c, 0, 71, 0
2, 41792, Note_on_c, 0, 71, 103
2, 41802, Note_on_c, 0, 75, 0
2, 41802, Note_on_c, 0, 80, 0
2, 41812, Note_on_c, 0, 75, 96
2, 41812, Note_on_c, 0, 80, 101
2, 41825, Control_c, 0, 64, 127
2, 41848, Note_on_c, 0, 82, 0
2, 41863, Note_on_c, 0, 51, 0
2, 41949, Control_c, 0, 64, 0
2, 41971, Note_on_c, 0, 63, 0
2, 41971, Note_on_c, 0, 66, 0
2, 41986, Note_on_c, 0, 56, 0
2, 41990, Note_on_c, 0, 80, 0
2, 41992, Note_on_c, 0, 75, 0
2, 42001, Note_on_c, 0, 71, 0
2, 42156, Note_on_c, 0, 75, 98
2, 42190, Note_on_c, 0, 75, 0
2, 42330, Note_on_c, 0, 78, 101
2, 42408, Note_on_c, 0, 78, 0
2, 42506, Note_on_c, 0, 80, 100
2, 42512, Note_on_c, 0, 74, 92
2, 42515, Note_on_c, 0, 46, 88
2, 42515, Note_on_c, 0, 53, 85
2, 42517, Note_on_c, 0, 56, 90
2, 42559, Note_on_c, 0, 56, 0
2, 42559, Note_on_c, 0, 53, 0
2, 42567, Note_on_c, 0, 46, 0
2, 42567, Note_on_c, 0, 74, 0
2, 42684, Note_on_c, 0, 82, 106
2, 42688, Note_on_c, 0, 74, 99
2, 42695, Note_on_c, 0, 56, 90
2, 42696, Note_on_c, 0, 46, 89
2, 42698, Note_on_c, 0, 53, 85
2, 42739, Control_c, 0, 64, 127
2, 42846, Note_on_c, 0, 74, 0
2, 42846, Note_on_c, 0, 80, 0
2, 42850, Note_on_c, 0, 80, 95
2, 42851, Note_on_c, 0, 74, 90
2, 42950, Note_on_c, 0, 78, 105
2, 42954, Note_on_c, 0, 74, 0
2, 42959, Note_on_c, 0, 68, 96
2, 42961, Note_on_c, 0, 58, 87
2, 42962, Note_on_c, 0, 65, 90
2, 42963, Note_on_c, 0, 74, 84
2, 43153, Note_on_c, 0, 58, 0
2, 43162, Note_on_c, 0, 58, 82
2, 43215, Note_on_c, 0, 58, 0
2, 43215, Note_on_c, 0, 65, 0
2, 43215, Note_on_c, 0, 68, 0
2, 43215, Note_on_c, 0, 74, 0
2, 43215, Note_on_c, 0, 80, 0
2, 43220, Note_on_c, 0, 58, 87
2, 43225, Note_on_c, 0, 68, 105
2, 43225, Note_on_c, 0, 80, 105
2, 43225, Note_on_c, 0, 65, 87
2, 43225, Note_on_c, 0, 70, 103
2, 43226, Note_on_c, 0, 74, 98
2, 43436, Control_c, 0, 64, 0
2, 43457, Note_on_c, 0, 78, 0
2, 43457, Note_on_c, 0, 65, 0
2, 43457, Note_on_c, 0, 58, 0
2, 43457, Note_on_c, 0, 82, 0
2, 43457, Note_on_c, 0, 68, 0
2, 43457, Note_on_c, 0, 56, 0
2, 43457, Note_on_c, 0, 53, 0
2, 43458, Note_on_c, 0, 70, 0
2, 43459, Note_on_c, 0, 74, 0
2, 43476, Note_on_c, 0, 46, 0
2, 43593, Note_on_c, 0, 75, 107
2, 43763, Note_on_c, 0, 78, 108
2, 43791, Control_c, 0, 64, 127
2, 43806, Note_on_c, 0, 75, 0
2, 43814, Note_on_c, 0, 80, 0
2, 43929, Note_on_c, 0, 78, 0
2, 43932, Note_on_c, 0, 51, 101
2, 43934, Note_on_c, 0, 82, 107
2, 43936, Note_on_c, 0, 39, 90
2, 43938, Note_on_c, 0, 78, 96
2, 43940, Note_on_c, 0, 75, 96
2, 44098, Note_on_c, 0, 51, 0
2, 44103, Note_on_c, 0, 51, 93
2, 44106, Note_on_c, 0, 82, 0
2, 44113, Note_on_c, 0, 78, 0
2, 44115, Note_on_c, 0, 54, 78
2, 44117, Note_on_c, 0, 82, 102
2, 44121, Note_on_c, 0, 75, 0
2, 44124, Note_on_c, 0, 78, 82
2, 44126, Note_on_c, 0, 75, 78
2, 44212, Note_on_c, 0, 58, 80
2, 44275, Note_on_c, 0, 51, 0
2, 44275, Note_on_c, 0, 54, 0
2, 44282, Note_on_c, 0, 75, 0
2, 44282, Note_on_c, 0, 78, 0
2, 44282, Note_on_c, 0, 82, 0
2, 44284, Note_on_c, 0, 51, 69
2, 44286, Note_on_c, 0, 54, 71
2, 44288, Note_on_c, 0, 78, 91
2, 44293, Note_on_c, 0, 82, 92
2, 44294, Note_on_c, 0, 75, 90
2, 44359, Note_on_c, 0, 58, 0
2, 44369, Note_on_c, 0, 58, 90
2, 44455, Note_on_c, 0, 83, 103
2, 44467, Note_on_c, 0, 51, 0
2, 44471, Note_on_c, 0, 51, 77
2, 44567, Control_c, 0, 64, 0
2, 44573, Note_on_c, 0, 83, 0
2, 44575, Note_on_c, 0, 75, 0
2, 44576, Note_on_c, 0, 39, 0
2, 44576, Note_on_c, 0, 78, 0
2, 44577, Note_on_c, 0, 54, 0
2, 44577, Note_on_c, 0, 58, 0
2, 44578, Note_on_c, 0, 51, 0
2, 44605, Note_on_c, 0, 82, 0
2, 44616, Note_on_c, 0, 82, 106
2, 44618, Note_on_c, 0, 50, 96
2, 44618, Note_on_c, 0, 38, 94
2, 44620, Note_on_c, 0, 74, 98
2, 44623, Note_on_c, 0, 77, 89
2, 44720, Control_c, 0, 64, 127
2, 44791, Note_on_c, 0, 80, 97
2, 44800, Note_on_c, 0, 58, 95
2, 44803, Note_on_c, 0, 53, 85
2, 44805, Note_on_c, 0, 50, 0
2, 44811, Note_on_c, 0, 50, 72
2, 44866, Note_on_c, 0, 50, 0
2, 44871, Note_on_c, 0, 50, 73
2, 44874, Note_on_c, 0, 78, 105
2, 44958, Note_on_c, 0, 58, 0
2, 44964, Note_on_c, 0, 58, 73
2, 45050, Note_on_c, 0, 50, 0
2, 45062, Note_on_c, 0, 50, 75
2, 45135, Note_on_c, 0, 53, 0
2, 45143, Note_on_c, 0, 58, 0
2, 45146, Note_on_c, 0, 53, 90
2, 45147, Note_on_c, 0, 58, 92
2, 45163, Note_on_c, 0, 75, 99
2, 45254, Note_on_c, 0, 38, 0
2, 45255, Note_on_c, 0, 74, 0
2, 45256, Note_on_c, 0, 82, 0
2, 45257, Note_on_c, 0, 53, 0
2, 45257, Note_on_c, 0, 58, 0
2, 45257, Note_on_c, 0, 80, 0
2, 45257, Note_on_c, 0, 78, 0
2, 45257, Note_on_c, 0, 77, 0
2, 45258, Note_on_c, 0, 75, 0
2, 45258, Control_c, 0, 64, 0
2, 45273, Note_on_c, 0, 50, 0
2, 45341, Note_on_c, 0, 37, 95
2, 45345, Note_on_c, 0, 82, 109
2, 45345, Note_on_c, 0, 49, 98
2, 45348, Note_on_c, 0, 78, 85
2, 45351, Note_on_c, 0, 73, 92
2, 45388, Control_c, 0, 64, 127
2, 45404, Note_on_c, 0, 49, 0
2, 45501, Note_on_c, 0, 49, 91
2, 45517, Note_on_c, 0, 54, 83
2, 45519, Note_on_c, 0, 82, 0
2, 45523, Note_on_c, 0, 82, 99
2, 45527, Note_on_c, 0, 78, 0
2, 45538, Note_on_c, 0, 78, 83
2, 45615, Note_on_c, 0, 58, 82
2, 45665, Note_on_c, 0, 49, 0
2, 45676, Note_on_c, 0, 49, 88
2, 45688, Note_on_c, 0, 54, 0
2, 45688, Note_on_c, 0, 73, 0
2, 45688, Note_on_c, 0, 82, 0
2, 45696, Note_on_c, 0, 78, 0
2, 45698, Note_on_c, 0, 82, 96
2, 45698, Note_on_c, 0, 73, 96
2, 45699, Note_on_c, 0, 54, 75
2, 45700, Note_on_c, 0, 78, 73
2, 45765, Note_on_c, 0, 58, 0
2, 45771, Note_on_c, 0, 58, 85
2, 45857, Note_on_c, 0, 49, 0
2, 45857, Note_on_c, 0, 54, 0
2, 45861, Note_on_c, 0, 83, 101
2, 45864, Note_on_c, 0, 54, 86
2, 45868, Note_on_c, 0, 49, 92
2, 45977, Note_on_c, 0, 73, 0
2, 45977, Note_on_c, 0, 83, 0
2, 45978, Note_on_c, 0, 58, 0
2, 45978, Note_on_c, 0, 78, 0
2, 45979, Note_on_c, 0, 82, 0
2, 45979, Note_on_c, 0, 54, 0
2, 45979, Note_on_c, 0, 49, 0
2, 45980, Note_on_c, 0, 37, 0
2, 45983, Control_c, 0, 64, 0
2, 46026, Note_on_c, 0, 48, 97
2, 46031, Note_on_c, 0, 36, 93
2, 46036, Note_on_c, 0, 82, 107
2, 46038, Note_on_c, 0, 78, 85
2, 46038, Note_on_c, 0, 75, 92
2, 46080, Control_c, 0, 64, 127
2, 46202, Note_on_c, 0, 80, 93
2, 46207, Note_on_c, 0, 56, 83
2, 46214, Note_on_c, 0, 51, 85
2, 46272, Note_on_c, 0, 78, 0
2, 46279, Note_on_c, 0, 48, 0
2, 46281, Note_on_c, 0, 78, 106
2, 46284, Note_on_c, 0, 48, 83
2, 46464, Note_on_c, 0, 48, 0
2, 46474, Note_on_c, 0, 48, 73
2, 46548, Note_on_c, 0, 51, 0
2, 46548, Note_on_c, 0, 56, 0
2, 46557, Note_on_c, 0, 56, 81
2, 46558, Note_on_c, 0, 51, 72
2, 46590, Note_on_c, 0, 73, 104
2, 46709, Note_on_c, 0, 36, 0
2, 46710, Control_c, 0, 64, 0
2, 46714, Note_on_c, 0, 73, 0
2, 46714, Note_on_c, 0, 78, 0
2, 46714, Note_on_c, 0, 80, 0
2, 46715, Note_on_c, 0, 48, 0
2, 46715, Note_on_c, 0, 82, 0
2, 46715, Note_on_c, 0, 75, 0
2, 46716, Note_on_c, 0, 56, 0
2, 46717, Note_on_c, 0, 51, 0
2, 46767, Note_on_c, 0, 73, 102
2, 46774, Note_on_c, 0, 52, 91
2, 46774, Note_on_c, 0, 47, 89
2, 46774, Note_on_c, 0, 40, 91
2, 46878, Control_c, 0, 64, 127
2, 46931, Note_on_c, 0, 71, 96
2, 47110, Note_on_c, 0, 70, 93
2, 47255, Note_on_c, 0, 71, 0
2, 47259, Note_on_c, 0, 71, 91
2, 47307, Note_on_c, 0, 28, 88
2, 47343, Note_on_c, 0, 78, 108
2, 47669, Note_on_c, 0, 40, 0
2, 47676, Note_on_c, 0, 40, 64
2, 47723, Note_on_c, 0, 47, 0
2, 47734, Note_on_c, 0, 47, 73
2, 47815, Note_on_c, 0, 52, 0
2, 47820, Note_on_c, 0, 52, 66
2, 47909, Note_on_c, 0, 54, 65
2, 47982, Note_on_c, 0, 59, 76
2, 48073, Note_on_c, 0, 61, 79
2, 48176, Note_on_c, 0, 54, 0
2, 48182, Control_c, 0, 64, 0
2, 48182, Note_on_c, 0, 66, 97
2, 48184, Note_on_c, 0, 54, 86
2, 48185, Note_on_c, 0, 44, 77
2, 48196, Note_on_c, 0, 61, 0
2, 48199, Note_on_c, 0, 28, 0
2, 48200, Note_on_c, 0, 40, 0
2, 48201, Note_on_c, 0, 59, 0
2, 48201, Note_on_c, 0, 70, 0
2, 48201, Note_on_c, 0, 73, 0
2, 48201, Note_on_c, 0, 52, 0
2, 48202, Note_on_c, 0, 71, 0
2, 48215, Note_on_c, 0, 47, 0
2, 48322, Control_c, 0, 64, 127
2, 48464, Note_on_c, 0, 51, 67
2, 48729, Note_on_c, 0, 54, 0
2, 48737, Note_on_c, 0, 78, 0
2, 48740, Note_on_c, 0, 59, 92
2, 48740, Note_on_c, 0, 54, 92
2, 48741, Note_on_c, 0, 78, 103
2, 48764, Control_c, 0, 64, 0
2, 48775, Note_on_c, 0, 66, 0
2, 48783, Control_c, 0, 64, 127
2, 48915, Note_on_c, 0, 80, 104
2, 49090, Note_on_c, 0, 78, 0
2, 49096, Note_on_c, 0, 78, 96
2, 49259, Note_on_c, 0, 80, 0
2, 49267, Note_on_c, 0, 44, 0
2, 49268, Note_on_c, 0, 80, 98
2, 49271, Note_on_c, 0, 44, 82
2, 49436, Note_on_c, 0, 78, 0
2, 49442, Note_on_c, 0, 78, 98
2, 49546, Note_on_c, 0, 80, 0
2, 49547, Note_on_c, 0, 44, 0
2, 49547, Note_on_c, 0, 59, 0
2, 49548, Note_on_c, 0, 78, 0
2, 49548, Note_on_c, 0, 54, 0
2, 49554, Control_c, 0, 64, 0
2, 49559, Note_on_c, 0, 51, 0
2, 49616, Note_on_c, 0, 78, 100
2, 49619, Note_on_c, 0, 68, 94
2, 49622, Note_on_c, 0, 49, 89
2, 49623, Note_on_c, 0, 37, 85
2, 49624, Note_on_c, 0, 73, 79
2, 49624, Note_on_c, 0, 44, 74
2, 49651, Control_c, 0, 64, 127
2, 49792, Note_on_c, 0, 77, 97
2, 49950, Note_on_c, 0, 77, 0
2, 49955, Note_on_c, 0, 77, 100
2, 49956, Note_on_c, 0, 51, 84
2, 50132, Note_on_c, 0, 75, 89
2, 50204, Note_on_c, 0, 73, 0
2, 50212, Note_on_c, 0, 73, 105
2, 50215, Note_on_c, 0, 53, 84
2, 50511, Note_on_c, 0, 49, 0
2, 50518, Note_on_c, 0, 49, 80
2, 50588, Note_on_c, 0, 44, 0
2, 50593, Note_on_c, 0, 44, 82
2, 50680, Note_on_c, 0, 37, 0
2, 50684, Note_on_c, 0, 37, 97
2, 50849, Note_on_c, 0, 73, 0
2, 50854, Note_on_c, 0, 73, 101
2, 51023, Note_on_c, 0, 65, 105
2, 51024, Note_on_c, 0, 82, 110
2, 51024, Note_on_c, 0, 56, 97
2, 51025, Note_on_c, 0, 61, 102
2, 51179, Note_on_c, 0, 75, 0
2, 51180, Note_on_c, 0, 78, 0
2, 51181, Note_on_c, 0, 53, 0
2, 51181, Note_on_c, 0, 37, 0
2, 51182, Note_on_c, 0, 51, 0
2, 51182, Note_on_c, 0, 68, 0
2, 51182, Note_on_c, 0, 49, 0
2, 51182, Note_on_c, 0, 77, 0
2, 51182, Note_on_c, 0, 61, 0
2, 51182, Note_on_c, 0, 65, 0
2, 51182, Note_on_c, 0, 73, 0
2, 51182, Note_on_c, 0, 44, 0
2, 51182, Note_on_c, 0, 56, 0
2, 51183, Note_on_c, 0, 82, 0
2, 51183, Control_c, 0, 64, 0
2, 51193, Note_on_c, 0, 83, 102
2, 51369, Note_on_c, 0, 82, 108
2, 51386, Note_on_c, 0, 83, 0
2, 51525, Note_on_c, 0, 82, 0
2, 51552, Note_on_c, 0, 83, 105
2, 51734, Note_on_c, 0, 49, 98
2, 51735, Note_on_c, 0, 82, 110
2, 51736, Note_on_c, 0, 37, 96
2, 51763, Control_c, 0, 64, 127
2, 51840, Note_on_c, 0, 83, 0
2, 51877, Control_c, 0, 64, 0
2, 51907, Note_on_c, 0, 80, 102
2, 51915, Note_on_c, 0, 49, 0
2, 51918, Note_on_c, 0, 82, 0
2, 51919, Note_on_c, 0, 37, 0
2, 52075, Note_on_c, 0, 78, 106
2, 52075, Note_on_c, 0, 43, 104
2, 52076, Note_on_c, 0, 31, 91
2, 52085, Note_on_c, 0, 80, 0
2, 52116, Control_c, 0, 64, 127
2, 52247, Note_on_c, 0, 80, 102
2, 52274, Note_on_c, 0, 31, 0
2, 52274, Note_on_c, 0, 78, 0
2, 52275, Note_on_c, 0, 43, 0
2, 52277, Control_c, 0, 64, 0
2, 52419, Note_on_c, 0, 44, 101
2, 52420, Note_on_c, 0, 32, 91
2, 52422, Note_on_c, 0, 75, 103
2, 52424, Note_on_c, 0, 71, 97
2, 52446, Note_on_c, 0, 80, 0
2, 52454, Control_c, 0, 64, 127
2, 52500, Note_on_c, 0, 71, 0
2, 52500, Note_on_c, 0, 75, 0
2, 52510, Note_on_c, 0, 75, 102
2, 52511, Note_on_c, 0, 71, 89
2, 52600, Note_on_c, 0, 44, 0
2, 52605, Note_on_c, 0, 77, 92
2, 52609, Note_on_c, 0, 44, 88
2, 52609, Control_c, 0, 64, 0
2, 52651, Note_on_c, 0, 44, 0
2, 52654, Note_on_c, 0, 77, 0
2, 52661, Note_on_c, 0, 32, 0
2, 52669, Note_on_c, 0, 71, 0
2, 52669, Note_on_c, 0, 75, 0
2, 52781, Note_on_c, 0, 78, 106
2, 52782, Note_on_c, 0, 59, 100
2, 52788, Note_on_c, 0, 71, 90
2, 52789, Note_on_c, 0, 54, 89
2, 52790, Note_on_c, 0, 51, 82
2, 52823, Control_c, 0, 64, 127
2, 52949, Note_on_c, 0, 44, 82
2, 52950, Note_on_c, 0, 73, 105
2, 52961, Note_on_c, 0, 71, 0
2, 52971, Note_on_c, 0, 71, 69
2, 53034, Control_c, 0, 64, 0
2, 53036, Note_on_c, 0, 44, 0
2, 53039, Note_on_c, 0, 51, 0
2, 53040, Note_on_c, 0, 78, 0
2, 53040, Note_on_c, 0, 71, 0
2, 53040, Note_on_c, 0, 59, 0
2, 53041, Note_on_c, 0, 54, 0
2, 53049, Note_on_c, 0, 73, 0
2, 53127, Note_on_c, 0, 75, 102
2, 53130, Note_on_c, 0, 37, 92
2, 53130, Note_on_c, 0, 49, 98
2, 53132, Note_on_c, 0, 71, 88
2, 53153, Control_c, 0, 64, 127
2, 53204, Note_on_c, 0, 78, 105
2, 53291, Note_on_c, 0, 49, 0
2, 53301, Note_on_c, 0, 49, 88
2, 53383, Note_on_c, 0, 78, 0
2, 53388, Note_on_c, 0, 78, 108
2, 53391, Note_on_c, 0, 71, 0
2, 53392, Note_on_c, 0, 59, 94
2, 53394, Note_on_c, 0, 56, 93
2, 53394, Note_on_c, 0, 53, 90
2, 53395, Note_on_c, 0, 73, 104
2, 53401, Note_on_c, 0, 71, 96
2, 53404, Control_c, 0, 64, 0
2, 53410, Note_on_c, 0, 37, 0
2, 53411, Note_on_c, 0, 75, 0
2, 53412, Note_on_c, 0, 49, 0
2, 53445, Note_on_c, 0, 59, 0
2, 53460, Note_on_c, 0, 53, 0
2, 53468, Note_on_c, 0, 56, 0
2, 53483, Control_c, 0, 64, 127
2, 53553, Note_on_c, 0, 35, 92
2, 53649, Note_on_c, 0, 47, 81
2, 53664, Note_on_c, 0, 80, 106
2, 53670, Control_c, 0, 64, 0
2, 53694, Note_on_c, 0, 35, 0
2, 53721, Note_on_c, 0, 47, 0
2, 53814, Note_on_c, 0, 46, 104
2, 53814, Note_on_c, 0, 34, 95
2, 53829, Control_c, 0, 64, 127
2, 53982, Note_on_c, 0, 78, 0
2, 53992, Note_on_c, 0, 78, 100
2, 53998, Note_on_c, 0, 46, 0
2, 54009, Note_on_c, 0, 46, 87
2, 54067, Note_on_c, 0, 78, 0
2, 54077, Note_on_c, 0, 78, 99
2, 54157, Note_on_c, 0, 56, 88
2, 54159, Note_on_c, 0, 80, 0
2, 54161, Note_on_c, 0, 53, 85
2, 54163, Note_on_c, 0, 80, 105
2, 54167, Note_on_c, 0, 71, 0
2, 54197, Note_on_c, 0, 73, 0
2, 54204, Control_c, 0, 64, 0
2, 54210, Note_on_c, 0, 34, 0
2, 54215, Note_on_c, 0, 46, 0
2, 54215, Note_on_c, 0, 78, 0
2, 54215, Note_on_c, 0, 56, 0
2, 54218, Note_on_c, 0, 53, 0
2, 54312, Note_on_c, 0, 80, 0
2, 54340, Note_on_c, 0, 78, 108
2, 54341, Note_on_c, 0, 50, 95
2, 54344, Note_on_c, 0, 38, 95
2, 54376, Note_on_c, 0, 50, 0
2, 54380, Note_on_c, 0, 38, 0
2, 54481, Note_on_c, 0, 78, 0
2, 54508, Note_on_c, 0, 80, 106
2, 54513, Note_on_c, 0, 39, 93
2, 54513, Note_on_c, 0, 51, 99
2, 54520, Control_c, 0, 64, 127
2, 54673, Note_on_c, 0, 51, 0
2, 54684, Note_on_c, 0, 51, 86
2, 54686, Note_on_c, 0, 82, 96
2, 54688, Note_on_c, 0, 73, 90
2, 54758, Note_on_c, 0, 73, 0
2, 54758, Note_on_c, 0, 82, 0
2, 54762, Note_on_c, 0, 82, 101
2, 54766, Note_on_c, 0, 73, 97
2, 54768, Note_on_c, 0, 58, 95
2, 54769, Note_on_c, 0, 78, 99
2, 54771, Note_on_c, 0, 54, 93
2, 54823, Control_c, 0, 64, 0
2, 54829, Note_on_c, 0, 80, 0
2, 54830, Note_on_c, 0, 58, 0
2, 54832, Note_on_c, 0, 51, 0
2, 54832, Note_on_c, 0, 73, 0
2, 54832, Note_on_c, 0, 54, 0
2, 54832, Note_on_c, 0, 82, 0
2, 54833, Note_on_c, 0, 39, 0
2, 54834, Note_on_c, 0, 78, 0
2, 54934, Note_on_c, 0, 31, 96
2, 55023, Note_on_c, 0, 43, 88
2, 55055, Note_on_c, 0, 82, 107
2, 55058, Note_on_c, 0, 73, 94
2, 55099, Note_on_c, 0, 43, 0
2, 55103, Note_on_c, 0, 73, 0
2, 55114, Note_on_c, 0, 82, 0
2, 55119, Note_on_c, 0, 31, 0
2, 55205, Note_on_c, 0, 44, 104
2, 55206, Note_on_c, 0, 32, 96
2, 55214, Note_on_c, 0, 83, 106
2, 55219, Control_c, 0, 64, 127
2, 55219, Note_on_c, 0, 75, 103
2, 55222, Note_on_c, 0, 78, 99
2, 55388, Note_on_c, 0, 32, 0
2, 55388, Note_on_c, 0, 44, 0
2, 55392, Note_on_c, 0, 82, 106
2, 55395, Note_on_c, 0, 32, 73
2, 55397, Note_on_c, 0, 44, 83
2, 55545, Note_on_c, 0, 59, 98
2, 55552, Note_on_c, 0, 54, 87
2, 55560, Note_on_c, 0, 80, 102
2, 55560, Note_on_c, 0, 51, 74
2, 55710, Note_on_c, 0, 78, 0
2, 55715, Note_on_c, 0, 78, 103
2, 55798, Note_on_c, 0, 46, 97
2, 55798, Note_on_c, 0, 34, 91
2, 55805, Note_on_c, 0, 32, 0
2, 55806, Control_c, 0, 64, 0
2, 55807, Note_on_c, 0, 80, 0
2, 55807, Note_on_c, 0, 44, 0
2, 55808, Note_on_c, 0, 83, 0
2, 55808, Note_on_c, 0, 59, 0
2, 55808, Note_on_c, 0, 54, 0
2, 55809, Note_on_c, 0, 82, 0
2, 55825, Note_on_c, 0, 51, 0
2, 55853, Note_on_c, 0, 46, 0
2, 55864, Note_on_c, 0, 78, 0
2, 55895, Note_on_c, 0, 74, 103
2, 55895, Note_on_c, 0, 77, 103
2, 55948, Control_c, 0, 64, 127
2, 55964, Note_on_c, 0, 34, 0
2, 56002, Note_on_c, 0, 34, 88
2, 56091, Note_on_c, 0, 78, 99
2, 56098, Note_on_c, 0, 46, 96
2, 56179, Note_on_c, 0, 75, 0
2, 56268, Note_on_c, 0, 80, 106
2, 56268, Note_on_c, 0, 56, 100
2, 56272, Note_on_c, 0, 53, 90
2, 56417, Note_on_c, 0, 46, 0
2, 56426, Note_on_c, 0, 46, 92
2, 56428, Note_on_c, 0, 82, 105
2, 56513, Control_c, 0, 64, 0
2, 56514, Note_on_c, 0, 82, 0
2, 56515, Note_on_c, 0, 34, 0
2, 56516, Note_on_c, 0, 80, 0
2, 56516, Note_on_c, 0, 78, 0
2, 56516, Note_on_c, 0, 53, 0
2, 56516, Note_on_c, 0, 74, 0
2, 56516, Note_on_c, 0, 77, 0
2, 56519, Note_on_c, 0, 46, 0
2, 56519, Note_on_c, 0, 56, 0
2, 56591, Note_on_c, 0, 39, 102
2, 56609, Control_c, 0, 64, 127
2, 56611, Note_on_c, 0, 80, 107
2, 56616, Note_on_c, 0, 70, 96
2, 56620, Note_on_c, 0, 75, 97
2, 56689, Note_on_c, 0, 51, 94
2, 56771, Note_on_c, 0, 78, 98
2, 56781, Note_on_c, 0, 80, 0
2, 56782, Note_on_c, 0, 39, 0
2, 56782, Note_on_c, 0, 75, 0
2, 56784, Note_on_c, 0, 51, 0
2, 56787, Note_on_c, 0, 70, 0
2, 56791, Control_c, 0, 64, 0
2, 56893, Note_on_c, 0, 78, 0
2, 56940, Note_on_c, 0, 38, 87
2, 56953, Note_on_c, 0, 80, 107
2, 56962, Control_c, 0, 64, 127
2, 56966, Note_on_c, 0, 75, 100
2, 56971, Note_on_c, 0, 70, 92
2, 57022, Note_on_c, 0, 50, 89
2, 57108, Note_on_c, 0, 38, 0
2, 57116, Note_on_c, 0, 50, 0
2, 57119, Note_on_c, 0, 38, 77
2, 57120, Note_on_c, 0, 50, 76
2, 57122, Note_on_c, 0, 78, 102
2, 57142, Note_on_c, 0, 75, 0
2, 57144, Note_on_c, 0, 70, 0
2, 57146, Note_on_c, 0, 80, 0
2, 57147, Control_c, 0, 64, 0
2, 57169, Note_on_c, 0, 50, 0
2, 57177, Note_on_c, 0, 38, 0
2, 57269, Note_on_c, 0, 78, 0
2, 57284, Note_on_c, 0, 49, 102
2, 57288, Note_on_c, 0, 37, 98
2, 57288, Note_on_c, 0, 80, 104
2, 57291, Note_on_c, 0, 70, 96
2, 57344, Note_on_c, 0, 49, 0
2, 57347, Note_on_c, 0, 70, 0
2, 57350, Note_on_c, 0, 37, 0
2, 57452, Note_on_c, 0, 82, 101
2, 57477, Note_on_c, 0, 80, 0
2, 57510, Note_on_c, 0, 82, 0
2, 57534, Note_on_c, 0, 78, 106
2, 57536, Note_on_c, 0, 42, 101
2, 57537, Note_on_c, 0, 30, 99
2, 57540, Note_on_c, 0, 70, 97
2, 57569, Control_c, 0, 64, 127
2, 57730, Note_on_c, 0, 42, 0
2, 57737, Note_on_c, 0, 42, 73
2, 57821, Note_on_c, 0, 49, 91
2, 57834, Note_on_c, 0, 54, 80
2, 57841, Note_on_c, 0, 58, 79
2, 57844, Note_on_c, 0, 66, 95
2, 57933, Note_on_c, 0, 42, 0
2, 57934, Note_on_c, 0, 54, 0
2, 57934, Note_on_c, 0, 49, 0
2, 57935, Note_on_c, 0, 66, 0
2, 57935, Control_c, 0, 64, 0
2, 57936, Note_on_c, 0, 58, 0
2, 57936, Note_on_c, 0, 78, 0
2, 57936, Note_on_c, 0, 70, 0
2, 57945, Note_on_c, 0, 30, 0
2, 58011, Note_on_c, 0, 44, 103
2, 58012, Note_on_c, 0, 32, 94
2, 58012, Note_on_c, 0, 75, 102
2, 58017, Note_on_c, 0, 71, 95
2, 58060, Control_c, 0, 64, 127
2, 58091, Note_on_c, 0, 71, 0
2, 58091, Note_on_c, 0, 75, 0
2, 58102, Note_on_c, 0, 75, 97
2, 58102, Note_on_c, 0, 71, 96
2, 58189, Note_on_c, 0, 77, 94
2, 58191, Note_on_c, 0, 44, 0
2, 58195, Note_on_c, 0, 44, 89
2, 58199, Note_on_c, 0, 51, 66
2, 58275, Note_on_c, 0, 75, 0
2, 58279, Note_on_c, 0, 75, 53
2, 58348, Note_on_c, 0, 44, 0
2, 58351, Note_on_c, 0, 75, 0
2, 58353, Note_on_c, 0, 77, 0
2, 58357, Control_c, 0, 64, 0
2, 58360, Note_on_c, 0, 32, 0
2, 58360, Note_on_c, 0, 71, 0
2, 58363, Note_on_c, 0, 78, 106
2, 58366, Note_on_c, 0, 59, 98
2, 58368, Note_on_c, 0, 51, 0
2, 58370, Note_on_c, 0, 54, 86
2, 58371, Note_on_c, 0, 71, 87
2, 58372, Note_on_c, 0, 51, 77
2, 58529, Note_on_c, 0, 71, 0
2, 58532, Note_on_c, 0, 44, 84
2, 58533, Note_on_c, 0, 73, 106
2, 58533, Note_on_c, 0, 71, 91
2, 58595, Note_on_c, 0, 44, 0
2, 58596, Note_on_c, 0, 51, 0
2, 58597, Note_on_c, 0, 78, 0
2, 58600, Note_on_c, 0, 71, 0
2, 58606, Note_on_c, 0, 59, 0
2, 58609, Note_on_c, 0, 73, 0
2, 58613, Note_on_c, 0, 54, 0
2, 58702, Note_on_c, 0, 75, 104
2, 58702, Note_on_c, 0, 49, 100
2, 58706, Note_on_c, 0, 71, 93
2, 58706, Note_on_c, 0, 37, 97
2, 58736, Control_c, 0, 64, 127
2, 58789, Note_on_c, 0, 78, 102
2, 58867, Note_on_c, 0, 49, 0
2, 58873, Note_on_c, 0, 49, 91
2, 58954, Note_on_c, 0, 53, 90
2, 58960, Note_on_c, 0, 56, 93
2, 58967, Note_on_c, 0, 71, 0
2, 58967, Note_on_c, 0, 78, 0
2, 58972, Note_on_c, 0, 78, 103
2, 58975, Note_on_c, 0, 71, 99
2, 58978, Note_on_c, 0, 73, 103
2, 59117, Control_c, 0, 64, 0
2, 59121, Note_on_c, 0, 75, 0
2, 59121, Note_on_c, 0, 49, 0
2, 59123, Note_on_c, 0, 78, 0
2, 59124, Note_on_c, 0, 56, 0
2, 59124, Note_on_c, 0, 73, 0
2, 59124, Note_on_c, 0, 53, 0
2, 59133, Note_on_c, 0, 35, 89
2, 59136, Note_on_c, 0, 37, 0
2, 59228, Note_on_c, 0, 71, 0
2, 59229, Note_on_c, 0, 47, 99
2, 59237, Note_on_c, 0, 80, 104
2, 59238, Note_on_c, 0, 71, 87
2, 59289, Note_on_c, 0, 35, 0
2, 59397, Note_on_c, 0, 46, 106
2, 59399, Note_on_c, 0, 34, 98
2, 59450, Control_c, 0, 64, 127
2, 59458, Note_on_c, 0, 47, 0
2, 59570, Note_on_c, 0, 78, 105
2, 59573, Note_on_c, 0, 46, 0
2, 59580, Note_on_c, 0, 46, 93
2, 59642, Note_on_c, 0, 78, 0
2, 59654, Note_on_c, 0, 78, 89
2, 59730, Note_on_c, 0, 56, 95
2, 59735, Note_on_c, 0, 80, 0
2, 59735, Note_on_c, 0, 53, 84
2, 59745, Note_on_c, 0, 80, 106
2, 59801, Note_on_c, 0, 34, 0
2, 59802, Control_c, 0, 64, 0
2, 59802, Note_on_c, 0, 71, 0
2, 59807, Note_on_c, 0, 46, 0
2, 59807, Note_on_c, 0, 78, 0
2, 59807, Note_on_c, 0, 56, 0
2, 59808, Note_on_c, 0, 53, 0
2, 59896, Note_on_c, 0, 80, 0
2, 59916, Note_on_c, 0, 78, 109
2, 59918, Note_on_c, 0, 50, 94
2, 59921, Note_on_c, 0, 38, 94
2, 59957, Note_on_c, 0, 50, 0
2, 59959, Note_on_c, 0, 38, 0
2, 60057, Note_on_c, 0, 78, 0
2, 60090, Note_on_c, 0, 80, 107
2, 60093, Note_on_c, 0, 51, 99
2, 60094, Note_on_c, 0, 39, 91
2, 60111, Control_c, 0, 64, 127
2, 60260, Note_on_c, 0, 82, 99
2, 60266, Note_on_c, 0, 73, 85
2, 60326, Note_on_c, 0, 82, 0
2, 60334, Note_on_c, 0, 73, 0
2, 60337, Note_on_c, 0, 82, 110
2, 60344, Note_on_c, 0, 73, 102
2, 60346, Note_on_c, 0, 58, 93
2, 60348, Note_on_c, 0, 54, 98
2, 60352, Note_on_c, 0, 78, 85
2, 60519, Note_on_c, 0, 31, 90
2, 60591, Note_on_c, 0, 43, 89
2, 60625, Note_on_c, 0, 73, 0
2, 60625, Note_on_c, 0, 82, 0
2, 60632, Note_on_c, 0, 82, 105
2, 60632, Note_on_c, 0, 73, 95
2, 60645, Note_on_c, 0, 78, 0
2, 60645, Note_on_c, 0, 54, 0
2, 60645, Control_c, 0, 64, 0
2, 60645, Note_on_c, 0, 58, 0
2, 60646, Note_on_c, 0, 80, 0
2, 60647, Note_on_c, 0, 39, 0
2, 60648, Note_on_c, 0, 51, 0
2, 60650, Note_on_c, 0, 31, 0
2, 60652, Note_on_c, 0, 43, 0
2, 60679, Note_on_c, 0, 73, 0
2, 60733, Note_on_c, 0, 82, 0
2, 60782, Note_on_c, 0, 44, 104
2, 60783, Note_on_c, 0, 32, 92
2, 60783, Note_on_c, 0, 83, 105
2, 60789, Note_on_c, 0, 75, 103
2, 60792, Note_on_c, 0, 78, 92
2, 60871, Control_c, 0, 64, 127
2, 60963, Note_on_c, 0, 44, 0
2, 60967, Note_on_c, 0, 82, 108
2, 60971, Note_on_c, 0, 44, 88
2, 61128, Note_on_c, 0, 80, 101
2, 61130, Note_on_c, 0, 59, 91
2, 61143, Note_on_c, 0, 54, 83
2, 61143, Note_on_c, 0, 51, 81
2, 61209, Note_on_c, 0, 78, 0
2, 61215, Note_on_c, 0, 78, 102
2, 61267, Control_c, 0, 64, 0
2, 61276, Note_on_c, 0, 44, 0
2, 61276, Note_on_c, 0, 54, 0
2, 61279, Note_on_c, 0, 82, 0
2, 61279, Note_on_c, 0, 75, 0
2, 61280, Note_on_c, 0, 83, 0
2, 61280, Note_on_c, 0, 80, 0
2, 61281, Note_on_c, 0, 59, 0
2, 61282, Note_on_c, 0, 78, 0
2, 61282, Note_on_c, 0, 51, 0
2, 61294, Note_on_c, 0, 32, 0
2, 61300, Note_on_c, 0, 32, 91
2, 61375, Note_on_c, 0, 78, 106
2, 61380, Note_on_c, 0, 75, 101
2, 61382, Note_on_c, 0, 71, 95
2, 61383, Note_on_c, 0, 44, 91
2, 61432, Control_c, 0, 64, 127
2, 61647, Note_on_c, 0, 44, 0
2, 61647, Note_on_c, 0, 75, 0
2, 61652, Note_on_c, 0, 44, 97
2, 61656, Note_on_c, 0, 75, 103
2, 61816, Note_on_c, 0, 78, 0
2, 61827, Note_on_c, 0, 78, 112
2, 61830, Note_on_c, 0, 59, 99
2, 61836, Note_on_c, 0, 54, 90
2, 61840, Note_on_c, 0, 51, 88
2, 61852, Note_on_c, 0, 49, 68
2, 61908, Note_on_c, 0, 78, 0
2, 61916, Note_on_c, 0, 78, 109
2, 61985, Note_on_c, 0, 44, 0
2, 61994, Note_on_c, 0, 44, 80
2, 62088, Control_c, 0, 64, 0
2, 62090, Note_on_c, 0, 49, 0
2, 62091, Note_on_c, 0, 59, 0
2, 62091, Note_on_c, 0, 71, 0
2, 62094, Note_on_c, 0, 75, 0
2, 62094, Note_on_c, 0, 51, 0
2, 62094, Note_on_c, 0, 54, 0
2, 62098, Note_on_c, 0, 83, 109
2, 62100, Note_on_c, 0, 32, 0
2, 62100, Note_on_c, 0, 78, 0
2, 62102, Note_on_c, 0, 74, 109
2, 62104, Note_on_c, 0, 78, 97
2, 62115, Note_on_c, 0, 44, 0
2, 62177, Control_c, 0, 64, 127
2, 62185, Note_on_c, 0, 47, 105
2, 62187, Note_on_c, 0, 35, 90
2, 62358, Note_on_c, 0, 82, 107
2, 62369, Note_on_c, 0, 47, 0
2, 62377, Note_on_c, 0, 47, 95
2, 62511, Note_on_c, 0, 56, 98
2, 62512, Note_on_c, 0, 54, 94
2, 62515, Note_on_c, 0, 50, 91
2, 62519, Note_on_c, 0, 80, 109
2, 62592, Note_on_c, 0, 78, 0
2, 62603, Note_on_c, 0, 78, 105
2, 62653, Note_on_c, 0, 35, 0
2, 62661, Note_on_c, 0, 35, 91
2, 62760, Note_on_c, 0, 78, 0
2, 62767, Note_on_c, 0, 78, 111
2, 62999, Note_on_c, 0, 80, 0
2, 63002, Note_on_c, 0, 80, 100
2, 63006, Note_on_c, 0, 47, 0
2, 63011, Note_on_c, 0, 47, 93
2, 63019, Note_on_c, 0, 81, 109
2, 63144, Note_on_c, 0, 82, 0
2, 63148, Note_on_c, 0, 81, 0
2, 63148, Note_on_c, 0, 74, 0
2, 63149, Note_on_c, 0, 83, 0
2, 63149, Note_on_c, 0, 50, 0
2, 63149, Note_on_c, 0, 80, 0
2, 63149, Note_on_c, 0, 78, 0
2, 63149, Note_on_c, 0, 54, 0
2, 63149, Note_on_c, 0, 56, 0
2, 63150, Note_on_c, 0, 47, 0
2, 63158, Control_c, 0, 64, 0
2, 63175, Note_on_c, 0, 35, 0
2, 63210, Note_on_c, 0, 80, 104
2, 63218, Note_on_c, 0, 49, 102
2, 63220, Note_on_c, 0, 37, 98
2, 63252, Control_c, 0, 64, 127
2, 63376, Note_on_c, 0, 78, 107
2, 63416, Control_c, 0, 64, 0
2, 63431, Note_on_c, 0, 37, 0
2, 63432, Note_on_c, 0, 80, 0
2, 63433, Note_on_c, 0, 49, 0
2, 63436, Note_on_c, 0, 78, 0
2, 63563, Note_on_c, 0, 78, 111
2, 63564, Note_on_c, 0, 66, 105
2, 63564, Note_on_c, 0, 42, 103
2, 63565, Note_on_c, 0, 30, 95
2, 63621, Control_c, 0, 64, 127
2, 63667, Note_on_c, 0, 30, 0
2, 63682, Control_c, 0, 64, 0
2, 63690, Note_on_c, 0, 42, 0
2, 63695, Note_on_c, 0, 66, 0
2, 63705, Note_on_c, 0, 78, 0
2, 63922, Note_on_c, 0, 57, 105
2, 63926, Note_on_c, 0, 45, 105
2, 63929, Note_on_c, 0, 33, 99
2, 63966, Control_c, 0, 64, 127
2, 64016, Control_c, 0, 64, 0
2, 64018, Note_on_c, 0, 45, 0
2, 64022, Note_on_c, 0, 57, 0
2, 64097, Note_on_c, 0, 33, 0
2, 64269, Note_on_c, 0, 47, 102
2, 64270, Note_on_c, 0, 59, 108
2, 64270, Note_on_c, 0, 35, 92
2, 64319, Note_on_c, 0, 47, 0
2, 64320, Note_on_c, 0, 35, 0
2, 64435, Note_on_c, 0, 59, 0
2, 64445, Note_on_c, 0, 52, 85
2, 64446, Note_on_c, 0, 40, 86
2, 64446, Note_on_c, 0, 28, 83
2, 64487, Note_on_c, 0, 52, 0
2, 64504, Note_on_c, 0, 28, 0
2, 64513, Note_on_c, 0, 28, 42
2, 64535, Note_on_c, 0, 40, 0
2, 64573, Note_on_c, 0, 28, 0
2, 64618, Note_on_c, 0, 52, 90
2, 64622, Note_on_c, 0, 40, 84
2, 64709, Note_on_c, 0, 53, 97
2, 64710, Note_on_c, 0, 41, 76
2, 64773, Note_on_c, 0, 40, 0
2, 64812, Note_on_c, 0, 53, 0
2, 64819, Note_on_c, 0, 52, 0
2, 64834, Note_on_c, 0, 41, 0
2, 64884, Note_on_c, 0, 54, 101
2, 64885, Note_on_c, 0, 42, 104
2, 64885, Note_on_c, 0, 30, 102
2, 64949, Control_c, 0, 64, 127
2, 65080, Note_on_c, 0, 30, 0
2, 65080, Note_on_c, 0, 42, 0
2, 65090, Note_on_c, 0, 30, 76
2, 65090, Note_on_c, 0, 42, 87
2, 65111, Note_on_c, 0, 54, 0
2, 65119, Control_c, 0, 64, 0
2, 65122, Note_on_c, 0, 30, 0
2, 65149, Note_on_c, 0, 42, 0
2, 65190, Note_on_c, 0, 76, 107
2, 65191, Note_on_c, 0, 71, 96
2, 65228, Note_on_c, 0, 76, 0
2, 65241, Note_on_c, 0, 71, 0
2, 65360, Note_on_c, 0, 78, 108
2, 65361, Note_on_c, 0, 73, 108
2, 65425, Control_c, 0, 64, 127
2, 65465, Note_on_c, 0, 73, 0
2, 65502, Control_c, 0, 64, 0
2, 65528, Note_on_c, 0, 76, 99
2, 65528, Note_on_c, 0, 71, 96
2, 65564, Note_on_c, 0, 78, 0
2, 65615, Note_on_c, 0, 78, 102
2, 65616, Note_on_c, 0, 73, 104
2, 65638, Note_on_c, 0, 71, 0
2, 65648, Note_on_c, 0, 73, 0
2, 65656, Note_on_c, 0, 76, 0
2, 65660, Note_on_c, 0, 78, 0
2, 65781, Note_on_c, 0, 78, 95
2, 65782, Note_on_c, 0, 73, 98
2, 65817, Note_on_c, 0, 73, 0
2, 65819, Note_on_c, 0, 78, 0
2, 65875, Note_on_c, 0, 81, 104
2, 65879, Note_on_c, 0, 76, 100
2, 65940, Note_on_c, 0, 76, 0
2, 66042, Note_on_c, 0, 78, 112
2, 66046, Note_on_c, 0, 73, 102
2, 66054, Note_on_c, 0, 64, 93
2, 66060, Note_on_c, 0, 62, 91
2, 66063, Control_c, 0, 64, 127
2, 66083, Note_on_c, 0, 60, 81
2, 66086, Note_on_c, 0, 59, 90
2, 66104, Note_on_c, 0, 53, 75
2, 66110, Note_on_c, 0, 55, 77
2, 66112, Note_on_c, 0, 57, 90
2, 66115, Note_on_c, 0, 48, 78
2, 66120, Note_on_c, 0, 45, 84
2, 66151, Note_on_c, 0, 50, 74
2, 66155, Note_on_c, 0, 45, 0
2, 66165, Note_on_c, 0, 45, 92
2, 66167, Note_on_c, 0, 41, 88
2, 66172, Note_on_c, 0, 47, 91
2, 66177, Note_on_c, 0, 43, 85
2, 66338, Control_c, 0, 64, 0
2, 66341, Note_on_c, 0, 55, 0
2, 66341, Note_on_c, 0, 48, 0
2, 66342, Note_on_c, 0, 50, 0
2, 66342, Note_on_c, 0, 62, 0
2, 66342, Note_on_c, 0, 47, 0
2, 66342, Note_on_c, 0, 73, 0
2, 66342, Note_on_c, 0, 41, 0
2, 66342, Note_on_c, 0, 45, 0
2, 66342, Note_on_c, 0, 60, 0
2, 66342, Note_on_c, 0, 64, 0
2, 66342, Note_on_c, 0, 57, 0
2, 66342, Note_on_c, 0, 78, 0
2, 66342, Note_on_c, 0, 53, 0
2, 66343, Note_on_c, 0, 59, 0
2, 66343, Note_on_c, 0, 43, 0
2, 66343, Note_on_c, 0, 81, 0
2, 66387, Note_on_c, 0, 44, 102
2, 66388, Note_on_c, 0, 32, 92
2, 66389, Note_on_c, 0, 70, 103
2, 66390, Note_on_c, 0, 66, 91
2, 66408, Control_c, 0, 64, 127
2, 66462, Note_on_c, 0, 44, 0
2, 66470, Note_on_c, 0, 66, 0
2, 66470, Note_on_c, 0, 70, 0
2, 66471, Note_on_c, 0, 44, 81
2, 66474, Note_on_c, 0, 70, 102
2, 66478, Note_on_c, 0, 66, 90
2, 66562, Note_on_c, 0, 44, 0
2, 66562, Note_on_c, 0, 70, 0
2, 66568, Note_on_c, 0, 70, 92
2, 66570, Note_on_c, 0, 44, 88
2, 66718, Note_on_c, 0, 44, 0
2, 66723, Note_on_c, 0, 70, 0
2, 66726, Control_c, 0, 64, 0
2, 66731, Note_on_c, 0, 32, 0
2, 66732, Note_on_c, 0, 70, 103
2, 66735, Note_on_c, 0, 59, 94
2, 66739, Note_on_c, 0, 66, 0
2, 66742, Note_on_c, 0, 51, 82
2, 66745, Note_on_c, 0, 66, 83
2, 66773, Note_on_c, 0, 59, 0
2, 66819, Note_on_c, 0, 71, 91
2, 66836, Note_on_c, 0, 70, 0
2, 66846, Note_on_c, 0, 51, 0
2, 66869, Note_on_c, 0, 66, 0
2, 66878, Note_on_c, 0, 71, 0
2, 66905, Note_on_c, 0, 37, 96
2, 66938, Control_c, 0, 64, 127
2, 66990, Note_on_c, 0, 73, 106
2, 66998, Note_on_c, 0, 49, 92
2, 66998, Note_on_c, 0, 68, 94
2, 67002, Note_on_c, 0, 65, 90
2, 67146, Note_on_c, 0, 73, 0
2, 67153, Note_on_c, 0, 73, 90
2, 67153, Note_on_c, 0, 49, 0
2, 67153, Note_on_c, 0, 65, 0
2, 67160, Note_on_c, 0, 49, 75
2, 67164, Note_on_c, 0, 65, 69
2, 67251, Note_on_c, 0, 51, 88
2, 67254, Note_on_c, 0, 71, 105
2, 67420, Note_on_c, 0, 53, 92
2, 67422, Note_on_c, 0, 65, 0
2, 67426, Note_on_c, 0, 70, 104
2, 67429, Note_on_c, 0, 65, 72
2, 67584, Note_on_c, 0, 37, 0
2, 67584, Note_on_c, 0, 49, 0
2, 67593, Note_on_c, 0, 49, 96
2, 67594, Note_on_c, 0, 37, 100
2, 67596, Note_on_c, 0, 66, 99
2, 67649, Control_c, 0, 64, 0
2, 67657, Note_on_c, 0, 49, 0
2, 67657, Note_on_c, 0, 73, 0
2, 67657, Note_on_c, 0, 65, 0
2, 67658, Note_on_c, 0, 71, 0
2, 67658, Note_on_c, 0, 53, 0
2, 67658, Note_on_c, 0, 70, 0
2, 67658, Note_on_c, 0, 66, 0
2, 67658, Note_on_c, 0, 51, 0
2, 67659, Note_on_c, 0, 37, 0
2, 67676, Note_on_c, 0, 68, 0
2, 67757, Note_on_c, 0, 46, 102
2, 67758, Note_on_c, 0, 34, 96
2, 67761, Note_on_c, 0, 70, 102
2, 67769, Note_on_c, 0, 65, 82
2, 67771, Note_on_c, 0, 61, 87
2, 67776, Control_c, 0, 64, 127
2, 67837, Note_on_c, 0, 61, 0
2, 67837, Note_on_c, 0, 65, 0
2, 67837, Note_on_c, 0, 70, 0
2, 67843, Note_on_c, 0, 70, 98
2, 67846, Note_on_c, 0, 65, 99
2, 67846, Note_on_c, 0, 58, 97
2, 67847, Note_on_c, 0, 61, 93
2, 67937, Note_on_c, 0, 46, 0
2, 67946, Note_on_c, 0, 46, 93
2, 67998, Note_on_c, 0, 34, 0
2, 68008, Control_c, 0, 64, 0
2, 68009, Note_on_c, 0, 61, 0
2, 68010, Note_on_c, 0, 58, 0
2, 68014, Note_on_c, 0, 70, 0
2, 68067, Control_c, 0, 64, 127
2, 68094, Note_on_c, 0, 70, 100
2, 68096, Note_on_c, 0, 56, 91
2, 68102, Note_on_c, 0, 53, 89
2, 68166, Note_on_c, 0, 56, 0
2, 68168, Note_on_c, 0, 53, 0
2, 68173, Control_c, 0, 64, 0
2, 68175, Note_on_c, 0, 65, 0
2, 68179, Note_on_c, 0, 70, 0
2, 68182, Note_on_c, 0, 71, 96
2, 68183, Note_on_c, 0, 46, 0
2, 68263, Note_on_c, 0, 71, 0
2, 68272, Note_on_c, 0, 39, 90
2, 68313, Control_c, 0, 64, 127
2, 68363, Note_on_c, 0, 73, 109
2, 68364, Note_on_c, 0, 46, 93
2, 68367, Note_on_c, 0, 66, 103
2, 68370, Note_on_c, 0, 70, 96
2, 68370, Note_on_c, 0, 51, 91
2, 68528, Note_on_c, 0, 66, 0
2, 68528, Note_on_c, 0, 70, 0
2, 68528, Note_on_c, 0, 73, 0
2, 68534, Note_on_c, 0, 66, 84
2, 68536, Note_on_c, 0, 73, 77
2, 68538, Note_on_c, 0, 70, 70
2, 68639, Note_on_c, 0, 53, 96
2, 68639, Note_on_c, 0, 71, 103
2, 68797, Note_on_c, 0, 46, 0
2, 68805, Note_on_c, 0, 70, 0
2, 68807, Note_on_c, 0, 46, 92
2, 68808, Note_on_c, 0, 54, 94
2, 68813, Note_on_c, 0, 70, 103
2, 68958, Note_on_c, 0, 39, 0
2, 68958, Note_on_c, 0, 51, 0
2, 68964, Note_on_c, 0, 39, 90
2, 68966, Note_on_c, 0, 66, 0
2, 68968, Note_on_c, 0, 51, 83
2, 68974, Note_on_c, 0, 66, 104
2, 69057, Note_on_c, 0, 73, 0
2, 69060, Note_on_c, 0, 39, 0
2, 69060, Note_on_c, 0, 71, 0
2, 69060, Note_on_c, 0, 46, 0
2, 69060, Note_on_c, 0, 70, 0
2, 69060, Note_on_c, 0, 53, 0
2, 69061, Note_on_c, 0, 66, 0
2, 69062, Control_c, 0, 64, 0
2, 69073, Note_on_c, 0, 54, 0
2, 69081, Note_on_c, 0, 51, 0
2, 69149, Note_on_c, 0, 44, 101
2, 69149, Note_on_c, 0, 70, 100
2, 69151, Note_on_c, 0, 32, 96
2, 69154, Note_on_c, 0, 66, 85
2, 69181, Control_c, 0, 64, 127
2, 69227, Note_on_c, 0, 66, 0
2, 69227, Note_on_c, 0, 70, 0
2, 69232, Note_on_c, 0, 70, 101
2, 69233, Note_on_c, 0, 66, 102
2, 69335, Note_on_c, 0, 44, 0
2, 69335, Note_on_c, 0, 70, 0
2, 69339, Note_on_c, 0, 44, 94
2, 69342, Note_on_c, 0, 70, 86
2, 69454, Note_on_c, 0, 32, 0
2, 69456, Note_on_c, 0, 66, 0
2, 69456, Control_c, 0, 64, 0
2, 69459, Note_on_c, 0, 44, 0
2, 69496, Note_on_c, 0, 70, 0
2, 69500, Note_on_c, 0, 59, 96
2, 69500, Note_on_c, 0, 70, 101
2, 69507, Note_on_c, 0, 66, 95
2, 69508, Note_on_c, 0, 51, 83
2, 69534, Note_on_c, 0, 59, 0
2, 69573, Note_on_c, 0, 51, 0
2, 69587, Note_on_c, 0, 71, 95
2, 69636, Note_on_c, 0, 70, 0
2, 69642, Note_on_c, 0, 66, 0
2, 69678, Note_on_c, 0, 32, 93
2, 69757, Note_on_c, 0, 68, 107
2, 69759, Note_on_c, 0, 44, 97
2, 69760, Note_on_c, 0, 66, 100
2, 69780, Note_on_c, 0, 32, 0
2, 69841, Control_c, 0, 64, 127
2, 69911, Note_on_c, 0, 44, 0
2, 69921, Note_on_c, 0, 44, 41
2, 69949, Note_on_c, 0, 66, 0
2, 69949, Note_on_c, 0, 68, 0
2, 69954, Note_on_c, 0, 66, 79
2, 69956, Note_on_c, 0, 68, 87
2, 70041, Note_on_c, 0, 68, 0
2, 70047, Note_on_c, 0, 70, 104
2, 70048, Note_on_c, 0, 46, 95
2, 70052, Note_on_c, 0, 68, 84
2, 70202, Note_on_c, 0, 71, 0
2, 70213, Note_on_c, 0, 71, 106
2, 70218, Note_on_c, 0, 59, 89
2, 70220, Note_on_c, 0, 47, 84
2, 70371, Note_on_c, 0, 60, 87
2, 70373, Note_on_c, 0, 72, 109
2, 70375, Note_on_c, 0, 48, 92
2, 70457, Control_c, 0, 64, 0
2, 70462, Note_on_c, 0, 48, 0
2, 70462, Note_on_c, 0, 66, 0
2, 70464, Note_on_c, 0, 70, 0
2, 70464, Note_on_c, 0, 68, 0
2, 70465, Note_on_c, 0, 59, 0
2, 70465, Note_on_c, 0, 44, 0
2, 70466, Note_on_c, 0, 47, 0
2, 70466, Note_on_c, 0, 46, 0
2, 70466, Note_on_c, 0, 71, 0
2, 70467, Note_on_c, 0, 72, 0
2, 70479, Note_on_c, 0, 60, 0
2, 70551, Note_on_c, 0, 73, 110
2, 70552, Note_on_c, 0, 68, 100
2, 70553, Note_on_c, 0, 49, 102
2, 70553, Note_on_c, 0, 37, 97
2, 70558, Note_on_c, 0, 66, 93
2, 70580, Note_on_c, 0, 49, 0
2, 70582, Note_on_c, 0, 68, 0
2, 70583, Note_on_c, 0, 73, 0
2, 70584, Note_on_c, 0, 37, 0
2, 70589, Note_on_c, 0, 66, 0
2, 70723, Note_on_c, 0, 73, 107
2, 70729, Note_on_c, 0, 68, 97
2, 70730, Note_on_c, 0, 66, 97
2, 70730, Note_on_c, 0, 37, 94
2, 70732, Note_on_c, 0, 49, 91
2, 70738, Note_on_c, 0, 44, 79
2, 70760, Note_on_c, 0, 68, 0
2, 70760, Note_on_c, 0, 49, 0
2, 70760, Note_on_c, 0, 66, 0
2, 70763, Note_on_c, 0, 44, 0
2, 70766, Note_on_c, 0, 37, 0
2, 70767, Note_on_c, 0, 73, 0
2, 70903, Note_on_c, 0, 73, 106
2, 70905, Note_on_c, 0, 68, 100
2, 70906, Note_on_c, 0, 49, 94
2, 70906, Note_on_c, 0, 37, 91
2, 70907, Note_on_c, 0, 44, 85
2, 70908, Note_on_c, 0, 66, 91
2, 70940, Note_on_c, 0, 73, 0
2, 70942, Note_on_c, 0, 68, 0
2, 70942, Note_on_c, 0, 49, 0
2, 70945, Note_on_c, 0, 37, 0
2, 70945, Note_on_c, 0, 66, 0
2, 70946, Note_on_c, 0, 44, 0
2, 71070, Note_on_c, 0, 73, 106
2, 71077, Note_on_c, 0, 49, 92
2, 71078, Note_on_c, 0, 37, 94
2, 71079, Note_on_c, 0, 68, 89
2, 71079, Note_on_c, 0, 66, 93
2, 71081, Note_on_c, 0, 44, 83
2, 71112, Note_on_c, 0, 44, 0
2, 71114, Note_on_c, 0, 66, 0
2, 71118, Note_on_c, 0, 49, 0
2, 71121, Note_on_c, 0, 37, 0
2, 71125, Note_on_c, 0, 68, 0
2, 71170, Note_on_c, 0, 73, 0
2, 71245, Note_on_c, 0, 61, 99
2, 71246, Note_on_c, 0, 73, 105
2, 71246, Note_on_c, 0, 49, 102
2, 71249, Note_on_c, 0, 37, 95
2, 71249, Note_on_c, 0, 68, 99
2, 71249, Note_on_c, 0, 66, 99
2, 71251, Note_on_c, 0, 44, 91
2, 71255, Note_on_c, 0, 61, 0
2, 71283, Note_on_c, 0, 49, 0
2, 71287, Note_on_c, 0, 66, 0
2, 71287, Note_on_c, 0, 73, 0
2, 71288, Note_on_c, 0, 44, 0
2, 71288, Note_on_c, 0, 68, 0
2, 71288, Note_on_c, 0, 37, 0
2, 71450, Note_on_c, 0, 73, 88
2, 71477, Control_c, 0, 64, 127
2, 71492, Note_on_c, 0, 78, 83
2, 71506, Note_on_c, 0, 80, 64
2, 71536, Note_on_c, 0, 85, 98
2, 71596, Note_on_c, 0, 97, 117
2, 71921, Note_on_c, 0, 44, 98
2, 71922, Note_on_c, 0, 59, 98
2, 71924, Note_on_c, 0, 51, 94
2, 71927, Note_on_c, 0, 54, 92
2, 72053, Control_c, 0, 64, 0
2, 72057, Note_on_c, 0, 97, 0
2, 72058, Note_on_c, 0, 85, 0
2, 72059, Note_on_c, 0, 73, 0
2, 72059, Note_on_c, 0, 51, 0
2, 72060, Note_on_c, 0, 54, 0
2, 72061, Note_on_c, 0, 44, 0
2, 72061, Note_on_c, 0, 80, 0
2, 72061, Note_on_c, 0, 78, 0
2, 72062, Note_on_c, 0, 59, 0
2, 72111, Note_on_c, 0, 78, 105
2, 72112, Note_on_c, 0, 75, 91
2, 72115, Note_on_c, 0, 71, 90
2, 72145, Note_on_c, 0, 71, 0
2, 72168, Note_on_c, 0, 75, 0
2, 72184, Note_on_c, 0, 78, 0
2, 72279, Note_on_c, 0, 78, 108
2, 72283, Note_on_c, 0, 71, 77
2, 72285, Note_on_c, 0, 75, 91
2, 72310, Note_on_c, 0, 78, 0
2, 72330, Note_on_c, 0, 71, 0
2, 72330, Note_on_c, 0, 75, 0
2, 72451, Note_on_c, 0, 78, 101
2, 72455, Note_on_c, 0, 75, 92
2, 72456, Note_on_c, 0, 71, 81
2, 72481, Note_on_c, 0, 71, 0
2, 72481, Note_on_c, 0, 78, 0
2, 72483, Note_on_c, 0, 75, 0
2, 72619, Note_on_c, 0, 78, 110
2, 72625, Note_on_c, 0, 71, 97
2, 72626, Note_on_c, 0, 75, 94
2, 72778, Note_on_c, 0, 71, 0
2, 72782, Note_on_c, 0, 77, 106
2, 72794, Note_on_c, 0, 78, 0
2, 72806, Note_on_c, 0, 75, 0
2, 72863, Note_on_c, 0, 75, 108
2, 72990, Note_on_c, 0, 77, 0
2, 73070, Note_on_c, 0, 73, 107
2, 73113, Note_on_c, 0, 75, 0
2, 73242, Note_on_c, 0, 70, 98
2, 73249, Note_on_c, 0, 73, 0
2, 73282, Control_c, 0, 64, 127
2, 73316, Note_on_c, 0, 49, 102
2, 73318, Note_on_c, 0, 37, 97
2, 73321, Note_on_c, 0, 73, 105
2, 73322, Note_on_c, 0, 61, 93
2, 73328, Note_on_c, 0, 61, 0
2, 73360, Note_on_c, 0, 49, 0
2, 73363, Note_on_c, 0, 37, 0
2, 73370, Control_c, 0, 64, 0
2, 73440, Note_on_c, 0, 42, 93
2, 73441, Note_on_c, 0, 54, 87
2, 73493, Note_on_c, 0, 54, 0
2, 73495, Note_on_c, 0, 42, 0
2, 73512, Note_on_c, 0, 70, 0
2, 73517, Note_on_c, 0, 73, 0
2, 73517, Note_on_c, 0, 70, 96
2, 73555, Note_on_c, 0, 43, 99
2, 73555, Note_on_c, 0, 55, 93
2, 73604, Note_on_c, 0, 43, 0
2, 73608, Note_on_c, 0, 55, 0
2, 73610, Note_on_c, 0, 73, 105
2, 73680, Note_on_c, 0, 56, 101
2, 73684, Note_on_c, 0, 44, 99
2, 73778, Note_on_c, 0, 49, 97
2, 73780, Note_on_c, 0, 37, 98
2, 73812, Note_on_c, 0, 44, 0
2, 73812, Note_on_c, 0, 56, 0
2, 73818, Note_on_c, 0, 37, 0
2, 73820, Note_on_c, 0, 70, 0
2, 73823, Note_on_c, 0, 49, 0
2, 73826, Note_on_c, 0, 70, 100
2, 73828, Note_on_c, 0, 73, 0
2, 73883, Note_on_c, 0, 47, 106
2, 73884, Note_on_c, 0, 59, 103
2, 73948, Note_on_c, 0, 47, 0
2, 73949, Note_on_c, 0, 59, 0
2, 73964, Note_on_c, 0, 70, 0
2, 74007, Note_on_c, 0, 46, 101
2, 74008, Note_on_c, 0, 58, 104
2, 74014, Note_on_c, 0, 73, 106
2, 74041, Note_on_c, 0, 58, 0
2, 74044, Note_on_c, 0, 46, 0
2, 74117, Note_on_c, 0, 54, 90
2, 74117, Note_on_c, 0, 42, 99
2, 74170, Note_on_c, 0, 75, 101
2, 74217, Note_on_c, 0, 49, 95
2, 74221, Note_on_c, 0, 37, 98
2, 74255, Note_on_c, 0, 42, 0
2, 74257, Note_on_c, 0, 54, 0
2, 74259, Note_on_c, 0, 73, 0
2, 74260, Note_on_c, 0, 49, 0
2, 74264, Note_on_c, 0, 37, 0
2, 74265, Note_on_c, 0, 75, 0
2, 74270, Note_on_c, 0, 75, 104
2, 74358, Note_on_c, 0, 43, 106
2, 74359, Note_on_c, 0, 55, 110
2, 74419, Control_c, 0, 64, 127
2, 74534, Control_c, 0, 64, 0
2, 74537, Note_on_c, 0, 70, 106
2, 74560, Note_on_c, 0, 55, 0
2, 74561, Note_on_c, 0, 75, 0
2, 74572, Note_on_c, 0, 43, 0
2, 74603, Note_on_c, 0, 70, 0
2, 74714, Note_on_c, 0, 70, 109
2, 74720, Note_on_c, 0, 32, 97
2, 74721, Note_on_c, 0, 44, 109
2, 74721, Note_on_c, 0, 63, 96
2, 74722, Note_on_c, 0, 66, 96
2, 74757, Control_c, 0, 64, 127
2, 74878, Note_on_c, 0, 70, 0
2, 74878, Note_on_c, 0, 32, 0
2, 74878, Note_on_c, 0, 66, 0
2, 74880, Note_on_c, 0, 44, 0
2, 74881, Note_on_c, 0, 63, 0
2, 74884, Note_on_c, 0, 44, 78
2, 74886, Note_on_c, 0, 68, 101
2, 74900, Control_c, 0, 64, 0
2, 74958, Note_on_c, 0, 44, 0
2, 74960, Note_on_c, 0, 68, 0
2, 74967, Note_on_c, 0, 59, 96
2, 74968, Note_on_c, 0, 54, 81
2, 75006, Note_on_c, 0, 54, 0
2, 75012, Note_on_c, 0, 59, 0
2, 75051, Note_on_c, 0, 68, 109
2, 75187, Note_on_c, 0, 68, 0
2, 75221, Note_on_c, 0, 66, 96
2, 75227, Note_on_c, 0, 44, 94
2, 75228, Note_on_c, 0, 32, 88
2, 75297, Note_on_c, 0, 68, 103
2, 75310, Note_on_c, 0, 44, 0
2, 75325, Note_on_c, 0, 32, 0
2, 75333, Note_on_c, 0, 66, 0
2, 75404, Note_on_c, 0, 65, 94
2, 75404, Note_on_c, 0, 61, 105
2, 75409, Note_on_c, 0, 49, 99
2, 75413, Note_on_c, 0, 37, 96
2, 75425, Note_on_c, 0, 68, 0
2, 75432, Control_c, 0, 64, 127
2, 75532, Note_on_c, 0, 49, 0
2, 75540, Note_on_c, 0, 49, 42
2, 75583, Note_on_c, 0, 75, 102
2, 75592, Note_on_c, 0, 56, 91
2, 75597, Note_on_c, 0, 53, 79
2, 75601, Note_on_c, 0, 61, 0
2, 75606, Note_on_c, 0, 61, 79
2, 75645, Control_c, 0, 64, 0
2, 75652, Note_on_c, 0, 37, 0
2, 75653, Note_on_c, 0, 65, 0
2, 75655, Note_on_c, 0, 61, 0
2, 75656, Note_on_c, 0, 53, 0
2, 75658, Note_on_c, 0, 56, 0
2, 75658, Note_on_c, 0, 49, 0
2, 75659, Note_on_c, 0, 75, 0
2, 75769, Note_on_c, 0, 75, 98
2, 75840, Note_on_c, 0, 75, 0
2, 75849, Note_on_c, 0, 75, 106
2, 75928, Note_on_c, 0, 49, 77
2, 75928, Note_on_c, 0, 37, 88
2, 75953, Note_on_c, 0, 75, 0
2, 75953, Note_on_c, 0, 49, 0
2, 75978, Note_on_c, 0, 37, 0
2, 76000, Note_on_c, 0, 75, 105
2, 76113, Note_on_c, 0, 40, 98
2, 76114, Note_on_c, 0, 52, 101
2, 76122, Note_on_c, 0, 64, 99
2, 76122, Note_on_c, 0, 68, 99
2, 76124, Control_c, 0, 64, 127
2, 76262, Note_on_c, 0, 52, 0
2, 76266, Note_on_c, 0, 52, 80
2, 76297, Note_on_c, 0, 73, 105
2, 76303, Note_on_c, 0, 59, 87
2, 76330, Note_on_c, 0, 56, 85
2, 76349, Control_c, 0, 64, 0
2, 76352, Note_on_c, 0, 75, 0
2, 76357, Note_on_c, 0, 40, 0
2, 76358, Note_on_c, 0, 68, 0
2, 76359, Note_on_c, 0, 56, 0
2, 76360, Note_on_c, 0, 52, 0
2, 76362, Note_on_c, 0, 59, 0
2, 76366, Note_on_c, 0, 64, 0
2, 76374, Note_on_c, 0, 73, 0
2, 76454, Note_on_c, 0, 73, 109
2, 76553, Note_on_c, 0, 70, 95
2, 76575, Note_on_c, 0, 73, 0
2, 76624, Note_on_c, 0, 52, 85
2, 76625, Note_on_c, 0, 40, 91
2, 76653, Note_on_c, 0, 40, 0
2, 76669, Note_on_c, 0, 52, 0
2, 76707, Note_on_c, 0, 73, 107
2, 76738, Note_on_c, 0, 70, 0
2, 76805, Note_on_c, 0, 67, 102
2, 76808, Note_on_c, 0, 63, 99
2, 76811, Note_on_c, 0, 51, 98
2, 76812, Note_on_c, 0, 39, 94
2, 76815, Control_c, 0, 64, 127
2, 76961, Note_on_c, 0, 51, 0
2, 76961, Note_on_c, 0, 67, 0
2, 76968, Note_on_c, 0, 39, 0
2, 76971, Note_on_c, 0, 67, 89
2, 76972, Note_on_c, 0, 51, 91
2, 76974, Note_on_c, 0, 39, 73
2, 76975, Note_on_c, 0, 58, 84
2, 77002, Control_c, 0, 64, 0
2, 77045, Note_on_c, 0, 58, 0
2, 77053, Note_on_c, 0, 63, 0
2, 77053, Note_on_c, 0, 73, 0
2, 77056, Note_on_c, 0, 58, 93
2, 77058, Note_on_c, 0, 55, 85
2, 77059, Note_on_c, 0, 63, 85
2, 77076, Note_on_c, 0, 39, 0
2, 77080, Note_on_c, 0, 55, 0
2, 77084, Note_on_c, 0, 51, 0
2, 77084, Note_on_c, 0, 67, 0
2, 77085, Note_on_c, 0, 58, 0
2, 77107, Note_on_c, 0, 63, 0
2, 77155, Note_on_c, 0, 75, 104
2, 77245, Note_on_c, 0, 75, 0
2, 77325, Note_on_c, 0, 77, 101
2, 77329, Note_on_c, 0, 51, 85
2, 77335, Note_on_c, 0, 39, 81
2, 77376, Note_on_c, 0, 51, 0
2, 77391, Note_on_c, 0, 39, 0
2, 77418, Note_on_c, 0, 78, 108
2, 77437, Note_on_c, 0, 77, 0
2, 77498, Note_on_c, 0, 47, 109
2, 77500, Note_on_c, 0, 71, 96
2, 77500, Note_on_c, 0, 35, 95
2, 77502, Note_on_c, 0, 66, 97
2, 77529, Control_c, 0, 64, 127
2, 77660, Note_on_c, 0, 47, 0
2, 77660, Note_on_c, 0, 71, 0
2, 77664, Note_on_c, 0, 71, 91
2, 77667, Note_on_c, 0, 66, 0
2, 77671, Note_on_c, 0, 59, 86
2, 77671, Note_on_c, 0, 47, 82
2, 77673, Note_on_c, 0, 66, 82
2, 77760, Note_on_c, 0, 66, 0
2, 77766, Note_on_c, 0, 66, 91
2, 77767, Note_on_c, 0, 59, 0
2, 77774, Note_on_c, 0, 59, 86
2, 77775, Note_on_c, 0, 47, 0
2, 77779, Note_on_c, 0, 54, 83
2, 77779, Note_on_c, 0, 51, 84
2, 77779, Control_c, 0, 64, 0
2, 77779, Note_on_c, 0, 47, 76
2, 77790, Note_on_c, 0, 71, 0
2, 77793, Note_on_c, 0, 35, 0
2, 77794, Note_on_c, 0, 78, 0
2, 77813, Note_on_c, 0, 59, 0
2, 77821, Note_on_c, 0, 47, 0
2, 77821, Note_on_c, 0, 54, 0
2, 77821, Note_on_c, 0, 66, 0
2, 77836, Note_on_c, 0, 51, 0
2, 77849, Note_on_c, 0, 77, 103
2, 77952, Note_on_c, 0, 77, 0
2, 78015, Note_on_c, 0, 47, 99
2, 78017, Note_on_c, 0, 78, 102
2, 78017, Note_on_c, 0, 35, 85
2, 78110, Note_on_c, 0, 80, 103
2, 78115, Note_on_c, 0, 47, 0
2, 78128, Note_on_c, 0, 35, 0
2, 78139, Note_on_c, 0, 78, 0
2, 78210, Note_on_c, 0, 68, 104
2, 78210, Note_on_c, 0, 47, 107
2, 78211, Note_on_c, 0, 74, 105
2, 78214, Note_on_c, 0, 35, 92
2, 78228, Control_c, 0, 64, 127
2, 78366, Note_on_c, 0, 47, 0
2, 78366, Note_on_c, 0, 68, 0
2, 78366, Note_on_c, 0, 74, 0
2, 78371, Note_on_c, 0, 47, 81
2, 78375, Note_on_c, 0, 74, 86
2, 78375, Note_on_c, 0, 68, 89
2, 78458, Note_on_c, 0, 68, 0
2, 78458, Note_on_c, 0, 74, 0
2, 78468, Note_on_c, 0, 74, 102
2, 78469, Note_on_c, 0, 68, 95
2, 78470, Note_on_c, 0, 56, 90
2, 78475, Note_on_c, 0, 53, 82
2, 78484, Note_on_c, 0, 50, 82
2, 78497, Control_c, 0, 64, 0
2, 78505, Note_on_c, 0, 35, 0
2, 78512, Note_on_c, 0, 56, 0
2, 78515, Note_on_c, 0, 80, 0
2, 78515, Note_on_c, 0, 47, 0
2, 78516, Note_on_c, 0, 68, 0
2, 78517, Note_on_c, 0, 50, 0
2, 78528, Note_on_c, 0, 53, 0
2, 78551, Note_on_c, 0, 74, 0
2, 78554, Note_on_c, 0, 77, 104
2, 78610, Note_on_c, 0, 77, 0
2, 78731, Note_on_c, 0, 47, 92
2, 78731, Note_on_c, 0, 35, 92
2, 78734, Note_on_c, 0, 75, 102
2, 78764, Note_on_c, 0, 47, 0
2, 78764, Note_on_c, 0, 35, 0
2, 78835, Note_on_c, 0, 75, 0
2, 78901, Note_on_c, 0, 73, 107
2, 78907, Note_on_c, 0, 46, 106
2, 78908, Note_on_c, 0, 34, 96
2, 78912, Note_on_c, 0, 65, 90
2, 78916, Note_on_c, 0, 70, 82
2, 78935, Control_c, 0, 64, 127
2, 79050, Note_on_c, 0, 70, 0
2, 79057, Note_on_c, 0, 46, 0
2, 79059, Note_on_c, 0, 70, 87
2, 79062, Note_on_c, 0, 53, 63
2, 79064, Note_on_c, 0, 46, 63
2, 79073, Note_on_c, 0, 53, 0
2, 79150, Note_on_c, 0, 65, 0
2, 79150, Note_on_c, 0, 70, 0
2, 79157, Note_on_c, 0, 65, 93
2, 79160, Note_on_c, 0, 58, 84
2, 79161, Note_on_c, 0, 70, 94
2, 79164, Note_on_c, 0, 56, 82
2, 79164, Note_on_c, 0, 53, 80
2, 79262, Note_on_c, 0, 80, 105
2, 79368, Note_on_c, 0, 34, 0
2, 79368, Control_c, 0, 64, 0
2, 79370, Note_on_c, 0, 65, 0
2, 79371, Note_on_c, 0, 58, 0
2, 79371, Note_on_c, 0, 70, 0
2, 79372, Note_on_c, 0, 46, 0
2, 79373, Note_on_c, 0, 53, 0
2, 79373, Note_on_c, 0, 73, 0
2, 79375, Note_on_c, 0, 56, 0
2, 79418, Note_on_c, 0, 80, 0
2, 79428, Note_on_c, 0, 46, 91
2, 79429, Note_on_c, 0, 34, 86
2, 79430, Note_on_c, 0, 82, 106
2, 79464, Note_on_c, 0, 34, 0
2, 79466, Note_on_c, 0, 46, 0
2, 79474, Note_on_c, 0, 82, 0
2, 79597, Note_on_c, 0, 80, 109
2, 79604, Note_on_c, 0, 69, 102
2, 79605, Note_on_c, 0, 73, 104
2, 79605, Note_on_c, 0, 45, 101
2, 79606, Note_on_c, 0, 33, 92
2, 79618, Control_c, 0, 64, 127
2, 79756, Note_on_c, 0, 45, 0
2, 79756, Note_on_c, 0, 69, 0
2, 79758, Note_on_c, 0, 78, 103
2, 79765, Note_on_c, 0, 69, 87
2, 79767, Note_on_c, 0, 45, 85
2, 79841, Note_on_c, 0, 73, 0
2, 79841, Note_on_c, 0, 78, 0
2, 79849, Note_on_c, 0, 78, 100
2, 79851, Note_on_c, 0, 57, 93
2, 79852, Note_on_c, 0, 54, 87
2, 79852, Note_on_c, 0, 73, 96
2, 79855, Note_on_c, 0, 49, 81
2, 79856, Note_on_c, 0, 45, 0
2, 79861, Note_on_c, 0, 45, 78
2, 79872, Control_c, 0, 64, 0
2, 79884, Note_on_c, 0, 80, 0
2, 79884, Note_on_c, 0, 57, 0
2, 79890, Note_on_c, 0, 54, 0
2, 79895, Note_on_c, 0, 49, 0
2, 79902, Note_on_c, 0, 33, 0
2, 79902, Note_on_c, 0, 69, 0
2, 79918, Note_on_c, 0, 45, 0
2, 79918, Note_on_c, 0, 73, 0
2, 80030, Note_on_c, 0, 33, 78
2, 80064, Note_on_c, 0, 78, 0
2, 80091, Note_on_c, 0, 45, 79
2, 80131, Note_on_c, 0, 71, 75
2, 80159, Note_on_c, 0, 73, 110
2, 80228, Note_on_c, 0, 45, 0
2, 80235, Note_on_c, 0, 71, 0
2, 80240, Note_on_c, 0, 33, 0
2, 80319, Note_on_c, 0, 44, 99
2, 80320, Note_on_c, 0, 32, 98
2, 80324, Note_on_c, 0, 71, 101
2, 80394, Control_c, 0, 64, 127
2, 80501, Note_on_c, 0, 73, 0
2, 80506, Note_on_c, 0, 73, 100
2, 80674, Note_on_c, 0, 75, 106
2, 80675, Note_on_c, 0, 51, 81
2, 80676, Note_on_c, 0, 54, 84
2, 80679, Note_on_c, 0, 59, 88
2, 80783, Control_c, 0, 64, 0
2, 80792, Note_on_c, 0, 32, 0
2, 80794, Note_on_c, 0, 44, 0
2, 80794, Note_on_c, 0, 51, 0
2, 80795, Note_on_c, 0, 54, 0
2, 80795, Note_on_c, 0, 75, 0
2, 80795, Note_on_c, 0, 71, 0
2, 80796, Note_on_c, 0, 59, 0
2, 80816, Note_on_c, 0, 73, 0
2, 80822, Note_on_c, 0, 73, 104
2, 80922, Note_on_c, 0, 49, 93
2, 80922, Note_on_c, 0, 71, 98
2, 80926, Note_on_c, 0, 37, 96
2, 80947, Control_c, 0, 64, 127
2, 81092, Note_on_c, 0, 70, 96
2, 81160, Note_on_c, 0, 61, 87
2, 81165, Note_on_c, 0, 56, 70
2, 81171, Note_on_c, 0, 54, 75
2, 81255, Note_on_c, 0, 68, 100
2, 81354, Note_on_c, 0, 37, 0
2, 81354, Note_on_c, 0, 49, 0
2, 81359, Note_on_c, 0, 37, 83
2, 81360, Note_on_c, 0, 49, 81
2, 81441, Note_on_c, 0, 66, 88
2, 81507, Note_on_c, 0, 68, 0
2, 81513, Note_on_c, 0, 68, 100
2, 81602, Control_c, 0, 64, 0
2, 81610, Note_on_c, 0, 49, 0
2, 81610, Note_on_c, 0, 37, 0
2, 81610, Note_on_c, 0, 73, 0
2, 81610, Note_on_c, 0, 61, 0
2, 81611, Note_on_c, 0, 70, 0
2, 81611, Note_on_c, 0, 71, 0
2, 81611, Note_on_c, 0, 54, 0
2, 81630, Note_on_c, 0, 66, 0
2, 81638, Note_on_c, 0, 56, 0
2, 81684, Note_on_c, 0, 66, 95
2, 81687, Note_on_c, 0, 30, 88
2, 81688, Note_on_c, 0, 42, 87
2, 81753, Control_c, 0, 64, 127
2, 81875, Control_c, 0, 64, 0
2, 81876, Note_on_c, 0, 42, 0
2, 81887, Note_on_c, 0, 56, 79
2, 81888, Note_on_c, 0, 54, 81
2, 81890, Note_on_c, 0, 49, 75
2, 81891, Note_on_c, 0, 30, 0
2, 81891, Note_on_c, 0, 68, 0
2, 81893, Note_on_c, 0, 61, 80
2, 81925, Note_on_c, 0, 61, 0
2, 81926, Note_on_c, 0, 56, 0
2, 81927, Note_on_c, 0, 49, 0
2, 81953, Note_on_c, 0, 54, 0
2, 82100, Note_on_c, 0, 42, 68
2, 82147, Note_on_c, 0, 61, 89
2, 82152, Note_on_c, 0, 56, 78
2, 82160, Note_on_c, 0, 66, 0
2, 82172, Note_on_c, 0, 54, 58
2, 82180, Note_on_c, 0, 49, 60
2, 82193, Note_on_c, 0, 56, 0
2, 82222, Note_on_c, 0, 54, 0
2, 82245, Note_on_c, 0, 42, 0
2, 82252, Note_on_c, 0, 49, 0
2, 82252, Note_on_c, 0, 61, 0
2, 82401, Note_on_c, 0, 61, 78
2, 82402, Note_on_c, 0, 54, 68
2, 82402, Note_on_c, 0, 49, 65
2, 82403, Note_on_c, 0, 56, 71
2, 82437, Control_c, 0, 64, 127
2, 82771, Note_on_c, 0, 75, 75
2, 82772, Note_on_c, 0, 87, 91
2, 82954, Note_on_c, 0, 90, 82
2, 83088, Note_on_c, 0, 87, 0
2, 83089, Note_on_c, 0, 49, 0
2, 83090, Note_on_c, 0, 56, 0
2, 83090, Note_on_c, 0, 61, 0
2, 83090, Control_c, 0, 64, 0
2, 83091, Note_on_c, 0, 54, 0
2, 83091, Note_on_c, 0, 90, 0
2, 83091, Note_on_c, 0, 75, 0
2, 83117, Note_on_c, 0, 63, 76
2, 83124, Note_on_c, 0, 71, 70
2, 83125, Note_on_c, 0, 66, 71
2, 83131, Note_on_c, 0, 56, 62
2, 83131, Note_on_c, 0, 92, 97
2, 83132, Note_on_c, 0, 80, 83
2, 83137, Note_on_c, 0, 90, 72
2, 83143, Control_c, 0, 64, 127
2, 83303, Note_on_c, 0, 94, 98
2, 83308, Note_on_c, 0, 82, 75
2, 83443, Note_on_c, 0, 56, 0
2, 83473, Note_on_c, 0, 92, 0
2, 83481, Note_on_c, 0, 63, 0
2, 83482, Note_on_c, 0, 92, 91
2, 83487, Note_on_c, 0, 63, 77
2, 83543, Note_on_c, 0, 66, 0
2, 83553, Note_on_c, 0, 66, 86
2, 83558, Note_on_c, 0, 90, 0
2, 83569, Note_on_c, 0, 90, 90
2, 83612, Note_on_c, 0, 71, 0
2, 83618, Note_on_c, 0, 71, 74
2, 83742, Note_on_c, 0, 75, 73
2, 83784, Note_on_c, 0, 78, 71
2, 83832, Note_on_c, 0, 83, 94
2, 83834, Note_on_c, 0, 92, 0
2, 83845, Note_on_c, 0, 92, 95
2, 84203, Note_on_c, 0, 75, 0
2, 84207, Note_on_c, 0, 75, 76
2, 84209, Note_on_c, 0, 87, 79
2, 84380, Note_on_c, 0, 78, 0
2, 84380, Note_on_c, 0, 90, 0
2, 84389, Note_on_c, 0, 90, 85
2, 84390, Note_on_c, 0, 78, 65
2, 84494, Control_c, 0, 64, 0
2, 84498, Note_on_c, 0, 83, 0
2, 84498, Note_on_c, 0, 87, 0
2, 84498, Note_on_c, 0, 94, 0
2, 84498, Note_on_c, 0, 71, 0
2, 84498, Note_on_c, 0, 80, 0
2, 84498, Note_on_c, 0, 75, 0
2, 84499, Note_on_c, 0, 82, 0
2, 84499, Note_on_c, 0, 92, 0
2, 84499, Note_on_c, 0, 90, 0
2, 84499, Note_on_c, 0, 63, 0
2, 84499, Note_on_c, 0, 78, 0
2, 84510, Note_on_c, 0, 66, 0
2, 84551, Note_on_c, 0, 58, 74
2, 84559, Note_on_c, 0, 68, 75
2, 84560, Note_on_c, 0, 92, 97
2, 84563, Note_on_c, 0, 65, 66
2, 84565, Note_on_c, 0, 80, 82
2, 84587, Control_c, 0, 64, 127
2, 84728, Note_on_c, 0, 94, 102
2, 84735, Note_on_c, 0, 82, 77
2, 84887, Note_on_c, 0, 65, 0
2, 84897, Note_on_c, 0, 65, 72
2, 84902, Note_on_c, 0, 92, 0
2, 84912, Note_on_c, 0, 92, 100
2, 84940, Note_on_c, 0, 68, 0
2, 84946, Note_on_c, 0, 68, 73
2, 84998, Note_on_c, 0, 70, 83
2, 85002, Note_on_c, 0, 90, 100
2, 85043, Note_on_c, 0, 74, 93
2, 85148, Note_on_c, 0, 77, 60
2, 85194, Note_on_c, 0, 80, 0
2, 85204, Note_on_c, 0, 80, 89
2, 85248, Note_on_c, 0, 92, 0
2, 85256, Note_on_c, 0, 92, 104
2, 85263, Note_on_c, 0, 82, 0
2, 85273, Note_on_c, 0, 82, 88
2, 85629, Note_on_c, 0, 87, 94
2, 85793, Note_on_c, 0, 90, 0
2, 85803, Note_on_c, 0, 90, 92
2, 85942, Control_c, 0, 64, 0
2, 85961, Note_on_c, 0, 74, 0
2, 85962, Note_on_c, 0, 94, 0
2, 85963, Note_on_c, 0, 58, 0
2, 85964, Note_on_c, 0, 65, 0
2, 85964, Note_on_c, 0, 80, 0
2, 85965, Note_on_c, 0, 70, 0
2, 85965, Note_on_c, 0, 87, 0
2, 85965, Note_on_c, 0, 82, 0
2, 85965, Note_on_c, 0, 68, 0
2, 85966, Note_on_c, 0, 92, 0
2, 85966, Note_on_c, 0, 63, 69
2, 85967, Note_on_c, 0, 90, 0
2, 85969, Note_on_c, 0, 94, 95
2, 85977, Note_on_c, 0, 77, 0
2, 85985, Control_c, 0, 64, 127
2, 86047, Note_on_c, 0, 66, 71
2, 86147, Note_on_c, 0, 70, 80
2, 86154, Note_on_c, 0, 94, 0
2, 86159, Note_on_c, 0, 94, 96
2, 86217, Note_on_c, 0, 75, 87
2, 86304, Note_on_c, 0, 78, 93
2, 86323, Note_on_c, 0, 94, 0
2, 86330, Note_on_c, 0, 94, 103
2, 86384, Note_on_c, 0, 75, 0
2, 86389, Note_on_c, 0, 75, 70
2, 86469, Note_on_c, 0, 70, 0
2, 86477, Note_on_c, 0, 70, 83
2, 86499, Note_on_c, 0, 95, 102
2, 86553, Note_on_c, 0, 75, 0
2, 86561, Note_on_c, 0, 75, 85
2, 86653, Note_on_c, 0, 94, 0
2, 86657, Note_on_c, 0, 62, 88
2, 86664, Note_on_c, 0, 94, 101
2, 86664, Note_on_c, 0, 75, 0
2, 86664, Note_on_c, 0, 70, 0
2, 86664, Note_on_c, 0, 78, 0
2, 86665, Note_on_c, 0, 63, 0
2, 86665, Note_on_c, 0, 66, 0
2, 86679, Control_c, 0, 64, 0
2, 86714, Control_c, 0, 64, 127
2, 86736, Note_on_c, 0, 65, 81
2, 86737, Note_on_c, 0, 95, 0
2, 86830, Note_on_c, 0, 70, 92
2, 86833, Note_on_c, 0, 92, 99
2, 86910, Note_on_c, 0, 74, 94
2, 86941, Note_on_c, 0, 90, 100
2, 86987, Note_on_c, 0, 77, 97
2, 87160, Note_on_c, 0, 70, 0
2, 87164, Note_on_c, 0, 70, 91
2, 87180, Note_on_c, 0, 87, 95
2, 87252, Note_on_c, 0, 74, 0
2, 87262, Note_on_c, 0, 74, 79
2, 87352, Note_on_c, 0, 94, 0
2, 87360, Note_on_c, 0, 94, 99
2, 87362, Note_on_c, 0, 61, 91
2, 87375, Note_on_c, 0, 87, 0
2, 87377, Control_c, 0, 64, 0
2, 87377, Note_on_c, 0, 70, 0
2, 87377, Note_on_c, 0, 62, 0
2, 87377, Note_on_c, 0, 77, 0
2, 87377, Note_on_c, 0, 92, 0
2, 87377, Note_on_c, 0, 65, 0
2, 87378, Note_on_c, 0, 90, 0
2, 87390, Note_on_c, 0, 74, 0
2, 87436, Control_c, 0, 64, 127
2, 87449, Note_on_c, 0, 66, 85
2, 87544, Note_on_c, 0, 94, 0
2, 87548, Note_on_c, 0, 70, 91
2, 87552, Note_on_c, 0, 94, 96
2, 87608, Note_on_c, 0, 73, 97
2, 87693, Note_on_c, 0, 78, 92
2, 87720, Note_on_c, 0, 94, 0
2, 87731, Note_on_c, 0, 94, 108
2, 87774, Note_on_c, 0, 73, 0
2, 87786, Note_on_c, 0, 73, 96
2, 87866, Note_on_c, 0, 70, 0
2, 87870, Note_on_c, 0, 70, 85
2, 87889, Note_on_c, 0, 95, 100
2, 87966, Note_on_c, 0, 73, 0
2, 87977, Note_on_c, 0, 73, 84
2, 88054, Note_on_c, 0, 60, 93
2, 88058, Note_on_c, 0, 94, 0
2, 88063, Note_on_c, 0, 94, 104
2, 88078, Note_on_c, 0, 78, 0
2, 88078, Note_on_c, 0, 61, 0
2, 88078, Note_on_c, 0, 70, 0
2, 88079, Note_on_c, 0, 66, 0
2, 88081, Control_c, 0, 64, 0
2, 88097, Note_on_c, 0, 73, 0
2, 88135, Control_c, 0, 64, 127
2, 88146, Note_on_c, 0, 63, 80
2, 88158, Note_on_c, 0, 95, 0
2, 88223, Note_on_c, 0, 68, 95
2, 88225, Note_on_c, 0, 92, 96
2, 88300, Note_on_c, 0, 72, 89
2, 88323, Note_on_c, 0, 90, 103
2, 88395, Note_on_c, 0, 75, 84
2, 88458, Note_on_c, 0, 72, 0
2, 88463, Note_on_c, 0, 72, 99
2, 88527, Note_on_c, 0, 68, 0
2, 88533, Note_on_c, 0, 68, 74
2, 88570, Note_on_c, 0, 85, 100
2, 88588, Note_on_c, 0, 63, 0
2, 88597, Note_on_c, 0, 63, 89
2, 88750, Note_on_c, 0, 85, 0
2, 88755, Note_on_c, 0, 85, 106
2, 88761, Note_on_c, 0, 80, 86
2, 88761, Note_on_c, 0, 76, 83
2, 88767, Note_on_c, 0, 52, 81
2, 88769, Note_on_c, 0, 75, 0
2, 88769, Note_on_c, 0, 72, 0
2, 88769, Note_on_c, 0, 60, 0
2, 88769, Note_on_c, 0, 68, 0
2, 88769, Note_on_c, 0, 63, 0
2, 88769, Note_on_c, 0, 92, 0
2, 88770, Note_on_c, 0, 90, 0
2, 88773, Note_on_c, 0, 94, 0
2, 88773, Control_c, 0, 64, 0
2, 88834, Control_c, 0, 64, 127
2, 88952, Note_on_c, 0, 83, 95
2, 88954, Note_on_c, 0, 54, 79
2, 89051, Note_on_c, 0, 56, 71
2, 89106, Note_on_c, 0, 82, 99
2, 89108, Note_on_c, 0, 59, 84
2, 89177, Note_on_c, 0, 64, 90
2, 89249, Note_on_c, 0, 83, 0
2, 89259, Note_on_c, 0, 83, 93
2, 89284, Note_on_c, 0, 66, 77
2, 89352, Note_on_c, 0, 90, 104
2, 89355, Note_on_c, 0, 78, 88
2, 89356, Note_on_c, 0, 71, 103
2, 89356, Note_on_c, 0, 90, 0
2, 89617, Note_on_c, 0, 64, 0
2, 89628, Note_on_c, 0, 64, 74
2, 89710, Note_on_c, 0, 66, 0
2, 89717, Note_on_c, 0, 85, 0
2, 89718, Note_on_c, 0, 66, 86
2, 89794, Note_on_c, 0, 71, 0
2, 89798, Note_on_c, 0, 71, 92
2, 89832, Note_on_c, 0, 76, 0
2, 89879, Note_on_c, 0, 76, 84
2, 89955, Note_on_c, 0, 78, 0
2, 89965, Note_on_c, 0, 78, 90
2, 90040, Note_on_c, 0, 82, 0
2, 90046, Note_on_c, 0, 82, 86
2, 90106, Note_on_c, 0, 59, 0
2, 90106, Note_on_c, 0, 80, 0
2, 90107, Note_on_c, 0, 56, 0
2, 90107, Note_on_c, 0, 54, 0
2, 90107, Note_on_c, 0, 64, 0
2, 90107, Note_on_c, 0, 78, 0
2, 90107, Note_on_c, 0, 82, 0
2, 90108, Note_on_c, 0, 76, 0
2, 90108, Note_on_c, 0, 52, 0
2, 90112, Control_c, 0, 64, 0
2, 90124, Note_on_c, 0, 83, 0
2, 90132, Note_on_c, 0, 71, 0
2, 90135, Note_on_c, 0, 83, 96
2, 90136, Note_on_c, 0, 71, 85
2, 90140, Note_on_c, 0, 66, 0
2, 90145, Note_on_c, 0, 66, 74
2, 90145, Note_on_c, 0, 63, 75
2, 90150, Note_on_c, 0, 56, 64
2, 90150, Note_on_c, 0, 68, 74
2, 90155, Control_c, 0, 64, 127
2, 90239, Note_on_c, 0, 82, 92
2, 90320, Note_on_c, 0, 78, 88
2, 90418, Note_on_c, 0, 75, 82
2, 90499, Note_on_c, 0, 73, 80
2, 90562, Note_on_c, 0, 71, 0
2, 90573, Note_on_c, 0, 71, 71
2, 90654, Note_on_c, 0, 66, 0
2, 90663, Note_on_c, 0, 66, 87
2, 90746, Note_on_c, 0, 63, 0
2, 90753, Note_on_c, 0, 63, 87
2, 90846, Note_on_c, 0, 56, 0
2, 90852, Note_on_c, 0, 56, 88
2, 90909, Note_on_c, 0, 68, 0
2, 90909, Note_on_c, 0, 75, 0
2, 90909, Note_on_c, 0, 71, 0
2, 90910, Note_on_c, 0, 73, 0
2, 90910, Note_on_c, 0, 83, 0
2, 91034, Note_on_c, 0, 90, 99
2, 91217, Note_on_c, 0, 92, 101
2, 91392, Note_on_c, 0, 90, 0
2, 91401, Note_on_c, 0, 90, 95
2, 91537, Note_on_c, 0, 92, 0
2, 91539, Control_c, 0, 64, 0
2, 91545, Note_on_c, 0, 63, 0
2, 91545, Note_on_c, 0, 78, 0
2, 91545, Note_on_c, 0, 82, 0
2, 91553, Note_on_c, 0, 56, 0
2, 91553, Note_on_c, 0, 90, 0
2, 91553, Note_on_c, 0, 49, 81
2, 91560, Note_on_c, 0, 66, 0
2, 91563, Note_on_c, 0, 90, 94
2, 91578, Note_on_c, 0, 78, 65
2, 91599, Control_c, 0, 64, 127
2, 91642, Note_on_c, 0, 56, 79
2, 91716, Note_on_c, 0, 61, 87
2, 91749, Note_on_c, 0, 89, 100
2, 91753, Note_on_c, 0, 77, 81
2, 91801, Note_on_c, 0, 63, 83
2, 91891, Note_on_c, 0, 65, 90
2, 91914, Note_on_c, 0, 89, 0
2, 91921, Note_on_c, 0, 77, 0
2, 91924, Note_on_c, 0, 89, 102
2, 91931, Note_on_c, 0, 77, 71
2, 91991, Note_on_c, 0, 61, 0
2, 91999, Note_on_c, 0, 61, 75
2, 92090, Note_on_c, 0, 65, 0
2, 92092, Note_on_c, 0, 87, 91
2, 92100, Note_on_c, 0, 65, 78
2, 92177, Note_on_c, 0, 85, 93
2, 92181, Note_on_c, 0, 66, 86
2, 92276, Note_on_c, 0, 68, 97
2, 92352, Note_on_c, 0, 61, 0
2, 92362, Note_on_c, 0, 61, 78
2, 92436, Note_on_c, 0, 68, 0
2, 92440, Note_on_c, 0, 68, 84
2, 92527, Note_on_c, 0, 70, 85
2, 92606, Note_on_c, 0, 71, 92
2, 92674, Note_on_c, 0, 61, 0
2, 92683, Note_on_c, 0, 61, 88
2, 92751, Note_on_c, 0, 85, 0
2, 92755, Note_on_c, 0, 72, 91
2, 92759, Note_on_c, 0, 49, 0
2, 92762, Note_on_c, 0, 85, 99
2, 92851, Note_on_c, 0, 61, 0
2, 92858, Note_on_c, 0, 61, 78
2, 92935, Note_on_c, 0, 68, 0
2, 92942, Note_on_c, 0, 73, 101
2, 92946, Note_on_c, 0, 68, 94
2, 92947, Note_on_c, 0, 72, 0
2, 92948, Note_on_c, 0, 87, 0
2, 92949, Note_on_c, 0, 78, 0
2, 92949, Note_on_c, 0, 71, 0
2, 92949, Note_on_c, 0, 56, 0
2, 92950, Note_on_c, 0, 77, 0
2, 92950, Note_on_c, 0, 85, 0
2, 92952, Note_on_c, 0, 94, 104
2, 92953, Note_on_c, 0, 66, 0
2, 92953, Note_on_c, 0, 89, 0
2, 92953, Note_on_c, 0, 65, 0
2, 92953, Note_on_c, 0, 70, 0
2, 92955, Note_on_c, 0, 63, 0
2, 92955, Note_on_c, 0, 90, 0
2, 92960, Control_c, 0, 64, 0
2, 93020, Control_c, 0, 64, 127
2, 93125, Note_on_c, 0, 95, 103
2, 93292, Note_on_c, 0, 75, 93
2, 93304, Note_on_c, 0, 94, 0
2, 93311, Note_on_c, 0, 94, 100
2, 93480, Note_on_c, 0, 95, 0
2, 93488, Note_on_c, 0, 95, 98
2, 93656, Note_on_c, 0, 77, 82
2, 93657, Note_on_c, 0, 94, 0
2, 93665, Note_on_c, 0, 94, 102
2, 93843, Note_on_c, 0, 92, 99
2, 94010, Note_on_c, 0, 73, 0
2, 94017, Note_on_c, 0, 73, 85
2, 94020, Note_on_c, 0, 90, 87
2, 94195, Note_on_c, 0, 92, 0
2, 94204, Note_on_c, 0, 92, 90
2, 94379, Note_on_c, 0, 75, 0
2, 94387, Note_on_c, 0, 75, 106
2, 94391, Note_on_c, 0, 66, 97
2, 94392, Note_on_c, 0, 56, 91
2, 94392, Note_on_c, 0, 71, 87
2, 94393, Note_on_c, 0, 63, 98
2, 94438, Control_c, 0, 64, 0
2, 94440, Note_on_c, 0, 95, 0
2, 94441, Note_on_c, 0, 77, 0
2, 94441, Note_on_c, 0, 94, 0
2, 94441, Note_on_c, 0, 73, 0
2, 94442, Note_on_c, 0, 92, 0
2, 94444, Note_on_c, 0, 66, 0
2, 94446, Note_on_c, 0, 56, 0
2, 94448, Note_on_c, 0, 61, 0
2, 94456, Note_on_c, 0, 90, 0
2, 94464, Note_on_c, 0, 68, 0
2, 94464, Note_on_c, 0, 71, 0
2, 94464, Note_on_c, 0, 75, 0
2, 94471, Note_on_c, 0, 75, 99
2, 94474, Note_on_c, 0, 71, 71
2, 94502, Note_on_c, 0, 63, 0
2, 94561, Note_on_c, 0, 77, 86
2, 94625, Note_on_c, 0, 71, 0
2, 94630, Note_on_c, 0, 75, 0
2, 94736, Note_on_c, 0, 78, 105
2, 94771, Note_on_c, 0, 77, 0
2, 94902, Note_on_c, 0, 73, 101
2, 94955, Note_on_c, 0, 73, 0
2, 94963, Note_on_c, 0, 78, 0
2, 95072, Note_on_c, 0, 75, 107
2, 95139, Control_c, 0, 64, 127
2, 95171, Note_on_c, 0, 78, 108
2, 95212, Note_on_c, 0, 75, 0
2, 95223, Control_c, 0, 64, 0
2, 95354, Note_on_c, 0, 78, 0
2, 95359, Note_on_c, 0, 78, 109
2, 95408, Control_c, 0, 64, 127
2, 95457, Note_on_c, 0, 47, 106
2, 95458, Note_on_c, 0, 35, 97
2, 95639, Note_on_c, 0, 80, 109
2, 95798, Note_on_c, 0, 46, 107
2, 95800, Note_on_c, 0, 34, 100
2, 95845, Control_c, 0, 64, 0
2, 95847, Note_on_c, 0, 35, 0
2, 95849, Note_on_c, 0, 47, 0
2, 95853, Note_on_c, 0, 80, 0
2, 95863, Note_on_c, 0, 34, 0
2, 95865, Note_on_c, 0, 46, 0
2, 95935, Note_on_c, 0, 50, 93
2, 95937, Note_on_c, 0, 38, 97
2, 95938, Note_on_c, 0, 78, 0
2, 95942, Note_on_c, 0, 78, 101
2, 95965, Note_on_c, 0, 50, 0
2, 95972, Note_on_c, 0, 38, 0
2, 96047, Note_on_c, 0, 51, 96
2, 96048, Note_on_c, 0, 39, 88
2, 96050, Note_on_c, 0, 75, 76
2, 96086, Note_on_c, 0, 51, 0
2, 96088, Note_on_c, 0, 39, 0
2, 96162, Note_on_c, 0, 80, 106
2, 96163, Note_on_c, 0, 41, 102
2, 96164, Note_on_c, 0, 53, 97
2, 96238, Note_on_c, 0, 75, 0
2, 96261, Control_c, 0, 64, 127
2, 96274, Note_on_c, 0, 42, 89
2, 96276, Note_on_c, 0, 54, 93
2, 96360, Note_on_c, 0, 78, 0
2, 96367, Note_on_c, 0, 78, 102
2, 96373, Note_on_c, 0, 56, 103
2, 96378, Note_on_c, 0, 44, 101
2, 96422, Note_on_c, 0, 41, 0
2, 96427, Control_c, 0, 64, 0
2, 96430, Note_on_c, 0, 53, 0
2, 96435, Note_on_c, 0, 80, 0
2, 96440, Note_on_c, 0, 42, 0
2, 96441, Note_on_c, 0, 78, 0
2, 96442, Note_on_c, 0, 54, 0
2, 96445, Note_on_c, 0, 44, 0
2, 96445, Note_on_c, 0, 56, 0
2, 96510, Note_on_c, 0, 39, 102
2, 96512, Note_on_c, 0, 51, 108
2, 96520, Note_on_c, 0, 80, 106
2, 96560, Control_c, 0, 64, 127
2, 96689, Note_on_c, 0, 82, 105
2, 96691, Note_on_c, 0, 70, 99
2, 96760, Note_on_c, 0, 70, 0
2, 96760, Note_on_c, 0, 82, 0
2, 96767, Note_on_c, 0, 75, 103
2, 96768, Note_on_c, 0, 70, 98
2, 96770, Note_on_c, 0, 82, 106
2, 96771, Note_on_c, 0, 78, 92
2, 96870, Note_on_c, 0, 63, 104
2, 96871, Note_on_c, 0, 58, 97
2, 96873, Note_on_c, 0, 54, 100
2, 97036, Note_on_c, 0, 82, 0
2, 97048, Note_on_c, 0, 82, 109
2, 97109, Note_on_c, 0, 80, 0
2, 97111, Note_on_c, 0, 63, 0
2, 97112, Note_on_c, 0, 58, 0
2, 97113, Note_on_c, 0, 54, 0
2, 97113, Note_on_c, 0, 70, 0
2, 97115, Control_c, 0, 64, 0
2, 97115, Note_on_c, 0, 51, 0
2, 97128, Note_on_c, 0, 39, 0
2, 97128, Note_on_c, 0, 75, 0
2, 97128, Note_on_c, 0, 78, 0
2, 97190, Note_on_c, 0, 82, 0
2, 97206, Note_on_c, 0, 44, 104
2, 97207, Note_on_c, 0, 83, 108
2, 97208, Note_on_c, 0, 32, 99
2, 97209, Note_on_c, 0, 75, 99
2, 97228, Control_c, 0, 64, 127
2, 97382, Note_on_c, 0, 32, 0
2, 97382, Note_on_c, 0, 44, 0
2, 97386, Note_on_c, 0, 82, 107
2, 97389, Note_on_c, 0, 44, 91
2, 97389, Note_on_c, 0, 32, 85
2, 97483, Note_on_c, 0, 59, 99
2, 97485, Note_on_c, 0, 54, 95
2, 97485, Note_on_c, 0, 51, 90
2, 97564, Note_on_c, 0, 80, 108
2, 97600, Note_on_c, 0, 78, 60
2, 97666, Note_on_c, 0, 32, 0
2, 97675, Note_on_c, 0, 32, 92
2, 97735, Note_on_c, 0, 44, 0
2, 97735, Note_on_c, 0, 78, 0
2, 97742, Note_on_c, 0, 44, 84
2, 97743, Note_on_c, 0, 78, 104
2, 97832, Note_on_c, 0, 44, 0
2, 97833, Note_on_c, 0, 82, 0
2, 97834, Note_on_c, 0, 59, 0
2, 97834, Note_on_c, 0, 83, 0
2, 97836, Note_on_c, 0, 80, 0
2, 97836, Note_on_c, 0, 54, 0
2, 97836, Note_on_c, 0, 75, 0
2, 97838, Note_on_c, 0, 78, 0
2, 97839, Control_c, 0, 64, 0
2, 97850, Note_on_c, 0, 32, 0
2, 97850, Note_on_c, 0, 51, 0
2, 97901, Note_on_c, 0, 46, 107
2, 97904, Note_on_c, 0, 34, 94
2, 97904, Note_on_c, 0, 77, 105
2, 97906, Note_on_c, 0, 74, 104
2, 97950, Control_c, 0, 64, 127
2, 98065, Note_on_c, 0, 46, 0
2, 98071, Note_on_c, 0, 46, 93
2, 98087, Note_on_c, 0, 78, 97
2, 98154, Note_on_c, 0, 62, 103
2, 98159, Note_on_c, 0, 53, 81
2, 98184, Note_on_c, 0, 57, 70
2, 98259, Note_on_c, 0, 80, 107
2, 98342, Note_on_c, 0, 34, 0
2, 98342, Note_on_c, 0, 78, 0
2, 98346, Note_on_c, 0, 34, 80
2, 98347, Note_on_c, 0, 78, 73
2, 98426, Note_on_c, 0, 46, 0
2, 98437, Note_on_c, 0, 46, 99
2, 98438, Note_on_c, 0, 82, 102
2, 98507, Note_on_c, 0, 62, 0
2, 98507, Note_on_c, 0, 78, 0
2, 98507, Note_on_c, 0, 77, 0
2, 98507, Note_on_c, 0, 74, 0
2, 98507, Note_on_c, 0, 80, 0
2, 98508, Note_on_c, 0, 53, 0
2, 98508, Note_on_c, 0, 34, 0
2, 98508, Control_c, 0, 64, 0
2, 98508, Note_on_c, 0, 57, 0
2, 98510, Note_on_c, 0, 46, 0
2, 98510, Note_on_c, 0, 82, 0
2, 98603, Note_on_c, 0, 39, 99
2, 98612, Note_on_c, 0, 80, 108
2, 98619, Note_on_c, 0, 70, 96
2, 98625, Note_on_c, 0, 75, 90
2, 98626, Control_c, 0, 64, 127
2, 98685, Note_on_c, 0, 51, 85
2, 98749, Note_on_c, 0, 39, 0
2, 98753, Note_on_c, 0, 39, 91
2, 98777, Control_c, 0, 64, 0
2, 98786, Note_on_c, 0, 75, 0
2, 98789, Note_on_c, 0, 70, 0
2, 98789, Note_on_c, 0, 51, 0
2, 98790, Note_on_c, 0, 80, 0
2, 98791, Note_on_c, 0, 78, 96
2, 98826, Note_on_c, 0, 39, 0
2, 98870, Note_on_c, 0, 78, 0
2, 98960, Note_on_c, 0, 38, 91
2, 98966, Note_on_c, 0, 80, 110
2, 98974, Note_on_c, 0, 75, 92
2, 98979, Control_c, 0, 64, 127
2, 98980, Note_on_c, 0, 70, 90
2, 98982, Note_on_c, 0, 50, 86
2, 99110, Note_on_c, 0, 38, 0
2, 99115, Note_on_c, 0, 38, 82
2, 99140, Note_on_c, 0, 78, 99
2, 99152, Note_on_c, 0, 75, 0
2, 99157, Note_on_c, 0, 80, 0
2, 99158, Note_on_c, 0, 50, 0
2, 99159, Control_c, 0, 64, 0
2, 99159, Note_on_c, 0, 70, 0
2, 99161, Note_on_c, 0, 38, 0
2, 99225, Note_on_c, 0, 78, 0
2, 99305, Note_on_c, 0, 49, 100
2, 99307, Note_on_c, 0, 80, 105
2, 99307, Note_on_c, 0, 37, 94
2, 99315, Note_on_c, 0, 70, 100
2, 99333, Control_c, 0, 64, 127
2, 99430, Control_c, 0, 64, 0
2, 99436, Note_on_c, 0, 37, 0
2, 99436, Note_on_c, 0, 70, 0
2, 99436, Note_on_c, 0, 49, 0
2, 99437, Note_on_c, 0, 80, 0
2, 99466, Note_on_c, 0, 82, 103
2, 99531, Note_on_c, 0, 82, 0
2, 99556, Note_on_c, 0, 78, 108
2, 99557, Note_on_c, 0, 30, 96
2, 99557, Note_on_c, 0, 42, 101
2, 99560, Note_on_c, 0, 70, 99
2, 99601, Control_c, 0, 64, 127
2, 99724, Note_on_c, 0, 42, 0
2, 99735, Note_on_c, 0, 42, 82
2, 99808, Note_on_c, 0, 54, 92
2, 99837, Note_on_c, 0, 49, 77
2, 99927, Note_on_c, 0, 42, 0
2, 99928, Control_c, 0, 64, 0
2, 99928, Note_on_c, 0, 54, 0
2, 99928, Note_on_c, 0, 49, 0
2, 99929, Note_on_c, 0, 70, 0
2, 99931, Note_on_c, 0, 78, 0
2, 99939, Note_on_c, 0, 30, 0
2, 100008, Note_on_c, 0, 75, 100
2, 100009, Note_on_c, 0, 44, 102
2, 100009, Note_on_c, 0, 32, 99
2, 100012, Note_on_c, 0, 71, 92
2, 100055, Control_c, 0, 64, 127
2, 100085, Note_on_c, 0, 75, 0
2, 100093, Note_on_c, 0, 71, 0
2, 100094, Note_on_c, 0, 75, 102
2, 100099, Note_on_c, 0, 71, 78
2, 100185, Note_on_c, 0, 44, 0
2, 100190, Note_on_c, 0, 77, 91
2, 100192, Note_on_c, 0, 44, 93
2, 100280, Note_on_c, 0, 32, 0
2, 100282, Control_c, 0, 64, 0
2, 100286, Note_on_c, 0, 77, 0
2, 100293, Note_on_c, 0, 75, 0
2, 100316, Note_on_c, 0, 71, 0
2, 100346, Note_on_c, 0, 44, 0
2, 100367, Note_on_c, 0, 59, 98
2, 100367, Note_on_c, 0, 78, 105
2, 100375, Note_on_c, 0, 71, 88
2, 100375, Note_on_c, 0, 54, 89
2, 100377, Note_on_c, 0, 51, 82
2, 100439, Control_c, 0, 64, 127
2, 100527, Note_on_c, 0, 44, 87
2, 100531, Note_on_c, 0, 71, 0
2, 100540, Note_on_c, 0, 73, 103
2, 100542, Note_on_c, 0, 71, 85
2, 100580, Control_c, 0, 64, 0
2, 100590, Note_on_c, 0, 59, 0
2, 100593, Note_on_c, 0, 44, 0
2, 100595, Note_on_c, 0, 51, 0
2, 100595, Note_on_c, 0, 71, 0
2, 100596, Note_on_c, 0, 54, 0
2, 100596, Note_on_c, 0, 78, 0
2, 100603, Note_on_c, 0, 73, 0
2, 100705, Note_on_c, 0, 37, 95
2, 100706, Note_on_c, 0, 49, 99
2, 100710, Note_on_c, 0, 75, 103
2, 100713, Note_on_c, 0, 71, 91
2, 100723, Control_c, 0, 64, 127
2, 100788, Note_on_c, 0, 78, 107
2, 100812, Control_c, 0, 64, 0
2, 100822, Note_on_c, 0, 71, 0
2, 100822, Note_on_c, 0, 49, 0
2, 100825, Note_on_c, 0, 75, 0
2, 100830, Note_on_c, 0, 37, 0
2, 100898, Note_on_c, 0, 49, 93
2, 100961, Note_on_c, 0, 78, 0
2, 100963, Note_on_c, 0, 53, 93
2, 100966, Note_on_c, 0, 56, 93
2, 100966, Note_on_c, 0, 78, 106
2, 100972, Note_on_c, 0, 71, 96
2, 100984, Control_c, 0, 64, 127
2, 101140, Note_on_c, 0, 35, 89
2, 101231, Note_on_c, 0, 47, 98
2, 101232, Note_on_c, 0, 80, 107
2, 101248, Note_on_c, 0, 77, 72
2, 101279, Control_c, 0, 64, 0
2, 101289, Note_on_c, 0, 71, 0
2, 101289, Note_on_c, 0, 35, 0
2, 101293, Note_on_c, 0, 56, 0
2, 101294, Note_on_c, 0, 53, 0
2, 101295, Note_on_c, 0, 47, 0
2, 101299, Note_on_c, 0, 49, 0
2, 101379, Note_on_c, 0, 46, 106
2, 101380, Note_on_c, 0, 34, 98
2, 101429, Control_c, 0, 64, 127
2, 101552, Note_on_c, 0, 78, 0
2, 101560, Note_on_c, 0, 46, 0
2, 101563, Note_on_c, 0, 78, 95
2, 101567, Note_on_c, 0, 46, 87
2, 101637, Note_on_c, 0, 78, 0
2, 101646, Note_on_c, 0, 78, 98
2, 101719, Note_on_c, 0, 56, 95
2, 101729, Note_on_c, 0, 53, 83
2, 101736, Note_on_c, 0, 80, 0
2, 101746, Note_on_c, 0, 80, 105
2, 101790, Note_on_c, 0, 78, 0
2, 101796, Note_on_c, 0, 78, 27
2, 101867, Note_on_c, 0, 77, 0
2, 101903, Control_c, 0, 64, 0
2, 101903, Note_on_c, 0, 34, 0
2, 101905, Note_on_c, 0, 78, 0
2, 101907, Note_on_c, 0, 46, 0
2, 101908, Note_on_c, 0, 80, 0
2, 101908, Note_on_c, 0, 53, 0
2, 101909, Note_on_c, 0, 56, 0
2, 101915, Note_on_c, 0, 78, 110
2, 101918, Note_on_c, 0, 50, 97
2, 101921, Note_on_c, 0, 38, 96
2, 101970, Note_on_c, 0, 50, 0
2, 101973, Note_on_c, 0, 38, 0
2, 101978, Note_on_c, 0, 78, 0
2, 102085, Note_on_c, 0, 80, 111
2, 102093, Note_on_c, 0, 51, 100
2, 102093, Note_on_c, 0, 39, 96
2, 102120, Control_c, 0, 64, 127
2, 102243, Note_on_c, 0, 51, 0
2, 102252, Note_on_c, 0, 51, 86
2, 102263, Note_on_c, 0, 73, 97
2, 102264, Note_on_c, 0, 58, 75
2, 102265, Note_on_c, 0, 82, 96
2, 102274, Note_on_c, 0, 58, 0
2, 102328, Note_on_c, 0, 82, 0
2, 102334, Note_on_c, 0, 58, 96
2, 102336, Note_on_c, 0, 73, 0
2, 102338, Note_on_c, 0, 82, 106
2, 102339, Note_on_c, 0, 54, 92
2, 102339, Note_on_c, 0, 73, 101
2, 102509, Note_on_c, 0, 31, 89
2, 102595, Note_on_c, 0, 43, 94
2, 102627, Note_on_c, 0, 82, 0
2, 102634, Control_c, 0, 64, 0
2, 102636, Note_on_c, 0, 82, 111
2, 102639, Note_on_c, 0, 80, 0
2, 102640, Note_on_c, 0, 58, 0
2, 102640, Note_on_c, 0, 54, 0
2, 102640, Note_on_c, 0, 73, 0
2, 102641, Note_on_c, 0, 43, 0
2, 102641, Note_on_c, 0, 31, 0
2, 102642, Note_on_c, 0, 51, 0
2, 102643, Note_on_c, 0, 39, 0
2, 102758, Note_on_c, 0, 82, 0
2, 102791, Note_on_c, 0, 32, 96
2, 102791, Note_on_c, 0, 44, 104
2, 102800, Note_on_c, 0, 83, 106
2, 102804, Note_on_c, 0, 75, 104
2, 102807, Note_on_c, 0, 78, 97
2, 102827, Control_c, 0, 64, 127
2, 102966, Note_on_c, 0, 82, 110
2, 102973, Note_on_c, 0, 44, 0
2, 102979, Note_on_c, 0, 44, 87
2, 103134, Note_on_c, 0, 80, 104
2, 103138, Note_on_c, 0, 59, 89
2, 103140, Note_on_c, 0, 54, 85
2, 103145, Note_on_c, 0, 51, 83
2, 103211, Note_on_c, 0, 78, 0
2, 103219, Note_on_c, 0, 78, 102
2, 103271, Note_on_c, 0, 75, 0
2, 103271, Note_on_c, 0, 44, 0
2, 103272, Note_on_c, 0, 51, 0
2, 103273, Note_on_c, 0, 80, 0
2, 103274, Note_on_c, 0, 83, 0
2, 103274, Note_on_c, 0, 82, 0
2, 103274, Note_on_c, 0, 54, 0
2, 103274, Note_on_c, 0, 59, 0
2, 103274, Note_on_c, 0, 78, 0
2, 103278, Control_c, 0, 64, 0
2, 103280, Note_on_c, 0, 32, 0
2, 103292, Note_on_c, 0, 32, 92
2, 103385, Note_on_c, 0, 78, 106
2, 103388, Note_on_c, 0, 32, 0
2, 103391, Note_on_c, 0, 71, 96
2, 103392, Note_on_c, 0, 44, 95
2, 103392, Note_on_c, 0, 32, 87
2, 103392, Note_on_c, 0, 75, 94
2, 103549, Control_c, 0, 64, 127
2, 103659, Control_c, 0, 64, 0
2, 103664, Note_on_c, 0, 44, 0
2, 103672, Note_on_c, 0, 75, 0
2, 103675, Note_on_c, 0, 44, 101
2, 103676, Note_on_c, 0, 75, 105
2, 103687, Control_c, 0, 64, 127
2, 103841, Note_on_c, 0, 78, 0
2, 103846, Note_on_c, 0, 78, 111
2, 103852, Note_on_c, 0, 59, 98
2, 103852, Note_on_c, 0, 54, 97
2, 103853, Note_on_c, 0, 51, 87
2, 103933, Note_on_c, 0, 78, 0
2, 103937, Note_on_c, 0, 78, 100
2, 104010, Note_on_c, 0, 44, 0
2, 104014, Note_on_c, 0, 44, 91
2, 104110, Note_on_c, 0, 78, 0
2, 104111, Note_on_c, 0, 83, 110
2, 104113, Note_on_c, 0, 74, 107
2, 104114, Note_on_c, 0, 78, 102
2, 104125, Note_on_c, 0, 32, 0
2, 104127, Note_on_c, 0, 71, 0
2, 104128, Note_on_c, 0, 54, 0
2, 104129, Note_on_c, 0, 59, 0
2, 104129, Note_on_c, 0, 44, 0
2, 104129, Note_on_c, 0, 51, 0
2, 104129, Note_on_c, 0, 75, 0
2, 104130, Control_c, 0, 64, 0
2, 104205, Note_on_c, 0, 47, 107
2, 104207, Note_on_c, 0, 35, 95
2, 104256, Control_c, 0, 64, 127
2, 104367, Note_on_c, 0, 82, 109
2, 104386, Note_on_c, 0, 47, 0
2, 104397, Note_on_c, 0, 47, 99
2, 104528, Note_on_c, 0, 54, 100
2, 104528, Note_on_c, 0, 50, 93
2, 104528, Note_on_c, 0, 56, 98
2, 104531, Note_on_c, 0, 80, 107
2, 104609, Note_on_c, 0, 78, 0
2, 104617, Note_on_c, 0, 78, 106
2, 104701, Note_on_c, 0, 35, 0
2, 104701, Note_on_c, 0, 47, 0
2, 104707, Note_on_c, 0, 35, 91
2, 104710, Note_on_c, 0, 47, 92
2, 104770, Note_on_c, 0, 78, 0
2, 104781, Note_on_c, 0, 78, 113
2, 104833, Control_c, 0, 64, 0
2, 104834, Note_on_c, 0, 35, 0
2, 104834, Note_on_c, 0, 82, 0
2, 104836, Note_on_c, 0, 80, 0
2, 104836, Note_on_c, 0, 50, 0
2, 104836, Note_on_c, 0, 83, 0
2, 104836, Note_on_c, 0, 47, 0
2, 104837, Note_on_c, 0, 74, 0
2, 104837, Note_on_c, 0, 56, 0
2, 104838, Note_on_c, 0, 54, 0
2, 104903, Note_on_c, 0, 49, 105
2, 104904, Note_on_c, 0, 37, 104
2, 105052, Note_on_c, 0, 80, 96
2, 105089, Note_on_c, 0, 81, 109
2, 105184, Note_on_c, 0, 80, 0
2, 105187, Note_on_c, 0, 81, 0
2, 105192, Note_on_c, 0, 37, 0
2, 105192, Note_on_c, 0, 49, 0
2, 105216, Note_on_c, 0, 78, 0
2, 105252, Note_on_c, 0, 25, 98
2, 105252, Note_on_c, 0, 37, 98
2, 105257, Note_on_c, 0, 80, 105
2, 105429, Note_on_c, 0, 78, 109
2, 105492, Note_on_c, 0, 25, 0
2, 105505, Note_on_c, 0, 80, 0
2, 105507, Note_on_c, 0, 37, 0
2, 105511, Note_on_c, 0, 78, 0
2, 105603, Note_on_c, 0, 78, 112
2, 105604, Note_on_c, 0, 66, 107
2, 105605, Note_on_c, 0, 30, 103
2, 105606, Note_on_c, 0, 42, 99
2, 105684, Note_on_c, 0, 42, 0
2, 105695, Note_on_c, 0, 42, 93
2, 105799, Note_on_c, 0, 42, 0
2, 105853, Note_on_c, 0, 30, 0
2, 105863, Note_on_c, 0, 30, 101
2, 105926, Note_on_c, 0, 42, 94
2, 106007, Note_on_c, 0, 78, 0
2, 106013, Note_on_c, 0, 42, 0
2, 106037, Note_on_c, 0, 30, 0
2, 106060, Note_on_c, 0, 66, 0
2, 106148, Note_on_c, 0, 28, 96
2, 106149, Note_on_c, 0, 40, 93
2, 106182, Note_on_c, 0, 28, 0
2, 106186, Note_on_c, 0, 40, 0
2, 106316, Note_on_c, 0, 42, 108
2, 106317, Note_on_c, 0, 30, 103
2, 106427, Note_on_c, 0, 30, 0
2, 106431, Note_on_c, 0, 42, 0
2, 106500, Note_on_c, 0, 69, 104
2, 106504, Note_on_c, 0, 64, 91
2, 106534, Note_on_c, 0, 69, 0
2, 106567, Note_on_c, 0, 64, 0
2, 106581, Note_on_c, 0, 69, 97
2, 106587, Note_on_c, 0, 66, 77
2, 106592, Note_on_c, 0, 64, 84
2, 106636, Note_on_c, 0, 69, 0
2, 106644, Note_on_c, 0, 66, 0
2, 106659, Note_on_c, 0, 64, 0
2, 106666, Note_on_c, 0, 69, 98
2, 106670, Note_on_c, 0, 64, 77
2, 106671, Note_on_c, 0, 66, 76
2, 106728, Note_on_c, 0, 69, 0
2, 106752, Note_on_c, 0, 66, 0
2, 106756, Note_on_c, 0, 69, 93
2, 106763, Note_on_c, 0, 66, 84
2, 106767, Note_on_c, 0, 64, 0
2, 106772, Note_on_c, 0, 64, 78
2, 106793, Note_on_c, 0, 66, 0
2, 106821, Note_on_c, 0, 69, 0
2, 106828, Note_on_c, 0, 64, 0
2, 106850, Note_on_c, 0, 69, 94
2, 106854, Note_on_c, 0, 64, 77
2, 106855, Note_on_c, 0, 66, 75
2, 106879, Note_on_c, 0, 69, 0
2, 106913, Note_on_c, 0, 64, 0
2, 106932, Note_on_c, 0, 69, 94
2, 106945, Note_on_c, 0, 64, 74
2, 106967, Note_on_c, 0, 66, 0
2, 106970, Note_on_c, 0, 69, 0
2, 106990, Note_on_c, 0, 64, 0
2, 107016, Note_on_c, 0, 30, 108
2, 107093, Note_on_c, 0, 42, 76
2, 107235, Note_on_c, 0, 42, 0
2, 107274, Note_on_c, 0, 30, 0
2, 107284, Note_on_c, 0, 30, 93
2, 107332, Note_on_c, 0, 42, 87
2, 107402, Note_on_c, 0, 42, 0
2, 107450, Note_on_c, 0, 30, 0
2, 107563, Note_on_c, 0, 28, 88
2, 107564, Note_on_c, 0, 40, 85
2, 107612, Note_on_c, 0, 28, 0
2, 107627, Note_on_c, 0, 40, 0
2, 107741, Note_on_c, 0, 30, 103
2, 107741, Note_on_c, 0, 42, 106
2, 107773, Control_c, 0, 64, 127
2, 107877, Note_on_c, 0, 42, 0
2, 107882, Control_c, 0, 64, 0
2, 107888, Note_on_c, 0, 30, 0
2, 107921, Note_on_c, 0, 73, 103
2, 107928, Note_on_c, 0, 64, 96
2, 107930, Note_on_c, 0, 69, 77
2, 107953, Note_on_c, 0, 73, 0
2, 107980, Note_on_c, 0, 64, 0
2, 107998, Note_on_c, 0, 73, 98
2, 108008, Note_on_c, 0, 64, 88
2, 108011, Note_on_c, 0, 69, 0
2, 108015, Note_on_c, 0, 69, 87
2, 108080, Note_on_c, 0, 64, 0
2, 108080, Note_on_c, 0, 73, 0
2, 108084, Note_on_c, 0, 73, 93
2, 108088, Note_on_c, 0, 69, 0
2, 108089, Note_on_c, 0, 64, 91
2, 108093, Note_on_c, 0, 69, 91
2, 108116, Note_on_c, 0, 64, 0
2, 108134, Note_on_c, 0, 73, 0
2, 108172, Note_on_c, 0, 73, 101
2, 108180, Note_on_c, 0, 69, 0
2, 108183, Note_on_c, 0, 64, 93
2, 108189, Note_on_c, 0, 69, 91
2, 108213, Note_on_c, 0, 64, 0
2, 108214, Note_on_c, 0, 73, 0
2, 108234, Note_on_c, 0, 69, 0
2, 108272, Note_on_c, 0, 73, 103
2, 108277, Note_on_c, 0, 64, 86
2, 108280, Note_on_c, 0, 69, 90
2, 108312, Note_on_c, 0, 69, 0
2, 108313, Note_on_c, 0, 64, 0
2, 108314, Note_on_c, 0, 73, 0
2, 108355, Note_on_c, 0, 73, 109
2, 108361, Note_on_c, 0, 69, 96
2, 108361, Note_on_c, 0, 64, 98
2, 108393, Note_on_c, 0, 64, 0
2, 108410, Note_on_c, 0, 69, 0
2, 108456, Note_on_c, 0, 30, 107
2, 108532, Note_on_c, 0, 42, 85
2, 108618, Note_on_c, 0, 42, 0
2, 108628, Note_on_c, 0, 42, 84
2, 108702, Note_on_c, 0, 30, 0
2, 108710, Note_on_c, 0, 73, 0
2, 108713, Note_on_c, 0, 30, 96
2, 108748, Note_on_c, 0, 42, 0
2, 108788, Note_on_c, 0, 42, 85
2, 108902, Note_on_c, 0, 30, 0
2, 108902, Note_on_c, 0, 42, 0
2, 108998, Note_on_c, 0, 28, 91
2, 108998, Note_on_c, 0, 40, 85
2, 109034, Note_on_c, 0, 40, 0
2, 109037, Note_on_c, 0, 28, 0
2, 109048, Control_c, 0, 64, 127
2, 109147, Note_on_c, 0, 42, 98
2, 109148, Note_on_c, 0, 30, 96
2, 109263, Note_on_c, 0, 60, 101
2, 109281, Note_on_c, 0, 64, 103
2, 109295, Note_on_c, 0, 66, 93
2, 109297, Note_on_c, 0, 30, 0
2, 109298, Note_on_c, 0, 42, 0
2, 109301, Control_c, 0, 64, 0
2, 109340, Note_on_c, 0, 60, 0
2, 109344, Note_on_c, 0, 48, 104
2, 109344, Note_on_c, 0, 72, 102
2, 109349, Note_on_c, 0, 60, 98
2, 109391, Note_on_c, 0, 64, 0
2, 109392, Note_on_c, 0, 60, 0
2, 109397, Note_on_c, 0, 72, 0
2, 109397, Note_on_c, 0, 48, 0
2, 109401, Note_on_c, 0, 66, 0
2, 109510, Note_on_c, 0, 71, 103
2, 109512, Note_on_c, 0, 47, 103
2, 109512, Note_on_c, 0, 59, 107
2, 109662, Note_on_c, 0, 59, 0
2, 109678, Note_on_c, 0, 47, 0
2, 109684, Note_on_c, 0, 45, 98
2, 109686, Note_on_c, 0, 69, 102
2, 109688, Note_on_c, 0, 57, 95
2, 109693, Note_on_c, 0, 71, 0
2, 109747, Note_on_c, 0, 69, 0
2, 109754, Note_on_c, 0, 57, 0
2, 109768, Note_on_c, 0, 71, 103
2, 109770, Note_on_c, 0, 45, 0
2, 109773, Note_on_c, 0, 59, 110
2, 109774, Note_on_c, 0, 47, 97
2, 109877, Control_c, 0, 64, 127
2, 109931, Note_on_c, 0, 47, 0
2, 109931, Note_on_c, 0, 59, 0
2, 109941, Note_on_c, 0, 59, 85
2, 109942, Note_on_c, 0, 47, 87
2, 110012, Note_on_c, 0, 47, 0
2, 110012, Note_on_c, 0, 59, 0
2, 110013, Note_on_c, 0, 71, 0
2, 110014, Control_c, 0, 64, 0
2, 110034, Note_on_c, 0, 69, 102
2, 110035, Note_on_c, 0, 57, 100
2, 110038, Note_on_c, 0, 45, 88
2, 110046, Control_c, 0, 64, 127
2, 110120, Note_on_c, 0, 71, 99
2, 110122, Note_on_c, 0, 59, 101
2, 110125, Note_on_c, 0, 47, 86
2, 110202, Note_on_c, 0, 49, 93
2, 110202, Note_on_c, 0, 73, 107
2, 110203, Note_on_c, 0, 61, 101
2, 110277, Note_on_c, 0, 47, 0
2, 110277, Note_on_c, 0, 59, 0
2, 110277, Note_on_c, 0, 71, 0
2, 110285, Note_on_c, 0, 47, 89
2, 110285, Note_on_c, 0, 71, 92
2, 110287, Note_on_c, 0, 59, 88
2, 110353, Note_on_c, 0, 45, 0
2, 110353, Note_on_c, 0, 69, 0
2, 110359, Note_on_c, 0, 69, 107
2, 110361, Note_on_c, 0, 57, 0
2, 110365, Note_on_c, 0, 45, 95
2, 110366, Note_on_c, 0, 57, 98
2, 110399, Control_c, 0, 64, 0
2, 110402, Note_on_c, 0, 47, 0
2, 110402, Note_on_c, 0, 59, 0
2, 110402, Note_on_c, 0, 73, 0
2, 110402, Note_on_c, 0, 49, 0
2, 110403, Note_on_c, 0, 57, 0
2, 110403, Note_on_c, 0, 71, 0
2, 110403, Note_on_c, 0, 69, 0
2, 110403, Note_on_c, 0, 45, 0
2, 110415, Note_on_c, 0, 61, 0
2, 110464, Note_on_c, 0, 66, 106
2, 110465, Note_on_c, 0, 42, 106
2, 110465, Note_on_c, 0, 54, 105
2, 110530, Control_c, 0, 64, 127
2, 110568, Note_on_c, 0, 42, 0
2, 110628, Note_on_c, 0, 42, 90
2, 110655, Control_c, 0, 64, 0
2, 110674, Note_on_c, 0, 42, 0
2, 110675, Note_on_c, 0, 66, 0
2, 110677, Note_on_c, 0, 54, 0
2, 110733, Note_on_c, 0, 64, 108
2, 110734, Note_on_c, 0, 40, 98
2, 110735, Note_on_c, 0, 52, 99
2, 110772, Note_on_c, 0, 52, 0
2, 110778, Note_on_c, 0, 64, 0
2, 110814, Note_on_c, 0, 40, 0
2, 110911, Note_on_c, 0, 66, 107
2, 110911, Note_on_c, 0, 42, 107
2, 110912, Note_on_c, 0, 54, 107
2, 110991, Control_c, 0, 64, 127
2, 111084, Note_on_c, 0, 40, 96
2, 111183, Note_on_c, 0, 54, 0
2, 111186, Control_c, 0, 64, 0
2, 111187, Note_on_c, 0, 40, 0
2, 111214, Note_on_c, 0, 42, 0
2, 111214, Note_on_c, 0, 66, 0
2, 111254, Note_on_c, 0, 30, 106
2, 111341, Note_on_c, 0, 42, 89
2, 111416, Note_on_c, 0, 42, 0
2, 111505, Note_on_c, 0, 30, 0
2, 111509, Note_on_c, 0, 30, 93
2, 111576, Note_on_c, 0, 42, 90
2, 111665, Note_on_c, 0, 42, 0
2, 111682, Note_on_c, 0, 30, 0
2, 111801, Note_on_c, 0, 40, 93
2, 111801, Note_on_c, 0, 28, 94
2, 111836, Note_on_c, 0, 28, 0
2, 111874, Note_on_c, 0, 40, 0
2, 111979, Note_on_c, 0, 42, 104
2, 111980, Note_on_c, 0, 30, 98
2, 111989, Control_c, 0, 64, 127
2, 112116, Control_c, 0, 64, 0
2, 112128, Note_on_c, 0, 30, 0
2, 112143, Note_on_c, 0, 42, 0
2, 112158, Note_on_c, 0, 69, 102
2, 112158, Note_on_c, 0, 64, 99
2, 112204, Note_on_c, 0, 64, 0
2, 112204, Note_on_c, 0, 69, 0
2, 112231, Note_on_c, 0, 69, 101
2, 112239, Note_on_c, 0, 64, 84
2, 112239, Note_on_c, 0, 66, 81
2, 112266, Note_on_c, 0, 64, 0
2, 112266, Note_on_c, 0, 69, 0
2, 112271, Note_on_c, 0, 66, 0
2, 112322, Note_on_c, 0, 69, 97
2, 112324, Note_on_c, 0, 66, 92
2, 112326, Note_on_c, 0, 64, 90
2, 112355, Note_on_c, 0, 69, 0
2, 112355, Note_on_c, 0, 66, 0
2, 112361, Note_on_c, 0, 64, 0
2, 112419, Note_on_c, 0, 69, 97
2, 112421, Note_on_c, 0, 64, 94
2, 112447, Note_on_c, 0, 69, 0
2, 112448, Note_on_c, 0, 64, 0
2, 112501, Note_on_c, 0, 69, 97
2, 112505, Note_on_c, 0, 66, 95
2, 112506, Note_on_c, 0, 64, 90
2, 112531, Note_on_c, 0, 69, 0
2, 112534, Note_on_c, 0, 66, 0
2, 112536, Note_on_c, 0, 64, 0
2, 112577, Note_on_c, 0, 69, 99
2, 112580, Note_on_c, 0, 64, 91
2, 112582, Note_on_c, 0, 66, 88
2, 112612, Note_on_c, 0, 66, 0
2, 112613, Note_on_c, 0, 64, 0
2, 112615, Note_on_c, 0, 69, 0
2, 112689, Note_on_c, 0, 30, 104
2, 112780, Note_on_c, 0, 42, 83
2, 112780, Note_on_c, 0, 61, 86
2, 112883, Note_on_c, 0, 30, 0
2, 112885, Note_on_c, 0, 42, 0
2, 112903, Note_on_c, 0, 61, 0
2, 112964, Note_on_c, 0, 30, 92
2, 113013, Note_on_c, 0, 42, 90
2, 113187, Note_on_c, 0, 30, 0
2, 113187, Note_on_c, 0, 42, 0
2, 113223, Note_on_c, 0, 28, 93
2, 113224, Note_on_c, 0, 40, 96
2, 113280, Control_c, 0, 64, 127
2, 113402, Note_on_c, 0, 40, 0
2, 113406, Note_on_c, 0, 42, 105
2, 113406, Note_on_c, 0, 30, 98
2, 113410, Note_on_c, 0, 28, 0
2, 113475, Control_c, 0, 64, 0
2, 113511, Note_on_c, 0, 30, 0
2, 113521, Note_on_c, 0, 42, 0
2, 113582, Note_on_c, 0, 73, 107
2, 113583, Note_on_c, 0, 69, 98
2, 113584, Note_on_c, 0, 64, 96
2, 113610, Note_on_c, 0, 64, 0
2, 113612, Note_on_c, 0, 73, 0
2, 113633, Note_on_c, 0, 69, 0
2, 113662, Note_on_c, 0, 73, 102
2, 113667, Note_on_c, 0, 64, 95
2, 113667, Note_on_c, 0, 69, 78
2, 113691, Note_on_c, 0, 64, 0
2, 113693, Note_on_c, 0, 73, 0
2, 113740, Note_on_c, 0, 69, 0
2, 113745, Note_on_c, 0, 73, 97
2, 113746, Note_on_c, 0, 64, 89
2, 113750, Note_on_c, 0, 69, 93
2, 113775, Note_on_c, 0, 73, 0
2, 113776, Note_on_c, 0, 69, 0
2, 113777, Note_on_c, 0, 64, 0
2, 113834, Note_on_c, 0, 73, 101
2, 113835, Note_on_c, 0, 64, 90
2, 113835, Note_on_c, 0, 69, 89
2, 113866, Note_on_c, 0, 69, 0
2, 113866, Note_on_c, 0, 64, 0
2, 113867, Note_on_c, 0, 73, 0
2, 113928, Note_on_c, 0, 73, 105
2, 113933, Note_on_c, 0, 69, 96
2, 113935, Note_on_c, 0, 64, 91
2, 113975, Note_on_c, 0, 64, 0
2, 114001, Note_on_c, 0, 69, 0
2, 114001, Note_on_c, 0, 73, 0
2, 114012, Note_on_c, 0, 73, 107
2, 114013, Note_on_c, 0, 69, 93
2, 114020, Note_on_c, 0, 64, 83
2, 114044, Note_on_c, 0, 69, 0
2, 114047, Note_on_c, 0, 64, 0
2, 114122, Note_on_c, 0, 30, 106
2, 114193, Note_on_c, 0, 73, 0
2, 114212, Note_on_c, 0, 42, 81
2, 114320, Note_on_c, 0, 42, 0
2, 114385, Note_on_c, 0, 30, 0
2, 114390, Note_on_c, 0, 30, 96
2, 114479, Note_on_c, 0, 42, 85
2, 114568, Note_on_c, 0, 30, 0
2, 114573, Note_on_c, 0, 42, 0
2, 114654, Note_on_c, 0, 40, 93
2, 114654, Note_on_c, 0, 28, 93
2, 114685, Control_c, 0, 64, 127
2, 114828, Note_on_c, 0, 42, 96
2, 114828, Note_on_c, 0, 30, 93
2, 114932, Note_on_c, 0, 60, 104
2, 114954, Note_on_c, 0, 64, 102
2, 114957, Note_on_c, 0, 47, 80
2, 114961, Note_on_c, 0, 47, 0
2, 114965, Note_on_c, 0, 66, 95
2, 114969, Note_on_c, 0, 28, 0
2, 114981, Note_on_c, 0, 30, 0
2, 114983, Control_c, 0, 64, 0
2, 114984, Note_on_c, 0, 40, 0
2, 114985, Note_on_c, 0, 42, 0
2, 114994, Note_on_c, 0, 72, 106
2, 115013, Note_on_c, 0, 48, 106
2, 115052, Note_on_c, 0, 60, 0
2, 115053, Note_on_c, 0, 66, 0
2, 115057, Note_on_c, 0, 64, 0
2, 115057, Note_on_c, 0, 48, 0
2, 115058, Note_on_c, 0, 72, 0
2, 115173, Note_on_c, 0, 47, 104
2, 115180, Note_on_c, 0, 59, 110
2, 115181, Note_on_c, 0, 71, 106
2, 115284, Note_on_c, 0, 47, 0
2, 115292, Note_on_c, 0, 59, 0
2, 115345, Note_on_c, 0, 71, 0
2, 115351, Note_on_c, 0, 45, 102
2, 115352, Note_on_c, 0, 69, 100
2, 115353, Note_on_c, 0, 57, 99
2, 115383, Note_on_c, 0, 69, 0
2, 115415, Note_on_c, 0, 57, 0
2, 115435, Note_on_c, 0, 71, 106
2, 115441, Note_on_c, 0, 59, 112
2, 115445, Note_on_c, 0, 45, 0
2, 115446, Note_on_c, 0, 47, 103
2, 115568, Control_c, 0, 64, 127
2, 115591, Note_on_c, 0, 47, 0
2, 115591, Note_on_c, 0, 59, 0
2, 115591, Note_on_c, 0, 71, 0
2, 115596, Note_on_c, 0, 47, 96
2, 115596, Note_on_c, 0, 59, 84
2, 115601, Note_on_c, 0, 71, 76
2, 115711, Note_on_c, 0, 45, 95
2, 115715, Note_on_c, 0, 57, 103
2, 115716, Note_on_c, 0, 69, 101
2, 115783, Note_on_c, 0, 71, 0
2, 115791, Note_on_c, 0, 47, 0
2, 115791, Note_on_c, 0, 59, 0
2, 115794, Note_on_c, 0, 71, 100
2, 115795, Note_on_c, 0, 59, 104
2, 115798, Note_on_c, 0, 47, 93
2, 115884, Note_on_c, 0, 49, 87
2, 115885, Note_on_c, 0, 73, 107
2, 115886, Note_on_c, 0, 61, 101
2, 115960, Note_on_c, 0, 47, 0
2, 115960, Note_on_c, 0, 59, 0
2, 115968, Note_on_c, 0, 71, 0
2, 115969, Note_on_c, 0, 47, 76
2, 115971, Note_on_c, 0, 59, 98
2, 115972, Note_on_c, 0, 71, 96
2, 116037, Note_on_c, 0, 45, 0
2, 116037, Note_on_c, 0, 57, 0
2, 116037, Note_on_c, 0, 69, 0
2, 116041, Note_on_c, 0, 45, 89
2, 116041, Note_on_c, 0, 69, 103
2, 116042, Note_on_c, 0, 57, 104
2, 116069, Control_c, 0, 64, 0
2, 116073, Note_on_c, 0, 57, 0
2, 116073, Note_on_c, 0, 69, 0
2, 116073, Note_on_c, 0, 45, 0
2, 116075, Note_on_c, 0, 73, 0
2, 116075, Note_on_c, 0, 61, 0
2, 116075, Note_on_c, 0, 71, 0
2, 116077, Note_on_c, 0, 49, 0
2, 116090, Note_on_c, 0, 59, 0
2, 116098, Note_on_c, 0, 47, 0
2, 116144, Note_on_c, 0, 42, 106
2, 116146, Note_on_c, 0, 66, 105
2, 116147, Note_on_c, 0, 54, 103
2, 116213, Control_c, 0, 64, 127
2, 116305, Note_on_c, 0, 42, 0
2, 116311, Note_on_c, 0, 42, 95
2, 116321, Control_c, 0, 64, 0
2, 116337, Note_on_c, 0, 66, 0
2, 116338, Note_on_c, 0, 54, 0
2, 116398, Note_on_c, 0, 42, 0
2, 116415, Note_on_c, 0, 64, 106
2, 116419, Note_on_c, 0, 52, 92
2, 116423, Note_on_c, 0, 40, 95
2, 116509, Note_on_c, 0, 64, 0
2, 116510, Note_on_c, 0, 52, 0
2, 116514, Note_on_c, 0, 40, 0
2, 116601, Note_on_c, 0, 42, 96
2, 116601, Note_on_c, 0, 66, 111
2, 116603, Note_on_c, 0, 54, 96
2, 116643, Control_c, 0, 64, 127
2, 116767, Note_on_c, 0, 40, 88
2, 116769, Note_on_c, 0, 52, 76
2, 116880, Note_on_c, 0, 54, 0
2, 116880, Control_c, 0, 64, 0
2, 116882, Note_on_c, 0, 40, 0
2, 116883, Note_on_c, 0, 42, 0
2, 116883, Note_on_c, 0, 66, 0
2, 116904, Note_on_c, 0, 52, 0
2, 116958, Note_on_c, 0, 78, 113
2, 116961, Note_on_c, 0, 73, 104
2, 116962, Note_on_c, 0, 66, 106
2, 116962, Note_on_c, 0, 42, 99
2, 116963, Note_on_c, 0, 30, 96
2, 116964, Note_on_c, 0, 71, 90
2, 117001, Note_on_c, 0, 30, 0
2, 117035, Note_on_c, 0, 42, 0
2, 117120, Control_c, 0, 64, 127
2, 117147, Note_on_c, 0, 49, 84
2, 117147, Note_on_c, 0, 37, 92
2, 117323, Note_on_c, 0, 42, 103
2, 117325, Note_on_c, 0, 54, 99
2, 117495, Note_on_c, 0, 53, 97
2, 117495, Note_on_c, 0, 41, 97
2, 117580, Note_on_c, 0, 72, 108
2, 117620, Note_on_c, 0, 41, 0
2, 117620, Note_on_c, 0, 78, 0
2, 117621, Note_on_c, 0, 49, 0
2, 117621, Note_on_c, 0, 42, 0
2, 117621, Note_on_c, 0, 66, 0
2, 117621, Note_on_c, 0, 37, 0
2, 117621, Note_on_c, 0, 73, 0
2, 117621, Note_on_c, 0, 53, 0
2, 117621, Note_on_c, 0, 54, 0
2, 117622, Note_on_c, 0, 71, 0
2, 117623, Control_c, 0, 64, 0
2, 117692, Note_on_c, 0, 52, 93
2, 117693, Note_on_c, 0, 40, 90
2, 117726, Control_c, 0, 64, 127
2, 117783, Note_on_c, 0, 71, 99
2, 117875, Note_on_c, 0, 51, 90
2, 117875, Note_on_c, 0, 39, 88
2, 117974, Note_on_c, 0, 69, 104
2, 118046, Note_on_c, 0, 50, 84
2, 118046, Note_on_c, 0, 38, 92
2, 118127, Note_on_c, 0, 66, 105
2, 118210, Note_on_c, 0, 49, 92
2, 118211, Note_on_c, 0, 64, 96
2, 118212, Note_on_c, 0, 37, 94
2, 118281, Note_on_c, 0, 65, 100
2, 118360, Control_c, 0, 64, 0
2, 118367, Note_on_c, 0, 40, 0
2, 118367, Note_on_c, 0, 52, 0
2, 118368, Note_on_c, 0, 69, 0
2, 118368, Note_on_c, 0, 72, 0
2, 118368, Note_on_c, 0, 66, 0
2, 118368, Note_on_c, 0, 39, 0
2, 118368, Note_on_c, 0, 51, 0
2, 118368, Note_on_c, 0, 64, 0
2, 118368, Note_on_c, 0, 71, 0
2, 118368, Note_on_c, 0, 65, 0
2, 118368, Note_on_c, 0, 50, 0
2, 118368, Note_on_c, 0, 37, 0
2, 118369, Note_on_c, 0, 38, 0
2, 118369, Note_on_c, 0, 49, 0
2, 118402, Note_on_c, 0, 42, 99
2, 118405, Note_on_c, 0, 30, 91
2, 118410, Note_on_c, 0, 78, 112
2, 118414, Note_on_c, 0, 73, 99
2, 118414, Note_on_c, 0, 66, 107
2, 118419, Note_on_c, 0, 71, 86
2, 118451, Note_on_c, 0, 30, 0
2, 118452, Note_on_c, 0, 42, 0
2, 118502, Control_c, 0, 64, 127
2, 118585, Note_on_c, 0, 49, 92
2, 118586, Note_on_c, 0, 37, 92
2, 118763, Note_on_c, 0, 66, 0
2, 118767, Note_on_c, 0, 66, 105
2, 118769, Note_on_c, 0, 42, 100
2, 118769, Note_on_c, 0, 54, 99
2, 118942, Note_on_c, 0, 53, 93
2, 118943, Note_on_c, 0, 41, 92
2, 119032, Note_on_c, 0, 66, 0
2, 119035, Note_on_c, 0, 72, 108
2, 119038, Note_on_c, 0, 66, 102
2, 119059, Note_on_c, 0, 41, 0
2, 119059, Note_on_c, 0, 78, 0
2, 119059, Note_on_c, 0, 42, 0
2, 119060, Note_on_c, 0, 54, 0
2, 119060, Note_on_c, 0, 73, 0
2, 119060, Note_on_c, 0, 53, 0
2, 119060, Note_on_c, 0, 49, 0
2, 119061, Note_on_c, 0, 37, 0
2, 119061, Note_on_c, 0, 71, 0
2, 119062, Control_c, 0, 64, 0
2, 119135, Note_on_c, 0, 52, 93
2, 119135, Note_on_c, 0, 40, 93
2, 119170, Control_c, 0, 64, 127
2, 119244, Note_on_c, 0, 71, 99
2, 119325, Note_on_c, 0, 51, 91
2, 119325, Note_on_c, 0, 39, 90
2, 119430, Note_on_c, 0, 69, 105
2, 119484, Note_on_c, 0, 38, 90
2, 119484, Note_on_c, 0, 50, 85
2, 119577, Note_on_c, 0, 66, 0
2, 119586, Note_on_c, 0, 66, 100
2, 119654, Note_on_c, 0, 64, 92
2, 119659, Note_on_c, 0, 49, 90
2, 119660, Note_on_c, 0, 37, 91
2, 119729, Note_on_c, 0, 65, 100
2, 119805, Control_c, 0, 64, 0
2, 119815, Note_on_c, 0, 64, 0
2, 119815, Note_on_c, 0, 39, 0
2, 119815, Note_on_c, 0, 52, 0
2, 119815, Note_on_c, 0, 40, 0
2, 119816, Note_on_c, 0, 69, 0
2, 119816, Note_on_c, 0, 51, 0
2, 119816, Note_on_c, 0, 71, 0
2, 119816, Note_on_c, 0, 66, 0
2, 119816, Note_on_c, 0, 50, 0
2, 119816, Note_on_c, 0, 72, 0
2, 119817, Note_on_c, 0, 65, 0
2, 119817, Note_on_c, 0, 38, 0
2, 119818, Note_on_c, 0, 37, 0
2, 119819, Note_on_c, 0, 49, 0
2, 119854, Note_on_c, 0, 42, 101
2, 119854, Note_on_c, 0, 78, 113
2, 119856, Note_on_c, 0, 30, 95
2, 119858, Note_on_c, 0, 73, 99
2, 119858, Note_on_c, 0, 66, 107
2, 119858, Note_on_c, 0, 71, 88
2, 119883, Note_on_c, 0, 42, 0
2, 119886, Note_on_c, 0, 30, 0
2, 119953, Control_c, 0, 64, 127
2, 120037, Note_on_c, 0, 49, 92
2, 120039, Note_on_c, 0, 37, 90
2, 120207, Note_on_c, 0, 66, 0
2, 120212, Note_on_c, 0, 66, 107
2, 120214, Note_on_c, 0, 54, 101
2, 120215, Note_on_c, 0, 42, 101
2, 120390, Note_on_c, 0, 53, 97
2, 120393, Note_on_c, 0, 41, 91
2, 120479, Note_on_c, 0, 72, 111
2, 120515, Note_on_c, 0, 41, 0
2, 120517, Note_on_c, 0, 73, 0
2, 120517, Note_on_c, 0, 42, 0
2, 120517, Note_on_c, 0, 66, 0
2, 120517, Note_on_c, 0, 78, 0
2, 120517, Note_on_c, 0, 53, 0
2, 120517, Note_on_c, 0, 54, 0
2, 120517, Note_on_c, 0, 37, 0
2, 120517, Note_on_c, 0, 49, 0
2, 120518, Note_on_c, 0, 71, 0
2, 120523, Control_c, 0, 64, 0
2, 120580, Note_on_c, 0, 52, 93
2, 120581, Note_on_c, 0, 40, 89
2, 120622, Control_c, 0, 64, 127
2, 120673, Note_on_c, 0, 71, 100
2, 120771, Note_on_c, 0, 51, 95
2, 120772, Note_on_c, 0, 39, 86
2, 120868, Note_on_c, 0, 69, 104
2, 120949, Note_on_c, 0, 38, 90
2, 120950, Note_on_c, 0, 50, 84
2, 121015, Note_on_c, 0, 66, 102
2, 121093, Note_on_c, 0, 64, 93
2, 121111, Note_on_c, 0, 49, 89
2, 121111, Note_on_c, 0, 37, 89
2, 121156, Note_on_c, 0, 65, 87
2, 121228, Control_c, 0, 64, 0
2, 121240, Note_on_c, 0, 40, 0
2, 121240, Note_on_c, 0, 69, 0
2, 121240, Note_on_c, 0, 72, 0
2, 121240, Note_on_c, 0, 66, 0
2, 121240, Note_on_c, 0, 50, 0
2, 121240, Note_on_c, 0, 51, 0
2, 121240, Note_on_c, 0, 65, 0
2, 121240, Note_on_c, 0, 71, 0
2, 121240, Note_on_c, 0, 38, 0
2, 121241, Note_on_c, 0, 49, 0
2, 121241, Note_on_c, 0, 64, 0
2, 121241, Note_on_c, 0, 39, 0
2, 121241, Note_on_c, 0, 37, 0
2, 121251, Note_on_c, 0, 52, 0
2, 121277, Note_on_c, 0, 47, 106
2, 121278, Note_on_c, 0, 83, 104
2, 121280, Note_on_c, 0, 35, 92
2, 121284, Note_on_c, 0, 71, 102
2, 121286, Note_on_c, 0, 76, 101
2, 121287, Note_on_c, 0, 78, 88
2, 121316, Note_on_c, 0, 47, 0
2, 121351, Control_c, 0, 64, 127
2, 121367, Note_on_c, 0, 35, 0
2, 121455, Note_on_c, 0, 42, 99
2, 121455, Note_on_c, 0, 54, 101
2, 121620, Note_on_c, 0, 78, 0
2, 121626, Note_on_c, 0, 59, 102
2, 121627, Note_on_c, 0, 47, 107
2, 121629, Note_on_c, 0, 78, 103
2, 121812, Note_on_c, 0, 76, 0
2, 121816, Note_on_c, 0, 58, 101
2, 121816, Note_on_c, 0, 46, 98
2, 121817, Note_on_c, 0, 76, 103
2, 121881, Note_on_c, 0, 78, 0
2, 121890, Note_on_c, 0, 78, 106
2, 121981, Note_on_c, 0, 76, 0
2, 121986, Note_on_c, 0, 57, 99
2, 121986, Note_on_c, 0, 76, 89
2, 121986, Note_on_c, 0, 45, 101
2, 122073, Note_on_c, 0, 76, 0
2, 122085, Note_on_c, 0, 76, 106
2, 122165, Note_on_c, 0, 42, 0
2, 122165, Note_on_c, 0, 54, 0
2, 122171, Note_on_c, 0, 77, 101
2, 122176, Note_on_c, 0, 54, 101
2, 122176, Note_on_c, 0, 42, 97
2, 122257, Note_on_c, 0, 78, 0
2, 122262, Note_on_c, 0, 78, 100
2, 122350, Note_on_c, 0, 78, 0
2, 122353, Note_on_c, 0, 81, 107
2, 122353, Note_on_c, 0, 53, 104
2, 122354, Note_on_c, 0, 41, 96
2, 122361, Note_on_c, 0, 78, 80
2, 122511, Note_on_c, 0, 78, 0
2, 122522, Note_on_c, 0, 78, 109
2, 122526, Note_on_c, 0, 40, 93
2, 122528, Note_on_c, 0, 52, 93
2, 122668, Note_on_c, 0, 41, 0
2, 122668, Note_on_c, 0, 47, 0
2, 122668, Note_on_c, 0, 53, 0
2, 122668, Note_on_c, 0, 57, 0
2, 122668, Note_on_c, 0, 59, 0
2, 122668, Note_on_c, 0, 40, 0
2, 122668, Note_on_c, 0, 45, 0
2, 122668, Note_on_c, 0, 71, 0
2, 122669, Note_on_c, 0, 81, 0
2, 122669, Note_on_c, 0, 54, 0
2, 122669, Note_on_c, 0, 46, 0
2, 122669, Note_on_c, 0, 58, 0
2, 122669, Note_on_c, 0, 83, 0
2, 122669, Control_c, 0, 64, 0
2, 122669, Note_on_c, 0, 52, 0
2, 122680, Note_on_c, 0, 76, 0
2, 122688, Note_on_c, 0, 77, 0
2, 122688, Note_on_c, 0, 78, 0
2, 122711, Note_on_c, 0, 42, 0
2, 122716, Note_on_c, 0, 90, 113
2, 122716, Note_on_c, 0, 30, 90
2, 122717, Note_on_c, 0, 85, 107
2, 122719, Note_on_c, 0, 42, 91
2, 122724, Note_on_c, 0, 83, 107
2, 122764, Control_c, 0, 64, 127
2, 122824, Note_on_c, 0, 78, 99
2, 122895, Note_on_c, 0, 83, 0
2, 122897, Note_on_c, 0, 37, 86
2, 122897, Note_on_c, 0, 49, 92
2, 122906, Note_on_c, 0, 83, 100
2, 122987, Note_on_c, 0, 85, 0
2, 122992, Note_on_c, 0, 85, 101
2, 123072, Note_on_c, 0, 42, 0
2, 123072, Note_on_c, 0, 90, 0
2, 123078, Note_on_c, 0, 90, 110
2, 123081, Note_on_c, 0, 54, 100
2, 123082, Note_on_c, 0, 42, 97
2, 123156, Note_on_c, 0, 78, 0
2, 123166, Note_on_c, 0, 78, 100
2, 123248, Note_on_c, 0, 83, 0
2, 123258, Note_on_c, 0, 53, 92
2, 123259, Note_on_c, 0, 83, 94
2, 123260, Note_on_c, 0, 41, 83
2, 123346, Note_on_c, 0, 89, 109
2, 123347, Note_on_c, 0, 84, 99
2, 123402, Note_on_c, 0, 30, 0
2, 123440, Note_on_c, 0, 78, 0
2, 123445, Note_on_c, 0, 52, 100
2, 123446, Note_on_c, 0, 40, 93
2, 123448, Note_on_c, 0, 78, 93
2, 123528, Note_on_c, 0, 88, 111
2, 123624, Note_on_c, 0, 78, 0
2, 123624, Note_on_c, 0, 83, 0
2, 123631, Note_on_c, 0, 83, 81
2, 123633, Note_on_c, 0, 78, 93
2, 123635, Note_on_c, 0, 51, 90
2, 123635, Note_on_c, 0, 39, 87
2, 123703, Note_on_c, 0, 82, 102
2, 123703, Note_on_c, 0, 87, 108
2, 123805, Note_on_c, 0, 50, 87
2, 123805, Note_on_c, 0, 38, 89
2, 123863, Note_on_c, 0, 86, 105
2, 123955, Note_on_c, 0, 84, 0
2, 123962, Note_on_c, 0, 49, 0
2, 123965, Note_on_c, 0, 84, 93
2, 123974, Note_on_c, 0, 49, 96
2, 123978, Note_on_c, 0, 37, 0
2, 123982, Note_on_c, 0, 37, 90
2, 124024, Note_on_c, 0, 85, 0
2, 124035, Note_on_c, 0, 85, 105
2, 124085, Note_on_c, 0, 54, 0
2, 124089, Control_c, 0, 64, 0
2, 124090, Note_on_c, 0, 86, 0
2, 124090, Note_on_c, 0, 41, 0
2, 124090, Note_on_c, 0, 89, 0
2, 124090, Note_on_c, 0, 90, 0
2, 124090, Note_on_c, 0, 38, 0
2, 124090, Note_on_c, 0, 83, 0
2, 124091, Note_on_c, 0, 53, 0
2, 124091, Note_on_c, 0, 40, 0
2, 124091, Note_on_c, 0, 39, 0
2, 124091, Note_on_c, 0, 42, 0
2, 124091, Note_on_c, 0, 82, 0
2, 124091, Note_on_c, 0, 50, 0
2, 124091, Note_on_c, 0, 78, 0
2, 124091, Note_on_c, 0, 37, 0
2, 124091, Note_on_c, 0, 87, 0
2, 124091, Note_on_c, 0, 51, 0
2, 124092, Note_on_c, 0, 84, 0
2, 124092, Note_on_c, 0, 85, 0
2, 124092, Note_on_c, 0, 88, 0
2, 124092, Note_on_c, 0, 52, 0
2, 124101, Note_on_c, 0, 49, 0
2, 124144, Note_on_c, 0, 30, 98
2, 124145, Note_on_c, 0, 42, 103
2, 124147, Note_on_c, 0, 85, 99
2, 124150, Note_on_c, 0, 90, 110
2, 124157, Note_on_c, 0, 83, 96
2, 124208, Control_c, 0, 64, 127
2, 124250, Note_on_c, 0, 78, 100
2, 124331, Note_on_c, 0, 83, 0
2, 124334, Note_on_c, 0, 37, 91
2, 124334, Note_on_c, 0, 49, 97
2, 124338, Note_on_c, 0, 83, 96
2, 124508, Note_on_c, 0, 42, 0
2, 124508, Note_on_c, 0, 90, 0
2, 124514, Note_on_c, 0, 90, 106
2, 124514, Note_on_c, 0, 54, 100
2, 124515, Note_on_c, 0, 42, 104
2, 124592, Note_on_c, 0, 78, 0
2, 124602, Note_on_c, 0, 78, 100
2, 124677, Note_on_c, 0, 83, 0
2, 124686, Note_on_c, 0, 83, 92
2, 124687, Note_on_c, 0, 53, 98
2, 124688, Note_on_c, 0, 41, 94
2, 124774, Note_on_c, 0, 89, 108
2, 124774, Note_on_c, 0, 84, 103
2, 124861, Note_on_c, 0, 78, 0
2, 124869, Note_on_c, 0, 78, 96
2, 124871, Note_on_c, 0, 52, 101
2, 124872, Note_on_c, 0, 40, 93
2, 124961, Note_on_c, 0, 83, 0
2, 124963, Note_on_c, 0, 88, 109
2, 124966, Note_on_c, 0, 83, 89
2, 125053, Note_on_c, 0, 78, 0
2, 125062, Note_on_c, 0, 78, 95
2, 125073, Note_on_c, 0, 51, 91
2, 125076, Note_on_c, 0, 39, 86
2, 125135, Note_on_c, 0, 87, 104
2, 125136, Note_on_c, 0, 82, 99
2, 125199, Note_on_c, 0, 83, 0
2, 125203, Note_on_c, 0, 83, 73
2, 125207, Note_on_c, 0, 78, 0
2, 125211, Note_on_c, 0, 78, 92
2, 125248, Note_on_c, 0, 38, 97
2, 125249, Note_on_c, 0, 50, 91
2, 125288, Note_on_c, 0, 86, 105
2, 125376, Note_on_c, 0, 84, 0
2, 125382, Note_on_c, 0, 84, 97
2, 125399, Note_on_c, 0, 49, 0
2, 125404, Note_on_c, 0, 49, 93
2, 125406, Note_on_c, 0, 37, 0
2, 125411, Note_on_c, 0, 37, 89
2, 125460, Note_on_c, 0, 85, 0
2, 125468, Note_on_c, 0, 85, 106
2, 125521, Note_on_c, 0, 30, 0
2, 125521, Note_on_c, 0, 54, 0
2, 125521, Note_on_c, 0, 82, 0
2, 125525, Note_on_c, 0, 86, 0
2, 125525, Note_on_c, 0, 89, 0
2, 125525, Note_on_c, 0, 41, 0
2, 125525, Note_on_c, 0, 53, 0
2, 125526, Note_on_c, 0, 83, 0
2, 125526, Note_on_c, 0, 49, 0
2, 125526, Note_on_c, 0, 78, 0
2, 125526, Note_on_c, 0, 90, 0
2, 125526, Note_on_c, 0, 40, 0
2, 125526, Note_on_c, 0, 42, 0
2, 125526, Note_on_c, 0, 87, 0
2, 125526, Control_c, 0, 64, 0
2, 125526, Note_on_c, 0, 38, 0
2, 125526, Note_on_c, 0, 37, 0
2, 125526, Note_on_c, 0, 88, 0
2, 125526, Note_on_c, 0, 39, 0
2, 125526, Note_on_c, 0, 51, 0
2, 125526, Note_on_c, 0, 50, 0
2, 125526, Note_on_c, 0, 52, 0
2, 125527, Note_on_c, 0, 85, 0
2, 125537, Note_on_c, 0, 84, 0
2, 125578, Note_on_c, 0, 78, 108
2, 125578, Note_on_c, 0, 90, 114
2, 125580, Note_on_c, 0, 83, 100
2, 125584, Note_on_c, 0, 85, 97
2, 125587, Note_on_c, 0, 30, 101
2, 125587, Note_on_c, 0, 42, 100
2, 125591, Note_on_c, 0, 83, 0
2, 125629, Control_c, 0, 64, 127
2, 125754, Note_on_c, 0, 61, 102
2, 125762, Note_on_c, 0, 49, 97
2, 125769, Note_on_c, 0, 37, 91
2, 125820, Note_on_c, 0, 64, 95
2, 125870, Note_on_c, 0, 66, 59
2, 125928, Note_on_c, 0, 64, 0
2, 125938, Note_on_c, 0, 64, 96
2, 125944, Note_on_c, 0, 42, 0
2, 125952, Note_on_c, 0, 42, 100
2, 125957, Note_on_c, 0, 54, 97
2, 126038, Note_on_c, 0, 69, 95
2, 126105, Note_on_c, 0, 66, 0
2, 126114, Note_on_c, 0, 66, 94
2, 126131, Note_on_c, 0, 41, 94
2, 126132, Note_on_c, 0, 53, 99
2, 126174, Note_on_c, 0, 69, 0
2, 126179, Note_on_c, 0, 69, 96
2, 126223, Note_on_c, 0, 71, 91
2, 126297, Note_on_c, 0, 69, 0
2, 126297, Note_on_c, 0, 85, 0
2, 126302, Note_on_c, 0, 69, 97
2, 126305, Note_on_c, 0, 52, 100
2, 126308, Note_on_c, 0, 40, 90
2, 126359, Note_on_c, 0, 71, 0
2, 126364, Note_on_c, 0, 71, 90
2, 126417, Note_on_c, 0, 73, 94
2, 126481, Note_on_c, 0, 71, 0
2, 126485, Note_on_c, 0, 51, 100
2, 126487, Note_on_c, 0, 71, 92
2, 126488, Note_on_c, 0, 39, 92
2, 126535, Note_on_c, 0, 73, 0
2, 126546, Note_on_c, 0, 73, 97
2, 126599, Note_on_c, 0, 76, 102
2, 126650, Note_on_c, 0, 73, 0
2, 126656, Note_on_c, 0, 38, 101
2, 126656, Note_on_c, 0, 50, 88
2, 126660, Note_on_c, 0, 73, 105
2, 126720, Note_on_c, 0, 76, 0
2, 126731, Note_on_c, 0, 76, 93
2, 126781, Note_on_c, 0, 30, 0
2, 126816, Note_on_c, 0, 81, 100
2, 126819, Note_on_c, 0, 37, 0
2, 126819, Note_on_c, 0, 49, 0
2, 126824, Note_on_c, 0, 49, 92
2, 126826, Note_on_c, 0, 37, 96
2, 126881, Note_on_c, 0, 90, 0
2, 126882, Note_on_c, 0, 41, 0
2, 126882, Control_c, 0, 64, 0
2, 126882, Note_on_c, 0, 53, 0
2, 126883, Note_on_c, 0, 66, 0
2, 126883, Note_on_c, 0, 49, 0
2, 126883, Note_on_c, 0, 64, 0
2, 126883, Note_on_c, 0, 52, 0
2, 126883, Note_on_c, 0, 69, 0
2, 126883, Note_on_c, 0, 71, 0
2, 126883, Note_on_c, 0, 61, 0
2, 126884, Note_on_c, 0, 40, 0
2, 126884, Note_on_c, 0, 54, 0
2, 126884, Note_on_c, 0, 51, 0
2, 126884, Note_on_c, 0, 81, 0
2, 126884, Note_on_c, 0, 76, 0
2, 126884, Note_on_c, 0, 37, 0
2, 126884, Note_on_c, 0, 42, 0
2, 126884, Note_on_c, 0, 78, 0
2, 126884, Note_on_c, 0, 73, 0
2, 126885, Note_on_c, 0, 39, 0
2, 126885, Note_on_c, 0, 38, 0
2, 126904, Note_on_c, 0, 50, 0
2, 126950, Note_on_c, 0, 83, 105
2, 126951, Note_on_c, 0, 78, 104
2, 126951, Note_on_c, 0, 71, 104
2, 126954, Note_on_c, 0, 47, 109
2, 126955, Note_on_c, 0, 35, 93
2, 126957, Note_on_c, 0, 76, 97
2, 126981, Control_c, 0, 64, 127
2, 127111, Note_on_c, 0, 35, 0
2, 127111, Note_on_c, 0, 47, 0
2, 127117, Note_on_c, 0, 35, 91
2, 127117, Note_on_c, 0, 47, 94
2, 127169, Note_on_c, 0, 35, 0
2, 127173, Control_c, 0, 64, 0
2, 127174, Note_on_c, 0, 47, 0
2, 127177, Note_on_c, 0, 71, 0
2, 127196, Note_on_c, 0, 78, 0
2, 127203, Note_on_c, 0, 83, 0
2, 127221, Note_on_c, 0, 57, 102
2, 127242, Note_on_c, 0, 76, 0
2, 127262, Note_on_c, 0, 57, 0
2, 127316, Note_on_c, 0, 59, 101
2, 127359, Note_on_c, 0, 59, 0
2, 127393, Note_on_c, 0, 61, 105
2, 127494, Note_on_c, 0, 59, 99
2, 127521, Note_on_c, 0, 61, 0
2, 127563, Note_on_c, 0, 57, 94
2, 127581, Note_on_c, 0, 59, 0
2, 127618, Note_on_c, 0, 57, 0
2, 127654, Note_on_c, 0, 79, 111
2, 127656, Control_c, 0, 64, 127
2, 127659, Note_on_c, 0, 67, 107
2, 127659, Note_on_c, 0, 31, 98
2, 127660, Note_on_c, 0, 43, 107
2, 127833, Note_on_c, 0, 43, 0
2, 127838, Note_on_c, 0, 43, 87
2, 127847, Control_c, 0, 64, 0
2, 127878, Note_on_c, 0, 67, 0
2, 127878, Note_on_c, 0, 79, 0
2, 127883, Note_on_c, 0, 43, 0
2, 127887, Note_on_c, 0, 31, 0
2, 127929, Note_on_c, 0, 53, 98
2, 128025, Note_on_c, 0, 55, 94
2, 128055, Note_on_c, 0, 55, 0
2, 128064, Note_on_c, 0, 53, 0
2, 128099, Note_on_c, 0, 57, 101
2, 128195, Note_on_c, 0, 55, 91
2, 128220, Note_on_c, 0, 57, 0
2, 128283, Note_on_c, 0, 53, 78
2, 128306, Note_on_c, 0, 55, 0
2, 128332, Note_on_c, 0, 53, 0
2, 128367, Note_on_c, 0, 40, 100
2, 128367, Note_on_c, 0, 76, 110
2, 128368, Note_on_c, 0, 64, 110
2, 128368, Note_on_c, 0, 28, 94
2, 128386, Control_c, 0, 64, 127
2, 128524, Note_on_c, 0, 40, 0
2, 128534, Note_on_c, 0, 40, 82
2, 128582, Control_c, 0, 64, 0
2, 128582, Note_on_c, 0, 28, 0
2, 128587, Note_on_c, 0, 64, 0
2, 128589, Note_on_c, 0, 76, 0
2, 128590, Note_on_c, 0, 40, 0
2, 128629, Note_on_c, 0, 50, 92
2, 128661, Note_on_c, 0, 50, 0
2, 128720, Note_on_c, 0, 52, 90
2, 128751, Note_on_c, 0, 52, 0
2, 128796, Note_on_c, 0, 53, 100
2, 128895, Note_on_c, 0, 52, 90
2, 128952, Note_on_c, 0, 53, 0
2, 128957, Note_on_c, 0, 52, 0
2, 128971, Note_on_c, 0, 50, 69
2, 129024, Note_on_c, 0, 50, 0
2, 129055, Note_on_c, 0, 71, 106
2, 129056, Note_on_c, 0, 59, 109
2, 129059, Note_on_c, 0, 35, 93
2, 129070, Control_c, 0, 64, 127
2, 129223, Note_on_c, 0, 35, 0
2, 129231, Note_on_c, 0, 35, 82
2, 129234, Note_on_c, 0, 43, 74
2, 129266, Control_c, 0, 64, 0
2, 129270, Note_on_c, 0, 71, 0
2, 129271, Note_on_c, 0, 35, 0
2, 129272, Note_on_c, 0, 59, 0
2, 129273, Note_on_c, 0, 43, 0
2, 129320, Note_on_c, 0, 45, 95
2, 129400, Note_on_c, 0, 45, 0
2, 129491, Note_on_c, 0, 47, 102
2, 129756, Note_on_c, 0, 47, 0
2, 129759, Note_on_c, 0, 35, 74
2, 129822, Note_on_c, 0, 35, 0
2, 129856, Note_on_c, 0, 23, 86
2, 129861, Note_on_c, 0, 23, 0
2, 130047, Note_on_c, 0, 24, 71
2, 130083, Note_on_c, 0, 24, 0
2, 130234, Note_on_c, 0, 23, 70
2, 130245, Note_on_c, 0, 23, 0
2, 130507, Note_on_c, 0, 45, 83
2, 130540, Note_on_c, 0, 45, 0
2, 130602, Note_on_c, 0, 47, 86
2, 130633, Note_on_c, 0, 47, 0
2, 130785, Note_on_c, 0, 50, 81
2, 130812, Note_on_c, 0, 50, 0
2, 130958, Note_on_c, 0, 52, 86
2, 130994, Note_on_c, 0, 52, 0
2, 131108, Note_on_c, 0, 47, 76
2, 131208, Note_on_c, 0, 54, 91
2, 131216, Note_on_c, 0, 35, 78
2, 131220, Note_on_c, 0, 47, 0
2, 131258, Note_on_c, 0, 35, 0
2, 131400, Note_on_c, 0, 23, 72
2, 131400, Note_on_c, 0, 35, 71
2, 131404, Note_on_c, 0, 23, 0
2, 131589, Note_on_c, 0, 24, 77
2, 131590, Note_on_c, 0, 23, 78
2, 131596, Note_on_c, 0, 23, 0
2, 131596, Note_on_c, 0, 24, 0
2, 131665, Note_on_c, 0, 35, 0
2, 131667, Note_on_c, 0, 23, 88
2, 131670, Note_on_c, 0, 35, 80
2, 131704, Note_on_c, 0, 23, 0
2, 131773, Note_on_c, 0, 54, 0
2, 131781, Note_on_c, 0, 35, 0
2, 131854, Note_on_c, 0, 45, 88
2, 131914, Note_on_c, 0, 45, 0
2, 132025, Note_on_c, 0, 47, 94
2, 132056, Note_on_c, 0, 47, 0
2, 132199, Note_on_c, 0, 50, 91
2, 132237, Note_on_c, 0, 50, 0
2, 132370, Note_on_c, 0, 52, 86
2, 132401, Note_on_c, 0, 52, 0
2, 132462, Note_on_c, 0, 54, 87
2, 132493, Note_on_c, 0, 54, 0
2, 132636, Note_on_c, 0, 57, 102
2, 132640, Note_on_c, 0, 24, 83
2, 132825, Note_on_c, 0, 24, 0
2, 132835, Note_on_c, 0, 23, 80
2, 132835, Note_on_c, 0, 24, 78
2, 132840, Note_on_c, 0, 23, 0
2, 132971, Control_c, 0, 64, 127
2, 133002, Note_on_c, 0, 24, 0
2, 133007, Note_on_c, 0, 24, 74
2, 133008, Note_on_c, 0, 23, 78
2, 133017, Note_on_c, 0, 23, 0
2, 133278, Note_on_c, 0, 57, 0
2, 133285, Note_on_c, 0, 81, 109
2, 133288, Note_on_c, 0, 57, 112
2, 133288, Note_on_c, 0, 45, 106
2, 133288, Note_on_c, 0, 69, 106
2, 133435, Note_on_c, 0, 59, 107
2, 133436, Note_on_c, 0, 47, 101
2, 133440, Note_on_c, 0, 24, 0
2, 133489, Note_on_c, 0, 83, 107
2, 133490, Note_on_c, 0, 71, 103
2, 133532, Note_on_c, 0, 45, 0
2, 133533, Note_on_c, 0, 69, 0
2, 133534, Control_c, 0, 64, 0
2, 133534, Note_on_c, 0, 81, 0
2, 133537, Note_on_c, 0, 59, 0
2, 133538, Note_on_c, 0, 71, 0
2, 133538, Note_on_c, 0, 83, 0
2, 133539, Note_on_c, 0, 57, 0
2, 133542, Note_on_c, 0, 47, 0
2, 133543, Note_on_c, 0, 45, 104
2, 133544, Note_on_c, 0, 57, 96
2, 133592, Note_on_c, 0, 81, 105
2, 133594, Note_on_c, 0, 69, 105
2, 133606, Note_on_c, 0, 45, 0
2, 133616, Note_on_c, 0, 57, 0
2, 133637, Note_on_c, 0, 69, 0
2, 133661, Note_on_c, 0, 42, 106
2, 133664, Note_on_c, 0, 54, 98
2, 133701, Note_on_c, 0, 81, 0
2, 133706, Note_on_c, 0, 42, 0
2, 133711, Note_on_c, 0, 54, 0
2, 133711, Note_on_c, 0, 78, 109
2, 133712, Note_on_c, 0, 66, 105
2, 133758, Note_on_c, 0, 66, 0
2, 133762, Note_on_c, 0, 78, 0
2, 133786, Note_on_c, 0, 57, 99
2, 133786, Note_on_c, 0, 45, 104
2, 133826, Note_on_c, 0, 81, 107
2, 133827, Note_on_c, 0, 69, 100
2, 133833, Note_on_c, 0, 57, 0
2, 133900, Note_on_c, 0, 45, 0
2, 133908, Note_on_c, 0, 42, 101
2, 133908, Note_on_c, 0, 69, 0
2, 133911, Note_on_c, 0, 54, 101
2, 133936, Note_on_c, 0, 66, 94
2, 133936, Note_on_c, 0, 78, 108
2, 133946, Note_on_c, 0, 81, 0
2, 133950, Note_on_c, 0, 54, 0
2, 133956, Note_on_c, 0, 42, 0
2, 133985, Note_on_c, 0, 66, 0
2, 134016, Note_on_c, 0, 78, 0
2, 134023, Note_on_c, 0, 40, 95
2, 134027, Note_on_c, 0, 52, 96
2, 134061, Note_on_c, 0, 76, 109
2, 134063, Note_on_c, 0, 64, 102
2, 134066, Note_on_c, 0, 52, 0
2, 134071, Note_on_c, 0, 40, 0
2, 134100, Note_on_c, 0, 64, 0
2, 134103, Note_on_c, 0, 76, 0
2, 134144, Note_on_c, 0, 53, 98
2, 134145, Note_on_c, 0, 41, 100
2, 134187, Note_on_c, 0, 77, 107
2, 134194, Note_on_c, 0, 65, 88
2, 134197, Note_on_c, 0, 41, 0
2, 134200, Note_on_c, 0, 53, 0
2, 134245, Note_on_c, 0, 77, 0
2, 134271, Note_on_c, 0, 52, 96
2, 134273, Note_on_c, 0, 40, 94
2, 134300, Note_on_c, 0, 65, 0
2, 134314, Note_on_c, 0, 76, 107
2, 134315, Note_on_c, 0, 64, 108
2, 134319, Note_on_c, 0, 52, 0
2, 134323, Note_on_c, 0, 40, 0
2, 134361, Note_on_c, 0, 64, 0
2, 134374, Note_on_c, 0, 76, 0
2, 134391, Note_on_c, 0, 50, 97
2, 134394, Note_on_c, 0, 38, 100
2, 134428, Note_on_c, 0, 50, 0
2, 134436, Note_on_c, 0, 38, 0
2, 134438, Note_on_c, 0, 74, 109
2, 134439, Note_on_c, 0, 62, 98
2, 134492, Note_on_c, 0, 62, 0
2, 134515, Note_on_c, 0, 74, 0
2, 134520, Note_on_c, 0, 47, 106
2, 134524, Note_on_c, 0, 35, 94
2, 134573, Note_on_c, 0, 47, 0
2, 134573, Note_on_c, 0, 35, 0
2, 134579, Note_on_c, 0, 59, 96
2, 134579, Note_on_c, 0, 71, 86
2, 134638, Note_on_c, 0, 59, 0
2, 134645, Note_on_c, 0, 71, 0
2, 134667, Note_on_c, 0, 45, 100
2, 134668, Note_on_c, 0, 33, 93
2, 134687, Note_on_c, 0, 69, 98
2, 134688, Note_on_c, 0, 57, 95
2, 134715, Note_on_c, 0, 33, 0
2, 134718, Note_on_c, 0, 45, 0
2, 134725, Note_on_c, 0, 69, 0
2, 134768, Note_on_c, 0, 57, 0
2, 134830, Note_on_c, 0, 46, 105
2, 134832, Note_on_c, 0, 34, 96
2, 134835, Note_on_c, 0, 70, 103
2, 134839, Note_on_c, 0, 58, 103
2, 134865, Note_on_c, 0, 58, 0
2, 134869, Note_on_c, 0, 46, 0
2, 134877, Note_on_c, 0, 34, 0
2, 134914, Note_on_c, 0, 70, 0
2, 135033, Note_on_c, 0, 71, 105
2, 135038, Note_on_c, 0, 59, 111
2, 135039, Note_on_c, 0, 47, 105
2, 135041, Note_on_c, 0, 35, 92
2, 135191, Control_c, 0, 64, 127
2, 135513, Note_on_c, 0, 35, 0
2, 135524, Note_on_c, 0, 35, 71
2, 135609, Note_on_c, 0, 30, 74
2, 135613, Note_on_c, 0, 30, 0
2, 135681, Note_on_c, 0, 23, 88
2, 135882, Note_on_c, 0, 47, 0
2, 136850, Note_on_c, 0, 48, 57
2, 136994, Note_on_c, 0, 49, 65
2, 137115, Note_on_c, 0, 50, 64
2, 137215, Note_on_c, 0, 51, 58
2, 137313, Note_on_c, 0, 52, 73
2, 137414, Note_on_c, 0, 53, 70
2, 137515, Note_on_c, 0, 54, 68
2, 137622, Note_on_c, 0, 55, 69
2, 137725, Note_on_c, 0, 56, 74
2, 137836, Note_on_c, 0, 57, 69
2, 137955, Note_on_c, 0, 58, 70
2, 138071, Note_on_c, 0, 59, 0
2, 138081, Note_on_c, 0, 59, 68
2, 139092, Note_on_c, 0, 23, 0
2, 139238, Control_c, 0, 64, 0
2, 139645, Note_on_c, 0, 71, 0
2, 139668, Note_on_c, 0, 48, 0
2, 139688, Note_on_c, 0, 49, 0
2, 139691, Note_on_c, 0, 35, 0
2, 139699, Note_on_c, 0, 50, 0
2, 139699, Note_on_c, 0, 51, 0
2, 139699, Note_on_c, 0, 55, 0
2, 139706, Note_on_c, 0, 53, 0
2, 139706, Note_on_c, 0, 56, 0
2, 139706, Note_on_c, 0, 57, 0
2, 139722, Note_on_c, 0, 58, 0
2, 139737, Note_on_c, 0, 52, 0
2, 139745, Note_on_c, 0, 59, 0
2, 140006, Control_c, 0, 64, 127
2, 140160, Note_on_c, 0, 54, 0
2, 141130, Note_on_c, 0, 82, 77
2, 141145, Note_on_c, 0, 59, 44
2, 141146, Note_on_c, 0, 70, 60
2, 141154, Note_on_c, 0, 63, 40
2, 141155, Note_on_c, 0, 78, 49
2, 141157, Note_on_c, 0, 66, 52
2, 141683, Note_on_c, 0, 80, 79
2, 142222, Note_on_c, 0, 75, 73
2, 142394, Note_on_c, 0, 78, 0
2, 142403, Note_on_c, 0, 78, 65
2, 142456, Note_on_c, 0, 59, 0
2, 142462, Note_on_c, 0, 59, 61
2, 142492, Note_on_c, 0, 62, 54
2, 142517, Note_on_c, 0, 66, 0
2, 142526, Note_on_c, 0, 66, 54
2, 142563, Note_on_c, 0, 68, 72
2, 142579, Note_on_c, 0, 82, 0
2, 142584, Note_on_c, 0, 82, 94
2, 142589, Note_on_c, 0, 74, 78
2, 142591, Note_on_c, 0, 80, 0
2, 142592, Note_on_c, 0, 75, 0
2, 142593, Control_c, 0, 64, 0
2, 142593, Note_on_c, 0, 70, 0
2, 142602, Control_c, 0, 64, 127
2, 142617, Note_on_c, 0, 63, 0
2, 142764, Note_on_c, 0, 80, 77
2, 142786, Note_on_c, 0, 78, 0
2, 142917, Note_on_c, 0, 82, 0
2, 142927, Note_on_c, 0, 82, 80
2, 143063, Note_on_c, 0, 80, 0
2, 143074, Note_on_c, 0, 80, 75
2, 143147, Note_on_c, 0, 82, 0
2, 143157, Note_on_c, 0, 82, 86
2, 143385, Note_on_c, 0, 82, 0
2, 143390, Note_on_c, 0, 82, 67
2, 143437, Note_on_c, 0, 83, 90
2, 143616, Note_on_c, 0, 82, 0
2, 143623, Note_on_c, 0, 82, 92
2, 143777, Note_on_c, 0, 80, 0
2, 143783, Note_on_c, 0, 80, 91
2, 143969, Note_on_c, 0, 80, 0
2, 143976, Note_on_c, 0, 68, 0
2, 143977, Note_on_c, 0, 65, 55
2, 143979, Note_on_c, 0, 80, 91
2, 143979, Note_on_c, 0, 58, 62
2, 143981, Note_on_c, 0, 68, 65
2, 143986, Note_on_c, 0, 73, 76
2, 143996, Note_on_c, 0, 77, 67
2, 144005, Control_c, 0, 64, 0
2, 144012, Note_on_c, 0, 82, 0
2, 144012, Note_on_c, 0, 74, 0
2, 144013, Note_on_c, 0, 62, 0
2, 144013, Note_on_c, 0, 83, 0
2, 144038, Note_on_c, 0, 59, 0
2, 144161, Note_on_c, 0, 66, 0
2, 144532, Note_on_c, 0, 78, 90
2, 144537, Control_c, 0, 64, 127
2, 145102, Note_on_c, 0, 75, 75
2, 145259, Note_on_c, 0, 78, 0
2, 145265, Note_on_c, 0, 78, 78
2, 145300, Note_on_c, 0, 57, 45
2, 145339, Note_on_c, 0, 60, 57
2, 145411, Note_on_c, 0, 66, 56
2, 145412, Note_on_c, 0, 64, 55
2, 145442, Note_on_c, 0, 76, 75
2, 145443, Note_on_c, 0, 80, 0
2, 145447, Note_on_c, 0, 80, 89
2, 145453, Control_c, 0, 64, 0
2, 145456, Note_on_c, 0, 72, 70
2, 145474, Note_on_c, 0, 77, 0
2, 145482, Note_on_c, 0, 75, 0
2, 145482, Note_on_c, 0, 65, 0
2, 145484, Note_on_c, 0, 73, 0
2, 145485, Note_on_c, 0, 78, 0
2, 145497, Note_on_c, 0, 58, 0
2, 145497, Control_c, 0, 64, 127
2, 145505, Note_on_c, 0, 68, 0
2, 145616, Note_on_c, 0, 78, 91
2, 145766, Note_on_c, 0, 80, 0
2, 145773, Note_on_c, 0, 80, 89
2, 145912, Note_on_c, 0, 78, 0
2, 145923, Note_on_c, 0, 78, 80
2, 145996, Note_on_c, 0, 80, 0
2, 146003, Note_on_c, 0, 80, 95
2, 146227, Note_on_c, 0, 80, 0
2, 146234, Note_on_c, 0, 80, 68
2, 146285, Note_on_c, 0, 81, 100
2, 146465, Note_on_c, 0, 80, 0
2, 146469, Note_on_c, 0, 80, 91
2, 146634, Note_on_c, 0, 78, 0
2, 146638, Note_on_c, 0, 78, 91
2, 146719, Note_on_c, 0, 81, 0
2, 146720, Note_on_c, 0, 64, 0
2, 146720, Note_on_c, 0, 72, 0
2, 146720, Note_on_c, 0, 78, 0
2, 146720, Note_on_c, 0, 76, 0
2, 146720, Note_on_c, 0, 80, 0
2, 146721, Note_on_c, 0, 57, 0
2, 146721, Note_on_c, 0, 60, 0
2, 146722, Control_c, 0, 64, 0
2, 146741, Note_on_c, 0, 66, 0
2, 146800, Note_on_c, 0, 66, 86
2, 146806, Note_on_c, 0, 73, 96
2, 146806, Note_on_c, 0, 56, 75
2, 146807, Note_on_c, 0, 63, 82
2, 146808, Note_on_c, 0, 59, 79
2, 146809, Note_on_c, 0, 68, 79
2, 146841, Control_c, 0, 64, 127
2, 146973, Note_on_c, 0, 71, 93
2, 146993, Note_on_c, 0, 73, 0
2, 146994, Control_c, 0, 64, 0
2, 146997, Note_on_c, 0, 56, 0
2, 146998, Note_on_c, 0, 59, 0
2, 146998, Note_on_c, 0, 63, 0
2, 147018, Note_on_c, 0, 66, 0
2, 147018, Note_on_c, 0, 68, 0
2, 147048, Note_on_c, 0, 71, 0
2, 147122, Note_on_c, 0, 70, 97
2, 147207, Note_on_c, 0, 71, 82
2, 147271, Note_on_c, 0, 70, 0
2, 147310, Note_on_c, 0, 71, 0
2, 147358, Note_on_c, 0, 58, 85
2, 147359, Note_on_c, 0, 54, 82
2, 147359, Note_on_c, 0, 61, 87
2, 147360, Note_on_c, 0, 78, 103
2, 147360, Note_on_c, 0, 73, 78
2, 147390, Note_on_c, 0, 61, 0
2, 147391, Note_on_c, 0, 54, 0
2, 147397, Note_on_c, 0, 58, 0
2, 147847, Note_on_c, 0, 73, 0
2, 147855, Note_on_c, 0, 78, 0
2, 147874, Note_on_c, 0, 71, 69
2, 147875, Note_on_c, 0, 59, 64
2, 147881, Note_on_c, 0, 52, 52
2, 147882, Note_on_c, 0, 66, 64
2, 147883, Note_on_c, 0, 56, 48
2, 147883, Note_on_c, 0, 63, 60
2, 147962, Control_c, 0, 64, 127
2, 148427, Note_on_c, 0, 40, 52
2, 148607, Note_on_c, 0, 47, 61
2, 148776, Note_on_c, 0, 40, 0
2, 148776, Note_on_c, 0, 52, 0
2, 148781, Note_on_c, 0, 78, 95
2, 148781, Note_on_c, 0, 52, 57
2, 148785, Note_on_c, 0, 40, 52
2, 148956, Note_on_c, 0, 80, 95
2, 149114, Note_on_c, 0, 78, 0
2, 149122, Note_on_c, 0, 78, 96
2, 149314, Note_on_c, 0, 80, 0
2, 149320, Note_on_c, 0, 80, 92
2, 149468, Note_on_c, 0, 78, 0
2, 149477, Note_on_c, 0, 78, 88
2, 149652, Note_on_c, 0, 78, 0
2, 149654, Control_c, 0, 64, 0
2, 149662, Note_on_c, 0, 78, 87
2, 149672, Note_on_c, 0, 47, 0
2, 149674, Note_on_c, 0, 40, 0
2, 149676, Note_on_c, 0, 59, 0
2, 149678, Note_on_c, 0, 71, 0
2, 149678, Note_on_c, 0, 63, 0
2, 149679, Note_on_c, 0, 52, 0
2, 149679, Note_on_c, 0, 49, 65
2, 149679, Note_on_c, 0, 66, 0
2, 149680, Note_on_c, 0, 56, 0
2, 149680, Note_on_c, 0, 68, 64
2, 149681, Note_on_c, 0, 80, 0
2, 149683, Note_on_c, 0, 44, 60
2, 149688, Note_on_c, 0, 73, 61
2, 149829, Control_c, 0, 64, 127
2, 149832, Note_on_c, 0, 77, 83
2, 149990, Note_on_c, 0, 77, 0
2, 150000, Note_on_c, 0, 77, 92
2, 150184, Note_on_c, 0, 75, 78
2, 150266, Note_on_c, 0, 73, 0
2, 150273, Note_on_c, 0, 73, 94
2, 150401, Note_on_c, 0, 51, 50
2, 150766, Note_on_c, 0, 49, 0
2, 150769, Note_on_c, 0, 49, 66
2, 150781, Note_on_c, 0, 78, 0
2, 150942, Note_on_c, 0, 73, 0
2, 150952, Note_on_c, 0, 73, 82
2, 151122, Note_on_c, 0, 56, 69
2, 151123, Note_on_c, 0, 53, 68
2, 151137, Note_on_c, 0, 82, 94
2, 151317, Note_on_c, 0, 83, 95
2, 151480, Note_on_c, 0, 82, 0
2, 151485, Note_on_c, 0, 82, 101
2, 151664, Note_on_c, 0, 83, 0
2, 151669, Note_on_c, 0, 83, 98
2, 151680, Note_on_c, 0, 68, 0
2, 151825, Note_on_c, 0, 56, 0
2, 151825, Note_on_c, 0, 82, 0
2, 151836, Note_on_c, 0, 61, 80
2, 151837, Note_on_c, 0, 82, 98
2, 151837, Note_on_c, 0, 56, 78
2, 152020, Note_on_c, 0, 80, 92
2, 152211, Note_on_c, 0, 78, 82
2, 152371, Note_on_c, 0, 80, 0
2, 152382, Note_on_c, 0, 80, 90
2, 152497, Note_on_c, 0, 83, 0
2, 152498, Note_on_c, 0, 44, 0
2, 152498, Note_on_c, 0, 51, 0
2, 152498, Note_on_c, 0, 53, 0
2, 152498, Note_on_c, 0, 49, 0
2, 152499, Note_on_c, 0, 78, 0
2, 152500, Note_on_c, 0, 73, 0
2, 152500, Note_on_c, 0, 75, 0
2, 152501, Control_c, 0, 64, 0
2, 152509, Note_on_c, 0, 61, 0
2, 152517, Note_on_c, 0, 56, 0
2, 152517, Note_on_c, 0, 82, 0
2, 152524, Note_on_c, 0, 77, 0
2, 152566, Note_on_c, 0, 38, 68
2, 152566, Note_on_c, 0, 82, 92
2, 152568, Note_on_c, 0, 46, 66
2, 152575, Note_on_c, 0, 74, 73
2, 152575, Note_on_c, 0, 50, 55
2, 152578, Control_c, 0, 64, 127
2, 152764, Note_on_c, 0, 83, 91
2, 152947, Note_on_c, 0, 50, 0
2, 152947, Note_on_c, 0, 82, 0
2, 152949, Note_on_c, 0, 58, 88
2, 152951, Note_on_c, 0, 53, 76
2, 152951, Note_on_c, 0, 82, 96
2, 152951, Note_on_c, 0, 50, 77
2, 153008, Note_on_c, 0, 83, 0
2, 153015, Note_on_c, 0, 83, 58
2, 153123, Note_on_c, 0, 83, 0
2, 153132, Note_on_c, 0, 83, 98
2, 153292, Note_on_c, 0, 53, 0
2, 153292, Note_on_c, 0, 58, 0
2, 153300, Note_on_c, 0, 82, 0
2, 153302, Note_on_c, 0, 62, 98
2, 153303, Note_on_c, 0, 58, 92
2, 153303, Note_on_c, 0, 53, 81
2, 153305, Note_on_c, 0, 82, 104
2, 153477, Note_on_c, 0, 80, 0
2, 153488, Note_on_c, 0, 80, 101
2, 153653, Note_on_c, 0, 62, 0
2, 153662, Note_on_c, 0, 65, 102
2, 153664, Note_on_c, 0, 74, 0
2, 153664, Note_on_c, 0, 62, 99
2, 153671, Note_on_c, 0, 78, 100
2, 153838, Note_on_c, 0, 80, 0
2, 153842, Note_on_c, 0, 80, 106
2, 153972, Control_c, 0, 64, 0
2, 153973, Note_on_c, 0, 62, 0
2, 153973, Note_on_c, 0, 53, 0
2, 153973, Note_on_c, 0, 65, 0
2, 153974, Note_on_c, 0, 38, 0
2, 153974, Note_on_c, 0, 83, 0
2, 153974, Note_on_c, 0, 82, 0
2, 153975, Note_on_c, 0, 78, 0
2, 153975, Note_on_c, 0, 80, 0
2, 153991, Note_on_c, 0, 46, 0
2, 153991, Note_on_c, 0, 50, 0
2, 153991, Note_on_c, 0, 58, 0
2, 154019, Note_on_c, 0, 40, 93
2, 154020, Note_on_c, 0, 47, 94
2, 154024, Note_on_c, 0, 52, 92
2, 154024, Note_on_c, 0, 82, 109
2, 154028, Note_on_c, 0, 76, 96
2, 154045, Control_c, 0, 64, 127
2, 154391, Note_on_c, 0, 76, 0
2, 154391, Note_on_c, 0, 64, 106
2, 154396, Note_on_c, 0, 59, 98
2, 154396, Note_on_c, 0, 83, 104
2, 154398, Note_on_c, 0, 56, 96
2, 154401, Note_on_c, 0, 76, 93
2, 154761, Control_c, 0, 64, 0
2, 154767, Note_on_c, 0, 82, 0
2, 154777, Note_on_c, 0, 82, 109
2, 154778, Note_on_c, 0, 37, 98
2, 154778, Note_on_c, 0, 49, 100
2, 154779, Note_on_c, 0, 73, 97
2, 154780, Note_on_c, 0, 78, 96
2, 154780, Note_on_c, 0, 64, 0
2, 154798, Note_on_c, 0, 47, 0
2, 154798, Control_c, 0, 64, 127
2, 154805, Note_on_c, 0, 40, 0
2, 154805, Note_on_c, 0, 52, 0
2, 154805, Note_on_c, 0, 56, 0
2, 154813, Note_on_c, 0, 59, 0
2, 155000, Note_on_c, 0, 53, 104
2, 155001, Note_on_c, 0, 41, 99
2, 155183, Note_on_c, 0, 80, 105
2, 155184, Note_on_c, 0, 42, 105
2, 155184, Note_on_c, 0, 54, 106
2, 155189, Control_c, 0, 64, 0
2, 155189, Note_on_c, 0, 76, 0
2, 155189, Note_on_c, 0, 83, 0
2, 155193, Note_on_c, 0, 37, 0
2, 155193, Note_on_c, 0, 82, 0
2, 155193, Note_on_c, 0, 78, 0
2, 155193, Note_on_c, 0, 41, 0
2, 155193, Note_on_c, 0, 49, 0
2, 155193, Note_on_c, 0, 73, 0
2, 155194, Note_on_c, 0, 53, 0
2, 155243, Control_c, 0, 64, 127
2, 155394, Note_on_c, 0, 44, 105
2, 155394, Note_on_c, 0, 56, 104
2, 155658, Note_on_c, 0, 44, 0
2, 155658, Note_on_c, 0, 63, 107
2, 155660, Note_on_c, 0, 59, 101
2, 155662, Note_on_c, 0, 32, 92
2, 155663, Note_on_c, 0, 44, 101
2, 155719, Note_on_c, 0, 63, 0
2, 155728, Note_on_c, 0, 63, 88
2, 155733, Note_on_c, 0, 56, 0
2, 155734, Note_on_c, 0, 80, 0
2, 155735, Note_on_c, 0, 42, 0
2, 155736, Note_on_c, 0, 54, 0
2, 155741, Control_c, 0, 64, 0
2, 155758, Note_on_c, 0, 32, 0
2, 155811, Note_on_c, 0, 44, 0
2, 155838, Note_on_c, 0, 65, 99
2, 155915, Note_on_c, 0, 59, 0
2, 155915, Note_on_c, 0, 65, 0
2, 155934, Note_on_c, 0, 63, 0
2, 156004, Note_on_c, 0, 66, 107
2, 156119, Note_on_c, 0, 66, 0
2, 156172, Note_on_c, 0, 61, 99
2, 156215, Note_on_c, 0, 61, 0
2, 156348, Note_on_c, 0, 63, 104
2, 156372, Control_c, 0, 64, 127
2, 156423, Note_on_c, 0, 66, 106
2, 156460, Note_on_c, 0, 63, 0
2, 156461, Control_c, 0, 64, 0
2, 156465, Note_on_c, 0, 66, 0
2, 156604, Note_on_c, 0, 66, 110
2, 156721, Note_on_c, 0, 47, 108
2, 156722, Note_on_c, 0, 35, 96
2, 156733, Control_c, 0, 64, 127
2, 156903, Note_on_c, 0, 68, 110
2, 156910, Note_on_c, 0, 35, 0
2, 156913, Control_c, 0, 64, 0
2, 156920, Note_on_c, 0, 35, 68
2, 156937, Note_on_c, 0, 35, 0
2, 156938, Note_on_c, 0, 47, 0
2, 156948, Note_on_c, 0, 66, 0
2, 157058, Note_on_c, 0, 46, 108
2, 157059, Note_on_c, 0, 34, 100
2, 157086, Control_c, 0, 64, 127
2, 157243, Note_on_c, 0, 46, 0
2, 157244, Note_on_c, 0, 34, 0
2, 157250, Note_on_c, 0, 66, 103
2, 157250, Control_c, 0, 64, 0
2, 157263, Note_on_c, 0, 68, 0
2, 157320, Note_on_c, 0, 66, 0
2, 157419, Note_on_c, 0, 50, 103
2, 157420, Note_on_c, 0, 68, 107
2, 157421, Note_on_c, 0, 38, 99
2, 157455, Control_c, 0, 64, 127
2, 157600, Note_on_c, 0, 66, 101
2, 157624, Control_c, 0, 64, 0
2, 157628, Note_on_c, 0, 68, 0
2, 157636, Note_on_c, 0, 66, 0
2, 157640, Note_on_c, 0, 38, 0
2, 157643, Note_on_c, 0, 50, 0
2, 157765, Note_on_c, 0, 39, 100
2, 157765, Note_on_c, 0, 51, 101
2, 157766, Note_on_c, 0, 68, 104
2, 157800, Control_c, 0, 64, 127
2, 157875, Control_c, 0, 64, 0
2, 157878, Note_on_c, 0, 68, 0
2, 157936, Note_on_c, 0, 70, 102
2, 157957, Note_on_c, 0, 39, 0
2, 157962, Note_on_c, 0, 51, 0
2, 157977, Note_on_c, 0, 70, 0
2, 158020, Note_on_c, 0, 70, 107
2, 158105, Note_on_c, 0, 43, 104
2, 158107, Note_on_c, 0, 31, 99
2, 158292, Note_on_c, 0, 70, 0
2, 158297, Note_on_c, 0, 31, 0
2, 158297, Note_on_c, 0, 70, 106
2, 158346, Note_on_c, 0, 43, 0
2, 158376, Note_on_c, 0, 70, 0
2, 158463, Note_on_c, 0, 44, 105
2, 158464, Note_on_c, 0, 32, 99
2, 158464, Note_on_c, 0, 71, 108
2, 158636, Note_on_c, 0, 32, 0
2, 158639, Note_on_c, 0, 44, 0
2, 158641, Note_on_c, 0, 70, 102
2, 158641, Note_on_c, 0, 71, 0
2, 158708, Note_on_c, 0, 70, 0
2, 158817, Note_on_c, 0, 47, 108
2, 158818, Note_on_c, 0, 68, 105
2, 158818, Note_on_c, 0, 35, 94
2, 158876, Control_c, 0, 64, 127
2, 159009, Note_on_c, 0, 66, 101
2, 159011, Control_c, 0, 64, 0
2, 159018, Note_on_c, 0, 35, 0
2, 159018, Note_on_c, 0, 47, 0
2, 159020, Note_on_c, 0, 68, 0
2, 159046, Note_on_c, 0, 66, 0
2, 159179, Note_on_c, 0, 46, 107
2, 159180, Note_on_c, 0, 34, 98
2, 159181, Note_on_c, 0, 65, 99
2, 159229, Control_c, 0, 64, 127
2, 159359, Note_on_c, 0, 66, 97
2, 159365, Note_on_c, 0, 46, 0
2, 159370, Note_on_c, 0, 34, 0
2, 159370, Note_on_c, 0, 65, 0
2, 159373, Control_c, 0, 64, 0
2, 159453, Note_on_c, 0, 66, 0
2, 159530, Note_on_c, 0, 50, 103
2, 159533, Note_on_c, 0, 38, 95
2, 159534, Note_on_c, 0, 68, 104
2, 159575, Control_c, 0, 64, 127
2, 159679, Note_on_c, 0, 68, 0
2, 159682, Control_c, 0, 64, 0
2, 159705, Note_on_c, 0, 50, 0
2, 159723, Note_on_c, 0, 70, 98
2, 159736, Note_on_c, 0, 38, 0
2, 159813, Note_on_c, 0, 70, 0
2, 159894, Note_on_c, 0, 68, 105
2, 159985, Note_on_c, 0, 46, 92
2, 159986, Note_on_c, 0, 51, 92
2, 159986, Note_on_c, 0, 39, 95
2, 159986, Note_on_c, 0, 63, 86
2, 160016, Note_on_c, 0, 68, 0
2, 160051, Note_on_c, 0, 51, 0
2, 160060, Note_on_c, 0, 39, 0
2, 160061, Note_on_c, 0, 46, 0
2, 160063, Note_on_c, 0, 66, 102
2, 160141, Note_on_c, 0, 67, 84
2, 160143, Note_on_c, 0, 51, 96
2, 160145, Note_on_c, 0, 39, 86
2, 160145, Note_on_c, 0, 46, 97
2, 160187, Note_on_c, 0, 66, 0
2, 160229, Note_on_c, 0, 68, 106
2, 160248, Note_on_c, 0, 50, 100
2, 160253, Note_on_c, 0, 38, 100
2, 160258, Note_on_c, 0, 51, 0
2, 160258, Note_on_c, 0, 63, 0
2, 160273, Note_on_c, 0, 39, 0
2, 160273, Note_on_c, 0, 46, 0
2, 160290, Note_on_c, 0, 50, 0
2, 160295, Note_on_c, 0, 38, 0
2, 160296, Note_on_c, 0, 67, 0
2, 160378, Note_on_c, 0, 68, 0
2, 160419, Note_on_c, 0, 50, 101
2, 160422, Note_on_c, 0, 38, 96
2, 160422, Note_on_c, 0, 66, 98
2, 160461, Note_on_c, 0, 50, 0
2, 160463, Note_on_c, 0, 38, 0
2, 160471, Note_on_c, 0, 66, 0
2, 160577, Note_on_c, 0, 49, 102
2, 160579, Note_on_c, 0, 37, 96
2, 160584, Note_on_c, 0, 68, 104
2, 160609, Note_on_c, 0, 66, 51
2, 160688, Note_on_c, 0, 49, 0
2, 160697, Note_on_c, 0, 68, 0
2, 160706, Note_on_c, 0, 37, 0
2, 160711, Note_on_c, 0, 66, 0
2, 160739, Note_on_c, 0, 70, 100
2, 160826, Note_on_c, 0, 42, 102
2, 160829, Note_on_c, 0, 30, 100
2, 160831, Note_on_c, 0, 66, 105
2, 160888, Note_on_c, 0, 70, 0
2, 160957, Note_on_c, 0, 42, 0
2, 161008, Note_on_c, 0, 42, 82
2, 161018, Control_c, 0, 64, 127
2, 161083, Note_on_c, 0, 54, 91
2, 161166, Note_on_c, 0, 49, 90
2, 161249, Note_on_c, 0, 30, 0
2, 161264, Control_c, 0, 64, 0
2, 161266, Note_on_c, 0, 42, 0
2, 161267, Note_on_c, 0, 54, 0
2, 161267, Note_on_c, 0, 49, 0
2, 161280, Note_on_c, 0, 66, 0
2, 161297, Note_on_c, 0, 72, 106
2, 161298, Note_on_c, 0, 75, 102
2, 161299, Note_on_c, 0, 48, 105
2, 161301, Note_on_c, 0, 36, 98
2, 161387, Note_on_c, 0, 75, 0
2, 161393, Note_on_c, 0, 75, 104
2, 161479, Control_c, 0, 64, 127
2, 161487, Note_on_c, 0, 77, 100
2, 161651, Note_on_c, 0, 78, 102
2, 161832, Note_on_c, 0, 36, 0
2, 161835, Note_on_c, 0, 73, 102
2, 161840, Note_on_c, 0, 36, 82
2, 161909, Note_on_c, 0, 36, 0
2, 161912, Note_on_c, 0, 48, 0
2, 161914, Note_on_c, 0, 75, 0
2, 161914, Note_on_c, 0, 72, 0
2, 161915, Note_on_c, 0, 78, 0
2, 161915, Note_on_c, 0, 77, 0
2, 161921, Control_c, 0, 64, 0
2, 161922, Note_on_c, 0, 73, 0
2, 161998, Note_on_c, 0, 71, 94
2, 161998, Note_on_c, 0, 75, 104
2, 162002, Note_on_c, 0, 47, 105
2, 162005, Note_on_c, 0, 35, 93
2, 162084, Note_on_c, 0, 78, 101
2, 162240, Control_c, 0, 64, 127
2, 162247, Note_on_c, 0, 78, 0
2, 162256, Note_on_c, 0, 78, 107
2, 162493, Note_on_c, 0, 35, 0
2, 162493, Note_on_c, 0, 78, 0
2, 162498, Note_on_c, 0, 35, 83
2, 162498, Note_on_c, 0, 78, 88
2, 162528, Note_on_c, 0, 80, 107
2, 162586, Control_c, 0, 64, 0
2, 162642, Note_on_c, 0, 75, 0
2, 162645, Note_on_c, 0, 71, 0
2, 162648, Note_on_c, 0, 35, 0
2, 162651, Note_on_c, 0, 47, 0
2, 162701, Note_on_c, 0, 46, 104
2, 162702, Note_on_c, 0, 34, 96
2, 162877, Note_on_c, 0, 78, 0
2, 162884, Note_on_c, 0, 78, 100
2, 162992, Control_c, 0, 64, 127
2, 163046, Note_on_c, 0, 80, 0
2, 163053, Note_on_c, 0, 80, 106
2, 163230, Note_on_c, 0, 78, 0
2, 163238, Note_on_c, 0, 34, 0
2, 163241, Note_on_c, 0, 78, 100
2, 163246, Note_on_c, 0, 34, 84
2, 163328, Control_c, 0, 64, 0
2, 163338, Note_on_c, 0, 78, 0
2, 163340, Note_on_c, 0, 46, 0
2, 163399, Note_on_c, 0, 80, 0
2, 163404, Note_on_c, 0, 80, 105
2, 163411, Note_on_c, 0, 69, 101
2, 163412, Note_on_c, 0, 45, 100
2, 163412, Note_on_c, 0, 73, 97
2, 163415, Note_on_c, 0, 33, 91
2, 163453, Control_c, 0, 64, 127
2, 163461, Note_on_c, 0, 34, 0
2, 163579, Note_on_c, 0, 82, 104
2, 163645, Note_on_c, 0, 82, 0
2, 163655, Note_on_c, 0, 82, 97
2, 163875, Note_on_c, 0, 33, 0
2, 163886, Note_on_c, 0, 33, 84
2, 163944, Note_on_c, 0, 82, 0
2, 163953, Note_on_c, 0, 82, 106
2, 164025, Control_c, 0, 64, 0
2, 164050, Note_on_c, 0, 82, 0
2, 164055, Note_on_c, 0, 73, 0
2, 164056, Note_on_c, 0, 33, 0
2, 164064, Note_on_c, 0, 45, 0
2, 164083, Note_on_c, 0, 69, 0
2, 164098, Note_on_c, 0, 80, 0
2, 164121, Note_on_c, 0, 83, 107
2, 164125, Note_on_c, 0, 44, 101
2, 164126, Note_on_c, 0, 75, 101
2, 164126, Note_on_c, 0, 32, 91
2, 164131, Note_on_c, 0, 78, 94
2, 164183, Control_c, 0, 64, 127
2, 164297, Note_on_c, 0, 82, 103
2, 164465, Note_on_c, 0, 80, 102
2, 164528, Note_on_c, 0, 78, 0
2, 164539, Note_on_c, 0, 78, 90
2, 164705, Note_on_c, 0, 78, 0
2, 164707, Note_on_c, 0, 59, 98
2, 164709, Note_on_c, 0, 78, 105
2, 164710, Note_on_c, 0, 54, 91
2, 164712, Note_on_c, 0, 51, 82
2, 165020, Note_on_c, 0, 75, 0
2, 165027, Note_on_c, 0, 44, 0
2, 165031, Note_on_c, 0, 75, 95
2, 165032, Note_on_c, 0, 44, 96
2, 165166, Note_on_c, 0, 78, 0
2, 165177, Note_on_c, 0, 78, 109
2, 165189, Note_on_c, 0, 59, 0
2, 165193, Note_on_c, 0, 59, 98
2, 165196, Note_on_c, 0, 51, 0
2, 165196, Note_on_c, 0, 54, 0
2, 165201, Note_on_c, 0, 54, 87
2, 165202, Note_on_c, 0, 51, 90
2, 165265, Note_on_c, 0, 78, 0
2, 165272, Note_on_c, 0, 78, 100
2, 165450, Note_on_c, 0, 78, 0
2, 165450, Note_on_c, 0, 83, 0
2, 165459, Note_on_c, 0, 83, 105
2, 165460, Note_on_c, 0, 73, 107
2, 165461, Note_on_c, 0, 78, 105
2, 165473, Control_c, 0, 64, 0
2, 165480, Note_on_c, 0, 80, 0
2, 165481, Note_on_c, 0, 54, 0
2, 165481, Note_on_c, 0, 59, 0
2, 165482, Note_on_c, 0, 82, 0
2, 165482, Note_on_c, 0, 51, 0
2, 165483, Note_on_c, 0, 44, 0
2, 165484, Note_on_c, 0, 75, 0
2, 165488, Note_on_c, 0, 32, 0
2, 165577, Note_on_c, 0, 49, 101
2, 165580, Note_on_c, 0, 37, 96
2, 165611, Control_c, 0, 64, 127
2, 165758, Note_on_c, 0, 82, 105
2, 165943, Note_on_c, 0, 80, 105
2, 166033, Note_on_c, 0, 78, 0
2, 166039, Note_on_c, 0, 78, 99
2, 166095, Note_on_c, 0, 73, 0
2, 166104, Note_on_c, 0, 73, 103
2, 166110, Note_on_c, 0, 49, 0
2, 166120, Note_on_c, 0, 49, 86
2, 166164, Note_on_c, 0, 78, 0
2, 166169, Note_on_c, 0, 78, 92
2, 166202, Note_on_c, 0, 80, 0
2, 166209, Note_on_c, 0, 80, 93
2, 166246, Note_on_c, 0, 61, 102
2, 166256, Note_on_c, 0, 85, 111
2, 166256, Note_on_c, 0, 56, 88
2, 166259, Note_on_c, 0, 54, 94
2, 166306, Note_on_c, 0, 37, 0
2, 166314, Control_c, 0, 64, 0
2, 166315, Note_on_c, 0, 82, 0
2, 166317, Note_on_c, 0, 49, 0
2, 166317, Note_on_c, 0, 73, 0
2, 166321, Note_on_c, 0, 61, 0
2, 166322, Note_on_c, 0, 54, 0
2, 166323, Note_on_c, 0, 56, 0
2, 166356, Note_on_c, 0, 83, 0
2, 166471, Note_on_c, 0, 78, 0
2, 166510, Note_on_c, 0, 80, 0
2, 166613, Note_on_c, 0, 49, 96
2, 166621, Note_on_c, 0, 37, 97
2, 166636, Note_on_c, 0, 99, 109
2, 166640, Note_on_c, 0, 85, 0
2, 166640, Control_c, 0, 64, 127
2, 166646, Note_on_c, 0, 94, 94
2, 166652, Note_on_c, 0, 97, 86
2, 166666, Note_on_c, 0, 92, 84
2, 166683, Note_on_c, 0, 87, 68
2, 166697, Note_on_c, 0, 85, 108
2, 166707, Note_on_c, 0, 82, 92
2, 166729, Note_on_c, 0, 80, 89
2, 166750, Note_on_c, 0, 75, 99
2, 166760, Note_on_c, 0, 73, 94
2, 166769, Note_on_c, 0, 63, 75
2, 166770, Note_on_c, 0, 61, 83
2, 166774, Note_on_c, 0, 70, 99
2, 166795, Note_on_c, 0, 66, 86
2, 166890, Note_on_c, 0, 37, 0
2, 166891, Note_on_c, 0, 80, 0
2, 166891, Note_on_c, 0, 75, 0
2, 166891, Note_on_c, 0, 99, 0
2, 166891, Note_on_c, 0, 87, 0
2, 166891, Note_on_c, 0, 94, 0
2, 166891, Note_on_c, 0, 49, 0
2, 166891, Note_on_c, 0, 82, 0
2, 166891, Note_on_c, 0, 85, 0
2, 166891, Note_on_c, 0, 97, 0
2, 166891, Note_on_c, 0, 73, 0
2, 166892, Note_on_c, 0, 92, 0
2, 166892, Note_on_c, 0, 66, 0
2, 166892, Note_on_c, 0, 61, 0
2, 166892, Control_c, 0, 64, 0
2, 166893, Note_on_c, 0, 70, 0
2, 166901, Note_on_c, 0, 63, 0
2, 166959, Note_on_c, 0, 32, 91
2, 166959, Note_on_c, 0, 44, 97
2, 166961, Note_on_c, 0, 63, 107
2, 166966, Note_on_c, 0, 59, 92
2, 166986, Control_c, 0, 64, 127
2, 167040, Note_on_c, 0, 59, 0
2, 167040, Note_on_c, 0, 63, 0
2, 167043, Note_on_c, 0, 63, 102
2, 167047, Note_on_c, 0, 59, 91
2, 167105, Control_c, 0, 64, 0
2, 167109, Note_on_c, 0, 32, 0
2, 167112, Note_on_c, 0, 44, 0
2, 167118, Note_on_c, 0, 59, 0
2, 167131, Note_on_c, 0, 65, 98
2, 167151, Note_on_c, 0, 63, 0
2, 167168, Note_on_c, 0, 65, 0
2, 167307, Note_on_c, 0, 54, 85
2, 167308, Note_on_c, 0, 66, 106
2, 167310, Note_on_c, 0, 51, 82
2, 167311, Note_on_c, 0, 59, 90
2, 167338, Note_on_c, 0, 51, 0
2, 167354, Note_on_c, 0, 54, 0
2, 167370, Note_on_c, 0, 59, 0
2, 167393, Note_on_c, 0, 66, 0
2, 167473, Note_on_c, 0, 44, 97
2, 167473, Note_on_c, 0, 32, 87
2, 167474, Note_on_c, 0, 61, 98
2, 167554, Note_on_c, 0, 32, 0
2, 167558, Note_on_c, 0, 61, 0
2, 167562, Note_on_c, 0, 44, 0
2, 167650, Note_on_c, 0, 63, 102
2, 167651, Note_on_c, 0, 37, 96
2, 167653, Note_on_c, 0, 49, 95
2, 167657, Note_on_c, 0, 59, 89
2, 167685, Control_c, 0, 64, 127
2, 167732, Note_on_c, 0, 66, 102
2, 167742, Control_c, 0, 64, 0
2, 167765, Note_on_c, 0, 37, 0
2, 167766, Note_on_c, 0, 59, 0
2, 167767, Note_on_c, 0, 49, 0
2, 167772, Note_on_c, 0, 63, 0
2, 167773, Note_on_c, 0, 66, 0
2, 167833, Note_on_c, 0, 49, 90
2, 167884, Note_on_c, 0, 49, 0
2, 167904, Note_on_c, 0, 66, 102
2, 167909, Note_on_c, 0, 53, 94
2, 167911, Note_on_c, 0, 56, 94
2, 167916, Note_on_c, 0, 59, 92
2, 167930, Control_c, 0, 64, 127
2, 168093, Note_on_c, 0, 35, 89
2, 168173, Note_on_c, 0, 47, 95
2, 168176, Note_on_c, 0, 68, 106
2, 168201, Control_c, 0, 64, 0
2, 168210, Note_on_c, 0, 56, 0
2, 168211, Note_on_c, 0, 53, 0
2, 168211, Note_on_c, 0, 59, 0
2, 168213, Note_on_c, 0, 66, 0
2, 168213, Note_on_c, 0, 35, 0
2, 168218, Note_on_c, 0, 47, 0
2, 168328, Note_on_c, 0, 46, 100
2, 168332, Note_on_c, 0, 34, 96
2, 168384, Control_c, 0, 64, 127
2, 168407, Note_on_c, 0, 46, 0
2, 168415, Note_on_c, 0, 46, 34
2, 168419, Note_on_c, 0, 58, 60
2, 168437, Note_on_c, 0, 68, 0
2, 168506, Note_on_c, 0, 66, 98
2, 168522, Note_on_c, 0, 46, 0
2, 168527, Note_on_c, 0, 46, 83
2, 168583, Note_on_c, 0, 66, 0
2, 168588, Note_on_c, 0, 66, 86
2, 168599, Control_c, 0, 64, 0
2, 168674, Note_on_c, 0, 56, 97
2, 168679, Note_on_c, 0, 53, 90
2, 168686, Note_on_c, 0, 68, 104
2, 168738, Note_on_c, 0, 58, 0
2, 168738, Note_on_c, 0, 34, 0
2, 168739, Note_on_c, 0, 46, 0
2, 168740, Note_on_c, 0, 66, 0
2, 168740, Note_on_c, 0, 53, 0
2, 168741, Note_on_c, 0, 68, 0
2, 168741, Note_on_c, 0, 56, 0
2, 168853, Note_on_c, 0, 50, 94
2, 168855, Note_on_c, 0, 38, 95
2, 168858, Note_on_c, 0, 66, 94
2, 168887, Note_on_c, 0, 66, 0
2, 168898, Note_on_c, 0, 38, 0
2, 168898, Note_on_c, 0, 50, 0
2, 169026, Note_on_c, 0, 51, 97
2, 169026, Note_on_c, 0, 68, 105
2, 169027, Note_on_c, 0, 39, 92
2, 169067, Control_c, 0, 64, 127
2, 169128, Control_c, 0, 64, 0
2, 169144, Note_on_c, 0, 68, 0
2, 169186, Note_on_c, 0, 70, 96
2, 169190, Note_on_c, 0, 51, 0
2, 169198, Note_on_c, 0, 51, 82
2, 169228, Note_on_c, 0, 39, 0
2, 169267, Note_on_c, 0, 70, 0
2, 169277, Note_on_c, 0, 70, 106
2, 169278, Note_on_c, 0, 58, 94
2, 169280, Note_on_c, 0, 54, 85
2, 169310, Note_on_c, 0, 58, 0
2, 169310, Note_on_c, 0, 54, 0
2, 169313, Note_on_c, 0, 51, 0
2, 169447, Note_on_c, 0, 31, 91
2, 169519, Note_on_c, 0, 43, 89
2, 169543, Note_on_c, 0, 70, 0
2, 169551, Note_on_c, 0, 70, 108
2, 169585, Note_on_c, 0, 43, 0
2, 169586, Note_on_c, 0, 31, 0
2, 169681, Note_on_c, 0, 70, 0
2, 169704, Note_on_c, 0, 44, 102
2, 169706, Note_on_c, 0, 32, 96
2, 169707, Note_on_c, 0, 71, 109
2, 169708, Note_on_c, 0, 63, 100
2, 169735, Control_c, 0, 64, 127
2, 169833, Note_on_c, 0, 63, 0
2, 169836, Note_on_c, 0, 71, 0
2, 169839, Control_c, 0, 64, 0
2, 169866, Note_on_c, 0, 32, 0
2, 169881, Note_on_c, 0, 44, 0
2, 169890, Note_on_c, 0, 70, 105
2, 169892, Note_on_c, 0, 44, 86
2, 169933, Note_on_c, 0, 70, 0
2, 170040, Note_on_c, 0, 59, 97
2, 170056, Note_on_c, 0, 54, 85
2, 170056, Note_on_c, 0, 68, 105
2, 170062, Note_on_c, 0, 51, 78
2, 170088, Control_c, 0, 64, 127
2, 170213, Note_on_c, 0, 66, 104
2, 170261, Control_c, 0, 64, 0
2, 170269, Note_on_c, 0, 68, 0
2, 170269, Note_on_c, 0, 54, 0
2, 170271, Note_on_c, 0, 51, 0
2, 170275, Note_on_c, 0, 59, 0
2, 170280, Note_on_c, 0, 44, 0
2, 170294, Note_on_c, 0, 46, 102
2, 170296, Note_on_c, 0, 34, 95
2, 170353, Note_on_c, 0, 34, 0
2, 170355, Note_on_c, 0, 46, 0
2, 170384, Note_on_c, 0, 65, 102
2, 170396, Note_on_c, 0, 66, 0
2, 170484, Note_on_c, 0, 34, 88
2, 170503, Control_c, 0, 64, 127
2, 170507, Control_c, 0, 64, 0
2, 170519, Control_c, 0, 64, 127
2, 170561, Note_on_c, 0, 66, 101
2, 170563, Note_on_c, 0, 46, 92
2, 170703, Control_c, 0, 64, 0
2, 170711, Note_on_c, 0, 34, 0
2, 170715, Note_on_c, 0, 46, 0
2, 170720, Note_on_c, 0, 65, 0
2, 170721, Note_on_c, 0, 56, 103
2, 170729, Note_on_c, 0, 53, 91
2, 170730, Note_on_c, 0, 68, 107
2, 170772, Control_c, 0, 64, 127
2, 170903, Note_on_c, 0, 68, 0
2, 170906, Note_on_c, 0, 46, 104
2, 170906, Note_on_c, 0, 34, 97
2, 170907, Note_on_c, 0, 70, 106
2, 170913, Note_on_c, 0, 68, 87
2, 170999, Control_c, 0, 64, 0
2, 171002, Note_on_c, 0, 53, 0
2, 171005, Note_on_c, 0, 34, 0
2, 171006, Note_on_c, 0, 68, 0
2, 171006, Note_on_c, 0, 56, 0
2, 171006, Note_on_c, 0, 66, 0
2, 171007, Note_on_c, 0, 46, 0
2, 171007, Note_on_c, 0, 70, 0
2, 171068, Note_on_c, 0, 68, 101
2, 171075, Note_on_c, 0, 51, 100
2, 171076, Note_on_c, 0, 39, 94
2, 171125, Control_c, 0, 64, 127
2, 171136, Note_on_c, 0, 66, 98
2, 171211, Note_on_c, 0, 65, 94
2, 171271, Note_on_c, 0, 66, 0
2, 171279, Note_on_c, 0, 66, 91
2, 171356, Note_on_c, 0, 68, 0
2, 171362, Note_on_c, 0, 68, 95
2, 171394, Note_on_c, 0, 70, 84
2, 171427, Note_on_c, 0, 50, 100
2, 171429, Note_on_c, 0, 38, 97
2, 171460, Note_on_c, 0, 71, 98
2, 171529, Note_on_c, 0, 73, 96
2, 171575, Note_on_c, 0, 75, 92
2, 171656, Note_on_c, 0, 77, 102
2, 171743, Note_on_c, 0, 78, 106
2, 171745, Control_c, 0, 64, 0
2, 171751, Note_on_c, 0, 38, 0
2, 171751, Note_on_c, 0, 75, 0
2, 171752, Note_on_c, 0, 65, 0
2, 171752, Note_on_c, 0, 50, 0
2, 171752, Note_on_c, 0, 68, 0
2, 171752, Note_on_c, 0, 73, 0
2, 171752, Note_on_c, 0, 51, 0
2, 171752, Note_on_c, 0, 70, 0
2, 171752, Note_on_c, 0, 66, 0
2, 171752, Note_on_c, 0, 71, 0
2, 171753, Note_on_c, 0, 77, 0
2, 171763, Note_on_c, 0, 39, 0
2, 171773, Note_on_c, 0, 49, 104
2, 171774, Note_on_c, 0, 37, 102
2, 171840, Control_c, 0, 64, 127
2, 171859, Note_on_c, 0, 73, 96
2, 171926, Note_on_c, 0, 77, 97
2, 172008, Note_on_c, 0, 78, 0
2, 172014, Note_on_c, 0, 78, 97
2, 172080, Note_on_c, 0, 80, 95
2, 172093, Note_on_c, 0, 42, 96
2, 172096, Note_on_c, 0, 30, 100
2, 172140, Note_on_c, 0, 85, 108
2, 172200, Note_on_c, 0, 90, 105
2, 172389, Control_c, 0, 64, 0
2, 172389, Note_on_c, 0, 30, 0
2, 172390, Note_on_c, 0, 49, 0
2, 172392, Note_on_c, 0, 42, 0
2, 172393, Note_on_c, 0, 37, 0
2, 172393, Note_on_c, 0, 80, 0
2, 172394, Note_on_c, 0, 73, 0
2, 172394, Note_on_c, 0, 77, 0
2, 172395, Note_on_c, 0, 90, 0
2, 172395, Note_on_c, 0, 85, 0
2, 172395, Note_on_c, 0, 78, 0
2, 172452, Note_on_c, 0, 87, 105
2, 172452, Note_on_c, 0, 44, 97
2, 172453, Note_on_c, 0, 75, 101
2, 172453, Note_on_c, 0, 32, 92
2, 172508, Note_on_c, 0, 75, 0
2, 172523, Note_on_c, 0, 87, 0
2, 172533, Note_on_c, 0, 87, 108
2, 172533, Note_on_c, 0, 75, 105
2, 172538, Note_on_c, 0, 44, 0
2, 172538, Control_c, 0, 64, 127
2, 172631, Note_on_c, 0, 32, 0
2, 172639, Note_on_c, 0, 89, 112
2, 172640, Note_on_c, 0, 44, 89
2, 172641, Note_on_c, 0, 77, 105
2, 172642, Note_on_c, 0, 32, 84
2, 172806, Note_on_c, 0, 90, 110
2, 172811, Note_on_c, 0, 78, 108
2, 172811, Note_on_c, 0, 59, 97
2, 172818, Note_on_c, 0, 54, 93
2, 172819, Note_on_c, 0, 51, 81
2, 172968, Note_on_c, 0, 44, 0
2, 172974, Note_on_c, 0, 44, 78
2, 172980, Note_on_c, 0, 85, 105
2, 172980, Note_on_c, 0, 73, 106
2, 173094, Note_on_c, 0, 32, 0
2, 173095, Note_on_c, 0, 90, 0
2, 173095, Note_on_c, 0, 44, 0
2, 173095, Note_on_c, 0, 59, 0
2, 173095, Note_on_c, 0, 77, 0
2, 173095, Note_on_c, 0, 89, 0
2, 173095, Note_on_c, 0, 78, 0
2, 173096, Note_on_c, 0, 75, 0
2, 173096, Note_on_c, 0, 87, 0
2, 173096, Note_on_c, 0, 54, 0
2, 173096, Control_c, 0, 64, 0
2, 173096, Note_on_c, 0, 85, 0
2, 173097, Note_on_c, 0, 51, 0
2, 173097, Note_on_c, 0, 73, 0
2, 173139, Note_on_c, 0, 87, 107
2, 173139, Note_on_c, 0, 75, 104
2, 173142, Note_on_c, 0, 49, 107
2, 173147, Note_on_c, 0, 37, 94
2, 173191, Control_c, 0, 64, 127
2, 173199, Note_on_c, 0, 75, 0
2, 173225, Note_on_c, 0, 78, 111
2, 173225, Note_on_c, 0, 90, 113
2, 173406, Note_on_c, 0, 78, 0
2, 173406, Note_on_c, 0, 90, 0
2, 173411, Note_on_c, 0, 90, 111
2, 173411, Note_on_c, 0, 78, 108
2, 173500, Note_on_c, 0, 47, 111
2, 173502, Note_on_c, 0, 35, 99
2, 173686, Note_on_c, 0, 97, 119
2, 173688, Note_on_c, 0, 85, 116
2, 173842, Note_on_c, 0, 90, 0
2, 173842, Note_on_c, 0, 49, 0
2, 173843, Note_on_c, 0, 78, 0
2, 173844, Note_on_c, 0, 37, 0
2, 173846, Note_on_c, 0, 87, 0
2, 173846, Control_c, 0, 64, 0
2, 173846, Note_on_c, 0, 47, 0
2, 173846, Note_on_c, 0, 35, 0
2, 173867, Note_on_c, 0, 46, 110
2, 173869, Note_on_c, 0, 34, 106
2, 173936, Control_c, 0, 64, 127
2, 173978, Note_on_c, 0, 95, 106
2, 174035, Note_on_c, 0, 94, 96
2, 174082, Note_on_c, 0, 92, 102
2, 174139, Note_on_c, 0, 90, 99
2, 174184, Note_on_c, 0, 89, 99
2, 174190, Note_on_c, 0, 97, 0
2, 174213, Note_on_c, 0, 85, 0
2, 174224, Control_c, 0, 64, 0
2, 174226, Note_on_c, 0, 46, 0
2, 174227, Note_on_c, 0, 50, 106
2, 174232, Note_on_c, 0, 38, 101
2, 174236, Note_on_c, 0, 34, 0
2, 174257, Note_on_c, 0, 87, 91
2, 174259, Note_on_c, 0, 95, 0
2, 174289, Note_on_c, 0, 89, 0
2, 174305, Control_c, 0, 64, 127
2, 174321, Note_on_c, 0, 85, 98
2, 174378, Note_on_c, 0, 84, 87
2, 174435, Note_on_c, 0, 92, 0
2, 174443, Note_on_c, 0, 82, 95
2, 174458, Note_on_c, 0, 90, 0
2, 174509, Note_on_c, 0, 80, 94
2, 174548, Note_on_c, 0, 85, 0
2, 174548, Note_on_c, 0, 84, 0
2, 174548, Note_on_c, 0, 87, 0
2, 174549, Note_on_c, 0, 38, 0
2, 174551, Note_on_c, 0, 94, 0
2, 174551, Note_on_c, 0, 82, 0
2, 174552, Note_on_c, 0, 50, 0
2, 174555, Note_on_c, 0, 78, 89
2, 174565, Control_c, 0, 64, 0
2, 174584, Note_on_c, 0, 80, 0
2, 174599, Note_on_c, 0, 39, 98
2, 174599, Note_on_c, 0, 51, 103
2, 174607, Note_on_c, 0, 77, 90
2, 174643, Note_on_c, 0, 78, 0
2, 174643, Control_c, 0, 64, 127
2, 174692, Note_on_c, 0, 75, 97
2, 174766, Note_on_c, 0, 73, 95
2, 174819, Note_on_c, 0, 72, 98
2, 174897, Note_on_c, 0, 70, 89
2, 174933, Note_on_c, 0, 51, 0
2, 174934, Control_c, 0, 64, 0
2, 174934, Note_on_c, 0, 77, 0
2, 174935, Note_on_c, 0, 75, 0
2, 174937, Note_on_c, 0, 72, 0
2, 174937, Note_on_c, 0, 39, 0
2, 174938, Note_on_c, 0, 73, 0
2, 174946, Note_on_c, 0, 43, 104
2, 174946, Note_on_c, 0, 31, 97
2, 174953, Note_on_c, 0, 68, 86
2, 174996, Control_c, 0, 64, 127
2, 175040, Note_on_c, 0, 66, 92
2, 175122, Note_on_c, 0, 65, 82
2, 175173, Note_on_c, 0, 70, 0
2, 175179, Note_on_c, 0, 63, 101
2, 175254, Note_on_c, 0, 66, 0
2, 175256, Note_on_c, 0, 68, 0
2, 175257, Note_on_c, 0, 65, 0
2, 175257, Control_c, 0, 64, 0
2, 175260, Note_on_c, 0, 63, 0
2, 175261, Note_on_c, 0, 31, 0
2, 175261, Note_on_c, 0, 43, 0
2, 175292, Note_on_c, 0, 61, 99
2, 175297, Note_on_c, 0, 32, 98
2, 175298, Note_on_c, 0, 44, 104
2, 175349, Control_c, 0, 64, 127
2, 175374, Note_on_c, 0, 59, 93
2, 175450, Note_on_c, 0, 58, 90
2, 175534, Note_on_c, 0, 59, 0
2, 175537, Note_on_c, 0, 59, 82
2, 175625, Note_on_c, 0, 63, 96
2, 175634, Note_on_c, 0, 54, 82
2, 175640, Note_on_c, 0, 51, 80
2, 175680, Note_on_c, 0, 44, 0
2, 175689, Note_on_c, 0, 44, 75
2, 175690, Note_on_c, 0, 58, 0
2, 175696, Note_on_c, 0, 66, 90
2, 175761, Note_on_c, 0, 54, 0
2, 175761, Note_on_c, 0, 61, 0
2, 175761, Note_on_c, 0, 63, 0
2, 175761, Note_on_c, 0, 59, 0
2, 175762, Note_on_c, 0, 51, 0
2, 175762, Note_on_c, 0, 66, 0
2, 175767, Control_c, 0, 64, 0
2, 175772, Note_on_c, 0, 44, 0
2, 175773, Note_on_c, 0, 71, 98
2, 175777, Note_on_c, 0, 44, 82
2, 175779, Note_on_c, 0, 32, 0
2, 175833, Control_c, 0, 64, 127
2, 175860, Note_on_c, 0, 78, 104
2, 175863, Note_on_c, 0, 75, 98
2, 175867, Note_on_c, 0, 54, 97
2, 175870, Note_on_c, 0, 51, 81
2, 176049, Note_on_c, 0, 32, 65
2, 176125, Note_on_c, 0, 44, 0
2, 176136, Note_on_c, 0, 44, 94
2, 176153, Note_on_c, 0, 73, 109
2, 176245, Control_c, 0, 64, 0
2, 176245, Note_on_c, 0, 32, 0
2, 176247, Note_on_c, 0, 51, 0
2, 176249, Note_on_c, 0, 75, 0
2, 176249, Note_on_c, 0, 71, 0
2, 176249, Note_on_c, 0, 54, 0
2, 176250, Note_on_c, 0, 78, 0
2, 176251, Note_on_c, 0, 73, 0
2, 176263, Note_on_c, 0, 44, 0
2, 176319, Note_on_c, 0, 75, 106
2, 176320, Note_on_c, 0, 34, 102
2, 176320, Note_on_c, 0, 46, 105
2, 176348, Control_c, 0, 64, 127
2, 176397, Note_on_c, 0, 78, 94
2, 176568, Note_on_c, 0, 34, 0
2, 176569, Control_c, 0, 64, 0
2, 176570, Note_on_c, 0, 78, 0
2, 176572, Note_on_c, 0, 46, 0
2, 176572, Note_on_c, 0, 75, 0
2, 176577, Note_on_c, 0, 78, 113
2, 176687, Note_on_c, 0, 47, 111
2, 176689, Note_on_c, 0, 35, 98
2, 176762, Note_on_c, 0, 78, 0
2, 176778, Control_c, 0, 64, 127
2, 176825, Note_on_c, 0, 62, 98
2, 176867, Note_on_c, 0, 66, 84
2, 176916, Note_on_c, 0, 68, 104
2, 176961, Note_on_c, 0, 71, 91
2, 177010, Note_on_c, 0, 74, 100
2, 177050, Note_on_c, 0, 78, 94
2, 177090, Note_on_c, 0, 80, 101
2, 177138, Note_on_c, 0, 83, 98
2, 177182, Note_on_c, 0, 86, 104
2, 177251, Note_on_c, 0, 90, 117
2, 177373, Note_on_c, 0, 37, 104
2, 177373, Note_on_c, 0, 49, 107
2, 177411, Control_c, 0, 64, 0
2, 177412, Note_on_c, 0, 66, 0
2, 177412, Note_on_c, 0, 71, 0
2, 177414, Note_on_c, 0, 83, 0
2, 177414, Note_on_c, 0, 62, 0
2, 177416, Note_on_c, 0, 86, 0
2, 177416, Note_on_c, 0, 74, 0
2, 177417, Note_on_c, 0, 47, 0
2, 177418, Note_on_c, 0, 68, 0
2, 177418, Note_on_c, 0, 90, 0
2, 177418, Note_on_c, 0, 78, 0
2, 177418, Note_on_c, 0, 80, 0
2, 177438, Note_on_c, 0, 35, 0
2, 177461, Control_c, 0, 64, 127
2, 177489, Note_on_c, 0, 68, 99
2, 177489, Note_on_c, 0, 80, 92
2, 177544, Note_on_c, 0, 81, 108
2, 177546, Note_on_c, 0, 69, 105
2, 177645, Control_c, 0, 64, 0
2, 177649, Note_on_c, 0, 80, 0
2, 177650, Note_on_c, 0, 81, 0
2, 177650, Note_on_c, 0, 37, 0
2, 177650, Note_on_c, 0, 69, 0
2, 177650, Note_on_c, 0, 68, 0
2, 177650, Note_on_c, 0, 49, 0
2, 177726, Note_on_c, 0, 80, 108
2, 177731, Note_on_c, 0, 25, 98
2, 177732, Note_on_c, 0, 37, 98
2, 177732, Note_on_c, 0, 68, 102
2, 177774, Note_on_c, 0, 25, 0
2, 177775, Note_on_c, 0, 80, 0
2, 177779, Note_on_c, 0, 68, 0
2, 177780, Note_on_c, 0, 37, 0
2, 177895, Note_on_c, 0, 78, 110
2, 177896, Note_on_c, 0, 66, 102
2, 177934, Note_on_c, 0, 78, 0
2, 177945, Note_on_c, 0, 66, 0
2, 178070, Note_on_c, 0, 42, 104
2, 178071, Note_on_c, 0, 30, 101
2, 178071, Note_on_c, 0, 78, 110
2, 178073, Note_on_c, 0, 66, 105
2, 178187, Note_on_c, 0, 30, 0
2, 178196, Note_on_c, 0, 42, 0
2, 178206, Note_on_c, 0, 66, 0
2, 178206, Note_on_c, 0, 78, 0
2, 178423, Note_on_c, 0, 57, 107
2, 178423, Note_on_c, 0, 69, 90
2, 178424, Note_on_c, 0, 45, 106
2, 178425, Note_on_c, 0, 33, 97
2, 178455, Note_on_c, 0, 57, 0
2, 178456, Note_on_c, 0, 45, 0
2, 178475, Note_on_c, 0, 69, 0
2, 178490, Note_on_c, 0, 33, 0
2, 178779, Note_on_c, 0, 47, 99
2, 178783, Note_on_c, 0, 35, 89
2, 178784, Note_on_c, 0, 59, 106
2, 178834, Note_on_c, 0, 35, 0
2, 178834, Note_on_c, 0, 47, 0
2, 178928, Note_on_c, 0, 59, 0
2, 178955, Note_on_c, 0, 40, 89
2, 178955, Note_on_c, 0, 28, 84
2, 178955, Note_on_c, 0, 52, 89
2, 178996, Note_on_c, 0, 52, 0
2, 178996, Note_on_c, 0, 40, 0
2, 179000, Note_on_c, 0, 28, 0
2, 179115, Note_on_c, 0, 52, 94
2, 179116, Note_on_c, 0, 40, 77
2, 179117, Note_on_c, 0, 28, 78
2, 179166, Note_on_c, 0, 28, 0
2, 179203, Note_on_c, 0, 53, 91
2, 179203, Note_on_c, 0, 41, 82
2, 179204, Note_on_c, 0, 29, 86
2, 179220, Note_on_c, 0, 40, 0
2, 179235, Note_on_c, 0, 52, 0
2, 179240, Note_on_c, 0, 41, 0
2, 179244, Note_on_c, 0, 29, 0
2, 179247, Note_on_c, 0, 53, 0
2, 179355, Note_on_c, 0, 42, 106
2, 179355, Note_on_c, 0, 54, 99
2, 179355, Note_on_c, 0, 30, 106
2, 179473, Note_on_c, 0, 30, 0
2, 179496, Note_on_c, 0, 42, 0
2, 179496, Note_on_c, 0, 54, 0
2, 179670, Note_on_c, 0, 60, 100
2, 179678, Note_on_c, 0, 76, 104
2, 179685, Note_on_c, 0, 71, 87
2, 179724, Note_on_c, 0, 60, 0
2, 179747, Note_on_c, 0, 76, 0
2, 179768, Note_on_c, 0, 59, 91
2, 179788, Note_on_c, 0, 71, 0
2, 179827, Note_on_c, 0, 59, 0
2, 179844, Note_on_c, 0, 78, 105
2, 179845, Note_on_c, 0, 73, 107
2, 179849, Note_on_c, 0, 69, 80
2, 179862, Note_on_c, 0, 57, 89
2, 179937, Note_on_c, 0, 54, 83
2, 179947, Note_on_c, 0, 57, 0
2, 180003, Note_on_c, 0, 69, 0
2, 180007, Note_on_c, 0, 54, 0
2, 180014, Note_on_c, 0, 52, 84
2, 180018, Note_on_c, 0, 76, 102
2, 180019, Note_on_c, 0, 71, 91
2, 180039, Note_on_c, 0, 73, 0
2, 180042, Note_on_c, 0, 78, 0
2, 180090, Note_on_c, 0, 53, 73
2, 180103, Control_c, 0, 64, 127
2, 180111, Note_on_c, 0, 78, 101
2, 180119, Note_on_c, 0, 73, 84
2, 180169, Note_on_c, 0, 54, 89
2, 180234, Note_on_c, 0, 53, 0
2, 180244, Note_on_c, 0, 53, 83
2, 180280, Note_on_c, 0, 73, 0
2, 180280, Note_on_c, 0, 78, 0
2, 180288, Note_on_c, 0, 71, 0
2, 180290, Note_on_c, 0, 78, 102
2, 180291, Note_on_c, 0, 54, 0
2, 180291, Note_on_c, 0, 73, 86
2, 180292, Note_on_c, 0, 71, 82
2, 180334, Note_on_c, 0, 52, 0
2, 180340, Note_on_c, 0, 52, 80
2, 180349, Note_on_c, 0, 76, 0
2, 180350, Note_on_c, 0, 53, 0
2, 180372, Note_on_c, 0, 71, 0
2, 180377, Note_on_c, 0, 81, 105
2, 180382, Note_on_c, 0, 71, 92
2, 180421, Note_on_c, 0, 49, 81
2, 180487, Control_c, 0, 64, 0
2, 180518, Note_on_c, 0, 73, 0
2, 180518, Note_on_c, 0, 78, 0
2, 180523, Note_on_c, 0, 48, 92
2, 180524, Note_on_c, 0, 78, 110
2, 180526, Note_on_c, 0, 71, 0
2, 180529, Note_on_c, 0, 73, 103
2, 180531, Note_on_c, 0, 71, 92
2, 180572, Control_c, 0, 64, 127
2, 180602, Note_on_c, 0, 48, 0
2, 180613, Note_on_c, 0, 48, 75
2, 180614, Note_on_c, 0, 47, 94
2, 180706, Note_on_c, 0, 45, 88
2, 180822, Note_on_c, 0, 78, 0
2, 180822, Note_on_c, 0, 73, 0
2, 180822, Note_on_c, 0, 48, 0
2, 180823, Note_on_c, 0, 45, 0
2, 180823, Note_on_c, 0, 47, 0
2, 180823, Note_on_c, 0, 81, 0
2, 180823, Note_on_c, 0, 71, 0
2, 180823, Note_on_c, 0, 49, 0
2, 180836, Control_c, 0, 64, 0
2, 180840, Note_on_c, 0, 52, 0
2, 180870, Note_on_c, 0, 42, 105
2, 180872, Note_on_c, 0, 30, 103
2, 180873, Note_on_c, 0, 66, 102
2, 180913, Note_on_c, 0, 66, 0
2, 180933, Note_on_c, 0, 42, 0
2, 180963, Note_on_c, 0, 30, 0
2, 180984, Note_on_c, 0, 66, 100
2, 180989, Note_on_c, 0, 54, 86
2, 180990, Note_on_c, 0, 30, 73
2, 180990, Note_on_c, 0, 42, 82
2, 181015, Note_on_c, 0, 66, 0
2, 181018, Note_on_c, 0, 42, 0
2, 181048, Note_on_c, 0, 30, 0
2, 181048, Note_on_c, 0, 54, 0
2, 181100, Note_on_c, 0, 42, 86
2, 181101, Note_on_c, 0, 54, 87
2, 181101, Note_on_c, 0, 30, 87
2, 181102, Note_on_c, 0, 66, 100
2, 181131, Note_on_c, 0, 42, 0
2, 181134, Note_on_c, 0, 30, 0
2, 181138, Note_on_c, 0, 66, 0
2, 181163, Note_on_c, 0, 54, 0
2, 181221, Note_on_c, 0, 69, 107
2, 181222, Note_on_c, 0, 57, 104
2, 181223, Note_on_c, 0, 45, 102
2, 181227, Note_on_c, 0, 33, 91
2, 181251, Note_on_c, 0, 57, 0
2, 181252, Note_on_c, 0, 45, 0
2, 181252, Note_on_c, 0, 69, 0
2, 181257, Note_on_c, 0, 33, 0
2, 181346, Note_on_c, 0, 69, 102
2, 181346, Note_on_c, 0, 57, 102
2, 181349, Note_on_c, 0, 45, 95
2, 181351, Note_on_c, 0, 33, 86
2, 181375, Note_on_c, 0, 57, 0
2, 181377, Note_on_c, 0, 45, 0
2, 181377, Note_on_c, 0, 69, 0
2, 181401, Note_on_c, 0, 33, 0
2, 181452, Note_on_c, 0, 45, 92
2, 181453, Note_on_c, 0, 33, 85
2, 181459, Note_on_c, 0, 69, 99
2, 181459, Note_on_c, 0, 57, 100
2, 181487, Note_on_c, 0, 45, 0
2, 181489, Note_on_c, 0, 33, 0
2, 181509, Note_on_c, 0, 57, 0
2, 181524, Note_on_c, 0, 69, 0
2, 181576, Note_on_c, 0, 47, 100
2, 181577, Note_on_c, 0, 71, 105
2, 181578, Note_on_c, 0, 35, 88
2, 181579, Note_on_c, 0, 59, 108
2, 181612, Note_on_c, 0, 59, 0
2, 181612, Note_on_c, 0, 35, 0
2, 181612, Note_on_c, 0, 47, 0
2, 181614, Note_on_c, 0, 71, 0
2, 181692, Note_on_c, 0, 71, 93
2, 181693, Note_on_c, 0, 47, 86
2, 181695, Note_on_c, 0, 35, 78
2, 181695, Note_on_c, 0, 59, 94
2, 181721, Note_on_c, 0, 47, 0
2, 181747, Note_on_c, 0, 71, 0
2, 181754, Note_on_c, 0, 35, 0
2, 181754, Note_on_c, 0, 59, 0
2, 181789, Note_on_c, 0, 47, 87
2, 181790, Note_on_c, 0, 71, 98
2, 181790, Note_on_c, 0, 35, 85
2, 181790, Note_on_c, 0, 59, 97
2, 181822, Note_on_c, 0, 59, 0
2, 181825, Note_on_c, 0, 47, 0
2, 181827, Note_on_c, 0, 71, 0
2, 181854, Note_on_c, 0, 35, 0
2, 181925, Note_on_c, 0, 64, 106
2, 181927, Note_on_c, 0, 52, 101
2, 181927, Note_on_c, 0, 40, 95
2, 181928, Note_on_c, 0, 28, 95
2, 181963, Note_on_c, 0, 52, 0
2, 181966, Note_on_c, 0, 64, 0
2, 181972, Note_on_c, 0, 40, 0
2, 181974, Note_on_c, 0, 28, 0
2, 182089, Note_on_c, 0, 65, 94
2, 182090, Note_on_c, 0, 41, 99
2, 182091, Note_on_c, 0, 53, 95
2, 182093, Note_on_c, 0, 29, 100
2, 182119, Note_on_c, 0, 53, 0
2, 182120, Note_on_c, 0, 65, 0
2, 182122, Note_on_c, 0, 41, 0
2, 182126, Note_on_c, 0, 29, 0
2, 182178, Note_on_c, 0, 66, 112
2, 182181, Note_on_c, 0, 54, 101
2, 182184, Note_on_c, 0, 30, 99
2, 182186, Note_on_c, 0, 42, 107
2, 182277, Control_c, 0, 64, 127
2, 182361, Note_on_c, 0, 30, 0
2, 182369, Note_on_c, 0, 42, 0
2, 182373, Note_on_c, 0, 30, 76
2, 182373, Note_on_c, 0, 42, 83
2, 182399, Control_c, 0, 64, 0
2, 182405, Note_on_c, 0, 30, 0
2, 182407, Note_on_c, 0, 66, 0
2, 182430, Note_on_c, 0, 54, 0
2, 182446, Note_on_c, 0, 42, 0
2, 182477, Note_on_c, 0, 88, 110
2, 182478, Note_on_c, 0, 76, 108
2, 182509, Note_on_c, 0, 76, 0
2, 182512, Note_on_c, 0, 88, 0
2, 182657, Note_on_c, 0, 90, 113
2, 182658, Note_on_c, 0, 78, 111
2, 182722, Note_on_c, 0, 78, 0
2, 182737, Note_on_c, 0, 90, 0
2, 182818, Note_on_c, 0, 88, 107
2, 182819, Note_on_c, 0, 76, 96
2, 182843, Note_on_c, 0, 76, 0
2, 182891, Note_on_c, 0, 88, 0
2, 182902, Note_on_c, 0, 90, 115
2, 182903, Note_on_c, 0, 78, 111
2, 182976, Note_on_c, 0, 78, 0
2, 183060, Note_on_c, 0, 90, 0
2, 183070, Note_on_c, 0, 90, 110
2, 183091, Control_c, 0, 64, 127
2, 183155, Note_on_c, 0, 93, 114
2, 183156, Note_on_c, 0, 81, 108
2, 183313, Note_on_c, 0, 90, 0
2, 183319, Note_on_c, 0, 90, 112
2, 183324, Note_on_c, 0, 78, 109
2, 183328, Note_on_c, 0, 72, 102
2, 183338, Note_on_c, 0, 71, 95
2, 183349, Note_on_c, 0, 69, 87
2, 183369, Note_on_c, 0, 67, 76
2, 183386, Note_on_c, 0, 65, 67
2, 183387, Note_on_c, 0, 64, 66
2, 183394, Note_on_c, 0, 62, 50
2, 183418, Note_on_c, 0, 60, 87
2, 183422, Note_on_c, 0, 59, 91
2, 183427, Note_on_c, 0, 57, 95
2, 183434, Note_on_c, 0, 61, 90
2, 183440, Note_on_c, 0, 55, 92
2, 183451, Note_on_c, 0, 56, 80
2, 183453, Note_on_c, 0, 52, 86
2, 183453, Note_on_c, 0, 53, 97
2, 183463, Note_on_c, 0, 48, 83
2, 183466, Note_on_c, 0, 50, 73
2, 183607, Control_c, 0, 64, 0
2, 183612, Note_on_c, 0, 71, 0
2, 183612, Note_on_c, 0, 64, 0
2, 183612, Note_on_c, 0, 67, 0
2, 183612, Note_on_c, 0, 69, 0
2, 183612, Note_on_c, 0, 78, 0
2, 183613, Note_on_c, 0, 52, 0
2, 183613, Note_on_c, 0, 57, 0
2, 183613, Note_on_c, 0, 81, 0
2, 183613, Note_on_c, 0, 50, 0
2, 183613, Note_on_c, 0, 53, 0
2, 183613, Note_on_c, 0, 55, 0
2, 183613, Note_on_c, 0, 48, 0
2, 183613, Note_on_c, 0, 60, 0
2, 183614, Note_on_c, 0, 90, 0
2, 183614, Note_on_c, 0, 59, 0
2, 183614, Note_on_c, 0, 72, 0
2, 183614, Note_on_c, 0, 65, 0
2, 183615, Note_on_c, 0, 62, 0
2, 183621, Note_on_c, 0, 61, 0
2, 183628, Note_on_c, 0, 56, 0
2, 183628, Note_on_c, 0, 93, 0
2, 183673, Note_on_c, 0, 44, 104
2, 183673, Note_on_c, 0, 70, 105
2, 183675, Note_on_c, 0, 32, 93
2, 183675, Note_on_c, 0, 66, 101
2, 183697, Control_c, 0, 64, 127
2, 183751, Note_on_c, 0, 44, 0
2, 183751, Note_on_c, 0, 66, 0
2, 183751, Note_on_c, 0, 70, 0
2, 183757, Note_on_c, 0, 66, 100
2, 183759, Note_on_c, 0, 44, 76
2, 183759, Note_on_c, 0, 70, 96
2, 183851, Note_on_c, 0, 70, 0
2, 183859, Note_on_c, 0, 44, 0
2, 183860, Control_c, 0, 64, 0
2, 183861, Note_on_c, 0, 70, 101
2, 183863, Note_on_c, 0, 66, 0
2, 183865, Note_on_c, 0, 44, 94
2, 183889, Note_on_c, 0, 32, 0
2, 183928, Note_on_c, 0, 70, 0
2, 183936, Note_on_c, 0, 44, 0
2, 184019, Note_on_c, 0, 70, 103
2, 184020, Note_on_c, 0, 59, 97
2, 184025, Note_on_c, 0, 51, 88
2, 184028, Note_on_c, 0, 54, 88
2, 184056, Note_on_c, 0, 59, 0
2, 184089, Note_on_c, 0, 54, 0
2, 184097, Note_on_c, 0, 51, 0
2, 184109, Note_on_c, 0, 71, 97
2, 184150, Note_on_c, 0, 70, 0
2, 184184, Note_on_c, 0, 37, 98
2, 184201, Note_on_c, 0, 71, 0
2, 184243, Control_c, 0, 64, 127
2, 184276, Note_on_c, 0, 49, 92
2, 184277, Note_on_c, 0, 73, 107
2, 184287, Note_on_c, 0, 68, 99
2, 184290, Note_on_c, 0, 65, 92
2, 184442, Note_on_c, 0, 65, 0
2, 184442, Note_on_c, 0, 73, 0
2, 184446, Note_on_c, 0, 73, 86
2, 184447, Note_on_c, 0, 65, 75
2, 184458, Note_on_c, 0, 68, 0
2, 184466, Note_on_c, 0, 68, 75
2, 184530, Note_on_c, 0, 44, 90
2, 184543, Note_on_c, 0, 71, 106
2, 184546, Note_on_c, 0, 51, 81
2, 184554, Note_on_c, 0, 61, 84
2, 184716, Note_on_c, 0, 53, 98
2, 184719, Note_on_c, 0, 61, 0
2, 184723, Note_on_c, 0, 70, 102
2, 184727, Note_on_c, 0, 65, 0
2, 184728, Note_on_c, 0, 61, 71
2, 184733, Note_on_c, 0, 65, 76
2, 184872, Note_on_c, 0, 49, 0
2, 184879, Note_on_c, 0, 37, 0
2, 184880, Note_on_c, 0, 66, 100
2, 184884, Note_on_c, 0, 49, 75
2, 184949, Control_c, 0, 64, 0
2, 184954, Note_on_c, 0, 65, 0
2, 184954, Note_on_c, 0, 53, 0
2, 184954, Note_on_c, 0, 49, 0
2, 184954, Note_on_c, 0, 51, 0
2, 184954, Note_on_c, 0, 73, 0
2, 184954, Note_on_c, 0, 71, 0
2, 184954, Note_on_c, 0, 66, 0
2, 184955, Note_on_c, 0, 61, 0
2, 184955, Note_on_c, 0, 70, 0
2, 184955, Note_on_c, 0, 44, 0
2, 184972, Note_on_c, 0, 68, 0
2, 185048, Note_on_c, 0, 70, 102
2, 185050, Note_on_c, 0, 46, 98
2, 185050, Note_on_c, 0, 34, 91
2, 185053, Note_on_c, 0, 61, 86
2, 185080, Control_c, 0, 64, 127
2, 185118, Note_on_c, 0, 61, 0
2, 185118, Note_on_c, 0, 70, 0
2, 185126, Note_on_c, 0, 46, 0
2, 185129, Note_on_c, 0, 70, 101
2, 185130, Note_on_c, 0, 61, 94
2, 185130, Note_on_c, 0, 58, 95
2, 185130, Note_on_c, 0, 46, 91
2, 185130, Note_on_c, 0, 65, 92
2, 185218, Note_on_c, 0, 46, 0
2, 185218, Note_on_c, 0, 58, 0
2, 185218, Note_on_c, 0, 61, 0
2, 185218, Note_on_c, 0, 65, 0
2, 185226, Note_on_c, 0, 70, 0
2, 185229, Note_on_c, 0, 46, 93
2, 185229, Note_on_c, 0, 61, 90
2, 185229, Note_on_c, 0, 65, 92
2, 185229, Note_on_c, 0, 58, 93
2, 185233, Note_on_c, 0, 70, 89
2, 185316, Control_c, 0, 64, 0
2, 185322, Note_on_c, 0, 34, 0
2, 185325, Note_on_c, 0, 70, 0
2, 185326, Note_on_c, 0, 61, 0
2, 185328, Note_on_c, 0, 65, 0
2, 185328, Note_on_c, 0, 46, 0
2, 185349, Note_on_c, 0, 58, 0
2, 185391, Note_on_c, 0, 70, 102
2, 185408, Note_on_c, 0, 56, 87
2, 185409, Note_on_c, 0, 53, 86
2, 185410, Control_c, 0, 64, 127
2, 185475, Note_on_c, 0, 71, 102
2, 185506, Note_on_c, 0, 46, 94
2, 185604, Note_on_c, 0, 56, 0
2, 185606, Note_on_c, 0, 46, 0
2, 185606, Note_on_c, 0, 70, 0
2, 185606, Control_c, 0, 64, 0
2, 185606, Note_on_c, 0, 71, 0
2, 185606, Note_on_c, 0, 53, 0
2, 185627, Note_on_c, 0, 39, 101
2, 185644, Note_on_c, 0, 51, 98
2, 185650, Note_on_c, 0, 82, 109
2, 185651, Note_on_c, 0, 70, 109
2, 185654, Note_on_c, 0, 78, 93
2, 185679, Control_c, 0, 64, 127
2, 185827, Note_on_c, 0, 46, 90
2, 185832, Note_on_c, 0, 82, 0
2, 185840, Note_on_c, 0, 70, 0
2, 185843, Note_on_c, 0, 82, 100
2, 185847, Note_on_c, 0, 70, 85
2, 185919, Note_on_c, 0, 53, 94
2, 185940, Note_on_c, 0, 46, 0
2, 185944, Note_on_c, 0, 83, 109
2, 185945, Note_on_c, 0, 46, 53
2, 185947, Note_on_c, 0, 71, 99
2, 186101, Note_on_c, 0, 46, 0
2, 186105, Note_on_c, 0, 54, 94
2, 186105, Note_on_c, 0, 46, 95
2, 186109, Note_on_c, 0, 70, 0
2, 186109, Note_on_c, 0, 82, 0
2, 186113, Note_on_c, 0, 82, 106
2, 186113, Note_on_c, 0, 70, 105
2, 186263, Note_on_c, 0, 39, 0
2, 186263, Note_on_c, 0, 83, 0
2, 186267, Note_on_c, 0, 39, 94
2, 186270, Note_on_c, 0, 71, 0
2, 186274, Note_on_c, 0, 83, 107
2, 186275, Note_on_c, 0, 71, 99
2, 186348, Note_on_c, 0, 78, 0
2, 186348, Note_on_c, 0, 53, 0
2, 186349, Note_on_c, 0, 82, 0
2, 186349, Note_on_c, 0, 71, 0
2, 186350, Note_on_c, 0, 46, 0
2, 186350, Note_on_c, 0, 54, 0
2, 186350, Note_on_c, 0, 70, 0
2, 186351, Note_on_c, 0, 39, 0
2, 186351, Note_on_c, 0, 51, 0
2, 186351, Control_c, 0, 64, 0
2, 186362, Note_on_c, 0, 83, 0
2, 186438, Note_on_c, 0, 82, 108
2, 186443, Note_on_c, 0, 70, 98
2, 186443, Note_on_c, 0, 44, 102
2, 186443, Note_on_c, 0, 32, 94
2, 186455, Control_c, 0, 64, 127
2, 186529, Note_on_c, 0, 80, 105
2, 186530, Note_on_c, 0, 68, 108
2, 186608, Note_on_c, 0, 44, 0
2, 186612, Note_on_c, 0, 78, 101
2, 186615, Note_on_c, 0, 44, 86
2, 186618, Note_on_c, 0, 66, 108
2, 186780, Note_on_c, 0, 59, 104
2, 186784, Note_on_c, 0, 54, 93
2, 186785, Note_on_c, 0, 44, 0
2, 186786, Note_on_c, 0, 75, 95
2, 186787, Note_on_c, 0, 71, 90
2, 186788, Note_on_c, 0, 51, 82
2, 186792, Note_on_c, 0, 44, 83
2, 186946, Note_on_c, 0, 71, 0
2, 186950, Note_on_c, 0, 71, 90
2, 186994, Note_on_c, 0, 32, 0
2, 186996, Note_on_c, 0, 82, 0
2, 186996, Note_on_c, 0, 44, 0
2, 186996, Note_on_c, 0, 75, 0
2, 186996, Note_on_c, 0, 80, 0
2, 186997, Note_on_c, 0, 51, 0
2, 186997, Control_c, 0, 64, 0
2, 186997, Note_on_c, 0, 66, 0
2, 186997, Note_on_c, 0, 68, 0
2, 186997, Note_on_c, 0, 70, 0
2, 186997, Note_on_c, 0, 54, 0
2, 186998, Note_on_c, 0, 78, 0
2, 187000, Note_on_c, 0, 59, 0
2, 187003, Note_on_c, 0, 71, 0
2, 187049, Note_on_c, 0, 46, 101
2, 187049, Note_on_c, 0, 73, 99
2, 187050, Note_on_c, 0, 68, 92
2, 187050, Note_on_c, 0, 34, 100
2, 187077, Control_c, 0, 64, 127
2, 187230, Note_on_c, 0, 68, 0
2, 187230, Note_on_c, 0, 73, 0
2, 187241, Note_on_c, 0, 73, 85
2, 187241, Note_on_c, 0, 68, 77
2, 187284, Note_on_c, 0, 46, 0
2, 187289, Note_on_c, 0, 58, 75
2, 187293, Note_on_c, 0, 46, 81
2, 187392, Note_on_c, 0, 68, 0
2, 187392, Note_on_c, 0, 73, 0
2, 187397, Note_on_c, 0, 73, 80
2, 187400, Note_on_c, 0, 68, 80
2, 187403, Note_on_c, 0, 54, 74
2, 187476, Note_on_c, 0, 68, 0
2, 187476, Note_on_c, 0, 73, 0
2, 187481, Note_on_c, 0, 53, 88
2, 187486, Note_on_c, 0, 73, 100
2, 187487, Note_on_c, 0, 68, 100
2, 187488, Note_on_c, 0, 61, 100
2, 187488, Note_on_c, 0, 56, 97
2, 187489, Note_on_c, 0, 65, 88
2, 187645, Note_on_c, 0, 46, 0
2, 187645, Note_on_c, 0, 58, 0
2, 187645, Note_on_c, 0, 73, 0
2, 187654, Note_on_c, 0, 58, 82
2, 187654, Note_on_c, 0, 73, 99
2, 187656, Note_on_c, 0, 46, 83
2, 187729, Note_on_c, 0, 68, 0
2, 187734, Note_on_c, 0, 80, 109
2, 187736, Note_on_c, 0, 68, 103
2, 187780, Control_c, 0, 64, 0
2, 187781, Note_on_c, 0, 34, 0
2, 187786, Note_on_c, 0, 54, 0
2, 187786, Note_on_c, 0, 56, 0
2, 187787, Note_on_c, 0, 61, 0
2, 187787, Note_on_c, 0, 65, 0
2, 187788, Note_on_c, 0, 53, 0
2, 187799, Note_on_c, 0, 58, 0
2, 187806, Note_on_c, 0, 46, 0
2, 187843, Note_on_c, 0, 39, 93
2, 187845, Note_on_c, 0, 51, 98
2, 187860, Control_c, 0, 64, 127
2, 187929, Note_on_c, 0, 68, 0
2, 187940, Note_on_c, 0, 68, 53
2, 188024, Note_on_c, 0, 78, 108
2, 188024, Note_on_c, 0, 66, 99
2, 188030, Note_on_c, 0, 46, 87
2, 188082, Control_c, 0, 64, 0
2, 188086, Note_on_c, 0, 68, 0
2, 188087, Note_on_c, 0, 80, 0
2, 188088, Note_on_c, 0, 39, 0
2, 188088, Note_on_c, 0, 46, 0
2, 188091, Note_on_c, 0, 51, 0
2, 188091, Note_on_c, 0, 66, 0
2, 188098, Note_on_c, 0, 73, 0
2, 188106, Note_on_c, 0, 78, 0
2, 188178, Note_on_c, 0, 80, 105
2, 188179, Note_on_c, 0, 68, 106
2, 188182, Note_on_c, 0, 50, 98
2, 188183, Control_c, 0, 64, 127
2, 188185, Note_on_c, 0, 38, 98
2, 188349, Note_on_c, 0, 78, 103
2, 188354, Note_on_c, 0, 66, 88
2, 188395, Note_on_c, 0, 80, 0
2, 188395, Note_on_c, 0, 50, 0
2, 188396, Note_on_c, 0, 38, 0
2, 188396, Note_on_c, 0, 66, 0
2, 188396, Note_on_c, 0, 68, 0
2, 188396, Control_c, 0, 64, 0
2, 188401, Note_on_c, 0, 78, 0
2, 188452, Note_on_c, 0, 80, 103
2, 188452, Note_on_c, 0, 49, 101
2, 188454, Note_on_c, 0, 37, 96
2, 188454, Note_on_c, 0, 68, 95
2, 188467, Control_c, 0, 64, 127
2, 188622, Note_on_c, 0, 70, 104
2, 188623, Note_on_c, 0, 82, 110
2, 188651, Note_on_c, 0, 37, 0
2, 188651, Note_on_c, 0, 49, 0
2, 188657, Note_on_c, 0, 49, 74
2, 188661, Note_on_c, 0, 37, 74
2, 188789, Note_on_c, 0, 70, 0
2, 188789, Note_on_c, 0, 82, 0
2, 188794, Note_on_c, 0, 82, 102
2, 188795, Note_on_c, 0, 70, 94
2, 188797, Note_on_c, 0, 30, 94
2, 188800, Note_on_c, 0, 42, 92
2, 188875, Note_on_c, 0, 83, 110
2, 188875, Note_on_c, 0, 71, 105
2, 188889, Note_on_c, 0, 42, 0
2, 188893, Note_on_c, 0, 42, 99
2, 188894, Note_on_c, 0, 54, 102
2, 189035, Note_on_c, 0, 82, 0
2, 189043, Note_on_c, 0, 42, 0
2, 189043, Note_on_c, 0, 70, 0
2, 189047, Note_on_c, 0, 82, 109
2, 189048, Note_on_c, 0, 70, 106
2, 189053, Note_on_c, 0, 42, 75
2, 189121, Note_on_c, 0, 68, 0
2, 189123, Note_on_c, 0, 80, 0
2, 189124, Note_on_c, 0, 49, 0
2, 189124, Note_on_c, 0, 83, 0
2, 189124, Note_on_c, 0, 71, 0
2, 189124, Note_on_c, 0, 37, 0
2, 189124, Note_on_c, 0, 30, 0
2, 189124, Note_on_c, 0, 42, 0
2, 189124, Note_on_c, 0, 54, 0
2, 189125, Note_on_c, 0, 70, 0
2, 189129, Control_c, 0, 64, 0
2, 189143, Note_on_c, 0, 82, 0
2, 189218, Note_on_c, 0, 78, 114
2, 189222, Note_on_c, 0, 44, 102
2, 189223, Note_on_c, 0, 32, 96
2, 189223, Note_on_c, 0, 66, 108
2, 189225, Note_on_c, 0, 75, 83
2, 189250, Control_c, 0, 64, 127
2, 189388, Note_on_c, 0, 44, 0
2, 189388, Note_on_c, 0, 75, 0
2, 189392, Note_on_c, 0, 71, 79
2, 189394, Note_on_c, 0, 75, 80
2, 189396, Note_on_c, 0, 32, 0
2, 189399, Note_on_c, 0, 44, 88
2, 189405, Note_on_c, 0, 32, 75
2, 189564, Note_on_c, 0, 59, 103
2, 189565, Note_on_c, 0, 71, 0
2, 189565, Note_on_c, 0, 75, 0
2, 189570, Note_on_c, 0, 71, 90
2, 189575, Note_on_c, 0, 75, 91
2, 189575, Note_on_c, 0, 51, 85
2, 189576, Note_on_c, 0, 54, 90
2, 189649, Note_on_c, 0, 75, 0
2, 189657, Note_on_c, 0, 71, 0
2, 189661, Note_on_c, 0, 75, 92
2, 189663, Note_on_c, 0, 71, 68
2, 189747, Note_on_c, 0, 37, 91
2, 189749, Note_on_c, 0, 49, 84
2, 189749, Note_on_c, 0, 32, 0
2, 189756, Control_c, 0, 64, 0
2, 189757, Note_on_c, 0, 49, 0
2, 189759, Note_on_c, 0, 66, 0
2, 189760, Note_on_c, 0, 78, 0
2, 189760, Note_on_c, 0, 71, 0
2, 189760, Note_on_c, 0, 54, 0
2, 189761, Note_on_c, 0, 44, 0
2, 189761, Note_on_c, 0, 51, 0
2, 189761, Note_on_c, 0, 59, 0
2, 189780, Note_on_c, 0, 75, 0
2, 189828, Note_on_c, 0, 49, 90
2, 189829, Note_on_c, 0, 73, 99
2, 189829, Note_on_c, 0, 68, 97
2, 189831, Note_on_c, 0, 61, 93
2, 189834, Control_c, 0, 64, 127
2, 189841, Note_on_c, 0, 61, 0
2, 190003, Note_on_c, 0, 68, 0
2, 190003, Note_on_c, 0, 73, 0
2, 190009, Note_on_c, 0, 73, 88
2, 190013, Note_on_c, 0, 68, 96
2, 190029, Note_on_c, 0, 44, 82
2, 190087, Note_on_c, 0, 68, 0
2, 190087, Note_on_c, 0, 73, 0
2, 190096, Note_on_c, 0, 68, 104
2, 190098, Note_on_c, 0, 73, 93
2, 190114, Note_on_c, 0, 51, 86
2, 190272, Note_on_c, 0, 44, 0
2, 190281, Note_on_c, 0, 53, 99
2, 190282, Note_on_c, 0, 44, 82
2, 190283, Note_on_c, 0, 75, 103
2, 190287, Note_on_c, 0, 66, 104
2, 190371, Note_on_c, 0, 66, 0
2, 190376, Note_on_c, 0, 78, 111
2, 190381, Note_on_c, 0, 66, 101
2, 190387, Note_on_c, 0, 68, 0
2, 190394, Note_on_c, 0, 75, 0
2, 190397, Note_on_c, 0, 68, 76
2, 190403, Note_on_c, 0, 75, 56
2, 190433, Note_on_c, 0, 37, 0
2, 190437, Note_on_c, 0, 37, 95
2, 190556, Note_on_c, 0, 66, 0
2, 190556, Note_on_c, 0, 78, 0
2, 190560, Control_c, 0, 64, 0
2, 190561, Note_on_c, 0, 78, 111
2, 190562, Note_on_c, 0, 49, 0
2, 190564, Note_on_c, 0, 37, 0
2, 190564, Note_on_c, 0, 44, 0
2, 190564, Note_on_c, 0, 51, 0
2, 190564, Note_on_c, 0, 68, 0
2, 190565, Note_on_c, 0, 53, 0
2, 190565, Note_on_c, 0, 73, 0
2, 190566, Note_on_c, 0, 66, 105
2, 190622, Note_on_c, 0, 46, 103
2, 190625, Note_on_c, 0, 34, 100
2, 190648, Control_c, 0, 64, 127
2, 190801, Note_on_c, 0, 34, 0
2, 190801, Note_on_c, 0, 46, 0
2, 190809, Note_on_c, 0, 46, 99
2, 190811, Note_on_c, 0, 61, 103
2, 190811, Note_on_c, 0, 73, 105
2, 190812, Note_on_c, 0, 34, 83
2, 190963, Note_on_c, 0, 61, 0
2, 190963, Note_on_c, 0, 66, 0
2, 190963, Note_on_c, 0, 78, 0
2, 190968, Note_on_c, 0, 78, 107
2, 190973, Note_on_c, 0, 66, 103
2, 190973, Note_on_c, 0, 61, 82
2, 190974, Note_on_c, 0, 56, 93
2, 190974, Note_on_c, 0, 53, 97
2, 191056, Note_on_c, 0, 80, 106
2, 191060, Note_on_c, 0, 68, 97
2, 191143, Control_c, 0, 64, 0
2, 191146, Note_on_c, 0, 39, 92
2, 191147, Note_on_c, 0, 34, 0
2, 191148, Note_on_c, 0, 66, 0
2, 191148, Note_on_c, 0, 78, 0
2, 191150, Note_on_c, 0, 46, 0
2, 191150, Note_on_c, 0, 61, 0
2, 191150, Note_on_c, 0, 68, 0
2, 191150, Note_on_c, 0, 56, 0
2, 191150, Note_on_c, 0, 53, 0
2, 191150, Note_on_c, 0, 80, 0
2, 191151, Note_on_c, 0, 73, 0
2, 191155, Note_on_c, 0, 75, 0
2, 191232, Note_on_c, 0, 39, 0
2, 191235, Note_on_c, 0, 66, 106
2, 191236, Note_on_c, 0, 78, 109
2, 191236, Note_on_c, 0, 63, 85
2, 191241, Note_on_c, 0, 46, 89
2, 191242, Note_on_c, 0, 39, 91
2, 191243, Note_on_c, 0, 51, 92
2, 191243, Note_on_c, 0, 75, 72
2, 191247, Control_c, 0, 64, 127
2, 191531, Note_on_c, 0, 66, 0
2, 191531, Note_on_c, 0, 75, 0
2, 191534, Note_on_c, 0, 53, 101
2, 191536, Note_on_c, 0, 70, 96
2, 191537, Note_on_c, 0, 66, 99
2, 191539, Note_on_c, 0, 75, 104
2, 191700, Note_on_c, 0, 46, 0
2, 191700, Note_on_c, 0, 66, 0
2, 191700, Note_on_c, 0, 78, 0
2, 191705, Note_on_c, 0, 46, 94
2, 191707, Note_on_c, 0, 54, 95
2, 191708, Note_on_c, 0, 78, 109
2, 191711, Note_on_c, 0, 66, 104
2, 191711, Note_on_c, 0, 34, 88
2, 191861, Note_on_c, 0, 66, 0
2, 191861, Note_on_c, 0, 78, 0
2, 191865, Note_on_c, 0, 66, 101
2, 191866, Note_on_c, 0, 78, 103
2, 191869, Note_on_c, 0, 39, 0
2, 191875, Note_on_c, 0, 39, 79
2, 191949, Note_on_c, 0, 80, 109
2, 191951, Note_on_c, 0, 68, 109
2, 191961, Note_on_c, 0, 78, 0
2, 191970, Note_on_c, 0, 78, 84
2, 191979, Control_c, 0, 64, 0
2, 191981, Note_on_c, 0, 46, 0
2, 191981, Note_on_c, 0, 51, 0
2, 191981, Note_on_c, 0, 39, 0
2, 191981, Note_on_c, 0, 53, 0
2, 191982, Note_on_c, 0, 75, 0
2, 191982, Note_on_c, 0, 70, 0
2, 191982, Note_on_c, 0, 66, 0
2, 191982, Note_on_c, 0, 34, 0
2, 191984, Note_on_c, 0, 63, 0
2, 191992, Note_on_c, 0, 54, 0
2, 192044, Note_on_c, 0, 32, 94
2, 192045, Note_on_c, 0, 44, 101
2, 192070, Note_on_c, 0, 68, 0
2, 192073, Note_on_c, 0, 44, 0
2, 192077, Note_on_c, 0, 80, 0
2, 192092, Note_on_c, 0, 78, 0
2, 192107, Note_on_c, 0, 32, 0
2, 192153, Control_c, 0, 64, 127
2, 192226, Note_on_c, 0, 78, 113
2, 192233, Note_on_c, 0, 66, 109
2, 192236, Note_on_c, 0, 44, 88
2, 192240, Note_on_c, 0, 32, 80
2, 192394, Note_on_c, 0, 59, 106
2, 192395, Note_on_c, 0, 54, 95
2, 192403, Note_on_c, 0, 51, 89
2, 192407, Note_on_c, 0, 44, 0
2, 192411, Note_on_c, 0, 44, 75
2, 192566, Note_on_c, 0, 37, 99
2, 192569, Note_on_c, 0, 49, 92
2, 192572, Control_c, 0, 64, 0
2, 192576, Note_on_c, 0, 49, 0
2, 192579, Note_on_c, 0, 66, 0
2, 192580, Note_on_c, 0, 51, 0
2, 192580, Note_on_c, 0, 44, 0
2, 192580, Note_on_c, 0, 78, 0
2, 192580, Note_on_c, 0, 59, 0
2, 192580, Note_on_c, 0, 54, 0
2, 192591, Note_on_c, 0, 32, 0
2, 192645, Note_on_c, 0, 37, 0
2, 192652, Control_c, 0, 64, 127
2, 192653, Note_on_c, 0, 49, 93
2, 192656, Note_on_c, 0, 82, 110
2, 192656, Note_on_c, 0, 37, 83
2, 192657, Note_on_c, 0, 70, 105
2, 192659, Note_on_c, 0, 78, 91
2, 192806, Note_on_c, 0, 37, 0
2, 192814, Note_on_c, 0, 49, 0
2, 192816, Note_on_c, 0, 37, 77
2, 192818, Note_on_c, 0, 49, 76
2, 192875, Note_on_c, 0, 37, 0
2, 192875, Note_on_c, 0, 49, 0
2, 192883, Note_on_c, 0, 49, 97
2, 192885, Note_on_c, 0, 37, 87
2, 192886, Note_on_c, 0, 44, 94
2, 192938, Note_on_c, 0, 83, 112
2, 192940, Note_on_c, 0, 71, 107
2, 192980, Control_c, 0, 64, 0
2, 192989, Note_on_c, 0, 82, 0
2, 192990, Note_on_c, 0, 70, 0
2, 192991, Note_on_c, 0, 78, 0
2, 192991, Note_on_c, 0, 49, 0
2, 192991, Note_on_c, 0, 71, 0
2, 192993, Note_on_c, 0, 83, 0
2, 192993, Note_on_c, 0, 44, 0
2, 192994, Note_on_c, 0, 37, 0
2, 193082, Control_c, 0, 64, 127
2, 193087, Note_on_c, 0, 82, 113
2, 193093, Note_on_c, 0, 70, 107
2, 193094, Note_on_c, 0, 49, 91
2, 193095, Note_on_c, 0, 37, 101
2, 193179, Note_on_c, 0, 80, 106
2, 193181, Note_on_c, 0, 68, 109
2, 193259, Note_on_c, 0, 78, 110
2, 193261, Note_on_c, 0, 66, 109
2, 193291, Note_on_c, 0, 70, 0
2, 193292, Note_on_c, 0, 68, 0
2, 193292, Note_on_c, 0, 37, 0
2, 193292, Note_on_c, 0, 82, 0
2, 193293, Control_c, 0, 64, 0
2, 193293, Note_on_c, 0, 80, 0
2, 193294, Note_on_c, 0, 66, 0
2, 193299, Note_on_c, 0, 78, 0
2, 193305, Note_on_c, 0, 49, 0
2, 193439, Note_on_c, 0, 78, 110
2, 193440, Note_on_c, 0, 66, 106
2, 193443, Note_on_c, 0, 42, 104
2, 193445, Note_on_c, 0, 30, 100
2, 193466, Control_c, 0, 64, 127
2, 193586, Note_on_c, 0, 78, 0
2, 193587, Note_on_c, 0, 66, 0
2, 193587, Note_on_c, 0, 30, 0
2, 193590, Note_on_c, 0, 42, 0
2, 193592, Control_c, 0, 64, 0
2, 193807, Note_on_c, 0, 57, 108
2, 193810, Note_on_c, 0, 45, 108
2, 193814, Note_on_c, 0, 33, 102
2, 193843, Control_c, 0, 64, 127
2, 193869, Control_c, 0, 64, 0
2, 193881, Note_on_c, 0, 57, 0
2, 193927, Note_on_c, 0, 45, 0
2, 193958, Note_on_c, 0, 33, 0
2, 194137, Note_on_c, 0, 47, 105
2, 194138, Note_on_c, 0, 59, 109
2, 194138, Note_on_c, 0, 35, 95
2, 194158, Control_c, 0, 64, 127
2, 194186, Control_c, 0, 64, 0
2, 194196, Control_c, 0, 64, 127
2, 194311, Note_on_c, 0, 47, 0
2, 194311, Control_c, 0, 64, 0
2, 194313, Note_on_c, 0, 59, 0
2, 194315, Note_on_c, 0, 28, 86
2, 194316, Note_on_c, 0, 40, 91
2, 194317, Note_on_c, 0, 52, 90
2, 194327, Note_on_c, 0, 35, 0
2, 194354, Note_on_c, 0, 52, 0
2, 194357, Note_on_c, 0, 28, 0
2, 194359, Note_on_c, 0, 40, 0
2, 194493, Note_on_c, 0, 41, 84
2, 194494, Note_on_c, 0, 29, 85
2, 194498, Note_on_c, 0, 52, 87
2, 194565, Note_on_c, 0, 41, 0
2, 194572, Note_on_c, 0, 29, 0
2, 194576, Note_on_c, 0, 53, 101
2, 194576, Note_on_c, 0, 41, 97
2, 194577, Note_on_c, 0, 29, 99
2, 194622, Note_on_c, 0, 41, 0
2, 194623, Note_on_c, 0, 29, 0
2, 194625, Note_on_c, 0, 53, 0
2, 194626, Note_on_c, 0, 52, 0
2, 194760, Note_on_c, 0, 42, 108
2, 194760, Note_on_c, 0, 54, 107
2, 194761, Note_on_c, 0, 30, 104
2, 194807, Note_on_c, 0, 30, 0
2, 194807, Note_on_c, 0, 54, 0
2, 194807, Note_on_c, 0, 42, 0
2, 195055, Note_on_c, 0, 66, 98
2, 195096, Note_on_c, 0, 71, 99
2, 195113, Note_on_c, 0, 66, 0
2, 195115, Note_on_c, 0, 73, 105
2, 195124, Note_on_c, 0, 78, 105
2, 195171, Note_on_c, 0, 71, 0
2, 195233, Note_on_c, 0, 73, 0
2, 195264, Note_on_c, 0, 78, 0
2, 195272, Note_on_c, 0, 78, 114
2, 195272, Note_on_c, 0, 85, 99
2, 195274, Note_on_c, 0, 90, 111
2, 195276, Note_on_c, 0, 30, 99
2, 195277, Note_on_c, 0, 42, 103
2, 195278, Note_on_c, 0, 83, 97
2, 195310, Control_c, 0, 64, 127
2, 195755, Note_on_c, 0, 78, 0
2, 195761, Note_on_c, 0, 78, 51
2, 195801, Note_on_c, 0, 85, 0
2, 195801, Note_on_c, 0, 90, 0
2, 195807, Note_on_c, 0, 90, 79
2, 195812, Note_on_c, 0, 85, 60
2, 195855, Note_on_c, 0, 30, 0
2, 195863, Note_on_c, 0, 30, 68
2, 195909, Note_on_c, 0, 85, 0
2, 195909, Note_on_c, 0, 90, 0
2, 195919, Note_on_c, 0, 90, 89
2, 195919, Note_on_c, 0, 85, 76
2, 195970, Note_on_c, 0, 30, 0
2, 195977, Note_on_c, 0, 30, 64
2, 196016, Note_on_c, 0, 78, 0
2, 196016, Note_on_c, 0, 85, 0
2, 196016, Note_on_c, 0, 90, 0
2, 196022, Note_on_c, 0, 85, 87
2, 196022, Note_on_c, 0, 78, 70
2, 196025, Note_on_c, 0, 90, 82
2, 196108, Note_on_c, 0, 85, 0
2, 196108, Note_on_c, 0, 90, 0
2, 196116, Note_on_c, 0, 85, 93
2, 196119, Note_on_c, 0, 90, 95
2, 196124, Note_on_c, 0, 42, 0
2, 196130, Note_on_c, 0, 42, 65
2, 196177, Note_on_c, 0, 78, 0
2, 196182, Note_on_c, 0, 78, 80
2, 196208, Note_on_c, 0, 85, 0
2, 196208, Note_on_c, 0, 90, 0
2, 196212, Note_on_c, 0, 90, 100
2, 196216, Note_on_c, 0, 85, 92
2, 196224, Note_on_c, 0, 42, 0
2, 196234, Note_on_c, 0, 42, 70
2, 196239, Note_on_c, 0, 30, 0
2, 196246, Note_on_c, 0, 30, 65
2, 196316, Note_on_c, 0, 85, 0
2, 196316, Note_on_c, 0, 90, 0
2, 196322, Note_on_c, 0, 85, 101
2, 196326, Note_on_c, 0, 90, 91
2, 196354, Note_on_c, 0, 42, 0
2, 196362, Note_on_c, 0, 42, 68
2, 196423, Note_on_c, 0, 90, 0
2, 196431, Note_on_c, 0, 85, 0
2, 196434, Note_on_c, 0, 90, 95
2, 196435, Note_on_c, 0, 85, 78
2, 196485, Note_on_c, 0, 78, 0
2, 196496, Note_on_c, 0, 78, 84
2, 196538, Note_on_c, 0, 85, 0
2, 196542, Note_on_c, 0, 85, 95
2, 196546, Note_on_c, 0, 90, 0
2, 196551, Note_on_c, 0, 90, 88
2, 196592, Note_on_c, 0, 78, 0
2, 196602, Note_on_c, 0, 78, 91
2, 196638, Note_on_c, 0, 85, 0
2, 196638, Note_on_c, 0, 90, 0
2, 196643, Note_on_c, 0, 85, 88
2, 196644, Note_on_c, 0, 90, 103
2, 196684, Note_on_c, 0, 78, 0
2, 196689, Note_on_c, 0, 78, 93
2, 196692, Note_on_c, 0, 83, 0
2, 196698, Note_on_c, 0, 83, 77
2, 196746, Note_on_c, 0, 90, 0
2, 196753, Note_on_c, 0, 85, 0
2, 196757, Note_on_c, 0, 90, 103
2, 196758, Note_on_c, 0, 85, 100
2, 196761, Note_on_c, 0, 30, 0
2, 196766, Note_on_c, 0, 30, 63
2, 196807, Note_on_c, 0, 78, 0
2, 196812, Note_on_c, 0, 78, 72
2, 196846, Note_on_c, 0, 85, 0
2, 196852, Note_on_c, 0, 85, 91
2, 196892, Note_on_c, 0, 83, 0
2, 196902, Note_on_c, 0, 83, 95
2, 196907, Note_on_c, 0, 30, 0
2, 196918, Note_on_c, 0, 30, 71
2, 196922, Note_on_c, 0, 42, 0
2, 196928, Note_on_c, 0, 42, 81
2, 196938, Note_on_c, 0, 90, 0
2, 196943, Note_on_c, 0, 90, 106
2, 197053, Note_on_c, 0, 42, 0
2, 197060, Note_on_c, 0, 42, 71
2, 197159, Note_on_c, 0, 76, 98
2, 197287, Note_on_c, 0, 73, 102
2, 197306, Note_on_c, 0, 42, 0
2, 197311, Note_on_c, 0, 42, 59
2, 197385, Note_on_c, 0, 72, 107
2, 197429, Note_on_c, 0, 42, 0
2, 197434, Note_on_c, 0, 42, 74
2, 197465, Note_on_c, 0, 71, 95
2, 197514, Note_on_c, 0, 30, 0
2, 197518, Note_on_c, 0, 30, 62
2, 197541, Note_on_c, 0, 69, 99
2, 197625, Note_on_c, 0, 66, 93
2, 197706, Note_on_c, 0, 30, 0
2, 197706, Note_on_c, 0, 42, 0
2, 197709, Note_on_c, 0, 65, 95
2, 197712, Note_on_c, 0, 42, 68
2, 197714, Note_on_c, 0, 30, 72
2, 197786, Note_on_c, 0, 64, 86
2, 197868, Note_on_c, 0, 61, 87
2, 197875, Control_c, 0, 64, 0
2, 197898, Note_on_c, 0, 72, 0
2, 197899, Note_on_c, 0, 73, 0
2, 197900, Note_on_c, 0, 69, 0
2, 197902, Note_on_c, 0, 30, 0
2, 197903, Note_on_c, 0, 66, 0
2, 197903, Note_on_c, 0, 64, 0
2, 197903, Note_on_c, 0, 42, 0
2, 197903, Note_on_c, 0, 85, 0
2, 197903, Note_on_c, 0, 65, 0
2, 197905, Note_on_c, 0, 76, 0
2, 197905, Note_on_c, 0, 90, 0
2, 197913, Note_on_c, 0, 71, 0
2, 197913, Note_on_c, 0, 78, 0
2, 197913, Note_on_c, 0, 83, 0
2, 197918, Note_on_c, 0, 61, 0
2, 197944, Note_on_c, 0, 60, 92
2, 198025, Note_on_c, 0, 59, 91
2, 198059, Note_on_c, 0, 60, 0
2, 198110, Note_on_c, 0, 57, 94
2, 198212, Note_on_c, 0, 30, 65
2, 198213, Note_on_c, 0, 42, 74
2, 198215, Note_on_c, 0, 54, 92
2, 198312, Note_on_c, 0, 59, 0
2, 198328, Note_on_c, 0, 30, 0
2, 198329, Note_on_c, 0, 53, 85
2, 198333, Note_on_c, 0, 30, 64
2, 198374, Note_on_c, 0, 30, 0
2, 198382, Note_on_c, 0, 42, 0
2, 198383, Note_on_c, 0, 30, 47
2, 198390, Note_on_c, 0, 42, 66
2, 198412, Note_on_c, 0, 54, 0
2, 198428, Note_on_c, 0, 57, 0
2, 198429, Note_on_c, 0, 53, 0
2, 198440, Note_on_c, 0, 52, 85
2, 198512, Note_on_c, 0, 52, 0
2, 198520, Note_on_c, 0, 30, 0
2, 198554, Note_on_c, 0, 49, 82
2, 198680, Note_on_c, 0, 48, 85
2, 198681, Note_on_c, 0, 49, 0
2, 198750, Note_on_c, 0, 42, 0
2, 198781, Note_on_c, 0, 48, 0
2, 198829, Note_on_c, 0, 47, 90
2, 198984, Note_on_c, 0, 45, 89
2, 198992, Note_on_c, 0, 47, 0
2, 199195, Note_on_c, 0, 45, 0
2, 199207, Note_on_c, 0, 42, 85
2, 199209, Note_on_c, 0, 30, 77
2, 199733, Control_c, 0, 64, 127
2, 199806, Note_on_c, 0, 47, 75
2, 199822, Note_on_c, 0, 48, 78
2, 199852, Note_on_c, 0, 50, 71
2, 199861, Note_on_c, 0, 52, 61
2, 199874, Note_on_c, 0, 53, 58
2, 199903, Note_on_c, 0, 57, 74
2, 199923, Note_on_c, 0, 59, 75
2, 199942, Note_on_c, 0, 60, 73
2, 199958, Note_on_c, 0, 62, 73
2, 199976, Note_on_c, 0, 64, 81
2, 199979, Note_on_c, 0, 65, 68
2, 199996, Note_on_c, 0, 67, 68
2, 200004, Note_on_c, 0, 69, 75
2, 200026, Note_on_c, 0, 72, 80
2, 200029, Note_on_c, 0, 71, 77
2, 200039, Note_on_c, 0, 74, 91
2, 200066, Note_on_c, 0, 76, 94
2, 200073, Note_on_c, 0, 79, 87
2, 200075, Note_on_c, 0, 77, 88
2, 200096, Note_on_c, 0, 81, 90
2, 200108, Note_on_c, 0, 83, 82
2, 200113, Note_on_c, 0, 52, 0
2, 200114, Note_on_c, 0, 57, 0
2, 200115, Note_on_c, 0, 48, 0
2, 200115, Note_on_c, 0, 64, 0
2, 200118, Note_on_c, 0, 50, 0
2, 200119, Note_on_c, 0, 42, 0
2, 200121, Note_on_c, 0, 60, 0
2, 200122, Note_on_c, 0, 84, 86
2, 200126, Note_on_c, 0, 74, 0
2, 200138, Note_on_c, 0, 86, 94
2, 200140, Note_on_c, 0, 53, 0
2, 200140, Note_on_c, 0, 65, 0
2, 200155, Note_on_c, 0, 88, 96
2, 200163, Note_on_c, 0, 30, 0
2, 200163, Note_on_c, 0, 47, 0
2, 200163, Note_on_c, 0, 59, 0
2, 200163, Note_on_c, 0, 62, 0
2, 200166, Note_on_c, 0, 89, 82
2, 200175, Note_on_c, 0, 91, 88
2, 200179, Note_on_c, 0, 69, 0
2, 200186, Note_on_c, 0, 71, 0
2, 200194, Note_on_c, 0, 93, 87
2, 200198, Control_c, 0, 64, 0
2, 200202, Note_on_c, 0, 95, 92
2, 200217, Note_on_c, 0, 67, 0
2, 200217, Note_on_c, 0, 76, 0
2, 200217, Note_on_c, 0, 77, 0
2, 200224, Note_on_c, 0, 96, 90
2, 200225, Note_on_c, 0, 72, 0
2, 200225, Note_on_c, 0, 79, 0
2, 200232, Note_on_c, 0, 81, 0
2, 200243, Note_on_c, 0, 98, 89
2, 200254, Note_on_c, 0, 100, 81
2, 200256, Note_on_c, 0, 83, 0
2, 200271, Note_on_c, 0, 84, 0
2, 200271, Note_on_c, 0, 89, 0
2, 200271, Note_on_c, 0, 93, 0
2, 200294, Note_on_c, 0, 91, 0
2, 200294, Note_on_c, 0, 100, 0
2, 200302, Note_on_c, 0, 86, 0
2, 200302, Note_on_c, 0, 88, 0
2, 200309, Note_on_c, 0, 95, 0
2, 200386, Note_on_c, 0, 96, 0
2, 200386, Note_on_c, 0, 98, 0
2, 200387, End_track
0, 0, End_of_file
