0, 0, Header, 1, 2, 384
1, 0, Start_track
1, 0, Tempo, 500000
1, 0, Time_signature, 4, 2, 24, 8
1, 1, End_track
2, 0, Start_track
2, 983, Control_c, 0, 64, 127
2, 1178, Note_on_c, 0, 61, 61
2, 1178, Note_on_c, 0, 80, 78
2, 1180, Note_on_c, 0, 76, 73
2, 1321, Note_on_c, 0, 68, 51
2, 1420, Note_on_c, 0, 75, 75
2, 1474, Note_on_c, 0, 68, 0
2, 1482, Note_on_c, 0, 68, 34
2, 1666, Note_on_c, 0, 76, 0
2, 1672, Note_on_c, 0, 76, 75
2, 1836, Note_on_c, 0, 78, 86
2, 2068, Note_on_c, 0, 83, 81
2, 2324, Note_on_c, 0, 81, 79
2, 2454, Note_on_c, 0, 78, 0
2, 2454, Note_on_c, 0, 68, 0
2, 2455, Note_on_c, 0, 76, 0
2, 2456, Note_on_c, 0, 61, 0
2, 2456, Note_on_c, 0, 83, 0
2, 2458, Control_c, 0, 64, 0
2, 2458, Note_on_c, 0, 81, 0
2, 2460, Note_on_c, 0, 75, 0
2, 2480, Note_on_c, 0, 80, 0
2, 2487, Note_on_c, 0, 80, 82
2, 2491, Note_on_c, 0, 57, 59
2, 2494, Note_on_c, 0, 73, 73
2, 2526, Control_c, 0, 64, 127
2, 2630, Note_on_c, 0, 64, 62
2, 2718, Note_on_c, 0, 73, 0
2, 2728, Note_on_c, 0, 73, 77
2, 2808, Note_on_c, 0, 69, 52
2, 2965, Note_on_c, 0, 76, 76
2, 3131, Note_on_c, 0, 78, 88
2, 3355, Note_on_c, 0, 83, 85
2, 3606, Note_on_c, 0, 81, 82
2, 3746, Note_on_c, 0, 78, 0
2, 3746, Control_c, 0, 64, 0
2, 3746, Note_on_c, 0, 73, 0
2, 3746, Note_on_c, 0, 69, 0
2, 3747, Note_on_c, 0, 57, 0
2, 3748, Note_on_c, 0, 64, 0
2, 3748, Note_on_c, 0, 76, 0
2, 3748, Note_on_c, 0, 83, 0
2, 3749, Note_on_c, 0, 81, 0
2, 3778, Note_on_c, 0, 80, 0
2, 3782, Note_on_c, 0, 80, 85
2, 3792, Note_on_c, 0, 52, 64
2, 3793, Note_on_c, 0, 71, 70
2, 3847, Control_c, 0, 64, 127
2, 3939, Note_on_c, 0, 59, 67
2, 4024, Note_on_c, 0, 71, 0
2, 4029, Note_on_c, 0, 71, 74
2, 4105, Note_on_c, 0, 64, 57
2, 4270, Note_on_c, 0, 75, 81
2, 4433, Note_on_c, 0, 76, 89
2, 4668, Note_on_c, 0, 78, 90
2, 4899, Note_on_c, 0, 80, 0
2, 4905, Note_on_c, 0, 80, 83
2, 4907, Note_on_c, 0, 76, 0
2, 4913, Note_on_c, 0, 76, 52
2, 5034, Note_on_c, 0, 52, 0
2, 5034, Note_on_c, 0, 71, 0
2, 5035, Note_on_c, 0, 59, 0
2, 5035, Note_on_c, 0, 64, 0
2, 5035, Note_on_c, 0, 76, 0
2, 5035, Note_on_c, 0, 75, 0
2, 5035, Note_on_c, 0, 78, 0
2, 5040, Control_c, 0, 64, 0
2, 5068, Note_on_c, 0, 80, 0
2, 5073, Note_on_c, 0, 80, 86
2, 5086, Note_on_c, 0, 54, 57
2, 5090, Note_on_c, 0, 73, 68
2, 5094, Note_on_c, 0, 70, 67
2, 5145, Control_c, 0, 64, 127
2, 5227, Note_on_c, 0, 61, 59
2, 5308, Note_on_c, 0, 78, 82
2, 5385, Note_on_c, 0, 66, 71
2, 5544, Note_on_c, 0, 73, 0
2, 5556, Note_on_c, 0, 73, 77
2, 5564, Note_on_c, 0, 68, 61
2, 5721, Note_on_c, 0, 70, 0
2, 5729, Note_on_c, 0, 70, 68
2, 6222, Note_on_c, 0, 75, 72
2, 6284, Note_on_c, 0, 76, 73
2, 6356, Note_on_c, 0, 68, 0
2, 6356, Note_on_c, 0, 80, 0
2, 6356, Note_on_c, 0, 70, 0
2, 6358, Note_on_c, 0, 54, 0
2, 6358, Control_c, 0, 64, 0
2, 6359, Note_on_c, 0, 76, 0
2, 6361, Note_on_c, 0, 75, 0
2, 6366, Note_on_c, 0, 78, 0
2, 6373, Note_on_c, 0, 78, 92
2, 6374, Note_on_c, 0, 66, 0
2, 6381, Note_on_c, 0, 57, 60
2, 6382, Note_on_c, 0, 61, 0
2, 6397, Note_on_c, 0, 73, 0
2, 6401, Note_on_c, 0, 71, 56
2, 6404, Note_on_c, 0, 73, 63
2, 6481, Control_c, 0, 64, 127
2, 6539, Note_on_c, 0, 64, 55
2, 6695, Note_on_c, 0, 69, 65
2, 6859, Note_on_c, 0, 76, 73
2, 6949, Note_on_c, 0, 75, 72
2, 7011, Note_on_c, 0, 71, 0
2, 7016, Note_on_c, 0, 71, 73
2, 7150, Note_on_c, 0, 64, 0
2, 7156, Note_on_c, 0, 64, 64
2, 7319, Note_on_c, 0, 57, 0
2, 7326, Note_on_c, 0, 57, 61
2, 7480, Note_on_c, 0, 78, 0
2, 7488, Note_on_c, 0, 78, 81
2, 7555, Note_on_c, 0, 80, 85
2, 7610, Note_on_c, 0, 69, 0
2, 7612, Note_on_c, 0, 64, 0
2, 7612, Note_on_c, 0, 75, 0
2, 7613, Note_on_c, 0, 73, 0
2, 7613, Note_on_c, 0, 57, 0
2, 7613, Note_on_c, 0, 76, 0
2, 7613, Note_on_c, 0, 78, 0
2, 7614, Control_c, 0, 64, 0
2, 7633, Note_on_c, 0, 71, 0
2, 7637, Note_on_c, 0, 81, 94
2, 7643, Note_on_c, 0, 71, 71
2, 7660, Note_on_c, 0, 52, 62
2, 7710, Note_on_c, 0, 80, 0
2, 7710, Control_c, 0, 64, 127
2, 7794, Note_on_c, 0, 59, 66
2, 7949, Note_on_c, 0, 64, 70
2, 8114, Note_on_c, 0, 80, 82
2, 8190, Note_on_c, 0, 78, 85
2, 8279, Note_on_c, 0, 80, 0
2, 8283, Note_on_c, 0, 80, 89
2, 8394, Note_on_c, 0, 59, 0
2, 8402, Note_on_c, 0, 59, 68
2, 8570, Note_on_c, 0, 52, 0
2, 8579, Note_on_c, 0, 52, 66
2, 8724, Note_on_c, 0, 80, 0
2, 8734, Note_on_c, 0, 80, 84
2, 8874, Note_on_c, 0, 71, 0
2, 8874, Note_on_c, 0, 64, 0
2, 8874, Note_on_c, 0, 81, 0
2, 8875, Note_on_c, 0, 52, 0
2, 8875, Note_on_c, 0, 78, 0
2, 8876, Note_on_c, 0, 59, 0
2, 8881, Control_c, 0, 64, 0
2, 8885, Note_on_c, 0, 80, 0
2, 8891, Note_on_c, 0, 80, 93
2, 8904, Note_on_c, 0, 54, 68
2, 8907, Note_on_c, 0, 73, 82
2, 8912, Note_on_c, 0, 69, 68
2, 8970, Control_c, 0, 64, 127
2, 9051, Note_on_c, 0, 61, 68
2, 9140, Note_on_c, 0, 78, 88
2, 9226, Note_on_c, 0, 66, 80
2, 9377, Note_on_c, 0, 73, 0
2, 9387, Note_on_c, 0, 73, 84
2, 9515, Note_on_c, 0, 80, 0
2, 9515, Note_on_c, 0, 61, 0
2, 9516, Note_on_c, 0, 66, 0
2, 9517, Control_c, 0, 64, 0
2, 9517, Note_on_c, 0, 54, 0
2, 9518, Note_on_c, 0, 78, 0
2, 9530, Note_on_c, 0, 69, 0
2, 9540, Note_on_c, 0, 51, 67
2, 9623, Control_c, 0, 64, 127
2, 9684, Note_on_c, 0, 73, 0
2, 9695, Note_on_c, 0, 73, 76
2, 9697, Note_on_c, 0, 58, 68
2, 9776, Note_on_c, 0, 51, 0
2, 9855, Note_on_c, 0, 63, 71
2, 9856, Note_on_c, 0, 75, 86
2, 10003, Note_on_c, 0, 76, 90
2, 10118, Note_on_c, 0, 63, 0
2, 10118, Note_on_c, 0, 73, 0
2, 10118, Note_on_c, 0, 75, 0
2, 10119, Note_on_c, 0, 58, 0
2, 10119, Control_c, 0, 64, 0
2, 10145, Note_on_c, 0, 76, 0
2, 10154, Note_on_c, 0, 76, 91
2, 10176, Note_on_c, 0, 68, 69
2, 10177, Note_on_c, 0, 72, 70
2, 10178, Note_on_c, 0, 56, 59
2, 10222, Control_c, 0, 64, 127
2, 10325, Note_on_c, 0, 63, 74
2, 10395, Note_on_c, 0, 75, 89
2, 10498, Note_on_c, 0, 68, 0
2, 10507, Note_on_c, 0, 68, 79
2, 10621, Note_on_c, 0, 76, 0
2, 10631, Note_on_c, 0, 76, 98
2, 10794, Note_on_c, 0, 81, 104
2, 10799, Note_on_c, 0, 69, 83
2, 10936, Note_on_c, 0, 63, 0
2, 10940, Note_on_c, 0, 63, 74
2, 11097, Note_on_c, 0, 56, 0
2, 11097, Note_on_c, 0, 68, 0
2, 11102, Note_on_c, 0, 80, 100
2, 11107, Note_on_c, 0, 56, 85
2, 11108, Note_on_c, 0, 68, 100
2, 11420, Note_on_c, 0, 72, 0
2, 11423, Note_on_c, 0, 76, 0
2, 11423, Note_on_c, 0, 68, 0
2, 11423, Note_on_c, 0, 80, 0
2, 11423, Note_on_c, 0, 75, 0
2, 11423, Note_on_c, 0, 81, 0
2, 11423, Note_on_c, 0, 69, 0
2, 11423, Note_on_c, 0, 63, 0
2, 11424, Control_c, 0, 64, 0
2, 11427, Note_on_c, 0, 56, 0
2, 11431, Note_on_c, 0, 64, 96
2, 11437, Note_on_c, 0, 56, 85
2, 11437, Note_on_c, 0, 61, 83
2, 11450, Note_on_c, 0, 37, 66
2, 11527, Control_c, 0, 64, 127
2, 11598, Note_on_c, 0, 44, 68
2, 11760, Note_on_c, 0, 49, 69
2, 12062, Note_on_c, 0, 61, 0
2, 12063, Note_on_c, 0, 56, 0
2, 12063, Note_on_c, 0, 64, 0
2, 12063, Note_on_c, 0, 44, 0
2, 12067, Control_c, 0, 64, 0
2, 12088, Note_on_c, 0, 49, 0
2, 12089, Note_on_c, 0, 66, 95
2, 12092, Note_on_c, 0, 49, 62
2, 12094, Note_on_c, 0, 54, 77
2, 12134, Control_c, 0, 64, 127
2, 12240, Note_on_c, 0, 44, 67
2, 12324, Note_on_c, 0, 71, 97
2, 12331, Note_on_c, 0, 59, 85
2, 12410, Note_on_c, 0, 49, 0
2, 12422, Note_on_c, 0, 49, 59
2, 12495, Note_on_c, 0, 49, 0
2, 12500, Note_on_c, 0, 49, 59
2, 12569, Note_on_c, 0, 69, 88
2, 12572, Note_on_c, 0, 57, 77
2, 12707, Control_c, 0, 64, 0
2, 12707, Note_on_c, 0, 66, 0
2, 12707, Note_on_c, 0, 49, 0
2, 12707, Note_on_c, 0, 71, 0
2, 12708, Note_on_c, 0, 59, 0
2, 12708, Note_on_c, 0, 44, 0
2, 12708, Note_on_c, 0, 69, 0
2, 12708, Note_on_c, 0, 57, 0
2, 12710, Note_on_c, 0, 54, 0
2, 12718, Note_on_c, 0, 37, 0
2, 12738, Note_on_c, 0, 68, 96
2, 12744, Note_on_c, 0, 64, 76
2, 12745, Note_on_c, 0, 61, 76
2, 12745, Note_on_c, 0, 45, 73
2, 12802, Control_c, 0, 64, 127
2, 12890, Note_on_c, 0, 52, 67
2, 13042, Note_on_c, 0, 57, 74
2, 13201, Note_on_c, 0, 57, 0
2, 13213, Note_on_c, 0, 57, 66
2, 13263, Note_on_c, 0, 45, 0
2, 13268, Note_on_c, 0, 45, 57
2, 13365, Note_on_c, 0, 66, 96
2, 13509, Note_on_c, 0, 52, 0
2, 13513, Note_on_c, 0, 52, 68
2, 13608, Note_on_c, 0, 66, 0
2, 13611, Note_on_c, 0, 71, 91
2, 13619, Note_on_c, 0, 66, 64
2, 13620, Note_on_c, 0, 62, 54
2, 13624, Note_on_c, 0, 62, 0
2, 13693, Note_on_c, 0, 45, 0
2, 13704, Note_on_c, 0, 45, 77
2, 13848, Note_on_c, 0, 69, 83
2, 13969, Note_on_c, 0, 61, 0
2, 13970, Note_on_c, 0, 66, 0
2, 13970, Note_on_c, 0, 69, 0
2, 13971, Note_on_c, 0, 52, 0
2, 13971, Note_on_c, 0, 57, 0
2, 13972, Note_on_c, 0, 45, 0
2, 13973, Note_on_c, 0, 64, 0
2, 13974, Control_c, 0, 64, 0
2, 14000, Note_on_c, 0, 68, 0
2, 14000, Note_on_c, 0, 71, 0
2, 14005, Note_on_c, 0, 68, 96
2, 14008, Note_on_c, 0, 76, 79
2, 14009, Note_on_c, 0, 40, 79
2, 14010, Note_on_c, 0, 64, 79
2, 14011, Note_on_c, 0, 71, 75
2, 14085, Control_c, 0, 64, 127
2, 14161, Note_on_c, 0, 68, 0
2, 14169, Note_on_c, 0, 47, 77
2, 14173, Note_on_c, 0, 68, 73
2, 14323, Note_on_c, 0, 52, 74
2, 14638, Note_on_c, 0, 64, 0
2, 14638, Note_on_c, 0, 68, 0
2, 14644, Note_on_c, 0, 68, 93
2, 14645, Note_on_c, 0, 76, 0
2, 14649, Note_on_c, 0, 64, 75
2, 14653, Note_on_c, 0, 40, 0
2, 14653, Note_on_c, 0, 52, 0
2, 14653, Note_on_c, 0, 76, 71
2, 14658, Note_on_c, 0, 52, 73
2, 14662, Note_on_c, 0, 40, 65
2, 14664, Note_on_c, 0, 47, 0
2, 14664, Control_c, 0, 64, 0
2, 14691, Control_c, 0, 64, 127
2, 14803, Note_on_c, 0, 47, 76
2, 14891, Note_on_c, 0, 73, 95
2, 14983, Note_on_c, 0, 52, 0
2, 14988, Note_on_c, 0, 52, 69
2, 15129, Note_on_c, 0, 68, 0
2, 15133, Note_on_c, 0, 68, 87
2, 15263, Control_c, 0, 64, 0
2, 15270, Note_on_c, 0, 47, 0
2, 15271, Note_on_c, 0, 68, 0
2, 15271, Note_on_c, 0, 52, 0
2, 15272, Note_on_c, 0, 73, 0
2, 15275, Note_on_c, 0, 40, 0
2, 15275, Note_on_c, 0, 64, 0
2, 15283, Note_on_c, 0, 71, 0
2, 15288, Note_on_c, 0, 71, 94
2, 15290, Note_on_c, 0, 76, 0
2, 15292, Note_on_c, 0, 42, 79
2, 15295, Note_on_c, 0, 61, 85
2, 15375, Control_c, 0, 64, 127
2, 15452, Note_on_c, 0, 49, 66
2, 15540, Note_on_c, 0, 70, 86
2, 15567, Note_on_c, 0, 61, 0
2, 15576, Note_on_c, 0, 61, 58
2, 15600, Note_on_c, 0, 54, 68
2, 15766, Note_on_c, 0, 66, 93
2, 15783, Note_on_c, 0, 56, 67
2, 15819, Control_c, 0, 64, 0
2, 15824, Note_on_c, 0, 61, 0
2, 15824, Note_on_c, 0, 71, 0
2, 15825, Note_on_c, 0, 54, 0
2, 15825, Note_on_c, 0, 70, 0
2, 15889, Note_on_c, 0, 56, 0
2, 15925, Note_on_c, 0, 58, 79
2, 16012, Control_c, 0, 64, 127
2, 16028, Note_on_c, 0, 49, 0
2, 16032, Note_on_c, 0, 49, 37
2, 16243, Note_on_c, 0, 42, 0
2, 16248, Note_on_c, 0, 42, 56
2, 16420, Note_on_c, 0, 61, 74
2, 16473, Note_on_c, 0, 63, 78
2, 16536, Note_on_c, 0, 49, 0
2, 16536, Note_on_c, 0, 58, 0
2, 16537, Note_on_c, 0, 66, 0
2, 16537, Note_on_c, 0, 42, 0
2, 16538, Control_c, 0, 64, 0
2, 16538, Note_on_c, 0, 61, 0
2, 16539, Note_on_c, 0, 63, 0
2, 16562, Note_on_c, 0, 64, 91
2, 16576, Note_on_c, 0, 45, 71
2, 16589, Note_on_c, 0, 59, 72
2, 16650, Control_c, 0, 64, 127
2, 16738, Note_on_c, 0, 52, 54
2, 16803, Note_on_c, 0, 61, 82
2, 16900, Note_on_c, 0, 57, 69
2, 17064, Control_c, 0, 64, 0
2, 17067, Note_on_c, 0, 61, 0
2, 17068, Note_on_c, 0, 64, 0
2, 17072, Note_on_c, 0, 59, 0
2, 17073, Note_on_c, 0, 68, 89
2, 17080, Note_on_c, 0, 59, 73
2, 17157, Control_c, 0, 64, 127
2, 17379, Note_on_c, 0, 66, 82
2, 17379, Note_on_c, 0, 59, 0
2, 17388, Note_on_c, 0, 59, 67
2, 17541, Note_on_c, 0, 66, 0
2, 17546, Note_on_c, 0, 66, 76
2, 17556, Note_on_c, 0, 59, 0
2, 17560, Note_on_c, 0, 59, 62
2, 17687, Note_on_c, 0, 68, 0
2, 17698, Note_on_c, 0, 68, 81
2, 17813, Note_on_c, 0, 68, 0
2, 17813, Note_on_c, 0, 59, 0
2, 17814, Note_on_c, 0, 45, 0
2, 17819, Control_c, 0, 64, 0
2, 17832, Note_on_c, 0, 52, 0
2, 17832, Note_on_c, 0, 57, 0
2, 17840, Note_on_c, 0, 66, 0
2, 17848, Note_on_c, 0, 66, 85
2, 17860, Note_on_c, 0, 47, 54
2, 17861, Note_on_c, 0, 63, 69
2, 17902, Control_c, 0, 64, 127
2, 18014, Note_on_c, 0, 54, 53
2, 18164, Note_on_c, 0, 59, 69
2, 18333, Note_on_c, 0, 88, 82
2, 18416, Note_on_c, 0, 87, 71
2, 18470, Note_on_c, 0, 88, 0
2, 18474, Note_on_c, 0, 88, 61
2, 18475, Note_on_c, 0, 83, 77
2, 19150, Note_on_c, 0, 63, 0
2, 19150, Note_on_c, 0, 87, 0
2, 19150, Note_on_c, 0, 61, 63
2, 19150, Control_c, 0, 64, 0
2, 19150, Note_on_c, 0, 83, 0
2, 19150, Note_on_c, 0, 59, 0
2, 19151, Note_on_c, 0, 54, 0
2, 19151, Note_on_c, 0, 47, 0
2, 19151, Note_on_c, 0, 66, 0
2, 19151, Note_on_c, 0, 88, 0
2, 19159, Note_on_c, 0, 57, 56
2, 19166, Note_on_c, 0, 33, 47
2, 19166, Note_on_c, 0, 45, 52
2, 19200, Control_c, 0, 64, 127
2, 19299, Note_on_c, 0, 45, 0
2, 19299, Note_on_c, 0, 61, 0
2, 19307, Note_on_c, 0, 57, 0
2, 19310, Note_on_c, 0, 45, 56
2, 19310, Note_on_c, 0, 61, 57
2, 19311, Note_on_c, 0, 57, 50
2, 19453, Note_on_c, 0, 61, 0
2, 19461, Note_on_c, 0, 57, 0
2, 19464, Note_on_c, 0, 61, 65
2, 19465, Note_on_c, 0, 57, 55
2, 19622, Note_on_c, 0, 33, 0
2, 19622, Note_on_c, 0, 45, 0
2, 19623, Note_on_c, 0, 63, 80
2, 19628, Note_on_c, 0, 45, 63
2, 19629, Note_on_c, 0, 59, 68
2, 19631, Note_on_c, 0, 33, 60
2, 19633, Control_c, 0, 64, 0
2, 19668, Control_c, 0, 64, 127
2, 19776, Note_on_c, 0, 63, 0
2, 19783, Note_on_c, 0, 63, 74
2, 19783, Note_on_c, 0, 33, 0
2, 19783, Note_on_c, 0, 45, 0
2, 19783, Note_on_c, 0, 59, 0
2, 19788, Note_on_c, 0, 33, 54
2, 19791, Note_on_c, 0, 59, 49
2, 19793, Note_on_c, 0, 45, 58
2, 19921, Note_on_c, 0, 59, 0
2, 19921, Note_on_c, 0, 63, 0
2, 19929, Note_on_c, 0, 33, 0
2, 19929, Note_on_c, 0, 45, 0
2, 19930, Note_on_c, 0, 63, 75
2, 19932, Note_on_c, 0, 59, 65
2, 19933, Note_on_c, 0, 33, 51
2, 19934, Note_on_c, 0, 45, 57
2, 20087, Note_on_c, 0, 63, 0
2, 20089, Note_on_c, 0, 59, 0
2, 20090, Note_on_c, 0, 33, 0
2, 20090, Note_on_c, 0, 45, 0
2, 20090, Note_on_c, 0, 61, 0
2, 20093, Control_c, 0, 64, 0
2, 20095, Note_on_c, 0, 64, 85
2, 20097, Note_on_c, 0, 61, 80
2, 20098, Note_on_c, 0, 33, 68
2, 20101, Note_on_c, 0, 45, 69
2, 20129, Note_on_c, 0, 57, 0
2, 20152, Control_c, 0, 64, 127
2, 20236, Note_on_c, 0, 45, 0
2, 20236, Note_on_c, 0, 64, 0
2, 20244, Note_on_c, 0, 61, 0
2, 20247, Note_on_c, 0, 45, 69
2, 20247, Note_on_c, 0, 64, 80
2, 20248, Note_on_c, 0, 61, 73
2, 20390, Note_on_c, 0, 61, 0
2, 20390, Note_on_c, 0, 64, 0
2, 20398, Note_on_c, 0, 45, 0
2, 20401, Note_on_c, 0, 61, 84
2, 20401, Note_on_c, 0, 64, 83
2, 20409, Note_on_c, 0, 45, 68
2, 20551, Note_on_c, 0, 33, 0
2, 20557, Note_on_c, 0, 33, 64
2, 20705, Note_on_c, 0, 64, 0
2, 20709, Note_on_c, 0, 68, 95
2, 20710, Note_on_c, 0, 59, 77
2, 20713, Note_on_c, 0, 64, 77
2, 21012, Note_on_c, 0, 59, 0
2, 21012, Note_on_c, 0, 64, 0
2, 21016, Note_on_c, 0, 69, 96
2, 21020, Note_on_c, 0, 33, 0
2, 21020, Note_on_c, 0, 45, 0
2, 21023, Note_on_c, 0, 64, 85
2, 21023, Note_on_c, 0, 59, 85
2, 21024, Note_on_c, 0, 45, 73
2, 21026, Note_on_c, 0, 33, 75
2, 21319, Note_on_c, 0, 59, 0
2, 21319, Note_on_c, 0, 64, 0
2, 21319, Note_on_c, 0, 68, 0
2, 21324, Note_on_c, 0, 71, 99
2, 21327, Note_on_c, 0, 64, 80
2, 21329, Note_on_c, 0, 59, 82
2, 21331, Note_on_c, 0, 68, 74
2, 21468, Note_on_c, 0, 33, 0
2, 21626, Note_on_c, 0, 71, 0
2, 21634, Note_on_c, 0, 59, 0
2, 21635, Note_on_c, 0, 71, 100
2, 21639, Note_on_c, 0, 66, 96
2, 21641, Note_on_c, 0, 47, 85
2, 21641, Note_on_c, 0, 59, 86
2, 21643, Note_on_c, 0, 63, 75
2, 21643, Note_on_c, 0, 35, 79
2, 21645, Control_c, 0, 64, 0
2, 21661, Note_on_c, 0, 69, 0
2, 21661, Note_on_c, 0, 64, 0
2, 21663, Note_on_c, 0, 68, 0
2, 21672, Note_on_c, 0, 63, 0
2, 21680, Note_on_c, 0, 61, 0
2, 21688, Note_on_c, 0, 45, 0
2, 21757, Control_c, 0, 64, 127
2, 21780, Note_on_c, 0, 47, 0
2, 21790, Note_on_c, 0, 47, 74
2, 21934, Note_on_c, 0, 47, 0
2, 21937, Note_on_c, 0, 47, 66
2, 22103, Note_on_c, 0, 35, 0
2, 22103, Note_on_c, 0, 47, 0
2, 22103, Note_on_c, 0, 59, 0
2, 22103, Note_on_c, 0, 66, 0
2, 22103, Note_on_c, 0, 71, 0
2, 22107, Note_on_c, 0, 47, 81
2, 22107, Note_on_c, 0, 71, 78
2, 22108, Note_on_c, 0, 66, 86
2, 22109, Note_on_c, 0, 59, 83
2, 22111, Note_on_c, 0, 35, 71
2, 22241, Note_on_c, 0, 47, 0
2, 22252, Note_on_c, 0, 47, 86
2, 22410, Note_on_c, 0, 47, 0
2, 22419, Note_on_c, 0, 47, 83
2, 22421, Note_on_c, 0, 75, 102
2, 22534, Control_c, 0, 64, 0
2, 22540, Control_c, 0, 64, 127
2, 22563, Note_on_c, 0, 35, 0
2, 22563, Note_on_c, 0, 47, 0
2, 22563, Note_on_c, 0, 75, 0
2, 22567, Note_on_c, 0, 47, 96
2, 22567, Note_on_c, 0, 78, 105
2, 22569, Note_on_c, 0, 35, 88
2, 22574, Note_on_c, 0, 75, 96
2, 22575, Note_on_c, 0, 69, 77
2, 22579, Note_on_c, 0, 69, 0
2, 22702, Note_on_c, 0, 47, 0
2, 22712, Note_on_c, 0, 47, 76
2, 22859, Note_on_c, 0, 71, 0
2, 22861, Note_on_c, 0, 66, 0
2, 22861, Control_c, 0, 64, 0
2, 22871, Note_on_c, 0, 59, 0
2, 22878, Note_on_c, 0, 47, 0
2, 22878, Note_on_c, 0, 75, 0
2, 22878, Note_on_c, 0, 78, 0
2, 22883, Note_on_c, 0, 83, 104
2, 22888, Note_on_c, 0, 47, 88
2, 22889, Note_on_c, 0, 78, 99
2, 22890, Note_on_c, 0, 75, 100
2, 22963, Control_c, 0, 64, 127
2, 23232, Note_on_c, 0, 35, 0
2, 23525, Note_on_c, 0, 59, 67
2, 23525, Note_on_c, 0, 63, 68
2, 23543, Note_on_c, 0, 83, 0
2, 23543, Note_on_c, 0, 78, 0
2, 23543, Control_c, 0, 64, 0
2, 23549, Note_on_c, 0, 75, 0
2, 23612, Note_on_c, 0, 64, 69
2, 23616, Note_on_c, 0, 63, 0
2, 23654, Note_on_c, 0, 47, 0
2, 23654, Control_c, 0, 64, 127
2, 23682, Note_on_c, 0, 66, 74
2, 23754, Note_on_c, 0, 68, 78
2, 23816, Note_on_c, 0, 69, 81
2, 23892, Note_on_c, 0, 68, 0
2, 23896, Note_on_c, 0, 71, 83
2, 23898, Note_on_c, 0, 68, 68
2, 23969, Note_on_c, 0, 69, 0
2, 23977, Note_on_c, 0, 73, 74
2, 23977, Note_on_c, 0, 69, 65
2, 23984, Note_on_c, 0, 64, 0
2, 24046, Note_on_c, 0, 75, 84
2, 24084, Note_on_c, 0, 66, 0
2, 24140, Note_on_c, 0, 75, 0
2, 24140, Note_on_c, 0, 71, 0
2, 24140, Note_on_c, 0, 69, 0
2, 24142, Control_c, 0, 64, 0
2, 24153, Note_on_c, 0, 59, 0
2, 24157, Note_on_c, 0, 76, 88
2, 24161, Note_on_c, 0, 73, 0
2, 24168, Note_on_c, 0, 68, 0
2, 24170, Note_on_c, 0, 61, 67
2, 24172, Note_on_c, 0, 73, 68
2, 24174, Note_on_c, 0, 68, 56
2, 24415, Note_on_c, 0, 75, 70
2, 24476, Control_c, 0, 64, 127
2, 24606, Note_on_c, 0, 76, 0
2, 24675, Note_on_c, 0, 68, 0
2, 24679, Note_on_c, 0, 76, 47
2, 24680, Note_on_c, 0, 68, 67
2, 24983, Note_on_c, 0, 73, 0
2, 24988, Note_on_c, 0, 73, 69
2, 25136, Note_on_c, 0, 75, 0
2, 25141, Note_on_c, 0, 75, 84
2, 25282, Note_on_c, 0, 76, 0
2, 25288, Note_on_c, 0, 76, 80
2, 25393, Note_on_c, 0, 73, 0
2, 25393, Note_on_c, 0, 68, 0
2, 25393, Note_on_c, 0, 75, 0
2, 25393, Note_on_c, 0, 76, 0
2, 25394, Note_on_c, 0, 61, 0
2, 25399, Control_c, 0, 64, 0
2, 25437, Note_on_c, 0, 76, 85
2, 25456, Note_on_c, 0, 69, 64
2, 25457, Note_on_c, 0, 57, 53
2, 25459, Note_on_c, 0, 64, 56
2, 25536, Control_c, 0, 64, 127
2, 25670, Note_on_c, 0, 75, 78
2, 25927, Note_on_c, 0, 64, 0
2, 25931, Note_on_c, 0, 64, 64
2, 26242, Note_on_c, 0, 71, 69
2, 26388, Note_on_c, 0, 75, 0
2, 26394, Note_on_c, 0, 75, 76
2, 26542, Note_on_c, 0, 76, 0
2, 26548, Note_on_c, 0, 76, 81
2, 26688, Note_on_c, 0, 76, 0
2, 26688, Note_on_c, 0, 75, 0
2, 26689, Note_on_c, 0, 64, 0
2, 26689, Note_on_c, 0, 71, 0
2, 26689, Note_on_c, 0, 57, 0
2, 26691, Control_c, 0, 64, 0
2, 26699, Note_on_c, 0, 76, 83
2, 26703, Note_on_c, 0, 69, 0
2, 26722, Note_on_c, 0, 68, 65
2, 26723, Note_on_c, 0, 64, 51
2, 26725, Note_on_c, 0, 52, 54
2, 26729, Note_on_c, 0, 59, 62
2, 26849, Control_c, 0, 64, 127
2, 26939, Note_on_c, 0, 75, 78
2, 27179, Note_on_c, 0, 68, 0
2, 27185, Note_on_c, 0, 68, 71
2, 27496, Note_on_c, 0, 73, 73
2, 27648, Note_on_c, 0, 75, 0
2, 27654, Note_on_c, 0, 75, 80
2, 27786, Note_on_c, 0, 76, 0
2, 27793, Note_on_c, 0, 76, 73
2, 27927, Note_on_c, 0, 68, 0
2, 27928, Note_on_c, 0, 52, 0
2, 27928, Note_on_c, 0, 75, 0
2, 27928, Note_on_c, 0, 59, 0
2, 27928, Note_on_c, 0, 73, 0
2, 27935, Control_c, 0, 64, 0
2, 27939, Note_on_c, 0, 76, 0
2, 27949, Note_on_c, 0, 76, 83
2, 27951, Note_on_c, 0, 66, 74
2, 27951, Note_on_c, 0, 54, 67
2, 27953, Note_on_c, 0, 61, 69
2, 27974, Note_on_c, 0, 71, 65
2, 27985, Note_on_c, 0, 64, 0
2, 28039, Control_c, 0, 64, 127
2, 28189, Note_on_c, 0, 75, 81
2, 28431, Note_on_c, 0, 66, 0
2, 28441, Note_on_c, 0, 66, 85
2, 28472, Note_on_c, 0, 59, 34
2, 28477, Note_on_c, 0, 59, 0
2, 28595, Note_on_c, 0, 44, 78
2, 28682, Note_on_c, 0, 56, 68
2, 28738, Note_on_c, 0, 44, 0
2, 28742, Note_on_c, 0, 44, 92
2, 28756, Note_on_c, 0, 73, 82
2, 28756, Note_on_c, 0, 85, 90
2, 28807, Note_on_c, 0, 56, 0
2, 28818, Note_on_c, 0, 56, 74
2, 28883, Note_on_c, 0, 45, 92
2, 28884, Note_on_c, 0, 44, 0
2, 28888, Note_on_c, 0, 44, 92
2, 28892, Note_on_c, 0, 45, 0
2, 28907, Note_on_c, 0, 75, 0
2, 28909, Note_on_c, 0, 87, 101
2, 28912, Note_on_c, 0, 75, 91
2, 28930, Note_on_c, 0, 85, 0
2, 28938, Note_on_c, 0, 85, 56
2, 28945, Note_on_c, 0, 56, 0
2, 28957, Note_on_c, 0, 56, 80
2, 29022, Note_on_c, 0, 44, 0
2, 29027, Note_on_c, 0, 44, 90
2, 29061, Note_on_c, 0, 76, 0
2, 29063, Note_on_c, 0, 88, 106
2, 29065, Note_on_c, 0, 76, 105
2, 29149, Note_on_c, 0, 73, 0
2, 29149, Note_on_c, 0, 75, 0
2, 29149, Note_on_c, 0, 54, 0
2, 29149, Note_on_c, 0, 44, 0
2, 29149, Note_on_c, 0, 66, 0
2, 29150, Note_on_c, 0, 56, 0
2, 29150, Note_on_c, 0, 61, 0
2, 29170, Control_c, 0, 64, 0
2, 29191, Note_on_c, 0, 88, 0
2, 29199, Note_on_c, 0, 76, 0
2, 29199, Note_on_c, 0, 85, 0
2, 29201, Note_on_c, 0, 88, 109
2, 29203, Note_on_c, 0, 80, 108
2, 29203, Note_on_c, 0, 37, 102
2, 29204, Note_on_c, 0, 85, 99
2, 29204, Note_on_c, 0, 76, 106
2, 29209, Note_on_c, 0, 25, 103
2, 29230, Control_c, 0, 64, 127
2, 29437, Note_on_c, 0, 87, 0
2, 29448, Note_on_c, 0, 87, 106
2, 29449, Note_on_c, 0, 52, 87
2, 29450, Note_on_c, 0, 61, 86
2, 29451, Note_on_c, 0, 75, 95
2, 29683, Note_on_c, 0, 61, 0
2, 29683, Note_on_c, 0, 76, 0
2, 29683, Note_on_c, 0, 80, 0
2, 29683, Note_on_c, 0, 88, 0
2, 29688, Note_on_c, 0, 88, 109
2, 29690, Note_on_c, 0, 52, 0
2, 29690, Note_on_c, 0, 85, 0
2, 29691, Note_on_c, 0, 64, 93
2, 29691, Note_on_c, 0, 61, 99
2, 29694, Note_on_c, 0, 80, 106
2, 29694, Note_on_c, 0, 76, 106
2, 29696, Note_on_c, 0, 85, 92
2, 29698, Note_on_c, 0, 56, 80
2, 29699, Note_on_c, 0, 49, 89
2, 29699, Note_on_c, 0, 52, 88
2, 29928, Note_on_c, 0, 25, 0
2, 29998, Note_on_c, 0, 52, 0
2, 29998, Note_on_c, 0, 64, 0
2, 29998, Note_on_c, 0, 71, 0
2, 29998, Note_on_c, 0, 76, 0
2, 30001, Note_on_c, 0, 83, 108
2, 30003, Note_on_c, 0, 71, 91
2, 30003, Note_on_c, 0, 64, 82
2, 30004, Note_on_c, 0, 52, 91
2, 30005, Note_on_c, 0, 76, 85
2, 30151, Note_on_c, 0, 56, 0
2, 30151, Note_on_c, 0, 61, 0
2, 30151, Note_on_c, 0, 64, 0
2, 30151, Note_on_c, 0, 75, 0
2, 30151, Note_on_c, 0, 87, 0
2, 30155, Note_on_c, 0, 87, 108
2, 30155, Note_on_c, 0, 61, 89
2, 30156, Note_on_c, 0, 64, 83
2, 30156, Note_on_c, 0, 75, 106
2, 30158, Note_on_c, 0, 85, 0
2, 30161, Note_on_c, 0, 56, 79
2, 30297, Note_on_c, 0, 52, 0
2, 30297, Note_on_c, 0, 88, 0
2, 30305, Note_on_c, 0, 76, 0
2, 30308, Note_on_c, 0, 88, 102
2, 30308, Note_on_c, 0, 52, 82
2, 30312, Note_on_c, 0, 76, 104
2, 30409, Note_on_c, 0, 87, 0
2, 30410, Note_on_c, 0, 75, 0
2, 30410, Note_on_c, 0, 71, 0
2, 30411, Note_on_c, 0, 61, 0
2, 30411, Note_on_c, 0, 49, 0
2, 30411, Note_on_c, 0, 56, 0
2, 30411, Note_on_c, 0, 37, 0
2, 30411, Note_on_c, 0, 83, 0
2, 30411, Note_on_c, 0, 64, 0
2, 30413, Control_c, 0, 64, 0
2, 30428, Note_on_c, 0, 52, 0
2, 30428, Note_on_c, 0, 76, 0
2, 30428, Note_on_c, 0, 80, 0
2, 30435, Note_on_c, 0, 88, 0
2, 30456, Note_on_c, 0, 88, 111
2, 30460, Note_on_c, 0, 81, 103
2, 30460, Note_on_c, 0, 85, 104
2, 30460, Note_on_c, 0, 76, 110
2, 30462, Note_on_c, 0, 33, 96
2, 30463, Note_on_c, 0, 45, 100
2, 30474, Control_c, 0, 64, 127
2, 30699, Note_on_c, 0, 87, 104
2, 30702, Note_on_c, 0, 52, 78
2, 30704, Note_on_c, 0, 75, 101
2, 30705, Note_on_c, 0, 61, 86
2, 30901, Control_c, 0, 64, 0
2, 30912, Note_on_c, 0, 45, 0
2, 30927, Note_on_c, 0, 88, 0
2, 30935, Note_on_c, 0, 61, 0
2, 30935, Note_on_c, 0, 76, 0
2, 30935, Note_on_c, 0, 81, 0
2, 30935, Note_on_c, 0, 85, 0
2, 30935, Control_c, 0, 64, 127
2, 30935, Note_on_c, 0, 88, 108
2, 30936, Note_on_c, 0, 64, 97
2, 30938, Note_on_c, 0, 61, 90
2, 30938, Note_on_c, 0, 85, 99
2, 30938, Note_on_c, 0, 81, 102
2, 30939, Note_on_c, 0, 76, 103
2, 30939, Note_on_c, 0, 57, 78
2, 30940, Note_on_c, 0, 69, 91
2, 30973, Note_on_c, 0, 33, 0
2, 31234, Note_on_c, 0, 52, 0
2, 31239, Note_on_c, 0, 83, 105
2, 31244, Note_on_c, 0, 71, 90
2, 31244, Note_on_c, 0, 52, 87
2, 31395, Note_on_c, 0, 52, 0
2, 31395, Note_on_c, 0, 64, 0
2, 31395, Note_on_c, 0, 75, 0
2, 31395, Note_on_c, 0, 87, 0
2, 31399, Note_on_c, 0, 87, 106
2, 31403, Note_on_c, 0, 61, 0
2, 31404, Note_on_c, 0, 75, 103
2, 31406, Note_on_c, 0, 64, 89
2, 31406, Note_on_c, 0, 52, 80
2, 31409, Note_on_c, 0, 61, 84
2, 31411, Note_on_c, 0, 57, 0
2, 31415, Note_on_c, 0, 57, 74
2, 31518, Note_on_c, 0, 52, 0
2, 31526, Note_on_c, 0, 52, 90
2, 31526, Note_on_c, 0, 64, 0
2, 31536, Note_on_c, 0, 64, 87
2, 31541, Note_on_c, 0, 88, 0
2, 31549, Note_on_c, 0, 76, 0
2, 31550, Note_on_c, 0, 88, 106
2, 31554, Note_on_c, 0, 76, 107
2, 31662, Control_c, 0, 64, 0
2, 31662, Note_on_c, 0, 69, 0
2, 31662, Note_on_c, 0, 52, 0
2, 31662, Note_on_c, 0, 61, 0
2, 31663, Note_on_c, 0, 87, 0
2, 31663, Note_on_c, 0, 71, 0
2, 31663, Note_on_c, 0, 81, 0
2, 31663, Note_on_c, 0, 83, 0
2, 31664, Note_on_c, 0, 88, 0
2, 31664, Note_on_c, 0, 64, 0
2, 31664, Note_on_c, 0, 75, 0
2, 31664, Note_on_c, 0, 85, 0
2, 31665, Note_on_c, 0, 76, 0
2, 31680, Note_on_c, 0, 57, 0
2, 31714, Note_on_c, 0, 83, 100
2, 31714, Note_on_c, 0, 88, 105
2, 31714, Note_on_c, 0, 80, 104
2, 31714, Note_on_c, 0, 76, 105
2, 31715, Note_on_c, 0, 40, 96
2, 31719, Note_on_c, 0, 28, 97
2, 31726, Control_c, 0, 64, 127
2, 31954, Note_on_c, 0, 87, 103
2, 31960, Note_on_c, 0, 75, 100
2, 31960, Note_on_c, 0, 52, 74
2, 31960, Note_on_c, 0, 59, 87
2, 32194, Note_on_c, 0, 59, 0
2, 32194, Note_on_c, 0, 76, 0
2, 32194, Note_on_c, 0, 80, 0
2, 32194, Note_on_c, 0, 83, 0
2, 32194, Note_on_c, 0, 88, 0
2, 32198, Note_on_c, 0, 88, 105
2, 32199, Note_on_c, 0, 64, 90
2, 32201, Note_on_c, 0, 76, 102
2, 32203, Note_on_c, 0, 83, 89
2, 32204, Note_on_c, 0, 59, 92
2, 32204, Note_on_c, 0, 80, 100
2, 32206, Note_on_c, 0, 68, 91
2, 32207, Note_on_c, 0, 56, 80
2, 32486, Note_on_c, 0, 52, 0
2, 32486, Note_on_c, 0, 64, 0
2, 32486, Note_on_c, 0, 76, 0
2, 32486, Note_on_c, 0, 83, 0
2, 32490, Note_on_c, 0, 83, 102
2, 32494, Note_on_c, 0, 64, 67
2, 32494, Note_on_c, 0, 76, 81
2, 32495, Note_on_c, 0, 71, 90
2, 32497, Note_on_c, 0, 52, 81
2, 32647, Note_on_c, 0, 56, 0
2, 32647, Note_on_c, 0, 59, 0
2, 32647, Note_on_c, 0, 64, 0
2, 32647, Note_on_c, 0, 75, 0
2, 32647, Note_on_c, 0, 87, 0
2, 32653, Note_on_c, 0, 75, 98
2, 32654, Note_on_c, 0, 87, 102
2, 32655, Note_on_c, 0, 52, 0
2, 32655, Note_on_c, 0, 64, 79
2, 32658, Note_on_c, 0, 56, 74
2, 32659, Note_on_c, 0, 59, 77
2, 32660, Note_on_c, 0, 52, 71
2, 32793, Note_on_c, 0, 76, 0
2, 32793, Note_on_c, 0, 88, 0
2, 32801, Note_on_c, 0, 80, 0
2, 32802, Note_on_c, 0, 88, 99
2, 32803, Note_on_c, 0, 83, 0
2, 32804, Note_on_c, 0, 76, 99
2, 32810, Note_on_c, 0, 80, 77
2, 32891, Note_on_c, 0, 87, 0
2, 32891, Note_on_c, 0, 52, 0
2, 32891, Note_on_c, 0, 71, 0
2, 32891, Note_on_c, 0, 59, 0
2, 32891, Note_on_c, 0, 64, 0
2, 32892, Note_on_c, 0, 76, 0
2, 32892, Note_on_c, 0, 75, 0
2, 32892, Note_on_c, 0, 68, 0
2, 32892, Note_on_c, 0, 88, 0
2, 32892, Note_on_c, 0, 56, 0
2, 32892, Note_on_c, 0, 80, 0
2, 32894, Control_c, 0, 64, 0
2, 32908, Note_on_c, 0, 28, 0
2, 32908, Note_on_c, 0, 40, 0
2, 32948, Note_on_c, 0, 92, 107
2, 32948, Note_on_c, 0, 80, 105
2, 32949, Note_on_c, 0, 87, 94
2, 32949, Note_on_c, 0, 27, 98
2, 32950, Note_on_c, 0, 83, 95
2, 32950, Note_on_c, 0, 39, 98
2, 32970, Control_c, 0, 64, 127
2, 33073, Control_c, 0, 64, 0
2, 33116, Control_c, 0, 64, 127
2, 33192, Note_on_c, 0, 39, 0
2, 33194, Note_on_c, 0, 93, 112
2, 33196, Note_on_c, 0, 81, 107
2, 33197, Note_on_c, 0, 39, 75
2, 33202, Note_on_c, 0, 35, 79
2, 33346, Note_on_c, 0, 35, 0
2, 33351, Note_on_c, 0, 81, 0
2, 33351, Note_on_c, 0, 39, 0
2, 33352, Note_on_c, 0, 83, 0
2, 33352, Note_on_c, 0, 93, 0
2, 33352, Note_on_c, 0, 80, 0
2, 33353, Note_on_c, 0, 87, 0
2, 33354, Note_on_c, 0, 92, 0
2, 33358, Control_c, 0, 64, 0
2, 33361, Note_on_c, 0, 27, 0
2, 33440, Note_on_c, 0, 66, 92
2, 33441, Note_on_c, 0, 63, 92
2, 33442, Note_on_c, 0, 90, 108
2, 33442, Note_on_c, 0, 78, 104
2, 33443, Note_on_c, 0, 59, 88
2, 33444, Note_on_c, 0, 54, 83
2, 33457, Note_on_c, 0, 83, 81
2, 33469, Control_c, 0, 64, 127
2, 33657, Control_c, 0, 64, 0
2, 33660, Note_on_c, 0, 63, 0
2, 33662, Note_on_c, 0, 78, 0
2, 33664, Note_on_c, 0, 83, 0
2, 33664, Note_on_c, 0, 90, 0
2, 33666, Note_on_c, 0, 66, 0
2, 33676, Note_on_c, 0, 54, 0
2, 33676, Note_on_c, 0, 59, 0
2, 33740, Note_on_c, 0, 51, 77
2, 33742, Note_on_c, 0, 88, 99
2, 33742, Note_on_c, 0, 39, 85
2, 33743, Note_on_c, 0, 76, 96
2, 33867, Note_on_c, 0, 39, 0
2, 33871, Note_on_c, 0, 76, 0
2, 33899, Note_on_c, 0, 88, 0
2, 33905, Note_on_c, 0, 88, 101
2, 33910, Note_on_c, 0, 76, 103
2, 33910, Note_on_c, 0, 28, 99
2, 33922, Note_on_c, 0, 51, 0
2, 33930, Control_c, 0, 64, 127
2, 34085, Control_c, 0, 64, 0
2, 34168, Note_on_c, 0, 28, 0
2, 34183, Note_on_c, 0, 88, 0
2, 34191, Note_on_c, 0, 76, 0
2, 34227, Note_on_c, 0, 64, 94
2, 34233, Note_on_c, 0, 59, 82
2, 34234, Note_on_c, 0, 49, 80
2, 34239, Note_on_c, 0, 37, 82
2, 34252, Control_c, 0, 64, 127
2, 34454, Control_c, 0, 64, 0
2, 34455, Note_on_c, 0, 64, 0
2, 34483, Note_on_c, 0, 37, 0
2, 34483, Note_on_c, 0, 59, 0
2, 34484, Note_on_c, 0, 63, 89
2, 34488, Note_on_c, 0, 44, 63
2, 34488, Note_on_c, 0, 59, 69
2, 34490, Note_on_c, 0, 49, 0
2, 34491, Note_on_c, 0, 37, 66
2, 34501, Note_on_c, 0, 49, 58
2, 34523, Note_on_c, 0, 63, 0
2, 34567, Note_on_c, 0, 59, 0
2, 34590, Note_on_c, 0, 44, 0
2, 34675, Note_on_c, 0, 37, 0
2, 34723, Note_on_c, 0, 66, 84
2, 34731, Note_on_c, 0, 63, 73
2, 34732, Note_on_c, 0, 52, 68
2, 34736, Note_on_c, 0, 44, 57
2, 34821, Control_c, 0, 64, 127
2, 35008, Note_on_c, 0, 64, 75
2, 35100, Note_on_c, 0, 37, 52
2, 35112, Note_on_c, 0, 49, 0
2, 35121, Note_on_c, 0, 44, 0
2, 35122, Note_on_c, 0, 63, 0
2, 35122, Note_on_c, 0, 66, 0
2, 35122, Note_on_c, 0, 52, 0
2, 35125, Note_on_c, 0, 64, 0
2, 35128, Control_c, 0, 64, 0
2, 35170, Note_on_c, 0, 63, 82
2, 35189, Note_on_c, 0, 37, 0
2, 35198, Note_on_c, 0, 49, 54
2, 35200, Note_on_c, 0, 37, 58
2, 35200, Note_on_c, 0, 44, 65
2, 35220, Control_c, 0, 64, 127
2, 35327, Note_on_c, 0, 64, 79
2, 35414, Note_on_c, 0, 59, 83
2, 35432, Note_on_c, 0, 44, 0
2, 35433, Note_on_c, 0, 63, 0
2, 35435, Control_c, 0, 64, 0
2, 35436, Note_on_c, 0, 49, 0
2, 35436, Note_on_c, 0, 37, 0
2, 35436, Note_on_c, 0, 64, 0
2, 35486, Note_on_c, 0, 33, 59
2, 35520, Control_c, 0, 64, 127
2, 35645, Note_on_c, 0, 40, 54
2, 35650, Note_on_c, 0, 59, 0
2, 35658, Note_on_c, 0, 59, 76
2, 35724, Note_on_c, 0, 45, 52
2, 35727, Note_on_c, 0, 64, 70
2, 35765, Note_on_c, 0, 33, 0
2, 35776, Note_on_c, 0, 33, 52
2, 35825, Note_on_c, 0, 71, 70
2, 35891, Note_on_c, 0, 76, 78
2, 35896, Note_on_c, 0, 40, 0
2, 35904, Note_on_c, 0, 33, 0
2, 35906, Note_on_c, 0, 40, 60
2, 35909, Note_on_c, 0, 33, 57
2, 35980, Note_on_c, 0, 40, 0
2, 35984, Note_on_c, 0, 83, 81
2, 35987, Note_on_c, 0, 40, 54
2, 35996, Note_on_c, 0, 45, 0
2, 36000, Note_on_c, 0, 45, 53
2, 36049, Note_on_c, 0, 45, 0
2, 36053, Note_on_c, 0, 45, 56
2, 36054, Note_on_c, 0, 88, 83
2, 36123, Note_on_c, 0, 95, 86
2, 36126, Note_on_c, 0, 33, 0
2, 36137, Note_on_c, 0, 33, 59
2, 36195, Note_on_c, 0, 88, 0
2, 36200, Note_on_c, 0, 88, 76
2, 36241, Note_on_c, 0, 40, 0
2, 36241, Note_on_c, 0, 83, 0
2, 36246, Note_on_c, 0, 83, 76
2, 36250, Note_on_c, 0, 40, 57
2, 36334, Note_on_c, 0, 33, 0
2, 36334, Note_on_c, 0, 40, 0
2, 36334, Note_on_c, 0, 45, 0
2, 36334, Note_on_c, 0, 76, 0
2, 36342, Note_on_c, 0, 76, 76
2, 36342, Note_on_c, 0, 33, 58
2, 36344, Note_on_c, 0, 40, 51
2, 36344, Note_on_c, 0, 45, 58
2, 36410, Note_on_c, 0, 71, 0
2, 36421, Note_on_c, 0, 71, 70
2, 36426, Note_on_c, 0, 33, 0
2, 36426, Note_on_c, 0, 40, 0
2, 36430, Note_on_c, 0, 33, 57
2, 36437, Note_on_c, 0, 40, 51
2, 36510, Note_on_c, 0, 64, 0
2, 36516, Note_on_c, 0, 64, 70
2, 36549, Note_on_c, 0, 40, 0
2, 36560, Note_on_c, 0, 40, 53
2, 36595, Note_on_c, 0, 33, 0
2, 36602, Note_on_c, 0, 45, 0
2, 36602, Note_on_c, 0, 59, 0
2, 36603, Note_on_c, 0, 33, 66
2, 36607, Note_on_c, 0, 45, 65
2, 36613, Note_on_c, 0, 59, 70
2, 36705, Note_on_c, 0, 95, 0
2, 36706, Note_on_c, 0, 83, 0
2, 36706, Note_on_c, 0, 33, 0
2, 36706, Note_on_c, 0, 88, 0
2, 36707, Note_on_c, 0, 71, 0
2, 36707, Note_on_c, 0, 45, 0
2, 36707, Note_on_c, 0, 76, 0
2, 36707, Note_on_c, 0, 59, 0
2, 36712, Control_c, 0, 64, 0
2, 36741, Note_on_c, 0, 40, 0
2, 36748, Note_on_c, 0, 64, 0
2, 36755, Note_on_c, 0, 64, 92
2, 36761, Note_on_c, 0, 59, 86
2, 36766, Note_on_c, 0, 47, 88
2, 36770, Note_on_c, 0, 35, 73
2, 36802, Control_c, 0, 64, 127
2, 36910, Note_on_c, 0, 35, 0
2, 36910, Note_on_c, 0, 47, 0
2, 36915, Note_on_c, 0, 47, 71
2, 36917, Note_on_c, 0, 35, 66
2, 36918, Note_on_c, 0, 42, 59
2, 36920, Note_on_c, 0, 63, 57
2, 36994, Note_on_c, 0, 63, 0
2, 37002, Note_on_c, 0, 35, 0
2, 37002, Note_on_c, 0, 42, 0
2, 37002, Note_on_c, 0, 47, 0
2, 37002, Note_on_c, 0, 59, 0
2, 37003, Note_on_c, 0, 63, 87
2, 37006, Note_on_c, 0, 47, 77
2, 37006, Note_on_c, 0, 35, 72
2, 37007, Note_on_c, 0, 59, 72
2, 37007, Note_on_c, 0, 42, 79
2, 37013, Note_on_c, 0, 64, 0
2, 37036, Control_c, 0, 64, 0
2, 37063, Note_on_c, 0, 63, 0
2, 37086, Note_on_c, 0, 42, 0
2, 37086, Note_on_c, 0, 59, 0
2, 37102, Note_on_c, 0, 47, 0
2, 37117, Note_on_c, 0, 35, 0
2, 37262, Note_on_c, 0, 66, 88
2, 37266, Note_on_c, 0, 63, 81
2, 37267, Note_on_c, 0, 51, 77
2, 37268, Note_on_c, 0, 47, 60
2, 37269, Note_on_c, 0, 42, 69
2, 37269, Note_on_c, 0, 59, 55
2, 37294, Control_c, 0, 64, 127
2, 37562, Note_on_c, 0, 47, 0
2, 37562, Note_on_c, 0, 59, 0
2, 37566, Note_on_c, 0, 64, 78
2, 37567, Note_on_c, 0, 47, 54
2, 37571, Note_on_c, 0, 35, 49
2, 37571, Note_on_c, 0, 59, 51
2, 37578, Note_on_c, 0, 35, 0
2, 37639, Note_on_c, 0, 42, 0
2, 37639, Note_on_c, 0, 47, 0
2, 37647, Note_on_c, 0, 64, 0
2, 37649, Note_on_c, 0, 42, 65
2, 37649, Note_on_c, 0, 47, 67
2, 37650, Note_on_c, 0, 35, 66
2, 37652, Note_on_c, 0, 64, 66
2, 37686, Note_on_c, 0, 51, 0
2, 37688, Note_on_c, 0, 66, 0
2, 37689, Note_on_c, 0, 59, 0
2, 37698, Control_c, 0, 64, 0
2, 37731, Note_on_c, 0, 42, 0
2, 37731, Note_on_c, 0, 47, 0
2, 37731, Note_on_c, 0, 63, 0
2, 37737, Note_on_c, 0, 47, 75
2, 37739, Note_on_c, 0, 63, 83
2, 37742, Note_on_c, 0, 42, 71
2, 37747, Control_c, 0, 64, 127
2, 37870, Note_on_c, 0, 64, 0
2, 37881, Note_on_c, 0, 64, 80
2, 37951, Control_c, 0, 64, 0
2, 37959, Note_on_c, 0, 47, 0
2, 37960, Note_on_c, 0, 63, 0
2, 37961, Note_on_c, 0, 42, 0
2, 37962, Note_on_c, 0, 35, 0
2, 37969, Note_on_c, 0, 64, 0
2, 38023, Note_on_c, 0, 80, 100
2, 38027, Note_on_c, 0, 76, 83
2, 38028, Note_on_c, 0, 68, 95
2, 38030, Note_on_c, 0, 71, 86
2, 38034, Note_on_c, 0, 52, 92
2, 38035, Note_on_c, 0, 40, 89
2, 38046, Control_c, 0, 64, 127
2, 38177, Note_on_c, 0, 52, 0
2, 38187, Note_on_c, 0, 52, 71
2, 38266, Note_on_c, 0, 64, 87
2, 38267, Note_on_c, 0, 81, 99
2, 38271, Note_on_c, 0, 76, 0
2, 38279, Note_on_c, 0, 69, 86
2, 38280, Note_on_c, 0, 56, 70
2, 38397, Note_on_c, 0, 64, 0
2, 38398, Note_on_c, 0, 80, 0
2, 38399, Note_on_c, 0, 71, 0
2, 38399, Note_on_c, 0, 81, 0
2, 38400, Note_on_c, 0, 68, 0
2, 38400, Note_on_c, 0, 69, 0
2, 38401, Note_on_c, 0, 40, 0
2, 38402, Control_c, 0, 64, 0
2, 38402, Note_on_c, 0, 56, 0
2, 38423, Note_on_c, 0, 52, 0
2, 38507, Note_on_c, 0, 78, 103
2, 38512, Note_on_c, 0, 66, 94
2, 38517, Note_on_c, 0, 75, 88
2, 38518, Note_on_c, 0, 51, 84
2, 38518, Note_on_c, 0, 39, 88
2, 38545, Control_c, 0, 64, 127
2, 38730, Control_c, 0, 64, 0
2, 38791, Control_c, 0, 64, 127
2, 38807, Note_on_c, 0, 76, 95
2, 38808, Note_on_c, 0, 54, 75
2, 38902, Note_on_c, 0, 59, 71
2, 38943, Note_on_c, 0, 63, 84
2, 38976, Note_on_c, 0, 66, 0
2, 38979, Note_on_c, 0, 71, 90
2, 38981, Note_on_c, 0, 66, 68
2, 39006, Note_on_c, 0, 59, 0
2, 39017, Note_on_c, 0, 59, 61
2, 39060, Note_on_c, 0, 54, 0
2, 39065, Note_on_c, 0, 54, 75
2, 39233, Control_c, 0, 64, 0
2, 39237, Note_on_c, 0, 51, 0
2, 39240, Note_on_c, 0, 63, 0
2, 39240, Note_on_c, 0, 71, 0
2, 39240, Note_on_c, 0, 78, 0
2, 39240, Note_on_c, 0, 76, 0
2, 39240, Note_on_c, 0, 66, 0
2, 39240, Note_on_c, 0, 54, 0
2, 39242, Note_on_c, 0, 39, 0
2, 39252, Note_on_c, 0, 75, 0
2, 39275, Note_on_c, 0, 64, 92
2, 39275, Note_on_c, 0, 59, 0
2, 39279, Note_on_c, 0, 59, 83
2, 39280, Note_on_c, 0, 32, 79
2, 39281, Note_on_c, 0, 44, 82
2, 39306, Control_c, 0, 64, 127
2, 39429, Note_on_c, 0, 32, 0
2, 39429, Note_on_c, 0, 44, 0
2, 39429, Note_on_c, 0, 59, 0
2, 39433, Note_on_c, 0, 32, 76
2, 39436, Note_on_c, 0, 44, 70
2, 39438, Note_on_c, 0, 59, 69
2, 39505, Note_on_c, 0, 44, 0
2, 39513, Note_on_c, 0, 59, 0
2, 39516, Note_on_c, 0, 63, 83
2, 39516, Note_on_c, 0, 44, 75
2, 39517, Note_on_c, 0, 47, 75
2, 39518, Note_on_c, 0, 59, 63
2, 39524, Note_on_c, 0, 40, 65
2, 39528, Note_on_c, 0, 40, 0
2, 39531, Control_c, 0, 64, 0
2, 39533, Note_on_c, 0, 32, 0
2, 39533, Note_on_c, 0, 64, 0
2, 39547, Note_on_c, 0, 63, 0
2, 39548, Note_on_c, 0, 47, 0
2, 39567, Note_on_c, 0, 59, 0
2, 39575, Note_on_c, 0, 44, 0
2, 39766, Note_on_c, 0, 66, 83
2, 39766, Note_on_c, 0, 63, 78
2, 39771, Note_on_c, 0, 52, 74
2, 39774, Note_on_c, 0, 59, 58
2, 39776, Note_on_c, 0, 44, 66
2, 39776, Note_on_c, 0, 47, 65
2, 39797, Control_c, 0, 64, 127
2, 40073, Note_on_c, 0, 44, 0
2, 40074, Note_on_c, 0, 52, 0
2, 40078, Note_on_c, 0, 64, 73
2, 40084, Note_on_c, 0, 52, 56
2, 40143, Note_on_c, 0, 47, 0
2, 40147, Note_on_c, 0, 40, 54
2, 40154, Note_on_c, 0, 47, 59
2, 40165, Control_c, 0, 64, 0
2, 40167, Note_on_c, 0, 52, 0
2, 40168, Note_on_c, 0, 66, 0
2, 40168, Note_on_c, 0, 63, 0
2, 40169, Note_on_c, 0, 64, 0
2, 40189, Note_on_c, 0, 47, 0
2, 40197, Note_on_c, 0, 59, 0
2, 40212, Note_on_c, 0, 40, 0
2, 40241, Note_on_c, 0, 63, 82
2, 40244, Note_on_c, 0, 44, 72
2, 40244, Note_on_c, 0, 32, 68
2, 40245, Note_on_c, 0, 59, 65
2, 40246, Note_on_c, 0, 47, 66
2, 40266, Control_c, 0, 64, 127
2, 40391, Note_on_c, 0, 64, 74
2, 40465, Note_on_c, 0, 59, 0
2, 40473, Note_on_c, 0, 47, 0
2, 40474, Note_on_c, 0, 59, 81
2, 40475, Note_on_c, 0, 35, 47
2, 40477, Note_on_c, 0, 47, 59
2, 40482, Control_c, 0, 64, 0
2, 40483, Note_on_c, 0, 64, 0
2, 40483, Note_on_c, 0, 63, 0
2, 40488, Note_on_c, 0, 32, 0
2, 40488, Note_on_c, 0, 44, 0
2, 40539, Note_on_c, 0, 59, 0
2, 40550, Note_on_c, 0, 35, 0
2, 40573, Note_on_c, 0, 33, 59
2, 40581, Note_on_c, 0, 45, 49
2, 40596, Control_c, 0, 64, 127
2, 40627, Note_on_c, 0, 47, 0
2, 40633, Note_on_c, 0, 47, 46
2, 40715, Note_on_c, 0, 40, 59
2, 40716, Note_on_c, 0, 59, 72
2, 40765, Note_on_c, 0, 33, 0
2, 40776, Note_on_c, 0, 33, 53
2, 40788, Note_on_c, 0, 45, 0
2, 40788, Note_on_c, 0, 64, 67
2, 40798, Note_on_c, 0, 45, 45
2, 40880, Note_on_c, 0, 33, 0
2, 40889, Note_on_c, 0, 71, 65
2, 40891, Note_on_c, 0, 33, 58
2, 40953, Note_on_c, 0, 76, 72
2, 40972, Note_on_c, 0, 40, 0
2, 40980, Note_on_c, 0, 40, 55
2, 41042, Note_on_c, 0, 83, 76
2, 41049, Note_on_c, 0, 45, 0
2, 41057, Note_on_c, 0, 45, 57
2, 41115, Note_on_c, 0, 88, 81
2, 41172, Note_on_c, 0, 33, 0
2, 41180, Note_on_c, 0, 40, 0
2, 41181, Note_on_c, 0, 95, 87
2, 41182, Note_on_c, 0, 33, 67
2, 41185, Note_on_c, 0, 40, 60
2, 41256, Note_on_c, 0, 88, 0
2, 41261, Note_on_c, 0, 88, 77
2, 41303, Note_on_c, 0, 40, 0
2, 41303, Note_on_c, 0, 83, 0
2, 41314, Note_on_c, 0, 83, 74
2, 41314, Note_on_c, 0, 40, 63
2, 41395, Note_on_c, 0, 45, 0
2, 41402, Note_on_c, 0, 33, 0
2, 41403, Note_on_c, 0, 45, 61
2, 41407, Note_on_c, 0, 33, 68
2, 41410, Note_on_c, 0, 76, 0
2, 41417, Note_on_c, 0, 76, 67
2, 41422, Note_on_c, 0, 74, 69
2, 41487, Note_on_c, 0, 33, 0
2, 41491, Note_on_c, 0, 33, 65
2, 41587, Note_on_c, 0, 40, 0
2, 41594, Note_on_c, 0, 33, 0
2, 41597, Note_on_c, 0, 40, 54
2, 41600, Note_on_c, 0, 33, 61
2, 41602, Note_on_c, 0, 64, 0
2, 41610, Note_on_c, 0, 64, 58
2, 41656, Note_on_c, 0, 33, 0
2, 41656, Note_on_c, 0, 45, 0
2, 41664, Note_on_c, 0, 59, 0
2, 41667, Note_on_c, 0, 45, 66
2, 41667, Note_on_c, 0, 33, 69
2, 41667, Note_on_c, 0, 59, 76
2, 41761, Note_on_c, 0, 95, 0
2, 41762, Note_on_c, 0, 33, 0
2, 41762, Note_on_c, 0, 74, 0
2, 41763, Note_on_c, 0, 88, 0
2, 41763, Note_on_c, 0, 45, 0
2, 41763, Note_on_c, 0, 71, 0
2, 41764, Note_on_c, 0, 76, 0
2, 41764, Note_on_c, 0, 64, 0
2, 41765, Note_on_c, 0, 59, 0
2, 41771, Note_on_c, 0, 47, 0
2, 41771, Note_on_c, 0, 83, 0
2, 41772, Control_c, 0, 64, 0
2, 41786, Note_on_c, 0, 40, 0
2, 41827, Note_on_c, 0, 64, 92
2, 41836, Note_on_c, 0, 47, 87
2, 41836, Note_on_c, 0, 59, 82
2, 41838, Note_on_c, 0, 35, 76
2, 41848, Control_c, 0, 64, 127
2, 41963, Note_on_c, 0, 64, 0
2, 41971, Note_on_c, 0, 35, 0
2, 41971, Note_on_c, 0, 47, 0
2, 41973, Note_on_c, 0, 64, 65
2, 41975, Note_on_c, 0, 47, 65
2, 41975, Note_on_c, 0, 35, 61
2, 42071, Note_on_c, 0, 47, 0
2, 42071, Note_on_c, 0, 59, 0
2, 42073, Control_c, 0, 64, 0
2, 42075, Note_on_c, 0, 63, 87
2, 42079, Note_on_c, 0, 59, 71
2, 42081, Note_on_c, 0, 47, 71
2, 42083, Note_on_c, 0, 42, 68
2, 42090, Note_on_c, 0, 64, 0
2, 42090, Note_on_c, 0, 35, 0
2, 42124, Note_on_c, 0, 59, 0
2, 42124, Note_on_c, 0, 63, 0
2, 42140, Note_on_c, 0, 47, 0
2, 42155, Note_on_c, 0, 42, 0
2, 42249, Note_on_c, 0, 63, 51
2, 42255, Note_on_c, 0, 63, 0
2, 42328, Note_on_c, 0, 66, 85
2, 42331, Note_on_c, 0, 63, 78
2, 42335, Note_on_c, 0, 51, 77
2, 42335, Note_on_c, 0, 47, 63
2, 42343, Note_on_c, 0, 42, 69
2, 42344, Note_on_c, 0, 59, 56
2, 42393, Control_c, 0, 64, 127
2, 42616, Note_on_c, 0, 59, 0
2, 42621, Note_on_c, 0, 64, 77
2, 42627, Note_on_c, 0, 59, 51
2, 42707, Note_on_c, 0, 36, 64
2, 42710, Note_on_c, 0, 35, 64
2, 42716, Note_on_c, 0, 36, 0
2, 42725, Control_c, 0, 64, 0
2, 42747, Note_on_c, 0, 51, 0
2, 42749, Note_on_c, 0, 66, 0
2, 42750, Note_on_c, 0, 59, 0
2, 42777, Note_on_c, 0, 47, 0
2, 42785, Note_on_c, 0, 42, 0
2, 42785, Note_on_c, 0, 63, 0
2, 42786, Note_on_c, 0, 47, 76
2, 42789, Note_on_c, 0, 63, 82
2, 42793, Note_on_c, 0, 42, 71
2, 42808, Control_c, 0, 64, 127
2, 42877, Note_on_c, 0, 64, 0
2, 42932, Note_on_c, 0, 64, 77
2, 42994, Note_on_c, 0, 63, 0
2, 42995, Note_on_c, 0, 64, 0
2, 42999, Control_c, 0, 64, 0
2, 43003, Note_on_c, 0, 47, 0
2, 43023, Note_on_c, 0, 35, 0
2, 43038, Note_on_c, 0, 42, 0
2, 43083, Note_on_c, 0, 80, 92
2, 43086, Note_on_c, 0, 75, 84
2, 43087, Note_on_c, 0, 76, 84
2, 43087, Note_on_c, 0, 40, 90
2, 43087, Note_on_c, 0, 52, 87
2, 43088, Note_on_c, 0, 68, 91
2, 43089, Note_on_c, 0, 71, 77
2, 43100, Control_c, 0, 64, 127
2, 43238, Note_on_c, 0, 52, 0
2, 43238, Note_on_c, 0, 76, 0
2, 43243, Note_on_c, 0, 76, 57
2, 43246, Note_on_c, 0, 52, 62
2, 43327, Note_on_c, 0, 81, 95
2, 43328, Note_on_c, 0, 64, 76
2, 43334, Note_on_c, 0, 56, 70
2, 43340, Note_on_c, 0, 69, 81
2, 43341, Note_on_c, 0, 76, 0
2, 43464, Control_c, 0, 64, 0
2, 43465, Note_on_c, 0, 80, 0
2, 43465, Note_on_c, 0, 81, 0
2, 43466, Note_on_c, 0, 69, 0
2, 43466, Note_on_c, 0, 56, 0
2, 43467, Note_on_c, 0, 68, 0
2, 43468, Note_on_c, 0, 71, 0
2, 43476, Note_on_c, 0, 40, 0
2, 43476, Note_on_c, 0, 52, 0
2, 43484, Note_on_c, 0, 64, 0
2, 43484, Note_on_c, 0, 75, 0
2, 43567, Note_on_c, 0, 80, 99
2, 43573, Note_on_c, 0, 39, 88
2, 43575, Note_on_c, 0, 68, 95
2, 43576, Note_on_c, 0, 75, 87
2, 43576, Note_on_c, 0, 51, 87
2, 43581, Note_on_c, 0, 71, 65
2, 43607, Control_c, 0, 64, 127
2, 43885, Note_on_c, 0, 54, 78
2, 43885, Note_on_c, 0, 78, 91
2, 43887, Note_on_c, 0, 42, 71
2, 43893, Note_on_c, 0, 66, 87
2, 43971, Note_on_c, 0, 59, 68
2, 44010, Note_on_c, 0, 63, 82
2, 44044, Note_on_c, 0, 66, 0
2, 44044, Note_on_c, 0, 75, 0
2, 44044, Note_on_c, 0, 78, 0
2, 44049, Note_on_c, 0, 78, 95
2, 44050, Note_on_c, 0, 66, 82
2, 44052, Note_on_c, 0, 75, 84
2, 44075, Note_on_c, 0, 71, 0
2, 44083, Note_on_c, 0, 59, 0
2, 44084, Note_on_c, 0, 71, 55
2, 44093, Note_on_c, 0, 59, 66
2, 44136, Note_on_c, 0, 54, 0
2, 44141, Note_on_c, 0, 54, 73
2, 44160, Note_on_c, 0, 42, 0
2, 44303, Control_c, 0, 64, 0
2, 44307, Note_on_c, 0, 63, 0
2, 44307, Note_on_c, 0, 71, 0
2, 44308, Note_on_c, 0, 51, 0
2, 44308, Note_on_c, 0, 66, 0
2, 44308, Note_on_c, 0, 68, 0
2, 44308, Note_on_c, 0, 59, 0
2, 44308, Note_on_c, 0, 80, 0
2, 44308, Note_on_c, 0, 78, 0
2, 44308, Note_on_c, 0, 39, 0
2, 44308, Note_on_c, 0, 75, 0
2, 44321, Note_on_c, 0, 54, 0
2, 44354, Note_on_c, 0, 49, 74
2, 44355, Note_on_c, 0, 37, 73
2, 44459, Control_c, 0, 64, 127
2, 44508, Note_on_c, 0, 66, 79
2, 44509, Control_c, 0, 64, 0
2, 44510, Note_on_c, 0, 63, 60
2, 44515, Note_on_c, 0, 59, 58
2, 44538, Note_on_c, 0, 49, 0
2, 44540, Note_on_c, 0, 63, 0
2, 44547, Note_on_c, 0, 66, 0
2, 44559, Note_on_c, 0, 37, 0
2, 44570, Note_on_c, 0, 37, 72
2, 44662, Note_on_c, 0, 66, 87
2, 44666, Note_on_c, 0, 59, 0
2, 44669, Note_on_c, 0, 63, 72
2, 44672, Note_on_c, 0, 59, 66
2, 44675, Note_on_c, 0, 52, 75
2, 44676, Note_on_c, 0, 44, 63
2, 44697, Control_c, 0, 64, 127
2, 44801, Note_on_c, 0, 64, 78
2, 44815, Control_c, 0, 64, 0
2, 44818, Note_on_c, 0, 66, 0
2, 44820, Note_on_c, 0, 44, 0
2, 44820, Note_on_c, 0, 59, 0
2, 44823, Note_on_c, 0, 49, 59
2, 44824, Note_on_c, 0, 44, 43
2, 44824, Note_on_c, 0, 59, 54
2, 44851, Note_on_c, 0, 63, 0
2, 44874, Note_on_c, 0, 37, 0
2, 44874, Note_on_c, 0, 64, 0
2, 44906, Note_on_c, 0, 66, 86
2, 44911, Note_on_c, 0, 63, 74
2, 44912, Note_on_c, 0, 59, 0
2, 44914, Note_on_c, 0, 51, 68
2, 44920, Note_on_c, 0, 44, 0
2, 44920, Note_on_c, 0, 49, 0
2, 44920, Note_on_c, 0, 51, 0
2, 44920, Note_on_c, 0, 52, 0
2, 44923, Note_on_c, 0, 59, 64
2, 44929, Note_on_c, 0, 44, 59
2, 44929, Note_on_c, 0, 49, 61
2, 44931, Note_on_c, 0, 52, 66
2, 44936, Note_on_c, 0, 66, 0
2, 44966, Note_on_c, 0, 63, 0
2, 45012, Note_on_c, 0, 59, 0
2, 45073, Note_on_c, 0, 44, 0
2, 45073, Note_on_c, 0, 52, 0
2, 45075, Note_on_c, 0, 66, 77
2, 45076, Note_on_c, 0, 63, 76
2, 45078, Note_on_c, 0, 59, 67
2, 45079, Note_on_c, 0, 51, 64
2, 45084, Note_on_c, 0, 52, 69
2, 45085, Note_on_c, 0, 44, 62
2, 45089, Note_on_c, 0, 51, 0
2, 45108, Note_on_c, 0, 59, 0
2, 45108, Note_on_c, 0, 66, 0
2, 45135, Note_on_c, 0, 63, 0
2, 45143, Note_on_c, 0, 49, 0
2, 45143, Note_on_c, 0, 52, 0
2, 45195, Note_on_c, 0, 66, 80
2, 45199, Note_on_c, 0, 63, 65
2, 45204, Note_on_c, 0, 44, 0
2, 45209, Note_on_c, 0, 56, 54
2, 45214, Note_on_c, 0, 37, 74
2, 45217, Note_on_c, 0, 49, 59
2, 45228, Note_on_c, 0, 66, 0
2, 45230, Note_on_c, 0, 63, 0
2, 45242, Note_on_c, 0, 49, 0
2, 45242, Note_on_c, 0, 56, 0
2, 45290, Note_on_c, 0, 68, 92
2, 45295, Note_on_c, 0, 49, 76
2, 45296, Note_on_c, 0, 64, 71
2, 45299, Note_on_c, 0, 52, 78
2, 45301, Note_on_c, 0, 59, 71
2, 45319, Control_c, 0, 64, 127
2, 45442, Note_on_c, 0, 64, 0
2, 45450, Note_on_c, 0, 37, 0
2, 45450, Note_on_c, 0, 49, 0
2, 45450, Note_on_c, 0, 52, 0
2, 45453, Note_on_c, 0, 64, 86
2, 45455, Note_on_c, 0, 49, 67
2, 45456, Note_on_c, 0, 37, 70
2, 45457, Note_on_c, 0, 56, 65
2, 45460, Note_on_c, 0, 52, 65
2, 45469, Control_c, 0, 64, 0
2, 45487, Note_on_c, 0, 59, 0
2, 45493, Note_on_c, 0, 68, 0
2, 45542, Note_on_c, 0, 49, 0
2, 45542, Note_on_c, 0, 52, 0
2, 45557, Note_on_c, 0, 56, 0
2, 45557, Note_on_c, 0, 64, 0
2, 45580, Note_on_c, 0, 37, 0
2, 45589, Note_on_c, 0, 49, 80
2, 45590, Note_on_c, 0, 37, 76
2, 45731, Note_on_c, 0, 78, 89
2, 45737, Note_on_c, 0, 75, 73
2, 45737, Note_on_c, 0, 66, 78
2, 45738, Note_on_c, 0, 71, 66
2, 45772, Note_on_c, 0, 49, 0
2, 45795, Note_on_c, 0, 66, 0
2, 45803, Note_on_c, 0, 37, 0
2, 45809, Note_on_c, 0, 37, 77
2, 45812, Note_on_c, 0, 49, 63
2, 45888, Note_on_c, 0, 78, 0
2, 45894, Note_on_c, 0, 78, 96
2, 45895, Note_on_c, 0, 75, 0
2, 45897, Note_on_c, 0, 66, 91
2, 45902, Note_on_c, 0, 75, 66
2, 45903, Note_on_c, 0, 49, 0
2, 45908, Note_on_c, 0, 49, 73
2, 45908, Note_on_c, 0, 52, 84
2, 45913, Note_on_c, 0, 44, 74
2, 46033, Note_on_c, 0, 49, 0
2, 46040, Note_on_c, 0, 64, 74
2, 46041, Note_on_c, 0, 76, 89
2, 46041, Note_on_c, 0, 37, 0
2, 46045, Note_on_c, 0, 49, 65
2, 46045, Note_on_c, 0, 37, 70
2, 46095, Note_on_c, 0, 52, 0
2, 46103, Note_on_c, 0, 66, 0
2, 46126, Note_on_c, 0, 78, 0
2, 46133, Note_on_c, 0, 49, 0
2, 46133, Note_on_c, 0, 75, 0
2, 46135, Note_on_c, 0, 78, 99
2, 46140, Note_on_c, 0, 66, 91
2, 46141, Note_on_c, 0, 44, 0
2, 46141, Note_on_c, 0, 71, 0
2, 46144, Note_on_c, 0, 75, 69
2, 46145, Note_on_c, 0, 49, 72
2, 46148, Note_on_c, 0, 52, 66
2, 46149, Note_on_c, 0, 44, 67
2, 46150, Note_on_c, 0, 71, 65
2, 46179, Note_on_c, 0, 76, 0
2, 46187, Note_on_c, 0, 64, 0
2, 46202, Note_on_c, 0, 66, 0
2, 46202, Note_on_c, 0, 78, 0
2, 46295, Note_on_c, 0, 52, 0
2, 46296, Note_on_c, 0, 78, 101
2, 46302, Note_on_c, 0, 52, 64
2, 46304, Note_on_c, 0, 66, 80
2, 46310, Note_on_c, 0, 71, 0
2, 46319, Note_on_c, 0, 71, 55
2, 46425, Note_on_c, 0, 66, 0
2, 46425, Note_on_c, 0, 75, 0
2, 46425, Note_on_c, 0, 78, 0
2, 46429, Note_on_c, 0, 78, 88
2, 46433, Note_on_c, 0, 37, 0
2, 46433, Note_on_c, 0, 49, 0
2, 46433, Note_on_c, 0, 71, 0
2, 46435, Note_on_c, 0, 75, 74
2, 46436, Note_on_c, 0, 66, 82
2, 46437, Note_on_c, 0, 71, 63
2, 46438, Note_on_c, 0, 49, 67
2, 46439, Note_on_c, 0, 37, 76
2, 46464, Note_on_c, 0, 44, 0
2, 46479, Note_on_c, 0, 66, 0
2, 46479, Note_on_c, 0, 75, 0
2, 46479, Note_on_c, 0, 78, 0
2, 46494, Note_on_c, 0, 52, 0
2, 46510, Note_on_c, 0, 71, 0
2, 46513, Note_on_c, 0, 75, 99
2, 46514, Note_on_c, 0, 66, 101
2, 46517, Note_on_c, 0, 49, 0
2, 46521, Note_on_c, 0, 71, 81
2, 46525, Note_on_c, 0, 49, 75
2, 46536, Note_on_c, 0, 44, 66
2, 46539, Note_on_c, 0, 52, 66
2, 46556, Control_c, 0, 64, 127
2, 46679, Note_on_c, 0, 71, 0
2, 46682, Note_on_c, 0, 83, 96
2, 46689, Note_on_c, 0, 71, 71
2, 46694, Note_on_c, 0, 66, 0
2, 46699, Note_on_c, 0, 66, 62
2, 46817, Note_on_c, 0, 37, 0
2, 46817, Note_on_c, 0, 49, 0
2, 46821, Note_on_c, 0, 52, 0
2, 46824, Note_on_c, 0, 61, 68
2, 46828, Note_on_c, 0, 37, 76
2, 46828, Note_on_c, 0, 75, 0
2, 46828, Note_on_c, 0, 49, 74
2, 46830, Control_c, 0, 64, 0
2, 46832, Note_on_c, 0, 71, 0
2, 46832, Note_on_c, 0, 66, 0
2, 46833, Note_on_c, 0, 44, 0
2, 46855, Note_on_c, 0, 83, 0
2, 46878, Note_on_c, 0, 61, 0
2, 46901, Note_on_c, 0, 37, 0
2, 46901, Note_on_c, 0, 49, 0
2, 46975, Note_on_c, 0, 66, 84
2, 46980, Note_on_c, 0, 63, 73
2, 46984, Note_on_c, 0, 59, 64
2, 46985, Note_on_c, 0, 49, 60
2, 47006, Note_on_c, 0, 63, 0
2, 47051, Note_on_c, 0, 37, 63
2, 47063, Note_on_c, 0, 66, 0
2, 47132, Note_on_c, 0, 59, 0
2, 47132, Note_on_c, 0, 66, 86
2, 47135, Note_on_c, 0, 63, 81
2, 47139, Note_on_c, 0, 49, 0
2, 47142, Note_on_c, 0, 52, 83
2, 47142, Note_on_c, 0, 59, 70
2, 47144, Note_on_c, 0, 44, 66
2, 47278, Note_on_c, 0, 52, 0
2, 47280, Note_on_c, 0, 64, 76
2, 47285, Note_on_c, 0, 59, 0
2, 47285, Control_c, 0, 64, 127
2, 47289, Note_on_c, 0, 52, 54
2, 47292, Note_on_c, 0, 59, 44
2, 47293, Note_on_c, 0, 37, 0
2, 47294, Note_on_c, 0, 49, 61
2, 47301, Note_on_c, 0, 44, 0
2, 47301, Note_on_c, 0, 63, 0
2, 47301, Note_on_c, 0, 66, 0
2, 47302, Control_c, 0, 64, 0
2, 47303, Note_on_c, 0, 37, 66
2, 47347, Note_on_c, 0, 64, 0
2, 47354, Note_on_c, 0, 52, 0
2, 47354, Note_on_c, 0, 59, 0
2, 47381, Note_on_c, 0, 66, 86
2, 47385, Note_on_c, 0, 49, 0
2, 47389, Note_on_c, 0, 63, 68
2, 47395, Note_on_c, 0, 59, 68
2, 47396, Note_on_c, 0, 49, 68
2, 47398, Note_on_c, 0, 44, 65
2, 47399, Note_on_c, 0, 52, 74
2, 47434, Note_on_c, 0, 66, 0
2, 47447, Note_on_c, 0, 37, 0
2, 47470, Note_on_c, 0, 49, 0
2, 47493, Note_on_c, 0, 63, 0
2, 47508, Note_on_c, 0, 44, 0
2, 47541, Note_on_c, 0, 66, 78
2, 47546, Note_on_c, 0, 52, 0
2, 47546, Note_on_c, 0, 59, 0
2, 47551, Note_on_c, 0, 49, 57
2, 47552, Note_on_c, 0, 59, 60
2, 47556, Note_on_c, 0, 63, 59
2, 47556, Note_on_c, 0, 52, 66
2, 47559, Note_on_c, 0, 56, 44
2, 47559, Note_on_c, 0, 44, 50
2, 47574, Note_on_c, 0, 66, 0
2, 47582, Note_on_c, 0, 52, 0
2, 47597, Note_on_c, 0, 49, 0
2, 47600, Note_on_c, 0, 63, 0
2, 47608, Note_on_c, 0, 44, 0
2, 47608, Note_on_c, 0, 56, 0
2, 47646, Note_on_c, 0, 59, 0
2, 47666, Note_on_c, 0, 66, 85
2, 47671, Note_on_c, 0, 63, 79
2, 47673, Note_on_c, 0, 49, 64
2, 47674, Note_on_c, 0, 37, 77
2, 47715, Note_on_c, 0, 63, 0
2, 47723, Note_on_c, 0, 66, 0
2, 47731, Control_c, 0, 64, 127
2, 47753, Note_on_c, 0, 68, 93
2, 47754, Note_on_c, 0, 49, 0
2, 47758, Note_on_c, 0, 49, 76
2, 47759, Note_on_c, 0, 52, 83
2, 47760, Note_on_c, 0, 64, 77
2, 47764, Note_on_c, 0, 59, 79
2, 47765, Note_on_c, 0, 40, 71
2, 47777, Note_on_c, 0, 40, 0
2, 47861, Control_c, 0, 64, 0
2, 47892, Note_on_c, 0, 64, 0
2, 47900, Note_on_c, 0, 37, 0
2, 47900, Note_on_c, 0, 52, 0
2, 47903, Note_on_c, 0, 64, 86
2, 47904, Note_on_c, 0, 37, 72
2, 47906, Note_on_c, 0, 52, 69
2, 47911, Note_on_c, 0, 56, 66
2, 47917, Note_on_c, 0, 44, 57
2, 47919, Note_on_c, 0, 59, 0
2, 47932, Note_on_c, 0, 68, 0
2, 47976, Note_on_c, 0, 49, 0
2, 48007, Note_on_c, 0, 64, 0
2, 48038, Note_on_c, 0, 44, 0
2, 48046, Note_on_c, 0, 37, 0
2, 48048, Note_on_c, 0, 88, 100
2, 48049, Note_on_c, 0, 49, 88
2, 48050, Note_on_c, 0, 37, 90
2, 48050, Note_on_c, 0, 76, 99
2, 48084, Control_c, 0, 64, 127
2, 48117, Note_on_c, 0, 83, 66
2, 48192, Note_on_c, 0, 56, 0
2, 48199, Note_on_c, 0, 52, 0
2, 48199, Control_c, 0, 64, 0
2, 48210, Note_on_c, 0, 80, 70
2, 48268, Note_on_c, 0, 49, 0
2, 48276, Note_on_c, 0, 76, 0
2, 48276, Note_on_c, 0, 88, 0
2, 48285, Note_on_c, 0, 44, 94
2, 48286, Note_on_c, 0, 32, 89
2, 48287, Note_on_c, 0, 88, 100
2, 48287, Note_on_c, 0, 76, 94
2, 48314, Control_c, 0, 64, 127
2, 48322, Note_on_c, 0, 37, 0
2, 48341, Note_on_c, 0, 44, 0
2, 48367, Control_c, 0, 64, 0
2, 48368, Note_on_c, 0, 83, 0
2, 48374, Note_on_c, 0, 83, 65
2, 48376, Note_on_c, 0, 80, 0
2, 48382, Note_on_c, 0, 80, 61
2, 48391, Note_on_c, 0, 32, 0
2, 48399, Note_on_c, 0, 88, 0
2, 48405, Note_on_c, 0, 88, 60
2, 48460, Note_on_c, 0, 80, 0
2, 48467, Note_on_c, 0, 80, 69
2, 48468, Note_on_c, 0, 76, 0
2, 48522, Note_on_c, 0, 88, 0
2, 48526, Note_on_c, 0, 47, 87
2, 48528, Note_on_c, 0, 88, 99
2, 48528, Note_on_c, 0, 76, 94
2, 48529, Note_on_c, 0, 35, 83
2, 48599, Note_on_c, 0, 47, 0
2, 48606, Note_on_c, 0, 83, 0
2, 48606, Control_c, 0, 64, 127
2, 48610, Note_on_c, 0, 83, 82
2, 48691, Note_on_c, 0, 80, 0
2, 48701, Note_on_c, 0, 80, 66
2, 48744, Note_on_c, 0, 35, 0
2, 48744, Note_on_c, 0, 88, 0
2, 48744, Control_c, 0, 64, 0
2, 48755, Note_on_c, 0, 88, 96
2, 48760, Note_on_c, 0, 76, 0
2, 48767, Note_on_c, 0, 76, 89
2, 48770, Note_on_c, 0, 30, 94
2, 48771, Note_on_c, 0, 42, 93
2, 48772, Note_on_c, 0, 32, 85
2, 48773, Note_on_c, 0, 84, 78
2, 48860, Note_on_c, 0, 80, 0
2, 48864, Note_on_c, 0, 80, 91
2, 48906, Note_on_c, 0, 84, 0
2, 48936, Note_on_c, 0, 83, 0
2, 48952, Note_on_c, 0, 30, 0
2, 48952, Note_on_c, 0, 42, 0
2, 48952, Note_on_c, 0, 76, 0
2, 48975, Note_on_c, 0, 88, 0
2, 48990, Note_on_c, 0, 32, 0
2, 49001, Note_on_c, 0, 32, 90
2, 49003, Note_on_c, 0, 78, 100
2, 49005, Note_on_c, 0, 90, 102
2, 49044, Note_on_c, 0, 80, 0
2, 49067, Note_on_c, 0, 78, 0
2, 49113, Note_on_c, 0, 90, 0
2, 49128, Note_on_c, 0, 32, 0
2, 49165, Note_on_c, 0, 39, 79
2, 49167, Note_on_c, 0, 27, 84
2, 49167, Note_on_c, 0, 92, 102
2, 49170, Note_on_c, 0, 80, 97
2, 49221, Note_on_c, 0, 39, 0
2, 49323, Note_on_c, 0, 37, 90
2, 49323, Note_on_c, 0, 25, 92
2, 49344, Note_on_c, 0, 80, 0
2, 49436, Note_on_c, 0, 92, 0
2, 49479, Note_on_c, 0, 66, 88
2, 49485, Note_on_c, 0, 63, 76
2, 49486, Note_on_c, 0, 39, 61
2, 49486, Note_on_c, 0, 59, 58
2, 49488, Note_on_c, 0, 49, 61
2, 49491, Note_on_c, 0, 42, 67
2, 49497, Note_on_c, 0, 42, 0
2, 49497, Note_on_c, 0, 49, 0
2, 49628, Note_on_c, 0, 66, 0
2, 49635, Note_on_c, 0, 27, 0
2, 49635, Note_on_c, 0, 59, 0
2, 49639, Note_on_c, 0, 66, 90
2, 49646, Note_on_c, 0, 59, 73
2, 49651, Note_on_c, 0, 39, 0
2, 49655, Note_on_c, 0, 52, 77
2, 49655, Note_on_c, 0, 49, 65
2, 49657, Note_on_c, 0, 44, 64
2, 49704, Note_on_c, 0, 63, 0
2, 49796, Note_on_c, 0, 64, 77
2, 49797, Note_on_c, 0, 44, 0
2, 49810, Note_on_c, 0, 37, 0
2, 49820, Note_on_c, 0, 25, 0
2, 49827, Note_on_c, 0, 66, 0
2, 49835, Note_on_c, 0, 49, 0
2, 49835, Note_on_c, 0, 52, 0
2, 49835, Note_on_c, 0, 59, 0
2, 49850, Note_on_c, 0, 64, 0
2, 49891, Note_on_c, 0, 66, 92
2, 49894, Note_on_c, 0, 59, 73
2, 49899, Note_on_c, 0, 63, 75
2, 49899, Note_on_c, 0, 51, 70
2, 49900, Note_on_c, 0, 44, 69
2, 49924, Note_on_c, 0, 59, 0
2, 49925, Note_on_c, 0, 66, 0
2, 49929, Note_on_c, 0, 63, 0
2, 49930, Note_on_c, 0, 44, 0
2, 49943, Note_on_c, 0, 51, 0
2, 50054, Note_on_c, 0, 66, 83
2, 50056, Note_on_c, 0, 63, 75
2, 50062, Note_on_c, 0, 59, 63
2, 50071, Note_on_c, 0, 51, 51
2, 50085, Note_on_c, 0, 63, 0
2, 50112, Note_on_c, 0, 66, 0
2, 50135, Note_on_c, 0, 51, 0
2, 50200, Note_on_c, 0, 63, 71
2, 50205, Note_on_c, 0, 66, 73
2, 50208, Note_on_c, 0, 37, 71
2, 50209, Note_on_c, 0, 49, 60
2, 50234, Note_on_c, 0, 59, 0
2, 50257, Note_on_c, 0, 63, 0
2, 50280, Note_on_c, 0, 49, 0
2, 50285, Note_on_c, 0, 68, 94
2, 50290, Note_on_c, 0, 52, 86
2, 50292, Note_on_c, 0, 49, 73
2, 50292, Note_on_c, 0, 61, 60
2, 50292, Note_on_c, 0, 64, 73
2, 50299, Note_on_c, 0, 44, 65
2, 50300, Note_on_c, 0, 59, 71
2, 50319, Note_on_c, 0, 66, 0
2, 50350, Control_c, 0, 64, 127
2, 50434, Note_on_c, 0, 37, 0
2, 50434, Note_on_c, 0, 52, 0
2, 50434, Note_on_c, 0, 64, 0
2, 50439, Note_on_c, 0, 37, 64
2, 50440, Note_on_c, 0, 64, 83
2, 50445, Note_on_c, 0, 52, 65
2, 50522, Control_c, 0, 64, 0
2, 50523, Note_on_c, 0, 68, 0
2, 50524, Note_on_c, 0, 52, 0
2, 50525, Note_on_c, 0, 64, 0
2, 50525, Note_on_c, 0, 59, 0
2, 50526, Note_on_c, 0, 49, 0
2, 50528, Note_on_c, 0, 37, 0
2, 50528, Note_on_c, 0, 44, 0
2, 50542, Note_on_c, 0, 61, 0
2, 50585, Note_on_c, 0, 49, 81
2, 50586, Note_on_c, 0, 37, 77
2, 50737, Note_on_c, 0, 78, 95
2, 50739, Note_on_c, 0, 66, 81
2, 50743, Note_on_c, 0, 75, 69
2, 50880, Note_on_c, 0, 66, 0
2, 50880, Note_on_c, 0, 78, 0
2, 50887, Note_on_c, 0, 75, 0
2, 50890, Note_on_c, 0, 78, 99
2, 50891, Note_on_c, 0, 66, 93
2, 50893, Note_on_c, 0, 75, 75
2, 50915, Note_on_c, 0, 52, 83
2, 50918, Control_c, 0, 64, 127
2, 50921, Note_on_c, 0, 44, 66
2, 50949, Note_on_c, 0, 37, 0
2, 51048, Note_on_c, 0, 49, 0
2, 51052, Note_on_c, 0, 76, 87
2, 51056, Note_on_c, 0, 49, 63
2, 51059, Note_on_c, 0, 37, 74
2, 51068, Control_c, 0, 64, 0
2, 51110, Note_on_c, 0, 37, 0
2, 51133, Note_on_c, 0, 78, 0
2, 51137, Note_on_c, 0, 78, 101
2, 51141, Note_on_c, 0, 49, 0
2, 51141, Note_on_c, 0, 66, 0
2, 51141, Note_on_c, 0, 75, 0
2, 51148, Note_on_c, 0, 44, 0
2, 51148, Note_on_c, 0, 52, 0
2, 51149, Note_on_c, 0, 75, 71
2, 51151, Note_on_c, 0, 49, 72
2, 51151, Note_on_c, 0, 66, 84
2, 51153, Note_on_c, 0, 44, 72
2, 51156, Note_on_c, 0, 52, 74
2, 51158, Note_on_c, 0, 71, 69
2, 51210, Note_on_c, 0, 66, 0
2, 51212, Note_on_c, 0, 52, 0
2, 51217, Note_on_c, 0, 76, 0
2, 51233, Note_on_c, 0, 78, 0
2, 51240, Note_on_c, 0, 75, 0
2, 51256, Note_on_c, 0, 71, 0
2, 51271, Note_on_c, 0, 44, 0
2, 51300, Note_on_c, 0, 78, 95
2, 51309, Note_on_c, 0, 66, 76
2, 51314, Note_on_c, 0, 75, 63
2, 51314, Note_on_c, 0, 71, 58
2, 51320, Note_on_c, 0, 52, 69
2, 51328, Note_on_c, 0, 44, 55
2, 51345, Note_on_c, 0, 66, 0
2, 51348, Note_on_c, 0, 52, 0
2, 51356, Note_on_c, 0, 49, 0
2, 51409, Note_on_c, 0, 44, 0
2, 51409, Note_on_c, 0, 71, 0
2, 51425, Note_on_c, 0, 78, 0
2, 51432, Note_on_c, 0, 75, 0
2, 51434, Note_on_c, 0, 78, 96
2, 51442, Note_on_c, 0, 66, 83
2, 51444, Note_on_c, 0, 75, 69
2, 51459, Note_on_c, 0, 49, 62
2, 51459, Note_on_c, 0, 37, 75
2, 51509, Note_on_c, 0, 66, 0
2, 51509, Note_on_c, 0, 75, 0
2, 51516, Note_on_c, 0, 66, 97
2, 51519, Note_on_c, 0, 75, 94
2, 51525, Note_on_c, 0, 49, 0
2, 51529, Note_on_c, 0, 49, 73
2, 51532, Note_on_c, 0, 71, 71
2, 51539, Note_on_c, 0, 52, 73
2, 51540, Control_c, 0, 64, 127
2, 51685, Note_on_c, 0, 83, 101
2, 51686, Note_on_c, 0, 49, 0
2, 51686, Note_on_c, 0, 71, 0
2, 51696, Note_on_c, 0, 71, 72
2, 51696, Note_on_c, 0, 49, 66
2, 51698, Note_on_c, 0, 52, 0
2, 51701, Note_on_c, 0, 37, 0
2, 51711, Note_on_c, 0, 37, 58
2, 51778, Note_on_c, 0, 66, 0
2, 51780, Note_on_c, 0, 75, 0
2, 51789, Control_c, 0, 64, 0
2, 51793, Note_on_c, 0, 78, 0
2, 51816, Note_on_c, 0, 49, 0
2, 51824, Note_on_c, 0, 37, 0
2, 51827, Note_on_c, 0, 49, 82
2, 51828, Note_on_c, 0, 37, 77
2, 51901, Note_on_c, 0, 37, 0
2, 51901, Note_on_c, 0, 49, 0
2, 51947, Note_on_c, 0, 83, 0
2, 51974, Note_on_c, 0, 66, 86
2, 51978, Note_on_c, 0, 59, 69
2, 51979, Note_on_c, 0, 63, 66
2, 52024, Note_on_c, 0, 63, 0
2, 52032, Note_on_c, 0, 66, 0
2, 52032, Note_on_c, 0, 71, 0
2, 52058, Note_on_c, 0, 37, 70
2, 52128, Note_on_c, 0, 66, 89
2, 52131, Note_on_c, 0, 59, 0
2, 52133, Note_on_c, 0, 63, 83
2, 52137, Note_on_c, 0, 59, 72
2, 52142, Note_on_c, 0, 44, 71
2, 52142, Note_on_c, 0, 52, 82
2, 52154, Control_c, 0, 64, 127
2, 52268, Note_on_c, 0, 64, 76
2, 52285, Note_on_c, 0, 37, 0
2, 52291, Note_on_c, 0, 49, 65
2, 52292, Note_on_c, 0, 37, 68
2, 52314, Control_c, 0, 64, 0
2, 52362, Note_on_c, 0, 66, 0
2, 52369, Note_on_c, 0, 59, 0
2, 52370, Note_on_c, 0, 66, 79
2, 52376, Note_on_c, 0, 59, 69
2, 52377, Note_on_c, 0, 63, 0
2, 52381, Note_on_c, 0, 63, 59
2, 52385, Note_on_c, 0, 52, 0
2, 52392, Note_on_c, 0, 44, 0
2, 52396, Note_on_c, 0, 52, 69
2, 52397, Note_on_c, 0, 44, 53
2, 52531, Note_on_c, 0, 66, 0
2, 52538, Note_on_c, 0, 63, 0
2, 52541, Note_on_c, 0, 66, 77
2, 52543, Note_on_c, 0, 63, 69
2, 52546, Note_on_c, 0, 52, 0
2, 52546, Note_on_c, 0, 59, 0
2, 52550, Note_on_c, 0, 59, 60
2, 52555, Note_on_c, 0, 52, 70
2, 52600, Control_c, 0, 64, 127
2, 52608, Control_c, 0, 64, 0
2, 52631, Note_on_c, 0, 49, 0
2, 52654, Note_on_c, 0, 66, 0
2, 52659, Note_on_c, 0, 66, 82
2, 52661, Note_on_c, 0, 59, 0
2, 52661, Note_on_c, 0, 63, 0
2, 52666, Note_on_c, 0, 63, 76
2, 52667, Note_on_c, 0, 59, 56
2, 52677, Note_on_c, 0, 37, 0
2, 52688, Note_on_c, 0, 37, 75
2, 52752, Note_on_c, 0, 68, 92
2, 52753, Note_on_c, 0, 52, 0
2, 52753, Note_on_c, 0, 64, 0
2, 52753, Control_c, 0, 64, 127
2, 52759, Note_on_c, 0, 49, 71
2, 52760, Note_on_c, 0, 64, 74
2, 52761, Note_on_c, 0, 44, 0
2, 52761, Note_on_c, 0, 59, 0
2, 52762, Note_on_c, 0, 52, 79
2, 52765, Note_on_c, 0, 44, 63
2, 52766, Note_on_c, 0, 59, 67
2, 52892, Note_on_c, 0, 52, 0
2, 52892, Note_on_c, 0, 64, 0
2, 52899, Note_on_c, 0, 37, 0
2, 52901, Note_on_c, 0, 52, 69
2, 52903, Note_on_c, 0, 64, 81
2, 52906, Note_on_c, 0, 37, 77
2, 52946, Note_on_c, 0, 52, 0
2, 52948, Note_on_c, 0, 59, 0
2, 52949, Note_on_c, 0, 49, 0
2, 52950, Note_on_c, 0, 44, 0
2, 52950, Note_on_c, 0, 68, 0
2, 52953, Note_on_c, 0, 63, 0
2, 52961, Note_on_c, 0, 66, 0
2, 52962, Control_c, 0, 64, 0
2, 52992, Note_on_c, 0, 64, 0
2, 53057, Note_on_c, 0, 33, 86
2, 53058, Note_on_c, 0, 85, 98
2, 53058, Note_on_c, 0, 45, 87
2, 53064, Note_on_c, 0, 76, 78
2, 53064, Note_on_c, 0, 73, 91
2, 53107, Control_c, 0, 64, 127
2, 53145, Note_on_c, 0, 37, 0
2, 53152, Note_on_c, 0, 81, 78
2, 53214, Note_on_c, 0, 76, 0
2, 53225, Note_on_c, 0, 76, 70
2, 53291, Note_on_c, 0, 85, 0
2, 53302, Note_on_c, 0, 85, 97
2, 53304, Note_on_c, 0, 57, 74
2, 53306, Note_on_c, 0, 73, 0
2, 53311, Note_on_c, 0, 73, 82
2, 53314, Note_on_c, 0, 49, 84
2, 53316, Note_on_c, 0, 52, 65
2, 53422, Note_on_c, 0, 76, 0
2, 53426, Note_on_c, 0, 76, 76
2, 53437, Note_on_c, 0, 33, 0
2, 53454, Note_on_c, 0, 52, 0
2, 53454, Note_on_c, 0, 73, 0
2, 53455, Note_on_c, 0, 85, 0
2, 53455, Note_on_c, 0, 49, 0
2, 53458, Control_c, 0, 64, 0
2, 53468, Note_on_c, 0, 45, 0
2, 53475, Note_on_c, 0, 81, 0
2, 53483, Note_on_c, 0, 76, 0
2, 53491, Note_on_c, 0, 57, 0
2, 53541, Note_on_c, 0, 87, 98
2, 53548, Note_on_c, 0, 47, 89
2, 53548, Note_on_c, 0, 75, 95
2, 53552, Note_on_c, 0, 35, 84
2, 53575, Control_c, 0, 64, 127
2, 53602, Note_on_c, 0, 83, 69
2, 53640, Note_on_c, 0, 78, 73
2, 53844, Note_on_c, 0, 75, 0
2, 53850, Note_on_c, 0, 75, 84
2, 53850, Note_on_c, 0, 63, 75
2, 53858, Note_on_c, 0, 59, 71
2, 54003, Note_on_c, 0, 76, 90
2, 54007, Note_on_c, 0, 66, 71
2, 54009, Note_on_c, 0, 64, 69
2, 54020, Note_on_c, 0, 54, 59
2, 54144, Note_on_c, 0, 47, 0
2, 54150, Note_on_c, 0, 47, 71
2, 54151, Note_on_c, 0, 66, 0
2, 54151, Note_on_c, 0, 78, 0
2, 54160, Note_on_c, 0, 78, 92
2, 54162, Note_on_c, 0, 66, 83
2, 54225, Note_on_c, 0, 87, 0
2, 54226, Note_on_c, 0, 64, 0
2, 54226, Note_on_c, 0, 47, 0
2, 54227, Note_on_c, 0, 63, 0
2, 54227, Note_on_c, 0, 59, 0
2, 54227, Note_on_c, 0, 75, 0
2, 54227, Note_on_c, 0, 76, 0
2, 54228, Note_on_c, 0, 83, 0
2, 54229, Note_on_c, 0, 78, 0
2, 54229, Note_on_c, 0, 66, 0
2, 54231, Note_on_c, 0, 35, 0
2, 54232, Control_c, 0, 64, 0
2, 54243, Note_on_c, 0, 54, 0
2, 54310, Note_on_c, 0, 79, 98
2, 54315, Note_on_c, 0, 76, 85
2, 54316, Note_on_c, 0, 36, 76
2, 54316, Note_on_c, 0, 72, 78
2, 54318, Note_on_c, 0, 67, 78
2, 54366, Control_c, 0, 64, 127
2, 54393, Note_on_c, 0, 43, 65
2, 54463, Note_on_c, 0, 48, 58
2, 54549, Note_on_c, 0, 50, 59
2, 54574, Note_on_c, 0, 48, 0
2, 54578, Note_on_c, 0, 48, 48
2, 54628, Note_on_c, 0, 52, 63
2, 54686, Note_on_c, 0, 55, 65
2, 54727, Note_on_c, 0, 52, 0
2, 54737, Note_on_c, 0, 52, 49
2, 54759, Note_on_c, 0, 60, 71
2, 54802, Note_on_c, 0, 64, 53
2, 54849, Note_on_c, 0, 62, 72
2, 54927, Note_on_c, 0, 64, 0
2, 54937, Note_on_c, 0, 64, 72
2, 54988, Note_on_c, 0, 62, 0
2, 54997, Note_on_c, 0, 62, 59
2, 55073, Note_on_c, 0, 76, 0
2, 55080, Note_on_c, 0, 76, 80
2, 55080, Note_on_c, 0, 60, 0
2, 55089, Note_on_c, 0, 60, 69
2, 55165, Note_on_c, 0, 55, 0
2, 55170, Note_on_c, 0, 55, 63
2, 55225, Note_on_c, 0, 86, 93
2, 55226, Note_on_c, 0, 52, 0
2, 55230, Note_on_c, 0, 74, 84
2, 55232, Note_on_c, 0, 52, 64
2, 55272, Note_on_c, 0, 50, 0
2, 55283, Note_on_c, 0, 50, 70
2, 55357, Note_on_c, 0, 60, 0
2, 55366, Note_on_c, 0, 60, 62
2, 55388, Note_on_c, 0, 72, 0
2, 55390, Note_on_c, 0, 84, 97
2, 55392, Note_on_c, 0, 72, 84
2, 55395, Note_on_c, 0, 74, 0
2, 55403, Note_on_c, 0, 74, 71
2, 55441, Note_on_c, 0, 45, 69
2, 55522, Control_c, 0, 64, 0
2, 55523, Note_on_c, 0, 45, 0
2, 55523, Note_on_c, 0, 62, 0
2, 55523, Note_on_c, 0, 48, 0
2, 55523, Note_on_c, 0, 52, 0
2, 55523, Note_on_c, 0, 76, 0
2, 55523, Note_on_c, 0, 67, 0
2, 55523, Note_on_c, 0, 72, 0
2, 55523, Note_on_c, 0, 86, 0
2, 55523, Note_on_c, 0, 79, 0
2, 55524, Note_on_c, 0, 84, 0
2, 55524, Note_on_c, 0, 55, 0
2, 55525, Note_on_c, 0, 43, 0
2, 55526, Note_on_c, 0, 36, 0
2, 55541, Note_on_c, 0, 50, 0
2, 55541, Note_on_c, 0, 60, 0
2, 55541, Note_on_c, 0, 64, 0
2, 55548, Note_on_c, 0, 83, 104
2, 55549, Note_on_c, 0, 38, 84
2, 55549, Note_on_c, 0, 74, 0
2, 55553, Note_on_c, 0, 71, 85
2, 55554, Note_on_c, 0, 74, 86
2, 55555, Note_on_c, 0, 78, 88
2, 55595, Control_c, 0, 64, 127
2, 55632, Note_on_c, 0, 45, 67
2, 55706, Note_on_c, 0, 50, 67
2, 55790, Note_on_c, 0, 52, 66
2, 55860, Note_on_c, 0, 54, 67
2, 55928, Note_on_c, 0, 57, 61
2, 55991, Note_on_c, 0, 62, 77
2, 56030, Note_on_c, 0, 81, 89
2, 56110, Note_on_c, 0, 64, 69
2, 56113, Note_on_c, 0, 79, 75
2, 56121, Note_on_c, 0, 76, 54
2, 56167, Note_on_c, 0, 66, 86
2, 56171, Note_on_c, 0, 81, 0
2, 56176, Note_on_c, 0, 81, 88
2, 56240, Note_on_c, 0, 66, 0
2, 56246, Note_on_c, 0, 66, 73
2, 56309, Note_on_c, 0, 62, 0
2, 56316, Note_on_c, 0, 62, 70
2, 56386, Note_on_c, 0, 57, 0
2, 56393, Note_on_c, 0, 57, 63
2, 56448, Note_on_c, 0, 54, 0
2, 56459, Note_on_c, 0, 54, 65
2, 56524, Note_on_c, 0, 52, 0
2, 56529, Note_on_c, 0, 52, 68
2, 56609, Note_on_c, 0, 50, 0
2, 56613, Note_on_c, 0, 50, 64
2, 56640, Note_on_c, 0, 79, 0
2, 56650, Note_on_c, 0, 79, 86
2, 56678, Note_on_c, 0, 45, 0
2, 56682, Note_on_c, 0, 45, 65
2, 56751, Note_on_c, 0, 62, 0
2, 56751, Note_on_c, 0, 81, 0
2, 56751, Note_on_c, 0, 71, 0
2, 56751, Note_on_c, 0, 45, 0
2, 56751, Note_on_c, 0, 74, 0
2, 56751, Control_c, 0, 64, 0
2, 56751, Note_on_c, 0, 54, 0
2, 56751, Note_on_c, 0, 66, 0
2, 56751, Note_on_c, 0, 57, 0
2, 56752, Note_on_c, 0, 50, 0
2, 56752, Note_on_c, 0, 83, 0
2, 56752, Note_on_c, 0, 78, 0
2, 56752, Note_on_c, 0, 52, 0
2, 56752, Note_on_c, 0, 79, 0
2, 56753, Note_on_c, 0, 64, 0
2, 56755, Note_on_c, 0, 76, 0
2, 56770, Note_on_c, 0, 38, 0
2, 56791, Note_on_c, 0, 38, 57
2, 56801, Note_on_c, 0, 81, 100
2, 56812, Note_on_c, 0, 71, 80
2, 56813, Note_on_c, 0, 76, 85
2, 56826, Note_on_c, 0, 72, 64
2, 56839, Control_c, 0, 64, 127
2, 56869, Note_on_c, 0, 47, 71
2, 56870, Note_on_c, 0, 38, 0
2, 56948, Note_on_c, 0, 52, 75
2, 57044, Note_on_c, 0, 54, 61
2, 57100, Note_on_c, 0, 81, 0
2, 57106, Note_on_c, 0, 81, 87
2, 57133, Note_on_c, 0, 55, 53
2, 57179, Note_on_c, 0, 59, 70
2, 57264, Note_on_c, 0, 64, 71
2, 57273, Note_on_c, 0, 83, 89
2, 57360, Note_on_c, 0, 79, 94
2, 57363, Note_on_c, 0, 66, 79
2, 57451, Note_on_c, 0, 67, 81
2, 57582, Note_on_c, 0, 78, 83
2, 57584, Note_on_c, 0, 64, 0
2, 57589, Note_on_c, 0, 64, 78
2, 57607, Note_on_c, 0, 76, 0
2, 57613, Note_on_c, 0, 76, 55
2, 57661, Note_on_c, 0, 59, 0
2, 57667, Note_on_c, 0, 59, 72
2, 57722, Note_on_c, 0, 79, 0
2, 57730, Note_on_c, 0, 55, 0
2, 57734, Note_on_c, 0, 79, 90
2, 57735, Note_on_c, 0, 55, 72
2, 57776, Note_on_c, 0, 54, 0
2, 57786, Note_on_c, 0, 54, 58
2, 57868, Note_on_c, 0, 81, 0
2, 57878, Note_on_c, 0, 81, 93
2, 57880, Note_on_c, 0, 50, 57
2, 57957, Note_on_c, 0, 45, 72
2, 57964, Note_on_c, 0, 74, 98
2, 58002, Note_on_c, 0, 47, 0
2, 58002, Note_on_c, 0, 67, 0
2, 58002, Note_on_c, 0, 54, 0
2, 58002, Note_on_c, 0, 66, 0
2, 58002, Note_on_c, 0, 71, 0
2, 58002, Note_on_c, 0, 55, 0
2, 58002, Note_on_c, 0, 59, 0
2, 58003, Note_on_c, 0, 81, 0
2, 58003, Note_on_c, 0, 50, 0
2, 58003, Note_on_c, 0, 64, 0
2, 58003, Note_on_c, 0, 79, 0
2, 58003, Note_on_c, 0, 76, 0
2, 58003, Note_on_c, 0, 83, 0
2, 58003, Note_on_c, 0, 78, 0
2, 58005, Control_c, 0, 64, 0
2, 58007, Note_on_c, 0, 72, 0
2, 58014, Note_on_c, 0, 52, 0
2, 58060, Note_on_c, 0, 42, 83
2, 58068, Control_c, 0, 64, 127
2, 58151, Note_on_c, 0, 50, 55
2, 58152, Note_on_c, 0, 74, 0
2, 58218, Note_on_c, 0, 90, 76
2, 58224, Note_on_c, 0, 54, 65
2, 58242, Note_on_c, 0, 81, 54
2, 58294, Note_on_c, 0, 91, 86
2, 58306, Note_on_c, 0, 50, 0
2, 58310, Note_on_c, 0, 57, 59
2, 58315, Note_on_c, 0, 50, 57
2, 58349, Note_on_c, 0, 62, 81
2, 58360, Note_on_c, 0, 90, 0
2, 58371, Note_on_c, 0, 90, 83
2, 58450, Note_on_c, 0, 86, 77
2, 58453, Note_on_c, 0, 66, 78
2, 58490, Note_on_c, 0, 81, 0
2, 58496, Note_on_c, 0, 81, 83
2, 58510, Note_on_c, 0, 69, 68
2, 58576, Note_on_c, 0, 78, 82
2, 58629, Note_on_c, 0, 45, 0
2, 58635, Control_c, 0, 64, 0
2, 58636, Note_on_c, 0, 81, 0
2, 58637, Note_on_c, 0, 62, 0
2, 58637, Note_on_c, 0, 69, 0
2, 58637, Note_on_c, 0, 91, 0
2, 58637, Note_on_c, 0, 50, 0
2, 58637, Note_on_c, 0, 90, 0
2, 58638, Note_on_c, 0, 42, 0
2, 58638, Note_on_c, 0, 86, 0
2, 58638, Note_on_c, 0, 66, 0
2, 58639, Note_on_c, 0, 57, 0
2, 58650, Note_on_c, 0, 74, 99
2, 58652, Note_on_c, 0, 54, 0
2, 58668, Note_on_c, 0, 72, 90
2, 58670, Note_on_c, 0, 43, 85
2, 58682, Control_c, 0, 64, 127
2, 58721, Note_on_c, 0, 43, 0
2, 58726, Note_on_c, 0, 43, 38
2, 58791, Note_on_c, 0, 71, 74
2, 58813, Note_on_c, 0, 43, 0
2, 58820, Note_on_c, 0, 43, 56
2, 58820, Note_on_c, 0, 67, 77
2, 58890, Note_on_c, 0, 72, 0
2, 58894, Note_on_c, 0, 62, 77
2, 58894, Note_on_c, 0, 72, 92
2, 58949, Note_on_c, 0, 60, 78
2, 58982, Note_on_c, 0, 78, 0
2, 58986, Note_on_c, 0, 59, 72
2, 59079, Note_on_c, 0, 55, 62
2, 59128, Note_on_c, 0, 74, 0
2, 59135, Note_on_c, 0, 74, 99
2, 59153, Note_on_c, 0, 50, 74
2, 59268, Control_c, 0, 64, 0
2, 59269, Note_on_c, 0, 67, 0
2, 59269, Note_on_c, 0, 71, 0
2, 59269, Note_on_c, 0, 62, 0
2, 59270, Note_on_c, 0, 74, 0
2, 59270, Note_on_c, 0, 60, 0
2, 59270, Note_on_c, 0, 50, 0
2, 59270, Note_on_c, 0, 55, 0
2, 59270, Note_on_c, 0, 59, 0
2, 59271, Note_on_c, 0, 43, 0
2, 59296, Note_on_c, 0, 76, 102
2, 59297, Note_on_c, 0, 72, 0
2, 59300, Note_on_c, 0, 33, 87
2, 59300, Note_on_c, 0, 45, 84
2, 59301, Note_on_c, 0, 69, 81
2, 59301, Note_on_c, 0, 72, 88
2, 59346, Note_on_c, 0, 45, 0
2, 59351, Control_c, 0, 64, 127
2, 59448, Note_on_c, 0, 45, 70
2, 59530, Note_on_c, 0, 52, 71
2, 59681, Note_on_c, 0, 52, 0
2, 59690, Note_on_c, 0, 52, 64
2, 59781, Note_on_c, 0, 60, 82
2, 59784, Note_on_c, 0, 57, 71
2, 59785, Note_on_c, 0, 69, 0
2, 59919, Note_on_c, 0, 76, 0
2, 59928, Note_on_c, 0, 76, 88
2, 59930, Note_on_c, 0, 57, 0
2, 60003, Note_on_c, 0, 33, 0
2, 60024, Note_on_c, 0, 52, 0
2, 60024, Note_on_c, 0, 60, 0
2, 60025, Note_on_c, 0, 72, 0
2, 60026, Control_c, 0, 64, 0
2, 60065, Note_on_c, 0, 45, 0
2, 60074, Note_on_c, 0, 45, 72
2, 60096, Control_c, 0, 64, 127
2, 60170, Note_on_c, 0, 78, 93
2, 60246, Note_on_c, 0, 60, 81
2, 60253, Note_on_c, 0, 72, 78
2, 60253, Note_on_c, 0, 57, 76
2, 60258, Note_on_c, 0, 69, 69
2, 60395, Note_on_c, 0, 76, 0
2, 60398, Note_on_c, 0, 79, 94
2, 60405, Note_on_c, 0, 76, 61
2, 60477, Note_on_c, 0, 57, 0
2, 60477, Note_on_c, 0, 60, 0
2, 60477, Note_on_c, 0, 72, 0
2, 60478, Note_on_c, 0, 76, 0
2, 60478, Control_c, 0, 64, 0
2, 60478, Note_on_c, 0, 78, 0
2, 60478, Note_on_c, 0, 79, 0
2, 60487, Note_on_c, 0, 45, 0
2, 60495, Note_on_c, 0, 69, 0
2, 60552, Note_on_c, 0, 79, 96
2, 60552, Note_on_c, 0, 47, 88
2, 60554, Note_on_c, 0, 35, 82
2, 60560, Note_on_c, 0, 71, 81
2, 60561, Note_on_c, 0, 74, 76
2, 60564, Control_c, 0, 64, 127
2, 60672, Note_on_c, 0, 47, 0
2, 60715, Note_on_c, 0, 47, 65
2, 60719, Note_on_c, 0, 54, 55
2, 60787, Note_on_c, 0, 54, 0
2, 60795, Note_on_c, 0, 59, 76
2, 60795, Note_on_c, 0, 54, 61
2, 60925, Note_on_c, 0, 54, 0
2, 60930, Note_on_c, 0, 54, 67
2, 61032, Note_on_c, 0, 59, 0
2, 61037, Note_on_c, 0, 62, 78
2, 61038, Note_on_c, 0, 59, 78
2, 61048, Note_on_c, 0, 78, 95
2, 61135, Note_on_c, 0, 76, 83
2, 61201, Note_on_c, 0, 78, 0
2, 61211, Note_on_c, 0, 78, 96
2, 61292, Note_on_c, 0, 71, 0
2, 61293, Note_on_c, 0, 59, 0
2, 61293, Note_on_c, 0, 74, 0
2, 61293, Note_on_c, 0, 79, 0
2, 61294, Note_on_c, 0, 62, 0
2, 61305, Control_c, 0, 64, 0
2, 61309, Note_on_c, 0, 35, 0
2, 61347, Note_on_c, 0, 47, 0
2, 61359, Note_on_c, 0, 47, 69
2, 61363, Control_c, 0, 64, 127
2, 61463, Note_on_c, 0, 76, 0
2, 61511, Note_on_c, 0, 62, 84
2, 61512, Note_on_c, 0, 59, 82
2, 61658, Note_on_c, 0, 79, 95
2, 61755, Control_c, 0, 64, 0
2, 61757, Note_on_c, 0, 62, 0
2, 61757, Note_on_c, 0, 47, 0
2, 61757, Note_on_c, 0, 59, 0
2, 61758, Note_on_c, 0, 79, 0
2, 61762, Note_on_c, 0, 54, 0
2, 61777, Note_on_c, 0, 78, 0
2, 61811, Note_on_c, 0, 81, 101
2, 61812, Note_on_c, 0, 30, 87
2, 61818, Note_on_c, 0, 72, 89
2, 61818, Note_on_c, 0, 76, 87
2, 61854, Control_c, 0, 64, 127
2, 62046, Note_on_c, 0, 81, 0
2, 62056, Note_on_c, 0, 81, 97
2, 62057, Note_on_c, 0, 54, 69
2, 62292, Note_on_c, 0, 76, 0
2, 62295, Note_on_c, 0, 64, 80
2, 62300, Note_on_c, 0, 72, 0
2, 62303, Note_on_c, 0, 76, 96
2, 62304, Note_on_c, 0, 60, 77
2, 62306, Note_on_c, 0, 69, 66
2, 62310, Note_on_c, 0, 57, 65
2, 62311, Note_on_c, 0, 72, 81
2, 62607, Note_on_c, 0, 76, 0
2, 62614, Note_on_c, 0, 42, 77
2, 62615, Note_on_c, 0, 69, 0
2, 62615, Note_on_c, 0, 72, 0
2, 62617, Note_on_c, 0, 76, 85
2, 62618, Note_on_c, 0, 64, 0
2, 62618, Note_on_c, 0, 60, 0
2, 62619, Note_on_c, 0, 54, 0
2, 62619, Note_on_c, 0, 57, 0
2, 62619, Note_on_c, 0, 81, 0
2, 62619, Note_on_c, 0, 69, 57
2, 62619, Control_c, 0, 64, 0
2, 62621, Note_on_c, 0, 72, 65
2, 62676, Note_on_c, 0, 30, 0
2, 62684, Control_c, 0, 64, 127
2, 62768, Note_on_c, 0, 69, 0
2, 62768, Note_on_c, 0, 72, 0
2, 62768, Note_on_c, 0, 76, 0
2, 62771, Note_on_c, 0, 64, 79
2, 62773, Note_on_c, 0, 76, 92
2, 62777, Note_on_c, 0, 60, 80
2, 62778, Note_on_c, 0, 69, 70
2, 62778, Note_on_c, 0, 57, 72
2, 62779, Note_on_c, 0, 72, 79
2, 62906, Note_on_c, 0, 60, 0
2, 62906, Note_on_c, 0, 76, 0
2, 62914, Note_on_c, 0, 57, 0
2, 62914, Note_on_c, 0, 72, 0
2, 62916, Note_on_c, 0, 76, 92
2, 62918, Note_on_c, 0, 60, 71
2, 62921, Note_on_c, 0, 72, 78
2, 62925, Note_on_c, 0, 57, 59
2, 62999, Note_on_c, 0, 42, 0
2, 63004, Note_on_c, 0, 69, 0
2, 63004, Note_on_c, 0, 64, 0
2, 63004, Note_on_c, 0, 72, 0
2, 63004, Note_on_c, 0, 57, 0
2, 63004, Control_c, 0, 64, 0
2, 63005, Note_on_c, 0, 76, 0
2, 63022, Note_on_c, 0, 60, 0
2, 63071, Note_on_c, 0, 75, 98
2, 63072, Note_on_c, 0, 63, 92
2, 63072, Note_on_c, 0, 66, 96
2, 63078, Note_on_c, 0, 47, 91
2, 63080, Note_on_c, 0, 35, 82
2, 63085, Note_on_c, 0, 71, 68
2, 63091, Control_c, 0, 64, 127
2, 63302, Note_on_c, 0, 76, 95
2, 63303, Note_on_c, 0, 59, 81
2, 63306, Note_on_c, 0, 66, 0
2, 63306, Note_on_c, 0, 64, 77
2, 63313, Note_on_c, 0, 47, 0
2, 63317, Note_on_c, 0, 66, 68
2, 63322, Note_on_c, 0, 51, 60
2, 63322, Note_on_c, 0, 47, 72
2, 63552, Note_on_c, 0, 66, 0
2, 63559, Note_on_c, 0, 78, 99
2, 63559, Note_on_c, 0, 47, 0
2, 63562, Note_on_c, 0, 66, 92
2, 63567, Note_on_c, 0, 47, 75
2, 63652, Control_c, 0, 64, 0
2, 63653, Note_on_c, 0, 71, 0
2, 63653, Note_on_c, 0, 47, 0
2, 63653, Note_on_c, 0, 75, 0
2, 63653, Note_on_c, 0, 59, 0
2, 63653, Note_on_c, 0, 78, 0
2, 63654, Note_on_c, 0, 76, 0
2, 63654, Note_on_c, 0, 63, 0
2, 63654, Note_on_c, 0, 66, 0
2, 63655, Note_on_c, 0, 64, 0
2, 63690, Note_on_c, 0, 35, 0
2, 63690, Note_on_c, 0, 51, 0
2, 63711, Note_on_c, 0, 86, 100
2, 63717, Note_on_c, 0, 78, 97
2, 63717, Note_on_c, 0, 36, 86
2, 63718, Note_on_c, 0, 48, 86
2, 63719, Note_on_c, 0, 74, 90
2, 63744, Control_c, 0, 64, 127
2, 63866, Note_on_c, 0, 48, 0
2, 63877, Note_on_c, 0, 48, 75
2, 63939, Note_on_c, 0, 60, 86
2, 63941, Note_on_c, 0, 72, 92
2, 63945, Note_on_c, 0, 84, 104
2, 63947, Note_on_c, 0, 52, 72
2, 63951, Control_c, 0, 64, 0
2, 64035, Control_c, 0, 64, 127
2, 64120, Note_on_c, 0, 36, 0
2, 64129, Note_on_c, 0, 36, 74
2, 64174, Note_on_c, 0, 78, 0
2, 64176, Note_on_c, 0, 81, 96
2, 64181, Note_on_c, 0, 69, 80
2, 64181, Note_on_c, 0, 48, 0
2, 64184, Note_on_c, 0, 78, 70
2, 64191, Note_on_c, 0, 48, 80
2, 64279, Note_on_c, 0, 84, 0
2, 64280, Note_on_c, 0, 74, 0
2, 64280, Note_on_c, 0, 52, 0
2, 64280, Control_c, 0, 64, 0
2, 64280, Note_on_c, 0, 72, 0
2, 64280, Note_on_c, 0, 81, 0
2, 64281, Note_on_c, 0, 60, 0
2, 64281, Note_on_c, 0, 86, 0
2, 64281, Note_on_c, 0, 69, 0
2, 64282, Note_on_c, 0, 78, 0
2, 64282, Note_on_c, 0, 36, 0
2, 64304, Note_on_c, 0, 48, 0
2, 64346, Note_on_c, 0, 83, 105
2, 64349, Note_on_c, 0, 74, 92
2, 64349, Note_on_c, 0, 38, 98
2, 64351, Note_on_c, 0, 71, 93
2, 64352, Note_on_c, 0, 78, 95
2, 64354, Note_on_c, 0, 50, 91
2, 64396, Control_c, 0, 64, 127
2, 64592, Note_on_c, 0, 62, 84
2, 64597, Note_on_c, 0, 54, 82
2, 64600, Note_on_c, 0, 57, 78
2, 64604, Control_c, 0, 64, 0
2, 64800, Note_on_c, 0, 54, 0
2, 64805, Note_on_c, 0, 57, 0
2, 64826, Note_on_c, 0, 38, 0
2, 64826, Note_on_c, 0, 50, 0
2, 64831, Note_on_c, 0, 50, 89
2, 64832, Note_on_c, 0, 38, 92
2, 64842, Note_on_c, 0, 71, 0
2, 64842, Note_on_c, 0, 74, 0
2, 64849, Note_on_c, 0, 78, 0
2, 64857, Note_on_c, 0, 83, 0
2, 64865, Note_on_c, 0, 62, 0
2, 64888, Control_c, 0, 64, 127
2, 64975, Note_on_c, 0, 71, 77
2, 65023, Note_on_c, 0, 74, 73
2, 65041, Note_on_c, 0, 78, 92
2, 65119, Note_on_c, 0, 83, 94
2, 65191, Note_on_c, 0, 86, 83
2, 65247, Note_on_c, 0, 90, 91
2, 65276, Note_on_c, 0, 95, 103
2, 65287, Note_on_c, 0, 38, 0
2, 65292, Note_on_c, 0, 38, 71
2, 65296, Note_on_c, 0, 26, 72
2, 65300, Note_on_c, 0, 83, 0
2, 65300, Note_on_c, 0, 74, 0
2, 65300, Note_on_c, 0, 86, 0
2, 65301, Note_on_c, 0, 71, 0
2, 65303, Note_on_c, 0, 50, 0
2, 65307, Note_on_c, 0, 78, 0
2, 65309, Control_c, 0, 64, 0
2, 65356, Note_on_c, 0, 95, 0
2, 65379, Note_on_c, 0, 26, 0
2, 65441, Note_on_c, 0, 38, 0
2, 65464, Control_c, 0, 64, 127
2, 65487, Note_on_c, 0, 90, 0
2, 65574, Note_on_c, 0, 83, 108
2, 65576, Note_on_c, 0, 79, 92
2, 65577, Note_on_c, 0, 71, 95
2, 65579, Control_c, 0, 64, 0
2, 65581, Note_on_c, 0, 76, 99
2, 65584, Note_on_c, 0, 28, 89
2, 65584, Note_on_c, 0, 40, 89
2, 65664, Control_c, 0, 64, 127
2, 65814, Note_on_c, 0, 59, 84
2, 65816, Note_on_c, 0, 52, 72
2, 65820, Note_on_c, 0, 55, 87
2, 65821, Note_on_c, 0, 47, 79
2, 65948, Note_on_c, 0, 52, 0
2, 65953, Note_on_c, 0, 52, 66
2, 65963, Note_on_c, 0, 55, 0
2, 65970, Note_on_c, 0, 55, 54
2, 66063, Note_on_c, 0, 59, 0
2, 66063, Note_on_c, 0, 71, 0
2, 66070, Note_on_c, 0, 71, 86
2, 66071, Note_on_c, 0, 59, 85
2, 66072, Note_on_c, 0, 64, 90
2, 66226, Note_on_c, 0, 81, 106
2, 66228, Note_on_c, 0, 69, 96
2, 66229, Note_on_c, 0, 78, 101
2, 66231, Note_on_c, 0, 74, 92
2, 66393, Note_on_c, 0, 55, 0
2, 66397, Note_on_c, 0, 55, 83
2, 66462, Note_on_c, 0, 74, 0
2, 66466, Note_on_c, 0, 86, 106
2, 66468, Note_on_c, 0, 74, 101
2, 66677, Note_on_c, 0, 28, 0
2, 66685, Note_on_c, 0, 40, 0
2, 66686, Note_on_c, 0, 84, 106
2, 66688, Note_on_c, 0, 28, 82
2, 66689, Note_on_c, 0, 40, 74
2, 66689, Note_on_c, 0, 72, 90
2, 66794, Note_on_c, 0, 69, 0
2, 66794, Note_on_c, 0, 81, 0
2, 66794, Note_on_c, 0, 40, 0
2, 66794, Note_on_c, 0, 74, 0
2, 66795, Note_on_c, 0, 64, 0
2, 66795, Note_on_c, 0, 79, 0
2, 66795, Note_on_c, 0, 71, 0
2, 66795, Note_on_c, 0, 86, 0
2, 66795, Note_on_c, 0, 83, 0
2, 66795, Note_on_c, 0, 76, 0
2, 66796, Note_on_c, 0, 78, 0
2, 66796, Note_on_c, 0, 72, 0
2, 66796, Note_on_c, 0, 84, 0
2, 66797, Control_c, 0, 64, 0
2, 66816, Note_on_c, 0, 47, 0
2, 66816, Note_on_c, 0, 52, 0
2, 66823, Note_on_c, 0, 55, 0
2, 66823, Note_on_c, 0, 59, 0
2, 66837, Note_on_c, 0, 83, 106
2, 66839, Note_on_c, 0, 71, 95
2, 66841, Note_on_c, 0, 79, 94
2, 66841, Note_on_c, 0, 76, 99
2, 66842, Note_on_c, 0, 24, 99
2, 66850, Note_on_c, 0, 36, 95
2, 66877, Control_c, 0, 64, 127
2, 67000, Note_on_c, 0, 28, 0
2, 67000, Note_on_c, 0, 36, 0
2, 67011, Note_on_c, 0, 36, 75
2, 67013, Note_on_c, 0, 43, 65
2, 67061, Note_on_c, 0, 52, 91
2, 67065, Note_on_c, 0, 55, 93
2, 67192, Note_on_c, 0, 36, 0
2, 67203, Note_on_c, 0, 36, 84
2, 67207, Note_on_c, 0, 43, 0
2, 67213, Note_on_c, 0, 48, 72
2, 67214, Note_on_c, 0, 43, 71
2, 67292, Note_on_c, 0, 55, 0
2, 67302, Note_on_c, 0, 64, 92
2, 67302, Note_on_c, 0, 60, 93
2, 67303, Note_on_c, 0, 55, 80
2, 67304, Note_on_c, 0, 67, 91
2, 67445, Note_on_c, 0, 48, 0
2, 67453, Note_on_c, 0, 36, 0
2, 67453, Note_on_c, 0, 76, 0
2, 67456, Note_on_c, 0, 48, 84
2, 67457, Note_on_c, 0, 36, 84
2, 67457, Note_on_c, 0, 81, 103
2, 67463, Note_on_c, 0, 69, 90
2, 67464, Note_on_c, 0, 76, 97
2, 67464, Note_on_c, 0, 72, 95
2, 67545, Note_on_c, 0, 60, 0
2, 67556, Note_on_c, 0, 60, 85
2, 67614, Note_on_c, 0, 55, 0
2, 67618, Note_on_c, 0, 55, 71
2, 67626, Note_on_c, 0, 57, 65
2, 67683, Note_on_c, 0, 52, 0
2, 67691, Note_on_c, 0, 60, 0
2, 67693, Note_on_c, 0, 86, 105
2, 67695, Note_on_c, 0, 52, 70
2, 67697, Note_on_c, 0, 74, 101
2, 67701, Note_on_c, 0, 60, 65
2, 67706, Note_on_c, 0, 24, 0
2, 67776, Note_on_c, 0, 52, 0
2, 67776, Note_on_c, 0, 55, 0
2, 67776, Note_on_c, 0, 57, 0
2, 67780, Note_on_c, 0, 57, 64
2, 67781, Note_on_c, 0, 55, 71
2, 67784, Note_on_c, 0, 52, 80
2, 67914, Note_on_c, 0, 43, 0
2, 67921, Note_on_c, 0, 72, 0
2, 67922, Note_on_c, 0, 43, 75
2, 67923, Note_on_c, 0, 31, 77
2, 67926, Note_on_c, 0, 84, 108
2, 67932, Note_on_c, 0, 72, 93
2, 68036, Control_c, 0, 64, 0
2, 68038, Note_on_c, 0, 81, 0
2, 68039, Note_on_c, 0, 69, 0
2, 68039, Note_on_c, 0, 74, 0
2, 68039, Note_on_c, 0, 83, 0
2, 68039, Note_on_c, 0, 36, 0
2, 68039, Note_on_c, 0, 76, 0
2, 68039, Note_on_c, 0, 79, 0
2, 68039, Note_on_c, 0, 60, 0
2, 68040, Note_on_c, 0, 31, 0
2, 68040, Note_on_c, 0, 72, 0
2, 68040, Note_on_c, 0, 43, 0
2, 68040, Note_on_c, 0, 67, 0
2, 68040, Note_on_c, 0, 55, 0
2, 68040, Note_on_c, 0, 84, 0
2, 68040, Note_on_c, 0, 86, 0
2, 68052, Note_on_c, 0, 48, 0
2, 68052, Note_on_c, 0, 71, 0
2, 68060, Note_on_c, 0, 52, 0
2, 68060, Note_on_c, 0, 57, 0
2, 68060, Note_on_c, 0, 64, 0
2, 68086, Note_on_c, 0, 83, 106
2, 68087, Note_on_c, 0, 79, 97
2, 68088, Note_on_c, 0, 71, 98
2, 68090, Note_on_c, 0, 74, 95
2, 68092, Note_on_c, 0, 31, 95
2, 68136, Control_c, 0, 64, 127
2, 68217, Note_on_c, 0, 43, 65
2, 68311, Note_on_c, 0, 50, 61
2, 68320, Note_on_c, 0, 55, 88
2, 68322, Note_on_c, 0, 59, 89
2, 68390, Note_on_c, 0, 31, 0
2, 68413, Note_on_c, 0, 59, 0
2, 68417, Note_on_c, 0, 59, 71
2, 68459, Note_on_c, 0, 50, 0
2, 68459, Note_on_c, 0, 55, 0
2, 68469, Note_on_c, 0, 50, 68
2, 68470, Note_on_c, 0, 55, 82
2, 68559, Note_on_c, 0, 71, 0
2, 68570, Note_on_c, 0, 62, 84
2, 68570, Note_on_c, 0, 71, 94
2, 68570, Note_on_c, 0, 67, 90
2, 68728, Note_on_c, 0, 67, 0
2, 68728, Note_on_c, 0, 71, 0
2, 68728, Note_on_c, 0, 74, 0
2, 68728, Note_on_c, 0, 79, 0
2, 68734, Note_on_c, 0, 79, 104
2, 68736, Note_on_c, 0, 62, 0
2, 68738, Note_on_c, 0, 71, 95
2, 68739, Note_on_c, 0, 67, 88
2, 68739, Note_on_c, 0, 74, 91
2, 68743, Note_on_c, 0, 62, 68
2, 68797, Note_on_c, 0, 55, 0
2, 68806, Note_on_c, 0, 55, 52
2, 68889, Note_on_c, 0, 59, 0
2, 68899, Note_on_c, 0, 59, 78
2, 68966, Note_on_c, 0, 81, 103
2, 68970, Note_on_c, 0, 69, 87
2, 68973, Note_on_c, 0, 43, 0
2, 69004, Note_on_c, 0, 55, 0
2, 69014, Note_on_c, 0, 55, 62
2, 69127, Note_on_c, 0, 50, 0
2, 69134, Note_on_c, 0, 50, 51
2, 69143, Note_on_c, 0, 47, 70
2, 69196, Note_on_c, 0, 71, 0
2, 69196, Note_on_c, 0, 83, 0
2, 69203, Note_on_c, 0, 83, 98
2, 69204, Note_on_c, 0, 74, 0
2, 69207, Note_on_c, 0, 71, 89
2, 69209, Note_on_c, 0, 74, 74
2, 69314, Control_c, 0, 64, 0
2, 69316, Note_on_c, 0, 81, 0
2, 69316, Note_on_c, 0, 74, 0
2, 69317, Note_on_c, 0, 67, 0
2, 69317, Note_on_c, 0, 62, 0
2, 69317, Note_on_c, 0, 79, 0
2, 69317, Note_on_c, 0, 71, 0
2, 69318, Note_on_c, 0, 69, 0
2, 69318, Note_on_c, 0, 83, 0
2, 69319, Note_on_c, 0, 55, 0
2, 69320, Note_on_c, 0, 59, 0
2, 69335, Note_on_c, 0, 50, 0
2, 69342, Note_on_c, 0, 47, 0
2, 69361, Note_on_c, 0, 83, 106
2, 69365, Note_on_c, 0, 45, 95
2, 69366, Note_on_c, 0, 71, 98
2, 69366, Note_on_c, 0, 76, 105
2, 69366, Note_on_c, 0, 33, 95
2, 69368, Note_on_c, 0, 79, 87
2, 69411, Control_c, 0, 64, 127
2, 69572, Note_on_c, 0, 52, 67
2, 69596, Note_on_c, 0, 45, 0
2, 69606, Note_on_c, 0, 81, 100
2, 69606, Note_on_c, 0, 45, 72
2, 69607, Note_on_c, 0, 69, 92
2, 69609, Note_on_c, 0, 73, 92
2, 69818, Note_on_c, 0, 81, 0
2, 69825, Note_on_c, 0, 81, 77
2, 69826, Note_on_c, 0, 69, 0
2, 69831, Note_on_c, 0, 69, 80
2, 69834, Note_on_c, 0, 73, 0
2, 69834, Note_on_c, 0, 76, 0
2, 69839, Note_on_c, 0, 76, 100
2, 69845, Note_on_c, 0, 73, 100
2, 69900, Note_on_c, 0, 61, 90
2, 69973, Note_on_c, 0, 57, 71
2, 70064, Note_on_c, 0, 52, 0
2, 70070, Note_on_c, 0, 52, 70
2, 70306, Note_on_c, 0, 61, 0
2, 70325, Note_on_c, 0, 57, 0
2, 70331, Note_on_c, 0, 57, 58
2, 70333, Note_on_c, 0, 69, 0
2, 70341, Note_on_c, 0, 69, 59
2, 70445, Note_on_c, 0, 78, 79
2, 70494, Note_on_c, 0, 79, 0
2, 70498, Note_on_c, 0, 79, 87
2, 70530, Control_c, 0, 64, 0
2, 70537, Note_on_c, 0, 76, 0
2, 70537, Note_on_c, 0, 69, 0
2, 70538, Note_on_c, 0, 73, 0
2, 70539, Note_on_c, 0, 81, 0
2, 70542, Note_on_c, 0, 57, 0
2, 70542, Note_on_c, 0, 71, 0
2, 70543, Note_on_c, 0, 45, 0
2, 70544, Note_on_c, 0, 78, 0
2, 70548, Note_on_c, 0, 33, 0
2, 70548, Note_on_c, 0, 83, 0
2, 70559, Note_on_c, 0, 79, 0
2, 70563, Note_on_c, 0, 52, 0
2, 70596, Note_on_c, 0, 81, 98
2, 70599, Note_on_c, 0, 48, 70
2, 70605, Note_on_c, 0, 76, 79
2, 70605, Note_on_c, 0, 72, 80
2, 70677, Note_on_c, 0, 55, 69
2, 70702, Control_c, 0, 64, 127
2, 70729, Note_on_c, 0, 60, 79
2, 70823, Note_on_c, 0, 62, 64
2, 70888, Note_on_c, 0, 64, 72
2, 70993, Note_on_c, 0, 62, 0
2, 70997, Note_on_c, 0, 62, 68
2, 71063, Note_on_c, 0, 64, 0
2, 71068, Note_on_c, 0, 64, 69
2, 71069, Note_on_c, 0, 79, 86
2, 71150, Note_on_c, 0, 67, 71
2, 71151, Note_on_c, 0, 78, 82
2, 71216, Note_on_c, 0, 60, 0
2, 71216, Note_on_c, 0, 72, 0
2, 71220, Note_on_c, 0, 74, 94
2, 71224, Note_on_c, 0, 60, 55
2, 71225, Note_on_c, 0, 72, 79
2, 71293, Note_on_c, 0, 67, 0
2, 71302, Note_on_c, 0, 67, 66
2, 71362, Note_on_c, 0, 64, 0
2, 71372, Note_on_c, 0, 64, 64
2, 71431, Note_on_c, 0, 62, 0
2, 71442, Note_on_c, 0, 62, 70
2, 71500, Note_on_c, 0, 64, 0
2, 71504, Note_on_c, 0, 64, 71
2, 71600, Note_on_c, 0, 60, 0
2, 71607, Note_on_c, 0, 60, 74
2, 71669, Note_on_c, 0, 79, 0
2, 71677, Note_on_c, 0, 55, 0
2, 71681, Note_on_c, 0, 79, 81
2, 71683, Note_on_c, 0, 55, 67
2, 71746, Note_on_c, 0, 81, 0
2, 71757, Note_on_c, 0, 81, 88
2, 71811, Note_on_c, 0, 74, 0
2, 71811, Control_c, 0, 64, 0
2, 71812, Note_on_c, 0, 64, 0
2, 71812, Note_on_c, 0, 81, 0
2, 71812, Note_on_c, 0, 62, 0
2, 71812, Note_on_c, 0, 78, 0
2, 71812, Note_on_c, 0, 79, 0
2, 71812, Note_on_c, 0, 67, 0
2, 71813, Note_on_c, 0, 60, 0
2, 71813, Note_on_c, 0, 55, 0
2, 71814, Note_on_c, 0, 72, 0
2, 71815, Note_on_c, 0, 48, 0
2, 71823, Note_on_c, 0, 76, 0
2, 71850, Note_on_c, 0, 84, 101
2, 71855, Note_on_c, 0, 74, 90
2, 71857, Note_on_c, 0, 43, 78
2, 71859, Note_on_c, 0, 79, 84
2, 71923, Control_c, 0, 64, 127
2, 71976, Note_on_c, 0, 55, 79
2, 72086, Note_on_c, 0, 57, 63
2, 72147, Note_on_c, 0, 59, 68
2, 72253, Note_on_c, 0, 57, 0
2, 72259, Note_on_c, 0, 57, 50
2, 72314, Note_on_c, 0, 59, 0
2, 72318, Note_on_c, 0, 59, 66
2, 72322, Note_on_c, 0, 83, 89
2, 72381, Note_on_c, 0, 62, 75
2, 72382, Note_on_c, 0, 81, 85
2, 72460, Note_on_c, 0, 74, 0
2, 72460, Note_on_c, 0, 79, 0
2, 72460, Note_on_c, 0, 83, 0
2, 72462, Note_on_c, 0, 67, 82
2, 72469, Note_on_c, 0, 83, 96
2, 72470, Note_on_c, 0, 74, 86
2, 72471, Note_on_c, 0, 79, 85
2, 72529, Note_on_c, 0, 62, 0
2, 72534, Note_on_c, 0, 62, 68
2, 72591, Note_on_c, 0, 59, 0
2, 72602, Note_on_c, 0, 59, 66
2, 72691, Note_on_c, 0, 57, 0
2, 72695, Note_on_c, 0, 57, 53
2, 72737, Note_on_c, 0, 59, 0
2, 72744, Note_on_c, 0, 55, 0
2, 72748, Note_on_c, 0, 59, 54
2, 72753, Note_on_c, 0, 55, 60
2, 72821, Note_on_c, 0, 55, 0
2, 72825, Note_on_c, 0, 55, 62
2, 72885, Note_on_c, 0, 50, 59
2, 72929, Note_on_c, 0, 83, 0
2, 72934, Note_on_c, 0, 83, 91
2, 72944, Note_on_c, 0, 71, 55
2, 72952, Note_on_c, 0, 71, 0
2, 72960, Note_on_c, 0, 43, 0
2, 72964, Note_on_c, 0, 43, 60
2, 73011, Note_on_c, 0, 59, 0
2, 73011, Note_on_c, 0, 57, 0
2, 73012, Note_on_c, 0, 74, 0
2, 73012, Note_on_c, 0, 81, 0
2, 73012, Note_on_c, 0, 55, 0
2, 73012, Note_on_c, 0, 62, 0
2, 73013, Note_on_c, 0, 67, 0
2, 73013, Note_on_c, 0, 43, 0
2, 73013, Note_on_c, 0, 83, 0
2, 73013, Note_on_c, 0, 79, 0
2, 73014, Note_on_c, 0, 84, 0
2, 73020, Control_c, 0, 64, 0
2, 73029, Note_on_c, 0, 50, 0
2, 73071, Note_on_c, 0, 83, 95
2, 73077, Note_on_c, 0, 76, 86
2, 73077, Note_on_c, 0, 45, 79
2, 73079, Note_on_c, 0, 72, 76
2, 73105, Control_c, 0, 64, 127
2, 73139, Note_on_c, 0, 52, 65
2, 73193, Note_on_c, 0, 57, 71
2, 73262, Note_on_c, 0, 60, 75
2, 73307, Note_on_c, 0, 81, 98
2, 73402, Note_on_c, 0, 69, 72
2, 73420, Note_on_c, 0, 52, 0
2, 73430, Note_on_c, 0, 52, 59
2, 73434, Note_on_c, 0, 64, 64
2, 73497, Note_on_c, 0, 57, 0
2, 73508, Note_on_c, 0, 57, 73
2, 73559, Note_on_c, 0, 52, 0
2, 73559, Note_on_c, 0, 76, 0
2, 73564, Note_on_c, 0, 52, 77
2, 73569, Note_on_c, 0, 76, 97
2, 73651, Note_on_c, 0, 52, 0
2, 73657, Note_on_c, 0, 52, 60
2, 73662, Note_on_c, 0, 53, 63
2, 73666, Note_on_c, 0, 53, 0
2, 73678, Note_on_c, 0, 81, 0
2, 73678, Note_on_c, 0, 83, 0
2, 73678, Note_on_c, 0, 60, 0
2, 73678, Note_on_c, 0, 69, 0
2, 73679, Note_on_c, 0, 45, 0
2, 73679, Note_on_c, 0, 76, 0
2, 73679, Note_on_c, 0, 64, 0
2, 73679, Note_on_c, 0, 72, 0
2, 73685, Control_c, 0, 64, 0
2, 73697, Note_on_c, 0, 57, 0
2, 73704, Note_on_c, 0, 52, 0
2, 73709, Note_on_c, 0, 58, 74
2, 73712, Note_on_c, 0, 46, 69
2, 73749, Note_on_c, 0, 58, 0
2, 73786, Note_on_c, 0, 54, 62
2, 73789, Control_c, 0, 64, 127
2, 73830, Note_on_c, 0, 58, 77
2, 73869, Note_on_c, 0, 76, 88
2, 73898, Note_on_c, 0, 61, 80
2, 73966, Note_on_c, 0, 46, 0
2, 73970, Note_on_c, 0, 46, 55
2, 74008, Note_on_c, 0, 78, 97
2, 74017, Note_on_c, 0, 70, 81
2, 74075, Note_on_c, 0, 66, 76
2, 74112, Note_on_c, 0, 58, 0
2, 74116, Note_on_c, 0, 58, 60
2, 74167, Note_on_c, 0, 79, 90
2, 74188, Note_on_c, 0, 54, 0
2, 74193, Note_on_c, 0, 54, 66
2, 74299, Control_c, 0, 64, 0
2, 74301, Note_on_c, 0, 70, 0
2, 74301, Note_on_c, 0, 61, 0
2, 74301, Note_on_c, 0, 78, 0
2, 74301, Note_on_c, 0, 66, 0
2, 74302, Note_on_c, 0, 46, 0
2, 74302, Note_on_c, 0, 54, 0
2, 74311, Note_on_c, 0, 58, 0
2, 74311, Note_on_c, 0, 79, 0
2, 74319, Note_on_c, 0, 76, 0
2, 74322, Note_on_c, 0, 79, 96
2, 74327, Note_on_c, 0, 47, 79
2, 74329, Note_on_c, 0, 71, 82
2, 74330, Note_on_c, 0, 75, 83
2, 74394, Note_on_c, 0, 54, 73
2, 74396, Control_c, 0, 64, 127
2, 74459, Note_on_c, 0, 59, 83
2, 74553, Note_on_c, 0, 61, 81
2, 74637, Note_on_c, 0, 63, 83
2, 74718, Note_on_c, 0, 59, 0
2, 74724, Note_on_c, 0, 59, 72
2, 74780, Note_on_c, 0, 63, 0
2, 74780, Note_on_c, 0, 75, 0
2, 74785, Note_on_c, 0, 63, 77
2, 74785, Note_on_c, 0, 78, 102
2, 74790, Note_on_c, 0, 75, 79
2, 74856, Note_on_c, 0, 54, 0
2, 74867, Note_on_c, 0, 54, 60
2, 74878, Note_on_c, 0, 66, 76
2, 74940, Note_on_c, 0, 84, 103
2, 74941, Note_on_c, 0, 59, 0
2, 74941, Note_on_c, 0, 75, 0
2, 74941, Note_on_c, 0, 78, 0
2, 74949, Note_on_c, 0, 78, 92
2, 74950, Note_on_c, 0, 59, 64
2, 74951, Note_on_c, 0, 75, 92
2, 75010, Note_on_c, 0, 63, 0
2, 75021, Note_on_c, 0, 63, 90
2, 75033, Note_on_c, 0, 47, 0
2, 75118, Note_on_c, 0, 59, 0
2, 75129, Note_on_c, 0, 59, 75
2, 75217, Note_on_c, 0, 54, 0
2, 75224, Note_on_c, 0, 54, 60
2, 75240, Note_on_c, 0, 59, 0
2, 75240, Note_on_c, 0, 75, 0
2, 75240, Note_on_c, 0, 78, 0
2, 75245, Note_on_c, 0, 83, 105
2, 75246, Note_on_c, 0, 78, 101
2, 75248, Note_on_c, 0, 59, 75
2, 75251, Note_on_c, 0, 75, 96
2, 75301, Note_on_c, 0, 51, 57
2, 75366, Note_on_c, 0, 47, 77
2, 75417, Note_on_c, 0, 51, 0
2, 75429, Note_on_c, 0, 51, 54
2, 75532, Control_c, 0, 64, 0
2, 75536, Note_on_c, 0, 63, 0
2, 75537, Note_on_c, 0, 47, 0
2, 75537, Note_on_c, 0, 75, 0
2, 75537, Note_on_c, 0, 79, 0
2, 75537, Note_on_c, 0, 66, 0
2, 75537, Note_on_c, 0, 59, 0
2, 75538, Note_on_c, 0, 78, 0
2, 75539, Note_on_c, 0, 61, 0
2, 75539, Note_on_c, 0, 84, 0
2, 75548, Note_on_c, 0, 51, 0
2, 75555, Note_on_c, 0, 54, 0
2, 75555, Note_on_c, 0, 83, 0
2, 75563, Note_on_c, 0, 71, 0
2, 75566, Note_on_c, 0, 83, 107
2, 75567, Note_on_c, 0, 79, 94
2, 75567, Note_on_c, 0, 71, 98
2, 75567, Note_on_c, 0, 28, 90
2, 75568, Note_on_c, 0, 40, 94
2, 75572, Note_on_c, 0, 76, 99
2, 75601, Control_c, 0, 64, 127
2, 75802, Note_on_c, 0, 47, 81
2, 75804, Note_on_c, 0, 59, 80
2, 75804, Note_on_c, 0, 55, 91
2, 75807, Note_on_c, 0, 52, 79
2, 75955, Note_on_c, 0, 47, 0
2, 75962, Note_on_c, 0, 47, 74
2, 75962, Note_on_c, 0, 52, 0
2, 75966, Note_on_c, 0, 52, 72
2, 76032, Note_on_c, 0, 71, 0
2, 76039, Note_on_c, 0, 59, 0
2, 76041, Note_on_c, 0, 71, 84
2, 76046, Note_on_c, 0, 64, 83
2, 76047, Note_on_c, 0, 67, 81
2, 76049, Note_on_c, 0, 59, 85
2, 76193, Note_on_c, 0, 71, 0
2, 76193, Note_on_c, 0, 83, 0
2, 76197, Note_on_c, 0, 81, 92
2, 76197, Note_on_c, 0, 83, 98
2, 76197, Note_on_c, 0, 69, 85
2, 76199, Note_on_c, 0, 78, 94
2, 76200, Note_on_c, 0, 66, 88
2, 76202, Note_on_c, 0, 74, 86
2, 76203, Note_on_c, 0, 71, 86
2, 76204, Note_on_c, 0, 75, 91
2, 76208, Note_on_c, 0, 66, 0
2, 76247, Note_on_c, 0, 64, 0
2, 76251, Note_on_c, 0, 64, 61
2, 76293, Note_on_c, 0, 59, 0
2, 76304, Note_on_c, 0, 59, 84
2, 76308, Note_on_c, 0, 67, 0
2, 76314, Note_on_c, 0, 67, 63
2, 76362, Note_on_c, 0, 55, 0
2, 76367, Note_on_c, 0, 55, 73
2, 76423, Note_on_c, 0, 74, 0
2, 76431, Note_on_c, 0, 86, 105
2, 76433, Note_on_c, 0, 74, 98
2, 76454, Note_on_c, 0, 52, 0
2, 76465, Note_on_c, 0, 52, 82
2, 76663, Note_on_c, 0, 31, 78
2, 76667, Note_on_c, 0, 84, 106
2, 76676, Note_on_c, 0, 72, 92
2, 76786, Note_on_c, 0, 81, 0
2, 76786, Note_on_c, 0, 64, 0
2, 76786, Note_on_c, 0, 59, 0
2, 76786, Note_on_c, 0, 40, 0
2, 76786, Note_on_c, 0, 74, 0
2, 76787, Note_on_c, 0, 69, 0
2, 76787, Note_on_c, 0, 52, 0
2, 76787, Note_on_c, 0, 75, 0
2, 76787, Note_on_c, 0, 76, 0
2, 76787, Note_on_c, 0, 86, 0
2, 76787, Note_on_c, 0, 67, 0
2, 76788, Note_on_c, 0, 55, 0
2, 76788, Note_on_c, 0, 72, 0
2, 76788, Note_on_c, 0, 78, 0
2, 76788, Note_on_c, 0, 84, 0
2, 76788, Control_c, 0, 64, 0
2, 76792, Note_on_c, 0, 31, 0
2, 76807, Note_on_c, 0, 28, 0
2, 76807, Note_on_c, 0, 47, 0
2, 76807, Note_on_c, 0, 71, 0
2, 76807, Note_on_c, 0, 79, 0
2, 76807, Note_on_c, 0, 83, 0
2, 76814, Note_on_c, 0, 83, 102
2, 76816, Note_on_c, 0, 79, 97
2, 76818, Note_on_c, 0, 71, 98
2, 76818, Note_on_c, 0, 30, 99
2, 76821, Note_on_c, 0, 42, 100
2, 76861, Control_c, 0, 64, 127
2, 76976, Note_on_c, 0, 42, 0
2, 76986, Note_on_c, 0, 42, 81
2, 77030, Note_on_c, 0, 42, 0
2, 77034, Note_on_c, 0, 42, 83
2, 77043, Note_on_c, 0, 57, 80
2, 77047, Note_on_c, 0, 62, 86
2, 77048, Note_on_c, 0, 60, 80
2, 77195, Note_on_c, 0, 54, 72
2, 77268, Note_on_c, 0, 62, 0
2, 77276, Note_on_c, 0, 54, 0
2, 77276, Note_on_c, 0, 62, 77
2, 77281, Note_on_c, 0, 74, 90
2, 77282, Note_on_c, 0, 66, 97
2, 77284, Note_on_c, 0, 69, 82
2, 77284, Note_on_c, 0, 54, 80
2, 77352, Note_on_c, 0, 57, 0
2, 77364, Note_on_c, 0, 57, 25
2, 77437, Note_on_c, 0, 57, 0
2, 77437, Note_on_c, 0, 69, 0
2, 77437, Note_on_c, 0, 74, 0
2, 77438, Note_on_c, 0, 81, 106
2, 77441, Note_on_c, 0, 78, 101
2, 77442, Note_on_c, 0, 74, 95
2, 77443, Note_on_c, 0, 69, 95
2, 77444, Note_on_c, 0, 57, 66
2, 77459, Note_on_c, 0, 71, 0
2, 77468, Note_on_c, 0, 62, 0
2, 77468, Note_on_c, 0, 66, 0
2, 77473, Note_on_c, 0, 66, 70
2, 77478, Note_on_c, 0, 62, 52
2, 77537, Note_on_c, 0, 62, 0
2, 77548, Note_on_c, 0, 62, 72
2, 77552, Note_on_c, 0, 54, 0
2, 77562, Note_on_c, 0, 54, 66
2, 77583, Note_on_c, 0, 57, 0
2, 77592, Note_on_c, 0, 57, 69
2, 77667, Note_on_c, 0, 74, 0
2, 77672, Note_on_c, 0, 86, 103
2, 77675, Note_on_c, 0, 74, 100
2, 77706, Note_on_c, 0, 57, 0
2, 77715, Note_on_c, 0, 57, 59
2, 77882, Note_on_c, 0, 42, 0
2, 77890, Note_on_c, 0, 30, 0
2, 77893, Note_on_c, 0, 42, 82
2, 77895, Note_on_c, 0, 84, 101
2, 77899, Note_on_c, 0, 30, 76
2, 77902, Note_on_c, 0, 72, 95
2, 77905, Note_on_c, 0, 74, 0
2, 77910, Note_on_c, 0, 74, 69
2, 78015, Note_on_c, 0, 83, 0
2, 78015, Note_on_c, 0, 42, 0
2, 78016, Note_on_c, 0, 81, 0
2, 78016, Note_on_c, 0, 86, 0
2, 78016, Note_on_c, 0, 66, 0
2, 78016, Note_on_c, 0, 69, 0
2, 78016, Note_on_c, 0, 57, 0
2, 78016, Note_on_c, 0, 62, 0
2, 78016, Note_on_c, 0, 54, 0
2, 78016, Note_on_c, 0, 78, 0
2, 78017, Note_on_c, 0, 72, 0
2, 78017, Note_on_c, 0, 84, 0
2, 78018, Control_c, 0, 64, 0
2, 78028, Note_on_c, 0, 60, 0
2, 78028, Note_on_c, 0, 79, 0
2, 78036, Note_on_c, 0, 30, 0
2, 78044, Note_on_c, 0, 74, 0
2, 78048, Note_on_c, 0, 83, 104
2, 78050, Note_on_c, 0, 71, 99
2, 78050, Note_on_c, 0, 79, 95
2, 78053, Note_on_c, 0, 74, 94
2, 78055, Note_on_c, 0, 31, 92
2, 78059, Note_on_c, 0, 43, 92
2, 78082, Control_c, 0, 64, 127
2, 78205, Note_on_c, 0, 43, 0
2, 78213, Note_on_c, 0, 43, 68
2, 78243, Note_on_c, 0, 31, 0
2, 78249, Note_on_c, 0, 31, 75
2, 78274, Note_on_c, 0, 59, 87
2, 78285, Note_on_c, 0, 55, 83
2, 78420, Note_on_c, 0, 55, 0
2, 78424, Note_on_c, 0, 55, 48
2, 78497, Note_on_c, 0, 71, 0
2, 78502, Note_on_c, 0, 71, 90
2, 78508, Note_on_c, 0, 62, 85
2, 78512, Note_on_c, 0, 55, 0
2, 78513, Note_on_c, 0, 67, 87
2, 78520, Note_on_c, 0, 55, 73
2, 78650, Note_on_c, 0, 83, 0
2, 78658, Note_on_c, 0, 71, 0
2, 78658, Note_on_c, 0, 74, 0
2, 78658, Note_on_c, 0, 79, 0
2, 78661, Note_on_c, 0, 83, 106
2, 78662, Note_on_c, 0, 74, 94
2, 78662, Note_on_c, 0, 79, 96
2, 78662, Note_on_c, 0, 71, 92
2, 78720, Note_on_c, 0, 31, 0
2, 78735, Note_on_c, 0, 55, 0
2, 78746, Note_on_c, 0, 55, 68
2, 78796, Note_on_c, 0, 62, 0
2, 78796, Note_on_c, 0, 71, 0
2, 78803, Note_on_c, 0, 62, 73
2, 78804, Note_on_c, 0, 71, 68
2, 78850, Note_on_c, 0, 59, 0
2, 78854, Note_on_c, 0, 59, 78
2, 78894, Note_on_c, 0, 88, 101
2, 78898, Note_on_c, 0, 76, 104
2, 78956, Note_on_c, 0, 31, 57
2, 78965, Note_on_c, 0, 31, 0
2, 79040, Note_on_c, 0, 38, 52
2, 79061, Note_on_c, 0, 35, 63
2, 79065, Note_on_c, 0, 35, 0
2, 79111, Note_on_c, 0, 83, 0
2, 79119, Note_on_c, 0, 71, 0
2, 79122, Note_on_c, 0, 83, 99
2, 79124, Note_on_c, 0, 71, 89
2, 79125, Note_on_c, 0, 31, 83
2, 79234, Note_on_c, 0, 38, 0
2, 79245, Note_on_c, 0, 74, 0
2, 79245, Note_on_c, 0, 88, 0
2, 79245, Note_on_c, 0, 71, 0
2, 79245, Note_on_c, 0, 79, 0
2, 79245, Note_on_c, 0, 62, 0
2, 79245, Note_on_c, 0, 76, 0
2, 79245, Note_on_c, 0, 59, 0
2, 79245, Note_on_c, 0, 55, 0
2, 79246, Control_c, 0, 64, 0
2, 79246, Note_on_c, 0, 31, 0
2, 79249, Note_on_c, 0, 67, 0
2, 79257, Note_on_c, 0, 43, 0
2, 79257, Note_on_c, 0, 83, 0
2, 79277, Note_on_c, 0, 86, 105
2, 79278, Note_on_c, 0, 81, 89
2, 79280, Note_on_c, 0, 45, 88
2, 79281, Note_on_c, 0, 76, 98
2, 79281, Note_on_c, 0, 74, 105
2, 79282, Note_on_c, 0, 33, 92
2, 79326, Control_c, 0, 64, 127
2, 79475, Note_on_c, 0, 52, 61
2, 79503, Note_on_c, 0, 81, 0
2, 79508, Note_on_c, 0, 85, 96
2, 79510, Note_on_c, 0, 81, 63
2, 79511, Note_on_c, 0, 45, 0
2, 79511, Note_on_c, 0, 73, 102
2, 79512, Note_on_c, 0, 69, 75
2, 79518, Note_on_c, 0, 69, 0
2, 79521, Note_on_c, 0, 45, 74
2, 79580, Note_on_c, 0, 52, 0
2, 79590, Note_on_c, 0, 52, 63
2, 79741, Note_on_c, 0, 76, 0
2, 79741, Note_on_c, 0, 81, 0
2, 79745, Note_on_c, 0, 81, 99
2, 79746, Note_on_c, 0, 69, 77
2, 79749, Note_on_c, 0, 73, 0
2, 79752, Note_on_c, 0, 76, 95
2, 79753, Note_on_c, 0, 73, 93
2, 79760, Note_on_c, 0, 64, 78
2, 79819, Note_on_c, 0, 61, 86
2, 79913, Note_on_c, 0, 57, 71
2, 79971, Note_on_c, 0, 52, 0
2, 79981, Note_on_c, 0, 52, 73
2, 80079, Note_on_c, 0, 45, 0
2, 80088, Note_on_c, 0, 45, 67
2, 80163, Note_on_c, 0, 33, 0
2, 80175, Note_on_c, 0, 33, 80
2, 80348, Note_on_c, 0, 76, 0
2, 80355, Note_on_c, 0, 76, 83
2, 80366, Note_on_c, 0, 73, 0
2, 80367, Control_c, 0, 64, 0
2, 80367, Note_on_c, 0, 85, 0
2, 80367, Note_on_c, 0, 57, 0
2, 80367, Note_on_c, 0, 45, 0
2, 80368, Note_on_c, 0, 81, 0
2, 80368, Note_on_c, 0, 69, 0
2, 80368, Note_on_c, 0, 61, 0
2, 80369, Note_on_c, 0, 74, 0
2, 80369, Note_on_c, 0, 86, 0
2, 80378, Note_on_c, 0, 64, 0
2, 80386, Note_on_c, 0, 33, 0
2, 80394, Note_on_c, 0, 52, 0
2, 80422, Note_on_c, 0, 78, 80
2, 80463, Note_on_c, 0, 76, 0
2, 80496, Note_on_c, 0, 79, 91
2, 80498, Note_on_c, 0, 48, 64
2, 80505, Note_on_c, 0, 72, 75
2, 80519, Note_on_c, 0, 76, 66
2, 80578, Control_c, 0, 64, 127
2, 80585, Note_on_c, 0, 52, 48
2, 80589, Note_on_c, 0, 55, 55
2, 80634, Note_on_c, 0, 60, 70
2, 80722, Note_on_c, 0, 62, 70
2, 80747, Note_on_c, 0, 76, 0
2, 80751, Note_on_c, 0, 76, 67
2, 80795, Note_on_c, 0, 64, 69
2, 80847, Note_on_c, 0, 62, 0
2, 80857, Note_on_c, 0, 62, 69
2, 80931, Note_on_c, 0, 60, 0
2, 80942, Note_on_c, 0, 60, 75
2, 80970, Note_on_c, 0, 76, 0
2, 80970, Note_on_c, 0, 78, 0
2, 80974, Note_on_c, 0, 83, 93
2, 80978, Note_on_c, 0, 76, 88
2, 81031, Note_on_c, 0, 55, 0
2, 81040, Note_on_c, 0, 55, 58
2, 81087, Note_on_c, 0, 55, 0
2, 81087, Note_on_c, 0, 72, 0
2, 81087, Note_on_c, 0, 79, 0
2, 81088, Note_on_c, 0, 64, 0
2, 81089, Control_c, 0, 64, 0
2, 81093, Note_on_c, 0, 48, 0
2, 81100, Note_on_c, 0, 52, 0
2, 81108, Note_on_c, 0, 60, 0
2, 81108, Note_on_c, 0, 62, 0
2, 81127, Note_on_c, 0, 48, 65
2, 81169, Control_c, 0, 64, 127
2, 81205, Note_on_c, 0, 55, 67
2, 81262, Note_on_c, 0, 60, 71
2, 81292, Note_on_c, 0, 81, 84
2, 81351, Note_on_c, 0, 62, 70
2, 81428, Note_on_c, 0, 64, 69
2, 81438, Note_on_c, 0, 81, 0
2, 81442, Note_on_c, 0, 81, 83
2, 81477, Note_on_c, 0, 62, 0
2, 81483, Note_on_c, 0, 62, 64
2, 81569, Note_on_c, 0, 60, 0
2, 81575, Note_on_c, 0, 60, 69
2, 81576, Note_on_c, 0, 83, 0
2, 81582, Note_on_c, 0, 83, 87
2, 81638, Note_on_c, 0, 55, 0
2, 81648, Note_on_c, 0, 55, 57
2, 81703, Note_on_c, 0, 60, 0
2, 81703, Note_on_c, 0, 62, 0
2, 81703, Note_on_c, 0, 55, 0
2, 81703, Note_on_c, 0, 64, 0
2, 81704, Control_c, 0, 64, 0
2, 81704, Note_on_c, 0, 83, 0
2, 81707, Note_on_c, 0, 48, 0
2, 81722, Note_on_c, 0, 76, 0
2, 81730, Note_on_c, 0, 81, 0
2, 81735, Note_on_c, 0, 81, 94
2, 81740, Note_on_c, 0, 47, 77
2, 81740, Note_on_c, 0, 74, 82
2, 81792, Control_c, 0, 64, 127
2, 81826, Note_on_c, 0, 55, 48
2, 81874, Note_on_c, 0, 59, 76
2, 81960, Note_on_c, 0, 74, 0
2, 81970, Note_on_c, 0, 62, 65
2, 81971, Note_on_c, 0, 79, 86
2, 81972, Note_on_c, 0, 74, 64
2, 82062, Note_on_c, 0, 67, 62
2, 82106, Note_on_c, 0, 62, 0
2, 82117, Note_on_c, 0, 62, 71
2, 82222, Note_on_c, 0, 59, 0
2, 82222, Note_on_c, 0, 79, 0
2, 82226, Note_on_c, 0, 59, 67
2, 82233, Note_on_c, 0, 79, 89
2, 82237, Note_on_c, 0, 47, 0
2, 82237, Note_on_c, 0, 74, 0
2, 82241, Note_on_c, 0, 74, 79
2, 82291, Note_on_c, 0, 55, 0
2, 82301, Note_on_c, 0, 55, 66
2, 82363, Note_on_c, 0, 81, 0
2, 82363, Note_on_c, 0, 55, 0
2, 82363, Note_on_c, 0, 59, 0
2, 82363, Note_on_c, 0, 67, 0
2, 82375, Note_on_c, 0, 62, 0
2, 82387, Note_on_c, 0, 47, 72
2, 82477, Note_on_c, 0, 55, 64
2, 82523, Note_on_c, 0, 59, 72
2, 82544, Note_on_c, 0, 79, 0
2, 82554, Note_on_c, 0, 79, 87
2, 82609, Note_on_c, 0, 62, 69
2, 82676, Note_on_c, 0, 67, 69
2, 82728, Note_on_c, 0, 62, 0
2, 82734, Note_on_c, 0, 62, 78
2, 82828, Note_on_c, 0, 59, 0
2, 82836, Note_on_c, 0, 62, 0
2, 82836, Note_on_c, 0, 74, 0
2, 82837, Note_on_c, 0, 78, 90
2, 82839, Note_on_c, 0, 59, 76
2, 82840, Note_on_c, 0, 62, 61
2, 82843, Note_on_c, 0, 74, 60
2, 82913, Note_on_c, 0, 55, 0
2, 82919, Note_on_c, 0, 55, 50
2, 82957, Note_on_c, 0, 62, 0
2, 82959, Note_on_c, 0, 67, 0
2, 82959, Note_on_c, 0, 47, 0
2, 82960, Note_on_c, 0, 55, 0
2, 82962, Control_c, 0, 64, 0
2, 82962, Note_on_c, 0, 78, 0
2, 82974, Note_on_c, 0, 59, 0
2, 82982, Note_on_c, 0, 74, 0
2, 82982, Note_on_c, 0, 79, 0
2, 82991, Note_on_c, 0, 79, 96
2, 82999, Note_on_c, 0, 48, 66
2, 83009, Note_on_c, 0, 76, 75
2, 83009, Note_on_c, 0, 72, 75
2, 83043, Control_c, 0, 64, 127
2, 83078, Note_on_c, 0, 55, 66
2, 83134, Note_on_c, 0, 60, 73
2, 83225, Note_on_c, 0, 62, 74
2, 83226, Note_on_c, 0, 81, 96
2, 83302, Note_on_c, 0, 64, 65
2, 83361, Note_on_c, 0, 67, 63
2, 83427, Note_on_c, 0, 72, 0
2, 83436, Note_on_c, 0, 72, 70
2, 83466, Note_on_c, 0, 79, 0
2, 83473, Note_on_c, 0, 55, 0
2, 83476, Note_on_c, 0, 79, 93
2, 83478, Note_on_c, 0, 55, 45
2, 83540, Note_on_c, 0, 74, 76
2, 83604, Note_on_c, 0, 76, 0
2, 83613, Note_on_c, 0, 76, 74
2, 83650, Note_on_c, 0, 74, 0
2, 83656, Note_on_c, 0, 74, 67
2, 83750, Note_on_c, 0, 72, 0
2, 83760, Note_on_c, 0, 72, 70
2, 83775, Note_on_c, 0, 91, 95
2, 83819, Note_on_c, 0, 67, 0
2, 83825, Note_on_c, 0, 67, 59
2, 83834, Note_on_c, 0, 55, 0
2, 83841, Note_on_c, 0, 55, 60
2, 83850, Note_on_c, 0, 90, 90
2, 83888, Note_on_c, 0, 64, 0
2, 83899, Note_on_c, 0, 64, 70
2, 83942, Note_on_c, 0, 62, 0
2, 83949, Note_on_c, 0, 86, 72
2, 83953, Note_on_c, 0, 62, 66
2, 83980, Note_on_c, 0, 81, 0
2, 83988, Note_on_c, 0, 81, 79
2, 84026, Note_on_c, 0, 60, 0
2, 84032, Note_on_c, 0, 60, 69
2, 84069, Note_on_c, 0, 78, 83
2, 84103, Note_on_c, 0, 55, 0
2, 84113, Note_on_c, 0, 55, 71
2, 84157, Note_on_c, 0, 74, 0
2, 84162, Note_on_c, 0, 74, 73
2, 84203, Note_on_c, 0, 74, 0
2, 84204, Note_on_c, 0, 81, 0
2, 84204, Note_on_c, 0, 67, 0
2, 84204, Control_c, 0, 64, 0
2, 84204, Note_on_c, 0, 62, 0
2, 84205, Note_on_c, 0, 76, 0
2, 84205, Note_on_c, 0, 86, 0
2, 84206, Note_on_c, 0, 78, 0
2, 84206, Note_on_c, 0, 91, 0
2, 84207, Note_on_c, 0, 90, 0
2, 84207, Note_on_c, 0, 48, 0
2, 84216, Note_on_c, 0, 50, 73
2, 84218, Note_on_c, 0, 55, 0
2, 84218, Note_on_c, 0, 60, 0
2, 84218, Note_on_c, 0, 64, 0
2, 84218, Note_on_c, 0, 72, 0
2, 84218, Note_on_c, 0, 79, 0
2, 84227, Note_on_c, 0, 79, 91
2, 84288, Control_c, 0, 64, 127
2, 84308, Note_on_c, 0, 78, 77
2, 84355, Note_on_c, 0, 62, 75
2, 84359, Note_on_c, 0, 74, 78
2, 84429, Note_on_c, 0, 69, 70
2, 84430, Note_on_c, 0, 64, 67
2, 84502, Note_on_c, 0, 66, 80
2, 84503, Note_on_c, 0, 62, 0
2, 84509, Note_on_c, 0, 62, 72
2, 84572, Note_on_c, 0, 69, 0
2, 84576, Note_on_c, 0, 69, 77
2, 84576, Note_on_c, 0, 57, 63
2, 84627, Note_on_c, 0, 54, 69
2, 84664, Note_on_c, 0, 74, 0
2, 84671, Note_on_c, 0, 74, 85
2, 84687, Note_on_c, 0, 50, 0
2, 84697, Note_on_c, 0, 50, 45
2, 84762, Note_on_c, 0, 76, 78
2, 84771, Note_on_c, 0, 50, 0
2, 84782, Note_on_c, 0, 50, 68
2, 84794, Note_on_c, 0, 78, 0
2, 84805, Note_on_c, 0, 78, 83
2, 84833, Note_on_c, 0, 50, 0
2, 84839, Note_on_c, 0, 50, 70
2, 84873, Note_on_c, 0, 81, 95
2, 84946, Note_on_c, 0, 45, 70
2, 84963, Note_on_c, 0, 86, 87
2, 85023, Note_on_c, 0, 93, 88
2, 85081, Note_on_c, 0, 98, 98
2, 85082, Note_on_c, 0, 38, 75
2, 85217, Note_on_c, 0, 78, 0
2, 85226, Note_on_c, 0, 78, 102
2, 85267, Note_on_c, 0, 64, 0
2, 85267, Note_on_c, 0, 45, 0
2, 85267, Note_on_c, 0, 74, 0
2, 85267, Note_on_c, 0, 62, 0
2, 85267, Note_on_c, 0, 98, 0
2, 85267, Note_on_c, 0, 50, 0
2, 85267, Note_on_c, 0, 54, 0
2, 85268, Note_on_c, 0, 69, 0
2, 85268, Note_on_c, 0, 81, 0
2, 85268, Note_on_c, 0, 93, 0
2, 85268, Note_on_c, 0, 38, 0
2, 85268, Note_on_c, 0, 78, 0
2, 85268, Note_on_c, 0, 79, 0
2, 85268, Note_on_c, 0, 66, 0
2, 85268, Note_on_c, 0, 76, 0
2, 85274, Control_c, 0, 64, 0
2, 85278, Note_on_c, 0, 86, 0
2, 85286, Note_on_c, 0, 57, 0
2, 85363, Control_c, 0, 64, 127
2, 85372, Note_on_c, 0, 47, 94
2, 85374, Note_on_c, 0, 79, 92
2, 85375, Note_on_c, 0, 71, 89
2, 85378, Note_on_c, 0, 74, 90
2, 85380, Note_on_c, 0, 35, 87
2, 85381, Note_on_c, 0, 81, 99
2, 85539, Note_on_c, 0, 47, 0
2, 85545, Note_on_c, 0, 47, 46
2, 85549, Note_on_c, 0, 71, 0
2, 85603, Note_on_c, 0, 50, 79
2, 85603, Note_on_c, 0, 59, 86
2, 85605, Note_on_c, 0, 76, 102
2, 85608, Note_on_c, 0, 55, 70
2, 85609, Note_on_c, 0, 67, 77
2, 85611, Note_on_c, 0, 64, 84
2, 85643, Control_c, 0, 64, 0
2, 85644, Note_on_c, 0, 81, 0
2, 85644, Note_on_c, 0, 74, 0
2, 85646, Note_on_c, 0, 67, 0
2, 85647, Note_on_c, 0, 47, 0
2, 85648, Note_on_c, 0, 79, 0
2, 85649, Note_on_c, 0, 50, 0
2, 85651, Note_on_c, 0, 76, 0
2, 85651, Note_on_c, 0, 59, 0
2, 85652, Note_on_c, 0, 64, 0
2, 85655, Note_on_c, 0, 35, 0
2, 85685, Note_on_c, 0, 55, 0
2, 85840, Note_on_c, 0, 83, 106
2, 85843, Note_on_c, 0, 79, 86
2, 85844, Note_on_c, 0, 71, 91
2, 85845, Note_on_c, 0, 48, 91
2, 85845, Note_on_c, 0, 76, 94
2, 85849, Note_on_c, 0, 36, 95
2, 85877, Control_c, 0, 64, 127
2, 86134, Note_on_c, 0, 81, 96
2, 86138, Note_on_c, 0, 48, 0
2, 86138, Note_on_c, 0, 76, 0
2, 86140, Note_on_c, 0, 69, 80
2, 86142, Note_on_c, 0, 48, 80
2, 86146, Note_on_c, 0, 76, 68
2, 86148, Note_on_c, 0, 72, 72
2, 86267, Note_on_c, 0, 52, 79
2, 86277, Note_on_c, 0, 81, 0
2, 86284, Note_on_c, 0, 69, 0
2, 86284, Note_on_c, 0, 76, 0
2, 86285, Note_on_c, 0, 60, 80
2, 86288, Note_on_c, 0, 81, 96
2, 86291, Note_on_c, 0, 69, 88
2, 86296, Note_on_c, 0, 76, 80
2, 86374, Control_c, 0, 64, 0
2, 86380, Note_on_c, 0, 76, 0
2, 86381, Note_on_c, 0, 79, 0
2, 86381, Note_on_c, 0, 72, 0
2, 86381, Note_on_c, 0, 71, 0
2, 86381, Note_on_c, 0, 83, 0
2, 86382, Note_on_c, 0, 60, 0
2, 86382, Note_on_c, 0, 69, 0
2, 86386, Note_on_c, 0, 52, 0
2, 86423, Note_on_c, 0, 36, 0
2, 86423, Note_on_c, 0, 48, 0
2, 86430, Note_on_c, 0, 81, 0
2, 86442, Note_on_c, 0, 86, 102
2, 86444, Note_on_c, 0, 74, 94
2, 86465, Note_on_c, 0, 86, 0
2, 86484, Note_on_c, 0, 74, 0
2, 86585, Note_on_c, 0, 83, 108
2, 86588, Note_on_c, 0, 78, 100
2, 86588, Note_on_c, 0, 74, 95
2, 86588, Note_on_c, 0, 71, 98
2, 86589, Note_on_c, 0, 38, 91
2, 86591, Note_on_c, 0, 50, 88
2, 86622, Control_c, 0, 64, 127
2, 86737, Note_on_c, 0, 38, 0
2, 86737, Note_on_c, 0, 50, 0
2, 86749, Note_on_c, 0, 50, 79
2, 86749, Note_on_c, 0, 38, 80
2, 86817, Note_on_c, 0, 57, 54
2, 86874, Note_on_c, 0, 62, 88
2, 86891, Note_on_c, 0, 71, 0
2, 86895, Note_on_c, 0, 71, 54
2, 86976, Note_on_c, 0, 66, 81
2, 87052, Note_on_c, 0, 71, 0
2, 87054, Note_on_c, 0, 69, 67
2, 87056, Note_on_c, 0, 71, 67
2, 87114, Note_on_c, 0, 74, 0
2, 87118, Note_on_c, 0, 74, 91
2, 87214, Note_on_c, 0, 83, 0
2, 87221, Note_on_c, 0, 71, 0
2, 87224, Note_on_c, 0, 83, 108
2, 87226, Note_on_c, 0, 71, 96
2, 87229, Note_on_c, 0, 69, 0
2, 87232, Note_on_c, 0, 38, 0
2, 87233, Note_on_c, 0, 62, 0
2, 87233, Note_on_c, 0, 66, 0
2, 87233, Note_on_c, 0, 78, 0
2, 87234, Note_on_c, 0, 50, 0
2, 87234, Note_on_c, 0, 74, 0
2, 87234, Note_on_c, 0, 57, 0
2, 87234, Note_on_c, 0, 69, 63
2, 87240, Control_c, 0, 64, 0
2, 87313, Control_c, 0, 64, 127
2, 87421, Note_on_c, 0, 69, 0
2, 87466, Note_on_c, 0, 81, 106
2, 87469, Note_on_c, 0, 69, 91
2, 87475, Note_on_c, 0, 71, 0
2, 87481, Note_on_c, 0, 71, 77
2, 87700, Note_on_c, 0, 86, 101
2, 87701, Note_on_c, 0, 74, 98
2, 87791, Note_on_c, 0, 81, 0
2, 87791, Note_on_c, 0, 71, 0
2, 87792, Note_on_c, 0, 69, 0
2, 87792, Note_on_c, 0, 74, 0
2, 87793, Note_on_c, 0, 86, 0
2, 87797, Note_on_c, 0, 83, 0
2, 87800, Control_c, 0, 64, 0
2, 87846, Note_on_c, 0, 88, 104
2, 87847, Note_on_c, 0, 76, 106
2, 87847, Note_on_c, 0, 49, 90
2, 87847, Note_on_c, 0, 83, 96
2, 87847, Note_on_c, 0, 80, 106
2, 87849, Note_on_c, 0, 37, 90
2, 87866, Control_c, 0, 64, 127
2, 88087, Note_on_c, 0, 75, 91
2, 88089, Note_on_c, 0, 63, 86
2, 88093, Note_on_c, 0, 68, 77
2, 88093, Note_on_c, 0, 56, 72
2, 88132, Note_on_c, 0, 52, 37
2, 88220, Note_on_c, 0, 49, 0
2, 88220, Note_on_c, 0, 52, 0
2, 88225, Note_on_c, 0, 49, 61
2, 88229, Note_on_c, 0, 52, 58
2, 88335, Note_on_c, 0, 49, 0
2, 88335, Note_on_c, 0, 68, 0
2, 88335, Note_on_c, 0, 76, 0
2, 88342, Note_on_c, 0, 68, 93
2, 88342, Note_on_c, 0, 76, 102
2, 88343, Note_on_c, 0, 56, 0
2, 88345, Note_on_c, 0, 61, 83
2, 88346, Note_on_c, 0, 49, 77
2, 88346, Note_on_c, 0, 64, 78
2, 88349, Note_on_c, 0, 56, 74
2, 88465, Note_on_c, 0, 49, 0
2, 88470, Note_on_c, 0, 49, 78
2, 88542, Note_on_c, 0, 61, 0
2, 88546, Note_on_c, 0, 61, 71
2, 88550, Note_on_c, 0, 49, 0
2, 88555, Note_on_c, 0, 49, 64
2, 88573, Note_on_c, 0, 56, 0
2, 88577, Note_on_c, 0, 56, 67
2, 88641, Note_on_c, 0, 71, 84
2, 88657, Note_on_c, 0, 61, 0
2, 88662, Note_on_c, 0, 61, 65
2, 88711, Note_on_c, 0, 49, 0
2, 88718, Note_on_c, 0, 49, 48
2, 88734, Note_on_c, 0, 52, 0
2, 88738, Note_on_c, 0, 52, 50
2, 88796, Note_on_c, 0, 37, 0
2, 88796, Note_on_c, 0, 49, 0
2, 88796, Note_on_c, 0, 75, 0
2, 88800, Note_on_c, 0, 63, 0
2, 88800, Note_on_c, 0, 80, 0
2, 88800, Note_on_c, 0, 52, 0
2, 88801, Control_c, 0, 64, 0
2, 88801, Note_on_c, 0, 56, 0
2, 88801, Note_on_c, 0, 76, 0
2, 88802, Note_on_c, 0, 88, 0
2, 88805, Note_on_c, 0, 49, 77
2, 88806, Note_on_c, 0, 37, 86
2, 88806, Note_on_c, 0, 75, 97
2, 88819, Note_on_c, 0, 64, 0
2, 88826, Note_on_c, 0, 68, 0
2, 88828, Note_on_c, 0, 64, 46
2, 88832, Note_on_c, 0, 68, 34
2, 88849, Control_c, 0, 64, 127
2, 88911, Note_on_c, 0, 83, 0
2, 88942, Note_on_c, 0, 37, 0
2, 88942, Note_on_c, 0, 49, 0
2, 88948, Note_on_c, 0, 37, 73
2, 88949, Note_on_c, 0, 49, 64
2, 88951, Note_on_c, 0, 76, 91
2, 89057, Note_on_c, 0, 61, 0
2, 89070, Note_on_c, 0, 75, 0
2, 89083, Control_c, 0, 64, 0
2, 89095, Note_on_c, 0, 76, 0
2, 89103, Note_on_c, 0, 88, 107
2, 89105, Note_on_c, 0, 76, 110
2, 89106, Note_on_c, 0, 81, 101
2, 89107, Note_on_c, 0, 85, 101
2, 89107, Note_on_c, 0, 33, 89
2, 89109, Note_on_c, 0, 45, 92
2, 89111, Note_on_c, 0, 68, 0
2, 89126, Note_on_c, 0, 71, 0
2, 89126, Control_c, 0, 64, 127
2, 89256, Note_on_c, 0, 76, 0
2, 89264, Note_on_c, 0, 45, 0
2, 89266, Note_on_c, 0, 76, 82
2, 89273, Note_on_c, 0, 45, 66
2, 89341, Note_on_c, 0, 49, 0
2, 89344, Note_on_c, 0, 87, 94
2, 89345, Note_on_c, 0, 75, 96
2, 89346, Note_on_c, 0, 63, 92
2, 89348, Note_on_c, 0, 49, 74
2, 89353, Note_on_c, 0, 52, 76
2, 89587, Note_on_c, 0, 64, 0
2, 89587, Note_on_c, 0, 76, 0
2, 89591, Note_on_c, 0, 76, 103
2, 89594, Note_on_c, 0, 64, 94
2, 89594, Note_on_c, 0, 52, 0
2, 89598, Note_on_c, 0, 73, 90
2, 89599, Note_on_c, 0, 69, 71
2, 89600, Note_on_c, 0, 52, 73
2, 89608, Note_on_c, 0, 57, 79
2, 89733, Note_on_c, 0, 45, 0
2, 89737, Note_on_c, 0, 45, 73
2, 89840, Note_on_c, 0, 52, 0
2, 89851, Note_on_c, 0, 52, 71
2, 89890, Note_on_c, 0, 76, 0
2, 89897, Note_on_c, 0, 71, 89
2, 89917, Note_on_c, 0, 45, 0
2, 89926, Note_on_c, 0, 45, 83
2, 90040, Note_on_c, 0, 33, 0
2, 90042, Control_c, 0, 64, 0
2, 90043, Note_on_c, 0, 69, 0
2, 90043, Note_on_c, 0, 81, 0
2, 90043, Note_on_c, 0, 63, 0
2, 90043, Note_on_c, 0, 57, 0
2, 90043, Note_on_c, 0, 73, 0
2, 90043, Note_on_c, 0, 71, 0
2, 90043, Note_on_c, 0, 85, 0
2, 90044, Note_on_c, 0, 88, 0
2, 90048, Note_on_c, 0, 37, 0
2, 90048, Note_on_c, 0, 75, 0
2, 90048, Note_on_c, 0, 87, 0
2, 90051, Note_on_c, 0, 33, 80
2, 90052, Note_on_c, 0, 75, 103
2, 90054, Note_on_c, 0, 87, 87
2, 90055, Note_on_c, 0, 49, 0
2, 90063, Note_on_c, 0, 52, 0
2, 90063, Note_on_c, 0, 64, 0
2, 90081, Note_on_c, 0, 83, 47
2, 90083, Note_on_c, 0, 85, 44
2, 90094, Control_c, 0, 64, 127
2, 90186, Note_on_c, 0, 33, 0
2, 90186, Note_on_c, 0, 45, 0
2, 90196, Note_on_c, 0, 76, 90
2, 90197, Note_on_c, 0, 45, 73
2, 90197, Note_on_c, 0, 33, 76
2, 90318, Note_on_c, 0, 75, 0
2, 90320, Note_on_c, 0, 45, 0
2, 90326, Control_c, 0, 64, 0
2, 90332, Note_on_c, 0, 87, 0
2, 90339, Note_on_c, 0, 85, 0
2, 90355, Note_on_c, 0, 76, 0
2, 90355, Note_on_c, 0, 83, 0
2, 90360, Note_on_c, 0, 88, 103
2, 90363, Note_on_c, 0, 80, 101
2, 90364, Note_on_c, 0, 83, 97
2, 90365, Note_on_c, 0, 52, 99
2, 90365, Note_on_c, 0, 40, 98
2, 90365, Note_on_c, 0, 76, 104
2, 90378, Control_c, 0, 64, 127
2, 90591, Note_on_c, 0, 75, 90
2, 90595, Note_on_c, 0, 63, 90
2, 90597, Note_on_c, 0, 59, 78
2, 90598, Note_on_c, 0, 68, 82
2, 90598, Note_on_c, 0, 71, 69
2, 90621, Control_c, 0, 64, 0
2, 90639, Control_c, 0, 64, 127
2, 90834, Control_c, 0, 64, 0
2, 90839, Note_on_c, 0, 76, 0
2, 90843, Note_on_c, 0, 80, 0
2, 90846, Note_on_c, 0, 52, 0
2, 90846, Note_on_c, 0, 68, 0
2, 90846, Note_on_c, 0, 71, 0
2, 90848, Note_on_c, 0, 76, 103
2, 90850, Note_on_c, 0, 68, 93
2, 90851, Note_on_c, 0, 71, 75
2, 90852, Note_on_c, 0, 64, 83
2, 90852, Note_on_c, 0, 52, 77
2, 90854, Note_on_c, 0, 59, 0
2, 90862, Note_on_c, 0, 59, 81
2, 90862, Note_on_c, 0, 33, 0
2, 90869, Control_c, 0, 64, 127
2, 90961, Note_on_c, 0, 52, 0
2, 90972, Note_on_c, 0, 52, 77
2, 91015, Note_on_c, 0, 68, 0
2, 91021, Note_on_c, 0, 68, 56
2, 91023, Note_on_c, 0, 76, 0
2, 91032, Note_on_c, 0, 76, 71
2, 91077, Note_on_c, 0, 59, 0
2, 91081, Note_on_c, 0, 62, 57
2, 91086, Note_on_c, 0, 59, 82
2, 91130, Note_on_c, 0, 68, 0
2, 91138, Note_on_c, 0, 64, 0
2, 91138, Note_on_c, 0, 71, 0
2, 91140, Note_on_c, 0, 68, 74
2, 91142, Note_on_c, 0, 71, 90
2, 91148, Note_on_c, 0, 64, 75
2, 91169, Note_on_c, 0, 52, 0
2, 91177, Note_on_c, 0, 52, 77
2, 91273, Control_c, 0, 64, 0
2, 91281, Note_on_c, 0, 52, 0
2, 91282, Note_on_c, 0, 76, 0
2, 91282, Note_on_c, 0, 64, 0
2, 91282, Note_on_c, 0, 68, 0
2, 91284, Note_on_c, 0, 40, 0
2, 91284, Note_on_c, 0, 75, 0
2, 91284, Note_on_c, 0, 88, 0
2, 91293, Note_on_c, 0, 40, 89
2, 91294, Note_on_c, 0, 75, 99
2, 91299, Note_on_c, 0, 83, 0
2, 91322, Note_on_c, 0, 62, 0
2, 91322, Control_c, 0, 64, 127
2, 91330, Note_on_c, 0, 59, 0
2, 91430, Note_on_c, 0, 40, 0
2, 91436, Note_on_c, 0, 76, 90
2, 91440, Note_on_c, 0, 52, 78
2, 91440, Note_on_c, 0, 40, 77
2, 91476, Note_on_c, 0, 63, 0
2, 91518, Control_c, 0, 64, 0
2, 91522, Note_on_c, 0, 75, 0
2, 91522, Note_on_c, 0, 52, 0
2, 91522, Note_on_c, 0, 71, 0
2, 91523, Note_on_c, 0, 40, 0
2, 91523, Note_on_c, 0, 76, 0
2, 91596, Note_on_c, 0, 92, 108
2, 91596, Note_on_c, 0, 39, 101
2, 91597, Note_on_c, 0, 80, 103
2, 91599, Control_c, 0, 64, 127
2, 91600, Note_on_c, 0, 51, 102
2, 91604, Note_on_c, 0, 87, 81
2, 91607, Note_on_c, 0, 88, 76
2, 91610, Note_on_c, 0, 83, 88
2, 91615, Note_on_c, 0, 42, 70
2, 91622, Note_on_c, 0, 42, 0
2, 91726, Note_on_c, 0, 83, 0
2, 91726, Note_on_c, 0, 80, 0
2, 91727, Note_on_c, 0, 39, 0
2, 91728, Note_on_c, 0, 51, 0
2, 91729, Control_c, 0, 64, 0
2, 91752, Note_on_c, 0, 87, 0
2, 91806, Note_on_c, 0, 88, 0
2, 91834, Note_on_c, 0, 93, 106
2, 91835, Note_on_c, 0, 63, 97
2, 91837, Control_c, 0, 64, 127
2, 91839, Note_on_c, 0, 81, 98
2, 91841, Note_on_c, 0, 54, 80
2, 91841, Note_on_c, 0, 59, 82
2, 92002, Note_on_c, 0, 93, 0
2, 92002, Note_on_c, 0, 81, 0
2, 92002, Control_c, 0, 64, 0
2, 92002, Note_on_c, 0, 54, 0
2, 92002, Note_on_c, 0, 63, 0
2, 92003, Note_on_c, 0, 59, 0
2, 92006, Note_on_c, 0, 92, 0
2, 92074, Note_on_c, 0, 90, 106
2, 92074, Note_on_c, 0, 75, 98
2, 92077, Note_on_c, 0, 59, 74
2, 92078, Note_on_c, 0, 78, 101
2, 92078, Note_on_c, 0, 87, 90
2, 92079, Note_on_c, 0, 71, 85
2, 92080, Note_on_c, 0, 66, 88
2, 92090, Control_c, 0, 64, 127
2, 92365, Note_on_c, 0, 78, 0
2, 92366, Note_on_c, 0, 71, 0
2, 92367, Control_c, 0, 64, 0
2, 92368, Note_on_c, 0, 90, 0
2, 92369, Note_on_c, 0, 59, 0
2, 92373, Note_on_c, 0, 63, 81
2, 92375, Note_on_c, 0, 66, 0
2, 92379, Note_on_c, 0, 51, 84
2, 92380, Note_on_c, 0, 88, 97
2, 92382, Note_on_c, 0, 75, 0
2, 92383, Note_on_c, 0, 76, 93
2, 92390, Note_on_c, 0, 87, 0
2, 92459, Control_c, 0, 64, 127
2, 92463, Control_c, 0, 64, 0
2, 92465, Note_on_c, 0, 51, 0
2, 92465, Note_on_c, 0, 76, 0
2, 92469, Note_on_c, 0, 88, 0
2, 92474, Note_on_c, 0, 63, 0
2, 92545, Note_on_c, 0, 88, 101
2, 92546, Note_on_c, 0, 51, 84
2, 92547, Note_on_c, 0, 76, 94
2, 92548, Note_on_c, 0, 39, 85
2, 92567, Control_c, 0, 64, 127
2, 92747, Control_c, 0, 64, 0
2, 92747, Note_on_c, 0, 76, 0
2, 92747, Note_on_c, 0, 39, 0
2, 92747, Note_on_c, 0, 88, 0
2, 92774, Note_on_c, 0, 51, 0
2, 92859, Note_on_c, 0, 49, 79
2, 92859, Note_on_c, 0, 88, 99
2, 92881, Control_c, 0, 64, 127
2, 92945, Note_on_c, 0, 56, 68
2, 92953, Note_on_c, 0, 80, 82
2, 93002, Note_on_c, 0, 59, 62
2, 93040, Note_on_c, 0, 76, 73
2, 93100, Note_on_c, 0, 63, 73
2, 93100, Note_on_c, 0, 87, 92
2, 93196, Note_on_c, 0, 80, 0
2, 93208, Note_on_c, 0, 80, 79
2, 93215, Note_on_c, 0, 68, 48
2, 93219, Note_on_c, 0, 59, 0
2, 93219, Note_on_c, 0, 68, 0
2, 93224, Note_on_c, 0, 59, 52
2, 93281, Note_on_c, 0, 76, 0
2, 93287, Note_on_c, 0, 76, 74
2, 93327, Note_on_c, 0, 88, 0
2, 93337, Note_on_c, 0, 88, 97
2, 93337, Note_on_c, 0, 64, 74
2, 93396, Note_on_c, 0, 80, 0
2, 93407, Note_on_c, 0, 80, 81
2, 93473, Note_on_c, 0, 64, 0
2, 93473, Note_on_c, 0, 76, 0
2, 93479, Note_on_c, 0, 76, 75
2, 93484, Note_on_c, 0, 64, 46
2, 93573, Note_on_c, 0, 59, 0
2, 93583, Note_on_c, 0, 59, 66
2, 93613, Note_on_c, 0, 83, 87
2, 93680, Note_on_c, 0, 56, 0
2, 93688, Note_on_c, 0, 76, 0
2, 93689, Note_on_c, 0, 56, 59
2, 93692, Note_on_c, 0, 76, 88
2, 93772, Note_on_c, 0, 87, 0
2, 93781, Note_on_c, 0, 87, 90
2, 93781, Note_on_c, 0, 61, 64
2, 93789, Note_on_c, 0, 85, 75
2, 93857, Note_on_c, 0, 76, 0
2, 93867, Note_on_c, 0, 76, 88
2, 93918, Note_on_c, 0, 59, 0
2, 93918, Note_on_c, 0, 88, 0
2, 93927, Note_on_c, 0, 88, 99
2, 93929, Note_on_c, 0, 59, 61
2, 93989, Note_on_c, 0, 52, 46
2, 94010, Note_on_c, 0, 76, 0
2, 94017, Note_on_c, 0, 76, 82
2, 94035, Note_on_c, 0, 87, 0
2, 94035, Note_on_c, 0, 49, 0
2, 94035, Note_on_c, 0, 80, 0
2, 94036, Note_on_c, 0, 83, 0
2, 94036, Note_on_c, 0, 63, 0
2, 94036, Note_on_c, 0, 64, 0
2, 94036, Control_c, 0, 64, 0
2, 94037, Note_on_c, 0, 56, 0
2, 94037, Note_on_c, 0, 85, 0
2, 94041, Note_on_c, 0, 52, 0
2, 94049, Note_on_c, 0, 59, 0
2, 94049, Note_on_c, 0, 61, 0
2, 94064, Note_on_c, 0, 88, 0
2, 94068, Note_on_c, 0, 45, 82
2, 94072, Note_on_c, 0, 88, 97
2, 94126, Control_c, 0, 64, 127
2, 94157, Note_on_c, 0, 52, 63
2, 94158, Note_on_c, 0, 81, 82
2, 94214, Note_on_c, 0, 57, 71
2, 94241, Note_on_c, 0, 76, 0
2, 94251, Note_on_c, 0, 76, 75
2, 94308, Note_on_c, 0, 63, 86
2, 94313, Note_on_c, 0, 87, 95
2, 94402, Note_on_c, 0, 81, 0
2, 94408, Note_on_c, 0, 81, 84
2, 94487, Note_on_c, 0, 76, 0
2, 94496, Note_on_c, 0, 76, 73
2, 94540, Note_on_c, 0, 88, 0
2, 94548, Note_on_c, 0, 88, 97
2, 94549, Note_on_c, 0, 64, 85
2, 94609, Note_on_c, 0, 81, 0
2, 94618, Note_on_c, 0, 81, 85
2, 94694, Note_on_c, 0, 64, 0
2, 94694, Note_on_c, 0, 76, 0
2, 94704, Note_on_c, 0, 76, 83
2, 94704, Note_on_c, 0, 64, 59
2, 94794, Note_on_c, 0, 81, 0
2, 94803, Note_on_c, 0, 81, 79
2, 94831, Note_on_c, 0, 69, 54
2, 94837, Note_on_c, 0, 83, 91
2, 94909, Note_on_c, 0, 52, 0
2, 94909, Note_on_c, 0, 76, 0
2, 94914, Note_on_c, 0, 76, 90
2, 94914, Note_on_c, 0, 52, 56
2, 94986, Note_on_c, 0, 87, 0
2, 94996, Note_on_c, 0, 87, 96
2, 95009, Note_on_c, 0, 45, 0
2, 95014, Note_on_c, 0, 45, 75
2, 95086, Note_on_c, 0, 76, 0
2, 95090, Note_on_c, 0, 76, 86
2, 95139, Note_on_c, 0, 57, 0
2, 95139, Note_on_c, 0, 88, 0
2, 95146, Note_on_c, 0, 88, 96
2, 95147, Note_on_c, 0, 57, 73
2, 95158, Note_on_c, 0, 69, 0
2, 95232, Note_on_c, 0, 76, 0
2, 95237, Note_on_c, 0, 52, 0
2, 95237, Note_on_c, 0, 45, 0
2, 95237, Note_on_c, 0, 57, 0
2, 95238, Note_on_c, 0, 63, 0
2, 95238, Note_on_c, 0, 83, 0
2, 95238, Note_on_c, 0, 64, 0
2, 95238, Note_on_c, 0, 81, 0
2, 95238, Note_on_c, 0, 88, 0
2, 95239, Note_on_c, 0, 87, 0
2, 95239, Note_on_c, 0, 76, 87
2, 95242, Control_c, 0, 64, 0
2, 95290, Note_on_c, 0, 40, 86
2, 95291, Note_on_c, 0, 88, 101
2, 95324, Control_c, 0, 64, 127
2, 95358, Note_on_c, 0, 52, 69
2, 95380, Note_on_c, 0, 80, 87
2, 95454, Note_on_c, 0, 76, 0
2, 95466, Note_on_c, 0, 76, 83
2, 95466, Note_on_c, 0, 59, 69
2, 95540, Note_on_c, 0, 87, 96
2, 95549, Note_on_c, 0, 63, 80
2, 95623, Note_on_c, 0, 80, 0
2, 95634, Note_on_c, 0, 80, 86
2, 95708, Note_on_c, 0, 76, 0
2, 95717, Note_on_c, 0, 76, 83
2, 95761, Note_on_c, 0, 64, 87
2, 95761, Note_on_c, 0, 88, 0
2, 95766, Note_on_c, 0, 88, 99
2, 95861, Note_on_c, 0, 80, 0
2, 95866, Note_on_c, 0, 80, 75
2, 95923, Note_on_c, 0, 76, 0
2, 95930, Note_on_c, 0, 76, 80
2, 96015, Note_on_c, 0, 59, 0
2, 96024, Note_on_c, 0, 83, 89
2, 96025, Note_on_c, 0, 59, 77
2, 96069, Note_on_c, 0, 52, 0
2, 96080, Note_on_c, 0, 52, 55
2, 96107, Note_on_c, 0, 76, 0
2, 96114, Note_on_c, 0, 76, 87
2, 96184, Note_on_c, 0, 87, 0
2, 96189, Note_on_c, 0, 87, 97
2, 96192, Note_on_c, 0, 40, 0
2, 96202, Note_on_c, 0, 40, 83
2, 96284, Note_on_c, 0, 76, 0
2, 96288, Note_on_c, 0, 76, 85
2, 96314, Note_on_c, 0, 52, 0
2, 96318, Note_on_c, 0, 52, 75
2, 96337, Note_on_c, 0, 88, 0
2, 96341, Note_on_c, 0, 88, 100
2, 96407, Note_on_c, 0, 76, 0
2, 96418, Note_on_c, 0, 76, 84
2, 96451, Control_c, 0, 64, 0
2, 96458, Note_on_c, 0, 80, 0
2, 96458, Note_on_c, 0, 83, 0
2, 96463, Note_on_c, 0, 64, 0
2, 96463, Note_on_c, 0, 63, 0
2, 96464, Note_on_c, 0, 52, 0
2, 96464, Note_on_c, 0, 76, 0
2, 96464, Note_on_c, 0, 88, 0
2, 96476, Note_on_c, 0, 59, 0
2, 96480, Note_on_c, 0, 39, 80
2, 96487, Note_on_c, 0, 92, 103
2, 96514, Control_c, 0, 64, 127
2, 96554, Note_on_c, 0, 52, 66
2, 96560, Note_on_c, 0, 52, 0
2, 96576, Note_on_c, 0, 87, 0
2, 96583, Note_on_c, 0, 87, 81
2, 96650, Note_on_c, 0, 54, 61
2, 96655, Note_on_c, 0, 83, 83
2, 96716, Note_on_c, 0, 93, 100
2, 96724, Note_on_c, 0, 59, 80
2, 96791, Note_on_c, 0, 87, 0
2, 96801, Note_on_c, 0, 87, 82
2, 96832, Note_on_c, 0, 63, 67
2, 96875, Note_on_c, 0, 83, 0
2, 96880, Note_on_c, 0, 83, 82
2, 96886, Note_on_c, 0, 66, 74
2, 96942, Note_on_c, 0, 71, 88
2, 96955, Note_on_c, 0, 90, 100
2, 97021, Note_on_c, 0, 87, 0
2, 97031, Note_on_c, 0, 87, 80
2, 97082, Note_on_c, 0, 83, 0
2, 97092, Note_on_c, 0, 83, 79
2, 97173, Note_on_c, 0, 78, 82
2, 97190, Note_on_c, 0, 40, 0
2, 97255, Note_on_c, 0, 75, 73
2, 97305, Note_on_c, 0, 71, 0
2, 97316, Note_on_c, 0, 71, 74
2, 97397, Note_on_c, 0, 66, 0
2, 97408, Note_on_c, 0, 66, 74
2, 97482, Note_on_c, 0, 63, 0
2, 97492, Note_on_c, 0, 63, 71
2, 97559, Note_on_c, 0, 59, 0
2, 97563, Note_on_c, 0, 59, 76
2, 97655, Note_on_c, 0, 63, 0
2, 97655, Note_on_c, 0, 71, 0
2, 97655, Note_on_c, 0, 59, 0
2, 97655, Note_on_c, 0, 87, 0
2, 97655, Note_on_c, 0, 78, 0
2, 97655, Note_on_c, 0, 90, 0
2, 97655, Note_on_c, 0, 75, 0
2, 97656, Note_on_c, 0, 83, 0
2, 97656, Control_c, 0, 64, 0
2, 97656, Note_on_c, 0, 66, 0
2, 97656, Note_on_c, 0, 54, 0
2, 97658, Note_on_c, 0, 39, 0
2, 97659, Note_on_c, 0, 93, 0
2, 97674, Note_on_c, 0, 92, 0
2, 97724, Note_on_c, 0, 76, 92
2, 97738, Note_on_c, 0, 49, 66
2, 97739, Note_on_c, 0, 68, 68
2, 97766, Control_c, 0, 64, 127
2, 97891, Note_on_c, 0, 56, 62
2, 97975, Note_on_c, 0, 75, 79
2, 97977, Note_on_c, 0, 59, 56
2, 97992, Control_c, 0, 64, 0
2, 98027, Control_c, 0, 64, 127
2, 98042, Note_on_c, 0, 63, 69
2, 98227, Note_on_c, 0, 49, 0
2, 98231, Note_on_c, 0, 78, 84
2, 98236, Note_on_c, 0, 49, 52
2, 98304, Note_on_c, 0, 56, 0
2, 98308, Note_on_c, 0, 56, 62
2, 98380, Note_on_c, 0, 59, 0
2, 98390, Note_on_c, 0, 59, 69
2, 98534, Note_on_c, 0, 49, 0
2, 98542, Note_on_c, 0, 76, 0
2, 98545, Note_on_c, 0, 49, 59
2, 98549, Note_on_c, 0, 76, 78
2, 98695, Note_on_c, 0, 63, 0
2, 98695, Note_on_c, 0, 75, 0
2, 98700, Note_on_c, 0, 75, 82
2, 98704, Note_on_c, 0, 63, 65
2, 98833, Note_on_c, 0, 49, 0
2, 98833, Note_on_c, 0, 76, 0
2, 98838, Note_on_c, 0, 49, 63
2, 98839, Note_on_c, 0, 76, 79
2, 98930, Note_on_c, 0, 71, 80
2, 98943, Note_on_c, 0, 68, 0
2, 98944, Note_on_c, 0, 63, 0
2, 98944, Note_on_c, 0, 56, 0
2, 98944, Note_on_c, 0, 75, 0
2, 98944, Note_on_c, 0, 78, 0
2, 98945, Note_on_c, 0, 49, 0
2, 98945, Note_on_c, 0, 76, 0
2, 98945, Control_c, 0, 64, 0
2, 98972, Note_on_c, 0, 59, 0
2, 99020, Note_on_c, 0, 45, 68
2, 99033, Control_c, 0, 64, 127
2, 99175, Note_on_c, 0, 52, 59
2, 99182, Note_on_c, 0, 64, 67
2, 99242, Note_on_c, 0, 59, 70
2, 99269, Note_on_c, 0, 47, 59
2, 99273, Note_on_c, 0, 66, 67
2, 99329, Note_on_c, 0, 68, 78
2, 99331, Note_on_c, 0, 63, 68
2, 99379, Note_on_c, 0, 52, 0
2, 99390, Note_on_c, 0, 52, 50
2, 99410, Note_on_c, 0, 69, 71
2, 99456, Note_on_c, 0, 71, 0
2, 99466, Note_on_c, 0, 71, 76
2, 99479, Note_on_c, 0, 45, 0
2, 99490, Note_on_c, 0, 45, 65
2, 99514, Note_on_c, 0, 73, 73
2, 99548, Note_on_c, 0, 52, 0
2, 99555, Note_on_c, 0, 75, 78
2, 99559, Note_on_c, 0, 52, 51
2, 99617, Note_on_c, 0, 52, 0
2, 99621, Note_on_c, 0, 52, 60
2, 99622, Note_on_c, 0, 76, 78
2, 99655, Note_on_c, 0, 59, 0
2, 99660, Note_on_c, 0, 59, 72
2, 99686, Note_on_c, 0, 78, 78
2, 99732, Note_on_c, 0, 80, 80
2, 99732, Note_on_c, 0, 52, 0
2, 99743, Note_on_c, 0, 52, 61
2, 99796, Note_on_c, 0, 81, 81
2, 99836, Note_on_c, 0, 57, 60
2, 99839, Note_on_c, 0, 83, 84
2, 99880, Note_on_c, 0, 85, 82
2, 99950, Note_on_c, 0, 88, 88
2, 99985, Note_on_c, 0, 63, 0
2, 99996, Note_on_c, 0, 63, 80
2, 100001, Note_on_c, 0, 47, 0
2, 100019, Note_on_c, 0, 90, 75
2, 100058, Note_on_c, 0, 92, 72
2, 100097, Note_on_c, 0, 93, 68
2, 100108, Note_on_c, 0, 95, 81
2, 100139, Note_on_c, 0, 45, 0
2, 100146, Note_on_c, 0, 45, 72
2, 100254, Note_on_c, 0, 81, 0
2, 100254, Note_on_c, 0, 69, 0
2, 100254, Note_on_c, 0, 93, 0
2, 100254, Note_on_c, 0, 45, 0
2, 100255, Note_on_c, 0, 52, 0
2, 100255, Note_on_c, 0, 73, 0
2, 100255, Note_on_c, 0, 78, 0
2, 100255, Note_on_c, 0, 57, 0
2, 100255, Note_on_c, 0, 95, 0
2, 100256, Note_on_c, 0, 92, 0
2, 100256, Note_on_c, 0, 83, 0
2, 100256, Note_on_c, 0, 80, 0
2, 100256, Note_on_c, 0, 90, 0
2, 100256, Note_on_c, 0, 85, 0
2, 100256, Note_on_c, 0, 68, 0
2, 100256, Note_on_c, 0, 63, 0
2, 100256, Note_on_c, 0, 75, 0
2, 100257, Note_on_c, 0, 66, 0
2, 100257, Note_on_c, 0, 64, 0
2, 100257, Note_on_c, 0, 88, 0
2, 100260, Control_c, 0, 64, 0
2, 100270, Note_on_c, 0, 59, 0
2, 100270, Note_on_c, 0, 71, 0
2, 100285, Note_on_c, 0, 76, 0
2, 100289, Note_on_c, 0, 76, 94
2, 100302, Note_on_c, 0, 47, 82
2, 100362, Control_c, 0, 64, 127
2, 100365, Note_on_c, 0, 45, 57
2, 100446, Note_on_c, 0, 45, 0
2, 100472, Note_on_c, 0, 54, 69
2, 100535, Note_on_c, 0, 75, 88
2, 100543, Note_on_c, 0, 59, 71
2, 100554, Control_c, 0, 64, 0
2, 100601, Note_on_c, 0, 63, 67
2, 100638, Control_c, 0, 64, 127
2, 100755, Control_c, 0, 64, 0
2, 100761, Note_on_c, 0, 47, 0
2, 100766, Note_on_c, 0, 47, 65
2, 100809, Note_on_c, 0, 78, 89
2, 100846, Control_c, 0, 64, 127
2, 100853, Note_on_c, 0, 54, 0
2, 100858, Note_on_c, 0, 54, 60
2, 100858, Note_on_c, 0, 59, 0
2, 100892, Note_on_c, 0, 76, 0
2, 100938, Note_on_c, 0, 59, 66
2, 101076, Note_on_c, 0, 47, 0
2, 101087, Note_on_c, 0, 47, 74
2, 101119, Note_on_c, 0, 76, 81
2, 101130, Note_on_c, 0, 63, 0
2, 101207, Note_on_c, 0, 54, 0
2, 101216, Note_on_c, 0, 54, 55
2, 101253, Note_on_c, 0, 75, 0
2, 101264, Note_on_c, 0, 75, 81
2, 101265, Note_on_c, 0, 63, 62
2, 101306, Note_on_c, 0, 59, 0
2, 101311, Note_on_c, 0, 59, 39
2, 101391, Note_on_c, 0, 47, 0
2, 101398, Note_on_c, 0, 47, 68
2, 101414, Note_on_c, 0, 76, 0
2, 101419, Note_on_c, 0, 76, 69
2, 101511, Note_on_c, 0, 63, 0
2, 101511, Note_on_c, 0, 75, 0
2, 101512, Note_on_c, 0, 54, 0
2, 101515, Note_on_c, 0, 76, 0
2, 101516, Note_on_c, 0, 78, 0
2, 101528, Control_c, 0, 64, 0
2, 101560, Note_on_c, 0, 47, 0
2, 101566, Note_on_c, 0, 80, 86
2, 101574, Note_on_c, 0, 71, 72
2, 101575, Note_on_c, 0, 59, 0
2, 101578, Note_on_c, 0, 52, 69
2, 101579, Note_on_c, 0, 59, 65
2, 101667, Control_c, 0, 64, 127
2, 101818, Note_on_c, 0, 81, 86
2, 102057, Note_on_c, 0, 78, 87
2, 102064, Note_on_c, 0, 80, 0
2, 102064, Note_on_c, 0, 52, 0
2, 102072, Control_c, 0, 64, 0
2, 102074, Note_on_c, 0, 59, 0
2, 102079, Note_on_c, 0, 63, 73
2, 102082, Note_on_c, 0, 71, 0
2, 102085, Note_on_c, 0, 59, 65
2, 102093, Note_on_c, 0, 51, 66
2, 102093, Note_on_c, 0, 71, 60
2, 102167, Control_c, 0, 64, 127
2, 102400, Note_on_c, 0, 76, 70
2, 102412, Note_on_c, 0, 81, 0
2, 102506, Note_on_c, 0, 78, 0
2, 102506, Note_on_c, 0, 71, 0
2, 102506, Note_on_c, 0, 63, 0
2, 102506, Control_c, 0, 64, 0
2, 102507, Note_on_c, 0, 59, 0
2, 102507, Note_on_c, 0, 76, 0
2, 102507, Note_on_c, 0, 51, 0
2, 102547, Note_on_c, 0, 47, 56
2, 102547, Note_on_c, 0, 71, 66
2, 102574, Control_c, 0, 64, 127
2, 102888, Note_on_c, 0, 64, 71
2, 102888, Note_on_c, 0, 47, 0
2, 102893, Note_on_c, 0, 44, 61
2, 102894, Note_on_c, 0, 47, 54
2, 102897, Control_c, 0, 64, 0
2, 102898, Note_on_c, 0, 71, 0
2, 102942, Control_c, 0, 64, 127
2, 102983, Note_on_c, 0, 52, 37
2, 103034, Note_on_c, 0, 47, 0
2, 103034, Control_c, 0, 64, 0
2, 103045, Note_on_c, 0, 47, 52
2, 103119, Note_on_c, 0, 52, 0
2, 103125, Note_on_c, 0, 63, 68
2, 103130, Note_on_c, 0, 52, 55
2, 103131, Note_on_c, 0, 64, 0
2, 103133, Note_on_c, 0, 44, 0
2, 103203, Note_on_c, 0, 47, 0
2, 103228, Note_on_c, 0, 44, 59
2, 103229, Note_on_c, 0, 47, 47
2, 103303, Note_on_c, 0, 52, 0
2, 103313, Note_on_c, 0, 52, 54
2, 103380, Note_on_c, 0, 44, 0
2, 103384, Note_on_c, 0, 66, 74
2, 103384, Note_on_c, 0, 44, 61
2, 103388, Note_on_c, 0, 63, 0
2, 103426, Note_on_c, 0, 47, 0
2, 103441, Note_on_c, 0, 52, 0
2, 103451, Note_on_c, 0, 52, 57
2, 103534, Note_on_c, 0, 44, 0
2, 103542, Note_on_c, 0, 44, 56
2, 103546, Note_on_c, 0, 47, 49
2, 103610, Note_on_c, 0, 52, 0
2, 103619, Note_on_c, 0, 52, 55
2, 103687, Note_on_c, 0, 44, 0
2, 103687, Note_on_c, 0, 47, 0
2, 103691, Note_on_c, 0, 64, 67
2, 103692, Note_on_c, 0, 44, 57
2, 103692, Note_on_c, 0, 47, 50
2, 103762, Note_on_c, 0, 66, 0
2, 103772, Note_on_c, 0, 52, 0
2, 103778, Note_on_c, 0, 52, 55
2, 103825, Note_on_c, 0, 47, 0
2, 103834, Note_on_c, 0, 63, 76
2, 103848, Note_on_c, 0, 44, 0
2, 103848, Note_on_c, 0, 64, 0
2, 103848, Control_c, 0, 64, 127
2, 103860, Note_on_c, 0, 44, 65
2, 103869, Note_on_c, 0, 47, 47
2, 103918, Note_on_c, 0, 52, 0
2, 103929, Note_on_c, 0, 52, 49
2, 103987, Note_on_c, 0, 52, 0
2, 103992, Note_on_c, 0, 52, 61
2, 103993, Note_on_c, 0, 64, 64
2, 103994, Note_on_c, 0, 44, 0
2, 104005, Note_on_c, 0, 44, 64
2, 104044, Control_c, 0, 64, 0
2, 104045, Note_on_c, 0, 64, 0
2, 104049, Note_on_c, 0, 44, 0
2, 104056, Note_on_c, 0, 63, 0
2, 104074, Note_on_c, 0, 59, 77
2, 104079, Note_on_c, 0, 47, 0
2, 104102, Note_on_c, 0, 52, 0
2, 104106, Note_on_c, 0, 52, 43
2, 104171, Control_c, 0, 64, 127
2, 104176, Note_on_c, 0, 45, 63
2, 104182, Note_on_c, 0, 49, 51
2, 104302, Note_on_c, 0, 52, 0
2, 104310, Note_on_c, 0, 52, 54
2, 104317, Note_on_c, 0, 45, 0
2, 104323, Note_on_c, 0, 45, 58
2, 104396, Note_on_c, 0, 66, 68
2, 104417, Note_on_c, 0, 52, 0
2, 104423, Note_on_c, 0, 52, 56
2, 104442, Note_on_c, 0, 68, 73
2, 104478, Note_on_c, 0, 45, 0
2, 104486, Note_on_c, 0, 49, 0
2, 104486, Note_on_c, 0, 45, 61
2, 104496, Note_on_c, 0, 49, 60
2, 104512, Note_on_c, 0, 69, 68
2, 104563, Note_on_c, 0, 52, 0
2, 104567, Note_on_c, 0, 71, 69
2, 104573, Note_on_c, 0, 52, 60
2, 104586, Note_on_c, 0, 49, 0
2, 104596, Note_on_c, 0, 49, 53
2, 104626, Note_on_c, 0, 73, 68
2, 104655, Note_on_c, 0, 45, 0
2, 104664, Note_on_c, 0, 45, 64
2, 104664, Note_on_c, 0, 75, 72
2, 104716, Note_on_c, 0, 52, 0
2, 104722, Note_on_c, 0, 76, 75
2, 104727, Note_on_c, 0, 52, 59
2, 104739, Note_on_c, 0, 49, 0
2, 104750, Note_on_c, 0, 49, 51
2, 104778, Note_on_c, 0, 49, 0
2, 104787, Note_on_c, 0, 49, 59
2, 104789, Note_on_c, 0, 78, 79
2, 104801, Note_on_c, 0, 45, 0
2, 104806, Note_on_c, 0, 45, 57
2, 104832, Note_on_c, 0, 80, 78
2, 104862, Note_on_c, 0, 52, 0
2, 104871, Note_on_c, 0, 52, 69
2, 104896, Note_on_c, 0, 81, 79
2, 104939, Note_on_c, 0, 49, 0
2, 104950, Note_on_c, 0, 83, 75
2, 104950, Note_on_c, 0, 49, 71
2, 104954, Note_on_c, 0, 45, 0
2, 104959, Note_on_c, 0, 45, 65
2, 104988, Note_on_c, 0, 85, 74
2, 105016, Note_on_c, 0, 52, 0
2, 105023, Note_on_c, 0, 52, 66
2, 105059, Note_on_c, 0, 88, 80
2, 105093, Note_on_c, 0, 49, 0
2, 105101, Note_on_c, 0, 49, 70
2, 105128, Note_on_c, 0, 90, 70
2, 105174, Note_on_c, 0, 92, 76
2, 105204, Note_on_c, 0, 93, 71
2, 105208, Note_on_c, 0, 45, 0
2, 105219, Note_on_c, 0, 45, 63
2, 105247, Note_on_c, 0, 95, 74
2, 105292, Note_on_c, 0, 52, 0
2, 105298, Note_on_c, 0, 52, 71
2, 105402, Note_on_c, 0, 95, 0
2, 105404, Note_on_c, 0, 93, 0
2, 105404, Note_on_c, 0, 69, 0
2, 105404, Note_on_c, 0, 92, 0
2, 105404, Note_on_c, 0, 90, 0
2, 105404, Note_on_c, 0, 81, 0
2, 105405, Note_on_c, 0, 83, 0
2, 105405, Note_on_c, 0, 80, 0
2, 105405, Note_on_c, 0, 66, 0
2, 105405, Note_on_c, 0, 78, 0
2, 105405, Control_c, 0, 64, 0
2, 105405, Note_on_c, 0, 68, 0
2, 105406, Note_on_c, 0, 88, 0
2, 105406, Note_on_c, 0, 71, 0
2, 105406, Note_on_c, 0, 73, 0
2, 105406, Note_on_c, 0, 52, 0
2, 105406, Note_on_c, 0, 85, 0
2, 105406, Note_on_c, 0, 76, 0
2, 105406, Note_on_c, 0, 75, 0
2, 105408, Note_on_c, 0, 45, 0
2, 105411, Note_on_c, 0, 59, 0
2, 105415, Note_on_c, 0, 49, 0
2, 105419, Note_on_c, 0, 47, 74
2, 105434, Note_on_c, 0, 64, 83
2, 105435, Note_on_c, 0, 54, 58
2, 105500, Note_on_c, 0, 47, 0
2, 105504, Note_on_c, 0, 59, 68
2, 105505, Note_on_c, 0, 47, 69
2, 105584, Note_on_c, 0, 54, 0
2, 105590, Note_on_c, 0, 54, 61
2, 105592, Note_on_c, 0, 47, 0
2, 105597, Note_on_c, 0, 47, 59
2, 105653, Note_on_c, 0, 59, 0
2, 105660, Note_on_c, 0, 59, 59
2, 105669, Note_on_c, 0, 47, 0
2, 105674, Note_on_c, 0, 64, 0
2, 105674, Note_on_c, 0, 47, 62
2, 105679, Note_on_c, 0, 63, 83
2, 105738, Note_on_c, 0, 47, 0
2, 105738, Note_on_c, 0, 54, 0
2, 105745, Control_c, 0, 64, 127
2, 105748, Note_on_c, 0, 47, 53
2, 105749, Note_on_c, 0, 54, 52
2, 105815, Note_on_c, 0, 59, 0
2, 105824, Note_on_c, 0, 59, 67
2, 105910, Note_on_c, 0, 59, 0
2, 105914, Note_on_c, 0, 47, 0
2, 105917, Control_c, 0, 64, 0
2, 105925, Note_on_c, 0, 63, 0
2, 105925, Note_on_c, 0, 47, 56
2, 105927, Note_on_c, 0, 66, 86
2, 105937, Note_on_c, 0, 54, 0
2, 105948, Note_on_c, 0, 54, 47
2, 105996, Note_on_c, 0, 59, 61
2, 105999, Control_c, 0, 64, 127
2, 106060, Note_on_c, 0, 47, 0
2, 106060, Note_on_c, 0, 54, 0
2, 106064, Note_on_c, 0, 54, 52
2, 106064, Note_on_c, 0, 47, 51
2, 106145, Note_on_c, 0, 59, 0
2, 106154, Note_on_c, 0, 59, 58
2, 106226, Control_c, 0, 64, 0
2, 106229, Note_on_c, 0, 47, 0
2, 106233, Note_on_c, 0, 66, 0
2, 106235, Note_on_c, 0, 47, 57
2, 106237, Note_on_c, 0, 54, 0
2, 106245, Note_on_c, 0, 54, 54
2, 106250, Note_on_c, 0, 64, 75
2, 106252, Control_c, 0, 64, 127
2, 106298, Note_on_c, 0, 59, 0
2, 106310, Note_on_c, 0, 59, 74
2, 106371, Note_on_c, 0, 59, 0
2, 106378, Note_on_c, 0, 64, 0
2, 106387, Control_c, 0, 64, 0
2, 106398, Note_on_c, 0, 47, 0
2, 106398, Note_on_c, 0, 54, 0
2, 106402, Note_on_c, 0, 47, 59
2, 106404, Note_on_c, 0, 54, 63
2, 106404, Note_on_c, 0, 63, 73
2, 106441, Note_on_c, 0, 63, 0
2, 106442, Note_on_c, 0, 47, 0
2, 106444, Control_c, 0, 64, 127
2, 106536, Note_on_c, 0, 47, 60
2, 106541, Control_c, 0, 64, 0
2, 106560, Control_c, 0, 64, 127
2, 106570, Note_on_c, 0, 64, 77
2, 106682, Note_on_c, 0, 54, 0
2, 106682, Note_on_c, 0, 64, 0
2, 106684, Control_c, 0, 64, 0
2, 106718, Note_on_c, 0, 59, 62
2, 106718, Note_on_c, 0, 68, 79
2, 106723, Note_on_c, 0, 52, 65
2, 106782, Control_c, 0, 64, 127
2, 106973, Note_on_c, 0, 69, 74
2, 107000, Note_on_c, 0, 68, 0
2, 107148, Note_on_c, 0, 59, 0
2, 107148, Note_on_c, 0, 47, 0
2, 107151, Note_on_c, 0, 52, 0
2, 107155, Control_c, 0, 64, 0
2, 107166, Note_on_c, 0, 69, 0
2, 107227, Note_on_c, 0, 68, 79
2, 107231, Note_on_c, 0, 63, 69
2, 107232, Note_on_c, 0, 59, 64
2, 107233, Note_on_c, 0, 51, 62
2, 107289, Control_c, 0, 64, 127
2, 107540, Note_on_c, 0, 66, 76
2, 107657, Note_on_c, 0, 68, 0
2, 107657, Note_on_c, 0, 63, 0
2, 107659, Note_on_c, 0, 51, 0
2, 107659, Note_on_c, 0, 66, 0
2, 107660, Note_on_c, 0, 59, 0
2, 107662, Control_c, 0, 64, 0
2, 107696, Note_on_c, 0, 47, 63
2, 107700, Note_on_c, 0, 66, 64
2, 107700, Note_on_c, 0, 63, 31
2, 107701, Note_on_c, 0, 59, 48
2, 107769, Note_on_c, 0, 47, 0
2, 107788, Control_c, 0, 64, 127
2, 107957, Note_on_c, 0, 63, 0
2, 107973, Note_on_c, 0, 59, 0
2, 107973, Note_on_c, 0, 66, 0
2, 107976, Control_c, 0, 64, 0
2, 108003, Note_on_c, 0, 49, 74
2, 108034, Control_c, 0, 64, 127
2, 108065, Note_on_c, 0, 49, 0
2, 108166, Note_on_c, 0, 95, 76
2, 108167, Note_on_c, 0, 66, 77
2, 108173, Note_on_c, 0, 63, 68
2, 108176, Note_on_c, 0, 83, 70
2, 108249, Note_on_c, 0, 83, 0
2, 108249, Note_on_c, 0, 95, 0
2, 108258, Note_on_c, 0, 95, 80
2, 108259, Note_on_c, 0, 83, 83
2, 108261, Note_on_c, 0, 68, 75
2, 108262, Note_on_c, 0, 56, 75
2, 108318, Note_on_c, 0, 63, 0
2, 108318, Note_on_c, 0, 66, 0
2, 108326, Note_on_c, 0, 63, 82
2, 108327, Note_on_c, 0, 66, 81
2, 108456, Note_on_c, 0, 66, 0
2, 108456, Note_on_c, 0, 68, 0
2, 108464, Note_on_c, 0, 56, 0
2, 108467, Note_on_c, 0, 66, 67
2, 108468, Note_on_c, 0, 68, 72
2, 108475, Note_on_c, 0, 56, 72
2, 108487, Note_on_c, 0, 83, 0
2, 108487, Note_on_c, 0, 95, 0
2, 108491, Note_on_c, 0, 83, 78
2, 108492, Note_on_c, 0, 95, 69
2, 108564, Note_on_c, 0, 63, 0
2, 108564, Note_on_c, 0, 66, 0
2, 108572, Note_on_c, 0, 83, 0
2, 108572, Note_on_c, 0, 95, 0
2, 108572, Note_on_c, 0, 63, 83
2, 108574, Note_on_c, 0, 66, 86
2, 108576, Note_on_c, 0, 83, 86
2, 108578, Note_on_c, 0, 95, 75
2, 108725, Note_on_c, 0, 66, 0
2, 108725, Note_on_c, 0, 83, 0
2, 108730, Note_on_c, 0, 83, 72
2, 108733, Note_on_c, 0, 63, 0
2, 108733, Note_on_c, 0, 95, 0
2, 108736, Note_on_c, 0, 66, 83
2, 108739, Note_on_c, 0, 95, 66
2, 108741, Note_on_c, 0, 56, 0
2, 108742, Note_on_c, 0, 63, 68
2, 108746, Note_on_c, 0, 56, 54
2, 108864, Note_on_c, 0, 56, 0
2, 108864, Note_on_c, 0, 66, 0
2, 108864, Note_on_c, 0, 68, 0
2, 108864, Note_on_c, 0, 83, 0
2, 108864, Note_on_c, 0, 95, 0
2, 108869, Note_on_c, 0, 95, 82
2, 108869, Note_on_c, 0, 56, 75
2, 108869, Note_on_c, 0, 83, 87
2, 108871, Note_on_c, 0, 68, 78
2, 108871, Note_on_c, 0, 66, 72
2, 108948, Note_on_c, 0, 63, 0
2, 108948, Note_on_c, 0, 68, 0
2, 108953, Note_on_c, 0, 63, 87
2, 108956, Note_on_c, 0, 56, 0
2, 108956, Note_on_c, 0, 83, 0
2, 108957, Note_on_c, 0, 68, 82
2, 108963, Note_on_c, 0, 95, 0
2, 108967, Note_on_c, 0, 56, 72
2, 108967, Note_on_c, 0, 83, 81
2, 108973, Note_on_c, 0, 95, 67
2, 108975, Note_on_c, 0, 90, 61
2, 109064, Note_on_c, 0, 63, 0
2, 109065, Note_on_c, 0, 56, 0
2, 109067, Control_c, 0, 64, 0
2, 109079, Note_on_c, 0, 90, 0
2, 109086, Note_on_c, 0, 66, 0
2, 109102, Note_on_c, 0, 68, 0
2, 109109, Note_on_c, 0, 83, 0
2, 109109, Note_on_c, 0, 95, 0
2, 109113, Note_on_c, 0, 68, 75
2, 109113, Note_on_c, 0, 64, 85
2, 109114, Note_on_c, 0, 95, 76
2, 109117, Note_on_c, 0, 83, 86
2, 109120, Note_on_c, 0, 56, 67
2, 109141, Note_on_c, 0, 64, 0
2, 109145, Note_on_c, 0, 56, 0
2, 109194, Note_on_c, 0, 68, 0
2, 109258, Note_on_c, 0, 49, 81
2, 109263, Control_c, 0, 64, 127
2, 109272, Note_on_c, 0, 37, 44
2, 109278, Note_on_c, 0, 37, 0
2, 109393, Note_on_c, 0, 95, 0
2, 109401, Note_on_c, 0, 83, 0
2, 109404, Note_on_c, 0, 95, 88
2, 109405, Note_on_c, 0, 63, 77
2, 109405, Note_on_c, 0, 66, 79
2, 109406, Note_on_c, 0, 83, 87
2, 109493, Note_on_c, 0, 83, 0
2, 109493, Note_on_c, 0, 95, 0
2, 109500, Note_on_c, 0, 83, 85
2, 109504, Note_on_c, 0, 68, 78
2, 109504, Note_on_c, 0, 95, 81
2, 109508, Note_on_c, 0, 56, 74
2, 109555, Note_on_c, 0, 63, 0
2, 109555, Note_on_c, 0, 66, 0
2, 109563, Note_on_c, 0, 66, 87
2, 109566, Note_on_c, 0, 63, 78
2, 109578, Note_on_c, 0, 56, 0
2, 109578, Note_on_c, 0, 83, 0
2, 109578, Note_on_c, 0, 95, 0
2, 109588, Note_on_c, 0, 95, 76
2, 109588, Note_on_c, 0, 56, 47
2, 109589, Note_on_c, 0, 83, 79
2, 109708, Note_on_c, 0, 56, 0
2, 109708, Note_on_c, 0, 66, 0
2, 109717, Note_on_c, 0, 56, 61
2, 109717, Note_on_c, 0, 66, 69
2, 109724, Note_on_c, 0, 83, 0
2, 109724, Note_on_c, 0, 95, 0
2, 109730, Note_on_c, 0, 95, 55
2, 109730, Note_on_c, 0, 83, 64
2, 109808, Note_on_c, 0, 63, 0
2, 109808, Note_on_c, 0, 66, 0
2, 109808, Note_on_c, 0, 95, 0
2, 109814, Note_on_c, 0, 66, 90
2, 109816, Note_on_c, 0, 83, 0
2, 109817, Note_on_c, 0, 63, 76
2, 109819, Note_on_c, 0, 95, 81
2, 109820, Note_on_c, 0, 83, 84
2, 109977, Note_on_c, 0, 63, 0
2, 109977, Note_on_c, 0, 66, 0
2, 109977, Note_on_c, 0, 83, 0
2, 109977, Note_on_c, 0, 95, 0
2, 109982, Note_on_c, 0, 83, 83
2, 109983, Note_on_c, 0, 63, 74
2, 109984, Note_on_c, 0, 66, 78
2, 109985, Note_on_c, 0, 95, 75
2, 109993, Note_on_c, 0, 90, 64
2, 110100, Note_on_c, 0, 56, 0
2, 110106, Note_on_c, 0, 56, 74
2, 110108, Note_on_c, 0, 83, 0
2, 110108, Note_on_c, 0, 95, 0
2, 110112, Note_on_c, 0, 83, 81
2, 110112, Note_on_c, 0, 95, 70
2, 110184, Note_on_c, 0, 63, 0
2, 110184, Note_on_c, 0, 66, 0
2, 110192, Note_on_c, 0, 83, 0
2, 110192, Note_on_c, 0, 95, 0
2, 110195, Note_on_c, 0, 66, 92
2, 110195, Note_on_c, 0, 63, 87
2, 110203, Note_on_c, 0, 95, 85
2, 110203, Note_on_c, 0, 83, 89
2, 110346, Note_on_c, 0, 63, 0
2, 110346, Note_on_c, 0, 83, 0
2, 110346, Note_on_c, 0, 95, 0
2, 110350, Note_on_c, 0, 95, 83
2, 110351, Note_on_c, 0, 83, 83
2, 110353, Note_on_c, 0, 63, 70
2, 110354, Note_on_c, 0, 71, 85
2, 110361, Note_on_c, 0, 49, 0
2, 110361, Note_on_c, 0, 90, 0
2, 110364, Note_on_c, 0, 66, 0
2, 110368, Control_c, 0, 64, 0
2, 110376, Note_on_c, 0, 56, 0
2, 110380, Note_on_c, 0, 71, 0
2, 110384, Note_on_c, 0, 68, 0
2, 110392, Note_on_c, 0, 63, 0
2, 110392, Note_on_c, 0, 95, 0
2, 110400, Note_on_c, 0, 83, 0
2, 110446, Control_c, 0, 64, 127
2, 110492, Note_on_c, 0, 49, 82
2, 110499, Note_on_c, 0, 37, 49
2, 110636, Note_on_c, 0, 66, 82
2, 110641, Note_on_c, 0, 63, 72
2, 110645, Note_on_c, 0, 83, 81
2, 110646, Note_on_c, 0, 90, 69
2, 110646, Note_on_c, 0, 95, 80
2, 110722, Note_on_c, 0, 83, 0
2, 110722, Note_on_c, 0, 95, 0
2, 110728, Note_on_c, 0, 95, 88
2, 110730, Note_on_c, 0, 66, 0
2, 110733, Note_on_c, 0, 83, 83
2, 110735, Note_on_c, 0, 66, 74
2, 110740, Note_on_c, 0, 68, 78
2, 110742, Note_on_c, 0, 56, 75
2, 110791, Note_on_c, 0, 66, 0
2, 110799, Note_on_c, 0, 63, 0
2, 110803, Note_on_c, 0, 66, 89
2, 110804, Note_on_c, 0, 63, 83
2, 110814, Note_on_c, 0, 83, 0
2, 110818, Note_on_c, 0, 83, 71
2, 110822, Note_on_c, 0, 95, 0
2, 110827, Note_on_c, 0, 95, 65
2, 110945, Note_on_c, 0, 56, 0
2, 110945, Note_on_c, 0, 68, 0
2, 110951, Note_on_c, 0, 56, 74
2, 110952, Note_on_c, 0, 95, 0
2, 110954, Note_on_c, 0, 68, 79
2, 110960, Note_on_c, 0, 83, 0
2, 110962, Note_on_c, 0, 95, 85
2, 110964, Note_on_c, 0, 83, 77
2, 111045, Note_on_c, 0, 63, 0
2, 111045, Note_on_c, 0, 66, 0
2, 111045, Note_on_c, 0, 83, 0
2, 111045, Note_on_c, 0, 95, 0
2, 111050, Note_on_c, 0, 83, 89
2, 111051, Note_on_c, 0, 63, 81
2, 111052, Note_on_c, 0, 95, 83
2, 111055, Note_on_c, 0, 66, 87
2, 111129, Note_on_c, 0, 66, 0
2, 111135, Note_on_c, 0, 66, 72
2, 111198, Note_on_c, 0, 66, 0
2, 111206, Note_on_c, 0, 63, 0
2, 111206, Note_on_c, 0, 83, 0
2, 111206, Note_on_c, 0, 95, 0
2, 111207, Note_on_c, 0, 66, 78
2, 111210, Note_on_c, 0, 63, 81
2, 111214, Note_on_c, 0, 56, 0
2, 111216, Note_on_c, 0, 83, 79
2, 111217, Note_on_c, 0, 95, 80
2, 111218, Note_on_c, 0, 56, 49
2, 111321, Note_on_c, 0, 56, 0
2, 111321, Note_on_c, 0, 68, 0
2, 111321, Note_on_c, 0, 83, 0
2, 111321, Note_on_c, 0, 95, 0
2, 111326, Note_on_c, 0, 83, 85
2, 111327, Note_on_c, 0, 95, 77
2, 111331, Note_on_c, 0, 68, 77
2, 111331, Note_on_c, 0, 56, 74
2, 111398, Note_on_c, 0, 63, 0
2, 111398, Note_on_c, 0, 68, 0
2, 111402, Note_on_c, 0, 68, 91
2, 111402, Note_on_c, 0, 63, 82
2, 111406, Note_on_c, 0, 56, 0
2, 111411, Note_on_c, 0, 56, 61
2, 111429, Note_on_c, 0, 83, 0
2, 111429, Note_on_c, 0, 95, 0
2, 111433, Note_on_c, 0, 95, 70
2, 111436, Note_on_c, 0, 83, 70
2, 111498, Note_on_c, 0, 56, 0
2, 111506, Note_on_c, 0, 56, 67
2, 111544, Note_on_c, 0, 83, 0
2, 111544, Note_on_c, 0, 95, 0
2, 111547, Note_on_c, 0, 68, 0
2, 111551, Note_on_c, 0, 95, 76
2, 111555, Note_on_c, 0, 83, 85
2, 111613, Note_on_c, 0, 37, 0
2, 111620, Note_on_c, 0, 95, 0
2, 111621, Note_on_c, 0, 90, 0
2, 111621, Note_on_c, 0, 63, 0
2, 111622, Note_on_c, 0, 83, 0
2, 111622, Note_on_c, 0, 66, 0
2, 111623, Note_on_c, 0, 56, 0
2, 111624, Note_on_c, 0, 49, 0
2, 111634, Control_c, 0, 64, 0
2, 111703, Note_on_c, 0, 61, 94
2, 111704, Note_on_c, 0, 88, 98
2, 111704, Note_on_c, 0, 49, 94
2, 111708, Note_on_c, 0, 76, 94
2, 111709, Note_on_c, 0, 97, 84
2, 111713, Note_on_c, 0, 97, 0
2, 111720, Control_c, 0, 64, 127
2, 111767, Note_on_c, 0, 76, 0
2, 111849, Control_c, 0, 64, 0
2, 111876, Note_on_c, 0, 80, 71
2, 111936, Note_on_c, 0, 88, 0
2, 111940, Note_on_c, 0, 44, 94
2, 111942, Note_on_c, 0, 56, 89
2, 111943, Note_on_c, 0, 88, 99
2, 111943, Control_c, 0, 64, 127
2, 111947, Note_on_c, 0, 76, 94
2, 112038, Note_on_c, 0, 83, 68
2, 112089, Note_on_c, 0, 88, 0
2, 112097, Note_on_c, 0, 80, 0
2, 112100, Note_on_c, 0, 88, 72
2, 112101, Note_on_c, 0, 80, 74
2, 112181, Note_on_c, 0, 76, 0
2, 112181, Note_on_c, 0, 88, 0
2, 112186, Note_on_c, 0, 59, 85
2, 112186, Note_on_c, 0, 47, 87
2, 112188, Note_on_c, 0, 88, 98
2, 112192, Note_on_c, 0, 76, 94
2, 112266, Note_on_c, 0, 83, 0
2, 112276, Note_on_c, 0, 83, 78
2, 112320, Note_on_c, 0, 76, 0
2, 112320, Note_on_c, 0, 88, 0
2, 112325, Note_on_c, 0, 76, 64
2, 112330, Note_on_c, 0, 88, 70
2, 112350, Note_on_c, 0, 80, 0
2, 112356, Note_on_c, 0, 80, 70
2, 112427, Note_on_c, 0, 47, 0
2, 112427, Note_on_c, 0, 76, 0
2, 112427, Note_on_c, 0, 88, 0
2, 112432, Note_on_c, 0, 88, 96
2, 112433, Note_on_c, 0, 76, 88
2, 112434, Note_on_c, 0, 47, 76
2, 112434, Note_on_c, 0, 54, 83
2, 112437, Note_on_c, 0, 42, 91
2, 112442, Note_on_c, 0, 82, 71
2, 112512, Note_on_c, 0, 83, 0
2, 112520, Note_on_c, 0, 83, 66
2, 112535, Note_on_c, 0, 80, 0
2, 112546, Note_on_c, 0, 80, 80
2, 112565, Note_on_c, 0, 61, 0
2, 112588, Note_on_c, 0, 49, 0
2, 112650, Note_on_c, 0, 44, 0
2, 112650, Note_on_c, 0, 56, 0
2, 112656, Note_on_c, 0, 44, 88
2, 112659, Note_on_c, 0, 90, 104
2, 112659, Note_on_c, 0, 56, 85
2, 112659, Note_on_c, 0, 78, 97
2, 112802, Note_on_c, 0, 78, 0
2, 112803, Note_on_c, 0, 42, 0
2, 112811, Control_c, 0, 64, 0
2, 112811, Note_on_c, 0, 80, 0
2, 112815, Note_on_c, 0, 51, 89
2, 112816, Note_on_c, 0, 92, 102
2, 112818, Note_on_c, 0, 39, 87
2, 112818, Note_on_c, 0, 80, 89
2, 112834, Note_on_c, 0, 54, 0
2, 112849, Note_on_c, 0, 47, 0
2, 112849, Note_on_c, 0, 82, 0
2, 112865, Note_on_c, 0, 59, 0
2, 112872, Note_on_c, 0, 76, 0
2, 112888, Note_on_c, 0, 51, 0
2, 112888, Note_on_c, 0, 83, 0
2, 112903, Note_on_c, 0, 39, 0
2, 112911, Note_on_c, 0, 80, 0
2, 112919, Note_on_c, 0, 88, 0
2, 112926, Control_c, 0, 64, 127
2, 112949, Note_on_c, 0, 56, 0
2, 112967, Note_on_c, 0, 37, 91
2, 112968, Note_on_c, 0, 49, 92
2, 112969, Note_on_c, 0, 61, 80
2, 112972, Note_on_c, 0, 44, 0
2, 113008, Note_on_c, 0, 39, 28
2, 113126, Note_on_c, 0, 66, 88
2, 113130, Note_on_c, 0, 63, 78
2, 113130, Note_on_c, 0, 95, 82
2, 113131, Note_on_c, 0, 83, 84
2, 113203, Note_on_c, 0, 83, 0
2, 113203, Note_on_c, 0, 95, 0
2, 113213, Note_on_c, 0, 83, 94
2, 113214, Note_on_c, 0, 95, 78
2, 113218, Note_on_c, 0, 66, 0
2, 113221, Note_on_c, 0, 68, 76
2, 113224, Note_on_c, 0, 56, 76
2, 113227, Note_on_c, 0, 66, 73
2, 113287, Note_on_c, 0, 63, 0
2, 113287, Note_on_c, 0, 66, 0
2, 113287, Note_on_c, 0, 83, 0
2, 113287, Note_on_c, 0, 95, 0
2, 113291, Note_on_c, 0, 63, 72
2, 113291, Note_on_c, 0, 66, 82
2, 113293, Note_on_c, 0, 95, 85
2, 113293, Note_on_c, 0, 83, 90
2, 113433, Note_on_c, 0, 56, 0
2, 113441, Note_on_c, 0, 61, 0
2, 113445, Note_on_c, 0, 56, 61
2, 113448, Note_on_c, 0, 83, 0
2, 113448, Note_on_c, 0, 95, 0
2, 113452, Note_on_c, 0, 61, 60
2, 113453, Note_on_c, 0, 95, 85
2, 113453, Note_on_c, 0, 83, 70
2, 113518, Note_on_c, 0, 66, 0
2, 113525, Note_on_c, 0, 63, 0
2, 113525, Note_on_c, 0, 83, 0
2, 113525, Note_on_c, 0, 95, 0
2, 113525, Note_on_c, 0, 66, 91
2, 113529, Note_on_c, 0, 63, 86
2, 113531, Note_on_c, 0, 95, 90
2, 113536, Note_on_c, 0, 83, 90
2, 113687, Note_on_c, 0, 95, 0
2, 113694, Note_on_c, 0, 63, 0
2, 113694, Note_on_c, 0, 66, 0
2, 113694, Note_on_c, 0, 83, 0
2, 113698, Note_on_c, 0, 95, 89
2, 113699, Note_on_c, 0, 63, 70
2, 113699, Note_on_c, 0, 66, 74
2, 113703, Note_on_c, 0, 83, 81
2, 113825, Note_on_c, 0, 56, 0
2, 113825, Note_on_c, 0, 83, 0
2, 113825, Note_on_c, 0, 95, 0
2, 113832, Note_on_c, 0, 66, 0
2, 113832, Note_on_c, 0, 68, 0
2, 113834, Note_on_c, 0, 56, 78
2, 113835, Note_on_c, 0, 95, 87
2, 113835, Note_on_c, 0, 83, 83
2, 113836, Note_on_c, 0, 66, 60
2, 113837, Note_on_c, 0, 68, 73
2, 113909, Note_on_c, 0, 63, 0
2, 113909, Note_on_c, 0, 68, 0
2, 113914, Note_on_c, 0, 63, 93
2, 113917, Note_on_c, 0, 56, 0
2, 113917, Note_on_c, 0, 83, 0
2, 113917, Note_on_c, 0, 95, 0
2, 113918, Note_on_c, 0, 68, 87
2, 113922, Note_on_c, 0, 56, 71
2, 113924, Note_on_c, 0, 95, 74
2, 113926, Note_on_c, 0, 83, 82
2, 113939, Control_c, 0, 64, 0
2, 113948, Note_on_c, 0, 49, 0
2, 113963, Note_on_c, 0, 37, 0
2, 113963, Note_on_c, 0, 39, 0
2, 114055, Note_on_c, 0, 61, 0
2, 114071, Note_on_c, 0, 68, 0
2, 114071, Note_on_c, 0, 95, 0
2, 114076, Note_on_c, 0, 64, 86
2, 114078, Note_on_c, 0, 83, 0
2, 114079, Note_on_c, 0, 95, 86
2, 114079, Note_on_c, 0, 68, 74
2, 114085, Note_on_c, 0, 83, 84
2, 114086, Note_on_c, 0, 76, 74
2, 114094, Note_on_c, 0, 63, 0
2, 114101, Note_on_c, 0, 66, 0
2, 114107, Note_on_c, 0, 64, 0
2, 114109, Note_on_c, 0, 90, 0
2, 114110, Note_on_c, 0, 68, 0
2, 114117, Note_on_c, 0, 56, 0
2, 114121, Note_on_c, 0, 76, 0
2, 114124, Note_on_c, 0, 92, 0
2, 114170, Note_on_c, 0, 95, 0
2, 114209, Control_c, 0, 64, 127
2, 114228, Note_on_c, 0, 49, 80
2, 114369, Note_on_c, 0, 66, 80
2, 114370, Note_on_c, 0, 49, 0
2, 114370, Note_on_c, 0, 83, 0
2, 114374, Note_on_c, 0, 63, 67
2, 114379, Note_on_c, 0, 95, 80
2, 114381, Note_on_c, 0, 83, 79
2, 114447, Note_on_c, 0, 95, 0
2, 114455, Note_on_c, 0, 83, 0
2, 114458, Note_on_c, 0, 95, 87
2, 114459, Note_on_c, 0, 83, 86
2, 114461, Note_on_c, 0, 68, 77
2, 114467, Note_on_c, 0, 56, 80
2, 114524, Note_on_c, 0, 63, 0
2, 114524, Note_on_c, 0, 66, 0
2, 114524, Note_on_c, 0, 83, 0
2, 114529, Note_on_c, 0, 66, 90
2, 114531, Note_on_c, 0, 95, 0
2, 114532, Note_on_c, 0, 63, 88
2, 114534, Note_on_c, 0, 83, 95
2, 114536, Note_on_c, 0, 95, 87
2, 114662, Note_on_c, 0, 66, 0
2, 114670, Note_on_c, 0, 56, 0
2, 114672, Note_on_c, 0, 66, 72
2, 114681, Note_on_c, 0, 56, 70
2, 114685, Note_on_c, 0, 95, 0
2, 114693, Note_on_c, 0, 83, 0
2, 114695, Note_on_c, 0, 95, 86
2, 114697, Note_on_c, 0, 83, 80
2, 114777, Note_on_c, 0, 63, 0
2, 114777, Note_on_c, 0, 66, 0
2, 114777, Note_on_c, 0, 83, 0
2, 114777, Note_on_c, 0, 95, 0
2, 114781, Note_on_c, 0, 63, 82
2, 114782, Note_on_c, 0, 83, 88
2, 114783, Note_on_c, 0, 66, 89
2, 114783, Note_on_c, 0, 95, 81
2, 114938, Note_on_c, 0, 63, 0
2, 114938, Note_on_c, 0, 66, 0
2, 114938, Note_on_c, 0, 83, 0
2, 114938, Note_on_c, 0, 95, 0
2, 114943, Note_on_c, 0, 63, 73
2, 114944, Note_on_c, 0, 66, 80
2, 114947, Note_on_c, 0, 95, 86
2, 114947, Note_on_c, 0, 83, 86
2, 115061, Note_on_c, 0, 56, 0
2, 115061, Note_on_c, 0, 68, 0
2, 115061, Note_on_c, 0, 83, 0
2, 115061, Note_on_c, 0, 95, 0
2, 115068, Note_on_c, 0, 68, 76
2, 115068, Note_on_c, 0, 95, 75
2, 115071, Note_on_c, 0, 83, 81
2, 115072, Note_on_c, 0, 56, 76
2, 115146, Note_on_c, 0, 63, 0
2, 115146, Note_on_c, 0, 66, 0
2, 115146, Note_on_c, 0, 83, 0
2, 115146, Note_on_c, 0, 95, 0
2, 115150, Note_on_c, 0, 63, 83
2, 115155, Note_on_c, 0, 95, 94
2, 115156, Note_on_c, 0, 66, 88
2, 115157, Note_on_c, 0, 83, 94
2, 115161, Note_on_c, 0, 56, 0
2, 115172, Note_on_c, 0, 56, 67
2, 115281, Control_c, 0, 64, 0
2, 115286, Note_on_c, 0, 63, 0
2, 115292, Note_on_c, 0, 56, 0
2, 115307, Note_on_c, 0, 66, 0
2, 115307, Note_on_c, 0, 83, 0
2, 115307, Note_on_c, 0, 95, 0
2, 115311, Note_on_c, 0, 95, 90
2, 115311, Note_on_c, 0, 71, 93
2, 115312, Note_on_c, 0, 83, 86
2, 115315, Note_on_c, 0, 68, 0
2, 115315, Note_on_c, 0, 90, 81
2, 115317, Note_on_c, 0, 66, 68
2, 115318, Note_on_c, 0, 63, 69
2, 115322, Note_on_c, 0, 63, 0
2, 115345, Note_on_c, 0, 66, 0
2, 115345, Note_on_c, 0, 71, 0
2, 115353, Note_on_c, 0, 90, 0
2, 115361, Note_on_c, 0, 83, 0
2, 115368, Note_on_c, 0, 95, 0
2, 115384, Control_c, 0, 64, 127
2, 115450, Note_on_c, 0, 49, 89
2, 115456, Note_on_c, 0, 83, 75
2, 115595, Note_on_c, 0, 66, 85
2, 115599, Note_on_c, 0, 83, 0
2, 115601, Note_on_c, 0, 63, 78
2, 115608, Note_on_c, 0, 95, 81
2, 115608, Note_on_c, 0, 83, 82
2, 115683, Note_on_c, 0, 83, 0
2, 115683, Note_on_c, 0, 95, 0
2, 115691, Note_on_c, 0, 66, 0
2, 115692, Note_on_c, 0, 95, 90
2, 115694, Note_on_c, 0, 83, 96
2, 115702, Note_on_c, 0, 66, 77
2, 115703, Note_on_c, 0, 68, 73
2, 115704, Note_on_c, 0, 56, 78
2, 115760, Note_on_c, 0, 63, 0
2, 115760, Note_on_c, 0, 66, 0
2, 115760, Note_on_c, 0, 83, 0
2, 115760, Note_on_c, 0, 95, 0
2, 115768, Note_on_c, 0, 66, 88
2, 115769, Note_on_c, 0, 63, 84
2, 115771, Note_on_c, 0, 83, 91
2, 115771, Note_on_c, 0, 95, 88
2, 115906, Note_on_c, 0, 56, 0
2, 115918, Note_on_c, 0, 56, 74
2, 115929, Note_on_c, 0, 83, 0
2, 115929, Note_on_c, 0, 95, 0
2, 115940, Note_on_c, 0, 83, 89
2, 115940, Note_on_c, 0, 95, 82
2, 115998, Note_on_c, 0, 66, 0
2, 116006, Note_on_c, 0, 63, 0
2, 116009, Note_on_c, 0, 66, 92
2, 116014, Note_on_c, 0, 56, 0
2, 116014, Note_on_c, 0, 83, 0
2, 116014, Note_on_c, 0, 95, 0
2, 116016, Note_on_c, 0, 63, 83
2, 116018, Note_on_c, 0, 95, 82
2, 116019, Note_on_c, 0, 83, 85
2, 116019, Note_on_c, 0, 56, 70
2, 116167, Note_on_c, 0, 66, 0
2, 116175, Note_on_c, 0, 63, 0
2, 116175, Note_on_c, 0, 83, 0
2, 116176, Note_on_c, 0, 66, 95
2, 116179, Note_on_c, 0, 63, 71
2, 116183, Note_on_c, 0, 95, 0
2, 116186, Note_on_c, 0, 83, 89
2, 116187, Note_on_c, 0, 95, 77
2, 116190, Note_on_c, 0, 56, 0
2, 116201, Note_on_c, 0, 56, 57
2, 116298, Note_on_c, 0, 56, 0
2, 116298, Note_on_c, 0, 68, 0
2, 116298, Note_on_c, 0, 83, 0
2, 116298, Note_on_c, 0, 95, 0
2, 116303, Note_on_c, 0, 83, 89
2, 116303, Note_on_c, 0, 95, 77
2, 116303, Note_on_c, 0, 56, 77
2, 116304, Note_on_c, 0, 68, 77
2, 116359, Note_on_c, 0, 63, 0
2, 116359, Note_on_c, 0, 68, 0
2, 116367, Note_on_c, 0, 56, 0
2, 116370, Note_on_c, 0, 68, 96
2, 116370, Note_on_c, 0, 63, 92
2, 116376, Note_on_c, 0, 56, 75
2, 116382, Note_on_c, 0, 83, 0
2, 116382, Note_on_c, 0, 95, 0
2, 116386, Note_on_c, 0, 95, 82
2, 116386, Note_on_c, 0, 83, 85
2, 116520, Note_on_c, 0, 83, 0
2, 116520, Note_on_c, 0, 95, 0
2, 116524, Note_on_c, 0, 64, 88
2, 116528, Note_on_c, 0, 68, 0
2, 116531, Note_on_c, 0, 95, 90
2, 116532, Note_on_c, 0, 83, 98
2, 116535, Note_on_c, 0, 68, 82
2, 116586, Note_on_c, 0, 95, 0
2, 116587, Note_on_c, 0, 83, 0
2, 116587, Note_on_c, 0, 68, 0
2, 116591, Note_on_c, 0, 64, 0
2, 116592, Control_c, 0, 64, 0
2, 116597, Note_on_c, 0, 49, 0
2, 116605, Note_on_c, 0, 56, 0
2, 116605, Note_on_c, 0, 63, 0
2, 116605, Note_on_c, 0, 66, 0
2, 116688, Note_on_c, 0, 85, 96
2, 116692, Note_on_c, 0, 97, 87
2, 116693, Note_on_c, 0, 73, 91
2, 116694, Note_on_c, 0, 45, 91
2, 116694, Note_on_c, 0, 57, 91
2, 116697, Note_on_c, 0, 97, 0
2, 116697, Control_c, 0, 64, 127
2, 116768, Note_on_c, 0, 81, 57
2, 116843, Note_on_c, 0, 85, 0
2, 116846, Note_on_c, 0, 76, 79
2, 116849, Note_on_c, 0, 85, 63
2, 116928, Note_on_c, 0, 73, 0
2, 116928, Note_on_c, 0, 85, 0
2, 116932, Note_on_c, 0, 85, 94
2, 116935, Note_on_c, 0, 76, 0
2, 116935, Note_on_c, 0, 81, 0
2, 116937, Note_on_c, 0, 73, 90
2, 116938, Note_on_c, 0, 64, 83
2, 116939, Note_on_c, 0, 69, 86
2, 116939, Note_on_c, 0, 61, 85
2, 116940, Note_on_c, 0, 76, 80
2, 116945, Note_on_c, 0, 81, 79
2, 116989, Note_on_c, 0, 81, 0
2, 116994, Note_on_c, 0, 81, 63
2, 117066, Note_on_c, 0, 76, 0
2, 117072, Note_on_c, 0, 76, 76
2, 117081, Note_on_c, 0, 73, 0
2, 117086, Note_on_c, 0, 73, 66
2, 117093, Control_c, 0, 64, 0
2, 117095, Note_on_c, 0, 69, 0
2, 117096, Note_on_c, 0, 81, 0
2, 117096, Note_on_c, 0, 64, 0
2, 117096, Note_on_c, 0, 57, 0
2, 117097, Note_on_c, 0, 61, 0
2, 117098, Note_on_c, 0, 85, 0
2, 117104, Note_on_c, 0, 45, 0
2, 117127, Note_on_c, 0, 73, 0
2, 117127, Note_on_c, 0, 76, 0
2, 117185, Note_on_c, 0, 87, 96
2, 117187, Note_on_c, 0, 59, 90
2, 117192, Note_on_c, 0, 47, 90
2, 117193, Note_on_c, 0, 75, 90
2, 117194, Note_on_c, 0, 83, 72
2, 117219, Control_c, 0, 64, 127
2, 117250, Note_on_c, 0, 83, 0
2, 117255, Note_on_c, 0, 83, 70
2, 117336, Note_on_c, 0, 78, 72
2, 117396, Note_on_c, 0, 59, 0
2, 117400, Note_on_c, 0, 59, 71
2, 117504, Note_on_c, 0, 59, 0
2, 117504, Note_on_c, 0, 75, 0
2, 117509, Note_on_c, 0, 75, 90
2, 117509, Note_on_c, 0, 59, 65
2, 117509, Note_on_c, 0, 71, 75
2, 117667, Note_on_c, 0, 76, 89
2, 117676, Note_on_c, 0, 66, 73
2, 117676, Note_on_c, 0, 88, 75
2, 117795, Note_on_c, 0, 59, 0
2, 117807, Note_on_c, 0, 59, 73
2, 117818, Note_on_c, 0, 78, 0
2, 117824, Note_on_c, 0, 78, 91
2, 117826, Note_on_c, 0, 87, 0
2, 117827, Note_on_c, 0, 90, 80
2, 117834, Note_on_c, 0, 90, 0
2, 117838, Note_on_c, 0, 87, 59
2, 117916, Note_on_c, 0, 87, 0
2, 117916, Note_on_c, 0, 78, 0
2, 117917, Note_on_c, 0, 71, 0
2, 117917, Control_c, 0, 64, 0
2, 117917, Note_on_c, 0, 66, 0
2, 117918, Note_on_c, 0, 83, 0
2, 117918, Note_on_c, 0, 75, 0
2, 117919, Note_on_c, 0, 76, 0
2, 117926, Note_on_c, 0, 88, 0
2, 117934, Note_on_c, 0, 47, 0
2, 117934, Note_on_c, 0, 59, 0
2, 117970, Note_on_c, 0, 79, 95
2, 117975, Note_on_c, 0, 60, 71
2, 117976, Note_on_c, 0, 91, 82
2, 117980, Note_on_c, 0, 91, 0
2, 117983, Note_on_c, 0, 72, 72
2, 117983, Note_on_c, 0, 76, 76
2, 117983, Note_on_c, 0, 88, 71
2, 117984, Note_on_c, 0, 67, 56
2, 117987, Note_on_c, 0, 88, 0
2, 117991, Note_on_c, 0, 48, 58
2, 118033, Control_c, 0, 64, 127
2, 118144, Note_on_c, 0, 55, 61
2, 118172, Note_on_c, 0, 48, 0
2, 118182, Note_on_c, 0, 48, 40
2, 118295, Note_on_c, 0, 60, 0
2, 118299, Note_on_c, 0, 60, 62
2, 118307, Note_on_c, 0, 64, 47
2, 118433, Note_on_c, 0, 55, 0
2, 118444, Note_on_c, 0, 55, 59
2, 118609, Note_on_c, 0, 79, 0
2, 118617, Note_on_c, 0, 60, 0
2, 118617, Note_on_c, 0, 67, 0
2, 118618, Note_on_c, 0, 79, 65
2, 118621, Note_on_c, 0, 67, 66
2, 118625, Note_on_c, 0, 64, 0
2, 118628, Note_on_c, 0, 60, 58
2, 118631, Note_on_c, 0, 64, 50
2, 118771, Note_on_c, 0, 76, 0
2, 118778, Note_on_c, 0, 76, 87
2, 118794, Note_on_c, 0, 55, 0
2, 118797, Note_on_c, 0, 74, 57
2, 118800, Note_on_c, 0, 55, 55
2, 118932, Note_on_c, 0, 64, 0
2, 118932, Note_on_c, 0, 76, 0
2, 118936, Note_on_c, 0, 64, 66
2, 118938, Note_on_c, 0, 86, 88
2, 118940, Note_on_c, 0, 60, 0
2, 118943, Note_on_c, 0, 76, 76
2, 118944, Note_on_c, 0, 60, 69
2, 119070, Note_on_c, 0, 67, 0
2, 119078, Note_on_c, 0, 55, 0
2, 119079, Note_on_c, 0, 67, 68
2, 119085, Note_on_c, 0, 84, 92
2, 119087, Note_on_c, 0, 55, 63
2, 119204, Note_on_c, 0, 48, 0
2, 119204, Note_on_c, 0, 76, 0
2, 119204, Control_c, 0, 64, 0
2, 119204, Note_on_c, 0, 79, 0
2, 119205, Note_on_c, 0, 86, 0
2, 119205, Note_on_c, 0, 55, 0
2, 119205, Note_on_c, 0, 72, 0
2, 119205, Note_on_c, 0, 84, 0
2, 119216, Note_on_c, 0, 64, 0
2, 119216, Note_on_c, 0, 67, 0
2, 119224, Note_on_c, 0, 60, 0
2, 119224, Note_on_c, 0, 74, 0
2, 119244, Note_on_c, 0, 83, 96
2, 119251, Note_on_c, 0, 62, 75
2, 119255, Note_on_c, 0, 74, 81
2, 119257, Note_on_c, 0, 78, 82
2, 119266, Note_on_c, 0, 50, 69
2, 119316, Note_on_c, 0, 62, 0
2, 119347, Control_c, 0, 64, 127
2, 119396, Note_on_c, 0, 57, 53
2, 119551, Note_on_c, 0, 62, 59
2, 119563, Note_on_c, 0, 66, 69
2, 119715, Note_on_c, 0, 66, 0
2, 119722, Note_on_c, 0, 66, 55
2, 119723, Note_on_c, 0, 57, 0
2, 119724, Note_on_c, 0, 81, 85
2, 119729, Note_on_c, 0, 57, 52
2, 119805, Note_on_c, 0, 79, 83
2, 119877, Note_on_c, 0, 62, 0
2, 119877, Note_on_c, 0, 81, 0
2, 119884, Note_on_c, 0, 66, 0
2, 119886, Note_on_c, 0, 81, 92
2, 119888, Note_on_c, 0, 62, 59
2, 119889, Note_on_c, 0, 69, 69
2, 119894, Note_on_c, 0, 66, 66
2, 120046, Note_on_c, 0, 57, 0
2, 120051, Note_on_c, 0, 57, 62
2, 120184, Note_on_c, 0, 66, 0
2, 120191, Note_on_c, 0, 66, 74
2, 120222, Note_on_c, 0, 62, 0
2, 120226, Note_on_c, 0, 62, 60
2, 120276, Note_on_c, 0, 69, 0
2, 120287, Note_on_c, 0, 69, 34
2, 120353, Note_on_c, 0, 57, 0
2, 120353, Note_on_c, 0, 79, 0
2, 120359, Note_on_c, 0, 57, 65
2, 120363, Note_on_c, 0, 79, 87
2, 120457, Note_on_c, 0, 83, 0
2, 120458, Note_on_c, 0, 69, 0
2, 120458, Note_on_c, 0, 79, 0
2, 120458, Note_on_c, 0, 74, 0
2, 120459, Note_on_c, 0, 62, 0
2, 120459, Note_on_c, 0, 78, 0
2, 120459, Note_on_c, 0, 81, 0
2, 120459, Note_on_c, 0, 57, 0
2, 120459, Note_on_c, 0, 66, 0
2, 120463, Control_c, 0, 64, 0
2, 120468, Note_on_c, 0, 50, 0
2, 120516, Note_on_c, 0, 64, 58
2, 120520, Note_on_c, 0, 81, 87
2, 120533, Note_on_c, 0, 52, 60
2, 120534, Note_on_c, 0, 71, 64
2, 120537, Note_on_c, 0, 76, 68
2, 120583, Control_c, 0, 64, 127
2, 120664, Note_on_c, 0, 59, 68
2, 120814, Note_on_c, 0, 81, 0
2, 120821, Note_on_c, 0, 81, 85
2, 120829, Note_on_c, 0, 64, 0
2, 120833, Note_on_c, 0, 64, 61
2, 120839, Note_on_c, 0, 67, 67
2, 120971, Note_on_c, 0, 83, 87
2, 120983, Note_on_c, 0, 59, 0
2, 120987, Note_on_c, 0, 59, 72
2, 121057, Note_on_c, 0, 79, 88
2, 121144, Note_on_c, 0, 64, 0
2, 121144, Note_on_c, 0, 67, 0
2, 121144, Note_on_c, 0, 71, 0
2, 121151, Note_on_c, 0, 64, 60
2, 121151, Note_on_c, 0, 67, 60
2, 121153, Note_on_c, 0, 71, 63
2, 121297, Note_on_c, 0, 59, 0
2, 121302, Note_on_c, 0, 59, 69
2, 121307, Note_on_c, 0, 78, 83
2, 121328, Note_on_c, 0, 71, 0
2, 121332, Note_on_c, 0, 71, 46
2, 121459, Note_on_c, 0, 79, 0
2, 121466, Note_on_c, 0, 67, 0
2, 121466, Note_on_c, 0, 64, 0
2, 121469, Note_on_c, 0, 79, 86
2, 121477, Note_on_c, 0, 64, 62
2, 121605, Note_on_c, 0, 59, 0
2, 121606, Note_on_c, 0, 64, 0
2, 121612, Note_on_c, 0, 81, 0
2, 121614, Note_on_c, 0, 59, 63
2, 121619, Note_on_c, 0, 81, 86
2, 121713, Note_on_c, 0, 74, 85
2, 121719, Note_on_c, 0, 52, 0
2, 121723, Note_on_c, 0, 81, 0
2, 121723, Note_on_c, 0, 83, 0
2, 121723, Note_on_c, 0, 59, 0
2, 121723, Note_on_c, 0, 78, 0
2, 121723, Note_on_c, 0, 79, 0
2, 121724, Control_c, 0, 64, 0
2, 121728, Note_on_c, 0, 71, 0
2, 121735, Note_on_c, 0, 76, 0
2, 121799, Note_on_c, 0, 66, 69
2, 121800, Note_on_c, 0, 54, 69
2, 121812, Control_c, 0, 64, 127
2, 121960, Note_on_c, 0, 62, 71
2, 121962, Note_on_c, 0, 90, 75
2, 122040, Note_on_c, 0, 91, 85
2, 122096, Note_on_c, 0, 66, 0
2, 122101, Note_on_c, 0, 66, 73
2, 122112, Note_on_c, 0, 90, 0
2, 122115, Note_on_c, 0, 69, 63
2, 122116, Note_on_c, 0, 90, 80
2, 122198, Note_on_c, 0, 86, 70
2, 122234, Note_on_c, 0, 62, 0
2, 122234, Note_on_c, 0, 69, 0
2, 122239, Note_on_c, 0, 62, 69
2, 122240, Note_on_c, 0, 81, 86
2, 122244, Note_on_c, 0, 69, 55
2, 122328, Note_on_c, 0, 78, 79
2, 122388, Note_on_c, 0, 74, 0
2, 122393, Note_on_c, 0, 74, 95
2, 122393, Control_c, 0, 64, 0
2, 122395, Note_on_c, 0, 54, 0
2, 122395, Note_on_c, 0, 90, 0
2, 122395, Note_on_c, 0, 91, 0
2, 122396, Note_on_c, 0, 69, 0
2, 122396, Note_on_c, 0, 86, 0
2, 122397, Note_on_c, 0, 81, 0
2, 122398, Note_on_c, 0, 78, 0
2, 122403, Note_on_c, 0, 62, 0
2, 122403, Note_on_c, 0, 66, 0
2, 122411, Note_on_c, 0, 72, 84
2, 122412, Note_on_c, 0, 62, 85
2, 122415, Note_on_c, 0, 55, 84
2, 122457, Control_c, 0, 64, 127
2, 122534, Note_on_c, 0, 55, 0
2, 122538, Note_on_c, 0, 71, 66
2, 122542, Note_on_c, 0, 55, 69
2, 122545, Note_on_c, 0, 67, 67
2, 122611, Note_on_c, 0, 62, 0
2, 122622, Note_on_c, 0, 62, 83
2, 122641, Note_on_c, 0, 72, 0
2, 122649, Note_on_c, 0, 72, 90
2, 122679, Note_on_c, 0, 60, 74
2, 122734, Note_on_c, 0, 59, 73
2, 122833, Note_on_c, 0, 55, 0
2, 122839, Note_on_c, 0, 55, 63
2, 122872, Note_on_c, 0, 74, 0
2, 122876, Note_on_c, 0, 74, 87
2, 122906, Note_on_c, 0, 50, 73
2, 123003, Control_c, 0, 64, 0
2, 123005, Note_on_c, 0, 71, 0
2, 123005, Note_on_c, 0, 67, 0
2, 123005, Note_on_c, 0, 72, 0
2, 123006, Note_on_c, 0, 60, 0
2, 123006, Note_on_c, 0, 74, 0
2, 123006, Note_on_c, 0, 59, 0
2, 123006, Note_on_c, 0, 50, 0
2, 123018, Note_on_c, 0, 62, 0
2, 123025, Note_on_c, 0, 55, 0
2, 123051, Note_on_c, 0, 76, 96
2, 123058, Note_on_c, 0, 72, 81
2, 123059, Note_on_c, 0, 45, 71
2, 123059, Note_on_c, 0, 69, 72
2, 123061, Note_on_c, 0, 57, 78
2, 123102, Control_c, 0, 64, 127
2, 123125, Note_on_c, 0, 57, 0
2, 123298, Note_on_c, 0, 60, 80
2, 123306, Note_on_c, 0, 52, 75
2, 123310, Note_on_c, 0, 57, 69
2, 123532, Note_on_c, 0, 64, 79
2, 123532, Note_on_c, 0, 57, 0
2, 123532, Note_on_c, 0, 60, 0
2, 123537, Note_on_c, 0, 60, 81
2, 123541, Note_on_c, 0, 57, 75
2, 123694, Note_on_c, 0, 76, 0
2, 123704, Note_on_c, 0, 76, 99
2, 123944, Note_on_c, 0, 78, 97
2, 124031, Note_on_c, 0, 52, 0
2, 124034, Note_on_c, 0, 64, 0
2, 124034, Note_on_c, 0, 76, 0
2, 124037, Control_c, 0, 64, 0
2, 124047, Note_on_c, 0, 45, 0
2, 124047, Note_on_c, 0, 57, 0
2, 124047, Note_on_c, 0, 60, 0
2, 124047, Note_on_c, 0, 69, 0
2, 124052, Note_on_c, 0, 45, 79
2, 124055, Note_on_c, 0, 60, 62
2, 124056, Note_on_c, 0, 57, 74
2, 124058, Note_on_c, 0, 69, 75
2, 124101, Control_c, 0, 64, 127
2, 124195, Note_on_c, 0, 79, 94
2, 124285, Note_on_c, 0, 60, 0
2, 124300, Note_on_c, 0, 57, 0
2, 124300, Note_on_c, 0, 69, 0
2, 124300, Note_on_c, 0, 45, 0
2, 124300, Note_on_c, 0, 72, 0
2, 124302, Note_on_c, 0, 78, 0
2, 124302, Note_on_c, 0, 79, 0
2, 124303, Control_c, 0, 64, 0
2, 124346, Note_on_c, 0, 47, 82
2, 124351, Note_on_c, 0, 79, 92
2, 124358, Note_on_c, 0, 59, 81
2, 124359, Note_on_c, 0, 71, 81
2, 124365, Note_on_c, 0, 74, 80
2, 124385, Control_c, 0, 64, 127
2, 124423, Note_on_c, 0, 59, 0
2, 124454, Note_on_c, 0, 47, 0
2, 124591, Note_on_c, 0, 62, 86
2, 124596, Note_on_c, 0, 59, 77
2, 124597, Note_on_c, 0, 54, 75
2, 124836, Note_on_c, 0, 66, 92
2, 124838, Note_on_c, 0, 59, 0
2, 124838, Note_on_c, 0, 62, 0
2, 124838, Note_on_c, 0, 71, 0
2, 124842, Note_on_c, 0, 62, 78
2, 124844, Note_on_c, 0, 71, 72
2, 124844, Note_on_c, 0, 59, 73
2, 124846, Note_on_c, 0, 78, 89
2, 124936, Note_on_c, 0, 76, 88
2, 124999, Note_on_c, 0, 78, 0
2, 125011, Note_on_c, 0, 78, 98
2, 125289, Control_c, 0, 64, 0
2, 125293, Note_on_c, 0, 71, 0
2, 125293, Note_on_c, 0, 62, 0
2, 125294, Note_on_c, 0, 66, 0
2, 125294, Note_on_c, 0, 54, 0
2, 125294, Note_on_c, 0, 79, 0
2, 125294, Note_on_c, 0, 76, 0
2, 125299, Note_on_c, 0, 59, 0
2, 125304, Note_on_c, 0, 59, 84
2, 125304, Note_on_c, 0, 47, 84
2, 125306, Note_on_c, 0, 74, 0
2, 125383, Control_c, 0, 64, 127
2, 125460, Note_on_c, 0, 79, 94
2, 125575, Note_on_c, 0, 59, 0
2, 125575, Note_on_c, 0, 78, 0
2, 125577, Note_on_c, 0, 47, 0
2, 125583, Control_c, 0, 64, 0
2, 125618, Note_on_c, 0, 81, 102
2, 125622, Note_on_c, 0, 42, 84
2, 125624, Note_on_c, 0, 76, 88
2, 125625, Note_on_c, 0, 72, 87
2, 125652, Control_c, 0, 64, 127
2, 125852, Note_on_c, 0, 81, 0
2, 125856, Note_on_c, 0, 81, 97
2, 125862, Note_on_c, 0, 60, 75
2, 125862, Note_on_c, 0, 64, 77
2, 125867, Note_on_c, 0, 54, 68
2, 126097, Note_on_c, 0, 54, 0
2, 126097, Note_on_c, 0, 60, 0
2, 126097, Note_on_c, 0, 64, 0
2, 126097, Note_on_c, 0, 76, 0
2, 126104, Note_on_c, 0, 76, 101
2, 126106, Note_on_c, 0, 60, 80
2, 126108, Note_on_c, 0, 64, 82
2, 126109, Note_on_c, 0, 54, 73
2, 126174, Note_on_c, 0, 79, 0
2, 126405, Note_on_c, 0, 76, 0
2, 126410, Note_on_c, 0, 76, 86
2, 126551, Note_on_c, 0, 76, 0
2, 126558, Note_on_c, 0, 42, 0
2, 126558, Note_on_c, 0, 72, 0
2, 126561, Note_on_c, 0, 76, 91
2, 126562, Note_on_c, 0, 42, 78
2, 126564, Note_on_c, 0, 72, 80
2, 126566, Note_on_c, 0, 60, 0
2, 126566, Control_c, 0, 64, 0
2, 126574, Note_on_c, 0, 64, 0
2, 126574, Note_on_c, 0, 81, 0
2, 126597, Note_on_c, 0, 54, 0
2, 126650, Control_c, 0, 64, 127
2, 126704, Note_on_c, 0, 76, 0
2, 126713, Note_on_c, 0, 76, 93
2, 126848, Control_c, 0, 64, 0
2, 126854, Note_on_c, 0, 42, 0
2, 126854, Note_on_c, 0, 76, 0
2, 126854, Note_on_c, 0, 72, 0
2, 126871, Note_on_c, 0, 47, 91
2, 126871, Note_on_c, 0, 75, 98
2, 126872, Note_on_c, 0, 66, 93
2, 126876, Note_on_c, 0, 35, 82
2, 126877, Note_on_c, 0, 63, 83
2, 126912, Note_on_c, 0, 47, 0
2, 126919, Control_c, 0, 64, 127
2, 127093, Note_on_c, 0, 59, 85
2, 127104, Note_on_c, 0, 66, 0
2, 127107, Note_on_c, 0, 51, 70
2, 127108, Note_on_c, 0, 47, 79
2, 127109, Note_on_c, 0, 76, 99
2, 127114, Note_on_c, 0, 64, 84
2, 127114, Note_on_c, 0, 54, 66
2, 127115, Note_on_c, 0, 66, 79
2, 127150, Note_on_c, 0, 63, 0
2, 127349, Note_on_c, 0, 47, 0
2, 127349, Note_on_c, 0, 66, 0
2, 127360, Note_on_c, 0, 47, 80
2, 127360, Note_on_c, 0, 78, 98
2, 127361, Note_on_c, 0, 59, 0
2, 127361, Note_on_c, 0, 66, 87
2, 127450, Note_on_c, 0, 47, 0
2, 127451, Control_c, 0, 64, 0
2, 127452, Note_on_c, 0, 54, 0
2, 127452, Note_on_c, 0, 78, 0
2, 127452, Note_on_c, 0, 66, 0
2, 127452, Note_on_c, 0, 64, 0
2, 127452, Note_on_c, 0, 76, 0
2, 127452, Note_on_c, 0, 75, 0
2, 127472, Note_on_c, 0, 35, 0
2, 127480, Note_on_c, 0, 51, 0
2, 127513, Note_on_c, 0, 86, 101
2, 127521, Note_on_c, 0, 78, 92
2, 127522, Note_on_c, 0, 74, 96
2, 127523, Note_on_c, 0, 36, 87
2, 127524, Note_on_c, 0, 48, 86
2, 127549, Control_c, 0, 64, 127
2, 127559, Note_on_c, 0, 48, 0
2, 127610, Note_on_c, 0, 36, 0
2, 127730, Note_on_c, 0, 60, 88
2, 127743, Note_on_c, 0, 55, 74
2, 127744, Note_on_c, 0, 52, 80
2, 127745, Note_on_c, 0, 84, 105
2, 127746, Note_on_c, 0, 48, 80
2, 127750, Note_on_c, 0, 72, 97
2, 127969, Note_on_c, 0, 81, 93
2, 127975, Note_on_c, 0, 36, 79
2, 127976, Note_on_c, 0, 69, 74
2, 128097, Note_on_c, 0, 86, 0
2, 128097, Note_on_c, 0, 52, 0
2, 128097, Note_on_c, 0, 84, 0
2, 128097, Note_on_c, 0, 72, 0
2, 128097, Note_on_c, 0, 36, 0
2, 128097, Note_on_c, 0, 60, 0
2, 128098, Note_on_c, 0, 48, 0
2, 128098, Control_c, 0, 64, 0
2, 128098, Note_on_c, 0, 81, 0
2, 128125, Note_on_c, 0, 55, 0
2, 128125, Note_on_c, 0, 69, 0
2, 128133, Note_on_c, 0, 74, 0
2, 128133, Note_on_c, 0, 78, 0
2, 128136, Note_on_c, 0, 83, 106
2, 128138, Note_on_c, 0, 74, 92
2, 128138, Note_on_c, 0, 71, 93
2, 128140, Note_on_c, 0, 78, 99
2, 128142, Note_on_c, 0, 38, 91
2, 128144, Note_on_c, 0, 50, 88
2, 128202, Control_c, 0, 64, 127
2, 128457, Note_on_c, 0, 91, 105
2, 128521, Note_on_c, 0, 93, 95
2, 128532, Note_on_c, 0, 71, 0
2, 128586, Note_on_c, 0, 91, 0
2, 128591, Note_on_c, 0, 91, 93
2, 128674, Note_on_c, 0, 90, 90
2, 128737, Note_on_c, 0, 86, 81
2, 128791, Note_on_c, 0, 81, 79
2, 128866, Note_on_c, 0, 79, 85
2, 128931, Note_on_c, 0, 78, 0
2, 128941, Note_on_c, 0, 78, 90
2, 128993, Note_on_c, 0, 74, 0
2, 129003, Note_on_c, 0, 74, 81
2, 129081, Note_on_c, 0, 69, 69
2, 129140, Note_on_c, 0, 62, 93
2, 129234, Note_on_c, 0, 91, 0
2, 129235, Note_on_c, 0, 93, 0
2, 129235, Note_on_c, 0, 79, 0
2, 129235, Note_on_c, 0, 69, 0
2, 129235, Note_on_c, 0, 81, 0
2, 129235, Note_on_c, 0, 86, 0
2, 129235, Note_on_c, 0, 90, 0
2, 129236, Control_c, 0, 64, 0
2, 129236, Note_on_c, 0, 83, 0
2, 129236, Note_on_c, 0, 74, 0
2, 129236, Note_on_c, 0, 62, 0
2, 129236, Note_on_c, 0, 78, 0
2, 129239, Note_on_c, 0, 50, 0
2, 129246, Note_on_c, 0, 38, 0
2, 129326, Note_on_c, 0, 83, 106
2, 129327, Note_on_c, 0, 71, 99
2, 129327, Note_on_c, 0, 79, 94
2, 129332, Note_on_c, 0, 76, 99
2, 129334, Note_on_c, 0, 28, 94
2, 129334, Note_on_c, 0, 40, 98
2, 129369, Control_c, 0, 64, 127
2, 129559, Note_on_c, 0, 47, 80
2, 129564, Note_on_c, 0, 55, 87
2, 129564, Note_on_c, 0, 59, 82
2, 129565, Note_on_c, 0, 52, 83
2, 129807, Note_on_c, 0, 52, 0
2, 129807, Note_on_c, 0, 59, 0
2, 129807, Note_on_c, 0, 71, 0
2, 129811, Note_on_c, 0, 67, 80
2, 129812, Note_on_c, 0, 71, 79
2, 129814, Note_on_c, 0, 64, 80
2, 129816, Note_on_c, 0, 52, 73
2, 129818, Note_on_c, 0, 59, 79
2, 129955, Note_on_c, 0, 76, 0
2, 129962, Note_on_c, 0, 81, 103
2, 129965, Note_on_c, 0, 78, 95
2, 129965, Note_on_c, 0, 69, 88
2, 129968, Note_on_c, 0, 74, 91
2, 129981, Note_on_c, 0, 62, 64
2, 129984, Note_on_c, 0, 59, 0
2, 129989, Note_on_c, 0, 59, 68
2, 130045, Note_on_c, 0, 64, 0
2, 130049, Note_on_c, 0, 64, 66
2, 130145, Note_on_c, 0, 55, 0
2, 130152, Note_on_c, 0, 55, 80
2, 130191, Note_on_c, 0, 74, 0
2, 130193, Note_on_c, 0, 86, 105
2, 130195, Note_on_c, 0, 74, 97
2, 130429, Note_on_c, 0, 28, 0
2, 130429, Note_on_c, 0, 40, 0
2, 130434, Note_on_c, 0, 40, 79
2, 130434, Note_on_c, 0, 84, 96
2, 130436, Note_on_c, 0, 72, 82
2, 130436, Note_on_c, 0, 28, 80
2, 130549, Note_on_c, 0, 74, 0
2, 130549, Control_c, 0, 64, 0
2, 130549, Note_on_c, 0, 69, 0
2, 130549, Note_on_c, 0, 81, 0
2, 130549, Note_on_c, 0, 28, 0
2, 130550, Note_on_c, 0, 86, 0
2, 130550, Note_on_c, 0, 40, 0
2, 130550, Note_on_c, 0, 83, 0
2, 130551, Note_on_c, 0, 72, 0
2, 130552, Note_on_c, 0, 64, 0
2, 130552, Note_on_c, 0, 59, 0
2, 130552, Note_on_c, 0, 47, 0
2, 130553, Note_on_c, 0, 78, 0
2, 130554, Note_on_c, 0, 84, 0
2, 130560, Note_on_c, 0, 79, 0
2, 130567, Note_on_c, 0, 62, 0
2, 130567, Note_on_c, 0, 67, 0
2, 130567, Note_on_c, 0, 71, 0
2, 130575, Note_on_c, 0, 52, 0
2, 130575, Note_on_c, 0, 55, 0
2, 130593, Note_on_c, 0, 71, 98
2, 130594, Note_on_c, 0, 83, 101
2, 130594, Note_on_c, 0, 79, 98
2, 130594, Note_on_c, 0, 76, 97
2, 130603, Note_on_c, 0, 81, 90
2, 130636, Control_c, 0, 64, 127
2, 130811, Note_on_c, 0, 52, 83
2, 130821, Note_on_c, 0, 55, 78
2, 130962, Note_on_c, 0, 48, 70
2, 131059, Note_on_c, 0, 55, 0
2, 131067, Note_on_c, 0, 64, 83
2, 131069, Note_on_c, 0, 60, 90
2, 131070, Note_on_c, 0, 55, 81
2, 131205, Note_on_c, 0, 55, 0
2, 131205, Note_on_c, 0, 81, 0
2, 131210, Note_on_c, 0, 81, 103
2, 131212, Note_on_c, 0, 60, 0
2, 131212, Note_on_c, 0, 64, 0
2, 131212, Note_on_c, 0, 76, 0
2, 131213, Note_on_c, 0, 55, 61
2, 131217, Note_on_c, 0, 69, 86
2, 131217, Note_on_c, 0, 76, 97
2, 131221, Note_on_c, 0, 72, 95
2, 131223, Note_on_c, 0, 60, 82
2, 131223, Note_on_c, 0, 64, 69
2, 131304, Note_on_c, 0, 60, 0
2, 131309, Note_on_c, 0, 60, 68
2, 131343, Note_on_c, 0, 55, 0
2, 131352, Note_on_c, 0, 55, 66
2, 131435, Note_on_c, 0, 52, 0
2, 131435, Note_on_c, 0, 64, 0
2, 131445, Note_on_c, 0, 52, 70
2, 131445, Note_on_c, 0, 86, 106
2, 131445, Note_on_c, 0, 64, 63
2, 131446, Note_on_c, 0, 74, 100
2, 131665, Note_on_c, 0, 60, 0
2, 131676, Note_on_c, 0, 60, 79
2, 131687, Note_on_c, 0, 24, 74
2, 131688, Note_on_c, 0, 72, 0
2, 131690, Note_on_c, 0, 84, 103
2, 131692, Note_on_c, 0, 36, 72
2, 131693, Note_on_c, 0, 72, 89
2, 131696, Note_on_c, 0, 24, 0
2, 131805, Control_c, 0, 64, 0
2, 131808, Note_on_c, 0, 81, 0
2, 131809, Note_on_c, 0, 76, 0
2, 131809, Note_on_c, 0, 72, 0
2, 131809, Note_on_c, 0, 84, 0
2, 131809, Note_on_c, 0, 86, 0
2, 131810, Note_on_c, 0, 69, 0
2, 131810, Note_on_c, 0, 48, 0
2, 131812, Note_on_c, 0, 36, 0
2, 131827, Note_on_c, 0, 60, 0
2, 131827, Note_on_c, 0, 64, 0
2, 131827, Note_on_c, 0, 79, 0
2, 131827, Note_on_c, 0, 83, 0
2, 131833, Note_on_c, 0, 83, 106
2, 131834, Note_on_c, 0, 52, 0
2, 131834, Note_on_c, 0, 71, 0
2, 131834, Note_on_c, 0, 74, 0
2, 131837, Note_on_c, 0, 79, 97
2, 131838, Note_on_c, 0, 31, 98
2, 131838, Note_on_c, 0, 74, 90
2, 131838, Note_on_c, 0, 71, 99
2, 131840, Note_on_c, 0, 43, 97
2, 131842, Note_on_c, 0, 55, 0
2, 131888, Control_c, 0, 64, 127
2, 131942, Note_on_c, 0, 31, 0
2, 131996, Note_on_c, 0, 43, 0
2, 132005, Note_on_c, 0, 43, 76
2, 132069, Note_on_c, 0, 59, 89
2, 132203, Note_on_c, 0, 59, 0
2, 132209, Note_on_c, 0, 55, 73
2, 132210, Note_on_c, 0, 59, 72
2, 132303, Note_on_c, 0, 55, 0
2, 132303, Note_on_c, 0, 71, 0
2, 132307, Note_on_c, 0, 62, 87
2, 132308, Note_on_c, 0, 71, 90
2, 132313, Note_on_c, 0, 55, 81
2, 132313, Note_on_c, 0, 67, 88
2, 132380, Note_on_c, 0, 59, 0
2, 132390, Note_on_c, 0, 59, 31
2, 132472, Note_on_c, 0, 71, 0
2, 132472, Note_on_c, 0, 74, 0
2, 132472, Note_on_c, 0, 79, 0
2, 132477, Note_on_c, 0, 79, 104
2, 132481, Note_on_c, 0, 71, 86
2, 132481, Note_on_c, 0, 74, 88
2, 132533, Note_on_c, 0, 67, 0
2, 132544, Note_on_c, 0, 67, 51
2, 132656, Note_on_c, 0, 59, 0
2, 132664, Note_on_c, 0, 59, 64
2, 132714, Note_on_c, 0, 81, 105
2, 132718, Note_on_c, 0, 69, 91
2, 132748, Note_on_c, 0, 55, 0
2, 132759, Note_on_c, 0, 55, 61
2, 132849, Note_on_c, 0, 50, 42
2, 132910, Note_on_c, 0, 43, 0
2, 132919, Note_on_c, 0, 43, 67
2, 132921, Note_on_c, 0, 47, 71
2, 132940, Note_on_c, 0, 47, 0
2, 132940, Note_on_c, 0, 83, 0
2, 132948, Note_on_c, 0, 71, 0
2, 132951, Note_on_c, 0, 47, 64
2, 132951, Note_on_c, 0, 83, 99
2, 132955, Note_on_c, 0, 71, 88
2, 133073, Note_on_c, 0, 74, 0
2, 133073, Note_on_c, 0, 62, 0
2, 133073, Note_on_c, 0, 50, 0
2, 133073, Note_on_c, 0, 67, 0
2, 133073, Note_on_c, 0, 79, 0
2, 133074, Note_on_c, 0, 69, 0
2, 133074, Note_on_c, 0, 55, 0
2, 133074, Note_on_c, 0, 81, 0
2, 133075, Control_c, 0, 64, 0
2, 133076, Note_on_c, 0, 43, 0
2, 133086, Note_on_c, 0, 59, 0
2, 133094, Note_on_c, 0, 47, 0
2, 133094, Note_on_c, 0, 83, 0
2, 133102, Note_on_c, 0, 71, 0
2, 133105, Note_on_c, 0, 83, 105
2, 133109, Note_on_c, 0, 33, 89
2, 133109, Note_on_c, 0, 45, 93
2, 133110, Note_on_c, 0, 76, 103
2, 133110, Note_on_c, 0, 71, 97
2, 133148, Control_c, 0, 64, 127
2, 133252, Note_on_c, 0, 52, 70
2, 133346, Note_on_c, 0, 81, 102
2, 133346, Note_on_c, 0, 57, 79
2, 133347, Note_on_c, 0, 52, 0
2, 133352, Note_on_c, 0, 69, 93
2, 133354, Note_on_c, 0, 52, 73
2, 133356, Note_on_c, 0, 73, 86
2, 133470, Note_on_c, 0, 57, 0
2, 133475, Note_on_c, 0, 57, 73
2, 133555, Note_on_c, 0, 52, 0
2, 133561, Note_on_c, 0, 52, 57
2, 133585, Note_on_c, 0, 76, 0
2, 133593, Note_on_c, 0, 73, 0
2, 133596, Note_on_c, 0, 76, 103
2, 133599, Note_on_c, 0, 73, 98
2, 133603, Note_on_c, 0, 64, 79
2, 133642, Note_on_c, 0, 61, 80
2, 133708, Note_on_c, 0, 33, 0
2, 133747, Note_on_c, 0, 57, 0
2, 133756, Note_on_c, 0, 57, 71
2, 133816, Note_on_c, 0, 52, 0
2, 133822, Note_on_c, 0, 52, 58
2, 133824, Note_on_c, 0, 64, 0
2, 133828, Note_on_c, 0, 64, 51
2, 133900, Note_on_c, 0, 57, 0
2, 133900, Note_on_c, 0, 61, 0
2, 133900, Note_on_c, 0, 76, 0
2, 133908, Note_on_c, 0, 45, 0
2, 133911, Note_on_c, 0, 61, 60
2, 133911, Note_on_c, 0, 76, 73
2, 133911, Note_on_c, 0, 57, 61
2, 133912, Note_on_c, 0, 45, 62
2, 134037, Note_on_c, 0, 33, 71
2, 134169, Note_on_c, 0, 69, 0
2, 134176, Note_on_c, 0, 69, 61
2, 134181, Control_c, 0, 64, 0
2, 134190, Note_on_c, 0, 81, 0
2, 134197, Note_on_c, 0, 52, 0
2, 134212, Note_on_c, 0, 78, 80
2, 134215, Note_on_c, 0, 71, 0
2, 134231, Note_on_c, 0, 61, 0
2, 134238, Note_on_c, 0, 83, 0
2, 134254, Note_on_c, 0, 69, 0
2, 134261, Note_on_c, 0, 33, 0
2, 134265, Note_on_c, 0, 79, 80
2, 134284, Note_on_c, 0, 73, 0
2, 134292, Note_on_c, 0, 64, 0
2, 134307, Note_on_c, 0, 76, 0
2, 134323, Note_on_c, 0, 57, 0
2, 134324, Note_on_c, 0, 45, 0
2, 134354, Note_on_c, 0, 48, 67
2, 134356, Note_on_c, 0, 81, 95
2, 134362, Note_on_c, 0, 76, 80
2, 134368, Note_on_c, 0, 72, 76
2, 134392, Note_on_c, 0, 78, 0
2, 134407, Control_c, 0, 64, 127
2, 134428, Note_on_c, 0, 55, 68
2, 134479, Note_on_c, 0, 60, 81
2, 134586, Note_on_c, 0, 62, 74
2, 134654, Note_on_c, 0, 64, 68
2, 134707, Note_on_c, 0, 48, 0
2, 134711, Note_on_c, 0, 48, 59
2, 134712, Note_on_c, 0, 67, 69
2, 134791, Note_on_c, 0, 62, 0
2, 134791, Note_on_c, 0, 79, 0
2, 134798, Note_on_c, 0, 62, 71
2, 134798, Note_on_c, 0, 79, 90
2, 134853, Note_on_c, 0, 64, 0
2, 134860, Note_on_c, 0, 64, 70
2, 134900, Note_on_c, 0, 78, 90
2, 134929, Note_on_c, 0, 67, 0
2, 134936, Note_on_c, 0, 67, 64
2, 134976, Note_on_c, 0, 72, 0
2, 134979, Note_on_c, 0, 74, 96
2, 134986, Note_on_c, 0, 72, 79
2, 135045, Note_on_c, 0, 67, 0
2, 135049, Note_on_c, 0, 67, 65
2, 135114, Note_on_c, 0, 64, 0
2, 135118, Note_on_c, 0, 64, 66
2, 135168, Note_on_c, 0, 60, 0
2, 135168, Note_on_c, 0, 62, 0
2, 135175, Note_on_c, 0, 62, 75
2, 135176, Note_on_c, 0, 60, 53
2, 135237, Note_on_c, 0, 64, 0
2, 135246, Note_on_c, 0, 64, 73
2, 135313, Note_on_c, 0, 60, 0
2, 135324, Note_on_c, 0, 60, 81
2, 135398, Note_on_c, 0, 55, 0
2, 135406, Note_on_c, 0, 79, 0
2, 135409, Note_on_c, 0, 55, 68
2, 135411, Note_on_c, 0, 79, 75
2, 135482, Note_on_c, 0, 81, 0
2, 135488, Note_on_c, 0, 81, 89
2, 135545, Control_c, 0, 64, 0
2, 135547, Note_on_c, 0, 62, 0
2, 135547, Note_on_c, 0, 67, 0
2, 135547, Note_on_c, 0, 64, 0
2, 135547, Note_on_c, 0, 76, 0
2, 135548, Note_on_c, 0, 60, 0
2, 135548, Note_on_c, 0, 72, 0
2, 135548, Note_on_c, 0, 81, 0
2, 135548, Note_on_c, 0, 78, 0
2, 135550, Note_on_c, 0, 48, 0
2, 135567, Note_on_c, 0, 55, 0
2, 135574, Note_on_c, 0, 84, 103
2, 135575, Note_on_c, 0, 74, 0
2, 135575, Note_on_c, 0, 79, 0
2, 135579, Note_on_c, 0, 43, 80
2, 135579, Note_on_c, 0, 74, 87
2, 135584, Note_on_c, 0, 79, 84
2, 135636, Control_c, 0, 64, 127
2, 135661, Note_on_c, 0, 50, 59
2, 135702, Note_on_c, 0, 55, 78
2, 135806, Note_on_c, 0, 57, 63
2, 135864, Note_on_c, 0, 59, 70
2, 135974, Note_on_c, 0, 57, 0
2, 135978, Note_on_c, 0, 57, 61
2, 136035, Note_on_c, 0, 59, 0
2, 136040, Note_on_c, 0, 83, 89
2, 136040, Note_on_c, 0, 59, 69
2, 136105, Note_on_c, 0, 81, 84
2, 136109, Note_on_c, 0, 62, 74
2, 136181, Note_on_c, 0, 55, 0
2, 136181, Note_on_c, 0, 83, 0
2, 136188, Note_on_c, 0, 55, 69
2, 136189, Note_on_c, 0, 74, 0
2, 136189, Note_on_c, 0, 79, 0
2, 136192, Note_on_c, 0, 67, 80
2, 136192, Note_on_c, 0, 83, 97
2, 136198, Note_on_c, 0, 79, 87
2, 136200, Note_on_c, 0, 74, 87
2, 136250, Note_on_c, 0, 62, 0
2, 136261, Note_on_c, 0, 62, 70
2, 136327, Note_on_c, 0, 59, 0
2, 136332, Note_on_c, 0, 59, 71
2, 136396, Note_on_c, 0, 57, 0
2, 136407, Note_on_c, 0, 57, 61
2, 136458, Note_on_c, 0, 59, 0
2, 136469, Note_on_c, 0, 59, 69
2, 136558, Note_on_c, 0, 55, 0
2, 136562, Note_on_c, 0, 55, 71
2, 136634, Note_on_c, 0, 50, 0
2, 136640, Note_on_c, 0, 50, 58
2, 136657, Note_on_c, 0, 83, 0
2, 136662, Note_on_c, 0, 83, 97
2, 136768, Note_on_c, 0, 55, 0
2, 136768, Note_on_c, 0, 67, 0
2, 136768, Note_on_c, 0, 50, 0
2, 136768, Note_on_c, 0, 62, 0
2, 136768, Note_on_c, 0, 84, 0
2, 136769, Note_on_c, 0, 81, 0
2, 136770, Control_c, 0, 64, 0
2, 136770, Note_on_c, 0, 43, 0
2, 136780, Note_on_c, 0, 59, 0
2, 136780, Note_on_c, 0, 74, 0
2, 136788, Note_on_c, 0, 57, 0
2, 136788, Note_on_c, 0, 79, 0
2, 136796, Note_on_c, 0, 83, 0
2, 136801, Note_on_c, 0, 83, 99
2, 136808, Note_on_c, 0, 72, 80
2, 136812, Note_on_c, 0, 76, 90
2, 136813, Note_on_c, 0, 45, 72
2, 136834, Control_c, 0, 64, 127
2, 136855, Note_on_c, 0, 52, 52
2, 136929, Note_on_c, 0, 57, 73
2, 137006, Note_on_c, 0, 60, 79
2, 137041, Note_on_c, 0, 81, 100
2, 137134, Note_on_c, 0, 69, 79
2, 137177, Note_on_c, 0, 64, 65
2, 137241, Note_on_c, 0, 57, 0
2, 137247, Note_on_c, 0, 57, 65
2, 137251, Note_on_c, 0, 60, 0
2, 137295, Note_on_c, 0, 52, 0
2, 137300, Note_on_c, 0, 52, 71
2, 137303, Note_on_c, 0, 69, 0
2, 137303, Note_on_c, 0, 76, 0
2, 137307, Note_on_c, 0, 76, 98
2, 137307, Note_on_c, 0, 69, 64
2, 137427, Control_c, 0, 64, 0
2, 137430, Note_on_c, 0, 81, 0
2, 137431, Note_on_c, 0, 69, 0
2, 137433, Note_on_c, 0, 72, 0
2, 137433, Note_on_c, 0, 45, 0
2, 137435, Note_on_c, 0, 64, 0
2, 137436, Note_on_c, 0, 52, 0
2, 137441, Note_on_c, 0, 83, 0
2, 137445, Note_on_c, 0, 46, 76
2, 137448, Note_on_c, 0, 57, 0
2, 137495, Control_c, 0, 64, 127
2, 137522, Note_on_c, 0, 54, 68
2, 137576, Note_on_c, 0, 58, 79
2, 137602, Note_on_c, 0, 76, 0
2, 137613, Note_on_c, 0, 76, 92
2, 137643, Note_on_c, 0, 61, 83
2, 137687, Note_on_c, 0, 46, 0
2, 137697, Note_on_c, 0, 46, 59
2, 137752, Note_on_c, 0, 78, 97
2, 137758, Note_on_c, 0, 70, 83
2, 137805, Note_on_c, 0, 66, 82
2, 137871, Note_on_c, 0, 58, 0
2, 137875, Note_on_c, 0, 58, 71
2, 137899, Note_on_c, 0, 61, 0
2, 137906, Note_on_c, 0, 79, 96
2, 137925, Note_on_c, 0, 54, 0
2, 137930, Note_on_c, 0, 54, 56
2, 138055, Note_on_c, 0, 79, 0
2, 138055, Control_c, 0, 64, 0
2, 138061, Note_on_c, 0, 47, 83
2, 138066, Note_on_c, 0, 70, 0
2, 138066, Note_on_c, 0, 79, 95
2, 138066, Note_on_c, 0, 78, 0
2, 138066, Note_on_c, 0, 54, 0
2, 138066, Note_on_c, 0, 66, 0
2, 138066, Note_on_c, 0, 46, 0
2, 138074, Note_on_c, 0, 75, 86
2, 138074, Note_on_c, 0, 71, 84
2, 138078, Note_on_c, 0, 58, 0
2, 138078, Note_on_c, 0, 76, 0
2, 138140, Control_c, 0, 64, 127
2, 138142, Note_on_c, 0, 54, 73
2, 138197, Note_on_c, 0, 59, 82
2, 138299, Note_on_c, 0, 61, 76
2, 138316, Note_on_c, 0, 47, 0
2, 138359, Note_on_c, 0, 63, 81
2, 138439, Note_on_c, 0, 59, 0
2, 138450, Note_on_c, 0, 59, 78
2, 138516, Note_on_c, 0, 63, 0
2, 138521, Note_on_c, 0, 78, 97
2, 138521, Note_on_c, 0, 63, 79
2, 138524, Note_on_c, 0, 71, 0
2, 138528, Note_on_c, 0, 71, 66
2, 138602, Note_on_c, 0, 66, 77
2, 138670, Note_on_c, 0, 71, 0
2, 138676, Note_on_c, 0, 71, 80
2, 138677, Note_on_c, 0, 78, 0
2, 138679, Note_on_c, 0, 84, 105
2, 138684, Note_on_c, 0, 78, 102
2, 138685, Note_on_c, 0, 75, 0
2, 138689, Note_on_c, 0, 75, 95
2, 138746, Note_on_c, 0, 63, 0
2, 138752, Note_on_c, 0, 63, 83
2, 138846, Note_on_c, 0, 59, 0
2, 138852, Note_on_c, 0, 59, 68
2, 138969, Note_on_c, 0, 78, 0
2, 138977, Note_on_c, 0, 54, 0
2, 138977, Note_on_c, 0, 75, 0
2, 138979, Note_on_c, 0, 83, 105
2, 138980, Note_on_c, 0, 78, 99
2, 138981, Note_on_c, 0, 75, 95
2, 138981, Note_on_c, 0, 54, 64
2, 139109, Note_on_c, 0, 47, 72
2, 139264, Control_c, 0, 64, 0
2, 139265, Note_on_c, 0, 47, 0
2, 139265, Note_on_c, 0, 75, 0
2, 139265, Note_on_c, 0, 66, 0
2, 139265, Note_on_c, 0, 61, 0
2, 139266, Note_on_c, 0, 78, 0
2, 139266, Note_on_c, 0, 54, 0
2, 139268, Note_on_c, 0, 84, 0
2, 139284, Note_on_c, 0, 59, 0
2, 139284, Note_on_c, 0, 63, 0
2, 139284, Note_on_c, 0, 71, 0
2, 139284, Note_on_c, 0, 79, 0
2, 139284, Note_on_c, 0, 83, 0
2, 139288, Note_on_c, 0, 83, 106
2, 139291, Note_on_c, 0, 71, 98
2, 139291, Note_on_c, 0, 79, 91
2, 139294, Note_on_c, 0, 76, 100
2, 139297, Note_on_c, 0, 40, 98
2, 139298, Note_on_c, 0, 28, 94
2, 139338, Control_c, 0, 64, 127
2, 139453, Note_on_c, 0, 40, 0
2, 139463, Note_on_c, 0, 40, 70
2, 139527, Note_on_c, 0, 55, 89
2, 139531, Note_on_c, 0, 59, 84
2, 139533, Note_on_c, 0, 52, 77
2, 139607, Note_on_c, 0, 55, 0
2, 139611, Note_on_c, 0, 55, 80
2, 139659, Note_on_c, 0, 47, 65
2, 139706, Note_on_c, 0, 52, 0
2, 139712, Note_on_c, 0, 52, 70
2, 139768, Note_on_c, 0, 55, 0
2, 139768, Note_on_c, 0, 71, 0
2, 139772, Note_on_c, 0, 71, 87
2, 139778, Note_on_c, 0, 55, 74
2, 139783, Note_on_c, 0, 59, 0
2, 139789, Note_on_c, 0, 64, 80
2, 139790, Note_on_c, 0, 59, 79
2, 139931, Note_on_c, 0, 81, 104
2, 139933, Note_on_c, 0, 78, 98
2, 139934, Note_on_c, 0, 69, 91
2, 139936, Note_on_c, 0, 74, 96
2, 139937, Note_on_c, 0, 55, 0
2, 139942, Note_on_c, 0, 55, 81
2, 139998, Note_on_c, 0, 64, 0
2, 140004, Note_on_c, 0, 64, 50
2, 140052, Note_on_c, 0, 59, 0
2, 140058, Note_on_c, 0, 59, 65
2, 140106, Note_on_c, 0, 55, 0
2, 140110, Note_on_c, 0, 55, 77
2, 140160, Note_on_c, 0, 74, 0
2, 140165, Note_on_c, 0, 86, 104
2, 140169, Note_on_c, 0, 74, 99
2, 140213, Note_on_c, 0, 52, 0
2, 140224, Note_on_c, 0, 52, 66
2, 140352, Note_on_c, 0, 28, 0
2, 140362, Note_on_c, 0, 28, 72
2, 140397, Note_on_c, 0, 84, 102
2, 140403, Note_on_c, 0, 72, 95
2, 140506, Control_c, 0, 64, 0
2, 140507, Note_on_c, 0, 69, 0
2, 140507, Note_on_c, 0, 81, 0
2, 140507, Note_on_c, 0, 40, 0
2, 140507, Note_on_c, 0, 64, 0
2, 140507, Note_on_c, 0, 74, 0
2, 140508, Note_on_c, 0, 83, 0
2, 140508, Note_on_c, 0, 59, 0
2, 140508, Note_on_c, 0, 71, 0
2, 140508, Note_on_c, 0, 55, 0
2, 140508, Note_on_c, 0, 76, 0
2, 140508, Note_on_c, 0, 47, 0
2, 140508, Note_on_c, 0, 86, 0
2, 140509, Note_on_c, 0, 72, 0
2, 140509, Note_on_c, 0, 79, 0
2, 140509, Note_on_c, 0, 84, 0
2, 140520, Note_on_c, 0, 28, 0
2, 140528, Note_on_c, 0, 52, 0
2, 140536, Note_on_c, 0, 78, 0
2, 140545, Note_on_c, 0, 83, 106
2, 140546, Note_on_c, 0, 71, 95
2, 140547, Note_on_c, 0, 74, 92
2, 140547, Note_on_c, 0, 78, 99
2, 140548, Note_on_c, 0, 30, 93
2, 140552, Note_on_c, 0, 42, 99
2, 140582, Control_c, 0, 64, 127
2, 140705, Note_on_c, 0, 30, 0
2, 140705, Note_on_c, 0, 42, 0
2, 140709, Note_on_c, 0, 30, 80
2, 140713, Note_on_c, 0, 42, 87
2, 140771, Note_on_c, 0, 62, 88
2, 140778, Note_on_c, 0, 57, 77
2, 140786, Note_on_c, 0, 54, 77
2, 140851, Note_on_c, 0, 57, 0
2, 140856, Note_on_c, 0, 57, 77
2, 140935, Note_on_c, 0, 42, 0
2, 140935, Note_on_c, 0, 54, 0
2, 140939, Note_on_c, 0, 42, 72
2, 140939, Note_on_c, 0, 54, 71
2, 141012, Note_on_c, 0, 62, 0
2, 141012, Note_on_c, 0, 74, 0
2, 141016, Note_on_c, 0, 69, 81
2, 141017, Note_on_c, 0, 62, 82
2, 141018, Note_on_c, 0, 74, 87
2, 141021, Note_on_c, 0, 66, 92
2, 141173, Note_on_c, 0, 74, 0
2, 141173, Note_on_c, 0, 78, 0
2, 141181, Note_on_c, 0, 57, 0
2, 141181, Note_on_c, 0, 69, 0
2, 141182, Note_on_c, 0, 81, 105
2, 141184, Note_on_c, 0, 78, 103
2, 141184, Note_on_c, 0, 74, 94
2, 141186, Note_on_c, 0, 69, 99
2, 141188, Note_on_c, 0, 57, 66
2, 141189, Note_on_c, 0, 66, 0
2, 141193, Note_on_c, 0, 66, 91
2, 141296, Note_on_c, 0, 62, 0
2, 141301, Note_on_c, 0, 62, 74
2, 141312, Note_on_c, 0, 66, 0
2, 141322, Note_on_c, 0, 66, 60
2, 141350, Note_on_c, 0, 57, 0
2, 141359, Note_on_c, 0, 57, 75
2, 141362, Note_on_c, 0, 68, 66
2, 141411, Note_on_c, 0, 74, 0
2, 141414, Note_on_c, 0, 86, 101
2, 141417, Note_on_c, 0, 74, 101
2, 141527, Note_on_c, 0, 57, 0
2, 141532, Note_on_c, 0, 57, 66
2, 141642, Note_on_c, 0, 78, 0
2, 141647, Note_on_c, 0, 84, 102
2, 141649, Note_on_c, 0, 78, 76
2, 141649, Note_on_c, 0, 30, 0
2, 141649, Note_on_c, 0, 42, 0
2, 141651, Note_on_c, 0, 72, 93
2, 141656, Note_on_c, 0, 42, 83
2, 141661, Note_on_c, 0, 30, 73
2, 141774, Note_on_c, 0, 81, 0
2, 141774, Note_on_c, 0, 86, 0
2, 141775, Note_on_c, 0, 42, 0
2, 141775, Note_on_c, 0, 66, 0
2, 141775, Note_on_c, 0, 57, 0
2, 141776, Note_on_c, 0, 62, 0
2, 141776, Note_on_c, 0, 84, 0
2, 141776, Note_on_c, 0, 54, 0
2, 141776, Note_on_c, 0, 72, 0
2, 141777, Note_on_c, 0, 78, 0
2, 141778, Control_c, 0, 64, 0
2, 141780, Note_on_c, 0, 68, 0
2, 141788, Note_on_c, 0, 69, 0
2, 141788, Note_on_c, 0, 83, 0
2, 141795, Note_on_c, 0, 71, 0
2, 141795, Note_on_c, 0, 74, 0
2, 141797, Note_on_c, 0, 83, 109
2, 141800, Note_on_c, 0, 71, 103
2, 141800, Note_on_c, 0, 74, 100
2, 141802, Note_on_c, 0, 79, 99
2, 141803, Note_on_c, 0, 30, 0
2, 141809, Note_on_c, 0, 31, 95
2, 141816, Note_on_c, 0, 43, 93
2, 141872, Control_c, 0, 64, 127
2, 142029, Note_on_c, 0, 62, 77
2, 142032, Note_on_c, 0, 59, 88
2, 142036, Note_on_c, 0, 55, 85
2, 142179, Note_on_c, 0, 55, 0
2, 142189, Note_on_c, 0, 55, 75
2, 142256, Note_on_c, 0, 71, 0
2, 142264, Note_on_c, 0, 62, 0
2, 142267, Note_on_c, 0, 71, 96
2, 142268, Note_on_c, 0, 62, 75
2, 142269, Note_on_c, 0, 67, 89
2, 142417, Note_on_c, 0, 71, 0
2, 142417, Note_on_c, 0, 74, 0
2, 142417, Note_on_c, 0, 79, 0
2, 142417, Note_on_c, 0, 83, 0
2, 142422, Note_on_c, 0, 83, 108
2, 142426, Note_on_c, 0, 79, 97
2, 142426, Note_on_c, 0, 74, 93
2, 142428, Note_on_c, 0, 71, 96
2, 142440, Note_on_c, 0, 62, 0
2, 142452, Note_on_c, 0, 62, 63
2, 142456, Note_on_c, 0, 67, 0
2, 142465, Note_on_c, 0, 67, 74
2, 142540, Note_on_c, 0, 62, 0
2, 142549, Note_on_c, 0, 62, 65
2, 142594, Note_on_c, 0, 59, 0
2, 142599, Note_on_c, 0, 59, 70
2, 142659, Note_on_c, 0, 88, 107
2, 142660, Note_on_c, 0, 76, 110
2, 142675, Note_on_c, 0, 43, 0
2, 142686, Note_on_c, 0, 55, 0
2, 142694, Note_on_c, 0, 55, 74
2, 142806, Note_on_c, 0, 47, 59
2, 142886, Note_on_c, 0, 31, 0
2, 142886, Note_on_c, 0, 71, 0
2, 142886, Note_on_c, 0, 74, 0
2, 142886, Note_on_c, 0, 83, 0
2, 142890, Note_on_c, 0, 31, 85
2, 142891, Note_on_c, 0, 83, 102
2, 142895, Note_on_c, 0, 71, 91
2, 142895, Note_on_c, 0, 74, 82
2, 143028, Note_on_c, 0, 47, 0
2, 143028, Control_c, 0, 64, 0
2, 143028, Note_on_c, 0, 62, 0
2, 143028, Note_on_c, 0, 71, 0
2, 143029, Note_on_c, 0, 67, 0
2, 143029, Note_on_c, 0, 83, 0
2, 143029, Note_on_c, 0, 79, 0
2, 143029, Note_on_c, 0, 55, 0
2, 143029, Note_on_c, 0, 59, 0
2, 143030, Note_on_c, 0, 88, 0
2, 143047, Note_on_c, 0, 31, 0
2, 143047, Note_on_c, 0, 74, 0
2, 143053, Note_on_c, 0, 86, 110
2, 143055, Note_on_c, 0, 76, 0
2, 143058, Note_on_c, 0, 81, 89
2, 143058, Note_on_c, 0, 74, 111
2, 143059, Note_on_c, 0, 45, 94
2, 143059, Note_on_c, 0, 33, 95
2, 143060, Note_on_c, 0, 76, 101
2, 143109, Control_c, 0, 64, 127
2, 143212, Note_on_c, 0, 52, 69
2, 143216, Note_on_c, 0, 45, 0
2, 143216, Note_on_c, 0, 52, 0
2, 143227, Note_on_c, 0, 45, 61
2, 143289, Note_on_c, 0, 69, 81
2, 143289, Note_on_c, 0, 85, 96
2, 143289, Note_on_c, 0, 73, 99
2, 143293, Note_on_c, 0, 45, 0
2, 143298, Note_on_c, 0, 45, 79
2, 143430, Note_on_c, 0, 52, 53
2, 143435, Note_on_c, 0, 57, 70
2, 143439, Note_on_c, 0, 57, 0
2, 143447, Note_on_c, 0, 45, 0
2, 143451, Note_on_c, 0, 45, 72
2, 143516, Note_on_c, 0, 45, 0
2, 143516, Note_on_c, 0, 73, 0
2, 143516, Note_on_c, 0, 76, 0
2, 143516, Note_on_c, 0, 81, 0
2, 143520, Note_on_c, 0, 81, 105
2, 143523, Note_on_c, 0, 33, 0
2, 143523, Note_on_c, 0, 69, 0
2, 143526, Note_on_c, 0, 76, 99
2, 143526, Note_on_c, 0, 45, 73
2, 143527, Note_on_c, 0, 73, 102
2, 143528, Note_on_c, 0, 69, 80
2, 143534, Note_on_c, 0, 33, 88
2, 143603, Note_on_c, 0, 61, 70
2, 143754, Note_on_c, 0, 52, 0
2, 143764, Note_on_c, 0, 52, 75
2, 143843, Note_on_c, 0, 64, 70
2, 143854, Note_on_c, 0, 52, 0
2, 143854, Note_on_c, 0, 61, 0
2, 143854, Note_on_c, 0, 64, 0
2, 143856, Note_on_c, 0, 57, 68
2, 143859, Note_on_c, 0, 52, 63
2, 143863, Note_on_c, 0, 61, 63
2, 143991, Note_on_c, 0, 54, 62
2, 143992, Note_on_c, 0, 52, 0
2, 143997, Note_on_c, 0, 52, 66
2, 144134, Control_c, 0, 64, 0
2, 144138, Note_on_c, 0, 76, 0
2, 144141, Note_on_c, 0, 45, 0
2, 144142, Note_on_c, 0, 57, 0
2, 144142, Note_on_c, 0, 73, 0
2, 144143, Note_on_c, 0, 69, 0
2, 144143, Note_on_c, 0, 81, 0
2, 144143, Note_on_c, 0, 74, 0
2, 144144, Note_on_c, 0, 76, 84
2, 144149, Note_on_c, 0, 85, 0
2, 144149, Note_on_c, 0, 86, 0
2, 144153, Note_on_c, 0, 33, 0
2, 144161, Note_on_c, 0, 54, 0
2, 144161, Note_on_c, 0, 61, 0
2, 144176, Note_on_c, 0, 52, 0
2, 144212, Note_on_c, 0, 78, 81
2, 144220, Note_on_c, 0, 76, 0
2, 144290, Note_on_c, 0, 48, 65
2, 144290, Note_on_c, 0, 79, 93
2, 144296, Note_on_c, 0, 72, 81
2, 144296, Note_on_c, 0, 76, 75
2, 144330, Control_c, 0, 64, 127
2, 144365, Note_on_c, 0, 55, 69
2, 144418, Note_on_c, 0, 60, 73
2, 144506, Note_on_c, 0, 62, 74
2, 144537, Note_on_c, 0, 76, 0
2, 144546, Note_on_c, 0, 76, 76
2, 144568, Note_on_c, 0, 72, 0
2, 144577, Note_on_c, 0, 72, 55
2, 144577, Note_on_c, 0, 64, 71
2, 144637, Note_on_c, 0, 62, 0
2, 144648, Note_on_c, 0, 62, 68
2, 144721, Note_on_c, 0, 60, 0
2, 144731, Note_on_c, 0, 60, 72
2, 144774, Note_on_c, 0, 83, 95
2, 144775, Note_on_c, 0, 72, 0
2, 144775, Note_on_c, 0, 76, 0
2, 144780, Note_on_c, 0, 76, 87
2, 144782, Note_on_c, 0, 72, 73
2, 144783, Note_on_c, 0, 78, 0
2, 144791, Note_on_c, 0, 48, 0
2, 144821, Note_on_c, 0, 55, 0
2, 144826, Note_on_c, 0, 55, 70
2, 144882, Note_on_c, 0, 62, 0
2, 144882, Note_on_c, 0, 64, 0
2, 144882, Note_on_c, 0, 79, 0
2, 144882, Note_on_c, 0, 55, 0
2, 144883, Note_on_c, 0, 60, 0
2, 144897, Control_c, 0, 64, 0
2, 144922, Note_on_c, 0, 48, 67
2, 144990, Note_on_c, 0, 72, 0
2, 144990, Control_c, 0, 64, 127
2, 144994, Note_on_c, 0, 55, 65
2, 145052, Note_on_c, 0, 60, 78
2, 145089, Note_on_c, 0, 81, 83
2, 145145, Note_on_c, 0, 62, 74
2, 145232, Note_on_c, 0, 64, 61
2, 145236, Note_on_c, 0, 81, 0
2, 145244, Note_on_c, 0, 81, 87
2, 145251, Note_on_c, 0, 83, 0
2, 145305, Note_on_c, 0, 60, 0
2, 145311, Note_on_c, 0, 60, 59
2, 145367, Note_on_c, 0, 60, 0
2, 145373, Note_on_c, 0, 60, 61
2, 145384, Note_on_c, 0, 83, 88
2, 145436, Note_on_c, 0, 55, 0
2, 145445, Note_on_c, 0, 55, 66
2, 145508, Control_c, 0, 64, 0
2, 145508, Note_on_c, 0, 64, 0
2, 145508, Note_on_c, 0, 60, 0
2, 145509, Note_on_c, 0, 48, 0
2, 145509, Note_on_c, 0, 81, 0
2, 145509, Note_on_c, 0, 76, 0
2, 145509, Note_on_c, 0, 62, 0
2, 145509, Note_on_c, 0, 55, 0
2, 145510, Note_on_c, 0, 83, 0
2, 145539, Note_on_c, 0, 47, 72
2, 145542, Note_on_c, 0, 81, 94
2, 145545, Note_on_c, 0, 74, 84
2, 145547, Note_on_c, 0, 71, 74
2, 145551, Note_on_c, 0, 71, 0
2, 145597, Control_c, 0, 64, 127
2, 145618, Note_on_c, 0, 55, 63
2, 145687, Note_on_c, 0, 59, 74
2, 145779, Note_on_c, 0, 62, 65
2, 145786, Note_on_c, 0, 79, 84
2, 145857, Note_on_c, 0, 67, 54
2, 145920, Note_on_c, 0, 62, 0
2, 145930, Note_on_c, 0, 62, 68
2, 146012, Note_on_c, 0, 59, 0
2, 146016, Note_on_c, 0, 59, 69
2, 146035, Note_on_c, 0, 79, 0
2, 146042, Note_on_c, 0, 74, 0
2, 146046, Note_on_c, 0, 79, 87
2, 146054, Note_on_c, 0, 74, 74
2, 146054, Note_on_c, 0, 71, 72
2, 146081, Note_on_c, 0, 55, 0
2, 146086, Note_on_c, 0, 55, 56
2, 146188, Note_on_c, 0, 47, 0
2, 146192, Note_on_c, 0, 81, 0
2, 146198, Control_c, 0, 64, 0
2, 146198, Note_on_c, 0, 47, 70
2, 146257, Control_c, 0, 64, 127
2, 146273, Note_on_c, 0, 55, 0
2, 146279, Note_on_c, 0, 55, 60
2, 146327, Note_on_c, 0, 59, 0
2, 146331, Note_on_c, 0, 59, 70
2, 146373, Note_on_c, 0, 79, 0
2, 146378, Note_on_c, 0, 79, 89
2, 146403, Note_on_c, 0, 71, 0
2, 146409, Note_on_c, 0, 71, 59
2, 146411, Note_on_c, 0, 62, 0
2, 146420, Note_on_c, 0, 62, 61
2, 146472, Note_on_c, 0, 67, 0
2, 146477, Note_on_c, 0, 67, 66
2, 146519, Note_on_c, 0, 62, 0
2, 146529, Note_on_c, 0, 62, 70
2, 146634, Note_on_c, 0, 59, 0
2, 146638, Note_on_c, 0, 59, 70
2, 146644, Note_on_c, 0, 78, 86
2, 146718, Note_on_c, 0, 55, 0
2, 146724, Note_on_c, 0, 55, 46
2, 146789, Note_on_c, 0, 67, 0
2, 146790, Note_on_c, 0, 71, 0
2, 146790, Note_on_c, 0, 59, 0
2, 146790, Note_on_c, 0, 62, 0
2, 146790, Note_on_c, 0, 55, 0
2, 146791, Note_on_c, 0, 47, 0
2, 146791, Note_on_c, 0, 78, 0
2, 146792, Control_c, 0, 64, 0
2, 146795, Note_on_c, 0, 79, 0
2, 146799, Note_on_c, 0, 79, 92
2, 146799, Note_on_c, 0, 60, 65
2, 146803, Note_on_c, 0, 74, 0
2, 146813, Note_on_c, 0, 76, 79
2, 146814, Note_on_c, 0, 72, 77
2, 146856, Note_on_c, 0, 60, 0
2, 146872, Control_c, 0, 64, 127
2, 146886, Note_on_c, 0, 55, 61
2, 146948, Note_on_c, 0, 60, 72
2, 147035, Note_on_c, 0, 81, 92
2, 147037, Note_on_c, 0, 62, 72
2, 147120, Note_on_c, 0, 64, 60
2, 147179, Note_on_c, 0, 67, 68
2, 147256, Note_on_c, 0, 60, 0
2, 147256, Note_on_c, 0, 72, 0
2, 147260, Note_on_c, 0, 60, 60
2, 147264, Note_on_c, 0, 79, 0
2, 147266, Note_on_c, 0, 72, 67
2, 147268, Note_on_c, 0, 79, 92
2, 147358, Note_on_c, 0, 74, 74
2, 147425, Note_on_c, 0, 76, 0
2, 147434, Note_on_c, 0, 76, 72
2, 147463, Note_on_c, 0, 74, 0
2, 147471, Note_on_c, 0, 74, 70
2, 147571, Note_on_c, 0, 72, 0
2, 147578, Note_on_c, 0, 91, 92
2, 147579, Note_on_c, 0, 72, 75
2, 147648, Note_on_c, 0, 67, 0
2, 147657, Note_on_c, 0, 67, 67
2, 147660, Note_on_c, 0, 90, 78
2, 147724, Note_on_c, 0, 64, 0
2, 147729, Note_on_c, 0, 64, 68
2, 147735, Note_on_c, 0, 86, 73
2, 147770, Note_on_c, 0, 62, 0
2, 147775, Note_on_c, 0, 62, 64
2, 147778, Note_on_c, 0, 81, 0
2, 147789, Note_on_c, 0, 81, 73
2, 147855, Note_on_c, 0, 60, 0
2, 147859, Note_on_c, 0, 60, 65
2, 147866, Note_on_c, 0, 78, 81
2, 147947, Note_on_c, 0, 55, 0
2, 147952, Note_on_c, 0, 55, 59
2, 147955, Note_on_c, 0, 74, 0
2, 147960, Note_on_c, 0, 74, 77
2, 148019, Note_on_c, 0, 64, 0
2, 148019, Note_on_c, 0, 62, 0
2, 148019, Note_on_c, 0, 81, 0
2, 148019, Control_c, 0, 64, 0
2, 148019, Note_on_c, 0, 78, 0
2, 148020, Note_on_c, 0, 55, 0
2, 148020, Note_on_c, 0, 74, 0
2, 148020, Note_on_c, 0, 60, 0
2, 148020, Note_on_c, 0, 67, 0
2, 148022, Note_on_c, 0, 91, 0
2, 148022, Note_on_c, 0, 90, 0
2, 148023, Note_on_c, 0, 86, 0
2, 148024, Note_on_c, 0, 76, 0
2, 148024, Note_on_c, 0, 79, 0
2, 148032, Note_on_c, 0, 72, 0
2, 148033, Note_on_c, 0, 50, 68
2, 148033, Note_on_c, 0, 79, 85
2, 148085, Control_c, 0, 64, 127
2, 148107, Note_on_c, 0, 78, 79
2, 148120, Note_on_c, 0, 57, 43
2, 148174, Note_on_c, 0, 62, 70
2, 148175, Note_on_c, 0, 74, 73
2, 148238, Note_on_c, 0, 69, 67
2, 148241, Note_on_c, 0, 64, 64
2, 148307, Note_on_c, 0, 66, 78
2, 148308, Note_on_c, 0, 62, 0
2, 148316, Note_on_c, 0, 62, 73
2, 148385, Note_on_c, 0, 69, 0
2, 148389, Note_on_c, 0, 69, 68
2, 148416, Note_on_c, 0, 57, 0
2, 148418, Note_on_c, 0, 54, 38
2, 148420, Note_on_c, 0, 57, 31
2, 148423, Note_on_c, 0, 54, 0
2, 148469, Note_on_c, 0, 74, 0
2, 148479, Note_on_c, 0, 74, 78
2, 148561, Note_on_c, 0, 76, 80
2, 148600, Note_on_c, 0, 50, 0
2, 148600, Note_on_c, 0, 78, 0
2, 148605, Note_on_c, 0, 50, 77
2, 148609, Note_on_c, 0, 78, 82
2, 148672, Note_on_c, 0, 81, 89
2, 148762, Note_on_c, 0, 45, 75
2, 148763, Note_on_c, 0, 86, 88
2, 148830, Note_on_c, 0, 93, 92
2, 148904, Note_on_c, 0, 38, 76
2, 148908, Note_on_c, 0, 98, 98
2, 148941, Note_on_c, 0, 79, 0
2, 148942, Note_on_c, 0, 86, 0
2, 148942, Note_on_c, 0, 69, 0
2, 148942, Note_on_c, 0, 62, 0
2, 148942, Note_on_c, 0, 50, 0
2, 148942, Note_on_c, 0, 64, 0
2, 148942, Note_on_c, 0, 74, 0
2, 148943, Note_on_c, 0, 78, 0
2, 148943, Note_on_c, 0, 57, 0
2, 148943, Note_on_c, 0, 45, 0
2, 148943, Note_on_c, 0, 76, 0
2, 148943, Note_on_c, 0, 66, 0
2, 148944, Note_on_c, 0, 81, 0
2, 148946, Note_on_c, 0, 93, 0
2, 148968, Control_c, 0, 64, 0
2, 148984, Note_on_c, 0, 38, 0
2, 148984, Note_on_c, 0, 98, 0
2, 149051, Note_on_c, 0, 78, 99
2, 149081, Note_on_c, 0, 78, 0
2, 149194, Note_on_c, 0, 47, 94
2, 149194, Note_on_c, 0, 79, 98
2, 149195, Note_on_c, 0, 35, 86
2, 149198, Note_on_c, 0, 74, 85
2, 149198, Note_on_c, 0, 67, 86
2, 149198, Note_on_c, 0, 71, 90
2, 149230, Control_c, 0, 64, 127
2, 149414, Note_on_c, 0, 71, 0
2, 149416, Note_on_c, 0, 59, 88
2, 149417, Note_on_c, 0, 50, 81
2, 149418, Note_on_c, 0, 76, 98
2, 149419, Note_on_c, 0, 64, 87
2, 149419, Note_on_c, 0, 69, 80
2, 149419, Note_on_c, 0, 55, 76
2, 149421, Note_on_c, 0, 71, 73
2, 149422, Note_on_c, 0, 67, 0
2, 149427, Note_on_c, 0, 67, 71
2, 149457, Note_on_c, 0, 74, 0
2, 149459, Note_on_c, 0, 71, 0
2, 149460, Note_on_c, 0, 67, 0
2, 149462, Note_on_c, 0, 79, 0
2, 149464, Note_on_c, 0, 76, 0
2, 149464, Note_on_c, 0, 47, 0
2, 149465, Control_c, 0, 64, 0
2, 149466, Note_on_c, 0, 59, 0
2, 149467, Note_on_c, 0, 64, 0
2, 149468, Note_on_c, 0, 69, 0
2, 149483, Note_on_c, 0, 35, 0
2, 149483, Note_on_c, 0, 50, 0
2, 149498, Note_on_c, 0, 55, 0
2, 149662, Note_on_c, 0, 83, 106
2, 149664, Note_on_c, 0, 79, 87
2, 149665, Note_on_c, 0, 71, 92
2, 149670, Note_on_c, 0, 76, 90
2, 149671, Note_on_c, 0, 48, 91
2, 149672, Note_on_c, 0, 36, 93
2, 149706, Control_c, 0, 64, 127
2, 149967, Note_on_c, 0, 48, 0
2, 149973, Note_on_c, 0, 81, 92
2, 149975, Note_on_c, 0, 76, 0
2, 149978, Note_on_c, 0, 69, 82
2, 149978, Note_on_c, 0, 48, 85
2, 149982, Note_on_c, 0, 72, 71
2, 149983, Note_on_c, 0, 76, 70
2, 150103, Note_on_c, 0, 52, 76
2, 150113, Note_on_c, 0, 81, 0
2, 150117, Note_on_c, 0, 60, 75
2, 150119, Note_on_c, 0, 81, 99
2, 150120, Note_on_c, 0, 69, 0
2, 150125, Note_on_c, 0, 55, 52
2, 150126, Note_on_c, 0, 69, 85
2, 150128, Note_on_c, 0, 76, 0
2, 150136, Note_on_c, 0, 72, 0
2, 150136, Note_on_c, 0, 76, 67
2, 150179, Control_c, 0, 64, 0
2, 150182, Note_on_c, 0, 55, 0
2, 150185, Note_on_c, 0, 71, 0
2, 150189, Note_on_c, 0, 81, 0
2, 150193, Note_on_c, 0, 52, 0
2, 150220, Note_on_c, 0, 83, 0
2, 150228, Note_on_c, 0, 79, 0
2, 150236, Note_on_c, 0, 36, 0
2, 150243, Note_on_c, 0, 48, 0
2, 150243, Note_on_c, 0, 69, 0
2, 150243, Note_on_c, 0, 76, 0
2, 150251, Note_on_c, 0, 60, 0
2, 150272, Note_on_c, 0, 48, 61
2, 150272, Note_on_c, 0, 86, 98
2, 150275, Note_on_c, 0, 50, 61
2, 150276, Note_on_c, 0, 74, 94
2, 150282, Note_on_c, 0, 50, 0
2, 150305, Note_on_c, 0, 48, 0
2, 150306, Note_on_c, 0, 74, 0
2, 150314, Note_on_c, 0, 86, 0
2, 150423, Note_on_c, 0, 83, 106
2, 150425, Note_on_c, 0, 78, 98
2, 150426, Note_on_c, 0, 74, 90
2, 150426, Note_on_c, 0, 71, 92
2, 150429, Note_on_c, 0, 38, 93
2, 150431, Note_on_c, 0, 50, 86
2, 150466, Control_c, 0, 64, 127
2, 150604, Note_on_c, 0, 38, 0
2, 150612, Note_on_c, 0, 50, 0
2, 150616, Note_on_c, 0, 38, 72
2, 150616, Note_on_c, 0, 50, 67
2, 150694, Note_on_c, 0, 57, 69
2, 150749, Note_on_c, 0, 62, 81
2, 150861, Note_on_c, 0, 66, 71
2, 150904, Note_on_c, 0, 71, 0
2, 150914, Note_on_c, 0, 71, 49
2, 150942, Note_on_c, 0, 50, 0
2, 150946, Note_on_c, 0, 69, 52
2, 150951, Note_on_c, 0, 50, 45
2, 150981, Note_on_c, 0, 74, 0
2, 150992, Note_on_c, 0, 74, 85
2, 151011, Note_on_c, 0, 66, 0
2, 151022, Note_on_c, 0, 66, 41
2, 151080, Note_on_c, 0, 71, 0
2, 151080, Note_on_c, 0, 83, 0
2, 151086, Note_on_c, 0, 83, 106
2, 151092, Note_on_c, 0, 71, 98
2, 151096, Note_on_c, 0, 62, 0
2, 151103, Note_on_c, 0, 62, 53
2, 151138, Note_on_c, 0, 78, 0
2, 151139, Note_on_c, 0, 74, 0
2, 151139, Note_on_c, 0, 38, 0
2, 151139, Note_on_c, 0, 50, 0
2, 151140, Note_on_c, 0, 66, 0
2, 151145, Control_c, 0, 64, 0
2, 151157, Note_on_c, 0, 69, 0
2, 151211, Control_c, 0, 64, 127
2, 151322, Note_on_c, 0, 81, 106
2, 151326, Note_on_c, 0, 69, 96
2, 151538, Note_on_c, 0, 86, 100
2, 151541, Note_on_c, 0, 74, 99
2, 151687, Note_on_c, 0, 83, 0
2, 151695, Note_on_c, 0, 57, 0
2, 151695, Note_on_c, 0, 71, 0
2, 151697, Control_c, 0, 64, 0
2, 151698, Note_on_c, 0, 83, 107
2, 151699, Note_on_c, 0, 74, 0
2, 151699, Note_on_c, 0, 86, 0
2, 151700, Note_on_c, 0, 79, 95
2, 151700, Note_on_c, 0, 76, 102
2, 151701, Note_on_c, 0, 71, 96
2, 151710, Note_on_c, 0, 62, 0
2, 151714, Note_on_c, 0, 36, 82
2, 151756, Control_c, 0, 64, 127
2, 151779, Note_on_c, 0, 69, 0
2, 151784, Note_on_c, 0, 43, 61
2, 151810, Note_on_c, 0, 36, 0
2, 151816, Note_on_c, 0, 36, 69
2, 151914, Note_on_c, 0, 52, 75
2, 152032, Note_on_c, 0, 55, 71
2, 152033, Note_on_c, 0, 76, 0
2, 152037, Note_on_c, 0, 88, 95
2, 152044, Note_on_c, 0, 76, 92
2, 152060, Note_on_c, 0, 48, 75
2, 152156, Note_on_c, 0, 55, 0
2, 152160, Note_on_c, 0, 55, 63
2, 152236, Note_on_c, 0, 60, 77
2, 152321, Note_on_c, 0, 64, 72
2, 152336, Note_on_c, 0, 90, 99
2, 152338, Note_on_c, 0, 78, 92
2, 152355, Note_on_c, 0, 76, 0
2, 152360, Note_on_c, 0, 84, 62
2, 152366, Note_on_c, 0, 76, 65
2, 152394, Note_on_c, 0, 60, 0
2, 152398, Note_on_c, 0, 60, 70
2, 152486, Note_on_c, 0, 55, 0
2, 152495, Note_on_c, 0, 55, 50
2, 152547, Note_on_c, 0, 52, 0
2, 152552, Note_on_c, 0, 52, 73
2, 152624, Note_on_c, 0, 60, 0
2, 152634, Note_on_c, 0, 60, 79
2, 152639, Note_on_c, 0, 91, 105
2, 152640, Note_on_c, 0, 79, 0
2, 152645, Note_on_c, 0, 79, 92
2, 152701, Note_on_c, 0, 55, 0
2, 152706, Note_on_c, 0, 55, 57
2, 152762, Note_on_c, 0, 52, 0
2, 152774, Note_on_c, 0, 52, 63
2, 152808, Note_on_c, 0, 48, 0
2, 152819, Note_on_c, 0, 48, 67
2, 152878, Note_on_c, 0, 55, 0
2, 152888, Note_on_c, 0, 55, 48
2, 152947, Note_on_c, 0, 78, 0
2, 152947, Note_on_c, 0, 90, 0
2, 152948, Control_c, 0, 64, 0
2, 152951, Note_on_c, 0, 90, 104
2, 152954, Note_on_c, 0, 78, 97
2, 152955, Note_on_c, 0, 43, 0
2, 152955, Note_on_c, 0, 48, 0
2, 152956, Note_on_c, 0, 79, 0
2, 152956, Note_on_c, 0, 64, 0
2, 152956, Note_on_c, 0, 71, 0
2, 152957, Note_on_c, 0, 38, 79
2, 152957, Note_on_c, 0, 55, 0
2, 152957, Note_on_c, 0, 83, 0
2, 152957, Note_on_c, 0, 60, 0
2, 152957, Note_on_c, 0, 91, 0
2, 152957, Note_on_c, 0, 76, 0
2, 152958, Note_on_c, 0, 88, 0
2, 152962, Note_on_c, 0, 81, 0
2, 152970, Note_on_c, 0, 52, 0
2, 152985, Note_on_c, 0, 36, 0
2, 152985, Note_on_c, 0, 84, 0
2, 153008, Control_c, 0, 64, 127
2, 153030, Note_on_c, 0, 45, 67
2, 153090, Note_on_c, 0, 50, 66
2, 153166, Note_on_c, 0, 54, 63
2, 153190, Note_on_c, 0, 91, 102
2, 153196, Note_on_c, 0, 79, 90
2, 153266, Note_on_c, 0, 57, 62
2, 153323, Note_on_c, 0, 50, 0
2, 153331, Note_on_c, 0, 50, 62
2, 153431, Note_on_c, 0, 57, 0
2, 153436, Note_on_c, 0, 93, 100
2, 153439, Note_on_c, 0, 57, 56
2, 153442, Note_on_c, 0, 81, 87
2, 153500, Note_on_c, 0, 62, 82
2, 153580, Note_on_c, 0, 66, 82
2, 153661, Note_on_c, 0, 62, 0
2, 153671, Note_on_c, 0, 62, 78
2, 153730, Note_on_c, 0, 79, 0
2, 153730, Note_on_c, 0, 91, 0
2, 153738, Note_on_c, 0, 57, 0
2, 153738, Note_on_c, 0, 91, 100
2, 153742, Note_on_c, 0, 79, 90
2, 153749, Note_on_c, 0, 57, 66
2, 153876, Note_on_c, 0, 62, 0
2, 153887, Note_on_c, 0, 62, 80
2, 153891, Note_on_c, 0, 90, 0
2, 153899, Note_on_c, 0, 78, 0
2, 153902, Note_on_c, 0, 90, 91
2, 153905, Note_on_c, 0, 78, 84
2, 153991, Note_on_c, 0, 54, 0
2, 154001, Note_on_c, 0, 54, 64
2, 154044, Note_on_c, 0, 86, 96
2, 154047, Note_on_c, 0, 74, 89
2, 154099, Note_on_c, 0, 50, 0
2, 154109, Note_on_c, 0, 50, 54
2, 154164, Note_on_c, 0, 45, 0
2, 154164, Note_on_c, 0, 50, 0
2, 154164, Note_on_c, 0, 79, 0
2, 154164, Note_on_c, 0, 62, 0
2, 154164, Note_on_c, 0, 86, 0
2, 154164, Note_on_c, 0, 78, 0
2, 154164, Note_on_c, 0, 66, 0
2, 154164, Note_on_c, 0, 90, 0
2, 154164, Note_on_c, 0, 57, 0
2, 154164, Note_on_c, 0, 74, 0
2, 154164, Note_on_c, 0, 91, 0
2, 154165, Note_on_c, 0, 54, 0
2, 154165, Note_on_c, 0, 93, 0
2, 154168, Control_c, 0, 64, 0
2, 154176, Note_on_c, 0, 38, 0
2, 154191, Note_on_c, 0, 81, 0
2, 154195, Note_on_c, 0, 81, 98
2, 154196, Note_on_c, 0, 40, 80
2, 154199, Note_on_c, 0, 69, 79
2, 154229, Control_c, 0, 64, 127
2, 154301, Note_on_c, 0, 52, 81
2, 154403, Note_on_c, 0, 55, 75
2, 154421, Note_on_c, 0, 81, 0
2, 154425, Note_on_c, 0, 86, 96
2, 154431, Note_on_c, 0, 74, 90
2, 154432, Note_on_c, 0, 81, 77
2, 154536, Note_on_c, 0, 52, 0
2, 154541, Note_on_c, 0, 52, 75
2, 154644, Note_on_c, 0, 81, 0
2, 154651, Note_on_c, 0, 81, 100
2, 154653, Note_on_c, 0, 59, 65
2, 154705, Note_on_c, 0, 52, 0
2, 154709, Note_on_c, 0, 64, 76
2, 154714, Note_on_c, 0, 52, 59
2, 154782, Note_on_c, 0, 55, 0
2, 154788, Note_on_c, 0, 67, 70
2, 154792, Note_on_c, 0, 55, 62
2, 154859, Note_on_c, 0, 64, 0
2, 154867, Note_on_c, 0, 64, 72
2, 154878, Note_on_c, 0, 76, 74
2, 154944, Note_on_c, 0, 59, 0
2, 154947, Note_on_c, 0, 59, 65
2, 154962, Note_on_c, 0, 90, 93
2, 154990, Note_on_c, 0, 55, 0
2, 155001, Note_on_c, 0, 55, 61
2, 155038, Note_on_c, 0, 91, 96
2, 155059, Note_on_c, 0, 52, 0
2, 155068, Note_on_c, 0, 52, 62
2, 155112, Note_on_c, 0, 90, 0
2, 155124, Note_on_c, 0, 90, 89
2, 155189, Note_on_c, 0, 55, 0
2, 155189, Note_on_c, 0, 86, 0
2, 155194, Note_on_c, 0, 86, 82
2, 155195, Note_on_c, 0, 55, 53
2, 155228, Note_on_c, 0, 52, 0
2, 155228, Note_on_c, 0, 81, 0
2, 155237, Note_on_c, 0, 81, 82
2, 155237, Note_on_c, 0, 52, 65
2, 155304, Note_on_c, 0, 55, 0
2, 155313, Note_on_c, 0, 55, 56
2, 155316, Note_on_c, 0, 78, 85
2, 155389, Note_on_c, 0, 74, 0
2, 155394, Note_on_c, 0, 52, 0
2, 155394, Note_on_c, 0, 81, 0
2, 155394, Note_on_c, 0, 90, 0
2, 155394, Note_on_c, 0, 67, 0
2, 155394, Note_on_c, 0, 91, 0
2, 155395, Note_on_c, 0, 55, 0
2, 155396, Note_on_c, 0, 76, 0
2, 155396, Note_on_c, 0, 40, 0
2, 155396, Note_on_c, 0, 86, 0
2, 155397, Note_on_c, 0, 69, 0
2, 155399, Note_on_c, 0, 78, 0
2, 155399, Control_c, 0, 64, 0
2, 155400, Note_on_c, 0, 74, 83
2, 155403, Note_on_c, 0, 42, 75
2, 155404, Note_on_c, 0, 64, 0
2, 155412, Note_on_c, 0, 59, 0
2, 155466, Control_c, 0, 64, 127
2, 155483, Note_on_c, 0, 69, 73
2, 155513, Note_on_c, 0, 50, 59
2, 155543, Control_c, 0, 64, 0
2, 155568, Note_on_c, 0, 67, 80
2, 155596, Note_on_c, 0, 50, 0
2, 155606, Note_on_c, 0, 50, 60
2, 155650, Note_on_c, 0, 66, 82
2, 155665, Control_c, 0, 64, 127
2, 155715, Note_on_c, 0, 62, 75
2, 155785, Note_on_c, 0, 57, 72
2, 155846, Note_on_c, 0, 55, 80
2, 155931, Note_on_c, 0, 54, 61
2, 155957, Note_on_c, 0, 74, 0
2, 155960, Note_on_c, 0, 62, 0
2, 155961, Note_on_c, 0, 50, 0
2, 155962, Note_on_c, 0, 57, 0
2, 155963, Note_on_c, 0, 66, 0
2, 155969, Control_c, 0, 64, 0
2, 155973, Note_on_c, 0, 42, 0
2, 155980, Note_on_c, 0, 55, 0
2, 155980, Note_on_c, 0, 67, 0
2, 155980, Note_on_c, 0, 69, 0
2, 155988, Note_on_c, 0, 54, 0
2, 155989, Note_on_c, 0, 43, 84
2, 155990, Note_on_c, 0, 55, 89
2, 156071, Note_on_c, 0, 57, 78
2, 156143, Note_on_c, 0, 59, 74
2, 156217, Note_on_c, 0, 50, 71
2, 156218, Note_on_c, 0, 62, 80
2, 156241, Control_c, 0, 64, 127
2, 156285, Note_on_c, 0, 67, 83
2, 156288, Note_on_c, 0, 55, 0
2, 156291, Note_on_c, 0, 55, 71
2, 156354, Note_on_c, 0, 69, 71
2, 156412, Note_on_c, 0, 71, 85
2, 156504, Note_on_c, 0, 74, 87
2, 156553, Note_on_c, 0, 71, 0
2, 156553, Note_on_c, 0, 69, 0
2, 156554, Control_c, 0, 64, 0
2, 156554, Note_on_c, 0, 67, 0
2, 156554, Note_on_c, 0, 62, 0
2, 156554, Note_on_c, 0, 55, 0
2, 156554, Note_on_c, 0, 74, 0
2, 156555, Note_on_c, 0, 50, 0
2, 156555, Note_on_c, 0, 59, 0
2, 156564, Note_on_c, 0, 43, 0
2, 156564, Note_on_c, 0, 57, 0
2, 156582, Note_on_c, 0, 81, 93
2, 156582, Note_on_c, 0, 79, 91
2, 156595, Note_on_c, 0, 48, 75
2, 156618, Control_c, 0, 64, 127
2, 156675, Note_on_c, 0, 74, 83
2, 156683, Note_on_c, 0, 55, 64
2, 156751, Note_on_c, 0, 76, 86
2, 156792, Note_on_c, 0, 62, 68
2, 156810, Note_on_c, 0, 81, 0
2, 156816, Note_on_c, 0, 81, 98
2, 156910, Note_on_c, 0, 55, 0
2, 156910, Note_on_c, 0, 74, 0
2, 156914, Note_on_c, 0, 55, 53
2, 156919, Note_on_c, 0, 74, 73
2, 156986, Note_on_c, 0, 76, 0
2, 156994, Note_on_c, 0, 76, 77
2, 157028, Note_on_c, 0, 64, 71
2, 157051, Note_on_c, 0, 83, 97
2, 157102, Note_on_c, 0, 76, 0
2, 157111, Note_on_c, 0, 76, 67
2, 157148, Note_on_c, 0, 74, 0
2, 157155, Note_on_c, 0, 74, 78
2, 157201, Note_on_c, 0, 55, 0
2, 157207, Note_on_c, 0, 55, 63
2, 157209, Note_on_c, 0, 76, 0
2, 157220, Note_on_c, 0, 76, 79
2, 157286, Note_on_c, 0, 79, 0
2, 157290, Note_on_c, 0, 79, 93
2, 157296, Note_on_c, 0, 60, 83
2, 157378, Note_on_c, 0, 74, 0
2, 157378, Note_on_c, 0, 76, 0
2, 157387, Note_on_c, 0, 74, 70
2, 157389, Note_on_c, 0, 76, 67
2, 157432, Note_on_c, 0, 55, 0
2, 157443, Note_on_c, 0, 55, 64
2, 157447, Note_on_c, 0, 76, 0
2, 157451, Note_on_c, 0, 76, 76
2, 157509, Note_on_c, 0, 62, 0
2, 157509, Note_on_c, 0, 81, 0
2, 157517, Note_on_c, 0, 81, 95
2, 157519, Note_on_c, 0, 62, 78
2, 157593, Note_on_c, 0, 74, 0
2, 157604, Note_on_c, 0, 74, 73
2, 157621, Note_on_c, 0, 60, 0
2, 157639, Note_on_c, 0, 55, 0
2, 157649, Note_on_c, 0, 55, 57
2, 157678, Note_on_c, 0, 76, 0
2, 157687, Note_on_c, 0, 76, 79
2, 157747, Note_on_c, 0, 64, 0
2, 157754, Note_on_c, 0, 83, 0
2, 157757, Note_on_c, 0, 64, 68
2, 157758, Note_on_c, 0, 83, 99
2, 157782, Control_c, 0, 64, 0
2, 157790, Note_on_c, 0, 76, 0
2, 157791, Note_on_c, 0, 62, 0
2, 157791, Note_on_c, 0, 79, 0
2, 157792, Note_on_c, 0, 48, 0
2, 157792, Note_on_c, 0, 81, 0
2, 157795, Note_on_c, 0, 55, 0
2, 157831, Note_on_c, 0, 64, 0
2, 157831, Note_on_c, 0, 74, 0
2, 157842, Note_on_c, 0, 74, 84
2, 157847, Control_c, 0, 64, 127
2, 157854, Note_on_c, 0, 50, 72
2, 157928, Note_on_c, 0, 76, 82
2, 157935, Note_on_c, 0, 57, 58
2, 157938, Control_c, 0, 64, 0
2, 157977, Control_c, 0, 64, 127
2, 157981, Note_on_c, 0, 79, 89
2, 158003, Note_on_c, 0, 62, 76
2, 158039, Note_on_c, 0, 74, 0
2, 158050, Note_on_c, 0, 74, 87
2, 158085, Note_on_c, 0, 57, 0
2, 158092, Note_on_c, 0, 57, 63
2, 158123, Note_on_c, 0, 76, 0
2, 158130, Note_on_c, 0, 76, 81
2, 158158, Control_c, 0, 64, 0
2, 158178, Note_on_c, 0, 81, 99
2, 158184, Note_on_c, 0, 64, 72
2, 158184, Control_c, 0, 64, 127
2, 158211, Note_on_c, 0, 55, 38
2, 158292, Note_on_c, 0, 50, 0
2, 158297, Note_on_c, 0, 75, 86
2, 158298, Note_on_c, 0, 51, 77
2, 158304, Note_on_c, 0, 74, 0
2, 158305, Control_c, 0, 64, 0
2, 158306, Note_on_c, 0, 81, 0
2, 158309, Note_on_c, 0, 64, 0
2, 158312, Note_on_c, 0, 79, 0
2, 158315, Note_on_c, 0, 55, 0
2, 158315, Note_on_c, 0, 62, 0
2, 158315, Note_on_c, 0, 83, 0
2, 158323, Note_on_c, 0, 57, 0
2, 158330, Note_on_c, 0, 76, 0
2, 158353, Control_c, 0, 64, 127
2, 158368, Note_on_c, 0, 59, 76
2, 158371, Note_on_c, 0, 76, 86
2, 158426, Note_on_c, 0, 63, 77
2, 158434, Note_on_c, 0, 78, 102
2, 158512, Note_on_c, 0, 78, 0
2, 158513, Note_on_c, 0, 76, 0
2, 158514, Note_on_c, 0, 63, 0
2, 158515, Note_on_c, 0, 59, 0
2, 158516, Control_c, 0, 64, 0
2, 158516, Note_on_c, 0, 51, 0
2, 158522, Note_on_c, 0, 75, 0
2, 158599, Control_c, 0, 64, 127
2, 158602, Note_on_c, 0, 83, 99
2, 158607, Note_on_c, 0, 59, 86
2, 158611, Note_on_c, 0, 54, 72
2, 158625, Note_on_c, 0, 47, 82
2, 158677, Note_on_c, 0, 87, 85
2, 158737, Note_on_c, 0, 54, 0
2, 158748, Note_on_c, 0, 54, 47
2, 158749, Note_on_c, 0, 90, 92
2, 158818, Note_on_c, 0, 95, 94
2, 158876, Note_on_c, 0, 87, 0
2, 158877, Note_on_c, 0, 90, 0
2, 158878, Control_c, 0, 64, 0
2, 158878, Note_on_c, 0, 54, 0
2, 158879, Note_on_c, 0, 95, 0
2, 158879, Note_on_c, 0, 83, 0
2, 158879, Note_on_c, 0, 59, 0
2, 158915, Note_on_c, 0, 93, 109
2, 158919, Note_on_c, 0, 40, 93
2, 158919, Note_on_c, 0, 81, 104
2, 158952, Control_c, 0, 64, 127
2, 159031, Note_on_c, 0, 52, 80
2, 159126, Note_on_c, 0, 55, 80
2, 159206, Note_on_c, 0, 81, 0
2, 159206, Note_on_c, 0, 93, 0
2, 159214, Note_on_c, 0, 93, 90
2, 159217, Note_on_c, 0, 81, 88
2, 159218, Note_on_c, 0, 59, 68
2, 159283, Note_on_c, 0, 52, 0
2, 159289, Note_on_c, 0, 64, 70
2, 159291, Note_on_c, 0, 52, 73
2, 159298, Note_on_c, 0, 64, 0
2, 159349, Note_on_c, 0, 65, 81
2, 159377, Note_on_c, 0, 91, 105
2, 159380, Note_on_c, 0, 79, 92
2, 159497, Note_on_c, 0, 65, 0
2, 159499, Note_on_c, 0, 81, 0
2, 159499, Note_on_c, 0, 40, 0
2, 159499, Control_c, 0, 64, 0
2, 159500, Note_on_c, 0, 55, 0
2, 159500, Note_on_c, 0, 79, 0
2, 159501, Note_on_c, 0, 93, 0
2, 159502, Note_on_c, 0, 91, 0
2, 159513, Note_on_c, 0, 47, 0
2, 159521, Note_on_c, 0, 52, 0
2, 159540, Note_on_c, 0, 39, 81
2, 159542, Note_on_c, 0, 90, 109
2, 159544, Note_on_c, 0, 59, 0
2, 159544, Note_on_c, 0, 78, 105
2, 159582, Control_c, 0, 64, 127
2, 159620, Note_on_c, 0, 47, 61
2, 159696, Note_on_c, 0, 48, 52
2, 159715, Note_on_c, 0, 51, 44
2, 159786, Note_on_c, 0, 54, 68
2, 159832, Note_on_c, 0, 91, 95
2, 159837, Note_on_c, 0, 79, 82
2, 159847, Note_on_c, 0, 59, 74
2, 159914, Note_on_c, 0, 63, 86
2, 159989, Note_on_c, 0, 78, 0
2, 159989, Note_on_c, 0, 90, 0
2, 159993, Note_on_c, 0, 66, 96
2, 159999, Note_on_c, 0, 90, 98
2, 160001, Note_on_c, 0, 78, 92
2, 160118, Control_c, 0, 64, 0
2, 160120, Note_on_c, 0, 63, 0
2, 160120, Note_on_c, 0, 48, 0
2, 160121, Note_on_c, 0, 91, 0
2, 160121, Note_on_c, 0, 79, 0
2, 160121, Note_on_c, 0, 47, 0
2, 160122, Note_on_c, 0, 78, 0
2, 160122, Note_on_c, 0, 59, 0
2, 160122, Note_on_c, 0, 90, 0
2, 160122, Note_on_c, 0, 39, 0
2, 160123, Note_on_c, 0, 54, 0
2, 160123, Note_on_c, 0, 66, 0
2, 160143, Note_on_c, 0, 51, 0
2, 160172, Note_on_c, 0, 86, 101
2, 160176, Note_on_c, 0, 74, 100
2, 160178, Note_on_c, 0, 38, 80
2, 160197, Control_c, 0, 64, 127
2, 160250, Note_on_c, 0, 47, 71
2, 160291, Note_on_c, 0, 50, 80
2, 160400, Note_on_c, 0, 54, 65
2, 160471, Note_on_c, 0, 88, 98
2, 160477, Note_on_c, 0, 76, 94
2, 160484, Note_on_c, 0, 59, 68
2, 160506, Note_on_c, 0, 62, 80
2, 160593, Note_on_c, 0, 66, 88
2, 160634, Note_on_c, 0, 76, 0
2, 160638, Note_on_c, 0, 83, 100
2, 160644, Note_on_c, 0, 71, 81
2, 160645, Note_on_c, 0, 76, 75
2, 160722, Control_c, 0, 64, 0
2, 160723, Note_on_c, 0, 50, 0
2, 160723, Note_on_c, 0, 74, 0
2, 160724, Note_on_c, 0, 62, 0
2, 160724, Note_on_c, 0, 71, 0
2, 160724, Note_on_c, 0, 88, 0
2, 160724, Note_on_c, 0, 38, 0
2, 160724, Note_on_c, 0, 86, 0
2, 160724, Note_on_c, 0, 83, 0
2, 160725, Note_on_c, 0, 76, 0
2, 160725, Note_on_c, 0, 66, 0
2, 160726, Note_on_c, 0, 47, 0
2, 160726, Note_on_c, 0, 59, 0
2, 160742, Note_on_c, 0, 54, 0
2, 160790, Note_on_c, 0, 81, 101
2, 160792, Note_on_c, 0, 76, 93
2, 160792, Note_on_c, 0, 33, 87
2, 160792, Note_on_c, 0, 69, 86
2, 160794, Note_on_c, 0, 73, 96
2, 160803, Control_c, 0, 64, 127
2, 160868, Note_on_c, 0, 69, 0
2, 160869, Note_on_c, 0, 73, 0
2, 160871, Note_on_c, 0, 81, 0
2, 160874, Note_on_c, 0, 76, 0
2, 160882, Note_on_c, 0, 45, 80
2, 160885, Control_c, 0, 64, 0
2, 160942, Note_on_c, 0, 33, 0
2, 160942, Control_c, 0, 64, 127
2, 160946, Note_on_c, 0, 33, 77
2, 160957, Note_on_c, 0, 45, 0
2, 161102, Note_on_c, 0, 79, 96
2, 161103, Control_c, 0, 64, 0
2, 161104, Note_on_c, 0, 35, 86
2, 161105, Note_on_c, 0, 74, 82
2, 161106, Note_on_c, 0, 47, 79
2, 161106, Note_on_c, 0, 71, 86
2, 161106, Note_on_c, 0, 67, 86
2, 161126, Note_on_c, 0, 33, 0
2, 161187, Control_c, 0, 64, 127
2, 161206, Note_on_c, 0, 36, 71
2, 161245, Note_on_c, 0, 35, 0
2, 161264, Control_c, 0, 64, 0
2, 161272, Note_on_c, 0, 47, 0
2, 161272, Note_on_c, 0, 67, 0
2, 161280, Note_on_c, 0, 71, 0
2, 161287, Note_on_c, 0, 74, 0
2, 161341, Note_on_c, 0, 79, 0
2, 161364, Note_on_c, 0, 36, 0
2, 161408, Note_on_c, 0, 83, 103
2, 161414, Note_on_c, 0, 79, 93
2, 161415, Note_on_c, 0, 71, 92
2, 161417, Note_on_c, 0, 76, 95
2, 161422, Note_on_c, 0, 36, 88
2, 161441, Control_c, 0, 64, 127
2, 161562, Note_on_c, 0, 48, 68
2, 161633, Note_on_c, 0, 48, 0
2, 161643, Note_on_c, 0, 48, 58
2, 161715, Note_on_c, 0, 62, 72
2, 161748, Note_on_c, 0, 48, 0
2, 161756, Note_on_c, 0, 48, 53
2, 161796, Note_on_c, 0, 64, 71
2, 161863, Note_on_c, 0, 71, 0
2, 161873, Note_on_c, 0, 71, 86
2, 161879, Note_on_c, 0, 64, 0
2, 161884, Note_on_c, 0, 64, 66
2, 161901, Note_on_c, 0, 55, 71
2, 161940, Note_on_c, 0, 48, 0
2, 161947, Note_on_c, 0, 48, 60
2, 161948, Note_on_c, 0, 62, 0
2, 161957, Note_on_c, 0, 62, 75
2, 161971, Note_on_c, 0, 36, 0
2, 162024, Note_on_c, 0, 64, 0
2, 162031, Note_on_c, 0, 64, 79
2, 162063, Note_on_c, 0, 48, 0
2, 162072, Note_on_c, 0, 48, 55
2, 162094, Note_on_c, 0, 71, 0
2, 162101, Note_on_c, 0, 71, 78
2, 162178, Note_on_c, 0, 62, 0
2, 162186, Note_on_c, 0, 64, 0
2, 162189, Note_on_c, 0, 62, 75
2, 162193, Note_on_c, 0, 48, 0
2, 162193, Note_on_c, 0, 55, 0
2, 162196, Note_on_c, 0, 64, 74
2, 162201, Note_on_c, 0, 71, 0
2, 162201, Note_on_c, 0, 55, 67
2, 162205, Note_on_c, 0, 48, 69
2, 162212, Note_on_c, 0, 71, 66
2, 162277, Note_on_c, 0, 69, 78
2, 162339, Note_on_c, 0, 48, 0
2, 162350, Note_on_c, 0, 48, 59
2, 162356, Note_on_c, 0, 74, 94
2, 162424, Note_on_c, 0, 64, 0
2, 162432, Note_on_c, 0, 69, 0
2, 162435, Note_on_c, 0, 64, 66
2, 162436, Note_on_c, 0, 69, 56
2, 162508, Note_on_c, 0, 48, 0
2, 162508, Note_on_c, 0, 69, 0
2, 162512, Note_on_c, 0, 48, 66
2, 162512, Note_on_c, 0, 69, 74
2, 162577, Note_on_c, 0, 76, 0
2, 162585, Note_on_c, 0, 76, 95
2, 162608, Note_on_c, 0, 71, 0
2, 162613, Note_on_c, 0, 71, 51
2, 162670, Note_on_c, 0, 48, 0
2, 162677, Note_on_c, 0, 69, 0
2, 162680, Note_on_c, 0, 48, 54
2, 162681, Note_on_c, 0, 69, 80
2, 162754, Note_on_c, 0, 74, 0
2, 162760, Note_on_c, 0, 74, 78
2, 162800, Note_on_c, 0, 62, 0
2, 162806, Note_on_c, 0, 62, 72
2, 162808, Note_on_c, 0, 48, 0
2, 162815, Note_on_c, 0, 78, 99
2, 162816, Note_on_c, 0, 55, 0
2, 162818, Note_on_c, 0, 48, 63
2, 162821, Note_on_c, 0, 55, 64
2, 162908, Note_on_c, 0, 48, 0
2, 162912, Note_on_c, 0, 48, 54
2, 162915, Note_on_c, 0, 69, 0
2, 162924, Note_on_c, 0, 69, 62
2, 162984, Note_on_c, 0, 48, 0
2, 162984, Note_on_c, 0, 74, 0
2, 162990, Note_on_c, 0, 48, 65
2, 162995, Note_on_c, 0, 74, 75
2, 163038, Note_on_c, 0, 79, 0
2, 163045, Note_on_c, 0, 79, 95
2, 163135, Note_on_c, 0, 81, 73
2, 163138, Note_on_c, 0, 69, 0
2, 163143, Note_on_c, 0, 69, 64
2, 163146, Note_on_c, 0, 55, 0
2, 163154, Note_on_c, 0, 55, 68
2, 163200, Note_on_c, 0, 74, 0
2, 163209, Note_on_c, 0, 74, 79
2, 163253, Note_on_c, 0, 81, 0
2, 163261, Note_on_c, 0, 48, 0
2, 163261, Note_on_c, 0, 55, 0
2, 163265, Note_on_c, 0, 81, 97
2, 163265, Note_on_c, 0, 48, 76
2, 163271, Note_on_c, 0, 55, 68
2, 163282, Note_on_c, 0, 76, 0
2, 163330, Note_on_c, 0, 69, 0
2, 163339, Note_on_c, 0, 69, 64
2, 163421, Control_c, 0, 64, 0
2, 163422, Note_on_c, 0, 55, 0
2, 163422, Note_on_c, 0, 62, 0
2, 163422, Note_on_c, 0, 83, 0
2, 163424, Note_on_c, 0, 71, 0
2, 163425, Note_on_c, 0, 69, 0
2, 163425, Note_on_c, 0, 74, 0
2, 163425, Note_on_c, 0, 79, 0
2, 163426, Note_on_c, 0, 78, 0
2, 163430, Note_on_c, 0, 83, 100
2, 163432, Note_on_c, 0, 62, 89
2, 163433, Note_on_c, 0, 55, 77
2, 163445, Note_on_c, 0, 64, 0
2, 163445, Note_on_c, 0, 81, 0
2, 163492, Note_on_c, 0, 74, 79
2, 163507, Note_on_c, 0, 62, 0
2, 163528, Note_on_c, 0, 83, 0
2, 163553, Note_on_c, 0, 55, 0
2, 163591, Note_on_c, 0, 48, 0
2, 163596, Note_on_c, 0, 78, 83
2, 163663, Note_on_c, 0, 62, 88
2, 163667, Note_on_c, 0, 55, 79
2, 163669, Note_on_c, 0, 48, 85
2, 163671, Note_on_c, 0, 83, 95
2, 163688, Note_on_c, 0, 78, 0
2, 163689, Note_on_c, 0, 62, 0
2, 163699, Note_on_c, 0, 74, 0
2, 163703, Note_on_c, 0, 55, 0
2, 163710, Note_on_c, 0, 48, 0
2, 163747, Note_on_c, 0, 74, 81
2, 163772, Note_on_c, 0, 83, 0
2, 163799, Note_on_c, 0, 74, 0
2, 163839, Note_on_c, 0, 78, 80
2, 163911, Note_on_c, 0, 74, 104
2, 163912, Note_on_c, 0, 88, 100
2, 163914, Note_on_c, 0, 78, 0
2, 163915, Note_on_c, 0, 86, 95
2, 163917, Note_on_c, 0, 38, 98
2, 163917, Note_on_c, 0, 50, 94
2, 163960, Control_c, 0, 64, 127
2, 164132, Note_on_c, 0, 69, 65
2, 164136, Note_on_c, 0, 69, 0
2, 164221, Note_on_c, 0, 50, 0
2, 164225, Note_on_c, 0, 62, 80
2, 164228, Note_on_c, 0, 50, 75
2, 164302, Note_on_c, 0, 64, 77
2, 164374, Note_on_c, 0, 71, 93
2, 164387, Note_on_c, 0, 57, 71
2, 164444, Note_on_c, 0, 62, 0
2, 164448, Note_on_c, 0, 62, 82
2, 164490, Note_on_c, 0, 71, 0
2, 164494, Note_on_c, 0, 71, 71
2, 164520, Note_on_c, 0, 64, 0
2, 164531, Note_on_c, 0, 64, 75
2, 164536, Note_on_c, 0, 50, 0
2, 164541, Note_on_c, 0, 50, 65
2, 164590, Note_on_c, 0, 71, 0
2, 164601, Note_on_c, 0, 71, 78
2, 164682, Note_on_c, 0, 62, 0
2, 164682, Note_on_c, 0, 64, 0
2, 164688, Note_on_c, 0, 62, 81
2, 164689, Note_on_c, 0, 57, 0
2, 164690, Note_on_c, 0, 69, 74
2, 164690, Note_on_c, 0, 64, 83
2, 164699, Note_on_c, 0, 57, 70
2, 164766, Note_on_c, 0, 69, 0
2, 164773, Note_on_c, 0, 69, 77
2, 164835, Note_on_c, 0, 50, 0
2, 164835, Note_on_c, 0, 74, 0
2, 164843, Note_on_c, 0, 74, 90
2, 164847, Note_on_c, 0, 50, 65
2, 164851, Note_on_c, 0, 69, 0
2, 164856, Note_on_c, 0, 69, 65
2, 164920, Note_on_c, 0, 64, 0
2, 164924, Note_on_c, 0, 64, 74
2, 164989, Note_on_c, 0, 62, 0
2, 164989, Note_on_c, 0, 69, 0
2, 164996, Note_on_c, 0, 69, 75
2, 164999, Note_on_c, 0, 62, 64
2, 165078, Note_on_c, 0, 76, 93
2, 165135, Note_on_c, 0, 38, 0
2, 165140, Note_on_c, 0, 38, 55
2, 165143, Note_on_c, 0, 50, 0
2, 165148, Note_on_c, 0, 50, 67
2, 165173, Note_on_c, 0, 69, 0
2, 165180, Note_on_c, 0, 69, 76
2, 165242, Note_on_c, 0, 74, 0
2, 165249, Note_on_c, 0, 74, 83
2, 165304, Note_on_c, 0, 64, 0
2, 165312, Note_on_c, 0, 64, 79
2, 165314, Note_on_c, 0, 78, 98
2, 165327, Note_on_c, 0, 50, 0
2, 165334, Note_on_c, 0, 50, 65
2, 165388, Note_on_c, 0, 69, 0
2, 165400, Note_on_c, 0, 69, 74
2, 165473, Note_on_c, 0, 50, 0
2, 165473, Note_on_c, 0, 74, 0
2, 165477, Note_on_c, 0, 74, 79
2, 165478, Note_on_c, 0, 50, 69
2, 165509, Control_c, 0, 64, 0
2, 165519, Control_c, 0, 64, 127
2, 165538, Note_on_c, 0, 79, 93
2, 165626, Note_on_c, 0, 50, 0
2, 165626, Note_on_c, 0, 57, 0
2, 165626, Note_on_c, 0, 69, 0
2, 165634, Note_on_c, 0, 57, 68
2, 165635, Note_on_c, 0, 69, 72
2, 165635, Note_on_c, 0, 50, 58
2, 165696, Note_on_c, 0, 74, 0
2, 165702, Note_on_c, 0, 74, 77
2, 165757, Note_on_c, 0, 50, 0
2, 165762, Note_on_c, 0, 81, 84
2, 165763, Note_on_c, 0, 50, 70
2, 165765, Note_on_c, 0, 57, 0
2, 165769, Note_on_c, 0, 57, 60
2, 165772, Note_on_c, 0, 79, 0
2, 165777, Note_on_c, 0, 79, 68
2, 165818, Note_on_c, 0, 69, 0
2, 165828, Note_on_c, 0, 69, 77
2, 165918, Note_on_c, 0, 64, 0
2, 165925, Note_on_c, 0, 83, 100
2, 165926, Note_on_c, 0, 57, 0
2, 165929, Note_on_c, 0, 64, 87
2, 165935, Note_on_c, 0, 57, 74
2, 165936, Note_on_c, 0, 71, 0
2, 165936, Note_on_c, 0, 74, 0
2, 165937, Note_on_c, 0, 62, 0
2, 165937, Note_on_c, 0, 76, 0
2, 165937, Control_c, 0, 64, 0
2, 165937, Note_on_c, 0, 38, 0
2, 165937, Note_on_c, 0, 69, 0
2, 165938, Note_on_c, 0, 78, 0
2, 165938, Note_on_c, 0, 81, 0
2, 165949, Note_on_c, 0, 88, 0
2, 165957, Note_on_c, 0, 86, 0
2, 165964, Note_on_c, 0, 79, 0
2, 165991, Note_on_c, 0, 74, 86
2, 166049, Note_on_c, 0, 64, 0
2, 166064, Control_c, 0, 64, 127
2, 166097, Note_on_c, 0, 78, 83
2, 166156, Note_on_c, 0, 57, 0
2, 166156, Note_on_c, 0, 83, 0
2, 166158, Note_on_c, 0, 69, 76
2, 166160, Note_on_c, 0, 64, 83
2, 166164, Note_on_c, 0, 83, 94
2, 166168, Note_on_c, 0, 57, 73
2, 166198, Control_c, 0, 64, 0
2, 166225, Note_on_c, 0, 74, 0
2, 166230, Note_on_c, 0, 57, 0
2, 166236, Note_on_c, 0, 74, 76
2, 166238, Note_on_c, 0, 78, 0
2, 166261, Note_on_c, 0, 83, 0
2, 166264, Note_on_c, 0, 69, 0
2, 166267, Note_on_c, 0, 64, 0
2, 166279, Note_on_c, 0, 50, 0
2, 166310, Note_on_c, 0, 74, 0
2, 166323, Note_on_c, 0, 78, 84
2, 166398, Note_on_c, 0, 78, 0
2, 166412, Note_on_c, 0, 74, 104
2, 166413, Note_on_c, 0, 86, 103
2, 166414, Note_on_c, 0, 50, 91
2, 166415, Note_on_c, 0, 38, 93
2, 166456, Control_c, 0, 64, 127
2, 166730, Note_on_c, 0, 98, 102
2, 166732, Note_on_c, 0, 86, 0
2, 166736, Note_on_c, 0, 86, 96
2, 166808, Note_on_c, 0, 93, 88
2, 166809, Note_on_c, 0, 81, 79
2, 166876, Note_on_c, 0, 79, 87
2, 166887, Note_on_c, 0, 91, 85
2, 166924, Note_on_c, 0, 86, 0
2, 166935, Note_on_c, 0, 86, 85
2, 166963, Note_on_c, 0, 74, 0
2, 166971, Note_on_c, 0, 74, 78
2, 167009, Note_on_c, 0, 81, 0
2, 167018, Note_on_c, 0, 81, 87
2, 167051, Note_on_c, 0, 69, 66
2, 167101, Note_on_c, 0, 79, 0
2, 167105, Note_on_c, 0, 79, 80
2, 167111, Note_on_c, 0, 67, 69
2, 167155, Note_on_c, 0, 74, 0
2, 167155, Note_on_c, 0, 86, 0
2, 167166, Note_on_c, 0, 74, 91
2, 167166, Note_on_c, 0, 86, 103
2, 167224, Note_on_c, 0, 69, 0
2, 167232, Note_on_c, 0, 81, 0
2, 167235, Note_on_c, 0, 69, 76
2, 167238, Note_on_c, 0, 81, 94
2, 167262, Note_on_c, 0, 67, 0
2, 167273, Note_on_c, 0, 67, 80
2, 167308, Note_on_c, 0, 79, 0
2, 167316, Note_on_c, 0, 69, 0
2, 167317, Note_on_c, 0, 79, 81
2, 167325, Note_on_c, 0, 69, 63
2, 167377, Note_on_c, 0, 74, 0
2, 167386, Note_on_c, 0, 74, 86
2, 167388, Note_on_c, 0, 62, 83
2, 167454, Note_on_c, 0, 79, 0
2, 167457, Note_on_c, 0, 57, 58
2, 167459, Note_on_c, 0, 79, 80
2, 167493, Note_on_c, 0, 81, 0
2, 167500, Note_on_c, 0, 81, 77
2, 167513, Note_on_c, 0, 55, 61
2, 167562, Note_on_c, 0, 86, 0
2, 167569, Note_on_c, 0, 50, 0
2, 167571, Note_on_c, 0, 86, 83
2, 167575, Note_on_c, 0, 50, 62
2, 167631, Note_on_c, 0, 91, 0
2, 167641, Note_on_c, 0, 91, 89
2, 167648, Note_on_c, 0, 45, 59
2, 167708, Note_on_c, 0, 93, 0
2, 167718, Note_on_c, 0, 93, 89
2, 167720, Note_on_c, 0, 43, 64
2, 167773, Note_on_c, 0, 45, 0
2, 167773, Note_on_c, 0, 79, 0
2, 167773, Note_on_c, 0, 62, 0
2, 167773, Note_on_c, 0, 74, 0
2, 167773, Note_on_c, 0, 81, 0
2, 167774, Note_on_c, 0, 57, 0
2, 167774, Note_on_c, 0, 55, 0
2, 167774, Note_on_c, 0, 69, 0
2, 167782, Control_c, 0, 64, 0
2, 167792, Note_on_c, 0, 67, 0
2, 167800, Note_on_c, 0, 98, 0
2, 167808, Note_on_c, 0, 38, 0
2, 167811, Note_on_c, 0, 98, 106
2, 167817, Note_on_c, 0, 38, 80
2, 167869, Control_c, 0, 64, 127
2, 168007, Note_on_c, 0, 43, 0
2, 169935, Note_on_c, 0, 93, 0
2, 169966, Note_on_c, 0, 50, 0
2, 169973, Note_on_c, 0, 91, 0
2, 170004, Note_on_c, 0, 38, 0
2, 170009, Control_c, 0, 64, 0
2, 170112, Note_on_c, 0, 86, 0
2, 170188, Note_on_c, 0, 98, 0
2, 170296, Control_c, 0, 64, 127
2, 170326, Note_on_c, 0, 76, 58
2, 170472, Note_on_c, 0, 76, 0
2, 170477, Note_on_c, 0, 76, 57
2, 170636, Note_on_c, 0, 78, 73
2, 170799, Note_on_c, 0, 79, 78
2, 170826, Note_on_c, 0, 52, 46
2, 170972, Note_on_c, 0, 52, 0
2, 170977, Note_on_c, 0, 52, 46
2, 170977, Note_on_c, 0, 64, 43
2, 170987, Note_on_c, 0, 64, 0
2, 171116, Note_on_c, 0, 60, 57
2, 171285, Note_on_c, 0, 55, 53
2, 171426, Note_on_c, 0, 64, 67
2, 171571, Note_on_c, 0, 76, 0
2, 171580, Note_on_c, 0, 76, 73
2, 171601, Note_on_c, 0, 55, 0
2, 171607, Note_on_c, 0, 55, 48
2, 171737, Note_on_c, 0, 86, 80
2, 171740, Note_on_c, 0, 60, 0
2, 171744, Note_on_c, 0, 60, 66
2, 171893, Note_on_c, 0, 55, 0
2, 171896, Note_on_c, 0, 84, 77
2, 171904, Note_on_c, 0, 55, 61
2, 171904, Note_on_c, 0, 60, 0
2, 172029, Note_on_c, 0, 64, 0
2, 172029, Note_on_c, 0, 52, 0
2, 172029, Note_on_c, 0, 86, 0
2, 172030, Note_on_c, 0, 55, 0
2, 172031, Note_on_c, 0, 79, 0
2, 172031, Note_on_c, 0, 84, 0
2, 172032, Control_c, 0, 64, 0
2, 172046, Note_on_c, 0, 83, 81
2, 172047, Note_on_c, 0, 76, 0
2, 172060, Note_on_c, 0, 54, 61
2, 172101, Note_on_c, 0, 78, 0
2, 172122, Note_on_c, 0, 54, 0
2, 172124, Control_c, 0, 64, 127
2, 172204, Note_on_c, 0, 54, 56
2, 172365, Note_on_c, 0, 62, 63
2, 172518, Note_on_c, 0, 81, 81
2, 172527, Note_on_c, 0, 57, 53
2, 172606, Note_on_c, 0, 79, 80
2, 172677, Note_on_c, 0, 54, 0
2, 172677, Note_on_c, 0, 81, 0
2, 172685, Note_on_c, 0, 66, 70
2, 172686, Note_on_c, 0, 54, 54
2, 172688, Note_on_c, 0, 81, 84
2, 172830, Note_on_c, 0, 57, 0
2, 172837, Note_on_c, 0, 57, 54
2, 172992, Note_on_c, 0, 62, 0
2, 173003, Note_on_c, 0, 62, 65
2, 173153, Note_on_c, 0, 79, 0
2, 173160, Note_on_c, 0, 57, 0
2, 173164, Note_on_c, 0, 79, 77
2, 173165, Note_on_c, 0, 57, 50
2, 173286, Note_on_c, 0, 54, 0
2, 173286, Note_on_c, 0, 83, 0
2, 173287, Note_on_c, 0, 57, 0
2, 173287, Note_on_c, 0, 62, 0
2, 173287, Note_on_c, 0, 79, 0
2, 173287, Note_on_c, 0, 66, 0
2, 173287, Control_c, 0, 64, 0
2, 173322, Note_on_c, 0, 81, 0
2, 173327, Note_on_c, 0, 81, 82
2, 173333, Note_on_c, 0, 55, 66
2, 173383, Control_c, 0, 64, 127
2, 173468, Note_on_c, 0, 55, 0
2, 173479, Note_on_c, 0, 55, 60
2, 173629, Note_on_c, 0, 81, 0
2, 173635, Note_on_c, 0, 81, 80
2, 173641, Note_on_c, 0, 62, 62
2, 173802, Note_on_c, 0, 83, 79
2, 173809, Note_on_c, 0, 59, 61
2, 173881, Note_on_c, 0, 79, 85
2, 173928, Note_on_c, 0, 62, 0
2, 173937, Note_on_c, 0, 62, 42
2, 173969, Note_on_c, 0, 67, 67
2, 174128, Note_on_c, 0, 78, 81
2, 174136, Note_on_c, 0, 59, 0
2, 174142, Note_on_c, 0, 59, 65
2, 174266, Note_on_c, 0, 79, 0
2, 174277, Note_on_c, 0, 79, 85
2, 174289, Note_on_c, 0, 62, 0
2, 174294, Note_on_c, 0, 62, 71
2, 174428, Note_on_c, 0, 59, 0
2, 174428, Note_on_c, 0, 81, 0
2, 174438, Note_on_c, 0, 81, 84
2, 174438, Note_on_c, 0, 59, 70
2, 174533, Note_on_c, 0, 74, 80
2, 174556, Note_on_c, 0, 78, 0
2, 174556, Note_on_c, 0, 83, 0
2, 174556, Note_on_c, 0, 55, 0
2, 174556, Note_on_c, 0, 62, 0
2, 174556, Note_on_c, 0, 67, 0
2, 174557, Note_on_c, 0, 81, 0
2, 174557, Note_on_c, 0, 59, 0
2, 174557, Control_c, 0, 64, 0
2, 174566, Note_on_c, 0, 79, 0
2, 174616, Note_on_c, 0, 54, 67
2, 174658, Control_c, 0, 64, 127
2, 174750, Note_on_c, 0, 54, 0
2, 174756, Note_on_c, 0, 54, 54
2, 174922, Note_on_c, 0, 62, 64
2, 175073, Note_on_c, 0, 57, 57
2, 175242, Note_on_c, 0, 74, 0
2, 175246, Note_on_c, 0, 66, 72
2, 175246, Note_on_c, 0, 74, 80
2, 175395, Note_on_c, 0, 57, 0
2, 175405, Note_on_c, 0, 57, 54
2, 175409, Note_on_c, 0, 54, 0
2, 175482, Note_on_c, 0, 72, 74
2, 175564, Note_on_c, 0, 62, 0
2, 175574, Note_on_c, 0, 62, 71
2, 175718, Note_on_c, 0, 57, 0
2, 175718, Note_on_c, 0, 74, 0
2, 175727, Note_on_c, 0, 62, 0
2, 175728, Note_on_c, 0, 74, 80
2, 175729, Note_on_c, 0, 57, 63
2, 175820, Note_on_c, 0, 57, 0
2, 175820, Note_on_c, 0, 72, 0
2, 175820, Note_on_c, 0, 66, 0
2, 175821, Control_c, 0, 64, 0
2, 175890, Note_on_c, 0, 76, 84
2, 175891, Note_on_c, 0, 45, 75
2, 175898, Note_on_c, 0, 72, 73
2, 175902, Note_on_c, 0, 74, 0
2, 175902, Control_c, 0, 64, 127
2, 175907, Note_on_c, 0, 74, 61
2, 176073, Note_on_c, 0, 60, 65
2, 176075, Note_on_c, 0, 52, 57
2, 176202, Note_on_c, 0, 60, 0
2, 176209, Note_on_c, 0, 52, 0
2, 176212, Note_on_c, 0, 60, 61
2, 176214, Note_on_c, 0, 52, 61
2, 176214, Note_on_c, 0, 57, 54
2, 176363, Note_on_c, 0, 52, 0
2, 176363, Note_on_c, 0, 57, 0
2, 176363, Note_on_c, 0, 60, 0
2, 176368, Note_on_c, 0, 60, 64
2, 176371, Note_on_c, 0, 52, 57
2, 176374, Note_on_c, 0, 57, 58
2, 176532, Note_on_c, 0, 60, 0
2, 176532, Note_on_c, 0, 76, 0
2, 176540, Note_on_c, 0, 52, 0
2, 176540, Note_on_c, 0, 76, 89
2, 176543, Note_on_c, 0, 60, 71
2, 176547, Note_on_c, 0, 57, 0
2, 176551, Note_on_c, 0, 52, 61
2, 176558, Note_on_c, 0, 57, 62
2, 176701, Note_on_c, 0, 60, 0
2, 176708, Note_on_c, 0, 60, 68
2, 176709, Note_on_c, 0, 52, 0
2, 176709, Note_on_c, 0, 57, 0
2, 176713, Note_on_c, 0, 57, 55
2, 176713, Note_on_c, 0, 52, 59
2, 176789, Note_on_c, 0, 78, 92
2, 176878, Note_on_c, 0, 57, 0
2, 176878, Note_on_c, 0, 60, 0
2, 176884, Note_on_c, 0, 60, 67
2, 176889, Note_on_c, 0, 57, 65
2, 176893, Note_on_c, 0, 52, 0
2, 176903, Note_on_c, 0, 52, 44
2, 177031, Note_on_c, 0, 45, 0
2, 177031, Note_on_c, 0, 52, 0
2, 177031, Note_on_c, 0, 60, 0
2, 177034, Note_on_c, 0, 79, 90
2, 177039, Note_on_c, 0, 57, 0
2, 177042, Note_on_c, 0, 52, 57
2, 177043, Note_on_c, 0, 60, 71
2, 177050, Note_on_c, 0, 57, 59
2, 177149, Control_c, 0, 64, 0
2, 177149, Note_on_c, 0, 52, 0
2, 177149, Note_on_c, 0, 74, 0
2, 177150, Note_on_c, 0, 57, 0
2, 177150, Note_on_c, 0, 72, 0
2, 177150, Note_on_c, 0, 60, 0
2, 177150, Note_on_c, 0, 76, 0
2, 177151, Note_on_c, 0, 78, 0
2, 177177, Note_on_c, 0, 79, 0
2, 177186, Note_on_c, 0, 79, 89
2, 177189, Note_on_c, 0, 47, 79
2, 177196, Note_on_c, 0, 74, 77
2, 177246, Control_c, 0, 64, 127
2, 177292, Note_on_c, 0, 47, 0
2, 177350, Note_on_c, 0, 62, 76
2, 177351, Note_on_c, 0, 59, 64
2, 177355, Note_on_c, 0, 54, 61
2, 177500, Note_on_c, 0, 54, 0
2, 177500, Note_on_c, 0, 62, 0
2, 177507, Note_on_c, 0, 59, 0
2, 177508, Note_on_c, 0, 62, 69
2, 177509, Note_on_c, 0, 54, 64
2, 177512, Note_on_c, 0, 59, 60
2, 177661, Note_on_c, 0, 62, 0
2, 177669, Note_on_c, 0, 54, 0
2, 177669, Note_on_c, 0, 59, 0
2, 177669, Note_on_c, 0, 78, 87
2, 177671, Note_on_c, 0, 62, 74
2, 177673, Note_on_c, 0, 54, 63
2, 177674, Note_on_c, 0, 59, 64
2, 177756, Note_on_c, 0, 76, 85
2, 177830, Note_on_c, 0, 62, 0
2, 177830, Note_on_c, 0, 78, 0
2, 177834, Note_on_c, 0, 78, 95
2, 177838, Note_on_c, 0, 62, 70
2, 177838, Note_on_c, 0, 54, 0
2, 177838, Note_on_c, 0, 59, 0
2, 177842, Note_on_c, 0, 59, 69
2, 177847, Note_on_c, 0, 54, 57
2, 177991, Note_on_c, 0, 54, 0
2, 177991, Note_on_c, 0, 59, 0
2, 177991, Note_on_c, 0, 62, 0
2, 177998, Note_on_c, 0, 62, 76
2, 177999, Note_on_c, 0, 54, 53
2, 178002, Note_on_c, 0, 59, 64
2, 178152, Note_on_c, 0, 54, 0
2, 178152, Note_on_c, 0, 59, 0
2, 178152, Note_on_c, 0, 62, 0
2, 178160, Note_on_c, 0, 62, 63
2, 178161, Note_on_c, 0, 54, 51
2, 178162, Note_on_c, 0, 59, 61
2, 178306, Note_on_c, 0, 54, 0
2, 178306, Note_on_c, 0, 59, 0
2, 178306, Note_on_c, 0, 62, 0
2, 178306, Note_on_c, 0, 79, 0
2, 178310, Note_on_c, 0, 54, 59
2, 178310, Note_on_c, 0, 79, 85
2, 178312, Note_on_c, 0, 62, 64
2, 178315, Note_on_c, 0, 59, 56
2, 178389, Note_on_c, 0, 62, 0
2, 178389, Note_on_c, 0, 78, 0
2, 178390, Note_on_c, 0, 54, 0
2, 178391, Note_on_c, 0, 59, 0
2, 178391, Control_c, 0, 64, 0
2, 178392, Note_on_c, 0, 76, 0
2, 178398, Note_on_c, 0, 74, 0
2, 178464, Note_on_c, 0, 81, 96
2, 178471, Note_on_c, 0, 76, 88
2, 178472, Note_on_c, 0, 60, 74
2, 178474, Note_on_c, 0, 48, 71
2, 178490, Control_c, 0, 64, 127
2, 178560, Note_on_c, 0, 79, 0
2, 178629, Note_on_c, 0, 60, 0
2, 178632, Note_on_c, 0, 64, 67
2, 178634, Note_on_c, 0, 60, 65
2, 178643, Note_on_c, 0, 55, 56
2, 178698, Note_on_c, 0, 81, 0
2, 178709, Note_on_c, 0, 81, 94
2, 178790, Note_on_c, 0, 55, 0
2, 178790, Note_on_c, 0, 60, 0
2, 178790, Note_on_c, 0, 64, 0
2, 178794, Note_on_c, 0, 60, 63
2, 178794, Note_on_c, 0, 64, 59
2, 178795, Note_on_c, 0, 55, 63
2, 178951, Note_on_c, 0, 76, 0
2, 178959, Note_on_c, 0, 60, 0
2, 178959, Note_on_c, 0, 64, 0
2, 178962, Note_on_c, 0, 76, 94
2, 178967, Note_on_c, 0, 55, 0
2, 178968, Note_on_c, 0, 60, 65
2, 178970, Note_on_c, 0, 64, 63
2, 178975, Note_on_c, 0, 55, 58
2, 179112, Note_on_c, 0, 55, 0
2, 179112, Note_on_c, 0, 64, 0
2, 179120, Note_on_c, 0, 60, 0
2, 179122, Note_on_c, 0, 64, 64
2, 179124, Note_on_c, 0, 55, 65
2, 179125, Note_on_c, 0, 60, 61
2, 179266, Note_on_c, 0, 76, 0
2, 179270, Note_on_c, 0, 76, 90
2, 179281, Note_on_c, 0, 55, 0
2, 179281, Note_on_c, 0, 60, 0
2, 179281, Note_on_c, 0, 64, 0
2, 179289, Note_on_c, 0, 60, 64
2, 179290, Note_on_c, 0, 64, 61
2, 179293, Note_on_c, 0, 55, 66
2, 179420, Note_on_c, 0, 64, 0
2, 179420, Note_on_c, 0, 76, 0
2, 179425, Note_on_c, 0, 76, 91
2, 179427, Note_on_c, 0, 55, 0
2, 179427, Note_on_c, 0, 60, 0
2, 179431, Note_on_c, 0, 64, 65
2, 179433, Note_on_c, 0, 55, 60
2, 179433, Note_on_c, 0, 60, 62
2, 179573, Note_on_c, 0, 55, 0
2, 179573, Note_on_c, 0, 64, 0
2, 179573, Note_on_c, 0, 76, 0
2, 179577, Note_on_c, 0, 64, 64
2, 179578, Note_on_c, 0, 76, 92
2, 179581, Note_on_c, 0, 48, 0
2, 179581, Note_on_c, 0, 55, 64
2, 179586, Note_on_c, 0, 48, 53
2, 179713, Note_on_c, 0, 48, 0
2, 179714, Note_on_c, 0, 64, 0
2, 179714, Note_on_c, 0, 55, 0
2, 179714, Note_on_c, 0, 76, 0
2, 179715, Note_on_c, 0, 81, 0
2, 179715, Control_c, 0, 64, 0
2, 179732, Note_on_c, 0, 59, 82
2, 179733, Note_on_c, 0, 75, 96
2, 179735, Note_on_c, 0, 60, 0
2, 179736, Note_on_c, 0, 47, 79
2, 179738, Note_on_c, 0, 71, 81
2, 179738, Note_on_c, 0, 54, 73
2, 179776, Note_on_c, 0, 59, 0
2, 179834, Note_on_c, 0, 47, 0
2, 179842, Control_c, 0, 64, 127
2, 179896, Note_on_c, 0, 54, 0
2, 179896, Note_on_c, 0, 59, 64
2, 179901, Note_on_c, 0, 54, 55
2, 179989, Note_on_c, 0, 76, 94
2, 180042, Note_on_c, 0, 54, 0
2, 180049, Note_on_c, 0, 59, 0
2, 180053, Note_on_c, 0, 54, 71
2, 180055, Note_on_c, 0, 59, 69
2, 180211, Note_on_c, 0, 54, 0
2, 180211, Note_on_c, 0, 59, 0
2, 180213, Note_on_c, 0, 78, 97
2, 180221, Note_on_c, 0, 59, 78
2, 180222, Note_on_c, 0, 54, 71
2, 180359, Note_on_c, 0, 76, 0
2, 180359, Note_on_c, 0, 59, 0
2, 180362, Control_c, 0, 64, 0
2, 180364, Note_on_c, 0, 71, 0
2, 180372, Note_on_c, 0, 75, 0
2, 180377, Note_on_c, 0, 86, 92
2, 180380, Note_on_c, 0, 54, 0
2, 180380, Note_on_c, 0, 78, 0
2, 180381, Note_on_c, 0, 60, 81
2, 180384, Note_on_c, 0, 78, 86
2, 180384, Note_on_c, 0, 55, 78
2, 180384, Note_on_c, 0, 74, 83
2, 180386, Note_on_c, 0, 48, 75
2, 180415, Note_on_c, 0, 60, 0
2, 180456, Control_c, 0, 64, 127
2, 180526, Note_on_c, 0, 55, 0
2, 180530, Note_on_c, 0, 60, 75
2, 180531, Note_on_c, 0, 55, 72
2, 180634, Note_on_c, 0, 84, 103
2, 180639, Note_on_c, 0, 72, 84
2, 180648, Note_on_c, 0, 72, 0
2, 180687, Note_on_c, 0, 60, 0
2, 180695, Note_on_c, 0, 55, 0
2, 180697, Note_on_c, 0, 60, 84
2, 180699, Note_on_c, 0, 55, 75
2, 180848, Note_on_c, 0, 55, 0
2, 180848, Note_on_c, 0, 60, 0
2, 180852, Note_on_c, 0, 81, 93
2, 180853, Note_on_c, 0, 72, 79
2, 180854, Note_on_c, 0, 60, 77
2, 180856, Note_on_c, 0, 69, 77
2, 180859, Note_on_c, 0, 55, 68
2, 180977, Note_on_c, 0, 48, 0
2, 180977, Control_c, 0, 64, 0
2, 180977, Note_on_c, 0, 69, 0
2, 180978, Note_on_c, 0, 84, 0
2, 180978, Note_on_c, 0, 60, 0
2, 180978, Note_on_c, 0, 78, 0
2, 180978, Note_on_c, 0, 81, 0
2, 180978, Note_on_c, 0, 72, 0
2, 180979, Note_on_c, 0, 55, 0
2, 180986, Note_on_c, 0, 86, 0
2, 180994, Note_on_c, 0, 74, 0
2, 181018, Note_on_c, 0, 62, 86
2, 181023, Note_on_c, 0, 83, 102
2, 181025, Note_on_c, 0, 57, 69
2, 181028, Note_on_c, 0, 71, 87
2, 181029, Note_on_c, 0, 78, 90
2, 181029, Note_on_c, 0, 50, 80
2, 181094, Control_c, 0, 64, 127
2, 181136, Control_c, 0, 64, 0
2, 181224, Note_on_c, 0, 62, 0
2, 181240, Note_on_c, 0, 57, 0
2, 181263, Note_on_c, 0, 50, 0
2, 181267, Note_on_c, 0, 38, 88
2, 181269, Note_on_c, 0, 50, 79
2, 181294, Control_c, 0, 64, 127
2, 181355, Control_c, 0, 64, 0
2, 181501, Note_on_c, 0, 38, 0
2, 181501, Note_on_c, 0, 50, 0
2, 181506, Note_on_c, 0, 50, 92
2, 181507, Note_on_c, 0, 38, 89
2, 181539, Control_c, 0, 64, 127
2, 181670, Note_on_c, 0, 38, 0
2, 181678, Note_on_c, 0, 38, 58
2, 181816, Note_on_c, 0, 50, 0
2, 181823, Note_on_c, 0, 50, 66
2, 181891, Note_on_c, 0, 54, 69
2, 181944, Note_on_c, 0, 59, 79
2, 182020, Note_on_c, 0, 62, 73
2, 182084, Note_on_c, 0, 66, 84
2, 182169, Note_on_c, 0, 71, 0
2, 182173, Note_on_c, 0, 71, 76
2, 182211, Note_on_c, 0, 50, 0
2, 182211, Note_on_c, 0, 62, 0
2, 182212, Note_on_c, 0, 54, 0
2, 182212, Note_on_c, 0, 59, 0
2, 182213, Note_on_c, 0, 38, 0
2, 182214, Note_on_c, 0, 66, 0
2, 182215, Note_on_c, 0, 78, 0
2, 182215, Note_on_c, 0, 83, 0
2, 182217, Control_c, 0, 64, 0
2, 182261, Note_on_c, 0, 71, 0
2, 182271, Note_on_c, 0, 52, 75
2, 182271, Note_on_c, 0, 83, 100
2, 182273, Note_on_c, 0, 79, 88
2, 182273, Note_on_c, 0, 76, 91
2, 182307, Control_c, 0, 64, 127
2, 182349, Note_on_c, 0, 59, 66
2, 182407, Note_on_c, 0, 52, 0
2, 182418, Note_on_c, 0, 52, 71
2, 182419, Note_on_c, 0, 64, 75
2, 182517, Note_on_c, 0, 66, 76
2, 182587, Note_on_c, 0, 67, 65
2, 182661, Note_on_c, 0, 64, 0
2, 182672, Note_on_c, 0, 64, 67
2, 182753, Note_on_c, 0, 67, 0
2, 182757, Note_on_c, 0, 67, 60
2, 182832, Note_on_c, 0, 71, 71
2, 182914, Note_on_c, 0, 76, 0
2, 182919, Note_on_c, 0, 81, 98
2, 182922, Note_on_c, 0, 76, 85
2, 182929, Note_on_c, 0, 71, 0
2, 182936, Note_on_c, 0, 71, 60
2, 183172, Note_on_c, 0, 86, 97
2, 183183, Note_on_c, 0, 71, 0
2, 183193, Note_on_c, 0, 71, 48
2, 183321, Note_on_c, 0, 67, 0
2, 183326, Note_on_c, 0, 67, 26
2, 183412, Note_on_c, 0, 84, 99
2, 183413, Note_on_c, 0, 76, 0
2, 183425, Note_on_c, 0, 76, 54
2, 183549, Control_c, 0, 64, 0
2, 183549, Note_on_c, 0, 81, 0
2, 183549, Note_on_c, 0, 66, 0
2, 183550, Note_on_c, 0, 71, 0
2, 183550, Note_on_c, 0, 52, 0
2, 183550, Note_on_c, 0, 59, 0
2, 183550, Note_on_c, 0, 86, 0
2, 183550, Note_on_c, 0, 67, 0
2, 183553, Note_on_c, 0, 84, 0
2, 183559, Note_on_c, 0, 83, 0
2, 183567, Note_on_c, 0, 64, 0
2, 183567, Note_on_c, 0, 76, 0
2, 183567, Note_on_c, 0, 79, 0
2, 183569, Note_on_c, 0, 83, 96
2, 183575, Note_on_c, 0, 48, 67
2, 183576, Note_on_c, 0, 79, 88
2, 183578, Note_on_c, 0, 76, 86
2, 183628, Control_c, 0, 64, 127
2, 183656, Note_on_c, 0, 55, 68
2, 183716, Note_on_c, 0, 60, 73
2, 183801, Note_on_c, 0, 62, 75
2, 183885, Note_on_c, 0, 64, 62
2, 183943, Note_on_c, 0, 60, 0
2, 183947, Note_on_c, 0, 60, 73
2, 184012, Note_on_c, 0, 64, 0
2, 184017, Note_on_c, 0, 64, 62
2, 184110, Note_on_c, 0, 67, 64
2, 184197, Note_on_c, 0, 72, 82
2, 184199, Note_on_c, 0, 81, 97
2, 184454, Note_on_c, 0, 86, 101
2, 184702, Note_on_c, 0, 84, 96
2, 184839, Note_on_c, 0, 81, 0
2, 184839, Note_on_c, 0, 76, 0
2, 184840, Note_on_c, 0, 67, 0
2, 184840, Note_on_c, 0, 62, 0
2, 184840, Note_on_c, 0, 72, 0
2, 184840, Note_on_c, 0, 60, 0
2, 184840, Note_on_c, 0, 48, 0
2, 184842, Note_on_c, 0, 83, 0
2, 184842, Note_on_c, 0, 84, 0
2, 184843, Note_on_c, 0, 55, 0
2, 184843, Note_on_c, 0, 86, 0
2, 184843, Control_c, 0, 64, 0
2, 184849, Note_on_c, 0, 64, 0
2, 184849, Note_on_c, 0, 79, 0
2, 184852, Note_on_c, 0, 83, 98
2, 184853, Note_on_c, 0, 43, 72
2, 184853, Note_on_c, 0, 79, 91
2, 184855, Note_on_c, 0, 74, 83
2, 184926, Control_c, 0, 64, 127
2, 184936, Note_on_c, 0, 50, 64
2, 184998, Note_on_c, 0, 55, 75
2, 185093, Note_on_c, 0, 57, 62
2, 185164, Note_on_c, 0, 59, 69
2, 185233, Note_on_c, 0, 55, 0
2, 185238, Note_on_c, 0, 55, 69
2, 185303, Note_on_c, 0, 59, 0
2, 185313, Note_on_c, 0, 59, 69
2, 185405, Note_on_c, 0, 62, 68
2, 185479, Note_on_c, 0, 79, 0
2, 185484, Note_on_c, 0, 67, 76
2, 185488, Note_on_c, 0, 79, 97
2, 185737, Note_on_c, 0, 81, 96
2, 185971, Note_on_c, 0, 83, 0
2, 185981, Note_on_c, 0, 83, 89
2, 186024, Note_on_c, 0, 62, 0
2, 186032, Note_on_c, 0, 62, 43
2, 186103, Note_on_c, 0, 74, 0
2, 186103, Note_on_c, 0, 62, 0
2, 186103, Note_on_c, 0, 59, 0
2, 186103, Note_on_c, 0, 67, 0
2, 186104, Note_on_c, 0, 50, 0
2, 186104, Control_c, 0, 64, 0
2, 186104, Note_on_c, 0, 81, 0
2, 186104, Note_on_c, 0, 55, 0
2, 186104, Note_on_c, 0, 57, 0
2, 186104, Note_on_c, 0, 79, 0
2, 186106, Note_on_c, 0, 43, 0
2, 186117, Note_on_c, 0, 83, 0
2, 186122, Note_on_c, 0, 83, 93
2, 186129, Note_on_c, 0, 45, 69
2, 186134, Note_on_c, 0, 73, 87
2, 186135, Note_on_c, 0, 76, 83
2, 186178, Control_c, 0, 64, 127
2, 186188, Note_on_c, 0, 52, 69
2, 186256, Note_on_c, 0, 57, 71
2, 186356, Note_on_c, 0, 59, 73
2, 186372, Note_on_c, 0, 81, 90
2, 186429, Note_on_c, 0, 61, 68
2, 186508, Note_on_c, 0, 57, 0
2, 186513, Note_on_c, 0, 57, 65
2, 186600, Note_on_c, 0, 61, 0
2, 186607, Note_on_c, 0, 61, 66
2, 186608, Note_on_c, 0, 76, 0
2, 186613, Note_on_c, 0, 76, 89
2, 186616, Note_on_c, 0, 73, 0
2, 186627, Note_on_c, 0, 73, 79
2, 186688, Note_on_c, 0, 64, 62
2, 186781, Note_on_c, 0, 69, 71
2, 187048, Control_c, 0, 64, 0
2, 187049, Note_on_c, 0, 52, 0
2, 187049, Note_on_c, 0, 57, 0
2, 187049, Note_on_c, 0, 61, 0
2, 187049, Note_on_c, 0, 59, 0
2, 187050, Note_on_c, 0, 64, 0
2, 187061, Note_on_c, 0, 83, 0
2, 187084, Note_on_c, 0, 45, 0
2, 187091, Note_on_c, 0, 45, 65
2, 187123, Control_c, 0, 64, 127
2, 187249, Note_on_c, 0, 78, 85
2, 187317, Note_on_c, 0, 79, 86
2, 187384, Note_on_c, 0, 73, 0
2, 187388, Control_c, 0, 64, 0
2, 187392, Note_on_c, 0, 81, 0
2, 187394, Note_on_c, 0, 45, 0
2, 187395, Note_on_c, 0, 78, 0
2, 187397, Note_on_c, 0, 79, 0
2, 187398, Note_on_c, 0, 81, 94
2, 187399, Note_on_c, 0, 48, 64
2, 187399, Note_on_c, 0, 76, 0
2, 187404, Note_on_c, 0, 76, 80
2, 187409, Note_on_c, 0, 72, 76
2, 187461, Control_c, 0, 64, 127
2, 187474, Note_on_c, 0, 55, 70
2, 187542, Note_on_c, 0, 60, 72
2, 187642, Note_on_c, 0, 62, 65
2, 187734, Note_on_c, 0, 64, 69
2, 187882, Note_on_c, 0, 79, 89
2, 187969, Note_on_c, 0, 78, 85
2, 188037, Note_on_c, 0, 72, 0
2, 188042, Note_on_c, 0, 74, 92
2, 188046, Note_on_c, 0, 72, 69
2, 188103, Note_on_c, 0, 67, 63
2, 188152, Note_on_c, 0, 64, 0
2, 188156, Note_on_c, 0, 64, 71
2, 188244, Note_on_c, 0, 60, 0
2, 188255, Note_on_c, 0, 60, 73
2, 188359, Note_on_c, 0, 48, 0
2, 188367, Note_on_c, 0, 48, 65
2, 188513, Note_on_c, 0, 55, 0
2, 188513, Note_on_c, 0, 79, 0
2, 188522, Note_on_c, 0, 79, 89
2, 188523, Note_on_c, 0, 55, 43
2, 188597, Note_on_c, 0, 81, 0
2, 188602, Note_on_c, 0, 81, 83
2, 188639, Control_c, 0, 64, 0
2, 188639, Note_on_c, 0, 62, 0
2, 188640, Note_on_c, 0, 67, 0
2, 188640, Note_on_c, 0, 74, 0
2, 188640, Note_on_c, 0, 78, 0
2, 188640, Note_on_c, 0, 64, 0
2, 188640, Note_on_c, 0, 76, 0
2, 188640, Note_on_c, 0, 60, 0
2, 188641, Note_on_c, 0, 55, 0
2, 188641, Note_on_c, 0, 48, 0
2, 188642, Note_on_c, 0, 72, 0
2, 188642, Note_on_c, 0, 81, 0
2, 188651, Note_on_c, 0, 69, 0
2, 188674, Note_on_c, 0, 79, 0
2, 188675, Note_on_c, 0, 84, 104
2, 188679, Note_on_c, 0, 74, 91
2, 188684, Note_on_c, 0, 43, 74
2, 188684, Note_on_c, 0, 79, 85
2, 188736, Control_c, 0, 64, 127
2, 188751, Note_on_c, 0, 50, 68
2, 188811, Note_on_c, 0, 55, 72
2, 188905, Note_on_c, 0, 57, 65
2, 188984, Note_on_c, 0, 59, 75
2, 189154, Note_on_c, 0, 83, 95
2, 189222, Note_on_c, 0, 81, 87
2, 189294, Note_on_c, 0, 67, 76
2, 189296, Note_on_c, 0, 74, 0
2, 189296, Note_on_c, 0, 79, 0
2, 189296, Note_on_c, 0, 83, 0
2, 189300, Note_on_c, 0, 83, 97
2, 189301, Note_on_c, 0, 74, 86
2, 189308, Note_on_c, 0, 79, 82
2, 189330, Note_on_c, 0, 62, 66
2, 189404, Note_on_c, 0, 59, 0
2, 189412, Note_on_c, 0, 59, 72
2, 189488, Note_on_c, 0, 55, 0
2, 189493, Note_on_c, 0, 55, 46
2, 189611, Note_on_c, 0, 43, 0
2, 189617, Note_on_c, 0, 43, 72
2, 189772, Note_on_c, 0, 83, 0
2, 189779, Note_on_c, 0, 83, 94
2, 189876, Note_on_c, 0, 74, 0
2, 189877, Note_on_c, 0, 57, 0
2, 189877, Note_on_c, 0, 50, 0
2, 189877, Note_on_c, 0, 43, 0
2, 189877, Note_on_c, 0, 62, 0
2, 189877, Note_on_c, 0, 59, 0
2, 189878, Note_on_c, 0, 55, 0
2, 189878, Note_on_c, 0, 84, 0
2, 189879, Note_on_c, 0, 81, 0
2, 189883, Control_c, 0, 64, 0
2, 189888, Note_on_c, 0, 67, 0
2, 189895, Note_on_c, 0, 79, 0
2, 189911, Note_on_c, 0, 83, 0
2, 189920, Note_on_c, 0, 83, 99
2, 189920, Note_on_c, 0, 45, 77
2, 189923, Note_on_c, 0, 72, 81
2, 189924, Note_on_c, 0, 76, 88
2, 189949, Control_c, 0, 64, 127
2, 189994, Note_on_c, 0, 52, 61
2, 190060, Note_on_c, 0, 57, 66
2, 190160, Note_on_c, 0, 81, 90
2, 190164, Note_on_c, 0, 60, 74
2, 190254, Note_on_c, 0, 64, 81
2, 190394, Note_on_c, 0, 76, 0
2, 190402, Note_on_c, 0, 76, 96
2, 190511, Note_on_c, 0, 52, 0
2, 190511, Note_on_c, 0, 57, 0
2, 190511, Note_on_c, 0, 64, 0
2, 190511, Note_on_c, 0, 83, 0
2, 190511, Note_on_c, 0, 81, 0
2, 190512, Note_on_c, 0, 72, 0
2, 190512, Note_on_c, 0, 60, 0
2, 190512, Control_c, 0, 64, 0
2, 190525, Note_on_c, 0, 45, 0
2, 190553, Note_on_c, 0, 46, 69
2, 190625, Control_c, 0, 64, 127
2, 190628, Note_on_c, 0, 54, 64
2, 190687, Note_on_c, 0, 58, 77
2, 190725, Note_on_c, 0, 76, 0
2, 190730, Control_c, 0, 64, 0
2, 190731, Note_on_c, 0, 76, 86
2, 190778, Control_c, 0, 64, 127
2, 190797, Note_on_c, 0, 61, 69
2, 190871, Note_on_c, 0, 66, 88
2, 190874, Note_on_c, 0, 78, 99
2, 190940, Note_on_c, 0, 58, 0
2, 190947, Note_on_c, 0, 58, 56
2, 191021, Note_on_c, 0, 79, 90
2, 191105, Note_on_c, 0, 78, 0
2, 191105, Note_on_c, 0, 58, 0
2, 191105, Note_on_c, 0, 66, 0
2, 191106, Note_on_c, 0, 76, 0
2, 191106, Note_on_c, 0, 54, 0
2, 191106, Note_on_c, 0, 61, 0
2, 191107, Note_on_c, 0, 79, 0
2, 191113, Control_c, 0, 64, 0
2, 191116, Note_on_c, 0, 46, 0
2, 191165, Note_on_c, 0, 47, 74
2, 191166, Note_on_c, 0, 79, 94
2, 191169, Note_on_c, 0, 71, 85
2, 191171, Note_on_c, 0, 75, 88
2, 191208, Control_c, 0, 64, 127
2, 191235, Note_on_c, 0, 54, 65
2, 191303, Note_on_c, 0, 59, 76
2, 191397, Note_on_c, 0, 61, 66
2, 191467, Note_on_c, 0, 63, 73
2, 191539, Note_on_c, 0, 59, 0
2, 191550, Note_on_c, 0, 59, 74
2, 191562, Note_on_c, 0, 47, 0
2, 191616, Note_on_c, 0, 63, 0
2, 191623, Note_on_c, 0, 75, 0
2, 191625, Note_on_c, 0, 63, 76
2, 191628, Note_on_c, 0, 78, 93
2, 191628, Note_on_c, 0, 75, 77
2, 191697, Note_on_c, 0, 66, 87
2, 191782, Note_on_c, 0, 84, 104
2, 191784, Note_on_c, 0, 59, 0
2, 191784, Note_on_c, 0, 75, 0
2, 191784, Note_on_c, 0, 78, 0
2, 191793, Note_on_c, 0, 78, 92
2, 191795, Note_on_c, 0, 59, 65
2, 191795, Note_on_c, 0, 75, 95
2, 191877, Note_on_c, 0, 63, 0
2, 191882, Note_on_c, 0, 63, 83
2, 191961, Note_on_c, 0, 59, 0
2, 191971, Note_on_c, 0, 59, 61
2, 192053, Note_on_c, 0, 54, 0
2, 192061, Note_on_c, 0, 54, 57
2, 192092, Note_on_c, 0, 75, 0
2, 192092, Note_on_c, 0, 78, 0
2, 192095, Note_on_c, 0, 83, 102
2, 192097, Note_on_c, 0, 78, 97
2, 192099, Note_on_c, 0, 75, 91
2, 192217, Note_on_c, 0, 47, 58
2, 192296, Note_on_c, 0, 51, 48
2, 192430, Note_on_c, 0, 47, 0
2, 192430, Note_on_c, 0, 59, 0
2, 192432, Control_c, 0, 64, 0
2, 192434, Note_on_c, 0, 59, 93
2, 192440, Note_on_c, 0, 47, 91
2, 192441, Note_on_c, 0, 55, 93
2, 192441, Note_on_c, 0, 40, 97
2, 192441, Note_on_c, 0, 63, 0
2, 192442, Note_on_c, 0, 71, 0
2, 192442, Note_on_c, 0, 52, 96
2, 192442, Note_on_c, 0, 79, 0
2, 192442, Note_on_c, 0, 83, 0
2, 192443, Note_on_c, 0, 75, 0
2, 192443, Note_on_c, 0, 66, 0
2, 192444, Note_on_c, 0, 84, 0
2, 192444, Note_on_c, 0, 78, 0
2, 192445, Note_on_c, 0, 51, 0
2, 192453, Note_on_c, 0, 61, 0
2, 192468, Note_on_c, 0, 54, 0
2, 192522, Control_c, 0, 64, 127
2, 192545, Note_on_c, 0, 47, 0
2, 192545, Note_on_c, 0, 59, 0
2, 192549, Note_on_c, 0, 47, 73
2, 192549, Note_on_c, 0, 59, 66
2, 192615, Note_on_c, 0, 64, 74
2, 192686, Note_on_c, 0, 67, 88
2, 192787, Note_on_c, 0, 71, 78
2, 192855, Note_on_c, 0, 76, 87
2, 192912, Note_on_c, 0, 79, 87
2, 193011, Note_on_c, 0, 83, 77
2, 193062, Note_on_c, 0, 69, 85
2, 193066, Note_on_c, 0, 57, 90
2, 193084, Note_on_c, 0, 95, 98
2, 193171, Note_on_c, 0, 91, 91
2, 193241, Note_on_c, 0, 88, 76
2, 193267, Note_on_c, 0, 83, 0
2, 193276, Note_on_c, 0, 83, 75
2, 193302, Note_on_c, 0, 62, 101
2, 193344, Note_on_c, 0, 79, 0
2, 193349, Note_on_c, 0, 79, 84
2, 193428, Note_on_c, 0, 57, 0
2, 193436, Note_on_c, 0, 76, 0
2, 193439, Note_on_c, 0, 57, 69
2, 193440, Note_on_c, 0, 76, 77
2, 193483, Note_on_c, 0, 74, 57
2, 193522, Note_on_c, 0, 72, 76
2, 193522, Note_on_c, 0, 60, 86
2, 193574, Note_on_c, 0, 67, 0
2, 193582, Note_on_c, 0, 67, 78
2, 193681, Note_on_c, 0, 59, 0
2, 193693, Note_on_c, 0, 59, 93
2, 193694, Control_c, 0, 64, 0
2, 193695, Note_on_c, 0, 64, 0
2, 193695, Note_on_c, 0, 76, 0
2, 193696, Note_on_c, 0, 67, 0
2, 193696, Note_on_c, 0, 88, 0
2, 193696, Note_on_c, 0, 83, 0
2, 193696, Note_on_c, 0, 79, 0
2, 193696, Note_on_c, 0, 91, 0
2, 193697, Note_on_c, 0, 52, 0
2, 193697, Note_on_c, 0, 40, 0
2, 193698, Note_on_c, 0, 95, 0
2, 193698, Note_on_c, 0, 60, 0
2, 193698, Note_on_c, 0, 55, 0
2, 193698, Note_on_c, 0, 57, 0
2, 193699, Note_on_c, 0, 47, 0
2, 193706, Note_on_c, 0, 54, 85
2, 193708, Note_on_c, 0, 50, 72
2, 193709, Note_on_c, 0, 42, 87
2, 193712, Note_on_c, 0, 72, 0
2, 193712, Note_on_c, 0, 74, 0
2, 193720, Note_on_c, 0, 62, 0
2, 193720, Note_on_c, 0, 69, 0
2, 193797, Control_c, 0, 64, 127
2, 193846, Note_on_c, 0, 62, 81
2, 193921, Note_on_c, 0, 66, 76
2, 194010, Note_on_c, 0, 69, 72
2, 194079, Note_on_c, 0, 74, 83
2, 194142, Note_on_c, 0, 78, 82
2, 194234, Note_on_c, 0, 81, 85
2, 194310, Note_on_c, 0, 93, 98
2, 194311, Note_on_c, 0, 69, 0
2, 194312, Note_on_c, 0, 57, 84
2, 194319, Note_on_c, 0, 59, 0
2, 194321, Note_on_c, 0, 69, 78
2, 194330, Note_on_c, 0, 59, 71
2, 194393, Note_on_c, 0, 90, 79
2, 194461, Note_on_c, 0, 86, 71
2, 194503, Note_on_c, 0, 81, 0
2, 194508, Note_on_c, 0, 81, 76
2, 194534, Note_on_c, 0, 62, 0
2, 194542, Note_on_c, 0, 62, 93
2, 194572, Note_on_c, 0, 78, 0
2, 194579, Note_on_c, 0, 78, 88
2, 194611, Note_on_c, 0, 69, 0
2, 194617, Note_on_c, 0, 69, 51
2, 194649, Note_on_c, 0, 74, 0
2, 194653, Note_on_c, 0, 74, 82
2, 194711, Note_on_c, 0, 69, 0
2, 194720, Note_on_c, 0, 69, 44
2, 194767, Note_on_c, 0, 60, 87
2, 194803, Note_on_c, 0, 66, 0
2, 194807, Note_on_c, 0, 66, 88
2, 194933, Note_on_c, 0, 59, 0
2, 194933, Note_on_c, 0, 42, 0
2, 194934, Note_on_c, 0, 86, 0
2, 194934, Control_c, 0, 64, 0
2, 194934, Note_on_c, 0, 69, 0
2, 194935, Note_on_c, 0, 57, 0
2, 194935, Note_on_c, 0, 54, 0
2, 194935, Note_on_c, 0, 93, 0
2, 194935, Note_on_c, 0, 81, 0
2, 194935, Note_on_c, 0, 90, 0
2, 194935, Note_on_c, 0, 66, 0
2, 194936, Note_on_c, 0, 60, 0
2, 194936, Note_on_c, 0, 74, 0
2, 194936, Note_on_c, 0, 78, 0
2, 194943, Note_on_c, 0, 59, 99
2, 194946, Note_on_c, 0, 31, 86
2, 194947, Note_on_c, 0, 55, 95
2, 194948, Note_on_c, 0, 43, 86
2, 194949, Note_on_c, 0, 71, 0
2, 194956, Note_on_c, 0, 31, 0
2, 194956, Note_on_c, 0, 62, 0
2, 195048, Control_c, 0, 64, 127
2, 195101, Note_on_c, 0, 62, 85
2, 195184, Note_on_c, 0, 67, 78
2, 195268, Note_on_c, 0, 71, 80
2, 195323, Note_on_c, 0, 74, 78
2, 195380, Note_on_c, 0, 79, 79
2, 195394, Note_on_c, 0, 71, 0
2, 195399, Note_on_c, 0, 71, 61
2, 195474, Note_on_c, 0, 83, 84
2, 195571, Note_on_c, 0, 59, 0
2, 195574, Note_on_c, 0, 95, 91
2, 195578, Note_on_c, 0, 59, 97
2, 195652, Note_on_c, 0, 91, 82
2, 195743, Note_on_c, 0, 86, 71
2, 195763, Note_on_c, 0, 83, 0
2, 195771, Note_on_c, 0, 83, 74
2, 195805, Note_on_c, 0, 64, 95
2, 195840, Note_on_c, 0, 79, 0
2, 195844, Note_on_c, 0, 79, 76
2, 195924, Note_on_c, 0, 74, 0
2, 195933, Note_on_c, 0, 74, 77
2, 196024, Note_on_c, 0, 59, 0
2, 196030, Note_on_c, 0, 59, 86
2, 196039, Note_on_c, 0, 67, 0
2, 196050, Note_on_c, 0, 67, 80
2, 196166, Note_on_c, 0, 86, 0
2, 196166, Note_on_c, 0, 71, 0
2, 196166, Note_on_c, 0, 74, 0
2, 196166, Note_on_c, 0, 67, 0
2, 196166, Note_on_c, 0, 59, 0
2, 196167, Note_on_c, 0, 91, 0
2, 196167, Note_on_c, 0, 55, 0
2, 196167, Note_on_c, 0, 79, 0
2, 196167, Note_on_c, 0, 64, 0
2, 196167, Control_c, 0, 64, 0
2, 196169, Note_on_c, 0, 43, 0
2, 196177, Note_on_c, 0, 50, 0
2, 196177, Note_on_c, 0, 95, 0
2, 196185, Note_on_c, 0, 62, 0
2, 196185, Note_on_c, 0, 83, 0
2, 196192, Note_on_c, 0, 62, 98
2, 196200, Note_on_c, 0, 57, 92
2, 196201, Note_on_c, 0, 52, 84
2, 196201, Note_on_c, 0, 45, 86
2, 196247, Control_c, 0, 64, 127
2, 196285, Note_on_c, 0, 62, 0
2, 196304, Note_on_c, 0, 64, 82
2, 196413, Note_on_c, 0, 69, 75
2, 196417, Note_on_c, 0, 61, 92
2, 196488, Note_on_c, 0, 73, 80
2, 196495, Note_on_c, 0, 62, 57
2, 196566, Note_on_c, 0, 76, 80
2, 196659, Note_on_c, 0, 81, 91
2, 196661, Note_on_c, 0, 57, 0
2, 196666, Note_on_c, 0, 57, 83
2, 196739, Note_on_c, 0, 85, 89
2, 196812, Note_on_c, 0, 93, 100
2, 196888, Note_on_c, 0, 88, 79
2, 196945, Note_on_c, 0, 85, 0
2, 196956, Note_on_c, 0, 85, 79
2, 196999, Note_on_c, 0, 81, 0
2, 197009, Note_on_c, 0, 81, 78
2, 197091, Note_on_c, 0, 76, 0
2, 197099, Note_on_c, 0, 76, 66
2, 197176, Note_on_c, 0, 61, 0
2, 197176, Note_on_c, 0, 73, 0
2, 197180, Note_on_c, 0, 73, 65
2, 197181, Note_on_c, 0, 61, 51
2, 197222, Note_on_c, 0, 69, 0
2, 197229, Note_on_c, 0, 69, 35
2, 197235, Note_on_c, 0, 57, 0
2, 197237, Note_on_c, 0, 52, 0
2, 197245, Note_on_c, 0, 52, 55
2, 197299, Note_on_c, 0, 69, 0
2, 197305, Note_on_c, 0, 54, 72
2, 197310, Note_on_c, 0, 69, 53
2, 197375, Control_c, 0, 64, 0
2, 197380, Note_on_c, 0, 81, 0
2, 197380, Note_on_c, 0, 69, 0
2, 197380, Note_on_c, 0, 85, 0
2, 197380, Note_on_c, 0, 73, 0
2, 197381, Note_on_c, 0, 88, 0
2, 197381, Note_on_c, 0, 93, 0
2, 197381, Note_on_c, 0, 76, 0
2, 197381, Note_on_c, 0, 64, 0
2, 197381, Note_on_c, 0, 54, 0
2, 197391, Note_on_c, 0, 45, 0
2, 197391, Note_on_c, 0, 62, 0
2, 197399, Note_on_c, 0, 61, 0
2, 197405, Note_on_c, 0, 79, 91
2, 197414, Note_on_c, 0, 52, 0
2, 197417, Note_on_c, 0, 55, 81
2, 197417, Note_on_c, 0, 48, 64
2, 197422, Note_on_c, 0, 52, 67
2, 197452, Control_c, 0, 64, 127
2, 197478, Note_on_c, 0, 67, 66
2, 197565, Note_on_c, 0, 72, 73
2, 197627, Note_on_c, 0, 76, 90
2, 197637, Note_on_c, 0, 52, 0
2, 197647, Note_on_c, 0, 52, 70
2, 197706, Note_on_c, 0, 67, 0
2, 197713, Note_on_c, 0, 67, 69
2, 197783, Note_on_c, 0, 52, 0
2, 197790, Note_on_c, 0, 72, 0
2, 197794, Note_on_c, 0, 52, 54
2, 197796, Note_on_c, 0, 72, 67
2, 197869, Control_c, 0, 64, 0
2, 197869, Note_on_c, 0, 83, 96
2, 197875, Note_on_c, 0, 52, 0
2, 197885, Note_on_c, 0, 52, 72
2, 197886, Note_on_c, 0, 59, 80
2, 197936, Control_c, 0, 64, 127
2, 197959, Note_on_c, 0, 67, 0
2, 197959, Note_on_c, 0, 79, 0
2, 197965, Note_on_c, 0, 79, 66
2, 197968, Note_on_c, 0, 67, 71
2, 198044, Note_on_c, 0, 72, 0
2, 198048, Note_on_c, 0, 72, 71
2, 198113, Note_on_c, 0, 76, 0
2, 198122, Note_on_c, 0, 76, 70
2, 198190, Note_on_c, 0, 72, 0
2, 198193, Note_on_c, 0, 81, 81
2, 198198, Note_on_c, 0, 72, 79
2, 198243, Note_on_c, 0, 67, 0
2, 198254, Note_on_c, 0, 67, 69
2, 198312, Note_on_c, 0, 76, 0
2, 198315, Note_on_c, 0, 64, 74
2, 198317, Note_on_c, 0, 76, 65
2, 198351, Note_on_c, 0, 81, 0
2, 198361, Note_on_c, 0, 81, 91
2, 198408, Note_on_c, 0, 60, 73
2, 198489, Note_on_c, 0, 83, 0
2, 198497, Note_on_c, 0, 55, 0
2, 198501, Note_on_c, 0, 83, 92
2, 198507, Note_on_c, 0, 55, 56
2, 198528, Note_on_c, 0, 52, 0
2, 198537, Note_on_c, 0, 52, 63
2, 198612, Note_on_c, 0, 52, 0
2, 198613, Note_on_c, 0, 64, 0
2, 198613, Note_on_c, 0, 48, 0
2, 198613, Note_on_c, 0, 67, 0
2, 198613, Note_on_c, 0, 60, 0
2, 198613, Control_c, 0, 64, 0
2, 198614, Note_on_c, 0, 79, 0
2, 198614, Note_on_c, 0, 76, 0
2, 198614, Note_on_c, 0, 55, 0
2, 198627, Note_on_c, 0, 59, 0
2, 198627, Note_on_c, 0, 83, 0
2, 198635, Note_on_c, 0, 72, 0
2, 198635, Note_on_c, 0, 81, 0
2, 198645, Note_on_c, 0, 81, 95
2, 198651, Note_on_c, 0, 50, 71
2, 198654, Note_on_c, 0, 47, 74
2, 198681, Control_c, 0, 64, 127
2, 198741, Note_on_c, 0, 67, 65
2, 198742, Note_on_c, 0, 48, 61
2, 198742, Note_on_c, 0, 79, 64
2, 198750, Note_on_c, 0, 48, 0
2, 198827, Note_on_c, 0, 50, 0
2, 198832, Note_on_c, 0, 74, 69
2, 198833, Note_on_c, 0, 50, 54
2, 198865, Note_on_c, 0, 79, 0
2, 198875, Note_on_c, 0, 79, 92
2, 198878, Note_on_c, 0, 55, 63
2, 198958, Note_on_c, 0, 67, 0
2, 198963, Note_on_c, 0, 67, 84
2, 199042, Note_on_c, 0, 47, 0
2, 199042, Note_on_c, 0, 74, 0
2, 199046, Note_on_c, 0, 74, 76
2, 199047, Note_on_c, 0, 47, 41
2, 199078, Note_on_c, 0, 81, 0
2, 199082, Control_c, 0, 64, 0
2, 199104, Note_on_c, 0, 79, 0
2, 199111, Note_on_c, 0, 50, 0
2, 199111, Note_on_c, 0, 55, 0
2, 199113, Note_on_c, 0, 79, 88
2, 199115, Note_on_c, 0, 50, 72
2, 199117, Note_on_c, 0, 55, 76
2, 199142, Control_c, 0, 64, 127
2, 199188, Note_on_c, 0, 50, 0
2, 199198, Note_on_c, 0, 50, 61
2, 199275, Note_on_c, 0, 71, 68
2, 199319, Note_on_c, 0, 74, 0
2, 199324, Note_on_c, 0, 74, 74
2, 199403, Note_on_c, 0, 71, 0
2, 199403, Note_on_c, 0, 79, 0
2, 199408, Note_on_c, 0, 79, 92
2, 199414, Note_on_c, 0, 71, 76
2, 199457, Note_on_c, 0, 55, 0
2, 199461, Note_on_c, 0, 55, 55
2, 199464, Note_on_c, 0, 67, 0
2, 199470, Note_on_c, 0, 67, 61
2, 199543, Note_on_c, 0, 62, 74
2, 199603, Note_on_c, 0, 50, 0
2, 199608, Note_on_c, 0, 50, 36
2, 199651, Note_on_c, 0, 59, 68
2, 199710, Note_on_c, 0, 55, 0
2, 199721, Note_on_c, 0, 55, 56
2, 199722, Note_on_c, 0, 78, 89
2, 199863, Control_c, 0, 64, 0
2, 199864, Note_on_c, 0, 55, 0
2, 199864, Note_on_c, 0, 79, 0
2, 199864, Note_on_c, 0, 67, 0
2, 199864, Note_on_c, 0, 71, 0
2, 199865, Note_on_c, 0, 50, 0
2, 199866, Note_on_c, 0, 59, 0
2, 199867, Note_on_c, 0, 74, 0
2, 199867, Note_on_c, 0, 78, 0
2, 199868, Note_on_c, 0, 79, 86
2, 199875, Note_on_c, 0, 55, 73
2, 199876, Note_on_c, 0, 52, 75
2, 199879, Note_on_c, 0, 62, 0
2, 199880, Note_on_c, 0, 48, 68
2, 199887, Note_on_c, 0, 47, 0
2, 199893, Note_on_c, 0, 76, 42
2, 199918, Control_c, 0, 64, 127
2, 199974, Note_on_c, 0, 72, 76
2, 200048, Note_on_c, 0, 76, 0
2, 200055, Note_on_c, 0, 76, 76
2, 200102, Note_on_c, 0, 52, 0
2, 200106, Note_on_c, 0, 81, 94
2, 200112, Note_on_c, 0, 57, 76
2, 200113, Note_on_c, 0, 52, 56
2, 200179, Note_on_c, 0, 72, 0
2, 200183, Note_on_c, 0, 72, 77
2, 200263, Note_on_c, 0, 76, 0
2, 200273, Note_on_c, 0, 76, 75
2, 200325, Note_on_c, 0, 79, 0
2, 200327, Note_on_c, 0, 72, 0
2, 200327, Note_on_c, 0, 57, 0
2, 200328, Control_c, 0, 64, 0
2, 200331, Note_on_c, 0, 79, 88
2, 200332, Note_on_c, 0, 48, 0
2, 200332, Note_on_c, 0, 52, 0
2, 200332, Note_on_c, 0, 55, 0
2, 200336, Note_on_c, 0, 52, 75
2, 200337, Note_on_c, 0, 55, 79
2, 200341, Note_on_c, 0, 48, 68
2, 200386, Control_c, 0, 64, 127
2, 200397, Note_on_c, 0, 72, 75
2, 200448, Note_on_c, 0, 76, 0
2, 200457, Note_on_c, 0, 76, 80
2, 200540, Note_on_c, 0, 79, 0
2, 200545, Note_on_c, 0, 79, 81
2, 200637, Note_on_c, 0, 91, 95
2, 200640, Note_on_c, 0, 76, 0
2, 200649, Note_on_c, 0, 76, 80
2, 200670, Note_on_c, 0, 81, 0
2, 200678, Note_on_c, 0, 72, 0
2, 200687, Note_on_c, 0, 72, 65
2, 200729, Note_on_c, 0, 90, 85
2, 200767, Note_on_c, 0, 67, 79
2, 200812, Note_on_c, 0, 86, 76
2, 200843, Note_on_c, 0, 81, 78
2, 200870, Note_on_c, 0, 52, 0
2, 200873, Note_on_c, 0, 64, 67
2, 200875, Note_on_c, 0, 52, 61
2, 200928, Note_on_c, 0, 60, 71
2, 200931, Note_on_c, 0, 78, 79
2, 200970, Note_on_c, 0, 55, 0
2, 200976, Note_on_c, 0, 55, 70
2, 201027, Note_on_c, 0, 74, 74
2, 201072, Note_on_c, 0, 52, 0
2, 201072, Note_on_c, 0, 64, 0
2, 201073, Note_on_c, 0, 81, 0
2, 201073, Note_on_c, 0, 67, 0
2, 201073, Note_on_c, 0, 72, 0
2, 201073, Note_on_c, 0, 60, 0
2, 201073, Note_on_c, 0, 78, 0
2, 201074, Note_on_c, 0, 76, 0
2, 201074, Note_on_c, 0, 91, 0
2, 201074, Note_on_c, 0, 55, 0
2, 201074, Note_on_c, 0, 86, 0
2, 201074, Note_on_c, 0, 74, 0
2, 201074, Note_on_c, 0, 90, 0
2, 201075, Control_c, 0, 64, 0
2, 201076, Note_on_c, 0, 48, 0
2, 201077, Note_on_c, 0, 79, 0
2, 201082, Note_on_c, 0, 50, 72
2, 201086, Note_on_c, 0, 79, 83
2, 201162, Control_c, 0, 64, 127
2, 201164, Note_on_c, 0, 78, 72
2, 201166, Note_on_c, 0, 57, 51
2, 201220, Note_on_c, 0, 74, 75
2, 201226, Note_on_c, 0, 62, 74
2, 201278, Note_on_c, 0, 69, 72
2, 201292, Note_on_c, 0, 64, 71
2, 201351, Note_on_c, 0, 66, 76
2, 201377, Note_on_c, 0, 62, 0
2, 201383, Note_on_c, 0, 62, 75
2, 201423, Note_on_c, 0, 69, 0
2, 201434, Note_on_c, 0, 69, 74
2, 201464, Note_on_c, 0, 60, 53
2, 201469, Note_on_c, 0, 60, 0
2, 201507, Note_on_c, 0, 57, 0
2, 201507, Note_on_c, 0, 74, 0
2, 201515, Note_on_c, 0, 57, 64
2, 201518, Note_on_c, 0, 74, 80
2, 201520, Note_on_c, 0, 54, 61
2, 201620, Note_on_c, 0, 76, 70
2, 201653, Note_on_c, 0, 50, 0
2, 201653, Note_on_c, 0, 78, 0
2, 201660, Note_on_c, 0, 50, 76
2, 201664, Note_on_c, 0, 78, 80
2, 201722, Note_on_c, 0, 81, 86
2, 201811, Note_on_c, 0, 86, 84
2, 201815, Note_on_c, 0, 50, 0
2, 201820, Note_on_c, 0, 50, 57
2, 201823, Note_on_c, 0, 45, 67
2, 201886, Note_on_c, 0, 93, 90
2, 201953, Note_on_c, 0, 98, 96
2, 202091, Note_on_c, 0, 78, 0
2, 202095, Note_on_c, 0, 78, 87
2, 202152, Control_c, 0, 64, 0
2, 202183, Control_c, 0, 64, 127
2, 202228, Note_on_c, 0, 78, 0
2, 202231, Note_on_c, 0, 81, 0
2, 202234, Note_on_c, 0, 45, 0
2, 202237, Note_on_c, 0, 79, 0
2, 202241, Note_on_c, 0, 75, 89
2, 202243, Note_on_c, 0, 47, 94
2, 202245, Note_on_c, 0, 54, 0
2, 202245, Note_on_c, 0, 64, 0
2, 202245, Note_on_c, 0, 93, 0
2, 202245, Note_on_c, 0, 98, 0
2, 202245, Control_c, 0, 64, 0
2, 202248, Note_on_c, 0, 79, 96
2, 202248, Note_on_c, 0, 35, 89
2, 202250, Note_on_c, 0, 71, 91
2, 202252, Note_on_c, 0, 57, 0
2, 202252, Note_on_c, 0, 62, 0
2, 202252, Note_on_c, 0, 66, 0
2, 202252, Note_on_c, 0, 86, 0
2, 202268, Note_on_c, 0, 50, 0
2, 202283, Note_on_c, 0, 69, 0
2, 202314, Note_on_c, 0, 76, 0
2, 202329, Control_c, 0, 64, 127
2, 202481, Note_on_c, 0, 76, 103
2, 202486, Note_on_c, 0, 60, 74
2, 202487, Note_on_c, 0, 64, 79
2, 202489, Note_on_c, 0, 59, 76
2, 202489, Note_on_c, 0, 55, 67
2, 202490, Note_on_c, 0, 48, 71
2, 202490, Note_on_c, 0, 60, 0
2, 202514, Note_on_c, 0, 71, 0
2, 202517, Note_on_c, 0, 74, 0
2, 202517, Note_on_c, 0, 35, 0
2, 202521, Note_on_c, 0, 79, 0
2, 202523, Control_c, 0, 64, 0
2, 202523, Note_on_c, 0, 47, 0
2, 202536, Note_on_c, 0, 64, 0
2, 202552, Note_on_c, 0, 75, 0
2, 202567, Note_on_c, 0, 48, 0
2, 202583, Note_on_c, 0, 76, 0
2, 202598, Note_on_c, 0, 55, 0
2, 202598, Note_on_c, 0, 59, 0
2, 202723, Note_on_c, 0, 83, 105
2, 202725, Note_on_c, 0, 79, 85
2, 202726, Note_on_c, 0, 71, 94
2, 202729, Note_on_c, 0, 76, 91
2, 202730, Note_on_c, 0, 48, 91
2, 202732, Note_on_c, 0, 36, 95
2, 202759, Control_c, 0, 64, 127
2, 203020, Note_on_c, 0, 48, 0
2, 203023, Note_on_c, 0, 81, 98
2, 203024, Note_on_c, 0, 48, 77
2, 203025, Note_on_c, 0, 69, 84
2, 203166, Note_on_c, 0, 69, 0
2, 203166, Note_on_c, 0, 81, 0
2, 203169, Note_on_c, 0, 52, 73
2, 203172, Note_on_c, 0, 60, 75
2, 203174, Note_on_c, 0, 76, 0
2, 203176, Note_on_c, 0, 81, 99
2, 203176, Note_on_c, 0, 69, 93
2, 203176, Note_on_c, 0, 55, 66
2, 203178, Note_on_c, 0, 76, 83
2, 203182, Note_on_c, 0, 55, 0
2, 203210, Note_on_c, 0, 71, 0
2, 203217, Note_on_c, 0, 48, 0
2, 203219, Note_on_c, 0, 79, 0
2, 203220, Note_on_c, 0, 83, 0
2, 203224, Control_c, 0, 64, 0
2, 203243, Note_on_c, 0, 36, 0
2, 203251, Note_on_c, 0, 76, 0
2, 203258, Note_on_c, 0, 52, 0
2, 203266, Note_on_c, 0, 81, 0
2, 203281, Note_on_c, 0, 60, 0
2, 203289, Note_on_c, 0, 69, 0
2, 203325, Note_on_c, 0, 74, 92
2, 203326, Note_on_c, 0, 86, 95
2, 203328, Note_on_c, 0, 88, 87
2, 203353, Note_on_c, 0, 74, 0
2, 203357, Note_on_c, 0, 86, 0
2, 203374, Note_on_c, 0, 88, 0
2, 203462, Note_on_c, 0, 83, 108
2, 203464, Note_on_c, 0, 71, 99
2, 203466, Note_on_c, 0, 38, 96
2, 203466, Note_on_c, 0, 78, 99
2, 203466, Note_on_c, 0, 74, 98
2, 203466, Note_on_c, 0, 50, 94
2, 203504, Control_c, 0, 64, 127
2, 203642, Note_on_c, 0, 38, 0
2, 203642, Note_on_c, 0, 50, 0
2, 203653, Note_on_c, 0, 50, 74
2, 203654, Note_on_c, 0, 38, 74
2, 203673, Note_on_c, 0, 59, 57
2, 203742, Note_on_c, 0, 71, 0
2, 203745, Note_on_c, 0, 62, 76
2, 203746, Note_on_c, 0, 71, 67
2, 203746, Note_on_c, 0, 54, 67
2, 203747, Note_on_c, 0, 66, 78
2, 203804, Note_on_c, 0, 66, 0
2, 203808, Note_on_c, 0, 66, 76
2, 203850, Note_on_c, 0, 62, 0
2, 203857, Note_on_c, 0, 66, 0
2, 203861, Note_on_c, 0, 62, 73
2, 203862, Note_on_c, 0, 66, 61
2, 203865, Note_on_c, 0, 71, 0
2, 203876, Note_on_c, 0, 71, 71
2, 203942, Note_on_c, 0, 71, 0
2, 203942, Note_on_c, 0, 74, 0
2, 203950, Note_on_c, 0, 66, 0
2, 203952, Note_on_c, 0, 74, 82
2, 203953, Note_on_c, 0, 71, 67
2, 203954, Note_on_c, 0, 66, 74
2, 204026, Note_on_c, 0, 78, 0
2, 204037, Note_on_c, 0, 78, 81
2, 204080, Note_on_c, 0, 83, 0
2, 204092, Note_on_c, 0, 83, 97
2, 204096, Note_on_c, 0, 74, 0
2, 204104, Note_on_c, 0, 74, 79
2, 204165, Note_on_c, 0, 71, 0
2, 204165, Note_on_c, 0, 78, 0
2, 204174, Note_on_c, 0, 71, 80
2, 204175, Note_on_c, 0, 78, 90
2, 204241, Note_on_c, 0, 74, 0
2, 204249, Note_on_c, 0, 66, 0
2, 204250, Note_on_c, 0, 74, 89
2, 204255, Note_on_c, 0, 66, 81
2, 204318, Note_on_c, 0, 71, 0
2, 204318, Note_on_c, 0, 78, 0
2, 204327, Note_on_c, 0, 71, 76
2, 204328, Note_on_c, 0, 78, 89
2, 204364, Note_on_c, 0, 74, 0
2, 204373, Note_on_c, 0, 74, 77
2, 204403, Note_on_c, 0, 83, 0
2, 204407, Note_on_c, 0, 83, 92
2, 204456, Note_on_c, 0, 78, 0
2, 204467, Note_on_c, 0, 78, 88
2, 204468, Note_on_c, 0, 86, 90
2, 204526, Note_on_c, 0, 83, 0
2, 204537, Note_on_c, 0, 83, 86
2, 204543, Note_on_c, 0, 89, 68
2, 204618, Note_on_c, 0, 86, 0
2, 204622, Note_on_c, 0, 93, 79
2, 204623, Note_on_c, 0, 86, 80
2, 204624, Note_on_c, 0, 95, 74
2, 204698, Note_on_c, 0, 90, 105
2, 205340, Note_on_c, 0, 50, 0
2, 205340, Note_on_c, 0, 83, 0
2, 205347, Note_on_c, 0, 38, 0
2, 205347, Note_on_c, 0, 71, 0
2, 205349, Note_on_c, 0, 83, 106
2, 205350, Note_on_c, 0, 50, 96
2, 205351, Note_on_c, 0, 71, 100
2, 205352, Note_on_c, 0, 38, 101
2, 205358, Note_on_c, 0, 95, 0
2, 205359, Note_on_c, 0, 90, 0
2, 205359, Note_on_c, 0, 86, 0
2, 205360, Note_on_c, 0, 54, 0
2, 205360, Note_on_c, 0, 66, 0
2, 205361, Control_c, 0, 64, 0
2, 205361, Note_on_c, 0, 59, 0
2, 205363, Note_on_c, 0, 89, 0
2, 205370, Note_on_c, 0, 93, 0
2, 205378, Note_on_c, 0, 78, 0
2, 205386, Note_on_c, 0, 62, 0
2, 205386, Note_on_c, 0, 74, 0
2, 205432, Control_c, 0, 64, 127
2, 205659, Note_on_c, 0, 86, 108
2, 205664, Note_on_c, 0, 74, 107
2, 205670, Note_on_c, 0, 38, 0
2, 205679, Note_on_c, 0, 38, 71
2, 205942, Note_on_c, 0, 38, 0
2, 205942, Note_on_c, 0, 86, 0
2, 205943, Note_on_c, 0, 74, 0
2, 205946, Control_c, 0, 64, 0
2, 205954, Note_on_c, 0, 50, 0
2, 205962, Note_on_c, 0, 83, 0
2, 205967, Note_on_c, 0, 88, 105
2, 205967, Note_on_c, 0, 79, 99
2, 205968, Note_on_c, 0, 76, 110
2, 205969, Note_on_c, 0, 71, 0
2, 205971, Note_on_c, 0, 83, 94
2, 205974, Note_on_c, 0, 40, 97
2, 205975, Note_on_c, 0, 28, 93
2, 206023, Control_c, 0, 64, 127
2, 206123, Note_on_c, 0, 40, 0
2, 206133, Note_on_c, 0, 40, 66
2, 206205, Note_on_c, 0, 78, 96
2, 206211, Note_on_c, 0, 66, 90
2, 206215, Note_on_c, 0, 40, 0
2, 206225, Note_on_c, 0, 40, 78
2, 206372, Note_on_c, 0, 48, 63
2, 206446, Note_on_c, 0, 79, 0
2, 206453, Note_on_c, 0, 79, 99
2, 206453, Note_on_c, 0, 76, 0
2, 206454, Note_on_c, 0, 64, 86
2, 206457, Note_on_c, 0, 76, 91
2, 206458, Note_on_c, 0, 71, 87
2, 206458, Note_on_c, 0, 67, 87
2, 206522, Note_on_c, 0, 48, 0
2, 206531, Note_on_c, 0, 48, 50
2, 206608, Note_on_c, 0, 52, 73
2, 206618, Note_on_c, 0, 59, 69
2, 206707, Note_on_c, 0, 59, 0
2, 206714, Note_on_c, 0, 52, 0
2, 206717, Note_on_c, 0, 59, 75
2, 206725, Note_on_c, 0, 52, 63
2, 206760, Note_on_c, 0, 40, 0
2, 206760, Note_on_c, 0, 76, 0
2, 206769, Note_on_c, 0, 76, 94
2, 206770, Note_on_c, 0, 40, 67
2, 206914, Note_on_c, 0, 88, 0
2, 206922, Note_on_c, 0, 48, 0
2, 206922, Note_on_c, 0, 78, 0
2, 206925, Control_c, 0, 64, 0
2, 206926, Note_on_c, 0, 71, 0
2, 206928, Note_on_c, 0, 59, 0
2, 206929, Note_on_c, 0, 40, 0
2, 206929, Note_on_c, 0, 66, 0
2, 206929, Note_on_c, 0, 83, 0
2, 206931, Note_on_c, 0, 64, 0
2, 206932, Note_on_c, 0, 78, 101
2, 206936, Note_on_c, 0, 40, 81
2, 206939, Note_on_c, 0, 66, 97
2, 206960, Note_on_c, 0, 79, 0
2, 206968, Control_c, 0, 64, 127
2, 207075, Note_on_c, 0, 40, 0
2, 207075, Note_on_c, 0, 67, 0
2, 207083, Note_on_c, 0, 52, 0
2, 207083, Note_on_c, 0, 79, 97
2, 207087, Note_on_c, 0, 40, 76
2, 207087, Note_on_c, 0, 67, 86
2, 207088, Note_on_c, 0, 52, 75
2, 207214, Note_on_c, 0, 52, 0
2, 207216, Note_on_c, 0, 40, 0
2, 207221, Note_on_c, 0, 28, 0
2, 207221, Note_on_c, 0, 66, 0
2, 207229, Note_on_c, 0, 78, 0
2, 207237, Note_on_c, 0, 67, 0
2, 207237, Note_on_c, 0, 76, 0
2, 207237, Note_on_c, 0, 79, 0
2, 207243, Note_on_c, 0, 79, 99
2, 207246, Note_on_c, 0, 67, 99
2, 207247, Note_on_c, 0, 72, 92
2, 207248, Note_on_c, 0, 48, 90
2, 207248, Note_on_c, 0, 76, 96
2, 207249, Note_on_c, 0, 36, 88
2, 207250, Control_c, 0, 64, 0
2, 207267, Control_c, 0, 64, 127
2, 207375, Note_on_c, 0, 36, 0
2, 207380, Note_on_c, 0, 36, 77
2, 207383, Note_on_c, 0, 48, 0
2, 207387, Note_on_c, 0, 48, 81
2, 207480, Note_on_c, 0, 78, 100
2, 207487, Note_on_c, 0, 74, 70
2, 207487, Note_on_c, 0, 55, 81
2, 207490, Note_on_c, 0, 66, 93
2, 207495, Note_on_c, 0, 43, 67
2, 207621, Note_on_c, 0, 48, 0
2, 207630, Note_on_c, 0, 48, 77
2, 207736, Note_on_c, 0, 67, 0
2, 207736, Note_on_c, 0, 79, 0
2, 207740, Note_on_c, 0, 79, 99
2, 207744, Note_on_c, 0, 48, 0
2, 207744, Note_on_c, 0, 72, 0
2, 207744, Note_on_c, 0, 74, 0
2, 207744, Note_on_c, 0, 76, 0
2, 207746, Note_on_c, 0, 67, 92
2, 207747, Note_on_c, 0, 76, 80
2, 207748, Note_on_c, 0, 60, 84
2, 207748, Note_on_c, 0, 72, 79
2, 207753, Note_on_c, 0, 48, 79
2, 207936, Note_on_c, 0, 48, 0
2, 207936, Note_on_c, 0, 60, 0
2, 207940, Note_on_c, 0, 48, 62
2, 207946, Note_on_c, 0, 60, 69
2, 208020, Note_on_c, 0, 55, 0
2, 208020, Note_on_c, 0, 67, 0
2, 208020, Note_on_c, 0, 76, 0
2, 208026, Note_on_c, 0, 76, 99
2, 208027, Note_on_c, 0, 55, 76
2, 208028, Note_on_c, 0, 48, 0
2, 208029, Note_on_c, 0, 67, 80
2, 208031, Note_on_c, 0, 64, 85
2, 208032, Note_on_c, 0, 48, 74
2, 208181, Note_on_c, 0, 78, 0
2, 208192, Note_on_c, 0, 78, 101
2, 208197, Note_on_c, 0, 36, 0
2, 208197, Note_on_c, 0, 43, 0
2, 208197, Note_on_c, 0, 48, 0
2, 208197, Note_on_c, 0, 66, 0
2, 208201, Control_c, 0, 64, 0
2, 208203, Note_on_c, 0, 67, 0
2, 208203, Note_on_c, 0, 36, 81
2, 208203, Note_on_c, 0, 64, 0
2, 208203, Note_on_c, 0, 72, 0
2, 208204, Note_on_c, 0, 60, 0
2, 208205, Note_on_c, 0, 48, 77
2, 208206, Note_on_c, 0, 66, 84
2, 208206, Note_on_c, 0, 55, 0
2, 208209, Note_on_c, 0, 68, 62
2, 208235, Control_c, 0, 64, 127
2, 208312, Note_on_c, 0, 48, 0
2, 208316, Note_on_c, 0, 48, 80
2, 208335, Note_on_c, 0, 76, 0
2, 208335, Note_on_c, 0, 79, 0
2, 208345, Note_on_c, 0, 79, 90
2, 208346, Note_on_c, 0, 76, 71
2, 208352, Note_on_c, 0, 67, 81
2, 208430, Note_on_c, 0, 66, 0
2, 208430, Control_c, 0, 64, 0
2, 208431, Note_on_c, 0, 48, 0
2, 208431, Note_on_c, 0, 67, 0
2, 208432, Note_on_c, 0, 68, 0
2, 208432, Note_on_c, 0, 79, 0
2, 208432, Note_on_c, 0, 76, 0
2, 208432, Note_on_c, 0, 36, 0
2, 208450, Note_on_c, 0, 78, 0
2, 208495, Note_on_c, 0, 79, 101
2, 208500, Note_on_c, 0, 43, 94
2, 208500, Note_on_c, 0, 74, 86
2, 208500, Note_on_c, 0, 31, 93
2, 208500, Note_on_c, 0, 67, 90
2, 208500, Note_on_c, 0, 71, 87
2, 208519, Control_c, 0, 64, 127
2, 208691, Note_on_c, 0, 50, 43
2, 208696, Note_on_c, 0, 50, 0
2, 208734, Note_on_c, 0, 74, 0
2, 208739, Note_on_c, 0, 78, 100
2, 208739, Note_on_c, 0, 50, 71
2, 208739, Note_on_c, 0, 74, 56
2, 208740, Note_on_c, 0, 47, 86
2, 208742, Note_on_c, 0, 71, 0
2, 208745, Note_on_c, 0, 66, 91
2, 208747, Note_on_c, 0, 71, 62
2, 208759, Note_on_c, 0, 72, 59
2, 208765, Note_on_c, 0, 72, 0
2, 208872, Note_on_c, 0, 43, 0
2, 208883, Note_on_c, 0, 43, 58
2, 208896, Note_on_c, 0, 50, 0
2, 208900, Note_on_c, 0, 50, 48
2, 208980, Note_on_c, 0, 67, 0
2, 208980, Note_on_c, 0, 71, 0
2, 208980, Note_on_c, 0, 74, 0
2, 208980, Note_on_c, 0, 79, 0
2, 208984, Note_on_c, 0, 79, 102
2, 208988, Note_on_c, 0, 43, 0
2, 208990, Note_on_c, 0, 71, 87
2, 208990, Note_on_c, 0, 74, 87
2, 208991, Note_on_c, 0, 67, 93
2, 208992, Note_on_c, 0, 55, 89
2, 208995, Note_on_c, 0, 43, 79
2, 209134, Note_on_c, 0, 50, 0
2, 209139, Note_on_c, 0, 50, 56
2, 209149, Note_on_c, 0, 43, 0
2, 209158, Note_on_c, 0, 43, 78
2, 209172, Note_on_c, 0, 55, 0
2, 209182, Note_on_c, 0, 55, 76
2, 209272, Note_on_c, 0, 67, 0
2, 209275, Note_on_c, 0, 76, 96
2, 209281, Note_on_c, 0, 64, 80
2, 209283, Note_on_c, 0, 67, 72
2, 209433, Note_on_c, 0, 66, 0
2, 209433, Note_on_c, 0, 78, 0
2, 209437, Note_on_c, 0, 78, 100
2, 209443, Note_on_c, 0, 66, 91
2, 209453, Control_c, 0, 64, 0
2, 209453, Note_on_c, 0, 67, 0
2, 209454, Note_on_c, 0, 76, 0
2, 209454, Note_on_c, 0, 71, 0
2, 209454, Note_on_c, 0, 50, 0
2, 209455, Note_on_c, 0, 47, 0
2, 209455, Note_on_c, 0, 64, 0
2, 209456, Note_on_c, 0, 55, 0
2, 209456, Note_on_c, 0, 79, 0
2, 209458, Note_on_c, 0, 43, 0
2, 209487, Note_on_c, 0, 31, 0
2, 209502, Control_c, 0, 64, 127
2, 209584, Note_on_c, 0, 79, 100
2, 209590, Note_on_c, 0, 31, 78
2, 209590, Note_on_c, 0, 43, 83
2, 209592, Note_on_c, 0, 67, 84
2, 209702, Note_on_c, 0, 66, 0
2, 209710, Control_c, 0, 64, 0
2, 209725, Note_on_c, 0, 74, 0
2, 209725, Note_on_c, 0, 78, 0
2, 209729, Note_on_c, 0, 43, 0
2, 209733, Note_on_c, 0, 83, 103
2, 209734, Note_on_c, 0, 78, 99
2, 209734, Note_on_c, 0, 74, 94
2, 209736, Note_on_c, 0, 71, 92
2, 209737, Note_on_c, 0, 38, 97
2, 209742, Note_on_c, 0, 31, 0
2, 209745, Note_on_c, 0, 26, 88
2, 209748, Control_c, 0, 64, 127
2, 209871, Note_on_c, 0, 67, 0
2, 209892, Control_c, 0, 64, 0
2, 209902, Note_on_c, 0, 79, 0
2, 209955, Note_on_c, 0, 74, 0
2, 209962, Note_on_c, 0, 84, 109
2, 209963, Control_c, 0, 64, 127
2, 209965, Note_on_c, 0, 45, 92
2, 209966, Note_on_c, 0, 72, 102
2, 209966, Note_on_c, 0, 74, 92
2, 209974, Note_on_c, 0, 50, 85
2, 209978, Note_on_c, 0, 78, 0
2, 209986, Note_on_c, 0, 78, 63
2, 210209, Note_on_c, 0, 74, 0
2, 210209, Note_on_c, 0, 78, 0
2, 210212, Note_on_c, 0, 81, 103
2, 210218, Note_on_c, 0, 74, 97
2, 210218, Note_on_c, 0, 69, 92
2, 210219, Note_on_c, 0, 78, 99
2, 210222, Note_on_c, 0, 62, 93
2, 210362, Note_on_c, 0, 50, 0
2, 210370, Note_on_c, 0, 50, 85
2, 210401, Note_on_c, 0, 62, 0
2, 210406, Note_on_c, 0, 62, 62
2, 210466, Note_on_c, 0, 57, 68
2, 210469, Note_on_c, 0, 60, 69
2, 210513, Note_on_c, 0, 79, 96
2, 210521, Note_on_c, 0, 67, 83
2, 210600, Note_on_c, 0, 50, 0
2, 210606, Note_on_c, 0, 50, 62
2, 210670, Note_on_c, 0, 78, 0
2, 210676, Note_on_c, 0, 78, 107
2, 210679, Note_on_c, 0, 66, 96
2, 210700, Note_on_c, 0, 38, 0
2, 210709, Note_on_c, 0, 38, 72
2, 210816, Note_on_c, 0, 50, 0
2, 210821, Note_on_c, 0, 50, 71
2, 210825, Note_on_c, 0, 55, 52
2, 210954, Note_on_c, 0, 55, 0
2, 210973, Control_c, 0, 64, 0
2, 210981, Note_on_c, 0, 45, 0
2, 210982, Note_on_c, 0, 81, 0
2, 210982, Note_on_c, 0, 84, 0
2, 210982, Note_on_c, 0, 72, 0
2, 210983, Note_on_c, 0, 38, 0
2, 210983, Note_on_c, 0, 50, 0
2, 210983, Note_on_c, 0, 57, 0
2, 210984, Note_on_c, 0, 62, 0
2, 210984, Note_on_c, 0, 78, 0
2, 210984, Note_on_c, 0, 60, 0
2, 210984, Note_on_c, 0, 79, 0
2, 210984, Note_on_c, 0, 83, 0
2, 210985, Note_on_c, 0, 74, 0
2, 210986, Note_on_c, 0, 67, 0
2, 210986, Note_on_c, 0, 69, 0
2, 210987, Note_on_c, 0, 91, 112
2, 210988, Note_on_c, 0, 79, 106
2, 210991, Note_on_c, 0, 40, 88
2, 210992, Note_on_c, 0, 83, 97
2, 211000, Note_on_c, 0, 26, 0
2, 211000, Note_on_c, 0, 66, 0
2, 211015, Note_on_c, 0, 71, 0
2, 211023, Control_c, 0, 64, 127
2, 211124, Note_on_c, 0, 52, 84
2, 211220, Note_on_c, 0, 90, 99
2, 211228, Note_on_c, 0, 78, 93
2, 211234, Note_on_c, 0, 54, 65
2, 211261, Note_on_c, 0, 52, 0
2, 211269, Note_on_c, 0, 52, 51
2, 211335, Note_on_c, 0, 55, 63
2, 211394, Note_on_c, 0, 59, 64
2, 211461, Note_on_c, 0, 91, 0
2, 211468, Note_on_c, 0, 79, 0
2, 211472, Note_on_c, 0, 64, 82
2, 211472, Note_on_c, 0, 91, 110
2, 211474, Note_on_c, 0, 79, 99
2, 211514, Note_on_c, 0, 90, 0
2, 211518, Note_on_c, 0, 90, 37
2, 211599, Note_on_c, 0, 55, 0
2, 211606, Note_on_c, 0, 55, 68
2, 211653, Note_on_c, 0, 54, 0
2, 211657, Note_on_c, 0, 54, 61
2, 211729, Note_on_c, 0, 52, 0
2, 211735, Note_on_c, 0, 52, 76
2, 211755, Note_on_c, 0, 88, 90
2, 211763, Note_on_c, 0, 76, 84
2, 211818, Note_on_c, 0, 47, 59
2, 211906, Note_on_c, 0, 90, 0
2, 211911, Control_c, 0, 64, 0
2, 211914, Note_on_c, 0, 40, 0
2, 211914, Note_on_c, 0, 78, 0
2, 211914, Note_on_c, 0, 83, 0
2, 211914, Note_on_c, 0, 59, 0
2, 211915, Note_on_c, 0, 90, 106
2, 211917, Note_on_c, 0, 64, 0
2, 211918, Note_on_c, 0, 40, 78
2, 211922, Note_on_c, 0, 78, 95
2, 211944, Control_c, 0, 64, 127
2, 211991, Note_on_c, 0, 47, 0
2, 211999, Note_on_c, 0, 47, 64
2, 212067, Note_on_c, 0, 79, 0
2, 212067, Note_on_c, 0, 91, 0
2, 212072, Note_on_c, 0, 91, 103
2, 212075, Note_on_c, 0, 52, 0
2, 212077, Note_on_c, 0, 79, 93
2, 212079, Note_on_c, 0, 52, 62
2, 212203, Control_c, 0, 64, 0
2, 212203, Note_on_c, 0, 47, 0
2, 212204, Note_on_c, 0, 52, 0
2, 212205, Note_on_c, 0, 78, 0
2, 212206, Note_on_c, 0, 54, 0
2, 212221, Note_on_c, 0, 55, 0
2, 212221, Note_on_c, 0, 76, 0
2, 212221, Note_on_c, 0, 91, 0
2, 212227, Note_on_c, 0, 91, 108
2, 212229, Note_on_c, 0, 79, 0
2, 212229, Note_on_c, 0, 88, 0
2, 212232, Note_on_c, 0, 36, 86
2, 212233, Note_on_c, 0, 88, 94
2, 212233, Note_on_c, 0, 79, 99
2, 212235, Note_on_c, 0, 84, 99
2, 212252, Control_c, 0, 64, 127
2, 212309, Note_on_c, 0, 43, 69
2, 212368, Note_on_c, 0, 48, 78
2, 212459, Note_on_c, 0, 40, 0
2, 212467, Note_on_c, 0, 43, 0
2, 212467, Note_on_c, 0, 90, 0
2, 212471, Note_on_c, 0, 90, 96
2, 212472, Note_on_c, 0, 43, 66
2, 212478, Note_on_c, 0, 78, 91
2, 212544, Note_on_c, 0, 48, 0
2, 212549, Note_on_c, 0, 48, 66
2, 212556, Note_on_c, 0, 52, 66
2, 212642, Note_on_c, 0, 55, 70
2, 212720, Note_on_c, 0, 79, 0
2, 212720, Note_on_c, 0, 91, 0
2, 212723, Note_on_c, 0, 60, 87
2, 212726, Note_on_c, 0, 91, 108
2, 212729, Note_on_c, 0, 79, 101
2, 212858, Note_on_c, 0, 52, 0
2, 212863, Note_on_c, 0, 52, 76
2, 212886, Note_on_c, 0, 50, 60
2, 212935, Note_on_c, 0, 55, 0
2, 212941, Note_on_c, 0, 55, 63
2, 212981, Note_on_c, 0, 48, 0
2, 212992, Note_on_c, 0, 48, 62
2, 213012, Note_on_c, 0, 88, 0
2, 213018, Note_on_c, 0, 88, 96
2, 213024, Note_on_c, 0, 76, 91
2, 213058, Note_on_c, 0, 43, 0
2, 213068, Note_on_c, 0, 43, 54
2, 213173, Note_on_c, 0, 36, 0
2, 213173, Note_on_c, 0, 90, 0
2, 213183, Note_on_c, 0, 36, 72
2, 213184, Note_on_c, 0, 90, 105
2, 213186, Note_on_c, 0, 91, 0
2, 213186, Control_c, 0, 64, 0
2, 213186, Note_on_c, 0, 79, 0
2, 213187, Note_on_c, 0, 55, 0
2, 213187, Note_on_c, 0, 50, 0
2, 213187, Note_on_c, 0, 60, 0
2, 213187, Note_on_c, 0, 76, 0
2, 213188, Note_on_c, 0, 88, 0
2, 213188, Note_on_c, 0, 84, 0
2, 213189, Note_on_c, 0, 78, 0
2, 213193, Note_on_c, 0, 78, 88
2, 213204, Note_on_c, 0, 48, 0
2, 213204, Note_on_c, 0, 52, 0
2, 213242, Note_on_c, 0, 43, 0
2, 213242, Control_c, 0, 64, 127
2, 213252, Note_on_c, 0, 43, 71
2, 213341, Note_on_c, 0, 91, 100
2, 213344, Note_on_c, 0, 79, 96
2, 213362, Note_on_c, 0, 48, 67
2, 213419, Note_on_c, 0, 43, 0
2, 213426, Note_on_c, 0, 43, 66
2, 213480, Note_on_c, 0, 43, 0
2, 213488, Note_on_c, 0, 79, 0
2, 213488, Note_on_c, 0, 91, 0
2, 213492, Note_on_c, 0, 43, 69
2, 213492, Note_on_c, 0, 91, 109
2, 213499, Note_on_c, 0, 79, 100
2, 213501, Note_on_c, 0, 83, 90
2, 213501, Note_on_c, 0, 86, 89
2, 213560, Note_on_c, 0, 50, 74
2, 213644, Note_on_c, 0, 55, 73
2, 213719, Note_on_c, 0, 90, 0
2, 213726, Note_on_c, 0, 50, 0
2, 213726, Note_on_c, 0, 78, 0
2, 213730, Note_on_c, 0, 90, 98
2, 213737, Note_on_c, 0, 78, 93
2, 213737, Note_on_c, 0, 50, 65
2, 213750, Note_on_c, 0, 57, 72
2, 213838, Note_on_c, 0, 59, 70
2, 213898, Note_on_c, 0, 62, 81
2, 213972, Note_on_c, 0, 91, 0
2, 213980, Note_on_c, 0, 79, 0
2, 213982, Note_on_c, 0, 91, 106
2, 213984, Note_on_c, 0, 67, 84
2, 213984, Note_on_c, 0, 79, 97
2, 213987, Note_on_c, 0, 55, 0
2, 213991, Note_on_c, 0, 55, 65
2, 214049, Note_on_c, 0, 62, 0
2, 214055, Note_on_c, 0, 62, 69
2, 214110, Note_on_c, 0, 59, 0
2, 214115, Note_on_c, 0, 59, 76
2, 214149, Note_on_c, 0, 57, 0
2, 214159, Note_on_c, 0, 57, 68
2, 214225, Note_on_c, 0, 50, 0
2, 214234, Note_on_c, 0, 50, 46
2, 214241, Note_on_c, 0, 55, 0
2, 214248, Note_on_c, 0, 55, 67
2, 214277, Note_on_c, 0, 88, 95
2, 214282, Note_on_c, 0, 76, 88
2, 214325, Note_on_c, 0, 50, 0
2, 214330, Note_on_c, 0, 50, 64
2, 214401, Control_c, 0, 64, 0
2, 214409, Note_on_c, 0, 62, 0
2, 214410, Note_on_c, 0, 59, 0
2, 214410, Note_on_c, 0, 43, 0
2, 214411, Note_on_c, 0, 83, 0
2, 214411, Note_on_c, 0, 48, 0
2, 214411, Note_on_c, 0, 57, 0
2, 214412, Note_on_c, 0, 67, 0
2, 214412, Note_on_c, 0, 50, 0
2, 214413, Note_on_c, 0, 86, 0
2, 214413, Note_on_c, 0, 79, 0
2, 214413, Note_on_c, 0, 91, 0
2, 214414, Note_on_c, 0, 76, 0
2, 214414, Note_on_c, 0, 88, 0
2, 214417, Note_on_c, 0, 90, 0
2, 214420, Note_on_c, 0, 43, 82
2, 214425, Note_on_c, 0, 36, 0
2, 214425, Note_on_c, 0, 78, 0
2, 214428, Note_on_c, 0, 90, 102
2, 214431, Note_on_c, 0, 78, 90
2, 214440, Note_on_c, 0, 55, 0
2, 214464, Control_c, 0, 64, 127
2, 214499, Note_on_c, 0, 50, 68
2, 214546, Note_on_c, 0, 55, 78
2, 214577, Note_on_c, 0, 91, 98
2, 214582, Note_on_c, 0, 79, 91
2, 214588, Note_on_c, 0, 89, 70
2, 214671, Note_on_c, 0, 91, 0
2, 214672, Note_on_c, 0, 79, 0
2, 214672, Note_on_c, 0, 43, 0
2, 214673, Note_on_c, 0, 55, 0
2, 214673, Note_on_c, 0, 50, 0
2, 214674, Note_on_c, 0, 89, 0
2, 214675, Control_c, 0, 64, 0
2, 214686, Note_on_c, 0, 78, 0
2, 214724, Note_on_c, 0, 95, 102
2, 214725, Note_on_c, 0, 86, 87
2, 214725, Note_on_c, 0, 90, 0
2, 214726, Note_on_c, 0, 38, 87
2, 214728, Note_on_c, 0, 83, 99
2, 214729, Note_on_c, 0, 90, 91
2, 214748, Control_c, 0, 64, 127
2, 214793, Note_on_c, 0, 45, 75
2, 214951, Note_on_c, 0, 96, 92
2, 214959, Note_on_c, 0, 84, 88
2, 214986, Note_on_c, 0, 87, 46
2, 215009, Note_on_c, 0, 45, 0
2, 215013, Note_on_c, 0, 45, 60
2, 215022, Note_on_c, 0, 57, 65
2, 215027, Note_on_c, 0, 50, 63
2, 215098, Note_on_c, 0, 62, 79
2, 215198, Note_on_c, 0, 93, 106
2, 215199, Note_on_c, 0, 54, 70
2, 215199, Note_on_c, 0, 42, 70
2, 215199, Note_on_c, 0, 66, 91
2, 215201, Note_on_c, 0, 86, 0
2, 215201, Note_on_c, 0, 90, 0
2, 215203, Note_on_c, 0, 81, 97
2, 215205, Note_on_c, 0, 90, 95
2, 215211, Note_on_c, 0, 86, 83
2, 215262, Note_on_c, 0, 62, 0
2, 215271, Note_on_c, 0, 62, 84
2, 215377, Note_on_c, 0, 54, 0
2, 215382, Note_on_c, 0, 54, 71
2, 215485, Note_on_c, 0, 38, 0
2, 215488, Note_on_c, 0, 91, 102
2, 215493, Note_on_c, 0, 38, 73
2, 215495, Note_on_c, 0, 79, 86
2, 215562, Note_on_c, 0, 45, 0
2, 215566, Note_on_c, 0, 45, 64
2, 215630, Note_on_c, 0, 42, 0
2, 215631, Note_on_c, 0, 83, 0
2, 215632, Note_on_c, 0, 45, 0
2, 215632, Note_on_c, 0, 66, 0
2, 215632, Note_on_c, 0, 96, 0
2, 215633, Note_on_c, 0, 62, 0
2, 215633, Note_on_c, 0, 84, 0
2, 215634, Note_on_c, 0, 57, 0
2, 215634, Control_c, 0, 64, 0
2, 215634, Note_on_c, 0, 81, 0
2, 215634, Note_on_c, 0, 54, 0
2, 215634, Note_on_c, 0, 91, 0
2, 215634, Note_on_c, 0, 93, 0
2, 215634, Note_on_c, 0, 79, 0
2, 215639, Note_on_c, 0, 50, 0
2, 215639, Note_on_c, 0, 87, 0
2, 215639, Note_on_c, 0, 90, 0
2, 215646, Note_on_c, 0, 95, 0
2, 215648, Note_on_c, 0, 90, 102
2, 215651, Note_on_c, 0, 78, 95
2, 215654, Note_on_c, 0, 38, 0
2, 215654, Note_on_c, 0, 86, 0
2, 215658, Note_on_c, 0, 38, 72
2, 215685, Control_c, 0, 64, 127
2, 215708, Note_on_c, 0, 45, 77
2, 215795, Note_on_c, 0, 50, 78
2, 215914, Control_c, 0, 64, 0
2, 215946, Note_on_c, 0, 88, 98
2, 215948, Note_on_c, 0, 83, 95
2, 215950, Note_on_c, 0, 76, 102
2, 215955, Note_on_c, 0, 52, 98
2, 215956, Note_on_c, 0, 40, 95
2, 215961, Note_on_c, 0, 90, 0
2, 215963, Note_on_c, 0, 78, 0
2, 215968, Note_on_c, 0, 38, 0
2, 215976, Control_c, 0, 64, 127
2, 216141, Control_c, 0, 64, 0
2, 216143, Note_on_c, 0, 76, 0
2, 216150, Note_on_c, 0, 40, 0
2, 216153, Note_on_c, 0, 45, 0
2, 216176, Note_on_c, 0, 50, 0
2, 216176, Note_on_c, 0, 52, 0
2, 216176, Note_on_c, 0, 83, 0
2, 216176, Note_on_c, 0, 88, 0
2, 216184, Note_on_c, 0, 83, 99
2, 216185, Note_on_c, 0, 78, 93
2, 216186, Note_on_c, 0, 47, 90
2, 216187, Note_on_c, 0, 42, 88
2, 216187, Note_on_c, 0, 71, 84
2, 216188, Note_on_c, 0, 35, 88
2, 216230, Control_c, 0, 64, 127
2, 216340, Note_on_c, 0, 83, 0
2, 216340, Note_on_c, 0, 71, 0
2, 216341, Note_on_c, 0, 78, 0
2, 216348, Control_c, 0, 64, 0
2, 216360, Note_on_c, 0, 42, 0
2, 216391, Note_on_c, 0, 47, 0
2, 216427, Note_on_c, 0, 86, 100
2, 216430, Note_on_c, 0, 81, 90
2, 216430, Note_on_c, 0, 74, 101
2, 216433, Note_on_c, 0, 50, 94
2, 216439, Note_on_c, 0, 45, 86
2, 216439, Note_on_c, 0, 38, 96
2, 216445, Note_on_c, 0, 35, 0
2, 216476, Control_c, 0, 64, 127
2, 216721, Note_on_c, 0, 45, 0
2, 216721, Note_on_c, 0, 81, 0
2, 216728, Note_on_c, 0, 81, 92
2, 216732, Note_on_c, 0, 45, 82
2, 216732, Note_on_c, 0, 33, 89
2, 216733, Note_on_c, 0, 69, 80
2, 216737, Note_on_c, 0, 76, 81
2, 216807, Control_c, 0, 64, 0
2, 216812, Note_on_c, 0, 81, 0
2, 216814, Note_on_c, 0, 86, 0
2, 216814, Note_on_c, 0, 33, 0
2, 216814, Note_on_c, 0, 74, 0
2, 216815, Note_on_c, 0, 69, 0
2, 216818, Note_on_c, 0, 50, 0
2, 216818, Note_on_c, 0, 38, 0
2, 216837, Note_on_c, 0, 45, 0
2, 216860, Note_on_c, 0, 76, 0
2, 216874, Note_on_c, 0, 84, 106
2, 216876, Note_on_c, 0, 48, 90
2, 216878, Note_on_c, 0, 72, 97
2, 216878, Note_on_c, 0, 36, 94
2, 216921, Control_c, 0, 64, 127
2, 217149, Control_c, 0, 64, 0
2, 217150, Note_on_c, 0, 84, 0
2, 217151, Note_on_c, 0, 36, 0
2, 217152, Note_on_c, 0, 72, 0
2, 217155, Note_on_c, 0, 48, 0
2, 217172, Note_on_c, 0, 64, 93
2, 217179, Note_on_c, 0, 40, 91
2, 217179, Note_on_c, 0, 52, 87
2, 217180, Note_on_c, 0, 59, 86
2, 217184, Note_on_c, 0, 28, 89
2, 217213, Control_c, 0, 64, 127
2, 217345, Note_on_c, 0, 28, 0
2, 217345, Note_on_c, 0, 59, 0
2, 217346, Note_on_c, 0, 40, 0
2, 217347, Note_on_c, 0, 64, 0
2, 217348, Control_c, 0, 64, 0
2, 217414, Note_on_c, 0, 59, 89
2, 217415, Note_on_c, 0, 35, 85
2, 217416, Note_on_c, 0, 47, 87
2, 217417, Note_on_c, 0, 54, 84
2, 217451, Control_c, 0, 64, 127
2, 217520, Note_on_c, 0, 52, 0
2, 217571, Control_c, 0, 64, 0
2, 217578, Note_on_c, 0, 59, 0
2, 217578, Note_on_c, 0, 35, 0
2, 217579, Note_on_c, 0, 54, 0
2, 217582, Note_on_c, 0, 47, 0
2, 217646, Note_on_c, 0, 62, 97
2, 217654, Note_on_c, 0, 50, 84
2, 217654, Note_on_c, 0, 38, 95
2, 217655, Note_on_c, 0, 26, 86
2, 217655, Note_on_c, 0, 57, 79
2, 217704, Control_c, 0, 64, 127
2, 217950, Note_on_c, 0, 57, 0
2, 217961, Note_on_c, 0, 57, 88
2, 217963, Note_on_c, 0, 52, 84
2, 218014, Control_c, 0, 64, 0
2, 218019, Note_on_c, 0, 50, 0
2, 218023, Note_on_c, 0, 52, 0
2, 218033, Note_on_c, 0, 57, 0
2, 218035, Note_on_c, 0, 38, 0
2, 218035, Note_on_c, 0, 62, 0
2, 218065, Note_on_c, 0, 26, 0
2, 218106, Note_on_c, 0, 60, 94
2, 218108, Note_on_c, 0, 36, 86
2, 218108, Note_on_c, 0, 24, 88
2, 218108, Note_on_c, 0, 26, 82
2, 218109, Note_on_c, 0, 55, 83
2, 218141, Note_on_c, 0, 60, 0
2, 218142, Control_c, 0, 64, 127
2, 218145, Note_on_c, 0, 26, 0
2, 218342, Note_on_c, 0, 55, 0
2, 218383, Control_c, 0, 64, 0
2, 218403, Note_on_c, 0, 88, 100
2, 218403, Note_on_c, 0, 83, 96
2, 218404, Note_on_c, 0, 52, 99
2, 218406, Note_on_c, 0, 76, 102
2, 218406, Note_on_c, 0, 28, 98
2, 218406, Note_on_c, 0, 40, 97
2, 218434, Note_on_c, 0, 24, 0
2, 218434, Note_on_c, 0, 36, 0
2, 218442, Control_c, 0, 64, 127
2, 218480, Note_on_c, 0, 40, 0
2, 218480, Note_on_c, 0, 76, 0
2, 218480, Note_on_c, 0, 83, 0
2, 218480, Note_on_c, 0, 88, 0
2, 218484, Note_on_c, 0, 88, 95
2, 218485, Note_on_c, 0, 83, 85
2, 218485, Note_on_c, 0, 76, 100
2, 218491, Note_on_c, 0, 40, 52
2, 218596, Note_on_c, 0, 88, 0
2, 218599, Control_c, 0, 64, 0
2, 218611, Note_on_c, 0, 52, 0
2, 218618, Note_on_c, 0, 28, 0
2, 218618, Note_on_c, 0, 83, 0
2, 218626, Control_c, 0, 64, 127
2, 218627, Note_on_c, 0, 83, 102
2, 218630, Note_on_c, 0, 71, 96
2, 218630, Note_on_c, 0, 47, 94
2, 218630, Note_on_c, 0, 78, 96
2, 218632, Note_on_c, 0, 35, 85
2, 218703, Note_on_c, 0, 40, 0
2, 218711, Note_on_c, 0, 71, 0
2, 218711, Note_on_c, 0, 83, 0
2, 218717, Note_on_c, 0, 83, 84
2, 218720, Note_on_c, 0, 71, 80
2, 218833, Note_on_c, 0, 76, 0
2, 218838, Note_on_c, 0, 35, 0
2, 218839, Note_on_c, 0, 83, 0
2, 218839, Note_on_c, 0, 71, 0
2, 218840, Control_c, 0, 64, 0
2, 218840, Note_on_c, 0, 78, 0
2, 218844, Note_on_c, 0, 47, 0
2, 218860, Note_on_c, 0, 81, 95
2, 218860, Note_on_c, 0, 74, 105
2, 218860, Note_on_c, 0, 86, 103
2, 218864, Note_on_c, 0, 38, 96
2, 218866, Note_on_c, 0, 45, 89
2, 218867, Note_on_c, 0, 33, 90
2, 218903, Control_c, 0, 64, 127
2, 218933, Note_on_c, 0, 86, 0
2, 218945, Note_on_c, 0, 86, 81
2, 218949, Note_on_c, 0, 74, 0
2, 218953, Note_on_c, 0, 74, 85
2, 219098, Note_on_c, 0, 38, 0
2, 219118, Note_on_c, 0, 33, 0
2, 219118, Note_on_c, 0, 45, 0
2, 219118, Note_on_c, 0, 81, 0
2, 219124, Note_on_c, 0, 81, 92
2, 219124, Note_on_c, 0, 69, 88
2, 219127, Note_on_c, 0, 33, 82
2, 219128, Note_on_c, 0, 45, 76
2, 219128, Note_on_c, 0, 76, 81
2, 219144, Note_on_c, 0, 79, 57
2, 219233, Note_on_c, 0, 74, 0
2, 219233, Note_on_c, 0, 86, 0
2, 219234, Note_on_c, 0, 76, 0
2, 219234, Note_on_c, 0, 69, 0
2, 219235, Note_on_c, 0, 81, 0
2, 219235, Note_on_c, 0, 33, 0
2, 219235, Note_on_c, 0, 45, 0
2, 219235, Note_on_c, 0, 79, 0
2, 219237, Control_c, 0, 64, 0
2, 219275, Note_on_c, 0, 84, 107
2, 219279, Note_on_c, 0, 36, 97
2, 219279, Note_on_c, 0, 48, 92
2, 219279, Note_on_c, 0, 72, 98
2, 219280, Note_on_c, 0, 79, 88
2, 219289, Note_on_c, 0, 76, 70
2, 219294, Control_c, 0, 64, 127
2, 219304, Note_on_c, 0, 82, 51
2, 219306, Note_on_c, 0, 43, 39
2, 219508, Note_on_c, 0, 36, 0
2, 219508, Note_on_c, 0, 76, 0
2, 219509, Note_on_c, 0, 43, 0
2, 219510, Note_on_c, 0, 84, 0
2, 219511, Note_on_c, 0, 79, 0
2, 219513, Control_c, 0, 64, 0
2, 219517, Note_on_c, 0, 48, 0
2, 219517, Note_on_c, 0, 82, 0
2, 219525, Note_on_c, 0, 72, 0
2, 219560, Note_on_c, 0, 81, 103
2, 219560, Note_on_c, 0, 86, 106
2, 219562, Note_on_c, 0, 74, 110
2, 219566, Note_on_c, 0, 50, 98
2, 219570, Note_on_c, 0, 38, 98
2, 219573, Note_on_c, 0, 45, 89
2, 219586, Control_c, 0, 64, 127
2, 219863, Note_on_c, 0, 66, 89
2, 219866, Note_on_c, 0, 57, 80
2, 219949, Note_on_c, 0, 69, 74
2, 219978, Note_on_c, 0, 50, 0
2, 219983, Note_on_c, 0, 50, 75
2, 219993, Note_on_c, 0, 74, 0
2, 220003, Note_on_c, 0, 74, 75
2, 220004, Note_on_c, 0, 62, 80
2, 220062, Note_on_c, 0, 45, 0
2, 220070, Note_on_c, 0, 45, 71
2, 220080, Note_on_c, 0, 78, 92
2, 220162, Note_on_c, 0, 57, 0
2, 220162, Note_on_c, 0, 69, 0
2, 220169, Note_on_c, 0, 57, 70
2, 220170, Note_on_c, 0, 69, 97
2, 220193, Note_on_c, 0, 50, 0
2, 220196, Note_on_c, 0, 54, 71
2, 220200, Note_on_c, 0, 50, 57
2, 220239, Note_on_c, 0, 74, 0
2, 220243, Note_on_c, 0, 74, 89
2, 220262, Note_on_c, 0, 45, 0
2, 220267, Note_on_c, 0, 45, 47
2, 220285, Note_on_c, 0, 50, 0
2, 220285, Note_on_c, 0, 78, 0
2, 220291, Note_on_c, 0, 50, 69
2, 220296, Note_on_c, 0, 78, 86
2, 220369, Note_on_c, 0, 54, 0
2, 220369, Note_on_c, 0, 81, 0
2, 220380, Note_on_c, 0, 42, 69
2, 220380, Note_on_c, 0, 54, 66
2, 220381, Note_on_c, 0, 81, 100
2, 220400, Note_on_c, 0, 69, 0
2, 220406, Note_on_c, 0, 69, 64
2, 220469, Note_on_c, 0, 50, 0
2, 220476, Note_on_c, 0, 50, 81
2, 220477, Note_on_c, 0, 74, 0
2, 220482, Note_on_c, 0, 74, 99
2, 220531, Note_on_c, 0, 78, 0
2, 220542, Note_on_c, 0, 78, 95
2, 220554, Note_on_c, 0, 57, 0
2, 220559, Note_on_c, 0, 57, 63
2, 220600, Note_on_c, 0, 81, 0
2, 220604, Note_on_c, 0, 81, 85
2, 220638, Note_on_c, 0, 86, 0
2, 220642, Note_on_c, 0, 86, 90
2, 220669, Note_on_c, 0, 42, 0
2, 220679, Note_on_c, 0, 42, 59
2, 220732, Note_on_c, 0, 69, 0
2, 220733, Note_on_c, 0, 81, 0
2, 220733, Note_on_c, 0, 86, 0
2, 220733, Note_on_c, 0, 42, 0
2, 220733, Note_on_c, 0, 74, 0
2, 220734, Note_on_c, 0, 50, 0
2, 220734, Note_on_c, 0, 66, 0
2, 220734, Note_on_c, 0, 57, 0
2, 220734, Note_on_c, 0, 62, 0
2, 220734, Control_c, 0, 64, 0
2, 220753, Note_on_c, 0, 38, 0
2, 220753, Note_on_c, 0, 45, 0
2, 220753, Note_on_c, 0, 54, 0
2, 220753, Note_on_c, 0, 78, 0
2, 220764, Note_on_c, 0, 88, 106
2, 220766, Note_on_c, 0, 76, 109
2, 220766, Note_on_c, 0, 52, 104
2, 220767, Note_on_c, 0, 40, 98
2, 220769, Note_on_c, 0, 83, 92
2, 220769, Note_on_c, 0, 47, 92
2, 220800, Control_c, 0, 64, 127
2, 220838, Note_on_c, 0, 88, 0
2, 220846, Note_on_c, 0, 52, 0
2, 220846, Note_on_c, 0, 76, 0
2, 220849, Note_on_c, 0, 88, 97
2, 220853, Note_on_c, 0, 40, 0
2, 220855, Note_on_c, 0, 76, 92
2, 220856, Note_on_c, 0, 52, 94
2, 220858, Note_on_c, 0, 40, 83
2, 220907, Note_on_c, 0, 88, 0
2, 220915, Note_on_c, 0, 40, 0
2, 220915, Note_on_c, 0, 52, 0
2, 220915, Note_on_c, 0, 76, 0
2, 220918, Note_on_c, 0, 88, 108
2, 220920, Note_on_c, 0, 76, 102
2, 220924, Note_on_c, 0, 40, 94
2, 220925, Note_on_c, 0, 84, 91
2, 220926, Note_on_c, 0, 52, 99
2, 220938, Note_on_c, 0, 83, 0
2, 220979, Control_c, 0, 64, 0
2, 221030, Note_on_c, 0, 47, 0
2, 221045, Note_on_c, 0, 76, 0
2, 221053, Note_on_c, 0, 84, 0
2, 221053, Note_on_c, 0, 88, 0
2, 221068, Note_on_c, 0, 40, 0
2, 221084, Note_on_c, 0, 52, 0
2, 221241, Note_on_c, 0, 76, 103
2, 221242, Note_on_c, 0, 88, 100
2, 221245, Note_on_c, 0, 64, 89
2, 221248, Note_on_c, 0, 71, 89
2, 221266, Note_on_c, 0, 76, 0
2, 221299, Note_on_c, 0, 64, 0
2, 221299, Note_on_c, 0, 88, 0
2, 221314, Control_c, 0, 64, 127
2, 221327, Note_on_c, 0, 100, 99
2, 221329, Note_on_c, 0, 71, 0
2, 221331, Note_on_c, 0, 76, 97
2, 221333, Note_on_c, 0, 88, 97
2, 221336, Note_on_c, 0, 64, 89
2, 221339, Note_on_c, 0, 71, 77
2, 221383, Note_on_c, 0, 76, 0
2, 221391, Note_on_c, 0, 88, 0
2, 221395, Note_on_c, 0, 76, 100
2, 221396, Note_on_c, 0, 72, 75
2, 221396, Note_on_c, 0, 88, 95
2, 221404, Note_on_c, 0, 96, 78
2, 221475, Note_on_c, 0, 72, 0
2, 221478, Note_on_c, 0, 64, 0
2, 221485, Control_c, 0, 64, 0
2, 221491, Note_on_c, 0, 71, 0
2, 221537, Note_on_c, 0, 96, 0
2, 221552, Note_on_c, 0, 100, 0
2, 221591, Note_on_c, 0, 76, 0
2, 221598, Note_on_c, 0, 88, 0
2, 221718, Note_on_c, 0, 40, 84
2, 221718, Note_on_c, 0, 28, 88
2, 221867, Note_on_c, 0, 40, 0
2, 221873, Note_on_c, 0, 52, 97
2, 221873, Note_on_c, 0, 47, 97
2, 221877, Note_on_c, 0, 40, 81
2, 222643, Control_c, 0, 64, 127
2, 224398, Note_on_c, 0, 40, 0
2, 224398, Control_c, 0, 64, 0
2, 224409, Note_on_c, 0, 47, 0
2, 224417, Note_on_c, 0, 52, 0
2, 224424, Note_on_c, 0, 28, 0
2, 224425, End_track
0, 0, End_of_file
