0, 0, Header, 1, 2, 384
1, 0, Start_track
1, 0, Tempo, 500000
1, 0, Time_signature, 4, 2, 24, 8
1, 1, End_track
2, 0, Start_track
2, 1419, Note_on_c, 0, 47, 101
2, 1424, Note_on_c, 0, 35, 85
2, 1505, Control_c, 0, 64, 127
2, 1601, Note_on_c, 0, 71, 108
2, 1764, Note_on_c, 0, 54, 87
2, 1945, Note_on_c, 0, 62, 80
2, 1947, Note_on_c, 0, 59, 77
2, 1950, Note_on_c, 0, 66, 97
2, 2144, Note_on_c, 0, 69, 96
2, 2304, Note_on_c, 0, 54, 0
2, 2304, Note_on_c, 0, 66, 0
2, 2310, Note_on_c, 0, 54, 75
2, 2312, Note_on_c, 0, 66, 70
2, 2388, Note_on_c, 0, 59, 0
2, 2388, Note_on_c, 0, 62, 0
2, 2392, Note_on_c, 0, 59, 87
2, 2392, Note_on_c, 0, 62, 86
2, 2488, Note_on_c, 0, 69, 0
2, 2494, Note_on_c, 0, 69, 87
2, 2664, Note_on_c, 0, 66, 0
2, 2672, Note_on_c, 0, 66, 96
2, 2849, Note_on_c, 0, 47, 0
2, 2853, Note_on_c, 0, 47, 76
2, 3025, Note_on_c, 0, 71, 0
2, 3029, Note_on_c, 0, 71, 104
2, 3210, Note_on_c, 0, 54, 0
2, 3221, Note_on_c, 0, 54, 76
2, 3379, Note_on_c, 0, 59, 0
2, 3386, Note_on_c, 0, 62, 0
2, 3386, Note_on_c, 0, 66, 0
2, 3390, Note_on_c, 0, 59, 78
2, 3391, Note_on_c, 0, 62, 77
2, 3394, Note_on_c, 0, 66, 88
2, 3571, Note_on_c, 0, 69, 0
2, 3581, Note_on_c, 0, 69, 90
2, 3740, Note_on_c, 0, 54, 0
2, 3748, Note_on_c, 0, 54, 79
2, 3840, Note_on_c, 0, 59, 0
2, 3840, Note_on_c, 0, 62, 0
2, 3844, Note_on_c, 0, 59, 88
2, 3845, Note_on_c, 0, 62, 77
2, 3924, Note_on_c, 0, 69, 0
2, 3929, Note_on_c, 0, 69, 87
2, 4101, Note_on_c, 0, 71, 0
2, 4108, Note_on_c, 0, 71, 91
2, 4220, Control_c, 0, 64, 0
2, 4221, Note_on_c, 0, 35, 0
2, 4221, Note_on_c, 0, 62, 0
2, 4222, Note_on_c, 0, 59, 0
2, 4222, Note_on_c, 0, 69, 0
2, 4222, Note_on_c, 0, 66, 0
2, 4239, Note_on_c, 0, 47, 0
2, 4239, Note_on_c, 0, 54, 0
2, 4282, Note_on_c, 0, 31, 88
2, 4283, Note_on_c, 0, 43, 94
2, 4369, Control_c, 0, 64, 127
2, 4462, Note_on_c, 0, 71, 0
2, 4467, Note_on_c, 0, 71, 101
2, 4625, Note_on_c, 0, 55, 84
2, 4803, Note_on_c, 0, 59, 85
2, 4808, Note_on_c, 0, 62, 77
2, 4810, Note_on_c, 0, 66, 90
2, 4994, Note_on_c, 0, 69, 94
2, 5160, Note_on_c, 0, 55, 0
2, 5170, Note_on_c, 0, 55, 82
2, 5260, Note_on_c, 0, 59, 0
2, 5260, Note_on_c, 0, 62, 0
2, 5265, Note_on_c, 0, 59, 82
2, 5266, Note_on_c, 0, 62, 82
2, 5352, Note_on_c, 0, 69, 0
2, 5361, Note_on_c, 0, 69, 96
2, 5521, Note_on_c, 0, 66, 0
2, 5532, Note_on_c, 0, 66, 90
2, 5706, Note_on_c, 0, 43, 0
2, 5712, Note_on_c, 0, 43, 86
2, 5875, Note_on_c, 0, 71, 0
2, 5879, Note_on_c, 0, 71, 105
2, 6051, Note_on_c, 0, 55, 0
2, 6060, Note_on_c, 0, 55, 86
2, 6220, Note_on_c, 0, 59, 0
2, 6220, Note_on_c, 0, 62, 0
2, 6220, Note_on_c, 0, 66, 0
2, 6225, Note_on_c, 0, 59, 84
2, 6226, Note_on_c, 0, 62, 69
2, 6231, Note_on_c, 0, 66, 90
2, 6412, Note_on_c, 0, 69, 0
2, 6419, Note_on_c, 0, 69, 91
2, 6581, Note_on_c, 0, 55, 0
2, 6590, Note_on_c, 0, 55, 80
2, 6673, Note_on_c, 0, 59, 0
2, 6673, Note_on_c, 0, 71, 0
2, 6680, Note_on_c, 0, 59, 91
2, 6681, Note_on_c, 0, 62, 0
2, 6683, Note_on_c, 0, 74, 72
2, 6684, Note_on_c, 0, 71, 75
2, 6687, Note_on_c, 0, 43, 0
2, 6692, Note_on_c, 0, 62, 76
2, 6781, Note_on_c, 0, 69, 0
2, 6791, Note_on_c, 0, 69, 90
2, 6958, Note_on_c, 0, 71, 0
2, 6968, Note_on_c, 0, 71, 98
2, 7034, Note_on_c, 0, 74, 0
2, 7054, Control_c, 0, 64, 0
2, 7054, Note_on_c, 0, 55, 0
2, 7055, Note_on_c, 0, 62, 0
2, 7055, Note_on_c, 0, 69, 0
2, 7055, Note_on_c, 0, 66, 0
2, 7055, Note_on_c, 0, 59, 0
2, 7065, Note_on_c, 0, 31, 0
2, 7134, Control_c, 0, 64, 127
2, 7137, Note_on_c, 0, 47, 94
2, 7138, Note_on_c, 0, 35, 87
2, 7311, Note_on_c, 0, 71, 0
2, 7315, Note_on_c, 0, 83, 106
2, 7316, Note_on_c, 0, 74, 88
2, 7319, Note_on_c, 0, 71, 96
2, 7321, Note_on_c, 0, 78, 96
2, 7417, Note_on_c, 0, 61, 88
2, 7576, Note_on_c, 0, 57, 77
2, 7664, Note_on_c, 0, 74, 0
2, 7664, Note_on_c, 0, 78, 0
2, 7670, Note_on_c, 0, 78, 98
2, 7672, Note_on_c, 0, 74, 83
2, 7674, Note_on_c, 0, 66, 90
2, 7766, Note_on_c, 0, 52, 85
2, 7864, Note_on_c, 0, 57, 0
2, 7871, Note_on_c, 0, 57, 89
2, 7872, Note_on_c, 0, 74, 0
2, 7874, Note_on_c, 0, 81, 100
2, 7876, Note_on_c, 0, 69, 85
2, 7881, Note_on_c, 0, 74, 65
2, 8040, Note_on_c, 0, 47, 0
2, 8049, Note_on_c, 0, 47, 88
2, 8209, Note_on_c, 0, 57, 0
2, 8214, Note_on_c, 0, 57, 82
2, 8225, Note_on_c, 0, 81, 0
2, 8236, Note_on_c, 0, 81, 93
2, 8240, Note_on_c, 0, 69, 0
2, 8240, Note_on_c, 0, 74, 0
2, 8244, Note_on_c, 0, 69, 80
2, 8251, Note_on_c, 0, 74, 79
2, 8311, Note_on_c, 0, 50, 84
2, 8417, Note_on_c, 0, 74, 0
2, 8417, Note_on_c, 0, 78, 0
2, 8421, Note_on_c, 0, 78, 97
2, 8424, Note_on_c, 0, 74, 85
2, 8424, Note_on_c, 0, 66, 0
2, 8424, Note_on_c, 0, 69, 0
2, 8431, Note_on_c, 0, 69, 64
2, 8432, Note_on_c, 0, 66, 87
2, 8528, Control_c, 0, 64, 0
2, 8530, Note_on_c, 0, 52, 0
2, 8530, Note_on_c, 0, 50, 0
2, 8531, Note_on_c, 0, 57, 0
2, 8531, Note_on_c, 0, 71, 0
2, 8531, Note_on_c, 0, 81, 0
2, 8532, Note_on_c, 0, 35, 0
2, 8532, Note_on_c, 0, 83, 0
2, 8533, Note_on_c, 0, 61, 0
2, 8570, Note_on_c, 0, 47, 0
2, 8577, Note_on_c, 0, 47, 98
2, 8593, Control_c, 0, 64, 127
2, 8765, Note_on_c, 0, 62, 80
2, 8770, Note_on_c, 0, 74, 0
2, 8773, Note_on_c, 0, 83, 100
2, 8776, Note_on_c, 0, 74, 89
2, 8778, Note_on_c, 0, 78, 0
2, 8780, Note_on_c, 0, 71, 83
2, 8784, Note_on_c, 0, 78, 86
2, 8853, Note_on_c, 0, 61, 82
2, 8980, Note_on_c, 0, 57, 78
2, 8985, Note_on_c, 0, 69, 0
2, 9116, Note_on_c, 0, 74, 0
2, 9116, Note_on_c, 0, 78, 0
2, 9123, Note_on_c, 0, 66, 0
2, 9126, Note_on_c, 0, 78, 93
2, 9127, Note_on_c, 0, 74, 75
2, 9128, Note_on_c, 0, 66, 88
2, 9133, Note_on_c, 0, 69, 60
2, 9199, Note_on_c, 0, 52, 84
2, 9308, Note_on_c, 0, 61, 0
2, 9314, Note_on_c, 0, 61, 86
2, 9315, Note_on_c, 0, 69, 0
2, 9315, Note_on_c, 0, 74, 0
2, 9320, Note_on_c, 0, 81, 91
2, 9323, Note_on_c, 0, 74, 85
2, 9327, Note_on_c, 0, 69, 77
2, 9484, Note_on_c, 0, 47, 0
2, 9494, Note_on_c, 0, 47, 86
2, 9592, Note_on_c, 0, 52, 0
2, 9601, Note_on_c, 0, 52, 71
2, 9661, Note_on_c, 0, 78, 0
2, 9661, Note_on_c, 0, 81, 0
2, 9666, Note_on_c, 0, 54, 85
2, 9669, Note_on_c, 0, 69, 0
2, 9669, Note_on_c, 0, 74, 0
2, 9672, Note_on_c, 0, 81, 89
2, 9672, Note_on_c, 0, 78, 82
2, 9673, Note_on_c, 0, 74, 77
2, 9677, Note_on_c, 0, 69, 74
2, 9745, Note_on_c, 0, 57, 0
2, 9757, Note_on_c, 0, 57, 81
2, 9832, Note_on_c, 0, 59, 99
2, 9853, Note_on_c, 0, 69, 0
2, 9853, Note_on_c, 0, 71, 0
2, 9853, Note_on_c, 0, 74, 0
2, 9853, Note_on_c, 0, 78, 0
2, 9853, Note_on_c, 0, 83, 0
2, 9857, Note_on_c, 0, 71, 88
2, 9857, Note_on_c, 0, 83, 106
2, 9858, Note_on_c, 0, 74, 93
2, 9860, Note_on_c, 0, 69, 73
2, 9864, Note_on_c, 0, 78, 95
2, 9967, Note_on_c, 0, 62, 0
2, 9967, Note_on_c, 0, 81, 0
2, 9968, Note_on_c, 0, 54, 0
2, 9968, Note_on_c, 0, 47, 0
2, 9969, Note_on_c, 0, 66, 0
2, 9970, Note_on_c, 0, 59, 0
2, 9970, Control_c, 0, 64, 0
2, 9976, Note_on_c, 0, 57, 0
2, 9984, Note_on_c, 0, 52, 0
2, 9984, Note_on_c, 0, 61, 0
2, 10028, Note_on_c, 0, 31, 90
2, 10028, Note_on_c, 0, 43, 95
2, 10037, Control_c, 0, 64, 127
2, 10199, Note_on_c, 0, 74, 0
2, 10199, Note_on_c, 0, 78, 0
2, 10199, Note_on_c, 0, 83, 0
2, 10206, Note_on_c, 0, 71, 0
2, 10207, Note_on_c, 0, 83, 106
2, 10208, Note_on_c, 0, 74, 93
2, 10209, Note_on_c, 0, 78, 98
2, 10212, Note_on_c, 0, 71, 89
2, 10295, Note_on_c, 0, 61, 85
2, 10449, Note_on_c, 0, 57, 75
2, 10552, Note_on_c, 0, 78, 0
2, 10560, Note_on_c, 0, 74, 0
2, 10562, Note_on_c, 0, 78, 88
2, 10564, Note_on_c, 0, 74, 74
2, 10564, Note_on_c, 0, 66, 84
2, 10662, Note_on_c, 0, 52, 83
2, 10675, Note_on_c, 0, 31, 0
2, 10758, Note_on_c, 0, 81, 96
2, 10759, Note_on_c, 0, 69, 0
2, 10759, Note_on_c, 0, 74, 0
2, 10763, Note_on_c, 0, 69, 82
2, 10763, Note_on_c, 0, 74, 79
2, 10935, Note_on_c, 0, 47, 78
2, 11089, Note_on_c, 0, 81, 0
2, 11097, Note_on_c, 0, 57, 0
2, 11101, Note_on_c, 0, 81, 92
2, 11102, Note_on_c, 0, 57, 75
2, 11105, Note_on_c, 0, 69, 0
2, 11105, Note_on_c, 0, 74, 0
2, 11110, Note_on_c, 0, 69, 68
2, 11111, Note_on_c, 0, 74, 69
2, 11195, Note_on_c, 0, 50, 71
2, 11289, Note_on_c, 0, 74, 0
2, 11289, Note_on_c, 0, 78, 0
2, 11293, Note_on_c, 0, 78, 94
2, 11294, Note_on_c, 0, 74, 76
2, 11297, Note_on_c, 0, 66, 0
2, 11301, Note_on_c, 0, 66, 80
2, 11312, Note_on_c, 0, 43, 0
2, 11431, Control_c, 0, 64, 0
2, 11433, Note_on_c, 0, 47, 0
2, 11434, Note_on_c, 0, 71, 0
2, 11434, Note_on_c, 0, 52, 0
2, 11434, Note_on_c, 0, 50, 0
2, 11434, Note_on_c, 0, 83, 0
2, 11435, Note_on_c, 0, 61, 0
2, 11436, Note_on_c, 0, 69, 0
2, 11436, Note_on_c, 0, 66, 0
2, 11450, Note_on_c, 0, 57, 0
2, 11454, Note_on_c, 0, 43, 80
2, 11458, Note_on_c, 0, 81, 0
2, 11520, Control_c, 0, 64, 127
2, 11560, Note_on_c, 0, 50, 75
2, 11623, Note_on_c, 0, 52, 84
2, 11627, Note_on_c, 0, 74, 0
2, 11630, Note_on_c, 0, 83, 104
2, 11635, Note_on_c, 0, 78, 0
2, 11638, Note_on_c, 0, 74, 89
2, 11638, Note_on_c, 0, 71, 90
2, 11640, Note_on_c, 0, 78, 87
2, 11725, Note_on_c, 0, 54, 79
2, 11809, Note_on_c, 0, 57, 77
2, 11885, Note_on_c, 0, 59, 88
2, 11980, Note_on_c, 0, 74, 0
2, 11980, Note_on_c, 0, 78, 0
2, 11985, Note_on_c, 0, 78, 94
2, 11987, Note_on_c, 0, 74, 76
2, 11987, Note_on_c, 0, 62, 76
2, 12070, Note_on_c, 0, 64, 84
2, 12167, Note_on_c, 0, 81, 97
2, 12168, Note_on_c, 0, 69, 92
2, 12312, Control_c, 0, 64, 0
2, 12313, Note_on_c, 0, 71, 0
2, 12313, Note_on_c, 0, 54, 0
2, 12314, Note_on_c, 0, 59, 0
2, 12314, Note_on_c, 0, 52, 0
2, 12314, Note_on_c, 0, 83, 0
2, 12314, Note_on_c, 0, 78, 0
2, 12314, Note_on_c, 0, 57, 0
2, 12314, Note_on_c, 0, 81, 0
2, 12314, Note_on_c, 0, 74, 0
2, 12314, Note_on_c, 0, 50, 0
2, 12314, Note_on_c, 0, 62, 0
2, 12314, Note_on_c, 0, 64, 0
2, 12315, Note_on_c, 0, 69, 0
2, 12318, Note_on_c, 0, 43, 0
2, 12354, Note_on_c, 0, 59, 86
2, 12389, Note_on_c, 0, 59, 0
2, 12530, Note_on_c, 0, 59, 79
2, 12560, Note_on_c, 0, 59, 0
2, 12712, Note_on_c, 0, 66, 88
2, 12886, Note_on_c, 0, 47, 75
2, 12889, Note_on_c, 0, 35, 66
2, 12910, Control_c, 0, 64, 127
2, 13032, Note_on_c, 0, 47, 0
2, 13043, Note_on_c, 0, 47, 66
2, 13085, Note_on_c, 0, 35, 0
2, 13089, Control_c, 0, 64, 0
2, 13090, Note_on_c, 0, 47, 0
2, 13133, Note_on_c, 0, 54, 72
2, 13135, Note_on_c, 0, 50, 73
2, 13167, Note_on_c, 0, 54, 0
2, 13174, Note_on_c, 0, 50, 0
2, 13321, Note_on_c, 0, 47, 59
2, 13414, Note_on_c, 0, 50, 70
2, 13420, Note_on_c, 0, 54, 60
2, 13420, Note_on_c, 0, 64, 79
2, 13454, Note_on_c, 0, 64, 0
2, 13593, Note_on_c, 0, 64, 78
2, 13701, Note_on_c, 0, 47, 0
2, 13759, Note_on_c, 0, 64, 0
2, 13760, Note_on_c, 0, 54, 0
2, 13762, Note_on_c, 0, 50, 0
2, 13772, Note_on_c, 0, 62, 78
2, 13772, Note_on_c, 0, 47, 66
2, 13777, Note_on_c, 0, 66, 0
2, 13897, Note_on_c, 0, 47, 0
2, 13939, Note_on_c, 0, 54, 71
2, 13942, Note_on_c, 0, 50, 65
2, 14004, Note_on_c, 0, 54, 0
2, 14021, Note_on_c, 0, 50, 0
2, 14026, Note_on_c, 0, 47, 69
2, 14082, Note_on_c, 0, 47, 0
2, 14120, Note_on_c, 0, 61, 81
2, 14136, Note_on_c, 0, 62, 0
2, 14280, Note_on_c, 0, 47, 71
2, 14282, Note_on_c, 0, 35, 65
2, 14292, Control_c, 0, 64, 127
2, 14453, Note_on_c, 0, 47, 0
2, 14457, Note_on_c, 0, 47, 65
2, 14459, Note_on_c, 0, 62, 75
2, 14461, Control_c, 0, 64, 0
2, 14513, Note_on_c, 0, 61, 0
2, 14517, Note_on_c, 0, 62, 0
2, 14526, Note_on_c, 0, 47, 0
2, 14538, Note_on_c, 0, 35, 0
2, 14573, Note_on_c, 0, 54, 57
2, 14580, Note_on_c, 0, 50, 51
2, 14621, Note_on_c, 0, 54, 0
2, 14627, Note_on_c, 0, 50, 0
2, 14644, Note_on_c, 0, 59, 82
2, 14755, Note_on_c, 0, 47, 61
2, 14817, Note_on_c, 0, 54, 68
2, 14839, Note_on_c, 0, 50, 63
2, 15022, Note_on_c, 0, 47, 0
2, 15022, Note_on_c, 0, 54, 0
2, 15074, Note_on_c, 0, 59, 0
2, 15149, Note_on_c, 0, 50, 0
2, 15171, Note_on_c, 0, 47, 73
2, 15173, Note_on_c, 0, 59, 78
2, 15217, Note_on_c, 0, 59, 0
2, 15295, Note_on_c, 0, 47, 0
2, 15353, Note_on_c, 0, 54, 70
2, 15357, Note_on_c, 0, 59, 81
2, 15362, Note_on_c, 0, 50, 68
2, 15403, Note_on_c, 0, 59, 0
2, 15415, Note_on_c, 0, 54, 0
2, 15426, Note_on_c, 0, 50, 0
2, 15454, Note_on_c, 0, 47, 69
2, 15515, Note_on_c, 0, 47, 0
2, 15544, Note_on_c, 0, 66, 91
2, 15706, Note_on_c, 0, 31, 70
2, 15877, Note_on_c, 0, 43, 58
2, 15936, Note_on_c, 0, 43, 0
2, 15959, Note_on_c, 0, 31, 0
2, 15959, Note_on_c, 0, 54, 76
2, 15962, Note_on_c, 0, 50, 67
2, 16006, Note_on_c, 0, 54, 0
2, 16009, Note_on_c, 0, 50, 0
2, 16128, Note_on_c, 0, 66, 0
2, 16169, Note_on_c, 0, 43, 57
2, 16243, Note_on_c, 0, 66, 82
2, 16246, Note_on_c, 0, 54, 72
2, 16247, Note_on_c, 0, 50, 61
2, 16291, Note_on_c, 0, 66, 0
2, 16432, Note_on_c, 0, 69, 82
2, 16450, Control_c, 0, 64, 127
2, 16585, Control_c, 0, 64, 0
2, 16588, Note_on_c, 0, 54, 0
2, 16604, Note_on_c, 0, 43, 0
2, 16608, Note_on_c, 0, 43, 65
2, 16611, Note_on_c, 0, 66, 85
2, 16627, Note_on_c, 0, 50, 0
2, 16630, Note_on_c, 0, 69, 0
2, 16724, Note_on_c, 0, 43, 0
2, 16776, Note_on_c, 0, 54, 68
2, 16777, Note_on_c, 0, 50, 65
2, 16845, Note_on_c, 0, 54, 0
2, 16861, Note_on_c, 0, 50, 0
2, 16862, Note_on_c, 0, 43, 70
2, 16907, Note_on_c, 0, 43, 0
2, 16966, Note_on_c, 0, 64, 89
2, 17006, Note_on_c, 0, 66, 0
2, 17129, Note_on_c, 0, 31, 71
2, 17308, Note_on_c, 0, 43, 62
2, 17311, Note_on_c, 0, 62, 81
2, 17331, Note_on_c, 0, 64, 0
2, 17346, Note_on_c, 0, 62, 0
2, 17364, Note_on_c, 0, 31, 0
2, 17379, Note_on_c, 0, 43, 0
2, 17415, Note_on_c, 0, 54, 69
2, 17416, Note_on_c, 0, 50, 61
2, 17451, Note_on_c, 0, 54, 0
2, 17453, Note_on_c, 0, 50, 0
2, 17485, Note_on_c, 0, 62, 79
2, 17587, Note_on_c, 0, 43, 66
2, 17653, Note_on_c, 0, 62, 0
2, 17661, Note_on_c, 0, 59, 85
2, 17682, Note_on_c, 0, 54, 70
2, 17683, Note_on_c, 0, 50, 63
2, 17714, Note_on_c, 0, 59, 0
2, 17847, Note_on_c, 0, 59, 86
2, 17863, Control_c, 0, 64, 127
2, 17894, Control_c, 0, 64, 0
2, 17909, Note_on_c, 0, 43, 0
2, 18012, Note_on_c, 0, 59, 0
2, 18012, Note_on_c, 0, 50, 0
2, 18013, Note_on_c, 0, 54, 0
2, 18018, Note_on_c, 0, 57, 81
2, 18018, Note_on_c, 0, 69, 72
2, 18019, Note_on_c, 0, 43, 62
2, 18024, Note_on_c, 0, 69, 0
2, 18139, Note_on_c, 0, 43, 0
2, 18203, Note_on_c, 0, 54, 78
2, 18205, Note_on_c, 0, 50, 74
2, 18273, Note_on_c, 0, 54, 0
2, 18284, Note_on_c, 0, 50, 0
2, 18297, Note_on_c, 0, 43, 66
2, 18338, Note_on_c, 0, 43, 0
2, 18355, Note_on_c, 0, 57, 0
2, 18381, Note_on_c, 0, 66, 88
2, 18566, Note_on_c, 0, 33, 71
2, 18567, Note_on_c, 0, 45, 71
2, 18723, Note_on_c, 0, 45, 0
2, 18735, Note_on_c, 0, 45, 76
2, 18798, Note_on_c, 0, 45, 0
2, 18823, Note_on_c, 0, 33, 0
2, 18827, Note_on_c, 0, 54, 75
2, 18832, Note_on_c, 0, 52, 66
2, 18870, Note_on_c, 0, 54, 0
2, 18873, Note_on_c, 0, 52, 0
2, 19016, Note_on_c, 0, 45, 71
2, 19095, Note_on_c, 0, 64, 80
2, 19102, Note_on_c, 0, 52, 68
2, 19104, Note_on_c, 0, 54, 65
2, 19112, Note_on_c, 0, 66, 0
2, 19128, Note_on_c, 0, 64, 0
2, 19267, Note_on_c, 0, 64, 83
2, 19304, Note_on_c, 0, 45, 0
2, 19411, Note_on_c, 0, 54, 0
2, 19426, Note_on_c, 0, 52, 0
2, 19448, Note_on_c, 0, 62, 82
2, 19449, Note_on_c, 0, 45, 72
2, 19450, Note_on_c, 0, 64, 0
2, 19564, Note_on_c, 0, 45, 0
2, 19610, Note_on_c, 0, 54, 78
2, 19616, Note_on_c, 0, 52, 73
2, 19678, Note_on_c, 0, 54, 0
2, 19697, Note_on_c, 0, 52, 0
2, 19712, Note_on_c, 0, 45, 68
2, 19770, Note_on_c, 0, 45, 0
2, 19803, Note_on_c, 0, 61, 85
2, 19818, Note_on_c, 0, 62, 0
2, 19970, Note_on_c, 0, 45, 79
2, 19971, Note_on_c, 0, 33, 73
2, 20005, Note_on_c, 0, 45, 0
2, 20044, Control_c, 0, 64, 127
2, 20150, Note_on_c, 0, 45, 69
2, 20162, Note_on_c, 0, 62, 76
2, 20175, Control_c, 0, 64, 0
2, 20216, Note_on_c, 0, 62, 0
2, 20221, Note_on_c, 0, 61, 0
2, 20252, Note_on_c, 0, 33, 0
2, 20257, Note_on_c, 0, 54, 70
2, 20260, Note_on_c, 0, 52, 62
2, 20288, Note_on_c, 0, 45, 0
2, 20300, Note_on_c, 0, 54, 0
2, 20305, Note_on_c, 0, 52, 0
2, 20348, Note_on_c, 0, 59, 86
2, 20457, Note_on_c, 0, 45, 70
2, 20539, Note_on_c, 0, 54, 72
2, 20540, Note_on_c, 0, 52, 66
2, 20770, Note_on_c, 0, 45, 0
2, 20826, Note_on_c, 0, 54, 0
2, 20859, Note_on_c, 0, 52, 0
2, 20874, Note_on_c, 0, 59, 0
2, 20877, Note_on_c, 0, 45, 75
2, 20882, Note_on_c, 0, 59, 58
2, 21004, Note_on_c, 0, 45, 0
2, 21053, Note_on_c, 0, 54, 69
2, 21054, Note_on_c, 0, 52, 70
2, 21111, Note_on_c, 0, 54, 0
2, 21135, Note_on_c, 0, 59, 0
2, 21136, Note_on_c, 0, 52, 0
2, 21152, Note_on_c, 0, 45, 75
2, 21199, Note_on_c, 0, 45, 0
2, 21237, Note_on_c, 0, 57, 76
2, 21242, Control_c, 0, 64, 127
2, 21327, Control_c, 0, 64, 0
2, 21407, Note_on_c, 0, 40, 72
2, 21408, Note_on_c, 0, 59, 81
2, 21409, Note_on_c, 0, 57, 0
2, 21504, Control_c, 0, 64, 127
2, 21579, Note_on_c, 0, 47, 67
2, 21679, Note_on_c, 0, 52, 71
2, 21768, Note_on_c, 0, 66, 90
2, 21781, Note_on_c, 0, 54, 70
2, 21791, Note_on_c, 0, 47, 0
2, 21857, Note_on_c, 0, 52, 0
2, 21950, Note_on_c, 0, 47, 69
2, 22038, Note_on_c, 0, 52, 61
2, 22110, Note_on_c, 0, 66, 0
2, 22121, Note_on_c, 0, 66, 86
2, 22133, Note_on_c, 0, 59, 0
2, 22141, Note_on_c, 0, 59, 75
2, 22241, Note_on_c, 0, 52, 0
2, 22287, Note_on_c, 0, 54, 0
2, 22294, Note_on_c, 0, 54, 77
2, 22295, Note_on_c, 0, 66, 0
2, 22306, Note_on_c, 0, 66, 82
2, 22318, Note_on_c, 0, 40, 0
2, 22379, Note_on_c, 0, 47, 0
2, 22409, Note_on_c, 0, 52, 70
2, 22424, Control_c, 0, 64, 0
2, 22453, Note_on_c, 0, 54, 0
2, 22471, Note_on_c, 0, 59, 0
2, 22483, Note_on_c, 0, 69, 92
2, 22485, Note_on_c, 0, 47, 74
2, 22510, Control_c, 0, 64, 127
2, 22516, Note_on_c, 0, 66, 0
2, 22667, Note_on_c, 0, 40, 76
2, 22667, Note_on_c, 0, 71, 97
2, 22709, Note_on_c, 0, 52, 0
2, 22771, Control_c, 0, 64, 0
2, 22794, Note_on_c, 0, 47, 0
2, 22809, Note_on_c, 0, 69, 0
2, 22810, Note_on_c, 0, 40, 0
2, 22835, Note_on_c, 0, 42, 73
2, 23009, Note_on_c, 0, 49, 75
2, 23013, Note_on_c, 0, 66, 87
2, 23047, Note_on_c, 0, 42, 0
2, 23084, Note_on_c, 0, 49, 0
2, 23090, Note_on_c, 0, 52, 69
2, 23149, Note_on_c, 0, 52, 0
2, 23182, Note_on_c, 0, 54, 76
2, 23278, Note_on_c, 0, 54, 0
2, 23281, Note_on_c, 0, 49, 73
2, 23362, Control_c, 0, 64, 127
2, 23377, Control_c, 0, 64, 0
2, 23381, Note_on_c, 0, 64, 88
2, 23381, Note_on_c, 0, 52, 73
2, 23421, Note_on_c, 0, 49, 0
2, 23438, Note_on_c, 0, 66, 0
2, 23459, Note_on_c, 0, 54, 74
2, 23508, Note_on_c, 0, 52, 0
2, 23523, Control_c, 0, 64, 127
2, 23550, Note_on_c, 0, 61, 76
2, 23623, Note_on_c, 0, 54, 0
2, 23628, Note_on_c, 0, 54, 80
2, 23731, Note_on_c, 0, 71, 0
2, 23736, Note_on_c, 0, 52, 71
2, 23738, Note_on_c, 0, 71, 86
2, 23823, Note_on_c, 0, 61, 0
2, 23837, Note_on_c, 0, 49, 68
2, 23849, Control_c, 0, 64, 0
2, 23852, Note_on_c, 0, 52, 0
2, 23854, Note_on_c, 0, 54, 0
2, 23854, Note_on_c, 0, 71, 0
2, 23869, Note_on_c, 0, 64, 0
2, 23884, Note_on_c, 0, 49, 0
2, 23916, Note_on_c, 0, 42, 79
2, 23918, Note_on_c, 0, 71, 94
2, 23973, Note_on_c, 0, 71, 0
2, 24038, Control_c, 0, 64, 127
2, 24105, Note_on_c, 0, 78, 103
2, 24110, Note_on_c, 0, 74, 75
2, 24111, Note_on_c, 0, 71, 81
2, 24113, Note_on_c, 0, 66, 84
2, 24215, Note_on_c, 0, 42, 0
2, 24219, Control_c, 0, 64, 0
2, 24276, Note_on_c, 0, 47, 76
2, 24278, Note_on_c, 0, 57, 80
2, 24278, Note_on_c, 0, 69, 73
2, 24281, Note_on_c, 0, 54, 71
2, 24376, Note_on_c, 0, 57, 0
2, 24431, Note_on_c, 0, 47, 0
2, 24433, Note_on_c, 0, 54, 0
2, 24454, Note_on_c, 0, 59, 81
2, 24547, Note_on_c, 0, 47, 65
2, 24583, Note_on_c, 0, 59, 0
2, 24639, Note_on_c, 0, 54, 68
2, 24683, Note_on_c, 0, 47, 0
2, 24688, Note_on_c, 0, 54, 0
2, 24809, Note_on_c, 0, 47, 72
2, 24812, Note_on_c, 0, 57, 72
2, 24814, Note_on_c, 0, 76, 83
2, 24867, Control_c, 0, 64, 127
2, 24998, Note_on_c, 0, 76, 0
2, 25008, Note_on_c, 0, 76, 88
2, 25009, Note_on_c, 0, 62, 74
2, 25175, Note_on_c, 0, 74, 0
2, 25185, Note_on_c, 0, 74, 86
2, 25278, Note_on_c, 0, 61, 71
2, 25528, Note_on_c, 0, 73, 86
2, 25551, Note_on_c, 0, 57, 0
2, 25551, Note_on_c, 0, 69, 0
2, 25556, Note_on_c, 0, 57, 64
2, 25557, Note_on_c, 0, 69, 56
2, 25628, Note_on_c, 0, 62, 0
2, 25629, Note_on_c, 0, 71, 0
2, 25629, Note_on_c, 0, 78, 0
2, 25630, Note_on_c, 0, 61, 0
2, 25630, Note_on_c, 0, 74, 0
2, 25631, Note_on_c, 0, 76, 0
2, 25631, Note_on_c, 0, 57, 0
2, 25631, Control_c, 0, 64, 0
2, 25635, Note_on_c, 0, 47, 0
2, 25635, Note_on_c, 0, 66, 0
2, 25697, Note_on_c, 0, 69, 0
2, 25701, Note_on_c, 0, 57, 74
2, 25702, Note_on_c, 0, 69, 68
2, 25707, Note_on_c, 0, 47, 79
2, 25843, Note_on_c, 0, 57, 0
2, 25850, Control_c, 0, 64, 127
2, 25870, Note_on_c, 0, 59, 81
2, 25879, Note_on_c, 0, 74, 79
2, 25996, Note_on_c, 0, 47, 0
2, 26004, Note_on_c, 0, 47, 71
2, 26069, Note_on_c, 0, 54, 74
2, 26070, Note_on_c, 0, 71, 89
2, 26168, Control_c, 0, 64, 0
2, 26169, Note_on_c, 0, 47, 0
2, 26169, Note_on_c, 0, 59, 0
2, 26169, Note_on_c, 0, 54, 0
2, 26181, Note_on_c, 0, 73, 0
2, 26219, Note_on_c, 0, 69, 0
2, 26224, Note_on_c, 0, 47, 72
2, 26227, Note_on_c, 0, 69, 71
2, 26228, Note_on_c, 0, 57, 76
2, 26280, Control_c, 0, 64, 127
2, 26409, Note_on_c, 0, 62, 83
2, 26565, Note_on_c, 0, 71, 0
2, 26570, Note_on_c, 0, 71, 85
2, 26679, Note_on_c, 0, 61, 79
2, 26680, Note_on_c, 0, 74, 0
2, 26764, Note_on_c, 0, 71, 0
2, 26770, Note_on_c, 0, 71, 96
2, 26910, Note_on_c, 0, 57, 0
2, 26919, Note_on_c, 0, 57, 72
2, 26945, Note_on_c, 0, 78, 102
2, 26949, Note_on_c, 0, 71, 0
2, 26954, Note_on_c, 0, 71, 75
2, 26957, Note_on_c, 0, 74, 78
2, 26960, Note_on_c, 0, 66, 82
2, 26967, Note_on_c, 0, 57, 0
2, 26974, Note_on_c, 0, 61, 0
2, 26974, Note_on_c, 0, 62, 0
2, 26976, Note_on_c, 0, 47, 0
2, 27042, Control_c, 0, 64, 0
2, 27106, Note_on_c, 0, 57, 80
2, 27107, Note_on_c, 0, 50, 83
2, 27107, Note_on_c, 0, 43, 83
2, 27278, Note_on_c, 0, 59, 76
2, 27371, Note_on_c, 0, 43, 0
2, 27376, Note_on_c, 0, 43, 70
2, 27379, Note_on_c, 0, 69, 0
2, 27402, Note_on_c, 0, 57, 0
2, 27432, Note_on_c, 0, 50, 0
2, 27439, Note_on_c, 0, 43, 0
2, 27440, Note_on_c, 0, 59, 0
2, 27469, Note_on_c, 0, 54, 70
2, 27648, Note_on_c, 0, 78, 0
2, 27654, Note_on_c, 0, 43, 73
2, 27656, Note_on_c, 0, 57, 74
2, 27659, Note_on_c, 0, 78, 90
2, 27671, Note_on_c, 0, 54, 0
2, 27833, Note_on_c, 0, 62, 76
2, 27836, Note_on_c, 0, 81, 94
2, 27947, Control_c, 0, 64, 127
2, 28008, Note_on_c, 0, 78, 0
2, 28013, Note_on_c, 0, 78, 95
2, 28121, Note_on_c, 0, 61, 69
2, 28350, Note_on_c, 0, 76, 89
2, 28362, Note_on_c, 0, 57, 0
2, 28372, Note_on_c, 0, 57, 69
2, 28472, Note_on_c, 0, 43, 0
2, 28473, Note_on_c, 0, 62, 0
2, 28473, Note_on_c, 0, 74, 0
2, 28473, Note_on_c, 0, 61, 0
2, 28474, Note_on_c, 0, 78, 0
2, 28474, Note_on_c, 0, 81, 0
2, 28476, Control_c, 0, 64, 0
2, 28492, Note_on_c, 0, 57, 0
2, 28492, Note_on_c, 0, 66, 0
2, 28492, Note_on_c, 0, 71, 0
2, 28530, Note_on_c, 0, 57, 77
2, 28542, Note_on_c, 0, 50, 77
2, 28542, Note_on_c, 0, 43, 68
2, 28578, Note_on_c, 0, 57, 0
2, 28623, Control_c, 0, 64, 127
2, 28710, Note_on_c, 0, 59, 79
2, 28712, Note_on_c, 0, 74, 79
2, 28792, Note_on_c, 0, 43, 0
2, 28798, Note_on_c, 0, 43, 68
2, 28892, Note_on_c, 0, 74, 0
2, 28896, Note_on_c, 0, 74, 93
2, 28898, Note_on_c, 0, 54, 72
2, 28918, Note_on_c, 0, 43, 0
2, 28919, Note_on_c, 0, 76, 0
2, 28924, Note_on_c, 0, 59, 0
2, 28926, Control_c, 0, 64, 0
2, 28938, Note_on_c, 0, 50, 0
2, 28952, Note_on_c, 0, 54, 0
2, 29072, Note_on_c, 0, 57, 82
2, 29073, Note_on_c, 0, 43, 75
2, 29079, Note_on_c, 0, 71, 84
2, 29114, Control_c, 0, 64, 127
2, 29253, Note_on_c, 0, 71, 0
2, 29257, Note_on_c, 0, 62, 80
2, 29259, Note_on_c, 0, 71, 93
2, 29426, Note_on_c, 0, 69, 79
2, 29530, Note_on_c, 0, 61, 80
2, 29598, Note_on_c, 0, 71, 0
2, 29608, Note_on_c, 0, 71, 92
2, 29767, Note_on_c, 0, 57, 0
2, 29771, Note_on_c, 0, 78, 106
2, 29775, Note_on_c, 0, 69, 0
2, 29779, Note_on_c, 0, 57, 84
2, 29780, Note_on_c, 0, 69, 85
2, 29784, Note_on_c, 0, 73, 85
2, 29785, Note_on_c, 0, 66, 86
2, 29862, Note_on_c, 0, 43, 0
2, 29862, Note_on_c, 0, 62, 0
2, 29863, Note_on_c, 0, 61, 0
2, 29863, Note_on_c, 0, 71, 0
2, 29864, Note_on_c, 0, 57, 0
2, 29864, Note_on_c, 0, 74, 0
2, 29873, Control_c, 0, 64, 0
2, 29942, Note_on_c, 0, 45, 84
2, 29942, Note_on_c, 0, 57, 81
2, 29944, Note_on_c, 0, 52, 75
2, 30005, Control_c, 0, 64, 127
2, 30124, Note_on_c, 0, 59, 74
2, 30167, Note_on_c, 0, 57, 0
2, 30171, Note_on_c, 0, 57, 42
2, 30197, Note_on_c, 0, 45, 0
2, 30201, Note_on_c, 0, 45, 62
2, 30259, Control_c, 0, 64, 0
2, 30265, Note_on_c, 0, 57, 0
2, 30266, Note_on_c, 0, 52, 0
2, 30269, Note_on_c, 0, 59, 0
2, 30309, Note_on_c, 0, 54, 62
2, 30336, Note_on_c, 0, 45, 0
2, 30348, Note_on_c, 0, 54, 0
2, 30470, Note_on_c, 0, 57, 71
2, 30470, Note_on_c, 0, 45, 69
2, 30474, Control_c, 0, 64, 127
2, 30507, Note_on_c, 0, 76, 80
2, 30658, Note_on_c, 0, 45, 0
2, 30666, Note_on_c, 0, 76, 0
2, 30668, Note_on_c, 0, 45, 54
2, 30671, Note_on_c, 0, 62, 72
2, 30675, Note_on_c, 0, 76, 92
2, 30863, Note_on_c, 0, 74, 86
2, 30881, Note_on_c, 0, 57, 0
2, 30885, Note_on_c, 0, 57, 45
2, 30953, Note_on_c, 0, 61, 71
2, 31203, Note_on_c, 0, 57, 0
2, 31203, Note_on_c, 0, 69, 0
2, 31203, Note_on_c, 0, 73, 0
2, 31208, Note_on_c, 0, 57, 76
2, 31209, Note_on_c, 0, 73, 85
2, 31212, Note_on_c, 0, 69, 68
2, 31302, Note_on_c, 0, 57, 0
2, 31302, Note_on_c, 0, 69, 0
2, 31303, Control_c, 0, 64, 0
2, 31303, Note_on_c, 0, 62, 0
2, 31304, Note_on_c, 0, 61, 0
2, 31304, Note_on_c, 0, 66, 0
2, 31304, Note_on_c, 0, 74, 0
2, 31305, Note_on_c, 0, 76, 0
2, 31306, Note_on_c, 0, 78, 0
2, 31319, Note_on_c, 0, 45, 0
2, 31365, Note_on_c, 0, 57, 84
2, 31366, Note_on_c, 0, 69, 77
2, 31367, Note_on_c, 0, 45, 81
2, 31368, Note_on_c, 0, 52, 73
2, 31413, Note_on_c, 0, 57, 0
2, 31417, Note_on_c, 0, 45, 0
2, 31434, Control_c, 0, 64, 127
2, 31553, Note_on_c, 0, 59, 78
2, 31553, Note_on_c, 0, 45, 67
2, 31554, Note_on_c, 0, 74, 81
2, 31610, Note_on_c, 0, 45, 0
2, 31615, Note_on_c, 0, 45, 72
2, 31729, Note_on_c, 0, 71, 89
2, 31732, Note_on_c, 0, 54, 67
2, 31775, Note_on_c, 0, 74, 0
2, 31775, Note_on_c, 0, 52, 0
2, 31775, Control_c, 0, 64, 0
2, 31777, Note_on_c, 0, 69, 0
2, 31777, Note_on_c, 0, 45, 0
2, 31777, Note_on_c, 0, 59, 0
2, 31782, Note_on_c, 0, 54, 0
2, 31787, Note_on_c, 0, 73, 0
2, 31915, Note_on_c, 0, 69, 70
2, 31915, Note_on_c, 0, 45, 76
2, 31918, Note_on_c, 0, 57, 72
2, 31941, Control_c, 0, 64, 127
2, 32080, Note_on_c, 0, 62, 78
2, 32094, Note_on_c, 0, 45, 0
2, 32101, Note_on_c, 0, 45, 52
2, 32332, Note_on_c, 0, 45, 0
2, 32344, Note_on_c, 0, 45, 53
2, 32344, Note_on_c, 0, 61, 77
2, 32616, Note_on_c, 0, 45, 0
2, 32616, Note_on_c, 0, 57, 0
2, 32624, Note_on_c, 0, 69, 0
2, 32625, Note_on_c, 0, 57, 67
2, 32626, Note_on_c, 0, 45, 50
2, 32629, Note_on_c, 0, 69, 81
2, 32755, Control_c, 0, 64, 0
2, 32755, Note_on_c, 0, 62, 0
2, 32756, Note_on_c, 0, 61, 0
2, 32756, Note_on_c, 0, 71, 0
2, 32756, Note_on_c, 0, 57, 0
2, 32757, Note_on_c, 0, 45, 0
2, 32757, Note_on_c, 0, 69, 0
2, 32809, Note_on_c, 0, 71, 95
2, 32812, Note_on_c, 0, 66, 79
2, 32820, Note_on_c, 0, 40, 71
2, 32820, Note_on_c, 0, 64, 69
2, 32820, Note_on_c, 0, 59, 71
2, 32878, Control_c, 0, 64, 127
2, 32976, Note_on_c, 0, 47, 69
2, 33054, Note_on_c, 0, 66, 0
2, 33060, Note_on_c, 0, 52, 70
2, 33165, Note_on_c, 0, 78, 100
2, 33165, Note_on_c, 0, 54, 70
2, 33184, Note_on_c, 0, 66, 74
2, 33323, Note_on_c, 0, 47, 0
2, 33333, Note_on_c, 0, 47, 69
2, 33415, Note_on_c, 0, 52, 0
2, 33426, Note_on_c, 0, 52, 64
2, 33507, Note_on_c, 0, 78, 0
2, 33515, Note_on_c, 0, 66, 0
2, 33516, Note_on_c, 0, 78, 95
2, 33526, Note_on_c, 0, 66, 79
2, 33530, Note_on_c, 0, 59, 0
2, 33542, Note_on_c, 0, 59, 74
2, 33692, Note_on_c, 0, 54, 0
2, 33697, Note_on_c, 0, 54, 82
2, 33707, Note_on_c, 0, 78, 0
2, 33711, Note_on_c, 0, 78, 90
2, 33715, Note_on_c, 0, 66, 0
2, 33723, Note_on_c, 0, 66, 75
2, 33799, Note_on_c, 0, 52, 0
2, 33808, Note_on_c, 0, 52, 67
2, 33876, Note_on_c, 0, 47, 0
2, 33878, Note_on_c, 0, 81, 92
2, 33880, Note_on_c, 0, 69, 80
2, 33884, Note_on_c, 0, 47, 74
2, 34045, Note_on_c, 0, 40, 0
2, 34053, Note_on_c, 0, 40, 79
2, 34059, Note_on_c, 0, 83, 106
2, 34060, Note_on_c, 0, 78, 0
2, 34068, Note_on_c, 0, 71, 0
2, 34071, Note_on_c, 0, 78, 95
2, 34075, Note_on_c, 0, 71, 86
2, 34076, Note_on_c, 0, 76, 91
2, 34149, Note_on_c, 0, 81, 0
2, 34149, Note_on_c, 0, 69, 0
2, 34149, Note_on_c, 0, 59, 0
2, 34149, Note_on_c, 0, 66, 0
2, 34149, Note_on_c, 0, 52, 0
2, 34149, Note_on_c, 0, 47, 0
2, 34149, Note_on_c, 0, 40, 0
2, 34150, Control_c, 0, 64, 0
2, 34152, Note_on_c, 0, 64, 0
2, 34160, Note_on_c, 0, 54, 0
2, 34219, Note_on_c, 0, 42, 73
2, 34260, Control_c, 0, 64, 127
2, 34389, Note_on_c, 0, 49, 70
2, 34406, Note_on_c, 0, 78, 0
2, 34417, Note_on_c, 0, 78, 97
2, 34424, Note_on_c, 0, 66, 86
2, 34464, Note_on_c, 0, 52, 73
2, 34567, Note_on_c, 0, 54, 62
2, 34644, Note_on_c, 0, 49, 0
2, 34649, Note_on_c, 0, 49, 70
2, 34752, Note_on_c, 0, 52, 0
2, 34759, Note_on_c, 0, 76, 0
2, 34761, Note_on_c, 0, 52, 66
2, 34770, Note_on_c, 0, 76, 93
2, 34786, Note_on_c, 0, 64, 80
2, 34836, Note_on_c, 0, 54, 0
2, 34844, Note_on_c, 0, 54, 59
2, 34939, Note_on_c, 0, 61, 77
2, 35013, Note_on_c, 0, 54, 0
2, 35019, Note_on_c, 0, 54, 74
2, 35112, Note_on_c, 0, 52, 0
2, 35123, Note_on_c, 0, 52, 61
2, 35197, Note_on_c, 0, 49, 0
2, 35207, Note_on_c, 0, 49, 72
2, 35235, Control_c, 0, 64, 0
2, 35238, Note_on_c, 0, 42, 0
2, 35239, Note_on_c, 0, 54, 0
2, 35240, Note_on_c, 0, 61, 0
2, 35240, Note_on_c, 0, 64, 0
2, 35241, Note_on_c, 0, 66, 0
2, 35241, Note_on_c, 0, 78, 0
2, 35241, Note_on_c, 0, 76, 0
2, 35246, Note_on_c, 0, 83, 0
2, 35251, Note_on_c, 0, 71, 0
2, 35258, Note_on_c, 0, 52, 0
2, 35298, Note_on_c, 0, 42, 70
2, 35301, Note_on_c, 0, 49, 0
2, 35374, Control_c, 0, 64, 127
2, 35463, Note_on_c, 0, 57, 82
2, 35463, Note_on_c, 0, 69, 70
2, 35635, Note_on_c, 0, 57, 0
2, 35635, Note_on_c, 0, 69, 0
2, 35641, Note_on_c, 0, 69, 75
2, 35643, Control_c, 0, 64, 0
2, 35644, Note_on_c, 0, 57, 83
2, 35646, Note_on_c, 0, 42, 0
2, 35650, Note_on_c, 0, 43, 83
2, 35653, Note_on_c, 0, 50, 84
2, 35719, Note_on_c, 0, 57, 0
2, 35735, Control_c, 0, 64, 127
2, 35819, Note_on_c, 0, 69, 0
2, 35826, Note_on_c, 0, 59, 90
2, 35829, Note_on_c, 0, 69, 70
2, 35907, Note_on_c, 0, 71, 84
2, 35967, Note_on_c, 0, 78, 77
2, 36062, Note_on_c, 0, 81, 75
2, 36135, Note_on_c, 0, 83, 80
2, 36188, Note_on_c, 0, 59, 0
2, 36194, Note_on_c, 0, 66, 84
2, 36199, Note_on_c, 0, 59, 83
2, 36206, Note_on_c, 0, 62, 79
2, 36208, Note_on_c, 0, 90, 89
2, 36311, Note_on_c, 0, 83, 0
2, 36320, Note_on_c, 0, 83, 81
2, 36372, Note_on_c, 0, 81, 0
2, 36376, Note_on_c, 0, 81, 69
2, 36464, Note_on_c, 0, 78, 0
2, 36468, Note_on_c, 0, 78, 73
2, 36525, Note_on_c, 0, 55, 64
2, 36556, Note_on_c, 0, 71, 0
2, 36567, Note_on_c, 0, 71, 72
2, 36641, Note_on_c, 0, 69, 0
2, 36652, Note_on_c, 0, 69, 55
2, 36687, Note_on_c, 0, 59, 0
2, 36687, Note_on_c, 0, 62, 0
2, 36694, Note_on_c, 0, 59, 75
2, 36697, Note_on_c, 0, 62, 69
2, 36720, Note_on_c, 0, 86, 82
2, 36871, Note_on_c, 0, 69, 0
2, 36877, Note_on_c, 0, 57, 81
2, 36877, Note_on_c, 0, 69, 67
2, 37007, Note_on_c, 0, 55, 0
2, 37007, Note_on_c, 0, 78, 0
2, 37008, Note_on_c, 0, 71, 0
2, 37008, Note_on_c, 0, 83, 0
2, 37009, Note_on_c, 0, 86, 0
2, 37009, Note_on_c, 0, 50, 0
2, 37009, Note_on_c, 0, 66, 0
2, 37009, Control_c, 0, 64, 0
2, 37009, Note_on_c, 0, 81, 0
2, 37009, Note_on_c, 0, 57, 0
2, 37010, Note_on_c, 0, 59, 0
2, 37010, Note_on_c, 0, 62, 0
2, 37012, Note_on_c, 0, 43, 0
2, 37017, Note_on_c, 0, 90, 0
2, 37040, Note_on_c, 0, 69, 0
2, 37049, Note_on_c, 0, 57, 90
2, 37049, Note_on_c, 0, 69, 84
2, 37051, Note_on_c, 0, 45, 86
2, 37052, Note_on_c, 0, 52, 86
2, 37125, Control_c, 0, 64, 127
2, 37178, Note_on_c, 0, 69, 0
2, 37184, Note_on_c, 0, 69, 77
2, 37237, Note_on_c, 0, 59, 92
2, 37255, Note_on_c, 0, 45, 0
2, 37269, Note_on_c, 0, 71, 86
2, 37349, Note_on_c, 0, 78, 64
2, 37434, Note_on_c, 0, 81, 77
2, 37508, Note_on_c, 0, 83, 77
2, 37516, Note_on_c, 0, 57, 0
2, 37603, Note_on_c, 0, 66, 90
2, 37605, Note_on_c, 0, 90, 95
2, 37607, Note_on_c, 0, 57, 78
2, 37608, Note_on_c, 0, 62, 79
2, 37701, Note_on_c, 0, 83, 0
2, 37707, Note_on_c, 0, 83, 79
2, 37754, Note_on_c, 0, 81, 0
2, 37764, Note_on_c, 0, 81, 63
2, 37862, Note_on_c, 0, 78, 0
2, 37871, Note_on_c, 0, 78, 64
2, 37939, Note_on_c, 0, 57, 0
2, 37939, Note_on_c, 0, 71, 0
2, 37945, Note_on_c, 0, 57, 71
2, 37946, Note_on_c, 0, 71, 79
2, 38031, Note_on_c, 0, 69, 0
2, 38042, Note_on_c, 0, 69, 55
2, 38123, Note_on_c, 0, 59, 0
2, 38126, Note_on_c, 0, 64, 81
2, 38131, Note_on_c, 0, 88, 85
2, 38133, Note_on_c, 0, 59, 76
2, 38292, Note_on_c, 0, 57, 0
2, 38292, Note_on_c, 0, 69, 0
2, 38301, Note_on_c, 0, 57, 80
2, 38303, Note_on_c, 0, 69, 70
2, 38449, Note_on_c, 0, 81, 0
2, 38449, Note_on_c, 0, 52, 0
2, 38450, Note_on_c, 0, 62, 0
2, 38450, Note_on_c, 0, 90, 0
2, 38450, Note_on_c, 0, 78, 0
2, 38450, Note_on_c, 0, 71, 0
2, 38450, Note_on_c, 0, 66, 0
2, 38450, Note_on_c, 0, 83, 0
2, 38450, Note_on_c, 0, 59, 0
2, 38451, Note_on_c, 0, 88, 0
2, 38451, Note_on_c, 0, 64, 0
2, 38451, Control_c, 0, 64, 0
2, 38469, Note_on_c, 0, 57, 0
2, 38469, Note_on_c, 0, 69, 0
2, 38473, Note_on_c, 0, 69, 84
2, 38474, Note_on_c, 0, 57, 88
2, 38475, Note_on_c, 0, 47, 83
2, 38480, Note_on_c, 0, 54, 85
2, 38545, Control_c, 0, 64, 127
2, 38584, Note_on_c, 0, 69, 0
2, 38594, Note_on_c, 0, 69, 71
2, 38638, Note_on_c, 0, 54, 0
2, 38664, Note_on_c, 0, 59, 91
2, 38666, Note_on_c, 0, 71, 88
2, 38747, Note_on_c, 0, 78, 79
2, 38836, Note_on_c, 0, 81, 74
2, 38853, Note_on_c, 0, 57, 0
2, 38913, Note_on_c, 0, 83, 79
2, 39005, Note_on_c, 0, 66, 95
2, 39009, Note_on_c, 0, 90, 98
2, 39014, Note_on_c, 0, 59, 0
2, 39018, Note_on_c, 0, 62, 82
2, 39018, Note_on_c, 0, 59, 83
2, 39045, Note_on_c, 0, 47, 0
2, 39091, Note_on_c, 0, 83, 0
2, 39099, Note_on_c, 0, 83, 78
2, 39152, Note_on_c, 0, 81, 0
2, 39157, Note_on_c, 0, 81, 68
2, 39191, Note_on_c, 0, 71, 0
2, 39201, Note_on_c, 0, 71, 43
2, 39252, Note_on_c, 0, 78, 0
2, 39260, Note_on_c, 0, 78, 67
2, 39329, Note_on_c, 0, 71, 0
2, 39334, Note_on_c, 0, 71, 78
2, 39355, Note_on_c, 0, 57, 72
2, 39406, Note_on_c, 0, 69, 0
2, 39412, Note_on_c, 0, 69, 59
2, 39519, Note_on_c, 0, 86, 88
2, 39533, Note_on_c, 0, 64, 91
2, 39536, Note_on_c, 0, 59, 0
2, 39542, Note_on_c, 0, 59, 88
2, 39697, Note_on_c, 0, 62, 0
2, 39701, Note_on_c, 0, 62, 81
2, 39849, Note_on_c, 0, 71, 0
2, 39850, Note_on_c, 0, 81, 0
2, 39850, Note_on_c, 0, 59, 0
2, 39850, Note_on_c, 0, 86, 0
2, 39850, Note_on_c, 0, 57, 0
2, 39850, Note_on_c, 0, 78, 0
2, 39850, Note_on_c, 0, 66, 0
2, 39851, Note_on_c, 0, 62, 0
2, 39851, Note_on_c, 0, 83, 0
2, 39851, Note_on_c, 0, 64, 0
2, 39851, Control_c, 0, 64, 0
2, 39859, Note_on_c, 0, 90, 0
2, 39866, Note_on_c, 0, 69, 0
2, 39893, Note_on_c, 0, 47, 76
2, 39893, Note_on_c, 0, 64, 88
2, 39898, Note_on_c, 0, 54, 83
2, 39951, Control_c, 0, 64, 127
2, 39972, Note_on_c, 0, 69, 82
2, 40052, Note_on_c, 0, 71, 84
2, 40143, Note_on_c, 0, 69, 0
2, 40149, Note_on_c, 0, 57, 85
2, 40153, Note_on_c, 0, 69, 78
2, 40154, Note_on_c, 0, 76, 77
2, 40232, Note_on_c, 0, 81, 76
2, 40338, Note_on_c, 0, 83, 72
2, 40423, Note_on_c, 0, 59, 93
2, 40423, Note_on_c, 0, 88, 92
2, 40504, Note_on_c, 0, 83, 0
2, 40508, Note_on_c, 0, 83, 77
2, 40581, Note_on_c, 0, 81, 0
2, 40591, Note_on_c, 0, 81, 73
2, 40657, Note_on_c, 0, 57, 0
2, 40657, Note_on_c, 0, 76, 0
2, 40662, Note_on_c, 0, 76, 79
2, 40663, Note_on_c, 0, 57, 60
2, 40742, Note_on_c, 0, 47, 0
2, 40742, Note_on_c, 0, 71, 0
2, 40750, Note_on_c, 0, 47, 68
2, 40753, Note_on_c, 0, 71, 84
2, 40826, Note_on_c, 0, 69, 0
2, 40833, Note_on_c, 0, 69, 73
2, 40926, Note_on_c, 0, 54, 0
2, 40926, Note_on_c, 0, 57, 0
2, 40934, Note_on_c, 0, 47, 0
2, 40937, Note_on_c, 0, 86, 88
2, 40937, Note_on_c, 0, 54, 74
2, 40938, Note_on_c, 0, 57, 74
2, 40942, Note_on_c, 0, 47, 62
2, 41095, Note_on_c, 0, 69, 0
2, 41106, Note_on_c, 0, 69, 86
2, 41141, Note_on_c, 0, 57, 0
2, 41152, Note_on_c, 0, 57, 47
2, 41256, Note_on_c, 0, 47, 0
2, 41258, Control_c, 0, 64, 0
2, 41258, Note_on_c, 0, 57, 0
2, 41258, Note_on_c, 0, 81, 0
2, 41258, Note_on_c, 0, 86, 0
2, 41258, Note_on_c, 0, 76, 0
2, 41258, Note_on_c, 0, 88, 0
2, 41258, Note_on_c, 0, 64, 0
2, 41258, Note_on_c, 0, 59, 0
2, 41259, Note_on_c, 0, 83, 0
2, 41272, Note_on_c, 0, 54, 0
2, 41272, Note_on_c, 0, 71, 0
2, 41280, Note_on_c, 0, 69, 0
2, 41286, Note_on_c, 0, 69, 88
2, 41288, Note_on_c, 0, 43, 81
2, 41364, Control_c, 0, 64, 127
2, 41396, Note_on_c, 0, 50, 61
2, 41449, Note_on_c, 0, 55, 78
2, 41466, Note_on_c, 0, 71, 87
2, 41551, Note_on_c, 0, 57, 77
2, 41650, Note_on_c, 0, 59, 77
2, 41739, Note_on_c, 0, 62, 58
2, 41820, Note_on_c, 0, 78, 102
2, 41823, Note_on_c, 0, 66, 82
2, 41894, Note_on_c, 0, 62, 0
2, 41900, Note_on_c, 0, 62, 65
2, 41971, Note_on_c, 0, 59, 0
2, 41981, Note_on_c, 0, 59, 80
2, 42032, Note_on_c, 0, 57, 0
2, 42036, Note_on_c, 0, 57, 71
2, 42140, Note_on_c, 0, 55, 0
2, 42145, Note_on_c, 0, 55, 60
2, 42174, Note_on_c, 0, 81, 76
2, 42224, Note_on_c, 0, 50, 0
2, 42234, Note_on_c, 0, 50, 65
2, 42332, Note_on_c, 0, 43, 0
2, 42336, Note_on_c, 0, 43, 59
2, 42350, Note_on_c, 0, 86, 77
2, 42393, Note_on_c, 0, 50, 0
2, 42397, Note_on_c, 0, 50, 73
2, 42493, Note_on_c, 0, 55, 0
2, 42503, Note_on_c, 0, 55, 63
2, 42524, Note_on_c, 0, 69, 0
2, 42528, Note_on_c, 0, 69, 76
2, 42570, Note_on_c, 0, 50, 0
2, 42574, Note_on_c, 0, 50, 68
2, 42659, Note_on_c, 0, 81, 0
2, 42660, Control_c, 0, 64, 0
2, 42660, Note_on_c, 0, 66, 0
2, 42660, Note_on_c, 0, 86, 0
2, 42660, Note_on_c, 0, 78, 0
2, 42661, Note_on_c, 0, 50, 0
2, 42661, Note_on_c, 0, 57, 0
2, 42661, Note_on_c, 0, 71, 0
2, 42661, Note_on_c, 0, 59, 0
2, 42661, Note_on_c, 0, 62, 0
2, 42663, Note_on_c, 0, 43, 0
2, 42677, Note_on_c, 0, 55, 0
2, 42677, Note_on_c, 0, 69, 0
2, 42688, Note_on_c, 0, 45, 73
2, 42689, Note_on_c, 0, 69, 94
2, 42754, Control_c, 0, 64, 127
2, 42810, Note_on_c, 0, 52, 59
2, 42874, Note_on_c, 0, 71, 87
2, 42881, Note_on_c, 0, 57, 69
2, 42992, Note_on_c, 0, 59, 76
2, 43096, Note_on_c, 0, 61, 69
2, 43180, Note_on_c, 0, 64, 69
2, 43217, Note_on_c, 0, 76, 96
2, 43246, Note_on_c, 0, 69, 0
2, 43252, Note_on_c, 0, 69, 77
2, 43330, Note_on_c, 0, 64, 0
2, 43337, Note_on_c, 0, 64, 71
2, 43384, Note_on_c, 0, 61, 0
2, 43394, Note_on_c, 0, 61, 72
2, 43461, Note_on_c, 0, 59, 0
2, 43467, Note_on_c, 0, 59, 66
2, 43553, Note_on_c, 0, 57, 0
2, 43560, Note_on_c, 0, 57, 70
2, 43561, Note_on_c, 0, 81, 81
2, 43645, Note_on_c, 0, 52, 0
2, 43656, Note_on_c, 0, 52, 53
2, 43737, Note_on_c, 0, 45, 0
2, 43740, Note_on_c, 0, 88, 93
2, 43744, Note_on_c, 0, 45, 76
2, 43814, Note_on_c, 0, 52, 0
2, 43819, Note_on_c, 0, 52, 61
2, 43906, Note_on_c, 0, 69, 0
2, 43914, Note_on_c, 0, 57, 0
2, 43917, Note_on_c, 0, 69, 82
2, 43924, Note_on_c, 0, 57, 66
2, 43975, Note_on_c, 0, 52, 0
2, 43980, Note_on_c, 0, 52, 58
2, 44051, Control_c, 0, 64, 0
2, 44056, Note_on_c, 0, 52, 0
2, 44056, Note_on_c, 0, 81, 0
2, 44056, Note_on_c, 0, 71, 0
2, 44056, Note_on_c, 0, 45, 0
2, 44056, Note_on_c, 0, 76, 0
2, 44056, Note_on_c, 0, 61, 0
2, 44056, Note_on_c, 0, 64, 0
2, 44056, Note_on_c, 0, 59, 0
2, 44057, Note_on_c, 0, 88, 0
2, 44075, Note_on_c, 0, 57, 0
2, 44083, Note_on_c, 0, 69, 0
2, 44088, Note_on_c, 0, 69, 92
2, 44093, Note_on_c, 0, 40, 69
2, 44152, Control_c, 0, 64, 127
2, 44192, Note_on_c, 0, 47, 68
2, 44270, Note_on_c, 0, 52, 72
2, 44275, Note_on_c, 0, 71, 87
2, 44368, Note_on_c, 0, 55, 67
2, 44457, Note_on_c, 0, 57, 70
2, 44554, Note_on_c, 0, 59, 65
2, 44605, Note_on_c, 0, 52, 0
2, 44613, Control_c, 0, 64, 0
2, 44614, Note_on_c, 0, 55, 0
2, 44615, Note_on_c, 0, 74, 84
2, 44615, Note_on_c, 0, 57, 0
2, 44616, Note_on_c, 0, 52, 76
2, 44616, Note_on_c, 0, 71, 0
2, 44616, Note_on_c, 0, 59, 0
2, 44617, Note_on_c, 0, 47, 0
2, 44617, Note_on_c, 0, 40, 0
2, 44620, Note_on_c, 0, 69, 0
2, 44697, Control_c, 0, 64, 127
2, 44725, Note_on_c, 0, 55, 56
2, 44794, Note_on_c, 0, 57, 66
2, 44862, Note_on_c, 0, 59, 74
2, 44970, Note_on_c, 0, 61, 75
2, 44970, Note_on_c, 0, 73, 83
2, 45079, Note_on_c, 0, 62, 64
2, 45143, Note_on_c, 0, 74, 0
2, 45153, Note_on_c, 0, 64, 73
2, 45154, Note_on_c, 0, 74, 78
2, 45270, Note_on_c, 0, 66, 59
2, 45319, Note_on_c, 0, 73, 0
2, 45327, Note_on_c, 0, 73, 79
2, 45344, Note_on_c, 0, 67, 62
2, 45413, Note_on_c, 0, 69, 62
2, 45531, Note_on_c, 0, 71, 70
2, 46091, Control_c, 0, 64, 0
2, 46100, Note_on_c, 0, 67, 0
2, 46102, Note_on_c, 0, 62, 0
2, 46103, Note_on_c, 0, 66, 0
2, 46104, Note_on_c, 0, 64, 0
2, 46105, Note_on_c, 0, 73, 0
2, 46105, Note_on_c, 0, 61, 0
2, 46106, Note_on_c, 0, 69, 0
2, 46107, Note_on_c, 0, 71, 0
2, 46108, Note_on_c, 0, 74, 0
2, 46110, Note_on_c, 0, 52, 0
2, 46126, Note_on_c, 0, 55, 0
2, 46126, Note_on_c, 0, 59, 0
2, 46133, Note_on_c, 0, 57, 0
2, 46310, Note_on_c, 0, 86, 103
2, 46313, Note_on_c, 0, 74, 97
2, 46379, Control_c, 0, 64, 127
2, 46483, Note_on_c, 0, 85, 110
2, 46486, Note_on_c, 0, 73, 103
2, 46656, Note_on_c, 0, 86, 0
2, 46663, Note_on_c, 0, 74, 0
2, 46667, Note_on_c, 0, 86, 105
2, 46668, Note_on_c, 0, 74, 99
2, 46843, Note_on_c, 0, 88, 108
2, 46843, Note_on_c, 0, 76, 104
2, 46964, Note_on_c, 0, 74, 0
2, 46964, Control_c, 0, 64, 0
2, 46965, Note_on_c, 0, 73, 0
2, 46965, Note_on_c, 0, 88, 0
2, 46965, Note_on_c, 0, 85, 0
2, 46965, Note_on_c, 0, 76, 0
2, 46970, Note_on_c, 0, 86, 0
2, 47005, Note_on_c, 0, 35, 93
2, 47011, Note_on_c, 0, 38, 92
2, 47019, Note_on_c, 0, 90, 112
2, 47021, Note_on_c, 0, 86, 94
2, 47022, Note_on_c, 0, 78, 107
2, 47022, Note_on_c, 0, 83, 101
2, 47040, Control_c, 0, 64, 127
2, 47173, Note_on_c, 0, 47, 72
2, 47258, Note_on_c, 0, 50, 72
2, 47331, Note_on_c, 0, 47, 0
2, 47343, Note_on_c, 0, 47, 66
2, 47362, Note_on_c, 0, 83, 0
2, 47368, Note_on_c, 0, 83, 102
2, 47377, Note_on_c, 0, 71, 88
2, 47539, Note_on_c, 0, 35, 0
2, 47539, Note_on_c, 0, 83, 0
2, 47539, Note_on_c, 0, 86, 0
2, 47545, Note_on_c, 0, 86, 103
2, 47546, Note_on_c, 0, 47, 0
2, 47546, Note_on_c, 0, 78, 0
2, 47549, Note_on_c, 0, 35, 71
2, 47550, Note_on_c, 0, 74, 104
2, 47550, Note_on_c, 0, 83, 102
2, 47550, Note_on_c, 0, 66, 103
2, 47551, Note_on_c, 0, 78, 100
2, 47551, Note_on_c, 0, 62, 84
2, 47552, Note_on_c, 0, 47, 77
2, 47715, Note_on_c, 0, 47, 0
2, 47720, Note_on_c, 0, 59, 94
2, 47721, Note_on_c, 0, 47, 72
2, 47815, Note_on_c, 0, 66, 0
2, 47822, Note_on_c, 0, 66, 92
2, 47823, Note_on_c, 0, 62, 0
2, 47834, Note_on_c, 0, 62, 63
2, 47900, Note_on_c, 0, 59, 0
2, 47907, Note_on_c, 0, 74, 0
2, 47907, Note_on_c, 0, 86, 0
2, 47909, Note_on_c, 0, 59, 91
2, 47918, Note_on_c, 0, 74, 91
2, 47919, Note_on_c, 0, 86, 98
2, 48069, Note_on_c, 0, 35, 0
2, 48069, Note_on_c, 0, 47, 0
2, 48073, Note_on_c, 0, 47, 95
2, 48074, Note_on_c, 0, 35, 85
2, 48220, Note_on_c, 0, 42, 68
2, 48261, Note_on_c, 0, 78, 0
2, 48261, Note_on_c, 0, 83, 0
2, 48261, Note_on_c, 0, 86, 0
2, 48261, Note_on_c, 0, 90, 0
2, 48264, Note_on_c, 0, 90, 112
2, 48268, Note_on_c, 0, 86, 95
2, 48269, Note_on_c, 0, 78, 111
2, 48270, Note_on_c, 0, 83, 105
2, 48363, Control_c, 0, 64, 0
2, 48364, Note_on_c, 0, 71, 0
2, 48364, Note_on_c, 0, 47, 0
2, 48364, Note_on_c, 0, 50, 0
2, 48364, Note_on_c, 0, 66, 0
2, 48365, Note_on_c, 0, 35, 0
2, 48376, Note_on_c, 0, 59, 0
2, 48376, Note_on_c, 0, 62, 0
2, 48384, Note_on_c, 0, 42, 0
2, 48399, Note_on_c, 0, 38, 0
2, 48407, Note_on_c, 0, 74, 0
2, 48422, Control_c, 0, 64, 127
2, 48424, Note_on_c, 0, 31, 92
2, 48425, Note_on_c, 0, 43, 102
2, 48591, Note_on_c, 0, 83, 0
2, 48599, Note_on_c, 0, 83, 103
2, 48602, Note_on_c, 0, 71, 94
2, 48603, Note_on_c, 0, 55, 70
2, 48609, Note_on_c, 0, 79, 65
2, 48679, Note_on_c, 0, 62, 57
2, 48685, Note_on_c, 0, 59, 77
2, 48783, Note_on_c, 0, 55, 0
2, 48793, Note_on_c, 0, 55, 79
2, 48967, Note_on_c, 0, 83, 0
2, 48967, Note_on_c, 0, 86, 0
2, 48972, Note_on_c, 0, 86, 104
2, 48975, Note_on_c, 0, 55, 0
2, 48975, Note_on_c, 0, 59, 0
2, 48975, Note_on_c, 0, 62, 0
2, 48976, Note_on_c, 0, 67, 98
2, 48977, Note_on_c, 0, 83, 102
2, 48978, Note_on_c, 0, 74, 99
2, 48979, Note_on_c, 0, 62, 84
2, 48979, Note_on_c, 0, 55, 90
2, 48980, Note_on_c, 0, 59, 95
2, 49128, Note_on_c, 0, 55, 0
2, 49139, Note_on_c, 0, 55, 97
2, 49221, Note_on_c, 0, 59, 0
2, 49221, Note_on_c, 0, 62, 0
2, 49230, Note_on_c, 0, 62, 76
2, 49232, Note_on_c, 0, 59, 83
2, 49328, Note_on_c, 0, 31, 0
2, 49328, Note_on_c, 0, 43, 0
2, 49336, Note_on_c, 0, 43, 84
2, 49336, Note_on_c, 0, 74, 0
2, 49336, Note_on_c, 0, 79, 0
2, 49336, Note_on_c, 0, 86, 0
2, 49337, Note_on_c, 0, 31, 81
2, 49342, Note_on_c, 0, 79, 77
2, 49345, Note_on_c, 0, 74, 95
2, 49345, Note_on_c, 0, 86, 101
2, 49489, Note_on_c, 0, 55, 0
2, 49497, Note_on_c, 0, 43, 0
2, 49501, Note_on_c, 0, 55, 103
2, 49503, Note_on_c, 0, 43, 98
2, 49648, Note_on_c, 0, 50, 91
2, 49674, Note_on_c, 0, 86, 0
2, 49680, Note_on_c, 0, 93, 116
2, 49681, Note_on_c, 0, 90, 0
2, 49685, Note_on_c, 0, 81, 106
2, 49685, Note_on_c, 0, 86, 101
2, 49691, Note_on_c, 0, 90, 94
2, 49785, Note_on_c, 0, 59, 0
2, 49786, Note_on_c, 0, 74, 0
2, 49787, Note_on_c, 0, 50, 0
2, 49787, Note_on_c, 0, 62, 0
2, 49787, Control_c, 0, 64, 0
2, 49787, Note_on_c, 0, 43, 0
2, 49787, Note_on_c, 0, 79, 0
2, 49788, Note_on_c, 0, 67, 0
2, 49789, Note_on_c, 0, 31, 0
2, 49804, Note_on_c, 0, 71, 0
2, 49804, Note_on_c, 0, 83, 0
2, 49812, Note_on_c, 0, 55, 0
2, 49820, Note_on_c, 0, 78, 0
2, 49838, Note_on_c, 0, 38, 108
2, 49840, Note_on_c, 0, 26, 91
2, 49850, Control_c, 0, 64, 127
2, 50016, Note_on_c, 0, 50, 63
2, 50019, Note_on_c, 0, 86, 0
2, 50023, Note_on_c, 0, 91, 98
2, 50024, Note_on_c, 0, 79, 103
2, 50029, Note_on_c, 0, 86, 82
2, 50131, Note_on_c, 0, 54, 47
2, 50196, Note_on_c, 0, 50, 0
2, 50196, Note_on_c, 0, 79, 0
2, 50196, Note_on_c, 0, 91, 0
2, 50201, Note_on_c, 0, 91, 103
2, 50202, Note_on_c, 0, 50, 78
2, 50202, Note_on_c, 0, 79, 102
2, 50380, Note_on_c, 0, 81, 0
2, 50380, Note_on_c, 0, 91, 0
2, 50385, Note_on_c, 0, 91, 111
2, 50386, Note_on_c, 0, 81, 108
2, 50388, Note_on_c, 0, 79, 0
2, 50388, Note_on_c, 0, 86, 0
2, 50391, Note_on_c, 0, 62, 68
2, 50391, Note_on_c, 0, 66, 91
2, 50394, Note_on_c, 0, 86, 90
2, 50394, Note_on_c, 0, 79, 101
2, 50561, Note_on_c, 0, 69, 80
2, 50562, Note_on_c, 0, 57, 84
2, 50664, Note_on_c, 0, 66, 0
2, 50673, Note_on_c, 0, 66, 85
2, 50734, Note_on_c, 0, 57, 0
2, 50734, Note_on_c, 0, 69, 0
2, 50741, Note_on_c, 0, 57, 80
2, 50741, Note_on_c, 0, 90, 0
2, 50744, Note_on_c, 0, 45, 73
2, 50745, Note_on_c, 0, 69, 84
2, 50746, Note_on_c, 0, 90, 105
2, 50752, Note_on_c, 0, 78, 101
2, 50918, Note_on_c, 0, 38, 0
2, 50918, Note_on_c, 0, 50, 0
2, 50918, Note_on_c, 0, 62, 0
2, 50926, Note_on_c, 0, 38, 92
2, 50927, Note_on_c, 0, 50, 93
2, 50928, Note_on_c, 0, 62, 78
2, 51056, Note_on_c, 0, 45, 0
2, 51060, Note_on_c, 0, 45, 83
2, 51095, Note_on_c, 0, 78, 0
2, 51095, Note_on_c, 0, 86, 0
2, 51095, Note_on_c, 0, 90, 0
2, 51099, Note_on_c, 0, 90, 109
2, 51100, Note_on_c, 0, 78, 107
2, 51105, Note_on_c, 0, 86, 95
2, 51107, Note_on_c, 0, 83, 94
2, 51209, Note_on_c, 0, 91, 0
2, 51209, Note_on_c, 0, 79, 0
2, 51209, Control_c, 0, 64, 0
2, 51210, Note_on_c, 0, 69, 0
2, 51210, Note_on_c, 0, 45, 0
2, 51210, Note_on_c, 0, 81, 0
2, 51211, Note_on_c, 0, 62, 0
2, 51212, Note_on_c, 0, 54, 0
2, 51212, Note_on_c, 0, 50, 0
2, 51212, Note_on_c, 0, 66, 0
2, 51212, Note_on_c, 0, 38, 0
2, 51217, Note_on_c, 0, 93, 0
2, 51233, Note_on_c, 0, 26, 0
2, 51233, Note_on_c, 0, 57, 0
2, 51250, Note_on_c, 0, 40, 97
2, 51251, Note_on_c, 0, 28, 90
2, 51264, Control_c, 0, 64, 127
2, 51434, Note_on_c, 0, 88, 106
2, 51437, Note_on_c, 0, 76, 98
2, 51475, Note_on_c, 0, 55, 46
2, 51529, Note_on_c, 0, 59, 85
2, 51613, Note_on_c, 0, 52, 78
2, 51686, Note_on_c, 0, 55, 0
2, 51693, Note_on_c, 0, 55, 40
2, 51786, Note_on_c, 0, 59, 0
2, 51786, Note_on_c, 0, 83, 0
2, 51786, Note_on_c, 0, 86, 0
2, 51791, Note_on_c, 0, 64, 75
2, 51791, Note_on_c, 0, 86, 101
2, 51793, Note_on_c, 0, 76, 0
2, 51796, Note_on_c, 0, 83, 102
2, 51797, Note_on_c, 0, 74, 99
2, 51797, Note_on_c, 0, 59, 90
2, 51797, Note_on_c, 0, 79, 95
2, 51798, Note_on_c, 0, 76, 90
2, 51801, Note_on_c, 0, 64, 0
2, 51970, Note_on_c, 0, 52, 0
2, 51975, Note_on_c, 0, 52, 84
2, 52075, Note_on_c, 0, 64, 71
2, 52139, Note_on_c, 0, 52, 0
2, 52139, Note_on_c, 0, 74, 0
2, 52139, Note_on_c, 0, 86, 0
2, 52144, Note_on_c, 0, 52, 80
2, 52148, Note_on_c, 0, 86, 109
2, 52150, Note_on_c, 0, 74, 105
2, 52316, Note_on_c, 0, 40, 0
2, 52323, Note_on_c, 0, 28, 0
2, 52326, Note_on_c, 0, 40, 89
2, 52328, Note_on_c, 0, 85, 104
2, 52329, Note_on_c, 0, 28, 85
2, 52331, Note_on_c, 0, 73, 97
2, 52477, Note_on_c, 0, 47, 79
2, 52492, Note_on_c, 0, 76, 0
2, 52492, Note_on_c, 0, 88, 0
2, 52500, Note_on_c, 0, 88, 106
2, 52504, Note_on_c, 0, 76, 106
2, 52624, Note_on_c, 0, 28, 0
2, 52624, Control_c, 0, 64, 0
2, 52625, Note_on_c, 0, 74, 0
2, 52625, Note_on_c, 0, 73, 0
2, 52625, Note_on_c, 0, 40, 0
2, 52625, Note_on_c, 0, 86, 0
2, 52625, Note_on_c, 0, 83, 0
2, 52626, Note_on_c, 0, 88, 0
2, 52626, Note_on_c, 0, 59, 0
2, 52626, Note_on_c, 0, 76, 0
2, 52626, Note_on_c, 0, 79, 0
2, 52626, Note_on_c, 0, 85, 0
2, 52638, Note_on_c, 0, 47, 0
2, 52638, Note_on_c, 0, 64, 0
2, 52646, Note_on_c, 0, 52, 0
2, 52646, Note_on_c, 0, 55, 0
2, 52646, Note_on_c, 0, 78, 0
2, 52646, Note_on_c, 0, 90, 0
2, 52677, Note_on_c, 0, 47, 98
2, 52679, Note_on_c, 0, 90, 117
2, 52680, Note_on_c, 0, 35, 84
2, 52680, Note_on_c, 0, 78, 115
2, 52684, Note_on_c, 0, 83, 100
2, 52687, Note_on_c, 0, 86, 90
2, 52700, Control_c, 0, 64, 127
2, 52830, Note_on_c, 0, 47, 0
2, 52837, Note_on_c, 0, 47, 77
2, 52919, Note_on_c, 0, 50, 68
2, 52966, Note_on_c, 0, 54, 69
2, 53007, Note_on_c, 0, 47, 0
2, 53013, Note_on_c, 0, 47, 73
2, 53022, Note_on_c, 0, 83, 0
2, 53027, Note_on_c, 0, 83, 97
2, 53033, Note_on_c, 0, 71, 89
2, 53191, Note_on_c, 0, 86, 0
2, 53199, Note_on_c, 0, 78, 0
2, 53199, Note_on_c, 0, 83, 0
2, 53202, Note_on_c, 0, 86, 105
2, 53203, Note_on_c, 0, 74, 104
2, 53204, Note_on_c, 0, 83, 99
2, 53205, Note_on_c, 0, 78, 104
2, 53205, Note_on_c, 0, 62, 75
2, 53209, Note_on_c, 0, 66, 95
2, 53387, Note_on_c, 0, 59, 87
2, 53475, Note_on_c, 0, 66, 0
2, 53475, Note_on_c, 0, 78, 0
2, 53482, Note_on_c, 0, 66, 89
2, 53483, Note_on_c, 0, 74, 0
2, 53486, Note_on_c, 0, 78, 76
2, 53491, Note_on_c, 0, 62, 0
2, 53494, Note_on_c, 0, 74, 79
2, 53496, Note_on_c, 0, 62, 66
2, 53544, Note_on_c, 0, 59, 0
2, 53554, Note_on_c, 0, 59, 91
2, 53560, Note_on_c, 0, 86, 0
2, 53568, Note_on_c, 0, 74, 0
2, 53569, Note_on_c, 0, 86, 102
2, 53572, Note_on_c, 0, 74, 91
2, 53721, Note_on_c, 0, 35, 0
2, 53721, Note_on_c, 0, 47, 0
2, 53725, Note_on_c, 0, 47, 91
2, 53726, Note_on_c, 0, 35, 81
2, 53901, Note_on_c, 0, 42, 88
2, 53913, Note_on_c, 0, 78, 0
2, 53913, Note_on_c, 0, 83, 0
2, 53913, Note_on_c, 0, 86, 0
2, 53913, Note_on_c, 0, 90, 0
2, 53917, Note_on_c, 0, 90, 111
2, 53922, Note_on_c, 0, 78, 105
2, 53923, Note_on_c, 0, 86, 96
2, 53924, Note_on_c, 0, 83, 102
2, 54011, Control_c, 0, 64, 0
2, 54016, Note_on_c, 0, 35, 0
2, 54016, Note_on_c, 0, 47, 0
2, 54016, Note_on_c, 0, 42, 0
2, 54017, Note_on_c, 0, 50, 0
2, 54017, Note_on_c, 0, 74, 0
2, 54017, Note_on_c, 0, 59, 0
2, 54017, Note_on_c, 0, 71, 0
2, 54017, Note_on_c, 0, 66, 0
2, 54028, Note_on_c, 0, 54, 0
2, 54028, Note_on_c, 0, 62, 0
2, 54059, Control_c, 0, 64, 127
2, 54075, Note_on_c, 0, 45, 96
2, 54076, Note_on_c, 0, 33, 89
2, 54236, Note_on_c, 0, 33, 0
2, 54236, Note_on_c, 0, 45, 0
2, 54243, Note_on_c, 0, 83, 0
2, 54244, Note_on_c, 0, 45, 84
2, 54247, Note_on_c, 0, 33, 85
2, 54251, Note_on_c, 0, 83, 96
2, 54256, Note_on_c, 0, 71, 87
2, 54348, Note_on_c, 0, 54, 58
2, 54412, Note_on_c, 0, 45, 0
2, 54419, Note_on_c, 0, 45, 81
2, 54423, Note_on_c, 0, 57, 74
2, 54604, Note_on_c, 0, 86, 0
2, 54604, Note_on_c, 0, 90, 0
2, 54612, Note_on_c, 0, 78, 0
2, 54612, Note_on_c, 0, 83, 0
2, 54616, Note_on_c, 0, 86, 107
2, 54617, Note_on_c, 0, 78, 100
2, 54618, Note_on_c, 0, 83, 99
2, 54620, Note_on_c, 0, 74, 102
2, 54630, Note_on_c, 0, 62, 77
2, 54633, Note_on_c, 0, 66, 89
2, 54789, Note_on_c, 0, 57, 0
2, 54795, Note_on_c, 0, 57, 63
2, 54873, Note_on_c, 0, 66, 0
2, 54881, Note_on_c, 0, 62, 0
2, 54883, Note_on_c, 0, 66, 81
2, 54884, Note_on_c, 0, 59, 57
2, 54885, Note_on_c, 0, 62, 64
2, 54927, Note_on_c, 0, 57, 0
2, 54933, Note_on_c, 0, 57, 80
2, 54935, Note_on_c, 0, 69, 77
2, 54973, Note_on_c, 0, 74, 0
2, 54973, Note_on_c, 0, 86, 0
2, 54980, Note_on_c, 0, 86, 98
2, 54982, Note_on_c, 0, 74, 93
2, 55127, Note_on_c, 0, 33, 0
2, 55127, Note_on_c, 0, 45, 0
2, 55136, Note_on_c, 0, 45, 93
2, 55138, Note_on_c, 0, 33, 84
2, 55308, Note_on_c, 0, 40, 78
2, 55311, Note_on_c, 0, 86, 0
2, 55319, Note_on_c, 0, 74, 0
2, 55319, Note_on_c, 0, 83, 0
2, 55319, Note_on_c, 0, 86, 108
2, 55327, Note_on_c, 0, 83, 103
2, 55328, Note_on_c, 0, 74, 96
2, 55329, Note_on_c, 0, 79, 97
2, 55423, Control_c, 0, 64, 0
2, 55441, Note_on_c, 0, 59, 0
2, 55449, Note_on_c, 0, 45, 0
2, 55455, Note_on_c, 0, 57, 0
2, 55456, Note_on_c, 0, 33, 0
2, 55457, Note_on_c, 0, 40, 0
2, 55457, Note_on_c, 0, 54, 0
2, 55457, Note_on_c, 0, 69, 0
2, 55457, Control_c, 0, 64, 127
2, 55460, Note_on_c, 0, 62, 0
2, 55460, Note_on_c, 0, 66, 0
2, 55480, Note_on_c, 0, 71, 0
2, 55486, Note_on_c, 0, 31, 87
2, 55487, Note_on_c, 0, 43, 94
2, 55661, Note_on_c, 0, 67, 84
2, 55662, Note_on_c, 0, 55, 82
2, 55664, Note_on_c, 0, 79, 0
2, 55667, Note_on_c, 0, 88, 110
2, 55670, Note_on_c, 0, 76, 103
2, 55675, Note_on_c, 0, 79, 84
2, 55724, Note_on_c, 0, 62, 56
2, 55750, Note_on_c, 0, 59, 71
2, 55833, Note_on_c, 0, 55, 0
2, 55844, Note_on_c, 0, 55, 82
2, 56017, Note_on_c, 0, 67, 0
2, 56017, Note_on_c, 0, 83, 0
2, 56017, Note_on_c, 0, 86, 0
2, 56025, Note_on_c, 0, 59, 0
2, 56025, Note_on_c, 0, 62, 0
2, 56025, Note_on_c, 0, 74, 0
2, 56025, Note_on_c, 0, 79, 0
2, 56028, Note_on_c, 0, 67, 98
2, 56028, Note_on_c, 0, 83, 97
2, 56029, Note_on_c, 0, 86, 99
2, 56029, Note_on_c, 0, 79, 93
2, 56029, Note_on_c, 0, 74, 96
2, 56031, Note_on_c, 0, 62, 84
2, 56031, Note_on_c, 0, 59, 85
2, 56171, Note_on_c, 0, 55, 0
2, 56178, Note_on_c, 0, 55, 68
2, 56271, Note_on_c, 0, 62, 0
2, 56281, Note_on_c, 0, 62, 68
2, 56317, Note_on_c, 0, 59, 0
2, 56322, Note_on_c, 0, 59, 81
2, 56378, Note_on_c, 0, 74, 0
2, 56378, Note_on_c, 0, 86, 0
2, 56383, Note_on_c, 0, 74, 86
2, 56384, Note_on_c, 0, 86, 92
2, 56539, Note_on_c, 0, 55, 0
2, 56540, Note_on_c, 0, 31, 0
2, 56540, Note_on_c, 0, 43, 0
2, 56545, Note_on_c, 0, 43, 85
2, 56548, Note_on_c, 0, 31, 79
2, 56555, Note_on_c, 0, 74, 0
2, 56555, Note_on_c, 0, 79, 0
2, 56555, Note_on_c, 0, 86, 0
2, 56559, Note_on_c, 0, 74, 93
2, 56560, Note_on_c, 0, 86, 98
2, 56566, Note_on_c, 0, 79, 62
2, 56680, Note_on_c, 0, 50, 72
2, 56732, Note_on_c, 0, 74, 0
2, 56732, Note_on_c, 0, 78, 0
2, 56732, Note_on_c, 0, 83, 0
2, 56732, Note_on_c, 0, 86, 0
2, 56737, Note_on_c, 0, 86, 102
2, 56741, Note_on_c, 0, 74, 101
2, 56743, Note_on_c, 0, 78, 99
2, 56743, Note_on_c, 0, 83, 96
2, 56836, Note_on_c, 0, 50, 0
2, 56836, Note_on_c, 0, 43, 0
2, 56837, Note_on_c, 0, 62, 0
2, 56837, Control_c, 0, 64, 0
2, 56837, Note_on_c, 0, 59, 0
2, 56838, Note_on_c, 0, 79, 0
2, 56838, Note_on_c, 0, 88, 0
2, 56839, Note_on_c, 0, 76, 0
2, 56847, Note_on_c, 0, 31, 0
2, 56855, Note_on_c, 0, 67, 0
2, 56889, Note_on_c, 0, 33, 93
2, 56889, Note_on_c, 0, 45, 93
2, 56893, Control_c, 0, 64, 127
2, 57077, Note_on_c, 0, 45, 0
2, 57081, Note_on_c, 0, 45, 75
2, 57085, Note_on_c, 0, 78, 0
2, 57092, Note_on_c, 0, 90, 87
2, 57096, Note_on_c, 0, 78, 82
2, 57134, Note_on_c, 0, 52, 61
2, 57138, Note_on_c, 0, 64, 73
2, 57180, Note_on_c, 0, 61, 67
2, 57266, Note_on_c, 0, 57, 72
2, 57415, Note_on_c, 0, 33, 0
2, 57430, Note_on_c, 0, 88, 106
2, 57435, Note_on_c, 0, 76, 103
2, 57436, Note_on_c, 0, 81, 88
2, 57438, Note_on_c, 0, 85, 99
2, 57438, Note_on_c, 0, 64, 0
2, 57443, Note_on_c, 0, 69, 86
2, 57449, Note_on_c, 0, 64, 78
2, 57454, Note_on_c, 0, 61, 0
2, 57461, Note_on_c, 0, 90, 0
2, 57464, Note_on_c, 0, 61, 72
2, 57576, Note_on_c, 0, 57, 0
2, 57587, Note_on_c, 0, 57, 77
2, 57669, Note_on_c, 0, 64, 0
2, 57673, Note_on_c, 0, 64, 61
2, 57676, Note_on_c, 0, 61, 0
2, 57687, Note_on_c, 0, 61, 72
2, 57761, Note_on_c, 0, 57, 0
2, 57767, Note_on_c, 0, 57, 74
2, 57778, Note_on_c, 0, 71, 97
2, 57930, Note_on_c, 0, 45, 0
2, 57937, Note_on_c, 0, 74, 0
2, 57937, Note_on_c, 0, 86, 0
2, 57941, Note_on_c, 0, 45, 85
2, 57944, Note_on_c, 0, 74, 97
2, 57945, Note_on_c, 0, 86, 90
2, 58106, Note_on_c, 0, 52, 0
2, 58106, Note_on_c, 0, 76, 0
2, 58114, Note_on_c, 0, 52, 76
2, 58117, Note_on_c, 0, 76, 97
2, 58264, Note_on_c, 0, 52, 0
2, 58264, Note_on_c, 0, 74, 0
2, 58264, Note_on_c, 0, 69, 0
2, 58264, Note_on_c, 0, 81, 0
2, 58265, Note_on_c, 0, 86, 0
2, 58265, Note_on_c, 0, 71, 0
2, 58265, Note_on_c, 0, 85, 0
2, 58265, Note_on_c, 0, 45, 0
2, 58265, Control_c, 0, 64, 0
2, 58266, Note_on_c, 0, 64, 0
2, 58266, Note_on_c, 0, 88, 0
2, 58275, Note_on_c, 0, 57, 0
2, 58275, Note_on_c, 0, 61, 0
2, 58283, Note_on_c, 0, 76, 0
2, 58283, Note_on_c, 0, 83, 0
2, 58291, Note_on_c, 0, 78, 0
2, 58298, Note_on_c, 0, 78, 105
2, 58301, Note_on_c, 0, 74, 86
2, 58303, Note_on_c, 0, 71, 79
2, 58303, Note_on_c, 0, 43, 86
2, 58360, Control_c, 0, 64, 127
2, 58395, Note_on_c, 0, 50, 66
2, 58455, Note_on_c, 0, 55, 73
2, 58552, Note_on_c, 0, 55, 0
2, 58557, Note_on_c, 0, 59, 79
2, 58561, Note_on_c, 0, 55, 60
2, 58644, Note_on_c, 0, 55, 0
2, 58644, Note_on_c, 0, 71, 0
2, 58648, Note_on_c, 0, 71, 85
2, 58652, Note_on_c, 0, 62, 72
2, 58655, Note_on_c, 0, 55, 64
2, 58736, Note_on_c, 0, 50, 0
2, 58740, Note_on_c, 0, 67, 81
2, 58741, Note_on_c, 0, 50, 54
2, 58767, Note_on_c, 0, 43, 0
2, 58817, Note_on_c, 0, 50, 0
2, 58818, Note_on_c, 0, 62, 0
2, 58818, Note_on_c, 0, 78, 0
2, 58818, Note_on_c, 0, 71, 0
2, 58818, Note_on_c, 0, 59, 0
2, 58820, Note_on_c, 0, 67, 0
2, 58821, Note_on_c, 0, 74, 0
2, 58821, Control_c, 0, 64, 0
2, 58825, Note_on_c, 0, 43, 75
2, 58828, Note_on_c, 0, 74, 100
2, 58836, Note_on_c, 0, 55, 0
2, 58905, Control_c, 0, 64, 127
2, 58910, Note_on_c, 0, 50, 73
2, 58976, Note_on_c, 0, 55, 75
2, 59087, Note_on_c, 0, 59, 76
2, 59105, Note_on_c, 0, 43, 0
2, 59159, Note_on_c, 0, 74, 0
2, 59163, Note_on_c, 0, 74, 91
2, 59170, Note_on_c, 0, 62, 76
2, 59254, Note_on_c, 0, 67, 74
2, 59318, Note_on_c, 0, 50, 0
2, 59318, Note_on_c, 0, 55, 0
2, 59319, Control_c, 0, 64, 0
2, 59319, Note_on_c, 0, 62, 0
2, 59320, Note_on_c, 0, 59, 0
2, 59338, Note_on_c, 0, 43, 77
2, 59389, Control_c, 0, 64, 127
2, 59422, Note_on_c, 0, 50, 76
2, 59509, Note_on_c, 0, 55, 77
2, 59520, Note_on_c, 0, 74, 0
2, 59524, Note_on_c, 0, 78, 107
2, 59528, Note_on_c, 0, 74, 87
2, 59540, Note_on_c, 0, 71, 75
2, 59571, Note_on_c, 0, 59, 73
2, 59678, Note_on_c, 0, 50, 0
2, 59678, Control_c, 0, 64, 0
2, 59678, Note_on_c, 0, 55, 0
2, 59680, Note_on_c, 0, 59, 0
2, 59693, Note_on_c, 0, 45, 83
2, 59696, Note_on_c, 0, 43, 0
2, 59696, Note_on_c, 0, 67, 0
2, 59750, Control_c, 0, 64, 127
2, 59795, Note_on_c, 0, 52, 75
2, 59873, Note_on_c, 0, 71, 0
2, 59877, Note_on_c, 0, 57, 79
2, 59882, Note_on_c, 0, 71, 88
2, 60007, Note_on_c, 0, 62, 63
2, 60079, Note_on_c, 0, 64, 83
2, 60157, Note_on_c, 0, 69, 79
2, 60221, Note_on_c, 0, 52, 0
2, 60221, Note_on_c, 0, 57, 0
2, 60222, Note_on_c, 0, 62, 0
2, 60222, Note_on_c, 0, 71, 0
2, 60222, Control_c, 0, 64, 0
2, 60222, Note_on_c, 0, 64, 0
2, 60222, Note_on_c, 0, 78, 0
2, 60226, Note_on_c, 0, 45, 0
2, 60226, Note_on_c, 0, 74, 0
2, 60235, Note_on_c, 0, 74, 98
2, 60236, Note_on_c, 0, 45, 80
2, 60295, Control_c, 0, 64, 127
2, 60326, Note_on_c, 0, 52, 70
2, 60399, Note_on_c, 0, 57, 76
2, 60505, Note_on_c, 0, 62, 71
2, 60587, Note_on_c, 0, 74, 0
2, 60592, Note_on_c, 0, 74, 88
2, 60593, Note_on_c, 0, 64, 86
2, 60679, Note_on_c, 0, 69, 0
2, 60684, Note_on_c, 0, 69, 78
2, 60756, Note_on_c, 0, 45, 0
2, 60761, Note_on_c, 0, 45, 83
2, 60764, Note_on_c, 0, 57, 0
2, 60765, Control_c, 0, 64, 0
2, 60765, Note_on_c, 0, 64, 0
2, 60766, Note_on_c, 0, 62, 0
2, 60817, Note_on_c, 0, 52, 0
2, 60817, Control_c, 0, 64, 127
2, 60828, Note_on_c, 0, 52, 72
2, 60896, Note_on_c, 0, 57, 78
2, 60933, Note_on_c, 0, 74, 0
2, 60938, Note_on_c, 0, 81, 99
2, 60939, Note_on_c, 0, 74, 87
2, 60939, Note_on_c, 0, 78, 95
2, 60968, Note_on_c, 0, 62, 76
2, 61083, Note_on_c, 0, 52, 0
2, 61084, Note_on_c, 0, 57, 0
2, 61085, Control_c, 0, 64, 0
2, 61086, Note_on_c, 0, 62, 0
2, 61087, Note_on_c, 0, 45, 0
2, 61104, Note_on_c, 0, 47, 86
2, 61109, Note_on_c, 0, 69, 0
2, 61148, Control_c, 0, 64, 127
2, 61207, Note_on_c, 0, 54, 73
2, 61287, Note_on_c, 0, 59, 84
2, 61291, Note_on_c, 0, 79, 97
2, 61393, Note_on_c, 0, 62, 66
2, 61401, Note_on_c, 0, 47, 0
2, 61455, Note_on_c, 0, 79, 0
2, 61465, Note_on_c, 0, 79, 96
2, 61483, Note_on_c, 0, 66, 62
2, 61563, Note_on_c, 0, 71, 83
2, 61636, Control_c, 0, 64, 0
2, 61636, Note_on_c, 0, 81, 0
2, 61637, Note_on_c, 0, 66, 0
2, 61637, Note_on_c, 0, 59, 0
2, 61638, Note_on_c, 0, 54, 0
2, 61638, Note_on_c, 0, 62, 0
2, 61639, Note_on_c, 0, 78, 0
2, 61639, Note_on_c, 0, 79, 0
2, 61643, Note_on_c, 0, 47, 84
2, 61647, Note_on_c, 0, 79, 101
2, 61647, Note_on_c, 0, 74, 0
2, 61712, Note_on_c, 0, 47, 0
2, 61716, Control_c, 0, 64, 127
2, 61751, Note_on_c, 0, 54, 72
2, 61812, Note_on_c, 0, 59, 82
2, 61918, Note_on_c, 0, 62, 67
2, 61996, Note_on_c, 0, 78, 103
2, 62005, Note_on_c, 0, 66, 77
2, 62077, Note_on_c, 0, 71, 0
2, 62088, Note_on_c, 0, 71, 83
2, 62155, Control_c, 0, 64, 0
2, 62157, Note_on_c, 0, 62, 0
2, 62157, Note_on_c, 0, 79, 0
2, 62157, Note_on_c, 0, 54, 0
2, 62157, Note_on_c, 0, 59, 0
2, 62160, Note_on_c, 0, 47, 77
2, 62223, Control_c, 0, 64, 127
2, 62245, Note_on_c, 0, 54, 68
2, 62315, Note_on_c, 0, 78, 0
2, 62326, Note_on_c, 0, 78, 104
2, 62327, Note_on_c, 0, 59, 83
2, 62330, Note_on_c, 0, 71, 0
2, 62334, Note_on_c, 0, 74, 79
2, 62340, Note_on_c, 0, 71, 77
2, 62388, Note_on_c, 0, 62, 78
2, 62515, Note_on_c, 0, 47, 0
2, 62520, Control_c, 0, 64, 0
2, 62523, Note_on_c, 0, 59, 0
2, 62524, Note_on_c, 0, 54, 0
2, 62525, Note_on_c, 0, 62, 0
2, 62526, Note_on_c, 0, 47, 84
2, 62545, Note_on_c, 0, 66, 0
2, 62584, Control_c, 0, 64, 127
2, 62611, Note_on_c, 0, 54, 71
2, 62684, Note_on_c, 0, 76, 92
2, 62699, Note_on_c, 0, 71, 0
2, 62704, Note_on_c, 0, 71, 63
2, 62704, Note_on_c, 0, 59, 81
2, 62791, Note_on_c, 0, 74, 0
2, 62797, Note_on_c, 0, 62, 74
2, 62799, Note_on_c, 0, 74, 70
2, 62890, Note_on_c, 0, 66, 72
2, 62929, Note_on_c, 0, 71, 0
2, 62939, Note_on_c, 0, 71, 79
2, 63022, Note_on_c, 0, 74, 0
2, 63029, Note_on_c, 0, 74, 94
2, 63029, Note_on_c, 0, 47, 0
2, 63033, Control_c, 0, 64, 0
2, 63034, Note_on_c, 0, 54, 0
2, 63034, Note_on_c, 0, 76, 0
2, 63034, Note_on_c, 0, 59, 0
2, 63034, Note_on_c, 0, 66, 0
2, 63034, Note_on_c, 0, 62, 0
2, 63035, Note_on_c, 0, 47, 77
2, 63052, Note_on_c, 0, 78, 0
2, 63060, Note_on_c, 0, 71, 0
2, 63098, Control_c, 0, 64, 127
2, 63103, Note_on_c, 0, 47, 0
2, 63127, Note_on_c, 0, 54, 69
2, 63200, Note_on_c, 0, 59, 81
2, 63322, Note_on_c, 0, 62, 70
2, 63329, Note_on_c, 0, 74, 0
2, 63334, Note_on_c, 0, 74, 83
2, 63371, Note_on_c, 0, 66, 74
2, 63439, Note_on_c, 0, 71, 80
2, 63539, Note_on_c, 0, 47, 83
2, 63540, Note_on_c, 0, 73, 94
2, 63546, Note_on_c, 0, 54, 0
2, 63546, Note_on_c, 0, 59, 0
2, 63546, Note_on_c, 0, 62, 0
2, 63547, Note_on_c, 0, 71, 0
2, 63547, Note_on_c, 0, 74, 0
2, 63547, Control_c, 0, 64, 0
2, 63547, Note_on_c, 0, 66, 0
2, 63613, Control_c, 0, 64, 127
2, 63619, Note_on_c, 0, 54, 69
2, 63678, Note_on_c, 0, 59, 73
2, 63727, Note_on_c, 0, 76, 95
2, 63772, Note_on_c, 0, 60, 62
2, 63886, Control_c, 0, 64, 0
2, 63892, Note_on_c, 0, 47, 0
2, 63892, Note_on_c, 0, 60, 0
2, 63892, Note_on_c, 0, 59, 0
2, 63892, Note_on_c, 0, 54, 0
2, 63892, Note_on_c, 0, 73, 0
2, 63893, Note_on_c, 0, 76, 0
2, 63898, Note_on_c, 0, 78, 102
2, 63901, Note_on_c, 0, 74, 80
2, 63902, Note_on_c, 0, 71, 82
2, 63904, Note_on_c, 0, 43, 83
2, 63981, Note_on_c, 0, 50, 73
2, 63982, Control_c, 0, 64, 127
2, 64055, Note_on_c, 0, 55, 76
2, 64185, Note_on_c, 0, 59, 68
2, 64250, Note_on_c, 0, 71, 0
2, 64256, Note_on_c, 0, 62, 69
2, 64257, Note_on_c, 0, 71, 89
2, 64341, Note_on_c, 0, 67, 76
2, 64411, Control_c, 0, 64, 0
2, 64412, Note_on_c, 0, 50, 0
2, 64412, Note_on_c, 0, 55, 0
2, 64413, Note_on_c, 0, 62, 0
2, 64413, Note_on_c, 0, 59, 0
2, 64414, Note_on_c, 0, 78, 0
2, 64414, Note_on_c, 0, 71, 0
2, 64419, Note_on_c, 0, 43, 0
2, 64419, Note_on_c, 0, 74, 0
2, 64425, Note_on_c, 0, 43, 72
2, 64428, Note_on_c, 0, 74, 98
2, 64488, Control_c, 0, 64, 127
2, 64508, Note_on_c, 0, 50, 69
2, 64519, Note_on_c, 0, 67, 0
2, 64574, Note_on_c, 0, 55, 73
2, 64682, Note_on_c, 0, 59, 82
2, 64765, Note_on_c, 0, 43, 0
2, 64773, Note_on_c, 0, 74, 0
2, 64773, Note_on_c, 0, 43, 66
2, 64777, Note_on_c, 0, 74, 87
2, 64777, Note_on_c, 0, 62, 70
2, 64885, Note_on_c, 0, 67, 76
2, 64942, Note_on_c, 0, 43, 0
2, 64949, Control_c, 0, 64, 0
2, 64949, Note_on_c, 0, 43, 77
2, 64950, Note_on_c, 0, 55, 0
2, 64950, Note_on_c, 0, 62, 0
2, 64950, Note_on_c, 0, 59, 0
2, 64988, Control_c, 0, 64, 127
2, 65003, Note_on_c, 0, 50, 0
2, 65012, Note_on_c, 0, 50, 78
2, 65099, Note_on_c, 0, 55, 65
2, 65134, Note_on_c, 0, 74, 0
2, 65138, Note_on_c, 0, 78, 102
2, 65139, Note_on_c, 0, 74, 84
2, 65150, Note_on_c, 0, 71, 81
2, 65166, Note_on_c, 0, 59, 82
2, 65251, Note_on_c, 0, 50, 0
2, 65252, Note_on_c, 0, 55, 0
2, 65252, Control_c, 0, 64, 0
2, 65253, Note_on_c, 0, 67, 0
2, 65253, Note_on_c, 0, 59, 0
2, 65256, Note_on_c, 0, 43, 0
2, 65300, Note_on_c, 0, 40, 75
2, 65341, Control_c, 0, 64, 127
2, 65394, Note_on_c, 0, 47, 71
2, 65463, Note_on_c, 0, 52, 76
2, 65487, Note_on_c, 0, 71, 0
2, 65496, Note_on_c, 0, 71, 95
2, 65594, Note_on_c, 0, 55, 66
2, 65676, Note_on_c, 0, 59, 74
2, 65753, Note_on_c, 0, 62, 70
2, 65805, Control_c, 0, 64, 0
2, 65812, Note_on_c, 0, 71, 0
2, 65812, Note_on_c, 0, 47, 0
2, 65813, Note_on_c, 0, 78, 0
2, 65813, Note_on_c, 0, 52, 0
2, 65813, Note_on_c, 0, 59, 0
2, 65813, Note_on_c, 0, 55, 0
2, 65832, Note_on_c, 0, 74, 0
2, 65840, Note_on_c, 0, 40, 0
2, 65844, Note_on_c, 0, 74, 93
2, 65844, Note_on_c, 0, 40, 77
2, 65909, Control_c, 0, 64, 127
2, 65940, Note_on_c, 0, 47, 71
2, 66001, Note_on_c, 0, 52, 74
2, 66100, Note_on_c, 0, 55, 77
2, 66199, Note_on_c, 0, 59, 74
2, 66201, Note_on_c, 0, 74, 0
2, 66204, Note_on_c, 0, 47, 0
2, 66205, Note_on_c, 0, 74, 94
2, 66286, Note_on_c, 0, 62, 0
2, 66291, Note_on_c, 0, 62, 74
2, 66362, Control_c, 0, 64, 0
2, 66364, Note_on_c, 0, 52, 0
2, 66365, Note_on_c, 0, 55, 0
2, 66365, Note_on_c, 0, 59, 0
2, 66366, Note_on_c, 0, 62, 0
2, 66366, Note_on_c, 0, 74, 0
2, 66370, Note_on_c, 0, 40, 0
2, 66376, Note_on_c, 0, 40, 74
2, 66439, Control_c, 0, 64, 127
2, 66450, Note_on_c, 0, 47, 69
2, 66516, Note_on_c, 0, 52, 70
2, 66559, Note_on_c, 0, 74, 96
2, 66566, Note_on_c, 0, 71, 88
2, 66689, Control_c, 0, 64, 0
2, 66691, Note_on_c, 0, 52, 0
2, 66691, Note_on_c, 0, 47, 0
2, 66708, Note_on_c, 0, 40, 0
2, 66720, Note_on_c, 0, 35, 77
2, 66785, Control_c, 0, 64, 127
2, 66817, Note_on_c, 0, 47, 69
2, 66901, Note_on_c, 0, 76, 91
2, 66905, Note_on_c, 0, 50, 74
2, 67003, Note_on_c, 0, 54, 75
2, 67082, Note_on_c, 0, 59, 72
2, 67141, Note_on_c, 0, 62, 69
2, 67225, Note_on_c, 0, 47, 0
2, 67225, Note_on_c, 0, 76, 0
2, 67225, Note_on_c, 0, 54, 0
2, 67225, Control_c, 0, 64, 0
2, 67225, Note_on_c, 0, 50, 0
2, 67226, Note_on_c, 0, 62, 0
2, 67226, Note_on_c, 0, 59, 0
2, 67230, Note_on_c, 0, 71, 0
2, 67238, Note_on_c, 0, 35, 0
2, 67238, Note_on_c, 0, 74, 0
2, 67242, Note_on_c, 0, 35, 83
2, 67242, Note_on_c, 0, 74, 95
2, 67307, Control_c, 0, 64, 127
2, 67341, Note_on_c, 0, 47, 74
2, 67434, Note_on_c, 0, 50, 74
2, 67519, Note_on_c, 0, 54, 69
2, 67598, Note_on_c, 0, 59, 73
2, 67599, Note_on_c, 0, 74, 0
2, 67606, Note_on_c, 0, 74, 85
2, 67637, Note_on_c, 0, 35, 0
2, 67678, Note_on_c, 0, 62, 76
2, 67758, Note_on_c, 0, 54, 0
2, 67758, Note_on_c, 0, 50, 0
2, 67758, Note_on_c, 0, 62, 0
2, 67759, Note_on_c, 0, 59, 0
2, 67760, Control_c, 0, 64, 0
2, 67768, Note_on_c, 0, 47, 0
2, 67773, Note_on_c, 0, 47, 73
2, 67776, Note_on_c, 0, 74, 0
2, 67783, Note_on_c, 0, 74, 95
2, 67837, Control_c, 0, 64, 127
2, 67839, Note_on_c, 0, 50, 75
2, 67930, Note_on_c, 0, 54, 79
2, 67960, Note_on_c, 0, 74, 0
2, 67970, Note_on_c, 0, 74, 102
2, 68003, Note_on_c, 0, 59, 83
2, 68112, Control_c, 0, 64, 0
2, 68114, Note_on_c, 0, 47, 0
2, 68116, Note_on_c, 0, 50, 0
2, 68116, Note_on_c, 0, 59, 0
2, 68116, Note_on_c, 0, 54, 0
2, 68134, Note_on_c, 0, 45, 84
2, 68198, Control_c, 0, 64, 127
2, 68219, Note_on_c, 0, 52, 76
2, 68280, Note_on_c, 0, 57, 80
2, 68314, Note_on_c, 0, 78, 101
2, 68382, Note_on_c, 0, 61, 75
2, 68488, Note_on_c, 0, 64, 75
2, 68560, Note_on_c, 0, 69, 79
2, 68635, Control_c, 0, 64, 0
2, 68636, Note_on_c, 0, 52, 0
2, 68637, Note_on_c, 0, 69, 0
2, 68637, Note_on_c, 0, 57, 0
2, 68638, Note_on_c, 0, 61, 0
2, 68638, Note_on_c, 0, 78, 0
2, 68638, Note_on_c, 0, 64, 0
2, 68643, Note_on_c, 0, 45, 0
2, 68643, Note_on_c, 0, 74, 0
2, 68655, Note_on_c, 0, 45, 83
2, 68655, Note_on_c, 0, 76, 102
2, 68712, Control_c, 0, 64, 127
2, 68757, Note_on_c, 0, 52, 68
2, 68818, Note_on_c, 0, 57, 78
2, 68916, Note_on_c, 0, 61, 77
2, 69002, Note_on_c, 0, 64, 87
2, 69099, Note_on_c, 0, 69, 80
2, 69181, Note_on_c, 0, 73, 94
2, 69265, Note_on_c, 0, 76, 0
2, 69272, Note_on_c, 0, 76, 93
2, 69360, Note_on_c, 0, 81, 84
2, 69440, Note_on_c, 0, 88, 101
2, 69492, Note_on_c, 0, 69, 0
2, 69493, Note_on_c, 0, 52, 0
2, 69493, Note_on_c, 0, 45, 0
2, 69493, Control_c, 0, 64, 0
2, 69493, Note_on_c, 0, 81, 0
2, 69493, Note_on_c, 0, 57, 0
2, 69493, Note_on_c, 0, 76, 0
2, 69493, Note_on_c, 0, 64, 0
2, 69493, Note_on_c, 0, 61, 0
2, 69493, Note_on_c, 0, 73, 0
2, 69503, Note_on_c, 0, 88, 0
2, 69524, Note_on_c, 0, 47, 93
2, 69527, Note_on_c, 0, 35, 88
2, 69565, Control_c, 0, 64, 127
2, 69603, Note_on_c, 0, 47, 0
2, 69691, Note_on_c, 0, 74, 93
2, 69691, Note_on_c, 0, 86, 85
2, 69698, Note_on_c, 0, 54, 70
2, 69699, Note_on_c, 0, 59, 79
2, 69730, Control_c, 0, 64, 0
2, 69757, Control_c, 0, 64, 127
2, 69765, Note_on_c, 0, 35, 0
2, 69790, Note_on_c, 0, 73, 87
2, 69792, Note_on_c, 0, 50, 76
2, 69803, Note_on_c, 0, 86, 0
2, 69849, Note_on_c, 0, 54, 0
2, 69857, Note_on_c, 0, 54, 72
2, 69955, Control_c, 0, 64, 0
2, 69956, Note_on_c, 0, 73, 0
2, 69956, Note_on_c, 0, 54, 0
2, 69957, Note_on_c, 0, 74, 0
2, 69958, Note_on_c, 0, 50, 0
2, 69959, Note_on_c, 0, 69, 93
2, 69964, Note_on_c, 0, 59, 0
2, 70015, Note_on_c, 0, 69, 0
2, 70041, Control_c, 0, 64, 127
2, 70067, Note_on_c, 0, 47, 85
2, 70068, Note_on_c, 0, 35, 73
2, 70156, Note_on_c, 0, 64, 87
2, 70236, Note_on_c, 0, 69, 95
2, 70237, Note_on_c, 0, 54, 75
2, 70237, Note_on_c, 0, 57, 79
2, 70323, Note_on_c, 0, 50, 80
2, 70420, Note_on_c, 0, 59, 89
2, 70529, Note_on_c, 0, 54, 0
2, 70529, Note_on_c, 0, 57, 0
2, 70530, Note_on_c, 0, 69, 0
2, 70530, Note_on_c, 0, 64, 0
2, 70530, Note_on_c, 0, 47, 0
2, 70530, Note_on_c, 0, 50, 0
2, 70531, Note_on_c, 0, 59, 0
2, 70531, Control_c, 0, 64, 0
2, 70540, Note_on_c, 0, 35, 0
2, 70578, Note_on_c, 0, 47, 86
2, 70582, Note_on_c, 0, 35, 80
2, 70584, Note_on_c, 0, 69, 86
2, 70613, Note_on_c, 0, 35, 0
2, 70617, Control_c, 0, 64, 127
2, 70640, Note_on_c, 0, 47, 0
2, 70675, Note_on_c, 0, 62, 84
2, 70761, Note_on_c, 0, 57, 74
2, 70765, Note_on_c, 0, 54, 76
2, 70767, Note_on_c, 0, 47, 68
2, 70895, Control_c, 0, 64, 0
2, 70895, Note_on_c, 0, 54, 0
2, 70895, Note_on_c, 0, 57, 0
2, 70896, Note_on_c, 0, 69, 0
2, 70896, Note_on_c, 0, 62, 0
2, 70901, Note_on_c, 0, 47, 0
2, 70938, Note_on_c, 0, 47, 93
2, 70940, Note_on_c, 0, 59, 86
2, 70942, Note_on_c, 0, 35, 88
2, 70963, Control_c, 0, 64, 127
2, 71047, Note_on_c, 0, 47, 0
2, 71109, Note_on_c, 0, 59, 0
2, 71118, Note_on_c, 0, 74, 98
2, 71119, Note_on_c, 0, 47, 82
2, 71120, Note_on_c, 0, 59, 84
2, 71120, Note_on_c, 0, 54, 74
2, 71209, Note_on_c, 0, 50, 84
2, 71211, Note_on_c, 0, 73, 90
2, 71285, Note_on_c, 0, 54, 0
2, 71291, Note_on_c, 0, 54, 70
2, 71379, Note_on_c, 0, 69, 98
2, 71428, Control_c, 0, 64, 0
2, 71430, Note_on_c, 0, 47, 0
2, 71430, Note_on_c, 0, 74, 0
2, 71430, Note_on_c, 0, 54, 0
2, 71431, Note_on_c, 0, 59, 0
2, 71431, Note_on_c, 0, 50, 0
2, 71432, Note_on_c, 0, 73, 0
2, 71433, Note_on_c, 0, 69, 0
2, 71447, Note_on_c, 0, 35, 0
2, 71493, Control_c, 0, 64, 127
2, 71494, Note_on_c, 0, 47, 84
2, 71496, Note_on_c, 0, 35, 71
2, 71567, Note_on_c, 0, 64, 84
2, 71654, Note_on_c, 0, 47, 0
2, 71664, Note_on_c, 0, 54, 79
2, 71664, Note_on_c, 0, 57, 81
2, 71665, Note_on_c, 0, 73, 97
2, 71665, Note_on_c, 0, 47, 66
2, 71748, Note_on_c, 0, 50, 71
2, 71792, Note_on_c, 0, 54, 0
2, 71803, Note_on_c, 0, 54, 61
2, 71845, Note_on_c, 0, 59, 84
2, 71923, Note_on_c, 0, 64, 0
2, 71933, Note_on_c, 0, 64, 93
2, 71971, Control_c, 0, 64, 0
2, 71971, Note_on_c, 0, 73, 0
2, 71972, Note_on_c, 0, 57, 0
2, 71972, Note_on_c, 0, 50, 0
2, 71972, Note_on_c, 0, 47, 0
2, 71972, Note_on_c, 0, 64, 0
2, 71972, Note_on_c, 0, 59, 0
2, 71984, Note_on_c, 0, 54, 0
2, 72015, Note_on_c, 0, 35, 0
2, 72016, Note_on_c, 0, 48, 75
2, 72017, Note_on_c, 0, 66, 88
2, 72024, Note_on_c, 0, 54, 72
2, 72030, Control_c, 0, 64, 127
2, 72095, Note_on_c, 0, 57, 66
2, 72095, Note_on_c, 0, 69, 84
2, 72168, Note_on_c, 0, 54, 0
2, 72168, Note_on_c, 0, 57, 0
2, 72175, Note_on_c, 0, 57, 78
2, 72176, Note_on_c, 0, 69, 0
2, 72176, Note_on_c, 0, 54, 82
2, 72180, Note_on_c, 0, 45, 75
2, 72180, Note_on_c, 0, 59, 64
2, 72181, Note_on_c, 0, 47, 68
2, 72185, Note_on_c, 0, 69, 79
2, 72186, Note_on_c, 0, 71, 97
2, 72310, Note_on_c, 0, 48, 0
2, 72311, Note_on_c, 0, 47, 0
2, 72311, Note_on_c, 0, 54, 0
2, 72312, Note_on_c, 0, 69, 0
2, 72312, Note_on_c, 0, 57, 0
2, 72312, Note_on_c, 0, 66, 0
2, 72314, Control_c, 0, 64, 0
2, 72314, Note_on_c, 0, 71, 0
2, 72322, Note_on_c, 0, 45, 0
2, 72322, Note_on_c, 0, 59, 0
2, 72359, Note_on_c, 0, 31, 88
2, 72362, Note_on_c, 0, 43, 94
2, 72384, Control_c, 0, 64, 127
2, 72525, Note_on_c, 0, 86, 89
2, 72525, Note_on_c, 0, 74, 96
2, 72529, Note_on_c, 0, 86, 0
2, 72539, Note_on_c, 0, 59, 87
2, 72545, Note_on_c, 0, 47, 69
2, 72549, Note_on_c, 0, 54, 66
2, 72610, Note_on_c, 0, 73, 97
2, 72611, Note_on_c, 0, 85, 87
2, 72622, Note_on_c, 0, 85, 0
2, 72625, Note_on_c, 0, 50, 82
2, 72783, Note_on_c, 0, 69, 99
2, 72841, Note_on_c, 0, 54, 0
2, 72842, Note_on_c, 0, 59, 0
2, 72842, Control_c, 0, 64, 0
2, 72842, Note_on_c, 0, 73, 0
2, 72842, Note_on_c, 0, 43, 0
2, 72843, Note_on_c, 0, 74, 0
2, 72843, Note_on_c, 0, 50, 0
2, 72843, Note_on_c, 0, 47, 0
2, 72846, Note_on_c, 0, 69, 0
2, 72883, Note_on_c, 0, 31, 0
2, 72891, Note_on_c, 0, 31, 82
2, 72892, Note_on_c, 0, 43, 86
2, 72929, Control_c, 0, 64, 127
2, 72993, Note_on_c, 0, 76, 73
2, 72993, Note_on_c, 0, 64, 79
2, 73067, Note_on_c, 0, 31, 0
2, 73075, Note_on_c, 0, 57, 80
2, 73078, Note_on_c, 0, 69, 95
2, 73078, Note_on_c, 0, 54, 78
2, 73128, Note_on_c, 0, 43, 0
2, 73135, Note_on_c, 0, 43, 67
2, 73149, Note_on_c, 0, 50, 71
2, 73213, Note_on_c, 0, 54, 0
2, 73218, Note_on_c, 0, 54, 62
2, 73244, Note_on_c, 0, 43, 0
2, 73250, Note_on_c, 0, 43, 62
2, 73268, Note_on_c, 0, 59, 90
2, 73386, Note_on_c, 0, 54, 0
2, 73387, Note_on_c, 0, 69, 0
2, 73387, Note_on_c, 0, 57, 0
2, 73387, Note_on_c, 0, 64, 0
2, 73387, Note_on_c, 0, 50, 0
2, 73387, Note_on_c, 0, 59, 0
2, 73391, Control_c, 0, 64, 0
2, 73397, Note_on_c, 0, 76, 0
2, 73413, Note_on_c, 0, 43, 0
2, 73419, Note_on_c, 0, 31, 77
2, 73423, Note_on_c, 0, 43, 84
2, 73428, Note_on_c, 0, 69, 89
2, 73429, Note_on_c, 0, 57, 84
2, 73451, Control_c, 0, 64, 127
2, 73526, Note_on_c, 0, 62, 87
2, 73597, Note_on_c, 0, 57, 0
2, 73602, Note_on_c, 0, 57, 80
2, 73608, Note_on_c, 0, 54, 74
2, 73674, Note_on_c, 0, 31, 0
2, 73731, Control_c, 0, 64, 0
2, 73732, Note_on_c, 0, 54, 0
2, 73732, Note_on_c, 0, 62, 0
2, 73732, Note_on_c, 0, 43, 0
2, 73733, Note_on_c, 0, 57, 0
2, 73733, Note_on_c, 0, 69, 0
2, 73777, Note_on_c, 0, 31, 89
2, 73777, Note_on_c, 0, 43, 93
2, 73804, Control_c, 0, 64, 127
2, 73950, Note_on_c, 0, 43, 0
2, 73955, Note_on_c, 0, 74, 98
2, 73959, Note_on_c, 0, 86, 91
2, 73959, Note_on_c, 0, 43, 80
2, 73964, Note_on_c, 0, 47, 71
2, 74054, Note_on_c, 0, 85, 83
2, 74055, Note_on_c, 0, 73, 88
2, 74058, Note_on_c, 0, 85, 0
2, 74060, Note_on_c, 0, 50, 72
2, 74111, Note_on_c, 0, 54, 79
2, 74215, Note_on_c, 0, 69, 98
2, 74216, Note_on_c, 0, 81, 82
2, 74227, Note_on_c, 0, 81, 0
2, 74276, Note_on_c, 0, 73, 0
2, 74277, Note_on_c, 0, 54, 0
2, 74277, Note_on_c, 0, 50, 0
2, 74278, Note_on_c, 0, 74, 0
2, 74278, Control_c, 0, 64, 0
2, 74280, Note_on_c, 0, 47, 0
2, 74280, Note_on_c, 0, 86, 0
2, 74283, Note_on_c, 0, 69, 0
2, 74311, Note_on_c, 0, 31, 0
2, 74311, Note_on_c, 0, 43, 0
2, 74316, Note_on_c, 0, 31, 86
2, 74317, Note_on_c, 0, 43, 85
2, 74342, Control_c, 0, 64, 127
2, 74393, Note_on_c, 0, 64, 89
2, 74492, Note_on_c, 0, 45, 71
2, 74492, Note_on_c, 0, 57, 82
2, 74492, Note_on_c, 0, 73, 101
2, 74494, Note_on_c, 0, 54, 86
2, 74496, Note_on_c, 0, 45, 0
2, 74588, Note_on_c, 0, 43, 0
2, 74596, Note_on_c, 0, 43, 72
2, 74598, Note_on_c, 0, 50, 72
2, 74652, Note_on_c, 0, 59, 94
2, 74741, Note_on_c, 0, 64, 0
2, 74752, Note_on_c, 0, 64, 98
2, 74783, Note_on_c, 0, 73, 0
2, 74783, Note_on_c, 0, 54, 0
2, 74784, Note_on_c, 0, 57, 0
2, 74784, Note_on_c, 0, 59, 0
2, 74784, Control_c, 0, 64, 0
2, 74795, Note_on_c, 0, 50, 0
2, 74803, Note_on_c, 0, 31, 0
2, 74803, Note_on_c, 0, 43, 0
2, 74812, Note_on_c, 0, 31, 90
2, 74812, Note_on_c, 0, 32, 87
2, 74814, Note_on_c, 0, 43, 95
2, 74818, Note_on_c, 0, 32, 0
2, 74829, Note_on_c, 0, 66, 95
2, 74841, Control_c, 0, 64, 127
2, 74922, Note_on_c, 0, 69, 85
2, 74999, Note_on_c, 0, 38, 75
2, 75000, Note_on_c, 0, 50, 70
2, 75000, Note_on_c, 0, 45, 77
2, 75001, Note_on_c, 0, 71, 100
2, 75001, Note_on_c, 0, 54, 84
2, 75002, Note_on_c, 0, 43, 0
2, 75003, Note_on_c, 0, 42, 83
2, 75005, Note_on_c, 0, 57, 80
2, 75009, Note_on_c, 0, 43, 78
2, 75010, Note_on_c, 0, 42, 0
2, 75010, Note_on_c, 0, 45, 0
2, 75010, Note_on_c, 0, 50, 0
2, 75133, Note_on_c, 0, 31, 0
2, 75137, Note_on_c, 0, 43, 0
2, 75138, Control_c, 0, 64, 0
2, 75138, Note_on_c, 0, 69, 0
2, 75138, Note_on_c, 0, 64, 0
2, 75139, Note_on_c, 0, 66, 0
2, 75139, Note_on_c, 0, 54, 0
2, 75141, Note_on_c, 0, 71, 0
2, 75148, Note_on_c, 0, 57, 0
2, 75171, Note_on_c, 0, 38, 0
2, 75179, Note_on_c, 0, 50, 102
2, 75180, Note_on_c, 0, 38, 106
2, 75202, Control_c, 0, 64, 127
2, 75352, Note_on_c, 0, 86, 93
2, 75355, Note_on_c, 0, 59, 84
2, 75356, Note_on_c, 0, 50, 0
2, 75366, Note_on_c, 0, 50, 71
2, 75375, Note_on_c, 0, 54, 70
2, 75442, Note_on_c, 0, 85, 97
2, 75562, Note_on_c, 0, 42, 70
2, 75602, Note_on_c, 0, 45, 46
2, 75606, Note_on_c, 0, 81, 101
2, 75651, Control_c, 0, 64, 0
2, 75651, Note_on_c, 0, 54, 0
2, 75652, Note_on_c, 0, 85, 0
2, 75652, Note_on_c, 0, 86, 0
2, 75652, Note_on_c, 0, 59, 0
2, 75653, Note_on_c, 0, 50, 0
2, 75657, Note_on_c, 0, 81, 0
2, 75663, Note_on_c, 0, 42, 0
2, 75663, Note_on_c, 0, 45, 0
2, 75671, Note_on_c, 0, 38, 0
2, 75709, Control_c, 0, 64, 127
2, 75712, Note_on_c, 0, 50, 90
2, 75712, Note_on_c, 0, 38, 88
2, 75801, Note_on_c, 0, 76, 91
2, 75870, Note_on_c, 0, 50, 0
2, 75881, Note_on_c, 0, 50, 77
2, 75881, Note_on_c, 0, 54, 78
2, 75886, Note_on_c, 0, 57, 77
2, 75888, Note_on_c, 0, 81, 90
2, 75970, Note_on_c, 0, 50, 0
2, 75974, Note_on_c, 0, 50, 77
2, 75975, Note_on_c, 0, 62, 66
2, 75985, Note_on_c, 0, 62, 0
2, 76032, Note_on_c, 0, 54, 0
2, 76037, Note_on_c, 0, 54, 80
2, 76070, Note_on_c, 0, 71, 91
2, 76072, Note_on_c, 0, 83, 82
2, 76182, Note_on_c, 0, 76, 0
2, 76183, Note_on_c, 0, 54, 0
2, 76183, Note_on_c, 0, 57, 0
2, 76183, Note_on_c, 0, 81, 0
2, 76183, Note_on_c, 0, 50, 0
2, 76184, Control_c, 0, 64, 0
2, 76184, Note_on_c, 0, 71, 0
2, 76193, Note_on_c, 0, 38, 0
2, 76200, Note_on_c, 0, 83, 0
2, 76225, Note_on_c, 0, 50, 88
2, 76225, Note_on_c, 0, 38, 87
2, 76227, Note_on_c, 0, 81, 93
2, 76247, Control_c, 0, 64, 127
2, 76326, Note_on_c, 0, 74, 93
2, 76385, Note_on_c, 0, 50, 0
2, 76395, Note_on_c, 0, 57, 76
2, 76396, Note_on_c, 0, 54, 76
2, 76396, Note_on_c, 0, 50, 73
2, 76521, Control_c, 0, 64, 0
2, 76521, Note_on_c, 0, 54, 0
2, 76522, Note_on_c, 0, 81, 0
2, 76522, Note_on_c, 0, 57, 0
2, 76523, Note_on_c, 0, 50, 0
2, 76523, Note_on_c, 0, 74, 0
2, 76531, Note_on_c, 0, 38, 0
2, 76573, Note_on_c, 0, 50, 100
2, 76573, Note_on_c, 0, 38, 101
2, 76592, Control_c, 0, 64, 127
2, 76747, Note_on_c, 0, 42, 78
2, 76749, Note_on_c, 0, 86, 94
2, 76756, Note_on_c, 0, 54, 76
2, 76759, Note_on_c, 0, 59, 83
2, 76846, Note_on_c, 0, 50, 0
2, 76851, Note_on_c, 0, 50, 76
2, 76853, Note_on_c, 0, 85, 90
2, 76915, Note_on_c, 0, 54, 0
2, 76923, Note_on_c, 0, 54, 81
2, 77011, Note_on_c, 0, 81, 105
2, 77012, Note_on_c, 0, 62, 71
2, 77074, Note_on_c, 0, 85, 0
2, 77074, Note_on_c, 0, 86, 0
2, 77075, Note_on_c, 0, 50, 0
2, 77076, Note_on_c, 0, 42, 0
2, 77077, Note_on_c, 0, 81, 0
2, 77077, Note_on_c, 0, 59, 0
2, 77080, Control_c, 0, 64, 0
2, 77084, Note_on_c, 0, 38, 0
2, 77091, Note_on_c, 0, 54, 0
2, 77107, Note_on_c, 0, 62, 0
2, 77118, Note_on_c, 0, 38, 94
2, 77118, Note_on_c, 0, 50, 89
2, 77137, Control_c, 0, 64, 127
2, 77195, Note_on_c, 0, 76, 92
2, 77280, Note_on_c, 0, 54, 74
2, 77280, Note_on_c, 0, 57, 75
2, 77281, Note_on_c, 0, 85, 104
2, 77376, Note_on_c, 0, 50, 0
2, 77383, Note_on_c, 0, 50, 72
2, 77422, Note_on_c, 0, 54, 0
2, 77432, Note_on_c, 0, 54, 73
2, 77461, Note_on_c, 0, 71, 94
2, 77529, Note_on_c, 0, 54, 0
2, 77536, Note_on_c, 0, 54, 41
2, 77552, Note_on_c, 0, 76, 0
2, 77556, Note_on_c, 0, 76, 94
2, 77582, Control_c, 0, 64, 0
2, 77585, Note_on_c, 0, 54, 0
2, 77585, Note_on_c, 0, 57, 0
2, 77585, Note_on_c, 0, 85, 0
2, 77586, Note_on_c, 0, 71, 0
2, 77606, Note_on_c, 0, 38, 0
2, 77606, Note_on_c, 0, 50, 0
2, 77614, Note_on_c, 0, 38, 98
2, 77615, Note_on_c, 0, 50, 89
2, 77629, Note_on_c, 0, 76, 0
2, 77644, Control_c, 0, 64, 127
2, 77650, Note_on_c, 0, 78, 103
2, 77736, Note_on_c, 0, 38, 0
2, 77737, Note_on_c, 0, 81, 84
2, 77790, Note_on_c, 0, 50, 0
2, 77795, Note_on_c, 0, 57, 76
2, 77798, Note_on_c, 0, 50, 82
2, 77798, Note_on_c, 0, 54, 79
2, 77808, Note_on_c, 0, 83, 104
2, 77922, Control_c, 0, 64, 0
2, 77924, Note_on_c, 0, 50, 0
2, 77924, Note_on_c, 0, 78, 0
2, 77924, Note_on_c, 0, 83, 0
2, 77924, Note_on_c, 0, 54, 0
2, 77924, Note_on_c, 0, 81, 0
2, 77925, Note_on_c, 0, 57, 0
2, 77976, Note_on_c, 0, 52, 105
2, 77977, Note_on_c, 0, 40, 102
2, 78005, Control_c, 0, 64, 127
2, 78059, Note_on_c, 0, 40, 0
2, 78156, Note_on_c, 0, 59, 89
2, 78156, Note_on_c, 0, 86, 94
2, 78163, Note_on_c, 0, 55, 81
2, 78255, Note_on_c, 0, 85, 94
2, 78266, Note_on_c, 0, 52, 0
2, 78275, Note_on_c, 0, 52, 74
2, 78336, Note_on_c, 0, 55, 0
2, 78347, Note_on_c, 0, 55, 66
2, 78408, Note_on_c, 0, 81, 100
2, 78448, Note_on_c, 0, 86, 0
2, 78448, Note_on_c, 0, 52, 0
2, 78448, Note_on_c, 0, 59, 0
2, 78448, Note_on_c, 0, 85, 0
2, 78448, Note_on_c, 0, 55, 0
2, 78448, Control_c, 0, 64, 0
2, 78513, Note_on_c, 0, 52, 86
2, 78513, Note_on_c, 0, 40, 88
2, 78528, Control_c, 0, 64, 127
2, 78535, Note_on_c, 0, 81, 0
2, 78605, Note_on_c, 0, 76, 82
2, 78608, Note_on_c, 0, 77, 65
2, 78670, Note_on_c, 0, 55, 81
2, 78672, Note_on_c, 0, 57, 83
2, 78695, Note_on_c, 0, 81, 97
2, 78766, Note_on_c, 0, 52, 0
2, 78773, Note_on_c, 0, 52, 69
2, 78819, Note_on_c, 0, 55, 0
2, 78825, Note_on_c, 0, 55, 79
2, 78879, Note_on_c, 0, 71, 91
2, 78884, Note_on_c, 0, 69, 54
2, 78992, Note_on_c, 0, 52, 0
2, 78992, Note_on_c, 0, 69, 0
2, 78992, Note_on_c, 0, 81, 0
2, 78992, Note_on_c, 0, 76, 0
2, 78993, Note_on_c, 0, 57, 0
2, 78993, Control_c, 0, 64, 0
2, 78993, Note_on_c, 0, 55, 0
2, 78993, Note_on_c, 0, 71, 0
2, 78996, Note_on_c, 0, 40, 0
2, 79004, Note_on_c, 0, 77, 0
2, 79038, Note_on_c, 0, 52, 88
2, 79038, Note_on_c, 0, 40, 90
2, 79039, Note_on_c, 0, 81, 94
2, 79073, Control_c, 0, 64, 127
2, 79134, Note_on_c, 0, 74, 89
2, 79206, Note_on_c, 0, 57, 81
2, 79208, Note_on_c, 0, 55, 82
2, 79326, Note_on_c, 0, 40, 0
2, 79343, Note_on_c, 0, 52, 0
2, 79343, Note_on_c, 0, 55, 0
2, 79343, Note_on_c, 0, 81, 0
2, 79344, Note_on_c, 0, 74, 0
2, 79344, Note_on_c, 0, 57, 0
2, 79346, Control_c, 0, 64, 0
2, 79389, Note_on_c, 0, 52, 98
2, 79391, Note_on_c, 0, 40, 96
2, 79434, Control_c, 0, 64, 127
2, 79563, Note_on_c, 0, 86, 93
2, 79569, Note_on_c, 0, 59, 88
2, 79575, Note_on_c, 0, 55, 78
2, 79666, Note_on_c, 0, 85, 91
2, 79680, Note_on_c, 0, 52, 0
2, 79684, Note_on_c, 0, 52, 77
2, 79764, Note_on_c, 0, 55, 0
2, 79770, Note_on_c, 0, 55, 67
2, 79824, Note_on_c, 0, 81, 90
2, 79905, Note_on_c, 0, 86, 0
2, 79905, Note_on_c, 0, 59, 0
2, 79905, Control_c, 0, 64, 0
2, 79905, Note_on_c, 0, 55, 0
2, 79918, Note_on_c, 0, 40, 0
2, 79925, Note_on_c, 0, 52, 0
2, 79935, Note_on_c, 0, 40, 77
2, 79935, Note_on_c, 0, 52, 81
2, 79971, Control_c, 0, 64, 127
2, 80017, Note_on_c, 0, 76, 84
2, 80087, Note_on_c, 0, 85, 0
2, 80091, Note_on_c, 0, 55, 90
2, 80092, Note_on_c, 0, 85, 101
2, 80095, Note_on_c, 0, 57, 87
2, 80099, Note_on_c, 0, 45, 73
2, 80171, Note_on_c, 0, 52, 0
2, 80181, Note_on_c, 0, 52, 86
2, 80260, Note_on_c, 0, 71, 86
2, 80340, Note_on_c, 0, 81, 0
2, 80348, Note_on_c, 0, 52, 0
2, 80348, Note_on_c, 0, 76, 0
2, 80348, Note_on_c, 0, 40, 0
2, 80348, Note_on_c, 0, 45, 0
2, 80349, Note_on_c, 0, 55, 0
2, 80349, Control_c, 0, 64, 0
2, 80349, Note_on_c, 0, 57, 0
2, 80350, Note_on_c, 0, 85, 0
2, 80350, Note_on_c, 0, 71, 0
2, 80358, Note_on_c, 0, 76, 83
2, 80403, Note_on_c, 0, 40, 81
2, 80405, Note_on_c, 0, 52, 78
2, 80424, Control_c, 0, 64, 127
2, 80434, Note_on_c, 0, 78, 88
2, 80527, Note_on_c, 0, 81, 87
2, 80581, Note_on_c, 0, 55, 65
2, 80582, Note_on_c, 0, 57, 72
2, 80616, Note_on_c, 0, 83, 92
2, 80781, Note_on_c, 0, 78, 0
2, 80782, Note_on_c, 0, 52, 0
2, 80782, Note_on_c, 0, 55, 0
2, 80782, Note_on_c, 0, 81, 0
2, 80782, Note_on_c, 0, 57, 0
2, 80783, Control_c, 0, 64, 0
2, 80783, Note_on_c, 0, 83, 0
2, 80793, Note_on_c, 0, 40, 0
2, 80808, Note_on_c, 0, 76, 0
2, 80828, Note_on_c, 0, 74, 74
2, 80828, Note_on_c, 0, 52, 52
2, 80829, Note_on_c, 0, 62, 60
2, 81000, Control_c, 0, 64, 127
2, 81017, Note_on_c, 0, 57, 48
2, 81177, Note_on_c, 0, 62, 0
2, 81187, Note_on_c, 0, 62, 50
2, 81355, Note_on_c, 0, 78, 81
2, 81369, Note_on_c, 0, 57, 0
2, 81374, Note_on_c, 0, 57, 49
2, 81553, Note_on_c, 0, 62, 0
2, 81557, Note_on_c, 0, 62, 46
2, 81715, Note_on_c, 0, 57, 0
2, 81726, Note_on_c, 0, 57, 46
2, 81731, Note_on_c, 0, 69, 42
2, 81738, Note_on_c, 0, 69, 0
2, 81899, Note_on_c, 0, 78, 0
2, 81907, Note_on_c, 0, 62, 0
2, 81909, Note_on_c, 0, 78, 72
2, 81916, Note_on_c, 0, 62, 52
2, 82091, Note_on_c, 0, 57, 0
2, 82092, Note_on_c, 0, 79, 85
2, 82100, Note_on_c, 0, 57, 54
2, 82237, Note_on_c, 0, 74, 0
2, 82244, Note_on_c, 0, 74, 42
2, 82264, Note_on_c, 0, 62, 0
2, 82264, Note_on_c, 0, 52, 0
2, 82264, Note_on_c, 0, 57, 0
2, 82265, Control_c, 0, 64, 0
2, 82265, Note_on_c, 0, 78, 0
2, 82271, Note_on_c, 0, 54, 47
2, 82383, Control_c, 0, 64, 127
2, 82441, Note_on_c, 0, 78, 69
2, 82444, Note_on_c, 0, 57, 43
2, 82612, Note_on_c, 0, 76, 63
2, 82613, Note_on_c, 0, 62, 49
2, 82752, Note_on_c, 0, 74, 0
2, 82798, Note_on_c, 0, 57, 0
2, 82803, Note_on_c, 0, 74, 73
2, 82804, Note_on_c, 0, 57, 42
2, 82974, Note_on_c, 0, 62, 0
2, 82984, Note_on_c, 0, 62, 49
2, 83143, Note_on_c, 0, 57, 0
2, 83147, Note_on_c, 0, 57, 48
2, 83328, Note_on_c, 0, 74, 0
2, 83335, Note_on_c, 0, 62, 0
2, 83337, Note_on_c, 0, 74, 66
2, 83342, Note_on_c, 0, 62, 50
2, 83520, Note_on_c, 0, 57, 0
2, 83520, Note_on_c, 0, 79, 0
2, 83527, Note_on_c, 0, 57, 56
2, 83530, Note_on_c, 0, 79, 84
2, 83665, Note_on_c, 0, 62, 0
2, 83670, Note_on_c, 0, 62, 46
2, 83686, Note_on_c, 0, 57, 0
2, 83687, Control_c, 0, 64, 0
2, 83689, Note_on_c, 0, 76, 0
2, 83690, Note_on_c, 0, 78, 0
2, 83696, Note_on_c, 0, 54, 0
2, 83709, Note_on_c, 0, 55, 49
2, 83819, Control_c, 0, 64, 127
2, 83882, Note_on_c, 0, 78, 69
2, 83902, Note_on_c, 0, 57, 52
2, 84034, Note_on_c, 0, 62, 0
2, 84038, Note_on_c, 0, 62, 56
2, 84062, Note_on_c, 0, 76, 65
2, 84226, Note_on_c, 0, 74, 0
2, 84234, Note_on_c, 0, 57, 0
2, 84236, Note_on_c, 0, 74, 71
2, 84242, Note_on_c, 0, 57, 51
2, 84418, Note_on_c, 0, 62, 0
2, 84429, Note_on_c, 0, 62, 54
2, 84587, Note_on_c, 0, 57, 0
2, 84594, Note_on_c, 0, 69, 43
2, 84595, Note_on_c, 0, 57, 49
2, 84764, Note_on_c, 0, 62, 0
2, 84764, Note_on_c, 0, 74, 0
2, 84769, Note_on_c, 0, 74, 71
2, 84771, Note_on_c, 0, 62, 60
2, 84940, Note_on_c, 0, 69, 0
2, 84948, Note_on_c, 0, 57, 0
2, 84952, Note_on_c, 0, 69, 73
2, 84952, Note_on_c, 0, 57, 52
2, 85092, Control_c, 0, 64, 0
2, 85093, Note_on_c, 0, 57, 0
2, 85094, Note_on_c, 0, 55, 0
2, 85095, Note_on_c, 0, 74, 0
2, 85095, Note_on_c, 0, 76, 0
2, 85096, Note_on_c, 0, 78, 0
2, 85117, Note_on_c, 0, 62, 0
2, 85121, Note_on_c, 0, 47, 51
2, 85123, Note_on_c, 0, 62, 43
2, 85125, Note_on_c, 0, 79, 0
2, 85194, Control_c, 0, 64, 127
2, 85248, Note_on_c, 0, 47, 0
2, 85294, Note_on_c, 0, 69, 0
2, 85298, Note_on_c, 0, 69, 70
2, 85328, Note_on_c, 0, 57, 45
2, 85461, Note_on_c, 0, 76, 81
2, 85470, Note_on_c, 0, 62, 0
2, 85479, Note_on_c, 0, 62, 52
2, 85632, Note_on_c, 0, 57, 0
2, 85637, Note_on_c, 0, 57, 51
2, 85638, Note_on_c, 0, 74, 81
2, 85816, Note_on_c, 0, 62, 0
2, 85826, Note_on_c, 0, 62, 52
2, 85985, Note_on_c, 0, 57, 0
2, 85989, Note_on_c, 0, 73, 75
2, 85989, Note_on_c, 0, 57, 54
2, 86161, Note_on_c, 0, 62, 0
2, 86171, Note_on_c, 0, 62, 55
2, 86323, Note_on_c, 0, 57, 0
2, 86323, Note_on_c, 0, 69, 0
2, 86328, Note_on_c, 0, 57, 63
2, 86332, Note_on_c, 0, 69, 57
2, 86474, Control_c, 0, 64, 0
2, 86479, Note_on_c, 0, 69, 0
2, 86479, Note_on_c, 0, 62, 0
2, 86479, Note_on_c, 0, 57, 0
2, 86479, Note_on_c, 0, 76, 0
2, 86480, Note_on_c, 0, 73, 0
2, 86507, Note_on_c, 0, 74, 0
2, 86512, Note_on_c, 0, 74, 82
2, 86513, Note_on_c, 0, 43, 62
2, 86568, Control_c, 0, 64, 127
2, 86689, Note_on_c, 0, 57, 55
2, 86691, Note_on_c, 0, 69, 50
2, 86722, Note_on_c, 0, 43, 0
2, 86871, Note_on_c, 0, 62, 53
2, 87058, Note_on_c, 0, 78, 83
2, 87060, Note_on_c, 0, 57, 0
2, 87060, Note_on_c, 0, 69, 0
2, 87064, Note_on_c, 0, 57, 54
2, 87068, Note_on_c, 0, 69, 52
2, 87244, Note_on_c, 0, 62, 0
2, 87248, Note_on_c, 0, 62, 56
2, 87267, Note_on_c, 0, 69, 0
2, 87271, Note_on_c, 0, 69, 31
2, 87413, Note_on_c, 0, 57, 0
2, 87413, Note_on_c, 0, 69, 0
2, 87419, Note_on_c, 0, 57, 60
2, 87422, Note_on_c, 0, 69, 50
2, 87582, Note_on_c, 0, 78, 0
2, 87592, Note_on_c, 0, 78, 79
2, 87598, Note_on_c, 0, 62, 0
2, 87604, Note_on_c, 0, 62, 56
2, 87767, Note_on_c, 0, 57, 0
2, 87776, Note_on_c, 0, 57, 63
2, 87778, Note_on_c, 0, 79, 88
2, 87918, Control_c, 0, 64, 0
2, 87918, Note_on_c, 0, 57, 0
2, 87918, Note_on_c, 0, 62, 0
2, 87919, Note_on_c, 0, 74, 0
2, 87920, Note_on_c, 0, 78, 0
2, 87949, Note_on_c, 0, 45, 72
2, 88005, Control_c, 0, 64, 127
2, 88122, Note_on_c, 0, 78, 78
2, 88123, Note_on_c, 0, 57, 59
2, 88291, Note_on_c, 0, 76, 75
2, 88307, Note_on_c, 0, 62, 57
2, 88481, Note_on_c, 0, 57, 0
2, 88483, Note_on_c, 0, 74, 78
2, 88485, Note_on_c, 0, 57, 52
2, 88657, Note_on_c, 0, 62, 0
2, 88664, Note_on_c, 0, 62, 53
2, 88665, Note_on_c, 0, 69, 0
2, 88834, Note_on_c, 0, 57, 0
2, 88840, Note_on_c, 0, 57, 56
2, 88842, Note_on_c, 0, 69, 54
2, 89011, Note_on_c, 0, 57, 0
2, 89011, Note_on_c, 0, 62, 0
2, 89011, Note_on_c, 0, 74, 0
2, 89015, Note_on_c, 0, 74, 76
2, 89020, Note_on_c, 0, 57, 44
2, 89020, Note_on_c, 0, 62, 63
2, 89187, Note_on_c, 0, 45, 0
2, 89187, Note_on_c, 0, 57, 0
2, 89193, Note_on_c, 0, 73, 83
2, 89198, Note_on_c, 0, 45, 55
2, 89198, Note_on_c, 0, 57, 61
2, 89338, Control_c, 0, 64, 0
2, 89339, Note_on_c, 0, 62, 0
2, 89339, Note_on_c, 0, 57, 0
2, 89340, Note_on_c, 0, 45, 0
2, 89340, Note_on_c, 0, 69, 0
2, 89340, Note_on_c, 0, 74, 0
2, 89342, Note_on_c, 0, 76, 0
2, 89342, Note_on_c, 0, 78, 0
2, 89349, Note_on_c, 0, 79, 0
2, 89371, Note_on_c, 0, 47, 69
2, 89373, Note_on_c, 0, 59, 54
2, 89379, Note_on_c, 0, 59, 0
2, 89448, Control_c, 0, 64, 127
2, 89550, Note_on_c, 0, 69, 71
2, 89554, Note_on_c, 0, 57, 61
2, 89720, Note_on_c, 0, 66, 74
2, 89721, Note_on_c, 0, 62, 57
2, 89886, Note_on_c, 0, 57, 0
2, 89886, Note_on_c, 0, 66, 0
2, 89896, Note_on_c, 0, 57, 53
2, 89897, Note_on_c, 0, 66, 74
2, 90086, Note_on_c, 0, 62, 0
2, 90090, Note_on_c, 0, 62, 58
2, 90255, Note_on_c, 0, 57, 0
2, 90255, Note_on_c, 0, 69, 0
2, 90260, Note_on_c, 0, 57, 55
2, 90261, Note_on_c, 0, 69, 49
2, 90424, Note_on_c, 0, 62, 0
2, 90424, Note_on_c, 0, 73, 0
2, 90431, Note_on_c, 0, 73, 71
2, 90435, Note_on_c, 0, 62, 59
2, 90600, Note_on_c, 0, 47, 0
2, 90600, Note_on_c, 0, 73, 0
2, 90611, Note_on_c, 0, 47, 41
2, 90612, Note_on_c, 0, 73, 81
2, 90733, Control_c, 0, 64, 0
2, 90734, Note_on_c, 0, 47, 0
2, 90735, Note_on_c, 0, 66, 0
2, 90735, Note_on_c, 0, 57, 0
2, 90735, Note_on_c, 0, 69, 0
2, 90746, Note_on_c, 0, 62, 0
2, 90781, Note_on_c, 0, 47, 59
2, 90839, Control_c, 0, 64, 127
2, 90952, Note_on_c, 0, 74, 73
2, 90957, Note_on_c, 0, 57, 57
2, 91129, Note_on_c, 0, 62, 56
2, 91299, Note_on_c, 0, 57, 0
2, 91309, Note_on_c, 0, 57, 59
2, 91484, Note_on_c, 0, 62, 0
2, 91488, Note_on_c, 0, 62, 63
2, 91492, Note_on_c, 0, 57, 0
2, 91630, Note_on_c, 0, 47, 0
2, 91633, Control_c, 0, 64, 0
2, 91636, Note_on_c, 0, 62, 0
2, 91636, Note_on_c, 0, 74, 0
2, 91645, Note_on_c, 0, 73, 0
2, 91685, Note_on_c, 0, 85, 86
2, 91687, Note_on_c, 0, 73, 81
2, 91715, Note_on_c, 0, 73, 0
2, 91718, Note_on_c, 0, 85, 0
2, 91859, Note_on_c, 0, 85, 88
2, 91861, Note_on_c, 0, 43, 47
2, 91864, Note_on_c, 0, 73, 73
2, 91894, Note_on_c, 0, 73, 0
2, 91898, Note_on_c, 0, 43, 0
2, 91921, Note_on_c, 0, 85, 0
2, 92032, Note_on_c, 0, 86, 86
2, 92038, Note_on_c, 0, 43, 43
2, 92038, Note_on_c, 0, 74, 75
2, 92044, Note_on_c, 0, 43, 0
2, 92075, Note_on_c, 0, 74, 0
2, 92083, Note_on_c, 0, 86, 0
2, 92208, Note_on_c, 0, 86, 88
2, 92208, Note_on_c, 0, 74, 81
2, 92209, Note_on_c, 0, 83, 88
2, 92209, Note_on_c, 0, 47, 69
2, 92212, Note_on_c, 0, 40, 62
2, 92216, Note_on_c, 0, 79, 76
2, 92236, Control_c, 0, 64, 127
2, 92287, Note_on_c, 0, 47, 0
2, 92296, Note_on_c, 0, 55, 66
2, 92325, Control_c, 0, 64, 0
2, 92357, Note_on_c, 0, 55, 0
2, 92367, Note_on_c, 0, 40, 0
2, 92393, Note_on_c, 0, 47, 58
2, 92394, Note_on_c, 0, 40, 47
2, 92451, Note_on_c, 0, 47, 0
2, 92461, Note_on_c, 0, 40, 0
2, 92482, Note_on_c, 0, 55, 56
2, 92527, Note_on_c, 0, 55, 0
2, 92548, Note_on_c, 0, 47, 54
2, 92549, Note_on_c, 0, 40, 49
2, 92582, Note_on_c, 0, 74, 0
2, 92604, Note_on_c, 0, 40, 0
2, 92606, Note_on_c, 0, 47, 0
2, 92659, Note_on_c, 0, 55, 48
2, 92694, Note_on_c, 0, 55, 0
2, 92712, Note_on_c, 0, 79, 0
2, 92723, Note_on_c, 0, 90, 95
2, 92726, Note_on_c, 0, 47, 65
2, 92728, Note_on_c, 0, 86, 0
2, 92734, Note_on_c, 0, 78, 78
2, 92734, Note_on_c, 0, 40, 59
2, 92736, Note_on_c, 0, 83, 0
2, 92739, Note_on_c, 0, 86, 71
2, 92740, Note_on_c, 0, 83, 68
2, 92783, Note_on_c, 0, 47, 0
2, 92786, Note_on_c, 0, 40, 0
2, 92893, Note_on_c, 0, 47, 64
2, 92895, Note_on_c, 0, 40, 52
2, 92957, Note_on_c, 0, 40, 0
2, 92961, Note_on_c, 0, 47, 0
2, 92979, Note_on_c, 0, 55, 65
2, 93046, Note_on_c, 0, 55, 0
2, 93060, Note_on_c, 0, 47, 69
2, 93069, Note_on_c, 0, 40, 54
2, 93081, Note_on_c, 0, 86, 0
2, 93109, Note_on_c, 0, 40, 0
2, 93110, Note_on_c, 0, 47, 0
2, 93164, Note_on_c, 0, 55, 60
2, 93203, Note_on_c, 0, 55, 0
2, 93227, Note_on_c, 0, 78, 0
2, 93235, Note_on_c, 0, 83, 0
2, 93235, Note_on_c, 0, 90, 0
2, 93243, Note_on_c, 0, 90, 96
2, 93247, Note_on_c, 0, 47, 55
2, 93247, Note_on_c, 0, 40, 52
2, 93248, Note_on_c, 0, 78, 84
2, 93294, Note_on_c, 0, 40, 0
2, 93294, Note_on_c, 0, 47, 0
2, 93332, Note_on_c, 0, 55, 46
2, 93366, Note_on_c, 0, 55, 0
2, 93404, Note_on_c, 0, 40, 61
2, 93408, Note_on_c, 0, 47, 66
2, 93430, Note_on_c, 0, 91, 91
2, 93432, Note_on_c, 0, 83, 83
2, 93437, Note_on_c, 0, 86, 84
2, 93439, Note_on_c, 0, 79, 81
2, 93467, Note_on_c, 0, 40, 0
2, 93471, Note_on_c, 0, 47, 0
2, 93486, Note_on_c, 0, 55, 52
2, 93488, Note_on_c, 0, 78, 0
2, 93551, Note_on_c, 0, 55, 0
2, 93587, Note_on_c, 0, 42, 79
2, 93592, Note_on_c, 0, 50, 76
2, 93634, Note_on_c, 0, 90, 0
2, 93635, Note_on_c, 0, 91, 0
2, 93636, Note_on_c, 0, 79, 0
2, 93638, Note_on_c, 0, 83, 0
2, 93638, Note_on_c, 0, 86, 0
2, 93639, Note_on_c, 0, 42, 0
2, 93646, Note_on_c, 0, 50, 0
2, 93692, Note_on_c, 0, 57, 63
2, 93738, Note_on_c, 0, 57, 0
2, 93766, Note_on_c, 0, 90, 94
2, 93768, Note_on_c, 0, 78, 94
2, 93772, Note_on_c, 0, 50, 74
2, 93789, Note_on_c, 0, 42, 55
2, 93814, Note_on_c, 0, 78, 0
2, 93814, Note_on_c, 0, 50, 0
2, 93822, Note_on_c, 0, 42, 0
2, 93882, Note_on_c, 0, 57, 46
2, 93918, Note_on_c, 0, 57, 0
2, 93938, Note_on_c, 0, 88, 94
2, 93939, Note_on_c, 0, 76, 90
2, 93939, Note_on_c, 0, 50, 68
2, 93964, Note_on_c, 0, 90, 0
2, 93976, Note_on_c, 0, 50, 0
2, 93987, Note_on_c, 0, 76, 0
2, 94016, Note_on_c, 0, 57, 62
2, 94074, Note_on_c, 0, 57, 0
2, 94087, Note_on_c, 0, 88, 0
2, 94113, Note_on_c, 0, 86, 92
2, 94113, Note_on_c, 0, 50, 79
2, 94114, Note_on_c, 0, 42, 70
2, 94117, Note_on_c, 0, 74, 85
2, 94119, Note_on_c, 0, 78, 82
2, 94120, Note_on_c, 0, 81, 79
2, 94160, Note_on_c, 0, 42, 0
2, 94160, Note_on_c, 0, 50, 0
2, 94193, Note_on_c, 0, 57, 76
2, 94258, Note_on_c, 0, 57, 0
2, 94282, Note_on_c, 0, 50, 83
2, 94291, Note_on_c, 0, 42, 63
2, 94332, Note_on_c, 0, 42, 0
2, 94337, Note_on_c, 0, 50, 0
2, 94375, Note_on_c, 0, 57, 74
2, 94419, Note_on_c, 0, 57, 0
2, 94457, Note_on_c, 0, 50, 71
2, 94460, Note_on_c, 0, 42, 58
2, 94499, Note_on_c, 0, 81, 0
2, 94504, Note_on_c, 0, 42, 0
2, 94505, Note_on_c, 0, 50, 0
2, 94510, Note_on_c, 0, 74, 0
2, 94525, Note_on_c, 0, 78, 0
2, 94525, Note_on_c, 0, 86, 0
2, 94538, Note_on_c, 0, 57, 75
2, 94592, Note_on_c, 0, 57, 0
2, 94644, Note_on_c, 0, 86, 90
2, 94645, Note_on_c, 0, 74, 87
2, 94645, Note_on_c, 0, 50, 75
2, 94648, Note_on_c, 0, 42, 64
2, 94691, Note_on_c, 0, 42, 0
2, 94706, Note_on_c, 0, 50, 0
2, 94709, Note_on_c, 0, 74, 0
2, 94726, Note_on_c, 0, 57, 65
2, 94763, Note_on_c, 0, 86, 0
2, 94767, Note_on_c, 0, 57, 0
2, 94795, Note_on_c, 0, 42, 65
2, 94815, Note_on_c, 0, 91, 105
2, 94820, Note_on_c, 0, 83, 94
2, 94822, Note_on_c, 0, 79, 98
2, 94823, Note_on_c, 0, 86, 85
2, 94862, Note_on_c, 0, 42, 0
2, 94871, Note_on_c, 0, 57, 72
2, 94934, Note_on_c, 0, 57, 0
2, 94988, Note_on_c, 0, 43, 80
2, 94993, Note_on_c, 0, 50, 79
2, 95026, Note_on_c, 0, 43, 0
2, 95062, Note_on_c, 0, 50, 0
2, 95083, Note_on_c, 0, 59, 82
2, 95137, Note_on_c, 0, 59, 0
2, 95164, Note_on_c, 0, 43, 75
2, 95166, Note_on_c, 0, 50, 80
2, 95174, Note_on_c, 0, 90, 99
2, 95175, Note_on_c, 0, 78, 96
2, 95201, Note_on_c, 0, 79, 0
2, 95208, Note_on_c, 0, 43, 0
2, 95222, Note_on_c, 0, 50, 0
2, 95224, Note_on_c, 0, 91, 0
2, 95239, Note_on_c, 0, 86, 0
2, 95253, Note_on_c, 0, 59, 74
2, 95270, Note_on_c, 0, 78, 0
2, 95304, Note_on_c, 0, 59, 0
2, 95324, Note_on_c, 0, 83, 0
2, 95331, Note_on_c, 0, 43, 73
2, 95335, Note_on_c, 0, 50, 78
2, 95335, Note_on_c, 0, 88, 96
2, 95338, Note_on_c, 0, 76, 94
2, 95362, Note_on_c, 0, 90, 0
2, 95369, Note_on_c, 0, 76, 0
2, 95374, Note_on_c, 0, 88, 0
2, 95374, Note_on_c, 0, 43, 0
2, 95388, Note_on_c, 0, 50, 0
2, 95417, Note_on_c, 0, 59, 73
2, 95479, Note_on_c, 0, 59, 0
2, 95510, Note_on_c, 0, 86, 96
2, 95513, Note_on_c, 0, 50, 75
2, 95514, Note_on_c, 0, 43, 74
2, 95514, Note_on_c, 0, 74, 84
2, 95518, Note_on_c, 0, 83, 89
2, 95518, Note_on_c, 0, 79, 87
2, 95559, Note_on_c, 0, 43, 0
2, 95570, Note_on_c, 0, 50, 0
2, 95595, Note_on_c, 0, 59, 82
2, 95667, Note_on_c, 0, 59, 0
2, 95688, Note_on_c, 0, 50, 72
2, 95691, Note_on_c, 0, 43, 67
2, 95731, Note_on_c, 0, 43, 0
2, 95743, Note_on_c, 0, 50, 0
2, 95782, Note_on_c, 0, 59, 81
2, 95850, Note_on_c, 0, 59, 0
2, 95864, Note_on_c, 0, 50, 74
2, 95872, Note_on_c, 0, 43, 60
2, 95912, Note_on_c, 0, 43, 0
2, 95916, Note_on_c, 0, 74, 0
2, 95920, Note_on_c, 0, 86, 0
2, 95924, Note_on_c, 0, 50, 0
2, 95963, Note_on_c, 0, 59, 70
2, 95984, Note_on_c, 0, 79, 0
2, 95992, Note_on_c, 0, 83, 0
2, 96012, Note_on_c, 0, 59, 0
2, 96034, Note_on_c, 0, 86, 97
2, 96034, Note_on_c, 0, 43, 68
2, 96040, Note_on_c, 0, 74, 90
2, 96041, Note_on_c, 0, 50, 72
2, 96072, Note_on_c, 0, 74, 0
2, 96080, Note_on_c, 0, 86, 0
2, 96085, Note_on_c, 0, 43, 0
2, 96097, Note_on_c, 0, 50, 0
2, 96121, Note_on_c, 0, 59, 78
2, 96171, Note_on_c, 0, 59, 0
2, 96201, Note_on_c, 0, 43, 65
2, 96207, Note_on_c, 0, 43, 0
2, 96211, Note_on_c, 0, 81, 99
2, 96212, Note_on_c, 0, 45, 64
2, 96213, Note_on_c, 0, 50, 72
2, 96219, Note_on_c, 0, 69, 86
2, 96219, Note_on_c, 0, 76, 90
2, 96222, Note_on_c, 0, 74, 74
2, 96222, Note_on_c, 0, 45, 0
2, 96257, Note_on_c, 0, 50, 0
2, 96281, Note_on_c, 0, 59, 80
2, 96333, Note_on_c, 0, 59, 0
2, 96387, Note_on_c, 0, 45, 83
2, 96388, Note_on_c, 0, 52, 78
2, 96426, Note_on_c, 0, 45, 0
2, 96426, Note_on_c, 0, 52, 0
2, 96452, Note_on_c, 0, 81, 0
2, 96453, Note_on_c, 0, 74, 0
2, 96468, Note_on_c, 0, 69, 0
2, 96477, Note_on_c, 0, 57, 73
2, 96491, Note_on_c, 0, 76, 0
2, 96527, Note_on_c, 0, 57, 0
2, 96555, Note_on_c, 0, 52, 78
2, 96556, Note_on_c, 0, 81, 93
2, 96559, Note_on_c, 0, 69, 84
2, 96567, Note_on_c, 0, 45, 75
2, 96583, Note_on_c, 0, 69, 0
2, 96593, Note_on_c, 0, 81, 0
2, 96595, Note_on_c, 0, 52, 0
2, 96598, Note_on_c, 0, 45, 0
2, 96659, Note_on_c, 0, 57, 68
2, 96700, Note_on_c, 0, 57, 0
2, 96725, Note_on_c, 0, 88, 103
2, 96725, Note_on_c, 0, 52, 75
2, 96726, Note_on_c, 0, 76, 98
2, 96732, Note_on_c, 0, 45, 75
2, 96757, Note_on_c, 0, 76, 0
2, 96764, Note_on_c, 0, 88, 0
2, 96765, Note_on_c, 0, 45, 0
2, 96767, Note_on_c, 0, 52, 0
2, 96817, Note_on_c, 0, 57, 71
2, 96873, Note_on_c, 0, 57, 0
2, 96902, Note_on_c, 0, 86, 96
2, 96904, Note_on_c, 0, 81, 93
2, 96909, Note_on_c, 0, 52, 76
2, 96910, Note_on_c, 0, 74, 85
2, 96912, Note_on_c, 0, 45, 79
2, 96912, Note_on_c, 0, 76, 92
2, 96957, Note_on_c, 0, 52, 0
2, 96960, Note_on_c, 0, 45, 0
2, 96994, Note_on_c, 0, 57, 73
2, 97062, Note_on_c, 0, 57, 0
2, 97084, Note_on_c, 0, 52, 73
2, 97085, Note_on_c, 0, 45, 82
2, 97123, Note_on_c, 0, 52, 0
2, 97159, Note_on_c, 0, 45, 0
2, 97174, Note_on_c, 0, 57, 75
2, 97229, Note_on_c, 0, 57, 0
2, 97243, Note_on_c, 0, 85, 95
2, 97252, Note_on_c, 0, 73, 89
2, 97256, Note_on_c, 0, 45, 79
2, 97257, Note_on_c, 0, 52, 74
2, 97298, Note_on_c, 0, 45, 0
2, 97304, Note_on_c, 0, 52, 0
2, 97336, Control_c, 0, 64, 127
2, 97348, Note_on_c, 0, 57, 74
2, 97390, Control_c, 0, 64, 0
2, 97430, Note_on_c, 0, 52, 72
2, 97430, Note_on_c, 0, 45, 75
2, 97466, Note_on_c, 0, 57, 0
2, 97497, Note_on_c, 0, 74, 0
2, 97503, Note_on_c, 0, 57, 78
2, 97505, Note_on_c, 0, 52, 0
2, 97505, Control_c, 0, 64, 127
2, 97589, Note_on_c, 0, 45, 0
2, 97597, Note_on_c, 0, 52, 73
2, 97599, Note_on_c, 0, 45, 75
2, 97658, Note_on_c, 0, 57, 0
2, 97664, Note_on_c, 0, 57, 72
2, 97708, Note_on_c, 0, 57, 0
2, 97709, Note_on_c, 0, 52, 0
2, 97709, Control_c, 0, 64, 0
2, 97710, Note_on_c, 0, 45, 0
2, 97710, Note_on_c, 0, 73, 0
2, 97711, Note_on_c, 0, 86, 0
2, 97712, Note_on_c, 0, 85, 0
2, 97713, Note_on_c, 0, 81, 0
2, 97720, Note_on_c, 0, 76, 0
2, 97778, Note_on_c, 0, 86, 101
2, 97782, Note_on_c, 0, 83, 104
2, 97782, Note_on_c, 0, 74, 99
2, 97785, Note_on_c, 0, 79, 91
2, 97791, Note_on_c, 0, 31, 86
2, 97792, Note_on_c, 0, 43, 87
2, 97797, Control_c, 0, 64, 127
2, 97920, Note_on_c, 0, 43, 0
2, 97929, Note_on_c, 0, 43, 61
2, 97951, Note_on_c, 0, 50, 77
2, 98033, Note_on_c, 0, 55, 70
2, 98119, Note_on_c, 0, 50, 0
2, 98127, Note_on_c, 0, 43, 0
2, 98130, Note_on_c, 0, 50, 68
2, 98132, Note_on_c, 0, 43, 64
2, 98219, Note_on_c, 0, 43, 0
2, 98219, Note_on_c, 0, 55, 0
2, 98224, Note_on_c, 0, 55, 67
2, 98226, Note_on_c, 0, 43, 58
2, 98304, Note_on_c, 0, 50, 0
2, 98311, Note_on_c, 0, 50, 70
2, 98316, Note_on_c, 0, 90, 103
2, 98319, Note_on_c, 0, 86, 0
2, 98323, Note_on_c, 0, 78, 92
2, 98327, Note_on_c, 0, 83, 0
2, 98330, Note_on_c, 0, 86, 88
2, 98331, Note_on_c, 0, 83, 81
2, 98396, Note_on_c, 0, 55, 0
2, 98406, Note_on_c, 0, 55, 62
2, 98472, Note_on_c, 0, 43, 0
2, 98472, Note_on_c, 0, 50, 0
2, 98482, Note_on_c, 0, 50, 71
2, 98483, Note_on_c, 0, 43, 75
2, 98572, Note_on_c, 0, 55, 0
2, 98578, Note_on_c, 0, 55, 74
2, 98580, Note_on_c, 0, 31, 0
2, 98649, Note_on_c, 0, 43, 0
2, 98659, Note_on_c, 0, 43, 65
2, 98734, Note_on_c, 0, 55, 0
2, 98741, Note_on_c, 0, 55, 68
2, 98833, Note_on_c, 0, 43, 0
2, 98833, Note_on_c, 0, 50, 0
2, 98833, Note_on_c, 0, 90, 0
2, 98841, Note_on_c, 0, 78, 0
2, 98842, Note_on_c, 0, 43, 78
2, 98843, Note_on_c, 0, 50, 81
2, 98845, Note_on_c, 0, 90, 103
2, 98845, Note_on_c, 0, 78, 93
2, 98910, Note_on_c, 0, 55, 0
2, 98915, Note_on_c, 0, 55, 55
2, 98995, Note_on_c, 0, 50, 0
2, 99002, Note_on_c, 0, 43, 0
2, 99006, Note_on_c, 0, 50, 72
2, 99011, Note_on_c, 0, 43, 75
2, 99025, Note_on_c, 0, 83, 0
2, 99025, Note_on_c, 0, 86, 0
2, 99029, Note_on_c, 0, 91, 108
2, 99033, Note_on_c, 0, 79, 0
2, 99035, Note_on_c, 0, 83, 98
2, 99036, Note_on_c, 0, 86, 96
2, 99037, Note_on_c, 0, 79, 101
2, 99095, Note_on_c, 0, 43, 0
2, 99104, Note_on_c, 0, 43, 67
2, 99119, Note_on_c, 0, 78, 0
2, 99120, Note_on_c, 0, 90, 0
2, 99120, Note_on_c, 0, 74, 0
2, 99120, Note_on_c, 0, 50, 0
2, 99121, Note_on_c, 0, 55, 0
2, 99122, Control_c, 0, 64, 0
2, 99148, Note_on_c, 0, 43, 0
2, 99188, Note_on_c, 0, 33, 87
2, 99189, Note_on_c, 0, 45, 90
2, 99202, Control_c, 0, 64, 127
2, 99363, Note_on_c, 0, 45, 0
2, 99368, Note_on_c, 0, 52, 73
2, 99369, Note_on_c, 0, 45, 83
2, 99376, Note_on_c, 0, 90, 106
2, 99381, Note_on_c, 0, 78, 95
2, 99430, Note_on_c, 0, 57, 54
2, 99509, Note_on_c, 0, 52, 0
2, 99521, Note_on_c, 0, 52, 70
2, 99544, Note_on_c, 0, 88, 94
2, 99547, Note_on_c, 0, 76, 91
2, 99640, Note_on_c, 0, 45, 0
2, 99645, Note_on_c, 0, 45, 66
2, 99701, Note_on_c, 0, 86, 0
2, 99709, Note_on_c, 0, 33, 0
2, 99709, Note_on_c, 0, 91, 0
2, 99712, Note_on_c, 0, 86, 98
2, 99714, Note_on_c, 0, 81, 92
2, 99717, Note_on_c, 0, 45, 0
2, 99717, Note_on_c, 0, 76, 0
2, 99720, Note_on_c, 0, 33, 75
2, 99721, Note_on_c, 0, 74, 81
2, 99721, Note_on_c, 0, 45, 70
2, 99722, Note_on_c, 0, 76, 88
2, 99886, Note_on_c, 0, 45, 0
2, 99886, Note_on_c, 0, 52, 0
2, 99895, Note_on_c, 0, 45, 81
2, 99896, Note_on_c, 0, 52, 74
2, 99978, Note_on_c, 0, 57, 0
2, 99989, Note_on_c, 0, 57, 77
2, 100062, Note_on_c, 0, 45, 0
2, 100062, Note_on_c, 0, 52, 0
2, 100068, Note_on_c, 0, 52, 62
2, 100069, Note_on_c, 0, 45, 74
2, 100162, Note_on_c, 0, 45, 0
2, 100162, Note_on_c, 0, 57, 0
2, 100167, Note_on_c, 0, 57, 73
2, 100170, Note_on_c, 0, 45, 66
2, 100247, Note_on_c, 0, 45, 0
2, 100247, Note_on_c, 0, 52, 0
2, 100247, Note_on_c, 0, 74, 0
2, 100247, Note_on_c, 0, 86, 0
2, 100251, Note_on_c, 0, 45, 83
2, 100251, Note_on_c, 0, 86, 97
2, 100252, Note_on_c, 0, 74, 97
2, 100256, Note_on_c, 0, 52, 73
2, 100323, Note_on_c, 0, 57, 0
2, 100331, Note_on_c, 0, 45, 0
2, 100335, Note_on_c, 0, 57, 82
2, 100337, Note_on_c, 0, 45, 70
2, 100416, Note_on_c, 0, 45, 0
2, 100420, Note_on_c, 0, 45, 89
2, 100423, Note_on_c, 0, 57, 0
2, 100423, Note_on_c, 0, 78, 0
2, 100423, Note_on_c, 0, 81, 0
2, 100428, Note_on_c, 0, 57, 79
2, 100431, Note_on_c, 0, 81, 81
2, 100431, Note_on_c, 0, 85, 107
2, 100435, Note_on_c, 0, 73, 101
2, 100435, Note_on_c, 0, 78, 92
2, 100508, Note_on_c, 0, 90, 0
2, 100511, Note_on_c, 0, 33, 0
2, 100512, Note_on_c, 0, 74, 0
2, 100512, Note_on_c, 0, 86, 0
2, 100512, Note_on_c, 0, 57, 0
2, 100512, Note_on_c, 0, 76, 0
2, 100513, Note_on_c, 0, 52, 0
2, 100513, Note_on_c, 0, 88, 0
2, 100514, Note_on_c, 0, 45, 0
2, 100519, Control_c, 0, 64, 0
2, 100523, Note_on_c, 0, 79, 0
2, 100523, Note_on_c, 0, 83, 0
2, 100584, Control_c, 0, 64, 127
2, 100603, Note_on_c, 0, 47, 92
2, 100605, Note_on_c, 0, 35, 80
2, 100761, Note_on_c, 0, 81, 0
2, 100769, Note_on_c, 0, 35, 0
2, 100769, Note_on_c, 0, 47, 0
2, 100769, Note_on_c, 0, 81, 96
2, 100775, Note_on_c, 0, 47, 74
2, 100776, Note_on_c, 0, 71, 85
2, 100779, Note_on_c, 0, 69, 72
2, 100780, Note_on_c, 0, 35, 69
2, 100884, Note_on_c, 0, 47, 0
2, 100894, Note_on_c, 0, 47, 70
2, 100945, Note_on_c, 0, 78, 0
2, 100951, Note_on_c, 0, 78, 93
2, 100954, Note_on_c, 0, 66, 89
2, 100984, Note_on_c, 0, 47, 0
2, 100988, Note_on_c, 0, 47, 54
2, 100992, Note_on_c, 0, 35, 0
2, 100996, Note_on_c, 0, 35, 41
2, 101073, Note_on_c, 0, 59, 68
2, 101122, Note_on_c, 0, 78, 0
2, 101129, Note_on_c, 0, 78, 94
2, 101130, Note_on_c, 0, 47, 0
2, 101130, Note_on_c, 0, 66, 0
2, 101130, Note_on_c, 0, 71, 0
2, 101134, Note_on_c, 0, 74, 77
2, 101134, Note_on_c, 0, 47, 78
2, 101134, Note_on_c, 0, 66, 96
2, 101138, Note_on_c, 0, 54, 71
2, 101141, Note_on_c, 0, 71, 84
2, 101214, Note_on_c, 0, 59, 0
2, 101230, Note_on_c, 0, 47, 0
2, 101237, Note_on_c, 0, 47, 72
2, 101299, Note_on_c, 0, 47, 0
2, 101304, Note_on_c, 0, 47, 73
2, 101322, Note_on_c, 0, 54, 0
2, 101327, Note_on_c, 0, 54, 48
2, 101391, Note_on_c, 0, 59, 80
2, 101393, Note_on_c, 0, 83, 66
2, 101399, Note_on_c, 0, 83, 0
2, 101414, Note_on_c, 0, 47, 0
2, 101418, Note_on_c, 0, 47, 66
2, 101475, Note_on_c, 0, 47, 0
2, 101475, Note_on_c, 0, 54, 0
2, 101484, Note_on_c, 0, 47, 70
2, 101486, Note_on_c, 0, 54, 59
2, 101560, Note_on_c, 0, 69, 0
2, 101568, Note_on_c, 0, 59, 0
2, 101568, Note_on_c, 0, 71, 0
2, 101572, Note_on_c, 0, 59, 84
2, 101573, Note_on_c, 0, 71, 70
2, 101575, Note_on_c, 0, 47, 0
2, 101582, Note_on_c, 0, 47, 57
2, 101660, Note_on_c, 0, 47, 0
2, 101660, Note_on_c, 0, 54, 0
2, 101660, Note_on_c, 0, 85, 0
2, 101667, Note_on_c, 0, 73, 0
2, 101670, Note_on_c, 0, 54, 77
2, 101670, Note_on_c, 0, 47, 75
2, 101671, Note_on_c, 0, 85, 97
2, 101675, Note_on_c, 0, 73, 86
2, 101744, Note_on_c, 0, 59, 0
2, 101754, Note_on_c, 0, 59, 82
2, 101813, Note_on_c, 0, 47, 0
2, 101813, Note_on_c, 0, 59, 0
2, 101817, Note_on_c, 0, 47, 77
2, 101821, Note_on_c, 0, 54, 0
2, 101823, Note_on_c, 0, 59, 84
2, 101829, Note_on_c, 0, 54, 78
2, 101844, Note_on_c, 0, 81, 0
2, 101844, Note_on_c, 0, 85, 0
2, 101852, Note_on_c, 0, 73, 0
2, 101852, Note_on_c, 0, 78, 0
2, 101854, Note_on_c, 0, 85, 101
2, 101855, Note_on_c, 0, 81, 79
2, 101856, Note_on_c, 0, 73, 94
2, 101857, Note_on_c, 0, 78, 93
2, 101932, Note_on_c, 0, 74, 0
2, 101932, Note_on_c, 0, 71, 0
2, 101932, Note_on_c, 0, 59, 0
2, 101932, Control_c, 0, 64, 0
2, 101933, Note_on_c, 0, 54, 0
2, 101933, Note_on_c, 0, 66, 0
2, 101933, Note_on_c, 0, 47, 0
2, 101934, Note_on_c, 0, 35, 0
2, 102005, Control_c, 0, 64, 127
2, 102012, Note_on_c, 0, 38, 91
2, 102012, Note_on_c, 0, 50, 84
2, 102190, Note_on_c, 0, 50, 0
2, 102190, Note_on_c, 0, 78, 0
2, 102190, Note_on_c, 0, 81, 0
2, 102193, Note_on_c, 0, 86, 101
2, 102194, Note_on_c, 0, 57, 83
2, 102197, Note_on_c, 0, 81, 88
2, 102197, Note_on_c, 0, 74, 93
2, 102199, Note_on_c, 0, 50, 80
2, 102200, Note_on_c, 0, 78, 91
2, 102200, Note_on_c, 0, 62, 83
2, 102382, Note_on_c, 0, 50, 0
2, 102393, Note_on_c, 0, 50, 65
2, 102458, Note_on_c, 0, 38, 0
2, 102458, Note_on_c, 0, 62, 0
2, 102463, Note_on_c, 0, 62, 78
2, 102466, Note_on_c, 0, 38, 58
2, 102528, Note_on_c, 0, 38, 0
2, 102535, Note_on_c, 0, 50, 0
2, 102535, Note_on_c, 0, 57, 0
2, 102539, Note_on_c, 0, 38, 67
2, 102540, Note_on_c, 0, 57, 70
2, 102543, Note_on_c, 0, 50, 66
2, 102635, Note_on_c, 0, 62, 0
2, 102639, Note_on_c, 0, 62, 71
2, 102712, Note_on_c, 0, 50, 0
2, 102712, Note_on_c, 0, 57, 0
2, 102720, Note_on_c, 0, 38, 0
2, 102723, Note_on_c, 0, 57, 77
2, 102723, Note_on_c, 0, 50, 82
2, 102724, Note_on_c, 0, 38, 75
2, 102881, Note_on_c, 0, 73, 0
2, 102896, Note_on_c, 0, 62, 0
2, 102896, Note_on_c, 0, 74, 0
2, 102900, Note_on_c, 0, 62, 86
2, 102900, Note_on_c, 0, 74, 91
2, 102900, Note_on_c, 0, 69, 80
2, 103065, Note_on_c, 0, 74, 0
2, 103073, Note_on_c, 0, 62, 0
2, 103073, Note_on_c, 0, 69, 0
2, 103076, Note_on_c, 0, 74, 95
2, 103077, Note_on_c, 0, 69, 89
2, 103077, Note_on_c, 0, 62, 86
2, 103249, Note_on_c, 0, 62, 0
2, 103249, Note_on_c, 0, 69, 0
2, 103249, Note_on_c, 0, 74, 0
2, 103257, Note_on_c, 0, 74, 96
2, 103260, Note_on_c, 0, 62, 88
2, 103260, Note_on_c, 0, 69, 93
2, 104211, Control_c, 0, 64, 0
2, 104212, Note_on_c, 0, 86, 0
2, 104212, Note_on_c, 0, 62, 0
2, 104213, Note_on_c, 0, 69, 0
2, 104213, Note_on_c, 0, 57, 0
2, 104213, Note_on_c, 0, 74, 0
2, 104213, Note_on_c, 0, 81, 0
2, 104213, Note_on_c, 0, 78, 0
2, 104213, Note_on_c, 0, 38, 0
2, 104217, Note_on_c, 0, 85, 0
2, 104225, Note_on_c, 0, 50, 0
2, 104517, Note_on_c, 0, 71, 99
2, 104549, Note_on_c, 0, 71, 0
2, 104601, Note_on_c, 0, 71, 72
2, 104647, Note_on_c, 0, 71, 0
2, 104685, Note_on_c, 0, 71, 89
2, 104726, Note_on_c, 0, 71, 0
2, 104861, Note_on_c, 0, 79, 89
2, 104865, Note_on_c, 0, 43, 39
2, 104908, Note_on_c, 0, 43, 0
2, 104932, Note_on_c, 0, 79, 0
2, 104949, Note_on_c, 0, 91, 85
2, 104989, Note_on_c, 0, 91, 0
2, 104993, Control_c, 0, 64, 127
2, 105034, Note_on_c, 0, 78, 101
2, 105035, Note_on_c, 0, 59, 93
2, 105035, Note_on_c, 0, 47, 81
2, 105044, Note_on_c, 0, 50, 76
2, 105046, Note_on_c, 0, 54, 74
2, 105177, Note_on_c, 0, 47, 0
2, 105187, Note_on_c, 0, 47, 78
2, 105195, Control_c, 0, 64, 0
2, 105198, Note_on_c, 0, 50, 0
2, 105199, Note_on_c, 0, 59, 0
2, 105199, Note_on_c, 0, 54, 0
2, 105219, Note_on_c, 0, 90, 97
2, 105254, Note_on_c, 0, 47, 0
2, 105290, Note_on_c, 0, 50, 64
2, 105293, Note_on_c, 0, 47, 57
2, 105295, Note_on_c, 0, 54, 60
2, 105296, Note_on_c, 0, 59, 61
2, 105300, Note_on_c, 0, 47, 0
2, 105344, Note_on_c, 0, 50, 0
2, 105347, Note_on_c, 0, 54, 0
2, 105361, Note_on_c, 0, 59, 0
2, 105377, Note_on_c, 0, 90, 0
2, 105383, Note_on_c, 0, 47, 71
2, 105384, Note_on_c, 0, 90, 68
2, 105431, Note_on_c, 0, 78, 0
2, 105443, Note_on_c, 0, 47, 0
2, 105454, Note_on_c, 0, 90, 0
2, 105463, Note_on_c, 0, 90, 80
2, 105565, Note_on_c, 0, 59, 81
2, 105567, Note_on_c, 0, 47, 79
2, 105569, Control_c, 0, 64, 127
2, 105570, Note_on_c, 0, 50, 76
2, 105570, Note_on_c, 0, 76, 94
2, 105573, Note_on_c, 0, 54, 78
2, 105575, Note_on_c, 0, 88, 84
2, 105661, Note_on_c, 0, 88, 0
2, 105668, Control_c, 0, 64, 0
2, 105672, Note_on_c, 0, 88, 102
2, 105703, Note_on_c, 0, 76, 0
2, 105703, Note_on_c, 0, 54, 0
2, 105705, Note_on_c, 0, 50, 0
2, 105705, Note_on_c, 0, 47, 0
2, 105707, Note_on_c, 0, 90, 0
2, 105709, Note_on_c, 0, 59, 0
2, 105752, Note_on_c, 0, 76, 93
2, 105823, Note_on_c, 0, 76, 0
2, 105845, Note_on_c, 0, 88, 0
2, 105850, Note_on_c, 0, 88, 86
2, 105898, Note_on_c, 0, 47, 76
2, 105898, Note_on_c, 0, 59, 78
2, 105908, Note_on_c, 0, 54, 65
2, 105912, Note_on_c, 0, 50, 67
2, 105946, Note_on_c, 0, 88, 0
2, 105949, Note_on_c, 0, 54, 0
2, 105950, Note_on_c, 0, 59, 0
2, 105951, Note_on_c, 0, 47, 0
2, 105953, Note_on_c, 0, 86, 82
2, 105955, Note_on_c, 0, 74, 90
2, 105964, Note_on_c, 0, 50, 0
2, 106022, Note_on_c, 0, 86, 0
2, 106029, Note_on_c, 0, 86, 82
2, 106088, Note_on_c, 0, 47, 74
2, 106091, Note_on_c, 0, 86, 0
2, 106095, Note_on_c, 0, 86, 63
2, 106110, Note_on_c, 0, 74, 0
2, 106129, Note_on_c, 0, 47, 0
2, 106164, Note_on_c, 0, 54, 71
2, 106164, Note_on_c, 0, 50, 74
2, 106166, Note_on_c, 0, 59, 67
2, 106247, Note_on_c, 0, 50, 0
2, 106248, Note_on_c, 0, 54, 0
2, 106249, Note_on_c, 0, 47, 76
2, 106275, Note_on_c, 0, 59, 0
2, 106275, Note_on_c, 0, 86, 0
2, 106280, Note_on_c, 0, 85, 83
2, 106280, Note_on_c, 0, 73, 99
2, 106308, Note_on_c, 0, 47, 0
2, 106344, Note_on_c, 0, 85, 0
2, 106349, Note_on_c, 0, 85, 90
2, 106437, Control_c, 0, 64, 127
2, 106447, Note_on_c, 0, 59, 88
2, 106447, Note_on_c, 0, 47, 77
2, 106450, Note_on_c, 0, 54, 70
2, 106454, Note_on_c, 0, 50, 76
2, 106521, Note_on_c, 0, 85, 0
2, 106532, Note_on_c, 0, 85, 73
2, 106598, Note_on_c, 0, 47, 0
2, 106608, Note_on_c, 0, 47, 71
2, 106612, Control_c, 0, 64, 0
2, 106613, Note_on_c, 0, 74, 90
2, 106614, Note_on_c, 0, 86, 83
2, 106617, Note_on_c, 0, 54, 0
2, 106617, Note_on_c, 0, 59, 0
2, 106617, Note_on_c, 0, 73, 0
2, 106617, Note_on_c, 0, 85, 0
2, 106619, Note_on_c, 0, 50, 0
2, 106682, Note_on_c, 0, 47, 0
2, 106692, Note_on_c, 0, 74, 0
2, 106698, Note_on_c, 0, 86, 0
2, 106708, Note_on_c, 0, 86, 90
2, 106709, Note_on_c, 0, 54, 56
2, 106711, Note_on_c, 0, 50, 52
2, 106769, Note_on_c, 0, 50, 0
2, 106769, Note_on_c, 0, 86, 0
2, 106779, Note_on_c, 0, 47, 71
2, 106790, Note_on_c, 0, 54, 0
2, 106811, Note_on_c, 0, 71, 93
2, 106825, Note_on_c, 0, 47, 0
2, 106893, Note_on_c, 0, 83, 80
2, 106909, Note_on_c, 0, 80, 48
2, 106949, Note_on_c, 0, 80, 0
2, 106967, Note_on_c, 0, 83, 0
2, 106974, Note_on_c, 0, 83, 86
2, 106978, Note_on_c, 0, 47, 76
2, 106981, Note_on_c, 0, 54, 68
2, 106984, Note_on_c, 0, 50, 68
2, 106997, Control_c, 0, 64, 127
2, 107043, Note_on_c, 0, 83, 0
2, 107054, Note_on_c, 0, 83, 90
2, 107103, Note_on_c, 0, 54, 0
2, 107112, Control_c, 0, 64, 0
2, 107112, Note_on_c, 0, 71, 0
2, 107116, Note_on_c, 0, 47, 0
2, 107116, Note_on_c, 0, 50, 0
2, 107143, Note_on_c, 0, 83, 0
2, 107153, Note_on_c, 0, 83, 89
2, 107324, Note_on_c, 0, 47, 73
2, 107324, Note_on_c, 0, 59, 83
2, 107325, Note_on_c, 0, 71, 94
2, 107331, Note_on_c, 0, 54, 75
2, 107333, Note_on_c, 0, 50, 75
2, 107377, Note_on_c, 0, 59, 0
2, 107378, Note_on_c, 0, 54, 0
2, 107383, Note_on_c, 0, 47, 0
2, 107388, Note_on_c, 0, 50, 0
2, 107412, Note_on_c, 0, 83, 0
2, 107422, Note_on_c, 0, 83, 86
2, 107435, Note_on_c, 0, 71, 0
2, 107504, Note_on_c, 0, 83, 0
2, 107508, Note_on_c, 0, 71, 94
2, 107509, Note_on_c, 0, 47, 78
2, 107509, Note_on_c, 0, 83, 86
2, 107567, Note_on_c, 0, 71, 0
2, 107569, Note_on_c, 0, 47, 0
2, 107581, Note_on_c, 0, 83, 0
2, 107587, Note_on_c, 0, 83, 89
2, 107599, Note_on_c, 0, 50, 73
2, 107602, Note_on_c, 0, 47, 64
2, 107605, Note_on_c, 0, 54, 65
2, 107642, Note_on_c, 0, 83, 0
2, 107670, Note_on_c, 0, 50, 0
2, 107673, Note_on_c, 0, 47, 0
2, 107678, Note_on_c, 0, 47, 86
2, 107684, Note_on_c, 0, 78, 102
2, 107712, Note_on_c, 0, 54, 0
2, 107748, Note_on_c, 0, 47, 0
2, 107779, Note_on_c, 0, 90, 100
2, 107860, Note_on_c, 0, 55, 102
2, 107863, Note_on_c, 0, 47, 83
2, 107865, Note_on_c, 0, 50, 84
2, 107868, Note_on_c, 0, 43, 79
2, 107904, Note_on_c, 0, 78, 0
2, 107965, Note_on_c, 0, 90, 0
2, 107967, Note_on_c, 0, 55, 0
2, 107970, Note_on_c, 0, 43, 0
2, 107971, Note_on_c, 0, 50, 0
2, 107974, Note_on_c, 0, 47, 0
2, 107975, Note_on_c, 0, 90, 93
2, 108033, Note_on_c, 0, 43, 61
2, 108049, Note_on_c, 0, 90, 0
2, 108057, Note_on_c, 0, 90, 81
2, 108099, Note_on_c, 0, 47, 68
2, 108114, Note_on_c, 0, 50, 57
2, 108134, Note_on_c, 0, 90, 0
2, 108145, Note_on_c, 0, 90, 79
2, 108149, Note_on_c, 0, 43, 0
2, 108160, Note_on_c, 0, 47, 0
2, 108165, Note_on_c, 0, 50, 0
2, 108218, Note_on_c, 0, 90, 0
2, 108220, Note_on_c, 0, 43, 73
2, 108224, Note_on_c, 0, 90, 93
2, 108261, Note_on_c, 0, 43, 0
2, 108311, Note_on_c, 0, 90, 0
2, 108321, Note_on_c, 0, 90, 97
2, 108414, Note_on_c, 0, 50, 79
2, 108417, Note_on_c, 0, 78, 105
2, 108417, Note_on_c, 0, 47, 80
2, 108417, Note_on_c, 0, 55, 82
2, 108420, Note_on_c, 0, 43, 82
2, 108503, Note_on_c, 0, 90, 0
2, 108506, Note_on_c, 0, 90, 96
2, 108552, Note_on_c, 0, 78, 0
2, 108552, Note_on_c, 0, 55, 0
2, 108553, Note_on_c, 0, 47, 0
2, 108553, Note_on_c, 0, 50, 0
2, 108553, Note_on_c, 0, 90, 0
2, 108558, Note_on_c, 0, 43, 0
2, 108579, Note_on_c, 0, 81, 96
2, 108652, Note_on_c, 0, 81, 0
2, 108666, Note_on_c, 0, 93, 108
2, 108767, Note_on_c, 0, 78, 102
2, 108769, Note_on_c, 0, 55, 78
2, 108770, Note_on_c, 0, 50, 74
2, 108771, Note_on_c, 0, 47, 77
2, 108773, Note_on_c, 0, 43, 77
2, 108833, Note_on_c, 0, 93, 0
2, 108837, Note_on_c, 0, 55, 0
2, 108840, Note_on_c, 0, 43, 0
2, 108845, Note_on_c, 0, 47, 0
2, 108849, Note_on_c, 0, 50, 0
2, 108852, Note_on_c, 0, 90, 107
2, 108859, Note_on_c, 0, 87, 77
2, 108938, Note_on_c, 0, 43, 84
2, 109017, Note_on_c, 0, 90, 0
2, 109020, Note_on_c, 0, 47, 67
2, 109023, Note_on_c, 0, 50, 78
2, 109024, Note_on_c, 0, 90, 103
2, 109030, Note_on_c, 0, 55, 69
2, 109107, Note_on_c, 0, 55, 0
2, 109109, Note_on_c, 0, 47, 0
2, 109109, Note_on_c, 0, 50, 0
2, 109109, Note_on_c, 0, 43, 0
2, 109117, Note_on_c, 0, 87, 0
2, 109118, Note_on_c, 0, 43, 78
2, 109128, Note_on_c, 0, 76, 96
2, 109140, Note_on_c, 0, 78, 0
2, 109176, Note_on_c, 0, 43, 0
2, 109194, Note_on_c, 0, 90, 0
2, 109208, Note_on_c, 0, 88, 93
2, 109294, Note_on_c, 0, 88, 0
2, 109297, Note_on_c, 0, 88, 95
2, 109298, Note_on_c, 0, 55, 85
2, 109299, Note_on_c, 0, 43, 82
2, 109300, Note_on_c, 0, 50, 82
2, 109300, Note_on_c, 0, 47, 82
2, 109363, Note_on_c, 0, 88, 0
2, 109370, Note_on_c, 0, 76, 0
2, 109372, Note_on_c, 0, 88, 90
2, 109414, Note_on_c, 0, 43, 0
2, 109419, Note_on_c, 0, 55, 0
2, 109424, Note_on_c, 0, 47, 0
2, 109425, Note_on_c, 0, 50, 0
2, 109463, Note_on_c, 0, 88, 0
2, 109467, Note_on_c, 0, 43, 76
2, 109474, Note_on_c, 0, 86, 87
2, 109475, Note_on_c, 0, 74, 94
2, 109547, Note_on_c, 0, 86, 0
2, 109550, Note_on_c, 0, 47, 65
2, 109550, Note_on_c, 0, 50, 72
2, 109557, Note_on_c, 0, 55, 67
2, 109558, Note_on_c, 0, 86, 90
2, 109588, Note_on_c, 0, 85, 55
2, 109605, Note_on_c, 0, 47, 0
2, 109607, Note_on_c, 0, 55, 0
2, 109608, Note_on_c, 0, 74, 0
2, 109610, Note_on_c, 0, 50, 0
2, 109632, Note_on_c, 0, 43, 0
2, 109636, Note_on_c, 0, 43, 77
2, 109644, Note_on_c, 0, 74, 98
2, 109678, Note_on_c, 0, 86, 0
2, 109692, Note_on_c, 0, 43, 0
2, 109730, Note_on_c, 0, 86, 88
2, 109770, Note_on_c, 0, 85, 0
2, 109777, Note_on_c, 0, 74, 0
2, 109808, Note_on_c, 0, 86, 0
2, 109825, Note_on_c, 0, 47, 77
2, 109827, Note_on_c, 0, 55, 88
2, 109827, Note_on_c, 0, 43, 83
2, 109828, Note_on_c, 0, 71, 97
2, 109830, Note_on_c, 0, 50, 81
2, 109913, Note_on_c, 0, 71, 0
2, 109924, Note_on_c, 0, 83, 93
2, 109940, Note_on_c, 0, 47, 0
2, 109943, Note_on_c, 0, 50, 0
2, 109950, Note_on_c, 0, 43, 0
2, 109959, Note_on_c, 0, 55, 0
2, 109980, Note_on_c, 0, 83, 0
2, 109998, Note_on_c, 0, 71, 98
2, 109998, Note_on_c, 0, 43, 59
2, 110008, Note_on_c, 0, 43, 0
2, 110084, Note_on_c, 0, 83, 93
2, 110108, Note_on_c, 0, 71, 0
2, 110148, Note_on_c, 0, 83, 0
2, 110170, Note_on_c, 0, 43, 80
2, 110175, Note_on_c, 0, 55, 91
2, 110177, Note_on_c, 0, 43, 0
2, 110181, Note_on_c, 0, 69, 95
2, 110186, Note_on_c, 0, 47, 77
2, 110194, Note_on_c, 0, 50, 79
2, 110249, Note_on_c, 0, 50, 0
2, 110250, Note_on_c, 0, 55, 0
2, 110255, Note_on_c, 0, 47, 0
2, 110272, Note_on_c, 0, 79, 75
2, 110348, Note_on_c, 0, 43, 80
2, 110420, Note_on_c, 0, 47, 62
2, 110421, Note_on_c, 0, 50, 73
2, 110426, Note_on_c, 0, 55, 70
2, 110499, Note_on_c, 0, 43, 0
2, 110499, Note_on_c, 0, 69, 0
2, 110499, Note_on_c, 0, 79, 0
2, 110505, Note_on_c, 0, 43, 82
2, 110515, Note_on_c, 0, 50, 0
2, 110516, Note_on_c, 0, 47, 0
2, 110519, Note_on_c, 0, 78, 89
2, 110521, Note_on_c, 0, 55, 0
2, 110592, Note_on_c, 0, 43, 0
2, 110612, Note_on_c, 0, 90, 101
2, 110691, Note_on_c, 0, 57, 90
2, 110695, Note_on_c, 0, 45, 88
2, 110696, Note_on_c, 0, 50, 86
2, 110696, Note_on_c, 0, 52, 82
2, 110773, Note_on_c, 0, 50, 0
2, 110776, Note_on_c, 0, 52, 0
2, 110784, Note_on_c, 0, 45, 0
2, 110784, Note_on_c, 0, 57, 0
2, 110791, Note_on_c, 0, 78, 0
2, 110807, Note_on_c, 0, 90, 0
2, 110818, Note_on_c, 0, 90, 82
2, 110864, Note_on_c, 0, 45, 78
2, 110883, Note_on_c, 0, 90, 0
2, 110894, Note_on_c, 0, 90, 72
2, 110935, Note_on_c, 0, 50, 74
2, 110941, Note_on_c, 0, 52, 68
2, 110968, Note_on_c, 0, 90, 0
2, 110977, Note_on_c, 0, 90, 90
2, 111006, Note_on_c, 0, 45, 0
2, 111013, Note_on_c, 0, 50, 0
2, 111018, Note_on_c, 0, 52, 0
2, 111040, Note_on_c, 0, 45, 75
2, 111060, Note_on_c, 0, 90, 0
2, 111067, Note_on_c, 0, 90, 79
2, 111144, Note_on_c, 0, 90, 0
2, 111149, Note_on_c, 0, 90, 95
2, 111229, Note_on_c, 0, 45, 0
2, 111236, Note_on_c, 0, 45, 77
2, 111238, Note_on_c, 0, 57, 86
2, 111241, Note_on_c, 0, 52, 76
2, 111242, Note_on_c, 0, 76, 99
2, 111245, Note_on_c, 0, 50, 77
2, 111267, Note_on_c, 0, 90, 0
2, 111287, Note_on_c, 0, 57, 0
2, 111293, Note_on_c, 0, 52, 0
2, 111300, Note_on_c, 0, 50, 0
2, 111308, Note_on_c, 0, 76, 0
2, 111328, Note_on_c, 0, 88, 99
2, 111407, Note_on_c, 0, 76, 94
2, 111436, Note_on_c, 0, 45, 0
2, 111451, Note_on_c, 0, 76, 0
2, 111490, Note_on_c, 0, 88, 0
2, 111495, Note_on_c, 0, 88, 98
2, 111595, Note_on_c, 0, 45, 78
2, 111596, Note_on_c, 0, 52, 78
2, 111600, Note_on_c, 0, 86, 85
2, 111600, Note_on_c, 0, 74, 88
2, 111600, Note_on_c, 0, 50, 82
2, 111632, Note_on_c, 0, 45, 0
2, 111636, Note_on_c, 0, 52, 0
2, 111640, Note_on_c, 0, 50, 0
2, 111674, Note_on_c, 0, 86, 0
2, 111678, Note_on_c, 0, 86, 94
2, 111713, Note_on_c, 0, 88, 0
2, 111744, Note_on_c, 0, 86, 0
2, 111749, Note_on_c, 0, 45, 74
2, 111750, Note_on_c, 0, 86, 81
2, 111761, Note_on_c, 0, 74, 0
2, 111820, Note_on_c, 0, 86, 0
2, 111831, Note_on_c, 0, 50, 76
2, 111831, Note_on_c, 0, 86, 81
2, 111831, Note_on_c, 0, 52, 72
2, 111861, Note_on_c, 0, 57, 58
2, 111908, Note_on_c, 0, 50, 0
2, 111908, Note_on_c, 0, 52, 0
2, 111920, Note_on_c, 0, 45, 0
2, 111926, Note_on_c, 0, 45, 91
2, 111931, Note_on_c, 0, 73, 100
2, 111964, Note_on_c, 0, 45, 0
2, 111966, Note_on_c, 0, 57, 0
2, 112017, Note_on_c, 0, 85, 90
2, 112051, Note_on_c, 0, 86, 0
2, 112106, Note_on_c, 0, 45, 84
2, 112107, Note_on_c, 0, 52, 81
2, 112110, Note_on_c, 0, 50, 82
2, 112181, Note_on_c, 0, 85, 0
2, 112191, Note_on_c, 0, 85, 92
2, 112281, Note_on_c, 0, 45, 0
2, 112283, Note_on_c, 0, 50, 0
2, 112283, Note_on_c, 0, 52, 0
2, 112285, Note_on_c, 0, 45, 82
2, 112286, Note_on_c, 0, 74, 89
2, 112286, Note_on_c, 0, 86, 83
2, 112289, Note_on_c, 0, 73, 0
2, 112291, Note_on_c, 0, 85, 0
2, 112358, Note_on_c, 0, 74, 0
2, 112366, Note_on_c, 0, 86, 0
2, 112375, Note_on_c, 0, 86, 91
2, 112377, Note_on_c, 0, 52, 69
2, 112379, Note_on_c, 0, 50, 64
2, 112424, Note_on_c, 0, 52, 0
2, 112442, Note_on_c, 0, 45, 0
2, 112442, Note_on_c, 0, 50, 0
2, 112445, Note_on_c, 0, 86, 0
2, 112452, Note_on_c, 0, 45, 79
2, 112473, Note_on_c, 0, 71, 95
2, 112501, Note_on_c, 0, 45, 0
2, 112553, Note_on_c, 0, 83, 75
2, 112627, Note_on_c, 0, 83, 0
2, 112635, Note_on_c, 0, 83, 81
2, 112640, Note_on_c, 0, 45, 84
2, 112645, Note_on_c, 0, 52, 78
2, 112646, Note_on_c, 0, 50, 79
2, 112704, Note_on_c, 0, 83, 0
2, 112710, Note_on_c, 0, 83, 87
2, 112803, Note_on_c, 0, 83, 0
2, 112809, Note_on_c, 0, 83, 81
2, 112860, Note_on_c, 0, 52, 0
2, 112860, Note_on_c, 0, 71, 0
2, 112861, Note_on_c, 0, 45, 0
2, 112861, Note_on_c, 0, 50, 0
2, 112888, Note_on_c, 0, 83, 0
2, 112896, Note_on_c, 0, 83, 86
2, 112988, Note_on_c, 0, 83, 0
2, 112998, Note_on_c, 0, 83, 83
2, 113014, Note_on_c, 0, 52, 67
2, 113016, Note_on_c, 0, 50, 73
2, 113016, Note_on_c, 0, 45, 71
2, 113080, Note_on_c, 0, 83, 0
2, 113086, Note_on_c, 0, 83, 76
2, 113128, Note_on_c, 0, 50, 0
2, 113129, Note_on_c, 0, 52, 0
2, 113134, Note_on_c, 0, 45, 0
2, 113157, Note_on_c, 0, 83, 0
2, 113168, Note_on_c, 0, 83, 102
2, 113184, Note_on_c, 0, 45, 85
2, 113230, Note_on_c, 0, 83, 0
2, 113267, Note_on_c, 0, 52, 63
2, 113268, Note_on_c, 0, 50, 68
2, 113341, Note_on_c, 0, 45, 0
2, 113347, Note_on_c, 0, 69, 91
2, 113347, Note_on_c, 0, 45, 73
2, 113379, Note_on_c, 0, 52, 0
2, 113425, Note_on_c, 0, 50, 0
2, 113437, Note_on_c, 0, 81, 73
2, 113437, Note_on_c, 0, 69, 0
2, 113447, Note_on_c, 0, 45, 0
2, 113473, Note_on_c, 0, 81, 0
2, 113519, Note_on_c, 0, 47, 81
2, 113519, Note_on_c, 0, 50, 92
2, 113524, Note_on_c, 0, 40, 83
2, 113526, Note_on_c, 0, 52, 84
2, 113530, Note_on_c, 0, 43, 82
2, 113533, Note_on_c, 0, 52, 0
2, 113535, Note_on_c, 0, 71, 100
2, 113541, Note_on_c, 0, 43, 0
2, 113566, Note_on_c, 0, 50, 0
2, 113598, Note_on_c, 0, 47, 0
2, 113621, Note_on_c, 0, 83, 78
2, 113679, Note_on_c, 0, 40, 0
2, 113687, Note_on_c, 0, 40, 69
2, 113763, Note_on_c, 0, 83, 0
2, 113766, Note_on_c, 0, 43, 59
2, 113766, Note_on_c, 0, 47, 73
2, 113768, Note_on_c, 0, 83, 93
2, 113771, Note_on_c, 0, 43, 0
2, 113802, Note_on_c, 0, 71, 0
2, 113836, Note_on_c, 0, 83, 0
2, 113840, Note_on_c, 0, 40, 0
2, 113845, Note_on_c, 0, 47, 0
2, 113875, Note_on_c, 0, 40, 75
2, 113882, Note_on_c, 0, 78, 104
2, 113963, Note_on_c, 0, 90, 100
2, 113986, Note_on_c, 0, 40, 0
2, 114009, Control_c, 0, 64, 127
2, 114052, Note_on_c, 0, 40, 75
2, 114052, Note_on_c, 0, 52, 72
2, 114053, Note_on_c, 0, 50, 83
2, 114057, Note_on_c, 0, 47, 75
2, 114057, Note_on_c, 0, 43, 83
2, 114132, Note_on_c, 0, 90, 0
2, 114143, Note_on_c, 0, 90, 89
2, 114244, Control_c, 0, 64, 0
2, 114247, Note_on_c, 0, 78, 0
2, 114252, Note_on_c, 0, 78, 103
2, 114256, Note_on_c, 0, 43, 0
2, 114258, Note_on_c, 0, 40, 0
2, 114259, Note_on_c, 0, 47, 0
2, 114260, Note_on_c, 0, 50, 0
2, 114270, Note_on_c, 0, 52, 0
2, 114270, Note_on_c, 0, 90, 0
2, 114335, Note_on_c, 0, 90, 103
2, 114355, Note_on_c, 0, 78, 0
2, 114420, Note_on_c, 0, 50, 85
2, 114422, Note_on_c, 0, 47, 82
2, 114423, Note_on_c, 0, 55, 80
2, 114427, Note_on_c, 0, 78, 105
2, 114492, Note_on_c, 0, 50, 0
2, 114495, Note_on_c, 0, 47, 0
2, 114501, Note_on_c, 0, 55, 0
2, 114501, Note_on_c, 0, 90, 0
2, 114501, Note_on_c, 0, 78, 0
2, 114506, Note_on_c, 0, 90, 97
2, 114591, Note_on_c, 0, 40, 77
2, 114593, Note_on_c, 0, 81, 97
2, 114684, Note_on_c, 0, 47, 75
2, 114687, Note_on_c, 0, 93, 107
2, 114697, Note_on_c, 0, 50, 70
2, 114716, Note_on_c, 0, 40, 0
2, 114762, Note_on_c, 0, 90, 0
2, 114766, Note_on_c, 0, 47, 0
2, 114766, Note_on_c, 0, 52, 68
2, 114773, Note_on_c, 0, 83, 105
2, 114773, Note_on_c, 0, 50, 0
2, 114785, Note_on_c, 0, 81, 0
2, 114823, Note_on_c, 0, 52, 0
2, 114850, Note_on_c, 0, 95, 99
2, 114915, Control_c, 0, 64, 127
2, 114923, Note_on_c, 0, 95, 0
2, 114928, Note_on_c, 0, 95, 106
2, 114943, Note_on_c, 0, 52, 85
2, 114948, Note_on_c, 0, 49, 83
2, 114950, Note_on_c, 0, 45, 76
2, 115008, Note_on_c, 0, 95, 0
2, 115011, Note_on_c, 0, 95, 95
2, 115075, Note_on_c, 0, 95, 0
2, 115077, Note_on_c, 0, 93, 0
2, 115080, Note_on_c, 0, 52, 0
2, 115080, Note_on_c, 0, 83, 0
2, 115081, Note_on_c, 0, 49, 0
2, 115082, Note_on_c, 0, 45, 0
2, 115084, Control_c, 0, 64, 0
2, 115119, Note_on_c, 0, 42, 86
2, 115124, Note_on_c, 0, 78, 102
2, 115197, Note_on_c, 0, 42, 0
2, 115214, Note_on_c, 0, 90, 100
2, 115219, Note_on_c, 0, 49, 80
2, 115220, Note_on_c, 0, 45, 57
2, 115226, Note_on_c, 0, 52, 58
2, 115269, Note_on_c, 0, 52, 0
2, 115273, Note_on_c, 0, 45, 0
2, 115289, Note_on_c, 0, 49, 0
2, 115292, Note_on_c, 0, 78, 0
2, 115303, Note_on_c, 0, 42, 79
2, 115338, Control_c, 0, 64, 127
2, 115376, Note_on_c, 0, 90, 0
2, 115383, Note_on_c, 0, 90, 89
2, 115412, Control_c, 0, 64, 0
2, 115478, Note_on_c, 0, 52, 84
2, 115479, Note_on_c, 0, 49, 88
2, 115480, Note_on_c, 0, 45, 80
2, 115480, Note_on_c, 0, 76, 96
2, 115566, Note_on_c, 0, 88, 93
2, 115568, Control_c, 0, 64, 127
2, 115659, Note_on_c, 0, 49, 0
2, 115660, Note_on_c, 0, 42, 0
2, 115664, Note_on_c, 0, 45, 0
2, 115665, Note_on_c, 0, 52, 0
2, 115668, Note_on_c, 0, 76, 0
2, 115668, Note_on_c, 0, 88, 0
2, 115668, Note_on_c, 0, 90, 0
2, 115670, Control_c, 0, 64, 0
2, 115678, Note_on_c, 0, 88, 70
2, 115745, Note_on_c, 0, 88, 0
2, 115754, Note_on_c, 0, 88, 77
2, 115822, Note_on_c, 0, 88, 0
2, 115826, Note_on_c, 0, 52, 81
2, 115829, Note_on_c, 0, 88, 98
2, 115829, Note_on_c, 0, 45, 75
2, 115833, Note_on_c, 0, 49, 76
2, 115921, Note_on_c, 0, 88, 0
2, 115921, Control_c, 0, 64, 127
2, 115932, Note_on_c, 0, 88, 75
2, 115968, Control_c, 0, 64, 0
2, 115969, Note_on_c, 0, 49, 0
2, 115969, Note_on_c, 0, 45, 0
2, 115970, Note_on_c, 0, 52, 0
2, 116001, Note_on_c, 0, 42, 80
2, 116085, Note_on_c, 0, 52, 64
2, 116086, Note_on_c, 0, 45, 59
2, 116087, Note_on_c, 0, 49, 66
2, 116106, Control_c, 0, 64, 127
2, 116183, Note_on_c, 0, 42, 0
2, 116187, Note_on_c, 0, 81, 87
2, 116187, Note_on_c, 0, 42, 68
2, 116275, Note_on_c, 0, 52, 0
2, 116280, Note_on_c, 0, 42, 0
2, 116281, Note_on_c, 0, 81, 0
2, 116281, Note_on_c, 0, 45, 0
2, 116282, Note_on_c, 0, 49, 0
2, 116284, Control_c, 0, 64, 0
2, 116298, Note_on_c, 0, 88, 0
2, 116351, Note_on_c, 0, 43, 72
2, 116355, Note_on_c, 0, 81, 86
2, 116365, Note_on_c, 0, 69, 71
2, 116421, Control_c, 0, 64, 127
2, 116444, Note_on_c, 0, 69, 0
2, 116456, Note_on_c, 0, 50, 61
2, 116528, Note_on_c, 0, 43, 0
2, 116533, Note_on_c, 0, 55, 65
2, 116534, Note_on_c, 0, 83, 96
2, 116535, Note_on_c, 0, 43, 63
2, 116539, Note_on_c, 0, 71, 83
2, 116633, Note_on_c, 0, 57, 71
2, 116744, Note_on_c, 0, 59, 74
2, 116808, Note_on_c, 0, 62, 66
2, 116884, Note_on_c, 0, 90, 102
2, 116895, Note_on_c, 0, 86, 79
2, 116896, Note_on_c, 0, 66, 76
2, 116897, Note_on_c, 0, 83, 0
2, 116900, Note_on_c, 0, 78, 86
2, 116904, Note_on_c, 0, 83, 71
2, 116974, Note_on_c, 0, 62, 0
2, 116984, Note_on_c, 0, 62, 61
2, 117027, Note_on_c, 0, 59, 0
2, 117035, Note_on_c, 0, 59, 74
2, 117096, Note_on_c, 0, 57, 0
2, 117102, Note_on_c, 0, 57, 67
2, 117189, Note_on_c, 0, 55, 0
2, 117196, Note_on_c, 0, 55, 66
2, 117296, Note_on_c, 0, 50, 0
2, 117301, Note_on_c, 0, 50, 60
2, 117365, Note_on_c, 0, 43, 0
2, 117377, Note_on_c, 0, 43, 78
2, 117391, Note_on_c, 0, 78, 0
2, 117391, Note_on_c, 0, 90, 0
2, 117391, Note_on_c, 0, 50, 0
2, 117391, Note_on_c, 0, 59, 0
2, 117391, Note_on_c, 0, 71, 0
2, 117392, Note_on_c, 0, 62, 0
2, 117392, Note_on_c, 0, 66, 0
2, 117392, Note_on_c, 0, 81, 0
2, 117392, Note_on_c, 0, 83, 0
2, 117392, Control_c, 0, 64, 0
2, 117392, Note_on_c, 0, 57, 0
2, 117392, Note_on_c, 0, 86, 0
2, 117393, Note_on_c, 0, 55, 0
2, 117434, Control_c, 0, 64, 127
2, 117470, Note_on_c, 0, 50, 69
2, 117566, Note_on_c, 0, 81, 83
2, 117568, Note_on_c, 0, 69, 79
2, 117571, Note_on_c, 0, 55, 66
2, 117702, Control_c, 0, 64, 0
2, 117702, Note_on_c, 0, 69, 0
2, 117702, Note_on_c, 0, 50, 0
2, 117703, Note_on_c, 0, 55, 0
2, 117719, Note_on_c, 0, 43, 0
2, 117730, Note_on_c, 0, 45, 70
2, 117734, Note_on_c, 0, 81, 0
2, 117745, Note_on_c, 0, 81, 86
2, 117752, Note_on_c, 0, 69, 77
2, 117780, Control_c, 0, 64, 127
2, 117818, Note_on_c, 0, 69, 0
2, 117842, Note_on_c, 0, 52, 58
2, 117928, Note_on_c, 0, 57, 65
2, 117930, Note_on_c, 0, 83, 86
2, 117938, Note_on_c, 0, 71, 68
2, 118032, Note_on_c, 0, 59, 69
2, 118129, Note_on_c, 0, 61, 67
2, 118235, Note_on_c, 0, 64, 56
2, 118283, Note_on_c, 0, 90, 104
2, 118291, Note_on_c, 0, 69, 72
2, 118291, Note_on_c, 0, 78, 90
2, 118291, Note_on_c, 0, 85, 92
2, 118341, Note_on_c, 0, 64, 0
2, 118349, Note_on_c, 0, 64, 63
2, 118410, Note_on_c, 0, 61, 0
2, 118417, Note_on_c, 0, 61, 68
2, 118494, Note_on_c, 0, 59, 0
2, 118500, Note_on_c, 0, 59, 72
2, 118594, Note_on_c, 0, 57, 0
2, 118598, Note_on_c, 0, 57, 65
2, 118686, Note_on_c, 0, 52, 0
2, 118697, Note_on_c, 0, 52, 61
2, 118786, Note_on_c, 0, 45, 0
2, 118791, Note_on_c, 0, 45, 73
2, 118894, Note_on_c, 0, 52, 0
2, 118898, Note_on_c, 0, 52, 62
2, 118970, Note_on_c, 0, 81, 0
2, 118978, Note_on_c, 0, 57, 0
2, 118978, Note_on_c, 0, 69, 0
2, 118981, Note_on_c, 0, 81, 81
2, 118982, Note_on_c, 0, 69, 78
2, 118982, Note_on_c, 0, 57, 72
2, 119070, Note_on_c, 0, 52, 0
2, 119081, Note_on_c, 0, 52, 45
2, 119133, Note_on_c, 0, 52, 0
2, 119134, Note_on_c, 0, 83, 0
2, 119134, Note_on_c, 0, 85, 0
2, 119135, Note_on_c, 0, 61, 0
2, 119135, Note_on_c, 0, 45, 0
2, 119135, Note_on_c, 0, 59, 0
2, 119135, Note_on_c, 0, 78, 0
2, 119135, Note_on_c, 0, 71, 0
2, 119135, Note_on_c, 0, 90, 0
2, 119136, Control_c, 0, 64, 0
2, 119147, Note_on_c, 0, 57, 0
2, 119147, Note_on_c, 0, 64, 0
2, 119151, Note_on_c, 0, 47, 73
2, 119155, Note_on_c, 0, 69, 0
2, 119155, Note_on_c, 0, 81, 0
2, 119159, Note_on_c, 0, 81, 87
2, 119159, Note_on_c, 0, 69, 80
2, 119208, Control_c, 0, 64, 127
2, 119257, Note_on_c, 0, 54, 69
2, 119332, Note_on_c, 0, 83, 88
2, 119337, Note_on_c, 0, 71, 70
2, 119337, Note_on_c, 0, 57, 64
2, 119420, Note_on_c, 0, 59, 70
2, 119525, Note_on_c, 0, 62, 59
2, 119574, Note_on_c, 0, 66, 77
2, 119677, Note_on_c, 0, 69, 0
2, 119685, Note_on_c, 0, 90, 100
2, 119688, Note_on_c, 0, 69, 76
2, 119692, Note_on_c, 0, 83, 0
2, 119698, Note_on_c, 0, 78, 82
2, 119698, Note_on_c, 0, 86, 79
2, 119698, Note_on_c, 0, 83, 81
2, 119738, Note_on_c, 0, 66, 0
2, 119750, Note_on_c, 0, 66, 78
2, 119815, Note_on_c, 0, 62, 0
2, 119821, Note_on_c, 0, 62, 64
2, 119877, Note_on_c, 0, 59, 0
2, 119887, Note_on_c, 0, 59, 78
2, 119992, Note_on_c, 0, 57, 0
2, 120003, Note_on_c, 0, 57, 63
2, 120084, Note_on_c, 0, 54, 0
2, 120088, Note_on_c, 0, 54, 64
2, 120192, Note_on_c, 0, 47, 0
2, 120196, Note_on_c, 0, 47, 74
2, 120201, Note_on_c, 0, 88, 91
2, 120204, Note_on_c, 0, 76, 81
2, 120276, Note_on_c, 0, 54, 0
2, 120287, Note_on_c, 0, 54, 71
2, 120368, Note_on_c, 0, 78, 0
2, 120368, Note_on_c, 0, 86, 0
2, 120373, Note_on_c, 0, 74, 83
2, 120373, Note_on_c, 0, 86, 83
2, 120378, Note_on_c, 0, 78, 63
2, 120384, Note_on_c, 0, 57, 0
2, 120394, Note_on_c, 0, 57, 65
2, 120453, Note_on_c, 0, 54, 0
2, 120458, Note_on_c, 0, 54, 64
2, 120510, Note_on_c, 0, 71, 0
2, 120511, Control_c, 0, 64, 0
2, 120511, Note_on_c, 0, 54, 0
2, 120511, Note_on_c, 0, 59, 0
2, 120511, Note_on_c, 0, 69, 0
2, 120511, Note_on_c, 0, 83, 0
2, 120511, Note_on_c, 0, 57, 0
2, 120511, Note_on_c, 0, 66, 0
2, 120511, Note_on_c, 0, 62, 0
2, 120511, Note_on_c, 0, 86, 0
2, 120511, Note_on_c, 0, 81, 0
2, 120511, Note_on_c, 0, 74, 0
2, 120511, Note_on_c, 0, 78, 0
2, 120511, Note_on_c, 0, 90, 0
2, 120512, Note_on_c, 0, 88, 0
2, 120512, Note_on_c, 0, 76, 0
2, 120552, Note_on_c, 0, 47, 0
2, 120558, Note_on_c, 0, 47, 68
2, 120567, Note_on_c, 0, 88, 100
2, 120570, Note_on_c, 0, 76, 84
2, 120573, Note_on_c, 0, 78, 82
2, 120591, Control_c, 0, 64, 127
2, 120650, Note_on_c, 0, 54, 61
2, 120724, Note_on_c, 0, 57, 67
2, 120822, Note_on_c, 0, 81, 84
2, 120826, Note_on_c, 0, 69, 68
2, 120826, Note_on_c, 0, 59, 74
2, 120852, Note_on_c, 0, 88, 0
2, 120932, Note_on_c, 0, 62, 65
2, 121017, Note_on_c, 0, 66, 64
2, 121102, Note_on_c, 0, 83, 97
2, 121105, Note_on_c, 0, 69, 0
2, 121105, Note_on_c, 0, 78, 0
2, 121109, Note_on_c, 0, 74, 78
2, 121110, Note_on_c, 0, 71, 84
2, 121110, Note_on_c, 0, 78, 85
2, 121112, Note_on_c, 0, 69, 72
2, 121152, Note_on_c, 0, 66, 0
2, 121163, Note_on_c, 0, 66, 64
2, 121251, Note_on_c, 0, 62, 0
2, 121257, Note_on_c, 0, 62, 65
2, 121320, Note_on_c, 0, 59, 0
2, 121330, Note_on_c, 0, 59, 76
2, 121420, Note_on_c, 0, 57, 0
2, 121425, Note_on_c, 0, 57, 73
2, 121520, Note_on_c, 0, 54, 0
2, 121526, Note_on_c, 0, 54, 65
2, 121612, Note_on_c, 0, 47, 0
2, 121622, Note_on_c, 0, 47, 74
2, 121697, Note_on_c, 0, 54, 0
2, 121701, Note_on_c, 0, 54, 73
2, 121781, Note_on_c, 0, 57, 0
2, 121781, Note_on_c, 0, 69, 0
2, 121791, Note_on_c, 0, 57, 90
2, 121792, Note_on_c, 0, 69, 81
2, 121944, Note_on_c, 0, 83, 0
2, 121944, Note_on_c, 0, 71, 0
2, 121944, Note_on_c, 0, 54, 0
2, 121945, Note_on_c, 0, 62, 0
2, 121945, Note_on_c, 0, 74, 0
2, 121945, Note_on_c, 0, 59, 0
2, 121945, Note_on_c, 0, 81, 0
2, 121945, Note_on_c, 0, 47, 0
2, 121945, Note_on_c, 0, 78, 0
2, 121946, Note_on_c, 0, 76, 0
2, 121946, Control_c, 0, 64, 0
2, 121966, Note_on_c, 0, 57, 0
2, 121966, Note_on_c, 0, 66, 0
2, 121966, Note_on_c, 0, 69, 0
2, 121970, Note_on_c, 0, 57, 84
2, 121971, Note_on_c, 0, 43, 84
2, 121972, Note_on_c, 0, 50, 88
2, 121974, Note_on_c, 0, 69, 78
2, 122012, Control_c, 0, 64, 127
2, 122149, Note_on_c, 0, 59, 89
2, 122150, Note_on_c, 0, 69, 0
2, 122159, Note_on_c, 0, 69, 77
2, 122244, Note_on_c, 0, 71, 81
2, 122298, Note_on_c, 0, 78, 75
2, 122391, Note_on_c, 0, 81, 72
2, 122461, Note_on_c, 0, 83, 81
2, 122509, Note_on_c, 0, 66, 94
2, 122511, Note_on_c, 0, 59, 0
2, 122520, Note_on_c, 0, 62, 75
2, 122520, Note_on_c, 0, 59, 79
2, 122530, Note_on_c, 0, 90, 85
2, 122618, Note_on_c, 0, 83, 0
2, 122626, Note_on_c, 0, 83, 79
2, 122688, Note_on_c, 0, 81, 0
2, 122692, Note_on_c, 0, 81, 62
2, 122780, Note_on_c, 0, 78, 0
2, 122785, Note_on_c, 0, 78, 73
2, 122864, Note_on_c, 0, 71, 0
2, 122869, Note_on_c, 0, 71, 82
2, 122956, Note_on_c, 0, 69, 0
2, 122965, Note_on_c, 0, 69, 71
2, 123055, Note_on_c, 0, 86, 86
2, 123225, Note_on_c, 0, 57, 0
2, 123225, Note_on_c, 0, 69, 0
2, 123229, Note_on_c, 0, 57, 84
2, 123230, Note_on_c, 0, 69, 78
2, 123380, Note_on_c, 0, 86, 0
2, 123381, Note_on_c, 0, 81, 0
2, 123381, Note_on_c, 0, 83, 0
2, 123381, Note_on_c, 0, 59, 0
2, 123381, Note_on_c, 0, 78, 0
2, 123382, Note_on_c, 0, 66, 0
2, 123382, Note_on_c, 0, 62, 0
2, 123382, Note_on_c, 0, 71, 0
2, 123383, Control_c, 0, 64, 0
2, 123386, Note_on_c, 0, 50, 0
2, 123386, Note_on_c, 0, 90, 0
2, 123394, Note_on_c, 0, 43, 0
2, 123394, Note_on_c, 0, 57, 0
2, 123394, Note_on_c, 0, 69, 0
2, 123400, Note_on_c, 0, 69, 83
2, 123402, Note_on_c, 0, 57, 90
2, 123404, Note_on_c, 0, 45, 85
2, 123406, Note_on_c, 0, 52, 79
2, 123440, Control_c, 0, 64, 127
2, 123548, Note_on_c, 0, 69, 0
2, 123557, Note_on_c, 0, 69, 78
2, 123591, Note_on_c, 0, 59, 88
2, 123639, Note_on_c, 0, 71, 81
2, 123687, Note_on_c, 0, 78, 77
2, 123781, Note_on_c, 0, 81, 78
2, 123857, Note_on_c, 0, 83, 73
2, 123947, Note_on_c, 0, 69, 0
2, 123951, Note_on_c, 0, 64, 98
2, 123954, Note_on_c, 0, 62, 90
2, 123955, Note_on_c, 0, 57, 0
2, 123957, Note_on_c, 0, 69, 76
2, 123961, Note_on_c, 0, 57, 83
2, 124047, Note_on_c, 0, 83, 0
2, 124057, Note_on_c, 0, 83, 75
2, 124101, Note_on_c, 0, 81, 0
2, 124112, Note_on_c, 0, 81, 54
2, 124193, Note_on_c, 0, 78, 0
2, 124204, Note_on_c, 0, 78, 67
2, 124285, Note_on_c, 0, 71, 0
2, 124294, Note_on_c, 0, 71, 68
2, 124385, Note_on_c, 0, 69, 0
2, 124389, Note_on_c, 0, 69, 61
2, 124498, Note_on_c, 0, 88, 89
2, 124654, Note_on_c, 0, 57, 0
2, 124654, Note_on_c, 0, 69, 0
2, 124659, Note_on_c, 0, 57, 83
2, 124659, Note_on_c, 0, 69, 71
2, 124806, Note_on_c, 0, 52, 0
2, 124807, Note_on_c, 0, 81, 0
2, 124807, Note_on_c, 0, 59, 0
2, 124807, Note_on_c, 0, 71, 0
2, 124807, Control_c, 0, 64, 0
2, 124807, Note_on_c, 0, 62, 0
2, 124808, Note_on_c, 0, 83, 0
2, 124808, Note_on_c, 0, 78, 0
2, 124808, Note_on_c, 0, 69, 0
2, 124808, Note_on_c, 0, 64, 0
2, 124810, Note_on_c, 0, 88, 0
2, 124815, Note_on_c, 0, 45, 0
2, 124838, Note_on_c, 0, 57, 0
2, 124848, Note_on_c, 0, 52, 77
2, 124849, Note_on_c, 0, 57, 82
2, 124849, Note_on_c, 0, 69, 79
2, 124850, Note_on_c, 0, 40, 78
2, 124850, Note_on_c, 0, 47, 72
2, 124876, Control_c, 0, 64, 127
2, 124938, Note_on_c, 0, 62, 75
2, 125011, Note_on_c, 0, 64, 79
2, 125027, Note_on_c, 0, 59, 86
2, 125099, Note_on_c, 0, 69, 0
2, 125103, Note_on_c, 0, 69, 74
2, 125192, Note_on_c, 0, 74, 72
2, 125287, Note_on_c, 0, 76, 69
2, 125368, Note_on_c, 0, 52, 0
2, 125376, Note_on_c, 0, 62, 0
2, 125377, Note_on_c, 0, 81, 79
2, 125378, Note_on_c, 0, 52, 84
2, 125379, Note_on_c, 0, 80, 79
2, 125380, Note_on_c, 0, 62, 91
2, 125391, Note_on_c, 0, 80, 0
2, 125475, Note_on_c, 0, 69, 0
2, 125486, Note_on_c, 0, 69, 66
2, 125544, Note_on_c, 0, 74, 0
2, 125553, Note_on_c, 0, 74, 73
2, 125637, Note_on_c, 0, 76, 0
2, 125643, Note_on_c, 0, 76, 78
2, 125721, Note_on_c, 0, 81, 0
2, 125728, Note_on_c, 0, 61, 84
2, 125733, Note_on_c, 0, 81, 78
2, 125829, Note_on_c, 0, 86, 78
2, 125898, Note_on_c, 0, 62, 0
2, 125905, Note_on_c, 0, 61, 0
2, 125905, Note_on_c, 0, 69, 0
2, 125909, Note_on_c, 0, 62, 78
2, 125910, Note_on_c, 0, 61, 75
2, 125910, Note_on_c, 0, 88, 73
2, 125913, Note_on_c, 0, 69, 66
2, 126002, Note_on_c, 0, 93, 90
2, 126087, Note_on_c, 0, 98, 90
2, 126090, Note_on_c, 0, 61, 0
2, 126090, Note_on_c, 0, 69, 0
2, 126096, Note_on_c, 0, 61, 80
2, 126099, Note_on_c, 0, 69, 62
2, 126188, Note_on_c, 0, 100, 75
2, 126290, Note_on_c, 0, 103, 69
2, 126743, Note_on_c, 0, 103, 0
2, 127073, Note_on_c, 0, 74, 0
2, 127079, Note_on_c, 0, 74, 77
2, 127264, Note_on_c, 0, 73, 74
2, 127268, Note_on_c, 0, 100, 0
2, 127269, Note_on_c, 0, 98, 0
2, 127269, Note_on_c, 0, 61, 0
2, 127269, Note_on_c, 0, 57, 0
2, 127269, Control_c, 0, 64, 0
2, 127269, Note_on_c, 0, 93, 0
2, 127269, Note_on_c, 0, 88, 0
2, 127270, Note_on_c, 0, 76, 0
2, 127270, Note_on_c, 0, 69, 0
2, 127270, Note_on_c, 0, 52, 0
2, 127270, Note_on_c, 0, 40, 0
2, 127272, Note_on_c, 0, 47, 0
2, 127274, Note_on_c, 0, 86, 0
2, 127274, Note_on_c, 0, 74, 0
2, 127280, Note_on_c, 0, 59, 0
2, 127280, Note_on_c, 0, 62, 0
2, 127280, Note_on_c, 0, 64, 0
2, 127280, Note_on_c, 0, 81, 0
2, 127441, Note_on_c, 0, 74, 78
2, 127486, Note_on_c, 0, 73, 0
2, 127622, Note_on_c, 0, 76, 76
2, 127644, Note_on_c, 0, 74, 0
2, 127802, Note_on_c, 0, 47, 50
2, 127806, Note_on_c, 0, 78, 81
2, 127850, Note_on_c, 0, 74, 42
2, 127852, Note_on_c, 0, 71, 46
2, 127872, Control_c, 0, 64, 127
2, 128005, Note_on_c, 0, 54, 36
2, 128156, Note_on_c, 0, 71, 0
2, 128162, Note_on_c, 0, 59, 64
2, 128162, Note_on_c, 0, 71, 70
2, 128340, Note_on_c, 0, 74, 0
2, 128351, Note_on_c, 0, 74, 76
2, 128367, Note_on_c, 0, 62, 56
2, 128709, Note_on_c, 0, 74, 0
2, 128713, Note_on_c, 0, 74, 68
2, 128732, Note_on_c, 0, 54, 0
2, 128741, Note_on_c, 0, 54, 41
2, 128901, Note_on_c, 0, 59, 0
2, 128911, Note_on_c, 0, 59, 65
2, 129085, Note_on_c, 0, 78, 0
2, 129095, Note_on_c, 0, 78, 88
2, 129108, Note_on_c, 0, 74, 0
2, 129114, Note_on_c, 0, 74, 71
2, 129116, Note_on_c, 0, 71, 0
2, 129125, Note_on_c, 0, 71, 60
2, 129233, Control_c, 0, 64, 0
2, 129234, Note_on_c, 0, 54, 0
2, 129234, Note_on_c, 0, 62, 0
2, 129234, Note_on_c, 0, 47, 0
2, 129234, Note_on_c, 0, 59, 0
2, 129235, Note_on_c, 0, 76, 0
2, 129273, Note_on_c, 0, 43, 61
2, 129346, Control_c, 0, 64, 127
2, 129438, Note_on_c, 0, 71, 0
2, 129444, Note_on_c, 0, 71, 80
2, 129473, Note_on_c, 0, 55, 53
2, 129626, Note_on_c, 0, 59, 68
2, 129792, Note_on_c, 0, 74, 0
2, 129800, Note_on_c, 0, 74, 83
2, 129810, Note_on_c, 0, 62, 63
2, 130168, Note_on_c, 0, 55, 0
2, 130168, Note_on_c, 0, 74, 0
2, 130172, Note_on_c, 0, 74, 75
2, 130174, Note_on_c, 0, 55, 51
2, 130337, Note_on_c, 0, 59, 0
2, 130348, Note_on_c, 0, 59, 74
2, 130524, Note_on_c, 0, 81, 91
2, 130529, Note_on_c, 0, 74, 0
2, 130536, Note_on_c, 0, 78, 0
2, 130539, Note_on_c, 0, 74, 74
2, 130548, Note_on_c, 0, 78, 78
2, 130670, Note_on_c, 0, 43, 0
2, 130671, Control_c, 0, 64, 0
2, 130671, Note_on_c, 0, 55, 0
2, 130672, Note_on_c, 0, 62, 0
2, 130672, Note_on_c, 0, 71, 0
2, 130682, Note_on_c, 0, 59, 0
2, 130711, Note_on_c, 0, 38, 65
2, 130775, Control_c, 0, 64, 127
2, 130880, Note_on_c, 0, 79, 82
2, 130882, Note_on_c, 0, 54, 54
2, 131043, Note_on_c, 0, 79, 0
2, 131051, Note_on_c, 0, 79, 86
2, 131055, Note_on_c, 0, 57, 53
2, 131062, Note_on_c, 0, 69, 57
2, 131228, Note_on_c, 0, 74, 0
2, 131228, Note_on_c, 0, 79, 0
2, 131237, Note_on_c, 0, 79, 92
2, 131239, Note_on_c, 0, 74, 62
2, 131253, Note_on_c, 0, 62, 61
2, 131581, Note_on_c, 0, 78, 0
2, 131585, Note_on_c, 0, 78, 83
2, 131604, Note_on_c, 0, 54, 0
2, 131604, Note_on_c, 0, 57, 0
2, 131614, Note_on_c, 0, 54, 49
2, 131615, Note_on_c, 0, 57, 39
2, 131758, Note_on_c, 0, 57, 0
2, 131758, Note_on_c, 0, 69, 0
2, 131766, Note_on_c, 0, 57, 71
2, 131766, Note_on_c, 0, 69, 60
2, 131942, Note_on_c, 0, 78, 0
2, 131946, Note_on_c, 0, 78, 95
2, 131957, Note_on_c, 0, 74, 0
2, 131964, Note_on_c, 0, 74, 72
2, 131970, Note_on_c, 0, 71, 60
2, 132101, Note_on_c, 0, 57, 0
2, 132101, Note_on_c, 0, 62, 0
2, 132102, Note_on_c, 0, 79, 0
2, 132103, Note_on_c, 0, 54, 0
2, 132104, Note_on_c, 0, 69, 0
2, 132105, Control_c, 0, 64, 0
2, 132119, Note_on_c, 0, 38, 0
2, 132125, Note_on_c, 0, 40, 64
2, 132142, Note_on_c, 0, 81, 0
2, 132203, Control_c, 0, 64, 127
2, 132305, Note_on_c, 0, 76, 82
2, 132308, Note_on_c, 0, 55, 55
2, 132334, Note_on_c, 0, 40, 0
2, 132476, Note_on_c, 0, 59, 68
2, 132648, Note_on_c, 0, 74, 0
2, 132659, Note_on_c, 0, 74, 85
2, 132668, Note_on_c, 0, 64, 64
2, 133002, Note_on_c, 0, 74, 0
2, 133013, Note_on_c, 0, 74, 80
2, 133025, Note_on_c, 0, 55, 0
2, 133032, Note_on_c, 0, 55, 53
2, 133186, Note_on_c, 0, 59, 0
2, 133189, Note_on_c, 0, 73, 81
2, 133193, Note_on_c, 0, 59, 66
2, 133370, Note_on_c, 0, 76, 0
2, 133372, Note_on_c, 0, 43, 43
2, 133376, Note_on_c, 0, 76, 89
2, 133378, Note_on_c, 0, 43, 0
2, 133547, Note_on_c, 0, 78, 0
2, 133558, Note_on_c, 0, 78, 92
2, 133559, Note_on_c, 0, 59, 0
2, 133560, Note_on_c, 0, 55, 0
2, 133561, Note_on_c, 0, 47, 59
2, 133561, Note_on_c, 0, 64, 0
2, 133563, Note_on_c, 0, 76, 0
2, 133564, Note_on_c, 0, 73, 0
2, 133567, Control_c, 0, 64, 0
2, 133570, Note_on_c, 0, 74, 0
2, 133578, Note_on_c, 0, 71, 0
2, 133579, Note_on_c, 0, 74, 64
2, 133583, Note_on_c, 0, 71, 65
2, 133662, Control_c, 0, 64, 127
2, 133763, Note_on_c, 0, 54, 52
2, 133900, Note_on_c, 0, 71, 0
2, 133912, Note_on_c, 0, 71, 76
2, 133933, Note_on_c, 0, 59, 63
2, 134092, Note_on_c, 0, 74, 0
2, 134103, Note_on_c, 0, 74, 81
2, 134107, Note_on_c, 0, 62, 61
2, 134446, Note_on_c, 0, 74, 0
2, 134456, Note_on_c, 0, 74, 81
2, 134469, Note_on_c, 0, 54, 0
2, 134477, Note_on_c, 0, 54, 55
2, 134622, Note_on_c, 0, 59, 0
2, 134631, Note_on_c, 0, 59, 73
2, 134807, Note_on_c, 0, 78, 0
2, 134811, Note_on_c, 0, 78, 93
2, 134814, Note_on_c, 0, 74, 0
2, 134822, Note_on_c, 0, 71, 0
2, 134826, Note_on_c, 0, 74, 71
2, 134832, Note_on_c, 0, 71, 72
2, 134931, Control_c, 0, 64, 0
2, 134932, Note_on_c, 0, 47, 0
2, 134933, Note_on_c, 0, 62, 0
2, 134933, Note_on_c, 0, 54, 0
2, 134933, Note_on_c, 0, 59, 0
2, 134979, Note_on_c, 0, 45, 65
2, 135006, Control_c, 0, 64, 127
2, 135152, Note_on_c, 0, 71, 0
2, 135160, Note_on_c, 0, 71, 78
2, 135167, Note_on_c, 0, 54, 50
2, 135325, Note_on_c, 0, 57, 64
2, 135490, Note_on_c, 0, 74, 0
2, 135499, Note_on_c, 0, 74, 83
2, 135505, Note_on_c, 0, 57, 0
2, 135515, Note_on_c, 0, 57, 50
2, 135517, Note_on_c, 0, 62, 61
2, 135851, Note_on_c, 0, 74, 0
2, 135855, Note_on_c, 0, 74, 76
2, 135874, Note_on_c, 0, 54, 0
2, 135883, Note_on_c, 0, 54, 56
2, 136035, Note_on_c, 0, 57, 0
2, 136043, Note_on_c, 0, 69, 59
2, 136044, Note_on_c, 0, 57, 67
2, 136058, Note_on_c, 0, 45, 0
2, 136065, Note_on_c, 0, 45, 44
2, 136212, Note_on_c, 0, 74, 0
2, 136220, Note_on_c, 0, 45, 0
2, 136223, Note_on_c, 0, 74, 92
2, 136226, Note_on_c, 0, 45, 53
2, 136235, Note_on_c, 0, 71, 0
2, 136240, Note_on_c, 0, 71, 74
2, 136361, Note_on_c, 0, 45, 0
2, 136362, Note_on_c, 0, 62, 0
2, 136362, Note_on_c, 0, 54, 0
2, 136362, Note_on_c, 0, 78, 0
2, 136362, Note_on_c, 0, 57, 0
2, 136363, Control_c, 0, 64, 0
2, 136381, Note_on_c, 0, 69, 0
2, 136404, Note_on_c, 0, 43, 58
2, 136527, Control_c, 0, 64, 127
2, 136582, Note_on_c, 0, 55, 62
2, 136582, Note_on_c, 0, 76, 86
2, 136763, Note_on_c, 0, 59, 65
2, 136926, Note_on_c, 0, 74, 0
2, 136936, Note_on_c, 0, 74, 87
2, 136953, Note_on_c, 0, 62, 66
2, 137280, Note_on_c, 0, 55, 0
2, 137280, Note_on_c, 0, 74, 0
2, 137284, Note_on_c, 0, 74, 76
2, 137290, Note_on_c, 0, 55, 51
2, 137472, Note_on_c, 0, 59, 0
2, 137479, Note_on_c, 0, 74, 0
2, 137483, Note_on_c, 0, 59, 67
2, 137484, Note_on_c, 0, 74, 84
2, 137664, Note_on_c, 0, 74, 0
2, 137669, Note_on_c, 0, 74, 88
2, 137834, Note_on_c, 0, 43, 0
2, 137834, Note_on_c, 0, 62, 0
2, 137835, Note_on_c, 0, 76, 0
2, 137838, Control_c, 0, 64, 0
2, 137848, Note_on_c, 0, 59, 0
2, 137848, Note_on_c, 0, 45, 66
2, 137856, Note_on_c, 0, 55, 0
2, 137863, Note_on_c, 0, 71, 0
2, 137940, Control_c, 0, 64, 127
2, 138021, Note_on_c, 0, 78, 87
2, 138021, Note_on_c, 0, 52, 66
2, 138195, Note_on_c, 0, 57, 59
2, 138380, Note_on_c, 0, 76, 85
2, 138383, Note_on_c, 0, 64, 67
2, 138401, Note_on_c, 0, 45, 0
2, 138409, Note_on_c, 0, 45, 52
2, 138742, Note_on_c, 0, 83, 85
2, 138746, Note_on_c, 0, 71, 74
2, 138754, Note_on_c, 0, 52, 0
2, 138759, Note_on_c, 0, 52, 59
2, 138915, Note_on_c, 0, 57, 0
2, 138915, Note_on_c, 0, 74, 0
2, 138920, Note_on_c, 0, 86, 93
2, 138921, Note_on_c, 0, 57, 65
2, 138922, Note_on_c, 0, 74, 88
2, 139084, Note_on_c, 0, 76, 0
2, 139095, Note_on_c, 0, 88, 90
2, 139096, Note_on_c, 0, 76, 85
2, 139221, Control_c, 0, 64, 0
2, 139223, Note_on_c, 0, 71, 0
2, 139223, Note_on_c, 0, 78, 0
2, 139223, Note_on_c, 0, 52, 0
2, 139223, Note_on_c, 0, 74, 0
2, 139223, Note_on_c, 0, 88, 0
2, 139223, Note_on_c, 0, 86, 0
2, 139223, Note_on_c, 0, 45, 0
2, 139223, Note_on_c, 0, 57, 0
2, 139223, Note_on_c, 0, 83, 0
2, 139223, Note_on_c, 0, 64, 0
2, 139238, Note_on_c, 0, 76, 0
2, 139273, Note_on_c, 0, 90, 101
2, 139276, Note_on_c, 0, 86, 80
2, 139277, Note_on_c, 0, 83, 78
2, 139278, Note_on_c, 0, 43, 79
2, 139281, Note_on_c, 0, 78, 89
2, 139284, Note_on_c, 0, 50, 77
2, 139307, Control_c, 0, 64, 127
2, 139622, Note_on_c, 0, 83, 0
2, 139626, Note_on_c, 0, 83, 83
2, 139634, Note_on_c, 0, 71, 74
2, 139636, Note_on_c, 0, 55, 65
2, 139637, Note_on_c, 0, 43, 0
2, 139643, Note_on_c, 0, 43, 58
2, 139806, Note_on_c, 0, 83, 0
2, 139806, Note_on_c, 0, 86, 0
2, 139810, Note_on_c, 0, 86, 89
2, 139817, Note_on_c, 0, 83, 85
2, 139817, Note_on_c, 0, 74, 79
2, 139820, Note_on_c, 0, 62, 66
2, 139822, Note_on_c, 0, 78, 0
2, 139822, Note_on_c, 0, 69, 73
2, 139825, Note_on_c, 0, 78, 73
2, 140121, Note_on_c, 0, 55, 0
2, 140132, Note_on_c, 0, 55, 64
2, 140152, Note_on_c, 0, 74, 0
2, 140152, Note_on_c, 0, 86, 0
2, 140156, Note_on_c, 0, 86, 89
2, 140156, Note_on_c, 0, 74, 84
2, 140321, Note_on_c, 0, 62, 0
2, 140321, Note_on_c, 0, 71, 0
2, 140331, Note_on_c, 0, 71, 77
2, 140332, Note_on_c, 0, 62, 76
2, 140497, Note_on_c, 0, 90, 0
2, 140502, Note_on_c, 0, 90, 100
2, 140505, Note_on_c, 0, 78, 0
2, 140505, Note_on_c, 0, 83, 0
2, 140505, Note_on_c, 0, 86, 0
2, 140511, Note_on_c, 0, 86, 87
2, 140512, Note_on_c, 0, 78, 87
2, 140516, Note_on_c, 0, 83, 85
2, 140573, Note_on_c, 0, 43, 0
2, 140575, Note_on_c, 0, 71, 0
2, 140576, Note_on_c, 0, 74, 0
2, 140576, Control_c, 0, 64, 0
2, 140582, Note_on_c, 0, 69, 0
2, 140590, Note_on_c, 0, 50, 0
2, 140590, Note_on_c, 0, 55, 0
2, 140590, Note_on_c, 0, 62, 0
2, 140659, Control_c, 0, 64, 127
2, 140670, Note_on_c, 0, 45, 76
2, 140672, Note_on_c, 0, 52, 68
2, 140673, Note_on_c, 0, 57, 72
2, 140851, Note_on_c, 0, 83, 0
2, 140855, Note_on_c, 0, 83, 93
2, 140860, Note_on_c, 0, 71, 84
2, 141012, Note_on_c, 0, 57, 0
2, 141020, Note_on_c, 0, 57, 74
2, 141189, Note_on_c, 0, 86, 0
2, 141200, Note_on_c, 0, 86, 92
2, 141204, Note_on_c, 0, 78, 0
2, 141204, Note_on_c, 0, 83, 0
2, 141208, Note_on_c, 0, 83, 80
2, 141209, Note_on_c, 0, 69, 74
2, 141210, Note_on_c, 0, 62, 63
2, 141212, Note_on_c, 0, 74, 80
2, 141214, Note_on_c, 0, 78, 77
2, 141557, Note_on_c, 0, 74, 0
2, 141557, Note_on_c, 0, 86, 0
2, 141562, Note_on_c, 0, 86, 79
2, 141565, Note_on_c, 0, 74, 68
2, 141565, Note_on_c, 0, 57, 0
2, 141575, Note_on_c, 0, 57, 61
2, 141726, Note_on_c, 0, 62, 0
2, 141726, Note_on_c, 0, 71, 0
2, 141732, Note_on_c, 0, 71, 87
2, 141736, Note_on_c, 0, 83, 0
2, 141736, Note_on_c, 0, 62, 85
2, 141917, Note_on_c, 0, 93, 103
2, 141918, Note_on_c, 0, 86, 0
2, 141918, Note_on_c, 0, 90, 0
2, 141926, Note_on_c, 0, 86, 89
2, 141927, Note_on_c, 0, 81, 84
2, 141928, Note_on_c, 0, 90, 85
2, 142014, Note_on_c, 0, 69, 0
2, 142014, Note_on_c, 0, 52, 0
2, 142015, Note_on_c, 0, 62, 0
2, 142015, Note_on_c, 0, 45, 0
2, 142015, Control_c, 0, 64, 0
2, 142015, Note_on_c, 0, 74, 0
2, 142015, Note_on_c, 0, 71, 0
2, 142015, Note_on_c, 0, 57, 0
2, 142056, Note_on_c, 0, 78, 0
2, 142084, Note_on_c, 0, 47, 80
2, 142090, Note_on_c, 0, 59, 74
2, 142096, Note_on_c, 0, 54, 67
2, 142118, Control_c, 0, 64, 127
2, 142267, Note_on_c, 0, 91, 88
2, 142273, Note_on_c, 0, 79, 84
2, 142440, Note_on_c, 0, 59, 0
2, 142440, Note_on_c, 0, 79, 0
2, 142440, Note_on_c, 0, 91, 0
2, 142448, Note_on_c, 0, 47, 0
2, 142448, Note_on_c, 0, 91, 85
2, 142451, Note_on_c, 0, 59, 73
2, 142451, Note_on_c, 0, 79, 83
2, 142452, Note_on_c, 0, 47, 59
2, 142617, Note_on_c, 0, 91, 0
2, 142625, Note_on_c, 0, 59, 0
2, 142625, Note_on_c, 0, 79, 0
2, 142625, Note_on_c, 0, 86, 0
2, 142627, Note_on_c, 0, 91, 99
2, 142630, Note_on_c, 0, 83, 83
2, 142631, Note_on_c, 0, 79, 90
2, 142634, Note_on_c, 0, 86, 82
2, 142635, Note_on_c, 0, 66, 70
2, 142635, Note_on_c, 0, 62, 67
2, 142635, Note_on_c, 0, 59, 65
2, 142970, Note_on_c, 0, 90, 0
2, 142976, Note_on_c, 0, 90, 85
2, 142982, Note_on_c, 0, 78, 80
2, 142986, Note_on_c, 0, 59, 0
2, 142992, Note_on_c, 0, 59, 67
2, 143162, Note_on_c, 0, 62, 0
2, 143162, Note_on_c, 0, 66, 0
2, 143170, Note_on_c, 0, 66, 73
2, 143171, Note_on_c, 0, 62, 58
2, 143324, Note_on_c, 0, 90, 0
2, 143334, Note_on_c, 0, 90, 102
2, 143339, Note_on_c, 0, 78, 0
2, 143339, Note_on_c, 0, 83, 0
2, 143339, Note_on_c, 0, 86, 0
2, 143339, Note_on_c, 0, 93, 0
2, 143348, Note_on_c, 0, 78, 90
2, 143349, Note_on_c, 0, 83, 87
2, 143349, Note_on_c, 0, 86, 81
2, 143440, Note_on_c, 0, 54, 0
2, 143440, Note_on_c, 0, 91, 0
2, 143440, Note_on_c, 0, 66, 0
2, 143440, Note_on_c, 0, 47, 0
2, 143440, Note_on_c, 0, 79, 0
2, 143441, Note_on_c, 0, 62, 0
2, 143441, Note_on_c, 0, 59, 0
2, 143441, Control_c, 0, 64, 0
2, 143454, Note_on_c, 0, 81, 0
2, 143507, Note_on_c, 0, 47, 67
2, 143512, Note_on_c, 0, 59, 72
2, 143512, Note_on_c, 0, 54, 67
2, 143523, Control_c, 0, 64, 127
2, 143697, Note_on_c, 0, 88, 89
2, 143702, Note_on_c, 0, 76, 85
2, 143854, Note_on_c, 0, 59, 0
2, 143864, Note_on_c, 0, 59, 76
2, 144053, Note_on_c, 0, 86, 0
2, 144061, Note_on_c, 0, 83, 0
2, 144062, Note_on_c, 0, 86, 86
2, 144069, Note_on_c, 0, 78, 0
2, 144071, Note_on_c, 0, 62, 58
2, 144072, Note_on_c, 0, 74, 77
2, 144072, Note_on_c, 0, 83, 77
2, 144072, Note_on_c, 0, 66, 68
2, 144073, Note_on_c, 0, 78, 77
2, 144407, Note_on_c, 0, 59, 0
2, 144407, Note_on_c, 0, 74, 0
2, 144407, Note_on_c, 0, 86, 0
2, 144412, Note_on_c, 0, 86, 88
2, 144415, Note_on_c, 0, 59, 66
2, 144417, Note_on_c, 0, 74, 78
2, 144576, Note_on_c, 0, 66, 0
2, 144580, Note_on_c, 0, 66, 81
2, 144599, Note_on_c, 0, 62, 0
2, 144603, Note_on_c, 0, 85, 92
2, 144606, Note_on_c, 0, 62, 39
2, 144610, Note_on_c, 0, 73, 86
2, 144768, Note_on_c, 0, 76, 0
2, 144768, Note_on_c, 0, 88, 0
2, 144776, Note_on_c, 0, 88, 97
2, 144778, Note_on_c, 0, 76, 89
2, 144911, Note_on_c, 0, 47, 0
2, 144911, Note_on_c, 0, 54, 0
2, 144911, Note_on_c, 0, 88, 0
2, 144911, Note_on_c, 0, 78, 0
2, 144911, Note_on_c, 0, 62, 0
2, 144912, Control_c, 0, 64, 0
2, 144912, Note_on_c, 0, 86, 0
2, 144912, Note_on_c, 0, 59, 0
2, 144912, Note_on_c, 0, 66, 0
2, 144912, Note_on_c, 0, 73, 0
2, 144913, Note_on_c, 0, 83, 0
2, 144913, Note_on_c, 0, 85, 0
2, 144921, Note_on_c, 0, 90, 0
2, 144929, Note_on_c, 0, 74, 0
2, 144929, Note_on_c, 0, 76, 0
2, 144954, Note_on_c, 0, 90, 102
2, 144954, Note_on_c, 0, 43, 81
2, 144955, Note_on_c, 0, 50, 80
2, 144956, Note_on_c, 0, 78, 97
2, 144964, Note_on_c, 0, 86, 73
2, 144967, Note_on_c, 0, 83, 71
2, 145013, Control_c, 0, 64, 127
2, 145297, Note_on_c, 0, 83, 0
2, 145306, Note_on_c, 0, 83, 87
2, 145315, Note_on_c, 0, 71, 77
2, 145318, Note_on_c, 0, 55, 66
2, 145320, Note_on_c, 0, 43, 0
2, 145325, Note_on_c, 0, 43, 56
2, 145482, Note_on_c, 0, 86, 0
2, 145488, Note_on_c, 0, 86, 94
2, 145489, Note_on_c, 0, 83, 0
2, 145494, Note_on_c, 0, 83, 83
2, 145494, Note_on_c, 0, 74, 85
2, 145497, Note_on_c, 0, 78, 0
2, 145501, Note_on_c, 0, 78, 81
2, 145503, Note_on_c, 0, 69, 75
2, 145510, Note_on_c, 0, 62, 65
2, 145827, Note_on_c, 0, 86, 0
2, 145833, Note_on_c, 0, 86, 85
2, 145835, Note_on_c, 0, 74, 0
2, 145843, Note_on_c, 0, 43, 0
2, 145843, Note_on_c, 0, 55, 0
2, 145843, Note_on_c, 0, 83, 0
2, 145846, Note_on_c, 0, 74, 78
2, 145847, Note_on_c, 0, 55, 58
2, 145850, Note_on_c, 0, 83, 63
2, 145850, Note_on_c, 0, 43, 54
2, 146019, Note_on_c, 0, 71, 0
2, 146019, Note_on_c, 0, 83, 0
2, 146027, Note_on_c, 0, 62, 0
2, 146027, Note_on_c, 0, 83, 75
2, 146028, Note_on_c, 0, 71, 85
2, 146031, Note_on_c, 0, 62, 74
2, 146211, Note_on_c, 0, 90, 0
2, 146218, Note_on_c, 0, 90, 102
2, 146219, Note_on_c, 0, 78, 0
2, 146219, Note_on_c, 0, 83, 0
2, 146219, Note_on_c, 0, 86, 0
2, 146228, Note_on_c, 0, 86, 85
2, 146229, Note_on_c, 0, 83, 82
2, 146229, Note_on_c, 0, 78, 87
2, 146317, Note_on_c, 0, 69, 0
2, 146317, Note_on_c, 0, 43, 0
2, 146318, Note_on_c, 0, 55, 0
2, 146318, Note_on_c, 0, 62, 0
2, 146318, Note_on_c, 0, 71, 0
2, 146319, Note_on_c, 0, 74, 0
2, 146320, Control_c, 0, 64, 0
2, 146334, Note_on_c, 0, 50, 0
2, 146385, Note_on_c, 0, 40, 77
2, 146388, Note_on_c, 0, 52, 72
2, 146390, Note_on_c, 0, 47, 66
2, 146411, Control_c, 0, 64, 127
2, 146557, Note_on_c, 0, 83, 0
2, 146563, Note_on_c, 0, 83, 89
2, 146569, Note_on_c, 0, 71, 78
2, 146735, Note_on_c, 0, 55, 60
2, 146910, Note_on_c, 0, 86, 0
2, 146915, Note_on_c, 0, 86, 93
2, 146918, Note_on_c, 0, 83, 0
2, 146925, Note_on_c, 0, 83, 88
2, 146931, Note_on_c, 0, 74, 78
2, 146934, Note_on_c, 0, 79, 77
2, 146938, Note_on_c, 0, 69, 70
2, 146961, Note_on_c, 0, 62, 50
2, 147264, Note_on_c, 0, 55, 0
2, 147264, Note_on_c, 0, 83, 0
2, 147264, Note_on_c, 0, 86, 0
2, 147267, Note_on_c, 0, 86, 85
2, 147268, Note_on_c, 0, 55, 55
2, 147271, Note_on_c, 0, 74, 0
2, 147274, Note_on_c, 0, 83, 69
2, 147275, Note_on_c, 0, 74, 74
2, 147456, Note_on_c, 0, 71, 0
2, 147463, Note_on_c, 0, 62, 0
2, 147465, Note_on_c, 0, 71, 79
2, 147469, Note_on_c, 0, 62, 71
2, 147471, Note_on_c, 0, 69, 0
2, 147480, Note_on_c, 0, 69, 47
2, 147632, Note_on_c, 0, 86, 0
2, 147638, Note_on_c, 0, 86, 91
2, 147640, Note_on_c, 0, 74, 0
2, 147640, Note_on_c, 0, 78, 0
2, 147640, Note_on_c, 0, 83, 0
2, 147640, Note_on_c, 0, 90, 0
2, 147646, Note_on_c, 0, 74, 78
2, 147646, Note_on_c, 0, 83, 82
2, 147649, Note_on_c, 0, 78, 82
2, 147735, Note_on_c, 0, 62, 0
2, 147735, Note_on_c, 0, 52, 0
2, 147735, Note_on_c, 0, 47, 0
2, 147735, Note_on_c, 0, 40, 0
2, 147735, Note_on_c, 0, 69, 0
2, 147736, Note_on_c, 0, 55, 0
2, 147736, Note_on_c, 0, 79, 0
2, 147737, Control_c, 0, 64, 0
2, 147747, Note_on_c, 0, 71, 0
2, 147814, Note_on_c, 0, 47, 74
2, 147828, Note_on_c, 0, 59, 66
2, 147832, Control_c, 0, 64, 127
2, 147841, Note_on_c, 0, 54, 51
2, 147997, Note_on_c, 0, 88, 84
2, 148001, Note_on_c, 0, 83, 0
2, 148011, Note_on_c, 0, 76, 74
2, 148011, Note_on_c, 0, 83, 54
2, 148162, Note_on_c, 0, 59, 0
2, 148171, Note_on_c, 0, 59, 73
2, 148339, Note_on_c, 0, 86, 0
2, 148348, Note_on_c, 0, 86, 86
2, 148354, Note_on_c, 0, 74, 0
2, 148354, Note_on_c, 0, 78, 0
2, 148354, Note_on_c, 0, 83, 0
2, 148358, Note_on_c, 0, 62, 58
2, 148360, Note_on_c, 0, 74, 75
2, 148364, Note_on_c, 0, 66, 71
2, 148365, Note_on_c, 0, 78, 77
2, 148365, Note_on_c, 0, 83, 76
2, 148700, Note_on_c, 0, 86, 0
2, 148705, Note_on_c, 0, 86, 78
2, 148707, Note_on_c, 0, 59, 0
2, 148707, Note_on_c, 0, 74, 0
2, 148712, Note_on_c, 0, 74, 66
2, 148715, Note_on_c, 0, 59, 55
2, 148715, Note_on_c, 0, 47, 0
2, 148725, Note_on_c, 0, 47, 50
2, 148884, Note_on_c, 0, 62, 0
2, 148884, Note_on_c, 0, 66, 0
2, 148884, Note_on_c, 0, 86, 0
2, 148889, Note_on_c, 0, 66, 64
2, 148889, Note_on_c, 0, 86, 84
2, 148892, Note_on_c, 0, 74, 0
2, 148895, Note_on_c, 0, 62, 45
2, 148896, Note_on_c, 0, 74, 71
2, 148901, Note_on_c, 0, 71, 52
2, 149053, Note_on_c, 0, 86, 0
2, 149061, Note_on_c, 0, 74, 0
2, 149061, Note_on_c, 0, 83, 0
2, 149062, Note_on_c, 0, 86, 90
2, 149068, Note_on_c, 0, 78, 0
2, 149070, Note_on_c, 0, 83, 85
2, 149071, Note_on_c, 0, 74, 76
2, 149073, Note_on_c, 0, 78, 83
2, 149148, Control_c, 0, 64, 0
2, 149150, Note_on_c, 0, 54, 0
2, 149150, Note_on_c, 0, 66, 0
2, 149150, Note_on_c, 0, 88, 0
2, 149150, Note_on_c, 0, 62, 0
2, 149150, Note_on_c, 0, 47, 0
2, 149151, Note_on_c, 0, 59, 0
2, 149151, Note_on_c, 0, 71, 0
2, 149152, Note_on_c, 0, 76, 0
2, 149230, Control_c, 0, 64, 127
2, 149238, Note_on_c, 0, 52, 67
2, 149238, Note_on_c, 0, 45, 67
2, 149241, Note_on_c, 0, 57, 64
2, 149425, Note_on_c, 0, 90, 86
2, 149429, Note_on_c, 0, 78, 0
2, 149434, Note_on_c, 0, 78, 75
2, 149591, Note_on_c, 0, 57, 0
2, 149597, Note_on_c, 0, 57, 56
2, 149793, Note_on_c, 0, 88, 90
2, 149801, Note_on_c, 0, 85, 79
2, 149801, Note_on_c, 0, 76, 78
2, 149802, Note_on_c, 0, 69, 67
2, 149803, Note_on_c, 0, 64, 60
2, 149804, Note_on_c, 0, 81, 66
2, 149808, Note_on_c, 0, 61, 59
2, 150128, Note_on_c, 0, 57, 0
2, 150134, Note_on_c, 0, 57, 55
2, 150336, Note_on_c, 0, 57, 0
2, 150336, Note_on_c, 0, 61, 0
2, 150336, Note_on_c, 0, 64, 0
2, 150336, Note_on_c, 0, 69, 0
2, 150340, Note_on_c, 0, 69, 63
2, 150341, Note_on_c, 0, 61, 62
2, 150342, Note_on_c, 0, 64, 61
2, 150344, Note_on_c, 0, 57, 57
2, 150741, Control_c, 0, 64, 0
2, 150747, Note_on_c, 0, 45, 0
2, 150747, Note_on_c, 0, 81, 0
2, 150747, Note_on_c, 0, 85, 0
2, 150747, Note_on_c, 0, 86, 0
2, 150747, Note_on_c, 0, 74, 0
2, 150747, Note_on_c, 0, 90, 0
2, 150747, Note_on_c, 0, 78, 0
2, 150747, Note_on_c, 0, 52, 0
2, 150748, Note_on_c, 0, 76, 0
2, 150748, Note_on_c, 0, 88, 0
2, 150758, Note_on_c, 0, 83, 0
2, 150919, Control_c, 0, 64, 127
2, 152582, Control_c, 0, 64, 0
2, 152624, Note_on_c, 0, 61, 0
2, 152624, Note_on_c, 0, 64, 0
2, 152632, Note_on_c, 0, 69, 0
2, 152663, Note_on_c, 0, 57, 0
2, 153154, Control_c, 0, 64, 127
2, 153241, Note_on_c, 0, 86, 101
2, 153242, Note_on_c, 0, 74, 112
2, 153243, Note_on_c, 0, 62, 104
2, 153413, Note_on_c, 0, 73, 106
2, 153416, Note_on_c, 0, 61, 100
2, 153446, Note_on_c, 0, 86, 0
2, 153576, Note_on_c, 0, 62, 0
2, 153576, Note_on_c, 0, 74, 0
2, 153583, Note_on_c, 0, 74, 111
2, 153585, Note_on_c, 0, 62, 98
2, 153751, Note_on_c, 0, 76, 107
2, 153754, Note_on_c, 0, 64, 100
2, 153880, Control_c, 0, 64, 0
2, 153881, Note_on_c, 0, 74, 0
2, 153881, Note_on_c, 0, 62, 0
2, 153882, Note_on_c, 0, 73, 0
2, 153882, Note_on_c, 0, 61, 0
2, 153882, Note_on_c, 0, 76, 0
2, 153883, Note_on_c, 0, 64, 0
2, 153925, Note_on_c, 0, 78, 116
2, 153926, Note_on_c, 0, 35, 91
2, 153926, Note_on_c, 0, 66, 111
2, 153929, Note_on_c, 0, 30, 89
2, 153931, Note_on_c, 0, 71, 100
2, 153937, Control_c, 0, 64, 127
2, 154089, Note_on_c, 0, 47, 76
2, 154191, Note_on_c, 0, 38, 57
2, 154275, Note_on_c, 0, 47, 0
2, 154275, Note_on_c, 0, 71, 0
2, 154283, Note_on_c, 0, 35, 0
2, 154284, Note_on_c, 0, 71, 98
2, 154285, Note_on_c, 0, 47, 89
2, 154286, Note_on_c, 0, 59, 86
2, 154291, Note_on_c, 0, 35, 75
2, 154444, Note_on_c, 0, 47, 0
2, 154452, Note_on_c, 0, 59, 0
2, 154452, Note_on_c, 0, 71, 0
2, 154453, Note_on_c, 0, 74, 111
2, 154455, Note_on_c, 0, 47, 83
2, 154456, Note_on_c, 0, 59, 90
2, 154459, Note_on_c, 0, 62, 97
2, 154459, Note_on_c, 0, 71, 98
2, 154460, Note_on_c, 0, 66, 0
2, 154461, Note_on_c, 0, 50, 85
2, 154462, Note_on_c, 0, 54, 81
2, 154464, Note_on_c, 0, 66, 104
2, 154613, Note_on_c, 0, 47, 0
2, 154618, Note_on_c, 0, 47, 83
2, 154790, Note_on_c, 0, 47, 0
2, 154795, Note_on_c, 0, 47, 79
2, 154813, Note_on_c, 0, 62, 0
2, 154813, Note_on_c, 0, 74, 0
2, 154822, Note_on_c, 0, 74, 106
2, 154822, Note_on_c, 0, 62, 89
2, 154828, Note_on_c, 0, 66, 0
2, 154838, Note_on_c, 0, 66, 69
2, 154974, Note_on_c, 0, 35, 0
2, 154974, Note_on_c, 0, 47, 0
2, 154979, Note_on_c, 0, 47, 87
2, 154982, Note_on_c, 0, 62, 0
2, 154985, Note_on_c, 0, 35, 72
2, 154992, Note_on_c, 0, 62, 75
2, 155166, Note_on_c, 0, 78, 0
2, 155174, Note_on_c, 0, 47, 0
2, 155174, Note_on_c, 0, 66, 0
2, 155174, Note_on_c, 0, 71, 0
2, 155174, Note_on_c, 0, 74, 0
2, 155176, Note_on_c, 0, 78, 115
2, 155179, Note_on_c, 0, 42, 82
2, 155182, Note_on_c, 0, 35, 0
2, 155182, Note_on_c, 0, 38, 0
2, 155182, Note_on_c, 0, 74, 92
2, 155183, Note_on_c, 0, 47, 82
2, 155184, Note_on_c, 0, 66, 105
2, 155185, Note_on_c, 0, 71, 93
2, 155187, Note_on_c, 0, 35, 80
2, 155188, Note_on_c, 0, 38, 80
2, 155282, Control_c, 0, 64, 0
2, 155285, Note_on_c, 0, 54, 0
2, 155285, Note_on_c, 0, 47, 0
2, 155285, Note_on_c, 0, 62, 0
2, 155285, Note_on_c, 0, 59, 0
2, 155285, Note_on_c, 0, 50, 0
2, 155285, Note_on_c, 0, 35, 0
2, 155286, Note_on_c, 0, 42, 0
2, 155289, Note_on_c, 0, 30, 0
2, 155343, Control_c, 0, 64, 127
2, 155345, Note_on_c, 0, 31, 92
2, 155346, Note_on_c, 0, 43, 97
2, 155520, Note_on_c, 0, 71, 0
2, 155524, Note_on_c, 0, 71, 103
2, 155527, Note_on_c, 0, 43, 0
2, 155529, Note_on_c, 0, 59, 91
2, 155531, Note_on_c, 0, 43, 80
2, 155536, Note_on_c, 0, 45, 78
2, 155613, Note_on_c, 0, 47, 19
2, 155619, Note_on_c, 0, 35, 18
2, 155627, Note_on_c, 0, 35, 0
2, 155696, Note_on_c, 0, 31, 0
2, 155696, Note_on_c, 0, 43, 0
2, 155700, Note_on_c, 0, 43, 70
2, 155704, Note_on_c, 0, 31, 58
2, 155788, Note_on_c, 0, 43, 0
2, 155800, Note_on_c, 0, 43, 63
2, 155873, Note_on_c, 0, 74, 0
2, 155880, Note_on_c, 0, 47, 0
2, 155880, Note_on_c, 0, 71, 0
2, 155883, Note_on_c, 0, 74, 109
2, 155883, Note_on_c, 0, 62, 103
2, 155884, Note_on_c, 0, 47, 88
2, 155884, Note_on_c, 0, 55, 96
2, 155885, Note_on_c, 0, 50, 91
2, 155886, Note_on_c, 0, 71, 101
2, 155888, Note_on_c, 0, 67, 98
2, 156026, Note_on_c, 0, 43, 0
2, 156037, Note_on_c, 0, 43, 93
2, 156088, Note_on_c, 0, 50, 0
2, 156093, Note_on_c, 0, 50, 60
2, 156142, Note_on_c, 0, 47, 0
2, 156145, Note_on_c, 0, 47, 71
2, 156188, Note_on_c, 0, 45, 0
2, 156195, Note_on_c, 0, 43, 0
2, 156196, Note_on_c, 0, 45, 81
2, 156199, Note_on_c, 0, 33, 65
2, 156203, Note_on_c, 0, 43, 79
2, 156211, Note_on_c, 0, 31, 0
2, 156217, Note_on_c, 0, 31, 53
2, 156241, Note_on_c, 0, 74, 0
2, 156249, Note_on_c, 0, 62, 0
2, 156252, Note_on_c, 0, 74, 103
2, 156260, Note_on_c, 0, 62, 79
2, 156372, Note_on_c, 0, 38, 0
2, 156377, Note_on_c, 0, 55, 0
2, 156380, Note_on_c, 0, 50, 0
2, 156381, Note_on_c, 0, 47, 0
2, 156387, Note_on_c, 0, 31, 0
2, 156389, Control_c, 0, 64, 0
2, 156392, Note_on_c, 0, 31, 82
2, 156410, Control_c, 0, 64, 127
2, 156449, Note_on_c, 0, 45, 0
2, 156503, Note_on_c, 0, 59, 0
2, 156558, Note_on_c, 0, 38, 95
2, 156577, Note_on_c, 0, 81, 105
2, 156579, Note_on_c, 0, 74, 0
2, 156579, Note_on_c, 0, 78, 0
2, 156584, Note_on_c, 0, 78, 105
2, 156584, Note_on_c, 0, 69, 104
2, 156584, Note_on_c, 0, 74, 102
2, 156587, Note_on_c, 0, 62, 0
2, 156595, Note_on_c, 0, 33, 0
2, 156633, Control_c, 0, 64, 0
2, 156664, Note_on_c, 0, 43, 0
2, 156718, Control_c, 0, 64, 127
2, 156733, Note_on_c, 0, 38, 0
2, 156737, Note_on_c, 0, 38, 97
2, 156742, Note_on_c, 0, 26, 87
2, 156917, Note_on_c, 0, 67, 0
2, 156917, Note_on_c, 0, 71, 0
2, 156921, Note_on_c, 0, 79, 106
2, 156927, Note_on_c, 0, 67, 88
2, 156928, Note_on_c, 0, 71, 80
2, 156932, Note_on_c, 0, 50, 62
2, 157086, Note_on_c, 0, 50, 0
2, 157086, Note_on_c, 0, 79, 0
2, 157091, Note_on_c, 0, 50, 87
2, 157094, Note_on_c, 0, 67, 0
2, 157094, Note_on_c, 0, 74, 0
2, 157096, Note_on_c, 0, 79, 99
2, 157099, Note_on_c, 0, 67, 83
2, 157104, Note_on_c, 0, 74, 67
2, 157263, Note_on_c, 0, 69, 0
2, 157263, Note_on_c, 0, 79, 0
2, 157271, Note_on_c, 0, 50, 0
2, 157271, Note_on_c, 0, 67, 0
2, 157271, Note_on_c, 0, 74, 0
2, 157271, Note_on_c, 0, 79, 112
2, 157274, Note_on_c, 0, 69, 106
2, 157275, Note_on_c, 0, 67, 106
2, 157276, Note_on_c, 0, 62, 93
2, 157277, Note_on_c, 0, 57, 94
2, 157278, Note_on_c, 0, 31, 0
2, 157279, Note_on_c, 0, 74, 100
2, 157281, Note_on_c, 0, 50, 88
2, 157283, Note_on_c, 0, 54, 88
2, 157440, Note_on_c, 0, 50, 0
2, 157445, Note_on_c, 0, 50, 85
2, 157562, Note_on_c, 0, 57, 0
2, 157568, Note_on_c, 0, 57, 72
2, 157570, Note_on_c, 0, 54, 0
2, 157575, Note_on_c, 0, 54, 74
2, 157632, Note_on_c, 0, 50, 0
2, 157632, Note_on_c, 0, 78, 0
2, 157637, Note_on_c, 0, 50, 86
2, 157639, Note_on_c, 0, 66, 0
2, 157639, Note_on_c, 0, 74, 0
2, 157642, Note_on_c, 0, 78, 110
2, 157646, Note_on_c, 0, 66, 105
2, 157649, Note_on_c, 0, 74, 59
2, 157793, Note_on_c, 0, 38, 0
2, 157804, Note_on_c, 0, 38, 90
2, 157951, Note_on_c, 0, 45, 77
2, 157985, Note_on_c, 0, 66, 0
2, 157985, Note_on_c, 0, 78, 0
2, 157990, Note_on_c, 0, 78, 112
2, 157992, Note_on_c, 0, 71, 0
2, 157996, Note_on_c, 0, 66, 107
2, 158003, Note_on_c, 0, 71, 85
2, 158046, Note_on_c, 0, 74, 0
2, 158051, Note_on_c, 0, 74, 44
2, 158071, Control_c, 0, 64, 0
2, 158073, Note_on_c, 0, 69, 0
2, 158073, Note_on_c, 0, 38, 0
2, 158073, Note_on_c, 0, 62, 0
2, 158073, Note_on_c, 0, 67, 0
2, 158073, Note_on_c, 0, 57, 0
2, 158073, Note_on_c, 0, 54, 0
2, 158073, Note_on_c, 0, 79, 0
2, 158073, Note_on_c, 0, 81, 0
2, 158074, Note_on_c, 0, 45, 0
2, 158092, Note_on_c, 0, 50, 0
2, 158100, Note_on_c, 0, 26, 0
2, 158100, Control_c, 0, 64, 127
2, 158135, Note_on_c, 0, 40, 95
2, 158136, Note_on_c, 0, 28, 90
2, 158322, Note_on_c, 0, 52, 86
2, 158323, Note_on_c, 0, 40, 0
2, 158323, Note_on_c, 0, 71, 0
2, 158326, Note_on_c, 0, 76, 106
2, 158327, Note_on_c, 0, 40, 78
2, 158327, Note_on_c, 0, 64, 97
2, 158333, Note_on_c, 0, 71, 82
2, 158424, Note_on_c, 0, 55, 71
2, 158428, Note_on_c, 0, 47, 70
2, 158437, Note_on_c, 0, 59, 68
2, 158530, Note_on_c, 0, 40, 0
2, 158530, Note_on_c, 0, 52, 0
2, 158534, Note_on_c, 0, 40, 70
2, 158536, Note_on_c, 0, 52, 74
2, 158691, Note_on_c, 0, 71, 0
2, 158691, Note_on_c, 0, 74, 0
2, 158697, Note_on_c, 0, 83, 100
2, 158697, Note_on_c, 0, 74, 106
2, 158699, Note_on_c, 0, 55, 0
2, 158699, Note_on_c, 0, 59, 0
2, 158700, Note_on_c, 0, 71, 97
2, 158701, Note_on_c, 0, 62, 87
2, 158702, Note_on_c, 0, 67, 94
2, 158704, Note_on_c, 0, 59, 86
2, 158709, Note_on_c, 0, 55, 85
2, 158837, Note_on_c, 0, 52, 0
2, 158847, Note_on_c, 0, 52, 60
2, 158945, Note_on_c, 0, 55, 0
2, 158952, Note_on_c, 0, 59, 0
2, 158956, Note_on_c, 0, 55, 69
2, 158958, Note_on_c, 0, 59, 62
2, 159014, Note_on_c, 0, 52, 0
2, 159022, Note_on_c, 0, 52, 81
2, 159037, Note_on_c, 0, 74, 0
2, 159045, Note_on_c, 0, 62, 0
2, 159048, Note_on_c, 0, 74, 104
2, 159053, Note_on_c, 0, 62, 92
2, 159206, Note_on_c, 0, 40, 0
2, 159206, Note_on_c, 0, 52, 0
2, 159213, Note_on_c, 0, 52, 101
2, 159215, Note_on_c, 0, 40, 94
2, 159217, Note_on_c, 0, 73, 105
2, 159218, Note_on_c, 0, 61, 95
2, 159367, Note_on_c, 0, 47, 0
2, 159367, Note_on_c, 0, 76, 0
2, 159371, Note_on_c, 0, 47, 79
2, 159375, Note_on_c, 0, 64, 0
2, 159378, Note_on_c, 0, 76, 105
2, 159381, Note_on_c, 0, 64, 91
2, 159382, Note_on_c, 0, 52, 0
2, 159504, Control_c, 0, 64, 0
2, 159504, Note_on_c, 0, 47, 0
2, 159504, Note_on_c, 0, 62, 0
2, 159504, Note_on_c, 0, 74, 0
2, 159505, Note_on_c, 0, 64, 0
2, 159505, Note_on_c, 0, 71, 0
2, 159505, Note_on_c, 0, 40, 0
2, 159505, Note_on_c, 0, 59, 0
2, 159506, Note_on_c, 0, 61, 0
2, 159506, Note_on_c, 0, 73, 0
2, 159506, Note_on_c, 0, 55, 0
2, 159513, Note_on_c, 0, 83, 0
2, 159521, Note_on_c, 0, 28, 0
2, 159521, Note_on_c, 0, 66, 0
2, 159521, Note_on_c, 0, 76, 0
2, 159521, Note_on_c, 0, 78, 0
2, 159528, Note_on_c, 0, 67, 0
2, 159556, Note_on_c, 0, 47, 101
2, 159557, Note_on_c, 0, 78, 114
2, 159560, Note_on_c, 0, 35, 90
2, 159563, Note_on_c, 0, 66, 110
2, 159563, Note_on_c, 0, 40, 86
2, 159564, Note_on_c, 0, 71, 86
2, 159567, Note_on_c, 0, 74, 78
2, 159582, Control_c, 0, 64, 127
2, 159720, Note_on_c, 0, 47, 0
2, 159731, Note_on_c, 0, 47, 58
2, 159732, Note_on_c, 0, 54, 52
2, 159805, Note_on_c, 0, 50, 53
2, 159905, Note_on_c, 0, 47, 0
2, 159905, Note_on_c, 0, 71, 0
2, 159913, Note_on_c, 0, 71, 101
2, 159914, Note_on_c, 0, 47, 83
2, 159916, Note_on_c, 0, 59, 87
2, 160081, Note_on_c, 0, 59, 0
2, 160081, Note_on_c, 0, 71, 0
2, 160081, Note_on_c, 0, 74, 0
2, 160087, Note_on_c, 0, 74, 106
2, 160089, Note_on_c, 0, 50, 0
2, 160089, Note_on_c, 0, 54, 0
2, 160089, Note_on_c, 0, 66, 0
2, 160091, Note_on_c, 0, 71, 98
2, 160092, Note_on_c, 0, 62, 89
2, 160093, Note_on_c, 0, 59, 83
2, 160093, Note_on_c, 0, 50, 76
2, 160095, Note_on_c, 0, 66, 96
2, 160097, Note_on_c, 0, 54, 77
2, 160258, Note_on_c, 0, 47, 0
2, 160268, Note_on_c, 0, 47, 86
2, 160327, Note_on_c, 0, 50, 0
2, 160335, Note_on_c, 0, 54, 0
2, 160338, Note_on_c, 0, 50, 58
2, 160346, Note_on_c, 0, 54, 75
2, 160412, Note_on_c, 0, 47, 0
2, 160421, Note_on_c, 0, 47, 74
2, 160450, Note_on_c, 0, 62, 0
2, 160450, Note_on_c, 0, 74, 0
2, 160455, Note_on_c, 0, 74, 99
2, 160460, Note_on_c, 0, 62, 75
2, 160588, Note_on_c, 0, 47, 0
2, 160596, Note_on_c, 0, 35, 0
2, 160599, Note_on_c, 0, 47, 91
2, 160601, Note_on_c, 0, 35, 83
2, 160778, Note_on_c, 0, 42, 79
2, 160788, Note_on_c, 0, 35, 0
2, 160788, Note_on_c, 0, 40, 0
2, 160788, Note_on_c, 0, 47, 0
2, 160788, Note_on_c, 0, 66, 0
2, 160788, Note_on_c, 0, 71, 0
2, 160788, Note_on_c, 0, 74, 0
2, 160788, Note_on_c, 0, 78, 0
2, 160793, Note_on_c, 0, 78, 109
2, 160793, Note_on_c, 0, 74, 92
2, 160796, Note_on_c, 0, 47, 83
2, 160798, Note_on_c, 0, 66, 101
2, 160798, Note_on_c, 0, 35, 83
2, 160799, Note_on_c, 0, 71, 89
2, 160869, Note_on_c, 0, 35, 0
2, 160870, Note_on_c, 0, 47, 0
2, 160876, Control_c, 0, 64, 0
2, 160880, Note_on_c, 0, 54, 0
2, 160880, Note_on_c, 0, 59, 0
2, 160888, Note_on_c, 0, 50, 0
2, 160896, Note_on_c, 0, 62, 0
2, 160919, Control_c, 0, 64, 127
2, 160958, Note_on_c, 0, 45, 95
2, 160959, Note_on_c, 0, 33, 85
2, 161112, Control_c, 0, 64, 0
2, 161134, Note_on_c, 0, 71, 0
2, 161141, Note_on_c, 0, 45, 0
2, 161141, Note_on_c, 0, 66, 0
2, 161141, Note_on_c, 0, 71, 102
2, 161147, Note_on_c, 0, 66, 75
2, 161147, Note_on_c, 0, 47, 83
2, 161148, Note_on_c, 0, 59, 85
2, 161153, Note_on_c, 0, 45, 77
2, 161172, Control_c, 0, 64, 127
2, 161303, Note_on_c, 0, 45, 0
2, 161311, Note_on_c, 0, 45, 70
2, 161495, Note_on_c, 0, 74, 0
2, 161502, Note_on_c, 0, 59, 0
2, 161502, Note_on_c, 0, 66, 0
2, 161502, Note_on_c, 0, 71, 0
2, 161503, Note_on_c, 0, 74, 106
2, 161507, Note_on_c, 0, 71, 98
2, 161508, Note_on_c, 0, 62, 96
2, 161508, Note_on_c, 0, 38, 78
2, 161508, Note_on_c, 0, 59, 84
2, 161512, Note_on_c, 0, 66, 98
2, 161520, Note_on_c, 0, 47, 0
2, 161656, Note_on_c, 0, 45, 0
2, 161663, Note_on_c, 0, 45, 74
2, 161729, Note_on_c, 0, 54, 80
2, 161732, Note_on_c, 0, 50, 46
2, 161763, Note_on_c, 0, 42, 0
2, 161817, Note_on_c, 0, 45, 0
2, 161822, Note_on_c, 0, 45, 87
2, 161863, Note_on_c, 0, 74, 0
2, 161868, Note_on_c, 0, 74, 92
2, 161870, Note_on_c, 0, 47, 43
2, 161871, Note_on_c, 0, 62, 0
2, 161871, Note_on_c, 0, 66, 0
2, 161871, Note_on_c, 0, 71, 0
2, 161875, Note_on_c, 0, 71, 75
2, 161875, Note_on_c, 0, 62, 67
2, 161880, Note_on_c, 0, 66, 76
2, 162017, Note_on_c, 0, 33, 0
2, 162017, Note_on_c, 0, 45, 0
2, 162022, Note_on_c, 0, 33, 82
2, 162026, Note_on_c, 0, 45, 91
2, 162158, Note_on_c, 0, 40, 74
2, 162192, Control_c, 0, 64, 0
2, 162209, Note_on_c, 0, 62, 0
2, 162209, Note_on_c, 0, 71, 0
2, 162209, Note_on_c, 0, 74, 0
2, 162213, Note_on_c, 0, 74, 107
2, 162216, Note_on_c, 0, 62, 85
2, 162220, Note_on_c, 0, 71, 99
2, 162221, Note_on_c, 0, 67, 99
2, 162227, Note_on_c, 0, 66, 0
2, 162228, Note_on_c, 0, 45, 0
2, 162228, Note_on_c, 0, 54, 0
2, 162229, Note_on_c, 0, 50, 0
2, 162229, Note_on_c, 0, 33, 0
2, 162247, Note_on_c, 0, 38, 0
2, 162255, Note_on_c, 0, 59, 0
2, 162255, Note_on_c, 0, 78, 0
2, 162263, Note_on_c, 0, 47, 0
2, 162293, Note_on_c, 0, 40, 0
2, 162301, Control_c, 0, 64, 127
2, 162377, Note_on_c, 0, 31, 89
2, 162380, Note_on_c, 0, 43, 99
2, 162547, Note_on_c, 0, 43, 0
2, 162557, Control_c, 0, 64, 0
2, 162558, Note_on_c, 0, 43, 72
2, 162559, Note_on_c, 0, 76, 106
2, 162562, Note_on_c, 0, 71, 0
2, 162565, Note_on_c, 0, 64, 91
2, 162570, Control_c, 0, 64, 127
2, 162573, Note_on_c, 0, 71, 73
2, 162585, Note_on_c, 0, 74, 0
2, 162591, Note_on_c, 0, 74, 51
2, 162593, Note_on_c, 0, 43, 0
2, 162600, Note_on_c, 0, 43, 58
2, 162605, Note_on_c, 0, 47, 49
2, 162723, Note_on_c, 0, 31, 0
2, 162731, Note_on_c, 0, 43, 0
2, 162733, Note_on_c, 0, 31, 72
2, 162736, Note_on_c, 0, 43, 76
2, 162908, Note_on_c, 0, 62, 0
2, 162908, Note_on_c, 0, 74, 0
2, 162915, Note_on_c, 0, 47, 0
2, 162915, Note_on_c, 0, 67, 0
2, 162915, Note_on_c, 0, 71, 0
2, 162917, Note_on_c, 0, 59, 88
2, 162917, Note_on_c, 0, 74, 99
2, 162919, Note_on_c, 0, 62, 92
2, 162920, Note_on_c, 0, 71, 94
2, 162920, Note_on_c, 0, 47, 75
2, 162922, Note_on_c, 0, 50, 76
2, 162922, Note_on_c, 0, 55, 84
2, 162923, Note_on_c, 0, 59, 0
2, 162923, Note_on_c, 0, 67, 89
2, 163046, Note_on_c, 0, 43, 0
2, 163057, Note_on_c, 0, 43, 74
2, 163130, Note_on_c, 0, 50, 0
2, 163135, Note_on_c, 0, 50, 59
2, 163146, Note_on_c, 0, 47, 0
2, 163150, Note_on_c, 0, 47, 64
2, 163253, Note_on_c, 0, 74, 0
2, 163261, Note_on_c, 0, 62, 0
2, 163261, Note_on_c, 0, 67, 0
2, 163263, Note_on_c, 0, 74, 107
2, 163266, Note_on_c, 0, 62, 96
2, 163267, Note_on_c, 0, 67, 74
2, 163407, Control_c, 0, 64, 0
2, 163409, Note_on_c, 0, 47, 0
2, 163409, Note_on_c, 0, 64, 0
2, 163409, Note_on_c, 0, 50, 0
2, 163409, Note_on_c, 0, 71, 0
2, 163409, Note_on_c, 0, 76, 0
2, 163415, Note_on_c, 0, 31, 0
2, 163415, Note_on_c, 0, 43, 0
2, 163415, Note_on_c, 0, 74, 0
2, 163422, Note_on_c, 0, 62, 0
2, 163424, Note_on_c, 0, 43, 89
2, 163424, Note_on_c, 0, 31, 81
2, 163426, Note_on_c, 0, 74, 97
2, 163429, Note_on_c, 0, 62, 85
2, 163430, Note_on_c, 0, 55, 0
2, 163468, Control_c, 0, 64, 127
2, 163576, Note_on_c, 0, 38, 86
2, 163594, Control_c, 0, 64, 0
2, 163599, Note_on_c, 0, 74, 0
2, 163601, Note_on_c, 0, 31, 0
2, 163603, Note_on_c, 0, 43, 0
2, 163607, Note_on_c, 0, 62, 0
2, 163609, Note_on_c, 0, 74, 110
2, 163617, Note_on_c, 0, 62, 98
2, 163617, Note_on_c, 0, 71, 100
2, 163618, Note_on_c, 0, 66, 103
2, 163668, Control_c, 0, 64, 127
2, 163771, Note_on_c, 0, 45, 99
2, 163771, Note_on_c, 0, 33, 93
2, 163937, Note_on_c, 0, 45, 0
2, 163947, Note_on_c, 0, 45, 85
2, 163950, Note_on_c, 0, 78, 99
2, 163952, Note_on_c, 0, 66, 0
2, 163954, Note_on_c, 0, 69, 66
2, 163960, Note_on_c, 0, 69, 0
2, 163960, Note_on_c, 0, 66, 88
2, 164021, Note_on_c, 0, 38, 0
2, 164026, Note_on_c, 0, 49, 81
2, 164121, Note_on_c, 0, 33, 0
2, 164121, Note_on_c, 0, 45, 0
2, 164129, Note_on_c, 0, 45, 94
2, 164131, Note_on_c, 0, 33, 80
2, 164317, Note_on_c, 0, 76, 108
2, 164317, Note_on_c, 0, 64, 98
2, 164319, Note_on_c, 0, 73, 100
2, 164319, Note_on_c, 0, 69, 96
2, 164321, Note_on_c, 0, 49, 0
2, 164325, Note_on_c, 0, 52, 83
2, 164328, Note_on_c, 0, 45, 0
2, 164330, Note_on_c, 0, 49, 92
2, 164335, Note_on_c, 0, 45, 73
2, 164666, Note_on_c, 0, 71, 0
2, 164670, Note_on_c, 0, 83, 106
2, 164673, Note_on_c, 0, 71, 100
2, 164820, Note_on_c, 0, 33, 0
2, 164820, Note_on_c, 0, 45, 0
2, 164825, Note_on_c, 0, 33, 71
2, 164825, Note_on_c, 0, 45, 77
2, 164828, Note_on_c, 0, 74, 0
2, 164833, Note_on_c, 0, 86, 104
2, 164839, Note_on_c, 0, 74, 102
2, 164997, Note_on_c, 0, 76, 0
2, 165001, Note_on_c, 0, 40, 73
2, 165005, Note_on_c, 0, 88, 108
2, 165007, Note_on_c, 0, 76, 109
2, 165137, Note_on_c, 0, 40, 0
2, 165137, Note_on_c, 0, 62, 0
2, 165137, Note_on_c, 0, 83, 0
2, 165137, Note_on_c, 0, 73, 0
2, 165137, Note_on_c, 0, 52, 0
2, 165138, Note_on_c, 0, 69, 0
2, 165138, Note_on_c, 0, 86, 0
2, 165138, Note_on_c, 0, 45, 0
2, 165138, Note_on_c, 0, 66, 0
2, 165138, Control_c, 0, 64, 0
2, 165138, Note_on_c, 0, 71, 0
2, 165138, Note_on_c, 0, 64, 0
2, 165138, Note_on_c, 0, 33, 0
2, 165139, Note_on_c, 0, 88, 0
2, 165150, Note_on_c, 0, 49, 0
2, 165150, Note_on_c, 0, 67, 0
2, 165150, Note_on_c, 0, 76, 0
2, 165158, Note_on_c, 0, 74, 0
2, 165173, Note_on_c, 0, 78, 0
2, 165177, Note_on_c, 0, 31, 82
2, 165177, Note_on_c, 0, 90, 114
2, 165178, Note_on_c, 0, 78, 111
2, 165180, Note_on_c, 0, 83, 101
2, 165184, Note_on_c, 0, 84, 96
2, 165184, Note_on_c, 0, 86, 93
2, 165212, Control_c, 0, 64, 127
2, 165338, Note_on_c, 0, 47, 79
2, 165432, Note_on_c, 0, 50, 74
2, 165499, Note_on_c, 0, 55, 78
2, 165519, Note_on_c, 0, 83, 0
2, 165525, Note_on_c, 0, 83, 102
2, 165530, Note_on_c, 0, 71, 97
2, 165542, Note_on_c, 0, 50, 0
2, 165553, Note_on_c, 0, 50, 87
2, 165685, Control_c, 0, 64, 0
2, 165687, Note_on_c, 0, 50, 0
2, 165688, Note_on_c, 0, 47, 0
2, 165688, Note_on_c, 0, 78, 0
2, 165688, Note_on_c, 0, 55, 0
2, 165688, Note_on_c, 0, 83, 0
2, 165688, Note_on_c, 0, 84, 0
2, 165688, Note_on_c, 0, 86, 0
2, 165688, Note_on_c, 0, 90, 0
2, 165690, Note_on_c, 0, 71, 0
2, 165695, Note_on_c, 0, 86, 101
2, 165699, Note_on_c, 0, 83, 101
2, 165700, Note_on_c, 0, 74, 95
2, 165704, Note_on_c, 0, 79, 96
2, 165757, Control_c, 0, 64, 127
2, 165767, Note_on_c, 0, 43, 69
2, 165862, Note_on_c, 0, 47, 74
2, 165946, Note_on_c, 0, 50, 64
2, 166019, Note_on_c, 0, 55, 73
2, 166041, Note_on_c, 0, 74, 0
2, 166049, Note_on_c, 0, 86, 0
2, 166052, Note_on_c, 0, 74, 98
2, 166053, Note_on_c, 0, 86, 98
2, 166064, Note_on_c, 0, 50, 0
2, 166068, Note_on_c, 0, 50, 75
2, 166110, Note_on_c, 0, 47, 0
2, 166118, Note_on_c, 0, 47, 61
2, 166202, Note_on_c, 0, 31, 0
2, 166207, Note_on_c, 0, 31, 71
2, 166269, Note_on_c, 0, 38, 84
2, 166394, Note_on_c, 0, 43, 0
2, 166402, Note_on_c, 0, 83, 0
2, 166405, Note_on_c, 0, 43, 82
2, 166406, Note_on_c, 0, 90, 110
2, 166408, Note_on_c, 0, 78, 105
2, 166410, Note_on_c, 0, 86, 0
2, 166413, Note_on_c, 0, 83, 97
2, 166415, Note_on_c, 0, 86, 86
2, 166417, Note_on_c, 0, 38, 0
2, 166423, Note_on_c, 0, 38, 77
2, 166429, Note_on_c, 0, 50, 0
2, 166431, Note_on_c, 0, 47, 0
2, 166494, Note_on_c, 0, 79, 0
2, 166502, Note_on_c, 0, 55, 0
2, 166516, Note_on_c, 0, 74, 0
2, 166517, Note_on_c, 0, 31, 0
2, 166529, Control_c, 0, 64, 0
2, 166533, Note_on_c, 0, 43, 0
2, 166540, Control_c, 0, 64, 127
2, 166553, Note_on_c, 0, 33, 89
2, 166645, Note_on_c, 0, 45, 75
2, 166732, Note_on_c, 0, 83, 0
2, 166735, Note_on_c, 0, 50, 85
2, 166736, Note_on_c, 0, 83, 98
2, 166743, Note_on_c, 0, 71, 92
2, 166821, Note_on_c, 0, 52, 80
2, 166905, Note_on_c, 0, 57, 80
2, 166947, Note_on_c, 0, 78, 0
2, 166955, Note_on_c, 0, 52, 0
2, 166956, Note_on_c, 0, 78, 70
2, 166960, Note_on_c, 0, 52, 81
2, 167055, Note_on_c, 0, 90, 0
2, 167078, Note_on_c, 0, 86, 0
2, 167080, Note_on_c, 0, 50, 0
2, 167080, Note_on_c, 0, 71, 0
2, 167081, Note_on_c, 0, 57, 0
2, 167081, Note_on_c, 0, 45, 0
2, 167081, Note_on_c, 0, 52, 0
2, 167082, Control_c, 0, 64, 0
2, 167086, Note_on_c, 0, 38, 0
2, 167086, Note_on_c, 0, 78, 0
2, 167086, Note_on_c, 0, 83, 0
2, 167087, Note_on_c, 0, 86, 102
2, 167088, Note_on_c, 0, 40, 69
2, 167090, Note_on_c, 0, 74, 99
2, 167090, Note_on_c, 0, 78, 94
2, 167090, Note_on_c, 0, 83, 96
2, 167124, Note_on_c, 0, 40, 0
2, 167147, Control_c, 0, 64, 127
2, 167169, Note_on_c, 0, 45, 82
2, 167252, Note_on_c, 0, 50, 82
2, 167327, Note_on_c, 0, 52, 82
2, 167408, Note_on_c, 0, 50, 0
2, 167413, Note_on_c, 0, 50, 79
2, 167418, Note_on_c, 0, 57, 74
2, 167424, Note_on_c, 0, 74, 0
2, 167424, Note_on_c, 0, 86, 0
2, 167429, Note_on_c, 0, 86, 97
2, 167433, Note_on_c, 0, 74, 92
2, 167447, Note_on_c, 0, 52, 0
2, 167453, Note_on_c, 0, 52, 75
2, 167577, Note_on_c, 0, 33, 0
2, 167586, Note_on_c, 0, 33, 77
2, 167649, Note_on_c, 0, 40, 80
2, 167773, Note_on_c, 0, 93, 114
2, 167777, Note_on_c, 0, 40, 0
2, 167777, Note_on_c, 0, 86, 0
2, 167781, Note_on_c, 0, 86, 98
2, 167786, Note_on_c, 0, 81, 104
2, 167788, Note_on_c, 0, 40, 78
2, 167790, Note_on_c, 0, 90, 98
2, 167900, Note_on_c, 0, 57, 0
2, 167902, Control_c, 0, 64, 0
2, 167905, Note_on_c, 0, 78, 0
2, 167906, Note_on_c, 0, 74, 0
2, 167906, Note_on_c, 0, 45, 0
2, 167906, Note_on_c, 0, 33, 0
2, 167915, Note_on_c, 0, 50, 0
2, 167915, Note_on_c, 0, 52, 0
2, 167915, Note_on_c, 0, 83, 0
2, 167931, Note_on_c, 0, 35, 80
2, 167932, Note_on_c, 0, 47, 83
2, 167961, Control_c, 0, 64, 127
2, 168023, Note_on_c, 0, 47, 0
2, 168027, Note_on_c, 0, 47, 79
2, 168123, Note_on_c, 0, 50, 78
2, 168125, Note_on_c, 0, 91, 100
2, 168126, Note_on_c, 0, 79, 100
2, 168276, Note_on_c, 0, 47, 0
2, 168285, Note_on_c, 0, 47, 69
2, 168291, Note_on_c, 0, 91, 0
2, 168299, Note_on_c, 0, 79, 0
2, 168303, Note_on_c, 0, 91, 98
2, 168303, Note_on_c, 0, 79, 95
2, 168342, Note_on_c, 0, 54, 79
2, 168449, Control_c, 0, 64, 0
2, 168456, Note_on_c, 0, 50, 0
2, 168456, Note_on_c, 0, 54, 0
2, 168460, Note_on_c, 0, 40, 0
2, 168468, Note_on_c, 0, 47, 0
2, 168468, Note_on_c, 0, 91, 0
2, 168472, Note_on_c, 0, 47, 88
2, 168476, Note_on_c, 0, 79, 0
2, 168476, Note_on_c, 0, 86, 0
2, 168476, Note_on_c, 0, 93, 0
2, 168479, Note_on_c, 0, 91, 112
2, 168481, Note_on_c, 0, 79, 107
2, 168481, Note_on_c, 0, 83, 100
2, 168486, Note_on_c, 0, 86, 93
2, 168522, Control_c, 0, 64, 127
2, 168529, Note_on_c, 0, 81, 0
2, 168552, Note_on_c, 0, 47, 0
2, 168557, Note_on_c, 0, 47, 74
2, 168649, Note_on_c, 0, 50, 75
2, 168711, Note_on_c, 0, 54, 77
2, 168818, Note_on_c, 0, 59, 75
2, 168821, Note_on_c, 0, 90, 0
2, 168826, Note_on_c, 0, 90, 102
2, 168833, Note_on_c, 0, 78, 103
2, 168844, Note_on_c, 0, 54, 0
2, 168851, Note_on_c, 0, 54, 76
2, 168975, Note_on_c, 0, 35, 0
2, 168981, Note_on_c, 0, 35, 71
2, 169063, Note_on_c, 0, 42, 82
2, 169167, Note_on_c, 0, 90, 0
2, 169167, Control_c, 0, 64, 0
2, 169170, Note_on_c, 0, 91, 0
2, 169170, Note_on_c, 0, 79, 0
2, 169170, Note_on_c, 0, 50, 0
2, 169170, Note_on_c, 0, 59, 0
2, 169171, Note_on_c, 0, 54, 0
2, 169173, Note_on_c, 0, 42, 0
2, 169175, Note_on_c, 0, 78, 0
2, 169175, Note_on_c, 0, 83, 0
2, 169178, Note_on_c, 0, 90, 110
2, 169180, Note_on_c, 0, 78, 105
2, 169182, Note_on_c, 0, 35, 0
2, 169182, Note_on_c, 0, 86, 0
2, 169186, Note_on_c, 0, 83, 96
2, 169187, Note_on_c, 0, 86, 86
2, 169188, Note_on_c, 0, 35, 79
2, 169190, Note_on_c, 0, 47, 0
2, 169251, Control_c, 0, 64, 127
2, 169286, Note_on_c, 0, 47, 75
2, 169320, Note_on_c, 0, 35, 0
2, 169325, Note_on_c, 0, 35, 85
2, 169506, Note_on_c, 0, 50, 83
2, 169508, Note_on_c, 0, 88, 104
2, 169510, Note_on_c, 0, 76, 97
2, 169594, Note_on_c, 0, 54, 80
2, 169658, Note_on_c, 0, 47, 0
2, 169665, Note_on_c, 0, 47, 70
2, 169668, Note_on_c, 0, 59, 79
2, 169712, Note_on_c, 0, 54, 0
2, 169722, Note_on_c, 0, 50, 0
2, 169723, Note_on_c, 0, 54, 81
2, 169838, Note_on_c, 0, 90, 0
2, 169839, Control_c, 0, 64, 0
2, 169839, Note_on_c, 0, 35, 0
2, 169839, Note_on_c, 0, 88, 0
2, 169840, Note_on_c, 0, 54, 0
2, 169840, Note_on_c, 0, 76, 0
2, 169841, Note_on_c, 0, 59, 0
2, 169843, Note_on_c, 0, 47, 0
2, 169848, Note_on_c, 0, 47, 86
2, 169850, Note_on_c, 0, 78, 0
2, 169850, Note_on_c, 0, 83, 0
2, 169850, Note_on_c, 0, 86, 0
2, 169854, Note_on_c, 0, 86, 96
2, 169857, Note_on_c, 0, 83, 95
2, 169857, Note_on_c, 0, 78, 94
2, 169858, Note_on_c, 0, 74, 96
2, 169904, Control_c, 0, 64, 127
2, 169927, Note_on_c, 0, 47, 0
2, 169938, Note_on_c, 0, 47, 71
2, 170021, Note_on_c, 0, 50, 72
2, 170104, Note_on_c, 0, 50, 0
2, 170108, Note_on_c, 0, 54, 65
2, 170115, Note_on_c, 0, 50, 60
2, 170173, Note_on_c, 0, 47, 0
2, 170184, Note_on_c, 0, 47, 69
2, 170204, Note_on_c, 0, 86, 0
2, 170211, Note_on_c, 0, 74, 0
2, 170213, Note_on_c, 0, 86, 101
2, 170218, Note_on_c, 0, 74, 91
2, 170227, Note_on_c, 0, 54, 0
2, 170234, Note_on_c, 0, 50, 0
2, 170234, Note_on_c, 0, 78, 0
2, 170237, Note_on_c, 0, 54, 71
2, 170239, Note_on_c, 0, 78, 68
2, 170241, Note_on_c, 0, 50, 59
2, 170368, Note_on_c, 0, 35, 71
2, 170386, Note_on_c, 0, 85, 105
2, 170391, Note_on_c, 0, 73, 99
2, 170437, Note_on_c, 0, 42, 72
2, 170534, Note_on_c, 0, 50, 0
2, 170542, Note_on_c, 0, 47, 0
2, 170545, Note_on_c, 0, 50, 63
2, 170547, Note_on_c, 0, 47, 65
2, 170551, Note_on_c, 0, 88, 104
2, 170553, Note_on_c, 0, 76, 100
2, 170674, Note_on_c, 0, 85, 0
2, 170674, Note_on_c, 0, 74, 0
2, 170674, Note_on_c, 0, 47, 0
2, 170675, Note_on_c, 0, 86, 0
2, 170675, Note_on_c, 0, 73, 0
2, 170675, Control_c, 0, 64, 0
2, 170675, Note_on_c, 0, 78, 0
2, 170675, Note_on_c, 0, 83, 0
2, 170676, Note_on_c, 0, 76, 0
2, 170676, Note_on_c, 0, 50, 0
2, 170676, Note_on_c, 0, 88, 0
2, 170688, Note_on_c, 0, 54, 0
2, 170695, Note_on_c, 0, 35, 0
2, 170695, Note_on_c, 0, 42, 0
2, 170723, Note_on_c, 0, 31, 81
2, 170727, Note_on_c, 0, 90, 110
2, 170730, Note_on_c, 0, 78, 109
2, 170730, Note_on_c, 0, 86, 92
2, 170731, Note_on_c, 0, 83, 92
2, 170749, Control_c, 0, 64, 127
2, 170816, Note_on_c, 0, 43, 57
2, 170883, Note_on_c, 0, 47, 83
2, 170967, Note_on_c, 0, 50, 76
2, 171036, Note_on_c, 0, 55, 72
2, 171079, Note_on_c, 0, 83, 0
2, 171083, Note_on_c, 0, 83, 104
2, 171086, Note_on_c, 0, 71, 97
2, 171095, Note_on_c, 0, 50, 0
2, 171105, Note_on_c, 0, 50, 61
2, 171230, Note_on_c, 0, 90, 0
2, 171230, Note_on_c, 0, 78, 0
2, 171231, Control_c, 0, 64, 0
2, 171231, Note_on_c, 0, 50, 0
2, 171232, Note_on_c, 0, 55, 0
2, 171233, Note_on_c, 0, 43, 0
2, 171233, Note_on_c, 0, 86, 0
2, 171233, Note_on_c, 0, 71, 0
2, 171240, Note_on_c, 0, 31, 0
2, 171240, Note_on_c, 0, 83, 0
2, 171243, Note_on_c, 0, 43, 82
2, 171244, Note_on_c, 0, 86, 105
2, 171245, Note_on_c, 0, 31, 80
2, 171246, Note_on_c, 0, 74, 100
2, 171246, Note_on_c, 0, 83, 105
2, 171248, Note_on_c, 0, 47, 0
2, 171251, Note_on_c, 0, 79, 96
2, 171302, Control_c, 0, 64, 127
2, 171317, Note_on_c, 0, 43, 0
2, 171327, Note_on_c, 0, 43, 69
2, 171356, Note_on_c, 0, 31, 0
2, 171412, Note_on_c, 0, 47, 78
2, 171474, Note_on_c, 0, 50, 78
2, 171565, Note_on_c, 0, 55, 85
2, 171586, Note_on_c, 0, 74, 0
2, 171586, Note_on_c, 0, 83, 0
2, 171586, Note_on_c, 0, 86, 0
2, 171591, Note_on_c, 0, 83, 82
2, 171593, Note_on_c, 0, 74, 97
2, 171594, Note_on_c, 0, 86, 99
2, 171617, Note_on_c, 0, 50, 0
2, 171622, Note_on_c, 0, 50, 80
2, 171748, Note_on_c, 0, 31, 85
2, 171818, Note_on_c, 0, 38, 78
2, 171824, Note_on_c, 0, 50, 0
2, 171924, Note_on_c, 0, 38, 0
2, 171928, Note_on_c, 0, 38, 78
2, 171947, Note_on_c, 0, 83, 0
2, 171947, Note_on_c, 0, 86, 0
2, 171949, Note_on_c, 0, 90, 109
2, 171953, Note_on_c, 0, 86, 92
2, 171953, Note_on_c, 0, 78, 102
2, 171957, Note_on_c, 0, 83, 99
2, 171957, Note_on_c, 0, 74, 0
2, 171959, Note_on_c, 0, 55, 0
2, 171970, Control_c, 0, 64, 0
2, 171978, Note_on_c, 0, 31, 0
2, 171993, Note_on_c, 0, 79, 0
2, 172032, Note_on_c, 0, 47, 0
2, 172050, Note_on_c, 0, 56, 72
2, 172078, Note_on_c, 0, 38, 0
2, 172078, Note_on_c, 0, 43, 0
2, 172099, Note_on_c, 0, 40, 92
2, 172108, Control_c, 0, 64, 127
2, 172124, Note_on_c, 0, 56, 0
2, 172189, Note_on_c, 0, 47, 81
2, 172265, Note_on_c, 0, 52, 83
2, 172285, Note_on_c, 0, 83, 0
2, 172291, Note_on_c, 0, 83, 95
2, 172295, Note_on_c, 0, 71, 87
2, 172373, Note_on_c, 0, 55, 84
2, 172377, Note_on_c, 0, 86, 0
2, 172458, Note_on_c, 0, 59, 89
2, 172515, Note_on_c, 0, 55, 0
2, 172523, Note_on_c, 0, 55, 79
2, 172631, Note_on_c, 0, 40, 0
2, 172638, Note_on_c, 0, 83, 0
2, 172638, Note_on_c, 0, 90, 0
2, 172642, Note_on_c, 0, 40, 91
2, 172642, Note_on_c, 0, 86, 102
2, 172643, Note_on_c, 0, 52, 0
2, 172644, Note_on_c, 0, 71, 0
2, 172644, Note_on_c, 0, 59, 0
2, 172644, Note_on_c, 0, 78, 0
2, 172644, Note_on_c, 0, 47, 0
2, 172645, Note_on_c, 0, 55, 0
2, 172647, Control_c, 0, 64, 0
2, 172649, Note_on_c, 0, 83, 98
2, 172649, Note_on_c, 0, 74, 96
2, 172651, Note_on_c, 0, 79, 94
2, 172715, Control_c, 0, 64, 127
2, 172725, Note_on_c, 0, 47, 82
2, 172805, Note_on_c, 0, 52, 57
2, 172892, Note_on_c, 0, 55, 82
2, 172983, Note_on_c, 0, 59, 89
2, 172999, Note_on_c, 0, 52, 0
2, 173003, Note_on_c, 0, 52, 62
2, 173007, Note_on_c, 0, 74, 0
2, 173007, Note_on_c, 0, 86, 0
2, 173011, Note_on_c, 0, 86, 101
2, 173012, Note_on_c, 0, 74, 96
2, 173015, Note_on_c, 0, 55, 0
2, 173021, Note_on_c, 0, 55, 63
2, 173153, Note_on_c, 0, 40, 0
2, 173164, Note_on_c, 0, 40, 94
2, 173230, Note_on_c, 0, 47, 0
2, 173238, Note_on_c, 0, 47, 84
2, 173345, Note_on_c, 0, 74, 0
2, 173345, Note_on_c, 0, 86, 0
2, 173351, Note_on_c, 0, 86, 105
2, 173352, Note_on_c, 0, 83, 0
2, 173355, Note_on_c, 0, 74, 106
2, 173356, Note_on_c, 0, 78, 101
2, 173358, Note_on_c, 0, 83, 100
2, 173450, Control_c, 0, 64, 0
2, 173450, Note_on_c, 0, 55, 0
2, 173450, Note_on_c, 0, 59, 0
2, 173451, Note_on_c, 0, 52, 0
2, 173451, Note_on_c, 0, 79, 0
2, 173468, Note_on_c, 0, 40, 0
2, 173475, Note_on_c, 0, 47, 0
2, 173502, Note_on_c, 0, 35, 84
2, 173521, Control_c, 0, 64, 127
2, 173601, Note_on_c, 0, 47, 73
2, 173681, Note_on_c, 0, 50, 85
2, 173694, Note_on_c, 0, 88, 101
2, 173698, Note_on_c, 0, 76, 100
2, 173763, Note_on_c, 0, 54, 81
2, 173850, Note_on_c, 0, 59, 78
2, 173851, Note_on_c, 0, 47, 0
2, 173905, Note_on_c, 0, 54, 0
2, 173912, Note_on_c, 0, 54, 73
2, 174036, Note_on_c, 0, 35, 0
2, 174043, Note_on_c, 0, 35, 91
2, 174044, Note_on_c, 0, 74, 0
2, 174044, Note_on_c, 0, 78, 0
2, 174044, Note_on_c, 0, 83, 0
2, 174044, Note_on_c, 0, 86, 0
2, 174046, Note_on_c, 0, 50, 0
2, 174047, Note_on_c, 0, 59, 0
2, 174048, Note_on_c, 0, 86, 97
2, 174048, Note_on_c, 0, 88, 0
2, 174048, Note_on_c, 0, 76, 0
2, 174051, Note_on_c, 0, 74, 100
2, 174053, Control_c, 0, 64, 0
2, 174054, Note_on_c, 0, 83, 94
2, 174055, Note_on_c, 0, 78, 95
2, 174059, Note_on_c, 0, 54, 0
2, 174113, Control_c, 0, 64, 127
2, 174127, Note_on_c, 0, 47, 76
2, 174167, Note_on_c, 0, 35, 0
2, 174210, Note_on_c, 0, 50, 80
2, 174283, Note_on_c, 0, 54, 69
2, 174363, Note_on_c, 0, 59, 78
2, 174397, Note_on_c, 0, 54, 0
2, 174397, Note_on_c, 0, 74, 0
2, 174397, Note_on_c, 0, 78, 0
2, 174397, Note_on_c, 0, 86, 0
2, 174401, Note_on_c, 0, 86, 96
2, 174404, Note_on_c, 0, 78, 74
2, 174406, Note_on_c, 0, 54, 72
2, 174407, Note_on_c, 0, 74, 95
2, 174543, Note_on_c, 0, 47, 0
2, 174547, Note_on_c, 0, 47, 84
2, 174558, Note_on_c, 0, 74, 0
2, 174558, Note_on_c, 0, 86, 0
2, 174569, Note_on_c, 0, 74, 106
2, 174569, Note_on_c, 0, 86, 102
2, 174625, Note_on_c, 0, 42, 85
2, 174735, Note_on_c, 0, 47, 0
2, 174743, Note_on_c, 0, 47, 86
2, 174743, Note_on_c, 0, 74, 0
2, 174743, Note_on_c, 0, 78, 0
2, 174743, Note_on_c, 0, 83, 0
2, 174743, Note_on_c, 0, 86, 0
2, 174748, Note_on_c, 0, 86, 103
2, 174751, Note_on_c, 0, 74, 108
2, 174753, Note_on_c, 0, 83, 100
2, 174754, Note_on_c, 0, 78, 99
2, 174769, Note_on_c, 0, 59, 0
2, 174773, Note_on_c, 0, 50, 0
2, 174777, Note_on_c, 0, 42, 0
2, 174812, Note_on_c, 0, 54, 0
2, 174834, Control_c, 0, 64, 0
2, 174858, Note_on_c, 0, 47, 0
2, 174888, Control_c, 0, 64, 127
2, 174892, Note_on_c, 0, 33, 90
2, 174975, Note_on_c, 0, 45, 57
2, 175079, Note_on_c, 0, 49, 86
2, 175080, Note_on_c, 0, 78, 0
2, 175083, Note_on_c, 0, 90, 104
2, 175089, Note_on_c, 0, 78, 103
2, 175164, Note_on_c, 0, 52, 64
2, 175242, Note_on_c, 0, 57, 69
2, 175303, Note_on_c, 0, 52, 0
2, 175309, Note_on_c, 0, 52, 69
2, 175405, Control_c, 0, 64, 0
2, 175407, Note_on_c, 0, 90, 0
2, 175407, Note_on_c, 0, 52, 0
2, 175407, Note_on_c, 0, 33, 0
2, 175407, Note_on_c, 0, 49, 0
2, 175407, Note_on_c, 0, 78, 0
2, 175408, Note_on_c, 0, 57, 0
2, 175418, Note_on_c, 0, 45, 0
2, 175418, Note_on_c, 0, 83, 0
2, 175426, Note_on_c, 0, 74, 0
2, 175426, Note_on_c, 0, 45, 87
2, 175431, Note_on_c, 0, 88, 109
2, 175434, Note_on_c, 0, 86, 0
2, 175436, Note_on_c, 0, 76, 104
2, 175436, Note_on_c, 0, 81, 99
2, 175437, Note_on_c, 0, 85, 99
2, 175472, Control_c, 0, 64, 127
2, 175504, Note_on_c, 0, 52, 76
2, 175595, Note_on_c, 0, 57, 80
2, 175699, Note_on_c, 0, 61, 80
2, 175771, Note_on_c, 0, 64, 92
2, 175870, Note_on_c, 0, 69, 85
2, 175947, Note_on_c, 0, 73, 96
2, 176017, Note_on_c, 0, 76, 0
2, 176023, Note_on_c, 0, 76, 96
2, 176110, Note_on_c, 0, 81, 0
2, 176114, Note_on_c, 0, 81, 88
2, 176179, Note_on_c, 0, 88, 0
2, 176186, Note_on_c, 0, 88, 96
2, 176244, Note_on_c, 0, 45, 0
2, 176244, Note_on_c, 0, 69, 0
2, 176244, Note_on_c, 0, 52, 0
2, 176244, Note_on_c, 0, 81, 0
2, 176244, Control_c, 0, 64, 0
2, 176245, Note_on_c, 0, 57, 0
2, 176245, Note_on_c, 0, 61, 0
2, 176245, Note_on_c, 0, 73, 0
2, 176245, Note_on_c, 0, 76, 0
2, 176245, Note_on_c, 0, 64, 0
2, 176245, Note_on_c, 0, 88, 0
2, 176245, Note_on_c, 0, 85, 0
2, 176275, Note_on_c, 0, 47, 98
2, 176279, Note_on_c, 0, 35, 93
2, 176309, Control_c, 0, 64, 127
2, 176325, Note_on_c, 0, 47, 0
2, 176452, Note_on_c, 0, 74, 101
2, 176452, Note_on_c, 0, 86, 91
2, 176460, Note_on_c, 0, 47, 76
2, 176463, Note_on_c, 0, 86, 0
2, 176550, Note_on_c, 0, 73, 92
2, 176552, Note_on_c, 0, 50, 84
2, 176610, Note_on_c, 0, 54, 70
2, 176703, Note_on_c, 0, 69, 105
2, 176743, Control_c, 0, 64, 0
2, 176746, Note_on_c, 0, 50, 0
2, 176751, Note_on_c, 0, 74, 0
2, 176751, Note_on_c, 0, 73, 0
2, 176762, Note_on_c, 0, 35, 0
2, 176762, Note_on_c, 0, 54, 0
2, 176770, Control_c, 0, 64, 127
2, 176801, Note_on_c, 0, 47, 0
2, 176807, Note_on_c, 0, 47, 90
2, 176812, Note_on_c, 0, 35, 76
2, 176900, Note_on_c, 0, 64, 94
2, 176974, Note_on_c, 0, 54, 74
2, 176977, Note_on_c, 0, 69, 0
2, 176981, Note_on_c, 0, 57, 80
2, 176984, Note_on_c, 0, 69, 100
2, 177057, Note_on_c, 0, 50, 73
2, 177164, Note_on_c, 0, 59, 96
2, 177295, Note_on_c, 0, 57, 0
2, 177295, Note_on_c, 0, 69, 0
2, 177296, Note_on_c, 0, 54, 0
2, 177296, Note_on_c, 0, 50, 0
2, 177296, Note_on_c, 0, 64, 0
2, 177296, Note_on_c, 0, 59, 0
2, 177296, Control_c, 0, 64, 0
2, 177315, Note_on_c, 0, 35, 0
2, 177323, Note_on_c, 0, 47, 0
2, 177334, Note_on_c, 0, 69, 94
2, 177334, Note_on_c, 0, 47, 89
2, 177336, Note_on_c, 0, 35, 87
2, 177361, Control_c, 0, 64, 127
2, 177427, Note_on_c, 0, 62, 87
2, 177507, Note_on_c, 0, 62, 0
2, 177512, Note_on_c, 0, 57, 84
2, 177514, Note_on_c, 0, 54, 87
2, 177516, Note_on_c, 0, 62, 69
2, 177654, Control_c, 0, 64, 0
2, 177655, Note_on_c, 0, 47, 0
2, 177656, Note_on_c, 0, 57, 0
2, 177656, Note_on_c, 0, 54, 0
2, 177656, Note_on_c, 0, 62, 0
2, 177656, Note_on_c, 0, 69, 0
2, 177661, Note_on_c, 0, 35, 0
2, 177697, Note_on_c, 0, 47, 98
2, 177701, Note_on_c, 0, 35, 86
2, 177715, Control_c, 0, 64, 127
2, 177868, Note_on_c, 0, 47, 0
2, 177870, Note_on_c, 0, 74, 106
2, 177874, Note_on_c, 0, 47, 80
2, 177877, Note_on_c, 0, 59, 88
2, 177878, Note_on_c, 0, 54, 72
2, 177964, Note_on_c, 0, 50, 78
2, 177967, Note_on_c, 0, 73, 91
2, 178037, Note_on_c, 0, 54, 0
2, 178048, Note_on_c, 0, 54, 72
2, 178128, Note_on_c, 0, 69, 104
2, 178191, Note_on_c, 0, 35, 0
2, 178210, Control_c, 0, 64, 0
2, 178211, Note_on_c, 0, 74, 0
2, 178211, Note_on_c, 0, 73, 0
2, 178211, Note_on_c, 0, 69, 0
2, 178211, Note_on_c, 0, 59, 0
2, 178229, Note_on_c, 0, 47, 0
2, 178229, Note_on_c, 0, 50, 0
2, 178229, Note_on_c, 0, 54, 0
2, 178238, Note_on_c, 0, 47, 92
2, 178240, Note_on_c, 0, 35, 84
2, 178275, Control_c, 0, 64, 127
2, 178316, Note_on_c, 0, 64, 93
2, 178398, Note_on_c, 0, 35, 0
2, 178403, Note_on_c, 0, 54, 76
2, 178408, Note_on_c, 0, 59, 79
2, 178409, Note_on_c, 0, 73, 107
2, 178409, Note_on_c, 0, 57, 83
2, 178494, Note_on_c, 0, 50, 78
2, 178567, Note_on_c, 0, 59, 0
2, 178577, Note_on_c, 0, 59, 94
2, 178667, Note_on_c, 0, 64, 0
2, 178672, Note_on_c, 0, 64, 93
2, 178717, Note_on_c, 0, 57, 0
2, 178717, Note_on_c, 0, 54, 0
2, 178718, Note_on_c, 0, 50, 0
2, 178718, Control_c, 0, 64, 0
2, 178718, Note_on_c, 0, 73, 0
2, 178718, Note_on_c, 0, 59, 0
2, 178720, Note_on_c, 0, 64, 0
2, 178728, Note_on_c, 0, 47, 0
2, 178738, Note_on_c, 0, 47, 91
2, 178741, Note_on_c, 0, 35, 84
2, 178760, Note_on_c, 0, 66, 100
2, 178771, Note_on_c, 0, 47, 0
2, 178775, Control_c, 0, 64, 127
2, 178850, Note_on_c, 0, 69, 86
2, 178905, Note_on_c, 0, 57, 81
2, 178907, Note_on_c, 0, 59, 70
2, 178909, Note_on_c, 0, 54, 74
2, 178911, Note_on_c, 0, 47, 70
2, 178944, Note_on_c, 0, 71, 103
2, 179042, Note_on_c, 0, 57, 0
2, 179043, Note_on_c, 0, 47, 0
2, 179043, Note_on_c, 0, 69, 0
2, 179043, Note_on_c, 0, 66, 0
2, 179043, Note_on_c, 0, 54, 0
2, 179044, Control_c, 0, 64, 0
2, 179045, Note_on_c, 0, 71, 0
2, 179059, Note_on_c, 0, 35, 0
2, 179059, Note_on_c, 0, 59, 0
2, 179099, Note_on_c, 0, 31, 93
2, 179101, Note_on_c, 0, 43, 100
2, 179105, Control_c, 0, 64, 127
2, 179277, Note_on_c, 0, 74, 96
2, 179278, Note_on_c, 0, 86, 90
2, 179281, Note_on_c, 0, 43, 0
2, 179286, Note_on_c, 0, 59, 89
2, 179291, Note_on_c, 0, 43, 70
2, 179305, Note_on_c, 0, 54, 60
2, 179367, Note_on_c, 0, 85, 90
2, 179367, Note_on_c, 0, 73, 96
2, 179374, Note_on_c, 0, 85, 0
2, 179386, Note_on_c, 0, 50, 76
2, 179386, Note_on_c, 0, 47, 59
2, 179435, Note_on_c, 0, 54, 0
2, 179435, Note_on_c, 0, 74, 0
2, 179441, Note_on_c, 0, 54, 89
2, 179442, Note_on_c, 0, 74, 74
2, 179538, Note_on_c, 0, 69, 100
2, 179608, Note_on_c, 0, 73, 0
2, 179608, Note_on_c, 0, 50, 0
2, 179608, Note_on_c, 0, 59, 0
2, 179609, Note_on_c, 0, 74, 0
2, 179609, Note_on_c, 0, 54, 0
2, 179609, Control_c, 0, 64, 0
2, 179609, Note_on_c, 0, 69, 0
2, 179619, Note_on_c, 0, 31, 0
2, 179619, Note_on_c, 0, 43, 0
2, 179619, Note_on_c, 0, 47, 0
2, 179627, Note_on_c, 0, 86, 0
2, 179649, Note_on_c, 0, 31, 84
2, 179651, Note_on_c, 0, 43, 88
2, 179681, Control_c, 0, 64, 127
2, 179743, Note_on_c, 0, 64, 96
2, 179819, Note_on_c, 0, 43, 0
2, 179822, Note_on_c, 0, 69, 100
2, 179824, Note_on_c, 0, 45, 69
2, 179829, Note_on_c, 0, 57, 84
2, 179830, Note_on_c, 0, 43, 73
2, 179974, Note_on_c, 0, 54, 81
2, 179993, Note_on_c, 0, 50, 56
2, 180002, Note_on_c, 0, 59, 96
2, 180133, Note_on_c, 0, 45, 0
2, 180137, Note_on_c, 0, 64, 0
2, 180137, Note_on_c, 0, 50, 0
2, 180137, Note_on_c, 0, 54, 0
2, 180137, Note_on_c, 0, 57, 0
2, 180138, Note_on_c, 0, 59, 0
2, 180139, Control_c, 0, 64, 0
2, 180157, Note_on_c, 0, 31, 0
2, 180157, Note_on_c, 0, 43, 0
2, 180157, Note_on_c, 0, 69, 0
2, 180167, Note_on_c, 0, 69, 96
2, 180168, Note_on_c, 0, 31, 81
2, 180168, Note_on_c, 0, 43, 90
2, 180173, Note_on_c, 0, 59, 82
2, 180195, Control_c, 0, 64, 127
2, 180267, Note_on_c, 0, 62, 90
2, 180337, Note_on_c, 0, 57, 84
2, 180338, Note_on_c, 0, 47, 59
2, 180339, Note_on_c, 0, 54, 85
2, 180475, Note_on_c, 0, 57, 0
2, 180475, Note_on_c, 0, 62, 0
2, 180475, Note_on_c, 0, 69, 0
2, 180476, Note_on_c, 0, 43, 0
2, 180476, Note_on_c, 0, 54, 0
2, 180476, Control_c, 0, 64, 0
2, 180480, Note_on_c, 0, 31, 0
2, 180480, Note_on_c, 0, 47, 0
2, 180480, Note_on_c, 0, 59, 0
2, 180523, Note_on_c, 0, 43, 89
2, 180523, Note_on_c, 0, 31, 83
2, 180529, Note_on_c, 0, 40, 79
2, 180529, Note_on_c, 0, 33, 81
2, 180530, Note_on_c, 0, 45, 76
2, 180533, Note_on_c, 0, 40, 0
2, 180541, Control_c, 0, 64, 127
2, 180692, Note_on_c, 0, 86, 94
2, 180696, Note_on_c, 0, 74, 101
2, 180699, Note_on_c, 0, 59, 89
2, 180699, Note_on_c, 0, 50, 58
2, 180700, Note_on_c, 0, 54, 84
2, 180702, Note_on_c, 0, 86, 0
2, 180802, Note_on_c, 0, 73, 93
2, 180802, Note_on_c, 0, 50, 0
2, 180806, Note_on_c, 0, 50, 64
2, 180856, Note_on_c, 0, 54, 0
2, 180860, Note_on_c, 0, 78, 82
2, 180862, Note_on_c, 0, 54, 80
2, 180956, Note_on_c, 0, 59, 0
2, 180959, Note_on_c, 0, 69, 99
2, 180965, Note_on_c, 0, 59, 77
2, 181035, Control_c, 0, 64, 0
2, 181035, Note_on_c, 0, 54, 0
2, 181035, Note_on_c, 0, 74, 0
2, 181035, Note_on_c, 0, 50, 0
2, 181035, Note_on_c, 0, 73, 0
2, 181035, Note_on_c, 0, 59, 0
2, 181036, Note_on_c, 0, 69, 0
2, 181036, Note_on_c, 0, 78, 0
2, 181040, Note_on_c, 0, 33, 0
2, 181040, Note_on_c, 0, 45, 0
2, 181056, Note_on_c, 0, 31, 0
2, 181056, Note_on_c, 0, 43, 0
2, 181060, Note_on_c, 0, 31, 85
2, 181060, Note_on_c, 0, 43, 86
2, 181086, Control_c, 0, 64, 127
2, 181130, Note_on_c, 0, 64, 89
2, 181131, Note_on_c, 0, 76, 84
2, 181230, Note_on_c, 0, 73, 103
2, 181232, Note_on_c, 0, 54, 81
2, 181232, Note_on_c, 0, 57, 83
2, 181237, Note_on_c, 0, 69, 82
2, 181263, Note_on_c, 0, 31, 0
2, 181315, Note_on_c, 0, 50, 76
2, 181378, Note_on_c, 0, 54, 0
2, 181387, Note_on_c, 0, 59, 95
2, 181388, Note_on_c, 0, 54, 75
2, 181409, Note_on_c, 0, 50, 0
2, 181420, Note_on_c, 0, 50, 48
2, 181478, Note_on_c, 0, 64, 0
2, 181483, Note_on_c, 0, 64, 83
2, 181541, Note_on_c, 0, 54, 0
2, 181541, Control_c, 0, 64, 0
2, 181542, Note_on_c, 0, 57, 0
2, 181542, Note_on_c, 0, 50, 0
2, 181542, Note_on_c, 0, 69, 0
2, 181542, Note_on_c, 0, 73, 0
2, 181542, Note_on_c, 0, 64, 0
2, 181542, Note_on_c, 0, 59, 0
2, 181543, Note_on_c, 0, 76, 0
2, 181547, Note_on_c, 0, 43, 0
2, 181552, Note_on_c, 0, 31, 89
2, 181553, Note_on_c, 0, 43, 93
2, 181558, Note_on_c, 0, 33, 79
2, 181562, Note_on_c, 0, 33, 0
2, 181577, Note_on_c, 0, 66, 101
2, 181585, Control_c, 0, 64, 127
2, 181647, Note_on_c, 0, 43, 0
2, 181670, Note_on_c, 0, 69, 89
2, 181723, Note_on_c, 0, 54, 82
2, 181731, Note_on_c, 0, 31, 0
2, 181766, Note_on_c, 0, 71, 103
2, 181865, Note_on_c, 0, 54, 0
2, 181865, Note_on_c, 0, 69, 0
2, 181865, Note_on_c, 0, 66, 0
2, 181866, Control_c, 0, 64, 0
2, 181867, Note_on_c, 0, 71, 0
2, 181911, Note_on_c, 0, 38, 105
2, 181911, Note_on_c, 0, 50, 101
2, 181914, Note_on_c, 0, 62, 88
2, 181931, Control_c, 0, 64, 127
2, 181996, Note_on_c, 0, 43, 22
2, 182012, Note_on_c, 0, 66, 63
2, 182096, Note_on_c, 0, 59, 89
2, 182098, Note_on_c, 0, 54, 79
2, 182099, Note_on_c, 0, 86, 95
2, 182102, Note_on_c, 0, 42, 82
2, 182181, Note_on_c, 0, 85, 94
2, 182184, Note_on_c, 0, 50, 0
2, 182194, Note_on_c, 0, 50, 77
2, 182254, Note_on_c, 0, 54, 0
2, 182258, Note_on_c, 0, 54, 68
2, 182346, Note_on_c, 0, 81, 100
2, 182400, Note_on_c, 0, 43, 0
2, 182402, Note_on_c, 0, 84, 69
2, 182407, Note_on_c, 0, 42, 0
2, 182409, Note_on_c, 0, 54, 0
2, 182409, Note_on_c, 0, 59, 0
2, 182410, Control_c, 0, 64, 0
2, 182411, Note_on_c, 0, 85, 0
2, 182411, Note_on_c, 0, 86, 0
2, 182411, Note_on_c, 0, 81, 0
2, 182423, Note_on_c, 0, 62, 0
2, 182430, Note_on_c, 0, 66, 0
2, 182446, Note_on_c, 0, 38, 0
2, 182446, Note_on_c, 0, 50, 0
2, 182446, Control_c, 0, 64, 127
2, 182450, Note_on_c, 0, 38, 98
2, 182451, Note_on_c, 0, 50, 94
2, 182527, Note_on_c, 0, 76, 95
2, 182599, Note_on_c, 0, 84, 0
2, 182609, Note_on_c, 0, 57, 82
2, 182609, Note_on_c, 0, 54, 84
2, 182610, Note_on_c, 0, 81, 99
2, 182610, Note_on_c, 0, 42, 76
2, 182615, Note_on_c, 0, 42, 0
2, 182691, Note_on_c, 0, 50, 0
2, 182703, Note_on_c, 0, 50, 81
2, 182776, Note_on_c, 0, 54, 0
2, 182780, Note_on_c, 0, 54, 86
2, 182795, Note_on_c, 0, 71, 92
2, 182935, Note_on_c, 0, 76, 0
2, 182936, Note_on_c, 0, 57, 0
2, 182937, Note_on_c, 0, 54, 0
2, 182938, Note_on_c, 0, 71, 0
2, 182940, Control_c, 0, 64, 0
2, 182945, Note_on_c, 0, 38, 0
2, 182945, Note_on_c, 0, 50, 0
2, 182952, Note_on_c, 0, 81, 0
2, 182954, Note_on_c, 0, 38, 96
2, 182956, Note_on_c, 0, 50, 95
2, 182957, Note_on_c, 0, 81, 98
2, 182991, Control_c, 0, 64, 127
2, 183029, Note_on_c, 0, 50, 0
2, 183052, Note_on_c, 0, 38, 0
2, 183060, Note_on_c, 0, 74, 97
2, 183125, Note_on_c, 0, 57, 83
2, 183127, Note_on_c, 0, 69, 77
2, 183127, Note_on_c, 0, 50, 72
2, 183132, Note_on_c, 0, 54, 81
2, 183264, Note_on_c, 0, 69, 0
2, 183264, Note_on_c, 0, 81, 0
2, 183264, Note_on_c, 0, 54, 0
2, 183264, Note_on_c, 0, 57, 0
2, 183264, Note_on_c, 0, 50, 0
2, 183264, Note_on_c, 0, 74, 0
2, 183265, Control_c, 0, 64, 0
2, 183311, Note_on_c, 0, 50, 95
2, 183312, Note_on_c, 0, 38, 99
2, 183321, Control_c, 0, 64, 127
2, 183487, Note_on_c, 0, 86, 99
2, 183487, Note_on_c, 0, 59, 91
2, 183490, Note_on_c, 0, 54, 81
2, 183575, Note_on_c, 0, 50, 0
2, 183579, Note_on_c, 0, 50, 72
2, 183582, Note_on_c, 0, 59, 0
2, 183586, Note_on_c, 0, 85, 90
2, 183592, Note_on_c, 0, 59, 72
2, 183651, Note_on_c, 0, 54, 0
2, 183658, Note_on_c, 0, 54, 86
2, 183746, Note_on_c, 0, 81, 100
2, 183815, Note_on_c, 0, 86, 0
2, 183815, Note_on_c, 0, 54, 0
2, 183816, Note_on_c, 0, 81, 0
2, 183816, Note_on_c, 0, 59, 0
2, 183816, Note_on_c, 0, 85, 0
2, 183817, Control_c, 0, 64, 0
2, 183820, Note_on_c, 0, 50, 0
2, 183851, Note_on_c, 0, 38, 0
2, 183859, Note_on_c, 0, 38, 90
2, 183860, Note_on_c, 0, 50, 87
2, 183874, Control_c, 0, 64, 127
2, 183918, Note_on_c, 0, 76, 92
2, 183997, Note_on_c, 0, 50, 0
2, 184003, Note_on_c, 0, 54, 92
2, 184008, Note_on_c, 0, 50, 85
2, 184014, Note_on_c, 0, 85, 102
2, 184031, Note_on_c, 0, 57, 79
2, 184104, Note_on_c, 0, 50, 0
2, 184109, Note_on_c, 0, 50, 76
2, 184181, Note_on_c, 0, 54, 0
2, 184182, Note_on_c, 0, 71, 98
2, 184191, Note_on_c, 0, 54, 71
2, 184273, Note_on_c, 0, 76, 0
2, 184279, Note_on_c, 0, 76, 97
2, 184324, Note_on_c, 0, 57, 0
2, 184324, Note_on_c, 0, 85, 0
2, 184324, Note_on_c, 0, 71, 0
2, 184324, Note_on_c, 0, 54, 0
2, 184327, Control_c, 0, 64, 0
2, 184328, Note_on_c, 0, 76, 0
2, 184335, Note_on_c, 0, 38, 0
2, 184335, Note_on_c, 0, 50, 0
2, 184341, Note_on_c, 0, 38, 96
2, 184346, Note_on_c, 0, 50, 86
2, 184366, Control_c, 0, 64, 127
2, 184367, Note_on_c, 0, 78, 103
2, 184404, Note_on_c, 0, 38, 0
2, 184450, Note_on_c, 0, 81, 82
2, 184519, Note_on_c, 0, 54, 86
2, 184520, Note_on_c, 0, 57, 83
2, 184525, Note_on_c, 0, 83, 103
2, 184661, Note_on_c, 0, 78, 0
2, 184661, Note_on_c, 0, 54, 0
2, 184661, Note_on_c, 0, 83, 0
2, 184661, Note_on_c, 0, 50, 0
2, 184662, Note_on_c, 0, 81, 0
2, 184662, Control_c, 0, 64, 0
2, 184662, Note_on_c, 0, 57, 0
2, 184699, Note_on_c, 0, 52, 103
2, 184699, Note_on_c, 0, 40, 104
2, 184727, Control_c, 0, 64, 127
2, 184773, Note_on_c, 0, 40, 0
2, 184878, Note_on_c, 0, 59, 89
2, 184880, Note_on_c, 0, 55, 81
2, 184881, Note_on_c, 0, 86, 97
2, 184975, Note_on_c, 0, 85, 97
2, 184980, Note_on_c, 0, 52, 0
2, 184989, Note_on_c, 0, 52, 78
2, 185026, Note_on_c, 0, 55, 0
2, 185037, Note_on_c, 0, 55, 58
2, 185125, Note_on_c, 0, 81, 104
2, 185183, Control_c, 0, 64, 0
2, 185183, Note_on_c, 0, 52, 0
2, 185184, Note_on_c, 0, 55, 0
2, 185184, Note_on_c, 0, 86, 0
2, 185184, Note_on_c, 0, 85, 0
2, 185184, Note_on_c, 0, 59, 0
2, 185189, Note_on_c, 0, 81, 0
2, 185237, Note_on_c, 0, 40, 93
2, 185237, Note_on_c, 0, 52, 94
2, 185249, Control_c, 0, 64, 127
2, 185305, Note_on_c, 0, 76, 93
2, 185390, Note_on_c, 0, 57, 87
2, 185391, Note_on_c, 0, 55, 84
2, 185393, Note_on_c, 0, 45, 71
2, 185396, Note_on_c, 0, 81, 95
2, 185402, Note_on_c, 0, 45, 0
2, 185479, Note_on_c, 0, 52, 0
2, 185490, Note_on_c, 0, 52, 83
2, 185525, Note_on_c, 0, 55, 0
2, 185530, Note_on_c, 0, 55, 64
2, 185580, Note_on_c, 0, 71, 96
2, 185705, Note_on_c, 0, 57, 0
2, 185705, Note_on_c, 0, 76, 0
2, 185705, Note_on_c, 0, 81, 0
2, 185706, Note_on_c, 0, 55, 0
2, 185706, Note_on_c, 0, 71, 0
2, 185706, Control_c, 0, 64, 0
2, 185710, Note_on_c, 0, 40, 0
2, 185733, Note_on_c, 0, 52, 0
2, 185740, Note_on_c, 0, 52, 89
2, 185744, Note_on_c, 0, 40, 80
2, 185751, Note_on_c, 0, 81, 94
2, 185771, Control_c, 0, 64, 127
2, 185851, Note_on_c, 0, 74, 98
2, 185906, Note_on_c, 0, 45, 68
2, 185912, Note_on_c, 0, 57, 85
2, 185914, Note_on_c, 0, 55, 87
2, 185955, Note_on_c, 0, 40, 0
2, 186060, Note_on_c, 0, 81, 0
2, 186060, Note_on_c, 0, 55, 0
2, 186060, Note_on_c, 0, 74, 0
2, 186060, Note_on_c, 0, 52, 0
2, 186060, Note_on_c, 0, 57, 0
2, 186061, Control_c, 0, 64, 0
2, 186078, Note_on_c, 0, 45, 0
2, 186098, Note_on_c, 0, 52, 101
2, 186098, Note_on_c, 0, 40, 104
2, 186132, Control_c, 0, 64, 127
2, 186275, Note_on_c, 0, 86, 91
2, 186279, Note_on_c, 0, 59, 96
2, 186283, Note_on_c, 0, 55, 85
2, 186339, Note_on_c, 0, 52, 0
2, 186374, Note_on_c, 0, 85, 93
2, 186377, Note_on_c, 0, 52, 84
2, 186439, Note_on_c, 0, 55, 0
2, 186449, Note_on_c, 0, 55, 77
2, 186516, Note_on_c, 0, 52, 0
2, 186525, Note_on_c, 0, 81, 101
2, 186527, Note_on_c, 0, 52, 74
2, 186586, Note_on_c, 0, 55, 0
2, 186586, Note_on_c, 0, 52, 0
2, 186587, Control_c, 0, 64, 0
2, 186587, Note_on_c, 0, 59, 0
2, 186587, Note_on_c, 0, 86, 0
2, 186589, Note_on_c, 0, 85, 0
2, 186593, Note_on_c, 0, 40, 0
2, 186594, Note_on_c, 0, 81, 0
2, 186649, Note_on_c, 0, 40, 92
2, 186649, Note_on_c, 0, 52, 88
2, 186685, Control_c, 0, 64, 127
2, 186696, Note_on_c, 0, 76, 95
2, 186792, Note_on_c, 0, 55, 90
2, 186793, Note_on_c, 0, 57, 90
2, 186793, Note_on_c, 0, 85, 100
2, 186797, Note_on_c, 0, 43, 74
2, 186808, Note_on_c, 0, 43, 0
2, 186885, Note_on_c, 0, 52, 0
2, 186886, Control_c, 0, 64, 0
2, 186895, Note_on_c, 0, 52, 84
2, 186946, Control_c, 0, 64, 127
2, 186956, Note_on_c, 0, 71, 89
2, 187046, Note_on_c, 0, 76, 0
2, 187050, Note_on_c, 0, 76, 91
2, 187105, Note_on_c, 0, 85, 0
2, 187106, Note_on_c, 0, 57, 0
2, 187106, Note_on_c, 0, 55, 0
2, 187107, Note_on_c, 0, 71, 0
2, 187108, Control_c, 0, 64, 0
2, 187115, Note_on_c, 0, 52, 0
2, 187123, Note_on_c, 0, 40, 0
2, 187127, Note_on_c, 0, 52, 96
2, 187127, Note_on_c, 0, 40, 90
2, 187128, Note_on_c, 0, 78, 97
2, 187176, Control_c, 0, 64, 127
2, 187192, Note_on_c, 0, 76, 0
2, 187205, Note_on_c, 0, 81, 89
2, 187297, Note_on_c, 0, 57, 81
2, 187298, Note_on_c, 0, 83, 105
2, 187302, Note_on_c, 0, 55, 89
2, 187461, Note_on_c, 0, 40, 0
2, 187501, Note_on_c, 0, 47, 82
2, 187502, Note_on_c, 0, 35, 87
2, 187526, Control_c, 0, 64, 0
2, 187528, Note_on_c, 0, 78, 0
2, 187528, Note_on_c, 0, 52, 0
2, 187529, Note_on_c, 0, 55, 0
2, 187529, Note_on_c, 0, 81, 0
2, 187530, Note_on_c, 0, 83, 0
2, 187530, Note_on_c, 0, 57, 0
2, 187696, Note_on_c, 0, 62, 91
2, 187793, Note_on_c, 0, 61, 88
2, 187799, Note_on_c, 0, 62, 0
2, 187832, Note_on_c, 0, 61, 0
2, 187967, Note_on_c, 0, 57, 92
2, 187969, Note_on_c, 0, 69, 80
2, 187975, Note_on_c, 0, 69, 0
2, 188011, Note_on_c, 0, 57, 0
2, 188132, Note_on_c, 0, 52, 88
2, 188211, Note_on_c, 0, 57, 92
2, 188211, Note_on_c, 0, 69, 81
2, 188217, Note_on_c, 0, 52, 0
2, 188281, Note_on_c, 0, 57, 0
2, 188305, Note_on_c, 0, 69, 0
2, 188382, Note_on_c, 0, 47, 0
2, 188392, Note_on_c, 0, 47, 86
2, 188456, Note_on_c, 0, 47, 0
2, 188565, Note_on_c, 0, 57, 86
2, 188630, Note_on_c, 0, 57, 0
2, 188660, Note_on_c, 0, 50, 92
2, 188782, Control_c, 0, 64, 127
2, 188932, Control_c, 0, 64, 0
2, 188934, Note_on_c, 0, 50, 0
2, 188935, Note_on_c, 0, 35, 0
2, 188940, Note_on_c, 0, 35, 83
2, 189121, Note_on_c, 0, 62, 88
2, 189217, Note_on_c, 0, 61, 88
2, 189221, Note_on_c, 0, 62, 0
2, 189256, Note_on_c, 0, 61, 0
2, 189378, Note_on_c, 0, 69, 77
2, 189378, Note_on_c, 0, 57, 87
2, 189426, Note_on_c, 0, 57, 0
2, 189457, Note_on_c, 0, 69, 0
2, 189546, Note_on_c, 0, 52, 82
2, 189636, Note_on_c, 0, 61, 93
2, 189722, Note_on_c, 0, 61, 0
2, 189769, Note_on_c, 0, 52, 0
2, 189799, Note_on_c, 0, 47, 86
2, 189880, Note_on_c, 0, 47, 0
2, 189893, Note_on_c, 0, 52, 85
2, 189986, Note_on_c, 0, 54, 88
2, 190037, Note_on_c, 0, 52, 0
2, 190065, Note_on_c, 0, 57, 80
2, 190080, Note_on_c, 0, 35, 0
2, 190110, Note_on_c, 0, 54, 0
2, 190153, Note_on_c, 0, 59, 97
2, 190170, Note_on_c, 0, 57, 0
2, 190329, Note_on_c, 0, 59, 0
2, 190334, Note_on_c, 0, 35, 71
2, 190423, Note_on_c, 0, 42, 76
2, 190505, Note_on_c, 0, 50, 85
2, 190601, Note_on_c, 0, 54, 79
2, 190617, Note_on_c, 0, 50, 0
2, 190692, Note_on_c, 0, 57, 80
2, 190693, Note_on_c, 0, 69, 72
2, 190737, Note_on_c, 0, 54, 0
2, 190748, Note_on_c, 0, 42, 0
2, 190754, Note_on_c, 0, 57, 0
2, 190775, Note_on_c, 0, 47, 78
2, 190801, Note_on_c, 0, 69, 0
2, 190860, Note_on_c, 0, 52, 82
2, 190951, Note_on_c, 0, 54, 87
2, 190999, Note_on_c, 0, 52, 0
2, 191038, Note_on_c, 0, 61, 88
2, 191038, Note_on_c, 0, 54, 0
2, 191093, Note_on_c, 0, 47, 0
2, 191120, Note_on_c, 0, 50, 80
2, 191122, Note_on_c, 0, 61, 0
2, 191205, Note_on_c, 0, 54, 88
2, 191220, Note_on_c, 0, 50, 0
2, 191303, Note_on_c, 0, 57, 85
2, 191376, Note_on_c, 0, 54, 0
2, 191382, Note_on_c, 0, 62, 90
2, 191385, Note_on_c, 0, 35, 0
2, 191397, Note_on_c, 0, 57, 0
2, 191443, Note_on_c, 0, 62, 0
2, 191473, Note_on_c, 0, 52, 87
2, 191553, Note_on_c, 0, 57, 85
2, 191588, Note_on_c, 0, 52, 0
2, 191641, Note_on_c, 0, 66, 85
2, 191666, Note_on_c, 0, 57, 0
2, 191719, Note_on_c, 0, 35, 75
2, 191799, Note_on_c, 0, 42, 80
2, 191901, Note_on_c, 0, 49, 85
2, 191938, Note_on_c, 0, 42, 0
2, 191983, Note_on_c, 0, 54, 77
2, 192034, Note_on_c, 0, 49, 0
2, 192059, Note_on_c, 0, 54, 0
2, 192070, Note_on_c, 0, 47, 84
2, 192107, Note_on_c, 0, 66, 0
2, 192150, Note_on_c, 0, 52, 87
2, 192182, Note_on_c, 0, 47, 0
2, 192234, Note_on_c, 0, 57, 79
2, 192300, Note_on_c, 0, 52, 0
2, 192303, Note_on_c, 0, 57, 0
2, 192334, Note_on_c, 0, 62, 80
2, 192335, Note_on_c, 0, 74, 75
2, 192399, Note_on_c, 0, 62, 0
2, 192412, Note_on_c, 0, 52, 83
2, 192495, Note_on_c, 0, 61, 80
2, 192552, Note_on_c, 0, 52, 0
2, 192571, Note_on_c, 0, 61, 0
2, 192577, Note_on_c, 0, 62, 80
2, 192679, Note_on_c, 0, 66, 83
2, 192685, Note_on_c, 0, 62, 0
2, 192754, Note_on_c, 0, 69, 68
2, 192754, Note_on_c, 0, 57, 79
2, 192760, Note_on_c, 0, 69, 0
2, 192803, Note_on_c, 0, 57, 0
2, 192821, Note_on_c, 0, 66, 0
2, 192828, Note_on_c, 0, 66, 88
2, 192829, Note_on_c, 0, 35, 0
2, 192932, Note_on_c, 0, 73, 96
2, 193006, Note_on_c, 0, 74, 0
2, 193015, Note_on_c, 0, 74, 98
2, 193027, Note_on_c, 0, 66, 0
2, 193034, Note_on_c, 0, 73, 0
2, 193065, Note_on_c, 0, 74, 0
2, 193095, Note_on_c, 0, 35, 78
2, 193248, Note_on_c, 0, 47, 80
2, 193251, Control_c, 0, 64, 127
2, 193262, Note_on_c, 0, 74, 88
2, 193263, Note_on_c, 0, 86, 83
2, 193267, Note_on_c, 0, 86, 0
2, 193356, Note_on_c, 0, 73, 81
2, 193357, Note_on_c, 0, 54, 83
2, 193505, Note_on_c, 0, 47, 0
2, 193513, Note_on_c, 0, 59, 78
2, 193514, Note_on_c, 0, 47, 73
2, 193515, Note_on_c, 0, 69, 88
2, 193666, Note_on_c, 0, 54, 0
2, 193671, Note_on_c, 0, 54, 68
2, 193674, Note_on_c, 0, 66, 66
2, 193681, Note_on_c, 0, 66, 0
2, 193705, Note_on_c, 0, 64, 50
2, 193707, Note_on_c, 0, 62, 61
2, 193774, Note_on_c, 0, 35, 0
2, 193774, Note_on_c, 0, 47, 0
2, 193774, Note_on_c, 0, 69, 0
2, 193774, Control_c, 0, 64, 0
2, 193777, Note_on_c, 0, 64, 0
2, 193777, Note_on_c, 0, 62, 0
2, 193778, Note_on_c, 0, 59, 0
2, 193778, Note_on_c, 0, 69, 95
2, 193778, Note_on_c, 0, 54, 0
2, 193778, Note_on_c, 0, 74, 0
2, 193779, Note_on_c, 0, 47, 84
2, 193843, Note_on_c, 0, 73, 0
2, 193963, Note_on_c, 0, 52, 78
2, 193964, Note_on_c, 0, 59, 90
2, 194050, Control_c, 0, 64, 127
2, 194119, Note_on_c, 0, 69, 0
2, 194126, Note_on_c, 0, 69, 90
2, 194130, Note_on_c, 0, 54, 84
2, 194229, Note_on_c, 0, 62, 88
2, 194229, Note_on_c, 0, 57, 81
2, 194480, Note_on_c, 0, 59, 0
2, 194485, Note_on_c, 0, 47, 0
2, 194486, Note_on_c, 0, 57, 0
2, 194486, Control_c, 0, 64, 0
2, 194486, Note_on_c, 0, 62, 0
2, 194486, Note_on_c, 0, 54, 0
2, 194487, Note_on_c, 0, 69, 0
2, 194496, Note_on_c, 0, 52, 0
2, 194513, Note_on_c, 0, 35, 81
2, 194572, Control_c, 0, 64, 127
2, 194668, Note_on_c, 0, 47, 77
2, 194694, Note_on_c, 0, 74, 98
2, 194726, Note_on_c, 0, 35, 0
2, 194791, Note_on_c, 0, 73, 85
2, 194791, Note_on_c, 0, 54, 88
2, 194956, Note_on_c, 0, 47, 0
2, 194960, Note_on_c, 0, 69, 85
2, 194968, Note_on_c, 0, 47, 69
2, 194977, Note_on_c, 0, 59, 76
2, 195118, Note_on_c, 0, 54, 0
2, 195128, Note_on_c, 0, 64, 84
2, 195129, Note_on_c, 0, 54, 73
2, 195203, Control_c, 0, 64, 0
2, 195206, Note_on_c, 0, 59, 0
2, 195206, Note_on_c, 0, 74, 0
2, 195206, Note_on_c, 0, 69, 0
2, 195207, Note_on_c, 0, 64, 0
2, 195210, Note_on_c, 0, 47, 0
2, 195210, Note_on_c, 0, 73, 0
2, 195221, Note_on_c, 0, 47, 89
2, 195221, Note_on_c, 0, 73, 99
2, 195225, Note_on_c, 0, 54, 0
2, 195294, Control_c, 0, 64, 127
2, 195389, Note_on_c, 0, 59, 91
2, 195390, Note_on_c, 0, 52, 68
2, 195390, Note_on_c, 0, 71, 74
2, 195476, Note_on_c, 0, 54, 77
2, 195482, Note_on_c, 0, 64, 87
2, 195563, Note_on_c, 0, 57, 82
2, 195564, Note_on_c, 0, 66, 93
2, 195648, Note_on_c, 0, 59, 0
2, 195658, Note_on_c, 0, 69, 85
2, 195658, Note_on_c, 0, 59, 86
2, 195740, Note_on_c, 0, 71, 0
2, 195745, Note_on_c, 0, 62, 88
2, 195747, Note_on_c, 0, 71, 102
2, 195916, Note_on_c, 0, 57, 0
2, 195917, Note_on_c, 0, 69, 0
2, 195917, Note_on_c, 0, 54, 0
2, 195917, Note_on_c, 0, 52, 0
2, 195917, Note_on_c, 0, 62, 0
2, 195917, Note_on_c, 0, 64, 0
2, 195917, Control_c, 0, 64, 0
2, 195918, Note_on_c, 0, 66, 0
2, 195918, Note_on_c, 0, 59, 0
2, 195918, Note_on_c, 0, 73, 0
2, 195918, Note_on_c, 0, 71, 0
2, 195932, Note_on_c, 0, 47, 0
2, 195938, Note_on_c, 0, 35, 78
2, 196016, Control_c, 0, 64, 127
2, 196035, Note_on_c, 0, 42, 77
2, 196104, Note_on_c, 0, 62, 83
2, 196104, Note_on_c, 0, 47, 71
2, 196198, Note_on_c, 0, 66, 83
2, 196206, Note_on_c, 0, 50, 69
2, 196282, Note_on_c, 0, 69, 89
2, 196287, Note_on_c, 0, 54, 78
2, 196379, Note_on_c, 0, 59, 83
2, 196459, Note_on_c, 0, 64, 83
2, 196469, Note_on_c, 0, 47, 0
2, 196480, Note_on_c, 0, 47, 64
2, 196538, Note_on_c, 0, 50, 0
2, 196538, Note_on_c, 0, 66, 0
2, 196544, Note_on_c, 0, 50, 72
2, 196548, Note_on_c, 0, 66, 89
2, 196619, Note_on_c, 0, 57, 81
2, 196635, Note_on_c, 0, 73, 94
2, 196692, Note_on_c, 0, 35, 0
2, 196715, Note_on_c, 0, 47, 0
2, 196715, Note_on_c, 0, 62, 0
2, 196719, Note_on_c, 0, 47, 74
2, 196724, Note_on_c, 0, 62, 82
2, 196800, Note_on_c, 0, 50, 0
2, 196800, Note_on_c, 0, 66, 0
2, 196804, Note_on_c, 0, 50, 67
2, 196809, Note_on_c, 0, 66, 95
2, 196892, Note_on_c, 0, 54, 0
2, 196892, Note_on_c, 0, 69, 0
2, 196898, Note_on_c, 0, 54, 76
2, 196900, Note_on_c, 0, 69, 82
2, 196976, Note_on_c, 0, 59, 0
2, 196982, Note_on_c, 0, 74, 94
2, 196982, Note_on_c, 0, 59, 85
2, 197053, Note_on_c, 0, 54, 0
2, 197053, Note_on_c, 0, 64, 0
2, 197057, Note_on_c, 0, 54, 75
2, 197060, Note_on_c, 0, 64, 82
2, 197137, Note_on_c, 0, 47, 0
2, 197137, Note_on_c, 0, 69, 0
2, 197147, Note_on_c, 0, 47, 79
2, 197148, Note_on_c, 0, 69, 77
2, 197230, Note_on_c, 0, 42, 0
2, 197235, Note_on_c, 0, 78, 99
2, 197237, Note_on_c, 0, 42, 77
2, 197279, Note_on_c, 0, 64, 0
2, 197279, Note_on_c, 0, 57, 0
2, 197279, Note_on_c, 0, 69, 0
2, 197280, Note_on_c, 0, 62, 0
2, 197280, Note_on_c, 0, 54, 0
2, 197280, Note_on_c, 0, 59, 0
2, 197280, Note_on_c, 0, 74, 0
2, 197280, Note_on_c, 0, 50, 0
2, 197280, Note_on_c, 0, 73, 0
2, 197282, Note_on_c, 0, 42, 0
2, 197285, Control_c, 0, 64, 0
2, 197291, Note_on_c, 0, 78, 0
2, 197299, Note_on_c, 0, 66, 0
2, 197306, Note_on_c, 0, 47, 0
2, 197332, Note_on_c, 0, 35, 77
2, 197399, Control_c, 0, 64, 127
2, 197427, Note_on_c, 0, 42, 80
2, 197429, Note_on_c, 0, 66, 68
2, 197492, Note_on_c, 0, 47, 77
2, 197510, Note_on_c, 0, 61, 83
2, 197591, Note_on_c, 0, 66, 0
2, 197598, Note_on_c, 0, 50, 75
2, 197599, Note_on_c, 0, 66, 79
2, 197675, Note_on_c, 0, 42, 0
2, 197683, Note_on_c, 0, 59, 88
2, 197684, Note_on_c, 0, 42, 76
2, 197684, Note_on_c, 0, 71, 76
2, 197770, Note_on_c, 0, 64, 89
2, 197773, Note_on_c, 0, 48, 68
2, 197856, Note_on_c, 0, 69, 89
2, 197861, Note_on_c, 0, 54, 69
2, 197944, Note_on_c, 0, 57, 75
2, 197947, Note_on_c, 0, 74, 87
2, 198021, Note_on_c, 0, 47, 0
2, 198021, Note_on_c, 0, 64, 0
2, 198025, Note_on_c, 0, 47, 84
2, 198031, Note_on_c, 0, 64, 94
2, 198120, Note_on_c, 0, 54, 0
2, 198122, Note_on_c, 0, 73, 84
2, 198126, Note_on_c, 0, 54, 83
2, 198182, Note_on_c, 0, 74, 0
2, 198193, Note_on_c, 0, 74, 87
2, 198213, Note_on_c, 0, 57, 0
2, 198219, Note_on_c, 0, 57, 79
2, 198285, Note_on_c, 0, 78, 100
2, 198305, Note_on_c, 0, 59, 0
2, 198313, Note_on_c, 0, 59, 62
2, 198323, Note_on_c, 0, 62, 81
2, 198382, Note_on_c, 0, 69, 0
2, 198386, Note_on_c, 0, 69, 90
2, 198412, Note_on_c, 0, 59, 0
2, 198418, Note_on_c, 0, 59, 72
2, 198420, Note_on_c, 0, 47, 0
2, 198425, Note_on_c, 0, 47, 67
2, 198451, Note_on_c, 0, 78, 0
2, 198461, Note_on_c, 0, 78, 106
2, 198528, Note_on_c, 0, 47, 0
2, 198530, Control_c, 0, 64, 0
2, 198531, Note_on_c, 0, 71, 0
2, 198531, Note_on_c, 0, 57, 0
2, 198531, Note_on_c, 0, 62, 0
2, 198531, Note_on_c, 0, 69, 0
2, 198532, Note_on_c, 0, 59, 0
2, 198532, Note_on_c, 0, 42, 0
2, 198532, Note_on_c, 0, 73, 0
2, 198532, Note_on_c, 0, 61, 0
2, 198532, Note_on_c, 0, 50, 0
2, 198532, Note_on_c, 0, 66, 0
2, 198533, Note_on_c, 0, 47, 79
2, 198534, Note_on_c, 0, 35, 0
2, 198536, Note_on_c, 0, 78, 0
2, 198540, Note_on_c, 0, 85, 96
2, 198543, Note_on_c, 0, 48, 0
2, 198551, Note_on_c, 0, 64, 0
2, 198551, Note_on_c, 0, 74, 0
2, 198558, Note_on_c, 0, 54, 0
2, 198604, Control_c, 0, 64, 127
2, 198625, Note_on_c, 0, 86, 109
2, 198627, Note_on_c, 0, 47, 0
2, 198632, Note_on_c, 0, 47, 92
2, 198632, Note_on_c, 0, 35, 94
2, 198759, Control_c, 0, 64, 0
2, 198759, Note_on_c, 0, 35, 0
2, 198760, Note_on_c, 0, 85, 0
2, 198760, Note_on_c, 0, 47, 0
2, 201600, Note_on_c, 0, 86, 0
2, 201600, Control_c, 0, 64, 127
2, 202383, Control_c, 0, 64, 0
2, 203965, Control_c, 0, 64, 127
2, 206254, Control_c, 0, 64, 0
2, 206255, End_track
0, 0, End_of_file
