0, 0, Header, 1, 2, 384
1, 0, Start_track
1, 0, Tempo, 500000
1, 0, Time_signature, 4, 2, 24, 8
1, 1, End_track
2, 0, Start_track
2, 1328, Control_c, 0, 64, 127
2, 1402, Note_on_c, 0, 80, 83
2, 1409, Note_on_c, 0, 76, 81
2, 1410, Note_on_c, 0, 61, 70
2, 1546, Note_on_c, 0, 68, 67
2, 1630, Note_on_c, 0, 75, 75
2, 1866, Note_on_c, 0, 76, 0
2, 1875, Note_on_c, 0, 76, 74
2, 2030, Note_on_c, 0, 78, 92
2, 2278, Note_on_c, 0, 83, 85
2, 2516, Note_on_c, 0, 81, 85
2, 2645, Control_c, 0, 64, 0
2, 2646, Note_on_c, 0, 61, 0
2, 2651, Note_on_c, 0, 78, 0
2, 2652, Note_on_c, 0, 75, 0
2, 2653, Note_on_c, 0, 83, 0
2, 2654, Note_on_c, 0, 68, 0
2, 2657, Note_on_c, 0, 80, 0
2, 2661, Note_on_c, 0, 57, 82
2, 2668, Note_on_c, 0, 80, 76
2, 2672, Note_on_c, 0, 76, 0
2, 2683, Note_on_c, 0, 73, 78
2, 2741, Control_c, 0, 64, 127
2, 2825, Note_on_c, 0, 64, 71
2, 2895, Note_on_c, 0, 73, 0
2, 2899, Note_on_c, 0, 73, 80
2, 2989, Note_on_c, 0, 69, 78
2, 3144, Note_on_c, 0, 76, 83
2, 3299, Note_on_c, 0, 78, 98
2, 3539, Note_on_c, 0, 83, 88
2, 3763, Note_on_c, 0, 81, 0
2, 3772, Note_on_c, 0, 81, 89
2, 3886, Note_on_c, 0, 73, 0
2, 3887, Note_on_c, 0, 64, 0
2, 3887, Note_on_c, 0, 69, 0
2, 3887, Note_on_c, 0, 57, 0
2, 3887, Note_on_c, 0, 78, 0
2, 3887, Note_on_c, 0, 76, 0
2, 3887, Note_on_c, 0, 83, 0
2, 3888, Control_c, 0, 64, 0
2, 3888, Note_on_c, 0, 81, 0
2, 3901, Note_on_c, 0, 80, 0
2, 3912, Note_on_c, 0, 80, 87
2, 3919, Note_on_c, 0, 52, 76
2, 3922, Note_on_c, 0, 71, 82
2, 3993, Control_c, 0, 64, 127
2, 4071, Note_on_c, 0, 59, 81
2, 4131, Note_on_c, 0, 71, 0
2, 4142, Note_on_c, 0, 71, 72
2, 4230, Note_on_c, 0, 64, 78
2, 4385, Note_on_c, 0, 75, 87
2, 4554, Note_on_c, 0, 76, 91
2, 4784, Note_on_c, 0, 52, 0
2, 4795, Note_on_c, 0, 52, 45
2, 4796, Note_on_c, 0, 78, 86
2, 5030, Note_on_c, 0, 80, 0
2, 5039, Note_on_c, 0, 80, 78
2, 5170, Note_on_c, 0, 71, 0
2, 5170, Note_on_c, 0, 64, 0
2, 5171, Note_on_c, 0, 52, 0
2, 5171, Note_on_c, 0, 59, 0
2, 5171, Note_on_c, 0, 78, 0
2, 5171, Note_on_c, 0, 75, 0
2, 5171, Note_on_c, 0, 76, 0
2, 5173, Control_c, 0, 64, 0
2, 5176, Note_on_c, 0, 80, 0
2, 5184, Note_on_c, 0, 80, 84
2, 5196, Note_on_c, 0, 54, 72
2, 5198, Note_on_c, 0, 73, 76
2, 5203, Note_on_c, 0, 70, 80
2, 5260, Control_c, 0, 64, 127
2, 5336, Note_on_c, 0, 61, 70
2, 5419, Note_on_c, 0, 78, 85
2, 5491, Note_on_c, 0, 66, 67
2, 5644, Note_on_c, 0, 73, 0
2, 5648, Note_on_c, 0, 73, 80
2, 5652, Note_on_c, 0, 68, 69
2, 5806, Note_on_c, 0, 70, 0
2, 5809, Note_on_c, 0, 70, 77
2, 6307, Note_on_c, 0, 75, 82
2, 6367, Note_on_c, 0, 76, 85
2, 6409, Control_c, 0, 64, 0
2, 6411, Note_on_c, 0, 68, 0
2, 6412, Note_on_c, 0, 73, 0
2, 6412, Note_on_c, 0, 66, 0
2, 6412, Note_on_c, 0, 80, 0
2, 6413, Note_on_c, 0, 70, 0
2, 6413, Note_on_c, 0, 61, 0
2, 6413, Note_on_c, 0, 54, 0
2, 6415, Note_on_c, 0, 75, 0
2, 6435, Note_on_c, 0, 78, 0
2, 6442, Note_on_c, 0, 78, 94
2, 6443, Note_on_c, 0, 57, 85
2, 6448, Note_on_c, 0, 71, 70
2, 6466, Note_on_c, 0, 76, 0
2, 6585, Note_on_c, 0, 64, 72
2, 6666, Control_c, 0, 64, 127
2, 6745, Note_on_c, 0, 69, 75
2, 6931, Note_on_c, 0, 76, 82
2, 7001, Note_on_c, 0, 75, 85
2, 7065, Note_on_c, 0, 71, 0
2, 7074, Note_on_c, 0, 71, 83
2, 7211, Note_on_c, 0, 64, 0
2, 7219, Note_on_c, 0, 64, 78
2, 7349, Note_on_c, 0, 57, 0
2, 7359, Note_on_c, 0, 57, 78
2, 7526, Note_on_c, 0, 78, 0
2, 7531, Note_on_c, 0, 78, 83
2, 7594, Note_on_c, 0, 80, 80
2, 7653, Note_on_c, 0, 64, 0
2, 7653, Note_on_c, 0, 57, 0
2, 7653, Control_c, 0, 64, 0
2, 7653, Note_on_c, 0, 75, 0
2, 7653, Note_on_c, 0, 69, 0
2, 7654, Note_on_c, 0, 78, 0
2, 7664, Note_on_c, 0, 71, 0
2, 7664, Note_on_c, 0, 76, 0
2, 7667, Note_on_c, 0, 81, 97
2, 7670, Note_on_c, 0, 76, 86
2, 7670, Note_on_c, 0, 52, 82
2, 7675, Note_on_c, 0, 71, 88
2, 7726, Note_on_c, 0, 80, 0
2, 7772, Control_c, 0, 64, 127
2, 7816, Note_on_c, 0, 59, 84
2, 7976, Note_on_c, 0, 64, 81
2, 8137, Note_on_c, 0, 80, 84
2, 8211, Note_on_c, 0, 78, 93
2, 8286, Note_on_c, 0, 80, 0
2, 8291, Note_on_c, 0, 80, 94
2, 8424, Note_on_c, 0, 59, 0
2, 8435, Note_on_c, 0, 59, 79
2, 8570, Note_on_c, 0, 52, 0
2, 8574, Note_on_c, 0, 52, 65
2, 8739, Note_on_c, 0, 80, 0
2, 8745, Note_on_c, 0, 80, 85
2, 8881, Note_on_c, 0, 81, 0
2, 8881, Note_on_c, 0, 71, 0
2, 8881, Note_on_c, 0, 64, 0
2, 8881, Note_on_c, 0, 52, 0
2, 8881, Note_on_c, 0, 78, 0
2, 8881, Note_on_c, 0, 76, 0
2, 8882, Control_c, 0, 64, 0
2, 8882, Note_on_c, 0, 59, 0
2, 8885, Note_on_c, 0, 80, 0
2, 8889, Note_on_c, 0, 80, 90
2, 8913, Note_on_c, 0, 54, 68
2, 8913, Note_on_c, 0, 73, 76
2, 8915, Note_on_c, 0, 70, 72
2, 8993, Control_c, 0, 64, 127
2, 9050, Note_on_c, 0, 61, 72
2, 9153, Note_on_c, 0, 78, 88
2, 9204, Note_on_c, 0, 66, 62
2, 9377, Note_on_c, 0, 73, 0
2, 9382, Note_on_c, 0, 73, 80
2, 9519, Note_on_c, 0, 51, 80
2, 9669, Note_on_c, 0, 73, 0
2, 9673, Note_on_c, 0, 73, 75
2, 9676, Note_on_c, 0, 66, 0
2, 9678, Note_on_c, 0, 58, 75
2, 9680, Note_on_c, 0, 66, 51
2, 9828, Note_on_c, 0, 75, 92
2, 9831, Note_on_c, 0, 63, 79
2, 9981, Note_on_c, 0, 76, 96
2, 10105, Note_on_c, 0, 80, 0
2, 10106, Note_on_c, 0, 58, 0
2, 10106, Note_on_c, 0, 73, 0
2, 10107, Note_on_c, 0, 75, 0
2, 10107, Note_on_c, 0, 66, 0
2, 10107, Note_on_c, 0, 61, 0
2, 10107, Note_on_c, 0, 51, 0
2, 10108, Note_on_c, 0, 63, 0
2, 10108, Note_on_c, 0, 78, 0
2, 10108, Note_on_c, 0, 70, 0
2, 10108, Note_on_c, 0, 54, 0
2, 10109, Control_c, 0, 64, 0
2, 10114, Note_on_c, 0, 76, 0
2, 10123, Note_on_c, 0, 76, 103
2, 10141, Note_on_c, 0, 56, 75
2, 10143, Note_on_c, 0, 72, 84
2, 10191, Control_c, 0, 64, 127
2, 10286, Note_on_c, 0, 63, 79
2, 10362, Note_on_c, 0, 75, 96
2, 10443, Note_on_c, 0, 68, 98
2, 10590, Note_on_c, 0, 76, 0
2, 10595, Note_on_c, 0, 76, 95
2, 10751, Note_on_c, 0, 81, 109
2, 10756, Note_on_c, 0, 69, 104
2, 10890, Note_on_c, 0, 63, 0
2, 10900, Note_on_c, 0, 63, 81
2, 11059, Note_on_c, 0, 56, 0
2, 11059, Note_on_c, 0, 68, 0
2, 11062, Note_on_c, 0, 80, 98
2, 11064, Note_on_c, 0, 68, 98
2, 11068, Note_on_c, 0, 56, 96
2, 11374, Note_on_c, 0, 72, 0
2, 11378, Note_on_c, 0, 76, 0
2, 11379, Control_c, 0, 64, 0
2, 11382, Note_on_c, 0, 75, 0
2, 11384, Note_on_c, 0, 80, 0
2, 11384, Note_on_c, 0, 69, 0
2, 11384, Note_on_c, 0, 81, 0
2, 11384, Note_on_c, 0, 68, 0
2, 11386, Note_on_c, 0, 64, 106
2, 11389, Note_on_c, 0, 56, 0
2, 11399, Note_on_c, 0, 37, 72
2, 11399, Note_on_c, 0, 56, 76
2, 11403, Note_on_c, 0, 61, 72
2, 11412, Note_on_c, 0, 63, 0
2, 11481, Control_c, 0, 64, 127
2, 11540, Note_on_c, 0, 44, 69
2, 11692, Note_on_c, 0, 49, 75
2, 12019, Note_on_c, 0, 37, 0
2, 12025, Note_on_c, 0, 66, 87
2, 12026, Note_on_c, 0, 37, 62
2, 12188, Note_on_c, 0, 44, 0
2, 12192, Note_on_c, 0, 44, 72
2, 12278, Note_on_c, 0, 71, 95
2, 12372, Note_on_c, 0, 49, 0
2, 12378, Note_on_c, 0, 49, 76
2, 12506, Note_on_c, 0, 69, 90
2, 12672, Note_on_c, 0, 64, 0
2, 12673, Note_on_c, 0, 68, 97
2, 12679, Note_on_c, 0, 61, 0
2, 12682, Note_on_c, 0, 64, 82
2, 12684, Note_on_c, 0, 45, 82
2, 12689, Note_on_c, 0, 61, 72
2, 12701, Note_on_c, 0, 49, 0
2, 12701, Note_on_c, 0, 56, 0
2, 12701, Note_on_c, 0, 37, 0
2, 12701, Note_on_c, 0, 69, 0
2, 12702, Note_on_c, 0, 44, 0
2, 12703, Note_on_c, 0, 66, 0
2, 12704, Note_on_c, 0, 71, 0
2, 12704, Control_c, 0, 64, 0
2, 12817, Control_c, 0, 64, 127
2, 12832, Note_on_c, 0, 52, 78
2, 12970, Note_on_c, 0, 57, 91
2, 13125, Note_on_c, 0, 57, 0
2, 13135, Note_on_c, 0, 57, 92
2, 13287, Note_on_c, 0, 66, 87
2, 13409, Note_on_c, 0, 52, 0
2, 13415, Note_on_c, 0, 52, 76
2, 13522, Note_on_c, 0, 71, 87
2, 13585, Note_on_c, 0, 45, 0
2, 13593, Note_on_c, 0, 45, 80
2, 13757, Note_on_c, 0, 69, 88
2, 13880, Note_on_c, 0, 68, 0
2, 13881, Note_on_c, 0, 66, 0
2, 13881, Control_c, 0, 64, 0
2, 13881, Note_on_c, 0, 52, 0
2, 13881, Note_on_c, 0, 71, 0
2, 13882, Note_on_c, 0, 57, 0
2, 13882, Note_on_c, 0, 45, 0
2, 13883, Note_on_c, 0, 69, 0
2, 13900, Note_on_c, 0, 61, 0
2, 13916, Note_on_c, 0, 64, 0
2, 13918, Note_on_c, 0, 68, 93
2, 13925, Note_on_c, 0, 40, 70
2, 13925, Note_on_c, 0, 64, 82
2, 13927, Note_on_c, 0, 59, 83
2, 13977, Control_c, 0, 64, 127
2, 13985, Note_on_c, 0, 40, 0
2, 14063, Note_on_c, 0, 47, 71
2, 14219, Note_on_c, 0, 52, 66
2, 14530, Note_on_c, 0, 68, 0
2, 14538, Note_on_c, 0, 64, 0
2, 14539, Note_on_c, 0, 68, 94
2, 14545, Note_on_c, 0, 52, 0
2, 14549, Note_on_c, 0, 64, 88
2, 14549, Note_on_c, 0, 52, 75
2, 14699, Note_on_c, 0, 47, 0
2, 14710, Note_on_c, 0, 47, 69
2, 14784, Note_on_c, 0, 73, 93
2, 14876, Note_on_c, 0, 52, 0
2, 14881, Note_on_c, 0, 52, 68
2, 15014, Note_on_c, 0, 68, 0
2, 15022, Note_on_c, 0, 68, 85
2, 15139, Note_on_c, 0, 61, 68
2, 15178, Note_on_c, 0, 66, 74
2, 15181, Note_on_c, 0, 47, 0
2, 15182, Note_on_c, 0, 59, 0
2, 15182, Note_on_c, 0, 52, 0
2, 15183, Note_on_c, 0, 68, 0
2, 15184, Note_on_c, 0, 73, 0
2, 15185, Control_c, 0, 64, 0
2, 15185, Note_on_c, 0, 71, 96
2, 15187, Note_on_c, 0, 42, 76
2, 15198, Note_on_c, 0, 64, 0
2, 15267, Control_c, 0, 64, 127
2, 15332, Note_on_c, 0, 49, 64
2, 15410, Note_on_c, 0, 70, 88
2, 15472, Note_on_c, 0, 54, 59
2, 15616, Note_on_c, 0, 56, 70
2, 15636, Note_on_c, 0, 66, 0
2, 15647, Note_on_c, 0, 66, 79
2, 15785, Note_on_c, 0, 58, 74
2, 16074, Note_on_c, 0, 42, 0
2, 16085, Note_on_c, 0, 42, 69
2, 16289, Note_on_c, 0, 61, 0
2, 16299, Note_on_c, 0, 61, 74
2, 16304, Note_on_c, 0, 54, 0
2, 16308, Note_on_c, 0, 54, 50
2, 16353, Note_on_c, 0, 63, 86
2, 16412, Note_on_c, 0, 64, 104
2, 16421, Note_on_c, 0, 45, 78
2, 16447, Note_on_c, 0, 42, 0
2, 16447, Note_on_c, 0, 49, 0
2, 16447, Note_on_c, 0, 58, 0
2, 16447, Note_on_c, 0, 54, 0
2, 16448, Note_on_c, 0, 56, 0
2, 16448, Note_on_c, 0, 61, 0
2, 16449, Note_on_c, 0, 70, 0
2, 16449, Note_on_c, 0, 71, 0
2, 16449, Control_c, 0, 64, 0
2, 16451, Note_on_c, 0, 63, 0
2, 16465, Note_on_c, 0, 66, 0
2, 16550, Control_c, 0, 64, 127
2, 16571, Note_on_c, 0, 52, 69
2, 16657, Note_on_c, 0, 61, 81
2, 16738, Note_on_c, 0, 57, 77
2, 16904, Note_on_c, 0, 68, 93
2, 16917, Note_on_c, 0, 59, 78
2, 17198, Note_on_c, 0, 66, 84
2, 17356, Note_on_c, 0, 59, 0
2, 17356, Note_on_c, 0, 66, 0
2, 17362, Note_on_c, 0, 66, 73
2, 17366, Note_on_c, 0, 59, 82
2, 17502, Note_on_c, 0, 68, 0
2, 17512, Note_on_c, 0, 68, 88
2, 17606, Note_on_c, 0, 66, 0
2, 17606, Note_on_c, 0, 57, 0
2, 17607, Note_on_c, 0, 52, 0
2, 17607, Note_on_c, 0, 68, 0
2, 17607, Note_on_c, 0, 45, 0
2, 17607, Note_on_c, 0, 64, 0
2, 17608, Control_c, 0, 64, 0
2, 17625, Note_on_c, 0, 59, 0
2, 17625, Note_on_c, 0, 61, 0
2, 17668, Note_on_c, 0, 47, 69
2, 17668, Note_on_c, 0, 66, 82
2, 17673, Note_on_c, 0, 54, 74
2, 17674, Note_on_c, 0, 59, 74
2, 17676, Note_on_c, 0, 63, 78
2, 17702, Control_c, 0, 64, 127
2, 18173, Note_on_c, 0, 88, 71
2, 18239, Note_on_c, 0, 87, 67
2, 18264, Note_on_c, 0, 83, 77
2, 18290, Note_on_c, 0, 78, 97
2, 18314, Note_on_c, 0, 71, 74
2, 18316, Note_on_c, 0, 66, 0
2, 18321, Note_on_c, 0, 66, 71
2, 18324, Note_on_c, 0, 63, 0
2, 18328, Note_on_c, 0, 63, 64
2, 18981, Note_on_c, 0, 64, 50
2, 18987, Note_on_c, 0, 45, 60
2, 18991, Control_c, 0, 64, 0
2, 18992, Note_on_c, 0, 64, 0
2, 18995, Note_on_c, 0, 61, 59
2, 18995, Note_on_c, 0, 54, 0
2, 18996, Note_on_c, 0, 63, 0
2, 18996, Note_on_c, 0, 47, 0
2, 18996, Note_on_c, 0, 66, 0
2, 18996, Note_on_c, 0, 87, 0
2, 18996, Note_on_c, 0, 71, 0
2, 18996, Note_on_c, 0, 78, 0
2, 18996, Note_on_c, 0, 83, 0
2, 19008, Note_on_c, 0, 88, 0
2, 19011, Note_on_c, 0, 57, 56
2, 19015, Note_on_c, 0, 59, 0
2, 19069, Control_c, 0, 64, 127
2, 19133, Note_on_c, 0, 33, 62
2, 19284, Note_on_c, 0, 45, 0
2, 19284, Note_on_c, 0, 61, 0
2, 19292, Note_on_c, 0, 33, 0
2, 19292, Note_on_c, 0, 57, 0
2, 19294, Note_on_c, 0, 45, 64
2, 19295, Note_on_c, 0, 61, 67
2, 19297, Note_on_c, 0, 33, 53
2, 19301, Note_on_c, 0, 57, 60
2, 19453, Note_on_c, 0, 45, 0
2, 19462, Note_on_c, 0, 45, 71
2, 19465, Note_on_c, 0, 63, 80
2, 19478, Note_on_c, 0, 59, 75
2, 19614, Note_on_c, 0, 33, 0
2, 19620, Note_on_c, 0, 33, 59
2, 19776, Note_on_c, 0, 45, 0
2, 19776, Note_on_c, 0, 63, 0
2, 19781, Note_on_c, 0, 45, 70
2, 19783, Note_on_c, 0, 63, 80
2, 19799, Note_on_c, 0, 59, 0
2, 19806, Note_on_c, 0, 59, 63
2, 19929, Note_on_c, 0, 61, 0
2, 19937, Note_on_c, 0, 45, 0
2, 19938, Note_on_c, 0, 64, 84
2, 19940, Note_on_c, 0, 61, 78
2, 19941, Note_on_c, 0, 45, 63
2, 20067, Note_on_c, 0, 61, 0
2, 20076, Note_on_c, 0, 61, 79
2, 20083, Note_on_c, 0, 45, 0
2, 20093, Note_on_c, 0, 45, 69
2, 20167, Note_on_c, 0, 33, 0
2, 20173, Note_on_c, 0, 33, 42
2, 20221, Note_on_c, 0, 64, 0
2, 20229, Note_on_c, 0, 45, 0
2, 20229, Note_on_c, 0, 61, 0
2, 20231, Note_on_c, 0, 64, 98
2, 20238, Note_on_c, 0, 61, 82
2, 20239, Note_on_c, 0, 45, 81
2, 20271, Note_on_c, 0, 63, 0
2, 20273, Note_on_c, 0, 57, 0
2, 20375, Note_on_c, 0, 33, 0
2, 20379, Note_on_c, 0, 33, 86
2, 20451, Note_on_c, 0, 45, 0
2, 20455, Note_on_c, 0, 45, 85
2, 20551, Note_on_c, 0, 33, 0
2, 20551, Note_on_c, 0, 59, 0
2, 20551, Note_on_c, 0, 64, 0
2, 20553, Note_on_c, 0, 68, 102
2, 20561, Note_on_c, 0, 59, 89
2, 20561, Note_on_c, 0, 64, 90
2, 20563, Note_on_c, 0, 33, 83
2, 20697, Note_on_c, 0, 33, 0
2, 20706, Note_on_c, 0, 33, 81
2, 20858, Note_on_c, 0, 59, 0
2, 20858, Note_on_c, 0, 64, 0
2, 20861, Note_on_c, 0, 69, 100
2, 20865, Note_on_c, 0, 59, 98
2, 20868, Note_on_c, 0, 64, 95
2, 21004, Note_on_c, 0, 33, 0
2, 21004, Note_on_c, 0, 45, 0
2, 21011, Note_on_c, 0, 33, 79
2, 21016, Note_on_c, 0, 45, 78
2, 21181, Note_on_c, 0, 45, 0
2, 21181, Note_on_c, 0, 59, 0
2, 21181, Note_on_c, 0, 64, 0
2, 21182, Note_on_c, 0, 71, 105
2, 21187, Note_on_c, 0, 64, 90
2, 21190, Note_on_c, 0, 45, 82
2, 21191, Note_on_c, 0, 59, 89
2, 21319, Note_on_c, 0, 33, 0
2, 21325, Note_on_c, 0, 33, 72
2, 21430, Note_on_c, 0, 33, 0
2, 21430, Note_on_c, 0, 68, 0
2, 21430, Control_c, 0, 64, 0
2, 21431, Note_on_c, 0, 69, 0
2, 21431, Note_on_c, 0, 71, 0
2, 21431, Note_on_c, 0, 64, 0
2, 21442, Note_on_c, 0, 45, 0
2, 21442, Note_on_c, 0, 61, 0
2, 21450, Note_on_c, 0, 59, 0
2, 21492, Note_on_c, 0, 71, 100
2, 21493, Note_on_c, 0, 47, 97
2, 21493, Note_on_c, 0, 59, 92
2, 21493, Note_on_c, 0, 35, 90
2, 21495, Note_on_c, 0, 63, 93
2, 21497, Note_on_c, 0, 66, 90
2, 21534, Control_c, 0, 64, 127
2, 21657, Note_on_c, 0, 47, 0
2, 21664, Note_on_c, 0, 47, 69
2, 21803, Note_on_c, 0, 47, 0
2, 21807, Note_on_c, 0, 47, 77
2, 21811, Note_on_c, 0, 35, 0
2, 21815, Note_on_c, 0, 35, 70
2, 21972, Note_on_c, 0, 35, 0
2, 21972, Note_on_c, 0, 47, 0
2, 21972, Note_on_c, 0, 59, 0
2, 21972, Note_on_c, 0, 63, 0
2, 21972, Note_on_c, 0, 66, 0
2, 21976, Note_on_c, 0, 35, 83
2, 21978, Note_on_c, 0, 47, 84
2, 21979, Note_on_c, 0, 66, 77
2, 21982, Note_on_c, 0, 63, 75
2, 21983, Note_on_c, 0, 59, 72
2, 22126, Note_on_c, 0, 47, 0
2, 22136, Note_on_c, 0, 47, 67
2, 22287, Note_on_c, 0, 35, 0
2, 22287, Note_on_c, 0, 47, 0
2, 22291, Note_on_c, 0, 47, 79
2, 22297, Note_on_c, 0, 75, 84
2, 22298, Note_on_c, 0, 35, 68
2, 22448, Note_on_c, 0, 47, 0
2, 22451, Note_on_c, 0, 78, 100
2, 22452, Note_on_c, 0, 47, 91
2, 22594, Note_on_c, 0, 75, 0
2, 22602, Note_on_c, 0, 35, 0
2, 22603, Note_on_c, 0, 75, 98
2, 22606, Note_on_c, 0, 35, 83
2, 22763, Note_on_c, 0, 47, 0
2, 22763, Note_on_c, 0, 75, 0
2, 22763, Note_on_c, 0, 78, 0
2, 22765, Note_on_c, 0, 83, 105
2, 22769, Note_on_c, 0, 75, 103
2, 22769, Note_on_c, 0, 78, 101
2, 22774, Note_on_c, 0, 47, 94
2, 23147, Note_on_c, 0, 47, 0
2, 23153, Note_on_c, 0, 47, 64
2, 23247, Note_on_c, 0, 47, 0
2, 23252, Note_on_c, 0, 47, 64
2, 23393, Note_on_c, 0, 63, 0
2, 23397, Note_on_c, 0, 63, 77
2, 23431, Note_on_c, 0, 59, 0
2, 23435, Note_on_c, 0, 59, 91
2, 23489, Note_on_c, 0, 64, 85
2, 23562, Note_on_c, 0, 66, 0
2, 23566, Note_on_c, 0, 66, 80
2, 23641, Note_on_c, 0, 68, 89
2, 23704, Note_on_c, 0, 69, 89
2, 23761, Note_on_c, 0, 71, 0
2, 23772, Note_on_c, 0, 71, 91
2, 23854, Note_on_c, 0, 73, 86
2, 23915, Note_on_c, 0, 75, 0
2, 23924, Note_on_c, 0, 75, 87
2, 24013, Note_on_c, 0, 78, 0
2, 24013, Note_on_c, 0, 71, 0
2, 24014, Note_on_c, 0, 63, 0
2, 24014, Note_on_c, 0, 64, 0
2, 24014, Note_on_c, 0, 75, 0
2, 24014, Note_on_c, 0, 59, 0
2, 24015, Note_on_c, 0, 66, 0
2, 24015, Note_on_c, 0, 73, 0
2, 24015, Note_on_c, 0, 68, 0
2, 24016, Note_on_c, 0, 69, 0
2, 24017, Control_c, 0, 64, 0
2, 24030, Note_on_c, 0, 47, 0
2, 24030, Note_on_c, 0, 83, 0
2, 24038, Note_on_c, 0, 35, 0
2, 24074, Note_on_c, 0, 76, 72
2, 24087, Note_on_c, 0, 73, 68
2, 24102, Note_on_c, 0, 68, 59
2, 24106, Note_on_c, 0, 61, 57
2, 24199, Control_c, 0, 64, 127
2, 24327, Note_on_c, 0, 75, 67
2, 24576, Note_on_c, 0, 68, 0
2, 24580, Note_on_c, 0, 68, 69
2, 24890, Note_on_c, 0, 68, 0
2, 24898, Note_on_c, 0, 61, 0
2, 24898, Note_on_c, 0, 73, 0
2, 24899, Note_on_c, 0, 75, 0
2, 24900, Note_on_c, 0, 76, 0
2, 24900, Note_on_c, 0, 68, 53
2, 24902, Note_on_c, 0, 73, 71
2, 24909, Control_c, 0, 64, 0
2, 25021, Control_c, 0, 64, 127
2, 25057, Note_on_c, 0, 75, 68
2, 25200, Note_on_c, 0, 76, 70
2, 25359, Note_on_c, 0, 76, 0
2, 25366, Note_on_c, 0, 57, 61
2, 25366, Note_on_c, 0, 76, 74
2, 25368, Note_on_c, 0, 64, 60
2, 25370, Note_on_c, 0, 69, 64
2, 25402, Note_on_c, 0, 73, 0
2, 25402, Note_on_c, 0, 68, 0
2, 25403, Note_on_c, 0, 75, 0
2, 25406, Control_c, 0, 64, 0
2, 25497, Control_c, 0, 64, 127
2, 25608, Note_on_c, 0, 75, 63
2, 25850, Note_on_c, 0, 64, 0
2, 25861, Note_on_c, 0, 64, 60
2, 25889, Note_on_c, 0, 57, 0
2, 25900, Note_on_c, 0, 57, 34
2, 26162, Note_on_c, 0, 71, 67
2, 26304, Note_on_c, 0, 75, 0
2, 26315, Note_on_c, 0, 75, 74
2, 26457, Note_on_c, 0, 76, 0
2, 26467, Note_on_c, 0, 76, 72
2, 26618, Note_on_c, 0, 76, 0
2, 26626, Note_on_c, 0, 64, 0
2, 26629, Note_on_c, 0, 76, 77
2, 26630, Note_on_c, 0, 68, 68
2, 26631, Note_on_c, 0, 59, 62
2, 26631, Note_on_c, 0, 64, 64
2, 26631, Note_on_c, 0, 52, 56
2, 26638, Control_c, 0, 64, 0
2, 26653, Note_on_c, 0, 57, 0
2, 26653, Note_on_c, 0, 71, 0
2, 26656, Note_on_c, 0, 69, 0
2, 26672, Note_on_c, 0, 75, 0
2, 26726, Control_c, 0, 64, 127
2, 26864, Note_on_c, 0, 68, 0
2, 26867, Note_on_c, 0, 75, 67
2, 26872, Note_on_c, 0, 68, 46
2, 27110, Note_on_c, 0, 68, 0
2, 27114, Note_on_c, 0, 68, 64
2, 27406, Note_on_c, 0, 73, 73
2, 27548, Note_on_c, 0, 75, 0
2, 27558, Note_on_c, 0, 75, 80
2, 27701, Note_on_c, 0, 76, 0
2, 27713, Note_on_c, 0, 76, 83
2, 27844, Note_on_c, 0, 73, 0
2, 27844, Note_on_c, 0, 68, 0
2, 27844, Note_on_c, 0, 75, 0
2, 27844, Note_on_c, 0, 52, 0
2, 27845, Note_on_c, 0, 59, 0
2, 27850, Control_c, 0, 64, 0
2, 27855, Note_on_c, 0, 76, 0
2, 27863, Note_on_c, 0, 64, 0
2, 27865, Note_on_c, 0, 66, 83
2, 27865, Note_on_c, 0, 76, 87
2, 27866, Note_on_c, 0, 54, 77
2, 27871, Note_on_c, 0, 61, 78
2, 27874, Note_on_c, 0, 71, 74
2, 27924, Control_c, 0, 64, 127
2, 28114, Note_on_c, 0, 75, 86
2, 28354, Note_on_c, 0, 66, 0
2, 28359, Note_on_c, 0, 66, 75
2, 28488, Note_on_c, 0, 32, 80
2, 28489, Note_on_c, 0, 44, 74
2, 28554, Note_on_c, 0, 32, 0
2, 28554, Note_on_c, 0, 44, 0
2, 28558, Note_on_c, 0, 44, 87
2, 28560, Note_on_c, 0, 32, 73
2, 28615, Note_on_c, 0, 32, 0
2, 28623, Note_on_c, 0, 32, 92
2, 28652, Note_on_c, 0, 73, 100
2, 28653, Note_on_c, 0, 85, 101
2, 28707, Note_on_c, 0, 44, 0
2, 28712, Note_on_c, 0, 44, 93
2, 28800, Note_on_c, 0, 32, 0
2, 28800, Note_on_c, 0, 44, 0
2, 28800, Note_on_c, 0, 75, 0
2, 28805, Note_on_c, 0, 87, 109
2, 28805, Note_on_c, 0, 32, 96
2, 28806, Note_on_c, 0, 75, 105
2, 28807, Note_on_c, 0, 44, 96
2, 28945, Note_on_c, 0, 76, 0
2, 28956, Note_on_c, 0, 88, 108
2, 28956, Note_on_c, 0, 76, 109
2, 28957, Note_on_c, 0, 71, 0
2, 28958, Note_on_c, 0, 66, 0
2, 28959, Note_on_c, 0, 54, 0
2, 28960, Note_on_c, 0, 75, 0
2, 28960, Note_on_c, 0, 61, 0
2, 28960, Note_on_c, 0, 73, 0
2, 28960, Note_on_c, 0, 44, 0
2, 28961, Note_on_c, 0, 32, 0
2, 28962, Note_on_c, 0, 85, 0
2, 28964, Note_on_c, 0, 87, 0
2, 28965, Control_c, 0, 64, 0
2, 29030, Note_on_c, 0, 76, 0
2, 29038, Note_on_c, 0, 88, 0
2, 29123, Note_on_c, 0, 88, 107
2, 29123, Note_on_c, 0, 80, 99
2, 29125, Note_on_c, 0, 37, 106
2, 29126, Note_on_c, 0, 76, 112
2, 29126, Note_on_c, 0, 25, 100
2, 29129, Note_on_c, 0, 85, 99
2, 29145, Control_c, 0, 64, 127
2, 29367, Note_on_c, 0, 75, 98
2, 29370, Note_on_c, 0, 87, 91
2, 29533, Note_on_c, 0, 52, 80
2, 29537, Note_on_c, 0, 64, 73
2, 29614, Note_on_c, 0, 64, 0
2, 29614, Note_on_c, 0, 76, 0
2, 29614, Note_on_c, 0, 80, 0
2, 29614, Note_on_c, 0, 88, 0
2, 29621, Note_on_c, 0, 85, 0
2, 29622, Note_on_c, 0, 80, 102
2, 29622, Note_on_c, 0, 88, 109
2, 29623, Note_on_c, 0, 76, 110
2, 29623, Note_on_c, 0, 64, 104
2, 29625, Note_on_c, 0, 61, 97
2, 29626, Note_on_c, 0, 85, 91
2, 29628, Note_on_c, 0, 56, 95
2, 29928, Note_on_c, 0, 64, 0
2, 29929, Note_on_c, 0, 83, 107
2, 29932, Note_on_c, 0, 71, 98
2, 29936, Note_on_c, 0, 52, 0
2, 29937, Note_on_c, 0, 64, 85
2, 29945, Note_on_c, 0, 52, 95
2, 30074, Note_on_c, 0, 56, 0
2, 30074, Note_on_c, 0, 61, 0
2, 30074, Note_on_c, 0, 64, 0
2, 30079, Note_on_c, 0, 64, 107
2, 30080, Note_on_c, 0, 61, 101
2, 30082, Note_on_c, 0, 75, 0
2, 30082, Note_on_c, 0, 87, 0
2, 30085, Note_on_c, 0, 56, 92
2, 30089, Note_on_c, 0, 87, 102
2, 30090, Note_on_c, 0, 75, 101
2, 30236, Note_on_c, 0, 76, 0
2, 30236, Note_on_c, 0, 88, 0
2, 30240, Note_on_c, 0, 88, 104
2, 30241, Note_on_c, 0, 76, 104
2, 30246, Note_on_c, 0, 71, 0
2, 30247, Note_on_c, 0, 75, 0
2, 30247, Note_on_c, 0, 37, 0
2, 30247, Note_on_c, 0, 61, 0
2, 30247, Note_on_c, 0, 64, 0
2, 30247, Control_c, 0, 64, 0
2, 30247, Note_on_c, 0, 52, 0
2, 30247, Note_on_c, 0, 80, 0
2, 30247, Note_on_c, 0, 85, 0
2, 30247, Note_on_c, 0, 83, 0
2, 30247, Note_on_c, 0, 87, 0
2, 30251, Note_on_c, 0, 25, 0
2, 30266, Note_on_c, 0, 56, 0
2, 30282, Note_on_c, 0, 76, 0
2, 30305, Note_on_c, 0, 88, 0
2, 30392, Note_on_c, 0, 45, 115
2, 30393, Note_on_c, 0, 33, 107
2, 30393, Note_on_c, 0, 88, 107
2, 30393, Note_on_c, 0, 81, 98
2, 30394, Note_on_c, 0, 76, 109
2, 30395, Note_on_c, 0, 85, 104
2, 30420, Control_c, 0, 64, 127
2, 30639, Note_on_c, 0, 75, 95
2, 30639, Note_on_c, 0, 87, 96
2, 30783, Note_on_c, 0, 52, 78
2, 30873, Note_on_c, 0, 88, 0
2, 30881, Note_on_c, 0, 76, 0
2, 30881, Note_on_c, 0, 81, 0
2, 30881, Note_on_c, 0, 85, 0
2, 30883, Note_on_c, 0, 88, 109
2, 30885, Note_on_c, 0, 64, 101
2, 30886, Note_on_c, 0, 76, 111
2, 30887, Note_on_c, 0, 81, 102
2, 30891, Note_on_c, 0, 85, 100
2, 30893, Note_on_c, 0, 61, 100
2, 30893, Note_on_c, 0, 57, 96
2, 31180, Note_on_c, 0, 52, 0
2, 31185, Note_on_c, 0, 83, 102
2, 31185, Note_on_c, 0, 71, 95
2, 31190, Note_on_c, 0, 52, 93
2, 31334, Note_on_c, 0, 52, 0
2, 31334, Note_on_c, 0, 64, 0
2, 31334, Note_on_c, 0, 75, 0
2, 31342, Note_on_c, 0, 57, 0
2, 31342, Note_on_c, 0, 61, 0
2, 31342, Note_on_c, 0, 85, 0
2, 31342, Note_on_c, 0, 87, 0
2, 31343, Note_on_c, 0, 64, 102
2, 31345, Note_on_c, 0, 52, 83
2, 31345, Note_on_c, 0, 75, 105
2, 31346, Note_on_c, 0, 61, 95
2, 31346, Note_on_c, 0, 87, 98
2, 31350, Note_on_c, 0, 57, 89
2, 31353, Note_on_c, 0, 85, 90
2, 31495, Note_on_c, 0, 76, 0
2, 31495, Note_on_c, 0, 88, 0
2, 31500, Note_on_c, 0, 88, 102
2, 31501, Note_on_c, 0, 76, 107
2, 31539, Note_on_c, 0, 52, 0
2, 31540, Note_on_c, 0, 75, 0
2, 31540, Note_on_c, 0, 64, 0
2, 31540, Note_on_c, 0, 61, 0
2, 31540, Note_on_c, 0, 87, 0
2, 31540, Note_on_c, 0, 33, 0
2, 31540, Note_on_c, 0, 88, 0
2, 31541, Note_on_c, 0, 76, 0
2, 31541, Note_on_c, 0, 71, 0
2, 31541, Note_on_c, 0, 57, 0
2, 31541, Note_on_c, 0, 85, 0
2, 31542, Note_on_c, 0, 83, 0
2, 31542, Control_c, 0, 64, 0
2, 31542, Note_on_c, 0, 81, 0
2, 31564, Note_on_c, 0, 45, 0
2, 31661, Note_on_c, 0, 40, 104
2, 31662, Note_on_c, 0, 28, 107
2, 31666, Note_on_c, 0, 88, 107
2, 31667, Note_on_c, 0, 76, 112
2, 31668, Note_on_c, 0, 80, 99
2, 31672, Control_c, 0, 64, 127
2, 31895, Note_on_c, 0, 87, 90
2, 31898, Note_on_c, 0, 75, 94
2, 32051, Note_on_c, 0, 52, 74
2, 32140, Note_on_c, 0, 76, 0
2, 32140, Note_on_c, 0, 80, 0
2, 32140, Note_on_c, 0, 88, 0
2, 32146, Note_on_c, 0, 88, 108
2, 32146, Note_on_c, 0, 80, 106
2, 32146, Note_on_c, 0, 64, 105
2, 32146, Note_on_c, 0, 76, 111
2, 32152, Note_on_c, 0, 59, 100
2, 32154, Note_on_c, 0, 56, 98
2, 32204, Note_on_c, 0, 87, 0
2, 32443, Note_on_c, 0, 83, 108
2, 32445, Note_on_c, 0, 71, 102
2, 32448, Note_on_c, 0, 52, 0
2, 32454, Note_on_c, 0, 52, 93
2, 32593, Note_on_c, 0, 56, 0
2, 32593, Note_on_c, 0, 64, 0
2, 32593, Note_on_c, 0, 75, 0
2, 32600, Note_on_c, 0, 56, 104
2, 32601, Note_on_c, 0, 64, 94
2, 32602, Note_on_c, 0, 87, 102
2, 32603, Note_on_c, 0, 75, 107
2, 32739, Note_on_c, 0, 76, 0
2, 32739, Note_on_c, 0, 88, 0
2, 32746, Note_on_c, 0, 88, 110
2, 32749, Note_on_c, 0, 76, 110
2, 32820, Control_c, 0, 64, 0
2, 32823, Note_on_c, 0, 87, 0
2, 32823, Note_on_c, 0, 56, 0
2, 32823, Note_on_c, 0, 83, 0
2, 32823, Note_on_c, 0, 71, 0
2, 32824, Note_on_c, 0, 64, 0
2, 32824, Note_on_c, 0, 75, 0
2, 32825, Note_on_c, 0, 59, 0
2, 32825, Note_on_c, 0, 76, 0
2, 32825, Note_on_c, 0, 88, 0
2, 32832, Note_on_c, 0, 28, 0
2, 32832, Note_on_c, 0, 40, 0
2, 32839, Note_on_c, 0, 80, 0
2, 32847, Note_on_c, 0, 52, 0
2, 32895, Note_on_c, 0, 39, 93
2, 32895, Note_on_c, 0, 27, 95
2, 32896, Note_on_c, 0, 32, 84
2, 32897, Note_on_c, 0, 92, 116
2, 32902, Note_on_c, 0, 80, 104
2, 32925, Note_on_c, 0, 90, 51
2, 32931, Control_c, 0, 64, 127
2, 33142, Note_on_c, 0, 93, 113
2, 33143, Note_on_c, 0, 51, 99
2, 33143, Note_on_c, 0, 81, 105
2, 33332, Control_c, 0, 64, 0
2, 33361, Note_on_c, 0, 90, 0
2, 33369, Note_on_c, 0, 90, 113
2, 33372, Note_on_c, 0, 78, 114
2, 33374, Note_on_c, 0, 63, 103
2, 33375, Note_on_c, 0, 83, 92
2, 33377, Note_on_c, 0, 87, 99
2, 33382, Note_on_c, 0, 59, 99
2, 33387, Note_on_c, 0, 54, 99
2, 33392, Control_c, 0, 64, 127
2, 33682, Note_on_c, 0, 88, 107
2, 33683, Note_on_c, 0, 76, 110
2, 33684, Note_on_c, 0, 39, 0
2, 33684, Note_on_c, 0, 51, 0
2, 33693, Note_on_c, 0, 39, 79
2, 33693, Note_on_c, 0, 51, 84
2, 33705, Note_on_c, 0, 85, 70
2, 33830, Note_on_c, 0, 88, 0
2, 33838, Note_on_c, 0, 76, 0
2, 33840, Note_on_c, 0, 88, 111
2, 33842, Note_on_c, 0, 76, 110
2, 33845, Note_on_c, 0, 27, 0
2, 33852, Note_on_c, 0, 87, 0
2, 33857, Note_on_c, 0, 27, 90
2, 34154, Control_c, 0, 64, 0
2, 34158, Note_on_c, 0, 54, 0
2, 34158, Note_on_c, 0, 81, 0
2, 34160, Note_on_c, 0, 51, 0
2, 34160, Note_on_c, 0, 63, 0
2, 34160, Note_on_c, 0, 83, 0
2, 34161, Note_on_c, 0, 90, 0
2, 34161, Note_on_c, 0, 88, 0
2, 34162, Note_on_c, 0, 78, 0
2, 34162, Note_on_c, 0, 80, 0
2, 34163, Note_on_c, 0, 76, 0
2, 34166, Note_on_c, 0, 64, 111
2, 34168, Note_on_c, 0, 27, 0
2, 34168, Note_on_c, 0, 32, 0
2, 34168, Note_on_c, 0, 59, 0
2, 34168, Note_on_c, 0, 85, 0
2, 34168, Note_on_c, 0, 92, 0
2, 34168, Note_on_c, 0, 93, 0
2, 34172, Note_on_c, 0, 59, 105
2, 34176, Note_on_c, 0, 39, 0
2, 34411, Note_on_c, 0, 63, 98
2, 34440, Note_on_c, 0, 64, 0
2, 34442, Note_on_c, 0, 59, 0
2, 34450, Note_on_c, 0, 63, 0
2, 34501, Note_on_c, 0, 37, 91
2, 34661, Note_on_c, 0, 66, 108
2, 34665, Note_on_c, 0, 52, 98
2, 34670, Note_on_c, 0, 44, 90
2, 34670, Note_on_c, 0, 49, 93
2, 34671, Note_on_c, 0, 59, 93
2, 34690, Control_c, 0, 64, 127
2, 34959, Note_on_c, 0, 37, 0
2, 34959, Note_on_c, 0, 49, 0
2, 34961, Note_on_c, 0, 64, 92
2, 34963, Note_on_c, 0, 37, 83
2, 34965, Note_on_c, 0, 49, 81
2, 35105, Note_on_c, 0, 44, 0
2, 35105, Note_on_c, 0, 49, 0
2, 35112, Note_on_c, 0, 63, 95
2, 35112, Note_on_c, 0, 52, 0
2, 35113, Note_on_c, 0, 49, 88
2, 35116, Note_on_c, 0, 44, 81
2, 35117, Note_on_c, 0, 52, 80
2, 35131, Control_c, 0, 64, 0
2, 35138, Note_on_c, 0, 59, 0
2, 35140, Note_on_c, 0, 37, 0
2, 35142, Note_on_c, 0, 66, 0
2, 35147, Note_on_c, 0, 44, 0
2, 35148, Note_on_c, 0, 49, 0
2, 35155, Note_on_c, 0, 63, 0
2, 35166, Note_on_c, 0, 64, 0
2, 35174, Note_on_c, 0, 52, 0
2, 35264, Note_on_c, 0, 64, 102
2, 35347, Note_on_c, 0, 59, 94
2, 35349, Note_on_c, 0, 57, 99
2, 35389, Control_c, 0, 64, 127
2, 35436, Note_on_c, 0, 45, 85
2, 35437, Note_on_c, 0, 33, 85
2, 35437, Note_on_c, 0, 40, 90
2, 35581, Note_on_c, 0, 45, 0
2, 35589, Note_on_c, 0, 33, 0
2, 35592, Note_on_c, 0, 45, 69
2, 35598, Note_on_c, 0, 33, 65
2, 35673, Note_on_c, 0, 40, 0
2, 35681, Note_on_c, 0, 33, 0
2, 35684, Note_on_c, 0, 40, 62
2, 35689, Note_on_c, 0, 33, 75
2, 35758, Note_on_c, 0, 33, 0
2, 35761, Note_on_c, 0, 33, 76
2, 35904, Note_on_c, 0, 45, 0
2, 35904, Note_on_c, 0, 57, 0
2, 35911, Note_on_c, 0, 33, 0
2, 35911, Note_on_c, 0, 40, 0
2, 35912, Note_on_c, 0, 45, 87
2, 35913, Note_on_c, 0, 57, 87
2, 35915, Control_c, 0, 64, 0
2, 35919, Note_on_c, 0, 59, 0
2, 35919, Note_on_c, 0, 64, 0
2, 35920, Note_on_c, 0, 33, 82
2, 35923, Note_on_c, 0, 40, 75
2, 35923, Note_on_c, 0, 52, 79
2, 36003, Control_c, 0, 64, 127
2, 36072, Note_on_c, 0, 33, 0
2, 36072, Note_on_c, 0, 45, 0
2, 36078, Note_on_c, 0, 45, 74
2, 36081, Note_on_c, 0, 33, 74
2, 36218, Note_on_c, 0, 33, 0
2, 36221, Note_on_c, 0, 56, 86
2, 36223, Note_on_c, 0, 33, 68
2, 36380, Note_on_c, 0, 33, 0
2, 36380, Note_on_c, 0, 40, 0
2, 36380, Note_on_c, 0, 52, 0
2, 36387, Note_on_c, 0, 45, 0
2, 36390, Note_on_c, 0, 40, 83
2, 36391, Note_on_c, 0, 33, 88
2, 36391, Note_on_c, 0, 52, 85
2, 36397, Note_on_c, 0, 45, 83
2, 36541, Note_on_c, 0, 52, 0
2, 36548, Note_on_c, 0, 32, 79
2, 36550, Note_on_c, 0, 44, 75
2, 36552, Note_on_c, 0, 33, 0
2, 36552, Note_on_c, 0, 52, 79
2, 36556, Note_on_c, 0, 44, 0
2, 36557, Note_on_c, 0, 45, 0
2, 36560, Note_on_c, 0, 61, 87
2, 36630, Note_on_c, 0, 63, 85
2, 36637, Note_on_c, 0, 56, 0
2, 36639, Note_on_c, 0, 40, 0
2, 36640, Note_on_c, 0, 57, 0
2, 36641, Note_on_c, 0, 32, 0
2, 36643, Control_c, 0, 64, 0
2, 36645, Note_on_c, 0, 61, 0
2, 36664, Note_on_c, 0, 52, 0
2, 36691, Note_on_c, 0, 64, 107
2, 36705, Note_on_c, 0, 59, 100
2, 36710, Note_on_c, 0, 35, 88
2, 36713, Note_on_c, 0, 47, 96
2, 36714, Note_on_c, 0, 42, 78
2, 36733, Control_c, 0, 64, 127
2, 36948, Note_on_c, 0, 42, 0
2, 36948, Note_on_c, 0, 63, 0
2, 36955, Note_on_c, 0, 42, 71
2, 36956, Note_on_c, 0, 63, 85
2, 37025, Note_on_c, 0, 35, 0
2, 37035, Note_on_c, 0, 64, 0
2, 37036, Note_on_c, 0, 35, 81
2, 37036, Note_on_c, 0, 63, 0
2, 37037, Note_on_c, 0, 59, 0
2, 37037, Note_on_c, 0, 42, 0
2, 37038, Control_c, 0, 64, 0
2, 37039, Note_on_c, 0, 47, 0
2, 37102, Note_on_c, 0, 35, 0
2, 37184, Note_on_c, 0, 66, 101
2, 37190, Note_on_c, 0, 63, 95
2, 37191, Note_on_c, 0, 42, 87
2, 37193, Note_on_c, 0, 59, 94
2, 37196, Note_on_c, 0, 47, 92
2, 37199, Note_on_c, 0, 35, 84
2, 37224, Control_c, 0, 64, 127
2, 37332, Note_on_c, 0, 35, 0
2, 37343, Note_on_c, 0, 35, 78
2, 37478, Note_on_c, 0, 35, 0
2, 37478, Note_on_c, 0, 47, 0
2, 37481, Note_on_c, 0, 64, 98
2, 37483, Note_on_c, 0, 47, 72
2, 37487, Note_on_c, 0, 35, 72
2, 37639, Note_on_c, 0, 42, 0
2, 37639, Note_on_c, 0, 63, 0
2, 37644, Note_on_c, 0, 63, 88
2, 37645, Note_on_c, 0, 42, 90
2, 37647, Note_on_c, 0, 35, 0
2, 37647, Note_on_c, 0, 47, 0
2, 37647, Note_on_c, 0, 59, 0
2, 37651, Note_on_c, 0, 59, 81
2, 37651, Note_on_c, 0, 47, 89
2, 37652, Note_on_c, 0, 35, 87
2, 37793, Note_on_c, 0, 64, 0
2, 37800, Note_on_c, 0, 35, 0
2, 37804, Note_on_c, 0, 64, 103
2, 37808, Note_on_c, 0, 42, 0
2, 37808, Note_on_c, 0, 47, 0
2, 37808, Note_on_c, 0, 59, 0
2, 37812, Note_on_c, 0, 35, 83
2, 37812, Note_on_c, 0, 47, 84
2, 37813, Note_on_c, 0, 42, 86
2, 37817, Note_on_c, 0, 59, 72
2, 37889, Note_on_c, 0, 63, 0
2, 37890, Note_on_c, 0, 66, 0
2, 37891, Control_c, 0, 64, 0
2, 37894, Note_on_c, 0, 42, 0
2, 37896, Note_on_c, 0, 59, 0
2, 37908, Note_on_c, 0, 64, 0
2, 37916, Note_on_c, 0, 35, 0
2, 37916, Note_on_c, 0, 47, 0
2, 37979, Note_on_c, 0, 68, 111
2, 37980, Note_on_c, 0, 49, 107
2, 37981, Note_on_c, 0, 37, 101
2, 37981, Note_on_c, 0, 64, 96
2, 37984, Note_on_c, 0, 44, 90
2, 37985, Note_on_c, 0, 59, 98
2, 38050, Note_on_c, 0, 44, 0
2, 38050, Note_on_c, 0, 49, 0
2, 38050, Note_on_c, 0, 37, 0
2, 38050, Note_on_c, 0, 59, 0
2, 38055, Note_on_c, 0, 64, 0
2, 38060, Note_on_c, 0, 68, 0
2, 38152, Note_on_c, 0, 49, 73
2, 38155, Note_on_c, 0, 37, 72
2, 38161, Note_on_c, 0, 49, 0
2, 38222, Note_on_c, 0, 69, 107
2, 38231, Note_on_c, 0, 37, 0
2, 38235, Note_on_c, 0, 59, 99
2, 38236, Note_on_c, 0, 37, 88
2, 38237, Note_on_c, 0, 49, 94
2, 38238, Note_on_c, 0, 44, 79
2, 38242, Note_on_c, 0, 66, 76
2, 38312, Note_on_c, 0, 69, 0
2, 38315, Note_on_c, 0, 49, 0
2, 38315, Note_on_c, 0, 59, 0
2, 38323, Note_on_c, 0, 37, 0
2, 38323, Note_on_c, 0, 44, 0
2, 38330, Note_on_c, 0, 66, 0
2, 38369, Note_on_c, 0, 37, 92
2, 38446, Note_on_c, 0, 37, 0
2, 38454, Note_on_c, 0, 66, 104
2, 38456, Note_on_c, 0, 44, 91
2, 38457, Note_on_c, 0, 37, 87
2, 38457, Note_on_c, 0, 71, 71
2, 38458, Note_on_c, 0, 49, 92
2, 38463, Note_on_c, 0, 59, 98
2, 38484, Control_c, 0, 64, 127
2, 38722, Note_on_c, 0, 44, 0
2, 38733, Note_on_c, 0, 44, 79
2, 38737, Note_on_c, 0, 64, 103
2, 38906, Note_on_c, 0, 59, 0
2, 38916, Note_on_c, 0, 59, 102
2, 38918, Note_on_c, 0, 57, 97
2, 38925, Note_on_c, 0, 55, 94
2, 38938, Note_on_c, 0, 65, 73
2, 38940, Note_on_c, 0, 53, 88
2, 38941, Note_on_c, 0, 52, 90
2, 38983, Note_on_c, 0, 49, 0
2, 38987, Note_on_c, 0, 49, 78
2, 38990, Note_on_c, 0, 48, 79
2, 38991, Note_on_c, 0, 44, 0
2, 38991, Note_on_c, 0, 50, 81
2, 38995, Note_on_c, 0, 47, 73
2, 38996, Note_on_c, 0, 44, 77
2, 38998, Note_on_c, 0, 43, 78
2, 39002, Note_on_c, 0, 41, 70
2, 39006, Note_on_c, 0, 41, 0
2, 39180, Control_c, 0, 64, 0
2, 39187, Note_on_c, 0, 48, 0
2, 39188, Note_on_c, 0, 66, 0
2, 39188, Note_on_c, 0, 49, 0
2, 39188, Note_on_c, 0, 53, 0
2, 39188, Note_on_c, 0, 65, 0
2, 39188, Note_on_c, 0, 37, 0
2, 39188, Note_on_c, 0, 59, 0
2, 39188, Note_on_c, 0, 47, 0
2, 39189, Note_on_c, 0, 52, 0
2, 39189, Note_on_c, 0, 57, 0
2, 39189, Note_on_c, 0, 50, 0
2, 39189, Note_on_c, 0, 43, 0
2, 39189, Note_on_c, 0, 55, 0
2, 39191, Note_on_c, 0, 71, 0
2, 39206, Note_on_c, 0, 44, 0
2, 39214, Note_on_c, 0, 64, 0
2, 39217, Note_on_c, 0, 44, 106
2, 39218, Note_on_c, 0, 32, 92
2, 39219, Note_on_c, 0, 76, 110
2, 39220, Note_on_c, 0, 64, 105
2, 39290, Control_c, 0, 64, 127
2, 39375, Note_on_c, 0, 44, 0
2, 39380, Note_on_c, 0, 44, 73
2, 39459, Note_on_c, 0, 52, 74
2, 39463, Note_on_c, 0, 75, 96
2, 39471, Note_on_c, 0, 71, 69
2, 39552, Note_on_c, 0, 44, 0
2, 39562, Note_on_c, 0, 44, 87
2, 39644, Note_on_c, 0, 52, 0
2, 39650, Note_on_c, 0, 52, 79
2, 39713, Note_on_c, 0, 52, 0
2, 39713, Note_on_c, 0, 71, 0
2, 39717, Note_on_c, 0, 78, 104
2, 39721, Note_on_c, 0, 52, 85
2, 39722, Note_on_c, 0, 71, 93
2, 39722, Note_on_c, 0, 59, 96
2, 39731, Note_on_c, 0, 56, 83
2, 39851, Note_on_c, 0, 44, 0
2, 39855, Note_on_c, 0, 44, 81
2, 40028, Note_on_c, 0, 32, 0
2, 40028, Note_on_c, 0, 44, 0
2, 40028, Note_on_c, 0, 76, 0
2, 40033, Note_on_c, 0, 44, 86
2, 40033, Note_on_c, 0, 76, 98
2, 40036, Note_on_c, 0, 32, 77
2, 40181, Note_on_c, 0, 52, 0
2, 40189, Note_on_c, 0, 59, 0
2, 40189, Note_on_c, 0, 71, 0
2, 40189, Note_on_c, 0, 75, 0
2, 40192, Note_on_c, 0, 52, 88
2, 40194, Note_on_c, 0, 59, 100
2, 40194, Note_on_c, 0, 75, 100
2, 40200, Note_on_c, 0, 71, 80
2, 40246, Note_on_c, 0, 50, 31
2, 40327, Note_on_c, 0, 44, 0
2, 40335, Note_on_c, 0, 76, 0
2, 40339, Note_on_c, 0, 44, 80
2, 40341, Note_on_c, 0, 76, 100
2, 40412, Note_on_c, 0, 50, 0
2, 40419, Note_on_c, 0, 71, 0
2, 40424, Note_on_c, 0, 71, 100
2, 40429, Note_on_c, 0, 69, 105
2, 40446, Control_c, 0, 64, 0
2, 40461, Note_on_c, 0, 32, 0
2, 40462, Note_on_c, 0, 59, 0
2, 40462, Note_on_c, 0, 64, 0
2, 40462, Note_on_c, 0, 78, 0
2, 40462, Note_on_c, 0, 75, 0
2, 40462, Note_on_c, 0, 76, 0
2, 40463, Note_on_c, 0, 56, 0
2, 40473, Note_on_c, 0, 52, 0
2, 40481, Note_on_c, 0, 44, 0
2, 40506, Note_on_c, 0, 33, 95
2, 40506, Note_on_c, 0, 45, 95
2, 40542, Control_c, 0, 64, 127
2, 40657, Note_on_c, 0, 33, 0
2, 40657, Note_on_c, 0, 45, 0
2, 40665, Note_on_c, 0, 33, 77
2, 40665, Note_on_c, 0, 45, 83
2, 40734, Note_on_c, 0, 52, 72
2, 40826, Note_on_c, 0, 45, 0
2, 40834, Note_on_c, 0, 45, 82
2, 40980, Note_on_c, 0, 69, 0
2, 40988, Note_on_c, 0, 45, 0
2, 40988, Note_on_c, 0, 52, 0
2, 40989, Note_on_c, 0, 69, 90
2, 40992, Note_on_c, 0, 59, 85
2, 40993, Note_on_c, 0, 52, 83
2, 40993, Note_on_c, 0, 45, 78
2, 41118, Note_on_c, 0, 45, 0
2, 41126, Note_on_c, 0, 45, 78
2, 41295, Note_on_c, 0, 45, 0
2, 41306, Note_on_c, 0, 68, 82
2, 41306, Note_on_c, 0, 45, 76
2, 41454, Note_on_c, 0, 64, 93
2, 41464, Note_on_c, 0, 52, 0
2, 41464, Note_on_c, 0, 59, 0
2, 41468, Note_on_c, 0, 52, 88
2, 41471, Note_on_c, 0, 59, 97
2, 41594, Note_on_c, 0, 45, 0
2, 41601, Note_on_c, 0, 45, 86
2, 41630, Note_on_c, 0, 73, 97
2, 41701, Note_on_c, 0, 75, 85
2, 41715, Control_c, 0, 64, 0
2, 41720, Note_on_c, 0, 68, 0
2, 41720, Note_on_c, 0, 52, 0
2, 41720, Note_on_c, 0, 33, 0
2, 41721, Note_on_c, 0, 64, 0
2, 41721, Note_on_c, 0, 69, 0
2, 41721, Note_on_c, 0, 59, 0
2, 41721, Note_on_c, 0, 73, 0
2, 41722, Note_on_c, 0, 45, 0
2, 41733, Note_on_c, 0, 71, 0
2, 41775, Note_on_c, 0, 76, 109
2, 41776, Note_on_c, 0, 47, 100
2, 41776, Note_on_c, 0, 35, 95
2, 41778, Note_on_c, 0, 71, 88
2, 41809, Control_c, 0, 64, 127
2, 41909, Note_on_c, 0, 47, 0
2, 41916, Note_on_c, 0, 47, 83
2, 42009, Note_on_c, 0, 75, 0
2, 42012, Note_on_c, 0, 54, 73
2, 42013, Note_on_c, 0, 75, 87
2, 42101, Note_on_c, 0, 47, 0
2, 42101, Note_on_c, 0, 76, 0
2, 42106, Note_on_c, 0, 47, 85
2, 42108, Note_on_c, 0, 76, 70
2, 42255, Note_on_c, 0, 54, 0
2, 42255, Note_on_c, 0, 71, 0
2, 42255, Note_on_c, 0, 75, 0
2, 42256, Note_on_c, 0, 78, 105
2, 42261, Note_on_c, 0, 75, 93
2, 42263, Note_on_c, 0, 47, 0
2, 42265, Note_on_c, 0, 71, 90
2, 42266, Note_on_c, 0, 59, 100
2, 42266, Note_on_c, 0, 54, 93
2, 42271, Control_c, 0, 64, 0
2, 42273, Note_on_c, 0, 47, 94
2, 42332, Control_c, 0, 64, 127
2, 42408, Note_on_c, 0, 47, 0
2, 42412, Note_on_c, 0, 47, 88
2, 42554, Note_on_c, 0, 76, 0
2, 42563, Note_on_c, 0, 76, 99
2, 42577, Note_on_c, 0, 47, 0
2, 42586, Note_on_c, 0, 47, 88
2, 42723, Note_on_c, 0, 75, 0
2, 42731, Note_on_c, 0, 54, 0
2, 42731, Note_on_c, 0, 59, 0
2, 42731, Note_on_c, 0, 71, 0
2, 42733, Note_on_c, 0, 75, 96
2, 42736, Note_on_c, 0, 54, 88
2, 42739, Note_on_c, 0, 59, 99
2, 42742, Note_on_c, 0, 71, 77
2, 42754, Note_on_c, 0, 47, 0
2, 42763, Note_on_c, 0, 47, 78
2, 42869, Note_on_c, 0, 47, 0
2, 42869, Note_on_c, 0, 76, 0
2, 42877, Note_on_c, 0, 76, 105
2, 42879, Note_on_c, 0, 47, 94
2, 42956, Note_on_c, 0, 78, 0
2, 42957, Note_on_c, 0, 76, 0
2, 42957, Note_on_c, 0, 75, 0
2, 42957, Control_c, 0, 64, 0
2, 42959, Note_on_c, 0, 35, 0
2, 42969, Note_on_c, 0, 54, 0
2, 42977, Note_on_c, 0, 47, 0
2, 42977, Note_on_c, 0, 59, 0
2, 42977, Note_on_c, 0, 71, 0
2, 43048, Note_on_c, 0, 80, 108
2, 43049, Note_on_c, 0, 44, 109
2, 43050, Note_on_c, 0, 68, 107
2, 43051, Note_on_c, 0, 32, 101
2, 43051, Note_on_c, 0, 71, 101
2, 43054, Control_c, 0, 64, 127
2, 43113, Note_on_c, 0, 44, 0
2, 43120, Note_on_c, 0, 68, 0
2, 43127, Control_c, 0, 64, 0
2, 43176, Note_on_c, 0, 32, 0
2, 43192, Note_on_c, 0, 71, 0
2, 43200, Note_on_c, 0, 80, 0
2, 43281, Note_on_c, 0, 81, 103
2, 43285, Note_on_c, 0, 69, 104
2, 43287, Note_on_c, 0, 45, 104
2, 43287, Note_on_c, 0, 33, 100
2, 43307, Control_c, 0, 64, 127
2, 43407, Control_c, 0, 64, 0
2, 43410, Note_on_c, 0, 45, 0
2, 43410, Note_on_c, 0, 33, 0
2, 43410, Note_on_c, 0, 81, 0
2, 43411, Note_on_c, 0, 69, 0
2, 43525, Note_on_c, 0, 80, 103
2, 43525, Note_on_c, 0, 44, 100
2, 43527, Note_on_c, 0, 68, 105
2, 43529, Note_on_c, 0, 32, 93
2, 43532, Note_on_c, 0, 71, 86
2, 43557, Note_on_c, 0, 78, 53
2, 43576, Control_c, 0, 64, 127
2, 43776, Note_on_c, 0, 78, 0
2, 43785, Note_on_c, 0, 78, 106
2, 43787, Control_c, 0, 64, 0
2, 43787, Note_on_c, 0, 66, 100
2, 43789, Note_on_c, 0, 44, 0
2, 43789, Note_on_c, 0, 80, 0
2, 43793, Note_on_c, 0, 32, 0
2, 43793, Note_on_c, 0, 68, 0
2, 43794, Note_on_c, 0, 71, 0
2, 43800, Note_on_c, 0, 30, 99
2, 43802, Note_on_c, 0, 42, 93
2, 43852, Note_on_c, 0, 66, 0
2, 43868, Note_on_c, 0, 78, 0
2, 43944, Note_on_c, 0, 42, 0
2, 43978, Note_on_c, 0, 78, 110
2, 43980, Note_on_c, 0, 66, 103
2, 43981, Note_on_c, 0, 75, 98
2, 43983, Note_on_c, 0, 30, 0
2, 43985, Note_on_c, 0, 42, 101
2, 43985, Note_on_c, 0, 71, 87
2, 43988, Note_on_c, 0, 30, 94
2, 44021, Control_c, 0, 64, 127
2, 44129, Note_on_c, 0, 30, 0
2, 44136, Note_on_c, 0, 42, 0
2, 44140, Note_on_c, 0, 30, 81
2, 44142, Note_on_c, 0, 42, 72
2, 44211, Note_on_c, 0, 42, 0
2, 44214, Note_on_c, 0, 78, 0
2, 44215, Note_on_c, 0, 66, 0
2, 44215, Note_on_c, 0, 71, 0
2, 44216, Note_on_c, 0, 75, 0
2, 44218, Control_c, 0, 64, 0
2, 44283, Note_on_c, 0, 25, 101
2, 44284, Note_on_c, 0, 37, 102
2, 44298, Control_c, 0, 64, 127
2, 44305, Note_on_c, 0, 30, 0
2, 44441, Note_on_c, 0, 66, 93
2, 44523, Control_c, 0, 64, 0
2, 44561, Note_on_c, 0, 25, 0
2, 44564, Note_on_c, 0, 37, 0
2, 44590, Note_on_c, 0, 66, 0
2, 44596, Note_on_c, 0, 66, 96
2, 44602, Note_on_c, 0, 63, 95
2, 44608, Note_on_c, 0, 51, 85
2, 44609, Note_on_c, 0, 59, 95
2, 44609, Note_on_c, 0, 44, 88
2, 44614, Note_on_c, 0, 49, 84
2, 44655, Note_on_c, 0, 44, 0
2, 44656, Note_on_c, 0, 63, 0
2, 44682, Note_on_c, 0, 49, 0
2, 44682, Note_on_c, 0, 51, 0
2, 44736, Note_on_c, 0, 59, 0
2, 44754, Note_on_c, 0, 64, 92
2, 44756, Note_on_c, 0, 49, 78
2, 44756, Note_on_c, 0, 37, 80
2, 44791, Note_on_c, 0, 66, 0
2, 44797, Note_on_c, 0, 64, 0
2, 44797, Note_on_c, 0, 37, 0
2, 44812, Note_on_c, 0, 49, 0
2, 44866, Note_on_c, 0, 66, 91
2, 44868, Note_on_c, 0, 51, 83
2, 44869, Note_on_c, 0, 52, 91
2, 44871, Note_on_c, 0, 49, 90
2, 44874, Note_on_c, 0, 51, 0
2, 44874, Note_on_c, 0, 63, 81
2, 44877, Note_on_c, 0, 44, 80
2, 44878, Note_on_c, 0, 59, 80
2, 44907, Note_on_c, 0, 52, 0
2, 44909, Note_on_c, 0, 63, 0
2, 44909, Note_on_c, 0, 49, 0
2, 44910, Note_on_c, 0, 44, 0
2, 44913, Note_on_c, 0, 66, 0
2, 44918, Note_on_c, 0, 59, 0
2, 45020, Note_on_c, 0, 66, 97
2, 45022, Note_on_c, 0, 51, 84
2, 45022, Note_on_c, 0, 63, 91
2, 45024, Note_on_c, 0, 59, 86
2, 45024, Note_on_c, 0, 44, 79
2, 45024, Note_on_c, 0, 49, 82
2, 45027, Note_on_c, 0, 51, 0
2, 45028, Note_on_c, 0, 52, 82
2, 45064, Note_on_c, 0, 59, 0
2, 45065, Note_on_c, 0, 44, 0
2, 45068, Note_on_c, 0, 49, 0
2, 45069, Note_on_c, 0, 52, 0
2, 45070, Note_on_c, 0, 63, 0
2, 45071, Note_on_c, 0, 66, 0
2, 45156, Note_on_c, 0, 63, 85
2, 45156, Note_on_c, 0, 66, 88
2, 45157, Note_on_c, 0, 37, 91
2, 45201, Note_on_c, 0, 63, 0
2, 45235, Control_c, 0, 64, 127
2, 45244, Note_on_c, 0, 68, 107
2, 45247, Note_on_c, 0, 49, 94
2, 45252, Note_on_c, 0, 59, 86
2, 45253, Note_on_c, 0, 61, 77
2, 45255, Note_on_c, 0, 52, 89
2, 45258, Note_on_c, 0, 61, 0
2, 45400, Note_on_c, 0, 64, 104
2, 45406, Note_on_c, 0, 44, 88
2, 45485, Note_on_c, 0, 66, 0
2, 45485, Note_on_c, 0, 68, 0
2, 45485, Note_on_c, 0, 52, 0
2, 45486, Control_c, 0, 64, 0
2, 45486, Note_on_c, 0, 59, 0
2, 45486, Note_on_c, 0, 44, 0
2, 45487, Note_on_c, 0, 49, 0
2, 45488, Note_on_c, 0, 64, 0
2, 45496, Note_on_c, 0, 37, 0
2, 45546, Note_on_c, 0, 49, 110
2, 45546, Note_on_c, 0, 37, 102
2, 45588, Control_c, 0, 64, 127
2, 45699, Note_on_c, 0, 78, 105
2, 45703, Note_on_c, 0, 71, 95
2, 45703, Note_on_c, 0, 75, 92
2, 45849, Note_on_c, 0, 71, 0
2, 45849, Note_on_c, 0, 78, 0
2, 45854, Note_on_c, 0, 78, 104
2, 45857, Note_on_c, 0, 49, 0
2, 45857, Note_on_c, 0, 75, 0
2, 45857, Note_on_c, 0, 71, 93
2, 45860, Note_on_c, 0, 64, 101
2, 45861, Note_on_c, 0, 75, 89
2, 45861, Note_on_c, 0, 61, 94
2, 45867, Note_on_c, 0, 56, 94
2, 45868, Note_on_c, 0, 49, 89
2, 45961, Note_on_c, 0, 75, 0
2, 45961, Note_on_c, 0, 71, 0
2, 45961, Note_on_c, 0, 61, 0
2, 45962, Note_on_c, 0, 78, 0
2, 45963, Note_on_c, 0, 64, 0
2, 45964, Note_on_c, 0, 37, 0
2, 45965, Note_on_c, 0, 56, 0
2, 45983, Control_c, 0, 64, 0
2, 45987, Note_on_c, 0, 49, 0
2, 45998, Note_on_c, 0, 49, 98
2, 45999, Note_on_c, 0, 76, 99
2, 46038, Note_on_c, 0, 76, 0
2, 46080, Note_on_c, 0, 49, 0
2, 46099, Note_on_c, 0, 78, 109
2, 46105, Note_on_c, 0, 64, 101
2, 46107, Note_on_c, 0, 61, 89
2, 46107, Note_on_c, 0, 56, 96
2, 46111, Note_on_c, 0, 71, 87
2, 46139, Note_on_c, 0, 78, 0
2, 46143, Note_on_c, 0, 71, 0
2, 46143, Note_on_c, 0, 64, 0
2, 46145, Note_on_c, 0, 56, 0
2, 46151, Note_on_c, 0, 61, 0
2, 46258, Note_on_c, 0, 78, 102
2, 46261, Note_on_c, 0, 71, 89
2, 46264, Note_on_c, 0, 75, 90
2, 46273, Note_on_c, 0, 64, 86
2, 46275, Note_on_c, 0, 61, 82
2, 46276, Note_on_c, 0, 56, 85
2, 46300, Note_on_c, 0, 71, 0
2, 46303, Note_on_c, 0, 75, 0
2, 46305, Note_on_c, 0, 64, 0
2, 46306, Note_on_c, 0, 78, 0
2, 46333, Note_on_c, 0, 56, 0
2, 46371, Note_on_c, 0, 61, 0
2, 46399, Note_on_c, 0, 78, 97
2, 46405, Note_on_c, 0, 71, 76
2, 46405, Note_on_c, 0, 75, 81
2, 46410, Note_on_c, 0, 49, 94
2, 46432, Note_on_c, 0, 75, 0
2, 46471, Note_on_c, 0, 78, 0
2, 46471, Control_c, 0, 64, 127
2, 46479, Note_on_c, 0, 71, 0
2, 46481, Note_on_c, 0, 78, 108
2, 46483, Note_on_c, 0, 71, 89
2, 46483, Note_on_c, 0, 75, 103
2, 46489, Note_on_c, 0, 68, 96
2, 46494, Note_on_c, 0, 68, 0
2, 46496, Note_on_c, 0, 61, 93
2, 46496, Note_on_c, 0, 56, 98
2, 46497, Note_on_c, 0, 64, 96
2, 46502, Note_on_c, 0, 49, 0
2, 46507, Note_on_c, 0, 49, 86
2, 46638, Note_on_c, 0, 83, 103
2, 46761, Control_c, 0, 64, 0
2, 46761, Note_on_c, 0, 61, 0
2, 46761, Note_on_c, 0, 56, 0
2, 46761, Note_on_c, 0, 75, 0
2, 46762, Note_on_c, 0, 64, 0
2, 46762, Note_on_c, 0, 71, 0
2, 46763, Note_on_c, 0, 78, 0
2, 46764, Note_on_c, 0, 83, 0
2, 46786, Note_on_c, 0, 49, 0
2, 46791, Note_on_c, 0, 49, 109
2, 46792, Note_on_c, 0, 37, 108
2, 46863, Control_c, 0, 64, 127
2, 46886, Note_on_c, 0, 49, 0
2, 46944, Note_on_c, 0, 66, 100
2, 46947, Note_on_c, 0, 63, 95
2, 46950, Note_on_c, 0, 59, 97
2, 47101, Note_on_c, 0, 66, 0
2, 47105, Note_on_c, 0, 52, 97
2, 47109, Note_on_c, 0, 63, 0
2, 47112, Note_on_c, 0, 66, 88
2, 47112, Note_on_c, 0, 44, 84
2, 47115, Note_on_c, 0, 63, 81
2, 47119, Note_on_c, 0, 47, 84
2, 47120, Note_on_c, 0, 64, 86
2, 47196, Note_on_c, 0, 66, 0
2, 47196, Note_on_c, 0, 59, 0
2, 47197, Note_on_c, 0, 63, 0
2, 47197, Control_c, 0, 64, 0
2, 47197, Note_on_c, 0, 47, 0
2, 47199, Note_on_c, 0, 44, 0
2, 47208, Note_on_c, 0, 37, 0
2, 47239, Note_on_c, 0, 64, 0
2, 47245, Note_on_c, 0, 64, 97
2, 47258, Note_on_c, 0, 37, 72
2, 47285, Note_on_c, 0, 52, 0
2, 47360, Note_on_c, 0, 49, 91
2, 47363, Note_on_c, 0, 66, 101
2, 47370, Note_on_c, 0, 44, 86
2, 47372, Note_on_c, 0, 52, 86
2, 47372, Note_on_c, 0, 63, 93
2, 47372, Note_on_c, 0, 59, 92
2, 47400, Note_on_c, 0, 64, 0
2, 47404, Note_on_c, 0, 52, 0
2, 47406, Note_on_c, 0, 49, 0
2, 47407, Note_on_c, 0, 59, 0
2, 47412, Note_on_c, 0, 66, 0
2, 47439, Note_on_c, 0, 37, 0
2, 47462, Note_on_c, 0, 63, 0
2, 47477, Note_on_c, 0, 44, 0
2, 47513, Note_on_c, 0, 66, 94
2, 47517, Note_on_c, 0, 63, 97
2, 47519, Note_on_c, 0, 59, 93
2, 47524, Note_on_c, 0, 51, 83
2, 47524, Note_on_c, 0, 44, 74
2, 47528, Note_on_c, 0, 47, 72
2, 47535, Note_on_c, 0, 52, 86
2, 47563, Note_on_c, 0, 47, 0
2, 47563, Note_on_c, 0, 59, 0
2, 47564, Note_on_c, 0, 44, 0
2, 47565, Note_on_c, 0, 63, 0
2, 47569, Note_on_c, 0, 51, 0
2, 47571, Note_on_c, 0, 66, 0
2, 47580, Note_on_c, 0, 52, 0
2, 47666, Note_on_c, 0, 37, 90
2, 47667, Note_on_c, 0, 66, 86
2, 47668, Note_on_c, 0, 63, 92
2, 47708, Control_c, 0, 64, 127
2, 47756, Note_on_c, 0, 68, 107
2, 47764, Note_on_c, 0, 49, 93
2, 47765, Note_on_c, 0, 59, 88
2, 47768, Note_on_c, 0, 52, 90
2, 47773, Note_on_c, 0, 64, 85
2, 47900, Note_on_c, 0, 64, 0
2, 47906, Note_on_c, 0, 64, 106
2, 47911, Note_on_c, 0, 44, 88
2, 48025, Note_on_c, 0, 59, 0
2, 48025, Control_c, 0, 64, 0
2, 48025, Note_on_c, 0, 66, 0
2, 48025, Note_on_c, 0, 37, 0
2, 48026, Note_on_c, 0, 68, 0
2, 48026, Note_on_c, 0, 52, 0
2, 48026, Note_on_c, 0, 49, 0
2, 48026, Note_on_c, 0, 63, 0
2, 48027, Note_on_c, 0, 64, 0
2, 48027, Note_on_c, 0, 44, 0
2, 48064, Note_on_c, 0, 88, 106
2, 48065, Note_on_c, 0, 76, 110
2, 48070, Note_on_c, 0, 61, 107
2, 48071, Note_on_c, 0, 49, 105
2, 48099, Control_c, 0, 64, 127
2, 48135, Note_on_c, 0, 83, 80
2, 48209, Note_on_c, 0, 80, 94
2, 48216, Control_c, 0, 64, 0
2, 48217, Note_on_c, 0, 76, 0
2, 48217, Note_on_c, 0, 88, 0
2, 48218, Note_on_c, 0, 83, 0
2, 48222, Note_on_c, 0, 49, 0
2, 48222, Note_on_c, 0, 61, 0
2, 48265, Note_on_c, 0, 80, 0
2, 48315, Note_on_c, 0, 88, 106
2, 48316, Note_on_c, 0, 56, 99
2, 48317, Note_on_c, 0, 76, 107
2, 48318, Note_on_c, 0, 44, 103
2, 48325, Note_on_c, 0, 85, 77
2, 48337, Control_c, 0, 64, 127
2, 48393, Note_on_c, 0, 83, 85
2, 48413, Control_c, 0, 64, 0
2, 48451, Note_on_c, 0, 80, 89
2, 48456, Note_on_c, 0, 88, 0
2, 48462, Note_on_c, 0, 76, 0
2, 48466, Note_on_c, 0, 83, 0
2, 48468, Note_on_c, 0, 44, 0
2, 48468, Note_on_c, 0, 56, 0
2, 48476, Note_on_c, 0, 85, 0
2, 48502, Note_on_c, 0, 80, 0
2, 48548, Note_on_c, 0, 76, 109
2, 48548, Note_on_c, 0, 88, 107
2, 48552, Note_on_c, 0, 59, 106
2, 48555, Note_on_c, 0, 47, 101
2, 48576, Control_c, 0, 64, 127
2, 48627, Note_on_c, 0, 83, 87
2, 48686, Control_c, 0, 64, 0
2, 48687, Note_on_c, 0, 76, 0
2, 48688, Note_on_c, 0, 88, 0
2, 48690, Note_on_c, 0, 83, 0
2, 48696, Note_on_c, 0, 80, 85
2, 48698, Note_on_c, 0, 59, 0
2, 48714, Note_on_c, 0, 47, 0
2, 48740, Note_on_c, 0, 80, 0
2, 48782, Note_on_c, 0, 88, 108
2, 48785, Note_on_c, 0, 76, 108
2, 48795, Note_on_c, 0, 54, 103
2, 48795, Note_on_c, 0, 42, 102
2, 48829, Note_on_c, 0, 83, 43
2, 48829, Control_c, 0, 64, 127
2, 48892, Control_c, 0, 64, 0
2, 48897, Note_on_c, 0, 80, 94
2, 48960, Control_c, 0, 64, 127
2, 48986, Note_on_c, 0, 80, 0
2, 48988, Note_on_c, 0, 76, 0
2, 48991, Note_on_c, 0, 42, 0
2, 48994, Note_on_c, 0, 54, 0
2, 48998, Control_c, 0, 64, 0
2, 49006, Note_on_c, 0, 83, 0
2, 49006, Note_on_c, 0, 88, 0
2, 49017, Note_on_c, 0, 56, 107
2, 49018, Note_on_c, 0, 44, 104
2, 49022, Note_on_c, 0, 90, 111
2, 49023, Note_on_c, 0, 78, 111
2, 49082, Control_c, 0, 64, 127
2, 49178, Note_on_c, 0, 92, 113
2, 49179, Note_on_c, 0, 80, 105
2, 49181, Note_on_c, 0, 51, 106
2, 49184, Note_on_c, 0, 39, 93
2, 49247, Note_on_c, 0, 78, 0
2, 49248, Note_on_c, 0, 90, 0
2, 49248, Note_on_c, 0, 80, 0
2, 49251, Control_c, 0, 64, 0
2, 49251, Note_on_c, 0, 56, 0
2, 49254, Note_on_c, 0, 44, 0
2, 49254, Note_on_c, 0, 92, 0
2, 49255, Note_on_c, 0, 39, 0
2, 49256, Note_on_c, 0, 51, 0
2, 49338, Note_on_c, 0, 49, 107
2, 49338, Note_on_c, 0, 37, 107
2, 49374, Control_c, 0, 64, 127
2, 49490, Note_on_c, 0, 66, 94
2, 49496, Note_on_c, 0, 63, 84
2, 49498, Note_on_c, 0, 59, 92
2, 49635, Note_on_c, 0, 66, 0
2, 49637, Note_on_c, 0, 52, 94
2, 49640, Note_on_c, 0, 66, 94
2, 49642, Control_c, 0, 64, 0
2, 49643, Note_on_c, 0, 59, 0
2, 49643, Note_on_c, 0, 63, 0
2, 49651, Note_on_c, 0, 49, 0
2, 49652, Note_on_c, 0, 44, 83
2, 49653, Note_on_c, 0, 63, 87
2, 49654, Note_on_c, 0, 59, 89
2, 49656, Note_on_c, 0, 49, 75
2, 49681, Note_on_c, 0, 37, 0
2, 49695, Note_on_c, 0, 52, 0
2, 49695, Note_on_c, 0, 44, 0
2, 49704, Note_on_c, 0, 49, 0
2, 49720, Note_on_c, 0, 59, 0
2, 49728, Note_on_c, 0, 63, 0
2, 49728, Note_on_c, 0, 66, 0
2, 49793, Note_on_c, 0, 64, 92
2, 49794, Note_on_c, 0, 37, 84
2, 49795, Note_on_c, 0, 49, 73
2, 49799, Note_on_c, 0, 52, 75
2, 49832, Note_on_c, 0, 64, 0
2, 49836, Note_on_c, 0, 37, 0
2, 49838, Note_on_c, 0, 49, 0
2, 49866, Note_on_c, 0, 52, 0
2, 49899, Note_on_c, 0, 66, 99
2, 49900, Note_on_c, 0, 51, 88
2, 49901, Note_on_c, 0, 52, 93
2, 49904, Note_on_c, 0, 51, 0
2, 49906, Note_on_c, 0, 63, 87
2, 49907, Note_on_c, 0, 59, 91
2, 49908, Note_on_c, 0, 44, 91
2, 49908, Note_on_c, 0, 49, 87
2, 49939, Note_on_c, 0, 52, 0
2, 49940, Note_on_c, 0, 59, 0
2, 49945, Note_on_c, 0, 63, 0
2, 49945, Note_on_c, 0, 44, 0
2, 49946, Note_on_c, 0, 66, 0
2, 49947, Note_on_c, 0, 49, 0
2, 50062, Note_on_c, 0, 66, 98
2, 50064, Note_on_c, 0, 51, 90
2, 50068, Note_on_c, 0, 63, 93
2, 50069, Note_on_c, 0, 59, 93
2, 50069, Note_on_c, 0, 52, 94
2, 50071, Note_on_c, 0, 49, 91
2, 50073, Note_on_c, 0, 44, 86
2, 50108, Note_on_c, 0, 59, 0
2, 50108, Note_on_c, 0, 52, 0
2, 50110, Note_on_c, 0, 49, 0
2, 50110, Note_on_c, 0, 63, 0
2, 50111, Note_on_c, 0, 44, 0
2, 50112, Note_on_c, 0, 51, 0
2, 50113, Note_on_c, 0, 66, 0
2, 50214, Note_on_c, 0, 66, 95
2, 50215, Note_on_c, 0, 63, 86
2, 50222, Note_on_c, 0, 37, 87
2, 50230, Note_on_c, 0, 49, 74
2, 50254, Note_on_c, 0, 49, 0
2, 50260, Note_on_c, 0, 66, 0
2, 50260, Note_on_c, 0, 37, 0
2, 50261, Note_on_c, 0, 63, 0
2, 50300, Note_on_c, 0, 68, 108
2, 50315, Note_on_c, 0, 64, 79
2, 50316, Note_on_c, 0, 59, 79
2, 50319, Note_on_c, 0, 52, 87
2, 50320, Note_on_c, 0, 49, 84
2, 50342, Control_c, 0, 64, 127
2, 50442, Note_on_c, 0, 64, 0
2, 50452, Note_on_c, 0, 64, 107
2, 50466, Note_on_c, 0, 44, 93
2, 50539, Control_c, 0, 64, 0
2, 50543, Note_on_c, 0, 52, 0
2, 50544, Note_on_c, 0, 68, 0
2, 50545, Note_on_c, 0, 49, 0
2, 50545, Note_on_c, 0, 44, 0
2, 50545, Note_on_c, 0, 64, 0
2, 50565, Note_on_c, 0, 59, 0
2, 50604, Note_on_c, 0, 37, 108
2, 50604, Note_on_c, 0, 49, 108
2, 50649, Control_c, 0, 64, 127
2, 50756, Note_on_c, 0, 78, 104
2, 50759, Note_on_c, 0, 75, 90
2, 50760, Note_on_c, 0, 71, 87
2, 50903, Note_on_c, 0, 71, 0
2, 50903, Note_on_c, 0, 78, 0
2, 50907, Note_on_c, 0, 78, 105
2, 50908, Note_on_c, 0, 61, 90
2, 50909, Note_on_c, 0, 64, 98
2, 50910, Note_on_c, 0, 75, 0
2, 50914, Note_on_c, 0, 71, 90
2, 50914, Note_on_c, 0, 75, 81
2, 50917, Note_on_c, 0, 56, 83
2, 50922, Note_on_c, 0, 52, 68
2, 50933, Note_on_c, 0, 37, 0
2, 50938, Control_c, 0, 64, 0
2, 50961, Note_on_c, 0, 56, 0
2, 50961, Note_on_c, 0, 61, 0
2, 50962, Note_on_c, 0, 64, 0
2, 50979, Note_on_c, 0, 49, 0
2, 50979, Note_on_c, 0, 52, 0
2, 51002, Note_on_c, 0, 75, 0
2, 51010, Note_on_c, 0, 78, 0
2, 51018, Note_on_c, 0, 71, 0
2, 51053, Note_on_c, 0, 76, 98
2, 51059, Note_on_c, 0, 49, 90
2, 51141, Note_on_c, 0, 76, 0
2, 51148, Note_on_c, 0, 49, 0
2, 51158, Note_on_c, 0, 78, 108
2, 51165, Note_on_c, 0, 64, 96
2, 51166, Note_on_c, 0, 61, 92
2, 51166, Note_on_c, 0, 71, 90
2, 51168, Note_on_c, 0, 56, 88
2, 51169, Note_on_c, 0, 49, 81
2, 51200, Note_on_c, 0, 64, 0
2, 51201, Note_on_c, 0, 71, 0
2, 51201, Note_on_c, 0, 78, 0
2, 51206, Note_on_c, 0, 56, 0
2, 51314, Note_on_c, 0, 78, 104
2, 51317, Note_on_c, 0, 61, 0
2, 51318, Note_on_c, 0, 75, 87
2, 51321, Note_on_c, 0, 71, 86
2, 51324, Note_on_c, 0, 64, 90
2, 51326, Note_on_c, 0, 61, 86
2, 51330, Note_on_c, 0, 56, 81
2, 51358, Note_on_c, 0, 71, 0
2, 51360, Note_on_c, 0, 75, 0
2, 51360, Note_on_c, 0, 64, 0
2, 51360, Note_on_c, 0, 56, 0
2, 51360, Note_on_c, 0, 61, 0
2, 51360, Note_on_c, 0, 78, 0
2, 51369, Note_on_c, 0, 49, 0
2, 51468, Note_on_c, 0, 78, 101
2, 51469, Note_on_c, 0, 59, 91
2, 51474, Note_on_c, 0, 75, 89
2, 51475, Note_on_c, 0, 71, 84
2, 51481, Note_on_c, 0, 49, 92
2, 51501, Note_on_c, 0, 75, 0
2, 51506, Note_on_c, 0, 78, 0
2, 51517, Control_c, 0, 64, 127
2, 51563, Note_on_c, 0, 71, 0
2, 51564, Note_on_c, 0, 78, 111
2, 51567, Note_on_c, 0, 75, 98
2, 51567, Note_on_c, 0, 71, 89
2, 51571, Note_on_c, 0, 64, 100
2, 51573, Note_on_c, 0, 56, 96
2, 51574, Note_on_c, 0, 61, 96
2, 51714, Note_on_c, 0, 83, 105
2, 51835, Note_on_c, 0, 61, 0
2, 51835, Note_on_c, 0, 56, 0
2, 51835, Note_on_c, 0, 78, 0
2, 51835, Note_on_c, 0, 75, 0
2, 51835, Control_c, 0, 64, 0
2, 51835, Note_on_c, 0, 71, 0
2, 51836, Note_on_c, 0, 83, 0
2, 51836, Note_on_c, 0, 64, 0
2, 51855, Note_on_c, 0, 59, 0
2, 51863, Note_on_c, 0, 49, 0
2, 51869, Note_on_c, 0, 49, 107
2, 51872, Note_on_c, 0, 37, 106
2, 51924, Control_c, 0, 64, 127
2, 52019, Note_on_c, 0, 66, 91
2, 52020, Note_on_c, 0, 63, 93
2, 52021, Note_on_c, 0, 59, 91
2, 52170, Note_on_c, 0, 66, 0
2, 52175, Note_on_c, 0, 66, 102
2, 52177, Note_on_c, 0, 49, 0
2, 52177, Note_on_c, 0, 59, 0
2, 52177, Note_on_c, 0, 63, 0
2, 52181, Note_on_c, 0, 51, 92
2, 52182, Note_on_c, 0, 63, 91
2, 52183, Note_on_c, 0, 68, 95
2, 52183, Note_on_c, 0, 52, 96
2, 52186, Note_on_c, 0, 59, 88
2, 52188, Note_on_c, 0, 49, 95
2, 52189, Note_on_c, 0, 44, 81
2, 52206, Control_c, 0, 64, 0
2, 52232, Note_on_c, 0, 66, 0
2, 52234, Note_on_c, 0, 68, 0
2, 52239, Note_on_c, 0, 51, 0
2, 52285, Note_on_c, 0, 52, 0
2, 52285, Note_on_c, 0, 63, 0
2, 52330, Note_on_c, 0, 64, 91
2, 52331, Note_on_c, 0, 49, 0
2, 52339, Note_on_c, 0, 37, 0
2, 52339, Note_on_c, 0, 44, 0
2, 52343, Note_on_c, 0, 49, 80
2, 52345, Note_on_c, 0, 37, 81
2, 52369, Note_on_c, 0, 64, 0
2, 52369, Note_on_c, 0, 59, 0
2, 52400, Note_on_c, 0, 49, 0
2, 52416, Note_on_c, 0, 37, 0
2, 52443, Note_on_c, 0, 66, 98
2, 52443, Note_on_c, 0, 51, 84
2, 52450, Note_on_c, 0, 49, 92
2, 52451, Note_on_c, 0, 44, 87
2, 52452, Note_on_c, 0, 63, 85
2, 52454, Note_on_c, 0, 51, 0
2, 52455, Note_on_c, 0, 59, 86
2, 52496, Note_on_c, 0, 44, 0
2, 52498, Note_on_c, 0, 59, 0
2, 52503, Note_on_c, 0, 49, 0
2, 52504, Note_on_c, 0, 66, 0
2, 52504, Note_on_c, 0, 63, 0
2, 52605, Note_on_c, 0, 66, 85
2, 52609, Note_on_c, 0, 63, 91
2, 52610, Note_on_c, 0, 59, 89
2, 52613, Note_on_c, 0, 44, 81
2, 52613, Note_on_c, 0, 49, 81
2, 52655, Note_on_c, 0, 59, 0
2, 52657, Note_on_c, 0, 49, 0
2, 52659, Note_on_c, 0, 66, 0
2, 52659, Note_on_c, 0, 63, 0
2, 52662, Note_on_c, 0, 44, 0
2, 52752, Note_on_c, 0, 66, 95
2, 52753, Note_on_c, 0, 37, 94
2, 52755, Note_on_c, 0, 49, 89
2, 52781, Note_on_c, 0, 47, 56
2, 52781, Note_on_c, 0, 59, 67
2, 52792, Note_on_c, 0, 49, 0
2, 52815, Control_c, 0, 64, 127
2, 52820, Note_on_c, 0, 68, 106
2, 52843, Note_on_c, 0, 49, 80
2, 52843, Note_on_c, 0, 52, 82
2, 52970, Note_on_c, 0, 64, 105
2, 52988, Note_on_c, 0, 44, 84
2, 53096, Note_on_c, 0, 59, 0
2, 53096, Note_on_c, 0, 68, 0
2, 53096, Note_on_c, 0, 66, 0
2, 53096, Note_on_c, 0, 37, 0
2, 53096, Note_on_c, 0, 52, 0
2, 53098, Note_on_c, 0, 44, 0
2, 53099, Note_on_c, 0, 47, 0
2, 53099, Note_on_c, 0, 49, 0
2, 53099, Note_on_c, 0, 64, 0
2, 53100, Control_c, 0, 64, 0
2, 53133, Note_on_c, 0, 73, 106
2, 53135, Note_on_c, 0, 85, 101
2, 53136, Note_on_c, 0, 33, 90
2, 53138, Note_on_c, 0, 45, 99
2, 53144, Note_on_c, 0, 84, 86
2, 53176, Control_c, 0, 64, 127
2, 53195, Note_on_c, 0, 83, 41
2, 53199, Note_on_c, 0, 85, 0
2, 53204, Note_on_c, 0, 80, 56
2, 53264, Note_on_c, 0, 76, 92
2, 53272, Note_on_c, 0, 81, 79
2, 53376, Note_on_c, 0, 33, 0
2, 53376, Note_on_c, 0, 73, 0
2, 53379, Note_on_c, 0, 85, 107
2, 53380, Note_on_c, 0, 73, 108
2, 53385, Note_on_c, 0, 40, 94
2, 53387, Note_on_c, 0, 33, 89
2, 53498, Note_on_c, 0, 81, 0
2, 53503, Note_on_c, 0, 81, 82
2, 53506, Note_on_c, 0, 76, 0
2, 53514, Note_on_c, 0, 76, 96
2, 53544, Note_on_c, 0, 45, 0
2, 53556, Note_on_c, 0, 45, 77
2, 53629, Note_on_c, 0, 73, 0
2, 53629, Note_on_c, 0, 85, 0
2, 53634, Note_on_c, 0, 85, 108
2, 53634, Note_on_c, 0, 73, 111
2, 53697, Note_on_c, 0, 81, 0
2, 53698, Note_on_c, 0, 84, 0
2, 53698, Note_on_c, 0, 83, 0
2, 53699, Note_on_c, 0, 33, 0
2, 53699, Note_on_c, 0, 80, 0
2, 53700, Note_on_c, 0, 40, 0
2, 53700, Note_on_c, 0, 85, 0
2, 53701, Note_on_c, 0, 76, 0
2, 53702, Control_c, 0, 64, 0
2, 53702, Note_on_c, 0, 45, 0
2, 53764, Note_on_c, 0, 47, 98
2, 53765, Note_on_c, 0, 35, 93
2, 53783, Control_c, 0, 64, 127
2, 53919, Note_on_c, 0, 63, 95
2, 53919, Note_on_c, 0, 75, 96
2, 53931, Note_on_c, 0, 59, 90
2, 53932, Note_on_c, 0, 71, 72
2, 54085, Note_on_c, 0, 76, 104
2, 54087, Note_on_c, 0, 64, 94
2, 54119, Note_on_c, 0, 54, 50
2, 54236, Note_on_c, 0, 47, 0
2, 54240, Note_on_c, 0, 78, 108
2, 54245, Note_on_c, 0, 47, 87
2, 54246, Note_on_c, 0, 66, 103
2, 54331, Control_c, 0, 64, 0
2, 54331, Note_on_c, 0, 63, 0
2, 54331, Note_on_c, 0, 64, 0
2, 54332, Note_on_c, 0, 59, 0
2, 54332, Note_on_c, 0, 71, 0
2, 54333, Note_on_c, 0, 75, 0
2, 54333, Note_on_c, 0, 47, 0
2, 54333, Note_on_c, 0, 76, 0
2, 54333, Note_on_c, 0, 54, 0
2, 54335, Note_on_c, 0, 66, 0
2, 54337, Note_on_c, 0, 78, 0
2, 54338, Note_on_c, 0, 35, 0
2, 54351, Note_on_c, 0, 73, 0
2, 54409, Note_on_c, 0, 79, 111
2, 54409, Note_on_c, 0, 72, 99
2, 54410, Note_on_c, 0, 67, 109
2, 54410, Note_on_c, 0, 36, 98
2, 54412, Note_on_c, 0, 76, 103
2, 54497, Control_c, 0, 64, 127
2, 54510, Note_on_c, 0, 43, 62
2, 54576, Note_on_c, 0, 48, 75
2, 54674, Note_on_c, 0, 50, 83
2, 54766, Note_on_c, 0, 52, 72
2, 54819, Note_on_c, 0, 55, 70
2, 54888, Note_on_c, 0, 60, 88
2, 54982, Note_on_c, 0, 62, 89
2, 55056, Note_on_c, 0, 64, 85
2, 55196, Note_on_c, 0, 60, 0
2, 55196, Note_on_c, 0, 76, 0
2, 55200, Note_on_c, 0, 60, 87
2, 55207, Note_on_c, 0, 76, 98
2, 55342, Note_on_c, 0, 48, 0
2, 55347, Note_on_c, 0, 48, 91
2, 55367, Note_on_c, 0, 86, 101
2, 55528, Note_on_c, 0, 84, 101
2, 55656, Control_c, 0, 64, 0
2, 55660, Note_on_c, 0, 50, 0
2, 55660, Note_on_c, 0, 60, 0
2, 55660, Note_on_c, 0, 76, 0
2, 55660, Note_on_c, 0, 48, 0
2, 55660, Note_on_c, 0, 62, 0
2, 55660, Note_on_c, 0, 64, 0
2, 55660, Note_on_c, 0, 72, 0
2, 55660, Note_on_c, 0, 52, 0
2, 55660, Note_on_c, 0, 84, 0
2, 55661, Note_on_c, 0, 67, 0
2, 55661, Note_on_c, 0, 79, 0
2, 55661, Note_on_c, 0, 55, 0
2, 55661, Note_on_c, 0, 86, 0
2, 55661, Note_on_c, 0, 43, 0
2, 55666, Note_on_c, 0, 36, 0
2, 55667, Note_on_c, 0, 83, 111
2, 55670, Note_on_c, 0, 38, 94
2, 55673, Note_on_c, 0, 74, 102
2, 55674, Note_on_c, 0, 78, 104
2, 55730, Note_on_c, 0, 38, 0
2, 55756, Control_c, 0, 64, 127
2, 55760, Note_on_c, 0, 45, 80
2, 55822, Note_on_c, 0, 50, 87
2, 55924, Note_on_c, 0, 52, 73
2, 56004, Note_on_c, 0, 54, 86
2, 56085, Note_on_c, 0, 57, 54
2, 56136, Note_on_c, 0, 62, 95
2, 56164, Note_on_c, 0, 81, 102
2, 56232, Note_on_c, 0, 64, 86
2, 56238, Note_on_c, 0, 79, 89
2, 56302, Note_on_c, 0, 81, 0
2, 56311, Note_on_c, 0, 81, 108
2, 56317, Note_on_c, 0, 74, 0
2, 56322, Note_on_c, 0, 74, 86
2, 56325, Note_on_c, 0, 78, 0
2, 56328, Note_on_c, 0, 66, 100
2, 56329, Note_on_c, 0, 78, 87
2, 56478, Note_on_c, 0, 62, 0
2, 56485, Note_on_c, 0, 62, 87
2, 56624, Note_on_c, 0, 50, 0
2, 56634, Note_on_c, 0, 50, 96
2, 56785, Note_on_c, 0, 79, 0
2, 56797, Note_on_c, 0, 79, 101
2, 56905, Note_on_c, 0, 45, 0
2, 56905, Note_on_c, 0, 62, 0
2, 56905, Note_on_c, 0, 81, 0
2, 56905, Note_on_c, 0, 54, 0
2, 56905, Note_on_c, 0, 50, 0
2, 56905, Note_on_c, 0, 74, 0
2, 56906, Note_on_c, 0, 79, 0
2, 56906, Note_on_c, 0, 66, 0
2, 56906, Note_on_c, 0, 78, 0
2, 56907, Control_c, 0, 64, 0
2, 56907, Note_on_c, 0, 64, 0
2, 56907, Note_on_c, 0, 83, 0
2, 56924, Note_on_c, 0, 52, 0
2, 56931, Note_on_c, 0, 57, 0
2, 56949, Note_on_c, 0, 40, 96
2, 56955, Note_on_c, 0, 81, 109
2, 56961, Note_on_c, 0, 78, 96
2, 56961, Note_on_c, 0, 74, 102
2, 57000, Control_c, 0, 64, 127
2, 57027, Note_on_c, 0, 47, 58
2, 57095, Note_on_c, 0, 52, 86
2, 57194, Note_on_c, 0, 54, 86
2, 57200, Note_on_c, 0, 40, 0
2, 57269, Note_on_c, 0, 81, 0
2, 57277, Note_on_c, 0, 81, 102
2, 57279, Note_on_c, 0, 55, 94
2, 57353, Note_on_c, 0, 59, 91
2, 57413, Note_on_c, 0, 64, 84
2, 57445, Note_on_c, 0, 83, 98
2, 57513, Note_on_c, 0, 66, 85
2, 57526, Note_on_c, 0, 79, 105
2, 57602, Note_on_c, 0, 67, 103
2, 57761, Note_on_c, 0, 52, 0
2, 57761, Note_on_c, 0, 78, 0
2, 57768, Note_on_c, 0, 64, 0
2, 57772, Note_on_c, 0, 78, 103
2, 57772, Note_on_c, 0, 52, 80
2, 57772, Note_on_c, 0, 64, 84
2, 57907, Note_on_c, 0, 52, 0
2, 57907, Note_on_c, 0, 79, 0
2, 57914, Note_on_c, 0, 52, 90
2, 57916, Note_on_c, 0, 79, 101
2, 58068, Note_on_c, 0, 81, 0
2, 58077, Note_on_c, 0, 81, 103
2, 58152, Note_on_c, 0, 74, 0
2, 58158, Note_on_c, 0, 74, 112
2, 58191, Control_c, 0, 64, 0
2, 58192, Note_on_c, 0, 67, 0
2, 58193, Note_on_c, 0, 54, 0
2, 58193, Note_on_c, 0, 64, 0
2, 58193, Note_on_c, 0, 79, 0
2, 58193, Note_on_c, 0, 55, 0
2, 58194, Note_on_c, 0, 78, 0
2, 58194, Note_on_c, 0, 59, 0
2, 58194, Note_on_c, 0, 47, 0
2, 58194, Note_on_c, 0, 81, 0
2, 58194, Note_on_c, 0, 83, 0
2, 58206, Note_on_c, 0, 52, 0
2, 58206, Note_on_c, 0, 66, 0
2, 58242, Note_on_c, 0, 42, 102
2, 58298, Control_c, 0, 64, 127
2, 58385, Note_on_c, 0, 50, 87
2, 58399, Note_on_c, 0, 90, 95
2, 58485, Note_on_c, 0, 54, 88
2, 58486, Note_on_c, 0, 91, 84
2, 58490, Note_on_c, 0, 93, 82
2, 58536, Note_on_c, 0, 90, 0
2, 58546, Note_on_c, 0, 90, 101
2, 58576, Note_on_c, 0, 57, 72
2, 58617, Note_on_c, 0, 86, 87
2, 58634, Note_on_c, 0, 62, 92
2, 58679, Note_on_c, 0, 81, 90
2, 58768, Note_on_c, 0, 78, 100
2, 58842, Control_c, 0, 64, 0
2, 58844, Note_on_c, 0, 42, 0
2, 58846, Note_on_c, 0, 90, 0
2, 58847, Note_on_c, 0, 57, 0
2, 58847, Note_on_c, 0, 93, 0
2, 58848, Note_on_c, 0, 81, 0
2, 58848, Note_on_c, 0, 54, 0
2, 58848, Note_on_c, 0, 86, 0
2, 58848, Note_on_c, 0, 50, 0
2, 58849, Note_on_c, 0, 78, 0
2, 58851, Note_on_c, 0, 74, 0
2, 58851, Note_on_c, 0, 91, 0
2, 58859, Note_on_c, 0, 62, 0
2, 58863, Note_on_c, 0, 74, 104
2, 58864, Note_on_c, 0, 62, 104
2, 58864, Note_on_c, 0, 55, 104
2, 58865, Note_on_c, 0, 72, 102
2, 58866, Note_on_c, 0, 43, 101
2, 58913, Control_c, 0, 64, 127
2, 59037, Note_on_c, 0, 67, 91
2, 59066, Note_on_c, 0, 62, 0
2, 59070, Note_on_c, 0, 62, 85
2, 59097, Note_on_c, 0, 72, 0
2, 59108, Note_on_c, 0, 72, 104
2, 59137, Note_on_c, 0, 59, 92
2, 59212, Note_on_c, 0, 55, 0
2, 59218, Note_on_c, 0, 55, 87
2, 59284, Note_on_c, 0, 50, 86
2, 59351, Note_on_c, 0, 43, 0
2, 59351, Note_on_c, 0, 74, 0
2, 59355, Note_on_c, 0, 43, 77
2, 59356, Note_on_c, 0, 74, 107
2, 59452, Note_on_c, 0, 43, 0
2, 59452, Note_on_c, 0, 72, 0
2, 59452, Note_on_c, 0, 55, 0
2, 59453, Note_on_c, 0, 62, 0
2, 59453, Control_c, 0, 64, 0
2, 59453, Note_on_c, 0, 50, 0
2, 59454, Note_on_c, 0, 59, 0
2, 59454, Note_on_c, 0, 74, 0
2, 59454, Note_on_c, 0, 67, 0
2, 59520, Note_on_c, 0, 76, 106
2, 59521, Note_on_c, 0, 69, 97
2, 59522, Note_on_c, 0, 72, 97
2, 59524, Note_on_c, 0, 45, 97
2, 59524, Note_on_c, 0, 33, 95
2, 59573, Note_on_c, 0, 33, 0
2, 59581, Note_on_c, 0, 45, 0
2, 59758, Control_c, 0, 64, 127
2, 59760, Note_on_c, 0, 52, 88
2, 59761, Note_on_c, 0, 57, 93
2, 59766, Note_on_c, 0, 45, 91
2, 59934, Note_on_c, 0, 45, 0
2, 59945, Note_on_c, 0, 45, 78
2, 59996, Note_on_c, 0, 52, 0
2, 60004, Note_on_c, 0, 52, 65
2, 60021, Note_on_c, 0, 60, 98
2, 60172, Note_on_c, 0, 76, 0
2, 60183, Note_on_c, 0, 76, 106
2, 60334, Note_on_c, 0, 45, 0
2, 60339, Note_on_c, 0, 45, 81
2, 60441, Note_on_c, 0, 78, 107
2, 60503, Note_on_c, 0, 52, 0
2, 60508, Note_on_c, 0, 52, 90
2, 60510, Note_on_c, 0, 60, 0
2, 60514, Note_on_c, 0, 60, 85
2, 60677, Note_on_c, 0, 79, 102
2, 60745, Control_c, 0, 64, 0
2, 60746, Note_on_c, 0, 52, 0
2, 60746, Note_on_c, 0, 78, 0
2, 60746, Note_on_c, 0, 57, 0
2, 60747, Note_on_c, 0, 69, 0
2, 60747, Note_on_c, 0, 72, 0
2, 60748, Note_on_c, 0, 76, 0
2, 60749, Note_on_c, 0, 60, 0
2, 60749, Note_on_c, 0, 79, 0
2, 60750, Note_on_c, 0, 45, 0
2, 60830, Note_on_c, 0, 79, 109
2, 60833, Note_on_c, 0, 47, 96
2, 60836, Note_on_c, 0, 35, 94
2, 60836, Note_on_c, 0, 69, 101
2, 60836, Note_on_c, 0, 74, 102
2, 60879, Note_on_c, 0, 35, 0
2, 60880, Note_on_c, 0, 47, 0
2, 61060, Note_on_c, 0, 57, 98
2, 61060, Note_on_c, 0, 54, 89
2, 61066, Note_on_c, 0, 47, 92
2, 61071, Control_c, 0, 64, 127
2, 61248, Note_on_c, 0, 47, 0
2, 61253, Note_on_c, 0, 47, 82
2, 61320, Note_on_c, 0, 78, 102
2, 61324, Note_on_c, 0, 57, 0
2, 61330, Note_on_c, 0, 62, 94
2, 61330, Note_on_c, 0, 57, 94
2, 61332, Note_on_c, 0, 54, 0
2, 61337, Note_on_c, 0, 54, 81
2, 61401, Note_on_c, 0, 76, 94
2, 61478, Note_on_c, 0, 78, 0
2, 61482, Note_on_c, 0, 78, 113
2, 61639, Note_on_c, 0, 47, 0
2, 61650, Note_on_c, 0, 47, 83
2, 61785, Note_on_c, 0, 62, 0
2, 61795, Note_on_c, 0, 62, 88
2, 61800, Note_on_c, 0, 54, 0
2, 61812, Note_on_c, 0, 54, 77
2, 61969, Note_on_c, 0, 78, 0
2, 61974, Note_on_c, 0, 78, 85
2, 61980, Note_on_c, 0, 66, 66
2, 61985, Note_on_c, 0, 66, 0
2, 62039, Note_on_c, 0, 79, 0
2, 62043, Note_on_c, 0, 79, 90
2, 62054, Note_on_c, 0, 69, 0
2, 62060, Note_on_c, 0, 54, 0
2, 62060, Note_on_c, 0, 57, 0
2, 62060, Control_c, 0, 64, 0
2, 62061, Note_on_c, 0, 62, 0
2, 62062, Note_on_c, 0, 74, 0
2, 62062, Note_on_c, 0, 76, 0
2, 62062, Note_on_c, 0, 47, 0
2, 62064, Note_on_c, 0, 78, 0
2, 62136, Note_on_c, 0, 81, 100
2, 62138, Note_on_c, 0, 79, 0
2, 62141, Note_on_c, 0, 72, 92
2, 62141, Note_on_c, 0, 76, 94
2, 62143, Note_on_c, 0, 54, 93
2, 62145, Note_on_c, 0, 42, 90
2, 62177, Control_c, 0, 64, 127
2, 62384, Note_on_c, 0, 81, 0
2, 62389, Note_on_c, 0, 81, 104
2, 62464, Note_on_c, 0, 64, 94
2, 62474, Note_on_c, 0, 57, 86
2, 62480, Note_on_c, 0, 60, 71
2, 62615, Note_on_c, 0, 76, 0
2, 62619, Note_on_c, 0, 76, 100
2, 62622, Note_on_c, 0, 42, 0
2, 62622, Note_on_c, 0, 72, 0
2, 62626, Note_on_c, 0, 72, 89
2, 62633, Note_on_c, 0, 42, 76
2, 62768, Note_on_c, 0, 54, 0
2, 62768, Note_on_c, 0, 76, 0
2, 62774, Note_on_c, 0, 76, 90
2, 62774, Note_on_c, 0, 54, 79
2, 62922, Note_on_c, 0, 42, 0
2, 62922, Note_on_c, 0, 76, 0
2, 62931, Note_on_c, 0, 76, 101
2, 62932, Note_on_c, 0, 42, 77
2, 63083, Note_on_c, 0, 57, 0
2, 63091, Note_on_c, 0, 64, 0
2, 63091, Note_on_c, 0, 72, 0
2, 63091, Note_on_c, 0, 76, 0
2, 63093, Note_on_c, 0, 57, 96
2, 63095, Note_on_c, 0, 76, 99
2, 63098, Note_on_c, 0, 64, 91
2, 63098, Note_on_c, 0, 60, 0
2, 63100, Note_on_c, 0, 72, 90
2, 63100, Note_on_c, 0, 54, 0
2, 63102, Note_on_c, 0, 60, 86
2, 63237, Note_on_c, 0, 76, 0
2, 63247, Note_on_c, 0, 76, 101
2, 63342, Note_on_c, 0, 81, 0
2, 63343, Note_on_c, 0, 64, 0
2, 63343, Note_on_c, 0, 72, 0
2, 63343, Note_on_c, 0, 60, 0
2, 63344, Note_on_c, 0, 76, 0
2, 63348, Control_c, 0, 64, 0
2, 63367, Note_on_c, 0, 42, 0
2, 63367, Note_on_c, 0, 57, 0
2, 63410, Note_on_c, 0, 59, 110
2, 63411, Note_on_c, 0, 47, 97
2, 63412, Note_on_c, 0, 75, 104
2, 63414, Note_on_c, 0, 66, 93
2, 63415, Note_on_c, 0, 71, 95
2, 63415, Note_on_c, 0, 54, 94
2, 63417, Note_on_c, 0, 51, 91
2, 63436, Control_c, 0, 64, 127
2, 63621, Note_on_c, 0, 66, 0
2, 63622, Note_on_c, 0, 51, 0
2, 63623, Note_on_c, 0, 59, 0
2, 63623, Note_on_c, 0, 54, 0
2, 63623, Note_on_c, 0, 75, 0
2, 63624, Control_c, 0, 64, 0
2, 63636, Note_on_c, 0, 47, 0
2, 63636, Note_on_c, 0, 71, 0
2, 63646, Note_on_c, 0, 47, 98
2, 63647, Note_on_c, 0, 35, 95
2, 63651, Note_on_c, 0, 76, 103
2, 63700, Note_on_c, 0, 35, 0
2, 63701, Note_on_c, 0, 47, 0
2, 63805, Note_on_c, 0, 76, 0
2, 63831, Note_on_c, 0, 35, 79
2, 63887, Note_on_c, 0, 78, 109
2, 63897, Note_on_c, 0, 47, 99
2, 63955, Note_on_c, 0, 78, 0
2, 63955, Note_on_c, 0, 35, 0
2, 63956, Note_on_c, 0, 47, 0
2, 64062, Note_on_c, 0, 86, 106
2, 64062, Note_on_c, 0, 78, 109
2, 64063, Note_on_c, 0, 74, 102
2, 64063, Note_on_c, 0, 48, 104
2, 64064, Note_on_c, 0, 36, 96
2, 64097, Control_c, 0, 64, 127
2, 64300, Note_on_c, 0, 84, 106
2, 64301, Note_on_c, 0, 60, 105
2, 64302, Note_on_c, 0, 72, 106
2, 64304, Note_on_c, 0, 48, 0
2, 64305, Note_on_c, 0, 52, 84
2, 64306, Note_on_c, 0, 55, 69
2, 64314, Note_on_c, 0, 48, 89
2, 64372, Note_on_c, 0, 78, 0
2, 64373, Note_on_c, 0, 74, 0
2, 64373, Control_c, 0, 64, 0
2, 64374, Note_on_c, 0, 86, 0
2, 64375, Note_on_c, 0, 72, 0
2, 64376, Note_on_c, 0, 48, 0
2, 64376, Note_on_c, 0, 84, 0
2, 64377, Note_on_c, 0, 60, 0
2, 64378, Note_on_c, 0, 52, 0
2, 64389, Note_on_c, 0, 36, 0
2, 64419, Note_on_c, 0, 55, 0
2, 64440, Note_on_c, 0, 48, 91
2, 64534, Note_on_c, 0, 81, 103
2, 64537, Note_on_c, 0, 69, 105
2, 64540, Note_on_c, 0, 52, 80
2, 64540, Note_on_c, 0, 55, 84
2, 64547, Note_on_c, 0, 60, 87
2, 64576, Note_on_c, 0, 69, 0
2, 64578, Note_on_c, 0, 81, 0
2, 64578, Note_on_c, 0, 48, 0
2, 64604, Note_on_c, 0, 52, 0
2, 64611, Note_on_c, 0, 55, 0
2, 64611, Note_on_c, 0, 60, 0
2, 64715, Note_on_c, 0, 83, 104
2, 64716, Note_on_c, 0, 62, 107
2, 64718, Note_on_c, 0, 74, 105
2, 64721, Note_on_c, 0, 78, 101
2, 64722, Note_on_c, 0, 71, 103
2, 64722, Note_on_c, 0, 50, 103
2, 64722, Note_on_c, 0, 57, 102
2, 64724, Note_on_c, 0, 54, 91
2, 64751, Note_on_c, 0, 62, 0
2, 64756, Note_on_c, 0, 50, 0
2, 64766, Note_on_c, 0, 54, 0
2, 64872, Note_on_c, 0, 57, 0
2, 64968, Note_on_c, 0, 38, 99
2, 64968, Note_on_c, 0, 50, 94
2, 64980, Control_c, 0, 64, 127
2, 65206, Note_on_c, 0, 54, 103
2, 65206, Note_on_c, 0, 62, 96
2, 65207, Note_on_c, 0, 38, 0
2, 65207, Note_on_c, 0, 78, 0
2, 65208, Note_on_c, 0, 74, 0
2, 65209, Note_on_c, 0, 83, 0
2, 65212, Note_on_c, 0, 57, 95
2, 65218, Note_on_c, 0, 71, 0
2, 65249, Control_c, 0, 64, 0
2, 65333, Control_c, 0, 64, 127
2, 65362, Note_on_c, 0, 71, 81
2, 65406, Note_on_c, 0, 74, 78
2, 65439, Note_on_c, 0, 78, 96
2, 65515, Note_on_c, 0, 83, 94
2, 65562, Note_on_c, 0, 86, 95
2, 65613, Note_on_c, 0, 90, 99
2, 65648, Note_on_c, 0, 83, 0
2, 65651, Note_on_c, 0, 95, 110
2, 65658, Note_on_c, 0, 83, 101
2, 65689, Note_on_c, 0, 38, 93
2, 65691, Note_on_c, 0, 26, 93
2, 65774, Note_on_c, 0, 86, 0
2, 65774, Note_on_c, 0, 83, 0
2, 65774, Note_on_c, 0, 78, 0
2, 65774, Note_on_c, 0, 71, 0
2, 65775, Note_on_c, 0, 95, 0
2, 65775, Note_on_c, 0, 62, 0
2, 65775, Note_on_c, 0, 90, 0
2, 65775, Note_on_c, 0, 38, 0
2, 65775, Note_on_c, 0, 54, 0
2, 65775, Note_on_c, 0, 57, 0
2, 65776, Note_on_c, 0, 26, 0
2, 65777, Control_c, 0, 64, 0
2, 65779, Note_on_c, 0, 50, 0
2, 65794, Note_on_c, 0, 74, 0
2, 65998, Note_on_c, 0, 83, 111
2, 65999, Note_on_c, 0, 71, 111
2, 65999, Note_on_c, 0, 40, 109
2, 66001, Note_on_c, 0, 28, 100
2, 66001, Note_on_c, 0, 76, 108
2, 66001, Control_c, 0, 64, 127
2, 66003, Note_on_c, 0, 79, 101
2, 66477, Note_on_c, 0, 64, 102
2, 66480, Note_on_c, 0, 52, 89
2, 66480, Note_on_c, 0, 59, 107
2, 66480, Note_on_c, 0, 55, 93
2, 66637, Note_on_c, 0, 81, 107
2, 66641, Note_on_c, 0, 69, 108
2, 66643, Note_on_c, 0, 74, 103
2, 66643, Note_on_c, 0, 78, 103
2, 66885, Note_on_c, 0, 74, 0
2, 66889, Note_on_c, 0, 86, 111
2, 66890, Note_on_c, 0, 74, 112
2, 66977, Note_on_c, 0, 55, 0
2, 66977, Note_on_c, 0, 59, 0
2, 66977, Note_on_c, 0, 64, 0
2, 66982, Note_on_c, 0, 64, 99
2, 66984, Note_on_c, 0, 59, 100
2, 66987, Note_on_c, 0, 55, 86
2, 66992, Note_on_c, 0, 52, 0
2, 66996, Note_on_c, 0, 52, 87
2, 67114, Note_on_c, 0, 84, 108
2, 67117, Note_on_c, 0, 72, 111
2, 67123, Note_on_c, 0, 83, 0
2, 67134, Note_on_c, 0, 83, 76
2, 67222, Note_on_c, 0, 40, 0
2, 67223, Note_on_c, 0, 52, 0
2, 67224, Note_on_c, 0, 74, 0
2, 67224, Note_on_c, 0, 69, 0
2, 67224, Note_on_c, 0, 81, 0
2, 67224, Note_on_c, 0, 64, 0
2, 67224, Note_on_c, 0, 59, 0
2, 67224, Note_on_c, 0, 71, 0
2, 67224, Note_on_c, 0, 83, 0
2, 67225, Note_on_c, 0, 72, 0
2, 67225, Note_on_c, 0, 55, 0
2, 67225, Note_on_c, 0, 76, 0
2, 67225, Control_c, 0, 64, 0
2, 67225, Note_on_c, 0, 79, 0
2, 67225, Note_on_c, 0, 78, 0
2, 67225, Note_on_c, 0, 86, 0
2, 67225, Note_on_c, 0, 84, 0
2, 67238, Note_on_c, 0, 28, 0
2, 67285, Note_on_c, 0, 83, 113
2, 67288, Note_on_c, 0, 79, 98
2, 67288, Note_on_c, 0, 71, 113
2, 67288, Note_on_c, 0, 24, 110
2, 67290, Note_on_c, 0, 76, 108
2, 67291, Note_on_c, 0, 36, 107
2, 67299, Control_c, 0, 64, 127
2, 67445, Note_on_c, 0, 24, 0
2, 67445, Note_on_c, 0, 36, 0
2, 67453, Note_on_c, 0, 24, 89
2, 67455, Note_on_c, 0, 36, 90
2, 67670, Note_on_c, 0, 50, 75
2, 67674, Note_on_c, 0, 48, 71
2, 67782, Note_on_c, 0, 55, 101
2, 67782, Note_on_c, 0, 60, 110
2, 67782, Note_on_c, 0, 52, 93
2, 67930, Note_on_c, 0, 81, 109
2, 67933, Note_on_c, 0, 69, 112
2, 67933, Note_on_c, 0, 78, 106
2, 67933, Note_on_c, 0, 74, 108
2, 68075, Note_on_c, 0, 48, 0
2, 68083, Note_on_c, 0, 48, 100
2, 68175, Note_on_c, 0, 52, 0
2, 68175, Note_on_c, 0, 74, 0
2, 68183, Note_on_c, 0, 24, 0
2, 68186, Note_on_c, 0, 52, 67
2, 68186, Note_on_c, 0, 86, 112
2, 68186, Note_on_c, 0, 74, 113
2, 68267, Note_on_c, 0, 52, 0
2, 68267, Note_on_c, 0, 55, 0
2, 68267, Note_on_c, 0, 60, 0
2, 68271, Note_on_c, 0, 52, 94
2, 68271, Note_on_c, 0, 60, 103
2, 68272, Note_on_c, 0, 55, 82
2, 68413, Note_on_c, 0, 72, 112
2, 68413, Note_on_c, 0, 84, 110
2, 68494, Control_c, 0, 64, 0
2, 68496, Note_on_c, 0, 81, 0
2, 68496, Note_on_c, 0, 69, 0
2, 68496, Note_on_c, 0, 52, 0
2, 68497, Note_on_c, 0, 71, 0
2, 68497, Note_on_c, 0, 83, 0
2, 68497, Note_on_c, 0, 76, 0
2, 68497, Note_on_c, 0, 60, 0
2, 68497, Note_on_c, 0, 55, 0
2, 68497, Note_on_c, 0, 79, 0
2, 68498, Note_on_c, 0, 50, 0
2, 68498, Note_on_c, 0, 48, 0
2, 68498, Note_on_c, 0, 86, 0
2, 68498, Note_on_c, 0, 78, 0
2, 68499, Note_on_c, 0, 36, 0
2, 68499, Note_on_c, 0, 72, 0
2, 68513, Note_on_c, 0, 74, 0
2, 68520, Note_on_c, 0, 84, 0
2, 68571, Note_on_c, 0, 83, 115
2, 68575, Note_on_c, 0, 71, 114
2, 68576, Note_on_c, 0, 43, 114
2, 68576, Note_on_c, 0, 74, 100
2, 68576, Note_on_c, 0, 31, 100
2, 68578, Note_on_c, 0, 79, 92
2, 68613, Control_c, 0, 64, 127
2, 68761, Note_on_c, 0, 50, 59
2, 68830, Note_on_c, 0, 55, 95
2, 68939, Note_on_c, 0, 59, 74
2, 68958, Note_on_c, 0, 55, 0
2, 68958, Note_on_c, 0, 74, 0
2, 68963, Note_on_c, 0, 74, 73
2, 68966, Note_on_c, 0, 55, 79
2, 69050, Note_on_c, 0, 59, 0
2, 69057, Note_on_c, 0, 62, 104
2, 69057, Note_on_c, 0, 67, 104
2, 69059, Note_on_c, 0, 59, 101
2, 69212, Note_on_c, 0, 67, 0
2, 69212, Note_on_c, 0, 71, 0
2, 69212, Note_on_c, 0, 74, 0
2, 69212, Note_on_c, 0, 79, 0
2, 69219, Note_on_c, 0, 79, 108
2, 69219, Note_on_c, 0, 74, 97
2, 69222, Note_on_c, 0, 67, 110
2, 69222, Note_on_c, 0, 71, 95
2, 69358, Note_on_c, 0, 55, 0
2, 69364, Note_on_c, 0, 55, 94
2, 69381, Note_on_c, 0, 43, 0
2, 69385, Note_on_c, 0, 43, 71
2, 69479, Note_on_c, 0, 81, 108
2, 69482, Note_on_c, 0, 69, 107
2, 69550, Note_on_c, 0, 59, 0
2, 69550, Note_on_c, 0, 62, 0
2, 69550, Note_on_c, 0, 67, 0
2, 69554, Note_on_c, 0, 67, 99
2, 69554, Note_on_c, 0, 62, 95
2, 69560, Note_on_c, 0, 59, 99
2, 69696, Note_on_c, 0, 71, 0
2, 69696, Note_on_c, 0, 83, 0
2, 69705, Note_on_c, 0, 83, 108
2, 69706, Note_on_c, 0, 71, 108
2, 69791, Note_on_c, 0, 55, 0
2, 69791, Note_on_c, 0, 81, 0
2, 69792, Note_on_c, 0, 43, 0
2, 69792, Note_on_c, 0, 62, 0
2, 69792, Note_on_c, 0, 74, 0
2, 69792, Note_on_c, 0, 50, 0
2, 69792, Note_on_c, 0, 69, 0
2, 69792, Note_on_c, 0, 67, 0
2, 69792, Note_on_c, 0, 83, 0
2, 69792, Note_on_c, 0, 79, 0
2, 69792, Note_on_c, 0, 59, 0
2, 69795, Control_c, 0, 64, 0
2, 69803, Note_on_c, 0, 31, 0
2, 69811, Note_on_c, 0, 71, 0
2, 69856, Note_on_c, 0, 83, 108
2, 69860, Note_on_c, 0, 71, 110
2, 69861, Note_on_c, 0, 73, 106
2, 69861, Note_on_c, 0, 76, 98
2, 69861, Note_on_c, 0, 45, 110
2, 69863, Note_on_c, 0, 33, 97
2, 69895, Control_c, 0, 64, 127
2, 70010, Note_on_c, 0, 45, 0
2, 70018, Note_on_c, 0, 33, 0
2, 70021, Note_on_c, 0, 45, 95
2, 70023, Note_on_c, 0, 33, 80
2, 70107, Note_on_c, 0, 81, 103
2, 70108, Note_on_c, 0, 69, 103
2, 70202, Note_on_c, 0, 45, 0
2, 70206, Note_on_c, 0, 57, 92
2, 70210, Note_on_c, 0, 45, 82
2, 70333, Note_on_c, 0, 73, 0
2, 70333, Note_on_c, 0, 76, 0
2, 70341, Note_on_c, 0, 69, 0
2, 70343, Note_on_c, 0, 76, 113
2, 70344, Note_on_c, 0, 73, 111
2, 70346, Note_on_c, 0, 69, 103
2, 70498, Note_on_c, 0, 64, 99
2, 70573, Note_on_c, 0, 61, 94
2, 70671, Note_on_c, 0, 57, 0
2, 70675, Note_on_c, 0, 57, 86
2, 70734, Note_on_c, 0, 52, 80
2, 70817, Note_on_c, 0, 45, 0
2, 70822, Note_on_c, 0, 45, 86
2, 70986, Note_on_c, 0, 45, 0
2, 70992, Note_on_c, 0, 45, 72
2, 70996, Note_on_c, 0, 78, 101
2, 71076, Note_on_c, 0, 79, 101
2, 71102, Control_c, 0, 64, 0
2, 71105, Note_on_c, 0, 76, 0
2, 71105, Note_on_c, 0, 61, 0
2, 71105, Note_on_c, 0, 57, 0
2, 71105, Note_on_c, 0, 33, 0
2, 71105, Note_on_c, 0, 69, 0
2, 71105, Note_on_c, 0, 64, 0
2, 71105, Note_on_c, 0, 52, 0
2, 71105, Note_on_c, 0, 71, 0
2, 71105, Note_on_c, 0, 81, 0
2, 71105, Note_on_c, 0, 78, 0
2, 71105, Note_on_c, 0, 45, 0
2, 71106, Note_on_c, 0, 83, 0
2, 71124, Note_on_c, 0, 73, 0
2, 71152, Note_on_c, 0, 48, 91
2, 71158, Note_on_c, 0, 81, 108
2, 71159, Note_on_c, 0, 76, 103
2, 71163, Note_on_c, 0, 72, 98
2, 71201, Control_c, 0, 64, 127
2, 71229, Note_on_c, 0, 55, 67
2, 71296, Note_on_c, 0, 60, 89
2, 71397, Note_on_c, 0, 62, 82
2, 71463, Note_on_c, 0, 64, 90
2, 71531, Note_on_c, 0, 72, 0
2, 71539, Note_on_c, 0, 79, 0
2, 71542, Note_on_c, 0, 72, 77
2, 71562, Note_on_c, 0, 60, 0
2, 71573, Note_on_c, 0, 60, 77
2, 71639, Note_on_c, 0, 64, 0
2, 71639, Note_on_c, 0, 76, 0
2, 71644, Note_on_c, 0, 79, 98
2, 71646, Note_on_c, 0, 76, 88
2, 71649, Note_on_c, 0, 64, 89
2, 71721, Note_on_c, 0, 78, 102
2, 71722, Note_on_c, 0, 67, 91
2, 71792, Note_on_c, 0, 72, 0
2, 71796, Note_on_c, 0, 74, 107
2, 71798, Note_on_c, 0, 72, 96
2, 71869, Note_on_c, 0, 67, 0
2, 71876, Note_on_c, 0, 67, 93
2, 71923, Note_on_c, 0, 64, 0
2, 71934, Note_on_c, 0, 64, 97
2, 72015, Note_on_c, 0, 60, 0
2, 72020, Note_on_c, 0, 60, 92
2, 72092, Note_on_c, 0, 48, 0
2, 72097, Note_on_c, 0, 48, 95
2, 72168, Note_on_c, 0, 55, 0
2, 72179, Note_on_c, 0, 55, 93
2, 72276, Note_on_c, 0, 60, 0
2, 72276, Note_on_c, 0, 79, 0
2, 72282, Note_on_c, 0, 79, 93
2, 72286, Note_on_c, 0, 60, 92
2, 72337, Note_on_c, 0, 81, 0
2, 72343, Note_on_c, 0, 81, 98
2, 72403, Control_c, 0, 64, 0
2, 72409, Note_on_c, 0, 67, 0
2, 72410, Note_on_c, 0, 62, 0
2, 72410, Note_on_c, 0, 55, 0
2, 72410, Note_on_c, 0, 76, 0
2, 72410, Note_on_c, 0, 64, 0
2, 72410, Note_on_c, 0, 72, 0
2, 72410, Note_on_c, 0, 81, 0
2, 72411, Note_on_c, 0, 48, 0
2, 72411, Note_on_c, 0, 60, 0
2, 72411, Note_on_c, 0, 78, 0
2, 72422, Note_on_c, 0, 74, 0
2, 72422, Note_on_c, 0, 79, 0
2, 72426, Note_on_c, 0, 84, 110
2, 72426, Note_on_c, 0, 43, 92
2, 72433, Note_on_c, 0, 79, 97
2, 72433, Note_on_c, 0, 74, 106
2, 72499, Control_c, 0, 64, 127
2, 72525, Note_on_c, 0, 50, 80
2, 72573, Note_on_c, 0, 55, 87
2, 72666, Note_on_c, 0, 57, 93
2, 72740, Note_on_c, 0, 59, 93
2, 72821, Note_on_c, 0, 55, 0
2, 72832, Note_on_c, 0, 55, 78
2, 72912, Note_on_c, 0, 83, 98
2, 72921, Note_on_c, 0, 59, 0
2, 72930, Note_on_c, 0, 59, 86
2, 72984, Note_on_c, 0, 81, 88
2, 72986, Note_on_c, 0, 62, 86
2, 73059, Note_on_c, 0, 74, 0
2, 73059, Note_on_c, 0, 83, 0
2, 73067, Note_on_c, 0, 83, 109
2, 73067, Note_on_c, 0, 79, 0
2, 73070, Note_on_c, 0, 74, 102
2, 73071, Note_on_c, 0, 67, 97
2, 73078, Note_on_c, 0, 79, 92
2, 73144, Note_on_c, 0, 62, 0
2, 73150, Note_on_c, 0, 62, 83
2, 73205, Note_on_c, 0, 59, 0
2, 73212, Note_on_c, 0, 59, 94
2, 73297, Note_on_c, 0, 55, 0
2, 73301, Note_on_c, 0, 55, 83
2, 73351, Note_on_c, 0, 43, 0
2, 73360, Note_on_c, 0, 43, 92
2, 73459, Note_on_c, 0, 50, 0
2, 73468, Note_on_c, 0, 50, 91
2, 73543, Note_on_c, 0, 83, 0
2, 73547, Note_on_c, 0, 83, 104
2, 73551, Note_on_c, 0, 55, 0
2, 73551, Note_on_c, 0, 74, 0
2, 73551, Note_on_c, 0, 79, 0
2, 73556, Note_on_c, 0, 79, 59
2, 73557, Note_on_c, 0, 55, 87
2, 73562, Note_on_c, 0, 74, 81
2, 73671, Note_on_c, 0, 57, 0
2, 73672, Note_on_c, 0, 74, 0
2, 73672, Note_on_c, 0, 67, 0
2, 73673, Note_on_c, 0, 84, 0
2, 73673, Note_on_c, 0, 62, 0
2, 73673, Note_on_c, 0, 55, 0
2, 73673, Note_on_c, 0, 50, 0
2, 73674, Note_on_c, 0, 59, 0
2, 73674, Note_on_c, 0, 79, 0
2, 73676, Note_on_c, 0, 43, 0
2, 73678, Control_c, 0, 64, 0
2, 73681, Note_on_c, 0, 81, 0
2, 73697, Note_on_c, 0, 83, 0
2, 73700, Note_on_c, 0, 45, 100
2, 73702, Note_on_c, 0, 83, 109
2, 73705, Note_on_c, 0, 72, 101
2, 73705, Note_on_c, 0, 76, 105
2, 73751, Control_c, 0, 64, 127
2, 73766, Note_on_c, 0, 52, 65
2, 73857, Note_on_c, 0, 57, 91
2, 73932, Note_on_c, 0, 81, 106
2, 74017, Note_on_c, 0, 69, 80
2, 74061, Note_on_c, 0, 64, 87
2, 74145, Note_on_c, 0, 60, 82
2, 74188, Note_on_c, 0, 57, 0
2, 74188, Note_on_c, 0, 76, 0
2, 74195, Note_on_c, 0, 76, 106
2, 74195, Note_on_c, 0, 57, 96
2, 74309, Note_on_c, 0, 81, 0
2, 74309, Note_on_c, 0, 57, 0
2, 74310, Note_on_c, 0, 52, 0
2, 74311, Note_on_c, 0, 69, 0
2, 74311, Note_on_c, 0, 60, 0
2, 74311, Note_on_c, 0, 83, 0
2, 74311, Note_on_c, 0, 72, 0
2, 74312, Note_on_c, 0, 64, 0
2, 74318, Control_c, 0, 64, 0
2, 74323, Note_on_c, 0, 46, 93
2, 74327, Note_on_c, 0, 45, 0
2, 74380, Control_c, 0, 64, 127
2, 74403, Note_on_c, 0, 54, 88
2, 74480, Note_on_c, 0, 76, 0
2, 74481, Note_on_c, 0, 58, 97
2, 74490, Note_on_c, 0, 76, 98
2, 74562, Note_on_c, 0, 61, 94
2, 74645, Note_on_c, 0, 78, 110
2, 74647, Note_on_c, 0, 70, 103
2, 74694, Note_on_c, 0, 65, 59
2, 74696, Note_on_c, 0, 64, 57
2, 74734, Note_on_c, 0, 64, 0
2, 74743, Note_on_c, 0, 64, 71
2, 74757, Note_on_c, 0, 58, 0
2, 74761, Note_on_c, 0, 58, 84
2, 74805, Note_on_c, 0, 79, 111
2, 74924, Control_c, 0, 64, 0
2, 74927, Note_on_c, 0, 64, 0
2, 74927, Note_on_c, 0, 61, 0
2, 74928, Note_on_c, 0, 58, 0
2, 74928, Note_on_c, 0, 76, 0
2, 74928, Note_on_c, 0, 70, 0
2, 74928, Note_on_c, 0, 78, 0
2, 74928, Note_on_c, 0, 54, 0
2, 74941, Note_on_c, 0, 65, 0
2, 74945, Note_on_c, 0, 47, 108
2, 74949, Note_on_c, 0, 46, 0
2, 74949, Note_on_c, 0, 79, 0
2, 74953, Note_on_c, 0, 79, 107
2, 74958, Note_on_c, 0, 75, 102
2, 74959, Note_on_c, 0, 71, 101
2, 74995, Control_c, 0, 64, 127
2, 75030, Note_on_c, 0, 54, 54
2, 75107, Note_on_c, 0, 59, 91
2, 75202, Note_on_c, 0, 61, 54
2, 75264, Note_on_c, 0, 63, 87
2, 75340, Note_on_c, 0, 59, 0
2, 75347, Note_on_c, 0, 59, 90
2, 75409, Note_on_c, 0, 63, 0
2, 75419, Note_on_c, 0, 63, 88
2, 75420, Note_on_c, 0, 78, 108
2, 75477, Note_on_c, 0, 66, 43
2, 75571, Note_on_c, 0, 71, 0
2, 75571, Note_on_c, 0, 75, 0
2, 75571, Note_on_c, 0, 78, 0
2, 75573, Note_on_c, 0, 84, 102
2, 75576, Note_on_c, 0, 71, 97
2, 75578, Note_on_c, 0, 75, 101
2, 75580, Note_on_c, 0, 78, 100
2, 75581, Note_on_c, 0, 83, 95
2, 75724, Note_on_c, 0, 59, 0
2, 75736, Note_on_c, 0, 59, 92
2, 75793, Note_on_c, 0, 54, 0
2, 75803, Note_on_c, 0, 54, 90
2, 75878, Note_on_c, 0, 83, 0
2, 75886, Note_on_c, 0, 75, 0
2, 75886, Note_on_c, 0, 78, 0
2, 75888, Note_on_c, 0, 83, 106
2, 75890, Note_on_c, 0, 78, 108
2, 75891, Note_on_c, 0, 75, 101
2, 75893, Note_on_c, 0, 47, 0
2, 75900, Note_on_c, 0, 47, 101
2, 76047, Note_on_c, 0, 54, 0
2, 76051, Note_on_c, 0, 54, 97
2, 76115, Note_on_c, 0, 79, 0
2, 76116, Note_on_c, 0, 54, 0
2, 76116, Note_on_c, 0, 78, 0
2, 76117, Note_on_c, 0, 71, 0
2, 76117, Note_on_c, 0, 47, 0
2, 76117, Note_on_c, 0, 66, 0
2, 76117, Note_on_c, 0, 61, 0
2, 76117, Note_on_c, 0, 63, 0
2, 76118, Control_c, 0, 64, 0
2, 76118, Note_on_c, 0, 75, 0
2, 76118, Note_on_c, 0, 83, 0
2, 76118, Note_on_c, 0, 84, 0
2, 76139, Note_on_c, 0, 59, 0
2, 76208, Control_c, 0, 64, 127
2, 76210, Note_on_c, 0, 83, 112
2, 76211, Note_on_c, 0, 71, 112
2, 76212, Note_on_c, 0, 76, 107
2, 76213, Note_on_c, 0, 79, 101
2, 76215, Note_on_c, 0, 28, 101
2, 76215, Note_on_c, 0, 40, 110
2, 76465, Note_on_c, 0, 52, 89
2, 76592, Note_on_c, 0, 52, 0
2, 76597, Note_on_c, 0, 52, 64
2, 76690, Note_on_c, 0, 64, 103
2, 76694, Note_on_c, 0, 59, 105
2, 76695, Note_on_c, 0, 55, 93
2, 76849, Note_on_c, 0, 81, 108
2, 76850, Note_on_c, 0, 69, 106
2, 76852, Note_on_c, 0, 74, 107
2, 76852, Note_on_c, 0, 78, 104
2, 76999, Note_on_c, 0, 52, 0
2, 77006, Note_on_c, 0, 52, 81
2, 77099, Note_on_c, 0, 74, 0
2, 77103, Note_on_c, 0, 86, 112
2, 77105, Note_on_c, 0, 74, 107
2, 77191, Note_on_c, 0, 55, 0
2, 77191, Note_on_c, 0, 59, 0
2, 77191, Note_on_c, 0, 64, 0
2, 77195, Note_on_c, 0, 59, 103
2, 77196, Note_on_c, 0, 64, 103
2, 77199, Note_on_c, 0, 55, 84
2, 77338, Note_on_c, 0, 84, 108
2, 77340, Note_on_c, 0, 72, 110
2, 77409, Note_on_c, 0, 81, 0
2, 77409, Note_on_c, 0, 40, 0
2, 77410, Note_on_c, 0, 64, 0
2, 77410, Note_on_c, 0, 59, 0
2, 77410, Note_on_c, 0, 71, 0
2, 77410, Note_on_c, 0, 74, 0
2, 77410, Note_on_c, 0, 83, 0
2, 77410, Note_on_c, 0, 69, 0
2, 77410, Note_on_c, 0, 33, 81
2, 77410, Note_on_c, 0, 76, 0
2, 77410, Note_on_c, 0, 55, 0
2, 77410, Note_on_c, 0, 86, 0
2, 77410, Note_on_c, 0, 79, 0
2, 77410, Note_on_c, 0, 78, 0
2, 77411, Control_c, 0, 64, 0
2, 77411, Note_on_c, 0, 84, 0
2, 77411, Note_on_c, 0, 72, 0
2, 77412, Note_on_c, 0, 32, 78
2, 77422, Note_on_c, 0, 28, 0
2, 77422, Note_on_c, 0, 32, 0
2, 77429, Note_on_c, 0, 52, 0
2, 77452, Note_on_c, 0, 33, 0
2, 77491, Control_c, 0, 64, 127
2, 77495, Note_on_c, 0, 83, 111
2, 77495, Note_on_c, 0, 74, 109
2, 77496, Note_on_c, 0, 71, 109
2, 77500, Note_on_c, 0, 42, 107
2, 77500, Note_on_c, 0, 30, 103
2, 77500, Note_on_c, 0, 78, 102
2, 77661, Note_on_c, 0, 54, 79
2, 77742, Note_on_c, 0, 50, 89
2, 77744, Note_on_c, 0, 54, 0
2, 77749, Note_on_c, 0, 54, 89
2, 77905, Note_on_c, 0, 42, 0
2, 77905, Note_on_c, 0, 54, 0
2, 77911, Note_on_c, 0, 42, 66
2, 77911, Note_on_c, 0, 54, 74
2, 77992, Note_on_c, 0, 66, 104
2, 77992, Note_on_c, 0, 57, 100
2, 77993, Note_on_c, 0, 62, 101
2, 78144, Note_on_c, 0, 74, 0
2, 78151, Note_on_c, 0, 78, 0
2, 78152, Note_on_c, 0, 81, 108
2, 78154, Note_on_c, 0, 74, 109
2, 78155, Note_on_c, 0, 69, 108
2, 78156, Note_on_c, 0, 78, 104
2, 78305, Note_on_c, 0, 54, 0
2, 78309, Note_on_c, 0, 54, 91
2, 78405, Note_on_c, 0, 74, 0
2, 78412, Note_on_c, 0, 86, 110
2, 78413, Note_on_c, 0, 74, 111
2, 78497, Note_on_c, 0, 57, 0
2, 78497, Note_on_c, 0, 62, 0
2, 78497, Note_on_c, 0, 66, 0
2, 78502, Note_on_c, 0, 66, 104
2, 78507, Note_on_c, 0, 57, 101
2, 78507, Note_on_c, 0, 62, 102
2, 78639, Note_on_c, 0, 72, 114
2, 78639, Note_on_c, 0, 84, 108
2, 78700, Note_on_c, 0, 71, 0
2, 78700, Note_on_c, 0, 83, 0
2, 78701, Note_on_c, 0, 42, 0
2, 78701, Note_on_c, 0, 69, 0
2, 78701, Note_on_c, 0, 50, 0
2, 78701, Note_on_c, 0, 62, 0
2, 78701, Note_on_c, 0, 81, 0
2, 78701, Note_on_c, 0, 74, 0
2, 78701, Note_on_c, 0, 57, 0
2, 78701, Note_on_c, 0, 78, 0
2, 78701, Note_on_c, 0, 54, 0
2, 78701, Note_on_c, 0, 86, 0
2, 78702, Note_on_c, 0, 84, 0
2, 78702, Note_on_c, 0, 66, 0
2, 78702, Note_on_c, 0, 72, 0
2, 78702, Control_c, 0, 64, 0
2, 78704, Note_on_c, 0, 30, 0
2, 78796, Control_c, 0, 64, 127
2, 78806, Note_on_c, 0, 83, 114
2, 78806, Note_on_c, 0, 62, 107
2, 78808, Note_on_c, 0, 65, 91
2, 78808, Note_on_c, 0, 71, 110
2, 78812, Note_on_c, 0, 65, 0
2, 78812, Note_on_c, 0, 74, 100
2, 78815, Note_on_c, 0, 79, 92
2, 78815, Note_on_c, 0, 31, 97
2, 78821, Note_on_c, 0, 43, 103
2, 78950, Note_on_c, 0, 43, 0
2, 78960, Note_on_c, 0, 43, 96
2, 79037, Note_on_c, 0, 55, 97
2, 79165, Note_on_c, 0, 55, 0
2, 79175, Note_on_c, 0, 55, 72
2, 79280, Note_on_c, 0, 62, 0
2, 79284, Note_on_c, 0, 67, 103
2, 79284, Note_on_c, 0, 62, 97
2, 79286, Note_on_c, 0, 59, 100
2, 79434, Note_on_c, 0, 71, 0
2, 79434, Note_on_c, 0, 74, 0
2, 79434, Note_on_c, 0, 83, 0
2, 79441, Note_on_c, 0, 79, 0
2, 79445, Note_on_c, 0, 83, 108
2, 79445, Note_on_c, 0, 71, 108
2, 79445, Note_on_c, 0, 74, 103
2, 79446, Note_on_c, 0, 79, 94
2, 79595, Note_on_c, 0, 55, 0
2, 79603, Note_on_c, 0, 55, 88
2, 79695, Note_on_c, 0, 71, 0
2, 79697, Note_on_c, 0, 88, 110
2, 79698, Note_on_c, 0, 76, 113
2, 79703, Note_on_c, 0, 71, 83
2, 79787, Note_on_c, 0, 67, 0
2, 79793, Note_on_c, 0, 67, 97
2, 79795, Note_on_c, 0, 55, 0
2, 79795, Note_on_c, 0, 59, 0
2, 79795, Note_on_c, 0, 62, 0
2, 79799, Note_on_c, 0, 55, 84
2, 79799, Note_on_c, 0, 62, 83
2, 79805, Note_on_c, 0, 59, 84
2, 79918, Note_on_c, 0, 71, 0
2, 79918, Note_on_c, 0, 83, 0
2, 79928, Note_on_c, 0, 83, 106
2, 79929, Note_on_c, 0, 71, 106
2, 80019, Note_on_c, 0, 55, 0
2, 80020, Note_on_c, 0, 62, 0
2, 80020, Note_on_c, 0, 59, 0
2, 80020, Note_on_c, 0, 67, 0
2, 80020, Note_on_c, 0, 88, 0
2, 80020, Note_on_c, 0, 79, 0
2, 80021, Note_on_c, 0, 76, 0
2, 80021, Note_on_c, 0, 31, 0
2, 80024, Control_c, 0, 64, 0
2, 80033, Note_on_c, 0, 74, 0
2, 80040, Note_on_c, 0, 43, 0
2, 80040, Note_on_c, 0, 71, 0
2, 80040, Note_on_c, 0, 83, 0
2, 80084, Note_on_c, 0, 86, 112
2, 80086, Note_on_c, 0, 45, 106
2, 80088, Note_on_c, 0, 33, 101
2, 80088, Note_on_c, 0, 74, 111
2, 80102, Control_c, 0, 64, 127
2, 80232, Note_on_c, 0, 33, 0
2, 80232, Note_on_c, 0, 45, 0
2, 80242, Note_on_c, 0, 45, 96
2, 80243, Note_on_c, 0, 33, 79
2, 80332, Note_on_c, 0, 45, 0
2, 80334, Note_on_c, 0, 85, 105
2, 80335, Note_on_c, 0, 73, 105
2, 80338, Note_on_c, 0, 45, 85
2, 80455, Note_on_c, 0, 45, 0
2, 80463, Note_on_c, 0, 57, 89
2, 80463, Note_on_c, 0, 45, 83
2, 80570, Note_on_c, 0, 73, 0
2, 80577, Note_on_c, 0, 81, 110
2, 80581, Note_on_c, 0, 76, 92
2, 80582, Note_on_c, 0, 73, 103
2, 80583, Note_on_c, 0, 69, 96
2, 80622, Note_on_c, 0, 40, 47
2, 80742, Note_on_c, 0, 64, 93
2, 80796, Note_on_c, 0, 61, 86
2, 80819, Note_on_c, 0, 52, 60
2, 80885, Note_on_c, 0, 57, 0
2, 80889, Note_on_c, 0, 57, 84
2, 80970, Note_on_c, 0, 52, 0
2, 80974, Note_on_c, 0, 52, 76
2, 81039, Note_on_c, 0, 45, 0
2, 81048, Note_on_c, 0, 45, 86
2, 81231, Note_on_c, 0, 76, 0
2, 81237, Note_on_c, 0, 76, 89
2, 81277, Note_on_c, 0, 40, 0
2, 81283, Control_c, 0, 64, 0
2, 81285, Note_on_c, 0, 52, 0
2, 81285, Note_on_c, 0, 74, 0
2, 81286, Note_on_c, 0, 61, 0
2, 81286, Note_on_c, 0, 69, 0
2, 81286, Note_on_c, 0, 57, 0
2, 81286, Note_on_c, 0, 85, 0
2, 81286, Note_on_c, 0, 73, 0
2, 81286, Note_on_c, 0, 81, 0
2, 81286, Note_on_c, 0, 64, 0
2, 81287, Note_on_c, 0, 33, 0
2, 81288, Note_on_c, 0, 86, 0
2, 81289, Note_on_c, 0, 76, 0
2, 81295, Note_on_c, 0, 78, 91
2, 81296, Note_on_c, 0, 52, 55
2, 81346, Note_on_c, 0, 45, 0
2, 81361, Note_on_c, 0, 52, 0
2, 81381, Note_on_c, 0, 48, 81
2, 81384, Note_on_c, 0, 79, 101
2, 81386, Note_on_c, 0, 76, 91
2, 81386, Note_on_c, 0, 72, 90
2, 81423, Control_c, 0, 64, 127
2, 81473, Note_on_c, 0, 55, 78
2, 81492, Note_on_c, 0, 78, 0
2, 81554, Note_on_c, 0, 60, 75
2, 81623, Note_on_c, 0, 76, 0
2, 81628, Note_on_c, 0, 62, 84
2, 81631, Note_on_c, 0, 76, 87
2, 81719, Note_on_c, 0, 64, 78
2, 81815, Note_on_c, 0, 62, 0
2, 81821, Note_on_c, 0, 62, 67
2, 81884, Note_on_c, 0, 72, 0
2, 81884, Note_on_c, 0, 76, 0
2, 81888, Note_on_c, 0, 83, 99
2, 81889, Note_on_c, 0, 84, 91
2, 81889, Note_on_c, 0, 72, 94
2, 81892, Note_on_c, 0, 76, 96
2, 81901, Note_on_c, 0, 59, 75
2, 81953, Note_on_c, 0, 55, 0
2, 81958, Note_on_c, 0, 55, 63
2, 81988, Note_on_c, 0, 48, 0
2, 81993, Note_on_c, 0, 62, 0
2, 81994, Note_on_c, 0, 64, 0
2, 81994, Note_on_c, 0, 79, 0
2, 81995, Control_c, 0, 64, 0
2, 82007, Note_on_c, 0, 60, 0
2, 82022, Note_on_c, 0, 55, 0
2, 82030, Note_on_c, 0, 59, 0
2, 82041, Note_on_c, 0, 48, 90
2, 82045, Note_on_c, 0, 84, 0
2, 82083, Control_c, 0, 64, 127
2, 82135, Note_on_c, 0, 55, 75
2, 82202, Note_on_c, 0, 60, 86
2, 82206, Note_on_c, 0, 72, 0
2, 82210, Note_on_c, 0, 81, 94
2, 82212, Note_on_c, 0, 72, 78
2, 82295, Note_on_c, 0, 62, 85
2, 82360, Note_on_c, 0, 81, 0
2, 82371, Note_on_c, 0, 81, 96
2, 82373, Note_on_c, 0, 64, 84
2, 82429, Note_on_c, 0, 62, 0
2, 82435, Note_on_c, 0, 62, 76
2, 82513, Note_on_c, 0, 60, 0
2, 82513, Note_on_c, 0, 83, 0
2, 82518, Note_on_c, 0, 60, 80
2, 82521, Note_on_c, 0, 83, 99
2, 82606, Note_on_c, 0, 55, 0
2, 82613, Note_on_c, 0, 55, 68
2, 82667, Note_on_c, 0, 81, 0
2, 82671, Note_on_c, 0, 81, 99
2, 82672, Note_on_c, 0, 74, 97
2, 82673, Note_on_c, 0, 71, 92
2, 82673, Note_on_c, 0, 47, 90
2, 82679, Note_on_c, 0, 64, 0
2, 82679, Note_on_c, 0, 72, 0
2, 82679, Note_on_c, 0, 55, 0
2, 82679, Note_on_c, 0, 62, 0
2, 82680, Note_on_c, 0, 83, 0
2, 82680, Note_on_c, 0, 60, 0
2, 82680, Note_on_c, 0, 48, 0
2, 82686, Control_c, 0, 64, 0
2, 82698, Note_on_c, 0, 76, 0
2, 82749, Note_on_c, 0, 55, 75
2, 82759, Control_c, 0, 64, 127
2, 82834, Note_on_c, 0, 59, 91
2, 82920, Note_on_c, 0, 74, 0
2, 82923, Note_on_c, 0, 79, 94
2, 82925, Note_on_c, 0, 62, 82
2, 82931, Note_on_c, 0, 74, 75
2, 82990, Note_on_c, 0, 67, 87
2, 83051, Note_on_c, 0, 62, 0
2, 83057, Note_on_c, 0, 62, 88
2, 83151, Note_on_c, 0, 59, 0
2, 83151, Note_on_c, 0, 74, 0
2, 83155, Note_on_c, 0, 59, 95
2, 83155, Note_on_c, 0, 78, 100
2, 83159, Note_on_c, 0, 71, 0
2, 83160, Note_on_c, 0, 74, 96
2, 83163, Note_on_c, 0, 71, 84
2, 83212, Note_on_c, 0, 55, 0
2, 83223, Note_on_c, 0, 55, 75
2, 83304, Note_on_c, 0, 47, 0
2, 83315, Note_on_c, 0, 47, 93
2, 83320, Control_c, 0, 64, 0
2, 83343, Control_c, 0, 64, 127
2, 83389, Note_on_c, 0, 55, 0
2, 83395, Note_on_c, 0, 55, 84
2, 83450, Note_on_c, 0, 59, 0
2, 83458, Note_on_c, 0, 59, 92
2, 83489, Note_on_c, 0, 79, 0
2, 83494, Note_on_c, 0, 79, 100
2, 83543, Note_on_c, 0, 62, 0
2, 83551, Note_on_c, 0, 62, 75
2, 83619, Note_on_c, 0, 67, 0
2, 83625, Note_on_c, 0, 67, 82
2, 83665, Note_on_c, 0, 62, 0
2, 83674, Note_on_c, 0, 62, 91
2, 83758, Note_on_c, 0, 59, 0
2, 83768, Note_on_c, 0, 59, 94
2, 83788, Note_on_c, 0, 78, 0
2, 83793, Note_on_c, 0, 78, 102
2, 83834, Note_on_c, 0, 55, 0
2, 83845, Note_on_c, 0, 55, 82
2, 83938, Note_on_c, 0, 71, 0
2, 83939, Note_on_c, 0, 67, 0
2, 83939, Note_on_c, 0, 62, 0
2, 83939, Note_on_c, 0, 74, 0
2, 83946, Note_on_c, 0, 78, 0
2, 83948, Control_c, 0, 64, 0
2, 83949, Note_on_c, 0, 48, 93
2, 83950, Note_on_c, 0, 47, 0
2, 83950, Note_on_c, 0, 59, 0
2, 83950, Note_on_c, 0, 79, 0
2, 83950, Note_on_c, 0, 81, 0
2, 83954, Note_on_c, 0, 79, 105
2, 83957, Note_on_c, 0, 55, 0
2, 83959, Note_on_c, 0, 72, 98
2, 83960, Note_on_c, 0, 76, 100
2, 84011, Control_c, 0, 64, 127
2, 84030, Note_on_c, 0, 55, 60
2, 84107, Note_on_c, 0, 60, 89
2, 84196, Note_on_c, 0, 81, 106
2, 84210, Note_on_c, 0, 62, 93
2, 84298, Note_on_c, 0, 64, 83
2, 84385, Note_on_c, 0, 67, 77
2, 84426, Note_on_c, 0, 72, 0
2, 84433, Note_on_c, 0, 79, 0
2, 84434, Note_on_c, 0, 72, 100
2, 84439, Note_on_c, 0, 79, 105
2, 84522, Note_on_c, 0, 74, 88
2, 84610, Note_on_c, 0, 76, 0
2, 84615, Note_on_c, 0, 76, 87
2, 84672, Note_on_c, 0, 74, 0
2, 84676, Note_on_c, 0, 74, 78
2, 84748, Note_on_c, 0, 72, 0
2, 84756, Note_on_c, 0, 72, 98
2, 84758, Note_on_c, 0, 91, 102
2, 84833, Note_on_c, 0, 67, 0
2, 84838, Note_on_c, 0, 90, 93
2, 84839, Note_on_c, 0, 67, 86
2, 84910, Note_on_c, 0, 64, 0
2, 84917, Note_on_c, 0, 64, 83
2, 84922, Note_on_c, 0, 86, 87
2, 84971, Note_on_c, 0, 62, 0
2, 84971, Note_on_c, 0, 81, 0
2, 84976, Note_on_c, 0, 62, 86
2, 84977, Note_on_c, 0, 81, 79
2, 85048, Note_on_c, 0, 60, 0
2, 85057, Note_on_c, 0, 60, 88
2, 85059, Note_on_c, 0, 78, 90
2, 85132, Note_on_c, 0, 74, 0
2, 85140, Note_on_c, 0, 74, 85
2, 85144, Note_on_c, 0, 57, 82
2, 85201, Note_on_c, 0, 79, 0
2, 85207, Note_on_c, 0, 50, 90
2, 85212, Note_on_c, 0, 79, 99
2, 85219, Note_on_c, 0, 91, 0
2, 85221, Note_on_c, 0, 76, 0
2, 85221, Note_on_c, 0, 67, 0
2, 85221, Control_c, 0, 64, 0
2, 85221, Note_on_c, 0, 90, 0
2, 85221, Note_on_c, 0, 86, 0
2, 85221, Note_on_c, 0, 55, 0
2, 85221, Note_on_c, 0, 81, 0
2, 85221, Note_on_c, 0, 60, 0
2, 85221, Note_on_c, 0, 72, 0
2, 85221, Note_on_c, 0, 62, 0
2, 85221, Note_on_c, 0, 64, 0
2, 85222, Note_on_c, 0, 74, 0
2, 85222, Note_on_c, 0, 78, 0
2, 85223, Note_on_c, 0, 48, 0
2, 85286, Note_on_c, 0, 57, 0
2, 85290, Note_on_c, 0, 78, 94
2, 85293, Note_on_c, 0, 57, 95
2, 85301, Control_c, 0, 64, 127
2, 85367, Note_on_c, 0, 74, 92
2, 85374, Note_on_c, 0, 62, 93
2, 85441, Note_on_c, 0, 69, 88
2, 85463, Note_on_c, 0, 64, 87
2, 85535, Note_on_c, 0, 66, 88
2, 85616, Note_on_c, 0, 69, 0
2, 85625, Note_on_c, 0, 69, 88
2, 85670, Note_on_c, 0, 62, 0
2, 85681, Note_on_c, 0, 62, 100
2, 85701, Note_on_c, 0, 74, 0
2, 85707, Note_on_c, 0, 74, 90
2, 85777, Note_on_c, 0, 78, 0
2, 85787, Note_on_c, 0, 78, 90
2, 85808, Note_on_c, 0, 57, 0
2, 85812, Note_on_c, 0, 57, 98
2, 85830, Note_on_c, 0, 81, 93
2, 85922, Note_on_c, 0, 86, 91
2, 85962, Note_on_c, 0, 50, 0
2, 85967, Note_on_c, 0, 50, 90
2, 85973, Note_on_c, 0, 90, 96
2, 86060, Note_on_c, 0, 93, 92
2, 86105, Note_on_c, 0, 98, 114
2, 86123, Note_on_c, 0, 50, 0
2, 86123, Note_on_c, 0, 86, 0
2, 86128, Note_on_c, 0, 86, 79
2, 86128, Note_on_c, 0, 50, 91
2, 86132, Note_on_c, 0, 38, 98
2, 86257, Note_on_c, 0, 98, 0
2, 86257, Note_on_c, 0, 93, 0
2, 86257, Note_on_c, 0, 86, 0
2, 86257, Note_on_c, 0, 90, 0
2, 86257, Note_on_c, 0, 74, 0
2, 86258, Note_on_c, 0, 69, 0
2, 86258, Note_on_c, 0, 38, 0
2, 86258, Note_on_c, 0, 81, 0
2, 86258, Note_on_c, 0, 79, 0
2, 86258, Note_on_c, 0, 50, 0
2, 86258, Note_on_c, 0, 57, 0
2, 86259, Note_on_c, 0, 64, 0
2, 86266, Control_c, 0, 64, 0
2, 86269, Note_on_c, 0, 62, 0
2, 86269, Note_on_c, 0, 66, 0
2, 86269, Note_on_c, 0, 78, 0
2, 86273, Note_on_c, 0, 78, 110
2, 86276, Note_on_c, 0, 66, 106
2, 86320, Note_on_c, 0, 66, 0
2, 86325, Note_on_c, 0, 78, 0
2, 86424, Note_on_c, 0, 79, 109
2, 86425, Note_on_c, 0, 67, 110
2, 86426, Note_on_c, 0, 47, 107
2, 86426, Note_on_c, 0, 35, 103
2, 86427, Note_on_c, 0, 74, 101
2, 86427, Note_on_c, 0, 71, 100
2, 86453, Control_c, 0, 64, 127
2, 86584, Note_on_c, 0, 35, 0
2, 86588, Note_on_c, 0, 35, 75
2, 86592, Note_on_c, 0, 71, 0
2, 86593, Note_on_c, 0, 74, 0
2, 86593, Control_c, 0, 64, 0
2, 86594, Note_on_c, 0, 67, 0
2, 86595, Note_on_c, 0, 79, 0
2, 86596, Note_on_c, 0, 47, 0
2, 86667, Note_on_c, 0, 64, 102
2, 86668, Note_on_c, 0, 76, 109
2, 86702, Note_on_c, 0, 47, 74
2, 86702, Note_on_c, 0, 64, 0
2, 86714, Note_on_c, 0, 76, 0
2, 86735, Note_on_c, 0, 47, 0
2, 86753, Note_on_c, 0, 35, 0
2, 86811, Note_on_c, 0, 36, 89
2, 86853, Control_c, 0, 64, 127
2, 86868, Control_c, 0, 64, 0
2, 86895, Note_on_c, 0, 83, 107
2, 86899, Note_on_c, 0, 36, 0
2, 86900, Note_on_c, 0, 71, 110
2, 86902, Note_on_c, 0, 79, 98
2, 86902, Note_on_c, 0, 48, 101
2, 86903, Note_on_c, 0, 76, 100
2, 86910, Note_on_c, 0, 36, 92
2, 86952, Control_c, 0, 64, 127
2, 87183, Note_on_c, 0, 48, 0
2, 87190, Note_on_c, 0, 81, 106
2, 87192, Note_on_c, 0, 69, 106
2, 87194, Note_on_c, 0, 48, 88
2, 87344, Note_on_c, 0, 69, 0
2, 87344, Note_on_c, 0, 81, 0
2, 87353, Note_on_c, 0, 52, 90
2, 87354, Note_on_c, 0, 81, 102
2, 87355, Note_on_c, 0, 69, 107
2, 87356, Note_on_c, 0, 60, 95
2, 87356, Note_on_c, 0, 78, 99
2, 87357, Note_on_c, 0, 55, 87
2, 87448, Note_on_c, 0, 79, 0
2, 87448, Note_on_c, 0, 81, 0
2, 87448, Note_on_c, 0, 78, 0
2, 87448, Note_on_c, 0, 76, 0
2, 87449, Note_on_c, 0, 71, 0
2, 87449, Note_on_c, 0, 52, 0
2, 87449, Note_on_c, 0, 83, 0
2, 87449, Note_on_c, 0, 69, 0
2, 87449, Control_c, 0, 64, 0
2, 87450, Note_on_c, 0, 60, 0
2, 87467, Note_on_c, 0, 36, 0
2, 87467, Note_on_c, 0, 55, 0
2, 87475, Note_on_c, 0, 48, 0
2, 87503, Note_on_c, 0, 86, 106
2, 87504, Note_on_c, 0, 74, 102
2, 87527, Note_on_c, 0, 74, 0
2, 87533, Note_on_c, 0, 86, 0
2, 87646, Note_on_c, 0, 50, 107
2, 87647, Note_on_c, 0, 38, 105
2, 87649, Note_on_c, 0, 71, 110
2, 87649, Note_on_c, 0, 83, 109
2, 87651, Control_c, 0, 64, 127
2, 87655, Note_on_c, 0, 74, 104
2, 87657, Note_on_c, 0, 78, 100
2, 87920, Note_on_c, 0, 54, 83
2, 87995, Note_on_c, 0, 57, 73
2, 88044, Note_on_c, 0, 62, 93
2, 88150, Note_on_c, 0, 66, 92
2, 88205, Note_on_c, 0, 69, 100
2, 88289, Note_on_c, 0, 83, 0
2, 88291, Note_on_c, 0, 62, 0
2, 88291, Control_c, 0, 64, 0
2, 88291, Note_on_c, 0, 66, 0
2, 88292, Note_on_c, 0, 38, 0
2, 88292, Note_on_c, 0, 54, 0
2, 88292, Note_on_c, 0, 50, 0
2, 88292, Note_on_c, 0, 74, 0
2, 88292, Note_on_c, 0, 78, 0
2, 88292, Note_on_c, 0, 69, 0
2, 88292, Note_on_c, 0, 57, 0
2, 88296, Note_on_c, 0, 71, 0
2, 88300, Note_on_c, 0, 83, 113
2, 88301, Note_on_c, 0, 71, 113
2, 88366, Note_on_c, 0, 71, 0
2, 88389, Note_on_c, 0, 83, 0
2, 88549, Note_on_c, 0, 81, 106
2, 88552, Note_on_c, 0, 69, 114
2, 88558, Control_c, 0, 64, 127
2, 88665, Control_c, 0, 64, 0
2, 88727, Note_on_c, 0, 69, 0
2, 88742, Note_on_c, 0, 81, 0
2, 88777, Note_on_c, 0, 74, 112
2, 88777, Note_on_c, 0, 86, 111
2, 88806, Note_on_c, 0, 74, 0
2, 88808, Note_on_c, 0, 86, 0
2, 88945, Note_on_c, 0, 37, 107
2, 88946, Note_on_c, 0, 49, 108
2, 88951, Note_on_c, 0, 80, 99
2, 88951, Note_on_c, 0, 88, 103
2, 88953, Note_on_c, 0, 76, 110
2, 88954, Note_on_c, 0, 85, 82
2, 88965, Control_c, 0, 64, 127
2, 89176, Note_on_c, 0, 75, 88
2, 89180, Note_on_c, 0, 68, 78
2, 89180, Note_on_c, 0, 71, 80
2, 89326, Note_on_c, 0, 49, 0
2, 89331, Note_on_c, 0, 49, 89
2, 89425, Note_on_c, 0, 76, 0
2, 89435, Note_on_c, 0, 76, 107
2, 89438, Note_on_c, 0, 73, 92
2, 89441, Note_on_c, 0, 68, 0
2, 89442, Note_on_c, 0, 64, 102
2, 89445, Note_on_c, 0, 56, 83
2, 89446, Note_on_c, 0, 68, 81
2, 89453, Note_on_c, 0, 59, 90
2, 89748, Note_on_c, 0, 71, 0
2, 89756, Note_on_c, 0, 49, 0
2, 89759, Note_on_c, 0, 71, 90
2, 89765, Note_on_c, 0, 49, 83
2, 89917, Note_on_c, 0, 56, 0
2, 89917, Note_on_c, 0, 64, 0
2, 89921, Note_on_c, 0, 64, 103
2, 89922, Note_on_c, 0, 56, 99
2, 90071, Note_on_c, 0, 76, 0
2, 90075, Note_on_c, 0, 76, 88
2, 90170, Note_on_c, 0, 85, 0
2, 90174, Note_on_c, 0, 49, 0
2, 90174, Note_on_c, 0, 73, 0
2, 90174, Note_on_c, 0, 80, 0
2, 90174, Note_on_c, 0, 59, 0
2, 90174, Note_on_c, 0, 75, 0
2, 90175, Note_on_c, 0, 76, 0
2, 90175, Note_on_c, 0, 64, 0
2, 90176, Control_c, 0, 64, 0
2, 90186, Note_on_c, 0, 37, 0
2, 90186, Note_on_c, 0, 88, 0
2, 90193, Note_on_c, 0, 56, 0
2, 90193, Note_on_c, 0, 68, 0
2, 90193, Note_on_c, 0, 71, 0
2, 90233, Note_on_c, 0, 88, 108
2, 90235, Note_on_c, 0, 76, 110
2, 90236, Note_on_c, 0, 45, 109
2, 90238, Note_on_c, 0, 33, 104
2, 90263, Control_c, 0, 64, 127
2, 90473, Note_on_c, 0, 75, 95
2, 90478, Note_on_c, 0, 71, 81
2, 90642, Note_on_c, 0, 52, 79
2, 90723, Note_on_c, 0, 71, 0
2, 90723, Note_on_c, 0, 76, 0
2, 90729, Note_on_c, 0, 76, 103
2, 90731, Note_on_c, 0, 52, 0
2, 90733, Note_on_c, 0, 71, 94
2, 90735, Note_on_c, 0, 73, 94
2, 90739, Note_on_c, 0, 64, 95
2, 90741, Note_on_c, 0, 52, 91
2, 90742, Note_on_c, 0, 61, 96
2, 90743, Note_on_c, 0, 57, 90
2, 91038, Note_on_c, 0, 71, 0
2, 91046, Note_on_c, 0, 45, 0
2, 91046, Note_on_c, 0, 52, 0
2, 91049, Note_on_c, 0, 71, 89
2, 91050, Note_on_c, 0, 52, 83
2, 91055, Note_on_c, 0, 45, 79
2, 91192, Note_on_c, 0, 52, 0
2, 91200, Note_on_c, 0, 64, 0
2, 91202, Note_on_c, 0, 52, 79
2, 91207, Note_on_c, 0, 57, 0
2, 91207, Note_on_c, 0, 61, 0
2, 91207, Note_on_c, 0, 75, 0
2, 91210, Note_on_c, 0, 64, 94
2, 91211, Note_on_c, 0, 75, 89
2, 91216, Note_on_c, 0, 57, 82
2, 91216, Note_on_c, 0, 61, 82
2, 91353, Note_on_c, 0, 76, 0
2, 91358, Note_on_c, 0, 76, 96
2, 91468, Note_on_c, 0, 71, 0
2, 91469, Note_on_c, 0, 75, 0
2, 91469, Note_on_c, 0, 76, 0
2, 91470, Note_on_c, 0, 45, 0
2, 91470, Control_c, 0, 64, 0
2, 91476, Note_on_c, 0, 88, 0
2, 91484, Note_on_c, 0, 33, 0
2, 91484, Note_on_c, 0, 57, 0
2, 91484, Note_on_c, 0, 61, 0
2, 91484, Note_on_c, 0, 64, 0
2, 91491, Note_on_c, 0, 52, 0
2, 91491, Note_on_c, 0, 73, 0
2, 91519, Note_on_c, 0, 88, 108
2, 91520, Note_on_c, 0, 76, 111
2, 91521, Note_on_c, 0, 80, 96
2, 91525, Note_on_c, 0, 52, 105
2, 91526, Note_on_c, 0, 40, 100
2, 91553, Control_c, 0, 64, 127
2, 91772, Note_on_c, 0, 75, 95
2, 91776, Note_on_c, 0, 71, 88
2, 91898, Note_on_c, 0, 52, 0
2, 91908, Note_on_c, 0, 52, 81
2, 92006, Note_on_c, 0, 71, 0
2, 92006, Note_on_c, 0, 76, 0
2, 92016, Note_on_c, 0, 71, 95
2, 92017, Note_on_c, 0, 76, 103
2, 92017, Note_on_c, 0, 64, 99
2, 92017, Note_on_c, 0, 59, 100
2, 92018, Note_on_c, 0, 73, 89
2, 92019, Note_on_c, 0, 56, 95
2, 92328, Note_on_c, 0, 71, 0
2, 92336, Note_on_c, 0, 52, 0
2, 92338, Note_on_c, 0, 71, 88
2, 92341, Note_on_c, 0, 52, 87
2, 92474, Note_on_c, 0, 75, 0
2, 92480, Note_on_c, 0, 75, 97
2, 92482, Note_on_c, 0, 56, 0
2, 92482, Note_on_c, 0, 59, 0
2, 92482, Note_on_c, 0, 64, 0
2, 92486, Note_on_c, 0, 64, 96
2, 92487, Note_on_c, 0, 56, 100
2, 92493, Note_on_c, 0, 59, 77
2, 92613, Note_on_c, 0, 76, 0
2, 92619, Note_on_c, 0, 76, 95
2, 92754, Control_c, 0, 64, 0
2, 92755, Note_on_c, 0, 73, 0
2, 92755, Note_on_c, 0, 52, 0
2, 92755, Note_on_c, 0, 59, 0
2, 92755, Note_on_c, 0, 71, 0
2, 92755, Note_on_c, 0, 56, 0
2, 92755, Note_on_c, 0, 64, 0
2, 92755, Note_on_c, 0, 75, 0
2, 92756, Note_on_c, 0, 76, 0
2, 92759, Note_on_c, 0, 40, 0
2, 92759, Note_on_c, 0, 88, 0
2, 92766, Note_on_c, 0, 80, 0
2, 92809, Note_on_c, 0, 83, 102
2, 92810, Note_on_c, 0, 80, 109
2, 92810, Note_on_c, 0, 92, 113
2, 92810, Note_on_c, 0, 51, 110
2, 92815, Note_on_c, 0, 39, 107
2, 92835, Control_c, 0, 64, 127
2, 93050, Note_on_c, 0, 51, 0
2, 93050, Note_on_c, 0, 83, 0
2, 93053, Note_on_c, 0, 93, 111
2, 93058, Note_on_c, 0, 51, 93
2, 93059, Note_on_c, 0, 81, 82
2, 93061, Note_on_c, 0, 83, 85
2, 93298, Note_on_c, 0, 63, 105
2, 93301, Note_on_c, 0, 90, 110
2, 93302, Note_on_c, 0, 78, 110
2, 93303, Note_on_c, 0, 59, 103
2, 93304, Note_on_c, 0, 83, 0
2, 93306, Note_on_c, 0, 54, 95
2, 93308, Note_on_c, 0, 83, 90
2, 93309, Note_on_c, 0, 87, 96
2, 93596, Note_on_c, 0, 51, 0
2, 93601, Note_on_c, 0, 51, 91
2, 93627, Note_on_c, 0, 88, 104
2, 93628, Note_on_c, 0, 76, 108
2, 93653, Note_on_c, 0, 85, 59
2, 93772, Note_on_c, 0, 51, 0
2, 93780, Note_on_c, 0, 39, 0
2, 93780, Note_on_c, 0, 51, 101
2, 93788, Note_on_c, 0, 76, 0
2, 93788, Note_on_c, 0, 87, 0
2, 93788, Note_on_c, 0, 88, 0
2, 93788, Note_on_c, 0, 39, 89
2, 93792, Note_on_c, 0, 88, 106
2, 93793, Note_on_c, 0, 87, 80
2, 93794, Note_on_c, 0, 76, 110
2, 93954, Note_on_c, 0, 51, 0
2, 93954, Note_on_c, 0, 83, 0
2, 93954, Note_on_c, 0, 63, 0
2, 93954, Note_on_c, 0, 76, 0
2, 93954, Note_on_c, 0, 39, 0
2, 93954, Note_on_c, 0, 78, 0
2, 93954, Control_c, 0, 64, 0
2, 93954, Note_on_c, 0, 87, 0
2, 93955, Note_on_c, 0, 93, 0
2, 93955, Note_on_c, 0, 59, 0
2, 93955, Note_on_c, 0, 92, 0
2, 93955, Note_on_c, 0, 85, 0
2, 93955, Note_on_c, 0, 88, 0
2, 93955, Note_on_c, 0, 80, 0
2, 93955, Note_on_c, 0, 81, 0
2, 93955, Note_on_c, 0, 90, 0
2, 93972, Note_on_c, 0, 54, 0
2, 94102, Note_on_c, 0, 49, 86
2, 94107, Note_on_c, 0, 88, 96
2, 94108, Note_on_c, 0, 54, 65
2, 94118, Note_on_c, 0, 54, 0
2, 94133, Control_c, 0, 64, 127
2, 94180, Note_on_c, 0, 56, 77
2, 94189, Note_on_c, 0, 80, 78
2, 94245, Note_on_c, 0, 59, 71
2, 94245, Note_on_c, 0, 71, 62
2, 94256, Note_on_c, 0, 71, 0
2, 94291, Note_on_c, 0, 76, 80
2, 94353, Note_on_c, 0, 63, 80
2, 94360, Note_on_c, 0, 87, 93
2, 94433, Note_on_c, 0, 80, 0
2, 94439, Note_on_c, 0, 80, 84
2, 94525, Note_on_c, 0, 76, 0
2, 94533, Note_on_c, 0, 76, 78
2, 94602, Note_on_c, 0, 76, 0
2, 94602, Note_on_c, 0, 88, 0
2, 94607, Note_on_c, 0, 88, 96
2, 94608, Note_on_c, 0, 76, 87
2, 94611, Note_on_c, 0, 64, 88
2, 94619, Note_on_c, 0, 52, 66
2, 94679, Note_on_c, 0, 80, 0
2, 94690, Note_on_c, 0, 80, 61
2, 94763, Note_on_c, 0, 76, 0
2, 94770, Note_on_c, 0, 76, 85
2, 94855, Note_on_c, 0, 80, 0
2, 94860, Note_on_c, 0, 80, 72
2, 94897, Note_on_c, 0, 83, 82
2, 94909, Note_on_c, 0, 59, 0
2, 94920, Note_on_c, 0, 59, 73
2, 94978, Note_on_c, 0, 76, 0
2, 94983, Note_on_c, 0, 76, 87
2, 95070, Note_on_c, 0, 49, 0
2, 95070, Note_on_c, 0, 87, 0
2, 95075, Note_on_c, 0, 49, 77
2, 95075, Note_on_c, 0, 87, 89
2, 95155, Note_on_c, 0, 76, 0
2, 95161, Note_on_c, 0, 76, 76
2, 95216, Note_on_c, 0, 59, 0
2, 95216, Note_on_c, 0, 88, 0
2, 95225, Note_on_c, 0, 88, 92
2, 95227, Note_on_c, 0, 59, 91
2, 95308, Note_on_c, 0, 76, 0
2, 95317, Note_on_c, 0, 76, 79
2, 95328, Note_on_c, 0, 49, 0
2, 95328, Note_on_c, 0, 87, 0
2, 95329, Note_on_c, 0, 56, 0
2, 95329, Note_on_c, 0, 64, 0
2, 95329, Note_on_c, 0, 63, 0
2, 95330, Note_on_c, 0, 80, 0
2, 95330, Note_on_c, 0, 83, 0
2, 95331, Note_on_c, 0, 52, 0
2, 95338, Control_c, 0, 64, 0
2, 95347, Note_on_c, 0, 59, 0
2, 95367, Note_on_c, 0, 45, 95
2, 95370, Note_on_c, 0, 88, 0
2, 95380, Note_on_c, 0, 88, 100
2, 95424, Note_on_c, 0, 52, 72
2, 95431, Control_c, 0, 64, 127
2, 95439, Note_on_c, 0, 76, 0
2, 95457, Note_on_c, 0, 81, 89
2, 95511, Note_on_c, 0, 59, 89
2, 95549, Note_on_c, 0, 76, 90
2, 95618, Note_on_c, 0, 63, 87
2, 95620, Note_on_c, 0, 87, 91
2, 95646, Note_on_c, 0, 52, 0
2, 95652, Note_on_c, 0, 52, 55
2, 95677, Note_on_c, 0, 81, 0
2, 95681, Note_on_c, 0, 81, 88
2, 95685, Note_on_c, 0, 57, 59
2, 95769, Note_on_c, 0, 76, 0
2, 95777, Note_on_c, 0, 76, 87
2, 95854, Note_on_c, 0, 88, 0
2, 95858, Note_on_c, 0, 64, 90
2, 95861, Note_on_c, 0, 88, 96
2, 95861, Note_on_c, 0, 52, 0
2, 95873, Note_on_c, 0, 52, 67
2, 95892, Note_on_c, 0, 81, 0
2, 95897, Note_on_c, 0, 81, 82
2, 95923, Note_on_c, 0, 83, 50
2, 95992, Note_on_c, 0, 76, 0
2, 95996, Note_on_c, 0, 76, 84
2, 96084, Note_on_c, 0, 81, 0
2, 96090, Note_on_c, 0, 81, 82
2, 96145, Note_on_c, 0, 83, 0
2, 96152, Note_on_c, 0, 83, 84
2, 96161, Note_on_c, 0, 59, 0
2, 96172, Note_on_c, 0, 59, 84
2, 96207, Note_on_c, 0, 76, 0
2, 96213, Note_on_c, 0, 76, 84
2, 96307, Note_on_c, 0, 87, 0
2, 96313, Note_on_c, 0, 87, 100
2, 96322, Note_on_c, 0, 45, 0
2, 96324, Note_on_c, 0, 63, 0
2, 96331, Note_on_c, 0, 45, 88
2, 96391, Note_on_c, 0, 76, 0
2, 96401, Note_on_c, 0, 76, 91
2, 96460, Note_on_c, 0, 88, 0
2, 96468, Note_on_c, 0, 59, 0
2, 96472, Note_on_c, 0, 88, 102
2, 96472, Note_on_c, 0, 59, 96
2, 96552, Note_on_c, 0, 76, 0
2, 96558, Note_on_c, 0, 76, 90
2, 96598, Note_on_c, 0, 81, 0
2, 96598, Note_on_c, 0, 57, 0
2, 96599, Note_on_c, 0, 45, 0
2, 96600, Note_on_c, 0, 83, 0
2, 96600, Note_on_c, 0, 64, 0
2, 96601, Note_on_c, 0, 59, 0
2, 96601, Control_c, 0, 64, 0
2, 96610, Note_on_c, 0, 40, 92
2, 96614, Note_on_c, 0, 88, 0
2, 96619, Note_on_c, 0, 88, 99
2, 96622, Note_on_c, 0, 87, 0
2, 96655, Note_on_c, 0, 40, 0
2, 96668, Note_on_c, 0, 76, 0
2, 96683, Control_c, 0, 64, 127
2, 96691, Note_on_c, 0, 52, 0
2, 96699, Note_on_c, 0, 52, 76
2, 96702, Note_on_c, 0, 80, 86
2, 96793, Note_on_c, 0, 76, 88
2, 96811, Note_on_c, 0, 59, 80
2, 96864, Note_on_c, 0, 87, 94
2, 96892, Note_on_c, 0, 63, 83
2, 96936, Note_on_c, 0, 80, 0
2, 96948, Note_on_c, 0, 80, 82
2, 97029, Note_on_c, 0, 76, 0
2, 97038, Note_on_c, 0, 76, 83
2, 97098, Note_on_c, 0, 88, 0
2, 97101, Note_on_c, 0, 64, 101
2, 97107, Note_on_c, 0, 88, 96
2, 97205, Note_on_c, 0, 80, 0
2, 97209, Note_on_c, 0, 80, 80
2, 97251, Note_on_c, 0, 76, 0
2, 97258, Note_on_c, 0, 76, 86
2, 97388, Note_on_c, 0, 83, 96
2, 97397, Note_on_c, 0, 59, 0
2, 97408, Note_on_c, 0, 59, 96
2, 97489, Note_on_c, 0, 76, 0
2, 97494, Note_on_c, 0, 76, 94
2, 97559, Note_on_c, 0, 52, 0
2, 97559, Note_on_c, 0, 87, 0
2, 97566, Note_on_c, 0, 87, 101
2, 97567, Note_on_c, 0, 52, 89
2, 97658, Note_on_c, 0, 76, 0
2, 97662, Note_on_c, 0, 76, 92
2, 97697, Note_on_c, 0, 59, 0
2, 97708, Note_on_c, 0, 59, 107
2, 97712, Note_on_c, 0, 88, 0
2, 97723, Note_on_c, 0, 88, 105
2, 97832, Note_on_c, 0, 63, 0
2, 97835, Note_on_c, 0, 80, 0
2, 97836, Note_on_c, 0, 52, 0
2, 97836, Note_on_c, 0, 83, 0
2, 97837, Note_on_c, 0, 76, 0
2, 97837, Note_on_c, 0, 87, 0
2, 97838, Note_on_c, 0, 88, 0
2, 97845, Control_c, 0, 64, 0
2, 97857, Note_on_c, 0, 92, 109
2, 97858, Note_on_c, 0, 59, 0
2, 97858, Note_on_c, 0, 64, 0
2, 97860, Note_on_c, 0, 39, 92
2, 97907, Note_on_c, 0, 51, 77
2, 97912, Control_c, 0, 64, 127
2, 97950, Note_on_c, 0, 87, 96
2, 98045, Note_on_c, 0, 83, 82
2, 98057, Note_on_c, 0, 66, 61
2, 98065, Note_on_c, 0, 66, 0
2, 98069, Note_on_c, 0, 54, 59
2, 98100, Note_on_c, 0, 93, 109
2, 98156, Note_on_c, 0, 59, 91
2, 98158, Note_on_c, 0, 39, 0
2, 98165, Note_on_c, 0, 87, 0
2, 98175, Note_on_c, 0, 87, 87
2, 98257, Note_on_c, 0, 83, 0
2, 98266, Note_on_c, 0, 83, 86
2, 98326, Note_on_c, 0, 71, 104
2, 98330, Note_on_c, 0, 90, 104
2, 98331, Note_on_c, 0, 63, 95
2, 98331, Note_on_c, 0, 66, 91
2, 98403, Note_on_c, 0, 87, 0
2, 98413, Note_on_c, 0, 87, 93
2, 98465, Note_on_c, 0, 83, 0
2, 98470, Note_on_c, 0, 83, 82
2, 98568, Note_on_c, 0, 78, 84
2, 98625, Note_on_c, 0, 75, 87
2, 98688, Note_on_c, 0, 71, 0
2, 98692, Note_on_c, 0, 71, 84
2, 98764, Note_on_c, 0, 66, 0
2, 98774, Note_on_c, 0, 66, 72
2, 98818, Note_on_c, 0, 63, 0
2, 98829, Note_on_c, 0, 63, 68
2, 98895, Note_on_c, 0, 59, 0
2, 98905, Note_on_c, 0, 59, 85
2, 99055, Note_on_c, 0, 78, 0
2, 99057, Note_on_c, 0, 71, 0
2, 99057, Note_on_c, 0, 90, 0
2, 99057, Note_on_c, 0, 54, 0
2, 99057, Note_on_c, 0, 83, 0
2, 99057, Note_on_c, 0, 87, 0
2, 99058, Note_on_c, 0, 93, 0
2, 99058, Note_on_c, 0, 59, 0
2, 99058, Control_c, 0, 64, 0
2, 99058, Note_on_c, 0, 51, 0
2, 99058, Note_on_c, 0, 75, 0
2, 99072, Note_on_c, 0, 66, 0
2, 99072, Note_on_c, 0, 92, 0
2, 99079, Note_on_c, 0, 63, 0
2, 99122, Note_on_c, 0, 76, 102
2, 99122, Note_on_c, 0, 68, 97
2, 99122, Note_on_c, 0, 63, 79
2, 99127, Note_on_c, 0, 59, 87
2, 99129, Note_on_c, 0, 49, 84
2, 99130, Note_on_c, 0, 56, 76
2, 99156, Control_c, 0, 64, 127
2, 99287, Note_on_c, 0, 56, 0
2, 99287, Note_on_c, 0, 59, 0
2, 99287, Note_on_c, 0, 63, 0
2, 99291, Note_on_c, 0, 63, 71
2, 99295, Note_on_c, 0, 56, 73
2, 99297, Note_on_c, 0, 59, 71
2, 99302, Note_on_c, 0, 49, 0
2, 99368, Note_on_c, 0, 75, 88
2, 99429, Control_c, 0, 64, 0
2, 99463, Note_on_c, 0, 63, 0
2, 99473, Note_on_c, 0, 63, 71
2, 99586, Note_on_c, 0, 59, 0
2, 99586, Note_on_c, 0, 76, 0
2, 99594, Note_on_c, 0, 56, 0
2, 99594, Note_on_c, 0, 68, 0
2, 99616, Note_on_c, 0, 78, 89
2, 99637, Note_on_c, 0, 56, 69
2, 99640, Note_on_c, 0, 63, 0
2, 99646, Note_on_c, 0, 59, 49
2, 99655, Note_on_c, 0, 75, 0
2, 99701, Note_on_c, 0, 56, 0
2, 99747, Control_c, 0, 64, 127
2, 99770, Note_on_c, 0, 59, 0
2, 99780, Note_on_c, 0, 59, 70
2, 99798, Note_on_c, 0, 56, 40
2, 99926, Note_on_c, 0, 76, 83
2, 99932, Note_on_c, 0, 49, 67
2, 99932, Note_on_c, 0, 56, 0
2, 99938, Note_on_c, 0, 56, 49
2, 100099, Note_on_c, 0, 75, 89
2, 100100, Note_on_c, 0, 63, 85
2, 100239, Note_on_c, 0, 56, 0
2, 100239, Note_on_c, 0, 76, 0
2, 100247, Note_on_c, 0, 56, 73
2, 100248, Note_on_c, 0, 76, 88
2, 100333, Note_on_c, 0, 71, 90
2, 100373, Control_c, 0, 64, 0
2, 100374, Note_on_c, 0, 56, 0
2, 100374, Note_on_c, 0, 49, 0
2, 100374, Note_on_c, 0, 78, 0
2, 100375, Note_on_c, 0, 75, 0
2, 100375, Note_on_c, 0, 76, 0
2, 100375, Note_on_c, 0, 63, 0
2, 100408, Note_on_c, 0, 59, 0
2, 100419, Note_on_c, 0, 59, 93
2, 100419, Note_on_c, 0, 45, 79
2, 100419, Note_on_c, 0, 52, 85
2, 100465, Note_on_c, 0, 59, 0
2, 100472, Note_on_c, 0, 52, 0
2, 100488, Note_on_c, 0, 45, 0
2, 100572, Note_on_c, 0, 59, 85
2, 100573, Note_on_c, 0, 52, 71
2, 100579, Note_on_c, 0, 45, 66
2, 100732, Note_on_c, 0, 52, 0
2, 100732, Note_on_c, 0, 59, 0
2, 100734, Note_on_c, 0, 45, 0
2, 100746, Note_on_c, 0, 63, 70
2, 100885, Note_on_c, 0, 52, 70
2, 101044, Note_on_c, 0, 59, 79
2, 101107, Control_c, 0, 64, 127
2, 101207, Note_on_c, 0, 52, 0
2, 101214, Note_on_c, 0, 52, 70
2, 101246, Note_on_c, 0, 45, 31
2, 101360, Note_on_c, 0, 63, 0
2, 101370, Note_on_c, 0, 63, 79
2, 101383, Note_on_c, 0, 59, 0
2, 101392, Note_on_c, 0, 59, 51
2, 101514, Note_on_c, 0, 52, 0
2, 101525, Note_on_c, 0, 52, 55
2, 101541, Note_on_c, 0, 73, 89
2, 101622, Note_on_c, 0, 75, 87
2, 101639, Note_on_c, 0, 63, 0
2, 101639, Note_on_c, 0, 52, 0
2, 101640, Note_on_c, 0, 59, 0
2, 101640, Note_on_c, 0, 73, 0
2, 101643, Control_c, 0, 64, 0
2, 101644, Note_on_c, 0, 71, 0
2, 101660, Note_on_c, 0, 45, 0
2, 101684, Note_on_c, 0, 76, 104
2, 101689, Note_on_c, 0, 59, 97
2, 101691, Note_on_c, 0, 71, 85
2, 101693, Note_on_c, 0, 54, 88
2, 101694, Note_on_c, 0, 47, 87
2, 101729, Control_c, 0, 64, 127
2, 101859, Note_on_c, 0, 47, 0
2, 101859, Note_on_c, 0, 54, 0
2, 101865, Note_on_c, 0, 47, 80
2, 101869, Note_on_c, 0, 54, 72
2, 101905, Note_on_c, 0, 75, 0
2, 101913, Note_on_c, 0, 75, 84
2, 102028, Note_on_c, 0, 71, 0
2, 102032, Control_c, 0, 64, 0
2, 102032, Note_on_c, 0, 47, 0
2, 102033, Note_on_c, 0, 54, 0
2, 102034, Note_on_c, 0, 63, 79
2, 102034, Note_on_c, 0, 76, 0
2, 102036, Note_on_c, 0, 59, 0
2, 102043, Note_on_c, 0, 75, 0
2, 102087, Note_on_c, 0, 63, 0
2, 102175, Note_on_c, 0, 78, 98
2, 102181, Note_on_c, 0, 54, 61
2, 102243, Control_c, 0, 64, 127
2, 102348, Note_on_c, 0, 59, 79
2, 102491, Note_on_c, 0, 76, 89
2, 102512, Note_on_c, 0, 54, 0
2, 102516, Note_on_c, 0, 54, 63
2, 102649, Note_on_c, 0, 63, 83
2, 102651, Note_on_c, 0, 75, 90
2, 102804, Note_on_c, 0, 76, 0
2, 102811, Note_on_c, 0, 76, 96
2, 102819, Note_on_c, 0, 54, 0
2, 102824, Note_on_c, 0, 54, 79
2, 102926, Note_on_c, 0, 59, 0
2, 102927, Note_on_c, 0, 75, 0
2, 102927, Note_on_c, 0, 63, 0
2, 102927, Note_on_c, 0, 78, 0
2, 102928, Note_on_c, 0, 54, 0
2, 102931, Control_c, 0, 64, 0
2, 102962, Note_on_c, 0, 80, 94
2, 102965, Note_on_c, 0, 76, 0
2, 102970, Note_on_c, 0, 76, 80
2, 102971, Note_on_c, 0, 71, 87
2, 103073, Control_c, 0, 64, 127
2, 103233, Note_on_c, 0, 81, 97
2, 103480, Note_on_c, 0, 71, 0
2, 103487, Note_on_c, 0, 78, 96
2, 103491, Note_on_c, 0, 71, 73
2, 103513, Note_on_c, 0, 75, 69
2, 103518, Control_c, 0, 64, 0
2, 103522, Note_on_c, 0, 76, 0
2, 103524, Note_on_c, 0, 80, 0
2, 103525, Note_on_c, 0, 81, 0
2, 103656, Control_c, 0, 64, 127
2, 103819, Note_on_c, 0, 76, 83
2, 103964, Note_on_c, 0, 71, 0
2, 103974, Note_on_c, 0, 71, 80
2, 103984, Note_on_c, 0, 59, 86
2, 104079, Note_on_c, 0, 54, 78
2, 104178, Note_on_c, 0, 47, 53
2, 104286, Note_on_c, 0, 54, 0
2, 104286, Note_on_c, 0, 71, 0
2, 104286, Note_on_c, 0, 76, 0
2, 104286, Note_on_c, 0, 78, 0
2, 104287, Control_c, 0, 64, 0
2, 104288, Note_on_c, 0, 75, 0
2, 104291, Note_on_c, 0, 64, 84
2, 104294, Note_on_c, 0, 59, 0
2, 104304, Note_on_c, 0, 59, 69
2, 104309, Note_on_c, 0, 47, 0
2, 104315, Note_on_c, 0, 44, 68
2, 104319, Note_on_c, 0, 47, 64
2, 104386, Control_c, 0, 64, 127
2, 104414, Note_on_c, 0, 52, 56
2, 104494, Note_on_c, 0, 47, 0
2, 104499, Note_on_c, 0, 47, 44
2, 104566, Note_on_c, 0, 63, 70
2, 104586, Note_on_c, 0, 44, 0
2, 104586, Note_on_c, 0, 52, 0
2, 104586, Note_on_c, 0, 59, 0
2, 104590, Note_on_c, 0, 52, 54
2, 104595, Note_on_c, 0, 44, 56
2, 104596, Note_on_c, 0, 59, 42
2, 104724, Note_on_c, 0, 52, 0
2, 104735, Note_on_c, 0, 52, 57
2, 104793, Note_on_c, 0, 44, 0
2, 104801, Note_on_c, 0, 59, 0
2, 104802, Note_on_c, 0, 44, 58
2, 104804, Note_on_c, 0, 66, 71
2, 104811, Note_on_c, 0, 59, 51
2, 104816, Note_on_c, 0, 47, 0
2, 104825, Note_on_c, 0, 47, 47
2, 104893, Note_on_c, 0, 52, 0
2, 104899, Note_on_c, 0, 52, 55
2, 104962, Note_on_c, 0, 44, 0
2, 104967, Note_on_c, 0, 44, 58
2, 105047, Note_on_c, 0, 52, 0
2, 105052, Note_on_c, 0, 52, 53
2, 105100, Note_on_c, 0, 64, 0
2, 105108, Note_on_c, 0, 44, 0
2, 105112, Note_on_c, 0, 64, 78
2, 105116, Note_on_c, 0, 44, 62
2, 105139, Note_on_c, 0, 47, 0
2, 105149, Note_on_c, 0, 47, 50
2, 105223, Note_on_c, 0, 52, 0
2, 105232, Note_on_c, 0, 52, 65
2, 105269, Note_on_c, 0, 44, 0
2, 105269, Note_on_c, 0, 63, 0
2, 105274, Note_on_c, 0, 44, 61
2, 105274, Note_on_c, 0, 63, 72
2, 105392, Note_on_c, 0, 44, 0
2, 105401, Note_on_c, 0, 44, 59
2, 105408, Note_on_c, 0, 64, 0
2, 105419, Note_on_c, 0, 64, 72
2, 105477, Note_on_c, 0, 52, 0
2, 105481, Note_on_c, 0, 52, 55
2, 105510, Control_c, 0, 64, 0
2, 105512, Note_on_c, 0, 66, 0
2, 105513, Note_on_c, 0, 47, 0
2, 105515, Note_on_c, 0, 59, 0
2, 105517, Note_on_c, 0, 44, 0
2, 105518, Note_on_c, 0, 63, 0
2, 105524, Note_on_c, 0, 59, 84
2, 105538, Note_on_c, 0, 64, 0
2, 105546, Note_on_c, 0, 52, 0
2, 105568, Note_on_c, 0, 49, 67
2, 105573, Note_on_c, 0, 45, 56
2, 105584, Control_c, 0, 64, 127
2, 105663, Note_on_c, 0, 52, 63
2, 105722, Note_on_c, 0, 45, 0
2, 105722, Note_on_c, 0, 49, 0
2, 105728, Note_on_c, 0, 49, 59
2, 105729, Note_on_c, 0, 45, 64
2, 105792, Note_on_c, 0, 52, 0
2, 105801, Note_on_c, 0, 52, 60
2, 105853, Note_on_c, 0, 49, 0
2, 105860, Note_on_c, 0, 49, 69
2, 105866, Note_on_c, 0, 87, 83
2, 105891, Note_on_c, 0, 45, 0
2, 105902, Note_on_c, 0, 45, 54
2, 105976, Note_on_c, 0, 52, 0
2, 105987, Note_on_c, 0, 52, 59
2, 106007, Note_on_c, 0, 49, 0
2, 106011, Note_on_c, 0, 49, 60
2, 106033, Note_on_c, 0, 78, 78
2, 106122, Note_on_c, 0, 52, 0
2, 106130, Note_on_c, 0, 52, 59
2, 106183, Note_on_c, 0, 49, 0
2, 106191, Note_on_c, 0, 49, 63
2, 106199, Note_on_c, 0, 45, 0
2, 106203, Note_on_c, 0, 45, 50
2, 106210, Note_on_c, 0, 83, 79
2, 106275, Note_on_c, 0, 52, 0
2, 106282, Note_on_c, 0, 52, 68
2, 106337, Note_on_c, 0, 45, 0
2, 106337, Note_on_c, 0, 49, 0
2, 106342, Note_on_c, 0, 49, 71
2, 106348, Note_on_c, 0, 45, 61
2, 106352, Note_on_c, 0, 78, 0
2, 106362, Note_on_c, 0, 78, 75
2, 106429, Note_on_c, 0, 52, 0
2, 106434, Note_on_c, 0, 52, 70
2, 106521, Note_on_c, 0, 45, 0
2, 106521, Note_on_c, 0, 87, 0
2, 106528, Note_on_c, 0, 87, 82
2, 106531, Note_on_c, 0, 45, 66
2, 106613, Note_on_c, 0, 52, 0
2, 106619, Note_on_c, 0, 52, 68
2, 106621, Note_on_c, 0, 76, 64
2, 106675, Note_on_c, 0, 49, 0
2, 106679, Note_on_c, 0, 49, 65
2, 106686, Note_on_c, 0, 57, 63
2, 106690, Note_on_c, 0, 45, 0
2, 106696, Note_on_c, 0, 61, 73
2, 106713, Note_on_c, 0, 52, 0
2, 106719, Note_on_c, 0, 52, 68
2, 106764, Note_on_c, 0, 63, 67
2, 106818, Control_c, 0, 64, 0
2, 106818, Note_on_c, 0, 49, 0
2, 106819, Note_on_c, 0, 64, 83
2, 106820, Note_on_c, 0, 83, 0
2, 106821, Note_on_c, 0, 57, 0
2, 106822, Note_on_c, 0, 87, 0
2, 106823, Note_on_c, 0, 61, 0
2, 106823, Note_on_c, 0, 78, 0
2, 106828, Note_on_c, 0, 52, 0
2, 106828, Note_on_c, 0, 59, 0
2, 106832, Note_on_c, 0, 59, 82
2, 106833, Note_on_c, 0, 52, 77
2, 106833, Note_on_c, 0, 47, 70
2, 106851, Note_on_c, 0, 63, 0
2, 106890, Control_c, 0, 64, 127
2, 106910, Note_on_c, 0, 54, 65
2, 106997, Note_on_c, 0, 47, 0
2, 106997, Note_on_c, 0, 52, 0
2, 106997, Note_on_c, 0, 54, 0
2, 107002, Note_on_c, 0, 47, 66
2, 107008, Note_on_c, 0, 54, 59
2, 107009, Note_on_c, 0, 52, 56
2, 107066, Note_on_c, 0, 54, 0
2, 107071, Note_on_c, 0, 63, 81
2, 107072, Note_on_c, 0, 54, 60
2, 107128, Note_on_c, 0, 52, 0
2, 107136, Note_on_c, 0, 47, 0
2, 107139, Note_on_c, 0, 52, 62
2, 107143, Note_on_c, 0, 47, 65
2, 107205, Note_on_c, 0, 54, 0
2, 107214, Note_on_c, 0, 54, 66
2, 107251, Note_on_c, 0, 47, 0
2, 107256, Note_on_c, 0, 47, 63
2, 107302, Note_on_c, 0, 66, 83
2, 107304, Note_on_c, 0, 52, 0
2, 107304, Note_on_c, 0, 76, 0
2, 107309, Note_on_c, 0, 52, 75
2, 107374, Note_on_c, 0, 54, 0
2, 107380, Note_on_c, 0, 54, 70
2, 107450, Note_on_c, 0, 47, 0
2, 107450, Note_on_c, 0, 64, 0
2, 107457, Note_on_c, 0, 47, 71
2, 107458, Note_on_c, 0, 52, 0
2, 107461, Note_on_c, 0, 64, 57
2, 107463, Note_on_c, 0, 52, 52
2, 107543, Note_on_c, 0, 54, 0
2, 107549, Note_on_c, 0, 54, 63
2, 107604, Note_on_c, 0, 64, 0
2, 107612, Note_on_c, 0, 47, 0
2, 107612, Note_on_c, 0, 64, 82
2, 107617, Note_on_c, 0, 47, 69
2, 107619, Note_on_c, 0, 52, 0
2, 107624, Note_on_c, 0, 52, 67
2, 107688, Note_on_c, 0, 54, 0
2, 107694, Note_on_c, 0, 54, 70
2, 107765, Note_on_c, 0, 47, 0
2, 107765, Note_on_c, 0, 52, 0
2, 107765, Note_on_c, 0, 63, 0
2, 107773, Note_on_c, 0, 59, 0
2, 107774, Note_on_c, 0, 63, 87
2, 107776, Note_on_c, 0, 52, 71
2, 107776, Note_on_c, 0, 47, 81
2, 107778, Note_on_c, 0, 59, 70
2, 107896, Note_on_c, 0, 66, 0
2, 107902, Note_on_c, 0, 66, 59
2, 107927, Note_on_c, 0, 64, 0
2, 107937, Note_on_c, 0, 64, 76
2, 107942, Note_on_c, 0, 47, 0
2, 107949, Note_on_c, 0, 47, 68
2, 107952, Note_on_c, 0, 59, 0
2, 108063, Control_c, 0, 64, 0
2, 108065, Note_on_c, 0, 66, 0
2, 108065, Note_on_c, 0, 63, 0
2, 108065, Note_on_c, 0, 54, 0
2, 108065, Note_on_c, 0, 47, 0
2, 108088, Note_on_c, 0, 64, 0
2, 108103, Note_on_c, 0, 52, 0
2, 108107, Note_on_c, 0, 52, 93
2, 108108, Note_on_c, 0, 68, 95
2, 108114, Note_on_c, 0, 64, 80
2, 108117, Note_on_c, 0, 59, 80
2, 108149, Control_c, 0, 64, 127
2, 108374, Note_on_c, 0, 69, 91
2, 108595, Note_on_c, 0, 68, 0
2, 108606, Note_on_c, 0, 68, 96
2, 108609, Note_on_c, 0, 64, 0
2, 108610, Control_c, 0, 64, 0
2, 108611, Note_on_c, 0, 69, 0
2, 108618, Note_on_c, 0, 59, 0
2, 108620, Note_on_c, 0, 54, 74
2, 108621, Note_on_c, 0, 51, 72
2, 108623, Note_on_c, 0, 59, 86
2, 108633, Note_on_c, 0, 52, 0
2, 108733, Control_c, 0, 64, 127
2, 108902, Note_on_c, 0, 66, 88
2, 109102, Note_on_c, 0, 59, 0
2, 109102, Note_on_c, 0, 66, 0
2, 109111, Note_on_c, 0, 66, 78
2, 109112, Note_on_c, 0, 59, 90
2, 109245, Note_on_c, 0, 47, 86
2, 109361, Note_on_c, 0, 59, 0
2, 109361, Note_on_c, 0, 47, 0
2, 109362, Note_on_c, 0, 66, 0
2, 109366, Control_c, 0, 64, 0
2, 109370, Note_on_c, 0, 51, 0
2, 109370, Note_on_c, 0, 54, 0
2, 109370, Note_on_c, 0, 68, 0
2, 109421, Note_on_c, 0, 49, 100
2, 109460, Note_on_c, 0, 49, 0
2, 109470, Control_c, 0, 64, 127
2, 109581, Note_on_c, 0, 66, 86
2, 109582, Note_on_c, 0, 63, 82
2, 109582, Note_on_c, 0, 75, 84
2, 109657, Note_on_c, 0, 76, 84
2, 109724, Note_on_c, 0, 63, 0
2, 109724, Note_on_c, 0, 66, 0
2, 109724, Note_on_c, 0, 75, 0
2, 109727, Note_on_c, 0, 83, 98
2, 109728, Note_on_c, 0, 75, 86
2, 109729, Note_on_c, 0, 63, 89
2, 109730, Note_on_c, 0, 66, 96
2, 109753, Note_on_c, 0, 76, 0
2, 109764, Control_c, 0, 64, 0
2, 109793, Note_on_c, 0, 75, 0
2, 109800, Note_on_c, 0, 63, 0
2, 109800, Note_on_c, 0, 66, 0
2, 109819, Note_on_c, 0, 78, 82
2, 109880, Note_on_c, 0, 56, 83
2, 109883, Note_on_c, 0, 76, 75
2, 109923, Note_on_c, 0, 83, 0
2, 109930, Note_on_c, 0, 56, 0
2, 109954, Note_on_c, 0, 63, 95
2, 109955, Note_on_c, 0, 66, 89
2, 109958, Note_on_c, 0, 75, 87
2, 109969, Control_c, 0, 64, 127
2, 109977, Note_on_c, 0, 78, 0
2, 110054, Note_on_c, 0, 76, 0
2, 110065, Note_on_c, 0, 76, 79
2, 110115, Note_on_c, 0, 63, 0
2, 110115, Note_on_c, 0, 66, 0
2, 110126, Note_on_c, 0, 66, 94
2, 110126, Note_on_c, 0, 63, 73
2, 110135, Note_on_c, 0, 71, 71
2, 110141, Note_on_c, 0, 51, 61
2, 110146, Note_on_c, 0, 51, 0
2, 110215, Note_on_c, 0, 75, 0
2, 110222, Note_on_c, 0, 75, 76
2, 110292, Note_on_c, 0, 56, 90
2, 110300, Note_on_c, 0, 76, 0
2, 110305, Note_on_c, 0, 76, 79
2, 110394, Note_on_c, 0, 83, 98
2, 110396, Note_on_c, 0, 68, 100
2, 110478, Note_on_c, 0, 78, 92
2, 110538, Note_on_c, 0, 76, 0
2, 110543, Note_on_c, 0, 64, 89
2, 110548, Note_on_c, 0, 76, 86
2, 110599, Note_on_c, 0, 75, 0
2, 110605, Note_on_c, 0, 75, 91
2, 110662, Note_on_c, 0, 75, 0
2, 110663, Note_on_c, 0, 78, 0
2, 110663, Note_on_c, 0, 76, 0
2, 110663, Note_on_c, 0, 68, 0
2, 110663, Note_on_c, 0, 56, 0
2, 110663, Note_on_c, 0, 71, 0
2, 110664, Note_on_c, 0, 83, 0
2, 110664, Note_on_c, 0, 64, 0
2, 110665, Control_c, 0, 64, 0
2, 110668, Note_on_c, 0, 63, 0
2, 110668, Note_on_c, 0, 66, 0
2, 110698, Note_on_c, 0, 49, 103
2, 110735, Note_on_c, 0, 49, 0
2, 110737, Control_c, 0, 64, 127
2, 110861, Note_on_c, 0, 83, 86
2, 110863, Note_on_c, 0, 66, 91
2, 110863, Note_on_c, 0, 75, 87
2, 110864, Note_on_c, 0, 63, 91
2, 110873, Note_on_c, 0, 78, 75
2, 110883, Note_on_c, 0, 78, 0
2, 110950, Note_on_c, 0, 87, 84
2, 111014, Note_on_c, 0, 63, 0
2, 111022, Note_on_c, 0, 66, 0
2, 111025, Note_on_c, 0, 63, 98
2, 111025, Note_on_c, 0, 95, 102
2, 111026, Note_on_c, 0, 66, 91
2, 111054, Control_c, 0, 64, 0
2, 111056, Note_on_c, 0, 63, 0
2, 111060, Note_on_c, 0, 66, 0
2, 111061, Note_on_c, 0, 83, 0
2, 111063, Note_on_c, 0, 87, 0
2, 111075, Note_on_c, 0, 75, 0
2, 111123, Note_on_c, 0, 90, 88
2, 111137, Note_on_c, 0, 95, 0
2, 111179, Note_on_c, 0, 56, 90
2, 111187, Note_on_c, 0, 88, 68
2, 111229, Control_c, 0, 64, 127
2, 111270, Note_on_c, 0, 66, 89
2, 111274, Note_on_c, 0, 63, 83
2, 111283, Note_on_c, 0, 87, 79
2, 111367, Note_on_c, 0, 88, 0
2, 111372, Note_on_c, 0, 88, 73
2, 111413, Note_on_c, 0, 66, 0
2, 111421, Note_on_c, 0, 63, 0
2, 111425, Note_on_c, 0, 66, 92
2, 111425, Note_on_c, 0, 63, 85
2, 111450, Note_on_c, 0, 83, 80
2, 111528, Note_on_c, 0, 87, 0
2, 111537, Note_on_c, 0, 87, 85
2, 111567, Note_on_c, 0, 56, 0
2, 111578, Note_on_c, 0, 56, 87
2, 111655, Note_on_c, 0, 95, 106
2, 111674, Note_on_c, 0, 56, 0
2, 111674, Note_on_c, 0, 63, 0
2, 111674, Note_on_c, 0, 66, 0
2, 111680, Note_on_c, 0, 56, 78
2, 111682, Note_on_c, 0, 90, 0
2, 111683, Note_on_c, 0, 66, 83
2, 111685, Note_on_c, 0, 63, 82
2, 111693, Note_on_c, 0, 90, 78
2, 111767, Note_on_c, 0, 88, 0
2, 111771, Note_on_c, 0, 88, 77
2, 111804, Note_on_c, 0, 71, 98
2, 111805, Note_on_c, 0, 66, 0
2, 111816, Note_on_c, 0, 66, 61
2, 111828, Note_on_c, 0, 83, 0
2, 111836, Note_on_c, 0, 83, 81
2, 111917, Note_on_c, 0, 90, 0
2, 111917, Note_on_c, 0, 88, 0
2, 111917, Note_on_c, 0, 63, 0
2, 111917, Note_on_c, 0, 66, 0
2, 111917, Note_on_c, 0, 56, 0
2, 111917, Note_on_c, 0, 71, 0
2, 111917, Note_on_c, 0, 83, 0
2, 111918, Note_on_c, 0, 95, 0
2, 111920, Control_c, 0, 64, 0
2, 111943, Note_on_c, 0, 87, 0
2, 111953, Note_on_c, 0, 49, 100
2, 111986, Note_on_c, 0, 49, 0
2, 112012, Control_c, 0, 64, 127
2, 112097, Note_on_c, 0, 75, 90
2, 112108, Note_on_c, 0, 66, 85
2, 112109, Note_on_c, 0, 63, 87
2, 112186, Note_on_c, 0, 76, 82
2, 112258, Note_on_c, 0, 63, 0
2, 112258, Note_on_c, 0, 66, 0
2, 112267, Note_on_c, 0, 63, 92
2, 112267, Note_on_c, 0, 83, 99
2, 112268, Note_on_c, 0, 66, 96
2, 112300, Control_c, 0, 64, 0
2, 112302, Note_on_c, 0, 63, 0
2, 112304, Note_on_c, 0, 76, 0
2, 112304, Note_on_c, 0, 75, 0
2, 112305, Note_on_c, 0, 66, 0
2, 112363, Note_on_c, 0, 78, 79
2, 112414, Note_on_c, 0, 56, 90
2, 112435, Control_c, 0, 64, 127
2, 112449, Note_on_c, 0, 76, 80
2, 112516, Note_on_c, 0, 63, 94
2, 112518, Note_on_c, 0, 66, 82
2, 112518, Note_on_c, 0, 75, 84
2, 112634, Note_on_c, 0, 76, 0
2, 112646, Note_on_c, 0, 76, 75
2, 112657, Note_on_c, 0, 63, 0
2, 112657, Note_on_c, 0, 66, 0
2, 112657, Note_on_c, 0, 75, 0
2, 112662, Note_on_c, 0, 75, 93
2, 112665, Note_on_c, 0, 66, 92
2, 112667, Note_on_c, 0, 63, 96
2, 112683, Note_on_c, 0, 71, 71
2, 112773, Note_on_c, 0, 75, 0
2, 112778, Note_on_c, 0, 75, 77
2, 112842, Note_on_c, 0, 56, 0
2, 112842, Note_on_c, 0, 76, 0
2, 112846, Note_on_c, 0, 56, 93
2, 112849, Note_on_c, 0, 76, 75
2, 112926, Note_on_c, 0, 83, 0
2, 112934, Note_on_c, 0, 83, 94
2, 112938, Note_on_c, 0, 68, 104
2, 113003, Note_on_c, 0, 78, 0
2, 113007, Note_on_c, 0, 78, 80
2, 113072, Note_on_c, 0, 76, 0
2, 113076, Note_on_c, 0, 76, 81
2, 113082, Note_on_c, 0, 64, 89
2, 113126, Note_on_c, 0, 75, 0
2, 113135, Note_on_c, 0, 75, 88
2, 113184, Note_on_c, 0, 75, 0
2, 113184, Note_on_c, 0, 66, 0
2, 113184, Note_on_c, 0, 78, 0
2, 113184, Note_on_c, 0, 83, 0
2, 113184, Note_on_c, 0, 76, 0
2, 113184, Note_on_c, 0, 63, 0
2, 113184, Note_on_c, 0, 68, 0
2, 113185, Note_on_c, 0, 71, 0
2, 113185, Note_on_c, 0, 56, 0
2, 113185, Note_on_c, 0, 64, 0
2, 113188, Control_c, 0, 64, 0
2, 113243, Note_on_c, 0, 76, 100
2, 113244, Note_on_c, 0, 49, 104
2, 113244, Note_on_c, 0, 61, 104
2, 113272, Control_c, 0, 64, 127
2, 113322, Note_on_c, 0, 71, 84
2, 113349, Note_on_c, 0, 61, 0
2, 113362, Note_on_c, 0, 49, 0
2, 113363, Note_on_c, 0, 76, 0
2, 113366, Control_c, 0, 64, 0
2, 113402, Note_on_c, 0, 71, 0
2, 113422, Note_on_c, 0, 68, 76
2, 113491, Note_on_c, 0, 44, 102
2, 113491, Note_on_c, 0, 76, 103
2, 113491, Note_on_c, 0, 56, 94
2, 113525, Note_on_c, 0, 68, 0
2, 113529, Note_on_c, 0, 56, 0
2, 113532, Note_on_c, 0, 44, 0
2, 113567, Note_on_c, 0, 71, 85
2, 113605, Note_on_c, 0, 76, 0
2, 113658, Note_on_c, 0, 71, 0
2, 113658, Note_on_c, 0, 68, 78
2, 113727, Note_on_c, 0, 76, 104
2, 113734, Note_on_c, 0, 59, 101
2, 113735, Note_on_c, 0, 47, 94
2, 113771, Note_on_c, 0, 68, 0
2, 113812, Note_on_c, 0, 76, 0
2, 113815, Note_on_c, 0, 71, 77
2, 113825, Note_on_c, 0, 47, 0
2, 113832, Note_on_c, 0, 59, 0
2, 113901, Note_on_c, 0, 71, 0
2, 113907, Note_on_c, 0, 68, 74
2, 113966, Note_on_c, 0, 76, 103
2, 113981, Note_on_c, 0, 54, 98
2, 113982, Note_on_c, 0, 42, 102
2, 114001, Control_c, 0, 64, 127
2, 114003, Note_on_c, 0, 68, 0
2, 114036, Note_on_c, 0, 71, 79
2, 114128, Note_on_c, 0, 68, 88
2, 114209, Note_on_c, 0, 56, 106
2, 114213, Note_on_c, 0, 44, 97
2, 114221, Note_on_c, 0, 78, 98
2, 114370, Note_on_c, 0, 68, 0
2, 114372, Note_on_c, 0, 80, 98
2, 114372, Note_on_c, 0, 51, 104
2, 114374, Note_on_c, 0, 39, 91
2, 114374, Note_on_c, 0, 68, 82
2, 114429, Note_on_c, 0, 71, 0
2, 114429, Note_on_c, 0, 68, 0
2, 114429, Note_on_c, 0, 44, 0
2, 114429, Control_c, 0, 64, 0
2, 114430, Note_on_c, 0, 76, 0
2, 114430, Note_on_c, 0, 56, 0
2, 114430, Note_on_c, 0, 78, 0
2, 114432, Note_on_c, 0, 80, 0
2, 114432, Note_on_c, 0, 42, 0
2, 114432, Note_on_c, 0, 54, 0
2, 114434, Note_on_c, 0, 51, 0
2, 114462, Note_on_c, 0, 39, 0
2, 114528, Note_on_c, 0, 49, 103
2, 114529, Note_on_c, 0, 37, 100
2, 114547, Control_c, 0, 64, 127
2, 114689, Note_on_c, 0, 63, 84
2, 114690, Note_on_c, 0, 66, 87
2, 114691, Note_on_c, 0, 71, 78
2, 114769, Note_on_c, 0, 75, 84
2, 114839, Note_on_c, 0, 63, 0
2, 114839, Note_on_c, 0, 66, 0
2, 114849, Note_on_c, 0, 66, 88
2, 114849, Note_on_c, 0, 83, 100
2, 114849, Note_on_c, 0, 63, 83
2, 114859, Control_c, 0, 64, 0
2, 114866, Note_on_c, 0, 37, 0
2, 114869, Note_on_c, 0, 75, 0
2, 114870, Note_on_c, 0, 49, 0
2, 114900, Note_on_c, 0, 63, 0
2, 114915, Note_on_c, 0, 66, 0
2, 114923, Control_c, 0, 64, 127
2, 114926, Note_on_c, 0, 66, 81
2, 114926, Note_on_c, 0, 78, 88
2, 114995, Note_on_c, 0, 56, 91
2, 114995, Note_on_c, 0, 76, 75
2, 115084, Note_on_c, 0, 66, 0
2, 115088, Note_on_c, 0, 75, 89
2, 115094, Note_on_c, 0, 63, 93
2, 115095, Note_on_c, 0, 66, 87
2, 115176, Note_on_c, 0, 76, 0
2, 115186, Note_on_c, 0, 76, 81
2, 115253, Note_on_c, 0, 63, 0
2, 115253, Note_on_c, 0, 66, 0
2, 115253, Note_on_c, 0, 71, 0
2, 115259, Note_on_c, 0, 63, 94
2, 115261, Note_on_c, 0, 71, 82
2, 115264, Note_on_c, 0, 66, 87
2, 115353, Note_on_c, 0, 75, 0
2, 115363, Note_on_c, 0, 75, 83
2, 115415, Note_on_c, 0, 56, 0
2, 115423, Note_on_c, 0, 56, 91
2, 115453, Note_on_c, 0, 76, 0
2, 115462, Note_on_c, 0, 76, 86
2, 115522, Note_on_c, 0, 83, 0
2, 115531, Note_on_c, 0, 68, 105
2, 115531, Note_on_c, 0, 83, 101
2, 115614, Note_on_c, 0, 78, 0
2, 115618, Note_on_c, 0, 78, 99
2, 115683, Note_on_c, 0, 76, 0
2, 115689, Note_on_c, 0, 64, 96
2, 115693, Note_on_c, 0, 76, 89
2, 115729, Note_on_c, 0, 75, 0
2, 115740, Note_on_c, 0, 75, 87
2, 115795, Note_on_c, 0, 68, 0
2, 115795, Note_on_c, 0, 78, 0
2, 115796, Note_on_c, 0, 75, 0
2, 115796, Note_on_c, 0, 83, 0
2, 115796, Note_on_c, 0, 64, 0
2, 115800, Control_c, 0, 64, 0
2, 115814, Note_on_c, 0, 56, 0
2, 115814, Note_on_c, 0, 63, 0
2, 115814, Note_on_c, 0, 66, 0
2, 115814, Note_on_c, 0, 71, 0
2, 115814, Note_on_c, 0, 76, 0
2, 115841, Note_on_c, 0, 49, 106
2, 115877, Note_on_c, 0, 49, 0
2, 115898, Control_c, 0, 64, 127
2, 116001, Note_on_c, 0, 83, 91
2, 116003, Note_on_c, 0, 75, 87
2, 116003, Note_on_c, 0, 63, 89
2, 116004, Note_on_c, 0, 66, 91
2, 116078, Note_on_c, 0, 87, 91
2, 116152, Note_on_c, 0, 63, 0
2, 116152, Note_on_c, 0, 66, 0
2, 116160, Note_on_c, 0, 66, 97
2, 116162, Note_on_c, 0, 63, 98
2, 116163, Note_on_c, 0, 95, 102
2, 116193, Control_c, 0, 64, 0
2, 116208, Note_on_c, 0, 83, 0
2, 116212, Note_on_c, 0, 87, 0
2, 116226, Note_on_c, 0, 90, 90
2, 116229, Note_on_c, 0, 63, 0
2, 116229, Note_on_c, 0, 75, 0
2, 116236, Note_on_c, 0, 66, 0
2, 116267, Note_on_c, 0, 88, 63
2, 116273, Note_on_c, 0, 56, 91
2, 116313, Control_c, 0, 64, 127
2, 116344, Note_on_c, 0, 95, 0
2, 116351, Note_on_c, 0, 87, 86
2, 116380, Note_on_c, 0, 66, 83
2, 116381, Note_on_c, 0, 63, 97
2, 116411, Note_on_c, 0, 54, 53
2, 116421, Note_on_c, 0, 54, 0
2, 116436, Note_on_c, 0, 88, 0
2, 116444, Note_on_c, 0, 88, 79
2, 116520, Note_on_c, 0, 63, 0
2, 116520, Note_on_c, 0, 66, 0
2, 116530, Note_on_c, 0, 63, 97
2, 116530, Note_on_c, 0, 66, 98
2, 116531, Note_on_c, 0, 83, 88
2, 116613, Note_on_c, 0, 87, 0
2, 116617, Note_on_c, 0, 87, 85
2, 116689, Note_on_c, 0, 56, 0
2, 116695, Note_on_c, 0, 56, 92
2, 116712, Note_on_c, 0, 88, 0
2, 116722, Note_on_c, 0, 88, 63
2, 116796, Note_on_c, 0, 95, 107
2, 116805, Note_on_c, 0, 63, 0
2, 116805, Note_on_c, 0, 66, 0
2, 116811, Note_on_c, 0, 63, 92
2, 116812, Note_on_c, 0, 66, 96
2, 116866, Note_on_c, 0, 90, 0
2, 116877, Note_on_c, 0, 90, 89
2, 116920, Note_on_c, 0, 88, 0
2, 116930, Note_on_c, 0, 88, 79
2, 116961, Note_on_c, 0, 71, 100
2, 116981, Note_on_c, 0, 87, 0
2, 116992, Note_on_c, 0, 87, 91
2, 117093, Note_on_c, 0, 71, 0
2, 117093, Note_on_c, 0, 95, 0
2, 117093, Note_on_c, 0, 63, 0
2, 117093, Note_on_c, 0, 56, 0
2, 117093, Note_on_c, 0, 87, 0
2, 117093, Note_on_c, 0, 90, 0
2, 117094, Note_on_c, 0, 66, 0
2, 117094, Note_on_c, 0, 83, 0
2, 117094, Note_on_c, 0, 88, 0
2, 117098, Control_c, 0, 64, 0
2, 117118, Note_on_c, 0, 49, 100
2, 117162, Note_on_c, 0, 49, 0
2, 117189, Control_c, 0, 64, 127
2, 117270, Note_on_c, 0, 71, 84
2, 117276, Note_on_c, 0, 66, 91
2, 117277, Note_on_c, 0, 63, 91
2, 117362, Note_on_c, 0, 75, 82
2, 117427, Note_on_c, 0, 63, 0
2, 117427, Note_on_c, 0, 66, 0
2, 117427, Note_on_c, 0, 71, 0
2, 117427, Note_on_c, 0, 75, 0
2, 117431, Note_on_c, 0, 75, 93
2, 117431, Note_on_c, 0, 63, 100
2, 117433, Note_on_c, 0, 66, 91
2, 117436, Note_on_c, 0, 71, 77
2, 117470, Note_on_c, 0, 73, 29
2, 117475, Control_c, 0, 64, 0
2, 117480, Note_on_c, 0, 73, 0
2, 117511, Note_on_c, 0, 63, 0
2, 117521, Note_on_c, 0, 78, 78
2, 117542, Control_c, 0, 64, 127
2, 117565, Note_on_c, 0, 75, 0
2, 117585, Note_on_c, 0, 56, 94
2, 117586, Note_on_c, 0, 76, 78
2, 117603, Note_on_c, 0, 66, 0
2, 117676, Note_on_c, 0, 75, 92
2, 117683, Note_on_c, 0, 63, 82
2, 117685, Note_on_c, 0, 66, 94
2, 117757, Note_on_c, 0, 76, 0
2, 117762, Note_on_c, 0, 76, 82
2, 117818, Note_on_c, 0, 66, 0
2, 117826, Note_on_c, 0, 63, 0
2, 117826, Note_on_c, 0, 71, 0
2, 117826, Note_on_c, 0, 75, 0
2, 117830, Note_on_c, 0, 66, 97
2, 117832, Note_on_c, 0, 71, 74
2, 117832, Note_on_c, 0, 75, 88
2, 117834, Note_on_c, 0, 63, 92
2, 117918, Note_on_c, 0, 75, 0
2, 117929, Note_on_c, 0, 75, 84
2, 117980, Note_on_c, 0, 76, 0
2, 117987, Note_on_c, 0, 56, 0
2, 117990, Note_on_c, 0, 76, 68
2, 117998, Note_on_c, 0, 56, 94
2, 118048, Note_on_c, 0, 83, 103
2, 118083, Note_on_c, 0, 68, 109
2, 118118, Note_on_c, 0, 78, 0
2, 118126, Note_on_c, 0, 78, 69
2, 118195, Note_on_c, 0, 76, 0
2, 118206, Note_on_c, 0, 76, 74
2, 118225, Note_on_c, 0, 75, 0
2, 118230, Note_on_c, 0, 64, 90
2, 118230, Note_on_c, 0, 75, 92
2, 118348, Note_on_c, 0, 75, 0
2, 118358, Note_on_c, 0, 75, 64
2, 118372, Note_on_c, 0, 68, 0
2, 118373, Note_on_c, 0, 78, 0
2, 118373, Note_on_c, 0, 63, 0
2, 118374, Note_on_c, 0, 56, 0
2, 118374, Note_on_c, 0, 64, 0
2, 118374, Note_on_c, 0, 71, 0
2, 118375, Note_on_c, 0, 83, 0
2, 118376, Control_c, 0, 64, 0
2, 118383, Note_on_c, 0, 73, 99
2, 118387, Note_on_c, 0, 66, 0
2, 118387, Note_on_c, 0, 76, 0
2, 118391, Note_on_c, 0, 57, 98
2, 118391, Note_on_c, 0, 45, 94
2, 118402, Note_on_c, 0, 75, 0
2, 118459, Note_on_c, 0, 69, 89
2, 118479, Control_c, 0, 64, 127
2, 118569, Note_on_c, 0, 64, 84
2, 118632, Note_on_c, 0, 73, 0
2, 118636, Note_on_c, 0, 52, 83
2, 118638, Note_on_c, 0, 73, 98
2, 118717, Note_on_c, 0, 69, 0
2, 118728, Note_on_c, 0, 69, 83
2, 118809, Note_on_c, 0, 64, 0
2, 118814, Note_on_c, 0, 64, 74
2, 118855, Note_on_c, 0, 57, 0
2, 118863, Note_on_c, 0, 73, 0
2, 118866, Note_on_c, 0, 57, 90
2, 118869, Note_on_c, 0, 73, 105
2, 118918, Note_on_c, 0, 57, 0
2, 118919, Note_on_c, 0, 64, 0
2, 118919, Note_on_c, 0, 52, 0
2, 118920, Note_on_c, 0, 45, 0
2, 118926, Control_c, 0, 64, 0
2, 118947, Note_on_c, 0, 69, 0
2, 118986, Control_c, 0, 64, 127
2, 119012, Note_on_c, 0, 47, 93
2, 119013, Note_on_c, 0, 59, 100
2, 119159, Note_on_c, 0, 75, 99
2, 119162, Note_on_c, 0, 71, 83
2, 119202, Note_on_c, 0, 54, 60
2, 119263, Note_on_c, 0, 42, 49
2, 119316, Note_on_c, 0, 47, 0
2, 119316, Note_on_c, 0, 73, 0
2, 119321, Note_on_c, 0, 76, 101
2, 119321, Note_on_c, 0, 47, 76
2, 119322, Note_on_c, 0, 73, 95
2, 119477, Note_on_c, 0, 59, 0
2, 119481, Note_on_c, 0, 78, 106
2, 119488, Note_on_c, 0, 59, 79
2, 119635, Control_c, 0, 64, 0
2, 119636, Note_on_c, 0, 71, 0
2, 119637, Note_on_c, 0, 59, 0
2, 119637, Note_on_c, 0, 47, 0
2, 119637, Note_on_c, 0, 54, 0
2, 119637, Note_on_c, 0, 73, 0
2, 119638, Note_on_c, 0, 75, 0
2, 119638, Note_on_c, 0, 78, 0
2, 119639, Note_on_c, 0, 42, 0
2, 119662, Note_on_c, 0, 79, 102
2, 119662, Note_on_c, 0, 76, 0
2, 119665, Note_on_c, 0, 67, 98
2, 119666, Note_on_c, 0, 76, 94
2, 119667, Note_on_c, 0, 72, 88
2, 119668, Note_on_c, 0, 60, 86
2, 119669, Note_on_c, 0, 48, 81
2, 119761, Control_c, 0, 64, 127
2, 119924, Note_on_c, 0, 55, 63
2, 120145, Note_on_c, 0, 60, 0
2, 120154, Note_on_c, 0, 60, 74
2, 120322, Note_on_c, 0, 67, 0
2, 120326, Note_on_c, 0, 67, 83
2, 120337, Note_on_c, 0, 64, 67
2, 120483, Note_on_c, 0, 76, 0
2, 120491, Note_on_c, 0, 76, 90
2, 120494, Note_on_c, 0, 43, 48
2, 120499, Note_on_c, 0, 43, 0
2, 120568, Note_on_c, 0, 78, 93
2, 120622, Note_on_c, 0, 48, 0
2, 120628, Note_on_c, 0, 48, 83
2, 120633, Note_on_c, 0, 86, 101
2, 120801, Note_on_c, 0, 84, 100
2, 120911, Control_c, 0, 64, 0
2, 120913, Note_on_c, 0, 78, 0
2, 120914, Note_on_c, 0, 72, 0
2, 120914, Note_on_c, 0, 76, 0
2, 120914, Note_on_c, 0, 84, 0
2, 120914, Note_on_c, 0, 48, 0
2, 120915, Note_on_c, 0, 86, 0
2, 120929, Note_on_c, 0, 55, 0
2, 120929, Note_on_c, 0, 60, 0
2, 120929, Note_on_c, 0, 64, 0
2, 120929, Note_on_c, 0, 67, 0
2, 120929, Note_on_c, 0, 79, 0
2, 120960, Note_on_c, 0, 50, 88
2, 120961, Note_on_c, 0, 83, 103
2, 120971, Note_on_c, 0, 62, 93
2, 120980, Note_on_c, 0, 74, 79
2, 120987, Note_on_c, 0, 78, 75
2, 121067, Control_c, 0, 64, 127
2, 121239, Note_on_c, 0, 57, 86
2, 121282, Note_on_c, 0, 83, 0
2, 121292, Note_on_c, 0, 83, 50
2, 121451, Note_on_c, 0, 62, 0
2, 121451, Note_on_c, 0, 74, 0
2, 121456, Note_on_c, 0, 81, 92
2, 121457, Note_on_c, 0, 62, 86
2, 121459, Note_on_c, 0, 74, 75
2, 121540, Note_on_c, 0, 79, 80
2, 121605, Note_on_c, 0, 81, 0
2, 121612, Note_on_c, 0, 74, 0
2, 121612, Note_on_c, 0, 78, 0
2, 121616, Note_on_c, 0, 81, 95
2, 121617, Note_on_c, 0, 69, 89
2, 121618, Note_on_c, 0, 78, 91
2, 121619, Note_on_c, 0, 74, 89
2, 121624, Note_on_c, 0, 66, 87
2, 121920, Note_on_c, 0, 50, 0
2, 121930, Note_on_c, 0, 50, 75
2, 122088, Note_on_c, 0, 78, 0
2, 122094, Note_on_c, 0, 78, 86
2, 122142, Note_on_c, 0, 79, 0
2, 122153, Note_on_c, 0, 79, 93
2, 122187, Note_on_c, 0, 83, 0
2, 122188, Note_on_c, 0, 69, 0
2, 122188, Note_on_c, 0, 81, 0
2, 122189, Note_on_c, 0, 57, 0
2, 122189, Note_on_c, 0, 78, 0
2, 122189, Note_on_c, 0, 74, 0
2, 122189, Note_on_c, 0, 50, 0
2, 122190, Note_on_c, 0, 62, 0
2, 122190, Note_on_c, 0, 66, 0
2, 122192, Control_c, 0, 64, 0
2, 122241, Note_on_c, 0, 81, 100
2, 122245, Note_on_c, 0, 52, 90
2, 122246, Note_on_c, 0, 64, 96
2, 122311, Control_c, 0, 64, 127
2, 122458, Note_on_c, 0, 59, 83
2, 122557, Note_on_c, 0, 81, 0
2, 122567, Note_on_c, 0, 81, 107
2, 122734, Note_on_c, 0, 64, 0
2, 122741, Note_on_c, 0, 52, 0
2, 122744, Note_on_c, 0, 64, 81
2, 122747, Note_on_c, 0, 83, 102
2, 122748, Note_on_c, 0, 52, 61
2, 122833, Note_on_c, 0, 79, 0
2, 122839, Note_on_c, 0, 79, 101
2, 122883, Note_on_c, 0, 71, 85
2, 122884, Note_on_c, 0, 67, 87
2, 123037, Note_on_c, 0, 78, 101
2, 123072, Note_on_c, 0, 74, 51
2, 123179, Note_on_c, 0, 52, 0
2, 123179, Note_on_c, 0, 79, 0
2, 123184, Note_on_c, 0, 79, 98
2, 123187, Note_on_c, 0, 52, 84
2, 123340, Note_on_c, 0, 81, 0
2, 123349, Note_on_c, 0, 81, 98
2, 123425, Note_on_c, 0, 74, 0
2, 123432, Note_on_c, 0, 74, 105
2, 123437, Note_on_c, 0, 52, 0
2, 123437, Note_on_c, 0, 59, 0
2, 123437, Note_on_c, 0, 67, 0
2, 123438, Note_on_c, 0, 64, 0
2, 123438, Note_on_c, 0, 83, 0
2, 123438, Note_on_c, 0, 81, 0
2, 123438, Note_on_c, 0, 79, 0
2, 123438, Note_on_c, 0, 71, 0
2, 123438, Note_on_c, 0, 78, 0
2, 123439, Control_c, 0, 64, 0
2, 123488, Note_on_c, 0, 54, 98
2, 123540, Control_c, 0, 64, 127
2, 123649, Note_on_c, 0, 90, 102
2, 123681, Note_on_c, 0, 62, 90
2, 123731, Note_on_c, 0, 91, 100
2, 123809, Note_on_c, 0, 90, 0
2, 123813, Note_on_c, 0, 90, 97
2, 123834, Note_on_c, 0, 66, 84
2, 123885, Note_on_c, 0, 86, 93
2, 123948, Note_on_c, 0, 81, 86
2, 123975, Note_on_c, 0, 69, 91
2, 124038, Note_on_c, 0, 78, 104
2, 124090, Note_on_c, 0, 54, 0
2, 124091, Note_on_c, 0, 90, 0
2, 124091, Note_on_c, 0, 91, 0
2, 124091, Note_on_c, 0, 66, 0
2, 124091, Note_on_c, 0, 86, 0
2, 124091, Note_on_c, 0, 81, 0
2, 124091, Note_on_c, 0, 78, 0
2, 124091, Note_on_c, 0, 62, 0
2, 124091, Note_on_c, 0, 69, 0
2, 124096, Control_c, 0, 64, 0
2, 124101, Note_on_c, 0, 74, 0
2, 124120, Note_on_c, 0, 72, 104
2, 124122, Note_on_c, 0, 74, 100
2, 124127, Note_on_c, 0, 55, 98
2, 124135, Note_on_c, 0, 67, 89
2, 124149, Note_on_c, 0, 65, 78
2, 124154, Control_c, 0, 64, 127
2, 124277, Note_on_c, 0, 67, 0
2, 124285, Note_on_c, 0, 67, 87
2, 124327, Note_on_c, 0, 62, 84
2, 124354, Note_on_c, 0, 72, 0
2, 124365, Note_on_c, 0, 72, 102
2, 124389, Note_on_c, 0, 59, 95
2, 124477, Note_on_c, 0, 55, 0
2, 124482, Note_on_c, 0, 55, 75
2, 124536, Note_on_c, 0, 50, 80
2, 124592, Note_on_c, 0, 74, 0
2, 124597, Note_on_c, 0, 43, 86
2, 124600, Note_on_c, 0, 74, 104
2, 124679, Control_c, 0, 64, 0
2, 124680, Note_on_c, 0, 72, 0
2, 124681, Note_on_c, 0, 65, 0
2, 124681, Note_on_c, 0, 55, 0
2, 124681, Note_on_c, 0, 59, 0
2, 124682, Note_on_c, 0, 67, 0
2, 124682, Note_on_c, 0, 50, 0
2, 124682, Note_on_c, 0, 62, 0
2, 124683, Note_on_c, 0, 43, 0
2, 124688, Note_on_c, 0, 74, 0
2, 124773, Note_on_c, 0, 76, 104
2, 124775, Note_on_c, 0, 57, 106
2, 124779, Note_on_c, 0, 45, 97
2, 124779, Note_on_c, 0, 72, 95
2, 124779, Note_on_c, 0, 69, 96
2, 124779, Note_on_c, 0, 52, 87
2, 124815, Note_on_c, 0, 52, 0
2, 124816, Note_on_c, 0, 57, 0
2, 124819, Note_on_c, 0, 45, 0
2, 125034, Note_on_c, 0, 57, 97
2, 125035, Note_on_c, 0, 52, 78
2, 125036, Note_on_c, 0, 45, 95
2, 125061, Control_c, 0, 64, 127
2, 125277, Note_on_c, 0, 64, 106
2, 125280, Note_on_c, 0, 55, 91
2, 125283, Note_on_c, 0, 52, 0
2, 125283, Note_on_c, 0, 57, 0
2, 125285, Note_on_c, 0, 60, 94
2, 125288, Note_on_c, 0, 57, 86
2, 125291, Note_on_c, 0, 45, 0
2, 125294, Note_on_c, 0, 52, 73
2, 125299, Note_on_c, 0, 45, 74
2, 125429, Note_on_c, 0, 76, 0
2, 125434, Note_on_c, 0, 76, 105
2, 125464, Note_on_c, 0, 77, 41
2, 125568, Note_on_c, 0, 76, 0
2, 125579, Note_on_c, 0, 76, 83
2, 125605, Note_on_c, 0, 74, 89
2, 125629, Note_on_c, 0, 72, 0
2, 125635, Note_on_c, 0, 72, 85
2, 125648, Note_on_c, 0, 78, 109
2, 125653, Note_on_c, 0, 71, 84
2, 125660, Note_on_c, 0, 69, 0
2, 125670, Note_on_c, 0, 69, 81
2, 125680, Note_on_c, 0, 67, 76
2, 125699, Note_on_c, 0, 65, 56
2, 125706, Note_on_c, 0, 64, 0
2, 125717, Note_on_c, 0, 64, 69
2, 125734, Note_on_c, 0, 62, 92
2, 125752, Note_on_c, 0, 60, 0
2, 125756, Note_on_c, 0, 60, 81
2, 125760, Note_on_c, 0, 55, 0
2, 125760, Note_on_c, 0, 57, 0
2, 125763, Note_on_c, 0, 59, 86
2, 125770, Note_on_c, 0, 57, 94
2, 125771, Note_on_c, 0, 55, 72
2, 125806, Note_on_c, 0, 52, 0
2, 125811, Note_on_c, 0, 52, 80
2, 125824, Note_on_c, 0, 53, 83
2, 125825, Note_on_c, 0, 50, 89
2, 125841, Note_on_c, 0, 48, 55
2, 125918, Note_on_c, 0, 79, 101
2, 125921, Note_on_c, 0, 77, 0
2, 125924, Note_on_c, 0, 73, 61
2, 125928, Note_on_c, 0, 77, 78
2, 125928, Note_on_c, 0, 73, 0
2, 125928, Note_on_c, 0, 76, 0
2, 125932, Note_on_c, 0, 76, 66
2, 126015, Control_c, 0, 64, 0
2, 126016, Note_on_c, 0, 48, 0
2, 126016, Note_on_c, 0, 53, 0
2, 126016, Note_on_c, 0, 74, 0
2, 126016, Note_on_c, 0, 45, 0
2, 126016, Note_on_c, 0, 62, 0
2, 126016, Note_on_c, 0, 65, 0
2, 126016, Note_on_c, 0, 57, 0
2, 126016, Note_on_c, 0, 77, 0
2, 126016, Note_on_c, 0, 71, 0
2, 126016, Note_on_c, 0, 60, 0
2, 126016, Note_on_c, 0, 55, 0
2, 126016, Note_on_c, 0, 59, 0
2, 126017, Note_on_c, 0, 72, 0
2, 126017, Note_on_c, 0, 76, 0
2, 126017, Note_on_c, 0, 79, 0
2, 126017, Note_on_c, 0, 78, 0
2, 126028, Note_on_c, 0, 50, 0
2, 126028, Note_on_c, 0, 64, 0
2, 126028, Note_on_c, 0, 69, 0
2, 126036, Note_on_c, 0, 52, 0
2, 126036, Note_on_c, 0, 67, 0
2, 126071, Note_on_c, 0, 57, 109
2, 126071, Note_on_c, 0, 79, 104
2, 126072, Note_on_c, 0, 69, 101
2, 126072, Note_on_c, 0, 74, 101
2, 126073, Note_on_c, 0, 54, 95
2, 126076, Note_on_c, 0, 47, 97
2, 126113, Note_on_c, 0, 54, 0
2, 126116, Note_on_c, 0, 57, 0
2, 126121, Note_on_c, 0, 47, 0
2, 126316, Note_on_c, 0, 57, 103
2, 126323, Note_on_c, 0, 54, 91
2, 126324, Note_on_c, 0, 47, 95
2, 126343, Control_c, 0, 64, 127
2, 126543, Note_on_c, 0, 74, 0
2, 126551, Note_on_c, 0, 57, 0
2, 126551, Note_on_c, 0, 69, 0
2, 126554, Note_on_c, 0, 74, 89
2, 126556, Note_on_c, 0, 78, 103
2, 126557, Note_on_c, 0, 62, 97
2, 126557, Note_on_c, 0, 57, 88
2, 126562, Note_on_c, 0, 69, 77
2, 126571, Note_on_c, 0, 71, 55
2, 126581, Note_on_c, 0, 71, 0
2, 126649, Note_on_c, 0, 76, 92
2, 126720, Note_on_c, 0, 78, 0
2, 126726, Note_on_c, 0, 78, 108
2, 126858, Note_on_c, 0, 47, 0
2, 126863, Note_on_c, 0, 47, 87
2, 126942, Note_on_c, 0, 54, 0
2, 126951, Note_on_c, 0, 54, 71
2, 126973, Note_on_c, 0, 47, 0
2, 126983, Note_on_c, 0, 47, 52
2, 127011, Note_on_c, 0, 57, 0
2, 127011, Note_on_c, 0, 62, 0
2, 127017, Note_on_c, 0, 62, 102
2, 127022, Note_on_c, 0, 57, 85
2, 127180, Note_on_c, 0, 79, 0
2, 127189, Note_on_c, 0, 79, 97
2, 127297, Note_on_c, 0, 57, 0
2, 127298, Note_on_c, 0, 76, 0
2, 127298, Note_on_c, 0, 79, 0
2, 127298, Note_on_c, 0, 62, 0
2, 127298, Note_on_c, 0, 54, 0
2, 127298, Note_on_c, 0, 47, 0
2, 127298, Note_on_c, 0, 69, 0
2, 127298, Note_on_c, 0, 74, 0
2, 127299, Note_on_c, 0, 78, 0
2, 127299, Control_c, 0, 64, 0
2, 127347, Note_on_c, 0, 81, 101
2, 127352, Note_on_c, 0, 72, 91
2, 127353, Note_on_c, 0, 76, 92
2, 127361, Note_on_c, 0, 54, 89
2, 127361, Note_on_c, 0, 42, 80
2, 127411, Control_c, 0, 64, 127
2, 127610, Note_on_c, 0, 81, 0
2, 127619, Note_on_c, 0, 81, 97
2, 127694, Note_on_c, 0, 64, 83
2, 127702, Note_on_c, 0, 60, 73
2, 127707, Note_on_c, 0, 57, 79
2, 127833, Note_on_c, 0, 76, 0
2, 127841, Note_on_c, 0, 42, 0
2, 127844, Note_on_c, 0, 76, 87
2, 127848, Note_on_c, 0, 54, 0
2, 127852, Note_on_c, 0, 42, 74
2, 127854, Note_on_c, 0, 54, 76
2, 127994, Note_on_c, 0, 54, 0
2, 127999, Note_on_c, 0, 54, 79
2, 128148, Note_on_c, 0, 42, 0
2, 128152, Note_on_c, 0, 42, 81
2, 128156, Note_on_c, 0, 76, 0
2, 128163, Note_on_c, 0, 72, 0
2, 128164, Note_on_c, 0, 76, 98
2, 128171, Note_on_c, 0, 72, 90
2, 128309, Note_on_c, 0, 64, 0
2, 128317, Note_on_c, 0, 57, 0
2, 128317, Note_on_c, 0, 60, 0
2, 128317, Note_on_c, 0, 72, 0
2, 128317, Note_on_c, 0, 76, 0
2, 128319, Note_on_c, 0, 64, 93
2, 128321, Note_on_c, 0, 76, 102
2, 128321, Note_on_c, 0, 57, 90
2, 128327, Note_on_c, 0, 72, 84
2, 128328, Note_on_c, 0, 60, 89
2, 128329, Note_on_c, 0, 54, 0
2, 128463, Note_on_c, 0, 72, 0
2, 128463, Note_on_c, 0, 76, 0
2, 128472, Note_on_c, 0, 76, 108
2, 128473, Note_on_c, 0, 72, 91
2, 128557, Note_on_c, 0, 81, 0
2, 128558, Note_on_c, 0, 42, 0
2, 128558, Note_on_c, 0, 57, 0
2, 128559, Note_on_c, 0, 76, 0
2, 128566, Control_c, 0, 64, 0
2, 128578, Note_on_c, 0, 60, 0
2, 128578, Note_on_c, 0, 64, 0
2, 128578, Note_on_c, 0, 72, 0
2, 128635, Note_on_c, 0, 59, 110
2, 128637, Note_on_c, 0, 75, 107
2, 128637, Note_on_c, 0, 47, 98
2, 128637, Note_on_c, 0, 54, 96
2, 128640, Note_on_c, 0, 71, 94
2, 128640, Note_on_c, 0, 51, 96
2, 128670, Control_c, 0, 64, 127
2, 128884, Note_on_c, 0, 76, 96
2, 129121, Note_on_c, 0, 78, 110
2, 129123, Note_on_c, 0, 47, 0
2, 129127, Note_on_c, 0, 35, 97
2, 129128, Note_on_c, 0, 47, 101
2, 129227, Note_on_c, 0, 71, 0
2, 129227, Note_on_c, 0, 47, 0
2, 129227, Note_on_c, 0, 51, 0
2, 129227, Note_on_c, 0, 75, 0
2, 129228, Note_on_c, 0, 76, 0
2, 129228, Note_on_c, 0, 54, 0
2, 129228, Note_on_c, 0, 78, 0
2, 129229, Control_c, 0, 64, 0
2, 129231, Note_on_c, 0, 35, 0
2, 129231, Note_on_c, 0, 59, 0
2, 129287, Note_on_c, 0, 86, 107
2, 129289, Note_on_c, 0, 74, 106
2, 129291, Note_on_c, 0, 78, 106
2, 129293, Note_on_c, 0, 48, 106
2, 129296, Note_on_c, 0, 36, 97
2, 129323, Control_c, 0, 64, 127
2, 129551, Note_on_c, 0, 84, 101
2, 129553, Note_on_c, 0, 72, 98
2, 129561, Note_on_c, 0, 48, 0
2, 129572, Note_on_c, 0, 48, 65
2, 129753, Note_on_c, 0, 36, 0
2, 129763, Note_on_c, 0, 36, 88
2, 129767, Note_on_c, 0, 69, 105
2, 129768, Note_on_c, 0, 81, 101
2, 129866, Control_c, 0, 64, 0
2, 129866, Note_on_c, 0, 36, 0
2, 129868, Note_on_c, 0, 48, 0
2, 129869, Note_on_c, 0, 72, 0
2, 129869, Note_on_c, 0, 84, 0
2, 129869, Note_on_c, 0, 74, 0
2, 129869, Note_on_c, 0, 86, 0
2, 129871, Note_on_c, 0, 69, 0
2, 129871, Note_on_c, 0, 81, 0
2, 129871, Note_on_c, 0, 78, 0
2, 129922, Note_on_c, 0, 83, 109
2, 129923, Note_on_c, 0, 74, 107
2, 129925, Note_on_c, 0, 71, 108
2, 129925, Note_on_c, 0, 50, 109
2, 129926, Note_on_c, 0, 78, 105
2, 129926, Note_on_c, 0, 38, 106
2, 129960, Control_c, 0, 64, 127
2, 130214, Note_on_c, 0, 71, 0
2, 130219, Note_on_c, 0, 90, 107
2, 130286, Note_on_c, 0, 91, 106
2, 130360, Note_on_c, 0, 90, 0
2, 130370, Note_on_c, 0, 90, 102
2, 130464, Note_on_c, 0, 86, 97
2, 130518, Note_on_c, 0, 81, 86
2, 130597, Note_on_c, 0, 79, 103
2, 130659, Note_on_c, 0, 78, 0
2, 130663, Note_on_c, 0, 78, 101
2, 130721, Note_on_c, 0, 74, 0
2, 130726, Note_on_c, 0, 74, 95
2, 130821, Note_on_c, 0, 69, 101
2, 130839, Note_on_c, 0, 62, 107
2, 130844, Note_on_c, 0, 50, 0
2, 130846, Note_on_c, 0, 57, 100
2, 130848, Note_on_c, 0, 50, 96
2, 130851, Note_on_c, 0, 54, 88
2, 130905, Note_on_c, 0, 74, 0
2, 130910, Note_on_c, 0, 74, 77
2, 130944, Note_on_c, 0, 78, 0
2, 130954, Note_on_c, 0, 78, 88
2, 130967, Control_c, 0, 64, 0
2, 130968, Note_on_c, 0, 83, 0
2, 130968, Note_on_c, 0, 90, 0
2, 130968, Note_on_c, 0, 62, 0
2, 130969, Note_on_c, 0, 50, 0
2, 130970, Note_on_c, 0, 57, 0
2, 130970, Note_on_c, 0, 54, 0
2, 130971, Note_on_c, 0, 69, 0
2, 130974, Note_on_c, 0, 91, 0
2, 130982, Note_on_c, 0, 38, 0
2, 130990, Note_on_c, 0, 86, 0
2, 131005, Note_on_c, 0, 79, 0
2, 131020, Note_on_c, 0, 81, 0
2, 131029, Note_on_c, 0, 81, 95
2, 131036, Note_on_c, 0, 74, 0
2, 131051, Note_on_c, 0, 78, 0
2, 131082, Note_on_c, 0, 81, 0
2, 131150, Note_on_c, 0, 71, 112
2, 131152, Note_on_c, 0, 83, 111
2, 131155, Note_on_c, 0, 76, 105
2, 131156, Note_on_c, 0, 28, 98
2, 131156, Note_on_c, 0, 40, 110
2, 131158, Note_on_c, 0, 79, 95
2, 131182, Control_c, 0, 64, 127
2, 131393, Note_on_c, 0, 52, 85
2, 131512, Note_on_c, 0, 52, 0
2, 131521, Note_on_c, 0, 52, 73
2, 131619, Note_on_c, 0, 64, 107
2, 131623, Note_on_c, 0, 55, 97
2, 131623, Note_on_c, 0, 59, 103
2, 131782, Note_on_c, 0, 81, 107
2, 131784, Note_on_c, 0, 69, 108
2, 131785, Note_on_c, 0, 74, 104
2, 131786, Note_on_c, 0, 78, 104
2, 131942, Note_on_c, 0, 52, 0
2, 131949, Note_on_c, 0, 52, 86
2, 132034, Note_on_c, 0, 74, 0
2, 132039, Note_on_c, 0, 74, 113
2, 132039, Note_on_c, 0, 86, 112
2, 132126, Note_on_c, 0, 55, 0
2, 132126, Note_on_c, 0, 59, 0
2, 132126, Note_on_c, 0, 64, 0
2, 132136, Note_on_c, 0, 64, 101
2, 132136, Note_on_c, 0, 59, 103
2, 132137, Note_on_c, 0, 55, 92
2, 132269, Note_on_c, 0, 72, 111
2, 132269, Note_on_c, 0, 84, 108
2, 132362, Note_on_c, 0, 40, 0
2, 132363, Note_on_c, 0, 81, 0
2, 132363, Note_on_c, 0, 74, 0
2, 132363, Note_on_c, 0, 69, 0
2, 132364, Note_on_c, 0, 59, 0
2, 132364, Note_on_c, 0, 64, 0
2, 132364, Note_on_c, 0, 76, 0
2, 132364, Note_on_c, 0, 79, 0
2, 132365, Control_c, 0, 64, 0
2, 132365, Note_on_c, 0, 55, 0
2, 132365, Note_on_c, 0, 86, 0
2, 132365, Note_on_c, 0, 71, 0
2, 132365, Note_on_c, 0, 83, 0
2, 132365, Note_on_c, 0, 78, 0
2, 132366, Note_on_c, 0, 72, 0
2, 132366, Note_on_c, 0, 84, 0
2, 132380, Note_on_c, 0, 28, 0
2, 132387, Note_on_c, 0, 52, 0
2, 132428, Note_on_c, 0, 83, 115
2, 132430, Note_on_c, 0, 71, 111
2, 132431, Note_on_c, 0, 24, 109
2, 132434, Note_on_c, 0, 79, 94
2, 132434, Note_on_c, 0, 36, 105
2, 132435, Note_on_c, 0, 76, 111
2, 132441, Control_c, 0, 64, 127
2, 132587, Note_on_c, 0, 24, 0
2, 132587, Note_on_c, 0, 36, 0
2, 132598, Note_on_c, 0, 36, 70
2, 132598, Note_on_c, 0, 24, 57
2, 132680, Note_on_c, 0, 48, 99
2, 132802, Note_on_c, 0, 48, 0
2, 132809, Note_on_c, 0, 48, 86
2, 132930, Note_on_c, 0, 52, 95
2, 132930, Note_on_c, 0, 60, 108
2, 132931, Note_on_c, 0, 55, 88
2, 133082, Note_on_c, 0, 81, 111
2, 133085, Note_on_c, 0, 69, 112
2, 133085, Note_on_c, 0, 74, 107
2, 133088, Note_on_c, 0, 78, 107
2, 133240, Note_on_c, 0, 48, 0
2, 133249, Note_on_c, 0, 48, 96
2, 133340, Note_on_c, 0, 74, 0
2, 133347, Note_on_c, 0, 24, 0
2, 133348, Note_on_c, 0, 86, 113
2, 133348, Note_on_c, 0, 74, 113
2, 133432, Note_on_c, 0, 52, 0
2, 133440, Note_on_c, 0, 55, 0
2, 133440, Note_on_c, 0, 60, 0
2, 133442, Note_on_c, 0, 52, 91
2, 133443, Note_on_c, 0, 60, 102
2, 133446, Note_on_c, 0, 55, 73
2, 133581, Note_on_c, 0, 84, 111
2, 133581, Note_on_c, 0, 72, 113
2, 133643, Control_c, 0, 64, 0
2, 133644, Note_on_c, 0, 71, 0
2, 133644, Note_on_c, 0, 81, 0
2, 133645, Note_on_c, 0, 69, 0
2, 133645, Note_on_c, 0, 74, 0
2, 133645, Note_on_c, 0, 79, 0
2, 133645, Note_on_c, 0, 76, 0
2, 133645, Note_on_c, 0, 83, 0
2, 133645, Note_on_c, 0, 86, 0
2, 133645, Note_on_c, 0, 52, 0
2, 133645, Note_on_c, 0, 55, 0
2, 133645, Note_on_c, 0, 60, 0
2, 133646, Note_on_c, 0, 78, 0
2, 133646, Note_on_c, 0, 72, 0
2, 133646, Note_on_c, 0, 84, 0
2, 133649, Note_on_c, 0, 36, 0
2, 133670, Note_on_c, 0, 48, 0
2, 133735, Note_on_c, 0, 83, 116
2, 133737, Note_on_c, 0, 71, 113
2, 133740, Note_on_c, 0, 74, 103
2, 133741, Note_on_c, 0, 43, 111
2, 133741, Note_on_c, 0, 31, 102
2, 133742, Note_on_c, 0, 79, 96
2, 133747, Control_c, 0, 64, 127
2, 133986, Note_on_c, 0, 55, 93
2, 134131, Note_on_c, 0, 55, 0
2, 134131, Note_on_c, 0, 74, 0
2, 134136, Note_on_c, 0, 74, 80
2, 134136, Note_on_c, 0, 55, 68
2, 134225, Note_on_c, 0, 67, 105
2, 134226, Note_on_c, 0, 59, 103
2, 134226, Note_on_c, 0, 62, 102
2, 134369, Note_on_c, 0, 67, 0
2, 134369, Note_on_c, 0, 74, 0
2, 134369, Note_on_c, 0, 79, 0
2, 134376, Note_on_c, 0, 71, 0
2, 134380, Note_on_c, 0, 79, 107
2, 134380, Note_on_c, 0, 74, 100
2, 134380, Note_on_c, 0, 67, 107
2, 134380, Note_on_c, 0, 71, 99
2, 134530, Note_on_c, 0, 55, 0
2, 134541, Note_on_c, 0, 55, 95
2, 134543, Note_on_c, 0, 43, 0
2, 134629, Note_on_c, 0, 81, 106
2, 134631, Note_on_c, 0, 69, 106
2, 134707, Note_on_c, 0, 62, 0
2, 134707, Note_on_c, 0, 67, 0
2, 134718, Note_on_c, 0, 62, 91
2, 134718, Note_on_c, 0, 67, 102
2, 134730, Note_on_c, 0, 59, 0
2, 134734, Note_on_c, 0, 59, 96
2, 134860, Note_on_c, 0, 83, 0
2, 134868, Note_on_c, 0, 71, 0
2, 134871, Note_on_c, 0, 83, 103
2, 134872, Note_on_c, 0, 71, 101
2, 134944, Note_on_c, 0, 81, 0
2, 134945, Control_c, 0, 64, 0
2, 134946, Note_on_c, 0, 69, 0
2, 134947, Note_on_c, 0, 79, 0
2, 134947, Note_on_c, 0, 74, 0
2, 134947, Note_on_c, 0, 62, 0
2, 134947, Note_on_c, 0, 71, 0
2, 134947, Note_on_c, 0, 83, 0
2, 134948, Note_on_c, 0, 59, 0
2, 134949, Note_on_c, 0, 31, 0
2, 134968, Note_on_c, 0, 55, 0
2, 134968, Note_on_c, 0, 67, 0
2, 135026, Note_on_c, 0, 83, 111
2, 135028, Note_on_c, 0, 76, 105
2, 135030, Note_on_c, 0, 73, 107
2, 135032, Note_on_c, 0, 71, 108
2, 135037, Note_on_c, 0, 33, 102
2, 135038, Note_on_c, 0, 45, 107
2, 135045, Control_c, 0, 64, 127
2, 135183, Note_on_c, 0, 45, 0
2, 135192, Note_on_c, 0, 45, 80
2, 135283, Note_on_c, 0, 81, 102
2, 135284, Note_on_c, 0, 69, 100
2, 135287, Note_on_c, 0, 57, 98
2, 135398, Note_on_c, 0, 57, 0
2, 135409, Note_on_c, 0, 57, 89
2, 135528, Note_on_c, 0, 69, 0
2, 135528, Note_on_c, 0, 73, 0
2, 135528, Note_on_c, 0, 76, 0
2, 135535, Note_on_c, 0, 73, 108
2, 135535, Note_on_c, 0, 76, 110
2, 135539, Note_on_c, 0, 69, 86
2, 135684, Note_on_c, 0, 64, 92
2, 135748, Note_on_c, 0, 61, 92
2, 135836, Note_on_c, 0, 57, 0
2, 135841, Note_on_c, 0, 57, 90
2, 135937, Note_on_c, 0, 52, 86
2, 136005, Note_on_c, 0, 57, 0
2, 136016, Note_on_c, 0, 57, 77
2, 136023, Note_on_c, 0, 45, 0
2, 136193, Note_on_c, 0, 78, 99
2, 136257, Note_on_c, 0, 79, 97
2, 136291, Note_on_c, 0, 33, 0
2, 136292, Note_on_c, 0, 57, 0
2, 136293, Note_on_c, 0, 73, 0
2, 136293, Note_on_c, 0, 76, 0
2, 136293, Note_on_c, 0, 71, 0
2, 136293, Note_on_c, 0, 64, 0
2, 136293, Note_on_c, 0, 81, 0
2, 136293, Note_on_c, 0, 61, 0
2, 136294, Note_on_c, 0, 83, 0
2, 136294, Note_on_c, 0, 78, 0
2, 136296, Control_c, 0, 64, 0
2, 136312, Note_on_c, 0, 52, 0
2, 136312, Note_on_c, 0, 69, 0
2, 136327, Note_on_c, 0, 79, 0
2, 136338, Note_on_c, 0, 81, 104
2, 136339, Note_on_c, 0, 76, 101
2, 136339, Note_on_c, 0, 48, 94
2, 136341, Note_on_c, 0, 72, 95
2, 136396, Control_c, 0, 64, 127
2, 136424, Note_on_c, 0, 55, 81
2, 136493, Note_on_c, 0, 60, 90
2, 136576, Note_on_c, 0, 62, 89
2, 136657, Note_on_c, 0, 64, 84
2, 136734, Note_on_c, 0, 60, 0
2, 136745, Note_on_c, 0, 60, 81
2, 136834, Note_on_c, 0, 64, 0
2, 136839, Note_on_c, 0, 64, 85
2, 136845, Note_on_c, 0, 79, 99
2, 136904, Note_on_c, 0, 67, 85
2, 136932, Note_on_c, 0, 78, 92
2, 136988, Note_on_c, 0, 72, 0
2, 136998, Note_on_c, 0, 74, 103
2, 136999, Note_on_c, 0, 72, 97
2, 137072, Note_on_c, 0, 67, 0
2, 137078, Note_on_c, 0, 67, 90
2, 137134, Note_on_c, 0, 64, 0
2, 137144, Note_on_c, 0, 64, 92
2, 137218, Note_on_c, 0, 60, 0
2, 137222, Note_on_c, 0, 60, 95
2, 137295, Note_on_c, 0, 48, 0
2, 137300, Note_on_c, 0, 48, 92
2, 137379, Note_on_c, 0, 55, 0
2, 137390, Note_on_c, 0, 55, 83
2, 137487, Note_on_c, 0, 60, 0
2, 137487, Note_on_c, 0, 79, 0
2, 137491, Note_on_c, 0, 79, 97
2, 137492, Note_on_c, 0, 60, 86
2, 137548, Note_on_c, 0, 81, 0
2, 137560, Note_on_c, 0, 81, 99
2, 137630, Note_on_c, 0, 67, 0
2, 137630, Control_c, 0, 64, 0
2, 137630, Note_on_c, 0, 62, 0
2, 137630, Note_on_c, 0, 72, 0
2, 137630, Note_on_c, 0, 76, 0
2, 137631, Note_on_c, 0, 60, 0
2, 137631, Note_on_c, 0, 81, 0
2, 137632, Note_on_c, 0, 78, 0
2, 137640, Note_on_c, 0, 64, 0
2, 137640, Note_on_c, 0, 74, 0
2, 137640, Note_on_c, 0, 79, 0
2, 137643, Note_on_c, 0, 84, 108
2, 137646, Note_on_c, 0, 74, 103
2, 137648, Note_on_c, 0, 79, 96
2, 137648, Note_on_c, 0, 43, 95
2, 137648, Note_on_c, 0, 48, 0
2, 137648, Note_on_c, 0, 55, 0
2, 137733, Control_c, 0, 64, 127
2, 137737, Note_on_c, 0, 50, 83
2, 137797, Note_on_c, 0, 55, 88
2, 137881, Note_on_c, 0, 57, 91
2, 137961, Note_on_c, 0, 59, 91
2, 138024, Note_on_c, 0, 55, 0
2, 138032, Note_on_c, 0, 55, 76
2, 138140, Note_on_c, 0, 59, 0
2, 138144, Note_on_c, 0, 83, 103
2, 138146, Note_on_c, 0, 59, 80
2, 138199, Note_on_c, 0, 62, 90
2, 138221, Note_on_c, 0, 81, 96
2, 138293, Note_on_c, 0, 74, 0
2, 138293, Note_on_c, 0, 79, 0
2, 138293, Note_on_c, 0, 83, 0
2, 138297, Note_on_c, 0, 67, 102
2, 138302, Note_on_c, 0, 74, 100
2, 138303, Note_on_c, 0, 83, 95
2, 138304, Note_on_c, 0, 79, 95
2, 138408, Note_on_c, 0, 59, 0
2, 138413, Note_on_c, 0, 59, 89
2, 138493, Note_on_c, 0, 55, 0
2, 138500, Note_on_c, 0, 55, 77
2, 138554, Note_on_c, 0, 50, 0
2, 138565, Note_on_c, 0, 50, 91
2, 138624, Note_on_c, 0, 43, 0
2, 138628, Note_on_c, 0, 43, 93
2, 138723, Note_on_c, 0, 50, 0
2, 138733, Note_on_c, 0, 50, 82
2, 138792, Note_on_c, 0, 83, 0
2, 138798, Note_on_c, 0, 83, 105
2, 138816, Note_on_c, 0, 55, 0
2, 138823, Note_on_c, 0, 55, 67
2, 138914, Note_on_c, 0, 57, 0
2, 138916, Note_on_c, 0, 74, 0
2, 138917, Note_on_c, 0, 43, 0
2, 138917, Note_on_c, 0, 84, 0
2, 138917, Note_on_c, 0, 67, 0
2, 138917, Note_on_c, 0, 81, 0
2, 138917, Note_on_c, 0, 62, 0
2, 138917, Control_c, 0, 64, 0
2, 138918, Note_on_c, 0, 55, 0
2, 138918, Note_on_c, 0, 79, 0
2, 138918, Note_on_c, 0, 50, 0
2, 138918, Note_on_c, 0, 59, 0
2, 138946, Note_on_c, 0, 83, 0
2, 138951, Note_on_c, 0, 45, 95
2, 138952, Note_on_c, 0, 83, 108
2, 138954, Note_on_c, 0, 76, 102
2, 138955, Note_on_c, 0, 72, 97
2, 139000, Control_c, 0, 64, 127
2, 139019, Note_on_c, 0, 52, 77
2, 139105, Note_on_c, 0, 57, 86
2, 139183, Note_on_c, 0, 81, 102
2, 139207, Note_on_c, 0, 45, 0
2, 139211, Note_on_c, 0, 45, 78
2, 139265, Note_on_c, 0, 69, 91
2, 139324, Note_on_c, 0, 64, 90
2, 139404, Note_on_c, 0, 60, 82
2, 139445, Note_on_c, 0, 76, 0
2, 139450, Note_on_c, 0, 76, 103
2, 139461, Note_on_c, 0, 57, 0
2, 139472, Note_on_c, 0, 57, 91
2, 139588, Control_c, 0, 64, 0
2, 139588, Note_on_c, 0, 57, 0
2, 139588, Note_on_c, 0, 64, 0
2, 139589, Note_on_c, 0, 60, 0
2, 139589, Note_on_c, 0, 52, 0
2, 139589, Note_on_c, 0, 69, 0
2, 139590, Note_on_c, 0, 72, 0
2, 139590, Note_on_c, 0, 76, 0
2, 139590, Note_on_c, 0, 45, 0
2, 139590, Note_on_c, 0, 81, 0
2, 139592, Note_on_c, 0, 46, 98
2, 139599, Note_on_c, 0, 83, 0
2, 139637, Control_c, 0, 64, 127
2, 139688, Note_on_c, 0, 54, 81
2, 139738, Control_c, 0, 64, 0
2, 139745, Note_on_c, 0, 46, 0
2, 139754, Note_on_c, 0, 58, 91
2, 139755, Note_on_c, 0, 46, 91
2, 139756, Note_on_c, 0, 76, 99
2, 139768, Control_c, 0, 64, 127
2, 139862, Note_on_c, 0, 62, 80
2, 139905, Note_on_c, 0, 78, 108
2, 139910, Note_on_c, 0, 70, 99
2, 139938, Note_on_c, 0, 66, 90
2, 140006, Note_on_c, 0, 58, 0
2, 140013, Note_on_c, 0, 58, 86
2, 140071, Note_on_c, 0, 79, 108
2, 140090, Note_on_c, 0, 54, 0
2, 140097, Note_on_c, 0, 54, 90
2, 140209, Control_c, 0, 64, 0
2, 140211, Note_on_c, 0, 54, 0
2, 140211, Note_on_c, 0, 78, 0
2, 140211, Note_on_c, 0, 62, 0
2, 140211, Note_on_c, 0, 66, 0
2, 140211, Note_on_c, 0, 58, 0
2, 140212, Note_on_c, 0, 76, 0
2, 140212, Note_on_c, 0, 70, 0
2, 140212, Note_on_c, 0, 46, 0
2, 140213, Note_on_c, 0, 79, 0
2, 140221, Note_on_c, 0, 47, 108
2, 140224, Note_on_c, 0, 79, 112
2, 140225, Note_on_c, 0, 75, 100
2, 140225, Note_on_c, 0, 71, 101
2, 140282, Control_c, 0, 64, 127
2, 140309, Note_on_c, 0, 54, 90
2, 140400, Note_on_c, 0, 59, 83
2, 140473, Note_on_c, 0, 61, 87
2, 140558, Note_on_c, 0, 63, 84
2, 140613, Note_on_c, 0, 59, 0
2, 140621, Note_on_c, 0, 59, 84
2, 140666, Note_on_c, 0, 63, 0
2, 140678, Note_on_c, 0, 63, 87
2, 140701, Note_on_c, 0, 78, 110
2, 140751, Note_on_c, 0, 66, 77
2, 140843, Note_on_c, 0, 71, 0
2, 140851, Note_on_c, 0, 75, 0
2, 140851, Note_on_c, 0, 78, 0
2, 140853, Note_on_c, 0, 84, 105
2, 140853, Note_on_c, 0, 71, 100
2, 140855, Note_on_c, 0, 75, 105
2, 140855, Note_on_c, 0, 78, 107
2, 141004, Note_on_c, 0, 59, 0
2, 141009, Note_on_c, 0, 59, 109
2, 141158, Note_on_c, 0, 47, 0
2, 141158, Note_on_c, 0, 75, 0
2, 141158, Note_on_c, 0, 78, 0
2, 141164, Note_on_c, 0, 83, 108
2, 141164, Note_on_c, 0, 47, 109
2, 141168, Note_on_c, 0, 75, 100
2, 141169, Note_on_c, 0, 78, 99
2, 141174, Note_on_c, 0, 71, 0
2, 141175, Note_on_c, 0, 61, 0
2, 141175, Note_on_c, 0, 63, 0
2, 141175, Note_on_c, 0, 66, 0
2, 141177, Note_on_c, 0, 84, 0
2, 141312, Note_on_c, 0, 54, 0
2, 141317, Note_on_c, 0, 54, 99
2, 141414, Control_c, 0, 64, 0
2, 141415, Note_on_c, 0, 54, 0
2, 141415, Note_on_c, 0, 83, 0
2, 141427, Note_on_c, 0, 47, 0
2, 141427, Note_on_c, 0, 79, 0
2, 141434, Note_on_c, 0, 59, 0
2, 141434, Note_on_c, 0, 75, 0
2, 141434, Note_on_c, 0, 78, 0
2, 141478, Note_on_c, 0, 83, 109
2, 141481, Note_on_c, 0, 71, 110
2, 141483, Note_on_c, 0, 28, 105
2, 141484, Note_on_c, 0, 76, 109
2, 141484, Note_on_c, 0, 40, 109
2, 141496, Control_c, 0, 64, 127
2, 141657, Note_on_c, 0, 40, 0
2, 141661, Note_on_c, 0, 52, 93
2, 141663, Note_on_c, 0, 40, 85
2, 141734, Note_on_c, 0, 52, 0
2, 141744, Note_on_c, 0, 52, 83
2, 141903, Note_on_c, 0, 52, 0
2, 141908, Note_on_c, 0, 52, 75
2, 141984, Note_on_c, 0, 64, 102
2, 141989, Note_on_c, 0, 59, 104
2, 141990, Note_on_c, 0, 55, 88
2, 142138, Note_on_c, 0, 81, 109
2, 142141, Note_on_c, 0, 69, 107
2, 142143, Note_on_c, 0, 78, 105
2, 142143, Note_on_c, 0, 74, 105
2, 142302, Note_on_c, 0, 52, 0
2, 142306, Note_on_c, 0, 52, 86
2, 142387, Note_on_c, 0, 74, 0
2, 142393, Note_on_c, 0, 86, 112
2, 142395, Note_on_c, 0, 74, 112
2, 142487, Note_on_c, 0, 55, 0
2, 142487, Note_on_c, 0, 59, 0
2, 142487, Note_on_c, 0, 64, 0
2, 142492, Note_on_c, 0, 64, 104
2, 142497, Note_on_c, 0, 59, 104
2, 142498, Note_on_c, 0, 55, 96
2, 142627, Note_on_c, 0, 72, 109
2, 142628, Note_on_c, 0, 84, 106
2, 142632, Note_on_c, 0, 83, 0
2, 142642, Note_on_c, 0, 83, 88
2, 142647, Note_on_c, 0, 55, 0
2, 142717, Control_c, 0, 64, 0
2, 142721, Note_on_c, 0, 40, 0
2, 142721, Note_on_c, 0, 81, 0
2, 142721, Note_on_c, 0, 69, 0
2, 142721, Note_on_c, 0, 74, 0
2, 142721, Note_on_c, 0, 59, 0
2, 142721, Note_on_c, 0, 71, 0
2, 142721, Note_on_c, 0, 83, 0
2, 142722, Note_on_c, 0, 64, 0
2, 142722, Note_on_c, 0, 76, 0
2, 142722, Note_on_c, 0, 84, 0
2, 142722, Note_on_c, 0, 86, 0
2, 142722, Note_on_c, 0, 72, 0
2, 142723, Note_on_c, 0, 78, 0
2, 142740, Note_on_c, 0, 28, 0
2, 142748, Note_on_c, 0, 52, 0
2, 142790, Note_on_c, 0, 71, 108
2, 142790, Note_on_c, 0, 83, 107
2, 142790, Note_on_c, 0, 74, 108
2, 142790, Note_on_c, 0, 30, 109
2, 142791, Note_on_c, 0, 42, 108
2, 142796, Note_on_c, 0, 78, 99
2, 142801, Control_c, 0, 64, 127
2, 142962, Note_on_c, 0, 54, 75
2, 143032, Note_on_c, 0, 54, 0
2, 143035, Note_on_c, 0, 50, 86
2, 143038, Note_on_c, 0, 54, 93
2, 143193, Note_on_c, 0, 54, 0
2, 143203, Note_on_c, 0, 54, 73
2, 143279, Note_on_c, 0, 57, 101
2, 143282, Note_on_c, 0, 66, 93
2, 143291, Note_on_c, 0, 62, 103
2, 143439, Note_on_c, 0, 74, 0
2, 143439, Note_on_c, 0, 78, 0
2, 143441, Note_on_c, 0, 81, 110
2, 143442, Note_on_c, 0, 69, 109
2, 143443, Note_on_c, 0, 78, 109
2, 143443, Note_on_c, 0, 74, 101
2, 143608, Note_on_c, 0, 54, 0
2, 143616, Note_on_c, 0, 54, 83
2, 143685, Note_on_c, 0, 74, 0
2, 143695, Note_on_c, 0, 86, 110
2, 143695, Note_on_c, 0, 74, 112
2, 143784, Note_on_c, 0, 66, 0
2, 143792, Note_on_c, 0, 57, 0
2, 143792, Note_on_c, 0, 62, 0
2, 143794, Note_on_c, 0, 66, 101
2, 143796, Note_on_c, 0, 62, 100
2, 143798, Note_on_c, 0, 57, 96
2, 143938, Note_on_c, 0, 74, 0
2, 143941, Note_on_c, 0, 84, 111
2, 143944, Note_on_c, 0, 72, 107
2, 143949, Note_on_c, 0, 74, 94
2, 144004, Control_c, 0, 64, 0
2, 144006, Note_on_c, 0, 71, 0
2, 144006, Note_on_c, 0, 30, 0
2, 144006, Note_on_c, 0, 83, 0
2, 144006, Note_on_c, 0, 42, 0
2, 144007, Note_on_c, 0, 62, 0
2, 144007, Note_on_c, 0, 81, 0
2, 144007, Note_on_c, 0, 69, 0
2, 144007, Note_on_c, 0, 57, 0
2, 144007, Note_on_c, 0, 66, 0
2, 144007, Note_on_c, 0, 78, 0
2, 144008, Note_on_c, 0, 50, 0
2, 144008, Note_on_c, 0, 86, 0
2, 144008, Note_on_c, 0, 74, 0
2, 144010, Note_on_c, 0, 84, 0
2, 144010, Note_on_c, 0, 72, 0
2, 144023, Note_on_c, 0, 54, 0
2, 144084, Control_c, 0, 64, 127
2, 144096, Note_on_c, 0, 83, 115
2, 144098, Note_on_c, 0, 71, 112
2, 144102, Note_on_c, 0, 74, 104
2, 144103, Note_on_c, 0, 31, 102
2, 144104, Note_on_c, 0, 79, 94
2, 144104, Note_on_c, 0, 43, 108
2, 144341, Note_on_c, 0, 55, 97
2, 144468, Note_on_c, 0, 55, 0
2, 144478, Note_on_c, 0, 55, 77
2, 144481, Note_on_c, 0, 67, 79
2, 144583, Note_on_c, 0, 67, 0
2, 144587, Note_on_c, 0, 62, 105
2, 144588, Note_on_c, 0, 67, 103
2, 144588, Note_on_c, 0, 59, 97
2, 144729, Note_on_c, 0, 71, 0
2, 144729, Note_on_c, 0, 74, 0
2, 144729, Note_on_c, 0, 79, 0
2, 144729, Note_on_c, 0, 83, 0
2, 144737, Note_on_c, 0, 83, 110
2, 144738, Note_on_c, 0, 71, 111
2, 144739, Note_on_c, 0, 74, 107
2, 144740, Note_on_c, 0, 79, 106
2, 144770, Note_on_c, 0, 78, 46
2, 144906, Note_on_c, 0, 55, 0
2, 144911, Note_on_c, 0, 55, 88
2, 144991, Note_on_c, 0, 88, 111
2, 144993, Note_on_c, 0, 76, 111
2, 145090, Note_on_c, 0, 67, 0
2, 145098, Note_on_c, 0, 59, 0
2, 145098, Note_on_c, 0, 62, 0
2, 145101, Note_on_c, 0, 67, 99
2, 145107, Note_on_c, 0, 59, 100
2, 145109, Note_on_c, 0, 62, 86
2, 145221, Note_on_c, 0, 71, 0
2, 145221, Note_on_c, 0, 83, 0
2, 145231, Note_on_c, 0, 83, 105
2, 145232, Note_on_c, 0, 71, 104
2, 145316, Control_c, 0, 64, 0
2, 145318, Note_on_c, 0, 55, 0
2, 145318, Note_on_c, 0, 74, 0
2, 145318, Note_on_c, 0, 67, 0
2, 145318, Note_on_c, 0, 88, 0
2, 145318, Note_on_c, 0, 59, 0
2, 145318, Note_on_c, 0, 83, 0
2, 145318, Note_on_c, 0, 76, 0
2, 145320, Note_on_c, 0, 31, 0
2, 145328, Note_on_c, 0, 78, 0
2, 145336, Note_on_c, 0, 43, 0
2, 145336, Note_on_c, 0, 62, 0
2, 145336, Note_on_c, 0, 71, 0
2, 145336, Note_on_c, 0, 79, 0
2, 145391, Note_on_c, 0, 86, 112
2, 145392, Note_on_c, 0, 33, 102
2, 145393, Note_on_c, 0, 45, 109
2, 145393, Note_on_c, 0, 74, 110
2, 145394, Note_on_c, 0, 40, 93
2, 145413, Control_c, 0, 64, 127
2, 145543, Note_on_c, 0, 45, 0
2, 145547, Note_on_c, 0, 45, 92
2, 145623, Note_on_c, 0, 85, 108
2, 145624, Note_on_c, 0, 73, 107
2, 145627, Note_on_c, 0, 52, 79
2, 145629, Note_on_c, 0, 57, 93
2, 145881, Note_on_c, 0, 40, 0
2, 145881, Note_on_c, 0, 73, 0
2, 145882, Note_on_c, 0, 81, 111
2, 145886, Note_on_c, 0, 69, 101
2, 145887, Note_on_c, 0, 73, 107
2, 145887, Note_on_c, 0, 76, 106
2, 145889, Note_on_c, 0, 40, 87
2, 146040, Note_on_c, 0, 64, 91
2, 146106, Note_on_c, 0, 61, 91
2, 146127, Note_on_c, 0, 52, 0
2, 146137, Note_on_c, 0, 52, 55
2, 146196, Note_on_c, 0, 57, 0
2, 146205, Note_on_c, 0, 57, 91
2, 146265, Note_on_c, 0, 52, 0
2, 146275, Note_on_c, 0, 52, 78
2, 146342, Note_on_c, 0, 45, 0
2, 146349, Note_on_c, 0, 45, 101
2, 146526, Note_on_c, 0, 76, 0
2, 146532, Note_on_c, 0, 76, 92
2, 146595, Note_on_c, 0, 52, 0
2, 146603, Note_on_c, 0, 78, 99
2, 146606, Note_on_c, 0, 52, 57
2, 146631, Note_on_c, 0, 69, 0
2, 146631, Note_on_c, 0, 81, 0
2, 146631, Note_on_c, 0, 73, 0
2, 146631, Note_on_c, 0, 74, 0
2, 146631, Note_on_c, 0, 61, 0
2, 146632, Note_on_c, 0, 45, 0
2, 146632, Note_on_c, 0, 85, 0
2, 146632, Note_on_c, 0, 76, 0
2, 146632, Note_on_c, 0, 64, 0
2, 146632, Control_c, 0, 64, 0
2, 146632, Note_on_c, 0, 40, 0
2, 146633, Note_on_c, 0, 86, 0
2, 146649, Note_on_c, 0, 33, 0
2, 146649, Note_on_c, 0, 57, 0
2, 146664, Note_on_c, 0, 52, 0
2, 146692, Note_on_c, 0, 79, 106
2, 146692, Note_on_c, 0, 48, 91
2, 146694, Note_on_c, 0, 72, 94
2, 146697, Note_on_c, 0, 76, 90
2, 146734, Control_c, 0, 64, 127
2, 146773, Note_on_c, 0, 55, 75
2, 146846, Note_on_c, 0, 60, 86
2, 146918, Note_on_c, 0, 76, 0
2, 146922, Note_on_c, 0, 76, 94
2, 146927, Note_on_c, 0, 62, 87
2, 147012, Note_on_c, 0, 64, 76
2, 147118, Note_on_c, 0, 62, 0
2, 147122, Note_on_c, 0, 62, 54
2, 147125, Note_on_c, 0, 60, 0
2, 147129, Note_on_c, 0, 60, 66
2, 147179, Note_on_c, 0, 78, 0
2, 147187, Note_on_c, 0, 72, 0
2, 147187, Note_on_c, 0, 76, 0
2, 147188, Note_on_c, 0, 83, 101
2, 147191, Note_on_c, 0, 76, 102
2, 147192, Note_on_c, 0, 72, 94
2, 147240, Note_on_c, 0, 55, 0
2, 147249, Note_on_c, 0, 55, 75
2, 147301, Note_on_c, 0, 60, 0
2, 147302, Note_on_c, 0, 55, 0
2, 147305, Note_on_c, 0, 62, 0
2, 147306, Note_on_c, 0, 64, 0
2, 147317, Note_on_c, 0, 48, 0
2, 147325, Control_c, 0, 64, 0
2, 147327, Note_on_c, 0, 48, 89
2, 147409, Control_c, 0, 64, 127
2, 147419, Note_on_c, 0, 55, 78
2, 147479, Note_on_c, 0, 72, 0
2, 147479, Note_on_c, 0, 81, 94
2, 147489, Note_on_c, 0, 72, 79
2, 147492, Note_on_c, 0, 60, 88
2, 147583, Note_on_c, 0, 62, 80
2, 147640, Note_on_c, 0, 76, 0
2, 147640, Note_on_c, 0, 81, 0
2, 147649, Note_on_c, 0, 81, 101
2, 147650, Note_on_c, 0, 64, 86
2, 147651, Note_on_c, 0, 76, 73
2, 147701, Note_on_c, 0, 62, 0
2, 147706, Note_on_c, 0, 74, 80
2, 147712, Note_on_c, 0, 62, 78
2, 147770, Note_on_c, 0, 60, 0
2, 147779, Note_on_c, 0, 60, 93
2, 147793, Note_on_c, 0, 83, 0
2, 147803, Note_on_c, 0, 83, 93
2, 147855, Note_on_c, 0, 48, 0
2, 147886, Note_on_c, 0, 55, 0
2, 147897, Note_on_c, 0, 55, 62
2, 147939, Note_on_c, 0, 74, 0
2, 147939, Note_on_c, 0, 81, 0
2, 147945, Note_on_c, 0, 47, 90
2, 147947, Note_on_c, 0, 81, 101
2, 147948, Control_c, 0, 64, 0
2, 147949, Note_on_c, 0, 79, 0
2, 147949, Note_on_c, 0, 64, 0
2, 147950, Note_on_c, 0, 72, 0
2, 147950, Note_on_c, 0, 71, 93
2, 147950, Note_on_c, 0, 55, 0
2, 147950, Note_on_c, 0, 76, 0
2, 147950, Note_on_c, 0, 83, 0
2, 147950, Note_on_c, 0, 62, 0
2, 147951, Note_on_c, 0, 74, 98
2, 147962, Note_on_c, 0, 60, 0
2, 148024, Control_c, 0, 64, 127
2, 148026, Note_on_c, 0, 55, 80
2, 148106, Note_on_c, 0, 59, 91
2, 148187, Note_on_c, 0, 62, 85
2, 148200, Note_on_c, 0, 74, 0
2, 148204, Note_on_c, 0, 74, 59
2, 148205, Note_on_c, 0, 79, 89
2, 148265, Note_on_c, 0, 67, 86
2, 148323, Note_on_c, 0, 62, 0
2, 148331, Note_on_c, 0, 62, 90
2, 148431, Note_on_c, 0, 59, 0
2, 148439, Note_on_c, 0, 71, 0
2, 148439, Note_on_c, 0, 74, 0
2, 148441, Note_on_c, 0, 59, 94
2, 148441, Note_on_c, 0, 78, 102
2, 148444, Note_on_c, 0, 74, 97
2, 148450, Note_on_c, 0, 71, 88
2, 148492, Note_on_c, 0, 55, 0
2, 148502, Note_on_c, 0, 55, 56
2, 148592, Note_on_c, 0, 47, 0
2, 148596, Note_on_c, 0, 47, 91
2, 148684, Note_on_c, 0, 55, 0
2, 148693, Note_on_c, 0, 55, 85
2, 148753, Note_on_c, 0, 59, 0
2, 148761, Note_on_c, 0, 79, 0
2, 148764, Note_on_c, 0, 59, 97
2, 148766, Note_on_c, 0, 79, 101
2, 148899, Note_on_c, 0, 67, 0
2, 148905, Note_on_c, 0, 67, 88
2, 148984, Note_on_c, 0, 62, 0
2, 148989, Note_on_c, 0, 62, 92
2, 149076, Note_on_c, 0, 59, 0
2, 149076, Note_on_c, 0, 78, 0
2, 149082, Note_on_c, 0, 59, 93
2, 149083, Note_on_c, 0, 78, 103
2, 149145, Note_on_c, 0, 55, 0
2, 149151, Note_on_c, 0, 55, 77
2, 149227, Note_on_c, 0, 47, 0
2, 149228, Note_on_c, 0, 71, 0
2, 149228, Note_on_c, 0, 67, 0
2, 149228, Note_on_c, 0, 55, 0
2, 149228, Note_on_c, 0, 74, 0
2, 149228, Note_on_c, 0, 59, 0
2, 149228, Note_on_c, 0, 62, 0
2, 149230, Note_on_c, 0, 81, 0
2, 149232, Note_on_c, 0, 78, 0
2, 149233, Control_c, 0, 64, 0
2, 149245, Note_on_c, 0, 79, 0
2, 149247, Note_on_c, 0, 48, 95
2, 149249, Note_on_c, 0, 79, 102
2, 149250, Note_on_c, 0, 76, 104
2, 149255, Note_on_c, 0, 72, 92
2, 149306, Control_c, 0, 64, 127
2, 149329, Note_on_c, 0, 55, 74
2, 149407, Note_on_c, 0, 60, 89
2, 149494, Note_on_c, 0, 81, 103
2, 149497, Note_on_c, 0, 62, 93
2, 149571, Note_on_c, 0, 64, 93
2, 149667, Note_on_c, 0, 67, 89
2, 149729, Note_on_c, 0, 72, 0
2, 149729, Note_on_c, 0, 79, 0
2, 149734, Note_on_c, 0, 72, 97
2, 149734, Note_on_c, 0, 79, 101
2, 149816, Note_on_c, 0, 74, 96
2, 149898, Note_on_c, 0, 76, 0
2, 149906, Note_on_c, 0, 76, 92
2, 149967, Note_on_c, 0, 74, 0
2, 149974, Note_on_c, 0, 74, 89
2, 150059, Note_on_c, 0, 72, 0
2, 150064, Note_on_c, 0, 72, 84
2, 150068, Note_on_c, 0, 91, 106
2, 150136, Note_on_c, 0, 67, 0
2, 150146, Note_on_c, 0, 67, 82
2, 150150, Note_on_c, 0, 90, 93
2, 150197, Note_on_c, 0, 64, 0
2, 150207, Note_on_c, 0, 64, 80
2, 150231, Note_on_c, 0, 86, 90
2, 150259, Note_on_c, 0, 62, 0
2, 150269, Note_on_c, 0, 62, 81
2, 150274, Note_on_c, 0, 81, 0
2, 150284, Note_on_c, 0, 81, 77
2, 150351, Note_on_c, 0, 60, 0
2, 150361, Note_on_c, 0, 60, 76
2, 150363, Note_on_c, 0, 78, 90
2, 150428, Note_on_c, 0, 74, 0
2, 150432, Note_on_c, 0, 57, 91
2, 150433, Note_on_c, 0, 74, 96
2, 150512, Note_on_c, 0, 79, 0
2, 150520, Note_on_c, 0, 79, 94
2, 150521, Note_on_c, 0, 50, 90
2, 150523, Note_on_c, 0, 67, 0
2, 150523, Note_on_c, 0, 55, 0
2, 150523, Note_on_c, 0, 64, 0
2, 150523, Note_on_c, 0, 91, 0
2, 150523, Note_on_c, 0, 81, 0
2, 150523, Note_on_c, 0, 74, 0
2, 150523, Note_on_c, 0, 76, 0
2, 150523, Note_on_c, 0, 86, 0
2, 150523, Note_on_c, 0, 72, 0
2, 150524, Note_on_c, 0, 57, 0
2, 150524, Note_on_c, 0, 62, 0
2, 150524, Note_on_c, 0, 78, 0
2, 150524, Note_on_c, 0, 90, 0
2, 150525, Control_c, 0, 64, 0
2, 150535, Note_on_c, 0, 48, 0
2, 150535, Note_on_c, 0, 60, 0
2, 150594, Note_on_c, 0, 78, 91
2, 150597, Control_c, 0, 64, 127
2, 150599, Note_on_c, 0, 57, 92
2, 150675, Note_on_c, 0, 62, 93
2, 150677, Note_on_c, 0, 74, 87
2, 150749, Note_on_c, 0, 69, 90
2, 150770, Note_on_c, 0, 64, 83
2, 150842, Note_on_c, 0, 66, 94
2, 150912, Note_on_c, 0, 69, 0
2, 150922, Note_on_c, 0, 69, 85
2, 150981, Note_on_c, 0, 62, 0
2, 150990, Note_on_c, 0, 62, 100
2, 151004, Note_on_c, 0, 74, 0
2, 151013, Note_on_c, 0, 74, 90
2, 151073, Note_on_c, 0, 78, 0
2, 151083, Note_on_c, 0, 78, 92
2, 151134, Note_on_c, 0, 57, 0
2, 151139, Note_on_c, 0, 57, 94
2, 151150, Note_on_c, 0, 81, 93
2, 151242, Note_on_c, 0, 86, 96
2, 151280, Note_on_c, 0, 50, 0
2, 151290, Note_on_c, 0, 90, 95
2, 151290, Note_on_c, 0, 50, 96
2, 151376, Note_on_c, 0, 93, 91
2, 151423, Note_on_c, 0, 98, 115
2, 151434, Note_on_c, 0, 86, 0
2, 151445, Note_on_c, 0, 86, 94
2, 151449, Note_on_c, 0, 50, 0
2, 151458, Note_on_c, 0, 50, 81
2, 151459, Note_on_c, 0, 38, 86
2, 151583, Note_on_c, 0, 90, 0
2, 151583, Note_on_c, 0, 98, 0
2, 151583, Note_on_c, 0, 93, 0
2, 151584, Note_on_c, 0, 69, 0
2, 151584, Note_on_c, 0, 74, 0
2, 151584, Note_on_c, 0, 79, 0
2, 151584, Note_on_c, 0, 86, 0
2, 151584, Note_on_c, 0, 57, 0
2, 151584, Note_on_c, 0, 81, 0
2, 151585, Note_on_c, 0, 50, 0
2, 151585, Note_on_c, 0, 38, 0
2, 151587, Note_on_c, 0, 66, 0
2, 151587, Note_on_c, 0, 78, 0
2, 151588, Note_on_c, 0, 64, 0
2, 151593, Note_on_c, 0, 78, 105
2, 151597, Note_on_c, 0, 66, 101
2, 151598, Control_c, 0, 64, 0
2, 151603, Note_on_c, 0, 62, 0
2, 151652, Note_on_c, 0, 66, 0
2, 151658, Note_on_c, 0, 78, 0
2, 151744, Note_on_c, 0, 79, 110
2, 151745, Note_on_c, 0, 47, 110
2, 151745, Note_on_c, 0, 67, 109
2, 151745, Note_on_c, 0, 35, 106
2, 151746, Note_on_c, 0, 71, 97
2, 151746, Note_on_c, 0, 74, 100
2, 151772, Control_c, 0, 64, 127
2, 151887, Note_on_c, 0, 35, 0
2, 151898, Note_on_c, 0, 35, 86
2, 151921, Note_on_c, 0, 74, 0
2, 151922, Note_on_c, 0, 67, 0
2, 151922, Note_on_c, 0, 79, 0
2, 151922, Note_on_c, 0, 71, 0
2, 151922, Control_c, 0, 64, 0
2, 151991, Note_on_c, 0, 64, 104
2, 151992, Note_on_c, 0, 76, 108
2, 152017, Note_on_c, 0, 47, 0
2, 152027, Note_on_c, 0, 47, 69
2, 152031, Note_on_c, 0, 64, 0
2, 152039, Note_on_c, 0, 76, 0
2, 152064, Note_on_c, 0, 35, 0
2, 152071, Note_on_c, 0, 47, 0
2, 152137, Note_on_c, 0, 36, 87
2, 152139, Note_on_c, 0, 48, 75
2, 152186, Note_on_c, 0, 48, 0
2, 152217, Note_on_c, 0, 36, 0
2, 152221, Note_on_c, 0, 83, 106
2, 152226, Note_on_c, 0, 71, 107
2, 152228, Note_on_c, 0, 79, 96
2, 152228, Note_on_c, 0, 76, 102
2, 152236, Note_on_c, 0, 48, 99
2, 152240, Control_c, 0, 64, 127
2, 152250, Note_on_c, 0, 36, 83
2, 152520, Note_on_c, 0, 81, 105
2, 152521, Note_on_c, 0, 69, 105
2, 152532, Note_on_c, 0, 48, 0
2, 152536, Note_on_c, 0, 52, 69
2, 152536, Note_on_c, 0, 48, 95
2, 152536, Note_on_c, 0, 55, 84
2, 152670, Note_on_c, 0, 81, 0
2, 152678, Note_on_c, 0, 52, 0
2, 152678, Note_on_c, 0, 69, 0
2, 152680, Note_on_c, 0, 81, 98
2, 152682, Note_on_c, 0, 69, 107
2, 152685, Note_on_c, 0, 60, 96
2, 152686, Note_on_c, 0, 52, 88
2, 152687, Note_on_c, 0, 78, 97
2, 152689, Note_on_c, 0, 74, 99
2, 152832, Note_on_c, 0, 74, 0
2, 152838, Note_on_c, 0, 86, 106
2, 152839, Note_on_c, 0, 74, 105
2, 152867, Control_c, 0, 64, 0
2, 152867, Note_on_c, 0, 71, 0
2, 152868, Note_on_c, 0, 76, 0
2, 152868, Note_on_c, 0, 78, 0
2, 152869, Note_on_c, 0, 81, 0
2, 152869, Note_on_c, 0, 60, 0
2, 152870, Note_on_c, 0, 69, 0
2, 152870, Note_on_c, 0, 79, 0
2, 152871, Note_on_c, 0, 55, 0
2, 152871, Note_on_c, 0, 74, 0
2, 152872, Note_on_c, 0, 52, 0
2, 152872, Note_on_c, 0, 83, 0
2, 152881, Note_on_c, 0, 86, 0
2, 152885, Note_on_c, 0, 36, 0
2, 152893, Note_on_c, 0, 48, 0
2, 152974, Note_on_c, 0, 50, 106
2, 152975, Note_on_c, 0, 83, 110
2, 152976, Note_on_c, 0, 71, 108
2, 152977, Note_on_c, 0, 38, 106
2, 152977, Control_c, 0, 64, 127
2, 152978, Note_on_c, 0, 74, 104
2, 152981, Note_on_c, 0, 78, 103
2, 153135, Note_on_c, 0, 52, 65
2, 153239, Note_on_c, 0, 54, 80
2, 153303, Note_on_c, 0, 57, 88
2, 153367, Note_on_c, 0, 62, 91
2, 153466, Note_on_c, 0, 66, 84
2, 153516, Note_on_c, 0, 69, 96
2, 153607, Note_on_c, 0, 71, 0
2, 153607, Note_on_c, 0, 83, 0
2, 153613, Note_on_c, 0, 83, 112
2, 153614, Note_on_c, 0, 71, 111
2, 153622, Control_c, 0, 64, 0
2, 153627, Note_on_c, 0, 38, 0
2, 153627, Note_on_c, 0, 54, 0
2, 153627, Note_on_c, 0, 74, 0
2, 153627, Note_on_c, 0, 69, 0
2, 153627, Note_on_c, 0, 57, 0
2, 153627, Note_on_c, 0, 78, 0
2, 153628, Note_on_c, 0, 62, 0
2, 153628, Note_on_c, 0, 66, 0
2, 153628, Note_on_c, 0, 50, 0
2, 153638, Note_on_c, 0, 52, 0
2, 153661, Note_on_c, 0, 71, 0
2, 153692, Note_on_c, 0, 83, 0
2, 153838, Control_c, 0, 64, 127
2, 153868, Note_on_c, 0, 81, 110
2, 153871, Note_on_c, 0, 69, 113
2, 154104, Note_on_c, 0, 74, 105
2, 154109, Note_on_c, 0, 88, 90
2, 154109, Note_on_c, 0, 86, 101
2, 154111, Note_on_c, 0, 54, 58
2, 154116, Note_on_c, 0, 52, 68
2, 154241, Control_c, 0, 64, 0
2, 154245, Note_on_c, 0, 54, 0
2, 154245, Note_on_c, 0, 74, 0
2, 154245, Note_on_c, 0, 86, 0
2, 154246, Note_on_c, 0, 81, 0
2, 154247, Note_on_c, 0, 69, 0
2, 154248, Note_on_c, 0, 88, 0
2, 154260, Note_on_c, 0, 52, 0
2, 154289, Note_on_c, 0, 83, 112
2, 154293, Note_on_c, 0, 71, 112
2, 154294, Note_on_c, 0, 79, 101
2, 154295, Note_on_c, 0, 76, 107
2, 154297, Note_on_c, 0, 36, 105
2, 154321, Control_c, 0, 64, 127
2, 154371, Note_on_c, 0, 43, 27
2, 154448, Note_on_c, 0, 48, 68
2, 154550, Note_on_c, 0, 52, 78
2, 154636, Note_on_c, 0, 76, 0
2, 154640, Note_on_c, 0, 55, 82
2, 154641, Note_on_c, 0, 76, 106
2, 154642, Note_on_c, 0, 88, 105
2, 154705, Note_on_c, 0, 48, 0
2, 154715, Note_on_c, 0, 48, 72
2, 154782, Note_on_c, 0, 55, 0
2, 154782, Note_on_c, 0, 79, 0
2, 154786, Note_on_c, 0, 55, 75
2, 154787, Note_on_c, 0, 79, 76
2, 154858, Note_on_c, 0, 60, 87
2, 154939, Note_on_c, 0, 64, 94
2, 154941, Note_on_c, 0, 90, 111
2, 154944, Note_on_c, 0, 78, 111
2, 155028, Note_on_c, 0, 60, 0
2, 155034, Note_on_c, 0, 60, 96
2, 155112, Note_on_c, 0, 55, 0
2, 155121, Note_on_c, 0, 55, 84
2, 155166, Note_on_c, 0, 52, 0
2, 155174, Note_on_c, 0, 52, 86
2, 155266, Note_on_c, 0, 60, 0
2, 155276, Note_on_c, 0, 60, 89
2, 155278, Note_on_c, 0, 91, 112
2, 155281, Note_on_c, 0, 79, 0
2, 155285, Note_on_c, 0, 79, 99
2, 155328, Note_on_c, 0, 55, 0
2, 155336, Note_on_c, 0, 55, 81
2, 155397, Note_on_c, 0, 52, 0
2, 155407, Note_on_c, 0, 52, 81
2, 155450, Note_on_c, 0, 48, 0
2, 155459, Note_on_c, 0, 48, 78
2, 155573, Note_on_c, 0, 78, 0
2, 155573, Note_on_c, 0, 90, 0
2, 155580, Note_on_c, 0, 43, 0
2, 155580, Note_on_c, 0, 90, 114
2, 155581, Note_on_c, 0, 55, 0
2, 155581, Note_on_c, 0, 91, 0
2, 155581, Note_on_c, 0, 83, 0
2, 155581, Note_on_c, 0, 60, 0
2, 155582, Note_on_c, 0, 79, 0
2, 155583, Note_on_c, 0, 88, 0
2, 155583, Note_on_c, 0, 76, 0
2, 155583, Control_c, 0, 64, 0
2, 155584, Note_on_c, 0, 78, 116
2, 155589, Note_on_c, 0, 71, 0
2, 155590, Note_on_c, 0, 38, 91
2, 155596, Note_on_c, 0, 48, 0
2, 155596, Note_on_c, 0, 52, 0
2, 155596, Note_on_c, 0, 64, 0
2, 155604, Note_on_c, 0, 36, 0
2, 155650, Control_c, 0, 64, 127
2, 155671, Note_on_c, 0, 45, 98
2, 155732, Note_on_c, 0, 50, 84
2, 155828, Note_on_c, 0, 91, 117
2, 155830, Note_on_c, 0, 54, 92
2, 155831, Note_on_c, 0, 79, 106
2, 155873, Note_on_c, 0, 54, 0
2, 155880, Note_on_c, 0, 54, 62
2, 155920, Note_on_c, 0, 57, 93
2, 155973, Note_on_c, 0, 50, 0
2, 155981, Note_on_c, 0, 50, 82
2, 156065, Note_on_c, 0, 57, 0
2, 156075, Note_on_c, 0, 57, 88
2, 156078, Note_on_c, 0, 93, 114
2, 156081, Note_on_c, 0, 81, 106
2, 156137, Note_on_c, 0, 62, 99
2, 156207, Note_on_c, 0, 66, 92
2, 156295, Note_on_c, 0, 62, 0
2, 156306, Note_on_c, 0, 62, 90
2, 156364, Note_on_c, 0, 91, 0
2, 156372, Note_on_c, 0, 79, 0
2, 156376, Note_on_c, 0, 91, 112
2, 156380, Note_on_c, 0, 57, 0
2, 156382, Note_on_c, 0, 79, 98
2, 156390, Note_on_c, 0, 57, 84
2, 156433, Note_on_c, 0, 54, 0
2, 156441, Note_on_c, 0, 54, 88
2, 156518, Note_on_c, 0, 62, 0
2, 156518, Note_on_c, 0, 90, 0
2, 156526, Note_on_c, 0, 78, 0
2, 156526, Note_on_c, 0, 90, 108
2, 156527, Note_on_c, 0, 62, 82
2, 156529, Note_on_c, 0, 78, 102
2, 156587, Note_on_c, 0, 57, 0
2, 156594, Note_on_c, 0, 57, 92
2, 156691, Note_on_c, 0, 86, 105
2, 156695, Note_on_c, 0, 74, 103
2, 156702, Note_on_c, 0, 50, 0
2, 156709, Note_on_c, 0, 50, 83
2, 156811, Note_on_c, 0, 79, 0
2, 156811, Note_on_c, 0, 45, 0
2, 156812, Note_on_c, 0, 62, 0
2, 156813, Note_on_c, 0, 50, 0
2, 156813, Note_on_c, 0, 78, 0
2, 156813, Note_on_c, 0, 66, 0
2, 156813, Note_on_c, 0, 57, 0
2, 156813, Note_on_c, 0, 54, 0
2, 156813, Control_c, 0, 64, 0
2, 156813, Note_on_c, 0, 74, 0
2, 156813, Note_on_c, 0, 90, 0
2, 156813, Note_on_c, 0, 93, 0
2, 156813, Note_on_c, 0, 86, 0
2, 156817, Note_on_c, 0, 38, 0
2, 156833, Note_on_c, 0, 91, 0
2, 156840, Note_on_c, 0, 81, 0
2, 156844, Note_on_c, 0, 40, 90
2, 156846, Note_on_c, 0, 81, 108
2, 156849, Note_on_c, 0, 69, 108
2, 156887, Control_c, 0, 64, 127
2, 156923, Note_on_c, 0, 47, 62
2, 156975, Note_on_c, 0, 52, 86
2, 157069, Note_on_c, 0, 55, 92
2, 157078, Note_on_c, 0, 86, 106
2, 157098, Note_on_c, 0, 76, 84
2, 157159, Note_on_c, 0, 59, 96
2, 157194, Note_on_c, 0, 52, 0
2, 157204, Note_on_c, 0, 52, 80
2, 157294, Note_on_c, 0, 59, 0
2, 157304, Note_on_c, 0, 59, 88
2, 157332, Note_on_c, 0, 76, 0
2, 157332, Note_on_c, 0, 83, 101
2, 157336, Note_on_c, 0, 71, 93
2, 157337, Note_on_c, 0, 76, 99
2, 157338, Note_on_c, 0, 79, 87
2, 157397, Note_on_c, 0, 64, 95
2, 157473, Note_on_c, 0, 67, 92
2, 157555, Note_on_c, 0, 64, 0
2, 157561, Note_on_c, 0, 64, 80
2, 157639, Note_on_c, 0, 71, 0
2, 157639, Note_on_c, 0, 79, 0
2, 157646, Note_on_c, 0, 79, 108
2, 157647, Note_on_c, 0, 59, 0
2, 157650, Note_on_c, 0, 71, 97
2, 157652, Note_on_c, 0, 74, 83
2, 157655, Note_on_c, 0, 59, 88
2, 157785, Note_on_c, 0, 64, 0
2, 157797, Note_on_c, 0, 64, 86
2, 157831, Note_on_c, 0, 59, 0
2, 157840, Note_on_c, 0, 59, 94
2, 157916, Note_on_c, 0, 55, 0
2, 157926, Note_on_c, 0, 55, 81
2, 157969, Note_on_c, 0, 74, 0
2, 157973, Note_on_c, 0, 78, 112
2, 157975, Note_on_c, 0, 74, 102
2, 157985, Note_on_c, 0, 52, 0
2, 157994, Note_on_c, 0, 52, 66
2, 158004, Note_on_c, 0, 53, 61
2, 158088, Note_on_c, 0, 81, 0
2, 158088, Note_on_c, 0, 52, 0
2, 158089, Note_on_c, 0, 67, 0
2, 158089, Note_on_c, 0, 76, 0
2, 158089, Note_on_c, 0, 69, 0
2, 158089, Note_on_c, 0, 83, 0
2, 158089, Note_on_c, 0, 47, 0
2, 158089, Note_on_c, 0, 74, 0
2, 158089, Note_on_c, 0, 86, 0
2, 158089, Note_on_c, 0, 71, 0
2, 158089, Note_on_c, 0, 79, 0
2, 158089, Note_on_c, 0, 53, 0
2, 158092, Control_c, 0, 64, 0
2, 158100, Note_on_c, 0, 40, 0
2, 158108, Note_on_c, 0, 55, 0
2, 158108, Note_on_c, 0, 59, 0
2, 158108, Note_on_c, 0, 64, 0
2, 158119, Note_on_c, 0, 42, 97
2, 158123, Note_on_c, 0, 78, 0
2, 158177, Control_c, 0, 64, 127
2, 158212, Note_on_c, 0, 50, 79
2, 158274, Note_on_c, 0, 74, 105
2, 158287, Note_on_c, 0, 69, 85
2, 158288, Note_on_c, 0, 54, 83
2, 158292, Note_on_c, 0, 66, 86
2, 158371, Note_on_c, 0, 57, 63
2, 158446, Note_on_c, 0, 62, 94
2, 158484, Note_on_c, 0, 57, 0
2, 158491, Note_on_c, 0, 57, 90
2, 158561, Note_on_c, 0, 54, 0
2, 158565, Note_on_c, 0, 54, 82
2, 158615, Note_on_c, 0, 69, 0
2, 158618, Note_on_c, 0, 69, 100
2, 158622, Note_on_c, 0, 50, 0
2, 158622, Note_on_c, 0, 62, 0
2, 158622, Note_on_c, 0, 66, 0
2, 158627, Note_on_c, 0, 50, 92
2, 158633, Note_on_c, 0, 66, 91
2, 158634, Note_on_c, 0, 62, 90
2, 158772, Note_on_c, 0, 43, 95
2, 158780, Note_on_c, 0, 62, 0
2, 158780, Note_on_c, 0, 66, 0
2, 158781, Note_on_c, 0, 54, 0
2, 158781, Note_on_c, 0, 57, 0
2, 158781, Note_on_c, 0, 50, 0
2, 158781, Note_on_c, 0, 74, 0
2, 158782, Control_c, 0, 64, 0
2, 158782, Note_on_c, 0, 69, 0
2, 158791, Note_on_c, 0, 42, 0
2, 158853, Control_c, 0, 64, 127
2, 158856, Note_on_c, 0, 50, 83
2, 158920, Note_on_c, 0, 55, 94
2, 158923, Note_on_c, 0, 67, 101
2, 158925, Note_on_c, 0, 71, 100
2, 159028, Note_on_c, 0, 59, 86
2, 159030, Note_on_c, 0, 60, 79
2, 159075, Note_on_c, 0, 67, 0
2, 159079, Note_on_c, 0, 67, 92
2, 159095, Note_on_c, 0, 64, 81
2, 159241, Note_on_c, 0, 74, 91
2, 159315, Note_on_c, 0, 76, 96
2, 159381, Note_on_c, 0, 59, 0
2, 159381, Note_on_c, 0, 71, 0
2, 159381, Note_on_c, 0, 55, 0
2, 159381, Note_on_c, 0, 60, 0
2, 159382, Note_on_c, 0, 67, 0
2, 159382, Note_on_c, 0, 74, 0
2, 159382, Note_on_c, 0, 64, 0
2, 159382, Control_c, 0, 64, 0
2, 159382, Note_on_c, 0, 50, 0
2, 159384, Note_on_c, 0, 43, 0
2, 159385, Note_on_c, 0, 76, 0
2, 159395, Note_on_c, 0, 48, 101
2, 159402, Note_on_c, 0, 79, 105
2, 159467, Control_c, 0, 64, 127
2, 159505, Note_on_c, 0, 74, 89
2, 159538, Note_on_c, 0, 55, 40
2, 159568, Note_on_c, 0, 76, 89
2, 159648, Note_on_c, 0, 81, 100
2, 159654, Note_on_c, 0, 62, 91
2, 159728, Note_on_c, 0, 74, 0
2, 159734, Note_on_c, 0, 74, 84
2, 159767, Note_on_c, 0, 55, 0
2, 159777, Note_on_c, 0, 55, 68
2, 159805, Note_on_c, 0, 76, 0
2, 159815, Note_on_c, 0, 76, 91
2, 159901, Note_on_c, 0, 83, 101
2, 159914, Note_on_c, 0, 64, 90
2, 159982, Note_on_c, 0, 74, 0
2, 159993, Note_on_c, 0, 74, 85
2, 160051, Note_on_c, 0, 55, 0
2, 160055, Note_on_c, 0, 55, 76
2, 160066, Note_on_c, 0, 76, 0
2, 160073, Note_on_c, 0, 76, 76
2, 160135, Note_on_c, 0, 79, 0
2, 160146, Note_on_c, 0, 79, 99
2, 160177, Note_on_c, 0, 60, 84
2, 160220, Note_on_c, 0, 74, 0
2, 160226, Note_on_c, 0, 74, 85
2, 160296, Note_on_c, 0, 55, 0
2, 160305, Note_on_c, 0, 55, 77
2, 160312, Note_on_c, 0, 76, 0
2, 160322, Note_on_c, 0, 76, 84
2, 160381, Note_on_c, 0, 81, 0
2, 160391, Note_on_c, 0, 81, 101
2, 160396, Note_on_c, 0, 62, 0
2, 160406, Note_on_c, 0, 62, 96
2, 160458, Note_on_c, 0, 74, 0
2, 160463, Note_on_c, 0, 74, 86
2, 160504, Note_on_c, 0, 55, 0
2, 160515, Note_on_c, 0, 55, 84
2, 160550, Note_on_c, 0, 76, 0
2, 160558, Note_on_c, 0, 76, 90
2, 160627, Note_on_c, 0, 64, 0
2, 160627, Note_on_c, 0, 83, 0
2, 160633, Note_on_c, 0, 83, 105
2, 160636, Note_on_c, 0, 64, 103
2, 160656, Control_c, 0, 64, 0
2, 160661, Note_on_c, 0, 60, 0
2, 160662, Note_on_c, 0, 74, 0
2, 160662, Note_on_c, 0, 81, 0
2, 160662, Note_on_c, 0, 62, 0
2, 160662, Note_on_c, 0, 48, 0
2, 160662, Note_on_c, 0, 76, 0
2, 160680, Note_on_c, 0, 55, 0
2, 160680, Note_on_c, 0, 79, 0
2, 160725, Note_on_c, 0, 74, 93
2, 160727, Control_c, 0, 64, 127
2, 160749, Note_on_c, 0, 50, 84
2, 160773, Note_on_c, 0, 64, 0
2, 160812, Note_on_c, 0, 76, 90
2, 160856, Note_on_c, 0, 57, 89
2, 160885, Note_on_c, 0, 79, 102
2, 160944, Note_on_c, 0, 62, 92
2, 160972, Note_on_c, 0, 74, 0
2, 160980, Note_on_c, 0, 74, 97
2, 161034, Note_on_c, 0, 57, 0
2, 161043, Note_on_c, 0, 57, 85
2, 161054, Note_on_c, 0, 81, 103
2, 161100, Note_on_c, 0, 64, 91
2, 161214, Note_on_c, 0, 74, 0
2, 161214, Note_on_c, 0, 81, 0
2, 161214, Note_on_c, 0, 50, 0
2, 161214, Note_on_c, 0, 57, 0
2, 161214, Note_on_c, 0, 76, 0
2, 161215, Note_on_c, 0, 79, 0
2, 161215, Note_on_c, 0, 64, 0
2, 161215, Control_c, 0, 64, 0
2, 161222, Note_on_c, 0, 51, 98
2, 161222, Note_on_c, 0, 75, 98
2, 161226, Note_on_c, 0, 83, 0
2, 161233, Note_on_c, 0, 62, 0
2, 161280, Control_c, 0, 64, 127
2, 161292, Note_on_c, 0, 76, 94
2, 161294, Note_on_c, 0, 59, 89
2, 161339, Note_on_c, 0, 63, 84
2, 161355, Note_on_c, 0, 78, 111
2, 161413, Control_c, 0, 64, 0
2, 161413, Note_on_c, 0, 63, 0
2, 161414, Note_on_c, 0, 76, 0
2, 161414, Note_on_c, 0, 75, 0
2, 161414, Note_on_c, 0, 78, 0
2, 161414, Note_on_c, 0, 51, 0
2, 161414, Note_on_c, 0, 59, 0
2, 161536, Note_on_c, 0, 83, 109
2, 161542, Note_on_c, 0, 59, 108
2, 161549, Note_on_c, 0, 54, 92
2, 161553, Note_on_c, 0, 51, 82
2, 161555, Note_on_c, 0, 47, 93
2, 161556, Control_c, 0, 64, 127
2, 161614, Note_on_c, 0, 87, 101
2, 161696, Note_on_c, 0, 90, 98
2, 161749, Note_on_c, 0, 95, 106
2, 161794, Note_on_c, 0, 54, 0
2, 161798, Note_on_c, 0, 54, 54
2, 161812, Control_c, 0, 64, 0
2, 161817, Note_on_c, 0, 59, 0
2, 161817, Note_on_c, 0, 51, 0
2, 161817, Note_on_c, 0, 90, 0
2, 161818, Note_on_c, 0, 87, 0
2, 161818, Note_on_c, 0, 47, 0
2, 161819, Note_on_c, 0, 83, 0
2, 161823, Note_on_c, 0, 95, 0
2, 161832, Note_on_c, 0, 54, 0
2, 161861, Note_on_c, 0, 52, 105
2, 161863, Note_on_c, 0, 93, 118
2, 161867, Note_on_c, 0, 40, 95
2, 161868, Note_on_c, 0, 81, 112
2, 161876, Note_on_c, 0, 87, 99
2, 161877, Note_on_c, 0, 90, 92
2, 161909, Note_on_c, 0, 40, 0
2, 161909, Control_c, 0, 64, 127
2, 161936, Note_on_c, 0, 47, 41
2, 162094, Note_on_c, 0, 55, 86
2, 162117, Note_on_c, 0, 52, 0
2, 162121, Note_on_c, 0, 52, 55
2, 162181, Note_on_c, 0, 59, 94
2, 162201, Note_on_c, 0, 81, 0
2, 162201, Note_on_c, 0, 93, 0
2, 162206, Note_on_c, 0, 93, 108
2, 162211, Note_on_c, 0, 81, 99
2, 162282, Note_on_c, 0, 64, 78
2, 162360, Note_on_c, 0, 65, 93
2, 162363, Note_on_c, 0, 91, 115
2, 162374, Note_on_c, 0, 79, 105
2, 162513, Control_c, 0, 64, 0
2, 162513, Note_on_c, 0, 52, 0
2, 162514, Note_on_c, 0, 81, 0
2, 162514, Note_on_c, 0, 93, 0
2, 162514, Note_on_c, 0, 91, 0
2, 162514, Note_on_c, 0, 79, 0
2, 162514, Note_on_c, 0, 65, 0
2, 162515, Note_on_c, 0, 64, 0
2, 162516, Note_on_c, 0, 47, 0
2, 162516, Note_on_c, 0, 59, 0
2, 162516, Note_on_c, 0, 55, 0
2, 162524, Note_on_c, 0, 87, 0
2, 162531, Note_on_c, 0, 90, 0
2, 162543, Note_on_c, 0, 90, 112
2, 162543, Note_on_c, 0, 78, 114
2, 162548, Note_on_c, 0, 39, 90
2, 162551, Note_on_c, 0, 87, 95
2, 162593, Control_c, 0, 64, 127
2, 162659, Note_on_c, 0, 47, 66
2, 162660, Note_on_c, 0, 51, 90
2, 162765, Note_on_c, 0, 54, 85
2, 162851, Note_on_c, 0, 59, 91
2, 162873, Note_on_c, 0, 91, 110
2, 162879, Note_on_c, 0, 79, 104
2, 162999, Note_on_c, 0, 66, 101
2, 163003, Note_on_c, 0, 62, 80
2, 163008, Note_on_c, 0, 62, 0
2, 163015, Note_on_c, 0, 90, 0
2, 163018, Note_on_c, 0, 54, 0
2, 163023, Note_on_c, 0, 78, 0
2, 163025, Note_on_c, 0, 90, 114
2, 163027, Note_on_c, 0, 78, 110
2, 163156, Control_c, 0, 64, 0
2, 163156, Note_on_c, 0, 47, 0
2, 163157, Note_on_c, 0, 79, 0
2, 163157, Note_on_c, 0, 51, 0
2, 163157, Note_on_c, 0, 91, 0
2, 163157, Note_on_c, 0, 90, 0
2, 163157, Note_on_c, 0, 78, 0
2, 163157, Note_on_c, 0, 66, 0
2, 163157, Note_on_c, 0, 59, 0
2, 163158, Note_on_c, 0, 87, 0
2, 163169, Note_on_c, 0, 39, 0
2, 163197, Note_on_c, 0, 86, 109
2, 163202, Note_on_c, 0, 74, 110
2, 163202, Note_on_c, 0, 38, 90
2, 163203, Note_on_c, 0, 78, 106
2, 163246, Control_c, 0, 64, 127
2, 163279, Note_on_c, 0, 47, 82
2, 163336, Note_on_c, 0, 52, 72
2, 163425, Note_on_c, 0, 54, 83
2, 163517, Note_on_c, 0, 60, 88
2, 163517, Note_on_c, 0, 88, 105
2, 163517, Note_on_c, 0, 76, 104
2, 163553, Note_on_c, 0, 38, 0
2, 163603, Note_on_c, 0, 62, 79
2, 163652, Note_on_c, 0, 66, 96
2, 163657, Note_on_c, 0, 54, 0
2, 163677, Note_on_c, 0, 83, 105
2, 163678, Note_on_c, 0, 71, 103
2, 163794, Control_c, 0, 64, 0
2, 163797, Note_on_c, 0, 62, 0
2, 163797, Note_on_c, 0, 71, 0
2, 163797, Note_on_c, 0, 88, 0
2, 163797, Note_on_c, 0, 60, 0
2, 163798, Note_on_c, 0, 76, 0
2, 163798, Note_on_c, 0, 74, 0
2, 163798, Note_on_c, 0, 47, 0
2, 163798, Note_on_c, 0, 78, 0
2, 163798, Note_on_c, 0, 83, 0
2, 163798, Note_on_c, 0, 52, 0
2, 163798, Note_on_c, 0, 66, 0
2, 163814, Note_on_c, 0, 86, 0
2, 163849, Note_on_c, 0, 81, 106
2, 163852, Note_on_c, 0, 33, 96
2, 163853, Note_on_c, 0, 76, 102
2, 163854, Note_on_c, 0, 45, 96
2, 163855, Note_on_c, 0, 69, 104
2, 163855, Note_on_c, 0, 73, 103
2, 163875, Control_c, 0, 64, 127
2, 163991, Note_on_c, 0, 45, 0
2, 164002, Note_on_c, 0, 45, 85
2, 164016, Note_on_c, 0, 81, 0
2, 164017, Control_c, 0, 64, 0
2, 164017, Note_on_c, 0, 73, 0
2, 164018, Note_on_c, 0, 76, 0
2, 164022, Note_on_c, 0, 33, 0
2, 164029, Note_on_c, 0, 69, 0
2, 164052, Note_on_c, 0, 45, 0
2, 164176, Note_on_c, 0, 79, 106
2, 164177, Note_on_c, 0, 35, 95
2, 164177, Note_on_c, 0, 74, 101
2, 164178, Note_on_c, 0, 67, 106
2, 164178, Note_on_c, 0, 71, 103
2, 164198, Control_c, 0, 64, 127
2, 164317, Note_on_c, 0, 47, 85
2, 164354, Control_c, 0, 64, 0
2, 164356, Note_on_c, 0, 67, 0
2, 164357, Note_on_c, 0, 74, 0
2, 164357, Note_on_c, 0, 71, 0
2, 164362, Note_on_c, 0, 79, 0
2, 164364, Note_on_c, 0, 47, 0
2, 164364, Note_on_c, 0, 35, 0
2, 164485, Note_on_c, 0, 83, 106
2, 164488, Note_on_c, 0, 71, 106
2, 164488, Note_on_c, 0, 79, 98
2, 164490, Note_on_c, 0, 76, 103
2, 164494, Note_on_c, 0, 48, 103
2, 164494, Note_on_c, 0, 36, 100
2, 164528, Control_c, 0, 64, 127
2, 164820, Note_on_c, 0, 48, 0
2, 164831, Note_on_c, 0, 62, 77
2, 164831, Note_on_c, 0, 48, 68
2, 164892, Note_on_c, 0, 64, 85
2, 164974, Note_on_c, 0, 71, 0
2, 164984, Note_on_c, 0, 71, 95
2, 164984, Note_on_c, 0, 55, 77
2, 165073, Note_on_c, 0, 62, 0
2, 165078, Note_on_c, 0, 62, 87
2, 165143, Note_on_c, 0, 64, 0
2, 165150, Note_on_c, 0, 48, 0
2, 165150, Note_on_c, 0, 55, 0
2, 165153, Note_on_c, 0, 64, 83
2, 165155, Note_on_c, 0, 48, 87
2, 165157, Note_on_c, 0, 55, 79
2, 165212, Note_on_c, 0, 71, 0
2, 165220, Note_on_c, 0, 71, 86
2, 165296, Note_on_c, 0, 55, 0
2, 165300, Note_on_c, 0, 52, 74
2, 165302, Note_on_c, 0, 55, 77
2, 165312, Note_on_c, 0, 62, 0
2, 165322, Note_on_c, 0, 62, 91
2, 165381, Note_on_c, 0, 64, 0
2, 165386, Note_on_c, 0, 64, 89
2, 165480, Note_on_c, 0, 74, 93
2, 165480, Note_on_c, 0, 48, 0
2, 165484, Note_on_c, 0, 72, 80
2, 165485, Note_on_c, 0, 48, 72
2, 165550, Note_on_c, 0, 64, 0
2, 165556, Note_on_c, 0, 64, 96
2, 165626, Note_on_c, 0, 55, 0
2, 165632, Note_on_c, 0, 55, 88
2, 165636, Note_on_c, 0, 69, 86
2, 165719, Note_on_c, 0, 76, 0
2, 165727, Note_on_c, 0, 76, 100
2, 165803, Note_on_c, 0, 48, 0
2, 165803, Note_on_c, 0, 69, 0
2, 165807, Note_on_c, 0, 48, 83
2, 165809, Note_on_c, 0, 69, 87
2, 165872, Note_on_c, 0, 74, 0
2, 165878, Note_on_c, 0, 74, 94
2, 165949, Note_on_c, 0, 52, 0
2, 165949, Note_on_c, 0, 55, 0
2, 165954, Note_on_c, 0, 78, 110
2, 165959, Note_on_c, 0, 55, 93
2, 165960, Note_on_c, 0, 52, 85
2, 166033, Note_on_c, 0, 69, 0
2, 166039, Note_on_c, 0, 69, 78
2, 166118, Note_on_c, 0, 48, 0
2, 166126, Note_on_c, 0, 74, 0
2, 166127, Note_on_c, 0, 48, 95
2, 166129, Note_on_c, 0, 67, 86
2, 166130, Note_on_c, 0, 74, 84
2, 166187, Note_on_c, 0, 79, 0
2, 166197, Note_on_c, 0, 79, 104
2, 166279, Note_on_c, 0, 55, 0
2, 166279, Note_on_c, 0, 69, 0
2, 166290, Note_on_c, 0, 69, 88
2, 166290, Note_on_c, 0, 55, 85
2, 166341, Note_on_c, 0, 52, 0
2, 166341, Note_on_c, 0, 74, 0
2, 166345, Note_on_c, 0, 52, 46
2, 166351, Note_on_c, 0, 74, 84
2, 166425, Note_on_c, 0, 48, 0
2, 166425, Note_on_c, 0, 55, 0
2, 166434, Note_on_c, 0, 81, 101
2, 166435, Note_on_c, 0, 48, 85
2, 166436, Note_on_c, 0, 55, 84
2, 166585, Note_on_c, 0, 74, 0
2, 166585, Note_on_c, 0, 64, 0
2, 166585, Note_on_c, 0, 52, 0
2, 166585, Note_on_c, 0, 71, 0
2, 166585, Note_on_c, 0, 69, 0
2, 166585, Note_on_c, 0, 67, 0
2, 166587, Note_on_c, 0, 72, 0
2, 166587, Note_on_c, 0, 78, 0
2, 166587, Control_c, 0, 64, 0
2, 166587, Note_on_c, 0, 81, 0
2, 166588, Note_on_c, 0, 79, 0
2, 166594, Note_on_c, 0, 36, 0
2, 166594, Note_on_c, 0, 83, 0
2, 166601, Note_on_c, 0, 83, 107
2, 166602, Note_on_c, 0, 48, 0
2, 166602, Note_on_c, 0, 55, 0
2, 166602, Note_on_c, 0, 62, 0
2, 166602, Note_on_c, 0, 76, 0
2, 166607, Note_on_c, 0, 55, 97
2, 166610, Note_on_c, 0, 62, 103
2, 166612, Note_on_c, 0, 48, 97
2, 166688, Note_on_c, 0, 55, 0
2, 166688, Note_on_c, 0, 74, 101
2, 166697, Note_on_c, 0, 48, 0
2, 166771, Note_on_c, 0, 62, 0
2, 166785, Note_on_c, 0, 78, 95
2, 166792, Note_on_c, 0, 74, 0
2, 166832, Note_on_c, 0, 83, 0
2, 166862, Note_on_c, 0, 62, 103
2, 166866, Note_on_c, 0, 83, 99
2, 166868, Note_on_c, 0, 55, 91
2, 166873, Note_on_c, 0, 48, 95
2, 166877, Note_on_c, 0, 50, 74
2, 166880, Note_on_c, 0, 78, 0
2, 166908, Note_on_c, 0, 50, 0
2, 166924, Note_on_c, 0, 62, 0
2, 166929, Note_on_c, 0, 48, 0
2, 166940, Note_on_c, 0, 74, 96
2, 166942, Note_on_c, 0, 55, 0
2, 166970, Note_on_c, 0, 83, 0
2, 167025, Note_on_c, 0, 74, 0
2, 167036, Note_on_c, 0, 78, 97
2, 167106, Note_on_c, 0, 86, 108
2, 167106, Note_on_c, 0, 74, 108
2, 167116, Note_on_c, 0, 50, 104
2, 167116, Control_c, 0, 64, 127
2, 167120, Note_on_c, 0, 38, 100
2, 167431, Note_on_c, 0, 50, 0
2, 167435, Note_on_c, 0, 62, 84
2, 167439, Note_on_c, 0, 50, 78
2, 167504, Note_on_c, 0, 64, 88
2, 167599, Note_on_c, 0, 71, 102
2, 167606, Note_on_c, 0, 57, 87
2, 167677, Note_on_c, 0, 62, 0
2, 167681, Note_on_c, 0, 62, 91
2, 167746, Note_on_c, 0, 64, 0
2, 167754, Note_on_c, 0, 64, 87
2, 167761, Note_on_c, 0, 50, 0
2, 167771, Note_on_c, 0, 50, 77
2, 167831, Note_on_c, 0, 71, 0
2, 167838, Note_on_c, 0, 50, 0
2, 167842, Note_on_c, 0, 71, 102
2, 167848, Note_on_c, 0, 50, 59
2, 167900, Note_on_c, 0, 57, 0
2, 167906, Note_on_c, 0, 57, 93
2, 167929, Note_on_c, 0, 54, 72
2, 167930, Note_on_c, 0, 62, 0
2, 167935, Note_on_c, 0, 62, 79
2, 167992, Note_on_c, 0, 64, 0
2, 168000, Note_on_c, 0, 64, 93
2, 168069, Note_on_c, 0, 50, 0
2, 168069, Note_on_c, 0, 74, 0
2, 168074, Note_on_c, 0, 50, 95
2, 168080, Note_on_c, 0, 74, 98
2, 168161, Note_on_c, 0, 64, 0
2, 168165, Note_on_c, 0, 64, 94
2, 168230, Note_on_c, 0, 57, 0
2, 168241, Note_on_c, 0, 57, 89
2, 168243, Note_on_c, 0, 69, 87
2, 168322, Note_on_c, 0, 54, 0
2, 168328, Note_on_c, 0, 76, 101
2, 168331, Note_on_c, 0, 54, 45
2, 168399, Note_on_c, 0, 50, 0
2, 168399, Note_on_c, 0, 69, 0
2, 168403, Note_on_c, 0, 50, 80
2, 168409, Note_on_c, 0, 69, 90
2, 168476, Note_on_c, 0, 74, 0
2, 168482, Note_on_c, 0, 74, 94
2, 168545, Note_on_c, 0, 57, 0
2, 168545, Note_on_c, 0, 78, 0
2, 168552, Note_on_c, 0, 54, 0
2, 168556, Note_on_c, 0, 78, 107
2, 168556, Note_on_c, 0, 57, 104
2, 168563, Note_on_c, 0, 54, 86
2, 168645, Note_on_c, 0, 69, 0
2, 168654, Note_on_c, 0, 69, 94
2, 168737, Note_on_c, 0, 50, 0
2, 168737, Note_on_c, 0, 74, 0
2, 168742, Note_on_c, 0, 50, 77
2, 168748, Note_on_c, 0, 74, 92
2, 168813, Note_on_c, 0, 79, 106
2, 168875, Note_on_c, 0, 57, 0
2, 168883, Note_on_c, 0, 69, 0
2, 168885, Note_on_c, 0, 57, 100
2, 168891, Note_on_c, 0, 69, 88
2, 168960, Note_on_c, 0, 74, 0
2, 168971, Note_on_c, 0, 74, 87
2, 169029, Note_on_c, 0, 50, 0
2, 169031, Note_on_c, 0, 81, 102
2, 169032, Note_on_c, 0, 50, 96
2, 169098, Note_on_c, 0, 69, 0
2, 169103, Note_on_c, 0, 69, 95
2, 169156, Note_on_c, 0, 79, 0
2, 169156, Note_on_c, 0, 71, 0
2, 169156, Note_on_c, 0, 86, 0
2, 169156, Note_on_c, 0, 69, 0
2, 169156, Note_on_c, 0, 62, 0
2, 169156, Note_on_c, 0, 64, 0
2, 169157, Note_on_c, 0, 54, 0
2, 169157, Note_on_c, 0, 38, 0
2, 169157, Note_on_c, 0, 76, 0
2, 169157, Note_on_c, 0, 57, 0
2, 169158, Note_on_c, 0, 50, 0
2, 169158, Note_on_c, 0, 78, 0
2, 169159, Note_on_c, 0, 81, 0
2, 169166, Control_c, 0, 64, 0
2, 169182, Note_on_c, 0, 74, 0
2, 169208, Note_on_c, 0, 83, 106
2, 169210, Note_on_c, 0, 62, 107
2, 169217, Note_on_c, 0, 50, 91
2, 169218, Note_on_c, 0, 57, 95
2, 169220, Note_on_c, 0, 54, 87
2, 169228, Control_c, 0, 64, 127
2, 169277, Note_on_c, 0, 74, 89
2, 169345, Note_on_c, 0, 50, 0
2, 169347, Control_c, 0, 64, 0
2, 169357, Note_on_c, 0, 54, 0
2, 169374, Note_on_c, 0, 57, 0
2, 169374, Note_on_c, 0, 62, 0
2, 169380, Note_on_c, 0, 78, 94
2, 169405, Note_on_c, 0, 83, 0
2, 169420, Note_on_c, 0, 74, 0
2, 169451, Control_c, 0, 64, 127
2, 169451, Note_on_c, 0, 62, 105
2, 169455, Note_on_c, 0, 50, 95
2, 169457, Note_on_c, 0, 57, 93
2, 169463, Note_on_c, 0, 54, 83
2, 169463, Note_on_c, 0, 83, 95
2, 169546, Note_on_c, 0, 74, 77
2, 169566, Control_c, 0, 64, 0
2, 169567, Note_on_c, 0, 78, 0
2, 169570, Note_on_c, 0, 83, 0
2, 169570, Note_on_c, 0, 62, 0
2, 169570, Note_on_c, 0, 50, 0
2, 169570, Note_on_c, 0, 54, 0
2, 169570, Note_on_c, 0, 57, 0
2, 169574, Note_on_c, 0, 74, 0
2, 169637, Note_on_c, 0, 78, 93
2, 169693, Note_on_c, 0, 78, 0
2, 169707, Note_on_c, 0, 86, 109
2, 169708, Note_on_c, 0, 74, 105
2, 169716, Note_on_c, 0, 50, 105
2, 169718, Note_on_c, 0, 38, 99
2, 169720, Control_c, 0, 64, 127
2, 170050, Note_on_c, 0, 86, 0
2, 170055, Note_on_c, 0, 98, 113
2, 170060, Note_on_c, 0, 86, 95
2, 170132, Note_on_c, 0, 93, 100
2, 170135, Note_on_c, 0, 81, 89
2, 170215, Note_on_c, 0, 79, 86
2, 170217, Note_on_c, 0, 91, 94
2, 170280, Note_on_c, 0, 86, 0
2, 170288, Note_on_c, 0, 86, 86
2, 170296, Note_on_c, 0, 74, 0
2, 170300, Note_on_c, 0, 74, 93
2, 170365, Note_on_c, 0, 81, 0
2, 170375, Note_on_c, 0, 81, 80
2, 170393, Note_on_c, 0, 69, 79
2, 170442, Note_on_c, 0, 79, 0
2, 170449, Note_on_c, 0, 67, 88
2, 170453, Note_on_c, 0, 79, 89
2, 170519, Note_on_c, 0, 74, 0
2, 170519, Note_on_c, 0, 86, 0
2, 170528, Note_on_c, 0, 86, 107
2, 170528, Note_on_c, 0, 74, 98
2, 170595, Note_on_c, 0, 69, 0
2, 170595, Note_on_c, 0, 81, 0
2, 170601, Note_on_c, 0, 69, 95
2, 170603, Note_on_c, 0, 81, 93
2, 170641, Note_on_c, 0, 67, 0
2, 170646, Note_on_c, 0, 67, 84
2, 170664, Note_on_c, 0, 79, 0
2, 170675, Note_on_c, 0, 79, 84
2, 170749, Note_on_c, 0, 74, 0
2, 170750, Note_on_c, 0, 62, 94
2, 170755, Note_on_c, 0, 74, 89
2, 170826, Note_on_c, 0, 79, 0
2, 170829, Note_on_c, 0, 57, 88
2, 170837, Note_on_c, 0, 79, 76
2, 170864, Note_on_c, 0, 81, 0
2, 170874, Note_on_c, 0, 81, 80
2, 170933, Note_on_c, 0, 86, 0
2, 170944, Note_on_c, 0, 86, 87
2, 170949, Note_on_c, 0, 50, 0
2, 170959, Note_on_c, 0, 50, 83
2, 171002, Note_on_c, 0, 91, 0
2, 171013, Note_on_c, 0, 91, 91
2, 171021, Note_on_c, 0, 45, 68
2, 171079, Note_on_c, 0, 93, 0
2, 171086, Note_on_c, 0, 43, 74
2, 171089, Note_on_c, 0, 93, 99
2, 171179, Note_on_c, 0, 86, 0
2, 171179, Note_on_c, 0, 98, 0
2, 171183, Note_on_c, 0, 98, 110
2, 171184, Note_on_c, 0, 62, 0
2, 171185, Note_on_c, 0, 81, 0
2, 171185, Note_on_c, 0, 43, 0
2, 171186, Note_on_c, 0, 93, 0
2, 171186, Note_on_c, 0, 79, 0
2, 171186, Note_on_c, 0, 69, 0
2, 171186, Note_on_c, 0, 91, 0
2, 171187, Note_on_c, 0, 38, 0
2, 171187, Note_on_c, 0, 50, 0
2, 171188, Note_on_c, 0, 57, 0
2, 171188, Control_c, 0, 64, 0
2, 171190, Note_on_c, 0, 86, 93
2, 171191, Note_on_c, 0, 50, 83
2, 171193, Note_on_c, 0, 38, 74
2, 171202, Note_on_c, 0, 67, 0
2, 171217, Note_on_c, 0, 45, 0
2, 171440, Control_c, 0, 64, 127
2, 173066, Control_c, 0, 64, 0
2, 173076, Note_on_c, 0, 74, 0
2, 173084, Note_on_c, 0, 50, 0
2, 173091, Note_on_c, 0, 38, 0
2, 173184, Note_on_c, 0, 98, 0
2, 173391, Note_on_c, 0, 86, 0
2, 174274, Control_c, 0, 64, 127
2, 174301, Note_on_c, 0, 76, 54
2, 174481, Note_on_c, 0, 76, 0
2, 174486, Note_on_c, 0, 76, 59
2, 174636, Note_on_c, 0, 78, 59
2, 174689, Control_c, 0, 64, 0
2, 174792, Note_on_c, 0, 79, 72
2, 174819, Control_c, 0, 64, 127
2, 174839, Note_on_c, 0, 78, 0
2, 174850, Note_on_c, 0, 76, 0
2, 174850, Control_c, 0, 64, 0
2, 174935, Control_c, 0, 64, 127
2, 174950, Note_on_c, 0, 52, 49
2, 175130, Note_on_c, 0, 60, 48
2, 175290, Note_on_c, 0, 55, 43
2, 175403, Note_on_c, 0, 55, 0
2, 175413, Note_on_c, 0, 55, 32
2, 175449, Note_on_c, 0, 64, 67
2, 175619, Note_on_c, 0, 76, 75
2, 175707, Note_on_c, 0, 78, 83
2, 175773, Note_on_c, 0, 86, 87
2, 175814, Note_on_c, 0, 78, 0
2, 175815, Note_on_c, 0, 79, 0
2, 175815, Note_on_c, 0, 76, 0
2, 175815, Note_on_c, 0, 60, 0
2, 175815, Note_on_c, 0, 64, 0
2, 175816, Note_on_c, 0, 52, 0
2, 175820, Note_on_c, 0, 86, 0
2, 175820, Control_c, 0, 64, 0
2, 175833, Note_on_c, 0, 55, 0
2, 175934, Note_on_c, 0, 84, 74
2, 176092, Note_on_c, 0, 83, 83
2, 176107, Note_on_c, 0, 84, 0
2, 176148, Control_c, 0, 64, 127
2, 176271, Note_on_c, 0, 54, 53
2, 176452, Note_on_c, 0, 62, 60
2, 176590, Note_on_c, 0, 57, 58
2, 176602, Note_on_c, 0, 81, 68
2, 176616, Note_on_c, 0, 83, 0
2, 176627, Note_on_c, 0, 83, 43
2, 176696, Note_on_c, 0, 79, 69
2, 176755, Note_on_c, 0, 81, 0
2, 176759, Note_on_c, 0, 66, 47
2, 176760, Note_on_c, 0, 81, 77
2, 176785, Control_c, 0, 64, 0
2, 176870, Control_c, 0, 64, 127
2, 177267, Note_on_c, 0, 78, 65
2, 177315, Note_on_c, 0, 79, 0
2, 177320, Note_on_c, 0, 79, 80
2, 177342, Control_c, 0, 64, 0
2, 177342, Note_on_c, 0, 62, 0
2, 177342, Note_on_c, 0, 54, 0
2, 177342, Note_on_c, 0, 57, 0
2, 177342, Note_on_c, 0, 81, 0
2, 177343, Note_on_c, 0, 78, 0
2, 177346, Note_on_c, 0, 83, 0
2, 177369, Note_on_c, 0, 66, 0
2, 177414, Note_on_c, 0, 81, 85
2, 177425, Note_on_c, 0, 79, 0
2, 177569, Control_c, 0, 64, 127
2, 177598, Note_on_c, 0, 55, 60
2, 177730, Note_on_c, 0, 81, 0
2, 177741, Note_on_c, 0, 81, 84
2, 177759, Note_on_c, 0, 62, 67
2, 177918, Note_on_c, 0, 83, 75
2, 177920, Note_on_c, 0, 59, 61
2, 178006, Note_on_c, 0, 79, 83
2, 178053, Control_c, 0, 64, 0
2, 178057, Note_on_c, 0, 67, 57
2, 178091, Note_on_c, 0, 81, 0
2, 178137, Control_c, 0, 64, 127
2, 178220, Note_on_c, 0, 78, 79
2, 178360, Note_on_c, 0, 79, 0
2, 178369, Note_on_c, 0, 79, 78
2, 178542, Note_on_c, 0, 81, 72
2, 178617, Note_on_c, 0, 74, 83
2, 178619, Note_on_c, 0, 83, 0
2, 178619, Note_on_c, 0, 78, 0
2, 178619, Note_on_c, 0, 59, 0
2, 178619, Note_on_c, 0, 62, 0
2, 178619, Note_on_c, 0, 55, 0
2, 178619, Note_on_c, 0, 81, 0
2, 178620, Note_on_c, 0, 67, 0
2, 178621, Note_on_c, 0, 79, 0
2, 178624, Control_c, 0, 64, 0
2, 178859, Control_c, 0, 64, 127
2, 178884, Note_on_c, 0, 66, 52
2, 178886, Note_on_c, 0, 54, 61
2, 179065, Note_on_c, 0, 62, 69
2, 179230, Note_on_c, 0, 57, 65
2, 179374, Note_on_c, 0, 66, 0
2, 179374, Note_on_c, 0, 74, 0
2, 179378, Note_on_c, 0, 74, 84
2, 179378, Note_on_c, 0, 66, 79
2, 179643, Note_on_c, 0, 72, 88
2, 179731, Note_on_c, 0, 47, 76
2, 179873, Note_on_c, 0, 74, 0
2, 179882, Note_on_c, 0, 74, 86
2, 180009, Note_on_c, 0, 47, 0
2, 180009, Note_on_c, 0, 72, 0
2, 180009, Note_on_c, 0, 57, 0
2, 180010, Control_c, 0, 64, 0
2, 180010, Note_on_c, 0, 54, 0
2, 180011, Note_on_c, 0, 66, 0
2, 180011, Note_on_c, 0, 62, 0
2, 180013, Note_on_c, 0, 74, 0
2, 180053, Note_on_c, 0, 76, 88
2, 180058, Note_on_c, 0, 57, 81
2, 180058, Note_on_c, 0, 52, 66
2, 180060, Note_on_c, 0, 45, 75
2, 180068, Note_on_c, 0, 72, 73
2, 180069, Note_on_c, 0, 69, 66
2, 180103, Control_c, 0, 64, 127
2, 180372, Note_on_c, 0, 52, 0
2, 180372, Note_on_c, 0, 57, 0
2, 180378, Note_on_c, 0, 60, 62
2, 180381, Note_on_c, 0, 57, 64
2, 180383, Note_on_c, 0, 52, 57
2, 180526, Note_on_c, 0, 57, 0
2, 180526, Note_on_c, 0, 60, 0
2, 180533, Note_on_c, 0, 52, 0
2, 180536, Note_on_c, 0, 57, 74
2, 180536, Note_on_c, 0, 60, 67
2, 180537, Note_on_c, 0, 52, 68
2, 180695, Note_on_c, 0, 76, 0
2, 180705, Note_on_c, 0, 76, 89
2, 180718, Note_on_c, 0, 52, 0
2, 180718, Note_on_c, 0, 57, 0
2, 180718, Note_on_c, 0, 60, 0
2, 180723, Note_on_c, 0, 52, 66
2, 180729, Note_on_c, 0, 57, 70
2, 180729, Note_on_c, 0, 60, 57
2, 180864, Note_on_c, 0, 60, 0
2, 180871, Note_on_c, 0, 52, 0
2, 180871, Note_on_c, 0, 57, 0
2, 180875, Note_on_c, 0, 60, 75
2, 180875, Note_on_c, 0, 52, 50
2, 180876, Note_on_c, 0, 57, 64
2, 180947, Note_on_c, 0, 78, 102
2, 181048, Note_on_c, 0, 45, 0
2, 181053, Note_on_c, 0, 45, 82
2, 181197, Note_on_c, 0, 79, 96
2, 181320, Note_on_c, 0, 69, 0
2, 181320, Note_on_c, 0, 52, 0
2, 181320, Note_on_c, 0, 78, 0
2, 181320, Note_on_c, 0, 45, 0
2, 181320, Note_on_c, 0, 79, 0
2, 181321, Control_c, 0, 64, 0
2, 181321, Note_on_c, 0, 72, 0
2, 181332, Note_on_c, 0, 60, 0
2, 181340, Note_on_c, 0, 57, 0
2, 181340, Note_on_c, 0, 76, 0
2, 181361, Note_on_c, 0, 79, 94
2, 181365, Note_on_c, 0, 74, 85
2, 181366, Note_on_c, 0, 69, 87
2, 181366, Note_on_c, 0, 57, 86
2, 181366, Note_on_c, 0, 47, 79
2, 181367, Note_on_c, 0, 54, 76
2, 181416, Control_c, 0, 64, 127
2, 181662, Note_on_c, 0, 54, 0
2, 181669, Note_on_c, 0, 62, 72
2, 181674, Note_on_c, 0, 54, 63
2, 181685, Note_on_c, 0, 57, 0
2, 181695, Note_on_c, 0, 57, 62
2, 181831, Note_on_c, 0, 62, 0
2, 181834, Note_on_c, 0, 78, 86
2, 181839, Note_on_c, 0, 54, 0
2, 181843, Note_on_c, 0, 62, 79
2, 181847, Note_on_c, 0, 57, 0
2, 181850, Note_on_c, 0, 54, 75
2, 181851, Note_on_c, 0, 57, 75
2, 181915, Note_on_c, 0, 76, 85
2, 181985, Note_on_c, 0, 54, 0
2, 181985, Note_on_c, 0, 78, 0
2, 181994, Note_on_c, 0, 78, 102
2, 181996, Note_on_c, 0, 54, 79
2, 182000, Note_on_c, 0, 57, 0
2, 182005, Note_on_c, 0, 57, 75
2, 182161, Note_on_c, 0, 62, 0
2, 182170, Note_on_c, 0, 62, 36
2, 182177, Note_on_c, 0, 54, 0
2, 182182, Note_on_c, 0, 54, 61
2, 182315, Note_on_c, 0, 47, 0
2, 182322, Note_on_c, 0, 47, 83
2, 182469, Note_on_c, 0, 79, 0
2, 182480, Note_on_c, 0, 79, 97
2, 182604, Note_on_c, 0, 57, 0
2, 182604, Note_on_c, 0, 54, 0
2, 182604, Note_on_c, 0, 62, 0
2, 182604, Note_on_c, 0, 47, 0
2, 182604, Note_on_c, 0, 74, 0
2, 182604, Control_c, 0, 64, 0
2, 182604, Note_on_c, 0, 79, 0
2, 182604, Note_on_c, 0, 69, 0
2, 182604, Note_on_c, 0, 76, 0
2, 182605, Note_on_c, 0, 78, 0
2, 182642, Note_on_c, 0, 81, 96
2, 182647, Note_on_c, 0, 48, 81
2, 182648, Note_on_c, 0, 60, 90
2, 182648, Note_on_c, 0, 55, 86
2, 182648, Note_on_c, 0, 76, 91
2, 182649, Note_on_c, 0, 72, 90
2, 182699, Control_c, 0, 64, 127
2, 182876, Note_on_c, 0, 81, 0
2, 182882, Note_on_c, 0, 81, 95
2, 182976, Note_on_c, 0, 55, 0
2, 182983, Note_on_c, 0, 48, 0
2, 182983, Note_on_c, 0, 60, 0
2, 182985, Note_on_c, 0, 64, 82
2, 182987, Note_on_c, 0, 55, 76
2, 182988, Note_on_c, 0, 48, 64
2, 182994, Note_on_c, 0, 60, 69
2, 183121, Note_on_c, 0, 76, 0
2, 183129, Note_on_c, 0, 72, 0
2, 183131, Note_on_c, 0, 76, 96
2, 183137, Note_on_c, 0, 60, 0
2, 183140, Note_on_c, 0, 72, 81
2, 183144, Note_on_c, 0, 55, 0
2, 183144, Note_on_c, 0, 64, 0
2, 183148, Note_on_c, 0, 60, 76
2, 183149, Note_on_c, 0, 64, 84
2, 183149, Note_on_c, 0, 55, 70
2, 183290, Note_on_c, 0, 76, 0
2, 183296, Note_on_c, 0, 76, 77
2, 183321, Note_on_c, 0, 55, 0
2, 183321, Note_on_c, 0, 72, 0
2, 183327, Note_on_c, 0, 72, 63
2, 183329, Note_on_c, 0, 60, 0
2, 183329, Note_on_c, 0, 64, 0
2, 183331, Note_on_c, 0, 55, 63
2, 183337, Note_on_c, 0, 64, 63
2, 183340, Note_on_c, 0, 60, 57
2, 183429, Note_on_c, 0, 55, 0
2, 183429, Note_on_c, 0, 64, 0
2, 183433, Note_on_c, 0, 64, 79
2, 183439, Note_on_c, 0, 55, 68
2, 183452, Note_on_c, 0, 76, 0
2, 183456, Note_on_c, 0, 76, 88
2, 183605, Note_on_c, 0, 48, 0
2, 183605, Note_on_c, 0, 55, 0
2, 183605, Note_on_c, 0, 76, 0
2, 183610, Note_on_c, 0, 76, 91
2, 183613, Note_on_c, 0, 72, 0
2, 183614, Note_on_c, 0, 48, 85
2, 183616, Note_on_c, 0, 55, 70
2, 183619, Note_on_c, 0, 72, 82
2, 183767, Note_on_c, 0, 60, 0
2, 183767, Note_on_c, 0, 76, 0
2, 183775, Note_on_c, 0, 76, 100
2, 183777, Note_on_c, 0, 60, 70
2, 183872, Note_on_c, 0, 81, 0
2, 183873, Note_on_c, 0, 72, 0
2, 183874, Note_on_c, 0, 64, 0
2, 183874, Note_on_c, 0, 48, 0
2, 183875, Note_on_c, 0, 76, 0
2, 183876, Note_on_c, 0, 55, 0
2, 183879, Control_c, 0, 64, 0
2, 183897, Note_on_c, 0, 60, 0
2, 183923, Note_on_c, 0, 75, 100
2, 183925, Note_on_c, 0, 59, 95
2, 183926, Note_on_c, 0, 47, 85
2, 183929, Note_on_c, 0, 54, 81
2, 183930, Note_on_c, 0, 71, 82
2, 183955, Note_on_c, 0, 59, 0
2, 183974, Control_c, 0, 64, 127
2, 184089, Note_on_c, 0, 54, 0
2, 184093, Note_on_c, 0, 63, 83
2, 184096, Note_on_c, 0, 59, 80
2, 184099, Note_on_c, 0, 54, 67
2, 184185, Note_on_c, 0, 76, 90
2, 184235, Note_on_c, 0, 63, 0
2, 184243, Note_on_c, 0, 47, 0
2, 184243, Note_on_c, 0, 54, 0
2, 184243, Note_on_c, 0, 59, 0
2, 184243, Note_on_c, 0, 71, 0
2, 184244, Note_on_c, 0, 63, 91
2, 184248, Note_on_c, 0, 47, 66
2, 184249, Note_on_c, 0, 59, 78
2, 184250, Note_on_c, 0, 54, 67
2, 184254, Note_on_c, 0, 71, 74
2, 184389, Note_on_c, 0, 63, 0
2, 184393, Note_on_c, 0, 63, 90
2, 184396, Note_on_c, 0, 54, 0
2, 184396, Note_on_c, 0, 59, 0
2, 184397, Note_on_c, 0, 78, 102
2, 184401, Note_on_c, 0, 59, 84
2, 184405, Note_on_c, 0, 54, 84
2, 184504, Note_on_c, 0, 47, 0
2, 184505, Note_on_c, 0, 54, 0
2, 184505, Note_on_c, 0, 71, 0
2, 184505, Note_on_c, 0, 59, 0
2, 184506, Note_on_c, 0, 63, 0
2, 184506, Note_on_c, 0, 75, 0
2, 184506, Note_on_c, 0, 76, 0
2, 184507, Note_on_c, 0, 78, 0
2, 184508, Control_c, 0, 64, 0
2, 184554, Note_on_c, 0, 78, 101
2, 184554, Note_on_c, 0, 86, 105
2, 184555, Note_on_c, 0, 74, 99
2, 184556, Note_on_c, 0, 48, 93
2, 184558, Note_on_c, 0, 60, 95
2, 184611, Control_c, 0, 64, 127
2, 184719, Note_on_c, 0, 60, 0
2, 184723, Note_on_c, 0, 55, 79
2, 184724, Note_on_c, 0, 64, 77
2, 184725, Note_on_c, 0, 60, 77
2, 184779, Note_on_c, 0, 84, 99
2, 184782, Note_on_c, 0, 72, 97
2, 184872, Note_on_c, 0, 64, 0
2, 184878, Note_on_c, 0, 64, 87
2, 184880, Note_on_c, 0, 55, 0
2, 184880, Note_on_c, 0, 60, 0
2, 184885, Note_on_c, 0, 60, 84
2, 184890, Note_on_c, 0, 55, 66
2, 184995, Note_on_c, 0, 55, 0
2, 185003, Note_on_c, 0, 81, 100
2, 185003, Note_on_c, 0, 60, 0
2, 185003, Note_on_c, 0, 64, 0
2, 185006, Note_on_c, 0, 76, 92
2, 185006, Note_on_c, 0, 69, 96
2, 185007, Note_on_c, 0, 55, 93
2, 185007, Note_on_c, 0, 64, 99
2, 185013, Note_on_c, 0, 60, 82
2, 185156, Control_c, 0, 64, 0
2, 185158, Note_on_c, 0, 84, 0
2, 185158, Note_on_c, 0, 72, 0
2, 185158, Note_on_c, 0, 76, 0
2, 185158, Note_on_c, 0, 74, 0
2, 185159, Note_on_c, 0, 81, 0
2, 185159, Note_on_c, 0, 69, 0
2, 185160, Note_on_c, 0, 60, 0
2, 185160, Note_on_c, 0, 64, 0
2, 185161, Note_on_c, 0, 78, 0
2, 185164, Note_on_c, 0, 48, 0
2, 185164, Note_on_c, 0, 86, 0
2, 185180, Note_on_c, 0, 55, 0
2, 185184, Note_on_c, 0, 62, 106
2, 185184, Note_on_c, 0, 83, 103
2, 185186, Note_on_c, 0, 74, 100
2, 185190, Note_on_c, 0, 50, 95
2, 185190, Note_on_c, 0, 57, 100
2, 185191, Note_on_c, 0, 71, 101
2, 185193, Note_on_c, 0, 54, 85
2, 185222, Note_on_c, 0, 62, 0
2, 185224, Note_on_c, 0, 71, 0
2, 185230, Note_on_c, 0, 83, 0
2, 185232, Note_on_c, 0, 54, 0
2, 185234, Note_on_c, 0, 57, 0
2, 185235, Note_on_c, 0, 50, 0
2, 185341, Note_on_c, 0, 74, 0
2, 185428, Note_on_c, 0, 50, 101
2, 185429, Note_on_c, 0, 79, 96
2, 185430, Note_on_c, 0, 74, 95
2, 185430, Note_on_c, 0, 71, 97
2, 185430, Note_on_c, 0, 38, 97
2, 185430, Note_on_c, 0, 83, 91
2, 185459, Note_on_c, 0, 83, 0
2, 185460, Note_on_c, 0, 71, 0
2, 185460, Note_on_c, 0, 74, 0
2, 185460, Note_on_c, 0, 50, 0
2, 185461, Note_on_c, 0, 79, 0
2, 185465, Note_on_c, 0, 38, 0
2, 185682, Note_on_c, 0, 50, 102
2, 185683, Note_on_c, 0, 74, 106
2, 185683, Note_on_c, 0, 71, 97
2, 185683, Note_on_c, 0, 38, 101
2, 185685, Note_on_c, 0, 78, 105
2, 185710, Control_c, 0, 64, 127
2, 186009, Note_on_c, 0, 50, 0
2, 186017, Note_on_c, 0, 50, 90
2, 186064, Note_on_c, 0, 54, 93
2, 186146, Note_on_c, 0, 59, 106
2, 186357, Note_on_c, 0, 38, 0
2, 186358, Note_on_c, 0, 50, 0
2, 186359, Note_on_c, 0, 71, 0
2, 186359, Note_on_c, 0, 54, 0
2, 186359, Note_on_c, 0, 74, 0
2, 186359, Note_on_c, 0, 78, 0
2, 186359, Note_on_c, 0, 59, 0
2, 186360, Control_c, 0, 64, 0
2, 186481, Note_on_c, 0, 83, 106
2, 186485, Note_on_c, 0, 79, 99
2, 186539, Control_c, 0, 64, 127
2, 186644, Note_on_c, 0, 52, 70
2, 186726, Note_on_c, 0, 59, 81
2, 186792, Note_on_c, 0, 64, 82
2, 186877, Note_on_c, 0, 59, 0
2, 186883, Note_on_c, 0, 59, 89
2, 186931, Note_on_c, 0, 64, 0
2, 186941, Note_on_c, 0, 64, 95
2, 187037, Note_on_c, 0, 66, 86
2, 187117, Note_on_c, 0, 67, 92
2, 187120, Note_on_c, 0, 81, 106
2, 187120, Note_on_c, 0, 71, 96
2, 187203, Note_on_c, 0, 67, 0
2, 187204, Note_on_c, 0, 66, 0
2, 187205, Note_on_c, 0, 79, 0
2, 187205, Note_on_c, 0, 59, 0
2, 187207, Note_on_c, 0, 64, 0
2, 187207, Note_on_c, 0, 52, 0
2, 187208, Note_on_c, 0, 71, 0
2, 187208, Note_on_c, 0, 81, 0
2, 187215, Note_on_c, 0, 83, 0
2, 187227, Control_c, 0, 64, 0
2, 187386, Note_on_c, 0, 86, 110
2, 187387, Note_on_c, 0, 83, 104
2, 187418, Note_on_c, 0, 83, 0
2, 187419, Note_on_c, 0, 86, 0
2, 187613, Note_on_c, 0, 84, 101
2, 187616, Note_on_c, 0, 81, 95
2, 187651, Note_on_c, 0, 81, 0
2, 187655, Note_on_c, 0, 84, 0
2, 187787, Note_on_c, 0, 83, 110
2, 187792, Note_on_c, 0, 79, 100
2, 187829, Control_c, 0, 64, 127
2, 187935, Note_on_c, 0, 48, 82
2, 187995, Note_on_c, 0, 55, 83
2, 188085, Note_on_c, 0, 60, 89
2, 188175, Note_on_c, 0, 55, 0
2, 188180, Note_on_c, 0, 55, 80
2, 188244, Note_on_c, 0, 60, 0
2, 188250, Note_on_c, 0, 60, 90
2, 188337, Note_on_c, 0, 62, 92
2, 188411, Note_on_c, 0, 64, 92
2, 188418, Note_on_c, 0, 81, 101
2, 188418, Note_on_c, 0, 67, 98
2, 188421, Note_on_c, 0, 78, 105
2, 188612, Note_on_c, 0, 67, 0
2, 188613, Note_on_c, 0, 79, 0
2, 188613, Note_on_c, 0, 64, 0
2, 188614, Note_on_c, 0, 62, 0
2, 188614, Note_on_c, 0, 48, 0
2, 188614, Note_on_c, 0, 78, 0
2, 188614, Note_on_c, 0, 81, 0
2, 188615, Note_on_c, 0, 60, 0
2, 188615, Note_on_c, 0, 55, 0
2, 188616, Control_c, 0, 64, 0
2, 188620, Note_on_c, 0, 83, 0
2, 188672, Note_on_c, 0, 86, 105
2, 188674, Note_on_c, 0, 83, 101
2, 188705, Note_on_c, 0, 86, 0
2, 188708, Note_on_c, 0, 83, 0
2, 188905, Note_on_c, 0, 84, 103
2, 188908, Note_on_c, 0, 81, 97
2, 188942, Note_on_c, 0, 81, 0
2, 188944, Note_on_c, 0, 84, 0
2, 189084, Note_on_c, 0, 83, 108
2, 189088, Note_on_c, 0, 79, 100
2, 189120, Control_c, 0, 64, 127
2, 189239, Note_on_c, 0, 43, 80
2, 189297, Note_on_c, 0, 50, 87
2, 189386, Note_on_c, 0, 55, 80
2, 189465, Note_on_c, 0, 50, 0
2, 189476, Note_on_c, 0, 50, 87
2, 189534, Note_on_c, 0, 55, 0
2, 189545, Note_on_c, 0, 55, 80
2, 189624, Note_on_c, 0, 57, 89
2, 189703, Note_on_c, 0, 79, 0
2, 189714, Note_on_c, 0, 79, 104
2, 189714, Note_on_c, 0, 74, 100
2, 189716, Note_on_c, 0, 62, 102
2, 189717, Note_on_c, 0, 59, 96
2, 189939, Note_on_c, 0, 62, 0
2, 189939, Control_c, 0, 64, 0
2, 189939, Note_on_c, 0, 74, 0
2, 189939, Note_on_c, 0, 55, 0
2, 189940, Note_on_c, 0, 83, 0
2, 189940, Note_on_c, 0, 43, 0
2, 189940, Note_on_c, 0, 57, 0
2, 189940, Note_on_c, 0, 79, 0
2, 189941, Note_on_c, 0, 59, 0
2, 189952, Note_on_c, 0, 81, 101
2, 189954, Note_on_c, 0, 78, 105
2, 189957, Note_on_c, 0, 50, 0
2, 190008, Note_on_c, 0, 81, 0
2, 190012, Note_on_c, 0, 78, 0
2, 190185, Note_on_c, 0, 79, 97
2, 190186, Note_on_c, 0, 83, 101
2, 190256, Note_on_c, 0, 79, 0
2, 190318, Note_on_c, 0, 83, 0
2, 190318, Control_c, 0, 64, 127
2, 190362, Note_on_c, 0, 83, 107
2, 190367, Note_on_c, 0, 76, 105
2, 190368, Note_on_c, 0, 74, 102
2, 190502, Note_on_c, 0, 45, 82
2, 190585, Note_on_c, 0, 81, 96
2, 190588, Note_on_c, 0, 52, 86
2, 190660, Note_on_c, 0, 57, 86
2, 190772, Note_on_c, 0, 59, 86
2, 190840, Note_on_c, 0, 76, 0
2, 190850, Note_on_c, 0, 76, 101
2, 190850, Note_on_c, 0, 61, 90
2, 190851, Note_on_c, 0, 73, 94
2, 190942, Note_on_c, 0, 64, 87
2, 191024, Note_on_c, 0, 69, 89
2, 191316, Note_on_c, 0, 45, 0
2, 191321, Note_on_c, 0, 45, 86
2, 191497, Note_on_c, 0, 78, 91
2, 191556, Note_on_c, 0, 79, 95
2, 191617, Note_on_c, 0, 83, 0
2, 191617, Note_on_c, 0, 73, 0
2, 191618, Note_on_c, 0, 61, 0
2, 191618, Note_on_c, 0, 57, 0
2, 191618, Note_on_c, 0, 64, 0
2, 191618, Note_on_c, 0, 69, 0
2, 191618, Note_on_c, 0, 59, 0
2, 191618, Note_on_c, 0, 45, 0
2, 191619, Note_on_c, 0, 52, 0
2, 191619, Note_on_c, 0, 74, 0
2, 191619, Note_on_c, 0, 78, 0
2, 191619, Note_on_c, 0, 79, 0
2, 191620, Control_c, 0, 64, 0
2, 191631, Note_on_c, 0, 76, 0
2, 191631, Note_on_c, 0, 81, 0
2, 191636, Note_on_c, 0, 76, 94
2, 191637, Note_on_c, 0, 81, 102
2, 191639, Note_on_c, 0, 48, 92
2, 191642, Note_on_c, 0, 72, 90
2, 191708, Control_c, 0, 64, 127
2, 191714, Note_on_c, 0, 55, 81
2, 191788, Note_on_c, 0, 60, 92
2, 191885, Note_on_c, 0, 62, 82
2, 191969, Note_on_c, 0, 64, 84
2, 192145, Note_on_c, 0, 79, 95
2, 192229, Note_on_c, 0, 78, 95
2, 192291, Note_on_c, 0, 72, 0
2, 192296, Note_on_c, 0, 74, 94
2, 192297, Note_on_c, 0, 72, 93
2, 192378, Note_on_c, 0, 67, 87
2, 192430, Note_on_c, 0, 64, 0
2, 192433, Note_on_c, 0, 64, 92
2, 192514, Note_on_c, 0, 60, 0
2, 192519, Note_on_c, 0, 60, 92
2, 192606, Note_on_c, 0, 48, 0
2, 192614, Note_on_c, 0, 48, 80
2, 192806, Note_on_c, 0, 79, 0
2, 192811, Note_on_c, 0, 79, 94
2, 192875, Note_on_c, 0, 81, 0
2, 192879, Note_on_c, 0, 81, 93
2, 192923, Note_on_c, 0, 60, 0
2, 192923, Note_on_c, 0, 72, 0
2, 192924, Note_on_c, 0, 67, 0
2, 192924, Note_on_c, 0, 62, 0
2, 192924, Note_on_c, 0, 76, 0
2, 192924, Note_on_c, 0, 55, 0
2, 192924, Note_on_c, 0, 64, 0
2, 192924, Note_on_c, 0, 81, 0
2, 192924, Note_on_c, 0, 48, 0
2, 192925, Note_on_c, 0, 78, 0
2, 192926, Control_c, 0, 64, 0
2, 192952, Note_on_c, 0, 74, 0
2, 192952, Note_on_c, 0, 79, 0
2, 192952, Note_on_c, 0, 84, 103
2, 192955, Note_on_c, 0, 43, 84
2, 192958, Note_on_c, 0, 74, 98
2, 192963, Note_on_c, 0, 79, 88
2, 193029, Control_c, 0, 64, 127
2, 193029, Note_on_c, 0, 50, 81
2, 193094, Note_on_c, 0, 55, 84
2, 193185, Note_on_c, 0, 57, 86
2, 193269, Note_on_c, 0, 59, 92
2, 193448, Note_on_c, 0, 83, 99
2, 193519, Note_on_c, 0, 81, 98
2, 193605, Note_on_c, 0, 74, 0
2, 193605, Note_on_c, 0, 79, 0
2, 193605, Note_on_c, 0, 83, 0
2, 193608, Note_on_c, 0, 67, 100
2, 193609, Note_on_c, 0, 83, 103
2, 193610, Note_on_c, 0, 79, 99
2, 193610, Note_on_c, 0, 74, 94
2, 193690, Note_on_c, 0, 62, 98
2, 193743, Note_on_c, 0, 59, 0
2, 193748, Note_on_c, 0, 59, 92
2, 193827, Note_on_c, 0, 55, 0
2, 193833, Note_on_c, 0, 55, 84
2, 193912, Note_on_c, 0, 43, 0
2, 193921, Note_on_c, 0, 43, 95
2, 194081, Note_on_c, 0, 83, 0
2, 194088, Note_on_c, 0, 83, 100
2, 194148, Note_on_c, 0, 67, 0
2, 194148, Note_on_c, 0, 74, 0
2, 194148, Note_on_c, 0, 57, 0
2, 194149, Note_on_c, 0, 50, 0
2, 194149, Note_on_c, 0, 79, 0
2, 194149, Note_on_c, 0, 84, 0
2, 194149, Note_on_c, 0, 81, 0
2, 194150, Note_on_c, 0, 83, 0
2, 194150, Note_on_c, 0, 62, 0
2, 194150, Note_on_c, 0, 55, 0
2, 194151, Note_on_c, 0, 59, 0
2, 194152, Note_on_c, 0, 43, 0
2, 194155, Control_c, 0, 64, 0
2, 194231, Note_on_c, 0, 45, 89
2, 194237, Note_on_c, 0, 83, 101
2, 194242, Control_c, 0, 64, 127
2, 194243, Note_on_c, 0, 72, 93
2, 194243, Note_on_c, 0, 76, 102
2, 194302, Note_on_c, 0, 52, 63
2, 194382, Note_on_c, 0, 57, 87
2, 194468, Note_on_c, 0, 81, 97
2, 194493, Note_on_c, 0, 60, 83
2, 194561, Note_on_c, 0, 69, 82
2, 194563, Note_on_c, 0, 64, 87
2, 194718, Note_on_c, 0, 76, 0
2, 194727, Note_on_c, 0, 76, 104
2, 194869, Note_on_c, 0, 57, 0
2, 194869, Note_on_c, 0, 83, 0
2, 194869, Note_on_c, 0, 81, 0
2, 194870, Note_on_c, 0, 52, 0
2, 194870, Control_c, 0, 64, 0
2, 194870, Note_on_c, 0, 64, 0
2, 194870, Note_on_c, 0, 60, 0
2, 194871, Note_on_c, 0, 72, 0
2, 194871, Note_on_c, 0, 69, 0
2, 194875, Note_on_c, 0, 46, 92
2, 194887, Note_on_c, 0, 45, 0
2, 194941, Control_c, 0, 64, 127
2, 194964, Note_on_c, 0, 54, 85
2, 195033, Note_on_c, 0, 58, 93
2, 195033, Note_on_c, 0, 76, 0
2, 195042, Note_on_c, 0, 76, 96
2, 195145, Note_on_c, 0, 61, 91
2, 195196, Note_on_c, 0, 78, 106
2, 195203, Note_on_c, 0, 70, 98
2, 195207, Note_on_c, 0, 66, 93
2, 195357, Note_on_c, 0, 79, 105
2, 195458, Note_on_c, 0, 54, 0
2, 195459, Control_c, 0, 64, 0
2, 195459, Note_on_c, 0, 66, 0
2, 195459, Note_on_c, 0, 78, 0
2, 195459, Note_on_c, 0, 58, 0
2, 195459, Note_on_c, 0, 79, 0
2, 195459, Note_on_c, 0, 76, 0
2, 195459, Note_on_c, 0, 61, 0
2, 195459, Note_on_c, 0, 70, 0
2, 195471, Note_on_c, 0, 46, 0
2, 195504, Note_on_c, 0, 47, 100
2, 195506, Note_on_c, 0, 79, 108
2, 195511, Note_on_c, 0, 75, 97
2, 195511, Note_on_c, 0, 71, 100
2, 195540, Control_c, 0, 64, 127
2, 195582, Note_on_c, 0, 54, 77
2, 195644, Note_on_c, 0, 59, 90
2, 195742, Note_on_c, 0, 61, 86
2, 195827, Note_on_c, 0, 63, 84
2, 195901, Note_on_c, 0, 59, 0
2, 195906, Note_on_c, 0, 59, 84
2, 195962, Note_on_c, 0, 63, 0
2, 195973, Note_on_c, 0, 63, 93
2, 195997, Note_on_c, 0, 78, 107
2, 196032, Note_on_c, 0, 66, 85
2, 196147, Note_on_c, 0, 71, 0
2, 196157, Note_on_c, 0, 84, 102
2, 196158, Note_on_c, 0, 71, 97
2, 196162, Note_on_c, 0, 75, 0
2, 196162, Note_on_c, 0, 78, 0
2, 196165, Note_on_c, 0, 83, 91
2, 196169, Note_on_c, 0, 75, 99
2, 196169, Note_on_c, 0, 78, 93
2, 196300, Note_on_c, 0, 59, 0
2, 196311, Note_on_c, 0, 59, 105
2, 196454, Note_on_c, 0, 47, 0
2, 196454, Note_on_c, 0, 75, 0
2, 196454, Note_on_c, 0, 78, 0
2, 196454, Note_on_c, 0, 83, 0
2, 196463, Note_on_c, 0, 83, 106
2, 196464, Note_on_c, 0, 47, 101
2, 196465, Note_on_c, 0, 75, 108
2, 196465, Note_on_c, 0, 78, 105
2, 196466, Note_on_c, 0, 66, 0
2, 196468, Note_on_c, 0, 71, 0
2, 196600, Note_on_c, 0, 54, 0
2, 196607, Note_on_c, 0, 54, 91
2, 196741, Note_on_c, 0, 78, 0
2, 196741, Control_c, 0, 64, 0
2, 196741, Note_on_c, 0, 54, 0
2, 196743, Note_on_c, 0, 84, 0
2, 196746, Note_on_c, 0, 61, 0
2, 196746, Note_on_c, 0, 79, 0
2, 196761, Note_on_c, 0, 47, 0
2, 196761, Note_on_c, 0, 63, 0
2, 196761, Note_on_c, 0, 75, 0
2, 196761, Note_on_c, 0, 83, 0
2, 196776, Note_on_c, 0, 59, 0
2, 196785, Note_on_c, 0, 59, 110
2, 196788, Note_on_c, 0, 55, 103
2, 196789, Note_on_c, 0, 52, 107
2, 196791, Note_on_c, 0, 40, 99
2, 196792, Note_on_c, 0, 47, 96
2, 196815, Control_c, 0, 64, 127
2, 196960, Note_on_c, 0, 64, 95
2, 197036, Note_on_c, 0, 67, 94
2, 197130, Note_on_c, 0, 71, 87
2, 197208, Note_on_c, 0, 76, 93
2, 197269, Note_on_c, 0, 79, 93
2, 197364, Note_on_c, 0, 83, 83
2, 197426, Note_on_c, 0, 57, 115
2, 197438, Note_on_c, 0, 95, 104
2, 197517, Note_on_c, 0, 91, 96
2, 197587, Note_on_c, 0, 88, 85
2, 197637, Note_on_c, 0, 83, 0
2, 197647, Note_on_c, 0, 83, 77
2, 197679, Note_on_c, 0, 62, 111
2, 197783, Note_on_c, 0, 76, 0
2, 197787, Note_on_c, 0, 76, 77
2, 197915, Note_on_c, 0, 60, 94
2, 197944, Note_on_c, 0, 67, 0
2, 197949, Note_on_c, 0, 67, 66
2, 198073, Control_c, 0, 64, 0
2, 198074, Note_on_c, 0, 59, 0
2, 198074, Note_on_c, 0, 64, 0
2, 198075, Note_on_c, 0, 88, 0
2, 198075, Note_on_c, 0, 62, 0
2, 198075, Note_on_c, 0, 76, 0
2, 198075, Note_on_c, 0, 67, 0
2, 198075, Note_on_c, 0, 79, 0
2, 198076, Note_on_c, 0, 95, 0
2, 198076, Note_on_c, 0, 57, 0
2, 198076, Note_on_c, 0, 91, 0
2, 198076, Note_on_c, 0, 60, 0
2, 198076, Note_on_c, 0, 47, 0
2, 198085, Note_on_c, 0, 59, 113
2, 198090, Note_on_c, 0, 40, 0
2, 198090, Note_on_c, 0, 52, 0
2, 198090, Note_on_c, 0, 55, 0
2, 198090, Note_on_c, 0, 83, 0
2, 198091, Note_on_c, 0, 54, 100
2, 198097, Note_on_c, 0, 42, 92
2, 198102, Note_on_c, 0, 50, 81
2, 198159, Control_c, 0, 64, 127
2, 198249, Note_on_c, 0, 62, 94
2, 198309, Note_on_c, 0, 66, 82
2, 198401, Note_on_c, 0, 69, 90
2, 198472, Note_on_c, 0, 74, 85
2, 198529, Note_on_c, 0, 78, 95
2, 198623, Note_on_c, 0, 81, 89
2, 198722, Note_on_c, 0, 57, 113
2, 198724, Note_on_c, 0, 93, 99
2, 198798, Note_on_c, 0, 90, 95
2, 198854, Note_on_c, 0, 86, 92
2, 198896, Note_on_c, 0, 81, 0
2, 198908, Note_on_c, 0, 81, 83
2, 198965, Note_on_c, 0, 62, 0
2, 198971, Note_on_c, 0, 62, 112
2, 198988, Note_on_c, 0, 78, 0
2, 198996, Note_on_c, 0, 78, 83
2, 199057, Note_on_c, 0, 74, 0
2, 199066, Note_on_c, 0, 74, 81
2, 199157, Note_on_c, 0, 69, 0
2, 199163, Note_on_c, 0, 69, 77
2, 199220, Note_on_c, 0, 60, 97
2, 199257, Note_on_c, 0, 67, 77
2, 199363, Note_on_c, 0, 93, 0
2, 199363, Note_on_c, 0, 81, 0
2, 199363, Note_on_c, 0, 69, 0
2, 199363, Note_on_c, 0, 86, 0
2, 199363, Note_on_c, 0, 62, 0
2, 199363, Note_on_c, 0, 57, 0
2, 199364, Note_on_c, 0, 66, 0
2, 199364, Note_on_c, 0, 90, 0
2, 199364, Note_on_c, 0, 78, 0
2, 199364, Note_on_c, 0, 67, 0
2, 199365, Note_on_c, 0, 74, 0
2, 199365, Note_on_c, 0, 60, 0
2, 199368, Control_c, 0, 64, 0
2, 199372, Note_on_c, 0, 42, 0
2, 199372, Note_on_c, 0, 71, 0
2, 199380, Note_on_c, 0, 50, 0
2, 199380, Note_on_c, 0, 54, 0
2, 199380, Note_on_c, 0, 59, 0
2, 199383, Note_on_c, 0, 55, 105
2, 199385, Note_on_c, 0, 59, 112
2, 199388, Note_on_c, 0, 50, 96
2, 199390, Note_on_c, 0, 43, 95
2, 199457, Control_c, 0, 64, 127
2, 199543, Note_on_c, 0, 62, 95
2, 199620, Note_on_c, 0, 67, 91
2, 199710, Note_on_c, 0, 71, 91
2, 199789, Note_on_c, 0, 74, 84
2, 199832, Note_on_c, 0, 79, 93
2, 199928, Note_on_c, 0, 83, 82
2, 200018, Note_on_c, 0, 62, 0
2, 200019, Note_on_c, 0, 74, 0
2, 200019, Note_on_c, 0, 79, 0
2, 200019, Note_on_c, 0, 71, 0
2, 200020, Note_on_c, 0, 50, 0
2, 200021, Control_c, 0, 64, 0
2, 200025, Note_on_c, 0, 59, 0
2, 200033, Note_on_c, 0, 59, 112
2, 200037, Note_on_c, 0, 95, 108
2, 200064, Control_c, 0, 64, 127
2, 200109, Note_on_c, 0, 91, 93
2, 200204, Note_on_c, 0, 86, 85
2, 200240, Note_on_c, 0, 83, 0
2, 200245, Note_on_c, 0, 83, 85
2, 200283, Note_on_c, 0, 64, 110
2, 200329, Note_on_c, 0, 81, 69
2, 200415, Note_on_c, 0, 76, 76
2, 200419, Note_on_c, 0, 74, 59
2, 200477, Note_on_c, 0, 71, 68
2, 200509, Note_on_c, 0, 59, 0
2, 200516, Note_on_c, 0, 59, 96
2, 200660, Note_on_c, 0, 55, 0
2, 200661, Note_on_c, 0, 86, 0
2, 200661, Note_on_c, 0, 95, 0
2, 200661, Note_on_c, 0, 81, 0
2, 200661, Note_on_c, 0, 83, 0
2, 200661, Note_on_c, 0, 71, 0
2, 200661, Note_on_c, 0, 91, 0
2, 200661, Note_on_c, 0, 64, 0
2, 200662, Note_on_c, 0, 59, 0
2, 200662, Note_on_c, 0, 76, 0
2, 200663, Control_c, 0, 64, 0
2, 200670, Note_on_c, 0, 43, 0
2, 200670, Note_on_c, 0, 67, 0
2, 200678, Note_on_c, 0, 74, 0
2, 200698, Note_on_c, 0, 62, 105
2, 200702, Note_on_c, 0, 52, 93
2, 200705, Note_on_c, 0, 57, 94
2, 200708, Note_on_c, 0, 45, 95
2, 200747, Control_c, 0, 64, 127
2, 200782, Note_on_c, 0, 64, 88
2, 200903, Note_on_c, 0, 69, 80
2, 200942, Note_on_c, 0, 61, 106
2, 200972, Note_on_c, 0, 73, 76
2, 201035, Note_on_c, 0, 76, 91
2, 201114, Note_on_c, 0, 81, 89
2, 201185, Note_on_c, 0, 52, 0
2, 201191, Note_on_c, 0, 93, 108
2, 201192, Note_on_c, 0, 57, 0
2, 201196, Note_on_c, 0, 52, 68
2, 201197, Note_on_c, 0, 57, 106
2, 201278, Note_on_c, 0, 88, 85
2, 201359, Note_on_c, 0, 85, 86
2, 201400, Note_on_c, 0, 81, 0
2, 201409, Note_on_c, 0, 81, 82
2, 201515, Note_on_c, 0, 76, 0
2, 201520, Note_on_c, 0, 76, 84
2, 201592, Note_on_c, 0, 73, 0
2, 201601, Note_on_c, 0, 73, 83
2, 201669, Note_on_c, 0, 45, 0
2, 201669, Note_on_c, 0, 52, 0
2, 201676, Note_on_c, 0, 57, 0
2, 201676, Note_on_c, 0, 69, 0
2, 201677, Note_on_c, 0, 45, 95
2, 201679, Note_on_c, 0, 52, 64
2, 201687, Note_on_c, 0, 69, 74
2, 201687, Note_on_c, 0, 57, 77
2, 201822, Note_on_c, 0, 76, 0
2, 201833, Note_on_c, 0, 76, 87
2, 201917, Note_on_c, 0, 78, 88
2, 201919, Note_on_c, 0, 93, 0
2, 201919, Note_on_c, 0, 62, 0
2, 201919, Note_on_c, 0, 69, 0
2, 201919, Note_on_c, 0, 61, 0
2, 201919, Note_on_c, 0, 85, 0
2, 201919, Note_on_c, 0, 64, 0
2, 201920, Note_on_c, 0, 73, 0
2, 201920, Note_on_c, 0, 81, 0
2, 201920, Note_on_c, 0, 57, 0
2, 201920, Note_on_c, 0, 52, 0
2, 201921, Control_c, 0, 64, 0
2, 201921, Note_on_c, 0, 45, 0
2, 201922, Note_on_c, 0, 88, 0
2, 201922, Note_on_c, 0, 76, 0
2, 201956, Note_on_c, 0, 78, 0
2, 201983, Note_on_c, 0, 55, 96
2, 201984, Note_on_c, 0, 79, 105
2, 201987, Note_on_c, 0, 48, 96
2, 201987, Note_on_c, 0, 52, 89
2, 202049, Note_on_c, 0, 52, 0
2, 202051, Note_on_c, 0, 48, 0
2, 202054, Note_on_c, 0, 55, 0
2, 202072, Note_on_c, 0, 67, 91
2, 202152, Note_on_c, 0, 67, 0
2, 202166, Note_on_c, 0, 72, 82
2, 202183, Note_on_c, 0, 79, 0
2, 202222, Note_on_c, 0, 72, 0
2, 202235, Note_on_c, 0, 55, 89
2, 202235, Note_on_c, 0, 48, 87
2, 202235, Note_on_c, 0, 76, 94
2, 202235, Note_on_c, 0, 52, 87
2, 202294, Note_on_c, 0, 48, 0
2, 202300, Note_on_c, 0, 55, 0
2, 202302, Note_on_c, 0, 52, 0
2, 202303, Note_on_c, 0, 67, 90
2, 202368, Control_c, 0, 64, 127
2, 202390, Note_on_c, 0, 72, 84
2, 202475, Note_on_c, 0, 72, 0
2, 202479, Note_on_c, 0, 83, 109
2, 202484, Note_on_c, 0, 72, 104
2, 202491, Note_on_c, 0, 52, 59
2, 202513, Note_on_c, 0, 67, 0
2, 202518, Note_on_c, 0, 67, 72
2, 202607, Note_on_c, 0, 64, 88
2, 202704, Note_on_c, 0, 60, 83
2, 202778, Note_on_c, 0, 55, 92
2, 202782, Note_on_c, 0, 52, 0
2, 202788, Note_on_c, 0, 81, 104
2, 202791, Note_on_c, 0, 52, 56
2, 202818, Note_on_c, 0, 80, 51
2, 202920, Note_on_c, 0, 52, 0
2, 202929, Note_on_c, 0, 52, 82
2, 202936, Note_on_c, 0, 81, 0
2, 202939, Note_on_c, 0, 48, 92
2, 202946, Note_on_c, 0, 81, 105
2, 203097, Note_on_c, 0, 55, 0
2, 203097, Note_on_c, 0, 83, 0
2, 203104, Note_on_c, 0, 83, 105
2, 203107, Note_on_c, 0, 55, 80
2, 203159, Note_on_c, 0, 80, 0
2, 203171, Note_on_c, 0, 60, 0
2, 203172, Note_on_c, 0, 64, 0
2, 203172, Note_on_c, 0, 81, 0
2, 203172, Note_on_c, 0, 67, 0
2, 203172, Note_on_c, 0, 83, 0
2, 203173, Note_on_c, 0, 76, 0
2, 203174, Note_on_c, 0, 55, 0
2, 203176, Note_on_c, 0, 48, 0
2, 203178, Control_c, 0, 64, 0
2, 203189, Note_on_c, 0, 52, 0
2, 203189, Note_on_c, 0, 72, 0
2, 203247, Note_on_c, 0, 81, 105
2, 203252, Note_on_c, 0, 55, 100
2, 203255, Note_on_c, 0, 50, 95
2, 203258, Control_c, 0, 64, 127
2, 203258, Note_on_c, 0, 47, 89
2, 203366, Note_on_c, 0, 67, 85
2, 203415, Control_c, 0, 64, 0
2, 203417, Note_on_c, 0, 81, 0
2, 203418, Note_on_c, 0, 47, 0
2, 203420, Note_on_c, 0, 50, 0
2, 203421, Note_on_c, 0, 55, 0
2, 203423, Note_on_c, 0, 67, 0
2, 203444, Note_on_c, 0, 74, 93
2, 203493, Note_on_c, 0, 50, 93
2, 203495, Note_on_c, 0, 55, 79
2, 203499, Note_on_c, 0, 47, 84
2, 203513, Note_on_c, 0, 79, 97
2, 203523, Note_on_c, 0, 74, 0
2, 203545, Note_on_c, 0, 50, 0
2, 203548, Note_on_c, 0, 47, 0
2, 203552, Note_on_c, 0, 55, 0
2, 203577, Note_on_c, 0, 67, 91
2, 203627, Note_on_c, 0, 67, 0
2, 203652, Note_on_c, 0, 74, 93
2, 203727, Control_c, 0, 64, 127
2, 203738, Note_on_c, 0, 78, 112
2, 203741, Note_on_c, 0, 71, 103
2, 203797, Note_on_c, 0, 67, 83
2, 203874, Note_on_c, 0, 62, 99
2, 203972, Note_on_c, 0, 59, 94
2, 204030, Note_on_c, 0, 55, 84
2, 204049, Note_on_c, 0, 79, 0
2, 204059, Note_on_c, 0, 79, 108
2, 204077, Note_on_c, 0, 50, 79
2, 204195, Note_on_c, 0, 50, 0
2, 204195, Note_on_c, 0, 74, 0
2, 204200, Note_on_c, 0, 50, 104
2, 204203, Note_on_c, 0, 47, 98
2, 204207, Note_on_c, 0, 74, 82
2, 204364, Note_on_c, 0, 55, 0
2, 204364, Note_on_c, 0, 78, 0
2, 204368, Note_on_c, 0, 78, 104
2, 204370, Note_on_c, 0, 55, 83
2, 204481, Control_c, 0, 64, 0
2, 204481, Note_on_c, 0, 67, 0
2, 204481, Note_on_c, 0, 62, 0
2, 204481, Note_on_c, 0, 55, 0
2, 204482, Note_on_c, 0, 59, 0
2, 204482, Note_on_c, 0, 50, 0
2, 204482, Note_on_c, 0, 71, 0
2, 204482, Note_on_c, 0, 74, 0
2, 204482, Note_on_c, 0, 47, 0
2, 204483, Note_on_c, 0, 78, 0
2, 204518, Note_on_c, 0, 79, 0
2, 204523, Note_on_c, 0, 79, 108
2, 204526, Note_on_c, 0, 52, 96
2, 204526, Note_on_c, 0, 55, 99
2, 204529, Note_on_c, 0, 48, 102
2, 204606, Note_on_c, 0, 52, 0
2, 204606, Note_on_c, 0, 55, 0
2, 204615, Note_on_c, 0, 48, 0
2, 204619, Note_on_c, 0, 67, 90
2, 204695, Note_on_c, 0, 67, 0
2, 204699, Note_on_c, 0, 72, 90
2, 204748, Note_on_c, 0, 79, 0
2, 204765, Note_on_c, 0, 72, 0
2, 204768, Note_on_c, 0, 81, 98
2, 204775, Note_on_c, 0, 52, 90
2, 204776, Note_on_c, 0, 55, 90
2, 204778, Note_on_c, 0, 48, 94
2, 204837, Note_on_c, 0, 67, 90
2, 204840, Note_on_c, 0, 48, 0
2, 204841, Note_on_c, 0, 55, 0
2, 204844, Note_on_c, 0, 52, 0
2, 204845, Note_on_c, 0, 81, 0
2, 204921, Note_on_c, 0, 67, 0
2, 204926, Note_on_c, 0, 72, 93
2, 204986, Control_c, 0, 64, 127
2, 205003, Note_on_c, 0, 79, 108
2, 205040, Note_on_c, 0, 72, 0
2, 205046, Note_on_c, 0, 72, 67
2, 205110, Note_on_c, 0, 67, 91
2, 205182, Note_on_c, 0, 64, 96
2, 205273, Note_on_c, 0, 60, 82
2, 205305, Note_on_c, 0, 91, 111
2, 205342, Note_on_c, 0, 55, 88
2, 205389, Note_on_c, 0, 90, 102
2, 205428, Note_on_c, 0, 52, 53
2, 205489, Note_on_c, 0, 86, 88
2, 205489, Note_on_c, 0, 48, 85
2, 205533, Note_on_c, 0, 81, 86
2, 205629, Note_on_c, 0, 78, 89
2, 205639, Note_on_c, 0, 55, 0
2, 205650, Note_on_c, 0, 55, 77
2, 205712, Note_on_c, 0, 74, 94
2, 205785, Note_on_c, 0, 79, 0
2, 205789, Note_on_c, 0, 50, 92
2, 205794, Note_on_c, 0, 79, 101
2, 205797, Control_c, 0, 64, 0
2, 205800, Note_on_c, 0, 67, 0
2, 205801, Note_on_c, 0, 52, 0
2, 205801, Note_on_c, 0, 64, 0
2, 205801, Note_on_c, 0, 72, 0
2, 205802, Note_on_c, 0, 91, 0
2, 205803, Note_on_c, 0, 60, 0
2, 205803, Note_on_c, 0, 86, 0
2, 205803, Note_on_c, 0, 74, 0
2, 205803, Note_on_c, 0, 78, 0
2, 205803, Note_on_c, 0, 90, 0
2, 205803, Note_on_c, 0, 81, 0
2, 205804, Note_on_c, 0, 55, 0
2, 205824, Note_on_c, 0, 48, 0
2, 205874, Note_on_c, 0, 78, 95
2, 205874, Note_on_c, 0, 57, 93
2, 205893, Control_c, 0, 64, 127
2, 205956, Note_on_c, 0, 62, 86
2, 205960, Note_on_c, 0, 74, 91
2, 206040, Note_on_c, 0, 69, 91
2, 206042, Note_on_c, 0, 64, 91
2, 206115, Note_on_c, 0, 66, 86
2, 206200, Note_on_c, 0, 69, 0
2, 206205, Note_on_c, 0, 69, 95
2, 206277, Note_on_c, 0, 62, 0
2, 206277, Note_on_c, 0, 74, 0
2, 206281, Note_on_c, 0, 62, 101
2, 206283, Note_on_c, 0, 74, 93
2, 206346, Note_on_c, 0, 78, 0
2, 206350, Note_on_c, 0, 78, 95
2, 206415, Note_on_c, 0, 57, 0
2, 206421, Note_on_c, 0, 57, 95
2, 206424, Note_on_c, 0, 81, 93
2, 206507, Note_on_c, 0, 86, 94
2, 206561, Note_on_c, 0, 50, 0
2, 206565, Note_on_c, 0, 50, 91
2, 206566, Note_on_c, 0, 90, 93
2, 206642, Note_on_c, 0, 93, 99
2, 206724, Note_on_c, 0, 98, 115
2, 206730, Note_on_c, 0, 86, 0
2, 206737, Note_on_c, 0, 50, 0
2, 206738, Note_on_c, 0, 86, 94
2, 206743, Note_on_c, 0, 50, 84
2, 206747, Note_on_c, 0, 38, 86
2, 206839, Note_on_c, 0, 74, 0
2, 206839, Note_on_c, 0, 93, 0
2, 206839, Note_on_c, 0, 98, 0
2, 206839, Note_on_c, 0, 78, 0
2, 206839, Note_on_c, 0, 86, 0
2, 206840, Note_on_c, 0, 62, 0
2, 206840, Note_on_c, 0, 81, 0
2, 206840, Note_on_c, 0, 69, 0
2, 206840, Note_on_c, 0, 50, 0
2, 206840, Note_on_c, 0, 90, 0
2, 206840, Note_on_c, 0, 38, 0
2, 206840, Note_on_c, 0, 57, 0
2, 206841, Note_on_c, 0, 64, 0
2, 206841, Note_on_c, 0, 66, 0
2, 206842, Control_c, 0, 64, 0
2, 206845, Note_on_c, 0, 79, 0
2, 206886, Note_on_c, 0, 78, 104
2, 206887, Note_on_c, 0, 66, 101
2, 206923, Note_on_c, 0, 66, 0
2, 206926, Note_on_c, 0, 78, 0
2, 207053, Note_on_c, 0, 79, 109
2, 207055, Note_on_c, 0, 74, 99
2, 207055, Note_on_c, 0, 67, 108
2, 207057, Note_on_c, 0, 71, 100
2, 207059, Note_on_c, 0, 45, 112
2, 207063, Note_on_c, 0, 33, 104
2, 207091, Control_c, 0, 64, 127
2, 207326, Note_on_c, 0, 64, 101
2, 207326, Note_on_c, 0, 76, 105
2, 207544, Note_on_c, 0, 71, 0
2, 207544, Note_on_c, 0, 76, 0
2, 207544, Note_on_c, 0, 79, 0
2, 207547, Note_on_c, 0, 83, 111
2, 207552, Note_on_c, 0, 33, 0
2, 207553, Note_on_c, 0, 71, 107
2, 207554, Note_on_c, 0, 76, 102
2, 207555, Note_on_c, 0, 79, 103
2, 207558, Note_on_c, 0, 33, 87
2, 207610, Note_on_c, 0, 33, 0
2, 207611, Note_on_c, 0, 74, 0
2, 207612, Note_on_c, 0, 67, 0
2, 207613, Control_c, 0, 64, 0
2, 207614, Note_on_c, 0, 45, 0
2, 207615, Note_on_c, 0, 64, 0
2, 207702, Note_on_c, 0, 47, 108
2, 207702, Note_on_c, 0, 35, 103
2, 207713, Control_c, 0, 64, 127
2, 207839, Note_on_c, 0, 81, 104
2, 207839, Note_on_c, 0, 69, 103
2, 207840, Note_on_c, 0, 74, 100
2, 207844, Note_on_c, 0, 78, 94
2, 207997, Note_on_c, 0, 69, 0
2, 207997, Note_on_c, 0, 78, 0
2, 207997, Note_on_c, 0, 81, 0
2, 208001, Note_on_c, 0, 81, 100
2, 208001, Note_on_c, 0, 69, 110
2, 208007, Note_on_c, 0, 78, 99
2, 208158, Note_on_c, 0, 74, 0
2, 208167, Note_on_c, 0, 74, 99
2, 208169, Note_on_c, 0, 86, 106
2, 208245, Control_c, 0, 64, 0
2, 208247, Note_on_c, 0, 74, 0
2, 208247, Note_on_c, 0, 81, 0
2, 208247, Note_on_c, 0, 86, 0
2, 208248, Note_on_c, 0, 78, 0
2, 208248, Note_on_c, 0, 83, 0
2, 208248, Note_on_c, 0, 69, 0
2, 208248, Note_on_c, 0, 35, 0
2, 208248, Note_on_c, 0, 47, 0
2, 208258, Note_on_c, 0, 71, 0
2, 208258, Note_on_c, 0, 76, 0
2, 208258, Note_on_c, 0, 79, 0
2, 208330, Note_on_c, 0, 83, 110
2, 208333, Note_on_c, 0, 71, 105
2, 208334, Note_on_c, 0, 79, 97
2, 208337, Note_on_c, 0, 48, 111
2, 208337, Note_on_c, 0, 76, 102
2, 208340, Note_on_c, 0, 36, 104
2, 208358, Control_c, 0, 64, 127
2, 208655, Note_on_c, 0, 52, 91
2, 208655, Note_on_c, 0, 59, 111
2, 208657, Note_on_c, 0, 55, 89
2, 208665, Note_on_c, 0, 48, 0
2, 208670, Note_on_c, 0, 48, 67
2, 208796, Note_on_c, 0, 48, 0
2, 208805, Note_on_c, 0, 48, 87
2, 208880, Note_on_c, 0, 55, 0
2, 208888, Note_on_c, 0, 59, 0
2, 208891, Note_on_c, 0, 55, 96
2, 208892, Note_on_c, 0, 59, 101
2, 208967, Note_on_c, 0, 64, 109
2, 209118, Note_on_c, 0, 48, 0
2, 209125, Note_on_c, 0, 48, 97
2, 209203, Note_on_c, 0, 52, 0
2, 209203, Note_on_c, 0, 64, 0
2, 209208, Note_on_c, 0, 64, 95
2, 209208, Note_on_c, 0, 67, 100
2, 209214, Note_on_c, 0, 52, 73
2, 209295, Note_on_c, 0, 55, 0
2, 209295, Note_on_c, 0, 59, 0
2, 209299, Note_on_c, 0, 55, 93
2, 209299, Note_on_c, 0, 59, 109
2, 209433, Note_on_c, 0, 48, 0
2, 209433, Note_on_c, 0, 71, 0
2, 209437, Note_on_c, 0, 48, 100
2, 209440, Note_on_c, 0, 71, 106
2, 209544, Note_on_c, 0, 64, 0
2, 209545, Note_on_c, 0, 48, 0
2, 209545, Note_on_c, 0, 52, 0
2, 209545, Note_on_c, 0, 59, 0
2, 209545, Note_on_c, 0, 55, 0
2, 209545, Note_on_c, 0, 67, 0
2, 209545, Note_on_c, 0, 76, 0
2, 209545, Note_on_c, 0, 71, 0
2, 209545, Note_on_c, 0, 83, 0
2, 209546, Control_c, 0, 64, 0
2, 209546, Note_on_c, 0, 79, 0
2, 209547, Note_on_c, 0, 36, 0
2, 209607, Note_on_c, 0, 74, 109
2, 209608, Note_on_c, 0, 50, 107
2, 209609, Note_on_c, 0, 67, 94
2, 209610, Note_on_c, 0, 62, 107
2, 209613, Note_on_c, 0, 38, 102
2, 209620, Note_on_c, 0, 69, 93
2, 209640, Control_c, 0, 64, 127
2, 209687, Note_on_c, 0, 62, 0
2, 209687, Note_on_c, 0, 69, 0
2, 209690, Note_on_c, 0, 69, 86
2, 209691, Note_on_c, 0, 62, 96
2, 209703, Control_c, 0, 64, 0
2, 209710, Note_on_c, 0, 67, 0
2, 209711, Note_on_c, 0, 38, 0
2, 209712, Note_on_c, 0, 74, 0
2, 209725, Note_on_c, 0, 50, 0
2, 209733, Note_on_c, 0, 62, 0
2, 209740, Note_on_c, 0, 69, 0
2, 209770, Note_on_c, 0, 62, 101
2, 209770, Note_on_c, 0, 74, 99
2, 209772, Note_on_c, 0, 69, 92
2, 209773, Note_on_c, 0, 66, 108
2, 209779, Control_c, 0, 64, 127
2, 209784, Note_on_c, 0, 38, 88
2, 209785, Note_on_c, 0, 33, 79
2, 209789, Note_on_c, 0, 26, 92
2, 209840, Note_on_c, 0, 33, 0
2, 209867, Control_c, 0, 64, 0
2, 209873, Note_on_c, 0, 38, 0
2, 209874, Note_on_c, 0, 66, 0
2, 209874, Note_on_c, 0, 26, 0
2, 209875, Note_on_c, 0, 62, 0
2, 210132, Note_on_c, 0, 74, 0
2, 210232, Note_on_c, 0, 69, 0
2, 210250, Note_on_c, 0, 83, 114
2, 210252, Note_on_c, 0, 74, 108
2, 210253, Note_on_c, 0, 71, 111
2, 210255, Note_on_c, 0, 78, 111
2, 210316, Control_c, 0, 64, 127
2, 210391, Note_on_c, 0, 50, 106
2, 210466, Note_on_c, 0, 57, 94
2, 210469, Note_on_c, 0, 62, 100
2, 210471, Note_on_c, 0, 54, 83
2, 210554, Note_on_c, 0, 74, 0
2, 210554, Note_on_c, 0, 78, 0
2, 210558, Note_on_c, 0, 86, 114
2, 210559, Note_on_c, 0, 74, 110
2, 210561, Note_on_c, 0, 78, 111
2, 210700, Note_on_c, 0, 50, 0
2, 210709, Note_on_c, 0, 50, 107
2, 210710, Note_on_c, 0, 38, 107
2, 210719, Control_c, 0, 64, 0
2, 210721, Note_on_c, 0, 86, 0
2, 210721, Note_on_c, 0, 54, 0
2, 210722, Note_on_c, 0, 62, 0
2, 210722, Note_on_c, 0, 57, 0
2, 210722, Note_on_c, 0, 74, 0
2, 210723, Note_on_c, 0, 83, 0
2, 210724, Note_on_c, 0, 78, 0
2, 210731, Note_on_c, 0, 71, 0
2, 210752, Note_on_c, 0, 38, 0
2, 210754, Note_on_c, 0, 50, 0
2, 210881, Note_on_c, 0, 88, 112
2, 210881, Note_on_c, 0, 83, 105
2, 210881, Note_on_c, 0, 79, 110
2, 210882, Note_on_c, 0, 76, 117
2, 210887, Note_on_c, 0, 28, 109
2, 210888, Note_on_c, 0, 40, 110
2, 210900, Control_c, 0, 64, 127
2, 211129, Note_on_c, 0, 62, 90
2, 211135, Note_on_c, 0, 54, 61
2, 211141, Note_on_c, 0, 66, 70
2, 211146, Note_on_c, 0, 66, 0
2, 211283, Note_on_c, 0, 52, 86
2, 211379, Note_on_c, 0, 67, 104
2, 211382, Note_on_c, 0, 64, 104
2, 211389, Note_on_c, 0, 55, 101
2, 211389, Note_on_c, 0, 59, 107
2, 211699, Note_on_c, 0, 40, 0
2, 211699, Note_on_c, 0, 64, 0
2, 211703, Note_on_c, 0, 40, 92
2, 211703, Note_on_c, 0, 64, 96
2, 211852, Note_on_c, 0, 52, 0
2, 211857, Note_on_c, 0, 52, 95
2, 211863, Note_on_c, 0, 66, 97
2, 211991, Note_on_c, 0, 67, 0
2, 211996, Note_on_c, 0, 67, 98
2, 212004, Note_on_c, 0, 47, 98
2, 212128, Control_c, 0, 64, 0
2, 212133, Note_on_c, 0, 62, 0
2, 212133, Note_on_c, 0, 67, 0
2, 212134, Note_on_c, 0, 47, 0
2, 212134, Note_on_c, 0, 83, 0
2, 212134, Note_on_c, 0, 59, 0
2, 212134, Note_on_c, 0, 64, 0
2, 212134, Note_on_c, 0, 55, 0
2, 212134, Note_on_c, 0, 40, 0
2, 212134, Note_on_c, 0, 52, 0
2, 212135, Note_on_c, 0, 79, 0
2, 212135, Note_on_c, 0, 66, 0
2, 212144, Note_on_c, 0, 28, 0
2, 212152, Note_on_c, 0, 54, 0
2, 212160, Note_on_c, 0, 76, 0
2, 212160, Note_on_c, 0, 88, 0
2, 212171, Note_on_c, 0, 88, 112
2, 212171, Note_on_c, 0, 76, 115
2, 212171, Note_on_c, 0, 79, 106
2, 212171, Note_on_c, 0, 48, 113
2, 212172, Note_on_c, 0, 36, 106
2, 212221, Control_c, 0, 64, 127
2, 212411, Note_on_c, 0, 66, 101
2, 212417, Note_on_c, 0, 62, 99
2, 212536, Note_on_c, 0, 48, 0
2, 212545, Note_on_c, 0, 48, 87
2, 212647, Note_on_c, 0, 60, 103
2, 212649, Note_on_c, 0, 67, 107
2, 212649, Note_on_c, 0, 52, 91
2, 212650, Note_on_c, 0, 64, 104
2, 212651, Note_on_c, 0, 55, 100
2, 212943, Note_on_c, 0, 64, 0
2, 212951, Note_on_c, 0, 48, 0
2, 212951, Note_on_c, 0, 55, 0
2, 212954, Note_on_c, 0, 64, 105
2, 212955, Note_on_c, 0, 55, 81
2, 212955, Note_on_c, 0, 48, 94
2, 212966, Note_on_c, 0, 67, 0
2, 212970, Note_on_c, 0, 67, 84
2, 213112, Note_on_c, 0, 55, 0
2, 213120, Note_on_c, 0, 66, 0
2, 213121, Note_on_c, 0, 55, 103
2, 213126, Note_on_c, 0, 66, 103
2, 213265, Note_on_c, 0, 67, 0
2, 213276, Note_on_c, 0, 67, 95
2, 213277, Note_on_c, 0, 64, 0
2, 213281, Note_on_c, 0, 52, 0
2, 213285, Note_on_c, 0, 52, 78
2, 213392, Control_c, 0, 64, 0
2, 213393, Note_on_c, 0, 48, 0
2, 213393, Note_on_c, 0, 67, 0
2, 213393, Note_on_c, 0, 66, 0
2, 213393, Note_on_c, 0, 62, 0
2, 213393, Note_on_c, 0, 52, 0
2, 213393, Note_on_c, 0, 55, 0
2, 213393, Note_on_c, 0, 60, 0
2, 213394, Note_on_c, 0, 76, 0
2, 213394, Note_on_c, 0, 79, 0
2, 213411, Note_on_c, 0, 36, 0
2, 213411, Note_on_c, 0, 88, 0
2, 213430, Note_on_c, 0, 86, 111
2, 213436, Note_on_c, 0, 74, 112
2, 213444, Note_on_c, 0, 83, 100
2, 213445, Note_on_c, 0, 79, 101
2, 213446, Note_on_c, 0, 43, 110
2, 213448, Note_on_c, 0, 31, 104
2, 213480, Control_c, 0, 64, 127
2, 213680, Note_on_c, 0, 66, 97
2, 213681, Note_on_c, 0, 62, 89
2, 213686, Note_on_c, 0, 60, 60
2, 213696, Note_on_c, 0, 60, 0
2, 213803, Note_on_c, 0, 43, 0
2, 213809, Note_on_c, 0, 43, 90
2, 213936, Note_on_c, 0, 64, 106
2, 213938, Note_on_c, 0, 67, 105
2, 213944, Note_on_c, 0, 59, 104
2, 213954, Note_on_c, 0, 50, 79
2, 214103, Note_on_c, 0, 43, 0
2, 214113, Note_on_c, 0, 43, 60
2, 214248, Note_on_c, 0, 31, 0
2, 214248, Note_on_c, 0, 43, 0
2, 214248, Note_on_c, 0, 64, 0
2, 214256, Note_on_c, 0, 31, 82
2, 214258, Note_on_c, 0, 64, 100
2, 214258, Note_on_c, 0, 43, 92
2, 214410, Note_on_c, 0, 43, 0
2, 214410, Note_on_c, 0, 66, 0
2, 214413, Note_on_c, 0, 55, 94
2, 214417, Note_on_c, 0, 66, 79
2, 214421, Note_on_c, 0, 43, 90
2, 214556, Note_on_c, 0, 67, 0
2, 214564, Note_on_c, 0, 67, 93
2, 214579, Note_on_c, 0, 50, 0
2, 214583, Note_on_c, 0, 50, 76
2, 214681, Control_c, 0, 64, 0
2, 214681, Note_on_c, 0, 86, 0
2, 214681, Note_on_c, 0, 83, 0
2, 214681, Note_on_c, 0, 62, 0
2, 214682, Note_on_c, 0, 50, 0
2, 214682, Note_on_c, 0, 74, 0
2, 214682, Note_on_c, 0, 59, 0
2, 214682, Note_on_c, 0, 31, 0
2, 214682, Note_on_c, 0, 67, 0
2, 214682, Note_on_c, 0, 79, 0
2, 214682, Note_on_c, 0, 66, 0
2, 214682, Note_on_c, 0, 64, 0
2, 214682, Note_on_c, 0, 43, 0
2, 214694, Note_on_c, 0, 55, 0
2, 214730, Note_on_c, 0, 78, 108
2, 214735, Note_on_c, 0, 50, 103
2, 214736, Note_on_c, 0, 69, 94
2, 214737, Note_on_c, 0, 38, 98
2, 214740, Note_on_c, 0, 66, 98
2, 214771, Control_c, 0, 64, 127
2, 214906, Note_on_c, 0, 45, 88
2, 214992, Note_on_c, 0, 74, 108
2, 214996, Note_on_c, 0, 62, 96
2, 215063, Note_on_c, 0, 38, 0
2, 215072, Note_on_c, 0, 38, 99
2, 215201, Note_on_c, 0, 50, 0
2, 215201, Note_on_c, 0, 78, 0
2, 215208, Note_on_c, 0, 66, 0
2, 215211, Note_on_c, 0, 78, 114
2, 215212, Note_on_c, 0, 50, 101
2, 215215, Note_on_c, 0, 66, 108
2, 215331, Note_on_c, 0, 62, 0
2, 215331, Note_on_c, 0, 45, 0
2, 215331, Note_on_c, 0, 69, 0
2, 215332, Note_on_c, 0, 38, 0
2, 215332, Note_on_c, 0, 74, 0
2, 215332, Note_on_c, 0, 66, 0
2, 215332, Note_on_c, 0, 50, 0
2, 215333, Note_on_c, 0, 78, 0
2, 215333, Control_c, 0, 64, 0
2, 215387, Note_on_c, 0, 51, 112
2, 215388, Note_on_c, 0, 83, 110
2, 215389, Note_on_c, 0, 71, 109
2, 215391, Note_on_c, 0, 39, 107
2, 215416, Control_c, 0, 64, 127
2, 215627, Note_on_c, 0, 87, 111
2, 215627, Note_on_c, 0, 75, 113
2, 215713, Note_on_c, 0, 47, 112
2, 215715, Note_on_c, 0, 35, 104
2, 215864, Note_on_c, 0, 90, 116
2, 215866, Note_on_c, 0, 78, 113
2, 216002, Note_on_c, 0, 87, 0
2, 216002, Note_on_c, 0, 90, 0
2, 216003, Note_on_c, 0, 83, 0
2, 216003, Note_on_c, 0, 47, 0
2, 216003, Control_c, 0, 64, 0
2, 216003, Note_on_c, 0, 75, 0
2, 216003, Note_on_c, 0, 78, 0
2, 216004, Note_on_c, 0, 35, 0
2, 216004, Note_on_c, 0, 39, 0
2, 216007, Note_on_c, 0, 51, 0
2, 216007, Note_on_c, 0, 71, 0
2, 216042, Note_on_c, 0, 91, 120
2, 216042, Note_on_c, 0, 40, 106
2, 216044, Note_on_c, 0, 83, 110
2, 216044, Note_on_c, 0, 79, 112
2, 216076, Control_c, 0, 64, 127
2, 216148, Note_on_c, 0, 47, 67
2, 216235, Note_on_c, 0, 52, 69
2, 216295, Note_on_c, 0, 90, 106
2, 216302, Note_on_c, 0, 78, 108
2, 216322, Note_on_c, 0, 54, 93
2, 216421, Note_on_c, 0, 55, 88
2, 216479, Note_on_c, 0, 59, 96
2, 216547, Note_on_c, 0, 54, 0
2, 216548, Note_on_c, 0, 55, 0
2, 216548, Note_on_c, 0, 78, 0
2, 216548, Control_c, 0, 64, 0
2, 216549, Note_on_c, 0, 59, 0
2, 216552, Note_on_c, 0, 40, 0
2, 216552, Note_on_c, 0, 91, 0
2, 216560, Note_on_c, 0, 52, 0
2, 216560, Note_on_c, 0, 79, 0
2, 216560, Note_on_c, 0, 83, 0
2, 216561, Note_on_c, 0, 91, 118
2, 216564, Note_on_c, 0, 52, 93
2, 216565, Note_on_c, 0, 83, 102
2, 216566, Note_on_c, 0, 79, 107
2, 216566, Note_on_c, 0, 64, 103
2, 216583, Control_c, 0, 64, 127
2, 216643, Note_on_c, 0, 59, 96
2, 216718, Note_on_c, 0, 55, 84
2, 216788, Note_on_c, 0, 54, 60
2, 216837, Note_on_c, 0, 52, 0
2, 216842, Note_on_c, 0, 52, 80
2, 216873, Note_on_c, 0, 88, 102
2, 216877, Note_on_c, 0, 76, 107
2, 216913, Note_on_c, 0, 47, 0
2, 216919, Note_on_c, 0, 47, 97
2, 217029, Note_on_c, 0, 90, 0
2, 217031, Note_on_c, 0, 40, 83
2, 217037, Note_on_c, 0, 90, 115
2, 217041, Note_on_c, 0, 78, 109
2, 217182, Note_on_c, 0, 47, 0
2, 217182, Note_on_c, 0, 79, 0
2, 217182, Note_on_c, 0, 91, 0
2, 217187, Note_on_c, 0, 91, 113
2, 217188, Note_on_c, 0, 47, 93
2, 217193, Note_on_c, 0, 79, 104
2, 217282, Note_on_c, 0, 43, 68
2, 217300, Control_c, 0, 64, 0
2, 217302, Note_on_c, 0, 90, 0
2, 217302, Note_on_c, 0, 78, 0
2, 217302, Note_on_c, 0, 79, 0
2, 217302, Note_on_c, 0, 47, 0
2, 217303, Note_on_c, 0, 59, 0
2, 217303, Note_on_c, 0, 83, 0
2, 217304, Note_on_c, 0, 52, 0
2, 217304, Note_on_c, 0, 88, 0
2, 217305, Note_on_c, 0, 55, 0
2, 217305, Note_on_c, 0, 76, 0
2, 217306, Note_on_c, 0, 40, 0
2, 217313, Note_on_c, 0, 54, 0
2, 217313, Note_on_c, 0, 64, 0
2, 217320, Note_on_c, 0, 43, 0
2, 217336, Note_on_c, 0, 91, 0
2, 217346, Note_on_c, 0, 91, 118
2, 217347, Note_on_c, 0, 84, 105
2, 217348, Note_on_c, 0, 36, 106
2, 217348, Note_on_c, 0, 79, 110
2, 217350, Note_on_c, 0, 88, 100
2, 217382, Control_c, 0, 64, 127
2, 217447, Note_on_c, 0, 43, 81
2, 217531, Note_on_c, 0, 48, 76
2, 217599, Note_on_c, 0, 90, 110
2, 217600, Note_on_c, 0, 78, 109
2, 217605, Note_on_c, 0, 50, 94
2, 217686, Note_on_c, 0, 52, 63
2, 217761, Note_on_c, 0, 55, 72
2, 217835, Note_on_c, 0, 91, 0
2, 217843, Note_on_c, 0, 79, 0
2, 217843, Note_on_c, 0, 84, 0
2, 217843, Note_on_c, 0, 88, 0
2, 217845, Note_on_c, 0, 91, 117
2, 217847, Note_on_c, 0, 84, 101
2, 217849, Note_on_c, 0, 60, 103
2, 217852, Note_on_c, 0, 88, 93
2, 217853, Note_on_c, 0, 79, 104
2, 217920, Note_on_c, 0, 55, 0
2, 217929, Note_on_c, 0, 55, 98
2, 217989, Note_on_c, 0, 52, 0
2, 217998, Note_on_c, 0, 52, 94
2, 218035, Note_on_c, 0, 50, 0
2, 218046, Note_on_c, 0, 50, 79
2, 218104, Note_on_c, 0, 48, 0
2, 218109, Note_on_c, 0, 48, 94
2, 218142, Note_on_c, 0, 88, 0
2, 218149, Note_on_c, 0, 76, 105
2, 218151, Note_on_c, 0, 88, 96
2, 218176, Note_on_c, 0, 86, 73
2, 218181, Note_on_c, 0, 43, 0
2, 218192, Note_on_c, 0, 43, 89
2, 218304, Note_on_c, 0, 36, 0
2, 218308, Note_on_c, 0, 36, 96
2, 218311, Note_on_c, 0, 78, 0
2, 218311, Note_on_c, 0, 90, 0
2, 218317, Note_on_c, 0, 90, 113
2, 218322, Note_on_c, 0, 78, 110
2, 218465, Note_on_c, 0, 43, 0
2, 218465, Note_on_c, 0, 91, 0
2, 218472, Note_on_c, 0, 79, 0
2, 218473, Note_on_c, 0, 43, 92
2, 218476, Note_on_c, 0, 91, 113
2, 218482, Note_on_c, 0, 79, 106
2, 218591, Control_c, 0, 64, 0
2, 218594, Note_on_c, 0, 84, 0
2, 218594, Note_on_c, 0, 90, 0
2, 218594, Note_on_c, 0, 86, 0
2, 218595, Note_on_c, 0, 36, 0
2, 218596, Note_on_c, 0, 60, 0
2, 218596, Note_on_c, 0, 79, 0
2, 218597, Note_on_c, 0, 88, 0
2, 218597, Note_on_c, 0, 76, 0
2, 218603, Note_on_c, 0, 52, 0
2, 218611, Note_on_c, 0, 48, 0
2, 218611, Note_on_c, 0, 50, 0
2, 218611, Note_on_c, 0, 55, 0
2, 218611, Note_on_c, 0, 78, 0
2, 218618, Note_on_c, 0, 43, 0
2, 218618, Note_on_c, 0, 91, 0
2, 218629, Note_on_c, 0, 43, 108
2, 218629, Note_on_c, 0, 91, 117
2, 218630, Note_on_c, 0, 83, 104
2, 218636, Note_on_c, 0, 79, 111
2, 218637, Note_on_c, 0, 86, 100
2, 218672, Control_c, 0, 64, 127
2, 218718, Note_on_c, 0, 50, 78
2, 218806, Note_on_c, 0, 55, 86
2, 218875, Note_on_c, 0, 90, 105
2, 218875, Note_on_c, 0, 78, 111
2, 218891, Note_on_c, 0, 57, 101
2, 218992, Note_on_c, 0, 59, 86
2, 219045, Note_on_c, 0, 62, 94
2, 219125, Note_on_c, 0, 79, 0
2, 219125, Note_on_c, 0, 83, 0
2, 219125, Note_on_c, 0, 86, 0
2, 219125, Note_on_c, 0, 91, 0
2, 219133, Note_on_c, 0, 91, 117
2, 219133, Note_on_c, 0, 86, 100
2, 219136, Note_on_c, 0, 83, 101
2, 219137, Note_on_c, 0, 79, 108
2, 219144, Note_on_c, 0, 67, 105
2, 219202, Note_on_c, 0, 62, 0
2, 219206, Note_on_c, 0, 62, 95
2, 219287, Note_on_c, 0, 59, 0
2, 219295, Note_on_c, 0, 59, 95
2, 219333, Note_on_c, 0, 57, 0
2, 219342, Note_on_c, 0, 57, 89
2, 219394, Note_on_c, 0, 55, 0
2, 219404, Note_on_c, 0, 55, 92
2, 219435, Note_on_c, 0, 88, 108
2, 219436, Note_on_c, 0, 76, 105
2, 219479, Note_on_c, 0, 50, 0
2, 219487, Note_on_c, 0, 50, 96
2, 219594, Note_on_c, 0, 78, 0
2, 219594, Note_on_c, 0, 90, 0
2, 219601, Note_on_c, 0, 43, 0
2, 219602, Note_on_c, 0, 90, 114
2, 219603, Note_on_c, 0, 78, 113
2, 219608, Note_on_c, 0, 43, 109
2, 219747, Note_on_c, 0, 50, 0
2, 219747, Note_on_c, 0, 79, 0
2, 219747, Note_on_c, 0, 91, 0
2, 219752, Note_on_c, 0, 91, 115
2, 219758, Note_on_c, 0, 50, 104
2, 219758, Note_on_c, 0, 79, 108
2, 219848, Control_c, 0, 64, 0
2, 219851, Note_on_c, 0, 86, 0
2, 219851, Note_on_c, 0, 62, 0
2, 219851, Note_on_c, 0, 50, 0
2, 219851, Note_on_c, 0, 67, 0
2, 219852, Note_on_c, 0, 91, 0
2, 219852, Note_on_c, 0, 78, 0
2, 219852, Note_on_c, 0, 43, 0
2, 219852, Note_on_c, 0, 88, 0
2, 219855, Note_on_c, 0, 76, 0
2, 219863, Note_on_c, 0, 57, 0
2, 219863, Note_on_c, 0, 59, 0
2, 219863, Note_on_c, 0, 83, 0
2, 219870, Note_on_c, 0, 55, 0
2, 219870, Note_on_c, 0, 79, 0
2, 219878, Note_on_c, 0, 90, 0
2, 219900, Note_on_c, 0, 95, 119
2, 219903, Note_on_c, 0, 83, 116
2, 219904, Note_on_c, 0, 38, 100
2, 219916, Control_c, 0, 64, 127
2, 219993, Note_on_c, 0, 45, 96
2, 220066, Note_on_c, 0, 50, 85
2, 220150, Note_on_c, 0, 96, 114
2, 220150, Note_on_c, 0, 84, 111
2, 220160, Note_on_c, 0, 54, 92
2, 220243, Note_on_c, 0, 57, 95
2, 220335, Note_on_c, 0, 62, 80
2, 220408, Note_on_c, 0, 93, 115
2, 220410, Note_on_c, 0, 81, 107
2, 220411, Note_on_c, 0, 90, 103
2, 220411, Note_on_c, 0, 86, 103
2, 220412, Note_on_c, 0, 66, 98
2, 220492, Note_on_c, 0, 62, 0
2, 220496, Note_on_c, 0, 62, 91
2, 220584, Note_on_c, 0, 57, 0
2, 220589, Note_on_c, 0, 57, 92
2, 220623, Note_on_c, 0, 54, 0
2, 220628, Note_on_c, 0, 54, 89
2, 220707, Note_on_c, 0, 50, 0
2, 220709, Note_on_c, 0, 91, 114
2, 220711, Note_on_c, 0, 79, 105
2, 220719, Note_on_c, 0, 50, 104
2, 220861, Note_on_c, 0, 38, 0
2, 220861, Note_on_c, 0, 50, 0
2, 220861, Note_on_c, 0, 90, 0
2, 220866, Note_on_c, 0, 90, 111
2, 220866, Note_on_c, 0, 50, 90
2, 220870, Note_on_c, 0, 78, 106
2, 220871, Note_on_c, 0, 38, 92
2, 220885, Note_on_c, 0, 80, 79
2, 220945, Note_on_c, 0, 54, 0
2, 220957, Note_on_c, 0, 54, 75
2, 221038, Note_on_c, 0, 45, 0
2, 221042, Note_on_c, 0, 76, 86
2, 221043, Note_on_c, 0, 45, 78
2, 221084, Note_on_c, 0, 78, 0
2, 221088, Note_on_c, 0, 78, 98
2, 221109, Note_on_c, 0, 52, 54
2, 221114, Note_on_c, 0, 52, 0
2, 221132, Control_c, 0, 64, 0
2, 221133, Note_on_c, 0, 95, 0
2, 221133, Note_on_c, 0, 62, 0
2, 221133, Note_on_c, 0, 91, 0
2, 221133, Note_on_c, 0, 79, 0
2, 221133, Note_on_c, 0, 96, 0
2, 221133, Note_on_c, 0, 83, 0
2, 221133, Note_on_c, 0, 54, 0
2, 221133, Note_on_c, 0, 45, 0
2, 221133, Note_on_c, 0, 50, 0
2, 221133, Note_on_c, 0, 57, 0
2, 221133, Note_on_c, 0, 81, 0
2, 221133, Note_on_c, 0, 93, 0
2, 221134, Note_on_c, 0, 78, 0
2, 221134, Note_on_c, 0, 90, 0
2, 221134, Note_on_c, 0, 38, 0
2, 221134, Note_on_c, 0, 84, 0
2, 221145, Note_on_c, 0, 76, 0
2, 221145, Note_on_c, 0, 80, 0
2, 221145, Note_on_c, 0, 86, 0
2, 221153, Note_on_c, 0, 66, 0
2, 221188, Note_on_c, 0, 88, 110
2, 221193, Note_on_c, 0, 52, 105
2, 221195, Note_on_c, 0, 40, 96
2, 221195, Note_on_c, 0, 76, 110
2, 221195, Note_on_c, 0, 83, 96
2, 221195, Note_on_c, 0, 47, 99
2, 221198, Note_on_c, 0, 78, 103
2, 221214, Control_c, 0, 64, 127
2, 221276, Note_on_c, 0, 40, 0
2, 221296, Control_c, 0, 64, 0
2, 221309, Note_on_c, 0, 47, 0
2, 221314, Note_on_c, 0, 52, 0
2, 221442, Note_on_c, 0, 47, 104
2, 221443, Note_on_c, 0, 35, 100
2, 221496, Note_on_c, 0, 47, 0
2, 221560, Note_on_c, 0, 35, 0
2, 221679, Note_on_c, 0, 50, 106
2, 221680, Note_on_c, 0, 38, 101
2, 221698, Control_c, 0, 64, 127
2, 221979, Note_on_c, 0, 45, 103
2, 221980, Note_on_c, 0, 33, 99
2, 222108, Note_on_c, 0, 50, 0
2, 222109, Note_on_c, 0, 33, 0
2, 222109, Note_on_c, 0, 38, 0
2, 222110, Note_on_c, 0, 45, 0
2, 222110, Control_c, 0, 64, 0
2, 222146, Note_on_c, 0, 36, 99
2, 222146, Note_on_c, 0, 48, 106
2, 222174, Control_c, 0, 64, 127
2, 222190, Note_on_c, 0, 88, 0
2, 222294, Note_on_c, 0, 43, 91
2, 222301, Note_on_c, 0, 55, 84
2, 222312, Note_on_c, 0, 55, 0
2, 222312, Note_on_c, 0, 76, 0
2, 222317, Note_on_c, 0, 76, 87
2, 222358, Control_c, 0, 64, 0
2, 222358, Note_on_c, 0, 43, 0
2, 222359, Note_on_c, 0, 78, 0
2, 222359, Note_on_c, 0, 48, 0
2, 222360, Note_on_c, 0, 36, 0
2, 222364, Note_on_c, 0, 78, 96
2, 222364, Note_on_c, 0, 76, 0
2, 222389, Note_on_c, 0, 83, 0
2, 222449, Note_on_c, 0, 88, 105
2, 222451, Note_on_c, 0, 83, 97
2, 222454, Note_on_c, 0, 76, 110
2, 222462, Note_on_c, 0, 40, 105
2, 222462, Note_on_c, 0, 52, 107
2, 222474, Control_c, 0, 64, 127
2, 222497, Note_on_c, 0, 78, 0
2, 222658, Note_on_c, 0, 88, 0
2, 222665, Note_on_c, 0, 83, 0
2, 222665, Note_on_c, 0, 40, 0
2, 222665, Note_on_c, 0, 76, 0
2, 222670, Control_c, 0, 64, 0
2, 222673, Note_on_c, 0, 52, 0
2, 222713, Note_on_c, 0, 47, 106
2, 222714, Note_on_c, 0, 59, 104
2, 222714, Note_on_c, 0, 35, 102
2, 222759, Note_on_c, 0, 59, 0
2, 222765, Note_on_c, 0, 47, 0
2, 222812, Note_on_c, 0, 35, 0
2, 222954, Note_on_c, 0, 62, 107
2, 222961, Note_on_c, 0, 50, 105
2, 222962, Note_on_c, 0, 38, 100
2, 222988, Control_c, 0, 64, 127
2, 223262, Note_on_c, 0, 45, 107
2, 223264, Note_on_c, 0, 33, 104
2, 223268, Note_on_c, 0, 57, 97
2, 223353, Control_c, 0, 64, 0
2, 223353, Note_on_c, 0, 62, 0
2, 223353, Note_on_c, 0, 57, 0
2, 223353, Note_on_c, 0, 45, 0
2, 223353, Note_on_c, 0, 50, 0
2, 223354, Note_on_c, 0, 33, 0
2, 223354, Note_on_c, 0, 38, 0
2, 223414, Note_on_c, 0, 60, 100
2, 223415, Note_on_c, 0, 48, 110
2, 223416, Note_on_c, 0, 36, 104
2, 223449, Control_c, 0, 64, 127
2, 223567, Note_on_c, 0, 76, 93
2, 223573, Note_on_c, 0, 43, 85
2, 223576, Note_on_c, 0, 55, 71
2, 223587, Note_on_c, 0, 55, 0
2, 223589, Note_on_c, 0, 62, 65
2, 223595, Note_on_c, 0, 62, 0
2, 223621, Note_on_c, 0, 78, 97
2, 223694, Note_on_c, 0, 43, 0
2, 223694, Control_c, 0, 64, 0
2, 223695, Note_on_c, 0, 76, 0
2, 223696, Note_on_c, 0, 78, 0
2, 223697, Note_on_c, 0, 36, 0
2, 223697, Note_on_c, 0, 48, 0
2, 223703, Note_on_c, 0, 60, 0
2, 223735, Note_on_c, 0, 88, 108
2, 223737, Note_on_c, 0, 76, 114
2, 223739, Note_on_c, 0, 83, 96
2, 223744, Note_on_c, 0, 52, 109
2, 223744, Note_on_c, 0, 40, 103
2, 223764, Control_c, 0, 64, 127
2, 223898, Control_c, 0, 64, 0
2, 223906, Note_on_c, 0, 52, 0
2, 223907, Note_on_c, 0, 76, 0
2, 223907, Note_on_c, 0, 83, 0
2, 223907, Note_on_c, 0, 88, 0
2, 223925, Note_on_c, 0, 40, 0
2, 223991, Note_on_c, 0, 47, 108
2, 223991, Note_on_c, 0, 83, 102
2, 223992, Note_on_c, 0, 71, 102
2, 223994, Note_on_c, 0, 35, 100
2, 223999, Note_on_c, 0, 77, 83
2, 224010, Control_c, 0, 64, 127
2, 224177, Note_on_c, 0, 71, 0
2, 224178, Control_c, 0, 64, 0
2, 224178, Note_on_c, 0, 77, 0
2, 224179, Note_on_c, 0, 83, 0
2, 224194, Note_on_c, 0, 47, 0
2, 224202, Note_on_c, 0, 35, 0
2, 224217, Note_on_c, 0, 74, 109
2, 224222, Note_on_c, 0, 78, 95
2, 224222, Note_on_c, 0, 86, 101
2, 224223, Note_on_c, 0, 50, 109
2, 224228, Note_on_c, 0, 38, 102
2, 224256, Control_c, 0, 64, 127
2, 224279, Note_on_c, 0, 74, 0
2, 224294, Note_on_c, 0, 78, 0
2, 224294, Note_on_c, 0, 86, 0
2, 224299, Note_on_c, 0, 78, 105
2, 224301, Note_on_c, 0, 74, 95
2, 224302, Note_on_c, 0, 86, 102
2, 224511, Note_on_c, 0, 81, 104
2, 224513, Note_on_c, 0, 69, 107
2, 224519, Note_on_c, 0, 45, 101
2, 224520, Note_on_c, 0, 33, 100
2, 224580, Note_on_c, 0, 78, 0
2, 224581, Note_on_c, 0, 86, 0
2, 224581, Note_on_c, 0, 81, 0
2, 224581, Note_on_c, 0, 69, 0
2, 224582, Note_on_c, 0, 45, 0
2, 224582, Note_on_c, 0, 50, 0
2, 224582, Control_c, 0, 64, 0
2, 224582, Note_on_c, 0, 74, 0
2, 224582, Note_on_c, 0, 38, 0
2, 224584, Note_on_c, 0, 33, 0
2, 224666, Note_on_c, 0, 72, 110
2, 224667, Note_on_c, 0, 84, 107
2, 224668, Note_on_c, 0, 76, 108
2, 224671, Note_on_c, 0, 48, 111
2, 224673, Note_on_c, 0, 36, 102
2, 224701, Control_c, 0, 64, 127
2, 224832, Note_on_c, 0, 43, 84
2, 224835, Note_on_c, 0, 55, 78
2, 224895, Note_on_c, 0, 78, 102
2, 224904, Control_c, 0, 64, 0
2, 224910, Note_on_c, 0, 72, 0
2, 224911, Note_on_c, 0, 84, 0
2, 224912, Note_on_c, 0, 48, 0
2, 224912, Note_on_c, 0, 76, 0
2, 224916, Note_on_c, 0, 43, 0
2, 224924, Note_on_c, 0, 55, 0
2, 224928, Note_on_c, 0, 78, 0
2, 224931, Note_on_c, 0, 36, 0
2, 224982, Note_on_c, 0, 78, 109
2, 224982, Note_on_c, 0, 86, 106
2, 224983, Note_on_c, 0, 74, 107
2, 224984, Note_on_c, 0, 81, 104
2, 224995, Note_on_c, 0, 50, 108
2, 224998, Note_on_c, 0, 38, 105
2, 225016, Control_c, 0, 64, 127
2, 225309, Note_on_c, 0, 57, 93
2, 225310, Note_on_c, 0, 62, 96
2, 225389, Note_on_c, 0, 54, 74
2, 225390, Note_on_c, 0, 66, 92
2, 225469, Note_on_c, 0, 50, 0
2, 225473, Note_on_c, 0, 50, 84
2, 225479, Note_on_c, 0, 69, 89
2, 225538, Note_on_c, 0, 74, 0
2, 225547, Note_on_c, 0, 45, 82
2, 225549, Note_on_c, 0, 74, 91
2, 225630, Note_on_c, 0, 54, 0
2, 225630, Note_on_c, 0, 66, 0
2, 225640, Note_on_c, 0, 66, 98
2, 225641, Note_on_c, 0, 54, 92
2, 225669, Note_on_c, 0, 45, 0
2, 225676, Note_on_c, 0, 50, 0
2, 225678, Note_on_c, 0, 45, 50
2, 225681, Note_on_c, 0, 50, 66
2, 225722, Note_on_c, 0, 69, 0
2, 225727, Note_on_c, 0, 69, 98
2, 225792, Note_on_c, 0, 74, 0
2, 225802, Note_on_c, 0, 74, 98
2, 225822, Note_on_c, 0, 45, 0
2, 225826, Note_on_c, 0, 45, 68
2, 225868, Note_on_c, 0, 78, 0
2, 225874, Note_on_c, 0, 78, 100
2, 225953, Note_on_c, 0, 50, 0
2, 225953, Note_on_c, 0, 69, 0
2, 225958, Note_on_c, 0, 69, 111
2, 225959, Note_on_c, 0, 50, 94
2, 225991, Note_on_c, 0, 45, 0
2, 226000, Note_on_c, 0, 45, 60
2, 226007, Note_on_c, 0, 74, 0
2, 226011, Note_on_c, 0, 74, 76
2, 226060, Note_on_c, 0, 78, 0
2, 226065, Note_on_c, 0, 78, 97
2, 226087, Note_on_c, 0, 42, 87
2, 226122, Note_on_c, 0, 81, 0
2, 226128, Note_on_c, 0, 81, 99
2, 226269, Note_on_c, 0, 42, 0
2, 226269, Note_on_c, 0, 38, 0
2, 226270, Note_on_c, 0, 69, 0
2, 226270, Note_on_c, 0, 45, 0
2, 226270, Note_on_c, 0, 50, 0
2, 226270, Note_on_c, 0, 81, 0
2, 226271, Note_on_c, 0, 57, 0
2, 226271, Note_on_c, 0, 62, 0
2, 226271, Note_on_c, 0, 78, 0
2, 226271, Note_on_c, 0, 74, 0
2, 226271, Control_c, 0, 64, 0
2, 226272, Note_on_c, 0, 86, 0
2, 226278, Note_on_c, 0, 52, 107
2, 226278, Note_on_c, 0, 88, 99
2, 226278, Note_on_c, 0, 76, 111
2, 226278, Note_on_c, 0, 40, 101
2, 226280, Note_on_c, 0, 83, 96
2, 226280, Note_on_c, 0, 47, 95
2, 226283, Note_on_c, 0, 66, 0
2, 226298, Note_on_c, 0, 54, 0
2, 226337, Note_on_c, 0, 76, 0
2, 226337, Control_c, 0, 64, 127
2, 226344, Note_on_c, 0, 83, 0
2, 226344, Note_on_c, 0, 88, 0
2, 226348, Note_on_c, 0, 76, 106
2, 226350, Note_on_c, 0, 88, 102
2, 226355, Note_on_c, 0, 83, 69
2, 226421, Note_on_c, 0, 76, 0
2, 226421, Note_on_c, 0, 83, 0
2, 226421, Note_on_c, 0, 88, 0
2, 226430, Note_on_c, 0, 88, 96
2, 226432, Note_on_c, 0, 76, 105
2, 226432, Note_on_c, 0, 83, 96
2, 226444, Note_on_c, 0, 40, 0
2, 226444, Note_on_c, 0, 47, 0
2, 226452, Note_on_c, 0, 52, 0
2, 226455, Note_on_c, 0, 40, 92
2, 226456, Note_on_c, 0, 47, 74
2, 226456, Note_on_c, 0, 52, 91
2, 226500, Control_c, 0, 64, 0
2, 226518, Note_on_c, 0, 52, 0
2, 226519, Note_on_c, 0, 47, 0
2, 226519, Note_on_c, 0, 88, 0
2, 226519, Note_on_c, 0, 40, 0
2, 226523, Note_on_c, 0, 76, 0
2, 226536, Note_on_c, 0, 83, 0
2, 226769, Note_on_c, 0, 100, 109
2, 226774, Note_on_c, 0, 88, 104
2, 226775, Note_on_c, 0, 95, 105
2, 226777, Note_on_c, 0, 76, 107
2, 226780, Note_on_c, 0, 64, 103
2, 226786, Note_on_c, 0, 71, 96
2, 226795, Note_on_c, 0, 74, 80
2, 226821, Note_on_c, 0, 88, 0
2, 226851, Note_on_c, 0, 100, 0
2, 226856, Note_on_c, 0, 100, 80
2, 226859, Note_on_c, 0, 74, 0
2, 226874, Note_on_c, 0, 76, 0
2, 226882, Note_on_c, 0, 71, 0
2, 226905, Note_on_c, 0, 95, 0
2, 226920, Note_on_c, 0, 100, 0
2, 226926, Note_on_c, 0, 100, 107
2, 226928, Control_c, 0, 64, 127
2, 226936, Note_on_c, 0, 64, 0
2, 226937, Note_on_c, 0, 76, 109
2, 226940, Note_on_c, 0, 64, 95
2, 226940, Note_on_c, 0, 71, 100
2, 226940, Note_on_c, 0, 88, 98
2, 227072, Control_c, 0, 64, 0
2, 227076, Note_on_c, 0, 76, 0
2, 227076, Note_on_c, 0, 71, 0
2, 227078, Note_on_c, 0, 100, 0
2, 227078, Note_on_c, 0, 64, 0
2, 227082, Note_on_c, 0, 88, 0
2, 227313, Note_on_c, 0, 64, 67
2, 227313, Note_on_c, 0, 71, 66
2, 227315, Note_on_c, 0, 76, 69
2, 227320, Note_on_c, 0, 76, 0
2, 227320, Control_c, 0, 64, 127
2, 227355, Note_on_c, 0, 40, 76
2, 227356, Note_on_c, 0, 28, 85
2, 227412, Note_on_c, 0, 40, 0
2, 227412, Note_on_c, 0, 71, 0
2, 227418, Note_on_c, 0, 40, 83
2, 227504, Note_on_c, 0, 40, 0
2, 227508, Note_on_c, 0, 52, 103
2, 227509, Note_on_c, 0, 47, 103
2, 227511, Note_on_c, 0, 40, 87
2, 227520, Note_on_c, 0, 64, 0
2, 229383, Note_on_c, 0, 45, 60
2, 229421, Note_on_c, 0, 43, 68
2, 229441, Note_on_c, 0, 31, 61
2, 229464, Note_on_c, 0, 41, 75
2, 229501, Note_on_c, 0, 40, 0
2, 229509, Note_on_c, 0, 40, 67
2, 229556, Note_on_c, 0, 38, 68
2, 229563, Note_on_c, 0, 36, 70
2, 229628, Note_on_c, 0, 35, 63
2, 229713, Note_on_c, 0, 40, 0
2, 229714, Note_on_c, 0, 45, 0
2, 229714, Note_on_c, 0, 47, 0
2, 229714, Note_on_c, 0, 36, 0
2, 229715, Note_on_c, 0, 38, 0
2, 229715, Note_on_c, 0, 43, 0
2, 229715, Note_on_c, 0, 31, 0
2, 229716, Note_on_c, 0, 52, 0
2, 229716, Note_on_c, 0, 41, 0
2, 229719, Note_on_c, 0, 35, 0
2, 229723, Control_c, 0, 64, 0
2, 229739, Note_on_c, 0, 28, 0
2, 229740, End_track
0, 0, End_of_file
