0, 0, Header, 1, 2, 384
1, 0, Start_track
1, 0, Tempo, 500000
1, 0, Time_signature, 4, 2, 24, 8
1, 1, End_track
2, 0, Start_track
2, 476, Control_c, 0, 64, 127
2, 893, Note_on_c, 0, 83, 102
2, 897, Note_on_c, 0, 79, 95
2, 913, Control_c, 0, 64, 0
2, 1006, Note_on_c, 0, 81, 95
2, 1026, Note_on_c, 0, 78, 92
2, 1031, Note_on_c, 0, 79, 0
2, 1038, Note_on_c, 0, 83, 0
2, 1127, Note_on_c, 0, 79, 99
2, 1132, Note_on_c, 0, 76, 97
2, 1145, Note_on_c, 0, 81, 0
2, 1158, Note_on_c, 0, 78, 0
2, 1239, Note_on_c, 0, 81, 96
2, 1240, Note_on_c, 0, 78, 96
2, 1255, Note_on_c, 0, 79, 0
2, 1256, Note_on_c, 0, 76, 0
2, 1351, Note_on_c, 0, 81, 0
2, 1370, Note_on_c, 0, 76, 99
2, 1374, Note_on_c, 0, 78, 0
2, 1378, Note_on_c, 0, 40, 78
2, 1379, Note_on_c, 0, 52, 74
2, 1466, Control_c, 0, 64, 127
2, 1474, Note_on_c, 0, 40, 0
2, 1635, Note_on_c, 0, 52, 0
2, 1646, Note_on_c, 0, 52, 58
2, 1854, Note_on_c, 0, 55, 75
2, 1855, Note_on_c, 0, 59, 76
2, 2113, Note_on_c, 0, 40, 48
2, 2190, Note_on_c, 0, 47, 69
2, 2292, Control_c, 0, 64, 0
2, 2296, Note_on_c, 0, 40, 0
2, 2296, Note_on_c, 0, 55, 0
2, 2297, Note_on_c, 0, 52, 0
2, 2297, Note_on_c, 0, 59, 0
2, 2298, Note_on_c, 0, 76, 0
2, 2299, Note_on_c, 0, 47, 0
2, 2337, Note_on_c, 0, 48, 78
2, 2338, Note_on_c, 0, 36, 75
2, 2391, Note_on_c, 0, 48, 0
2, 2411, Control_c, 0, 64, 127
2, 2465, Note_on_c, 0, 36, 0
2, 2583, Note_on_c, 0, 48, 75
2, 2815, Note_on_c, 0, 76, 97
2, 2816, Note_on_c, 0, 72, 93
2, 2818, Note_on_c, 0, 48, 0
2, 2821, Note_on_c, 0, 55, 71
2, 2824, Note_on_c, 0, 48, 63
2, 2829, Note_on_c, 0, 52, 67
2, 2930, Note_on_c, 0, 79, 94
2, 3025, Note_on_c, 0, 48, 0
2, 3035, Note_on_c, 0, 48, 59
2, 3036, Note_on_c, 0, 81, 99
2, 3137, Note_on_c, 0, 43, 73
2, 3147, Note_on_c, 0, 83, 95
2, 3209, Note_on_c, 0, 76, 0
2, 3210, Note_on_c, 0, 72, 0
2, 3211, Note_on_c, 0, 55, 0
2, 3211, Note_on_c, 0, 52, 0
2, 3211, Note_on_c, 0, 81, 0
2, 3212, Note_on_c, 0, 43, 0
2, 3212, Note_on_c, 0, 48, 0
2, 3212, Note_on_c, 0, 79, 0
2, 3212, Control_c, 0, 64, 0
2, 3248, Note_on_c, 0, 83, 0
2, 3267, Note_on_c, 0, 81, 105
2, 3269, Note_on_c, 0, 38, 73
2, 3271, Note_on_c, 0, 50, 77
2, 3272, Note_on_c, 0, 74, 96
2, 3276, Note_on_c, 0, 78, 89
2, 3310, Control_c, 0, 64, 127
2, 3532, Note_on_c, 0, 50, 0
2, 3537, Note_on_c, 0, 50, 59
2, 3634, Note_on_c, 0, 79, 99
2, 3636, Note_on_c, 0, 54, 78
2, 3648, Note_on_c, 0, 50, 0
2, 3651, Note_on_c, 0, 50, 63
2, 3665, Note_on_c, 0, 57, 70
2, 3990, Control_c, 0, 64, 0
2, 3998, Note_on_c, 0, 38, 0
2, 4000, Note_on_c, 0, 81, 0
2, 4001, Note_on_c, 0, 76, 99
2, 4001, Note_on_c, 0, 79, 0
2, 4001, Note_on_c, 0, 50, 0
2, 4001, Note_on_c, 0, 57, 0
2, 4001, Note_on_c, 0, 74, 0
2, 4002, Note_on_c, 0, 54, 0
2, 4004, Note_on_c, 0, 78, 0
2, 4019, Note_on_c, 0, 67, 75
2, 4020, Note_on_c, 0, 71, 75
2, 4026, Note_on_c, 0, 40, 67
2, 4027, Note_on_c, 0, 52, 68
2, 4139, Control_c, 0, 64, 127
2, 4369, Note_on_c, 0, 40, 0
2, 4381, Note_on_c, 0, 40, 50
2, 4515, Note_on_c, 0, 52, 0
2, 4522, Note_on_c, 0, 52, 58
2, 4621, Note_on_c, 0, 55, 66
2, 4760, Note_on_c, 0, 59, 69
2, 4881, Note_on_c, 0, 64, 63
2, 4984, Note_on_c, 0, 67, 0
2, 4994, Note_on_c, 0, 67, 70
2, 5091, Note_on_c, 0, 71, 0
2, 5101, Note_on_c, 0, 71, 73
2, 5157, Note_on_c, 0, 64, 0
2, 5157, Note_on_c, 0, 59, 0
2, 5157, Note_on_c, 0, 55, 0
2, 5157, Note_on_c, 0, 67, 0
2, 5158, Note_on_c, 0, 76, 0
2, 5161, Control_c, 0, 64, 0
2, 5168, Note_on_c, 0, 40, 0
2, 5176, Note_on_c, 0, 52, 0
2, 5235, Note_on_c, 0, 76, 80
2, 5239, Note_on_c, 0, 40, 65
2, 5274, Note_on_c, 0, 40, 0
2, 5337, Note_on_c, 0, 71, 0
2, 5348, Note_on_c, 0, 64, 72
2, 5385, Note_on_c, 0, 64, 0
2, 5406, Note_on_c, 0, 76, 0
2, 5473, Note_on_c, 0, 64, 68
2, 5498, Note_on_c, 0, 52, 52
2, 5502, Note_on_c, 0, 64, 0
2, 5568, Control_c, 0, 64, 127
2, 5582, Note_on_c, 0, 64, 65
2, 5729, Note_on_c, 0, 55, 61
2, 5730, Note_on_c, 0, 59, 64
2, 5829, Note_on_c, 0, 64, 0
2, 5836, Note_on_c, 0, 64, 77
2, 5928, Control_c, 0, 64, 0
2, 5952, Note_on_c, 0, 64, 0
2, 5956, Note_on_c, 0, 40, 49
2, 5956, Note_on_c, 0, 64, 68
2, 5959, Note_on_c, 0, 59, 0
2, 5967, Note_on_c, 0, 55, 0
2, 6013, Note_on_c, 0, 52, 0
2, 6013, Note_on_c, 0, 64, 0
2, 6036, Note_on_c, 0, 40, 0
2, 6055, Note_on_c, 0, 47, 62
2, 6056, Note_on_c, 0, 64, 63
2, 6103, Note_on_c, 0, 64, 0
2, 6103, Note_on_c, 0, 47, 0
2, 6170, Note_on_c, 0, 64, 75
2, 6199, Note_on_c, 0, 36, 61
2, 6243, Control_c, 0, 64, 127
2, 6305, Note_on_c, 0, 62, 66
2, 6431, Note_on_c, 0, 36, 0
2, 6433, Note_on_c, 0, 62, 0
2, 6435, Note_on_c, 0, 48, 52
2, 6435, Control_c, 0, 64, 0
2, 6436, Note_on_c, 0, 64, 0
2, 6541, Note_on_c, 0, 62, 71
2, 6676, Note_on_c, 0, 55, 64
2, 6697, Note_on_c, 0, 52, 59
2, 6712, Control_c, 0, 64, 127
2, 6892, Note_on_c, 0, 36, 55
2, 7037, Note_on_c, 0, 43, 57
2, 7092, Note_on_c, 0, 62, 0
2, 7093, Note_on_c, 0, 48, 0
2, 7094, Note_on_c, 0, 55, 0
2, 7094, Note_on_c, 0, 36, 0
2, 7094, Note_on_c, 0, 43, 0
2, 7095, Note_on_c, 0, 52, 0
2, 7098, Control_c, 0, 64, 0
2, 7138, Note_on_c, 0, 62, 73
2, 7169, Note_on_c, 0, 38, 59
2, 7249, Note_on_c, 0, 62, 0
2, 7260, Note_on_c, 0, 62, 69
2, 7280, Control_c, 0, 64, 127
2, 7312, Note_on_c, 0, 43, 31
2, 7319, Note_on_c, 0, 43, 0
2, 7372, Note_on_c, 0, 38, 0
2, 7401, Note_on_c, 0, 50, 46
2, 7488, Note_on_c, 0, 62, 0
2, 7497, Note_on_c, 0, 62, 75
2, 7622, Note_on_c, 0, 54, 69
2, 7645, Note_on_c, 0, 57, 59
2, 7749, Note_on_c, 0, 62, 0
2, 7753, Note_on_c, 0, 62, 77
2, 7848, Note_on_c, 0, 50, 0
2, 7848, Note_on_c, 0, 62, 0
2, 7853, Note_on_c, 0, 62, 82
2, 7860, Note_on_c, 0, 50, 56
2, 7956, Note_on_c, 0, 62, 0
2, 7967, Note_on_c, 0, 62, 67
2, 7986, Note_on_c, 0, 45, 63
2, 8023, Note_on_c, 0, 54, 0
2, 8025, Note_on_c, 0, 50, 0
2, 8031, Note_on_c, 0, 57, 0
2, 8060, Control_c, 0, 64, 0
2, 8064, Note_on_c, 0, 62, 0
2, 8066, Note_on_c, 0, 45, 0
2, 8074, Note_on_c, 0, 62, 76
2, 8112, Note_on_c, 0, 40, 60
2, 8167, Note_on_c, 0, 40, 0
2, 8195, Note_on_c, 0, 59, 79
2, 8215, Note_on_c, 0, 62, 0
2, 8271, Note_on_c, 0, 59, 0
2, 8335, Note_on_c, 0, 59, 73
2, 8343, Note_on_c, 0, 52, 67
2, 8371, Note_on_c, 0, 59, 0
2, 8446, Note_on_c, 0, 59, 75
2, 8494, Control_c, 0, 64, 127
2, 8581, Note_on_c, 0, 55, 70
2, 8819, Note_on_c, 0, 40, 42
2, 8952, Note_on_c, 0, 47, 51
2, 8997, Note_on_c, 0, 40, 0
2, 8998, Note_on_c, 0, 55, 0
2, 8999, Note_on_c, 0, 47, 0
2, 9000, Note_on_c, 0, 59, 0
2, 9002, Control_c, 0, 64, 0
2, 9016, Note_on_c, 0, 52, 0
2, 9069, Note_on_c, 0, 64, 84
2, 9075, Note_on_c, 0, 40, 66
2, 9113, Note_on_c, 0, 40, 0
2, 9115, Note_on_c, 0, 64, 0
2, 9183, Note_on_c, 0, 64, 67
2, 9292, Note_on_c, 0, 64, 0
2, 9298, Note_on_c, 0, 64, 69
2, 9327, Note_on_c, 0, 52, 64
2, 9369, Note_on_c, 0, 64, 0
2, 9417, Note_on_c, 0, 64, 83
2, 9549, Note_on_c, 0, 59, 70
2, 9549, Note_on_c, 0, 55, 66
2, 9585, Note_on_c, 0, 59, 0
2, 9588, Note_on_c, 0, 55, 0
2, 9600, Note_on_c, 0, 52, 0
2, 9661, Note_on_c, 0, 64, 0
2, 9670, Note_on_c, 0, 64, 59
2, 9745, Note_on_c, 0, 64, 0
2, 9779, Note_on_c, 0, 40, 55
2, 9781, Note_on_c, 0, 64, 67
2, 9876, Control_c, 0, 64, 127
2, 9888, Note_on_c, 0, 76, 60
2, 9890, Note_on_c, 0, 47, 56
2, 9899, Note_on_c, 0, 76, 0
2, 9941, Note_on_c, 0, 64, 0
2, 9942, Note_on_c, 0, 47, 0
2, 9953, Note_on_c, 0, 40, 0
2, 9957, Control_c, 0, 64, 0
2, 10004, Note_on_c, 0, 64, 71
2, 10034, Note_on_c, 0, 36, 57
2, 10073, Note_on_c, 0, 36, 0
2, 10106, Control_c, 0, 64, 127
2, 10126, Note_on_c, 0, 62, 68
2, 10260, Note_on_c, 0, 48, 58
2, 10360, Note_on_c, 0, 62, 0
2, 10365, Note_on_c, 0, 62, 72
2, 10375, Control_c, 0, 64, 0
2, 10492, Note_on_c, 0, 55, 68
2, 10501, Note_on_c, 0, 52, 61
2, 10552, Control_c, 0, 64, 127
2, 10718, Note_on_c, 0, 36, 52
2, 10859, Note_on_c, 0, 43, 55
2, 10902, Control_c, 0, 64, 0
2, 10904, Note_on_c, 0, 36, 0
2, 10905, Note_on_c, 0, 55, 0
2, 10905, Note_on_c, 0, 64, 0
2, 10907, Note_on_c, 0, 48, 0
2, 10908, Note_on_c, 0, 52, 0
2, 10908, Note_on_c, 0, 43, 0
2, 10920, Note_on_c, 0, 62, 0
2, 10968, Note_on_c, 0, 74, 67
2, 10974, Note_on_c, 0, 74, 0
2, 10976, Note_on_c, 0, 62, 73
2, 10980, Note_on_c, 0, 38, 64
2, 11074, Note_on_c, 0, 62, 0
2, 11085, Note_on_c, 0, 62, 61
2, 11151, Note_on_c, 0, 38, 0
2, 11166, Control_c, 0, 64, 127
2, 11219, Note_on_c, 0, 50, 62
2, 11335, Note_on_c, 0, 62, 0
2, 11340, Note_on_c, 0, 62, 68
2, 11454, Note_on_c, 0, 54, 69
2, 11460, Note_on_c, 0, 57, 70
2, 11581, Note_on_c, 0, 62, 0
2, 11586, Note_on_c, 0, 62, 64
2, 11665, Note_on_c, 0, 50, 0
2, 11665, Note_on_c, 0, 54, 0
2, 11669, Note_on_c, 0, 50, 59
2, 11670, Note_on_c, 0, 38, 59
2, 11671, Note_on_c, 0, 54, 51
2, 11673, Note_on_c, 0, 62, 0
2, 11680, Note_on_c, 0, 62, 63
2, 11796, Note_on_c, 0, 62, 0
2, 11807, Note_on_c, 0, 62, 68
2, 11815, Note_on_c, 0, 45, 63
2, 11852, Note_on_c, 0, 62, 0
2, 11853, Control_c, 0, 64, 0
2, 11853, Note_on_c, 0, 54, 0
2, 11854, Note_on_c, 0, 57, 0
2, 11854, Note_on_c, 0, 50, 0
2, 11860, Note_on_c, 0, 38, 0
2, 11873, Note_on_c, 0, 45, 0
2, 11933, Note_on_c, 0, 62, 70
2, 11946, Note_on_c, 0, 40, 55
2, 11999, Note_on_c, 0, 40, 0
2, 12044, Note_on_c, 0, 64, 68
2, 12111, Control_c, 0, 64, 127
2, 12184, Note_on_c, 0, 52, 59
2, 12295, Note_on_c, 0, 64, 0
2, 12299, Note_on_c, 0, 64, 63
2, 12416, Note_on_c, 0, 55, 65
2, 12417, Note_on_c, 0, 59, 72
2, 12637, Note_on_c, 0, 40, 45
2, 12766, Note_on_c, 0, 47, 62
2, 12802, Note_on_c, 0, 62, 0
2, 12802, Note_on_c, 0, 55, 0
2, 12804, Note_on_c, 0, 52, 0
2, 12805, Note_on_c, 0, 40, 0
2, 12805, Note_on_c, 0, 59, 0
2, 12806, Note_on_c, 0, 64, 0
2, 12807, Control_c, 0, 64, 0
2, 12811, Note_on_c, 0, 47, 0
2, 12883, Note_on_c, 0, 76, 93
2, 12885, Note_on_c, 0, 67, 77
2, 12888, Note_on_c, 0, 71, 79
2, 12898, Note_on_c, 0, 40, 66
2, 12928, Note_on_c, 0, 71, 0
2, 12933, Note_on_c, 0, 40, 0
2, 12934, Note_on_c, 0, 67, 0
2, 12948, Control_c, 0, 64, 127
2, 12994, Note_on_c, 0, 76, 0
2, 13000, Note_on_c, 0, 76, 85
2, 13005, Note_on_c, 0, 67, 76
2, 13010, Note_on_c, 0, 71, 64
2, 13126, Note_on_c, 0, 52, 72
2, 13224, Note_on_c, 0, 76, 0
2, 13232, Note_on_c, 0, 67, 0
2, 13235, Note_on_c, 0, 76, 90
2, 13240, Note_on_c, 0, 71, 0
2, 13243, Note_on_c, 0, 67, 69
2, 13244, Note_on_c, 0, 71, 70
2, 13252, Note_on_c, 0, 55, 67
2, 13368, Note_on_c, 0, 59, 71
2, 13372, Note_on_c, 0, 64, 63
2, 13470, Note_on_c, 0, 67, 0
2, 13470, Note_on_c, 0, 71, 0
2, 13470, Note_on_c, 0, 76, 0
2, 13475, Note_on_c, 0, 76, 84
2, 13481, Note_on_c, 0, 67, 69
2, 13482, Note_on_c, 0, 71, 64
2, 13570, Note_on_c, 0, 76, 0
2, 13578, Note_on_c, 0, 52, 0
2, 13578, Note_on_c, 0, 67, 0
2, 13578, Note_on_c, 0, 71, 0
2, 13581, Note_on_c, 0, 76, 89
2, 13582, Note_on_c, 0, 67, 77
2, 13582, Note_on_c, 0, 71, 80
2, 13588, Note_on_c, 0, 52, 68
2, 13678, Note_on_c, 0, 76, 0
2, 13685, Note_on_c, 0, 71, 0
2, 13688, Note_on_c, 0, 76, 88
2, 13696, Note_on_c, 0, 71, 58
2, 13708, Note_on_c, 0, 67, 0
2, 13716, Note_on_c, 0, 67, 33
2, 13725, Note_on_c, 0, 64, 0
2, 13727, Note_on_c, 0, 59, 0
2, 13728, Note_on_c, 0, 71, 0
2, 13733, Note_on_c, 0, 52, 0
2, 13739, Note_on_c, 0, 55, 0
2, 13742, Control_c, 0, 64, 0
2, 13754, Note_on_c, 0, 76, 0
2, 13762, Note_on_c, 0, 67, 0
2, 13812, Note_on_c, 0, 67, 75
2, 13813, Note_on_c, 0, 76, 94
2, 13815, Note_on_c, 0, 71, 73
2, 13828, Note_on_c, 0, 36, 64
2, 13829, Note_on_c, 0, 48, 67
2, 13885, Note_on_c, 0, 36, 0
2, 13900, Control_c, 0, 64, 127
2, 13933, Note_on_c, 0, 74, 83
2, 14046, Note_on_c, 0, 48, 0
2, 14054, Note_on_c, 0, 48, 56
2, 14161, Note_on_c, 0, 74, 0
2, 14171, Note_on_c, 0, 54, 62
2, 14171, Note_on_c, 0, 74, 89
2, 14177, Note_on_c, 0, 54, 0
2, 14177, Note_on_c, 0, 69, 66
2, 14179, Note_on_c, 0, 52, 58
2, 14181, Note_on_c, 0, 48, 0
2, 14181, Note_on_c, 0, 66, 68
2, 14181, Note_on_c, 0, 71, 0
2, 14182, Note_on_c, 0, 67, 0
2, 14183, Note_on_c, 0, 76, 0
2, 14184, Control_c, 0, 64, 0
2, 14289, Note_on_c, 0, 60, 65
2, 14290, Note_on_c, 0, 55, 67
2, 14361, Control_c, 0, 64, 127
2, 14522, Note_on_c, 0, 48, 66
2, 14565, Note_on_c, 0, 57, 29
2, 14703, Note_on_c, 0, 52, 0
2, 14703, Note_on_c, 0, 48, 0
2, 14703, Note_on_c, 0, 55, 0
2, 14703, Note_on_c, 0, 66, 0
2, 14703, Note_on_c, 0, 69, 0
2, 14704, Note_on_c, 0, 60, 0
2, 14707, Note_on_c, 0, 57, 0
2, 14709, Control_c, 0, 64, 0
2, 14722, Note_on_c, 0, 74, 0
2, 14749, Note_on_c, 0, 74, 86
2, 14751, Note_on_c, 0, 50, 70
2, 14752, Note_on_c, 0, 66, 74
2, 14755, Note_on_c, 0, 38, 66
2, 14756, Note_on_c, 0, 69, 70
2, 14789, Note_on_c, 0, 38, 0
2, 14791, Note_on_c, 0, 69, 0
2, 14792, Note_on_c, 0, 66, 0
2, 14793, Note_on_c, 0, 74, 0
2, 14837, Control_c, 0, 64, 127
2, 14865, Note_on_c, 0, 74, 89
2, 14867, Note_on_c, 0, 66, 76
2, 14869, Note_on_c, 0, 69, 66
2, 14914, Note_on_c, 0, 50, 0
2, 14992, Note_on_c, 0, 50, 58
2, 15084, Control_c, 0, 64, 0
2, 15098, Note_on_c, 0, 74, 0
2, 15106, Note_on_c, 0, 66, 0
2, 15106, Note_on_c, 0, 69, 0
2, 15107, Note_on_c, 0, 74, 88
2, 15108, Note_on_c, 0, 54, 69
2, 15112, Note_on_c, 0, 66, 75
2, 15113, Note_on_c, 0, 69, 68
2, 15198, Control_c, 0, 64, 127
2, 15226, Note_on_c, 0, 57, 66
2, 15230, Note_on_c, 0, 62, 59
2, 15352, Note_on_c, 0, 66, 0
2, 15352, Note_on_c, 0, 69, 0
2, 15352, Note_on_c, 0, 74, 0
2, 15361, Note_on_c, 0, 74, 78
2, 15362, Note_on_c, 0, 66, 74
2, 15363, Note_on_c, 0, 69, 59
2, 15398, Note_on_c, 0, 50, 0
2, 15452, Note_on_c, 0, 54, 0
2, 15452, Note_on_c, 0, 74, 0
2, 15459, Note_on_c, 0, 66, 0
2, 15459, Note_on_c, 0, 69, 0
2, 15459, Note_on_c, 0, 50, 63
2, 15462, Note_on_c, 0, 54, 57
2, 15463, Note_on_c, 0, 74, 81
2, 15464, Note_on_c, 0, 66, 72
2, 15466, Note_on_c, 0, 69, 72
2, 15559, Note_on_c, 0, 69, 0
2, 15559, Note_on_c, 0, 74, 0
2, 15565, Note_on_c, 0, 74, 67
2, 15567, Note_on_c, 0, 66, 0
2, 15569, Note_on_c, 0, 69, 64
2, 15575, Note_on_c, 0, 66, 53
2, 15600, Note_on_c, 0, 54, 0
2, 15600, Note_on_c, 0, 57, 0
2, 15601, Note_on_c, 0, 69, 0
2, 15601, Control_c, 0, 64, 0
2, 15602, Note_on_c, 0, 66, 0
2, 15602, Note_on_c, 0, 74, 0
2, 15604, Note_on_c, 0, 50, 0
2, 15613, Note_on_c, 0, 62, 0
2, 15680, Note_on_c, 0, 74, 90
2, 15680, Note_on_c, 0, 69, 75
2, 15685, Note_on_c, 0, 66, 77
2, 15703, Note_on_c, 0, 40, 65
2, 15740, Note_on_c, 0, 40, 0
2, 15774, Control_c, 0, 64, 127
2, 15805, Note_on_c, 0, 69, 0
2, 15807, Note_on_c, 0, 71, 74
2, 15809, Note_on_c, 0, 69, 45
2, 15928, Note_on_c, 0, 71, 0
2, 15930, Control_c, 0, 64, 0
2, 15934, Note_on_c, 0, 71, 77
2, 15939, Note_on_c, 0, 67, 67
2, 15944, Note_on_c, 0, 52, 61
2, 15949, Note_on_c, 0, 66, 0
2, 15950, Note_on_c, 0, 74, 0
2, 15979, Note_on_c, 0, 67, 0
2, 15989, Note_on_c, 0, 69, 0
2, 15989, Note_on_c, 0, 71, 0
2, 16051, Note_on_c, 0, 71, 78
2, 16055, Note_on_c, 0, 55, 64
2, 16056, Note_on_c, 0, 67, 66
2, 16104, Note_on_c, 0, 52, 0
2, 16171, Note_on_c, 0, 59, 67
2, 16171, Note_on_c, 0, 64, 66
2, 16381, Control_c, 0, 64, 127
2, 16396, Note_on_c, 0, 64, 0
2, 16399, Note_on_c, 0, 67, 0
2, 16400, Note_on_c, 0, 71, 0
2, 16400, Note_on_c, 0, 59, 0
2, 16412, Note_on_c, 0, 55, 0
2, 16416, Note_on_c, 0, 52, 68
2, 16595, Note_on_c, 0, 52, 0
2, 16601, Control_c, 0, 64, 0
2, 16645, Note_on_c, 0, 40, 67
2, 16646, Note_on_c, 0, 76, 93
2, 16646, Note_on_c, 0, 67, 76
2, 16647, Note_on_c, 0, 71, 74
2, 16696, Note_on_c, 0, 40, 0
2, 16704, Control_c, 0, 64, 127
2, 16757, Note_on_c, 0, 67, 0
2, 16757, Note_on_c, 0, 71, 0
2, 16757, Note_on_c, 0, 76, 0
2, 16764, Note_on_c, 0, 76, 80
2, 16767, Note_on_c, 0, 71, 64
2, 16768, Note_on_c, 0, 67, 71
2, 16865, Note_on_c, 0, 76, 0
2, 16872, Note_on_c, 0, 67, 0
2, 16872, Note_on_c, 0, 71, 0
2, 16875, Note_on_c, 0, 76, 83
2, 16877, Note_on_c, 0, 71, 67
2, 16882, Note_on_c, 0, 67, 73
2, 16892, Note_on_c, 0, 52, 61
2, 16918, Note_on_c, 0, 76, 0
2, 16920, Note_on_c, 0, 67, 0
2, 16949, Note_on_c, 0, 71, 0
2, 16958, Control_c, 0, 64, 0
2, 16972, Note_on_c, 0, 52, 0
2, 16993, Note_on_c, 0, 76, 91
2, 16995, Note_on_c, 0, 67, 78
2, 16998, Note_on_c, 0, 71, 75
2, 16999, Note_on_c, 0, 55, 75
2, 17057, Control_c, 0, 64, 127
2, 17118, Note_on_c, 0, 59, 69
2, 17121, Note_on_c, 0, 64, 66
2, 17180, Note_on_c, 0, 55, 0
2, 17226, Note_on_c, 0, 76, 0
2, 17237, Note_on_c, 0, 76, 90
2, 17241, Note_on_c, 0, 67, 0
2, 17241, Note_on_c, 0, 71, 0
2, 17250, Note_on_c, 0, 67, 61
2, 17252, Note_on_c, 0, 71, 57
2, 17341, Note_on_c, 0, 67, 0
2, 17341, Note_on_c, 0, 71, 0
2, 17341, Note_on_c, 0, 76, 0
2, 17345, Note_on_c, 0, 76, 88
2, 17348, Note_on_c, 0, 71, 80
2, 17351, Note_on_c, 0, 67, 72
2, 17360, Note_on_c, 0, 52, 67
2, 17441, Note_on_c, 0, 67, 0
2, 17441, Note_on_c, 0, 71, 0
2, 17441, Note_on_c, 0, 76, 0
2, 17446, Note_on_c, 0, 76, 76
2, 17447, Note_on_c, 0, 71, 69
2, 17452, Note_on_c, 0, 67, 63
2, 17496, Note_on_c, 0, 67, 0
2, 17497, Note_on_c, 0, 52, 0
2, 17498, Control_c, 0, 64, 0
2, 17502, Note_on_c, 0, 59, 0
2, 17502, Note_on_c, 0, 64, 0
2, 17510, Note_on_c, 0, 71, 0
2, 17510, Note_on_c, 0, 76, 0
2, 17570, Note_on_c, 0, 76, 96
2, 17572, Note_on_c, 0, 67, 77
2, 17575, Note_on_c, 0, 71, 81
2, 17578, Note_on_c, 0, 48, 73
2, 17581, Note_on_c, 0, 36, 72
2, 17621, Note_on_c, 0, 48, 0
2, 17633, Note_on_c, 0, 36, 0
2, 17656, Control_c, 0, 64, 127
2, 17691, Note_on_c, 0, 74, 85
2, 17806, Note_on_c, 0, 48, 60
2, 17917, Note_on_c, 0, 74, 0
2, 17922, Note_on_c, 0, 74, 85
2, 17926, Control_c, 0, 64, 0
2, 17930, Note_on_c, 0, 66, 74
2, 17932, Note_on_c, 0, 69, 66
2, 17932, Note_on_c, 0, 48, 0
2, 17938, Note_on_c, 0, 48, 54
2, 17939, Note_on_c, 0, 71, 0
2, 17940, Note_on_c, 0, 76, 0
2, 17942, Note_on_c, 0, 67, 0
2, 17943, Note_on_c, 0, 52, 58
2, 18032, Note_on_c, 0, 48, 0
2, 18053, Note_on_c, 0, 55, 62
2, 18055, Note_on_c, 0, 60, 63
2, 18086, Note_on_c, 0, 52, 0
2, 18201, Control_c, 0, 64, 127
2, 18303, Note_on_c, 0, 48, 61
2, 18459, Note_on_c, 0, 55, 0
2, 18461, Note_on_c, 0, 48, 0
2, 18464, Note_on_c, 0, 60, 0
2, 18464, Note_on_c, 0, 66, 0
2, 18465, Note_on_c, 0, 69, 0
2, 18472, Control_c, 0, 64, 0
2, 18478, Note_on_c, 0, 74, 0
2, 18541, Note_on_c, 0, 50, 70
2, 18547, Note_on_c, 0, 38, 67
2, 18547, Note_on_c, 0, 74, 79
2, 18553, Note_on_c, 0, 66, 69
2, 18554, Note_on_c, 0, 69, 63
2, 18608, Control_c, 0, 64, 127
2, 18662, Note_on_c, 0, 74, 0
2, 18667, Note_on_c, 0, 74, 74
2, 18670, Note_on_c, 0, 66, 0
2, 18670, Note_on_c, 0, 69, 0
2, 18674, Note_on_c, 0, 66, 66
2, 18678, Note_on_c, 0, 69, 54
2, 18785, Note_on_c, 0, 50, 0
2, 18785, Note_on_c, 0, 66, 0
2, 18785, Note_on_c, 0, 69, 0
2, 18785, Note_on_c, 0, 74, 0
2, 18789, Note_on_c, 0, 74, 76
2, 18791, Note_on_c, 0, 66, 70
2, 18793, Note_on_c, 0, 50, 68
2, 18795, Note_on_c, 0, 69, 65
2, 18839, Note_on_c, 0, 66, 0
2, 18840, Control_c, 0, 64, 0
2, 18842, Note_on_c, 0, 38, 0
2, 18842, Note_on_c, 0, 69, 0
2, 18843, Note_on_c, 0, 74, 0
2, 18896, Note_on_c, 0, 74, 91
2, 18901, Note_on_c, 0, 66, 76
2, 18903, Note_on_c, 0, 69, 69
2, 18922, Note_on_c, 0, 54, 66
2, 18977, Control_c, 0, 64, 127
2, 19044, Note_on_c, 0, 57, 71
2, 19057, Note_on_c, 0, 62, 60
2, 19130, Note_on_c, 0, 66, 0
2, 19130, Note_on_c, 0, 69, 0
2, 19130, Note_on_c, 0, 74, 0
2, 19135, Note_on_c, 0, 74, 91
2, 19140, Note_on_c, 0, 69, 72
2, 19141, Note_on_c, 0, 66, 78
2, 19246, Note_on_c, 0, 74, 0
2, 19250, Note_on_c, 0, 74, 74
2, 19253, Note_on_c, 0, 54, 0
2, 19253, Note_on_c, 0, 66, 0
2, 19253, Note_on_c, 0, 69, 0
2, 19253, Note_on_c, 0, 62, 0
2, 19258, Note_on_c, 0, 69, 64
2, 19258, Note_on_c, 0, 57, 0
2, 19259, Note_on_c, 0, 54, 61
2, 19259, Note_on_c, 0, 66, 64
2, 19345, Note_on_c, 0, 66, 0
2, 19345, Note_on_c, 0, 74, 0
2, 19353, Note_on_c, 0, 69, 0
2, 19354, Note_on_c, 0, 74, 80
2, 19357, Note_on_c, 0, 66, 73
2, 19357, Note_on_c, 0, 69, 62
2, 19433, Note_on_c, 0, 54, 0
2, 19433, Note_on_c, 0, 69, 0
2, 19434, Note_on_c, 0, 74, 0
2, 19438, Note_on_c, 0, 50, 0
2, 19439, Control_c, 0, 64, 0
2, 19445, Note_on_c, 0, 66, 0
2, 19488, Note_on_c, 0, 79, 93
2, 19494, Note_on_c, 0, 67, 80
2, 19494, Note_on_c, 0, 40, 65
2, 19496, Note_on_c, 0, 71, 74
2, 19498, Note_on_c, 0, 52, 66
2, 19530, Note_on_c, 0, 40, 0
2, 19560, Control_c, 0, 64, 127
2, 19596, Note_on_c, 0, 78, 87
2, 19706, Note_on_c, 0, 52, 0
2, 19706, Note_on_c, 0, 67, 0
2, 19706, Note_on_c, 0, 71, 0
2, 19709, Note_on_c, 0, 76, 91
2, 19713, Note_on_c, 0, 52, 60
2, 19713, Note_on_c, 0, 67, 65
2, 19717, Note_on_c, 0, 71, 67
2, 19776, Control_c, 0, 64, 0
2, 19788, Note_on_c, 0, 79, 0
2, 19795, Note_on_c, 0, 71, 0
2, 19802, Note_on_c, 0, 78, 0
2, 19822, Note_on_c, 0, 67, 0
2, 19822, Note_on_c, 0, 76, 0
2, 19831, Note_on_c, 0, 76, 77
2, 19833, Note_on_c, 0, 67, 70
2, 19835, Note_on_c, 0, 71, 71
2, 19837, Note_on_c, 0, 55, 61
2, 19883, Note_on_c, 0, 52, 0
2, 19968, Note_on_c, 0, 55, 0
2, 19969, Note_on_c, 0, 64, 65
2, 19970, Note_on_c, 0, 59, 64
2, 20067, Control_c, 0, 64, 127
2, 20152, Control_c, 0, 64, 0
2, 20183, Note_on_c, 0, 59, 0
2, 20192, Note_on_c, 0, 59, 47
2, 20194, Note_on_c, 0, 55, 39
2, 20196, Note_on_c, 0, 52, 58
2, 20236, Control_c, 0, 64, 127
2, 20396, Note_on_c, 0, 52, 0
2, 20396, Note_on_c, 0, 71, 0
2, 20396, Note_on_c, 0, 59, 0
2, 20397, Note_on_c, 0, 67, 0
2, 20398, Note_on_c, 0, 64, 0
2, 20399, Note_on_c, 0, 76, 0
2, 20401, Control_c, 0, 64, 0
2, 20413, Note_on_c, 0, 55, 0
2, 20441, Note_on_c, 0, 64, 84
2, 20448, Note_on_c, 0, 48, 66
2, 20453, Note_on_c, 0, 36, 61
2, 20455, Note_on_c, 0, 60, 75
2, 20456, Note_on_c, 0, 55, 53
2, 20483, Note_on_c, 0, 48, 0
2, 20487, Note_on_c, 0, 36, 0
2, 20528, Note_on_c, 0, 60, 0
2, 20536, Control_c, 0, 64, 127
2, 20682, Note_on_c, 0, 64, 0
2, 20692, Note_on_c, 0, 64, 77
2, 20694, Note_on_c, 0, 60, 70
2, 20928, Note_on_c, 0, 60, 0
2, 20935, Note_on_c, 0, 64, 0
2, 20936, Note_on_c, 0, 84, 85
2, 20939, Note_on_c, 0, 79, 79
2, 20939, Note_on_c, 0, 60, 75
2, 20939, Note_on_c, 0, 64, 65
2, 20946, Note_on_c, 0, 76, 78
2, 21173, Note_on_c, 0, 64, 0
2, 21178, Note_on_c, 0, 64, 52
2, 21181, Note_on_c, 0, 60, 0
2, 21191, Note_on_c, 0, 60, 45
2, 21281, Note_on_c, 0, 79, 0
2, 21286, Note_on_c, 0, 79, 91
2, 21288, Note_on_c, 0, 76, 0
2, 21293, Note_on_c, 0, 72, 82
2, 21293, Note_on_c, 0, 76, 84
2, 21327, Control_c, 0, 64, 0
2, 21411, Control_c, 0, 64, 127
2, 21419, Note_on_c, 0, 48, 62
2, 21420, Note_on_c, 0, 36, 53
2, 21634, Note_on_c, 0, 64, 0
2, 21645, Note_on_c, 0, 64, 77
2, 21657, Note_on_c, 0, 60, 0
2, 21663, Note_on_c, 0, 60, 70
2, 21883, Note_on_c, 0, 66, 82
2, 21888, Note_on_c, 0, 55, 0
2, 21888, Note_on_c, 0, 60, 0
2, 21892, Note_on_c, 0, 55, 58
2, 21894, Note_on_c, 0, 62, 73
2, 21899, Note_on_c, 0, 60, 63
2, 22110, Note_on_c, 0, 64, 0
2, 22117, Note_on_c, 0, 64, 79
2, 22119, Note_on_c, 0, 67, 89
2, 22300, Note_on_c, 0, 48, 0
2, 22300, Note_on_c, 0, 79, 0
2, 22301, Note_on_c, 0, 84, 0
2, 22301, Note_on_c, 0, 55, 0
2, 22301, Note_on_c, 0, 76, 0
2, 22302, Note_on_c, 0, 62, 0
2, 22302, Note_on_c, 0, 72, 0
2, 22303, Note_on_c, 0, 66, 0
2, 22303, Note_on_c, 0, 64, 0
2, 22304, Note_on_c, 0, 67, 0
2, 22306, Control_c, 0, 64, 0
2, 22318, Note_on_c, 0, 36, 0
2, 22318, Note_on_c, 0, 60, 0
2, 22360, Note_on_c, 0, 66, 93
2, 22360, Note_on_c, 0, 50, 79
2, 22362, Note_on_c, 0, 38, 73
2, 22365, Note_on_c, 0, 62, 79
2, 22396, Note_on_c, 0, 50, 0
2, 22410, Control_c, 0, 64, 127
2, 22525, Note_on_c, 0, 38, 0
2, 22594, Note_on_c, 0, 62, 0
2, 22594, Note_on_c, 0, 66, 0
2, 22602, Note_on_c, 0, 66, 86
2, 22605, Note_on_c, 0, 62, 74
2, 22608, Note_on_c, 0, 57, 39
2, 22832, Note_on_c, 0, 66, 0
2, 22840, Note_on_c, 0, 57, 0
2, 22840, Note_on_c, 0, 62, 0
2, 22841, Note_on_c, 0, 66, 82
2, 22844, Note_on_c, 0, 86, 93
2, 22845, Note_on_c, 0, 57, 59
2, 22848, Note_on_c, 0, 62, 74
2, 22851, Note_on_c, 0, 81, 79
2, 23070, Note_on_c, 0, 57, 0
2, 23070, Note_on_c, 0, 62, 0
2, 23070, Note_on_c, 0, 66, 0
2, 23075, Note_on_c, 0, 66, 86
2, 23077, Note_on_c, 0, 62, 78
2, 23080, Note_on_c, 0, 57, 53
2, 23208, Note_on_c, 0, 81, 0
2, 23213, Note_on_c, 0, 81, 98
2, 23220, Note_on_c, 0, 74, 78
2, 23236, Note_on_c, 0, 78, 68
2, 23339, Note_on_c, 0, 57, 0
2, 23346, Note_on_c, 0, 38, 59
2, 23347, Note_on_c, 0, 57, 64
2, 23347, Note_on_c, 0, 50, 62
2, 23554, Note_on_c, 0, 66, 0
2, 23562, Note_on_c, 0, 57, 0
2, 23562, Note_on_c, 0, 62, 0
2, 23565, Note_on_c, 0, 66, 83
2, 23573, Note_on_c, 0, 62, 65
2, 23573, Note_on_c, 0, 57, 58
2, 23796, Note_on_c, 0, 67, 86
2, 23802, Note_on_c, 0, 64, 80
2, 23806, Note_on_c, 0, 81, 0
2, 23806, Note_on_c, 0, 62, 0
2, 23808, Note_on_c, 0, 50, 0
2, 23808, Note_on_c, 0, 57, 0
2, 23809, Control_c, 0, 64, 0
2, 23809, Note_on_c, 0, 74, 0
2, 23811, Note_on_c, 0, 38, 0
2, 23811, Note_on_c, 0, 78, 0
2, 23812, Note_on_c, 0, 57, 75
2, 23813, Note_on_c, 0, 86, 0
2, 23818, Note_on_c, 0, 50, 67
2, 23822, Note_on_c, 0, 54, 64
2, 23846, Note_on_c, 0, 66, 0
2, 23900, Control_c, 0, 64, 127
2, 24023, Note_on_c, 0, 54, 0
2, 24023, Note_on_c, 0, 69, 87
2, 24028, Note_on_c, 0, 54, 57
2, 24028, Note_on_c, 0, 66, 75
2, 24043, Note_on_c, 0, 62, 35
2, 24220, Note_on_c, 0, 57, 0
2, 24220, Note_on_c, 0, 54, 0
2, 24221, Note_on_c, 0, 50, 0
2, 24221, Note_on_c, 0, 64, 0
2, 24221, Note_on_c, 0, 69, 0
2, 24221, Note_on_c, 0, 67, 0
2, 24221, Note_on_c, 0, 62, 0
2, 24221, Note_on_c, 0, 66, 0
2, 24224, Control_c, 0, 64, 0
2, 24265, Note_on_c, 0, 71, 95
2, 24272, Note_on_c, 0, 67, 88
2, 24278, Note_on_c, 0, 40, 70
2, 24279, Note_on_c, 0, 52, 75
2, 24306, Note_on_c, 0, 40, 0
2, 24330, Control_c, 0, 64, 127
2, 24494, Note_on_c, 0, 64, 73
2, 24503, Note_on_c, 0, 59, 49
2, 24513, Note_on_c, 0, 55, 39
2, 24618, Note_on_c, 0, 88, 87
2, 24621, Note_on_c, 0, 83, 77
2, 24626, Note_on_c, 0, 79, 75
2, 24721, Note_on_c, 0, 64, 0
2, 24725, Note_on_c, 0, 76, 72
2, 24726, Note_on_c, 0, 64, 75
2, 24729, Note_on_c, 0, 55, 0
2, 24729, Note_on_c, 0, 59, 0
2, 24733, Note_on_c, 0, 59, 66
2, 24734, Note_on_c, 0, 55, 61
2, 24906, Note_on_c, 0, 52, 0
2, 24967, Note_on_c, 0, 64, 0
2, 24967, Note_on_c, 0, 76, 0
2, 24967, Note_on_c, 0, 79, 0
2, 24967, Note_on_c, 0, 83, 0
2, 24972, Note_on_c, 0, 83, 88
2, 24973, Note_on_c, 0, 76, 85
2, 24974, Note_on_c, 0, 79, 79
2, 24974, Note_on_c, 0, 64, 71
2, 24975, Note_on_c, 0, 55, 0
2, 24975, Note_on_c, 0, 59, 0
2, 24980, Note_on_c, 0, 59, 65
2, 24980, Note_on_c, 0, 55, 68
2, 24986, Note_on_c, 0, 52, 56
2, 24990, Note_on_c, 0, 52, 0
2, 25194, Control_c, 0, 64, 0
2, 25194, Note_on_c, 0, 55, 0
2, 25195, Note_on_c, 0, 67, 0
2, 25195, Note_on_c, 0, 59, 0
2, 25195, Note_on_c, 0, 71, 0
2, 25195, Note_on_c, 0, 64, 0
2, 25196, Note_on_c, 0, 88, 0
2, 25205, Note_on_c, 0, 40, 67
2, 25297, Control_c, 0, 64, 127
2, 25438, Note_on_c, 0, 52, 61
2, 25445, Note_on_c, 0, 55, 37
2, 25651, Note_on_c, 0, 76, 0
2, 25658, Note_on_c, 0, 76, 82
2, 25666, Note_on_c, 0, 55, 0
2, 25674, Note_on_c, 0, 59, 64
2, 25677, Note_on_c, 0, 55, 60
2, 25772, Note_on_c, 0, 78, 82
2, 25873, Note_on_c, 0, 79, 0
2, 25881, Note_on_c, 0, 79, 93
2, 25889, Note_on_c, 0, 52, 0
2, 25894, Note_on_c, 0, 64, 67
2, 25899, Note_on_c, 0, 52, 64
2, 25901, Note_on_c, 0, 69, 72
2, 25904, Note_on_c, 0, 64, 0
2, 25986, Note_on_c, 0, 81, 92
2, 26092, Note_on_c, 0, 52, 0
2, 26093, Note_on_c, 0, 69, 0
2, 26093, Note_on_c, 0, 59, 0
2, 26093, Note_on_c, 0, 79, 0
2, 26093, Note_on_c, 0, 76, 0
2, 26093, Note_on_c, 0, 81, 0
2, 26093, Note_on_c, 0, 78, 0
2, 26096, Note_on_c, 0, 40, 0
2, 26096, Note_on_c, 0, 83, 0
2, 26098, Control_c, 0, 64, 0
2, 26112, Note_on_c, 0, 55, 0
2, 26131, Note_on_c, 0, 83, 98
2, 26134, Note_on_c, 0, 71, 89
2, 26138, Note_on_c, 0, 76, 93
2, 26139, Note_on_c, 0, 40, 75
2, 26141, Note_on_c, 0, 52, 72
2, 26177, Note_on_c, 0, 40, 0
2, 26196, Control_c, 0, 64, 127
2, 26361, Note_on_c, 0, 64, 86
2, 26464, Note_on_c, 0, 81, 97
2, 26469, Note_on_c, 0, 78, 83
2, 26580, Note_on_c, 0, 64, 0
2, 26584, Note_on_c, 0, 64, 75
2, 26593, Note_on_c, 0, 59, 70
2, 26598, Note_on_c, 0, 55, 62
2, 26833, Note_on_c, 0, 64, 0
2, 26833, Note_on_c, 0, 71, 0
2, 26837, Note_on_c, 0, 79, 84
2, 26838, Note_on_c, 0, 64, 71
2, 26841, Note_on_c, 0, 55, 0
2, 26841, Note_on_c, 0, 59, 0
2, 26843, Note_on_c, 0, 71, 74
2, 26845, Note_on_c, 0, 59, 70
2, 26846, Note_on_c, 0, 55, 62
2, 26903, Control_c, 0, 64, 0
2, 26987, Control_c, 0, 64, 127
2, 27085, Note_on_c, 0, 40, 59
2, 27114, Note_on_c, 0, 83, 0
2, 27114, Note_on_c, 0, 59, 0
2, 27125, Note_on_c, 0, 76, 0
2, 27125, Control_c, 0, 64, 0
2, 27148, Note_on_c, 0, 55, 0
2, 27156, Note_on_c, 0, 52, 0
2, 27156, Note_on_c, 0, 64, 0
2, 27156, Note_on_c, 0, 78, 0
2, 27183, Note_on_c, 0, 78, 83
2, 27191, Note_on_c, 0, 74, 71
2, 27210, Control_c, 0, 64, 127
2, 27315, Note_on_c, 0, 52, 59
2, 27525, Note_on_c, 0, 79, 0
2, 27529, Note_on_c, 0, 79, 83
2, 27540, Note_on_c, 0, 55, 58
2, 27540, Note_on_c, 0, 71, 0
2, 27544, Note_on_c, 0, 59, 64
2, 27545, Note_on_c, 0, 71, 69
2, 27755, Note_on_c, 0, 78, 0
2, 27766, Note_on_c, 0, 78, 88
2, 27770, Note_on_c, 0, 55, 0
2, 27770, Note_on_c, 0, 74, 0
2, 27775, Note_on_c, 0, 55, 45
2, 27776, Note_on_c, 0, 74, 55
2, 27778, Note_on_c, 0, 52, 0
2, 27778, Note_on_c, 0, 59, 0
2, 27782, Note_on_c, 0, 59, 52
2, 27783, Note_on_c, 0, 52, 47
2, 27962, Note_on_c, 0, 40, 0
2, 27962, Note_on_c, 0, 81, 0
2, 27965, Note_on_c, 0, 74, 0
2, 27965, Note_on_c, 0, 52, 0
2, 27965, Note_on_c, 0, 71, 0
2, 27965, Note_on_c, 0, 79, 0
2, 27965, Note_on_c, 0, 55, 0
2, 27965, Note_on_c, 0, 59, 0
2, 27965, Note_on_c, 0, 78, 0
2, 27966, Control_c, 0, 64, 0
2, 28002, Note_on_c, 0, 76, 95
2, 28020, Note_on_c, 0, 67, 73
2, 28020, Note_on_c, 0, 72, 75
2, 28020, Note_on_c, 0, 48, 66
2, 28020, Note_on_c, 0, 36, 66
2, 28067, Note_on_c, 0, 48, 0
2, 28070, Control_c, 0, 64, 127
2, 28231, Note_on_c, 0, 76, 0
2, 28239, Note_on_c, 0, 67, 0
2, 28239, Note_on_c, 0, 72, 0
2, 28241, Note_on_c, 0, 76, 90
2, 28242, Note_on_c, 0, 48, 72
2, 28245, Note_on_c, 0, 72, 74
2, 28246, Note_on_c, 0, 67, 76
2, 28365, Note_on_c, 0, 60, 80
2, 28365, Note_on_c, 0, 55, 79
2, 28372, Note_on_c, 0, 52, 68
2, 28469, Note_on_c, 0, 76, 0
2, 28480, Note_on_c, 0, 76, 92
2, 28485, Note_on_c, 0, 67, 0
2, 28485, Note_on_c, 0, 72, 0
2, 28493, Note_on_c, 0, 72, 67
2, 28493, Note_on_c, 0, 67, 75
2, 28592, Note_on_c, 0, 48, 0
2, 28600, Note_on_c, 0, 48, 64
2, 28631, Note_on_c, 0, 36, 0
2, 28642, Note_on_c, 0, 55, 0
2, 28642, Note_on_c, 0, 60, 0
2, 28642, Note_on_c, 0, 67, 0
2, 28642, Note_on_c, 0, 72, 0
2, 28643, Note_on_c, 0, 52, 0
2, 28644, Control_c, 0, 64, 0
2, 28661, Note_on_c, 0, 76, 0
2, 28684, Control_c, 0, 64, 127
2, 28741, Note_on_c, 0, 76, 93
2, 28741, Note_on_c, 0, 55, 65
2, 28742, Note_on_c, 0, 52, 65
2, 28742, Note_on_c, 0, 72, 77
2, 28755, Note_on_c, 0, 67, 77
2, 28944, Control_c, 0, 64, 0
2, 28948, Note_on_c, 0, 55, 0
2, 28948, Note_on_c, 0, 52, 0
2, 28968, Note_on_c, 0, 48, 0
2, 28968, Note_on_c, 0, 67, 0
2, 28968, Note_on_c, 0, 72, 0
2, 28968, Note_on_c, 0, 76, 0
2, 28973, Note_on_c, 0, 48, 65
2, 28975, Note_on_c, 0, 76, 90
2, 28975, Note_on_c, 0, 52, 56
2, 28978, Note_on_c, 0, 55, 58
2, 28979, Note_on_c, 0, 72, 75
2, 28980, Note_on_c, 0, 67, 73
2, 29022, Control_c, 0, 64, 127
2, 29207, Note_on_c, 0, 76, 0
2, 29214, Note_on_c, 0, 48, 0
2, 29217, Note_on_c, 0, 60, 65
2, 29217, Note_on_c, 0, 76, 92
2, 29220, Note_on_c, 0, 48, 60
2, 29222, Note_on_c, 0, 55, 0
2, 29225, Note_on_c, 0, 64, 77
2, 29226, Note_on_c, 0, 55, 56
2, 29450, Note_on_c, 0, 78, 94
2, 29461, Note_on_c, 0, 66, 81
2, 29463, Note_on_c, 0, 74, 80
2, 29468, Note_on_c, 0, 52, 0
2, 29468, Note_on_c, 0, 55, 0
2, 29472, Note_on_c, 0, 55, 73
2, 29477, Note_on_c, 0, 52, 61
2, 29675, Note_on_c, 0, 48, 0
2, 29679, Note_on_c, 0, 48, 59
2, 29683, Note_on_c, 0, 67, 0
2, 29683, Note_on_c, 0, 76, 0
2, 29685, Note_on_c, 0, 79, 94
2, 29688, Note_on_c, 0, 67, 84
2, 29693, Note_on_c, 0, 76, 82
2, 29869, Note_on_c, 0, 66, 0
2, 29869, Note_on_c, 0, 74, 0
2, 29870, Note_on_c, 0, 52, 0
2, 29870, Note_on_c, 0, 60, 0
2, 29870, Note_on_c, 0, 79, 0
2, 29871, Note_on_c, 0, 78, 0
2, 29873, Control_c, 0, 64, 0
2, 29882, Note_on_c, 0, 55, 0
2, 29882, Note_on_c, 0, 64, 0
2, 29882, Note_on_c, 0, 67, 0
2, 29882, Note_on_c, 0, 72, 0
2, 29890, Note_on_c, 0, 48, 0
2, 29890, Note_on_c, 0, 76, 0
2, 29918, Note_on_c, 0, 78, 94
2, 29925, Note_on_c, 0, 38, 63
2, 29926, Note_on_c, 0, 74, 73
2, 29928, Note_on_c, 0, 50, 68
2, 29932, Note_on_c, 0, 69, 69
2, 29982, Control_c, 0, 64, 127
2, 30159, Note_on_c, 0, 50, 0
2, 30159, Note_on_c, 0, 78, 0
2, 30164, Note_on_c, 0, 50, 68
2, 30166, Note_on_c, 0, 78, 90
2, 30167, Note_on_c, 0, 69, 0
2, 30167, Note_on_c, 0, 74, 0
2, 30171, Note_on_c, 0, 74, 75
2, 30171, Note_on_c, 0, 69, 71
2, 30228, Note_on_c, 0, 38, 0
2, 30279, Note_on_c, 0, 62, 79
2, 30280, Note_on_c, 0, 54, 77
2, 30282, Note_on_c, 0, 57, 79
2, 30389, Note_on_c, 0, 74, 0
2, 30389, Note_on_c, 0, 78, 0
2, 30396, Note_on_c, 0, 78, 91
2, 30399, Note_on_c, 0, 74, 81
2, 30405, Note_on_c, 0, 57, 0
2, 30405, Note_on_c, 0, 69, 0
2, 30409, Note_on_c, 0, 57, 69
2, 30409, Note_on_c, 0, 69, 72
2, 30512, Note_on_c, 0, 50, 0
2, 30512, Note_on_c, 0, 62, 0
2, 30521, Note_on_c, 0, 50, 71
2, 30522, Note_on_c, 0, 62, 71
2, 30635, Note_on_c, 0, 54, 0
2, 30643, Note_on_c, 0, 74, 0
2, 30643, Note_on_c, 0, 78, 0
2, 30646, Note_on_c, 0, 54, 79
2, 30652, Note_on_c, 0, 78, 93
2, 30654, Note_on_c, 0, 74, 76
2, 30654, Note_on_c, 0, 66, 83
2, 30658, Note_on_c, 0, 69, 0
2, 30663, Note_on_c, 0, 69, 58
2, 30831, Note_on_c, 0, 62, 0
2, 30831, Note_on_c, 0, 69, 0
2, 30831, Note_on_c, 0, 74, 0
2, 30831, Note_on_c, 0, 57, 0
2, 30831, Note_on_c, 0, 50, 0
2, 30831, Note_on_c, 0, 66, 0
2, 30831, Note_on_c, 0, 78, 0
2, 30832, Control_c, 0, 64, 0
2, 30850, Note_on_c, 0, 54, 0
2, 30883, Note_on_c, 0, 50, 67
2, 30884, Note_on_c, 0, 38, 65
2, 30887, Note_on_c, 0, 78, 94
2, 30892, Note_on_c, 0, 69, 77
2, 30892, Note_on_c, 0, 74, 80
2, 30927, Control_c, 0, 64, 127
2, 31127, Note_on_c, 0, 78, 0
2, 31133, Note_on_c, 0, 78, 94
2, 31134, Note_on_c, 0, 50, 0
2, 31134, Note_on_c, 0, 74, 0
2, 31138, Note_on_c, 0, 74, 79
2, 31139, Note_on_c, 0, 66, 76
2, 31145, Note_on_c, 0, 50, 65
2, 31345, Control_c, 0, 64, 0
2, 31345, Note_on_c, 0, 38, 0
2, 31345, Note_on_c, 0, 69, 0
2, 31346, Note_on_c, 0, 74, 0
2, 31347, Note_on_c, 0, 66, 0
2, 31347, Note_on_c, 0, 78, 0
2, 31369, Note_on_c, 0, 79, 96
2, 31377, Note_on_c, 0, 76, 81
2, 31378, Note_on_c, 0, 67, 87
2, 31384, Note_on_c, 0, 57, 81
2, 31392, Note_on_c, 0, 54, 70
2, 31411, Control_c, 0, 64, 127
2, 31603, Note_on_c, 0, 50, 0
2, 31609, Note_on_c, 0, 50, 71
2, 31610, Note_on_c, 0, 79, 0
2, 31615, Note_on_c, 0, 81, 91
2, 31617, Note_on_c, 0, 79, 88
2, 31622, Note_on_c, 0, 69, 80
2, 31626, Note_on_c, 0, 78, 79
2, 31788, Note_on_c, 0, 57, 0
2, 31788, Control_c, 0, 64, 0
2, 31789, Note_on_c, 0, 67, 0
2, 31790, Note_on_c, 0, 54, 0
2, 31790, Note_on_c, 0, 76, 0
2, 31790, Note_on_c, 0, 69, 0
2, 31791, Note_on_c, 0, 79, 0
2, 31791, Note_on_c, 0, 81, 0
2, 31792, Note_on_c, 0, 78, 0
2, 31810, Note_on_c, 0, 50, 0
2, 31844, Note_on_c, 0, 83, 90
2, 31845, Note_on_c, 0, 71, 87
2, 31847, Note_on_c, 0, 35, 72
2, 31847, Note_on_c, 0, 47, 68
2, 31850, Note_on_c, 0, 81, 89
2, 31858, Note_on_c, 0, 78, 77
2, 31879, Control_c, 0, 64, 127
2, 32071, Note_on_c, 0, 78, 0
2, 32079, Note_on_c, 0, 47, 0
2, 32079, Note_on_c, 0, 71, 0
2, 32083, Note_on_c, 0, 78, 80
2, 32084, Note_on_c, 0, 71, 73
2, 32087, Note_on_c, 0, 47, 65
2, 32090, Note_on_c, 0, 75, 76
2, 32220, Note_on_c, 0, 51, 70
2, 32221, Note_on_c, 0, 54, 75
2, 32222, Note_on_c, 0, 59, 76
2, 32325, Note_on_c, 0, 71, 0
2, 32325, Note_on_c, 0, 75, 0
2, 32325, Note_on_c, 0, 78, 0
2, 32334, Note_on_c, 0, 78, 89
2, 32335, Note_on_c, 0, 75, 83
2, 32336, Note_on_c, 0, 71, 77
2, 32448, Note_on_c, 0, 47, 0
2, 32459, Note_on_c, 0, 47, 72
2, 32478, Note_on_c, 0, 35, 0
2, 32480, Note_on_c, 0, 54, 0
2, 32481, Note_on_c, 0, 51, 0
2, 32481, Note_on_c, 0, 75, 0
2, 32481, Note_on_c, 0, 83, 0
2, 32481, Note_on_c, 0, 81, 0
2, 32488, Control_c, 0, 64, 0
2, 32494, Note_on_c, 0, 59, 0
2, 32509, Note_on_c, 0, 71, 0
2, 32532, Control_c, 0, 64, 127
2, 32578, Note_on_c, 0, 78, 0
2, 32589, Note_on_c, 0, 78, 91
2, 32591, Note_on_c, 0, 71, 75
2, 32594, Note_on_c, 0, 75, 78
2, 32598, Note_on_c, 0, 54, 71
2, 32604, Note_on_c, 0, 59, 70
2, 32606, Note_on_c, 0, 51, 73
2, 32774, Control_c, 0, 64, 0
2, 32776, Note_on_c, 0, 51, 0
2, 32777, Note_on_c, 0, 54, 0
2, 32778, Note_on_c, 0, 47, 0
2, 32801, Note_on_c, 0, 59, 0
2, 32830, Note_on_c, 0, 35, 61
2, 32830, Note_on_c, 0, 47, 61
2, 32847, Control_c, 0, 64, 127
2, 33077, Note_on_c, 0, 47, 0
2, 33081, Note_on_c, 0, 47, 56
2, 33314, Note_on_c, 0, 76, 100
2, 33338, Note_on_c, 0, 47, 0
2, 33342, Note_on_c, 0, 59, 74
2, 33349, Note_on_c, 0, 54, 72
2, 33349, Note_on_c, 0, 47, 67
2, 33423, Note_on_c, 0, 78, 0
2, 33434, Note_on_c, 0, 78, 95
2, 33557, Note_on_c, 0, 79, 91
2, 33561, Note_on_c, 0, 47, 0
2, 33562, Note_on_c, 0, 59, 0
2, 33565, Note_on_c, 0, 47, 66
2, 33567, Note_on_c, 0, 51, 59
2, 33576, Note_on_c, 0, 51, 0
2, 33651, Note_on_c, 0, 81, 96
2, 33741, Note_on_c, 0, 75, 0
2, 33741, Note_on_c, 0, 76, 0
2, 33741, Note_on_c, 0, 71, 0
2, 33741, Note_on_c, 0, 78, 0
2, 33741, Note_on_c, 0, 54, 0
2, 33741, Note_on_c, 0, 47, 0
2, 33741, Note_on_c, 0, 79, 0
2, 33742, Note_on_c, 0, 81, 0
2, 33745, Control_c, 0, 64, 0
2, 33745, Note_on_c, 0, 35, 0
2, 33780, Note_on_c, 0, 83, 98
2, 33783, Note_on_c, 0, 71, 91
2, 33785, Note_on_c, 0, 59, 89
2, 33787, Note_on_c, 0, 78, 87
2, 33789, Note_on_c, 0, 54, 81
2, 33795, Note_on_c, 0, 47, 78
2, 33805, Note_on_c, 0, 51, 74
2, 33830, Control_c, 0, 64, 127
2, 33922, Note_on_c, 0, 47, 0
2, 33922, Note_on_c, 0, 51, 0
2, 33922, Note_on_c, 0, 54, 0
2, 33922, Note_on_c, 0, 59, 0
2, 33927, Note_on_c, 0, 54, 76
2, 33928, Note_on_c, 0, 59, 78
2, 33931, Note_on_c, 0, 47, 67
2, 33932, Note_on_c, 0, 51, 71
2, 34138, Note_on_c, 0, 83, 0
2, 34138, Control_c, 0, 64, 0
2, 34139, Note_on_c, 0, 59, 0
2, 34139, Note_on_c, 0, 54, 0
2, 34139, Note_on_c, 0, 78, 0
2, 34145, Note_on_c, 0, 47, 0
2, 34145, Note_on_c, 0, 71, 0
2, 34149, Note_on_c, 0, 81, 105
2, 34150, Note_on_c, 0, 71, 92
2, 34152, Note_on_c, 0, 51, 0
2, 34153, Note_on_c, 0, 76, 93
2, 34156, Note_on_c, 0, 47, 83
2, 34156, Note_on_c, 0, 35, 82
2, 34237, Control_c, 0, 64, 127
2, 34260, Note_on_c, 0, 47, 0
2, 34268, Note_on_c, 0, 35, 0
2, 34399, Note_on_c, 0, 47, 79
2, 34401, Note_on_c, 0, 35, 77
2, 34420, Control_c, 0, 64, 0
2, 34490, Note_on_c, 0, 71, 0
2, 34490, Note_on_c, 0, 76, 0
2, 34494, Note_on_c, 0, 79, 106
2, 34500, Note_on_c, 0, 76, 99
2, 34500, Note_on_c, 0, 71, 98
2, 34502, Note_on_c, 0, 35, 0
2, 34505, Note_on_c, 0, 81, 0
2, 34506, Note_on_c, 0, 47, 0
2, 34634, Note_on_c, 0, 47, 75
2, 34635, Note_on_c, 0, 35, 68
2, 34644, Control_c, 0, 64, 127
2, 34728, Note_on_c, 0, 71, 0
2, 34733, Note_on_c, 0, 81, 106
2, 34734, Note_on_c, 0, 71, 93
2, 34886, Note_on_c, 0, 71, 0
2, 34887, Note_on_c, 0, 76, 0
2, 34887, Note_on_c, 0, 79, 0
2, 34887, Note_on_c, 0, 47, 0
2, 34888, Note_on_c, 0, 81, 0
2, 34888, Note_on_c, 0, 35, 0
2, 34889, Control_c, 0, 64, 0
2, 34963, Note_on_c, 0, 83, 104
2, 34963, Note_on_c, 0, 71, 98
2, 34970, Note_on_c, 0, 35, 83
2, 34971, Note_on_c, 0, 75, 92
2, 34973, Note_on_c, 0, 78, 89
2, 35028, Control_c, 0, 64, 127
2, 35207, Note_on_c, 0, 47, 84
2, 35283, Control_c, 0, 64, 0
2, 35312, Note_on_c, 0, 35, 0
2, 35320, Note_on_c, 0, 47, 0
2, 35322, Note_on_c, 0, 45, 90
2, 35390, Note_on_c, 0, 45, 0
2, 35431, Note_on_c, 0, 43, 86
2, 35548, Note_on_c, 0, 42, 84
2, 35589, Note_on_c, 0, 43, 0
2, 35595, Note_on_c, 0, 42, 0
2, 35673, Note_on_c, 0, 28, 92
2, 35674, Note_on_c, 0, 40, 84
2, 35704, Control_c, 0, 64, 127
2, 35735, Note_on_c, 0, 28, 0
2, 35908, Note_on_c, 0, 79, 96
2, 35912, Note_on_c, 0, 76, 93
2, 35925, Note_on_c, 0, 52, 65
2, 36019, Note_on_c, 0, 79, 0
2, 36026, Note_on_c, 0, 76, 0
2, 36028, Note_on_c, 0, 79, 91
2, 36029, Note_on_c, 0, 55, 74
2, 36034, Note_on_c, 0, 76, 80
2, 36157, Note_on_c, 0, 55, 0
2, 36157, Note_on_c, 0, 76, 0
2, 36157, Note_on_c, 0, 79, 0
2, 36161, Note_on_c, 0, 79, 97
2, 36161, Note_on_c, 0, 64, 83
2, 36163, Note_on_c, 0, 76, 91
2, 36165, Note_on_c, 0, 55, 67
2, 36167, Note_on_c, 0, 59, 82
2, 36288, Note_on_c, 0, 52, 0
2, 36298, Note_on_c, 0, 52, 71
2, 36387, Note_on_c, 0, 79, 0
2, 36395, Note_on_c, 0, 76, 0
2, 36399, Note_on_c, 0, 79, 93
2, 36402, Note_on_c, 0, 76, 91
2, 36410, Note_on_c, 0, 59, 0
2, 36415, Note_on_c, 0, 59, 60
2, 36495, Note_on_c, 0, 55, 0
2, 36506, Note_on_c, 0, 55, 78
2, 36610, Note_on_c, 0, 75, 0
2, 36616, Control_c, 0, 64, 0
2, 36620, Note_on_c, 0, 64, 0
2, 36620, Note_on_c, 0, 59, 0
2, 36621, Note_on_c, 0, 76, 0
2, 36621, Note_on_c, 0, 79, 0
2, 36633, Note_on_c, 0, 40, 0
2, 36633, Note_on_c, 0, 71, 0
2, 36641, Note_on_c, 0, 52, 0
2, 36641, Note_on_c, 0, 55, 0
2, 36648, Note_on_c, 0, 78, 0
2, 36648, Note_on_c, 0, 83, 0
2, 36653, Note_on_c, 0, 78, 101
2, 36658, Note_on_c, 0, 74, 92
2, 36660, Note_on_c, 0, 50, 83
2, 36665, Note_on_c, 0, 38, 79
2, 36695, Control_c, 0, 64, 127
2, 36871, Note_on_c, 0, 50, 0
2, 36882, Note_on_c, 0, 50, 65
2, 36883, Note_on_c, 0, 79, 98
2, 36889, Note_on_c, 0, 76, 92
2, 36985, Note_on_c, 0, 54, 81
2, 37098, Control_c, 0, 64, 0
2, 37117, Note_on_c, 0, 74, 0
2, 37117, Note_on_c, 0, 78, 0
2, 37128, Note_on_c, 0, 74, 89
2, 37128, Note_on_c, 0, 78, 99
2, 37138, Note_on_c, 0, 62, 85
2, 37142, Note_on_c, 0, 57, 86
2, 37173, Note_on_c, 0, 54, 0
2, 37186, Note_on_c, 0, 38, 0
2, 37263, Note_on_c, 0, 50, 0
2, 37267, Note_on_c, 0, 50, 73
2, 37355, Control_c, 0, 64, 127
2, 37370, Note_on_c, 0, 74, 0
2, 37376, Note_on_c, 0, 74, 98
2, 37477, Note_on_c, 0, 54, 76
2, 37562, Note_on_c, 0, 76, 0
2, 37577, Note_on_c, 0, 57, 0
2, 37578, Note_on_c, 0, 74, 0
2, 37579, Note_on_c, 0, 54, 0
2, 37579, Control_c, 0, 64, 0
2, 37580, Note_on_c, 0, 50, 0
2, 37580, Note_on_c, 0, 78, 0
2, 37585, Note_on_c, 0, 62, 0
2, 37585, Note_on_c, 0, 79, 0
2, 37620, Note_on_c, 0, 76, 101
2, 37622, Note_on_c, 0, 72, 92
2, 37635, Note_on_c, 0, 48, 81
2, 37637, Note_on_c, 0, 36, 70
2, 37662, Control_c, 0, 64, 127
2, 37708, Note_on_c, 0, 72, 0
2, 37831, Note_on_c, 0, 48, 0
2, 37842, Note_on_c, 0, 48, 81
2, 37850, Note_on_c, 0, 83, 102
2, 37854, Note_on_c, 0, 76, 0
2, 37859, Note_on_c, 0, 72, 90
2, 37860, Note_on_c, 0, 76, 92
2, 37867, Note_on_c, 0, 79, 77
2, 37969, Control_c, 0, 64, 0
2, 37977, Note_on_c, 0, 83, 0
2, 37983, Note_on_c, 0, 83, 96
2, 37985, Note_on_c, 0, 36, 0
2, 37985, Note_on_c, 0, 76, 0
2, 37985, Note_on_c, 0, 79, 0
2, 37989, Note_on_c, 0, 71, 88
2, 37989, Note_on_c, 0, 79, 87
2, 37994, Note_on_c, 0, 76, 95
2, 37994, Note_on_c, 0, 55, 83
2, 37996, Note_on_c, 0, 60, 80
2, 38002, Note_on_c, 0, 52, 75
2, 38005, Note_on_c, 0, 72, 0
2, 38006, Note_on_c, 0, 48, 0
2, 38092, Control_c, 0, 64, 127
2, 38233, Note_on_c, 0, 48, 81
2, 38246, Note_on_c, 0, 52, 0
2, 38361, Note_on_c, 0, 52, 68
2, 38453, Note_on_c, 0, 55, 0
2, 38459, Note_on_c, 0, 55, 76
2, 38494, Note_on_c, 0, 48, 0
2, 38495, Note_on_c, 0, 55, 0
2, 38495, Note_on_c, 0, 52, 0
2, 38501, Control_c, 0, 64, 0
2, 38507, Note_on_c, 0, 60, 0
2, 38594, Note_on_c, 0, 35, 77
2, 38594, Note_on_c, 0, 47, 81
2, 38599, Control_c, 0, 64, 127
2, 38814, Note_on_c, 0, 47, 0
2, 38825, Note_on_c, 0, 47, 67
2, 38833, Note_on_c, 0, 81, 100
2, 38839, Note_on_c, 0, 78, 95
2, 38937, Note_on_c, 0, 50, 68
2, 39060, Note_on_c, 0, 81, 0
2, 39068, Note_on_c, 0, 78, 0
2, 39070, Note_on_c, 0, 54, 82
2, 39071, Note_on_c, 0, 81, 102
2, 39073, Note_on_c, 0, 78, 93
2, 39079, Note_on_c, 0, 57, 82
2, 39091, Control_c, 0, 64, 0
2, 39106, Note_on_c, 0, 35, 0
2, 39175, Control_c, 0, 64, 127
2, 39183, Note_on_c, 0, 47, 0
2, 39193, Note_on_c, 0, 47, 68
2, 39198, Note_on_c, 0, 50, 0
2, 39214, Note_on_c, 0, 79, 0
2, 39221, Note_on_c, 0, 83, 0
2, 39229, Note_on_c, 0, 76, 0
2, 39260, Note_on_c, 0, 71, 0
2, 39312, Note_on_c, 0, 74, 97
2, 39383, Note_on_c, 0, 54, 0
2, 39383, Note_on_c, 0, 57, 0
2, 39408, Note_on_c, 0, 50, 75
2, 39454, Note_on_c, 0, 47, 0
2, 39464, Note_on_c, 0, 50, 0
2, 39467, Control_c, 0, 64, 0
2, 39509, Note_on_c, 0, 74, 0
2, 39521, Note_on_c, 0, 78, 0
2, 39548, Note_on_c, 0, 76, 100
2, 39554, Note_on_c, 0, 72, 94
2, 39561, Note_on_c, 0, 45, 85
2, 39563, Note_on_c, 0, 33, 77
2, 39598, Note_on_c, 0, 81, 0
2, 39628, Control_c, 0, 64, 127
2, 39713, Note_on_c, 0, 33, 0
2, 39818, Note_on_c, 0, 52, 62
2, 39929, Note_on_c, 0, 60, 87
2, 39931, Note_on_c, 0, 57, 82
2, 40174, Note_on_c, 0, 48, 81
2, 40187, Note_on_c, 0, 60, 0
2, 40189, Note_on_c, 0, 45, 0
2, 40190, Note_on_c, 0, 52, 0
2, 40192, Note_on_c, 0, 72, 0
2, 40193, Note_on_c, 0, 57, 0
2, 40194, Control_c, 0, 64, 0
2, 40258, Control_c, 0, 64, 127
2, 40281, Note_on_c, 0, 76, 0
2, 40283, Note_on_c, 0, 79, 97
2, 40285, Note_on_c, 0, 76, 91
2, 40325, Note_on_c, 0, 52, 63
2, 40371, Note_on_c, 0, 48, 0
2, 40389, Note_on_c, 0, 76, 0
2, 40389, Note_on_c, 0, 79, 0
2, 40394, Note_on_c, 0, 55, 76
2, 40395, Note_on_c, 0, 79, 95
2, 40400, Note_on_c, 0, 76, 95
2, 40423, Control_c, 0, 64, 0
2, 40438, Note_on_c, 0, 76, 0
2, 40441, Note_on_c, 0, 79, 0
2, 40441, Note_on_c, 0, 55, 0
2, 40450, Note_on_c, 0, 52, 0
2, 40515, Note_on_c, 0, 81, 104
2, 40524, Note_on_c, 0, 35, 73
2, 40525, Note_on_c, 0, 47, 73
2, 40525, Note_on_c, 0, 74, 91
2, 40529, Note_on_c, 0, 78, 90
2, 40550, Control_c, 0, 64, 127
2, 40750, Note_on_c, 0, 47, 0
2, 40754, Note_on_c, 0, 79, 92
2, 40758, Note_on_c, 0, 76, 92
2, 40760, Note_on_c, 0, 47, 69
2, 40862, Note_on_c, 0, 50, 69
2, 40988, Note_on_c, 0, 81, 0
2, 40995, Note_on_c, 0, 81, 96
2, 40995, Note_on_c, 0, 74, 0
2, 40995, Note_on_c, 0, 78, 0
2, 40999, Note_on_c, 0, 54, 78
2, 40999, Note_on_c, 0, 78, 87
2, 41001, Note_on_c, 0, 74, 90
2, 41014, Note_on_c, 0, 57, 82
2, 41034, Note_on_c, 0, 35, 0
2, 41111, Note_on_c, 0, 47, 0
2, 41116, Note_on_c, 0, 47, 48
2, 41241, Note_on_c, 0, 74, 0
2, 41241, Note_on_c, 0, 78, 0
2, 41249, Note_on_c, 0, 78, 88
2, 41251, Note_on_c, 0, 74, 75
2, 41326, Note_on_c, 0, 50, 0
2, 41337, Note_on_c, 0, 50, 75
2, 41364, Note_on_c, 0, 76, 0
2, 41368, Note_on_c, 0, 76, 93
2, 41373, Note_on_c, 0, 72, 89
2, 41392, Control_c, 0, 64, 0
2, 41405, Note_on_c, 0, 57, 0
2, 41406, Note_on_c, 0, 79, 0
2, 41406, Note_on_c, 0, 47, 0
2, 41407, Note_on_c, 0, 54, 0
2, 41407, Note_on_c, 0, 81, 0
2, 41408, Note_on_c, 0, 50, 0
2, 41425, Note_on_c, 0, 74, 0
2, 41433, Note_on_c, 0, 78, 0
2, 41490, Note_on_c, 0, 48, 79
2, 41491, Note_on_c, 0, 36, 67
2, 41525, Control_c, 0, 64, 127
2, 41722, Note_on_c, 0, 52, 67
2, 41867, Note_on_c, 0, 55, 75
2, 41877, Note_on_c, 0, 59, 78
2, 42071, Note_on_c, 0, 48, 0
2, 42081, Note_on_c, 0, 48, 70
2, 42193, Note_on_c, 0, 76, 0
2, 42199, Note_on_c, 0, 79, 97
2, 42201, Note_on_c, 0, 52, 0
2, 42201, Note_on_c, 0, 59, 0
2, 42201, Note_on_c, 0, 76, 95
2, 42207, Note_on_c, 0, 59, 72
2, 42209, Note_on_c, 0, 52, 78
2, 42365, Note_on_c, 0, 59, 0
2, 42366, Note_on_c, 0, 55, 0
2, 42366, Note_on_c, 0, 52, 0
2, 42366, Note_on_c, 0, 72, 0
2, 42367, Note_on_c, 0, 76, 0
2, 42368, Note_on_c, 0, 79, 0
2, 42368, Control_c, 0, 64, 0
2, 42378, Note_on_c, 0, 36, 0
2, 42385, Note_on_c, 0, 48, 0
2, 42427, Note_on_c, 0, 81, 102
2, 42428, Note_on_c, 0, 50, 84
2, 42430, Note_on_c, 0, 38, 74
2, 42435, Note_on_c, 0, 78, 91
2, 42470, Control_c, 0, 64, 127
2, 42551, Note_on_c, 0, 69, 71
2, 42670, Note_on_c, 0, 79, 98
2, 42671, Note_on_c, 0, 76, 91
2, 42684, Note_on_c, 0, 57, 78
2, 42785, Note_on_c, 0, 69, 0
2, 42789, Note_on_c, 0, 69, 83
2, 42794, Note_on_c, 0, 54, 72
2, 42908, Note_on_c, 0, 78, 0
2, 42917, Note_on_c, 0, 78, 97
2, 42923, Note_on_c, 0, 50, 0
2, 42927, Note_on_c, 0, 74, 74
2, 42929, Note_on_c, 0, 50, 69
2, 43031, Note_on_c, 0, 69, 0
2, 43035, Note_on_c, 0, 69, 77
2, 43047, Note_on_c, 0, 57, 0
2, 43057, Note_on_c, 0, 45, 79
2, 43138, Note_on_c, 0, 74, 0
2, 43148, Note_on_c, 0, 74, 95
2, 43179, Note_on_c, 0, 42, 68
2, 43246, Note_on_c, 0, 50, 0
2, 43253, Note_on_c, 0, 38, 0
2, 43256, Note_on_c, 0, 50, 70
2, 43259, Note_on_c, 0, 38, 63
2, 43261, Note_on_c, 0, 69, 0
2, 43263, Note_on_c, 0, 62, 69
2, 43264, Note_on_c, 0, 66, 60
2, 43265, Note_on_c, 0, 69, 73
2, 43269, Note_on_c, 0, 66, 0
2, 43337, Note_on_c, 0, 79, 0
2, 43338, Note_on_c, 0, 42, 0
2, 43338, Control_c, 0, 64, 0
2, 43339, Note_on_c, 0, 74, 0
2, 43339, Note_on_c, 0, 76, 0
2, 43339, Note_on_c, 0, 38, 0
2, 43339, Note_on_c, 0, 54, 0
2, 43340, Note_on_c, 0, 45, 0
2, 43340, Note_on_c, 0, 69, 0
2, 43340, Note_on_c, 0, 62, 0
2, 43340, Note_on_c, 0, 78, 0
2, 43341, Note_on_c, 0, 81, 0
2, 43353, Note_on_c, 0, 50, 0
2, 43401, Note_on_c, 0, 28, 87
2, 43401, Note_on_c, 0, 40, 76
2, 43430, Control_c, 0, 64, 127
2, 43651, Note_on_c, 0, 67, 91
2, 43651, Note_on_c, 0, 79, 94
2, 43654, Note_on_c, 0, 55, 78
2, 43655, Note_on_c, 0, 76, 92
2, 43655, Note_on_c, 0, 71, 85
2, 43768, Note_on_c, 0, 55, 0
2, 43768, Note_on_c, 0, 67, 0
2, 43768, Note_on_c, 0, 71, 0
2, 43768, Note_on_c, 0, 76, 0
2, 43773, Note_on_c, 0, 67, 81
2, 43776, Note_on_c, 0, 71, 78
2, 43776, Note_on_c, 0, 59, 74
2, 43776, Note_on_c, 0, 55, 59
2, 43777, Note_on_c, 0, 76, 86
2, 43883, Note_on_c, 0, 55, 0
2, 43883, Note_on_c, 0, 67, 0
2, 43883, Note_on_c, 0, 71, 0
2, 43883, Note_on_c, 0, 76, 0
2, 43883, Note_on_c, 0, 79, 0
2, 43889, Note_on_c, 0, 67, 90
2, 43890, Note_on_c, 0, 79, 96
2, 43893, Note_on_c, 0, 71, 96
2, 43893, Note_on_c, 0, 55, 65
2, 43894, Note_on_c, 0, 76, 92
2, 43895, Note_on_c, 0, 64, 80
2, 44021, Note_on_c, 0, 59, 0
2, 44033, Note_on_c, 0, 59, 76
2, 44121, Note_on_c, 0, 55, 0
2, 44121, Note_on_c, 0, 79, 0
2, 44129, Note_on_c, 0, 67, 0
2, 44129, Note_on_c, 0, 71, 0
2, 44129, Note_on_c, 0, 76, 0
2, 44132, Note_on_c, 0, 79, 98
2, 44132, Note_on_c, 0, 55, 77
2, 44134, Note_on_c, 0, 67, 96
2, 44134, Note_on_c, 0, 71, 86
2, 44135, Note_on_c, 0, 76, 92
2, 44147, Note_on_c, 0, 64, 0
2, 44221, Note_on_c, 0, 40, 0
2, 44282, Note_on_c, 0, 28, 0
2, 44328, Control_c, 0, 64, 0
2, 44332, Note_on_c, 0, 76, 0
2, 44333, Note_on_c, 0, 71, 0
2, 44334, Note_on_c, 0, 79, 0
2, 44335, Note_on_c, 0, 67, 0
2, 44352, Note_on_c, 0, 55, 0
2, 44352, Note_on_c, 0, 59, 0
2, 44372, Note_on_c, 0, 78, 104
2, 44376, Note_on_c, 0, 74, 87
2, 44378, Note_on_c, 0, 66, 94
2, 44379, Note_on_c, 0, 50, 83
2, 44382, Note_on_c, 0, 38, 78
2, 44386, Note_on_c, 0, 71, 53
2, 44428, Control_c, 0, 64, 127
2, 44627, Note_on_c, 0, 79, 101
2, 44628, Note_on_c, 0, 38, 0
2, 44628, Note_on_c, 0, 74, 0
2, 44635, Note_on_c, 0, 67, 92
2, 44639, Note_on_c, 0, 74, 85
2, 44644, Note_on_c, 0, 55, 72
2, 44651, Note_on_c, 0, 50, 0
2, 44655, Note_on_c, 0, 50, 61
2, 44754, Note_on_c, 0, 57, 73
2, 44835, Note_on_c, 0, 66, 0
2, 44835, Note_on_c, 0, 74, 0
2, 44835, Note_on_c, 0, 78, 0
2, 44840, Note_on_c, 0, 78, 95
2, 44845, Note_on_c, 0, 74, 73
2, 44846, Note_on_c, 0, 66, 87
2, 44864, Note_on_c, 0, 62, 73
2, 44966, Note_on_c, 0, 57, 0
2, 44977, Note_on_c, 0, 57, 75
2, 45073, Note_on_c, 0, 74, 0
2, 45085, Note_on_c, 0, 74, 102
2, 45089, Note_on_c, 0, 62, 0
2, 45089, Note_on_c, 0, 66, 0
2, 45093, Note_on_c, 0, 62, 82
2, 45096, Note_on_c, 0, 66, 72
2, 45099, Note_on_c, 0, 54, 66
2, 45277, Note_on_c, 0, 54, 0
2, 45277, Note_on_c, 0, 67, 0
2, 45277, Note_on_c, 0, 79, 0
2, 45277, Note_on_c, 0, 62, 0
2, 45277, Note_on_c, 0, 74, 0
2, 45277, Note_on_c, 0, 50, 0
2, 45277, Note_on_c, 0, 66, 0
2, 45278, Control_c, 0, 64, 0
2, 45281, Note_on_c, 0, 71, 0
2, 45296, Note_on_c, 0, 55, 0
2, 45296, Note_on_c, 0, 57, 0
2, 45296, Note_on_c, 0, 78, 0
2, 45320, Note_on_c, 0, 76, 104
2, 45324, Note_on_c, 0, 64, 95
2, 45326, Note_on_c, 0, 67, 85
2, 45337, Note_on_c, 0, 48, 75
2, 45337, Note_on_c, 0, 36, 74
2, 45373, Control_c, 0, 64, 127
2, 45534, Note_on_c, 0, 36, 0
2, 45550, Note_on_c, 0, 76, 0
2, 45553, Note_on_c, 0, 83, 93
2, 45554, Note_on_c, 0, 60, 67
2, 45561, Note_on_c, 0, 79, 79
2, 45561, Note_on_c, 0, 76, 87
2, 45561, Note_on_c, 0, 72, 85
2, 45561, Note_on_c, 0, 55, 61
2, 45563, Note_on_c, 0, 52, 59
2, 45665, Note_on_c, 0, 83, 0
2, 45670, Note_on_c, 0, 83, 99
2, 45672, Note_on_c, 0, 55, 0
2, 45672, Note_on_c, 0, 60, 0
2, 45672, Note_on_c, 0, 76, 0
2, 45672, Note_on_c, 0, 79, 0
2, 45678, Note_on_c, 0, 79, 89
2, 45679, Note_on_c, 0, 76, 95
2, 45680, Note_on_c, 0, 52, 0
2, 45680, Note_on_c, 0, 60, 81
2, 45684, Note_on_c, 0, 55, 78
2, 45688, Note_on_c, 0, 52, 59
2, 45903, Note_on_c, 0, 48, 0
2, 45907, Note_on_c, 0, 48, 71
2, 46049, Note_on_c, 0, 52, 0
2, 46055, Note_on_c, 0, 52, 63
2, 46126, Note_on_c, 0, 55, 0
2, 46137, Note_on_c, 0, 55, 76
2, 46202, Note_on_c, 0, 64, 0
2, 46206, Note_on_c, 0, 48, 0
2, 46206, Note_on_c, 0, 52, 0
2, 46206, Note_on_c, 0, 60, 0
2, 46206, Note_on_c, 0, 55, 0
2, 46206, Control_c, 0, 64, 0
2, 46218, Note_on_c, 0, 67, 0
2, 46267, Note_on_c, 0, 47, 82
2, 46268, Note_on_c, 0, 35, 66
2, 46269, Note_on_c, 0, 36, 66
2, 46302, Control_c, 0, 64, 127
2, 46508, Note_on_c, 0, 81, 100
2, 46512, Note_on_c, 0, 69, 81
2, 46512, Note_on_c, 0, 50, 68
2, 46519, Note_on_c, 0, 78, 89
2, 46617, Note_on_c, 0, 81, 0
2, 46625, Note_on_c, 0, 69, 0
2, 46625, Note_on_c, 0, 78, 0
2, 46625, Note_on_c, 0, 81, 96
2, 46628, Note_on_c, 0, 54, 80
2, 46629, Note_on_c, 0, 69, 77
2, 46631, Note_on_c, 0, 78, 82
2, 46732, Note_on_c, 0, 81, 0
2, 46740, Note_on_c, 0, 69, 0
2, 46740, Note_on_c, 0, 78, 0
2, 46742, Note_on_c, 0, 81, 103
2, 46744, Note_on_c, 0, 69, 93
2, 46751, Note_on_c, 0, 78, 80
2, 46756, Note_on_c, 0, 57, 89
2, 46855, Note_on_c, 0, 54, 0
2, 46859, Note_on_c, 0, 54, 81
2, 46975, Note_on_c, 0, 74, 98
2, 46978, Note_on_c, 0, 54, 0
2, 46983, Note_on_c, 0, 66, 76
2, 46985, Note_on_c, 0, 54, 77
2, 46986, Note_on_c, 0, 50, 0
2, 46989, Note_on_c, 0, 62, 82
2, 46994, Note_on_c, 0, 50, 64
2, 47185, Note_on_c, 0, 83, 0
2, 47186, Control_c, 0, 64, 0
2, 47187, Note_on_c, 0, 74, 0
2, 47188, Note_on_c, 0, 54, 0
2, 47188, Note_on_c, 0, 69, 0
2, 47188, Note_on_c, 0, 66, 0
2, 47188, Note_on_c, 0, 62, 0
2, 47188, Note_on_c, 0, 57, 0
2, 47188, Note_on_c, 0, 81, 0
2, 47188, Note_on_c, 0, 50, 0
2, 47189, Note_on_c, 0, 78, 0
2, 47193, Note_on_c, 0, 36, 0
2, 47193, Note_on_c, 0, 79, 0
2, 47201, Note_on_c, 0, 47, 0
2, 47201, Note_on_c, 0, 72, 0
2, 47216, Note_on_c, 0, 35, 0
2, 47216, Note_on_c, 0, 76, 0
2, 47222, Note_on_c, 0, 76, 104
2, 47228, Note_on_c, 0, 67, 91
2, 47229, Note_on_c, 0, 64, 91
2, 47234, Note_on_c, 0, 33, 80
2, 47235, Note_on_c, 0, 45, 84
2, 47272, Note_on_c, 0, 33, 0
2, 47370, Control_c, 0, 64, 127
2, 47476, Note_on_c, 0, 52, 52
2, 47585, Note_on_c, 0, 67, 0
2, 47586, Note_on_c, 0, 57, 79
2, 47586, Note_on_c, 0, 60, 74
2, 47587, Note_on_c, 0, 69, 69
2, 47591, Note_on_c, 0, 67, 59
2, 47803, Note_on_c, 0, 48, 71
2, 47923, Note_on_c, 0, 76, 0
2, 47930, Note_on_c, 0, 79, 91
2, 47930, Note_on_c, 0, 67, 0
2, 47934, Note_on_c, 0, 76, 87
2, 47935, Note_on_c, 0, 67, 81
2, 47938, Note_on_c, 0, 52, 0
2, 47943, Note_on_c, 0, 52, 65
2, 48027, Note_on_c, 0, 55, 73
2, 48038, Note_on_c, 0, 67, 0
2, 48038, Note_on_c, 0, 76, 0
2, 48038, Note_on_c, 0, 79, 0
2, 48042, Note_on_c, 0, 79, 89
2, 48045, Note_on_c, 0, 67, 85
2, 48047, Note_on_c, 0, 76, 89
2, 48113, Note_on_c, 0, 60, 0
2, 48115, Note_on_c, 0, 48, 0
2, 48116, Note_on_c, 0, 69, 0
2, 48116, Note_on_c, 0, 55, 0
2, 48116, Note_on_c, 0, 64, 0
2, 48117, Note_on_c, 0, 52, 0
2, 48117, Control_c, 0, 64, 0
2, 48117, Note_on_c, 0, 79, 0
2, 48117, Note_on_c, 0, 57, 0
2, 48117, Note_on_c, 0, 67, 0
2, 48117, Note_on_c, 0, 76, 0
2, 48122, Note_on_c, 0, 45, 0
2, 48155, Note_on_c, 0, 81, 110
2, 48161, Note_on_c, 0, 69, 94
2, 48164, Note_on_c, 0, 47, 78
2, 48164, Note_on_c, 0, 35, 81
2, 48165, Note_on_c, 0, 78, 96
2, 48194, Note_on_c, 0, 69, 0
2, 48201, Note_on_c, 0, 47, 0
2, 48230, Control_c, 0, 64, 127
2, 48402, Note_on_c, 0, 79, 100
2, 48405, Note_on_c, 0, 76, 94
2, 48408, Note_on_c, 0, 67, 90
2, 48409, Note_on_c, 0, 54, 79
2, 48543, Note_on_c, 0, 57, 84
2, 48637, Note_on_c, 0, 81, 0
2, 48648, Note_on_c, 0, 81, 106
2, 48651, Note_on_c, 0, 69, 92
2, 48652, Note_on_c, 0, 54, 0
2, 48656, Note_on_c, 0, 74, 77
2, 48658, Note_on_c, 0, 54, 63
2, 48662, Note_on_c, 0, 62, 79
2, 48668, Note_on_c, 0, 78, 0
2, 48673, Note_on_c, 0, 78, 67
2, 48752, Note_on_c, 0, 57, 0
2, 48758, Note_on_c, 0, 57, 72
2, 48762, Note_on_c, 0, 55, 50
2, 48867, Note_on_c, 0, 78, 0
2, 48875, Note_on_c, 0, 54, 0
2, 48875, Note_on_c, 0, 57, 0
2, 48875, Note_on_c, 0, 69, 0
2, 48875, Note_on_c, 0, 74, 0
2, 48877, Note_on_c, 0, 78, 102
2, 48880, Note_on_c, 0, 74, 82
2, 48880, Note_on_c, 0, 54, 71
2, 48883, Note_on_c, 0, 66, 89
2, 48885, Note_on_c, 0, 69, 78
2, 48886, Note_on_c, 0, 57, 72
2, 48983, Note_on_c, 0, 78, 0
2, 48990, Note_on_c, 0, 66, 0
2, 48990, Note_on_c, 0, 74, 0
2, 48993, Note_on_c, 0, 78, 103
2, 48995, Note_on_c, 0, 74, 96
2, 48996, Note_on_c, 0, 66, 90
2, 49013, Control_c, 0, 64, 0
2, 49035, Note_on_c, 0, 76, 0
2, 49036, Note_on_c, 0, 79, 0
2, 49036, Note_on_c, 0, 81, 0
2, 49037, Note_on_c, 0, 54, 0
2, 49038, Note_on_c, 0, 57, 0
2, 49039, Note_on_c, 0, 67, 0
2, 49039, Note_on_c, 0, 62, 0
2, 49044, Note_on_c, 0, 55, 0
2, 49052, Note_on_c, 0, 35, 0
2, 49052, Note_on_c, 0, 69, 0
2, 49124, Note_on_c, 0, 48, 77
2, 49125, Note_on_c, 0, 36, 68
2, 49136, Control_c, 0, 64, 127
2, 49351, Note_on_c, 0, 52, 65
2, 49464, Note_on_c, 0, 76, 97
2, 49472, Note_on_c, 0, 72, 84
2, 49478, Note_on_c, 0, 64, 85
2, 49479, Note_on_c, 0, 55, 78
2, 49493, Note_on_c, 0, 59, 79
2, 49524, Control_c, 0, 64, 0
2, 49528, Note_on_c, 0, 36, 0
2, 49531, Note_on_c, 0, 52, 0
2, 49543, Note_on_c, 0, 66, 0
2, 49551, Note_on_c, 0, 74, 0
2, 49559, Note_on_c, 0, 78, 0
2, 49574, Control_c, 0, 64, 127
2, 49712, Note_on_c, 0, 48, 0
2, 49718, Note_on_c, 0, 48, 66
2, 49843, Note_on_c, 0, 76, 0
2, 49847, Note_on_c, 0, 79, 98
2, 49854, Note_on_c, 0, 76, 93
2, 49866, Note_on_c, 0, 48, 0
2, 49866, Note_on_c, 0, 55, 0
2, 49870, Note_on_c, 0, 48, 57
2, 49871, Note_on_c, 0, 55, 76
2, 49950, Note_on_c, 0, 76, 0
2, 49950, Note_on_c, 0, 79, 0
2, 49958, Note_on_c, 0, 79, 95
2, 49960, Note_on_c, 0, 76, 96
2, 50028, Note_on_c, 0, 59, 0
2, 50029, Note_on_c, 0, 48, 0
2, 50030, Note_on_c, 0, 64, 0
2, 50030, Control_c, 0, 64, 0
2, 50031, Note_on_c, 0, 76, 0
2, 50042, Note_on_c, 0, 55, 0
2, 50042, Note_on_c, 0, 72, 0
2, 50085, Note_on_c, 0, 81, 101
2, 50092, Note_on_c, 0, 50, 83
2, 50092, Note_on_c, 0, 78, 96
2, 50093, Note_on_c, 0, 38, 72
2, 50101, Note_on_c, 0, 79, 0
2, 50142, Note_on_c, 0, 38, 0
2, 50150, Control_c, 0, 64, 127
2, 50330, Note_on_c, 0, 79, 102
2, 50333, Note_on_c, 0, 76, 96
2, 50557, Note_on_c, 0, 78, 0
2, 50563, Note_on_c, 0, 78, 100
2, 50573, Note_on_c, 0, 74, 88
2, 50581, Note_on_c, 0, 62, 81
2, 50590, Note_on_c, 0, 57, 79
2, 50592, Note_on_c, 0, 54, 67
2, 50795, Note_on_c, 0, 76, 0
2, 50795, Note_on_c, 0, 79, 0
2, 50801, Note_on_c, 0, 76, 93
2, 50802, Note_on_c, 0, 79, 103
2, 50813, Note_on_c, 0, 50, 0
2, 50984, Note_on_c, 0, 74, 0
2, 50984, Note_on_c, 0, 57, 0
2, 50984, Note_on_c, 0, 62, 0
2, 50984, Note_on_c, 0, 54, 0
2, 50984, Note_on_c, 0, 79, 0
2, 50985, Note_on_c, 0, 81, 0
2, 50985, Note_on_c, 0, 76, 0
2, 50988, Control_c, 0, 64, 0
2, 51025, Note_on_c, 0, 78, 0
2, 51034, Note_on_c, 0, 78, 105
2, 51040, Note_on_c, 0, 40, 74
2, 51041, Note_on_c, 0, 76, 88
2, 51043, Note_on_c, 0, 52, 77
2, 51043, Note_on_c, 0, 71, 87
2, 51078, Note_on_c, 0, 40, 0
2, 51110, Control_c, 0, 64, 127
2, 51264, Note_on_c, 0, 76, 0
2, 51274, Note_on_c, 0, 76, 96
2, 51279, Note_on_c, 0, 71, 0
2, 51290, Note_on_c, 0, 71, 79
2, 51292, Note_on_c, 0, 57, 73
2, 51386, Note_on_c, 0, 71, 0
2, 51386, Note_on_c, 0, 76, 0
2, 51391, Note_on_c, 0, 71, 86
2, 51392, Note_on_c, 0, 76, 103
2, 51425, Note_on_c, 0, 64, 65
2, 51548, Note_on_c, 0, 52, 0
2, 51552, Note_on_c, 0, 52, 64
2, 51654, Note_on_c, 0, 81, 86
2, 51774, Note_on_c, 0, 83, 78
2, 51793, Note_on_c, 0, 64, 0
2, 51800, Note_on_c, 0, 64, 60
2, 51902, Note_on_c, 0, 88, 82
2, 52032, Note_on_c, 0, 52, 0
2, 52037, Note_on_c, 0, 52, 47
2, 52231, Note_on_c, 0, 57, 0
2, 52235, Note_on_c, 0, 57, 61
2, 52369, Note_on_c, 0, 64, 0
2, 52374, Note_on_c, 0, 64, 54
2, 52523, Note_on_c, 0, 52, 0
2, 52527, Note_on_c, 0, 52, 49
2, 52623, Note_on_c, 0, 81, 0
2, 52634, Note_on_c, 0, 81, 74
2, 52715, Note_on_c, 0, 64, 0
2, 52724, Note_on_c, 0, 64, 68
2, 52738, Note_on_c, 0, 83, 0
2, 52747, Note_on_c, 0, 83, 79
2, 52838, Note_on_c, 0, 88, 0
2, 52849, Note_on_c, 0, 88, 85
2, 52958, Control_c, 0, 64, 0
2, 52972, Note_on_c, 0, 80, 102
2, 52980, Note_on_c, 0, 57, 0
2, 52984, Note_on_c, 0, 71, 0
2, 52984, Note_on_c, 0, 76, 0
2, 52988, Note_on_c, 0, 78, 0
2, 52988, Note_on_c, 0, 40, 69
2, 52988, Note_on_c, 0, 64, 0
2, 52988, Note_on_c, 0, 71, 83
2, 52988, Note_on_c, 0, 83, 0
2, 52989, Note_on_c, 0, 68, 94
2, 52990, Note_on_c, 0, 76, 85
2, 53002, Note_on_c, 0, 52, 0
2, 53011, Note_on_c, 0, 81, 0
2, 53035, Note_on_c, 0, 40, 0
2, 53045, Note_on_c, 0, 88, 0
2, 53114, Control_c, 0, 64, 127
2, 53229, Note_on_c, 0, 59, 65
2, 53360, Note_on_c, 0, 64, 65
2, 53478, Note_on_c, 0, 52, 59
2, 53583, Note_on_c, 0, 80, 0
2, 53590, Note_on_c, 0, 80, 75
2, 53598, Note_on_c, 0, 59, 0
2, 53608, Note_on_c, 0, 59, 44
2, 53698, Note_on_c, 0, 59, 0
2, 53702, Note_on_c, 0, 83, 76
2, 53702, Note_on_c, 0, 59, 61
2, 53809, Note_on_c, 0, 88, 79
2, 53813, Note_on_c, 0, 64, 0
2, 53825, Note_on_c, 0, 64, 54
2, 53952, Note_on_c, 0, 52, 0
2, 53956, Note_on_c, 0, 52, 60
2, 54167, Note_on_c, 0, 59, 0
2, 54178, Note_on_c, 0, 59, 61
2, 54305, Note_on_c, 0, 64, 0
2, 54312, Note_on_c, 0, 59, 0
2, 54316, Note_on_c, 0, 64, 58
2, 54317, Note_on_c, 0, 59, 49
2, 54428, Note_on_c, 0, 52, 0
2, 54428, Note_on_c, 0, 76, 0
2, 54432, Note_on_c, 0, 52, 56
2, 54438, Note_on_c, 0, 76, 78
2, 54562, Note_on_c, 0, 78, 74
2, 54589, Note_on_c, 0, 59, 0
2, 54598, Note_on_c, 0, 59, 34
2, 54650, Note_on_c, 0, 64, 0
2, 54658, Note_on_c, 0, 52, 0
2, 54661, Note_on_c, 0, 64, 66
2, 54668, Note_on_c, 0, 52, 50
2, 54692, Note_on_c, 0, 79, 78
2, 54784, Note_on_c, 0, 81, 92
2, 54884, Note_on_c, 0, 68, 0
2, 54885, Note_on_c, 0, 80, 0
2, 54886, Note_on_c, 0, 76, 0
2, 54886, Note_on_c, 0, 88, 0
2, 54886, Note_on_c, 0, 81, 0
2, 54887, Control_c, 0, 64, 0
2, 54887, Note_on_c, 0, 78, 0
2, 54896, Note_on_c, 0, 71, 0
2, 54904, Note_on_c, 0, 59, 0
2, 54904, Note_on_c, 0, 64, 0
2, 54904, Note_on_c, 0, 83, 0
2, 54912, Note_on_c, 0, 79, 0
2, 54915, Note_on_c, 0, 83, 94
2, 54916, Note_on_c, 0, 79, 85
2, 54927, Note_on_c, 0, 52, 0
2, 54931, Note_on_c, 0, 52, 64
2, 55034, Control_c, 0, 64, 127
2, 55036, Note_on_c, 0, 52, 0
2, 55150, Note_on_c, 0, 52, 58
2, 55381, Note_on_c, 0, 81, 86
2, 55404, Control_c, 0, 64, 0
2, 55415, Note_on_c, 0, 78, 71
2, 55419, Note_on_c, 0, 59, 65
2, 55422, Note_on_c, 0, 55, 52
2, 55444, Note_on_c, 0, 79, 0
2, 55444, Note_on_c, 0, 52, 0
2, 55445, Note_on_c, 0, 83, 0
2, 55580, Control_c, 0, 64, 127
2, 55627, Note_on_c, 0, 79, 82
2, 55658, Note_on_c, 0, 76, 67
2, 55733, Note_on_c, 0, 81, 0
2, 55741, Note_on_c, 0, 78, 0
2, 55742, Note_on_c, 0, 81, 90
2, 55747, Note_on_c, 0, 78, 87
2, 55749, Note_on_c, 0, 50, 57
2, 55767, Note_on_c, 0, 79, 0
2, 55767, Note_on_c, 0, 59, 0
2, 55767, Note_on_c, 0, 76, 0
2, 55768, Note_on_c, 0, 55, 0
2, 55777, Control_c, 0, 64, 0
2, 55833, Control_c, 0, 64, 127
2, 55853, Note_on_c, 0, 48, 67
2, 55974, Note_on_c, 0, 83, 87
2, 55975, Note_on_c, 0, 79, 78
2, 55990, Note_on_c, 0, 76, 78
2, 55998, Note_on_c, 0, 55, 66
2, 56015, Note_on_c, 0, 52, 52
2, 56029, Note_on_c, 0, 50, 0
2, 56031, Control_c, 0, 64, 0
2, 56035, Note_on_c, 0, 48, 0
2, 56048, Note_on_c, 0, 78, 0
2, 56048, Note_on_c, 0, 81, 0
2, 56057, Note_on_c, 0, 55, 0
2, 56113, Note_on_c, 0, 52, 0
2, 56117, Note_on_c, 0, 48, 52
2, 56336, Note_on_c, 0, 60, 69
2, 56340, Note_on_c, 0, 55, 69
2, 56348, Control_c, 0, 64, 127
2, 56570, Note_on_c, 0, 48, 0
2, 56570, Note_on_c, 0, 83, 0
2, 56578, Note_on_c, 0, 79, 0
2, 56579, Note_on_c, 0, 83, 94
2, 56581, Note_on_c, 0, 48, 63
2, 56587, Note_on_c, 0, 79, 86
2, 56643, Note_on_c, 0, 76, 0
2, 56644, Note_on_c, 0, 60, 0
2, 56644, Note_on_c, 0, 55, 0
2, 56644, Control_c, 0, 64, 0
2, 56663, Control_c, 0, 64, 127
2, 56817, Note_on_c, 0, 81, 94
2, 56833, Note_on_c, 0, 50, 66
2, 56834, Control_c, 0, 64, 0
2, 56836, Note_on_c, 0, 78, 82
2, 56862, Note_on_c, 0, 48, 0
2, 56862, Note_on_c, 0, 79, 0
2, 56878, Note_on_c, 0, 83, 0
2, 56970, Control_c, 0, 64, 127
2, 56981, Note_on_c, 0, 50, 0
2, 57054, Control_c, 0, 64, 0
2, 57065, Note_on_c, 0, 79, 88
2, 57085, Note_on_c, 0, 50, 64
2, 57090, Note_on_c, 0, 76, 77
2, 57120, Note_on_c, 0, 78, 0
2, 57162, Control_c, 0, 64, 127
2, 57297, Control_c, 0, 64, 0
2, 57300, Note_on_c, 0, 81, 0
2, 57308, Note_on_c, 0, 81, 98
2, 57319, Note_on_c, 0, 54, 67
2, 57327, Note_on_c, 0, 57, 71
2, 57334, Note_on_c, 0, 79, 0
2, 57334, Note_on_c, 0, 78, 71
2, 57334, Note_on_c, 0, 76, 0
2, 57338, Note_on_c, 0, 50, 0
2, 57484, Control_c, 0, 64, 127
2, 57537, Note_on_c, 0, 79, 90
2, 57567, Note_on_c, 0, 76, 76
2, 57661, Note_on_c, 0, 81, 0
2, 57666, Note_on_c, 0, 81, 90
2, 57666, Note_on_c, 0, 50, 67
2, 57669, Note_on_c, 0, 78, 0
2, 57672, Control_c, 0, 64, 0
2, 57680, Note_on_c, 0, 78, 85
2, 57695, Note_on_c, 0, 79, 0
2, 57697, Note_on_c, 0, 54, 0
2, 57702, Note_on_c, 0, 57, 0
2, 57709, Note_on_c, 0, 76, 0
2, 57765, Note_on_c, 0, 52, 60
2, 57776, Control_c, 0, 64, 127
2, 57830, Note_on_c, 0, 50, 0
2, 57887, Note_on_c, 0, 55, 59
2, 57892, Note_on_c, 0, 59, 54
2, 57947, Control_c, 0, 64, 0
2, 57952, Note_on_c, 0, 83, 92
2, 57954, Note_on_c, 0, 79, 87
2, 57956, Note_on_c, 0, 76, 91
2, 57960, Note_on_c, 0, 78, 0
2, 58007, Note_on_c, 0, 81, 0
2, 58030, Note_on_c, 0, 52, 0
2, 58037, Control_c, 0, 64, 127
2, 58041, Note_on_c, 0, 52, 61
2, 58060, Note_on_c, 0, 59, 0
2, 58251, Note_on_c, 0, 64, 80
2, 58260, Note_on_c, 0, 55, 0
2, 58264, Note_on_c, 0, 55, 62
2, 58266, Control_c, 0, 64, 0
2, 58273, Note_on_c, 0, 59, 64
2, 58295, Note_on_c, 0, 52, 0
2, 58299, Note_on_c, 0, 76, 0
2, 58301, Note_on_c, 0, 79, 0
2, 58301, Note_on_c, 0, 83, 0
2, 58383, Note_on_c, 0, 66, 72
2, 58429, Control_c, 0, 64, 127
2, 58495, Note_on_c, 0, 67, 79
2, 58499, Note_on_c, 0, 52, 64
2, 58597, Note_on_c, 0, 69, 77
2, 58667, Note_on_c, 0, 66, 0
2, 58667, Control_c, 0, 64, 0
2, 58669, Note_on_c, 0, 67, 0
2, 58670, Note_on_c, 0, 59, 0
2, 58670, Note_on_c, 0, 52, 0
2, 58672, Note_on_c, 0, 69, 0
2, 58675, Note_on_c, 0, 64, 0
2, 58682, Note_on_c, 0, 55, 0
2, 58725, Note_on_c, 0, 71, 92
2, 58751, Note_on_c, 0, 67, 70
2, 58751, Note_on_c, 0, 52, 64
2, 58751, Note_on_c, 0, 64, 66
2, 58844, Note_on_c, 0, 52, 0
2, 58905, Control_c, 0, 64, 127
2, 58992, Note_on_c, 0, 52, 56
2, 59209, Note_on_c, 0, 69, 81
2, 59231, Control_c, 0, 64, 0
2, 59233, Note_on_c, 0, 52, 0
2, 59233, Note_on_c, 0, 64, 0
2, 59234, Note_on_c, 0, 71, 0
2, 59235, Note_on_c, 0, 66, 76
2, 59236, Note_on_c, 0, 67, 0
2, 59239, Note_on_c, 0, 55, 63
2, 59239, Note_on_c, 0, 59, 66
2, 59389, Control_c, 0, 64, 127
2, 59453, Note_on_c, 0, 67, 73
2, 59479, Note_on_c, 0, 64, 72
2, 59566, Note_on_c, 0, 69, 0
2, 59576, Note_on_c, 0, 69, 83
2, 59586, Note_on_c, 0, 50, 56
2, 59589, Note_on_c, 0, 66, 0
2, 59592, Note_on_c, 0, 55, 0
2, 59593, Note_on_c, 0, 67, 0
2, 59593, Note_on_c, 0, 59, 0
2, 59595, Note_on_c, 0, 66, 67
2, 59595, Control_c, 0, 64, 0
2, 59600, Note_on_c, 0, 64, 0
2, 59663, Note_on_c, 0, 48, 70
2, 59699, Note_on_c, 0, 50, 0
2, 59803, Note_on_c, 0, 48, 0
2, 59804, Note_on_c, 0, 71, 86
2, 59805, Note_on_c, 0, 66, 0
2, 59813, Note_on_c, 0, 67, 80
2, 59814, Note_on_c, 0, 52, 64
2, 59815, Note_on_c, 0, 64, 62
2, 59815, Note_on_c, 0, 55, 65
2, 59827, Note_on_c, 0, 69, 0
2, 59868, Note_on_c, 0, 55, 0
2, 59904, Note_on_c, 0, 52, 0
2, 59931, Note_on_c, 0, 48, 66
2, 60135, Note_on_c, 0, 64, 0
2, 60162, Note_on_c, 0, 60, 68
2, 60164, Note_on_c, 0, 55, 69
2, 60195, Control_c, 0, 64, 127
2, 60203, Note_on_c, 0, 67, 0
2, 60207, Note_on_c, 0, 67, 41
2, 60369, Control_c, 0, 64, 0
2, 60403, Note_on_c, 0, 71, 0
2, 60407, Note_on_c, 0, 71, 86
2, 60410, Note_on_c, 0, 48, 0
2, 60410, Note_on_c, 0, 67, 0
2, 60410, Control_c, 0, 64, 127
2, 60415, Note_on_c, 0, 67, 72
2, 60422, Note_on_c, 0, 48, 66
2, 60495, Note_on_c, 0, 55, 0
2, 60503, Note_on_c, 0, 60, 0
2, 60503, Note_on_c, 0, 71, 0
2, 60509, Note_on_c, 0, 71, 83
2, 60526, Note_on_c, 0, 67, 0
2, 60530, Note_on_c, 0, 67, 69
2, 60592, Note_on_c, 0, 67, 0
2, 60599, Note_on_c, 0, 71, 0
2, 60599, Control_c, 0, 64, 0
2, 60618, Note_on_c, 0, 48, 0
2, 60642, Note_on_c, 0, 69, 81
2, 60659, Note_on_c, 0, 66, 77
2, 60667, Note_on_c, 0, 50, 69
2, 60733, Control_c, 0, 64, 127
2, 60874, Note_on_c, 0, 67, 76
2, 60888, Control_c, 0, 64, 0
2, 60894, Note_on_c, 0, 50, 0
2, 60896, Note_on_c, 0, 66, 0
2, 60898, Note_on_c, 0, 64, 68
2, 60898, Note_on_c, 0, 69, 0
2, 60904, Note_on_c, 0, 50, 55
2, 60921, Note_on_c, 0, 67, 0
2, 60921, Note_on_c, 0, 64, 0
2, 60956, Control_c, 0, 64, 127
2, 61006, Note_on_c, 0, 67, 71
2, 61010, Note_on_c, 0, 64, 67
2, 61034, Control_c, 0, 64, 0
2, 61053, Note_on_c, 0, 64, 0
2, 61053, Note_on_c, 0, 67, 0
2, 61124, Note_on_c, 0, 69, 85
2, 61145, Note_on_c, 0, 66, 76
2, 61146, Note_on_c, 0, 57, 71
2, 61147, Note_on_c, 0, 54, 68
2, 61201, Control_c, 0, 64, 127
2, 61343, Note_on_c, 0, 67, 78
2, 61383, Note_on_c, 0, 64, 54
2, 61463, Note_on_c, 0, 64, 0
2, 61463, Note_on_c, 0, 67, 0
2, 61470, Note_on_c, 0, 67, 79
2, 61470, Note_on_c, 0, 64, 77
2, 61482, Control_c, 0, 64, 0
2, 61489, Note_on_c, 0, 54, 0
2, 61489, Note_on_c, 0, 57, 0
2, 61490, Note_on_c, 0, 66, 0
2, 61490, Note_on_c, 0, 69, 0
2, 61501, Note_on_c, 0, 50, 0
2, 61505, Note_on_c, 0, 50, 24
2, 61570, Note_on_c, 0, 50, 0
2, 61585, Control_c, 0, 64, 127
2, 61599, Note_on_c, 0, 52, 69
2, 61728, Note_on_c, 0, 55, 69
2, 61750, Note_on_c, 0, 59, 66
2, 61831, Note_on_c, 0, 52, 0
2, 61839, Note_on_c, 0, 52, 77
2, 62056, Note_on_c, 0, 95, 110
2, 62061, Note_on_c, 0, 83, 103
2, 62062, Note_on_c, 0, 64, 0
2, 62073, Note_on_c, 0, 64, 72
2, 62077, Note_on_c, 0, 59, 0
2, 62085, Note_on_c, 0, 55, 0
2, 62088, Note_on_c, 0, 59, 71
2, 62091, Note_on_c, 0, 55, 60
2, 62180, Note_on_c, 0, 93, 104
2, 62182, Note_on_c, 0, 81, 99
2, 62261, Note_on_c, 0, 52, 0
2, 62268, Note_on_c, 0, 52, 76
2, 62282, Note_on_c, 0, 91, 101
2, 62285, Note_on_c, 0, 79, 95
2, 62392, Note_on_c, 0, 81, 0
2, 62392, Note_on_c, 0, 93, 0
2, 62392, Note_on_c, 0, 95, 0
2, 62400, Note_on_c, 0, 52, 0
2, 62402, Note_on_c, 0, 95, 102
2, 62402, Note_on_c, 0, 81, 90
2, 62403, Note_on_c, 0, 93, 87
2, 62409, Note_on_c, 0, 52, 63
2, 62415, Note_on_c, 0, 83, 0
2, 62426, Note_on_c, 0, 83, 70
2, 62446, Note_on_c, 0, 64, 0
2, 62447, Note_on_c, 0, 81, 0
2, 62448, Note_on_c, 0, 52, 0
2, 62448, Note_on_c, 0, 55, 0
2, 62448, Note_on_c, 0, 79, 0
2, 62449, Note_on_c, 0, 59, 0
2, 62450, Note_on_c, 0, 83, 0
2, 62450, Note_on_c, 0, 93, 0
2, 62450, Note_on_c, 0, 95, 0
2, 62450, Note_on_c, 0, 91, 0
2, 62457, Control_c, 0, 64, 0
2, 62461, Note_on_c, 0, 67, 0
2, 62526, Note_on_c, 0, 88, 102
2, 62529, Note_on_c, 0, 76, 104
2, 62534, Note_on_c, 0, 40, 70
2, 62542, Note_on_c, 0, 52, 65
2, 62561, Control_c, 0, 64, 127
2, 62753, Note_on_c, 0, 40, 0
2, 62753, Note_on_c, 0, 52, 0
2, 62764, Note_on_c, 0, 52, 54
2, 62764, Note_on_c, 0, 40, 50
2, 62983, Note_on_c, 0, 59, 78
2, 62986, Note_on_c, 0, 55, 73
2, 63214, Note_on_c, 0, 40, 0
2, 63221, Note_on_c, 0, 40, 55
2, 63323, Note_on_c, 0, 47, 73
2, 63410, Control_c, 0, 64, 0
2, 63412, Note_on_c, 0, 55, 0
2, 63412, Note_on_c, 0, 52, 0
2, 63413, Note_on_c, 0, 40, 0
2, 63415, Note_on_c, 0, 59, 0
2, 63417, Note_on_c, 0, 47, 0
2, 63467, Note_on_c, 0, 36, 73
2, 63470, Note_on_c, 0, 48, 83
2, 63498, Control_c, 0, 64, 127
2, 63690, Note_on_c, 0, 48, 0
2, 63695, Note_on_c, 0, 48, 75
2, 63912, Note_on_c, 0, 88, 0
2, 63920, Note_on_c, 0, 76, 0
2, 63923, Note_on_c, 0, 88, 104
2, 63925, Note_on_c, 0, 76, 106
2, 63929, Note_on_c, 0, 55, 79
2, 63934, Note_on_c, 0, 43, 71
2, 63945, Note_on_c, 0, 52, 76
2, 64042, Note_on_c, 0, 91, 109
2, 64045, Note_on_c, 0, 79, 108
2, 64151, Note_on_c, 0, 81, 106
2, 64153, Note_on_c, 0, 93, 105
2, 64158, Note_on_c, 0, 38, 63
2, 64166, Note_on_c, 0, 38, 0
2, 64169, Note_on_c, 0, 45, 67
2, 64170, Note_on_c, 0, 50, 64
2, 64220, Note_on_c, 0, 43, 0
2, 64255, Note_on_c, 0, 95, 108
2, 64260, Note_on_c, 0, 83, 94
2, 64340, Control_c, 0, 64, 0
2, 64340, Note_on_c, 0, 52, 0
2, 64340, Note_on_c, 0, 91, 0
2, 64340, Note_on_c, 0, 79, 0
2, 64340, Note_on_c, 0, 48, 0
2, 64340, Note_on_c, 0, 55, 0
2, 64341, Note_on_c, 0, 76, 0
2, 64341, Note_on_c, 0, 88, 0
2, 64342, Note_on_c, 0, 45, 0
2, 64343, Note_on_c, 0, 50, 0
2, 64343, Note_on_c, 0, 83, 0
2, 64344, Note_on_c, 0, 95, 0
2, 64350, Note_on_c, 0, 36, 0
2, 64373, Note_on_c, 0, 81, 0
2, 64373, Note_on_c, 0, 93, 0
2, 64378, Note_on_c, 0, 93, 113
2, 64378, Note_on_c, 0, 81, 113
2, 64384, Note_on_c, 0, 90, 105
2, 64386, Note_on_c, 0, 86, 92
2, 64387, Note_on_c, 0, 47, 91
2, 64388, Note_on_c, 0, 35, 92
2, 64412, Control_c, 0, 64, 127
2, 64458, Note_on_c, 0, 47, 0
2, 64700, Note_on_c, 0, 81, 0
2, 64700, Control_c, 0, 64, 0
2, 64701, Note_on_c, 0, 35, 0
2, 64734, Note_on_c, 0, 86, 0
2, 64734, Note_on_c, 0, 93, 0
2, 64740, Note_on_c, 0, 93, 107
2, 64742, Note_on_c, 0, 90, 0
2, 64743, Note_on_c, 0, 98, 109
2, 64744, Note_on_c, 0, 86, 104
2, 64746, Note_on_c, 0, 90, 103
2, 64747, Note_on_c, 0, 38, 91
2, 64752, Note_on_c, 0, 50, 94
2, 64780, Control_c, 0, 64, 127
2, 65107, Note_on_c, 0, 98, 0
2, 65108, Note_on_c, 0, 93, 0
2, 65109, Control_c, 0, 64, 0
2, 65110, Note_on_c, 0, 86, 0
2, 65110, Note_on_c, 0, 90, 0
2, 65111, Note_on_c, 0, 38, 0
2, 65111, Note_on_c, 0, 50, 0
2, 65121, Note_on_c, 0, 100, 114
2, 65128, Note_on_c, 0, 88, 107
2, 65130, Note_on_c, 0, 95, 98
2, 65130, Note_on_c, 0, 91, 91
2, 65131, Note_on_c, 0, 28, 91
2, 65131, Note_on_c, 0, 40, 79
2, 65533, Control_c, 0, 64, 127
2, 66141, Note_on_c, 0, 40, 0
2, 66151, Control_c, 0, 64, 0
2, 66163, Note_on_c, 0, 28, 0
2, 66193, Note_on_c, 0, 88, 0
2, 66232, Note_on_c, 0, 91, 0
2, 66263, Note_on_c, 0, 95, 0
2, 66286, Note_on_c, 0, 100, 0
2, 68966, Control_c, 0, 64, 127
2, 69089, Control_c, 0, 64, 0
2, 69090, End_track
0, 0, End_of_file
