0, 0, Header, 1, 2, 384
1, 0, Start_track
1, 0, Tempo, 500000
1, 0, Time_signature, 4, 2, 24, 8
1, 1, End_track
2, 0, Start_track
2, 2035, Control_c, 0, 64, 127
2, 3092, Note_on_c, 0, 58, 65
2, 3092, Note_on_c, 0, 60, 65
2, 3095, Note_on_c, 0, 50, 51
2, 3100, Note_on_c, 0, 57, 56
2, 3105, Note_on_c, 0, 43, 52
2, 3485, Note_on_c, 0, 62, 82
2, 3870, Note_on_c, 0, 60, 0
2, 3878, Note_on_c, 0, 58, 0
2, 3878, Note_on_c, 0, 65, 71
2, 3880, Note_on_c, 0, 60, 56
2, 3889, Note_on_c, 0, 58, 51
2, 3897, Note_on_c, 0, 55, 51
2, 4638, Note_on_c, 0, 65, 0
2, 4649, Note_on_c, 0, 65, 57
2, 4661, Note_on_c, 0, 60, 0
2, 4669, Note_on_c, 0, 55, 0
2, 4673, Note_on_c, 0, 60, 56
2, 4677, Note_on_c, 0, 58, 0
2, 4678, Note_on_c, 0, 55, 59
2, 4680, Note_on_c, 0, 58, 58
2, 4687, Note_on_c, 0, 67, 78
2, 4730, Note_on_c, 0, 57, 0
2, 4733, Note_on_c, 0, 43, 0
2, 4734, Note_on_c, 0, 62, 0
2, 4734, Note_on_c, 0, 50, 0
2, 5068, Note_on_c, 0, 58, 0
2, 5079, Note_on_c, 0, 58, 71
2, 5452, Note_on_c, 0, 60, 0
2, 5460, Note_on_c, 0, 55, 0
2, 5460, Note_on_c, 0, 58, 0
2, 5461, Note_on_c, 0, 60, 49
2, 5465, Note_on_c, 0, 58, 47
2, 5471, Note_on_c, 0, 55, 43
2, 6236, Note_on_c, 0, 58, 0
2, 6238, Note_on_c, 0, 55, 0
2, 6239, Control_c, 0, 64, 0
2, 6239, Note_on_c, 0, 67, 0
2, 6289, Note_on_c, 0, 60, 0
2, 6294, Note_on_c, 0, 60, 83
2, 6296, Note_on_c, 0, 58, 82
2, 6301, Note_on_c, 0, 53, 69
2, 6304, Note_on_c, 0, 46, 59
2, 6307, Note_on_c, 0, 39, 64
2, 6309, Note_on_c, 0, 51, 64
2, 6336, Note_on_c, 0, 65, 0
2, 6435, Control_c, 0, 64, 127
2, 6697, Note_on_c, 0, 62, 90
2, 7073, Note_on_c, 0, 60, 0
2, 7075, Note_on_c, 0, 65, 81
2, 7080, Note_on_c, 0, 58, 0
2, 7082, Note_on_c, 0, 60, 64
2, 7085, Note_on_c, 0, 58, 59
2, 7091, Note_on_c, 0, 55, 63
2, 7833, Note_on_c, 0, 65, 0
2, 7841, Note_on_c, 0, 60, 0
2, 7843, Note_on_c, 0, 65, 64
2, 7848, Note_on_c, 0, 58, 0
2, 7852, Note_on_c, 0, 60, 62
2, 7859, Note_on_c, 0, 58, 65
2, 7864, Note_on_c, 0, 55, 0
2, 7868, Note_on_c, 0, 55, 60
2, 7875, Control_c, 0, 64, 0
2, 7883, Note_on_c, 0, 67, 88
2, 7902, Control_c, 0, 64, 127
2, 8263, Note_on_c, 0, 58, 0
2, 8270, Note_on_c, 0, 58, 81
2, 8647, Note_on_c, 0, 58, 0
2, 8647, Note_on_c, 0, 60, 0
2, 8653, Note_on_c, 0, 60, 63
2, 8659, Note_on_c, 0, 58, 56
2, 8663, Note_on_c, 0, 55, 0
2, 8667, Note_on_c, 0, 55, 59
2, 9388, Note_on_c, 0, 67, 0
2, 9388, Note_on_c, 0, 60, 0
2, 9388, Note_on_c, 0, 58, 0
2, 9389, Note_on_c, 0, 55, 0
2, 9389, Note_on_c, 0, 62, 0
2, 9390, Note_on_c, 0, 46, 0
2, 9390, Note_on_c, 0, 65, 0
2, 9390, Note_on_c, 0, 51, 0
2, 9400, Note_on_c, 0, 39, 0
2, 9410, Control_c, 0, 64, 0
2, 9415, Note_on_c, 0, 53, 0
2, 9473, Note_on_c, 0, 58, 88
2, 9480, Note_on_c, 0, 46, 69
2, 9482, Note_on_c, 0, 34, 66
2, 9492, Control_c, 0, 64, 127
2, 9502, Note_on_c, 0, 53, 69
2, 9503, Note_on_c, 0, 55, 64
2, 9623, Note_on_c, 0, 34, 0
2, 9854, Note_on_c, 0, 60, 90
2, 10268, Note_on_c, 0, 46, 0
2, 10268, Note_on_c, 0, 58, 0
2, 10275, Note_on_c, 0, 53, 0
2, 10276, Note_on_c, 0, 58, 69
2, 10279, Note_on_c, 0, 65, 91
2, 10279, Note_on_c, 0, 46, 61
2, 10281, Note_on_c, 0, 53, 60
2, 10283, Note_on_c, 0, 55, 0
2, 10288, Note_on_c, 0, 55, 66
2, 11013, Note_on_c, 0, 58, 0
2, 11021, Note_on_c, 0, 58, 55
2, 11027, Control_c, 0, 64, 0
2, 11028, Note_on_c, 0, 55, 0
2, 11039, Note_on_c, 0, 55, 61
2, 11043, Note_on_c, 0, 53, 0
2, 11048, Note_on_c, 0, 53, 55
2, 11051, Note_on_c, 0, 60, 0
2, 11058, Note_on_c, 0, 60, 85
2, 11059, Control_c, 0, 64, 127
2, 11450, Note_on_c, 0, 58, 0
2, 11456, Note_on_c, 0, 58, 84
2, 11842, Note_on_c, 0, 53, 0
2, 11842, Note_on_c, 0, 55, 0
2, 11849, Note_on_c, 0, 55, 54
2, 11849, Note_on_c, 0, 53, 58
2, 12608, Note_on_c, 0, 53, 0
2, 12612, Control_c, 0, 64, 0
2, 12612, Note_on_c, 0, 46, 0
2, 12648, Note_on_c, 0, 58, 0
2, 12648, Note_on_c, 0, 65, 0
2, 12655, Note_on_c, 0, 65, 84
2, 12659, Note_on_c, 0, 58, 75
2, 12664, Note_on_c, 0, 55, 0
2, 12664, Note_on_c, 0, 60, 0
2, 12664, Control_c, 0, 64, 127
2, 12668, Note_on_c, 0, 48, 61
2, 12675, Note_on_c, 0, 55, 65
2, 12675, Note_on_c, 0, 60, 69
2, 12725, Control_c, 0, 64, 0
2, 12979, Control_c, 0, 64, 127
2, 13058, Note_on_c, 0, 67, 88
2, 13071, Note_on_c, 0, 62, 79
2, 13432, Note_on_c, 0, 65, 0
2, 13440, Note_on_c, 0, 65, 81
2, 13447, Note_on_c, 0, 55, 0
2, 13447, Note_on_c, 0, 58, 0
2, 13455, Note_on_c, 0, 58, 60
2, 13455, Note_on_c, 0, 60, 0
2, 13456, Note_on_c, 0, 55, 61
2, 13459, Note_on_c, 0, 60, 53
2, 14192, Note_on_c, 0, 65, 0
2, 14196, Note_on_c, 0, 65, 62
2, 14208, Note_on_c, 0, 58, 0
2, 14215, Note_on_c, 0, 58, 52
2, 14215, Note_on_c, 0, 60, 0
2, 14220, Note_on_c, 0, 60, 48
2, 14238, Note_on_c, 0, 55, 0
2, 14238, Note_on_c, 0, 67, 0
2, 14243, Note_on_c, 0, 55, 62
2, 14244, Note_on_c, 0, 67, 76
2, 14638, Note_on_c, 0, 58, 0
2, 14643, Note_on_c, 0, 58, 69
2, 15533, Control_c, 0, 64, 0
2, 15543, Note_on_c, 0, 67, 0
2, 15546, Note_on_c, 0, 65, 0
2, 15547, Note_on_c, 0, 62, 0
2, 15547, Note_on_c, 0, 55, 0
2, 15547, Note_on_c, 0, 58, 0
2, 15548, Note_on_c, 0, 48, 0
2, 15549, Note_on_c, 0, 60, 0
2, 15885, Note_on_c, 0, 72, 95
2, 15891, Note_on_c, 0, 55, 58
2, 15899, Note_on_c, 0, 58, 68
2, 15899, Note_on_c, 0, 43, 61
2, 15903, Note_on_c, 0, 50, 54
2, 15903, Note_on_c, 0, 65, 67
2, 15905, Note_on_c, 0, 60, 62
2, 16028, Control_c, 0, 64, 127
2, 16294, Note_on_c, 0, 62, 73
2, 16673, Note_on_c, 0, 72, 0
2, 16679, Note_on_c, 0, 72, 97
2, 16680, Note_on_c, 0, 55, 0
2, 16680, Note_on_c, 0, 62, 0
2, 16680, Note_on_c, 0, 65, 0
2, 16684, Note_on_c, 0, 65, 68
2, 16685, Note_on_c, 0, 62, 66
2, 16688, Note_on_c, 0, 58, 0
2, 16691, Note_on_c, 0, 55, 65
2, 16693, Note_on_c, 0, 58, 68
2, 16695, Note_on_c, 0, 67, 66
2, 16730, Control_c, 0, 64, 0
2, 16734, Note_on_c, 0, 60, 0
2, 16757, Control_c, 0, 64, 127
2, 17280, Note_on_c, 0, 67, 0
2, 17448, Note_on_c, 0, 58, 0
2, 17453, Note_on_c, 0, 58, 69
2, 17464, Note_on_c, 0, 55, 0
2, 17464, Note_on_c, 0, 62, 0
2, 17464, Note_on_c, 0, 72, 0
2, 17467, Control_c, 0, 64, 0
2, 17469, Note_on_c, 0, 55, 67
2, 17473, Note_on_c, 0, 62, 74
2, 17475, Note_on_c, 0, 72, 99
2, 17480, Note_on_c, 0, 67, 78
2, 17518, Control_c, 0, 64, 127
2, 17702, Note_on_c, 0, 50, 0
2, 17871, Note_on_c, 0, 58, 0
2, 17877, Note_on_c, 0, 58, 72
2, 18270, Note_on_c, 0, 55, 0
2, 18270, Note_on_c, 0, 72, 0
2, 18278, Note_on_c, 0, 58, 0
2, 18278, Note_on_c, 0, 67, 0
2, 18279, Note_on_c, 0, 72, 95
2, 18281, Note_on_c, 0, 55, 67
2, 18283, Control_c, 0, 64, 0
2, 18285, Note_on_c, 0, 67, 66
2, 18286, Note_on_c, 0, 60, 69
2, 18288, Note_on_c, 0, 58, 66
2, 18339, Note_on_c, 0, 65, 0
2, 18347, Control_c, 0, 64, 127
2, 18362, Note_on_c, 0, 43, 0
2, 18577, Note_on_c, 0, 74, 99
2, 18823, Note_on_c, 0, 72, 0
2, 18833, Note_on_c, 0, 72, 95
2, 18956, Note_on_c, 0, 70, 78
2, 19065, Note_on_c, 0, 74, 0
2, 19071, Note_on_c, 0, 70, 0
2, 19073, Control_c, 0, 64, 0
2, 19077, Note_on_c, 0, 58, 0
2, 19084, Note_on_c, 0, 62, 0
2, 19092, Note_on_c, 0, 67, 0
2, 19100, Note_on_c, 0, 72, 0
2, 19104, Note_on_c, 0, 72, 100
2, 19107, Note_on_c, 0, 55, 0
2, 19107, Note_on_c, 0, 60, 0
2, 19110, Note_on_c, 0, 48, 67
2, 19110, Note_on_c, 0, 41, 67
2, 19111, Note_on_c, 0, 60, 82
2, 19117, Note_on_c, 0, 55, 69
2, 19118, Note_on_c, 0, 65, 76
2, 19120, Note_on_c, 0, 70, 72
2, 19200, Control_c, 0, 64, 127
2, 19501, Note_on_c, 0, 62, 78
2, 19891, Note_on_c, 0, 41, 0
2, 19891, Note_on_c, 0, 72, 0
2, 19895, Note_on_c, 0, 72, 93
2, 19898, Note_on_c, 0, 60, 0
2, 19898, Note_on_c, 0, 65, 0
2, 19900, Note_on_c, 0, 58, 76
2, 19900, Note_on_c, 0, 53, 71
2, 19902, Note_on_c, 0, 41, 62
2, 19905, Note_on_c, 0, 65, 68
2, 19909, Note_on_c, 0, 60, 69
2, 19914, Note_on_c, 0, 70, 0
2, 19922, Note_on_c, 0, 70, 63
2, 20659, Note_on_c, 0, 41, 0
2, 20659, Note_on_c, 0, 53, 0
2, 20666, Note_on_c, 0, 58, 0
2, 20666, Note_on_c, 0, 72, 0
2, 20669, Note_on_c, 0, 41, 69
2, 20670, Note_on_c, 0, 53, 73
2, 20671, Note_on_c, 0, 67, 78
2, 20671, Note_on_c, 0, 58, 76
2, 20672, Note_on_c, 0, 72, 89
2, 20682, Note_on_c, 0, 60, 0
2, 20686, Note_on_c, 0, 60, 66
2, 20710, Control_c, 0, 64, 0
2, 20715, Note_on_c, 0, 48, 0
2, 20716, Note_on_c, 0, 55, 0
2, 20766, Control_c, 0, 64, 127
2, 21050, Note_on_c, 0, 58, 0
2, 21056, Note_on_c, 0, 58, 62
2, 21450, Note_on_c, 0, 58, 0
2, 21457, Note_on_c, 0, 53, 0
2, 21457, Note_on_c, 0, 60, 0
2, 21461, Note_on_c, 0, 74, 95
2, 21461, Note_on_c, 0, 58, 71
2, 21462, Note_on_c, 0, 53, 68
2, 21465, Note_on_c, 0, 70, 0
2, 21468, Note_on_c, 0, 60, 67
2, 21470, Note_on_c, 0, 70, 73
2, 21742, Note_on_c, 0, 72, 0
2, 21745, Note_on_c, 0, 77, 99
2, 21749, Note_on_c, 0, 72, 95
2, 21995, Note_on_c, 0, 70, 0
2, 21995, Note_on_c, 0, 74, 0
2, 22002, Note_on_c, 0, 74, 103
2, 22004, Note_on_c, 0, 70, 99
2, 22222, Control_c, 0, 64, 0
2, 22228, Note_on_c, 0, 60, 0
2, 22231, Note_on_c, 0, 77, 0
2, 22233, Note_on_c, 0, 70, 0
2, 22239, Note_on_c, 0, 67, 0
2, 22246, Note_on_c, 0, 74, 0
2, 22248, Note_on_c, 0, 41, 0
2, 22248, Note_on_c, 0, 53, 0
2, 22248, Note_on_c, 0, 72, 0
2, 22254, Note_on_c, 0, 53, 79
2, 22256, Note_on_c, 0, 58, 0
2, 22259, Note_on_c, 0, 72, 99
2, 22264, Note_on_c, 0, 62, 0
2, 22264, Note_on_c, 0, 65, 0
2, 22267, Note_on_c, 0, 46, 72
2, 22269, Note_on_c, 0, 65, 79
2, 22273, Note_on_c, 0, 51, 77
2, 22274, Note_on_c, 0, 39, 73
2, 22287, Control_c, 0, 64, 127
2, 22652, Note_on_c, 0, 70, 95
2, 22659, Note_on_c, 0, 62, 80
2, 23040, Note_on_c, 0, 65, 0
2, 23047, Note_on_c, 0, 51, 0
2, 23050, Note_on_c, 0, 58, 78
2, 23051, Note_on_c, 0, 65, 82
2, 23052, Note_on_c, 0, 55, 72
2, 23058, Note_on_c, 0, 51, 64
2, 23808, Note_on_c, 0, 55, 0
2, 23808, Note_on_c, 0, 58, 0
2, 23815, Note_on_c, 0, 46, 0
2, 23815, Note_on_c, 0, 51, 0
2, 23819, Note_on_c, 0, 55, 74
2, 23819, Note_on_c, 0, 58, 64
2, 23820, Note_on_c, 0, 51, 62
2, 23824, Note_on_c, 0, 46, 59
2, 23843, Control_c, 0, 64, 0
2, 23843, Note_on_c, 0, 53, 0
2, 23844, Note_on_c, 0, 62, 0
2, 23846, Note_on_c, 0, 70, 0
2, 23864, Note_on_c, 0, 60, 83
2, 23877, Control_c, 0, 64, 127
2, 24245, Note_on_c, 0, 58, 0
2, 24256, Note_on_c, 0, 58, 71
2, 24629, Note_on_c, 0, 58, 0
2, 24633, Note_on_c, 0, 67, 92
2, 24634, Note_on_c, 0, 58, 78
2, 24637, Note_on_c, 0, 51, 0
2, 24645, Note_on_c, 0, 55, 0
2, 24645, Note_on_c, 0, 51, 70
2, 24647, Note_on_c, 0, 63, 65
2, 24649, Note_on_c, 0, 55, 67
2, 24890, Note_on_c, 0, 67, 0
2, 24901, Note_on_c, 0, 67, 93
2, 24960, Note_on_c, 0, 39, 0
2, 24960, Note_on_c, 0, 72, 0
2, 25148, Note_on_c, 0, 74, 98
2, 25354, Note_on_c, 0, 55, 0
2, 25413, Note_on_c, 0, 65, 0
2, 25413, Note_on_c, 0, 72, 101
2, 25420, Note_on_c, 0, 67, 0
2, 25424, Control_c, 0, 64, 0
2, 25424, Note_on_c, 0, 43, 62
2, 25427, Note_on_c, 0, 36, 68
2, 25427, Note_on_c, 0, 67, 80
2, 25428, Note_on_c, 0, 51, 0
2, 25429, Note_on_c, 0, 58, 0
2, 25433, Note_on_c, 0, 74, 0
2, 25433, Note_on_c, 0, 51, 72
2, 25443, Note_on_c, 0, 46, 0
2, 25612, Note_on_c, 0, 60, 0
2, 25689, Control_c, 0, 64, 127
2, 25812, Note_on_c, 0, 62, 78
2, 26196, Note_on_c, 0, 65, 85
2, 26200, Note_on_c, 0, 58, 73
2, 26201, Note_on_c, 0, 55, 64
2, 26995, Note_on_c, 0, 67, 0
2, 26995, Note_on_c, 0, 45, 61
2, 26999, Note_on_c, 0, 51, 0
2, 26999, Note_on_c, 0, 67, 74
2, 26999, Note_on_c, 0, 72, 0
2, 27000, Note_on_c, 0, 62, 0
2, 27000, Note_on_c, 0, 58, 0
2, 27001, Note_on_c, 0, 55, 0
2, 27002, Note_on_c, 0, 53, 62
2, 27002, Note_on_c, 0, 43, 0
2, 27002, Note_on_c, 0, 63, 0
2, 27004, Note_on_c, 0, 38, 57
2, 27005, Control_c, 0, 64, 0
2, 27010, Note_on_c, 0, 36, 0
2, 27010, Note_on_c, 0, 65, 0
2, 27016, Note_on_c, 0, 65, 56
2, 27021, Note_on_c, 0, 60, 54
2, 27023, Note_on_c, 0, 57, 46
2, 27233, Control_c, 0, 64, 127
2, 27775, Note_on_c, 0, 96, 105
2, 27781, Note_on_c, 0, 84, 98
2, 28132, Control_c, 0, 64, 0
2, 28142, Note_on_c, 0, 38, 0
2, 28143, Note_on_c, 0, 60, 0
2, 28144, Note_on_c, 0, 45, 0
2, 28145, Note_on_c, 0, 53, 0
2, 28154, Note_on_c, 0, 65, 0
2, 28162, Note_on_c, 0, 57, 0
2, 28162, Note_on_c, 0, 67, 0
2, 28200, Note_on_c, 0, 84, 0
2, 28231, Note_on_c, 0, 96, 0
2, 28325, Note_on_c, 0, 58, 98
2, 28400, Control_c, 0, 64, 127
2, 28446, Control_c, 0, 64, 0
2, 28584, Control_c, 0, 64, 127
2, 28600, Note_on_c, 0, 58, 0
2, 28605, Note_on_c, 0, 60, 104
2, 28609, Note_on_c, 0, 58, 102
2, 28612, Note_on_c, 0, 43, 88
2, 28612, Note_on_c, 0, 31, 85
2, 29026, Note_on_c, 0, 77, 77
2, 29391, Note_on_c, 0, 60, 0
2, 29396, Note_on_c, 0, 60, 88
2, 29399, Note_on_c, 0, 58, 0
2, 29408, Note_on_c, 0, 89, 94
2, 29410, Note_on_c, 0, 58, 82
2, 29411, Note_on_c, 0, 55, 77
2, 29813, Note_on_c, 0, 77, 0
2, 29818, Note_on_c, 0, 77, 74
2, 30174, Note_on_c, 0, 58, 0
2, 30174, Note_on_c, 0, 60, 0
2, 30180, Note_on_c, 0, 60, 94
2, 30186, Note_on_c, 0, 58, 87
2, 30190, Note_on_c, 0, 89, 0
2, 30197, Note_on_c, 0, 55, 0
2, 30200, Note_on_c, 0, 89, 85
2, 30208, Note_on_c, 0, 55, 75
2, 30211, Note_on_c, 0, 82, 69
2, 30574, Note_on_c, 0, 77, 0
2, 30578, Note_on_c, 0, 77, 70
2, 30950, Note_on_c, 0, 60, 0
2, 30960, Note_on_c, 0, 60, 100
2, 30965, Note_on_c, 0, 58, 0
2, 30973, Note_on_c, 0, 58, 92
2, 30973, Note_on_c, 0, 55, 0
2, 30979, Note_on_c, 0, 55, 78
2, 30983, Control_c, 0, 64, 0
2, 31019, Control_c, 0, 64, 127
2, 31250, Note_on_c, 0, 62, 103
2, 31495, Note_on_c, 0, 60, 0
2, 31502, Note_on_c, 0, 60, 96
2, 31618, Note_on_c, 0, 58, 0
2, 31627, Note_on_c, 0, 58, 97
2, 31631, Note_on_c, 0, 41, 89
2, 31659, Note_on_c, 0, 60, 0
2, 31664, Note_on_c, 0, 31, 0
2, 31665, Note_on_c, 0, 77, 0
2, 31666, Control_c, 0, 64, 0
2, 31666, Note_on_c, 0, 55, 0
2, 31667, Note_on_c, 0, 62, 0
2, 31695, Note_on_c, 0, 82, 0
2, 31703, Note_on_c, 0, 43, 0
2, 31710, Note_on_c, 0, 89, 0
2, 31726, Note_on_c, 0, 58, 0
2, 31733, Note_on_c, 0, 41, 0
2, 31771, Note_on_c, 0, 60, 98
2, 31775, Note_on_c, 0, 41, 90
2, 31776, Note_on_c, 0, 53, 94
2, 31779, Note_on_c, 0, 58, 97
2, 31825, Control_c, 0, 64, 127
2, 32165, Note_on_c, 0, 77, 74
2, 32524, Note_on_c, 0, 60, 0
2, 32530, Note_on_c, 0, 60, 96
2, 32531, Note_on_c, 0, 89, 98
2, 32532, Note_on_c, 0, 77, 0
2, 32540, Note_on_c, 0, 53, 0
2, 32540, Note_on_c, 0, 58, 0
2, 32543, Note_on_c, 0, 77, 85
2, 32544, Note_on_c, 0, 58, 87
2, 32546, Note_on_c, 0, 53, 76
2, 32551, Note_on_c, 0, 82, 80
2, 32555, Note_on_c, 0, 82, 0
2, 32931, Note_on_c, 0, 77, 0
2, 32936, Note_on_c, 0, 77, 67
2, 33315, Note_on_c, 0, 60, 0
2, 33315, Note_on_c, 0, 89, 0
2, 33320, Note_on_c, 0, 60, 87
2, 33323, Note_on_c, 0, 53, 0
2, 33323, Note_on_c, 0, 58, 0
2, 33325, Note_on_c, 0, 89, 91
2, 33331, Note_on_c, 0, 77, 0
2, 33331, Note_on_c, 0, 53, 75
2, 33332, Note_on_c, 0, 58, 81
2, 33333, Note_on_c, 0, 84, 83
2, 33335, Note_on_c, 0, 77, 72
2, 33357, Note_on_c, 0, 82, 63
2, 33715, Note_on_c, 0, 77, 0
2, 33720, Note_on_c, 0, 77, 77
2, 34106, Note_on_c, 0, 53, 0
2, 34111, Note_on_c, 0, 57, 102
2, 34114, Note_on_c, 0, 53, 87
2, 34368, Note_on_c, 0, 58, 0
2, 34377, Note_on_c, 0, 58, 101
2, 34648, Note_on_c, 0, 65, 99
2, 34905, Note_on_c, 0, 65, 0
2, 34913, Note_on_c, 0, 58, 0
2, 34913, Note_on_c, 0, 82, 0
2, 34913, Control_c, 0, 64, 0
2, 34916, Note_on_c, 0, 41, 0
2, 34916, Note_on_c, 0, 65, 102
2, 34917, Note_on_c, 0, 84, 0
2, 34918, Note_on_c, 0, 57, 0
2, 34920, Note_on_c, 0, 55, 95
2, 34922, Note_on_c, 0, 58, 98
2, 34922, Note_on_c, 0, 36, 84
2, 34924, Note_on_c, 0, 51, 81
2, 34928, Note_on_c, 0, 60, 0
2, 34928, Note_on_c, 0, 77, 0
2, 34936, Note_on_c, 0, 53, 0
2, 34936, Note_on_c, 0, 89, 0
2, 35082, Control_c, 0, 64, 127
2, 35320, Note_on_c, 0, 77, 79
2, 35681, Note_on_c, 0, 58, 0
2, 35681, Note_on_c, 0, 77, 0
2, 35682, Note_on_c, 0, 89, 96
2, 35688, Note_on_c, 0, 55, 0
2, 35690, Note_on_c, 0, 58, 77
2, 35692, Note_on_c, 0, 77, 77
2, 35695, Note_on_c, 0, 55, 73
2, 35700, Note_on_c, 0, 82, 77
2, 35969, Note_on_c, 0, 63, 98
2, 36243, Note_on_c, 0, 62, 99
2, 36482, Control_c, 0, 64, 0
2, 36484, Note_on_c, 0, 60, 99
2, 36484, Note_on_c, 0, 53, 82
2, 36487, Note_on_c, 0, 89, 0
2, 36487, Note_on_c, 0, 51, 0
2, 36487, Note_on_c, 0, 45, 80
2, 36488, Note_on_c, 0, 38, 76
2, 36488, Note_on_c, 0, 77, 0
2, 36488, Note_on_c, 0, 63, 0
2, 36489, Note_on_c, 0, 62, 0
2, 36489, Note_on_c, 0, 55, 0
2, 36489, Note_on_c, 0, 58, 0
2, 36489, Note_on_c, 0, 82, 0
2, 36503, Note_on_c, 0, 36, 0
2, 36564, Control_c, 0, 64, 127
2, 36741, Note_on_c, 0, 65, 0
2, 36891, Note_on_c, 0, 77, 81
2, 37248, Note_on_c, 0, 60, 0
2, 37255, Note_on_c, 0, 53, 0
2, 37259, Note_on_c, 0, 60, 75
2, 37259, Note_on_c, 0, 53, 69
2, 37264, Note_on_c, 0, 96, 88
2, 37264, Note_on_c, 0, 84, 85
2, 37274, Note_on_c, 0, 57, 74
2, 37824, Note_on_c, 0, 62, 105
2, 37969, Note_on_c, 0, 44, 90
2, 38103, Control_c, 0, 64, 0
2, 38105, Note_on_c, 0, 32, 84
2, 38106, Note_on_c, 0, 63, 101
2, 38108, Note_on_c, 0, 60, 0
2, 38115, Note_on_c, 0, 96, 0
2, 38117, Note_on_c, 0, 60, 94
2, 38165, Note_on_c, 0, 84, 0
2, 38166, Note_on_c, 0, 53, 0
2, 38168, Note_on_c, 0, 57, 0
2, 38169, Note_on_c, 0, 38, 0
2, 38172, Note_on_c, 0, 62, 0
2, 38177, Note_on_c, 0, 45, 0
2, 38177, Note_on_c, 0, 77, 0
2, 38238, Control_c, 0, 64, 127
2, 38648, Note_on_c, 0, 70, 102
2, 38922, Note_on_c, 0, 70, 0
2, 38927, Note_on_c, 0, 70, 95
2, 38929, Note_on_c, 0, 60, 0
2, 38929, Note_on_c, 0, 63, 0
2, 38934, Note_on_c, 0, 68, 91
2, 38934, Note_on_c, 0, 63, 88
2, 38936, Note_on_c, 0, 60, 92
2, 38937, Note_on_c, 0, 56, 87
2, 38945, Note_on_c, 0, 68, 0
2, 39329, Note_on_c, 0, 103, 103
2, 39338, Note_on_c, 0, 91, 77
2, 39697, Note_on_c, 0, 63, 0
2, 39705, Note_on_c, 0, 56, 0
2, 39705, Note_on_c, 0, 60, 0
2, 39705, Note_on_c, 0, 63, 68
2, 39708, Note_on_c, 0, 96, 94
2, 39710, Note_on_c, 0, 56, 71
2, 39711, Note_on_c, 0, 84, 87
2, 39712, Note_on_c, 0, 60, 64
2, 40101, Note_on_c, 0, 101, 102
2, 40113, Note_on_c, 0, 89, 82
2, 40320, Note_on_c, 0, 44, 0
2, 40488, Note_on_c, 0, 32, 0
2, 40488, Note_on_c, 0, 70, 0
2, 40495, Note_on_c, 0, 70, 100
2, 40504, Note_on_c, 0, 56, 0
2, 40504, Note_on_c, 0, 60, 0
2, 40504, Note_on_c, 0, 63, 0
2, 40504, Note_on_c, 0, 94, 98
2, 40508, Note_on_c, 0, 63, 89
2, 40509, Note_on_c, 0, 60, 89
2, 40511, Note_on_c, 0, 56, 87
2, 40533, Control_c, 0, 64, 0
2, 40537, Note_on_c, 0, 84, 0
2, 40537, Note_on_c, 0, 96, 0
2, 40538, Note_on_c, 0, 89, 0
2, 40538, Note_on_c, 0, 101, 0
2, 40550, Note_on_c, 0, 91, 0
2, 40550, Note_on_c, 0, 103, 0
2, 40588, Note_on_c, 0, 94, 0
2, 40588, Control_c, 0, 64, 127
2, 40773, Note_on_c, 0, 70, 0
2, 40778, Note_on_c, 0, 70, 100
2, 41008, Note_on_c, 0, 72, 102
2, 41124, Note_on_c, 0, 43, 88
2, 41276, Control_c, 0, 64, 0
2, 41280, Note_on_c, 0, 43, 0
2, 41283, Note_on_c, 0, 69, 103
2, 41288, Note_on_c, 0, 43, 92
2, 41290, Note_on_c, 0, 58, 98
2, 41291, Note_on_c, 0, 31, 88
2, 41292, Note_on_c, 0, 62, 95
2, 41292, Note_on_c, 0, 65, 96
2, 41322, Note_on_c, 0, 72, 0
2, 41327, Note_on_c, 0, 70, 0
2, 41333, Note_on_c, 0, 56, 0
2, 41333, Note_on_c, 0, 60, 0
2, 41341, Note_on_c, 0, 63, 0
2, 41456, Control_c, 0, 64, 127
2, 41832, Note_on_c, 0, 65, 0
2, 41837, Note_on_c, 0, 65, 94
2, 42101, Note_on_c, 0, 58, 0
2, 42101, Note_on_c, 0, 62, 0
2, 42107, Note_on_c, 0, 62, 98
2, 42111, Note_on_c, 0, 58, 92
2, 42112, Note_on_c, 0, 55, 90
2, 42147, Control_c, 0, 64, 0
2, 42193, Control_c, 0, 64, 127
2, 42504, Note_on_c, 0, 101, 102
2, 42511, Note_on_c, 0, 89, 82
2, 42877, Note_on_c, 0, 55, 0
2, 42877, Note_on_c, 0, 58, 0
2, 42877, Note_on_c, 0, 62, 0
2, 42879, Control_c, 0, 64, 0
2, 42887, Note_on_c, 0, 84, 89
2, 42888, Note_on_c, 0, 55, 69
2, 42888, Note_on_c, 0, 96, 92
2, 42888, Note_on_c, 0, 62, 72
2, 42888, Note_on_c, 0, 58, 65
2, 42892, Note_on_c, 0, 101, 0
2, 42908, Control_c, 0, 64, 127
2, 43280, Note_on_c, 0, 98, 92
2, 43281, Note_on_c, 0, 86, 78
2, 43658, Note_on_c, 0, 93, 90
2, 43668, Note_on_c, 0, 55, 0
2, 43668, Note_on_c, 0, 62, 0
2, 43676, Note_on_c, 0, 58, 0
2, 43679, Note_on_c, 0, 55, 68
2, 43679, Note_on_c, 0, 62, 72
2, 43680, Note_on_c, 0, 81, 75
2, 43683, Note_on_c, 0, 58, 72
2, 43941, Note_on_c, 0, 67, 99
2, 44160, Note_on_c, 0, 31, 0
2, 44160, Note_on_c, 0, 43, 0
2, 44160, Note_on_c, 0, 65, 0
2, 44160, Note_on_c, 0, 69, 0
2, 44217, Note_on_c, 0, 65, 99
2, 44463, Control_c, 0, 64, 0
2, 44474, Note_on_c, 0, 55, 0
2, 44474, Note_on_c, 0, 58, 0
2, 44479, Note_on_c, 0, 58, 99
2, 44480, Note_on_c, 0, 52, 68
2, 44482, Note_on_c, 0, 55, 77
2, 44484, Note_on_c, 0, 48, 65
2, 44485, Note_on_c, 0, 40, 71
2, 44513, Note_on_c, 0, 89, 0
2, 44513, Note_on_c, 0, 96, 0
2, 44520, Note_on_c, 0, 98, 0
2, 44528, Note_on_c, 0, 62, 0
2, 44528, Note_on_c, 0, 84, 0
2, 44536, Note_on_c, 0, 65, 0
2, 44536, Note_on_c, 0, 86, 0
2, 44536, Note_on_c, 0, 93, 0
2, 44544, Note_on_c, 0, 81, 0
2, 44559, Note_on_c, 0, 67, 0
2, 44597, Control_c, 0, 64, 127
2, 44897, Note_on_c, 0, 72, 83
2, 44898, Note_on_c, 0, 84, 86
2, 45265, Note_on_c, 0, 58, 0
2, 45272, Note_on_c, 0, 82, 93
2, 45272, Note_on_c, 0, 58, 77
2, 45273, Note_on_c, 0, 52, 0
2, 45273, Note_on_c, 0, 55, 0
2, 45275, Note_on_c, 0, 94, 92
2, 45277, Note_on_c, 0, 55, 69
2, 45283, Note_on_c, 0, 52, 65
2, 45548, Note_on_c, 0, 67, 101
2, 45742, Note_on_c, 0, 67, 0
2, 45751, Note_on_c, 0, 67, 65
2, 45824, Note_on_c, 0, 65, 96
2, 46068, Control_c, 0, 64, 0
2, 46071, Note_on_c, 0, 94, 0
2, 46076, Note_on_c, 0, 52, 0
2, 46077, Note_on_c, 0, 48, 0
2, 46077, Note_on_c, 0, 65, 0
2, 46079, Note_on_c, 0, 67, 0
2, 46079, Note_on_c, 0, 82, 0
2, 46080, Note_on_c, 0, 58, 0
2, 46082, Note_on_c, 0, 72, 0
2, 46083, Note_on_c, 0, 84, 0
2, 46087, Note_on_c, 0, 40, 0
2, 46087, Note_on_c, 0, 55, 0
2, 46089, Note_on_c, 0, 58, 97
2, 46090, Note_on_c, 0, 39, 78
2, 46093, Note_on_c, 0, 46, 75
2, 46093, Note_on_c, 0, 55, 87
2, 46093, Note_on_c, 0, 51, 74
2, 46126, Control_c, 0, 64, 127
2, 46481, Note_on_c, 0, 82, 88
2, 46482, Note_on_c, 0, 70, 82
2, 46771, Note_on_c, 0, 51, 0
2, 46775, Note_on_c, 0, 51, 63
2, 46817, Note_on_c, 0, 55, 0
2, 46824, Note_on_c, 0, 58, 0
2, 46825, Note_on_c, 0, 55, 77
2, 46826, Note_on_c, 0, 53, 72
2, 46832, Note_on_c, 0, 53, 0
2, 46833, Note_on_c, 0, 58, 95
2, 46863, Note_on_c, 0, 82, 0
2, 46867, Note_on_c, 0, 94, 101
2, 46867, Note_on_c, 0, 82, 92
2, 47135, Note_on_c, 0, 60, 98
2, 47400, Note_on_c, 0, 62, 100
2, 47624, Note_on_c, 0, 36, 66
2, 47641, Note_on_c, 0, 39, 0
2, 47641, Note_on_c, 0, 60, 0
2, 47641, Note_on_c, 0, 94, 0
2, 47642, Note_on_c, 0, 82, 0
2, 47642, Control_c, 0, 64, 0
2, 47642, Note_on_c, 0, 46, 0
2, 47643, Note_on_c, 0, 43, 69
2, 47644, Note_on_c, 0, 70, 0
2, 47669, Note_on_c, 0, 51, 0
2, 47669, Note_on_c, 0, 55, 0
2, 47669, Note_on_c, 0, 62, 0
2, 47674, Note_on_c, 0, 62, 99
2, 47677, Note_on_c, 0, 58, 0
2, 47678, Note_on_c, 0, 51, 70
2, 47681, Note_on_c, 0, 58, 94
2, 47708, Control_c, 0, 64, 127
2, 47784, Note_on_c, 0, 36, 0
2, 47877, Note_on_c, 0, 62, 0
2, 48074, Note_on_c, 0, 86, 84
2, 48079, Note_on_c, 0, 74, 80
2, 48468, Note_on_c, 0, 58, 0
2, 48472, Note_on_c, 0, 58, 75
2, 48481, Note_on_c, 0, 87, 86
2, 48486, Note_on_c, 0, 75, 77
2, 48487, Note_on_c, 0, 55, 72
2, 48879, Note_on_c, 0, 94, 96
2, 48884, Note_on_c, 0, 82, 71
2, 49273, Note_on_c, 0, 96, 105
2, 49274, Note_on_c, 0, 94, 0
2, 49277, Note_on_c, 0, 74, 0
2, 49278, Note_on_c, 0, 45, 72
2, 49278, Note_on_c, 0, 86, 0
2, 49278, Note_on_c, 0, 58, 0
2, 49278, Control_c, 0, 64, 0
2, 49278, Note_on_c, 0, 87, 0
2, 49278, Note_on_c, 0, 55, 0
2, 49278, Note_on_c, 0, 82, 0
2, 49278, Note_on_c, 0, 75, 0
2, 49279, Note_on_c, 0, 51, 0
2, 49281, Note_on_c, 0, 38, 74
2, 49282, Note_on_c, 0, 43, 0
2, 49284, Note_on_c, 0, 94, 94
2, 49390, Control_c, 0, 64, 127
2, 49859, Note_on_c, 0, 72, 108
2, 50138, Note_on_c, 0, 70, 107
2, 50144, Note_on_c, 0, 96, 0
2, 50147, Note_on_c, 0, 45, 0
2, 50149, Note_on_c, 0, 72, 0
2, 50150, Note_on_c, 0, 38, 0
2, 50158, Note_on_c, 0, 94, 0
2, 50160, Control_c, 0, 64, 0
2, 50342, Control_c, 0, 64, 127
2, 50397, Note_on_c, 0, 69, 105
2, 50442, Note_on_c, 0, 70, 0
2, 50675, Note_on_c, 0, 65, 99
2, 50788, Note_on_c, 0, 62, 99
2, 50801, Note_on_c, 0, 39, 84
2, 50852, Control_c, 0, 64, 0
2, 50854, Note_on_c, 0, 65, 0
2, 50880, Control_c, 0, 64, 127
2, 50933, Note_on_c, 0, 62, 0
2, 50935, Note_on_c, 0, 65, 100
2, 50938, Note_on_c, 0, 62, 102
2, 51344, Note_on_c, 0, 67, 95
2, 51378, Note_on_c, 0, 86, 104
2, 51380, Note_on_c, 0, 74, 96
2, 51384, Note_on_c, 0, 82, 87
2, 51747, Note_on_c, 0, 67, 0
2, 51752, Note_on_c, 0, 63, 93
2, 51752, Note_on_c, 0, 89, 108
2, 51754, Note_on_c, 0, 67, 97
2, 51755, Note_on_c, 0, 82, 0
2, 51759, Note_on_c, 0, 58, 92
2, 51760, Note_on_c, 0, 77, 99
2, 51763, Note_on_c, 0, 86, 0
2, 51766, Note_on_c, 0, 82, 94
2, 51768, Note_on_c, 0, 86, 100
2, 52016, Note_on_c, 0, 39, 0
2, 52021, Note_on_c, 0, 39, 67
2, 52025, Note_on_c, 0, 27, 71
2, 52262, Note_on_c, 0, 51, 79
2, 52505, Control_c, 0, 64, 0
2, 52515, Note_on_c, 0, 27, 0
2, 52515, Note_on_c, 0, 69, 0
2, 52530, Note_on_c, 0, 51, 0
2, 52531, Note_on_c, 0, 63, 0
2, 52531, Note_on_c, 0, 77, 0
2, 52531, Note_on_c, 0, 39, 0
2, 52533, Note_on_c, 0, 58, 0
2, 52534, Note_on_c, 0, 62, 0
2, 52534, Note_on_c, 0, 74, 0
2, 52534, Note_on_c, 0, 91, 108
2, 52534, Note_on_c, 0, 89, 0
2, 52535, Note_on_c, 0, 86, 0
2, 52536, Note_on_c, 0, 65, 0
2, 52537, Note_on_c, 0, 67, 0
2, 52538, Note_on_c, 0, 82, 0
2, 52540, Note_on_c, 0, 41, 96
2, 52541, Note_on_c, 0, 29, 91
2, 52541, Note_on_c, 0, 79, 95
2, 52542, Note_on_c, 0, 82, 99
2, 52654, Control_c, 0, 64, 127
2, 52930, Note_on_c, 0, 82, 0
2, 52941, Note_on_c, 0, 82, 94
2, 53043, Note_on_c, 0, 72, 103
2, 53306, Note_on_c, 0, 41, 0
2, 53309, Note_on_c, 0, 60, 100
2, 53310, Note_on_c, 0, 53, 95
2, 53311, Note_on_c, 0, 70, 102
2, 53311, Note_on_c, 0, 57, 103
2, 53314, Note_on_c, 0, 41, 87
2, 53325, Control_c, 0, 64, 0
2, 53352, Control_c, 0, 64, 127
2, 53572, Note_on_c, 0, 69, 102
2, 53821, Note_on_c, 0, 29, 0
2, 53821, Note_on_c, 0, 41, 0
2, 53825, Note_on_c, 0, 41, 84
2, 53826, Note_on_c, 0, 29, 88
2, 53831, Note_on_c, 0, 65, 97
2, 53956, Note_on_c, 0, 62, 98
2, 54013, Note_on_c, 0, 91, 0
2, 54013, Control_c, 0, 64, 0
2, 54014, Note_on_c, 0, 82, 0
2, 54015, Note_on_c, 0, 72, 0
2, 54016, Note_on_c, 0, 60, 0
2, 54016, Note_on_c, 0, 41, 0
2, 54016, Note_on_c, 0, 53, 0
2, 54017, Note_on_c, 0, 70, 0
2, 54017, Note_on_c, 0, 57, 0
2, 54017, Note_on_c, 0, 29, 0
2, 54018, Note_on_c, 0, 65, 0
2, 54018, Note_on_c, 0, 69, 0
2, 54028, Note_on_c, 0, 79, 0
2, 54033, Note_on_c, 0, 62, 0
2, 54102, Note_on_c, 0, 65, 105
2, 54102, Note_on_c, 0, 43, 105
2, 54103, Note_on_c, 0, 31, 101
2, 54103, Note_on_c, 0, 62, 101
2, 54182, Control_c, 0, 64, 127
2, 54213, Note_on_c, 0, 65, 0
2, 54221, Note_on_c, 0, 65, 82
2, 54512, Note_on_c, 0, 67, 104
2, 54555, Note_on_c, 0, 74, 93
2, 54555, Note_on_c, 0, 86, 101
2, 54559, Note_on_c, 0, 82, 86
2, 54904, Note_on_c, 0, 62, 0
2, 54908, Note_on_c, 0, 62, 95
2, 54909, Note_on_c, 0, 58, 101
2, 54911, Note_on_c, 0, 89, 100
2, 54912, Note_on_c, 0, 82, 0
2, 54912, Note_on_c, 0, 86, 0
2, 54912, Note_on_c, 0, 55, 92
2, 54915, Note_on_c, 0, 77, 97
2, 54915, Note_on_c, 0, 86, 97
2, 54917, Note_on_c, 0, 82, 96
2, 54923, Note_on_c, 0, 74, 0
2, 54923, Note_on_c, 0, 65, 0
2, 54926, Note_on_c, 0, 31, 0
2, 54926, Note_on_c, 0, 43, 0
2, 54930, Control_c, 0, 64, 0
2, 54965, Control_c, 0, 64, 127
2, 54973, Note_on_c, 0, 67, 0
2, 55168, Note_on_c, 0, 43, 87
2, 55326, Note_on_c, 0, 55, 0
2, 55440, Note_on_c, 0, 74, 103
2, 55726, Note_on_c, 0, 58, 0
2, 55726, Note_on_c, 0, 62, 0
2, 55726, Note_on_c, 0, 82, 0
2, 55727, Note_on_c, 0, 72, 110
2, 55730, Note_on_c, 0, 91, 104
2, 55730, Note_on_c, 0, 70, 100
2, 55731, Note_on_c, 0, 62, 94
2, 55731, Note_on_c, 0, 79, 96
2, 55732, Note_on_c, 0, 82, 106
2, 55733, Note_on_c, 0, 67, 93
2, 55736, Note_on_c, 0, 58, 85
2, 56125, Note_on_c, 0, 82, 0
2, 56136, Note_on_c, 0, 82, 102
2, 56505, Note_on_c, 0, 41, 106
2, 56506, Note_on_c, 0, 53, 106
2, 56783, Note_on_c, 0, 65, 105
2, 57047, Note_on_c, 0, 62, 0
2, 57055, Note_on_c, 0, 62, 101
2, 57216, Note_on_c, 0, 91, 0
2, 57228, Control_c, 0, 64, 0
2, 57233, Note_on_c, 0, 82, 0
2, 57234, Note_on_c, 0, 86, 0
2, 57234, Note_on_c, 0, 79, 0
2, 57234, Note_on_c, 0, 77, 0
2, 57234, Note_on_c, 0, 43, 0
2, 57235, Note_on_c, 0, 62, 0
2, 57235, Note_on_c, 0, 72, 0
2, 57235, Note_on_c, 0, 41, 0
2, 57235, Note_on_c, 0, 70, 0
2, 57235, Note_on_c, 0, 65, 0
2, 57235, Note_on_c, 0, 53, 0
2, 57235, Note_on_c, 0, 74, 0
2, 57235, Note_on_c, 0, 67, 0
2, 57235, Note_on_c, 0, 58, 0
2, 57246, Note_on_c, 0, 89, 0
2, 57301, Note_on_c, 0, 60, 105
2, 57306, Note_on_c, 0, 58, 102
2, 57309, Note_on_c, 0, 39, 98
2, 57309, Note_on_c, 0, 51, 99
2, 57310, Note_on_c, 0, 46, 99
2, 57346, Control_c, 0, 64, 127
2, 57569, Note_on_c, 0, 60, 0
2, 57576, Note_on_c, 0, 60, 96
2, 57715, Note_on_c, 0, 58, 0
2, 57718, Note_on_c, 0, 84, 100
2, 57719, Note_on_c, 0, 58, 95
2, 57725, Note_on_c, 0, 55, 91
2, 57727, Note_on_c, 0, 72, 83
2, 57838, Note_on_c, 0, 60, 0
2, 57848, Note_on_c, 0, 60, 98
2, 57968, Note_on_c, 0, 58, 0
2, 57974, Note_on_c, 0, 58, 94
2, 58099, Note_on_c, 0, 51, 0
2, 58099, Note_on_c, 0, 55, 0
2, 58099, Note_on_c, 0, 58, 0
2, 58099, Note_on_c, 0, 60, 0
2, 58106, Note_on_c, 0, 89, 104
2, 58107, Note_on_c, 0, 60, 101
2, 58108, Note_on_c, 0, 58, 94
2, 58109, Note_on_c, 0, 51, 88
2, 58110, Note_on_c, 0, 55, 89
2, 58111, Note_on_c, 0, 82, 100
2, 58111, Note_on_c, 0, 77, 99
2, 58358, Note_on_c, 0, 62, 96
2, 58613, Note_on_c, 0, 39, 0
2, 58622, Note_on_c, 0, 39, 89
2, 58817, Note_on_c, 0, 82, 0
2, 58818, Note_on_c, 0, 62, 0
2, 58818, Note_on_c, 0, 51, 0
2, 58818, Note_on_c, 0, 77, 0
2, 58818, Note_on_c, 0, 84, 0
2, 58818, Note_on_c, 0, 39, 0
2, 58818, Note_on_c, 0, 89, 0
2, 58818, Note_on_c, 0, 46, 0
2, 58818, Note_on_c, 0, 60, 0
2, 58819, Note_on_c, 0, 55, 0
2, 58819, Note_on_c, 0, 58, 0
2, 58825, Control_c, 0, 64, 0
2, 58836, Note_on_c, 0, 72, 0
2, 58884, Note_on_c, 0, 60, 107
2, 58886, Note_on_c, 0, 53, 102
2, 58888, Note_on_c, 0, 48, 101
2, 58889, Note_on_c, 0, 58, 106
2, 58891, Note_on_c, 0, 41, 103
2, 58928, Control_c, 0, 64, 127
2, 59128, Note_on_c, 0, 60, 0
2, 59137, Note_on_c, 0, 60, 99
2, 59266, Note_on_c, 0, 58, 0
2, 59276, Note_on_c, 0, 84, 107
2, 59277, Note_on_c, 0, 58, 99
2, 59278, Note_on_c, 0, 72, 104
2, 59281, Note_on_c, 0, 82, 98
2, 59404, Note_on_c, 0, 60, 0
2, 59411, Note_on_c, 0, 60, 93
2, 59520, Note_on_c, 0, 58, 0
2, 59529, Note_on_c, 0, 58, 85
2, 59614, Control_c, 0, 64, 0
2, 59615, Note_on_c, 0, 41, 0
2, 59615, Note_on_c, 0, 82, 0
2, 59616, Note_on_c, 0, 84, 0
2, 59616, Note_on_c, 0, 53, 0
2, 59616, Note_on_c, 0, 72, 0
2, 59616, Note_on_c, 0, 48, 0
2, 59616, Note_on_c, 0, 58, 0
2, 59650, Note_on_c, 0, 60, 0
2, 59658, Note_on_c, 0, 60, 101
2, 59662, Note_on_c, 0, 42, 103
2, 59663, Note_on_c, 0, 54, 102
2, 59665, Note_on_c, 0, 50, 91
2, 59727, Control_c, 0, 64, 127
2, 59928, Note_on_c, 0, 86, 108
2, 59930, Note_on_c, 0, 62, 103
2, 59930, Note_on_c, 0, 74, 101
2, 60183, Note_on_c, 0, 89, 108
2, 60184, Note_on_c, 0, 77, 105
2, 60184, Note_on_c, 0, 65, 100
2, 60409, Control_c, 0, 64, 0
2, 60422, Note_on_c, 0, 42, 0
2, 60422, Note_on_c, 0, 54, 0
2, 60423, Note_on_c, 0, 62, 0
2, 60423, Note_on_c, 0, 89, 0
2, 60424, Note_on_c, 0, 50, 0
2, 60424, Note_on_c, 0, 74, 0
2, 60425, Note_on_c, 0, 86, 0
2, 60425, Note_on_c, 0, 77, 0
2, 60425, Note_on_c, 0, 60, 0
2, 60427, Note_on_c, 0, 65, 0
2, 60460, Note_on_c, 0, 43, 103
2, 60461, Note_on_c, 0, 62, 98
2, 60461, Note_on_c, 0, 55, 109
2, 60461, Note_on_c, 0, 58, 105
2, 60461, Note_on_c, 0, 67, 99
2, 60851, Note_on_c, 0, 91, 108
2, 60853, Note_on_c, 0, 82, 104
2, 60853, Note_on_c, 0, 79, 98
2, 60887, Control_c, 0, 64, 127
2, 61102, Note_on_c, 0, 43, 0
2, 61111, Note_on_c, 0, 43, 97
2, 61183, Note_on_c, 0, 67, 0
2, 61183, Note_on_c, 0, 82, 0
2, 61183, Note_on_c, 0, 79, 0
2, 61183, Note_on_c, 0, 55, 0
2, 61183, Note_on_c, 0, 62, 0
2, 61184, Note_on_c, 0, 58, 0
2, 61184, Note_on_c, 0, 91, 0
2, 61189, Note_on_c, 0, 43, 0
2, 61189, Control_c, 0, 64, 0
2, 61251, Note_on_c, 0, 69, 104
2, 61253, Note_on_c, 0, 53, 102
2, 61254, Note_on_c, 0, 57, 104
2, 61257, Note_on_c, 0, 65, 99
2, 61258, Note_on_c, 0, 45, 99
2, 61259, Note_on_c, 0, 60, 95
2, 61355, Control_c, 0, 64, 127
2, 61651, Note_on_c, 0, 93, 107
2, 61651, Note_on_c, 0, 81, 100
2, 61653, Note_on_c, 0, 84, 94
2, 61657, Note_on_c, 0, 89, 100
2, 61847, Note_on_c, 0, 45, 0
2, 61847, Note_on_c, 0, 57, 0
2, 61857, Note_on_c, 0, 45, 90
2, 61857, Note_on_c, 0, 57, 74
2, 61996, Control_c, 0, 64, 0
2, 62000, Note_on_c, 0, 93, 0
2, 62001, Note_on_c, 0, 57, 0
2, 62001, Note_on_c, 0, 81, 0
2, 62002, Note_on_c, 0, 84, 0
2, 62003, Note_on_c, 0, 89, 0
2, 62003, Note_on_c, 0, 45, 0
2, 62003, Note_on_c, 0, 69, 0
2, 62004, Note_on_c, 0, 60, 0
2, 62004, Note_on_c, 0, 53, 0
2, 62004, Note_on_c, 0, 65, 0
2, 62044, Note_on_c, 0, 70, 103
2, 62048, Note_on_c, 0, 58, 106
2, 62049, Note_on_c, 0, 62, 97
2, 62049, Note_on_c, 0, 46, 103
2, 62050, Note_on_c, 0, 65, 95
2, 62138, Control_c, 0, 64, 127
2, 62302, Note_on_c, 0, 53, 96
2, 62545, Note_on_c, 0, 58, 0
2, 62551, Note_on_c, 0, 58, 97
2, 62556, Note_on_c, 0, 96, 112
2, 62557, Note_on_c, 0, 84, 111
2, 62578, Note_on_c, 0, 86, 71
2, 62822, Note_on_c, 0, 74, 107
2, 62826, Note_on_c, 0, 82, 109
2, 62826, Note_on_c, 0, 94, 110
2, 62853, Note_on_c, 0, 70, 0
2, 62864, Note_on_c, 0, 70, 86
2, 62914, Note_on_c, 0, 69, 95
2, 62952, Note_on_c, 0, 65, 0
2, 62961, Note_on_c, 0, 65, 91
2, 62976, Note_on_c, 0, 58, 0
2, 62982, Note_on_c, 0, 58, 63
2, 63022, Note_on_c, 0, 62, 0
2, 63031, Note_on_c, 0, 62, 95
2, 63075, Note_on_c, 0, 58, 0
2, 63085, Note_on_c, 0, 58, 82
2, 63096, Note_on_c, 0, 93, 110
2, 63097, Note_on_c, 0, 81, 105
2, 63139, Note_on_c, 0, 57, 74
2, 63183, Note_on_c, 0, 53, 0
2, 63194, Note_on_c, 0, 53, 90
2, 63327, Note_on_c, 0, 50, 92
2, 63332, Note_on_c, 0, 89, 110
2, 63338, Note_on_c, 0, 77, 108
2, 63452, Note_on_c, 0, 74, 0
2, 63452, Note_on_c, 0, 86, 0
2, 63458, Note_on_c, 0, 86, 107
2, 63458, Note_on_c, 0, 74, 103
2, 63465, Control_c, 0, 64, 0
2, 63468, Note_on_c, 0, 96, 0
2, 63468, Note_on_c, 0, 84, 0
2, 63468, Note_on_c, 0, 65, 0
2, 63469, Note_on_c, 0, 58, 0
2, 63469, Note_on_c, 0, 53, 0
2, 63469, Note_on_c, 0, 70, 0
2, 63469, Note_on_c, 0, 62, 0
2, 63469, Note_on_c, 0, 57, 0
2, 63469, Note_on_c, 0, 94, 0
2, 63469, Note_on_c, 0, 89, 0
2, 63469, Note_on_c, 0, 93, 0
2, 63470, Note_on_c, 0, 82, 0
2, 63470, Note_on_c, 0, 81, 0
2, 63470, Note_on_c, 0, 69, 0
2, 63470, Note_on_c, 0, 46, 0
2, 63470, Note_on_c, 0, 77, 0
2, 63471, Note_on_c, 0, 50, 0
2, 63528, Note_on_c, 0, 74, 0
2, 63552, Note_on_c, 0, 86, 0
2, 63601, Note_on_c, 0, 39, 97
2, 63603, Note_on_c, 0, 27, 95
2, 63604, Note_on_c, 0, 85, 100
2, 63606, Note_on_c, 0, 89, 113
2, 63606, Note_on_c, 0, 77, 109
2, 63644, Control_c, 0, 64, 127
2, 63898, Note_on_c, 0, 51, 53
2, 64007, Note_on_c, 0, 91, 111
2, 64009, Note_on_c, 0, 86, 101
2, 64009, Note_on_c, 0, 79, 102
2, 64010, Note_on_c, 0, 82, 100
2, 64016, Note_on_c, 0, 62, 94
2, 64018, Note_on_c, 0, 58, 97
2, 64022, Note_on_c, 0, 55, 89
2, 64381, Note_on_c, 0, 55, 0
2, 64381, Note_on_c, 0, 58, 0
2, 64387, Note_on_c, 0, 58, 103
2, 64390, Note_on_c, 0, 65, 102
2, 64392, Note_on_c, 0, 55, 95
2, 64634, Note_on_c, 0, 27, 0
2, 64634, Note_on_c, 0, 39, 0
2, 64641, Note_on_c, 0, 39, 88
2, 64644, Note_on_c, 0, 27, 86
2, 64903, Note_on_c, 0, 51, 0
2, 64908, Note_on_c, 0, 51, 81
2, 65100, Control_c, 0, 64, 0
2, 65112, Note_on_c, 0, 85, 0
2, 65112, Note_on_c, 0, 79, 0
2, 65112, Note_on_c, 0, 65, 0
2, 65112, Note_on_c, 0, 77, 0
2, 65112, Note_on_c, 0, 62, 0
2, 65113, Note_on_c, 0, 91, 0
2, 65113, Note_on_c, 0, 82, 0
2, 65113, Note_on_c, 0, 89, 0
2, 65113, Note_on_c, 0, 27, 0
2, 65113, Note_on_c, 0, 58, 0
2, 65113, Note_on_c, 0, 55, 0
2, 65113, Note_on_c, 0, 86, 0
2, 65114, Note_on_c, 0, 51, 0
2, 65115, Note_on_c, 0, 39, 0
2, 65177, Note_on_c, 0, 41, 104
2, 65177, Note_on_c, 0, 60, 88
2, 65179, Note_on_c, 0, 29, 100
2, 65182, Note_on_c, 0, 67, 93
2, 65188, Note_on_c, 0, 57, 86
2, 65280, Control_c, 0, 64, 127
2, 65544, Note_on_c, 0, 58, 99
2, 65719, Note_on_c, 0, 96, 108
2, 65721, Note_on_c, 0, 84, 106
2, 65858, Note_on_c, 0, 53, 92
2, 65978, Note_on_c, 0, 57, 0
2, 65978, Note_on_c, 0, 60, 0
2, 65982, Note_on_c, 0, 60, 104
2, 65983, Note_on_c, 0, 57, 103
2, 65990, Note_on_c, 0, 82, 105
2, 65991, Note_on_c, 0, 94, 108
2, 66251, Note_on_c, 0, 93, 112
2, 66252, Note_on_c, 0, 81, 105
2, 66485, Note_on_c, 0, 29, 0
2, 66485, Note_on_c, 0, 41, 0
2, 66490, Note_on_c, 0, 89, 107
2, 66491, Note_on_c, 0, 77, 99
2, 66494, Note_on_c, 0, 29, 91
2, 66494, Note_on_c, 0, 41, 93
2, 66624, Note_on_c, 0, 74, 100
2, 66627, Note_on_c, 0, 86, 103
2, 66671, Note_on_c, 0, 94, 0
2, 66672, Note_on_c, 0, 96, 0
2, 66673, Note_on_c, 0, 57, 0
2, 66673, Note_on_c, 0, 77, 0
2, 66673, Note_on_c, 0, 58, 0
2, 66673, Note_on_c, 0, 93, 0
2, 66673, Note_on_c, 0, 60, 0
2, 66673, Note_on_c, 0, 82, 0
2, 66673, Note_on_c, 0, 53, 0
2, 66673, Note_on_c, 0, 89, 0
2, 66674, Note_on_c, 0, 81, 0
2, 66674, Note_on_c, 0, 84, 0
2, 66674, Note_on_c, 0, 86, 0
2, 66678, Control_c, 0, 64, 0
2, 66678, Note_on_c, 0, 74, 0
2, 66700, Note_on_c, 0, 29, 0
2, 66700, Note_on_c, 0, 41, 0
2, 66700, Note_on_c, 0, 67, 0
2, 66743, Note_on_c, 0, 42, 104
2, 66744, Note_on_c, 0, 30, 102
2, 66753, Note_on_c, 0, 84, 110
2, 66757, Note_on_c, 0, 96, 109
2, 66800, Control_c, 0, 64, 127
2, 67027, Note_on_c, 0, 86, 105
2, 67027, Note_on_c, 0, 98, 111
2, 67152, Note_on_c, 0, 62, 98
2, 67157, Note_on_c, 0, 60, 97
2, 67158, Note_on_c, 0, 54, 91
2, 67160, Note_on_c, 0, 57, 95
2, 67522, Note_on_c, 0, 54, 0
2, 67522, Note_on_c, 0, 60, 0
2, 67522, Note_on_c, 0, 62, 0
2, 67522, Note_on_c, 0, 66, 102
2, 67525, Control_c, 0, 64, 0
2, 67526, Note_on_c, 0, 62, 98
2, 67527, Note_on_c, 0, 60, 97
2, 67527, Note_on_c, 0, 54, 89
2, 67527, Note_on_c, 0, 93, 110
2, 67529, Note_on_c, 0, 81, 107
2, 67553, Control_c, 0, 64, 127
2, 67783, Note_on_c, 0, 42, 0
2, 67787, Note_on_c, 0, 42, 95
2, 68029, Note_on_c, 0, 54, 0
2, 68029, Note_on_c, 0, 84, 0
2, 68029, Note_on_c, 0, 96, 0
2, 68033, Note_on_c, 0, 96, 106
2, 68034, Note_on_c, 0, 84, 104
2, 68035, Note_on_c, 0, 54, 94
2, 68248, Control_c, 0, 64, 0
2, 68256, Note_on_c, 0, 98, 0
2, 68256, Note_on_c, 0, 42, 0
2, 68256, Note_on_c, 0, 93, 0
2, 68257, Note_on_c, 0, 54, 0
2, 68257, Note_on_c, 0, 81, 0
2, 68257, Note_on_c, 0, 86, 0
2, 68258, Note_on_c, 0, 30, 0
2, 68258, Note_on_c, 0, 96, 0
2, 68259, Note_on_c, 0, 66, 0
2, 68262, Note_on_c, 0, 84, 0
2, 68275, Note_on_c, 0, 57, 0
2, 68275, Note_on_c, 0, 60, 0
2, 68275, Note_on_c, 0, 62, 0
2, 68311, Note_on_c, 0, 43, 101
2, 68316, Note_on_c, 0, 31, 93
2, 68317, Note_on_c, 0, 94, 110
2, 68318, Note_on_c, 0, 86, 105
2, 68319, Note_on_c, 0, 82, 108
2, 68528, Control_c, 0, 64, 127
2, 68722, Note_on_c, 0, 58, 99
2, 68988, Control_c, 0, 64, 0
2, 68995, Note_on_c, 0, 31, 0
2, 68999, Note_on_c, 0, 43, 0
2, 69107, Note_on_c, 0, 41, 102
2, 69108, Note_on_c, 0, 29, 101
2, 69189, Control_c, 0, 64, 127
2, 69384, Note_on_c, 0, 89, 105
2, 69386, Note_on_c, 0, 77, 99
2, 69642, Note_on_c, 0, 86, 0
2, 69646, Note_on_c, 0, 86, 99
2, 69646, Note_on_c, 0, 74, 101
2, 69880, Note_on_c, 0, 94, 0
2, 69884, Control_c, 0, 64, 0
2, 69888, Note_on_c, 0, 89, 0
2, 69890, Note_on_c, 0, 77, 0
2, 69891, Note_on_c, 0, 41, 0
2, 69892, Note_on_c, 0, 58, 0
2, 69894, Note_on_c, 0, 74, 0
2, 69895, Note_on_c, 0, 29, 0
2, 69898, Note_on_c, 0, 86, 0
2, 69929, Note_on_c, 0, 84, 105
2, 69929, Note_on_c, 0, 72, 107
2, 69930, Note_on_c, 0, 75, 100
2, 69932, Note_on_c, 0, 36, 94
2, 69932, Note_on_c, 0, 39, 89
2, 69932, Note_on_c, 0, 43, 93
2, 69934, Note_on_c, 0, 82, 0
2, 70010, Control_c, 0, 64, 127
2, 70330, Note_on_c, 0, 60, 98
2, 70330, Note_on_c, 0, 58, 95
2, 70629, Note_on_c, 0, 55, 79
2, 70740, Note_on_c, 0, 58, 0
2, 70740, Note_on_c, 0, 60, 0
2, 70740, Note_on_c, 0, 75, 0
2, 70741, Note_on_c, 0, 82, 107
2, 70743, Note_on_c, 0, 70, 101
2, 70744, Note_on_c, 0, 65, 103
2, 70745, Note_on_c, 0, 60, 96
2, 70746, Note_on_c, 0, 58, 100
2, 70749, Note_on_c, 0, 75, 92
2, 71009, Note_on_c, 0, 70, 0
2, 71009, Note_on_c, 0, 82, 0
2, 71016, Note_on_c, 0, 75, 0
2, 71019, Note_on_c, 0, 82, 103
2, 71020, Note_on_c, 0, 70, 91
2, 71021, Note_on_c, 0, 75, 93
2, 71262, Note_on_c, 0, 36, 0
2, 71262, Note_on_c, 0, 72, 0
2, 71262, Note_on_c, 0, 84, 0
2, 71269, Note_on_c, 0, 36, 90
2, 71270, Note_on_c, 0, 72, 104
2, 71271, Note_on_c, 0, 84, 103
2, 71476, Control_c, 0, 64, 0
2, 71481, Note_on_c, 0, 75, 0
2, 71482, Note_on_c, 0, 65, 0
2, 71483, Note_on_c, 0, 58, 0
2, 71483, Note_on_c, 0, 55, 0
2, 71483, Note_on_c, 0, 43, 0
2, 71483, Note_on_c, 0, 60, 0
2, 71485, Note_on_c, 0, 84, 0
2, 71485, Note_on_c, 0, 70, 0
2, 71486, Note_on_c, 0, 72, 0
2, 71493, Note_on_c, 0, 39, 0
2, 71493, Note_on_c, 0, 82, 0
2, 71500, Note_on_c, 0, 36, 0
2, 71509, Note_on_c, 0, 45, 100
2, 71515, Note_on_c, 0, 38, 96
2, 71519, Note_on_c, 0, 86, 107
2, 71520, Note_on_c, 0, 74, 107
2, 71522, Note_on_c, 0, 81, 99
2, 71524, Note_on_c, 0, 77, 99
2, 71608, Control_c, 0, 64, 127
2, 71916, Note_on_c, 0, 60, 97
2, 71917, Note_on_c, 0, 62, 97
2, 72195, Note_on_c, 0, 57, 80
2, 72305, Note_on_c, 0, 69, 104
2, 72307, Note_on_c, 0, 62, 0
2, 72307, Note_on_c, 0, 84, 106
2, 72309, Note_on_c, 0, 65, 99
2, 72310, Note_on_c, 0, 72, 101
2, 72314, Note_on_c, 0, 62, 91
2, 72322, Note_on_c, 0, 74, 0
2, 72327, Note_on_c, 0, 74, 75
2, 72568, Note_on_c, 0, 74, 0
2, 72568, Note_on_c, 0, 86, 0
2, 72578, Note_on_c, 0, 86, 109
2, 72579, Note_on_c, 0, 74, 104
2, 72829, Note_on_c, 0, 38, 0
2, 72829, Note_on_c, 0, 77, 0
2, 72833, Note_on_c, 0, 38, 83
2, 72839, Note_on_c, 0, 89, 110
2, 72840, Note_on_c, 0, 77, 106
2, 73081, Note_on_c, 0, 38, 0
2, 73081, Note_on_c, 0, 45, 0
2, 73081, Control_c, 0, 64, 0
2, 73082, Note_on_c, 0, 69, 0
2, 73082, Note_on_c, 0, 72, 0
2, 73082, Note_on_c, 0, 77, 0
2, 73082, Note_on_c, 0, 84, 0
2, 73083, Note_on_c, 0, 89, 0
2, 73084, Note_on_c, 0, 57, 0
2, 73084, Note_on_c, 0, 60, 0
2, 73085, Note_on_c, 0, 62, 0
2, 73085, Note_on_c, 0, 65, 0
2, 73090, Note_on_c, 0, 81, 0
2, 73096, Note_on_c, 0, 39, 97
2, 73098, Note_on_c, 0, 74, 0
2, 73098, Note_on_c, 0, 86, 0
2, 73099, Note_on_c, 0, 46, 98
2, 73099, Note_on_c, 0, 81, 107
2, 73099, Note_on_c, 0, 93, 111
2, 73104, Note_on_c, 0, 86, 103
2, 73267, Control_c, 0, 64, 127
2, 73499, Note_on_c, 0, 57, 95
2, 73789, Note_on_c, 0, 51, 67
2, 73890, Note_on_c, 0, 58, 98
2, 73893, Note_on_c, 0, 55, 93
2, 74284, Note_on_c, 0, 62, 94
2, 74311, Note_on_c, 0, 39, 0
2, 74647, Control_c, 0, 64, 0
2, 74670, Note_on_c, 0, 65, 90
2, 74678, Note_on_c, 0, 48, 75
2, 74680, Note_on_c, 0, 58, 0
2, 74683, Note_on_c, 0, 53, 79
2, 74684, Note_on_c, 0, 41, 75
2, 74684, Note_on_c, 0, 58, 88
2, 74685, Note_on_c, 0, 60, 92
2, 74698, Note_on_c, 0, 55, 0
2, 74698, Note_on_c, 0, 46, 0
2, 74700, Note_on_c, 0, 62, 0
2, 74701, Note_on_c, 0, 81, 0
2, 74703, Note_on_c, 0, 57, 0
2, 74711, Note_on_c, 0, 51, 0
2, 74711, Note_on_c, 0, 93, 0
2, 74726, Note_on_c, 0, 86, 0
2, 75194, Note_on_c, 0, 60, 0
2, 75233, Control_c, 0, 64, 127
2, 75244, Note_on_c, 0, 96, 107
2, 75246, Note_on_c, 0, 84, 99
2, 75526, Note_on_c, 0, 94, 111
2, 75528, Note_on_c, 0, 82, 103
2, 75792, Note_on_c, 0, 93, 102
2, 75797, Note_on_c, 0, 81, 92
2, 76053, Note_on_c, 0, 89, 103
2, 76056, Note_on_c, 0, 77, 88
2, 76191, Note_on_c, 0, 86, 96
2, 76305, Control_c, 0, 64, 0
2, 76316, Note_on_c, 0, 89, 0
2, 76321, Note_on_c, 0, 89, 104
2, 76323, Note_on_c, 0, 77, 0
2, 76326, Note_on_c, 0, 39, 67
2, 76328, Note_on_c, 0, 77, 90
2, 76333, Note_on_c, 0, 65, 0
2, 76334, Note_on_c, 0, 86, 0
2, 76334, Note_on_c, 0, 82, 0
2, 76334, Note_on_c, 0, 48, 0
2, 76334, Note_on_c, 0, 96, 0
2, 76334, Note_on_c, 0, 94, 0
2, 76334, Note_on_c, 0, 53, 0
2, 76335, Note_on_c, 0, 81, 0
2, 76335, Note_on_c, 0, 93, 0
2, 76335, Note_on_c, 0, 84, 0
2, 76335, Note_on_c, 0, 41, 0
2, 76339, Note_on_c, 0, 58, 0
2, 76431, Note_on_c, 0, 77, 0
2, 76614, Note_on_c, 0, 46, 60
2, 76715, Note_on_c, 0, 89, 0
2, 76742, Note_on_c, 0, 91, 107
2, 76747, Note_on_c, 0, 79, 94
2, 76807, Control_c, 0, 64, 127
2, 76879, Note_on_c, 0, 55, 61
2, 77111, Control_c, 0, 64, 0
2, 77130, Note_on_c, 0, 41, 72
2, 77150, Note_on_c, 0, 46, 0
2, 77154, Note_on_c, 0, 39, 0
2, 77299, Control_c, 0, 64, 127
2, 77306, Note_on_c, 0, 55, 0
2, 77404, Note_on_c, 0, 48, 64
2, 77460, Note_on_c, 0, 41, 0
2, 77681, Note_on_c, 0, 57, 67
2, 77956, Note_on_c, 0, 58, 71
2, 77957, Control_c, 0, 64, 0
2, 77959, Note_on_c, 0, 43, 62
2, 77980, Note_on_c, 0, 48, 0
2, 77982, Note_on_c, 0, 91, 0
2, 77986, Note_on_c, 0, 57, 0
2, 78013, Note_on_c, 0, 79, 0
2, 78509, Note_on_c, 0, 50, 59
2, 78512, Control_c, 0, 64, 127
2, 78543, Control_c, 0, 64, 0
2, 78627, Control_c, 0, 64, 127
2, 78796, Note_on_c, 0, 58, 0
2, 78807, Note_on_c, 0, 58, 77
2, 79082, Note_on_c, 0, 62, 87
2, 79340, Note_on_c, 0, 70, 91
2, 79613, Note_on_c, 0, 39, 66
2, 79614, Note_on_c, 0, 69, 91
2, 79622, Control_c, 0, 64, 0
2, 79636, Note_on_c, 0, 50, 0
2, 79637, Note_on_c, 0, 62, 0
2, 79637, Note_on_c, 0, 43, 0
2, 79638, Note_on_c, 0, 70, 0
2, 79672, Note_on_c, 0, 58, 0
2, 79818, Control_c, 0, 64, 127
2, 79886, Note_on_c, 0, 46, 75
2, 80158, Note_on_c, 0, 67, 87
2, 80168, Note_on_c, 0, 55, 75
2, 80217, Note_on_c, 0, 69, 0
2, 80227, Note_on_c, 0, 69, 87
2, 80294, Note_on_c, 0, 67, 0
2, 80299, Note_on_c, 0, 67, 80
2, 80404, Control_c, 0, 64, 0
2, 80408, Note_on_c, 0, 65, 85
2, 80413, Note_on_c, 0, 69, 0
2, 80413, Note_on_c, 0, 41, 66
2, 80414, Note_on_c, 0, 67, 0
2, 80415, Note_on_c, 0, 39, 0
2, 80415, Note_on_c, 0, 46, 0
2, 80647, Control_c, 0, 64, 127
2, 80683, Note_on_c, 0, 48, 71
2, 80947, Note_on_c, 0, 65, 0
2, 80957, Note_on_c, 0, 65, 82
2, 80971, Note_on_c, 0, 57, 71
2, 81087, Note_on_c, 0, 60, 71
2, 81227, Note_on_c, 0, 43, 67
2, 81229, Note_on_c, 0, 62, 84
2, 81237, Control_c, 0, 64, 0
2, 81243, Note_on_c, 0, 65, 0
2, 81248, Note_on_c, 0, 48, 0
2, 81249, Note_on_c, 0, 57, 0
2, 81249, Note_on_c, 0, 41, 0
2, 81249, Note_on_c, 0, 60, 0
2, 81346, Note_on_c, 0, 55, 0
2, 81431, Control_c, 0, 64, 127
2, 81509, Note_on_c, 0, 50, 60
2, 81761, Note_on_c, 0, 57, 67
2, 82045, Note_on_c, 0, 58, 70
2, 82564, Note_on_c, 0, 65, 67
2, 82638, Note_on_c, 0, 67, 82
2, 82693, Note_on_c, 0, 69, 92
2, 82823, Control_c, 0, 64, 0
2, 82828, Note_on_c, 0, 57, 0
2, 82829, Note_on_c, 0, 51, 72
2, 82830, Note_on_c, 0, 67, 0
2, 82830, Note_on_c, 0, 62, 0
2, 82830, Note_on_c, 0, 50, 0
2, 82832, Note_on_c, 0, 69, 0
2, 82832, Note_on_c, 0, 58, 0
2, 82844, Note_on_c, 0, 65, 0
2, 82844, Control_c, 0, 64, 127
2, 82852, Note_on_c, 0, 70, 92
2, 82854, Note_on_c, 0, 65, 72
2, 82897, Note_on_c, 0, 43, 0
2, 82897, Control_c, 0, 64, 0
2, 83013, Control_c, 0, 64, 127
2, 83127, Note_on_c, 0, 58, 78
2, 83130, Note_on_c, 0, 72, 99
2, 83136, Note_on_c, 0, 67, 85
2, 83366, Note_on_c, 0, 70, 0
2, 83372, Note_on_c, 0, 70, 92
2, 83379, Note_on_c, 0, 74, 93
2, 83385, Note_on_c, 0, 63, 77
2, 83496, Note_on_c, 0, 70, 0
2, 83508, Note_on_c, 0, 70, 77
2, 83558, Note_on_c, 0, 72, 0
2, 83566, Note_on_c, 0, 72, 81
2, 83604, Note_on_c, 0, 74, 0
2, 83614, Note_on_c, 0, 74, 88
2, 83619, Control_c, 0, 64, 0
2, 83633, Note_on_c, 0, 53, 82
2, 83639, Note_on_c, 0, 67, 0
2, 83639, Note_on_c, 0, 63, 0
2, 83640, Note_on_c, 0, 72, 0
2, 83642, Note_on_c, 0, 51, 0
2, 83644, Note_on_c, 0, 70, 0
2, 83646, Note_on_c, 0, 58, 0
2, 83658, Note_on_c, 0, 65, 0
2, 83663, Note_on_c, 0, 77, 97
2, 83750, Control_c, 0, 64, 127
2, 83899, Note_on_c, 0, 60, 71
2, 84034, Note_on_c, 0, 77, 0
2, 84039, Note_on_c, 0, 77, 96
2, 84044, Note_on_c, 0, 72, 94
2, 84165, Note_on_c, 0, 74, 0
2, 84166, Note_on_c, 0, 79, 93
2, 84169, Note_on_c, 0, 74, 90
2, 84182, Note_on_c, 0, 65, 76
2, 84280, Note_on_c, 0, 81, 97
2, 84414, Control_c, 0, 64, 0
2, 84419, Note_on_c, 0, 82, 103
2, 84424, Note_on_c, 0, 55, 79
2, 84425, Note_on_c, 0, 65, 0
2, 84426, Note_on_c, 0, 74, 0
2, 84426, Note_on_c, 0, 60, 0
2, 84427, Note_on_c, 0, 53, 0
2, 84428, Note_on_c, 0, 72, 0
2, 84429, Note_on_c, 0, 77, 0
2, 84429, Note_on_c, 0, 79, 0
2, 84429, Note_on_c, 0, 81, 0
2, 84432, Note_on_c, 0, 74, 82
2, 84572, Control_c, 0, 64, 127
2, 84702, Note_on_c, 0, 62, 63
2, 84947, Note_on_c, 0, 69, 77
2, 85209, Note_on_c, 0, 82, 0
2, 85213, Note_on_c, 0, 70, 81
2, 85220, Note_on_c, 0, 82, 97
2, 85232, Note_on_c, 0, 74, 0
2, 85241, Note_on_c, 0, 74, 81
2, 85490, Note_on_c, 0, 81, 80
2, 85532, Note_on_c, 0, 82, 0
2, 85536, Note_on_c, 0, 82, 90
2, 85593, Note_on_c, 0, 81, 0
2, 85603, Note_on_c, 0, 81, 91
2, 85759, Note_on_c, 0, 77, 92
2, 85790, Note_on_c, 0, 72, 70
2, 86007, Control_c, 0, 64, 0
2, 86014, Note_on_c, 0, 51, 76
2, 86016, Note_on_c, 0, 82, 0
2, 86018, Note_on_c, 0, 79, 96
2, 86019, Note_on_c, 0, 62, 0
2, 86019, Note_on_c, 0, 69, 0
2, 86031, Note_on_c, 0, 74, 0
2, 86031, Note_on_c, 0, 77, 0
2, 86033, Note_on_c, 0, 72, 0
2, 86034, Note_on_c, 0, 55, 0
2, 86035, Note_on_c, 0, 74, 90
2, 86035, Note_on_c, 0, 77, 72
2, 86038, Note_on_c, 0, 81, 0
2, 86046, Note_on_c, 0, 70, 0
2, 86051, Note_on_c, 0, 70, 52
2, 86115, Control_c, 0, 64, 127
2, 86169, Note_on_c, 0, 70, 0
2, 86277, Note_on_c, 0, 77, 0
2, 86285, Note_on_c, 0, 58, 73
2, 86286, Note_on_c, 0, 77, 91
2, 86295, Note_on_c, 0, 72, 88
2, 86538, Note_on_c, 0, 74, 0
2, 86542, Note_on_c, 0, 74, 91
2, 86564, Note_on_c, 0, 70, 73
2, 86565, Note_on_c, 0, 67, 63
2, 86707, Note_on_c, 0, 77, 0
2, 86712, Note_on_c, 0, 77, 85
2, 86776, Note_on_c, 0, 74, 0
2, 86785, Note_on_c, 0, 74, 82
2, 86822, Note_on_c, 0, 72, 0
2, 86832, Note_on_c, 0, 53, 76
2, 86833, Note_on_c, 0, 72, 88
2, 86848, Control_c, 0, 64, 0
2, 86856, Note_on_c, 0, 51, 0
2, 86857, Note_on_c, 0, 67, 0
2, 86857, Note_on_c, 0, 70, 0
2, 86857, Note_on_c, 0, 79, 0
2, 86858, Note_on_c, 0, 58, 0
2, 86860, Note_on_c, 0, 74, 0
2, 86862, Note_on_c, 0, 77, 0
2, 87006, Control_c, 0, 64, 127
2, 87102, Note_on_c, 0, 60, 54
2, 87370, Note_on_c, 0, 65, 58
2, 87378, Note_on_c, 0, 70, 74
2, 87515, Note_on_c, 0, 69, 68
2, 87650, Note_on_c, 0, 67, 75
2, 87661, Control_c, 0, 64, 0
2, 87665, Note_on_c, 0, 70, 0
2, 87667, Note_on_c, 0, 60, 0
2, 87668, Note_on_c, 0, 53, 0
2, 87669, Note_on_c, 0, 65, 0
2, 87670, Note_on_c, 0, 69, 0
2, 87671, Note_on_c, 0, 55, 48
2, 87674, Note_on_c, 0, 72, 0
2, 87676, Note_on_c, 0, 62, 44
2, 88250, Control_c, 0, 64, 127
2, 90240, Note_on_c, 0, 55, 0
2, 90240, Note_on_c, 0, 62, 0
2, 90240, Note_on_c, 0, 67, 0
2, 90253, Note_on_c, 0, 74, 46
2, 91010, Note_on_c, 0, 67, 52
2, 91016, Note_on_c, 0, 84, 66
2, 91150, Note_on_c, 0, 82, 70
2, 91151, Note_on_c, 0, 69, 59
2, 91280, Note_on_c, 0, 81, 52
2, 91281, Note_on_c, 0, 70, 59
2, 91392, Note_on_c, 0, 82, 0
2, 91399, Note_on_c, 0, 74, 0
2, 91403, Note_on_c, 0, 82, 59
2, 91403, Note_on_c, 0, 74, 57
2, 91519, Note_on_c, 0, 77, 55
2, 91522, Note_on_c, 0, 70, 0
2, 91527, Note_on_c, 0, 70, 65
2, 91645, Note_on_c, 0, 69, 0
2, 91645, Note_on_c, 0, 82, 0
2, 91649, Note_on_c, 0, 82, 64
2, 91653, Note_on_c, 0, 69, 57
2, 91752, Note_on_c, 0, 84, 0
2, 91763, Note_on_c, 0, 84, 73
2, 91768, Note_on_c, 0, 67, 0
2, 91777, Note_on_c, 0, 67, 65
2, 91883, Note_on_c, 0, 82, 0
2, 91891, Note_on_c, 0, 69, 0
2, 91894, Note_on_c, 0, 82, 66
2, 91895, Note_on_c, 0, 69, 49
2, 92021, Note_on_c, 0, 70, 0
2, 92021, Note_on_c, 0, 81, 0
2, 92025, Note_on_c, 0, 81, 66
2, 92026, Note_on_c, 0, 70, 60
2, 92144, Note_on_c, 0, 74, 0
2, 92144, Note_on_c, 0, 82, 0
2, 92153, Note_on_c, 0, 74, 73
2, 92154, Note_on_c, 0, 82, 72
2, 92267, Note_on_c, 0, 70, 0
2, 92267, Note_on_c, 0, 77, 0
2, 92277, Note_on_c, 0, 70, 69
2, 92278, Note_on_c, 0, 77, 58
2, 92398, Note_on_c, 0, 69, 0
2, 92398, Note_on_c, 0, 82, 0
2, 92401, Note_on_c, 0, 82, 72
2, 92402, Note_on_c, 0, 69, 61
2, 92520, Note_on_c, 0, 67, 0
2, 92520, Note_on_c, 0, 84, 0
2, 92526, Note_on_c, 0, 84, 80
2, 92528, Note_on_c, 0, 67, 69
2, 92651, Note_on_c, 0, 69, 0
2, 92651, Note_on_c, 0, 82, 0
2, 92655, Note_on_c, 0, 69, 52
2, 92655, Note_on_c, 0, 82, 74
2, 92774, Note_on_c, 0, 81, 0
2, 92782, Note_on_c, 0, 70, 0
2, 92785, Note_on_c, 0, 81, 72
2, 92788, Note_on_c, 0, 70, 65
2, 92889, Note_on_c, 0, 74, 0
2, 92889, Note_on_c, 0, 82, 0
2, 92894, Note_on_c, 0, 82, 72
2, 92895, Note_on_c, 0, 74, 68
2, 93004, Note_on_c, 0, 77, 0
2, 93012, Note_on_c, 0, 77, 57
2, 93012, Note_on_c, 0, 70, 0
2, 93023, Note_on_c, 0, 70, 66
2, 93135, Note_on_c, 0, 69, 0
2, 93135, Note_on_c, 0, 82, 0
2, 93145, Note_on_c, 0, 82, 76
2, 93145, Note_on_c, 0, 69, 61
2, 93281, Note_on_c, 0, 67, 0
2, 93281, Note_on_c, 0, 84, 0
2, 93285, Note_on_c, 0, 84, 90
2, 93287, Note_on_c, 0, 67, 68
2, 93411, Note_on_c, 0, 69, 0
2, 93422, Note_on_c, 0, 69, 65
2, 93542, Note_on_c, 0, 70, 0
2, 93552, Note_on_c, 0, 86, 97
2, 93553, Note_on_c, 0, 70, 83
2, 93665, Note_on_c, 0, 74, 0
2, 93672, Note_on_c, 0, 74, 80
2, 93795, Note_on_c, 0, 70, 0
2, 93795, Note_on_c, 0, 84, 0
2, 93801, Note_on_c, 0, 70, 77
2, 93805, Note_on_c, 0, 84, 90
2, 93911, Note_on_c, 0, 69, 0
2, 93911, Note_on_c, 0, 82, 0
2, 93916, Note_on_c, 0, 69, 67
2, 93922, Note_on_c, 0, 82, 90
2, 93949, Note_on_c, 0, 70, 0
2, 93957, Note_on_c, 0, 70, 47
2, 94012, Control_c, 0, 64, 0
2, 94015, Note_on_c, 0, 81, 0
2, 94016, Note_on_c, 0, 74, 0
2, 94016, Note_on_c, 0, 77, 0
2, 94017, Note_on_c, 0, 86, 0
2, 94017, Note_on_c, 0, 67, 0
2, 94017, Note_on_c, 0, 70, 0
2, 94018, Note_on_c, 0, 69, 0
2, 94041, Note_on_c, 0, 82, 0
2, 94041, Note_on_c, 0, 84, 0
2, 94047, Note_on_c, 0, 84, 97
2, 94049, Note_on_c, 0, 65, 79
2, 94095, Control_c, 0, 64, 127
2, 94174, Note_on_c, 0, 69, 73
2, 94179, Note_on_c, 0, 82, 91
2, 94306, Note_on_c, 0, 70, 75
2, 94307, Note_on_c, 0, 81, 72
2, 94425, Note_on_c, 0, 82, 0
2, 94432, Note_on_c, 0, 72, 76
2, 94435, Note_on_c, 0, 82, 77
2, 94540, Note_on_c, 0, 70, 0
2, 94549, Note_on_c, 0, 77, 70
2, 94550, Note_on_c, 0, 70, 64
2, 94671, Note_on_c, 0, 69, 0
2, 94671, Note_on_c, 0, 82, 0
2, 94682, Note_on_c, 0, 69, 62
2, 94682, Note_on_c, 0, 82, 75
2, 94786, Note_on_c, 0, 65, 0
2, 94786, Note_on_c, 0, 84, 0
2, 94790, Note_on_c, 0, 84, 97
2, 94791, Note_on_c, 0, 65, 70
2, 94924, Note_on_c, 0, 82, 0
2, 94929, Note_on_c, 0, 82, 74
2, 95047, Note_on_c, 0, 70, 0
2, 95047, Note_on_c, 0, 81, 0
2, 95054, Note_on_c, 0, 70, 73
2, 95055, Note_on_c, 0, 81, 75
2, 95170, Note_on_c, 0, 72, 0
2, 95178, Note_on_c, 0, 82, 0
2, 95179, Note_on_c, 0, 72, 80
2, 95182, Note_on_c, 0, 82, 75
2, 95301, Note_on_c, 0, 70, 0
2, 95301, Note_on_c, 0, 77, 0
2, 95306, Note_on_c, 0, 77, 70
2, 95306, Note_on_c, 0, 70, 73
2, 95416, Note_on_c, 0, 69, 0
2, 95416, Note_on_c, 0, 82, 0
2, 95421, Note_on_c, 0, 82, 80
2, 95423, Note_on_c, 0, 69, 73
2, 95531, Note_on_c, 0, 65, 0
2, 95531, Note_on_c, 0, 84, 0
2, 95539, Note_on_c, 0, 84, 90
2, 95540, Note_on_c, 0, 65, 76
2, 95654, Note_on_c, 0, 69, 0
2, 95654, Note_on_c, 0, 82, 0
2, 95660, Note_on_c, 0, 82, 85
2, 95661, Note_on_c, 0, 69, 66
2, 95777, Note_on_c, 0, 70, 0
2, 95777, Note_on_c, 0, 81, 0
2, 95784, Note_on_c, 0, 81, 76
2, 95784, Note_on_c, 0, 70, 75
2, 95907, Note_on_c, 0, 72, 0
2, 95907, Note_on_c, 0, 82, 0
2, 95913, Note_on_c, 0, 72, 74
2, 95918, Note_on_c, 0, 82, 68
2, 96030, Note_on_c, 0, 77, 0
2, 96038, Note_on_c, 0, 70, 0
2, 96041, Note_on_c, 0, 77, 61
2, 96044, Note_on_c, 0, 70, 72
2, 96145, Note_on_c, 0, 69, 0
2, 96145, Note_on_c, 0, 82, 0
2, 96155, Note_on_c, 0, 82, 78
2, 96156, Note_on_c, 0, 69, 65
2, 96284, Note_on_c, 0, 65, 0
2, 96284, Note_on_c, 0, 81, 0
2, 96289, Note_on_c, 0, 81, 94
2, 96290, Note_on_c, 0, 65, 73
2, 96414, Note_on_c, 0, 69, 0
2, 96418, Note_on_c, 0, 69, 65
2, 96537, Note_on_c, 0, 70, 0
2, 96537, Note_on_c, 0, 82, 0
2, 96546, Note_on_c, 0, 82, 95
2, 96546, Note_on_c, 0, 70, 85
2, 96668, Note_on_c, 0, 72, 0
2, 96672, Note_on_c, 0, 72, 88
2, 96775, Note_on_c, 0, 70, 0
2, 96785, Note_on_c, 0, 70, 79
2, 96786, Note_on_c, 0, 89, 103
2, 96883, Note_on_c, 0, 69, 0
2, 96894, Note_on_c, 0, 69, 72
2, 97036, Note_on_c, 0, 89, 0
2, 97041, Note_on_c, 0, 89, 106
2, 97044, Note_on_c, 0, 60, 76
2, 97051, Note_on_c, 0, 82, 0
2, 97051, Note_on_c, 0, 65, 0
2, 97051, Note_on_c, 0, 84, 0
2, 97052, Note_on_c, 0, 72, 0
2, 97052, Note_on_c, 0, 81, 0
2, 97053, Note_on_c, 0, 70, 0
2, 97055, Control_c, 0, 64, 0
2, 97067, Note_on_c, 0, 69, 0
2, 97075, Note_on_c, 0, 77, 0
2, 97128, Control_c, 0, 64, 127
2, 97181, Note_on_c, 0, 67, 70
2, 97187, Note_on_c, 0, 82, 87
2, 97291, Note_on_c, 0, 69, 73
2, 97327, Note_on_c, 0, 81, 66
2, 97420, Note_on_c, 0, 82, 0
2, 97424, Note_on_c, 0, 70, 82
2, 97430, Note_on_c, 0, 82, 75
2, 97536, Note_on_c, 0, 74, 88
2, 97541, Note_on_c, 0, 77, 73
2, 97658, Note_on_c, 0, 82, 0
2, 97669, Note_on_c, 0, 82, 81
2, 97669, Note_on_c, 0, 75, 81
2, 97751, Note_on_c, 0, 60, 0
2, 97789, Note_on_c, 0, 89, 0
2, 97799, Note_on_c, 0, 89, 94
2, 97799, Note_on_c, 0, 79, 80
2, 97912, Note_on_c, 0, 75, 0
2, 97912, Note_on_c, 0, 82, 0
2, 97922, Note_on_c, 0, 75, 85
2, 97923, Note_on_c, 0, 82, 78
2, 98042, Note_on_c, 0, 74, 0
2, 98042, Note_on_c, 0, 81, 0
2, 98051, Note_on_c, 0, 74, 88
2, 98052, Note_on_c, 0, 81, 87
2, 98158, Note_on_c, 0, 70, 0
2, 98166, Note_on_c, 0, 70, 82
2, 98173, Note_on_c, 0, 82, 0
2, 98182, Note_on_c, 0, 82, 82
2, 98280, Note_on_c, 0, 69, 0
2, 98284, Note_on_c, 0, 87, 99
2, 98286, Note_on_c, 0, 69, 71
2, 98396, Note_on_c, 0, 67, 0
2, 98401, Note_on_c, 0, 67, 84
2, 98405, Note_on_c, 0, 86, 100
2, 98516, Control_c, 0, 64, 0
2, 98517, Note_on_c, 0, 87, 0
2, 98517, Note_on_c, 0, 82, 0
2, 98518, Note_on_c, 0, 74, 0
2, 98518, Note_on_c, 0, 69, 0
2, 98519, Note_on_c, 0, 89, 0
2, 98519, Note_on_c, 0, 67, 0
2, 98519, Note_on_c, 0, 79, 0
2, 98519, Note_on_c, 0, 77, 0
2, 98529, Note_on_c, 0, 62, 80
2, 98529, Note_on_c, 0, 84, 101
2, 98534, Note_on_c, 0, 70, 0
2, 98534, Note_on_c, 0, 75, 0
2, 98534, Note_on_c, 0, 81, 0
2, 98626, Control_c, 0, 64, 127
2, 98649, Note_on_c, 0, 86, 0
2, 98659, Note_on_c, 0, 67, 78
2, 98661, Note_on_c, 0, 82, 75
2, 98780, Note_on_c, 0, 69, 75
2, 98785, Note_on_c, 0, 81, 72
2, 98893, Note_on_c, 0, 70, 87
2, 98895, Note_on_c, 0, 82, 0
2, 98900, Note_on_c, 0, 82, 75
2, 99022, Note_on_c, 0, 72, 87
2, 99034, Note_on_c, 0, 77, 80
2, 99133, Note_on_c, 0, 82, 0
2, 99144, Note_on_c, 0, 74, 92
2, 99144, Note_on_c, 0, 82, 84
2, 99256, Note_on_c, 0, 77, 0
2, 99256, Note_on_c, 0, 84, 0
2, 99266, Note_on_c, 0, 84, 83
2, 99267, Note_on_c, 0, 77, 87
2, 99386, Note_on_c, 0, 74, 0
2, 99386, Note_on_c, 0, 82, 0
2, 99393, Note_on_c, 0, 74, 87
2, 99395, Note_on_c, 0, 82, 81
2, 99517, Note_on_c, 0, 72, 0
2, 99517, Note_on_c, 0, 81, 0
2, 99525, Note_on_c, 0, 72, 84
2, 99527, Note_on_c, 0, 81, 73
2, 99640, Note_on_c, 0, 69, 0
2, 99640, Note_on_c, 0, 82, 0
2, 99646, Note_on_c, 0, 82, 74
2, 99650, Note_on_c, 0, 69, 83
2, 99770, Note_on_c, 0, 62, 0
2, 99770, Note_on_c, 0, 74, 0
2, 99778, Note_on_c, 0, 86, 105
2, 99780, Note_on_c, 0, 62, 88
2, 99782, Note_on_c, 0, 74, 100
2, 100020, Note_on_c, 0, 81, 0
2, 100021, Note_on_c, 0, 72, 0
2, 100021, Note_on_c, 0, 84, 0
2, 100022, Note_on_c, 0, 77, 0
2, 100023, Note_on_c, 0, 82, 0
2, 100023, Note_on_c, 0, 70, 0
2, 100023, Note_on_c, 0, 86, 0
2, 100024, Note_on_c, 0, 62, 0
2, 100026, Note_on_c, 0, 67, 0
2, 100026, Note_on_c, 0, 69, 0
2, 100039, Note_on_c, 0, 74, 0
2, 100044, Control_c, 0, 64, 0
2, 100054, Note_on_c, 0, 87, 103
2, 100057, Note_on_c, 0, 79, 98
2, 100057, Note_on_c, 0, 44, 95
2, 100058, Note_on_c, 0, 75, 101
2, 100293, Control_c, 0, 64, 127
2, 100324, Note_on_c, 0, 51, 79
2, 100430, Note_on_c, 0, 56, 75
2, 100548, Note_on_c, 0, 94, 107
2, 100549, Note_on_c, 0, 82, 102
2, 100555, Note_on_c, 0, 58, 86
2, 100657, Note_on_c, 0, 60, 86
2, 100784, Note_on_c, 0, 56, 0
2, 100794, Note_on_c, 0, 56, 83
2, 100807, Note_on_c, 0, 82, 0
2, 100807, Note_on_c, 0, 94, 0
2, 100812, Note_on_c, 0, 82, 106
2, 100816, Note_on_c, 0, 94, 107
2, 100816, Note_on_c, 0, 86, 95
2, 100884, Note_on_c, 0, 60, 0
2, 100890, Note_on_c, 0, 60, 86
2, 100953, Note_on_c, 0, 87, 0
2, 100965, Note_on_c, 0, 87, 76
2, 101001, Note_on_c, 0, 62, 84
2, 101068, Note_on_c, 0, 86, 0
2, 101074, Note_on_c, 0, 86, 79
2, 101085, Note_on_c, 0, 63, 83
2, 101159, Note_on_c, 0, 67, 85
2, 101184, Note_on_c, 0, 87, 0
2, 101193, Note_on_c, 0, 87, 94
2, 101251, Note_on_c, 0, 68, 89
2, 101306, Note_on_c, 0, 82, 0
2, 101311, Note_on_c, 0, 82, 90
2, 101316, Note_on_c, 0, 72, 94
2, 101397, Note_on_c, 0, 74, 95
2, 101422, Note_on_c, 0, 87, 0
2, 101428, Note_on_c, 0, 87, 86
2, 101468, Note_on_c, 0, 75, 0
2, 101473, Note_on_c, 0, 75, 94
2, 101544, Note_on_c, 0, 79, 0
2, 101551, Note_on_c, 0, 91, 102
2, 101555, Note_on_c, 0, 79, 102
2, 101644, Note_on_c, 0, 75, 0
2, 101648, Note_on_c, 0, 75, 94
2, 101667, Note_on_c, 0, 87, 0
2, 101677, Note_on_c, 0, 87, 91
2, 101706, Note_on_c, 0, 74, 0
2, 101713, Note_on_c, 0, 74, 90
2, 101783, Note_on_c, 0, 72, 0
2, 101792, Note_on_c, 0, 72, 90
2, 101798, Note_on_c, 0, 86, 0
2, 101808, Note_on_c, 0, 86, 90
2, 101859, Note_on_c, 0, 68, 0
2, 101867, Note_on_c, 0, 68, 91
2, 101913, Note_on_c, 0, 87, 0
2, 101917, Note_on_c, 0, 87, 84
2, 101928, Note_on_c, 0, 67, 0
2, 101933, Note_on_c, 0, 67, 85
2, 102021, Note_on_c, 0, 63, 0
2, 102021, Note_on_c, 0, 82, 0
2, 102026, Note_on_c, 0, 63, 77
2, 102028, Note_on_c, 0, 82, 77
2, 102097, Note_on_c, 0, 62, 0
2, 102104, Note_on_c, 0, 62, 82
2, 102144, Note_on_c, 0, 86, 0
2, 102154, Note_on_c, 0, 86, 98
2, 102167, Note_on_c, 0, 60, 0
2, 102178, Note_on_c, 0, 60, 64
2, 102289, Note_on_c, 0, 56, 0
2, 102289, Note_on_c, 0, 82, 0
2, 102289, Note_on_c, 0, 94, 0
2, 102293, Note_on_c, 0, 56, 82
2, 102295, Note_on_c, 0, 94, 109
2, 102295, Note_on_c, 0, 82, 105
2, 102397, Note_on_c, 0, 60, 0
2, 102407, Note_on_c, 0, 60, 85
2, 102535, Note_on_c, 0, 62, 0
2, 102543, Note_on_c, 0, 82, 0
2, 102543, Note_on_c, 0, 94, 0
2, 102544, Note_on_c, 0, 62, 92
2, 102548, Note_on_c, 0, 94, 104
2, 102550, Note_on_c, 0, 82, 106
2, 102635, Note_on_c, 0, 63, 0
2, 102646, Note_on_c, 0, 63, 95
2, 102789, Note_on_c, 0, 67, 0
2, 102791, Note_on_c, 0, 96, 107
2, 102793, Note_on_c, 0, 67, 92
2, 102793, Note_on_c, 0, 84, 107
2, 102888, Note_on_c, 0, 56, 0
2, 102896, Note_on_c, 0, 56, 88
2, 103037, Note_on_c, 0, 56, 0
2, 103037, Note_on_c, 0, 79, 0
2, 103038, Control_c, 0, 64, 0
2, 103038, Note_on_c, 0, 51, 0
2, 103038, Note_on_c, 0, 75, 0
2, 103038, Note_on_c, 0, 58, 0
2, 103038, Note_on_c, 0, 44, 0
2, 103038, Note_on_c, 0, 62, 0
2, 103038, Note_on_c, 0, 96, 0
2, 103038, Note_on_c, 0, 68, 0
2, 103038, Note_on_c, 0, 84, 0
2, 103039, Note_on_c, 0, 87, 0
2, 103039, Note_on_c, 0, 94, 0
2, 103039, Note_on_c, 0, 72, 0
2, 103039, Note_on_c, 0, 67, 0
2, 103040, Note_on_c, 0, 91, 0
2, 103040, Note_on_c, 0, 74, 0
2, 103041, Note_on_c, 0, 60, 0
2, 103050, Note_on_c, 0, 63, 0
2, 103050, Note_on_c, 0, 86, 0
2, 103050, Note_on_c, 0, 93, 109
2, 103052, Note_on_c, 0, 43, 93
2, 103053, Note_on_c, 0, 81, 99
2, 103055, Note_on_c, 0, 89, 86
2, 103055, Note_on_c, 0, 86, 94
2, 103272, Control_c, 0, 64, 127
2, 103287, Note_on_c, 0, 50, 82
2, 103423, Note_on_c, 0, 53, 81
2, 103529, Note_on_c, 0, 57, 95
2, 103557, Note_on_c, 0, 89, 0
2, 103561, Note_on_c, 0, 89, 101
2, 103573, Note_on_c, 0, 77, 84
2, 103654, Note_on_c, 0, 58, 93
2, 103801, Note_on_c, 0, 55, 93
2, 103802, Note_on_c, 0, 86, 0
2, 103807, Note_on_c, 0, 86, 102
2, 103813, Note_on_c, 0, 74, 97
2, 103879, Note_on_c, 0, 57, 0
2, 103891, Note_on_c, 0, 57, 88
2, 103941, Note_on_c, 0, 82, 0
2, 103950, Note_on_c, 0, 82, 90
2, 103964, Note_on_c, 0, 58, 0
2, 103973, Note_on_c, 0, 58, 90
2, 104061, Note_on_c, 0, 62, 86
2, 104064, Note_on_c, 0, 81, 0
2, 104075, Note_on_c, 0, 81, 89
2, 104145, Note_on_c, 0, 65, 91
2, 104186, Note_on_c, 0, 82, 0
2, 104194, Note_on_c, 0, 82, 92
2, 104245, Note_on_c, 0, 67, 79
2, 104322, Note_on_c, 0, 69, 90
2, 104405, Note_on_c, 0, 70, 88
2, 104417, Note_on_c, 0, 82, 0
2, 104428, Note_on_c, 0, 82, 93
2, 104471, Note_on_c, 0, 74, 0
2, 104480, Note_on_c, 0, 74, 92
2, 104547, Note_on_c, 0, 77, 0
2, 104547, Note_on_c, 0, 89, 0
2, 104558, Note_on_c, 0, 77, 100
2, 104559, Note_on_c, 0, 89, 99
2, 104632, Note_on_c, 0, 74, 0
2, 104639, Note_on_c, 0, 74, 95
2, 104663, Note_on_c, 0, 82, 0
2, 104673, Note_on_c, 0, 82, 94
2, 104793, Note_on_c, 0, 69, 0
2, 104793, Note_on_c, 0, 81, 0
2, 104797, Note_on_c, 0, 69, 75
2, 104802, Note_on_c, 0, 81, 87
2, 104878, Note_on_c, 0, 65, 0
2, 104884, Note_on_c, 0, 65, 79
2, 104924, Note_on_c, 0, 82, 0
2, 104935, Note_on_c, 0, 82, 86
2, 104970, Note_on_c, 0, 62, 0
2, 104979, Note_on_c, 0, 62, 79
2, 104993, Note_on_c, 0, 77, 0
2, 104998, Note_on_c, 0, 77, 53
2, 105054, Note_on_c, 0, 77, 0
2, 105058, Note_on_c, 0, 77, 68
2, 105070, Note_on_c, 0, 58, 0
2, 105079, Note_on_c, 0, 58, 89
2, 105169, Note_on_c, 0, 57, 0
2, 105177, Note_on_c, 0, 82, 0
2, 105181, Note_on_c, 0, 57, 84
2, 105181, Note_on_c, 0, 82, 86
2, 105285, Note_on_c, 0, 55, 0
2, 105289, Note_on_c, 0, 55, 95
2, 105292, Note_on_c, 0, 74, 0
2, 105292, Note_on_c, 0, 86, 0
2, 105301, Note_on_c, 0, 86, 103
2, 105303, Note_on_c, 0, 74, 98
2, 105415, Note_on_c, 0, 57, 0
2, 105419, Note_on_c, 0, 57, 75
2, 105523, Note_on_c, 0, 58, 0
2, 105529, Note_on_c, 0, 58, 91
2, 105557, Note_on_c, 0, 91, 110
2, 105561, Note_on_c, 0, 79, 99
2, 105600, Note_on_c, 0, 43, 0
2, 105600, Note_on_c, 0, 93, 0
2, 105661, Note_on_c, 0, 62, 0
2, 105669, Note_on_c, 0, 62, 90
2, 105799, Note_on_c, 0, 65, 0
2, 105799, Note_on_c, 0, 89, 0
2, 105807, Note_on_c, 0, 77, 0
2, 105808, Note_on_c, 0, 89, 105
2, 105809, Note_on_c, 0, 65, 100
2, 105811, Note_on_c, 0, 77, 100
2, 106053, Note_on_c, 0, 50, 0
2, 106056, Note_on_c, 0, 81, 0
2, 106056, Note_on_c, 0, 57, 0
2, 106056, Note_on_c, 0, 69, 0
2, 106056, Note_on_c, 0, 77, 0
2, 106056, Note_on_c, 0, 89, 0
2, 106056, Note_on_c, 0, 55, 0
2, 106056, Note_on_c, 0, 86, 0
2, 106056, Note_on_c, 0, 79, 0
2, 106057, Note_on_c, 0, 62, 0
2, 106057, Note_on_c, 0, 58, 0
2, 106057, Note_on_c, 0, 65, 0
2, 106057, Note_on_c, 0, 67, 0
2, 106057, Note_on_c, 0, 53, 0
2, 106057, Note_on_c, 0, 91, 0
2, 106060, Note_on_c, 0, 70, 0
2, 106060, Note_on_c, 0, 82, 0
2, 106065, Control_c, 0, 64, 0
2, 106068, Note_on_c, 0, 74, 0
2, 106070, Note_on_c, 0, 82, 105
2, 106071, Note_on_c, 0, 70, 96
2, 106072, Note_on_c, 0, 40, 92
2, 106073, Note_on_c, 0, 74, 89
2, 106074, Note_on_c, 0, 52, 88
2, 106176, Note_on_c, 0, 40, 0
2, 106199, Control_c, 0, 64, 127
2, 106345, Note_on_c, 0, 67, 89
2, 106471, Note_on_c, 0, 58, 79
2, 106478, Note_on_c, 0, 55, 73
2, 106614, Note_on_c, 0, 65, 87
2, 106728, Note_on_c, 0, 52, 0
2, 106739, Note_on_c, 0, 52, 83
2, 106867, Note_on_c, 0, 82, 0
2, 106874, Note_on_c, 0, 55, 0
2, 106874, Note_on_c, 0, 58, 0
2, 106874, Note_on_c, 0, 70, 0
2, 106877, Note_on_c, 0, 82, 107
2, 106878, Note_on_c, 0, 70, 98
2, 106878, Note_on_c, 0, 60, 93
2, 106880, Note_on_c, 0, 58, 97
2, 106883, Note_on_c, 0, 55, 93
2, 107143, Note_on_c, 0, 91, 108
2, 107148, Note_on_c, 0, 79, 96
2, 107406, Note_on_c, 0, 89, 105
2, 107409, Note_on_c, 0, 77, 90
2, 107623, Note_on_c, 0, 55, 0
2, 107623, Note_on_c, 0, 74, 0
2, 107623, Note_on_c, 0, 52, 0
2, 107623, Note_on_c, 0, 67, 0
2, 107623, Note_on_c, 0, 79, 0
2, 107623, Note_on_c, 0, 58, 0
2, 107623, Control_c, 0, 64, 0
2, 107623, Note_on_c, 0, 89, 0
2, 107623, Note_on_c, 0, 91, 0
2, 107624, Note_on_c, 0, 60, 0
2, 107624, Note_on_c, 0, 65, 0
2, 107650, Note_on_c, 0, 70, 0
2, 107650, Note_on_c, 0, 82, 0
2, 107654, Note_on_c, 0, 82, 104
2, 107656, Note_on_c, 0, 51, 95
2, 107656, Note_on_c, 0, 39, 88
2, 107659, Note_on_c, 0, 70, 97
2, 107696, Control_c, 0, 64, 127
2, 107910, Note_on_c, 0, 67, 87
2, 108022, Note_on_c, 0, 58, 92
2, 108030, Note_on_c, 0, 55, 81
2, 108171, Note_on_c, 0, 65, 92
2, 108280, Note_on_c, 0, 51, 0
2, 108291, Note_on_c, 0, 51, 74
2, 108441, Note_on_c, 0, 55, 0
2, 108441, Note_on_c, 0, 58, 0
2, 108444, Note_on_c, 0, 84, 106
2, 108446, Note_on_c, 0, 60, 99
2, 108446, Note_on_c, 0, 72, 101
2, 108447, Note_on_c, 0, 58, 97
2, 108449, Note_on_c, 0, 55, 93
2, 108718, Note_on_c, 0, 77, 0
2, 108720, Note_on_c, 0, 89, 106
2, 108723, Note_on_c, 0, 77, 96
2, 109096, Note_on_c, 0, 88, 101
2, 109143, Note_on_c, 0, 87, 90
2, 109221, Note_on_c, 0, 86, 109
2, 109225, Note_on_c, 0, 74, 105
2, 109229, Note_on_c, 0, 48, 96
2, 109229, Control_c, 0, 64, 0
2, 109231, Note_on_c, 0, 36, 96
2, 109232, Note_on_c, 0, 77, 0
2, 109233, Note_on_c, 0, 55, 0
2, 109233, Note_on_c, 0, 65, 0
2, 109233, Note_on_c, 0, 51, 0
2, 109233, Note_on_c, 0, 60, 0
2, 109233, Note_on_c, 0, 82, 0
2, 109233, Note_on_c, 0, 89, 0
2, 109233, Note_on_c, 0, 58, 0
2, 109235, Note_on_c, 0, 67, 0
2, 109235, Note_on_c, 0, 84, 0
2, 109235, Note_on_c, 0, 70, 0
2, 109235, Note_on_c, 0, 72, 0
2, 109236, Note_on_c, 0, 87, 0
2, 109240, Note_on_c, 0, 39, 0
2, 109240, Note_on_c, 0, 88, 0
2, 109309, Control_c, 0, 64, 127
2, 109447, Note_on_c, 0, 36, 0
2, 109495, Note_on_c, 0, 62, 89
2, 109613, Note_on_c, 0, 58, 95
2, 109628, Note_on_c, 0, 55, 76
2, 109745, Note_on_c, 0, 63, 93
2, 109854, Note_on_c, 0, 48, 0
2, 109866, Note_on_c, 0, 48, 90
2, 109992, Note_on_c, 0, 55, 0
2, 109992, Note_on_c, 0, 58, 0
2, 109992, Note_on_c, 0, 62, 0
2, 110000, Note_on_c, 0, 58, 100
2, 110000, Note_on_c, 0, 62, 102
2, 110002, Note_on_c, 0, 55, 98
2, 110003, Note_on_c, 0, 65, 101
2, 110265, Note_on_c, 0, 36, 96
2, 110274, Note_on_c, 0, 67, 101
2, 110522, Note_on_c, 0, 48, 0
2, 110526, Note_on_c, 0, 70, 101
2, 110528, Note_on_c, 0, 48, 101
2, 110725, Control_c, 0, 64, 0
2, 110729, Note_on_c, 0, 86, 0
2, 110730, Note_on_c, 0, 55, 0
2, 110730, Note_on_c, 0, 48, 0
2, 110730, Note_on_c, 0, 58, 0
2, 110731, Note_on_c, 0, 36, 0
2, 110731, Note_on_c, 0, 62, 0
2, 110732, Note_on_c, 0, 67, 0
2, 110732, Note_on_c, 0, 70, 0
2, 110732, Note_on_c, 0, 65, 0
2, 110733, Note_on_c, 0, 74, 0
2, 110733, Note_on_c, 0, 63, 0
2, 110777, Note_on_c, 0, 72, 108
2, 110781, Note_on_c, 0, 69, 97
2, 110787, Note_on_c, 0, 65, 90
2, 110789, Note_on_c, 0, 50, 100
2, 110790, Note_on_c, 0, 60, 97
2, 110790, Note_on_c, 0, 38, 97
2, 110814, Control_c, 0, 64, 127
2, 110906, Note_on_c, 0, 50, 0
2, 110916, Note_on_c, 0, 50, 34
2, 111037, Note_on_c, 0, 38, 0
2, 111042, Note_on_c, 0, 38, 86
2, 111098, Note_on_c, 0, 50, 0
2, 111103, Note_on_c, 0, 50, 86
2, 111175, Note_on_c, 0, 38, 0
2, 111181, Note_on_c, 0, 38, 79
2, 111221, Note_on_c, 0, 50, 0
2, 111228, Note_on_c, 0, 50, 90
2, 111268, Note_on_c, 0, 96, 107
2, 111269, Note_on_c, 0, 84, 111
2, 111313, Note_on_c, 0, 38, 0
2, 111321, Note_on_c, 0, 50, 0
2, 111322, Note_on_c, 0, 38, 86
2, 111333, Note_on_c, 0, 50, 91
2, 111500, Control_c, 0, 64, 0
2, 111502, Note_on_c, 0, 38, 0
2, 111504, Note_on_c, 0, 69, 0
2, 111506, Note_on_c, 0, 50, 0
2, 111507, Note_on_c, 0, 60, 0
2, 111509, Note_on_c, 0, 72, 0
2, 111511, Note_on_c, 0, 96, 0
2, 111513, Note_on_c, 0, 84, 0
2, 111520, Note_on_c, 0, 94, 115
2, 111521, Note_on_c, 0, 65, 0
2, 111524, Note_on_c, 0, 82, 108
2, 111720, Control_c, 0, 64, 127
2, 111770, Note_on_c, 0, 93, 112
2, 111773, Note_on_c, 0, 81, 108
2, 111797, Note_on_c, 0, 82, 0
2, 112015, Note_on_c, 0, 89, 110
2, 112015, Note_on_c, 0, 62, 102
2, 112016, Note_on_c, 0, 77, 107
2, 112025, Note_on_c, 0, 60, 96
2, 112029, Note_on_c, 0, 59, 102
2, 112043, Note_on_c, 0, 57, 96
2, 112048, Note_on_c, 0, 53, 79
2, 112054, Note_on_c, 0, 55, 89
2, 112062, Note_on_c, 0, 48, 78
2, 112065, Note_on_c, 0, 52, 74
2, 112076, Note_on_c, 0, 45, 80
2, 112081, Note_on_c, 0, 47, 81
2, 112083, Note_on_c, 0, 43, 80
2, 112130, Note_on_c, 0, 86, 111
2, 112131, Note_on_c, 0, 74, 107
2, 112197, Note_on_c, 0, 55, 0
2, 112198, Note_on_c, 0, 52, 0
2, 112199, Note_on_c, 0, 77, 0
2, 112200, Note_on_c, 0, 81, 0
2, 112200, Note_on_c, 0, 45, 0
2, 112200, Note_on_c, 0, 48, 0
2, 112200, Note_on_c, 0, 47, 0
2, 112200, Note_on_c, 0, 57, 0
2, 112200, Note_on_c, 0, 59, 0
2, 112200, Note_on_c, 0, 43, 0
2, 112200, Control_c, 0, 64, 0
2, 112200, Note_on_c, 0, 62, 0
2, 112201, Note_on_c, 0, 60, 0
2, 112201, Note_on_c, 0, 53, 0
2, 112201, Note_on_c, 0, 93, 0
2, 112202, Note_on_c, 0, 89, 0
2, 112204, Note_on_c, 0, 74, 0
2, 112206, Note_on_c, 0, 86, 0
2, 112212, Note_on_c, 0, 94, 0
2, 112271, Note_on_c, 0, 77, 111
2, 112272, Note_on_c, 0, 89, 113
2, 112272, Note_on_c, 0, 85, 101
2, 112273, Note_on_c, 0, 39, 101
2, 112276, Note_on_c, 0, 27, 95
2, 112304, Control_c, 0, 64, 127
2, 112667, Note_on_c, 0, 91, 111
2, 112668, Note_on_c, 0, 67, 102
2, 112669, Note_on_c, 0, 86, 104
2, 112669, Note_on_c, 0, 79, 106
2, 112669, Note_on_c, 0, 62, 94
2, 112670, Note_on_c, 0, 82, 102
2, 112674, Note_on_c, 0, 58, 101
2, 112674, Note_on_c, 0, 55, 95
2, 113026, Note_on_c, 0, 55, 0
2, 113026, Note_on_c, 0, 58, 0
2, 113026, Note_on_c, 0, 67, 0
2, 113031, Note_on_c, 0, 58, 105
2, 113031, Note_on_c, 0, 67, 97
2, 113033, Note_on_c, 0, 55, 97
2, 113034, Note_on_c, 0, 65, 105
2, 113280, Note_on_c, 0, 27, 0
2, 113280, Note_on_c, 0, 39, 0
2, 113288, Note_on_c, 0, 39, 87
2, 113290, Note_on_c, 0, 27, 80
2, 113548, Note_on_c, 0, 51, 86
2, 113738, Control_c, 0, 64, 0
2, 113761, Note_on_c, 0, 51, 0
2, 113762, Note_on_c, 0, 62, 0
2, 113762, Note_on_c, 0, 39, 0
2, 113763, Note_on_c, 0, 79, 0
2, 113764, Note_on_c, 0, 91, 0
2, 113765, Note_on_c, 0, 85, 0
2, 113766, Note_on_c, 0, 82, 0
2, 113767, Note_on_c, 0, 86, 0
2, 113786, Note_on_c, 0, 27, 0
2, 113786, Note_on_c, 0, 55, 0
2, 113786, Note_on_c, 0, 77, 0
2, 113794, Note_on_c, 0, 58, 0
2, 113794, Note_on_c, 0, 67, 0
2, 113798, Note_on_c, 0, 41, 103
2, 113799, Note_on_c, 0, 29, 100
2, 113800, Note_on_c, 0, 67, 99
2, 113802, Note_on_c, 0, 65, 0
2, 113802, Note_on_c, 0, 89, 0
2, 113802, Note_on_c, 0, 58, 106
2, 113804, Note_on_c, 0, 60, 95
2, 113879, Control_c, 0, 64, 127
2, 114186, Note_on_c, 0, 58, 0
2, 114190, Note_on_c, 0, 58, 91
2, 114319, Note_on_c, 0, 96, 108
2, 114320, Note_on_c, 0, 84, 109
2, 114493, Note_on_c, 0, 53, 88
2, 114577, Note_on_c, 0, 60, 0
2, 114582, Note_on_c, 0, 94, 107
2, 114582, Note_on_c, 0, 60, 105
2, 114582, Note_on_c, 0, 82, 101
2, 114586, Note_on_c, 0, 57, 106
2, 114830, Note_on_c, 0, 93, 110
2, 114833, Note_on_c, 0, 81, 107
2, 115082, Note_on_c, 0, 77, 105
2, 115082, Note_on_c, 0, 89, 108
2, 115084, Note_on_c, 0, 41, 0
2, 115084, Note_on_c, 0, 53, 0
2, 115088, Note_on_c, 0, 41, 104
2, 115089, Note_on_c, 0, 53, 101
2, 115203, Note_on_c, 0, 86, 109
2, 115203, Note_on_c, 0, 74, 105
2, 115261, Note_on_c, 0, 67, 0
2, 115261, Note_on_c, 0, 96, 0
2, 115263, Note_on_c, 0, 93, 0
2, 115263, Note_on_c, 0, 60, 0
2, 115264, Note_on_c, 0, 57, 0
2, 115264, Note_on_c, 0, 77, 0
2, 115265, Note_on_c, 0, 84, 0
2, 115265, Note_on_c, 0, 89, 0
2, 115265, Note_on_c, 0, 81, 0
2, 115266, Note_on_c, 0, 41, 0
2, 115266, Note_on_c, 0, 53, 0
2, 115267, Note_on_c, 0, 82, 0
2, 115268, Control_c, 0, 64, 0
2, 115269, Note_on_c, 0, 29, 0
2, 115269, Note_on_c, 0, 94, 0
2, 115272, Note_on_c, 0, 86, 0
2, 115274, Note_on_c, 0, 74, 0
2, 115276, Note_on_c, 0, 58, 0
2, 115341, Note_on_c, 0, 43, 110
2, 115342, Note_on_c, 0, 89, 112
2, 115342, Note_on_c, 0, 31, 105
2, 115343, Note_on_c, 0, 77, 107
2, 115514, Control_c, 0, 64, 127
2, 115633, Note_on_c, 0, 55, 78
2, 115725, Note_on_c, 0, 62, 99
2, 115727, Note_on_c, 0, 91, 112
2, 115731, Note_on_c, 0, 58, 106
2, 115733, Note_on_c, 0, 79, 109
2, 115733, Note_on_c, 0, 82, 102
2, 115733, Note_on_c, 0, 86, 103
2, 115983, Note_on_c, 0, 55, 0
2, 115993, Note_on_c, 0, 55, 86
2, 116098, Note_on_c, 0, 58, 0
2, 116098, Note_on_c, 0, 62, 0
2, 116102, Note_on_c, 0, 65, 107
2, 116103, Note_on_c, 0, 62, 103
2, 116104, Note_on_c, 0, 58, 102
2, 116367, Note_on_c, 0, 43, 0
2, 116375, Note_on_c, 0, 43, 99
2, 116628, Note_on_c, 0, 55, 0
2, 116628, Note_on_c, 0, 86, 0
2, 116633, Note_on_c, 0, 55, 91
2, 116633, Note_on_c, 0, 86, 105
2, 116634, Note_on_c, 0, 98, 109
2, 116904, Note_on_c, 0, 89, 0
2, 116911, Note_on_c, 0, 84, 110
2, 116912, Note_on_c, 0, 58, 0
2, 116912, Note_on_c, 0, 96, 110
2, 116916, Note_on_c, 0, 89, 101
2, 116918, Note_on_c, 0, 67, 104
2, 116919, Note_on_c, 0, 58, 106
2, 116919, Note_on_c, 0, 94, 101
2, 116923, Note_on_c, 0, 60, 102
2, 117296, Note_on_c, 0, 58, 0
2, 117301, Note_on_c, 0, 58, 101
2, 117649, Note_on_c, 0, 29, 102
2, 117649, Note_on_c, 0, 41, 104
2, 117911, Note_on_c, 0, 77, 0
2, 117911, Note_on_c, 0, 89, 0
2, 117919, Note_on_c, 0, 89, 106
2, 117919, Note_on_c, 0, 77, 100
2, 118172, Note_on_c, 0, 86, 0
2, 118177, Note_on_c, 0, 86, 104
2, 118181, Note_on_c, 0, 74, 103
2, 118389, Note_on_c, 0, 98, 0
2, 118390, Note_on_c, 0, 62, 0
2, 118390, Note_on_c, 0, 79, 0
2, 118390, Note_on_c, 0, 94, 0
2, 118390, Note_on_c, 0, 96, 0
2, 118390, Note_on_c, 0, 91, 0
2, 118390, Note_on_c, 0, 65, 0
2, 118390, Note_on_c, 0, 86, 0
2, 118391, Note_on_c, 0, 84, 0
2, 118391, Note_on_c, 0, 77, 0
2, 118391, Note_on_c, 0, 60, 0
2, 118391, Note_on_c, 0, 55, 0
2, 118391, Note_on_c, 0, 74, 0
2, 118391, Note_on_c, 0, 58, 0
2, 118391, Note_on_c, 0, 82, 0
2, 118391, Note_on_c, 0, 89, 0
2, 118391, Note_on_c, 0, 41, 0
2, 118392, Note_on_c, 0, 67, 0
2, 118393, Note_on_c, 0, 43, 0
2, 118400, Control_c, 0, 64, 0
2, 118402, Note_on_c, 0, 29, 0
2, 118402, Note_on_c, 0, 31, 0
2, 118439, Note_on_c, 0, 51, 100
2, 118444, Note_on_c, 0, 39, 97
2, 118444, Note_on_c, 0, 46, 98
2, 118447, Note_on_c, 0, 84, 106
2, 118450, Note_on_c, 0, 79, 94
2, 118452, Note_on_c, 0, 72, 108
2, 118454, Note_on_c, 0, 75, 98
2, 118502, Control_c, 0, 64, 127
2, 118702, Note_on_c, 0, 72, 0
2, 118702, Note_on_c, 0, 75, 0
2, 118702, Note_on_c, 0, 79, 0
2, 118702, Note_on_c, 0, 84, 0
2, 118711, Note_on_c, 0, 75, 85
2, 118712, Note_on_c, 0, 84, 93
2, 118712, Note_on_c, 0, 79, 67
2, 118713, Note_on_c, 0, 72, 86
2, 118813, Note_on_c, 0, 60, 100
2, 118818, Note_on_c, 0, 58, 96
2, 118821, Note_on_c, 0, 48, 81
2, 118829, Note_on_c, 0, 55, 83
2, 118839, Note_on_c, 0, 82, 84
2, 118840, Note_on_c, 0, 79, 0
2, 118845, Note_on_c, 0, 79, 65
2, 118852, Note_on_c, 0, 70, 48
2, 118863, Note_on_c, 0, 70, 0
2, 118970, Note_on_c, 0, 72, 0
2, 118970, Note_on_c, 0, 84, 0
2, 118978, Note_on_c, 0, 75, 0
2, 118979, Note_on_c, 0, 84, 101
2, 118981, Note_on_c, 0, 72, 88
2, 118987, Note_on_c, 0, 75, 81
2, 119078, Note_on_c, 0, 51, 0
2, 119078, Note_on_c, 0, 79, 0
2, 119078, Note_on_c, 0, 82, 0
2, 119085, Note_on_c, 0, 51, 88
2, 119085, Note_on_c, 0, 82, 93
2, 119088, Note_on_c, 0, 79, 70
2, 119208, Note_on_c, 0, 58, 0
2, 119208, Note_on_c, 0, 60, 0
2, 119213, Note_on_c, 0, 58, 99
2, 119213, Note_on_c, 0, 65, 105
2, 119216, Note_on_c, 0, 72, 0
2, 119216, Note_on_c, 0, 75, 0
2, 119216, Note_on_c, 0, 79, 0
2, 119216, Note_on_c, 0, 84, 0
2, 119218, Note_on_c, 0, 60, 99
2, 119221, Note_on_c, 0, 79, 89
2, 119224, Note_on_c, 0, 46, 0
2, 119224, Note_on_c, 0, 48, 0
2, 119227, Note_on_c, 0, 75, 104
2, 119227, Note_on_c, 0, 84, 106
2, 119227, Note_on_c, 0, 72, 105
2, 119228, Note_on_c, 0, 46, 86
2, 119235, Note_on_c, 0, 48, 84
2, 119496, Note_on_c, 0, 86, 110
2, 119499, Note_on_c, 0, 74, 102
2, 119731, Note_on_c, 0, 51, 0
2, 119740, Note_on_c, 0, 51, 90
2, 119976, Note_on_c, 0, 65, 0
2, 119977, Note_on_c, 0, 46, 0
2, 119977, Note_on_c, 0, 75, 0
2, 119977, Note_on_c, 0, 84, 0
2, 119977, Note_on_c, 0, 39, 0
2, 119978, Note_on_c, 0, 51, 0
2, 119978, Note_on_c, 0, 72, 0
2, 119978, Note_on_c, 0, 58, 0
2, 119978, Note_on_c, 0, 79, 0
2, 119978, Note_on_c, 0, 82, 0
2, 119979, Note_on_c, 0, 74, 0
2, 119979, Note_on_c, 0, 86, 0
2, 119979, Note_on_c, 0, 60, 0
2, 119979, Note_on_c, 0, 55, 0
2, 119980, Control_c, 0, 64, 0
2, 119992, Note_on_c, 0, 48, 0
2, 120001, Note_on_c, 0, 48, 101
2, 120001, Note_on_c, 0, 53, 103
2, 120002, Note_on_c, 0, 41, 103
2, 120010, Note_on_c, 0, 84, 103
2, 120011, Note_on_c, 0, 77, 92
2, 120012, Note_on_c, 0, 72, 103
2, 120076, Control_c, 0, 64, 127
2, 120261, Note_on_c, 0, 72, 0
2, 120261, Note_on_c, 0, 84, 0
2, 120265, Note_on_c, 0, 84, 102
2, 120266, Note_on_c, 0, 72, 97
2, 120381, Note_on_c, 0, 82, 97
2, 120381, Note_on_c, 0, 60, 96
2, 120394, Note_on_c, 0, 57, 100
2, 120506, Note_on_c, 0, 72, 0
2, 120506, Note_on_c, 0, 77, 0
2, 120506, Note_on_c, 0, 84, 0
2, 120511, Note_on_c, 0, 84, 105
2, 120511, Note_on_c, 0, 77, 96
2, 120512, Note_on_c, 0, 72, 99
2, 120622, Note_on_c, 0, 82, 0
2, 120631, Note_on_c, 0, 82, 101
2, 120720, Control_c, 0, 64, 0
2, 120722, Note_on_c, 0, 77, 0
2, 120722, Note_on_c, 0, 41, 0
2, 120723, Note_on_c, 0, 48, 0
2, 120723, Note_on_c, 0, 53, 0
2, 120724, Note_on_c, 0, 82, 0
2, 120737, Note_on_c, 0, 60, 0
2, 120744, Note_on_c, 0, 57, 0
2, 120752, Note_on_c, 0, 72, 0
2, 120752, Note_on_c, 0, 84, 0
2, 120753, Note_on_c, 0, 54, 107
2, 120756, Note_on_c, 0, 42, 104
2, 120757, Note_on_c, 0, 78, 107
2, 120757, Note_on_c, 0, 84, 109
2, 120759, Note_on_c, 0, 72, 103
2, 120761, Note_on_c, 0, 50, 94
2, 120814, Control_c, 0, 64, 127
2, 121022, Note_on_c, 0, 62, 104
2, 121023, Note_on_c, 0, 86, 111
2, 121024, Note_on_c, 0, 74, 108
2, 121270, Note_on_c, 0, 65, 103
2, 121270, Note_on_c, 0, 89, 112
2, 121272, Note_on_c, 0, 77, 106
2, 121487, Control_c, 0, 64, 0
2, 121489, Note_on_c, 0, 42, 0
2, 121490, Note_on_c, 0, 50, 0
2, 121490, Note_on_c, 0, 78, 0
2, 121491, Note_on_c, 0, 74, 0
2, 121491, Note_on_c, 0, 86, 0
2, 121491, Note_on_c, 0, 89, 0
2, 121492, Note_on_c, 0, 62, 0
2, 121492, Note_on_c, 0, 77, 0
2, 121492, Note_on_c, 0, 84, 0
2, 121493, Note_on_c, 0, 54, 0
2, 121493, Note_on_c, 0, 65, 0
2, 121497, Note_on_c, 0, 72, 0
2, 121525, Note_on_c, 0, 79, 108
2, 121525, Note_on_c, 0, 91, 113
2, 121529, Note_on_c, 0, 82, 108
2, 121530, Note_on_c, 0, 43, 106
2, 121530, Note_on_c, 0, 31, 96
2, 121530, Note_on_c, 0, 86, 100
2, 121651, Control_c, 0, 64, 127
2, 121916, Note_on_c, 0, 58, 107
2, 121916, Note_on_c, 0, 62, 101
2, 121918, Note_on_c, 0, 67, 103
2, 122065, Note_on_c, 0, 79, 0
2, 122088, Note_on_c, 0, 43, 0
2, 122093, Note_on_c, 0, 43, 71
2, 122158, Note_on_c, 0, 31, 0
2, 122169, Note_on_c, 0, 31, 92
2, 122237, Note_on_c, 0, 31, 0
2, 122238, Note_on_c, 0, 43, 0
2, 122238, Control_c, 0, 64, 0
2, 122238, Note_on_c, 0, 86, 0
2, 122239, Note_on_c, 0, 67, 0
2, 122239, Note_on_c, 0, 62, 0
2, 122239, Note_on_c, 0, 58, 0
2, 122239, Note_on_c, 0, 82, 0
2, 122240, Note_on_c, 0, 91, 0
2, 122293, Note_on_c, 0, 93, 113
2, 122298, Note_on_c, 0, 81, 109
2, 122300, Note_on_c, 0, 84, 106
2, 122302, Note_on_c, 0, 89, 101
2, 122304, Note_on_c, 0, 45, 104
2, 122306, Note_on_c, 0, 33, 98
2, 122327, Control_c, 0, 64, 127
2, 122678, Note_on_c, 0, 69, 106
2, 122680, Note_on_c, 0, 60, 103
2, 122682, Note_on_c, 0, 65, 100
2, 123046, Control_c, 0, 64, 0
2, 123052, Note_on_c, 0, 69, 0
2, 123053, Note_on_c, 0, 60, 0
2, 123053, Note_on_c, 0, 81, 0
2, 123053, Note_on_c, 0, 93, 0
2, 123053, Note_on_c, 0, 33, 0
2, 123053, Note_on_c, 0, 84, 0
2, 123054, Note_on_c, 0, 45, 0
2, 123054, Note_on_c, 0, 65, 0
2, 123058, Note_on_c, 0, 89, 0
2, 123073, Note_on_c, 0, 94, 111
2, 123076, Note_on_c, 0, 82, 107
2, 123076, Note_on_c, 0, 86, 103
2, 123077, Note_on_c, 0, 91, 96
2, 123082, Note_on_c, 0, 46, 108
2, 123083, Note_on_c, 0, 34, 100
2, 123194, Control_c, 0, 64, 127
2, 123345, Note_on_c, 0, 89, 103
2, 123346, Note_on_c, 0, 77, 98
2, 123584, Note_on_c, 0, 72, 110
2, 123586, Note_on_c, 0, 89, 0
2, 123589, Note_on_c, 0, 60, 108
2, 123596, Note_on_c, 0, 89, 104
2, 123602, Note_on_c, 0, 101, 103
2, 123609, Note_on_c, 0, 101, 0
2, 123841, Note_on_c, 0, 70, 110
2, 123848, Note_on_c, 0, 58, 106
2, 123851, Note_on_c, 0, 62, 97
2, 123852, Note_on_c, 0, 65, 101
2, 123854, Note_on_c, 0, 96, 102
2, 123855, Note_on_c, 0, 89, 0
2, 123855, Note_on_c, 0, 94, 0
2, 123858, Note_on_c, 0, 84, 105
2, 123859, Note_on_c, 0, 89, 89
2, 123861, Note_on_c, 0, 94, 94
2, 124093, Note_on_c, 0, 86, 0
2, 124099, Note_on_c, 0, 69, 105
2, 124102, Note_on_c, 0, 86, 103
2, 124104, Note_on_c, 0, 98, 105
2, 124104, Note_on_c, 0, 57, 109
2, 124108, Note_on_c, 0, 98, 0
2, 124339, Note_on_c, 0, 65, 0
2, 124339, Note_on_c, 0, 82, 0
2, 124339, Note_on_c, 0, 94, 0
2, 124343, Note_on_c, 0, 94, 103
2, 124343, Note_on_c, 0, 89, 0
2, 124347, Note_on_c, 0, 82, 104
2, 124347, Note_on_c, 0, 53, 102
2, 124349, Note_on_c, 0, 65, 104
2, 124469, Note_on_c, 0, 62, 0
2, 124481, Note_on_c, 0, 50, 99
2, 124481, Note_on_c, 0, 62, 106
2, 124500, Note_on_c, 0, 53, 0
2, 124510, Note_on_c, 0, 53, 75
2, 124529, Note_on_c, 0, 77, 0
2, 124532, Note_on_c, 0, 86, 0
2, 124532, Note_on_c, 0, 82, 0
2, 124532, Note_on_c, 0, 34, 0
2, 124533, Note_on_c, 0, 60, 0
2, 124534, Note_on_c, 0, 69, 0
2, 124534, Note_on_c, 0, 94, 0
2, 124534, Note_on_c, 0, 72, 0
2, 124534, Note_on_c, 0, 84, 0
2, 124534, Note_on_c, 0, 70, 0
2, 124534, Note_on_c, 0, 57, 0
2, 124534, Note_on_c, 0, 58, 0
2, 124534, Note_on_c, 0, 46, 0
2, 124534, Note_on_c, 0, 96, 0
2, 124535, Note_on_c, 0, 62, 0
2, 124535, Note_on_c, 0, 65, 0
2, 124535, Note_on_c, 0, 53, 0
2, 124538, Note_on_c, 0, 91, 0
2, 124541, Control_c, 0, 64, 0
2, 124617, Note_on_c, 0, 53, 107
2, 124618, Note_on_c, 0, 65, 108
2, 124700, Control_c, 0, 64, 127
2, 124843, Control_c, 0, 64, 0
2, 124861, Note_on_c, 0, 50, 0
2, 124872, Note_on_c, 0, 65, 0
2, 124873, Note_on_c, 0, 53, 0
2, 124988, Note_on_c, 0, 67, 103
2, 124989, Note_on_c, 0, 58, 109
2, 124992, Note_on_c, 0, 55, 107
2, 124993, Note_on_c, 0, 62, 102
2, 125030, Control_c, 0, 64, 127
2, 125241, Note_on_c, 0, 39, 91
2, 125383, Note_on_c, 0, 39, 0
2, 125387, Note_on_c, 0, 27, 102
2, 125387, Note_on_c, 0, 39, 93
2, 125478, Note_on_c, 0, 53, 76
2, 125514, Note_on_c, 0, 58, 0
2, 125525, Note_on_c, 0, 58, 90
2, 125568, Note_on_c, 0, 62, 0
2, 125574, Note_on_c, 0, 62, 95
2, 125612, Note_on_c, 0, 63, 70
2, 125672, Note_on_c, 0, 65, 93
2, 125728, Note_on_c, 0, 70, 93
2, 125776, Note_on_c, 0, 74, 71
2, 125837, Note_on_c, 0, 75, 93
2, 125893, Note_on_c, 0, 77, 97
2, 125966, Note_on_c, 0, 82, 98
2, 126063, Note_on_c, 0, 87, 102
2, 126121, Control_c, 0, 64, 0
2, 126148, Note_on_c, 0, 55, 0
2, 126148, Note_on_c, 0, 39, 0
2, 126148, Note_on_c, 0, 77, 0
2, 126149, Note_on_c, 0, 62, 0
2, 126149, Note_on_c, 0, 27, 0
2, 126149, Note_on_c, 0, 67, 0
2, 126151, Note_on_c, 0, 65, 0
2, 126154, Note_on_c, 0, 75, 0
2, 126154, Note_on_c, 0, 70, 0
2, 126154, Note_on_c, 0, 53, 0
2, 126154, Note_on_c, 0, 63, 0
2, 126155, Note_on_c, 0, 74, 0
2, 126167, Note_on_c, 0, 89, 107
2, 126167, Note_on_c, 0, 58, 0
2, 126170, Note_on_c, 0, 41, 108
2, 126170, Note_on_c, 0, 29, 100
2, 126190, Note_on_c, 0, 87, 0
2, 126236, Control_c, 0, 64, 127
2, 126289, Note_on_c, 0, 82, 0
2, 126300, Note_on_c, 0, 82, 102
2, 126430, Note_on_c, 0, 81, 96
2, 126558, Note_on_c, 0, 82, 0
2, 126565, Note_on_c, 0, 82, 99
2, 126675, Note_on_c, 0, 72, 109
2, 126682, Note_on_c, 0, 77, 93
2, 126804, Note_on_c, 0, 82, 0
2, 126815, Note_on_c, 0, 82, 92
2, 126935, Note_on_c, 0, 89, 0
2, 126938, Note_on_c, 0, 70, 108
2, 126944, Note_on_c, 0, 89, 102
2, 126947, Note_on_c, 0, 65, 99
2, 126948, Note_on_c, 0, 60, 90
2, 127065, Note_on_c, 0, 82, 0
2, 127074, Note_on_c, 0, 82, 99
2, 127188, Note_on_c, 0, 81, 0
2, 127193, Note_on_c, 0, 69, 105
2, 127196, Note_on_c, 0, 81, 95
2, 127303, Note_on_c, 0, 82, 0
2, 127311, Note_on_c, 0, 82, 98
2, 127426, Note_on_c, 0, 77, 0
2, 127430, Note_on_c, 0, 77, 99
2, 127434, Note_on_c, 0, 65, 0
2, 127442, Note_on_c, 0, 65, 106
2, 127537, Note_on_c, 0, 62, 104
2, 127655, Control_c, 0, 64, 0
2, 127661, Note_on_c, 0, 70, 0
2, 127661, Note_on_c, 0, 82, 0
2, 127661, Note_on_c, 0, 41, 0
2, 127661, Note_on_c, 0, 77, 0
2, 127661, Note_on_c, 0, 60, 0
2, 127661, Note_on_c, 0, 69, 0
2, 127662, Note_on_c, 0, 89, 0
2, 127662, Note_on_c, 0, 65, 0
2, 127662, Note_on_c, 0, 29, 0
2, 127663, Note_on_c, 0, 81, 0
2, 127665, Note_on_c, 0, 62, 0
2, 127687, Note_on_c, 0, 72, 0
2, 127692, Note_on_c, 0, 72, 106
2, 127696, Note_on_c, 0, 42, 108
2, 127698, Note_on_c, 0, 30, 106
2, 127772, Control_c, 0, 64, 127
2, 127946, Note_on_c, 0, 74, 105
2, 128074, Note_on_c, 0, 81, 92
2, 128206, Note_on_c, 0, 54, 96
2, 128209, Note_on_c, 0, 79, 84
2, 128317, Note_on_c, 0, 81, 0
2, 128324, Note_on_c, 0, 81, 94
2, 128444, Control_c, 0, 64, 0
2, 128451, Note_on_c, 0, 69, 108
2, 128451, Note_on_c, 0, 66, 108
2, 128451, Note_on_c, 0, 62, 102
2, 128453, Note_on_c, 0, 90, 104
2, 128463, Note_on_c, 0, 90, 0
2, 128486, Control_c, 0, 64, 127
2, 128601, Note_on_c, 0, 81, 0
2, 128612, Note_on_c, 0, 81, 96
2, 128724, Note_on_c, 0, 79, 0
2, 128731, Note_on_c, 0, 79, 77
2, 128839, Note_on_c, 0, 81, 0
2, 128850, Note_on_c, 0, 81, 93
2, 128954, Note_on_c, 0, 72, 0
2, 128962, Note_on_c, 0, 72, 110
2, 128967, Note_on_c, 0, 78, 95
2, 129093, Note_on_c, 0, 81, 0
2, 129099, Note_on_c, 0, 81, 95
2, 129196, Control_c, 0, 64, 0
2, 129203, Note_on_c, 0, 79, 0
2, 129204, Note_on_c, 0, 42, 0
2, 129204, Note_on_c, 0, 66, 0
2, 129204, Note_on_c, 0, 74, 0
2, 129204, Note_on_c, 0, 54, 0
2, 129205, Note_on_c, 0, 78, 0
2, 129205, Note_on_c, 0, 72, 0
2, 129206, Note_on_c, 0, 81, 0
2, 129206, Note_on_c, 0, 62, 0
2, 129207, Note_on_c, 0, 69, 0
2, 129216, Note_on_c, 0, 30, 0
2, 129236, Note_on_c, 0, 70, 102
2, 129238, Note_on_c, 0, 43, 107
2, 129241, Note_on_c, 0, 31, 100
2, 129507, Control_c, 0, 64, 127
2, 129511, Note_on_c, 0, 77, 89
2, 129641, Note_on_c, 0, 82, 100
2, 129764, Note_on_c, 0, 81, 98
2, 129899, Note_on_c, 0, 82, 0
2, 129905, Note_on_c, 0, 82, 95
2, 129975, Control_c, 0, 64, 0
2, 129977, Note_on_c, 0, 77, 0
2, 129977, Note_on_c, 0, 31, 0
2, 129978, Note_on_c, 0, 43, 0
2, 129979, Note_on_c, 0, 81, 0
2, 129979, Note_on_c, 0, 82, 0
2, 129980, Note_on_c, 0, 70, 0
2, 130017, Note_on_c, 0, 41, 106
2, 130018, Note_on_c, 0, 29, 100
2, 130027, Note_on_c, 0, 91, 98
2, 130037, Note_on_c, 0, 91, 0
2, 130060, Control_c, 0, 64, 127
2, 130171, Note_on_c, 0, 82, 104
2, 130288, Note_on_c, 0, 65, 104
2, 130294, Note_on_c, 0, 81, 97
2, 130414, Note_on_c, 0, 82, 0
2, 130422, Note_on_c, 0, 82, 102
2, 130537, Note_on_c, 0, 62, 105
2, 130540, Note_on_c, 0, 77, 87
2, 130652, Note_on_c, 0, 82, 0
2, 130663, Note_on_c, 0, 82, 103
2, 130759, Note_on_c, 0, 41, 0
2, 130766, Note_on_c, 0, 77, 0
2, 130767, Note_on_c, 0, 29, 0
2, 130769, Note_on_c, 0, 81, 0
2, 130771, Control_c, 0, 64, 0
2, 130771, Note_on_c, 0, 65, 0
2, 130771, Note_on_c, 0, 62, 0
2, 130790, Note_on_c, 0, 82, 0
2, 130794, Note_on_c, 0, 51, 100
2, 130794, Note_on_c, 0, 43, 102
2, 130798, Note_on_c, 0, 60, 103
2, 130799, Note_on_c, 0, 36, 101
2, 130867, Control_c, 0, 64, 127
2, 131083, Note_on_c, 0, 77, 87
2, 131207, Note_on_c, 0, 82, 96
2, 131226, Note_on_c, 0, 48, 95
2, 131340, Note_on_c, 0, 81, 94
2, 131458, Note_on_c, 0, 82, 0
2, 131469, Note_on_c, 0, 82, 97
2, 131585, Note_on_c, 0, 58, 107
2, 131588, Note_on_c, 0, 55, 103
2, 131592, Note_on_c, 0, 89, 102
2, 131727, Note_on_c, 0, 82, 0
2, 131738, Note_on_c, 0, 82, 96
2, 131850, Note_on_c, 0, 58, 0
2, 131850, Note_on_c, 0, 81, 0
2, 131854, Note_on_c, 0, 58, 96
2, 131855, Note_on_c, 0, 81, 92
2, 131973, Note_on_c, 0, 82, 0
2, 131984, Note_on_c, 0, 82, 95
2, 132088, Note_on_c, 0, 60, 0
2, 132088, Note_on_c, 0, 77, 0
2, 132099, Note_on_c, 0, 60, 107
2, 132099, Note_on_c, 0, 77, 89
2, 132218, Note_on_c, 0, 82, 0
2, 132224, Note_on_c, 0, 82, 94
2, 132321, Control_c, 0, 64, 0
2, 132322, Note_on_c, 0, 89, 0
2, 132322, Note_on_c, 0, 51, 0
2, 132322, Note_on_c, 0, 81, 0
2, 132322, Note_on_c, 0, 43, 0
2, 132322, Note_on_c, 0, 77, 0
2, 132322, Note_on_c, 0, 48, 0
2, 132322, Note_on_c, 0, 58, 0
2, 132322, Note_on_c, 0, 82, 0
2, 132322, Note_on_c, 0, 55, 0
2, 132322, Note_on_c, 0, 60, 0
2, 132341, Note_on_c, 0, 36, 0
2, 132368, Note_on_c, 0, 38, 99
2, 132368, Note_on_c, 0, 53, 99
2, 132369, Note_on_c, 0, 45, 101
2, 132369, Note_on_c, 0, 50, 96
2, 132376, Note_on_c, 0, 62, 102
2, 132449, Control_c, 0, 64, 127
2, 132633, Note_on_c, 0, 77, 89
2, 132773, Note_on_c, 0, 82, 95
2, 132787, Note_on_c, 0, 50, 0
2, 132792, Note_on_c, 0, 50, 95
2, 132903, Note_on_c, 0, 81, 94
2, 133009, Note_on_c, 0, 82, 0
2, 133018, Note_on_c, 0, 82, 96
2, 133137, Note_on_c, 0, 89, 102
2, 133140, Note_on_c, 0, 53, 0
2, 133143, Note_on_c, 0, 60, 98
2, 133144, Note_on_c, 0, 57, 102
2, 133146, Note_on_c, 0, 53, 92
2, 133263, Note_on_c, 0, 82, 0
2, 133273, Note_on_c, 0, 82, 95
2, 133386, Note_on_c, 0, 62, 0
2, 133386, Note_on_c, 0, 81, 0
2, 133392, Note_on_c, 0, 62, 101
2, 133396, Note_on_c, 0, 81, 98
2, 133516, Note_on_c, 0, 82, 0
2, 133523, Note_on_c, 0, 82, 100
2, 133632, Note_on_c, 0, 77, 0
2, 133636, Note_on_c, 0, 65, 104
2, 133637, Note_on_c, 0, 77, 97
2, 133739, Note_on_c, 0, 82, 0
2, 133750, Note_on_c, 0, 82, 96
2, 133836, Note_on_c, 0, 45, 0
2, 133839, Note_on_c, 0, 38, 0
2, 133840, Note_on_c, 0, 77, 0
2, 133840, Note_on_c, 0, 82, 0
2, 133840, Note_on_c, 0, 50, 0
2, 133841, Note_on_c, 0, 81, 0
2, 133841, Note_on_c, 0, 89, 0
2, 133842, Note_on_c, 0, 53, 0
2, 133842, Note_on_c, 0, 62, 0
2, 133842, Note_on_c, 0, 57, 0
2, 133842, Note_on_c, 0, 65, 0
2, 133843, Note_on_c, 0, 60, 0
2, 133851, Control_c, 0, 64, 0
2, 133896, Note_on_c, 0, 46, 102
2, 133896, Note_on_c, 0, 69, 109
2, 133898, Note_on_c, 0, 39, 97
2, 133900, Note_on_c, 0, 65, 97
2, 133931, Control_c, 0, 64, 127
2, 134181, Note_on_c, 0, 57, 92
2, 134303, Note_on_c, 0, 82, 86
2, 134426, Note_on_c, 0, 58, 98
2, 134451, Note_on_c, 0, 81, 84
2, 134553, Note_on_c, 0, 82, 0
2, 134563, Note_on_c, 0, 82, 84
2, 134689, Note_on_c, 0, 60, 103
2, 134691, Note_on_c, 0, 57, 0
2, 134695, Note_on_c, 0, 57, 86
2, 134697, Note_on_c, 0, 51, 89
2, 134699, Note_on_c, 0, 81, 0
2, 134703, Note_on_c, 0, 81, 89
2, 134814, Note_on_c, 0, 82, 0
2, 134820, Note_on_c, 0, 82, 86
2, 134937, Note_on_c, 0, 58, 0
2, 134945, Note_on_c, 0, 81, 0
2, 134948, Note_on_c, 0, 62, 101
2, 134948, Note_on_c, 0, 58, 95
2, 134951, Note_on_c, 0, 81, 100
2, 134956, Note_on_c, 0, 77, 94
2, 135068, Note_on_c, 0, 82, 0
2, 135079, Note_on_c, 0, 82, 100
2, 135183, Note_on_c, 0, 58, 0
2, 135187, Note_on_c, 0, 58, 98
2, 135191, Note_on_c, 0, 81, 0
2, 135193, Note_on_c, 0, 63, 103
2, 135196, Note_on_c, 0, 81, 106
2, 135198, Note_on_c, 0, 77, 0
2, 135205, Note_on_c, 0, 77, 95
2, 135321, Note_on_c, 0, 82, 0
2, 135326, Note_on_c, 0, 82, 101
2, 135441, Note_on_c, 0, 53, 108
2, 135444, Note_on_c, 0, 77, 0
2, 135444, Note_on_c, 0, 81, 0
2, 135445, Note_on_c, 0, 41, 105
2, 135448, Note_on_c, 0, 48, 105
2, 135448, Note_on_c, 0, 81, 105
2, 135451, Note_on_c, 0, 77, 101
2, 135559, Note_on_c, 0, 82, 0
2, 135565, Note_on_c, 0, 82, 105
2, 135690, Note_on_c, 0, 65, 0
2, 135690, Note_on_c, 0, 77, 0
2, 135690, Note_on_c, 0, 81, 0
2, 135693, Note_on_c, 0, 67, 107
2, 135694, Note_on_c, 0, 77, 101
2, 135695, Note_on_c, 0, 65, 99
2, 135696, Note_on_c, 0, 81, 104
2, 135813, Note_on_c, 0, 82, 0
2, 135819, Note_on_c, 0, 82, 106
2, 135951, Note_on_c, 0, 69, 0
2, 135955, Note_on_c, 0, 69, 107
2, 135955, Note_on_c, 0, 84, 115
2, 135957, Note_on_c, 0, 96, 112
2, 136197, Note_on_c, 0, 60, 0
2, 136197, Note_on_c, 0, 65, 0
2, 136197, Note_on_c, 0, 70, 113
2, 136203, Note_on_c, 0, 58, 0
2, 136204, Note_on_c, 0, 82, 0
2, 136205, Note_on_c, 0, 60, 105
2, 136206, Note_on_c, 0, 65, 105
2, 136208, Note_on_c, 0, 94, 115
2, 136212, Note_on_c, 0, 82, 111
2, 136378, Control_c, 0, 64, 0
2, 136378, Note_on_c, 0, 41, 0
2, 136378, Note_on_c, 0, 63, 0
2, 136378, Note_on_c, 0, 48, 0
2, 136379, Note_on_c, 0, 67, 0
2, 136379, Note_on_c, 0, 51, 0
2, 136379, Note_on_c, 0, 57, 0
2, 136380, Note_on_c, 0, 53, 0
2, 136380, Note_on_c, 0, 77, 0
2, 136380, Note_on_c, 0, 62, 0
2, 136380, Note_on_c, 0, 84, 0
2, 136380, Note_on_c, 0, 82, 0
2, 136381, Note_on_c, 0, 69, 0
2, 136381, Note_on_c, 0, 65, 0
2, 136381, Note_on_c, 0, 81, 0
2, 136382, Note_on_c, 0, 39, 0
2, 136382, Note_on_c, 0, 96, 0
2, 136383, Note_on_c, 0, 70, 0
2, 136396, Note_on_c, 0, 46, 0
2, 136396, Note_on_c, 0, 60, 0
2, 136470, Note_on_c, 0, 93, 114
2, 136471, Note_on_c, 0, 81, 110
2, 136512, Control_c, 0, 64, 127
2, 136704, Note_on_c, 0, 94, 0
2, 136712, Note_on_c, 0, 77, 108
2, 136713, Note_on_c, 0, 89, 113
2, 136838, Note_on_c, 0, 86, 109
2, 136838, Note_on_c, 0, 74, 109
2, 136954, Control_c, 0, 64, 0
2, 136957, Note_on_c, 0, 77, 0
2, 136957, Note_on_c, 0, 89, 0
2, 136957, Note_on_c, 0, 93, 0
2, 136962, Note_on_c, 0, 89, 112
2, 136963, Note_on_c, 0, 77, 108
2, 136965, Note_on_c, 0, 74, 0
2, 136967, Note_on_c, 0, 43, 108
2, 136968, Note_on_c, 0, 31, 108
2, 137026, Control_c, 0, 64, 127
2, 137072, Note_on_c, 0, 43, 0
2, 137082, Note_on_c, 0, 43, 92
2, 137329, Note_on_c, 0, 91, 111
2, 137333, Note_on_c, 0, 62, 95
2, 137333, Note_on_c, 0, 82, 107
2, 137337, Note_on_c, 0, 58, 104
2, 137342, Note_on_c, 0, 55, 92
2, 137424, Note_on_c, 0, 79, 93
2, 137487, Note_on_c, 0, 82, 0
2, 137497, Note_on_c, 0, 82, 96
2, 137564, Note_on_c, 0, 79, 0
2, 137572, Note_on_c, 0, 79, 89
2, 137610, Note_on_c, 0, 55, 0
2, 137621, Note_on_c, 0, 55, 99
2, 137633, Note_on_c, 0, 82, 0
2, 137642, Note_on_c, 0, 82, 90
2, 137694, Note_on_c, 0, 79, 0
2, 137701, Note_on_c, 0, 79, 97
2, 137725, Note_on_c, 0, 58, 0
2, 137725, Note_on_c, 0, 62, 0
2, 137733, Note_on_c, 0, 58, 107
2, 137735, Note_on_c, 0, 62, 101
2, 137738, Note_on_c, 0, 67, 101
2, 137825, Note_on_c, 0, 79, 0
2, 137836, Note_on_c, 0, 79, 85
2, 137948, Note_on_c, 0, 81, 0
2, 137956, Note_on_c, 0, 81, 101
2, 138017, Note_on_c, 0, 79, 0
2, 138022, Note_on_c, 0, 79, 99
2, 138078, Note_on_c, 0, 81, 0
2, 138083, Note_on_c, 0, 81, 99
2, 138132, Note_on_c, 0, 79, 0
2, 138142, Note_on_c, 0, 79, 80
2, 138201, Note_on_c, 0, 82, 0
2, 138212, Note_on_c, 0, 82, 105
2, 138270, Note_on_c, 0, 79, 0
2, 138275, Note_on_c, 0, 79, 98
2, 138332, Note_on_c, 0, 82, 0
2, 138342, Note_on_c, 0, 82, 102
2, 138393, Note_on_c, 0, 79, 0
2, 138401, Note_on_c, 0, 79, 82
2, 138457, Control_c, 0, 64, 0
2, 138458, Note_on_c, 0, 58, 0
2, 138458, Note_on_c, 0, 67, 0
2, 138458, Note_on_c, 0, 79, 0
2, 138458, Note_on_c, 0, 62, 0
2, 138459, Note_on_c, 0, 81, 0
2, 138459, Note_on_c, 0, 91, 0
2, 138459, Note_on_c, 0, 82, 0
2, 138459, Note_on_c, 0, 89, 0
2, 138459, Note_on_c, 0, 43, 0
2, 138462, Note_on_c, 0, 55, 0
2, 138465, Note_on_c, 0, 31, 0
2, 138465, Note_on_c, 0, 41, 108
2, 138465, Note_on_c, 0, 29, 103
2, 138467, Note_on_c, 0, 84, 103
2, 138470, Note_on_c, 0, 77, 0
2, 138470, Note_on_c, 0, 86, 0
2, 138524, Control_c, 0, 64, 127
2, 138544, Note_on_c, 0, 77, 83
2, 138562, Note_on_c, 0, 41, 0
2, 138569, Note_on_c, 0, 41, 80
2, 138585, Note_on_c, 0, 84, 0
2, 138595, Note_on_c, 0, 84, 93
2, 138654, Note_on_c, 0, 77, 0
2, 138664, Note_on_c, 0, 77, 95
2, 138723, Note_on_c, 0, 84, 0
2, 138734, Note_on_c, 0, 84, 92
2, 138800, Note_on_c, 0, 77, 0
2, 138805, Note_on_c, 0, 77, 75
2, 138846, Note_on_c, 0, 84, 0
2, 138849, Note_on_c, 0, 60, 103
2, 138852, Note_on_c, 0, 57, 107
2, 138853, Note_on_c, 0, 53, 77
2, 138857, Note_on_c, 0, 84, 104
2, 138923, Note_on_c, 0, 77, 0
2, 138933, Note_on_c, 0, 77, 82
2, 138961, Note_on_c, 0, 84, 0
2, 138973, Note_on_c, 0, 84, 90
2, 139046, Note_on_c, 0, 77, 0
2, 139050, Note_on_c, 0, 77, 68
2, 139092, Note_on_c, 0, 84, 0
2, 139097, Note_on_c, 0, 84, 98
2, 139107, Note_on_c, 0, 53, 0
2, 139114, Note_on_c, 0, 53, 93
2, 139161, Note_on_c, 0, 77, 0
2, 139166, Note_on_c, 0, 77, 96
2, 139200, Note_on_c, 0, 60, 0
2, 139207, Note_on_c, 0, 57, 0
2, 139210, Note_on_c, 0, 60, 102
2, 139211, Note_on_c, 0, 57, 105
2, 139215, Note_on_c, 0, 65, 106
2, 139219, Note_on_c, 0, 82, 99
2, 139284, Note_on_c, 0, 77, 0
2, 139295, Note_on_c, 0, 77, 96
2, 139338, Note_on_c, 0, 82, 0
2, 139346, Note_on_c, 0, 82, 80
2, 139399, Note_on_c, 0, 77, 0
2, 139409, Note_on_c, 0, 77, 85
2, 139461, Note_on_c, 0, 81, 101
2, 139514, Note_on_c, 0, 77, 0
2, 139524, Note_on_c, 0, 77, 86
2, 139560, Note_on_c, 0, 81, 0
2, 139568, Note_on_c, 0, 81, 89
2, 139630, Note_on_c, 0, 77, 0
2, 139635, Note_on_c, 0, 77, 93
2, 139706, Note_on_c, 0, 77, 0
2, 139717, Note_on_c, 0, 77, 104
2, 139779, Note_on_c, 0, 74, 101
2, 139822, Note_on_c, 0, 77, 0
2, 139830, Note_on_c, 0, 77, 64
2, 139883, Note_on_c, 0, 74, 0
2, 139894, Note_on_c, 0, 74, 94
2, 139905, Note_on_c, 0, 41, 0
2, 139907, Note_on_c, 0, 84, 0
2, 139908, Note_on_c, 0, 77, 0
2, 139910, Note_on_c, 0, 65, 0
2, 139913, Note_on_c, 0, 53, 0
2, 139923, Control_c, 0, 64, 0
2, 139937, Note_on_c, 0, 57, 0
2, 139937, Note_on_c, 0, 60, 0
2, 139944, Note_on_c, 0, 81, 0
2, 139948, Note_on_c, 0, 39, 100
2, 139949, Note_on_c, 0, 27, 98
2, 139950, Note_on_c, 0, 81, 108
2, 139952, Note_on_c, 0, 29, 0
2, 139983, Note_on_c, 0, 74, 0
2, 139998, Control_c, 0, 64, 127
2, 140023, Note_on_c, 0, 77, 99
2, 140083, Note_on_c, 0, 81, 0
2, 140094, Note_on_c, 0, 81, 86
2, 140190, Note_on_c, 0, 81, 0
2, 140201, Note_on_c, 0, 81, 93
2, 140252, Note_on_c, 0, 77, 0
2, 140257, Note_on_c, 0, 77, 92
2, 140298, Note_on_c, 0, 81, 0
2, 140308, Note_on_c, 0, 81, 90
2, 140347, Note_on_c, 0, 58, 103
2, 140352, Note_on_c, 0, 55, 103
2, 140358, Note_on_c, 0, 46, 84
2, 140413, Note_on_c, 0, 81, 0
2, 140417, Note_on_c, 0, 81, 91
2, 140474, Note_on_c, 0, 77, 0
2, 140479, Note_on_c, 0, 79, 62
2, 140483, Note_on_c, 0, 77, 77
2, 140536, Note_on_c, 0, 81, 0
2, 140544, Note_on_c, 0, 81, 86
2, 140607, Note_on_c, 0, 51, 94
2, 140705, Note_on_c, 0, 79, 0
2, 140712, Note_on_c, 0, 55, 0
2, 140712, Note_on_c, 0, 58, 0
2, 140715, Note_on_c, 0, 79, 104
2, 140717, Note_on_c, 0, 58, 99
2, 140721, Note_on_c, 0, 63, 101
2, 140723, Note_on_c, 0, 75, 92
2, 140723, Note_on_c, 0, 55, 90
2, 140774, Note_on_c, 0, 75, 0
2, 140781, Note_on_c, 0, 75, 100
2, 140835, Note_on_c, 0, 79, 0
2, 140843, Note_on_c, 0, 79, 82
2, 140897, Note_on_c, 0, 77, 0
2, 140905, Note_on_c, 0, 77, 57
2, 140943, Note_on_c, 0, 79, 0
2, 140953, Note_on_c, 0, 79, 94
2, 140970, Note_on_c, 0, 62, 104
2, 141012, Note_on_c, 0, 75, 0
2, 141017, Note_on_c, 0, 75, 86
2, 141066, Note_on_c, 0, 79, 0
2, 141073, Note_on_c, 0, 79, 79
2, 141135, Note_on_c, 0, 75, 0
2, 141145, Note_on_c, 0, 75, 83
2, 141181, Note_on_c, 0, 79, 0
2, 141190, Note_on_c, 0, 79, 87
2, 141235, Note_on_c, 0, 63, 0
2, 141242, Note_on_c, 0, 75, 0
2, 141243, Note_on_c, 0, 63, 103
2, 141253, Note_on_c, 0, 75, 96
2, 141296, Note_on_c, 0, 79, 0
2, 141302, Note_on_c, 0, 79, 89
2, 141373, Note_on_c, 0, 75, 0
2, 141377, Note_on_c, 0, 75, 91
2, 141465, Note_on_c, 0, 55, 0
2, 141465, Note_on_c, 0, 58, 0
2, 141465, Note_on_c, 0, 63, 0
2, 141465, Note_on_c, 0, 77, 0
2, 141470, Note_on_c, 0, 65, 106
2, 141473, Note_on_c, 0, 51, 0
2, 141473, Note_on_c, 0, 75, 0
2, 141473, Note_on_c, 0, 79, 0
2, 141474, Note_on_c, 0, 58, 96
2, 141475, Note_on_c, 0, 77, 96
2, 141476, Note_on_c, 0, 63, 107
2, 141476, Note_on_c, 0, 55, 90
2, 141477, Note_on_c, 0, 79, 92
2, 141479, Note_on_c, 0, 75, 90
2, 141481, Note_on_c, 0, 51, 83
2, 141527, Note_on_c, 0, 79, 0
2, 141538, Note_on_c, 0, 79, 96
2, 141603, Note_on_c, 0, 75, 0
2, 141614, Note_on_c, 0, 75, 86
2, 141649, Note_on_c, 0, 79, 0
2, 141661, Note_on_c, 0, 79, 80
2, 141726, Note_on_c, 0, 63, 0
2, 141726, Note_on_c, 0, 75, 0
2, 141730, Note_on_c, 0, 63, 106
2, 141731, Note_on_c, 0, 75, 98
2, 141780, Note_on_c, 0, 79, 0
2, 141789, Note_on_c, 0, 79, 96
2, 141857, Note_on_c, 0, 75, 0
2, 141861, Note_on_c, 0, 75, 79
2, 141895, Note_on_c, 0, 79, 0
2, 141899, Note_on_c, 0, 79, 89
2, 141964, Note_on_c, 0, 65, 0
2, 141964, Note_on_c, 0, 75, 0
2, 141969, Note_on_c, 0, 75, 98
2, 141971, Note_on_c, 0, 65, 101
2, 141995, Note_on_c, 0, 79, 0
2, 142001, Note_on_c, 0, 79, 86
2, 142049, Note_on_c, 0, 75, 0
2, 142056, Note_on_c, 0, 75, 92
2, 142218, Note_on_c, 0, 79, 0
2, 142220, Note_on_c, 0, 67, 108
2, 142223, Note_on_c, 0, 53, 102
2, 142224, Note_on_c, 0, 79, 108
2, 142225, Note_on_c, 0, 75, 0
2, 142228, Note_on_c, 0, 60, 97
2, 142229, Note_on_c, 0, 72, 94
2, 142230, Note_on_c, 0, 69, 97
2, 142230, Note_on_c, 0, 57, 102
2, 142231, Note_on_c, 0, 75, 99
2, 142233, Note_on_c, 0, 72, 0
2, 142478, Note_on_c, 0, 41, 109
2, 142480, Note_on_c, 0, 29, 104
2, 142725, Note_on_c, 0, 29, 0
2, 142725, Note_on_c, 0, 41, 0
2, 142725, Note_on_c, 0, 81, 0
2, 142728, Note_on_c, 0, 93, 112
2, 142729, Note_on_c, 0, 81, 107
2, 142730, Note_on_c, 0, 89, 108
2, 142730, Note_on_c, 0, 84, 99
2, 142732, Note_on_c, 0, 41, 107
2, 142733, Note_on_c, 0, 29, 101
2, 142737, Note_on_c, 0, 87, 84
2, 142913, Note_on_c, 0, 69, 0
2, 142914, Note_on_c, 0, 58, 0
2, 142914, Note_on_c, 0, 67, 0
2, 142915, Note_on_c, 0, 75, 0
2, 142915, Note_on_c, 0, 57, 0
2, 142915, Control_c, 0, 64, 0
2, 142915, Note_on_c, 0, 87, 0
2, 142916, Note_on_c, 0, 77, 0
2, 142916, Note_on_c, 0, 29, 0
2, 142916, Note_on_c, 0, 51, 0
2, 142916, Note_on_c, 0, 46, 0
2, 142916, Note_on_c, 0, 41, 0
2, 142916, Note_on_c, 0, 53, 0
2, 142916, Note_on_c, 0, 65, 0
2, 142916, Note_on_c, 0, 79, 0
2, 142916, Note_on_c, 0, 63, 0
2, 142917, Note_on_c, 0, 39, 0
2, 142917, Note_on_c, 0, 89, 0
2, 142918, Note_on_c, 0, 84, 0
2, 142918, Note_on_c, 0, 81, 0
2, 142918, Note_on_c, 0, 93, 0
2, 142918, Note_on_c, 0, 60, 0
2, 142924, Note_on_c, 0, 27, 0
2, 142924, Note_on_c, 0, 82, 0
2, 142932, Note_on_c, 0, 55, 0
2, 142932, Note_on_c, 0, 62, 0
2, 142989, Note_on_c, 0, 82, 108
2, 142989, Note_on_c, 0, 43, 107
2, 142989, Note_on_c, 0, 86, 101
2, 142990, Note_on_c, 0, 31, 94
2, 143024, Control_c, 0, 64, 127
2, 143055, Note_on_c, 0, 94, 101
2, 143078, Note_on_c, 0, 31, 0
2, 143078, Note_on_c, 0, 43, 0
2, 143087, Note_on_c, 0, 31, 92
2, 143089, Note_on_c, 0, 43, 101
2, 143093, Note_on_c, 0, 86, 0
2, 143103, Note_on_c, 0, 86, 92
2, 143155, Note_on_c, 0, 94, 0
2, 143166, Note_on_c, 0, 94, 105
2, 143216, Note_on_c, 0, 82, 0
2, 143216, Note_on_c, 0, 86, 0
2, 143223, Note_on_c, 0, 86, 90
2, 143224, Note_on_c, 0, 82, 100
2, 143278, Note_on_c, 0, 94, 0
2, 143283, Note_on_c, 0, 94, 98
2, 143339, Note_on_c, 0, 82, 0
2, 143339, Note_on_c, 0, 86, 0
2, 143344, Note_on_c, 0, 86, 88
2, 143346, Note_on_c, 0, 82, 96
2, 143368, Note_on_c, 0, 62, 102
2, 143374, Note_on_c, 0, 58, 104
2, 143408, Note_on_c, 0, 94, 0
2, 143416, Note_on_c, 0, 94, 97
2, 143462, Note_on_c, 0, 82, 0
2, 143462, Note_on_c, 0, 86, 0
2, 143468, Note_on_c, 0, 82, 98
2, 143473, Note_on_c, 0, 86, 90
2, 143523, Note_on_c, 0, 94, 0
2, 143528, Note_on_c, 0, 94, 97
2, 143585, Note_on_c, 0, 82, 0
2, 143585, Note_on_c, 0, 86, 0
2, 143590, Note_on_c, 0, 82, 94
2, 143594, Note_on_c, 0, 86, 93
2, 143622, Note_on_c, 0, 55, 90
2, 143646, Note_on_c, 0, 94, 0
2, 143656, Note_on_c, 0, 94, 92
2, 143731, Note_on_c, 0, 58, 0
2, 143731, Note_on_c, 0, 86, 0
2, 143735, Note_on_c, 0, 86, 102
2, 143738, Note_on_c, 0, 62, 0
2, 143740, Note_on_c, 0, 70, 108
2, 143741, Note_on_c, 0, 58, 109
2, 143741, Note_on_c, 0, 89, 84
2, 143744, Note_on_c, 0, 62, 93
2, 143777, Note_on_c, 0, 94, 0
2, 143782, Note_on_c, 0, 94, 87
2, 143838, Note_on_c, 0, 82, 0
2, 143838, Note_on_c, 0, 86, 0
2, 143843, Note_on_c, 0, 86, 98
2, 143844, Note_on_c, 0, 82, 95
2, 143900, Note_on_c, 0, 94, 0
2, 143905, Note_on_c, 0, 94, 100
2, 143961, Note_on_c, 0, 89, 0
2, 143971, Note_on_c, 0, 89, 49
2, 143992, Note_on_c, 0, 86, 0
2, 143996, Note_on_c, 0, 81, 107
2, 143997, Note_on_c, 0, 86, 105
2, 144054, Note_on_c, 0, 93, 93
2, 144115, Note_on_c, 0, 81, 0
2, 144115, Note_on_c, 0, 86, 0
2, 144119, Note_on_c, 0, 86, 90
2, 144121, Note_on_c, 0, 81, 96
2, 144168, Note_on_c, 0, 93, 0
2, 144176, Note_on_c, 0, 93, 97
2, 144215, Note_on_c, 0, 82, 0
2, 144215, Note_on_c, 0, 86, 0
2, 144226, Note_on_c, 0, 82, 110
2, 144226, Note_on_c, 0, 86, 102
2, 144284, Note_on_c, 0, 94, 0
2, 144292, Note_on_c, 0, 94, 95
2, 144337, Note_on_c, 0, 82, 0
2, 144337, Note_on_c, 0, 86, 0
2, 144347, Note_on_c, 0, 82, 97
2, 144348, Note_on_c, 0, 86, 91
2, 144407, Note_on_c, 0, 94, 0
2, 144416, Note_on_c, 0, 94, 88
2, 144444, Note_on_c, 0, 93, 0
2, 144445, Note_on_c, 0, 81, 0
2, 144445, Note_on_c, 0, 55, 0
2, 144446, Note_on_c, 0, 58, 0
2, 144446, Note_on_c, 0, 31, 0
2, 144447, Note_on_c, 0, 70, 0
2, 144447, Note_on_c, 0, 82, 0
2, 144447, Note_on_c, 0, 62, 0
2, 144448, Note_on_c, 0, 43, 0
2, 144448, Control_c, 0, 64, 0
2, 144474, Note_on_c, 0, 29, 95
2, 144476, Note_on_c, 0, 86, 0
2, 144476, Note_on_c, 0, 89, 0
2, 144476, Note_on_c, 0, 94, 0
2, 144476, Note_on_c, 0, 41, 104
2, 144482, Note_on_c, 0, 89, 108
2, 144484, Note_on_c, 0, 84, 104
2, 144522, Control_c, 0, 64, 127
2, 144543, Note_on_c, 0, 96, 88
2, 144583, Note_on_c, 0, 29, 0
2, 144583, Note_on_c, 0, 41, 0
2, 144583, Note_on_c, 0, 84, 0
2, 144588, Note_on_c, 0, 29, 91
2, 144588, Note_on_c, 0, 48, 89
2, 144592, Note_on_c, 0, 41, 98
2, 144595, Note_on_c, 0, 84, 93
2, 144660, Note_on_c, 0, 96, 0
2, 144667, Note_on_c, 0, 96, 100
2, 144714, Note_on_c, 0, 84, 0
2, 144714, Note_on_c, 0, 89, 0
2, 144721, Note_on_c, 0, 84, 97
2, 144722, Note_on_c, 0, 89, 91
2, 144783, Note_on_c, 0, 96, 0
2, 144793, Note_on_c, 0, 96, 95
2, 144860, Note_on_c, 0, 84, 0
2, 144860, Note_on_c, 0, 89, 0
2, 144865, Note_on_c, 0, 60, 101
2, 144866, Note_on_c, 0, 89, 94
2, 144867, Note_on_c, 0, 84, 105
2, 144869, Note_on_c, 0, 57, 107
2, 144921, Note_on_c, 0, 96, 0
2, 144932, Note_on_c, 0, 96, 97
2, 144975, Note_on_c, 0, 84, 0
2, 144982, Note_on_c, 0, 84, 88
2, 145036, Note_on_c, 0, 96, 0
2, 145040, Note_on_c, 0, 96, 91
2, 145090, Note_on_c, 0, 84, 0
2, 145090, Note_on_c, 0, 89, 0
2, 145099, Note_on_c, 0, 84, 96
2, 145101, Note_on_c, 0, 89, 89
2, 145115, Note_on_c, 0, 53, 93
2, 145159, Note_on_c, 0, 96, 0
2, 145168, Note_on_c, 0, 96, 86
2, 145221, Note_on_c, 0, 60, 0
2, 145226, Note_on_c, 0, 69, 107
2, 145228, Note_on_c, 0, 65, 104
2, 145228, Note_on_c, 0, 89, 0
2, 145231, Note_on_c, 0, 60, 101
2, 145236, Note_on_c, 0, 82, 107
2, 145240, Note_on_c, 0, 89, 99
2, 145301, Note_on_c, 0, 94, 101
2, 145359, Note_on_c, 0, 82, 0
2, 145365, Note_on_c, 0, 82, 96
2, 145413, Note_on_c, 0, 94, 0
2, 145424, Note_on_c, 0, 94, 100
2, 145489, Note_on_c, 0, 89, 0
2, 145496, Note_on_c, 0, 89, 109
2, 145549, Note_on_c, 0, 101, 111
2, 145605, Note_on_c, 0, 89, 0
2, 145609, Note_on_c, 0, 89, 102
2, 145658, Note_on_c, 0, 101, 0
2, 145667, Note_on_c, 0, 101, 109
2, 145738, Note_on_c, 0, 77, 101
2, 145797, Note_on_c, 0, 89, 0
2, 145808, Note_on_c, 0, 89, 100
2, 145843, Note_on_c, 0, 77, 0
2, 145854, Note_on_c, 0, 77, 94
2, 145904, Note_on_c, 0, 89, 0
2, 145908, Note_on_c, 0, 89, 91
2, 145926, Note_on_c, 0, 41, 0
2, 145926, Note_on_c, 0, 48, 0
2, 145927, Note_on_c, 0, 77, 0
2, 145927, Note_on_c, 0, 29, 0
2, 145928, Note_on_c, 0, 69, 0
2, 145929, Note_on_c, 0, 101, 0
2, 145929, Note_on_c, 0, 96, 0
2, 145929, Note_on_c, 0, 65, 0
2, 145929, Note_on_c, 0, 53, 0
2, 145929, Note_on_c, 0, 60, 0
2, 145930, Note_on_c, 0, 57, 0
2, 145930, Note_on_c, 0, 84, 0
2, 145931, Note_on_c, 0, 82, 0
2, 145932, Control_c, 0, 64, 0
2, 145973, Note_on_c, 0, 94, 0
2, 145974, Note_on_c, 0, 39, 103
2, 145977, Note_on_c, 0, 27, 101
2, 145978, Note_on_c, 0, 81, 107
2, 145978, Note_on_c, 0, 85, 91
2, 146004, Control_c, 0, 64, 127
2, 146054, Note_on_c, 0, 93, 92
2, 146096, Note_on_c, 0, 81, 0
2, 146099, Note_on_c, 0, 82, 97
2, 146100, Note_on_c, 0, 81, 94
2, 146158, Note_on_c, 0, 93, 0
2, 146164, Note_on_c, 0, 93, 99
2, 146211, Note_on_c, 0, 81, 0
2, 146211, Note_on_c, 0, 82, 0
2, 146220, Note_on_c, 0, 82, 99
2, 146222, Note_on_c, 0, 81, 101
2, 146288, Note_on_c, 0, 93, 0
2, 146299, Note_on_c, 0, 93, 94
2, 146357, Note_on_c, 0, 81, 0
2, 146364, Note_on_c, 0, 81, 105
2, 146368, Note_on_c, 0, 55, 104
2, 146369, Note_on_c, 0, 58, 103
2, 146411, Note_on_c, 0, 93, 0
2, 146416, Note_on_c, 0, 93, 91
2, 146465, Note_on_c, 0, 82, 0
2, 146472, Note_on_c, 0, 82, 91
2, 146472, Note_on_c, 0, 81, 0
2, 146477, Note_on_c, 0, 81, 90
2, 146580, Note_on_c, 0, 81, 0
2, 146591, Note_on_c, 0, 81, 96
2, 146601, Note_on_c, 0, 51, 83
2, 146634, Note_on_c, 0, 93, 0
2, 146640, Note_on_c, 0, 93, 89
2, 146726, Note_on_c, 0, 58, 0
2, 146726, Note_on_c, 0, 82, 0
2, 146734, Note_on_c, 0, 91, 101
2, 146735, Note_on_c, 0, 82, 106
2, 146736, Note_on_c, 0, 58, 106
2, 146736, Note_on_c, 0, 79, 104
2, 146737, Note_on_c, 0, 67, 100
2, 146738, Note_on_c, 0, 63, 101
2, 146787, Note_on_c, 0, 91, 0
2, 146799, Note_on_c, 0, 91, 93
2, 146833, Note_on_c, 0, 82, 0
2, 146843, Note_on_c, 0, 82, 90
2, 146910, Note_on_c, 0, 91, 0
2, 146922, Note_on_c, 0, 91, 99
2, 146979, Note_on_c, 0, 79, 0
2, 146979, Note_on_c, 0, 82, 0
2, 146987, Note_on_c, 0, 82, 91
2, 146988, Note_on_c, 0, 79, 96
2, 146991, Note_on_c, 0, 69, 103
2, 147025, Note_on_c, 0, 82, 0
2, 147036, Note_on_c, 0, 82, 58
2, 147041, Note_on_c, 0, 91, 0
2, 147045, Note_on_c, 0, 91, 96
2, 147095, Note_on_c, 0, 79, 0
2, 147095, Note_on_c, 0, 82, 0
2, 147100, Note_on_c, 0, 79, 86
2, 147100, Note_on_c, 0, 82, 90
2, 147148, Note_on_c, 0, 91, 0
2, 147156, Note_on_c, 0, 82, 0
2, 147159, Note_on_c, 0, 91, 93
2, 147161, Note_on_c, 0, 82, 85
2, 147233, Note_on_c, 0, 79, 0
2, 147238, Note_on_c, 0, 79, 95
2, 147245, Note_on_c, 0, 70, 104
2, 147279, Note_on_c, 0, 91, 0
2, 147283, Note_on_c, 0, 91, 95
2, 147340, Note_on_c, 0, 79, 0
2, 147348, Note_on_c, 0, 82, 0
2, 147351, Note_on_c, 0, 79, 93
2, 147353, Note_on_c, 0, 82, 82
2, 147409, Note_on_c, 0, 91, 0
2, 147416, Note_on_c, 0, 91, 93
2, 147486, Note_on_c, 0, 79, 0
2, 147486, Note_on_c, 0, 91, 0
2, 147491, Note_on_c, 0, 91, 105
2, 147494, Note_on_c, 0, 63, 0
2, 147494, Note_on_c, 0, 67, 0
2, 147494, Note_on_c, 0, 70, 0
2, 147495, Note_on_c, 0, 79, 106
2, 147496, Note_on_c, 0, 72, 111
2, 147503, Note_on_c, 0, 70, 99
2, 147505, Note_on_c, 0, 63, 99
2, 147505, Note_on_c, 0, 67, 96
2, 147601, Note_on_c, 0, 82, 0
2, 147609, Note_on_c, 0, 79, 0
2, 147613, Note_on_c, 0, 82, 92
2, 147618, Note_on_c, 0, 79, 87
2, 147671, Note_on_c, 0, 91, 0
2, 147679, Note_on_c, 0, 91, 99
2, 147724, Note_on_c, 0, 79, 0
2, 147730, Note_on_c, 0, 79, 104
2, 147732, Note_on_c, 0, 82, 0
2, 147737, Note_on_c, 0, 82, 104
2, 147743, Note_on_c, 0, 74, 106
2, 147778, Note_on_c, 0, 91, 0
2, 147789, Note_on_c, 0, 91, 91
2, 147840, Note_on_c, 0, 79, 0
2, 147840, Note_on_c, 0, 82, 0
2, 147849, Note_on_c, 0, 82, 98
2, 147850, Note_on_c, 0, 79, 92
2, 147916, Note_on_c, 0, 82, 0
2, 147916, Note_on_c, 0, 91, 0
2, 147924, Note_on_c, 0, 91, 90
2, 147926, Note_on_c, 0, 82, 77
2, 147955, Note_on_c, 0, 79, 0
2, 147961, Note_on_c, 0, 79, 87
2, 147993, Note_on_c, 0, 91, 0
2, 147999, Note_on_c, 0, 75, 105
2, 148000, Note_on_c, 0, 91, 100
2, 148055, Note_on_c, 0, 79, 0
2, 148055, Note_on_c, 0, 82, 0
2, 148061, Note_on_c, 0, 79, 95
2, 148064, Note_on_c, 0, 82, 101
2, 148101, Note_on_c, 0, 91, 0
2, 148112, Note_on_c, 0, 91, 96
2, 148162, Note_on_c, 0, 79, 0
2, 148170, Note_on_c, 0, 82, 0
2, 148171, Note_on_c, 0, 79, 76
2, 148174, Note_on_c, 0, 82, 71
2, 148231, Note_on_c, 0, 70, 0
2, 148231, Note_on_c, 0, 75, 0
2, 148234, Note_on_c, 0, 77, 104
2, 148237, Note_on_c, 0, 75, 102
2, 148237, Note_on_c, 0, 70, 100
2, 148239, Note_on_c, 0, 63, 0
2, 148239, Note_on_c, 0, 67, 0
2, 148243, Note_on_c, 0, 63, 95
2, 148246, Note_on_c, 0, 67, 90
2, 148262, Note_on_c, 0, 91, 0
2, 148270, Note_on_c, 0, 91, 102
2, 148315, Note_on_c, 0, 87, 99
2, 148374, Note_on_c, 0, 86, 93
2, 148454, Note_on_c, 0, 82, 0
2, 148458, Note_on_c, 0, 82, 90
2, 148500, Note_on_c, 0, 79, 0
2, 148504, Note_on_c, 0, 79, 103
2, 148508, Note_on_c, 0, 75, 0
2, 148518, Note_on_c, 0, 75, 99
2, 148538, Note_on_c, 0, 70, 0
2, 148543, Note_on_c, 0, 70, 78
2, 148600, Note_on_c, 0, 67, 0
2, 148606, Note_on_c, 0, 67, 91
2, 148646, Note_on_c, 0, 63, 0
2, 148654, Note_on_c, 0, 63, 88
2, 148700, Note_on_c, 0, 58, 0
2, 148705, Note_on_c, 0, 58, 91
2, 148753, Note_on_c, 0, 55, 0
2, 148758, Note_on_c, 0, 55, 85
2, 148761, Note_on_c, 0, 81, 0
2, 148767, Note_on_c, 0, 81, 108
2, 148769, Note_on_c, 0, 69, 0
2, 148773, Note_on_c, 0, 69, 105
2, 148792, Note_on_c, 0, 51, 0
2, 148797, Note_on_c, 0, 51, 92
2, 148980, Control_c, 0, 64, 0
2, 148984, Note_on_c, 0, 85, 0
2, 148985, Note_on_c, 0, 72, 0
2, 148985, Note_on_c, 0, 87, 0
2, 148987, Note_on_c, 0, 69, 0
2, 148987, Note_on_c, 0, 39, 0
2, 148987, Note_on_c, 0, 51, 0
2, 148987, Note_on_c, 0, 55, 0
2, 148988, Note_on_c, 0, 86, 0
2, 148988, Note_on_c, 0, 81, 0
2, 148988, Note_on_c, 0, 67, 0
2, 148988, Note_on_c, 0, 63, 0
2, 148988, Note_on_c, 0, 58, 0
2, 148988, Note_on_c, 0, 79, 0
2, 148988, Note_on_c, 0, 91, 0
2, 148989, Note_on_c, 0, 74, 0
2, 148989, Note_on_c, 0, 82, 0
2, 148989, Note_on_c, 0, 70, 0
2, 148992, Note_on_c, 0, 77, 0
2, 148999, Note_on_c, 0, 89, 0
2, 148999, Note_on_c, 0, 93, 0
2, 149007, Note_on_c, 0, 27, 0
2, 149007, Note_on_c, 0, 75, 0
2, 149031, Note_on_c, 0, 74, 105
2, 149032, Note_on_c, 0, 39, 101
2, 149033, Note_on_c, 0, 70, 106
2, 149033, Note_on_c, 0, 27, 104
2, 149034, Note_on_c, 0, 81, 109
2, 149053, Control_c, 0, 64, 127
2, 149263, Control_c, 0, 64, 0
2, 149304, Note_on_c, 0, 79, 105
2, 149310, Note_on_c, 0, 27, 0
2, 149312, Note_on_c, 0, 39, 0
2, 149312, Note_on_c, 0, 74, 0
2, 149313, Note_on_c, 0, 70, 0
2, 149313, Note_on_c, 0, 81, 0
2, 149437, Note_on_c, 0, 79, 0
2, 149570, Note_on_c, 0, 74, 108
2, 149611, Note_on_c, 0, 74, 0
2, 149816, Note_on_c, 0, 58, 104
2, 149823, Note_on_c, 0, 63, 102
2, 149823, Note_on_c, 0, 81, 105
2, 149823, Note_on_c, 0, 67, 101
2, 149825, Note_on_c, 0, 74, 105
2, 149826, Note_on_c, 0, 70, 98
2, 149867, Control_c, 0, 64, 127
2, 150081, Note_on_c, 0, 79, 101
2, 150336, Note_on_c, 0, 74, 0
2, 150343, Note_on_c, 0, 74, 103
2, 150476, Note_on_c, 0, 39, 93
2, 150477, Note_on_c, 0, 27, 91
2, 150494, Note_on_c, 0, 79, 0
2, 150495, Note_on_c, 0, 67, 0
2, 150496, Note_on_c, 0, 74, 0
2, 150498, Note_on_c, 0, 63, 0
2, 150498, Note_on_c, 0, 58, 0
2, 150499, Note_on_c, 0, 81, 0
2, 150499, Note_on_c, 0, 70, 0
2, 150502, Control_c, 0, 64, 0
2, 150528, Note_on_c, 0, 27, 0
2, 150543, Note_on_c, 0, 39, 0
2, 150578, Note_on_c, 0, 39, 98
2, 150582, Note_on_c, 0, 27, 100
2, 150585, Note_on_c, 0, 34, 84
2, 150585, Note_on_c, 0, 74, 106
2, 150587, Note_on_c, 0, 70, 106
2, 150589, Control_c, 0, 64, 127
2, 150592, Note_on_c, 0, 81, 108
2, 150620, Note_on_c, 0, 34, 0
2, 150863, Note_on_c, 0, 79, 101
2, 150997, Note_on_c, 0, 58, 107
2, 150998, Note_on_c, 0, 67, 100
2, 151000, Note_on_c, 0, 63, 100
2, 151104, Note_on_c, 0, 74, 0
2, 151109, Note_on_c, 0, 74, 94
2, 151188, Note_on_c, 0, 67, 0
2, 151193, Note_on_c, 0, 67, 59
2, 151234, Note_on_c, 0, 58, 0
2, 151242, Note_on_c, 0, 58, 103
2, 151342, Note_on_c, 0, 63, 0
2, 151342, Note_on_c, 0, 79, 0
2, 151349, Note_on_c, 0, 67, 0
2, 151349, Note_on_c, 0, 70, 0
2, 151349, Note_on_c, 0, 74, 0
2, 151351, Note_on_c, 0, 63, 99
2, 151352, Note_on_c, 0, 79, 108
2, 151353, Note_on_c, 0, 67, 99
2, 151353, Note_on_c, 0, 70, 101
2, 151355, Note_on_c, 0, 74, 105
2, 151587, Note_on_c, 0, 39, 0
2, 151594, Note_on_c, 0, 39, 98
2, 151595, Note_on_c, 0, 51, 101
2, 151814, Note_on_c, 0, 67, 0
2, 151814, Note_on_c, 0, 81, 0
2, 151814, Note_on_c, 0, 39, 0
2, 151814, Note_on_c, 0, 74, 0
2, 151815, Note_on_c, 0, 51, 0
2, 151815, Note_on_c, 0, 70, 0
2, 151817, Control_c, 0, 64, 0
2, 151833, Note_on_c, 0, 27, 0
2, 151833, Note_on_c, 0, 58, 0
2, 151833, Note_on_c, 0, 63, 0
2, 151841, Note_on_c, 0, 79, 0
2, 151861, Note_on_c, 0, 41, 102
2, 151862, Note_on_c, 0, 29, 98
2, 151863, Note_on_c, 0, 84, 105
2, 151866, Note_on_c, 0, 72, 107
2, 151867, Note_on_c, 0, 77, 101
2, 151895, Control_c, 0, 64, 127
2, 152037, Note_on_c, 0, 72, 0
2, 152037, Note_on_c, 0, 41, 0
2, 152037, Note_on_c, 0, 77, 0
2, 152037, Control_c, 0, 64, 0
2, 152040, Note_on_c, 0, 84, 0
2, 152048, Note_on_c, 0, 29, 0
2, 152109, Note_on_c, 0, 74, 108
2, 152110, Note_on_c, 0, 84, 103
2, 152112, Note_on_c, 0, 77, 100
2, 152112, Note_on_c, 0, 43, 106
2, 152113, Note_on_c, 0, 31, 99
2, 152133, Control_c, 0, 64, 127
2, 152217, Note_on_c, 0, 31, 0
2, 152217, Note_on_c, 0, 43, 0
2, 152227, Note_on_c, 0, 43, 108
2, 152228, Note_on_c, 0, 31, 95
2, 152344, Note_on_c, 0, 74, 0
2, 152344, Note_on_c, 0, 31, 0
2, 152345, Note_on_c, 0, 84, 0
2, 152345, Note_on_c, 0, 77, 0
2, 152347, Note_on_c, 0, 43, 0
2, 152359, Control_c, 0, 64, 0
2, 152379, Note_on_c, 0, 82, 110
2, 152630, Note_on_c, 0, 77, 105
2, 152724, Note_on_c, 0, 82, 0
2, 152778, Note_on_c, 0, 77, 0
2, 152879, Note_on_c, 0, 70, 106
2, 152882, Note_on_c, 0, 67, 104
2, 152883, Note_on_c, 0, 65, 108
2, 152886, Note_on_c, 0, 62, 103
2, 152886, Note_on_c, 0, 77, 101
2, 152888, Note_on_c, 0, 74, 108
2, 152954, Control_c, 0, 64, 127
2, 153156, Note_on_c, 0, 82, 108
2, 153384, Note_on_c, 0, 77, 0
2, 153393, Note_on_c, 0, 77, 104
2, 153516, Note_on_c, 0, 38, 98
2, 153607, Note_on_c, 0, 74, 0
2, 153608, Note_on_c, 0, 82, 0
2, 153608, Note_on_c, 0, 38, 0
2, 153609, Note_on_c, 0, 67, 0
2, 153610, Note_on_c, 0, 62, 0
2, 153610, Note_on_c, 0, 65, 0
2, 153610, Note_on_c, 0, 70, 0
2, 153614, Control_c, 0, 64, 0
2, 153638, Note_on_c, 0, 77, 0
2, 153648, Note_on_c, 0, 84, 108
2, 153649, Note_on_c, 0, 43, 103
2, 153649, Note_on_c, 0, 77, 102
2, 153649, Note_on_c, 0, 31, 98
2, 153650, Note_on_c, 0, 74, 107
2, 153699, Control_c, 0, 64, 127
2, 153914, Note_on_c, 0, 74, 0
2, 153918, Note_on_c, 0, 82, 108
2, 153918, Note_on_c, 0, 74, 101
2, 154029, Note_on_c, 0, 70, 106
2, 154034, Note_on_c, 0, 62, 92
2, 154034, Note_on_c, 0, 67, 90
2, 154035, Note_on_c, 0, 65, 99
2, 154152, Note_on_c, 0, 77, 0
2, 154162, Note_on_c, 0, 89, 111
2, 154163, Note_on_c, 0, 77, 107
2, 154414, Note_on_c, 0, 84, 0
2, 154421, Note_on_c, 0, 77, 0
2, 154425, Note_on_c, 0, 53, 110
2, 154425, Note_on_c, 0, 84, 110
2, 154425, Note_on_c, 0, 72, 109
2, 154426, Note_on_c, 0, 41, 107
2, 154427, Note_on_c, 0, 81, 102
2, 154427, Note_on_c, 0, 77, 101
2, 154434, Note_on_c, 0, 43, 0
2, 154435, Note_on_c, 0, 65, 0
2, 154435, Note_on_c, 0, 82, 0
2, 154440, Note_on_c, 0, 70, 0
2, 154441, Note_on_c, 0, 67, 0
2, 154444, Note_on_c, 0, 89, 0
2, 154460, Note_on_c, 0, 31, 0
2, 154467, Note_on_c, 0, 62, 0
2, 154675, Note_on_c, 0, 41, 0
2, 154685, Note_on_c, 0, 41, 107
2, 154685, Note_on_c, 0, 29, 104
2, 154928, Note_on_c, 0, 74, 0
2, 154930, Note_on_c, 0, 86, 109
2, 154932, Note_on_c, 0, 74, 109
2, 155123, Note_on_c, 0, 41, 0
2, 155123, Note_on_c, 0, 29, 0
2, 155124, Control_c, 0, 64, 0
2, 155124, Note_on_c, 0, 53, 0
2, 155124, Note_on_c, 0, 72, 0
2, 155124, Note_on_c, 0, 81, 0
2, 155124, Note_on_c, 0, 74, 0
2, 155125, Note_on_c, 0, 86, 0
2, 155136, Note_on_c, 0, 77, 0
2, 155136, Note_on_c, 0, 84, 0
2, 155206, Note_on_c, 0, 79, 111
2, 155208, Note_on_c, 0, 70, 109
2, 155209, Note_on_c, 0, 75, 103
2, 155210, Note_on_c, 0, 36, 108
2, 155214, Note_on_c, 0, 24, 101
2, 155251, Control_c, 0, 64, 127
2, 155604, Note_on_c, 0, 58, 105
2, 155606, Note_on_c, 0, 55, 99
2, 155879, Note_on_c, 0, 48, 97
2, 155973, Note_on_c, 0, 24, 0
2, 155980, Note_on_c, 0, 55, 0
2, 155980, Note_on_c, 0, 58, 0
2, 155980, Note_on_c, 0, 70, 0
2, 155988, Note_on_c, 0, 75, 0
2, 155988, Note_on_c, 0, 79, 0
2, 155989, Note_on_c, 0, 55, 101
2, 155989, Note_on_c, 0, 58, 105
2, 155990, Note_on_c, 0, 63, 102
2, 155991, Note_on_c, 0, 82, 111
2, 155992, Note_on_c, 0, 70, 106
2, 155992, Note_on_c, 0, 75, 99
2, 155993, Note_on_c, 0, 79, 97
2, 156254, Note_on_c, 0, 81, 106
2, 156256, Note_on_c, 0, 69, 101
2, 156503, Note_on_c, 0, 77, 101
2, 156504, Note_on_c, 0, 65, 101
2, 156691, Control_c, 0, 64, 0
2, 156692, Note_on_c, 0, 36, 0
2, 156696, Note_on_c, 0, 55, 0
2, 156696, Note_on_c, 0, 82, 0
2, 156696, Note_on_c, 0, 69, 0
2, 156696, Note_on_c, 0, 63, 0
2, 156696, Note_on_c, 0, 79, 0
2, 156696, Note_on_c, 0, 75, 0
2, 156696, Note_on_c, 0, 70, 0
2, 156696, Note_on_c, 0, 48, 0
2, 156696, Note_on_c, 0, 58, 0
2, 156696, Note_on_c, 0, 81, 0
2, 156697, Note_on_c, 0, 77, 0
2, 156698, Note_on_c, 0, 65, 0
2, 156752, Note_on_c, 0, 72, 108
2, 156752, Note_on_c, 0, 38, 100
2, 156753, Note_on_c, 0, 26, 98
2, 156753, Note_on_c, 0, 69, 100
2, 156755, Note_on_c, 0, 65, 93
2, 156757, Note_on_c, 0, 60, 103
2, 156787, Control_c, 0, 64, 127
2, 157140, Note_on_c, 0, 26, 0
2, 157140, Note_on_c, 0, 60, 0
2, 157145, Note_on_c, 0, 60, 96
2, 157147, Note_on_c, 0, 57, 100
2, 157267, Note_on_c, 0, 70, 102
2, 157405, Note_on_c, 0, 50, 82
2, 157516, Note_on_c, 0, 60, 0
2, 157524, Note_on_c, 0, 57, 0
2, 157524, Note_on_c, 0, 65, 0
2, 157524, Note_on_c, 0, 69, 0
2, 157524, Note_on_c, 0, 72, 0
2, 157526, Note_on_c, 0, 60, 100
2, 157528, Note_on_c, 0, 65, 102
2, 157529, Note_on_c, 0, 72, 106
2, 157529, Note_on_c, 0, 57, 94
2, 157533, Note_on_c, 0, 69, 93
2, 157788, Note_on_c, 0, 74, 107
2, 158043, Note_on_c, 0, 82, 106
2, 158188, Note_on_c, 0, 39, 89
2, 158263, Note_on_c, 0, 72, 0
2, 158264, Note_on_c, 0, 60, 0
2, 158264, Note_on_c, 0, 57, 0
2, 158264, Note_on_c, 0, 82, 0
2, 158264, Note_on_c, 0, 50, 0
2, 158264, Note_on_c, 0, 74, 0
2, 158264, Note_on_c, 0, 65, 0
2, 158264, Note_on_c, 0, 69, 0
2, 158265, Note_on_c, 0, 70, 0
2, 158265, Note_on_c, 0, 38, 0
2, 158273, Control_c, 0, 64, 0
2, 158351, Note_on_c, 0, 69, 105
2, 158351, Note_on_c, 0, 81, 108
2, 158359, Note_on_c, 0, 75, 97
2, 158361, Note_on_c, 0, 70, 98
2, 158400, Control_c, 0, 64, 127
2, 158649, Note_on_c, 0, 57, 85
2, 158903, Note_on_c, 0, 58, 88
2, 159156, Note_on_c, 0, 51, 80
2, 159158, Note_on_c, 0, 60, 92
2, 159434, Note_on_c, 0, 62, 89
2, 159690, Note_on_c, 0, 63, 92
2, 159943, Note_on_c, 0, 29, 84
2, 159946, Note_on_c, 0, 41, 88
2, 159955, Note_on_c, 0, 65, 94
2, 159968, Control_c, 0, 64, 0
2, 159971, Note_on_c, 0, 58, 0
2, 159973, Note_on_c, 0, 39, 0
2, 159973, Note_on_c, 0, 62, 0
2, 159973, Note_on_c, 0, 63, 0
2, 159974, Note_on_c, 0, 51, 0
2, 159975, Note_on_c, 0, 75, 0
2, 159975, Note_on_c, 0, 70, 0
2, 159975, Note_on_c, 0, 69, 0
2, 159975, Note_on_c, 0, 60, 0
2, 159976, Note_on_c, 0, 81, 0
2, 160020, Control_c, 0, 64, 127
2, 160224, Note_on_c, 0, 67, 90
2, 160487, Note_on_c, 0, 84, 105
2, 160489, Note_on_c, 0, 69, 92
2, 160742, Note_on_c, 0, 65, 0
2, 160746, Note_on_c, 0, 60, 90
2, 160746, Note_on_c, 0, 70, 99
2, 160748, Note_on_c, 0, 82, 106
2, 160752, Note_on_c, 0, 65, 87
2, 161028, Note_on_c, 0, 81, 106
2, 161029, Note_on_c, 0, 72, 101
2, 161299, Note_on_c, 0, 77, 100
2, 161301, Note_on_c, 0, 74, 97
2, 161410, Note_on_c, 0, 74, 0
2, 161421, Note_on_c, 0, 74, 88
2, 161602, Note_on_c, 0, 77, 0
2, 161609, Note_on_c, 0, 77, 95
2, 161631, Control_c, 0, 64, 0
2, 161640, Note_on_c, 0, 57, 0
2, 161641, Note_on_c, 0, 29, 0
2, 161642, Note_on_c, 0, 41, 0
2, 161643, Note_on_c, 0, 60, 0
2, 161643, Note_on_c, 0, 84, 0
2, 161643, Note_on_c, 0, 82, 0
2, 161644, Note_on_c, 0, 67, 0
2, 161644, Note_on_c, 0, 69, 0
2, 161644, Note_on_c, 0, 72, 0
2, 161644, Note_on_c, 0, 70, 0
2, 161644, Note_on_c, 0, 81, 0
2, 161664, Note_on_c, 0, 65, 0
2, 161664, Note_on_c, 0, 74, 0
2, 162041, Note_on_c, 0, 79, 96
2, 162140, Note_on_c, 0, 77, 0
2, 162475, Note_on_c, 0, 91, 71
2, 162487, Note_on_c, 0, 70, 48
2, 162492, Note_on_c, 0, 63, 46
2, 162496, Note_on_c, 0, 67, 37
2, 163292, Note_on_c, 0, 91, 0
2, 163303, Note_on_c, 0, 91, 66
2, 163305, Note_on_c, 0, 72, 46
2, 163311, Note_on_c, 0, 65, 27
2, 163311, Note_on_c, 0, 69, 43
2, 163341, Note_on_c, 0, 79, 0
2, 163342, Note_on_c, 0, 70, 0
2, 163368, Note_on_c, 0, 63, 0
2, 163905, Note_on_c, 0, 84, 89
2, 163975, Control_c, 0, 64, 127
2, 164044, Note_on_c, 0, 67, 0
2, 164188, Note_on_c, 0, 82, 101
2, 164213, Note_on_c, 0, 91, 0
2, 164448, Note_on_c, 0, 81, 102
2, 164449, Control_c, 0, 64, 0
2, 164508, Note_on_c, 0, 84, 0
2, 164509, Note_on_c, 0, 82, 0
2, 164513, Note_on_c, 0, 65, 0
2, 164528, Note_on_c, 0, 72, 0
2, 164574, Control_c, 0, 64, 127
2, 164711, Note_on_c, 0, 77, 94
2, 164766, Note_on_c, 0, 69, 0
2, 164825, Note_on_c, 0, 74, 94
2, 164958, Note_on_c, 0, 77, 0
2, 164969, Note_on_c, 0, 77, 100
2, 164974, Note_on_c, 0, 81, 0
2, 165016, Note_on_c, 0, 74, 0
2, 165031, Control_c, 0, 64, 0
2, 165386, Note_on_c, 0, 79, 97
2, 165442, Control_c, 0, 64, 127
2, 165776, Note_on_c, 0, 91, 70
2, 165777, Note_on_c, 0, 70, 54
2, 165781, Note_on_c, 0, 74, 49
2, 165784, Note_on_c, 0, 67, 42
2, 166326, Note_on_c, 0, 86, 99
2, 166610, Note_on_c, 0, 84, 94
2, 166617, Note_on_c, 0, 70, 0
2, 166617, Note_on_c, 0, 74, 0
2, 166627, Note_on_c, 0, 82, 66
2, 166628, Note_on_c, 0, 70, 45
2, 166629, Note_on_c, 0, 74, 64
2, 167450, Note_on_c, 0, 69, 59
2, 167455, Note_on_c, 0, 65, 49
2, 167715, Note_on_c, 0, 77, 0
2, 167721, Note_on_c, 0, 77, 90
2, 167992, Note_on_c, 0, 74, 0
2, 168001, Note_on_c, 0, 74, 90
2, 168265, Note_on_c, 0, 72, 84
2, 168268, Note_on_c, 0, 67, 0
2, 168275, Note_on_c, 0, 63, 59
2, 168279, Note_on_c, 0, 67, 59
2, 168291, Note_on_c, 0, 91, 0
2, 168292, Note_on_c, 0, 84, 0
2, 168292, Note_on_c, 0, 79, 0
2, 168292, Note_on_c, 0, 74, 0
2, 168294, Note_on_c, 0, 70, 0
2, 168294, Note_on_c, 0, 82, 0
2, 168294, Note_on_c, 0, 65, 0
2, 168295, Note_on_c, 0, 77, 0
2, 168295, Note_on_c, 0, 86, 0
2, 168295, Note_on_c, 0, 69, 0
2, 168296, Control_c, 0, 64, 0
2, 168529, Note_on_c, 0, 72, 0
2, 168537, Note_on_c, 0, 72, 82
2, 168637, Control_c, 0, 64, 127
2, 168665, Note_on_c, 0, 70, 78
2, 168783, Note_on_c, 0, 72, 0
2, 168793, Note_on_c, 0, 72, 77
2, 168913, Note_on_c, 0, 70, 0
2, 168921, Note_on_c, 0, 70, 73
2, 169044, Note_on_c, 0, 72, 0
2, 169053, Note_on_c, 0, 72, 87
2, 169062, Note_on_c, 0, 82, 80
2, 169067, Note_on_c, 0, 82, 0
2, 169072, Control_c, 0, 64, 0
2, 169290, Control_c, 0, 64, 127
2, 169335, Note_on_c, 0, 74, 80
2, 169858, Note_on_c, 0, 72, 0
2, 169867, Note_on_c, 0, 72, 88
2, 169868, Note_on_c, 0, 69, 70
2, 169869, Note_on_c, 0, 65, 60
2, 169906, Control_c, 0, 64, 0
2, 169906, Note_on_c, 0, 74, 0
2, 169907, Note_on_c, 0, 63, 0
2, 169908, Note_on_c, 0, 70, 0
2, 169927, Note_on_c, 0, 67, 0
2, 170135, Note_on_c, 0, 72, 0
2, 170140, Note_on_c, 0, 72, 90
2, 170158, Control_c, 0, 64, 127
2, 170270, Note_on_c, 0, 70, 83
2, 170388, Note_on_c, 0, 72, 0
2, 170393, Note_on_c, 0, 72, 85
2, 170503, Note_on_c, 0, 70, 0
2, 170511, Note_on_c, 0, 70, 78
2, 170649, Note_on_c, 0, 72, 0
2, 170657, Note_on_c, 0, 69, 0
2, 170657, Note_on_c, 0, 72, 93
2, 170657, Control_c, 0, 64, 0
2, 170666, Note_on_c, 0, 69, 79
2, 170668, Note_on_c, 0, 93, 90
2, 170670, Note_on_c, 0, 66, 72
2, 170672, Note_on_c, 0, 93, 0
2, 170690, Note_on_c, 0, 65, 0
2, 170691, Note_on_c, 0, 70, 0
2, 170929, Note_on_c, 0, 74, 93
2, 170949, Note_on_c, 0, 72, 0
2, 171018, Control_c, 0, 64, 127
2, 171194, Note_on_c, 0, 77, 89
2, 171431, Note_on_c, 0, 66, 0
2, 171433, Note_on_c, 0, 77, 0
2, 171438, Control_c, 0, 64, 0
2, 171456, Note_on_c, 0, 69, 0
2, 171460, Note_on_c, 0, 79, 96
2, 171463, Note_on_c, 0, 74, 0
2, 171467, Note_on_c, 0, 74, 90
2, 171467, Note_on_c, 0, 67, 83
2, 171468, Note_on_c, 0, 70, 89
2, 171744, Note_on_c, 0, 82, 80
2, 171824, Control_c, 0, 64, 127
2, 172026, Note_on_c, 0, 91, 84
2, 172027, Note_on_c, 0, 86, 78
2, 172299, Note_on_c, 0, 81, 98
2, 172303, Note_on_c, 0, 77, 90
2, 172303, Note_on_c, 0, 69, 88
2, 172304, Note_on_c, 0, 72, 88
2, 172328, Control_c, 0, 64, 0
2, 172328, Note_on_c, 0, 91, 0
2, 172331, Note_on_c, 0, 74, 0
2, 172332, Note_on_c, 0, 86, 0
2, 172333, Note_on_c, 0, 67, 0
2, 172333, Note_on_c, 0, 79, 0
2, 172333, Note_on_c, 0, 70, 0
2, 172333, Note_on_c, 0, 82, 0
2, 172582, Note_on_c, 0, 84, 72
2, 172738, Control_c, 0, 64, 127
2, 172854, Note_on_c, 0, 93, 91
2, 172857, Note_on_c, 0, 89, 71
2, 173114, Note_on_c, 0, 82, 102
2, 173116, Note_on_c, 0, 70, 87
2, 173119, Note_on_c, 0, 69, 0
2, 173119, Note_on_c, 0, 72, 0
2, 173126, Note_on_c, 0, 93, 0
2, 173127, Note_on_c, 0, 84, 0
2, 173130, Control_c, 0, 64, 0
2, 173143, Note_on_c, 0, 81, 0
2, 173153, Note_on_c, 0, 77, 0
2, 173245, Note_on_c, 0, 89, 0
2, 173404, Note_on_c, 0, 77, 62
2, 173664, Note_on_c, 0, 96, 101
2, 173667, Note_on_c, 0, 82, 0
2, 173672, Note_on_c, 0, 82, 74
2, 173859, Control_c, 0, 64, 127
2, 173943, Note_on_c, 0, 94, 102
2, 173946, Note_on_c, 0, 84, 79
2, 173982, Control_c, 0, 64, 0
2, 174067, Control_c, 0, 64, 127
2, 174227, Note_on_c, 0, 93, 99
2, 174240, Note_on_c, 0, 86, 72
2, 174489, Note_on_c, 0, 77, 0
2, 174493, Note_on_c, 0, 89, 82
2, 174495, Note_on_c, 0, 77, 67
2, 174620, Note_on_c, 0, 86, 0
2, 174627, Note_on_c, 0, 86, 91
2, 174802, Note_on_c, 0, 75, 70
2, 174804, Note_on_c, 0, 89, 0
2, 174813, Note_on_c, 0, 89, 104
2, 174831, Control_c, 0, 64, 0
2, 174845, Note_on_c, 0, 94, 0
2, 174846, Note_on_c, 0, 70, 0
2, 174846, Note_on_c, 0, 93, 0
2, 174847, Note_on_c, 0, 84, 0
2, 174848, Note_on_c, 0, 82, 0
2, 174848, Note_on_c, 0, 86, 0
2, 174850, Note_on_c, 0, 96, 0
2, 174852, Note_on_c, 0, 77, 0
2, 175042, Control_c, 0, 64, 127
2, 175084, Note_on_c, 0, 81, 58
2, 175229, Note_on_c, 0, 91, 103
2, 175362, Note_on_c, 0, 82, 57
2, 175630, Note_on_c, 0, 86, 90
2, 175664, Note_on_c, 0, 89, 0
2, 175718, Control_c, 0, 64, 0
2, 175802, Control_c, 0, 64, 127
2, 175895, Note_on_c, 0, 81, 0
2, 175905, Note_on_c, 0, 81, 60
2, 175979, Note_on_c, 0, 75, 0
2, 176156, Note_on_c, 0, 82, 0
2, 176167, Note_on_c, 0, 82, 55
2, 176423, Note_on_c, 0, 84, 72
2, 176436, Note_on_c, 0, 77, 61
2, 176450, Note_on_c, 0, 86, 0
2, 176450, Note_on_c, 0, 81, 0
2, 176451, Note_on_c, 0, 82, 0
2, 176459, Control_c, 0, 64, 0
2, 176463, Note_on_c, 0, 91, 0
2, 176609, Control_c, 0, 64, 127
2, 176714, Note_on_c, 0, 81, 62
2, 176988, Note_on_c, 0, 96, 94
2, 176997, Note_on_c, 0, 82, 64
2, 177018, Note_on_c, 0, 86, 45
2, 177047, Control_c, 0, 64, 0
2, 177131, Control_c, 0, 64, 127
2, 177257, Note_on_c, 0, 94, 100
2, 177269, Note_on_c, 0, 84, 0
2, 177275, Note_on_c, 0, 84, 76
2, 177515, Note_on_c, 0, 81, 0
2, 177520, Note_on_c, 0, 93, 102
2, 177526, Note_on_c, 0, 81, 83
2, 177546, Note_on_c, 0, 77, 0
2, 177786, Note_on_c, 0, 89, 104
2, 177792, Note_on_c, 0, 82, 0
2, 177797, Note_on_c, 0, 82, 71
2, 177907, Note_on_c, 0, 86, 0
2, 177912, Note_on_c, 0, 86, 99
2, 177991, Control_c, 0, 64, 0
2, 178074, Note_on_c, 0, 78, 72
2, 178094, Note_on_c, 0, 98, 112
2, 178114, Note_on_c, 0, 94, 0
2, 178122, Note_on_c, 0, 90, 71
2, 178137, Note_on_c, 0, 93, 0
2, 178140, Note_on_c, 0, 82, 0
2, 178141, Note_on_c, 0, 81, 0
2, 178145, Note_on_c, 0, 84, 0
2, 178145, Note_on_c, 0, 96, 0
2, 178152, Note_on_c, 0, 89, 0
2, 178191, Control_c, 0, 64, 127
2, 178358, Note_on_c, 0, 81, 60
2, 178475, Note_on_c, 0, 90, 0
2, 178609, Note_on_c, 0, 99, 105
2, 178632, Note_on_c, 0, 84, 72
2, 178675, Note_on_c, 0, 86, 0
2, 178874, Note_on_c, 0, 98, 0
2, 178886, Note_on_c, 0, 98, 111
2, 178909, Note_on_c, 0, 86, 80
2, 178911, Note_on_c, 0, 90, 83
2, 178931, Control_c, 0, 64, 0
2, 178974, Control_c, 0, 64, 127
2, 179005, Note_on_c, 0, 99, 0
2, 179182, Note_on_c, 0, 81, 0
2, 179191, Note_on_c, 0, 81, 53
2, 179435, Note_on_c, 0, 84, 0
2, 179442, Note_on_c, 0, 96, 86
2, 179447, Note_on_c, 0, 84, 73
2, 179559, Note_on_c, 0, 94, 89
2, 179704, Note_on_c, 0, 94, 0
2, 179709, Note_on_c, 0, 94, 101
2, 179712, Note_on_c, 0, 86, 0
2, 179715, Note_on_c, 0, 79, 72
2, 179718, Note_on_c, 0, 91, 63
2, 179722, Note_on_c, 0, 86, 74
2, 179727, Note_on_c, 0, 91, 0
2, 179760, Control_c, 0, 64, 0
2, 179769, Note_on_c, 0, 84, 0
2, 179769, Note_on_c, 0, 81, 0
2, 179788, Note_on_c, 0, 78, 0
2, 179788, Note_on_c, 0, 90, 0
2, 179904, Control_c, 0, 64, 127
2, 179977, Note_on_c, 0, 81, 70
2, 180270, Note_on_c, 0, 82, 66
2, 180554, Note_on_c, 0, 77, 63
2, 180641, Note_on_c, 0, 79, 0
2, 180817, Note_on_c, 0, 81, 0
2, 180824, Note_on_c, 0, 89, 87
2, 180827, Note_on_c, 0, 81, 69
2, 180848, Note_on_c, 0, 96, 0
2, 181109, Note_on_c, 0, 82, 0
2, 181109, Note_on_c, 0, 86, 0
2, 181117, Note_on_c, 0, 86, 94
2, 181120, Note_on_c, 0, 82, 74
2, 181386, Note_on_c, 0, 84, 87
2, 181388, Note_on_c, 0, 72, 68
2, 181416, Note_on_c, 0, 94, 0
2, 181424, Note_on_c, 0, 98, 0
2, 181427, Note_on_c, 0, 86, 0
2, 181434, Note_on_c, 0, 77, 0
2, 181464, Control_c, 0, 64, 0
2, 181539, Note_on_c, 0, 89, 0
2, 181632, Control_c, 0, 64, 127
2, 181665, Note_on_c, 0, 74, 63
2, 181685, Note_on_c, 0, 81, 0
2, 181959, Note_on_c, 0, 75, 57
2, 182241, Note_on_c, 0, 79, 68
2, 182400, Note_on_c, 0, 82, 0
2, 182524, Note_on_c, 0, 82, 83
2, 182791, Note_on_c, 0, 84, 0
2, 182799, Note_on_c, 0, 84, 96
2, 183091, Note_on_c, 0, 74, 0
2, 183095, Note_on_c, 0, 74, 78
2, 183104, Note_on_c, 0, 86, 94
2, 183179, Control_c, 0, 64, 0
2, 183179, Note_on_c, 0, 72, 0
2, 183179, Note_on_c, 0, 79, 0
2, 183180, Note_on_c, 0, 75, 0
2, 183180, Note_on_c, 0, 82, 0
2, 183344, Control_c, 0, 64, 127
2, 183374, Note_on_c, 0, 77, 61
2, 183687, Note_on_c, 0, 79, 58
2, 183966, Note_on_c, 0, 84, 0
2, 183974, Note_on_c, 0, 84, 88
2, 183974, Note_on_c, 0, 81, 76
2, 184046, Control_c, 0, 64, 0
2, 184158, Control_c, 0, 64, 127
2, 184258, Note_on_c, 0, 86, 0
2, 184267, Note_on_c, 0, 86, 100
2, 184343, Control_c, 0, 64, 0
2, 184427, Control_c, 0, 64, 127
2, 184564, Note_on_c, 0, 89, 99
2, 184734, Note_on_c, 0, 84, 0
2, 184741, Note_on_c, 0, 84, 72
2, 184803, Note_on_c, 0, 86, 0
2, 184815, Note_on_c, 0, 86, 75
2, 184849, Note_on_c, 0, 89, 0
2, 184854, Note_on_c, 0, 89, 74
2, 184875, Note_on_c, 0, 75, 72
2, 184907, Note_on_c, 0, 93, 102
2, 185180, Note_on_c, 0, 77, 0
2, 185189, Note_on_c, 0, 77, 63
2, 185495, Note_on_c, 0, 81, 0
2, 185504, Note_on_c, 0, 81, 70
2, 185805, Note_on_c, 0, 82, 79
2, 186132, Note_on_c, 0, 84, 0
2, 186138, Note_on_c, 0, 84, 75
2, 186240, Note_on_c, 0, 74, 0
2, 186240, Note_on_c, 0, 79, 0
2, 186493, Note_on_c, 0, 86, 0
2, 186501, Note_on_c, 0, 86, 72
2, 186808, Note_on_c, 0, 77, 0
2, 186819, Note_on_c, 0, 77, 47
2, 186839, Note_on_c, 0, 81, 0
2, 186845, Note_on_c, 0, 81, 49
2, 186862, Note_on_c, 0, 93, 0
2, 186877, Note_on_c, 0, 84, 0
2, 186885, Note_on_c, 0, 84, 62
2, 186904, Control_c, 0, 64, 0
2, 186915, Note_on_c, 0, 82, 0
2, 186915, Note_on_c, 0, 86, 0
2, 186938, Note_on_c, 0, 75, 0
2, 187092, Note_on_c, 0, 89, 0
2, 187527, Note_on_c, 0, 96, 84
2, 187622, Control_c, 0, 64, 127
2, 187863, Note_on_c, 0, 94, 97
2, 188213, Note_on_c, 0, 93, 89
2, 188559, Note_on_c, 0, 89, 78
2, 188725, Note_on_c, 0, 86, 76
2, 188943, Note_on_c, 0, 89, 0
2, 188954, Note_on_c, 0, 89, 75
2, 189474, Note_on_c, 0, 91, 66
2, 190080, Note_on_c, 0, 77, 0
2, 190080, Note_on_c, 0, 81, 0
2, 190080, Note_on_c, 0, 84, 0
2, 190080, Note_on_c, 0, 94, 0
2, 190080, Note_on_c, 0, 96, 0
2, 190310, Control_c, 0, 64, 0
2, 190740, Note_on_c, 0, 86, 0
2, 190832, Note_on_c, 0, 91, 0
2, 190855, Note_on_c, 0, 93, 0
2, 190863, Note_on_c, 0, 89, 0
2, 191646, Control_c, 0, 64, 127
2, 191675, Note_on_c, 0, 103, 107
2, 191704, Note_on_c, 0, 101, 103
2, 191721, Note_on_c, 0, 100, 106
2, 191741, Note_on_c, 0, 98, 105
2, 191760, Note_on_c, 0, 96, 100
2, 191766, Note_on_c, 0, 95, 89
2, 191774, Note_on_c, 0, 93, 104
2, 191787, Note_on_c, 0, 91, 99
2, 191790, Note_on_c, 0, 89, 96
2, 191810, Note_on_c, 0, 88, 97
2, 191816, Note_on_c, 0, 86, 96
2, 191832, Note_on_c, 0, 84, 90
2, 191848, Note_on_c, 0, 83, 95
2, 191853, Note_on_c, 0, 81, 98
2, 191854, Note_on_c, 0, 79, 103
2, 191865, Note_on_c, 0, 77, 92
2, 191871, Note_on_c, 0, 76, 94
2, 191895, Note_on_c, 0, 74, 98
2, 191896, Note_on_c, 0, 72, 98
2, 191903, Note_on_c, 0, 71, 87
2, 191925, Note_on_c, 0, 69, 84
2, 191966, Note_on_c, 0, 64, 89
2, 191966, Note_on_c, 0, 65, 85
2, 191972, Note_on_c, 0, 67, 81
2, 191995, Note_on_c, 0, 60, 82
2, 192000, Note_on_c, 0, 62, 70
2, 192026, Note_on_c, 0, 59, 87
2, 192033, Note_on_c, 0, 57, 96
2, 192041, Note_on_c, 0, 55, 87
2, 192055, Note_on_c, 0, 53, 85
2, 192064, Note_on_c, 0, 50, 80
2, 192090, Note_on_c, 0, 47, 93
2, 192092, Note_on_c, 0, 59, 0
2, 192096, Note_on_c, 0, 59, 82
2, 192107, Note_on_c, 0, 35, 72
2, 192124, Note_on_c, 0, 41, 95
2, 192130, Note_on_c, 0, 60, 0
2, 192136, Note_on_c, 0, 60, 82
2, 192149, Note_on_c, 0, 33, 74
2, 192338, Note_on_c, 0, 41, 0
2, 192338, Note_on_c, 0, 69, 0
2, 192338, Note_on_c, 0, 86, 0
2, 192338, Note_on_c, 0, 74, 0
2, 192339, Note_on_c, 0, 81, 0
2, 192339, Note_on_c, 0, 53, 0
2, 192339, Note_on_c, 0, 71, 0
2, 192339, Note_on_c, 0, 33, 0
2, 192339, Note_on_c, 0, 101, 0
2, 192339, Control_c, 0, 64, 0
2, 192339, Note_on_c, 0, 77, 0
2, 192339, Note_on_c, 0, 35, 0
2, 192339, Note_on_c, 0, 57, 0
2, 192339, Note_on_c, 0, 76, 0
2, 192339, Note_on_c, 0, 60, 0
2, 192339, Note_on_c, 0, 55, 0
2, 192340, Note_on_c, 0, 67, 0
2, 192340, Note_on_c, 0, 84, 0
2, 192340, Note_on_c, 0, 93, 0
2, 192340, Note_on_c, 0, 64, 0
2, 192340, Note_on_c, 0, 62, 0
2, 192340, Note_on_c, 0, 59, 0
2, 192340, Note_on_c, 0, 88, 0
2, 192340, Note_on_c, 0, 47, 0
2, 192340, Note_on_c, 0, 83, 0
2, 192340, Note_on_c, 0, 50, 0
2, 192340, Note_on_c, 0, 65, 0
2, 192340, Note_on_c, 0, 89, 0
2, 192340, Note_on_c, 0, 79, 0
2, 192340, Note_on_c, 0, 72, 0
2, 192340, Note_on_c, 0, 98, 0
2, 192341, Note_on_c, 0, 91, 0
2, 192341, Note_on_c, 0, 95, 0
2, 192341, Note_on_c, 0, 100, 0
2, 192341, Note_on_c, 0, 96, 0
2, 192345, Note_on_c, 0, 103, 0
2, 192405, Note_on_c, 0, 70, 108
2, 192405, Note_on_c, 0, 58, 111
2, 192407, Note_on_c, 0, 62, 97
2, 192409, Note_on_c, 0, 39, 100
2, 192411, Note_on_c, 0, 27, 97
2, 192445, Control_c, 0, 64, 127
2, 192653, Note_on_c, 0, 72, 108
2, 192655, Note_on_c, 0, 60, 105
2, 192760, Note_on_c, 0, 58, 0
2, 192768, Note_on_c, 0, 58, 95
2, 192770, Note_on_c, 0, 55, 97
2, 192773, Note_on_c, 0, 67, 84
2, 192906, Note_on_c, 0, 62, 0
2, 192912, Note_on_c, 0, 74, 110
2, 192914, Note_on_c, 0, 62, 105
2, 193025, Note_on_c, 0, 51, 89
2, 193159, Note_on_c, 0, 55, 0
2, 193159, Note_on_c, 0, 58, 0
2, 193159, Note_on_c, 0, 62, 0
2, 193164, Note_on_c, 0, 55, 95
2, 193164, Note_on_c, 0, 62, 102
2, 193165, Note_on_c, 0, 58, 105
2, 193166, Note_on_c, 0, 77, 105
2, 193167, Note_on_c, 0, 67, 0
2, 193167, Note_on_c, 0, 70, 0
2, 193167, Note_on_c, 0, 74, 0
2, 193171, Note_on_c, 0, 65, 106
2, 193172, Note_on_c, 0, 67, 95
2, 193172, Note_on_c, 0, 70, 97
2, 193175, Note_on_c, 0, 74, 99
2, 193413, Note_on_c, 0, 27, 0
2, 193413, Note_on_c, 0, 39, 0
2, 193418, Note_on_c, 0, 39, 91
2, 193423, Note_on_c, 0, 27, 88
2, 193651, Note_on_c, 0, 62, 0
2, 193651, Note_on_c, 0, 74, 0
2, 193655, Note_on_c, 0, 46, 99
2, 193658, Note_on_c, 0, 74, 104
2, 193661, Note_on_c, 0, 62, 98
2, 193781, Note_on_c, 0, 72, 0
2, 193789, Note_on_c, 0, 60, 0
2, 193792, Note_on_c, 0, 72, 106
2, 193794, Note_on_c, 0, 60, 99
2, 193900, Control_c, 0, 64, 0
2, 193900, Note_on_c, 0, 39, 0
2, 193901, Note_on_c, 0, 51, 0
2, 193901, Note_on_c, 0, 60, 0
2, 193901, Note_on_c, 0, 62, 0
2, 193902, Note_on_c, 0, 67, 0
2, 193902, Note_on_c, 0, 55, 0
2, 193902, Note_on_c, 0, 65, 0
2, 193902, Note_on_c, 0, 77, 0
2, 193904, Note_on_c, 0, 46, 0
2, 193906, Note_on_c, 0, 74, 0
2, 193912, Note_on_c, 0, 27, 0
2, 193912, Note_on_c, 0, 70, 0
2, 193918, Note_on_c, 0, 29, 100
2, 193920, Note_on_c, 0, 58, 0
2, 193920, Note_on_c, 0, 72, 0
2, 193920, Note_on_c, 0, 41, 104
2, 193923, Note_on_c, 0, 70, 105
2, 193924, Note_on_c, 0, 58, 107
2, 194004, Control_c, 0, 64, 127
2, 194280, Note_on_c, 0, 58, 0
2, 194285, Note_on_c, 0, 60, 100
2, 194285, Note_on_c, 0, 58, 100
2, 194560, Note_on_c, 0, 53, 96
2, 194664, Note_on_c, 0, 58, 0
2, 194664, Note_on_c, 0, 60, 0
2, 194670, Note_on_c, 0, 60, 105
2, 194675, Note_on_c, 0, 58, 105
2, 194676, Note_on_c, 0, 74, 111
2, 194676, Note_on_c, 0, 70, 0
2, 194677, Note_on_c, 0, 65, 103
2, 194932, Note_on_c, 0, 77, 105
2, 195164, Note_on_c, 0, 29, 0
2, 195164, Note_on_c, 0, 41, 0
2, 195169, Note_on_c, 0, 41, 104
2, 195175, Note_on_c, 0, 29, 92
2, 195179, Note_on_c, 0, 74, 0
2, 195183, Note_on_c, 0, 86, 106
2, 195186, Note_on_c, 0, 74, 106
2, 195214, Note_on_c, 0, 84, 52
2, 195356, Note_on_c, 0, 77, 0
2, 195357, Note_on_c, 0, 58, 0
2, 195358, Note_on_c, 0, 74, 0
2, 195358, Note_on_c, 0, 65, 0
2, 195358, Note_on_c, 0, 86, 0
2, 195358, Note_on_c, 0, 60, 0
2, 195358, Note_on_c, 0, 53, 0
2, 195359, Note_on_c, 0, 41, 0
2, 195359, Control_c, 0, 64, 0
2, 195371, Note_on_c, 0, 84, 0
2, 195379, Note_on_c, 0, 29, 0
2, 195426, Note_on_c, 0, 84, 109
2, 195427, Note_on_c, 0, 43, 106
2, 195429, Note_on_c, 0, 31, 97
2, 195429, Note_on_c, 0, 77, 93
2, 195430, Note_on_c, 0, 72, 107
2, 195435, Note_on_c, 0, 82, 98
2, 195486, Control_c, 0, 64, 127
2, 195663, Note_on_c, 0, 84, 0
2, 195671, Note_on_c, 0, 77, 0
2, 195674, Note_on_c, 0, 84, 92
2, 195676, Note_on_c, 0, 77, 92
2, 195676, Note_on_c, 0, 81, 92
2, 195793, Note_on_c, 0, 82, 0
2, 195805, Note_on_c, 0, 82, 101
2, 195834, Note_on_c, 0, 62, 83
2, 195836, Note_on_c, 0, 58, 92
2, 195932, Note_on_c, 0, 84, 0
2, 195939, Note_on_c, 0, 77, 0
2, 195939, Note_on_c, 0, 81, 0
2, 195943, Note_on_c, 0, 84, 96
2, 195944, Note_on_c, 0, 77, 87
2, 195944, Note_on_c, 0, 81, 96
2, 196047, Note_on_c, 0, 82, 0
2, 196055, Note_on_c, 0, 82, 100
2, 196078, Note_on_c, 0, 55, 97
2, 196185, Note_on_c, 0, 58, 0
2, 196185, Note_on_c, 0, 62, 0
2, 196185, Note_on_c, 0, 77, 0
2, 196185, Note_on_c, 0, 81, 0
2, 196185, Note_on_c, 0, 84, 0
2, 196189, Note_on_c, 0, 81, 103
2, 196191, Note_on_c, 0, 62, 100
2, 196191, Note_on_c, 0, 77, 98
2, 196193, Note_on_c, 0, 65, 107
2, 196194, Note_on_c, 0, 84, 103
2, 196195, Note_on_c, 0, 58, 100
2, 196308, Note_on_c, 0, 82, 0
2, 196318, Note_on_c, 0, 82, 98
2, 196446, Note_on_c, 0, 77, 0
2, 196446, Note_on_c, 0, 81, 0
2, 196446, Note_on_c, 0, 84, 0
2, 196452, Note_on_c, 0, 81, 98
2, 196454, Note_on_c, 0, 84, 97
2, 196456, Note_on_c, 0, 77, 88
2, 196561, Note_on_c, 0, 82, 0
2, 196566, Note_on_c, 0, 82, 102
2, 196669, Note_on_c, 0, 55, 0
2, 196677, Note_on_c, 0, 43, 0
2, 196680, Note_on_c, 0, 55, 101
2, 196688, Note_on_c, 0, 43, 99
2, 196692, Note_on_c, 0, 77, 0
2, 196692, Note_on_c, 0, 81, 0
2, 196692, Note_on_c, 0, 84, 0
2, 196698, Note_on_c, 0, 81, 96
2, 196698, Note_on_c, 0, 84, 96
2, 196699, Note_on_c, 0, 77, 90
2, 196807, Note_on_c, 0, 82, 0
2, 196818, Note_on_c, 0, 82, 104
2, 196945, Note_on_c, 0, 43, 0
2, 196945, Note_on_c, 0, 77, 0
2, 196945, Note_on_c, 0, 81, 0
2, 196945, Note_on_c, 0, 84, 0
2, 196951, Note_on_c, 0, 84, 111
2, 196952, Note_on_c, 0, 81, 105
2, 196953, Note_on_c, 0, 31, 0
2, 196956, Note_on_c, 0, 43, 109
2, 196957, Note_on_c, 0, 77, 103
2, 196957, Note_on_c, 0, 31, 100
2, 197145, Note_on_c, 0, 55, 0
2, 197156, Note_on_c, 0, 55, 91
2, 197181, Note_on_c, 0, 57, 93
2, 197214, Note_on_c, 0, 58, 0
2, 197219, Note_on_c, 0, 58, 83
2, 197237, Note_on_c, 0, 62, 0
2, 197244, Note_on_c, 0, 62, 87
2, 197268, Note_on_c, 0, 65, 0
2, 197279, Note_on_c, 0, 65, 99
2, 197291, Note_on_c, 0, 72, 0
2, 197298, Note_on_c, 0, 72, 96
2, 197337, Note_on_c, 0, 77, 0
2, 197346, Note_on_c, 0, 77, 90
2, 197376, Note_on_c, 0, 81, 0
2, 197383, Note_on_c, 0, 81, 87
2, 197414, Note_on_c, 0, 82, 0
2, 197423, Note_on_c, 0, 82, 100
2, 197460, Note_on_c, 0, 84, 0
2, 197467, Note_on_c, 0, 84, 93
2, 197510, Note_on_c, 0, 89, 104
2, 197557, Note_on_c, 0, 94, 103
2, 197612, Note_on_c, 0, 96, 108
2, 197692, Note_on_c, 0, 77, 0
2, 197693, Control_c, 0, 64, 0
2, 197694, Note_on_c, 0, 58, 0
2, 197694, Note_on_c, 0, 57, 0
2, 197694, Note_on_c, 0, 81, 0
2, 197694, Note_on_c, 0, 31, 0
2, 197694, Note_on_c, 0, 72, 0
2, 197694, Note_on_c, 0, 96, 0
2, 197694, Note_on_c, 0, 89, 0
2, 197706, Note_on_c, 0, 55, 0
2, 197706, Note_on_c, 0, 62, 0
2, 197713, Note_on_c, 0, 41, 108
2, 197713, Note_on_c, 0, 43, 0
2, 197713, Note_on_c, 0, 65, 0
2, 197713, Note_on_c, 0, 82, 0
2, 197713, Note_on_c, 0, 84, 0
2, 197713, Note_on_c, 0, 94, 0
2, 197714, Note_on_c, 0, 29, 98
2, 197720, Note_on_c, 0, 82, 110
2, 197721, Note_on_c, 0, 94, 114
2, 197760, Control_c, 0, 64, 127
2, 197937, Note_on_c, 0, 65, 101
2, 197954, Note_on_c, 0, 60, 86
2, 197980, Note_on_c, 0, 89, 111
2, 197982, Note_on_c, 0, 101, 115
2, 197985, Note_on_c, 0, 93, 86
2, 197990, Note_on_c, 0, 93, 0
2, 198016, Note_on_c, 0, 57, 85
2, 198073, Note_on_c, 0, 53, 101
2, 198139, Note_on_c, 0, 48, 94
2, 198182, Note_on_c, 0, 41, 0
2, 198188, Note_on_c, 0, 41, 98
2, 198320, Note_on_c, 0, 82, 0
2, 198320, Note_on_c, 0, 94, 0
2, 198329, Note_on_c, 0, 82, 111
2, 198330, Note_on_c, 0, 94, 111
2, 198428, Note_on_c, 0, 29, 0
2, 198440, Note_on_c, 0, 65, 0
2, 198440, Note_on_c, 0, 89, 0
2, 198440, Note_on_c, 0, 57, 0
2, 198441, Note_on_c, 0, 53, 0
2, 198441, Note_on_c, 0, 41, 0
2, 198442, Note_on_c, 0, 60, 0
2, 198445, Control_c, 0, 64, 0
2, 198451, Note_on_c, 0, 48, 0
2, 198451, Note_on_c, 0, 82, 0
2, 198451, Note_on_c, 0, 101, 0
2, 198458, Note_on_c, 0, 46, 107
2, 198461, Note_on_c, 0, 39, 106
2, 198465, Note_on_c, 0, 51, 105
2, 198466, Note_on_c, 0, 94, 0
2, 198469, Note_on_c, 0, 81, 108
2, 198470, Note_on_c, 0, 86, 104
2, 198512, Control_c, 0, 64, 127
2, 198555, Note_on_c, 0, 93, 87
2, 198597, Note_on_c, 0, 81, 0
2, 198597, Note_on_c, 0, 86, 0
2, 198602, Note_on_c, 0, 86, 93
2, 198604, Note_on_c, 0, 81, 96
2, 198658, Note_on_c, 0, 93, 0
2, 198666, Note_on_c, 0, 93, 101
2, 198727, Note_on_c, 0, 81, 0
2, 198727, Note_on_c, 0, 86, 0
2, 198732, Note_on_c, 0, 81, 97
2, 198732, Note_on_c, 0, 86, 90
2, 198781, Note_on_c, 0, 93, 0
2, 198788, Note_on_c, 0, 93, 100
2, 198842, Note_on_c, 0, 81, 0
2, 198842, Note_on_c, 0, 86, 0
2, 198846, Note_on_c, 0, 55, 88
2, 198851, Note_on_c, 0, 86, 97
2, 198853, Note_on_c, 0, 81, 97
2, 198896, Note_on_c, 0, 93, 0
2, 198901, Note_on_c, 0, 93, 94
2, 198973, Note_on_c, 0, 81, 0
2, 198973, Note_on_c, 0, 86, 0
2, 198979, Note_on_c, 0, 57, 94
2, 198980, Note_on_c, 0, 86, 92
2, 198980, Note_on_c, 0, 81, 98
2, 199019, Note_on_c, 0, 93, 0
2, 199026, Note_on_c, 0, 93, 84
2, 199080, Note_on_c, 0, 58, 99
2, 199080, Note_on_c, 0, 81, 0
2, 199080, Note_on_c, 0, 86, 0
2, 199087, Note_on_c, 0, 86, 98
2, 199092, Note_on_c, 0, 81, 96
2, 199203, Note_on_c, 0, 62, 103
2, 199203, Note_on_c, 0, 81, 0
2, 199203, Note_on_c, 0, 86, 0
2, 199207, Note_on_c, 0, 86, 102
2, 199208, Note_on_c, 0, 81, 103
2, 199211, Note_on_c, 0, 51, 0
2, 199221, Note_on_c, 0, 51, 91
2, 199257, Note_on_c, 0, 93, 0
2, 199268, Note_on_c, 0, 93, 93
2, 199326, Note_on_c, 0, 58, 0
2, 199334, Note_on_c, 0, 62, 0
2, 199334, Note_on_c, 0, 81, 0
2, 199334, Note_on_c, 0, 86, 0
2, 199337, Note_on_c, 0, 58, 93
2, 199338, Note_on_c, 0, 86, 92
2, 199341, Note_on_c, 0, 81, 91
2, 199344, Note_on_c, 0, 62, 85
2, 199395, Note_on_c, 0, 93, 0
2, 199406, Note_on_c, 0, 93, 87
2, 199441, Note_on_c, 0, 62, 0
2, 199441, Note_on_c, 0, 86, 0
2, 199449, Note_on_c, 0, 81, 0
2, 199452, Note_on_c, 0, 62, 95
2, 199452, Note_on_c, 0, 86, 103
2, 199453, Note_on_c, 0, 81, 98
2, 199503, Note_on_c, 0, 93, 0
2, 199509, Note_on_c, 0, 93, 85
2, 199564, Note_on_c, 0, 86, 0
2, 199572, Note_on_c, 0, 81, 0
2, 199573, Note_on_c, 0, 63, 103
2, 199576, Note_on_c, 0, 86, 95
2, 199576, Note_on_c, 0, 81, 95
2, 199626, Note_on_c, 0, 93, 0
2, 199635, Note_on_c, 0, 93, 100
2, 199687, Note_on_c, 0, 86, 0
2, 199695, Note_on_c, 0, 65, 101
2, 199695, Note_on_c, 0, 81, 0
2, 199698, Note_on_c, 0, 86, 102
2, 199699, Note_on_c, 0, 81, 95
2, 199756, Note_on_c, 0, 93, 0
2, 199767, Note_on_c, 0, 93, 97
2, 199798, Note_on_c, 0, 67, 94
2, 199818, Note_on_c, 0, 81, 0
2, 199818, Note_on_c, 0, 86, 0
2, 199822, Note_on_c, 0, 81, 98
2, 199823, Note_on_c, 0, 86, 97
2, 199872, Note_on_c, 0, 93, 0
2, 199881, Note_on_c, 0, 93, 78
2, 199918, Note_on_c, 0, 39, 0
2, 199925, Control_c, 0, 64, 0
2, 199927, Note_on_c, 0, 51, 0
2, 199927, Note_on_c, 0, 55, 0
2, 199927, Note_on_c, 0, 81, 0
2, 199928, Note_on_c, 0, 93, 0
2, 199928, Note_on_c, 0, 57, 0
2, 199928, Note_on_c, 0, 67, 0
2, 199928, Note_on_c, 0, 65, 0
2, 199928, Note_on_c, 0, 63, 0
2, 199928, Note_on_c, 0, 62, 0
2, 199929, Note_on_c, 0, 46, 0
2, 199946, Note_on_c, 0, 41, 106
2, 199948, Note_on_c, 0, 58, 0
2, 199948, Note_on_c, 0, 86, 0
2, 199952, Note_on_c, 0, 48, 103
2, 199957, Note_on_c, 0, 82, 108
2, 199958, Note_on_c, 0, 53, 106
2, 199959, Note_on_c, 0, 86, 100
2, 199994, Control_c, 0, 64, 127
2, 200023, Note_on_c, 0, 94, 101
2, 200071, Note_on_c, 0, 86, 0
2, 200082, Note_on_c, 0, 86, 98
2, 200148, Note_on_c, 0, 94, 0
2, 200152, Note_on_c, 0, 94, 101
2, 200202, Note_on_c, 0, 82, 0
2, 200202, Note_on_c, 0, 86, 0
2, 200206, Note_on_c, 0, 57, 103
2, 200208, Note_on_c, 0, 82, 102
2, 200209, Note_on_c, 0, 86, 97
2, 200256, Note_on_c, 0, 94, 0
2, 200265, Note_on_c, 0, 94, 102
2, 200325, Note_on_c, 0, 82, 0
2, 200326, Note_on_c, 0, 58, 105
2, 200328, Note_on_c, 0, 82, 93
2, 200332, Note_on_c, 0, 86, 0
2, 200336, Note_on_c, 0, 86, 96
2, 200378, Note_on_c, 0, 94, 0
2, 200390, Note_on_c, 0, 94, 100
2, 200436, Note_on_c, 0, 60, 103
2, 200440, Note_on_c, 0, 86, 0
2, 200450, Note_on_c, 0, 86, 85
2, 200501, Note_on_c, 0, 94, 0
2, 200505, Note_on_c, 0, 94, 94
2, 200555, Note_on_c, 0, 82, 0
2, 200555, Note_on_c, 0, 86, 0
2, 200559, Note_on_c, 0, 82, 102
2, 200561, Note_on_c, 0, 65, 97
2, 200564, Note_on_c, 0, 86, 95
2, 200609, Note_on_c, 0, 94, 0
2, 200614, Note_on_c, 0, 94, 96
2, 200674, Control_c, 0, 64, 0
2, 200678, Note_on_c, 0, 53, 0
2, 200681, Note_on_c, 0, 94, 0
2, 200681, Note_on_c, 0, 48, 0
2, 200682, Note_on_c, 0, 82, 0
2, 200682, Note_on_c, 0, 86, 0
2, 200683, Note_on_c, 0, 58, 0
2, 200684, Note_on_c, 0, 41, 0
2, 200684, Note_on_c, 0, 65, 0
2, 200688, Note_on_c, 0, 60, 0
2, 200688, Note_on_c, 0, 57, 0
2, 200696, Note_on_c, 0, 42, 110
2, 200697, Note_on_c, 0, 84, 105
2, 200701, Note_on_c, 0, 50, 95
2, 200701, Note_on_c, 0, 90, 110
2, 200747, Control_c, 0, 64, 127
2, 200772, Note_on_c, 0, 96, 101
2, 200808, Note_on_c, 0, 84, 0
2, 200808, Note_on_c, 0, 90, 0
2, 200815, Note_on_c, 0, 90, 99
2, 200819, Note_on_c, 0, 84, 94
2, 200885, Note_on_c, 0, 96, 0
2, 200890, Note_on_c, 0, 96, 97
2, 200931, Note_on_c, 0, 90, 0
2, 200937, Note_on_c, 0, 90, 106
2, 200943, Note_on_c, 0, 60, 99
2, 200947, Note_on_c, 0, 84, 0
2, 200952, Note_on_c, 0, 84, 99
2, 200993, Note_on_c, 0, 96, 0
2, 200999, Note_on_c, 0, 96, 103
2, 201047, Note_on_c, 0, 90, 0
2, 201054, Note_on_c, 0, 84, 0
2, 201057, Note_on_c, 0, 90, 104
2, 201058, Note_on_c, 0, 62, 102
2, 201059, Note_on_c, 0, 84, 96
2, 201123, Note_on_c, 0, 96, 0
2, 201132, Note_on_c, 0, 96, 98
2, 201177, Note_on_c, 0, 84, 0
2, 201177, Note_on_c, 0, 90, 0
2, 201181, Note_on_c, 0, 84, 95
2, 201181, Note_on_c, 0, 90, 102
2, 201181, Note_on_c, 0, 66, 105
2, 201239, Note_on_c, 0, 96, 0
2, 201249, Note_on_c, 0, 96, 94
2, 201285, Note_on_c, 0, 84, 0
2, 201285, Note_on_c, 0, 90, 0
2, 201290, Note_on_c, 0, 90, 93
2, 201295, Note_on_c, 0, 69, 104
2, 201295, Note_on_c, 0, 84, 96
2, 201354, Note_on_c, 0, 96, 0
2, 201365, Note_on_c, 0, 96, 100
2, 201413, Note_on_c, 0, 50, 0
2, 201417, Note_on_c, 0, 66, 0
2, 201417, Note_on_c, 0, 42, 0
2, 201417, Note_on_c, 0, 84, 0
2, 201418, Note_on_c, 0, 90, 0
2, 201418, Note_on_c, 0, 60, 0
2, 201418, Note_on_c, 0, 69, 0
2, 201418, Note_on_c, 0, 62, 0
2, 201420, Control_c, 0, 64, 0
2, 201433, Note_on_c, 0, 91, 110
2, 201434, Note_on_c, 0, 86, 110
2, 201436, Note_on_c, 0, 43, 110
2, 201437, Note_on_c, 0, 31, 103
2, 201500, Control_c, 0, 64, 127
2, 201503, Note_on_c, 0, 98, 114
2, 201546, Note_on_c, 0, 86, 0
2, 201546, Note_on_c, 0, 91, 0
2, 201551, Note_on_c, 0, 91, 94
2, 201552, Note_on_c, 0, 86, 98
2, 201615, Note_on_c, 0, 98, 0
2, 201623, Note_on_c, 0, 96, 0
2, 201626, Note_on_c, 0, 98, 97
2, 201627, Note_on_c, 0, 96, 63
2, 201684, Note_on_c, 0, 91, 0
2, 201684, Note_on_c, 0, 96, 0
2, 201689, Note_on_c, 0, 58, 95
2, 201689, Note_on_c, 0, 84, 104
2, 201689, Note_on_c, 0, 96, 93
2, 201690, Note_on_c, 0, 91, 100
2, 201694, Note_on_c, 0, 62, 95
2, 201745, Note_on_c, 0, 96, 0
2, 201756, Note_on_c, 0, 96, 104
2, 201799, Note_on_c, 0, 84, 0
2, 201807, Note_on_c, 0, 91, 0
2, 201810, Note_on_c, 0, 84, 97
2, 201817, Note_on_c, 0, 91, 93
2, 201818, Note_on_c, 0, 67, 92
2, 201819, Note_on_c, 0, 55, 100
2, 201861, Note_on_c, 0, 91, 0
2, 201866, Note_on_c, 0, 91, 63
2, 201930, Note_on_c, 0, 67, 0
2, 201937, Note_on_c, 0, 58, 0
2, 201937, Note_on_c, 0, 62, 0
2, 201937, Note_on_c, 0, 86, 0
2, 201939, Note_on_c, 0, 67, 102
2, 201941, Note_on_c, 0, 82, 108
2, 201942, Note_on_c, 0, 58, 103
2, 201942, Note_on_c, 0, 62, 95
2, 201943, Note_on_c, 0, 86, 80
2, 202010, Note_on_c, 0, 94, 95
2, 202053, Note_on_c, 0, 82, 0
2, 202063, Note_on_c, 0, 82, 101
2, 202122, Note_on_c, 0, 94, 0
2, 202131, Note_on_c, 0, 94, 81
2, 202135, Note_on_c, 0, 98, 0
2, 202136, Note_on_c, 0, 86, 0
2, 202137, Note_on_c, 0, 91, 0
2, 202138, Note_on_c, 0, 84, 0
2, 202139, Note_on_c, 0, 62, 0
2, 202139, Note_on_c, 0, 58, 0
2, 202139, Note_on_c, 0, 96, 0
2, 202140, Note_on_c, 0, 67, 0
2, 202140, Note_on_c, 0, 55, 0
2, 202140, Note_on_c, 0, 43, 0
2, 202140, Note_on_c, 0, 82, 0
2, 202143, Control_c, 0, 64, 0
2, 202145, Note_on_c, 0, 31, 0
2, 202183, Note_on_c, 0, 94, 0
2, 202196, Note_on_c, 0, 81, 107
2, 202197, Note_on_c, 0, 45, 108
2, 202197, Note_on_c, 0, 33, 99
2, 202198, Note_on_c, 0, 86, 105
2, 202199, Note_on_c, 0, 93, 102
2, 202222, Control_c, 0, 64, 127
2, 202268, Note_on_c, 0, 93, 0
2, 202274, Note_on_c, 0, 93, 99
2, 202314, Note_on_c, 0, 81, 0
2, 202314, Note_on_c, 0, 86, 0
2, 202320, Note_on_c, 0, 81, 100
2, 202322, Note_on_c, 0, 86, 100
2, 202375, Note_on_c, 0, 93, 0
2, 202381, Note_on_c, 0, 93, 99
2, 202437, Note_on_c, 0, 86, 0
2, 202438, Note_on_c, 0, 60, 102
2, 202438, Note_on_c, 0, 65, 103
2, 202443, Note_on_c, 0, 86, 98
2, 202447, Note_on_c, 0, 82, 107
2, 202513, Note_on_c, 0, 94, 102
2, 202560, Note_on_c, 0, 82, 0
2, 202560, Note_on_c, 0, 86, 0
2, 202564, Note_on_c, 0, 82, 89
2, 202569, Note_on_c, 0, 86, 88
2, 202578, Note_on_c, 0, 57, 102
2, 202629, Note_on_c, 0, 94, 0
2, 202633, Note_on_c, 0, 94, 91
2, 202690, Note_on_c, 0, 57, 0
2, 202690, Note_on_c, 0, 60, 0
2, 202690, Note_on_c, 0, 65, 0
2, 202692, Note_on_c, 0, 69, 108
2, 202695, Note_on_c, 0, 65, 105
2, 202696, Note_on_c, 0, 60, 98
2, 202699, Note_on_c, 0, 57, 95
2, 202702, Note_on_c, 0, 77, 102
2, 202706, Note_on_c, 0, 89, 87
2, 202759, Note_on_c, 0, 89, 0
2, 202767, Note_on_c, 0, 89, 96
2, 202813, Note_on_c, 0, 77, 0
2, 202824, Note_on_c, 0, 77, 96
2, 202874, Note_on_c, 0, 89, 0
2, 202879, Note_on_c, 0, 89, 79
2, 202880, Note_on_c, 0, 33, 0
2, 202882, Note_on_c, 0, 94, 0
2, 202884, Note_on_c, 0, 69, 0
2, 202884, Note_on_c, 0, 86, 0
2, 202884, Note_on_c, 0, 82, 0
2, 202884, Note_on_c, 0, 77, 0
2, 202884, Note_on_c, 0, 65, 0
2, 202884, Note_on_c, 0, 57, 0
2, 202885, Note_on_c, 0, 45, 0
2, 202885, Note_on_c, 0, 93, 0
2, 202885, Note_on_c, 0, 60, 0
2, 202885, Note_on_c, 0, 81, 0
2, 202887, Control_c, 0, 64, 0
2, 202920, Note_on_c, 0, 89, 0
2, 202946, Note_on_c, 0, 82, 112
2, 202946, Note_on_c, 0, 86, 103
2, 202948, Note_on_c, 0, 34, 102
2, 202948, Note_on_c, 0, 46, 111
2, 202974, Control_c, 0, 64, 127
2, 202997, Note_on_c, 0, 46, 0
2, 203008, Note_on_c, 0, 46, 77
2, 203016, Note_on_c, 0, 94, 107
2, 203059, Note_on_c, 0, 86, 0
2, 203070, Note_on_c, 0, 86, 71
2, 203136, Note_on_c, 0, 94, 0
2, 203145, Note_on_c, 0, 94, 97
2, 203195, Note_on_c, 0, 65, 97
2, 203198, Note_on_c, 0, 62, 95
2, 203205, Note_on_c, 0, 86, 0
2, 203209, Note_on_c, 0, 86, 98
2, 203209, Note_on_c, 0, 81, 103
2, 203275, Note_on_c, 0, 93, 96
2, 203328, Note_on_c, 0, 81, 0
2, 203328, Note_on_c, 0, 86, 0
2, 203336, Note_on_c, 0, 86, 87
2, 203339, Note_on_c, 0, 81, 99
2, 203339, Note_on_c, 0, 58, 101
2, 203397, Note_on_c, 0, 93, 0
2, 203401, Note_on_c, 0, 93, 93
2, 203431, Note_on_c, 0, 89, 80
2, 203435, Note_on_c, 0, 62, 0
2, 203435, Note_on_c, 0, 65, 0
2, 203439, Note_on_c, 0, 70, 103
2, 203443, Note_on_c, 0, 65, 100
2, 203445, Note_on_c, 0, 62, 84
2, 203449, Note_on_c, 0, 77, 100
2, 203496, Note_on_c, 0, 89, 0
2, 203507, Note_on_c, 0, 89, 104
2, 203558, Note_on_c, 0, 77, 0
2, 203568, Note_on_c, 0, 77, 95
2, 203619, Note_on_c, 0, 89, 0
2, 203630, Note_on_c, 0, 89, 104
2, 203655, Note_on_c, 0, 93, 0
2, 203656, Note_on_c, 0, 94, 0
2, 203656, Note_on_c, 0, 86, 0
2, 203656, Control_c, 0, 64, 0
2, 203656, Note_on_c, 0, 81, 0
2, 203659, Note_on_c, 0, 46, 0
2, 203660, Note_on_c, 0, 65, 0
2, 203660, Note_on_c, 0, 89, 0
2, 203661, Note_on_c, 0, 82, 0
2, 203662, Note_on_c, 0, 62, 0
2, 203662, Note_on_c, 0, 70, 0
2, 203673, Note_on_c, 0, 34, 0
2, 203681, Note_on_c, 0, 58, 0
2, 203681, Note_on_c, 0, 77, 0
2, 203682, Note_on_c, 0, 50, 106
2, 203683, Note_on_c, 0, 38, 109
2, 203685, Note_on_c, 0, 72, 105
2, 203688, Note_on_c, 0, 77, 96
2, 203735, Control_c, 0, 64, 127
2, 203748, Note_on_c, 0, 84, 102
2, 203811, Note_on_c, 0, 38, 0
2, 203811, Note_on_c, 0, 50, 0
2, 203811, Note_on_c, 0, 72, 0
2, 203815, Note_on_c, 0, 72, 93
2, 203815, Note_on_c, 0, 38, 54
2, 203818, Note_on_c, 0, 50, 63
2, 203865, Note_on_c, 0, 84, 0
2, 203869, Note_on_c, 0, 84, 90
2, 203916, Note_on_c, 0, 62, 103
2, 203926, Note_on_c, 0, 74, 106
2, 203927, Note_on_c, 0, 77, 0
2, 203937, Note_on_c, 0, 77, 93
2, 203950, Note_on_c, 0, 58, 94
2, 203985, Note_on_c, 0, 86, 104
2, 204000, Note_on_c, 0, 53, 87
2, 204057, Note_on_c, 0, 50, 0
2, 204057, Note_on_c, 0, 74, 0
2, 204057, Note_on_c, 0, 86, 0
2, 204063, Note_on_c, 0, 50, 85
2, 204068, Note_on_c, 0, 74, 95
2, 204068, Note_on_c, 0, 86, 93
2, 204119, Note_on_c, 0, 86, 0
2, 204122, Note_on_c, 0, 46, 88
2, 204125, Note_on_c, 0, 86, 100
2, 204188, Note_on_c, 0, 38, 0
2, 204192, Note_on_c, 0, 70, 110
2, 204195, Note_on_c, 0, 82, 109
2, 204196, Note_on_c, 0, 38, 94
2, 204376, Note_on_c, 0, 84, 0
2, 204376, Note_on_c, 0, 86, 0
2, 204376, Note_on_c, 0, 72, 0
2, 204377, Note_on_c, 0, 74, 0
2, 204377, Note_on_c, 0, 62, 0
2, 204377, Note_on_c, 0, 53, 0
2, 204377, Note_on_c, 0, 38, 0
2, 204378, Note_on_c, 0, 77, 0
2, 204378, Note_on_c, 0, 58, 0
2, 204378, Note_on_c, 0, 50, 0
2, 204379, Note_on_c, 0, 82, 0
2, 204380, Note_on_c, 0, 70, 0
2, 204381, Control_c, 0, 64, 0
2, 204395, Note_on_c, 0, 46, 0
2, 204440, Note_on_c, 0, 39, 103
2, 204443, Note_on_c, 0, 69, 108
2, 204443, Note_on_c, 0, 57, 111
2, 204445, Note_on_c, 0, 27, 106
2, 204487, Control_c, 0, 64, 127
2, 204648, Note_on_c, 0, 27, 0
2, 204654, Control_c, 0, 64, 0
2, 204656, Note_on_c, 0, 39, 0
2, 204662, Note_on_c, 0, 69, 0
2, 204679, Note_on_c, 0, 57, 0
2, 204691, Note_on_c, 0, 70, 108
2, 204879, Note_on_c, 0, 70, 0
2, 204968, Note_on_c, 0, 70, 108
2, 205032, Note_on_c, 0, 70, 0
2, 205208, Note_on_c, 0, 62, 106
2, 205209, Note_on_c, 0, 70, 106
2, 205209, Note_on_c, 0, 58, 109
2, 205212, Note_on_c, 0, 55, 108
2, 205214, Note_on_c, 0, 67, 88
2, 205215, Note_on_c, 0, 51, 98
2, 205255, Control_c, 0, 64, 127
2, 205484, Note_on_c, 0, 77, 95
2, 205578, Note_on_c, 0, 51, 0
2, 205583, Note_on_c, 0, 39, 94
2, 205585, Note_on_c, 0, 51, 96
2, 205590, Note_on_c, 0, 82, 96
2, 205719, Note_on_c, 0, 81, 97
2, 205824, Note_on_c, 0, 82, 0
2, 205827, Note_on_c, 0, 34, 80
2, 205828, Note_on_c, 0, 27, 93
2, 205829, Note_on_c, 0, 82, 99
2, 205831, Note_on_c, 0, 34, 0
2, 205916, Note_on_c, 0, 27, 0
2, 205917, Note_on_c, 0, 81, 0
2, 205918, Note_on_c, 0, 55, 0
2, 205918, Control_c, 0, 64, 0
2, 205919, Note_on_c, 0, 62, 0
2, 205919, Note_on_c, 0, 51, 0
2, 205920, Note_on_c, 0, 58, 0
2, 205920, Note_on_c, 0, 39, 0
2, 205920, Note_on_c, 0, 70, 0
2, 205920, Note_on_c, 0, 82, 0
2, 205931, Note_on_c, 0, 67, 0
2, 205939, Note_on_c, 0, 77, 0
2, 205948, Note_on_c, 0, 77, 102
2, 205950, Note_on_c, 0, 89, 105
2, 205958, Note_on_c, 0, 41, 108
2, 205958, Note_on_c, 0, 29, 100
2, 206000, Control_c, 0, 64, 127
2, 206105, Note_on_c, 0, 82, 94
2, 206218, Note_on_c, 0, 81, 100
2, 206219, Note_on_c, 0, 60, 102
2, 206221, Note_on_c, 0, 58, 94
2, 206225, Note_on_c, 0, 48, 86
2, 206330, Note_on_c, 0, 82, 0
2, 206340, Note_on_c, 0, 82, 101
2, 206461, Note_on_c, 0, 77, 0
2, 206467, Note_on_c, 0, 77, 94
2, 206474, Note_on_c, 0, 53, 101
2, 206592, Note_on_c, 0, 82, 0
2, 206598, Note_on_c, 0, 82, 99
2, 206695, Note_on_c, 0, 65, 106
2, 206714, Note_on_c, 0, 89, 0
2, 206722, Note_on_c, 0, 60, 0
2, 206723, Note_on_c, 0, 89, 106
2, 206731, Note_on_c, 0, 60, 86
2, 206760, Note_on_c, 0, 58, 0
2, 206769, Note_on_c, 0, 58, 81
2, 206837, Note_on_c, 0, 82, 0
2, 206848, Note_on_c, 0, 82, 99
2, 206850, Note_on_c, 0, 57, 75
2, 206891, Note_on_c, 0, 53, 0
2, 206896, Note_on_c, 0, 53, 85
2, 206960, Note_on_c, 0, 81, 0
2, 206964, Note_on_c, 0, 81, 94
2, 207006, Note_on_c, 0, 48, 0
2, 207015, Note_on_c, 0, 48, 93
2, 207052, Note_on_c, 0, 82, 0
2, 207064, Note_on_c, 0, 82, 101
2, 207168, Note_on_c, 0, 41, 0
2, 207173, Note_on_c, 0, 41, 104
2, 207183, Note_on_c, 0, 65, 0
2, 207192, Note_on_c, 0, 65, 103
2, 207298, Note_on_c, 0, 48, 0
2, 207308, Note_on_c, 0, 48, 94
2, 207321, Note_on_c, 0, 65, 0
2, 207331, Note_on_c, 0, 65, 81
2, 207362, Control_c, 0, 64, 0
2, 207362, Note_on_c, 0, 77, 0
2, 207362, Note_on_c, 0, 65, 0
2, 207362, Note_on_c, 0, 41, 0
2, 207362, Note_on_c, 0, 89, 0
2, 207363, Note_on_c, 0, 60, 0
2, 207363, Note_on_c, 0, 53, 0
2, 207363, Note_on_c, 0, 81, 0
2, 207363, Note_on_c, 0, 57, 0
2, 207375, Note_on_c, 0, 29, 0
2, 207383, Note_on_c, 0, 48, 0
2, 207383, Note_on_c, 0, 58, 0
2, 207383, Note_on_c, 0, 82, 0
2, 207451, Note_on_c, 0, 69, 108
2, 207456, Note_on_c, 0, 65, 92
2, 207457, Note_on_c, 0, 31, 103
2, 207460, Note_on_c, 0, 43, 112
2, 207475, Control_c, 0, 64, 127
2, 207708, Control_c, 0, 64, 0
2, 207719, Note_on_c, 0, 65, 0
2, 207720, Note_on_c, 0, 69, 0
2, 207721, Note_on_c, 0, 43, 0
2, 207723, Note_on_c, 0, 31, 0
2, 207725, Note_on_c, 0, 70, 106
2, 207790, Note_on_c, 0, 70, 0
2, 207982, Note_on_c, 0, 70, 109
2, 208135, Note_on_c, 0, 70, 0
2, 208232, Note_on_c, 0, 70, 106
2, 208234, Note_on_c, 0, 58, 107
2, 208236, Note_on_c, 0, 65, 105
2, 208237, Note_on_c, 0, 55, 107
2, 208237, Note_on_c, 0, 62, 104
2, 208258, Control_c, 0, 64, 127
2, 208481, Note_on_c, 0, 77, 96
2, 208604, Note_on_c, 0, 55, 0
2, 208608, Note_on_c, 0, 55, 106
2, 208611, Note_on_c, 0, 43, 106
2, 208616, Note_on_c, 0, 82, 99
2, 208746, Note_on_c, 0, 81, 95
2, 208842, Note_on_c, 0, 82, 0
2, 208849, Note_on_c, 0, 43, 0
2, 208852, Note_on_c, 0, 82, 100
2, 208861, Note_on_c, 0, 43, 95
2, 208965, Note_on_c, 0, 43, 0
2, 208971, Note_on_c, 0, 43, 104
2, 208972, Note_on_c, 0, 89, 104
2, 208976, Note_on_c, 0, 31, 103
2, 209111, Note_on_c, 0, 82, 0
2, 209117, Note_on_c, 0, 82, 99
2, 209226, Note_on_c, 0, 62, 0
2, 209233, Note_on_c, 0, 81, 0
2, 209237, Note_on_c, 0, 62, 95
2, 209245, Note_on_c, 0, 81, 99
2, 209249, Note_on_c, 0, 58, 0
2, 209258, Note_on_c, 0, 58, 92
2, 209372, Note_on_c, 0, 82, 0
2, 209378, Note_on_c, 0, 82, 96
2, 209495, Note_on_c, 0, 55, 0
2, 209495, Note_on_c, 0, 77, 0
2, 209499, Note_on_c, 0, 77, 96
2, 209501, Note_on_c, 0, 55, 103
2, 209617, Note_on_c, 0, 82, 0
2, 209627, Note_on_c, 0, 82, 100
2, 209717, Note_on_c, 0, 65, 0
2, 209725, Note_on_c, 0, 58, 0
2, 209725, Note_on_c, 0, 89, 0
2, 209727, Note_on_c, 0, 65, 106
2, 209729, Note_on_c, 0, 89, 102
2, 209732, Note_on_c, 0, 58, 76
2, 209771, Note_on_c, 0, 62, 0
2, 209777, Note_on_c, 0, 62, 95
2, 209825, Note_on_c, 0, 58, 0
2, 209833, Note_on_c, 0, 58, 96
2, 209863, Note_on_c, 0, 82, 0
2, 209868, Note_on_c, 0, 82, 94
2, 209883, Note_on_c, 0, 57, 99
2, 209940, Note_on_c, 0, 55, 0
2, 209948, Note_on_c, 0, 55, 95
2, 209994, Note_on_c, 0, 81, 0
2, 209998, Note_on_c, 0, 81, 93
2, 210021, Note_on_c, 0, 50, 91
2, 210101, Note_on_c, 0, 82, 0
2, 210106, Note_on_c, 0, 46, 97
2, 210107, Note_on_c, 0, 82, 97
2, 210186, Note_on_c, 0, 43, 0
2, 210190, Note_on_c, 0, 43, 96
2, 210193, Note_on_c, 0, 46, 0
2, 210200, Note_on_c, 0, 46, 84
2, 210209, Note_on_c, 0, 77, 0
2, 210213, Note_on_c, 0, 77, 93
2, 210324, Note_on_c, 0, 82, 0
2, 210335, Note_on_c, 0, 82, 101
2, 210385, Note_on_c, 0, 46, 0
2, 210396, Note_on_c, 0, 46, 63
2, 210417, Note_on_c, 0, 77, 0
2, 210418, Note_on_c, 0, 50, 0
2, 210418, Note_on_c, 0, 31, 0
2, 210419, Note_on_c, 0, 89, 0
2, 210419, Note_on_c, 0, 81, 0
2, 210419, Note_on_c, 0, 57, 0
2, 210419, Note_on_c, 0, 70, 0
2, 210420, Note_on_c, 0, 82, 0
2, 210421, Control_c, 0, 64, 0
2, 210432, Note_on_c, 0, 55, 0
2, 210439, Note_on_c, 0, 43, 0
2, 210439, Note_on_c, 0, 46, 0
2, 210439, Note_on_c, 0, 58, 0
2, 210439, Note_on_c, 0, 62, 0
2, 210439, Note_on_c, 0, 65, 0
2, 210477, Note_on_c, 0, 48, 108
2, 210481, Note_on_c, 0, 79, 112
2, 210483, Note_on_c, 0, 36, 102
2, 210487, Note_on_c, 0, 75, 102
2, 210489, Note_on_c, 0, 70, 102
2, 210489, Note_on_c, 0, 67, 101
2, 210539, Control_c, 0, 64, 127
2, 210731, Note_on_c, 0, 48, 0
2, 210736, Note_on_c, 0, 48, 81
2, 210866, Note_on_c, 0, 55, 91
2, 210990, Note_on_c, 0, 58, 102
2, 210995, Note_on_c, 0, 77, 101
2, 210996, Note_on_c, 0, 65, 106
2, 211106, Note_on_c, 0, 62, 98
2, 211249, Note_on_c, 0, 63, 105
2, 211253, Note_on_c, 0, 70, 0
2, 211257, Note_on_c, 0, 82, 109
2, 211257, Note_on_c, 0, 74, 104
2, 211258, Note_on_c, 0, 70, 106
2, 211368, Note_on_c, 0, 62, 0
2, 211375, Note_on_c, 0, 62, 92
2, 211484, Note_on_c, 0, 58, 0
2, 211490, Note_on_c, 0, 58, 93
2, 211514, Note_on_c, 0, 74, 0
2, 211519, Note_on_c, 0, 81, 106
2, 211521, Note_on_c, 0, 69, 107
2, 211525, Note_on_c, 0, 74, 86
2, 211614, Note_on_c, 0, 55, 0
2, 211618, Note_on_c, 0, 55, 90
2, 211737, Note_on_c, 0, 48, 0
2, 211744, Note_on_c, 0, 48, 74
2, 211760, Note_on_c, 0, 82, 0
2, 211768, Note_on_c, 0, 70, 0
2, 211771, Note_on_c, 0, 82, 110
2, 211773, Note_on_c, 0, 70, 100
2, 211860, Note_on_c, 0, 55, 0
2, 211868, Note_on_c, 0, 55, 90
2, 211962, Note_on_c, 0, 81, 0
2, 211962, Note_on_c, 0, 58, 0
2, 211962, Note_on_c, 0, 62, 0
2, 211963, Note_on_c, 0, 69, 0
2, 211963, Note_on_c, 0, 79, 0
2, 211963, Note_on_c, 0, 75, 0
2, 211963, Note_on_c, 0, 63, 0
2, 211963, Note_on_c, 0, 67, 0
2, 211963, Note_on_c, 0, 65, 0
2, 211963, Note_on_c, 0, 77, 0
2, 211963, Note_on_c, 0, 74, 0
2, 211964, Note_on_c, 0, 70, 0
2, 211964, Note_on_c, 0, 55, 0
2, 211970, Control_c, 0, 64, 0
2, 211975, Note_on_c, 0, 36, 0
2, 211983, Note_on_c, 0, 48, 0
2, 211983, Note_on_c, 0, 82, 0
2, 212030, Note_on_c, 0, 50, 105
2, 212032, Note_on_c, 0, 89, 113
2, 212033, Note_on_c, 0, 38, 96
2, 212033, Note_on_c, 0, 81, 103
2, 212033, Note_on_c, 0, 77, 109
2, 212083, Control_c, 0, 64, 127
2, 212282, Note_on_c, 0, 50, 0
2, 212288, Note_on_c, 0, 50, 88
2, 212414, Note_on_c, 0, 57, 94
2, 212533, Note_on_c, 0, 82, 106
2, 212536, Note_on_c, 0, 70, 105
2, 212537, Note_on_c, 0, 60, 101
2, 212671, Note_on_c, 0, 62, 99
2, 212789, Note_on_c, 0, 81, 0
2, 212792, Note_on_c, 0, 77, 0
2, 212793, Note_on_c, 0, 65, 102
2, 212793, Note_on_c, 0, 69, 107
2, 212793, Note_on_c, 0, 81, 108
2, 212798, Note_on_c, 0, 72, 106
2, 212912, Note_on_c, 0, 62, 0
2, 212922, Note_on_c, 0, 62, 89
2, 213035, Note_on_c, 0, 60, 0
2, 213040, Note_on_c, 0, 60, 93
2, 213150, Note_on_c, 0, 57, 0
2, 213160, Note_on_c, 0, 57, 96
2, 213281, Note_on_c, 0, 50, 0
2, 213286, Note_on_c, 0, 50, 89
2, 213304, Note_on_c, 0, 70, 0
2, 213304, Note_on_c, 0, 82, 0
2, 213310, Note_on_c, 0, 82, 108
2, 213313, Note_on_c, 0, 70, 106
2, 213404, Note_on_c, 0, 57, 0
2, 213411, Note_on_c, 0, 57, 88
2, 213512, Note_on_c, 0, 72, 0
2, 213513, Note_on_c, 0, 89, 0
2, 213513, Note_on_c, 0, 81, 0
2, 213513, Note_on_c, 0, 69, 0
2, 213513, Note_on_c, 0, 38, 0
2, 213514, Note_on_c, 0, 65, 0
2, 213514, Note_on_c, 0, 62, 0
2, 213514, Note_on_c, 0, 82, 0
2, 213514, Note_on_c, 0, 50, 0
2, 213514, Note_on_c, 0, 60, 0
2, 213514, Note_on_c, 0, 70, 0
2, 213514, Note_on_c, 0, 57, 0
2, 213516, Control_c, 0, 64, 0
2, 213568, Note_on_c, 0, 70, 106
2, 213568, Note_on_c, 0, 74, 104
2, 213569, Note_on_c, 0, 82, 107
2, 213570, Note_on_c, 0, 46, 101
2, 213571, Note_on_c, 0, 39, 97
2, 213572, Note_on_c, 0, 51, 98
2, 213611, Control_c, 0, 64, 127
2, 213823, Note_on_c, 0, 58, 78
2, 213830, Note_on_c, 0, 77, 84
2, 213941, Note_on_c, 0, 58, 0
2, 213941, Note_on_c, 0, 82, 0
2, 213952, Note_on_c, 0, 58, 91
2, 213952, Note_on_c, 0, 82, 99
2, 214070, Note_on_c, 0, 81, 99
2, 214073, Note_on_c, 0, 62, 96
2, 214187, Note_on_c, 0, 82, 0
2, 214195, Note_on_c, 0, 82, 98
2, 214200, Note_on_c, 0, 63, 93
2, 214315, Note_on_c, 0, 91, 109
2, 214316, Note_on_c, 0, 67, 100
2, 214440, Note_on_c, 0, 63, 0
2, 214440, Note_on_c, 0, 82, 0
2, 214446, Note_on_c, 0, 63, 87
2, 214451, Note_on_c, 0, 82, 100
2, 214556, Note_on_c, 0, 62, 0
2, 214563, Note_on_c, 0, 81, 0
2, 214567, Note_on_c, 0, 62, 93
2, 214574, Note_on_c, 0, 81, 98
2, 214679, Note_on_c, 0, 58, 0
2, 214679, Note_on_c, 0, 82, 0
2, 214687, Note_on_c, 0, 58, 100
2, 214690, Note_on_c, 0, 82, 97
2, 214809, Note_on_c, 0, 51, 0
2, 214809, Note_on_c, 0, 77, 0
2, 214813, Note_on_c, 0, 51, 92
2, 214814, Note_on_c, 0, 77, 94
2, 214909, Note_on_c, 0, 58, 0
2, 214918, Note_on_c, 0, 58, 95
2, 214932, Note_on_c, 0, 82, 0
2, 214943, Note_on_c, 0, 82, 100
2, 215047, Note_on_c, 0, 91, 0
2, 215051, Note_on_c, 0, 41, 105
2, 215054, Note_on_c, 0, 91, 107
2, 215178, Note_on_c, 0, 82, 0
2, 215180, Note_on_c, 0, 48, 97
2, 215188, Note_on_c, 0, 82, 101
2, 215293, Note_on_c, 0, 81, 0
2, 215297, Note_on_c, 0, 53, 96
2, 215302, Note_on_c, 0, 81, 97
2, 215412, Note_on_c, 0, 57, 107
2, 215424, Note_on_c, 0, 82, 0
2, 215431, Note_on_c, 0, 82, 91
2, 215539, Note_on_c, 0, 58, 0
2, 215539, Note_on_c, 0, 77, 0
2, 215543, Note_on_c, 0, 58, 100
2, 215548, Note_on_c, 0, 77, 94
2, 215650, Note_on_c, 0, 60, 105
2, 215669, Note_on_c, 0, 82, 0
2, 215674, Note_on_c, 0, 82, 96
2, 215800, Note_on_c, 0, 77, 0
2, 215800, Note_on_c, 0, 81, 0
2, 215808, Note_on_c, 0, 69, 108
2, 215809, Note_on_c, 0, 81, 110
2, 215809, Note_on_c, 0, 72, 111
2, 215810, Note_on_c, 0, 77, 108
2, 215810, Note_on_c, 0, 93, 110
2, 215856, Note_on_c, 0, 89, 91
2, 215908, Note_on_c, 0, 84, 94
2, 215953, Note_on_c, 0, 81, 0
2, 215960, Note_on_c, 0, 81, 82
2, 216023, Note_on_c, 0, 77, 0
2, 216027, Note_on_c, 0, 77, 88
2, 216053, Note_on_c, 0, 72, 0
2, 216064, Note_on_c, 0, 72, 90
2, 216107, Note_on_c, 0, 69, 0
2, 216118, Note_on_c, 0, 69, 74
2, 216172, Note_on_c, 0, 65, 97
2, 216207, Note_on_c, 0, 60, 0
2, 216213, Note_on_c, 0, 60, 90
2, 216261, Note_on_c, 0, 57, 0
2, 216265, Note_on_c, 0, 57, 97
2, 216314, Note_on_c, 0, 53, 0
2, 216325, Note_on_c, 0, 53, 102
2, 216376, Note_on_c, 0, 48, 0
2, 216385, Note_on_c, 0, 48, 89
2, 216437, Note_on_c, 0, 41, 0
2, 216447, Note_on_c, 0, 41, 97
2, 216706, Note_on_c, 0, 69, 0
2, 216706, Note_on_c, 0, 81, 0
2, 216714, Note_on_c, 0, 69, 110
2, 216714, Note_on_c, 0, 70, 0
2, 216714, Note_on_c, 0, 74, 0
2, 216714, Note_on_c, 0, 77, 0
2, 216714, Note_on_c, 0, 93, 0
2, 216714, Note_on_c, 0, 81, 107
2, 216718, Note_on_c, 0, 77, 95
2, 216718, Note_on_c, 0, 74, 104
2, 216724, Note_on_c, 0, 43, 106
2, 216724, Note_on_c, 0, 70, 105
2, 216725, Note_on_c, 0, 31, 100
2, 216732, Note_on_c, 0, 82, 0
2, 216732, Note_on_c, 0, 89, 0
2, 216733, Note_on_c, 0, 63, 0
2, 216733, Note_on_c, 0, 84, 0
2, 216733, Note_on_c, 0, 62, 0
2, 216734, Note_on_c, 0, 58, 0
2, 216734, Note_on_c, 0, 67, 0
2, 216735, Note_on_c, 0, 57, 0
2, 216735, Note_on_c, 0, 48, 0
2, 216735, Note_on_c, 0, 60, 0
2, 216736, Note_on_c, 0, 72, 0
2, 216737, Note_on_c, 0, 91, 0
2, 216737, Note_on_c, 0, 46, 0
2, 216738, Note_on_c, 0, 41, 0
2, 216739, Note_on_c, 0, 51, 0
2, 216740, Note_on_c, 0, 53, 0
2, 216749, Control_c, 0, 64, 0
2, 216752, Note_on_c, 0, 39, 0
2, 216768, Note_on_c, 0, 65, 0
2, 216783, Note_on_c, 0, 69, 0
2, 217328, Note_on_c, 0, 70, 0
2, 217512, Note_on_c, 0, 77, 0
2, 217520, Note_on_c, 0, 81, 0
2, 217531, Note_on_c, 0, 93, 105
2, 217532, Note_on_c, 0, 81, 101
2, 217605, Control_c, 0, 64, 127
2, 218304, Note_on_c, 0, 93, 0
2, 218311, Note_on_c, 0, 81, 0
2, 218315, Note_on_c, 0, 93, 100
2, 218318, Note_on_c, 0, 81, 92
2, 219079, Note_on_c, 0, 81, 0
2, 219079, Note_on_c, 0, 93, 0
2, 219083, Note_on_c, 0, 93, 85
2, 219085, Note_on_c, 0, 81, 80
2, 219840, Note_on_c, 0, 74, 0
2, 219854, Note_on_c, 0, 46, 72
2, 219863, Note_on_c, 0, 43, 0
2, 219865, Note_on_c, 0, 39, 71
2, 219867, Note_on_c, 0, 43, 60
2, 219870, Note_on_c, 0, 31, 0
2, 219874, Note_on_c, 0, 31, 58
2, 220684, Note_on_c, 0, 81, 0
2, 220684, Note_on_c, 0, 93, 0
2, 220689, Note_on_c, 0, 93, 93
2, 220694, Note_on_c, 0, 81, 85
2, 221475, Note_on_c, 0, 93, 0
2, 221483, Note_on_c, 0, 81, 0
2, 221486, Note_on_c, 0, 93, 78
2, 221488, Note_on_c, 0, 81, 69
2, 222297, Note_on_c, 0, 93, 0
2, 222303, Note_on_c, 0, 93, 74
2, 222305, Note_on_c, 0, 81, 0
2, 222310, Note_on_c, 0, 81, 63
2, 223073, Note_on_c, 0, 43, 0
2, 223076, Note_on_c, 0, 58, 60
2, 223080, Note_on_c, 0, 43, 51
2, 223082, Note_on_c, 0, 50, 52
2, 223111, Note_on_c, 0, 31, 0
2, 223114, Note_on_c, 0, 39, 0
2, 223116, Note_on_c, 0, 46, 0
2, 223119, Note_on_c, 0, 81, 0
2, 223188, Note_on_c, 0, 93, 0
2, 223909, Note_on_c, 0, 81, 63
2, 223919, Note_on_c, 0, 69, 57
2, 223921, Note_on_c, 0, 74, 54
2, 224701, Note_on_c, 0, 69, 0
2, 224701, Note_on_c, 0, 74, 0
2, 224701, Note_on_c, 0, 81, 0
2, 224705, Note_on_c, 0, 69, 46
2, 224706, Note_on_c, 0, 81, 56
2, 224707, Note_on_c, 0, 70, 50
2, 224712, Note_on_c, 0, 74, 48
2, 225500, Note_on_c, 0, 69, 0
2, 225500, Note_on_c, 0, 81, 0
2, 225504, Note_on_c, 0, 81, 48
2, 225507, Note_on_c, 0, 70, 0
2, 225507, Note_on_c, 0, 74, 0
2, 225511, Note_on_c, 0, 69, 38
2, 225513, Note_on_c, 0, 70, 42
2, 225517, Note_on_c, 0, 74, 40
2, 226321, Note_on_c, 0, 43, 0
2, 226321, Note_on_c, 0, 58, 0
2, 226330, Note_on_c, 0, 43, 52
2, 226332, Note_on_c, 0, 58, 50
2, 226343, Note_on_c, 0, 51, 43
2, 226375, Note_on_c, 0, 50, 0
2, 226521, Note_on_c, 0, 69, 0
2, 227143, Note_on_c, 0, 74, 0
2, 227174, Note_on_c, 0, 81, 0
2, 227181, Note_on_c, 0, 81, 48
2, 227182, Note_on_c, 0, 70, 0
2, 227183, Note_on_c, 0, 69, 46
2, 227186, Note_on_c, 0, 70, 53
2, 227187, Note_on_c, 0, 75, 39
2, 228026, Note_on_c, 0, 81, 0
2, 228034, Note_on_c, 0, 69, 0
2, 228035, Note_on_c, 0, 81, 45
2, 228041, Note_on_c, 0, 69, 43
2, 228049, Note_on_c, 0, 70, 0
2, 228049, Note_on_c, 0, 75, 0
2, 228058, Note_on_c, 0, 75, 28
2, 228059, Note_on_c, 0, 70, 35
2, 228480, Note_on_c, 0, 51, 0
2, 228480, Note_on_c, 0, 58, 0
2, 228963, Note_on_c, 0, 69, 0
2, 228963, Note_on_c, 0, 70, 0
2, 228963, Note_on_c, 0, 75, 0
2, 228963, Note_on_c, 0, 81, 0
2, 228967, Note_on_c, 0, 81, 39
2, 228969, Note_on_c, 0, 75, 29
2, 228969, Note_on_c, 0, 70, 35
2, 228970, Note_on_c, 0, 69, 34
2, 230184, Note_on_c, 0, 43, 0
2, 230193, Note_on_c, 0, 31, 38
2, 230193, Note_on_c, 0, 43, 42
2, 231865, Note_on_c, 0, 89, 63
2, 232320, Note_on_c, 0, 31, 0
2, 232320, Note_on_c, 0, 43, 0
2, 232320, Note_on_c, 0, 69, 0
2, 232320, Note_on_c, 0, 70, 0
2, 232320, Note_on_c, 0, 75, 0
2, 232320, Note_on_c, 0, 81, 0
2, 232975, Note_on_c, 0, 84, 54
2, 233539, Note_on_c, 0, 86, 66
2, 234148, Note_on_c, 0, 81, 57
2, 234906, Note_on_c, 0, 82, 54
2, 236160, Note_on_c, 0, 81, 0
2, 236160, Note_on_c, 0, 84, 0
2, 236160, Note_on_c, 0, 86, 0
2, 236160, Note_on_c, 0, 89, 0
2, 236308, Note_on_c, 0, 93, 57
2, 239516, Note_on_c, 0, 82, 0
2, 240000, Note_on_c, 0, 93, 0
2, 242833, Control_c, 0, 64, 0
2, 242834, End_track
0, 0, End_of_file
