0, 0, Header, 1, 2, 384
1, 0, Start_track
1, 0, Tempo, 500000
1, 0, Time_signature, 4, 2, 24, 8
1, 1, End_track
2, 0, Start_track
2, 168, Control_c, 0, 64, 127
2, 1739, Note_on_c, 0, 78, 70
2, 1745, Note_on_c, 0, 46, 43
2, 1753, Note_on_c, 0, 73, 50
2, 1760, Note_on_c, 0, 70, 45
2, 1883, Note_on_c, 0, 77, 65
2, 1996, Note_on_c, 0, 78, 0
2, 2002, Note_on_c, 0, 78, 75
2, 2013, Note_on_c, 0, 54, 51
2, 2014, Note_on_c, 0, 66, 49
2, 2127, Note_on_c, 0, 77, 0
2, 2134, Note_on_c, 0, 77, 73
2, 2265, Note_on_c, 0, 73, 0
2, 2265, Note_on_c, 0, 78, 0
2, 2269, Note_on_c, 0, 78, 77
2, 2273, Note_on_c, 0, 61, 50
2, 2274, Note_on_c, 0, 73, 54
2, 2511, Note_on_c, 0, 54, 0
2, 2511, Note_on_c, 0, 77, 0
2, 2521, Note_on_c, 0, 77, 79
2, 2522, Note_on_c, 0, 54, 38
2, 2534, Note_on_c, 0, 61, 0
2, 2540, Note_on_c, 0, 61, 21
2, 2641, Note_on_c, 0, 78, 0
2, 2647, Note_on_c, 0, 78, 81
2, 2669, Note_on_c, 0, 75, 61
2, 2679, Note_on_c, 0, 71, 61
2, 2745, Note_on_c, 0, 77, 0
2, 2745, Note_on_c, 0, 73, 0
2, 2746, Note_on_c, 0, 54, 0
2, 2746, Note_on_c, 0, 46, 0
2, 2747, Note_on_c, 0, 70, 0
2, 2747, Note_on_c, 0, 61, 0
2, 2755, Control_c, 0, 64, 0
2, 2757, Note_on_c, 0, 66, 0
2, 2776, Note_on_c, 0, 47, 60
2, 2826, Control_c, 0, 64, 127
2, 2912, Note_on_c, 0, 80, 79
2, 3025, Note_on_c, 0, 80, 0
2, 3033, Note_on_c, 0, 71, 0
2, 3037, Note_on_c, 0, 80, 85
2, 3040, Note_on_c, 0, 54, 51
2, 3043, Note_on_c, 0, 71, 55
2, 3310, Note_on_c, 0, 75, 0
2, 3317, Note_on_c, 0, 75, 52
2, 3319, Note_on_c, 0, 63, 52
2, 3548, Note_on_c, 0, 54, 0
2, 3548, Note_on_c, 0, 78, 0
2, 3556, Note_on_c, 0, 78, 78
2, 3556, Note_on_c, 0, 54, 42
2, 3663, Note_on_c, 0, 80, 0
2, 3673, Note_on_c, 0, 80, 78
2, 3804, Note_on_c, 0, 75, 0
2, 3804, Note_on_c, 0, 47, 0
2, 3804, Note_on_c, 0, 63, 0
2, 3805, Note_on_c, 0, 71, 0
2, 3805, Note_on_c, 0, 54, 0
2, 3805, Control_c, 0, 64, 0
2, 3806, Note_on_c, 0, 82, 84
2, 3807, Note_on_c, 0, 78, 0
2, 3822, Note_on_c, 0, 77, 67
2, 3823, Note_on_c, 0, 49, 61
2, 3826, Note_on_c, 0, 73, 60
2, 3832, Note_on_c, 0, 80, 0
2, 3893, Control_c, 0, 64, 127
2, 4070, Note_on_c, 0, 80, 83
2, 4077, Note_on_c, 0, 56, 53
2, 4189, Note_on_c, 0, 78, 87
2, 4316, Note_on_c, 0, 65, 61
2, 4561, Note_on_c, 0, 77, 0
2, 4568, Note_on_c, 0, 77, 81
2, 4677, Note_on_c, 0, 78, 0
2, 4687, Note_on_c, 0, 78, 89
2, 4700, Note_on_c, 0, 73, 0
2, 4708, Note_on_c, 0, 73, 66
2, 4711, Note_on_c, 0, 70, 66
2, 4791, Note_on_c, 0, 65, 0
2, 4793, Control_c, 0, 64, 0
2, 4793, Note_on_c, 0, 56, 0
2, 4793, Note_on_c, 0, 82, 0
2, 4793, Note_on_c, 0, 49, 0
2, 4795, Note_on_c, 0, 80, 0
2, 4815, Note_on_c, 0, 42, 65
2, 4815, Note_on_c, 0, 77, 0
2, 4953, Control_c, 0, 64, 127
2, 5084, Note_on_c, 0, 58, 54
2, 5323, Note_on_c, 0, 41, 60
2, 5352, Note_on_c, 0, 42, 0
2, 5356, Note_on_c, 0, 58, 0
2, 5357, Control_c, 0, 64, 0
2, 5445, Control_c, 0, 64, 127
2, 5588, Note_on_c, 0, 56, 56
2, 5818, Control_c, 0, 64, 0
2, 5821, Note_on_c, 0, 78, 0
2, 5825, Note_on_c, 0, 56, 0
2, 5826, Note_on_c, 0, 39, 62
2, 5827, Note_on_c, 0, 41, 0
2, 5831, Note_on_c, 0, 78, 76
2, 5836, Note_on_c, 0, 70, 0
2, 5840, Note_on_c, 0, 70, 62
2, 5840, Note_on_c, 0, 75, 67
2, 5859, Note_on_c, 0, 73, 0
2, 5889, Note_on_c, 0, 39, 0
2, 5898, Control_c, 0, 64, 127
2, 5955, Note_on_c, 0, 77, 78
2, 6082, Note_on_c, 0, 78, 0
2, 6087, Note_on_c, 0, 78, 83
2, 6092, Note_on_c, 0, 54, 68
2, 6182, Note_on_c, 0, 77, 0
2, 6192, Note_on_c, 0, 77, 78
2, 6328, Note_on_c, 0, 78, 0
2, 6337, Note_on_c, 0, 78, 80
2, 6339, Note_on_c, 0, 73, 64
2, 6340, Note_on_c, 0, 61, 66
2, 6364, Control_c, 0, 64, 0
2, 6389, Control_c, 0, 64, 127
2, 6597, Note_on_c, 0, 54, 0
2, 6597, Note_on_c, 0, 77, 0
2, 6602, Note_on_c, 0, 54, 48
2, 6603, Note_on_c, 0, 77, 83
2, 6720, Note_on_c, 0, 78, 0
2, 6726, Note_on_c, 0, 78, 87
2, 6743, Note_on_c, 0, 75, 0
2, 6753, Note_on_c, 0, 75, 58
2, 6756, Note_on_c, 0, 71, 57
2, 6835, Note_on_c, 0, 54, 0
2, 6837, Control_c, 0, 64, 0
2, 6837, Note_on_c, 0, 77, 0
2, 6837, Note_on_c, 0, 61, 0
2, 6838, Note_on_c, 0, 70, 0
2, 6850, Note_on_c, 0, 73, 0
2, 6854, Note_on_c, 0, 47, 72
2, 6935, Control_c, 0, 64, 127
2, 6982, Note_on_c, 0, 80, 71
2, 7088, Note_on_c, 0, 71, 0
2, 7088, Note_on_c, 0, 80, 0
2, 7092, Note_on_c, 0, 80, 81
2, 7093, Note_on_c, 0, 54, 65
2, 7097, Note_on_c, 0, 71, 61
2, 7342, Note_on_c, 0, 75, 0
2, 7353, Note_on_c, 0, 75, 59
2, 7354, Note_on_c, 0, 63, 58
2, 7610, Note_on_c, 0, 78, 0
2, 7615, Note_on_c, 0, 78, 81
2, 7718, Note_on_c, 0, 80, 0
2, 7728, Note_on_c, 0, 80, 82
2, 7802, Note_on_c, 0, 49, 63
2, 7840, Note_on_c, 0, 71, 0
2, 7840, Note_on_c, 0, 75, 0
2, 7841, Note_on_c, 0, 47, 0
2, 7842, Note_on_c, 0, 78, 0
2, 7842, Note_on_c, 0, 54, 0
2, 7842, Note_on_c, 0, 80, 0
2, 7843, Note_on_c, 0, 63, 0
2, 7852, Note_on_c, 0, 56, 73
2, 7853, Note_on_c, 0, 82, 96
2, 7855, Control_c, 0, 64, 0
2, 7868, Note_on_c, 0, 73, 70
2, 7869, Note_on_c, 0, 77, 79
2, 7871, Note_on_c, 0, 68, 69
2, 7885, Note_on_c, 0, 61, 67
2, 7891, Note_on_c, 0, 65, 70
2, 7902, Note_on_c, 0, 49, 0
2, 7964, Control_c, 0, 64, 127
2, 8396, Note_on_c, 0, 80, 96
2, 8783, Note_on_c, 0, 78, 92
2, 8901, Note_on_c, 0, 68, 0
2, 8908, Control_c, 0, 64, 0
2, 8908, Note_on_c, 0, 82, 0
2, 8911, Note_on_c, 0, 65, 0
2, 8911, Note_on_c, 0, 73, 0
2, 8911, Note_on_c, 0, 56, 0
2, 8911, Note_on_c, 0, 80, 0
2, 8911, Note_on_c, 0, 61, 0
2, 8912, Note_on_c, 0, 77, 0
2, 8913, Note_on_c, 0, 82, 105
2, 8919, Note_on_c, 0, 70, 99
2, 9039, Control_c, 0, 64, 127
2, 9156, Note_on_c, 0, 83, 91
2, 9167, Note_on_c, 0, 71, 85
2, 9269, Note_on_c, 0, 82, 0
2, 9281, Note_on_c, 0, 82, 98
2, 9292, Note_on_c, 0, 70, 0
2, 9299, Note_on_c, 0, 70, 96
2, 9534, Note_on_c, 0, 80, 98
2, 9539, Note_on_c, 0, 68, 96
2, 9553, Note_on_c, 0, 70, 0
2, 9558, Note_on_c, 0, 70, 57
2, 9761, Note_on_c, 0, 78, 0
2, 9770, Note_on_c, 0, 78, 100
2, 9784, Note_on_c, 0, 66, 80
2, 9856, Note_on_c, 0, 83, 0
2, 9856, Note_on_c, 0, 71, 0
2, 9856, Note_on_c, 0, 70, 0
2, 9857, Note_on_c, 0, 68, 0
2, 9857, Note_on_c, 0, 80, 0
2, 9857, Note_on_c, 0, 66, 0
2, 9858, Control_c, 0, 64, 0
2, 9868, Note_on_c, 0, 82, 0
2, 9891, Note_on_c, 0, 78, 0
2, 9896, Note_on_c, 0, 78, 99
2, 9897, Note_on_c, 0, 66, 87
2, 9903, Note_on_c, 0, 70, 75
2, 9917, Note_on_c, 0, 46, 78
2, 9919, Note_on_c, 0, 34, 69
2, 9968, Control_c, 0, 64, 127
2, 10007, Note_on_c, 0, 34, 0
2, 10140, Note_on_c, 0, 80, 86
2, 10143, Note_on_c, 0, 49, 60
2, 10255, Note_on_c, 0, 73, 80
2, 10292, Note_on_c, 0, 54, 60
2, 10375, Note_on_c, 0, 78, 0
2, 10383, Note_on_c, 0, 70, 0
2, 10386, Note_on_c, 0, 78, 86
2, 10389, Note_on_c, 0, 70, 70
2, 10390, Note_on_c, 0, 58, 72
2, 10483, Note_on_c, 0, 73, 0
2, 10490, Note_on_c, 0, 73, 81
2, 10513, Note_on_c, 0, 54, 0
2, 10524, Note_on_c, 0, 54, 62
2, 10613, Note_on_c, 0, 49, 0
2, 10623, Note_on_c, 0, 49, 68
2, 10632, Note_on_c, 0, 85, 78
2, 10744, Note_on_c, 0, 78, 0
2, 10750, Note_on_c, 0, 78, 96
2, 10768, Control_c, 0, 64, 0
2, 10769, Note_on_c, 0, 47, 78
2, 10769, Note_on_c, 0, 58, 0
2, 10770, Note_on_c, 0, 82, 72
2, 10770, Note_on_c, 0, 46, 0
2, 10770, Note_on_c, 0, 80, 0
2, 10771, Note_on_c, 0, 66, 0
2, 10771, Note_on_c, 0, 35, 62
2, 10771, Note_on_c, 0, 85, 0
2, 10782, Note_on_c, 0, 49, 0
2, 10790, Note_on_c, 0, 54, 0
2, 10790, Note_on_c, 0, 70, 0
2, 10798, Note_on_c, 0, 73, 0
2, 10805, Note_on_c, 0, 82, 0
2, 10859, Control_c, 0, 64, 127
2, 10920, Note_on_c, 0, 35, 0
2, 10997, Note_on_c, 0, 47, 0
2, 11006, Note_on_c, 0, 47, 65
2, 11131, Note_on_c, 0, 68, 81
2, 11134, Note_on_c, 0, 51, 66
2, 11266, Note_on_c, 0, 54, 66
2, 11384, Note_on_c, 0, 66, 80
2, 11385, Note_on_c, 0, 59, 77
2, 11504, Note_on_c, 0, 54, 0
2, 11509, Note_on_c, 0, 54, 64
2, 11612, Note_on_c, 0, 68, 0
2, 11622, Note_on_c, 0, 68, 89
2, 11635, Note_on_c, 0, 51, 0
2, 11639, Note_on_c, 0, 51, 59
2, 11735, Note_on_c, 0, 47, 0
2, 11740, Note_on_c, 0, 47, 64
2, 11840, Note_on_c, 0, 51, 0
2, 11840, Note_on_c, 0, 68, 0
2, 11840, Note_on_c, 0, 47, 0
2, 11840, Note_on_c, 0, 59, 0
2, 11840, Note_on_c, 0, 54, 0
2, 11840, Note_on_c, 0, 66, 0
2, 11842, Control_c, 0, 64, 0
2, 11857, Note_on_c, 0, 78, 0
2, 11884, Note_on_c, 0, 78, 103
2, 11886, Note_on_c, 0, 66, 86
2, 11888, Note_on_c, 0, 49, 81
2, 11892, Note_on_c, 0, 37, 80
2, 11924, Note_on_c, 0, 49, 0
2, 11934, Control_c, 0, 64, 127
2, 11973, Note_on_c, 0, 37, 0
2, 12129, Note_on_c, 0, 80, 96
2, 12130, Note_on_c, 0, 53, 65
2, 12132, Note_on_c, 0, 49, 57
2, 12251, Note_on_c, 0, 73, 80
2, 12257, Note_on_c, 0, 53, 0
2, 12268, Note_on_c, 0, 53, 52
2, 12268, Note_on_c, 0, 56, 56
2, 12372, Note_on_c, 0, 78, 0
2, 12380, Note_on_c, 0, 49, 0
2, 12381, Note_on_c, 0, 61, 75
2, 12382, Note_on_c, 0, 78, 95
2, 12385, Note_on_c, 0, 49, 62
2, 12390, Note_on_c, 0, 54, 59
2, 12395, Note_on_c, 0, 54, 0
2, 12403, Note_on_c, 0, 53, 0
2, 12408, Note_on_c, 0, 53, 36
2, 12495, Note_on_c, 0, 73, 0
2, 12499, Note_on_c, 0, 73, 74
2, 12587, Note_on_c, 0, 53, 0
2, 12595, Note_on_c, 0, 49, 0
2, 12598, Note_on_c, 0, 53, 58
2, 12606, Note_on_c, 0, 49, 55
2, 12630, Note_on_c, 0, 85, 87
2, 12748, Note_on_c, 0, 78, 0
2, 12758, Control_c, 0, 64, 0
2, 12759, Note_on_c, 0, 78, 96
2, 12760, Note_on_c, 0, 61, 0
2, 12760, Note_on_c, 0, 66, 0
2, 12760, Note_on_c, 0, 73, 0
2, 12761, Note_on_c, 0, 56, 0
2, 12761, Note_on_c, 0, 80, 0
2, 12761, Note_on_c, 0, 42, 73
2, 12761, Note_on_c, 0, 85, 0
2, 12762, Note_on_c, 0, 49, 0
2, 12763, Note_on_c, 0, 54, 70
2, 12779, Note_on_c, 0, 53, 0
2, 12887, Control_c, 0, 64, 127
2, 12902, Note_on_c, 0, 54, 0
2, 13000, Note_on_c, 0, 49, 69
2, 13004, Note_on_c, 0, 61, 50
2, 13135, Note_on_c, 0, 66, 79
2, 13136, Note_on_c, 0, 54, 65
2, 13255, Note_on_c, 0, 49, 0
2, 13255, Note_on_c, 0, 61, 0
2, 13264, Note_on_c, 0, 61, 53
2, 13264, Note_on_c, 0, 49, 64
2, 13379, Note_on_c, 0, 42, 0
2, 13381, Note_on_c, 0, 54, 0
2, 13382, Note_on_c, 0, 49, 0
2, 13382, Note_on_c, 0, 66, 0
2, 13383, Control_c, 0, 64, 0
2, 13388, Note_on_c, 0, 65, 87
2, 13388, Note_on_c, 0, 41, 65
2, 13401, Note_on_c, 0, 78, 0
2, 13409, Note_on_c, 0, 61, 0
2, 13463, Control_c, 0, 64, 127
2, 13523, Note_on_c, 0, 49, 63
2, 13649, Note_on_c, 0, 61, 71
2, 13659, Note_on_c, 0, 53, 62
2, 13724, Note_on_c, 0, 49, 0
2, 13734, Note_on_c, 0, 49, 75
2, 13865, Note_on_c, 0, 61, 0
2, 13865, Control_c, 0, 64, 0
2, 13865, Note_on_c, 0, 49, 0
2, 13866, Note_on_c, 0, 65, 0
2, 13866, Note_on_c, 0, 53, 0
2, 13870, Note_on_c, 0, 41, 0
2, 13885, Note_on_c, 0, 78, 102
2, 13888, Note_on_c, 0, 66, 92
2, 13896, Note_on_c, 0, 39, 81
2, 13898, Note_on_c, 0, 51, 86
2, 13954, Control_c, 0, 64, 127
2, 13985, Note_on_c, 0, 39, 0
2, 14150, Note_on_c, 0, 80, 94
2, 14156, Note_on_c, 0, 54, 80
2, 14258, Note_on_c, 0, 73, 76
2, 14289, Note_on_c, 0, 58, 66
2, 14384, Note_on_c, 0, 78, 0
2, 14388, Note_on_c, 0, 63, 78
2, 14389, Note_on_c, 0, 78, 98
2, 14392, Note_on_c, 0, 75, 86
2, 14507, Note_on_c, 0, 58, 0
2, 14507, Note_on_c, 0, 73, 0
2, 14517, Note_on_c, 0, 58, 69
2, 14517, Note_on_c, 0, 73, 78
2, 14561, Note_on_c, 0, 54, 0
2, 14572, Note_on_c, 0, 54, 75
2, 14635, Note_on_c, 0, 85, 87
2, 14745, Control_c, 0, 64, 0
2, 14745, Note_on_c, 0, 80, 0
2, 14746, Note_on_c, 0, 66, 0
2, 14747, Note_on_c, 0, 51, 0
2, 14747, Note_on_c, 0, 63, 0
2, 14748, Note_on_c, 0, 75, 0
2, 14748, Note_on_c, 0, 85, 0
2, 14753, Note_on_c, 0, 78, 0
2, 14760, Note_on_c, 0, 78, 100
2, 14760, Note_on_c, 0, 54, 0
2, 14760, Note_on_c, 0, 58, 0
2, 14768, Note_on_c, 0, 37, 77
2, 14768, Note_on_c, 0, 73, 0
2, 14769, Note_on_c, 0, 49, 77
2, 14816, Note_on_c, 0, 37, 0
2, 14837, Control_c, 0, 64, 127
2, 14991, Note_on_c, 0, 49, 0
2, 14999, Note_on_c, 0, 49, 64
2, 15129, Note_on_c, 0, 53, 65
2, 15130, Note_on_c, 0, 66, 80
2, 15259, Note_on_c, 0, 56, 64
2, 15376, Note_on_c, 0, 65, 79
2, 15380, Note_on_c, 0, 37, 59
2, 15381, Note_on_c, 0, 61, 68
2, 15467, Note_on_c, 0, 56, 0
2, 15477, Note_on_c, 0, 56, 74
2, 15613, Note_on_c, 0, 53, 0
2, 15613, Note_on_c, 0, 66, 0
2, 15619, Note_on_c, 0, 66, 79
2, 15621, Note_on_c, 0, 45, 56
2, 15624, Note_on_c, 0, 53, 64
2, 15628, Note_on_c, 0, 45, 0
2, 15705, Note_on_c, 0, 49, 0
2, 15710, Note_on_c, 0, 49, 71
2, 15866, Note_on_c, 0, 49, 0
2, 15867, Note_on_c, 0, 80, 102
2, 15869, Note_on_c, 0, 68, 90
2, 15876, Note_on_c, 0, 49, 71
2, 15878, Note_on_c, 0, 47, 66
2, 15890, Control_c, 0, 64, 0
2, 15891, Note_on_c, 0, 78, 0
2, 15893, Note_on_c, 0, 66, 0
2, 15893, Note_on_c, 0, 65, 0
2, 15893, Note_on_c, 0, 37, 0
2, 15893, Note_on_c, 0, 61, 0
2, 15894, Note_on_c, 0, 53, 0
2, 15905, Note_on_c, 0, 56, 0
2, 15920, Note_on_c, 0, 49, 0
2, 15982, Control_c, 0, 64, 127
2, 16002, Note_on_c, 0, 42, 69
2, 16104, Note_on_c, 0, 47, 0
2, 16112, Note_on_c, 0, 47, 74
2, 16243, Note_on_c, 0, 51, 66
2, 16385, Note_on_c, 0, 54, 62
2, 16499, Note_on_c, 0, 59, 72
2, 16628, Note_on_c, 0, 63, 59
2, 16757, Note_on_c, 0, 54, 0
2, 16764, Note_on_c, 0, 66, 60
2, 16768, Note_on_c, 0, 54, 55
2, 16867, Note_on_c, 0, 78, 86
2, 16870, Note_on_c, 0, 71, 76
2, 16980, Note_on_c, 0, 66, 0
2, 16986, Note_on_c, 0, 66, 65
2, 17111, Note_on_c, 0, 63, 0
2, 17121, Note_on_c, 0, 63, 61
2, 17121, Note_on_c, 0, 75, 65
2, 17241, Note_on_c, 0, 59, 0
2, 17250, Note_on_c, 0, 59, 66
2, 17372, Note_on_c, 0, 54, 0
2, 17379, Note_on_c, 0, 54, 59
2, 17479, Note_on_c, 0, 51, 0
2, 17486, Note_on_c, 0, 51, 66
2, 17602, Note_on_c, 0, 47, 0
2, 17607, Note_on_c, 0, 47, 53
2, 17710, Note_on_c, 0, 42, 0
2, 17717, Note_on_c, 0, 42, 64
2, 17841, Note_on_c, 0, 80, 0
2, 17842, Note_on_c, 0, 47, 0
2, 17842, Note_on_c, 0, 75, 0
2, 17842, Note_on_c, 0, 59, 0
2, 17842, Note_on_c, 0, 68, 0
2, 17842, Note_on_c, 0, 71, 0
2, 17842, Note_on_c, 0, 54, 0
2, 17842, Control_c, 0, 64, 0
2, 17842, Note_on_c, 0, 66, 0
2, 17843, Note_on_c, 0, 63, 0
2, 17843, Note_on_c, 0, 42, 0
2, 17856, Note_on_c, 0, 78, 0
2, 17865, Note_on_c, 0, 78, 88
2, 17871, Note_on_c, 0, 51, 0
2, 17872, Note_on_c, 0, 46, 67
2, 17883, Note_on_c, 0, 73, 62
2, 17948, Control_c, 0, 64, 127
2, 17989, Note_on_c, 0, 77, 71
2, 18101, Note_on_c, 0, 78, 0
2, 18106, Note_on_c, 0, 78, 83
2, 18112, Note_on_c, 0, 54, 60
2, 18224, Note_on_c, 0, 77, 0
2, 18228, Note_on_c, 0, 77, 81
2, 18231, Note_on_c, 0, 61, 62
2, 18347, Note_on_c, 0, 78, 0
2, 18355, Note_on_c, 0, 61, 0
2, 18355, Note_on_c, 0, 73, 0
2, 18357, Note_on_c, 0, 78, 90
2, 18359, Note_on_c, 0, 61, 52
2, 18361, Note_on_c, 0, 73, 61
2, 18493, Note_on_c, 0, 54, 0
2, 18500, Note_on_c, 0, 54, 58
2, 18600, Note_on_c, 0, 77, 0
2, 18605, Note_on_c, 0, 77, 84
2, 18708, Note_on_c, 0, 78, 0
2, 18718, Note_on_c, 0, 78, 90
2, 18734, Note_on_c, 0, 71, 70
2, 18735, Note_on_c, 0, 75, 64
2, 18847, Note_on_c, 0, 77, 0
2, 18847, Control_c, 0, 64, 0
2, 18848, Note_on_c, 0, 61, 0
2, 18848, Note_on_c, 0, 54, 0
2, 18849, Note_on_c, 0, 73, 0
2, 18854, Note_on_c, 0, 46, 0
2, 18854, Note_on_c, 0, 47, 69
2, 18931, Control_c, 0, 64, 127
2, 18977, Note_on_c, 0, 80, 83
2, 19100, Note_on_c, 0, 80, 0
2, 19104, Note_on_c, 0, 80, 85
2, 19105, Note_on_c, 0, 54, 61
2, 19240, Note_on_c, 0, 61, 62
2, 19241, Note_on_c, 0, 73, 59
2, 19246, Note_on_c, 0, 73, 0
2, 19491, Note_on_c, 0, 54, 0
2, 19502, Note_on_c, 0, 54, 59
2, 19607, Note_on_c, 0, 78, 0
2, 19616, Note_on_c, 0, 78, 85
2, 19722, Note_on_c, 0, 80, 0
2, 19727, Note_on_c, 0, 80, 80
2, 19872, Note_on_c, 0, 82, 89
2, 19873, Note_on_c, 0, 71, 0
2, 19873, Note_on_c, 0, 61, 0
2, 19873, Note_on_c, 0, 78, 0
2, 19875, Note_on_c, 0, 80, 0
2, 19876, Note_on_c, 0, 47, 0
2, 19877, Note_on_c, 0, 49, 65
2, 19882, Note_on_c, 0, 77, 74
2, 19883, Note_on_c, 0, 75, 0
2, 19886, Note_on_c, 0, 73, 68
2, 19891, Note_on_c, 0, 54, 0
2, 19894, Control_c, 0, 64, 0
2, 19983, Control_c, 0, 64, 127
2, 20132, Note_on_c, 0, 80, 85
2, 20134, Note_on_c, 0, 56, 60
2, 20267, Note_on_c, 0, 78, 87
2, 20283, Note_on_c, 0, 65, 59
2, 20517, Note_on_c, 0, 61, 57
2, 20636, Note_on_c, 0, 77, 0
2, 20643, Note_on_c, 0, 77, 86
2, 20759, Note_on_c, 0, 78, 0
2, 20763, Note_on_c, 0, 78, 89
2, 20782, Note_on_c, 0, 73, 0
2, 20788, Note_on_c, 0, 70, 69
2, 20793, Note_on_c, 0, 73, 60
2, 20884, Note_on_c, 0, 82, 0
2, 20884, Note_on_c, 0, 49, 0
2, 20885, Note_on_c, 0, 77, 0
2, 20885, Note_on_c, 0, 65, 0
2, 20885, Control_c, 0, 64, 0
2, 20885, Note_on_c, 0, 56, 0
2, 20886, Note_on_c, 0, 61, 0
2, 20886, Note_on_c, 0, 80, 0
2, 20896, Note_on_c, 0, 42, 64
2, 21020, Control_c, 0, 64, 127
2, 21163, Note_on_c, 0, 54, 60
2, 21396, Note_on_c, 0, 70, 0
2, 21397, Note_on_c, 0, 53, 54
2, 21398, Note_on_c, 0, 41, 68
2, 21402, Note_on_c, 0, 70, 58
2, 21431, Control_c, 0, 64, 0
2, 21432, Note_on_c, 0, 42, 0
2, 21435, Note_on_c, 0, 54, 0
2, 21480, Note_on_c, 0, 53, 0
2, 21542, Control_c, 0, 64, 127
2, 21655, Note_on_c, 0, 53, 66
2, 21876, Control_c, 0, 64, 0
2, 21884, Note_on_c, 0, 53, 0
2, 21887, Note_on_c, 0, 41, 0
2, 21888, Note_on_c, 0, 78, 0
2, 21892, Note_on_c, 0, 78, 81
2, 21894, Note_on_c, 0, 39, 65
2, 21895, Note_on_c, 0, 70, 0
2, 21905, Note_on_c, 0, 70, 69
2, 21906, Note_on_c, 0, 75, 68
2, 21911, Note_on_c, 0, 73, 0
2, 21957, Control_c, 0, 64, 127
2, 22020, Note_on_c, 0, 77, 75
2, 22141, Note_on_c, 0, 78, 0
2, 22149, Note_on_c, 0, 39, 0
2, 22149, Note_on_c, 0, 54, 69
2, 22150, Note_on_c, 0, 78, 81
2, 22264, Note_on_c, 0, 77, 0
2, 22275, Note_on_c, 0, 77, 81
2, 22276, Note_on_c, 0, 61, 58
2, 22394, Note_on_c, 0, 78, 0
2, 22405, Note_on_c, 0, 78, 87
2, 22540, Note_on_c, 0, 54, 0
2, 22551, Note_on_c, 0, 54, 63
2, 22648, Note_on_c, 0, 77, 0
2, 22656, Note_on_c, 0, 77, 87
2, 22763, Note_on_c, 0, 78, 0
2, 22774, Note_on_c, 0, 78, 89
2, 22778, Note_on_c, 0, 75, 0
2, 22784, Note_on_c, 0, 75, 79
2, 22796, Note_on_c, 0, 71, 71
2, 22867, Note_on_c, 0, 77, 0
2, 22873, Note_on_c, 0, 61, 0
2, 22873, Note_on_c, 0, 70, 0
2, 22874, Control_c, 0, 64, 0
2, 22876, Note_on_c, 0, 54, 0
2, 22905, Note_on_c, 0, 47, 71
2, 22978, Control_c, 0, 64, 127
2, 23036, Note_on_c, 0, 73, 78
2, 23155, Note_on_c, 0, 73, 0
2, 23161, Note_on_c, 0, 73, 80
2, 23163, Note_on_c, 0, 54, 67
2, 23289, Note_on_c, 0, 61, 62
2, 23523, Note_on_c, 0, 54, 0
2, 23535, Note_on_c, 0, 54, 64
2, 23535, Note_on_c, 0, 66, 54
2, 23546, Note_on_c, 0, 66, 0
2, 23639, Note_on_c, 0, 78, 0
2, 23643, Note_on_c, 0, 78, 88
2, 23745, Note_on_c, 0, 80, 85
2, 23869, Note_on_c, 0, 78, 0
2, 23874, Note_on_c, 0, 78, 86
2, 23876, Control_c, 0, 64, 0
2, 23879, Note_on_c, 0, 61, 0
2, 23880, Note_on_c, 0, 71, 0
2, 23880, Note_on_c, 0, 47, 0
2, 23880, Note_on_c, 0, 80, 0
2, 23889, Note_on_c, 0, 49, 69
2, 23892, Note_on_c, 0, 73, 0
2, 23898, Note_on_c, 0, 73, 57
2, 23900, Note_on_c, 0, 54, 0
2, 23900, Note_on_c, 0, 75, 0
2, 23909, Note_on_c, 0, 68, 61
2, 23984, Control_c, 0, 64, 127
2, 24138, Note_on_c, 0, 49, 0
2, 24138, Note_on_c, 0, 56, 60
2, 24263, Note_on_c, 0, 65, 64
2, 24381, Note_on_c, 0, 77, 86
2, 24767, Note_on_c, 0, 75, 83
2, 24890, Note_on_c, 0, 75, 0
2, 24895, Note_on_c, 0, 75, 85
2, 25006, Note_on_c, 0, 65, 0
2, 25012, Note_on_c, 0, 65, 60
2, 25130, Note_on_c, 0, 61, 68
2, 25244, Note_on_c, 0, 77, 0
2, 25251, Note_on_c, 0, 56, 0
2, 25255, Note_on_c, 0, 77, 90
2, 25258, Note_on_c, 0, 56, 69
2, 25259, Note_on_c, 0, 68, 0
2, 25266, Note_on_c, 0, 68, 64
2, 25367, Note_on_c, 0, 77, 0
2, 25372, Note_on_c, 0, 77, 85
2, 25382, Note_on_c, 0, 65, 0
2, 25388, Note_on_c, 0, 65, 60
2, 25393, Note_on_c, 0, 53, 70
2, 25490, Note_on_c, 0, 49, 66
2, 25621, Note_on_c, 0, 44, 65
2, 25732, Note_on_c, 0, 37, 63
2, 25732, Note_on_c, 0, 49, 0
2, 25841, Control_c, 0, 64, 0
2, 25845, Note_on_c, 0, 73, 0
2, 25846, Note_on_c, 0, 75, 0
2, 25846, Note_on_c, 0, 68, 0
2, 25846, Note_on_c, 0, 44, 0
2, 25846, Note_on_c, 0, 65, 0
2, 25846, Note_on_c, 0, 61, 0
2, 25846, Note_on_c, 0, 53, 0
2, 25846, Note_on_c, 0, 77, 0
2, 25846, Note_on_c, 0, 56, 0
2, 25850, Note_on_c, 0, 78, 0
2, 25861, Note_on_c, 0, 78, 102
2, 25866, Note_on_c, 0, 37, 0
2, 25875, Note_on_c, 0, 66, 80
2, 25875, Note_on_c, 0, 70, 84
2, 25877, Note_on_c, 0, 51, 82
2, 25878, Note_on_c, 0, 39, 80
2, 25916, Note_on_c, 0, 39, 0
2, 25935, Note_on_c, 0, 51, 0
2, 25943, Control_c, 0, 64, 127
2, 25993, Note_on_c, 0, 77, 74
2, 26104, Note_on_c, 0, 78, 0
2, 26112, Note_on_c, 0, 70, 0
2, 26115, Note_on_c, 0, 78, 84
2, 26116, Note_on_c, 0, 58, 71
2, 26118, Note_on_c, 0, 70, 64
2, 26227, Note_on_c, 0, 77, 0
2, 26231, Note_on_c, 0, 77, 81
2, 26239, Note_on_c, 0, 54, 66
2, 26350, Note_on_c, 0, 78, 0
2, 26359, Note_on_c, 0, 63, 74
2, 26359, Note_on_c, 0, 78, 91
2, 26361, Note_on_c, 0, 75, 78
2, 26488, Note_on_c, 0, 54, 0
2, 26498, Note_on_c, 0, 54, 62
2, 26595, Note_on_c, 0, 77, 0
2, 26603, Note_on_c, 0, 58, 0
2, 26604, Note_on_c, 0, 77, 89
2, 26611, Note_on_c, 0, 70, 0
2, 26612, Note_on_c, 0, 58, 75
2, 26616, Note_on_c, 0, 70, 66
2, 26718, Note_on_c, 0, 78, 0
2, 26728, Control_c, 0, 64, 0
2, 26729, Note_on_c, 0, 78, 102
2, 26731, Note_on_c, 0, 73, 86
2, 26732, Note_on_c, 0, 68, 97
2, 26733, Note_on_c, 0, 58, 0
2, 26780, Control_c, 0, 64, 127
2, 26848, Note_on_c, 0, 70, 0
2, 26849, Note_on_c, 0, 66, 0
2, 26849, Control_c, 0, 64, 0
2, 26850, Note_on_c, 0, 63, 0
2, 26850, Note_on_c, 0, 68, 0
2, 26851, Note_on_c, 0, 77, 0
2, 26856, Note_on_c, 0, 41, 77
2, 26856, Note_on_c, 0, 54, 0
2, 26856, Note_on_c, 0, 75, 0
2, 26860, Note_on_c, 0, 53, 73
2, 26941, Control_c, 0, 64, 127
2, 26984, Note_on_c, 0, 80, 95
2, 27095, Note_on_c, 0, 73, 0
2, 27095, Note_on_c, 0, 80, 0
2, 27099, Note_on_c, 0, 80, 101
2, 27104, Note_on_c, 0, 73, 81
2, 27105, Note_on_c, 0, 61, 76
2, 27244, Note_on_c, 0, 56, 64
2, 27364, Note_on_c, 0, 65, 74
2, 27366, Note_on_c, 0, 68, 64
2, 27479, Note_on_c, 0, 56, 0
2, 27484, Note_on_c, 0, 56, 70
2, 27594, Note_on_c, 0, 78, 0
2, 27601, Note_on_c, 0, 61, 0
2, 27604, Note_on_c, 0, 78, 96
2, 27613, Note_on_c, 0, 61, 72
2, 27663, Note_on_c, 0, 56, 0
2, 27674, Note_on_c, 0, 56, 47
2, 27717, Note_on_c, 0, 80, 0
2, 27726, Note_on_c, 0, 80, 91
2, 27818, Control_c, 0, 64, 0
2, 27821, Note_on_c, 0, 53, 0
2, 27821, Note_on_c, 0, 73, 0
2, 27821, Note_on_c, 0, 65, 0
2, 27822, Note_on_c, 0, 56, 0
2, 27822, Note_on_c, 0, 68, 0
2, 27822, Note_on_c, 0, 61, 0
2, 27823, Note_on_c, 0, 78, 0
2, 27823, Note_on_c, 0, 41, 0
2, 27823, Note_on_c, 0, 80, 0
2, 27858, Note_on_c, 0, 82, 100
2, 27859, Note_on_c, 0, 42, 78
2, 27859, Note_on_c, 0, 54, 75
2, 27862, Note_on_c, 0, 73, 86
2, 27866, Note_on_c, 0, 70, 87
2, 27947, Control_c, 0, 64, 127
2, 28108, Note_on_c, 0, 54, 0
2, 28111, Note_on_c, 0, 80, 89
2, 28119, Note_on_c, 0, 54, 63
2, 28121, Note_on_c, 0, 61, 67
2, 28222, Note_on_c, 0, 78, 96
2, 28265, Note_on_c, 0, 58, 66
2, 28367, Note_on_c, 0, 66, 86
2, 28485, Note_on_c, 0, 58, 0
2, 28485, Note_on_c, 0, 70, 0
2, 28492, Note_on_c, 0, 58, 71
2, 28493, Note_on_c, 0, 70, 69
2, 28608, Note_on_c, 0, 61, 0
2, 28608, Note_on_c, 0, 77, 87
2, 28613, Note_on_c, 0, 61, 62
2, 28723, Note_on_c, 0, 58, 0
2, 28723, Note_on_c, 0, 78, 0
2, 28730, Note_on_c, 0, 78, 92
2, 28732, Note_on_c, 0, 58, 64
2, 28861, Note_on_c, 0, 42, 0
2, 28865, Note_on_c, 0, 61, 0
2, 28865, Note_on_c, 0, 58, 0
2, 28865, Note_on_c, 0, 54, 0
2, 28865, Note_on_c, 0, 73, 0
2, 28865, Note_on_c, 0, 80, 0
2, 28865, Note_on_c, 0, 82, 0
2, 28866, Note_on_c, 0, 78, 0
2, 28867, Note_on_c, 0, 77, 0
2, 28869, Note_on_c, 0, 70, 0
2, 28870, Control_c, 0, 64, 0
2, 28872, Note_on_c, 0, 42, 74
2, 28876, Note_on_c, 0, 66, 0
2, 28878, Note_on_c, 0, 70, 84
2, 28883, Note_on_c, 0, 66, 65
2, 29015, Control_c, 0, 64, 127
2, 29130, Note_on_c, 0, 66, 0
2, 29140, Note_on_c, 0, 66, 60
2, 29141, Note_on_c, 0, 54, 70
2, 29278, Note_on_c, 0, 49, 68
2, 29280, Note_on_c, 0, 61, 54
2, 29352, Note_on_c, 0, 42, 0
2, 29354, Note_on_c, 0, 54, 0
2, 29354, Note_on_c, 0, 66, 0
2, 29356, Note_on_c, 0, 49, 0
2, 29356, Note_on_c, 0, 70, 0
2, 29358, Control_c, 0, 64, 0
2, 29360, Note_on_c, 0, 61, 0
2, 29366, Note_on_c, 0, 68, 85
2, 29377, Note_on_c, 0, 41, 69
2, 29379, Note_on_c, 0, 65, 67
2, 29422, Note_on_c, 0, 41, 0
2, 29460, Control_c, 0, 64, 127
2, 29617, Note_on_c, 0, 53, 67
2, 29726, Note_on_c, 0, 49, 67
2, 29827, Note_on_c, 0, 49, 0
2, 29827, Note_on_c, 0, 68, 0
2, 29828, Note_on_c, 0, 65, 0
2, 29829, Note_on_c, 0, 53, 0
2, 29830, Control_c, 0, 64, 0
2, 29864, Note_on_c, 0, 78, 93
2, 29872, Note_on_c, 0, 51, 83
2, 29872, Note_on_c, 0, 70, 83
2, 29877, Note_on_c, 0, 66, 74
2, 29879, Note_on_c, 0, 39, 71
2, 29936, Note_on_c, 0, 39, 0
2, 29936, Control_c, 0, 64, 127
2, 30004, Note_on_c, 0, 77, 81
2, 30113, Note_on_c, 0, 70, 0
2, 30113, Note_on_c, 0, 78, 0
2, 30117, Note_on_c, 0, 70, 69
2, 30117, Note_on_c, 0, 58, 73
2, 30118, Note_on_c, 0, 78, 83
2, 30236, Note_on_c, 0, 77, 0
2, 30246, Note_on_c, 0, 77, 77
2, 30256, Note_on_c, 0, 54, 64
2, 30351, Note_on_c, 0, 78, 0
2, 30362, Note_on_c, 0, 78, 91
2, 30366, Note_on_c, 0, 70, 0
2, 30370, Note_on_c, 0, 75, 80
2, 30371, Note_on_c, 0, 63, 74
2, 30371, Note_on_c, 0, 70, 67
2, 30481, Note_on_c, 0, 54, 0
2, 30487, Note_on_c, 0, 54, 61
2, 30589, Note_on_c, 0, 58, 0
2, 30589, Note_on_c, 0, 77, 0
2, 30599, Note_on_c, 0, 77, 83
2, 30600, Note_on_c, 0, 58, 68
2, 30712, Note_on_c, 0, 54, 0
2, 30712, Note_on_c, 0, 78, 0
2, 30717, Note_on_c, 0, 54, 56
2, 30721, Note_on_c, 0, 78, 90
2, 30843, Control_c, 0, 64, 0
2, 30845, Note_on_c, 0, 77, 0
2, 30846, Note_on_c, 0, 54, 0
2, 30846, Note_on_c, 0, 63, 0
2, 30846, Note_on_c, 0, 51, 0
2, 30846, Note_on_c, 0, 58, 0
2, 30846, Note_on_c, 0, 70, 0
2, 30846, Note_on_c, 0, 75, 0
2, 30847, Note_on_c, 0, 78, 0
2, 30848, Note_on_c, 0, 71, 84
2, 30849, Note_on_c, 0, 47, 78
2, 30850, Note_on_c, 0, 66, 0
2, 30856, Note_on_c, 0, 66, 68
2, 30935, Control_c, 0, 64, 127
2, 30997, Note_on_c, 0, 73, 74
2, 31096, Note_on_c, 0, 73, 0
2, 31098, Note_on_c, 0, 59, 78
2, 31101, Note_on_c, 0, 73, 87
2, 31222, Note_on_c, 0, 54, 66
2, 31336, Note_on_c, 0, 75, 71
2, 31336, Note_on_c, 0, 63, 68
2, 31449, Note_on_c, 0, 54, 0
2, 31459, Note_on_c, 0, 54, 68
2, 31598, Note_on_c, 0, 78, 93
2, 31599, Note_on_c, 0, 60, 72
2, 31604, Note_on_c, 0, 72, 71
2, 31715, Note_on_c, 0, 80, 91
2, 31823, Note_on_c, 0, 47, 0
2, 31823, Note_on_c, 0, 75, 0
2, 31824, Note_on_c, 0, 59, 0
2, 31824, Note_on_c, 0, 63, 0
2, 31824, Note_on_c, 0, 60, 0
2, 31824, Note_on_c, 0, 71, 0
2, 31824, Note_on_c, 0, 66, 0
2, 31825, Control_c, 0, 64, 0
2, 31826, Note_on_c, 0, 78, 0
2, 31826, Note_on_c, 0, 72, 0
2, 31827, Note_on_c, 0, 80, 0
2, 31840, Note_on_c, 0, 82, 100
2, 31841, Note_on_c, 0, 54, 0
2, 31841, Note_on_c, 0, 73, 0
2, 31844, Note_on_c, 0, 77, 87
2, 31844, Note_on_c, 0, 49, 83
2, 31847, Note_on_c, 0, 73, 84
2, 31918, Control_c, 0, 64, 127
2, 32089, Note_on_c, 0, 80, 90
2, 32092, Note_on_c, 0, 61, 69
2, 32205, Note_on_c, 0, 78, 94
2, 32240, Note_on_c, 0, 56, 52
2, 32343, Note_on_c, 0, 65, 75
2, 32440, Note_on_c, 0, 56, 0
2, 32451, Note_on_c, 0, 56, 68
2, 32570, Note_on_c, 0, 61, 0
2, 32570, Note_on_c, 0, 77, 0
2, 32581, Note_on_c, 0, 61, 64
2, 32582, Note_on_c, 0, 77, 88
2, 32701, Note_on_c, 0, 78, 0
2, 32709, Note_on_c, 0, 73, 0
2, 32709, Note_on_c, 0, 82, 0
2, 32710, Note_on_c, 0, 61, 0
2, 32711, Note_on_c, 0, 78, 98
2, 32711, Note_on_c, 0, 49, 0
2, 32711, Note_on_c, 0, 80, 0
2, 32711, Note_on_c, 0, 65, 0
2, 32712, Control_c, 0, 64, 0
2, 32716, Note_on_c, 0, 56, 0
2, 32718, Note_on_c, 0, 54, 75
2, 32719, Note_on_c, 0, 42, 71
2, 32724, Note_on_c, 0, 77, 0
2, 32855, Control_c, 0, 64, 127
2, 33093, Note_on_c, 0, 78, 0
2, 33102, Note_on_c, 0, 90, 96
2, 33103, Note_on_c, 0, 78, 85
2, 33358, Note_on_c, 0, 92, 97
2, 33364, Note_on_c, 0, 80, 76
2, 33612, Note_on_c, 0, 97, 103
2, 33618, Note_on_c, 0, 85, 82
2, 34147, Note_on_c, 0, 66, 65
2, 34168, Note_on_c, 0, 54, 0
2, 34178, Note_on_c, 0, 54, 34
2, 34409, Note_on_c, 0, 68, 70
2, 34644, Note_on_c, 0, 85, 0
2, 34655, Note_on_c, 0, 85, 82
2, 34659, Note_on_c, 0, 73, 69
2, 34913, Note_on_c, 0, 90, 0
2, 34923, Note_on_c, 0, 90, 92
2, 34932, Note_on_c, 0, 92, 0
2, 34932, Note_on_c, 0, 97, 0
2, 34932, Note_on_c, 0, 42, 0
2, 34933, Note_on_c, 0, 54, 0
2, 34933, Note_on_c, 0, 80, 0
2, 34933, Note_on_c, 0, 66, 0
2, 34936, Note_on_c, 0, 68, 0
2, 34937, Note_on_c, 0, 73, 0
2, 34937, Control_c, 0, 64, 0
2, 34946, Note_on_c, 0, 68, 63
2, 34950, Note_on_c, 0, 63, 46
2, 34959, Note_on_c, 0, 85, 0
2, 35066, Control_c, 0, 64, 127
2, 35182, Note_on_c, 0, 89, 85
2, 35182, Note_on_c, 0, 78, 0
2, 35193, Note_on_c, 0, 66, 49
2, 35427, Note_on_c, 0, 90, 0
2, 35434, Note_on_c, 0, 90, 92
2, 35452, Note_on_c, 0, 73, 56
2, 35688, Note_on_c, 0, 66, 0
2, 35688, Note_on_c, 0, 90, 0
2, 35698, Note_on_c, 0, 66, 56
2, 35700, Note_on_c, 0, 90, 90
2, 35942, Note_on_c, 0, 68, 0
2, 35947, Note_on_c, 0, 61, 55
2, 35947, Note_on_c, 0, 68, 70
2, 35967, Control_c, 0, 64, 0
2, 35976, Note_on_c, 0, 73, 0
2, 35977, Note_on_c, 0, 66, 0
2, 35977, Note_on_c, 0, 63, 0
2, 36042, Control_c, 0, 64, 127
2, 36203, Note_on_c, 0, 90, 0
2, 36207, Note_on_c, 0, 90, 92
2, 36209, Note_on_c, 0, 66, 60
2, 36449, Note_on_c, 0, 89, 0
2, 36455, Note_on_c, 0, 89, 93
2, 36460, Note_on_c, 0, 73, 71
2, 36714, Note_on_c, 0, 85, 83
2, 36718, Note_on_c, 0, 66, 0
2, 36723, Note_on_c, 0, 66, 64
2, 36963, Note_on_c, 0, 68, 0
2, 36967, Note_on_c, 0, 89, 0
2, 36967, Note_on_c, 0, 66, 0
2, 36967, Note_on_c, 0, 73, 0
2, 36967, Note_on_c, 0, 61, 0
2, 36969, Note_on_c, 0, 68, 68
2, 36971, Note_on_c, 0, 59, 64
2, 36978, Control_c, 0, 64, 0
2, 37056, Control_c, 0, 64, 127
2, 37236, Note_on_c, 0, 66, 61
2, 37237, Note_on_c, 0, 83, 79
2, 37488, Note_on_c, 0, 82, 81
2, 37492, Note_on_c, 0, 73, 66
2, 37601, Note_on_c, 0, 59, 0
2, 37601, Note_on_c, 0, 83, 0
2, 37610, Note_on_c, 0, 83, 76
2, 37612, Note_on_c, 0, 59, 41
2, 37731, Note_on_c, 0, 66, 0
2, 37731, Note_on_c, 0, 85, 0
2, 37739, Note_on_c, 0, 59, 0
2, 37742, Note_on_c, 0, 85, 82
2, 37743, Note_on_c, 0, 66, 66
2, 37744, Note_on_c, 0, 59, 43
2, 38000, Note_on_c, 0, 68, 0
2, 38000, Note_on_c, 0, 90, 0
2, 38010, Note_on_c, 0, 68, 62
2, 38013, Note_on_c, 0, 54, 53
2, 38016, Note_on_c, 0, 59, 0
2, 38017, Note_on_c, 0, 73, 0
2, 38017, Note_on_c, 0, 83, 0
2, 38023, Control_c, 0, 64, 0
2, 38046, Note_on_c, 0, 66, 0
2, 38092, Control_c, 0, 64, 127
2, 38289, Note_on_c, 0, 66, 66
2, 38529, Note_on_c, 0, 66, 0
2, 38533, Control_c, 0, 64, 0
2, 38535, Note_on_c, 0, 65, 63
2, 38536, Note_on_c, 0, 53, 66
2, 38538, Note_on_c, 0, 54, 0
2, 38545, Note_on_c, 0, 68, 0
2, 38599, Control_c, 0, 64, 127
2, 38782, Note_on_c, 0, 61, 67
2, 38784, Note_on_c, 0, 85, 0
2, 38795, Note_on_c, 0, 85, 78
2, 39041, Note_on_c, 0, 61, 0
2, 39041, Note_on_c, 0, 65, 0
2, 39041, Note_on_c, 0, 85, 0
2, 39041, Note_on_c, 0, 53, 0
2, 39046, Control_c, 0, 64, 0
2, 39047, Note_on_c, 0, 90, 94
2, 39050, Note_on_c, 0, 51, 77
2, 39052, Note_on_c, 0, 63, 71
2, 39106, Note_on_c, 0, 82, 0
2, 39121, Control_c, 0, 64, 127
2, 39299, Note_on_c, 0, 89, 88
2, 39310, Note_on_c, 0, 66, 61
2, 39544, Note_on_c, 0, 90, 0
2, 39552, Note_on_c, 0, 90, 94
2, 39558, Note_on_c, 0, 73, 62
2, 39805, Note_on_c, 0, 66, 0
2, 39805, Note_on_c, 0, 90, 0
2, 39812, Note_on_c, 0, 66, 65
2, 39816, Note_on_c, 0, 90, 96
2, 40033, Note_on_c, 0, 73, 0
2, 40033, Note_on_c, 0, 63, 0
2, 40034, Note_on_c, 0, 66, 0
2, 40034, Note_on_c, 0, 51, 0
2, 40038, Control_c, 0, 64, 0
2, 40064, Note_on_c, 0, 49, 76
2, 40066, Note_on_c, 0, 61, 71
2, 40112, Control_c, 0, 64, 127
2, 40296, Note_on_c, 0, 90, 0
2, 40308, Note_on_c, 0, 90, 101
2, 40309, Note_on_c, 0, 66, 70
2, 40550, Note_on_c, 0, 89, 0
2, 40558, Note_on_c, 0, 89, 92
2, 40561, Note_on_c, 0, 73, 75
2, 40803, Note_on_c, 0, 66, 0
2, 40805, Note_on_c, 0, 78, 70
2, 40806, Note_on_c, 0, 85, 89
2, 40810, Note_on_c, 0, 66, 69
2, 40811, Note_on_c, 0, 78, 0
2, 41041, Note_on_c, 0, 90, 0
2, 41049, Note_on_c, 0, 90, 101
2, 41057, Note_on_c, 0, 83, 88
2, 41057, Note_on_c, 0, 78, 88
2, 41058, Note_on_c, 0, 87, 89
2, 41058, Note_on_c, 0, 63, 76
2, 41058, Note_on_c, 0, 89, 0
2, 41059, Note_on_c, 0, 66, 0
2, 41059, Note_on_c, 0, 73, 0
2, 41059, Control_c, 0, 64, 0
2, 41060, Note_on_c, 0, 85, 0
2, 41060, Note_on_c, 0, 49, 0
2, 41061, Note_on_c, 0, 51, 80
2, 41072, Note_on_c, 0, 61, 0
2, 41141, Control_c, 0, 64, 127
2, 41300, Note_on_c, 0, 59, 72
2, 41431, Control_c, 0, 64, 0
2, 41434, Note_on_c, 0, 59, 0
2, 41434, Note_on_c, 0, 78, 0
2, 41435, Note_on_c, 0, 63, 0
2, 41435, Note_on_c, 0, 87, 0
2, 41437, Note_on_c, 0, 83, 0
2, 41437, Note_on_c, 0, 51, 0
2, 41442, Note_on_c, 0, 92, 105
2, 41448, Note_on_c, 0, 90, 0
2, 41451, Note_on_c, 0, 80, 83
2, 41452, Note_on_c, 0, 89, 81
2, 41453, Note_on_c, 0, 65, 75
2, 41453, Note_on_c, 0, 85, 82
2, 41457, Note_on_c, 0, 53, 74
2, 41502, Control_c, 0, 64, 127
2, 41525, Note_on_c, 0, 65, 0
2, 41705, Note_on_c, 0, 61, 64
2, 41811, Note_on_c, 0, 80, 0
2, 41811, Control_c, 0, 64, 0
2, 41812, Note_on_c, 0, 92, 0
2, 41813, Note_on_c, 0, 61, 0
2, 41813, Note_on_c, 0, 53, 0
2, 41817, Note_on_c, 0, 89, 0
2, 41824, Note_on_c, 0, 97, 106
2, 41825, Note_on_c, 0, 85, 0
2, 41829, Note_on_c, 0, 94, 98
2, 41830, Note_on_c, 0, 90, 93
2, 41832, Note_on_c, 0, 85, 90
2, 41841, Note_on_c, 0, 66, 74
2, 41844, Note_on_c, 0, 54, 70
2, 41917, Control_c, 0, 64, 127
2, 42327, Control_c, 0, 64, 0
2, 42337, Note_on_c, 0, 95, 99
2, 42343, Note_on_c, 0, 61, 72
2, 42343, Note_on_c, 0, 90, 0
2, 42346, Note_on_c, 0, 83, 85
2, 42370, Control_c, 0, 64, 127
2, 42424, Note_on_c, 0, 54, 0
2, 42570, Note_on_c, 0, 94, 0
2, 42580, Note_on_c, 0, 94, 104
2, 42582, Note_on_c, 0, 82, 93
2, 42591, Note_on_c, 0, 68, 83
2, 42591, Note_on_c, 0, 56, 79
2, 42608, Note_on_c, 0, 97, 0
2, 42843, Note_on_c, 0, 90, 98
2, 42847, Note_on_c, 0, 78, 92
2, 42858, Note_on_c, 0, 58, 68
2, 42858, Note_on_c, 0, 70, 77
2, 43107, Note_on_c, 0, 66, 0
2, 43107, Note_on_c, 0, 95, 0
2, 43109, Note_on_c, 0, 92, 103
2, 43110, Note_on_c, 0, 56, 0
2, 43111, Note_on_c, 0, 78, 0
2, 43111, Note_on_c, 0, 85, 0
2, 43111, Note_on_c, 0, 58, 0
2, 43111, Note_on_c, 0, 71, 87
2, 43111, Note_on_c, 0, 80, 86
2, 43111, Note_on_c, 0, 82, 0
2, 43111, Note_on_c, 0, 68, 0
2, 43111, Note_on_c, 0, 94, 0
2, 43111, Note_on_c, 0, 83, 0
2, 43111, Note_on_c, 0, 61, 0
2, 43111, Note_on_c, 0, 70, 0
2, 43112, Note_on_c, 0, 59, 79
2, 43113, Note_on_c, 0, 87, 87
2, 43114, Note_on_c, 0, 66, 76
2, 43115, Control_c, 0, 64, 0
2, 43276, Control_c, 0, 64, 127
2, 43998, Note_on_c, 0, 90, 0
2, 44004, Note_on_c, 0, 90, 92
2, 44112, Control_c, 0, 64, 0
2, 44116, Note_on_c, 0, 71, 0
2, 44116, Note_on_c, 0, 87, 0
2, 44116, Note_on_c, 0, 59, 0
2, 44117, Note_on_c, 0, 66, 0
2, 44117, Note_on_c, 0, 80, 0
2, 44153, Note_on_c, 0, 94, 107
2, 44154, Note_on_c, 0, 68, 86
2, 44157, Note_on_c, 0, 82, 97
2, 44157, Note_on_c, 0, 73, 85
2, 44163, Note_on_c, 0, 61, 72
2, 44213, Control_c, 0, 64, 127
2, 44229, Note_on_c, 0, 90, 0
2, 44382, Note_on_c, 0, 92, 0
2, 44394, Note_on_c, 0, 95, 100
2, 44394, Note_on_c, 0, 83, 91
2, 44524, Note_on_c, 0, 92, 104
2, 44544, Note_on_c, 0, 82, 0
2, 44553, Note_on_c, 0, 82, 64
2, 44556, Note_on_c, 0, 90, 58
2, 44659, Note_on_c, 0, 103, 87
2, 44666, Note_on_c, 0, 103, 0
2, 44702, Note_on_c, 0, 102, 82
2, 44730, Note_on_c, 0, 99, 94
2, 44757, Note_on_c, 0, 97, 85
2, 44766, Note_on_c, 0, 94, 0
2, 44777, Note_on_c, 0, 94, 85
2, 44797, Note_on_c, 0, 92, 0
2, 44808, Note_on_c, 0, 92, 82
2, 44820, Note_on_c, 0, 90, 0
2, 44831, Note_on_c, 0, 90, 78
2, 44862, Note_on_c, 0, 87, 77
2, 44890, Note_on_c, 0, 85, 71
2, 44928, Note_on_c, 0, 82, 0
2, 44931, Note_on_c, 0, 82, 74
2, 44962, Note_on_c, 0, 80, 59
2, 44992, Note_on_c, 0, 78, 74
2, 45029, Note_on_c, 0, 75, 78
2, 45050, Note_on_c, 0, 73, 0
2, 45062, Note_on_c, 0, 73, 80
2, 45108, Note_on_c, 0, 70, 73
2, 45181, Note_on_c, 0, 61, 0
2, 45181, Note_on_c, 0, 73, 0
2, 45184, Note_on_c, 0, 42, 88
2, 45185, Note_on_c, 0, 73, 97
2, 45185, Note_on_c, 0, 49, 80
2, 45185, Note_on_c, 0, 61, 92
2, 45186, Note_on_c, 0, 54, 82
2, 45197, Control_c, 0, 64, 0
2, 45200, Note_on_c, 0, 85, 0
2, 45201, Note_on_c, 0, 95, 0
2, 45201, Note_on_c, 0, 97, 0
2, 45201, Note_on_c, 0, 82, 0
2, 45201, Note_on_c, 0, 90, 0
2, 45203, Note_on_c, 0, 99, 0
2, 45204, Note_on_c, 0, 83, 0
2, 45204, Note_on_c, 0, 87, 0
2, 45205, Note_on_c, 0, 70, 0
2, 45207, Note_on_c, 0, 78, 0
2, 45207, Note_on_c, 0, 75, 0
2, 45207, Note_on_c, 0, 80, 0
2, 45219, Note_on_c, 0, 68, 0
2, 45219, Note_on_c, 0, 92, 0
2, 45227, Note_on_c, 0, 94, 0
2, 45242, Note_on_c, 0, 102, 0
2, 45319, Control_c, 0, 64, 127
2, 45442, Note_on_c, 0, 49, 0
2, 45442, Note_on_c, 0, 54, 0
2, 45442, Note_on_c, 0, 61, 0
2, 45446, Note_on_c, 0, 78, 103
2, 45446, Note_on_c, 0, 61, 67
2, 45448, Note_on_c, 0, 66, 83
2, 45449, Note_on_c, 0, 58, 77
2, 45450, Note_on_c, 0, 54, 75
2, 45453, Note_on_c, 0, 49, 66
2, 45504, Note_on_c, 0, 42, 0
2, 45557, Note_on_c, 0, 78, 0
2, 45565, Note_on_c, 0, 49, 0
2, 45565, Note_on_c, 0, 54, 0
2, 45565, Note_on_c, 0, 66, 0
2, 45568, Note_on_c, 0, 78, 100
2, 45570, Note_on_c, 0, 66, 82
2, 45571, Note_on_c, 0, 49, 66
2, 45575, Note_on_c, 0, 54, 62
2, 45696, Note_on_c, 0, 58, 0
2, 45696, Note_on_c, 0, 61, 0
2, 45699, Note_on_c, 0, 58, 72
2, 45704, Note_on_c, 0, 61, 70
2, 45705, Note_on_c, 0, 70, 73
2, 45834, Note_on_c, 0, 49, 0
2, 45841, Note_on_c, 0, 54, 0
2, 45842, Note_on_c, 0, 49, 69
2, 45844, Note_on_c, 0, 80, 99
2, 45847, Note_on_c, 0, 68, 87
2, 45849, Note_on_c, 0, 54, 61
2, 45964, Note_on_c, 0, 58, 0
2, 45970, Note_on_c, 0, 58, 71
2, 45972, Note_on_c, 0, 54, 0
2, 45976, Note_on_c, 0, 54, 59
2, 46080, Note_on_c, 0, 78, 0
2, 46087, Note_on_c, 0, 54, 0
2, 46087, Note_on_c, 0, 66, 0
2, 46089, Note_on_c, 0, 78, 102
2, 46093, Note_on_c, 0, 54, 76
2, 46098, Note_on_c, 0, 66, 88
2, 46167, Note_on_c, 0, 58, 0
2, 46167, Note_on_c, 0, 68, 0
2, 46167, Note_on_c, 0, 70, 0
2, 46168, Note_on_c, 0, 80, 0
2, 46172, Note_on_c, 0, 73, 0
2, 46175, Control_c, 0, 64, 0
2, 46179, Note_on_c, 0, 49, 0
2, 46179, Note_on_c, 0, 61, 0
2, 46202, Note_on_c, 0, 54, 0
2, 46207, Note_on_c, 0, 47, 82
2, 46209, Note_on_c, 0, 54, 66
2, 46211, Note_on_c, 0, 59, 81
2, 46212, Note_on_c, 0, 71, 72
2, 46248, Control_c, 0, 64, 127
2, 46353, Note_on_c, 0, 80, 95
2, 46359, Note_on_c, 0, 68, 86
2, 46464, Note_on_c, 0, 59, 0
2, 46471, Note_on_c, 0, 59, 78
2, 46479, Note_on_c, 0, 54, 0
2, 46484, Note_on_c, 0, 54, 62
2, 46602, Note_on_c, 0, 82, 102
2, 46608, Note_on_c, 0, 70, 92
2, 46732, Note_on_c, 0, 59, 0
2, 46732, Note_on_c, 0, 71, 0
2, 46737, Note_on_c, 0, 63, 75
2, 46737, Note_on_c, 0, 59, 76
2, 46738, Note_on_c, 0, 75, 75
2, 46740, Note_on_c, 0, 71, 73
2, 46848, Note_on_c, 0, 59, 0
2, 46855, Note_on_c, 0, 71, 0
2, 46858, Note_on_c, 0, 83, 100
2, 46859, Note_on_c, 0, 59, 72
2, 46860, Note_on_c, 0, 71, 97
2, 46978, Note_on_c, 0, 59, 0
2, 46988, Note_on_c, 0, 59, 73
2, 47024, Note_on_c, 0, 54, 0
2, 47031, Note_on_c, 0, 54, 62
2, 47122, Note_on_c, 0, 44, 65
2, 47123, Note_on_c, 0, 56, 62
2, 47126, Note_on_c, 0, 85, 100
2, 47128, Note_on_c, 0, 61, 61
2, 47130, Note_on_c, 0, 73, 89
2, 47132, Note_on_c, 0, 44, 0
2, 47132, Note_on_c, 0, 61, 0
2, 47194, Note_on_c, 0, 80, 0
2, 47194, Note_on_c, 0, 54, 0
2, 47194, Note_on_c, 0, 82, 0
2, 47195, Note_on_c, 0, 68, 0
2, 47195, Note_on_c, 0, 70, 0
2, 47195, Note_on_c, 0, 71, 0
2, 47196, Note_on_c, 0, 63, 0
2, 47196, Note_on_c, 0, 83, 0
2, 47196, Note_on_c, 0, 75, 0
2, 47198, Control_c, 0, 64, 0
2, 47201, Note_on_c, 0, 66, 0
2, 47208, Note_on_c, 0, 47, 0
2, 47216, Note_on_c, 0, 59, 0
2, 47216, Note_on_c, 0, 78, 0
2, 47239, Note_on_c, 0, 56, 0
2, 47243, Note_on_c, 0, 49, 74
2, 47243, Note_on_c, 0, 61, 71
2, 47245, Note_on_c, 0, 56, 70
2, 47293, Control_c, 0, 64, 127
2, 47385, Note_on_c, 0, 80, 96
2, 47388, Note_on_c, 0, 68, 91
2, 47393, Note_on_c, 0, 56, 0
2, 47399, Note_on_c, 0, 56, 61
2, 47493, Note_on_c, 0, 61, 0
2, 47497, Note_on_c, 0, 61, 73
2, 47500, Note_on_c, 0, 56, 0
2, 47505, Note_on_c, 0, 56, 60
2, 47633, Note_on_c, 0, 82, 101
2, 47640, Note_on_c, 0, 70, 90
2, 47754, Note_on_c, 0, 56, 0
2, 47754, Note_on_c, 0, 61, 0
2, 47758, Note_on_c, 0, 61, 62
2, 47763, Note_on_c, 0, 65, 71
2, 47763, Note_on_c, 0, 56, 60
2, 47884, Note_on_c, 0, 56, 0
2, 47888, Note_on_c, 0, 83, 98
2, 47889, Note_on_c, 0, 56, 67
2, 47893, Note_on_c, 0, 71, 94
2, 48000, Note_on_c, 0, 61, 0
2, 48010, Note_on_c, 0, 61, 72
2, 48023, Note_on_c, 0, 56, 0
2, 48032, Note_on_c, 0, 56, 57
2, 48130, Note_on_c, 0, 70, 0
2, 48130, Note_on_c, 0, 82, 0
2, 48136, Note_on_c, 0, 82, 102
2, 48138, Note_on_c, 0, 70, 99
2, 48145, Note_on_c, 0, 49, 0
2, 48156, Note_on_c, 0, 49, 61
2, 48248, Note_on_c, 0, 65, 0
2, 48248, Control_c, 0, 64, 0
2, 48249, Note_on_c, 0, 49, 0
2, 48249, Note_on_c, 0, 80, 0
2, 48249, Note_on_c, 0, 56, 0
2, 48249, Note_on_c, 0, 73, 0
2, 48249, Note_on_c, 0, 68, 0
2, 48249, Note_on_c, 0, 85, 0
2, 48250, Note_on_c, 0, 83, 0
2, 48250, Note_on_c, 0, 71, 0
2, 48260, Note_on_c, 0, 50, 82
2, 48261, Note_on_c, 0, 61, 0
2, 48337, Control_c, 0, 64, 127
2, 48515, Note_on_c, 0, 74, 73
2, 48519, Note_on_c, 0, 62, 74
2, 48522, Note_on_c, 0, 70, 0
2, 48525, Note_on_c, 0, 58, 71
2, 48525, Note_on_c, 0, 53, 60
2, 48526, Note_on_c, 0, 70, 63
2, 48637, Note_on_c, 0, 70, 0
2, 48637, Note_on_c, 0, 82, 0
2, 48644, Note_on_c, 0, 82, 96
2, 48646, Note_on_c, 0, 70, 92
2, 48778, Note_on_c, 0, 83, 96
2, 48780, Note_on_c, 0, 71, 86
2, 48787, Note_on_c, 0, 46, 72
2, 48883, Note_on_c, 0, 82, 0
2, 48890, Note_on_c, 0, 70, 0
2, 48893, Note_on_c, 0, 82, 93
2, 48896, Note_on_c, 0, 70, 89
2, 49006, Note_on_c, 0, 62, 0
2, 49006, Note_on_c, 0, 74, 0
2, 49011, Note_on_c, 0, 80, 94
2, 49011, Note_on_c, 0, 74, 74
2, 49013, Note_on_c, 0, 46, 0
2, 49017, Note_on_c, 0, 62, 73
2, 49017, Note_on_c, 0, 68, 84
2, 49021, Note_on_c, 0, 58, 0
2, 49023, Note_on_c, 0, 46, 66
2, 49026, Note_on_c, 0, 58, 64
2, 49137, Note_on_c, 0, 78, 100
2, 49140, Note_on_c, 0, 66, 83
2, 49144, Note_on_c, 0, 58, 0
2, 49148, Note_on_c, 0, 58, 68
2, 49230, Control_c, 0, 64, 0
2, 49230, Note_on_c, 0, 83, 0
2, 49231, Note_on_c, 0, 53, 0
2, 49231, Note_on_c, 0, 74, 0
2, 49232, Note_on_c, 0, 78, 0
2, 49232, Note_on_c, 0, 70, 0
2, 49232, Note_on_c, 0, 71, 0
2, 49232, Note_on_c, 0, 50, 0
2, 49232, Note_on_c, 0, 58, 0
2, 49232, Note_on_c, 0, 46, 0
2, 49232, Note_on_c, 0, 66, 0
2, 49244, Note_on_c, 0, 62, 0
2, 49244, Note_on_c, 0, 82, 0
2, 49251, Note_on_c, 0, 80, 0
2, 49259, Note_on_c, 0, 68, 0
2, 49263, Note_on_c, 0, 80, 97
2, 49263, Note_on_c, 0, 75, 81
2, 49265, Note_on_c, 0, 63, 82
2, 49265, Note_on_c, 0, 68, 86
2, 49267, Note_on_c, 0, 75, 0
2, 49267, Note_on_c, 0, 51, 89
2, 49305, Control_c, 0, 64, 127
2, 49443, Note_on_c, 0, 63, 0
2, 49512, Note_on_c, 0, 51, 0
2, 49515, Note_on_c, 0, 78, 98
2, 49517, Note_on_c, 0, 66, 95
2, 49521, Note_on_c, 0, 75, 91
2, 49523, Note_on_c, 0, 70, 90
2, 49524, Note_on_c, 0, 51, 87
2, 49525, Note_on_c, 0, 39, 83
2, 49564, Note_on_c, 0, 80, 0
2, 49569, Note_on_c, 0, 51, 0
2, 49570, Note_on_c, 0, 66, 0
2, 49570, Note_on_c, 0, 70, 0
2, 49570, Note_on_c, 0, 75, 0
2, 49571, Note_on_c, 0, 78, 0
2, 49573, Control_c, 0, 64, 0
2, 49574, Note_on_c, 0, 68, 0
2, 49576, Note_on_c, 0, 39, 0
2, 49639, Note_on_c, 0, 78, 104
2, 49642, Note_on_c, 0, 66, 95
2, 49647, Note_on_c, 0, 75, 97
2, 49647, Note_on_c, 0, 70, 91
2, 49648, Note_on_c, 0, 39, 89
2, 49652, Note_on_c, 0, 51, 90
2, 49694, Note_on_c, 0, 39, 0
2, 49720, Note_on_c, 0, 51, 0
2, 49758, Control_c, 0, 64, 127
2, 49911, Note_on_c, 0, 39, 59
2, 49921, Note_on_c, 0, 51, 56
2, 50004, Note_on_c, 0, 51, 0
2, 50014, Note_on_c, 0, 51, 78
2, 50132, Control_c, 0, 64, 0
2, 50137, Note_on_c, 0, 51, 0
2, 50138, Note_on_c, 0, 39, 0
2, 50154, Note_on_c, 0, 37, 80
2, 50155, Note_on_c, 0, 49, 80
2, 50219, Control_c, 0, 64, 127
2, 50250, Note_on_c, 0, 37, 0
2, 50411, Note_on_c, 0, 49, 0
2, 50422, Note_on_c, 0, 49, 62
2, 50534, Note_on_c, 0, 61, 72
2, 50542, Note_on_c, 0, 49, 0
2, 50544, Note_on_c, 0, 53, 64
2, 50546, Note_on_c, 0, 49, 50
2, 50547, Note_on_c, 0, 56, 62
2, 50634, Note_on_c, 0, 75, 0
2, 50643, Note_on_c, 0, 75, 95
2, 50652, Note_on_c, 0, 63, 73
2, 50764, Note_on_c, 0, 63, 0
2, 50764, Note_on_c, 0, 70, 0
2, 50764, Note_on_c, 0, 75, 0
2, 50768, Note_on_c, 0, 75, 94
2, 50771, Note_on_c, 0, 63, 70
2, 50772, Note_on_c, 0, 49, 0
2, 50774, Note_on_c, 0, 70, 71
2, 50776, Note_on_c, 0, 49, 72
2, 50884, Note_on_c, 0, 77, 91
2, 50900, Note_on_c, 0, 65, 65
2, 50995, Note_on_c, 0, 78, 0
2, 51002, Note_on_c, 0, 49, 0
2, 51002, Note_on_c, 0, 66, 0
2, 51006, Note_on_c, 0, 78, 97
2, 51007, Note_on_c, 0, 47, 72
2, 51009, Note_on_c, 0, 66, 88
2, 51010, Note_on_c, 0, 53, 0
2, 51013, Note_on_c, 0, 61, 0
2, 51013, Note_on_c, 0, 49, 79
2, 51018, Note_on_c, 0, 47, 0
2, 51018, Note_on_c, 0, 56, 0
2, 51021, Note_on_c, 0, 53, 68
2, 51115, Note_on_c, 0, 80, 100
2, 51120, Note_on_c, 0, 68, 81
2, 51207, Note_on_c, 0, 75, 0
2, 51207, Note_on_c, 0, 70, 0
2, 51207, Note_on_c, 0, 77, 0
2, 51207, Control_c, 0, 64, 0
2, 51207, Note_on_c, 0, 68, 0
2, 51207, Note_on_c, 0, 66, 0
2, 51208, Note_on_c, 0, 53, 0
2, 51208, Note_on_c, 0, 65, 0
2, 51208, Note_on_c, 0, 63, 0
2, 51209, Note_on_c, 0, 80, 0
2, 51225, Note_on_c, 0, 49, 0
2, 51225, Note_on_c, 0, 78, 0
2, 51242, Note_on_c, 0, 85, 94
2, 51247, Note_on_c, 0, 51, 86
2, 51247, Note_on_c, 0, 54, 80
2, 51247, Note_on_c, 0, 71, 85
2, 51250, Note_on_c, 0, 73, 86
2, 51250, Note_on_c, 0, 59, 92
2, 51252, Note_on_c, 0, 47, 84
2, 51294, Control_c, 0, 64, 127
2, 51386, Note_on_c, 0, 47, 0
2, 51386, Note_on_c, 0, 59, 0
2, 51394, Note_on_c, 0, 51, 0
2, 51397, Note_on_c, 0, 59, 75
2, 51398, Note_on_c, 0, 47, 61
2, 51398, Note_on_c, 0, 51, 62
2, 51499, Note_on_c, 0, 82, 99
2, 51503, Note_on_c, 0, 70, 92
2, 51598, Note_on_c, 0, 85, 0
2, 51598, Note_on_c, 0, 51, 0
2, 51599, Note_on_c, 0, 71, 0
2, 51601, Control_c, 0, 64, 0
2, 51609, Note_on_c, 0, 54, 0
2, 51609, Note_on_c, 0, 73, 0
2, 51609, Note_on_c, 0, 82, 0
2, 51617, Note_on_c, 0, 47, 0
2, 51617, Note_on_c, 0, 59, 0
2, 51617, Note_on_c, 0, 70, 0
2, 51620, Note_on_c, 0, 82, 96
2, 51622, Note_on_c, 0, 47, 82
2, 51622, Note_on_c, 0, 70, 97
2, 51627, Note_on_c, 0, 35, 71
2, 51660, Note_on_c, 0, 70, 0
2, 51660, Note_on_c, 0, 47, 0
2, 51663, Note_on_c, 0, 35, 0
2, 51686, Note_on_c, 0, 82, 0
2, 51694, Control_c, 0, 64, 127
2, 51743, Note_on_c, 0, 47, 76
2, 51871, Note_on_c, 0, 80, 99
2, 51874, Note_on_c, 0, 68, 90
2, 51878, Note_on_c, 0, 47, 0
2, 51882, Note_on_c, 0, 59, 64
2, 51885, Note_on_c, 0, 47, 60
2, 51893, Note_on_c, 0, 59, 0
2, 51977, Control_c, 0, 64, 0
2, 51985, Note_on_c, 0, 47, 0
2, 51985, Control_c, 0, 64, 127
2, 51989, Note_on_c, 0, 59, 84
2, 51990, Note_on_c, 0, 47, 78
2, 51990, Note_on_c, 0, 51, 77
2, 51990, Note_on_c, 0, 54, 74
2, 52108, Note_on_c, 0, 47, 0
2, 52108, Note_on_c, 0, 59, 0
2, 52113, Note_on_c, 0, 78, 102
2, 52116, Note_on_c, 0, 51, 0
2, 52116, Note_on_c, 0, 54, 0
2, 52118, Note_on_c, 0, 59, 86
2, 52118, Note_on_c, 0, 47, 86
2, 52119, Note_on_c, 0, 66, 90
2, 52120, Note_on_c, 0, 75, 87
2, 52120, Note_on_c, 0, 54, 75
2, 52122, Note_on_c, 0, 51, 79
2, 52125, Note_on_c, 0, 71, 80
2, 52342, Control_c, 0, 64, 0
2, 52342, Note_on_c, 0, 51, 0
2, 52343, Note_on_c, 0, 66, 0
2, 52343, Note_on_c, 0, 54, 0
2, 52343, Note_on_c, 0, 71, 0
2, 52344, Note_on_c, 0, 78, 0
2, 52345, Note_on_c, 0, 75, 0
2, 52354, Note_on_c, 0, 47, 0
2, 52354, Note_on_c, 0, 68, 0
2, 52354, Note_on_c, 0, 80, 0
2, 52359, Note_on_c, 0, 80, 102
2, 52362, Note_on_c, 0, 59, 0
2, 52365, Note_on_c, 0, 47, 89
2, 52365, Note_on_c, 0, 68, 96
2, 52366, Note_on_c, 0, 59, 83
2, 52366, Note_on_c, 0, 35, 75
2, 52368, Note_on_c, 0, 71, 82
2, 52392, Note_on_c, 0, 71, 0
2, 52416, Note_on_c, 0, 35, 0
2, 52416, Note_on_c, 0, 47, 0
2, 52416, Note_on_c, 0, 59, 0
2, 52431, Note_on_c, 0, 68, 0
2, 52431, Control_c, 0, 64, 127
2, 52493, Note_on_c, 0, 59, 64
2, 52494, Note_on_c, 0, 47, 63
2, 52600, Note_on_c, 0, 47, 0
2, 52600, Note_on_c, 0, 59, 0
2, 52602, Note_on_c, 0, 83, 97
2, 52603, Note_on_c, 0, 71, 96
2, 52605, Note_on_c, 0, 59, 60
2, 52607, Note_on_c, 0, 47, 57
2, 52618, Note_on_c, 0, 54, 46
2, 52623, Note_on_c, 0, 54, 0
2, 52670, Note_on_c, 0, 47, 0
2, 52670, Note_on_c, 0, 71, 0
2, 52671, Control_c, 0, 64, 0
2, 52672, Note_on_c, 0, 83, 0
2, 52677, Note_on_c, 0, 80, 0
2, 52692, Note_on_c, 0, 59, 0
2, 52721, Note_on_c, 0, 70, 107
2, 52724, Note_on_c, 0, 82, 106
2, 52725, Note_on_c, 0, 77, 90
2, 52728, Note_on_c, 0, 49, 93
2, 52732, Note_on_c, 0, 61, 94
2, 52753, Control_c, 0, 64, 127
2, 52950, Note_on_c, 0, 102, 111
2, 52958, Note_on_c, 0, 99, 102
2, 52959, Note_on_c, 0, 90, 96
2, 52968, Note_on_c, 0, 49, 0
2, 52973, Note_on_c, 0, 37, 74
2, 52978, Note_on_c, 0, 49, 72
2, 52981, Note_on_c, 0, 97, 85
2, 53010, Note_on_c, 0, 94, 87
2, 53026, Note_on_c, 0, 92, 92
2, 53038, Note_on_c, 0, 90, 0
2, 53046, Note_on_c, 0, 90, 97
2, 53053, Note_on_c, 0, 87, 91
2, 53071, Note_on_c, 0, 85, 80
2, 53076, Note_on_c, 0, 82, 0
2, 53082, Note_on_c, 0, 82, 82
2, 53103, Note_on_c, 0, 80, 83
2, 53116, Note_on_c, 0, 78, 92
2, 53131, Note_on_c, 0, 75, 89
2, 53207, Note_on_c, 0, 37, 0
2, 53207, Note_on_c, 0, 77, 0
2, 53207, Control_c, 0, 64, 0
2, 53208, Note_on_c, 0, 94, 0
2, 53208, Note_on_c, 0, 97, 0
2, 53209, Note_on_c, 0, 99, 0
2, 53209, Note_on_c, 0, 92, 0
2, 53210, Note_on_c, 0, 49, 0
2, 53210, Note_on_c, 0, 90, 0
2, 53210, Note_on_c, 0, 82, 0
2, 53210, Note_on_c, 0, 85, 0
2, 53210, Note_on_c, 0, 78, 0
2, 53210, Note_on_c, 0, 87, 0
2, 53210, Note_on_c, 0, 80, 0
2, 53211, Note_on_c, 0, 75, 0
2, 53214, Note_on_c, 0, 61, 0
2, 53214, Note_on_c, 0, 70, 0
2, 53219, Note_on_c, 0, 70, 104
2, 53221, Note_on_c, 0, 73, 96
2, 53222, Note_on_c, 0, 102, 0
2, 53225, Note_on_c, 0, 61, 96
2, 53225, Note_on_c, 0, 66, 87
2, 53226, Note_on_c, 0, 46, 85
2, 53228, Note_on_c, 0, 34, 86
2, 53267, Note_on_c, 0, 46, 0
2, 53283, Note_on_c, 0, 73, 0
2, 53306, Control_c, 0, 64, 127
2, 53498, Note_on_c, 0, 66, 0
2, 53498, Note_on_c, 0, 70, 0
2, 53499, Note_on_c, 0, 78, 100
2, 53502, Note_on_c, 0, 73, 77
2, 53504, Note_on_c, 0, 66, 87
2, 53508, Note_on_c, 0, 70, 78
2, 53509, Note_on_c, 0, 58, 73
2, 53516, Note_on_c, 0, 54, 65
2, 53598, Note_on_c, 0, 78, 0
2, 53606, Note_on_c, 0, 66, 0
2, 53606, Note_on_c, 0, 70, 0
2, 53607, Note_on_c, 0, 78, 107
2, 53610, Note_on_c, 0, 66, 91
2, 53613, Note_on_c, 0, 70, 79
2, 53629, Note_on_c, 0, 58, 0
2, 53638, Note_on_c, 0, 58, 56
2, 53744, Note_on_c, 0, 58, 0
2, 53744, Note_on_c, 0, 61, 0
2, 53744, Note_on_c, 0, 70, 0
2, 53749, Note_on_c, 0, 61, 73
2, 53755, Note_on_c, 0, 70, 75
2, 53755, Note_on_c, 0, 58, 68
2, 53867, Note_on_c, 0, 73, 0
2, 53870, Note_on_c, 0, 80, 99
2, 53872, Note_on_c, 0, 68, 91
2, 53873, Note_on_c, 0, 73, 85
2, 53982, Note_on_c, 0, 58, 0
2, 53990, Note_on_c, 0, 54, 0
2, 53991, Note_on_c, 0, 58, 68
2, 53997, Note_on_c, 0, 54, 63
2, 54113, Note_on_c, 0, 78, 0
2, 54120, Note_on_c, 0, 34, 0
2, 54123, Note_on_c, 0, 78, 101
2, 54125, Note_on_c, 0, 75, 95
2, 54127, Note_on_c, 0, 47, 86
2, 54130, Note_on_c, 0, 71, 85
2, 54132, Control_c, 0, 64, 0
2, 54145, Note_on_c, 0, 61, 0
2, 54145, Note_on_c, 0, 73, 0
2, 54146, Note_on_c, 0, 58, 0
2, 54146, Note_on_c, 0, 68, 0
2, 54147, Note_on_c, 0, 80, 0
2, 54147, Note_on_c, 0, 66, 0
2, 54148, Note_on_c, 0, 54, 0
2, 54167, Note_on_c, 0, 70, 0
2, 54213, Control_c, 0, 64, 127
2, 54232, Note_on_c, 0, 35, 63
2, 54366, Note_on_c, 0, 75, 0
2, 54376, Note_on_c, 0, 80, 101
2, 54377, Note_on_c, 0, 75, 93
2, 54378, Note_on_c, 0, 68, 94
2, 54504, Note_on_c, 0, 47, 0
2, 54507, Note_on_c, 0, 59, 77
2, 54508, Note_on_c, 0, 54, 65
2, 54510, Note_on_c, 0, 47, 63
2, 54627, Note_on_c, 0, 54, 0
2, 54627, Note_on_c, 0, 75, 0
2, 54631, Note_on_c, 0, 82, 106
2, 54632, Note_on_c, 0, 75, 105
2, 54634, Note_on_c, 0, 70, 96
2, 54634, Note_on_c, 0, 54, 76
2, 54638, Note_on_c, 0, 49, 74
2, 54750, Note_on_c, 0, 59, 0
2, 54754, Note_on_c, 0, 63, 75
2, 54755, Note_on_c, 0, 59, 72
2, 54881, Note_on_c, 0, 47, 0
2, 54881, Note_on_c, 0, 71, 0
2, 54881, Note_on_c, 0, 75, 0
2, 54884, Note_on_c, 0, 83, 101
2, 54886, Note_on_c, 0, 47, 84
2, 54887, Note_on_c, 0, 71, 97
2, 54888, Note_on_c, 0, 75, 95
2, 54888, Note_on_c, 0, 49, 0
2, 54888, Note_on_c, 0, 78, 0
2, 54893, Note_on_c, 0, 78, 72
2, 54996, Note_on_c, 0, 54, 0
2, 54996, Note_on_c, 0, 59, 0
2, 55005, Note_on_c, 0, 59, 61
2, 55006, Note_on_c, 0, 54, 78
2, 55142, Note_on_c, 0, 80, 0
2, 55144, Note_on_c, 0, 85, 106
2, 55149, Note_on_c, 0, 73, 98
2, 55149, Note_on_c, 0, 80, 94
2, 55151, Note_on_c, 0, 77, 93
2, 55169, Control_c, 0, 64, 0
2, 55183, Note_on_c, 0, 71, 0
2, 55184, Note_on_c, 0, 59, 0
2, 55184, Note_on_c, 0, 78, 0
2, 55184, Note_on_c, 0, 63, 0
2, 55184, Note_on_c, 0, 82, 0
2, 55184, Note_on_c, 0, 75, 0
2, 55184, Note_on_c, 0, 83, 0
2, 55186, Note_on_c, 0, 70, 0
2, 55188, Note_on_c, 0, 35, 0
2, 55196, Note_on_c, 0, 47, 0
2, 55196, Note_on_c, 0, 68, 0
2, 55203, Note_on_c, 0, 54, 0
2, 55242, Control_c, 0, 64, 127
2, 55259, Note_on_c, 0, 37, 73
2, 55259, Note_on_c, 0, 49, 76
2, 55388, Note_on_c, 0, 77, 0
2, 55388, Note_on_c, 0, 80, 0
2, 55394, Note_on_c, 0, 68, 100
2, 55396, Note_on_c, 0, 80, 94
2, 55398, Note_on_c, 0, 77, 84
2, 55416, Note_on_c, 0, 78, 81
2, 55419, Note_on_c, 0, 61, 54
2, 55503, Note_on_c, 0, 61, 0
2, 55511, Note_on_c, 0, 56, 61
2, 55512, Note_on_c, 0, 61, 53
2, 55641, Note_on_c, 0, 77, 0
2, 55644, Note_on_c, 0, 82, 105
2, 55645, Note_on_c, 0, 94, 89
2, 55647, Note_on_c, 0, 77, 90
2, 55650, Note_on_c, 0, 70, 96
2, 55656, Note_on_c, 0, 94, 0
2, 55764, Note_on_c, 0, 56, 0
2, 55772, Note_on_c, 0, 61, 0
2, 55774, Note_on_c, 0, 56, 66
2, 55774, Note_on_c, 0, 65, 80
2, 55776, Note_on_c, 0, 61, 67
2, 55902, Note_on_c, 0, 77, 0
2, 55906, Note_on_c, 0, 83, 98
2, 55913, Note_on_c, 0, 71, 91
2, 55913, Note_on_c, 0, 77, 77
2, 56033, Note_on_c, 0, 56, 0
2, 56037, Note_on_c, 0, 56, 71
2, 56171, Note_on_c, 0, 70, 0
2, 56171, Note_on_c, 0, 77, 0
2, 56171, Note_on_c, 0, 82, 0
2, 56181, Note_on_c, 0, 82, 107
2, 56182, Note_on_c, 0, 77, 89
2, 56182, Note_on_c, 0, 70, 99
2, 56183, Note_on_c, 0, 74, 92
2, 56218, Control_c, 0, 64, 0
2, 56220, Note_on_c, 0, 85, 0
2, 56221, Note_on_c, 0, 68, 0
2, 56221, Note_on_c, 0, 37, 0
2, 56221, Note_on_c, 0, 61, 0
2, 56221, Note_on_c, 0, 78, 0
2, 56221, Note_on_c, 0, 80, 0
2, 56221, Note_on_c, 0, 83, 0
2, 56222, Note_on_c, 0, 73, 0
2, 56223, Note_on_c, 0, 56, 0
2, 56232, Note_on_c, 0, 49, 0
2, 56232, Note_on_c, 0, 65, 0
2, 56232, Note_on_c, 0, 71, 0
2, 56291, Note_on_c, 0, 38, 77
2, 56292, Note_on_c, 0, 50, 78
2, 56302, Control_c, 0, 64, 127
2, 56547, Note_on_c, 0, 70, 0
2, 56558, Note_on_c, 0, 70, 76
2, 56558, Note_on_c, 0, 62, 73
2, 56559, Note_on_c, 0, 58, 72
2, 56559, Note_on_c, 0, 65, 70
2, 56560, Note_on_c, 0, 53, 70
2, 56663, Note_on_c, 0, 82, 0
2, 56670, Note_on_c, 0, 70, 0
2, 56673, Note_on_c, 0, 82, 103
2, 56674, Note_on_c, 0, 70, 99
2, 56791, Note_on_c, 0, 83, 99
2, 56794, Note_on_c, 0, 34, 78
2, 56795, Note_on_c, 0, 46, 81
2, 56796, Note_on_c, 0, 71, 91
2, 56908, Note_on_c, 0, 46, 0
2, 56908, Note_on_c, 0, 58, 0
2, 56908, Note_on_c, 0, 70, 0
2, 56908, Note_on_c, 0, 82, 0
2, 56913, Note_on_c, 0, 82, 99
2, 56914, Note_on_c, 0, 70, 92
2, 56914, Note_on_c, 0, 46, 67
2, 56916, Note_on_c, 0, 58, 72
2, 57024, Note_on_c, 0, 62, 0
2, 57031, Note_on_c, 0, 46, 0
2, 57031, Note_on_c, 0, 53, 0
2, 57031, Note_on_c, 0, 58, 0
2, 57031, Note_on_c, 0, 74, 0
2, 57034, Note_on_c, 0, 62, 72
2, 57034, Note_on_c, 0, 80, 91
2, 57035, Note_on_c, 0, 68, 89
2, 57035, Note_on_c, 0, 74, 71
2, 57036, Note_on_c, 0, 46, 64
2, 57037, Note_on_c, 0, 53, 61
2, 57041, Note_on_c, 0, 58, 70
2, 57139, Note_on_c, 0, 70, 0
2, 57142, Note_on_c, 0, 78, 93
2, 57149, Note_on_c, 0, 70, 71
2, 57149, Note_on_c, 0, 66, 83
2, 57260, Control_c, 0, 64, 0
2, 57264, Note_on_c, 0, 38, 0
2, 57264, Note_on_c, 0, 62, 0
2, 57264, Note_on_c, 0, 50, 0
2, 57264, Note_on_c, 0, 78, 0
2, 57264, Note_on_c, 0, 34, 0
2, 57264, Note_on_c, 0, 83, 0
2, 57264, Note_on_c, 0, 82, 0
2, 57264, Note_on_c, 0, 71, 0
2, 57264, Note_on_c, 0, 74, 0
2, 57265, Note_on_c, 0, 77, 0
2, 57265, Note_on_c, 0, 66, 0
2, 57265, Note_on_c, 0, 53, 0
2, 57269, Note_on_c, 0, 65, 0
2, 57269, Note_on_c, 0, 68, 0
2, 57269, Note_on_c, 0, 80, 0
2, 57274, Note_on_c, 0, 80, 106
2, 57279, Note_on_c, 0, 68, 97
2, 57280, Note_on_c, 0, 51, 83
2, 57280, Note_on_c, 0, 75, 77
2, 57281, Note_on_c, 0, 39, 81
2, 57285, Note_on_c, 0, 58, 0
2, 57338, Control_c, 0, 64, 127
2, 57523, Note_on_c, 0, 46, 0
2, 57533, Note_on_c, 0, 46, 61
2, 57646, Note_on_c, 0, 70, 0
2, 57651, Control_c, 0, 64, 0
2, 57653, Note_on_c, 0, 51, 0
2, 57653, Note_on_c, 0, 75, 0
2, 57655, Note_on_c, 0, 80, 0
2, 57656, Note_on_c, 0, 68, 0
2, 57657, Note_on_c, 0, 46, 0
2, 57658, Note_on_c, 0, 39, 0
2, 57664, Note_on_c, 0, 82, 102
2, 57672, Note_on_c, 0, 77, 90
2, 57672, Note_on_c, 0, 70, 93
2, 57672, Note_on_c, 0, 74, 88
2, 57677, Note_on_c, 0, 50, 76
2, 57678, Note_on_c, 0, 38, 73
2, 57730, Control_c, 0, 64, 127
2, 57929, Note_on_c, 0, 46, 68
2, 58037, Control_c, 0, 64, 0
2, 58039, Note_on_c, 0, 82, 0
2, 58040, Note_on_c, 0, 46, 0
2, 58040, Note_on_c, 0, 74, 0
2, 58040, Note_on_c, 0, 77, 0
2, 58040, Note_on_c, 0, 50, 0
2, 58045, Note_on_c, 0, 38, 0
2, 58057, Note_on_c, 0, 78, 102
2, 58060, Note_on_c, 0, 70, 0
2, 58066, Note_on_c, 0, 49, 81
2, 58066, Note_on_c, 0, 66, 83
2, 58067, Note_on_c, 0, 73, 86
2, 58068, Note_on_c, 0, 70, 88
2, 58070, Note_on_c, 0, 42, 77
2, 58073, Note_on_c, 0, 37, 81
2, 58111, Note_on_c, 0, 42, 0
2, 58145, Control_c, 0, 64, 127
2, 58152, Note_on_c, 0, 37, 0
2, 58429, Note_on_c, 0, 49, 0
2, 58439, Note_on_c, 0, 49, 70
2, 58441, Note_on_c, 0, 61, 60
2, 58575, Note_on_c, 0, 49, 0
2, 58575, Note_on_c, 0, 70, 0
2, 58581, Note_on_c, 0, 54, 67
2, 58585, Note_on_c, 0, 49, 56
2, 58586, Note_on_c, 0, 58, 64
2, 58586, Note_on_c, 0, 70, 63
2, 58792, Note_on_c, 0, 54, 0
2, 58793, Control_c, 0, 64, 0
2, 58793, Note_on_c, 0, 58, 0
2, 58793, Note_on_c, 0, 66, 0
2, 58793, Note_on_c, 0, 49, 0
2, 58793, Note_on_c, 0, 70, 0
2, 58793, Note_on_c, 0, 73, 0
2, 58794, Note_on_c, 0, 78, 0
2, 58813, Note_on_c, 0, 61, 0
2, 58840, Note_on_c, 0, 75, 92
2, 58840, Note_on_c, 0, 32, 71
2, 58841, Note_on_c, 0, 44, 75
2, 58845, Note_on_c, 0, 63, 74
2, 58846, Note_on_c, 0, 66, 67
2, 58851, Note_on_c, 0, 66, 0
2, 58874, Control_c, 0, 64, 127
2, 59087, Note_on_c, 0, 77, 93
2, 59089, Note_on_c, 0, 75, 0
2, 59094, Note_on_c, 0, 46, 74
2, 59094, Note_on_c, 0, 75, 77
2, 59097, Note_on_c, 0, 65, 82
2, 59099, Note_on_c, 0, 34, 74
2, 59304, Note_on_c, 0, 32, 0
2, 59316, Control_c, 0, 64, 0
2, 59316, Note_on_c, 0, 44, 0
2, 59316, Note_on_c, 0, 34, 0
2, 59316, Note_on_c, 0, 77, 0
2, 59316, Note_on_c, 0, 63, 0
2, 59316, Note_on_c, 0, 46, 0
2, 59316, Note_on_c, 0, 65, 0
2, 59343, Note_on_c, 0, 75, 0
2, 59345, Note_on_c, 0, 78, 105
2, 59346, Note_on_c, 0, 47, 87
2, 59347, Note_on_c, 0, 66, 90
2, 59349, Note_on_c, 0, 71, 84
2, 59349, Note_on_c, 0, 75, 95
2, 59387, Note_on_c, 0, 47, 0
2, 59404, Control_c, 0, 64, 127
2, 59497, Note_on_c, 0, 42, 73
2, 59622, Note_on_c, 0, 47, 74
2, 59742, Note_on_c, 0, 51, 79
2, 59882, Note_on_c, 0, 54, 74
2, 59996, Note_on_c, 0, 71, 0
2, 60004, Note_on_c, 0, 71, 68
2, 60004, Note_on_c, 0, 59, 78
2, 60096, Note_on_c, 0, 54, 0
2, 60099, Note_on_c, 0, 54, 62
2, 60100, Note_on_c, 0, 82, 96
2, 60111, Note_on_c, 0, 75, 0
2, 60121, Note_on_c, 0, 75, 71
2, 60121, Note_on_c, 0, 63, 64
2, 60226, Note_on_c, 0, 66, 0
2, 60229, Note_on_c, 0, 80, 97
2, 60237, Note_on_c, 0, 66, 72
2, 60357, Note_on_c, 0, 71, 0
2, 60366, Note_on_c, 0, 71, 78
2, 60487, Note_on_c, 0, 66, 0
2, 60495, Note_on_c, 0, 54, 0
2, 60498, Note_on_c, 0, 66, 68
2, 60506, Note_on_c, 0, 54, 56
2, 60595, Note_on_c, 0, 78, 0
2, 60602, Note_on_c, 0, 63, 0
2, 60606, Note_on_c, 0, 78, 99
2, 60606, Note_on_c, 0, 63, 71
2, 60725, Note_on_c, 0, 59, 0
2, 60731, Note_on_c, 0, 59, 76
2, 60848, Note_on_c, 0, 54, 0
2, 60848, Note_on_c, 0, 80, 0
2, 60859, Note_on_c, 0, 54, 77
2, 60859, Note_on_c, 0, 80, 96
2, 60940, Note_on_c, 0, 51, 0
2, 60950, Note_on_c, 0, 51, 64
2, 61071, Note_on_c, 0, 47, 0
2, 61071, Note_on_c, 0, 82, 0
2, 61076, Note_on_c, 0, 47, 75
2, 61082, Note_on_c, 0, 82, 92
2, 61194, Note_on_c, 0, 42, 0
2, 61201, Note_on_c, 0, 42, 71
2, 61351, Note_on_c, 0, 66, 0
2, 61352, Note_on_c, 0, 51, 0
2, 61352, Note_on_c, 0, 47, 0
2, 61352, Note_on_c, 0, 82, 0
2, 61352, Note_on_c, 0, 42, 0
2, 61352, Note_on_c, 0, 59, 0
2, 61353, Note_on_c, 0, 75, 0
2, 61353, Note_on_c, 0, 83, 94
2, 61355, Note_on_c, 0, 71, 0
2, 61355, Note_on_c, 0, 78, 0
2, 61359, Control_c, 0, 64, 0
2, 61360, Note_on_c, 0, 74, 79
2, 61361, Note_on_c, 0, 78, 89
2, 61361, Note_on_c, 0, 71, 83
2, 61363, Note_on_c, 0, 80, 0
2, 61370, Note_on_c, 0, 63, 0
2, 61386, Note_on_c, 0, 54, 0
2, 61478, Control_c, 0, 64, 127
2, 61608, Note_on_c, 0, 78, 0
2, 61620, Note_on_c, 0, 78, 89
2, 61739, Note_on_c, 0, 78, 0
2, 61745, Note_on_c, 0, 78, 95
2, 62092, Note_on_c, 0, 78, 0
2, 62101, Note_on_c, 0, 82, 88
2, 62103, Note_on_c, 0, 78, 63
2, 62234, Note_on_c, 0, 80, 91
2, 62238, Note_on_c, 0, 74, 0
2, 62244, Note_on_c, 0, 74, 64
2, 62253, Note_on_c, 0, 66, 63
2, 62256, Note_on_c, 0, 59, 65
2, 62259, Note_on_c, 0, 62, 54
2, 62753, Note_on_c, 0, 78, 0
2, 62761, Note_on_c, 0, 78, 71
2, 63014, Note_on_c, 0, 78, 0
2, 63024, Note_on_c, 0, 78, 82
2, 63289, Note_on_c, 0, 77, 78
2, 63360, Note_on_c, 0, 83, 0
2, 63406, Note_on_c, 0, 78, 0
2, 63413, Note_on_c, 0, 78, 85
2, 63533, Note_on_c, 0, 62, 0
2, 63533, Note_on_c, 0, 59, 0
2, 63533, Control_c, 0, 64, 0
2, 63533, Note_on_c, 0, 74, 0
2, 63533, Note_on_c, 0, 80, 0
2, 63533, Note_on_c, 0, 66, 0
2, 63533, Note_on_c, 0, 71, 0
2, 63535, Note_on_c, 0, 82, 0
2, 63535, Note_on_c, 0, 77, 0
2, 63541, Note_on_c, 0, 46, 61
2, 63659, Control_c, 0, 64, 127
2, 63702, Note_on_c, 0, 66, 54
2, 63802, Note_on_c, 0, 73, 71
2, 63822, Note_on_c, 0, 54, 56
2, 63928, Note_on_c, 0, 66, 0
2, 63934, Note_on_c, 0, 66, 61
2, 64063, Note_on_c, 0, 65, 54
2, 64075, Note_on_c, 0, 61, 54
2, 64204, Note_on_c, 0, 66, 0
2, 64208, Note_on_c, 0, 66, 64
2, 64312, Note_on_c, 0, 54, 0
2, 64320, Note_on_c, 0, 73, 0
2, 64323, Note_on_c, 0, 54, 55
2, 64324, Note_on_c, 0, 73, 65
2, 64442, Note_on_c, 0, 66, 0
2, 64447, Note_on_c, 0, 66, 60
2, 64562, Note_on_c, 0, 47, 63
2, 64571, Note_on_c, 0, 68, 71
2, 64573, Note_on_c, 0, 61, 0
2, 64573, Note_on_c, 0, 73, 0
2, 64575, Note_on_c, 0, 66, 0
2, 64575, Note_on_c, 0, 46, 0
2, 64575, Note_on_c, 0, 65, 0
2, 64576, Control_c, 0, 64, 0
2, 64588, Note_on_c, 0, 54, 0
2, 64588, Note_on_c, 0, 78, 0
2, 64657, Control_c, 0, 64, 127
2, 64686, Note_on_c, 0, 66, 66
2, 64821, Note_on_c, 0, 73, 72
2, 64823, Note_on_c, 0, 54, 57
2, 64957, Note_on_c, 0, 66, 0
2, 64962, Note_on_c, 0, 66, 51
2, 65075, Note_on_c, 0, 61, 62
2, 65091, Note_on_c, 0, 65, 58
2, 65203, Note_on_c, 0, 66, 0
2, 65214, Note_on_c, 0, 66, 67
2, 65326, Note_on_c, 0, 54, 0
2, 65326, Note_on_c, 0, 68, 0
2, 65336, Note_on_c, 0, 68, 77
2, 65337, Note_on_c, 0, 54, 55
2, 65448, Note_on_c, 0, 73, 0
2, 65459, Note_on_c, 0, 73, 72
2, 65553, Note_on_c, 0, 65, 0
2, 65553, Note_on_c, 0, 47, 0
2, 65554, Note_on_c, 0, 61, 0
2, 65554, Control_c, 0, 64, 0
2, 65554, Note_on_c, 0, 73, 0
2, 65567, Note_on_c, 0, 49, 73
2, 65571, Note_on_c, 0, 54, 0
2, 65571, Note_on_c, 0, 66, 0
2, 65571, Note_on_c, 0, 68, 0
2, 65576, Note_on_c, 0, 68, 67
2, 65656, Control_c, 0, 64, 127
2, 65705, Note_on_c, 0, 66, 67
2, 65837, Note_on_c, 0, 56, 67
2, 65838, Note_on_c, 0, 73, 62
2, 65856, Note_on_c, 0, 68, 0
2, 65860, Note_on_c, 0, 68, 51
2, 65955, Note_on_c, 0, 66, 0
2, 65961, Note_on_c, 0, 66, 63
2, 66097, Note_on_c, 0, 61, 64
2, 66098, Note_on_c, 0, 65, 60
2, 66216, Note_on_c, 0, 66, 0
2, 66222, Note_on_c, 0, 66, 60
2, 66324, Note_on_c, 0, 73, 0
2, 66332, Note_on_c, 0, 56, 0
2, 66333, Note_on_c, 0, 73, 64
2, 66339, Note_on_c, 0, 68, 0
2, 66340, Note_on_c, 0, 56, 63
2, 66350, Note_on_c, 0, 68, 56
2, 66447, Note_on_c, 0, 66, 0
2, 66457, Note_on_c, 0, 66, 60
2, 66597, Note_on_c, 0, 54, 75
2, 66600, Note_on_c, 0, 68, 0
2, 66604, Control_c, 0, 64, 0
2, 66604, Note_on_c, 0, 68, 68
2, 66606, Note_on_c, 0, 65, 0
2, 66606, Note_on_c, 0, 73, 0
2, 66607, Note_on_c, 0, 61, 0
2, 66611, Note_on_c, 0, 49, 0
2, 66624, Note_on_c, 0, 66, 0
2, 66631, Note_on_c, 0, 56, 0
2, 66700, Control_c, 0, 64, 127
2, 66735, Note_on_c, 0, 66, 52
2, 66857, Note_on_c, 0, 61, 68
2, 66859, Note_on_c, 0, 73, 64
2, 66992, Note_on_c, 0, 66, 0
2, 66997, Note_on_c, 0, 66, 61
2, 67102, Note_on_c, 0, 53, 80
2, 67104, Note_on_c, 0, 65, 64
2, 67120, Control_c, 0, 64, 0
2, 67121, Note_on_c, 0, 54, 0
2, 67121, Note_on_c, 0, 66, 0
2, 67122, Note_on_c, 0, 68, 0
2, 67123, Note_on_c, 0, 73, 0
2, 67124, Note_on_c, 0, 61, 0
2, 67215, Control_c, 0, 64, 127
2, 67252, Note_on_c, 0, 66, 65
2, 67362, Note_on_c, 0, 61, 67
2, 67380, Note_on_c, 0, 68, 66
2, 67430, Note_on_c, 0, 53, 0
2, 67487, Note_on_c, 0, 73, 68
2, 67603, Control_c, 0, 64, 0
2, 67603, Note_on_c, 0, 51, 72
2, 67604, Note_on_c, 0, 68, 0
2, 67610, Note_on_c, 0, 66, 0
2, 67610, Note_on_c, 0, 65, 0
2, 67619, Note_on_c, 0, 61, 0
2, 67619, Note_on_c, 0, 73, 0
2, 67636, Note_on_c, 0, 80, 72
2, 67691, Control_c, 0, 64, 127
2, 67742, Note_on_c, 0, 78, 76
2, 67866, Note_on_c, 0, 85, 75
2, 67872, Note_on_c, 0, 54, 66
2, 67975, Note_on_c, 0, 78, 0
2, 67981, Note_on_c, 0, 78, 68
2, 68106, Note_on_c, 0, 77, 73
2, 68122, Note_on_c, 0, 61, 65
2, 68221, Note_on_c, 0, 78, 0
2, 68232, Note_on_c, 0, 78, 67
2, 68352, Note_on_c, 0, 85, 0
2, 68363, Note_on_c, 0, 85, 74
2, 68367, Note_on_c, 0, 54, 0
2, 68378, Note_on_c, 0, 54, 64
2, 68474, Note_on_c, 0, 78, 0
2, 68483, Note_on_c, 0, 78, 71
2, 68602, Note_on_c, 0, 49, 68
2, 68613, Note_on_c, 0, 80, 0
2, 68619, Control_c, 0, 64, 0
2, 68620, Note_on_c, 0, 51, 0
2, 68622, Note_on_c, 0, 80, 66
2, 68622, Note_on_c, 0, 61, 0
2, 68622, Note_on_c, 0, 78, 0
2, 68623, Note_on_c, 0, 77, 0
2, 68623, Note_on_c, 0, 54, 0
2, 68705, Note_on_c, 0, 85, 0
2, 68705, Control_c, 0, 64, 127
2, 68746, Note_on_c, 0, 78, 70
2, 68877, Note_on_c, 0, 85, 71
2, 68879, Note_on_c, 0, 54, 58
2, 69004, Note_on_c, 0, 78, 0
2, 69012, Note_on_c, 0, 78, 70
2, 69127, Note_on_c, 0, 77, 72
2, 69138, Note_on_c, 0, 61, 58
2, 69250, Note_on_c, 0, 78, 0
2, 69256, Note_on_c, 0, 78, 66
2, 69373, Note_on_c, 0, 54, 0
2, 69377, Note_on_c, 0, 54, 59
2, 69381, Note_on_c, 0, 80, 0
2, 69390, Note_on_c, 0, 80, 63
2, 69496, Note_on_c, 0, 85, 0
2, 69505, Note_on_c, 0, 85, 77
2, 69621, Note_on_c, 0, 47, 70
2, 69622, Note_on_c, 0, 54, 0
2, 69622, Note_on_c, 0, 49, 0
2, 69623, Note_on_c, 0, 78, 0
2, 69623, Note_on_c, 0, 61, 0
2, 69623, Note_on_c, 0, 77, 0
2, 69630, Control_c, 0, 64, 0
2, 69642, Note_on_c, 0, 80, 0
2, 69719, Control_c, 0, 64, 127
2, 69757, Note_on_c, 0, 54, 50
2, 69884, Note_on_c, 0, 59, 59
2, 69992, Note_on_c, 0, 61, 55
2, 70122, Note_on_c, 0, 63, 46
2, 70210, Note_on_c, 0, 85, 0
2, 70231, Note_on_c, 0, 65, 57
2, 70366, Note_on_c, 0, 66, 59
2, 70489, Note_on_c, 0, 68, 62
2, 70608, Note_on_c, 0, 70, 66
2, 70734, Note_on_c, 0, 71, 65
2, 70868, Note_on_c, 0, 73, 59
2, 70998, Note_on_c, 0, 75, 64
2, 71129, Note_on_c, 0, 77, 67
2, 71289, Note_on_c, 0, 78, 65
2, 71443, Note_on_c, 0, 80, 69
2, 71605, Note_on_c, 0, 82, 74
2, 71847, Note_on_c, 0, 83, 81
2, 71865, Note_on_c, 0, 74, 62
2, 71869, Note_on_c, 0, 59, 0
2, 71869, Note_on_c, 0, 71, 0
2, 71869, Note_on_c, 0, 78, 0
2, 71878, Note_on_c, 0, 71, 61
2, 71880, Note_on_c, 0, 59, 52
2, 71880, Note_on_c, 0, 78, 62
2, 71935, Note_on_c, 0, 70, 0
2, 71936, Note_on_c, 0, 73, 0
2, 71936, Note_on_c, 0, 61, 0
2, 71937, Note_on_c, 0, 54, 0
2, 71937, Note_on_c, 0, 75, 0
2, 71937, Note_on_c, 0, 65, 0
2, 71937, Note_on_c, 0, 63, 0
2, 71937, Note_on_c, 0, 47, 0
2, 71937, Note_on_c, 0, 68, 0
2, 71938, Note_on_c, 0, 77, 0
2, 71941, Note_on_c, 0, 80, 0
2, 71949, Control_c, 0, 64, 0
2, 71961, Note_on_c, 0, 82, 0
2, 72314, Control_c, 0, 64, 127
2, 73101, Note_on_c, 0, 82, 75
2, 73182, Control_c, 0, 64, 0
2, 73267, Control_c, 0, 64, 127
2, 73480, Note_on_c, 0, 80, 68
2, 73674, Note_on_c, 0, 78, 0
2, 73685, Note_on_c, 0, 78, 69
2, 73735, Control_c, 0, 64, 0
2, 73789, Note_on_c, 0, 71, 0
2, 73820, Note_on_c, 0, 82, 0
2, 73858, Note_on_c, 0, 80, 0
2, 73896, Note_on_c, 0, 83, 0
2, 73950, Control_c, 0, 64, 127
2, 74407, Note_on_c, 0, 80, 61
2, 74465, Control_c, 0, 64, 0
2, 74549, Control_c, 0, 64, 127
2, 74880, Note_on_c, 0, 66, 0
2, 74880, Note_on_c, 0, 74, 0
2, 75397, Note_on_c, 0, 42, 46
2, 75425, Note_on_c, 0, 59, 0
2, 75428, Control_c, 0, 64, 0
2, 75430, Note_on_c, 0, 78, 0
2, 75433, Note_on_c, 0, 80, 0
2, 75571, Control_c, 0, 64, 127
2, 75812, Note_on_c, 0, 49, 55
2, 76035, Note_on_c, 0, 54, 50
2, 76165, Note_on_c, 0, 58, 55
2, 76285, Note_on_c, 0, 61, 56
2, 76415, Note_on_c, 0, 66, 50
2, 76501, Note_on_c, 0, 73, 56
2, 76620, Note_on_c, 0, 78, 69
2, 76726, Note_on_c, 0, 80, 73
2, 76863, Note_on_c, 0, 82, 80
2, 78720, Note_on_c, 0, 42, 0
2, 78720, Note_on_c, 0, 49, 0
2, 78720, Note_on_c, 0, 54, 0
2, 78720, Note_on_c, 0, 58, 0
2, 78720, Note_on_c, 0, 61, 0
2, 78720, Note_on_c, 0, 66, 0
2, 78720, Note_on_c, 0, 73, 0
2, 78720, Note_on_c, 0, 78, 0
2, 78720, Note_on_c, 0, 80, 0
2, 81272, Note_on_c, 0, 82, 0
2, 81287, Control_c, 0, 64, 0
2, 81288, End_track
0, 0, End_of_file
