0, 0, Header, 1, 2, 384
1, 0, Start_track
1, 0, Tempo, 500000
1, 0, Time_signature, 4, 2, 24, 8
1, 1, End_track
2, 0, Start_track
2, 299, Control_c, 0, 64, 127
2, 829, Control_c, 0, 64, 0
2, 1370, Note_on_c, 0, 73, 79
2, 1387, Note_on_c, 0, 52, 57
2, 1390, Note_on_c, 0, 40, 55
2, 1393, Note_on_c, 0, 64, 63
2, 1394, Note_on_c, 0, 59, 60
2, 1400, Note_on_c, 0, 71, 59
2, 1456, Note_on_c, 0, 75, 78
2, 1456, Note_on_c, 0, 73, 0
2, 1459, Control_c, 0, 64, 127
2, 1533, Note_on_c, 0, 78, 75
2, 1615, Note_on_c, 0, 83, 86
2, 1728, Note_on_c, 0, 78, 0
2, 1733, Note_on_c, 0, 78, 79
2, 1876, Note_on_c, 0, 85, 77
2, 1989, Note_on_c, 0, 78, 0
2, 1993, Note_on_c, 0, 78, 67
2, 2119, Note_on_c, 0, 40, 0
2, 2127, Note_on_c, 0, 83, 0
2, 2129, Note_on_c, 0, 87, 82
2, 2138, Note_on_c, 0, 83, 62
2, 2257, Note_on_c, 0, 90, 74
2, 2265, Note_on_c, 0, 71, 0
2, 3202, Note_on_c, 0, 52, 0
2, 3207, Note_on_c, 0, 52, 72
2, 3318, Note_on_c, 0, 54, 77
2, 3432, Control_c, 0, 64, 0
2, 3433, Note_on_c, 0, 75, 0
2, 3433, Note_on_c, 0, 87, 0
2, 3434, Note_on_c, 0, 52, 0
2, 3434, Note_on_c, 0, 85, 0
2, 3435, Note_on_c, 0, 83, 0
2, 3435, Note_on_c, 0, 54, 0
2, 3435, Note_on_c, 0, 78, 0
2, 3435, Note_on_c, 0, 90, 0
2, 3440, Note_on_c, 0, 59, 0
2, 3440, Note_on_c, 0, 64, 0
2, 3459, Note_on_c, 0, 73, 90
2, 3461, Note_on_c, 0, 66, 80
2, 3461, Note_on_c, 0, 56, 62
2, 3466, Note_on_c, 0, 68, 71
2, 3467, Note_on_c, 0, 63, 72
2, 3471, Note_on_c, 0, 68, 0
2, 3550, Note_on_c, 0, 75, 85
2, 3551, Note_on_c, 0, 73, 0
2, 3609, Control_c, 0, 64, 127
2, 3627, Note_on_c, 0, 78, 82
2, 3704, Note_on_c, 0, 83, 89
2, 3709, Note_on_c, 0, 56, 0
2, 3809, Note_on_c, 0, 78, 0
2, 3818, Note_on_c, 0, 78, 83
2, 3944, Note_on_c, 0, 85, 81
2, 4047, Note_on_c, 0, 78, 0
2, 4057, Note_on_c, 0, 78, 78
2, 4185, Note_on_c, 0, 83, 0
2, 4192, Note_on_c, 0, 83, 72
2, 4195, Note_on_c, 0, 87, 82
2, 4321, Note_on_c, 0, 90, 84
2, 4388, Note_on_c, 0, 85, 0
2, 4388, Note_on_c, 0, 75, 0
2, 4388, Note_on_c, 0, 63, 0
2, 4389, Note_on_c, 0, 66, 0
2, 4389, Control_c, 0, 64, 0
2, 4437, Note_on_c, 0, 54, 81
2, 4515, Control_c, 0, 64, 127
2, 4646, Note_on_c, 0, 87, 0
2, 4656, Note_on_c, 0, 87, 89
2, 4816, Note_on_c, 0, 66, 73
2, 4818, Note_on_c, 0, 70, 78
2, 4833, Note_on_c, 0, 61, 69
2, 4861, Note_on_c, 0, 87, 0
2, 4865, Note_on_c, 0, 87, 80
2, 4921, Note_on_c, 0, 88, 85
2, 5007, Note_on_c, 0, 87, 0
2, 5017, Note_on_c, 0, 87, 82
2, 5137, Note_on_c, 0, 83, 0
2, 5149, Note_on_c, 0, 83, 88
2, 5276, Note_on_c, 0, 54, 0
2, 5280, Note_on_c, 0, 54, 71
2, 5382, Note_on_c, 0, 70, 0
2, 5382, Note_on_c, 0, 54, 0
2, 5382, Note_on_c, 0, 83, 0
2, 5382, Note_on_c, 0, 87, 0
2, 5383, Note_on_c, 0, 88, 0
2, 5383, Note_on_c, 0, 61, 0
2, 5384, Control_c, 0, 64, 0
2, 5399, Note_on_c, 0, 66, 0
2, 5399, Note_on_c, 0, 90, 0
2, 5406, Note_on_c, 0, 78, 0
2, 5411, Note_on_c, 0, 73, 86
2, 5413, Note_on_c, 0, 52, 79
2, 5414, Note_on_c, 0, 64, 81
2, 5418, Note_on_c, 0, 59, 74
2, 5490, Note_on_c, 0, 75, 83
2, 5509, Note_on_c, 0, 73, 0
2, 5552, Control_c, 0, 64, 127
2, 5578, Note_on_c, 0, 78, 78
2, 5656, Note_on_c, 0, 83, 79
2, 5775, Note_on_c, 0, 78, 0
2, 5784, Note_on_c, 0, 78, 77
2, 5920, Note_on_c, 0, 85, 82
2, 6028, Note_on_c, 0, 78, 0
2, 6037, Note_on_c, 0, 78, 72
2, 6170, Note_on_c, 0, 87, 81
2, 6182, Note_on_c, 0, 83, 0
2, 6187, Note_on_c, 0, 83, 57
2, 6308, Note_on_c, 0, 90, 79
2, 7234, Note_on_c, 0, 52, 0
2, 7241, Note_on_c, 0, 52, 74
2, 7358, Note_on_c, 0, 54, 80
2, 7489, Note_on_c, 0, 73, 87
2, 7491, Note_on_c, 0, 56, 76
2, 7492, Note_on_c, 0, 66, 75
2, 7493, Note_on_c, 0, 59, 0
2, 7493, Control_c, 0, 64, 0
2, 7493, Note_on_c, 0, 83, 0
2, 7494, Note_on_c, 0, 68, 67
2, 7495, Note_on_c, 0, 64, 0
2, 7495, Note_on_c, 0, 78, 0
2, 7496, Note_on_c, 0, 54, 0
2, 7497, Note_on_c, 0, 85, 0
2, 7497, Note_on_c, 0, 90, 0
2, 7498, Note_on_c, 0, 52, 0
2, 7498, Note_on_c, 0, 63, 66
2, 7518, Note_on_c, 0, 87, 0
2, 7553, Note_on_c, 0, 73, 0
2, 7564, Note_on_c, 0, 75, 0
2, 7568, Note_on_c, 0, 75, 85
2, 7618, Control_c, 0, 64, 127
2, 7645, Note_on_c, 0, 78, 78
2, 7721, Note_on_c, 0, 83, 80
2, 7841, Note_on_c, 0, 78, 0
2, 7847, Note_on_c, 0, 78, 77
2, 7969, Note_on_c, 0, 85, 81
2, 8079, Note_on_c, 0, 78, 0
2, 8090, Note_on_c, 0, 78, 86
2, 8217, Note_on_c, 0, 83, 0
2, 8227, Note_on_c, 0, 87, 84
2, 8227, Note_on_c, 0, 83, 68
2, 8344, Note_on_c, 0, 90, 90
2, 8389, Note_on_c, 0, 85, 0
2, 8390, Note_on_c, 0, 75, 0
2, 8391, Note_on_c, 0, 63, 0
2, 8392, Note_on_c, 0, 56, 0
2, 8401, Control_c, 0, 64, 0
2, 8471, Note_on_c, 0, 68, 0
2, 8485, Note_on_c, 0, 54, 72
2, 8494, Control_c, 0, 64, 127
2, 8636, Note_on_c, 0, 95, 87
2, 8795, Note_on_c, 0, 94, 83
2, 8862, Note_on_c, 0, 95, 0
2, 8867, Note_on_c, 0, 95, 70
2, 8916, Note_on_c, 0, 94, 0
2, 8927, Note_on_c, 0, 94, 82
2, 8993, Note_on_c, 0, 90, 0
2, 8998, Note_on_c, 0, 90, 76
2, 9000, Note_on_c, 0, 66, 0
2, 9001, Note_on_c, 0, 61, 60
2, 9005, Note_on_c, 0, 70, 56
2, 9005, Note_on_c, 0, 82, 56
2, 9005, Note_on_c, 0, 85, 69
2, 9005, Note_on_c, 0, 73, 58
2, 9009, Note_on_c, 0, 66, 65
2, 9016, Note_on_c, 0, 73, 0
2, 11379, Note_on_c, 0, 44, 53
2, 11381, Note_on_c, 0, 54, 0
2, 11384, Note_on_c, 0, 51, 57
2, 11385, Control_c, 0, 64, 0
2, 11387, Note_on_c, 0, 54, 53
2, 11397, Note_on_c, 0, 78, 0
2, 11397, Note_on_c, 0, 83, 0
2, 11399, Note_on_c, 0, 61, 0
2, 11400, Note_on_c, 0, 82, 0
2, 11400, Note_on_c, 0, 70, 0
2, 11401, Note_on_c, 0, 90, 0
2, 11401, Note_on_c, 0, 85, 0
2, 11401, Note_on_c, 0, 66, 0
2, 11412, Note_on_c, 0, 87, 0
2, 11412, Note_on_c, 0, 95, 0
2, 11420, Note_on_c, 0, 94, 0
2, 11512, Control_c, 0, 64, 127
2, 11641, Note_on_c, 0, 61, 63
2, 11757, Note_on_c, 0, 40, 65
2, 11765, Note_on_c, 0, 44, 0
2, 11778, Note_on_c, 0, 51, 0
2, 11778, Control_c, 0, 64, 0
2, 11788, Note_on_c, 0, 54, 0
2, 11865, Control_c, 0, 64, 127
2, 11901, Note_on_c, 0, 63, 72
2, 12019, Note_on_c, 0, 47, 63
2, 12129, Control_c, 0, 64, 0
2, 12136, Note_on_c, 0, 40, 0
2, 12138, Note_on_c, 0, 63, 0
2, 12139, Note_on_c, 0, 42, 77
2, 12139, Note_on_c, 0, 47, 0
2, 12158, Note_on_c, 0, 66, 80
2, 12160, Note_on_c, 0, 61, 0
2, 12234, Note_on_c, 0, 66, 0
2, 12241, Control_c, 0, 64, 127
2, 12253, Note_on_c, 0, 71, 71
2, 12311, Note_on_c, 0, 73, 77
2, 12385, Note_on_c, 0, 76, 88
2, 12512, Note_on_c, 0, 59, 73
2, 12641, Note_on_c, 0, 75, 83
2, 12767, Note_on_c, 0, 66, 70
2, 12767, Note_on_c, 0, 61, 71
2, 12772, Note_on_c, 0, 58, 64
2, 12878, Note_on_c, 0, 78, 89
2, 12986, Note_on_c, 0, 42, 0
2, 12990, Note_on_c, 0, 42, 71
2, 13125, Note_on_c, 0, 71, 0
2, 13129, Note_on_c, 0, 71, 83
2, 13134, Note_on_c, 0, 49, 70
2, 13136, Note_on_c, 0, 68, 66
2, 13260, Note_on_c, 0, 54, 65
2, 13360, Control_c, 0, 64, 0
2, 13361, Note_on_c, 0, 59, 0
2, 13361, Note_on_c, 0, 66, 0
2, 13361, Note_on_c, 0, 78, 0
2, 13362, Note_on_c, 0, 71, 0
2, 13362, Note_on_c, 0, 49, 0
2, 13362, Note_on_c, 0, 76, 0
2, 13363, Note_on_c, 0, 42, 0
2, 13363, Note_on_c, 0, 75, 0
2, 13363, Note_on_c, 0, 73, 0
2, 13363, Note_on_c, 0, 58, 0
2, 13370, Note_on_c, 0, 68, 0
2, 13378, Note_on_c, 0, 61, 0
2, 13386, Note_on_c, 0, 51, 69
2, 13388, Note_on_c, 0, 44, 63
2, 13509, Control_c, 0, 64, 127
2, 13632, Note_on_c, 0, 44, 0
2, 13635, Note_on_c, 0, 61, 76
2, 13739, Note_on_c, 0, 54, 0
2, 13764, Control_c, 0, 64, 0
2, 13765, Note_on_c, 0, 51, 0
2, 13769, Note_on_c, 0, 40, 62
2, 13847, Control_c, 0, 64, 127
2, 13902, Note_on_c, 0, 63, 78
2, 14009, Note_on_c, 0, 47, 71
2, 14135, Control_c, 0, 64, 0
2, 14137, Note_on_c, 0, 40, 0
2, 14141, Note_on_c, 0, 63, 0
2, 14141, Note_on_c, 0, 47, 0
2, 14141, Note_on_c, 0, 61, 0
2, 14152, Note_on_c, 0, 42, 81
2, 14165, Note_on_c, 0, 66, 84
2, 14238, Control_c, 0, 64, 127
2, 14247, Note_on_c, 0, 71, 75
2, 14325, Note_on_c, 0, 73, 79
2, 14400, Note_on_c, 0, 76, 89
2, 14521, Note_on_c, 0, 59, 76
2, 14639, Note_on_c, 0, 75, 82
2, 14699, Note_on_c, 0, 76, 0
2, 14703, Note_on_c, 0, 76, 79
2, 14784, Note_on_c, 0, 75, 0
2, 14794, Note_on_c, 0, 54, 72
2, 14795, Note_on_c, 0, 75, 74
2, 14868, Note_on_c, 0, 73, 0
2, 14878, Note_on_c, 0, 73, 88
2, 14883, Note_on_c, 0, 66, 0
2, 14888, Note_on_c, 0, 58, 69
2, 14889, Note_on_c, 0, 61, 72
2, 14895, Note_on_c, 0, 66, 70
2, 15006, Note_on_c, 0, 42, 0
2, 15015, Note_on_c, 0, 42, 82
2, 15129, Note_on_c, 0, 75, 0
2, 15139, Note_on_c, 0, 75, 91
2, 15142, Note_on_c, 0, 49, 76
2, 15252, Note_on_c, 0, 54, 0
2, 15263, Note_on_c, 0, 54, 69
2, 15343, Control_c, 0, 64, 0
2, 15347, Note_on_c, 0, 58, 0
2, 15347, Note_on_c, 0, 75, 0
2, 15347, Note_on_c, 0, 71, 0
2, 15347, Note_on_c, 0, 73, 0
2, 15347, Note_on_c, 0, 66, 0
2, 15347, Note_on_c, 0, 59, 0
2, 15347, Note_on_c, 0, 49, 0
2, 15347, Note_on_c, 0, 42, 0
2, 15347, Note_on_c, 0, 61, 0
2, 15347, Note_on_c, 0, 76, 0
2, 15367, Note_on_c, 0, 54, 0
2, 15373, Note_on_c, 0, 54, 81
2, 15374, Note_on_c, 0, 44, 65
2, 15378, Note_on_c, 0, 51, 75
2, 15467, Control_c, 0, 64, 127
2, 15631, Note_on_c, 0, 61, 78
2, 15651, Note_on_c, 0, 44, 0
2, 15743, Control_c, 0, 64, 0
2, 15744, Note_on_c, 0, 51, 0
2, 15744, Note_on_c, 0, 54, 0
2, 15749, Note_on_c, 0, 28, 68
2, 15749, Note_on_c, 0, 40, 66
2, 15759, Note_on_c, 0, 28, 0
2, 15843, Control_c, 0, 64, 127
2, 15894, Note_on_c, 0, 63, 84
2, 16010, Note_on_c, 0, 47, 72
2, 16115, Control_c, 0, 64, 0
2, 16118, Note_on_c, 0, 63, 0
2, 16125, Note_on_c, 0, 47, 0
2, 16128, Note_on_c, 0, 40, 0
2, 16139, Note_on_c, 0, 42, 81
2, 16149, Note_on_c, 0, 66, 85
2, 16158, Note_on_c, 0, 61, 0
2, 16234, Note_on_c, 0, 71, 81
2, 16243, Control_c, 0, 64, 127
2, 16310, Note_on_c, 0, 73, 84
2, 16390, Note_on_c, 0, 76, 93
2, 16505, Note_on_c, 0, 59, 75
2, 16633, Note_on_c, 0, 75, 92
2, 16734, Note_on_c, 0, 66, 0
2, 16745, Note_on_c, 0, 61, 78
2, 16745, Note_on_c, 0, 66, 73
2, 16746, Note_on_c, 0, 58, 70
2, 16882, Note_on_c, 0, 78, 98
2, 16988, Note_on_c, 0, 42, 0
2, 16997, Note_on_c, 0, 42, 78
2, 17126, Note_on_c, 0, 71, 0
2, 17133, Note_on_c, 0, 49, 73
2, 17135, Note_on_c, 0, 71, 90
2, 17243, Note_on_c, 0, 54, 72
2, 17280, Note_on_c, 0, 66, 0
2, 17284, Note_on_c, 0, 66, 80
2, 17341, Note_on_c, 0, 71, 0
2, 17352, Note_on_c, 0, 71, 65
2, 17357, Control_c, 0, 64, 0
2, 17358, Note_on_c, 0, 58, 0
2, 17359, Note_on_c, 0, 75, 0
2, 17359, Note_on_c, 0, 59, 0
2, 17359, Note_on_c, 0, 54, 0
2, 17360, Note_on_c, 0, 61, 0
2, 17360, Note_on_c, 0, 76, 0
2, 17372, Note_on_c, 0, 73, 0
2, 17372, Note_on_c, 0, 78, 0
2, 17375, Note_on_c, 0, 40, 78
2, 17379, Note_on_c, 0, 49, 0
2, 17381, Note_on_c, 0, 78, 98
2, 17382, Note_on_c, 0, 73, 89
2, 17387, Note_on_c, 0, 42, 0
2, 17479, Control_c, 0, 64, 127
2, 17510, Note_on_c, 0, 47, 72
2, 17629, Note_on_c, 0, 52, 75
2, 17763, Note_on_c, 0, 71, 0
2, 17767, Note_on_c, 0, 71, 92
2, 17767, Note_on_c, 0, 54, 78
2, 17886, Note_on_c, 0, 52, 0
2, 17894, Note_on_c, 0, 52, 77
2, 17994, Note_on_c, 0, 54, 0
2, 18005, Note_on_c, 0, 54, 79
2, 18132, Note_on_c, 0, 78, 0
2, 18138, Note_on_c, 0, 78, 103
2, 18140, Note_on_c, 0, 71, 0
2, 18140, Note_on_c, 0, 73, 0
2, 18145, Note_on_c, 0, 59, 86
2, 18146, Note_on_c, 0, 71, 89
2, 18150, Note_on_c, 0, 73, 87
2, 18270, Note_on_c, 0, 54, 0
2, 18274, Note_on_c, 0, 54, 82
2, 18385, Note_on_c, 0, 59, 0
2, 18395, Note_on_c, 0, 59, 84
2, 18516, Note_on_c, 0, 71, 0
2, 18520, Note_on_c, 0, 64, 98
2, 18522, Note_on_c, 0, 71, 102
2, 18631, Note_on_c, 0, 59, 0
2, 18641, Note_on_c, 0, 59, 92
2, 18731, Note_on_c, 0, 64, 0
2, 18735, Note_on_c, 0, 64, 86
2, 18869, Note_on_c, 0, 66, 0
2, 18869, Note_on_c, 0, 71, 0
2, 18869, Note_on_c, 0, 78, 0
2, 18874, Note_on_c, 0, 78, 97
2, 18878, Note_on_c, 0, 71, 94
2, 18880, Note_on_c, 0, 66, 102
2, 18927, Note_on_c, 0, 80, 95
2, 18948, Note_on_c, 0, 82, 69
2, 18954, Note_on_c, 0, 82, 0
2, 19012, Note_on_c, 0, 83, 90
2, 19077, Note_on_c, 0, 85, 88
2, 19138, Note_on_c, 0, 54, 0
2, 19142, Note_on_c, 0, 54, 103
2, 19180, Note_on_c, 0, 86, 68
2, 19223, Note_on_c, 0, 90, 85
2, 19280, Note_on_c, 0, 92, 88
2, 19332, Note_on_c, 0, 94, 91
2, 19407, Note_on_c, 0, 47, 0
2, 19407, Note_on_c, 0, 59, 0
2, 19411, Note_on_c, 0, 95, 106
2, 19413, Note_on_c, 0, 59, 104
2, 19416, Note_on_c, 0, 47, 98
2, 19443, Control_c, 0, 64, 0
2, 19446, Note_on_c, 0, 85, 0
2, 19447, Note_on_c, 0, 73, 0
2, 19448, Note_on_c, 0, 64, 0
2, 19448, Note_on_c, 0, 83, 0
2, 19448, Note_on_c, 0, 54, 0
2, 19448, Note_on_c, 0, 52, 0
2, 19448, Note_on_c, 0, 66, 0
2, 19449, Note_on_c, 0, 90, 0
2, 19449, Note_on_c, 0, 71, 0
2, 19449, Note_on_c, 0, 78, 0
2, 19449, Note_on_c, 0, 92, 0
2, 19449, Note_on_c, 0, 40, 0
2, 19449, Note_on_c, 0, 80, 0
2, 19461, Note_on_c, 0, 94, 0
2, 19468, Note_on_c, 0, 86, 0
2, 19737, Control_c, 0, 64, 127
2, 19830, Note_on_c, 0, 54, 84
2, 19944, Note_on_c, 0, 54, 0
2, 19951, Note_on_c, 0, 54, 83
2, 20206, Note_on_c, 0, 95, 0
2, 20229, Note_on_c, 0, 47, 0
2, 20233, Note_on_c, 0, 35, 52
2, 20234, Note_on_c, 0, 47, 57
2, 20363, Note_on_c, 0, 42, 61
2, 20474, Note_on_c, 0, 47, 0
2, 20485, Note_on_c, 0, 47, 63
2, 20605, Note_on_c, 0, 35, 0
2, 20611, Note_on_c, 0, 35, 41
2, 20712, Note_on_c, 0, 42, 0
2, 20723, Note_on_c, 0, 42, 65
2, 20866, Note_on_c, 0, 59, 0
2, 20870, Note_on_c, 0, 59, 86
2, 20942, Note_on_c, 0, 61, 83
2, 21007, Note_on_c, 0, 64, 97
2, 21012, Note_on_c, 0, 54, 0
2, 21016, Note_on_c, 0, 54, 78
2, 21016, Control_c, 0, 64, 0
2, 21043, Note_on_c, 0, 35, 0
2, 21073, Control_c, 0, 64, 127
2, 21182, Note_on_c, 0, 63, 91
2, 21265, Note_on_c, 0, 47, 0
2, 21275, Note_on_c, 0, 47, 74
2, 21335, Note_on_c, 0, 61, 0
2, 21338, Note_on_c, 0, 61, 85
2, 21496, Note_on_c, 0, 59, 0
2, 21504, Note_on_c, 0, 47, 0
2, 21506, Note_on_c, 0, 59, 97
2, 21515, Note_on_c, 0, 47, 70
2, 21515, Note_on_c, 0, 40, 74
2, 21516, Control_c, 0, 64, 0
2, 21524, Note_on_c, 0, 63, 0
2, 21525, Note_on_c, 0, 64, 0
2, 21528, Note_on_c, 0, 61, 0
2, 21534, Note_on_c, 0, 42, 0
2, 21542, Note_on_c, 0, 54, 0
2, 21588, Note_on_c, 0, 47, 0
2, 21780, Control_c, 0, 64, 127
2, 21785, Note_on_c, 0, 47, 63
2, 21910, Note_on_c, 0, 52, 67
2, 22028, Note_on_c, 0, 54, 73
2, 22279, Note_on_c, 0, 52, 0
2, 22288, Note_on_c, 0, 52, 62
2, 22410, Note_on_c, 0, 59, 0
2, 22417, Note_on_c, 0, 59, 78
2, 22656, Note_on_c, 0, 54, 0
2, 22660, Note_on_c, 0, 54, 70
2, 22801, Note_on_c, 0, 52, 0
2, 22813, Note_on_c, 0, 52, 64
2, 22917, Note_on_c, 0, 47, 0
2, 22922, Note_on_c, 0, 47, 70
2, 23032, Note_on_c, 0, 59, 0
2, 23039, Note_on_c, 0, 59, 96
2, 23270, Note_on_c, 0, 40, 0
2, 23276, Note_on_c, 0, 40, 64
2, 23277, Note_on_c, 0, 28, 68
2, 23281, Note_on_c, 0, 61, 90
2, 23285, Note_on_c, 0, 28, 0
2, 23400, Note_on_c, 0, 59, 0
2, 23405, Note_on_c, 0, 59, 82
2, 23477, Note_on_c, 0, 61, 0
2, 23485, Note_on_c, 0, 61, 89
2, 23539, Note_on_c, 0, 54, 0
2, 23543, Note_on_c, 0, 44, 74
2, 23543, Note_on_c, 0, 63, 102
2, 23543, Note_on_c, 0, 51, 81
2, 23543, Note_on_c, 0, 54, 82
2, 23546, Control_c, 0, 64, 0
2, 23566, Note_on_c, 0, 40, 0
2, 23567, Note_on_c, 0, 52, 0
2, 23570, Note_on_c, 0, 61, 0
2, 23592, Note_on_c, 0, 47, 0
2, 23654, Control_c, 0, 64, 127
2, 23675, Note_on_c, 0, 61, 83
2, 23792, Note_on_c, 0, 63, 0
2, 23801, Note_on_c, 0, 63, 83
2, 23888, Control_c, 0, 64, 0
2, 23892, Note_on_c, 0, 61, 0
2, 23892, Note_on_c, 0, 59, 0
2, 23893, Note_on_c, 0, 63, 0
2, 23910, Note_on_c, 0, 64, 95
2, 23915, Note_on_c, 0, 54, 0
2, 23926, Note_on_c, 0, 54, 78
2, 23928, Note_on_c, 0, 59, 81
2, 23984, Note_on_c, 0, 64, 0
2, 23984, Control_c, 0, 64, 127
2, 24046, Note_on_c, 0, 63, 88
2, 24161, Note_on_c, 0, 61, 84
2, 24276, Note_on_c, 0, 59, 0
2, 24283, Note_on_c, 0, 59, 85
2, 24291, Note_on_c, 0, 44, 0
2, 24302, Note_on_c, 0, 47, 60
2, 24303, Note_on_c, 0, 44, 57
2, 24384, Note_on_c, 0, 61, 0
2, 24388, Note_on_c, 0, 61, 81
2, 24496, Control_c, 0, 64, 0
2, 24496, Note_on_c, 0, 51, 0
2, 24496, Note_on_c, 0, 44, 0
2, 24497, Note_on_c, 0, 54, 0
2, 24497, Note_on_c, 0, 47, 0
2, 24497, Note_on_c, 0, 61, 0
2, 24498, Note_on_c, 0, 59, 0
2, 24522, Note_on_c, 0, 63, 0
2, 24531, Note_on_c, 0, 63, 93
2, 24533, Note_on_c, 0, 58, 80
2, 24533, Note_on_c, 0, 42, 73
2, 24629, Control_c, 0, 64, 127
2, 24664, Note_on_c, 0, 61, 81
2, 24775, Note_on_c, 0, 63, 0
2, 24781, Note_on_c, 0, 63, 86
2, 24849, Note_on_c, 0, 58, 0
2, 24850, Control_c, 0, 64, 0
2, 24850, Note_on_c, 0, 63, 0
2, 24851, Note_on_c, 0, 61, 0
2, 24887, Note_on_c, 0, 54, 78
2, 24887, Note_on_c, 0, 64, 93
2, 24894, Note_on_c, 0, 58, 75
2, 24975, Note_on_c, 0, 64, 0
2, 24983, Control_c, 0, 64, 127
2, 25027, Note_on_c, 0, 63, 85
2, 25176, Note_on_c, 0, 61, 83
2, 25259, Note_on_c, 0, 42, 0
2, 25264, Note_on_c, 0, 42, 73
2, 25367, Note_on_c, 0, 61, 0
2, 25374, Note_on_c, 0, 61, 78
2, 25524, Control_c, 0, 64, 0
2, 25528, Note_on_c, 0, 59, 89
2, 25539, Note_on_c, 0, 40, 67
2, 25543, Note_on_c, 0, 58, 0
2, 25548, Note_on_c, 0, 42, 0
2, 25550, Note_on_c, 0, 63, 0
2, 25551, Note_on_c, 0, 54, 0
2, 25555, Note_on_c, 0, 61, 0
2, 25743, Control_c, 0, 64, 127
2, 25789, Note_on_c, 0, 59, 0
2, 25795, Note_on_c, 0, 47, 62
2, 25796, Note_on_c, 0, 59, 62
2, 25929, Note_on_c, 0, 52, 59
2, 26061, Note_on_c, 0, 54, 62
2, 26304, Note_on_c, 0, 52, 0
2, 26315, Note_on_c, 0, 52, 57
2, 26419, Note_on_c, 0, 59, 0
2, 26429, Note_on_c, 0, 59, 73
2, 26681, Note_on_c, 0, 64, 63
2, 26795, Note_on_c, 0, 59, 0
2, 26799, Note_on_c, 0, 59, 68
2, 26926, Note_on_c, 0, 54, 0
2, 26930, Note_on_c, 0, 54, 56
2, 27060, Note_on_c, 0, 66, 67
2, 27320, Note_on_c, 0, 78, 84
2, 27578, Note_on_c, 0, 47, 0
2, 27580, Note_on_c, 0, 83, 93
2, 27587, Note_on_c, 0, 75, 76
2, 27588, Note_on_c, 0, 47, 60
2, 27597, Control_c, 0, 64, 0
2, 27597, Note_on_c, 0, 71, 66
2, 27603, Note_on_c, 0, 59, 0
2, 27603, Note_on_c, 0, 54, 0
2, 27604, Note_on_c, 0, 40, 0
2, 27604, Note_on_c, 0, 52, 0
2, 27604, Note_on_c, 0, 64, 0
2, 27605, Note_on_c, 0, 78, 0
2, 27605, Note_on_c, 0, 66, 0
2, 27763, Control_c, 0, 64, 127
2, 27858, Note_on_c, 0, 54, 62
2, 27979, Note_on_c, 0, 78, 84
2, 28085, Note_on_c, 0, 78, 0
2, 28094, Note_on_c, 0, 78, 74
2, 28101, Note_on_c, 0, 71, 0
2, 28104, Note_on_c, 0, 59, 63
2, 28105, Note_on_c, 0, 71, 52
2, 28216, Note_on_c, 0, 54, 0
2, 28222, Note_on_c, 0, 54, 63
2, 28362, Note_on_c, 0, 61, 58
2, 28477, Note_on_c, 0, 54, 0
2, 28483, Note_on_c, 0, 54, 63
2, 28613, Note_on_c, 0, 63, 66
2, 28738, Note_on_c, 0, 54, 0
2, 28743, Note_on_c, 0, 54, 55
2, 28838, Note_on_c, 0, 59, 0
2, 28848, Note_on_c, 0, 59, 65
2, 28961, Note_on_c, 0, 54, 0
2, 28970, Note_on_c, 0, 54, 57
2, 29091, Note_on_c, 0, 47, 0
2, 29097, Note_on_c, 0, 47, 67
2, 29216, Note_on_c, 0, 88, 86
2, 29333, Note_on_c, 0, 87, 86
2, 29345, Note_on_c, 0, 54, 0
2, 29356, Note_on_c, 0, 54, 66
2, 29456, Note_on_c, 0, 85, 77
2, 29583, Note_on_c, 0, 83, 0
2, 29588, Note_on_c, 0, 83, 95
2, 29591, Note_on_c, 0, 71, 0
2, 29591, Note_on_c, 0, 78, 0
2, 29595, Note_on_c, 0, 52, 72
2, 29596, Note_on_c, 0, 78, 75
2, 29601, Note_on_c, 0, 71, 78
2, 29611, Control_c, 0, 64, 0
2, 29612, Note_on_c, 0, 87, 0
2, 29613, Note_on_c, 0, 54, 0
2, 29613, Note_on_c, 0, 63, 0
2, 29614, Note_on_c, 0, 75, 0
2, 29614, Note_on_c, 0, 85, 0
2, 29615, Note_on_c, 0, 59, 0
2, 29615, Note_on_c, 0, 61, 0
2, 29616, Note_on_c, 0, 47, 0
2, 29616, Note_on_c, 0, 88, 0
2, 29624, Note_on_c, 0, 76, 51
2, 29698, Note_on_c, 0, 76, 0
2, 29767, Control_c, 0, 64, 127
2, 29841, Note_on_c, 0, 59, 71
2, 29967, Note_on_c, 0, 78, 0
2, 29975, Note_on_c, 0, 78, 90
2, 30090, Note_on_c, 0, 78, 0
2, 30101, Note_on_c, 0, 64, 73
2, 30101, Note_on_c, 0, 78, 95
2, 30228, Note_on_c, 0, 59, 0
2, 30238, Note_on_c, 0, 59, 65
2, 30355, Note_on_c, 0, 66, 70
2, 30474, Note_on_c, 0, 59, 0
2, 30482, Note_on_c, 0, 59, 71
2, 30589, Note_on_c, 0, 71, 0
2, 30600, Note_on_c, 0, 71, 80
2, 30720, Note_on_c, 0, 59, 0
2, 30729, Note_on_c, 0, 59, 73
2, 30847, Note_on_c, 0, 70, 78
2, 30965, Note_on_c, 0, 59, 0
2, 30973, Note_on_c, 0, 59, 71
2, 31080, Note_on_c, 0, 83, 0
2, 31086, Note_on_c, 0, 83, 91
2, 31088, Note_on_c, 0, 66, 0
2, 31096, Note_on_c, 0, 66, 72
2, 31211, Note_on_c, 0, 59, 0
2, 31220, Note_on_c, 0, 59, 73
2, 31326, Note_on_c, 0, 52, 0
2, 31332, Note_on_c, 0, 52, 70
2, 31336, Note_on_c, 0, 85, 87
2, 31434, Note_on_c, 0, 59, 0
2, 31443, Note_on_c, 0, 59, 69
2, 31503, Note_on_c, 0, 78, 0
2, 31509, Note_on_c, 0, 78, 59
2, 31540, Note_on_c, 0, 70, 0
2, 31541, Control_c, 0, 64, 0
2, 31543, Note_on_c, 0, 59, 0
2, 31543, Note_on_c, 0, 52, 0
2, 31544, Note_on_c, 0, 85, 0
2, 31549, Note_on_c, 0, 83, 0
2, 31557, Note_on_c, 0, 66, 0
2, 31560, Note_on_c, 0, 83, 86
2, 31568, Note_on_c, 0, 66, 82
2, 31580, Note_on_c, 0, 64, 0
2, 31580, Note_on_c, 0, 71, 0
2, 31584, Note_on_c, 0, 56, 47
2, 31585, Note_on_c, 0, 63, 68
2, 31587, Note_on_c, 0, 78, 0
2, 31591, Note_on_c, 0, 87, 93
2, 31641, Control_c, 0, 64, 127
2, 31680, Note_on_c, 0, 83, 0
2, 31717, Note_on_c, 0, 85, 82
2, 31818, Note_on_c, 0, 87, 0
2, 31825, Note_on_c, 0, 63, 0
2, 31827, Note_on_c, 0, 87, 91
2, 31835, Note_on_c, 0, 63, 71
2, 31928, Note_on_c, 0, 88, 93
2, 31941, Note_on_c, 0, 66, 0
2, 31943, Note_on_c, 0, 71, 84
2, 31950, Note_on_c, 0, 66, 77
2, 32056, Note_on_c, 0, 87, 0
2, 32060, Note_on_c, 0, 87, 92
2, 32163, Note_on_c, 0, 85, 0
2, 32173, Note_on_c, 0, 85, 84
2, 32179, Note_on_c, 0, 63, 0
2, 32185, Note_on_c, 0, 63, 74
2, 32294, Note_on_c, 0, 56, 0
2, 32300, Note_on_c, 0, 83, 91
2, 32304, Note_on_c, 0, 56, 71
2, 32417, Note_on_c, 0, 85, 0
2, 32423, Note_on_c, 0, 85, 81
2, 32504, Control_c, 0, 64, 0
2, 32504, Note_on_c, 0, 88, 0
2, 32505, Note_on_c, 0, 71, 0
2, 32505, Note_on_c, 0, 66, 0
2, 32505, Note_on_c, 0, 83, 0
2, 32505, Note_on_c, 0, 63, 0
2, 32506, Note_on_c, 0, 85, 0
2, 32517, Note_on_c, 0, 56, 0
2, 32527, Note_on_c, 0, 78, 81
2, 32531, Note_on_c, 0, 82, 81
2, 32532, Note_on_c, 0, 87, 0
2, 32536, Note_on_c, 0, 87, 93
2, 32550, Note_on_c, 0, 61, 67
2, 32550, Note_on_c, 0, 54, 72
2, 32601, Control_c, 0, 64, 127
2, 32667, Note_on_c, 0, 85, 84
2, 32770, Note_on_c, 0, 61, 0
2, 32770, Note_on_c, 0, 87, 0
2, 32775, Note_on_c, 0, 87, 91
2, 32781, Note_on_c, 0, 61, 65
2, 32888, Note_on_c, 0, 88, 89
2, 32896, Note_on_c, 0, 66, 76
2, 32912, Note_on_c, 0, 70, 76
2, 33008, Note_on_c, 0, 87, 0
2, 33014, Note_on_c, 0, 87, 92
2, 33162, Note_on_c, 0, 85, 0
2, 33169, Note_on_c, 0, 85, 83
2, 33269, Note_on_c, 0, 54, 0
2, 33277, Note_on_c, 0, 54, 53
2, 33354, Note_on_c, 0, 85, 0
2, 33358, Note_on_c, 0, 85, 78
2, 33502, Note_on_c, 0, 83, 90
2, 33515, Note_on_c, 0, 78, 0
2, 33519, Note_on_c, 0, 52, 63
2, 33521, Note_on_c, 0, 76, 70
2, 33525, Note_on_c, 0, 78, 72
2, 33530, Note_on_c, 0, 87, 0
2, 33531, Note_on_c, 0, 61, 0
2, 33531, Note_on_c, 0, 54, 0
2, 33532, Note_on_c, 0, 85, 0
2, 33532, Note_on_c, 0, 70, 0
2, 33532, Note_on_c, 0, 66, 0
2, 33532, Control_c, 0, 64, 0
2, 33533, Note_on_c, 0, 88, 0
2, 33533, Note_on_c, 0, 82, 0
2, 33676, Control_c, 0, 64, 127
2, 33767, Note_on_c, 0, 59, 66
2, 33772, Note_on_c, 0, 71, 56
2, 33887, Note_on_c, 0, 64, 66
2, 34007, Note_on_c, 0, 66, 71
2, 34014, Note_on_c, 0, 76, 0
2, 34252, Note_on_c, 0, 64, 0
2, 34260, Note_on_c, 0, 64, 64
2, 34375, Note_on_c, 0, 71, 0
2, 34382, Note_on_c, 0, 71, 81
2, 34635, Note_on_c, 0, 70, 70
2, 34851, Note_on_c, 0, 66, 0
2, 34860, Note_on_c, 0, 66, 64
2, 34997, Note_on_c, 0, 71, 0
2, 35005, Note_on_c, 0, 71, 77
2, 35112, Note_on_c, 0, 52, 0
2, 35122, Note_on_c, 0, 52, 65
2, 35243, Note_on_c, 0, 59, 0
2, 35247, Note_on_c, 0, 73, 79
2, 35250, Note_on_c, 0, 59, 67
2, 35351, Note_on_c, 0, 64, 0
2, 35361, Note_on_c, 0, 64, 63
2, 35389, Note_on_c, 0, 71, 0
2, 35399, Note_on_c, 0, 71, 67
2, 35420, Note_on_c, 0, 83, 0
2, 35443, Note_on_c, 0, 73, 0
2, 35443, Note_on_c, 0, 70, 0
2, 35444, Note_on_c, 0, 66, 0
2, 35444, Note_on_c, 0, 52, 0
2, 35444, Note_on_c, 0, 78, 0
2, 35444, Control_c, 0, 64, 0
2, 35445, Note_on_c, 0, 59, 0
2, 35448, Note_on_c, 0, 73, 78
2, 35466, Note_on_c, 0, 64, 0
2, 35481, Note_on_c, 0, 56, 66
2, 35509, Note_on_c, 0, 75, 83
2, 35516, Note_on_c, 0, 73, 0
2, 35581, Control_c, 0, 64, 127
2, 35641, Note_on_c, 0, 73, 67
2, 35730, Note_on_c, 0, 63, 62
2, 35750, Note_on_c, 0, 75, 0
2, 35755, Note_on_c, 0, 75, 74
2, 35856, Note_on_c, 0, 76, 86
2, 35875, Note_on_c, 0, 66, 65
2, 35973, Note_on_c, 0, 75, 0
2, 35978, Note_on_c, 0, 75, 77
2, 36088, Note_on_c, 0, 73, 0
2, 36099, Note_on_c, 0, 73, 74
2, 36226, Note_on_c, 0, 71, 0
2, 36234, Note_on_c, 0, 56, 0
2, 36235, Note_on_c, 0, 71, 73
2, 36238, Note_on_c, 0, 56, 57
2, 36334, Note_on_c, 0, 73, 0
2, 36344, Note_on_c, 0, 73, 79
2, 36454, Control_c, 0, 64, 0
2, 36455, Note_on_c, 0, 63, 0
2, 36455, Note_on_c, 0, 56, 0
2, 36455, Note_on_c, 0, 71, 0
2, 36456, Note_on_c, 0, 76, 0
2, 36457, Note_on_c, 0, 66, 0
2, 36464, Note_on_c, 0, 75, 0
2, 36472, Note_on_c, 0, 73, 0
2, 36473, Note_on_c, 0, 75, 84
2, 36476, Note_on_c, 0, 70, 75
2, 36481, Note_on_c, 0, 54, 68
2, 36549, Control_c, 0, 64, 127
2, 36613, Note_on_c, 0, 73, 70
2, 36710, Note_on_c, 0, 75, 0
2, 36713, Note_on_c, 0, 61, 62
2, 36718, Note_on_c, 0, 75, 76
2, 36837, Note_on_c, 0, 76, 85
2, 36837, Note_on_c, 0, 66, 64
2, 36963, Note_on_c, 0, 75, 0
2, 36973, Note_on_c, 0, 75, 83
2, 37102, Note_on_c, 0, 73, 0
2, 37112, Note_on_c, 0, 73, 82
2, 37201, Note_on_c, 0, 54, 0
2, 37211, Note_on_c, 0, 54, 57
2, 37294, Note_on_c, 0, 73, 0
2, 37304, Note_on_c, 0, 73, 82
2, 37449, Note_on_c, 0, 71, 82
2, 37458, Note_on_c, 0, 52, 64
2, 37465, Control_c, 0, 64, 0
2, 37465, Note_on_c, 0, 66, 0
2, 37465, Note_on_c, 0, 61, 0
2, 37465, Note_on_c, 0, 76, 0
2, 37470, Note_on_c, 0, 70, 0
2, 37478, Note_on_c, 0, 73, 0
2, 37486, Note_on_c, 0, 54, 0
2, 37486, Note_on_c, 0, 75, 0
2, 37593, Control_c, 0, 64, 127
2, 37711, Note_on_c, 0, 59, 61
2, 37837, Note_on_c, 0, 64, 60
2, 37943, Note_on_c, 0, 66, 63
2, 38192, Note_on_c, 0, 64, 0
2, 38204, Note_on_c, 0, 64, 57
2, 38300, Note_on_c, 0, 71, 0
2, 38309, Note_on_c, 0, 71, 75
2, 38552, Note_on_c, 0, 76, 71
2, 38618, Note_on_c, 0, 78, 79
2, 38676, Note_on_c, 0, 59, 0
2, 38680, Note_on_c, 0, 59, 67
2, 38682, Note_on_c, 0, 83, 87
2, 38771, Note_on_c, 0, 88, 80
2, 38832, Note_on_c, 0, 90, 78
2, 38880, Note_on_c, 0, 95, 100
2, 38891, Note_on_c, 0, 71, 0
2, 38900, Note_on_c, 0, 71, 86
2, 38902, Note_on_c, 0, 83, 0
2, 38903, Note_on_c, 0, 88, 0
2, 38904, Note_on_c, 0, 59, 0
2, 38905, Note_on_c, 0, 90, 0
2, 38906, Note_on_c, 0, 64, 0
2, 38906, Note_on_c, 0, 66, 0
2, 38909, Note_on_c, 0, 76, 0
2, 38909, Note_on_c, 0, 78, 0
2, 38914, Note_on_c, 0, 52, 0
2, 38914, Note_on_c, 0, 64, 68
2, 38916, Note_on_c, 0, 66, 78
2, 39145, Note_on_c, 0, 52, 82
2, 39306, Note_on_c, 0, 66, 0
2, 39313, Control_c, 0, 64, 0
2, 39314, Note_on_c, 0, 52, 0
2, 39314, Note_on_c, 0, 71, 0
2, 39321, Note_on_c, 0, 64, 0
2, 39321, Note_on_c, 0, 95, 0
2, 39395, Note_on_c, 0, 71, 98
2, 39397, Note_on_c, 0, 54, 102
2, 39397, Note_on_c, 0, 66, 97
2, 39400, Note_on_c, 0, 63, 88
2, 39401, Note_on_c, 0, 44, 87
2, 39402, Note_on_c, 0, 51, 88
2, 39467, Note_on_c, 0, 44, 0
2, 39467, Note_on_c, 0, 51, 0
2, 39467, Note_on_c, 0, 63, 0
2, 39467, Control_c, 0, 64, 127
2, 39516, Note_on_c, 0, 73, 86
2, 39618, Control_c, 0, 64, 0
2, 39623, Note_on_c, 0, 73, 0
2, 39623, Note_on_c, 0, 71, 0
2, 39624, Note_on_c, 0, 66, 0
2, 39636, Note_on_c, 0, 54, 0
2, 39639, Note_on_c, 0, 75, 87
2, 39641, Note_on_c, 0, 54, 77
2, 39642, Note_on_c, 0, 59, 74
2, 39673, Note_on_c, 0, 59, 0
2, 39679, Note_on_c, 0, 75, 0
2, 39697, Note_on_c, 0, 54, 0
2, 39756, Note_on_c, 0, 71, 88
2, 39761, Note_on_c, 0, 44, 77
2, 39797, Control_c, 0, 64, 127
2, 39877, Note_on_c, 0, 73, 87
2, 39878, Note_on_c, 0, 59, 75
2, 39879, Note_on_c, 0, 54, 81
2, 40000, Note_on_c, 0, 75, 83
2, 40069, Control_c, 0, 64, 0
2, 40070, Note_on_c, 0, 54, 0
2, 40071, Note_on_c, 0, 73, 0
2, 40071, Note_on_c, 0, 59, 0
2, 40071, Note_on_c, 0, 44, 0
2, 40073, Note_on_c, 0, 75, 0
2, 40081, Note_on_c, 0, 71, 0
2, 40127, Note_on_c, 0, 71, 99
2, 40131, Note_on_c, 0, 47, 81
2, 40133, Note_on_c, 0, 68, 79
2, 40134, Note_on_c, 0, 64, 82
2, 40134, Note_on_c, 0, 40, 91
2, 40134, Note_on_c, 0, 52, 98
2, 40181, Note_on_c, 0, 47, 0
2, 40181, Control_c, 0, 64, 127
2, 40243, Note_on_c, 0, 52, 0
2, 40266, Note_on_c, 0, 73, 82
2, 40379, Note_on_c, 0, 75, 94
2, 40390, Note_on_c, 0, 59, 77
2, 40390, Note_on_c, 0, 47, 68
2, 40394, Note_on_c, 0, 54, 75
2, 40399, Control_c, 0, 64, 0
2, 40402, Note_on_c, 0, 68, 0
2, 40402, Note_on_c, 0, 73, 0
2, 40404, Note_on_c, 0, 40, 0
2, 40404, Note_on_c, 0, 64, 0
2, 40409, Note_on_c, 0, 71, 0
2, 40423, Note_on_c, 0, 59, 0
2, 40424, Note_on_c, 0, 75, 0
2, 40450, Note_on_c, 0, 54, 0
2, 40458, Note_on_c, 0, 47, 0
2, 40509, Note_on_c, 0, 71, 93
2, 40513, Note_on_c, 0, 52, 82
2, 40549, Note_on_c, 0, 52, 0
2, 40549, Note_on_c, 0, 71, 0
2, 40596, Control_c, 0, 64, 127
2, 40624, Note_on_c, 0, 54, 82
2, 40625, Note_on_c, 0, 73, 89
2, 40625, Note_on_c, 0, 59, 79
2, 40742, Note_on_c, 0, 59, 0
2, 40752, Note_on_c, 0, 75, 92
2, 40803, Note_on_c, 0, 73, 0
2, 40805, Note_on_c, 0, 75, 0
2, 40805, Control_c, 0, 64, 0
2, 40811, Note_on_c, 0, 54, 0
2, 40868, Note_on_c, 0, 71, 99
2, 40873, Note_on_c, 0, 47, 78
2, 40875, Note_on_c, 0, 52, 95
2, 40877, Note_on_c, 0, 40, 88
2, 40877, Note_on_c, 0, 68, 76
2, 40877, Note_on_c, 0, 66, 84
2, 40919, Control_c, 0, 64, 127
2, 40990, Note_on_c, 0, 73, 85
2, 41072, Note_on_c, 0, 47, 0
2, 41093, Control_c, 0, 64, 0
2, 41095, Note_on_c, 0, 52, 0
2, 41096, Note_on_c, 0, 73, 0
2, 41098, Note_on_c, 0, 71, 0
2, 41103, Note_on_c, 0, 66, 0
2, 41111, Note_on_c, 0, 40, 0
2, 41111, Note_on_c, 0, 68, 0
2, 41112, Note_on_c, 0, 75, 95
2, 41114, Note_on_c, 0, 59, 78
2, 41114, Note_on_c, 0, 54, 83
2, 41149, Note_on_c, 0, 59, 0
2, 41152, Note_on_c, 0, 54, 0
2, 41183, Note_on_c, 0, 75, 0
2, 41229, Note_on_c, 0, 71, 77
2, 41273, Note_on_c, 0, 71, 0
2, 41291, Note_on_c, 0, 66, 72
2, 41346, Note_on_c, 0, 71, 85
2, 41347, Note_on_c, 0, 78, 107
2, 41354, Note_on_c, 0, 75, 88
2, 41360, Note_on_c, 0, 47, 87
2, 41360, Note_on_c, 0, 35, 88
2, 41372, Control_c, 0, 64, 127
2, 41602, Note_on_c, 0, 47, 0
2, 41606, Note_on_c, 0, 47, 77
2, 41737, Note_on_c, 0, 54, 71
2, 41838, Control_c, 0, 64, 0
2, 41848, Note_on_c, 0, 47, 0
2, 41852, Note_on_c, 0, 63, 97
2, 41854, Note_on_c, 0, 59, 93
2, 41856, Note_on_c, 0, 47, 77
2, 41909, Note_on_c, 0, 35, 0
2, 41932, Control_c, 0, 64, 127
2, 42109, Note_on_c, 0, 73, 87
2, 42205, Control_c, 0, 64, 0
2, 42205, Note_on_c, 0, 63, 0
2, 42205, Note_on_c, 0, 59, 0
2, 42205, Note_on_c, 0, 71, 0
2, 42205, Note_on_c, 0, 75, 0
2, 42205, Note_on_c, 0, 66, 0
2, 42206, Note_on_c, 0, 78, 0
2, 42216, Note_on_c, 0, 47, 0
2, 42240, Note_on_c, 0, 54, 0
2, 42240, Note_on_c, 0, 73, 0
2, 42243, Note_on_c, 0, 73, 99
2, 42245, Note_on_c, 0, 54, 90
2, 42246, Note_on_c, 0, 42, 91
2, 42251, Note_on_c, 0, 70, 87
2, 42251, Note_on_c, 0, 61, 90
2, 42291, Note_on_c, 0, 61, 0
2, 42393, Control_c, 0, 64, 127
2, 42497, Note_on_c, 0, 59, 77
2, 42622, Note_on_c, 0, 58, 75
2, 42723, Note_on_c, 0, 59, 0
2, 42731, Note_on_c, 0, 59, 82
2, 42854, Note_on_c, 0, 54, 0
2, 42864, Note_on_c, 0, 54, 80
2, 42990, Note_on_c, 0, 49, 81
2, 43100, Note_on_c, 0, 42, 0
2, 43106, Note_on_c, 0, 42, 80
2, 43313, Note_on_c, 0, 42, 0
2, 43313, Note_on_c, 0, 58, 0
2, 43313, Note_on_c, 0, 73, 0
2, 43313, Note_on_c, 0, 49, 0
2, 43314, Note_on_c, 0, 59, 0
2, 43314, Note_on_c, 0, 70, 0
2, 43314, Control_c, 0, 64, 0
2, 43330, Note_on_c, 0, 54, 0
2, 43354, Note_on_c, 0, 71, 98
2, 43356, Note_on_c, 0, 54, 96
2, 43357, Note_on_c, 0, 66, 94
2, 43357, Note_on_c, 0, 44, 83
2, 43357, Note_on_c, 0, 51, 89
2, 43358, Note_on_c, 0, 63, 87
2, 43388, Note_on_c, 0, 54, 0
2, 43396, Note_on_c, 0, 44, 0
2, 43396, Note_on_c, 0, 51, 0
2, 43401, Note_on_c, 0, 63, 0
2, 43438, Control_c, 0, 64, 127
2, 43485, Note_on_c, 0, 73, 84
2, 43568, Note_on_c, 0, 66, 0
2, 43572, Control_c, 0, 64, 0
2, 43573, Note_on_c, 0, 73, 0
2, 43584, Note_on_c, 0, 71, 0
2, 43601, Note_on_c, 0, 59, 75
2, 43603, Note_on_c, 0, 54, 71
2, 43603, Note_on_c, 0, 47, 61
2, 43603, Note_on_c, 0, 75, 79
2, 43632, Note_on_c, 0, 59, 0
2, 43634, Note_on_c, 0, 47, 0
2, 43637, Note_on_c, 0, 75, 0
2, 43638, Note_on_c, 0, 54, 0
2, 43719, Note_on_c, 0, 71, 87
2, 43725, Note_on_c, 0, 44, 70
2, 43760, Control_c, 0, 64, 127
2, 43836, Note_on_c, 0, 73, 86
2, 43840, Note_on_c, 0, 59, 78
2, 43960, Note_on_c, 0, 75, 83
2, 44026, Note_on_c, 0, 59, 0
2, 44026, Note_on_c, 0, 73, 0
2, 44026, Control_c, 0, 64, 0
2, 44029, Note_on_c, 0, 44, 0
2, 44030, Note_on_c, 0, 75, 0
2, 44037, Note_on_c, 0, 71, 0
2, 44087, Note_on_c, 0, 52, 97
2, 44091, Note_on_c, 0, 71, 98
2, 44091, Note_on_c, 0, 47, 80
2, 44092, Note_on_c, 0, 40, 91
2, 44096, Note_on_c, 0, 66, 86
2, 44099, Note_on_c, 0, 68, 77
2, 44129, Control_c, 0, 64, 127
2, 44136, Note_on_c, 0, 47, 0
2, 44144, Note_on_c, 0, 52, 0
2, 44224, Note_on_c, 0, 73, 83
2, 44321, Note_on_c, 0, 40, 0
2, 44339, Note_on_c, 0, 75, 91
2, 44341, Note_on_c, 0, 59, 81
2, 44342, Note_on_c, 0, 54, 83
2, 44350, Control_c, 0, 64, 0
2, 44350, Note_on_c, 0, 47, 65
2, 44355, Note_on_c, 0, 68, 0
2, 44357, Note_on_c, 0, 73, 0
2, 44362, Note_on_c, 0, 66, 0
2, 44369, Note_on_c, 0, 71, 0
2, 44376, Note_on_c, 0, 54, 0
2, 44377, Note_on_c, 0, 59, 0
2, 44379, Note_on_c, 0, 75, 0
2, 44405, Note_on_c, 0, 47, 0
2, 44463, Note_on_c, 0, 71, 90
2, 44466, Note_on_c, 0, 52, 82
2, 44504, Note_on_c, 0, 71, 0
2, 44505, Note_on_c, 0, 52, 0
2, 44544, Control_c, 0, 64, 127
2, 44579, Note_on_c, 0, 59, 77
2, 44580, Note_on_c, 0, 54, 86
2, 44580, Note_on_c, 0, 73, 89
2, 44582, Note_on_c, 0, 47, 70
2, 44700, Note_on_c, 0, 75, 91
2, 44769, Control_c, 0, 64, 0
2, 44770, Note_on_c, 0, 54, 0
2, 44770, Note_on_c, 0, 73, 0
2, 44770, Note_on_c, 0, 59, 0
2, 44771, Note_on_c, 0, 75, 0
2, 44774, Note_on_c, 0, 47, 0
2, 44826, Note_on_c, 0, 71, 100
2, 44830, Note_on_c, 0, 47, 81
2, 44832, Note_on_c, 0, 52, 98
2, 44834, Note_on_c, 0, 40, 92
2, 44836, Note_on_c, 0, 66, 89
2, 44837, Note_on_c, 0, 68, 80
2, 44858, Note_on_c, 0, 47, 0
2, 44866, Control_c, 0, 64, 127
2, 44920, Note_on_c, 0, 52, 0
2, 44949, Note_on_c, 0, 73, 85
2, 45070, Note_on_c, 0, 75, 95
2, 45070, Note_on_c, 0, 59, 87
2, 45071, Note_on_c, 0, 54, 89
2, 45073, Note_on_c, 0, 71, 0
2, 45076, Note_on_c, 0, 47, 79
2, 45078, Note_on_c, 0, 71, 77
2, 45096, Note_on_c, 0, 40, 0
2, 45100, Note_on_c, 0, 73, 0
2, 45101, Note_on_c, 0, 59, 0
2, 45101, Control_c, 0, 64, 0
2, 45107, Note_on_c, 0, 54, 0
2, 45110, Note_on_c, 0, 75, 0
2, 45112, Note_on_c, 0, 66, 0
2, 45112, Note_on_c, 0, 68, 0
2, 45120, Note_on_c, 0, 71, 0
2, 45135, Note_on_c, 0, 47, 0
2, 45192, Note_on_c, 0, 71, 84
2, 45239, Note_on_c, 0, 71, 0
2, 45301, Note_on_c, 0, 66, 92
2, 45322, Note_on_c, 0, 78, 106
2, 45330, Note_on_c, 0, 71, 90
2, 45331, Note_on_c, 0, 75, 94
2, 45331, Note_on_c, 0, 47, 88
2, 45332, Note_on_c, 0, 35, 83
2, 45333, Note_on_c, 0, 69, 78
2, 45350, Control_c, 0, 64, 127
2, 45573, Note_on_c, 0, 47, 0
2, 45577, Note_on_c, 0, 47, 85
2, 45715, Note_on_c, 0, 54, 79
2, 45832, Note_on_c, 0, 59, 92
2, 45833, Note_on_c, 0, 63, 95
2, 46084, Note_on_c, 0, 73, 87
2, 46169, Note_on_c, 0, 47, 0
2, 46169, Note_on_c, 0, 75, 0
2, 46169, Note_on_c, 0, 63, 0
2, 46169, Note_on_c, 0, 78, 0
2, 46169, Note_on_c, 0, 71, 0
2, 46169, Note_on_c, 0, 69, 0
2, 46170, Note_on_c, 0, 73, 0
2, 46170, Note_on_c, 0, 66, 0
2, 46170, Note_on_c, 0, 59, 0
2, 46170, Control_c, 0, 64, 0
2, 46172, Note_on_c, 0, 35, 0
2, 46202, Note_on_c, 0, 54, 0
2, 46213, Note_on_c, 0, 73, 101
2, 46213, Note_on_c, 0, 54, 94
2, 46214, Note_on_c, 0, 42, 91
2, 46221, Note_on_c, 0, 61, 93
2, 46222, Note_on_c, 0, 70, 88
2, 46364, Control_c, 0, 64, 127
2, 46394, Note_on_c, 0, 42, 0
2, 46467, Note_on_c, 0, 59, 74
2, 46595, Note_on_c, 0, 58, 67
2, 46709, Note_on_c, 0, 54, 0
2, 46714, Note_on_c, 0, 54, 73
2, 46839, Note_on_c, 0, 66, 82
2, 47099, Note_on_c, 0, 71, 76
2, 47199, Note_on_c, 0, 83, 81
2, 47334, Note_on_c, 0, 82, 80
2, 47337, Note_on_c, 0, 39, 58
2, 47339, Note_on_c, 0, 54, 0
2, 47340, Control_c, 0, 64, 0
2, 47343, Note_on_c, 0, 83, 0
2, 47343, Note_on_c, 0, 66, 0
2, 47343, Note_on_c, 0, 58, 0
2, 47343, Note_on_c, 0, 71, 0
2, 47343, Note_on_c, 0, 61, 0
2, 47343, Note_on_c, 0, 59, 0
2, 47344, Note_on_c, 0, 73, 0
2, 47344, Note_on_c, 0, 70, 0
2, 47349, Note_on_c, 0, 54, 61
2, 47359, Note_on_c, 0, 78, 61
2, 47523, Control_c, 0, 64, 127
2, 47604, Note_on_c, 0, 47, 58
2, 47605, Note_on_c, 0, 80, 79
2, 47838, Note_on_c, 0, 54, 0
2, 47842, Note_on_c, 0, 59, 67
2, 47844, Note_on_c, 0, 54, 67
2, 47846, Note_on_c, 0, 82, 0
2, 47851, Note_on_c, 0, 82, 85
2, 47884, Control_c, 0, 64, 0
2, 47969, Control_c, 0, 64, 127
2, 48092, Note_on_c, 0, 39, 0
2, 48099, Note_on_c, 0, 80, 0
2, 48102, Note_on_c, 0, 39, 58
2, 48106, Note_on_c, 0, 80, 75
2, 48218, Control_c, 0, 64, 0
2, 48221, Note_on_c, 0, 54, 0
2, 48222, Note_on_c, 0, 80, 0
2, 48222, Note_on_c, 0, 82, 0
2, 48223, Note_on_c, 0, 39, 0
2, 48223, Note_on_c, 0, 59, 0
2, 48233, Note_on_c, 0, 82, 82
2, 48238, Note_on_c, 0, 47, 0
2, 48238, Note_on_c, 0, 78, 0
2, 48242, Note_on_c, 0, 40, 57
2, 48243, Note_on_c, 0, 78, 65
2, 48243, Note_on_c, 0, 52, 62
2, 48244, Note_on_c, 0, 76, 65
2, 48407, Control_c, 0, 64, 127
2, 48506, Note_on_c, 0, 83, 85
2, 48619, Note_on_c, 0, 47, 63
2, 48624, Note_on_c, 0, 71, 52
2, 48752, Note_on_c, 0, 82, 0
2, 48761, Note_on_c, 0, 82, 86
2, 48867, Note_on_c, 0, 71, 0
2, 48872, Note_on_c, 0, 68, 62
2, 48872, Note_on_c, 0, 59, 74
2, 48875, Note_on_c, 0, 56, 62
2, 48878, Note_on_c, 0, 71, 65
2, 48990, Note_on_c, 0, 80, 86
2, 49113, Note_on_c, 0, 40, 0
2, 49113, Note_on_c, 0, 78, 0
2, 49118, Note_on_c, 0, 78, 83
2, 49118, Note_on_c, 0, 40, 54
2, 49221, Note_on_c, 0, 47, 0
2, 49229, Note_on_c, 0, 47, 62
2, 49302, Note_on_c, 0, 73, 68
2, 49341, Control_c, 0, 64, 0
2, 49342, Note_on_c, 0, 47, 0
2, 49343, Note_on_c, 0, 80, 0
2, 49343, Note_on_c, 0, 56, 0
2, 49344, Note_on_c, 0, 40, 0
2, 49344, Note_on_c, 0, 52, 0
2, 49345, Note_on_c, 0, 59, 0
2, 49345, Note_on_c, 0, 76, 0
2, 49345, Note_on_c, 0, 83, 0
2, 49351, Note_on_c, 0, 78, 0
2, 49359, Note_on_c, 0, 68, 0
2, 49359, Note_on_c, 0, 82, 0
2, 49360, Note_on_c, 0, 78, 81
2, 49363, Note_on_c, 0, 82, 84
2, 49367, Note_on_c, 0, 71, 0
2, 49388, Note_on_c, 0, 85, 87
2, 49390, Note_on_c, 0, 42, 68
2, 49474, Note_on_c, 0, 73, 0
2, 49474, Control_c, 0, 64, 127
2, 49642, Note_on_c, 0, 49, 68
2, 49743, Note_on_c, 0, 85, 0
2, 49748, Note_on_c, 0, 85, 90
2, 49868, Note_on_c, 0, 58, 73
2, 49877, Note_on_c, 0, 54, 64
2, 49882, Note_on_c, 0, 70, 65
2, 49889, Note_on_c, 0, 70, 0
2, 49896, Note_on_c, 0, 49, 0
2, 49901, Note_on_c, 0, 49, 40
2, 49994, Note_on_c, 0, 87, 91
2, 50104, Note_on_c, 0, 42, 0
2, 50112, Note_on_c, 0, 42, 71
2, 50113, Note_on_c, 0, 88, 85
2, 50224, Note_on_c, 0, 85, 0
2, 50224, Note_on_c, 0, 58, 0
2, 50224, Note_on_c, 0, 54, 0
2, 50224, Note_on_c, 0, 78, 0
2, 50224, Note_on_c, 0, 49, 0
2, 50225, Note_on_c, 0, 82, 0
2, 50225, Control_c, 0, 64, 0
2, 50226, Note_on_c, 0, 42, 0
2, 50228, Note_on_c, 0, 88, 0
2, 50242, Note_on_c, 0, 87, 0
2, 50248, Note_on_c, 0, 80, 84
2, 50248, Note_on_c, 0, 87, 91
2, 50253, Note_on_c, 0, 83, 84
2, 50254, Note_on_c, 0, 44, 70
2, 50258, Note_on_c, 0, 56, 74
2, 50457, Control_c, 0, 64, 127
2, 50509, Note_on_c, 0, 51, 68
2, 50639, Note_on_c, 0, 58, 71
2, 50764, Note_on_c, 0, 51, 0
2, 50774, Note_on_c, 0, 51, 68
2, 50884, Note_on_c, 0, 59, 82
2, 51142, Note_on_c, 0, 71, 96
2, 51256, Note_on_c, 0, 71, 0
2, 51265, Note_on_c, 0, 71, 96
2, 51374, Note_on_c, 0, 70, 97
2, 51375, Note_on_c, 0, 65, 92
2, 51381, Note_on_c, 0, 61, 93
2, 51382, Note_on_c, 0, 53, 99
2, 51383, Note_on_c, 0, 41, 92
2, 51384, Note_on_c, 0, 58, 0
2, 51390, Note_on_c, 0, 51, 0
2, 51390, Note_on_c, 0, 59, 0
2, 51396, Note_on_c, 0, 56, 0
2, 51417, Control_c, 0, 64, 0
2, 51502, Note_on_c, 0, 41, 0
2, 51502, Note_on_c, 0, 53, 0
2, 51502, Control_c, 0, 64, 127
2, 51512, Note_on_c, 0, 41, 94
2, 51512, Note_on_c, 0, 53, 94
2, 51545, Note_on_c, 0, 53, 0
2, 51545, Note_on_c, 0, 41, 0
2, 51546, Note_on_c, 0, 61, 0
2, 51547, Note_on_c, 0, 83, 0
2, 51548, Note_on_c, 0, 44, 0
2, 51549, Note_on_c, 0, 80, 0
2, 51549, Control_c, 0, 64, 0
2, 51549, Note_on_c, 0, 71, 0
2, 51555, Note_on_c, 0, 87, 0
2, 51563, Note_on_c, 0, 65, 0
2, 51571, Note_on_c, 0, 70, 0
2, 51634, Note_on_c, 0, 68, 91
2, 51674, Note_on_c, 0, 68, 0
2, 51883, Note_on_c, 0, 70, 105
2, 51932, Control_c, 0, 64, 127
2, 52097, Note_on_c, 0, 70, 0
2, 52108, Control_c, 0, 64, 0
2, 52141, Note_on_c, 0, 68, 85
2, 52141, Note_on_c, 0, 41, 75
2, 52142, Note_on_c, 0, 53, 75
2, 52169, Note_on_c, 0, 41, 0
2, 52169, Note_on_c, 0, 53, 0
2, 52172, Note_on_c, 0, 68, 0
2, 52255, Note_on_c, 0, 70, 100
2, 52261, Note_on_c, 0, 64, 93
2, 52262, Note_on_c, 0, 52, 95
2, 52267, Note_on_c, 0, 66, 86
2, 52268, Note_on_c, 0, 40, 84
2, 52362, Control_c, 0, 64, 127
2, 52518, Note_on_c, 0, 71, 94
2, 52638, Note_on_c, 0, 40, 0
2, 52649, Note_on_c, 0, 40, 79
2, 52769, Note_on_c, 0, 70, 0
2, 52779, Note_on_c, 0, 70, 95
2, 52894, Note_on_c, 0, 68, 76
2, 52895, Note_on_c, 0, 56, 76
2, 52896, Note_on_c, 0, 59, 84
2, 53007, Note_on_c, 0, 68, 0
2, 53013, Note_on_c, 0, 68, 93
2, 53107, Note_on_c, 0, 40, 0
2, 53118, Note_on_c, 0, 40, 89
2, 53119, Note_on_c, 0, 28, 90
2, 53130, Note_on_c, 0, 28, 0
2, 53130, Note_on_c, 0, 66, 0
2, 53134, Note_on_c, 0, 66, 96
2, 53238, Note_on_c, 0, 47, 74
2, 53340, Note_on_c, 0, 71, 0
2, 53340, Note_on_c, 0, 66, 0
2, 53340, Control_c, 0, 64, 0
2, 53340, Note_on_c, 0, 47, 0
2, 53340, Note_on_c, 0, 59, 0
2, 53340, Note_on_c, 0, 56, 0
2, 53340, Note_on_c, 0, 68, 0
2, 53340, Note_on_c, 0, 52, 0
2, 53341, Note_on_c, 0, 70, 0
2, 53352, Note_on_c, 0, 40, 0
2, 53352, Note_on_c, 0, 64, 0
2, 53386, Note_on_c, 0, 75, 107
2, 53388, Note_on_c, 0, 66, 101
2, 53388, Note_on_c, 0, 63, 100
2, 53389, Note_on_c, 0, 71, 87
2, 53390, Note_on_c, 0, 42, 98
2, 53498, Control_c, 0, 64, 127
2, 53575, Note_on_c, 0, 63, 0
2, 53649, Note_on_c, 0, 30, 81
2, 53721, Note_on_c, 0, 42, 0
2, 53732, Note_on_c, 0, 42, 46
2, 53790, Note_on_c, 0, 30, 0
2, 53800, Note_on_c, 0, 30, 79
2, 53844, Note_on_c, 0, 42, 0
2, 53853, Note_on_c, 0, 42, 84
2, 53886, Note_on_c, 0, 78, 91
2, 53886, Note_on_c, 0, 87, 103
2, 53894, Note_on_c, 0, 75, 0
2, 53901, Note_on_c, 0, 83, 82
2, 53905, Note_on_c, 0, 30, 0
2, 53905, Note_on_c, 0, 83, 0
2, 53913, Control_c, 0, 64, 0
2, 53915, Note_on_c, 0, 30, 86
2, 53967, Note_on_c, 0, 42, 0
2, 53972, Note_on_c, 0, 42, 72
2, 53998, Control_c, 0, 64, 127
2, 54028, Note_on_c, 0, 30, 0
2, 54036, Note_on_c, 0, 30, 87
2, 54120, Note_on_c, 0, 30, 0
2, 54131, Note_on_c, 0, 30, 79
2, 54163, Note_on_c, 0, 73, 100
2, 54229, Note_on_c, 0, 78, 0
2, 54230, Note_on_c, 0, 73, 0
2, 54230, Note_on_c, 0, 87, 0
2, 54230, Note_on_c, 0, 42, 0
2, 54234, Control_c, 0, 64, 0
2, 54236, Note_on_c, 0, 66, 0
2, 54243, Note_on_c, 0, 71, 0
2, 54280, Note_on_c, 0, 73, 100
2, 54285, Note_on_c, 0, 42, 92
2, 54285, Note_on_c, 0, 64, 98
2, 54286, Note_on_c, 0, 54, 96
2, 54286, Note_on_c, 0, 61, 87
2, 54287, Note_on_c, 0, 70, 85
2, 54292, Note_on_c, 0, 66, 91
2, 54324, Note_on_c, 0, 54, 0
2, 54343, Note_on_c, 0, 61, 0
2, 54389, Control_c, 0, 64, 127
2, 54528, Note_on_c, 0, 30, 0
2, 54532, Note_on_c, 0, 30, 74
2, 54589, Note_on_c, 0, 42, 0
2, 54600, Note_on_c, 0, 42, 51
2, 54643, Note_on_c, 0, 30, 0
2, 54650, Note_on_c, 0, 30, 80
2, 54666, Note_on_c, 0, 64, 0
2, 54712, Note_on_c, 0, 42, 0
2, 54716, Note_on_c, 0, 42, 80
2, 54738, Note_on_c, 0, 76, 80
2, 54773, Note_on_c, 0, 85, 100
2, 54776, Note_on_c, 0, 78, 82
2, 54776, Note_on_c, 0, 82, 92
2, 54796, Note_on_c, 0, 30, 0
2, 54800, Note_on_c, 0, 30, 83
2, 54819, Note_on_c, 0, 66, 0
2, 54858, Note_on_c, 0, 30, 0
2, 54862, Note_on_c, 0, 30, 61
2, 54865, Note_on_c, 0, 42, 0
2, 54870, Note_on_c, 0, 42, 67
2, 54927, Note_on_c, 0, 30, 0
2, 54937, Note_on_c, 0, 30, 78
2, 54988, Note_on_c, 0, 42, 0
2, 54992, Note_on_c, 0, 42, 81
2, 55050, Note_on_c, 0, 30, 0
2, 55054, Note_on_c, 0, 30, 75
2, 55111, Note_on_c, 0, 30, 0
2, 55119, Note_on_c, 0, 30, 81
2, 55134, Note_on_c, 0, 42, 0
2, 55144, Note_on_c, 0, 42, 76
2, 55242, Note_on_c, 0, 30, 0
2, 55252, Note_on_c, 0, 30, 64
2, 55253, Note_on_c, 0, 71, 101
2, 55330, Note_on_c, 0, 30, 0
2, 55330, Note_on_c, 0, 85, 0
2, 55331, Note_on_c, 0, 42, 0
2, 55331, Note_on_c, 0, 78, 0
2, 55331, Note_on_c, 0, 82, 0
2, 55331, Note_on_c, 0, 76, 0
2, 55331, Note_on_c, 0, 73, 0
2, 55331, Note_on_c, 0, 70, 0
2, 55331, Note_on_c, 0, 71, 0
2, 55339, Control_c, 0, 64, 0
2, 55386, Note_on_c, 0, 71, 107
2, 55390, Note_on_c, 0, 30, 80
2, 55391, Note_on_c, 0, 68, 96
2, 55392, Note_on_c, 0, 42, 88
2, 55393, Note_on_c, 0, 64, 93
2, 55398, Note_on_c, 0, 32, 72
2, 55403, Note_on_c, 0, 32, 0
2, 55405, Note_on_c, 0, 66, 90
2, 55427, Note_on_c, 0, 64, 0
2, 55431, Note_on_c, 0, 66, 0
2, 55432, Note_on_c, 0, 30, 0
2, 55435, Note_on_c, 0, 42, 0
2, 55495, Control_c, 0, 64, 127
2, 55543, Note_on_c, 0, 32, 76
2, 55543, Note_on_c, 0, 30, 79
2, 55633, Note_on_c, 0, 30, 0
2, 55645, Note_on_c, 0, 30, 67
2, 55749, Note_on_c, 0, 30, 0
2, 55760, Note_on_c, 0, 30, 86
2, 55763, Note_on_c, 0, 64, 74
2, 55772, Note_on_c, 0, 64, 0
2, 55872, Note_on_c, 0, 30, 0
2, 55872, Note_on_c, 0, 71, 0
2, 55877, Note_on_c, 0, 83, 108
2, 55881, Note_on_c, 0, 30, 90
2, 55882, Note_on_c, 0, 71, 96
2, 55883, Note_on_c, 0, 78, 97
2, 55887, Note_on_c, 0, 42, 92
2, 55891, Note_on_c, 0, 76, 92
2, 55910, Note_on_c, 0, 68, 0
2, 55994, Note_on_c, 0, 30, 0
2, 55998, Note_on_c, 0, 29, 86
2, 55998, Note_on_c, 0, 30, 84
2, 56002, Note_on_c, 0, 29, 0
2, 56125, Note_on_c, 0, 71, 0
2, 56132, Note_on_c, 0, 71, 95
2, 56210, Note_on_c, 0, 30, 0
2, 56211, Note_on_c, 0, 83, 0
2, 56212, Note_on_c, 0, 78, 0
2, 56216, Control_c, 0, 64, 0
2, 56217, Note_on_c, 0, 42, 0
2, 56225, Note_on_c, 0, 32, 0
2, 56225, Note_on_c, 0, 71, 0
2, 56225, Note_on_c, 0, 76, 0
2, 56261, Note_on_c, 0, 42, 95
2, 56262, Note_on_c, 0, 73, 106
2, 56264, Note_on_c, 0, 30, 89
2, 56265, Note_on_c, 0, 66, 97
2, 56266, Note_on_c, 0, 64, 101
2, 56266, Note_on_c, 0, 70, 91
2, 56317, Note_on_c, 0, 66, 0
2, 56325, Note_on_c, 0, 64, 0
2, 56386, Control_c, 0, 64, 127
2, 56509, Note_on_c, 0, 30, 0
2, 56509, Note_on_c, 0, 42, 0
2, 56509, Note_on_c, 0, 73, 0
2, 56513, Note_on_c, 0, 66, 82
2, 56513, Note_on_c, 0, 42, 89
2, 56514, Note_on_c, 0, 54, 89
2, 56514, Note_on_c, 0, 73, 86
2, 56515, Note_on_c, 0, 64, 79
2, 56515, Note_on_c, 0, 30, 82
2, 56524, Note_on_c, 0, 54, 0
2, 56525, Control_c, 0, 64, 0
2, 56586, Control_c, 0, 64, 127
2, 56630, Note_on_c, 0, 85, 106
2, 56635, Note_on_c, 0, 78, 95
2, 56636, Note_on_c, 0, 82, 99
2, 56739, Note_on_c, 0, 42, 0
2, 56739, Note_on_c, 0, 70, 0
2, 56739, Note_on_c, 0, 73, 0
2, 56744, Note_on_c, 0, 42, 88
2, 56747, Note_on_c, 0, 70, 69
2, 56747, Note_on_c, 0, 64, 0
2, 56747, Note_on_c, 0, 66, 0
2, 56748, Note_on_c, 0, 73, 71
2, 56748, Note_on_c, 0, 46, 67
2, 56752, Note_on_c, 0, 66, 69
2, 56753, Note_on_c, 0, 64, 69
2, 56755, Note_on_c, 0, 46, 0
2, 56855, Note_on_c, 0, 30, 0
2, 56855, Note_on_c, 0, 42, 0
2, 56865, Note_on_c, 0, 30, 98
2, 56866, Note_on_c, 0, 42, 91
2, 56867, Note_on_c, 0, 29, 95
2, 56868, Note_on_c, 0, 41, 88
2, 56869, Note_on_c, 0, 65, 67
2, 56869, Note_on_c, 0, 32, 91
2, 56878, Note_on_c, 0, 32, 0
2, 56878, Note_on_c, 0, 41, 0
2, 56878, Note_on_c, 0, 65, 0
2, 56909, Note_on_c, 0, 82, 0
2, 56909, Note_on_c, 0, 78, 0
2, 56910, Note_on_c, 0, 70, 0
2, 56910, Note_on_c, 0, 85, 0
2, 56911, Note_on_c, 0, 73, 0
2, 56921, Control_c, 0, 64, 0
2, 56931, Note_on_c, 0, 29, 0
2, 56947, Note_on_c, 0, 42, 0
2, 56954, Note_on_c, 0, 64, 0
2, 56970, Note_on_c, 0, 66, 0
2, 56990, Note_on_c, 0, 71, 98
2, 57008, Note_on_c, 0, 30, 0
2, 57021, Note_on_c, 0, 71, 0
2, 57112, Note_on_c, 0, 71, 100
2, 57149, Note_on_c, 0, 71, 0
2, 57233, Note_on_c, 0, 71, 99
2, 57265, Note_on_c, 0, 71, 0
2, 57351, Note_on_c, 0, 78, 113
2, 57359, Note_on_c, 0, 32, 92
2, 57361, Note_on_c, 0, 44, 97
2, 57363, Note_on_c, 0, 71, 91
2, 57365, Note_on_c, 0, 66, 103
2, 57365, Note_on_c, 0, 75, 83
2, 57415, Control_c, 0, 64, 127
2, 57607, Note_on_c, 0, 71, 0
2, 57607, Note_on_c, 0, 78, 0
2, 57610, Note_on_c, 0, 59, 93
2, 57613, Note_on_c, 0, 78, 103
2, 57615, Note_on_c, 0, 66, 0
2, 57615, Note_on_c, 0, 54, 84
2, 57618, Note_on_c, 0, 71, 89
2, 57619, Note_on_c, 0, 51, 77
2, 57619, Note_on_c, 0, 66, 92
2, 57627, Note_on_c, 0, 75, 0
2, 57627, Control_c, 0, 64, 0
2, 57630, Note_on_c, 0, 32, 0
2, 57633, Note_on_c, 0, 44, 0
2, 57651, Note_on_c, 0, 59, 0
2, 57655, Note_on_c, 0, 66, 0
2, 57656, Note_on_c, 0, 54, 0
2, 57676, Note_on_c, 0, 71, 0
2, 57676, Note_on_c, 0, 78, 0
2, 57692, Note_on_c, 0, 51, 0
2, 57743, Note_on_c, 0, 44, 82
2, 57825, Note_on_c, 0, 44, 0
2, 57858, Note_on_c, 0, 78, 105
2, 57988, Note_on_c, 0, 75, 96
2, 57995, Note_on_c, 0, 44, 73
2, 58014, Control_c, 0, 64, 127
2, 58093, Note_on_c, 0, 54, 81
2, 58095, Note_on_c, 0, 59, 74
2, 58096, Note_on_c, 0, 51, 75
2, 58211, Control_c, 0, 64, 0
2, 58219, Note_on_c, 0, 44, 0
2, 58220, Note_on_c, 0, 51, 0
2, 58222, Note_on_c, 0, 78, 0
2, 58223, Note_on_c, 0, 54, 0
2, 58223, Note_on_c, 0, 59, 0
2, 58224, Note_on_c, 0, 75, 0
2, 58227, Note_on_c, 0, 73, 111
2, 58241, Note_on_c, 0, 64, 96
2, 58242, Note_on_c, 0, 28, 97
2, 58242, Note_on_c, 0, 35, 84
2, 58243, Note_on_c, 0, 40, 88
2, 58244, Note_on_c, 0, 66, 93
2, 58245, Note_on_c, 0, 62, 81
2, 58252, Note_on_c, 0, 35, 0
2, 58252, Note_on_c, 0, 62, 0
2, 58298, Note_on_c, 0, 28, 0
2, 58329, Control_c, 0, 64, 127
2, 58475, Note_on_c, 0, 73, 0
2, 58483, Note_on_c, 0, 64, 0
2, 58483, Note_on_c, 0, 66, 0
2, 58486, Note_on_c, 0, 73, 92
2, 58491, Note_on_c, 0, 66, 81
2, 58491, Note_on_c, 0, 64, 77
2, 58492, Note_on_c, 0, 54, 73
2, 58495, Note_on_c, 0, 47, 64
2, 58496, Note_on_c, 0, 52, 60
2, 58501, Note_on_c, 0, 56, 61
2, 58598, Note_on_c, 0, 66, 0
2, 58598, Note_on_c, 0, 73, 0
2, 58603, Note_on_c, 0, 73, 95
2, 58607, Note_on_c, 0, 66, 79
2, 58613, Note_on_c, 0, 64, 0
2, 58617, Note_on_c, 0, 64, 67
2, 58629, Note_on_c, 0, 47, 0
2, 58633, Note_on_c, 0, 47, 70
2, 58721, Note_on_c, 0, 40, 0
2, 58721, Note_on_c, 0, 52, 0
2, 58721, Note_on_c, 0, 64, 0
2, 58725, Note_on_c, 0, 71, 98
2, 58728, Note_on_c, 0, 66, 0
2, 58730, Note_on_c, 0, 52, 88
2, 58731, Note_on_c, 0, 64, 83
2, 58731, Note_on_c, 0, 40, 75
2, 58734, Note_on_c, 0, 66, 84
2, 58851, Note_on_c, 0, 54, 0
2, 58852, Note_on_c, 0, 59, 84
2, 58856, Note_on_c, 0, 54, 86
2, 58974, Note_on_c, 0, 52, 0
2, 58974, Note_on_c, 0, 71, 0
2, 58984, Note_on_c, 0, 71, 98
2, 58984, Note_on_c, 0, 52, 85
2, 59105, Note_on_c, 0, 59, 0
2, 59105, Note_on_c, 0, 71, 0
2, 59109, Note_on_c, 0, 59, 86
2, 59115, Note_on_c, 0, 71, 93
2, 59205, Note_on_c, 0, 64, 0
2, 59211, Note_on_c, 0, 64, 98
2, 59220, Note_on_c, 0, 71, 0
2, 59227, Note_on_c, 0, 71, 93
2, 59298, Note_on_c, 0, 73, 0
2, 59298, Note_on_c, 0, 40, 0
2, 59299, Note_on_c, 0, 71, 0
2, 59299, Note_on_c, 0, 47, 0
2, 59299, Note_on_c, 0, 66, 0
2, 59299, Note_on_c, 0, 54, 0
2, 59299, Note_on_c, 0, 59, 0
2, 59301, Control_c, 0, 64, 0
2, 59304, Note_on_c, 0, 56, 0
2, 59312, Note_on_c, 0, 52, 0
2, 59312, Note_on_c, 0, 64, 0
2, 59346, Note_on_c, 0, 78, 110
2, 59354, Note_on_c, 0, 71, 94
2, 59354, Note_on_c, 0, 66, 106
2, 59356, Note_on_c, 0, 75, 92
2, 59361, Note_on_c, 0, 47, 90
2, 59362, Note_on_c, 0, 35, 83
2, 59404, Control_c, 0, 64, 127
2, 59572, Note_on_c, 0, 75, 0
2, 59579, Control_c, 0, 64, 0
2, 59581, Note_on_c, 0, 66, 0
2, 59589, Note_on_c, 0, 35, 0
2, 59596, Note_on_c, 0, 78, 0
2, 59604, Note_on_c, 0, 47, 0
2, 59604, Note_on_c, 0, 71, 0
2, 59607, Note_on_c, 0, 78, 106
2, 59612, Note_on_c, 0, 59, 89
2, 59613, Note_on_c, 0, 71, 92
2, 59614, Note_on_c, 0, 66, 94
2, 59615, Note_on_c, 0, 47, 84
2, 59640, Note_on_c, 0, 59, 0
2, 59643, Note_on_c, 0, 71, 0
2, 59644, Note_on_c, 0, 66, 0
2, 59651, Note_on_c, 0, 78, 0
2, 59673, Note_on_c, 0, 47, 0
2, 59744, Note_on_c, 0, 47, 84
2, 59846, Note_on_c, 0, 78, 106
2, 59853, Note_on_c, 0, 47, 0
2, 59957, Control_c, 0, 64, 127
2, 59968, Note_on_c, 0, 75, 99
2, 59971, Note_on_c, 0, 47, 82
2, 60080, Note_on_c, 0, 47, 0
2, 60082, Note_on_c, 0, 54, 81
2, 60083, Note_on_c, 0, 59, 78
2, 60085, Note_on_c, 0, 47, 70
2, 60169, Control_c, 0, 64, 0
2, 60188, Note_on_c, 0, 75, 0
2, 60189, Note_on_c, 0, 47, 0
2, 60189, Note_on_c, 0, 78, 0
2, 60189, Note_on_c, 0, 59, 0
2, 60190, Note_on_c, 0, 54, 0
2, 60210, Note_on_c, 0, 73, 106
2, 60221, Note_on_c, 0, 70, 92
2, 60222, Note_on_c, 0, 66, 93
2, 60225, Note_on_c, 0, 42, 93
2, 60226, Note_on_c, 0, 30, 95
2, 60449, Note_on_c, 0, 42, 0
2, 60459, Note_on_c, 0, 42, 81
2, 60480, Control_c, 0, 64, 127
2, 60583, Note_on_c, 0, 49, 72
2, 60699, Note_on_c, 0, 58, 74
2, 60701, Note_on_c, 0, 54, 77
2, 60837, Note_on_c, 0, 71, 94
2, 60948, Note_on_c, 0, 73, 0
2, 60953, Note_on_c, 0, 73, 82
2, 61071, Note_on_c, 0, 30, 0
2, 61071, Note_on_c, 0, 42, 0
2, 61076, Note_on_c, 0, 30, 78
2, 61076, Note_on_c, 0, 75, 93
2, 61076, Note_on_c, 0, 42, 84
2, 61089, Note_on_c, 0, 54, 0
2, 61209, Note_on_c, 0, 66, 0
2, 61209, Note_on_c, 0, 73, 0
2, 61213, Note_on_c, 0, 73, 99
2, 61216, Note_on_c, 0, 66, 92
2, 61259, Control_c, 0, 64, 0
2, 61259, Note_on_c, 0, 30, 0
2, 61260, Note_on_c, 0, 42, 0
2, 61260, Note_on_c, 0, 49, 0
2, 61260, Note_on_c, 0, 71, 0
2, 61260, Note_on_c, 0, 58, 0
2, 61261, Note_on_c, 0, 75, 0
2, 61261, Note_on_c, 0, 70, 0
2, 61321, Note_on_c, 0, 32, 85
2, 61432, Control_c, 0, 64, 127
2, 61461, Note_on_c, 0, 71, 86
2, 61578, Note_on_c, 0, 71, 0
2, 61587, Note_on_c, 0, 71, 93
2, 61711, Note_on_c, 0, 59, 84
2, 61720, Note_on_c, 0, 54, 72
2, 61721, Note_on_c, 0, 51, 66
2, 61831, Note_on_c, 0, 71, 0
2, 61842, Note_on_c, 0, 71, 88
2, 61954, Note_on_c, 0, 73, 0
2, 61956, Note_on_c, 0, 44, 80
2, 61961, Note_on_c, 0, 73, 88
2, 62069, Note_on_c, 0, 59, 0
2, 62077, Note_on_c, 0, 51, 0
2, 62077, Note_on_c, 0, 54, 0
2, 62078, Note_on_c, 0, 75, 96
2, 62081, Note_on_c, 0, 59, 85
2, 62083, Note_on_c, 0, 54, 82
2, 62087, Note_on_c, 0, 51, 77
2, 62200, Note_on_c, 0, 73, 0
2, 62206, Note_on_c, 0, 73, 97
2, 62208, Note_on_c, 0, 66, 0
2, 62214, Note_on_c, 0, 66, 88
2, 62238, Note_on_c, 0, 32, 0
2, 62243, Control_c, 0, 64, 0
2, 62246, Note_on_c, 0, 54, 0
2, 62247, Note_on_c, 0, 59, 0
2, 62250, Note_on_c, 0, 75, 0
2, 62254, Note_on_c, 0, 51, 0
2, 62261, Note_on_c, 0, 44, 0
2, 62261, Note_on_c, 0, 71, 0
2, 62328, Note_on_c, 0, 40, 74
2, 62328, Note_on_c, 0, 28, 82
2, 62392, Control_c, 0, 64, 127
2, 62465, Note_on_c, 0, 71, 89
2, 62576, Note_on_c, 0, 71, 0
2, 62587, Note_on_c, 0, 71, 94
2, 62710, Note_on_c, 0, 59, 81
2, 62710, Note_on_c, 0, 54, 78
2, 62736, Note_on_c, 0, 47, 51
2, 62830, Note_on_c, 0, 71, 0
2, 62838, Note_on_c, 0, 71, 89
2, 62936, Note_on_c, 0, 52, 80
2, 62960, Note_on_c, 0, 73, 0
2, 62967, Note_on_c, 0, 73, 94
2, 63075, Note_on_c, 0, 54, 0
2, 63075, Note_on_c, 0, 59, 0
2, 63081, Note_on_c, 0, 75, 101
2, 63083, Note_on_c, 0, 54, 91
2, 63087, Note_on_c, 0, 59, 76
2, 63260, Note_on_c, 0, 66, 0
2, 63268, Note_on_c, 0, 66, 81
2, 63284, Control_c, 0, 64, 0
2, 63284, Note_on_c, 0, 54, 0
2, 63285, Note_on_c, 0, 40, 0
2, 63286, Note_on_c, 0, 59, 0
2, 63286, Note_on_c, 0, 47, 0
2, 63286, Note_on_c, 0, 52, 0
2, 63286, Note_on_c, 0, 73, 0
2, 63287, Note_on_c, 0, 75, 0
2, 63298, Note_on_c, 0, 28, 0
2, 63313, Note_on_c, 0, 66, 0
2, 63321, Note_on_c, 0, 71, 0
2, 63326, Note_on_c, 0, 73, 90
2, 63328, Note_on_c, 0, 71, 87
2, 63333, Note_on_c, 0, 30, 86
2, 63333, Note_on_c, 0, 42, 89
2, 63334, Note_on_c, 0, 78, 99
2, 63375, Control_c, 0, 64, 127
2, 63486, Note_on_c, 0, 54, 78
2, 63561, Note_on_c, 0, 71, 0
2, 63561, Control_c, 0, 64, 0
2, 63562, Note_on_c, 0, 78, 0
2, 63562, Note_on_c, 0, 54, 0
2, 63562, Note_on_c, 0, 42, 0
2, 63567, Note_on_c, 0, 30, 0
2, 63588, Note_on_c, 0, 49, 75
2, 63592, Note_on_c, 0, 75, 97
2, 63613, Note_on_c, 0, 73, 0
2, 63620, Note_on_c, 0, 49, 0
2, 63636, Note_on_c, 0, 75, 0
2, 63726, Note_on_c, 0, 78, 109
2, 63728, Note_on_c, 0, 66, 96
2, 63729, Note_on_c, 0, 42, 89
2, 63732, Note_on_c, 0, 30, 82
2, 63733, Note_on_c, 0, 71, 85
2, 63734, Note_on_c, 0, 73, 89
2, 63736, Note_on_c, 0, 66, 0
2, 63767, Control_c, 0, 64, 127
2, 63970, Note_on_c, 0, 75, 98
2, 63977, Note_on_c, 0, 54, 78
2, 63986, Control_c, 0, 64, 0
2, 63991, Note_on_c, 0, 30, 0
2, 63992, Note_on_c, 0, 73, 0
2, 63993, Note_on_c, 0, 78, 0
2, 63993, Note_on_c, 0, 42, 0
2, 63993, Note_on_c, 0, 71, 0
2, 64026, Note_on_c, 0, 75, 0
2, 64045, Note_on_c, 0, 54, 0
2, 64089, Note_on_c, 0, 49, 79
2, 64135, Note_on_c, 0, 49, 0
2, 64222, Note_on_c, 0, 73, 107
2, 64228, Note_on_c, 0, 42, 98
2, 64229, Note_on_c, 0, 70, 87
2, 64229, Note_on_c, 0, 66, 90
2, 64230, Note_on_c, 0, 64, 81
2, 64230, Note_on_c, 0, 30, 96
2, 64266, Note_on_c, 0, 42, 0
2, 64320, Note_on_c, 0, 30, 0
2, 64442, Control_c, 0, 64, 127
2, 64475, Note_on_c, 0, 47, 85
2, 64476, Note_on_c, 0, 59, 82
2, 64601, Note_on_c, 0, 46, 88
2, 64719, Note_on_c, 0, 47, 0
2, 64719, Note_on_c, 0, 59, 0
2, 64726, Note_on_c, 0, 59, 85
2, 64728, Note_on_c, 0, 47, 90
2, 64730, Note_on_c, 0, 71, 79
2, 64787, Note_on_c, 0, 59, 0
2, 64787, Note_on_c, 0, 71, 0
2, 64788, Note_on_c, 0, 73, 0
2, 64788, Note_on_c, 0, 47, 0
2, 64788, Note_on_c, 0, 70, 0
2, 64788, Note_on_c, 0, 66, 0
2, 64789, Note_on_c, 0, 46, 0
2, 64795, Control_c, 0, 64, 0
2, 64811, Note_on_c, 0, 64, 0
2, 64838, Note_on_c, 0, 54, 97
2, 64838, Note_on_c, 0, 42, 96
2, 64878, Note_on_c, 0, 54, 0
2, 64926, Control_c, 0, 64, 127
2, 64965, Note_on_c, 0, 83, 100
2, 64970, Note_on_c, 0, 71, 88
2, 65072, Note_on_c, 0, 83, 0
2, 65080, Note_on_c, 0, 71, 0
2, 65082, Note_on_c, 0, 83, 94
2, 65083, Note_on_c, 0, 30, 82
2, 65084, Note_on_c, 0, 29, 76
2, 65084, Note_on_c, 0, 71, 89
2, 65086, Note_on_c, 0, 84, 84
2, 65087, Note_on_c, 0, 72, 75
2, 65095, Note_on_c, 0, 29, 0
2, 65122, Control_c, 0, 64, 0
2, 65123, Note_on_c, 0, 71, 0
2, 65124, Note_on_c, 0, 83, 0
2, 65127, Note_on_c, 0, 42, 0
2, 65127, Note_on_c, 0, 30, 0
2, 65141, Note_on_c, 0, 72, 0
2, 65141, Note_on_c, 0, 84, 0
2, 65199, Note_on_c, 0, 83, 102
2, 65204, Note_on_c, 0, 71, 85
2, 65237, Note_on_c, 0, 71, 0
2, 65243, Note_on_c, 0, 83, 0
2, 65330, Note_on_c, 0, 78, 111
2, 65331, Note_on_c, 0, 84, 90
2, 65334, Note_on_c, 0, 90, 109
2, 65335, Note_on_c, 0, 32, 92
2, 65338, Note_on_c, 0, 87, 95
2, 65340, Note_on_c, 0, 83, 84
2, 65418, Control_c, 0, 64, 127
2, 65587, Note_on_c, 0, 78, 0
2, 65587, Note_on_c, 0, 90, 0
2, 65590, Note_on_c, 0, 59, 96
2, 65591, Note_on_c, 0, 90, 105
2, 65591, Note_on_c, 0, 51, 83
2, 65594, Note_on_c, 0, 83, 0
2, 65594, Note_on_c, 0, 87, 0
2, 65597, Note_on_c, 0, 54, 87
2, 65598, Note_on_c, 0, 78, 106
2, 65599, Note_on_c, 0, 87, 97
2, 65600, Note_on_c, 0, 83, 98
2, 65717, Note_on_c, 0, 32, 0
2, 65723, Note_on_c, 0, 44, 80
2, 65726, Note_on_c, 0, 32, 69
2, 65728, Note_on_c, 0, 39, 57
2, 65733, Note_on_c, 0, 39, 0
2, 65825, Note_on_c, 0, 78, 0
2, 65825, Note_on_c, 0, 90, 0
2, 65832, Note_on_c, 0, 90, 98
2, 65832, Note_on_c, 0, 87, 0
2, 65835, Note_on_c, 0, 78, 95
2, 65843, Note_on_c, 0, 87, 72
2, 65955, Note_on_c, 0, 87, 0
2, 65966, Note_on_c, 0, 87, 102
2, 65973, Note_on_c, 0, 83, 0
2, 65978, Note_on_c, 0, 75, 89
2, 66063, Note_on_c, 0, 54, 0
2, 66071, Note_on_c, 0, 51, 0
2, 66073, Note_on_c, 0, 54, 82
2, 66079, Note_on_c, 0, 51, 79
2, 66183, Note_on_c, 0, 78, 0
2, 66184, Note_on_c, 0, 87, 0
2, 66184, Control_c, 0, 64, 0
2, 66185, Note_on_c, 0, 59, 0
2, 66185, Note_on_c, 0, 75, 0
2, 66188, Note_on_c, 0, 54, 0
2, 66193, Note_on_c, 0, 84, 0
2, 66193, Note_on_c, 0, 90, 0
2, 66201, Note_on_c, 0, 32, 0
2, 66201, Note_on_c, 0, 44, 0
2, 66201, Note_on_c, 0, 51, 0
2, 66219, Note_on_c, 0, 85, 108
2, 66220, Note_on_c, 0, 73, 105
2, 66221, Note_on_c, 0, 76, 103
2, 66224, Note_on_c, 0, 28, 96
2, 66227, Note_on_c, 0, 40, 89
2, 66309, Control_c, 0, 64, 127
2, 66478, Note_on_c, 0, 76, 0
2, 66478, Note_on_c, 0, 85, 0
2, 66485, Note_on_c, 0, 85, 99
2, 66485, Note_on_c, 0, 28, 0
2, 66485, Note_on_c, 0, 40, 0
2, 66485, Note_on_c, 0, 73, 0
2, 66489, Note_on_c, 0, 76, 95
2, 66492, Note_on_c, 0, 73, 89
2, 66494, Note_on_c, 0, 40, 86
2, 66494, Note_on_c, 0, 28, 89
2, 66600, Note_on_c, 0, 85, 0
2, 66606, Note_on_c, 0, 85, 95
2, 66616, Note_on_c, 0, 76, 0
2, 66621, Note_on_c, 0, 76, 75
2, 66622, Note_on_c, 0, 47, 77
2, 66729, Note_on_c, 0, 83, 107
2, 66731, Note_on_c, 0, 76, 0
2, 66734, Note_on_c, 0, 71, 95
2, 66735, Note_on_c, 0, 76, 85
2, 66839, Note_on_c, 0, 47, 0
2, 66841, Note_on_c, 0, 59, 85
2, 66841, Note_on_c, 0, 54, 84
2, 66843, Note_on_c, 0, 47, 65
2, 66900, Note_on_c, 0, 28, 0
2, 66961, Note_on_c, 0, 71, 0
2, 66961, Note_on_c, 0, 76, 0
2, 66961, Note_on_c, 0, 83, 0
2, 66967, Note_on_c, 0, 83, 103
2, 66972, Note_on_c, 0, 76, 94
2, 66972, Note_on_c, 0, 71, 90
2, 66973, Note_on_c, 0, 52, 83
2, 67077, Note_on_c, 0, 76, 0
2, 67084, Note_on_c, 0, 47, 0
2, 67084, Note_on_c, 0, 59, 0
2, 67084, Note_on_c, 0, 71, 0
2, 67084, Note_on_c, 0, 83, 0
2, 67086, Note_on_c, 0, 76, 80
2, 67089, Note_on_c, 0, 83, 100
2, 67089, Note_on_c, 0, 47, 71
2, 67090, Note_on_c, 0, 59, 80
2, 67090, Note_on_c, 0, 71, 88
2, 67192, Note_on_c, 0, 52, 0
2, 67192, Note_on_c, 0, 71, 0
2, 67192, Note_on_c, 0, 83, 0
2, 67196, Note_on_c, 0, 64, 89
2, 67196, Note_on_c, 0, 52, 82
2, 67199, Note_on_c, 0, 83, 102
2, 67200, Note_on_c, 0, 76, 0
2, 67203, Note_on_c, 0, 71, 86
2, 67204, Note_on_c, 0, 76, 85
2, 67288, Note_on_c, 0, 54, 0
2, 67289, Note_on_c, 0, 71, 0
2, 67289, Note_on_c, 0, 52, 0
2, 67289, Note_on_c, 0, 73, 0
2, 67289, Note_on_c, 0, 47, 0
2, 67289, Note_on_c, 0, 83, 0
2, 67289, Note_on_c, 0, 64, 0
2, 67289, Note_on_c, 0, 76, 0
2, 67290, Note_on_c, 0, 85, 0
2, 67290, Control_c, 0, 64, 0
2, 67299, Note_on_c, 0, 40, 0
2, 67307, Note_on_c, 0, 59, 0
2, 67341, Note_on_c, 0, 90, 110
2, 67342, Note_on_c, 0, 78, 110
2, 67347, Note_on_c, 0, 83, 94
2, 67349, Note_on_c, 0, 87, 86
2, 67351, Note_on_c, 0, 47, 90
2, 67355, Note_on_c, 0, 35, 80
2, 67392, Control_c, 0, 64, 127
2, 67537, Note_on_c, 0, 78, 0
2, 67537, Note_on_c, 0, 90, 0
2, 67545, Note_on_c, 0, 83, 0
2, 67545, Note_on_c, 0, 87, 0
2, 67549, Note_on_c, 0, 90, 99
2, 67549, Note_on_c, 0, 78, 103
2, 67552, Note_on_c, 0, 87, 98
2, 67553, Note_on_c, 0, 83, 91
2, 67617, Note_on_c, 0, 54, 81
2, 67618, Note_on_c, 0, 59, 84
2, 67625, Note_on_c, 0, 51, 70
2, 67729, Note_on_c, 0, 78, 0
2, 67729, Note_on_c, 0, 83, 0
2, 67729, Note_on_c, 0, 87, 0
2, 67729, Note_on_c, 0, 90, 0
2, 67735, Note_on_c, 0, 90, 92
2, 67736, Note_on_c, 0, 78, 97
2, 67737, Note_on_c, 0, 47, 0
2, 67737, Note_on_c, 0, 54, 0
2, 67737, Note_on_c, 0, 59, 0
2, 67738, Note_on_c, 0, 87, 96
2, 67740, Note_on_c, 0, 83, 90
2, 67745, Note_on_c, 0, 54, 74
2, 67746, Note_on_c, 0, 47, 84
2, 67746, Note_on_c, 0, 59, 81
2, 67860, Note_on_c, 0, 78, 0
2, 67860, Note_on_c, 0, 90, 0
2, 67864, Note_on_c, 0, 90, 100
2, 67868, Note_on_c, 0, 78, 95
2, 67975, Note_on_c, 0, 87, 0
2, 67984, Note_on_c, 0, 87, 104
2, 67987, Note_on_c, 0, 75, 100
2, 67998, Note_on_c, 0, 47, 0
2, 68008, Note_on_c, 0, 47, 73
2, 68106, Note_on_c, 0, 51, 0
2, 68106, Note_on_c, 0, 54, 0
2, 68106, Note_on_c, 0, 59, 0
2, 68111, Note_on_c, 0, 51, 76
2, 68111, Note_on_c, 0, 54, 78
2, 68115, Note_on_c, 0, 59, 67
2, 68190, Control_c, 0, 64, 0
2, 68191, Note_on_c, 0, 47, 0
2, 68191, Note_on_c, 0, 90, 0
2, 68192, Note_on_c, 0, 78, 0
2, 68192, Note_on_c, 0, 87, 0
2, 68192, Note_on_c, 0, 51, 0
2, 68192, Note_on_c, 0, 54, 0
2, 68192, Note_on_c, 0, 59, 0
2, 68192, Note_on_c, 0, 75, 0
2, 68198, Note_on_c, 0, 35, 0
2, 68206, Note_on_c, 0, 83, 0
2, 68239, Note_on_c, 0, 85, 111
2, 68244, Note_on_c, 0, 78, 97
2, 68247, Note_on_c, 0, 82, 95
2, 68248, Note_on_c, 0, 73, 98
2, 68256, Note_on_c, 0, 30, 85
2, 68257, Note_on_c, 0, 42, 89
2, 68359, Control_c, 0, 64, 127
2, 68609, Note_on_c, 0, 49, 71
2, 68610, Note_on_c, 0, 61, 63
2, 68724, Note_on_c, 0, 70, 73
2, 68724, Note_on_c, 0, 54, 75
2, 68724, Note_on_c, 0, 58, 75
2, 68845, Note_on_c, 0, 83, 95
2, 68847, Note_on_c, 0, 71, 83
2, 68958, Note_on_c, 0, 85, 0
2, 68966, Note_on_c, 0, 85, 91
2, 68966, Note_on_c, 0, 73, 0
2, 68972, Note_on_c, 0, 73, 72
2, 68974, Note_on_c, 0, 54, 0
2, 68982, Note_on_c, 0, 54, 61
2, 69073, Note_on_c, 0, 30, 0
2, 69073, Note_on_c, 0, 42, 0
2, 69084, Note_on_c, 0, 30, 82
2, 69084, Note_on_c, 0, 42, 78
2, 69085, Note_on_c, 0, 87, 96
2, 69089, Note_on_c, 0, 75, 85
2, 69196, Note_on_c, 0, 85, 0
2, 69204, Note_on_c, 0, 73, 0
2, 69207, Note_on_c, 0, 85, 106
2, 69214, Note_on_c, 0, 73, 89
2, 69258, Note_on_c, 0, 70, 0
2, 69260, Note_on_c, 0, 83, 0
2, 69261, Note_on_c, 0, 49, 0
2, 69261, Note_on_c, 0, 42, 0
2, 69261, Note_on_c, 0, 30, 0
2, 69261, Note_on_c, 0, 58, 0
2, 69261, Note_on_c, 0, 82, 0
2, 69262, Note_on_c, 0, 54, 0
2, 69262, Note_on_c, 0, 71, 0
2, 69262, Note_on_c, 0, 78, 0
2, 69262, Note_on_c, 0, 87, 0
2, 69262, Note_on_c, 0, 75, 0
2, 69265, Note_on_c, 0, 61, 0
2, 69266, Control_c, 0, 64, 0
2, 69336, Note_on_c, 0, 32, 87
2, 69337, Note_on_c, 0, 44, 83
2, 69388, Control_c, 0, 64, 127
2, 69460, Note_on_c, 0, 83, 100
2, 69462, Note_on_c, 0, 71, 89
2, 69496, Note_on_c, 0, 85, 0
2, 69580, Note_on_c, 0, 83, 0
2, 69588, Note_on_c, 0, 71, 0
2, 69591, Note_on_c, 0, 83, 97
2, 69595, Note_on_c, 0, 71, 86
2, 69710, Note_on_c, 0, 59, 86
2, 69714, Note_on_c, 0, 54, 83
2, 69718, Note_on_c, 0, 51, 62
2, 69826, Note_on_c, 0, 71, 0
2, 69826, Note_on_c, 0, 83, 0
2, 69835, Note_on_c, 0, 83, 95
2, 69837, Note_on_c, 0, 71, 78
2, 69949, Note_on_c, 0, 32, 0
2, 69949, Note_on_c, 0, 44, 0
2, 69960, Note_on_c, 0, 44, 78
2, 69960, Note_on_c, 0, 32, 70
2, 69961, Note_on_c, 0, 85, 98
2, 69964, Note_on_c, 0, 73, 0
2, 69969, Note_on_c, 0, 73, 79
2, 70072, Note_on_c, 0, 51, 0
2, 70072, Note_on_c, 0, 54, 0
2, 70072, Note_on_c, 0, 59, 0
2, 70079, Note_on_c, 0, 59, 91
2, 70080, Note_on_c, 0, 87, 98
2, 70081, Note_on_c, 0, 54, 88
2, 70083, Note_on_c, 0, 51, 77
2, 70083, Note_on_c, 0, 75, 86
2, 70195, Note_on_c, 0, 85, 0
2, 70202, Note_on_c, 0, 73, 0
2, 70206, Note_on_c, 0, 85, 104
2, 70210, Note_on_c, 0, 73, 95
2, 70243, Note_on_c, 0, 71, 0
2, 70244, Note_on_c, 0, 44, 0
2, 70244, Note_on_c, 0, 54, 0
2, 70244, Note_on_c, 0, 83, 0
2, 70244, Note_on_c, 0, 59, 0
2, 70245, Note_on_c, 0, 87, 0
2, 70245, Note_on_c, 0, 75, 0
2, 70245, Control_c, 0, 64, 0
2, 70256, Note_on_c, 0, 32, 0
2, 70256, Note_on_c, 0, 51, 0
2, 70318, Note_on_c, 0, 40, 78
2, 70319, Note_on_c, 0, 28, 88
2, 70356, Control_c, 0, 64, 127
2, 70452, Note_on_c, 0, 83, 100
2, 70455, Note_on_c, 0, 71, 91
2, 70571, Note_on_c, 0, 71, 0
2, 70571, Note_on_c, 0, 83, 0
2, 70576, Note_on_c, 0, 83, 99
2, 70581, Note_on_c, 0, 71, 82
2, 70706, Note_on_c, 0, 54, 84
2, 70706, Note_on_c, 0, 59, 80
2, 70708, Note_on_c, 0, 47, 66
2, 70809, Note_on_c, 0, 83, 0
2, 70817, Note_on_c, 0, 71, 0
2, 70820, Note_on_c, 0, 83, 100
2, 70821, Note_on_c, 0, 71, 82
2, 70824, Note_on_c, 0, 85, 0
2, 70934, Note_on_c, 0, 52, 77
2, 70943, Note_on_c, 0, 64, 74
2, 70947, Note_on_c, 0, 64, 0
2, 70952, Note_on_c, 0, 85, 88
2, 70963, Note_on_c, 0, 73, 0
2, 70967, Note_on_c, 0, 73, 62
2, 71055, Note_on_c, 0, 47, 0
2, 71055, Note_on_c, 0, 54, 0
2, 71063, Note_on_c, 0, 59, 0
2, 71064, Note_on_c, 0, 47, 74
2, 71065, Note_on_c, 0, 54, 83
2, 71066, Note_on_c, 0, 87, 100
2, 71068, Note_on_c, 0, 75, 82
2, 71070, Note_on_c, 0, 59, 79
2, 71170, Note_on_c, 0, 28, 0
2, 71178, Note_on_c, 0, 85, 0
2, 71185, Note_on_c, 0, 85, 101
2, 71185, Note_on_c, 0, 73, 0
2, 71193, Note_on_c, 0, 73, 90
2, 71220, Control_c, 0, 64, 0
2, 71221, Note_on_c, 0, 71, 0
2, 71222, Note_on_c, 0, 40, 0
2, 71222, Note_on_c, 0, 59, 0
2, 71222, Note_on_c, 0, 52, 0
2, 71222, Note_on_c, 0, 54, 0
2, 71223, Note_on_c, 0, 83, 0
2, 71224, Note_on_c, 0, 87, 0
2, 71232, Note_on_c, 0, 47, 0
2, 71312, Note_on_c, 0, 47, 86
2, 71314, Note_on_c, 0, 35, 74
2, 71354, Control_c, 0, 64, 127
2, 71562, Note_on_c, 0, 47, 0
2, 71567, Note_on_c, 0, 47, 70
2, 71678, Note_on_c, 0, 83, 99
2, 71681, Note_on_c, 0, 71, 87
2, 71712, Note_on_c, 0, 54, 56
2, 71815, Note_on_c, 0, 71, 0
2, 71815, Note_on_c, 0, 75, 0
2, 71815, Note_on_c, 0, 83, 0
2, 71820, Note_on_c, 0, 83, 98
2, 71821, Note_on_c, 0, 71, 87
2, 71823, Note_on_c, 0, 75, 83
2, 71827, Note_on_c, 0, 63, 73
2, 72053, Note_on_c, 0, 54, 0
2, 72062, Note_on_c, 0, 54, 67
2, 72064, Note_on_c, 0, 66, 61
2, 72069, Note_on_c, 0, 66, 0
2, 72178, Note_on_c, 0, 35, 0
2, 72178, Note_on_c, 0, 47, 0
2, 72178, Note_on_c, 0, 83, 0
2, 72179, Note_on_c, 0, 63, 0
2, 72179, Control_c, 0, 64, 0
2, 72179, Note_on_c, 0, 71, 0
2, 72179, Note_on_c, 0, 54, 0
2, 72192, Note_on_c, 0, 85, 0
2, 72199, Note_on_c, 0, 73, 0
2, 72204, Note_on_c, 0, 73, 86
2, 72209, Note_on_c, 0, 30, 79
2, 72214, Note_on_c, 0, 61, 71
2, 72368, Control_c, 0, 64, 127
2, 72376, Note_on_c, 0, 30, 0
2, 72473, Note_on_c, 0, 42, 54
2, 72594, Note_on_c, 0, 71, 78
2, 72689, Note_on_c, 0, 49, 56
2, 72821, Note_on_c, 0, 54, 62
2, 72829, Note_on_c, 0, 71, 0
2, 72835, Note_on_c, 0, 71, 81
2, 72858, Note_on_c, 0, 66, 47
2, 72944, Note_on_c, 0, 49, 0
2, 72952, Note_on_c, 0, 73, 0
2, 72954, Note_on_c, 0, 49, 53
2, 72957, Note_on_c, 0, 73, 76
2, 72967, Note_on_c, 0, 75, 0
2, 73067, Note_on_c, 0, 42, 0
2, 73077, Note_on_c, 0, 75, 81
2, 73078, Note_on_c, 0, 42, 64
2, 73205, Note_on_c, 0, 73, 0
2, 73213, Note_on_c, 0, 66, 0
2, 73215, Note_on_c, 0, 73, 77
2, 73222, Note_on_c, 0, 66, 65
2, 73291, Note_on_c, 0, 71, 0
2, 73291, Note_on_c, 0, 49, 0
2, 73293, Note_on_c, 0, 75, 0
2, 73294, Control_c, 0, 64, 0
2, 73297, Note_on_c, 0, 61, 0
2, 73305, Note_on_c, 0, 42, 0
2, 73320, Note_on_c, 0, 54, 0
2, 73326, Note_on_c, 0, 54, 64
2, 73327, Note_on_c, 0, 51, 68
2, 73328, Note_on_c, 0, 44, 59
2, 73536, Control_c, 0, 64, 127
2, 73598, Note_on_c, 0, 71, 74
2, 73714, Note_on_c, 0, 59, 60
2, 73728, Note_on_c, 0, 54, 0
2, 73732, Note_on_c, 0, 54, 60
2, 73850, Note_on_c, 0, 71, 0
2, 73860, Note_on_c, 0, 71, 74
2, 73981, Note_on_c, 0, 73, 0
2, 73988, Note_on_c, 0, 73, 68
2, 74083, Note_on_c, 0, 75, 73
2, 74204, Note_on_c, 0, 73, 0
2, 74208, Note_on_c, 0, 73, 74
2, 74211, Note_on_c, 0, 66, 0
2, 74221, Note_on_c, 0, 66, 60
2, 74308, Control_c, 0, 64, 0
2, 74309, Note_on_c, 0, 71, 0
2, 74309, Note_on_c, 0, 51, 0
2, 74309, Note_on_c, 0, 59, 0
2, 74311, Note_on_c, 0, 75, 0
2, 74313, Note_on_c, 0, 44, 0
2, 74327, Note_on_c, 0, 54, 0
2, 74337, Note_on_c, 0, 46, 62
2, 74338, Note_on_c, 0, 54, 58
2, 74480, Control_c, 0, 64, 127
2, 74586, Note_on_c, 0, 71, 69
2, 74706, Note_on_c, 0, 61, 58
2, 74706, Note_on_c, 0, 58, 52
2, 74841, Note_on_c, 0, 71, 0
2, 74846, Note_on_c, 0, 71, 73
2, 74972, Note_on_c, 0, 73, 0
2, 74977, Note_on_c, 0, 73, 67
2, 75101, Note_on_c, 0, 75, 68
2, 75348, Note_on_c, 0, 73, 0
2, 75358, Note_on_c, 0, 73, 74
2, 75359, Note_on_c, 0, 47, 52
2, 75382, Note_on_c, 0, 54, 0
2, 75382, Note_on_c, 0, 46, 0
2, 75382, Note_on_c, 0, 58, 0
2, 75383, Control_c, 0, 64, 0
2, 75383, Note_on_c, 0, 61, 0
2, 75383, Note_on_c, 0, 71, 0
2, 75383, Note_on_c, 0, 75, 0
2, 75390, Note_on_c, 0, 64, 60
2, 75409, Note_on_c, 0, 66, 0
2, 75517, Control_c, 0, 64, 127
2, 75770, Note_on_c, 0, 71, 70
2, 75878, Note_on_c, 0, 71, 0
2, 75887, Note_on_c, 0, 71, 74
2, 75888, Control_c, 0, 64, 0
2, 75903, Note_on_c, 0, 64, 0
2, 75921, Note_on_c, 0, 63, 52
2, 75924, Note_on_c, 0, 73, 0
2, 75928, Note_on_c, 0, 66, 55
2, 76279, Note_on_c, 0, 61, 63
2, 76547, Note_on_c, 0, 54, 50
2, 76661, Note_on_c, 0, 63, 0
2, 76672, Note_on_c, 0, 63, 58
2, 76692, Note_on_c, 0, 61, 0
2, 76919, Note_on_c, 0, 59, 58
2, 76953, Control_c, 0, 64, 127
2, 77472, Note_on_c, 0, 73, 65
2, 77480, Control_c, 0, 64, 0
2, 77483, Note_on_c, 0, 63, 0
2, 77483, Note_on_c, 0, 66, 0
2, 77484, Note_on_c, 0, 54, 0
2, 77484, Note_on_c, 0, 59, 0
2, 77487, Note_on_c, 0, 63, 57
2, 77494, Note_on_c, 0, 66, 54
2, 77498, Note_on_c, 0, 71, 0
2, 77502, Note_on_c, 0, 56, 50
2, 77506, Note_on_c, 0, 47, 0
2, 77546, Note_on_c, 0, 75, 73
2, 77591, Control_c, 0, 64, 127
2, 77632, Note_on_c, 0, 78, 68
2, 77716, Note_on_c, 0, 83, 78
2, 77767, Note_on_c, 0, 73, 0
2, 77836, Note_on_c, 0, 78, 0
2, 77843, Note_on_c, 0, 78, 70
2, 77975, Note_on_c, 0, 85, 78
2, 77975, Note_on_c, 0, 52, 64
2, 77978, Note_on_c, 0, 64, 60
2, 77991, Note_on_c, 0, 59, 59
2, 78090, Note_on_c, 0, 78, 0
2, 78100, Note_on_c, 0, 78, 70
2, 78213, Note_on_c, 0, 83, 0
2, 78222, Note_on_c, 0, 87, 81
2, 78222, Note_on_c, 0, 83, 71
2, 78315, Note_on_c, 0, 52, 0
2, 78315, Note_on_c, 0, 78, 0
2, 78316, Note_on_c, 0, 85, 0
2, 78316, Note_on_c, 0, 87, 0
2, 78316, Note_on_c, 0, 56, 0
2, 78316, Note_on_c, 0, 75, 0
2, 78316, Note_on_c, 0, 63, 0
2, 78316, Note_on_c, 0, 59, 0
2, 78316, Note_on_c, 0, 83, 0
2, 78316, Control_c, 0, 64, 0
2, 78320, Note_on_c, 0, 64, 0
2, 78320, Note_on_c, 0, 66, 0
2, 78347, Note_on_c, 0, 54, 70
2, 78348, Note_on_c, 0, 90, 85
2, 78348, Note_on_c, 0, 61, 64
2, 78435, Control_c, 0, 64, 127
2, 78620, Note_on_c, 0, 61, 0
2, 78624, Note_on_c, 0, 61, 56
2, 78738, Note_on_c, 0, 66, 63
2, 78863, Note_on_c, 0, 70, 63
2, 78978, Note_on_c, 0, 71, 74
2, 79111, Note_on_c, 0, 70, 0
2, 79120, Note_on_c, 0, 70, 53
2, 79219, Note_on_c, 0, 66, 0
2, 79228, Note_on_c, 0, 66, 70
2, 79461, Note_on_c, 0, 70, 0
2, 79461, Note_on_c, 0, 71, 0
2, 79462, Note_on_c, 0, 54, 0
2, 79462, Note_on_c, 0, 61, 0
2, 79464, Note_on_c, 0, 90, 0
2, 79464, Control_c, 0, 64, 0
2, 79480, Note_on_c, 0, 66, 0
2, 79486, Note_on_c, 0, 66, 74
2, 79486, Note_on_c, 0, 63, 68
2, 79489, Note_on_c, 0, 73, 73
2, 79500, Note_on_c, 0, 56, 59
2, 79559, Note_on_c, 0, 75, 83
2, 79560, Note_on_c, 0, 73, 0
2, 79572, Control_c, 0, 64, 127
2, 79655, Note_on_c, 0, 78, 74
2, 79722, Note_on_c, 0, 83, 81
2, 79833, Note_on_c, 0, 78, 0
2, 79843, Note_on_c, 0, 78, 77
2, 79975, Note_on_c, 0, 85, 78
2, 79977, Note_on_c, 0, 75, 0
2, 79979, Note_on_c, 0, 78, 0
2, 79979, Note_on_c, 0, 83, 0
2, 79981, Note_on_c, 0, 56, 0
2, 79981, Note_on_c, 0, 66, 0
2, 79981, Control_c, 0, 64, 0
2, 79981, Note_on_c, 0, 63, 0
2, 79990, Note_on_c, 0, 52, 65
2, 79991, Note_on_c, 0, 64, 65
2, 79997, Note_on_c, 0, 59, 64
2, 80064, Control_c, 0, 64, 127
2, 80091, Note_on_c, 0, 78, 72
2, 80202, Note_on_c, 0, 52, 0
2, 80202, Note_on_c, 0, 64, 0
2, 80205, Note_on_c, 0, 87, 83
2, 80207, Note_on_c, 0, 83, 69
2, 80321, Control_c, 0, 64, 0
2, 80323, Note_on_c, 0, 87, 0
2, 80324, Note_on_c, 0, 59, 0
2, 80325, Note_on_c, 0, 85, 0
2, 80326, Note_on_c, 0, 78, 0
2, 80326, Note_on_c, 0, 83, 0
2, 80344, Note_on_c, 0, 88, 88
2, 80348, Note_on_c, 0, 54, 76
2, 80351, Note_on_c, 0, 61, 68
2, 80399, Note_on_c, 0, 61, 0
2, 80404, Note_on_c, 0, 54, 0
2, 80440, Control_c, 0, 64, 127
2, 80610, Note_on_c, 0, 61, 62
2, 80726, Note_on_c, 0, 87, 82
2, 80744, Note_on_c, 0, 66, 64
2, 80865, Note_on_c, 0, 68, 64
2, 80977, Note_on_c, 0, 85, 82
2, 80980, Note_on_c, 0, 70, 73
2, 81101, Note_on_c, 0, 78, 68
2, 81223, Note_on_c, 0, 87, 0
2, 81229, Note_on_c, 0, 87, 91
2, 81423, Note_on_c, 0, 88, 0
2, 81424, Note_on_c, 0, 61, 0
2, 81424, Note_on_c, 0, 87, 0
2, 81424, Note_on_c, 0, 66, 0
2, 81424, Note_on_c, 0, 68, 0
2, 81425, Note_on_c, 0, 85, 0
2, 81425, Note_on_c, 0, 70, 0
2, 81425, Note_on_c, 0, 78, 0
2, 81426, Control_c, 0, 64, 0
2, 81492, Note_on_c, 0, 51, 86
2, 81494, Note_on_c, 0, 61, 92
2, 81496, Note_on_c, 0, 54, 89
2, 81496, Note_on_c, 0, 44, 82
2, 81564, Note_on_c, 0, 63, 92
2, 81572, Note_on_c, 0, 54, 0
2, 81607, Control_c, 0, 64, 127
2, 81647, Note_on_c, 0, 66, 86
2, 81653, Note_on_c, 0, 44, 0
2, 81725, Note_on_c, 0, 71, 93
2, 81845, Note_on_c, 0, 51, 0
2, 81845, Note_on_c, 0, 61, 0
2, 81852, Control_c, 0, 64, 0
2, 81853, Note_on_c, 0, 66, 0
2, 81854, Note_on_c, 0, 63, 0
2, 81854, Note_on_c, 0, 71, 0
2, 81857, Note_on_c, 0, 47, 88
2, 81858, Note_on_c, 0, 52, 94
2, 81858, Note_on_c, 0, 40, 92
2, 81858, Note_on_c, 0, 68, 85
2, 81862, Note_on_c, 0, 66, 95
2, 81924, Note_on_c, 0, 66, 0
2, 81937, Note_on_c, 0, 47, 0
2, 81976, Note_on_c, 0, 73, 93
2, 81978, Note_on_c, 0, 47, 82
2, 81984, Control_c, 0, 64, 127
2, 82097, Note_on_c, 0, 66, 92
2, 82206, Note_on_c, 0, 47, 0
2, 82214, Note_on_c, 0, 75, 93
2, 82215, Note_on_c, 0, 71, 89
2, 82216, Note_on_c, 0, 47, 83
2, 82245, Note_on_c, 0, 52, 0
2, 82253, Note_on_c, 0, 68, 0
2, 82255, Note_on_c, 0, 73, 0
2, 82255, Note_on_c, 0, 66, 0
2, 82257, Note_on_c, 0, 40, 0
2, 82260, Control_c, 0, 64, 0
2, 82263, Note_on_c, 0, 47, 0
2, 82265, Note_on_c, 0, 71, 0
2, 82268, Note_on_c, 0, 75, 0
2, 82341, Note_on_c, 0, 78, 105
2, 82347, Note_on_c, 0, 66, 102
2, 82347, Note_on_c, 0, 42, 97
2, 82348, Note_on_c, 0, 54, 93
2, 82475, Control_c, 0, 64, 127
2, 82583, Note_on_c, 0, 30, 93
2, 82713, Note_on_c, 0, 66, 0
2, 82713, Note_on_c, 0, 75, 92
2, 82717, Note_on_c, 0, 66, 85
2, 82836, Note_on_c, 0, 42, 0
2, 82842, Note_on_c, 0, 42, 74
2, 82905, Note_on_c, 0, 75, 0
2, 82916, Note_on_c, 0, 75, 76
2, 82956, Note_on_c, 0, 59, 88
2, 82961, Note_on_c, 0, 76, 97
2, 82963, Note_on_c, 0, 49, 57
2, 82974, Note_on_c, 0, 49, 0
2, 83043, Note_on_c, 0, 75, 0
2, 83054, Note_on_c, 0, 75, 89
2, 83097, Note_on_c, 0, 42, 0
2, 83097, Note_on_c, 0, 54, 0
2, 83101, Note_on_c, 0, 54, 72
2, 83104, Note_on_c, 0, 42, 61
2, 83197, Note_on_c, 0, 71, 86
2, 83212, Note_on_c, 0, 30, 0
2, 83217, Note_on_c, 0, 30, 62
2, 83312, Note_on_c, 0, 66, 0
2, 83322, Note_on_c, 0, 66, 82
2, 83324, Note_on_c, 0, 54, 0
2, 83411, Control_c, 0, 64, 0
2, 83411, Note_on_c, 0, 30, 0
2, 83412, Note_on_c, 0, 71, 0
2, 83412, Note_on_c, 0, 42, 0
2, 83413, Note_on_c, 0, 59, 0
2, 83413, Note_on_c, 0, 78, 0
2, 83414, Note_on_c, 0, 76, 0
2, 83427, Note_on_c, 0, 75, 0
2, 83435, Note_on_c, 0, 66, 0
2, 83437, Note_on_c, 0, 75, 102
2, 83442, Note_on_c, 0, 66, 90
2, 83445, Note_on_c, 0, 52, 90
2, 83446, Note_on_c, 0, 40, 92
2, 83514, Note_on_c, 0, 75, 0
2, 83517, Note_on_c, 0, 78, 99
2, 83527, Note_on_c, 0, 66, 0
2, 83589, Control_c, 0, 64, 127
2, 83616, Note_on_c, 0, 75, 85
2, 83693, Note_on_c, 0, 47, 77
2, 83695, Note_on_c, 0, 73, 76
2, 83767, Note_on_c, 0, 71, 83
2, 83810, Note_on_c, 0, 78, 0
2, 83811, Control_c, 0, 64, 0
2, 83813, Note_on_c, 0, 47, 0
2, 83813, Note_on_c, 0, 75, 0
2, 83815, Note_on_c, 0, 51, 88
2, 83816, Note_on_c, 0, 39, 89
2, 83817, Note_on_c, 0, 71, 0
2, 83819, Note_on_c, 0, 40, 0
2, 83819, Note_on_c, 0, 52, 0
2, 83850, Note_on_c, 0, 73, 0
2, 83861, Note_on_c, 0, 73, 72
2, 83934, Control_c, 0, 64, 127
2, 83940, Note_on_c, 0, 71, 76
2, 84015, Note_on_c, 0, 66, 76
2, 84063, Note_on_c, 0, 47, 71
2, 84103, Note_on_c, 0, 71, 0
2, 84107, Note_on_c, 0, 71, 80
2, 84170, Control_c, 0, 64, 0
2, 84170, Note_on_c, 0, 75, 100
2, 84180, Note_on_c, 0, 39, 0
2, 84181, Note_on_c, 0, 47, 0
2, 84182, Note_on_c, 0, 66, 0
2, 84183, Note_on_c, 0, 71, 0
2, 84184, Note_on_c, 0, 51, 0
2, 84186, Note_on_c, 0, 73, 0
2, 84190, Note_on_c, 0, 52, 97
2, 84192, Note_on_c, 0, 40, 98
2, 84248, Note_on_c, 0, 75, 0
2, 84259, Note_on_c, 0, 78, 92
2, 84295, Control_c, 0, 64, 127
2, 84355, Note_on_c, 0, 75, 89
2, 84438, Note_on_c, 0, 73, 77
2, 84438, Note_on_c, 0, 47, 77
2, 84498, Note_on_c, 0, 71, 82
2, 84516, Control_c, 0, 64, 0
2, 84517, Note_on_c, 0, 40, 0
2, 84519, Note_on_c, 0, 75, 0
2, 84519, Note_on_c, 0, 78, 0
2, 84519, Note_on_c, 0, 73, 0
2, 84521, Note_on_c, 0, 47, 0
2, 84533, Note_on_c, 0, 52, 0
2, 84566, Note_on_c, 0, 39, 93
2, 84567, Note_on_c, 0, 51, 89
2, 84575, Note_on_c, 0, 73, 91
2, 84618, Control_c, 0, 64, 127
2, 84691, Note_on_c, 0, 66, 74
2, 84748, Note_on_c, 0, 71, 0
2, 84755, Note_on_c, 0, 71, 76
2, 84760, Note_on_c, 0, 47, 69
2, 84810, Note_on_c, 0, 73, 0
2, 84821, Note_on_c, 0, 73, 74
2, 84854, Control_c, 0, 64, 0
2, 84861, Note_on_c, 0, 73, 0
2, 84861, Note_on_c, 0, 66, 0
2, 84862, Note_on_c, 0, 51, 0
2, 84863, Note_on_c, 0, 47, 0
2, 84864, Note_on_c, 0, 39, 0
2, 84879, Note_on_c, 0, 71, 0
2, 84892, Note_on_c, 0, 52, 94
2, 84893, Note_on_c, 0, 40, 91
2, 84895, Note_on_c, 0, 78, 102
2, 84897, Note_on_c, 0, 68, 78
2, 84902, Note_on_c, 0, 68, 0
2, 84979, Control_c, 0, 64, 127
2, 84992, Note_on_c, 0, 66, 76
2, 85052, Note_on_c, 0, 71, 78
2, 85094, Note_on_c, 0, 73, 81
2, 85129, Note_on_c, 0, 54, 81
2, 85133, Note_on_c, 0, 42, 88
2, 85163, Note_on_c, 0, 78, 0
2, 85172, Note_on_c, 0, 78, 86
2, 85226, Note_on_c, 0, 83, 89
2, 85257, Note_on_c, 0, 85, 92
2, 85289, Note_on_c, 0, 90, 91
2, 85424, Note_on_c, 0, 83, 0
2, 85424, Note_on_c, 0, 90, 0
2, 85434, Note_on_c, 0, 95, 106
2, 85435, Note_on_c, 0, 83, 103
2, 85435, Note_on_c, 0, 90, 89
2, 85438, Note_on_c, 0, 87, 95
2, 85439, Note_on_c, 0, 42, 0
2, 85439, Note_on_c, 0, 47, 89
2, 85440, Note_on_c, 0, 54, 0
2, 85441, Note_on_c, 0, 52, 0
2, 85441, Control_c, 0, 64, 0
2, 85442, Note_on_c, 0, 78, 0
2, 85442, Note_on_c, 0, 85, 0
2, 85442, Note_on_c, 0, 71, 0
2, 85442, Note_on_c, 0, 66, 0
2, 85443, Note_on_c, 0, 73, 0
2, 85443, Note_on_c, 0, 59, 94
2, 85447, Note_on_c, 0, 40, 0
2, 85708, Control_c, 0, 64, 127
2, 85807, Note_on_c, 0, 54, 55
2, 85946, Note_on_c, 0, 59, 0
2, 85950, Note_on_c, 0, 59, 68
2, 86077, Note_on_c, 0, 54, 0
2, 86084, Note_on_c, 0, 54, 51
2, 86223, Note_on_c, 0, 59, 0
2, 86232, Note_on_c, 0, 59, 65
2, 86346, Note_on_c, 0, 61, 50
2, 86458, Note_on_c, 0, 63, 62
2, 86599, Note_on_c, 0, 59, 0
2, 86603, Note_on_c, 0, 59, 63
2, 86707, Note_on_c, 0, 61, 0
2, 86712, Note_on_c, 0, 61, 55
2, 86845, Note_on_c, 0, 63, 0
2, 86851, Note_on_c, 0, 63, 59
2, 86962, Note_on_c, 0, 64, 62
2, 87070, Note_on_c, 0, 66, 58
2, 87196, Note_on_c, 0, 68, 62
2, 87317, Note_on_c, 0, 70, 69
2, 87444, Note_on_c, 0, 52, 69
2, 87453, Note_on_c, 0, 63, 0
2, 87454, Note_on_c, 0, 61, 0
2, 87455, Note_on_c, 0, 64, 0
2, 87456, Note_on_c, 0, 47, 0
2, 87456, Note_on_c, 0, 59, 0
2, 87457, Note_on_c, 0, 68, 0
2, 87457, Note_on_c, 0, 54, 0
2, 87459, Note_on_c, 0, 87, 0
2, 87459, Note_on_c, 0, 90, 0
2, 87461, Note_on_c, 0, 71, 71
2, 87461, Note_on_c, 0, 66, 0
2, 87466, Control_c, 0, 64, 0
2, 87467, Note_on_c, 0, 70, 0
2, 87467, Note_on_c, 0, 83, 0
2, 87467, Note_on_c, 0, 95, 0
2, 87598, Note_on_c, 0, 70, 70
2, 87636, Note_on_c, 0, 71, 0
2, 87721, Note_on_c, 0, 71, 61
2, 87759, Control_c, 0, 64, 127
2, 87825, Note_on_c, 0, 73, 72
2, 87830, Note_on_c, 0, 59, 65
2, 87943, Note_on_c, 0, 71, 0
2, 87949, Note_on_c, 0, 71, 69
2, 88066, Note_on_c, 0, 73, 0
2, 88072, Note_on_c, 0, 73, 74
2, 88185, Note_on_c, 0, 75, 80
2, 88208, Note_on_c, 0, 64, 65
2, 88312, Note_on_c, 0, 73, 0
2, 88316, Note_on_c, 0, 73, 76
2, 88442, Note_on_c, 0, 75, 0
2, 88452, Note_on_c, 0, 75, 79
2, 88555, Note_on_c, 0, 76, 82
2, 88577, Note_on_c, 0, 66, 56
2, 88665, Note_on_c, 0, 75, 0
2, 88676, Note_on_c, 0, 75, 79
2, 88788, Note_on_c, 0, 76, 0
2, 88793, Note_on_c, 0, 76, 78
2, 88919, Note_on_c, 0, 71, 0
2, 88921, Note_on_c, 0, 78, 89
2, 88923, Note_on_c, 0, 71, 73
2, 89048, Note_on_c, 0, 83, 80
2, 89173, Note_on_c, 0, 88, 84
2, 89286, Note_on_c, 0, 90, 83
2, 89402, Note_on_c, 0, 66, 0
2, 89408, Control_c, 0, 64, 0
2, 89408, Note_on_c, 0, 56, 55
2, 89408, Note_on_c, 0, 95, 87
2, 89411, Note_on_c, 0, 66, 64
2, 89412, Note_on_c, 0, 63, 61
2, 89414, Note_on_c, 0, 59, 0
2, 89414, Note_on_c, 0, 64, 0
2, 89414, Note_on_c, 0, 73, 0
2, 89415, Note_on_c, 0, 71, 0
2, 89415, Note_on_c, 0, 76, 0
2, 89415, Note_on_c, 0, 52, 0
2, 89416, Note_on_c, 0, 78, 0
2, 89416, Note_on_c, 0, 83, 0
2, 89418, Note_on_c, 0, 88, 0
2, 89419, Note_on_c, 0, 90, 0
2, 89425, Note_on_c, 0, 75, 0
2, 89433, Note_on_c, 0, 70, 0
2, 89510, Control_c, 0, 64, 127
2, 89532, Note_on_c, 0, 94, 84
2, 89640, Note_on_c, 0, 95, 0
2, 89652, Note_on_c, 0, 95, 75
2, 89789, Note_on_c, 0, 90, 73
2, 89794, Note_on_c, 0, 71, 79
2, 89794, Note_on_c, 0, 66, 0
2, 89799, Note_on_c, 0, 66, 66
2, 89907, Note_on_c, 0, 88, 65
2, 90029, Note_on_c, 0, 87, 70
2, 90140, Note_on_c, 0, 56, 0
2, 90148, Note_on_c, 0, 56, 58
2, 90151, Note_on_c, 0, 83, 74
2, 90263, Note_on_c, 0, 87, 0
2, 90268, Note_on_c, 0, 87, 82
2, 90382, Control_c, 0, 64, 0
2, 90385, Note_on_c, 0, 95, 0
2, 90389, Note_on_c, 0, 63, 0
2, 90389, Note_on_c, 0, 71, 0
2, 90389, Note_on_c, 0, 56, 0
2, 90389, Note_on_c, 0, 95, 87
2, 90390, Note_on_c, 0, 87, 0
2, 90391, Note_on_c, 0, 66, 0
2, 90393, Note_on_c, 0, 88, 0
2, 90397, Note_on_c, 0, 54, 68
2, 90399, Note_on_c, 0, 61, 65
2, 90401, Note_on_c, 0, 90, 0
2, 90408, Note_on_c, 0, 83, 0
2, 90485, Control_c, 0, 64, 127
2, 90493, Note_on_c, 0, 61, 0
2, 90501, Note_on_c, 0, 94, 0
2, 90510, Note_on_c, 0, 94, 87
2, 90624, Note_on_c, 0, 95, 0
2, 90634, Note_on_c, 0, 95, 77
2, 90757, Note_on_c, 0, 70, 78
2, 90761, Note_on_c, 0, 90, 73
2, 90762, Note_on_c, 0, 66, 73
2, 90880, Note_on_c, 0, 88, 70
2, 90997, Note_on_c, 0, 87, 78
2, 91107, Note_on_c, 0, 54, 0
2, 91114, Note_on_c, 0, 54, 67
2, 91119, Note_on_c, 0, 83, 75
2, 91238, Note_on_c, 0, 87, 0
2, 91243, Note_on_c, 0, 87, 79
2, 91341, Note_on_c, 0, 87, 0
2, 91341, Note_on_c, 0, 88, 0
2, 91341, Note_on_c, 0, 94, 0
2, 91341, Note_on_c, 0, 83, 0
2, 91341, Note_on_c, 0, 70, 0
2, 91341, Note_on_c, 0, 54, 0
2, 91341, Note_on_c, 0, 90, 0
2, 91342, Note_on_c, 0, 66, 0
2, 91342, Control_c, 0, 64, 0
2, 91353, Note_on_c, 0, 95, 0
2, 91362, Note_on_c, 0, 95, 93
2, 91364, Note_on_c, 0, 52, 74
2, 91407, Control_c, 0, 64, 127
2, 91472, Note_on_c, 0, 94, 88
2, 91501, Note_on_c, 0, 59, 69
2, 91584, Note_on_c, 0, 95, 0
2, 91595, Note_on_c, 0, 95, 80
2, 91611, Note_on_c, 0, 64, 72
2, 91727, Note_on_c, 0, 90, 90
2, 91733, Note_on_c, 0, 66, 71
2, 91852, Note_on_c, 0, 59, 0
2, 91857, Note_on_c, 0, 59, 70
2, 91975, Note_on_c, 0, 64, 0
2, 91987, Note_on_c, 0, 64, 68
2, 92086, Note_on_c, 0, 102, 97
2, 92103, Note_on_c, 0, 71, 73
2, 92113, Note_on_c, 0, 66, 0
2, 92120, Note_on_c, 0, 66, 69
2, 92155, Note_on_c, 0, 97, 72
2, 92221, Note_on_c, 0, 90, 0
2, 92226, Note_on_c, 0, 90, 79
2, 92332, Note_on_c, 0, 85, 77
2, 92391, Note_on_c, 0, 83, 72
2, 92459, Note_on_c, 0, 90, 0
2, 92463, Note_on_c, 0, 90, 90
2, 92467, Note_on_c, 0, 71, 0
2, 92473, Note_on_c, 0, 76, 84
2, 92478, Note_on_c, 0, 71, 85
2, 92520, Note_on_c, 0, 85, 0
2, 92526, Note_on_c, 0, 85, 76
2, 92582, Note_on_c, 0, 83, 0
2, 92586, Note_on_c, 0, 83, 61
2, 92622, Note_on_c, 0, 78, 73
2, 92734, Note_on_c, 0, 73, 67
2, 92782, Note_on_c, 0, 71, 0
2, 92786, Note_on_c, 0, 71, 74
2, 92858, Note_on_c, 0, 66, 0
2, 92866, Note_on_c, 0, 66, 79
2, 93127, Note_on_c, 0, 54, 82
2, 93373, Note_on_c, 0, 59, 0
2, 93382, Note_on_c, 0, 59, 85
2, 93394, Note_on_c, 0, 47, 72
2, 93404, Note_on_c, 0, 52, 0
2, 93407, Note_on_c, 0, 85, 0
2, 93407, Control_c, 0, 64, 0
2, 93407, Note_on_c, 0, 73, 0
2, 93408, Note_on_c, 0, 90, 0
2, 93408, Note_on_c, 0, 97, 0
2, 93408, Note_on_c, 0, 71, 0
2, 93408, Note_on_c, 0, 95, 0
2, 93408, Note_on_c, 0, 94, 0
2, 93408, Note_on_c, 0, 66, 0
2, 93408, Note_on_c, 0, 76, 0
2, 93408, Note_on_c, 0, 78, 0
2, 93408, Note_on_c, 0, 54, 0
2, 93411, Note_on_c, 0, 83, 0
2, 93411, Note_on_c, 0, 102, 0
2, 93415, Note_on_c, 0, 83, 74
2, 93419, Note_on_c, 0, 64, 0
2, 93488, Control_c, 0, 64, 127
2, 93544, Note_on_c, 0, 78, 67
2, 93603, Note_on_c, 0, 83, 0
2, 93660, Note_on_c, 0, 76, 60
2, 93746, Note_on_c, 0, 54, 69
2, 93772, Note_on_c, 0, 78, 0
2, 93778, Note_on_c, 0, 78, 67
2, 93914, Note_on_c, 0, 71, 65
2, 94033, Note_on_c, 0, 76, 0
2, 94043, Note_on_c, 0, 76, 58
2, 94133, Note_on_c, 0, 78, 0
2, 94144, Note_on_c, 0, 78, 68
2, 94264, Note_on_c, 0, 71, 0
2, 94272, Note_on_c, 0, 71, 63
2, 94403, Note_on_c, 0, 83, 76
2, 94533, Note_on_c, 0, 78, 0
2, 94537, Note_on_c, 0, 78, 63
2, 94663, Note_on_c, 0, 54, 0
2, 94663, Note_on_c, 0, 76, 0
2, 94667, Note_on_c, 0, 76, 61
2, 94669, Note_on_c, 0, 54, 74
2, 94778, Note_on_c, 0, 78, 0
2, 94789, Note_on_c, 0, 78, 66
2, 94909, Note_on_c, 0, 71, 0
2, 94914, Note_on_c, 0, 64, 87
2, 94916, Note_on_c, 0, 71, 72
2, 95040, Note_on_c, 0, 76, 0
2, 95044, Note_on_c, 0, 76, 72
2, 95107, Note_on_c, 0, 63, 82
2, 95162, Note_on_c, 0, 78, 0
2, 95169, Note_on_c, 0, 78, 74
2, 95267, Note_on_c, 0, 61, 78
2, 95301, Note_on_c, 0, 71, 0
2, 95306, Note_on_c, 0, 71, 73
2, 95398, Note_on_c, 0, 71, 0
2, 95398, Note_on_c, 0, 63, 0
2, 95398, Note_on_c, 0, 47, 0
2, 95398, Note_on_c, 0, 78, 0
2, 95398, Note_on_c, 0, 54, 0
2, 95399, Note_on_c, 0, 64, 0
2, 95399, Note_on_c, 0, 83, 0
2, 95399, Note_on_c, 0, 61, 0
2, 95400, Note_on_c, 0, 76, 0
2, 95400, Control_c, 0, 64, 0
2, 95416, Note_on_c, 0, 59, 0
2, 95425, Note_on_c, 0, 59, 84
2, 95437, Note_on_c, 0, 52, 69
2, 95443, Note_on_c, 0, 83, 87
2, 95466, Note_on_c, 0, 59, 0
2, 95500, Control_c, 0, 64, 127
2, 95567, Note_on_c, 0, 78, 67
2, 95675, Note_on_c, 0, 76, 68
2, 95800, Note_on_c, 0, 78, 0
2, 95804, Note_on_c, 0, 78, 79
2, 95809, Note_on_c, 0, 40, 62
2, 95936, Note_on_c, 0, 71, 72
2, 96038, Note_on_c, 0, 76, 0
2, 96049, Note_on_c, 0, 76, 66
2, 96174, Note_on_c, 0, 47, 64
2, 96175, Note_on_c, 0, 88, 82
2, 96296, Note_on_c, 0, 87, 78
2, 96419, Note_on_c, 0, 85, 72
2, 96529, Note_on_c, 0, 87, 0
2, 96540, Note_on_c, 0, 87, 76
2, 96645, Note_on_c, 0, 83, 0
2, 96655, Note_on_c, 0, 83, 76
2, 96775, Note_on_c, 0, 78, 0
2, 96780, Note_on_c, 0, 78, 68
2, 96890, Note_on_c, 0, 47, 0
2, 96890, Note_on_c, 0, 83, 0
2, 96898, Note_on_c, 0, 47, 59
2, 96901, Note_on_c, 0, 83, 77
2, 96901, Note_on_c, 0, 59, 85
2, 97021, Note_on_c, 0, 78, 0
2, 97029, Note_on_c, 0, 78, 70
2, 97159, Note_on_c, 0, 76, 0
2, 97162, Note_on_c, 0, 61, 86
2, 97169, Note_on_c, 0, 76, 70
2, 97290, Note_on_c, 0, 78, 0
2, 97300, Note_on_c, 0, 78, 72
2, 97408, Note_on_c, 0, 87, 0
2, 97409, Note_on_c, 0, 88, 0
2, 97409, Note_on_c, 0, 52, 0
2, 97409, Note_on_c, 0, 85, 0
2, 97409, Note_on_c, 0, 59, 0
2, 97409, Note_on_c, 0, 76, 0
2, 97409, Note_on_c, 0, 71, 0
2, 97409, Note_on_c, 0, 47, 0
2, 97409, Note_on_c, 0, 40, 0
2, 97409, Control_c, 0, 64, 0
2, 97413, Note_on_c, 0, 83, 0
2, 97417, Note_on_c, 0, 56, 76
2, 97417, Note_on_c, 0, 63, 81
2, 97419, Note_on_c, 0, 83, 81
2, 97443, Note_on_c, 0, 61, 0
2, 97443, Note_on_c, 0, 78, 0
2, 97468, Note_on_c, 0, 63, 0
2, 97497, Control_c, 0, 64, 127
2, 97548, Note_on_c, 0, 78, 73
2, 97548, Note_on_c, 0, 61, 77
2, 97657, Note_on_c, 0, 63, 78
2, 97689, Note_on_c, 0, 71, 72
2, 97779, Control_c, 0, 64, 0
2, 97780, Note_on_c, 0, 61, 0
2, 97783, Note_on_c, 0, 63, 0
2, 97784, Note_on_c, 0, 56, 0
2, 97785, Note_on_c, 0, 78, 0
2, 97789, Note_on_c, 0, 83, 0
2, 97793, Note_on_c, 0, 64, 84
2, 97798, Note_on_c, 0, 83, 83
2, 97812, Control_c, 0, 64, 127
2, 97909, Note_on_c, 0, 63, 84
2, 97911, Note_on_c, 0, 78, 76
2, 98027, Note_on_c, 0, 71, 0
2, 98031, Note_on_c, 0, 71, 71
2, 98032, Note_on_c, 0, 61, 80
2, 98161, Note_on_c, 0, 85, 85
2, 98162, Note_on_c, 0, 59, 79
2, 98273, Note_on_c, 0, 61, 0
2, 98283, Note_on_c, 0, 61, 81
2, 98288, Note_on_c, 0, 71, 0
2, 98296, Note_on_c, 0, 71, 75
2, 98376, Control_c, 0, 64, 0
2, 98380, Note_on_c, 0, 64, 0
2, 98383, Note_on_c, 0, 78, 0
2, 98383, Note_on_c, 0, 71, 0
2, 98384, Note_on_c, 0, 59, 0
2, 98384, Note_on_c, 0, 85, 0
2, 98403, Note_on_c, 0, 61, 0
2, 98403, Note_on_c, 0, 63, 0
2, 98403, Note_on_c, 0, 83, 0
2, 98407, Note_on_c, 0, 83, 88
2, 98408, Note_on_c, 0, 54, 83
2, 98413, Note_on_c, 0, 63, 75
2, 98488, Control_c, 0, 64, 127
2, 98532, Note_on_c, 0, 78, 71
2, 98539, Note_on_c, 0, 61, 76
2, 98572, Note_on_c, 0, 63, 0
2, 98640, Note_on_c, 0, 63, 81
2, 98664, Note_on_c, 0, 71, 72
2, 98764, Note_on_c, 0, 83, 0
2, 98776, Note_on_c, 0, 83, 92
2, 98776, Note_on_c, 0, 64, 88
2, 98887, Note_on_c, 0, 63, 0
2, 98887, Note_on_c, 0, 78, 0
2, 98897, Note_on_c, 0, 63, 83
2, 98898, Note_on_c, 0, 78, 75
2, 99018, Note_on_c, 0, 61, 0
2, 99018, Note_on_c, 0, 71, 0
2, 99024, Note_on_c, 0, 61, 80
2, 99025, Note_on_c, 0, 71, 76
2, 99146, Note_on_c, 0, 59, 76
2, 99149, Note_on_c, 0, 85, 80
2, 99248, Note_on_c, 0, 61, 0
2, 99258, Note_on_c, 0, 61, 71
2, 99271, Note_on_c, 0, 71, 0
2, 99282, Note_on_c, 0, 71, 69
2, 99386, Note_on_c, 0, 59, 0
2, 99386, Note_on_c, 0, 83, 0
2, 99391, Note_on_c, 0, 71, 0
2, 99391, Note_on_c, 0, 63, 0
2, 99392, Note_on_c, 0, 61, 0
2, 99392, Note_on_c, 0, 78, 0
2, 99392, Note_on_c, 0, 59, 77
2, 99393, Note_on_c, 0, 54, 0
2, 99393, Note_on_c, 0, 64, 0
2, 99396, Control_c, 0, 64, 0
2, 99396, Note_on_c, 0, 52, 73
2, 99397, Note_on_c, 0, 83, 90
2, 99494, Control_c, 0, 64, 127
2, 99535, Note_on_c, 0, 78, 67
2, 99681, Note_on_c, 0, 71, 58
2, 99686, Note_on_c, 0, 85, 0
2, 99778, Note_on_c, 0, 83, 0
2, 99785, Note_on_c, 0, 40, 61
2, 99788, Note_on_c, 0, 83, 79
2, 99909, Note_on_c, 0, 78, 0
2, 99918, Note_on_c, 0, 78, 66
2, 100024, Note_on_c, 0, 71, 0
2, 100035, Note_on_c, 0, 71, 67
2, 100166, Note_on_c, 0, 47, 64
2, 100167, Note_on_c, 0, 88, 85
2, 100297, Note_on_c, 0, 87, 77
2, 100425, Note_on_c, 0, 85, 73
2, 100538, Note_on_c, 0, 87, 0
2, 100549, Note_on_c, 0, 87, 76
2, 100646, Note_on_c, 0, 83, 0
2, 100656, Note_on_c, 0, 83, 73
2, 100761, Note_on_c, 0, 78, 0
2, 100767, Note_on_c, 0, 78, 74
2, 100899, Note_on_c, 0, 83, 0
2, 100904, Note_on_c, 0, 83, 96
2, 101022, Note_on_c, 0, 52, 0
2, 101030, Note_on_c, 0, 52, 66
2, 101153, Note_on_c, 0, 59, 0
2, 101153, Note_on_c, 0, 85, 0
2, 101157, Note_on_c, 0, 59, 69
2, 101157, Note_on_c, 0, 85, 94
2, 101279, Note_on_c, 0, 64, 68
2, 101284, Note_on_c, 0, 52, 0
2, 101291, Note_on_c, 0, 78, 0
2, 101300, Note_on_c, 0, 78, 70
2, 101360, Note_on_c, 0, 83, 0
2, 101371, Note_on_c, 0, 83, 77
2, 101399, Note_on_c, 0, 71, 0
2, 101399, Note_on_c, 0, 40, 0
2, 101400, Note_on_c, 0, 47, 0
2, 101401, Note_on_c, 0, 59, 0
2, 101401, Note_on_c, 0, 85, 0
2, 101401, Note_on_c, 0, 88, 0
2, 101402, Control_c, 0, 64, 0
2, 101406, Note_on_c, 0, 87, 0
2, 101410, Note_on_c, 0, 87, 97
2, 101411, Note_on_c, 0, 56, 72
2, 101498, Control_c, 0, 64, 127
2, 101529, Note_on_c, 0, 83, 0
2, 101541, Note_on_c, 0, 63, 64
2, 101542, Note_on_c, 0, 85, 84
2, 101660, Note_on_c, 0, 87, 0
2, 101668, Note_on_c, 0, 66, 69
2, 101669, Note_on_c, 0, 87, 90
2, 101774, Note_on_c, 0, 70, 70
2, 101779, Note_on_c, 0, 88, 85
2, 101890, Note_on_c, 0, 87, 0
2, 101901, Note_on_c, 0, 87, 91
2, 101905, Note_on_c, 0, 71, 75
2, 102013, Note_on_c, 0, 85, 0
2, 102024, Note_on_c, 0, 85, 84
2, 102027, Note_on_c, 0, 73, 71
2, 102157, Note_on_c, 0, 83, 89
2, 102162, Note_on_c, 0, 75, 73
2, 102259, Note_on_c, 0, 85, 0
2, 102265, Note_on_c, 0, 85, 75
2, 102343, Note_on_c, 0, 78, 0
2, 102350, Note_on_c, 0, 78, 70
2, 102376, Note_on_c, 0, 82, 71
2, 102388, Note_on_c, 0, 88, 0
2, 102389, Note_on_c, 0, 87, 0
2, 102390, Control_c, 0, 64, 0
2, 102391, Note_on_c, 0, 85, 0
2, 102391, Note_on_c, 0, 63, 0
2, 102392, Note_on_c, 0, 75, 0
2, 102392, Note_on_c, 0, 71, 0
2, 102392, Note_on_c, 0, 70, 0
2, 102392, Note_on_c, 0, 83, 0
2, 102392, Note_on_c, 0, 73, 0
2, 102393, Note_on_c, 0, 66, 0
2, 102397, Note_on_c, 0, 56, 0
2, 102397, Note_on_c, 0, 64, 0
2, 102400, Note_on_c, 0, 87, 91
2, 102402, Note_on_c, 0, 54, 69
2, 102489, Control_c, 0, 64, 127
2, 102535, Note_on_c, 0, 85, 79
2, 102544, Note_on_c, 0, 61, 62
2, 102643, Note_on_c, 0, 87, 0
2, 102649, Note_on_c, 0, 66, 71
2, 102651, Note_on_c, 0, 87, 91
2, 102696, Note_on_c, 0, 78, 0
2, 102763, Note_on_c, 0, 88, 84
2, 102768, Note_on_c, 0, 68, 71
2, 102873, Note_on_c, 0, 87, 0
2, 102879, Note_on_c, 0, 87, 86
2, 102883, Note_on_c, 0, 70, 76
2, 102996, Note_on_c, 0, 85, 0
2, 103007, Note_on_c, 0, 85, 80
2, 103015, Note_on_c, 0, 71, 70
2, 103133, Note_on_c, 0, 83, 88
2, 103135, Note_on_c, 0, 73, 78
2, 103249, Note_on_c, 0, 85, 0
2, 103254, Note_on_c, 0, 85, 84
2, 103380, Note_on_c, 0, 83, 0
2, 103384, Note_on_c, 0, 83, 88
2, 103389, Note_on_c, 0, 52, 69
2, 103389, Note_on_c, 0, 78, 77
2, 103400, Control_c, 0, 64, 0
2, 103402, Note_on_c, 0, 87, 0
2, 103403, Note_on_c, 0, 68, 0
2, 103404, Note_on_c, 0, 71, 0
2, 103404, Note_on_c, 0, 61, 0
2, 103404, Note_on_c, 0, 85, 0
2, 103405, Note_on_c, 0, 70, 0
2, 103405, Note_on_c, 0, 88, 0
2, 103405, Note_on_c, 0, 66, 0
2, 103406, Note_on_c, 0, 73, 0
2, 103411, Note_on_c, 0, 82, 0
2, 103418, Note_on_c, 0, 54, 0
2, 103518, Control_c, 0, 64, 127
2, 103528, Note_on_c, 0, 59, 53
2, 103655, Note_on_c, 0, 64, 63
2, 103776, Note_on_c, 0, 66, 62
2, 103864, Note_on_c, 0, 83, 0
2, 103910, Note_on_c, 0, 68, 66
2, 104035, Note_on_c, 0, 70, 64
2, 104142, Note_on_c, 0, 71, 68
2, 104279, Note_on_c, 0, 73, 64
2, 104389, Note_on_c, 0, 75, 66
2, 104505, Note_on_c, 0, 76, 63
2, 104632, Note_on_c, 0, 78, 0
2, 104638, Note_on_c, 0, 78, 65
2, 104770, Note_on_c, 0, 71, 0
2, 104774, Note_on_c, 0, 71, 48
2, 104882, Note_on_c, 0, 95, 81
2, 104887, Note_on_c, 0, 83, 75
2, 105315, Note_on_c, 0, 71, 0
2, 105320, Note_on_c, 0, 71, 61
2, 105346, Note_on_c, 0, 78, 0
2, 105357, Note_on_c, 0, 78, 67
2, 105392, Note_on_c, 0, 83, 0
2, 105396, Note_on_c, 0, 83, 94
2, 105408, Note_on_c, 0, 66, 0
2, 105412, Note_on_c, 0, 63, 70
2, 105417, Note_on_c, 0, 66, 73
2, 105418, Note_on_c, 0, 56, 61
2, 105426, Control_c, 0, 64, 0
2, 105428, Note_on_c, 0, 95, 0
2, 105428, Note_on_c, 0, 78, 0
2, 105428, Note_on_c, 0, 76, 0
2, 105429, Note_on_c, 0, 71, 0
2, 105430, Note_on_c, 0, 73, 0
2, 105430, Note_on_c, 0, 68, 0
2, 105431, Note_on_c, 0, 70, 0
2, 105432, Note_on_c, 0, 64, 0
2, 105432, Note_on_c, 0, 75, 0
2, 105432, Note_on_c, 0, 59, 0
2, 105432, Note_on_c, 0, 83, 0
2, 105432, Note_on_c, 0, 52, 0
2, 105442, Note_on_c, 0, 63, 0
2, 105450, Note_on_c, 0, 56, 0
2, 105454, Note_on_c, 0, 66, 0
2, 105529, Note_on_c, 0, 85, 77
2, 105556, Note_on_c, 0, 85, 0
2, 105647, Note_on_c, 0, 87, 79
2, 105681, Note_on_c, 0, 87, 0
2, 105763, Note_on_c, 0, 83, 96
2, 105765, Note_on_c, 0, 71, 82
2, 105773, Note_on_c, 0, 66, 72
2, 105795, Note_on_c, 0, 63, 63
2, 105811, Note_on_c, 0, 66, 0
2, 105822, Control_c, 0, 64, 127
2, 105902, Note_on_c, 0, 85, 79
2, 106017, Note_on_c, 0, 87, 86
2, 106020, Note_on_c, 0, 66, 69
2, 106104, Note_on_c, 0, 87, 0
2, 106104, Control_c, 0, 64, 0
2, 106107, Note_on_c, 0, 85, 0
2, 106108, Note_on_c, 0, 66, 0
2, 106114, Note_on_c, 0, 63, 0
2, 106114, Note_on_c, 0, 71, 0
2, 106129, Note_on_c, 0, 83, 0
2, 106135, Note_on_c, 0, 83, 93
2, 106142, Note_on_c, 0, 64, 86
2, 106143, Note_on_c, 0, 59, 77
2, 106144, Note_on_c, 0, 52, 82
2, 106166, Note_on_c, 0, 64, 0
2, 106169, Note_on_c, 0, 59, 0
2, 106191, Note_on_c, 0, 52, 0
2, 106191, Note_on_c, 0, 83, 0
2, 106256, Note_on_c, 0, 85, 76
2, 106289, Note_on_c, 0, 85, 0
2, 106366, Note_on_c, 0, 87, 86
2, 106420, Note_on_c, 0, 87, 0
2, 106494, Note_on_c, 0, 83, 97
2, 106496, Note_on_c, 0, 71, 87
2, 106499, Note_on_c, 0, 66, 83
2, 106500, Note_on_c, 0, 64, 81
2, 106513, Control_c, 0, 64, 127
2, 106617, Note_on_c, 0, 85, 75
2, 106728, Note_on_c, 0, 64, 0
2, 106732, Note_on_c, 0, 87, 84
2, 106738, Note_on_c, 0, 64, 68
2, 106814, Control_c, 0, 64, 0
2, 106821, Note_on_c, 0, 85, 0
2, 106821, Note_on_c, 0, 87, 0
2, 106825, Note_on_c, 0, 64, 0
2, 106825, Note_on_c, 0, 83, 0
2, 106828, Note_on_c, 0, 66, 0
2, 106828, Note_on_c, 0, 71, 0
2, 106855, Note_on_c, 0, 83, 93
2, 106857, Note_on_c, 0, 52, 76
2, 106857, Note_on_c, 0, 59, 75
2, 106886, Note_on_c, 0, 52, 0
2, 106886, Note_on_c, 0, 59, 0
2, 106920, Note_on_c, 0, 83, 0
2, 106970, Note_on_c, 0, 85, 86
2, 107011, Note_on_c, 0, 85, 0
2, 107091, Note_on_c, 0, 71, 88
2, 107093, Note_on_c, 0, 64, 85
2, 107097, Note_on_c, 0, 66, 82
2, 107101, Note_on_c, 0, 87, 84
2, 107117, Note_on_c, 0, 64, 0
2, 107122, Note_on_c, 0, 71, 0
2, 107126, Note_on_c, 0, 66, 0
2, 107150, Note_on_c, 0, 87, 0
2, 107222, Note_on_c, 0, 83, 79
2, 107247, Note_on_c, 0, 83, 0
2, 107325, Note_on_c, 0, 78, 106
2, 107326, Note_on_c, 0, 59, 97
2, 107330, Note_on_c, 0, 47, 82
2, 107332, Note_on_c, 0, 54, 86
2, 107336, Note_on_c, 0, 51, 75
2, 107374, Control_c, 0, 64, 127
2, 107473, Note_on_c, 0, 61, 82
2, 107579, Note_on_c, 0, 63, 76
2, 107592, Control_c, 0, 64, 0
2, 107594, Note_on_c, 0, 51, 0
2, 107594, Note_on_c, 0, 78, 0
2, 107595, Note_on_c, 0, 61, 0
2, 107604, Note_on_c, 0, 47, 0
2, 107604, Note_on_c, 0, 59, 0
2, 107612, Note_on_c, 0, 54, 0
2, 107616, Note_on_c, 0, 63, 0
2, 107708, Note_on_c, 0, 59, 91
2, 107713, Note_on_c, 0, 54, 81
2, 107714, Note_on_c, 0, 47, 77
2, 107715, Note_on_c, 0, 51, 71
2, 107796, Control_c, 0, 64, 127
2, 107833, Note_on_c, 0, 61, 83
2, 107948, Note_on_c, 0, 63, 80
2, 108001, Control_c, 0, 64, 0
2, 108003, Note_on_c, 0, 59, 0
2, 108005, Note_on_c, 0, 51, 0
2, 108006, Note_on_c, 0, 54, 0
2, 108006, Note_on_c, 0, 61, 0
2, 108006, Note_on_c, 0, 63, 0
2, 108006, Note_on_c, 0, 47, 0
2, 108085, Note_on_c, 0, 59, 92
2, 108089, Note_on_c, 0, 49, 83
2, 108092, Note_on_c, 0, 42, 82
2, 108195, Control_c, 0, 64, 127
2, 108210, Note_on_c, 0, 61, 77
2, 108322, Note_on_c, 0, 63, 86
2, 108399, Control_c, 0, 64, 0
2, 108403, Note_on_c, 0, 42, 0
2, 108405, Note_on_c, 0, 63, 0
2, 108405, Note_on_c, 0, 61, 0
2, 108410, Note_on_c, 0, 49, 0
2, 108410, Note_on_c, 0, 59, 0
2, 108456, Note_on_c, 0, 59, 88
2, 108460, Note_on_c, 0, 68, 77
2, 108461, Note_on_c, 0, 66, 70
2, 108464, Note_on_c, 0, 68, 0
2, 108465, Note_on_c, 0, 49, 77
2, 108466, Note_on_c, 0, 54, 78
2, 108467, Note_on_c, 0, 42, 78
2, 108495, Note_on_c, 0, 59, 0
2, 108575, Note_on_c, 0, 61, 81
2, 108688, Note_on_c, 0, 58, 79
2, 108733, Control_c, 0, 64, 127
2, 108802, Note_on_c, 0, 66, 0
2, 108807, Note_on_c, 0, 66, 86
2, 108940, Note_on_c, 0, 49, 0
2, 108948, Note_on_c, 0, 49, 66
2, 109048, Note_on_c, 0, 54, 0
2, 109056, Note_on_c, 0, 58, 0
2, 109058, Note_on_c, 0, 54, 70
2, 109061, Note_on_c, 0, 58, 72
2, 109229, Note_on_c, 0, 71, 74
2, 109251, Note_on_c, 0, 73, 46
2, 109288, Note_on_c, 0, 78, 73
2, 109298, Note_on_c, 0, 42, 0
2, 109299, Note_on_c, 0, 58, 0
2, 109299, Note_on_c, 0, 49, 0
2, 109300, Note_on_c, 0, 71, 0
2, 109300, Control_c, 0, 64, 0
2, 109309, Note_on_c, 0, 73, 0
2, 109317, Note_on_c, 0, 54, 0
2, 109317, Note_on_c, 0, 61, 0
2, 109332, Note_on_c, 0, 66, 0
2, 109335, Note_on_c, 0, 83, 94
2, 109337, Note_on_c, 0, 56, 66
2, 109337, Note_on_c, 0, 63, 71
2, 109339, Note_on_c, 0, 66, 81
2, 109358, Note_on_c, 0, 78, 0
2, 109367, Note_on_c, 0, 66, 0
2, 109367, Note_on_c, 0, 63, 0
2, 109369, Note_on_c, 0, 83, 0
2, 109373, Note_on_c, 0, 56, 0
2, 109448, Note_on_c, 0, 85, 85
2, 109484, Note_on_c, 0, 85, 0
2, 109576, Note_on_c, 0, 87, 75
2, 109612, Note_on_c, 0, 87, 0
2, 109686, Note_on_c, 0, 83, 95
2, 109686, Note_on_c, 0, 71, 79
2, 109689, Note_on_c, 0, 66, 72
2, 109706, Note_on_c, 0, 63, 64
2, 109724, Control_c, 0, 64, 127
2, 109730, Note_on_c, 0, 66, 0
2, 109777, Note_on_c, 0, 63, 0
2, 109823, Note_on_c, 0, 85, 76
2, 109926, Note_on_c, 0, 66, 73
2, 109937, Note_on_c, 0, 63, 59
2, 109941, Note_on_c, 0, 56, 44
2, 109941, Note_on_c, 0, 87, 87
2, 109946, Note_on_c, 0, 56, 0
2, 110010, Note_on_c, 0, 63, 0
2, 110011, Note_on_c, 0, 83, 0
2, 110012, Note_on_c, 0, 66, 0
2, 110012, Note_on_c, 0, 85, 0
2, 110012, Control_c, 0, 64, 0
2, 110012, Note_on_c, 0, 87, 0
2, 110016, Note_on_c, 0, 71, 0
2, 110059, Note_on_c, 0, 83, 85
2, 110062, Note_on_c, 0, 64, 77
2, 110065, Note_on_c, 0, 52, 72
2, 110067, Note_on_c, 0, 59, 61
2, 110087, Note_on_c, 0, 64, 0
2, 110115, Note_on_c, 0, 52, 0
2, 110115, Note_on_c, 0, 59, 0
2, 110115, Note_on_c, 0, 83, 0
2, 110175, Note_on_c, 0, 85, 81
2, 110212, Note_on_c, 0, 85, 0
2, 110298, Note_on_c, 0, 87, 78
2, 110334, Note_on_c, 0, 87, 0
2, 110423, Control_c, 0, 64, 127
2, 110423, Note_on_c, 0, 71, 85
2, 110424, Note_on_c, 0, 83, 91
2, 110426, Note_on_c, 0, 66, 78
2, 110428, Note_on_c, 0, 64, 74
2, 110464, Note_on_c, 0, 64, 0
2, 110465, Note_on_c, 0, 66, 0
2, 110545, Note_on_c, 0, 85, 78
2, 110615, Note_on_c, 0, 71, 0
2, 110664, Note_on_c, 0, 87, 82
2, 110665, Note_on_c, 0, 64, 68
2, 110726, Note_on_c, 0, 85, 0
2, 110727, Note_on_c, 0, 87, 0
2, 110728, Note_on_c, 0, 64, 0
2, 110731, Control_c, 0, 64, 0
2, 110737, Note_on_c, 0, 83, 0
2, 110787, Note_on_c, 0, 83, 95
2, 110789, Note_on_c, 0, 59, 72
2, 110789, Note_on_c, 0, 52, 72
2, 110823, Note_on_c, 0, 59, 0
2, 110826, Note_on_c, 0, 52, 0
2, 110841, Note_on_c, 0, 83, 0
2, 110911, Note_on_c, 0, 85, 79
2, 110941, Note_on_c, 0, 85, 0
2, 111026, Note_on_c, 0, 71, 83
2, 111030, Note_on_c, 0, 87, 92
2, 111031, Note_on_c, 0, 64, 75
2, 111033, Note_on_c, 0, 66, 78
2, 111039, Note_on_c, 0, 88, 74
2, 111057, Note_on_c, 0, 64, 0
2, 111058, Note_on_c, 0, 71, 0
2, 111064, Note_on_c, 0, 66, 0
2, 111083, Note_on_c, 0, 88, 0
2, 111101, Note_on_c, 0, 87, 0
2, 111151, Note_on_c, 0, 83, 87
2, 111253, Note_on_c, 0, 90, 106
2, 111255, Note_on_c, 0, 78, 109
2, 111258, Note_on_c, 0, 59, 98
2, 111264, Note_on_c, 0, 47, 84
2, 111267, Note_on_c, 0, 54, 85
2, 111268, Note_on_c, 0, 51, 80
2, 111306, Control_c, 0, 64, 127
2, 111408, Note_on_c, 0, 61, 82
2, 111436, Note_on_c, 0, 83, 0
2, 111518, Note_on_c, 0, 63, 77
2, 111578, Control_c, 0, 64, 0
2, 111579, Note_on_c, 0, 47, 0
2, 111579, Note_on_c, 0, 78, 0
2, 111579, Note_on_c, 0, 63, 0
2, 111579, Note_on_c, 0, 61, 0
2, 111579, Note_on_c, 0, 54, 0
2, 111579, Note_on_c, 0, 59, 0
2, 111590, Note_on_c, 0, 51, 0
2, 111590, Note_on_c, 0, 90, 0
2, 111639, Note_on_c, 0, 54, 87
2, 111640, Note_on_c, 0, 59, 91
2, 111641, Note_on_c, 0, 51, 79
2, 111643, Note_on_c, 0, 47, 75
2, 111672, Note_on_c, 0, 59, 0
2, 111720, Note_on_c, 0, 51, 0
2, 111720, Control_c, 0, 64, 127
2, 111772, Note_on_c, 0, 61, 82
2, 111878, Note_on_c, 0, 63, 82
2, 111912, Note_on_c, 0, 47, 0
2, 111915, Control_c, 0, 64, 0
2, 111922, Note_on_c, 0, 61, 0
2, 111923, Note_on_c, 0, 63, 0
2, 111936, Note_on_c, 0, 54, 0
2, 112010, Note_on_c, 0, 59, 91
2, 112014, Note_on_c, 0, 49, 83
2, 112016, Note_on_c, 0, 42, 79
2, 112089, Control_c, 0, 64, 127
2, 112140, Note_on_c, 0, 61, 78
2, 112254, Note_on_c, 0, 63, 78
2, 112284, Control_c, 0, 64, 0
2, 112287, Note_on_c, 0, 42, 0
2, 112292, Note_on_c, 0, 61, 0
2, 112296, Note_on_c, 0, 49, 0
2, 112296, Note_on_c, 0, 59, 0
2, 112297, Note_on_c, 0, 63, 0
2, 112359, Note_on_c, 0, 49, 74
2, 112359, Note_on_c, 0, 59, 85
2, 112361, Note_on_c, 0, 68, 76
2, 112362, Note_on_c, 0, 42, 72
2, 112366, Note_on_c, 0, 68, 0
2, 112427, Control_c, 0, 64, 127
2, 112470, Note_on_c, 0, 71, 87
2, 112590, Note_on_c, 0, 70, 76
2, 112724, Note_on_c, 0, 66, 85
2, 112738, Note_on_c, 0, 54, 74
2, 112885, Note_on_c, 0, 58, 60
2, 112980, Note_on_c, 0, 71, 0
2, 112989, Note_on_c, 0, 71, 76
2, 113004, Note_on_c, 0, 61, 61
2, 113109, Note_on_c, 0, 83, 84
2, 113111, Note_on_c, 0, 66, 0
2, 113115, Note_on_c, 0, 66, 68
2, 113241, Note_on_c, 0, 42, 0
2, 113242, Note_on_c, 0, 61, 0
2, 113242, Note_on_c, 0, 82, 81
2, 113243, Note_on_c, 0, 51, 66
2, 113243, Note_on_c, 0, 49, 0
2, 113244, Note_on_c, 0, 54, 0
2, 113244, Note_on_c, 0, 83, 0
2, 113244, Note_on_c, 0, 58, 0
2, 113244, Control_c, 0, 64, 0
2, 113244, Note_on_c, 0, 66, 0
2, 113245, Note_on_c, 0, 70, 0
2, 113245, Note_on_c, 0, 59, 0
2, 113262, Note_on_c, 0, 78, 66
2, 113264, Note_on_c, 0, 71, 0
2, 113391, Note_on_c, 0, 59, 53
2, 113402, Control_c, 0, 64, 127
2, 113502, Note_on_c, 0, 80, 81
2, 113504, Note_on_c, 0, 66, 63
2, 113602, Note_on_c, 0, 59, 0
2, 113614, Note_on_c, 0, 59, 64
2, 113740, Note_on_c, 0, 82, 0
2, 113750, Note_on_c, 0, 71, 75
2, 113751, Note_on_c, 0, 82, 75
2, 113994, Note_on_c, 0, 80, 0
2, 114005, Note_on_c, 0, 80, 78
2, 114117, Note_on_c, 0, 82, 0
2, 114127, Note_on_c, 0, 82, 80
2, 114132, Note_on_c, 0, 78, 0
2, 114143, Note_on_c, 0, 78, 63
2, 114145, Note_on_c, 0, 76, 60
2, 114221, Control_c, 0, 64, 0
2, 114222, Note_on_c, 0, 71, 0
2, 114222, Note_on_c, 0, 66, 0
2, 114222, Note_on_c, 0, 59, 0
2, 114223, Note_on_c, 0, 51, 0
2, 114255, Note_on_c, 0, 80, 0
2, 114260, Note_on_c, 0, 52, 68
2, 114362, Control_c, 0, 64, 127
2, 114380, Note_on_c, 0, 59, 68
2, 114395, Note_on_c, 0, 83, 84
2, 114530, Note_on_c, 0, 66, 59
2, 114639, Note_on_c, 0, 59, 0
2, 114639, Note_on_c, 0, 82, 0
2, 114648, Note_on_c, 0, 59, 65
2, 114649, Note_on_c, 0, 82, 84
2, 114670, Note_on_c, 0, 76, 0
2, 114680, Note_on_c, 0, 76, 34
2, 114779, Note_on_c, 0, 71, 66
2, 114895, Note_on_c, 0, 80, 82
2, 115008, Note_on_c, 0, 78, 0
2, 115015, Note_on_c, 0, 78, 78
2, 115182, Note_on_c, 0, 73, 57
2, 115238, Note_on_c, 0, 78, 0
2, 115238, Note_on_c, 0, 82, 0
2, 115241, Note_on_c, 0, 52, 0
2, 115241, Note_on_c, 0, 59, 0
2, 115242, Note_on_c, 0, 80, 0
2, 115242, Note_on_c, 0, 83, 0
2, 115242, Note_on_c, 0, 66, 0
2, 115242, Note_on_c, 0, 71, 0
2, 115242, Note_on_c, 0, 76, 0
2, 115245, Control_c, 0, 64, 0
2, 115245, Note_on_c, 0, 73, 0
2, 115248, Note_on_c, 0, 82, 76
2, 115248, Note_on_c, 0, 78, 67
2, 115248, Note_on_c, 0, 85, 87
2, 115254, Note_on_c, 0, 54, 68
2, 115361, Control_c, 0, 64, 127
2, 115395, Note_on_c, 0, 61, 54
2, 115500, Note_on_c, 0, 66, 62
2, 115622, Note_on_c, 0, 61, 0
2, 115622, Note_on_c, 0, 82, 0
2, 115626, Note_on_c, 0, 82, 83
2, 115627, Note_on_c, 0, 61, 62
2, 115694, Note_on_c, 0, 83, 72
2, 115716, Note_on_c, 0, 66, 0
2, 115716, Note_on_c, 0, 82, 0
2, 115716, Note_on_c, 0, 78, 0
2, 115717, Note_on_c, 0, 61, 0
2, 115717, Note_on_c, 0, 54, 0
2, 115720, Control_c, 0, 64, 0
2, 115752, Note_on_c, 0, 85, 0
2, 115756, Note_on_c, 0, 85, 93
2, 115760, Note_on_c, 0, 55, 75
2, 115766, Note_on_c, 0, 79, 76
2, 115806, Control_c, 0, 64, 127
2, 115883, Note_on_c, 0, 79, 0
2, 115892, Note_on_c, 0, 63, 69
2, 115944, Note_on_c, 0, 90, 95
2, 116034, Note_on_c, 0, 67, 67
2, 116115, Note_on_c, 0, 88, 90
2, 116129, Note_on_c, 0, 63, 0
2, 116140, Note_on_c, 0, 63, 61
2, 116257, Note_on_c, 0, 90, 0
2, 116258, Note_on_c, 0, 63, 0
2, 116259, Note_on_c, 0, 83, 0
2, 116259, Note_on_c, 0, 85, 0
2, 116259, Control_c, 0, 64, 0
2, 116260, Note_on_c, 0, 88, 0
2, 116260, Note_on_c, 0, 55, 0
2, 116261, Note_on_c, 0, 67, 0
2, 116265, Note_on_c, 0, 87, 88
2, 116271, Note_on_c, 0, 83, 74
2, 116272, Note_on_c, 0, 56, 62
2, 116277, Note_on_c, 0, 80, 75
2, 116403, Note_on_c, 0, 63, 57
2, 116413, Control_c, 0, 64, 127
2, 116520, Note_on_c, 0, 68, 63
2, 116662, Note_on_c, 0, 70, 61
2, 116779, Note_on_c, 0, 71, 64
2, 117009, Note_on_c, 0, 70, 0
2, 117010, Note_on_c, 0, 87, 0
2, 117014, Note_on_c, 0, 56, 0
2, 117016, Note_on_c, 0, 63, 0
2, 117043, Note_on_c, 0, 61, 67
2, 117112, Note_on_c, 0, 68, 0
2, 117119, Note_on_c, 0, 68, 71
2, 117173, Note_on_c, 0, 71, 0
2, 117173, Note_on_c, 0, 80, 0
2, 117185, Note_on_c, 0, 71, 74
2, 117242, Note_on_c, 0, 83, 0
2, 117278, Note_on_c, 0, 70, 80
2, 117299, Note_on_c, 0, 59, 64
2, 117303, Note_on_c, 0, 53, 56
2, 117308, Note_on_c, 0, 56, 51
2, 117315, Note_on_c, 0, 71, 0
2, 117316, Note_on_c, 0, 61, 0
2, 117316, Note_on_c, 0, 68, 0
2, 117318, Control_c, 0, 64, 0
2, 117321, Note_on_c, 0, 70, 0
2, 117559, Note_on_c, 0, 68, 80
2, 117719, Control_c, 0, 64, 127
2, 117805, Note_on_c, 0, 70, 81
2, 118080, Note_on_c, 0, 68, 0
2, 118084, Note_on_c, 0, 68, 85
2, 118195, Note_on_c, 0, 70, 0
2, 118203, Note_on_c, 0, 70, 88
2, 118305, Note_on_c, 0, 70, 0
2, 118305, Note_on_c, 0, 68, 0
2, 118305, Note_on_c, 0, 53, 0
2, 118306, Control_c, 0, 64, 0
2, 118325, Note_on_c, 0, 56, 0
2, 118325, Note_on_c, 0, 59, 0
2, 118333, Note_on_c, 0, 56, 58
2, 118334, Note_on_c, 0, 59, 70
2, 118337, Note_on_c, 0, 52, 66
2, 118448, Control_c, 0, 64, 127
2, 118464, Note_on_c, 0, 71, 88
2, 118724, Note_on_c, 0, 70, 91
2, 118832, Note_on_c, 0, 59, 0
2, 118843, Note_on_c, 0, 59, 73
2, 118878, Note_on_c, 0, 56, 0
2, 118886, Note_on_c, 0, 56, 79
2, 118955, Note_on_c, 0, 52, 0
2, 118959, Note_on_c, 0, 68, 88
2, 118966, Note_on_c, 0, 52, 75
2, 119046, Note_on_c, 0, 47, 80
2, 119096, Note_on_c, 0, 66, 94
2, 119098, Note_on_c, 0, 40, 86
2, 119103, Note_on_c, 0, 28, 85
2, 119109, Note_on_c, 0, 28, 0
2, 119235, Note_on_c, 0, 63, 77
2, 119260, Control_c, 0, 64, 0
2, 119261, Note_on_c, 0, 56, 0
2, 119263, Note_on_c, 0, 70, 0
2, 119264, Note_on_c, 0, 71, 0
2, 119265, Note_on_c, 0, 52, 0
2, 119265, Note_on_c, 0, 68, 0
2, 119265, Note_on_c, 0, 40, 0
2, 119269, Note_on_c, 0, 63, 0
2, 119278, Note_on_c, 0, 47, 0
2, 119278, Note_on_c, 0, 59, 0
2, 119278, Note_on_c, 0, 66, 0
2, 119284, Note_on_c, 0, 66, 68
2, 119331, Note_on_c, 0, 66, 0
2, 119342, Note_on_c, 0, 71, 95
2, 119342, Note_on_c, 0, 66, 94
2, 119343, Note_on_c, 0, 75, 107
2, 119351, Note_on_c, 0, 30, 88
2, 119353, Note_on_c, 0, 42, 91
2, 119439, Control_c, 0, 64, 127
2, 119618, Note_on_c, 0, 47, 75
2, 119746, Note_on_c, 0, 42, 0
2, 119752, Note_on_c, 0, 42, 71
2, 119866, Note_on_c, 0, 49, 86
2, 119992, Note_on_c, 0, 42, 0
2, 119997, Note_on_c, 0, 42, 68
2, 120112, Note_on_c, 0, 51, 85
2, 120116, Note_on_c, 0, 73, 97
2, 120238, Note_on_c, 0, 73, 0
2, 120240, Note_on_c, 0, 49, 0
2, 120241, Note_on_c, 0, 51, 0
2, 120243, Note_on_c, 0, 75, 0
2, 120243, Note_on_c, 0, 47, 0
2, 120245, Note_on_c, 0, 71, 0
2, 120245, Note_on_c, 0, 30, 0
2, 120246, Control_c, 0, 64, 0
2, 120247, Note_on_c, 0, 73, 105
2, 120253, Note_on_c, 0, 66, 0
2, 120254, Note_on_c, 0, 61, 84
2, 120255, Note_on_c, 0, 52, 94
2, 120257, Note_on_c, 0, 70, 82
2, 120259, Note_on_c, 0, 64, 95
2, 120264, Note_on_c, 0, 66, 83
2, 120430, Control_c, 0, 64, 127
2, 120514, Note_on_c, 0, 42, 0
2, 120519, Note_on_c, 0, 42, 82
2, 120630, Note_on_c, 0, 51, 91
2, 120752, Note_on_c, 0, 42, 0
2, 120763, Note_on_c, 0, 42, 87
2, 120875, Note_on_c, 0, 52, 0
2, 120879, Note_on_c, 0, 52, 92
2, 120998, Note_on_c, 0, 42, 0
2, 121009, Note_on_c, 0, 42, 87
2, 121121, Note_on_c, 0, 42, 0
2, 121127, Note_on_c, 0, 54, 101
2, 121131, Note_on_c, 0, 42, 82
2, 121136, Note_on_c, 0, 66, 0
2, 121136, Note_on_c, 0, 71, 101
2, 121142, Note_on_c, 0, 66, 85
2, 121223, Note_on_c, 0, 73, 0
2, 121224, Note_on_c, 0, 52, 0
2, 121224, Note_on_c, 0, 42, 0
2, 121225, Note_on_c, 0, 51, 0
2, 121225, Note_on_c, 0, 54, 0
2, 121233, Control_c, 0, 64, 0
2, 121244, Note_on_c, 0, 61, 0
2, 121259, Note_on_c, 0, 64, 0
2, 121259, Note_on_c, 0, 66, 0
2, 121259, Note_on_c, 0, 71, 0
2, 121263, Note_on_c, 0, 71, 100
2, 121264, Note_on_c, 0, 56, 96
2, 121269, Note_on_c, 0, 64, 93
2, 121270, Note_on_c, 0, 66, 97
2, 121270, Note_on_c, 0, 68, 96
2, 121405, Control_c, 0, 64, 127
2, 121527, Note_on_c, 0, 42, 92
2, 121652, Note_on_c, 0, 54, 93
2, 121758, Note_on_c, 0, 42, 0
2, 121762, Note_on_c, 0, 42, 85
2, 121881, Note_on_c, 0, 56, 0
2, 121885, Note_on_c, 0, 56, 105
2, 122004, Note_on_c, 0, 70, 0
2, 122015, Note_on_c, 0, 70, 83
2, 122015, Note_on_c, 0, 58, 95
2, 122119, Note_on_c, 0, 68, 0
2, 122119, Note_on_c, 0, 71, 0
2, 122128, Note_on_c, 0, 59, 92
2, 122130, Note_on_c, 0, 71, 77
2, 122130, Note_on_c, 0, 68, 74
2, 122232, Note_on_c, 0, 42, 0
2, 122233, Note_on_c, 0, 68, 0
2, 122233, Note_on_c, 0, 70, 0
2, 122233, Note_on_c, 0, 71, 0
2, 122233, Note_on_c, 0, 56, 0
2, 122234, Note_on_c, 0, 59, 0
2, 122235, Control_c, 0, 64, 0
2, 122250, Note_on_c, 0, 58, 0
2, 122256, Note_on_c, 0, 73, 112
2, 122257, Note_on_c, 0, 54, 0
2, 122257, Note_on_c, 0, 64, 0
2, 122257, Note_on_c, 0, 66, 0
2, 122259, Note_on_c, 0, 58, 94
2, 122259, Note_on_c, 0, 61, 99
2, 122261, Note_on_c, 0, 54, 93
2, 122262, Note_on_c, 0, 66, 97
2, 122262, Note_on_c, 0, 64, 99
2, 122263, Note_on_c, 0, 70, 94
2, 122350, Control_c, 0, 64, 127
2, 122373, Note_on_c, 0, 54, 0
2, 122380, Note_on_c, 0, 61, 0
2, 122503, Note_on_c, 0, 73, 0
2, 122510, Note_on_c, 0, 73, 100
2, 122511, Note_on_c, 0, 64, 0
2, 122516, Note_on_c, 0, 64, 64
2, 122633, Note_on_c, 0, 85, 108
2, 122637, Note_on_c, 0, 78, 102
2, 122638, Note_on_c, 0, 82, 103
2, 122752, Note_on_c, 0, 42, 103
2, 122882, Note_on_c, 0, 30, 99
2, 122889, Note_on_c, 0, 82, 0
2, 123020, Note_on_c, 0, 71, 100
2, 123031, Control_c, 0, 64, 0
2, 123031, Note_on_c, 0, 30, 0
2, 123032, Note_on_c, 0, 58, 0
2, 123032, Note_on_c, 0, 85, 0
2, 123032, Note_on_c, 0, 66, 0
2, 123033, Note_on_c, 0, 64, 0
2, 123033, Note_on_c, 0, 78, 0
2, 123034, Note_on_c, 0, 73, 0
2, 123035, Note_on_c, 0, 42, 0
2, 123037, Note_on_c, 0, 70, 0
2, 123052, Note_on_c, 0, 71, 0
2, 123141, Note_on_c, 0, 71, 98
2, 123175, Note_on_c, 0, 71, 0
2, 123257, Note_on_c, 0, 71, 97
2, 123295, Note_on_c, 0, 71, 0
2, 123366, Note_on_c, 0, 78, 110
2, 123367, Note_on_c, 0, 32, 100
2, 123367, Note_on_c, 0, 44, 103
2, 123370, Note_on_c, 0, 66, 108
2, 123371, Note_on_c, 0, 71, 96
2, 123372, Note_on_c, 0, 75, 95
2, 123374, Note_on_c, 0, 72, 91
2, 123409, Control_c, 0, 64, 127
2, 123486, Note_on_c, 0, 32, 0
2, 123486, Note_on_c, 0, 44, 0
2, 123492, Note_on_c, 0, 32, 88
2, 123492, Note_on_c, 0, 44, 91
2, 123517, Note_on_c, 0, 66, 0
2, 123521, Note_on_c, 0, 78, 0
2, 123521, Note_on_c, 0, 71, 0
2, 123521, Note_on_c, 0, 44, 0
2, 123525, Note_on_c, 0, 75, 0
2, 123531, Control_c, 0, 64, 0
2, 123532, Note_on_c, 0, 72, 0
2, 123555, Note_on_c, 0, 32, 0
2, 123627, Note_on_c, 0, 78, 105
2, 123690, Note_on_c, 0, 78, 0
2, 123880, Note_on_c, 0, 78, 110
2, 123883, Note_on_c, 0, 59, 91
2, 123883, Note_on_c, 0, 66, 105
2, 123884, Note_on_c, 0, 71, 92
2, 123885, Note_on_c, 0, 54, 100
2, 123888, Note_on_c, 0, 63, 90
2, 123890, Note_on_c, 0, 51, 90
2, 123916, Note_on_c, 0, 59, 0
2, 123919, Note_on_c, 0, 54, 0
2, 123924, Note_on_c, 0, 51, 0
2, 123939, Note_on_c, 0, 63, 0
2, 124017, Note_on_c, 0, 75, 95
2, 124119, Note_on_c, 0, 32, 84
2, 124120, Note_on_c, 0, 29, 76
2, 124131, Note_on_c, 0, 29, 0
2, 124181, Note_on_c, 0, 32, 0
2, 124183, Note_on_c, 0, 71, 0
2, 124183, Note_on_c, 0, 75, 0
2, 124185, Note_on_c, 0, 78, 0
2, 124187, Note_on_c, 0, 66, 0
2, 124251, Note_on_c, 0, 73, 110
2, 124258, Note_on_c, 0, 35, 90
2, 124258, Note_on_c, 0, 28, 99
2, 124259, Note_on_c, 0, 64, 98
2, 124260, Note_on_c, 0, 66, 97
2, 124262, Note_on_c, 0, 40, 90
2, 124262, Note_on_c, 0, 62, 81
2, 124262, Note_on_c, 0, 35, 0
2, 124266, Note_on_c, 0, 68, 77
2, 124331, Control_c, 0, 64, 127
2, 124500, Note_on_c, 0, 28, 0
2, 124500, Note_on_c, 0, 40, 0
2, 124500, Note_on_c, 0, 66, 0
2, 124500, Note_on_c, 0, 73, 0
2, 124505, Note_on_c, 0, 73, 97
2, 124511, Note_on_c, 0, 28, 86
2, 124511, Note_on_c, 0, 40, 77
2, 124511, Note_on_c, 0, 66, 88
2, 124615, Note_on_c, 0, 73, 0
2, 124620, Note_on_c, 0, 73, 85
2, 124623, Note_on_c, 0, 64, 0
2, 124634, Note_on_c, 0, 64, 85
2, 124638, Note_on_c, 0, 40, 0
2, 124647, Note_on_c, 0, 40, 73
2, 124649, Note_on_c, 0, 47, 75
2, 124655, Note_on_c, 0, 35, 65
2, 124738, Note_on_c, 0, 40, 0
2, 124742, Note_on_c, 0, 40, 74
2, 124746, Note_on_c, 0, 64, 0
2, 124750, Note_on_c, 0, 71, 99
2, 124753, Note_on_c, 0, 64, 74
2, 124850, Note_on_c, 0, 59, 94
2, 124853, Note_on_c, 0, 35, 0
2, 124853, Note_on_c, 0, 71, 0
2, 124858, Note_on_c, 0, 54, 90
2, 124859, Note_on_c, 0, 71, 78
2, 124976, Note_on_c, 0, 40, 0
2, 124976, Note_on_c, 0, 71, 0
2, 124986, Note_on_c, 0, 40, 84
2, 124987, Note_on_c, 0, 71, 98
2, 124987, Note_on_c, 0, 52, 100
2, 125107, Note_on_c, 0, 28, 0
2, 125107, Note_on_c, 0, 40, 0
2, 125113, Note_on_c, 0, 28, 76
2, 125114, Note_on_c, 0, 71, 0
2, 125114, Note_on_c, 0, 40, 76
2, 125118, Note_on_c, 0, 71, 87
2, 125237, Note_on_c, 0, 71, 0
2, 125242, Note_on_c, 0, 71, 99
2, 125280, Control_c, 0, 64, 0
2, 125281, Note_on_c, 0, 64, 0
2, 125281, Note_on_c, 0, 40, 0
2, 125281, Note_on_c, 0, 71, 0
2, 125281, Note_on_c, 0, 54, 0
2, 125282, Note_on_c, 0, 59, 0
2, 125282, Note_on_c, 0, 73, 0
2, 125283, Note_on_c, 0, 47, 0
2, 125291, Note_on_c, 0, 28, 0
2, 125299, Note_on_c, 0, 52, 0
2, 125299, Note_on_c, 0, 62, 0
2, 125299, Note_on_c, 0, 66, 0
2, 125299, Note_on_c, 0, 68, 0
2, 125357, Note_on_c, 0, 78, 112
2, 125363, Note_on_c, 0, 47, 100
2, 125363, Note_on_c, 0, 71, 97
2, 125364, Note_on_c, 0, 66, 108
2, 125366, Note_on_c, 0, 75, 92
2, 125369, Note_on_c, 0, 35, 88
2, 125376, Control_c, 0, 64, 127
2, 125483, Note_on_c, 0, 35, 0
2, 125489, Note_on_c, 0, 41, 73
2, 125491, Note_on_c, 0, 35, 83
2, 125498, Note_on_c, 0, 41, 0
2, 125526, Note_on_c, 0, 35, 0
2, 125526, Control_c, 0, 64, 0
2, 125530, Note_on_c, 0, 47, 0
2, 125530, Note_on_c, 0, 78, 0
2, 125530, Note_on_c, 0, 66, 0
2, 125531, Note_on_c, 0, 71, 0
2, 125531, Note_on_c, 0, 75, 0
2, 125608, Note_on_c, 0, 78, 105
2, 125675, Note_on_c, 0, 78, 0
2, 125862, Note_on_c, 0, 78, 107
2, 125863, Note_on_c, 0, 59, 96
2, 125865, Note_on_c, 0, 54, 90
2, 125866, Note_on_c, 0, 66, 102
2, 125868, Note_on_c, 0, 51, 88
2, 125869, Note_on_c, 0, 71, 95
2, 125906, Note_on_c, 0, 59, 0
2, 125916, Note_on_c, 0, 51, 0
2, 125944, Note_on_c, 0, 54, 0
2, 125990, Control_c, 0, 64, 127
2, 125997, Note_on_c, 0, 75, 92
2, 126103, Note_on_c, 0, 47, 82
2, 126107, Note_on_c, 0, 35, 78
2, 126144, Control_c, 0, 64, 0
2, 126145, Note_on_c, 0, 78, 0
2, 126147, Note_on_c, 0, 75, 0
2, 126148, Note_on_c, 0, 66, 0
2, 126149, Note_on_c, 0, 47, 0
2, 126157, Note_on_c, 0, 35, 0
2, 126167, Note_on_c, 0, 71, 0
2, 126234, Note_on_c, 0, 73, 105
2, 126240, Note_on_c, 0, 61, 94
2, 126241, Note_on_c, 0, 70, 92
2, 126242, Note_on_c, 0, 66, 94
2, 126243, Note_on_c, 0, 42, 95
2, 126243, Note_on_c, 0, 30, 92
2, 126279, Note_on_c, 0, 42, 0
2, 126351, Control_c, 0, 64, 127
2, 126487, Note_on_c, 0, 42, 74
2, 126607, Note_on_c, 0, 49, 71
2, 126712, Note_on_c, 0, 49, 0
2, 126712, Note_on_c, 0, 70, 0
2, 126715, Note_on_c, 0, 58, 83
2, 126715, Note_on_c, 0, 54, 83
2, 126716, Note_on_c, 0, 70, 77
2, 126716, Note_on_c, 0, 49, 61
2, 126845, Note_on_c, 0, 71, 100
2, 126958, Note_on_c, 0, 73, 0
2, 126964, Note_on_c, 0, 73, 93
2, 127080, Note_on_c, 0, 42, 0
2, 127087, Note_on_c, 0, 75, 98
2, 127088, Note_on_c, 0, 30, 0
2, 127092, Note_on_c, 0, 42, 84
2, 127092, Note_on_c, 0, 30, 76
2, 127196, Note_on_c, 0, 73, 0
2, 127207, Note_on_c, 0, 73, 102
2, 127219, Note_on_c, 0, 66, 0
2, 127224, Note_on_c, 0, 66, 90
2, 127254, Note_on_c, 0, 54, 0
2, 127254, Note_on_c, 0, 30, 0
2, 127255, Note_on_c, 0, 49, 0
2, 127255, Note_on_c, 0, 71, 0
2, 127255, Note_on_c, 0, 58, 0
2, 127256, Note_on_c, 0, 75, 0
2, 127256, Note_on_c, 0, 70, 0
2, 127257, Note_on_c, 0, 61, 0
2, 127258, Control_c, 0, 64, 0
2, 127272, Note_on_c, 0, 42, 0
2, 127331, Note_on_c, 0, 32, 84
2, 127332, Note_on_c, 0, 44, 82
2, 127464, Note_on_c, 0, 71, 85
2, 127503, Control_c, 0, 64, 127
2, 127587, Note_on_c, 0, 71, 0
2, 127591, Note_on_c, 0, 71, 95
2, 127672, Note_on_c, 0, 32, 0
2, 127714, Note_on_c, 0, 59, 90
2, 127720, Note_on_c, 0, 54, 81
2, 127726, Note_on_c, 0, 44, 0
2, 127729, Note_on_c, 0, 51, 70
2, 127732, Note_on_c, 0, 44, 59
2, 127833, Note_on_c, 0, 71, 0
2, 127839, Note_on_c, 0, 71, 88
2, 127956, Note_on_c, 0, 44, 0
2, 127956, Note_on_c, 0, 73, 0
2, 127960, Note_on_c, 0, 44, 84
2, 127961, Note_on_c, 0, 32, 77
2, 127961, Note_on_c, 0, 73, 91
2, 128078, Note_on_c, 0, 75, 97
2, 128079, Note_on_c, 0, 54, 0
2, 128086, Note_on_c, 0, 47, 70
2, 128087, Note_on_c, 0, 51, 0
2, 128087, Note_on_c, 0, 59, 0
2, 128088, Note_on_c, 0, 54, 80
2, 128091, Note_on_c, 0, 71, 0
2, 128091, Note_on_c, 0, 59, 77
2, 128091, Note_on_c, 0, 51, 78
2, 128094, Note_on_c, 0, 47, 0
2, 128186, Note_on_c, 0, 73, 0
2, 128194, Note_on_c, 0, 66, 0
2, 128197, Note_on_c, 0, 73, 100
2, 128204, Note_on_c, 0, 66, 88
2, 128232, Note_on_c, 0, 32, 0
2, 128246, Control_c, 0, 64, 0
2, 128250, Note_on_c, 0, 54, 0
2, 128250, Note_on_c, 0, 51, 0
2, 128250, Note_on_c, 0, 44, 0
2, 128251, Note_on_c, 0, 59, 0
2, 128252, Note_on_c, 0, 75, 0
2, 128322, Note_on_c, 0, 40, 81
2, 128323, Note_on_c, 0, 28, 88
2, 128394, Control_c, 0, 64, 127
2, 128459, Note_on_c, 0, 71, 89
2, 128586, Note_on_c, 0, 71, 0
2, 128593, Note_on_c, 0, 71, 102
2, 128704, Note_on_c, 0, 59, 85
2, 128705, Note_on_c, 0, 54, 85
2, 128708, Note_on_c, 0, 47, 61
2, 128832, Note_on_c, 0, 71, 0
2, 128837, Note_on_c, 0, 71, 98
2, 128928, Note_on_c, 0, 52, 82
2, 128954, Note_on_c, 0, 73, 0
2, 128960, Note_on_c, 0, 73, 93
2, 129070, Note_on_c, 0, 54, 0
2, 129070, Note_on_c, 0, 59, 0
2, 129074, Note_on_c, 0, 54, 94
2, 129077, Note_on_c, 0, 71, 0
2, 129078, Note_on_c, 0, 75, 98
2, 129080, Note_on_c, 0, 59, 85
2, 129088, Note_on_c, 0, 71, 76
2, 129093, Note_on_c, 0, 47, 0
2, 129099, Note_on_c, 0, 47, 52
2, 129239, Note_on_c, 0, 66, 0
2, 129249, Note_on_c, 0, 66, 85
2, 129285, Note_on_c, 0, 54, 0
2, 129286, Note_on_c, 0, 40, 0
2, 129287, Note_on_c, 0, 66, 0
2, 129287, Note_on_c, 0, 47, 0
2, 129287, Note_on_c, 0, 52, 0
2, 129287, Note_on_c, 0, 59, 0
2, 129287, Note_on_c, 0, 73, 0
2, 129288, Note_on_c, 0, 75, 0
2, 129288, Control_c, 0, 64, 0
2, 129300, Note_on_c, 0, 28, 0
2, 129308, Note_on_c, 0, 71, 0
2, 129313, Note_on_c, 0, 71, 85
2, 129318, Note_on_c, 0, 73, 92
2, 129320, Note_on_c, 0, 78, 106
2, 129323, Note_on_c, 0, 30, 88
2, 129325, Note_on_c, 0, 72, 79
2, 129328, Note_on_c, 0, 42, 88
2, 129331, Note_on_c, 0, 72, 0
2, 129361, Note_on_c, 0, 42, 0
2, 129400, Control_c, 0, 64, 127
2, 129466, Note_on_c, 0, 54, 79
2, 129470, Note_on_c, 0, 42, 68
2, 129570, Control_c, 0, 64, 0
2, 129575, Note_on_c, 0, 49, 78
2, 129576, Note_on_c, 0, 37, 66
2, 129584, Note_on_c, 0, 37, 0
2, 129587, Note_on_c, 0, 75, 91
2, 129588, Note_on_c, 0, 54, 0
2, 129590, Note_on_c, 0, 71, 0
2, 129593, Note_on_c, 0, 78, 0
2, 129607, Note_on_c, 0, 42, 0
2, 129607, Note_on_c, 0, 73, 0
2, 129608, Note_on_c, 0, 49, 0
2, 129615, Note_on_c, 0, 30, 0
2, 129625, Note_on_c, 0, 75, 0
2, 129717, Note_on_c, 0, 78, 104
2, 129718, Note_on_c, 0, 30, 88
2, 129718, Note_on_c, 0, 71, 87
2, 129718, Note_on_c, 0, 73, 93
2, 129719, Note_on_c, 0, 42, 89
2, 129784, Control_c, 0, 64, 127
2, 129955, Note_on_c, 0, 54, 85
2, 129955, Note_on_c, 0, 75, 99
2, 130013, Note_on_c, 0, 73, 0
2, 130014, Note_on_c, 0, 71, 0
2, 130017, Note_on_c, 0, 78, 0
2, 130017, Note_on_c, 0, 30, 0
2, 130017, Note_on_c, 0, 42, 0
2, 130018, Note_on_c, 0, 54, 0
2, 130018, Note_on_c, 0, 75, 0
2, 130018, Control_c, 0, 64, 0
2, 130083, Note_on_c, 0, 49, 78
2, 130121, Note_on_c, 0, 49, 0
2, 130210, Note_on_c, 0, 73, 101
2, 130218, Note_on_c, 0, 70, 84
2, 130218, Note_on_c, 0, 30, 87
2, 130219, Note_on_c, 0, 66, 86
2, 130220, Note_on_c, 0, 42, 87
2, 130251, Note_on_c, 0, 42, 0
2, 130444, Control_c, 0, 64, 127
2, 130460, Note_on_c, 0, 30, 0
2, 130474, Note_on_c, 0, 59, 73
2, 130474, Note_on_c, 0, 47, 81
2, 130595, Note_on_c, 0, 46, 82
2, 130698, Note_on_c, 0, 59, 0
2, 130705, Note_on_c, 0, 47, 0
2, 130708, Note_on_c, 0, 59, 84
2, 130713, Note_on_c, 0, 47, 88
2, 130781, Note_on_c, 0, 46, 0
2, 130781, Note_on_c, 0, 70, 0
2, 130782, Note_on_c, 0, 47, 0
2, 130782, Note_on_c, 0, 59, 0
2, 130787, Control_c, 0, 64, 0
2, 130813, Note_on_c, 0, 66, 0
2, 130813, Note_on_c, 0, 73, 0
2, 130830, Note_on_c, 0, 42, 94
2, 130830, Note_on_c, 0, 54, 95
2, 130928, Control_c, 0, 64, 127
2, 130956, Note_on_c, 0, 83, 101
2, 130958, Note_on_c, 0, 71, 90
2, 131059, Note_on_c, 0, 83, 0
2, 131066, Note_on_c, 0, 71, 0
2, 131067, Note_on_c, 0, 30, 85
2, 131068, Note_on_c, 0, 83, 103
2, 131074, Note_on_c, 0, 71, 90
2, 131158, Note_on_c, 0, 30, 0
2, 131159, Note_on_c, 0, 71, 0
2, 131159, Note_on_c, 0, 42, 0
2, 131170, Control_c, 0, 64, 0
2, 131174, Note_on_c, 0, 54, 0
2, 131174, Note_on_c, 0, 83, 0
2, 131183, Note_on_c, 0, 83, 103
2, 131317, Note_on_c, 0, 84, 87
2, 131317, Note_on_c, 0, 90, 110
2, 131318, Note_on_c, 0, 78, 111
2, 131322, Note_on_c, 0, 87, 91
2, 131323, Note_on_c, 0, 32, 93
2, 131324, Note_on_c, 0, 44, 96
2, 131366, Control_c, 0, 64, 127
2, 131573, Note_on_c, 0, 59, 94
2, 131573, Note_on_c, 0, 78, 0
2, 131573, Note_on_c, 0, 90, 0
2, 131578, Note_on_c, 0, 54, 85
2, 131579, Note_on_c, 0, 51, 84
2, 131580, Note_on_c, 0, 90, 100
2, 131581, Note_on_c, 0, 83, 0
2, 131581, Note_on_c, 0, 87, 0
2, 131585, Note_on_c, 0, 78, 105
2, 131586, Note_on_c, 0, 87, 94
2, 131587, Note_on_c, 0, 83, 95
2, 131596, Control_c, 0, 64, 0
2, 131681, Control_c, 0, 64, 127
2, 131704, Note_on_c, 0, 44, 0
2, 131709, Note_on_c, 0, 44, 77
2, 131811, Note_on_c, 0, 78, 0
2, 131811, Note_on_c, 0, 90, 0
2, 131818, Note_on_c, 0, 90, 96
2, 131819, Note_on_c, 0, 87, 0
2, 131819, Note_on_c, 0, 78, 100
2, 131826, Note_on_c, 0, 87, 74
2, 131942, Note_on_c, 0, 32, 0
2, 131942, Note_on_c, 0, 87, 0
2, 131946, Note_on_c, 0, 87, 103
2, 131952, Note_on_c, 0, 32, 73
2, 131954, Note_on_c, 0, 75, 93
2, 132042, Note_on_c, 0, 54, 0
2, 132049, Note_on_c, 0, 51, 0
2, 132052, Note_on_c, 0, 54, 84
2, 132056, Note_on_c, 0, 51, 81
2, 132063, Note_on_c, 0, 59, 0
2, 132170, Control_c, 0, 64, 0
2, 132172, Note_on_c, 0, 78, 0
2, 132172, Note_on_c, 0, 32, 0
2, 132172, Note_on_c, 0, 83, 0
2, 132172, Note_on_c, 0, 51, 0
2, 132174, Note_on_c, 0, 75, 0
2, 132174, Note_on_c, 0, 90, 0
2, 132175, Note_on_c, 0, 87, 0
2, 132180, Note_on_c, 0, 84, 0
2, 132188, Note_on_c, 0, 44, 0
2, 132188, Note_on_c, 0, 54, 0
2, 132189, Note_on_c, 0, 85, 110
2, 132193, Note_on_c, 0, 73, 103
2, 132197, Note_on_c, 0, 76, 101
2, 132203, Note_on_c, 0, 28, 91
2, 132207, Note_on_c, 0, 40, 83
2, 132280, Control_c, 0, 64, 127
2, 132441, Note_on_c, 0, 76, 0
2, 132441, Note_on_c, 0, 85, 0
2, 132449, Note_on_c, 0, 40, 0
2, 132449, Note_on_c, 0, 73, 0
2, 132451, Note_on_c, 0, 85, 99
2, 132452, Note_on_c, 0, 76, 93
2, 132453, Note_on_c, 0, 73, 87
2, 132454, Note_on_c, 0, 40, 76
2, 132564, Note_on_c, 0, 73, 0
2, 132564, Note_on_c, 0, 85, 0
2, 132572, Note_on_c, 0, 76, 0
2, 132573, Note_on_c, 0, 85, 103
2, 132575, Note_on_c, 0, 73, 90
2, 132582, Note_on_c, 0, 76, 89
2, 132583, Note_on_c, 0, 47, 68
2, 132682, Note_on_c, 0, 52, 86
2, 132692, Note_on_c, 0, 83, 106
2, 132695, Note_on_c, 0, 76, 0
2, 132700, Note_on_c, 0, 71, 93
2, 132704, Note_on_c, 0, 76, 98
2, 132798, Note_on_c, 0, 59, 86
2, 132813, Note_on_c, 0, 54, 76
2, 132925, Note_on_c, 0, 71, 0
2, 132925, Note_on_c, 0, 76, 0
2, 132925, Note_on_c, 0, 83, 0
2, 132929, Note_on_c, 0, 83, 101
2, 132932, Note_on_c, 0, 76, 94
2, 132933, Note_on_c, 0, 52, 0
2, 132936, Note_on_c, 0, 71, 86
2, 132937, Note_on_c, 0, 52, 75
2, 132940, Note_on_c, 0, 47, 0
2, 132951, Note_on_c, 0, 47, 61
2, 133048, Note_on_c, 0, 47, 0
2, 133048, Note_on_c, 0, 59, 0
2, 133048, Note_on_c, 0, 71, 0
2, 133048, Note_on_c, 0, 83, 0
2, 133052, Note_on_c, 0, 83, 102
2, 133053, Note_on_c, 0, 59, 88
2, 133056, Note_on_c, 0, 52, 0
2, 133058, Note_on_c, 0, 71, 87
2, 133059, Note_on_c, 0, 47, 68
2, 133061, Note_on_c, 0, 52, 62
2, 133163, Note_on_c, 0, 52, 0
2, 133163, Note_on_c, 0, 71, 0
2, 133163, Note_on_c, 0, 83, 0
2, 133167, Note_on_c, 0, 83, 107
2, 133171, Note_on_c, 0, 52, 77
2, 133171, Note_on_c, 0, 76, 0
2, 133172, Note_on_c, 0, 71, 91
2, 133173, Note_on_c, 0, 55, 74
2, 133176, Note_on_c, 0, 76, 83
2, 133178, Note_on_c, 0, 55, 0
2, 133224, Note_on_c, 0, 28, 0
2, 133231, Control_c, 0, 64, 0
2, 133232, Note_on_c, 0, 40, 0
2, 133233, Note_on_c, 0, 52, 0
2, 133233, Note_on_c, 0, 54, 0
2, 133233, Note_on_c, 0, 71, 0
2, 133233, Note_on_c, 0, 73, 0
2, 133233, Note_on_c, 0, 47, 0
2, 133234, Note_on_c, 0, 83, 0
2, 133234, Note_on_c, 0, 85, 0
2, 133234, Note_on_c, 0, 59, 0
2, 133235, Note_on_c, 0, 76, 0
2, 133296, Note_on_c, 0, 90, 110
2, 133296, Note_on_c, 0, 78, 111
2, 133297, Note_on_c, 0, 83, 93
2, 133301, Note_on_c, 0, 87, 92
2, 133311, Note_on_c, 0, 47, 92
2, 133314, Note_on_c, 0, 35, 77
2, 133315, Note_on_c, 0, 39, 73
2, 133340, Control_c, 0, 64, 127
2, 133486, Note_on_c, 0, 78, 0
2, 133486, Note_on_c, 0, 90, 0
2, 133493, Note_on_c, 0, 83, 0
2, 133493, Note_on_c, 0, 87, 0
2, 133495, Note_on_c, 0, 90, 98
2, 133495, Note_on_c, 0, 78, 100
2, 133497, Note_on_c, 0, 83, 92
2, 133498, Note_on_c, 0, 87, 96
2, 133566, Note_on_c, 0, 59, 82
2, 133567, Note_on_c, 0, 54, 72
2, 133570, Note_on_c, 0, 39, 0
2, 133571, Note_on_c, 0, 51, 74
2, 133662, Note_on_c, 0, 83, 0
2, 133662, Note_on_c, 0, 90, 0
2, 133670, Note_on_c, 0, 78, 0
2, 133670, Note_on_c, 0, 87, 0
2, 133673, Note_on_c, 0, 83, 97
2, 133674, Note_on_c, 0, 90, 95
2, 133675, Note_on_c, 0, 78, 93
2, 133676, Note_on_c, 0, 87, 96
2, 133693, Note_on_c, 0, 47, 0
2, 133693, Note_on_c, 0, 51, 0
2, 133693, Note_on_c, 0, 54, 0
2, 133698, Note_on_c, 0, 51, 56
2, 133699, Note_on_c, 0, 47, 70
2, 133703, Note_on_c, 0, 54, 69
2, 133800, Note_on_c, 0, 78, 0
2, 133800, Note_on_c, 0, 90, 0
2, 133806, Note_on_c, 0, 90, 101
2, 133808, Note_on_c, 0, 78, 89
2, 133916, Note_on_c, 0, 87, 0
2, 133922, Note_on_c, 0, 87, 103
2, 133930, Note_on_c, 0, 75, 96
2, 133939, Note_on_c, 0, 47, 0
2, 133939, Note_on_c, 0, 51, 0
2, 133943, Note_on_c, 0, 47, 68
2, 133950, Note_on_c, 0, 51, 54
2, 134039, Note_on_c, 0, 54, 0
2, 134046, Note_on_c, 0, 59, 0
2, 134049, Note_on_c, 0, 54, 86
2, 134057, Note_on_c, 0, 59, 65
2, 134152, Note_on_c, 0, 90, 0
2, 134152, Note_on_c, 0, 87, 0
2, 134153, Note_on_c, 0, 51, 0
2, 134153, Note_on_c, 0, 75, 0
2, 134154, Control_c, 0, 64, 0
2, 134155, Note_on_c, 0, 47, 0
2, 134155, Note_on_c, 0, 35, 0
2, 134156, Note_on_c, 0, 59, 0
2, 134169, Note_on_c, 0, 83, 0
2, 134177, Note_on_c, 0, 54, 0
2, 134177, Note_on_c, 0, 78, 0
2, 134180, Note_on_c, 0, 85, 108
2, 134187, Note_on_c, 0, 78, 94
2, 134189, Note_on_c, 0, 73, 95
2, 134196, Note_on_c, 0, 30, 88
2, 134196, Note_on_c, 0, 42, 88
2, 134197, Note_on_c, 0, 82, 82
2, 134323, Control_c, 0, 64, 127
2, 134423, Note_on_c, 0, 42, 0
2, 134430, Note_on_c, 0, 30, 0
2, 134433, Note_on_c, 0, 42, 72
2, 134434, Note_on_c, 0, 30, 60
2, 134552, Note_on_c, 0, 49, 69
2, 134666, Note_on_c, 0, 58, 74
2, 134669, Note_on_c, 0, 54, 75
2, 134796, Note_on_c, 0, 83, 103
2, 134801, Note_on_c, 0, 71, 88
2, 134906, Note_on_c, 0, 85, 0
2, 134914, Note_on_c, 0, 73, 0
2, 134916, Note_on_c, 0, 85, 95
2, 134925, Note_on_c, 0, 73, 76
2, 135029, Note_on_c, 0, 30, 0
2, 135029, Note_on_c, 0, 42, 0
2, 135037, Note_on_c, 0, 30, 82
2, 135038, Note_on_c, 0, 42, 82
2, 135039, Note_on_c, 0, 87, 100
2, 135048, Note_on_c, 0, 75, 84
2, 135160, Note_on_c, 0, 73, 0
2, 135160, Note_on_c, 0, 85, 0
2, 135164, Note_on_c, 0, 85, 100
2, 135169, Note_on_c, 0, 73, 93
2, 135218, Note_on_c, 0, 49, 0
2, 135218, Note_on_c, 0, 83, 0
2, 135218, Note_on_c, 0, 42, 0
2, 135218, Note_on_c, 0, 78, 0
2, 135218, Note_on_c, 0, 54, 0
2, 135218, Note_on_c, 0, 30, 0
2, 135218, Note_on_c, 0, 58, 0
2, 135218, Note_on_c, 0, 82, 0
2, 135218, Note_on_c, 0, 71, 0
2, 135219, Control_c, 0, 64, 0
2, 135220, Note_on_c, 0, 75, 0
2, 135220, Note_on_c, 0, 87, 0
2, 135283, Note_on_c, 0, 32, 89
2, 135285, Note_on_c, 0, 44, 84
2, 135352, Control_c, 0, 64, 127
2, 135417, Note_on_c, 0, 83, 101
2, 135418, Note_on_c, 0, 71, 88
2, 135505, Note_on_c, 0, 85, 0
2, 135536, Note_on_c, 0, 71, 0
2, 135536, Note_on_c, 0, 83, 0
2, 135543, Note_on_c, 0, 83, 103
2, 135545, Note_on_c, 0, 71, 91
2, 135651, Note_on_c, 0, 59, 89
2, 135655, Note_on_c, 0, 54, 83
2, 135664, Note_on_c, 0, 51, 70
2, 135782, Note_on_c, 0, 71, 0
2, 135782, Note_on_c, 0, 83, 0
2, 135787, Note_on_c, 0, 83, 93
2, 135791, Note_on_c, 0, 71, 73
2, 135905, Note_on_c, 0, 44, 0
2, 135909, Note_on_c, 0, 85, 95
2, 135911, Note_on_c, 0, 44, 70
2, 135912, Note_on_c, 0, 73, 0
2, 135917, Note_on_c, 0, 73, 73
2, 135920, Note_on_c, 0, 54, 0
2, 135930, Note_on_c, 0, 54, 62
2, 136028, Note_on_c, 0, 51, 0
2, 136028, Note_on_c, 0, 54, 0
2, 136028, Note_on_c, 0, 59, 0
2, 136029, Note_on_c, 0, 87, 102
2, 136032, Note_on_c, 0, 59, 81
2, 136032, Note_on_c, 0, 54, 83
2, 136033, Note_on_c, 0, 75, 83
2, 136034, Note_on_c, 0, 51, 73
2, 136036, Note_on_c, 0, 71, 0
2, 136135, Note_on_c, 0, 85, 0
2, 136143, Note_on_c, 0, 73, 0
2, 136145, Note_on_c, 0, 85, 104
2, 136153, Note_on_c, 0, 73, 94
2, 136206, Control_c, 0, 64, 0
2, 136208, Note_on_c, 0, 54, 0
2, 136208, Note_on_c, 0, 44, 0
2, 136208, Note_on_c, 0, 51, 0
2, 136209, Note_on_c, 0, 59, 0
2, 136209, Note_on_c, 0, 83, 0
2, 136210, Note_on_c, 0, 75, 0
2, 136220, Note_on_c, 0, 32, 0
2, 136227, Note_on_c, 0, 87, 0
2, 136269, Note_on_c, 0, 28, 87
2, 136270, Note_on_c, 0, 40, 78
2, 136304, Control_c, 0, 64, 127
2, 136402, Note_on_c, 0, 83, 96
2, 136405, Note_on_c, 0, 71, 85
2, 136519, Note_on_c, 0, 71, 0
2, 136519, Note_on_c, 0, 83, 0
2, 136528, Note_on_c, 0, 83, 102
2, 136530, Note_on_c, 0, 71, 89
2, 136645, Note_on_c, 0, 54, 88
2, 136645, Note_on_c, 0, 59, 80
2, 136652, Note_on_c, 0, 47, 66
2, 136765, Note_on_c, 0, 71, 0
2, 136765, Note_on_c, 0, 83, 0
2, 136776, Note_on_c, 0, 83, 95
2, 136776, Note_on_c, 0, 71, 87
2, 136888, Note_on_c, 0, 73, 0
2, 136888, Note_on_c, 0, 85, 0
2, 136892, Note_on_c, 0, 85, 100
2, 136892, Note_on_c, 0, 52, 74
2, 136893, Note_on_c, 0, 64, 71
2, 136898, Note_on_c, 0, 73, 87
2, 136903, Note_on_c, 0, 64, 0
2, 137016, Note_on_c, 0, 87, 101
2, 137018, Note_on_c, 0, 54, 0
2, 137018, Note_on_c, 0, 59, 0
2, 137019, Note_on_c, 0, 75, 87
2, 137022, Note_on_c, 0, 47, 0
2, 137024, Note_on_c, 0, 54, 68
2, 137027, Note_on_c, 0, 59, 75
2, 137126, Note_on_c, 0, 85, 0
2, 137131, Note_on_c, 0, 85, 107
2, 137134, Note_on_c, 0, 73, 0
2, 137143, Note_on_c, 0, 73, 92
2, 137165, Control_c, 0, 64, 0
2, 137168, Note_on_c, 0, 40, 0
2, 137168, Note_on_c, 0, 54, 0
2, 137168, Note_on_c, 0, 75, 0
2, 137168, Note_on_c, 0, 59, 0
2, 137168, Note_on_c, 0, 52, 0
2, 137169, Note_on_c, 0, 87, 0
2, 137172, Note_on_c, 0, 28, 0
2, 137180, Note_on_c, 0, 71, 0
2, 137187, Note_on_c, 0, 83, 0
2, 137267, Note_on_c, 0, 47, 88
2, 137268, Note_on_c, 0, 35, 77
2, 137272, Control_c, 0, 64, 127
2, 137502, Note_on_c, 0, 47, 0
2, 137513, Note_on_c, 0, 47, 67
2, 137644, Note_on_c, 0, 83, 93
2, 137647, Note_on_c, 0, 71, 82
2, 137652, Note_on_c, 0, 54, 71
2, 137756, Note_on_c, 0, 83, 0
2, 137763, Note_on_c, 0, 83, 88
2, 137763, Note_on_c, 0, 71, 0
2, 137767, Note_on_c, 0, 75, 96
2, 137774, Note_on_c, 0, 71, 75
2, 137782, Note_on_c, 0, 63, 72
2, 138009, Note_on_c, 0, 54, 0
2, 138020, Note_on_c, 0, 54, 61
2, 138141, Control_c, 0, 64, 0
2, 138142, Note_on_c, 0, 71, 0
2, 138142, Note_on_c, 0, 54, 0
2, 138142, Note_on_c, 0, 63, 0
2, 138145, Note_on_c, 0, 83, 0
2, 138147, Note_on_c, 0, 73, 0
2, 138157, Note_on_c, 0, 73, 88
2, 138159, Note_on_c, 0, 42, 78
2, 138160, Note_on_c, 0, 30, 79
2, 138162, Note_on_c, 0, 64, 65
2, 138163, Note_on_c, 0, 47, 0
2, 138170, Note_on_c, 0, 35, 0
2, 138170, Note_on_c, 0, 85, 0
2, 138316, Note_on_c, 0, 30, 0
2, 138316, Control_c, 0, 64, 127
2, 138393, Note_on_c, 0, 42, 0
2, 138398, Note_on_c, 0, 42, 61
2, 138543, Note_on_c, 0, 71, 82
2, 138674, Note_on_c, 0, 49, 61
2, 138712, Note_on_c, 0, 58, 36
2, 138716, Note_on_c, 0, 58, 0
2, 138800, Note_on_c, 0, 71, 0
2, 138805, Note_on_c, 0, 71, 86
2, 138805, Note_on_c, 0, 54, 64
2, 138836, Note_on_c, 0, 66, 46
2, 138915, Note_on_c, 0, 49, 0
2, 138915, Note_on_c, 0, 73, 0
2, 138923, Note_on_c, 0, 49, 63
2, 138926, Note_on_c, 0, 73, 76
2, 138926, Note_on_c, 0, 61, 63
2, 139031, Note_on_c, 0, 42, 0
2, 139031, Note_on_c, 0, 54, 0
2, 139031, Note_on_c, 0, 75, 0
2, 139041, Note_on_c, 0, 75, 79
2, 139041, Note_on_c, 0, 54, 60
2, 139041, Note_on_c, 0, 42, 59
2, 139153, Note_on_c, 0, 73, 0
2, 139161, Note_on_c, 0, 73, 81
2, 139161, Note_on_c, 0, 64, 0
2, 139161, Note_on_c, 0, 66, 0
2, 139165, Note_on_c, 0, 66, 69
2, 139250, Control_c, 0, 64, 0
2, 139251, Note_on_c, 0, 49, 0
2, 139252, Note_on_c, 0, 42, 0
2, 139252, Note_on_c, 0, 71, 0
2, 139255, Note_on_c, 0, 75, 0
2, 139261, Note_on_c, 0, 61, 0
2, 139284, Note_on_c, 0, 54, 0
2, 139290, Note_on_c, 0, 44, 55
2, 139290, Note_on_c, 0, 51, 59
2, 139292, Note_on_c, 0, 54, 58
2, 139476, Control_c, 0, 64, 127
2, 139542, Note_on_c, 0, 71, 76
2, 139553, Note_on_c, 0, 54, 0
2, 139668, Note_on_c, 0, 71, 0
2, 139669, Note_on_c, 0, 54, 65
2, 139670, Note_on_c, 0, 59, 60
2, 139672, Note_on_c, 0, 47, 47
2, 139674, Note_on_c, 0, 71, 61
2, 139676, Note_on_c, 0, 47, 0
2, 139783, Note_on_c, 0, 71, 0
2, 139792, Note_on_c, 0, 71, 78
2, 139906, Note_on_c, 0, 73, 0
2, 139912, Note_on_c, 0, 73, 71
2, 140019, Note_on_c, 0, 75, 69
2, 140136, Note_on_c, 0, 73, 0
2, 140143, Note_on_c, 0, 73, 71
2, 140160, Note_on_c, 0, 66, 0
2, 140169, Note_on_c, 0, 66, 64
2, 140239, Control_c, 0, 64, 0
2, 140239, Note_on_c, 0, 51, 0
2, 140240, Note_on_c, 0, 71, 0
2, 140240, Note_on_c, 0, 59, 0
2, 140241, Note_on_c, 0, 75, 0
2, 140241, Note_on_c, 0, 44, 0
2, 140275, Note_on_c, 0, 54, 0
2, 140280, Note_on_c, 0, 58, 57
2, 140280, Note_on_c, 0, 54, 58
2, 140284, Note_on_c, 0, 46, 60
2, 140444, Control_c, 0, 64, 127
2, 140532, Note_on_c, 0, 71, 71
2, 140559, Note_on_c, 0, 58, 0
2, 140653, Note_on_c, 0, 58, 58
2, 140655, Note_on_c, 0, 61, 60
2, 140782, Note_on_c, 0, 71, 0
2, 140790, Note_on_c, 0, 83, 97
2, 140793, Note_on_c, 0, 71, 81
2, 140912, Note_on_c, 0, 73, 0
2, 140916, Note_on_c, 0, 85, 96
2, 140924, Note_on_c, 0, 73, 76
2, 141040, Note_on_c, 0, 87, 91
2, 141057, Note_on_c, 0, 75, 65
2, 141273, Note_on_c, 0, 85, 0
2, 141284, Note_on_c, 0, 85, 92
2, 141288, Note_on_c, 0, 73, 0
2, 141298, Note_on_c, 0, 76, 74
2, 141298, Note_on_c, 0, 73, 72
2, 141301, Note_on_c, 0, 47, 60
2, 141313, Note_on_c, 0, 46, 0
2, 141314, Note_on_c, 0, 61, 0
2, 141314, Note_on_c, 0, 54, 0
2, 141314, Note_on_c, 0, 58, 0
2, 141315, Note_on_c, 0, 87, 0
2, 141315, Note_on_c, 0, 83, 0
2, 141315, Note_on_c, 0, 75, 0
2, 141321, Control_c, 0, 64, 0
2, 141327, Note_on_c, 0, 66, 0
2, 141327, Note_on_c, 0, 71, 0
2, 141419, Control_c, 0, 64, 127
2, 141511, Note_on_c, 0, 73, 0
2, 141545, Note_on_c, 0, 54, 64
2, 141683, Note_on_c, 0, 83, 88
2, 141691, Note_on_c, 0, 71, 73
2, 141811, Note_on_c, 0, 71, 0
2, 141811, Note_on_c, 0, 83, 0
2, 141817, Note_on_c, 0, 83, 88
2, 141822, Note_on_c, 0, 71, 70
2, 141826, Note_on_c, 0, 59, 65
2, 141852, Note_on_c, 0, 75, 60
2, 141911, Note_on_c, 0, 85, 0
2, 142080, Note_on_c, 0, 54, 0
2, 142090, Note_on_c, 0, 54, 56
2, 142198, Note_on_c, 0, 61, 66
2, 142448, Note_on_c, 0, 54, 0
2, 142453, Note_on_c, 0, 54, 63
2, 142588, Note_on_c, 0, 63, 62
2, 142848, Note_on_c, 0, 59, 0
2, 142855, Note_on_c, 0, 59, 53
2, 143078, Note_on_c, 0, 54, 0
2, 143084, Note_on_c, 0, 54, 56
2, 143331, Note_on_c, 0, 47, 0
2, 143339, Note_on_c, 0, 47, 63
2, 143357, Control_c, 0, 64, 0
2, 143357, Note_on_c, 0, 59, 0
2, 143358, Note_on_c, 0, 63, 0
2, 143358, Note_on_c, 0, 61, 0
2, 143358, Note_on_c, 0, 54, 0
2, 143358, Note_on_c, 0, 75, 0
2, 143359, Note_on_c, 0, 83, 0
2, 143360, Note_on_c, 0, 76, 0
2, 143385, Note_on_c, 0, 71, 0
2, 143477, Control_c, 0, 64, 127
2, 143596, Note_on_c, 0, 54, 54
2, 143872, Note_on_c, 0, 59, 57
2, 144107, Note_on_c, 0, 54, 0
2, 144117, Note_on_c, 0, 54, 59
2, 144245, Note_on_c, 0, 61, 68
2, 144491, Note_on_c, 0, 54, 0
2, 144502, Note_on_c, 0, 54, 66
2, 144629, Note_on_c, 0, 59, 0
2, 144634, Note_on_c, 0, 59, 65
2, 144883, Note_on_c, 0, 66, 61
2, 145150, Note_on_c, 0, 71, 52
2, 145374, Note_on_c, 0, 59, 0
2, 145374, Note_on_c, 0, 71, 0
2, 145381, Note_on_c, 0, 59, 58
2, 145383, Note_on_c, 0, 71, 50
2, 145659, Note_on_c, 0, 78, 53
2, 145796, Note_on_c, 0, 90, 88
2, 145797, Note_on_c, 0, 66, 0
2, 145803, Note_on_c, 0, 66, 63
2, 146050, Note_on_c, 0, 78, 0
2, 146056, Note_on_c, 0, 78, 59
2, 146181, Note_on_c, 0, 71, 0
2, 146184, Note_on_c, 0, 87, 71
2, 146187, Note_on_c, 0, 71, 66
2, 146306, Note_on_c, 0, 85, 75
2, 146438, Note_on_c, 0, 83, 82
2, 146572, Note_on_c, 0, 73, 58
2, 146688, Note_on_c, 0, 78, 0
2, 146696, Note_on_c, 0, 78, 81
2, 146935, Note_on_c, 0, 75, 71
2, 147171, Note_on_c, 0, 71, 0
2, 147179, Note_on_c, 0, 71, 69
2, 147317, Note_on_c, 0, 66, 0
2, 147322, Note_on_c, 0, 66, 66
2, 147417, Note_on_c, 0, 59, 0
2, 147429, Note_on_c, 0, 59, 71
2, 147686, Note_on_c, 0, 78, 0
2, 147695, Note_on_c, 0, 78, 62
2, 147801, Note_on_c, 0, 85, 0
2, 147812, Note_on_c, 0, 85, 82
2, 147814, Note_on_c, 0, 70, 74
2, 147840, Note_on_c, 0, 47, 0
2, 147840, Note_on_c, 0, 54, 0
2, 147840, Note_on_c, 0, 61, 0
2, 147840, Note_on_c, 0, 90, 0
2, 148032, Note_on_c, 0, 78, 0
2, 148041, Note_on_c, 0, 78, 56
2, 148193, Note_on_c, 0, 66, 0
2, 148193, Note_on_c, 0, 87, 0
2, 148199, Note_on_c, 0, 87, 77
2, 148204, Note_on_c, 0, 66, 66
2, 148310, Note_on_c, 0, 88, 75
2, 148408, Note_on_c, 0, 87, 0
2, 148416, Note_on_c, 0, 87, 78
2, 148569, Note_on_c, 0, 71, 0
2, 148575, Note_on_c, 0, 71, 61
2, 148677, Note_on_c, 0, 83, 0
2, 148683, Note_on_c, 0, 83, 82
2, 148915, Note_on_c, 0, 75, 0
2, 148921, Note_on_c, 0, 75, 63
2, 148945, Note_on_c, 0, 78, 0
2, 148954, Note_on_c, 0, 78, 75
2, 149214, Note_on_c, 0, 66, 0
2, 149219, Note_on_c, 0, 66, 47
2, 149429, Note_on_c, 0, 59, 0
2, 149433, Note_on_c, 0, 59, 63
2, 149448, Control_c, 0, 64, 0
2, 149448, Note_on_c, 0, 87, 0
2, 149448, Note_on_c, 0, 88, 0
2, 149448, Note_on_c, 0, 73, 0
2, 149448, Note_on_c, 0, 75, 0
2, 149448, Note_on_c, 0, 70, 0
2, 149448, Note_on_c, 0, 71, 0
2, 149449, Note_on_c, 0, 78, 0
2, 149449, Note_on_c, 0, 83, 0
2, 149449, Note_on_c, 0, 85, 0
2, 149449, Note_on_c, 0, 66, 0
2, 149560, Control_c, 0, 64, 127
2, 149714, Note_on_c, 0, 78, 71
2, 149844, Note_on_c, 0, 66, 74
2, 149847, Note_on_c, 0, 90, 85
2, 150097, Note_on_c, 0, 78, 0
2, 150107, Note_on_c, 0, 78, 65
2, 150231, Note_on_c, 0, 87, 78
2, 150238, Note_on_c, 0, 71, 67
2, 150354, Note_on_c, 0, 85, 78
2, 150472, Note_on_c, 0, 83, 77
2, 150609, Note_on_c, 0, 73, 65
2, 150720, Note_on_c, 0, 78, 0
2, 150725, Note_on_c, 0, 78, 78
2, 150953, Note_on_c, 0, 75, 77
2, 151203, Note_on_c, 0, 71, 0
2, 151208, Note_on_c, 0, 71, 67
2, 151326, Note_on_c, 0, 66, 0
2, 151336, Note_on_c, 0, 66, 63
2, 151421, Note_on_c, 0, 87, 0
2, 151421, Note_on_c, 0, 83, 0
2, 151421, Note_on_c, 0, 71, 0
2, 151422, Note_on_c, 0, 75, 0
2, 151422, Note_on_c, 0, 78, 0
2, 151422, Note_on_c, 0, 73, 0
2, 151422, Control_c, 0, 64, 0
2, 151434, Note_on_c, 0, 90, 0
2, 151441, Note_on_c, 0, 85, 0
2, 151449, Note_on_c, 0, 59, 0
2, 151449, Note_on_c, 0, 85, 83
2, 151453, Note_on_c, 0, 59, 69
2, 151460, Note_on_c, 0, 82, 71
2, 151526, Control_c, 0, 64, 127
2, 151699, Note_on_c, 0, 78, 72
2, 151825, Note_on_c, 0, 78, 0
2, 151835, Note_on_c, 0, 70, 72
2, 151837, Note_on_c, 0, 78, 58
2, 152064, Note_on_c, 0, 78, 0
2, 152069, Note_on_c, 0, 78, 69
2, 152202, Note_on_c, 0, 66, 0
2, 152204, Note_on_c, 0, 87, 81
2, 152206, Note_on_c, 0, 66, 65
2, 152323, Note_on_c, 0, 88, 77
2, 152440, Note_on_c, 0, 87, 0
2, 152448, Note_on_c, 0, 87, 77
2, 152595, Note_on_c, 0, 71, 58
2, 152710, Note_on_c, 0, 83, 76
2, 152942, Note_on_c, 0, 75, 65
2, 152962, Note_on_c, 0, 78, 0
2, 152967, Note_on_c, 0, 78, 71
2, 153467, Note_on_c, 0, 56, 74
2, 153481, Control_c, 0, 64, 0
2, 153485, Note_on_c, 0, 71, 0
2, 153485, Note_on_c, 0, 83, 0
2, 153486, Note_on_c, 0, 87, 0
2, 153487, Note_on_c, 0, 66, 0
2, 153488, Note_on_c, 0, 75, 0
2, 153500, Note_on_c, 0, 59, 0
2, 153500, Note_on_c, 0, 85, 0
2, 153507, Note_on_c, 0, 70, 0
2, 153507, Note_on_c, 0, 82, 0
2, 153523, Note_on_c, 0, 88, 0
2, 153584, Control_c, 0, 64, 127
2, 153733, Note_on_c, 0, 63, 50
2, 153848, Note_on_c, 0, 90, 80
2, 153849, Note_on_c, 0, 71, 75
2, 153862, Note_on_c, 0, 66, 65
2, 154106, Note_on_c, 0, 63, 0
2, 154111, Note_on_c, 0, 63, 65
2, 154217, Note_on_c, 0, 87, 80
2, 154229, Note_on_c, 0, 71, 0
2, 154237, Note_on_c, 0, 66, 0
2, 154240, Note_on_c, 0, 71, 70
2, 154244, Note_on_c, 0, 66, 64
2, 154355, Note_on_c, 0, 85, 77
2, 154470, Note_on_c, 0, 83, 75
2, 154590, Note_on_c, 0, 56, 0
2, 154596, Note_on_c, 0, 56, 52
2, 154721, Note_on_c, 0, 63, 0
2, 154721, Note_on_c, 0, 78, 0
2, 154725, Note_on_c, 0, 78, 78
2, 154726, Note_on_c, 0, 63, 66
2, 154851, Note_on_c, 0, 66, 0
2, 154860, Note_on_c, 0, 66, 76
2, 154959, Note_on_c, 0, 71, 0
2, 154964, Note_on_c, 0, 71, 72
2, 155087, Note_on_c, 0, 73, 72
2, 155213, Note_on_c, 0, 75, 83
2, 155477, Note_on_c, 0, 58, 80
2, 155486, Note_on_c, 0, 87, 0
2, 155486, Note_on_c, 0, 85, 0
2, 155486, Note_on_c, 0, 78, 0
2, 155486, Note_on_c, 0, 56, 0
2, 155486, Note_on_c, 0, 83, 0
2, 155486, Note_on_c, 0, 71, 0
2, 155486, Note_on_c, 0, 73, 0
2, 155486, Note_on_c, 0, 63, 0
2, 155487, Note_on_c, 0, 66, 0
2, 155489, Note_on_c, 0, 75, 0
2, 155489, Note_on_c, 0, 90, 0
2, 155492, Control_c, 0, 64, 0
2, 155650, Control_c, 0, 64, 127
2, 155722, Note_on_c, 0, 61, 67
2, 155855, Note_on_c, 0, 70, 78
2, 155855, Note_on_c, 0, 85, 82
2, 155885, Note_on_c, 0, 66, 56
2, 156080, Note_on_c, 0, 61, 0
2, 156092, Note_on_c, 0, 61, 69
2, 156096, Note_on_c, 0, 78, 74
2, 156217, Note_on_c, 0, 59, 81
2, 156220, Note_on_c, 0, 87, 87
2, 156231, Note_on_c, 0, 85, 0
2, 156232, Note_on_c, 0, 61, 0
2, 156232, Note_on_c, 0, 66, 0
2, 156232, Note_on_c, 0, 58, 0
2, 156232, Note_on_c, 0, 78, 0
2, 156233, Note_on_c, 0, 70, 0
2, 156236, Control_c, 0, 64, 0
2, 156344, Note_on_c, 0, 88, 81
2, 156357, Control_c, 0, 64, 127
2, 156464, Note_on_c, 0, 87, 0
2, 156475, Note_on_c, 0, 87, 83
2, 156609, Note_on_c, 0, 66, 70
2, 156724, Note_on_c, 0, 83, 89
2, 156856, Note_on_c, 0, 71, 67
2, 156969, Note_on_c, 0, 76, 76
2, 156983, Note_on_c, 0, 78, 80
2, 157081, Note_on_c, 0, 75, 62
2, 157194, Note_on_c, 0, 71, 0
2, 157203, Note_on_c, 0, 71, 68
2, 157455, Note_on_c, 0, 51, 79
2, 157469, Control_c, 0, 64, 0
2, 157472, Note_on_c, 0, 59, 0
2, 157474, Note_on_c, 0, 71, 0
2, 157474, Note_on_c, 0, 66, 0
2, 157474, Note_on_c, 0, 78, 0
2, 157474, Note_on_c, 0, 88, 0
2, 157474, Note_on_c, 0, 83, 0
2, 157474, Note_on_c, 0, 76, 0
2, 157475, Note_on_c, 0, 75, 0
2, 157493, Note_on_c, 0, 87, 0
2, 157585, Control_c, 0, 64, 127
2, 157705, Note_on_c, 0, 59, 66
2, 157822, Note_on_c, 0, 90, 86
2, 157832, Note_on_c, 0, 66, 68
2, 158062, Note_on_c, 0, 59, 0
2, 158072, Note_on_c, 0, 59, 67
2, 158192, Note_on_c, 0, 66, 0
2, 158197, Note_on_c, 0, 87, 86
2, 158198, Note_on_c, 0, 66, 67
2, 158322, Note_on_c, 0, 85, 82
2, 158442, Note_on_c, 0, 83, 77
2, 158553, Note_on_c, 0, 59, 0
2, 158564, Note_on_c, 0, 59, 70
2, 158684, Note_on_c, 0, 66, 0
2, 158692, Note_on_c, 0, 78, 80
2, 158695, Note_on_c, 0, 66, 69
2, 158812, Note_on_c, 0, 71, 77
2, 158945, Note_on_c, 0, 73, 67
2, 159057, Note_on_c, 0, 75, 67
2, 159175, Note_on_c, 0, 71, 0
2, 159184, Note_on_c, 0, 71, 76
2, 159436, Note_on_c, 0, 85, 0
2, 159441, Note_on_c, 0, 51, 0
2, 159442, Note_on_c, 0, 59, 0
2, 159443, Note_on_c, 0, 73, 0
2, 159443, Note_on_c, 0, 87, 0
2, 159445, Note_on_c, 0, 83, 0
2, 159445, Note_on_c, 0, 71, 0
2, 159446, Note_on_c, 0, 78, 0
2, 159446, Note_on_c, 0, 75, 0
2, 159447, Note_on_c, 0, 85, 85
2, 159448, Control_c, 0, 64, 0
2, 159448, Note_on_c, 0, 54, 75
2, 159452, Note_on_c, 0, 90, 0
2, 159452, Note_on_c, 0, 82, 77
2, 159459, Note_on_c, 0, 66, 0
2, 159567, Control_c, 0, 64, 127
2, 159697, Note_on_c, 0, 61, 60
2, 159702, Note_on_c, 0, 78, 74
2, 159813, Note_on_c, 0, 78, 0
2, 159823, Note_on_c, 0, 78, 80
2, 159827, Note_on_c, 0, 82, 0
2, 159834, Note_on_c, 0, 70, 68
2, 159837, Note_on_c, 0, 66, 67
2, 160035, Note_on_c, 0, 61, 0
2, 160046, Note_on_c, 0, 61, 63
2, 160066, Note_on_c, 0, 78, 0
2, 160071, Note_on_c, 0, 78, 76
2, 160172, Note_on_c, 0, 70, 0
2, 160172, Control_c, 0, 64, 0
2, 160175, Note_on_c, 0, 54, 0
2, 160175, Note_on_c, 0, 66, 0
2, 160181, Note_on_c, 0, 85, 0
2, 160196, Note_on_c, 0, 59, 74
2, 160197, Note_on_c, 0, 61, 0
2, 160197, Note_on_c, 0, 87, 85
2, 160241, Note_on_c, 0, 59, 0
2, 160273, Control_c, 0, 64, 127
2, 160281, Note_on_c, 0, 78, 0
2, 160318, Note_on_c, 0, 88, 79
2, 160435, Note_on_c, 0, 87, 0
2, 160441, Note_on_c, 0, 87, 82
2, 160567, Note_on_c, 0, 66, 69
2, 160675, Note_on_c, 0, 83, 84
2, 160785, Note_on_c, 0, 71, 61
2, 160927, Note_on_c, 0, 75, 70
2, 160930, Note_on_c, 0, 78, 70
2, 161415, Note_on_c, 0, 71, 0
2, 161415, Note_on_c, 0, 87, 0
2, 161415, Note_on_c, 0, 83, 0
2, 161416, Note_on_c, 0, 78, 0
2, 161416, Control_c, 0, 64, 0
2, 161417, Note_on_c, 0, 66, 0
2, 161418, Note_on_c, 0, 75, 0
2, 161418, Note_on_c, 0, 88, 0
2, 161446, Note_on_c, 0, 44, 75
2, 161448, Note_on_c, 0, 95, 85
2, 161453, Note_on_c, 0, 83, 68
2, 161525, Control_c, 0, 64, 127
2, 161584, Note_on_c, 0, 94, 62
2, 161671, Note_on_c, 0, 95, 0
2, 161682, Note_on_c, 0, 95, 78
2, 161707, Note_on_c, 0, 54, 65
2, 161804, Note_on_c, 0, 90, 80
2, 161828, Note_on_c, 0, 66, 84
2, 161836, Note_on_c, 0, 59, 78
2, 161935, Note_on_c, 0, 88, 80
2, 162040, Note_on_c, 0, 90, 0
2, 162046, Note_on_c, 0, 90, 80
2, 162071, Note_on_c, 0, 54, 0
2, 162081, Note_on_c, 0, 54, 78
2, 162192, Note_on_c, 0, 63, 84
2, 162195, Note_on_c, 0, 87, 82
2, 162306, Note_on_c, 0, 61, 78
2, 162310, Note_on_c, 0, 85, 75
2, 162432, Note_on_c, 0, 59, 0
2, 162432, Note_on_c, 0, 87, 0
2, 162436, Note_on_c, 0, 59, 88
2, 162437, Note_on_c, 0, 87, 80
2, 162443, Note_on_c, 0, 71, 78
2, 162447, Note_on_c, 0, 71, 0
2, 162570, Note_on_c, 0, 83, 0
2, 162581, Note_on_c, 0, 83, 73
2, 162677, Note_on_c, 0, 54, 0
2, 162682, Note_on_c, 0, 54, 82
2, 162686, Note_on_c, 0, 82, 74
2, 162800, Note_on_c, 0, 83, 0
2, 162806, Note_on_c, 0, 83, 78
2, 162931, Note_on_c, 0, 44, 0
2, 162939, Note_on_c, 0, 44, 75
2, 162941, Note_on_c, 0, 78, 80
2, 163054, Note_on_c, 0, 83, 0
2, 163058, Note_on_c, 0, 51, 70
2, 163063, Note_on_c, 0, 83, 73
2, 163184, Note_on_c, 0, 54, 0
2, 163184, Note_on_c, 0, 90, 0
2, 163195, Note_on_c, 0, 90, 82
2, 163195, Note_on_c, 0, 54, 75
2, 163299, Note_on_c, 0, 78, 0
2, 163305, Note_on_c, 0, 78, 70
2, 163404, Note_on_c, 0, 95, 0
2, 163404, Note_on_c, 0, 94, 0
2, 163405, Note_on_c, 0, 87, 0
2, 163405, Note_on_c, 0, 82, 0
2, 163405, Note_on_c, 0, 83, 0
2, 163405, Note_on_c, 0, 51, 0
2, 163405, Note_on_c, 0, 63, 0
2, 163405, Note_on_c, 0, 59, 0
2, 163405, Note_on_c, 0, 44, 0
2, 163406, Note_on_c, 0, 66, 0
2, 163406, Note_on_c, 0, 61, 0
2, 163406, Note_on_c, 0, 78, 0
2, 163406, Note_on_c, 0, 90, 0
2, 163408, Control_c, 0, 64, 0
2, 163415, Note_on_c, 0, 85, 0
2, 163415, Note_on_c, 0, 88, 0
2, 163422, Note_on_c, 0, 54, 0
2, 163425, Note_on_c, 0, 46, 81
2, 163426, Note_on_c, 0, 85, 84
2, 163499, Control_c, 0, 64, 127
2, 163545, Note_on_c, 0, 78, 67
2, 163545, Note_on_c, 0, 46, 0
2, 163664, Note_on_c, 0, 83, 75
2, 163679, Note_on_c, 0, 54, 69
2, 163787, Note_on_c, 0, 58, 86
2, 163788, Note_on_c, 0, 61, 87
2, 163789, Note_on_c, 0, 90, 84
2, 163921, Note_on_c, 0, 78, 0
2, 163933, Note_on_c, 0, 78, 75
2, 164021, Note_on_c, 0, 83, 0
2, 164028, Note_on_c, 0, 83, 77
2, 164037, Note_on_c, 0, 54, 0
2, 164047, Note_on_c, 0, 54, 75
2, 164152, Note_on_c, 0, 85, 0
2, 164162, Note_on_c, 0, 85, 84
2, 164166, Note_on_c, 0, 63, 83
2, 164259, Note_on_c, 0, 78, 0
2, 164266, Note_on_c, 0, 64, 84
2, 164270, Note_on_c, 0, 78, 74
2, 164382, Note_on_c, 0, 63, 0
2, 164394, Note_on_c, 0, 63, 90
2, 164398, Note_on_c, 0, 90, 0
2, 164403, Note_on_c, 0, 83, 0
2, 164403, Control_c, 0, 64, 0
2, 164403, Note_on_c, 0, 54, 0
2, 164403, Note_on_c, 0, 85, 0
2, 164403, Note_on_c, 0, 78, 0
2, 164403, Note_on_c, 0, 58, 0
2, 164404, Note_on_c, 0, 61, 0
2, 164405, Note_on_c, 0, 64, 0
2, 164405, Note_on_c, 0, 47, 79
2, 164482, Control_c, 0, 64, 127
2, 164521, Note_on_c, 0, 76, 83
2, 164650, Note_on_c, 0, 59, 79
2, 164652, Note_on_c, 0, 75, 78
2, 164762, Note_on_c, 0, 78, 81
2, 164885, Note_on_c, 0, 83, 82
2, 164894, Note_on_c, 0, 54, 74
2, 165002, Note_on_c, 0, 85, 89
2, 165132, Note_on_c, 0, 90, 88
2, 165235, Note_on_c, 0, 78, 0
2, 165240, Note_on_c, 0, 78, 78
2, 165359, Note_on_c, 0, 83, 0
2, 165360, Note_on_c, 0, 75, 0
2, 165360, Note_on_c, 0, 59, 0
2, 165360, Note_on_c, 0, 85, 0
2, 165361, Note_on_c, 0, 54, 0
2, 165361, Note_on_c, 0, 76, 0
2, 165361, Note_on_c, 0, 78, 0
2, 165362, Control_c, 0, 64, 0
2, 165362, Note_on_c, 0, 90, 0
2, 165365, Note_on_c, 0, 47, 0
2, 165365, Note_on_c, 0, 63, 0
2, 165368, Note_on_c, 0, 95, 97
2, 165378, Note_on_c, 0, 39, 84
2, 165442, Control_c, 0, 64, 127
2, 165492, Note_on_c, 0, 94, 85
2, 165496, Note_on_c, 0, 39, 0
2, 165611, Note_on_c, 0, 95, 0
2, 165616, Note_on_c, 0, 95, 83
2, 165638, Note_on_c, 0, 54, 65
2, 165739, Note_on_c, 0, 90, 88
2, 165744, Note_on_c, 0, 66, 89
2, 165745, Note_on_c, 0, 59, 79
2, 165854, Note_on_c, 0, 88, 81
2, 165957, Note_on_c, 0, 90, 0
2, 165964, Note_on_c, 0, 90, 82
2, 165980, Note_on_c, 0, 54, 0
2, 165985, Note_on_c, 0, 54, 75
2, 166106, Note_on_c, 0, 63, 86
2, 166106, Note_on_c, 0, 87, 91
2, 166222, Note_on_c, 0, 61, 82
2, 166223, Note_on_c, 0, 85, 82
2, 166341, Note_on_c, 0, 59, 0
2, 166348, Note_on_c, 0, 87, 0
2, 166349, Note_on_c, 0, 59, 86
2, 166355, Note_on_c, 0, 87, 83
2, 166487, Note_on_c, 0, 83, 72
2, 166594, Note_on_c, 0, 54, 0
2, 166597, Note_on_c, 0, 82, 74
2, 166600, Note_on_c, 0, 54, 72
2, 166717, Note_on_c, 0, 83, 0
2, 166721, Note_on_c, 0, 83, 68
2, 166836, Note_on_c, 0, 78, 84
2, 166837, Note_on_c, 0, 39, 71
2, 166963, Note_on_c, 0, 83, 0
2, 166967, Note_on_c, 0, 47, 70
2, 166967, Note_on_c, 0, 83, 77
2, 167086, Note_on_c, 0, 54, 0
2, 167086, Note_on_c, 0, 90, 0
2, 167090, Note_on_c, 0, 90, 81
2, 167093, Note_on_c, 0, 54, 74
2, 167201, Note_on_c, 0, 78, 0
2, 167205, Note_on_c, 0, 78, 73
2, 167281, Note_on_c, 0, 47, 0
2, 167282, Note_on_c, 0, 87, 0
2, 167282, Note_on_c, 0, 63, 0
2, 167282, Note_on_c, 0, 59, 0
2, 167282, Note_on_c, 0, 66, 0
2, 167282, Note_on_c, 0, 39, 0
2, 167282, Note_on_c, 0, 90, 0
2, 167283, Note_on_c, 0, 82, 0
2, 167283, Note_on_c, 0, 83, 0
2, 167283, Note_on_c, 0, 94, 0
2, 167283, Note_on_c, 0, 95, 0
2, 167283, Note_on_c, 0, 61, 0
2, 167283, Control_c, 0, 64, 0
2, 167284, Note_on_c, 0, 78, 0
2, 167301, Note_on_c, 0, 54, 0
2, 167301, Note_on_c, 0, 88, 0
2, 167308, Note_on_c, 0, 85, 0
2, 167313, Note_on_c, 0, 42, 81
2, 167318, Note_on_c, 0, 85, 87
2, 167400, Control_c, 0, 64, 127
2, 167439, Note_on_c, 0, 42, 0
2, 167443, Note_on_c, 0, 78, 78
2, 167572, Note_on_c, 0, 83, 76
2, 167574, Note_on_c, 0, 54, 83
2, 167699, Note_on_c, 0, 61, 87
2, 167700, Note_on_c, 0, 90, 85
2, 167702, Note_on_c, 0, 58, 82
2, 167831, Note_on_c, 0, 78, 0
2, 167836, Note_on_c, 0, 78, 70
2, 167923, Note_on_c, 0, 83, 0
2, 167930, Note_on_c, 0, 54, 0
2, 167932, Note_on_c, 0, 83, 83
2, 167941, Note_on_c, 0, 54, 83
2, 168046, Note_on_c, 0, 85, 0
2, 168055, Note_on_c, 0, 85, 91
2, 168080, Note_on_c, 0, 63, 83
2, 168168, Note_on_c, 0, 78, 0
2, 168179, Note_on_c, 0, 64, 84
2, 168180, Note_on_c, 0, 78, 73
2, 168291, Note_on_c, 0, 63, 0
2, 168294, Note_on_c, 0, 83, 0
2, 168294, Note_on_c, 0, 54, 0
2, 168294, Note_on_c, 0, 78, 0
2, 168295, Note_on_c, 0, 61, 0
2, 168295, Note_on_c, 0, 64, 0
2, 168295, Note_on_c, 0, 58, 0
2, 168295, Note_on_c, 0, 85, 0
2, 168295, Note_on_c, 0, 90, 0
2, 168296, Control_c, 0, 64, 0
2, 168302, Note_on_c, 0, 63, 83
2, 168308, Note_on_c, 0, 47, 81
2, 168399, Control_c, 0, 64, 127
2, 168427, Note_on_c, 0, 76, 83
2, 168542, Note_on_c, 0, 75, 77
2, 168548, Note_on_c, 0, 59, 76
2, 168647, Note_on_c, 0, 78, 86
2, 168802, Note_on_c, 0, 95, 102
2, 168802, Note_on_c, 0, 54, 85
2, 168805, Note_on_c, 0, 83, 91
2, 169239, Note_on_c, 0, 54, 0
2, 169240, Note_on_c, 0, 78, 0
2, 169240, Note_on_c, 0, 75, 0
2, 169240, Note_on_c, 0, 83, 0
2, 169240, Note_on_c, 0, 59, 0
2, 169240, Note_on_c, 0, 95, 0
2, 169241, Note_on_c, 0, 76, 0
2, 169242, Note_on_c, 0, 47, 0
2, 169243, Control_c, 0, 64, 0
2, 169244, Note_on_c, 0, 63, 0
2, 169333, Note_on_c, 0, 48, 84
2, 169333, Note_on_c, 0, 32, 95
2, 169334, Note_on_c, 0, 44, 98
2, 169344, Note_on_c, 0, 48, 0
2, 169559, Control_c, 0, 64, 127
2, 169597, Note_on_c, 0, 66, 87
2, 169720, Note_on_c, 0, 78, 109
2, 169727, Note_on_c, 0, 71, 94
2, 169966, Note_on_c, 0, 32, 0
2, 169976, Note_on_c, 0, 32, 72
2, 170090, Note_on_c, 0, 75, 92
2, 170102, Note_on_c, 0, 51, 72
2, 170177, Note_on_c, 0, 54, 87
2, 170208, Note_on_c, 0, 73, 89
2, 170327, Note_on_c, 0, 71, 0
2, 170332, Note_on_c, 0, 71, 99
2, 170334, Note_on_c, 0, 51, 0
2, 170334, Note_on_c, 0, 54, 0
2, 170339, Note_on_c, 0, 59, 91
2, 170341, Note_on_c, 0, 51, 80
2, 170343, Note_on_c, 0, 54, 84
2, 170695, Note_on_c, 0, 66, 0
2, 170704, Note_on_c, 0, 66, 91
2, 170987, Note_on_c, 0, 32, 0
2, 170995, Note_on_c, 0, 44, 0
2, 170995, Note_on_c, 0, 59, 0
2, 170995, Note_on_c, 0, 66, 0
2, 170997, Note_on_c, 0, 32, 86
2, 170999, Note_on_c, 0, 66, 65
2, 171002, Note_on_c, 0, 44, 77
2, 171005, Note_on_c, 0, 59, 72
2, 171102, Note_on_c, 0, 44, 0
2, 171111, Note_on_c, 0, 44, 71
2, 171223, Note_on_c, 0, 46, 85
2, 171225, Note_on_c, 0, 34, 79
2, 171343, Control_c, 0, 64, 0
2, 171345, Note_on_c, 0, 78, 0
2, 171345, Note_on_c, 0, 51, 0
2, 171346, Note_on_c, 0, 71, 0
2, 171346, Note_on_c, 0, 73, 0
2, 171346, Note_on_c, 0, 34, 0
2, 171346, Note_on_c, 0, 46, 0
2, 171346, Note_on_c, 0, 66, 0
2, 171346, Note_on_c, 0, 75, 0
2, 171346, Note_on_c, 0, 59, 0
2, 171347, Note_on_c, 0, 44, 0
2, 171349, Note_on_c, 0, 32, 0
2, 171356, Note_on_c, 0, 47, 95
2, 171359, Note_on_c, 0, 63, 85
2, 171359, Note_on_c, 0, 35, 87
2, 171363, Note_on_c, 0, 54, 0
2, 171540, Note_on_c, 0, 63, 0
2, 171586, Control_c, 0, 64, 127
2, 171609, Note_on_c, 0, 66, 88
2, 171729, Note_on_c, 0, 78, 106
2, 171733, Note_on_c, 0, 73, 94
2, 171736, Note_on_c, 0, 71, 88
2, 171970, Note_on_c, 0, 47, 0
2, 171975, Note_on_c, 0, 47, 86
2, 172095, Note_on_c, 0, 75, 97
2, 172106, Note_on_c, 0, 54, 90
2, 172204, Note_on_c, 0, 59, 87
2, 172208, Note_on_c, 0, 73, 0
2, 172212, Note_on_c, 0, 73, 92
2, 172221, Note_on_c, 0, 69, 52
2, 172300, Note_on_c, 0, 35, 0
2, 172331, Note_on_c, 0, 59, 0
2, 172331, Note_on_c, 0, 66, 0
2, 172331, Note_on_c, 0, 71, 0
2, 172339, Note_on_c, 0, 47, 0
2, 172341, Note_on_c, 0, 71, 98
2, 172342, Control_c, 0, 64, 0
2, 172342, Note_on_c, 0, 66, 99
2, 172342, Note_on_c, 0, 59, 99
2, 172343, Note_on_c, 0, 47, 89
2, 172343, Note_on_c, 0, 63, 87
2, 172344, Note_on_c, 0, 64, 101
2, 172352, Note_on_c, 0, 54, 0
2, 172408, Control_c, 0, 64, 127
2, 172700, Note_on_c, 0, 59, 0
2, 172700, Note_on_c, 0, 63, 0
2, 172707, Note_on_c, 0, 73, 0
2, 172710, Note_on_c, 0, 59, 90
2, 172711, Note_on_c, 0, 63, 94
2, 172718, Note_on_c, 0, 73, 95
2, 172723, Note_on_c, 0, 66, 0
2, 172730, Note_on_c, 0, 66, 86
2, 172968, Note_on_c, 0, 47, 0
2, 172976, Note_on_c, 0, 47, 81
2, 173091, Note_on_c, 0, 59, 0
2, 173091, Note_on_c, 0, 71, 0
2, 173097, Note_on_c, 0, 59, 92
2, 173102, Note_on_c, 0, 71, 81
2, 173346, Note_on_c, 0, 47, 0
2, 173348, Note_on_c, 0, 59, 0
2, 173349, Note_on_c, 0, 66, 0
2, 173349, Note_on_c, 0, 71, 0
2, 173356, Control_c, 0, 64, 0
2, 173360, Note_on_c, 0, 69, 0
2, 173360, Note_on_c, 0, 75, 0
2, 173360, Note_on_c, 0, 78, 0
2, 173362, Note_on_c, 0, 40, 87
2, 173362, Note_on_c, 0, 28, 91
2, 173368, Note_on_c, 0, 63, 0
2, 173368, Note_on_c, 0, 64, 0
2, 173376, Note_on_c, 0, 73, 0
2, 173537, Control_c, 0, 64, 127
2, 173628, Note_on_c, 0, 66, 86
2, 173736, Note_on_c, 0, 78, 110
2, 173744, Note_on_c, 0, 73, 91
2, 173748, Note_on_c, 0, 71, 86
2, 173982, Note_on_c, 0, 28, 0
2, 173982, Note_on_c, 0, 40, 0
2, 173987, Note_on_c, 0, 40, 75
2, 173988, Note_on_c, 0, 28, 77
2, 174108, Note_on_c, 0, 75, 99
2, 174110, Note_on_c, 0, 47, 80
2, 174200, Note_on_c, 0, 52, 83
2, 174220, Note_on_c, 0, 73, 0
2, 174229, Note_on_c, 0, 73, 94
2, 174343, Note_on_c, 0, 47, 0
2, 174343, Note_on_c, 0, 66, 0
2, 174343, Note_on_c, 0, 71, 0
2, 174350, Note_on_c, 0, 71, 100
2, 174351, Note_on_c, 0, 66, 105
2, 174351, Note_on_c, 0, 59, 98
2, 174354, Note_on_c, 0, 47, 83
2, 174360, Note_on_c, 0, 62, 71
2, 174366, Note_on_c, 0, 62, 0
2, 174727, Note_on_c, 0, 52, 0
2, 174727, Note_on_c, 0, 66, 0
2, 174732, Note_on_c, 0, 61, 89
2, 174733, Note_on_c, 0, 52, 74
2, 174734, Note_on_c, 0, 66, 102
2, 175127, Note_on_c, 0, 47, 0
2, 175127, Note_on_c, 0, 59, 0
2, 175127, Note_on_c, 0, 71, 0
2, 175135, Note_on_c, 0, 47, 92
2, 175136, Note_on_c, 0, 59, 76
2, 175138, Note_on_c, 0, 71, 72
2, 175262, Note_on_c, 0, 35, 79
2, 175351, Note_on_c, 0, 28, 0
2, 175352, Note_on_c, 0, 73, 0
2, 175352, Note_on_c, 0, 71, 0
2, 175352, Note_on_c, 0, 75, 0
2, 175352, Note_on_c, 0, 59, 0
2, 175352, Note_on_c, 0, 66, 0
2, 175352, Note_on_c, 0, 61, 0
2, 175352, Note_on_c, 0, 47, 0
2, 175353, Note_on_c, 0, 78, 0
2, 175353, Note_on_c, 0, 52, 0
2, 175353, Note_on_c, 0, 35, 0
2, 175353, Control_c, 0, 64, 0
2, 175380, Note_on_c, 0, 40, 0
2, 175391, Note_on_c, 0, 40, 91
2, 175392, Note_on_c, 0, 28, 93
2, 175394, Note_on_c, 0, 62, 78
2, 175480, Control_c, 0, 64, 127
2, 175618, Note_on_c, 0, 62, 0
2, 175649, Note_on_c, 0, 66, 85
2, 175763, Note_on_c, 0, 78, 107
2, 175773, Note_on_c, 0, 73, 88
2, 175775, Note_on_c, 0, 71, 87
2, 175780, Note_on_c, 0, 74, 85
2, 176017, Note_on_c, 0, 28, 0
2, 176017, Note_on_c, 0, 40, 0
2, 176028, Note_on_c, 0, 28, 88
2, 176028, Note_on_c, 0, 40, 85
2, 176142, Note_on_c, 0, 75, 99
2, 176148, Note_on_c, 0, 71, 0
2, 176158, Note_on_c, 0, 71, 73
2, 176161, Note_on_c, 0, 47, 81
2, 176256, Note_on_c, 0, 40, 0
2, 176256, Note_on_c, 0, 73, 0
2, 176260, Note_on_c, 0, 52, 85
2, 176260, Note_on_c, 0, 40, 74
2, 176261, Note_on_c, 0, 73, 96
2, 176378, Note_on_c, 0, 66, 0
2, 176378, Note_on_c, 0, 71, 0
2, 176385, Note_on_c, 0, 71, 101
2, 176386, Note_on_c, 0, 47, 0
2, 176386, Note_on_c, 0, 52, 0
2, 176387, Note_on_c, 0, 66, 103
2, 176390, Note_on_c, 0, 47, 82
2, 176391, Note_on_c, 0, 59, 101
2, 176393, Note_on_c, 0, 52, 99
2, 176747, Note_on_c, 0, 40, 0
2, 176747, Note_on_c, 0, 47, 0
2, 176747, Note_on_c, 0, 52, 0
2, 176747, Note_on_c, 0, 66, 0
2, 176751, Note_on_c, 0, 61, 93
2, 176751, Note_on_c, 0, 52, 88
2, 176752, Note_on_c, 0, 40, 81
2, 176752, Note_on_c, 0, 47, 76
2, 176753, Note_on_c, 0, 66, 95
2, 177039, Note_on_c, 0, 40, 0
2, 177039, Note_on_c, 0, 47, 0
2, 177039, Note_on_c, 0, 59, 0
2, 177043, Note_on_c, 0, 47, 91
2, 177044, Note_on_c, 0, 35, 87
2, 177048, Note_on_c, 0, 39, 80
2, 177049, Note_on_c, 0, 40, 79
2, 177050, Note_on_c, 0, 63, 81
2, 177050, Note_on_c, 0, 59, 79
2, 177051, Note_on_c, 0, 42, 74
2, 177146, Note_on_c, 0, 47, 0
2, 177146, Note_on_c, 0, 59, 0
2, 177154, Note_on_c, 0, 35, 0
2, 177154, Note_on_c, 0, 39, 0
2, 177158, Note_on_c, 0, 47, 96
2, 177158, Note_on_c, 0, 59, 91
2, 177158, Note_on_c, 0, 35, 88
2, 177159, Note_on_c, 0, 43, 78
2, 177169, Note_on_c, 0, 43, 0
2, 177181, Control_c, 0, 64, 0
2, 177188, Note_on_c, 0, 61, 0
2, 177190, Note_on_c, 0, 52, 0
2, 177194, Note_on_c, 0, 73, 0
2, 177194, Note_on_c, 0, 66, 0
2, 177194, Note_on_c, 0, 40, 0
2, 177197, Note_on_c, 0, 35, 0
2, 177200, Note_on_c, 0, 75, 0
2, 177208, Note_on_c, 0, 28, 0
2, 177208, Note_on_c, 0, 74, 0
2, 177216, Note_on_c, 0, 42, 0
2, 177223, Note_on_c, 0, 63, 0
2, 177223, Note_on_c, 0, 71, 0
2, 177223, Note_on_c, 0, 78, 0
2, 177231, Note_on_c, 0, 47, 0
2, 177254, Note_on_c, 0, 59, 0
2, 177403, Note_on_c, 0, 40, 98
2, 177403, Note_on_c, 0, 28, 104
2, 177415, Control_c, 0, 64, 127
2, 177569, Note_on_c, 0, 28, 0
2, 177569, Note_on_c, 0, 40, 0
2, 177573, Note_on_c, 0, 28, 54
2, 177573, Note_on_c, 0, 40, 61
2, 177669, Note_on_c, 0, 40, 0
2, 177672, Note_on_c, 0, 47, 71
2, 177675, Note_on_c, 0, 40, 60
2, 177773, Note_on_c, 0, 52, 89
2, 177784, Note_on_c, 0, 90, 107
2, 177787, Note_on_c, 0, 85, 101
2, 177788, Note_on_c, 0, 78, 107
2, 177789, Note_on_c, 0, 83, 99
2, 177907, Note_on_c, 0, 47, 0
2, 177916, Note_on_c, 0, 47, 88
2, 178030, Note_on_c, 0, 52, 0
2, 178034, Note_on_c, 0, 52, 73
2, 178158, Note_on_c, 0, 87, 105
2, 178160, Note_on_c, 0, 78, 0
2, 178168, Note_on_c, 0, 75, 86
2, 178169, Note_on_c, 0, 54, 88
2, 178171, Note_on_c, 0, 78, 72
2, 178174, Note_on_c, 0, 82, 74
2, 178275, Note_on_c, 0, 85, 0
2, 178282, Note_on_c, 0, 85, 104
2, 178286, Note_on_c, 0, 59, 87
2, 178288, Note_on_c, 0, 73, 95
2, 178398, Note_on_c, 0, 83, 0
2, 178405, Note_on_c, 0, 83, 112
2, 178406, Note_on_c, 0, 54, 0
2, 178406, Note_on_c, 0, 73, 0
2, 178406, Note_on_c, 0, 78, 0
2, 178409, Note_on_c, 0, 64, 92
2, 178412, Note_on_c, 0, 71, 101
2, 178412, Note_on_c, 0, 54, 86
2, 178416, Note_on_c, 0, 78, 93
2, 178416, Note_on_c, 0, 73, 96
2, 178536, Note_on_c, 0, 47, 0
2, 178536, Note_on_c, 0, 59, 0
2, 178542, Note_on_c, 0, 47, 74
2, 178543, Note_on_c, 0, 59, 92
2, 178652, Note_on_c, 0, 54, 0
2, 178658, Note_on_c, 0, 54, 83
2, 178767, Note_on_c, 0, 59, 0
2, 178773, Note_on_c, 0, 59, 92
2, 178782, Note_on_c, 0, 78, 0
2, 178787, Note_on_c, 0, 78, 108
2, 178794, Note_on_c, 0, 66, 107
2, 178890, Note_on_c, 0, 54, 0
2, 178895, Note_on_c, 0, 54, 84
2, 179013, Note_on_c, 0, 52, 0
2, 179019, Note_on_c, 0, 52, 93
2, 179136, Note_on_c, 0, 47, 0
2, 179141, Note_on_c, 0, 47, 90
2, 179143, Note_on_c, 0, 83, 0
2, 179151, Note_on_c, 0, 83, 111
2, 179159, Note_on_c, 0, 71, 0
2, 179165, Note_on_c, 0, 71, 98
2, 179243, Note_on_c, 0, 28, 0
2, 179243, Note_on_c, 0, 40, 0
2, 179254, Note_on_c, 0, 40, 86
2, 179254, Note_on_c, 0, 28, 88
2, 179374, Note_on_c, 0, 82, 0
2, 179379, Note_on_c, 0, 87, 0
2, 179379, Note_on_c, 0, 75, 0
2, 179380, Note_on_c, 0, 52, 0
2, 179380, Note_on_c, 0, 47, 0
2, 179380, Note_on_c, 0, 78, 0
2, 179381, Note_on_c, 0, 66, 0
2, 179381, Note_on_c, 0, 85, 0
2, 179381, Note_on_c, 0, 64, 0
2, 179381, Note_on_c, 0, 54, 0
2, 179381, Control_c, 0, 64, 0
2, 179382, Note_on_c, 0, 59, 0
2, 179389, Note_on_c, 0, 90, 0
2, 179397, Note_on_c, 0, 28, 0
2, 179397, Note_on_c, 0, 40, 0
2, 179397, Note_on_c, 0, 71, 0
2, 179397, Note_on_c, 0, 83, 0
2, 179402, Note_on_c, 0, 83, 112
2, 179402, Note_on_c, 0, 40, 98
2, 179404, Note_on_c, 0, 73, 0
2, 179406, Note_on_c, 0, 71, 107
2, 179406, Note_on_c, 0, 28, 95
2, 179409, Note_on_c, 0, 76, 97
2, 179414, Note_on_c, 0, 73, 101
2, 179450, Control_c, 0, 64, 127
2, 179458, Note_on_c, 0, 28, 0
2, 179516, Note_on_c, 0, 47, 63
2, 179627, Note_on_c, 0, 40, 0
2, 179633, Note_on_c, 0, 28, 94
2, 179634, Note_on_c, 0, 40, 89
2, 179690, Control_c, 0, 64, 0
2, 179691, Note_on_c, 0, 73, 0
2, 179691, Note_on_c, 0, 76, 0
2, 179692, Note_on_c, 0, 71, 0
2, 179692, Note_on_c, 0, 28, 0
2, 179692, Note_on_c, 0, 83, 0
2, 179692, Note_on_c, 0, 40, 0
2, 179692, Note_on_c, 0, 47, 0
2, 179773, Control_c, 0, 64, 127
2, 179774, Note_on_c, 0, 83, 113
2, 179776, Note_on_c, 0, 28, 98
2, 179777, Note_on_c, 0, 40, 98
2, 179777, Note_on_c, 0, 71, 105
2, 179779, Note_on_c, 0, 76, 102
2, 179782, Note_on_c, 0, 73, 101
2, 179899, Note_on_c, 0, 47, 54
2, 180011, Note_on_c, 0, 28, 0
2, 180011, Note_on_c, 0, 40, 0
2, 180018, Note_on_c, 0, 28, 90
2, 180019, Note_on_c, 0, 40, 88
2, 180114, Note_on_c, 0, 28, 0
2, 180115, Note_on_c, 0, 76, 0
2, 180115, Note_on_c, 0, 47, 0
2, 180115, Note_on_c, 0, 73, 0
2, 180115, Note_on_c, 0, 40, 0
2, 180116, Control_c, 0, 64, 0
2, 180134, Note_on_c, 0, 83, 0
2, 180142, Note_on_c, 0, 71, 0
2, 180145, Note_on_c, 0, 83, 106
2, 180148, Note_on_c, 0, 71, 96
2, 180183, Note_on_c, 0, 71, 0
2, 180190, Note_on_c, 0, 83, 0
2, 180281, Note_on_c, 0, 79, 96
2, 180283, Note_on_c, 0, 85, 116
2, 180284, Note_on_c, 0, 33, 98
2, 180284, Note_on_c, 0, 81, 96
2, 180285, Note_on_c, 0, 45, 102
2, 180287, Note_on_c, 0, 73, 112
2, 180287, Note_on_c, 0, 76, 109
2, 180318, Control_c, 0, 64, 127
2, 180591, Note_on_c, 0, 69, 83
2, 180695, Note_on_c, 0, 69, 0
2, 180704, Note_on_c, 0, 69, 103
2, 180707, Note_on_c, 0, 59, 89
2, 180711, Note_on_c, 0, 61, 87
2, 180712, Note_on_c, 0, 40, 76
2, 180713, Note_on_c, 0, 64, 86
2, 180833, Note_on_c, 0, 33, 0
2, 180834, Note_on_c, 0, 35, 96
2, 180836, Note_on_c, 0, 23, 88
2, 180839, Note_on_c, 0, 33, 90
2, 180840, Note_on_c, 0, 23, 0
2, 181332, Note_on_c, 0, 45, 0
2, 181341, Note_on_c, 0, 45, 66
2, 181347, Note_on_c, 0, 59, 0
2, 181355, Note_on_c, 0, 59, 78
2, 181359, Note_on_c, 0, 57, 64
2, 181463, Note_on_c, 0, 61, 0
2, 181473, Note_on_c, 0, 61, 78
2, 181474, Note_on_c, 0, 49, 61
2, 181547, Note_on_c, 0, 64, 0
2, 181555, Note_on_c, 0, 57, 0
2, 181558, Note_on_c, 0, 64, 78
2, 181560, Note_on_c, 0, 52, 55
2, 181561, Note_on_c, 0, 57, 70
2, 181616, Note_on_c, 0, 69, 0
2, 181620, Note_on_c, 0, 69, 87
2, 181632, Note_on_c, 0, 59, 0
2, 181643, Note_on_c, 0, 59, 75
2, 181655, Note_on_c, 0, 85, 0
2, 181670, Note_on_c, 0, 52, 0
2, 181670, Note_on_c, 0, 64, 0
2, 181676, Note_on_c, 0, 64, 84
2, 181680, Note_on_c, 0, 52, 59
2, 181754, Note_on_c, 0, 61, 0
2, 181761, Note_on_c, 0, 61, 75
2, 181793, Note_on_c, 0, 59, 0
2, 181804, Note_on_c, 0, 59, 65
2, 181818, Control_c, 0, 64, 0
2, 181839, Note_on_c, 0, 64, 0
2, 181848, Note_on_c, 0, 64, 78
2, 181854, Control_c, 0, 64, 127
2, 181885, Note_on_c, 0, 52, 0
2, 181890, Note_on_c, 0, 52, 67
2, 181939, Note_on_c, 0, 57, 0
2, 181939, Note_on_c, 0, 69, 0
2, 181945, Note_on_c, 0, 69, 78
2, 181949, Note_on_c, 0, 57, 82
2, 181987, Note_on_c, 0, 71, 75
2, 182039, Note_on_c, 0, 73, 0
2, 182044, Note_on_c, 0, 73, 86
2, 182054, Note_on_c, 0, 61, 0
2, 182054, Note_on_c, 0, 76, 0
2, 182061, Note_on_c, 0, 61, 78
2, 182064, Note_on_c, 0, 76, 88
2, 182100, Note_on_c, 0, 81, 0
2, 182109, Note_on_c, 0, 81, 98
2, 182138, Note_on_c, 0, 64, 0
2, 182143, Note_on_c, 0, 64, 81
2, 182208, Note_on_c, 0, 69, 0
2, 182213, Note_on_c, 0, 67, 63
2, 182215, Note_on_c, 0, 57, 0
2, 182215, Note_on_c, 0, 69, 75
2, 182225, Note_on_c, 0, 57, 70
2, 182246, Note_on_c, 0, 71, 0
2, 182255, Note_on_c, 0, 71, 91
2, 182315, Note_on_c, 0, 61, 0
2, 182315, Note_on_c, 0, 73, 0
2, 182319, Note_on_c, 0, 73, 80
2, 182326, Note_on_c, 0, 61, 75
2, 182338, Note_on_c, 0, 76, 0
2, 182343, Note_on_c, 0, 76, 86
2, 182361, Note_on_c, 0, 81, 0
2, 182366, Note_on_c, 0, 81, 90
2, 182369, Note_on_c, 0, 64, 0
2, 182374, Note_on_c, 0, 64, 76
2, 182400, Note_on_c, 0, 79, 0
2, 182446, Note_on_c, 0, 69, 0
2, 182449, Note_on_c, 0, 83, 96
2, 182450, Note_on_c, 0, 69, 87
2, 182484, Note_on_c, 0, 49, 0
2, 182488, Note_on_c, 0, 85, 99
2, 182538, Note_on_c, 0, 71, 0
2, 182543, Note_on_c, 0, 93, 88
2, 182549, Note_on_c, 0, 71, 78
2, 182607, Note_on_c, 0, 69, 0
2, 182610, Note_on_c, 0, 88, 76
2, 182611, Note_on_c, 0, 69, 85
2, 182630, Note_on_c, 0, 85, 0
2, 182640, Note_on_c, 0, 85, 79
2, 182691, Note_on_c, 0, 83, 0
2, 182696, Note_on_c, 0, 83, 92
2, 182722, Note_on_c, 0, 57, 0
2, 182722, Note_on_c, 0, 69, 0
2, 182729, Note_on_c, 0, 69, 76
2, 182734, Note_on_c, 0, 57, 71
2, 182760, Note_on_c, 0, 85, 0
2, 182771, Note_on_c, 0, 85, 81
2, 182814, Note_on_c, 0, 64, 0
2, 182814, Note_on_c, 0, 88, 0
2, 182822, Note_on_c, 0, 64, 84
2, 182824, Note_on_c, 0, 88, 87
2, 182876, Note_on_c, 0, 93, 0
2, 182881, Note_on_c, 0, 93, 91
2, 182883, Note_on_c, 0, 71, 0
2, 182888, Note_on_c, 0, 71, 82
2, 183029, Note_on_c, 0, 81, 0
2, 183029, Note_on_c, 0, 93, 0
2, 183037, Note_on_c, 0, 73, 0
2, 183037, Note_on_c, 0, 76, 0
2, 183040, Note_on_c, 0, 93, 104
2, 183040, Note_on_c, 0, 103, 96
2, 183040, Note_on_c, 0, 105, 110
2, 183040, Note_on_c, 0, 81, 102
2, 183044, Note_on_c, 0, 76, 95
2, 183045, Note_on_c, 0, 103, 0
2, 183045, Note_on_c, 0, 73, 104
2, 184166, Note_on_c, 0, 40, 0
2, 184320, Note_on_c, 0, 35, 0
2, 184325, Note_on_c, 0, 23, 93
2, 184326, Note_on_c, 0, 35, 93
2, 184335, Note_on_c, 0, 23, 0
2, 184373, Note_on_c, 0, 33, 0
2, 184384, Note_on_c, 0, 33, 86
2, 184441, Note_on_c, 0, 24, 106
2, 184441, Note_on_c, 0, 36, 102
2, 184458, Note_on_c, 0, 45, 0
2, 184473, Note_on_c, 0, 59, 0
2, 184473, Note_on_c, 0, 67, 0
2, 184473, Note_on_c, 0, 73, 0
2, 184473, Note_on_c, 0, 83, 0
2, 184481, Note_on_c, 0, 57, 0
2, 184481, Note_on_c, 0, 61, 0
2, 184481, Note_on_c, 0, 76, 0
2, 184482, Note_on_c, 0, 71, 0
2, 184482, Note_on_c, 0, 81, 0
2, 184483, Note_on_c, 0, 88, 0
2, 184483, Note_on_c, 0, 64, 0
2, 184484, Note_on_c, 0, 35, 0
2, 184485, Note_on_c, 0, 36, 0
2, 184488, Note_on_c, 0, 33, 0
2, 184488, Note_on_c, 0, 52, 0
2, 184488, Note_on_c, 0, 85, 0
2, 184488, Note_on_c, 0, 93, 0
2, 184504, Note_on_c, 0, 69, 0
2, 184504, Note_on_c, 0, 105, 0
2, 184516, Control_c, 0, 64, 0
2, 185349, Note_on_c, 0, 24, 0
2, 189573, Control_c, 0, 64, 127
2, 189606, Note_on_c, 0, 83, 41
2, 189888, Note_on_c, 0, 83, 0
2, 189898, Note_on_c, 0, 83, 70
2, 190179, Note_on_c, 0, 83, 0
2, 190187, Note_on_c, 0, 83, 68
2, 190376, Note_on_c, 0, 56, 37
2, 190418, Note_on_c, 0, 63, 56
2, 190468, Note_on_c, 0, 78, 60
2, 190472, Note_on_c, 0, 71, 57
2, 190473, Control_c, 0, 64, 0
2, 190502, Note_on_c, 0, 83, 0
2, 190513, Note_on_c, 0, 83, 62
2, 190553, Note_on_c, 0, 90, 77
2, 190586, Control_c, 0, 64, 127
2, 190809, Note_on_c, 0, 90, 0
2, 190814, Note_on_c, 0, 90, 75
2, 191070, Note_on_c, 0, 90, 0
2, 191081, Note_on_c, 0, 90, 77
2, 191214, Note_on_c, 0, 87, 74
2, 191491, Note_on_c, 0, 85, 76
2, 191516, Note_on_c, 0, 78, 0
2, 191520, Note_on_c, 0, 78, 58
2, 191629, Note_on_c, 0, 56, 0
2, 191629, Note_on_c, 0, 71, 0
2, 191630, Note_on_c, 0, 87, 0
2, 191631, Note_on_c, 0, 63, 0
2, 191632, Note_on_c, 0, 83, 0
2, 191638, Control_c, 0, 64, 0
2, 191641, Note_on_c, 0, 40, 42
2, 191646, Note_on_c, 0, 40, 0
2, 191654, Note_on_c, 0, 52, 45
2, 191657, Note_on_c, 0, 59, 49
2, 191659, Note_on_c, 0, 64, 38
2, 191738, Control_c, 0, 64, 127
2, 191746, Note_on_c, 0, 90, 0
2, 192103, Note_on_c, 0, 68, 58
2, 193920, Note_on_c, 0, 52, 0
2, 193920, Note_on_c, 0, 59, 0
2, 193920, Note_on_c, 0, 64, 0
2, 193920, Note_on_c, 0, 78, 0
2, 193920, Note_on_c, 0, 85, 0
2, 194737, Note_on_c, 0, 83, 55
2, 194872, Note_on_c, 0, 83, 0
2, 194880, Note_on_c, 0, 83, 71
2, 195069, Note_on_c, 0, 59, 50
2, 195085, Note_on_c, 0, 66, 49
2, 195131, Note_on_c, 0, 68, 0
2, 195138, Control_c, 0, 64, 0
2, 195144, Note_on_c, 0, 75, 56
2, 195148, Note_on_c, 0, 71, 62
2, 195171, Note_on_c, 0, 83, 0
2, 195177, Note_on_c, 0, 83, 61
2, 195218, Note_on_c, 0, 90, 84
2, 195264, Control_c, 0, 64, 127
2, 195479, Note_on_c, 0, 90, 0
2, 195490, Note_on_c, 0, 90, 74
2, 195732, Note_on_c, 0, 90, 0
2, 195743, Note_on_c, 0, 90, 69
2, 195880, Note_on_c, 0, 87, 77
2, 196148, Note_on_c, 0, 85, 78
2, 196152, Note_on_c, 0, 78, 69
2, 196177, Note_on_c, 0, 71, 0
2, 196188, Note_on_c, 0, 71, 32
2, 196277, Note_on_c, 0, 83, 0
2, 196277, Note_on_c, 0, 75, 0
2, 196278, Note_on_c, 0, 71, 0
2, 196281, Control_c, 0, 64, 0
2, 196285, Note_on_c, 0, 59, 0
2, 196300, Note_on_c, 0, 66, 0
2, 196303, Note_on_c, 0, 54, 43
2, 196304, Note_on_c, 0, 68, 54
2, 196305, Note_on_c, 0, 61, 50
2, 196385, Control_c, 0, 64, 127
2, 196775, Note_on_c, 0, 70, 55
2, 197760, Note_on_c, 0, 87, 0
2, 197760, Note_on_c, 0, 90, 0
2, 199261, Note_on_c, 0, 83, 58
2, 199403, Note_on_c, 0, 78, 0
2, 199408, Note_on_c, 0, 78, 55
2, 199511, Note_on_c, 0, 83, 0
2, 199519, Note_on_c, 0, 83, 68
2, 199595, Note_on_c, 0, 78, 0
2, 199600, Note_on_c, 0, 78, 66
2, 199672, Note_on_c, 0, 83, 0
2, 199677, Note_on_c, 0, 83, 62
2, 199741, Note_on_c, 0, 85, 0
2, 199745, Note_on_c, 0, 85, 62
2, 199781, Note_on_c, 0, 87, 79
2, 199864, Note_on_c, 0, 85, 0
2, 199875, Note_on_c, 0, 85, 71
2, 199969, Note_on_c, 0, 83, 0
2, 199969, Note_on_c, 0, 68, 0
2, 199970, Note_on_c, 0, 70, 0
2, 199971, Note_on_c, 0, 61, 0
2, 199971, Note_on_c, 0, 85, 0
2, 199972, Note_on_c, 0, 54, 0
2, 199972, Note_on_c, 0, 78, 0
2, 199973, Note_on_c, 0, 87, 0
2, 199976, Control_c, 0, 64, 0
2, 200006, Note_on_c, 0, 56, 47
2, 200007, Note_on_c, 0, 63, 57
2, 200007, Note_on_c, 0, 66, 59
2, 200079, Control_c, 0, 64, 127
2, 200281, Note_on_c, 0, 83, 75
2, 200386, Note_on_c, 0, 66, 0
2, 200396, Note_on_c, 0, 66, 66
2, 200397, Note_on_c, 0, 71, 64
2, 200517, Note_on_c, 0, 83, 0
2, 200521, Note_on_c, 0, 83, 75
2, 200618, Note_on_c, 0, 78, 68
2, 200693, Note_on_c, 0, 83, 0
2, 200701, Note_on_c, 0, 83, 65
2, 200752, Note_on_c, 0, 85, 69
2, 200801, Note_on_c, 0, 87, 83
2, 200901, Note_on_c, 0, 85, 0
2, 200906, Note_on_c, 0, 85, 80
2, 200994, Note_on_c, 0, 78, 0
2, 200995, Note_on_c, 0, 71, 0
2, 200996, Note_on_c, 0, 87, 0
2, 200996, Note_on_c, 0, 63, 0
2, 200996, Note_on_c, 0, 56, 0
2, 200996, Note_on_c, 0, 83, 0
2, 200996, Note_on_c, 0, 66, 0
2, 200998, Control_c, 0, 64, 0
2, 201033, Note_on_c, 0, 66, 57
2, 201034, Note_on_c, 0, 59, 60
2, 201036, Note_on_c, 0, 52, 52
2, 201100, Control_c, 0, 64, 127
2, 201139, Note_on_c, 0, 52, 0
2, 201293, Note_on_c, 0, 83, 83
2, 201415, Note_on_c, 0, 66, 0
2, 201419, Note_on_c, 0, 71, 70
2, 201424, Note_on_c, 0, 66, 60
2, 201546, Note_on_c, 0, 83, 0
2, 201557, Note_on_c, 0, 83, 78
2, 201719, Note_on_c, 0, 78, 65
2, 201768, Note_on_c, 0, 83, 0
2, 201774, Note_on_c, 0, 83, 65
2, 201822, Note_on_c, 0, 85, 0
2, 201833, Note_on_c, 0, 85, 74
2, 201900, Note_on_c, 0, 87, 78
2, 202168, Note_on_c, 0, 59, 0
2, 202172, Note_on_c, 0, 59, 60
2, 202199, Note_on_c, 0, 66, 0
2, 202206, Note_on_c, 0, 66, 62
2, 202260, Note_on_c, 0, 71, 0
2, 202266, Note_on_c, 0, 71, 64
2, 202297, Note_on_c, 0, 75, 66
2, 202318, Note_on_c, 0, 87, 0
2, 202324, Note_on_c, 0, 78, 0
2, 202325, Note_on_c, 0, 85, 0
2, 202326, Control_c, 0, 64, 0
2, 202337, Note_on_c, 0, 83, 0
2, 202346, Note_on_c, 0, 83, 73
2, 202400, Note_on_c, 0, 90, 84
2, 202421, Control_c, 0, 64, 127
2, 203692, Note_on_c, 0, 95, 82
2, 203964, Note_on_c, 0, 94, 77
2, 204119, Note_on_c, 0, 95, 0
2, 204123, Note_on_c, 0, 95, 76
2, 204238, Note_on_c, 0, 92, 68
2, 204311, Note_on_c, 0, 94, 0
2, 204321, Note_on_c, 0, 94, 76
2, 204395, Note_on_c, 0, 90, 0
2, 204401, Note_on_c, 0, 90, 69
2, 204441, Note_on_c, 0, 92, 0
2, 204451, Note_on_c, 0, 92, 75
2, 204510, Note_on_c, 0, 88, 80
2, 204572, Note_on_c, 0, 90, 0
2, 204576, Note_on_c, 0, 90, 78
2, 204651, Note_on_c, 0, 87, 83
2, 204733, Note_on_c, 0, 88, 0
2, 204737, Note_on_c, 0, 88, 82
2, 204837, Note_on_c, 0, 85, 72
2, 204940, Note_on_c, 0, 87, 0
2, 204951, Note_on_c, 0, 87, 71
2, 205071, Note_on_c, 0, 83, 0
2, 205082, Note_on_c, 0, 83, 65
2, 205240, Note_on_c, 0, 87, 0
2, 205248, Note_on_c, 0, 87, 79
2, 205440, Note_on_c, 0, 59, 0
2, 205440, Note_on_c, 0, 71, 0
2, 205440, Note_on_c, 0, 75, 0
2, 205478, Note_on_c, 0, 85, 0
2, 205488, Note_on_c, 0, 85, 71
2, 205658, Note_on_c, 0, 54, 46
2, 205689, Note_on_c, 0, 61, 59
2, 205780, Note_on_c, 0, 68, 60
2, 205781, Control_c, 0, 64, 0
2, 205785, Note_on_c, 0, 95, 0
2, 205785, Note_on_c, 0, 73, 61
2, 205787, Note_on_c, 0, 88, 0
2, 205787, Note_on_c, 0, 94, 0
2, 205788, Note_on_c, 0, 87, 0
2, 205788, Note_on_c, 0, 90, 0
2, 205789, Note_on_c, 0, 66, 0
2, 205800, Note_on_c, 0, 83, 0
2, 205824, Note_on_c, 0, 92, 0
2, 205853, Note_on_c, 0, 78, 60
2, 205860, Note_on_c, 0, 80, 62
2, 205900, Control_c, 0, 64, 127
2, 205916, Note_on_c, 0, 85, 0
2, 205921, Note_on_c, 0, 85, 73
2, 207250, Note_on_c, 0, 70, 49
2, 209280, Note_on_c, 0, 54, 0
2, 209280, Note_on_c, 0, 61, 0
2, 209280, Note_on_c, 0, 68, 0
2, 209280, Note_on_c, 0, 70, 0
2, 209280, Note_on_c, 0, 73, 0
2, 209280, Note_on_c, 0, 78, 0
2, 209280, Note_on_c, 0, 80, 0
2, 209280, Note_on_c, 0, 85, 0
2, 210076, Note_on_c, 0, 71, 50
2, 210892, Note_on_c, 0, 71, 0
2, 210903, Note_on_c, 0, 71, 43
2, 211230, Note_on_c, 0, 71, 0
2, 211241, Note_on_c, 0, 71, 48
2, 211499, Note_on_c, 0, 71, 0
2, 211510, Note_on_c, 0, 71, 61
2, 211814, Note_on_c, 0, 71, 0
2, 211821, Note_on_c, 0, 71, 61
2, 212227, Note_on_c, 0, 78, 74
2, 212232, Note_on_c, 0, 56, 42
2, 212279, Control_c, 0, 64, 0
2, 212344, Control_c, 0, 64, 127
2, 212528, Note_on_c, 0, 78, 0
2, 212538, Note_on_c, 0, 78, 83
2, 212555, Note_on_c, 0, 63, 55
2, 212789, Note_on_c, 0, 78, 0
2, 212799, Note_on_c, 0, 78, 80
2, 212832, Note_on_c, 0, 66, 51
2, 212951, Note_on_c, 0, 75, 76
2, 213043, Note_on_c, 0, 63, 0
2, 213050, Note_on_c, 0, 63, 61
2, 213190, Note_on_c, 0, 73, 74
2, 213330, Note_on_c, 0, 52, 50
2, 213427, Note_on_c, 0, 73, 0
2, 213436, Note_on_c, 0, 73, 72
2, 213550, Note_on_c, 0, 73, 0
2, 213561, Note_on_c, 0, 73, 71
2, 213568, Note_on_c, 0, 59, 60
2, 213688, Note_on_c, 0, 71, 0
2, 213696, Note_on_c, 0, 71, 78
2, 213811, Note_on_c, 0, 66, 0
2, 213815, Note_on_c, 0, 66, 69
2, 213934, Note_on_c, 0, 71, 0
2, 213940, Note_on_c, 0, 71, 79
2, 214049, Note_on_c, 0, 59, 0
2, 214058, Note_on_c, 0, 59, 66
2, 214072, Note_on_c, 0, 71, 0
2, 214079, Note_on_c, 0, 71, 82
2, 214179, Note_on_c, 0, 71, 0
2, 214185, Note_on_c, 0, 71, 73
2, 214325, Note_on_c, 0, 78, 0
2, 214332, Note_on_c, 0, 78, 89
2, 214336, Note_on_c, 0, 47, 58
2, 214348, Note_on_c, 0, 75, 0
2, 214354, Note_on_c, 0, 56, 0
2, 214355, Note_on_c, 0, 52, 0
2, 214355, Note_on_c, 0, 73, 0
2, 214355, Note_on_c, 0, 63, 0
2, 214355, Note_on_c, 0, 71, 0
2, 214356, Note_on_c, 0, 66, 0
2, 214357, Control_c, 0, 64, 0
2, 214359, Note_on_c, 0, 75, 66
2, 214448, Control_c, 0, 64, 127
2, 214586, Note_on_c, 0, 78, 0
2, 214591, Note_on_c, 0, 78, 91
2, 214591, Note_on_c, 0, 54, 60
2, 214840, Note_on_c, 0, 78, 0
2, 214851, Note_on_c, 0, 78, 94
2, 214858, Note_on_c, 0, 63, 71
2, 214963, Note_on_c, 0, 75, 0
2, 214970, Note_on_c, 0, 75, 89
2, 215101, Note_on_c, 0, 54, 0
2, 215105, Note_on_c, 0, 54, 66
2, 215221, Note_on_c, 0, 73, 85
2, 215247, Note_on_c, 0, 70, 67
2, 215357, Note_on_c, 0, 63, 0
2, 215358, Note_on_c, 0, 75, 0
2, 215358, Note_on_c, 0, 54, 0
2, 215358, Note_on_c, 0, 78, 0
2, 215360, Control_c, 0, 64, 0
2, 215360, Note_on_c, 0, 42, 72
2, 215362, Note_on_c, 0, 47, 0
2, 215362, Note_on_c, 0, 59, 0
2, 215508, Control_c, 0, 64, 127
2, 215618, Note_on_c, 0, 49, 65
2, 215878, Note_on_c, 0, 58, 65
2, 215880, Note_on_c, 0, 71, 86
2, 216007, Note_on_c, 0, 73, 0
2, 216016, Note_on_c, 0, 73, 75
2, 216107, Note_on_c, 0, 49, 0
2, 216110, Note_on_c, 0, 75, 87
2, 216118, Note_on_c, 0, 49, 60
2, 216238, Note_on_c, 0, 73, 0
2, 216245, Note_on_c, 0, 73, 92
2, 216263, Note_on_c, 0, 66, 74
2, 216363, Note_on_c, 0, 58, 0
2, 216364, Note_on_c, 0, 70, 0
2, 216364, Note_on_c, 0, 71, 0
2, 216365, Note_on_c, 0, 75, 0
2, 216366, Control_c, 0, 64, 0
2, 216384, Note_on_c, 0, 42, 0
2, 216384, Note_on_c, 0, 49, 0
2, 216395, Note_on_c, 0, 44, 70
2, 216499, Control_c, 0, 64, 127
2, 216642, Note_on_c, 0, 71, 83
2, 216648, Note_on_c, 0, 51, 73
2, 216906, Note_on_c, 0, 71, 0
2, 216908, Note_on_c, 0, 59, 80
2, 216910, Note_on_c, 0, 54, 78
2, 216911, Note_on_c, 0, 71, 88
2, 216929, Note_on_c, 0, 51, 0
2, 216938, Note_on_c, 0, 51, 46
2, 217036, Note_on_c, 0, 73, 0
2, 217040, Note_on_c, 0, 73, 85
2, 217144, Note_on_c, 0, 51, 0
2, 217149, Note_on_c, 0, 51, 79
2, 217155, Note_on_c, 0, 75, 94
2, 217274, Note_on_c, 0, 73, 0
2, 217280, Note_on_c, 0, 73, 98
2, 217282, Note_on_c, 0, 66, 0
2, 217293, Note_on_c, 0, 66, 83
2, 217353, Note_on_c, 0, 54, 0
2, 217354, Note_on_c, 0, 59, 0
2, 217355, Note_on_c, 0, 75, 0
2, 217355, Note_on_c, 0, 71, 0
2, 217359, Note_on_c, 0, 44, 0
2, 217360, Control_c, 0, 64, 0
2, 217390, Note_on_c, 0, 51, 0
2, 217417, Note_on_c, 0, 40, 80
2, 217528, Control_c, 0, 64, 127
2, 217667, Note_on_c, 0, 47, 74
2, 217668, Note_on_c, 0, 71, 93
2, 217920, Note_on_c, 0, 71, 0
2, 217923, Note_on_c, 0, 59, 84
2, 217926, Note_on_c, 0, 54, 86
2, 217930, Note_on_c, 0, 71, 102
2, 217989, Note_on_c, 0, 73, 0
2, 217996, Note_on_c, 0, 40, 0
2, 218059, Note_on_c, 0, 73, 95
2, 218158, Note_on_c, 0, 47, 0
2, 218162, Note_on_c, 0, 47, 79
2, 218165, Note_on_c, 0, 75, 99
2, 218273, Note_on_c, 0, 54, 0
2, 218273, Note_on_c, 0, 66, 0
2, 218282, Note_on_c, 0, 66, 89
2, 218283, Note_on_c, 0, 54, 70
2, 218342, Note_on_c, 0, 71, 0
2, 218346, Note_on_c, 0, 71, 82
2, 218396, Note_on_c, 0, 73, 0
2, 218400, Note_on_c, 0, 73, 84
2, 218414, Control_c, 0, 64, 0
2, 218418, Note_on_c, 0, 75, 0
2, 218418, Note_on_c, 0, 71, 0
2, 218420, Note_on_c, 0, 59, 0
2, 218420, Note_on_c, 0, 66, 0
2, 218421, Note_on_c, 0, 47, 0
2, 218442, Note_on_c, 0, 54, 0
2, 218447, Note_on_c, 0, 54, 90
2, 218450, Note_on_c, 0, 42, 89
2, 218452, Note_on_c, 0, 78, 107
2, 218542, Control_c, 0, 64, 127
2, 218713, Note_on_c, 0, 49, 71
2, 218714, Note_on_c, 0, 61, 57
2, 218718, Note_on_c, 0, 61, 0
2, 218820, Note_on_c, 0, 64, 86
2, 218841, Note_on_c, 0, 42, 0
2, 218845, Note_on_c, 0, 42, 77
2, 218864, Note_on_c, 0, 63, 69
2, 218951, Note_on_c, 0, 59, 75
2, 218952, Note_on_c, 0, 47, 58
2, 219014, Note_on_c, 0, 61, 37
2, 219064, Note_on_c, 0, 63, 0
2, 219068, Note_on_c, 0, 63, 80
2, 219072, Note_on_c, 0, 49, 0
2, 219078, Note_on_c, 0, 49, 69
2, 219133, Note_on_c, 0, 64, 0
2, 219138, Note_on_c, 0, 64, 88
2, 219187, Note_on_c, 0, 42, 0
2, 219193, Note_on_c, 0, 42, 93
2, 219193, Note_on_c, 0, 70, 100
2, 219256, Note_on_c, 0, 49, 0
2, 219261, Note_on_c, 0, 68, 84
2, 219262, Note_on_c, 0, 49, 61
2, 219314, Note_on_c, 0, 66, 80
2, 219371, Note_on_c, 0, 64, 0
2, 219377, Note_on_c, 0, 64, 89
2, 219440, Note_on_c, 0, 49, 0
2, 219446, Note_on_c, 0, 49, 83
2, 219456, Note_on_c, 0, 66, 0
2, 219459, Note_on_c, 0, 66, 95
2, 219494, Note_on_c, 0, 70, 0
2, 219498, Note_on_c, 0, 70, 81
2, 219563, Note_on_c, 0, 49, 0
2, 219571, Note_on_c, 0, 71, 98
2, 219574, Note_on_c, 0, 49, 89
2, 219594, Note_on_c, 0, 64, 0
2, 219604, Note_on_c, 0, 64, 60
2, 219678, Note_on_c, 0, 64, 0
2, 219683, Note_on_c, 0, 64, 86
2, 219755, Note_on_c, 0, 49, 0
2, 219755, Note_on_c, 0, 66, 0
2, 219763, Note_on_c, 0, 49, 88
2, 219765, Note_on_c, 0, 66, 95
2, 219824, Note_on_c, 0, 71, 0
2, 219834, Note_on_c, 0, 71, 89
2, 219924, Note_on_c, 0, 73, 0
2, 219928, Note_on_c, 0, 73, 104
2, 219932, Note_on_c, 0, 64, 0
2, 219937, Note_on_c, 0, 64, 84
2, 219946, Note_on_c, 0, 30, 99
2, 220055, Note_on_c, 0, 71, 0
2, 220064, Note_on_c, 0, 83, 110
2, 220065, Note_on_c, 0, 71, 107
2, 220170, Note_on_c, 0, 83, 0
2, 220177, Note_on_c, 0, 71, 0
2, 220179, Note_on_c, 0, 83, 108
2, 220181, Note_on_c, 0, 71, 97
2, 220285, Note_on_c, 0, 71, 0
2, 220285, Note_on_c, 0, 83, 0
2, 220290, Note_on_c, 0, 83, 112
2, 220295, Note_on_c, 0, 71, 97
2, 220386, Note_on_c, 0, 30, 0
2, 220386, Note_on_c, 0, 49, 0
2, 220386, Note_on_c, 0, 59, 0
2, 220387, Note_on_c, 0, 68, 0
2, 220387, Note_on_c, 0, 73, 0
2, 220387, Note_on_c, 0, 64, 0
2, 220387, Note_on_c, 0, 70, 0
2, 220387, Note_on_c, 0, 83, 0
2, 220387, Note_on_c, 0, 78, 0
2, 220388, Note_on_c, 0, 63, 0
2, 220388, Note_on_c, 0, 66, 0
2, 220389, Control_c, 0, 64, 0
2, 220400, Note_on_c, 0, 42, 0
2, 220400, Note_on_c, 0, 47, 0
2, 220400, Note_on_c, 0, 54, 0
2, 220400, Note_on_c, 0, 61, 0
2, 220408, Note_on_c, 0, 71, 0
2, 220426, Note_on_c, 0, 78, 114
2, 220427, Note_on_c, 0, 90, 108
2, 220427, Note_on_c, 0, 32, 95
2, 220428, Note_on_c, 0, 44, 101
2, 220432, Note_on_c, 0, 87, 101
2, 220435, Note_on_c, 0, 83, 87
2, 220459, Note_on_c, 0, 34, 42
2, 220477, Control_c, 0, 64, 127
2, 220508, Note_on_c, 0, 44, 0
2, 220546, Note_on_c, 0, 32, 0
2, 220553, Note_on_c, 0, 32, 87
2, 220553, Note_on_c, 0, 44, 98
2, 220620, Note_on_c, 0, 32, 0
2, 220622, Control_c, 0, 64, 0
2, 220623, Note_on_c, 0, 44, 0
2, 220627, Note_on_c, 0, 78, 0
2, 220631, Note_on_c, 0, 34, 0
2, 220669, Note_on_c, 0, 83, 0
2, 220669, Note_on_c, 0, 87, 0
2, 220669, Note_on_c, 0, 90, 0
2, 220674, Note_on_c, 0, 78, 108
2, 220675, Note_on_c, 0, 90, 98
2, 220677, Note_on_c, 0, 83, 97
2, 220679, Note_on_c, 0, 87, 95
2, 220705, Note_on_c, 0, 78, 0
2, 220710, Note_on_c, 0, 90, 0
2, 220746, Note_on_c, 0, 83, 0
2, 220927, Note_on_c, 0, 90, 103
2, 220928, Note_on_c, 0, 78, 109
2, 220968, Note_on_c, 0, 87, 0
2, 220976, Control_c, 0, 64, 127
2, 221052, Note_on_c, 0, 87, 106
2, 221055, Note_on_c, 0, 75, 102
2, 221134, Note_on_c, 0, 78, 0
2, 221134, Note_on_c, 0, 75, 0
2, 221137, Note_on_c, 0, 87, 0
2, 221138, Control_c, 0, 64, 0
2, 221153, Note_on_c, 0, 90, 0
2, 221285, Note_on_c, 0, 85, 110
2, 221287, Note_on_c, 0, 76, 104
2, 221287, Note_on_c, 0, 73, 101
2, 221368, Control_c, 0, 64, 127
2, 221529, Note_on_c, 0, 85, 0
2, 221537, Note_on_c, 0, 73, 0
2, 221537, Note_on_c, 0, 76, 0
2, 221540, Note_on_c, 0, 85, 105
2, 221546, Note_on_c, 0, 73, 93
2, 221546, Note_on_c, 0, 76, 96
2, 221652, Note_on_c, 0, 73, 0
2, 221652, Note_on_c, 0, 76, 0
2, 221652, Note_on_c, 0, 85, 0
2, 221656, Note_on_c, 0, 85, 102
2, 221661, Note_on_c, 0, 76, 86
2, 221663, Note_on_c, 0, 73, 93
2, 221732, Note_on_c, 0, 73, 0
2, 221732, Control_c, 0, 64, 0
2, 221732, Note_on_c, 0, 85, 0
2, 221733, Note_on_c, 0, 76, 0
2, 221786, Note_on_c, 0, 83, 108
2, 221792, Note_on_c, 0, 76, 100
2, 221792, Note_on_c, 0, 71, 101
2, 221852, Control_c, 0, 64, 127
2, 222036, Note_on_c, 0, 71, 0
2, 222036, Note_on_c, 0, 76, 0
2, 222036, Note_on_c, 0, 83, 0
2, 222043, Note_on_c, 0, 83, 107
2, 222047, Note_on_c, 0, 76, 99
2, 222047, Note_on_c, 0, 71, 101
2, 222151, Note_on_c, 0, 76, 0
2, 222151, Note_on_c, 0, 83, 0
2, 222159, Note_on_c, 0, 71, 0
2, 222162, Note_on_c, 0, 83, 109
2, 222163, Note_on_c, 0, 76, 88
2, 222166, Note_on_c, 0, 71, 96
2, 222266, Note_on_c, 0, 83, 0
2, 222274, Note_on_c, 0, 71, 0
2, 222274, Note_on_c, 0, 76, 0
2, 222278, Note_on_c, 0, 83, 105
2, 222279, Note_on_c, 0, 71, 96
2, 222281, Note_on_c, 0, 76, 94
2, 222337, Control_c, 0, 64, 0
2, 222339, Note_on_c, 0, 71, 0
2, 222340, Note_on_c, 0, 83, 0
2, 222340, Note_on_c, 0, 76, 0
2, 222408, Note_on_c, 0, 90, 109
2, 222409, Note_on_c, 0, 78, 111
2, 222415, Note_on_c, 0, 83, 86
2, 222416, Note_on_c, 0, 87, 99
2, 222443, Control_c, 0, 64, 127
2, 222658, Note_on_c, 0, 78, 0
2, 222658, Note_on_c, 0, 83, 0
2, 222658, Note_on_c, 0, 87, 0
2, 222658, Note_on_c, 0, 90, 0
2, 222665, Note_on_c, 0, 78, 109
2, 222666, Note_on_c, 0, 90, 105
2, 222668, Note_on_c, 0, 83, 100
2, 222669, Note_on_c, 0, 87, 105
2, 222896, Note_on_c, 0, 78, 0
2, 222896, Note_on_c, 0, 90, 0
2, 222901, Note_on_c, 0, 90, 103
2, 222902, Note_on_c, 0, 78, 106
2, 223019, Note_on_c, 0, 87, 0
2, 223024, Note_on_c, 0, 87, 108
2, 223029, Note_on_c, 0, 75, 105
2, 223142, Note_on_c, 0, 42, 97
2, 223236, Note_on_c, 0, 90, 0
2, 223237, Note_on_c, 0, 42, 0
2, 223237, Note_on_c, 0, 87, 0
2, 223237, Control_c, 0, 64, 0
2, 223238, Note_on_c, 0, 75, 0
2, 223257, Note_on_c, 0, 83, 0
2, 223265, Note_on_c, 0, 78, 0
2, 223269, Note_on_c, 0, 85, 110
2, 223270, Note_on_c, 0, 78, 102
2, 223275, Note_on_c, 0, 73, 105
2, 223277, Note_on_c, 0, 82, 89
2, 223277, Note_on_c, 0, 30, 85
2, 223342, Control_c, 0, 64, 127
2, 223513, Note_on_c, 0, 42, 85
2, 223638, Note_on_c, 0, 49, 71
2, 223756, Note_on_c, 0, 54, 86
2, 223877, Note_on_c, 0, 61, 100
2, 223879, Note_on_c, 0, 54, 0
2, 223885, Note_on_c, 0, 83, 109
2, 223885, Note_on_c, 0, 58, 77
2, 223890, Note_on_c, 0, 54, 74
2, 223893, Note_on_c, 0, 71, 100
2, 224002, Note_on_c, 0, 85, 0
2, 224009, Note_on_c, 0, 85, 103
2, 224010, Note_on_c, 0, 73, 0
2, 224017, Note_on_c, 0, 73, 89
2, 224131, Note_on_c, 0, 87, 103
2, 224136, Note_on_c, 0, 75, 91
2, 224240, Note_on_c, 0, 85, 0
2, 224248, Note_on_c, 0, 73, 0
2, 224251, Note_on_c, 0, 85, 110
2, 224258, Note_on_c, 0, 73, 102
2, 224315, Note_on_c, 0, 78, 0
2, 224316, Note_on_c, 0, 58, 0
2, 224316, Note_on_c, 0, 54, 0
2, 224316, Note_on_c, 0, 71, 0
2, 224316, Note_on_c, 0, 82, 0
2, 224316, Note_on_c, 0, 83, 0
2, 224317, Note_on_c, 0, 61, 0
2, 224318, Note_on_c, 0, 75, 0
2, 224319, Note_on_c, 0, 87, 0
2, 224319, Control_c, 0, 64, 0
2, 224325, Note_on_c, 0, 30, 0
2, 224325, Note_on_c, 0, 49, 0
2, 224340, Note_on_c, 0, 42, 0
2, 224369, Note_on_c, 0, 32, 95
2, 224372, Note_on_c, 0, 44, 96
2, 224417, Control_c, 0, 64, 127
2, 224501, Note_on_c, 0, 83, 105
2, 224504, Note_on_c, 0, 71, 96
2, 224570, Note_on_c, 0, 73, 0
2, 224616, Note_on_c, 0, 71, 0
2, 224616, Note_on_c, 0, 83, 0
2, 224621, Note_on_c, 0, 83, 104
2, 224622, Note_on_c, 0, 71, 94
2, 224647, Note_on_c, 0, 85, 0
2, 224746, Note_on_c, 0, 59, 95
2, 224751, Note_on_c, 0, 54, 88
2, 224752, Note_on_c, 0, 51, 80
2, 224855, Note_on_c, 0, 71, 0
2, 224855, Note_on_c, 0, 83, 0
2, 224864, Note_on_c, 0, 83, 98
2, 224865, Note_on_c, 0, 71, 88
2, 224983, Note_on_c, 0, 85, 104
2, 224985, Note_on_c, 0, 32, 0
2, 224991, Note_on_c, 0, 44, 0
2, 224995, Note_on_c, 0, 73, 90
2, 224995, Note_on_c, 0, 32, 70
2, 225093, Note_on_c, 0, 54, 0
2, 225100, Note_on_c, 0, 51, 0
2, 225103, Note_on_c, 0, 54, 87
2, 225103, Note_on_c, 0, 42, 84
2, 225108, Note_on_c, 0, 51, 72
2, 225108, Note_on_c, 0, 87, 104
2, 225112, Note_on_c, 0, 75, 92
2, 225216, Note_on_c, 0, 85, 0
2, 225221, Note_on_c, 0, 85, 108
2, 225223, Note_on_c, 0, 73, 0
2, 225227, Note_on_c, 0, 73, 96
2, 225269, Note_on_c, 0, 42, 0
2, 225274, Note_on_c, 0, 71, 0
2, 225274, Note_on_c, 0, 83, 0
2, 225274, Note_on_c, 0, 59, 0
2, 225274, Control_c, 0, 64, 0
2, 225274, Note_on_c, 0, 51, 0
2, 225275, Note_on_c, 0, 87, 0
2, 225275, Note_on_c, 0, 75, 0
2, 225285, Note_on_c, 0, 54, 0
2, 225308, Note_on_c, 0, 32, 0
2, 225344, Note_on_c, 0, 40, 84
2, 225344, Note_on_c, 0, 28, 92
2, 225361, Control_c, 0, 64, 127
2, 225480, Note_on_c, 0, 83, 105
2, 225484, Note_on_c, 0, 71, 96
2, 225592, Note_on_c, 0, 71, 0
2, 225592, Note_on_c, 0, 83, 0
2, 225601, Note_on_c, 0, 83, 104
2, 225603, Note_on_c, 0, 71, 97
2, 225626, Note_on_c, 0, 59, 68
2, 225630, Note_on_c, 0, 59, 0
2, 225720, Note_on_c, 0, 59, 86
2, 225722, Note_on_c, 0, 54, 85
2, 225723, Note_on_c, 0, 47, 71
2, 225822, Note_on_c, 0, 71, 0
2, 225822, Note_on_c, 0, 83, 0
2, 225829, Note_on_c, 0, 83, 105
2, 225832, Note_on_c, 0, 71, 91
2, 225945, Note_on_c, 0, 85, 0
2, 225949, Note_on_c, 0, 85, 108
2, 225953, Note_on_c, 0, 73, 0
2, 225957, Note_on_c, 0, 64, 81
2, 225957, Note_on_c, 0, 52, 81
2, 225958, Note_on_c, 0, 73, 94
2, 226068, Note_on_c, 0, 54, 0
2, 226074, Note_on_c, 0, 54, 87
2, 226076, Note_on_c, 0, 47, 0
2, 226076, Note_on_c, 0, 59, 0
2, 226079, Note_on_c, 0, 87, 105
2, 226081, Note_on_c, 0, 75, 92
2, 226083, Note_on_c, 0, 47, 72
2, 226087, Note_on_c, 0, 59, 77
2, 226191, Note_on_c, 0, 85, 0
2, 226195, Note_on_c, 0, 85, 108
2, 226199, Note_on_c, 0, 73, 0
2, 226202, Note_on_c, 0, 73, 101
2, 226244, Control_c, 0, 64, 0
2, 226246, Note_on_c, 0, 71, 0
2, 226246, Note_on_c, 0, 40, 0
2, 226247, Note_on_c, 0, 54, 0
2, 226247, Note_on_c, 0, 59, 0
2, 226248, Note_on_c, 0, 75, 0
2, 226248, Note_on_c, 0, 52, 0
2, 226248, Note_on_c, 0, 83, 0
2, 226248, Note_on_c, 0, 87, 0
2, 226252, Note_on_c, 0, 64, 0
2, 226260, Note_on_c, 0, 28, 0
2, 226268, Note_on_c, 0, 47, 0
2, 226333, Note_on_c, 0, 47, 96
2, 226335, Note_on_c, 0, 35, 86
2, 226344, Control_c, 0, 64, 127
2, 226560, Note_on_c, 0, 47, 0
2, 226570, Note_on_c, 0, 47, 85
2, 226686, Note_on_c, 0, 83, 105
2, 226693, Note_on_c, 0, 71, 90
2, 226693, Note_on_c, 0, 54, 83
2, 226813, Note_on_c, 0, 83, 0
2, 226821, Note_on_c, 0, 71, 0
2, 226824, Note_on_c, 0, 83, 106
2, 226825, Note_on_c, 0, 75, 104
2, 226827, Note_on_c, 0, 71, 98
2, 226829, Note_on_c, 0, 63, 89
2, 227051, Note_on_c, 0, 54, 0
2, 227055, Note_on_c, 0, 54, 79
2, 227190, Note_on_c, 0, 75, 0
2, 227191, Note_on_c, 0, 63, 0
2, 227191, Note_on_c, 0, 83, 0
2, 227191, Note_on_c, 0, 71, 0
2, 227191, Note_on_c, 0, 54, 0
2, 227196, Control_c, 0, 64, 0
2, 227205, Note_on_c, 0, 73, 0
2, 227212, Note_on_c, 0, 35, 0
2, 227212, Note_on_c, 0, 47, 0
2, 227212, Note_on_c, 0, 85, 0
2, 227215, Note_on_c, 0, 73, 96
2, 227222, Note_on_c, 0, 30, 89
2, 227223, Note_on_c, 0, 42, 88
2, 227312, Control_c, 0, 64, 127
2, 227458, Note_on_c, 0, 30, 0
2, 227458, Note_on_c, 0, 42, 0
2, 227464, Note_on_c, 0, 42, 75
2, 227467, Note_on_c, 0, 30, 59
2, 227576, Note_on_c, 0, 71, 90
2, 227703, Note_on_c, 0, 49, 69
2, 227705, Note_on_c, 0, 61, 64
2, 227712, Note_on_c, 0, 30, 0
2, 227819, Note_on_c, 0, 42, 0
2, 227819, Note_on_c, 0, 71, 0
2, 227821, Control_c, 0, 64, 0
2, 227821, Note_on_c, 0, 49, 0
2, 227823, Note_on_c, 0, 73, 0
2, 227827, Note_on_c, 0, 42, 72
2, 227829, Note_on_c, 0, 54, 85
2, 227829, Note_on_c, 0, 71, 96
2, 227841, Note_on_c, 0, 66, 78
2, 227880, Control_c, 0, 64, 127
2, 227938, Note_on_c, 0, 49, 84
2, 227942, Note_on_c, 0, 61, 0
2, 227944, Note_on_c, 0, 73, 87
2, 227952, Note_on_c, 0, 61, 79
2, 228057, Note_on_c, 0, 42, 0
2, 228065, Note_on_c, 0, 75, 94
2, 228068, Note_on_c, 0, 42, 87
2, 228069, Note_on_c, 0, 30, 77
2, 228080, Note_on_c, 0, 30, 0
2, 228188, Note_on_c, 0, 73, 0
2, 228193, Note_on_c, 0, 73, 99
2, 228203, Note_on_c, 0, 49, 0
2, 228208, Note_on_c, 0, 49, 73
2, 228213, Note_on_c, 0, 68, 84
2, 228213, Note_on_c, 0, 64, 84
2, 228222, Control_c, 0, 64, 0
2, 228223, Note_on_c, 0, 66, 0
2, 228224, Note_on_c, 0, 54, 0
2, 228224, Note_on_c, 0, 71, 0
2, 228226, Note_on_c, 0, 75, 0
2, 228229, Note_on_c, 0, 61, 0
2, 228241, Note_on_c, 0, 42, 0
2, 228241, Note_on_c, 0, 49, 0
2, 228323, Note_on_c, 0, 40, 89
2, 228325, Note_on_c, 0, 52, 88
2, 228341, Control_c, 0, 64, 127
2, 228463, Note_on_c, 0, 71, 88
2, 228572, Note_on_c, 0, 71, 0
2, 228581, Note_on_c, 0, 71, 89
2, 228700, Note_on_c, 0, 59, 82
2, 228700, Note_on_c, 0, 56, 77
2, 228825, Note_on_c, 0, 71, 0
2, 228829, Note_on_c, 0, 71, 96
2, 228940, Note_on_c, 0, 73, 0
2, 228945, Note_on_c, 0, 73, 94
2, 228948, Note_on_c, 0, 52, 0
2, 228956, Note_on_c, 0, 52, 81
2, 229060, Note_on_c, 0, 75, 98
2, 229071, Note_on_c, 0, 68, 0
2, 229075, Note_on_c, 0, 68, 68
2, 229079, Note_on_c, 0, 40, 0
2, 229084, Note_on_c, 0, 40, 81
2, 229186, Note_on_c, 0, 73, 0
2, 229191, Note_on_c, 0, 73, 103
2, 229203, Note_on_c, 0, 67, 91
2, 229204, Note_on_c, 0, 63, 86
2, 229214, Control_c, 0, 64, 0
2, 229215, Note_on_c, 0, 56, 0
2, 229216, Note_on_c, 0, 71, 0
2, 229216, Note_on_c, 0, 68, 0
2, 229216, Note_on_c, 0, 59, 0
2, 229216, Note_on_c, 0, 64, 0
2, 229218, Note_on_c, 0, 75, 0
2, 229218, Note_on_c, 0, 52, 0
2, 229219, Note_on_c, 0, 40, 0
2, 229332, Note_on_c, 0, 39, 88
2, 229355, Control_c, 0, 64, 127
2, 229460, Note_on_c, 0, 71, 93
2, 229555, Note_on_c, 0, 39, 0
2, 229560, Note_on_c, 0, 39, 85
2, 229562, Note_on_c, 0, 27, 79
2, 229570, Note_on_c, 0, 27, 0
2, 229570, Note_on_c, 0, 71, 0
2, 229578, Note_on_c, 0, 67, 0
2, 229581, Note_on_c, 0, 71, 89
2, 229589, Note_on_c, 0, 67, 67
2, 229670, Note_on_c, 0, 39, 0
2, 229674, Note_on_c, 0, 39, 72
2, 229696, Note_on_c, 0, 70, 86
2, 229747, Note_on_c, 0, 39, 0
2, 229747, Note_on_c, 0, 71, 0
2, 229751, Control_c, 0, 64, 0
2, 229753, Note_on_c, 0, 70, 0
2, 229754, Note_on_c, 0, 67, 0
2, 229755, Note_on_c, 0, 63, 0
2, 229758, Note_on_c, 0, 39, 80
2, 229758, Note_on_c, 0, 71, 80
2, 229762, Note_on_c, 0, 43, 86
2, 229770, Note_on_c, 0, 73, 0
2, 229777, Note_on_c, 0, 39, 0
2, 229795, Note_on_c, 0, 78, 102
2, 229822, Note_on_c, 0, 43, 0
2, 229823, Note_on_c, 0, 71, 0
2, 229834, Note_on_c, 0, 78, 0
2, 229972, Note_on_c, 0, 73, 100
2, 229975, Note_on_c, 0, 39, 81
2, 229976, Note_on_c, 0, 63, 80
2, 230010, Note_on_c, 0, 39, 0
2, 230017, Note_on_c, 0, 73, 0
2, 230054, Note_on_c, 0, 63, 0
2, 230122, Note_on_c, 0, 75, 96
2, 230125, Note_on_c, 0, 39, 82
2, 230158, Note_on_c, 0, 39, 0
2, 230164, Note_on_c, 0, 75, 0
2, 230284, Note_on_c, 0, 73, 107
2, 230295, Note_on_c, 0, 32, 89
2, 230297, Note_on_c, 0, 68, 76
2, 230297, Note_on_c, 0, 63, 87
2, 230302, Note_on_c, 0, 66, 84
2, 230307, Control_c, 0, 64, 127
2, 230645, Note_on_c, 0, 32, 0
2, 230654, Note_on_c, 0, 32, 71
2, 230656, Note_on_c, 0, 71, 87
2, 230656, Note_on_c, 0, 51, 67
2, 230661, Note_on_c, 0, 51, 0
2, 230784, Note_on_c, 0, 63, 0
2, 230784, Note_on_c, 0, 71, 0
2, 230788, Note_on_c, 0, 59, 87
2, 230789, Note_on_c, 0, 71, 89
2, 230789, Note_on_c, 0, 63, 92
2, 230794, Note_on_c, 0, 54, 87
2, 230795, Note_on_c, 0, 66, 0
2, 231022, Note_on_c, 0, 32, 0
2, 231027, Note_on_c, 0, 32, 62
2, 231029, Note_on_c, 0, 44, 67
2, 231171, Note_on_c, 0, 44, 0
2, 231172, Control_c, 0, 64, 0
2, 231175, Note_on_c, 0, 32, 0
2, 231178, Note_on_c, 0, 54, 0
2, 231178, Note_on_c, 0, 63, 0
2, 231179, Note_on_c, 0, 61, 88
2, 231183, Note_on_c, 0, 68, 0
2, 231184, Note_on_c, 0, 49, 87
2, 231186, Note_on_c, 0, 37, 85
2, 231206, Note_on_c, 0, 59, 0
2, 231206, Note_on_c, 0, 73, 0
2, 231306, Note_on_c, 0, 61, 0
2, 231413, Control_c, 0, 64, 127
2, 231421, Note_on_c, 0, 44, 71
2, 231542, Note_on_c, 0, 59, 86
2, 231674, Note_on_c, 0, 49, 0
2, 231682, Note_on_c, 0, 49, 76
2, 231787, Note_on_c, 0, 83, 111
2, 231790, Note_on_c, 0, 71, 0
2, 231794, Note_on_c, 0, 71, 102
2, 231797, Note_on_c, 0, 59, 0
2, 231800, Note_on_c, 0, 53, 88
2, 231800, Note_on_c, 0, 68, 89
2, 231804, Note_on_c, 0, 59, 92
2, 231828, Control_c, 0, 64, 0
2, 231912, Control_c, 0, 64, 127
2, 231913, Note_on_c, 0, 85, 102
2, 231915, Note_on_c, 0, 73, 98
2, 232034, Note_on_c, 0, 87, 102
2, 232038, Note_on_c, 0, 75, 97
2, 232151, Note_on_c, 0, 85, 0
2, 232158, Note_on_c, 0, 73, 0
2, 232160, Note_on_c, 0, 85, 112
2, 232168, Note_on_c, 0, 79, 89
2, 232168, Note_on_c, 0, 73, 98
2, 232170, Note_on_c, 0, 76, 96
2, 232171, Note_on_c, 0, 80, 75
2, 232204, Note_on_c, 0, 68, 0
2, 232205, Note_on_c, 0, 87, 0
2, 232208, Note_on_c, 0, 59, 0
2, 232208, Note_on_c, 0, 71, 0
2, 232208, Note_on_c, 0, 37, 0
2, 232208, Note_on_c, 0, 53, 0
2, 232208, Note_on_c, 0, 83, 0
2, 232208, Control_c, 0, 64, 0
2, 232209, Note_on_c, 0, 75, 0
2, 232220, Note_on_c, 0, 44, 0
2, 232220, Note_on_c, 0, 49, 0
2, 232276, Note_on_c, 0, 68, 88
2, 232277, Note_on_c, 0, 47, 100
2, 232278, Note_on_c, 0, 40, 95
2, 232279, Note_on_c, 0, 52, 106
2, 232281, Control_c, 0, 64, 127
2, 232396, Note_on_c, 0, 40, 0
2, 232396, Note_on_c, 0, 47, 0
2, 232396, Note_on_c, 0, 52, 0
2, 232404, Note_on_c, 0, 47, 82
2, 232405, Note_on_c, 0, 40, 90
2, 232406, Note_on_c, 0, 52, 92
2, 232495, Control_c, 0, 64, 0
2, 232500, Note_on_c, 0, 40, 0
2, 232503, Note_on_c, 0, 47, 0
2, 232512, Note_on_c, 0, 73, 0
2, 232512, Note_on_c, 0, 85, 0
2, 232519, Note_on_c, 0, 80, 0
2, 232527, Note_on_c, 0, 68, 0
2, 232527, Note_on_c, 0, 76, 0
2, 232527, Note_on_c, 0, 79, 0
2, 232530, Note_on_c, 0, 83, 103
2, 232532, Note_on_c, 0, 71, 96
2, 232534, Note_on_c, 0, 79, 86
2, 232536, Note_on_c, 0, 76, 87
2, 232550, Note_on_c, 0, 52, 0
2, 232567, Note_on_c, 0, 76, 0
2, 232568, Note_on_c, 0, 79, 0
2, 232568, Note_on_c, 0, 71, 0
2, 232572, Note_on_c, 0, 83, 0
2, 232767, Note_on_c, 0, 83, 105
2, 232769, Note_on_c, 0, 71, 94
2, 232826, Control_c, 0, 64, 127
2, 232901, Note_on_c, 0, 85, 101
2, 232906, Note_on_c, 0, 73, 89
2, 233015, Note_on_c, 0, 87, 101
2, 233026, Note_on_c, 0, 75, 82
2, 233069, Note_on_c, 0, 75, 0
2, 233070, Note_on_c, 0, 73, 0
2, 233070, Note_on_c, 0, 85, 0
2, 233070, Note_on_c, 0, 83, 0
2, 233072, Control_c, 0, 64, 0
2, 233072, Note_on_c, 0, 87, 0
2, 233080, Note_on_c, 0, 71, 0
2, 233139, Note_on_c, 0, 85, 106
2, 233144, Note_on_c, 0, 78, 99
2, 233144, Note_on_c, 0, 42, 92
2, 233144, Note_on_c, 0, 49, 86
2, 233145, Note_on_c, 0, 54, 96
2, 233145, Note_on_c, 0, 73, 101
2, 233148, Note_on_c, 0, 82, 80
2, 233180, Control_c, 0, 64, 127
2, 233380, Note_on_c, 0, 30, 90
2, 233455, Note_on_c, 0, 54, 0
2, 233456, Note_on_c, 0, 42, 0
2, 233463, Note_on_c, 0, 42, 75
2, 233487, Note_on_c, 0, 30, 0
2, 233491, Note_on_c, 0, 30, 85
2, 233506, Note_on_c, 0, 83, 104
2, 233510, Note_on_c, 0, 78, 0
2, 233514, Note_on_c, 0, 71, 99
2, 233514, Note_on_c, 0, 78, 92
2, 233600, Note_on_c, 0, 85, 0
2, 233602, Note_on_c, 0, 82, 0
2, 233603, Note_on_c, 0, 73, 0
2, 233604, Note_on_c, 0, 30, 0
2, 233604, Note_on_c, 0, 78, 0
2, 233605, Note_on_c, 0, 71, 0
2, 233605, Note_on_c, 0, 83, 0
2, 233605, Note_on_c, 0, 42, 0
2, 233606, Note_on_c, 0, 49, 0
2, 233615, Control_c, 0, 64, 0
2, 233746, Note_on_c, 0, 71, 97
2, 233866, Note_on_c, 0, 73, 95
2, 233879, Control_c, 0, 64, 127
2, 233990, Note_on_c, 0, 75, 99
2, 234152, Note_on_c, 0, 73, 0
2, 234152, Note_on_c, 0, 71, 0
2, 234152, Control_c, 0, 64, 0
2, 234153, Note_on_c, 0, 75, 0
2, 234259, Note_on_c, 0, 73, 96
2, 234273, Note_on_c, 0, 66, 85
2, 234274, Note_on_c, 0, 64, 85
2, 234332, Note_on_c, 0, 64, 0
2, 234355, Control_c, 0, 64, 127
2, 234639, Note_on_c, 0, 71, 80
2, 234741, Control_c, 0, 64, 0
2, 234742, Note_on_c, 0, 66, 0
2, 234746, Note_on_c, 0, 73, 0
2, 234762, Note_on_c, 0, 71, 0
2, 234770, Note_on_c, 0, 71, 94
2, 234782, Note_on_c, 0, 66, 87
2, 234786, Note_on_c, 0, 63, 77
2, 234869, Control_c, 0, 64, 127
2, 235038, Note_on_c, 0, 61, 72
2, 235169, Note_on_c, 0, 63, 0
2, 235173, Note_on_c, 0, 63, 82
2, 235431, Note_on_c, 0, 59, 73
2, 235463, Note_on_c, 0, 54, 75
2, 235491, Note_on_c, 0, 63, 0
2, 235497, Note_on_c, 0, 63, 75
2, 235573, Note_on_c, 0, 64, 88
2, 235592, Note_on_c, 0, 52, 73
2, 235622, Note_on_c, 0, 66, 0
2, 235630, Note_on_c, 0, 66, 78
2, 235676, Note_on_c, 0, 51, 79
2, 235722, Note_on_c, 0, 71, 0
2, 235731, Note_on_c, 0, 71, 78
2, 235770, Note_on_c, 0, 75, 88
2, 235801, Note_on_c, 0, 47, 86
2, 235807, Note_on_c, 0, 76, 87
2, 235821, Note_on_c, 0, 78, 78
2, 235888, Note_on_c, 0, 83, 102
2, 235916, Note_on_c, 0, 42, 91
2, 235924, Note_on_c, 0, 87, 87
2, 235962, Note_on_c, 0, 88, 87
2, 236001, Note_on_c, 0, 90, 73
2, 236020, Note_on_c, 0, 95, 107
2, 236031, Note_on_c, 0, 93, 85
2, 236039, Note_on_c, 0, 35, 79
2, 236209, Note_on_c, 0, 42, 0
2, 236209, Note_on_c, 0, 47, 0
2, 236209, Note_on_c, 0, 87, 0
2, 236209, Note_on_c, 0, 75, 0
2, 236209, Note_on_c, 0, 63, 0
2, 236209, Note_on_c, 0, 59, 0
2, 236209, Note_on_c, 0, 66, 0
2, 236209, Note_on_c, 0, 35, 0
2, 236210, Note_on_c, 0, 90, 0
2, 236210, Note_on_c, 0, 76, 0
2, 236210, Note_on_c, 0, 64, 0
2, 236210, Note_on_c, 0, 83, 0
2, 236210, Note_on_c, 0, 95, 0
2, 236210, Note_on_c, 0, 52, 0
2, 236210, Note_on_c, 0, 78, 0
2, 236210, Note_on_c, 0, 88, 0
2, 236211, Control_c, 0, 64, 0
2, 236213, Note_on_c, 0, 61, 0
2, 236213, Note_on_c, 0, 93, 0
2, 236221, Note_on_c, 0, 71, 0
2, 236236, Note_on_c, 0, 51, 0
2, 236244, Note_on_c, 0, 54, 0
2, 236246, Note_on_c, 0, 51, 98
2, 236248, Note_on_c, 0, 61, 96
2, 236248, Note_on_c, 0, 44, 90
2, 236249, Note_on_c, 0, 54, 105
2, 236313, Note_on_c, 0, 61, 0
2, 236326, Note_on_c, 0, 63, 84
2, 236336, Control_c, 0, 64, 127
2, 236397, Note_on_c, 0, 66, 95
2, 236401, Note_on_c, 0, 68, 59
2, 236405, Note_on_c, 0, 68, 0
2, 236476, Note_on_c, 0, 71, 96
2, 236605, Note_on_c, 0, 54, 0
2, 236605, Note_on_c, 0, 63, 0
2, 236605, Note_on_c, 0, 66, 0
2, 236609, Note_on_c, 0, 71, 0
2, 236609, Control_c, 0, 64, 0
2, 236609, Note_on_c, 0, 44, 0
2, 236610, Note_on_c, 0, 47, 88
2, 236610, Note_on_c, 0, 52, 101
2, 236610, Note_on_c, 0, 40, 98
2, 236613, Note_on_c, 0, 51, 0
2, 236615, Note_on_c, 0, 68, 87
2, 236616, Note_on_c, 0, 66, 95
2, 236616, Note_on_c, 0, 63, 82
2, 236636, Note_on_c, 0, 63, 0
2, 236659, Note_on_c, 0, 47, 0
2, 236670, Note_on_c, 0, 52, 0
2, 236712, Control_c, 0, 64, 127
2, 236723, Note_on_c, 0, 47, 89
2, 236727, Note_on_c, 0, 73, 93
2, 236743, Note_on_c, 0, 66, 0
2, 236845, Note_on_c, 0, 66, 89
2, 236958, Note_on_c, 0, 47, 0
2, 236965, Note_on_c, 0, 47, 87
2, 236966, Note_on_c, 0, 40, 0
2, 236968, Note_on_c, 0, 75, 95
2, 236969, Note_on_c, 0, 71, 92
2, 236974, Note_on_c, 0, 40, 76
2, 237040, Note_on_c, 0, 66, 0
2, 237040, Note_on_c, 0, 73, 0
2, 237040, Note_on_c, 0, 71, 0
2, 237040, Note_on_c, 0, 68, 0
2, 237041, Note_on_c, 0, 40, 0
2, 237041, Note_on_c, 0, 47, 0
2, 237042, Note_on_c, 0, 75, 0
2, 237046, Control_c, 0, 64, 0
2, 237098, Note_on_c, 0, 78, 109
2, 237100, Note_on_c, 0, 66, 107
2, 237100, Note_on_c, 0, 42, 98
2, 237235, Control_c, 0, 64, 127
2, 237335, Note_on_c, 0, 42, 0
2, 237345, Note_on_c, 0, 42, 85
2, 237346, Note_on_c, 0, 30, 86
2, 237465, Note_on_c, 0, 66, 0
2, 237469, Note_on_c, 0, 75, 100
2, 237471, Note_on_c, 0, 66, 92
2, 237592, Note_on_c, 0, 49, 55
2, 237598, Note_on_c, 0, 54, 54
2, 237603, Note_on_c, 0, 49, 0
2, 237657, Note_on_c, 0, 75, 0
2, 237667, Note_on_c, 0, 75, 82
2, 237714, Note_on_c, 0, 76, 101
2, 237716, Note_on_c, 0, 59, 91
2, 237818, Note_on_c, 0, 75, 0
2, 237826, Note_on_c, 0, 54, 0
2, 237829, Note_on_c, 0, 75, 94
2, 237830, Note_on_c, 0, 54, 82
2, 237953, Note_on_c, 0, 71, 101
2, 238164, Note_on_c, 0, 30, 0
2, 238166, Note_on_c, 0, 66, 0
2, 238167, Note_on_c, 0, 78, 0
2, 238167, Note_on_c, 0, 71, 0
2, 238167, Note_on_c, 0, 59, 0
2, 238167, Note_on_c, 0, 76, 0
2, 238168, Control_c, 0, 64, 0
2, 238179, Note_on_c, 0, 42, 0
2, 238187, Note_on_c, 0, 75, 0
2, 238195, Note_on_c, 0, 54, 0
2, 238205, Note_on_c, 0, 51, 90
2, 238205, Note_on_c, 0, 54, 98
2, 238206, Note_on_c, 0, 61, 87
2, 238207, Note_on_c, 0, 44, 84
2, 238272, Note_on_c, 0, 63, 89
2, 238287, Control_c, 0, 64, 127
2, 238359, Note_on_c, 0, 66, 89
2, 238429, Note_on_c, 0, 71, 91
2, 238562, Control_c, 0, 64, 0
2, 238562, Note_on_c, 0, 61, 0
2, 238563, Note_on_c, 0, 47, 87
2, 238563, Note_on_c, 0, 66, 0
2, 238565, Note_on_c, 0, 71, 0
2, 238566, Note_on_c, 0, 40, 92
2, 238566, Note_on_c, 0, 63, 0
2, 238566, Note_on_c, 0, 68, 83
2, 238567, Note_on_c, 0, 52, 94
2, 238571, Note_on_c, 0, 44, 0
2, 238571, Note_on_c, 0, 51, 0
2, 238572, Note_on_c, 0, 66, 91
2, 238572, Note_on_c, 0, 42, 82
2, 238579, Note_on_c, 0, 54, 0
2, 238583, Note_on_c, 0, 64, 75
2, 238609, Note_on_c, 0, 42, 0
2, 238609, Note_on_c, 0, 47, 0
2, 238621, Note_on_c, 0, 52, 0
2, 238671, Control_c, 0, 64, 127
2, 238689, Note_on_c, 0, 73, 95
2, 238697, Note_on_c, 0, 47, 82
2, 238794, Note_on_c, 0, 66, 0
2, 238803, Note_on_c, 0, 66, 89
2, 238894, Note_on_c, 0, 47, 0
2, 238899, Note_on_c, 0, 47, 76
2, 238914, Note_on_c, 0, 75, 93
2, 238918, Note_on_c, 0, 71, 89
2, 238999, Note_on_c, 0, 73, 0
2, 239000, Note_on_c, 0, 66, 0
2, 239000, Note_on_c, 0, 71, 0
2, 239001, Note_on_c, 0, 47, 0
2, 239001, Note_on_c, 0, 64, 0
2, 239001, Note_on_c, 0, 68, 0
2, 239001, Note_on_c, 0, 75, 0
2, 239001, Note_on_c, 0, 40, 0
2, 239003, Control_c, 0, 64, 0
2, 239046, Note_on_c, 0, 42, 95
2, 239050, Note_on_c, 0, 76, 109
2, 239050, Note_on_c, 0, 66, 100
2, 239147, Control_c, 0, 64, 127
2, 239297, Note_on_c, 0, 59, 85
2, 239298, Note_on_c, 0, 54, 85
2, 239303, Note_on_c, 0, 71, 78
2, 239424, Note_on_c, 0, 71, 0
2, 239433, Note_on_c, 0, 75, 99
2, 239435, Note_on_c, 0, 71, 85
2, 239539, Note_on_c, 0, 42, 0
2, 239544, Note_on_c, 0, 72, 73
2, 239545, Note_on_c, 0, 42, 85
2, 239546, Note_on_c, 0, 76, 0
2, 239549, Note_on_c, 0, 30, 88
2, 239555, Note_on_c, 0, 76, 75
2, 239672, Note_on_c, 0, 78, 106
2, 239677, Note_on_c, 0, 66, 0
2, 239677, Note_on_c, 0, 71, 0
2, 239681, Note_on_c, 0, 71, 81
2, 239683, Note_on_c, 0, 66, 95
2, 239907, Note_on_c, 0, 59, 0
2, 239907, Note_on_c, 0, 71, 0
2, 239915, Note_on_c, 0, 54, 0
2, 239917, Note_on_c, 0, 59, 91
2, 239917, Note_on_c, 0, 71, 101
2, 239919, Note_on_c, 0, 54, 89
2, 239922, Note_on_c, 0, 47, 69
2, 240126, Note_on_c, 0, 42, 0
2, 240126, Note_on_c, 0, 47, 0
2, 240127, Note_on_c, 0, 66, 0
2, 240127, Note_on_c, 0, 71, 0
2, 240127, Note_on_c, 0, 76, 0
2, 240128, Note_on_c, 0, 75, 0
2, 240128, Note_on_c, 0, 78, 0
2, 240130, Note_on_c, 0, 30, 0
2, 240133, Control_c, 0, 64, 0
2, 240145, Note_on_c, 0, 59, 0
2, 240153, Note_on_c, 0, 72, 0
2, 240161, Note_on_c, 0, 54, 0
2, 240170, Note_on_c, 0, 54, 98
2, 240170, Note_on_c, 0, 73, 102
2, 240172, Note_on_c, 0, 51, 96
2, 240172, Note_on_c, 0, 44, 92
2, 240230, Control_c, 0, 64, 127
2, 240236, Note_on_c, 0, 75, 99
2, 240315, Note_on_c, 0, 78, 94
2, 240387, Note_on_c, 0, 83, 101
2, 240489, Note_on_c, 0, 44, 0
2, 240490, Note_on_c, 0, 51, 0
2, 240491, Note_on_c, 0, 54, 0
2, 240492, Note_on_c, 0, 73, 0
2, 240492, Note_on_c, 0, 83, 0
2, 240493, Note_on_c, 0, 75, 0
2, 240493, Control_c, 0, 64, 0
2, 240510, Note_on_c, 0, 52, 99
2, 240514, Note_on_c, 0, 40, 93
2, 240514, Note_on_c, 0, 78, 0
2, 240523, Note_on_c, 0, 78, 98
2, 240583, Control_c, 0, 64, 127
2, 240634, Note_on_c, 0, 47, 87
2, 240640, Note_on_c, 0, 85, 101
2, 240752, Note_on_c, 0, 78, 0
2, 240760, Note_on_c, 0, 78, 98
2, 240875, Note_on_c, 0, 47, 0
2, 240879, Note_on_c, 0, 47, 87
2, 240882, Note_on_c, 0, 83, 99
2, 240885, Note_on_c, 0, 87, 99
2, 240942, Note_on_c, 0, 78, 0
2, 240942, Control_c, 0, 64, 0
2, 240945, Note_on_c, 0, 85, 0
2, 240946, Note_on_c, 0, 47, 0
2, 240946, Note_on_c, 0, 52, 0
2, 240947, Note_on_c, 0, 83, 0
2, 240952, Note_on_c, 0, 40, 0
2, 240955, Note_on_c, 0, 87, 0
2, 241009, Note_on_c, 0, 78, 109
2, 241010, Note_on_c, 0, 90, 105
2, 241010, Note_on_c, 0, 42, 98
2, 241013, Note_on_c, 0, 54, 95
2, 241059, Control_c, 0, 64, 127
2, 241244, Note_on_c, 0, 42, 0
2, 241252, Note_on_c, 0, 30, 91
2, 241254, Note_on_c, 0, 42, 80
2, 241367, Note_on_c, 0, 78, 0
2, 241371, Note_on_c, 0, 78, 97
2, 241371, Note_on_c, 0, 87, 101
2, 241489, Note_on_c, 0, 42, 0
2, 241489, Note_on_c, 0, 54, 0
2, 241493, Note_on_c, 0, 42, 83
2, 241494, Note_on_c, 0, 54, 69
2, 241614, Note_on_c, 0, 88, 103
2, 241615, Note_on_c, 0, 47, 71
2, 241616, Note_on_c, 0, 59, 87
2, 241620, Note_on_c, 0, 47, 0
2, 241622, Note_on_c, 0, 49, 72
2, 241628, Note_on_c, 0, 49, 0
2, 241720, Note_on_c, 0, 54, 0
2, 241728, Note_on_c, 0, 87, 0
2, 241731, Note_on_c, 0, 54, 80
2, 241732, Note_on_c, 0, 87, 101
2, 241850, Note_on_c, 0, 42, 0
2, 241850, Note_on_c, 0, 54, 0
2, 241857, Note_on_c, 0, 83, 104
2, 241860, Note_on_c, 0, 54, 64
2, 241861, Note_on_c, 0, 42, 74
2, 241966, Note_on_c, 0, 78, 0
2, 241971, Note_on_c, 0, 78, 95
2, 242067, Note_on_c, 0, 30, 0
2, 242068, Note_on_c, 0, 88, 0
2, 242068, Note_on_c, 0, 59, 0
2, 242069, Note_on_c, 0, 54, 0
2, 242069, Note_on_c, 0, 83, 0
2, 242072, Control_c, 0, 64, 0
2, 242081, Note_on_c, 0, 90, 0
2, 242088, Note_on_c, 0, 42, 0
2, 242088, Note_on_c, 0, 78, 0
2, 242088, Note_on_c, 0, 87, 0
2, 242093, Note_on_c, 0, 78, 97
2, 242093, Note_on_c, 0, 87, 99
2, 242095, Note_on_c, 0, 52, 90
2, 242099, Note_on_c, 0, 40, 89
2, 242161, Note_on_c, 0, 90, 93
2, 242188, Control_c, 0, 64, 127
2, 242242, Note_on_c, 0, 87, 0
2, 242244, Note_on_c, 0, 47, 70
2, 242248, Note_on_c, 0, 87, 87
2, 242342, Note_on_c, 0, 52, 0
2, 242343, Note_on_c, 0, 85, 87
2, 242348, Note_on_c, 0, 52, 69
2, 242454, Note_on_c, 0, 83, 92
2, 242492, Note_on_c, 0, 54, 70
2, 242588, Note_on_c, 0, 78, 0
2, 242588, Note_on_c, 0, 85, 0
2, 242593, Note_on_c, 0, 85, 99
2, 242595, Note_on_c, 0, 78, 95
2, 242597, Note_on_c, 0, 59, 89
2, 242703, Note_on_c, 0, 52, 0
2, 242714, Note_on_c, 0, 52, 70
2, 242818, Note_on_c, 0, 54, 0
2, 242818, Note_on_c, 0, 83, 0
2, 242823, Note_on_c, 0, 83, 93
2, 242828, Note_on_c, 0, 54, 73
2, 242941, Note_on_c, 0, 90, 0
2, 242945, Note_on_c, 0, 90, 104
2, 242949, Note_on_c, 0, 59, 0
2, 242952, Note_on_c, 0, 64, 91
2, 242958, Note_on_c, 0, 59, 88
2, 242964, Note_on_c, 0, 85, 0
2, 242975, Note_on_c, 0, 85, 90
2, 243048, Note_on_c, 0, 83, 0
2, 243055, Note_on_c, 0, 83, 92
2, 243102, Note_on_c, 0, 78, 0
2, 243106, Note_on_c, 0, 78, 69
2, 243198, Note_on_c, 0, 73, 79
2, 243260, Note_on_c, 0, 71, 63
2, 243264, Note_on_c, 0, 40, 0
2, 243270, Note_on_c, 0, 40, 49
2, 243287, Note_on_c, 0, 78, 0
2, 243293, Note_on_c, 0, 42, 60
2, 243294, Note_on_c, 0, 78, 96
2, 243302, Note_on_c, 0, 42, 0
2, 243363, Note_on_c, 0, 73, 0
2, 243369, Note_on_c, 0, 73, 77
2, 243448, Note_on_c, 0, 71, 0
2, 243457, Note_on_c, 0, 71, 72
2, 243535, Note_on_c, 0, 66, 96
2, 243548, Note_on_c, 0, 64, 0
2, 243552, Note_on_c, 0, 64, 87
2, 243663, Note_on_c, 0, 59, 0
2, 243674, Note_on_c, 0, 59, 89
2, 243786, Note_on_c, 0, 54, 0
2, 243793, Note_on_c, 0, 54, 74
2, 243878, Note_on_c, 0, 52, 0
2, 243884, Note_on_c, 0, 52, 75
2, 243994, Note_on_c, 0, 40, 0
2, 243995, Note_on_c, 0, 71, 0
2, 243995, Note_on_c, 0, 90, 0
2, 243995, Note_on_c, 0, 47, 0
2, 243995, Note_on_c, 0, 52, 0
2, 243995, Note_on_c, 0, 66, 0
2, 243995, Note_on_c, 0, 59, 0
2, 243995, Note_on_c, 0, 78, 0
2, 243995, Note_on_c, 0, 73, 0
2, 243995, Note_on_c, 0, 64, 0
2, 243995, Note_on_c, 0, 87, 0
2, 243996, Note_on_c, 0, 83, 0
2, 243996, Note_on_c, 0, 85, 0
2, 243996, Control_c, 0, 64, 0
2, 244039, Note_on_c, 0, 54, 0
2, 244047, Note_on_c, 0, 54, 102
2, 244050, Note_on_c, 0, 44, 83
2, 244050, Note_on_c, 0, 51, 93
2, 244053, Note_on_c, 0, 61, 90
2, 244116, Control_c, 0, 64, 127
2, 244126, Note_on_c, 0, 63, 96
2, 244208, Note_on_c, 0, 66, 91
2, 244268, Note_on_c, 0, 71, 94
2, 244374, Note_on_c, 0, 63, 0
2, 244374, Control_c, 0, 64, 0
2, 244375, Note_on_c, 0, 71, 0
2, 244385, Note_on_c, 0, 44, 0
2, 244385, Note_on_c, 0, 51, 0
2, 244385, Note_on_c, 0, 54, 0
2, 244385, Note_on_c, 0, 61, 0
2, 244392, Note_on_c, 0, 66, 0
2, 244401, Note_on_c, 0, 52, 101
2, 244402, Note_on_c, 0, 68, 86
2, 244403, Note_on_c, 0, 40, 100
2, 244404, Note_on_c, 0, 66, 96
2, 244405, Note_on_c, 0, 64, 87
2, 244416, Note_on_c, 0, 64, 0
2, 244458, Note_on_c, 0, 66, 0
2, 244485, Control_c, 0, 64, 127
2, 244527, Note_on_c, 0, 47, 91
2, 244528, Note_on_c, 0, 73, 96
2, 244649, Note_on_c, 0, 66, 95
2, 244746, Note_on_c, 0, 47, 0
2, 244755, Note_on_c, 0, 47, 95
2, 244767, Note_on_c, 0, 75, 98
2, 244768, Note_on_c, 0, 71, 93
2, 244807, Note_on_c, 0, 66, 0
2, 244808, Note_on_c, 0, 68, 0
2, 244809, Note_on_c, 0, 73, 0
2, 244810, Note_on_c, 0, 52, 0
2, 244811, Note_on_c, 0, 40, 0
2, 244811, Control_c, 0, 64, 0
2, 244814, Note_on_c, 0, 47, 0
2, 244819, Note_on_c, 0, 71, 0
2, 244822, Note_on_c, 0, 75, 0
2, 244895, Note_on_c, 0, 78, 113
2, 244896, Note_on_c, 0, 42, 100
2, 244901, Note_on_c, 0, 66, 108
2, 244976, Control_c, 0, 64, 127
2, 245133, Note_on_c, 0, 30, 93
2, 245214, Note_on_c, 0, 30, 0
2, 245219, Note_on_c, 0, 30, 83
2, 245225, Note_on_c, 0, 42, 0
2, 245276, Note_on_c, 0, 66, 0
2, 245287, Note_on_c, 0, 75, 105
2, 245287, Note_on_c, 0, 66, 98
2, 245339, Note_on_c, 0, 78, 0
2, 245341, Control_c, 0, 64, 0
2, 245341, Note_on_c, 0, 66, 0
2, 245341, Note_on_c, 0, 30, 0
2, 245346, Note_on_c, 0, 75, 0
2, 245492, Note_on_c, 0, 75, 84
2, 245536, Note_on_c, 0, 76, 106
2, 245552, Note_on_c, 0, 75, 0
2, 245659, Note_on_c, 0, 75, 102
2, 245672, Note_on_c, 0, 76, 0
2, 245698, Control_c, 0, 64, 127
2, 245785, Note_on_c, 0, 71, 98
2, 246010, Note_on_c, 0, 35, 68
2, 246017, Note_on_c, 0, 42, 68
2, 246044, Note_on_c, 0, 71, 0
2, 246055, Note_on_c, 0, 71, 104
2, 246058, Note_on_c, 0, 59, 91
2, 246059, Note_on_c, 0, 47, 82
2, 246063, Note_on_c, 0, 63, 87
2, 246069, Note_on_c, 0, 66, 91
2, 246074, Control_c, 0, 64, 0
2, 246096, Note_on_c, 0, 75, 0
2, 246205, Note_on_c, 0, 35, 0
2, 246205, Control_c, 0, 64, 127
2, 246573, Note_on_c, 0, 61, 74
2, 246827, Note_on_c, 0, 59, 0
2, 246832, Note_on_c, 0, 59, 69
2, 246942, Note_on_c, 0, 63, 0
2, 246947, Note_on_c, 0, 63, 82
2, 247195, Note_on_c, 0, 54, 65
2, 247319, Note_on_c, 0, 59, 0
2, 247324, Note_on_c, 0, 59, 72
2, 247464, Note_on_c, 0, 47, 0
2, 247474, Note_on_c, 0, 47, 64
2, 247572, Note_on_c, 0, 54, 0
2, 247580, Note_on_c, 0, 54, 63
2, 247833, Note_on_c, 0, 42, 0
2, 247843, Note_on_c, 0, 42, 66
2, 248084, Note_on_c, 0, 55, 85
2, 248094, Note_on_c, 0, 47, 0
2, 248096, Note_on_c, 0, 35, 78
2, 248098, Note_on_c, 0, 52, 67
2, 248099, Note_on_c, 0, 47, 69
2, 248105, Control_c, 0, 64, 0
2, 248107, Note_on_c, 0, 59, 0
2, 248108, Note_on_c, 0, 54, 0
2, 248110, Note_on_c, 0, 63, 0
2, 248110, Note_on_c, 0, 42, 0
2, 248111, Note_on_c, 0, 61, 0
2, 248111, Note_on_c, 0, 66, 0
2, 248156, Note_on_c, 0, 71, 0
2, 248279, Control_c, 0, 64, 127
2, 248350, Note_on_c, 0, 43, 61
2, 248448, Note_on_c, 0, 47, 0
2, 248452, Note_on_c, 0, 47, 69
2, 248578, Note_on_c, 0, 52, 0
2, 248586, Note_on_c, 0, 52, 74
2, 248832, Note_on_c, 0, 47, 0
2, 248836, Note_on_c, 0, 47, 65
2, 248962, Note_on_c, 0, 52, 0
2, 248962, Note_on_c, 0, 55, 0
2, 248966, Note_on_c, 0, 55, 91
2, 248971, Note_on_c, 0, 52, 74
2, 249216, Note_on_c, 0, 43, 0
2, 249216, Note_on_c, 0, 52, 0
2, 249222, Note_on_c, 0, 52, 69
2, 249223, Note_on_c, 0, 43, 45
2, 249331, Note_on_c, 0, 35, 0
2, 249352, Note_on_c, 0, 61, 82
2, 249354, Note_on_c, 0, 47, 0
2, 249354, Note_on_c, 0, 55, 0
2, 249358, Note_on_c, 0, 55, 79
2, 249361, Note_on_c, 0, 47, 69
2, 249604, Note_on_c, 0, 76, 109
2, 249607, Note_on_c, 0, 43, 0
2, 249607, Note_on_c, 0, 55, 0
2, 249610, Note_on_c, 0, 67, 97
2, 249610, Note_on_c, 0, 71, 98
2, 249612, Note_on_c, 0, 55, 93
2, 249615, Note_on_c, 0, 43, 74
2, 249717, Note_on_c, 0, 75, 102
2, 249845, Note_on_c, 0, 47, 0
2, 249851, Note_on_c, 0, 47, 82
2, 249856, Note_on_c, 0, 73, 105
2, 250065, Note_on_c, 0, 47, 0
2, 250066, Note_on_c, 0, 76, 0
2, 250066, Note_on_c, 0, 71, 0
2, 250066, Note_on_c, 0, 67, 0
2, 250066, Note_on_c, 0, 55, 0
2, 250066, Note_on_c, 0, 52, 0
2, 250067, Note_on_c, 0, 75, 0
2, 250067, Control_c, 0, 64, 0
2, 250067, Note_on_c, 0, 73, 0
2, 250068, Note_on_c, 0, 61, 0
2, 250069, Note_on_c, 0, 43, 0
2, 250113, Note_on_c, 0, 75, 109
2, 250118, Note_on_c, 0, 71, 93
2, 250118, Note_on_c, 0, 66, 99
2, 250119, Note_on_c, 0, 47, 88
2, 250119, Note_on_c, 0, 35, 84
2, 250206, Control_c, 0, 64, 127
2, 250388, Note_on_c, 0, 42, 77
2, 250506, Note_on_c, 0, 47, 0
2, 250510, Note_on_c, 0, 47, 71
2, 250613, Note_on_c, 0, 71, 0
2, 250625, Note_on_c, 0, 71, 98
2, 250636, Note_on_c, 0, 66, 0
2, 250643, Note_on_c, 0, 66, 90
2, 250644, Note_on_c, 0, 63, 85
2, 250888, Note_on_c, 0, 59, 76
2, 251005, Note_on_c, 0, 66, 0
2, 251013, Note_on_c, 0, 47, 0
2, 251016, Note_on_c, 0, 66, 94
2, 251024, Note_on_c, 0, 47, 67
2, 251028, Note_on_c, 0, 63, 0
2, 251034, Note_on_c, 0, 63, 83
2, 251274, Note_on_c, 0, 47, 0
2, 251274, Note_on_c, 0, 54, 72
2, 251281, Note_on_c, 0, 47, 56
2, 251281, Note_on_c, 0, 59, 0
2, 251286, Note_on_c, 0, 59, 54
2, 251386, Note_on_c, 0, 61, 80
2, 251512, Note_on_c, 0, 47, 0
2, 251512, Note_on_c, 0, 59, 0
2, 251512, Note_on_c, 0, 63, 0
2, 251518, Note_on_c, 0, 47, 71
2, 251522, Note_on_c, 0, 63, 59
2, 251523, Note_on_c, 0, 59, 68
2, 251635, Note_on_c, 0, 63, 0
2, 251639, Note_on_c, 0, 63, 82
2, 251888, Note_on_c, 0, 42, 0
2, 251888, Note_on_c, 0, 47, 0
2, 251888, Note_on_c, 0, 59, 0
2, 251893, Note_on_c, 0, 59, 81
2, 251894, Note_on_c, 0, 42, 67
2, 251894, Note_on_c, 0, 47, 66
2, 252142, Note_on_c, 0, 47, 0
2, 252149, Note_on_c, 0, 59, 0
2, 252153, Note_on_c, 0, 47, 79
2, 252153, Note_on_c, 0, 55, 85
2, 252154, Note_on_c, 0, 59, 86
2, 252155, Note_on_c, 0, 43, 66
2, 252159, Control_c, 0, 64, 0
2, 252169, Note_on_c, 0, 63, 0
2, 252170, Note_on_c, 0, 54, 0
2, 252174, Note_on_c, 0, 42, 0
2, 252176, Note_on_c, 0, 61, 0
2, 252177, Note_on_c, 0, 75, 0
2, 252195, Note_on_c, 0, 66, 0
2, 252211, Note_on_c, 0, 71, 0
2, 252241, Note_on_c, 0, 43, 0
2, 252280, Control_c, 0, 64, 127
2, 252311, Note_on_c, 0, 35, 0
2, 252396, Note_on_c, 0, 43, 64
2, 252510, Note_on_c, 0, 43, 0
2, 252510, Note_on_c, 0, 47, 0
2, 252514, Note_on_c, 0, 47, 69
2, 252517, Note_on_c, 0, 43, 55
2, 252660, Note_on_c, 0, 52, 70
2, 252879, Note_on_c, 0, 43, 0
2, 252879, Note_on_c, 0, 47, 0
2, 252885, Note_on_c, 0, 47, 70
2, 252888, Note_on_c, 0, 43, 52
2, 253009, Note_on_c, 0, 55, 0
2, 253017, Note_on_c, 0, 52, 0
2, 253021, Note_on_c, 0, 55, 87
2, 253021, Note_on_c, 0, 52, 78
2, 253263, Note_on_c, 0, 52, 0
2, 253271, Note_on_c, 0, 43, 0
2, 253273, Note_on_c, 0, 52, 67
2, 253275, Note_on_c, 0, 43, 43
2, 253386, Note_on_c, 0, 47, 0
2, 253386, Note_on_c, 0, 55, 0
2, 253386, Note_on_c, 0, 59, 0
2, 253389, Note_on_c, 0, 61, 90
2, 253394, Note_on_c, 0, 59, 78
2, 253396, Note_on_c, 0, 55, 78
2, 253397, Note_on_c, 0, 47, 69
2, 253639, Note_on_c, 0, 55, 0
2, 253647, Note_on_c, 0, 52, 0
2, 253651, Note_on_c, 0, 55, 94
2, 253651, Note_on_c, 0, 76, 110
2, 253652, Note_on_c, 0, 67, 100
2, 253652, Note_on_c, 0, 71, 100
2, 253655, Note_on_c, 0, 52, 78
2, 253781, Note_on_c, 0, 75, 99
2, 253877, Note_on_c, 0, 47, 0
2, 253888, Note_on_c, 0, 47, 85
2, 253908, Note_on_c, 0, 67, 0
2, 253914, Note_on_c, 0, 73, 100
2, 253918, Note_on_c, 0, 67, 79
2, 254110, Note_on_c, 0, 47, 0
2, 254110, Note_on_c, 0, 67, 0
2, 254110, Note_on_c, 0, 76, 0
2, 254110, Note_on_c, 0, 71, 0
2, 254110, Note_on_c, 0, 52, 0
2, 254110, Control_c, 0, 64, 0
2, 254111, Note_on_c, 0, 59, 0
2, 254111, Note_on_c, 0, 61, 0
2, 254111, Note_on_c, 0, 75, 0
2, 254111, Note_on_c, 0, 73, 0
2, 254112, Note_on_c, 0, 43, 0
2, 254123, Note_on_c, 0, 55, 0
2, 254162, Note_on_c, 0, 75, 110
2, 254166, Note_on_c, 0, 71, 95
2, 254166, Note_on_c, 0, 47, 93
2, 254167, Note_on_c, 0, 66, 101
2, 254171, Note_on_c, 0, 35, 88
2, 254173, Note_on_c, 0, 69, 73
2, 254174, Note_on_c, 0, 63, 81
2, 254184, Note_on_c, 0, 63, 0
2, 254238, Control_c, 0, 64, 127
2, 254330, Note_on_c, 0, 35, 0
2, 254415, Note_on_c, 0, 47, 0
2, 254420, Note_on_c, 0, 47, 69
2, 254553, Note_on_c, 0, 47, 0
2, 254557, Note_on_c, 0, 59, 81
2, 254559, Note_on_c, 0, 51, 70
2, 254562, Note_on_c, 0, 47, 68
2, 254562, Note_on_c, 0, 54, 68
2, 254688, Note_on_c, 0, 58, 74
2, 254807, Note_on_c, 0, 47, 0
2, 254807, Note_on_c, 0, 59, 0
2, 254811, Note_on_c, 0, 59, 76
2, 254813, Note_on_c, 0, 47, 69
2, 254934, Note_on_c, 0, 61, 82
2, 254934, Note_on_c, 0, 35, 76
2, 255052, Note_on_c, 0, 59, 0
2, 255061, Note_on_c, 0, 59, 73
2, 255144, Note_on_c, 0, 54, 0
2, 255154, Note_on_c, 0, 54, 69
2, 255160, Note_on_c, 0, 47, 0
2, 255160, Note_on_c, 0, 61, 0
2, 255169, Note_on_c, 0, 47, 76
2, 255171, Note_on_c, 0, 61, 85
2, 255287, Note_on_c, 0, 63, 95
2, 255290, Note_on_c, 0, 54, 0
2, 255290, Note_on_c, 0, 59, 0
2, 255298, Note_on_c, 0, 54, 78
2, 255298, Note_on_c, 0, 51, 0
2, 255298, Note_on_c, 0, 59, 73
2, 255303, Note_on_c, 0, 51, 75
2, 255429, Note_on_c, 0, 61, 0
2, 255440, Note_on_c, 0, 61, 86
2, 255536, Note_on_c, 0, 63, 0
2, 255540, Note_on_c, 0, 63, 89
2, 255544, Note_on_c, 0, 47, 0
2, 255544, Note_on_c, 0, 59, 0
2, 255548, Note_on_c, 0, 59, 76
2, 255552, Note_on_c, 0, 47, 77
2, 255659, Note_on_c, 0, 35, 0
2, 255662, Note_on_c, 0, 64, 102
2, 255664, Note_on_c, 0, 35, 84
2, 255774, Note_on_c, 0, 66, 0
2, 255785, Note_on_c, 0, 66, 99
2, 255887, Note_on_c, 0, 32, 85
2, 255887, Note_on_c, 0, 42, 93
2, 255888, Note_on_c, 0, 30, 92
2, 255889, Note_on_c, 0, 63, 0
2, 255889, Note_on_c, 0, 64, 0
2, 255893, Note_on_c, 0, 68, 98
2, 255893, Note_on_c, 0, 59, 0
2, 255893, Note_on_c, 0, 64, 73
2, 255896, Note_on_c, 0, 63, 74
2, 256022, Note_on_c, 0, 70, 91
2, 256095, Control_c, 0, 64, 0
2, 256099, Note_on_c, 0, 30, 0
2, 256100, Note_on_c, 0, 68, 0
2, 256100, Note_on_c, 0, 64, 0
2, 256100, Note_on_c, 0, 54, 0
2, 256101, Note_on_c, 0, 42, 0
2, 256101, Note_on_c, 0, 63, 0
2, 256102, Note_on_c, 0, 70, 0
2, 256104, Note_on_c, 0, 32, 0
2, 256112, Note_on_c, 0, 35, 0
2, 256112, Note_on_c, 0, 47, 0
2, 256112, Note_on_c, 0, 51, 0
2, 256112, Note_on_c, 0, 58, 0
2, 256112, Note_on_c, 0, 69, 0
2, 256112, Note_on_c, 0, 71, 0
2, 256120, Note_on_c, 0, 61, 0
2, 256120, Note_on_c, 0, 66, 0
2, 256128, Note_on_c, 0, 75, 0
2, 256139, Note_on_c, 0, 71, 108
2, 256143, Note_on_c, 0, 59, 94
2, 256147, Note_on_c, 0, 47, 97
2, 256149, Note_on_c, 0, 35, 87
2, 256197, Control_c, 0, 64, 127
2, 256271, Note_on_c, 0, 70, 101
2, 256277, Note_on_c, 0, 58, 82
2, 256280, Note_on_c, 0, 46, 73
2, 256289, Note_on_c, 0, 46, 0
2, 256381, Note_on_c, 0, 47, 0
2, 256381, Note_on_c, 0, 59, 0
2, 256381, Note_on_c, 0, 71, 0
2, 256386, Note_on_c, 0, 71, 106
2, 256392, Note_on_c, 0, 59, 90
2, 256392, Note_on_c, 0, 47, 74
2, 256442, Note_on_c, 0, 35, 0
2, 256478, Note_on_c, 0, 54, 95
2, 256484, Note_on_c, 0, 51, 92
2, 256493, Note_on_c, 0, 73, 105
2, 256496, Note_on_c, 0, 70, 0
2, 256500, Note_on_c, 0, 61, 93
2, 256502, Note_on_c, 0, 63, 81
2, 256507, Note_on_c, 0, 70, 90
2, 256611, Note_on_c, 0, 71, 0
2, 256618, Note_on_c, 0, 71, 105
2, 256619, Note_on_c, 0, 47, 0
2, 256619, Note_on_c, 0, 59, 0
2, 256629, Note_on_c, 0, 59, 88
2, 256630, Note_on_c, 0, 47, 69
2, 256734, Note_on_c, 0, 47, 0
2, 256734, Note_on_c, 0, 61, 0
2, 256734, Note_on_c, 0, 73, 0
2, 256743, Note_on_c, 0, 73, 103
2, 256744, Note_on_c, 0, 61, 98
2, 256744, Note_on_c, 0, 47, 83
2, 256746, Note_on_c, 0, 35, 72
2, 256789, Control_c, 0, 64, 0
2, 256791, Note_on_c, 0, 58, 0
2, 256791, Note_on_c, 0, 61, 0
2, 256791, Note_on_c, 0, 54, 0
2, 256791, Note_on_c, 0, 73, 0
2, 256791, Note_on_c, 0, 59, 0
2, 256791, Note_on_c, 0, 70, 0
2, 256791, Note_on_c, 0, 71, 0
2, 256792, Note_on_c, 0, 51, 0
2, 256792, Note_on_c, 0, 63, 0
2, 256834, Note_on_c, 0, 35, 0
2, 256834, Note_on_c, 0, 47, 0
2, 256840, Note_on_c, 0, 47, 100
2, 256845, Note_on_c, 0, 35, 92
2, 256846, Note_on_c, 0, 63, 102
2, 256846, Note_on_c, 0, 75, 110
2, 256872, Control_c, 0, 64, 127
2, 256976, Note_on_c, 0, 73, 97
2, 256982, Note_on_c, 0, 70, 73
2, 256982, Note_on_c, 0, 61, 88
2, 257072, Note_on_c, 0, 35, 0
2, 257080, Note_on_c, 0, 47, 0
2, 257080, Note_on_c, 0, 75, 0
2, 257085, Note_on_c, 0, 47, 79
2, 257088, Note_on_c, 0, 63, 0
2, 257088, Note_on_c, 0, 59, 84
2, 257091, Note_on_c, 0, 75, 103
2, 257092, Note_on_c, 0, 63, 89
2, 257092, Note_on_c, 0, 71, 80
2, 257093, Note_on_c, 0, 51, 61
2, 257195, Note_on_c, 0, 51, 0
2, 257198, Note_on_c, 0, 76, 112
2, 257202, Note_on_c, 0, 54, 89
2, 257203, Note_on_c, 0, 51, 81
2, 257203, Note_on_c, 0, 64, 100
2, 257204, Note_on_c, 0, 66, 96
2, 257318, Note_on_c, 0, 66, 0
2, 257322, Note_on_c, 0, 78, 108
2, 257327, Note_on_c, 0, 66, 103
2, 257402, Note_on_c, 0, 47, 0
2, 257411, Note_on_c, 0, 47, 98
2, 257420, Note_on_c, 0, 35, 84
2, 257433, Note_on_c, 0, 70, 0
2, 257443, Note_on_c, 0, 82, 106
2, 257443, Note_on_c, 0, 70, 95
2, 257548, Note_on_c, 0, 83, 113
2, 257548, Note_on_c, 0, 35, 0
2, 257548, Note_on_c, 0, 71, 0
2, 257552, Note_on_c, 0, 35, 83
2, 257553, Note_on_c, 0, 71, 101
2, 257679, Note_on_c, 0, 87, 98
2, 257679, Note_on_c, 0, 75, 0
2, 257685, Note_on_c, 0, 75, 85
2, 257690, Note_on_c, 0, 85, 80
2, 257779, Note_on_c, 0, 76, 0
2, 257785, Note_on_c, 0, 88, 111
2, 257786, Note_on_c, 0, 42, 83
2, 257786, Note_on_c, 0, 35, 0
2, 257786, Note_on_c, 0, 82, 0
2, 257788, Note_on_c, 0, 76, 109
2, 257791, Note_on_c, 0, 35, 75
2, 257791, Note_on_c, 0, 82, 89
2, 257894, Note_on_c, 0, 78, 0
2, 257901, Note_on_c, 0, 90, 106
2, 257903, Note_on_c, 0, 78, 105
2, 258014, Note_on_c, 0, 42, 0
2, 258014, Note_on_c, 0, 54, 0
2, 258014, Control_c, 0, 64, 0
2, 258015, Note_on_c, 0, 51, 0
2, 258015, Note_on_c, 0, 87, 0
2, 258015, Note_on_c, 0, 66, 0
2, 258015, Note_on_c, 0, 75, 0
2, 258015, Note_on_c, 0, 85, 0
2, 258015, Note_on_c, 0, 63, 0
2, 258015, Note_on_c, 0, 73, 0
2, 258015, Note_on_c, 0, 76, 0
2, 258015, Note_on_c, 0, 64, 0
2, 258015, Note_on_c, 0, 35, 0
2, 258015, Note_on_c, 0, 61, 0
2, 258015, Note_on_c, 0, 83, 0
2, 258015, Note_on_c, 0, 82, 0
2, 258015, Note_on_c, 0, 71, 0
2, 258016, Note_on_c, 0, 90, 0
2, 258016, Note_on_c, 0, 88, 0
2, 258016, Note_on_c, 0, 78, 0
2, 258016, Note_on_c, 0, 70, 0
2, 258024, Note_on_c, 0, 59, 0
2, 258032, Note_on_c, 0, 47, 0
2, 258068, Note_on_c, 0, 95, 110
2, 258069, Note_on_c, 0, 83, 112
2, 258070, Note_on_c, 0, 47, 104
2, 258071, Note_on_c, 0, 35, 93
2, 258074, Note_on_c, 0, 87, 103
2, 258170, Control_c, 0, 64, 127
2, 258631, Note_on_c, 0, 83, 0
2, 258639, Note_on_c, 0, 59, 96
2, 258642, Note_on_c, 0, 83, 111
2, 258643, Note_on_c, 0, 63, 97
2, 258643, Note_on_c, 0, 66, 105
2, 258645, Note_on_c, 0, 75, 101
2, 258645, Note_on_c, 0, 71, 104
2, 258648, Note_on_c, 0, 78, 104
2, 259215, Note_on_c, 0, 35, 0
2, 259225, Note_on_c, 0, 35, 71
2, 259284, Note_on_c, 0, 35, 0
2, 259284, Note_on_c, 0, 47, 0
2, 259289, Note_on_c, 0, 47, 76
2, 259291, Note_on_c, 0, 35, 61
2, 259353, Note_on_c, 0, 35, 0
2, 259361, Note_on_c, 0, 47, 0
2, 259361, Note_on_c, 0, 59, 0
2, 259364, Note_on_c, 0, 35, 83
2, 259367, Note_on_c, 0, 59, 103
2, 259370, Note_on_c, 0, 47, 95
2, 259374, Note_on_c, 0, 54, 97
2, 259376, Note_on_c, 0, 51, 90
2, 259455, Note_on_c, 0, 87, 0
2, 259457, Note_on_c, 0, 63, 0
2, 259457, Control_c, 0, 64, 0
2, 259476, Note_on_c, 0, 95, 0
2, 259699, Control_c, 0, 64, 127
2, 263040, Note_on_c, 0, 35, 0
2, 263040, Note_on_c, 0, 47, 0
2, 263040, Note_on_c, 0, 51, 0
2, 263040, Note_on_c, 0, 54, 0
2, 263040, Note_on_c, 0, 59, 0
2, 263040, Note_on_c, 0, 66, 0
2, 263040, Note_on_c, 0, 71, 0
2, 263040, Note_on_c, 0, 75, 0
2, 263040, Note_on_c, 0, 78, 0
2, 263040, Note_on_c, 0, 83, 0
2, 263040, Control_c, 0, 64, 0
2, 263124, Control_c, 0, 64, 127
2, 263758, Control_c, 0, 64, 0
2, 263761, Control_c, 0, 64, 127
2, 264038, Control_c, 0, 64, 0
2, 264039, End_track
0, 0, End_of_file
